<?xml version="1.0" encoding="UTF-8" standalone="no"?>
<!-- Created with Inkscape (http://www.inkscape.org/) -->

<svg
   width="5.3734078mm"
   height="9.3577538mm"
   viewBox="0 0 5.3734081 9.3577534"
   version="1.1"
   id="svg1"
   sodipodi:docname="Numbers.svg"
   inkscape:version="1.3.2 (091e20e, 2023-11-25, custom)"
   inkscape:export-filename="0.svg"
   inkscape:export-xdpi="96"
   inkscape:export-ydpi="96"
   xmlns:inkscape="http://www.inkscape.org/namespaces/inkscape"
   xmlns:sodipodi="http://sodipodi.sourceforge.net/DTD/sodipodi-0.dtd"
   xmlns="http://www.w3.org/2000/svg"
   xmlns:svg="http://www.w3.org/2000/svg">
  <sodipodi:namedview
     id="namedview1"
     pagecolor="#ffffff"
     bordercolor="#666666"
     borderopacity="1.0"
     inkscape:showpageshadow="2"
     inkscape:pageopacity="0.0"
     inkscape:pagecheckerboard="0"
     inkscape:deskcolor="#d1d1d1"
     inkscape:document-units="mm"
     showguides="true"
     inkscape:lockguides="false"
     inkscape:zoom="8"
     inkscape:cx="21.75"
     inkscape:cy="32.1875"
     inkscape:window-width="1920"
     inkscape:window-height="1017"
     inkscape:window-x="1912"
     inkscape:window-y="-8"
     inkscape:window-maximized="1"
     inkscape:current-layer="layer1" />
  <defs
     id="defs1">
    <clipPath
       id="clipPath18"
       clipPathUnits="userSpaceOnUse">
      <path
         style="clip-rule:evenodd"
         id="path16"
         d="M -30.629999,-133.89 H 12.57 V 87.230003 h -43.199999 z" />
    </clipPath>
    <clipPath
       id="clipPath28"
       clipPathUnits="userSpaceOnUse">
      <path
         style="clip-rule:evenodd"
         id="path26-2"
         d="M -31.85,-92.809998 H 13.43 V 128.31 h -45.28 z" />
    </clipPath>
    <clipPath
       id="clipPath38"
       clipPathUnits="userSpaceOnUse">
      <path
         style="clip-rule:evenodd"
         id="path36"
         d="M -38.759998,-93.809998 H 4.44 V 127.31 h -43.199998 z" />
    </clipPath>
    <clipPath
       id="clipPath48"
       clipPathUnits="userSpaceOnUse">
      <path
         style="clip-rule:evenodd"
         id="path46"
         d="M -39.549999,-135.74 H 3.65 V 85.379997 h -43.199999 z" />
    </clipPath>
    <clipPath
       id="clipPath58-5"
       clipPathUnits="userSpaceOnUse">
      <path
         style="clip-rule:evenodd"
         id="path56"
         d="M -33.900002,-116.96 H 9.3 v 221.12 h -43.200002 z" />
    </clipPath>
    <clipPath
       id="clipPath68"
       clipPathUnits="userSpaceOnUse">
      <path
         style="clip-rule:evenodd"
         id="path66"
         d="M -39.18,-134.21001 H 4.02 V 86.910004 h -43.2 z" />
    </clipPath>
    <clipPath
       id="clipPath78"
       clipPathUnits="userSpaceOnUse">
      <path
         style="clip-rule:evenodd"
         id="path76"
         d="M -38.759998,-95.760002 H 4.44 V 125.36 h -43.199998 z" />
    </clipPath>
    <clipPath
       id="clipPath88"
       clipPathUnits="userSpaceOnUse">
      <path
         style="clip-rule:evenodd"
         id="path86"
         d="M -38.759998,-127.88 H 4.44 V 93.239998 h -43.199998 z" />
    </clipPath>
    <clipPath
       id="clipPath98"
       clipPathUnits="userSpaceOnUse">
      <path
         style="clip-rule:evenodd"
         id="path96"
         d="M -36.330002,-132.67999 H 6.87 V 88.440002 h -43.200002 z" />
    </clipPath>
    <clipPath
       id="clipPath108"
       clipPathUnits="userSpaceOnUse">
      <path
         style="clip-rule:evenodd"
         id="path106"
         d="m -30.27,-113.9 h 43.2 v 221.12 h -43.2 z" />
    </clipPath>
  </defs>
  <g
     inkscape:label="Layer 1"
     inkscape:groupmode="layer"
     id="layer1"
     transform="translate(-183.09467,-59.835324)">
    <g
       id="g11"
       transform="translate(79.091734)">
      <g
         id="g10">
        <path
           id="path100"
           style="fill:#000000;fill-opacity:1;fill-rule:nonzero;stroke:none"
           d="m 0,0 c 0.53,0.88 0.79,1.9 0.79,3.06 0,0.82 -0.44,2.87 -1.32,6.17 -0.56,1.24 -1.05,1.85 -1.47,1.84 -0.42,0.01 -0.97,-0.34 -1.64,-1.05 -2.88,-3.16 -5.27,-7.71 -7.17,-13.66 -1.65,-5.09 -2.63,-10.03 -2.95,-14.819999 -3.48,2.359999 -6.08,3.539999 -7.81,3.529999 -0.45,0.01 -0.91,-0.04 -1.370001,-0.16 -2.139999,-0.41 -3.869998,-1.459999 -5.17,-3.16 -1.299999,-1.57 -1.959999,-3.43 -2,-5.59 -0.1,-4.030001 0.780001,-8.020001 2.640002,-11.970001 2,-4.32 4.319999,-6.459999 6.959999,-6.430001 3.76,0.08 6.63,2.730004 8.59,7.960003 1.06,2.859999 1.97,7.199999 2.74,13.019999 0.6,4.550001 1.89,8.7 3.85,12.45 1.76,2.96 3.54,5.9 5.33,8.81 z M -18.51,-29.059999 C -18.51,-29.65 -18.940001,-30.16 -19.799999,-30.58 -20.66,-31 -21.530001,-31.190001 -22.41,-31.17 c -1.370001,0.360001 -2.18,1.08 -2.43,2.16 -0.31,1.559999 0.729999,2.33 3.11,2.319999 0.680001,0.01 1.260001,-0.109998 1.74,-0.369998 0.99,-0.860001 1.48,-1.530001 1.48,-2 z"
           transform="matrix(0.14594677,0,0,0.14594677,117.35103,66.590494)"
           inkscape:label="9" />
      </g>
      <g
         id="g9">
        <path
           id="path90"
           style="fill:#000000;fill-opacity:1;fill-rule:nonzero;stroke:none"
           d="m 0,0 c -0.38,2.78 -0.67,6.39 -0.85,10.81 -0.03,1.17 -0.33,1.75 -0.89,1.74 -1.65,0.01 -4.75,-4.24 -9.31,-12.75 -4.55,-8.5 -7.390001,-15.31 -8.52,-20.420001 C -20.09,-16.6 -21.41,-11.35 -23.52,-4.85 c -2.039999,6.3 -3.97,11.22 -5.8,14.76 -2.040001,3.95 -3.16,4.6 -3.380001,1.95 -0.450001,-5.3 -0.189998,-8.76 0.790001,-10.39 2.4,-3.92 4.520001,-9.16 6.379999,-15.71 1.24,-4.880001 2.470002,-9.75 3.690001,-14.61 1.130001,-4.280001 2.149999,-6.42 3.059999,-6.429999 0.570002,0.01 1.290001,1.770001 2.16,5.269999 C -15.42,-25.040001 -13.75,-20.610001 -11.61,-16.719999 -8.51,-11.08 -5.52,-6.72 -2.64,-3.64 -0.81,-1.63 0.07,-0.42 0,0 Z"
           transform="matrix(0.14594677,0,0,0.14594677,126.50919,65.889951)"
           inkscape:label="8" />
      </g>
      <g
         id="g8">
        <path
           id="path80"
           style="fill:#000000;fill-opacity:1;fill-rule:nonzero;stroke:none"
           d="m 0,0 c 0.1,2.54 -0.02,4.39 -0.37,5.54 -0.56,1.77 -1.43,3.93 -2.59,6.49 -1.44,3.31 -3.28,8.07 -5.53,14.29 -3.97,14.099998 -6.73,21.150001 -8.28,21.139999 -0.420001,0.01 -0.72,-0.52 -0.9,-1.579998 -0.31,-1.960003 -0.639999,-3.940002 -1,-5.960003 -0.35,-1.889999 -0.91,-3.769996 -1.690001,-5.639999 C -22.68,28.629999 -25.17,23.85 -27.85,19.940001 -29.530001,17.66 -31.24,15.38 -32.959999,13.08 c -1.260002,-1.78 -1.900002,-3.7 -1.900002,-5.75 0,0.01 0.25,-2.03 0.740002,-6.11 0.139999,-1.05 0.489998,-1.58 1.049999,-1.59 1.83,0.01 5.100001,4.35 9.81,13.03 4.58,8.479999 7.39,15.130001 8.44,19.93 C -8.14,8.38 -3.58,-3.73 -1.16,-3.74 -0.49,-3.73 -0.1,-2.48 0,0 Z"
           transform="matrix(0.14594677,0,0,0.14594677,135.33605,61.202139)"
           inkscape:label="7" />
      </g>
      <g
         id="g7">
        <path
           id="path70"
           style="fill:#000000;fill-opacity:1;fill-rule:nonzero;stroke:none"
           d="M 0,0 C 0,2.82 -0.51,5.01 -1.53,6.59 -1.99,7.3 -2.5,7.65 -3.06,7.64 -4.82,7.65 -6.73,4.93 -8.81,-0.53 c -1.79,-4.67 -3.04,-9.68 -3.74,-15.03 -0.38,-2.94 -0.75,-7.94 -1.11,-14.980001 -3.370001,1.280001 -7.33,1.910002 -11.870001,1.900002 C -32.66,-28.629999 -36.23,-30.110001 -36.23,-33.07 c 0,-1.43 0.3,-3.080002 0.899998,-4.959999 0.780003,-2.34 1.720001,-3.52 2.84,-3.530002 0.220002,0.01 0.430001,0.05 0.640002,0.11 3.130001,1.130001 6.42,1.690003 9.86,1.680001 1.619999,0.01 3.51,-0.130002 5.690001,-0.41 2.179999,-0.279999 3.519999,-0.419998 4.009999,-0.430001 1.34,0.01 2.04,0.5 2.11,1.48 0.6,10.310001 1.83,18.68 3.69,25.100001 0.53,1.8 1.81,4.42 3.85,7.86 C -0.88,-3.21 0,-1.15 0,0 Z"
           transform="matrix(0.14594677,0,0,0.14594677,144.20086,66.813795)"
           inkscape:label="6" />
      </g>
      <g
         id="g6">
        <path
           id="path60-1"
           style="fill:#000000;fill-opacity:1;fill-rule:nonzero;stroke:none"
           d="m 0,0 c 0,5.28 -1.3,9.71 -3.9,13.29 -2.84,3.95 -6.76,6.080001 -11.76,6.38 -1.719999,0.120001 -3.6,-0.59 -5.639999,-2.110001 C -23.969999,15.6 -25.43,12.84 -25.68,9.28 c -0.199999,-3.33 0.92,-8.71 3.380001,-16.13 2.99,-9.03 6.419999,-13.55 10.279999,-13.56 1.94,0.01 4.29,1.869999 7.07,5.59 C -1.65,-10.38 0,-5.44 0,0 Z m -4.06,4.12 c 0,-3.05 -1.44,-6.25 -4.32,-9.6 -2.64,-3.08 -4.71,-4.51 -6.22,-4.27 -1.760001,0.15 -3.459999,2.08 -5.119999,5.8 C -21.190001,-0.6 -21.93,2.21 -21.93,4.48 c 0,0.47 0.06,0.82 0.16,1.06 1.37,3.21 3.76,4.58 7.17,4.11 0.11,0.15 0.41,0.22 0.89,0.21 1.9,0.01 3.84,-0.41 5.8,-1.26 2.57,-1.12 3.85,-2.61 3.85,-4.48 z"
           transform="matrix(0.14594677,0,0,0.14594677,152.25712,64.296214)"
           inkscape:label="5" />
      </g>
      <g
         id="g5">
        <path
           id="path50"
           style="fill:#000000;fill-opacity:1;fill-rule:nonzero;stroke:none"
           d="m 0,0 c -3.38,3.7 -6.15,6.14 -8.33,7.33 -2.36,1.27 -5.42,1.89 -9.18,1.89 -2.459999,0 -4.449999,-0.7 -5.98,-2.13 -1.53,-1.42 -2.300001,-3.32 -2.300001,-5.72 0,-1.54 0.710001,-3.85 2.110001,-6.93 1.41,-3.07 2.11,-5.09 2.11,-6.05 0,-1.15 -0.960001,-1.97 -2.899999,-2.47 -2.810002,-0.66 -4.600001,-1.25 -5.380001,-1.75 -1.930001,-1.25 -2.9,-3.450001 -2.9,-6.59 0,-3.75 2.6,-8.709999 7.799999,-14.870001 4.890002,-5.790001 8.320002,-8.689999 10.290001,-8.700001 0.42,0.01 0.63,0.260002 0.63,0.740002 0,0.709999 -0.44,2.290001 -1.32,4.75 -0.8,2.18 -3.07,4.610001 -6.8,7.27 -3.44,2.439999 -5.17,4.16 -5.17,5.170001 0,0.219999 0.04,0.43 0.110001,0.629999 0.32,0.86 1.629999,1.61 3.949999,2.27 3.309999,0.92 5.33,1.57 6.069999,1.950001 2.110001,1.059999 3.160001,2.509998 3.160001,4.33 0,2.679998 -0.83,5.349999 -2.500001,8.019999 -1.67,2.68 -2.51,4.63 -2.51,5.85 0,2.82 2.410002,4.22 7.220001,4.21 3.14,0.01 6.64,-0.59 10.5,-1.79 C -0.3,-2.89 0.48,-3.05 1,-3.06 2.2,-3.05 1.86,-2.03 0,0 Z"
           transform="matrix(0.14594677,0,0,0.14594677,161.88523,67.037092)"
           inkscape:label="4" />
      </g>
      <g
         id="g4">
        <path
           id="path40"
           style="fill:#000000;fill-opacity:1;fill-rule:nonzero;stroke:none"
           d="m 0,0 c 0,3.56 -0.79,7.03 -2.38,10.39 -1.72,3.66 -3.63,5.49 -5.75,5.48 -1.78,0.01 -3.1,-0.29 -3.95,-0.89 -0.88,-0.73 -1.76,-1.47 -2.64,-2.22 -0.66,1.49 -1.95,2.85 -3.87,4.07 -1.92,1.24 -3.49,1.780001 -4.719999,1.629999 C -22.57,20.860001 -21.82,23.26 -21.040001,25.68 c 1.160002,4.619999 1.740002,9.5 1.740002,14.66 0,6.939999 -0.400002,10.400002 -1.220001,10.39 -0.340001,0.01 -0.75,-0.71 -1.21,-2.16 -0.210001,-1.75 -0.560001,-4.579998 -1.060001,-8.489998 C -23.41,35.099998 -25.57,28.700001 -29.27,20.879999 c -0.949999,-2.019998 -2.369999,-4.75 -4.270001,-8.169999 -1.34,-2.45 -2.009998,-3.86 -2.009998,-4.22 0,-1.12 0.229999,-2.79 0.689998,-5.01 0.5,-2.66 1.020001,-4 1.580002,-4.01 0.219998,0.01 0.41,0.19 0.579998,0.53 2.110001,3.84 3.41,6.02 3.900002,6.54 1.019998,1.14 2.679998,1.7 4.959999,1.69 3.24,0.01 5.559999,-1.05 6.960001,-3.17 C -15.75,2.68 -14.62,0.31 -13.5,-2.06 c 0.21,-0.41 0.51,-0.62 0.89,-0.63 1.06,0.01 1.48,0.73 1.27,2.16 -0.07,0.54 -0.11,1.05 -0.11,1.53 0,2.86 1.25,4.28 3.75,4.27 1.83,0.01 3.04,-0.29 3.64,-0.89 0.81,-0.8 1.63,-2.85 2.47,-6.17 0.18,-0.41 0.38,-0.62 0.58,-0.63 C -0.33,-2.41 0,-1.6 0,0 Z"
           transform="matrix(0.14594677,0,0,0.14594677,170.59679,60.917544)"
           inkscape:label="3" />
      </g>
      <g
         id="g3">
        <path
           id="path30-8"
           style="fill:#000000;fill-opacity:1;fill-rule:nonzero;stroke:none"
           d="m 0,0 c 0,7.04 -1.05,12.09 -3.17,15.13 -1.4,2.05 -4,3.759999 -7.8,5.12 1.38,4.049999 2.94,9.43 4.69,16.139999 0.64,4.16 0.95,6.970002 0.95,8.430001 0,1.979999 -0.26,3.580002 -0.79,4.799999 -0.66,1.600002 -1.12,2.389999 -1.37,2.380001 -0.1,0.01 -0.56,-2.279999 -1.37,-6.860001 -1.02,-5.86 -2.74,-11.259998 -5.17,-16.189998 C -15.89,25.17 -18.52,20.719999 -21.940001,15.61 c -2.35,-3.5 -3.529998,-5.91 -3.529998,-7.23 0,-0.34 0.25,-1.06 0.739999,-2.16 0.600001,-1.29 1.029999,-2.66 1.31,-4.11 0.18,-0.8 0.43,-1.2 0.74,-1.21 0.08,0.01 1.26,1.38 3.540001,4.12 2.279998,2.74 4.639999,4.08 7.059999,4 3.98,-0.1 6.61,-1.22 7.91,-3.38 0.36,-0.55 1.06,-3.12 2.11,-7.7 0.08,-0.3 0.25,-0.46 0.53,-0.47 C -0.51,-2.52 0,-1.68 0,0 Z"
           transform="matrix(0.14594677,0,0,0.14594677,178.41516,60.771598)"
           inkscape:label="2" />
      </g>
      <g
         id="g2">
        <path
           id="path20"
           style="fill:#000000;fill-opacity:1;fill-rule:nonzero;stroke:none"
           d="m 0,0 c 0.11,1.8 -0.2,4.24 -0.94,7.31 -0.74,3.08 -1.39,4.61 -1.96,4.61 -0.31,0 -0.54,-0.61 -0.68,-1.85 C -3.82,6.74 -4.09,3.4 -4.37,0.05 c -0.56,-2.9 -2.57,-7.51 -6.01,-13.81 -1.34,-2.459999 -3.69,-6.17 -7.070001,-11.129999 C -19.52,-27.91 -20.91,-30.77 -21.620001,-33.490002 c -0.1,-0.439998 0.380001,-3.179996 1.43,-8.219997 0.140002,-0.620003 0.370001,-0.940003 0.680001,-0.950001 0.6,0.01 1.399999,0.959999 2.380001,2.849999 C -11.08,-30.700001 -7.6,-25.25 -6.69,-23.469999 -2.79,-16.01 -0.56,-8.18 0,0 Z"
           inkscape:label="1"
           transform="matrix(0.14594677,0,0,0.14594677,187.36753,66.767091)" />
      </g>
      <g
         id="g1">
        <path
           id="path110"
           style="fill:#000000;fill-opacity:1;fill-rule:nonzero;stroke:none;stroke-width:0.145947"
           d="m 107.63973,65.252779 c 0,0.197028 -0.0379,0.448057 -0.11676,0.754545 -0.10216,0.391137 -0.21892,0.604219 -0.35319,0.639247 -0.0919,0.0015 -0.32254,-0.06276 -0.69325,-0.19265 -0.47578,-0.157623 -0.77059,-0.326921 -0.88443,-0.507895 -0.0146,-0.02335 -0.0234,-0.07589 -0.0234,-0.154703 0,-0.233515 0.0569,-0.534166 0.16929,-0.900492 0.11822,-0.382381 0.22622,-0.57503 0.32401,-0.57649 0.0978,0.0015 0.37654,0.124055 0.83773,0.369246 0.4933,0.268542 0.73995,0.458272 0.73995,0.569192 z"
           inkscape:label="0" />
      </g>
    </g>
  </g>
</svg>
