<?xml version="1.0" encoding="UTF-8" standalone="no"?>
<!-- Created with Inkscape (http://www.inkscape.org/) -->

<svg
   width="90.725212mm"
   height="15.624372mm"
   viewBox="0 0 90.725214 15.624371"
   version="1.1"
   id="svg1"
   inkscape:version="1.3.2 (091e20e, 2023-11-25, custom)"
   sodipodi:docname="Qaris.svg"
   inkscape:export-filename="Husary.svg"
   inkscape:export-xdpi="96"
   inkscape:export-ydpi="96"
   xmlns:inkscape="http://www.inkscape.org/namespaces/inkscape"
   xmlns:sodipodi="http://sodipodi.sourceforge.net/DTD/sodipodi-0.dtd"
   xmlns="http://www.w3.org/2000/svg"
   xmlns:svg="http://www.w3.org/2000/svg">
  <sodipodi:namedview
     id="namedview1"
     pagecolor="#ffffff"
     bordercolor="#666666"
     borderopacity="1.0"
     inkscape:showpageshadow="2"
     inkscape:pageopacity="0.0"
     inkscape:pagecheckerboard="0"
     inkscape:deskcolor="#d1d1d1"
     inkscape:document-units="mm"
     inkscape:zoom="2.9255612"
     inkscape:cx="178.08549"
     inkscape:cy="78.104674"
     inkscape:window-width="1920"
     inkscape:window-height="1017"
     inkscape:window-x="-8"
     inkscape:window-y="-8"
     inkscape:window-maximized="1"
     inkscape:current-layer="layer1" />
  <defs
     id="defs1" />
  <g
     inkscape:label="Layer 1"
     inkscape:groupmode="layer"
     id="layer1"
     transform="translate(-38.241902)">
    <path
       d="m 127.80407,2.7655835 q 0.0827,0.0052 0.0775,0.191202 -0.0103,0.19637 0.005,0.387572 0.0155,0.186035 0.0413,0.377237 0.0517,0.459919 0.12402,0.950843 0.0724,0.485757 0.14469,0.98185 0.0672,0.490924 0.13436,0.981849 0.0672,0.490924 0.11369,0.956011 0.0207,0.180867 0.0258,0.423745 0.0103,0.242878 -0.005,0.496092 -0.0103,0.248046 -0.0568,0.480589 -0.0414,0.232544 -0.11886,0.387572 -0.0413,0.08785 -0.0982,0.113688 -0.0465,0.0052 -0.0413,-0.04134 -0.031,-0.449583 -0.0775,-0.904334 -0.0413,-0.459919 -0.10852,-0.935341 -0.0672,-0.490924 -0.13436,-0.971514 -0.0672,-0.480589 -0.12919,-0.961178 -0.0672,-0.48059 -0.13436,-0.961179 -0.062,-0.480589 -0.12402,-0.966346 0.0155,-0.118856 0.0465,-0.242879 0.031,-0.12919 0.0879,-0.263549 0.12402,-0.335895 0.16536,-0.408242 0.0465,-0.07235 0.062,-0.07235 z m -2.21691,-0.289387 q 0.0155,-0.04651 0.0413,-0.05684 0.0258,-0.01034 0.0413,0.05684 0.0413,0.124023 0.093,0.253214 0.0517,0.12919 0.11886,0.253213 0.0724,0.124024 0.16536,0.232544 0.093,0.103352 0.21188,0.175699 -0.0724,0.124023 -0.12919,0.21704 -0.0517,0.08785 -0.0879,0.165364 -0.0362,0.07235 -0.0517,0.144694 -0.0155,0.06718 -0.005,0.144693 0.0568,0.496093 0.12919,0.997352 0.0775,0.496093 0.1447,0.992185 0.0723,0.496092 0.12402,0.992184 0.0568,0.496092 0.0724,0.997352 0.005,0.165364 -0.0207,0.335896 -0.0258,0.170532 -0.0827,0.32556 -0.0568,0.155029 -0.14469,0.294555 -0.0827,0.134358 -0.1912,0.227376 -0.14986,0.12919 -0.37207,0.186034 -0.21704,0.05168 -0.53227,0.05168 h -0.093 q -0.16537,0 -0.24805,-0.124023 -0.0879,-0.12919 -0.0879,-0.279051 0,-0.155029 0.0879,-0.279052 0.0827,-0.129191 0.24805,-0.129191 h 0.093 q 0.17054,0 0.33073,-0.01033 0.1602,-0.0155 0.29456,-0.04651 0.13435,-0.03617 0.22737,-0.09302 0.0982,-0.06201 0.13953,-0.155029 -0.10335,-1.090369 -0.26872,-2.149733 -0.16536,-1.064531 -0.32039,-2.139397 -0.031,-0.21704 -0.0672,-0.423746 -0.031,-0.211872 -0.14986,-0.408242 -0.0413,-0.05684 -0.0465,-0.07235 -0.005,-0.02067 0.0258,-0.08268 0.0879,-0.149861 0.16019,-0.30489 0.0775,-0.160196 0.14987,-0.289387 z m -3.37963,5.250309 q 0.062,-0.103353 0.12402,-0.09819 0.0672,0.0052 0.0362,0.124023 -0.0258,0.10852 -0.0723,0.227376 -0.0465,0.113687 -0.10336,0.248046 0.0362,0.08785 0.1602,0.175699 0.12919,0.08268 0.28939,0.144694 0.15503,0.05684 0.31522,0.08268 0.16537,0.02584 0.27389,-0.0155 0.1757,-0.05684 0.28938,-0.315226 0.11369,-0.263549 0.19637,-0.552936 0.0413,-0.155028 0.10852,-0.180867 0.0672,-0.02584 0.0775,0.113688 0.0207,0.258382 0.093,0.444416 0.0723,0.186035 0.21704,0.299722 0.27388,0.227376 0.89916,0.227376 h 0.093 q 0.16536,0 0.24805,0.129191 0.0827,0.12919 0.0827,0.279052 0,0.149861 -0.0827,0.279051 -0.0827,0.124023 -0.24805,0.124023 h -0.093 q -0.27388,0 -0.47025,-0.03101 -0.19637,-0.03617 -0.38241,-0.113688 -0.43408,-0.186035 -0.65628,-0.614948 -0.0362,0.08268 -0.093,0.19637 -0.0568,0.113688 -0.13436,0.222208 -0.0724,0.103353 -0.1602,0.175699 -0.0879,0.07235 -0.18603,0.07235 -0.12919,0 -0.29972,-0.03101 -0.17053,-0.031 -0.34107,-0.09818 -0.1757,-0.06201 -0.33589,-0.160197 -0.15503,-0.103352 -0.26355,-0.242878 -0.18087,0.206705 -0.40824,0.346231 -0.22221,0.134358 -0.47542,0.175699 -0.25839,0.04651 -0.54261,0 -0.27905,-0.05168 -0.5736,-0.206705 -0.13436,0.09819 -0.29456,0.160196 -0.16019,0.06201 -0.31522,0.09302 -0.1602,0.03617 -0.30489,0.04651 -0.1447,0.01034 -0.25322,0.01034 h -0.093 q -0.15503,0 -0.23255,-0.124023 -0.0775,-0.12919 -0.0775,-0.279051 0,-0.149862 0.0775,-0.279052 0.0775,-0.129191 0.23255,-0.129191 h 0.093 q 0.31006,0 0.57361,-0.02067 0.26355,-0.02584 0.49609,-0.113688 0.22738,-0.08268 0.42892,-0.253214 0.2067,-0.170532 0.39274,-0.465086 0.0672,-0.108521 0.11368,-0.09302 0.0517,0.01034 0.031,0.118856 -0.0362,0.186034 -0.11886,0.397907 -0.0827,0.211873 -0.20153,0.361734 0.10335,0.03101 0.25321,0.04651 0.15503,0.0155 0.32556,0 0.25321,-0.02067 0.47542,-0.103353 0.22738,-0.08785 0.40824,-0.263549 0.11369,-0.103352 0.21188,-0.237711 0.10335,-0.139526 0.19637,-0.299722 z m 0.45475,-1.162716 q -0.031,0.03617 -0.0465,0.03617 -0.0155,0 -0.0517,-0.02584 l -0.60978,-0.480589 -0.3979,0.552936 q -0.0362,0.04651 -0.0775,0.01034 l -0.65112,-0.496092 q -0.0362,-0.03101 -0.0103,-0.06718 l 0.41341,-0.58911 q 0.0258,-0.031 0.0362,-0.02584 0.0155,0 0.0362,0.0155 l 0.61495,0.470254 0.41858,-0.537433 q 0.031,-0.04134 0.062,-0.02067 l 0.65112,0.542601 q 0.031,0.03101 0,0.07235 z m -0.97668,-2.180739 0.63561,0.521931 q 0.0414,0.03101 0.005,0.07235 l -0.42374,0.527098 q -0.0362,0.04651 -0.0827,0.01034 l -0.64079,-0.516763 q -0.0413,-0.03617 0,-0.08785 l 0.42891,-0.516762 q 0.0362,-0.04651 0.0775,-0.01034 z m 0.0413,-1.431432 q -0.11369,0.227375 -0.25838,0.341063 -0.15503,0.118856 -0.36691,0.124023 -0.17053,0.0052 -0.29972,-0.08785 -0.12402,-0.09302 -0.14469,-0.325561 -0.0103,-0.103352 0.0103,-0.211873 0.0207,-0.113687 0.062,-0.211872 0.0413,-0.09302 0.093,-0.160197 0.0568,-0.07235 0.11886,-0.09302 0.062,-0.0052 0.0103,0.09302 -0.031,0.05684 -0.0517,0.134359 -0.0155,0.07751 -0.0207,0.155028 0,0.07235 0.0155,0.124023 0.0155,0.05168 0.0672,0.09819 0.0775,0.05684 0.16536,0.05684 0.0879,-0.0052 0.17053,-0.04134 0.0879,-0.03617 0.15503,-0.08268 0.0724,-0.05168 0.1447,-0.134358 0.0672,-0.07752 0.0982,-0.19637 0.031,-0.118855 0.0413,-0.19637 0.005,-0.06718 0.0362,-0.134358 0.031,-0.06718 0.10335,-0.06718 0.0155,0 0.0207,0.03101 0.0103,0.02584 0.0155,0.06201 0.005,0.03617 0.005,0.07235 0,0.03101 0,0.04651 0,0.149862 0.0465,0.237711 0.0465,0.08268 0.18603,0.113688 0.0724,0.0155 0.18604,-0.0155 0.11885,-0.03101 0.2067,-0.103352 0.0103,-0.01034 0.005,-0.05684 -0.005,-0.04651 -0.0207,-0.09819 -0.0103,-0.05168 -0.0362,-0.10852 -0.0207,-0.06201 -0.0258,-0.07235 l 0.1912,-0.361734 q 0.0517,0.02584 0.0775,0.113688 0.031,0.08785 0.0362,0.201537 0.0103,0.10852 0,0.222208 -0.0103,0.113688 -0.0258,0.191202 -0.062,0.191203 -0.17053,0.346231 -0.10336,0.155029 -0.3204,0.19637 -0.1912,0.03617 -0.32039,-0.02584 -0.12919,-0.06201 -0.2067,-0.175699 z m 0.93017,-2.077386 q -0.25838,0.118855 -0.5426,0.248046 -0.27905,0.129191 -0.5426,0.248046 -0.26355,0.118855 -0.49093,0.222208 -0.22737,0.103352 -0.38757,0.170532 -0.0362,0.0155 -0.0517,0 -0.0155,-0.0155 0,-0.04651 l 0.25322,-0.506427 q 0.0258,-0.04134 0.0517,-0.05684 0.031,-0.02067 0.0568,-0.03617 l 1.88618,-0.837155 q 0.0827,-0.03617 0.0517,0.04134 l -0.21187,0.480589 q -0.0155,0.04651 -0.0724,0.07235 z M 117.7685,11.524711 q -0.0258,0.03101 -0.0413,0.03101 -0.0155,0.0052 -0.0568,-0.02584 l -0.61495,-0.480589 -0.40307,0.552936 q -0.0362,0.04651 -0.0775,0.0155 L 115.9186,11.1113 q -0.0362,-0.02584 -0.0103,-0.06201 l 0.41858,-0.594277 q 0.0207,-0.03101 0.0362,-0.03101 0.0155,0 0.0362,0.02067 l 0.62011,0.470254 0.42375,-0.542601 q 0.031,-0.04134 0.062,-0.0155 l 0.65629,0.547768 q 0.0362,0.02584 0,0.07235 z m -2.16003,-2.0618835 h -0.093 q -0.15503,0 -0.23254,-0.124023 -0.0775,-0.12919 -0.0775,-0.284219 0,-0.07751 0.0207,-0.149861 0.0155,-0.07235 0.0568,-0.129191 0.0362,-0.05684 0.0982,-0.09302 0.0568,-0.03617 0.13436,-0.03617 h 0.093 q 0.16019,0 0.35656,-0.01034 0.20154,-0.01033 0.37724,-0.05684 0.17053,-0.04651 0.3359,-0.139526 0.16536,-0.09819 0.30489,-0.268716 0.10335,-0.124023 0.16536,-0.253214 0.0672,-0.129191 0.12919,-0.294555 0.0258,-0.06718 0.0827,-0.07235 0.062,-0.0052 0.0672,0.02584 0.005,0.06201 -0.0103,0.149861 -0.0103,0.08785 -0.0103,0.160196 0,0.134359 0.0672,0.268717 0.0672,0.134358 0.20671,0.242878 0.13952,0.108521 0.3824,0.180867 0.24805,0.06718 0.5581,0.06718 h 0.0982 q 0.0775,0 0.13436,0.03617 0.0568,0.03617 0.093,0.09302 0.0413,0.05684 0.0568,0.129191 0.0207,0.07235 0.0207,0.149861 0,0.155029 -0.0775,0.284219 -0.0724,0.124023 -0.22738,0.124023 h -0.0982 q -0.27905,0 -0.53226,-0.05168 -0.24805,-0.05684 -0.42375,-0.165364 -0.34106,-0.206705 -0.53226,-0.60978 -0.11369,0.232543 -0.26872,0.387572 -0.15503,0.155029 -0.34106,0.253214 -0.1912,0.09819 -0.43408,0.144693 -0.24288,0.04134 -0.48059,0.04134 z m 0.58911,-5.565533 q 0,0.08785 0.0465,0.139526 0.0517,0.04651 0.11885,0.07235 0.0672,0.02584 0.1447,0.03101 0.0827,0.0052 0.14469,0.0052 0.14469,0 0.26872,-0.06201 0.12919,-0.06201 0.23254,-0.160196 0.0103,-0.09302 -0.0207,-0.19637 -0.031,-0.103353 -0.0982,-0.186035 -0.0672,-0.08268 -0.16537,-0.12919 -0.0982,-0.05168 -0.22737,-0.04134 -0.0775,0.02067 -0.15503,0.07751 -0.0775,0.05168 -0.1447,0.124023 -0.062,0.07235 -0.10335,0.160197 -0.0413,0.08268 -0.0413,0.165364 z m 1.20922,-0.134359 q 0,0.1757 -0.0465,0.341064 -0.0465,0.165364 -0.1447,0.294554 -0.0982,0.129191 -0.25321,0.206705 -0.14986,0.07752 -0.36174,0.07752 -0.26354,0 -0.44441,-0.170532 -0.18087,-0.170531 -0.1912,-0.454751 0,-0.144693 0.0413,-0.346231 0.0465,-0.206705 0.13952,-0.397907 0.093,-0.191202 0.23771,-0.330728 0.14987,-0.144694 0.35657,-0.170532 0.19637,-0.02067 0.32556,0.07751 0.12919,0.09819 0.20671,0.248046 0.0723,0.155029 0.10335,0.330729 0.031,0.170531 0.031,0.294554 z m -6.09263,2.780183 q 0.21187,-0.01033 0.44442,0.02584 0.23254,0.03101 0.66145,0.113688 0.42892,0.07752 0.863,0.09302 0.47025,0.0155 0.9095,0.0052 0.43925,-0.01033 0.9095,-0.05168 0.0207,-0.0052 0.031,0 0.0103,0.0052 0.005,0.03101 -0.0672,0.201537 -0.14986,0.397907 -0.0775,0.19637 -0.1757,0.382404 -0.23254,0.02584 -0.46508,0.06201 -0.23255,0.03101 -0.45992,0.07751 -0.0465,0.377237 0.0827,0.578774 0.13436,0.19637 0.3824,0.28422 0.24805,0.08785 0.57361,0.09819 0.33073,0.01033 0.68213,0.01033 0.0258,0 0.0465,0 0.0207,0 0.0465,0 0.15502,0 0.23254,0.129191 0.0827,0.124023 0.0827,0.273884 0,0.155029 -0.0827,0.284219 -0.0775,0.124023 -0.23254,0.124023 -0.0258,0 -0.0465,0 -0.0207,0 -0.0465,0 -0.57361,0.01034 -1.02319,-0.05684 -0.44959,-0.07235 -0.7183,-0.315226 -0.21187,-0.191202 -0.29972,-0.511595 -0.0827,-0.32556 -0.0207,-0.82682 -0.45475,0.10852 -0.87849,0.289387 -0.42375,0.175699 -0.78031,0.459919 -0.31006,0.248046 -0.55811,0.558104 -0.24288,0.310057 -0.41341,0.666623 -0.16536,0.3565665 -0.25321,0.7389705 -0.0879,0.387572 -0.0879,0.785479 0,0.434081 0.16536,0.847491 0.17054,0.418578 0.44959,0.764809 0.27905,0.351399 0.63562,0.604612 0.36173,0.258382 0.74413,0.366902 0.50126,0.144693 1.02836,0.191202 0.53227,0.05168 0.98702,0.03617 0.50126,-0.0155 1.02836,-0.06201 0.52709,-0.04651 1.02835,-0.04651 0.062,0 0.0672,0.03101 0.005,0.03617 -0.062,0.113688 -0.0672,0.07751 -0.13952,0.08785 -0.31006,0.04651 -0.59945,0.139526 -0.28422,0.09819 -0.56327,0.19637 -0.27905,0.103353 -0.56844,0.186035 -0.28422,0.08785 -0.59428,0.10852 -0.75447,0.05168 -1.47794,-0.118856 -0.7183,-0.170531 -1.28157,-0.583941 -0.56327,-0.408243 -0.9095,-1.064532 -0.34623,-0.651121 -0.34623,-1.555455 0,-0.594277 0.15503,-1.193722 0.15502,-0.5942765 0.43924,-1.1265425 0.28939,-0.537433 0.69247,-0.971513 0.40824,-0.439249 0.90433,-0.713133 0.0207,-0.0155 -0.0103,-0.02584 -0.031,-0.01033 -0.0672,-0.0155 -0.23771,-0.02584 -0.5116,-0.04651 -0.26872,-0.02584 -0.53743,-0.0052 -0.26355,0.02067 -0.49609,0.103352 -0.23255,0.07752 -0.38758,0.258382 -0.031,0.03617 -0.0672,0.03101 -0.031,-0.0052 -0.0207,-0.07235 0.031,-0.237711 0.10852,-0.449584 0.0827,-0.211873 0.21188,-0.366901 0.12919,-0.160197 0.31005,-0.253214 0.18087,-0.09818 0.42375,-0.103353 z m 1.08003,-2.13423 0.63562,0.527098 q 0.0413,0.03617 0.005,0.08268 l -0.42375,0.532266 q -0.0362,0.05168 -0.0827,0.01033 l -0.64078,-0.527098 q -0.0413,-0.03617 0,-0.08785 l 0.42891,-0.527098 q 0.0362,-0.04651 0.0775,-0.01034 z m -1.1317,-0.63045 q 0.17053,-0.09819 0.33589,-0.19637 0.16537,-0.09819 0.3204,-0.211872 0.16019,-0.113688 0.31522,-0.248046 0.15503,-0.134359 0.29972,-0.30489 -0.13952,-0.04134 -0.29455,-0.139526 -0.15503,-0.09819 -0.24805,-0.211873 -0.0465,-0.05684 -0.0568,-0.144694 -0.0103,-0.09302 0.0155,-0.170531 0.0413,-0.124023 0.11369,-0.268717 0.0775,-0.144693 0.18087,-0.263549 0.10335,-0.118855 0.22737,-0.191202 0.12919,-0.07751 0.25838,-0.07235 0.1602,0.01033 0.23255,0.155029 0.0723,0.139526 0.0879,0.32556 0.0207,0.186035 0,0.366902 -0.0155,0.180867 -0.0258,0.263549 0,0.02584 0.0155,0.04134 0.062,0.03617 0.0827,0.06718 0.0258,0.03101 0.0413,0.07235 0.031,0.07751 0.0103,0.186034 -0.0155,0.108521 -0.062,0.165364 -0.0413,0.05168 -0.0724,0.05168 -0.031,-0.0052 -0.062,-0.05168 -0.0258,-0.03101 -0.0517,-0.05684 -0.0207,-0.03101 -0.0672,-0.05168 -0.14469,0.1757 -0.31005,0.335896 -0.1602,0.160196 -0.34107,0.294555 -0.18603,0.12919 -0.38757,0.232543 -0.20154,0.103353 -0.42374,0.170532 -0.0879,0.02584 -0.18087,0.03617 -0.093,0.0052 -0.10335,-0.02067 -0.0103,-0.03101 0.0362,-0.07235 0.0465,-0.04651 0.11369,-0.08785 z m 0.97151,-1.736322 q 0.10852,0.149861 0.25838,0.23771 0.14986,0.08268 0.27389,0.113688 h 0.0103 q 0,-0.04134 0.005,-0.10852 0.005,-0.07235 0,-0.144694 0,-0.07235 -0.0207,-0.139525 -0.0155,-0.06718 -0.062,-0.113688 -0.0413,-0.03617 -0.11886,-0.03101 -0.0723,0 -0.14469,0.02584 -0.0724,0.02584 -0.13436,0.07235 -0.0568,0.04134 -0.0672,0.08785 z m -5.03327,5.513857 q -0.0207,0.04651 -0.0672,0.139526 -0.0465,0.08785 -0.10335,0.186035 -0.0517,0.09819 -0.10852,0.191202 -0.0568,0.08785 -0.0982,0.139526 -0.031,0.05684 -0.14986,0.03101 -0.54777,-0.103353 -1.02319,-0.05684 -0.47542,0.04651 -0.94567,0.196369 -0.40825,0.134359 -0.77515,0.299723 -0.3669,0.160196 -0.72347,0.284219 -0.68212,0.248046 -1.32291,0.372069 -0.63562,0.124023 -1.31774,0.124023 h -0.093 q -0.16536,0 -0.24805,-0.124023 -0.0827,-0.12919 -0.0827,-0.284219 0,-0.155029 0.0827,-0.279052 0.0827,-0.129191 0.24805,-0.129191 h 0.093 q 0.23771,0 0.49609,-0.01034 0.25838,-0.01033 0.50643,-0.03101 0.24804,-0.02067 0.47025,-0.04651 0.22221,-0.03101 0.39274,-0.06718 0.35657,-0.07752 0.74931,-0.217041 0.3979,-0.144693 0.83715,-0.32556 -0.25321,-0.03617 -0.58911,-0.08785 -0.33589,-0.05684 -0.69246,-0.10852 -0.35657,-0.05684 -0.69763,-0.103353 -0.34106,-0.04651 -0.59944,-0.07235 -0.0362,-0.01034 -0.10336,0.01033 -0.0672,0.02067 -0.13435,0.04651 -0.031,0.01033 -0.062,-0.01034 -0.031,-0.02067 -0.0207,-0.06718 0.062,-0.222208 0.18087,-0.449583 0.11886,-0.227376 0.22221,-0.387572 0.0465,-0.06718 0.23254,-0.155029 0.1912,-0.09302 0.45475,-0.206705 0.26872,-0.118856 0.57878,-0.263549 0.31005,-0.144694 0.60461,-0.315225 0.29455,-0.1757 0.53743,-0.382405 0.24288,-0.211873 0.37207,-0.454751 0.10335,-0.19637 0.22738,-0.439248 0.12402,-0.242879 0.26871,-0.449584 0.14986,-0.211872 0.31523,-0.346231 0.17053,-0.139526 0.3669,-0.12919 0.1757,0.01034 0.3359,0.186034 0.16019,0.175699 0.28422,0.418578 0.12402,0.242878 0.19637,0.506427 0.0723,0.263549 0.0723,0.444416 0,0.09302 -0.0362,0.217041 -0.0362,0.124023 -0.0879,0.23771 -0.0465,0.108521 -0.10335,0.19637 -0.0568,0.08268 -0.0982,0.09818 -0.10852,0.04134 -0.29972,0.03101 -0.18604,-0.01033 -0.41341,-0.06718 -0.22221,-0.06201 -0.45475,-0.170532 -0.23255,-0.113688 -0.42375,-0.279052 -0.45475,0.594277 -0.97668,0.940508 -0.52193,0.346231 -1.14721,0.527098 0.37723,0.06718 0.70796,0.129191 0.33073,0.05684 0.64079,0.113688 0.31522,0.05168 0.62528,0.09818 0.31523,0.04651 0.65629,0.08785 0.53227,0.06201 1.1007,0.118856 0.56844,0.05168 1.10071,0.07235 0.0775,0.0052 0.0413,0.07235 z m -1.31258,-2.371941 q -0.031,-0.07751 -0.093,-0.21704 -0.062,-0.139526 -0.14987,-0.279052 -0.0827,-0.139526 -0.1912,-0.237711 -0.10335,-0.103352 -0.22221,-0.103352 -0.0517,0 -0.12919,0.05168 -0.0723,0.04651 -0.14469,0.118856 -0.0724,0.06718 -0.12919,0.139526 -0.0568,0.06718 -0.0775,0.113687 0.24805,0.217041 0.5271,0.310058 0.28422,0.09302 0.60978,0.103352 z m 0.0568,-3.338286 q -0.25838,0.118855 -0.5426,0.248046 -0.27905,0.129191 -0.5426,0.248046 -0.26355,0.118855 -0.49092,0.222208 -0.22738,0.103352 -0.38757,0.170532 -0.0362,0.0155 -0.0517,0 -0.0155,-0.0155 0,-0.04651 l 0.25321,-0.506427 q 0.0258,-0.04134 0.0517,-0.05684 0.031,-0.02067 0.0568,-0.03617 l 1.88619,-0.837155 q 0.0827,-0.03617 0.0517,0.04134 l -0.21187,0.480589 q -0.0155,0.04651 -0.0724,0.07235 z m -4.79039,0.759641 q 0,0.08785 0.0465,0.139526 0.0517,0.04651 0.11886,0.07235 0.0672,0.02584 0.14469,0.03101 0.0827,0.0052 0.1447,0.0052 0.14469,0 0.26871,-0.06201 0.12919,-0.06201 0.23255,-0.160196 0.0103,-0.09302 -0.0207,-0.19637 -0.031,-0.103352 -0.0982,-0.186034 -0.0672,-0.08268 -0.16536,-0.129191 -0.0982,-0.05168 -0.22738,-0.04134 -0.0775,0.02067 -0.15503,0.07751 -0.0775,0.05168 -0.14469,0.124023 -0.062,0.07235 -0.10335,0.160197 -0.0413,0.08268 -0.0413,0.165364 z m 1.20923,-0.134359 q 0,0.1757 -0.0465,0.341064 -0.0465,0.165364 -0.14469,0.294555 -0.0982,0.12919 -0.25322,0.206705 -0.14986,0.07751 -0.36173,0.07751 -0.26355,0 -0.44442,-0.170532 -0.18086,-0.170531 -0.1912,-0.454751 0,-0.144693 0.0413,-0.346231 0.0465,-0.206705 0.13953,-0.397907 0.093,-0.191202 0.23771,-0.330728 0.14986,-0.144694 0.35657,-0.170532 0.19637,-0.02067 0.32556,0.07752 0.12919,0.09818 0.2067,0.248046 0.0724,0.155028 0.10335,0.330728 0.031,0.170531 0.031,0.294554 z m -3.446809,6.283835 q 0.0155,0.0052 0.031,0 0.0155,-0.01034 -0.0103,-0.04651 -0.0879,-0.09819 -0.14986,-0.201537 -0.062,-0.108521 -0.10852,-0.201538 -0.0465,-0.09302 -0.0775,-0.165364 -0.031,-0.07235 -0.0517,-0.113688 -0.0517,-0.09302 -0.13436,-0.07751 -0.093,0.02067 -0.22737,0.10852 -0.13436,0.08785 -0.22221,0.206705 -0.031,0.03617 -0.031,0.05168 0,0.0155 0.0413,0.04134 0.0827,0.06201 0.20153,0.129191 0.11886,0.06718 0.24805,0.124023 0.12919,0.05168 0.25838,0.09302 0.12919,0.04134 0.23254,0.05168 z m 0.5116,0.480589 q -0.0465,0.10852 -0.10335,0.232543 -0.0517,0.129191 -0.0982,0.144694 -0.17053,0.031 -0.43925,-0.02584 -0.26871,-0.05168 -0.53226,-0.160197 -0.26355,-0.10852 -0.46509,-0.258381 -0.19637,-0.149861 -0.21704,-0.315225 -0.13953,0.186034 -0.29972,0.304889 -0.15503,0.113688 -0.31523,0.186035 -0.16536,0.06718 -0.32556,0.09302 -0.15503,0.02584 -0.29455,0.02584 h -0.093 q -0.16536,0 -0.24805,-0.124023 -0.0827,-0.12919 -0.0827,-0.279051 0,-0.155029 0.0827,-0.279052 0.0827,-0.129191 0.24805,-0.129191 h 0.093 q 0.1912,0 0.3824,-0.01033 0.1912,-0.01034 0.37207,-0.06201 0.18087,-0.05168 0.3514,-0.160196 0.17053,-0.113688 0.32039,-0.315225 0.0827,-0.108521 0.18087,-0.217041 0.0982,-0.113687 0.19637,-0.201537 0.10335,-0.08785 0.2067,-0.139526 0.10336,-0.05684 0.19637,-0.05684 0.093,0 0.20154,0.08785 0.10852,0.08785 0.21704,0.206705 0.11369,0.113688 0.21187,0.237711 0.10336,0.124023 0.1757,0.191202 0.12403,0.12919 0.26355,0.211872 0.139531,0.08268 0.289391,0.134359 0.149858,0.05168 0.315228,0.07235 0.16536,0.02067 0.34623,0.02067 h 0.093 q 0.1602,0 0.24288,0.129191 0.0827,0.124023 0.0827,0.279052 0,0.149861 -0.0827,0.279051 -0.0827,0.124023 -0.24288,0.124023 h -0.093 q -0.14986,0 -0.29973,-0.0052 -0.14986,-0.0052 -0.294548,-0.03101 -0.14469,-0.02067 -0.28422,-0.06718 -0.134361,-0.04651 -0.258381,-0.124023 z m -2.27375,-4.294298 q 0.17053,-0.09819 0.33589,-0.19637 0.16537,-0.09819 0.3204,-0.211872 0.16019,-0.113688 0.31522,-0.248047 0.15503,-0.134358 0.29972,-0.30489 -0.13952,-0.04134 -0.29455,-0.139525 -0.15503,-0.09819 -0.24805,-0.211873 -0.0465,-0.05684 -0.0568,-0.144694 -0.0103,-0.09302 0.0155,-0.170531 0.0413,-0.124023 0.11369,-0.268717 0.0775,-0.144694 0.18087,-0.263549 0.10335,-0.118855 0.22737,-0.191202 0.12919,-0.07752 0.25838,-0.07235 0.1602,0.01033 0.23255,0.155029 0.0723,0.139526 0.0879,0.32556 0.0207,0.186035 0,0.366902 -0.0155,0.180867 -0.0258,0.263549 0,0.02584 0.0155,0.04134 0.062,0.03617 0.0827,0.06718 0.0258,0.03101 0.0413,0.07235 0.031,0.07751 0.0103,0.186034 -0.0155,0.108521 -0.062,0.165364 -0.0413,0.05168 -0.0724,0.05168 -0.031,-0.0052 -0.062,-0.05168 -0.0258,-0.03101 -0.0517,-0.05684 -0.0207,-0.03101 -0.0672,-0.05168 -0.14469,0.1757 -0.31005,0.335896 -0.1602,0.160196 -0.34107,0.294555 -0.18603,0.12919 -0.38757,0.232543 -0.20154,0.103352 -0.42374,0.170532 -0.0879,0.02584 -0.18087,0.03617 -0.093,0.0052 -0.10335,-0.02067 -0.0103,-0.031 0.0362,-0.07235 0.0465,-0.04651 0.11369,-0.08785 z m 0.97151,-1.736323 q 0.10852,0.149862 0.25838,0.237711 0.14986,0.08268 0.27389,0.113688 h 0.0103 q 0,-0.04134 0.005,-0.10852 0.005,-0.07235 0,-0.144694 0,-0.07235 -0.0207,-0.139526 -0.0155,-0.06718 -0.062,-0.113687 -0.0413,-0.03617 -0.11886,-0.03101 -0.0723,0 -0.14469,0.02584 -0.0724,0.02584 -0.13436,0.07235 -0.0568,0.04134 -0.0672,0.08785 z m -3.68452,5.327824 q 0.031,0.06718 0.15503,0.103352 0.12919,0.03617 0.28422,0.05168 0.15503,0.01034 0.30489,0.0052 0.15503,-0.0052 0.23254,-0.0155 0,-0.02067 -0.0568,-0.103352 -0.0517,-0.08268 -0.13953,-0.170532 -0.0878,-0.09302 -0.19637,-0.165364 -0.10335,-0.07751 -0.2067,-0.08785 -0.0568,0 -0.12402,0.04134 -0.062,0.03617 -0.11886,0.09819 -0.0568,0.05684 -0.0982,0.124023 -0.0362,0.06718 -0.0362,0.118856 z m 1.13688,0.93534 -0.51676,0.01033 q -0.21704,0.01034 -0.41341,-0.04134 -0.19121,-0.05684 -0.3359,-0.165364 -0.13953,-0.113688 -0.21704,-0.279052 -0.0724,-0.170531 -0.0465,-0.387572 0.0155,-0.144693 0.10335,-0.356566 0.0879,-0.211873 0.22221,-0.408242 0.13436,-0.201538 0.29972,-0.341064 0.16537,-0.144693 0.3359,-0.144693 0.18087,0 0.3359,0.149861 0.16019,0.144693 0.28422,0.346231 0.11885,0.206705 0.19637,0.434081 0.0775,0.222208 0.0982,0.382404 l 0.41341,-0.0155 h 0.0982 q 0.0775,0 0.13952,0.03617 0.062,0.03617 0.10335,0.09302 0.0413,0.05684 0.062,0.12919 0.0207,0.07235 0.0207,0.149862 0.005,0.149861 -0.0775,0.279051 -0.0827,0.124023 -0.24804,0.124023 h -0.0982 l -0.43408,0.0052 q -0.093,0.439248 -0.21704,0.8629935 -0.11886,0.423745 -0.30489,0.780311 -0.1912,0.356567 -0.46509,0.625283 -0.26871,0.268717 -0.66145,0.39274 -0.25838,0.09302 -0.57361,0.118855 -0.31006,0.02584 -0.63562,0.0052 -0.32039,-0.0155 -0.63045,-0.07235 -0.31522,-0.05684 -0.56844,-0.129191 -0.0723,-0.02067 -0.0878,-0.06201 -0.0207,-0.03617 0,-0.07235 0.0155,-0.03617 0.0672,-0.06201 0.0517,-0.02584 0.12403,-0.02067 0.24287,0.02584 0.52709,0.0052 0.28939,-0.0155 0.57878,-0.07235 0.29455,-0.05168 0.56844,-0.139526 0.27388,-0.08785 0.48575,-0.206705 0.29456,-0.160196 0.52193,-0.382404 0.22738,-0.222208 0.40825,-0.485757 0.18086,-0.263549 0.31005,-0.537433 0.13436,-0.2687165 0.22738,-0.5477685 z m -5.21414,-3.090241 0.0258,-0.697629 q 0.0103,-0.08268 0.0672,-0.09302 0.062,-0.01034 0.13953,0.0155 0.3514,0.10852 0.66145,0.361734 0.31006,0.248046 0.55294,0.573607 0.23771,0.32556 0.38757,0.692462 0.15503,0.361734 0.18604,0.687294 0.0103,0.124023 0,0.28422 -0.0103,0.160196 -0.0465,0.320392 -0.031,0.155029 -0.0827,0.279052 -0.0465,0.124023 -0.11369,0.1757 -0.1757,0.139525 -0.43925,0.23771 -0.26355,0.09819 -0.5581,0.160197 -0.29973,0.06201 -0.60462,0.08785 -0.30489,0.03101 -0.56844,0.03101 -0.062,0 -0.15502,-0.01033 -0.0879,-0.0052 -0.1757,-0.03101 -0.0878,-0.03101 -0.15503,-0.08268 -0.062,-0.05168 -0.0672,-0.134358 0,-0.04134 0,-0.160197 0.005,-0.118855 0.0155,-0.248046 0.0103,-0.12919 0.0258,-0.227375 0.0155,-0.103353 0.0413,-0.103353 0.0155,0 0.0258,0.02067 0.0155,0.02067 0.031,0.03617 0.0879,0.06201 0.21188,0.09302 0.12402,0.03101 0.25838,0.04134 0.13952,0.0052 0.27388,0 0.13953,-0.01033 0.24288,-0.0155 0.18087,-0.01034 0.37724,-0.03617 0.19637,-0.03101 0.37723,-0.07235 0.18604,-0.04134 0.3514,-0.09302 0.16537,-0.05684 0.28422,-0.118855 0.0517,-0.02584 0.0982,-0.06201 0.0465,-0.04134 0.0568,-0.07235 -0.0465,-0.273884 -0.21704,-0.573606 -0.16536,-0.299723 -0.40307,-0.563271 -0.24288,-0.258382 -0.53227,-0.449584 -0.28422,-0.19637 -0.57361,-0.253214 z m -6.90394,1.663976 q -0.1447,-0.08268 -0.36174,-0.175699 -0.21187,-0.09302 -0.44958,-0.1757 -0.23254,-0.08268 -0.45992,-0.144693 -0.22221,-0.06718 -0.38757,-0.09302 -0.26872,-0.04134 -0.5271,0.03101 -0.25321,0.06718 -0.47542,0.222208 -0.031,0.02067 -0.062,0.0052 -0.031,-0.0155 -0.0258,-0.05684 0.0103,-0.129191 0.0672,-0.268717 0.062,-0.139525 0.13952,-0.248046 0.19121,-0.253213 0.48576,-0.403074 0.29972,-0.149862 0.62528,-0.09302 0.26355,0.05168 0.53744,0.160197 0.27388,0.103352 0.55293,0.237711 0.28422,0.12919 0.57361,0.263548 0.28939,0.129191 0.58911,0.227376 0.43925,0.144694 0.93017,0.222208 0.49093,0.07235 0.96118,0.03617 0.0827,-0.0052 0.0413,0.07235 l -0.40307,0.728636 q -0.3359,-0.08785 -0.63562,-0.118856 -0.29972,-0.03101 -0.59945,-0.0052 -0.26871,0.02584 -0.55293,0.108521 -0.27905,0.08268 -0.56844,0.191202 -0.28939,0.10852 -0.57878,0.222208 -0.28938,0.113688 -0.5736,0.19637 -0.45475,0.134358 -0.91984,0.206705 -0.46509,0.07235 -0.96118,0.07235 -0.0258,0 -0.0465,0 -0.0258,0 -0.0465,0 -0.16536,0 -0.24287,-0.124023 -0.0827,-0.12919 -0.0827,-0.279051 0,-0.149862 0.0827,-0.279052 0.0775,-0.129191 0.24287,-0.129191 0.0207,0 0.0465,0 0.0207,0 0.0465,0 0.38241,0.0155 0.76998,-0.02067 0.39274,-0.04134 0.78031,-0.124023 0.38757,-0.08268 0.75964,-0.19637 0.37724,-0.118856 0.72864,-0.268717 z m -0.72347,-3.467477 0.63562,0.527097 q 0.0413,0.03617 0.005,0.08268 l -0.42374,0.532266 q -0.0362,0.05168 -0.0827,0.01033 l -0.64079,-0.527098 q -0.0413,-0.03617 0,-0.08785 l 0.42891,-0.527098 q 0.0362,-0.04651 0.0775,-0.01033 z m 0.73897,-1.436601 q -0.25838,0.118856 -0.5426,0.248046 -0.27906,0.129191 -0.5426,0.248046 -0.26355,0.118856 -0.49093,0.222208 -0.22737,0.103353 -0.38757,0.170532 -0.0362,0.0155 -0.0517,0 -0.0155,-0.0155 0,-0.04651 l 0.25322,-0.506427 q 0.0258,-0.04134 0.0517,-0.05684 0.031,-0.02067 0.0568,-0.03617 l 1.88618,-0.837156 q 0.0827,-0.03617 0.0517,0.04134 l -0.21188,0.480589 q -0.0155,0.04651 -0.0723,0.07235 z m -6.53188,5.513858 h 0.093 q 0.31005,0 0.60461,-0.04134 0.29455,-0.04134 0.51676,-0.165364 0.22221,-0.118855 0.3359,-0.341063 0.11885,-0.222208 0.0723,-0.578775 l -0.51676,-4.242621 q -0.005,-0.06201 0.0258,-0.124023 l 0.26355,-0.542601 q 0.0155,-0.03617 0.0413,-0.03101 0.0258,0 0.031,0.03101 l 0.59428,4.70254 q 0.0413,0.335896 0.12919,0.583942 0.0879,0.248046 0.25322,0.418578 0.16019,0.165364 0.40824,0.248046 0.25321,0.08268 0.62528,0.08268 h 0.093 q 0.16536,0 0.24288,0.129191 0.0827,0.124023 0.0827,0.279052 0,0.149861 -0.0827,0.279051 -0.0775,0.124023 -0.24288,0.124023 h -0.093 q -0.22221,0 -0.45475,-0.03617 -0.23254,-0.04134 -0.44442,-0.170532 -0.21187,-0.12919 -0.39274,-0.372069 -0.18086,-0.248046 -0.28938,-0.661456 -0.10852,0.434081 -0.3204,0.682127 -0.21187,0.248046 -0.46508,0.372069 -0.25838,0.124023 -0.5271,0.155029 -0.26872,0.03101 -0.49092,0.03101 h -0.093 q -0.16537,0 -0.24805,-0.124023 -0.0827,-0.12919 -0.0827,-0.279051 0,-0.155029 0.0827,-0.279052 0.0827,-0.129191 0.24805,-0.129191 z m 2.3306,2.4339515 q -0.50643,0.160197 -0.99736,0.325561 -0.49092,0.165364 -0.9405,0.310057 -0.0827,0.02584 -0.0413,-0.05168 l 0.21187,-0.39274 q 0.0155,-0.031 0.0258,-0.04651 0.0155,-0.0155 0.0465,-0.02584 0.13953,-0.05168 0.36691,-0.129191 0.22737,-0.07235 0.49092,-0.160196 0.26872,-0.08268 0.54777,-0.170532 0.27905,-0.08785 0.53226,-0.165364 0.0414,-0.0155 0.0517,-0.01034 0.0103,0.01034 -0.0103,0.05168 l -0.22221,0.403075 q -0.0155,0.02067 -0.031,0.03617 -0.0103,0.02067 -0.031,0.02584 z m -3.09024,0.439249 q -0.0258,0.03101 -0.0413,0.03101 -0.0155,0.0052 -0.0568,-0.02584 l -0.61495,-0.480589 -0.40307,0.552936 q -0.0362,0.04651 -0.0775,0.0155 L 74.334701,11.1113 q -0.0362,-0.02584 -0.0103,-0.06201 l 0.41858,-0.594277 q 0.0207,-0.03101 0.0362,-0.03101 0.0155,0 0.0362,0.02067 l 0.62011,0.470254 0.42375,-0.542601 q 0.031,-0.04134 0.062,-0.0155 l 0.65629,0.547768 q 0.0362,0.02584 0,0.07235 z m -2.16003,-2.0618835 h -0.093 q -0.15503,0 -0.23254,-0.124023 -0.0775,-0.12919 -0.0775,-0.284219 0,-0.07751 0.0207,-0.149861 0.0155,-0.07235 0.0568,-0.129191 0.0362,-0.05684 0.0982,-0.09302 0.0568,-0.03617 0.13436,-0.03617 h 0.093 q 0.1602,0 0.35657,-0.01034 0.20153,-0.01033 0.37723,-0.05684 0.17053,-0.04651 0.3359,-0.139526 0.16536,-0.09819 0.30489,-0.268716 0.10335,-0.124023 0.16536,-0.253214 0.0672,-0.129191 0.12919,-0.294555 0.0258,-0.06718 0.0827,-0.07235 0.062,-0.0052 0.0672,0.02584 0.005,0.06201 -0.0103,0.149861 -0.0103,0.08785 -0.0103,0.160196 0,0.134359 0.0672,0.268717 0.0672,0.134358 0.20671,0.242878 0.13952,0.108521 0.3824,0.180867 0.24805,0.06718 0.55811,0.06718 h 0.0982 q 0.0775,0 0.13436,0.03617 0.0568,0.03617 0.093,0.09302 0.0413,0.05684 0.0568,0.129191 0.0207,0.07235 0.0207,0.149861 0,0.155029 -0.0775,0.284219 -0.0724,0.124023 -0.22738,0.124023 h -0.0982 q -0.27906,0 -0.53227,-0.05168 -0.24805,-0.05684 -0.42375,-0.165364 -0.34106,-0.206705 -0.53226,-0.60978 -0.11369,0.232543 -0.26872,0.387572 -0.15503,0.155029 -0.34106,0.253214 -0.1912,0.09819 -0.43408,0.144693 -0.24288,0.04134 -0.48059,0.04134 z m -1.25057,1.2970745 -0.7338,-6.8264345 q 0.0517,-0.170532 0.12402,-0.330728 0.0724,-0.165364 0.14987,-0.335896 0.0207,-0.03617 0.0517,-0.03617 0.0362,-0.0052 0.0465,0.08268 l 0.46509,3.891223 q 0.031,0.330728 0.0982,0.599444 0.0672,0.268717 0.19637,0.454751 0.12919,0.191203 0.3359,0.294555 0.2067,0.09819 0.51676,0.09819 h 0.093 q 0.16536,0 0.24804,0.129191 0.0827,0.124023 0.0827,0.279052 0,0.149861 -0.0827,0.279051 -0.0827,0.124023 -0.24804,0.124023 h -0.093 q -0.32039,0 -0.56844,-0.09302 -0.24805,-0.09302 -0.41858,-0.284219 0.0155,0.165364 0.031,0.361734 0.0155,0.191202 0.0258,0.372069 0.0155,0.1860335 0.0207,0.3410625 0.005,0.155029 0,0.242879 -0.0413,0.506427 -0.24288,0.909502 -0.19637,0.403075 -0.52193,0.687294 -0.32039,0.289387 -0.74931,0.439248 -0.42374,0.155029 -0.91983,0.155029 -0.43925,0 -0.80099,-0.134358 -0.36173,-0.129191 -0.62528,-0.377237 -0.25838,-0.248046 -0.40307,-0.604612 -0.1447,-0.351399 -0.1447,-0.795815 0,-0.480589 0.15503,-0.9250045 0.15503,-0.439248 0.43408,-0.847491 0.031,-0.04651 0.0517,-0.04134 0.0258,0 0.0413,0.02584 0.0155,0.02584 0.0207,0.06201 0.005,0.03101 0,0.04134 -0.21704,0.459919 -0.29456,0.956011 -0.0775,0.5012595 0.0775,0.9043345 0.15503,0.403075 0.5271,0.656288 0.37723,0.253214 1.01802,0.253214 0.28939,0 0.57877,-0.06718 0.29456,-0.06201 0.56327,-0.191202 0.26872,-0.124023 0.4961,-0.315226 0.23254,-0.186034 0.3979,-0.43408 z m -7.80311,-7.9943185 q 0.0827,0.0052 0.0775,0.191202 -0.0103,0.19637 0.005,0.387572 0.0155,0.186035 0.0413,0.377237 0.0517,0.459919 0.12402,0.950843 0.0724,0.485757 0.1447,0.98185 0.0672,0.490924 0.13435,0.981849 0.0672,0.490924 0.11369,0.956011 0.0207,0.180867 0.0258,0.423745 0.0103,0.242878 -0.005,0.496092 -0.0103,0.248046 -0.0568,0.480589 -0.0413,0.232544 -0.11886,0.387572 -0.0413,0.08785 -0.0982,0.113688 -0.0465,0.0052 -0.0413,-0.04134 -0.031,-0.449583 -0.0775,-0.904334 -0.0413,-0.459919 -0.10852,-0.935341 -0.0672,-0.490924 -0.13436,-0.971514 -0.0672,-0.480589 -0.12919,-0.961178 -0.0672,-0.48059 -0.13436,-0.961179 -0.062,-0.480589 -0.12402,-0.966346 0.0155,-0.118856 0.0465,-0.242879 0.031,-0.12919 0.0879,-0.263549 0.12402,-0.335895 0.16536,-0.408242 0.0465,-0.07235 0.062,-0.07235 z m -4.59919,4.196113 q 0.26355,0.07235 0.48576,0.139526 0.2222,0.06718 0.42891,0.129191 0.21187,0.05684 0.41858,0.103352 0.2067,0.04651 0.43924,0.07752 0.45476,0.06201 0.83716,0.07751 0.38757,0.01033 0.7028,0.02584 0.0258,0 0.031,0.02584 0.0103,0.02584 0,0.06201 -0.0155,0.04651 -0.0672,0.12919 -0.0465,0.07751 -0.10335,0.170532 -0.0568,0.08785 -0.11369,0.175699 -0.0568,0.08268 -0.0879,0.144694 -0.0258,0.04651 -0.0672,0.05168 -0.0413,0.0052 -0.10335,-0.0052 -0.42891,-0.07235 -0.80615,-0.05684 -0.37207,0.0155 -0.72347,0.08785 -0.34623,0.07235 -0.68729,0.191203 -0.34106,0.118855 -0.69763,0.253213 -0.41858,0.155029 -0.84232,0.289387 -0.41858,0.129191 -0.85783,0.227376 -0.43408,0.09302 -0.89917,0.149861 -0.45991,0.05168 -0.95601,0.05168 h -0.0982 q -0.17053,0 -0.25838,-0.124023 -0.0879,-0.12919 -0.0879,-0.284219 0,-0.155029 0.0879,-0.279052 0.0879,-0.129191 0.25838,-0.129191 h 0.0982 q 0.36174,0 0.79065,-0.0155 0.42891,-0.0155 0.92501,-0.08268 0.50126,-0.07235 1.06969,-0.217041 0.57361,-0.149861 1.21956,-0.41341 -0.40824,-0.129191 -0.79064,-0.21704 -0.37724,-0.09302 -0.75448,-0.139526 -0.37207,-0.04651 -0.75447,-0.04651 -0.3824,0 -0.80098,0.05168 -0.0568,0 -0.0258,-0.05168 0.0982,-0.201537 0.1912,-0.356566 0.0982,-0.160197 0.23255,-0.320393 0.0207,-0.02584 0.12919,-0.04651 0.10852,-0.02067 0.27388,-0.04134 0.16536,-0.02067 0.3669,-0.03617 0.20671,-0.02067 0.41858,-0.03617 0.21704,-0.02067 0.41858,-0.03617 0.20153,-0.02067 0.3669,-0.04134 0.12402,-0.0155 0.2067,-0.04134 0.0827,-0.03101 0.0724,-0.118855 -0.0258,-0.268717 -0.0775,-0.630451 -0.0465,-0.361734 -0.11369,-0.754473 -0.062,-0.397907 -0.13436,-0.795815 -0.0724,-0.403075 -0.14469,-0.749306 -0.0258,-0.113687 -0.0517,-0.248046 -0.0207,-0.134358 -0.0568,-0.263549 -0.031,-0.12919 -0.0775,-0.232543 -0.0465,-0.10852 -0.11369,-0.165364 l 0.34107,-0.687294 q 0.0723,-0.08785 0.11885,0 0.0465,0.124023 0.0982,0.253213 0.0568,0.129191 0.12402,0.253214 0.0724,0.118856 0.16536,0.222208 0.093,0.103353 0.21705,0.180867 -0.031,0.06718 -0.093,0.144694 -0.0568,0.07235 -0.11369,0.155028 -0.0568,0.08268 -0.093,0.1757 -0.031,0.08785 -0.0103,0.180867 0.0155,0.07751 0.062,0.320393 0.0465,0.242878 0.10335,0.558103 0.0568,0.310058 0.11369,0.651121 0.0568,0.341064 0.093,0.620115 0.0155,0.139526 0.0207,0.310058 0.005,0.165364 -0.0207,0.346231 -0.0207,0.175699 -0.0775,0.351399 -0.0568,0.175699 -0.16536,0.32556 z m -3.2246,-1.245398 q 0.17053,-0.09819 0.33589,-0.19637 0.16537,-0.09819 0.3204,-0.211872 0.16019,-0.113688 0.31522,-0.248046 0.15503,-0.134359 0.29972,-0.30489 -0.13952,-0.04134 -0.29455,-0.139526 -0.15503,-0.09819 -0.24805,-0.211873 -0.0465,-0.05684 -0.0568,-0.144694 -0.0103,-0.09302 0.0155,-0.170531 0.0413,-0.124023 0.11369,-0.268717 0.0775,-0.144693 0.18087,-0.263549 0.10335,-0.118855 0.22737,-0.191202 0.12919,-0.07751 0.25838,-0.07235 0.1602,0.01033 0.23255,0.155029 0.0723,0.139526 0.0878,0.32556 0.0207,0.186035 0,0.366902 -0.0155,0.180867 -0.0258,0.263549 0,0.02584 0.0155,0.04134 0.062,0.03617 0.0827,0.06718 0.0258,0.03101 0.0413,0.07235 0.031,0.07751 0.0103,0.186034 -0.0155,0.108521 -0.062,0.165364 -0.0413,0.05168 -0.0724,0.05168 -0.031,-0.0052 -0.062,-0.05168 -0.0258,-0.03101 -0.0517,-0.05684 -0.0207,-0.03101 -0.0672,-0.05168 -0.1447,0.1757 -0.31006,0.335896 -0.1602,0.160197 -0.34107,0.294555 -0.18603,0.12919 -0.38757,0.232543 -0.20154,0.103353 -0.42374,0.170532 -0.0879,0.02584 -0.18087,0.03617 -0.093,0.0052 -0.10335,-0.02067 -0.0103,-0.03101 0.0362,-0.07235 0.0465,-0.04651 0.11369,-0.08785 z m 0.97151,-1.736322 q 0.10852,0.149861 0.25838,0.23771 0.14987,0.08268 0.27389,0.113688 h 0.0103 q 0,-0.04134 0.005,-0.10852 0.005,-0.07235 0,-0.144694 0,-0.07235 -0.0207,-0.139525 -0.0155,-0.06718 -0.062,-0.113688 -0.0413,-0.03617 -0.11886,-0.03101 -0.0723,0 -0.14469,0.02584 -0.0724,0.02584 -0.13436,0.07235 -0.0568,0.04134 -0.0672,0.08785 z m -9.44125,4.283962 q 0.58911,-0.118855 1.15755,-0.299722 0.56844,-0.186035 1.14721,-0.418578 0.0362,-0.0052 0.0362,0.04134 -0.0465,0.263549 -0.005,0.449583 0.0465,0.186035 0.16019,0.315226 0.11886,0.124023 0.29456,0.19637 0.18086,0.07235 0.40824,0.10852 0.24805,-0.315226 0.51159,-0.614948 0.26355,-0.30489 0.55294,-0.578774 0.28939,-0.279052 0.60461,-0.516763 0.31523,-0.237711 0.67179,-0.428913 0.17054,-0.09302 0.38758,-0.118855 0.21704,-0.02584 0.44441,0.0052 0.22738,0.03101 0.44442,0.113688 0.21704,0.08268 0.38757,0.211873 0.1757,0.124023 0.28422,0.289387 0.11369,0.160196 0.12402,0.351399 -0.0207,0.439248 -0.1757,0.759641 -0.14986,0.320393 -0.3979,0.558103 0.26355,0.0155 0.52193,-0.0052 0.25838,-0.02584 0.48059,-0.02584 h 0.093 q 0.11369,0 0.18604,0.06201 0.0723,0.05684 0.10852,0.149861 0.0413,0.08785 0.0362,0.191203 0,0.103352 -0.0362,0.196369 -0.0362,0.08785 -0.11369,0.149862 -0.0724,0.05684 -0.18087,0.05684 h -0.093 q -0.25322,0 -0.58911,0.0052 -0.33073,0.0052 -0.71314,0.01033 -0.3824,0.0052 -0.79581,0.0052 -0.40824,0.0052 -0.81649,-0.0052 -0.27905,0.04134 -0.58394,0.05168 -0.30489,0.01033 -0.58911,-0.0052 -0.28422,-0.01033 -0.51676,-0.04134 -0.23254,-0.03101 -0.3669,-0.07235 -0.0775,0.113688 -0.11886,0.201538 -0.0413,0.09302 -0.0672,0.144693 -0.0672,0.144694 -0.14986,0.124023 -0.093,-0.03101 -0.0568,-0.191202 0.0103,-0.04134 0.0465,-0.129191 0.0362,-0.08268 0.093,-0.242878 -0.13436,-0.04651 -0.27389,-0.124023 -0.13436,-0.08268 -0.24804,-0.201538 -0.11369,-0.118855 -0.19637,-0.268716 -0.0827,-0.155029 -0.10852,-0.351399 -0.38758,0.165364 -0.76998,0.299723 -0.38241,0.12919 -0.82165,0.232543 -0.0465,0.32556 -0.11369,0.635618 -0.0672,0.310057 -0.14986,0.5891085 -0.0827,0.279052 -0.18087,0.516763 -0.093,0.242878 -0.1912,0.428913 -0.26355,0.50126 -0.6873,0.775144 -0.41857,0.279052 -0.95084,0.335896 -0.47542,0.05168 -0.88366,0 -0.40825,-0.04651 -0.78032,-0.191202 -0.0982,-0.03617 -0.11885,-0.07751 -0.0207,-0.04134 0.0103,-0.07751 0.0258,-0.03617 0.093,-0.05684 0.062,-0.02067 0.13953,-0.0155 0.26355,0.01033 0.45992,0.0052 0.19637,-0.0052 0.3669,-0.03617 0.1757,-0.03101 0.34106,-0.08785 0.16537,-0.05168 0.36174,-0.134359 0.34623,-0.144693 0.65628,-0.418577 0.31523,-0.273885 0.56844,-0.620116 0.25322,-0.341063 0.44442,-0.7286345 0.1912,-0.387572 0.29972,-0.764809 -0.0465,0.01033 -0.12402,0.02584 -0.0775,0.01034 -0.11369,0.0155 -0.0413,0 -0.031,-0.04134 0.0258,-0.165364 0.0672,-0.32556 0.0413,-0.160197 0.0672,-0.325561 0.0103,-0.05684 0.0517,-0.06718 z m 3.63284,0.439248 q 0.22738,0.04651 0.5271,0.05168 0.29972,0.0052 0.63045,-0.03101 0.33073,-0.03617 0.67179,-0.10852 0.34623,-0.07752 0.65629,-0.186035 0.31522,-0.113688 0.57877,-0.263549 0.26872,-0.149861 0.44442,-0.330728 -0.10852,-0.222208 -0.31006,-0.372069 -0.20154,-0.155029 -0.43925,-0.232543 -0.23771,-0.08268 -0.48575,-0.08785 -0.24288,-0.0052 -0.43925,0.07235 -0.26872,0.103352 -0.52193,0.268716 -0.24805,0.160197 -0.48059,0.361734 -0.22738,0.19637 -0.43925,0.418578 -0.2067,0.222208 -0.39274,0.439248 z m 1.39009,-5.048771 q -0.25838,0.118855 -0.5426,0.248046 -0.27905,0.129191 -0.5426,0.248046 -0.26355,0.118856 -0.49092,0.222208 -0.22738,0.103353 -0.38758,0.170532 -0.0362,0.0155 -0.0517,0 -0.0155,-0.0155 0,-0.04651 l 0.25321,-0.506427 q 0.0258,-0.04134 0.0517,-0.05684 0.031,-0.02067 0.0568,-0.03617 l 1.88619,-0.837155 q 0.0827,-0.03617 0.0517,0.04134 l -0.21187,0.480589 q -0.0155,0.04651 -0.0724,0.07235 z m -5.20897,9.6272885 q -0.50642,0.160196 -0.99735,0.32556 -0.49092,0.165364 -0.94051,0.310058 -0.0827,0.02584 -0.0413,-0.05168 l 0.21188,-0.39274 q 0.0155,-0.03101 0.0258,-0.04651 0.0155,-0.0155 0.0465,-0.02584 0.13953,-0.05168 0.3669,-0.129191 0.22738,-0.07235 0.49093,-0.160196 0.26872,-0.08268 0.54777,-0.170532 0.27905,-0.08785 0.53226,-0.165364 0.0413,-0.0155 0.0517,-0.01033 0.0103,0.01033 -0.0103,0.05168 l -0.2222,0.403075 q -0.0155,0.02067 -0.031,0.03617 -0.0103,0.02067 -0.031,0.02584 z m -3.74653,-3.6741825 q -0.35139,0.294555 -0.74413,0.5426005 -0.39274,0.248046 -0.81649,0.428913 -0.42374,0.180867 -0.87849,0.279052 -0.45476,0.103352 -0.92501,0.103352 -0.47542,0 -0.89917,-0.134358 -0.41857,-0.129191 -0.7338,-0.387572 -0.31006,-0.253214 -0.50126,-0.6356175 -0.18603,-0.377237 -0.1912,-0.873329 -0.0155,-0.547769 0.15503,-1.064531 0.1757,-0.516763 0.50126,-0.966346 0.031,-0.04134 0.0517,-0.03617 0.0207,0 0.0362,0.02584 0.0155,0.02067 0.0207,0.05168 0.005,0.02584 0.005,0.04134 -0.10335,0.211872 -0.20153,0.444416 -0.093,0.232543 -0.15503,0.475421 -0.062,0.242879 -0.0724,0.496092 -0.005,0.253214 0.0827,0.506428 0.093,0.299722 0.25838,0.52193 0.17054,0.222208 0.39274,0.372069 0.22221,0.155029 0.48576,0.2377105 0.26872,0.08268 0.56327,0.10852 0.42375,0.03617 0.8785,-0.02584 0.45475,-0.05684 0.90433,-0.1912015 0.44959,-0.139526 0.863,-0.341063 0.41858,-0.201538 0.76481,-0.449584 0.0879,-0.06201 0.093,-0.103353 0.005,-0.04651 -0.0362,-0.07751 -0.0362,-0.03617 -0.10335,-0.05684 -0.062,-0.02067 -0.10852,-0.03617 -0.14986,-0.04134 -0.32556,-0.06718 -0.1757,-0.03101 -0.36174,-0.05684 -0.18086,-0.02584 -0.36173,-0.05168 -0.1757,-0.031 -0.32556,-0.06718 -0.17053,-0.04134 -0.32556,-0.124023 -0.14986,-0.08268 -0.26355,-0.19637 -0.11369,-0.118855 -0.18604,-0.268716 -0.0672,-0.149861 -0.0723,-0.320393 -0.0103,-0.242878 0.0465,-0.485757 0.062,-0.242878 0.1757,-0.470254 0.11368,-0.232543 0.26354,-0.444416 0.15503,-0.21704 0.33073,-0.408242 0.18087,-0.201538 0.38757,-0.377237 0.20671,-0.175699 0.41858,-0.294555 0.21704,-0.118855 0.43408,-0.165364 0.21704,-0.05168 0.41858,-0.0052 0.21704,0.05684 0.34623,0.206706 0.12919,0.149861 0.1757,0.341063 0.0517,0.191202 0.0258,0.397907 -0.0258,0.206705 -0.11369,0.372069 -0.0155,0.02067 -0.0465,0.0155 -0.0258,-0.0052 -0.0362,-0.03617 -0.031,-0.07752 -0.0982,-0.1757 -0.0672,-0.09818 -0.16019,-0.186034 -0.093,-0.08785 -0.20671,-0.144694 -0.10852,-0.06201 -0.23254,-0.06201 -0.24805,0 -0.51676,0.12919 -0.26355,0.129191 -0.50643,0.330729 -0.24288,0.201537 -0.43408,0.444416 -0.18604,0.242878 -0.27905,0.470254 -0.093,0.180866 -0.0465,0.30489 0.0517,0.118855 0.1912,0.21704 0.13953,0.103352 0.32556,0.170532 0.1912,0.06718 0.39274,0.113687 0.20154,0.04651 0.40308,0.07752 0.20153,0.02584 0.37207,0.05168 0.12402,0.02067 0.26354,0.05168 0.1447,0.03101 0.26872,0.08785 0.12402,0.05168 0.21187,0.139526 0.0878,0.08268 0.10336,0.211873 0.0155,0.113687 -0.005,0.263549 -0.0207,0.144693 -0.0724,0.289387 -0.0465,0.144693 -0.11885,0.273884 -0.0672,0.124023 -0.14987,0.191202 z"
       id="text2"
       style="font-size:10.5833px;line-height:1.25;font-family:'KFGQPC Uthmanic Script HAFS';-inkscape-font-specification:'KFGQPC Uthmanic Script HAFS';stroke-width:0.264583"
       aria-label="الشَّيْخُ مَحْمُود خَلِيل الحُصَرِي"
       inkscape:label="Path" />
    <text
       xml:space="preserve"
       style="font-size:10.5833px;line-height:1.25;font-family:'KFGQPC Uthmanic Script HAFS';-inkscape-font-specification:'KFGQPC Uthmanic Script HAFS';direction:rtl;stroke-width:0.264583"
       x="129.17833"
       y="35.939713"
       id="text1"
       inkscape:label="Text"><tspan
         sodipodi:role="line"
         id="tspan1"
         style="stroke-width:0.264583"
         x="129.17833"
         y="35.939713">الشَّيْخُ مَحْمُود خَلِيل الحُصَرِي</tspan></text>
  </g>
</svg>
