<?xml version="1.0" encoding="UTF-8" standalone="no"?>
<!-- Created with Inkscape (http://www.inkscape.org/) -->

<svg
   width="18.94231mm"
   height="14.2mm"
   viewBox="0 0 18.942311 14.2"
   version="1.1"
   id="svg1"
   sodipodi:docname="Words.svg"
   inkscape:version="1.3.2 (091e20e, 2023-11-25, custom)"
   xmlns:inkscape="http://www.inkscape.org/namespaces/inkscape"
   xmlns:sodipodi="http://sodipodi.sourceforge.net/DTD/sodipodi-0.dtd"
   xmlns="http://www.w3.org/2000/svg"
   xmlns:svg="http://www.w3.org/2000/svg">
  <sodipodi:namedview
     id="namedview1"
     pagecolor="#ffffff"
     bordercolor="#666666"
     borderopacity="1.0"
     inkscape:showpageshadow="2"
     inkscape:pageopacity="0.0"
     inkscape:pagecheckerboard="0"
     inkscape:deskcolor="#d1d1d1"
     inkscape:document-units="mm"
     inkscape:zoom="4.1373684"
     inkscape:cx="6.0424883"
     inkscape:cy="24.290803"
     inkscape:window-width="1920"
     inkscape:window-height="1017"
     inkscape:window-x="-8"
     inkscape:window-y="-8"
     inkscape:window-maximized="1"
     inkscape:current-layer="layer1">
    <inkscape:page
       x="0"
       y="0"
       width="18.94231"
       height="14.2"
       id="page39"
       margin="0"
       bleed="0"
       inkscape:export-filename="Madaniyah.svg"
       inkscape:export-xdpi="96"
       inkscape:export-ydpi="96" />
  </sodipodi:namedview>
  <defs
     id="defs1" />
  <g
     inkscape:label="Layer 1"
     inkscape:groupmode="layer"
     id="layer1"
     transform="translate(-186.26645,-8.1394641)">
    <g
       id="g6"
       transform="translate(5.7832447,-12.349386)">
      <g
         id="g44">
        <path
           style="font-size:10.5833px;line-height:1.25;font-family:'KFGQPC Uthmanic Script HAFS';-inkscape-font-specification:'KFGQPC Uthmanic Script HAFS';stroke-width:0.264583"
           d="m 121.77057,29.884659 c -0.11021,0 -0.18942,0.0069 -0.23772,0.02067 -0.0517,0.01033 -0.0775,0.04651 -0.0775,0.10852 v 0.490926 c 0,0.08956 0.0276,0.144695 0.0827,0.165365 0.0551,0.01724 0.12578,0.02584 0.21188,0.02584 h 3.35896 0.0103 3.35897 c 0.11714,0 0.19641,-0.0155 0.23771,-0.04651 0.0448,-0.03101 0.0672,-0.07579 0.0672,-0.134359 v -0.45992 c -0.004,-0.08268 -0.0327,-0.130914 -0.0879,-0.144694 -0.0517,-0.01724 -0.12404,-0.02584 -0.21704,-0.02584 h -3.34864 c -0.003,0 -0.003,5.07e-4 -0.006,5.17e-4 -0.002,-6e-6 -0.002,-5.17e-4 -0.004,-5.17e-4 z"
           id="path29"
           inkscape:label="Dash" />
      </g>
      <g
         id="g42">
        <path
           id="path5"
           style="font-size:10.5833px;line-height:1.25;font-family:'KFGQPC Uthmanic Script HAFS';-inkscape-font-specification:'KFGQPC Uthmanic Script HAFS';stroke-width:0.264583"
           d="m 147.11269,22.148697 c -0.0138,-0.01033 -0.0345,-4e-6 -0.062,0.03101 -0.093,0.09301 -0.19293,0.172252 -0.29973,0.237712 -0.10335,0.06201 -0.2136,0.113689 -0.33073,0.155029 -0.11024,0.04134 -0.22565,0.07235 -0.34623,0.09302 -0.12058,0.01722 -0.2446,0.02927 -0.37207,0.03617 -0.19637,0.0069 -0.39619,-0.01551 -0.59944,-0.06718 -0.19981,-0.05168 -0.38758,-0.120576 -0.56328,-0.206706 -0.062,-0.03099 -0.10509,-0.02928 -0.12919,0.0052 -0.0207,0.04479 -0.0482,0.106796 -0.0827,0.186036 -0.031,0.07579 -0.062,0.158477 -0.093,0.248047 -0.0275,0.08613 -0.0534,0.170534 -0.0775,0.253214 -0.0241,0.08268 -0.0395,0.146413 -0.0465,0.191203 -0.007,0.03445 -0.0137,0.07579 -0.0207,0.124023 -0.004,0.04479 0.009,0.06718 0.0362,0.06718 0.0172,0 0.0413,-0.0155 0.0724,-0.04651 0.031,-0.03445 0.062,-0.07235 0.093,-0.113688 0.0345,-0.04479 0.0655,-0.0913 0.093,-0.139527 0.0276,-0.04823 0.0447,-0.08441 0.0517,-0.10852 0.004,-0.03103 0.0276,-0.03273 0.0724,-0.0052 0.12747,0.08268 0.28077,0.148141 0.45992,0.196371 0.18259,0.04823 0.37034,0.06891 0.56327,0.06201 0.13781,-0.01033 0.27561,-0.02928 0.41341,-0.05684 0.13781,-0.031 0.27044,-0.07752 0.39791,-0.139526 0.12747,-0.06546 0.24804,-0.146419 0.36173,-0.242879 0.11369,-0.09991 0.21706,-0.22221 0.31006,-0.366903 0.0172,-0.03101 0.0327,-0.06546 0.0465,-0.103353 0.0172,-0.04134 0.0327,-0.08268 0.0465,-0.124023 0.0137,-0.04134 0.0207,-0.07579 0.0207,-0.103353 0.004,-0.03101 -0.002,-0.05168 -0.0155,-0.06201 z m -1.7725,1.79834 c -0.0103,0 -0.031,0.02412 -0.062,0.07235 -0.0276,0.04823 -0.0827,0.184313 -0.16537,0.408244 -0.0379,0.08957 -0.0671,0.17742 -0.0879,0.26355 -0.0207,0.08268 -0.0362,0.163639 -0.0465,0.242879 0.0413,0.323837 0.0827,0.645956 0.12403,0.966349 0.0448,0.320393 0.0895,0.640789 0.13435,0.961182 0.0413,0.320392 0.0844,0.640789 0.12919,0.961181 0.0448,0.320393 0.0896,0.644235 0.13436,0.971517 0.0448,0.316948 0.081,0.628731 0.10852,0.935344 0.031,0.303166 0.0568,0.604616 0.0775,0.904337 -0.004,0.03103 0.0103,0.04484 0.0413,0.04134 0.0379,-0.01723 0.0707,-0.05512 0.0982,-0.113688 0.0517,-0.103353 0.0914,-0.232544 0.11885,-0.387573 0.031,-0.155029 0.0499,-0.315227 0.0569,-0.480591 0.01,-0.168809 0.0116,-0.334175 0.005,-0.496094 -0.003,-0.161918 -0.012,-0.303168 -0.0258,-0.423746 -0.031,-0.310058 -0.0689,-0.628732 -0.11369,-0.956014 -0.0448,-0.327283 -0.0896,-0.65457 -0.13436,-0.981852 -0.0482,-0.330729 -0.0964,-0.658016 -0.14469,-0.981853 -0.0482,-0.327282 -0.0895,-0.644233 -0.12403,-0.950846 -0.0172,-0.127468 -0.031,-0.253215 -0.0413,-0.377238 -0.01,-0.127468 -0.0117,-0.25666 -0.005,-0.387573 0.004,-0.124002 -0.0224,-0.187703 -0.0775,-0.191203 z m -5.98465,0.0155 c -0.0172,0 -0.031,0.01206 -0.0413,0.03617 l -0.26872,0.676962 c -0.007,0.02067 -0.008,0.0379 -0.005,0.05168 0.004,0.01378 0.008,0.03445 0.0155,0.06201 0.10333,0.365178 0.17741,0.706245 0.22221,1.023193 0.0482,0.313503 0.0895,0.625287 0.12402,0.935344 0.0344,0.299722 0.0689,0.599448 0.10336,0.89917 0.0345,0.299722 0.0672,0.599448 0.0982,0.899169 0.0276,0.261827 0.0621,0.525379 0.10336,0.79065 0.0448,0.261827 0.13608,0.50643 0.27388,0.733805 0.11713,0.189479 0.27389,0.341065 0.47026,0.454753 0.15924,0.09061 0.36347,0.134565 0.59272,0.152962 0.026,0.0065 0.049,0.01757 0.0791,0.01757 h 0.093 0.0362 0.0362 c 0.005,0 0.007,-0.0024 0.0119,-0.0026 0.12713,-0.0015 0.25828,-0.0044 0.40669,-0.01292 0.18259,-0.01378 0.36174,-0.03962 0.53744,-0.07751 0.1757,-0.0379 0.3359,-0.09474 0.48059,-0.170532 0.14814,-0.07579 0.26353,-0.1757 0.34623,-0.299723 0.031,-0.04823 0.0568,-0.105072 0.0775,-0.170532 0.0241,-0.0689 0.043,-0.139524 0.0568,-0.211874 0.0138,-0.07579 0.024,-0.149858 0.031,-0.222208 0.007,-0.07235 0.0103,-0.137801 0.0103,-0.196371 0,-0.134358 -0.0172,-0.266995 -0.0517,-0.397908 -0.0345,-0.130913 -0.0827,-0.258383 -0.14469,-0.382406 -0.062,-0.124023 -0.13434,-0.242879 -0.21704,-0.356567 -0.0792,-0.113687 -0.16705,-0.218767 -0.26355,-0.315227 -0.0275,-0.03101 -0.0534,-0.04651 -0.0775,-0.04651 -0.0241,0 -0.0414,0.01895 -0.0517,0.05684 l -0.17053,0.72347 c 0.0654,0.06545 0.12743,0.13091 0.18603,0.19637 0.0585,0.06546 0.11543,0.134356 0.17053,0.206706 0.0517,0.0689 0.0982,0.141251 0.13953,0.217041 0.0448,0.07579 0.0844,0.158477 0.11886,0.248047 0.0167,0.04823 0.0237,0.08785 0.0207,0.118856 0,0.03101 -0.0189,0.05684 -0.0568,0.07751 -0.0689,0.04479 -0.16192,0.08096 -0.27905,0.108521 -0.11713,0.02411 -0.24977,0.04306 -0.39791,0.05684 -0.14469,0.01378 -0.29973,0.02411 -0.46509,0.03101 -0.16192,0.0035 -0.32555,0.0052 -0.49092,0.0052 h -5.2e-4 c -0.27216,0 -0.48403,-0.03617 -0.63562,-0.10852 -0.14813,-0.07235 -0.26186,-0.179146 -0.34106,-0.320394 -0.0896,-0.165364 -0.1482,-0.346233 -0.1757,-0.542603 -0.0275,-0.196369 -0.0534,-0.387573 -0.0775,-0.573608 l -0.0724,-0.702799 c -0.0241,-0.234265 -0.05,-0.471979 -0.0775,-0.713135 -0.0379,-0.347954 -0.074,-0.658015 -0.10852,-0.930176 -0.031,-0.275607 -0.0637,-0.5271 -0.0982,-0.754476 -0.0345,-0.230821 -0.0706,-0.444419 -0.10852,-0.640788 -0.0379,-0.199814 -0.0792,-0.39791 -0.12402,-0.594279 -0.007,-0.02411 -0.0206,-0.03617 -0.0413,-0.03617 z m 3.96668,0.452169 c -0.009,-0.0069 -0.0267,-0.0043 -0.0543,0.0078 l -1.88619,0.837158 c -0.0172,0.01033 -0.0361,0.02239 -0.0568,0.03617 -0.0173,0.01033 -0.0345,0.02928 -0.0517,0.05684 l -0.25321,0.506429 c -0.0103,0.02067 -0.0103,0.03618 0,0.04651 0.0103,0.01033 0.0276,0.01033 0.0517,0 0.1068,-0.04479 0.236,-0.101633 0.38758,-0.170532 0.15159,-0.0689 0.31522,-0.142969 0.49092,-0.222209 0.17569,-0.07924 0.35657,-0.161917 0.54261,-0.248047 0.18948,-0.08613 0.37035,-0.168807 0.5426,-0.248047 0.0379,-0.01723 0.062,-0.04134 0.0723,-0.07235 l 0.21188,-0.480591 c 0.0104,-0.02584 0.0112,-0.0422 0.003,-0.04909 z m -8.31215,1.625223 c -0.0207,-0.01723 -0.0413,-0.01206 -0.062,0.0155 l -0.42375,0.542603 -0.62012,-0.470256 c -0.0138,-0.01377 -0.0259,-0.02067 -0.0362,-0.02067 -0.0103,0 -0.0224,0.01034 -0.0362,0.03101 l -0.41858,0.594279 c -0.0173,0.02411 -0.0138,0.04478 0.0103,0.06201 l 0.65629,0.506429 c 0.0275,0.02067 0.0534,0.01551 0.0775,-0.0155 l 0.40307,-0.552937 0.61495,0.48059 c 0.0275,0.02067 0.0465,0.03101 0.0568,0.03101 0.0103,-0.0034 0.0241,-0.0155 0.0413,-0.03617 l 0.39274,-0.54777 c 0.0241,-0.03101 0.0241,-0.05512 0,-0.07235 z m 2.50734,1.038697 c -0.0215,-0.0017 -0.0372,0.01206 -0.0475,0.04134 l -0.25322,0.687296 c 0.15503,0.155029 0.29628,0.318673 0.42375,0.490927 0.12747,0.172253 0.22222,0.361736 0.28422,0.56844 0.0172,0.08957 -0.0276,0.156748 -0.13436,0.201538 -0.34107,0.141249 -0.67696,0.26355 -1.00769,0.366903 -0.33073,0.103353 -0.66146,0.189482 -0.99219,0.258382 -0.33417,0.06545 -0.67179,0.115412 -1.01286,0.149862 -0.34107,0.03101 -0.69247,0.04651 -1.0542,0.04651 -0.19292,0 -0.38929,-0.0034 -0.58911,-0.01034 -0.19981,-0.01033 -0.39102,-0.03962 -0.5736,-0.08785 -0.18259,-0.04823 -0.3514,-0.120581 -0.50643,-0.217041 -0.15158,-0.09991 -0.27734,-0.241157 -0.37724,-0.423746 -0.10329,-0.196369 -0.1517,-0.415135 -0.1447,-0.656291 0.007,-0.244601 0.0741,-0.480592 0.20154,-0.707967 0.0172,-0.05512 0.007,-0.09818 -0.031,-0.129191 -0.0379,-0.031 -0.074,-0.02755 -0.10852,0.01033 -0.29627,0.41341 -0.44442,0.840605 -0.44442,1.281576 0,0.26527 0.0465,0.499539 0.13952,0.702799 0.093,0.199815 0.21877,0.372072 0.37724,0.516764 0.16192,0.141249 0.34969,0.253217 0.56328,0.335897 0.21704,0.08269 0.44786,0.136087 0.69246,0.160197 0.45131,0.04479 0.88711,0.04995 1.30741,0.0155 0.42375,-0.03445 0.85784,-0.09302 1.30225,-0.1757 0.45131,-0.07924 0.87678,-0.187758 1.27641,-0.325561 0.39963,-0.141249 0.79753,-0.322118 1.19372,-0.542603 0.0655,-0.03445 0.11713,-0.09646 0.15503,-0.186035 0.0414,-0.09302 0.0707,-0.192925 0.0879,-0.299723 0.0208,-0.110243 0.0332,-0.220487 0.0362,-0.330729 0.007,-0.110243 0.008,-0.201536 0.005,-0.273886 -0.0207,-0.25838 -0.0947,-0.509875 -0.2222,-0.754475 -0.12402,-0.244601 -0.27905,-0.465089 -0.46509,-0.661459 -0.0328,-0.03273 -0.0601,-0.04995 -0.0816,-0.05168 z m 5.31647,4.475179 c -0.0207,-0.01723 -0.0413,-0.01206 -0.062,0.0155 l -0.42375,0.542602 -0.62012,-0.470255 c -0.0138,-0.01377 -0.0259,-0.02067 -0.0362,-0.02067 -0.0103,0 -0.0224,0.01034 -0.0362,0.03101 l -0.41858,0.594279 c -0.0173,0.02411 -0.0138,0.04478 0.0103,0.06201 l 0.65629,0.506429 c 0.0275,0.02067 0.0534,0.01551 0.0775,-0.0155 l 0.40307,-0.552938 0.61495,0.480591 c 0.0275,0.02074 0.0466,0.02934 0.0569,0.02584 0.0103,0 0.0241,-0.01034 0.0413,-0.03101 l 0.39274,-0.54777 c 0.0241,-0.03101 0.0241,-0.05512 0,-0.07235 z m -6.91947,0.330729 c -0.004,-0.0069 -0.0207,-0.0052 -0.0517,0.0052 -0.1757,0.05857 -0.36002,0.11713 -0.55294,0.175699 -0.18948,0.06201 -0.37207,0.12058 -0.54777,0.1757 -0.1757,0.05512 -0.33762,0.1068 -0.48576,0.15503 -0.14469,0.04823 -0.2618,0.08784 -0.3514,0.118855 -0.0172,0.0069 -0.031,0.01551 -0.0413,0.02584 -0.0103,0.01378 -0.0207,0.02928 -0.031,0.04651 l -0.21188,0.392741 c -0.0241,0.04828 -0.0104,0.06546 0.0413,0.05168 0.32384,-0.103353 0.64424,-0.210151 0.96119,-0.320394 0.32038,-0.106797 0.6425,-0.211873 0.96634,-0.315226 0.0173,-0.0035 0.0292,-0.01034 0.0362,-0.02067 0.0103,-0.0069 0.0207,-0.01723 0.031,-0.03101 l 0.22738,-0.413411 c 0.0102,-0.02067 0.0133,-0.03618 0.0103,-0.04651 z m -0.10336,0.956014 c -0.004,-0.0069 -0.0207,-0.0052 -0.0517,0.0052 -0.1757,0.05857 -0.36001,0.11713 -0.55294,0.175699 -0.18948,0.06201 -0.37207,0.12058 -0.54777,0.1757 -0.17569,0.05512 -0.33762,0.105072 -0.48576,0.149862 -0.14469,0.04823 -0.2618,0.08957 -0.3514,0.124023 -0.0172,0.0069 -0.031,0.01551 -0.0413,0.02584 -0.0103,0.01378 -0.0207,0.02928 -0.031,0.04651 l -0.21187,0.392741 c -0.0241,0.04828 -0.0104,0.06546 0.0413,0.05168 0.32384,-0.103353 0.64423,-0.210151 0.96118,-0.320394 0.32039,-0.110243 0.64251,-0.215316 0.96635,-0.315226 0.0173,-0.0035 0.0292,-0.01034 0.0362,-0.02067 0.0103,-0.0069 0.0207,-0.01723 0.031,-0.03101 l 0.22738,-0.413411 c 0.0102,-0.02067 0.0133,-0.03618 0.0103,-0.04651 z"
           inkscape:label="Ayat" />
      </g>
      <g
         id="g43">
        <path
           id="path6"
           style="font-size:10.5833px;line-height:1.25;font-family:'KFGQPC Uthmanic Script HAFS';-inkscape-font-specification:'KFGQPC Uthmanic Script HAFS';stroke-width:0.264583"
           d="m 158.69854,22.148697 c -0.0138,-0.01033 -0.0345,-4e-6 -0.062,0.03101 -0.093,0.09301 -0.19292,0.172252 -0.29972,0.237712 -0.10335,0.06201 -0.2136,0.113689 -0.33073,0.155029 -0.11024,0.04134 -0.22565,0.07235 -0.34623,0.09302 -0.12057,0.01722 -0.2446,0.02927 -0.37207,0.03617 -0.19637,0.0069 -0.39619,-0.01551 -0.59945,-0.06718 -0.19981,-0.05168 -0.38757,-0.120576 -0.56327,-0.206706 -0.062,-0.03099 -0.10509,-0.02928 -0.12919,0.0052 -0.0207,0.04479 -0.0482,0.106796 -0.0827,0.186036 -0.031,0.07579 -0.062,0.158477 -0.093,0.248047 -0.0275,0.08613 -0.0534,0.170534 -0.0775,0.253214 -0.0241,0.08268 -0.0395,0.146413 -0.0465,0.191203 -0.007,0.03445 -0.0137,0.07579 -0.0207,0.124023 -0.003,0.04479 0.009,0.06718 0.0362,0.06718 0.0172,0 0.0413,-0.0155 0.0723,-0.04651 0.031,-0.03445 0.062,-0.07235 0.093,-0.113688 0.0345,-0.04479 0.0655,-0.0913 0.093,-0.139527 0.0276,-0.04823 0.0447,-0.08441 0.0517,-0.10852 0.003,-0.03103 0.0275,-0.03273 0.0723,-0.0052 0.12747,0.08268 0.28077,0.148141 0.45992,0.196371 0.18259,0.04823 0.37035,0.06891 0.56328,0.06201 0.13781,-0.01033 0.27561,-0.02928 0.41341,-0.05684 0.13781,-0.031 0.27044,-0.07752 0.39791,-0.139526 0.12747,-0.06546 0.24804,-0.146419 0.36173,-0.242879 0.11369,-0.09991 0.21706,-0.22221 0.31006,-0.366903 0.0172,-0.03101 0.0327,-0.06546 0.0465,-0.103353 0.0172,-0.04134 0.0327,-0.08268 0.0465,-0.124023 0.0137,-0.04134 0.0207,-0.07579 0.0207,-0.103353 0.004,-0.03101 -0.002,-0.05168 -0.0155,-0.06201 z m -1.7725,1.79834 c -0.0103,0 -0.031,0.02412 -0.062,0.07235 -0.0276,0.04823 -0.0827,0.184313 -0.16536,0.408244 -0.0379,0.08957 -0.0677,0.17742 -0.0884,0.26355 -0.0207,0.08268 -0.0357,0.163639 -0.046,0.242879 0.0413,0.323837 0.0822,0.645956 0.1235,0.966349 0.0448,0.320393 0.0896,0.640789 0.13436,0.961182 0.0413,0.320392 0.0844,0.640789 0.12919,0.961181 0.0448,0.320393 0.0896,0.644235 0.13436,0.971517 0.0448,0.316948 0.081,0.628731 0.10852,0.935344 0.031,0.303166 0.0568,0.604616 0.0775,0.904337 -0.004,0.03103 0.0103,0.04484 0.0413,0.04134 0.0379,-0.01723 0.0707,-0.05512 0.0982,-0.113688 0.0517,-0.103353 0.0914,-0.232544 0.11886,-0.387573 0.0311,-0.155029 0.0504,-0.315227 0.0574,-0.480591 0.01,-0.168809 0.0117,-0.334175 0.005,-0.496094 -0.003,-0.161918 -0.012,-0.303168 -0.0258,-0.423746 -0.031,-0.310058 -0.0689,-0.628732 -0.11368,-0.956014 -0.0448,-0.327283 -0.0896,-0.65457 -0.13436,-0.981852 -0.0483,-0.330729 -0.0965,-0.658016 -0.1447,-0.981853 -0.0482,-0.327282 -0.0895,-0.644233 -0.12402,-0.950846 -0.0172,-0.127468 -0.031,-0.253215 -0.0413,-0.377238 -0.01,-0.127468 -0.0117,-0.25666 -0.005,-0.387573 0.004,-0.124002 -0.0224,-0.187703 -0.0775,-0.191203 z m -2.01796,0.467672 c -0.009,-0.0069 -0.0267,-0.0043 -0.0543,0.0078 l -1.88619,0.837158 c -0.0172,0.01033 -0.0362,0.02239 -0.0569,0.03617 -0.0173,0.01033 -0.0345,0.02928 -0.0517,0.05684 l -0.25322,0.506429 c -0.0103,0.02067 -0.0103,0.03618 0,0.04651 0.0103,0.01033 0.0276,0.01033 0.0517,0 0.10679,-0.04479 0.23598,-0.101633 0.38757,-0.170532 0.15159,-0.0689 0.31524,-0.142969 0.49093,-0.222209 0.1757,-0.07924 0.35656,-0.161917 0.5426,-0.248047 0.18948,-0.08613 0.37035,-0.168807 0.5426,-0.248047 0.0379,-0.01723 0.062,-0.04134 0.0724,-0.07235 l 0.21187,-0.480591 c 0.0104,-0.02584 0.0112,-0.0422 0.003,-0.04909 z m -3.61477,0.245463 c -0.0207,-0.01723 -0.0413,-0.01206 -0.062,0.0155 l -0.42375,0.542602 -0.62011,-0.470255 c -0.0138,-0.01377 -0.0259,-0.02067 -0.0362,-0.02067 -0.0103,0 -0.0224,0.01034 -0.0362,0.03101 l -0.41858,0.594279 c -0.0173,0.02411 -0.0138,0.04478 0.0103,0.06201 l 0.65629,0.506429 c 0.0275,0.02067 0.0534,0.01551 0.0775,-0.0155 l 0.40308,-0.552938 0.61495,0.480591 c 0.0275,0.02067 0.0465,0.03101 0.0568,0.03101 0.0103,-0.0034 0.0241,-0.0155 0.0413,-0.03617 l 0.39274,-0.54777 c 0.0241,-0.03101 0.0241,-0.05512 0,-0.07235 z m -0.29455,1.793172 c -0.0241,-0.0069 -0.043,0.0052 -0.0568,0.03617 h -5.1e-4 l -0.0465,0.124024 c -0.0207,0.05512 -0.0408,0.11369 -0.0615,0.1757 -0.0172,0.05857 -0.0327,0.115412 -0.0465,0.170532 -0.0133,0.05512 -0.0173,0.09646 -0.0103,0.124023 0.0138,0.06201 0.0259,0.129189 0.0362,0.201538 0.0138,0.0689 0.024,0.124025 0.031,0.165365 -0.14469,0.05857 -0.27906,0.118858 -0.40308,0.180868 -0.12058,0.06201 -0.23255,0.130915 -0.3359,0.206705 -0.20671,0.144694 -0.38068,0.318672 -0.52193,0.521932 -0.0896,0.134358 -0.17225,0.285944 -0.24805,0.454753 -0.0724,0.165364 -0.12236,0.346233 -0.14986,0.542602 -0.0103,0.124023 0.0293,0.220488 0.11886,0.289388 0.093,0.0689 0.19637,0.110244 0.31006,0.124024 0.12057,0.01374 0.25149,0.01723 0.39274,0.01034 0.14125,-0.01033 0.27389,-0.03789 0.39791,-0.08268 0.12058,-0.04479 0.24115,-0.115414 0.36173,-0.211874 0.12057,-0.09646 0.24633,-0.229099 0.37724,-0.397908 0.0655,0.192925 0.1292,0.38413 0.1912,0.573608 0.062,0.18948 0.15848,0.363458 0.28939,0.521932 0.12403,0.151583 0.2825,0.277328 0.47542,0.377238 0.15473,0.07736 0.34629,0.112104 0.55863,0.12299 0.0177,0.0027 0.0318,0.01137 0.0512,0.01137 h 0.093 c 0.002,0 0.005,2e-6 0.007,0 10e-4,-2.6e-5 0.002,2.7e-5 0.003,0 h 0.093 c 0.007,0 0.0114,-0.0033 0.0181,-0.0036 0.11727,-0.0019 0.23465,-0.0041 0.36949,-0.01189 0.18259,-0.01378 0.36173,-0.03962 0.53743,-0.07751 0.1757,-0.0379 0.33591,-0.09474 0.4806,-0.170532 0.14814,-0.07579 0.26353,-0.1757 0.34623,-0.299723 0.031,-0.04823 0.0568,-0.105072 0.0775,-0.170532 0.0241,-0.0689 0.043,-0.139524 0.0568,-0.211874 0.0138,-0.07579 0.024,-0.149858 0.031,-0.222208 0.007,-0.07235 0.0103,-0.137801 0.0103,-0.196371 0,-0.134358 -0.0172,-0.266995 -0.0517,-0.397908 -0.0345,-0.130913 -0.0827,-0.258383 -0.14469,-0.382406 -0.062,-0.124023 -0.13434,-0.242879 -0.21704,-0.356567 -0.0792,-0.113687 -0.16705,-0.218767 -0.26355,-0.315227 -0.0275,-0.03101 -0.0534,-0.04651 -0.0775,-0.04651 -0.0241,0 -0.0414,0.01895 -0.0517,0.05684 l -0.17053,0.72347 c 0.0654,0.06545 0.12744,0.13091 0.18604,0.19637 0.0586,0.06546 0.11543,0.134356 0.17053,0.206706 0.0517,0.0689 0.0982,0.141251 0.13953,0.217041 0.0448,0.07579 0.0844,0.158477 0.11885,0.248047 0.0167,0.04823 0.0237,0.08785 0.0207,0.118856 0,0.03101 -0.0189,0.05684 -0.0568,0.07751 -0.0689,0.04479 -0.16192,0.08096 -0.27905,0.108521 -0.11713,0.02411 -0.24977,0.04306 -0.39791,0.05684 -0.14469,0.01378 -0.29973,0.02411 -0.46509,0.03101 -0.16192,0.0035 -0.32556,0.0052 -0.49093,0.0052 h -0.0543 c -0.10861,-0.0029 -0.21675,-0.0086 -0.32297,-0.02584 -0.12402,-0.02411 -0.23944,-0.06718 -0.34624,-0.129191 -0.10679,-0.06201 -0.20495,-0.146417 -0.29455,-0.253214 -0.0861,-0.110243 -0.15678,-0.251493 -0.21188,-0.423747 -0.0345,-0.113688 -0.0775,-0.277332 -0.12919,-0.490926 -0.0482,-0.21704 -0.0982,-0.451309 -0.14986,-0.7028 -0.0482,-0.248046 -0.0947,-0.494372 -0.13952,-0.738973 -0.0448,-0.244601 -0.081,-0.453031 -0.10853,-0.625285 -0.004,-0.02065 -0.019,-0.03267 -0.0465,-0.03617 z m -0.0775,1.529622 c 0.0172,0.08268 0.031,0.155031 0.0413,0.217041 0.0138,0.05857 0.0259,0.113695 0.0362,0.165365 0.0138,0.05512 0.0259,0.108517 0.0362,0.160197 0.0137,0.05168 0.0275,0.111967 0.0413,0.180867 -0.0482,0.04134 -0.12919,0.08613 -0.24288,0.134359 -0.11369,0.04824 -0.23772,0.08785 -0.37207,0.118856 -0.13781,0.03445 -0.27561,0.05168 -0.41341,0.05168 -0.13436,0 -0.24973,-0.02928 -0.34623,-0.08785 -0.0345,-0.01722 -0.0293,-0.06029 0.0155,-0.129191 0.0758,-0.103353 0.15678,-0.196373 0.24288,-0.279052 0.0896,-0.08613 0.18604,-0.163644 0.28939,-0.232544 0.0999,-0.06546 0.2067,-0.122303 0.32039,-0.170533 0.11369,-0.04823 0.23082,-0.0913 0.3514,-0.129191 z m 0.8113,3.513998 c -0.004,-0.0069 -0.0207,-0.0052 -0.0517,0.0052 -0.17569,0.05857 -0.36,0.11713 -0.55293,0.1757 -0.18948,0.06201 -0.37207,0.12058 -0.54777,0.1757 -0.1757,0.05512 -0.33763,0.106799 -0.48576,0.155029 -0.14469,0.04823 -0.2618,0.08785 -0.3514,0.118856 -0.0172,0.0069 -0.031,0.01551 -0.0413,0.02584 -0.0103,0.01378 -0.0207,0.02928 -0.031,0.04651 l -0.21187,0.392741 c -0.0241,0.04828 -0.0104,0.06546 0.0413,0.05168 0.32384,-0.103353 0.64423,-0.210151 0.96118,-0.320394 0.32039,-0.106797 0.64252,-0.211874 0.96635,-0.315227 0.0173,-0.0035 0.0292,-0.01034 0.0362,-0.02067 0.0103,-0.0069 0.0207,-0.01723 0.031,-0.03101 l 0.22738,-0.413412 c 0.0102,-0.02067 0.0133,-0.03618 0.0103,-0.04651 z m 2.68718,0.05684 c -0.0207,-0.01723 -0.0413,-0.01206 -0.062,0.0155 l -0.42374,0.542602 -0.62012,-0.470255 c -0.0138,-0.01377 -0.0259,-0.02067 -0.0362,-0.02067 -0.0103,0 -0.0224,0.01034 -0.0362,0.03101 l -0.41858,0.594279 c -0.0173,0.02411 -0.0138,0.04478 0.0103,0.06201 l 0.65629,0.506429 c 0.0275,0.02067 0.0534,0.01551 0.0775,-0.0155 l 0.40308,-0.552938 0.61495,0.480591 c 0.0275,0.02074 0.0465,0.02934 0.0568,0.02584 0.0103,0 0.0241,-0.01034 0.0413,-0.03101 l 0.39274,-0.54777 c 0.0241,-0.03101 0.0241,-0.05512 0,-0.07235 z m -2.79053,0.89917 c -0.004,-0.0069 -0.0207,-0.0052 -0.0517,0.0052 -0.17569,0.05857 -0.36001,0.11713 -0.55294,0.1757 -0.18948,0.06201 -0.37207,0.12058 -0.54777,0.1757 -0.1757,0.05512 -0.33761,0.105072 -0.48575,0.149862 -0.14469,0.04823 -0.2618,0.08957 -0.3514,0.124023 -0.0172,0.0069 -0.031,0.01551 -0.0413,0.02584 -0.0103,0.01378 -0.0207,0.02928 -0.031,0.04651 l -0.21187,0.392741 c -0.0241,0.04828 -0.0104,0.06546 0.0413,0.05168 0.32383,-0.103353 0.64423,-0.210151 0.96118,-0.320394 0.32039,-0.110243 0.64251,-0.215317 0.96635,-0.315227 0.0173,-0.0035 0.0292,-0.01034 0.0362,-0.02067 0.0103,-0.0069 0.0207,-0.01723 0.031,-0.03101 l 0.22737,-0.413412 c 0.0102,-0.02067 0.0133,-0.03618 0.0103,-0.04651 z"
           inkscape:label="Aya" />
      </g>
      <g
         id="g40">
        <path
           id="text1"
           style="font-size:10.5833px;line-height:1.25;font-family:'KFGQPC Uthmanic Script HAFS';-inkscape-font-specification:'KFGQPC Uthmanic Script HAFS';stroke-width:0.264583"
           d="m 163.1515,20.936885 c -0.0835,-0.0069 -0.17587,-0.0043 -0.2775,0.0078 -0.19981,0.02067 -0.39275,0.09302 -0.57878,0.217041 -0.16881,0.110243 -0.31522,0.23599 -0.43925,0.377238 -0.12057,0.137803 -0.22219,0.280776 -0.30489,0.428915 -0.0827,0.144693 -0.1464,0.285943 -0.1912,0.423746 -0.0414,0.137803 -0.0653,0.260106 -0.0724,0.366903 -0.007,0.134359 0.0258,0.253215 0.0982,0.356567 0.0758,0.103351 0.15501,0.186037 0.23771,0.248047 0.0172,0.01033 0.0361,0.02239 0.0568,0.03617 0.0241,0.01033 0.0448,-0.0052 0.062,-0.04651 0.0138,-0.03101 0.0259,-0.06374 0.0362,-0.09819 0.0103,-0.03445 0.0207,-0.0689 0.031,-0.103353 0.007,-0.02067 0.0103,-0.04134 0.0103,-0.06201 0,-0.02411 -0.009,-0.04651 -0.0258,-0.06718 -0.0207,-0.02067 -0.0465,-0.04479 -0.0775,-0.07235 -0.0276,-0.02756 -0.0552,-0.05512 -0.0827,-0.08268 -0.0275,-0.03101 -0.0516,-0.06029 -0.0724,-0.08785 -0.0208,-0.03101 -0.0332,-0.05857 -0.0362,-0.08268 -0.0138,-0.192925 0.0327,-0.377239 0.13952,-0.552938 0.11024,-0.179144 0.24461,-0.33762 0.40308,-0.475423 0.0827,-0.07234 0.17915,-0.134355 0.28939,-0.186035 0.11025,-0.05512 0.2222,-0.09646 0.33589,-0.124023 0.11713,-0.03103 0.22911,-0.04484 0.3359,-0.04134 0.1068,0 0.19808,0.02067 0.27388,0.06201 0.0448,0.02411 0.0827,0.06029 0.11369,0.108521 0.0345,0.04823 0.0603,0.09991 0.0775,0.155029 0.0208,0.05168 0.0332,0.105077 0.0362,0.160197 0.007,0.05167 0.005,0.09474 -0.005,0.129191 -0.0105,0.03099 -0.009,0.04818 0.005,0.05168 0.0172,0 0.0327,-0.01034 0.0465,-0.03101 0.0517,-0.07579 0.0878,-0.161923 0.10852,-0.258382 0.0205,-0.09991 0.0224,-0.194651 0.005,-0.284221 -0.0138,-0.09302 -0.0465,-0.177424 -0.0982,-0.253214 -0.0517,-0.07579 -0.12404,-0.132643 -0.21704,-0.170533 -0.0654,-0.02583 -0.14021,-0.0422 -0.22376,-0.04909 z m -0.24649,0.922424 c -0.0965,0 -0.18435,0.02412 -0.26355,0.07235 -0.0792,0.04479 -0.15154,0.10335 -0.21704,0.1757 -0.0655,0.07235 -0.124,0.151582 -0.1757,0.237712 -0.0482,0.08613 -0.0895,0.170534 -0.12403,0.253214 -0.0167,0.04134 -0.0237,0.09129 -0.0207,0.149862 0.004,0.05512 0.0241,0.103354 0.062,0.144694 0.0689,0.07235 0.14988,0.1378 0.24288,0.19637 0.0965,0.05512 0.19122,0.09646 0.28422,0.124024 -0.0999,0.09991 -0.20843,0.19465 -0.32556,0.28422 -0.11713,0.08957 -0.23599,0.173975 -0.35657,0.253215 -0.12402,0.08268 -0.24804,0.161921 -0.37207,0.237711 -0.12402,0.07234 -0.24287,0.141246 -0.35656,0.206706 -0.062,0.04135 -0.1051,0.07407 -0.12919,0.09818 -0.0275,0.02411 -0.0224,0.04478 0.0155,0.06201 0.0138,0.0069 0.0362,0.01033 0.0672,0.01033 0.031,0 0.0637,-0.0017 0.0982,-0.0052 0.038,-0.0069 0.0724,-0.01551 0.10336,-0.02584 0.0345,-0.01034 0.062,-0.02068 0.0827,-0.03101 0.15847,-0.06201 0.30662,-0.125743 0.44441,-0.191202 0.13781,-0.06546 0.26873,-0.137802 0.39275,-0.217041 0.12403,-0.08268 0.24116,-0.172258 0.3514,-0.268718 0.11369,-0.09991 0.22564,-0.213597 0.33589,-0.341064 0.0103,0.01033 0.0258,0.02411 0.0465,0.04134 0.0207,0.01722 0.0396,0.03617 0.0568,0.05684 0.0207,0.03101 0.0448,0.04651 0.0723,0.04651 0.0276,0 0.05,-0.0155 0.0672,-0.04651 0.0241,-0.03789 0.0448,-0.08957 0.062,-0.155029 0.0172,-0.0689 0.0172,-0.125743 0,-0.170533 -0.0103,-0.02756 -0.0241,-0.05168 -0.0413,-0.07235 -0.0173,-0.02067 -0.0448,-0.04134 -0.0827,-0.06201 -0.031,-0.01378 -0.0465,-0.02756 -0.0465,-0.04134 0.0138,-0.04823 0.0259,-0.129192 0.0362,-0.242879 0.014,-0.113688 0.0155,-0.227376 0.005,-0.341064 -0.0103,-0.117133 -0.0396,-0.218761 -0.0878,-0.304891 -0.0448,-0.08957 -0.12057,-0.134359 -0.22737,-0.134359 z m -0.13953,0.454753 c 0.0518,-0.0034 0.0914,0.0069 0.11886,0.03101 0.031,0.03101 0.0517,0.07235 0.062,0.124023 0.0105,0.04823 0.015,0.09819 0.015,0.149862 0,0.04823 -0.003,0.09302 -0.01,0.134358 -0.008,0.03789 -0.0125,0.06028 -0.0155,0.06718 h -0.0103 c -0.0758,-0.02067 -0.16365,-0.05684 -0.26355,-0.108521 -0.0999,-0.05168 -0.18432,-0.124021 -0.25322,-0.217041 0.0103,-0.02067 0.0345,-0.04479 0.0724,-0.07235 0.0414,-0.02756 0.0862,-0.05168 0.13436,-0.07235 0.0517,-0.02065 0.10166,-0.03267 0.14986,-0.03617 z m 7.61659,-0.361735 -0.1912,0.361735 c 0.003,0.0069 0.012,0.03101 0.0258,0.07235 0.0173,0.03789 0.0292,0.07407 0.0362,0.10852 0.0105,0.03445 0.0177,0.06718 0.0207,0.09819 0.004,0.031 0.002,0.04995 -0.005,0.05684 -0.0586,0.04823 -0.1275,0.08268 -0.2067,0.103353 -0.0758,0.0207 -0.13774,0.02583 -0.18604,0.0155 -0.093,-0.02067 -0.15504,-0.05857 -0.18604,-0.113688 -0.031,-0.05857 -0.0465,-0.137802 -0.0465,-0.237711 v -0.04651 c 0,-0.02412 -0.002,-0.04824 -0.005,-0.07235 -0.004,-0.02411 -0.008,-0.04478 -0.0155,-0.06201 -0.004,-0.02067 -0.0104,-0.03101 -0.0207,-0.03101 -0.0482,0 -0.0827,0.02239 -0.10335,0.06718 -0.0208,0.04479 -0.0332,0.08957 -0.0362,0.134358 -0.007,0.05168 -0.0206,0.117131 -0.0413,0.196371 -0.0207,0.07924 -0.0534,0.1447 -0.0982,0.19637 -0.0482,0.05512 -0.0964,0.09991 -0.14469,0.134359 -0.0447,0.03101 -0.0964,0.05857 -0.15503,0.08268 -0.0551,0.02409 -0.11193,0.03784 -0.17053,0.04134 -0.0586,0 -0.11367,-0.01895 -0.16537,-0.05684 -0.0345,-0.03101 -0.0569,-0.06374 -0.0672,-0.09819 -0.0105,-0.03445 -0.0155,-0.07579 -0.0155,-0.124023 0.004,-0.05168 0.0104,-0.10336 0.0207,-0.15503 0.0138,-0.05168 0.031,-0.09647 0.0517,-0.134358 0.0345,-0.06548 0.0315,-0.09652 -0.01,-0.09302 -0.0414,0.01378 -0.0815,0.04479 -0.11937,0.09302 -0.0345,0.04478 -0.065,0.09819 -0.0925,0.160196 -0.0275,0.06546 -0.0482,0.136084 -0.062,0.211874 -0.0133,0.07235 -0.0173,0.142973 -0.0103,0.211873 0.0138,0.155027 0.062,0.263552 0.14469,0.325562 0.0861,0.06203 0.18604,0.09135 0.29973,0.08785 0.14125,-0.0034 0.26355,-0.04478 0.3669,-0.124024 0.0964,-0.07572 0.18263,-0.189179 0.25838,-0.340547 0.0516,0.07549 0.12032,0.133954 0.20619,0.175183 0.0861,0.04134 0.19292,0.04995 0.32039,0.02584 0.14469,-0.02756 0.2515,-0.09302 0.3204,-0.196371 0.0723,-0.103352 0.12923,-0.218764 0.17053,-0.346232 0.0103,-0.05168 0.0188,-0.115413 0.0258,-0.191202 0.007,-0.07579 0.007,-0.149859 0,-0.222209 -0.004,-0.07579 -0.0155,-0.142968 -0.0362,-0.201538 -0.0172,-0.05857 -0.043,-0.09646 -0.0775,-0.113688 z m 2.66702,0.511596 c -0.31695,0.155029 -0.86128,0.420304 -1.63298,0.795817 -0.77168,0.375514 -1.31258,0.644234 -1.62264,0.806153 -0.35829,0.189479 -0.76308,0.422025 -1.21439,0.697632 -0.44786,0.272161 -0.76309,0.520209 -0.94568,0.74414 -0.0448,0.07235 -0.0896,0.167088 -0.13436,0.284221 -0.0413,0.117132 -0.0741,0.234266 -0.0982,0.351399 -0.0241,0.117133 -0.0362,0.223934 -0.0362,0.320394 0,0.09301 0.019,0.155025 0.0568,0.186035 l 1.35909,1.090373 c 0.54777,0.468532 0.90606,0.828547 1.07487,1.080038 0.17222,0.248045 0.28243,0.451308 0.33073,0.609781 -0.17225,0.130917 -0.38585,0.229106 -0.64079,0.294556 -0.25493,0.06201 -0.51505,0.105081 -0.78032,0.129191 -0.26871,0.02411 -0.52538,0.03617 -0.76998,0.03617 -0.19249,-0.0028 -0.33278,-0.0036 -0.46767,-0.0041 -0.009,-7.22e-4 -0.0143,-0.0062 -0.0232,-0.0062 h -0.0982 c -0.20671,0 -0.39273,-0.02239 -0.5581,-0.06718 -0.16192,-0.04823 -0.28941,-0.108518 -0.38241,-0.180867 -0.093,-0.07235 -0.1619,-0.15331 -0.2067,-0.24288 -0.0448,-0.08957 -0.0672,-0.179147 -0.0672,-0.268717 0,-0.04823 0.003,-0.101627 0.0103,-0.160197 0.0102,-0.05857 0.0133,-0.108522 0.0103,-0.149862 -0.004,-0.02074 -0.0259,-0.02934 -0.0672,-0.02584 -0.0379,0.0035 -0.0655,0.02756 -0.0827,0.07235 -0.0413,0.110243 -0.0844,0.208426 -0.1292,0.294556 -0.0413,0.08613 -0.0965,0.170534 -0.16536,0.253214 -0.093,0.113691 -0.19465,0.203268 -0.30489,0.268718 -0.11024,0.06201 -0.22221,0.108516 -0.3359,0.139526 -0.11713,0.031 -0.24289,0.04994 -0.37724,0.05684 -0.13091,0.0069 -0.24976,0.01034 -0.35656,0.01034 h -0.0594 c -0.10862,-0.0029 -0.21675,-0.0086 -0.32298,-0.02584 -0.12402,-0.02411 -0.23943,-0.06718 -0.34623,-0.129191 -0.10679,-0.06201 -0.20496,-0.146417 -0.29456,-0.253214 -0.0861,-0.110243 -0.15677,-0.251493 -0.21187,-0.423747 -0.0345,-0.113688 -0.0775,-0.277332 -0.12919,-0.490926 -0.0482,-0.21704 -0.0982,-0.451309 -0.14986,-0.7028 -0.0482,-0.248046 -0.0947,-0.494372 -0.13953,-0.738973 -0.0448,-0.244601 -0.081,-0.453031 -0.10852,-0.625285 -0.004,-0.02065 -0.019,-0.03267 -0.0465,-0.03617 -0.0241,-0.0069 -0.043,0.0052 -0.0568,0.03617 h -5.2e-4 l -0.0465,0.124024 c -0.0207,0.05512 -0.0413,0.11369 -0.062,0.1757 -0.0172,0.05857 -0.0327,0.115412 -0.0465,0.170532 -0.0133,0.05512 -0.0173,0.09646 -0.0103,0.124023 0.0138,0.06201 0.0264,0.129189 0.0367,0.201538 0.0138,0.0689 0.024,0.124025 0.031,0.165365 -0.14469,0.05857 -0.27905,0.118858 -0.40307,0.180868 -0.12058,0.06201 -0.23255,0.130915 -0.3359,0.206705 -0.20671,0.144694 -0.38068,0.318672 -0.52193,0.521932 -0.0896,0.134358 -0.17225,0.285944 -0.24805,0.454753 -0.0724,0.165364 -0.12236,0.346233 -0.14986,0.542602 -0.0103,0.124023 0.0293,0.220488 0.11886,0.289388 0.093,0.0689 0.19636,0.110244 0.31005,0.124024 0.12058,0.01374 0.25149,0.01723 0.39274,0.01034 0.14125,-0.01033 0.27389,-0.03789 0.39791,-0.08268 0.12058,-0.04479 0.24116,-0.115414 0.36174,-0.211874 0.12057,-0.09646 0.24633,-0.229099 0.37724,-0.397908 0.0655,0.192925 0.1292,0.38413 0.1912,0.573608 0.062,0.18948 0.15848,0.363458 0.28939,0.521932 0.12403,0.151583 0.2825,0.277328 0.47542,0.377238 0.15729,0.07864 0.35214,0.114076 0.56896,0.124024 0.016,0.0024 0.0285,0.01034 0.046,0.01034 h 0.093 0.003 c 9.3e-4,-2.2e-5 0.002,2.3e-5 0.003,0 h 0.0925 c 0.0251,0 0.0439,-0.0097 0.0661,-0.01395 0.10524,-0.0062 0.21005,-0.0092 0.31678,-0.02739 0.16192,-0.03101 0.30661,-0.07924 0.43408,-0.144694 0.12403,-0.06546 0.23771,-0.149863 0.34106,-0.253215 0.10335,-0.103353 0.19292,-0.232544 0.26872,-0.387573 0.12747,0.268716 0.30489,0.471978 0.53227,0.609782 0.11713,0.07235 0.25839,0.127475 0.42375,0.165365 0.11193,0.02284 0.23344,0.02641 0.35295,0.03411 0.0266,0.0065 0.0502,0.01757 0.0811,0.01757 h 0.093 0.005 5.1e-4 0.0982 c 0.002,0 0.003,-0.001 0.004,-0.001 0.12521,-5.27e-4 0.26066,-0.0013 0.45579,-0.0041 0.2446,-0.0069 0.50299,-0.02756 0.77515,-0.06201 0.26872,-0.03445 0.53055,-0.08957 0.78548,-0.165365 0.25839,-0.07579 0.46681,-0.182591 0.62528,-0.320394 0.12403,-0.110243 0.20675,-0.24288 0.24805,-0.397908 0.0445,-0.155029 0.0603,-0.311782 0.0465,-0.470256 -0.0103,-0.161919 -0.0413,-0.313504 -0.093,-0.454752 -0.0517,-0.141248 -0.11197,-0.249772 -0.18087,-0.325562 0.11024,0.08613 0.2291,0.191203 0.35657,0.315226 0.13091,0.120578 0.26872,0.249771 0.41341,0.387573 0.14469,0.134359 0.29456,0.273887 0.44959,0.41858 0.15847,0.141248 0.32039,0.273885 0.48575,0.397908 0.15159,0.117133 0.29973,0.218761 0.44442,0.304891 0.14469,0.08613 0.29283,0.156753 0.44442,0.211873 0.15158,0.05512 0.31005,0.09646 0.47542,0.124024 0.12379,0.02063 0.26502,0.02582 0.40618,0.03101 0.0169,0.0023 0.0296,0.01034 0.0481,0.01034 h 0.0884 0.005 0.0884 c 0.037,0 0.0657,-0.01136 0.0961,-0.02067 0.33165,-0.02225 0.62134,-0.09487 0.84388,-0.248046 0.26871,-0.182589 0.47025,-0.470258 0.60461,-0.862997 0.11713,0.08268 0.24288,0.155031 0.37724,0.217041 0.13436,0.06202 0.27044,0.115407 0.40824,0.160197 0.13781,0.04479 0.298,0.08613 0.48059,0.124024 0.18259,0.03445 0.34278,0.02929 0.48059,-0.0155 0.0689,-0.03101 0.12574,-0.07579 0.17054,-0.134359 0.0483,-0.06201 0.0862,-0.129188 0.11368,-0.201538 0.031,-0.07579 0.0534,-0.153304 0.0672,-0.232544 0.0138,-0.08268 0.024,-0.160194 0.031,-0.232544 0.007,-0.117133 -0.0167,-0.265273 -0.0718,-0.444417 -0.0517,-0.179144 -0.12404,-0.353124 -0.21704,-0.521932 -0.0896,-0.168809 -0.19465,-0.315227 -0.31523,-0.43925 -0.12058,-0.12403 -0.2446,-0.189471 -0.37207,-0.19637 -0.0792,-0.0035 -0.16018,0.01895 -0.24288,0.06718 -0.0792,0.04479 -0.15674,0.101632 -0.23254,0.170532 -0.0724,0.0689 -0.13954,0.142969 -0.20154,0.222209 -0.0621,0.07924 -0.11196,0.151591 -0.14986,0.217041 -0.0999,0.175699 -0.19462,0.35829 -0.28422,0.54777 -0.0861,0.186034 -0.17915,0.372071 -0.27905,0.558105 -0.0551,0.103351 -0.13265,0.186037 -0.23255,0.248047 -0.0965,0.05857 -0.20671,0.103349 -0.33073,0.134359 -0.12402,0.03101 -0.25837,0.05168 -0.40307,0.06201 -0.14125,0.0069 -0.28423,0.01033 -0.42892,0.01033 h -0.005 c -0.21015,0 -0.39103,-0.01206 -0.54261,-0.03617 -0.14814,-0.02412 -0.28594,-0.06374 -0.41341,-0.118856 -0.12403,-0.05512 -0.24805,-0.125744 -0.37207,-0.211874 -0.12058,-0.08613 -0.26183,-0.18948 -0.42375,-0.310058 -0.14814,-0.113687 -0.30834,-0.239435 -0.48059,-0.377238 -0.16881,-0.137804 -0.33589,-0.275609 -0.50126,-0.413412 -0.16536,-0.141248 -0.32383,-0.275608 -0.47542,-0.403076 -0.15158,-0.127469 -0.28767,-0.237709 -0.40825,-0.330729 -0.39273,-0.299722 -0.78548,-0.575332 -1.17822,-0.826823 -0.39274,-0.251491 -0.79754,-0.511597 -1.21439,-0.780314 0,-0.03789 0.0172,-0.08957 0.0517,-0.155029 0.0379,-0.06546 0.0982,-0.129193 0.18087,-0.191203 0.0999,-0.0689 0.2067,-0.141251 0.32039,-0.217041 0.11713,-0.07924 0.37035,-0.22221 0.75965,-0.428915 0.38929,-0.210149 0.7407,-0.391018 1.0542,-0.542602 0.26872,-0.127468 0.71314,-0.334176 1.33325,-0.620117 0.62356,-0.285942 1.06971,-0.490927 1.33842,-0.61495 0.0482,-0.120578 0.0964,-0.251492 0.14469,-0.392741 0.0482,-0.141249 0.0895,-0.277331 0.12403,-0.408244 0.007,-0.01723 0.007,-0.02927 0,-0.03617 -0.007,-0.0069 -0.0172,-0.0087 -0.031,-0.0052 z m -10.54199,5.519043 c 0.0172,0.08268 0.031,0.155031 0.0413,0.217041 0.0138,0.05857 0.0259,0.113695 0.0362,0.165365 0.0138,0.05512 0.0259,0.108517 0.0362,0.160197 0.0137,0.05168 0.0275,0.111967 0.0413,0.180867 -0.0482,0.04134 -0.12919,0.08613 -0.24288,0.134359 -0.11369,0.04824 -0.23772,0.08785 -0.37207,0.118856 -0.13781,0.03445 -0.27561,0.05168 -0.41341,0.05168 -0.13436,0 -0.24974,-0.02928 -0.34624,-0.08785 -0.0345,-0.01722 -0.0293,-0.06029 0.0155,-0.129191 0.0758,-0.103353 0.15678,-0.196373 0.24288,-0.279052 0.0896,-0.08613 0.18603,-0.163644 0.28938,-0.232544 0.0999,-0.06546 0.20671,-0.122303 0.3204,-0.170533 0.11369,-0.04823 0.23083,-0.0913 0.3514,-0.129191 z m 13.77177,0.449585 c 0.12402,-0.0069 0.22736,0.02756 0.31006,0.103353 0.0862,0.07579 0.15854,0.156749 0.21704,0.242879 0.0103,0.01723 0.0288,0.05168 0.0563,0.103353 0.0276,0.04823 0.0552,0.09991 0.0827,0.15503 0.0276,0.05512 0.05,0.106799 0.0672,0.155029 0.0207,0.04479 0.0282,0.07235 0.0212,0.08268 -0.11369,0 -0.22737,-0.0069 -0.34106,-0.02067 -0.11369,-0.01378 -0.22393,-0.03617 -0.33073,-0.06718 -0.1068,-0.03101 -0.21016,-0.07235 -0.31006,-0.124023 -0.0999,-0.05168 -0.19295,-0.115413 -0.27905,-0.191203 0.0345,-0.09991 0.0999,-0.194651 0.19637,-0.28422 0.0965,-0.09302 0.19981,-0.1447 0.31006,-0.15503 z m -9.37152,-5.376933 c -0.009,-0.0069 -0.0267,-0.0043 -0.0543,0.0078 l -1.88619,0.837158 c -0.0172,0.01033 -0.0362,0.02239 -0.0568,0.03617 -0.0173,0.01033 -0.0345,0.02928 -0.0517,0.05684 l -0.25322,0.506429 c -0.0103,0.02067 -0.0103,0.03618 0,0.04651 0.0103,0.01033 0.0276,0.01033 0.0517,0 0.1068,-0.04479 0.23598,-0.101633 0.38757,-0.170533 0.15158,-0.0689 0.31523,-0.142968 0.49093,-0.222208 0.1757,-0.07924 0.35657,-0.161917 0.5426,-0.248047 0.18933,-0.08606 0.36996,-0.168864 0.54208,-0.248047 0.0379,-0.01723 0.0626,-0.04134 0.0729,-0.07235 l 0.21187,-0.480591 c 0.0103,-0.02584 0.0112,-0.0422 0.003,-0.04909 z m 9.9627,1.2299 c -0.009,-0.0069 -0.0267,-0.0043 -0.0543,0.0078 l -1.88618,0.837158 c -0.0172,0.01033 -0.0356,0.02239 -0.0563,0.03617 -0.0173,0.01033 -0.0345,0.02928 -0.0517,0.05684 l -0.25321,0.506429 c -0.0103,0.02067 -0.0103,0.03618 0,0.04651 0.0103,0.01033 0.0276,0.01033 0.0517,0 0.1068,-0.04479 0.236,-0.101633 0.38758,-0.170533 0.15159,-0.0689 0.31522,-0.142968 0.49092,-0.222208 0.1757,-0.07924 0.35658,-0.161917 0.54261,-0.248047 0.18933,-0.08606 0.36995,-0.168864 0.54208,-0.248047 0.0379,-0.01723 0.0626,-0.04134 0.0729,-0.07235 l 0.21188,-0.480591 c 0.0104,-0.02584 0.0107,-0.0422 0.002,-0.04909 z m -13.99088,0.374654 c -0.0207,-0.01723 -0.0413,-0.01206 -0.062,0.0155 l -0.42375,0.542602 -0.62012,-0.470255 c -0.0138,-0.01377 -0.0259,-0.02067 -0.0362,-0.02067 -0.0103,0 -0.0224,0.01034 -0.0362,0.03101 l -0.41858,0.594279 c -0.0173,0.02411 -0.0138,0.04478 0.0103,0.06201 l 0.65629,0.506429 c 0.0275,0.02067 0.0534,0.01551 0.0775,-0.0155 l 0.40307,-0.552938 0.61495,0.480591 c 0.0275,0.02067 0.0465,0.03101 0.0568,0.03101 0.0103,-0.0034 0.0241,-0.0155 0.0413,-0.03617 l 0.39274,-0.54777 c 0.0241,-0.03101 0.0241,-0.05512 0,-0.07235 z m 3.74085,0.0052 -0.1912,0.361735 c 0.003,0.0069 0.012,0.03101 0.0258,0.07235 0.0173,0.03789 0.0292,0.07407 0.0362,0.108521 0.0105,0.03445 0.0177,0.06718 0.0207,0.09819 0.004,0.031 0.002,0.04994 -0.005,0.05684 -0.0586,0.04823 -0.12751,0.08268 -0.20671,0.103353 -0.0758,0.0207 -0.13773,0.02583 -0.18603,0.0155 -0.093,-0.02067 -0.15504,-0.05857 -0.18604,-0.113688 -0.031,-0.05857 -0.0465,-0.137802 -0.0465,-0.237712 v -0.04651 c 0,-0.02412 -0.002,-0.04824 -0.005,-0.07235 -0.004,-0.02411 -0.008,-0.04478 -0.0155,-0.06201 -0.004,-0.02067 -0.0104,-0.03101 -0.0207,-0.03101 -0.0482,0 -0.0827,0.02239 -0.10335,0.06718 -0.0208,0.04479 -0.0332,0.08957 -0.0362,0.134359 -0.007,0.05168 -0.0206,0.11713 -0.0413,0.19637 -0.0207,0.07924 -0.0534,0.144701 -0.0982,0.196371 -0.0483,0.05512 -0.0965,0.09991 -0.1447,0.134359 -0.0448,0.03101 -0.0964,0.05857 -0.15503,0.08268 -0.0551,0.02409 -0.11193,0.03784 -0.17053,0.04134 -0.0586,0 -0.11366,-0.01895 -0.16536,-0.05684 -0.0345,-0.031 -0.0569,-0.06374 -0.0672,-0.09819 -0.0105,-0.03445 -0.0155,-0.07579 -0.0155,-0.124024 0.003,-0.05168 0.0104,-0.103359 0.0207,-0.155029 0.0138,-0.05168 0.031,-0.09647 0.0517,-0.134359 0.0345,-0.06548 0.0315,-0.09652 -0.01,-0.09302 -0.0414,0.01378 -0.081,0.04479 -0.11885,0.09302 -0.0345,0.04478 -0.0655,0.09819 -0.093,0.160197 -0.0275,0.06546 -0.0482,0.136084 -0.062,0.211874 -0.0133,0.07235 -0.0173,0.142973 -0.0103,0.211873 0.0138,0.155027 0.062,0.263552 0.1447,0.325561 0.0861,0.06203 0.18603,0.09135 0.29972,0.08785 0.14125,-0.0034 0.26355,-0.04478 0.3669,-0.124023 0.0964,-0.07572 0.18264,-0.189179 0.25839,-0.340548 0.0516,0.07549 0.12032,0.133954 0.20618,0.175183 0.0861,0.04134 0.19293,0.04995 0.3204,0.02584 0.14469,-0.02756 0.25149,-0.09302 0.32039,-0.196371 0.0723,-0.103353 0.12923,-0.218764 0.17053,-0.346232 0.0103,-0.05168 0.0188,-0.115413 0.0258,-0.191203 0.007,-0.07579 0.007,-0.149858 0,-0.222208 -0.004,-0.07579 -0.0155,-0.142969 -0.0362,-0.201538 -0.0172,-0.05857 -0.043,-0.09646 -0.0775,-0.113689 z m -0.33021,6.924642 c -0.0207,-0.01723 -0.0413,-0.01206 -0.062,0.0155 l -0.42375,0.542603 -0.62011,-0.470256 c -0.0138,-0.01377 -0.0259,-0.02067 -0.0362,-0.02067 -0.0103,0 -0.0224,0.01034 -0.0362,0.03101 l -0.41858,0.594278 c -0.0173,0.02411 -0.0138,0.04478 0.0103,0.06201 l 0.65629,0.506429 c 0.0275,0.02067 0.0534,0.01551 0.0775,-0.0155 l 0.40308,-0.552938 0.61495,0.480591 c 0.0275,0.02074 0.0465,0.02934 0.0568,0.02584 0.0103,0 0.0241,-0.01034 0.0413,-0.03101 l 0.39274,-0.547771 c 0.0241,-0.03101 0.0241,-0.05512 0,-0.07235 z m 4.29431,0.08268 c -0.007,-0.0034 -0.0242,5e-6 -0.0517,0.01033 -0.16881,0.05168 -0.34623,0.106795 -0.53227,0.165364 -0.18603,0.05857 -0.36863,0.115413 -0.54777,0.170533 -0.1757,0.05857 -0.33934,0.111967 -0.49093,0.160197 -0.15158,0.05167 -0.2739,0.09474 -0.3669,0.129191 -0.0207,0.0069 -0.0362,0.01551 -0.0465,0.02584 -0.007,0.01033 -0.0155,0.02584 -0.0258,0.04651 l -0.21187,0.392741 c -0.0276,0.05168 -0.0138,0.06891 0.0413,0.05168 0.29973,-0.09646 0.61323,-0.199816 0.94051,-0.310059 0.32728,-0.110242 0.65974,-0.218764 0.99736,-0.325561 0.0138,-0.0035 0.024,-0.01206 0.031,-0.02584 0.0103,-0.01033 0.0207,-0.02239 0.031,-0.03617 l 0.22221,-0.403076 c 0.0133,-0.02756 0.0173,-0.04478 0.0103,-0.05168 z"
           inkscape:label="Makkeyah" />
      </g>
      <g
         id="g41">
        <path
           id="path1"
           style="font-size:10.5833px;line-height:1.25;font-family:'KFGQPC Uthmanic Script HAFS';-inkscape-font-specification:'KFGQPC Uthmanic Script HAFS';stroke-width:0.264583"
           d="m 183.03143,20.936885 c -0.0836,-0.0069 -0.17588,-0.0043 -0.27751,0.0078 -0.19981,0.02067 -0.39274,0.09302 -0.57877,0.217041 -0.16881,0.110243 -0.31522,0.23599 -0.43925,0.377238 -0.12057,0.137803 -0.22219,0.280776 -0.30489,0.428915 -0.0827,0.144693 -0.14641,0.285943 -0.19121,0.423746 -0.0414,0.137803 -0.0653,0.260106 -0.0723,0.366903 -0.007,0.134359 0.0258,0.253215 0.0982,0.356567 0.0758,0.103351 0.15501,0.186037 0.23771,0.248047 0.0172,0.01033 0.0361,0.02239 0.0568,0.03617 0.0241,0.01033 0.0448,-0.0052 0.062,-0.04651 0.0138,-0.03101 0.0259,-0.06374 0.0362,-0.09819 0.0103,-0.03445 0.0207,-0.0689 0.031,-0.103353 0.007,-0.02067 0.0103,-0.04134 0.0103,-0.06201 0,-0.02411 -0.009,-0.04651 -0.0258,-0.06718 -0.0207,-0.02067 -0.0465,-0.04479 -0.0775,-0.07235 -0.0276,-0.02756 -0.0552,-0.05512 -0.0827,-0.08268 -0.0275,-0.03101 -0.0516,-0.06029 -0.0724,-0.08785 -0.0208,-0.03101 -0.0332,-0.05857 -0.0362,-0.08268 -0.0138,-0.192925 0.0327,-0.377239 0.13953,-0.552938 0.11024,-0.179144 0.2446,-0.33762 0.40307,-0.475423 0.0827,-0.07234 0.17915,-0.134355 0.28939,-0.186035 0.11025,-0.05512 0.22221,-0.09646 0.3359,-0.124023 0.11713,-0.03103 0.2291,-0.04484 0.33589,-0.04134 0.1068,0 0.19809,0.02067 0.27389,0.06201 0.0448,0.02411 0.0827,0.06029 0.11369,0.108521 0.0345,0.04823 0.0603,0.09991 0.0775,0.155029 0.0208,0.05168 0.0332,0.105077 0.0362,0.160197 0.007,0.05167 0.005,0.09474 -0.005,0.129191 -0.0105,0.03099 -0.009,0.04818 0.005,0.05168 0.0172,0 0.0327,-0.01034 0.0465,-0.03101 0.0517,-0.07579 0.0878,-0.161923 0.10852,-0.258382 0.0205,-0.09991 0.0224,-0.194651 0.005,-0.284221 -0.0138,-0.09302 -0.0465,-0.177424 -0.0982,-0.253214 -0.0517,-0.07579 -0.12404,-0.132643 -0.21704,-0.170533 -0.0655,-0.02583 -0.14022,-0.0422 -0.22376,-0.04909 z m -0.2465,0.922424 c -0.0965,0 -0.18435,0.02412 -0.26355,0.07235 -0.0792,0.04479 -0.15154,0.10335 -0.21704,0.1757 -0.0655,0.07235 -0.124,0.151582 -0.1757,0.237712 -0.0482,0.08613 -0.0895,0.170534 -0.12402,0.253214 -0.0167,0.04134 -0.0237,0.09129 -0.0207,0.149862 0.004,0.05512 0.0241,0.103354 0.062,0.144694 0.0689,0.07235 0.14988,0.1378 0.24288,0.19637 0.0965,0.05512 0.19122,0.09646 0.28422,0.124024 -0.0999,0.09991 -0.20844,0.19465 -0.32557,0.28422 -0.11713,0.08957 -0.23598,0.173975 -0.35656,0.253215 -0.12402,0.08268 -0.24804,0.161921 -0.37207,0.237711 -0.12402,0.07234 -0.24288,0.141246 -0.35657,0.206706 -0.062,0.04135 -0.10509,0.07407 -0.12919,0.09818 -0.0275,0.02411 -0.0224,0.04478 0.0155,0.06201 0.0138,0.0069 0.0362,0.01033 0.0672,0.01033 0.031,0 0.0637,-0.0017 0.0982,-0.0052 0.038,-0.0069 0.0724,-0.01551 0.10335,-0.02584 0.0345,-0.01034 0.062,-0.02068 0.0827,-0.03101 0.15847,-0.06201 0.30662,-0.125743 0.44442,-0.191202 0.13781,-0.06546 0.26872,-0.137802 0.39274,-0.217041 0.12403,-0.08268 0.24116,-0.172258 0.3514,-0.268718 0.11369,-0.09991 0.22565,-0.213597 0.3359,-0.341064 0.0103,0.01033 0.0258,0.02411 0.0465,0.04134 0.0207,0.01722 0.0397,0.03617 0.0568,0.05684 0.0207,0.03101 0.0449,0.04651 0.0724,0.04651 0.0276,0 0.05,-0.0155 0.0672,-0.04651 0.0241,-0.03789 0.0448,-0.08957 0.062,-0.155029 0.0172,-0.0689 0.0172,-0.125743 0,-0.170533 -0.0103,-0.02756 -0.0241,-0.05168 -0.0413,-0.07235 -0.0173,-0.02067 -0.0448,-0.04134 -0.0827,-0.06201 -0.031,-0.01378 -0.0465,-0.02756 -0.0465,-0.04134 0.0138,-0.04823 0.0259,-0.129192 0.0362,-0.242879 0.014,-0.113688 0.0155,-0.227376 0.005,-0.341064 -0.0104,-0.117133 -0.0396,-0.218761 -0.0878,-0.304891 -0.0448,-0.08957 -0.12058,-0.134359 -0.22738,-0.134359 z m -0.14004,0.454753 c 0.0518,-0.0034 0.0914,0.0069 0.11885,0.03101 0.031,0.03101 0.0517,0.07235 0.062,0.124023 0.0105,0.04823 0.0155,0.09819 0.0155,0.149862 0,0.04823 -0.003,0.09302 -0.0103,0.134358 -0.007,0.03789 -0.0125,0.06028 -0.0155,0.06718 h -0.01 c -0.0758,-0.02067 -0.16365,-0.05684 -0.26355,-0.108521 -0.0999,-0.05168 -0.18431,-0.124021 -0.25321,-0.217041 0.0104,-0.02062 0.0341,-0.04489 0.0718,-0.07235 0.0414,-0.02756 0.0862,-0.05168 0.13435,-0.07235 0.0517,-0.02065 0.10167,-0.03267 0.14987,-0.03617 z m 4.14186,0.741556 c -0.009,-0.0069 -0.0267,-0.0043 -0.0543,0.0078 l -1.88619,0.837158 c -0.0172,0.01033 -0.0361,0.02239 -0.0568,0.03617 -0.0173,0.01033 -0.0345,0.02928 -0.0517,0.05684 l -0.25321,0.506429 c -0.0103,0.02067 -0.0103,0.03618 0,0.04651 0.0103,0.01033 0.0276,0.01033 0.0517,0 0.1068,-0.04479 0.2365,-0.101633 0.38809,-0.170533 0.15158,-0.0689 0.31471,-0.142968 0.49041,-0.222208 0.1757,-0.07924 0.35658,-0.161917 0.54261,-0.248047 0.18948,-0.08613 0.37035,-0.168807 0.5426,-0.248047 0.0379,-0.01723 0.062,-0.04134 0.0724,-0.07235 l 0.21187,-0.480591 c 0.0104,-0.02584 0.0112,-0.0422 0.003,-0.04909 z m 7.25021,1.2299 c -0.009,-0.0069 -0.0267,-0.0043 -0.0543,0.0078 l -1.88619,0.837158 c -0.0172,0.01033 -0.0361,0.02239 -0.0568,0.03617 -0.0173,0.01033 -0.0345,0.02928 -0.0517,0.05684 l -0.25322,0.506429 c -0.0103,0.02067 -0.0103,0.03618 0,0.04651 0.0103,0.01033 0.0276,0.01033 0.0517,0 0.10679,-0.04479 0.23598,-0.101633 0.38757,-0.170533 0.15158,-0.0689 0.31523,-0.142968 0.49093,-0.222208 0.1757,-0.07924 0.35657,-0.161917 0.5426,-0.248047 0.18948,-0.08613 0.37034,-0.168807 0.5426,-0.248047 h 5.2e-4 c 0.0379,-0.01723 0.0615,-0.04134 0.0718,-0.07235 l 0.21187,-0.480591 c 0.0104,-0.02584 0.0112,-0.0422 0.003,-0.04909 z m 4.51135,0 c -0.009,-0.0069 -0.0267,-0.0043 -0.0543,0.0078 l -1.88619,0.837158 c -0.0172,0.01033 -0.0361,0.02239 -0.0568,0.03617 -0.0173,0.01033 -0.0345,0.02928 -0.0517,0.05684 l -0.25322,0.506429 c -0.0103,0.02067 -0.0103,0.03618 0,0.04651 0.0103,0.01033 0.0276,0.01033 0.0517,0 0.1068,-0.04479 0.23599,-0.101633 0.38757,-0.170533 0.15159,-0.0689 0.31523,-0.142968 0.49093,-0.222208 0.1757,-0.07924 0.35657,-0.161917 0.5426,-0.248047 0.18948,-0.08613 0.37035,-0.168807 0.5426,-0.248047 0.0379,-0.01723 0.062,-0.04134 0.0724,-0.07235 l 0.21187,-0.480591 c 0.0104,-0.02584 0.0112,-0.0422 0.003,-0.04909 z m -15.78922,0.374654 c -0.0207,-0.01723 -0.0413,-0.01206 -0.062,0.0155 l -0.42375,0.542602 -0.62011,-0.470255 c -0.0138,-0.01377 -0.0259,-0.02067 -0.0362,-0.02067 -0.0103,0 -0.0224,0.01034 -0.0362,0.03101 l -0.41858,0.594279 c -0.0173,0.02411 -0.0138,0.04478 0.0103,0.06201 l 0.6563,0.506429 c 0.0275,0.02067 0.0534,0.01551 0.0775,-0.0155 l 0.40308,-0.552938 0.61495,0.480591 c 0.0275,0.02067 0.0465,0.03101 0.0568,0.03101 0.0103,-0.0034 0.0241,-0.0155 0.0413,-0.03617 l 0.39274,-0.54777 c 0.0241,-0.03101 0.0241,-0.05512 0,-0.07235 z m 3.74086,0.0052 -0.1912,0.361735 c 0.003,0.0069 0.012,0.03101 0.0258,0.07235 0.0173,0.03789 0.0292,0.07407 0.0362,0.108521 0.0105,0.03445 0.0177,0.06718 0.0207,0.09819 0.004,0.031 0.002,0.04994 -0.005,0.05684 -0.0586,0.04823 -0.12751,0.08268 -0.20671,0.103353 -0.0758,0.0207 -0.13773,0.02583 -0.18603,0.0155 -0.093,-0.02067 -0.15504,-0.05857 -0.18604,-0.113688 -0.031,-0.05857 -0.0465,-0.137802 -0.0465,-0.237712 v -0.04651 c 0,-0.02412 -0.002,-0.04824 -0.005,-0.07235 -0.004,-0.02411 -0.009,-0.04478 -0.0155,-0.06201 -0.004,-0.02067 -0.0104,-0.03101 -0.0207,-0.03101 -0.0482,0 -0.0827,0.02239 -0.10335,0.06718 -0.0208,0.04479 -0.0332,0.08957 -0.0362,0.134359 -0.007,0.05168 -0.0206,0.11713 -0.0413,0.19637 -0.0207,0.07924 -0.0534,0.144701 -0.0982,0.196371 -0.0483,0.05512 -0.0965,0.09991 -0.14469,0.134359 -0.0448,0.03101 -0.0964,0.05857 -0.15503,0.08268 -0.0552,0.02409 -0.11203,0.03784 -0.17053,0.04134 -0.0586,0 -0.11367,-0.01895 -0.16537,-0.05684 -0.0345,-0.031 -0.0569,-0.06374 -0.0672,-0.09819 -0.0105,-0.03445 -0.0155,-0.07579 -0.0155,-0.124024 0.003,-0.05168 0.0104,-0.103359 0.0207,-0.155029 0.0138,-0.05168 0.031,-0.09647 0.0517,-0.134359 0.0345,-0.06548 0.031,-0.09652 -0.0103,-0.09302 -0.0414,0.01378 -0.081,0.04479 -0.11886,0.09302 -0.0345,0.04478 -0.0655,0.09819 -0.093,0.160197 -0.0275,0.06546 -0.0482,0.136084 -0.062,0.211874 -0.0133,0.07235 -0.0168,0.142973 -0.01,0.211873 0.0138,0.155027 0.0615,0.263552 0.14417,0.325561 0.0861,0.06203 0.18655,0.09135 0.30024,0.08785 0.14125,-0.0034 0.26356,-0.04478 0.36691,-0.124023 0.0965,-0.07579 0.18206,-0.189481 0.25786,-0.341064 0.0517,0.07579 0.12061,0.134359 0.20671,0.175699 0.0861,0.04134 0.19292,0.04995 0.32039,0.02584 0.14469,-0.02756 0.2515,-0.09302 0.3204,-0.196371 0.0723,-0.103353 0.12923,-0.218764 0.17053,-0.346232 0.0103,-0.05168 0.0188,-0.115413 0.0258,-0.191203 0.007,-0.07579 0.007,-0.149858 0,-0.222208 -0.004,-0.07579 -0.0155,-0.142969 -0.0362,-0.201538 -0.0172,-0.05857 -0.043,-0.09646 -0.0775,-0.113689 z m 2.16679,0.821656 c -0.0129,0.0017 -0.0257,0.01033 -0.0377,0.02584 l -0.42892,0.527099 c -0.0275,0.03445 -0.0275,0.06374 0,0.08785 l 0.64079,0.5271 c 0.031,0.02756 0.0586,0.02411 0.0827,-0.01034 l 0.42375,-0.532268 c 0.0242,-0.03101 0.0223,-0.05857 -0.005,-0.08268 l -0.63562,-0.527099 c -0.0137,-0.01206 -0.0269,-0.01722 -0.0398,-0.0155 z m -6.20272,0.966349 c -0.0241,-0.0069 -0.0425,0.0052 -0.0563,0.03617 h -5.2e-4 l -0.0465,0.124024 c -0.0207,0.05512 -0.0413,0.11369 -0.062,0.1757 -0.0172,0.05857 -0.0327,0.115412 -0.0465,0.170532 -0.0133,0.05512 -0.0173,0.09646 -0.0103,0.124023 0.0138,0.06201 0.0259,0.129189 0.0362,0.201538 0.0138,0.0689 0.024,0.124025 0.031,0.165365 -0.14469,0.05857 -0.27906,0.118858 -0.40308,0.180868 -0.12058,0.06201 -0.23254,0.130915 -0.33589,0.206705 -0.20671,0.144694 -0.38069,0.318672 -0.52194,0.521932 -0.0896,0.134358 -0.17224,0.285944 -0.24804,0.454753 -0.0724,0.165364 -0.12236,0.346233 -0.14986,0.542602 -0.0103,0.124023 0.0292,0.220488 0.11885,0.289388 0.093,0.0689 0.19637,0.110244 0.31006,0.124024 0.12058,0.01374 0.25149,0.01723 0.39274,0.01034 0.14125,-0.01033 0.27389,-0.03789 0.39791,-0.08268 0.12058,-0.04479 0.24116,-0.115414 0.36173,-0.211874 0.12057,-0.09646 0.24633,-0.229099 0.37724,-0.397908 0.0655,0.192925 0.12921,0.38413 0.19121,0.573608 0.062,0.18948 0.15847,0.363458 0.28938,0.521932 0.12403,0.151583 0.28251,0.277328 0.47543,0.377238 0.15741,0.0787 0.35243,0.114124 0.56947,0.124024 0.016,0.0024 0.0285,0.01034 0.046,0.01034 h 0.093 0.002 c 9.3e-4,-2.2e-5 0.002,2.3e-5 0.003,0 h 0.093 c 0.025,0 0.0435,-0.0097 0.0656,-0.01395 0.1054,-0.0062 0.21039,-0.0092 0.31729,-0.02739 0.16191,-0.03101 0.30661,-0.07924 0.43408,-0.144694 0.12402,-0.06546 0.23772,-0.149863 0.34107,-0.253215 0.10335,-0.103353 0.19292,-0.232544 0.26872,-0.387573 0.12747,0.268716 0.30489,0.471978 0.53226,0.609782 0.11713,0.07235 0.25838,0.127475 0.42375,0.165365 0.11521,0.02351 0.24005,0.02767 0.36328,0.03514 0.0251,0.0058 0.0468,0.01654 0.076,0.01654 h 0.093 0.0982 c 0.005,0 0.009,-0.0029 0.0139,-0.0031 0.0769,-0.0015 0.14976,-0.0025 0.2496,-0.0072 0.14813,-0.0069 0.30489,-0.01894 0.47026,-0.03617 0.16881,-0.01723 0.34106,-0.03962 0.51676,-0.06718 0.1757,-0.02756 0.33934,-0.06373 0.49093,-0.108521 0.15503,-0.04478 0.29283,-0.09819 0.41341,-0.160197 0.12054,-0.06201 0.21012,-0.134361 0.26872,-0.217041 0.031,-0.04478 0.0563,-0.0999 0.077,-0.165364 0.0241,-0.0689 0.043,-0.139524 0.0568,-0.211874 0.0173,-0.07579 0.0292,-0.149858 0.0362,-0.222208 0.0105,-0.07579 0.0155,-0.142968 0.0155,-0.201538 -0.004,-0.130913 -0.0241,-0.261828 -0.062,-0.392741 -0.0345,-0.130913 -0.0827,-0.258383 -0.14469,-0.382406 -0.0586,-0.124023 -0.12917,-0.24288 -0.21187,-0.356567 -0.0827,-0.113688 -0.17055,-0.218767 -0.26355,-0.315226 -0.0653,-0.06526 -0.10621,-0.06834 -0.12351,-0.01034 -0.031,0.120578 -0.0637,0.24288 -0.0982,0.366903 -0.0311,0.124023 -0.0609,0.246325 -0.0884,0.366903 0.1447,0.144693 0.2744,0.29111 0.38809,0.439249 0.1171,0.144693 0.20495,0.311783 0.26355,0.501262 0.0173,0.05857 -0.003,0.103348 -0.062,0.134358 -0.062,0.03445 -0.15503,0.06546 -0.27906,0.09302 -0.12057,0.02411 -0.25838,0.04478 -0.41341,0.06201 -0.15158,0.01723 -0.31178,0.03101 -0.48059,0.04134 -0.16536,0.01033 -0.32383,0.01894 -0.47542,0.02584 -0.14814,0.0069 -0.28078,0.012 -0.39791,0.0155 h -0.14108 c -0.007,-4.89e-4 -0.0118,-0.0052 -0.0191,-0.0052 h -0.0982 c -0.2067,0 -0.39274,-0.02239 -0.55811,-0.06718 -0.16192,-0.04823 -0.2894,-0.108518 -0.3824,-0.180867 -0.093,-0.07235 -0.16191,-0.15331 -0.20671,-0.24288 -0.0448,-0.08957 -0.0672,-0.179147 -0.0672,-0.268717 0,-0.04823 0.003,-0.101627 0.0103,-0.160197 0.0102,-0.05857 0.0133,-0.108522 0.0103,-0.149862 -0.004,-0.02074 -0.0259,-0.02934 -0.0672,-0.02584 -0.0379,0.0035 -0.0655,0.02756 -0.0827,0.07235 -0.0413,0.110243 -0.0844,0.208426 -0.12919,0.294556 -0.0413,0.08613 -0.0965,0.170534 -0.16537,0.253214 -0.093,0.113691 -0.19465,0.203268 -0.30489,0.268718 -0.11025,0.06201 -0.2222,0.108516 -0.33589,0.139526 -0.11713,0.031 -0.24288,0.04994 -0.37724,0.05684 -0.13091,0.0069 -0.24978,0.01034 -0.35657,0.01034 h -0.0599 c -0.10862,-0.0029 -0.21676,-0.0086 -0.32298,-0.02584 -0.12402,-0.02411 -0.23943,-0.06718 -0.34623,-0.129191 -0.10679,-0.06201 -0.20496,-0.146417 -0.29456,-0.253214 -0.0861,-0.110243 -0.15677,-0.251493 -0.21187,-0.423747 -0.0345,-0.113688 -0.0775,-0.277332 -0.12919,-0.490926 -0.0482,-0.21704 -0.0982,-0.451309 -0.14987,-0.7028 -0.0482,-0.248046 -0.0947,-0.494372 -0.13952,-0.738973 -0.0448,-0.244601 -0.081,-0.453031 -0.10852,-0.625285 -0.004,-0.02065 -0.019,-0.03267 -0.0465,-0.03617 z m -0.077,1.529622 c 0.0172,0.08268 0.031,0.155031 0.0413,0.217041 0.0138,0.05857 0.0259,0.113695 0.0362,0.165365 0.0138,0.05512 0.0259,0.108517 0.0362,0.160197 0.0137,0.05168 0.0275,0.111967 0.0413,0.180867 -0.0482,0.04134 -0.12919,0.08613 -0.24288,0.134359 -0.11369,0.04824 -0.23772,0.08785 -0.37207,0.118856 -0.13781,0.03445 -0.27561,0.05168 -0.41341,0.05168 -0.13436,0 -0.24973,-0.02928 -0.34623,-0.08785 -0.0345,-0.01722 -0.0293,-0.06029 0.0155,-0.129191 0.0758,-0.103353 0.15678,-0.196373 0.24288,-0.279052 0.0896,-0.08613 0.18604,-0.163644 0.28939,-0.232544 0.0999,-0.06546 0.2067,-0.122303 0.32039,-0.170533 0.11369,-0.04823 0.23083,-0.0913 0.3514,-0.129191 z m 10.97039,-1.322916 c -0.031,0 -0.0517,0.02067 -0.062,0.06201 l -0.14986,0.604615 0.47542,1.720825 c -0.0586,0.124023 -0.16881,0.234269 -0.33073,0.330729 -0.15847,0.09302 -0.33762,0.168806 -0.53743,0.227376 -0.19981,0.06201 -0.4048,0.105081 -0.61495,0.129191 -0.21015,0.02412 -0.39619,0.02757 -0.55811,0.01034 -0.11025,-0.01034 -0.20502,-0.03446 -0.28422,-0.07235 -0.0793,-0.04134 -0.14987,-0.118857 -0.21187,-0.232544 -0.0103,-0.02067 -0.0258,-0.03101 -0.0465,-0.03101 -0.0172,0 -0.0305,0.01034 -0.0408,0.03101 -0.0276,0.06201 -0.05,0.137806 -0.0672,0.227376 -0.0137,0.08613 -0.0212,0.175698 -0.0212,0.268717 0,0.08957 0.0103,0.175703 0.031,0.258383 0.0241,0.08268 0.062,0.14814 0.11369,0.19637 0.0999,0.09301 0.24289,0.149862 0.42892,0.170532 0.18948,0.01723 0.38929,0.01034 0.59944,-0.02067 0.21359,-0.02756 0.43236,-0.07579 0.65629,-0.144694 0.22393,-0.07235 0.41858,-0.179146 0.58395,-0.320394 0.20326,-0.175699 0.34965,-0.397909 0.43925,-0.666626 0.10335,0.261826 0.2136,0.477146 0.33073,0.645955 0.12058,0.165364 0.24976,0.294554 0.38757,0.387573 0.14125,0.09646 0.29283,0.163649 0.45475,0.201539 0.11302,0.02354 0.23952,0.02768 0.3638,0.03514 0.025,0.0057 0.0464,0.01654 0.0755,0.01654 h 0.093 0.093 c 0.0394,0 0.071,-0.01167 0.10335,-0.02222 0.3262,-0.02358 0.61221,-0.09522 0.83199,-0.246496 0.26871,-0.182589 0.47025,-0.470258 0.60461,-0.862997 0.11713,0.08268 0.24288,0.155031 0.37724,0.217041 0.13436,0.06202 0.27045,0.115407 0.40825,0.160197 0.13781,0.04479 0.298,0.08613 0.48059,0.124024 0.18259,0.03445 0.34278,0.02929 0.48059,-0.0155 0.0689,-0.03101 0.12573,-0.07579 0.17053,-0.134359 0.0483,-0.06201 0.0862,-0.129188 0.11369,-0.201538 0.031,-0.07579 0.0534,-0.153304 0.0672,-0.232544 0.0138,-0.08268 0.024,-0.160194 0.031,-0.232544 0.007,-0.117133 -0.0172,-0.265273 -0.0723,-0.444417 -0.0517,-0.179144 -0.12404,-0.353124 -0.21704,-0.521932 -0.0896,-0.168809 -0.19465,-0.315227 -0.31523,-0.43925 -0.12058,-0.12403 -0.2446,-0.189471 -0.37207,-0.19637 -0.0792,-0.0035 -0.16018,0.01895 -0.24288,0.06718 -0.0792,0.04479 -0.15674,0.101632 -0.23254,0.170532 -0.0724,0.0689 -0.13954,0.142969 -0.20154,0.222209 -0.062,0.07924 -0.11196,0.151591 -0.14986,0.217041 -0.0999,0.175699 -0.19462,0.35829 -0.28422,0.54777 -0.0861,0.186034 -0.17916,0.372071 -0.27906,0.558105 -0.0551,0.103351 -0.13264,0.186037 -0.23254,0.248047 -0.0965,0.05857 -0.20671,0.103349 -0.33073,0.134359 -0.12403,0.03101 -0.25839,0.05168 -0.40308,0.06201 -0.14125,0.0069 -0.28422,0.01033 -0.42891,0.01033 -0.16881,0 -0.32211,-0.0155 -0.45992,-0.04651 -0.1378,-0.03101 -0.2601,-0.08268 -0.3669,-0.155029 -0.18259,-0.124023 -0.32729,-0.277331 -0.43409,-0.45992 -0.10335,-0.182589 -0.18948,-0.396187 -0.25838,-0.640788 l -0.5271,-1.865519 c -0.0103,-0.03789 -0.031,-0.05684 -0.062,-0.05684 z m 4.5992,1.772501 c 0.12402,-0.0069 0.22736,0.02756 0.31006,0.103353 0.0861,0.07579 0.15844,0.156749 0.21704,0.242879 0.0103,0.01723 0.0293,0.05168 0.0568,0.103353 0.0276,0.04823 0.0552,0.09991 0.0827,0.15503 0.0276,0.05512 0.05,0.106799 0.0672,0.155029 0.0207,0.04479 0.0277,0.07235 0.0207,0.08268 -0.11369,0 -0.22738,-0.0069 -0.34107,-0.02067 -0.11369,-0.01378 -0.22392,-0.03617 -0.33072,-0.06718 -0.1068,-0.03101 -0.21016,-0.07235 -0.31006,-0.124023 -0.0999,-0.05168 -0.19296,-0.115413 -0.27906,-0.191203 0.0345,-0.09991 0.0999,-0.194651 0.19637,-0.28422 0.0965,-0.09302 0.19981,-0.1447 0.31006,-0.15503 z m -11.78687,3.15743 c -0.0207,-0.01723 -0.0413,-0.01206 -0.062,0.0155 l -0.42374,0.542603 -0.62012,-0.470256 c -0.0138,-0.01377 -0.0259,-0.02067 -0.0362,-0.02067 -0.0103,0 -0.0224,0.01034 -0.0362,0.03101 l -0.41858,0.594278 c -0.0173,0.02411 -0.0138,0.04478 0.0103,0.06201 l 0.65629,0.506429 c 0.0275,0.02067 0.0534,0.01551 0.0775,-0.0155 l 0.40308,-0.552938 0.61495,0.480591 c 0.0275,0.02074 0.0465,0.02934 0.0568,0.02584 0.0103,0 0.0236,-0.01034 0.0408,-0.03101 l 0.39326,-0.547771 c 0.0241,-0.03101 0.0241,-0.05512 0,-0.07235 z m 3.77703,0.08268 c -0.007,-0.0034 -0.0242,5e-6 -0.0517,0.01033 -0.16881,0.05168 -0.34624,0.106795 -0.53227,0.165364 -0.18604,0.05857 -0.36863,0.115413 -0.54777,0.170533 -0.1757,0.05857 -0.33933,0.111967 -0.49092,0.160197 -0.15158,0.05167 -0.27391,0.09474 -0.36691,0.129191 -0.0207,0.0069 -0.0362,0.01551 -0.0465,0.02584 -0.007,0.01033 -0.015,0.02584 -0.0253,0.04651 l -0.21187,0.392741 c -0.0276,0.05168 -0.0143,0.06891 0.0408,0.05168 0.29973,-0.09646 0.61324,-0.199816 0.94052,-0.310059 0.32728,-0.110242 0.65973,-0.218764 0.99735,-0.325561 h 5.2e-4 c 0.0138,-0.0035 0.024,-0.01206 0.031,-0.02584 0.0103,-0.01033 0.0207,-0.02239 0.031,-0.03617 l 0.22221,-0.403076 c 0.0133,-0.02756 0.0168,-0.04478 0.01,-0.05168 z"
           inkscape:label="Madaniyah" />
      </g>
    </g>
  </g>
</svg>
