<?xml version="1.0" encoding="UTF-8" standalone="no"?>
<!-- Created with Inkscape (http://www.inkscape.org/) -->

<svg
   width="5.3734078mm"
   height="9.3577547mm"
   viewBox="0 0 5.3734081 9.3577544"
   version="1.1"
   id="svg1"
   xmlns="http://www.w3.org/2000/svg"
   xmlns:svg="http://www.w3.org/2000/svg">
  <defs
     id="defs1" />
  <g
     id="layer1"
     transform="translate(-183.09467,-59.835324)">
    <g
       id="g11"
       transform="translate(79.091734)">
      <g
         id="g1">
        <path
           id="path110"
           style="fill:#000000;fill-opacity:1;fill-rule:nonzero;stroke:none;stroke-width:0.145947"
           d="m 107.63973,65.252779 c 0,0.197028 -0.0379,0.448057 -0.11676,0.754545 -0.10216,0.391137 -0.21892,0.604219 -0.35319,0.639247 -0.0919,0.0015 -0.32254,-0.06276 -0.69325,-0.19265 -0.47578,-0.157623 -0.77059,-0.326921 -0.88443,-0.507895 -0.0146,-0.02335 -0.0234,-0.07589 -0.0234,-0.154703 0,-0.233515 0.0569,-0.534166 0.16929,-0.900492 0.11822,-0.382381 0.22622,-0.57503 0.32401,-0.57649 0.0978,0.0015 0.37654,0.124055 0.83773,0.369246 0.4933,0.268542 0.73995,0.458272 0.73995,0.569192 z" />
      </g>
    </g>
  </g>
</svg>
