<?xml version="1.0" encoding="UTF-8" standalone="no"?>
<!-- Created with Inkscape (http://www.inkscape.org/) -->

<svg
   width="5.3734078mm"
   height="9.3577547mm"
   viewBox="0 0 5.3734081 9.3577544"
   version="1.1"
   id="svg1"
   xmlns="http://www.w3.org/2000/svg"
   xmlns:svg="http://www.w3.org/2000/svg">
  <defs
     id="defs1" />
  <g
     id="layer1"
     transform="translate(-183.09467,-59.835324)">
    <g
       id="g11"
       transform="translate(0.09354384)">
      <g
         id="g2">
        <path
           id="path20"
           style="fill:#000000;fill-opacity:1;fill-rule:nonzero;stroke:none"
           d="m 0,0 c 0.11,1.8 -0.2,4.24 -0.94,7.31 -0.74,3.08 -1.39,4.61 -1.96,4.61 -0.31,0 -0.54,-0.61 -0.68,-1.85 C -3.82,6.74 -4.09,3.4 -4.37,0.05 c -0.56,-2.9 -2.57,-7.51 -6.01,-13.81 -1.34,-2.459999 -3.69,-6.17 -7.070001,-11.129999 C -19.52,-27.91 -20.91,-30.77 -21.620001,-33.490002 c -0.1,-0.439998 0.380001,-3.179996 1.43,-8.219997 0.140002,-0.620003 0.370001,-0.940003 0.680001,-0.950001 0.6,0.01 1.399999,0.959999 2.380001,2.849999 C -11.08,-30.700001 -7.6,-25.25 -6.69,-23.469999 -2.79,-16.01 -0.56,-8.18 0,0 Z"
           transform="matrix(0.14594677,0,0,0.14594677,187.36753,66.767091)" />
      </g>
    </g>
  </g>
</svg>
