<?xml version="1.0" encoding="UTF-8" standalone="no"?>
<!-- Created with Inkscape (http://www.inkscape.org/) -->

<svg
   width="5.3734078mm"
   height="9.3577547mm"
   viewBox="0 0 5.3734081 9.3577544"
   version="1.1"
   id="svg1"
   xmlns="http://www.w3.org/2000/svg"
   xmlns:svg="http://www.w3.org/2000/svg">
  <defs
     id="defs1" />
  <g
     id="layer1"
     transform="translate(-183.09467,-59.835324)">
    <g
       id="g11"
       transform="translate(17.773423)">
      <g
         id="g4">
        <path
           id="path40"
           style="fill:#000000;fill-opacity:1;fill-rule:nonzero;stroke:none"
           d="m 0,0 c 0,3.56 -0.79,7.03 -2.38,10.39 -1.72,3.66 -3.63,5.49 -5.75,5.48 -1.78,0.01 -3.1,-0.29 -3.95,-0.89 -0.88,-0.73 -1.76,-1.47 -2.64,-2.22 -0.66,1.49 -1.95,2.85 -3.87,4.07 -1.92,1.24 -3.49,1.780001 -4.719999,1.629999 C -22.57,20.860001 -21.82,23.26 -21.040001,25.68 c 1.160002,4.619999 1.740002,9.5 1.740002,14.66 0,6.939999 -0.400002,10.400002 -1.220001,10.39 -0.340001,0.01 -0.75,-0.71 -1.21,-2.16 -0.210001,-1.75 -0.560001,-4.579998 -1.060001,-8.489998 C -23.41,35.099998 -25.57,28.700001 -29.27,20.879999 c -0.949999,-2.019998 -2.369999,-4.75 -4.270001,-8.169999 -1.34,-2.45 -2.009998,-3.86 -2.009998,-4.22 0,-1.12 0.229999,-2.79 0.689998,-5.01 0.5,-2.66 1.020001,-4 1.580002,-4.01 0.219998,0.01 0.41,0.19 0.579998,0.53 2.110001,3.84 3.41,6.02 3.900002,6.54 1.019998,1.14 2.679998,1.7 4.959999,1.69 3.24,0.01 5.559999,-1.05 6.960001,-3.17 C -15.75,2.68 -14.62,0.31 -13.5,-2.06 c 0.21,-0.41 0.51,-0.62 0.89,-0.63 1.06,0.01 1.48,0.73 1.27,2.16 -0.07,0.54 -0.11,1.05 -0.11,1.53 0,2.86 1.25,4.28 3.75,4.27 1.83,0.01 3.04,-0.29 3.64,-0.89 0.81,-0.8 1.63,-2.85 2.47,-6.17 0.18,-0.41 0.38,-0.62 0.58,-0.63 C -0.33,-2.41 0,-1.6 0,0 Z"
           transform="matrix(0.14594677,0,0,0.14594677,170.59679,60.917544)" />
      </g>
    </g>
  </g>
</svg>
