<?xml version="1.0" encoding="UTF-8" standalone="no"?>
<!-- Created with Inkscape (http://www.inkscape.org/) -->

<svg
   width="5.3734078mm"
   height="9.3577547mm"
   viewBox="0 0 5.3734081 9.3577544"
   version="1.1"
   id="svg1"
   xmlns="http://www.w3.org/2000/svg"
   xmlns:svg="http://www.w3.org/2000/svg">
  <defs
     id="defs1" />
  <g
     id="layer1"
     transform="translate(-183.09467,-59.835324)">
    <g
       id="g11"
       transform="translate(26.192413)">
      <g
         id="g5">
        <path
           id="path50"
           style="fill:#000000;fill-opacity:1;fill-rule:nonzero;stroke:none"
           d="m 0,0 c -3.38,3.7 -6.15,6.14 -8.33,7.33 -2.36,1.27 -5.42,1.89 -9.18,1.89 -2.459999,0 -4.449999,-0.7 -5.98,-2.13 -1.53,-1.42 -2.300001,-3.32 -2.300001,-5.72 0,-1.54 0.710001,-3.85 2.110001,-6.93 1.41,-3.07 2.11,-5.09 2.11,-6.05 0,-1.15 -0.960001,-1.97 -2.899999,-2.47 -2.810002,-0.66 -4.600001,-1.25 -5.380001,-1.75 -1.930001,-1.25 -2.9,-3.450001 -2.9,-6.59 0,-3.75 2.6,-8.709999 7.799999,-14.870001 4.890002,-5.790001 8.320002,-8.689999 10.290001,-8.700001 0.42,0.01 0.63,0.260002 0.63,0.740002 0,0.709999 -0.44,2.290001 -1.32,4.75 -0.8,2.18 -3.07,4.610001 -6.8,7.27 -3.44,2.439999 -5.17,4.16 -5.17,5.170001 0,0.219999 0.04,0.43 0.110001,0.629999 0.32,0.86 1.629999,1.61 3.949999,2.27 3.309999,0.92 5.33,1.57 6.069999,1.950001 2.110001,1.059999 3.160001,2.509998 3.160001,4.33 0,2.679998 -0.83,5.349999 -2.500001,8.019999 -1.67,2.68 -2.51,4.63 -2.51,5.85 0,2.82 2.410002,4.22 7.220001,4.21 3.14,0.01 6.64,-0.59 10.5,-1.79 C -0.3,-2.89 0.48,-3.05 1,-3.06 2.2,-3.05 1.86,-2.03 0,0 Z"
           transform="matrix(0.14594677,0,0,0.14594677,161.88523,67.037092)" />
      </g>
    </g>
  </g>
</svg>
