<?xml version="1.0" encoding="UTF-8" standalone="no"?>
<!-- Created with Inkscape (http://www.inkscape.org/) -->

<svg
   width="5.3734078mm"
   height="9.3577547mm"
   viewBox="0 0 5.3734081 9.3577544"
   version="1.1"
   id="svg1"
   xmlns="http://www.w3.org/2000/svg"
   xmlns:svg="http://www.w3.org/2000/svg">
  <defs
     id="defs1" />
  <g
     id="layer1"
     transform="translate(-183.09467,-59.835324)">
    <g
       id="g11"
       transform="translate(35.453302)">
      <g
         id="g6">
        <path
           id="path60-1"
           style="fill:#000000;fill-opacity:1;fill-rule:nonzero;stroke:none"
           d="m 0,0 c 0,5.28 -1.3,9.71 -3.9,13.29 -2.84,3.95 -6.76,6.080001 -11.76,6.38 -1.719999,0.120001 -3.6,-0.59 -5.639999,-2.110001 C -23.969999,15.6 -25.43,12.84 -25.68,9.28 c -0.199999,-3.33 0.92,-8.71 3.380001,-16.13 2.99,-9.03 6.419999,-13.55 10.279999,-13.56 1.94,0.01 4.29,1.869999 7.07,5.59 C -1.65,-10.38 0,-5.44 0,0 Z m -4.06,4.12 c 0,-3.05 -1.44,-6.25 -4.32,-9.6 -2.64,-3.08 -4.71,-4.51 -6.22,-4.27 -1.760001,0.15 -3.459999,2.08 -5.119999,5.8 C -21.190001,-0.6 -21.93,2.21 -21.93,4.48 c 0,0.47 0.06,0.82 0.16,1.06 1.37,3.21 3.76,4.58 7.17,4.11 0.11,0.15 0.41,0.22 0.89,0.21 1.9,0.01 3.84,-0.41 5.8,-1.26 2.57,-1.12 3.85,-2.61 3.85,-4.48 z"
           transform="matrix(0.14594677,0,0,0.14594677,152.25712,64.296214)" />
      </g>
    </g>
  </g>
</svg>
