<?xml version="1.0" encoding="UTF-8" standalone="no"?>
<!-- Created with Inkscape (http://www.inkscape.org/) -->

<svg
   width="5.3734078mm"
   height="9.3577547mm"
   viewBox="0 0 5.3734081 9.3577544"
   version="1.1"
   id="svg1"
   xmlns="http://www.w3.org/2000/svg"
   xmlns:svg="http://www.w3.org/2000/svg">
  <defs
     id="defs1" />
  <g
     id="layer1"
     transform="translate(-183.09467,-59.835324)">
    <g
       id="g11"
       transform="translate(61.692488)">
      <g
         id="g8"
         transform="translate(-8.6996231)">
        <path
           id="path80"
           style="fill:#000000;fill-opacity:1;fill-rule:nonzero;stroke:none"
           d="m 0,0 c 0.1,2.54 -0.02,4.39 -0.37,5.54 -0.56,1.77 -1.43,3.93 -2.59,6.49 -1.44,3.31 -3.28,8.07 -5.53,14.29 -3.97,14.099998 -6.73,21.150001 -8.28,21.139999 -0.420001,0.01 -0.72,-0.52 -0.9,-1.579998 -0.31,-1.960003 -0.639999,-3.940002 -1,-5.960003 -0.35,-1.889999 -0.91,-3.769996 -1.690001,-5.639999 C -22.68,28.629999 -25.17,23.85 -27.85,19.940001 -29.530001,17.66 -31.24,15.38 -32.959999,13.08 c -1.260002,-1.78 -1.900002,-3.7 -1.900002,-5.75 0,0.01 0.25,-2.03 0.740002,-6.11 0.139999,-1.05 0.489998,-1.58 1.049999,-1.59 1.83,0.01 5.100001,4.35 9.81,13.03 4.58,8.479999 7.39,15.130001 8.44,19.93 C -8.14,8.38 -3.58,-3.73 -1.16,-3.74 -0.49,-3.73 -0.1,-2.48 0,0 Z"
           transform="matrix(0.14594677,0,0,0.14594677,135.33605,61.202139)" />
      </g>
    </g>
  </g>
</svg>
