<?xml version="1.0" encoding="UTF-8" standalone="no"?>
<!-- Created with Inkscape (http://www.inkscape.org/) -->

<svg
   width="5.3734078mm"
   height="9.3577547mm"
   viewBox="0 0 5.3734081 9.3577544"
   version="1.1"
   id="svg1"
   xmlns="http://www.w3.org/2000/svg"
   xmlns:svg="http://www.w3.org/2000/svg">
  <defs
     id="defs1" />
  <g
     id="layer1"
     transform="translate(-183.09467,-59.835324)">
    <g
       id="g11"
       transform="translate(61.692488)">
      <g
         id="g9">
        <path
           id="path90"
           style="fill:#000000;fill-opacity:1;fill-rule:nonzero;stroke:none"
           d="m 0,0 c -0.38,2.78 -0.67,6.39 -0.85,10.81 -0.03,1.17 -0.33,1.75 -0.89,1.74 -1.65,0.01 -4.75,-4.24 -9.31,-12.75 -4.55,-8.5 -7.390001,-15.31 -8.52,-20.420001 C -20.09,-16.6 -21.41,-11.35 -23.52,-4.85 c -2.039999,6.3 -3.97,11.22 -5.8,14.76 -2.040001,3.95 -3.16,4.6 -3.380001,1.95 -0.450001,-5.3 -0.189998,-8.76 0.790001,-10.39 2.4,-3.92 4.520001,-9.16 6.379999,-15.71 1.24,-4.880001 2.470002,-9.75 3.690001,-14.61 1.130001,-4.280001 2.149999,-6.42 3.059999,-6.429999 0.570002,0.01 1.290001,1.770001 2.16,5.269999 C -15.42,-25.040001 -13.75,-20.610001 -11.61,-16.719999 -8.51,-11.08 -5.52,-6.72 -2.64,-3.64 -0.81,-1.63 0.07,-0.42 0,0 Z"
           transform="matrix(0.14594677,0,0,0.14594677,126.50919,65.889951)" />
      </g>
    </g>
  </g>
</svg>
