<?xml version="1.0" encoding="UTF-8" standalone="no"?>
<!-- Created with Inkscape (http://www.inkscape.org/) -->

<svg
   width="119.18159mm"
   height="15.486489mm"
   viewBox="0 0 119.18159 15.486489"
   version="1.1"
   id="svg1"
   xmlns="http://www.w3.org/2000/svg"
   xmlns:svg="http://www.w3.org/2000/svg">
  <defs
     id="defs1" />
  <g
     id="layer1"
     transform="translate(-781.00819)">
    <g
       id="g13"
       transform="translate(645.64926,0.10104538)">
      <path
         d="m 253.18728,2.8976377 q 0.0827,0.00517 0.0775,0.1912022 -0.0103,0.1963698 0.005,0.387572 0.0155,0.1860346 0.0413,0.3772368 0.0517,0.4599187 0.12402,0.9508433 0.0724,0.4857569 0.1447,0.9818491 0.0672,0.4909245 0.13436,0.9818491 0.0672,0.4909245 0.11368,0.9560109 0.0207,0.180867 0.0258,0.4237454 0.0103,0.2428785 -0.005,0.4960922 -0.0103,0.2480461 -0.0568,0.4805893 -0.0413,0.2325432 -0.11885,0.387572 -0.0413,0.08785 -0.0982,0.1136878 -0.0465,0.00517 -0.0413,-0.041341 -0.031,-0.4495836 -0.0775,-0.9043347 -0.0413,-0.4599188 -0.10853,-0.9353405 -0.0672,-0.4909245 -0.13435,-0.9715138 -0.0672,-0.4805893 -0.12919,-0.9611786 -0.0672,-0.4805893 -0.13436,-0.9611786 -0.062,-0.4805893 -0.12403,-0.9663462 0.0155,-0.1188554 0.0465,-0.2428784 0.031,-0.1291907 0.0879,-0.263549 0.12403,-0.3358957 0.16537,-0.4082425 0.0465,-0.072347 0.062,-0.072347 z m -2.21691,-0.2893871 q 0.0155,-0.046509 0.0413,-0.056844 0.0258,-0.010335 0.0413,0.056844 0.0413,0.1240231 0.093,0.2532137 0.0517,0.1291907 0.11885,0.2532137 0.0724,0.1240231 0.16537,0.2325432 0.093,0.1033526 0.21187,0.1756993 -0.0724,0.1240231 -0.12919,0.2170404 -0.0517,0.08785 -0.0879,0.165364 -0.0362,0.072347 -0.0517,0.1446936 -0.0155,0.067179 -0.005,0.1446935 0.0568,0.4960922 0.12919,0.997352 0.0775,0.4960922 0.14469,0.9921843 0.0724,0.4960922 0.12402,0.9921844 0.0568,0.4960922 0.0724,0.9973519 0.005,0.1653641 -0.0207,0.3358958 -0.0258,0.1705317 -0.0827,0.3255605 -0.0569,0.1550288 -0.1447,0.2945547 -0.0827,0.1343583 -0.1912,0.2273756 -0.14986,0.1291906 -0.37207,0.1860345 -0.21704,0.051676 -0.53226,0.051676 h -0.093 q -0.16536,0 -0.24805,-0.124023 -0.0878,-0.1291907 -0.0878,-0.2790519 0,-0.1550288 0.0878,-0.2790518 0.0827,-0.1291907 0.24805,-0.1291907 h 0.093 q 0.17053,0 0.33072,-0.010335 0.1602,-0.015503 0.29456,-0.046509 0.13436,-0.036173 0.22737,-0.093017 0.0982,-0.062012 0.13953,-0.1550288 -0.10335,-1.0903692 -0.26872,-2.1497327 -0.16536,-1.0645311 -0.32039,-2.1393975 -0.031,-0.2170403 -0.0672,-0.4237454 -0.031,-0.2118727 -0.14986,-0.4082425 -0.0413,-0.056844 -0.0465,-0.072347 -0.005,-0.02067 0.0258,-0.082682 0.0879,-0.1498612 0.1602,-0.30489 0.0775,-0.1601964 0.14986,-0.2893871 z m -3.37963,5.2503088 q 0.062,-0.1033525 0.12402,-0.098185 0.0672,0.00517 0.0362,0.124023 -0.0258,0.1085202 -0.0724,0.2273756 -0.0465,0.1136878 -0.10335,0.2480461 0.0362,0.08785 0.16019,0.1756993 0.12919,0.082682 0.28939,0.1446936 0.15503,0.056844 0.31523,0.082682 0.16536,0.025838 0.27388,-0.015503 0.1757,-0.056844 0.28939,-0.3152252 0.11368,-0.263549 0.19637,-0.5529361 0.0413,-0.1550288 0.10852,-0.1808669 0.0672,-0.025838 0.0775,0.1136878 0.0207,0.2583813 0.093,0.4444159 0.0724,0.1860345 0.21704,0.2997223 0.27388,0.2273756 0.89917,0.2273756 h 0.093 q 0.16537,0 0.24805,0.1291907 0.0827,0.1291906 0.0827,0.2790518 0,0.1498612 -0.0827,0.2790519 -0.0827,0.124023 -0.24805,0.124023 h -0.093 q -0.27389,0 -0.47026,-0.031006 -0.19637,-0.036173 -0.3824,-0.1136878 -0.43408,-0.1860346 -0.65629,-0.6149476 -0.0362,0.082682 -0.093,0.1963698 -0.0568,0.1136878 -0.13436,0.2222079 -0.0723,0.1033526 -0.16019,0.1756994 -0.0879,0.072347 -0.18604,0.072347 -0.12919,0 -0.29972,-0.031006 -0.17053,-0.031006 -0.34106,-0.098185 -0.1757,-0.062012 -0.3359,-0.1601965 -0.15503,-0.1033525 -0.26355,-0.2428784 -0.18086,0.206705 -0.40824,0.346231 -0.22221,0.1343583 -0.47542,0.1756993 -0.25838,0.046509 -0.5426,0 -0.27905,-0.051676 -0.57361,-0.2067051 -0.13436,0.098185 -0.29455,0.1601964 -0.1602,0.062012 -0.31523,0.093017 -0.1602,0.036173 -0.30489,0.046509 -0.14469,0.010335 -0.25321,0.010335 h -0.093 q -0.15503,0 -0.23254,-0.124023 -0.0775,-0.1291907 -0.0775,-0.2790519 0,-0.1498612 0.0775,-0.2790518 0.0775,-0.1291907 0.23254,-0.1291907 h 0.093 q 0.31005,0 0.5736,-0.02067 0.26355,-0.025838 0.4961,-0.1136878 0.22737,-0.082682 0.42891,-0.2532137 0.2067,-0.1705317 0.39274,-0.4650864 0.0672,-0.1085202 0.11369,-0.093017 0.0517,0.010335 0.031,0.1188554 -0.0362,0.1860346 -0.11885,0.3979073 -0.0827,0.2118727 -0.20154,0.3617339 0.10335,0.031006 0.25321,0.046509 0.15503,0.015503 0.32556,0 0.25322,-0.02067 0.47542,-0.1033525 0.22738,-0.08785 0.40825,-0.263549 0.11369,-0.1033525 0.21187,-0.2377108 0.10335,-0.139526 0.19637,-0.2997224 z m 0.45475,-1.162716 q -0.031,0.036173 -0.0465,0.036173 -0.0155,0 -0.0517,-0.025838 l -0.60978,-0.4805892 -0.39791,0.552936 q -0.0362,0.046509 -0.0775,0.010335 L 246.21098,6.292768 q -0.0362,-0.031006 -0.0103,-0.067179 l 0.41341,-0.5891095 q 0.0258,-0.031006 0.0362,-0.025838 0.0155,0 0.0362,0.015503 l 0.61494,0.4702541 0.41858,-0.5374332 q 0.031,-0.041341 0.062,-0.020671 l 0.65112,0.5426008 q 0.031,0.031006 0,0.072347 z m -0.97668,-2.1807385 0.63562,0.5219303 q 0.0413,0.031006 0.005,0.072347 l -0.42375,0.5270979 q -0.0362,0.046509 -0.0827,0.010335 l -0.64079,-0.5167627 q -0.0413,-0.036173 0,-0.08785 l 0.42892,-0.5167627 q 0.0362,-0.046509 0.0775,-0.010335 z m 0.0413,-1.4314326 q -0.11369,0.2273756 -0.25838,0.3410634 -0.15503,0.1188554 -0.3669,0.124023 -0.17054,0.00517 -0.29973,-0.08785 -0.12402,-0.093017 -0.14469,-0.3255605 -0.0103,-0.1033525 0.0103,-0.2118727 0.0207,-0.1136878 0.062,-0.2118727 0.0413,-0.093017 0.093,-0.1601964 0.0568,-0.072347 0.11886,-0.093017 0.062,-0.00517 0.0103,0.093017 -0.031,0.056844 -0.0517,0.1343583 -0.0155,0.077514 -0.0207,0.1550288 0,0.072347 0.0155,0.124023 0.0155,0.051676 0.0672,0.098185 0.0775,0.056844 0.16536,0.056844 0.0878,-0.00517 0.17054,-0.041341 0.0879,-0.036173 0.15503,-0.082682 0.0723,-0.051676 0.14469,-0.1343583 0.0672,-0.077514 0.0982,-0.1963698 0.031,-0.1188555 0.0413,-0.1963699 0.005,-0.067179 0.0362,-0.1343582 0.031,-0.067179 0.10335,-0.067179 0.0155,0 0.0207,0.031006 0.0103,0.025838 0.0155,0.062011 0.005,0.036173 0.005,0.072347 0,0.031006 0,0.046509 0,0.1498612 0.0465,0.2377108 0.0465,0.082682 0.18603,0.1136878 0.0724,0.015503 0.18604,-0.015503 0.11885,-0.031006 0.2067,-0.1033525 0.0103,-0.010335 0.005,-0.056844 -0.005,-0.046509 -0.0207,-0.098185 -0.0103,-0.051676 -0.0362,-0.1085202 -0.0207,-0.062012 -0.0258,-0.072347 l 0.1912,-0.3617339 q 0.0517,0.025838 0.0775,0.1136878 0.031,0.08785 0.0362,0.2015374 0.0103,0.1085202 0,0.222208 -0.0103,0.1136878 -0.0258,0.1912022 -0.062,0.1912022 -0.17053,0.346231 -0.10335,0.1550288 -0.32039,0.1963698 -0.1912,0.036173 -0.3204,-0.025838 -0.12919,-0.062012 -0.2067,-0.1756993 z m 0.93017,-2.0773859 q -0.25838,0.1188554 -0.5426,0.2480461 -0.27905,0.1291906 -0.5426,0.248046 -0.26355,0.1188555 -0.49092,0.222208 -0.22738,0.1033525 -0.38758,0.1705317 -0.0362,0.015503 -0.0517,0 -0.0155,-0.015503 0,-0.046509 l 0.25321,-0.5064274 q 0.0258,-0.041341 0.0517,-0.056844 0.031,-0.020671 0.0568,-0.036173 l 1.88619,-0.83715551 q 0.0827,-0.0361734 0.0517,0.041341 l -0.21187,0.48058929 q -0.0155,0.0465086 -0.0724,0.0723468 z m -4.88857,10.6504786 q -0.0258,0.03101 -0.0413,0.03101 -0.0155,0.0052 -0.0568,-0.02584 l -0.61494,-0.48059 -0.40308,0.552936 q -0.0362,0.04651 -0.0775,0.0155 l -0.65629,-0.506427 q -0.0362,-0.02584 -0.0103,-0.06201 l 0.41858,-0.594277 q 0.0207,-0.03101 0.0362,-0.03101 0.0155,0 0.0362,0.02067 l 0.62011,0.470254 0.42375,-0.542601 q 0.031,-0.04134 0.062,-0.0155 l 0.65629,0.547769 q 0.0362,0.02584 0,0.07235 z m -2.16007,-2.061883 h -0.093 q -0.15503,0 -0.23254,-0.124023 -0.0775,-0.1291907 -0.0775,-0.2842195 0,-0.077514 0.0207,-0.1498612 0.0155,-0.072347 0.0568,-0.1291906 0.0362,-0.056844 0.0982,-0.093017 0.0568,-0.036173 0.13435,-0.036173 h 0.093 q 0.1602,0 0.35657,-0.010335 0.20153,-0.010335 0.37723,-0.056844 0.17054,-0.046509 0.3359,-0.1395259 0.16536,-0.098185 0.30489,-0.2687166 0.10335,-0.124023 0.16536,-0.2532137 0.0672,-0.1291907 0.12919,-0.2945547 0.0258,-0.067179 0.0827,-0.072347 0.062,-0.00517 0.0672,0.025838 0.005,0.062012 -0.0103,0.1498612 -0.0103,0.08785 -0.0103,0.1601964 0,0.1343583 0.0672,0.2687166 0.0672,0.1343583 0.20671,0.2428785 0.13953,0.1085202 0.3824,0.1808669 0.24805,0.067179 0.55811,0.067179 h 0.0982 q 0.0775,0 0.13436,0.036173 0.0568,0.036173 0.093,0.093017 0.0413,0.056844 0.0568,0.1291906 0.0207,0.072347 0.0207,0.1498612 0,0.1550288 -0.0775,0.2842195 -0.0724,0.124023 -0.22738,0.124023 h -0.0982 q -0.27905,0 -0.53227,-0.051676 -0.24804,-0.056844 -0.42374,-0.165364 -0.34107,-0.2067051 -0.53227,-0.60978 -0.11369,0.2325432 -0.26872,0.387572 -0.15502,0.1550288 -0.34106,0.2532137 -0.1912,0.098185 -0.43408,0.1446936 -0.24288,0.041341 -0.48059,0.041341 z m 0.58911,-5.5655338 q 0,0.08785 0.0465,0.1395259 0.0517,0.046509 0.11886,0.072347 0.0672,0.025838 0.14469,0.031006 0.0827,0.00517 0.14469,0.00517 0.1447,0 0.26872,-0.062012 0.12919,-0.062012 0.23254,-0.1601964 0.0103,-0.093017 -0.0207,-0.1963698 -0.031,-0.1033525 -0.0982,-0.1860346 -0.0672,-0.082682 -0.16537,-0.1291906 -0.0982,-0.051676 -0.22737,-0.041341 -0.0775,0.02067 -0.15503,0.077514 -0.0775,0.051676 -0.14469,0.1240231 -0.062,0.072347 -0.10336,0.1601964 -0.0413,0.082682 -0.0413,0.1653641 z m 1.20923,-0.1343583 q 0,0.1756993 -0.0465,0.3410633 -0.0465,0.1653641 -0.14469,0.2945548 -0.0982,0.1291906 -0.25322,0.206705 -0.14986,0.077514 -0.36173,0.077514 -0.26355,0 -0.44442,-0.1705316 -0.18087,-0.1705317 -0.1912,-0.4547512 0,-0.1446935 0.0413,-0.346231 0.0465,-0.2067051 0.13953,-0.3979073 0.093,-0.1912021 0.23771,-0.3307281 0.14986,-0.1446935 0.35656,-0.1705317 0.19637,-0.020671 0.32556,0.077514 0.12919,0.098185 0.20671,0.248046 0.0724,0.1550288 0.10335,0.3307281 0.031,0.1705317 0.031,0.2945548 z m -6.09264,2.780183 q 0.21188,-0.010335 0.44442,0.025838 0.23254,0.031006 0.66146,0.1136878 0.42891,0.077514 0.86299,0.093017 0.47025,0.015503 0.9095,0.00517 0.43925,-0.010335 0.9095,-0.051676 0.0207,-0.00517 0.031,0 0.0103,0.00517 0.005,0.031006 -0.0672,0.2015375 -0.14986,0.3979073 -0.0775,0.1963698 -0.1757,0.3824044 -0.23255,0.025838 -0.46509,0.062011 -0.23254,0.031006 -0.45992,0.077514 -0.0465,0.3772367 0.0827,0.5787742 0.13436,0.1963698 0.38241,0.2842194 0.24804,0.08785 0.5736,0.098185 0.33073,0.010335 0.68213,0.010335 0.0258,0 0.0465,0 0.0207,0 0.0465,0 0.15503,0 0.23254,0.1291907 0.0827,0.124023 0.0827,0.2738842 0,0.1550288 -0.0827,0.2842195 -0.0775,0.124023 -0.23254,0.124023 -0.0258,0 -0.0465,0 -0.0207,0 -0.0465,0 -0.57361,0.010335 -1.02319,-0.056844 -0.44958,-0.072347 -0.7183,-0.3152252 -0.21187,-0.1912022 -0.29972,-0.5115951 -0.0827,-0.3255605 -0.0207,-0.8268203 -0.45475,0.1085202 -0.8785,0.2893871 -0.42374,0.1756994 -0.78031,0.4599188 -0.31006,0.2480461 -0.5581,0.5581037 -0.24288,0.3100576 -0.41341,0.6666239 -0.16537,0.3565657 -0.25322,0.7389707 -0.0879,0.387572 -0.0879,0.785479 0,0.434081 0.16537,0.847491 0.17053,0.418577 0.44958,0.764808 0.27905,0.351399 0.63562,0.604613 0.36173,0.258381 0.74414,0.366901 0.50126,0.144694 1.02835,0.191202 0.53227,0.05168 0.98702,0.03617 0.50126,-0.0155 1.02836,-0.06201 0.5271,-0.04651 1.02836,-0.04651 0.062,0 0.0672,0.03101 0.005,0.03617 -0.062,0.113688 -0.0672,0.07752 -0.13952,0.08785 -0.31006,0.04651 -0.59945,0.139526 -0.28422,0.09819 -0.56327,0.19637 -0.27905,0.103352 -0.56844,0.186034 -0.28422,0.08785 -0.59427,0.10852 -0.75448,0.05168 -1.47795,-0.118855 -0.7183,-0.170532 -1.28157,-0.583942 -0.56327,-0.408242 -0.9095,-1.064531 -0.34623,-0.651121 -0.34623,-1.555456 0,-0.594277 0.15503,-1.193721 0.15503,-0.5942772 0.43925,-1.1265428 0.28938,-0.5374332 0.69246,-0.9715138 0.40824,-0.4392483 0.90433,-0.7131325 0.0207,-0.015503 -0.0103,-0.025838 -0.031,-0.010335 -0.0672,-0.015503 -0.23771,-0.025838 -0.5116,-0.046509 -0.26871,-0.025838 -0.53743,-0.00517 -0.26355,0.020671 -0.49609,0.1033525 -0.23254,0.077514 -0.38757,0.2583814 -0.031,0.036173 -0.0672,0.031006 -0.031,-0.00517 -0.0207,-0.072347 0.031,-0.2377109 0.10852,-0.4495836 0.0827,-0.2118727 0.21187,-0.3669015 0.12919,-0.1601964 0.31006,-0.2532137 0.18086,-0.098185 0.42374,-0.1033525 z m 1.08004,-2.1342299 0.63562,0.527098 q 0.0413,0.036173 0.005,0.082682 l -0.42374,0.5322655 q -0.0362,0.051676 -0.0827,0.010335 l -0.64079,-0.5270979 q -0.0413,-0.036173 0,-0.08785 l 0.42891,-0.5270979 q 0.0362,-0.046509 0.0775,-0.010335 z m -1.13171,-0.6304503 q 0.17053,-0.098185 0.3359,-0.1963698 0.16536,-0.098185 0.32039,-0.2118727 0.1602,-0.1136878 0.31522,-0.2480461 0.15503,-0.1343583 0.29973,-0.30489 -0.13953,-0.041341 -0.29456,-0.1395259 -0.15503,-0.098185 -0.24804,-0.2118727 -0.0465,-0.056844 -0.0568,-0.1446936 -0.0103,-0.093017 0.0155,-0.1705317 0.0413,-0.124023 0.11369,-0.2687165 0.0775,-0.1446936 0.18087,-0.263549 0.10335,-0.1188554 0.22738,-0.1912022 0.12919,-0.077514 0.25838,-0.072347 0.16019,0.010335 0.23254,0.1550288 0.0724,0.1395259 0.0879,0.3255605 0.0207,0.1860346 0,0.3669015 -0.0155,0.1808669 -0.0258,0.263549 0,0.025838 0.0155,0.041341 0.062,0.036173 0.0827,0.067179 0.0258,0.031006 0.0413,0.072347 0.031,0.077514 0.0103,0.1860346 -0.0155,0.1085201 -0.062,0.165364 -0.0413,0.051676 -0.0724,0.051676 -0.031,-0.00517 -0.062,-0.051676 -0.0258,-0.031006 -0.0517,-0.056844 -0.0207,-0.031006 -0.0672,-0.051676 -0.1447,0.1756993 -0.31006,0.3358957 -0.1602,0.1601964 -0.34106,0.2945547 -0.18604,0.1291907 -0.38758,0.2325432 -0.20153,0.1033526 -0.42374,0.1705317 -0.0879,0.025838 -0.18087,0.036173 -0.093,0.00517 -0.10335,-0.02067 -0.0103,-0.031006 0.0362,-0.072347 0.0465,-0.046509 0.11369,-0.08785 z m 0.97151,-1.7363226 q 0.10852,0.1498612 0.25839,0.2377108 0.14986,0.082682 0.27388,0.1136878 h 0.0103 q 0,-0.041341 0.005,-0.1085202 0.005,-0.072347 0,-0.1446935 0,-0.072347 -0.0207,-0.1395259 -0.0155,-0.067179 -0.062,-0.1136878 -0.0413,-0.036173 -0.11885,-0.031006 -0.0724,0 -0.1447,0.025838 -0.0724,0.025838 -0.13436,0.072347 -0.0568,0.041341 -0.0672,0.08785 z m -5.65338,6.3355103 q -0.36174,0.1085202 -0.79065,0.2325432 -0.42374,0.1188554 -0.8785,0.2428785 -0.45475,0.1188554 -0.91983,0.2325432 -0.46509,0.1085201 -0.89917,0.1963698 -0.43408,0.082682 -0.82165,0.1343583 -0.38757,0.046509 -0.69246,0.046509 h -0.093 q -0.16537,0 -0.24288,-0.124023 -0.0827,-0.1291907 -0.0827,-0.2790519 0,-0.1550288 0.0827,-0.2790518 0.0775,-0.1291907 0.24288,-0.1291907 h 0.093 q 0.0775,0 0.21187,-0.00517 0.13952,-0.010335 0.30489,-0.02067 0.16536,-0.010335 0.34623,-0.025838 0.18087,-0.015503 0.3514,-0.031006 0.17053,-0.02067 0.31522,-0.041341 0.14986,-0.020671 0.24288,-0.041341 -0.12402,-0.067179 -0.24288,-0.1860346 -0.11368,-0.1188554 -0.21187,-0.2687166 -0.0982,-0.1498612 -0.16536,-0.3203929 -0.0672,-0.1705316 -0.093,-0.3410633 -0.0465,-0.3203929 0.062,-0.6562886 0.10852,-0.3410634 0.31523,-0.6252829 0.21187,-0.2893871 0.49609,-0.4857569 0.28939,-0.2015374 0.59944,-0.2480461 0.38757,-0.056844 0.7028,0.00517 0.31523,0.056844 0.56327,0.1912021 0.24805,0.1291907 0.42891,0.3100576 0.18087,0.180867 0.30489,0.3617339 0.0207,0.031006 0.005,0.056844 -0.0103,0.025838 -0.0413,0.041341 -0.0258,0.015503 -0.062,0.020671 -0.0362,0 -0.062,-0.015503 -0.33073,-0.1912022 -0.66663,-0.2428785 -0.33589,-0.051676 -0.7493,-0.020671 -0.20154,0.015503 -0.41341,0.062012 -0.20671,0.046509 -0.39791,0.1188554 -0.1912,0.072347 -0.3514,0.1653641 -0.16019,0.093017 -0.25321,0.1963698 0,0.093017 0.0362,0.222208 0.0362,0.124023 0.10335,0.2583813 0.0672,0.1343583 0.15503,0.2687166 0.093,0.1291907 0.19637,0.2377108 0.10852,0.1085202 0.23771,0.2170403 0.12919,0.1033526 0.25322,0.1860346 0.12919,0.082682 0.24288,0.1343583 0.11368,0.051676 0.18603,0.051676 0.67179,-0.1240231 1.33325,-0.3100576 0.66145,-0.1860346 1.25573,-0.3513987 0.0517,-0.010335 0.031,0.020671 -0.13436,0.248046 -0.29456,0.470254 -0.16019,0.2222079 -0.27388,0.3669015 z m -1.9482,-5.3691641 q -0.25838,0.1188554 -0.5426,0.2480461 -0.27905,0.1291906 -0.5426,0.2480461 -0.26355,0.1188554 -0.49093,0.2222079 -0.22737,0.1033525 -0.38757,0.1705317 -0.0362,0.015503 -0.0517,0 -0.0155,-0.015503 0,-0.046509 l 0.25321,-0.5064274 q 0.0258,-0.041341 0.0517,-0.056844 0.031,-0.020671 0.0568,-0.036173 l 1.88618,-0.8371555 q 0.0827,-0.036173 0.0517,0.041341 l -0.21187,0.4805893 q -0.0155,0.046509 -0.0724,0.072347 z m -6.06679,6.4543657 h -0.093 q -0.15503,0 -0.23254,-0.124023 -0.0775,-0.1291907 -0.0775,-0.2842195 0,-0.077514 0.0207,-0.1498612 0.0155,-0.072347 0.0568,-0.1291906 0.0362,-0.056844 0.0982,-0.093017 0.0568,-0.036173 0.13436,-0.036173 h 0.093 q 0.1602,0 0.35657,-0.010335 0.20153,-0.010335 0.37723,-0.056844 0.17053,-0.046509 0.3359,-0.1395259 0.16536,-0.098185 0.30489,-0.2687166 0.10335,-0.124023 0.16536,-0.2532137 0.0672,-0.1291907 0.12919,-0.2945547 0.0258,-0.067179 0.0827,-0.072347 0.062,-0.00517 0.0672,0.025838 0.005,0.062012 -0.0103,0.1498612 -0.0103,0.08785 -0.0103,0.1601964 0,0.1343583 0.0672,0.2687166 0.0672,0.1343583 0.20671,0.2428785 0.13952,0.1085202 0.3824,0.1808669 0.24805,0.067179 0.55811,0.067179 h 0.0982 q 0.0775,0 0.13436,0.036173 0.0568,0.036173 0.093,0.093017 0.0413,0.056844 0.0568,0.1291906 0.0207,0.072347 0.0207,0.1498612 0,0.1550288 -0.0775,0.2842195 -0.0724,0.124023 -0.22738,0.124023 h -0.0982 q -0.27906,0 -0.53227,-0.051676 -0.24805,-0.056844 -0.42374,-0.165364 -0.34107,-0.2067051 -0.53227,-0.60978 -0.11369,0.2325432 -0.26872,0.387572 -0.15503,0.1550288 -0.34106,0.2532137 -0.1912,0.098185 -0.43408,0.1446936 -0.24288,0.041341 -0.48059,0.041341 z m 1.4211,0.723468 0.63562,0.527098 q 0.0413,0.03617 0.005,0.08268 l -0.42374,0.532265 q -0.0362,0.05168 -0.0827,0.01034 l -0.64079,-0.527098 q -0.0413,-0.03617 0,-0.08785 l 0.42891,-0.527098 q 0.0362,-0.04651 0.0775,-0.01033 z m -0.83199,-6.5473832 q 0,0.08785 0.0465,0.1395259 0.0517,0.046509 0.11886,0.072347 0.0672,0.025838 0.14469,0.031006 0.0827,0.00517 0.14469,0.00517 0.1447,0 0.26872,-0.062012 0.12919,-0.062012 0.23254,-0.1601965 0.0103,-0.093017 -0.0207,-0.1963698 -0.031,-0.1033525 -0.0982,-0.1860345 -0.0672,-0.082682 -0.16537,-0.1291907 -0.0982,-0.051676 -0.22737,-0.041341 -0.0775,0.020671 -0.15503,0.077514 -0.0775,0.051676 -0.1447,0.124023 -0.062,0.072347 -0.10335,0.1601964 -0.0413,0.082682 -0.0413,0.1653641 z m 1.20923,-0.1343583 q 0,0.1756993 -0.0465,0.3410634 -0.0465,0.165364 -0.1447,0.2945547 -0.0982,0.1291907 -0.25321,0.2067051 -0.14986,0.077514 -0.36173,0.077514 -0.26355,0 -0.44442,-0.1705317 -0.18087,-0.1705317 -0.1912,-0.4547512 0,-0.1446935 0.0413,-0.346231 0.0465,-0.206705 0.13952,-0.3979072 0.093,-0.1912022 0.23772,-0.3307281 0.14986,-0.1446936 0.35656,-0.1705317 0.19637,-0.020671 0.32556,0.077514 0.12919,0.098185 0.20671,0.2480461 0.0723,0.1550288 0.10335,0.3307281 0.031,0.1705317 0.031,0.2945547 z m -4.1186,2.5889809 0.14986,-0.6046124 q 0.0155,-0.062011 0.062,-0.062011 0.0465,0 0.062,0.056844 l 0.5271,1.8655133 q 0.10335,0.3669015 0.25838,0.6407857 0.1602,0.2738842 0.43408,0.4599188 0.1602,0.1085201 0.3669,0.1550288 0.20671,0.046509 0.45992,0.046509 h 0.093 q 0.16536,0 0.24804,0.1291907 0.0827,0.1291906 0.0827,0.2790518 0,0.1498612 -0.0827,0.2790519 -0.0827,0.124023 -0.24804,0.124023 h -0.093 q -0.28422,0 -0.53226,-0.051676 -0.24288,-0.056844 -0.45476,-0.2015374 -0.2067,-0.1395259 -0.38757,-0.387572 -0.1757,-0.2532137 -0.33073,-0.6459534 -0.13435,0.4030749 -0.43924,0.6666239 -0.24805,0.2118727 -0.58395,0.3203929 -0.33589,0.1033525 -0.65628,0.1446935 -0.31523,0.046509 -0.59945,0.02067 -0.27905,-0.031006 -0.42891,-0.1705317 -0.0775,-0.072347 -0.11369,-0.1963698 -0.031,-0.124023 -0.031,-0.2583813 0,-0.1395259 0.0207,-0.2687166 0.0258,-0.1343583 0.0672,-0.2273756 0.0155,-0.031006 0.0413,-0.031006 0.031,0 0.0465,0.031006 0.093,0.1705317 0.21188,0.2325432 0.11885,0.056844 0.28422,0.072347 0.24287,0.025838 0.5581,-0.010335 0.31523,-0.036173 0.61495,-0.1291906 0.29972,-0.08785 0.53743,-0.2273756 0.24288,-0.1446936 0.33073,-0.3307281 z m -1.2454,-1.6691435 q 0.17053,-0.098185 0.3359,-0.1963699 0.16536,-0.098185 0.32039,-0.2118727 0.1602,-0.1136877 0.31522,-0.248046 0.15503,-0.1343583 0.29973,-0.30489 -0.13953,-0.041341 -0.29456,-0.1395259 -0.15503,-0.098185 -0.24804,-0.2118727 -0.0465,-0.056844 -0.0568,-0.1446936 -0.0103,-0.093017 0.0155,-0.1705317 0.0413,-0.124023 0.11369,-0.2687166 0.0775,-0.1446935 0.18087,-0.2635489 0.10335,-0.1188555 0.22738,-0.1912022 0.12919,-0.077514 0.25838,-0.072347 0.16019,0.010335 0.23254,0.1550288 0.0724,0.1395259 0.0879,0.3255605 0.0207,0.1860346 0,0.3669015 -0.0155,0.1808669 -0.0258,0.263549 0,0.025838 0.0155,0.041341 0.062,0.036173 0.0827,0.067179 0.0258,0.031006 0.0413,0.072347 0.031,0.077514 0.0103,0.1860346 -0.0155,0.1085201 -0.062,0.165364 -0.0413,0.051676 -0.0724,0.051676 -0.031,-0.00517 -0.062,-0.051676 -0.0258,-0.031006 -0.0517,-0.056844 -0.0207,-0.031006 -0.0672,-0.051676 -0.1447,0.1756993 -0.31006,0.3358957 -0.1602,0.1601964 -0.34106,0.2945547 -0.18604,0.1291907 -0.38758,0.2325432 -0.20153,0.1033526 -0.42374,0.1705317 -0.0879,0.025838 -0.18087,0.036173 -0.093,0.00517 -0.10335,-0.02067 -0.0103,-0.031006 0.0362,-0.072347 0.0465,-0.046509 0.11369,-0.08785 z m 0.97151,-1.7363226 q 0.10852,0.1498611 0.25839,0.2377108 0.14986,0.082682 0.27388,0.1136878 h 0.0103 q 0,-0.041341 0.005,-0.1085202 0.005,-0.072347 0,-0.1446935 0,-0.072347 -0.0207,-0.139526 -0.0155,-0.067179 -0.062,-0.1136877 -0.0413,-0.036173 -0.11885,-0.031006 -0.0724,0 -0.1447,0.025838 -0.0723,0.025838 -0.13436,0.072347 -0.0568,0.041341 -0.0672,0.08785 z m -3.52432,0.077514 q 0.0827,0.00517 0.0775,0.1912022 -0.0103,0.1963698 0.005,0.387572 0.0155,0.1860346 0.0413,0.3772368 0.0517,0.4599187 0.12402,0.9508433 0.0724,0.4857569 0.14469,0.9818491 0.0672,0.4909245 0.13436,0.9818491 0.0672,0.4909245 0.11369,0.9560109 0.0207,0.180867 0.0258,0.4237454 0.0103,0.2428785 -0.005,0.4960922 -0.0103,0.2480461 -0.0568,0.4805893 -0.0413,0.2325432 -0.11886,0.387572 -0.0413,0.08785 -0.0982,0.1136878 -0.0465,0.00517 -0.0413,-0.041341 -0.031,-0.4495836 -0.0775,-0.9043347 -0.0413,-0.4599188 -0.10852,-0.9353405 -0.0672,-0.4909245 -0.13436,-0.9715138 -0.0672,-0.4805893 -0.12919,-0.9611786 -0.0672,-0.4805893 -0.13436,-0.9611786 -0.062,-0.4805893 -0.12402,-0.9663462 0.0155,-0.1188554 0.0465,-0.2428784 0.031,-0.1291907 0.0879,-0.263549 0.12402,-0.3358957 0.16536,-0.4082425 0.0465,-0.072347 0.062,-0.072347 z m -6.10814,5.8910945 q 0.18087,0 0.42375,-0.010335 0.24805,-0.015503 0.54777,-0.082682 0.29972,-0.072347 0.64595,-0.2118727 0.34623,-0.1446936 0.72864,-0.4030749 0.0982,-0.062012 0.18086,-0.062012 0.0827,0 0.17054,0.051676 0.10852,0.067179 0.28421,0.1395259 0.18087,0.072347 0.36691,0.1343583 0.1912,0.062012 0.3669,0.1136878 0.1757,0.046509 0.28422,0.067179 0.18086,0.041341 0.30489,0.010335 0.12402,-0.036173 0.13436,-0.1550288 -0.062,-0.5581037 -0.1292,-1.0490282 -0.062,-0.4909246 -0.12402,-0.9818491 -0.062,-0.4960922 -0.12919,-1.0283577 -0.062,-0.5322656 -0.12402,-1.1833866 -0.0258,-0.2170403 -0.0672,-0.4185777 -0.0362,-0.2015375 -0.16537,-0.3979073 -0.0207,-0.031006 -0.0362,-0.046509 -0.0103,-0.015503 -0.0155,-0.025838 0,-0.015503 0.005,-0.031006 0.0103,-0.020671 0.0258,-0.051676 l 0.3204,-0.5942771 q 0.0258,-0.041341 0.0517,-0.041341 0.0258,0 0.0362,0.041341 0.0723,0.2532137 0.21187,0.5064274 0.14469,0.2532138 0.39791,0.4030749 -0.0775,0.1188555 -0.13436,0.2067051 -0.0568,0.08785 -0.0982,0.1653641 -0.0362,0.072347 -0.0517,0.1446935 -0.0155,0.067179 -0.005,0.1498612 0.0465,0.4547511 0.10335,0.9560109 0.0568,0.5012598 0.10852,0.9766815 0.0569,0.470254 0.10335,0.8733289 0.0465,0.3979073 0.0672,0.651121 0.0207,0.2428785 -0.0103,0.5426008 -0.0258,0.2945547 -0.11369,0.5632713 -0.0879,0.263549 -0.23771,0.4495836 -0.14986,0.1808669 -0.3669,0.1912022 -0.10852,0.00517 -0.31006,-0.041341 -0.20154,-0.051676 -0.42374,-0.124023 -0.21704,-0.077514 -0.42375,-0.1601964 -0.20154,-0.08785 -0.32039,-0.1498612 -0.10336,-0.051676 -0.1602,-0.051676 -0.0517,-0.00517 -0.14469,0.056844 -0.27389,0.1446936 -0.5271,0.2738842 -0.25321,0.1291907 -0.52193,0.2273756 -0.26872,0.098185 -0.56844,0.1550288 -0.29972,0.056844 -0.66146,0.056844 h -0.0413 q -0.16536,0 -0.24288,-0.124023 -0.0827,-0.1291907 -0.0827,-0.2790519 0,-0.1498612 0.0827,-0.2738842 0.0775,-0.1291907 0.24288,-0.1291907 z m 1.03353,1.6691442 0.63562,0.527098 q 0.0413,0.03617 0.005,0.08268 l -0.42374,0.532265 q -0.0362,0.05168 -0.0827,0.01033 l -0.64079,-0.527097 q -0.0413,-0.03617 0,-0.08785 l 0.42891,-0.527098 q 0.0362,-0.04651 0.0775,-0.01033 z m 0.96635,-5.3795001 q -0.25839,0.1188554 -0.54261,0.2480461 -0.27905,0.1291906 -0.5426,0.2480461 -0.26355,0.1188554 -0.49092,0.2222079 -0.22738,0.1033526 -0.38757,0.1705317 -0.0362,0.015503 -0.0517,0 -0.0155,-0.015503 0,-0.046509 l 0.25321,-0.5064275 q 0.0258,-0.041341 0.0517,-0.056844 0.031,-0.02067 0.0568,-0.036173 l 1.88619,-0.8371556 q 0.0827,-0.036173 0.0517,0.041341 l -0.21187,0.4805893 q -0.0155,0.046509 -0.0723,0.072347 z m -1.95337,3.7000207 q 0.15503,0 0.23255,0.1291907 0.0775,0.1291906 0.0775,0.2842194 0.005,0.1498612 -0.0723,0.2790519 -0.0775,0.124023 -0.23772,0.124023 -0.0155,0 -0.0362,0 -0.0155,0 -0.0362,0 -0.46509,0 -0.76481,-0.1705317 -0.29456,-0.1705317 -0.47025,-0.4547511 -0.20671,-0.3410634 -0.27389,-0.733803 -0.062,-0.3979073 -0.10335,-0.7906469 -0.0465,-0.4495836 -0.0982,-0.8991671 -0.0517,-0.4495835 -0.10335,-0.899167 -0.0517,-0.4650865 -0.12402,-0.9353405 -0.0672,-0.4754217 -0.22221,-1.0231901 -0.0103,-0.041341 -0.0155,-0.062011 -0.005,-0.020671 0.005,-0.051676 l 0.26872,-0.6769591 q 0.0155,-0.036173 0.0413,-0.036173 0.031,0 0.0413,0.036173 0.0672,0.2945547 0.12403,0.5942771 0.0568,0.2945547 0.10852,0.6407857 0.0517,0.3410634 0.0982,0.7544735 0.0517,0.4082425 0.10852,0.9301728 0.0413,0.3617339 0.0775,0.7131325 0.0362,0.3513987 0.0723,0.7027973 0.0362,0.2790518 0.0775,0.5736065 0.0413,0.2945548 0.1757,0.5426009 0.11885,0.2118727 0.34106,0.3203928 0.22738,0.1085202 0.63562,0.1085202 0.0207,0 0.0362,0 0.0207,0 0.0362,0 z m -4.51133,-1.038693 q 0.0413,-0.1136878 0.12402,-0.1188554 0.0827,-0.010335 0.0517,0.1291907 -0.0362,0.124023 -0.0775,0.2428784 -0.0362,0.1136878 -0.0827,0.2273756 0.0362,0.093017 0.1757,0.1860346 0.14469,0.093017 0.32556,0.1550288 0.18087,0.067179 0.36174,0.08785 0.18603,0.020671 0.30489,-0.025838 0,-0.1860346 -0.031,-0.346231 -0.031,-0.1653641 -0.10852,-0.3669015 l 0.32039,-0.5529361 q 0.0103,-0.020671 0.031,-0.015503 0.0207,0 0.0258,0.020671 0.12402,0.3565663 0.12402,0.6614563 0.005,0.30489 -0.0827,0.6252828 -0.0258,0.098185 -0.0775,0.2273756 -0.0517,0.124023 -0.12402,0.2428784 -0.0724,0.1188555 -0.16536,0.2118727 -0.093,0.08785 -0.20671,0.098185 -0.11885,0.015503 -0.28422,-0.010335 -0.16019,-0.031006 -0.32556,-0.098185 -0.17053,-0.072347 -0.33073,-0.1756993 -0.16019,-0.1085202 -0.26871,-0.2480461 -0.1447,0.2273756 -0.39791,0.3720691 -0.24805,0.1446936 -0.54777,0.1963698 -0.29972,0.051676 -0.61495,0.015503 -0.31522,-0.041341 -0.58911,-0.1808669 -0.31005,0.1808669 -0.60978,0.2377108 -0.29455,0.056844 -0.55293,0.056844 h -0.093 q -0.1602,0 -0.23771,-0.124023 -0.0775,-0.1291907 -0.0775,-0.2790519 0,-0.1498612 0.0775,-0.2790518 0.0775,-0.1291907 0.23771,-0.1291907 h 0.093 q 0.32556,0 0.59427,-0.02067 0.27389,-0.025838 0.52193,-0.1343583 0.23255,-0.093017 0.43409,-0.2893871 0.20153,-0.2015374 0.36173,-0.470254 0.0517,-0.093017 0.11369,-0.098185 0.062,-0.010335 0.0413,0.1085201 -0.0155,0.093017 -0.0517,0.2067051 -0.0362,0.1136878 -0.0827,0.2325432 -0.0465,0.1188554 -0.10335,0.2273756 -0.0568,0.1033525 -0.11369,0.1756993 0.15503,0.041341 0.33073,0.051676 0.1757,0.010335 0.3514,-0.010335 0.26355,-0.025838 0.49609,-0.1291907 0.23771,-0.1033525 0.41341,-0.3100576 0.0982,-0.1136878 0.1757,-0.2583813 0.0775,-0.1446936 0.14986,-0.3255605 z m -0.23255,3.4778134 q -0.50643,0.160196 -0.99735,0.32556 -0.49093,0.165364 -0.94051,0.310058 -0.0827,0.02584 -0.0413,-0.05168 l 0.21187,-0.39274 q 0.0155,-0.03101 0.0258,-0.04651 0.0155,-0.0155 0.0465,-0.02584 0.13953,-0.05168 0.3669,-0.12919 0.22738,-0.07235 0.49093,-0.160197 0.26871,-0.08268 0.54776,-0.170532 0.27906,-0.08785 0.53227,-0.165364 0.0413,-0.0155 0.0517,-0.01033 0.0103,0.01033 -0.0103,0.05168 l -0.22221,0.403075 q -0.0155,0.02067 -0.031,0.03617 -0.0103,0.02067 -0.031,0.02584 z M 196.65861,8.7112178 q 0.25321,0.041341 0.47025,0.072347 0.22221,0.025838 0.43408,0.041341 0.21188,0.010335 0.42892,0.015503 0.21704,0 0.45992,-0.00517 l 0.85782,-0.8371556 q 0.062,-0.093017 0.0879,-0.2635489 0.0258,-0.1705317 0.0258,-0.3927397 0.005,-0.2273755 -0.0155,-0.4960921 -0.0155,-0.2687166 -0.0465,-0.5581037 -0.0362,-0.2842195 -0.0775,-0.5787742 -0.0362,-0.2997224 -0.0827,-0.5787742 -0.0413,-0.2842195 -0.0827,-0.5374332 -0.0413,-0.2583813 -0.0724,-0.470254 -0.0258,-0.1912022 -0.0775,-0.3927397 -0.0517,-0.2067051 -0.15503,-0.3617339 -0.0362,-0.062012 -0.0465,-0.077514 -0.005,-0.015503 0.0258,-0.082682 l 0.31006,-0.5994447 q 0.0207,-0.041341 0.0413,-0.046509 0.0258,-0.010335 0.0413,0.046509 0.0775,0.2480461 0.2067,0.4857569 0.13436,0.2377109 0.37207,0.3824044 -0.14469,0.2480461 -0.2222,0.3772368 -0.0775,0.1291906 -0.0568,0.2945547 0.062,0.3410634 0.12919,0.7441382 0.0672,0.4030749 0.10335,0.8578261 0.0362,0.4547511 0.0207,0.9611786 -0.0103,0.5012598 -0.10852,1.0490282 0.30489,-0.2583813 0.66146,-0.5529361 0.36173,-0.2945547 0.72864,-0.4754216 0.27905,-0.1291907 0.60978,-0.1291907 0.33589,-0.00517 0.64078,0.098185 0.30489,0.098185 0.5271,0.2842195 0.22738,0.1808669 0.27905,0.4185778 -0.031,0.4392482 -0.23771,0.7803116 -0.20154,0.3358957 -0.5271,0.5529361 0.31006,0.031006 0.66146,0.041341 0.35657,0.00517 0.65112,0.00517 h 0.093 q 0.16536,0 0.24804,0.1291907 0.0827,0.124023 0.0827,0.2790518 0,0.1498612 -0.0827,0.2790519 -0.0827,0.124023 -0.24804,0.124023 h -0.093 q -0.28939,0 -0.7338,-0.00517 -0.44442,-0.00517 -0.94568,-0.015503 -0.49609,-0.010335 -0.99735,-0.025838 -0.50126,-0.02067 -0.89917,-0.046509 -0.54777,0.077514 -1.03352,0.098185 -0.48059,0.02067 -0.91984,-0.010335 -0.18087,-0.010335 -0.39274,-0.08785 -0.21187,-0.077514 -0.42375,-0.1860345 -0.2067,-0.1085202 -0.3979,-0.2325432 -0.1912,-0.1240231 -0.3359,-0.2325432 -0.0465,-0.031006 -0.0465,-0.056844 0.005,-0.031006 0.031,-0.046509 0.031,-0.02067 0.0672,-0.031006 0.0413,-0.010335 0.062,-0.00517 z m 5.91176,-0.8216526 q -0.13952,-0.1653641 -0.34106,-0.2790519 -0.19637,-0.1188554 -0.41858,-0.1860345 -0.2222,-0.067179 -0.44958,-0.077514 -0.22738,-0.010335 -0.42891,0.036173 -0.25838,0.067179 -0.50643,0.2118726 -0.24288,0.1446936 -0.49093,0.3410634 -0.24287,0.1963698 -0.49609,0.4340807 -0.24804,0.2377108 -0.51676,0.4805893 0.41858,-0.020671 0.91467,-0.072347 0.49609,-0.056844 0.99218,-0.1653641 0.4961,-0.1085201 0.95085,-0.2842194 0.45475,-0.1756994 0.79064,-0.4392481 z m -1.18855,3.5863328 q -0.50643,0.160197 -0.99735,0.325561 -0.49093,0.165364 -0.94051,0.310057 -0.0827,0.02584 -0.0413,-0.05168 l 0.21187,-0.39274 q 0.0155,-0.03101 0.0258,-0.04651 0.0155,-0.0155 0.0465,-0.02584 0.13952,-0.05168 0.3669,-0.129191 0.22738,-0.07235 0.49092,-0.160197 0.26872,-0.08268 0.54777,-0.170531 0.27905,-0.08785 0.53227,-0.165364 0.0413,-0.0155 0.0517,-0.01034 0.0103,0.01034 -0.0103,0.05168 l -0.22221,0.403075 q -0.0155,0.02067 -0.031,0.03617 -0.0103,0.02067 -0.031,0.02584 z m -8.55759,-2.9662176 q -0.36173,0.1085202 -0.79065,0.2325432 -0.42374,0.1188554 -0.87849,0.2428785 -0.45475,0.1188554 -0.91984,0.2325432 -0.46509,0.1085201 -0.89917,0.1963698 -0.43408,0.082682 -0.82165,0.1343583 -0.38757,0.046509 -0.69246,0.046509 h -0.093 q -0.16536,0 -0.24288,-0.124023 -0.0827,-0.1291907 -0.0827,-0.2790519 0,-0.1550288 0.0827,-0.2790518 0.0775,-0.1291907 0.24288,-0.1291907 h 0.093 q 0.0775,0 0.21187,-0.00517 0.13953,-0.010335 0.30489,-0.02067 0.16537,-0.010335 0.34623,-0.025838 0.18087,-0.015503 0.3514,-0.031006 0.17053,-0.02067 0.31523,-0.041341 0.14986,-0.020671 0.24287,-0.041341 -0.12402,-0.067179 -0.24287,-0.1860346 -0.11369,-0.1188554 -0.21188,-0.2687166 -0.0982,-0.1498612 -0.16536,-0.3203929 -0.0672,-0.1705316 -0.093,-0.3410633 -0.0465,-0.3203929 0.062,-0.6562886 0.10852,-0.3410634 0.31523,-0.6252829 0.21187,-0.2893871 0.49609,-0.4857569 0.28939,-0.2015374 0.59945,-0.2480461 0.38757,-0.056844 0.70279,0.00517 0.31523,0.056844 0.56327,0.1912021 0.24805,0.1291907 0.42892,0.3100576 0.18086,0.180867 0.30489,0.3617339 0.0207,0.031006 0.005,0.056844 -0.0103,0.025838 -0.0413,0.041341 -0.0258,0.015503 -0.062,0.020671 -0.0362,0 -0.062,-0.015503 -0.33073,-0.1912022 -0.66662,-0.2428785 -0.3359,-0.051676 -0.74931,-0.020671 -0.20154,0.015503 -0.41341,0.062012 -0.2067,0.046509 -0.39791,0.1188554 -0.1912,0.072347 -0.35139,0.1653641 -0.1602,0.093017 -0.25322,0.1963698 0,0.093017 0.0362,0.222208 0.0362,0.124023 0.10335,0.2583813 0.0672,0.1343583 0.15503,0.2687166 0.093,0.1291907 0.19637,0.2377108 0.10852,0.1085202 0.23771,0.2170403 0.12919,0.1033526 0.25321,0.1860346 0.12919,0.082682 0.24288,0.1343583 0.11369,0.051676 0.18603,0.051676 0.6718,-0.1240231 1.33325,-0.3100576 0.66146,-0.1860346 1.25573,-0.3513987 0.0517,-0.010335 0.031,0.020671 -0.13436,0.248046 -0.29455,0.470254 -0.1602,0.2222079 -0.27389,0.3669015 z m -1.9482,-5.3691641 q -0.25838,0.1188554 -0.5426,0.2480461 -0.27905,0.1291906 -0.5426,0.2480461 -0.26355,0.1188554 -0.49092,0.2222079 -0.22738,0.1033525 -0.38757,0.1705317 -0.0362,0.015503 -0.0517,0 -0.0155,-0.015503 0,-0.046509 l 0.25321,-0.5064274 q 0.0258,-0.041341 0.0517,-0.056844 0.031,-0.020671 0.0568,-0.036173 l 1.88619,-0.8371555 q 0.0827,-0.036173 0.0517,0.041341 l -0.21187,0.4805893 q -0.0155,0.046509 -0.0724,0.072347 z m -6.06679,6.4543657 h -0.093 q -0.15503,0 -0.23255,-0.124023 -0.0775,-0.1291907 -0.0775,-0.2842195 0,-0.077514 0.0207,-0.1498612 0.0155,-0.072347 0.0568,-0.1291906 0.0362,-0.056844 0.0982,-0.093017 0.0568,-0.036173 0.13436,-0.036173 h 0.093 q 0.1602,0 0.35657,-0.010335 0.20154,-0.010335 0.37724,-0.056844 0.17053,-0.046509 0.33589,-0.1395259 0.16537,-0.098185 0.30489,-0.2687166 0.10335,-0.124023 0.16537,-0.2532137 0.0672,-0.1291907 0.12919,-0.2945547 0.0258,-0.067179 0.0827,-0.072347 0.062,-0.00517 0.0672,0.025838 0.005,0.062012 -0.0103,0.1498612 -0.0103,0.08785 -0.0103,0.1601964 0,0.1343583 0.0672,0.2687166 0.0672,0.1343583 0.2067,0.2428785 0.13953,0.1085202 0.38241,0.1808669 0.24804,0.067179 0.5581,0.067179 h 0.0982 q 0.0775,0 0.13436,0.036173 0.0568,0.036173 0.093,0.093017 0.0413,0.056844 0.0568,0.1291906 0.0207,0.072347 0.0207,0.1498612 0,0.1550288 -0.0775,0.2842195 -0.0724,0.124023 -0.22738,0.124023 h -0.0982 q -0.27905,0 -0.53227,-0.051676 -0.24804,-0.056844 -0.42374,-0.165364 -0.34106,-0.2067051 -0.53227,-0.60978 -0.11368,0.2325432 -0.26871,0.387572 -0.15503,0.1550288 -0.34107,0.2532137 -0.1912,0.098185 -0.43408,0.1446936 -0.24288,0.041341 -0.48059,0.041341 z m 1.4211,0.723468 0.63562,0.527098 q 0.0413,0.03617 0.005,0.08268 l -0.42375,0.532265 q -0.0362,0.05168 -0.0827,0.01034 l -0.64079,-0.527098 q -0.0413,-0.03617 0,-0.08785 l 0.42892,-0.527098 q 0.0362,-0.04651 0.0775,-0.01033 z m -0.83199,-6.5473832 q 0,0.08785 0.0465,0.1395259 0.0517,0.046509 0.11886,0.072347 0.0672,0.025838 0.14469,0.031006 0.0827,0.00517 0.14469,0.00517 0.1447,0 0.26872,-0.062012 0.12919,-0.062012 0.23254,-0.1601965 0.0103,-0.093017 -0.0207,-0.1963698 -0.031,-0.1033525 -0.0982,-0.1860345 -0.0672,-0.082682 -0.16537,-0.1291907 -0.0982,-0.051676 -0.22737,-0.041341 -0.0775,0.020671 -0.15503,0.077514 -0.0775,0.051676 -0.1447,0.124023 -0.062,0.072347 -0.10335,0.1601964 -0.0413,0.082682 -0.0413,0.1653641 z m 1.20923,-0.1343583 q 0,0.1756993 -0.0465,0.3410634 -0.0465,0.165364 -0.1447,0.2945547 -0.0982,0.1291907 -0.25321,0.2067051 -0.14986,0.077514 -0.36173,0.077514 -0.26355,0 -0.44442,-0.1705317 -0.18087,-0.1705317 -0.1912,-0.4547512 0,-0.1446935 0.0413,-0.346231 0.0465,-0.206705 0.13952,-0.3979072 0.093,-0.1912022 0.23772,-0.3307281 0.14986,-0.1446936 0.35656,-0.1705317 0.19637,-0.020671 0.32556,0.077514 0.12919,0.098185 0.20671,0.2480461 0.0723,0.1550288 0.10335,0.3307281 0.031,0.1705317 0.031,0.2945547 z m -4.1186,2.5889809 0.14986,-0.6046124 q 0.0155,-0.062011 0.062,-0.062011 0.0465,0 0.062,0.056844 l 0.5271,1.8655133 q 0.10336,0.3669015 0.25838,0.6407857 0.1602,0.2738842 0.43408,0.4599188 0.1602,0.1085201 0.36691,0.1550288 0.2067,0.046509 0.45991,0.046509 h 0.093 q 0.16537,0 0.24805,0.1291907 0.0827,0.1291906 0.0827,0.2790518 0,0.1498612 -0.0827,0.2790519 -0.0827,0.124023 -0.24805,0.124023 h -0.093 q -0.28421,0 -0.53226,-0.051676 -0.24288,-0.056844 -0.45475,-0.2015374 -0.20671,-0.1395259 -0.38757,-0.387572 -0.1757,-0.2532137 -0.33073,-0.6459534 -0.13436,0.4030749 -0.43925,0.6666239 -0.24805,0.2118727 -0.58394,0.3203929 -0.3359,0.1033525 -0.65629,0.1446935 -0.31523,0.046509 -0.59945,0.02067 -0.27905,-0.031006 -0.42891,-0.1705317 -0.0775,-0.072347 -0.11369,-0.1963698 -0.031,-0.124023 -0.031,-0.2583813 0,-0.1395259 0.0207,-0.2687166 0.0258,-0.1343583 0.0672,-0.2273756 0.0155,-0.031006 0.0413,-0.031006 0.031,0 0.0465,0.031006 0.093,0.1705317 0.21187,0.2325432 0.11886,0.056844 0.28422,0.072347 0.24288,0.025838 0.5581,-0.010335 0.31523,-0.036173 0.61495,-0.1291906 0.29972,-0.08785 0.53743,-0.2273756 0.24288,-0.1446936 0.33073,-0.3307281 z m -1.2454,-1.6691435 q 0.17054,-0.098185 0.3359,-0.1963699 0.16536,-0.098185 0.32039,-0.2118727 0.1602,-0.1136877 0.31523,-0.248046 0.15503,-0.1343583 0.29972,-0.30489 -0.13953,-0.041341 -0.29455,-0.1395259 -0.15503,-0.098185 -0.24805,-0.2118727 -0.0465,-0.056844 -0.0568,-0.1446936 -0.0103,-0.093017 0.0155,-0.1705317 0.0413,-0.124023 0.11369,-0.2687166 0.0775,-0.1446935 0.18086,-0.2635489 0.10336,-0.1188555 0.22738,-0.1912022 0.12919,-0.077514 0.25838,-0.072347 0.1602,0.010335 0.23254,0.1550288 0.0724,0.1395259 0.0879,0.3255605 0.0207,0.1860346 0,0.3669015 -0.0155,0.1808669 -0.0258,0.263549 0,0.025838 0.0155,0.041341 0.062,0.036173 0.0827,0.067179 0.0258,0.031006 0.0413,0.072347 0.031,0.077514 0.0103,0.1860346 -0.0155,0.1085201 -0.062,0.165364 -0.0413,0.051676 -0.0723,0.051676 -0.031,-0.00517 -0.062,-0.051676 -0.0258,-0.031006 -0.0517,-0.056844 -0.0207,-0.031006 -0.0672,-0.051676 -0.14469,0.1756993 -0.31006,0.3358957 -0.16019,0.1601964 -0.34106,0.2945547 -0.18603,0.1291907 -0.38757,0.2325432 -0.20154,0.1033526 -0.42375,0.1705317 -0.0879,0.025838 -0.18086,0.036173 -0.093,0.00517 -0.10336,-0.02067 -0.0103,-0.031006 0.0362,-0.072347 0.0465,-0.046509 0.11368,-0.08785 z m 0.97152,-1.7363226 q 0.10852,0.1498611 0.25838,0.2377108 0.14986,0.082682 0.27388,0.1136878 h 0.0103 q 0,-0.041341 0.005,-0.1085202 0.005,-0.072347 0,-0.1446935 0,-0.072347 -0.0207,-0.139526 -0.0155,-0.067179 -0.062,-0.1136877 -0.0413,-0.036173 -0.11885,-0.031006 -0.0724,0 -0.14469,0.025838 -0.0724,0.025838 -0.13436,0.072347 -0.0568,0.041341 -0.0672,0.08785 z m -3.52432,0.077514 q 0.0827,0.00517 0.0775,0.1912022 -0.0103,0.1963698 0.005,0.387572 0.0155,0.1860346 0.0413,0.3772368 0.0517,0.4599187 0.12402,0.9508433 0.0724,0.4857569 0.1447,0.9818491 0.0672,0.4909245 0.13435,0.9818491 0.0672,0.4909245 0.11369,0.9560109 0.0207,0.180867 0.0258,0.4237454 0.0103,0.2428785 -0.005,0.4960922 -0.0103,0.2480461 -0.0568,0.4805893 -0.0413,0.2325432 -0.11886,0.387572 -0.0413,0.08785 -0.0982,0.1136878 -0.0465,0.00517 -0.0413,-0.041341 -0.031,-0.4495836 -0.0775,-0.9043347 -0.0413,-0.4599188 -0.10852,-0.9353405 -0.0672,-0.4909245 -0.13436,-0.9715138 -0.0672,-0.4805893 -0.12919,-0.9611786 -0.0672,-0.4805893 -0.13435,-0.9611786 -0.062,-0.4805893 -0.12403,-0.9663462 0.0155,-0.1188554 0.0465,-0.2428784 0.031,-0.1291907 0.0879,-0.263549 0.12402,-0.3358957 0.16537,-0.4082425 0.0465,-0.072347 0.062,-0.072347 z m -2.21692,-0.2893871 q 0.0155,-0.046509 0.0413,-0.056844 0.0258,-0.010335 0.0413,0.056844 0.0413,0.1240231 0.093,0.2532137 0.0517,0.1291907 0.11886,0.2532137 0.0723,0.1240231 0.16536,0.2325432 0.093,0.1033526 0.21187,0.1756993 -0.0723,0.1240231 -0.12919,0.2170404 -0.0517,0.08785 -0.0879,0.165364 -0.0362,0.072347 -0.0517,0.1446936 -0.0155,0.067179 -0.005,0.1446935 0.0568,0.4960922 0.12919,0.997352 0.0775,0.4960922 0.14469,0.9921843 0.0724,0.4960922 0.12403,0.9921844 0.0568,0.4960922 0.0723,0.9973519 0.005,0.1653641 -0.0207,0.3358958 -0.0258,0.1705317 -0.0827,0.3255605 -0.0568,0.1550288 -0.14469,0.2945547 -0.0827,0.1343583 -0.1912,0.2273756 -0.14987,0.1291906 -0.37207,0.1860345 -0.21704,0.051676 -0.53227,0.051676 h -0.093 q -0.16536,0 -0.24804,-0.124023 -0.0879,-0.1291907 -0.0879,-0.2790519 0,-0.1550288 0.0879,-0.2790518 0.0827,-0.1291907 0.24804,-0.1291907 h 0.093 q 0.17053,0 0.33073,-0.010335 0.1602,-0.015503 0.29455,-0.046509 0.13436,-0.036173 0.22738,-0.093017 0.0982,-0.062012 0.13953,-0.1550288 -0.10336,-1.0903692 -0.26872,-2.1497327 -0.16537,-1.0645311 -0.32039,-2.1393975 -0.031,-0.2170403 -0.0672,-0.4237454 -0.031,-0.2118727 -0.14986,-0.4082425 -0.0413,-0.056844 -0.0465,-0.072347 -0.005,-0.02067 0.0258,-0.082682 0.0879,-0.1498612 0.1602,-0.30489 0.0775,-0.1601964 0.14986,-0.2893871 z m -1.36942,5.2968175 q -0.11369,-0.2170404 -0.32556,-0.3669015 -0.20671,-0.1550288 -0.44442,-0.2377109 -0.23771,-0.082682 -0.47542,-0.08785 -0.23771,-0.010335 -0.41341,0.062011 -0.24288,0.098185 -0.49609,0.2687166 -0.25321,0.165364 -0.49609,0.3669015 -0.23771,0.2015374 -0.45992,0.428913 -0.21704,0.222208 -0.40308,0.4340807 0.42375,0.046509 0.88367,0.025838 0.46508,-0.025838 0.97151,-0.1343583 0.50126,-0.1033525 0.94568,-0.2945547 0.44958,-0.1912022 0.71313,-0.4650854 z m -0.11886,0.8526584 q 0.26355,0.015503 0.52193,0.02067 0.26355,0 0.49093,0 h 0.0879 q 0.17053,0 0.25321,0.1291907 0.0827,0.124023 0.0827,0.2790518 0,0.1498612 -0.0878,0.2790518 -0.0827,0.1240231 -0.24805,0.1240231 h -0.0879 q -0.25321,0 -0.58394,0 -0.33073,0 -0.71313,0 -0.37724,-0.00517 -0.79065,-0.010335 -0.40824,-0.010335 -0.81649,-0.025838 -0.64595,0.072347 -1.16271,0.056844 -0.5116,-0.010335 -0.95085,-0.093017 -0.0413,0.062012 -0.093,0.1756993 -0.0465,0.1188554 -0.0775,0.1963698 -0.0568,0.1395264 -0.14986,0.1136884 -0.0465,-0.010336 -0.062,-0.062012 -0.0155,-0.051676 0,-0.1291907 0.0207,-0.093017 0.0465,-0.1808669 0.031,-0.082682 0.0723,-0.1912022 -0.27905,-0.1033525 -0.45991,-0.2273756 -0.1757,-0.1291906 -0.37724,-0.3669015 -0.13436,0.1860346 -0.28422,0.3255605 -0.14469,0.1395259 -0.32039,0.2325432 -0.35657,0.1912022 -0.85783,0.1912022 h -0.093 q -0.16536,0 -0.24287,-0.124023 -0.0827,-0.1291907 -0.0827,-0.2790519 0,-0.1550288 0.0827,-0.2790518 0.0775,-0.1291907 0.24287,-0.1291907 h 0.093 q 0.26355,0 0.49093,-0.025838 0.23254,-0.025838 0.44958,-0.1550288 0.23771,-0.139526 0.37207,-0.3669015 0.13436,-0.2325432 0.24804,-0.4754217 0.0362,-0.072347 0.093,-0.093017 0.062,-0.025838 0.0672,0.051676 0.005,0.2015374 0.10335,0.3772367 0.0982,0.1756994 0.24805,0.3100577 0.14986,0.1291906 0.32556,0.2118727 0.1757,0.082682 0.34106,0.1033525 0.25322,-0.3100576 0.55294,-0.6304505 0.30489,-0.3203928 0.62011,-0.6097799 0.3204,-0.2893871 0.63562,-0.527098 0.31523,-0.2428784 0.59428,-0.3927396 0.23771,-0.1291907 0.57361,-0.1085202 0.33589,0.015503 0.64595,0.1498612 0.31522,0.1291907 0.5426,0.3565663 0.22738,0.2222079 0.24288,0.5064274 -0.0155,0.4134101 -0.17053,0.733803 -0.14986,0.3203928 -0.40825,0.5581037 z m -2.68716,-4.6405287 q -0.11369,0.2273756 -0.25838,0.3410634 -0.15503,0.1188554 -0.3669,0.124023 -0.17053,0.00517 -0.29973,-0.08785 -0.12402,-0.093017 -0.14469,-0.3255605 -0.0103,-0.1033526 0.0103,-0.2118727 0.0207,-0.1136878 0.062,-0.2118727 0.0413,-0.093017 0.093,-0.1601965 0.0568,-0.072347 0.11885,-0.093017 0.062,-0.00517 0.0103,0.093017 -0.031,0.056844 -0.0517,0.1343583 -0.0155,0.077514 -0.0207,0.1550288 0,0.072347 0.0155,0.1240231 0.0155,0.051676 0.0672,0.098185 0.0775,0.056844 0.16537,0.056844 0.0878,-0.00517 0.17053,-0.041341 0.0879,-0.036173 0.15503,-0.082682 0.0723,-0.051676 0.14469,-0.1343583 0.0672,-0.077514 0.0982,-0.1963698 0.031,-0.1188554 0.0413,-0.1963698 0.005,-0.067179 0.0362,-0.1343583 0.031,-0.067179 0.10335,-0.067179 0.0155,0 0.0207,0.031006 0.0103,0.025838 0.0155,0.062012 0.005,0.036173 0.005,0.072347 0,0.031006 0,0.046509 0,0.1498611 0.0465,0.2377108 0.0465,0.082682 0.18604,0.1136878 0.0723,0.015503 0.18603,-0.015503 0.11886,-0.031006 0.2067,-0.1033525 0.0103,-0.010335 0.005,-0.056844 -0.005,-0.046509 -0.0207,-0.098185 -0.0103,-0.051676 -0.0362,-0.1085202 -0.0207,-0.062012 -0.0258,-0.072347 l 0.1912,-0.3617338 q 0.0517,0.025838 0.0775,0.1136877 0.031,0.08785 0.0362,0.2015375 0.0103,0.1085202 0,0.2222079 -0.0103,0.1136878 -0.0258,0.1912022 -0.062,0.1912022 -0.17053,0.346231 -0.10335,0.1550288 -0.32039,0.1963698 -0.1912,0.036173 -0.32039,-0.025838 -0.1292,-0.062012 -0.20671,-0.1756993 z m 0.93017,-2.077386 q -0.25838,0.1188555 -0.5426,0.2480461 -0.27905,0.1291907 -0.5426,0.2480461 -0.26355,0.1188554 -0.49092,0.222208 -0.22738,0.1033525 -0.38758,0.1705316 -0.0362,0.015503 -0.0517,0 -0.0155,-0.015503 0,-0.046509 l 0.25321,-0.5064274 q 0.0258,-0.041341 0.0517,-0.056844 0.031,-0.020671 0.0568,-0.036173 l 1.88619,-0.8371555 q 0.0827,-0.036173 0.0517,0.041341 l -0.21187,0.4805893 q -0.0155,0.046509 -0.0724,0.072347 z m -6.45953,6.8471053 q 0.0155,0.00517 0.031,0 0.0155,-0.010335 -0.0103,-0.046509 -0.0879,-0.098185 -0.14986,-0.2015374 -0.062,-0.1085202 -0.10852,-0.2015375 -0.0465,-0.093017 -0.0775,-0.165364 -0.031,-0.072347 -0.0517,-0.1136878 -0.0517,-0.093017 -0.13436,-0.077514 -0.093,0.020671 -0.22738,0.1085201 -0.13436,0.08785 -0.22221,0.2067051 -0.031,0.036173 -0.031,0.051676 0,0.015503 0.0413,0.041341 0.0827,0.062012 0.20154,0.1291907 0.11885,0.067179 0.24804,0.124023 0.12919,0.051676 0.25838,0.093017 0.12919,0.041341 0.23255,0.051676 z m 0.51159,0.4805893 q -0.0465,0.1085202 -0.10335,0.2325432 -0.0517,0.1291907 -0.0982,0.1446936 -0.17053,0.031006 -0.43924,-0.025838 -0.26872,-0.051676 -0.53227,-0.1601965 -0.26355,-0.1085201 -0.46509,-0.2583813 -0.19637,-0.1498612 -0.21704,-0.3152252 -0.13952,0.1860345 -0.29972,0.3048899 -0.15503,0.1136878 -0.31522,0.1860346 -0.16537,0.067179 -0.32556,0.093017 -0.15503,0.025838 -0.29456,0.025838 h -0.093 q -0.16536,0 -0.24804,-0.124023 -0.0827,-0.1291907 -0.0827,-0.2790519 0,-0.1550288 0.0827,-0.2790518 0.0827,-0.1291907 0.24804,-0.1291907 h 0.093 q 0.1912,0 0.38241,-0.010335 0.1912,-0.010335 0.37207,-0.062012 0.18086,-0.051676 0.35139,-0.1601964 0.17054,-0.1136878 0.3204,-0.3152252 0.0827,-0.1085202 0.18086,-0.2170404 0.0982,-0.1136877 0.19637,-0.2015374 0.10336,-0.08785 0.20671,-0.1395259 0.10335,-0.056844 0.19637,-0.056844 0.093,0 0.20154,0.08785 0.10852,0.08785 0.21704,0.2067051 0.11368,0.1136878 0.21187,0.2377108 0.10335,0.1240231 0.1757,0.1912022 0.12402,0.1291907 0.26355,0.2118727 0.13952,0.082682 0.28938,0.1343583 0.14987,0.051676 0.31523,0.072347 0.16536,0.02067 0.34623,0.02067 h 0.093 q 0.16019,0 0.24288,0.1291907 0.0827,0.124023 0.0827,0.2790518 0,0.1498612 -0.0827,0.2790519 -0.0827,0.124023 -0.24288,0.124023 h -0.093 q -0.14986,0 -0.29972,-0.00517 -0.14986,-0.00517 -0.29456,-0.031006 -0.14469,-0.02067 -0.28422,-0.067179 -0.13435,-0.046509 -0.25838,-0.1240231 z m -0.42374,-5.0642742 q -0.25838,0.1188554 -0.5426,0.2480461 -0.27905,0.1291906 -0.5426,0.2480461 -0.26355,0.1188554 -0.49093,0.2222079 -0.22737,0.1033526 -0.38757,0.1705317 -0.0362,0.015503 -0.0517,0 -0.0155,-0.015503 0,-0.046509 l 0.25321,-0.5064275 q 0.0258,-0.041341 0.0517,-0.056844 0.031,-0.02067 0.0568,-0.036173 l 1.88618,-0.8371556 q 0.0827,-0.036173 0.0517,0.041341 l -0.21187,0.4805893 q -0.0155,0.046509 -0.0724,0.072347 z m -4.98676,1.9223572 0.14986,-0.6046124 q 0.0155,-0.062011 0.062,-0.062011 0.0465,0 0.062,0.056844 l 0.5271,1.8655133 q 0.10335,0.3669015 0.25838,0.6407857 0.1602,0.2738842 0.43408,0.4599188 0.1602,0.1085201 0.3669,0.1550288 0.20671,0.046509 0.45992,0.046509 h 0.093 q 0.16536,0 0.24805,0.1291907 0.0827,0.1291906 0.0827,0.2790518 0,0.1498612 -0.0827,0.2790519 -0.0827,0.124023 -0.24805,0.124023 h -0.093 q -0.28422,0 -0.53226,-0.051676 -0.24288,-0.056844 -0.45475,-0.2015374 -0.20671,-0.1395259 -0.38758,-0.387572 -0.17569,-0.2532137 -0.33072,-0.6459534 -0.13436,0.4030749 -0.43925,0.6666239 -0.24805,0.2118727 -0.58394,0.3203929 -0.3359,0.1033525 -0.65629,0.1446935 -0.31523,0.046509 -0.59945,0.02067 -0.27905,-0.031006 -0.42891,-0.1705317 -0.0775,-0.072347 -0.11369,-0.1963698 -0.031,-0.124023 -0.031,-0.2583813 0,-0.1395259 0.0207,-0.2687166 0.0258,-0.1343583 0.0672,-0.2273756 0.0155,-0.031006 0.0413,-0.031006 0.031,0 0.0465,0.031006 0.093,0.1705317 0.21187,0.2325432 0.11885,0.056844 0.28422,0.072347 0.24288,0.025838 0.5581,-0.010335 0.31523,-0.036173 0.61495,-0.1291906 0.29972,-0.08785 0.53743,-0.2273756 0.24288,-0.1446936 0.33073,-0.3307281 z m -7.25018,5.59654 h -0.66662 q 1.54512,-2.4804611 1.54512,-4.9660896 0,-0.9715138 -0.22221,-1.9275248 -0.1757,-0.775144 -0.49093,-1.4882765 -0.20153,-0.4650864 -0.83198,-1.550288 h 0.66662 q 0.97151,1.2970743 1.4366,2.6044839 0.39791,1.1265426 0.39791,2.3564378 0,1.3952592 -0.53744,2.6975012 -0.53226,1.302242 -1.29707,2.273756 z m -1.71049,-4.1341017 q -0.0207,0.046509 -0.0672,0.139526 -0.0465,0.08785 -0.10335,0.1860345 -0.0517,0.098185 -0.10852,0.1912022 -0.0568,0.08785 -0.0982,0.1395259 -0.031,0.056844 -0.14987,0.031006 -0.54776,-0.1033525 -1.02319,-0.056844 -0.47542,0.046509 -0.94567,0.1963698 -0.40824,0.1343583 -0.77514,0.2997224 -0.36691,0.1601964 -0.72347,0.2842194 -0.68213,0.2480461 -1.32292,0.3720692 -0.63561,0.124023 -1.31774,0.124023 h -0.093 q -0.16536,0 -0.24804,-0.124023 -0.0827,-0.1291907 -0.0827,-0.2842195 0,-0.1550288 0.0827,-0.2790518 0.0827,-0.1291907 0.24804,-0.1291907 h 0.093 q 0.23771,0 0.49609,-0.010335 0.25838,-0.010335 0.50643,-0.031006 0.24805,-0.020671 0.47025,-0.046509 0.22221,-0.031006 0.39274,-0.067179 0.35657,-0.077514 0.74931,-0.2170403 0.39791,-0.1446936 0.83715,-0.3255605 -0.25321,-0.036173 -0.5891,-0.08785 -0.3359,-0.056844 -0.69247,-0.1085202 -0.35656,-0.056844 -0.69763,-0.1033525 -0.34106,-0.046509 -0.59944,-0.072347 -0.0362,-0.010335 -0.10335,0.010335 -0.0672,0.02067 -0.13436,0.046509 -0.031,0.010335 -0.062,-0.010335 -0.031,-0.020671 -0.0207,-0.067179 0.062,-0.2222079 0.18086,-0.4495835 0.11886,-0.2273756 0.22221,-0.387572 0.0465,-0.067179 0.23254,-0.1550288 0.19121,-0.093017 0.45476,-0.2067051 0.26871,-0.1188554 0.57877,-0.2635489 0.31006,-0.1446936 0.60461,-0.3152253 0.29456,-0.1756993 0.53744,-0.3824044 0.24287,-0.2118727 0.37206,-0.4547511 0.10336,-0.1963698 0.22738,-0.4392483 0.12402,-0.2428785 0.26872,-0.4495835 0.14986,-0.2118727 0.31522,-0.346231 0.17053,-0.1395259 0.3669,-0.1291907 0.1757,0.010335 0.3359,0.1860346 0.1602,0.1756993 0.28422,0.4185777 0.12402,0.2428785 0.19637,0.5064275 0.0723,0.2635489 0.0723,0.4444159 0,0.093017 -0.0362,0.2170403 -0.0362,0.124023 -0.0879,0.2377108 -0.0465,0.1085202 -0.10335,0.1963698 -0.0568,0.082682 -0.0982,0.098185 -0.10852,0.041341 -0.29972,0.031006 -0.18603,-0.010335 -0.41341,-0.067179 -0.22221,-0.062012 -0.45475,-0.1705317 -0.23254,-0.1136878 -0.42374,-0.2790519 -0.45476,0.5942771 -0.97669,0.9405081 -0.52193,0.346231 -1.14721,0.5270979 0.37724,0.067179 0.70797,0.1291907 0.33072,0.056844 0.64078,0.1136878 0.31523,0.051676 0.62528,0.098185 0.31523,0.046509 0.65629,0.08785 0.53227,0.062011 1.10071,0.1188554 0.56844,0.051676 1.1007,0.072347 0.0775,0.00517 0.0413,0.072347 z M 151.59691,5.316087 q -0.031,-0.077514 -0.093,-0.2170403 -0.062,-0.1395259 -0.14986,-0.2790518 -0.0827,-0.139526 -0.19121,-0.2377109 -0.10335,-0.1033525 -0.2222,-0.1033525 -0.0517,0 -0.12919,0.051676 -0.0724,0.046509 -0.1447,0.1188554 -0.0723,0.067179 -0.12919,0.1395259 -0.0568,0.067179 -0.0775,0.1136878 0.24804,0.2170403 0.5271,0.3100576 0.28422,0.093017 0.60978,0.1033525 z m -3.28145,4.971257 0.63562,0.527098 q 0.0413,0.03617 0.005,0.08268 l -0.42375,0.532266 q -0.0362,0.05168 -0.0827,0.01033 l -0.64078,-0.527098 q -0.0414,-0.03617 0,-0.08785 l 0.42891,-0.527098 q 0.0362,-0.04651 0.0775,-0.01034 z m 1.48828,-7.5395672 q 0.17053,-0.098185 0.3359,-0.1963699 0.16536,-0.098185 0.32039,-0.2118726 0.16019,-0.1136878 0.31522,-0.2480461 0.15503,-0.1343583 0.29973,-0.30489 -0.13953,-0.041341 -0.29456,-0.1395259 -0.15503,-0.098185 -0.24804,-0.2118727 -0.0465,-0.056844 -0.0568,-0.1446936 -0.0103,-0.093017 0.0155,-0.1705317 0.0413,-0.12402301 0.11369,-0.26871656 0.0775,-0.14469355 0.18087,-0.26354897 0.10335,-0.11885541 0.22737,-0.19120219 0.1292,-0.0775144 0.25839,-0.0723468 0.16019,0.0103353 0.23254,0.1550288 0.0724,0.13952592 0.0878,0.32556049 0.0207,0.18603456 0,0.36690153 -0.0155,0.1808669 -0.0258,0.263549 0,0.025838 0.0155,0.041341 0.062,0.036173 0.0827,0.067179 0.0258,0.031006 0.0413,0.072347 0.031,0.077514 0.0103,0.1860346 -0.0155,0.1085201 -0.062,0.165364 -0.0413,0.051676 -0.0724,0.051676 -0.031,-0.00517 -0.062,-0.051676 -0.0258,-0.031006 -0.0517,-0.056844 -0.0207,-0.031006 -0.0672,-0.051676 -0.1447,0.1756993 -0.31006,0.3358957 -0.1602,0.1601964 -0.34106,0.2945547 -0.18604,0.1291907 -0.38758,0.2325432 -0.20153,0.1033526 -0.42374,0.1705317 -0.0879,0.025838 -0.18087,0.036173 -0.093,0.00517 -0.10335,-0.020671 -0.0103,-0.031006 0.0362,-0.072347 0.0465,-0.046509 0.11369,-0.08785 z m 0.97151,-1.7363226 q 0.10852,0.1498611 0.25839,0.2377108 0.14986,0.082682 0.27388,0.1136878 h 0.0103 q 0,-0.041341 0.005,-0.1085202 0.005,-0.072347 0,-0.1446935 0,-0.072347 -0.0207,-0.13952594 -0.0155,-0.0671792 -0.062,-0.11368779 -0.0413,-0.0361734 -0.11886,-0.0310058 -0.0723,0 -0.14469,0.0258381 -0.0724,0.0258381 -0.13436,0.0723468 -0.0568,0.041341 -0.0672,0.0878497 z m -2.35127,1.9998712 q -0.25838,0.1188554 -0.5426,0.248046 -0.27905,0.1291907 -0.5426,0.2480461 -0.26355,0.1188554 -0.49092,0.222208 -0.22738,0.1033525 -0.38757,0.1705317 -0.0362,0.015503 -0.0517,0 -0.0155,-0.015503 0,-0.046509 l 0.25321,-0.5064274 q 0.0258,-0.041341 0.0517,-0.056844 0.031,-0.020671 0.0568,-0.036173 l 1.88619,-0.8371555 q 0.0827,-0.036173 0.0517,0.041341 l -0.21187,0.4805893 q -0.0155,0.046509 -0.0724,0.072347 z m -4.04625,5.6533838 q 0.031,0.067179 0.15503,0.1033525 0.12919,0.036173 0.28422,0.051676 0.15503,0.010335 0.30489,0.00517 0.15503,-0.00517 0.23254,-0.015503 0,-0.02067 -0.0568,-0.1033525 -0.0517,-0.082682 -0.13953,-0.1705317 -0.0879,-0.093017 -0.19637,-0.165364 -0.10335,-0.077514 -0.2067,-0.08785 -0.0568,0 -0.12402,0.041341 -0.062,0.036173 -0.11886,0.098185 -0.0568,0.056844 -0.0982,0.1240231 -0.0362,0.067179 -0.0362,0.1188554 z m 1.13688,0.9353404 -0.51676,0.010335 q -0.21704,0.010335 -0.41341,-0.041341 -0.19121,-0.056844 -0.3359,-0.1653641 -0.13952,-0.1136878 -0.21704,-0.2790518 -0.0724,-0.1705317 -0.0465,-0.387572 0.0155,-0.1446936 0.10335,-0.3565663 0.0879,-0.2118727 0.22221,-0.4082425 0.13436,-0.2015374 0.29973,-0.3410634 0.16536,-0.1446935 0.33589,-0.1446935 0.18087,0 0.3359,0.1498612 0.16019,0.1446935 0.28422,0.346231 0.11885,0.206705 0.19637,0.4340806 0.0775,0.222208 0.0982,0.3824044 l 0.41341,-0.015503 h 0.0982 q 0.0775,0 0.13952,0.036173 0.062,0.036173 0.10335,0.093017 0.0413,0.056844 0.062,0.1291906 0.0207,0.072347 0.0207,0.1498612 0.005,0.1498612 -0.0775,0.2790519 -0.0827,0.124023 -0.24804,0.124023 h -0.0982 l -0.43408,0.00517 q -0.093,0.4392481 -0.21704,0.8629931 -0.11886,0.423746 -0.30489,0.780312 -0.1912,0.356566 -0.46509,0.625283 -0.26871,0.268716 -0.66145,0.392739 -0.25838,0.09302 -0.57361,0.118856 -0.31006,0.02584 -0.63562,0.0052 -0.32039,-0.0155 -0.63045,-0.07235 -0.31522,-0.05684 -0.56844,-0.129191 -0.0723,-0.02067 -0.0879,-0.06201 -0.0207,-0.03617 0,-0.07235 0.0155,-0.03617 0.0672,-0.06201 0.0517,-0.02584 0.12403,-0.02067 0.24287,0.02584 0.52709,0.0052 0.28939,-0.0155 0.57878,-0.07235 0.29455,-0.05168 0.56844,-0.139526 0.27388,-0.08785 0.48575,-0.206705 0.29456,-0.160197 0.52193,-0.382405 0.22738,-0.222208 0.40825,-0.485757 0.18086,-0.263549 0.31005,-0.537433 0.13436,-0.2687162 0.22738,-0.5477681 z m -1.31775,-4.7077082 q -0.11368,0.2273756 -0.25838,0.3410634 -0.15503,0.1188554 -0.3669,0.124023 -0.17053,0.00517 -0.29972,-0.08785 -0.12402,-0.093017 -0.14469,-0.3255605 -0.0103,-0.1033525 0.0103,-0.2118727 0.0207,-0.1136878 0.062,-0.2118727 0.0413,-0.093017 0.093,-0.1601964 0.0568,-0.072347 0.11886,-0.093017 0.062,-0.00517 0.0103,0.093017 -0.031,0.056844 -0.0517,0.1343583 -0.0155,0.077514 -0.0207,0.1550288 0,0.072347 0.0155,0.124023 0.0155,0.051676 0.0672,0.098185 0.0775,0.056844 0.16536,0.056844 0.0879,-0.00517 0.17053,-0.041341 0.0878,-0.036173 0.15503,-0.082682 0.0724,-0.051676 0.14469,-0.1343583 0.0672,-0.077514 0.0982,-0.1963698 0.031,-0.1188555 0.0413,-0.1963699 0.005,-0.067179 0.0362,-0.1343583 0.031,-0.067179 0.10336,-0.067179 0.0155,0 0.0207,0.031006 0.0103,0.025838 0.0155,0.062011 0.005,0.036173 0.005,0.072347 0,0.031006 0,0.046509 0,0.1498612 0.0465,0.2377108 0.0465,0.082682 0.18603,0.1136878 0.0724,0.015503 0.18603,-0.015503 0.11886,-0.031006 0.20671,-0.1033525 0.0103,-0.010335 0.005,-0.056844 -0.005,-0.046509 -0.0207,-0.098185 -0.0103,-0.051676 -0.0362,-0.1085202 -0.0207,-0.062011 -0.0258,-0.072347 l 0.1912,-0.3617339 q 0.0517,0.025838 0.0775,0.1136878 0.031,0.08785 0.0362,0.2015374 0.0103,0.1085202 0,0.222208 -0.0103,0.1136878 -0.0258,0.1912022 -0.062,0.1912021 -0.17053,0.3462309 -0.10336,0.1550289 -0.3204,0.1963699 -0.1912,0.036173 -0.32039,-0.025838 -0.12919,-0.062011 -0.20671,-0.1756993 z m 0.93018,-2.0773859 q -0.25838,0.1188554 -0.5426,0.248046 -0.27906,0.1291907 -0.5426,0.2480461 -0.26355,0.1188554 -0.49093,0.222208 -0.22737,0.1033525 -0.38757,0.1705317 -0.0362,0.015503 -0.0517,0 -0.0155,-0.015503 0,-0.046509 l 0.25322,-0.5064274 q 0.0258,-0.041341 0.0517,-0.056844 0.031,-0.020671 0.0568,-0.036173 l 1.88618,-0.8371555 q 0.0827,-0.036173 0.0517,0.041341 l -0.21188,0.4805893 q -0.0155,0.046509 -0.0723,0.072347 z m -4.82657,3.6948533 0.0258,-0.6976296 q 0.0103,-0.082682 0.0672,-0.093017 0.062,-0.010335 0.13953,0.015503 0.3514,0.1085202 0.66145,0.3617339 0.31006,0.2480461 0.55294,0.5736066 0.23771,0.3255604 0.38757,0.6924619 0.15503,0.3617339 0.18604,0.6872944 0.0103,0.124023 0,0.2842195 -0.0103,0.1601964 -0.0465,0.3203928 -0.031,0.1550288 -0.0827,0.2790519 -0.0465,0.124023 -0.11369,0.1756993 -0.1757,0.1395259 -0.43925,0.2377108 -0.26355,0.098185 -0.5581,0.1601965 -0.29973,0.062012 -0.60462,0.08785 -0.30489,0.031006 -0.56844,0.031006 -0.062,0 -0.15502,-0.010335 -0.0879,-0.00517 -0.1757,-0.031006 -0.0879,-0.031006 -0.15503,-0.082682 -0.062,-0.051676 -0.0672,-0.1343583 0,-0.041341 0,-0.1601964 0.005,-0.1188554 0.0155,-0.2480461 0.0103,-0.1291907 0.0258,-0.2273756 0.0155,-0.1033525 0.0413,-0.1033525 0.0155,0 0.0258,0.02067 0.0155,0.020671 0.031,0.036173 0.0879,0.062011 0.21188,0.093017 0.12402,0.031006 0.25838,0.041341 0.13952,0.00517 0.27388,0 0.13953,-0.010335 0.24288,-0.015503 0.18087,-0.010335 0.37724,-0.036173 0.19637,-0.031006 0.37723,-0.072347 0.18604,-0.041341 0.3514,-0.093017 0.16537,-0.056844 0.28422,-0.1188554 0.0517,-0.025838 0.0982,-0.062012 0.0465,-0.041341 0.0568,-0.072347 -0.0465,-0.2738843 -0.21704,-0.5736066 -0.16536,-0.2997224 -0.40307,-0.5632713 -0.24288,-0.2583814 -0.53227,-0.4495836 -0.28422,-0.1963698 -0.57361,-0.2532137 z m -2.45462,5.3123202 q -0.76998,-0.971514 -1.30224,-2.2737556 -0.53227,-1.302242 -0.53227,-2.6975012 0,-1.2298952 0.39791,-2.3564378 0.46509,-1.3074096 1.4366,-2.6044839 h 0.66663 q -0.62529,1.0748664 -0.82683,1.5347851 -0.31522,0.7131325 -0.49609,1.4882766 -0.22221,0.9663462 -0.22221,1.9430276 0,2.4856285 1.54513,4.9660892 z"
         id="text13"
         style="font-size:10.5833px;line-height:1.25;font-family:'KFGQPC Uthmanic Script HAFS';-inkscape-font-specification:'KFGQPC Uthmanic Script HAFS';direction:rtl;stroke-width:0.264583"
         aria-label="   ()" />
    </g>
  </g>
</svg>
