<?xml version="1.0" encoding="UTF-8" standalone="no"?>
<!-- Created with Inkscape (http://www.inkscape.org/) -->

<svg
   width="93.482811mm"
   height="15.48649mm"
   viewBox="0 0 93.482811 15.48649"
   version="1.1"
   id="svg1"
   xmlns="http://www.w3.org/2000/svg"
   xmlns:svg="http://www.w3.org/2000/svg">
  <defs
     id="defs1" />
  <g
     id="layer1"
     transform="translate(-933.35364)">
    <g
       id="g14"
       transform="translate(772.29597,0.07738887)">
      <path
         d="m 253.45613,3.2161926 q 0.0827,0.00517 0.0775,0.1912022 -0.0103,0.1963698 0.005,0.387572 0.0155,0.1860346 0.0413,0.3772367 0.0517,0.4599188 0.12402,0.9508434 0.0724,0.4857569 0.1447,0.9818491 0.0672,0.4909245 0.13435,0.981849 0.0672,0.4909246 0.11369,0.956011 0.0207,0.1808669 0.0258,0.4237454 0.0103,0.2428785 -0.005,0.4960922 -0.0103,0.248046 -0.0568,0.4805893 -0.0413,0.2325432 -0.11886,0.387572 -0.0413,0.08785 -0.0982,0.1136878 -0.0465,0.00517 -0.0413,-0.041341 -0.031,-0.4495835 -0.0775,-0.9043346 -0.0413,-0.4599188 -0.10852,-0.9353405 -0.0672,-0.4909245 -0.13435,-0.9715138 -0.0672,-0.4805893 -0.1292,-0.9611786 -0.0672,-0.4805893 -0.13435,-0.9611786 -0.062,-0.4805893 -0.12403,-0.9663462 0.0155,-0.1188554 0.0465,-0.2428785 0.031,-0.1291906 0.0879,-0.2635489 0.12402,-0.3358958 0.16537,-0.4082425 0.0465,-0.072347 0.062,-0.072347 z m -2.21691,-0.2893871 q 0.0155,-0.046509 0.0413,-0.056844 0.0258,-0.010335 0.0413,0.056844 0.0413,0.124023 0.093,0.2532137 0.0517,0.1291907 0.11885,0.2532137 0.0724,0.1240231 0.16537,0.2325432 0.093,0.1033526 0.21187,0.1756993 -0.0724,0.1240231 -0.12919,0.2170404 -0.0517,0.08785 -0.0879,0.165364 -0.0362,0.072347 -0.0517,0.1446936 -0.0155,0.067179 -0.005,0.1446935 0.0568,0.4960922 0.12919,0.997352 0.0775,0.4960921 0.1447,0.9921843 0.0723,0.4960922 0.12402,0.9921844 0.0568,0.4960921 0.0724,0.9973519 0.005,0.1653641 -0.0207,0.3358958 -0.0258,0.1705317 -0.0827,0.3255605 -0.0568,0.1550288 -0.1447,0.2945547 -0.0827,0.1343583 -0.1912,0.2273756 -0.14986,0.1291906 -0.37207,0.1860345 -0.21704,0.051676 -0.53227,0.051676 h -0.093 q -0.16537,0 -0.24805,-0.1240231 -0.0879,-0.1291906 -0.0879,-0.2790518 0,-0.1550288 0.0879,-0.2790518 0.0827,-0.1291907 0.24805,-0.1291907 h 0.093 q 0.17054,0 0.33073,-0.010335 0.1602,-0.015503 0.29456,-0.046509 0.13436,-0.036173 0.22737,-0.093017 0.0982,-0.062012 0.13953,-0.1550288 -0.10335,-1.0903692 -0.26872,-2.1497327 -0.16536,-1.0645311 -0.32039,-2.1393975 -0.031,-0.2170403 -0.0672,-0.4237454 -0.031,-0.2118727 -0.14986,-0.4082425 -0.0413,-0.056844 -0.0465,-0.072347 -0.005,-0.020671 0.0258,-0.082682 0.0879,-0.1498612 0.1602,-0.30489 0.0775,-0.1601964 0.14986,-0.2893871 z m -3.37964,5.2503088 q 0.062,-0.1033525 0.12402,-0.098185 0.0672,0.00517 0.0362,0.124023 -0.0258,0.1085202 -0.0724,0.2273756 -0.0465,0.1136878 -0.10335,0.2480461 0.0362,0.08785 0.16019,0.1756993 0.12919,0.082682 0.28939,0.1446936 0.15503,0.056844 0.31523,0.082682 0.16536,0.025838 0.27388,-0.015503 0.1757,-0.056844 0.28939,-0.3152252 0.11369,-0.263549 0.19637,-0.5529361 0.0413,-0.1550288 0.10852,-0.1808669 0.0672,-0.025838 0.0775,0.1136878 0.0207,0.2583813 0.093,0.4444159 0.0724,0.1860345 0.21704,0.2997223 0.27388,0.2273756 0.89917,0.2273756 h 0.093 q 0.16537,0 0.24805,0.1291907 0.0827,0.1291906 0.0827,0.2790518 0,0.1498612 -0.0827,0.2790518 -0.0827,0.1240231 -0.24805,0.1240231 h -0.093 q -0.27389,0 -0.47026,-0.031006 -0.19637,-0.036173 -0.3824,-0.1136878 -0.43408,-0.1860345 -0.65629,-0.6149475 -0.0362,0.082682 -0.093,0.1963698 -0.0568,0.1136878 -0.13436,0.2222079 -0.0723,0.1033526 -0.16019,0.1756993 -0.0879,0.072347 -0.18604,0.072347 -0.12919,0 -0.29972,-0.031006 -0.17053,-0.031006 -0.34106,-0.098185 -0.1757,-0.062012 -0.3359,-0.1601964 -0.15499,-0.103352 -0.26351,-0.242878 -0.18086,0.2067051 -0.40824,0.346231 -0.22221,0.1343583 -0.47542,0.1756994 -0.25838,0.046509 -0.5426,0 -0.27905,-0.051676 -0.57361,-0.2067051 -0.13436,0.098185 -0.29455,0.1601964 -0.1602,0.062011 -0.31523,0.093017 -0.1602,0.036173 -0.30489,0.046509 -0.14469,0.010335 -0.25321,0.010335 h -0.093 q -0.15503,0 -0.23254,-0.1240231 -0.0775,-0.1291906 -0.0775,-0.2790518 0,-0.1498612 0.0775,-0.2790518 0.0775,-0.1291907 0.23254,-0.1291907 h 0.093 q 0.31006,0 0.5736,-0.020671 0.26355,-0.025838 0.4961,-0.1136878 0.22737,-0.082682 0.42891,-0.2532137 0.2067,-0.1705317 0.39274,-0.4650864 0.0672,-0.1085202 0.11369,-0.093017 0.0517,0.010335 0.031,0.1188554 -0.0362,0.1860346 -0.11885,0.3979073 -0.0827,0.2118727 -0.20154,0.3617338 0.10335,0.031006 0.25321,0.046509 0.15503,0.015503 0.32556,0 0.25322,-0.02067 0.47543,-0.1033526 0.22737,-0.08785 0.40824,-0.2635489 0.11369,-0.1033526 0.21187,-0.2377109 0.10335,-0.1395259 0.19637,-0.2997222 z m 0.45475,-1.162716 q -0.031,0.036173 -0.0465,0.036173 -0.0155,0 -0.0517,-0.025838 l -0.60978,-0.4805893 -0.39791,0.5529361 q -0.0362,0.046509 -0.0775,0.010335 l -0.65113,-0.4960922 q -0.0362,-0.031006 -0.0103,-0.067179 l 0.41341,-0.5891094 q 0.0258,-0.031006 0.0362,-0.025838 0.0155,0 0.0362,0.015503 l 0.61494,0.4702541 0.41858,-0.5374332 q 0.031,-0.041341 0.062,-0.02067 l 0.65112,0.5426008 q 0.031,0.031006 0,0.072347 z m -0.97668,-2.1807385 0.63562,0.5219303 q 0.0413,0.031006 0.005,0.072347 l -0.42375,0.527098 q -0.0362,0.046509 -0.0827,0.010335 l -0.64079,-0.5167626 q -0.0413,-0.036173 0,-0.08785 l 0.42892,-0.5167627 q 0.0362,-0.046509 0.0775,-0.010335 z m 0.0413,-1.4314326 q -0.11369,0.2273756 -0.25838,0.3410634 -0.15503,0.1188554 -0.36691,0.124023 -0.17053,0.00517 -0.29972,-0.08785 -0.12402,-0.093017 -0.14469,-0.3255605 -0.0103,-0.1033526 0.0103,-0.2118727 0.0207,-0.1136878 0.062,-0.2118727 0.0413,-0.093017 0.093,-0.1601964 0.0568,-0.072347 0.11886,-0.093017 0.062,-0.00517 0.0103,0.093017 -0.031,0.056844 -0.0517,0.1343582 -0.0155,0.077514 -0.0207,0.1550289 0,0.072347 0.0155,0.124023 0.0155,0.051676 0.0672,0.098185 0.0775,0.056844 0.16536,0.056844 0.0879,-0.00517 0.17053,-0.041341 0.0878,-0.036173 0.15503,-0.082682 0.0724,-0.051676 0.1447,-0.1343583 0.0672,-0.077514 0.0982,-0.1963699 0.031,-0.1188554 0.0413,-0.1963698 0.005,-0.067179 0.0362,-0.1343583 0.031,-0.067179 0.10335,-0.067179 0.0155,0 0.0207,0.031006 0.0103,0.025838 0.0155,0.062012 0.005,0.036173 0.005,0.072347 0,0.031006 0,0.046509 0,0.1498612 0.0465,0.2377108 0.0465,0.082682 0.18603,0.1136878 0.0724,0.015503 0.18604,-0.015503 0.11885,-0.031006 0.2067,-0.1033525 0.0103,-0.010335 0.005,-0.056844 -0.005,-0.046509 -0.0207,-0.098185 -0.0103,-0.051676 -0.0362,-0.1085202 -0.0207,-0.062012 -0.0258,-0.072347 l 0.1912,-0.3617338 q 0.0517,0.025838 0.0775,0.1136878 0.031,0.08785 0.0362,0.2015374 0.0103,0.1085202 0,0.222208 -0.0103,0.1136877 -0.0258,0.1912021 -0.062,0.1912022 -0.17053,0.346231 -0.10335,0.1550288 -0.32039,0.1963699 -0.19121,0.036173 -0.3204,-0.025838 -0.12919,-0.062011 -0.2067,-0.1756993 z m 0.93017,-2.077386 q -0.25838,0.1188555 -0.5426,0.2480461 -0.27905,0.1291907 -0.5426,0.2480461 -0.26355,0.1188554 -0.49093,0.222208 -0.22737,0.1033525 -0.38757,0.1705317 -0.0362,0.015503 -0.0517,0 -0.0155,-0.015503 0,-0.046509 l 0.25321,-0.5064274 q 0.0258,-0.041341 0.0517,-0.056844 0.031,-0.020671 0.0568,-0.036173 l 1.88618,-0.83715553 q 0.0827,-0.0361734 0.0517,0.041341 l -0.21187,0.48058933 q -0.0155,0.046509 -0.0724,0.072347 z M 243.4206,11.97532 q -0.0258,0.03101 -0.0413,0.03101 -0.0155,0.0052 -0.0568,-0.02584 l -0.61495,-0.48059 -0.40307,0.552936 q -0.0362,0.04651 -0.0775,0.0155 l -0.65629,-0.506427 q -0.0362,-0.02584 -0.0103,-0.06201 l 0.41858,-0.594277 q 0.0207,-0.03101 0.0362,-0.03101 0.0155,0 0.0362,0.02067 l 0.62011,0.470254 0.42375,-0.542601 q 0.031,-0.04134 0.062,-0.0155 l 0.65629,0.547769 q 0.0362,0.02584 0,0.07235 z m -2.16007,-2.0618831 h -0.093 q -0.15503,0 -0.23254,-0.1240231 -0.0775,-0.1291906 -0.0775,-0.2842194 0,-0.077514 0.0207,-0.1498612 0.0155,-0.072347 0.0568,-0.1291907 0.0362,-0.056844 0.0982,-0.093017 0.0568,-0.036173 0.13436,-0.036173 h 0.093 q 0.1602,0 0.35657,-0.010335 0.20153,-0.010335 0.37723,-0.056844 0.17053,-0.046509 0.3359,-0.1395259 0.16536,-0.098185 0.30489,-0.2687166 0.10335,-0.124023 0.16536,-0.2532137 0.0672,-0.1291907 0.12919,-0.2945547 0.0258,-0.067179 0.0827,-0.072347 0.062,-0.00517 0.0672,0.025838 0.005,0.062012 -0.0103,0.1498612 -0.0103,0.08785 -0.0103,0.1601964 0,0.1343583 0.0672,0.2687166 0.0672,0.1343583 0.20671,0.2428785 0.13952,0.1085201 0.3824,0.1808669 0.24805,0.067179 0.55811,0.067179 h 0.0982 q 0.0775,0 0.13436,0.036173 0.0568,0.036173 0.093,0.093017 0.0413,0.056844 0.0568,0.1291907 0.0207,0.072347 0.0207,0.1498612 0,0.1550288 -0.0775,0.2842194 -0.0724,0.1240231 -0.22738,0.1240231 h -0.0982 q -0.27906,0 -0.53227,-0.051676 -0.24805,-0.056844 -0.42375,-0.165364 -0.34106,-0.2067051 -0.53226,-0.60978 -0.11369,0.2325432 -0.26872,0.387572 -0.15503,0.1550288 -0.34106,0.2532137 -0.1912,0.098185 -0.43408,0.1446936 -0.24288,0.041341 -0.48059,0.041341 z m 0.5891,-5.5655338 q 0,0.08785 0.0465,0.1395259 0.0517,0.046509 0.11886,0.072347 0.0672,0.025838 0.14469,0.031006 0.0827,0.00517 0.14469,0.00517 0.1447,0 0.26872,-0.062012 0.12919,-0.062011 0.23254,-0.1601964 0.0103,-0.093017 -0.0207,-0.1963698 -0.031,-0.1033526 -0.0982,-0.1860346 -0.0672,-0.082682 -0.16537,-0.1291907 -0.0982,-0.051676 -0.22737,-0.041341 -0.0775,0.020671 -0.15503,0.077514 -0.0775,0.051676 -0.14469,0.1240231 -0.062,0.072347 -0.10336,0.1601964 -0.0413,0.082682 -0.0413,0.1653641 z m 1.20923,-0.1343583 q 0,0.1756993 -0.0465,0.3410633 -0.0465,0.1653641 -0.14469,0.2945547 -0.0982,0.1291907 -0.25322,0.2067051 -0.14986,0.077514 -0.36173,0.077514 -0.26355,0 -0.44442,-0.1705317 -0.18086,-0.1705316 -0.1912,-0.4547511 0,-0.1446936 0.0413,-0.346231 0.0465,-0.2067051 0.13953,-0.3979073 0.093,-0.1912022 0.23771,-0.3307281 0.14986,-0.1446935 0.35656,-0.1705317 0.19637,-0.020671 0.32556,0.077514 0.1292,0.098185 0.20671,0.2480461 0.0724,0.1550288 0.10335,0.3307281 0.031,0.1705317 0.031,0.2945548 z m -6.09264,2.780183 q 0.21188,-0.010335 0.44442,0.025838 0.23254,0.031006 0.66146,0.1136878 0.42891,0.077514 0.86299,0.093017 0.47025,0.015503 0.9095,0.00517 0.43925,-0.010335 0.9095,-0.051676 0.0207,-0.00517 0.031,0 0.0103,0.00517 0.005,0.031006 -0.0672,0.2015374 -0.14986,0.3979072 -0.0775,0.1963699 -0.1757,0.3824044 -0.23255,0.025838 -0.46509,0.062012 -0.23254,0.031006 -0.45992,0.077514 -0.0465,0.3772367 0.0827,0.5787742 0.13436,0.1963698 0.38241,0.2842194 0.24804,0.08785 0.5736,0.098185 0.33073,0.010335 0.68213,0.010335 0.0258,0 0.0465,0 0.0207,0 0.0465,0 0.15503,0 0.23254,0.1291907 0.0827,0.124023 0.0827,0.2738842 0,0.1550288 -0.0827,0.2842194 -0.0775,0.1240231 -0.23254,0.1240231 -0.0258,0 -0.0465,0 -0.0207,0 -0.0465,0 -0.5736,0.010335 -1.02319,-0.056844 -0.44958,-0.072347 -0.7183,-0.3152252 -0.21187,-0.1912022 -0.29972,-0.5115951 -0.0827,-0.3255605 -0.0207,-0.8268203 -0.45475,0.1085202 -0.8785,0.2893871 -0.42374,0.1756993 -0.78031,0.4599188 -0.31006,0.2480461 -0.5581,0.5581037 -0.24288,0.3100576 -0.41341,0.6666238 -0.16537,0.356566 -0.25322,0.73897 -0.0879,0.387572 -0.0879,0.78548 0,0.43408 0.16537,0.847491 0.17053,0.418577 0.44958,0.764808 0.27905,0.351399 0.63562,0.604613 0.36173,0.258381 0.74414,0.366901 0.50126,0.144694 1.02835,0.191202 0.53227,0.05168 0.98702,0.03617 0.50126,-0.0155 1.02836,-0.06201 0.5271,-0.04651 1.02836,-0.04651 0.062,0 0.0672,0.03101 0.005,0.03617 -0.062,0.113688 -0.0672,0.07752 -0.13952,0.08785 -0.31006,0.04651 -0.59945,0.139526 -0.28422,0.09819 -0.56327,0.19637 -0.27905,0.103352 -0.56844,0.186034 -0.28422,0.08785 -0.59427,0.10852 -0.75448,0.05168 -1.47794,-0.118855 -0.7183,-0.170532 -1.28158,-0.583942 -0.56327,-0.408243 -0.9095,-1.064531 -0.34623,-0.651121 -0.34623,-1.555456 0,-0.594277 0.15503,-1.193722 0.15503,-0.594277 0.43925,-1.126542 0.28938,-0.5374332 0.69246,-0.9715138 0.40824,-0.4392483 0.90433,-0.7131325 0.0207,-0.015503 -0.0103,-0.025838 -0.031,-0.010335 -0.0672,-0.015503 -0.23771,-0.025838 -0.5116,-0.046509 -0.26871,-0.025838 -0.53743,-0.00517 -0.26355,0.02067 -0.49609,0.1033525 -0.23254,0.077514 -0.38757,0.2583814 -0.031,0.036173 -0.0672,0.031006 -0.031,-0.00517 -0.0207,-0.072347 0.031,-0.2377108 0.10852,-0.4495835 0.0827,-0.2118727 0.21187,-0.3669015 0.12919,-0.1601964 0.31006,-0.2532137 0.18087,-0.098185 0.42374,-0.1033525 z m 1.08004,-2.1342299 0.63562,0.5270979 q 0.0413,0.036173 0.005,0.082682 l -0.42374,0.5322655 q -0.0362,0.051676 -0.0827,0.010335 l -0.64079,-0.527098 q -0.0413,-0.036173 0,-0.08785 l 0.42891,-0.5270979 q 0.0362,-0.046509 0.0775,-0.010335 z m -1.1317,-0.6304503 q 0.17053,-0.098185 0.33589,-0.1963699 0.16537,-0.098185 0.3204,-0.2118727 0.16019,-0.1136877 0.31522,-0.248046 0.15503,-0.1343583 0.29972,-0.30489 -0.13952,-0.041341 -0.29455,-0.1395259 -0.15503,-0.098185 -0.24805,-0.2118727 -0.0465,-0.056844 -0.0568,-0.1446936 -0.0103,-0.093017 0.0155,-0.1705317 0.0413,-0.124023 0.11369,-0.2687166 0.0775,-0.1446935 0.18087,-0.2635489 0.10335,-0.1188555 0.22737,-0.1912022 0.12919,-0.077514 0.25838,-0.072347 0.1602,0.010335 0.23255,0.1550288 0.0723,0.1395259 0.0879,0.3255605 0.0207,0.1860346 0,0.3669015 -0.0155,0.1808669 -0.0258,0.263549 0,0.025838 0.0155,0.041341 0.062,0.036173 0.0827,0.067179 0.0258,0.031006 0.0413,0.072347 0.031,0.077514 0.0103,0.1860346 -0.0155,0.1085201 -0.062,0.165364 -0.0413,0.051676 -0.0724,0.051676 -0.031,-0.00517 -0.062,-0.051676 -0.0258,-0.031006 -0.0517,-0.056844 -0.0207,-0.031006 -0.0672,-0.051676 -0.1447,0.1756993 -0.31006,0.3358957 -0.1602,0.1601964 -0.34107,0.2945547 -0.18603,0.1291907 -0.38757,0.2325432 -0.20153,0.1033526 -0.42374,0.1705317 -0.0879,0.025838 -0.18087,0.036173 -0.093,0.00517 -0.10335,-0.020671 -0.0103,-0.031006 0.0362,-0.072347 0.0465,-0.046509 0.11369,-0.08785 z m 0.97151,-1.7363226 q 0.10852,0.1498611 0.25838,0.2377108 0.14987,0.082682 0.27389,0.1136878 h 0.0103 q 0,-0.041341 0.005,-0.1085202 0.005,-0.072347 0,-0.1446935 0,-0.072347 -0.0207,-0.139526 -0.0155,-0.067179 -0.062,-0.1136877 -0.0413,-0.036173 -0.11886,-0.031006 -0.0723,0 -0.14469,0.025838 -0.0724,0.025838 -0.13436,0.072347 -0.0568,0.041341 -0.0672,0.08785 z m -5.03328,5.5138576 q -0.0207,0.046509 -0.0672,0.1395259 -0.0465,0.08785 -0.10335,0.1860346 -0.0517,0.098185 -0.10852,0.1912022 -0.0568,0.08785 -0.0982,0.1395259 -0.031,0.056844 -0.14986,0.031006 -0.54777,-0.1033526 -1.02319,-0.056844 -0.47543,0.046509 -0.94568,0.1963698 -0.40824,0.1343583 -0.77514,0.2997223 -0.36691,0.1601965 -0.72347,0.2842195 -0.68213,0.2480461 -1.32291,0.3720691 -0.63562,0.1240231 -1.31775,0.1240231 h -0.093 q -0.16536,0 -0.24804,-0.1240231 -0.0827,-0.1291906 -0.0827,-0.2842194 0,-0.1550288 0.0827,-0.2790519 0.0827,-0.1291906 0.24804,-0.1291906 h 0.093 q 0.23771,0 0.49609,-0.010335 0.25838,-0.010335 0.50643,-0.031006 0.24805,-0.02067 0.47025,-0.046509 0.22221,-0.031006 0.39274,-0.067179 0.35657,-0.077514 0.74931,-0.2170404 0.39791,-0.1446935 0.83716,-0.3255605 -0.25322,-0.036173 -0.58911,-0.08785 -0.3359,-0.056844 -0.69247,-0.1085202 -0.35656,-0.056844 -0.69763,-0.1033525 -0.34106,-0.046509 -0.59944,-0.072347 -0.0362,-0.010335 -0.10335,0.010335 -0.0672,0.02067 -0.13436,0.046509 -0.031,0.010335 -0.062,-0.010335 -0.031,-0.02067 -0.0207,-0.067179 0.062,-0.2222079 0.18086,-0.4495835 0.11886,-0.2273756 0.22221,-0.387572 0.0465,-0.067179 0.23254,-0.1550288 0.19121,-0.093017 0.45476,-0.2067051 0.26871,-0.1188554 0.57877,-0.263549 0.31006,-0.1446935 0.60461,-0.3152252 0.29456,-0.1756993 0.53744,-0.3824044 0.24287,-0.2118727 0.37206,-0.4547511 0.10336,-0.1963699 0.22738,-0.4392483 0.12402,-0.2428785 0.26872,-0.4495835 0.14986,-0.2118727 0.31522,-0.346231 0.17053,-0.139526 0.3669,-0.1291907 0.1757,0.010335 0.3359,0.1860346 0.1602,0.1756993 0.28422,0.4185777 0.12402,0.2428785 0.19637,0.5064274 0.0724,0.263549 0.0724,0.444416 0,0.093017 -0.0362,0.2170403 -0.0362,0.124023 -0.0879,0.2377108 -0.0465,0.1085202 -0.10335,0.1963698 -0.0568,0.082682 -0.0982,0.098185 -0.10853,0.041341 -0.29973,0.031006 -0.18603,-0.010335 -0.41341,-0.067179 -0.22221,-0.062011 -0.45475,-0.1705316 -0.23254,-0.1136878 -0.42374,-0.2790519 -0.45476,0.5942771 -0.97669,0.9405081 -0.52193,0.346231 -1.14721,0.5270979 0.37724,0.067179 0.70797,0.1291907 0.33072,0.056844 0.64078,0.1136878 0.31523,0.051676 0.62528,0.098185 0.31523,0.046509 0.65629,0.08785 0.53227,0.062012 1.10071,0.1188555 0.56844,0.051676 1.1007,0.072347 0.0775,0.00517 0.0413,0.072347 z m -1.31257,-2.3719407 q -0.031,-0.077514 -0.093,-0.2170403 -0.062,-0.1395259 -0.14986,-0.2790519 -0.0827,-0.1395259 -0.1912,-0.2377108 -0.10336,-0.1033525 -0.22221,-0.1033525 -0.0517,0 -0.12919,0.051676 -0.0724,0.046509 -0.1447,0.1188555 -0.0723,0.067179 -0.12919,0.1395259 -0.0568,0.067179 -0.0775,0.1136878 0.24804,0.2170403 0.5271,0.3100576 0.28422,0.093017 0.60978,0.1033525 z m 0.0568,-3.3382867 q -0.25838,0.1188555 -0.5426,0.2480461 -0.27905,0.1291907 -0.5426,0.2480461 -0.26355,0.1188554 -0.49093,0.222208 -0.22737,0.1033525 -0.38757,0.1705317 -0.0362,0.015503 -0.0517,0 -0.0155,-0.015503 0,-0.046509 L 229.8349,2.632251 q 0.0258,-0.041341 0.0517,-0.056844 0.031,-0.020671 0.0568,-0.036173 l 1.88618,-0.8371555 q 0.0827,-0.036173 0.0517,0.041341 l -0.21188,0.4805893 q -0.0155,0.046509 -0.0723,0.072347 z m -4.79039,0.759641 q 0,0.08785 0.0465,0.1395259 0.0517,0.046509 0.11886,0.072347 0.0672,0.025838 0.14469,0.031006 0.0827,0.00517 0.14469,0.00517 0.1447,0 0.26872,-0.062011 0.12919,-0.062012 0.23254,-0.1601964 0.0103,-0.093017 -0.0207,-0.1963699 -0.031,-0.1033525 -0.0982,-0.1860345 -0.0672,-0.082682 -0.16537,-0.1291907 -0.0982,-0.051676 -0.22737,-0.041341 -0.0775,0.020671 -0.15503,0.077514 -0.0775,0.051676 -0.14469,0.124023 -0.062,0.072347 -0.10336,0.1601965 -0.0413,0.082682 -0.0413,0.165364 z m 1.20923,-0.1343583 q 0,0.1756993 -0.0465,0.3410634 -0.0465,0.165364 -0.1447,0.2945547 -0.0982,0.1291907 -0.25321,0.2067051 -0.14986,0.077514 -0.36173,0.077514 -0.26355,0 -0.44442,-0.1705317 -0.18087,-0.1705317 -0.1912,-0.4547512 0,-0.1446935 0.0413,-0.3462309 0.0465,-0.2067051 0.13953,-0.3979073 0.093,-0.1912022 0.23771,-0.3307281 0.14986,-0.1446936 0.35656,-0.1705317 0.19637,-0.020671 0.32556,0.077514 0.12919,0.098185 0.20671,0.2480461 0.0724,0.1550288 0.10335,0.3307281 0.031,0.1705317 0.031,0.2945547 z m -3.44681,6.2838341 q 0.0155,0.00517 0.031,0 0.0155,-0.010335 -0.0103,-0.046509 -0.0879,-0.098185 -0.14986,-0.2015375 -0.062,-0.1085201 -0.10852,-0.2015374 -0.0465,-0.093017 -0.0775,-0.1653641 -0.031,-0.072347 -0.0517,-0.1136878 -0.0517,-0.093017 -0.13436,-0.077514 -0.093,0.020671 -0.22738,0.1085202 -0.13436,0.08785 -0.22221,0.2067051 -0.031,0.036173 -0.031,0.051676 0,0.015503 0.0413,0.041341 0.0827,0.062012 0.20154,0.1291906 0.11885,0.067179 0.24804,0.1240231 0.12919,0.051676 0.25838,0.093017 0.12919,0.041341 0.23255,0.051676 z m 0.51159,0.4805893 q -0.0465,0.1085202 -0.10335,0.2325432 -0.0517,0.1291905 -0.0982,0.1446935 -0.17053,0.03101 -0.43924,-0.02584 -0.26872,-0.051676 -0.53227,-0.1601965 -0.26355,-0.1085202 -0.46509,-0.2583813 -0.19637,-0.1498612 -0.21704,-0.3152253 -0.13952,0.1860346 -0.29972,0.30489 -0.15503,0.1136878 -0.31522,0.1860346 -0.16537,0.067179 -0.32556,0.093017 -0.15503,0.025838 -0.29456,0.025838 h -0.093 q -0.16536,0 -0.24804,-0.1240231 -0.0827,-0.1291906 -0.0827,-0.2790518 0,-0.1550288 0.0827,-0.2790518 0.0827,-0.1291907 0.24804,-0.1291907 h 0.093 q 0.1912,0 0.38241,-0.010335 0.1912,-0.010335 0.37206,-0.062011 0.18087,-0.051676 0.3514,-0.1601964 0.17054,-0.1136878 0.3204,-0.3152253 0.0827,-0.1085201 0.18086,-0.2170403 0.0982,-0.1136878 0.19637,-0.2015374 0.10336,-0.08785 0.20671,-0.1395259 0.10335,-0.056844 0.19637,-0.056844 0.093,0 0.20154,0.08785 0.10852,0.08785 0.21704,0.2067051 0.11368,0.1136878 0.21187,0.2377108 0.10335,0.1240231 0.1757,0.1912022 0.12402,0.1291907 0.26355,0.2118727 0.13952,0.082682 0.28938,0.1343583 0.14986,0.051676 0.31523,0.072347 0.16536,0.020671 0.34623,0.020671 h 0.093 q 0.16019,0 0.24288,0.1291907 0.0827,0.124023 0.0827,0.2790518 0,0.1498612 -0.0827,0.2790518 -0.0827,0.1240231 -0.24288,0.1240231 h -0.093 q -0.14986,0 -0.29972,-0.00517 -0.14986,-0.00517 -0.29456,-0.031006 -0.14469,-0.02067 -0.28422,-0.067179 -0.13435,-0.046509 -0.25838,-0.1240231 z m -2.27375,-4.2942978 q 0.17053,-0.098185 0.3359,-0.1963698 0.16536,-0.098185 0.32039,-0.2118727 0.1602,-0.1136878 0.31522,-0.2480461 0.15503,-0.1343583 0.29973,-0.30489 -0.13953,-0.041341 -0.29456,-0.1395259 -0.15503,-0.098185 -0.24804,-0.2118727 -0.0465,-0.056844 -0.0568,-0.1446936 -0.0103,-0.093017 0.0155,-0.1705317 0.0413,-0.124023 0.11368,-0.2687166 0.0775,-0.1446935 0.18087,-0.2635489 0.10335,-0.1188554 0.22738,-0.1912022 0.12919,-0.077514 0.25838,-0.072347 0.16019,0.010335 0.23254,0.1550288 0.0724,0.1395259 0.0879,0.3255605 0.0207,0.1860346 0,0.3669015 -0.0155,0.1808669 -0.0258,0.263549 0,0.025838 0.0155,0.041341 0.062,0.036173 0.0827,0.067179 0.0258,0.031006 0.0413,0.072347 0.031,0.077514 0.0103,0.1860346 -0.0155,0.1085201 -0.062,0.165364 -0.0413,0.051676 -0.0724,0.051676 -0.031,-0.00517 -0.062,-0.051676 -0.0258,-0.031006 -0.0517,-0.056844 -0.0207,-0.031006 -0.0672,-0.051676 -0.1447,0.1756993 -0.31006,0.3358957 -0.1602,0.1601964 -0.34106,0.2945547 -0.18604,0.1291907 -0.38758,0.2325432 -0.20153,0.1033526 -0.42374,0.1705317 -0.0879,0.025838 -0.18087,0.036173 -0.093,0.00517 -0.10335,-0.020671 -0.0103,-0.031006 0.0362,-0.072347 0.0465,-0.046509 0.11369,-0.08785 z m 0.97151,-1.7363226 q 0.10852,0.1498611 0.25839,0.2377108 0.14986,0.082682 0.27388,0.1136878 h 0.0103 q 0,-0.041341 0.005,-0.1085202 0.005,-0.072347 0,-0.1446935 0,-0.072347 -0.0207,-0.1395259 -0.0155,-0.067179 -0.062,-0.1136878 -0.0413,-0.036173 -0.11885,-0.031006 -0.0724,0 -0.1447,0.025838 -0.0723,0.025838 -0.13436,0.072347 -0.0568,0.041341 -0.0672,0.08785 z m -3.68451,5.3278232 q 0.031,0.067179 0.15502,0.1033525 0.12919,0.036173 0.28422,0.051676 0.15503,0.010335 0.30489,0.00517 0.15503,-0.00517 0.23255,-0.015503 0,-0.02067 -0.0568,-0.1033525 -0.0517,-0.082682 -0.13952,-0.1705317 -0.0878,-0.093017 -0.19637,-0.1653641 -0.10336,-0.077514 -0.20671,-0.08785 -0.0568,0 -0.12402,0.041341 -0.062,0.036173 -0.11886,0.098185 -0.0568,0.056844 -0.0982,0.1240231 -0.0362,0.067179 -0.0362,0.1188554 z m 1.13687,0.9353404 -0.51676,0.010335 q -0.21704,0.010335 -0.41341,-0.041341 -0.1912,-0.056844 -0.3359,-0.1653641 -0.13952,-0.1136878 -0.21704,-0.2790518 -0.0723,-0.1705317 -0.0465,-0.3875721 0.0155,-0.1446935 0.10335,-0.3565662 0.0879,-0.2118727 0.22221,-0.4082425 0.13435,-0.2015375 0.29972,-0.3410634 0.16536,-0.1446935 0.33589,-0.1446935 0.18087,0 0.3359,0.1498611 0.1602,0.1446936 0.28422,0.346231 0.11885,0.2067051 0.19637,0.4340807 0.0775,0.2222079 0.0982,0.3824044 l 0.41341,-0.015503 h 0.0982 q 0.0775,0 0.13953,0.036173 0.062,0.036173 0.10335,0.093017 0.0413,0.056844 0.062,0.1291906 0.0207,0.072347 0.0207,0.1498612 0.005,0.1498612 -0.0775,0.2790518 -0.0827,0.1240231 -0.24805,0.1240231 h -0.0982 l -0.43408,0.00517 q -0.093,0.4392482 -0.21704,0.8629932 -0.11885,0.423746 -0.30489,0.780312 -0.1912,0.356566 -0.46508,0.625283 -0.26872,0.268716 -0.66146,0.392739 -0.25838,0.09302 -0.57361,0.118856 -0.31005,0.02584 -0.63561,0.0052 -0.3204,-0.0155 -0.63045,-0.07235 -0.31523,-0.05684 -0.56844,-0.129191 -0.0724,-0.02067 -0.0878,-0.06201 -0.0207,-0.03617 0,-0.07235 0.0155,-0.03617 0.0672,-0.06201 0.0517,-0.02584 0.12402,-0.02067 0.24288,0.02584 0.5271,0.0052 0.28938,-0.0155 0.57877,-0.07235 0.29456,-0.05168 0.56844,-0.139525 0.27388,-0.08785 0.48576,-0.206706 0.29455,-0.160196 0.52193,-0.382404 0.22737,-0.222208 0.40824,-0.485757 0.18087,-0.263549 0.31006,-0.537433 0.13436,-0.268717 0.22737,-0.5477682 z m -5.21413,-3.0902408 0.0258,-0.6976296 q 0.0103,-0.082682 0.0672,-0.093017 0.062,-0.010335 0.13952,0.015503 0.3514,0.1085202 0.66146,0.3617339 0.31005,0.248046 0.55293,0.5736065 0.23771,0.3255605 0.38758,0.692462 0.15502,0.3617339 0.18603,0.6872944 0.0103,0.124023 0,0.2842195 -0.0103,0.1601964 -0.0465,0.3203928 -0.031,0.1550288 -0.0827,0.2790519 -0.0465,0.124023 -0.11369,0.1756993 -0.1757,0.1395259 -0.43925,0.2377108 -0.26355,0.098185 -0.5581,0.1601964 -0.29972,0.062012 -0.60461,0.08785 -0.30489,0.031006 -0.56844,0.031006 -0.062,0 -0.15503,-0.010335 -0.0879,-0.00517 -0.1757,-0.031006 -0.0879,-0.031006 -0.15503,-0.082682 -0.062,-0.051676 -0.0672,-0.1343583 0,-0.041341 0,-0.1601964 0.005,-0.1188554 0.0155,-0.2480461 0.0103,-0.1291907 0.0258,-0.2273756 0.0155,-0.1033525 0.0413,-0.1033525 0.0155,0 0.0258,0.02067 0.0155,0.02067 0.031,0.036173 0.0879,0.062012 0.21187,0.093017 0.12402,0.031006 0.25838,0.041341 0.13953,0.00517 0.27389,0 0.13952,-0.010335 0.24287,-0.015503 0.18087,-0.010335 0.37724,-0.036173 0.19637,-0.031006 0.37724,-0.072347 0.18603,-0.041341 0.3514,-0.093017 0.16536,-0.056844 0.28422,-0.1188554 0.0517,-0.025838 0.0982,-0.062012 0.0465,-0.041341 0.0568,-0.072347 -0.0465,-0.2738842 -0.21705,-0.5736065 -0.16536,-0.2997224 -0.40307,-0.5632714 -0.24288,-0.2583813 -0.53227,-0.4495835 -0.28421,-0.1963698 -0.5736,-0.2532137 z m -4.32014,0.2325432 q -0.56327,0.3720691 -1.18855,0.6614562 -0.62012,0.2893871 -1.28158,0.4134102 -0.3824,0.077514 -0.76997,0.072347 -0.38757,-0.00517 -0.7338,-0.1240231 -0.34107,-0.1188554 -0.62012,-0.3669015 -0.27905,-0.2532137 -0.44958,-0.6666238 0,0.2273755 -0.0207,0.4495835 -0.0207,0.2222079 -0.0568,0.4392483 -0.0362,0.2118727 -0.0879,0.4082425 -0.0465,0.1912022 -0.0982,0.3513986 0.16536,0.031006 0.40824,0.082682 0.24288,0.046509 0.47025,0.1291907 0.23255,0.077514 0.40825,0.1963698 0.1757,0.1136878 0.21187,0.2738842 0.0775,0.3410634 -0.0517,0.6511205 -0.12919,0.315226 -0.37207,0.578775 -0.23771,0.263548 -0.5426,0.470254 -0.30489,0.206705 -0.57877,0.335895 -0.50126,0.242879 -1.00769,0.372069 -0.50126,0.129191 -0.97151,0.129191 -0.45992,0 -0.85266,-0.118855 -0.39274,-0.118856 -0.68213,-0.366902 -0.28422,-0.248046 -0.44958,-0.625283 -0.1602,-0.377236 -0.1602,-0.8888313 0,-0.5167627 0.19121,-0.9870167 0.19636,-0.4754217 0.48058,-0.8939994 0.0207,-0.031006 0.0413,-0.025838 0.0258,0.00517 0.0413,0.031006 0.0207,0.02067 0.0258,0.051676 0.0103,0.031006 0,0.051676 -0.17569,0.3669015 -0.29972,0.7596412 -0.11885,0.387572 -0.0982,0.7906469 0.0155,0.3824043 0.18603,0.6459533 0.17053,0.268717 0.42891,0.434081 0.25839,0.165364 0.57361,0.23771 0.32039,0.07752 0.63562,0.08268 0.32556,0.0052 0.62528,-0.04651 0.29972,-0.04651 0.58394,-0.134359 0.28422,-0.08785 0.55811,-0.21704 0.27905,-0.124023 0.56327,-0.273884 0.0775,-0.04134 0.20154,-0.118855 0.12402,-0.07235 0.24288,-0.160197 0.12402,-0.08268 0.21187,-0.1653639 0.093,-0.082682 0.10335,-0.1446935 -0.0103,-0.067179 -0.12402,-0.1240231 -0.10852,-0.056844 -0.27905,-0.1033525 -0.17054,-0.046509 -0.37207,-0.082682 -0.19637,-0.036173 -0.38758,-0.062012 -0.1912,-0.031006 -0.34623,-0.046509 -0.14986,-0.02067 -0.2222,-0.031006 -0.0827,-0.015503 -0.0258,-0.1240231 0.25321,-0.4857569 0.3669,-0.9921843 0.11369,-0.5064274 0.13436,-1.0231901 0.0258,-0.5167627 -0.0207,-1.038693 -0.0413,-0.5219303 -0.10852,-1.0335254 L 205.8517,3.0818293 q -0.0103,-0.093017 0.0207,-0.2067051 0.0362,-0.1188554 0.0878,-0.2325432 0.0568,-0.1136878 0.11886,-0.2170403 0.0672,-0.1033525 0.11369,-0.1756993 0.0103,-0.020671 0.0362,-0.010335 0.0258,0.010335 0.031,0.051676 0.062,0.5064274 0.11885,1.0128548 0.062,0.5064275 0.13436,0.997352 0.0724,0.4909246 0.1602,0.9508433 0.0879,0.4599188 0.2067,0.8681613 0.1757,0.60978 0.55294,0.9353405 0.3824,0.3255605 0.93017,0.3565662 -0.10852,-0.098185 -0.21704,-0.2428784 -0.10852,-0.1446936 -0.19637,-0.30489 -0.0827,-0.1601964 -0.13952,-0.3203929 -0.0517,-0.165364 -0.0569,-0.2997223 -0.0103,-0.3152253 0.0879,-0.6149476 0.0982,-0.30489 0.27905,-0.5529361 0.18087,-0.2480461 0.43925,-0.4237454 0.25838,-0.1756993 0.57361,-0.2377108 0.38757,-0.077514 0.69763,-0.041341 0.31005,0.031006 0.55293,0.1395259 0.24805,0.1085202 0.42375,0.2738842 0.18087,0.1653641 0.29972,0.3513986 0.0207,0.031006 0.005,0.056844 -0.0103,0.025838 -0.0413,0.041341 -0.0258,0.015503 -0.062,0.02067 -0.0362,0 -0.062,-0.015503 -0.34106,-0.1860346 -0.69763,-0.2428785 -0.35139,-0.056844 -0.69246,-0.00517 -0.16536,0.025838 -0.3669,0.093017 -0.20154,0.062011 -0.40307,0.1498612 -0.19637,0.082682 -0.3669,0.1808669 -0.16537,0.093017 -0.25839,0.1756993 0,0.093017 0.0413,0.222208 0.0413,0.1291906 0.10852,0.2738842 0.0724,0.1446935 0.1602,0.2842194 0.093,0.139526 0.19637,0.2532138 0.0982,0.1188554 0.24288,0.2325432 0.14469,0.1136878 0.31006,0.2015374 0.16536,0.08785 0.33073,0.1395259 0.17053,0.046509 0.31005,0.031006 0.32556,-0.036173 0.60978,-0.1343583 0.28422,-0.098185 0.53227,-0.222208 0.25321,-0.1291906 0.47025,-0.2738842 0.21704,-0.1446935 0.40825,-0.2738842 0.0413,-0.031006 0.062,0.00517 0.0207,0.031006 0.005,0.072347 -0.0413,0.1085202 -0.0723,0.1912022 -0.0258,0.077514 -0.0568,0.1498612 -0.0258,0.072347 -0.0568,0.1498612 -0.0258,0.072347 -0.0672,0.165364 z m -1.81383,-4.557847 q -0.25838,0.1188554 -0.5426,0.2480461 -0.27905,0.1291906 -0.5426,0.248046 -0.26355,0.1188555 -0.49093,0.222208 -0.22737,0.1033525 -0.38757,0.1705317 -0.0362,0.015503 -0.0517,0 -0.0155,-0.015503 0,-0.046509 l 0.25322,-0.5064274 q 0.0258,-0.041341 0.0517,-0.056844 0.031,-0.020671 0.0568,-0.036173 l 1.88618,-0.8371555 q 0.0827,-0.036173 0.0517,0.041341 l -0.21187,0.4805893 q -0.0155,0.046509 -0.0724,0.072347 z m -2.13423,10.3249181 q -0.50643,0.160197 -0.99735,0.325561 -0.49093,0.165364 -0.94051,0.310058 -0.0827,0.02584 -0.0413,-0.05168 l 0.21187,-0.392739 q 0.0155,-0.03101 0.0258,-0.04651 0.0155,-0.0155 0.0465,-0.02584 0.13952,-0.05168 0.3669,-0.129191 0.22737,-0.07235 0.49092,-0.160196 0.26872,-0.08268 0.54777,-0.170532 0.27905,-0.08785 0.53227,-0.165364 0.0413,-0.0155 0.0517,-0.01033 0.0103,0.01033 -0.0103,0.05168 l -0.22221,0.403075 q -0.0155,0.02067 -0.031,0.03617 -0.0103,0.02067 -0.031,0.02584 z m -9.39991,-9.6117854 q 0.0827,0.00517 0.0775,0.1912022 -0.0103,0.1963698 0.005,0.387572 0.0155,0.1860346 0.0413,0.3772367 0.0517,0.4599188 0.12402,0.9508434 0.0724,0.4857569 0.1447,0.9818491 0.0672,0.4909245 0.13435,0.981849 0.0672,0.4909246 0.11369,0.956011 0.0207,0.1808669 0.0258,0.4237454 0.0103,0.2428785 -0.005,0.4960922 -0.0103,0.248046 -0.0568,0.4805893 -0.0413,0.2325432 -0.11886,0.387572 -0.0413,0.08785 -0.0982,0.1136878 -0.0465,0.00517 -0.0413,-0.041341 -0.031,-0.4495835 -0.0775,-0.9043346 -0.0413,-0.4599188 -0.10852,-0.9353405 -0.0672,-0.4909245 -0.13436,-0.9715138 -0.0672,-0.4805893 -0.12919,-0.9611786 -0.0672,-0.4805893 -0.13435,-0.9611786 -0.062,-0.4805893 -0.12403,-0.9663462 0.0155,-0.1188554 0.0465,-0.2428785 0.031,-0.1291906 0.0879,-0.2635489 0.12402,-0.3358958 0.16536,-0.4082425 0.0465,-0.072347 0.062,-0.072347 z m -6.10814,5.8910945 q 0.18086,0 0.42374,-0.010335 0.24805,-0.015503 0.54777,-0.082682 0.29972,-0.072347 0.64595,-0.2118727 0.34624,-0.1446935 0.72864,-0.4030749 0.0982,-0.062012 0.18087,-0.062012 0.0827,0 0.17053,0.051676 0.10852,0.067179 0.28422,0.1395259 0.18086,0.072347 0.3669,0.1343583 0.1912,0.062012 0.3669,0.1136878 0.1757,0.046509 0.28422,0.067179 0.18087,0.041341 0.30489,0.010335 0.12402,-0.036173 0.13436,-0.1550288 -0.062,-0.5581037 -0.12919,-1.0490282 -0.062,-0.4909246 -0.12403,-0.9818491 -0.062,-0.4960922 -0.12919,-1.0283578 -0.062,-0.5322655 -0.12402,-1.1833865 -0.0258,-0.2170403 -0.0672,-0.4185778 -0.0362,-0.2015374 -0.16536,-0.3979072 -0.0207,-0.031006 -0.0362,-0.046509 -0.0103,-0.015503 -0.0155,-0.025838 0,-0.015503 0.005,-0.031006 0.0103,-0.020671 0.0258,-0.051676 l 0.32039,-0.5942771 q 0.0258,-0.041341 0.0517,-0.041341 0.0258,0 0.0362,0.041341 0.0724,0.2532137 0.21187,0.5064274 0.1447,0.2532137 0.39791,0.4030749 -0.0775,0.1188554 -0.13436,0.2067051 -0.0568,0.08785 -0.0982,0.165364 -0.0362,0.072347 -0.0517,0.1446936 -0.0155,0.067179 -0.005,0.1498612 0.0465,0.4547511 0.10336,0.9560109 0.0568,0.5012598 0.10852,0.9766815 0.0568,0.470254 0.10335,0.8733289 0.0465,0.3979073 0.0672,0.651121 0.0207,0.2428784 -0.0103,0.5426008 -0.0258,0.2945547 -0.11369,0.5632713 -0.0879,0.263549 -0.23771,0.4495835 -0.14986,0.180867 -0.3669,0.1912022 -0.10852,0.00517 -0.31006,-0.041341 -0.20153,-0.051676 -0.42374,-0.124023 -0.21704,-0.077514 -0.42375,-0.1601965 -0.20153,-0.08785 -0.32039,-0.1498611 -0.10335,-0.051676 -0.1602,-0.051676 -0.0517,-0.00517 -0.14469,0.056844 -0.27388,0.1446935 -0.5271,0.2738842 -0.25321,0.1291907 -0.52193,0.2273756 -0.26871,0.098185 -0.56844,0.1550288 -0.29972,0.056844 -0.66145,0.056844 h -0.0413 q -0.16537,0 -0.24288,-0.1240231 -0.0827,-0.1291906 -0.0827,-0.2790518 0,-0.1498612 0.0827,-0.2738842 0.0775,-0.1291907 0.24288,-0.1291907 z m 1.03352,1.6691439 0.63562,0.527097 q 0.0413,0.03617 0.005,0.08268 l -0.42375,0.532265 q -0.0362,0.05168 -0.0827,0.01033 l -0.64078,-0.527098 q -0.0413,-0.03617 0,-0.08785 l 0.42891,-0.527098 q 0.0362,-0.04651 0.0775,-0.01033 z m 2.11873,-9.6582953 q 0,0.08785 0.0465,0.139526 0.0517,0.046509 0.11885,0.072347 0.0672,0.025838 0.1447,0.031006 0.0827,0.00517 0.14469,0.00517 0.1447,0 0.26872,-0.062011 0.12919,-0.062012 0.23254,-0.1601964 0.0103,-0.093017 -0.0207,-0.19636986 -0.031,-0.10335253 -0.0982,-0.18603456 -0.0672,-0.082682 -0.16537,-0.12919067 -0.0982,-0.0516763 -0.22737,-0.041341 -0.0775,0.0206705 -0.15503,0.0775144 -0.0775,0.0516763 -0.1447,0.12402304 -0.062,0.0723468 -0.10335,0.16019643 -0.0413,0.082682 -0.0413,0.16536402 z m 1.20923,-0.13435827 q 0,0.17569927 -0.0465,0.34106337 -0.0465,0.1653641 -0.1447,0.2945547 -0.0982,0.1291907 -0.25321,0.2067051 -0.14986,0.077514 -0.36173,0.077514 -0.26355,0 -0.44442,-0.1705317 -0.18087,-0.1705317 -0.1912,-0.4547511 0,-0.1446936 0.0413,-0.34623104 0.0465,-0.20670507 0.13952,-0.39790726 0.093,-0.19120219 0.23772,-0.33072811 0.14986,-0.14469355 0.35656,-0.17053168 0.19637,-0.02067051 0.32556,0.0775144 0.12919,0.0981849 0.20671,0.24804608 0.0723,0.15502881 0.10335,0.33072812 0.031,0.17053168 0.031,0.29455472 z m -2.36161,4.41315377 q -0.25838,0.1188554 -0.5426,0.2480461 -0.27905,0.1291906 -0.5426,0.248046 -0.26355,0.1188555 -0.49093,0.222208 -0.22737,0.1033525 -0.38757,0.1705317 -0.0362,0.015503 -0.0517,0 -0.0155,-0.015503 0,-0.046509 l 0.25321,-0.5064274 q 0.0258,-0.041341 0.0517,-0.056844 0.031,-0.02067 0.0568,-0.036173 l 1.88618,-0.8371555 q 0.0827,-0.036173 0.0517,0.041341 l -0.21187,0.4805893 q -0.0155,0.046509 -0.0724,0.072347 z m -3.66385,0.2738841 0.63562,0.5270979 q 0.0413,0.036173 0.005,0.082682 l -0.42375,0.5322655 q -0.0362,0.051676 -0.0827,0.010335 l -0.64078,-0.527098 q -0.0413,-0.036173 0,-0.08785 l 0.42891,-0.5270979 q 0.0362,-0.046509 0.0775,-0.010335 z m -1.36942,4.2426216 h -0.093 q -0.15503,0 -0.23255,-0.1240231 -0.0775,-0.1291906 -0.0775,-0.2842194 0,-0.077514 0.0207,-0.1498612 0.0155,-0.072347 0.0568,-0.1291907 0.0362,-0.056844 0.0982,-0.093017 0.0568,-0.036173 0.13436,-0.036173 h 0.093 q 0.1602,0 0.35657,-0.010335 0.20154,-0.010335 0.37724,-0.056844 0.17053,-0.046509 0.33589,-0.1395259 0.16537,-0.098185 0.30489,-0.2687166 0.10335,-0.124023 0.16537,-0.2532137 0.0672,-0.1291907 0.12919,-0.2945547 0.0258,-0.067179 0.0827,-0.072347 0.062,-0.00517 0.0672,0.025838 0.005,0.062012 -0.0103,0.1498612 -0.0103,0.08785 -0.0103,0.1601964 0,0.1343583 0.0672,0.2687166 0.0672,0.1343583 0.2067,0.2428785 0.13953,0.1085201 0.38241,0.1808669 0.24804,0.067179 0.5581,0.067179 h 0.0982 q 0.0775,0 0.13436,0.036173 0.0568,0.036173 0.093,0.093017 0.0413,0.056844 0.0568,0.1291907 0.0207,0.072347 0.0207,0.1498612 0,0.1550288 -0.0775,0.2842194 -0.0724,0.1240231 -0.22738,0.1240231 h -0.0982 q -0.27905,0 -0.53227,-0.051676 -0.24804,-0.056844 -0.42374,-0.165364 -0.34107,-0.2067051 -0.53227,-0.60978 -0.11369,0.2325432 -0.26871,0.387572 -0.15503,0.1550288 -0.34107,0.2532137 -0.1912,0.098185 -0.43408,0.1446936 -0.24288,0.041341 -0.48059,0.041341 z m 1.29708,-5.6068751 q -0.11369,0.2273755 -0.25839,0.3410633 -0.15503,0.1188554 -0.3669,0.1240231 -0.17053,0.00517 -0.29972,-0.08785 -0.12402,-0.093017 -0.14469,-0.3255605 -0.0103,-0.1033525 0.0103,-0.2118727 0.0207,-0.1136878 0.062,-0.2118727 0.0413,-0.093017 0.093,-0.1601964 0.0568,-0.072347 0.11886,-0.093017 0.062,-0.00517 0.0103,0.093017 -0.031,0.056844 -0.0517,0.1343583 -0.0155,0.077514 -0.0207,0.1550288 0,0.072347 0.0155,0.124023 0.0155,0.051676 0.0672,0.098185 0.0775,0.056844 0.16536,0.056844 0.0879,-0.00517 0.17053,-0.041341 0.0879,-0.036173 0.15503,-0.082682 0.0724,-0.051676 0.14469,-0.1343583 0.0672,-0.077514 0.0982,-0.1963698 0.031,-0.1188554 0.0413,-0.1963698 0.005,-0.067179 0.0362,-0.1343583 0.031,-0.067179 0.10336,-0.067179 0.0155,0 0.0207,0.031006 0.0103,0.025838 0.0155,0.062012 0.005,0.036173 0.005,0.072347 0,0.031006 0,0.046509 0,0.1498612 0.0465,0.2377109 0.0465,0.082682 0.18603,0.1136877 0.0724,0.015503 0.18604,-0.015503 0.11885,-0.031006 0.2067,-0.1033526 0.0103,-0.010335 0.005,-0.056844 -0.005,-0.046509 -0.0207,-0.098185 -0.0103,-0.051676 -0.0362,-0.1085201 -0.0207,-0.062012 -0.0258,-0.072347 l 0.1912,-0.3617339 q 0.0517,0.025838 0.0775,0.1136878 0.031,0.08785 0.0362,0.2015374 0.0103,0.1085202 0,0.222208 -0.0103,0.1136878 -0.0258,0.1912022 -0.062,0.1912022 -0.17053,0.346231 -0.10336,0.1550288 -0.3204,0.1963698 -0.1912,0.036173 -0.32039,-0.025838 -0.12919,-0.062012 -0.2067,-0.1756993 z m 0.93017,-2.077386 q -0.25838,0.1188554 -0.5426,0.2480461 -0.27905,0.1291906 -0.5426,0.2480461 -0.26355,0.1188554 -0.49093,0.2222079 -0.22737,0.1033525 -0.38757,0.1705317 -0.0362,0.015503 -0.0517,0 -0.0155,-0.015503 0,-0.046509 l 0.25322,-0.5064275 q 0.0258,-0.041341 0.0517,-0.056844 0.031,-0.020671 0.0568,-0.036173 l 1.88618,-0.8371556 q 0.0827,-0.036173 0.0517,0.041341 l -0.21188,0.4805893 q -0.0155,0.046509 -0.0723,0.072347 z m -2.16007,6.8677761 q 0.15503,0 0.23254,0.1291906 0.0775,0.1291907 0.0775,0.2842195 0.005,0.1498612 -0.0724,0.2790518 -0.0775,0.1240231 -0.23771,0.1240231 -0.0155,0 -0.0362,0 -0.0155,0 -0.0362,0 -0.46508,0 -0.76481,-0.1705317 -0.29455,-0.1705317 -0.47025,-0.4547512 -0.2067,-0.3410633 -0.27388,-0.733803 -0.062,-0.3979072 -0.10336,-0.7906468 -0.0465,-0.4495836 -0.0982,-0.8991671 -0.0517,-0.4495835 -0.10335,-0.8991671 -0.0517,-0.4650864 -0.12403,-0.9353404 -0.0672,-0.4754217 -0.2222,-1.0231901 -0.0103,-0.041341 -0.0155,-0.062012 -0.005,-0.02067 0.005,-0.051676 l 0.26872,-0.6769591 q 0.0155,-0.036173 0.0413,-0.036173 0.031,0 0.0413,0.036173 0.0672,0.2945547 0.12402,0.5942771 0.0568,0.2945547 0.10852,0.6407857 0.0517,0.3410634 0.0982,0.7544735 0.0517,0.4082425 0.10852,0.9301728 0.0413,0.3617339 0.0775,0.7131325 0.0362,0.3513986 0.0724,0.7027973 0.0362,0.2790518 0.0775,0.5736065 0.0413,0.2945548 0.1757,0.5426008 0.11886,0.2118727 0.34107,0.3203929 0.22737,0.1085202 0.63561,0.1085202 0.0207,0 0.0362,0 0.0207,0 0.0362,0 z m -7.09515,3.0437321 h -0.66662 q 1.54512,-2.4804608 1.54512,-4.9660893 0,-0.9715138 -0.22221,-1.9275248 -0.1757,-0.775144 -0.49093,-1.4882765 -0.20153,-0.4650864 -0.83198,-1.550288 h 0.66662 q 0.97151,1.2970743 1.4366,2.6044839 0.39791,1.1265426 0.39791,2.3564378 0,1.3952592 -0.53744,2.6975011 -0.53226,1.3022418 -1.29707,2.2737558 z M 179.9466,8.4923395 q 0.0103,-0.015503 -0.0207,-0.082682 -0.0258,-0.072347 -0.0672,-0.1550288 -0.0413,-0.082682 -0.0827,-0.1550288 -0.0413,-0.077514 -0.0568,-0.1033525 -0.0879,-0.1291907 -0.21704,-0.2428785 -0.12402,-0.1136878 -0.31006,-0.1033525 -0.0827,0.00517 -0.16536,0.046509 -0.0775,0.041341 -0.1447,0.1033525 -0.0672,0.062012 -0.11885,0.139526 -0.0517,0.072347 -0.0775,0.1498611 0.26355,0.222208 0.58911,0.3152253 0.32556,0.08785 0.6718,0.087849 z m -3.24527,0.60978 q 0.21704,0 0.42891,-0.010335 0.21704,-0.015503 0.40307,-0.062011 0.18604,-0.046509 0.33073,-0.1343583 0.14986,-0.093017 0.23254,-0.2480461 0.14987,-0.2790518 0.27389,-0.5581037 0.12402,-0.2842194 0.27388,-0.5477684 0.0569,-0.098185 0.14986,-0.2170403 0.0982,-0.1188554 0.21188,-0.222208 0.11368,-0.1085201 0.23771,-0.1756993 0.12402,-0.067179 0.24288,-0.062012 0.12919,0.00517 0.25321,0.093017 0.12402,0.08785 0.23254,0.2273756 0.11369,0.1395259 0.20154,0.3152252 0.093,0.1705317 0.1602,0.346231 0.0672,0.1756993 0.0982,0.3410633 0.0362,0.1601965 0.031,0.2790519 -0.0103,0.1085202 -0.031,0.2325432 -0.0207,0.1188554 -0.0672,0.2273756 -0.0413,0.1085201 -0.11368,0.2015374 -0.0672,0.08785 -0.17054,0.1343583 -0.11885,0.041341 -0.32556,0.025838 -0.2067,-0.015503 -0.45475,-0.077514 -0.24288,-0.062012 -0.49609,-0.1705316 -0.25321,-0.1085202 -0.47025,-0.2583814 -0.20154,0.5942771 -0.60462,0.8629937 -0.40307,0.2687166 -1.02835,0.2687166 h -0.093 q -0.16537,0 -0.24288,-0.1240231 -0.0827,-0.1291906 -0.0827,-0.2790518 0,-0.1550288 0.0827,-0.2790518 0.0775,-0.1291907 0.24288,-0.1291907 z M 177.647,4.8750007 q 0.17053,-0.098185 0.3359,-0.1963698 0.16536,-0.098185 0.32039,-0.2118727 0.16019,-0.1136878 0.31522,-0.2480461 0.15503,-0.1343583 0.29973,-0.3048899 -0.13953,-0.041341 -0.29456,-0.139526 -0.15503,-0.098185 -0.24804,-0.2118727 -0.0465,-0.056844 -0.0568,-0.1446935 -0.0103,-0.093017 0.0155,-0.1705317 0.0413,-0.124023 0.11369,-0.2687166 0.0775,-0.1446935 0.18087,-0.263549 0.10335,-0.1188554 0.22737,-0.1912021 0.1292,-0.077514 0.25839,-0.072347 0.16019,0.010335 0.23254,0.1550288 0.0724,0.1395259 0.0878,0.3255605 0.0207,0.1860345 0,0.3669015 -0.0155,0.1808669 -0.0258,0.2635489 0,0.025838 0.0155,0.041341 0.062,0.036173 0.0827,0.067179 0.0258,0.031006 0.0413,0.072347 0.031,0.077514 0.0103,0.1860345 -0.0155,0.1085202 -0.062,0.1653641 -0.0413,0.051676 -0.0724,0.051676 -0.031,-0.00517 -0.062,-0.051676 -0.0258,-0.031006 -0.0517,-0.056844 -0.0207,-0.031006 -0.0672,-0.051676 -0.1447,0.1756993 -0.31006,0.3358958 -0.1602,0.1601964 -0.34106,0.2945547 -0.18604,0.1291907 -0.38758,0.2325432 -0.20153,0.1033525 -0.42374,0.1705317 -0.0879,0.025838 -0.18087,0.036173 -0.093,0.00517 -0.10335,-0.020671 -0.0103,-0.031006 0.0362,-0.072347 0.0465,-0.046509 0.11369,-0.08785 z m 0.97151,-1.7363226 q 0.10852,0.1498612 0.25838,0.2377109 0.14987,0.082682 0.27389,0.1136878 h 0.0103 q 0,-0.041341 0.005,-0.1085202 0.005,-0.072347 0,-0.1446936 0,-0.072347 -0.0207,-0.1395259 -0.0155,-0.067179 -0.062,-0.1136878 -0.0413,-0.036173 -0.11886,-0.031006 -0.0723,0 -0.14469,0.025838 -0.0724,0.025838 -0.13436,0.072347 -0.0568,0.041341 -0.0672,0.08785 z m -3.43647,5.4053377 q 0.0207,-0.072347 0.0724,-0.010335 0.1602,0.1912022 0.32039,0.30489 0.1602,0.1085202 0.33073,0.1653641 0.0879,0.031006 0.17053,0.051676 0.0827,0.015503 0.17053,0.031006 0.093,0.010335 0.20154,0.015503 0.10852,0 0.24805,0 h 0.093 q 0.16537,0 0.24805,0.1291907 0.0827,0.124023 0.0827,0.2738842 0,0.1550288 -0.0827,0.2842194 -0.0827,0.1240231 -0.24805,0.1240231 h -0.093 q -0.17053,0 -0.3514,-0.010335 -0.1757,-0.015503 -0.34623,-0.041341 -0.0517,0.2842197 -0.12403,0.5322657 -0.0723,0.253214 -0.14986,0.470254 -0.18603,0.48059 -0.43408,0.857826 -0.23771,0.372069 -0.7183,0.630451 -0.26355,0.144693 -0.54777,0.21704 -0.28422,0.07235 -0.56843,0.08785 -0.18604,0.01034 -0.36691,0.0052 -0.1757,-0.0052 -0.36173,-0.03101 -0.18603,-0.02067 -0.3824,-0.07235 -0.20154,-0.04651 -0.42375,-0.129191 -0.062,-0.02584 -0.0827,-0.06201 -0.0258,-0.03617 -0.0103,-0.07235 0.0258,-0.06718 0.20671,-0.06718 0.31006,0.0052 0.5736,-0.01034 0.26355,-0.0155 0.5116,-0.07235 0.24805,-0.05168 0.49609,-0.149862 0.25322,-0.09302 0.54777,-0.253213 0.31523,-0.170532 0.56327,-0.387572 0.24805,-0.211873 0.43408,-0.459919 0.18087,-0.248046 0.31006,-0.52193 0.12919,-0.273885 0.20154,-0.5684396 -0.19637,-0.082682 -0.38241,-0.2273756 -0.18603,-0.1446935 -0.30489,-0.2997223 z m 0.28939,-3.5346569 q -0.25838,0.1188554 -0.5426,0.2480461 -0.27905,0.1291906 -0.5426,0.2480461 -0.26355,0.1188554 -0.49093,0.2222079 -0.22737,0.1033525 -0.38757,0.1705317 -0.0362,0.015503 -0.0517,0 -0.0155,-0.015503 0,-0.046509 l 0.25321,-0.5064274 q 0.0258,-0.041341 0.0517,-0.056844 0.031,-0.02067 0.0568,-0.036173 l 1.88618,-0.8371555 q 0.0827,-0.036173 0.0517,0.041341 l -0.21187,0.4805893 q -0.0155,0.046509 -0.0724,0.072347 z m -4.15994,2.0877214 q 0.14469,0.1446935 0.26355,0.3152252 0.12402,0.1705317 0.21704,0.3565663 0.093,0.1860345 0.14469,0.3824044 0.0517,0.1963698 0.0517,0.3979072 0,0.08785 -0.0103,0.1963698 -0.0103,0.1085202 -0.031,0.222208 -0.0207,0.1085202 -0.0568,0.2118727 -0.031,0.098185 -0.0775,0.1705317 -0.12402,0.1860345 -0.34623,0.2997223 -0.21704,0.1136878 -0.48059,0.1705317 -0.26355,0.056844 -0.53743,0.077514 -0.26872,0.015503 -0.49093,0.015503 h -0.093 q -0.16019,0 -0.24287,-0.1240231 -0.0827,-0.1291906 -0.0827,-0.2842194 0,-0.1550288 0.0827,-0.2790519 0.0827,-0.1291906 0.24287,-0.1291906 h 0.093 q 0.24805,0 0.49093,-0.00517 0.24804,-0.010335 0.46508,-0.031006 0.22221,-0.02067 0.39791,-0.056844 0.1757,-0.041341 0.27905,-0.1085202 0.0569,-0.031006 0.0569,-0.077514 0.005,-0.046509 -0.0207,-0.1188554 -0.0517,-0.1343583 -0.11885,-0.2480461 -0.062,-0.1136878 -0.13953,-0.2170403 -0.0827,-0.1085202 -0.17053,-0.2067051 -0.0879,-0.098185 -0.18603,-0.1963698 l 0.17053,-0.7234677 q 0.0155,-0.056844 0.0517,-0.056844 0.0362,0 0.0775,0.046509 z m 0.5271,-1.038693 q -0.0258,0.031006 -0.0413,0.036173 -0.0155,0 -0.0568,-0.031006 l -0.61494,-0.4805892 -0.40308,0.552936 q -0.0362,0.046509 -0.0775,0.015503 l -0.65629,-0.5064274 q -0.0362,-0.025838 -0.0103,-0.062011 l 0.41858,-0.5942771 q 0.0207,-0.031006 0.0362,-0.031006 0.0155,0 0.0362,0.020671 l 0.62011,0.4702541 0.42375,-0.5426009 q 0.031,-0.041341 0.062,-0.015503 l 0.65629,0.5477684 q 0.0362,0.025838 0,0.072347 z M 170.92396,3.789799 q -0.11369,0.2273756 -0.25838,0.3410634 -0.15503,0.1188554 -0.3669,0.124023 -0.17054,0.00517 -0.29973,-0.08785 -0.12402,-0.093017 -0.14469,-0.3255605 -0.0103,-0.1033525 0.0103,-0.2118727 0.0207,-0.1136878 0.062,-0.2118727 0.0413,-0.093017 0.093,-0.1601964 0.0568,-0.072347 0.11886,-0.093017 0.062,-0.00517 0.0103,0.093017 -0.031,0.056844 -0.0517,0.1343583 -0.0155,0.077514 -0.0207,0.1550288 0,0.072347 0.0155,0.124023 0.0155,0.051676 0.0672,0.098185 0.0775,0.056844 0.16536,0.056844 0.0879,-0.00517 0.17054,-0.041341 0.0879,-0.036173 0.15502,-0.082682 0.0724,-0.051676 0.1447,-0.1343583 0.0672,-0.077514 0.0982,-0.1963698 0.031,-0.1188555 0.0413,-0.1963699 0.005,-0.067179 0.0362,-0.1343583 0.031,-0.067179 0.10335,-0.067179 0.0155,0 0.0207,0.031006 0.0103,0.025838 0.0155,0.062011 0.005,0.036173 0.005,0.072347 0,0.031006 0,0.046509 0,0.1498612 0.0465,0.2377108 0.0465,0.082682 0.18603,0.1136878 0.0724,0.015503 0.18604,-0.015503 0.11885,-0.031006 0.2067,-0.1033525 0.0103,-0.010335 0.005,-0.056844 -0.005,-0.046509 -0.0207,-0.098185 -0.0103,-0.051676 -0.0362,-0.1085202 -0.0207,-0.062012 -0.0258,-0.072347 l 0.1912,-0.3617339 q 0.0517,0.025838 0.0775,0.1136878 0.031,0.08785 0.0362,0.2015374 0.0103,0.1085202 0,0.222208 -0.0103,0.1136878 -0.0258,0.1912022 -0.062,0.1912021 -0.17053,0.3462309 -0.10335,0.1550289 -0.32039,0.1963699 -0.19121,0.036173 -0.3204,-0.025838 -0.12919,-0.062012 -0.2067,-0.1756993 z m 0.93017,-2.0773859 q -0.25838,0.1188554 -0.5426,0.248046 -0.27905,0.1291907 -0.5426,0.2480461 -0.26355,0.1188554 -0.49092,0.222208 -0.22738,0.1033525 -0.38758,0.1705317 -0.0362,0.015503 -0.0517,0 -0.0155,-0.015503 0,-0.046509 l 0.25321,-0.5064274 q 0.0258,-0.041341 0.0517,-0.056844 0.031,-0.020671 0.0568,-0.036173 l 1.88618,-0.8371555 q 0.0827,-0.036173 0.0517,0.041341 l -0.21187,0.4805893 q -0.0155,0.046509 -0.0724,0.072347 z m -3.14192,9.4980979 -0.7338,-6.8264348 q 0.0517,-0.1705316 0.12402,-0.3307281 0.0724,-0.165364 0.14987,-0.3358957 0.0207,-0.036173 0.0517,-0.036173 0.0362,-0.00517 0.0465,0.082682 l 0.46509,3.891223 q 0.031,0.3307281 0.0982,0.5994447 0.0672,0.2687166 0.19637,0.4547512 0.12919,0.1912021 0.3359,0.2945547 0.2067,0.098185 0.51676,0.098185 h 0.093 q 0.16536,0 0.24804,0.1291907 0.0827,0.124023 0.0827,0.2790518 0,0.1498612 -0.0827,0.2790518 -0.0827,0.1240231 -0.24804,0.1240231 h -0.093 q -0.32039,0 -0.56844,-0.093017 -0.24805,-0.093017 -0.41858,-0.2842195 0.0155,0.1653641 0.031,0.3617339 0.0155,0.1912022 0.0258,0.3720692 0.0155,0.186035 0.0207,0.341064 0.005,0.155028 0,0.242878 -0.0413,0.506427 -0.24288,0.909502 -0.19637,0.403075 -0.52193,0.687295 -0.32039,0.289387 -0.74931,0.439248 -0.42374,0.155029 -0.91983,0.155029 -0.43925,0 -0.80099,-0.134359 -0.36173,-0.12919 -0.62528,-0.377236 -0.25838,-0.248046 -0.40307,-0.604613 -0.1447,-0.351398 -0.1447,-0.795814 0,-0.480589 0.15503,-0.925005 0.15503,-0.4392489 0.43408,-0.8474914 0.031,-0.046509 0.0517,-0.041341 0.0258,0 0.0413,0.025838 0.0155,0.025838 0.0207,0.062012 0.005,0.031006 0,0.041341 -0.21704,0.4599188 -0.29456,0.9560104 -0.0775,0.50126 0.0775,0.904335 0.15503,0.403075 0.5271,0.656289 0.37723,0.253213 1.01802,0.253213 0.28939,0 0.57877,-0.06718 0.29456,-0.06201 0.56327,-0.191202 0.26872,-0.124023 0.4961,-0.315225 0.23254,-0.186035 0.3979,-0.434081 z m -5.43634,0.930173 q -0.76998,-0.971514 -1.30224,-2.2737558 -0.53227,-1.3022419 -0.53227,-2.6975011 0,-1.2298952 0.39791,-2.3564378 0.46509,-1.3074096 1.4366,-2.6044839 h 0.66662 q -0.62528,1.0748663 -0.82682,1.5347851 -0.31522,0.7131325 -0.49609,1.4882765 -0.22221,0.9663462 -0.22221,1.9430277 0,2.4856285 1.54512,4.9660893 z"
         id="text15"
         style="font-size:10.5833px;line-height:1.25;font-family:'KFGQPC Uthmanic Script HAFS';-inkscape-font-specification:'KFGQPC Uthmanic Script HAFS';direction:rtl;stroke-width:0.264583"
         aria-label="الشَّيْخُ مَحْمُود عَلِي الْبَنَّا (مُرَتَّل)" />
    </g>
  </g>
</svg>
