<?xml version="1.0" encoding="UTF-8" standalone="no"?>
<!-- Created with Inkscape (http://www.inkscape.org/) -->

<svg
   width="66.923698mm"
   height="15.624371mm"
   viewBox="0 0 66.923699 15.62437"
   version="1.1"
   id="svg1"
   xmlns="http://www.w3.org/2000/svg"
   xmlns:svg="http://www.w3.org/2000/svg">
  <defs
     id="defs1" />
  <g
     id="layer1"
     transform="translate(-1979.6689)">
    <g
       id="g25"
       transform="translate(1645.3851,1.5292955)">
      <path
         d="m 399.44506,1.4999975 q 0.0827,0.00517 0.0775,0.1912022 -0.0103,0.1963698 0.005,0.387572 0.0155,0.1860345 0.0413,0.3772367 0.0517,0.4599188 0.12402,0.9508434 0.0724,0.4857569 0.14469,0.981849 0.0672,0.4909246 0.13436,0.9818491 0.0672,0.4909246 0.11369,0.956011 0.0207,0.1808669 0.0258,0.4237454 0.0103,0.2428784 -0.005,0.4960922 -0.0103,0.248046 -0.0568,0.4805892 -0.0414,0.2325433 -0.11886,0.3875721 -0.0413,0.08785 -0.0982,0.1136877 -0.0465,0.00517 -0.0414,-0.041341 -0.031,-0.4495835 -0.0775,-0.9043347 -0.0413,-0.4599187 -0.10852,-0.9353404 -0.0672,-0.4909245 -0.13436,-0.9715138 -0.0672,-0.4805893 -0.12919,-0.9611786 -0.0672,-0.4805893 -0.13436,-0.9611786 -0.062,-0.4805893 -0.12402,-0.9663462 0.0155,-0.1188554 0.0465,-0.2428785 0.031,-0.1291906 0.0879,-0.2635489 0.12402,-0.3358958 0.16536,-0.4082425 0.0465,-0.072347 0.062,-0.072347 z m -2.21691,-0.2893871 q 0.0155,-0.046509 0.0413,-0.056844 0.0258,-0.010335 0.0413,0.056844 0.0413,0.124023 0.093,0.2532137 0.0517,0.1291907 0.11886,0.2532137 0.0723,0.124023 0.16536,0.2325432 0.093,0.1033525 0.21187,0.1756993 -0.0723,0.1240231 -0.12919,0.2170403 -0.0517,0.08785 -0.0879,0.1653641 -0.0362,0.072347 -0.0517,0.1446936 -0.0155,0.067179 -0.005,0.1446935 0.0568,0.4960922 0.12919,0.997352 0.0775,0.4960921 0.14469,0.9921843 0.0723,0.4960922 0.12403,0.9921844 0.0568,0.4960921 0.0723,0.9973519 0.005,0.1653641 -0.0207,0.3358958 -0.0258,0.1705316 -0.0827,0.3255604 -0.0568,0.1550289 -0.14469,0.2945548 -0.0827,0.1343583 -0.1912,0.2273756 -0.14987,0.1291906 -0.37207,0.1860345 -0.21704,0.051676 -0.53227,0.051676 h -0.093 q -0.16536,0 -0.24804,-0.1240231 -0.0879,-0.1291906 -0.0879,-0.2790518 0,-0.1550288 0.0879,-0.2790519 0.0827,-0.1291906 0.24804,-0.1291906 h 0.093 q 0.17053,0 0.33073,-0.010335 0.1602,-0.015503 0.29455,-0.046509 0.13436,-0.036173 0.22738,-0.093017 0.0982,-0.062012 0.13953,-0.1550288 -0.10336,-1.0903693 -0.26872,-2.1497327 -0.16536,-1.0645312 -0.32039,-2.1393975 -0.031,-0.2170403 -0.0672,-0.4237454 -0.031,-0.2118727 -0.14986,-0.4082425 -0.0413,-0.056844 -0.0465,-0.072347 -0.005,-0.02067 0.0258,-0.082682 0.0879,-0.1498612 0.16019,-0.30489 0.0775,-0.1601964 0.14986,-0.2893871 z m -3.37963,5.2503088 q 0.062,-0.1033525 0.12402,-0.098185 0.0672,0.00517 0.0362,0.124023 -0.0258,0.1085202 -0.0723,0.2273756 -0.0465,0.1136878 -0.10335,0.2480461 0.0362,0.08785 0.16019,0.1756993 0.1292,0.082682 0.28939,0.1446935 0.15503,0.056844 0.31523,0.082682 0.16536,0.025838 0.27388,-0.015503 0.1757,-0.056844 0.28939,-0.3152252 0.11369,-0.263549 0.19637,-0.5529361 0.0413,-0.1550288 0.10852,-0.1808669 0.0672,-0.025838 0.0775,0.1136877 0.0207,0.2583814 0.093,0.4444159 0.0723,0.1860346 0.21704,0.2997224 0.27388,0.2273756 0.89917,0.2273756 h 0.093 q 0.16537,0 0.24805,0.1291906 0.0827,0.1291907 0.0827,0.2790519 0,0.1498612 -0.0827,0.2790518 -0.0827,0.1240231 -0.24805,0.1240231 h -0.093 q -0.27389,0 -0.47026,-0.031006 -0.19637,-0.036173 -0.3824,-0.1136878 -0.43408,-0.1860345 -0.65629,-0.6149476 -0.0362,0.082682 -0.093,0.1963699 -0.0568,0.1136878 -0.13436,0.2222079 -0.0723,0.1033526 -0.16019,0.1756993 -0.0879,0.072347 -0.18604,0.072347 -0.12919,0 -0.29972,-0.031006 -0.17053,-0.031006 -0.34106,-0.098185 -0.1757,-0.062012 -0.3359,-0.1601964 -0.15503,-0.1033525 -0.26355,-0.2428785 -0.18086,0.2067051 -0.40824,0.346231 -0.22221,0.1343583 -0.47542,0.1756993 -0.25838,0.046509 -0.5426,0 -0.27905,-0.051676 -0.57361,-0.206705 -0.13436,0.098185 -0.29455,0.1601964 -0.1602,0.062012 -0.31523,0.093017 -0.16019,0.036173 -0.30489,0.046509 -0.14469,0.010335 -0.25321,0.010335 h -0.093 q -0.15503,0 -0.23254,-0.1240231 -0.0775,-0.1291906 -0.0775,-0.2790518 0,-0.1498612 0.0775,-0.2790519 0.0775,-0.1291906 0.23254,-0.1291906 h 0.093 q 0.31006,0 0.5736,-0.020671 0.26355,-0.025838 0.4961,-0.1136878 0.22737,-0.082682 0.42891,-0.2532137 0.2067,-0.1705317 0.39274,-0.4650864 0.0672,-0.1085202 0.11369,-0.093017 0.0517,0.010335 0.031,0.1188554 -0.0362,0.1860346 -0.11885,0.3979073 -0.0827,0.2118727 -0.20154,0.3617338 0.10335,0.031006 0.25321,0.046509 0.15503,0.015503 0.32556,0 0.25322,-0.02067 0.47543,-0.1033526 0.22737,-0.08785 0.40824,-0.2635489 0.11369,-0.1033526 0.21187,-0.2377109 0.10335,-0.1395259 0.19637,-0.2997223 z m 0.45475,-1.162716 q -0.031,0.036173 -0.0465,0.036173 -0.0155,0 -0.0517,-0.025838 l -0.60978,-0.4805893 -0.39791,0.5529361 q -0.0362,0.046509 -0.0775,0.010335 l -0.65113,-0.4960921 q -0.0362,-0.031006 -0.0103,-0.067179 l 0.41341,-0.5891094 q 0.0258,-0.031006 0.0362,-0.025838 0.0155,0 0.0362,0.015503 l 0.61494,0.4702541 0.41858,-0.5374332 q 0.031,-0.041341 0.062,-0.02067 l 0.65112,0.5426008 q 0.031,0.031006 0,0.072347 z m -0.97668,-2.1807385 0.63562,0.5219303 q 0.0413,0.031006 0.005,0.072347 l -0.42375,0.527098 q -0.0362,0.046509 -0.0827,0.010335 l -0.64079,-0.5167627 q -0.0413,-0.036173 0,-0.08785 l 0.42892,-0.5167627 q 0.0362,-0.046509 0.0775,-0.010335 z m 0.0413,-1.4314326 q -0.11369,0.2273756 -0.25838,0.3410634 -0.15503,0.1188554 -0.3669,0.124023 -0.17053,0.00517 -0.29972,-0.08785 -0.12403,-0.093017 -0.1447,-0.3255605 -0.0103,-0.1033526 0.0103,-0.2118727 0.0207,-0.1136878 0.062,-0.2118727 0.0413,-0.093017 0.093,-0.1601965 0.0568,-0.072347 0.11885,-0.093017 0.062,-0.00517 0.0103,0.093017 -0.031,0.056844 -0.0517,0.1343583 -0.0155,0.077514 -0.0207,0.1550288 0,0.072347 0.0155,0.1240231 0.0155,0.051676 0.0672,0.098185 0.0775,0.056844 0.16537,0.056844 0.0879,-0.00517 0.17053,-0.041341 0.0878,-0.036173 0.15503,-0.082682 0.0723,-0.051676 0.14469,-0.1343582 0.0672,-0.077514 0.0982,-0.1963699 0.031,-0.1188554 0.0413,-0.1963698 0.005,-0.067179 0.0362,-0.13435828 0.031,-0.0671792 0.10335,-0.0671792 0.0155,0 0.0207,0.0310058 0.0103,0.0258381 0.0155,0.0620115 0.005,0.0361734 0.005,0.0723467 0,0.031006 0,0.046509 0,0.1498611 0.0465,0.2377108 0.0465,0.082682 0.18604,0.1136878 0.0723,0.015503 0.18603,-0.015503 0.11886,-0.031006 0.20671,-0.1033525 0.0103,-0.010335 0.005,-0.056844 -0.005,-0.046509 -0.0207,-0.098185 -0.0103,-0.051676 -0.0362,-0.1085202 -0.0207,-0.0620115 -0.0258,-0.0723468 l 0.1912,-0.36173388 q 0.0517,0.0258381 0.0775,0.11368779 0.031,0.0878497 0.0362,0.20153745 0.0103,0.10852022 0,0.22220792 -0.0103,0.1136878 -0.0258,0.1912022 -0.062,0.1912022 -0.17053,0.346231 -0.10335,0.1550288 -0.32039,0.1963698 -0.1912,0.036173 -0.32039,-0.025838 -0.1292,-0.062012 -0.20671,-0.1756993 z m 0.93017,-2.07738596 q -0.25838,0.11885542 -0.5426,0.24804609 -0.27905,0.12919067 -0.5426,0.24804608 -0.26355,0.11885542 -0.49092,0.22220795 -0.22738,0.10335254 -0.38757,0.17053169 -0.0362,0.0155029 -0.0517,0 -0.0155,-0.0155029 0,-0.0465086 l 0.25321,-0.50642742 q 0.0258,-0.04134101 0.0517,-0.05684389 0.031,-0.0206705 0.0568,-0.0361734 l 1.88619,-0.83715554 q 0.0827,-0.0361734 0.0517,0.041341 l -0.21187,0.48058929 q -0.0155,0.0465086 -0.0724,0.0723468 z M 389.40953,10.259125 q -0.0258,0.03101 -0.0413,0.03101 -0.0155,0.0052 -0.0568,-0.02584 l -0.61495,-0.4805888 -0.40308,0.5529358 q -0.0362,0.04651 -0.0775,0.0155 l -0.65629,-0.5064273 q -0.0362,-0.025838 -0.0103,-0.062012 l 0.41858,-0.5942771 q 0.0207,-0.031006 0.0362,-0.031006 0.0155,0 0.0362,0.02067 l 0.62011,0.470254 0.42375,-0.5426008 q 0.031,-0.041341 0.062,-0.015503 l 0.65629,0.5477685 q 0.0362,0.025838 0,0.072347 z m -2.16007,-2.0618832 h -0.093 q -0.15502,0 -0.23254,-0.1240231 -0.0775,-0.1291906 -0.0775,-0.2842194 0,-0.077514 0.0207,-0.1498612 0.0155,-0.072347 0.0568,-0.1291907 0.0362,-0.056844 0.0982,-0.093017 0.0568,-0.036173 0.13435,-0.036173 h 0.093 q 0.1602,0 0.35657,-0.010335 0.20154,-0.010335 0.37724,-0.056844 0.17053,-0.046509 0.33589,-0.1395259 0.16537,-0.098185 0.30489,-0.2687166 0.10335,-0.1240231 0.16536,-0.2532137 0.0672,-0.1291907 0.1292,-0.2945547 0.0258,-0.067179 0.0827,-0.072347 0.062,-0.00517 0.0672,0.025838 0.005,0.062011 -0.0103,0.1498612 -0.0103,0.08785 -0.0103,0.1601964 0,0.1343583 0.0672,0.2687166 0.0672,0.1343583 0.2067,0.2428785 0.13953,0.1085201 0.3824,0.1808669 0.24805,0.067179 0.55811,0.067179 h 0.0982 q 0.0775,0 0.13436,0.036173 0.0568,0.036173 0.093,0.093017 0.0413,0.056844 0.0568,0.1291907 0.0207,0.072347 0.0207,0.1498612 0,0.1550288 -0.0775,0.2842194 -0.0724,0.1240231 -0.22738,0.1240231 h -0.0982 q -0.27905,0 -0.53227,-0.051676 -0.24804,-0.056844 -0.42374,-0.165364 -0.34107,-0.2067051 -0.53227,-0.60978 -0.11369,0.2325432 -0.26871,0.387572 -0.15503,0.1550288 -0.34107,0.2532137 -0.1912,0.098185 -0.43408,0.1446936 -0.24288,0.041341 -0.48059,0.041341 z m 0.58911,-5.5655339 q 0,0.08785 0.0465,0.139526 0.0517,0.046509 0.11885,0.072347 0.0672,0.025838 0.1447,0.031006 0.0827,0.00517 0.14469,0.00517 0.14469,0 0.26872,-0.062012 0.12919,-0.062012 0.23254,-0.1601964 0.0103,-0.093017 -0.0207,-0.1963698 -0.031,-0.1033526 -0.0982,-0.1860346 -0.0672,-0.082682 -0.16537,-0.1291907 -0.0982,-0.051676 -0.22737,-0.041341 -0.0775,0.020671 -0.15503,0.077514 -0.0775,0.051676 -0.1447,0.1240231 -0.062,0.072347 -0.10335,0.1601964 -0.0413,0.082682 -0.0413,0.165364 z m 1.20922,-0.1343583 q 0,0.1756994 -0.0465,0.3410634 -0.0465,0.1653641 -0.1447,0.2945547 -0.0982,0.1291907 -0.25321,0.2067051 -0.14986,0.077514 -0.36174,0.077514 -0.26354,0 -0.44441,-0.1705317 -0.18087,-0.1705317 -0.1912,-0.4547511 0,-0.1446936 0.0413,-0.346231 0.0465,-0.2067051 0.13952,-0.3979073 0.093,-0.1912022 0.23771,-0.3307281 0.14987,-0.1446935 0.35657,-0.1705317 0.19637,-0.02067 0.32556,0.077514 0.12919,0.098185 0.20671,0.2480461 0.0723,0.1550288 0.10335,0.3307281 0.031,0.1705317 0.031,0.2945547 z m -6.09263,2.7801831 q 0.21188,-0.010335 0.44442,0.025838 0.23254,0.031006 0.66146,0.1136878 0.42891,0.077514 0.86299,0.093017 0.47025,0.015503 0.9095,0.00517 0.43925,-0.010335 0.9095,-0.051676 0.0207,-0.00517 0.031,0 0.0103,0.00517 0.005,0.031006 -0.0672,0.2015374 -0.14986,0.3979072 -0.0775,0.1963699 -0.1757,0.3824044 -0.23255,0.025838 -0.46509,0.062011 -0.23254,0.031006 -0.45992,0.077514 -0.0465,0.3772368 0.0827,0.5787742 0.13436,0.1963699 0.38241,0.2842195 0.24804,0.08785 0.57361,0.098185 0.33072,0.010335 0.68212,0.010335 0.0258,0 0.0465,0 0.0207,0 0.0465,0 0.15503,0 0.23254,0.1291906 0.0827,0.1240231 0.0827,0.2738843 0,0.1550288 -0.0827,0.2842194 -0.0775,0.1240231 -0.23254,0.1240231 -0.0258,0 -0.0465,0 -0.0207,0 -0.0465,0 -0.5736,0.010335 -1.02319,-0.056844 -0.44958,-0.072347 -0.7183,-0.3152252 -0.21187,-0.1912022 -0.29972,-0.5115951 -0.0827,-0.3255605 -0.0207,-0.8268203 -0.45475,0.1085202 -0.8785,0.2893871 -0.42374,0.1756993 -0.78031,0.4599188 -0.31006,0.2480461 -0.5581,0.5581037 -0.24288,0.3100576 -0.41341,0.6666238 -0.16537,0.3565663 -0.25322,0.7389707 -0.0879,0.387572 -0.0879,0.7854792 0,0.4340801 0.16537,0.8474901 0.17053,0.418578 0.44958,0.764809 0.27905,0.351399 0.63562,0.604613 0.36173,0.258381 0.74414,0.366901 0.50126,0.144694 1.02836,0.191202 0.53226,0.05168 0.98701,0.03617 0.50126,-0.0155 1.02836,-0.06201 0.5271,-0.04651 1.02836,-0.04651 0.062,0 0.0672,0.03101 0.005,0.03617 -0.062,0.113688 -0.0672,0.07751 -0.13952,0.08785 -0.31006,0.04651 -0.59945,0.139526 -0.28422,0.09818 -0.56327,0.196369 -0.27905,0.103353 -0.56844,0.186035 -0.28422,0.08785 -0.59427,0.10852 -0.75448,0.05168 -1.47794,-0.118855 -0.7183,-0.170532 -1.28158,-0.583942 -0.56327,-0.408243 -0.9095,-1.064531 -0.34623,-0.651121 -0.34623,-1.555456 0,-0.5942767 0.15503,-1.1937214 0.15503,-0.5942771 0.43925,-1.1265426 0.28939,-0.5374332 0.69246,-0.9715139 0.40824,-0.4392482 0.90433,-0.7131324 0.0207,-0.015503 -0.0103,-0.025838 -0.031,-0.010335 -0.0672,-0.015503 -0.23771,-0.025838 -0.51159,-0.046509 -0.26872,-0.025838 -0.53744,-0.00517 -0.26355,0.02067 -0.49609,0.1033525 -0.23254,0.077514 -0.38757,0.2583813 -0.031,0.036173 -0.0672,0.031006 -0.031,-0.00517 -0.0207,-0.072347 0.031,-0.2377108 0.10852,-0.4495835 0.0827,-0.2118727 0.21187,-0.3669015 0.12919,-0.1601964 0.31006,-0.2532137 0.18087,-0.098185 0.42374,-0.1033525 z m 1.08004,-2.1342299 0.63562,0.5270979 q 0.0413,0.036173 0.005,0.082682 l -0.42374,0.5322655 q -0.0362,0.051676 -0.0827,0.010335 l -0.64079,-0.527098 q -0.0413,-0.036173 0,-0.08785 l 0.42891,-0.527098 q 0.0362,-0.046509 0.0775,-0.010335 z m -1.13171,-0.6304504 q 0.17053,-0.098185 0.33589,-0.1963698 0.16537,-0.098185 0.3204,-0.2118727 0.16019,-0.1136878 0.31522,-0.2480461 0.15503,-0.1343582 0.29972,-0.3048899 -0.13952,-0.041341 -0.29455,-0.139526 -0.15503,-0.098185 -0.24805,-0.2118727 -0.0465,-0.056844 -0.0568,-0.1446935 -0.0103,-0.0930173 0.0155,-0.17053168 0.0413,-0.12402305 0.11369,-0.2687166 0.0775,-0.14469355 0.18087,-0.26354896 0.10335,-0.11885542 0.22737,-0.19120219 0.12919,-0.0775144 0.25838,-0.07234678 0.1602,0.01033526 0.23255,0.15502881 0.0723,0.13952592 0.0879,0.32556048 0.0207,0.18603457 0,0.3669015 -0.0155,0.18086692 -0.0258,0.26354892 0,0.025838 0.0155,0.041341 0.062,0.036173 0.0827,0.067179 0.0258,0.031006 0.0413,0.072347 0.031,0.077514 0.0103,0.1860345 -0.0155,0.1085202 -0.062,0.1653641 -0.0413,0.051676 -0.0723,0.051676 -0.031,-0.00517 -0.062,-0.051676 -0.0258,-0.031006 -0.0517,-0.056844 -0.0207,-0.031006 -0.0672,-0.051676 -0.14469,0.1756994 -0.31005,0.3358958 -0.1602,0.1601964 -0.34107,0.2945547 -0.18603,0.1291907 -0.38757,0.2325432 -0.20154,0.1033526 -0.42374,0.1705317 -0.0879,0.025838 -0.18087,0.036173 -0.093,0.00517 -0.10335,-0.020671 -0.0103,-0.031006 0.0362,-0.072347 0.0465,-0.046509 0.11369,-0.08785 z M 383.875,0.77652985 q 0.10852,0.14986118 0.25838,0.23771085 0.14986,0.082682 0.27389,0.1136878 h 0.0103 q 0,-0.041341 0.005,-0.1085202 0.005,-0.0723468 0,-0.14469354 0,-0.0723468 -0.0207,-0.13952592 -0.0155,-0.0671791 -0.062,-0.11368779 -0.0413,-0.0361734 -0.11886,-0.0310058 -0.0723,0 -0.14469,0.0258381 -0.0724,0.0258381 -0.13436,0.0723468 -0.0568,0.041341 -0.0672,0.0878497 z m -6.58872,5.56553395 q 0.0413,-0.1136878 0.12402,-0.1188554 0.0827,-0.010335 0.0517,0.1291906 -0.0362,0.1240231 -0.0775,0.2428785 -0.0362,0.1136878 -0.0827,0.2273756 0.0362,0.093017 0.1757,0.1860345 0.14469,0.093017 0.32556,0.1550288 0.18087,0.067179 0.36173,0.08785 0.18604,0.020671 0.30489,-0.025838 0,-0.1860345 -0.031,-0.3462309 -0.031,-0.1653641 -0.10852,-0.3669015 l 0.32039,-0.5529361 q 0.0103,-0.02067 0.031,-0.015503 0.0207,0 0.0258,0.02067 0.12403,0.3565663 0.12403,0.6614562 0.005,0.30489 -0.0827,0.6252829 -0.0258,0.098185 -0.0775,0.2273756 -0.0517,0.124023 -0.12402,0.2428784 -0.0724,0.1188554 -0.16537,0.2118727 -0.093,0.08785 -0.2067,0.098185 -0.11886,0.015503 -0.28422,-0.010335 -0.1602,-0.031006 -0.32556,-0.098185 -0.17053,-0.072347 -0.33073,-0.1756993 -0.1602,-0.1085202 -0.26872,-0.2480461 -0.14469,0.2273755 -0.3979,0.3720691 -0.24805,0.1446935 -0.54777,0.1963698 -0.29972,0.051676 -0.61495,0.015503 -0.31522,-0.041341 -0.58911,-0.1808669 -0.31006,0.1808669 -0.60978,0.2377108 -0.29455,0.056844 -0.55294,0.056844 h -0.093 q -0.1602,0 -0.23771,-0.1240231 -0.0775,-0.1291906 -0.0775,-0.2790518 0,-0.1498612 0.0775,-0.2790519 0.0775,-0.1291906 0.23771,-0.1291906 h 0.093 q 0.32557,0 0.59428,-0.020671 0.27389,-0.025838 0.52193,-0.1343583 0.23255,-0.093017 0.43408,-0.2893871 0.20154,-0.2015375 0.36174,-0.4702541 0.0517,-0.093017 0.11368,-0.098185 0.062,-0.010335 0.0413,0.1085202 -0.0155,0.093017 -0.0517,0.2067051 -0.0362,0.1136878 -0.0827,0.2325432 -0.0465,0.1188554 -0.10336,0.2273755 -0.0568,0.1033526 -0.11368,0.1756994 0.15503,0.041341 0.33073,0.051676 0.17569,0.010335 0.35139,-0.010335 0.26355,-0.025838 0.4961,-0.1291907 0.23771,-0.1033525 0.41341,-0.3100576 0.0982,-0.1136878 0.1757,-0.2583813 0.0775,-0.1446936 0.14986,-0.3255605 z m -0.1912,-3.6948532 q -0.25838,0.1188554 -0.5426,0.2480461 -0.27906,0.1291907 -0.5426,0.2480461 -0.26355,0.1188554 -0.49093,0.2222079 -0.22737,0.1033526 -0.38757,0.1705317 -0.0362,0.015503 -0.0517,0 -0.0155,-0.015503 0,-0.046509 l 0.25322,-0.5064275 q 0.0258,-0.041341 0.0517,-0.056844 0.031,-0.020671 0.0568,-0.036173 l 1.88618,-0.8371556 q 0.0827,-0.036173 0.0517,0.041341 l -0.21188,0.4805893 q -0.0155,0.046509 -0.0723,0.072347 z m -7.54474,5.5500312 q -0.16536,0 -0.24804,-0.1240231 -0.0827,-0.1291906 -0.0827,-0.2790518 0,-0.1498612 0.0827,-0.2790519 0.0827,-0.1291906 0.24804,-0.1291906 h 0.093 q 0.15503,0 0.34623,-0.025838 0.1912,-0.025838 0.40308,-0.082682 0.21187,-0.062012 0.42891,-0.1550288 0.21704,-0.093017 0.41858,-0.2325432 -0.11886,-0.1395259 -0.28422,-0.2480461 -0.16537,-0.1085201 -0.31006,-0.1291906 -0.10852,-0.015503 -0.21704,0.010335 -0.10852,0.020671 -0.20154,0.098185 -0.0465,0.046509 -0.0879,0.010335 -0.0413,-0.036173 -0.031,-0.098185 0.0155,-0.077514 0.0413,-0.1860346 0.031,-0.1085202 0.0827,-0.222208 0.0517,-0.1188554 0.12402,-0.2325432 0.0775,-0.1188554 0.18087,-0.2118727 0.46509,-0.3979072 1.09037,-0.3979072 0.18087,0 0.39274,0.031006 0.21704,0.031006 0.40824,0.1136878 0.1912,0.082682 0.32039,0.222208 0.13436,0.1395259 0.13953,0.3565662 0.0103,0.3100576 -0.13436,0.527098 -0.14469,0.2170403 -0.37724,0.4030748 0.0827,0.1343583 0.21705,0.222208 0.13435,0.08785 0.30489,0.1343583 0.16536,0.051676 0.35656,0.072347 0.19637,0.020671 0.40308,0.020671 h 0.093 q 0.1602,0 0.23771,0.1291906 0.0827,0.1291907 0.0827,0.2790519 0,0.1498612 -0.0827,0.2790518 -0.0775,0.1240231 -0.23771,0.1240231 h -0.093 q -0.30489,0 -0.56844,-0.046509 -0.26355,-0.046509 -0.49609,-0.1498611 -0.45476,-0.2067051 -0.83199,-0.651121 -0.53744,0.4547511 -1.0542,0.6562886 -0.25838,0.098185 -0.52193,0.1446935 -0.26355,0.046509 -0.5426,0.046509 z m 1.0697,-6.0822966 q 0,0.08785 0.0465,0.1395259 0.0517,0.046509 0.11886,0.072347 0.0672,0.025838 0.14469,0.031006 0.0827,0.00517 0.14469,0.00517 0.1447,0 0.26872,-0.062012 0.12919,-0.062012 0.23254,-0.1601965 0.0103,-0.093017 -0.0207,-0.1963698 -0.031,-0.1033525 -0.0982,-0.1860345 -0.0672,-0.082682 -0.16537,-0.1291907 -0.0982,-0.051676 -0.22737,-0.041341 -0.0775,0.020671 -0.15503,0.077514 -0.0775,0.051676 -0.1447,0.124023 -0.062,0.072347 -0.10335,0.1601965 -0.0413,0.082682 -0.0413,0.165364 z m 1.20923,-0.1343583 q 0,0.1756993 -0.0465,0.3410634 -0.0465,0.165364 -0.1447,0.2945547 -0.0982,0.1291907 -0.25321,0.2067051 -0.14986,0.077514 -0.36173,0.077514 -0.26355,0 -0.44442,-0.1705317 -0.18087,-0.1705317 -0.1912,-0.4547512 0,-0.1446935 0.0413,-0.346231 0.0465,-0.206705 0.13952,-0.3979072 0.093,-0.1912022 0.23772,-0.3307281 0.14986,-0.1446936 0.35656,-0.1705317 0.19637,-0.020671 0.32556,0.077514 0.12919,0.098185 0.20671,0.2480461 0.0723,0.1550288 0.10335,0.3307281 0.031,0.1705317 0.031,0.2945547 z m -4.50617,2.8473622 0.14986,-0.6046123 q 0.0155,-0.062012 0.062,-0.062012 0.0465,0 0.062,0.056844 l 0.5271,1.8655132 q 0.10335,0.3669015 0.25838,0.6407858 0.1602,0.2738842 0.43408,0.4599187 0.1602,0.1085202 0.3669,0.1550288 0.20671,0.046509 0.45992,0.046509 h 0.093 q 0.16536,0 0.24804,0.1291906 0.0827,0.1291907 0.0827,0.2790519 0,0.1498612 -0.0827,0.2790518 -0.0827,0.1240231 -0.24804,0.1240231 h -0.093 q -0.28422,0 -0.53227,-0.051676 -0.24287,-0.056844 -0.45475,-0.2015374 -0.2067,-0.139526 -0.38757,-0.387572 -0.1757,-0.2532137 -0.33073,-0.6459534 -0.13436,0.4030749 -0.43925,0.6666239 -0.24804,0.2118727 -0.58394,0.3203928 -0.33589,0.1033526 -0.65629,0.1446936 -0.31522,0.046509 -0.59944,0.02067 -0.27905,-0.031006 -0.42891,-0.1705317 -0.0775,-0.072347 -0.11369,-0.1963698 -0.031,-0.1240231 -0.031,-0.2583814 0,-0.1395259 0.0207,-0.2687165 0.0258,-0.1343583 0.0672,-0.2273756 0.0155,-0.031006 0.0413,-0.031006 0.031,0 0.0465,0.031006 0.093,0.1705317 0.21188,0.2325432 0.11885,0.056844 0.28421,0.072347 0.24288,0.025838 0.55811,-0.010335 0.31522,-0.036173 0.61495,-0.1291907 0.29972,-0.08785 0.53743,-0.2273755 0.24288,-0.1446936 0.33073,-0.3307282 z m -1.2454,-1.6691435 q 0.17053,-0.098185 0.33589,-0.1963698 0.16537,-0.098185 0.32039,-0.2118727 0.1602,-0.1136878 0.31523,-0.2480461 0.15503,-0.1343583 0.29972,-0.30489 -0.13952,-0.041341 -0.29455,-0.1395259 -0.15503,-0.098185 -0.24805,-0.2118727 -0.0465,-0.056844 -0.0568,-0.1446935 -0.0103,-0.093017 0.0155,-0.1705317 0.0413,-0.124023 0.11369,-0.2687166 0.0775,-0.1446935 0.18086,-0.26354896 0.10336,-0.11885542 0.22738,-0.19120219 0.12919,-0.0775144 0.25838,-0.0723468 0.1602,0.0103353 0.23254,0.1550288 0.0723,0.13952595 0.0878,0.32556055 0.0207,0.1860345 0,0.3669015 -0.0155,0.1808669 -0.0258,0.2635489 0,0.025838 0.0155,0.041341 0.062,0.036173 0.0827,0.067179 0.0258,0.031006 0.0413,0.072347 0.031,0.077514 0.0103,0.1860345 -0.0155,0.1085202 -0.062,0.1653641 -0.0413,0.051676 -0.0723,0.051676 -0.031,-0.00517 -0.062,-0.051676 -0.0258,-0.031006 -0.0517,-0.056844 -0.0207,-0.031006 -0.0672,-0.051676 -0.14469,0.1756993 -0.31006,0.3358958 -0.16019,0.1601964 -0.34106,0.2945547 -0.18603,0.1291907 -0.38757,0.2325432 -0.20154,0.1033525 -0.42375,0.1705317 -0.0879,0.025838 -0.18086,0.036173 -0.093,0.00517 -0.10336,-0.020671 -0.0103,-0.031006 0.0362,-0.072347 0.0465,-0.046509 0.11369,-0.08785 z m 0.97151,-1.7363226 q 0.10852,0.1498612 0.25838,0.2377109 0.14986,0.082682 0.27388,0.1136878 h 0.0103 q 0,-0.041341 0.005,-0.1085202 0.005,-0.072347 0,-0.1446936 0,-0.072347 -0.0207,-0.1395259 -0.0155,-0.067179 -0.062,-0.1136878 -0.0413,-0.036173 -0.11886,-0.031006 -0.0724,0 -0.14469,0.025838 -0.0723,0.025838 -0.13436,0.072347 -0.0568,0.041341 -0.0672,0.08785 z m -5.84975,0.077515 q 0.0827,0.00517 0.0775,0.1912022 -0.0103,0.1963698 0.005,0.387572 0.0155,0.1860345 0.0413,0.3772367 0.0517,0.4599188 0.12402,0.9508434 0.0724,0.4857569 0.1447,0.981849 0.0672,0.4909246 0.13435,0.9818491 0.0672,0.4909246 0.11369,0.956011 0.0207,0.1808669 0.0258,0.4237454 0.0103,0.2428784 -0.005,0.4960922 -0.0103,0.248046 -0.0568,0.4805892 -0.0413,0.2325433 -0.11886,0.3875721 -0.0413,0.08785 -0.0982,0.1136877 -0.0465,0.00517 -0.0413,-0.041341 -0.031,-0.4495835 -0.0775,-0.9043347 -0.0413,-0.4599187 -0.10852,-0.9353404 -0.0672,-0.4909245 -0.13436,-0.9715138 -0.0672,-0.4805893 -0.12919,-0.9611786 -0.0672,-0.4805893 -0.13435,-0.9611786 -0.062,-0.4805893 -0.12403,-0.9663462 0.0155,-0.1188554 0.0465,-0.2428785 0.031,-0.1291906 0.0879,-0.2635489 0.12402,-0.3358958 0.16536,-0.4082425 0.0465,-0.072347 0.062,-0.072347 z m -2.20141,-0.2893871 q 0.0258,-0.041341 0.0465,-0.041341 0.0207,-0.00517 0.0362,0.041341 0.0827,0.2480461 0.21704,0.511595 0.13436,0.2583814 0.37207,0.4030749 -0.13953,0.2480461 -0.21704,0.3824044 -0.0724,0.1343583 -0.0568,0.2893871 l 0.47026,3.9532345 q 0,0.1395259 -0.031,0.2997223 -0.0258,0.1550288 -0.0775,0.30489 -0.0465,0.1446936 -0.11369,0.2687166 -0.062,0.1188554 -0.12919,0.1860346 -0.14986,0.1395259 -0.37724,0.2222079 -0.22737,0.077514 -0.47542,0.1136878 -0.24804,0.036173 -0.49092,0.046509 -0.23771,0.00517 -0.42375,0.00517 h -0.093 q -0.16536,0 -0.24804,-0.1240231 -0.0827,-0.1291906 -0.0827,-0.2790518 0,-0.1498612 0.0827,-0.2790519 0.0827,-0.1291906 0.24804,-0.1291906 h 0.093 q 0.093,0 0.36174,-0.00517 0.26871,-0.00517 0.56327,-0.036173 0.29455,-0.031006 0.5426,-0.093017 0.24804,-0.062011 0.29972,-0.1705317 -0.14469,-1.0696987 -0.29455,-2.1393975 -0.1447,-1.0748664 -0.29456,-2.1497327 -0.031,-0.2170403 -0.0775,-0.4237454 -0.0465,-0.2118727 -0.17054,-0.4082425 -0.0362,-0.056844 -0.0465,-0.072347 -0.005,-0.02067 0.0258,-0.082682 0.0827,-0.1498612 0.17054,-0.2945548 0.0879,-0.1498611 0.17053,-0.2997223 z m -3.48298,1.7931665 0.63562,0.5270979 q 0.0413,0.036173 0.005,0.082682 l -0.42374,0.5322656 q -0.0362,0.051676 -0.0827,0.010335 L 355.00846,3.62906 q -0.0413,-0.036173 0,-0.08785 l 0.42891,-0.527098 q 0.0362,-0.046509 0.0775,-0.010335 z m -1.86552,5.1934649 q -0.16536,0 -0.24804,-0.1240231 -0.0827,-0.1291906 -0.0827,-0.2790518 0,-0.1498612 0.0827,-0.2790519 0.0827,-0.1291906 0.24804,-0.1291906 h 0.093 q 0.15503,0 0.34623,-0.025838 0.1912,-0.025838 0.40308,-0.082682 0.21187,-0.062012 0.42891,-0.1550288 0.21704,-0.093017 0.41858,-0.2325432 -0.11886,-0.1395259 -0.28422,-0.2480461 -0.16537,-0.1085201 -0.31006,-0.1291906 -0.10852,-0.015503 -0.21704,0.010335 -0.10852,0.020671 -0.20154,0.098185 -0.0465,0.046509 -0.0879,0.010335 -0.0413,-0.036173 -0.031,-0.098185 0.0155,-0.077514 0.0413,-0.1860346 0.031,-0.1085202 0.0827,-0.222208 0.0517,-0.1188554 0.12402,-0.2325432 0.0775,-0.1188554 0.18087,-0.2118727 0.46509,-0.3979072 1.09037,-0.3979072 0.18087,0 0.39274,0.031006 0.21704,0.031006 0.40824,0.1136878 0.1912,0.082682 0.32039,0.222208 0.13436,0.1395259 0.13953,0.3565662 0.0103,0.3100576 -0.13436,0.527098 -0.14469,0.2170403 -0.37723,0.4030748 0.0827,0.1343583 0.21704,0.222208 0.13435,0.08785 0.30489,0.1343583 0.16536,0.051676 0.35656,0.072347 0.19637,0.020671 0.40308,0.020671 h 0.093 q 0.1602,0 0.23772,0.1291906 0.0827,0.1291907 0.0827,0.2790519 0,0.1498612 -0.0827,0.2790518 -0.0775,0.1240231 -0.23772,0.1240231 h -0.093 q -0.30489,0 -0.56844,-0.046509 -0.26355,-0.046509 -0.49609,-0.1498611 -0.45476,-0.2067051 -0.83199,-0.651121 -0.53744,0.4547511 -1.0542,0.6562886 -0.25838,0.098185 -0.52193,0.1446935 -0.26355,0.046509 -0.5426,0.046509 z m 2.63032,-6.7127471 q -0.25838,0.1188554 -0.5426,0.2480461 -0.27905,0.1291906 -0.5426,0.2480461 -0.26355,0.1188554 -0.49092,0.2222079 -0.22738,0.1033525 -0.38757,0.1705317 -0.0362,0.015503 -0.0517,0 -0.0155,-0.015503 0,-0.046509 l 0.25321,-0.5064275 q 0.0258,-0.041341 0.0517,-0.056844 0.031,-0.02067 0.0568,-0.036173 l 1.88619,-0.83715549 q 0.0827,-0.0361734 0.0517,0.041341 l -0.21187,0.48058929 q -0.0155,0.046509 -0.0723,0.072347 z m -2.47012,5.8962621 q 0.15503,0 0.23254,0.1291906 0.0775,0.1291907 0.0775,0.2842195 0.005,0.1498612 -0.0723,0.2790518 -0.0775,0.1240231 -0.23771,0.1240231 -0.0155,0 -0.0362,0 -0.0155,0 -0.0362,0 -0.46508,0 -0.76481,-0.1705317 -0.29455,-0.1705317 -0.47025,-0.4547512 -0.2067,-0.3410633 -0.27388,-0.733803 -0.062,-0.3979072 -0.10336,-0.7906469 -0.0465,-0.4495835 -0.0982,-0.899167 -0.0517,-0.4495835 -0.10335,-0.8991671 -0.0517,-0.4650864 -0.12403,-0.9353404 -0.0672,-0.4754217 -0.2222,-1.0231901 -0.0103,-0.041341 -0.0155,-0.062012 -0.005,-0.020671 0.005,-0.051676 l 0.26872,-0.6769591 q 0.0155,-0.036173 0.0413,-0.036173 0.031,0 0.0413,0.036173 0.0672,0.2945547 0.12402,0.5942771 0.0568,0.2945547 0.10852,0.6407857 0.0517,0.3410633 0.0982,0.7544735 0.0517,0.4082425 0.10852,0.9301728 0.0413,0.3617339 0.0775,0.7131325 0.0362,0.3513986 0.0724,0.7027972 0.0362,0.2790519 0.0775,0.5736066 0.0413,0.2945547 0.1757,0.5426008 0.11886,0.2118727 0.34107,0.3203929 0.22737,0.1085202 0.63561,0.1085202 0.0207,0 0.0362,0 0.0207,0 0.0362,0 z m -3.70519,-1.1007046 q -0.0879,-0.1291906 -0.21704,-0.2428784 -0.12402,-0.1136878 -0.31006,-0.1033525 -0.16536,0.015503 -0.31005,0.1550288 -0.1447,0.1343583 -0.19637,0.2842194 0.12919,0.1136878 0.27905,0.1912022 0.14986,0.077514 0.31006,0.1240231 0.16019,0.046509 0.33072,0.067179 0.17054,0.02067 0.34107,0.02067 0.0103,-0.015503 -0.0207,-0.082682 -0.0258,-0.072347 -0.0672,-0.1550288 -0.0413,-0.082682 -0.0827,-0.1550288 -0.0413,-0.077514 -0.0568,-0.1033526 z m -3.01789,1.1058722 q 0.21704,0 0.42891,-0.010335 0.21704,-0.015503 0.40308,-0.062011 0.18603,-0.046509 0.33072,-0.1343583 0.14987,-0.093017 0.23255,-0.2480461 0.14986,-0.2790518 0.27905,-0.5581037 0.13436,-0.2842194 0.28422,-0.5477684 0.0568,-0.098185 0.14986,-0.2170403 0.093,-0.1188554 0.20154,-0.222208 0.11369,-0.1033525 0.23254,-0.1705317 0.12402,-0.072347 0.24288,-0.067179 0.1912,0.010335 0.37207,0.1963698 0.18086,0.1860346 0.31522,0.4392483 0.13953,0.2532137 0.21704,0.5219303 0.0827,0.2687166 0.0724,0.4444159 -0.0103,0.1085201 -0.031,0.2325432 -0.0207,0.1188554 -0.0672,0.2325432 -0.0414,0.1085202 -0.11369,0.2015374 -0.0672,0.08785 -0.17053,0.1343583 -0.20671,0.067179 -0.48059,0.015503 -0.27389,-0.056844 -0.48059,-0.124023 -0.20671,-0.067179 -0.40825,-0.1601965 -0.20153,-0.093017 -0.37723,-0.2170403 -0.20154,0.5891095 -0.60461,0.8629937 -0.39791,0.2738842 -1.02836,0.2687166 h -0.093 q -0.16536,0 -0.24288,-0.1240231 -0.0827,-0.1291906 -0.0827,-0.2790518 0,-0.1498612 0.0827,-0.2790519 0.0775,-0.1291906 0.24288,-0.1291906 z m 2.75434,2.0463802 q -0.50642,0.1601964 -0.99735,0.3255605 -0.49092,0.165364 -0.94051,0.3100584 -0.0827,0.02584 -0.0413,-0.05168 l 0.21187,-0.3927397 q 0.0155,-0.031006 0.0258,-0.046509 0.0155,-0.015503 0.0465,-0.025838 0.13953,-0.051676 0.3669,-0.1291907 0.22738,-0.072347 0.49093,-0.1601964 0.26871,-0.082682 0.54777,-0.1705317 0.27905,-0.08785 0.53226,-0.165364 0.0413,-0.015503 0.0517,-0.010335 0.0103,0.010335 -0.0103,0.051676 l -0.22221,0.4030749 q -0.0155,0.02067 -0.031,0.036173 -0.0103,0.020671 -0.031,0.025838 z m -5.07461,-4.6043555 0.14986,-0.6046123 q 0.0155,-0.062012 0.062,-0.062012 0.0465,0 0.062,0.056844 l 0.5271,1.8655132 q 0.10335,0.3669015 0.25838,0.6407858 0.16019,0.2738842 0.43408,0.4599187 0.16019,0.1085202 0.3669,0.1550288 0.2067,0.046509 0.45992,0.046509 h 0.093 q 0.16536,0 0.24804,0.1291906 0.0827,0.1291907 0.0827,0.2790519 0,0.1498612 -0.0827,0.2790518 -0.0827,0.1240231 -0.24804,0.1240231 h -0.093 q -0.28422,0 -0.53227,-0.051676 -0.24288,-0.056844 -0.45475,-0.2015374 -0.2067,-0.139526 -0.38757,-0.387572 -0.1757,-0.2532137 -0.33073,-0.6459534 -0.13436,0.4030749 -0.43925,0.6666239 -0.24804,0.2118727 -0.58394,0.3203928 -0.33589,0.1033526 -0.65629,0.1446936 -0.31522,0.046509 -0.59944,0.02067 -0.27905,-0.031006 -0.42892,-0.1705317 -0.0775,-0.072347 -0.11368,-0.1963698 -0.031,-0.1240231 -0.031,-0.2583814 0,-0.1395259 0.0207,-0.2687165 0.0258,-0.1343583 0.0672,-0.2273756 0.0155,-0.031006 0.0413,-0.031006 0.031,0 0.0465,0.031006 0.093,0.1705317 0.21187,0.2325432 0.11886,0.056844 0.28422,0.072347 0.24288,0.025838 0.55811,-0.010335 0.31522,-0.036173 0.61494,-0.1291907 0.29973,-0.08785 0.53744,-0.2273755 0.24288,-0.1446936 0.33073,-0.3307282 z m 0.56327,4.9919275 q -0.50642,0.1601964 -0.99735,0.3255609 -0.49092,0.165364 -0.94051,0.310058 -0.0827,0.02584 -0.0413,-0.05168 l 0.21188,-0.392739 q 0.0155,-0.031007 0.0258,-0.04651 0.0155,-0.015503 0.0465,-0.025838 0.13953,-0.051676 0.3669,-0.1291907 0.22738,-0.072347 0.49093,-0.1601964 0.26872,-0.082682 0.54777,-0.1705317 0.27905,-0.08785 0.53226,-0.165364 0.0413,-0.015503 0.0517,-0.010335 0.0103,0.010335 -0.0103,0.051676 l -0.2222,0.4030749 q -0.0155,0.02067 -0.031,0.036173 -0.0103,0.020671 -0.031,0.025838 z m -4.26329,-1.4779413 q -0.3514,0.2945548 -0.74414,0.5426008 -0.39274,0.2480461 -0.81648,0.4289131 -0.42375,0.1808669 -0.8785,0.2790518 -0.45475,0.1033525 -0.925,0.1033525 -0.47542,0 -0.89917,-0.1343582 -0.41858,-0.1291907 -0.7338,-0.3875721 -0.31006,-0.2532137 -0.50126,-0.635618 -0.18604,-0.3772368 -0.1912,-0.873329 -0.0155,-0.5477684 0.15502,-1.0645311 0.1757,-0.5167627 0.50126,-0.9663462 0.031,-0.041341 0.0517,-0.036173 0.0207,0 0.0362,0.025838 0.0155,0.020671 0.0207,0.051676 0.005,0.025838 0.005,0.041341 -0.10335,0.2118727 -0.20154,0.4444159 -0.093,0.2325432 -0.15502,0.4754217 -0.062,0.2428785 -0.0723,0.4960922 -0.005,0.2532137 0.0827,0.5064274 0.093,0.2997223 0.25838,0.5219303 0.17053,0.2222079 0.39274,0.3720691 0.22221,0.1550288 0.48576,0.2377109 0.26872,0.082682 0.56327,0.1085201 0.42375,0.036173 0.8785,-0.025838 0.45475,-0.056844 0.90433,-0.1912022 0.44958,-0.1395259 0.86299,-0.3410634 0.41858,-0.2015374 0.76481,-0.4495835 0.0878,-0.062011 0.093,-0.1033525 0.005,-0.046509 -0.0362,-0.077514 -0.0362,-0.036173 -0.10336,-0.056844 -0.062,-0.020671 -0.10852,-0.036173 -0.14986,-0.041341 -0.32556,-0.067179 -0.1757,-0.031006 -0.36173,-0.056844 -0.18087,-0.025838 -0.36173,-0.051676 -0.1757,-0.031006 -0.32556,-0.067179 -0.17054,-0.041341 -0.32556,-0.124023 -0.14987,-0.082682 -0.26355,-0.1963698 -0.11369,-0.1188555 -0.18604,-0.2687166 -0.0672,-0.1498612 -0.0723,-0.3203929 -0.0103,-0.2428785 0.0465,-0.4857569 0.062,-0.2428785 0.1757,-0.470254 0.11369,-0.2325433 0.26355,-0.444416 0.15503,-0.2170403 0.33073,-0.4082425 0.18087,-0.2015374 0.38757,-0.3772367 0.20671,-0.1756993 0.41858,-0.2945547 0.21704,-0.1188555 0.43408,-0.1653641 0.21704,-0.051676 0.41858,-0.00517 0.21704,0.056844 0.34623,0.206705 0.12919,0.1498612 0.1757,0.3410634 0.0517,0.1912022 0.0258,0.3979073 -0.0258,0.206705 -0.11369,0.3720691 -0.0155,0.02067 -0.0465,0.015503 -0.0258,-0.00517 -0.0362,-0.036173 -0.031,-0.077514 -0.0982,-0.1756993 -0.0672,-0.098185 -0.16019,-0.1860346 -0.093,-0.08785 -0.20671,-0.1446935 -0.10852,-0.062012 -0.23254,-0.062012 -0.24805,0 -0.51677,0.1291907 -0.26354,0.1291907 -0.50642,0.3307281 -0.24288,0.2015375 -0.43408,0.4444159 -0.18604,0.2428785 -0.27906,0.4702541 -0.093,0.1808669 -0.0465,0.3048899 0.0517,0.1188555 0.1912,0.2170404 0.13952,0.1033525 0.32556,0.1705317 0.1912,0.067179 0.39274,0.1136877 0.20154,0.046509 0.40307,0.077514 0.20154,0.025838 0.37207,0.051676 0.12403,0.02067 0.26355,0.051676 0.1447,0.031006 0.26872,0.08785 0.12402,0.051676 0.21187,0.139526 0.0879,0.082682 0.10335,0.2118727 0.0155,0.1136877 -0.005,0.2635489 -0.0207,0.1446936 -0.0723,0.2893871 -0.0465,0.1446936 -0.11886,0.2738842 -0.0672,0.1240231 -0.14986,0.1912022 z"
         id="text35"
         style="font-size:10.5833px;line-height:1.25;font-family:'KFGQPC Uthmanic Script HAFS';-inkscape-font-specification:'KFGQPC Uthmanic Script HAFS';direction:rtl;stroke-width:0.264583"
         aria-label="الشَّيْخُ سَعْدُ الغَامِدِي" />
    </g>
  </g>
</svg>
