<?xml version="1.0" encoding="UTF-8" standalone="no"?>
<!-- Created with Inkscape (http://www.inkscape.org/) -->

<svg
   width="104.51323mm"
   height="15.48649mm"
   viewBox="0 0 104.51323 15.48649"
   version="1.1"
   id="svg1"
   xmlns="http://www.w3.org/2000/svg"
   xmlns:svg="http://www.w3.org/2000/svg">
  <defs
     id="defs1" />
  <g
     id="layer1"
     transform="translate(-1375.4124)">
    <g
       id="g22"
       transform="translate(1225.3851,0.10854149)">
      <path
         d="m 253.10269,2.8518083 q 0.0827,0.00517 0.0775,0.1912022 -0.0103,0.1963698 0.005,0.387572 0.0155,0.1860346 0.0413,0.3772368 0.0517,0.4599187 0.12402,0.9508433 0.0724,0.4857569 0.1447,0.9818491 0.0672,0.4909245 0.13436,0.9818491 0.0672,0.4909245 0.11368,0.9560109 0.0207,0.1808669 0.0258,0.4237454 0.0103,0.2428785 -0.005,0.4960922 -0.0103,0.2480461 -0.0568,0.4805893 -0.0413,0.2325432 -0.11886,0.387572 -0.0413,0.08785 -0.0982,0.1136878 -0.0465,0.00517 -0.0413,-0.041341 -0.031,-0.4495835 -0.0775,-0.9043346 -0.0413,-0.4599188 -0.10852,-0.9353405 -0.0672,-0.4909245 -0.13435,-0.9715138 -0.0672,-0.4805893 -0.1292,-0.9611786 -0.0672,-0.4805893 -0.13435,-0.9611786 -0.062,-0.4805893 -0.12403,-0.9663462 0.0155,-0.1188554 0.0465,-0.2428784 0.031,-0.1291907 0.0879,-0.263549 0.12402,-0.3358958 0.16537,-0.4082425 0.0465,-0.072347 0.062,-0.072347 z m -2.21692,-0.2893871 q 0.0155,-0.046509 0.0413,-0.056844 0.0258,-0.010335 0.0413,0.056844 0.0413,0.124023 0.093,0.2532137 0.0517,0.1291907 0.11885,0.2532137 0.0724,0.1240231 0.16537,0.2325432 0.093,0.1033526 0.21187,0.1756993 -0.0724,0.1240231 -0.12919,0.2170404 -0.0517,0.08785 -0.0879,0.165364 -0.0362,0.072347 -0.0517,0.1446936 -0.0155,0.067179 -0.005,0.1446935 0.0568,0.4960922 0.12919,0.997352 0.0775,0.4960922 0.14469,0.9921843 0.0724,0.4960922 0.12402,0.9921844 0.0568,0.4960921 0.0724,0.9973519 0.005,0.1653641 -0.0207,0.3358958 -0.0258,0.1705317 -0.0827,0.3255605 -0.0568,0.1550288 -0.1447,0.2945547 -0.0827,0.1343583 -0.1912,0.2273756 -0.14986,0.1291906 -0.37207,0.1860345 -0.21704,0.051676 -0.53226,0.051676 h -0.093 q -0.16536,0 -0.24805,-0.124023 -0.0879,-0.1291907 -0.0879,-0.2790519 0,-0.1550288 0.0879,-0.2790518 0.0827,-0.1291907 0.24805,-0.1291907 h 0.093 q 0.17053,0 0.33073,-0.010335 0.16019,-0.015503 0.29455,-0.046509 0.13436,-0.036173 0.22738,-0.093017 0.0982,-0.062011 0.13952,-0.1550288 -0.10335,-1.0903692 -0.26871,-2.1497327 -0.16537,-1.0645311 -0.3204,-2.1393975 -0.031,-0.2170403 -0.0672,-0.4237454 -0.031,-0.2118727 -0.14986,-0.4082425 -0.0413,-0.056844 -0.0465,-0.072347 -0.005,-0.020671 0.0258,-0.082682 0.0879,-0.1498612 0.1602,-0.30489 0.0775,-0.1601964 0.14986,-0.2893871 z M 247.50614,7.81273 q 0.062,-0.1033525 0.12402,-0.098185 0.0672,0.00517 0.0362,0.124023 -0.0258,0.1085202 -0.0724,0.2273756 -0.0465,0.1136878 -0.10335,0.2480461 0.0362,0.08785 0.16019,0.1756993 0.1292,0.082682 0.28939,0.1446936 0.15503,0.056844 0.31523,0.082682 0.16536,0.025838 0.27388,-0.015503 0.1757,-0.056844 0.28939,-0.3152252 0.11369,-0.263549 0.19637,-0.5529361 0.0413,-0.1550288 0.10852,-0.1808669 0.0672,-0.025838 0.0775,0.1136878 0.0207,0.2583813 0.093,0.4444159 0.0724,0.1860345 0.21704,0.2997223 0.27388,0.2273756 0.89917,0.2273756 h 0.093 q 0.16537,0 0.24805,0.1291907 0.0827,0.1291906 0.0827,0.2790518 0,0.1498612 -0.0827,0.2790519 -0.0827,0.124023 -0.24805,0.124023 h -0.093 q -0.27389,0 -0.47026,-0.031006 -0.19637,-0.036173 -0.3824,-0.1136877 -0.43408,-0.1860346 -0.65629,-0.6149476 -0.0362,0.082682 -0.093,0.1963698 -0.0568,0.1136878 -0.13436,0.2222079 -0.0723,0.1033526 -0.16019,0.1756993 -0.0879,0.072347 -0.18604,0.072347 -0.12919,0 -0.29972,-0.031006 -0.17053,-0.031006 -0.34106,-0.098185 -0.1757,-0.062011 -0.3359,-0.1601964 -0.15503,-0.1033525 -0.26355,-0.2428784 -0.18086,0.206705 -0.40824,0.346231 -0.22221,0.1343583 -0.47542,0.1756993 -0.25838,0.046509 -0.5426,0 -0.27905,-0.051676 -0.57361,-0.2067051 -0.13436,0.098185 -0.29455,0.1601964 -0.1602,0.062012 -0.31523,0.093017 -0.16019,0.036173 -0.30489,0.046509 -0.14469,0.010335 -0.25321,0.010335 h -0.093 q -0.15503,0 -0.23254,-0.124023 -0.0775,-0.1291907 -0.0775,-0.2790519 0,-0.1498612 0.0775,-0.2790518 0.0775,-0.1291907 0.23254,-0.1291907 h 0.093 q 0.31006,0 0.5736,-0.02067 0.26355,-0.025838 0.4961,-0.1136878 0.22737,-0.082682 0.42891,-0.2532137 0.2067,-0.1705317 0.39274,-0.4650864 0.0672,-0.1085202 0.11369,-0.093017 0.0517,0.010335 0.031,0.1188554 -0.0362,0.1860346 -0.11885,0.3979073 -0.0827,0.2118727 -0.20154,0.3617338 0.10335,0.031006 0.25321,0.046509 0.15503,0.015503 0.32556,0 0.25322,-0.02067 0.47543,-0.1033525 0.22737,-0.08785 0.40824,-0.263549 0.11369,-0.1033525 0.21187,-0.2377108 0.10335,-0.139526 0.19637,-0.2997224 z m 0.45475,-1.162716 q -0.031,0.036173 -0.0465,0.036173 -0.0155,0 -0.0517,-0.025838 L 247.25291,6.1797597 246.855,6.7326958 q -0.0362,0.046509 -0.0775,0.010335 l -0.65113,-0.4960922 q -0.0362,-0.031006 -0.0103,-0.067179 l 0.41341,-0.5891094 q 0.0258,-0.031006 0.0362,-0.025838 0.0155,0 0.0362,0.015503 l 0.61494,0.4702541 0.41858,-0.5374332 q 0.031,-0.041341 0.062,-0.02067 l 0.65112,0.5426008 q 0.031,0.031006 0,0.072347 z m -0.97668,-2.1807385 0.63562,0.5219303 q 0.0413,0.031006 0.005,0.072347 l -0.42375,0.5270979 q -0.0362,0.046509 -0.0827,0.010335 l -0.64079,-0.5167626 q -0.0413,-0.036173 0,-0.08785 l 0.42892,-0.5167627 q 0.0362,-0.046509 0.0775,-0.010335 z m 0.0413,-1.4314326 q -0.11369,0.2273756 -0.25838,0.3410634 -0.15503,0.1188554 -0.3669,0.124023 -0.17053,0.00517 -0.29972,-0.08785 -0.12403,-0.093017 -0.1447,-0.3255605 -0.0103,-0.1033525 0.0103,-0.2118727 0.0207,-0.1136878 0.062,-0.2118727 0.0413,-0.093017 0.093,-0.1601964 0.0568,-0.072347 0.11885,-0.093017 0.062,-0.00517 0.0103,0.093017 -0.031,0.056844 -0.0517,0.1343583 -0.0155,0.077514 -0.0207,0.1550288 0,0.072347 0.0155,0.124023 0.0155,0.051676 0.0672,0.098185 0.0775,0.056844 0.16537,0.056844 0.0879,-0.00517 0.17053,-0.041341 0.0879,-0.036173 0.15503,-0.082682 0.0723,-0.051676 0.14469,-0.1343583 0.0672,-0.077514 0.0982,-0.1963698 0.031,-0.1188555 0.0413,-0.1963699 0.005,-0.067179 0.0362,-0.1343583 0.031,-0.067179 0.10335,-0.067179 0.0155,0 0.0207,0.031006 0.0103,0.025838 0.0155,0.062011 0.005,0.036173 0.005,0.072347 0,0.031006 0,0.046509 0,0.1498612 0.0465,0.2377108 0.0465,0.082682 0.18604,0.1136878 0.0723,0.015503 0.18603,-0.015503 0.11886,-0.031006 0.20671,-0.1033525 0.0103,-0.010335 0.005,-0.056844 -0.005,-0.046509 -0.0207,-0.098185 -0.0103,-0.051676 -0.0362,-0.1085202 -0.0207,-0.062012 -0.0258,-0.072347 l 0.1912,-0.3617339 q 0.0517,0.025838 0.0775,0.1136878 0.031,0.08785 0.0362,0.2015374 0.0103,0.1085202 0,0.222208 -0.0103,0.1136878 -0.0258,0.1912022 -0.062,0.1912021 -0.17053,0.3462309 -0.10335,0.1550289 -0.32039,0.1963699 -0.1912,0.036173 -0.32039,-0.025838 -0.1292,-0.062012 -0.20671,-0.1756993 z m 0.93017,-2.07738591 q -0.25838,0.11885541 -0.5426,0.24804601 -0.27905,0.1291907 -0.5426,0.2480461 -0.26355,0.1188554 -0.49092,0.222208 -0.22738,0.1033525 -0.38757,0.1705317 -0.0362,0.015503 -0.0517,0 -0.0155,-0.015503 0,-0.046509 l 0.25321,-0.5064274 q 0.0258,-0.041341 0.0517,-0.056844 0.031,-0.020671 0.0568,-0.036173 l 1.88619,-0.83715553 q 0.0827,-0.0361734 0.0517,0.041341 l -0.21187,0.48058929 q -0.0155,0.0465086 -0.0724,0.0723468 z M 243.06715,11.610935 q -0.0258,0.03101 -0.0413,0.03101 -0.0155,0.0052 -0.0568,-0.02584 l -0.61495,-0.480589 -0.40308,0.552936 q -0.0362,0.04651 -0.0775,0.0155 l -0.65629,-0.506428 q -0.0362,-0.02584 -0.0103,-0.06201 l 0.41858,-0.594277 q 0.0207,-0.03101 0.0362,-0.03101 0.0155,0 0.0362,0.02067 l 0.62011,0.470255 0.42375,-0.542601 q 0.031,-0.04134 0.062,-0.0155 l 0.65629,0.547768 q 0.0362,0.02584 0,0.07235 z m -2.16007,-2.0618824 h -0.093 q -0.15502,0 -0.23254,-0.124023 -0.0775,-0.1291907 -0.0775,-0.2842195 0,-0.077514 0.0207,-0.1498612 0.0155,-0.072347 0.0568,-0.1291907 0.0362,-0.056844 0.0982,-0.093017 0.0568,-0.036173 0.13435,-0.036173 h 0.093 q 0.1602,0 0.35657,-0.010335 0.20154,-0.010335 0.37724,-0.056844 0.17053,-0.046509 0.33589,-0.1395259 0.16536,-0.098185 0.30489,-0.2687166 0.10335,-0.124023 0.16536,-0.2532137 0.0672,-0.1291907 0.1292,-0.2945547 0.0258,-0.067179 0.0827,-0.072347 0.062,-0.00517 0.0672,0.025838 0.005,0.062011 -0.0103,0.1498612 -0.0103,0.08785 -0.0103,0.1601964 0,0.1343583 0.0672,0.2687166 0.0672,0.1343583 0.2067,0.2428785 0.13953,0.1085201 0.3824,0.1808669 0.24805,0.067179 0.55811,0.067179 h 0.0982 q 0.0775,0 0.13436,0.036173 0.0568,0.036173 0.093,0.093017 0.0413,0.056844 0.0568,0.1291907 0.0207,0.072347 0.0207,0.1498612 0,0.1550288 -0.0775,0.2842195 -0.0724,0.124023 -0.22738,0.124023 h -0.0982 q -0.27905,0 -0.53227,-0.051676 -0.24804,-0.056844 -0.42374,-0.165364 -0.34107,-0.2067051 -0.53227,-0.60978 -0.11369,0.2325432 -0.26871,0.387572 -0.15503,0.1550288 -0.34107,0.2532137 -0.1912,0.098185 -0.43408,0.1446936 -0.24288,0.041341 -0.48059,0.041341 z m 0.58911,-5.5655338 q 0,0.08785 0.0465,0.1395259 0.0517,0.046509 0.11886,0.072347 0.0672,0.025838 0.14469,0.031006 0.0827,0.00517 0.14469,0.00517 0.1447,0 0.26872,-0.062012 0.12919,-0.062011 0.23254,-0.1601964 0.0103,-0.093017 -0.0207,-0.1963698 -0.031,-0.1033526 -0.0982,-0.1860346 -0.0672,-0.082682 -0.16536,-0.1291907 -0.0982,-0.051676 -0.22738,-0.041341 -0.0775,0.020671 -0.15503,0.077514 -0.0775,0.051676 -0.14469,0.1240231 -0.062,0.072347 -0.10336,0.1601964 -0.0413,0.082682 -0.0413,0.1653641 z m 1.20923,-0.1343583 q 0,0.1756993 -0.0465,0.3410633 -0.0465,0.1653641 -0.14469,0.2945548 -0.0982,0.1291906 -0.25322,0.206705 -0.14986,0.077514 -0.36173,0.077514 -0.26355,0 -0.44442,-0.1705317 -0.18086,-0.1705316 -0.1912,-0.4547511 0,-0.1446936 0.0413,-0.346231 0.0465,-0.2067051 0.13953,-0.3979073 0.093,-0.1912022 0.23771,-0.3307281 0.14986,-0.1446935 0.35656,-0.1705317 0.19637,-0.020671 0.32557,0.077514 0.12919,0.098185 0.2067,0.2480461 0.0724,0.1550288 0.10335,0.3307281 0.031,0.1705317 0.031,0.2945548 z m -6.09264,2.780183 q 0.21188,-0.010335 0.44442,0.025838 0.23254,0.031006 0.66146,0.1136878 0.42891,0.077514 0.86299,0.093017 0.47025,0.015503 0.9095,0.00517 0.43925,-0.010335 0.9095,-0.051676 0.0207,-0.00517 0.031,0 0.0103,0.00517 0.005,0.031006 -0.0672,0.2015374 -0.14986,0.3979073 -0.0775,0.1963698 -0.1757,0.3824043 -0.23255,0.025838 -0.46509,0.062012 -0.23254,0.031006 -0.45992,0.077514 -0.0465,0.3772367 0.0827,0.5787742 0.13436,0.1963698 0.38241,0.2842194 0.24804,0.08785 0.57361,0.098185 0.33072,0.010335 0.68212,0.010335 0.0258,0 0.0465,0 0.0207,0 0.0465,0 0.15503,0 0.23254,0.1291907 0.0827,0.124023 0.0827,0.2738842 0,0.1550288 -0.0827,0.2842195 -0.0775,0.124023 -0.23254,0.124023 -0.0258,0 -0.0465,0 -0.0207,0 -0.0465,0 -0.5736,0.010335 -1.02319,-0.056844 -0.44958,-0.072347 -0.7183,-0.3152252 -0.21187,-0.1912022 -0.29972,-0.5115951 -0.0827,-0.3255605 -0.0207,-0.8268203 -0.45475,0.1085202 -0.8785,0.2893871 -0.42374,0.1756993 -0.78031,0.4599188 -0.31006,0.2480461 -0.5581,0.5581037 -0.24288,0.3100576 -0.41341,0.6666239 -0.16537,0.3565662 -0.25322,0.7389702 -0.0879,0.387572 -0.0879,0.785479 0,0.434081 0.16537,0.847491 0.17053,0.418578 0.44958,0.764809 0.27905,0.351398 0.63562,0.604612 0.36173,0.258381 0.74414,0.366902 0.50126,0.144693 1.02836,0.191202 0.53226,0.05168 0.98701,0.03617 0.50126,-0.0155 1.02836,-0.06201 0.5271,-0.04651 1.02836,-0.04651 0.062,0 0.0672,0.03101 0.005,0.03617 -0.062,0.113688 -0.0672,0.07751 -0.13952,0.08785 -0.31006,0.04651 -0.59945,0.139526 -0.28422,0.09819 -0.56327,0.19637 -0.27905,0.103353 -0.56844,0.186035 -0.28422,0.08785 -0.59427,0.10852 -0.75448,0.05168 -1.47794,-0.118856 -0.7183,-0.170531 -1.28158,-0.583942 -0.56327,-0.408242 -0.9095,-1.064531 -0.34623,-0.651121 -0.34623,-1.555455 0,-0.594277 0.15503,-1.193722 0.15503,-0.5942767 0.43925,-1.1265423 0.28939,-0.5374332 0.69246,-0.9715138 0.40824,-0.4392483 0.90433,-0.7131325 0.0207,-0.015503 -0.0103,-0.025838 -0.031,-0.010335 -0.0672,-0.015503 -0.23771,-0.025838 -0.51159,-0.046509 -0.26872,-0.025838 -0.53744,-0.00517 -0.26355,0.02067 -0.49609,0.1033525 -0.23254,0.077514 -0.38757,0.2583814 -0.031,0.036173 -0.0672,0.031006 -0.031,-0.00517 -0.0207,-0.072347 0.031,-0.2377109 0.10852,-0.4495836 0.0827,-0.2118727 0.21187,-0.3669015 0.12919,-0.1601964 0.31006,-0.2532137 0.18087,-0.098185 0.42374,-0.1033525 z m 1.08004,-2.1342299 0.63562,0.5270979 q 0.0413,0.036173 0.005,0.082682 L 237.9097,5.637159 q -0.0362,0.051676 -0.0827,0.010335 l -0.64079,-0.5270979 q -0.0413,-0.036173 0,-0.08785 l 0.42891,-0.5270979 q 0.0362,-0.046509 0.0775,-0.010335 z m -1.13171,-0.6304503 q 0.17053,-0.098185 0.3359,-0.1963699 0.16536,-0.098185 0.32039,-0.2118726 0.1602,-0.1136878 0.31523,-0.2480461 0.15502,-0.1343583 0.29972,-0.30489 -0.13953,-0.041341 -0.29456,-0.1395259 -0.15503,-0.098185 -0.24804,-0.2118727 -0.0465,-0.056844 -0.0568,-0.1446936 -0.0103,-0.093017 0.0155,-0.1705317 0.0413,-0.124023 0.11368,-0.2687166 0.0775,-0.1446935 0.18087,-0.2635489 0.10335,-0.1188554 0.22738,-0.1912022 0.12919,-0.077514 0.25838,-0.072347 0.16019,0.010335 0.23254,0.1550288 0.0724,0.1395259 0.0879,0.3255605 0.0207,0.1860346 0,0.3669015 -0.0155,0.1808669 -0.0258,0.263549 0,0.025838 0.0155,0.041341 0.062,0.036173 0.0827,0.067179 0.0258,0.031006 0.0413,0.072347 0.031,0.077514 0.0103,0.1860346 -0.0155,0.1085201 -0.062,0.165364 -0.0413,0.051676 -0.0723,0.051676 -0.031,-0.00517 -0.062,-0.051676 -0.0258,-0.031006 -0.0517,-0.056844 -0.0207,-0.031006 -0.0672,-0.051676 -0.1447,0.1756993 -0.31006,0.3358957 -0.1602,0.1601964 -0.34106,0.2945547 -0.18604,0.1291907 -0.38757,0.2325432 -0.20154,0.1033526 -0.42375,0.1705317 -0.0879,0.025838 -0.18087,0.036173 -0.093,0.00517 -0.10335,-0.020671 -0.0103,-0.031006 0.0362,-0.072347 0.0465,-0.046509 0.11369,-0.08785 z m 0.97152,-1.7363226 q 0.10852,0.1498611 0.25838,0.2377108 0.14986,0.082682 0.27388,0.1136878 h 0.0103 q 0,-0.041341 0.005,-0.1085202 0.005,-0.072347 0,-0.1446935 0,-0.072347 -0.0207,-0.1395259 -0.0155,-0.067179 -0.062,-0.1136878 -0.0413,-0.036173 -0.11885,-0.031006 -0.0724,0 -0.1447,0.025838 -0.0723,0.025838 -0.13436,0.072347 -0.0568,0.041341 -0.0672,0.08785 z m -6.58873,5.5655339 q 0.0413,-0.1136878 0.12402,-0.1188554 0.0827,-0.010335 0.0517,0.1291906 -0.0362,0.1240231 -0.0775,0.2428785 -0.0362,0.1136878 -0.0827,0.2273756 0.0362,0.093017 0.1757,0.1860345 0.1447,0.093017 0.32556,0.1550288 0.18087,0.067179 0.36174,0.08785 0.18603,0.02067 0.30489,-0.025838 0,-0.1860346 -0.031,-0.346231 -0.031,-0.1653641 -0.10852,-0.3669015 l 0.32036,-0.5529365 q 0.0103,-0.02067 0.031,-0.015503 0.0207,0 0.0258,0.02067 0.12402,0.3565663 0.12402,0.6614563 0.005,0.3048899 -0.0827,0.6252828 -0.0258,0.098185 -0.0775,0.2273756 -0.0517,0.124023 -0.12402,0.2428784 -0.0724,0.1188555 -0.16536,0.2118727 -0.093,0.08785 -0.20671,0.098185 -0.11885,0.015503 -0.28422,-0.010335 -0.16019,-0.031006 -0.32556,-0.098185 -0.17053,-0.072347 -0.33073,-0.1756993 -0.16019,-0.1085202 -0.26871,-0.2480461 -0.1447,0.2273756 -0.39791,0.3720691 -0.24805,0.1446936 -0.54777,0.1963698 -0.29972,0.051676 -0.61495,0.015503 -0.31522,-0.041341 -0.58911,-0.1808669 -0.31005,0.1808669 -0.60978,0.2377108 -0.29455,0.056844 -0.55293,0.056844 h -0.093 q -0.1602,0 -0.23771,-0.124023 -0.0775,-0.1291907 -0.0775,-0.2790519 0,-0.1498612 0.0775,-0.2790518 0.0775,-0.1291907 0.23771,-0.1291907 h 0.093 q 0.32556,0 0.59428,-0.02067 0.27388,-0.025838 0.52193,-0.1343583 0.23254,-0.093017 0.43408,-0.2893871 0.20153,-0.2015375 0.36173,-0.470254 0.0517,-0.093017 0.11369,-0.098185 0.062,-0.010335 0.0413,0.1085202 -0.0155,0.093017 -0.0517,0.2067051 -0.0362,0.1136878 -0.0827,0.2325432 -0.0465,0.1188554 -0.10335,0.2273756 -0.0568,0.1033525 -0.11369,0.1756993 0.15503,0.041341 0.33073,0.051676 0.1757,0.010335 0.3514,-0.010335 0.26355,-0.025838 0.49609,-0.1291907 0.23771,-0.1033525 0.41341,-0.3100576 0.0982,-0.1136878 0.1757,-0.2583813 0.0775,-0.1446936 0.14986,-0.3255605 z m -2.04121,-2.9248768 q 0.17053,-0.098185 0.33589,-0.1963698 0.16537,-0.098185 0.3204,-0.2118727 0.16019,-0.1136878 0.31522,-0.2480461 0.15503,-0.1343583 0.29972,-0.30489 -0.13952,-0.041341 -0.29455,-0.1395259 -0.15503,-0.098185 -0.24805,-0.2118727 -0.0465,-0.056844 -0.0568,-0.1446935 -0.0103,-0.093017 0.0155,-0.1705317 0.0413,-0.1240231 0.11369,-0.2687166 0.0775,-0.1446936 0.18087,-0.263549 0.10335,-0.1188554 0.22737,-0.1912022 0.12919,-0.077514 0.25838,-0.072347 0.1602,0.010335 0.23255,0.1550288 0.0723,0.1395259 0.0879,0.3255604 0.0207,0.1860346 0,0.3669015 -0.0155,0.180867 -0.0258,0.263549 0,0.025838 0.0155,0.041341 0.062,0.036173 0.0827,0.067179 0.0258,0.031006 0.0413,0.072347 0.031,0.077514 0.0103,0.1860346 -0.0155,0.1085202 -0.062,0.1653641 -0.0413,0.051676 -0.0724,0.051676 -0.031,-0.00517 -0.062,-0.051676 -0.0258,-0.031006 -0.0517,-0.056844 -0.0207,-0.031006 -0.0672,-0.051676 -0.14469,0.1756993 -0.31005,0.3358957 -0.1602,0.1601965 -0.34107,0.2945548 -0.18603,0.1291906 -0.38757,0.2325432 -0.20154,0.1033525 -0.42374,0.1705317 -0.0879,0.025838 -0.18087,0.036173 -0.093,0.00517 -0.10335,-0.020671 -0.0103,-0.031006 0.0362,-0.072347 0.0465,-0.046509 0.11369,-0.08785 z m 0.97151,-1.7363226 q 0.10852,0.1498612 0.25838,0.2377108 0.14986,0.082682 0.27389,0.1136878 h 0.0103 q 0,-0.041341 0.005,-0.1085201 0.005,-0.072347 0,-0.1446936 0,-0.072347 -0.0207,-0.1395259 -0.0155,-0.067179 -0.062,-0.1136878 -0.0413,-0.036173 -0.11886,-0.031006 -0.0723,0 -0.14469,0.025838 -0.0724,0.025838 -0.13436,0.072347 -0.0568,0.041341 -0.0672,0.08785 z m -6.66624,6.5163774 q -0.16536,0 -0.24804,-0.124023 -0.0827,-0.1291907 -0.0827,-0.2790519 0,-0.1498612 0.0827,-0.2790518 0.0827,-0.1291907 0.24804,-0.1291907 h 0.093 q 0.15503,0 0.34623,-0.025838 0.1912,-0.025838 0.40308,-0.082682 0.21187,-0.062012 0.42891,-0.1550288 0.21704,-0.093017 0.41858,-0.2325432 -0.11886,-0.1395259 -0.28422,-0.2480461 -0.16537,-0.1085201 -0.31006,-0.1291906 -0.10852,-0.015503 -0.21704,0.010335 -0.10852,0.020671 -0.20154,0.098185 -0.0465,0.046509 -0.0879,0.010335 -0.0413,-0.036173 -0.031,-0.098185 0.0155,-0.077514 0.0413,-0.1860346 0.031,-0.1085201 0.0827,-0.2222079 0.0517,-0.1188555 0.12402,-0.2325432 0.0775,-0.1188555 0.18087,-0.2118727 0.46509,-0.3979073 1.09037,-0.3979073 0.18087,0 0.39274,0.031006 0.21704,0.031006 0.40824,0.1136877 0.1912,0.082682 0.32039,0.222208 0.13436,0.1395259 0.13953,0.3565662 0.0103,0.3100577 -0.13436,0.527098 -0.14469,0.2170403 -0.37724,0.4030749 0.0827,0.1343583 0.21705,0.2222079 0.13435,0.08785 0.30489,0.1343583 0.16536,0.051676 0.35656,0.072347 0.19637,0.02067 0.40308,0.02067 h 0.093 q 0.1602,0 0.23771,0.1291907 0.0827,0.1291906 0.0827,0.2790518 0,0.1498612 -0.0827,0.2790519 -0.0775,0.124023 -0.23771,0.124023 h -0.093 q -0.30489,0 -0.56844,-0.046509 -0.26355,-0.046509 -0.49609,-0.1498612 -0.45476,-0.2067051 -0.83199,-0.651121 -0.53744,0.4547512 -1.0542,0.6562886 -0.25838,0.098185 -0.52193,0.1446936 -0.26355,0.046509 -0.5426,0.046509 z m 0.78031,-5.0384362 q 0.17054,-0.098185 0.3359,-0.1963698 0.16536,-0.098185 0.32039,-0.2118727 0.1602,-0.1136878 0.31523,-0.2480461 0.15503,-0.1343583 0.29972,-0.3048899 -0.13953,-0.041341 -0.29455,-0.139526 -0.15503,-0.098185 -0.24805,-0.2118727 -0.0465,-0.056844 -0.0568,-0.1446935 -0.0103,-0.093017 0.0155,-0.1705317 0.0413,-0.124023 0.11369,-0.2687166 0.0775,-0.1446935 0.18086,-0.2635489 0.10336,-0.1188555 0.22738,-0.1912022 0.12919,-0.077514 0.25838,-0.072347 0.1602,0.010335 0.23254,0.1550288 0.0724,0.1395259 0.0879,0.3255605 0.0207,0.1860345 0,0.3669015 -0.0155,0.1808669 -0.0258,0.2635489 0,0.025838 0.0155,0.041341 0.062,0.036173 0.0827,0.067179 0.0258,0.031006 0.0413,0.072347 0.031,0.077514 0.0103,0.1860345 -0.0155,0.1085202 -0.062,0.1653641 -0.0413,0.051676 -0.0723,0.051676 -0.031,-0.00517 -0.062,-0.051676 -0.0258,-0.031006 -0.0517,-0.056844 -0.0207,-0.031006 -0.0672,-0.051676 -0.14469,0.1756994 -0.31006,0.3358958 -0.16019,0.1601964 -0.34106,0.2945547 -0.18604,0.1291907 -0.38757,0.2325432 -0.20154,0.1033525 -0.42375,0.1705317 -0.0879,0.025838 -0.18086,0.036173 -0.093,0.00517 -0.10336,-0.020671 -0.0103,-0.031006 0.0362,-0.072347 0.0465,-0.046509 0.11368,-0.08785 z m 0.97152,-1.7363226 q 0.10852,0.1498612 0.25838,0.2377109 0.14986,0.082682 0.27388,0.1136878 h 0.0103 q 0,-0.041341 0.005,-0.1085202 0.005,-0.072347 0,-0.1446935 0,-0.072347 -0.0207,-0.139526 -0.0155,-0.067179 -0.062,-0.1136878 -0.0413,-0.036173 -0.11885,-0.031006 -0.0724,0 -0.1447,0.025838 -0.0723,0.025838 -0.13435,0.072347 -0.0569,0.041341 -0.0672,0.08785 z m -3.55533,5.844586 q 0.031,0.067179 0.15503,0.1033525 0.12919,0.036173 0.28422,0.051676 0.15503,0.010335 0.30489,0.00517 0.15503,-0.00517 0.23255,-0.015503 0,-0.02067 -0.0568,-0.1033525 -0.0517,-0.082682 -0.13952,-0.1705317 -0.0879,-0.093017 -0.19637,-0.165364 -0.10336,-0.077514 -0.20671,-0.08785 -0.0568,0 -0.12402,0.041341 -0.062,0.036173 -0.11886,0.098185 -0.0568,0.056844 -0.0982,0.1240231 -0.0362,0.067179 -0.0362,0.1188554 z m 1.13688,0.9353404 -0.51676,0.010335 q -0.21704,0.010335 -0.41341,-0.041341 -0.1912,-0.056844 -0.3359,-0.1653641 -0.13952,-0.1136878 -0.21704,-0.2790518 -0.0723,-0.1705317 -0.0465,-0.387572 0.0155,-0.1446936 0.10336,-0.3565663 0.0878,-0.2118727 0.2222,-0.4082425 0.13436,-0.2015375 0.29973,-0.3410634 0.16536,-0.1446935 0.33589,-0.1446935 0.18087,0 0.3359,0.1498612 0.1602,0.1446935 0.28422,0.3462309 0.11885,0.2067051 0.19637,0.4340807 0.0775,0.2222079 0.0982,0.3824044 l 0.41341,-0.015503 h 0.0982 q 0.0775,0 0.13952,0.036173 0.062,0.036173 0.10336,0.093017 0.0413,0.056844 0.062,0.1291906 0.0207,0.072347 0.0207,0.1498612 0.005,0.1498612 -0.0775,0.2790519 -0.0827,0.124023 -0.24804,0.124023 h -0.0982 l -0.43408,0.00517 q -0.093,0.439248 -0.21704,0.8629935 -0.11885,0.423745 -0.30489,0.780311 -0.1912,0.356567 -0.46508,0.625283 -0.26872,0.268717 -0.66146,0.39274 -0.25838,0.09302 -0.57361,0.118855 -0.31005,0.02584 -0.63562,0.0052 -0.32039,-0.0155 -0.63045,-0.07235 -0.31522,-0.05684 -0.56843,-0.129191 -0.0724,-0.02067 -0.0879,-0.06201 -0.0207,-0.03617 0,-0.07235 0.0155,-0.03617 0.0672,-0.06201 0.0517,-0.02584 0.12403,-0.02067 0.24288,0.02584 0.5271,0.0052 0.28938,-0.0155 0.57877,-0.07235 0.29455,-0.05168 0.56844,-0.139526 0.27388,-0.08785 0.48576,-0.206705 0.29455,-0.160196 0.52193,-0.382404 0.22737,-0.222208 0.40824,-0.485757 0.18087,-0.263549 0.31006,-0.537434 0.13435,-0.2687156 0.22737,-0.5477675 z M 217.3272,6.4639794 217.353,5.7663498 q 0.0103,-0.082682 0.0672,-0.093017 0.062,-0.010335 0.13953,0.015503 0.35139,0.1085202 0.66145,0.3617339 0.31006,0.2480461 0.55294,0.5736065 0.23771,0.3255605 0.38757,0.692462 0.15503,0.3617339 0.18604,0.6872944 0.0103,0.124023 0,0.2842195 -0.0103,0.1601964 -0.0465,0.3203928 -0.031,0.1550288 -0.0827,0.2790519 -0.0465,0.124023 -0.11368,0.1756993 -0.1757,0.1395259 -0.43925,0.2377108 -0.26355,0.098185 -0.55811,0.1601964 -0.29972,0.062012 -0.60461,0.08785 -0.30489,0.031006 -0.56844,0.031006 -0.062,0 -0.15503,-0.010335 -0.0879,-0.00517 -0.17569,-0.031006 -0.0879,-0.031006 -0.15503,-0.082682 -0.062,-0.051676 -0.0672,-0.1343583 0,-0.041341 0,-0.1601964 0.005,-0.1188554 0.0155,-0.2480461 0.0103,-0.1291907 0.0258,-0.2273756 0.0155,-0.1033525 0.0413,-0.1033525 0.0155,0 0.0258,0.020671 0.0155,0.02067 0.031,0.036173 0.0879,0.062012 0.21188,0.093017 0.12402,0.031006 0.25838,0.041341 0.13952,0.00517 0.27388,0 0.13953,-0.010335 0.24288,-0.015503 0.18087,-0.010335 0.37724,-0.036173 0.19637,-0.031006 0.37723,-0.072347 0.18604,-0.041341 0.3514,-0.093017 0.16537,-0.056844 0.28422,-0.1188555 0.0517,-0.025838 0.0982,-0.062011 0.0465,-0.041341 0.0568,-0.072347 Q 219.0065,8.0297717 218.83596,7.7300494 218.6706,7.430327 218.43289,7.1667781 218.19001,6.9083967 217.90062,6.7171945 217.6164,6.5208247 217.32701,6.4639808 Z m -4.94025,0.2687166 q 0.1447,0.1446936 0.26355,0.3152252 0.12402,0.1705317 0.21704,0.3565663 0.093,0.1860346 0.14469,0.3824044 0.0517,0.1963698 0.0517,0.3979072 0,0.08785 -0.0103,0.1963698 -0.0103,0.1085202 -0.031,0.222208 -0.0207,0.1085202 -0.0568,0.2118727 -0.031,0.098185 -0.0775,0.1705317 -0.12402,0.1860345 -0.34623,0.2997223 -0.21704,0.1136878 -0.48059,0.1705317 -0.26355,0.056844 -0.53743,0.077514 -0.26872,0.015503 -0.49093,0.015503 h -0.093 q -0.1602,0 -0.24288,-0.124023 -0.0827,-0.1291907 -0.0827,-0.2842195 0,-0.1550288 0.0827,-0.2790519 0.0827,-0.1291906 0.24288,-0.1291906 h 0.093 q 0.24805,0 0.49093,-0.00517 0.24804,-0.010335 0.46508,-0.031006 0.22221,-0.02067 0.39791,-0.056844 0.1757,-0.041341 0.27905,-0.1085202 0.0568,-0.031006 0.0568,-0.077514 0.005,-0.046509 -0.0207,-0.1188554 -0.0517,-0.1343583 -0.11886,-0.2480461 -0.062,-0.1136878 -0.13952,-0.2170403 -0.0827,-0.1085202 -0.17054,-0.2067051 -0.0879,-0.098185 -0.18603,-0.1963698 l 0.17053,-0.7234677 q 0.0155,-0.056844 0.0517,-0.056844 0.0362,0 0.0775,0.046509 z m -0.5426,3.834379 0.63562,0.527098 q 0.0413,0.03617 0.005,0.08268 l -0.42375,0.532265 q -0.0362,0.05168 -0.0827,0.01034 l -0.64079,-0.527098 q -0.0413,-0.03617 0,-0.08785 l 0.42892,-0.527098 q 0.0362,-0.04651 0.0775,-0.01033 z m -2.24792,-1.9120218 0.23255,-0.7544735 q 0.0207,-0.056844 0.0465,-0.056844 0.0258,-0.00517 0.0568,0.046509 0.10335,0.1653641 0.21187,0.3617339 0.10852,0.1963698 0.20671,0.3513986 0.0568,0.051676 0.15503,0.077514 0.10335,0.025838 0.2067,0.041341 0.10852,0.010335 0.19637,0.015503 0.093,0 0.12919,0 h 0.093 q 0.16536,0 0.24288,0.1291907 0.0827,0.124023 0.0827,0.2738842 0,0.1550288 -0.0827,0.2842195 -0.0775,0.124023 -0.24288,0.124023 h -0.093 q -0.25838,0 -0.50643,-0.031006 0.031,0.2945548 0.031,0.6201154 0.005,0.32556 -0.0465,0.640786 -0.0827,0.516762 -0.37724,0.888831 -0.29455,0.37207 -0.70796,0.60978 -0.41341,0.237711 -0.89917,0.346231 -0.48575,0.113688 -0.96634,0.113688 -0.41858,0 -0.78032,-0.129191 -0.35656,-0.12919 -0.62528,-0.377236 -0.26355,-0.242879 -0.41858,-0.594277 -0.14986,-0.351399 -0.14986,-0.790647 0,-0.485757 0.15503,-0.9405084 0.15503,-0.4495835 0.43408,-0.8526584 0.031,-0.046509 0.0569,-0.041341 0.0258,0 0.0465,0.046509 0.0207,0.046509 0.0103,0.08785 -0.23771,0.4650864 -0.30489,0.9611788 -0.0672,0.50126 0.0879,0.899167 0.15503,0.397907 0.53227,0.651121 0.3824,0.258381 1.01802,0.258381 0.35656,0 0.71313,-0.05684 0.36173,-0.05684 0.69763,-0.186035 0.3359,-0.129191 0.63045,-0.335896 0.29456,-0.201537 0.5271,-0.496092 0.0103,-0.273884 -0.0362,-0.563271 -0.0413,-0.2842203 -0.12403,-0.5684395 -0.0775,-0.2790518 -0.1912,-0.5477684 -0.11369,-0.2687166 -0.24805,-0.5064274 z m -1.22472,-2.1910738 0.63561,0.5270979 q 0.0413,0.036173 0.005,0.082682 l -0.42374,0.5322655 q -0.0362,0.051676 -0.0827,0.010335 L 207.8651,7.0892619 q -0.0413,-0.036173 0,-0.08785 l 0.42891,-0.5270979 q 0.0362,-0.046509 0.0775,-0.010335 z m -6.6249,-3.7258589 q 0.0258,0 0.0413,0.020671 0.0155,0.020671 0.0207,0.051676 0.0103,0.025838 0.0103,0.062012 0,0.031006 0,0.046509 -0.0103,0.1860346 0.005,0.3617339 0.0155,0.1756993 0.0362,0.3565663 0.0517,0.4340806 0.11368,0.8939994 0.0672,0.4599188 0.13436,0.9301728 0.0672,0.4702541 0.12919,0.9301728 0.0672,0.4599188 0.10852,0.8991671 0.0207,0.1705317 0.0258,0.4030749 0.0103,0.2273756 -0.005,0.4650864 -0.0155,0.2377108 -0.0568,0.4547512 -0.0362,0.2170403 -0.10852,0.3565662 -0.0207,0.046509 -0.0465,0.077514 -0.0207,0.025838 -0.0413,0.036173 -0.0517,0.010335 -0.0413,-0.041341 -0.031,-0.4237454 -0.0724,-0.8526584 -0.0413,-0.4340807 -0.10335,-0.8836642 -0.12919,-0.9198376 -0.25321,-1.8190046 -0.11886,-0.8991671 -0.23771,-1.8190047 0.0103,-0.1136878 0.0413,-0.2325432 0.031,-0.1188554 0.0879,-0.2480461 0.0258,-0.067179 0.0568,-0.1446935 0.0362,-0.082682 0.062,-0.1498612 0.0258,-0.072347 0.0517,-0.1136878 0.0258,-0.041341 0.0413,-0.041341 z m -0.43408,8.3353815 q 0.0258,-0.0155 0.0775,-0.04134 0.0568,-0.02584 0.11369,-0.05684 0.062,-0.02584 0.11886,-0.05684 0.0568,-0.02584 0.0982,-0.04651 -0.10852,-0.08268 -0.2067,-0.191202 -0.093,-0.10852 -0.14987,-0.237711 -0.031,-0.08268 -0.0103,-0.160197 0.0207,-0.07751 0.0672,-0.155028 0.0723,-0.09819 0.17053,-0.2015376 0.0982,-0.1033526 0.21704,-0.1912022 0.12402,-0.082682 0.25838,-0.1343583 0.13436,-0.051676 0.27389,-0.051676 0.062,0 0.10852,0.031006 0.0517,0.036173 0.0878,0.082682 0.0413,0.051676 0.0723,0.1033525 0.031,0.056844 0.0413,0.1033526 0.031,0.1033527 0,0.1757 -0.0827,0.165364 -0.12919,0.206705 -0.0465,0.04651 -0.0879,0.04134 -0.0362,-0.0052 -0.0517,-0.06201 -0.0155,-0.05168 -0.0413,-0.113688 -0.031,-0.07751 -0.093,-0.103352 -0.0568,-0.02584 -0.12919,-0.02584 -0.23771,0 -0.42375,0.160196 0.0362,0.08268 0.093,0.160197 0.0568,0.08268 0.12919,0.144693 0.0724,0.06718 0.1602,0.10852 0.0879,0.04134 0.1757,0.05168 0.24804,0.02584 0.47542,-0.0155 0.23254,-0.03617 0.48059,-0.08785 0.005,0.01033 -0.0155,0.07751 -0.0207,0.06718 -0.0517,0.144694 -0.031,0.08268 -0.062,0.144693 -0.031,0.06718 -0.0465,0.06718 -0.20671,0.02067 -0.41858,0.05684 -0.21187,0.03617 -0.44442,0.103352 -0.23771,0.06201 -0.48059,0.170532 -0.23771,0.113688 -0.45475,0.222208 -0.0362,0.0155 -0.0517,-0.0052 -0.0155,-0.0155 -0.0155,-0.03617 0.005,-0.02584 0.0207,-0.07752 0.0155,-0.04651 0.0362,-0.103352 0.0207,-0.05168 0.0413,-0.10852 0.0207,-0.05168 0.0465,-0.09302 z m 1.74149,1.00252 q -0.50643,0.160196 -0.99736,0.32556 -0.49092,0.165364 -0.9405,0.310058 -0.0827,0.02584 -0.0413,-0.05168 l 0.21187,-0.39274 q 0.0155,-0.03101 0.0258,-0.04651 0.0155,-0.0155 0.0465,-0.02584 0.13952,-0.05168 0.3669,-0.12919 0.22737,-0.07235 0.49092,-0.160197 0.26872,-0.08268 0.54777,-0.170531 0.27905,-0.08785 0.53227,-0.165365 0.0413,-0.0155 0.0517,-0.01033 0.0103,0.01033 -0.0103,0.05168 l -0.22221,0.403075 q -0.0155,0.02067 -0.031,0.03617 -0.0103,0.02067 -0.031,0.02584 z m -3.44681,-5.343326 q 0.14469,0.1446936 0.26355,0.3152252 0.12402,0.1705317 0.21704,0.3565663 0.093,0.1860346 0.14469,0.3824044 0.0517,0.1963698 0.0517,0.3979072 0,0.08785 -0.0103,0.1963698 -0.0103,0.1085202 -0.031,0.222208 -0.0207,0.1085202 -0.0568,0.2118727 -0.031,0.098185 -0.0775,0.1705317 -0.12402,0.1860345 -0.34623,0.2997223 -0.21704,0.1136878 -0.48059,0.1705317 -0.26355,0.056844 -0.53743,0.077514 -0.26872,0.015503 -0.49093,0.015503 h -0.093 q -0.1602,0 -0.24288,-0.124023 -0.0827,-0.1291907 -0.0827,-0.2842195 0,-0.1550288 0.0827,-0.2790519 0.0827,-0.1291906 0.24288,-0.1291906 h 0.093 q 0.24805,0 0.49093,-0.00517 0.24804,-0.010335 0.46508,-0.031006 0.22221,-0.02067 0.39791,-0.056844 0.1757,-0.041341 0.27905,-0.1085202 0.0568,-0.031006 0.0568,-0.077514 0.005,-0.046509 -0.0207,-0.1188554 -0.0517,-0.1343583 -0.11886,-0.2480461 -0.062,-0.1136878 -0.13953,-0.2170403 -0.0827,-0.1085202 -0.17053,-0.2067051 -0.0879,-0.098185 -0.18603,-0.1963698 l 0.17053,-0.7234677 q 0.0155,-0.056844 0.0517,-0.056844 0.0362,0 0.0775,0.046509 z m -0.5426,3.834379 0.63562,0.527098 q 0.0413,0.03617 0.005,0.08268 l -0.42375,0.532265 q -0.0362,0.05168 -0.0827,0.01034 l -0.64079,-0.527098 q -0.0413,-0.03617 0,-0.08785 l 0.42892,-0.527098 q 0.0362,-0.04651 0.0775,-0.01033 z m -0.55294,-6.9711285 q 0,0.08785 0.0465,0.1395259 0.0517,0.046509 0.11886,0.072347 0.0672,0.025838 0.14469,0.031006 0.0827,0.00517 0.14469,0.00517 0.1447,0 0.26872,-0.062012 0.12919,-0.062012 0.23254,-0.1601964 0.0103,-0.093017 -0.0207,-0.1963698 -0.031,-0.1033525 -0.0982,-0.1860346 -0.0672,-0.082682 -0.16537,-0.1291906 -0.0982,-0.051676 -0.22737,-0.041341 -0.0775,0.020671 -0.15503,0.077514 -0.0775,0.051676 -0.14469,0.1240231 -0.062,0.072347 -0.10336,0.1601964 -0.0413,0.082682 -0.0413,0.1653641 z m 1.20923,-0.1343583 q 0,0.1756993 -0.0465,0.3410633 -0.0465,0.1653641 -0.1447,0.2945548 -0.0982,0.1291906 -0.25321,0.206705 -0.14986,0.077514 -0.36173,0.077514 -0.26355,0 -0.44442,-0.1705316 -0.18087,-0.1705317 -0.1912,-0.4547512 0,-0.1446935 0.0413,-0.346231 0.0465,-0.2067051 0.13953,-0.3979073 0.093,-0.1912021 0.23771,-0.3307281 0.14986,-0.1446935 0.35656,-0.1705317 0.19637,-0.020671 0.32556,0.077514 0.12919,0.098185 0.20671,0.248046 0.0724,0.1550288 0.10335,0.3307282 0.031,0.1705316 0.031,0.2945547 z m -2.98172,4.7180433 q 0.0207,-0.072347 0.0723,-0.010335 0.1602,0.1912021 0.3204,0.3048899 0.16019,0.1085202 0.33072,0.1653641 0.0879,0.031006 0.17054,0.051676 0.0827,0.015503 0.17053,0.031006 0.093,0.010335 0.20153,0.015503 0.10852,0 0.24805,0 h 0.093 q 0.16536,0 0.24804,0.1291907 0.0827,0.124023 0.0827,0.2738842 0,0.1550288 -0.0827,0.2842195 -0.0827,0.124023 -0.24804,0.124023 h -0.093 q -0.17053,0 -0.3514,-0.010335 -0.1757,-0.015503 -0.34623,-0.041341 -0.0517,0.2842195 -0.12402,0.5322661 -0.0724,0.253213 -0.14986,0.470254 -0.18604,0.480589 -0.43408,0.857826 -0.23771,0.372069 -0.7183,0.63045 -0.26355,0.144694 -0.54777,0.217041 -0.28422,0.07235 -0.56844,0.08785 -0.18604,0.01033 -0.3669,0.0052 -0.1757,-0.0052 -0.36174,-0.03101 -0.18603,-0.02067 -0.3824,-0.07235 -0.20154,-0.04651 -0.42375,-0.12919 -0.062,-0.02584 -0.0827,-0.06201 -0.0258,-0.03617 -0.0103,-0.07235 0.0258,-0.06718 0.2067,-0.06718 0.31006,0.0052 0.57361,-0.01033 0.26355,-0.0155 0.51159,-0.07235 0.24805,-0.05168 0.49609,-0.149861 0.25322,-0.09302 0.54777,-0.253214 0.31523,-0.170531 0.56327,-0.387572 0.24805,-0.211872 0.43409,-0.459919 0.18086,-0.248046 0.31005,-0.52193 0.12919,-0.2738842 0.20154,-0.568439 -0.19637,-0.082682 -0.3824,-0.2273755 -0.18604,-0.1446936 -0.30489,-0.2997224 z m 0.28939,-3.5346569 q -0.25838,0.1188554 -0.5426,0.2480461 -0.27906,0.1291907 -0.5426,0.2480461 -0.26355,0.1188554 -0.49093,0.2222079 -0.22737,0.1033526 -0.38757,0.1705317 -0.0362,0.015503 -0.0517,0 -0.0155,-0.015503 0,-0.046509 l 0.25322,-0.5064275 q 0.0258,-0.041341 0.0517,-0.056844 0.031,-0.02067 0.0568,-0.036173 l 1.88618,-0.8371556 q 0.0827,-0.036173 0.0517,0.041341 l -0.21188,0.4805893 q -0.0155,0.046509 -0.0723,0.072347 z m -3.70519,-1.7931663 q 0.0827,0.00517 0.0775,0.1912022 -0.0103,0.1963698 0.005,0.387572 0.0155,0.1860346 0.0413,0.3772368 0.0517,0.4599187 0.12402,0.9508433 0.0724,0.4857569 0.1447,0.9818491 0.0672,0.4909245 0.13436,0.9818491 0.0672,0.4909245 0.11368,0.9560109 0.0207,0.1808669 0.0258,0.4237454 0.0103,0.2428785 -0.005,0.4960922 -0.0103,0.2480461 -0.0568,0.4805893 -0.0413,0.2325432 -0.11886,0.387572 -0.0413,0.08785 -0.0982,0.1136878 -0.0465,0.00517 -0.0413,-0.041341 -0.031,-0.4495835 -0.0775,-0.9043346 -0.0413,-0.4599188 -0.10852,-0.9353405 -0.0672,-0.4909245 -0.13435,-0.9715138 -0.0672,-0.4805893 -0.1292,-0.9611786 -0.0672,-0.4805893 -0.13435,-0.9611786 -0.062,-0.4805893 -0.12403,-0.9663462 0.0155,-0.1188554 0.0465,-0.2428784 0.031,-0.1291907 0.0878,-0.263549 0.12402,-0.3358958 0.16537,-0.4082425 0.0465,-0.072347 0.062,-0.072347 z m -4.2788,3.4364718 q -0.0207,-0.02067 -0.0155,-0.062011 l 0.0982,-0.7079649 q 0.0155,-0.08785 0.0827,-0.124023 0.0672,-0.041341 0.14469,-0.00517 0.31523,0.1550288 0.75964,0.4082426 0.44442,0.248046 0.85783,0.5632713 0.41341,0.3152252 0.72347,0.6717915 0.31522,0.3565662 0.3669,0.7183001 0.0207,0.1498612 0.005,0.3307281 -0.0155,0.1808669 -0.0672,0.3617339 -0.0517,0.1756993 -0.1447,0.3307281 -0.093,0.1498612 -0.22221,0.2325432 -0.11368,0.082682 -0.2067,0.098185 -0.0879,0.010335 -0.20154,-0.00517 -0.16536,-0.025838 -0.80615,-0.1498612 -0.63562,-0.1291907 -0.83715,-0.1860346 -0.40308,0.3772368 -0.87333,0.5787742 -0.47542,0.2067051 -0.94051,0.2067051 h -0.093 q -0.16019,0 -0.23771,-0.124023 -0.0827,-0.1291907 -0.0827,-0.2790519 0,-0.1498612 0.0827,-0.2790518 0.0775,-0.1291907 0.23771,-0.1291907 h 0.093 q 0.0827,0 0.21704,-0.00517 0.13436,-0.010335 0.28422,-0.031006 0.14986,-0.025838 0.29455,-0.067179 0.14987,-0.046509 0.26355,-0.1136878 -0.16019,-0.1653641 -0.1757,-0.4444159 -0.0103,-0.2842195 0.0672,-0.5891095 0.0827,-0.3100576 0.22221,-0.5942771 0.14469,-0.2842194 0.28939,-0.4547511 -0.0413,-0.031006 -0.0827,-0.062011 -0.0413,-0.031006 -0.10336,-0.08785 z m 1.55029,0.7183001 q -0.031,-0.025838 -0.0517,-0.010335 -0.0155,0.015503 -0.005,0.046509 0.0568,0.2790519 0.0258,0.5632713 -0.0258,0.2790519 -0.13953,0.4960922 -0.0155,0.031006 0.0103,0.041341 0.11885,0.036173 0.27905,0.077514 0.16019,0.036173 0.32556,0.067179 0.17053,0.025838 0.32556,0.036173 0.16019,0.00517 0.27905,-0.031006 0.10852,-0.02067 0.10852,-0.077514 0,-0.1550288 -0.13953,-0.3307281 -0.13435,-0.180867 -0.32556,-0.3513986 -0.1912,-0.1653641 -0.38757,-0.30489 -0.1912,-0.1446936 -0.30489,-0.222208 z m -0.9095,1.0128549 q 0.0724,-0.00517 0.17053,-0.056844 0.10335,-0.056844 0.19637,-0.1240231 0.0982,-0.072347 0.16536,-0.1395259 0.0672,-0.072347 0.0672,-0.1136878 0,-0.098185 -0.0672,-0.2273756 -0.0672,-0.1343582 -0.16536,-0.2532137 -0.0982,-0.1188554 -0.21704,-0.1963698 -0.11369,-0.082682 -0.21187,-0.082682 -0.0879,0.025838 -0.19637,0.1033525 -0.10335,0.077514 -0.19637,0.1860346 -0.093,0.1085202 -0.1602,0.2428784 -0.062,0.1291907 -0.0672,0.2583814 -0.005,0.08785 0.0724,0.1601964 0.0827,0.067179 0.1912,0.1240231 0.11369,0.051676 0.23254,0.082682 0.11886,0.031006 0.18604,0.036173 z m 0.57877,3.0230619 q -0.50643,0.160196 -0.99735,0.32556 -0.49092,0.165364 -0.94051,0.310058 -0.0827,0.02584 -0.0413,-0.05168 l 0.21187,-0.392739 q 0.0155,-0.03101 0.0258,-0.04651 0.0155,-0.0155 0.0465,-0.02584 0.13953,-0.05168 0.3669,-0.129191 0.22738,-0.07235 0.49093,-0.160196 0.26871,-0.08268 0.54776,-0.170532 0.27906,-0.08785 0.53227,-0.165364 0.0413,-0.0155 0.0517,-0.01033 0.0103,0.01033 -0.0103,0.05168 l -0.22221,0.403075 q -0.0155,0.02067 -0.031,0.03617 -0.0103,0.02067 -0.031,0.02584 z m -3.34862,0.568438 q -0.0258,0.03101 -0.0413,0.03101 -0.0155,0.0052 -0.0568,-0.02584 l -0.61495,-0.480589 -0.40308,0.552936 q -0.0362,0.04651 -0.0775,0.0155 l -0.65629,-0.506428 q -0.0362,-0.02584 -0.0103,-0.06201 l 0.41857,-0.594277 q 0.0207,-0.03101 0.0362,-0.03101 0.0155,0 0.0362,0.02067 l 0.62012,0.470255 0.42374,-0.542601 q 0.031,-0.04134 0.062,-0.0155 l 0.65629,0.547768 q 0.0362,0.02584 0,0.07235 z m -2.16007,-2.0618824 h -0.093 q -0.15503,0 -0.23255,-0.124023 -0.0775,-0.1291907 -0.0775,-0.2842195 0,-0.077514 0.0207,-0.1498612 0.0155,-0.072347 0.0568,-0.1291907 0.0362,-0.056844 0.0982,-0.093017 0.0568,-0.036173 0.13436,-0.036173 h 0.093 q 0.1602,0 0.35657,-0.010335 0.20154,-0.010335 0.37724,-0.056844 0.17053,-0.046509 0.33589,-0.1395259 0.16537,-0.098185 0.30489,-0.2687166 0.10336,-0.124023 0.16537,-0.2532137 0.0672,-0.1291907 0.12919,-0.2945547 0.0258,-0.067179 0.0827,-0.072347 0.062,-0.00517 0.0672,0.025838 0.005,0.062011 -0.0103,0.1498612 -0.0103,0.08785 -0.0103,0.1601964 0,0.1343583 0.0672,0.2687166 0.0672,0.1343583 0.2067,0.2428785 0.13953,0.1085201 0.38241,0.1808669 0.24804,0.067179 0.5581,0.067179 h 0.0982 q 0.0775,0 0.13435,0.036173 0.0569,0.036173 0.093,0.093017 0.0413,0.056844 0.0568,0.1291907 0.0207,0.072347 0.0207,0.1498612 0,0.1550288 -0.0775,0.2842195 -0.0724,0.124023 -0.22737,0.124023 h -0.0982 q -0.27905,0 -0.53227,-0.051676 -0.24804,-0.056844 -0.42374,-0.165364 -0.34106,-0.2067051 -0.53227,-0.60978 -0.11368,0.2325432 -0.26871,0.387572 -0.15503,0.1550288 -0.34107,0.2532137 -0.1912,0.098185 -0.43408,0.1446936 -0.24288,0.041341 -0.48059,0.041341 z M 182.4664,8.3346603 q -0.1292,-0.010335 -0.28939,0.067179 -0.15503,0.072347 -0.25838,0.165364 -0.0517,0.046509 0.005,0.077514 0.11369,0.072347 0.27906,0.1446936 0.17053,0.067179 0.33589,0.1136878 0.17053,0.051676 0.31523,0.072347 0.14469,0.02067 0.21187,-0.00517 -0.062,-0.124023 -0.15503,-0.2377108 -0.093,-0.1136878 -0.18603,-0.2015375 -0.093,-0.08785 -0.16537,-0.1395259 -0.0723,-0.056844 -0.093,-0.056844 z m 0.11368,-0.5684389 q 0.093,0 0.1757,0.056844 0.0827,0.056844 0.17053,0.1446935 0.0879,0.08785 0.18087,0.1963698 0.0982,0.1033526 0.20671,0.1963698 0.14469,0.1240231 0.31005,0.2015375 0.17054,0.072347 0.35657,0.1136878 0.18603,0.036173 0.3824,0.051676 0.19637,0.010335 0.39274,0.010335 h 0.093 q 0.1602,0 0.24288,0.1291907 0.0827,0.124023 0.0827,0.2790518 0,0.1498612 -0.0827,0.2790519 -0.0827,0.124023 -0.24288,0.124023 h -0.093 q -0.11368,0 -0.25321,0 -0.13953,-0.00517 -0.29455,-0.015503 -0.1602,-0.010335 -0.3359,-0.031006 -0.17053,-0.025838 -0.35657,-0.072347 -0.0155,0.1395259 -0.0362,0.2480461 -0.0207,0.1085201 -0.0827,0.1291906 -0.19637,0.041341 -0.48059,0.010335 -0.27905,-0.031006 -0.55294,-0.1291907 -0.27388,-0.098185 -0.49609,-0.2273756 -0.21704,-0.1291906 -0.28939,-0.2583813 -0.10335,0.041341 -0.21704,0.1188554 -0.11368,0.077514 -0.21187,0.180867 -0.093,0.098185 -0.1602,0.2170403 -0.062,0.124023 -0.062,0.2480459 0,0.1963701 0.0362,0.5115951 0.0413,0.315225 0.0982,0.661456 0.0517,0.351399 0.10852,0.692462 0.062,0.341064 0.0982,0.58911 0.0362,0.21704 0.0672,0.475422 0.031,0.263549 0.0465,0.516762 0.0155,0.258382 0.005,0.48059 -0.005,0.227375 -0.0517,0.366901 -0.0207,0.06201 -0.062,0.06201 -0.0413,0.0052 -0.062,-0.06201 -0.031,-0.103353 -0.0413,-0.206705 -0.0103,-0.103353 -0.031,-0.206705 -0.0155,-0.09302 -0.0568,-0.39274 -0.0413,-0.299722 -0.11885,-0.800982 -0.0724,-0.475422 -0.13953,-0.868161 -0.062,-0.387572 -0.11369,-0.69763 -0.0517,-0.310057 -0.0827,-0.542601 -0.031,-0.232543 -0.0413,-0.397907 -0.0258,-0.470254 0.0982,-0.8061498 0.12919,-0.3410633 0.37724,-0.5736065 0.093,-0.08785 0.29456,-0.2532138 0.20153,-0.1705316 0.42891,-0.3358957 0.22737,-0.1653641 0.44441,-0.2893871 0.22221,-0.124023 0.3514,-0.124023 z M 176.77167,2.800132 q 0.0827,0.00517 0.0775,0.1912022 -0.0103,0.1963698 0.005,0.387572 0.0155,0.1860346 0.0413,0.3772368 0.0517,0.4599188 0.12402,0.9508433 0.0724,0.4857569 0.1447,0.9818491 0.0672,0.4909245 0.13436,0.9818491 0.0672,0.4909245 0.11368,0.9560109 0.0207,0.180867 0.0258,0.4237454 0.0103,0.2428785 -0.005,0.4960922 -0.0103,0.2480461 -0.0569,0.4805893 -0.0413,0.2325432 -0.11885,0.387572 -0.0413,0.08785 -0.0982,0.1136878 -0.0465,0.00517 -0.0413,-0.041341 -0.031,-0.4495836 -0.0775,-0.9043347 -0.0414,-0.4599188 -0.10852,-0.9353405 -0.0672,-0.4909245 -0.13436,-0.9715138 -0.0672,-0.4805893 -0.12919,-0.9611786 -0.0672,-0.4805893 -0.13436,-0.9611785 -0.062,-0.4805893 -0.12402,-0.9663463 0.0155,-0.1188554 0.0465,-0.2428784 0.031,-0.1291907 0.0879,-0.263549 0.12403,-0.3358957 0.16537,-0.4082425 0.0465,-0.072347 0.062,-0.072347 z m 1.77249,-1.7983341 q 0.0207,0.015503 0.0155,0.062012 0,0.041341 -0.0207,0.1033526 -0.0207,0.062012 -0.0465,0.124023 -0.0207,0.056844 -0.0465,0.1033525 -0.13953,0.2170404 -0.31006,0.3669015 -0.17053,0.1446936 -0.36173,0.2428785 -0.1912,0.093017 -0.39791,0.1395259 -0.2067,0.041341 -0.41341,0.056844 -0.28939,0.010335 -0.56327,-0.062011 -0.26872,-0.072347 -0.45992,-0.1963698 -0.0672,-0.041341 -0.0724,0.00517 -0.0103,0.036173 -0.0517,0.1085202 -0.0413,0.072347 -0.093,0.1395259 -0.0465,0.062012 -0.093,0.1136878 -0.0465,0.046509 -0.0723,0.046509 -0.0413,0 -0.0362,-0.067179 0.0103,-0.072347 0.0207,-0.1240231 0.0103,-0.067179 0.0465,-0.1912022 0.0362,-0.124023 0.0775,-0.2532137 0.0465,-0.1343583 0.093,-0.2480461 0.0517,-0.1188554 0.0827,-0.1860345 0.0362,-0.051676 0.12919,-0.00517 0.26355,0.1291906 0.56327,0.206705 0.30489,0.077514 0.59944,0.067179 0.1912,-0.010335 0.37207,-0.036173 0.18087,-0.031006 0.34623,-0.093017 0.1757,-0.062012 0.33073,-0.1550288 0.1602,-0.098185 0.29972,-0.2377108 0.0413,-0.046509 0.062,-0.031006 z m -4.11343,8.1545151 -0.70279,-5.0642743 q -0.031,-0.2170403 -0.0724,-0.4237454 -0.0362,-0.206705 -0.15503,-0.4030749 -0.0465,-0.062011 -0.0465,-0.072347 0,-0.015503 0.031,-0.082682 0.0724,-0.1498611 0.14986,-0.2997223 0.0775,-0.1498612 0.15503,-0.2997224 0.0258,-0.041341 0.0465,-0.051676 0.0207,-0.010335 0.0362,0.051676 0.062,0.2532137 0.21187,0.5167627 0.14986,0.263549 0.38241,0.4030749 -0.0724,0.124023 -0.12919,0.2118727 -0.0568,0.08785 -0.093,0.1653641 -0.0362,0.072347 -0.0517,0.1446935 -0.0103,0.067179 0,0.1498612 l 0.50126,3.834379 q 0.10852,0.956011 0.10336,0.9715139 -0.0258,0.4650864 -0.23772,0.8474908 -0.2067,0.3824045 -0.53743,0.6511205 -0.33073,0.273885 -0.75964,0.418578 -0.42375,0.149861 -0.88883,0.149861 -0.44442,0 -0.80615,-0.134358 -0.36174,-0.134358 -0.62012,-0.382404 -0.25838,-0.248046 -0.40307,-0.6046126 -0.14469,-0.3513986 -0.14469,-0.7958145 0,-0.4702541 0.16019,-0.91467 0.16537,-0.4495835 0.42891,-0.8526584 0.0258,-0.046509 0.0517,-0.041341 0.0258,0 0.0413,0.025838 0.0155,0.020671 0.0207,0.056844 0.0103,0.031006 0.005,0.046509 -0.23771,0.4650864 -0.31006,0.9663462 -0.0672,0.4960921 0.0879,0.8939994 0.14986,0.3979073 0.5271,0.651121 0.3824,0.2583809 1.02319,0.2583809 0.28939,0 0.57361,-0.06201 0.28938,-0.06201 0.54777,-0.1860347 0.25838,-0.124023 0.48058,-0.3100576 0.22738,-0.1860345 0.39274,-0.4340806 z M 160.65384,8.4070071 q 0.60978,-0.1188554 1.16789,-0.2738842 0.56327,-0.1601965 1.13687,-0.3927397 0.0103,-0.010335 0.0258,0.00517 0.0155,0.010335 0.0103,0.036173 -0.005,0.1188555 -0.0103,0.2067051 -0.005,0.08785 -0.005,0.1912022 0,0.1808669 0.10336,0.2997224 0.10852,0.1188554 0.27905,0.1860345 0.17053,0.062012 0.37723,0.077514 0.21188,0.015503 0.41858,-0.00517 0.21188,-0.02067 0.39791,-0.072347 0.18603,-0.051676 0.30489,-0.124023 0.24805,-0.1498612 0.40307,-0.3772368 0.15503,-0.2273756 0.30489,-0.5736065 0.0207,-0.051676 0.0568,-0.077514 0.0413,-0.031006 0.0775,-0.031006 0.0362,0 0.0568,0.031006 0.0207,0.031006 0.005,0.098185 -0.0258,0.1343583 -0.062,0.248046 -0.0362,0.1136878 -0.093,0.2687166 0.031,0.098185 0.16536,0.2118727 0.13953,0.1085202 0.33073,0.1912022 0.1912,0.077514 0.40307,0.1033526 0.21704,0.025838 0.40308,-0.051676 0,-0.1963698 -0.0207,-0.3720691 -0.0207,-0.180867 -0.10336,-0.3824044 0.062,-0.1550288 0.13953,-0.3255605 0.0827,-0.1756993 0.1757,-0.3255605 0.0362,-0.051676 0.062,-0.010335 0.13436,0.3617338 0.13436,0.7286353 0.005,0.3617339 -0.0775,0.7183002 -0.0207,0.093017 -0.0672,0.2170403 -0.0465,0.124023 -0.11886,0.2428784 -0.0724,0.1136878 -0.17053,0.2067051 -0.093,0.08785 -0.21704,0.1188554 -0.1912,0.046509 -0.39274,0.020671 -0.19637,-0.031006 -0.38241,-0.1136878 -0.18086,-0.082682 -0.34106,-0.2118727 -0.1602,-0.1343583 -0.26872,-0.2893871 -0.12919,0.2170404 -0.33072,0.3720692 -0.20154,0.1498611 -0.44959,0.2428784 -0.2067,0.077514 -0.42891,0.1085202 -0.21704,0.025838 -0.42891,0 -0.20671,-0.025838 -0.39274,-0.1085202 -0.18087,-0.082682 -0.31523,-0.2273755 -0.10852,-0.1188555 -0.1757,-0.2893871 -0.0672,-0.1756994 -0.0827,-0.3410634 -0.21704,0.082682 -0.41341,0.1498612 -0.1912,0.067179 -0.3824,0.124023 -0.19121,0.056844 -0.39274,0.1085202 -0.19637,0.051676 -0.41858,0.1033525 -0.14986,1.1007047 -0.5271,1.9275247 -0.26872,0.594277 -0.69763,0.904335 -0.42374,0.310058 -1.03352,0.39274 -0.39274,0.05168 -0.80615,0.0052 -0.41341,-0.04651 -0.78548,-0.160196 -0.12403,-0.03617 -0.1602,-0.08268 -0.0413,-0.04651 -0.0258,-0.08785 0.0155,-0.03617 0.0724,-0.06201 0.0517,-0.02067 0.11369,-0.02067 0.25838,0.01033 0.45475,0.0052 0.19637,-0.0052 0.3669,-0.03101 0.1757,-0.02584 0.34106,-0.07751 0.17053,-0.05168 0.37207,-0.134359 0.34623,-0.144693 0.65629,-0.403075 0.31006,-0.258381 0.56327,-0.594277 0.25838,-0.330728 0.45475,-0.7234677 0.19637,-0.387572 0.3204,-0.7958145 l -0.22738,0.056844 q -0.0103,0.00517 -0.0258,-0.00517 -0.0155,-0.015503 -0.0103,-0.036173 0.031,-0.1498612 0.062,-0.3358957 0.0362,-0.1860346 0.0672,-0.3152253 0.0103,-0.056844 0.0568,-0.067179 z m 5.26581,-1.8861838 q -0.031,0.036173 -0.0465,0.036173 -0.0155,0 -0.0517,-0.025838 l -0.60978,-0.4805893 -0.39791,0.552936 q -0.0362,0.046509 -0.0775,0.010335 l -0.65111,-0.4960916 q -0.0362,-0.031006 -0.0103,-0.067179 l 0.41341,-0.5891095 q 0.0258,-0.031006 0.0362,-0.025838 0.0155,0 0.0362,0.015503 l 0.61494,0.470254 0.41858,-0.5374332 q 0.031,-0.041341 0.062,-0.020671 l 0.65113,0.5426008 q 0.031,0.031006 0,0.072347 z m -0.97668,-2.1807385 0.63562,0.5219303 q 0.0413,0.031006 0.005,0.072347 L 165.15984,5.46146 q -0.0362,0.046509 -0.0827,0.010335 l -0.64079,-0.5167627 q -0.0413,-0.036173 0,-0.08785 l 0.42892,-0.5167626 q 0.0362,-0.046509 0.0775,-0.010335 z M 163.8526,3.477091 q 0.17053,-0.098185 0.3359,-0.1963698 0.16536,-0.098185 0.32039,-0.2118727 0.1602,-0.1136878 0.31522,-0.2480461 0.15503,-0.1343583 0.29973,-0.30489 -0.13953,-0.041341 -0.29456,-0.1395259 -0.15503,-0.098185 -0.24804,-0.2118727 -0.0465,-0.056844 -0.0568,-0.1446936 -0.0103,-0.093017 0.0155,-0.1705317 0.0413,-0.124023 0.11368,-0.2687165 0.0775,-0.1446936 0.18087,-0.263549 0.10335,-0.1188554 0.22738,-0.1912022 0.12919,-0.077514 0.25838,-0.072347 0.16019,0.010335 0.23254,0.1550288 0.0724,0.1395259 0.0879,0.3255605 0.0207,0.1860346 0,0.3669015 -0.0155,0.1808669 -0.0258,0.263549 0,0.025838 0.0155,0.041341 0.062,0.036173 0.0827,0.067179 0.0258,0.031006 0.0413,0.072347 0.031,0.077514 0.0103,0.1860346 -0.0155,0.1085201 -0.062,0.165364 -0.0413,0.051676 -0.0724,0.051676 -0.031,-0.00517 -0.062,-0.051676 -0.0258,-0.031006 -0.0517,-0.056844 -0.0207,-0.031006 -0.0672,-0.051676 -0.1447,0.1756993 -0.31006,0.3358957 -0.1602,0.1601964 -0.34106,0.2945547 -0.18604,0.1291907 -0.38758,0.2325432 -0.20153,0.1033526 -0.42374,0.1705317 -0.0878,0.025838 -0.18087,0.036173 -0.093,0.00517 -0.10335,-0.020671 -0.0103,-0.031006 0.0362,-0.072347 0.0465,-0.046509 0.11369,-0.08785 z m 0.97151,-1.7363226 q 0.10853,0.1498612 0.25839,0.2377108 0.14986,0.082682 0.27388,0.1136878 h 0.0103 q 0,-0.041341 0.005,-0.1085202 0.005,-0.072347 0,-0.1446935 0,-0.072347 -0.0207,-0.1395259 -0.0155,-0.067179 -0.062,-0.1136878 -0.0413,-0.036173 -0.11885,-0.031006 -0.0724,0 -0.1447,0.025838 -0.0723,0.025838 -0.13436,0.072347 -0.0568,0.041341 -0.0672,0.08785 z m -4.03074,2.7750158 q -0.25839,0.1188554 -0.5426,0.248046 -0.27906,0.1291907 -0.54261,0.2480461 -0.26354,0.1188554 -0.49092,0.222208 -0.22738,0.1033525 -0.38757,0.1705317 -0.0362,0.015503 -0.0517,0 -0.0155,-0.015503 0,-0.046509 l 0.25322,-0.5064274 q 0.0258,-0.041341 0.0517,-0.056844 0.031,-0.020671 0.0568,-0.036173 l 1.88618,-0.8371555 q 0.0827,-0.036173 0.0517,0.041341 l -0.21188,0.4805893 q -0.0155,0.046509 -0.0723,0.072347 z m -4.13927,6.8626078 q -0.0207,0.02584 -0.0413,0.02584 -0.0207,0 -0.0465,-0.0155 l -0.58394,-0.39274 -0.29973,0.52193 q -0.0465,0.05168 -0.0775,0.02067 l -0.62012,-0.41341 q -0.031,-0.0155 -0.0155,-0.05168 l 0.32556,-0.52193 q 0.0362,-0.04651 0.0724,-0.02584 l 0.58394,0.392739 0.31523,-0.516762 q 0.0155,-0.0155 0.0568,-0.01033 l 0.62011,0.403074 q 0.0362,0.02584 0.0103,0.07235 z m -0.093,-4.6715341 q 0.0103,-0.041341 0.0362,-0.041341 0.0258,-0.00517 0.0879,0.051676 0.13953,0.1446936 0.25838,0.3152253 0.12403,0.1705316 0.21704,0.3565662 0.093,0.1860346 0.1447,0.3824044 0.0568,0.1963698 0.062,0.3927396 0,0.08785 -0.0155,0.2015375 -0.0103,0.1085201 -0.0362,0.2222079 -0.0207,0.1085202 -0.0568,0.2118727 -0.031,0.098185 -0.0775,0.1653641 -0.0827,0.124023 -0.24288,0.2170403 -0.15503,0.093017 -0.3514,0.1601964 -0.19637,0.062012 -0.41858,0.1033526 -0.22221,0.041341 -0.43925,0.067179 -0.21704,0.02067 -0.41858,0.031006 -0.19637,0.00517 -0.34106,0.00517 h -0.093 q -0.16536,0 -0.24287,-0.124023 -0.0827,-0.1291907 -0.0827,-0.2790519 0,-0.1550288 0.0827,-0.2790518 0.0775,-0.1291907 0.24287,-0.1291907 h 0.093 q 0.0827,0 0.23254,0 0.15503,-0.00517 0.34624,-0.010335 0.1912,-0.010335 0.3979,-0.02067 0.21188,-0.015503 0.40825,-0.041341 0.19636,-0.025838 0.35656,-0.062011 0.1602,-0.036173 0.25321,-0.08785 0.0879,-0.046509 0.062,-0.1343583 -0.0878,-0.2842194 -0.26355,-0.5012597 -0.17053,-0.222208 -0.38757,-0.4392483 0.0413,-0.180867 0.0879,-0.3669015 0.0517,-0.1860346 0.0982,-0.3669015 z m -1.0542,-3.1109114 q 0,0.08785 0.0465,0.1395259 0.0517,0.046509 0.11886,0.072347 0.0672,0.025838 0.14469,0.031006 0.0827,0.00517 0.1447,0.00517 0.14469,0 0.26871,-0.062012 0.12919,-0.062012 0.23255,-0.1601964 0.0103,-0.093017 -0.0207,-0.1963698 -0.031,-0.1033525 -0.0982,-0.1860346 -0.0672,-0.082682 -0.16536,-0.1291906 -0.0982,-0.051676 -0.22738,-0.041341 -0.0775,0.020671 -0.15503,0.077514 -0.0775,0.051676 -0.14469,0.1240231 -0.062,0.072347 -0.10335,0.1601964 -0.0413,0.082682 -0.0413,0.1653641 z m 1.20923,-0.1343583 q 0,0.1756993 -0.0465,0.3410633 -0.0465,0.1653641 -0.14469,0.2945548 -0.0982,0.1291906 -0.25322,0.206705 -0.14986,0.077514 -0.36173,0.077514 -0.26355,0 -0.44442,-0.1705316 -0.18086,-0.1705317 -0.1912,-0.4547512 0,-0.1446935 0.0413,-0.346231 0.0465,-0.2067051 0.13953,-0.3979073 0.093,-0.1912021 0.23771,-0.3307281 0.14986,-0.1446935 0.35657,-0.1705317 0.19637,-0.020671 0.32556,0.077514 0.12919,0.098185 0.2067,0.248046 0.0724,0.1550288 0.10335,0.3307282 0.031,0.1705316 0.031,0.2945547 z m -4.03592,4.8730721 q -0.12919,-0.010335 -0.28938,0.067179 -0.15503,0.072347 -0.25839,0.165364 -0.0517,0.046509 0.005,0.077514 0.11369,0.072347 0.27905,0.1446936 0.17054,0.067179 0.3359,0.1136878 0.17053,0.051676 0.31522,0.072347 0.1447,0.02067 0.21188,-0.00517 -0.062,-0.124023 -0.15503,-0.2377108 -0.093,-0.1136878 -0.18604,-0.2015375 -0.093,-0.08785 -0.16536,-0.1395259 -0.0724,-0.056844 -0.093,-0.056844 z m 0.11369,-0.5684389 q 0.093,0 0.1757,0.056844 0.0827,0.056844 0.17053,0.1446935 0.0879,0.08785 0.18087,0.1963698 0.0982,0.1033526 0.2067,0.1963698 0.1447,0.1240231 0.31006,0.2015375 0.17053,0.072347 0.35657,0.1136878 0.18603,0.036173 0.3824,0.051676 0.19637,0.010335 0.39274,0.010335 h 0.093 q 0.16019,0 0.24288,0.1291907 0.0827,0.124023 0.0827,0.2790518 0,0.1498612 -0.0827,0.2790519 -0.0827,0.124023 -0.24288,0.124023 h -0.093 q -0.11369,0 -0.25321,0 -0.13953,-0.00517 -0.29456,-0.015503 -0.16019,-0.010335 -0.33589,-0.031006 -0.17053,-0.025838 -0.35657,-0.072347 -0.0155,0.1395259 -0.0362,0.2480461 -0.0207,0.1085201 -0.0827,0.1291906 -0.19637,0.041341 -0.48059,0.010335 -0.27906,-0.031006 -0.55294,-0.1291907 -0.27388,-0.098185 -0.49609,-0.2273756 -0.21704,-0.1291906 -0.28939,-0.2583813 -0.10335,0.041341 -0.21704,0.1188554 -0.11369,0.077514 -0.21187,0.180867 -0.093,0.098185 -0.1602,0.2170403 -0.062,0.124023 -0.062,0.2480459 0,0.1963701 0.0362,0.5115951 0.0413,0.315225 0.0982,0.661456 0.0517,0.351399 0.10852,0.692462 0.062,0.341064 0.0982,0.58911 0.0362,0.21704 0.0672,0.475422 0.031,0.263549 0.0465,0.516762 0.0155,0.258382 0.005,0.48059 -0.005,0.227375 -0.0517,0.366901 -0.0207,0.06201 -0.062,0.06201 -0.0413,0.0052 -0.062,-0.06201 -0.031,-0.103353 -0.0413,-0.206705 -0.0103,-0.103353 -0.031,-0.206705 -0.0155,-0.09302 -0.0568,-0.39274 -0.0413,-0.299722 -0.11886,-0.800982 -0.0723,-0.475422 -0.13952,-0.868161 -0.062,-0.387572 -0.11369,-0.69763 -0.0517,-0.310057 -0.0827,-0.542601 -0.031,-0.232543 -0.0413,-0.397907 -0.0258,-0.470254 0.0982,-0.8061498 0.12919,-0.3410633 0.37724,-0.5736065 0.093,-0.08785 0.29455,-0.2532138 0.20154,-0.1705316 0.42892,-0.3358957 0.22737,-0.1653641 0.44441,-0.2893871 0.22221,-0.124023 0.3514,-0.124023 z"
         id="text23"
         style="font-size:10.5833px;line-height:1.25;font-family:'KFGQPC Uthmanic Script HAFS';-inkscape-font-specification:'KFGQPC Uthmanic Script HAFS';direction:rtl;stroke-width:0.264583"
         aria-label="     " />
    </g>
  </g>
</svg>
