<?xml version="1.0" encoding="UTF-8" standalone="no"?>
<!-- Created with Inkscape (http://www.inkscape.org/) -->

<svg
   width="116.6467mm"
   height="15.624371mm"
   viewBox="0 0 116.6467 15.62437"
   version="1.1"
   id="svg1"
   xmlns="http://www.w3.org/2000/svg"
   xmlns:svg="http://www.w3.org/2000/svg">
  <defs
     id="defs1" />
  <g
     id="layer1"
     transform="translate(-12.320413)">
    <g
       id="g1">
      <path
         d="m 127.57156,3.0292924 q 0.0827,0.00517 0.0775,0.1912022 -0.0103,0.1963699 0.005,0.387572 0.0155,0.1860346 0.0413,0.3772368 0.0517,0.4599188 0.12403,0.9508433 0.0723,0.4857569 0.14469,0.9818491 0.0672,0.4909246 0.13436,0.9818491 0.0672,0.4909245 0.11369,0.956011 0.0207,0.1808669 0.0258,0.4237454 0.0103,0.2428784 -0.005,0.4960921 -0.0103,0.2480461 -0.0568,0.4805893 -0.0413,0.2325432 -0.11885,0.387572 -0.0413,0.08785 -0.0982,0.1136878 -0.0465,0.00517 -0.0413,-0.041341 -0.031,-0.4495835 -0.0775,-0.9043347 -0.0413,-0.4599188 -0.10852,-0.9353404 -0.0672,-0.4909246 -0.13436,-0.9715139 -0.0672,-0.4805893 -0.12919,-0.9611785 -0.0672,-0.4805893 -0.13436,-0.9611786 -0.062,-0.4805893 -0.12402,-0.9663462 0.0155,-0.1188555 0.0465,-0.2428785 0.031,-0.1291907 0.0878,-0.263549 0.12403,-0.3358957 0.16537,-0.4082425 0.0465,-0.072347 0.062,-0.072347 z m -2.21691,-0.2893871 q 0.0155,-0.046509 0.0413,-0.056844 0.0258,-0.010335 0.0413,0.056844 0.0413,0.1240231 0.093,0.2532138 0.0517,0.1291906 0.11885,0.2532137 0.0724,0.124023 0.16537,0.2325432 0.093,0.1033525 0.21187,0.1756993 -0.0724,0.124023 -0.12919,0.2170403 -0.0517,0.08785 -0.0879,0.1653641 -0.0362,0.072347 -0.0517,0.1446935 -0.0155,0.067179 -0.005,0.1446936 0.0568,0.4960921 0.12919,0.9973519 0.0775,0.4960922 0.14469,0.9921844 0.0724,0.4960921 0.12402,0.9921843 0.0569,0.4960922 0.0724,0.997352 0.005,0.165364 -0.0207,0.3358957 -0.0258,0.1705317 -0.0827,0.3255605 -0.0568,0.1550288 -0.1447,0.2945547 -0.0827,0.1343583 -0.1912,0.2273756 -0.14986,0.1291907 -0.37207,0.1860346 -0.21704,0.051676 -0.53226,0.051676 h -0.093 q -0.16536,0 -0.24805,-0.1240231 -0.0879,-0.1291907 -0.0879,-0.2790518 0,-0.1550288 0.0879,-0.2790519 0.0827,-0.1291907 0.24805,-0.1291907 h 0.093 q 0.17053,0 0.33073,-0.010335 0.16019,-0.015503 0.29455,-0.046509 0.13436,-0.036173 0.22738,-0.093017 0.0982,-0.062012 0.13952,-0.1550288 -0.10335,-1.0903693 -0.26871,-2.1497328 -0.16537,-1.0645311 -0.3204,-2.1393975 -0.031,-0.2170403 -0.0672,-0.4237454 -0.031,-0.2118727 -0.14986,-0.4082425 -0.0413,-0.056844 -0.0465,-0.072347 -0.005,-0.020671 0.0258,-0.082682 0.0879,-0.1498611 0.1602,-0.30489 0.0775,-0.1601964 0.14986,-0.2893871 z m -3.37964,5.2503089 q 0.062,-0.1033526 0.12403,-0.098185 0.0672,0.00517 0.0362,0.1240231 -0.0258,0.1085202 -0.0724,0.2273756 -0.0465,0.1136878 -0.10335,0.2480461 0.0362,0.08785 0.1602,0.1756993 0.12919,0.082682 0.28938,0.1446935 0.15503,0.056844 0.31523,0.082682 0.16536,0.025838 0.27388,-0.015503 0.1757,-0.056844 0.28939,-0.3152253 0.11369,-0.2635489 0.19637,-0.552936 0.0413,-0.1550288 0.10852,-0.180867 0.0672,-0.025838 0.0775,0.1136878 0.0207,0.2583814 0.093,0.4444159 0.0724,0.1860346 0.21704,0.2997224 0.27389,0.2273755 0.89917,0.2273755 h 0.093 q 0.16536,0 0.24804,0.1291907 0.0827,0.1291907 0.0827,0.2790519 0,0.1498611 -0.0827,0.2790518 -0.0827,0.1240231 -0.24804,0.1240231 h -0.093 q -0.27388,0 -0.47025,-0.031006 -0.19637,-0.036173 -0.38241,-0.1136878 -0.43408,-0.1860346 -0.65629,-0.6149476 -0.0362,0.082682 -0.093,0.1963698 -0.0568,0.1136878 -0.13436,0.222208 -0.0724,0.1033525 -0.1602,0.1756993 -0.0878,0.072347 -0.18603,0.072347 -0.12919,0 -0.29973,-0.031006 -0.17053,-0.031006 -0.34106,-0.098185 -0.1757,-0.062012 -0.3359,-0.1601964 -0.15502,-0.1033526 -0.26354,-0.2428785 -0.18087,0.2067051 -0.40825,0.346231 -0.2222,0.1343583 -0.47542,0.1756993 -0.25838,0.046509 -0.5426,0 -0.27905,-0.051676 -0.57361,-0.2067051 -0.13435,0.098185 -0.29455,0.1601965 -0.1602,0.062012 -0.31523,0.093017 -0.16019,0.036173 -0.30489,0.046509 -0.14469,0.010335 -0.25321,0.010335 h -0.093 q -0.15503,0 -0.23254,-0.1240231 -0.0775,-0.1291907 -0.0775,-0.2790518 0,-0.1498612 0.0775,-0.2790519 0.0775,-0.1291907 0.23254,-0.1291907 h 0.093 q 0.31006,0 0.57361,-0.02067 0.26355,-0.025838 0.49609,-0.1136877 0.22737,-0.082682 0.42891,-0.2532138 0.20671,-0.1705316 0.39274,-0.4650864 0.0672,-0.1085201 0.11369,-0.093017 0.0517,0.010335 0.031,0.1188555 -0.0362,0.1860345 -0.11886,0.3979072 -0.0827,0.2118727 -0.20154,0.3617339 0.10336,0.031006 0.25322,0.046509 0.15503,0.015503 0.32556,0 0.25321,-0.020671 0.47542,-0.1033525 0.22737,-0.08785 0.40824,-0.263549 0.11369,-0.1033525 0.21187,-0.2377108 0.10336,-0.1395259 0.19637,-0.2997223 z m 0.45475,-1.1627161 q -0.031,0.036173 -0.0465,0.036173 -0.0155,0 -0.0517,-0.025838 l -0.60978,-0.4805893 -0.39791,0.5529361 q -0.0362,0.046509 -0.0775,0.010335 l -0.65112,-0.4960922 q -0.0362,-0.031006 -0.0103,-0.067179 l 0.41341,-0.5891095 q 0.0258,-0.031006 0.0362,-0.025838 0.0155,0 0.0362,0.015503 l 0.61495,0.470254 0.41857,-0.5374332 q 0.031,-0.041341 0.062,-0.02067 l 0.65112,0.5426008 q 0.031,0.031006 0,0.072347 z m -0.97668,-2.1807385 0.63562,0.5219303 q 0.0413,0.031006 0.005,0.072347 l -0.42375,0.5270979 q -0.0362,0.046509 -0.0827,0.010335 l -0.64078,-0.5167627 q -0.0413,-0.036173 0,-0.08785 l 0.42891,-0.5167627 q 0.0362,-0.046509 0.0775,-0.010335 z m 0.0413,-1.4314325 q -0.11369,0.2273756 -0.25838,0.3410633 -0.15503,0.1188555 -0.3669,0.1240231 -0.17053,0.00517 -0.29972,-0.08785 -0.12403,-0.093017 -0.1447,-0.3255605 -0.0103,-0.1033525 0.0103,-0.2118727 0.0207,-0.1136877 0.062,-0.2118727 0.0413,-0.093017 0.093,-0.1601964 0.0568,-0.072347 0.11885,-0.093017 0.062,-0.00517 0.0103,0.093017 -0.031,0.056844 -0.0517,0.1343583 -0.0155,0.077514 -0.0207,0.1550288 0,0.072347 0.0155,0.1240231 0.0155,0.051676 0.0672,0.098185 0.0775,0.056844 0.16537,0.056844 0.0878,-0.00517 0.17053,-0.041341 0.0878,-0.036173 0.15503,-0.082682 0.0723,-0.051676 0.14469,-0.1343583 0.0672,-0.077514 0.0982,-0.1963698 0.031,-0.1188554 0.0413,-0.1963698 0.005,-0.067179 0.0362,-0.1343583 0.031,-0.067179 0.10335,-0.067179 0.0155,0 0.0207,0.031006 0.0103,0.025838 0.0155,0.062012 0.005,0.036173 0.005,0.072347 0,0.031006 0,0.046509 0,0.1498612 0.0465,0.2377109 0.0465,0.082682 0.18604,0.1136878 0.0723,0.015503 0.18603,-0.015503 0.11886,-0.031006 0.20671,-0.1033526 0.0103,-0.010335 0.005,-0.056844 -0.005,-0.046509 -0.0207,-0.098185 -0.0103,-0.051676 -0.0362,-0.1085201 -0.0207,-0.062011 -0.0258,-0.072347 l 0.1912,-0.3617339 q 0.0517,0.025838 0.0775,0.1136878 0.031,0.08785 0.0362,0.2015375 0.0103,0.1085201 0,0.2222079 -0.0103,0.1136878 -0.0258,0.1912022 -0.062,0.1912022 -0.17053,0.346231 -0.10335,0.1550288 -0.32039,0.1963698 -0.1912,0.036173 -0.32039,-0.025838 -0.1292,-0.062011 -0.20671,-0.1756993 z m 0.93017,-2.077386 q -0.25838,0.1188554 -0.5426,0.2480461 -0.27905,0.1291907 -0.5426,0.2480461 -0.26355,0.1188554 -0.49092,0.2222079 -0.22738,0.1033526 -0.38757,0.1705317 -0.0362,0.015503 -0.0517,0 -0.0155,-0.015503 0,-0.046509 l 0.25321,-0.5064275 q 0.0258,-0.041341 0.0517,-0.056844 0.031,-0.020671 0.0568,-0.036173 l 1.88619,-0.83715557 q 0.0827,-0.0361734 0.0517,0.041341 l -0.21187,0.48058927 q -0.0155,0.046509 -0.0724,0.072347 z M 117.53603,11.78842 q -0.0258,0.03101 -0.0413,0.03101 -0.0155,0.0052 -0.0568,-0.02584 l -0.61495,-0.480589 -0.40308,0.552936 q -0.0362,0.04651 -0.0775,0.0155 l -0.65629,-0.506427 q -0.0362,-0.02584 -0.0103,-0.06201 l 0.41858,-0.594277 q 0.0207,-0.03101 0.0362,-0.03101 0.0155,0 0.0362,0.02067 l 0.62011,0.470254 0.42375,-0.542601 q 0.031,-0.04134 0.062,-0.0155 l 0.65629,0.547769 q 0.0362,0.02584 0,0.07235 z m -2.16007,-2.0618832 h -0.093 q -0.15502,0 -0.23254,-0.1240231 -0.0775,-0.1291907 -0.0775,-0.2842195 0,-0.077514 0.0207,-0.1498611 0.0155,-0.072347 0.0568,-0.1291907 0.0362,-0.056844 0.0982,-0.093017 0.0568,-0.036173 0.13435,-0.036173 h 0.093 q 0.1602,0 0.35657,-0.010335 0.20154,-0.010335 0.37724,-0.056844 0.17053,-0.046509 0.33589,-0.139526 0.16537,-0.098185 0.30489,-0.2687165 0.10335,-0.1240231 0.16537,-0.2532138 0.0672,-0.1291906 0.12919,-0.2945547 0.0258,-0.067179 0.0827,-0.072347 0.062,-0.00517 0.0672,0.025838 0.005,0.062011 -0.0103,0.1498612 -0.0103,0.08785 -0.0103,0.1601964 0,0.1343583 0.0672,0.2687166 0.0672,0.1343583 0.2067,0.2428784 0.13953,0.1085202 0.3824,0.180867 0.24805,0.067179 0.55811,0.067179 h 0.0982 q 0.0775,0 0.13436,0.036173 0.0568,0.036173 0.093,0.093017 0.0413,0.056844 0.0568,0.1291907 0.0207,0.072347 0.0207,0.1498611 0,0.1550288 -0.0775,0.2842195 -0.0724,0.1240231 -0.22738,0.1240231 h -0.0982 q -0.27905,0 -0.53227,-0.051676 -0.24804,-0.056844 -0.42374,-0.1653641 -0.34107,-0.206705 -0.53227,-0.6097799 -0.11369,0.2325432 -0.26871,0.387572 -0.15503,0.1550288 -0.34107,0.2532137 -0.1912,0.098185 -0.43408,0.1446935 -0.24288,0.041341 -0.48059,0.041341 z m 0.58911,-5.5655339 q 0,0.08785 0.0465,0.1395259 0.0517,0.046509 0.11886,0.072347 0.0672,0.025838 0.14469,0.031006 0.0827,0.00517 0.1447,0.00517 0.14469,0 0.26871,-0.062012 0.12919,-0.062011 0.23255,-0.1601965 0.0103,-0.093017 -0.0207,-0.1963698 -0.031,-0.1033525 -0.0982,-0.1860345 -0.0672,-0.082682 -0.16536,-0.1291907 -0.0982,-0.051676 -0.22738,-0.041341 -0.0775,0.020671 -0.15503,0.077514 -0.0775,0.051676 -0.14469,0.124023 -0.062,0.072347 -0.10335,0.1601965 -0.0413,0.082682 -0.0413,0.165364 z m 1.20922,-0.1343583 q 0,0.1756993 -0.0465,0.3410634 -0.0465,0.165364 -0.14469,0.2945547 -0.0982,0.1291907 -0.25322,0.2067051 -0.14986,0.077514 -0.36173,0.077514 -0.26355,0 -0.44441,-0.1705317 -0.18087,-0.1705317 -0.19121,-0.4547512 0,-0.1446935 0.0413,-0.346231 0.0465,-0.206705 0.13953,-0.3979072 0.093,-0.1912022 0.23771,-0.3307281 0.14986,-0.1446936 0.35657,-0.1705317 0.19637,-0.020671 0.32556,0.077514 0.12919,0.098185 0.2067,0.2480461 0.0724,0.1550288 0.10336,0.3307281 0.031,0.1705317 0.031,0.2945547 z m -6.09263,2.780183 q 0.21187,-0.010335 0.44441,0.025838 0.23255,0.031006 0.66146,0.1136877 0.42891,0.077514 0.86299,0.093017 0.47026,0.015503 0.9095,0.00517 0.43925,-0.010335 0.90951,-0.051676 0.0207,-0.00517 0.031,0 0.0103,0.00517 0.005,0.031006 -0.0672,0.2015375 -0.14986,0.3979073 -0.0775,0.1963698 -0.1757,0.3824044 -0.23254,0.025838 -0.46509,0.062011 -0.23254,0.031006 -0.45992,0.077514 -0.0465,0.3772368 0.0827,0.5787742 0.13435,0.1963698 0.3824,0.2842195 0.24805,0.08785 0.57361,0.098185 0.33073,0.010335 0.68212,0.010335 0.0258,0 0.0465,0 0.0207,0 0.0465,0 0.15503,0 0.23254,0.1291907 0.0827,0.1240231 0.0827,0.2738842 0,0.1550288 -0.0827,0.2842195 -0.0775,0.1240231 -0.23254,0.1240231 -0.0258,0 -0.0465,0 -0.0207,0 -0.0465,0 -0.5736,0.010335 -1.02319,-0.056844 -0.44958,-0.072347 -0.7183,-0.3152253 -0.21187,-0.1912022 -0.29972,-0.511595 -0.0827,-0.3255605 -0.0207,-0.8268203 -0.45475,0.1085202 -0.8785,0.2893871 -0.42374,0.1756993 -0.78031,0.4599188 -0.31005,0.2480461 -0.5581,0.5581037 -0.24288,0.3100576 -0.41341,0.6666238 -0.16536,0.356566 -0.25321,0.73897 -0.0878,0.387572 -0.0878,0.78548 0,0.43408 0.16536,0.84749 0.17053,0.418578 0.44958,0.764809 0.27906,0.351399 0.63562,0.604613 0.36174,0.258381 0.74414,0.366901 0.50126,0.144694 1.02836,0.191202 0.53226,0.05168 0.98701,0.03617 0.50126,-0.0155 1.02836,-0.06201 0.5271,-0.04651 1.02836,-0.04651 0.062,0 0.0672,0.03101 0.005,0.03617 -0.062,0.113688 -0.0672,0.07751 -0.13953,0.08785 -0.31006,0.04651 -0.59944,0.139526 -0.28422,0.09818 -0.56327,0.196369 -0.27906,0.103353 -0.56844,0.186035 -0.28422,0.08785 -0.59428,0.10852 -0.75447,0.05168 -1.47794,-0.118855 -0.7183,-0.170532 -1.28157,-0.583942 -0.56327,-0.408243 -0.90951,-1.064531 -0.34623,-0.651121 -0.34623,-1.555456 0,-0.594277 0.15503,-1.193722 0.15503,-0.5942765 0.43925,-1.126542 0.28939,-0.5374332 0.69246,-0.9715139 0.40824,-0.4392483 0.90434,-0.7131325 0.0207,-0.015503 -0.0103,-0.025838 -0.031,-0.010335 -0.0672,-0.015503 -0.23771,-0.025838 -0.51159,-0.046509 -0.26872,-0.025838 -0.53744,-0.00517 -0.26354,0.02067 -0.49609,0.1033526 -0.23254,0.077514 -0.38757,0.2583813 -0.031,0.036173 -0.0672,0.031006 -0.031,-0.00517 -0.0207,-0.072347 0.031,-0.2377108 0.10852,-0.4495835 0.0827,-0.2118727 0.21187,-0.3669015 0.12919,-0.1601965 0.31006,-0.2532137 0.18087,-0.098185 0.42375,-0.1033526 z m 1.08003,-2.1342298 0.63562,0.5270979 q 0.0413,0.036173 0.005,0.082682 l -0.42375,0.5322656 q -0.0362,0.051676 -0.0827,0.010335 l -0.64079,-0.5270979 q -0.0413,-0.036173 0,-0.08785 l 0.42892,-0.5270979 q 0.0362,-0.046509 0.0775,-0.010335 z m -1.1317,-0.6304504 q 0.17053,-0.098185 0.3359,-0.1963698 0.16536,-0.098185 0.32039,-0.2118727 0.1602,-0.1136878 0.31523,-0.2480461 0.15502,-0.1343583 0.29972,-0.30489 -0.13953,-0.041341 -0.29456,-0.1395259 -0.15503,-0.098185 -0.24804,-0.2118727 -0.0465,-0.056844 -0.0568,-0.1446935 -0.0103,-0.093017 0.0155,-0.1705317 0.0413,-0.1240231 0.11368,-0.2687166 0.0775,-0.1446936 0.18087,-0.263549 0.10335,-0.1188554 0.22738,-0.1912022 0.12919,-0.077514 0.25838,-0.072347 0.16019,0.010335 0.23254,0.1550288 0.0724,0.1395259 0.0878,0.3255604 0.0207,0.1860346 0,0.3669016 -0.0155,0.1808669 -0.0258,0.2635489 0,0.025838 0.0155,0.041341 0.062,0.036173 0.0827,0.067179 0.0258,0.031006 0.0413,0.072347 0.031,0.077514 0.0103,0.1860345 -0.0155,0.1085202 -0.062,0.1653641 -0.0413,0.051676 -0.0723,0.051676 -0.031,-0.00517 -0.062,-0.051676 -0.0258,-0.031006 -0.0517,-0.056844 -0.0207,-0.031006 -0.0672,-0.051676 -0.1447,0.1756993 -0.31006,0.3358958 -0.1602,0.1601964 -0.34106,0.2945547 -0.18604,0.1291906 -0.38757,0.2325432 -0.20154,0.1033525 -0.42375,0.1705317 -0.0879,0.025838 -0.18087,0.036173 -0.093,0.00517 -0.10335,-0.020671 -0.0103,-0.031006 0.0362,-0.072347 0.0465,-0.046509 0.11369,-0.08785 z m 0.97152,-1.7363226 q 0.10852,0.1498612 0.25838,0.2377109 0.14986,0.082682 0.27388,0.1136877 h 0.0103 q 0,-0.041341 0.005,-0.1085201 0.005,-0.072347 0,-0.1446936 0,-0.072347 -0.0207,-0.1395259 -0.0155,-0.067179 -0.062,-0.1136878 -0.0413,-0.036173 -0.11885,-0.031006 -0.0724,0 -0.1447,0.025838 -0.0723,0.025838 -0.13436,0.072347 -0.0568,0.041341 -0.0672,0.08785 z m -5.03328,5.5138577 q -0.0207,0.046509 -0.0672,0.1395259 -0.0465,0.08785 -0.10336,0.1860346 -0.0517,0.098185 -0.10852,0.1912021 -0.0568,0.08785 -0.0982,0.139526 -0.031,0.056844 -0.14986,0.031006 -0.54777,-0.1033525 -1.02319,-0.056844 -0.47542,0.046509 -0.94568,0.1963699 -0.40824,0.1343583 -0.77514,0.2997223 -0.3669,0.1601964 -0.72347,0.2842195 -0.68213,0.2480461 -1.32291,0.3720691 -0.63562,0.1240231 -1.31775,0.1240231 h -0.093 q -0.16537,0 -0.24805,-0.1240231 -0.08268,-0.1291907 -0.08268,-0.2842195 0,-0.1550288 0.08268,-0.2790518 0.08268,-0.1291907 0.24805,-0.1291907 h 0.093 q 0.23771,0 0.4961,-0.010335 0.25838,-0.010335 0.50642,-0.031006 0.24805,-0.02067 0.47026,-0.046509 0.22221,-0.031006 0.39274,-0.067179 0.35656,-0.077514 0.7493,-0.2170403 0.39791,-0.1446936 0.83716,-0.3255605 -0.25322,-0.036173 -0.58911,-0.08785 -0.3359,-0.056844 -0.69246,-0.1085202 -0.35657,-0.056844 -0.69763,-0.1033525 -0.34107,-0.046509 -0.59945,-0.072347 -0.0362,-0.010335 -0.10335,0.010335 -0.0672,0.020671 -0.13436,0.046509 -0.031,0.010335 -0.062,-0.010335 -0.031,-0.02067 -0.0207,-0.067179 0.062,-0.222208 0.18087,-0.4495836 0.11885,-0.2273755 0.2222,-0.387572 0.0465,-0.067179 0.23255,-0.1550288 0.1912,-0.093017 0.45475,-0.206705 0.26872,-0.1188555 0.57877,-0.263549 0.31006,-0.1446936 0.60462,-0.3152252 0.29455,-0.1756994 0.53743,-0.3824044 0.24288,-0.2118727 0.37207,-0.4547512 0.10335,-0.1963698 0.22737,-0.4392483 0.12403,-0.2428784 0.26872,-0.4495835 0.14986,-0.2118727 0.31523,-0.346231 0.17053,-0.1395259 0.3669,-0.1291906 0.1757,0.010335 0.33589,0.1860345 0.1602,0.1756993 0.28422,0.4185778 0.12402,0.2428784 0.19637,0.5064274 0.0724,0.263549 0.0724,0.4444159 0,0.093017 -0.0362,0.2170403 -0.0362,0.1240231 -0.0879,0.2377109 -0.0465,0.1085201 -0.10336,0.1963698 -0.0568,0.082682 -0.0982,0.098185 -0.10852,0.041341 -0.29972,0.031006 -0.18604,-0.010335 -0.41341,-0.067179 -0.22221,-0.062012 -0.45476,-0.1705317 -0.23254,-0.1136878 -0.42374,-0.2790518 -0.45475,0.5942771 -0.97668,0.9405081 -0.52193,0.3462309 -1.14722,0.5270979 0.37724,0.067179 0.70797,0.1291907 0.33073,0.056844 0.64078,0.1136877 0.31523,0.051676 0.62529,0.098185 0.31522,0.046509 0.65629,0.08785 0.53226,0.062012 1.1007,0.1188554 0.56844,0.051676 1.10071,0.072347 0.0775,0.00517 0.0413,0.072347 z m -1.31258,-2.3719407 q -0.031,-0.077514 -0.093,-0.2170403 -0.062,-0.139526 -0.14986,-0.2790519 -0.0827,-0.1395259 -0.1912,-0.2377108 -0.10335,-0.1033526 -0.22221,-0.1033526 -0.0517,0 -0.12919,0.051676 -0.0724,0.046509 -0.14469,0.1188554 -0.0724,0.067179 -0.12919,0.1395259 -0.0568,0.067179 -0.0775,0.1136878 0.24805,0.2170404 0.5271,0.3100576 0.28422,0.093017 0.60978,0.1033526 z m 0.0568,-3.3382867 q -0.25838,0.1188554 -0.5426,0.2480461 -0.27905,0.1291907 -0.5426,0.2480461 -0.26355,0.1188554 -0.49093,0.2222079 -0.22737,0.1033526 -0.38757,0.1705317 -0.0362,0.015503 -0.0517,0 -0.0155,-0.015503 0,-0.046509 l 0.25321,-0.5064274 q 0.0258,-0.041341 0.0517,-0.056844 0.031,-0.020671 0.0568,-0.036173 l 1.88618,-0.8371556 q 0.0827,-0.036173 0.0517,0.041341 l -0.21187,0.4805893 q -0.0155,0.046509 -0.0724,0.072347 z m -4.79038,0.759641 q 0,0.08785 0.0465,0.1395259 0.0517,0.046509 0.11886,0.072347 0.0672,0.025838 0.14469,0.031006 0.0827,0.00517 0.1447,0.00517 0.14469,0 0.26871,-0.062012 0.12919,-0.062012 0.23255,-0.1601964 0.0103,-0.093017 -0.0207,-0.1963698 -0.031,-0.1033525 -0.0982,-0.1860346 -0.0672,-0.082682 -0.16536,-0.1291906 -0.0982,-0.051676 -0.22738,-0.041341 -0.0775,0.020671 -0.15503,0.077514 -0.0775,0.051676 -0.14469,0.1240231 -0.062,0.072347 -0.10335,0.1601964 -0.0413,0.082682 -0.0413,0.1653641 z m 1.20922,-0.1343583 q 0,0.1756993 -0.0465,0.3410633 -0.0465,0.1653641 -0.14469,0.2945548 -0.0982,0.1291906 -0.25322,0.206705 -0.14986,0.077514 -0.36173,0.077514 -0.26355,0 -0.44442,-0.1705316 -0.18086,-0.1705317 -0.1912,-0.4547512 0,-0.1446935 0.0413,-0.346231 0.0465,-0.2067051 0.13953,-0.3979072 0.093,-0.1912022 0.23771,-0.3307282 0.14986,-0.1446935 0.35657,-0.1705316 0.19637,-0.020671 0.32556,0.077514 0.12919,0.098185 0.2067,0.248046 0.0724,0.1550288 0.10335,0.3307282 0.031,0.1705316 0.031,0.2945547 z m -3.44681,6.2838341 q 0.0155,0.00517 0.03101,0 0.0155,-0.010335 -0.01034,-0.046509 -0.08785,-0.098185 -0.149861,-0.2015374 -0.06201,-0.1085202 -0.10852,-0.2015374 -0.04651,-0.093017 -0.07751,-0.1653641 -0.03101,-0.072347 -0.05168,-0.1136878 -0.05168,-0.093017 -0.134358,-0.077514 -0.09302,0.020671 -0.227376,0.1085202 -0.134358,0.08785 -0.222207,0.206705 -0.03101,0.036173 -0.03101,0.051676 0,0.015503 0.04134,0.041341 0.08268,0.062012 0.201537,0.1291907 0.118856,0.067179 0.248046,0.124023 0.129191,0.051676 0.258382,0.093017 0.12919,0.041341 0.232543,0.051676 z m 0.511595,0.4805893 q -0.04651,0.1085201 -0.103353,0.2325432 -0.05168,0.1291906 -0.09818,0.1446935 -0.170531,0.031006 -0.439248,-0.025838 -0.268716,-0.051676 -0.532265,-0.1601964 -0.263549,-0.1085202 -0.465087,-0.2583814 -0.19637,-0.1498612 -0.21704,-0.3152252 -0.139526,0.1860346 -0.299722,0.30489 -0.155029,0.1136878 -0.315226,0.1860345 -0.165364,0.067179 -0.32556,0.093017 -0.155029,0.025838 -0.294555,0.025838 h -0.09302 q -0.165364,0 -0.248046,-0.1240231 -0.08268,-0.1291907 -0.08268,-0.2790518 0,-0.1550288 0.08268,-0.2790519 0.08268,-0.1291907 0.248046,-0.1291907 h 0.09302 q 0.191202,0 0.382404,-0.010335 0.191203,-0.010335 0.37207,-0.062012 0.180867,-0.051676 0.351398,-0.1601965 0.170532,-0.1136877 0.320393,-0.3152252 0.08268,-0.1085202 0.180867,-0.2170403 0.09819,-0.1136878 0.19637,-0.2015375 0.103352,-0.08785 0.206705,-0.1395259 0.103352,-0.056844 0.19637,-0.056844 0.09302,0 0.201537,0.08785 0.10852,0.08785 0.21704,0.206705 0.113688,0.1136878 0.211873,0.2377109 0.103353,0.124023 0.175699,0.1912022 0.124024,0.1291906 0.263549,0.2118727 0.139526,0.082682 0.289388,0.1343583 0.149861,0.051676 0.315225,0.072347 0.165363,0.02067 0.346223,0.02067 h 0.093 q 0.1602,0 0.24288,0.1291907 0.0827,0.1240231 0.0827,0.2790519 0,0.1498611 -0.0827,0.2790518 -0.0827,0.1240231 -0.24288,0.1240231 h -0.093 q -0.14986,0 -0.29972,-0.00517 -0.149856,-0.00517 -0.294549,-0.031006 -0.144694,-0.020671 -0.28422,-0.067179 -0.134358,-0.046509 -0.258381,-0.124023 z M 96.922364,5.2048633 q 0.170531,-0.098185 0.335895,-0.1963698 0.165365,-0.098185 0.320393,-0.2118727 0.160197,-0.1136878 0.315226,-0.2480461 0.155028,-0.1343583 0.299722,-0.30489 -0.139526,-0.041341 -0.294555,-0.1395259 -0.155029,-0.098185 -0.248046,-0.2118727 -0.04651,-0.056844 -0.05684,-0.1446935 -0.01033,-0.093017 0.0155,-0.1705317 0.04134,-0.124023 0.113688,-0.2687166 0.07751,-0.1446935 0.180867,-0.263549 0.103352,-0.1188554 0.227375,-0.1912022 0.129191,-0.077514 0.258382,-0.072347 0.160196,0.010335 0.232543,0.1550288 0.07235,0.1395259 0.08785,0.3255605 0.02067,0.1860345 0,0.3669015 -0.0155,0.1808669 -0.02584,0.2635489 0,0.025838 0.0155,0.041341 0.06201,0.036173 0.08268,0.067179 0.02584,0.031006 0.04134,0.072347 0.03101,0.077514 0.01034,0.1860345 -0.0155,0.1085202 -0.06201,0.1653641 -0.04134,0.051676 -0.07235,0.051676 -0.03101,-0.00517 -0.06201,-0.051676 -0.02584,-0.031006 -0.05168,-0.056844 -0.02067,-0.031006 -0.06718,-0.051676 -0.144693,0.1756993 -0.310057,0.3358958 -0.160197,0.1601964 -0.341064,0.2945547 -0.186034,0.1291907 -0.387572,0.2325432 -0.201537,0.1033525 -0.423745,0.1705317 -0.08785,0.025838 -0.180867,0.036173 -0.09302,0.00517 -0.103352,-0.02067 -0.01034,-0.031006 0.03617,-0.072347 0.04651,-0.046509 0.113688,-0.08785 z m 0.971514,-1.7363226 q 0.10852,0.1498612 0.258381,0.2377109 0.149861,0.082682 0.273884,0.1136878 h 0.01033 q 0,-0.041341 0.0052,-0.1085202 0.0052,-0.072347 0,-0.1446936 0,-0.072347 -0.02067,-0.1395259 -0.0155,-0.067179 -0.06201,-0.1136878 -0.04134,-0.036173 -0.118855,-0.031006 -0.07235,0 -0.144694,0.025838 -0.07235,0.025838 -0.134358,0.072347 -0.05684,0.041341 -0.06718,0.08785 z m -3.684512,5.3278232 q 0.031,0.067179 0.155028,0.1033526 0.129191,0.036173 0.28422,0.051676 0.155029,0.010335 0.30489,0.00517 0.155029,-0.00517 0.232543,-0.015503 0,-0.02067 -0.05684,-0.1033526 -0.05168,-0.082682 -0.139526,-0.1705316 -0.08785,-0.093017 -0.19637,-0.1653641 -0.103352,-0.077514 -0.206705,-0.08785 -0.05684,0 -0.124023,0.041341 -0.06201,0.036173 -0.118855,0.098185 -0.05684,0.056844 -0.09819,0.124023 -0.03617,0.067179 -0.03617,0.1188554 z m 1.136877,0.9353405 -0.516762,0.010335 q -0.217041,0.010335 -0.41341,-0.041341 -0.191203,-0.056844 -0.335896,-0.165364 -0.139526,-0.1136878 -0.21704,-0.2790519 -0.07235,-0.1705317 -0.04651,-0.387572 0.0155,-0.1446935 0.103352,-0.3565662 0.08785,-0.2118727 0.222208,-0.4082426 0.134359,-0.2015374 0.299723,-0.3410633 0.165364,-0.1446936 0.335895,-0.1446936 0.180867,0 0.335896,0.1498612 0.160197,0.1446936 0.28422,0.346231 0.118855,0.2067051 0.19637,0.4340806 0.07751,0.222208 0.09818,0.3824044 L 96.10588,8.915219 h 0.09818 q 0.07751,0 0.139526,0.036173 0.06201,0.036173 0.103353,0.093017 0.04134,0.056844 0.06201,0.1291907 0.02067,0.072347 0.02067,0.1498612 0.0052,0.1498611 -0.07751,0.2790518 -0.08268,0.1240231 -0.248047,0.1240231 h -0.09818 l -0.434081,0.00517 q -0.09302,0.4392482 -0.21704,0.8629932 -0.118856,0.423745 -0.30489,0.780312 -0.191203,0.356566 -0.465087,0.625283 -0.268716,0.268716 -0.661456,0.392739 -0.258381,0.09302 -0.573607,0.118856 -0.310057,0.02584 -0.635618,0.0052 -0.320393,-0.0155 -0.63045,-0.07235 -0.315225,-0.05684 -0.568439,-0.12919 -0.07235,-0.02067 -0.08785,-0.06201 -0.02067,-0.03617 0,-0.07235 0.0155,-0.03617 0.06718,-0.06201 0.05168,-0.02584 0.124023,-0.02067 0.242879,0.02584 0.527098,0.0052 0.289387,-0.0155 0.578775,-0.07235 0.294554,-0.05168 0.568439,-0.139526 0.273884,-0.08785 0.485756,-0.206705 0.294555,-0.160196 0.521931,-0.382404 0.227375,-0.222208 0.408242,-0.485757 0.180867,-0.263549 0.310058,-0.537433 0.134358,-0.268717 0.227375,-0.5477682 z M 90.132097,6.6414636 90.157935,5.943834 q 0.01034,-0.082682 0.06718,-0.093017 0.06201,-0.010335 0.139526,0.015503 0.351399,0.1085202 0.661456,0.3617339 0.310058,0.2480461 0.552936,0.5736066 0.237711,0.3255605 0.387572,0.692462 0.155029,0.3617339 0.186035,0.6872943 0.01034,0.1240231 0,0.2842195 -0.01033,0.1601964 -0.04651,0.3203929 -0.031,0.1550288 -0.08268,0.2790518 -0.04651,0.1240231 -0.113687,0.1756993 -0.1757,0.139526 -0.439249,0.2377109 -0.263549,0.098185 -0.558103,0.1601964 -0.299723,0.062012 -0.604613,0.08785 -0.30489,0.031006 -0.568439,0.031006 -0.06201,0 -0.155029,-0.010335 -0.08785,-0.00517 -0.175699,-0.031006 -0.08785,-0.031006 -0.155029,-0.082682 -0.06201,-0.051676 -0.06718,-0.1343583 0,-0.041341 0,-0.1601965 0.0052,-0.1188554 0.0155,-0.248046 0.01033,-0.1291907 0.02584,-0.2273756 0.0155,-0.1033526 0.04134,-0.1033526 0.0155,0 0.02584,0.020671 0.0155,0.020671 0.03101,0.036173 0.08785,0.062012 0.211873,0.093017 0.124023,0.031006 0.258381,0.041341 0.139526,0.00517 0.273884,0 0.139526,-0.010335 0.242879,-0.015503 0.180867,-0.010335 0.377237,-0.036173 0.196369,-0.031006 0.377236,-0.072347 0.186035,-0.041341 0.351399,-0.093017 0.165364,-0.056844 0.284219,-0.1188554 0.05168,-0.025838 0.09819,-0.062011 0.04651,-0.041341 0.05684,-0.072347 Q 91.811576,8.2072545 91.641044,7.9075321 91.47568,7.6078098 91.237969,7.3442608 90.995091,7.0858795 90.705703,6.8946773 90.421484,6.6983075 90.132097,6.6414636 Z M 83.228156,8.3054394 Q 83.083462,8.2227574 82.866422,8.1297401 82.654549,8.0367228 82.416839,7.9540408 82.184295,7.8713587 81.95692,7.8093472 q -0.222208,-0.067179 -0.387572,-0.093017 -0.268717,-0.041341 -0.527098,0.031006 -0.253214,0.067179 -0.475422,0.2222079 -0.03101,0.020671 -0.06201,0.00517 -0.03101,-0.015503 -0.02584,-0.056844 0.01033,-0.1291907 0.06718,-0.2687166 0.06201,-0.1395259 0.139526,-0.2480461 0.191202,-0.2532137 0.485757,-0.4030749 0.299722,-0.1498612 0.625282,-0.093017 0.263549,0.051676 0.537434,0.1601965 0.273884,0.1033525 0.552936,0.2377108 0.284219,0.1291907 0.573606,0.263549 0.289387,0.1291906 0.58911,0.2273755 0.439248,0.1446936 0.930172,0.222208 0.490925,0.072347 0.961179,0.036173 0.08268,-0.00517 0.04134,0.072347 l -0.403075,0.7286353 q -0.335896,-0.08785 -0.635618,-0.1188554 -0.299722,-0.031006 -0.599445,-0.00517 -0.268716,0.025838 -0.552936,0.1085201 -0.279052,0.082682 -0.568439,0.1912022 -0.289387,0.1085202 -0.578774,0.222208 -0.289387,0.1136878 -0.573606,0.1963698 -0.454752,0.1343583 -0.919838,0.2067051 -0.465086,0.072347 -0.961179,0.072347 -0.02584,0 -0.04651,0 -0.02584,0 -0.04651,0 -0.165364,0 -0.242878,-0.1240231 -0.08268,-0.1291907 -0.08268,-0.2790518 0,-0.1498612 0.08268,-0.2790519 0.07751,-0.1291907 0.242878,-0.1291907 0.02067,0 0.04651,0 0.02067,0 0.04651,0 0.382405,0.015503 0.769977,-0.02067 0.392739,-0.041341 0.780311,-0.124023 0.387572,-0.082682 0.759642,-0.1963698 0.377236,-0.1188554 0.728635,-0.2687166 z m -0.723468,-3.4674776 0.635618,0.527098 q 0.04134,0.036173 0.0052,0.082682 l -0.423745,0.5322655 q -0.03617,0.051676 -0.08268,0.010335 l -0.64082,-0.5270976 q -0.04134,-0.036173 0,-0.08785 l 0.428913,-0.5270979 q 0.03617,-0.046509 0.07751,-0.010335 z m 0.738969,-1.4366003 q -0.258381,0.1188554 -0.542601,0.2480461 -0.279052,0.1291906 -0.542601,0.248046 -0.263549,0.1188555 -0.490924,0.222208 -0.227376,0.1033525 -0.387572,0.1705317 -0.03617,0.015503 -0.05168,0 -0.0155,-0.015503 0,-0.046509 l 0.253213,-0.5064274 q 0.02584,-0.041341 0.05168,-0.056844 0.031,-0.020671 0.05684,-0.036173 L 83.4762,2.8070844 q 0.08268,-0.036173 0.05168,0.041341 l -0.211873,0.4805893 q -0.0155,0.046509 -0.07235,0.072347 z m -6.531879,5.5138578 h 0.09302 q 0.310058,0 0.604613,-0.041341 0.294554,-0.041341 0.516762,-0.165364 0.222208,-0.1188554 0.335896,-0.3410634 0.118855,-0.2222079 0.07235,-0.5787742 L 77.81765,3.5460551 q -0.0052,-0.062011 0.02584,-0.124023 l 0.263549,-0.5426008 q 0.0155,-0.036173 0.04134,-0.031006 0.02584,0 0.03101,0.031006 l 0.594277,4.7025403 q 0.04134,0.3358958 0.129191,0.5839419 0.08785,0.248046 0.253213,0.4185777 0.160197,0.1653641 0.408243,0.2480461 0.253214,0.082682 0.625283,0.082682 h 0.09302 q 0.165364,0 0.242879,0.1291907 0.08268,0.1240231 0.08268,0.2790519 0,0.1498611 -0.08268,0.2790518 -0.07752,0.1240231 -0.242879,0.1240231 h -0.09302 q -0.222208,0 -0.454751,-0.036173 Q 79.502296,9.6490223 79.290424,9.5198317 79.078551,9.390641 78.897684,9.1477626 78.716817,8.8997165 78.608297,8.4863063 78.499777,8.920387 78.287904,9.1684331 78.076031,9.4164791 77.822818,9.5405022 77.564436,9.6645252 77.29572,9.695531 77.027003,9.726537 76.804795,9.726537 h -0.09302 q -0.165364,0 -0.248046,-0.1240231 -0.08268,-0.1291907 -0.08268,-0.2790518 0,-0.1550288 0.08268,-0.2790519 0.08268,-0.1291907 0.248046,-0.1291907 z m 2.330598,2.4339527 q -0.506427,0.160196 -0.997352,0.32556 -0.490924,0.165364 -0.940508,0.310058 -0.08268,0.02584 -0.04134,-0.05168 l 0.211873,-0.392739 q 0.0155,-0.03101 0.02584,-0.04651 0.0155,-0.0155 0.04651,-0.02584 0.139526,-0.05168 0.366901,-0.129191 0.227376,-0.07235 0.490925,-0.160196 0.268716,-0.08268 0.547768,-0.170532 0.279052,-0.08785 0.532266,-0.165364 0.04134,-0.0155 0.05168,-0.01033 0.01033,0.01033 -0.01034,0.05168 l -0.222208,0.403075 q -0.0155,0.02067 -0.03101,0.03617 -0.01033,0.02067 -0.03101,0.02584 z m -3.090239,0.439248 q -0.02584,0.03101 -0.04134,0.03101 -0.0155,0.0052 -0.05684,-0.02584 l -0.614948,-0.480589 -0.403075,0.552936 q -0.03617,0.04651 -0.07751,0.0155 L 74.102127,11.37501 q -0.03617,-0.02584 -0.01033,-0.06201 l 0.418578,-0.594277 q 0.02067,-0.03101 0.03617,-0.03101 0.0155,0 0.03617,0.02067 l 0.620116,0.470254 0.423745,-0.542601 q 0.03101,-0.04134 0.06201,-0.0155 l 0.656289,0.547769 q 0.03617,0.02584 0,0.07235 z M 73.792069,9.7265368 h -0.09302 q -0.155029,0 -0.232543,-0.1240231 -0.07751,-0.1291907 -0.07751,-0.2842195 0,-0.077514 0.02067,-0.1498611 0.0155,-0.072347 0.05684,-0.1291907 0.03617,-0.056844 0.09819,-0.093017 0.05684,-0.036173 0.134358,-0.036173 h 0.09302 q 0.160197,0 0.356567,-0.010335 0.201537,-0.010335 0.377236,-0.056844 0.170532,-0.046509 0.335896,-0.139526 0.165364,-0.098185 0.30489,-0.2687165 0.103353,-0.1240231 0.165364,-0.2532138 0.06718,-0.1291906 0.129191,-0.2945547 0.02584,-0.067179 0.08268,-0.072347 0.06201,-0.00517 0.06718,0.025838 0.0052,0.062011 -0.01033,0.1498612 -0.01033,0.08785 -0.01033,0.1601964 0,0.1343583 0.06718,0.2687166 0.06718,0.1343583 0.206705,0.2428784 0.139526,0.1085202 0.382404,0.180867 0.248046,0.067179 0.558104,0.067179 h 0.09819 q 0.07751,0 0.134358,0.036173 0.05684,0.036173 0.09302,0.093017 0.04134,0.056844 0.05684,0.1291907 0.02067,0.072347 0.02067,0.1498611 0,0.1550288 -0.07751,0.2842195 -0.07235,0.1240231 -0.227375,0.1240231 h -0.09819 q -0.279052,0 -0.532266,-0.051676 -0.248046,-0.056844 -0.423745,-0.1653641 -0.341063,-0.206705 -0.532266,-0.6097799 -0.113687,0.2325432 -0.268716,0.387572 -0.155029,0.1550288 -0.341064,0.2532137 -0.191202,0.098185 -0.43408,0.1446935 -0.242879,0.041341 -0.48059,0.041341 z m -1.25057,1.2970742 -0.733803,-6.8264349 q 0.05168,-0.1705317 0.124023,-0.3307281 0.07235,-0.1653641 0.149861,-0.3358958 0.02067,-0.036173 0.05168,-0.036173 0.03617,-0.00517 0.04651,0.082682 l 0.465086,3.8912229 q 0.03101,0.3307282 0.09819,0.5994448 0.06718,0.2687165 0.19637,0.4547511 0.12919,0.1912022 0.335896,0.2945547 0.206705,0.098185 0.516762,0.098185 h 0.09302 q 0.165365,0 0.248047,0.1291907 0.08268,0.1240231 0.08268,0.2790519 0,0.1498611 -0.08268,0.2790518 -0.08268,0.1240231 -0.248047,0.1240231 h -0.09302 q -0.320393,0 -0.568439,-0.093017 -0.248046,-0.093017 -0.418577,-0.2842195 0.0155,0.1653641 0.03101,0.3617339 0.0155,0.1912022 0.02584,0.3720694 0.0155,0.186035 0.02067,0.341063 0.0052,0.155029 0,0.242879 -0.04134,0.506427 -0.242879,0.909502 -0.196369,0.403075 -0.52193,0.687294 -0.320393,0.289388 -0.749306,0.439249 -0.423745,0.155029 -0.919837,0.155029 -0.439249,0 -0.800982,-0.134359 -0.361734,-0.12919 -0.625283,-0.377236 -0.258382,-0.248047 -0.403075,-0.604613 -0.144694,-0.351398 -0.144694,-0.795814 0,-0.48059 0.155029,-0.925006 0.155029,-0.4392481 0.434081,-0.8474906 0.031,-0.046509 0.05168,-0.041341 0.02584,0 0.04134,0.025838 0.0155,0.025838 0.02067,0.062012 0.0052,0.031006 0,0.041341 -0.217041,0.4599188 -0.294555,0.9560106 -0.07751,0.50126 0.07751,0.904335 0.155029,0.403075 0.527098,0.656289 0.377237,0.253213 1.018023,0.253213 0.289387,0 0.578774,-0.06718 0.294555,-0.06201 0.563271,-0.191202 0.268717,-0.124023 0.496092,-0.315225 0.232543,-0.186035 0.397908,-0.434081 z M 64.738384,3.0292924 q 0.08268,0.00517 0.07751,0.1912022 -0.01033,0.1963699 0.0052,0.387572 0.0155,0.1860346 0.04134,0.3772368 0.05168,0.4599188 0.124023,0.9508433 0.07235,0.4857569 0.144694,0.9818491 0.06718,0.4909246 0.134358,0.9818491 0.06718,0.4909245 0.113688,0.956011 0.02067,0.1808669 0.02584,0.4237454 0.01033,0.2428784 -0.0052,0.4960921 -0.01033,0.2480461 -0.05684,0.4805893 -0.04134,0.2325432 -0.118855,0.387572 -0.04134,0.08785 -0.09819,0.1136878 -0.04651,0.00517 -0.04134,-0.041341 -0.031,-0.4495835 -0.07751,-0.9043347 Q 64.96576,8.351948 64.89858,7.8765264 64.831401,7.3856018 64.764222,6.9050125 64.697043,6.4244232 64.635032,5.943834 64.567852,5.4632447 64.500673,4.9826554 64.438662,4.5020661 64.37665,4.0163092 64.39215,3.8974537 64.42316,3.7734307 64.45417,3.64424 64.51101,3.5098817 64.635034,3.173986 64.676375,3.1016392 q 0.04651,-0.072347 0.06201,-0.072347 z m -4.599187,4.196113 q 0.263549,0.072347 0.485756,0.1395259 0.222208,0.067179 0.428913,0.1291907 0.211873,0.056844 0.418578,0.1033525 0.206705,0.046509 0.439249,0.077514 0.454751,0.062012 0.837155,0.077514 0.387572,0.010335 0.702797,0.025838 0.02584,0 0.03101,0.025838 0.01034,0.025838 0,0.062011 -0.0155,0.046509 -0.06718,0.1291907 -0.04651,0.077514 -0.103353,0.1705317 -0.05684,0.08785 -0.113687,0.1756993 -0.05684,0.082682 -0.08785,0.1446935 -0.02584,0.046509 -0.06718,0.051676 -0.04134,0.00517 -0.103353,-0.00517 -0.428913,-0.072347 -0.80615,-0.056844 -0.372069,0.015503 -0.723467,0.08785 -0.346231,0.072347 -0.687295,0.1912022 -0.341063,0.1188554 -0.697629,0.2532137 -0.418578,0.1550288 -0.842323,0.2893871 -0.418578,0.1291907 -0.857826,0.2273756 -0.434081,0.093017 -0.899168,0.1498612 -0.459918,0.051676 -0.95601,0.051676 h -0.09819 q -0.170532,0 -0.258382,-0.1240231 -0.08785,-0.1291907 -0.08785,-0.2842195 0,-0.1550288 0.08785,-0.2790518 0.08785,-0.1291907 0.258382,-0.1291907 h 0.09819 q 0.361733,0 0.790646,-0.015503 0.428913,-0.015503 0.925006,-0.082682 Q 58.687093,8.73952 59.255532,8.5948265 59.829139,8.4449653 60.475092,8.1814163 60.06685,8.0522257 59.684445,7.964376 59.307209,7.8713587 58.929972,7.8248501 q -0.372069,-0.046509 -0.754474,-0.046509 -0.382404,0 -0.800982,0.051676 -0.05684,0 -0.02584,-0.051676 0.09819,-0.2015375 0.191202,-0.3565663 0.09819,-0.1601964 0.232543,-0.3203929 0.02067,-0.025838 0.129191,-0.046509 0.10852,-0.02067 0.273884,-0.041341 0.165364,-0.02067 0.366902,-0.036173 0.206705,-0.02067 0.418578,-0.036173 0.21704,-0.02067 0.418577,-0.036173 0.201538,-0.02067 0.366902,-0.041341 0.124023,-0.015503 0.206705,-0.041341 0.08268,-0.031006 0.07235,-0.1188554 Q 59.99967,6.4347585 59.94799,6.0730246 59.901486,5.7112907 59.834307,5.3185511 59.772295,4.9206438 59.699948,4.5227366 59.627601,4.1196617 59.555255,3.7734307 59.529417,3.6597429 59.503578,3.5253846 59.482908,3.3910263 59.446735,3.2618357 59.415729,3.132645 59.36922,3.0292924 59.322712,2.9207723 59.255532,2.8639284 L 59.596596,2.176634 q 0.07235,-0.08785 0.118855,0 0.04651,0.1240231 0.09819,0.2532137 0.05684,0.1291907 0.124023,0.2532138 0.07235,0.1188554 0.165364,0.2222079 0.09302,0.1033525 0.21704,0.1808669 -0.03101,0.067179 -0.09302,0.1446936 -0.05684,0.072347 -0.113688,0.1550288 -0.05684,0.082682 -0.09302,0.1756993 -0.03101,0.08785 -0.01034,0.1808669 0.0155,0.077514 0.06201,0.3203929 0.04651,0.2428785 0.103353,0.5581037 0.05684,0.3100576 0.113688,0.651121 0.05684,0.3410633 0.09302,0.6201152 0.0155,0.1395259 0.02067,0.3100576 0.0052,0.165364 -0.02067,0.346231 -0.02067,0.1756993 -0.07751,0.3513986 -0.05684,0.1756993 -0.165364,0.3255605 z m -3.2246,-1.245398 q 0.170532,-0.098185 0.335896,-0.1963698 0.165364,-0.098185 0.320393,-0.2118727 0.160196,-0.1136878 0.315225,-0.2480461 0.155029,-0.1343583 0.299722,-0.30489 -0.139526,-0.041341 -0.294555,-0.1395259 -0.155028,-0.098185 -0.248046,-0.2118727 -0.04651,-0.056844 -0.05684,-0.1446935 -0.01033,-0.093017 0.0155,-0.1705317 0.04134,-0.124023 0.113688,-0.2687166 0.07752,-0.1446935 0.180867,-0.263549 0.103353,-0.1188554 0.227376,-0.1912022 0.12919,-0.077514 0.258381,-0.072347 0.160196,0.010335 0.232543,0.1550288 0.07235,0.1395259 0.08785,0.3255605 0.02067,0.1860345 0,0.3669015 -0.0155,0.1808669 -0.02584,0.2635489 0,0.025838 0.0155,0.041341 0.06201,0.036173 0.08268,0.067179 0.02584,0.031006 0.04134,0.072347 0.03101,0.077514 0.01033,0.1860345 -0.0155,0.1085202 -0.06201,0.1653641 -0.04134,0.051676 -0.07235,0.051676 -0.03101,-0.00517 -0.06201,-0.051676 -0.02584,-0.031006 -0.05168,-0.056844 -0.02067,-0.031006 -0.06718,-0.051676 -0.144694,0.1756993 -0.310058,0.3358958 -0.160196,0.1601964 -0.341063,0.2945547 -0.186035,0.1291907 -0.387572,0.2325432 -0.201538,0.1033525 -0.423746,0.1705317 -0.08785,0.025838 -0.180867,0.036173 -0.09302,0.00517 -0.103352,-0.02067 -0.01033,-0.031006 0.03617,-0.072347 0.04651,-0.046509 0.113688,-0.08785 z m 0.971514,-1.7363226 q 0.10852,0.1498612 0.258381,0.2377109 0.149861,0.082682 0.273884,0.1136878 h 0.01034 q 0,-0.041341 0.0052,-0.1085202 0.0052,-0.072347 0,-0.1446936 0,-0.072347 -0.02067,-0.1395259 -0.0155,-0.067179 -0.06201,-0.1136878 -0.04134,-0.036173 -0.118855,-0.031006 -0.07235,0 -0.144694,0.025838 -0.07235,0.025838 -0.134358,0.072347 -0.05684,0.041341 -0.06718,0.08785 z m -9.441256,4.2839625 q 0.58911,-0.1188554 1.157549,-0.2997223 0.568439,-0.1860346 1.147213,-0.4185778 0.03617,-0.00517 0.03617,0.041341 -0.04651,0.263549 -0.0052,0.4495836 0.04651,0.1860345 0.160196,0.3152252 0.118855,0.124023 0.294555,0.1963698 0.180867,0.072347 0.408242,0.1085202 0.248046,-0.3152253 0.511595,-0.6149476 0.263549,-0.30489 0.552936,-0.5787742 0.289387,-0.2790519 0.604613,-0.5167627 0.315225,-0.2377108 0.671791,-0.428913 0.170532,-0.093017 0.387572,-0.1188554 0.21704,-0.025838 0.444416,0.00517 0.227376,0.031006 0.444416,0.1136878 0.21704,0.082682 0.387572,0.2118727 0.175699,0.124023 0.284219,0.2893871 0.113688,0.1601964 0.124023,0.3513986 -0.02067,0.4392483 -0.175699,0.7596411 -0.149861,0.3203929 -0.397907,0.5581037 0.263549,0.015503 0.52193,-0.00517 0.258382,-0.025838 0.48059,-0.025838 h 0.09302 q 0.113688,0 0.186034,0.062012 0.07235,0.056844 0.108521,0.1498612 0.04134,0.08785 0.03617,0.1912022 0,0.1033525 -0.03617,0.1963698 -0.03617,0.08785 -0.113688,0.1498612 -0.07235,0.056844 -0.180867,0.056844 h -0.09302 q -0.253214,0 -0.58911,0.00517 -0.330728,0.00517 -0.713132,0.010335 -0.382405,0.00517 -0.795815,0.00517 -0.408242,0.00517 -0.816485,-0.00517 -0.279052,0.041341 -0.583942,0.051676 -0.30489,0.010335 -0.589109,-0.00517 -0.28422,-0.010335 -0.516763,-0.041341 -0.232543,-0.031006 -0.366901,-0.072347 -0.07751,0.1136878 -0.118856,0.2015374 -0.04134,0.093017 -0.06718,0.1446931 -0.06718,0.144694 -0.149861,0.124024 -0.09302,-0.03101 -0.05684,-0.1912027 0.01034,-0.041341 0.04651,-0.1291906 0.03617,-0.082682 0.09302,-0.2428785 -0.134358,-0.046509 -0.273884,-0.124023 -0.134359,-0.082682 -0.248046,-0.2015375 -0.113688,-0.1188554 -0.19637,-0.2687166 -0.08268,-0.1550288 -0.10852,-0.3513986 -0.387572,0.1653641 -0.769977,0.2997224 -0.382404,0.1291906 -0.821652,0.2325432 -0.04651,0.3255604 -0.113688,0.6356181 -0.06718,0.3100578 -0.149861,0.5891098 -0.08268,0.279051 -0.180867,0.516762 -0.09302,0.242879 -0.191203,0.428913 -0.263549,0.50126 -0.687294,0.775144 -0.418578,0.279052 -0.950843,0.335896 -0.475422,0.05168 -0.883664,0 -0.408243,-0.04651 -0.780312,-0.191202 -0.09819,-0.03617 -0.118856,-0.07752 -0.02067,-0.04134 0.01034,-0.07751 0.02584,-0.03617 0.09302,-0.05684 0.06201,-0.02067 0.139526,-0.0155 0.263549,0.01034 0.459919,0.0052 0.19637,-0.0052 0.366901,-0.03617 0.1757,-0.03101 0.341064,-0.08785 0.165364,-0.05168 0.361733,-0.134358 0.346231,-0.144694 0.656289,-0.418578 0.315225,-0.273884 0.568439,-0.620115 0.253214,-0.341064 0.444416,-0.728636 0.191202,-0.3875718 0.299722,-0.7648085 -0.04651,0.010335 -0.124023,0.025838 -0.07751,0.010335 -0.113688,0.015503 -0.04134,0 -0.03101,-0.041341 0.02584,-0.1653641 0.06718,-0.3255605 0.04134,-0.1601965 0.06718,-0.3255605 0.01033,-0.056844 0.05168,-0.067179 z m 3.632842,0.4392483 q 0.227375,0.046509 0.527098,0.051676 0.299722,0.00517 0.63045,-0.031006 0.330728,-0.036173 0.671792,-0.1085201 0.346231,-0.077514 0.656288,-0.1860346 Q 54.878551,8.5793236 55.1421,8.4294624 55.410816,8.2796013 55.586515,8.0987343 55.477995,7.8765264 55.276458,7.7266652 55.07492,7.5716364 54.83721,7.494122 54.599499,7.41144 54.351453,7.4062723 q -0.242879,-0.00517 -0.439249,0.072347 -0.268716,0.1033525 -0.52193,0.2687166 -0.248046,0.1601964 -0.480589,0.3617339 -0.227376,0.1963698 -0.439248,0.4185777 -0.206706,0.222208 -0.39274,0.4392481 z M 53.46779,3.9181242 q -0.258382,0.1188554 -0.542601,0.2480461 -0.279052,0.1291907 -0.542601,0.2480461 -0.263549,0.1188554 -0.490925,0.2222079 -0.227375,0.1033526 -0.387572,0.1705317 -0.03617,0.015503 -0.05168,0 -0.0155,-0.015503 0,-0.046509 l 0.253214,-0.5064275 q 0.02584,-0.041341 0.05168,-0.056844 0.03101,-0.02067 0.05684,-0.036173 l 1.886184,-0.8371556 q 0.08268,-0.036173 0.05168,0.041341 l -0.211873,0.4805893 q -0.0155,0.046509 -0.07235,0.072347 z m -5.208968,9.6272888 q -0.506427,0.160196 -0.997352,0.32556 -0.490924,0.165365 -0.940508,0.310058 -0.08268,0.02584 -0.04134,-0.05168 l 0.211873,-0.39274 q 0.0155,-0.03101 0.02584,-0.04651 0.0155,-0.0155 0.04651,-0.02584 0.139526,-0.05168 0.366901,-0.12919 0.227376,-0.07235 0.490925,-0.160197 0.268716,-0.08268 0.547768,-0.170531 0.279052,-0.08785 0.532266,-0.165364 0.04134,-0.0155 0.05168,-0.01034 0.01034,0.01034 -0.01033,0.05168 l -0.222208,0.403074 q -0.0155,0.02067 -0.03101,0.03617 -0.01033,0.02067 -0.03101,0.02584 z M 44.51229,9.8712303 q -0.351398,0.2945547 -0.744138,0.5426007 -0.392739,0.248046 -0.816485,0.428913 -0.423745,0.180867 -0.878496,0.279052 -0.454752,0.103353 -0.925006,0.103353 -0.475421,0 -0.899167,-0.134359 Q 39.830421,10.9616 39.515195,10.703218 39.205138,10.450004 39.013936,10.0676 38.827901,9.6903634 38.822733,9.1942712 q -0.0155,-0.5477684 0.155029,-1.0645311 0.175699,-0.5167627 0.50126,-0.9663462 0.03101,-0.041341 0.05168,-0.036173 0.02067,0 0.03617,0.025838 0.0155,0.020671 0.02067,0.051676 0.0052,0.025838 0.0052,0.041341 -0.103353,0.2118727 -0.201538,0.4444159 -0.09302,0.2325432 -0.155028,0.4754217 -0.06201,0.2428784 -0.07235,0.4960921 -0.0052,0.2532137 0.08268,0.5064275 0.09302,0.2997223 0.258381,0.5219303 0.170532,0.2222079 0.39274,0.3720686 0.222208,0.155029 0.485757,0.237711 0.268716,0.08268 0.563271,0.10852 0.423745,0.03617 0.878497,-0.02584 0.454751,-0.05684 0.904334,-0.191202 0.449584,-0.139526 0.862994,-0.3410632 0.418578,-0.2015375 0.764809,-0.4495835 0.08785,-0.062012 0.09302,-0.1033526 0.0052,-0.046509 -0.03617,-0.077514 -0.03617,-0.036173 -0.103353,-0.056844 -0.06201,-0.02067 -0.10852,-0.036173 Q 44.052372,9.085751 43.876672,9.0599129 43.700973,9.0289071 43.514938,9.003069 43.334072,8.9772309 43.153205,8.9513927 42.977505,8.920387 42.827644,8.8842136 42.657112,8.8428726 42.502084,8.7601905 42.352222,8.6775085 42.238535,8.5638207 42.124847,8.4449653 42.0525,8.2951041 41.985321,8.145243 41.980153,7.9747113 q -0.01034,-0.2428785 0.04651,-0.4857569 0.06201,-0.2428785 0.175699,-0.4702541 0.113688,-0.2325432 0.263549,-0.4444159 0.155029,-0.2170403 0.330728,-0.4082425 0.180867,-0.2015374 0.387572,-0.3772368 0.206705,-0.1756993 0.418578,-0.2945547 0.21704,-0.1188554 0.434081,-0.165364 0.21704,-0.051676 0.418578,-0.00517 0.21704,0.056844 0.346231,0.2067051 0.12919,0.1498612 0.175699,0.3410634 0.05168,0.1912022 0.02584,0.3979072 -0.02584,0.2067051 -0.113688,0.3720692 -0.0155,0.020671 -0.04651,0.015503 -0.02584,-0.00517 -0.03617,-0.036173 -0.03101,-0.077514 -0.09819,-0.1756994 -0.06718,-0.098185 -0.160196,-0.1860345 -0.09302,-0.08785 -0.206705,-0.1446936 -0.10852,-0.062012 -0.232543,-0.062012 -0.248047,0 -0.516763,0.1291907 -0.263549,0.1291907 -0.506428,0.3307281 -0.242878,0.2015374 -0.43408,0.4444159 -0.186035,0.2428785 -0.279052,0.470254 -0.09302,0.180867 -0.04651,0.30489 0.05168,0.1188554 0.191203,0.2170403 0.139525,0.1033526 0.32556,0.1705317 0.191202,0.067179 0.39274,0.1136878 0.201537,0.046509 0.403075,0.077514 0.201537,0.025838 0.372069,0.051676 0.124023,0.02067 0.263549,0.051676 0.144693,0.031006 0.268716,0.08785 0.124023,0.051676 0.211873,0.1395259 0.08785,0.082682 0.103352,0.2118727 0.0155,0.1136878 -0.0052,0.263549 -0.02067,0.1446935 -0.07235,0.2893871 -0.04651,0.1446935 -0.118855,0.2738842 -0.06718,0.1240231 -0.149862,0.1912022 z M 33.918659,11.953784 h -0.666624 q 1.54512,-2.480461 1.54512,-4.9660894 0,-0.9715139 -0.222208,-1.9275248 Q 34.399248,4.2850258 34.084023,3.5718933 33.882485,3.1068069 33.252035,2.0216052 h 0.666624 q 0.971513,1.2970743 1.4366,2.6044839 0.397907,1.1265427 0.397907,2.3564378 0,1.3952593 -0.537433,2.6975012 -0.532266,1.3022419 -1.297074,2.2737559 z M 31.686244,8.3054394 q 0.01034,-0.015503 -0.02067,-0.082682 -0.02584,-0.072347 -0.06718,-0.1550288 -0.04134,-0.082682 -0.08268,-0.1550288 -0.04134,-0.077514 -0.05684,-0.1033526 -0.08785,-0.1291907 -0.21704,-0.2428784 -0.124023,-0.1136878 -0.310058,-0.1033526 -0.08268,0.00517 -0.165364,0.046509 -0.07751,0.041341 -0.144693,0.1033525 -0.06718,0.062011 -0.118856,0.1395259 -0.05168,0.072347 -0.07751,0.1498612 0.263549,0.222208 0.589109,0.3152252 0.325561,0.08785 0.671792,0.08785 z m -3.24527,0.6097799 q 0.217041,0 0.428913,-0.010335 0.217041,-0.015503 0.403075,-0.062012 0.186035,-0.046509 0.330728,-0.1343583 0.149861,-0.093017 0.232543,-0.2480461 0.149862,-0.2790519 0.273885,-0.5581037 0.124023,-0.2842195 0.273884,-0.5477684 0.05684,-0.098185 0.149861,-0.2170404 0.09819,-0.1188554 0.211873,-0.2222079 0.113688,-0.1085202 0.237711,-0.1756993 0.124023,-0.067179 0.242878,-0.062012 0.129191,0.00517 0.253214,0.093017 0.124023,0.08785 0.232543,0.2273756 0.113688,0.1395259 0.201537,0.3152252 0.09302,0.1705317 0.160197,0.346231 0.06718,0.1756994 0.09819,0.3410634 0.03617,0.1601964 0.03101,0.2790519 -0.01034,0.1085201 -0.03101,0.2325432 -0.02067,0.1188554 -0.06718,0.2273755 -0.04134,0.1085202 -0.113688,0.2015375 -0.06718,0.08785 -0.170532,0.1343583 -0.118855,0.041341 -0.32556,0.025838 Q 31.288337,9.085751 31.040291,9.0237395 30.797412,8.961728 30.544198,8.8532078 30.290985,8.7446877 30.073944,8.5948265 29.872407,9.1891036 29.469332,9.4578202 29.066257,9.7265368 28.440974,9.7265368 h -0.09302 q -0.165364,0 -0.242878,-0.1240231 -0.08268,-0.1291907 -0.08268,-0.2790518 0,-0.1550288 0.08268,-0.2790519 0.07751,-0.1291907 0.242878,-0.1291907 z M 29.386649,4.6881006 Q 29.55718,4.5899157 29.722544,4.4917308 29.887908,4.3935459 30.042937,4.2798581 30.203134,4.1661703 30.358162,4.031812 30.513191,3.8974537 30.657885,3.726922 30.518359,3.685581 30.36333,3.5873961 30.208301,3.4892112 30.115284,3.3755234 q -0.04651,-0.056844 -0.05684,-0.1446936 -0.01034,-0.093017 0.0155,-0.1705316 0.04134,-0.1240231 0.113688,-0.2687166 0.07751,-0.1446936 0.180867,-0.263549 0.103352,-0.1188554 0.227375,-0.1912022 0.129191,-0.077514 0.258382,-0.072347 0.160196,0.010335 0.232543,0.1550288 0.07235,0.139526 0.08785,0.3255605 0.02067,0.1860346 0,0.3669015 -0.0155,0.180867 -0.02584,0.263549 0,0.025838 0.0155,0.041341 0.06201,0.036173 0.08268,0.067179 0.02584,0.031006 0.04134,0.072347 0.03101,0.077514 0.01034,0.1860346 -0.0155,0.1085202 -0.06201,0.1653641 -0.04134,0.051676 -0.07235,0.051676 -0.03101,-0.00517 -0.06201,-0.051676 -0.02584,-0.031006 -0.05168,-0.056844 -0.02067,-0.031006 -0.06718,-0.051676 -0.144693,0.1756993 -0.310057,0.3358957 -0.160197,0.1601965 -0.341064,0.2945548 -0.186034,0.1291906 -0.387572,0.2325432 -0.201537,0.1033525 -0.423745,0.1705316 -0.08785,0.025838 -0.180867,0.036173 -0.09302,0.00517 -0.103353,-0.020671 -0.01034,-0.031006 0.03617,-0.072347 0.04651,-0.046509 0.113688,-0.08785 z M 30.358162,2.951778 q 0.108521,0.1498612 0.258382,0.2377108 0.149861,0.082682 0.273884,0.1136878 h 0.01034 q 0,-0.041341 0.0052,-0.1085201 0.0052,-0.072347 0,-0.1446936 0,-0.072347 -0.02067,-0.1395259 -0.0155,-0.067179 -0.06201,-0.1136878 -0.04134,-0.036173 -0.118856,-0.031006 -0.07235,0 -0.144693,0.025838 -0.07235,0.025838 -0.134358,0.072347 -0.05684,0.041341 -0.06718,0.08785 z m -3.436471,5.4053377 q 0.02067,-0.072347 0.07235,-0.010335 0.160196,0.1912022 0.320393,0.30489 0.160196,0.1085201 0.330728,0.165364 0.08785,0.031006 0.170532,0.051676 0.08268,0.015503 0.170531,0.031006 0.09302,0.010335 0.201538,0.015503 0.10852,0 0.248046,0 h 0.09302 q 0.165364,0 0.248046,0.1291907 0.08268,0.1240231 0.08268,0.2738842 0,0.1550288 -0.08268,0.2842195 -0.08268,0.1240231 -0.248046,0.1240231 h -0.09302 q -0.170532,0 -0.351399,-0.010335 -0.175699,-0.015503 -0.346231,-0.041341 -0.05168,0.2842195 -0.124023,0.5322658 -0.07235,0.253214 -0.149861,0.470254 -0.186035,0.480589 -0.434081,0.857826 -0.237711,0.372069 -0.7183,0.630451 -0.263549,0.144693 -0.547768,0.21704 -0.28422,0.07235 -0.568439,0.08785 -0.186035,0.01033 -0.366902,0.0052 -0.175699,-0.0052 -0.361734,-0.03101 -0.186034,-0.02067 -0.382404,-0.07235 -0.201537,-0.04651 -0.423745,-0.129191 -0.06201,-0.02584 -0.08268,-0.06201 -0.02584,-0.03617 -0.01034,-0.07235 0.02584,-0.06718 0.206705,-0.06718 0.310058,0.0052 0.573607,-0.01034 0.263549,-0.0155 0.511595,-0.07235 0.248046,-0.05168 0.496092,-0.149862 0.253214,-0.09302 0.547769,-0.253213 0.315225,-0.170532 0.563271,-0.387572 0.248046,-0.211873 0.434081,-0.459919 0.180867,-0.248046 0.310057,-0.52193 0.129191,-0.273885 0.201538,-0.5684397 -0.19637,-0.082682 -0.382405,-0.2273756 -0.186034,-0.1446935 -0.30489,-0.2997223 z m 0.289388,-3.534657 q -0.258382,0.1188555 -0.542601,0.2480461 -0.279052,0.1291907 -0.542601,0.2480461 -0.263549,0.1188554 -0.490925,0.222208 -0.227375,0.1033525 -0.387572,0.1705317 -0.03617,0.015503 -0.05168,0 -0.0155,-0.015503 0,-0.046509 l 0.253214,-0.5064274 q 0.02584,-0.041341 0.05168,-0.056844 0.03101,-0.020671 0.05684,-0.036173 l 1.886184,-0.8371555 q 0.08268,-0.036173 0.05168,0.041341 L 27.283425,4.750112 q -0.0155,0.046509 -0.07235,0.072347 z m -4.159941,2.0877215 q 0.144694,0.1446935 0.263549,0.3152252 0.124023,0.1705317 0.217041,0.3565662 0.09302,0.1860346 0.144693,0.3824044 0.05168,0.1963698 0.05168,0.3979073 0,0.08785 -0.01034,0.1963698 -0.01034,0.1085202 -0.03101,0.222208 -0.02067,0.1085201 -0.05684,0.2118726 -0.03101,0.098185 -0.07751,0.1705317 -0.124023,0.1860346 -0.346231,0.2997224 -0.21704,0.1136878 -0.480589,0.1705317 -0.263549,0.056844 -0.537433,0.077514 -0.268717,0.015503 -0.490925,0.015503 h -0.09302 q -0.160197,0 -0.242879,-0.1240231 -0.08268,-0.1291907 -0.08268,-0.2842195 0,-0.1550288 0.08268,-0.2790518 0.08268,-0.1291907 0.242879,-0.1291907 h 0.09302 q 0.248046,0 0.490925,-0.00517 0.248046,-0.010335 0.465086,-0.031006 0.222208,-0.02067 0.397907,-0.056844 0.1757,-0.041341 0.279052,-0.1085201 0.05684,-0.031006 0.05684,-0.077514 0.0052,-0.046509 -0.02067,-0.1188554 Q 23.314687,8.3777862 23.247508,8.2640984 23.185497,8.1504106 23.107982,8.047058 23.0253,7.9385379 22.937451,7.840353 22.849601,7.7421681 22.751416,7.6439832 l 0.170532,-0.7234678 q 0.0155,-0.056844 0.05168,-0.056844 0.03617,0 0.07751,0.046509 z m 0.527098,-1.038693 q -0.02584,0.031006 -0.04134,0.036173 -0.0155,0 -0.05684,-0.031006 L 22.865104,5.3960655 22.462029,5.9490016 q -0.03617,0.046509 -0.07751,0.015503 L 21.728226,5.458077 q -0.03617,-0.025838 -0.01033,-0.062012 l 0.418577,-0.5942771 q 0.02067,-0.031006 0.03617,-0.031006 0.0155,0 0.03617,0.020671 l 0.620115,0.470254 0.423746,-0.5426008 q 0.03101,-0.041341 0.06201,-0.015503 l 0.656289,0.5477685 q 0.03617,0.025838 0,0.072347 z M 22.663568,3.6028989 q -0.113688,0.2273756 -0.258382,0.3410634 -0.155029,0.1188554 -0.366901,0.124023 -0.170532,0.00517 -0.299723,-0.08785 -0.124023,-0.093017 -0.144693,-0.3255604 -0.01034,-0.1033526 0.01033,-0.2118727 0.02067,-0.1136878 0.06201,-0.2118727 0.04134,-0.093017 0.09302,-0.1601965 0.05684,-0.072347 0.118855,-0.093017 0.06201,-0.00517 0.01034,0.093017 -0.03101,0.056844 -0.05168,0.1343583 -0.0155,0.077514 -0.02067,0.1550288 0,0.072347 0.0155,0.1240231 0.0155,0.051676 0.06718,0.098185 0.07751,0.056844 0.165364,0.056844 0.08785,-0.00517 0.170532,-0.041341 0.08785,-0.036173 0.155028,-0.082682 0.07235,-0.051676 0.144694,-0.1343583 0.06718,-0.077514 0.09819,-0.1963698 0.03101,-0.1188554 0.04134,-0.1963698 0.0052,-0.067179 0.03617,-0.1343583 0.03101,-0.067179 0.103353,-0.067179 0.0155,0 0.02067,0.031006 0.01034,0.025838 0.0155,0.062012 0.0052,0.036173 0.0052,0.072347 0,0.031006 0,0.046509 0,0.1498611 0.04651,0.2377108 0.04651,0.082682 0.186035,0.1136878 0.07235,0.015503 0.186035,-0.015503 0.118855,-0.031006 0.206705,-0.1033525 0.01033,-0.010335 0.0052,-0.056844 -0.0052,-0.046509 -0.02067,-0.098185 -0.01034,-0.051676 -0.03617,-0.1085202 -0.02067,-0.062012 -0.02584,-0.072347 l 0.19114,-0.3617348 q 0.05168,0.025838 0.07751,0.1136878 0.03101,0.08785 0.03617,0.2015375 0.01034,0.1085201 0,0.2222079 -0.01034,0.1136878 -0.02584,0.1912022 -0.06201,0.1912022 -0.170532,0.346231 -0.103352,0.1550288 -0.320392,0.1963698 -0.191203,0.036173 -0.320393,-0.025838 -0.129191,-0.062011 -0.206705,-0.1756993 z m 0.930172,-2.077386 q -0.258381,0.1188554 -0.5426,0.2480461 -0.279052,0.1291907 -0.542601,0.2480461 -0.263549,0.1188554 -0.490925,0.2222079 -0.227375,0.1033526 -0.387572,0.1705317 -0.03617,0.015503 -0.05168,0 -0.0155,-0.015503 0,-0.046509 l 0.253218,-0.506427 q 0.02584,-0.041341 0.05168,-0.056844 0.03101,-0.020671 0.05684,-0.036173 l 1.886184,-0.83715556 q 0.08268,-0.0361734 0.05168,0.041341 L 23.666087,1.4531661 q -0.0155,0.046509 -0.07235,0.072347 z M 20.451823,11.023611 19.71802,4.1971761 q 0.05168,-0.1705317 0.124023,-0.3307281 0.07235,-0.1653641 0.149861,-0.3358958 0.02067,-0.036173 0.05168,-0.036173 0.03617,-0.00517 0.04651,0.082682 l 0.465087,3.8912229 q 0.03101,0.3307282 0.09819,0.5994448 0.06718,0.2687165 0.196369,0.4547511 0.129191,0.1912022 0.335896,0.2945547 0.206705,0.098185 0.516763,0.098185 h 0.09302 q 0.165364,0 0.248046,0.1291907 0.08268,0.1240231 0.08268,0.2790519 0,0.1498611 -0.08268,0.2790518 -0.08268,0.1240231 -0.248046,0.1240231 h -0.09302 q -0.320393,0 -0.568439,-0.093017 -0.248046,-0.093017 -0.418578,-0.2842195 0.0155,0.1653641 0.03101,0.3617339 0.0155,0.1912022 0.02584,0.3720694 0.0155,0.186035 0.02067,0.341063 0.0052,0.155029 0,0.242879 -0.04134,0.506427 -0.242878,0.909502 -0.19637,0.403075 -0.52193,0.687294 -0.320393,0.289388 -0.749306,0.439249 -0.423746,0.155029 -0.919838,0.155029 -0.439248,0 -0.800982,-0.134359 -0.361734,-0.12919 -0.625283,-0.377236 -0.258381,-0.248047 -0.403075,-0.604613 -0.144693,-0.351398 -0.144693,-0.795814 0,-0.48059 0.155029,-0.925006 0.155028,-0.4392481 0.43408,-0.8474906 0.03101,-0.046509 0.05168,-0.041341 0.02584,0 0.04134,0.025838 0.0155,0.025838 0.02067,0.062012 0.0052,0.031006 0,0.041341 -0.21704,0.4599188 -0.294555,0.9560106 -0.07751,0.50126 0.07751,0.904335 0.155029,0.403075 0.527098,0.656289 0.377236,0.253213 1.018022,0.253213 0.289387,0 0.578774,-0.06718 0.294555,-0.06201 0.563272,-0.191202 0.268716,-0.124023 0.496092,-0.315225 0.232543,-0.186035 0.397907,-0.434081 z m -5.436344,0.930173 Q 14.245503,10.98227 13.713237,9.6800281 13.180972,8.3777862 13.180972,6.9825269 q 0,-1.2298951 0.397907,-2.3564378 0.465086,-1.3074096 1.4366,-2.6044839 h 0.666624 q -0.625283,1.0748664 -0.82682,1.5347852 -0.315225,0.7131325 -0.496092,1.4882765 -0.222208,0.9663462 -0.222208,1.9430277 0,2.4856284 1.54512,4.9660894 z"
         id="text1-8"
         style="font-size:10.5833px;line-height:1.25;font-family:'KFGQPC Uthmanic Script HAFS';-inkscape-font-specification:'KFGQPC Uthmanic Script HAFS';direction:rtl;stroke-width:0.264583"
         aria-label="    ()" />
    </g>
  </g>
</svg>
