<?xml version="1.0" encoding="UTF-8" standalone="no"?>
<!-- Created with Inkscape (http://www.inkscape.org/) -->

<svg
   width="120.79409mm"
   height="15.486489mm"
   viewBox="0 0 120.79409 15.486489"
   version="1.1"
   id="svg1"
   xmlns="http://www.w3.org/2000/svg"
   xmlns:svg="http://www.w3.org/2000/svg">
  <defs
     id="defs1" />
  <g
     id="layer1"
     transform="translate(-520.83751)">
    <g
       id="g8"
       transform="translate(386.2525,0.10104538)">
      <path
         d="m 253.86976,2.9665788 q 0.0827,0.00517 0.0775,0.1912022 -0.0103,0.1963698 0.005,0.387572 0.0155,0.1860346 0.0413,0.3772368 0.0517,0.4599188 0.12402,0.9508433 0.0724,0.4857569 0.1447,0.9818491 0.0672,0.4909245 0.13436,0.9818491 0.0672,0.4909245 0.11368,0.9560109 0.0207,0.180867 0.0258,0.4237454 0.0103,0.2428785 -0.005,0.4960922 -0.0103,0.2480461 -0.0568,0.4805893 -0.0413,0.2325432 -0.11885,0.387572 -0.0414,0.08785 -0.0982,0.1136878 -0.0465,0.00517 -0.0413,-0.041341 -0.031,-0.4495836 -0.0775,-0.9043347 -0.0413,-0.4599188 -0.10852,-0.9353405 -0.0672,-0.4909245 -0.13436,-0.9715138 -0.0672,-0.4805893 -0.12919,-0.9611786 -0.0672,-0.4805893 -0.13436,-0.9611786 -0.062,-0.4805892 -0.12403,-0.9663462 0.0155,-0.1188554 0.0465,-0.2428784 0.031,-0.1291907 0.0879,-0.263549 0.12403,-0.3358957 0.16537,-0.4082425 0.0465,-0.072347 0.062,-0.072347 z m -2.21691,-0.2893871 q 0.0155,-0.046509 0.0413,-0.056844 0.0258,-0.010335 0.0413,0.056844 0.0413,0.1240231 0.093,0.2532137 0.0517,0.1291907 0.11885,0.2532138 0.0724,0.124023 0.16537,0.2325432 0.093,0.1033525 0.21187,0.1756993 -0.0724,0.124023 -0.12919,0.2170403 -0.0517,0.08785 -0.0879,0.165364 -0.0362,0.072347 -0.0517,0.1446936 -0.0155,0.067179 -0.005,0.1446935 0.0568,0.4960922 0.12919,0.997352 0.0775,0.4960922 0.14469,0.9921844 0.0724,0.4960921 0.12402,0.9921843 0.0568,0.4960922 0.0724,0.997352 0.005,0.165364 -0.0207,0.3358957 -0.0258,0.1705317 -0.0827,0.3255605 -0.0569,0.1550288 -0.1447,0.2945547 -0.0827,0.1343583 -0.1912,0.2273756 -0.14986,0.1291907 -0.37207,0.1860346 -0.21704,0.051676 -0.53226,0.051676 h -0.093 q -0.16536,0 -0.24805,-0.124023 -0.0879,-0.1291907 -0.0879,-0.2790519 0,-0.1550288 0.0879,-0.2790518 0.0827,-0.1291907 0.24805,-0.1291907 h 0.093 q 0.17053,0 0.33072,-0.010335 0.1602,-0.015503 0.29456,-0.046509 0.13436,-0.036173 0.22738,-0.093017 0.0982,-0.062012 0.13952,-0.1550288 -0.10335,-1.0903692 -0.26872,-2.1497327 -0.16536,-1.0645311 -0.32039,-2.1393975 -0.031,-0.2170403 -0.0672,-0.4237454 -0.031,-0.2118727 -0.14986,-0.4082425 -0.0413,-0.056844 -0.0465,-0.072347 -0.005,-0.020671 0.0258,-0.082682 0.0879,-0.1498612 0.1602,-0.30489 0.0775,-0.1601964 0.14986,-0.2893871 z m -3.37963,5.2503088 q 0.062,-0.1033525 0.12402,-0.098185 0.0672,0.00517 0.0362,0.1240231 -0.0258,0.1085201 -0.0724,0.2273755 -0.0465,0.1136878 -0.10335,0.2480461 0.0362,0.08785 0.16019,0.1756993 0.12919,0.082682 0.28939,0.1446936 0.15503,0.056844 0.31523,0.082682 0.16536,0.025838 0.27388,-0.015503 0.1757,-0.056844 0.28939,-0.3152252 0.11369,-0.263549 0.19637,-0.5529361 0.0413,-0.1550288 0.10852,-0.1808669 0.0672,-0.025838 0.0775,0.1136878 0.0207,0.2583813 0.093,0.4444159 0.0724,0.1860346 0.21704,0.2997223 0.27388,0.2273756 0.89917,0.2273756 h 0.093 q 0.16537,0 0.24805,0.1291907 0.0827,0.1291907 0.0827,0.2790518 0,0.1498612 -0.0827,0.2790519 -0.0827,0.124023 -0.24805,0.124023 h -0.093 q -0.27389,0 -0.47026,-0.031006 -0.19637,-0.036173 -0.3824,-0.1136878 -0.43408,-0.1860346 -0.65629,-0.6149476 -0.0362,0.082682 -0.093,0.1963698 -0.0568,0.1136878 -0.13436,0.222208 -0.0723,0.1033525 -0.16019,0.1756993 -0.0879,0.072347 -0.18604,0.072347 -0.12919,0 -0.29972,-0.031006 -0.17053,-0.031006 -0.34106,-0.098185 -0.1757,-0.062011 -0.3359,-0.1601965 -0.15503,-0.1033525 -0.26355,-0.2428784 -0.18086,0.2067051 -0.40824,0.346231 -0.22221,0.1343583 -0.47542,0.1756993 -0.25838,0.046509 -0.5426,0 -0.27905,-0.051676 -0.57361,-0.2067051 -0.13436,0.098185 -0.29455,0.1601965 -0.1602,0.062012 -0.31523,0.093017 -0.1602,0.036173 -0.30489,0.046509 -0.14469,0.010335 -0.25321,0.010335 h -0.093 q -0.15503,0 -0.23254,-0.124023 -0.0775,-0.1291907 -0.0775,-0.2790519 0,-0.1498611 0.0775,-0.2790518 0.0775,-0.1291907 0.23254,-0.1291907 h 0.093 q 0.31005,0 0.5736,-0.02067 0.26355,-0.025838 0.4961,-0.1136878 0.22737,-0.082682 0.42891,-0.2532137 0.2067,-0.1705317 0.39274,-0.4650864 0.0672,-0.1085202 0.11369,-0.093017 0.0517,0.010335 0.031,0.1188554 -0.0362,0.1860346 -0.11885,0.3979073 -0.0827,0.2118727 -0.20154,0.3617339 0.10335,0.031006 0.25321,0.046509 0.15503,0.015503 0.32556,0 0.25322,-0.02067 0.47543,-0.1033525 0.22737,-0.08785 0.40824,-0.263549 0.11369,-0.1033525 0.21187,-0.2377108 0.10335,-0.1395259 0.19637,-0.2997224 z m 0.45475,-1.162716 q -0.031,0.036173 -0.0465,0.036173 -0.0155,0 -0.0517,-0.025838 l -0.60978,-0.4805893 -0.39791,0.552936 q -0.0362,0.046509 -0.0775,0.010335 L 246.89346,6.361709 q -0.0362,-0.031006 -0.0103,-0.067179 l 0.41341,-0.5891095 q 0.0258,-0.031006 0.0362,-0.025838 0.0155,0 0.0362,0.015503 l 0.61494,0.470254 0.41858,-0.5374332 q 0.031,-0.041341 0.062,-0.020671 l 0.65112,0.5426008 q 0.031,0.031006 0,0.072347 z m -0.97668,-2.1807385 0.63562,0.5219303 q 0.0413,0.031006 0.005,0.072347 l -0.42375,0.5270979 q -0.0362,0.046509 -0.0827,0.010335 l -0.64079,-0.5167627 q -0.0413,-0.036173 0,-0.08785 l 0.42892,-0.5167626 q 0.0362,-0.046509 0.0775,-0.010335 z m 0.0413,-1.4314326 q -0.11369,0.2273756 -0.25838,0.3410634 -0.15503,0.1188554 -0.3669,0.1240231 -0.17053,0.00517 -0.29973,-0.08785 -0.12402,-0.093017 -0.14469,-0.3255605 -0.0103,-0.1033525 0.0103,-0.2118727 0.0207,-0.1136878 0.062,-0.2118727 0.0413,-0.093017 0.093,-0.1601964 0.0568,-0.072347 0.11886,-0.093017 0.062,-0.00517 0.0103,0.093017 -0.031,0.056844 -0.0517,0.1343583 -0.0155,0.077514 -0.0207,0.1550288 0,0.072347 0.0155,0.124023 0.0155,0.051676 0.0672,0.098185 0.0775,0.056844 0.16536,0.056844 0.0878,-0.00517 0.17054,-0.041341 0.0879,-0.036173 0.15503,-0.082682 0.0723,-0.051676 0.14469,-0.1343583 0.0672,-0.077514 0.0982,-0.1963698 0.031,-0.1188554 0.0413,-0.1963698 0.005,-0.067179 0.0362,-0.1343583 0.031,-0.067179 0.10335,-0.067179 0.0155,0 0.0207,0.031006 0.0103,0.025838 0.0155,0.062011 0.005,0.036173 0.005,0.072347 0,0.031006 0,0.046509 0,0.1498612 0.0465,0.2377108 0.0465,0.082682 0.18603,0.1136878 0.0724,0.015503 0.18604,-0.015503 0.11885,-0.031006 0.2067,-0.1033526 0.0103,-0.010335 0.005,-0.056844 -0.005,-0.046509 -0.0207,-0.098185 -0.0103,-0.051676 -0.0362,-0.1085201 -0.0207,-0.062012 -0.0258,-0.072347 l 0.1912,-0.3617339 q 0.0517,0.025838 0.0775,0.1136878 0.031,0.08785 0.0362,0.2015374 0.0103,0.1085202 0,0.222208 -0.0103,0.1136878 -0.0258,0.1912022 -0.062,0.1912022 -0.17053,0.346231 -0.10335,0.1550288 -0.32039,0.1963698 -0.1912,0.036173 -0.3204,-0.025838 -0.12919,-0.062012 -0.2067,-0.1756994 z m 0.93017,-2.0773859 q -0.25838,0.1188554 -0.5426,0.2480461 -0.27905,0.1291906 -0.5426,0.2480461 -0.26355,0.1188554 -0.49092,0.2222079 -0.22738,0.1033525 -0.38758,0.1705317 -0.0362,0.015503 -0.0517,0 -0.0155,-0.015503 0,-0.046509 l 0.25321,-0.5064274 q 0.0258,-0.041341 0.0517,-0.056844 0.031,-0.020671 0.0568,-0.036173 l 1.88619,-0.83715549 q 0.0827,-0.0361734 0.0517,0.041341 l -0.21187,0.48058929 q -0.0155,0.046509 -0.0724,0.072347 z m -4.88857,10.6504785 q -0.0258,0.03101 -0.0413,0.03101 -0.0155,0.0052 -0.0568,-0.02584 l -0.61494,-0.480589 -0.40308,0.552936 q -0.0362,0.04651 -0.0775,0.0155 l -0.65629,-0.506427 q -0.0362,-0.02584 -0.0103,-0.06201 l 0.41858,-0.594278 q 0.0207,-0.03101 0.0362,-0.03101 0.0155,0 0.0362,0.02067 l 0.62011,0.470254 0.42375,-0.542601 q 0.031,-0.04134 0.062,-0.0155 l 0.65629,0.547768 q 0.0362,0.02584 0,0.07235 z m -2.16007,-2.0618829 h -0.093 q -0.15502,0 -0.23254,-0.124023 -0.0775,-0.1291907 -0.0775,-0.2842195 0,-0.077514 0.0207,-0.1498612 0.0155,-0.072347 0.0568,-0.1291906 0.0362,-0.056844 0.0982,-0.093017 0.0568,-0.036173 0.13435,-0.036173 h 0.093 q 0.1602,0 0.35657,-0.010335 0.20153,-0.010335 0.37723,-0.056844 0.17054,-0.046509 0.3359,-0.1395259 0.16536,-0.098185 0.30489,-0.2687166 0.10335,-0.124023 0.16536,-0.2532137 0.0672,-0.1291906 0.12919,-0.2945547 0.0258,-0.067179 0.0827,-0.072347 0.062,-0.00517 0.0672,0.025838 0.005,0.062011 -0.0103,0.1498611 -0.0103,0.08785 -0.0103,0.1601965 0,0.1343583 0.0672,0.2687166 0.0672,0.1343582 0.20671,0.2428784 0.13953,0.1085202 0.3824,0.1808669 0.24805,0.067179 0.55811,0.067179 h 0.0982 q 0.0775,0 0.13436,0.036173 0.0568,0.036173 0.093,0.093017 0.0413,0.056844 0.0568,0.1291906 0.0207,0.072347 0.0207,0.1498612 0,0.1550288 -0.0775,0.2842195 -0.0724,0.124023 -0.22738,0.124023 h -0.0982 q -0.27905,0 -0.53227,-0.051676 -0.24804,-0.056844 -0.42374,-0.1653641 -0.34107,-0.2067051 -0.53227,-0.60978 -0.11369,0.2325432 -0.26872,0.3875721 -0.15502,0.1550288 -0.34106,0.2532137 -0.1912,0.098185 -0.43408,0.1446935 -0.24288,0.041341 -0.48059,0.041341 z m 0.58911,-5.5655338 q 0,0.08785 0.0465,0.1395259 0.0517,0.046509 0.11886,0.072347 0.0672,0.025838 0.14469,0.031006 0.0827,0.00517 0.14469,0.00517 0.1447,0 0.26872,-0.062011 0.12919,-0.062012 0.23254,-0.1601965 0.0103,-0.093017 -0.0207,-0.1963698 -0.031,-0.1033525 -0.0982,-0.1860346 -0.0672,-0.082682 -0.16537,-0.1291906 -0.0982,-0.051676 -0.22737,-0.041341 -0.0775,0.020671 -0.15503,0.077514 -0.0775,0.051676 -0.14469,0.124023 -0.062,0.072347 -0.10336,0.1601964 -0.0413,0.082682 -0.0413,0.1653641 z M 243.4725,3.963931 q 0,0.1756993 -0.0465,0.3410634 -0.0465,0.165364 -0.14469,0.2945547 -0.0982,0.1291907 -0.25322,0.2067051 -0.14986,0.077514 -0.36173,0.077514 -0.26355,0 -0.44442,-0.1705317 -0.18087,-0.1705317 -0.1912,-0.4547512 0,-0.1446935 0.0413,-0.346231 0.0465,-0.206705 0.13953,-0.3979072 0.093,-0.1912022 0.23771,-0.3307282 0.14986,-0.1446935 0.35656,-0.1705316 0.19637,-0.02067 0.32556,0.077514 0.12919,0.098185 0.20671,0.2480461 0.0724,0.1550288 0.10335,0.3307281 0.031,0.1705316 0.031,0.2945547 z m -6.09264,2.780183 q 0.21188,-0.010335 0.44442,0.025838 0.23254,0.031006 0.66146,0.1136878 0.42891,0.077514 0.86299,0.093017 0.47025,0.015503 0.9095,0.00517 0.43925,-0.010335 0.9095,-0.051676 0.0207,-0.00517 0.031,0 0.0103,0.00517 0.005,0.031006 -0.0672,0.2015375 -0.14986,0.3979073 -0.0775,0.1963698 -0.1757,0.3824044 -0.23255,0.025838 -0.46509,0.062011 -0.23254,0.031006 -0.45992,0.077514 -0.0465,0.3772367 0.0827,0.5787742 0.13436,0.1963698 0.38241,0.2842195 0.24804,0.08785 0.5736,0.098185 0.33073,0.010335 0.68213,0.010335 0.0258,0 0.0465,0 0.0207,0 0.0465,0 0.15503,0 0.23254,0.1291907 0.0827,0.124023 0.0827,0.2738842 0,0.1550288 -0.0827,0.2842195 -0.0775,0.124023 -0.23254,0.124023 -0.0258,0 -0.0465,0 -0.0207,0 -0.0465,0 -0.57361,0.010335 -1.02319,-0.056844 -0.44958,-0.072347 -0.7183,-0.3152252 -0.21187,-0.1912022 -0.29972,-0.5115951 -0.0827,-0.3255604 -0.0207,-0.8268202 -0.45475,0.1085201 -0.8785,0.2893871 -0.42374,0.1756993 -0.78031,0.4599187 -0.31006,0.2480461 -0.5581,0.5581037 -0.24288,0.3100576 -0.41341,0.6666239 -0.16537,0.3565655 -0.25322,0.7389705 -0.0878,0.387572 -0.0878,0.785479 0,0.434081 0.16537,0.847491 0.17053,0.418578 0.44958,0.764809 0.27905,0.351398 0.63562,0.604612 0.36173,0.258381 0.74414,0.366901 0.50126,0.144694 1.02835,0.191203 0.53227,0.05168 0.98702,0.03617 0.50126,-0.0155 1.02836,-0.06201 0.5271,-0.04651 1.02836,-0.04651 0.062,0 0.0672,0.03101 0.005,0.03617 -0.062,0.113687 -0.0672,0.07752 -0.13952,0.08785 -0.31006,0.04651 -0.59945,0.139526 -0.28422,0.09819 -0.56327,0.19637 -0.27905,0.103352 -0.56844,0.186034 -0.28422,0.08785 -0.59427,0.10852 -0.75448,0.05168 -1.47795,-0.118855 -0.7183,-0.170532 -1.28157,-0.583942 -0.56327,-0.408242 -0.9095,-1.064531 -0.34623,-0.651121 -0.34623,-1.555456 0,-0.594277 0.15503,-1.193721 0.15503,-0.594277 0.43925,-1.1265426 0.28938,-0.5374332 0.69246,-0.9715138 0.40824,-0.4392483 0.90433,-0.7131325 0.0207,-0.015503 -0.0103,-0.025838 -0.031,-0.010335 -0.0672,-0.015503 -0.23771,-0.025838 -0.5116,-0.046509 -0.26871,-0.025838 -0.53743,-0.00517 -0.26355,0.020671 -0.49609,0.1033526 -0.23254,0.077514 -0.38757,0.2583813 -0.031,0.036173 -0.0672,0.031006 -0.031,-0.00517 -0.0207,-0.072347 0.031,-0.2377109 0.10852,-0.4495836 0.0827,-0.2118726 0.21187,-0.3669015 0.12919,-0.1601964 0.31006,-0.2532137 0.18086,-0.098185 0.42374,-0.1033525 z m 1.08004,-2.1342299 0.63562,0.527098 q 0.0413,0.036173 0.005,0.082682 l -0.42374,0.5322656 q -0.0362,0.051676 -0.0827,0.010335 L 237.95347,5.235167 q -0.0413,-0.036173 0,-0.08785 l 0.42891,-0.5270979 q 0.0362,-0.046509 0.0775,-0.010335 z m -1.13171,-0.6304503 q 0.17053,-0.098185 0.3359,-0.1963698 0.16536,-0.098185 0.32039,-0.2118727 0.1602,-0.1136878 0.31522,-0.2480461 0.15503,-0.1343583 0.29973,-0.30489 -0.13953,-0.041341 -0.29456,-0.1395259 -0.15503,-0.098185 -0.24804,-0.2118727 -0.0465,-0.056844 -0.0568,-0.1446936 -0.0103,-0.093017 0.0155,-0.1705316 0.0413,-0.1240231 0.11369,-0.2687166 0.0775,-0.1446936 0.18087,-0.263549 0.10335,-0.1188554 0.22738,-0.1912022 0.12919,-0.077514 0.25838,-0.072347 0.16019,0.010335 0.23254,0.1550288 0.0724,0.139526 0.0879,0.3255605 0.0207,0.1860346 0,0.3669015 -0.0155,0.180867 -0.0258,0.263549 0,0.025838 0.0155,0.041341 0.062,0.036173 0.0827,0.067179 0.0258,0.031006 0.0413,0.072347 0.031,0.077514 0.0103,0.1860346 -0.0155,0.1085202 -0.062,0.1653641 -0.0413,0.051676 -0.0724,0.051676 -0.031,-0.00517 -0.062,-0.051676 -0.0258,-0.031006 -0.0517,-0.056844 -0.0207,-0.031006 -0.0672,-0.051676 -0.1447,0.1756993 -0.31006,0.3358957 -0.1602,0.1601965 -0.34106,0.2945548 -0.18604,0.1291906 -0.38758,0.2325432 -0.20153,0.1033525 -0.42374,0.1705316 -0.0879,0.025838 -0.18087,0.036173 -0.093,0.00517 -0.10335,-0.02067 -0.0103,-0.031006 0.0362,-0.072347 0.0465,-0.046509 0.11369,-0.08785 z m 0.97151,-1.7363226 q 0.10852,0.1498612 0.25839,0.2377108 0.14986,0.082682 0.27388,0.1136878 h 0.0103 q 0,-0.041341 0.005,-0.1085201 0.005,-0.072347 0,-0.1446936 0,-0.072347 -0.0207,-0.1395259 -0.0155,-0.067179 -0.062,-0.1136878 -0.0413,-0.036173 -0.11885,-0.031006 -0.0724,0 -0.1447,0.025838 -0.0723,0.025838 -0.13436,0.072347 -0.0568,0.041341 -0.0672,0.08785 z m -5.03327,5.5138576 q -0.0207,0.046509 -0.0672,0.139526 -0.0465,0.08785 -0.10335,0.1860345 -0.0517,0.098185 -0.10852,0.1912022 -0.0568,0.08785 -0.0982,0.1395259 -0.031,0.056844 -0.14987,0.031006 -0.54776,-0.1033525 -1.02319,-0.056844 -0.47542,0.046509 -0.94567,0.1963698 -0.40824,0.1343583 -0.77514,0.2997224 -0.36691,0.1601964 -0.72347,0.2842195 -0.68213,0.248046 -1.32292,0.3720691 -0.63561,0.124023 -1.31774,0.124023 h -0.093 q -0.16536,0 -0.24804,-0.124023 -0.0827,-0.1291907 -0.0827,-0.2842195 0,-0.1550288 0.0827,-0.2790518 0.0827,-0.1291907 0.24804,-0.1291907 h 0.093 q 0.23771,0 0.49609,-0.010335 0.25838,-0.010335 0.50643,-0.031006 0.24805,-0.020671 0.47025,-0.046509 0.22221,-0.031006 0.39274,-0.067179 0.35657,-0.077514 0.74931,-0.2170403 0.39791,-0.1446936 0.83715,-0.3255605 -0.25321,-0.036173 -0.5891,-0.08785 -0.3359,-0.056844 -0.69247,-0.1085201 -0.35656,-0.056844 -0.69763,-0.1033526 -0.34106,-0.046509 -0.59944,-0.072347 -0.0362,-0.010335 -0.10335,0.010335 -0.0672,0.02067 -0.13436,0.046509 -0.031,0.010335 -0.062,-0.010335 -0.031,-0.020671 -0.0207,-0.067179 0.062,-0.2222079 0.18086,-0.4495835 0.11886,-0.2273756 0.22221,-0.387572 0.0465,-0.067179 0.23254,-0.1550288 0.19121,-0.093017 0.45476,-0.2067051 0.26871,-0.1188554 0.57877,-0.2635489 0.31006,-0.1446936 0.60461,-0.3152253 0.29456,-0.1756993 0.53744,-0.3824043 0.24287,-0.2118727 0.37206,-0.4547512 0.10336,-0.1963698 0.22738,-0.4392483 0.12402,-0.2428784 0.26872,-0.4495835 0.14986,-0.2118727 0.31522,-0.346231 0.17053,-0.1395259 0.3669,-0.1291907 0.1757,0.010335 0.3359,0.1860346 0.1602,0.1756993 0.28422,0.4185778 0.12402,0.2428784 0.19637,0.5064274 0.0723,0.263549 0.0723,0.4444159 0,0.093017 -0.0362,0.2170403 -0.0362,0.1240231 -0.0879,0.2377108 -0.0465,0.1085202 -0.10335,0.1963699 -0.0568,0.082682 -0.0982,0.098185 -0.10852,0.041341 -0.29972,0.031006 -0.18603,-0.010335 -0.41341,-0.067179 -0.22221,-0.062011 -0.45475,-0.1705317 -0.23254,-0.1136878 -0.42374,-0.2790518 -0.45476,0.594277 -0.97669,0.940508 -0.52193,0.346231 -1.14721,0.527098 0.37724,0.067179 0.70797,0.1291906 0.33072,0.056844 0.64078,0.1136878 0.31523,0.051676 0.62528,0.098185 0.31523,0.046509 0.65629,0.08785 0.53227,0.062011 1.10071,0.1188554 0.56844,0.051676 1.1007,0.072347 0.0775,0.00517 0.0413,0.072347 z m -1.31257,-2.3719406 q -0.031,-0.077514 -0.093,-0.2170404 -0.062,-0.1395259 -0.14986,-0.2790518 -0.0827,-0.1395259 -0.1912,-0.2377108 -0.10336,-0.1033526 -0.22221,-0.1033526 -0.0517,0 -0.12919,0.051676 -0.0724,0.046509 -0.1447,0.1188554 -0.0723,0.067179 -0.12919,0.1395259 -0.0568,0.067179 -0.0775,0.1136878 0.24804,0.2170403 0.5271,0.3100576 0.28422,0.093017 0.60978,0.1033526 z m -1.79317,-2.5683103 q 0.17053,-0.098185 0.33589,-0.1963698 0.16537,-0.098185 0.3204,-0.2118727 0.16019,-0.1136878 0.31522,-0.2480461 0.15503,-0.1343583 0.29972,-0.30489 -0.13952,-0.041341 -0.29455,-0.1395259 -0.15503,-0.098185 -0.24805,-0.2118727 -0.0465,-0.056844 -0.0568,-0.1446936 -0.0103,-0.093017 0.0155,-0.1705317 0.0413,-0.124023 0.11369,-0.26871654 0.0775,-0.14469355 0.18087,-0.26354897 0.10335,-0.11885542 0.22737,-0.19120219 0.12919,-0.0775144 0.25838,-0.0723468 0.1602,0.0103353 0.23255,0.15502881 0.0723,0.13952592 0.0879,0.32556048 0.0207,0.18603461 0,0.36690151 -0.0155,0.180867 -0.0258,0.263549 0,0.025838 0.0155,0.041341 0.062,0.036173 0.0827,0.067179 0.0258,0.031006 0.0413,0.072347 0.031,0.077514 0.0103,0.1860346 -0.0155,0.1085201 -0.062,0.165364 -0.0413,0.051676 -0.0724,0.051676 -0.031,-0.00517 -0.062,-0.051676 -0.0258,-0.031006 -0.0517,-0.056844 -0.0207,-0.031006 -0.0672,-0.051676 -0.14469,0.1756993 -0.31005,0.3358957 -0.1602,0.1601964 -0.34107,0.2945547 -0.18603,0.1291907 -0.38757,0.2325432 -0.20154,0.1033526 -0.42374,0.1705317 -0.0879,0.025838 -0.18087,0.036173 -0.093,0.00517 -0.10335,-0.020671 -0.0103,-0.031006 0.0362,-0.072347 0.0465,-0.046509 0.11369,-0.08785 z m 0.97151,-1.7363226 q 0.10852,0.1498612 0.25838,0.2377108 0.14986,0.082682 0.27389,0.1136878 h 0.0103 q 0,-0.041341 0.005,-0.1085202 0.005,-0.072347 0,-0.1446935 0,-0.072347 -0.0207,-0.1395259 -0.0155,-0.0671792 -0.062,-0.11368782 -0.0413,-0.0361734 -0.11886,-0.0310058 -0.0723,0 -0.14469,0.0258381 -0.0724,0.0258381 -0.13436,0.0723468 -0.0568,0.041341 -0.0672,0.0878497 z m -2.35127,1.9998712 q -0.25838,0.1188554 -0.5426,0.2480461 -0.27905,0.1291906 -0.5426,0.248046 -0.26355,0.1188555 -0.49093,0.222208 -0.22737,0.1033525 -0.38757,0.1705317 -0.0362,0.015503 -0.0517,0 -0.0155,-0.015503 0,-0.046509 l 0.25321,-0.5064274 q 0.0258,-0.041341 0.0517,-0.056844 0.031,-0.020671 0.0568,-0.036173 l 1.88618,-0.8371555 q 0.0827,-0.036173 0.0517,0.041341 l -0.21187,0.4805893 q -0.0155,0.046509 -0.0724,0.072347 z m -3.7982,5.8755918 q 0.0155,0.00517 0.031,0 0.0155,-0.010335 -0.0103,-0.046509 -0.0879,-0.098185 -0.14986,-0.2015374 -0.062,-0.1085202 -0.10852,-0.2015375 -0.0465,-0.093017 -0.0775,-0.165364 -0.031,-0.072347 -0.0517,-0.1136878 -0.0517,-0.093017 -0.13435,-0.077514 -0.093,0.020671 -0.22738,0.1085201 -0.13436,0.08785 -0.22221,0.2067051 -0.031,0.036173 -0.031,0.051676 0,0.015503 0.0413,0.041341 0.0827,0.062012 0.20154,0.1291907 0.11885,0.067179 0.24804,0.124023 0.12919,0.051676 0.25838,0.093017 0.12919,0.041341 0.23255,0.051676 z m 0.51159,0.4805892 q -0.0465,0.1085202 -0.10335,0.2325433 -0.0517,0.1291906 -0.0982,0.1446935 -0.17053,0.031006 -0.43924,-0.025838 -0.26872,-0.051676 -0.53227,-0.1601965 -0.26355,-0.1085201 -0.46509,-0.2583813 -0.19637,-0.1498612 -0.21704,-0.3152252 -0.13952,0.1860345 -0.29972,0.3048899 -0.15503,0.1136878 -0.31522,0.1860346 -0.16537,0.067179 -0.32556,0.093017 -0.15503,0.025838 -0.29456,0.025838 h -0.093 q -0.16536,0 -0.24804,-0.124023 -0.0827,-0.1291907 -0.0827,-0.2790519 0,-0.1550288 0.0827,-0.2790518 0.0827,-0.1291907 0.24804,-0.1291907 h 0.093 q 0.1912,0 0.38241,-0.010335 0.1912,-0.010335 0.37206,-0.062012 0.18087,-0.051676 0.3514,-0.1601964 0.17053,-0.1136878 0.3204,-0.3152252 0.0827,-0.1085202 0.18086,-0.2170403 0.0982,-0.1136878 0.19637,-0.2015375 0.10335,-0.08785 0.20671,-0.1395259 0.10335,-0.056844 0.19637,-0.056844 0.093,0 0.20153,0.08785 0.10852,0.08785 0.21705,0.206705 0.11368,0.1136878 0.21187,0.2377109 0.10335,0.124023 0.1757,0.1912021 0.12402,0.1291907 0.26355,0.2118727 0.13952,0.082682 0.28938,0.1343583 0.14986,0.051676 0.31523,0.072347 0.16536,0.02067 0.34623,0.02067 h 0.093 q 0.16019,0 0.24288,0.1291907 0.0827,0.124023 0.0827,0.2790518 0,0.1498612 -0.0827,0.2790519 -0.0827,0.124023 -0.24288,0.124023 h -0.093 q -0.14986,0 -0.29972,-0.00517 -0.14986,-0.00517 -0.29456,-0.031006 -0.14469,-0.02067 -0.28422,-0.067179 -0.13436,-0.046509 -0.25838,-0.1240231 z m -1.27641,-4.7335459 q -0.11368,0.2273756 -0.25838,0.3410634 -0.15503,0.1188554 -0.3669,0.1240231 -0.17053,0.00517 -0.29972,-0.08785 -0.12402,-0.093017 -0.14469,-0.3255605 -0.0103,-0.1033525 0.0103,-0.2118727 0.0207,-0.1136878 0.062,-0.2118727 0.0413,-0.093017 0.093,-0.1601964 0.0568,-0.072347 0.11886,-0.093017 0.062,-0.00517 0.0103,0.093017 -0.031,0.056844 -0.0517,0.1343583 -0.0155,0.077514 -0.0207,0.1550288 0,0.072347 0.0155,0.124023 0.0155,0.051676 0.0672,0.098185 0.0775,0.056844 0.16536,0.056844 0.0879,-0.00517 0.17053,-0.041341 0.0879,-0.036173 0.15503,-0.082682 0.0724,-0.051676 0.14469,-0.1343583 0.0672,-0.077514 0.0982,-0.1963698 0.031,-0.1188554 0.0413,-0.1963698 0.005,-0.067179 0.0362,-0.1343583 0.031,-0.067179 0.10336,-0.067179 0.0155,0 0.0207,0.031006 0.0103,0.025838 0.0155,0.062012 0.005,0.036173 0.005,0.072347 0,0.031006 0,0.046509 0,0.1498612 0.0465,0.2377108 0.0465,0.082682 0.18603,0.1136878 0.0724,0.015503 0.18603,-0.015503 0.11886,-0.031006 0.20671,-0.1033526 0.0103,-0.010335 0.005,-0.056844 -0.005,-0.046509 -0.0207,-0.098185 -0.0103,-0.051676 -0.0362,-0.1085201 -0.0207,-0.062012 -0.0258,-0.072347 l 0.1912,-0.3617339 q 0.0517,0.025838 0.0775,0.1136878 0.031,0.08785 0.0362,0.2015374 0.0103,0.1085202 0,0.222208 -0.0103,0.1136878 -0.0258,0.1912022 -0.062,0.1912022 -0.17053,0.346231 -0.10336,0.1550288 -0.3204,0.1963698 -0.1912,0.036173 -0.32039,-0.025838 -0.12919,-0.062012 -0.20671,-0.1756994 z m 0.93018,-2.0773859 q -0.25838,0.1188554 -0.5426,0.2480461 -0.27905,0.1291906 -0.5426,0.2480461 -0.26355,0.1188554 -0.49093,0.2222079 -0.22737,0.1033525 -0.38757,0.1705317 -0.0362,0.015503 -0.0517,0 -0.0155,-0.015503 0,-0.046509 l 0.25322,-0.5064274 q 0.0258,-0.041341 0.0517,-0.056844 0.031,-0.020671 0.0568,-0.036173 l 1.88618,-0.8371555 q 0.0827,-0.036173 0.0517,0.041341 l -0.21188,0.4805893 q -0.0155,0.046509 -0.0723,0.072347 z m -5.06427,3.6690148 0.14986,-0.6046124 q 0.0155,-0.062011 0.062,-0.062011 0.0465,0 0.062,0.056844 l 0.5271,1.8655133 q 0.10335,0.3669015 0.25838,0.6407857 0.1602,0.2738842 0.43408,0.4599188 0.1602,0.1085201 0.3669,0.1550288 0.20671,0.046509 0.45992,0.046509 h 0.093 q 0.16536,0 0.24805,0.1291907 0.0827,0.1291907 0.0827,0.2790518 0,0.1498612 -0.0827,0.2790519 -0.0827,0.124023 -0.24805,0.124023 h -0.093 q -0.28422,0 -0.53226,-0.051676 -0.24288,-0.056844 -0.45475,-0.2015375 -0.20671,-0.1395259 -0.38758,-0.387572 -0.1757,-0.2532137 -0.33072,-0.6459533 -0.13436,0.4030748 -0.43925,0.6666238 -0.24805,0.2118727 -0.58394,0.3203929 -0.3359,0.1033525 -0.65629,0.1446935 -0.31523,0.046509 -0.59945,0.02067 -0.27905,-0.031006 -0.42891,-0.1705317 -0.0775,-0.072347 -0.11369,-0.1963698 -0.031,-0.124023 -0.031,-0.2583813 0,-0.1395259 0.0207,-0.2687166 0.0258,-0.1343583 0.0672,-0.2273756 0.0155,-0.031006 0.0413,-0.031006 0.031,0 0.0465,0.031006 0.093,0.1705317 0.21188,0.2325432 0.11885,0.056844 0.28422,0.072347 0.24288,0.025838 0.5581,-0.010335 0.31523,-0.036173 0.61495,-0.1291906 0.29972,-0.08785 0.53743,-0.2273756 0.24288,-0.1446935 0.33073,-0.3307281 z m -5.8911,1.6794787 q -0.11369,-0.2170404 -0.32556,-0.3720692 -0.20671,-0.1550288 -0.44442,-0.2377108 -0.23771,-0.082682 -0.47542,-0.08785 -0.23771,-0.010335 -0.41341,0.062011 -0.24288,0.1033525 -0.49609,0.2687166 -0.25321,0.165364 -0.49092,0.3669015 -0.23772,0.2015374 -0.45992,0.428913 -0.21704,0.2222079 -0.40308,0.4340806 0.34106,0.051676 0.84232,0.025838 0.50126,-0.025838 1.00769,-0.1291907 0.50126,-0.1085202 0.94568,-0.2945547 0.44958,-0.1912022 0.71313,-0.4650864 z m -3.95323,0.816485 q 0.25321,-0.3100576 0.5581,-0.6304505 0.30489,-0.3203928 0.62011,-0.6097799 0.3204,-0.2893871 0.63562,-0.527098 0.31523,-0.2428784 0.59428,-0.3979072 0.23771,-0.1291907 0.57361,-0.1085202 0.34106,0.02067 0.65628,0.1550288 0.31523,0.1291907 0.53744,0.3565663 0.22737,0.2222079 0.23771,0.5064274 -0.0155,0.4805893 -0.22221,0.8371555 -0.2067,0.3565663 -0.53743,0.6046124 -0.33073,0.2480461 -0.75964,0.4030749 -0.42375,0.1498611 -0.8785,0.2273755 -0.57877,0.093017 -1.15755,0.077514 -0.5736,-0.015503 -1.02836,-0.098185 -0.0413,0.062012 -0.093,0.1756993 -0.0465,0.1188555 -0.0775,0.1963699 -0.0568,0.1343586 -0.14986,0.1136886 -0.0465,-0.01034 -0.062,-0.06718 -0.0155,-0.051677 0,-0.124023 0.0207,-0.093017 0.0465,-0.180867 0.031,-0.08785 0.0723,-0.1912022 -0.27905,-0.1033525 -0.45991,-0.2325432 -0.1757,-0.1291906 -0.37724,-0.3617339 -0.13436,0.1860346 -0.28422,0.3255605 -0.14469,0.139526 -0.32039,0.2325432 -0.35657,0.1860346 -0.85783,0.1912022 h -0.093 q -0.16536,0 -0.24287,-0.124023 -0.0827,-0.1291907 -0.0827,-0.2842195 0,-0.1498612 0.0827,-0.2738842 0.0775,-0.1291907 0.24287,-0.1291907 h 0.093 q 0.26355,0 0.49093,-0.025838 0.23254,-0.025838 0.44958,-0.1550288 0.23771,-0.1395259 0.37207,-0.3720691 0.13436,-0.2325432 0.24804,-0.4702541 0.0362,-0.072347 0.093,-0.093017 0.062,-0.025838 0.0672,0.051676 0.005,0.2015375 0.10335,0.3772368 0.10336,0.1705316 0.24805,0.3048899 0.14986,0.1291907 0.32556,0.2170404 0.1757,0.082682 0.3359,0.1033525 z m 1.70015,2.6251548 q -0.50643,0.160196 -0.99736,0.32556 -0.49092,0.165364 -0.9405,0.310058 -0.0827,0.02584 -0.0413,-0.05168 l 0.21188,-0.392739 q 0.0155,-0.03101 0.0258,-0.04651 0.0155,-0.0155 0.0465,-0.02584 0.13953,-0.05168 0.36691,-0.129191 0.22737,-0.07235 0.49092,-0.160196 0.26872,-0.08268 0.54777,-0.170532 0.27905,-0.08785 0.53226,-0.165364 0.0413,-0.0155 0.0517,-0.01034 0.0103,0.01034 -0.0103,0.05168 l -0.2222,0.403075 q -0.0155,0.02067 -0.031,0.03617 -0.0103,0.02067 -0.031,0.02584 z m -6.75409,-5.1211185 0.14986,-0.6046124 q 0.0155,-0.062011 0.062,-0.062011 0.0465,0 0.062,0.056844 l 0.5271,1.8655133 q 0.10335,0.3669015 0.25838,0.6407857 0.1602,0.2738842 0.43408,0.4599188 0.1602,0.1085201 0.3669,0.1550288 0.20671,0.046509 0.45992,0.046509 h 0.093 q 0.16536,0 0.24805,0.1291907 0.0827,0.1291907 0.0827,0.2790518 0,0.1498612 -0.0827,0.2790519 -0.0827,0.124023 -0.24805,0.124023 h -0.093 q -0.28422,0 -0.53226,-0.051676 -0.24288,-0.056844 -0.45475,-0.2015375 -0.20671,-0.1395259 -0.38758,-0.387572 -0.1757,-0.2532137 -0.33072,-0.6459533 -0.13436,0.4030748 -0.43925,0.6666238 -0.24805,0.2118727 -0.58394,0.3203929 -0.3359,0.1033525 -0.65629,0.1446935 -0.31523,0.046509 -0.59945,0.02067 -0.27905,-0.031006 -0.42891,-0.1705317 -0.0775,-0.072347 -0.11369,-0.1963698 -0.031,-0.124023 -0.031,-0.2583813 0,-0.1395259 0.0207,-0.2687166 0.0258,-0.1343583 0.0672,-0.2273756 0.0155,-0.031006 0.0413,-0.031006 0.031,0 0.0465,0.031006 0.093,0.1705317 0.21187,0.2325432 0.11885,0.056844 0.28422,0.072347 0.24288,0.025838 0.5581,-0.010335 0.31523,-0.036173 0.61495,-0.1291906 0.29972,-0.08785 0.53743,-0.2273756 0.24288,-0.1446935 0.33073,-0.3307281 z m -0.27389,-2.1083916 q -0.11368,0.2273756 -0.25838,0.3410634 -0.15503,0.1188554 -0.3669,0.124023 -0.17053,0.00517 -0.29972,-0.08785 -0.12402,-0.093017 -0.1447,-0.3255605 -0.0103,-0.1033526 0.0103,-0.2118727 0.0207,-0.1136878 0.062,-0.2118727 0.0413,-0.093017 0.093,-0.1601964 0.0568,-0.072347 0.11885,-0.093017 0.062,-0.00517 0.0103,0.093017 -0.031,0.056844 -0.0517,0.1343583 -0.0155,0.077514 -0.0207,0.1550288 0,0.072347 0.0155,0.124023 0.0155,0.051676 0.0672,0.098185 0.0775,0.056844 0.16537,0.056844 0.0879,-0.00517 0.17053,-0.041341 0.0879,-0.036173 0.15503,-0.082682 0.0724,-0.051676 0.14469,-0.1343583 0.0672,-0.077514 0.0982,-0.1963699 0.031,-0.1188554 0.0413,-0.1963698 0.005,-0.067179 0.0362,-0.1343583 0.031,-0.067179 0.10335,-0.067179 0.0155,0 0.0207,0.031006 0.0103,0.025838 0.0155,0.062012 0.005,0.036173 0.005,0.072347 0,0.031006 0,0.046509 0,0.1498612 0.0465,0.2377108 0.0465,0.082682 0.18604,0.1136878 0.0724,0.015503 0.18603,-0.015503 0.11886,-0.031006 0.20671,-0.1033525 0.0103,-0.010335 0.005,-0.056844 -0.005,-0.046509 -0.0207,-0.098185 -0.0103,-0.051676 -0.0362,-0.1085202 -0.0207,-0.062012 -0.0258,-0.072347 l 0.19121,-0.3617338 q 0.0517,0.025838 0.0775,0.1136878 0.031,0.08785 0.0362,0.2015374 0.0103,0.1085202 0,0.222208 -0.0103,0.1136877 -0.0258,0.1912021 -0.062,0.1912022 -0.17054,0.346231 -0.10335,0.1550288 -0.32039,0.1963699 -0.1912,0.036173 -0.32039,-0.025838 -0.12919,-0.062012 -0.20671,-0.1756993 z m 0.83716,7.1003191 q -0.50643,0.160196 -0.99736,0.32556 -0.49092,0.165364 -0.9405,0.310058 -0.0827,0.02584 -0.0413,-0.05168 l 0.21187,-0.39274 q 0.0155,-0.03101 0.0258,-0.04651 0.0155,-0.0155 0.0465,-0.02584 0.13952,-0.05168 0.3669,-0.12919 0.22737,-0.07235 0.49092,-0.160197 0.26872,-0.08268 0.54777,-0.170531 0.27905,-0.08785 0.53227,-0.165364 0.0413,-0.0155 0.0517,-0.01034 0.0103,0.01034 -0.0103,0.05168 l -0.22221,0.403074 q -0.0155,0.02067 -0.031,0.03617 -0.0103,0.02067 -0.031,0.02584 z m -4.50617,-4.4389915 q 0.14469,0.1446936 0.26354,0.3152253 0.12403,0.1705317 0.21705,0.3565662 0.093,0.1860346 0.14469,0.3824044 0.0517,0.1963698 0.0517,0.3979073 0,0.08785 -0.0103,0.1963698 -0.0103,0.1085201 -0.031,0.2222079 -0.0207,0.1085202 -0.0568,0.2118727 -0.031,0.098185 -0.0775,0.1705317 -0.12403,0.1860346 -0.34624,0.2997224 -0.21704,0.1136878 -0.48058,0.1705316 -0.26355,0.056844 -0.53744,0.077514 -0.26871,0.015503 -0.49092,0.015503 h -0.093 q -0.1602,0 -0.24288,-0.124023 -0.0827,-0.1291907 -0.0827,-0.2842195 0,-0.1550288 0.0827,-0.2790518 0.0827,-0.1291907 0.24288,-0.1291907 h 0.093 q 0.24804,0 0.49092,-0.00517 0.24805,-0.010335 0.46509,-0.031006 0.22221,-0.020671 0.39791,-0.056844 0.1757,-0.041341 0.27905,-0.1085201 0.0568,-0.031006 0.0568,-0.077514 0.005,-0.046509 -0.0207,-0.1188555 -0.0517,-0.1343583 -0.11885,-0.248046 -0.062,-0.1136878 -0.13953,-0.2170404 -0.0827,-0.1085201 -0.17053,-0.206705 -0.0879,-0.098185 -0.18604,-0.1963699 l 0.17054,-0.7234677 q 0.0155,-0.056844 0.0517,-0.056844 0.0362,0 0.0775,0.046509 z m 0.52709,4.8420665 q -0.0258,0.03101 -0.0413,0.03101 -0.0155,0.0052 -0.0568,-0.02584 l -0.61495,-0.480589 -0.40307,0.552936 q -0.0362,0.04651 -0.0775,0.0155 l -0.65629,-0.506427 q -0.0362,-0.02584 -0.0103,-0.06201 l 0.41858,-0.594277 q 0.0207,-0.03101 0.0362,-0.03101 0.0155,0 0.0362,0.02067 l 0.62012,0.470254 0.42374,-0.542601 q 0.031,-0.04134 0.062,-0.0155 l 0.65629,0.547769 q 0.0362,0.02584 0,0.07235 z m -3.0799,-2.8318596 q -0.0103,-0.067179 -0.0724,-0.1550289 -0.062,-0.093017 -0.15503,-0.1756993 -0.0879,-0.08785 -0.1912,-0.1446935 -0.10335,-0.062011 -0.1912,-0.062011 -0.062,0 -0.13953,0.031006 -0.0723,0.031006 -0.13952,0.082682 -0.062,0.046509 -0.10852,0.1085201 -0.0413,0.062012 -0.0413,0.1188554 0.0465,0.1085202 0.18086,0.1550288 0.13953,0.046509 0.30489,0.062012 0.1602,0.015503 0.31523,0.00517 0.15503,-0.010335 0.23771,-0.025838 z m -0.72864,0.7958145 q -0.37207,-0.062012 -0.50642,-0.2945548 -0.13436,-0.2377108 -0.13436,-0.5684389 0,-0.1705317 0.0465,-0.387572 0.0465,-0.2170403 0.14469,-0.4134101 0.0982,-0.1963699 0.25321,-0.3307282 0.15503,-0.1343583 0.37207,-0.1343583 0.21188,0 0.39791,0.1446936 0.18604,0.1395259 0.3359,0.3410634 0.14986,0.206705 0.25321,0.4392482 0.10852,0.2273756 0.15503,0.4030749 h 0.61495 0.10335 q 0.16536,0 0.24804,0.1291907 0.0827,0.1291907 0.0827,0.2790518 0,0.1498612 -0.0827,0.2790519 -0.0827,0.124023 -0.24804,0.124023 h -0.60461 q 0.0155,0.139526 0.0103,0.3358958 -0.005,0.1963701 -0.0362,0.3669011 -0.10335,0.465087 -0.40308,0.821653 -0.29972,0.356566 -0.70796,0.599445 -0.40308,0.248046 -0.87333,0.372069 -0.47025,0.124023 -0.9095,0.124023 -0.43925,0 -0.80615,-0.134358 -0.36174,-0.129191 -0.62529,-0.377237 -0.25838,-0.248046 -0.40307,-0.604612 -0.14469,-0.351399 -0.14469,-0.795815 0,-0.4805893 0.16019,-0.9456757 0.1602,-0.4650864 0.42892,-0.8681613 0.031,-0.046509 0.0568,-0.046509 0.0258,0 0.0413,0.025838 0.0207,0.02067 0.0258,0.051676 0.005,0.031006 -0.005,0.051676 -0.0775,0.180867 -0.1602,0.3927397 -0.0827,0.2118727 -0.13435,0.4547511 -0.0465,0.2377108 -0.0413,0.5012598 0.005,0.2635494 0.10852,0.5426004 0.14469,0.403075 0.52709,0.671792 0.38241,0.273884 1.02319,0.263549 0.37207,-0.01034 0.72864,-0.08785 0.36173,-0.07235 0.69246,-0.21704 0.33073,-0.149861 0.62528,-0.366902 0.29456,-0.21704 0.53227,-0.506427 0.0103,-0.118855 -0.031,-0.3152253 -0.0413,-0.1912022 -0.0827,-0.3100576 -0.24288,0.031006 -0.51676,0.031006 -0.26872,0 -0.5116,-0.041341 z m 0.55811,-3.1522524 q -0.0258,0.031006 -0.0413,0.036173 -0.0155,0 -0.0568,-0.031006 l -0.59944,-0.4650864 -0.39274,0.5374331 q -0.0362,0.046509 -0.0775,0.015503 l -0.64078,-0.4960921 q -0.0362,-0.025838 -0.0103,-0.056844 l 0.40825,-0.5839419 q 0.0207,-0.031006 0.0362,-0.031006 0.0155,0 0.0362,0.020671 l 0.60461,0.4599188 0.41341,-0.527098 q 0.031,-0.041341 0.062,-0.015503 l 0.64078,0.5322655 q 0.0362,0.025838 0,0.072347 z m -7.76178,-3.5346567 q 0.0827,0.00517 0.0775,0.1912022 -0.0103,0.1963698 0.005,0.387572 0.0155,0.1860346 0.0413,0.3772368 0.0517,0.4599188 0.12402,0.9508433 0.0724,0.4857569 0.14469,0.9818491 0.0672,0.4909245 0.13436,0.9818491 0.0672,0.4909245 0.11369,0.9560109 0.0207,0.180867 0.0258,0.4237454 0.0103,0.2428785 -0.005,0.4960922 -0.0103,0.2480461 -0.0568,0.4805893 -0.0413,0.2325432 -0.11886,0.387572 -0.0413,0.08785 -0.0982,0.1136878 -0.0465,0.00517 -0.0413,-0.041341 -0.031,-0.4495836 -0.0775,-0.9043347 -0.0413,-0.4599188 -0.10852,-0.9353405 -0.0672,-0.4909245 -0.13436,-0.9715138 -0.0672,-0.4805893 -0.12919,-0.9611786 -0.0672,-0.4805893 -0.13436,-0.9611786 -0.062,-0.4805892 -0.12402,-0.9663462 0.0155,-0.1188554 0.0465,-0.2428784 0.031,-0.1291907 0.0879,-0.263549 0.12402,-0.3358957 0.16536,-0.4082425 0.0465,-0.072347 0.062,-0.072347 z m -2.21691,-0.2893871 q 0.0155,-0.046509 0.0413,-0.056844 0.0258,-0.010335 0.0413,0.056844 0.0413,0.1240231 0.093,0.2532137 0.0517,0.1291907 0.11886,0.2532138 0.0724,0.124023 0.16536,0.2325432 0.093,0.1033525 0.21188,0.1756993 -0.0724,0.124023 -0.1292,0.2170403 -0.0517,0.08785 -0.0879,0.165364 -0.0362,0.072347 -0.0517,0.1446936 -0.0155,0.067179 -0.005,0.1446935 0.0568,0.4960922 0.12919,0.997352 0.0775,0.4960922 0.1447,0.9921844 0.0723,0.4960921 0.12402,0.9921843 0.0568,0.4960922 0.0723,0.997352 0.005,0.165364 -0.0207,0.3358957 -0.0258,0.1705317 -0.0827,0.3255605 -0.0568,0.1550288 -0.14469,0.2945547 -0.0827,0.1343583 -0.1912,0.2273756 -0.14986,0.1291907 -0.37207,0.1860346 -0.21704,0.051676 -0.53227,0.051676 h -0.093 q -0.16536,0 -0.24804,-0.124023 -0.0879,-0.1291907 -0.0879,-0.2790519 0,-0.1550288 0.0879,-0.2790518 0.0827,-0.1291907 0.24804,-0.1291907 h 0.093 q 0.17053,0 0.33073,-0.010335 0.1602,-0.015503 0.29455,-0.046509 0.13436,-0.036173 0.22738,-0.093017 0.0982,-0.062012 0.13953,-0.1550288 -0.10336,-1.0903692 -0.26872,-2.1497327 -0.16536,-1.0645311 -0.32039,-2.1393975 -0.031,-0.2170403 -0.0672,-0.4237454 -0.031,-0.2118727 -0.14986,-0.4082425 -0.0413,-0.056844 -0.0465,-0.072347 -0.005,-0.020671 0.0258,-0.082682 0.0879,-0.1498612 0.16019,-0.30489 0.0775,-0.1601964 0.14986,-0.2893871 z m -2.12389,6.2786666 q 0.0155,0.00517 0.031,0 0.0155,-0.010335 -0.0103,-0.046509 -0.0879,-0.098185 -0.14986,-0.2015374 -0.062,-0.1085202 -0.10852,-0.2015375 -0.0465,-0.093017 -0.0775,-0.165364 -0.031,-0.072347 -0.0517,-0.1136878 -0.0517,-0.093017 -0.13436,-0.077514 -0.093,0.020671 -0.22738,0.1085201 -0.13436,0.08785 -0.2222,0.2067051 -0.031,0.036173 -0.031,0.051676 0,0.015503 0.0413,0.041341 0.0827,0.062012 0.20154,0.1291907 0.11885,0.067179 0.24804,0.124023 0.12919,0.051676 0.25839,0.093017 0.12919,0.041341 0.23254,0.051676 z m 0.51159,0.4805892 q -0.0465,0.1085202 -0.10335,0.2325433 -0.0517,0.1291906 -0.0982,0.1446935 -0.17054,0.031006 -0.43925,-0.025838 -0.26872,-0.051676 -0.53227,-0.1601965 -0.26355,-0.1085201 -0.46508,-0.2583813 -0.19637,-0.1498612 -0.21704,-0.3152252 -0.13953,0.1860345 -0.29973,0.3048899 -0.15503,0.1136878 -0.31522,0.1860346 -0.16537,0.067179 -0.32556,0.093017 -0.15503,0.025838 -0.29456,0.025838 h -0.093 q -0.16537,0 -0.24805,-0.124023 -0.0827,-0.1291907 -0.0827,-0.2790519 0,-0.1550288 0.0827,-0.2790518 0.0827,-0.1291907 0.24805,-0.1291907 h 0.093 q 0.1912,0 0.38241,-0.010335 0.1912,-0.010335 0.37207,-0.062012 0.18086,-0.051676 0.35139,-0.1601964 0.17054,-0.1136878 0.3204,-0.3152252 0.0827,-0.1085202 0.18086,-0.2170403 0.0982,-0.1136878 0.19637,-0.2015375 0.10336,-0.08785 0.20671,-0.1395259 0.10335,-0.056844 0.19637,-0.056844 0.093,0 0.20154,0.08785 0.10852,0.08785 0.21704,0.206705 0.11368,0.1136878 0.21187,0.2377109 0.10335,0.124023 0.1757,0.1912021 0.12402,0.1291907 0.26355,0.2118727 0.13952,0.082682 0.28939,0.1343583 0.14986,0.051676 0.31522,0.072347 0.16536,0.02067 0.34623,0.02067 h 0.093 q 0.16019,0 0.24288,0.1291907 0.0827,0.124023 0.0827,0.2790518 0,0.1498612 -0.0827,0.2790519 -0.0827,0.124023 -0.24288,0.124023 h -0.093 q -0.14986,0 -0.29972,-0.00517 -0.14986,-0.00517 -0.29456,-0.031006 -0.14469,-0.02067 -0.28422,-0.067179 -0.13435,-0.046509 -0.25838,-0.1240231 z m -0.2067,2.1083915 q -0.50643,0.160197 -0.99735,0.325561 -0.49093,0.165364 -0.94051,0.310057 -0.0827,0.02584 -0.0413,-0.05168 l 0.21187,-0.39274 q 0.0155,-0.03101 0.0258,-0.04651 0.0155,-0.0155 0.0465,-0.02584 0.13952,-0.05168 0.3669,-0.129191 0.22737,-0.07235 0.49092,-0.160196 0.26872,-0.08268 0.54777,-0.170532 0.27905,-0.08785 0.53227,-0.165364 0.0413,-0.0155 0.0517,-0.01033 0.0103,0.01033 -0.0103,0.05168 l -0.22221,0.403075 q -0.0155,0.02067 -0.031,0.03617 -0.0103,0.02067 -0.031,0.02584 z m -4.88858,-4.1341011 q 0.0155,-0.051676 0.0568,-0.1498612 0.0413,-0.1033526 0.0879,-0.1963698 0.0465,-0.098185 0.0827,-0.1601965 0.0413,-0.067179 0.0517,-0.046509 0.16537,0.4909245 0.31006,0.857826 0.1447,0.3617339 0.28939,0.5942771 0.11369,0.1808669 0.23771,0.2893871 0.12919,0.1033525 0.26872,0.1601964 0.14469,0.056844 0.29972,0.077514 0.15503,0.015503 0.32556,0.015503 h 0.0982 q 0.1602,0 0.23771,0.1291907 0.0827,0.124023 0.0827,0.2790518 0,0.1498612 -0.0827,0.2790519 -0.0827,0.124023 -0.24804,0.124023 h -0.093 q -0.51676,0 -0.9095,-0.2222079 -0.39274,-0.2273756 -0.62528,-0.6304505 -0.0827,0.2377108 -0.24288,0.4030749 -0.15503,0.1601964 -0.3669,0.263549 -0.20671,0.098185 -0.45992,0.1446935 -0.24805,0.041341 -0.5271,0.041341 h -0.0827 q -0.15503,0 -0.23255,-0.124023 -0.0775,-0.1291907 -0.0775,-0.2790519 0,-0.1550288 0.0827,-0.2790518 0.0775,-0.1291907 0.23255,-0.1291907 h 0.0827 q 0.12919,0 0.32039,-0.00517 0.1912,-0.010335 0.39274,-0.046509 0.2067,-0.036173 0.39791,-0.1033526 0.19637,-0.072347 0.33589,-0.1963698 -0.031,-0.077514 -0.0775,-0.1963698 -0.0465,-0.1240231 -0.093,-0.2583814 -0.0465,-0.1343582 -0.0879,-0.2635489 -0.0413,-0.1291907 -0.0672,-0.222208 -0.0258,-0.072347 0,-0.1498611 z m -0.16536,-2.7905185 0.63562,0.5270979 q 0.0413,0.036173 0.005,0.082682 l -0.42374,0.5322655 q -0.0362,0.051676 -0.0827,0.010335 l -0.64079,-0.527098 q -0.0413,-0.036173 0,-0.08785 l 0.42891,-0.527098 q 0.0362,-0.046509 0.0775,-0.010335 z m -0.52193,-2.0722183 q 0,0.08785 0.0465,0.1395259 0.0517,0.046509 0.11885,0.072347 0.0672,0.025838 0.1447,0.031006 0.0827,0.00517 0.14469,0.00517 0.14469,0 0.26872,-0.062011 0.12919,-0.062012 0.23254,-0.1601965 0.0103,-0.093017 -0.0207,-0.1963698 -0.031,-0.1033525 -0.0982,-0.1860346 -0.0672,-0.082682 -0.16537,-0.1291906 -0.0982,-0.051676 -0.22737,-0.041341 -0.0775,0.020671 -0.15503,0.077514 -0.0775,0.051676 -0.1447,0.124023 -0.062,0.072347 -0.10335,0.1601964 -0.0413,0.082682 -0.0413,0.1653641 z m 1.20922,-0.1343583 q 0,0.1756993 -0.0465,0.3410634 -0.0465,0.165364 -0.1447,0.2945547 -0.0982,0.1291907 -0.25321,0.2067051 -0.14986,0.077514 -0.36174,0.077514 -0.26354,0 -0.44441,-0.1705317 -0.18087,-0.1705317 -0.1912,-0.4547512 0,-0.1446935 0.0413,-0.346231 0.0465,-0.206705 0.13952,-0.3979072 0.093,-0.1912022 0.23771,-0.3307282 0.14987,-0.1446935 0.35657,-0.1705316 0.19637,-0.020671 0.32556,0.077514 0.12919,0.098185 0.20671,0.2480461 0.0723,0.1550288 0.10335,0.3307281 0.031,0.1705316 0.031,0.2945547 z m -4.54751,5.5138577 q 0.062,-0.1033525 0.12402,-0.098185 0.0672,0.00517 0.0362,0.1240231 -0.0258,0.1085201 -0.0724,0.2273755 -0.0465,0.1136878 -0.10335,0.2480461 0.0362,0.08785 0.16019,0.1756993 0.12919,0.082682 0.28939,0.1446936 0.15503,0.056844 0.31523,0.082682 0.16536,0.025838 0.27388,-0.015503 0.1757,-0.056844 0.28939,-0.3152252 0.11369,-0.263549 0.19637,-0.5529361 0.0413,-0.1550288 0.10852,-0.1808669 0.0672,-0.025838 0.0775,0.1136878 0.0207,0.2583813 0.093,0.4444159 0.0724,0.1860346 0.21704,0.2997223 0.27388,0.2273756 0.89917,0.2273756 h 0.093 q 0.16537,0 0.24805,0.1291907 0.0827,0.1291907 0.0827,0.2790518 0,0.1498612 -0.0827,0.2790519 -0.0827,0.124023 -0.24805,0.124023 h -0.093 q -0.27389,0 -0.47026,-0.031006 -0.19637,-0.036173 -0.3824,-0.1136878 -0.43408,-0.1860346 -0.65629,-0.6149476 -0.0362,0.082682 -0.093,0.1963698 -0.0568,0.1136878 -0.13436,0.222208 -0.0723,0.1033525 -0.16019,0.1756993 -0.0878,0.072347 -0.18604,0.072347 -0.12919,0 -0.29972,-0.031006 -0.17053,-0.031006 -0.34106,-0.098185 -0.1757,-0.062011 -0.3359,-0.1601965 -0.15503,-0.1033525 -0.26355,-0.2428784 -0.18086,0.2067051 -0.40824,0.346231 -0.22221,0.1343583 -0.47542,0.1756993 -0.25838,0.046509 -0.5426,0 -0.27905,-0.051676 -0.57361,-0.2067051 -0.13436,0.098185 -0.29455,0.1601965 -0.1602,0.062012 -0.31523,0.093017 -0.16019,0.036173 -0.30489,0.046509 -0.14469,0.010335 -0.25321,0.010335 h -0.093 q -0.15503,0 -0.23254,-0.124023 -0.0775,-0.1291907 -0.0775,-0.2790519 0,-0.1498611 0.0775,-0.2790518 0.0775,-0.1291907 0.23254,-0.1291907 h 0.093 q 0.31006,0 0.5736,-0.02067 0.26355,-0.025838 0.4961,-0.1136878 0.22737,-0.082682 0.42891,-0.2532137 0.2067,-0.1705317 0.39274,-0.4650864 0.0672,-0.1085202 0.11369,-0.093017 0.0517,0.010335 0.031,0.1188554 -0.0362,0.1860346 -0.11885,0.3979073 -0.0827,0.2118727 -0.20154,0.3617339 0.10335,0.031006 0.25321,0.046509 0.15503,0.015503 0.32556,0 0.25322,-0.02067 0.47543,-0.1033525 0.22737,-0.08785 0.40824,-0.263549 0.11369,-0.1033525 0.21187,-0.2377108 0.10335,-0.1395259 0.19637,-0.2997224 z m 0.45475,-1.162716 q -0.031,0.036173 -0.0465,0.036173 -0.0155,0 -0.0517,-0.025838 l -0.60978,-0.4805893 -0.39791,0.552936 q -0.0362,0.046509 -0.0775,0.010335 L 176.4277,6.3617096 q -0.0362,-0.031006 -0.0103,-0.067179 l 0.41341,-0.5891095 q 0.0258,-0.031006 0.0362,-0.025838 0.0155,0 0.0362,0.015503 l 0.61494,0.470254 0.41858,-0.5374332 q 0.031,-0.041341 0.062,-0.020671 l 0.65112,0.5426008 q 0.031,0.031006 0,0.072347 z m -0.97668,-2.1807385 0.63562,0.5219303 q 0.0413,0.031006 0.005,0.072347 l -0.42375,0.5270979 q -0.0362,0.046509 -0.0827,0.010335 l -0.6406,-0.5167626 q -0.0413,-0.036173 0,-0.08785 l 0.42892,-0.5167626 q 0.0362,-0.046509 0.0775,-0.010335 z m 0.894,-1.7621609 q -0.25838,0.1188554 -0.5426,0.2480461 -0.27905,0.1291907 -0.5426,0.2480461 -0.26355,0.1188554 -0.49093,0.2222079 -0.22737,0.1033526 -0.38757,0.1705317 -0.0362,0.015503 -0.0517,0 -0.0155,-0.015503 0,-0.046509 l 0.25322,-0.5064274 q 0.0258,-0.041341 0.0517,-0.056844 0.031,-0.020671 0.0568,-0.036173 l 1.88618,-0.8371556 q 0.0827,-0.036173 0.0517,0.041341 l -0.21187,0.4805893 q -0.0155,0.046509 -0.0724,0.072347 z m -3.89122,6.025453 q 0.15502,0 0.23254,0.1291907 0.0775,0.1291906 0.0775,0.2842194 0.005,0.1498612 -0.0723,0.2790519 -0.0775,0.124023 -0.23771,0.124023 -0.0155,0 -0.0362,0 -0.0155,0 -0.0362,0 -0.46509,0 -0.76481,-0.1705317 -0.29455,-0.1705316 -0.47025,-0.4547511 -0.20671,-0.3410634 -0.27389,-0.733803 -0.062,-0.3979073 -0.10335,-0.7906469 -0.0465,-0.4495835 -0.0982,-0.8991671 -0.0517,-0.4495835 -0.10335,-0.899167 -0.0517,-0.4650864 -0.12402,-0.9353405 -0.0672,-0.4754216 -0.22221,-1.0231901 -0.0103,-0.041341 -0.0155,-0.062011 -0.005,-0.020671 0.005,-0.051676 l 0.26871,-0.6769591 q 0.0155,-0.036173 0.0413,-0.036173 0.031,0 0.0413,0.036173 0.0672,0.2945548 0.12403,0.5942771 0.0568,0.2945547 0.10852,0.6407857 0.0517,0.3410634 0.0982,0.7544735 0.0517,0.4082426 0.10852,0.9301729 0.0413,0.3617338 0.0775,0.7131324 0.0362,0.3513987 0.0723,0.7027973 0.0362,0.2790518 0.0775,0.5736066 0.0413,0.2945547 0.1757,0.5426008 0.11885,0.2118727 0.34106,0.3203928 0.22738,0.1085202 0.63562,0.1085202 0.0207,0 0.0362,0 0.0207,0 0.0362,0 z m -4.15994,-1.0335254 q -0.0775,0.00517 -0.13953,0.062012 -0.062,0.051676 -0.10852,0.124023 -0.0413,0.067179 -0.0672,0.1395259 -0.0207,0.072347 -0.0207,0.1085202 0.0672,0.1085202 0.18604,0.1498612 0.11885,0.036173 0.23771,0.036173 0.13436,-0.010335 0.24288,-0.062012 0.11369,-0.056844 0.15503,-0.1085201 0,-0.067179 -0.0517,-0.1446936 -0.0465,-0.082682 -0.12402,-0.1498612 -0.0724,-0.067179 -0.1602,-0.1085201 -0.0827,-0.046509 -0.14986,-0.046509 z m 0.67179,0.9095024 q -0.0723,0.2170403 -0.26355,0.3669015 -0.1912,0.1498611 -0.47025,0.1498611 -0.13953,0 -0.26872,-0.072347 -0.12402,-0.072347 -0.21704,-0.1860346 -0.093,-0.1188554 -0.14469,-0.2687166 -0.0465,-0.1498612 -0.031,-0.30489 0.0103,-0.1085201 0.0465,-0.2532137 0.0362,-0.1446935 0.093,-0.2945547 0.0568,-0.1498612 0.12919,-0.2997224 0.0775,-0.1498611 0.17053,-0.2635489 0.093,-0.1136878 0.19637,-0.1860346 0.10335,-0.072347 0.21704,-0.072347 0.20154,0 0.37724,0.1601965 0.1757,0.1601964 0.30489,0.4082425 0.12919,0.2428784 0.20154,0.5426008 0.0723,0.2945547 0.0672,0.5736066 -0.005,0.3720691 -0.0982,0.775144 -0.0879,0.3979072 -0.23771,0.7854794 -0.14986,0.387572 -0.34623,0.728636 -0.1912,0.346231 -0.40824,0.583942 -0.3204,0.351398 -0.68213,0.537433 -0.35657,0.191202 -0.74931,0.248046 -0.39274,0.05684 -0.82165,0 -0.42375,-0.05684 -0.8785,-0.19637 -0.0413,-0.0155 -0.0517,-0.05168 -0.0155,-0.03617 0.005,-0.07752 0.0155,-0.03617 0.062,-0.06718 0.0413,-0.02584 0.11368,-0.02067 0.43408,0.03617 0.78548,-0.0155 0.35657,-0.05168 0.66146,-0.180867 0.31006,-0.124023 0.59428,-0.320393 0.28422,-0.19637 0.58394,-0.459919 0.20154,-0.175699 0.38757,-0.408242 0.1912,-0.232544 0.34106,-0.48059 0.15503,-0.2532138 0.25839,-0.5064275 0.10335,-0.2532137 0.14469,-0.4702541 0.005,-0.046509 0,-0.1033525 -0.005,-0.062012 -0.0155,-0.1188554 -0.0103,-0.056844 -0.0258,-0.1033525 -0.0155,-0.051676 -0.031,-0.077514 z m -0.65112,4.8885749 q -0.50643,0.160196 -0.99736,0.325561 -0.49092,0.165364 -0.9405,0.310057 -0.0827,0.02584 -0.0414,-0.05168 l 0.21188,-0.39274 q 0.0155,-0.03101 0.0258,-0.04651 0.0155,-0.0155 0.0465,-0.02584 0.13953,-0.05168 0.36691,-0.12919 0.22737,-0.07235 0.49092,-0.160197 0.26872,-0.08268 0.54777,-0.170531 0.27905,-0.08785 0.53226,-0.165364 0.0413,-0.0155 0.0517,-0.01034 0.0103,0.01034 -0.0103,0.05168 l -0.22221,0.403075 q -0.0155,0.02067 -0.031,0.03617 -0.0103,0.02067 -0.031,0.02584 z m -3.48815,-3.8033733 q -0.3514,0.2945543 -0.74414,0.5426003 -0.39274,0.248047 -0.81648,0.428914 -0.42375,0.180866 -0.8785,0.279051 -0.45475,0.103353 -0.92501,0.103353 -0.47542,0 -0.89916,-0.134358 -0.41858,-0.129191 -0.73381,-0.387572 -0.31005,-0.253214 -0.50126,-0.635619 -0.18603,-0.3772363 -0.1912,-0.8733284 -0.0155,-0.5477685 0.15503,-1.0645311 0.1757,-0.5167627 0.50126,-0.9663463 0.031,-0.041341 0.0517,-0.036173 0.0207,0 0.0362,0.025838 0.0155,0.02067 0.0207,0.051676 0.005,0.025838 0.005,0.041341 -0.10335,0.2118727 -0.20154,0.4444159 -0.093,0.2325432 -0.15503,0.4754216 -0.062,0.2428785 -0.0724,0.4960922 -0.005,0.2532137 0.0827,0.5064274 0.093,0.2997224 0.25838,0.5219303 0.17053,0.222208 0.39274,0.3720692 0.22221,0.1550292 0.48575,0.2377112 0.26872,0.08268 0.56328,0.10852 0.42374,0.03617 0.87849,-0.02584 0.45475,-0.05684 0.90434,-0.191202 0.44958,-0.1395265 0.86299,-0.3410639 0.41858,-0.2015375 0.76481,-0.4495836 0.0878,-0.062012 0.093,-0.1033525 0.005,-0.046509 -0.0362,-0.077514 -0.0362,-0.036173 -0.10335,-0.056844 -0.062,-0.02067 -0.10852,-0.036173 -0.14986,-0.041341 -0.32556,-0.067179 -0.1757,-0.031006 -0.36173,-0.056844 -0.18087,-0.025838 -0.36174,-0.051676 -0.1757,-0.031006 -0.32556,-0.067179 -0.17053,-0.041341 -0.32556,-0.1240231 -0.14986,-0.082682 -0.26355,-0.1963698 -0.11369,-0.1188554 -0.18603,-0.2687166 -0.0672,-0.1498612 -0.0724,-0.3203928 -0.0103,-0.2428785 0.0465,-0.485757 0.062,-0.2428784 0.1757,-0.470254 0.11369,-0.2325432 0.26355,-0.4444159 0.15503,-0.2170403 0.33073,-0.4082425 0.18086,-0.2015375 0.38757,-0.3772368 0.2067,-0.1756993 0.41858,-0.2945547 0.21704,-0.1188554 0.43408,-0.1653641 0.21704,-0.051676 0.41857,-0.00517 0.21704,0.056844 0.34624,0.2067051 0.12919,0.1498612 0.17569,0.3410634 0.0517,0.1912021 0.0258,0.3979072 -0.0258,0.2067051 -0.11368,0.3720691 -0.0155,0.02067 -0.0465,0.015503 -0.0258,-0.00517 -0.0362,-0.036173 -0.031,-0.077514 -0.0982,-0.1756993 -0.0672,-0.098185 -0.1602,-0.1860345 -0.093,-0.08785 -0.2067,-0.1446936 -0.10852,-0.062011 -0.23255,-0.062011 -0.24804,0 -0.51676,0.1291907 -0.26355,0.1291906 -0.50643,0.3307281 -0.24288,0.2015374 -0.43408,0.4444159 -0.18603,0.2428784 -0.27905,0.470254 -0.093,0.1808669 -0.0465,0.30489 0.0517,0.1188554 0.1912,0.2170403 0.13953,0.1033526 0.32556,0.1705317 0.19121,0.067179 0.39274,0.1136878 0.20154,0.046509 0.40308,0.077514 0.20154,0.025838 0.37207,0.051676 0.12402,0.020671 0.26355,0.051676 0.14469,0.031006 0.26871,0.08785 0.12403,0.051676 0.21188,0.1395259 0.0879,0.082682 0.10335,0.2118727 0.0155,0.1136878 -0.005,0.263549 -0.0207,0.1446935 -0.0723,0.2893871 -0.0465,0.1446935 -0.11886,0.2738842 -0.0672,0.124023 -0.14986,0.1912022 z M 156.06726,11.89107 h -0.66663 q 1.54512,-2.4804606 1.54512,-4.9660891 0,-0.9715138 -0.2222,-1.9275248 -0.1757,-0.775144 -0.49093,-1.4882765 -0.20154,-0.4650864 -0.83199,-1.550288 h 0.66663 q 0.97151,1.2970743 1.4366,2.6044839 0.3979,1.1265426 0.3979,2.3564378 0,1.3952592 -0.53743,2.6975012 -0.53226,1.3022415 -1.29707,2.2737555 z m -2.45979,-4.1444364 q -0.0879,-0.1291907 -0.21704,-0.2428785 -0.12403,-0.1136878 -0.31006,-0.1033525 -0.16537,0.015503 -0.31006,0.1550288 -0.14469,0.1343583 -0.19637,0.2842195 0.12919,0.1136878 0.27905,0.1912022 0.14986,0.077514 0.31006,0.124023 0.1602,0.046509 0.33073,0.067179 0.17053,0.020671 0.34106,0.020671 0.0103,-0.015503 -0.0207,-0.082682 -0.0258,-0.072347 -0.0672,-0.1550288 -0.0413,-0.082682 -0.0827,-0.1550288 -0.0413,-0.077514 -0.0568,-0.1033525 z m -3.0179,1.1058721 q 0.21704,0 0.42892,-0.010335 0.21704,-0.015503 0.40307,-0.062012 0.18603,-0.046509 0.33073,-0.1343582 0.14986,-0.093017 0.23254,-0.2480461 0.14986,-0.2790519 0.27905,-0.5581037 0.13436,-0.2842195 0.28422,-0.5477685 0.0568,-0.098185 0.14986,-0.2170403 0.093,-0.1188554 0.20154,-0.2222079 0.11369,-0.1033526 0.23254,-0.1705317 0.12403,-0.072347 0.24288,-0.067179 0.19121,0.010335 0.37207,0.1963698 0.18087,0.1860346 0.31523,0.4392483 0.13952,0.2532137 0.21704,0.5219303 0.0827,0.2687166 0.0723,0.4444159 -0.0103,0.1085202 -0.031,0.2325432 -0.0207,0.1188555 -0.0672,0.2325432 -0.0413,0.1085202 -0.11369,0.2015375 -0.0672,0.08785 -0.17053,0.1343583 -0.2067,0.067179 -0.48059,0.015503 -0.27388,-0.056844 -0.48059,-0.1240231 -0.2067,-0.067179 -0.40824,-0.1601964 -0.20154,-0.093017 -0.37724,-0.2170403 -0.20154,0.5891094 -0.60461,0.8629936 -0.39791,0.2738843 -1.02836,0.2687166 h -0.093 q -0.16536,0 -0.24287,-0.124023 -0.0827,-0.1291907 -0.0827,-0.2790519 0,-0.1498611 0.0827,-0.2790518 0.0775,-0.1291907 0.24287,-0.1291907 z m 0.94568,-4.2271187 q 0.17053,-0.098185 0.33589,-0.1963698 0.16537,-0.098185 0.3204,-0.2118727 0.16019,-0.1136878 0.31522,-0.2480461 0.15503,-0.1343583 0.29972,-0.30489 -0.13952,-0.041341 -0.29455,-0.1395259 -0.15503,-0.098185 -0.24805,-0.2118727 -0.0465,-0.056844 -0.0568,-0.1446936 -0.0103,-0.093017 0.0155,-0.1705317 0.0413,-0.124023 0.11369,-0.2687166 0.0775,-0.1446935 0.18087,-0.2635489 0.10335,-0.1188554 0.22737,-0.1912022 0.12919,-0.077514 0.25838,-0.072347 0.1602,0.010335 0.23255,0.1550288 0.0723,0.1395259 0.0879,0.3255605 0.0207,0.1860346 0,0.3669015 -0.0155,0.1808669 -0.0258,0.263549 0,0.025838 0.0155,0.041341 0.062,0.036173 0.0827,0.067179 0.0258,0.031006 0.0413,0.072347 0.031,0.077514 0.0103,0.1860346 -0.0155,0.1085201 -0.062,0.165364 -0.0413,0.051676 -0.0724,0.051676 -0.031,-0.00517 -0.062,-0.051676 -0.0258,-0.031006 -0.0517,-0.056844 -0.0207,-0.031006 -0.0672,-0.051676 -0.14469,0.1756993 -0.31005,0.3358957 -0.1602,0.1601964 -0.34107,0.2945547 -0.18603,0.1291907 -0.38757,0.2325432 -0.20154,0.1033526 -0.42375,0.1705317 -0.0878,0.025838 -0.18086,0.036173 -0.093,0.00517 -0.10335,-0.02067 -0.0103,-0.031006 0.0362,-0.072347 0.0465,-0.046509 0.11369,-0.08785 z m 0.97151,-1.7363226 q 0.10852,0.1498612 0.25838,0.2377108 0.14986,0.082682 0.27389,0.1136878 h 0.0103 q 0,-0.041341 0.005,-0.1085202 0.005,-0.072347 0,-0.1446935 0,-0.072347 -0.0207,-0.1395259 -0.0155,-0.067179 -0.062,-0.1136878 -0.0413,-0.036173 -0.11886,-0.031006 -0.0724,0 -0.14469,0.025838 -0.0724,0.025838 -0.13436,0.072347 -0.0568,0.041341 -0.0672,0.08785 z m -6.02028,6.7747587 q -0.16537,0 -0.24805,-0.124023 -0.0827,-0.1291907 -0.0827,-0.2790519 0,-0.1498611 0.0827,-0.2790518 0.0827,-0.1291907 0.24805,-0.1291907 h 0.093 q 0.15503,0 0.34623,-0.025838 0.19121,-0.025838 0.40308,-0.082682 0.21187,-0.062012 0.42891,-0.1550288 0.21704,-0.093017 0.41858,-0.2325432 -0.11886,-0.139526 -0.28422,-0.2480461 -0.16536,-0.1085202 -0.31006,-0.1291907 -0.10852,-0.015503 -0.21704,0.010335 -0.10852,0.020671 -0.20154,0.098185 -0.0465,0.046509 -0.0878,0.010335 -0.0413,-0.036173 -0.031,-0.098185 0.0155,-0.077514 0.0413,-0.1860346 0.031,-0.1085201 0.0827,-0.2222079 0.0517,-0.1188554 0.12403,-0.2325432 0.0775,-0.1188554 0.18086,-0.2118727 0.46509,-0.3979073 1.09037,-0.3979073 0.18087,0 0.39274,0.031006 0.21704,0.031006 0.40824,0.1136878 0.19121,0.082682 0.3204,0.2222079 0.13435,0.139526 0.13952,0.3565663 0.0103,0.3100576 -0.13436,0.5270979 -0.14469,0.2170403 -0.37723,0.4030749 0.0827,0.1343583 0.21704,0.2222079 0.13436,0.08785 0.30489,0.1343583 0.16536,0.051676 0.35656,0.072347 0.19637,0.02067 0.40308,0.02067 h 0.093 q 0.16019,0 0.23771,0.1291907 0.0827,0.1291907 0.0827,0.2790518 0,0.1498612 -0.0827,0.2790519 -0.0775,0.124023 -0.23771,0.124023 h -0.093 q -0.30489,0 -0.56844,-0.046509 -0.26355,-0.046509 -0.49609,-0.1498612 -0.45475,-0.2067051 -0.83199,-0.651121 -0.53743,0.4547512 -1.0542,0.6562886 -0.25838,0.098185 -0.52193,0.1446936 -0.26355,0.046509 -0.5426,0.046509 z m 2.63032,-5.8084125 q -0.25838,0.1188554 -0.5426,0.2480461 -0.27906,0.1291906 -0.5426,0.248046 -0.26355,0.1188555 -0.49093,0.222208 -0.22737,0.1033525 -0.38757,0.1705317 -0.0362,0.015503 -0.0517,0 -0.0155,-0.015503 0,-0.046509 l 0.25322,-0.5064274 q 0.0258,-0.041341 0.0517,-0.056844 0.031,-0.020671 0.0568,-0.036173 l 1.88618,-0.8371555 q 0.0827,-0.036173 0.0517,0.041341 l -0.21188,0.4805893 q -0.0155,0.046509 -0.0723,0.072347 z m -6.01512,4.9970951 h 0.093 q 0.31006,0 0.60461,-0.041341 0.29455,-0.041341 0.51676,-0.165364 0.22221,-0.1188555 0.3359,-0.3410634 0.11885,-0.222208 0.0724,-0.5787742 l -0.51677,-4.2426216 q -0.005,-0.062011 0.0258,-0.124023 l 0.26355,-0.5426009 q 0.0155,-0.036173 0.0413,-0.031006 0.0258,0 0.031,0.031006 l 0.59427,4.7025404 q 0.0413,0.3358958 0.12919,0.5839418 0.0878,0.2480461 0.25322,0.4185778 0.16019,0.1653641 0.40824,0.2480461 0.25321,0.082682 0.62528,0.082682 h 0.093 q 0.16536,0 0.24288,0.1291907 0.0827,0.124023 0.0827,0.2790518 0,0.1498612 -0.0827,0.2790519 -0.0775,0.124023 -0.24288,0.124023 h -0.093 q -0.2222,0 -0.45475,-0.036173 -0.23254,-0.041341 -0.44441,-0.1705316 -0.21188,-0.1291907 -0.39274,-0.3720692 -0.18087,-0.2480461 -0.28939,-0.6614562 -0.10852,0.4340807 -0.32039,0.6821267 -0.21188,0.2480461 -0.46509,0.3720692 -0.25838,0.124023 -0.5271,0.1550288 -0.26871,0.031006 -0.49092,0.031006 h -0.093 q -0.16536,0 -0.24805,-0.124023 -0.0827,-0.1291907 -0.0827,-0.2790519 0,-0.1550288 0.0827,-0.2790518 0.0827,-0.1291907 0.24805,-0.1291907 z m 1.23506,-7.1209895 q -0.11369,0.2273755 -0.25838,0.3410633 -0.15503,0.1188555 -0.3669,0.1240231 -0.17053,0.00517 -0.29972,-0.08785 -0.12403,-0.093017 -0.1447,-0.3255605 -0.0103,-0.1033525 0.0103,-0.2118727 0.0207,-0.1136877 0.062,-0.2118727 0.0413,-0.093017 0.093,-0.1601964 0.0568,-0.072347 0.11885,-0.093017 0.062,-0.00517 0.0103,0.093017 -0.031,0.056844 -0.0517,0.1343583 -0.0155,0.077514 -0.0207,0.1550288 0,0.072347 0.0155,0.1240231 0.0155,0.051676 0.0672,0.098185 0.0775,0.056844 0.16537,0.056844 0.0879,-0.00517 0.17053,-0.041341 0.0879,-0.036173 0.15503,-0.082682 0.0724,-0.051676 0.14469,-0.1343583 0.0672,-0.077514 0.0982,-0.1963698 0.031,-0.1188554 0.0413,-0.1963698 0.005,-0.067179 0.0362,-0.13435831 0.031,-0.0671792 0.10335,-0.0671792 0.0155,0 0.0207,0.0310058 0.0103,0.0258381 0.0155,0.0620115 0.005,0.036173 0.005,0.072347 0,0.031006 0,0.046509 0,0.1498612 0.0465,0.2377109 0.0465,0.082682 0.18604,0.1136878 0.0723,0.015503 0.18603,-0.015503 0.11886,-0.031006 0.20671,-0.1033526 0.0103,-0.010335 0.005,-0.056844 -0.005,-0.046509 -0.0207,-0.098185 -0.0103,-0.051676 -0.0362,-0.1085201 -0.0207,-0.062012 -0.0258,-0.072347 l 0.19121,-0.36173391 q 0.0517,0.0258381 0.0775,0.11368779 0.031,0.0878497 0.0362,0.20153744 0.0103,0.10852018 0,0.22220798 -0.0103,0.1136878 -0.0258,0.1912022 -0.062,0.1912022 -0.17054,0.346231 -0.10335,0.1550288 -0.32039,0.1963698 -0.1912,0.036173 -0.32039,-0.025838 -0.12919,-0.062011 -0.20671,-0.1756993 z m 1.09554,9.5549418 q -0.50643,0.160196 -0.99735,0.32556 -0.49093,0.165364 -0.94051,0.310058 -0.0827,0.02584 -0.0413,-0.05168 l 0.21187,-0.39274 q 0.0155,-0.03101 0.0258,-0.04651 0.0155,-0.0155 0.0465,-0.02584 0.13952,-0.05168 0.3669,-0.12919 0.22738,-0.07235 0.49092,-0.160197 0.26872,-0.08268 0.54777,-0.170531 0.27905,-0.08785 0.53227,-0.165364 0.0413,-0.0155 0.0517,-0.01034 0.0103,0.01034 -0.0103,0.05168 l -0.22221,0.403074 q -0.0155,0.02067 -0.031,0.03617 -0.0103,0.02067 -0.031,0.02584 z m -4.52684,-2.8370272 q -0.12919,-0.010335 -0.28939,0.067179 -0.15503,0.072347 -0.25838,0.165364 -0.0517,0.046509 0.005,0.077514 0.11369,0.072347 0.27905,0.1446936 0.17053,0.067179 0.3359,0.1136878 0.17053,0.051676 0.31522,0.072347 0.14469,0.02067 0.21187,-0.00517 -0.062,-0.124023 -0.15503,-0.2377108 -0.093,-0.1136878 -0.18603,-0.2015374 -0.093,-0.08785 -0.16536,-0.139526 -0.0724,-0.056844 -0.093,-0.056844 z m 0.11369,-0.5684389 q 0.093,0 0.1757,0.056844 0.0827,0.056844 0.17053,0.1446935 0.0879,0.08785 0.18086,0.1963699 0.0982,0.1033525 0.20671,0.1963698 0.14469,0.124023 0.31006,0.2015374 0.17053,0.072347 0.35656,0.1136878 0.18604,0.036173 0.38241,0.051676 0.19637,0.010335 0.39274,0.010335 h 0.093 q 0.1602,0 0.24288,0.1291907 0.0827,0.124023 0.0827,0.2790518 0,0.1498612 -0.0827,0.2790519 -0.0827,0.124023 -0.24288,0.124023 h -0.093 q -0.11369,0 -0.25322,0 -0.13952,-0.00517 -0.29455,-0.015503 -0.1602,-0.010335 -0.3359,-0.031006 -0.17053,-0.025838 -0.35656,-0.072347 -0.0155,0.1395259 -0.0362,0.2480461 -0.0207,0.1085202 -0.0827,0.1291907 -0.19637,0.041341 -0.48059,0.010335 -0.27905,-0.031006 -0.55293,-0.1291906 -0.27389,-0.098185 -0.4961,-0.2273756 -0.21704,-0.1291907 -0.28938,-0.2583814 -0.10336,0.041341 -0.21704,0.1188554 -0.11369,0.077514 -0.21188,0.180867 -0.093,0.098185 -0.16019,0.2170403 -0.062,0.1240231 -0.062,0.2480464 0,0.19637 0.0362,0.511595 0.0413,0.315225 0.0982,0.661456 0.0517,0.351399 0.10852,0.692462 0.062,0.341064 0.0982,0.58911 0.0362,0.21704 0.0672,0.475421 0.031,0.263549 0.0465,0.516763 0.0155,0.258381 0.005,0.480589 -0.005,0.227376 -0.0517,0.366902 -0.0207,0.06201 -0.062,0.06201 -0.0413,0.0052 -0.062,-0.06201 -0.031,-0.103353 -0.0413,-0.206705 -0.0103,-0.103353 -0.031,-0.206705 -0.0155,-0.09302 -0.0568,-0.39274 -0.0413,-0.299722 -0.11886,-0.800982 -0.0724,-0.475422 -0.13953,-0.868161 -0.062,-0.387572 -0.11368,-0.69763 -0.0517,-0.310058 -0.0827,-0.542601 -0.031,-0.232543 -0.0413,-0.397907 -0.0258,-0.4702544 0.0982,-0.8061501 0.12919,-0.3410634 0.37723,-0.5736066 0.093,-0.08785 0.29456,-0.2532137 0.20154,-0.1705317 0.42891,-0.3358958 0.22738,-0.165364 0.44442,-0.2893871 0.22221,-0.124023 0.3514,-0.124023 z M 137.6395,11.89107 q -0.76998,-0.971514 -1.30224,-2.2737555 -0.53227,-1.302242 -0.53227,-2.6975012 0,-1.2298952 0.39791,-2.3564378 0.46509,-1.3074096 1.4366,-2.6044839 h 0.66662 q -0.62528,1.0748664 -0.82682,1.5347852 -0.31522,0.7131325 -0.49609,1.4882765 -0.22221,0.9663462 -0.22221,1.9430276 0,2.4856285 1.54512,4.9660891 z"
         id="text9"
         style="font-size:10.5833px;line-height:1.25;font-family:'KFGQPC Uthmanic Script HAFS';-inkscape-font-specification:'KFGQPC Uthmanic Script HAFS';direction:rtl;stroke-width:0.264583"
         aria-label="    ()" />
    </g>
  </g>
</svg>
