<?xml version="1.0" encoding="UTF-8" standalone="no"?>
<!-- Created with Inkscape (http://www.inkscape.org/) -->

<svg
   width="102.03139mm"
   height="15.48649mm"
   viewBox="0 0 102.03139 15.48649"
   version="1.1"
   id="svg1"
   xmlns="http://www.w3.org/2000/svg"
   xmlns:svg="http://www.w3.org/2000/svg">
  <defs
     id="defs1" />
  <g
     id="layer1"
     transform="translate(-1265.8628)">
    <g
       id="g20"
       transform="translate(1113.3537,0.10854149)">
      <path
         d="m 253.34062,2.9944252 q 0.0827,0.00517 0.0775,0.1912022 -0.0103,0.1963698 0.005,0.387572 0.0155,0.1860345 0.0413,0.3772367 0.0517,0.4599188 0.12402,0.9508433 0.0724,0.485757 0.1447,0.9818491 0.0672,0.4909246 0.13435,0.9818491 0.0672,0.4909246 0.11369,0.956011 0.0207,0.1808669 0.0258,0.4237454 0.0103,0.2428784 -0.005,0.4960921 -0.0103,0.2480461 -0.0568,0.4805893 -0.0413,0.2325432 -0.11886,0.387572 -0.0413,0.08785 -0.0982,0.1136878 -0.0465,0.00517 -0.0413,-0.041341 -0.031,-0.4495835 -0.0775,-0.9043347 -0.0413,-0.4599188 -0.10852,-0.9353404 -0.0672,-0.4909246 -0.13436,-0.9715139 -0.0672,-0.4805892 -0.12919,-0.9611785 -0.0672,-0.4805893 -0.13435,-0.9611786 -0.062,-0.4805893 -0.12403,-0.9663462 0.0155,-0.1188554 0.0465,-0.2428785 0.031,-0.1291907 0.0879,-0.2635489 0.12402,-0.3358958 0.16536,-0.4082426 0.0465,-0.072347 0.062,-0.072347 z m -2.21691,-0.2893871 q 0.0155,-0.046509 0.0413,-0.056844 0.0258,-0.010335 0.0413,0.056844 0.0413,0.124023 0.093,0.2532137 0.0517,0.1291906 0.11886,0.2532137 0.0724,0.124023 0.16536,0.2325432 0.093,0.1033525 0.21188,0.1756993 -0.0724,0.124023 -0.12919,0.2170403 -0.0517,0.08785 -0.0879,0.1653641 -0.0362,0.072347 -0.0517,0.1446935 -0.0155,0.067179 -0.005,0.1446936 0.0568,0.4960922 0.12919,0.997352 0.0775,0.4960921 0.1447,0.9921843 0.0723,0.4960922 0.12402,0.9921843 0.0568,0.4960922 0.0724,0.997352 0.005,0.1653641 -0.0207,0.3358957 -0.0258,0.1705317 -0.0827,0.3255605 -0.0568,0.1550288 -0.14469,0.2945548 -0.0827,0.1343583 -0.1912,0.2273755 -0.14986,0.1291907 -0.37207,0.1860346 -0.21704,0.051676 -0.53227,0.051676 h -0.093 q -0.16537,0 -0.24805,-0.1240231 -0.0879,-0.1291906 -0.0879,-0.2790518 0,-0.1550288 0.0879,-0.2790519 0.0827,-0.1291906 0.24805,-0.1291906 h 0.093 q 0.17054,0 0.33073,-0.010335 0.1602,-0.015503 0.29456,-0.046509 0.13436,-0.036173 0.22737,-0.093017 0.0982,-0.062011 0.13953,-0.1550288 -0.10335,-1.0903693 -0.26872,-2.1497328 -0.16536,-1.0645311 -0.32039,-2.1393974 -0.031,-0.2170404 -0.0672,-0.4237454 -0.031,-0.2118727 -0.14986,-0.4082426 -0.0413,-0.056844 -0.0465,-0.072347 -0.005,-0.020671 0.0258,-0.082682 0.0879,-0.1498611 0.16019,-0.3048899 0.0775,-0.1601965 0.14987,-0.2893871 z m -3.37963,5.2503088 q 0.062,-0.1033526 0.12402,-0.098185 0.0672,0.00517 0.0362,0.124023 -0.0258,0.1085202 -0.0723,0.2273756 -0.0465,0.1136878 -0.10336,0.2480461 0.0362,0.08785 0.1602,0.1756993 0.12919,0.082682 0.28939,0.1446935 0.15503,0.056844 0.31522,0.082682 0.16537,0.025838 0.27389,-0.015503 0.1757,-0.056844 0.28938,-0.3152253 0.11369,-0.2635489 0.19637,-0.552936 0.0413,-0.1550288 0.10852,-0.180867 0.0672,-0.025838 0.0775,0.1136878 0.0207,0.2583814 0.093,0.4444159 0.0723,0.1860346 0.21704,0.2997224 0.27388,0.2273756 0.89916,0.2273756 h 0.093 q 0.16537,0 0.24805,0.1291906 0.0827,0.1291907 0.0827,0.2790519 0,0.1498612 -0.0827,0.2790518 -0.0827,0.1240231 -0.24805,0.1240231 h -0.093 q -0.27388,0 -0.47025,-0.031006 -0.19637,-0.036173 -0.3824,-0.1136878 -0.43409,-0.1860345 -0.65629,-0.6149476 -0.0362,0.082682 -0.093,0.1963698 -0.0568,0.1136878 -0.13436,0.222208 -0.0724,0.1033525 -0.1602,0.1756993 -0.0878,0.072347 -0.18603,0.072347 -0.12919,0 -0.29972,-0.031006 -0.17053,-0.031006 -0.34107,-0.098185 -0.17569,-0.062011 -0.33589,-0.1601964 -0.15503,-0.1033526 -0.26355,-0.2428785 -0.18087,0.2067051 -0.40824,0.346231 -0.22221,0.1343583 -0.47542,0.1756993 -0.25839,0.046509 -0.54261,0 -0.27905,-0.051676 -0.5736,-0.206705 -0.13436,0.098185 -0.29456,0.1601964 -0.16019,0.062012 -0.31522,0.093017 -0.1602,0.036173 -0.30489,0.046509 -0.1447,0.010335 -0.25322,0.010335 h -0.093 q -0.15503,0 -0.23255,-0.1240231 -0.0775,-0.1291906 -0.0775,-0.2790518 0,-0.1498612 0.0775,-0.2790519 0.0775,-0.1291906 0.23255,-0.1291906 h 0.093 q 0.31006,0 0.57361,-0.02067 0.26355,-0.025838 0.49609,-0.1136878 0.22738,-0.082682 0.42892,-0.2532137 0.2067,-0.1705317 0.39274,-0.4650865 0.0672,-0.1085201 0.11368,-0.093017 0.0517,0.010335 0.031,0.1188554 -0.0362,0.1860345 -0.11886,0.3979072 -0.0827,0.2118727 -0.20153,0.3617339 0.10335,0.031006 0.25321,0.046509 0.15503,0.015503 0.32556,0 0.25321,-0.020671 0.47542,-0.1033526 0.22738,-0.08785 0.40824,-0.2635489 0.11369,-0.1033526 0.21188,-0.2377109 0.10335,-0.1395259 0.19637,-0.2997223 z m 0.45475,-1.1627161 q -0.031,0.036173 -0.0465,0.036173 -0.0155,0 -0.0517,-0.025838 l -0.60978,-0.4805893 -0.3979,0.5529361 q -0.0362,0.046509 -0.0775,0.010335 L 246.36432,6.389556 q -0.0362,-0.031006 -0.0103,-0.067179 l 0.41341,-0.5891094 q 0.0258,-0.031006 0.0362,-0.025838 0.0155,0 0.0362,0.015503 l 0.61495,0.470254 0.41858,-0.5374331 q 0.031,-0.041341 0.062,-0.020671 l 0.65112,0.5426009 q 0.031,0.031006 0,0.072347 z m -0.97668,-2.1807385 0.63562,0.5219303 q 0.0413,0.031006 0.005,0.072347 l -0.42374,0.527098 q -0.0362,0.046509 -0.0827,0.010335 l -0.64079,-0.5167627 q -0.0413,-0.036173 0,-0.08785 l 0.42891,-0.5167627 q 0.0362,-0.046509 0.0775,-0.010335 z m 0.0413,-1.4314325 q -0.11369,0.2273756 -0.25838,0.3410634 -0.15503,0.1188554 -0.36691,0.124023 -0.17053,0.00517 -0.29972,-0.08785 -0.12402,-0.093017 -0.14469,-0.3255604 -0.0103,-0.1033526 0.0103,-0.2118727 0.0207,-0.1136878 0.062,-0.2118727 0.0413,-0.093017 0.093,-0.1601965 0.0568,-0.072347 0.11886,-0.093017 0.062,-0.00517 0.0103,0.093017 -0.031,0.056844 -0.0517,0.1343583 -0.0155,0.077514 -0.0207,0.1550288 0,0.072347 0.0155,0.1240231 0.0155,0.051676 0.0672,0.098185 0.0775,0.056844 0.16536,0.056844 0.0879,-0.00517 0.17053,-0.041341 0.0878,-0.036173 0.15503,-0.082682 0.0724,-0.051676 0.1447,-0.1343583 0.0672,-0.077514 0.0982,-0.1963698 0.031,-0.1188554 0.0413,-0.1963698 0.005,-0.067179 0.0362,-0.1343583 0.031,-0.067179 0.10335,-0.067179 0.0155,0 0.0207,0.031006 0.0103,0.025838 0.0155,0.062012 0.005,0.036173 0.005,0.072347 0,0.031006 0,0.046509 0,0.1498611 0.0465,0.2377108 0.0465,0.082682 0.18603,0.1136878 0.0724,0.015503 0.18604,-0.015503 0.11885,-0.031006 0.2067,-0.1033525 0.0103,-0.010335 0.005,-0.056844 -0.005,-0.046509 -0.0207,-0.098185 -0.0103,-0.051676 -0.0362,-0.1085202 -0.0207,-0.062012 -0.0258,-0.072347 l 0.1912,-0.3617339 q 0.0517,0.025838 0.0775,0.1136878 0.031,0.08785 0.0362,0.2015375 0.0103,0.1085201 0,0.2222079 -0.0103,0.1136878 -0.0258,0.1912022 -0.062,0.1912022 -0.17053,0.346231 -0.10335,0.1550288 -0.3204,0.1963698 -0.1912,0.036173 -0.32039,-0.025838 -0.12919,-0.062012 -0.2067,-0.1756993 z m 0.93017,-2.077386 q -0.25838,0.1188554 -0.5426,0.2480461 -0.27905,0.1291907 -0.5426,0.2480461 -0.26355,0.1188554 -0.49093,0.2222079 -0.22737,0.1033526 -0.38757,0.1705317 -0.0362,0.015503 -0.0517,0 -0.0155,-0.015503 0,-0.046509 l 0.25321,-0.5064274 q 0.0258,-0.041341 0.0517,-0.056844 0.031,-0.020671 0.0568,-0.036173 l 1.88618,-0.83715556 q 0.0827,-0.0361734 0.0517,0.041341 l -0.2118,0.48058936 q -0.0155,0.046509 -0.0724,0.072347 z m -4.88857,10.6504792 q -0.0258,0.03101 -0.0413,0.03101 -0.0155,0.0052 -0.0568,-0.02584 l -0.61495,-0.480589 -0.40307,0.552936 q -0.0362,0.04651 -0.0775,0.0155 l -0.65628,-0.506428 q -0.0362,-0.02584 -0.0103,-0.06201 l 0.41858,-0.594277 q 0.0207,-0.03101 0.0362,-0.03101 0.0155,0 0.0362,0.02067 l 0.62011,0.470254 0.42375,-0.542601 q 0.031,-0.04134 0.062,-0.0155 l 0.65629,0.547768 q 0.0362,0.02584 0,0.07235 z m -2.16007,-2.0618835 h -0.093 q -0.15503,0 -0.23254,-0.1240231 -0.0775,-0.1291906 -0.0775,-0.2842195 0,-0.077514 0.0207,-0.1498611 0.0155,-0.072347 0.0568,-0.1291907 0.0362,-0.056844 0.0982,-0.093017 0.0568,-0.036173 0.13436,-0.036173 h 0.093 q 0.1602,0 0.35656,-0.010335 0.20154,-0.010335 0.37724,-0.056844 0.17053,-0.046509 0.3359,-0.1395259 0.16536,-0.098185 0.30489,-0.2687166 0.10335,-0.1240231 0.16536,-0.2532137 0.0672,-0.1291907 0.12919,-0.2945548 0.0258,-0.067179 0.0827,-0.072347 0.062,-0.00517 0.0672,0.025838 0.005,0.062011 -0.0103,0.1498612 -0.0103,0.08785 -0.0103,0.1601964 0,0.1343583 0.0672,0.2687166 0.0672,0.1343583 0.20671,0.2428784 0.13952,0.1085202 0.3824,0.180867 0.24805,0.067179 0.55811,0.067179 h 0.0982 q 0.0775,0 0.13436,0.036173 0.0568,0.036173 0.093,0.093017 0.0413,0.056844 0.0568,0.1291907 0.0207,0.072347 0.0207,0.1498611 0,0.1550289 -0.0775,0.2842195 -0.0724,0.1240231 -0.22738,0.1240231 h -0.0982 q -0.27906,0 -0.53227,-0.051676 -0.24805,-0.056844 -0.42375,-0.1653641 -0.34106,-0.206705 -0.53226,-0.6097799 -0.11369,0.2325432 -0.26872,0.387572 -0.15503,0.1550288 -0.34106,0.2532137 -0.1912,0.098185 -0.43408,0.1446935 -0.24288,0.041341 -0.48059,0.041341 z m 0.58911,-5.5655339 q 0,0.08785 0.0465,0.1395259 0.0517,0.046509 0.11885,0.072347 0.0672,0.025838 0.1447,0.031006 0.0827,0.00517 0.14469,0.00517 0.14469,0 0.26872,-0.062012 0.12919,-0.062011 0.23254,-0.1601964 0.0103,-0.093017 -0.0207,-0.1963699 -0.031,-0.1033525 -0.0982,-0.1860345 -0.0672,-0.082682 -0.16537,-0.1291907 -0.0982,-0.051676 -0.22737,-0.041341 -0.0775,0.020671 -0.15503,0.077514 -0.0775,0.051676 -0.1447,0.124023 -0.062,0.072347 -0.10335,0.1601965 -0.0413,0.082682 -0.0413,0.165364 z m 1.20922,-0.1343583 q 0,0.1756993 -0.0465,0.3410634 -0.0465,0.1653641 -0.1447,0.2945547 -0.0982,0.1291907 -0.25321,0.2067051 -0.14986,0.077514 -0.36173,0.077514 -0.26355,0 -0.44442,-0.1705317 -0.18087,-0.1705317 -0.1912,-0.4547511 0,-0.1446936 0.0413,-0.346231 0.0465,-0.2067051 0.13952,-0.3979073 0.093,-0.1912022 0.23771,-0.3307281 0.14987,-0.1446936 0.35657,-0.1705317 0.19637,-0.020671 0.32556,0.077514 0.12919,0.098185 0.20671,0.2480461 0.0723,0.1550288 0.10335,0.3307281 0.031,0.1705317 0.031,0.2945547 z m -6.09263,2.780183 q 0.21187,-0.010335 0.44442,0.025838 0.23254,0.031006 0.66145,0.1136878 0.42892,0.077514 0.863,0.093017 0.47025,0.015503 0.9095,0.00517 0.43925,-0.010335 0.9095,-0.051676 0.0207,-0.00517 0.031,0 0.0103,0.00517 0.005,0.031006 -0.0672,0.2015374 -0.14986,0.3979072 -0.0775,0.1963698 -0.1757,0.3824044 -0.23254,0.025838 -0.46508,0.062011 -0.23255,0.031006 -0.45992,0.077514 -0.0465,0.3772368 0.0827,0.5787742 0.13436,0.1963698 0.38241,0.2842195 0.24804,0.08785 0.5736,0.098185 0.33073,0.010335 0.68213,0.010335 0.0258,0 0.0465,0 0.0207,0 0.0465,0 0.15502,0 0.23254,0.1291906 0.0827,0.1240231 0.0827,0.2738842 0,0.1550289 -0.0827,0.2842195 -0.0775,0.1240231 -0.23254,0.1240231 -0.0258,0 -0.0465,0 -0.0207,0 -0.0465,0 -0.57361,0.010335 -1.02319,-0.056844 -0.44959,-0.072347 -0.7183,-0.3152253 -0.21187,-0.1912022 -0.29972,-0.511595 -0.0827,-0.3255605 -0.0207,-0.8268203 -0.45476,0.1085202 -0.8785,0.2893871 -0.42375,0.1756993 -0.78031,0.4599188 -0.31006,0.2480461 -0.55811,0.5581037 -0.24288,0.3100576 -0.41341,0.6666238 -0.16536,0.3565664 -0.25321,0.7389704 -0.0879,0.387572 -0.0879,0.785479 0,0.434081 0.16536,0.847491 0.17054,0.418578 0.44959,0.764809 0.27905,0.351399 0.63562,0.604612 0.36173,0.258382 0.74413,0.366902 0.50126,0.144693 1.02836,0.191202 0.53227,0.05168 0.98702,0.03617 0.50126,-0.0155 1.02836,-0.06201 0.52709,-0.04651 1.02835,-0.04651 0.062,0 0.0672,0.03101 0.005,0.03617 -0.062,0.113688 -0.0672,0.07751 -0.13952,0.08785 -0.31006,0.04651 -0.59945,0.139526 -0.28422,0.09818 -0.56327,0.19637 -0.27905,0.103353 -0.56844,0.186035 -0.28422,0.08785 -0.59428,0.10852 -0.75447,0.05168 -1.47794,-0.118856 -0.7183,-0.170531 -1.28157,-0.583941 -0.56327,-0.408243 -0.9095,-1.064532 -0.34623,-0.651121 -0.34623,-1.555455 0,-0.594277 0.15503,-1.193722 0.15502,-0.5942769 0.43924,-1.1265424 0.28939,-0.5374332 0.69247,-0.9715139 0.40824,-0.4392482 0.90433,-0.7131325 0.0207,-0.015503 -0.0103,-0.025838 -0.031,-0.010335 -0.0672,-0.015503 -0.23771,-0.025838 -0.5116,-0.046509 -0.26871,-0.025838 -0.53743,-0.00517 -0.26355,0.02067 -0.49609,0.1033525 -0.23255,0.077514 -0.38758,0.2583813 -0.031,0.036173 -0.0672,0.031006 -0.031,-0.00517 -0.0207,-0.072347 0.031,-0.2377108 0.10852,-0.4495835 0.0827,-0.2118727 0.21188,-0.3669015 0.12919,-0.1601964 0.31006,-0.2532137 0.18086,-0.098185 0.42374,-0.1033526 z m 1.08003,-2.1342298 0.63562,0.5270979 q 0.0413,0.036173 0.005,0.082682 l -0.42375,0.5322656 q -0.0362,0.051676 -0.0827,0.010335 L 237.4241,5.2630131 q -0.0413,-0.036173 0,-0.08785 l 0.42891,-0.527098 q 0.0362,-0.046509 0.0775,-0.010335 z m -1.1317,-0.6304504 q 0.17053,-0.098185 0.33589,-0.1963698 0.16537,-0.098185 0.3204,-0.2118727 0.16019,-0.1136878 0.31522,-0.2480461 0.15503,-0.1343583 0.29972,-0.3048899 -0.13952,-0.041341 -0.29455,-0.139526 -0.15503,-0.098185 -0.24805,-0.2118727 -0.0465,-0.056844 -0.0568,-0.1446935 -0.0103,-0.093017 0.0155,-0.1705317 0.0413,-0.124023 0.11369,-0.2687166 0.0775,-0.1446935 0.18087,-0.263549 0.10335,-0.1188554 0.22737,-0.1912022 0.12919,-0.077514 0.25838,-0.072347 0.1602,0.010335 0.23255,0.1550288 0.0723,0.1395259 0.0879,0.3255605 0.0207,0.1860345 0,0.3669015 -0.0155,0.1808669 -0.0258,0.2635489 0,0.025838 0.0155,0.041341 0.062,0.036173 0.0827,0.067179 0.0258,0.031006 0.0413,0.072347 0.031,0.077514 0.0103,0.1860345 -0.0155,0.1085202 -0.062,0.1653641 -0.0413,0.051676 -0.0724,0.051676 -0.031,-0.00517 -0.062,-0.051676 -0.0258,-0.031006 -0.0517,-0.056844 -0.0207,-0.031006 -0.0672,-0.051676 -0.14469,0.1756993 -0.31005,0.3358958 -0.1602,0.1601964 -0.34107,0.2945547 -0.18603,0.1291907 -0.38757,0.2325432 -0.20154,0.1033525 -0.42374,0.1705317 -0.0879,0.025838 -0.18087,0.036173 -0.093,0.00517 -0.10335,-0.020671 -0.0103,-0.031006 0.0362,-0.072347 0.0465,-0.046509 0.11369,-0.08785 z m 0.97151,-1.7363226 q 0.10852,0.1498612 0.25838,0.2377109 0.14986,0.082682 0.27389,0.1136878 h 0.0103 q 0,-0.041341 0.005,-0.1085202 0.005,-0.072347 0,-0.1446936 0,-0.072347 -0.0207,-0.1395259 -0.0155,-0.067179 -0.062,-0.1136878 -0.0413,-0.036173 -0.11886,-0.031006 -0.0723,0 -0.14469,0.025838 -0.0724,0.025838 -0.13436,0.072347 -0.0568,0.041341 -0.0672,0.08785 z m -5.5552,5.9996146 q 0.0103,-0.015503 -0.0207,-0.082682 -0.0258,-0.072347 -0.0672,-0.1550288 -0.0413,-0.082682 -0.0827,-0.1550288 -0.0413,-0.077514 -0.0568,-0.1033526 -0.0879,-0.1291906 -0.21704,-0.2428784 -0.12403,-0.1136878 -0.31006,-0.1033526 -0.0827,0.00517 -0.16537,0.046509 -0.0775,0.041341 -0.14469,0.1033525 -0.0672,0.062011 -0.11886,0.1395259 -0.0517,0.072347 -0.0775,0.1498612 0.26355,0.222208 0.58911,0.3152252 0.32556,0.08785 0.67179,0.08785 z m -3.24527,0.60978 q 0.21704,0 0.42891,-0.010335 0.21705,-0.015503 0.40308,-0.062012 0.18603,-0.046509 0.33073,-0.1343583 0.14986,-0.093017 0.23254,-0.2480461 0.14986,-0.2790518 0.27389,-0.5581037 0.12402,-0.2842195 0.27388,-0.5477684 0.0568,-0.098185 0.14986,-0.2170404 0.0982,-0.1188554 0.21187,-0.2222079 0.11369,-0.1085202 0.23771,-0.1756993 0.12403,-0.067179 0.24288,-0.062012 0.12919,0.00517 0.25322,0.093017 0.12402,0.08785 0.23254,0.2273756 0.11369,0.1395259 0.20154,0.3152253 0.093,0.1705316 0.16019,0.346231 0.0672,0.1756993 0.0982,0.3410633 0.0362,0.1601965 0.031,0.2790519 -0.0103,0.1085201 -0.031,0.2325432 -0.0207,0.1188554 -0.0672,0.2273755 -0.0413,0.1085202 -0.11369,0.2015375 -0.0672,0.08785 -0.17053,0.1343583 -0.11886,0.041341 -0.32556,0.025838 -0.20671,-0.015503 -0.45475,-0.077514 -0.24288,-0.062011 -0.49609,-0.1705317 -0.25322,-0.1085201 -0.47026,-0.2583813 -0.20154,0.5942771 -0.60461,0.8629937 -0.40308,0.2687166 -1.02836,0.2687166 h -0.093 q -0.16536,0 -0.24287,-0.1240231 -0.0827,-0.1291906 -0.0827,-0.2790518 0,-0.1550288 0.0827,-0.2790519 0.0775,-0.1291906 0.24287,-0.1291906 z m 0.94567,-4.2271188 q 0.17053,-0.098185 0.3359,-0.1963698 0.16536,-0.098185 0.32039,-0.2118727 0.1602,-0.1136878 0.31523,-0.2480461 0.15503,-0.1343583 0.29972,-0.30489 -0.13953,-0.041341 -0.29456,-0.1395259 -0.15502,-0.098185 -0.24804,-0.2118727 -0.0465,-0.056844 -0.0568,-0.1446935 -0.0103,-0.093017 0.0155,-0.1705317 0.0413,-0.1240231 0.11368,-0.2687166 0.0775,-0.1446936 0.18087,-0.263549 0.10335,-0.1188554 0.22738,-0.1912022 0.12919,-0.077514 0.25838,-0.072347 0.16019,0.010335 0.23254,0.1550288 0.0724,0.1395259 0.0878,0.3255604 0.0207,0.1860346 0,0.3669015 -0.0155,0.180867 -0.0258,0.263549 0,0.025838 0.0155,0.041341 0.062,0.036173 0.0827,0.067179 0.0258,0.031006 0.0413,0.072347 0.031,0.077514 0.0103,0.1860346 -0.0155,0.1085202 -0.062,0.1653641 -0.0413,0.051676 -0.0723,0.051676 -0.031,-0.00517 -0.062,-0.051676 -0.0258,-0.031006 -0.0517,-0.056844 -0.0207,-0.031006 -0.0672,-0.051676 -0.14469,0.1756993 -0.31006,0.3358957 -0.16019,0.1601965 -0.34106,0.2945548 -0.18604,0.1291906 -0.38757,0.2325432 -0.20154,0.1033525 -0.42375,0.1705317 -0.0879,0.025838 -0.18087,0.036173 -0.093,0.00517 -0.10335,-0.02067 -0.0103,-0.031006 0.0362,-0.072347 0.0465,-0.046509 0.11369,-0.08785 z m 0.97152,-1.7363226 q 0.10852,0.1498612 0.25838,0.2377108 0.14986,0.082682 0.27388,0.1136878 h 0.0103 q 0,-0.041341 0.005,-0.1085201 0.005,-0.072347 0,-0.1446936 0,-0.072347 -0.0207,-0.1395259 -0.0155,-0.067179 -0.062,-0.1136878 -0.0413,-0.036173 -0.11885,-0.031006 -0.0724,0 -0.1447,0.025838 -0.0723,0.025838 -0.13435,0.072347 -0.0569,0.041341 -0.0672,0.08785 z m -2.8112,5.0849448 q -0.11368,-0.2170403 -0.32556,-0.3669015 -0.2067,-0.1550288 -0.44441,-0.2377108 -0.23771,-0.082682 -0.47542,-0.08785 -0.23772,-0.010335 -0.41341,0.062012 -0.24288,0.098185 -0.4961,0.2687166 -0.25321,0.1653641 -0.49609,0.3669015 -0.23771,0.2015375 -0.45992,0.4289131 -0.21704,0.2222079 -0.40307,0.4340806 0.42374,0.046509 0.88366,0.025838 0.46509,-0.025838 0.97152,-0.1343583 0.50126,-0.1033525 0.94567,-0.2945547 0.44958,-0.1912022 0.71313,-0.4650865 z m -0.11885,0.8526584 q 0.26355,0.015503 0.52193,0.02067 0.26355,0 0.49092,0 h 0.0879 q 0.17053,0 0.25322,0.1291907 0.0827,0.124023 0.0827,0.2790518 0,0.1498612 -0.0879,0.2790519 -0.0827,0.124023 -0.24805,0.124023 h -0.0879 q -0.25321,0 -0.58394,0 -0.33073,0 -0.71313,0 -0.37724,-0.00517 -0.79065,-0.010335 -0.40824,-0.010335 -0.81648,-0.025838 -0.64596,0.072347 -1.16272,0.056844 -0.51159,-0.010335 -0.95084,-0.093017 -0.0413,0.062012 -0.093,0.1756993 -0.0465,0.1188554 -0.0775,0.1963698 -0.0568,0.1395256 -0.14987,0.1136876 -0.0465,-0.01033 -0.062,-0.06201 -0.0155,-0.051676 0,-0.12919 0.0207,-0.093017 0.0465,-0.1808669 0.031,-0.082682 0.0724,-0.1912022 -0.27905,-0.1033526 -0.45992,-0.2273756 -0.1757,-0.1291907 -0.37724,-0.3669015 -0.13436,0.1860345 -0.28422,0.3255605 -0.14469,0.1395259 -0.32039,0.2325432 -0.35657,0.1912022 -0.85783,0.1912022 h -0.093 q -0.16537,0 -0.24288,-0.1240231 -0.0827,-0.1291906 -0.0827,-0.2790518 0,-0.1550288 0.0827,-0.2790519 0.0775,-0.1291906 0.24288,-0.1291906 h 0.093 q 0.26355,0 0.49093,-0.025838 0.23254,-0.025838 0.44958,-0.1550288 0.23771,-0.1395259 0.37207,-0.3669015 0.13436,-0.2325432 0.24805,-0.4754216 0.0362,-0.072347 0.093,-0.093017 0.062,-0.025838 0.0672,0.051676 0.005,0.2015375 0.10336,0.3772368 0.0982,0.1756993 0.24804,0.3100576 0.14986,0.1291907 0.32556,0.2118727 0.1757,0.082682 0.34107,0.1033525 0.25321,-0.3100576 0.55293,-0.6304504 0.30489,-0.3203929 0.62012,-0.60978 0.32039,-0.2893871 0.63562,-0.5270979 0.31522,-0.2428785 0.59427,-0.3927397 0.23771,-0.1291906 0.57361,-0.1085201 0.3359,0.015503 0.64595,0.1498612 0.31523,0.1291906 0.5426,0.3565662 0.22738,0.222208 0.24288,0.5064274 -0.0155,0.4134102 -0.17053,0.733803 -0.14986,0.3203929 -0.40824,0.5581037 z M 217.08455,8.1465491 q 0.12919,-0.2325432 0.12402,-0.7079649 0,-0.4805893 -0.062,-1.0490282 -0.062,-0.5632714 -0.1602,-1.1368779 -0.093,-0.5787742 -0.15503,-0.997352 -0.0258,-0.1963698 -0.0775,-0.3927396 -0.0517,-0.1963699 -0.15503,-0.3669015 -0.0362,-0.062012 -0.0413,-0.082682 -0.005,-0.020671 0.0207,-0.072347 l 0.31006,-0.5994447 q 0.0517,-0.093017 0.0827,0 0.093,0.2532137 0.21187,0.4960921 0.11886,0.2428785 0.35657,0.387572 -0.14469,0.2480461 -0.22221,0.3772368 -0.0724,0.1291907 -0.0568,0.2945547 0.093,0.4134102 0.16019,0.8629937 0.0672,0.4495835 0.093,0.9095023 0.0258,0.4650864 0.005,0.9250052 -0.0207,0.4547511 -0.0982,0.8836642 0.29973,-0.2583814 0.65629,-0.5477685 0.35657,-0.2945547 0.72864,-0.470254 0.27388,-0.1291907 0.59944,-0.1240231 0.33073,0 0.62529,0.1033526 0.29455,0.098185 0.51159,0.2842195 0.21704,0.1860345 0.27388,0.4237454 -0.031,0.4392482 -0.2222,0.775144 -0.19121,0.3307281 -0.51677,0.511595 0.31006,0.031006 0.66146,0.041341 0.35657,0.00517 0.65112,0.00517 h 0.093 q 0.16536,0 0.24804,0.1291906 0.0827,0.1291907 0.0827,0.2790519 0,0.1498612 -0.0827,0.2790518 -0.0827,0.1240231 -0.24804,0.1240231 h -0.093 q -0.31006,0 -0.81648,-0.00517 -0.50126,-0.010335 -1.0542,-0.025838 -0.55294,-0.010335 -1.0852,-0.031006 -0.53227,-0.02067 -0.9095,-0.041341 -0.42375,0.056844 -0.84233,0.082682 -0.41857,0.02067 -0.80615,0.02067 h -0.093 q -0.1602,0 -0.23771,-0.1240231 -0.0827,-0.1291906 -0.0827,-0.2790518 0,-0.1498612 0.0827,-0.2790519 0.0775,-0.1291906 0.23771,-0.1291906 h 0.093 q 0.0827,0 0.20154,0 0.12402,-0.00517 0.21187,-0.00517 z m 3.24527,-0.1188555 q -0.12919,-0.1756993 -0.3204,-0.2997223 -0.1912,-0.1240231 -0.40824,-0.1912022 -0.21704,-0.067179 -0.44441,-0.077514 -0.22738,-0.010335 -0.42892,0.041341 -0.25838,0.072347 -0.50126,0.2067051 -0.23771,0.1291907 -0.48059,0.3100576 -0.23771,0.1808669 -0.48575,0.4030749 -0.24288,0.2170403 -0.5116,0.4599188 0.41858,-0.02067 0.91467,-0.072347 0.49609,-0.056844 0.98702,-0.1550288 0.48576,-0.1033526 0.925,-0.2532137 0.44442,-0.1550288 0.75448,-0.3720694 z M 220.0921,4.1416383 q -0.25838,0.1188554 -0.5426,0.2480461 -0.27905,0.1291906 -0.5426,0.2480461 -0.26355,0.1188554 -0.49092,0.2222079 -0.22738,0.1033525 -0.38757,0.1705317 -0.0362,0.015503 -0.0517,0 -0.0155,-0.015503 0,-0.046509 l 0.25321,-0.5064274 q 0.0258,-0.041341 0.0517,-0.056844 0.031,-0.02067 0.0568,-0.036173 l 1.88619,-0.8371555 q 0.0827,-0.036173 0.0517,0.041341 l -0.21187,0.4805893 q -0.0155,0.046509 -0.0724,0.072347 z m -5.18829,3.7723676 q -0.005,-0.08785 -0.031,-0.2170404 -0.0207,-0.1291906 -0.0775,-0.2428784 -0.0517,-0.1136878 -0.14469,-0.1860346 -0.0879,-0.077514 -0.22221,-0.062011 -0.093,0.00517 -0.22221,0.056844 -0.12919,0.046509 -0.25321,0.1343583 -0.12403,0.082682 -0.22738,0.1963698 -0.0982,0.1085202 -0.13436,0.2377108 0,0.1188554 0.0568,0.222208 0.0568,0.1033525 0.13435,0.1808669 0.0827,0.077514 0.16537,0.1291907 0.0827,0.046509 0.13952,0.056844 0.062,0 0.18604,-0.046509 0.12402,-0.051676 0.25321,-0.124023 0.12919,-0.077514 0.23771,-0.1653641 0.10852,-0.093017 0.13953,-0.1705316 z m -2.38228,1.9068542 q 0.24805,0.041341 0.49093,0.093017 0.24804,0.056844 0.48059,0.1601969 0.13436,0.06201 0.24804,0.129191 0.11369,0.06718 0.19121,0.144693 0.0827,0.08268 0.12402,0.186035 0.0413,0.10852 0.031,0.248046 -0.0207,0.341063 -0.21704,0.640785 -0.19637,0.30489 -0.51159,0.552936 -0.31006,0.253214 -0.70797,0.449584 -0.39274,0.201537 -0.81648,0.335896 -0.42375,0.139526 -0.84232,0.211872 -0.41341,0.07235 -0.76481,0.07235 -0.45992,0 -0.85266,-0.118855 -0.39274,-0.118856 -0.68213,-0.366902 -0.28422,-0.242878 -0.44441,-0.620115 -0.1602,-0.377237 -0.1602,-0.893999 0,-0.253214 0.0517,-0.50126 0.0517,-0.248046 0.13952,-0.485757 0.093,-0.2325435 0.21187,-0.4547515 0.12403,-0.2273756 0.26355,-0.428913 0.0207,-0.031006 0.0413,-0.025838 0.0207,0.00517 0.0362,0.025838 0.0207,0.015503 0.0258,0.046509 0.0103,0.025838 0,0.046509 -0.1757,0.3720691 -0.29456,0.7596405 -0.11369,0.387572 -0.093,0.795815 0.0207,0.392739 0.19121,0.661456 0.17053,0.268717 0.42374,0.434081 0.25838,0.170531 0.57361,0.242878 0.31522,0.07235 0.63045,0.07235 0.32556,0 0.66662,-0.05168 0.34623,-0.05168 0.6873,-0.144694 0.34106,-0.09302 0.66662,-0.21704 0.32556,-0.124023 0.60461,-0.268717 0.0775,-0.04134 0.20671,-0.113688 0.12919,-0.07235 0.25321,-0.155028 0.12919,-0.07752 0.22221,-0.155029 0.0982,-0.07752 0.10852,-0.134359 -0.0103,-0.05684 -0.13436,-0.124023 -0.12402,-0.06718 -0.31522,-0.134358 -0.19121,-0.06201 -0.43408,-0.124023 -0.23772,-0.06201 -0.47543,-0.113688 -0.23771,-0.05168 -0.45475,-0.08785 -0.21704,-0.03101 -0.3669,-0.04134 -0.093,0 -0.10335,-0.02067 -0.0103,-0.02067 0,-0.08268 0.0207,-0.07235 0.0517,-0.155029 0.0362,-0.08268 0.0724,-0.1601958 0.0413,-0.072347 0.0724,-0.1343583 0.0362,-0.062012 0.0568,-0.093017 0.1757,-0.1601964 0.35657,-0.2893871 0.18087,-0.1291906 0.37724,-0.2428784 0.19636,-0.1136878 0.40824,-0.2170404 0.21187,-0.1085201 0.45475,-0.2222079 -0.11886,-0.2325432 -0.10852,-0.4960922 0.0103,-0.2635489 0.0982,-0.5219303 0.093,-0.2583813 0.23771,-0.4909245 0.14987,-0.2377109 0.30489,-0.4185778 0.062,-0.072347 0.16537,-0.1550288 0.10335,-0.08785 0.23254,-0.1550288 0.12919,-0.072347 0.28422,-0.1085202 0.15503,-0.036173 0.32039,-0.015503 0.1447,0.020671 0.25322,0.1446935 0.11369,0.124023 0.18086,0.3203929 0.0672,0.1912022 0.0827,0.4340806 0.0155,0.2428785 -0.031,0.5012598 -0.0465,0.2532137 -0.16536,0.5064274 -0.11369,0.2480461 -0.31006,0.4547512 0.20154,0.062011 0.47542,0.093017 0.27389,0.031006 0.58394,0.031006 h 0.0982 q 0.16019,0.015503 0.23771,0.1446936 0.0775,0.1291907 0.0775,0.2790518 0,0.1498612 -0.0775,0.2738842 -0.0775,0.1188555 -0.23771,0.1188555 h -0.0982 q -0.34106,0 -0.62528,-0.036173 -0.28422,-0.036173 -0.52193,-0.098185 -0.23771,-0.062012 -0.44442,-0.1446936 -0.20153,-0.082682 -0.38757,-0.1756993 -0.44958,0.1498612 -0.78031,0.3100576 -0.33073,0.1550288 -0.59428,0.2738842 z m 1.45727,-5.4208405 q 0.031,-0.051676 0.0724,-0.010335 l 0.62528,0.5064274 q 0.0103,0.025838 0.0155,0.041341 0.005,0.015503 -0.0155,0.046509 l -0.41341,0.4960921 q -0.031,0.041341 -0.0827,0.010335 l -0.61495,-0.4960922 q -0.031,-0.031006 0,-0.082682 z m 0.76481,-1.4210972 q -0.25838,0.1188554 -0.5426,0.2480461 -0.27905,0.1291906 -0.5426,0.248046 -0.26355,0.1188555 -0.49092,0.222208 -0.22738,0.1033525 -0.38757,0.1705317 -0.0362,0.015503 -0.0517,0 -0.0155,-0.015503 0,-0.046509 l 0.25321,-0.5064274 q 0.0258,-0.041341 0.0517,-0.056844 0.031,-0.020671 0.0568,-0.036173 l 1.88619,-0.8371555 q 0.0827,-0.036173 0.0517,0.041341 l -0.21187,0.4805893 q -0.0155,0.046509 -0.0724,0.072347 z m -10.56779,-0.098185 q 0.0258,0 0.0413,0.020671 0.0155,0.020671 0.0207,0.051676 0.0103,0.025838 0.0103,0.062012 0,0.031006 0,0.046509 -0.0103,0.1860346 0.005,0.3617339 0.0155,0.1756993 0.0362,0.3565662 0.0517,0.4340807 0.11369,0.8939995 0.0672,0.4599187 0.13436,0.9301728 0.0672,0.470254 0.12919,0.9301728 0.0672,0.4599188 0.10852,0.8991671 0.0207,0.1705316 0.0258,0.4030749 0.0103,0.2273755 -0.005,0.4650864 -0.0155,0.2377108 -0.0568,0.4547511 -0.0362,0.2170403 -0.10852,0.3565663 -0.0207,0.046509 -0.0465,0.077514 -0.0207,0.025838 -0.0413,0.036173 -0.0517,0.010335 -0.0413,-0.041341 -0.031,-0.4237454 -0.0724,-0.8526584 -0.0413,-0.4340806 -0.10335,-0.8836642 -0.12919,-0.9198375 -0.25322,-1.8190046 -0.11885,-0.899167 -0.23771,-1.8190046 0.0103,-0.1136878 0.0413,-0.2325432 0.031,-0.1188554 0.0879,-0.2480461 0.0258,-0.067179 0.0568,-0.1446935 0.0362,-0.082682 0.062,-0.1498612 0.0258,-0.072347 0.0517,-0.1136878 0.0258,-0.041341 0.0413,-0.041341 z m -0.43409,8.3353816 q 0.0258,-0.0155 0.0775,-0.04134 0.0568,-0.02584 0.11369,-0.05684 0.062,-0.02584 0.11885,-0.05684 0.0568,-0.02584 0.0982,-0.04651 -0.10852,-0.08268 -0.20671,-0.191202 -0.093,-0.10852 -0.14986,-0.237711 -0.031,-0.08268 -0.0103,-0.160197 0.0207,-0.07751 0.0672,-0.155028 0.0723,-0.09818 0.17053,-0.201538 0.0982,-0.1033523 0.21704,-0.191202 0.12402,-0.082682 0.25838,-0.1343583 0.13436,-0.051676 0.27388,-0.051676 0.062,0 0.10852,0.031006 0.0517,0.036173 0.0879,0.082682 0.0413,0.051676 0.0724,0.1033525 0.031,0.056844 0.0413,0.1033518 0.031,0.103353 0,0.1757 -0.0827,0.165364 -0.12919,0.206705 -0.0465,0.04651 -0.0879,0.04134 -0.0362,-0.0052 -0.0517,-0.06201 -0.0155,-0.05168 -0.0413,-0.113688 -0.031,-0.07751 -0.093,-0.103352 -0.0568,-0.02584 -0.1292,-0.02584 -0.23771,0 -0.42374,0.160196 0.0362,0.08268 0.093,0.160197 0.0568,0.08268 0.12919,0.144693 0.0723,0.06718 0.16019,0.10852 0.0879,0.04134 0.1757,0.05168 0.24805,0.02584 0.47542,-0.0155 0.23255,-0.03617 0.48059,-0.08785 0.005,0.01033 -0.0155,0.07751 -0.0207,0.06718 -0.0517,0.144694 -0.031,0.08268 -0.062,0.144694 -0.031,0.06718 -0.0465,0.06718 -0.2067,0.02067 -0.41857,0.05684 -0.21188,0.03617 -0.44442,0.103352 -0.23771,0.06201 -0.48059,0.170532 -0.23771,0.113688 -0.45475,0.222208 -0.0362,0.0155 -0.0517,-0.0052 -0.0155,-0.0155 -0.0155,-0.03617 0.005,-0.02584 0.0207,-0.07752 0.0155,-0.04651 0.0362,-0.103352 0.0207,-0.05168 0.0413,-0.10852 0.0207,-0.05168 0.0465,-0.09302 z m 1.74149,1.00252 q -0.50642,0.160196 -0.99735,0.32556 -0.49092,0.165365 -0.94051,0.310058 -0.0827,0.02584 -0.0413,-0.05168 l 0.21188,-0.39274 q 0.0155,-0.03101 0.0258,-0.04651 0.0155,-0.0155 0.0465,-0.02584 0.13953,-0.05168 0.3669,-0.12919 0.22738,-0.07235 0.49093,-0.160197 0.26871,-0.08268 0.54777,-0.170531 0.27905,-0.08785 0.53226,-0.165364 0.0413,-0.0155 0.0517,-0.01034 0.0103,0.01034 -0.0103,0.05168 l -0.2222,0.403074 q -0.0155,0.02067 -0.031,0.03617 -0.0103,0.02067 -0.031,0.02584 z m -4.19611,-4.3821475 q 0.0413,-0.1136878 0.12402,-0.1188555 0.0827,-0.010335 0.0517,0.1291907 -0.0362,0.124023 -0.0775,0.2428785 -0.0362,0.1136878 -0.0827,0.2273755 0.0362,0.093017 0.1757,0.1860346 0.1447,0.093017 0.32556,0.1550288 0.18087,0.067179 0.36174,0.08785 0.18603,0.02067 0.30489,-0.025838 0,-0.1860345 -0.031,-0.346231 -0.031,-0.165364 -0.10852,-0.3669015 l 0.32039,-0.552936 q 0.0103,-0.02067 0.031,-0.015503 0.0207,0 0.0258,0.02067 0.12402,0.3565662 0.12402,0.6614562 0.005,0.30489 -0.0827,0.6252829 -0.0258,0.098185 -0.0775,0.2273755 -0.0517,0.1240231 -0.12402,0.2428785 -0.0723,0.1188554 -0.16536,0.2118727 -0.093,0.08785 -0.20671,0.098185 -0.11885,0.015503 -0.28422,-0.010335 -0.16019,-0.031006 -0.32556,-0.098185 -0.17053,-0.072347 -0.33073,-0.1756993 -0.16019,-0.1085201 -0.26871,-0.2480461 -0.1447,0.2273756 -0.39791,0.3720692 -0.24805,0.1446935 -0.54777,0.1963698 -0.29972,0.051676 -0.61495,0.015503 -0.31522,-0.041341 -0.5891,-0.180867 -0.31006,0.180867 -0.60978,0.2377109 -0.29456,0.056844 -0.55294,0.056844 h -0.093 q -0.16019,0 -0.23771,-0.1240231 -0.0775,-0.1291906 -0.0775,-0.2790518 0,-0.1498612 0.0775,-0.2790519 0.0775,-0.1291906 0.23771,-0.1291906 h 0.093 q 0.32556,0 0.59428,-0.02067 0.27388,-0.025838 0.52193,-0.1343583 0.23254,-0.093017 0.43408,-0.2893871 0.20153,-0.2015375 0.36173,-0.4702541 0.0517,-0.093017 0.11369,-0.098185 0.062,-0.010335 0.0413,0.1085202 -0.0155,0.093017 -0.0517,0.206705 -0.0362,0.1136878 -0.0827,0.2325433 -0.0465,0.1188554 -0.10335,0.2273755 -0.0568,0.1033526 -0.11369,0.1756993 0.15503,0.041341 0.33073,0.051676 0.1757,0.010335 0.3514,-0.010335 0.26355,-0.025838 0.49609,-0.1291907 0.23771,-0.1033526 0.41341,-0.3100576 0.0982,-0.1136878 0.1757,-0.2583814 0.0775,-0.1446935 0.14986,-0.3255604 z m -5.28131,1.1472131 q 0.0155,0.00517 0.031,0 0.0155,-0.010335 -0.0103,-0.046509 -0.0879,-0.098185 -0.14987,-0.2015375 -0.062,-0.1085202 -0.10852,-0.2015374 -0.0465,-0.093017 -0.0775,-0.1653641 -0.031,-0.072347 -0.0517,-0.1136878 -0.0517,-0.093017 -0.13435,-0.077514 -0.093,0.020671 -0.22738,0.1085202 -0.13436,0.08785 -0.22221,0.2067051 -0.031,0.036173 -0.031,0.051676 0,0.015503 0.0413,0.041341 0.0827,0.062012 0.20153,0.1291907 0.11886,0.067179 0.24805,0.124023 0.12919,0.051676 0.25838,0.093017 0.12919,0.041341 0.23255,0.051676 z m 0.51159,0.4805893 q -0.0465,0.1085201 -0.10335,0.2325432 -0.0517,0.1291907 -0.0982,0.1446935 -0.17053,0.031006 -0.43925,-0.025838 -0.26871,-0.051676 -0.53226,-0.1601964 -0.26355,-0.1085202 -0.46509,-0.2583814 -0.19637,-0.1498611 -0.21704,-0.3152252 -0.13952,0.1860346 -0.29972,0.30489 -0.15503,0.1136878 -0.31522,0.1860345 -0.16537,0.067179 -0.32557,0.093017 -0.15502,0.025838 -0.29455,0.025838 h -0.093 q -0.16536,0 -0.24804,-0.1240231 -0.0827,-0.1291906 -0.0827,-0.2790518 0,-0.1550288 0.0827,-0.2790519 0.0827,-0.1291906 0.24804,-0.1291906 h 0.093 q 0.1912,0 0.3824,-0.010335 0.19121,-0.010335 0.37207,-0.062012 0.18087,-0.051676 0.3514,-0.1601964 0.17053,-0.1136878 0.32039,-0.3152253 0.0827,-0.1085201 0.18087,-0.2170403 0.0982,-0.1136878 0.19637,-0.2015374 0.10335,-0.08785 0.20671,-0.139526 0.10335,-0.056844 0.19637,-0.056844 0.093,0 0.20153,0.08785 0.10852,0.08785 0.21704,0.2067051 0.11369,0.1136878 0.21188,0.2377108 0.10335,0.124023 0.1757,0.1912022 0.12402,0.1291907 0.26355,0.2118727 0.13952,0.082682 0.28938,0.1343583 0.14986,0.051676 0.31523,0.072347 0.16536,0.02067 0.34623,0.02067 h 0.093 q 0.16019,0 0.24287,0.1291906 0.0827,0.1240231 0.0827,0.2790519 0,0.1498612 -0.0827,0.2790518 -0.0827,0.1240231 -0.24287,0.1240231 h -0.093 q -0.14986,0 -0.29972,-0.00517 -0.14986,-0.00517 -0.29456,-0.031006 -0.14469,-0.020671 -0.28422,-0.067179 -0.13436,-0.046509 -0.25838,-0.124023 z m -0.42374,-5.0642743 q -0.25838,0.1188555 -0.5426,0.2480461 -0.27905,0.1291907 -0.5426,0.2480461 -0.26355,0.1188554 -0.49093,0.222208 -0.22737,0.1033525 -0.38757,0.1705317 -0.0362,0.015503 -0.0517,0 -0.0155,-0.015503 0,-0.046509 l 0.25321,-0.5064274 q 0.0258,-0.041341 0.0517,-0.056844 0.031,-0.020671 0.0568,-0.036173 l 1.88618,-0.8371555 q 0.0827,-0.036173 0.0517,0.041341 L 196.166,4.3276729 q -0.0155,0.046509 -0.0724,0.072347 z m -2.59932,4.4751648 q 0.15503,0 0.23254,0.1291907 0.0775,0.1291907 0.0775,0.2842195 0.005,0.1498612 -0.0724,0.2790518 -0.0775,0.1240231 -0.23771,0.1240231 -0.0155,0 -0.0362,0 -0.0155,0 -0.0362,0 -0.46508,0 -0.7648,-0.1705317 -0.29456,-0.1705317 -0.47026,-0.4547512 -0.2067,-0.3410633 -0.27388,-0.733803 -0.062,-0.3979072 -0.10336,-0.7906469 -0.0465,-0.4495835 -0.0982,-0.899167 -0.0517,-0.4495836 -0.10335,-0.8991671 -0.0517,-0.4650864 -0.12403,-0.9353404 -0.0672,-0.4754217 -0.2222,-1.0231901 -0.0103,-0.041341 -0.0155,-0.062012 -0.005,-0.020671 0.005,-0.051676 L 191.52,2.994425 q 0.0155,-0.036173 0.0413,-0.036173 0.031,0 0.0413,0.036173 0.0672,0.2945547 0.12402,0.594277 0.0568,0.2945548 0.10852,0.6407858 0.0517,0.3410633 0.0982,0.7544735 0.0517,0.4082425 0.10852,0.9301728 0.0413,0.3617339 0.0775,0.7131325 0.0362,0.3513986 0.0724,0.7027972 0.0362,0.2790519 0.0775,0.5736066 0.0413,0.2945547 0.1757,0.5426008 0.11886,0.2118727 0.34107,0.3203929 0.22737,0.1085201 0.63561,0.1085201 0.0207,0 0.0362,0 0.0207,0 0.0362,0 z m -3.576,-0.2687166 q -0.36173,0.1085202 -0.79064,0.2325432 -0.42375,0.1188555 -0.8785,0.2428785 -0.45475,0.1188554 -0.91984,0.2325432 -0.46508,0.1085202 -0.89916,0.1963698 -0.43408,0.082682 -0.82166,0.1343583 -0.38757,0.046509 -0.69246,0.046509 h -0.093 q -0.16536,0 -0.24287,-0.1240231 -0.0827,-0.1291906 -0.0827,-0.2790518 0,-0.1550288 0.0827,-0.2790519 0.0775,-0.1291906 0.24287,-0.1291906 h 0.093 q 0.0775,0 0.21187,-0.00517 0.13953,-0.010335 0.30489,-0.02067 0.16537,-0.010335 0.34624,-0.025838 0.18086,-0.015503 0.35139,-0.031006 0.17054,-0.02067 0.31523,-0.041341 0.14986,-0.02067 0.24288,-0.041341 -0.12403,-0.067179 -0.24288,-0.1860346 -0.11369,-0.1188554 -0.21187,-0.2687166 -0.0982,-0.1498611 -0.16537,-0.3203928 -0.0672,-0.1705317 -0.093,-0.3410634 -0.0465,-0.3203928 0.062,-0.6562886 0.10852,-0.3410633 0.31522,-0.6252828 0.21187,-0.2893871 0.49609,-0.4857569 0.28939,-0.2015375 0.59945,-0.2480461 0.38757,-0.056844 0.7028,0.00517 0.31522,0.056844 0.56327,0.1912022 0.24804,0.1291907 0.42891,0.3100576 0.18087,0.1808669 0.30489,0.3617339 0.0207,0.031006 0.005,0.056844 -0.0103,0.025838 -0.0413,0.041341 -0.0258,0.015503 -0.062,0.02067 -0.0362,0 -0.062,-0.015503 -0.33072,-0.1912022 -0.66662,-0.2428784 -0.3359,-0.051676 -0.74931,-0.020671 -0.20153,0.015503 -0.41341,0.062012 -0.2067,0.046509 -0.3979,0.1188554 -0.19121,0.072347 -0.3514,0.165364 -0.1602,0.093017 -0.25322,0.1963699 0,0.093017 0.0362,0.2222079 0.0362,0.1240231 0.10335,0.2583813 0.0672,0.1343583 0.15503,0.2687166 0.093,0.1291907 0.19637,0.2377109 0.10852,0.1085201 0.23771,0.2170403 0.12919,0.1033525 0.25321,0.1860346 0.12919,0.082682 0.24288,0.1343583 0.11369,0.051676 0.18604,0.051676 0.67179,-0.124023 1.33324,-0.3100576 0.66146,-0.1860345 1.25574,-0.3513986 0.0517,-0.010335 0.031,0.020671 -0.13435,0.2480461 -0.29455,0.470254 -0.1602,0.222208 -0.27389,0.3669015 z m -1.98953,2.7078362 q -0.50643,0.160197 -0.99735,0.325561 -0.49093,0.165364 -0.94051,0.310057 -0.0827,0.02584 -0.0413,-0.05168 l 0.21187,-0.39274 q 0.0155,-0.03101 0.0258,-0.04651 0.0155,-0.0155 0.0465,-0.02584 0.13952,-0.05168 0.3669,-0.129191 0.22738,-0.07235 0.49092,-0.160196 0.26872,-0.08268 0.54777,-0.170532 0.27905,-0.08785 0.53227,-0.165364 0.0413,-0.0155 0.0517,-0.01033 0.0103,0.01033 -0.0103,0.05168 l -0.22221,0.403075 q -0.0155,0.02067 -0.031,0.03617 -0.0103,0.02067 -0.031,0.02584 z m -3.86539,0.439249 q -0.0258,0.03101 -0.0413,0.03101 -0.0155,0.0052 -0.0568,-0.02584 l -0.61495,-0.480589 -0.40307,0.552936 q -0.0362,0.04651 -0.0775,0.0155 l -0.65629,-0.506428 q -0.0362,-0.02584 -0.0103,-0.06201 l 0.41858,-0.594277 q 0.0207,-0.03101 0.0362,-0.03101 0.0155,0 0.0362,0.02067 l 0.62012,0.470254 0.42374,-0.542601 q 0.031,-0.04134 0.062,-0.0155 l 0.65628,0.547768 q 0.0362,0.02584 0,0.07235 z m -2.16006,-2.0618835 h -0.093 q -0.15503,0 -0.23254,-0.1240231 -0.0775,-0.1291906 -0.0775,-0.2842195 0,-0.077514 0.0207,-0.1498611 0.0155,-0.072347 0.0568,-0.1291907 0.0362,-0.056844 0.0982,-0.093017 0.0568,-0.036173 0.13436,-0.036173 h 0.093 q 0.16019,0 0.35656,-0.010335 0.20154,-0.010335 0.37724,-0.056844 0.17053,-0.046509 0.33589,-0.1395259 0.16537,-0.098185 0.30489,-0.2687166 0.10336,-0.1240231 0.16537,-0.2532137 0.0672,-0.1291907 0.12919,-0.2945548 0.0258,-0.067179 0.0827,-0.072347 0.062,-0.00517 0.0672,0.025838 0.005,0.062011 -0.0103,0.1498612 -0.0103,0.08785 -0.0103,0.1601964 0,0.1343583 0.0672,0.2687166 0.0672,0.1343583 0.2067,0.2428784 0.13953,0.1085202 0.38241,0.180867 0.24804,0.067179 0.5581,0.067179 h 0.0982 q 0.0775,0 0.13436,0.036173 0.0568,0.036173 0.093,0.093017 0.0413,0.056844 0.0569,0.1291907 0.0207,0.072347 0.0207,0.1498611 0,0.1550289 -0.0775,0.2842195 -0.0723,0.1240231 -0.22737,0.1240231 h -0.0982 q -0.27905,0 -0.53226,-0.051676 -0.24805,-0.056844 -0.42375,-0.1653641 -0.34106,-0.206705 -0.53226,-0.6097799 -0.11369,0.2325432 -0.26872,0.387572 -0.15503,0.1550288 -0.34106,0.2532137 -0.19121,0.098185 -0.43408,0.1446935 -0.24288,0.041341 -0.48059,0.041341 z m -1.25057,1.2970745 -0.7338,-6.8264352 q 0.0517,-0.1705317 0.12402,-0.3307281 0.0724,-0.1653641 0.14986,-0.3358957 0.0207,-0.036173 0.0517,-0.036173 0.0362,-0.00517 0.0465,0.082682 l 0.46508,3.891223 q 0.031,0.3307281 0.0982,0.5994447 0.0672,0.2687166 0.19637,0.4547511 0.12919,0.1912022 0.33589,0.2945548 0.20671,0.098185 0.51676,0.098185 h 0.093 q 0.16537,0 0.24805,0.1291906 0.0827,0.1240231 0.0827,0.2790519 0,0.1498612 -0.0827,0.2790518 -0.0827,0.1240231 -0.24805,0.1240231 h -0.093 q -0.32039,0 -0.56843,-0.093017 -0.24805,-0.093017 -0.41858,-0.2842195 0.0155,0.1653641 0.031,0.3617339 0.0155,0.1912022 0.0258,0.3720696 0.0155,0.186034 0.0207,0.341063 0.005,0.155029 0,0.242879 -0.0413,0.506427 -0.24288,0.909502 -0.19637,0.403075 -0.52193,0.687294 -0.32039,0.289387 -0.7493,0.439248 -0.42375,0.155029 -0.91984,0.155029 -0.43925,0 -0.80098,-0.134358 -0.36174,-0.129191 -0.62528,-0.377237 -0.25839,-0.248046 -0.40308,-0.604612 -0.14469,-0.351399 -0.14469,-0.795815 0,-0.480589 0.15503,-0.925005 0.15502,-0.4392483 0.43408,-0.8474908 0.031,-0.046509 0.0517,-0.041341 0.0258,0 0.0413,0.025838 0.0155,0.025838 0.0207,0.062012 0.005,0.031006 0,0.041341 -0.21704,0.4599187 -0.29455,0.9560108 -0.0775,0.50126 0.0775,0.904335 0.15503,0.403075 0.5271,0.656288 0.37724,0.253214 1.01802,0.253214 0.28939,0 0.57878,-0.06718 0.29455,-0.06201 0.56327,-0.191202 0.26872,-0.124023 0.49609,-0.315226 0.23254,-0.186034 0.39791,-0.43408 z m -8.92966,0.930173 h -0.66662 q 1.54512,-2.4804612 1.54512,-4.9660897 0,-0.9715139 -0.22221,-1.9275248 -0.1757,-0.775144 -0.49092,-1.4882765 -0.20154,-0.4650864 -0.83199,-1.5502881 h 0.66662 q 0.97151,1.2970744 1.4366,2.6044839 0.39791,1.1265427 0.39791,2.3564378 0,1.3952593 -0.53743,2.6975012 -0.53227,1.3022422 -1.29708,2.2737562 z m -1.71049,-4.1341018 q -0.0207,0.046509 -0.0672,0.1395259 -0.0465,0.08785 -0.10336,0.1860346 -0.0517,0.098185 -0.10852,0.1912022 -0.0568,0.08785 -0.0982,0.1395259 -0.031,0.056844 -0.14986,0.031006 -0.54777,-0.1033525 -1.02319,-0.056844 -0.47543,0.046509 -0.94568,0.1963698 -0.40824,0.1343583 -0.77514,0.2997223 -0.36691,0.1601965 -0.72347,0.2842195 -0.68213,0.2480461 -1.32291,0.3720691 -0.63562,0.1240231 -1.31775,0.1240231 h -0.093 q -0.16536,0 -0.24804,-0.1240231 -0.0827,-0.1291906 -0.0827,-0.2842195 0,-0.1550288 0.0827,-0.2790518 0.0827,-0.1291907 0.24804,-0.1291907 h 0.093 q 0.23771,0 0.49609,-0.010335 0.25838,-0.010335 0.50643,-0.031006 0.24805,-0.02067 0.47026,-0.046509 0.2222,-0.031006 0.39273,-0.067179 0.35657,-0.077514 0.74931,-0.2170403 0.39791,-0.1446935 0.83716,-0.3255605 -0.25322,-0.036173 -0.58911,-0.08785 -0.3359,-0.056844 -0.69247,-0.1085202 -0.35656,-0.056844 -0.69762,-0.1033525 -0.34107,-0.046509 -0.59945,-0.072347 -0.0362,-0.010335 -0.10335,0.010335 -0.0672,0.020671 -0.13436,0.046509 -0.031,0.010335 -0.062,-0.010335 -0.031,-0.020671 -0.0207,-0.067179 0.062,-0.222208 0.18086,-0.4495835 0.11886,-0.2273756 0.22221,-0.3875721 0.0465,-0.067179 0.23255,-0.1550288 0.1912,-0.093017 0.45475,-0.206705 0.26871,-0.1188554 0.57877,-0.263549 0.31006,-0.1446935 0.60461,-0.3152252 0.29456,-0.1756993 0.53744,-0.3824044 0.24287,-0.2118727 0.37207,-0.4547512 0.10335,-0.1963698 0.22737,-0.4392482 0.12402,-0.2428785 0.26872,-0.4495836 0.14986,-0.2118727 0.31522,-0.346231 0.17053,-0.1395259 0.3669,-0.1291906 0.1757,0.010335 0.3359,0.1860345 0.1602,0.1756993 0.28422,0.4185778 0.12402,0.2428785 0.19637,0.5064274 0.0724,0.263549 0.0724,0.4444159 0,0.093017 -0.0362,0.2170404 -0.0362,0.124023 -0.0879,0.2377108 -0.0465,0.1085201 -0.10335,0.1963698 -0.0568,0.082682 -0.0982,0.098185 -0.10852,0.041341 -0.29973,0.031006 -0.18603,-0.010335 -0.41341,-0.067179 -0.2222,-0.062011 -0.45475,-0.1705317 -0.23254,-0.1136878 -0.42374,-0.2790518 -0.45475,0.5942771 -0.97668,0.9405081 -0.52194,0.346231 -1.14722,0.5270979 0.37724,0.067179 0.70797,0.1291907 0.33073,0.056844 0.64078,0.1136878 0.31523,0.051676 0.62529,0.098185 0.31522,0.046509 0.65628,0.08785 0.53227,0.062011 1.10071,0.1188554 0.56844,0.051676 1.1007,0.072347 0.0775,0.00517 0.0413,0.072347 z m -1.31257,-2.3719407 q -0.031,-0.077514 -0.093,-0.2170403 -0.062,-0.139526 -0.14986,-0.2790519 -0.0827,-0.1395259 -0.1912,-0.2377108 -0.10336,-0.1033525 -0.22221,-0.1033525 -0.0517,0 -0.12919,0.051676 -0.0724,0.046509 -0.1447,0.1188554 -0.0723,0.067179 -0.12919,0.139526 -0.0568,0.067179 -0.0775,0.1136878 0.24805,0.2170403 0.5271,0.3100576 0.28422,0.093017 0.60978,0.1033525 z m -3.28145,4.9712565 0.63562,0.527098 q 0.0413,0.03617 0.005,0.08268 l -0.42375,0.532266 q -0.0362,0.05168 -0.0827,0.01033 L 164.912,11.009407 q -0.0413,-0.03617 0,-0.08785 l 0.42891,-0.527098 q 0.0362,-0.04651 0.0775,-0.01034 z m 1.48828,-7.5395668 q 0.17053,-0.098185 0.3359,-0.1963698 0.16536,-0.098185 0.32039,-0.2118727 0.1602,-0.1136878 0.31523,-0.2480461 0.15502,-0.1343583 0.29972,-0.30489 -0.13953,-0.041341 -0.29456,-0.1395259 -0.15503,-0.098185 -0.24804,-0.2118727 -0.0465,-0.056844 -0.0568,-0.1446935 -0.0103,-0.093017 0.0155,-0.1705317 0.0413,-0.1240231 0.11368,-0.26871661 0.0775,-0.14469355 0.18087,-0.26354896 0.10335,-0.11885542 0.22738,-0.19120219 0.12919,-0.0775144 0.25838,-0.0723468 0.16019,0.0103353 0.23254,0.1550288 0.0724,0.13952593 0.0878,0.32556049 0.0207,0.18603457 0,0.36690157 -0.0155,0.1808669 -0.0258,0.2635489 0,0.025838 0.0155,0.041341 0.062,0.036173 0.0827,0.067179 0.0258,0.031006 0.0413,0.072347 0.031,0.077514 0.0103,0.1860345 -0.0155,0.1085202 -0.062,0.1653641 -0.0413,0.051676 -0.0724,0.051676 -0.031,-0.00517 -0.062,-0.051676 -0.0258,-0.031006 -0.0517,-0.056844 -0.0207,-0.031006 -0.0672,-0.051676 -0.1447,0.1756993 -0.31006,0.3358958 -0.1602,0.1601964 -0.34106,0.2945547 -0.18604,0.1291906 -0.38757,0.2325432 -0.20154,0.1033525 -0.42375,0.1705317 -0.0879,0.025838 -0.18087,0.036173 -0.093,0.00517 -0.10335,-0.020671 -0.0103,-0.031006 0.0362,-0.072347 0.0465,-0.046509 0.11369,-0.08785 z m 0.97152,-1.7363226 q 0.10852,0.1498612 0.25838,0.2377109 0.14986,0.082682 0.27388,0.1136877 h 0.0103 q 0,-0.041341 0.005,-0.1085201 0.005,-0.072347 0,-0.1446936 0,-0.072347 -0.0207,-0.1395259 -0.0155,-0.0671791 -0.062,-0.11368778 -0.0413,-0.0361734 -0.11885,-0.0310058 -0.0724,0 -0.1447,0.0258381 -0.0723,0.0258381 -0.13436,0.0723468 -0.0568,0.041341 -0.0672,0.08785 z m -2.35128,1.9998712 q -0.25838,0.1188554 -0.5426,0.2480461 -0.27905,0.1291907 -0.5426,0.2480461 -0.26355,0.1188554 -0.49092,0.2222079 -0.22738,0.1033526 -0.38757,0.1705317 -0.0362,0.015503 -0.0517,0 -0.0155,-0.015503 0,-0.046509 l 0.25321,-0.5064274 q 0.0258,-0.041341 0.0517,-0.056844 0.031,-0.020671 0.0568,-0.036173 l 1.88619,-0.8371556 q 0.0827,-0.036173 0.0517,0.041341 l -0.21187,0.4805893 q -0.0155,0.046509 -0.0724,0.072347 z m -4.04625,5.6533838 q 0.031,0.067179 0.15503,0.1033526 0.12919,0.036173 0.28422,0.051676 0.15503,0.010335 0.30489,0.00517 0.15503,-0.00517 0.23254,-0.015503 0,-0.02067 -0.0568,-0.1033525 -0.0517,-0.082682 -0.13953,-0.1705317 -0.0878,-0.093017 -0.19636,-0.1653641 -0.10336,-0.077514 -0.20671,-0.08785 -0.0568,0 -0.12402,0.041341 -0.062,0.036173 -0.11886,0.098185 -0.0568,0.056844 -0.0982,0.124023 -0.0362,0.067179 -0.0362,0.1188554 z m 1.13688,0.9353405 -0.51676,0.010335 q -0.21704,0.010335 -0.41341,-0.041341 -0.1912,-0.056844 -0.3359,-0.165364 -0.13952,-0.1136878 -0.21704,-0.2790519 -0.0723,-0.1705317 -0.0465,-0.387572 0.0155,-0.1446935 0.10336,-0.3565662 0.0879,-0.2118727 0.2222,-0.4082425 0.13436,-0.2015375 0.29973,-0.3410634 0.16536,-0.1446936 0.33589,-0.1446936 0.18087,0 0.3359,0.1498612 0.16019,0.1446936 0.28422,0.346231 0.11885,0.2067051 0.19637,0.4340807 0.0775,0.2222079 0.0982,0.3824043 l 0.41341,-0.015503 h 0.0982 q 0.0775,0 0.13952,0.036173 0.062,0.036173 0.10336,0.093017 0.0413,0.056844 0.062,0.1291907 0.0207,0.072347 0.0207,0.1498612 0.005,0.1498612 -0.0775,0.2790518 -0.0827,0.1240231 -0.24804,0.1240231 h -0.0982 l -0.43408,0.00517 q -0.093,0.4392475 -0.21704,0.8629935 -0.11885,0.423745 -0.30489,0.780311 -0.1912,0.356567 -0.46508,0.625283 -0.26872,0.268717 -0.66146,0.39274 -0.25838,0.09302 -0.57361,0.118855 -0.31006,0.02584 -0.63562,0.0052 -0.32039,-0.0155 -0.63045,-0.07235 -0.31522,-0.05684 -0.56844,-0.129191 -0.0723,-0.02067 -0.0878,-0.06201 -0.0207,-0.03617 0,-0.07235 0.0155,-0.03617 0.0672,-0.06201 0.0517,-0.02584 0.12403,-0.02067 0.24288,0.02584 0.5271,0.0052 0.28938,-0.0155 0.57877,-0.07235 0.29455,-0.05168 0.56844,-0.139526 0.27388,-0.08785 0.48576,-0.206705 0.29455,-0.160196 0.52193,-0.382404 0.22737,-0.222208 0.40824,-0.485757 0.18086,-0.263549 0.31006,-0.537433 0.13435,-0.2687167 0.22737,-0.5477685 z m -1.31774,-4.7077082 q -0.11369,0.2273756 -0.25838,0.3410633 -0.15503,0.1188555 -0.36691,0.1240231 -0.17053,0.00517 -0.29972,-0.08785 -0.12402,-0.093017 -0.14469,-0.3255605 -0.0103,-0.1033525 0.0103,-0.2118727 0.0207,-0.1136877 0.062,-0.2118727 0.0413,-0.093017 0.093,-0.1601964 0.0568,-0.072347 0.11886,-0.093017 0.062,-0.00517 0.0103,0.093017 -0.031,0.056844 -0.0517,0.1343583 -0.0155,0.077514 -0.0207,0.1550288 0,0.072347 0.0155,0.1240231 0.0155,0.051676 0.0672,0.098185 0.0775,0.056844 0.16536,0.056844 0.0879,-0.00517 0.17053,-0.041341 0.0878,-0.036173 0.15503,-0.082682 0.0724,-0.051676 0.1447,-0.1343583 0.0672,-0.077514 0.0982,-0.1963698 0.031,-0.1188554 0.0413,-0.1963698 0.005,-0.067179 0.0362,-0.1343583 0.031,-0.067179 0.10335,-0.067179 0.0155,0 0.0207,0.031006 0.0103,0.025838 0.0155,0.062011 0.005,0.036173 0.005,0.072347 0,0.031006 0,0.046509 0,0.1498612 0.0465,0.2377109 0.0465,0.082682 0.18603,0.1136878 0.0724,0.015503 0.18604,-0.015503 0.11885,-0.031006 0.2067,-0.1033526 0.0103,-0.010335 0.005,-0.056844 -0.005,-0.046509 -0.0207,-0.098185 -0.0103,-0.051676 -0.0362,-0.1085201 -0.0207,-0.062011 -0.0258,-0.072347 l 0.1912,-0.3617339 q 0.0517,0.025838 0.0775,0.1136878 0.031,0.08785 0.0362,0.2015375 0.0103,0.1085201 0,0.2222079 -0.0103,0.1136878 -0.0258,0.1912022 -0.062,0.1912022 -0.17053,0.346231 -0.10336,0.1550288 -0.3204,0.1963698 -0.1912,0.036173 -0.32039,-0.025838 -0.12919,-0.062011 -0.2067,-0.1756993 z m 0.93017,-2.077386 q -0.25838,0.1188554 -0.5426,0.2480461 -0.27905,0.1291907 -0.5426,0.2480461 -0.26355,0.1188554 -0.49093,0.2222079 -0.22737,0.1033526 -0.38757,0.1705317 -0.0362,0.015503 -0.0517,0 -0.0155,-0.015503 0,-0.046509 l 0.25322,-0.5064274 q 0.0258,-0.041341 0.0517,-0.056844 0.031,-0.020671 0.0568,-0.036173 l 1.88618,-0.8371556 q 0.0827,-0.036173 0.0517,0.041341 l -0.21187,0.4805893 q -0.0155,0.046509 -0.0724,0.072347 z m -4.82656,3.6948534 0.0258,-0.6976296 q 0.0103,-0.082682 0.0672,-0.093017 0.062,-0.010335 0.13953,0.015503 0.3514,0.1085201 0.66146,0.3617338 0.31005,0.2480461 0.55293,0.5736066 0.23771,0.3255605 0.38757,0.692462 0.15503,0.3617339 0.18604,0.6872944 0.0103,0.124023 0,0.2842194 -0.0103,0.1601965 -0.0465,0.3203929 -0.031,0.1550288 -0.0827,0.2790518 -0.0465,0.1240231 -0.11369,0.1756993 -0.1757,0.139526 -0.43925,0.2377109 -0.26355,0.098185 -0.5581,0.1601964 -0.29972,0.062012 -0.60461,0.08785 -0.30489,0.031006 -0.56844,0.031006 -0.062,0 -0.15503,-0.010335 -0.0879,-0.00517 -0.1757,-0.031006 -0.0879,-0.031006 -0.15503,-0.082682 -0.062,-0.051676 -0.0672,-0.1343583 0,-0.041341 0,-0.1601964 0.005,-0.1188555 0.0155,-0.2480461 0.0103,-0.1291907 0.0258,-0.2273756 0.0155,-0.1033525 0.0413,-0.1033525 0.0155,0 0.0258,0.020671 0.0155,0.02067 0.031,0.036173 0.0879,0.062012 0.21187,0.093017 0.12402,0.031006 0.25838,0.041341 0.13953,0.00517 0.27388,0 0.13953,-0.010335 0.24288,-0.015503 0.18087,-0.010335 0.37724,-0.036173 0.19637,-0.031006 0.37724,-0.072347 0.18603,-0.041341 0.35139,-0.093017 0.16537,-0.056844 0.28422,-0.1188554 0.0517,-0.025838 0.0982,-0.062011 0.0465,-0.041341 0.0568,-0.072347 Q 159.0831,8.1723872 158.91257,7.8726648 158.74721,7.5729425 158.5095,7.3093935 158.26662,7.0510122 157.97723,6.85981 157.69301,6.6634402 157.40363,6.6065963 Z M 154.949,11.918917 q -0.76997,-0.971514 -1.30224,-2.2737562 -0.53226,-1.3022419 -0.53226,-2.6975012 0,-1.2298951 0.3979,-2.3564378 0.46509,-1.3074095 1.4366,-2.6044839 h 0.66663 q -0.62529,1.0748664 -0.82682,1.5347852 -0.31523,0.7131325 -0.4961,1.4882765 -0.2222,0.9663462 -0.2222,1.9430277 0,2.4856285 1.54512,4.9660897 z"
         id="text21"
         style="font-size:10.5833px;line-height:1.25;font-family:'KFGQPC Uthmanic Script HAFS';-inkscape-font-specification:'KFGQPC Uthmanic Script HAFS';direction:rtl;stroke-width:0.264583"
         aria-label="   ()" />
    </g>
  </g>
</svg>
