<?xml version="1.0" encoding="UTF-8" standalone="no"?>
<!-- Created with Inkscape (http://www.inkscape.org/) -->

<svg
   width="76.923027mm"
   height="15.48649mm"
   viewBox="0 0 76.923027 15.48649"
   version="1.1"
   id="svg1"
   xmlns="http://www.w3.org/2000/svg"
   xmlns:svg="http://www.w3.org/2000/svg">
  <defs
     id="defs1" />
  <g
     id="layer1"
     transform="translate(-1894.1108)">
    <g
       id="g32"
       transform="translate(1520.4656,-0.42062518)">
      <path
         d="m 449.36831,3.3150257 q 0.0827,0.00517 0.0775,0.1912022 -0.0103,0.1963698 0.005,0.387572 0.0155,0.1860345 0.0414,0.3772367 0.0517,0.4599188 0.12402,0.9508434 0.0724,0.4857569 0.14469,0.981849 0.0672,0.4909246 0.13436,0.9818491 0.0672,0.4909246 0.11369,0.956011 0.0207,0.1808669 0.0258,0.4237454 0.0103,0.2428784 -0.005,0.4960921 -0.0103,0.2480461 -0.0568,0.4805893 -0.0414,0.2325432 -0.11886,0.387572 -0.0413,0.08785 -0.0982,0.1136881 -0.0465,0.0052 -0.0413,-0.04134 -0.031,-0.4495838 -0.0775,-0.904335 -0.0413,-0.4599187 -0.10852,-0.9353404 -0.0672,-0.4909246 -0.13436,-0.9715138 -0.0672,-0.4805893 -0.12919,-0.9611786 -0.0672,-0.4805893 -0.13436,-0.9611786 -0.062,-0.4805893 -0.12402,-0.9663462 0.0155,-0.1188554 0.0465,-0.2428785 0.031,-0.1291906 0.0879,-0.2635489 0.12402,-0.3358958 0.16536,-0.4082426 0.0465,-0.072347 0.062,-0.072347 z M 447.1514,3.0256386 q 0.0155,-0.046509 0.0413,-0.056844 0.0258,-0.010335 0.0413,0.056844 0.0413,0.124023 0.093,0.2532137 0.0517,0.1291907 0.11886,0.2532137 0.0723,0.124023 0.16536,0.2325432 0.093,0.1033525 0.21187,0.1756993 -0.0723,0.1240231 -0.12919,0.2170403 -0.0517,0.08785 -0.0879,0.1653641 -0.0362,0.072347 -0.0517,0.1446935 -0.0155,0.067179 -0.005,0.1446936 0.0568,0.4960922 0.12919,0.997352 0.0775,0.4960921 0.14469,0.9921843 0.0723,0.4960922 0.12403,0.9921843 0.0568,0.4960922 0.0723,0.997352 0.005,0.1653641 -0.0207,0.3358958 -0.0258,0.1705316 -0.0827,0.3255604 -0.0568,0.1550288 -0.14469,0.2945548 -0.0827,0.1343583 -0.1912,0.2273755 -0.14987,0.1291907 -0.37207,0.1860346 -0.21704,0.051676 -0.53227,0.051676 h -0.093 q -0.16536,0 -0.24804,-0.1240243 -0.0879,-0.1291906 -0.0879,-0.2790518 0,-0.1550288 0.0879,-0.2790519 0.0827,-0.1291906 0.24804,-0.1291906 h 0.093 q 0.17053,0 0.33073,-0.010335 0.1602,-0.015503 0.29455,-0.046509 0.13436,-0.036173 0.22738,-0.093017 0.0982,-0.062012 0.13953,-0.1550288 -0.10336,-1.0903693 -0.26872,-2.1497327 -0.16537,-1.0645312 -0.32039,-2.1393975 -0.031,-0.2170404 -0.0672,-0.4237454 -0.031,-0.2118727 -0.14986,-0.4082425 -0.0413,-0.056844 -0.0465,-0.072347 -0.005,-0.020671 0.0258,-0.082682 0.0879,-0.1498612 0.1602,-0.30489 0.0775,-0.1601965 0.14986,-0.2893871 z m -3.37963,5.2503088 q 0.062,-0.1033526 0.12402,-0.098185 0.0672,0.00517 0.0362,0.124023 -0.0258,0.1085202 -0.0723,0.2273756 -0.0465,0.1136878 -0.10336,0.2480461 0.0362,0.08785 0.1602,0.1756993 0.12919,0.082682 0.28939,0.1446935 0.15503,0.056844 0.31522,0.082682 0.16537,0.025838 0.27389,-0.015503 0.1757,-0.056844 0.28938,-0.3152253 0.11369,-0.2635489 0.19637,-0.552936 0.0413,-0.1550288 0.10852,-0.180867 0.0672,-0.025838 0.0775,0.1136878 0.0207,0.2583814 0.093,0.4444159 0.0723,0.1860346 0.21704,0.2997224 0.27388,0.2273756 0.89916,0.2273756 h 0.093 q 0.16536,0 0.24805,0.1291906 0.0827,0.1291907 0.0827,0.2790519 0,0.1498612 -0.0827,0.2790518 -0.0827,0.1240234 -0.24805,0.1240234 h -0.093 q -0.27388,0 -0.47025,-0.031006 -0.19637,-0.036173 -0.38241,-0.1136878 -0.43408,-0.1860345 -0.65628,-0.6149476 -0.0362,0.082682 -0.093,0.1963699 -0.0568,0.1136877 -0.13436,0.2222079 -0.0723,0.1033525 -0.1602,0.1756993 -0.0879,0.072347 -0.18603,0.072347 -0.12919,0 -0.29972,-0.031006 -0.17053,-0.031006 -0.34107,-0.098185 -0.1757,-0.062012 -0.33589,-0.1601964 -0.15503,-0.1033525 -0.26355,-0.2428785 -0.18087,0.2067051 -0.40824,0.346231 -0.22221,0.1343583 -0.47543,0.1756993 -0.25838,0.046509 -0.5426,0 -0.27905,-0.051676 -0.5736,-0.206705 -0.13436,0.098185 -0.29456,0.1601964 -0.16019,0.062011 -0.31522,0.093017 -0.1602,0.036173 -0.30489,0.046506 -0.1447,0.01033 -0.25322,0.01033 h -0.093 q -0.15503,0 -0.23255,-0.1240214 -0.0775,-0.1291906 -0.0775,-0.2790518 0,-0.1498612 0.0775,-0.2790519 0.0775,-0.1291906 0.23255,-0.1291906 h 0.093 q 0.31006,0 0.57361,-0.020671 0.26355,-0.025838 0.49609,-0.1136878 0.22738,-0.082682 0.42892,-0.2532137 0.2067,-0.1705317 0.39274,-0.4650864 0.0672,-0.1085202 0.11368,-0.093017 0.0517,0.010335 0.031,0.1188554 -0.0362,0.1860345 -0.11886,0.3979072 -0.0827,0.2118727 -0.20153,0.3617339 0.10335,0.031006 0.25321,0.046509 0.15503,0.015503 0.32556,0 0.25321,-0.02067 0.47542,-0.1033526 0.22738,-0.08785 0.40824,-0.2635489 0.11369,-0.1033526 0.21188,-0.2377109 0.10335,-0.1395259 0.19637,-0.2997223 z m 0.45475,-1.162716 q -0.031,0.036173 -0.0465,0.036173 -0.0155,0 -0.0517,-0.025838 l -0.60978,-0.4805893 -0.3979,0.5529361 q -0.0362,0.046509 -0.0775,0.010335 l -0.65112,-0.4960921 q -0.0362,-0.031006 -0.0103,-0.067179 l 0.41341,-0.5891094 q 0.0258,-0.031006 0.0362,-0.025838 0.0155,0 0.0362,0.015503 l 0.61495,0.470254 0.41858,-0.5374331 q 0.031,-0.041341 0.062,-0.020671 l 0.65112,0.5426008 q 0.031,0.031006 0,0.072347 z m -0.97668,-2.1807385 0.63561,0.5219303 q 0.0414,0.031006 0.005,0.072347 l -0.42374,0.527098 q -0.0362,0.046509 -0.0827,0.010335 l -0.64078,-0.5167627 q -0.0413,-0.036173 0,-0.08785 l 0.42891,-0.5167627 q 0.0362,-0.046509 0.0775,-0.010335 z m 0.0413,-1.4314326 q -0.11369,0.2273756 -0.25839,0.3410634 -0.15502,0.1188554 -0.3669,0.124023 -0.17053,0.00517 -0.29972,-0.08785 -0.12402,-0.093017 -0.14469,-0.3255604 -0.0103,-0.1033526 0.0103,-0.2118727 0.0207,-0.1136878 0.062,-0.2118727 0.0414,-0.093017 0.093,-0.1601965 0.0568,-0.072347 0.11886,-0.093017 0.062,-0.00517 0.0103,0.093017 -0.031,0.056844 -0.0517,0.1343583 -0.0155,0.077514 -0.0207,0.1550288 0,0.072347 0.0155,0.1240231 0.0155,0.051676 0.0672,0.098185 0.0775,0.056844 0.16536,0.056844 0.0879,-0.00517 0.17053,-0.041341 0.0879,-0.036173 0.15503,-0.082682 0.0723,-0.051676 0.1447,-0.1343583 0.0672,-0.077514 0.0982,-0.1963698 0.031,-0.1188554 0.0413,-0.1963698 0.005,-0.067179 0.0362,-0.1343583 0.031,-0.067179 0.10336,-0.067179 0.0155,0 0.0207,0.031006 0.0103,0.025838 0.0155,0.062012 0.005,0.036173 0.005,0.072347 0,0.031006 0,0.046509 0,0.1498611 0.0465,0.2377108 0.0465,0.082682 0.18603,0.1136878 0.0723,0.015503 0.18604,-0.015503 0.11885,-0.031006 0.2067,-0.1033525 0.0103,-0.010335 0.005,-0.056844 -0.005,-0.046509 -0.0207,-0.098185 -0.0103,-0.051676 -0.0362,-0.1085202 -0.0207,-0.062012 -0.0258,-0.072347 l 0.1912,-0.3617338 q 0.0517,0.025838 0.0775,0.1136877 0.031,0.08785 0.0362,0.2015375 0.0103,0.1085201 0,0.2222079 -0.0103,0.1136878 -0.0258,0.1912022 -0.062,0.1912022 -0.17053,0.346231 -0.10336,0.1550288 -0.3204,0.1963698 -0.1912,0.036173 -0.32039,-0.025838 -0.12919,-0.062012 -0.2067,-0.1756993 z m 0.93017,-2.077386 q -0.25838,0.1188554 -0.5426,0.2480461 -0.27905,0.1291907 -0.5426,0.2480461 -0.26355,0.1188554 -0.49093,0.222208 -0.22737,0.1033525 -0.38757,0.1705316 -0.0362,0.015503 -0.0517,0 -0.0155,-0.015503 0,-0.046509 l 0.25322,-0.5064274 q 0.0258,-0.041341 0.0517,-0.056844 0.031,-0.020671 0.0568,-0.036173 l 1.88618,-0.83715555 q 0.0827,-0.0361734 0.0517,0.041341 L 444.2937,1.3513276 q -0.0155,0.046509 -0.0724,0.072347 z m -4.88857,10.6504787 q -0.0258,0.03101 -0.0414,0.03101 -0.0155,0.0052 -0.0568,-0.02584 l -0.61495,-0.48059 -0.40307,0.552936 q -0.0362,0.04651 -0.0775,0.0155 l -0.65628,-0.506427 q -0.0362,-0.02584 -0.0103,-0.06201 l 0.41858,-0.594277 q 0.0207,-0.03101 0.0362,-0.03101 0.0155,0 0.0362,0.02067 l 0.62012,0.470254 0.42375,-0.542601 q 0.031,-0.04134 0.062,-0.0155 l 0.65629,0.547769 q 0.0362,0.02584 0,0.07235 z m -2.16007,-2.061883 h -0.093 q -0.15503,0 -0.23254,-0.1240231 -0.0775,-0.1291906 -0.0775,-0.2842194 0,-0.077514 0.0207,-0.1498612 0.0155,-0.072347 0.0568,-0.1291907 0.0362,-0.056844 0.0982,-0.093017 0.0568,-0.036173 0.13436,-0.036173 h 0.093 q 0.16019,0 0.35656,-0.010335 0.20154,-0.010335 0.37724,-0.056844 0.17053,-0.046509 0.3359,-0.1395259 0.16536,-0.098185 0.30489,-0.2687166 0.10335,-0.1240231 0.16536,-0.2532137 0.0672,-0.1291907 0.12919,-0.2945548 0.0258,-0.067179 0.0827,-0.072347 0.062,-0.00517 0.0672,0.025838 0.005,0.062012 -0.0103,0.1498612 -0.0103,0.08785 -0.0103,0.1601964 0,0.1343583 0.0672,0.2687166 0.0672,0.1343583 0.20671,0.2428785 0.13952,0.1085201 0.3824,0.1808669 0.24805,0.067179 0.5581,0.067179 h 0.0982 q 0.0775,0 0.13436,0.036173 0.0568,0.036173 0.093,0.093017 0.0414,0.056844 0.0568,0.1291907 0.0207,0.072347 0.0207,0.1498612 0,0.1550288 -0.0775,0.2842194 -0.0723,0.1240235 -0.22737,0.1240235 h -0.0982 q -0.27905,0 -0.53226,-0.051676 -0.24805,-0.056844 -0.42375,-0.1653641 -0.34106,-0.206705 -0.53226,-0.6097799 -0.11369,0.2325432 -0.26872,0.387572 -0.15503,0.1550288 -0.34106,0.2532137 -0.1912,0.098185 -0.43408,0.1446936 -0.24288,0.041341 -0.48059,0.041341 z m 0.58911,-5.5655339 q 0,0.08785 0.0465,0.139526 0.0517,0.046509 0.11885,0.072347 0.0672,0.025838 0.1447,0.031006 0.0827,0.00517 0.14469,0.00517 0.14469,0 0.26872,-0.062011 0.12919,-0.062011 0.23254,-0.1601964 0.0103,-0.093017 -0.0207,-0.1963698 -0.031,-0.1033526 -0.0982,-0.1860346 -0.0672,-0.082682 -0.16536,-0.1291907 -0.0982,-0.051676 -0.22737,-0.041341 -0.0775,0.020671 -0.15503,0.077514 -0.0775,0.051676 -0.1447,0.124023 -0.062,0.072347 -0.10335,0.1601965 -0.0413,0.082682 -0.0413,0.165364 z M 438.971,4.3123778 q 0,0.1756993 -0.0465,0.3410634 -0.0465,0.1653641 -0.1447,0.2945547 -0.0982,0.1291907 -0.25321,0.2067051 -0.14986,0.077514 -0.36174,0.077514 -0.26354,0 -0.44441,-0.1705317 -0.18087,-0.1705317 -0.1912,-0.4547511 0,-0.1446936 0.0413,-0.346231 0.0465,-0.2067051 0.13952,-0.3979073 0.093,-0.1912022 0.23771,-0.3307281 0.14987,-0.1446936 0.35657,-0.1705317 0.19637,-0.020671 0.32556,0.077514 0.12919,0.098185 0.20671,0.2480461 0.0723,0.1550288 0.10335,0.3307281 0.031,0.1705317 0.031,0.2945547 z m -6.09263,2.780183 q 0.21188,-0.010335 0.44442,0.025838 0.23254,0.031006 0.66146,0.1136878 0.42891,0.077514 0.86299,0.093017 0.47025,0.015503 0.9095,0.00517 0.43925,-0.010335 0.9095,-0.051676 0.0207,-0.00517 0.031,0 0.0103,0.00517 0.005,0.031006 -0.0672,0.2015374 -0.14986,0.3979072 -0.0775,0.1963698 -0.1757,0.3824044 -0.23255,0.025838 -0.46509,0.062011 -0.23254,0.031006 -0.45992,0.077514 -0.0465,0.3772368 0.0827,0.5787742 0.13436,0.1963699 0.38241,0.2842195 0.24804,0.08785 0.5736,0.098185 0.33073,0.010335 0.68213,0.010335 0.0258,0 0.0465,0 0.0207,0 0.0465,0 0.15503,0 0.23254,0.1291906 0.0827,0.1240231 0.0827,0.2738843 0,0.1550288 -0.0827,0.2842194 -0.0775,0.1240228 -0.23254,0.1240228 -0.0258,0 -0.0465,0 -0.0207,0 -0.0465,0 -0.57361,0.01034 -1.02319,-0.056844 -0.44958,-0.072347 -0.7183,-0.3152253 -0.21187,-0.1912021 -0.29972,-0.511595 -0.0827,-0.3255605 -0.0207,-0.8268203 -0.45475,0.1085202 -0.8785,0.2893871 -0.42374,0.1756993 -0.78031,0.4599188 -0.31006,0.2480461 -0.5581,0.5581037 -0.24288,0.3100576 -0.41341,0.666624 -0.16537,0.356566 -0.25322,0.738971 -0.0879,0.387572 -0.0879,0.785479 0,0.43408 0.16537,0.847491 0.17053,0.418577 0.44958,0.764808 0.27905,0.351399 0.63562,0.604613 0.36173,0.258381 0.74414,0.366901 0.50126,0.144694 1.02835,0.191202 0.53227,0.05168 0.98702,0.03617 0.50126,-0.0155 1.02836,-0.06201 0.5271,-0.04651 1.02836,-0.04651 0.062,0 0.0672,0.03101 0.005,0.03617 -0.062,0.113688 -0.0672,0.07752 -0.13952,0.08785 -0.31006,0.04651 -0.59945,0.139526 -0.28422,0.09818 -0.56327,0.19637 -0.27905,0.103352 -0.56844,0.186034 -0.28422,0.08785 -0.59427,0.10852 -0.75448,0.05168 -1.47794,-0.118855 -0.7183,-0.170532 -1.28158,-0.583942 -0.56327,-0.408242 -0.9095,-1.064531 -0.34623,-0.651121 -0.34623,-1.555456 0,-0.594277 0.15503,-1.193721 0.15503,-0.594278 0.43925,-1.1265432 0.28938,-0.5374332 0.69246,-0.9715139 0.40824,-0.4392482 0.90433,-0.7131325 0.0207,-0.015503 -0.0103,-0.025838 -0.031,-0.010335 -0.0672,-0.015503 -0.23771,-0.025838 -0.5116,-0.046509 -0.26871,-0.025838 -0.53743,-0.00517 -0.26355,0.020671 -0.49609,0.1033525 -0.23254,0.077514 -0.38757,0.2583813 -0.031,0.036173 -0.0672,0.031006 -0.031,-0.00517 -0.0207,-0.072347 0.031,-0.2377108 0.10852,-0.4495835 0.0827,-0.2118727 0.21187,-0.3669015 0.12919,-0.1601964 0.31006,-0.2532137 0.18087,-0.098185 0.42374,-0.1033526 z m 1.08004,-2.1342298 0.63562,0.5270979 q 0.0413,0.036173 0.005,0.082682 l -0.42374,0.5322656 q -0.0362,0.051676 -0.0827,0.010335 l -0.64079,-0.527098 q -0.0413,-0.036173 0,-0.08785 l 0.42891,-0.527098 q 0.0362,-0.046509 0.0775,-0.010335 z M 432.8267,4.3278806 q 0.17053,-0.098185 0.33589,-0.1963698 0.16537,-0.098185 0.3204,-0.2118727 0.16019,-0.1136878 0.31522,-0.2480461 0.15503,-0.1343583 0.29972,-0.3048899 -0.13952,-0.041341 -0.29455,-0.139526 -0.15503,-0.098185 -0.24805,-0.2118727 -0.0465,-0.056844 -0.0568,-0.1446935 -0.0103,-0.093017 0.0155,-0.1705317 0.0413,-0.124023 0.11369,-0.2687166 0.0775,-0.1446935 0.18087,-0.263549 0.10335,-0.1188554 0.22737,-0.1912021 0.12919,-0.077514 0.25838,-0.072347 0.1602,0.010335 0.23255,0.1550288 0.0723,0.1395259 0.0879,0.3255605 0.0207,0.1860345 0,0.3669015 -0.0155,0.1808669 -0.0258,0.2635489 0,0.025838 0.0155,0.041341 0.062,0.036173 0.0827,0.067179 0.0258,0.031006 0.0413,0.072347 0.031,0.077514 0.0103,0.1860345 -0.0155,0.1085202 -0.062,0.1653641 -0.0413,0.051676 -0.0724,0.051676 -0.031,-0.00517 -0.062,-0.051676 -0.0258,-0.031006 -0.0517,-0.056844 -0.0207,-0.031006 -0.0672,-0.051676 -0.14469,0.1756993 -0.31005,0.3358958 -0.1602,0.1601964 -0.34107,0.2945547 -0.18603,0.1291907 -0.38757,0.2325432 -0.20154,0.1033525 -0.42374,0.1705317 -0.0879,0.025838 -0.18087,0.036173 -0.093,0.00517 -0.10335,-0.020671 -0.0103,-0.031006 0.0362,-0.072347 0.0465,-0.046509 0.11369,-0.08785 z m 0.97151,-1.7363226 q 0.10852,0.1498612 0.25838,0.2377109 0.14986,0.082682 0.27389,0.1136878 h 0.0103 q 0,-0.041341 0.005,-0.1085202 0.005,-0.072347 0,-0.1446935 0,-0.072347 -0.0207,-0.139526 -0.0155,-0.067179 -0.062,-0.1136878 -0.0413,-0.036173 -0.11886,-0.031006 -0.0723,0 -0.14469,0.025838 -0.0724,0.025838 -0.13436,0.072347 -0.0568,0.041341 -0.0672,0.08785 z m -5.65338,6.3355104 q -0.36174,0.1085201 -0.79065,0.2325432 -0.42374,0.1188554 -0.87849,0.2428784 -0.45476,0.1188554 -0.91984,0.2325432 -0.46509,0.1085202 -0.89917,0.1963698 -0.43408,0.082682 -0.82165,0.1343583 -0.38757,0.046509 -0.69246,0.046509 h -0.093 q -0.16537,0 -0.24288,-0.1240219 -0.0827,-0.1291906 -0.0827,-0.2790518 0,-0.1550288 0.0827,-0.2790519 0.0775,-0.1291906 0.24288,-0.1291906 h 0.093 q 0.0775,0 0.21187,-0.00517 0.13952,-0.010335 0.30489,-0.02067 0.16536,-0.010335 0.34623,-0.025838 0.18087,-0.015503 0.3514,-0.031006 0.17053,-0.02067 0.31522,-0.041341 0.14986,-0.02067 0.24288,-0.041341 -0.12402,-0.067179 -0.24288,-0.1860346 -0.11368,-0.1188554 -0.21187,-0.2687165 -0.0982,-0.1498612 -0.16536,-0.3203929 -0.0672,-0.1705317 -0.093,-0.3410634 -0.0465,-0.3203928 0.062,-0.6562886 0.10852,-0.3410633 0.31523,-0.6252828 0.21187,-0.2893871 0.49609,-0.4857569 0.28939,-0.2015375 0.59944,-0.2480461 0.38758,-0.056844 0.7028,0.00517 0.31523,0.056844 0.56327,0.1912022 0.24805,0.1291907 0.42891,0.3100576 0.18087,0.1808669 0.30489,0.3617339 0.0207,0.031006 0.005,0.056844 -0.0103,0.025838 -0.0413,0.041341 -0.0258,0.015503 -0.062,0.02067 -0.0362,0 -0.062,-0.015503 -0.33073,-0.1912022 -0.66663,-0.2428784 -0.33589,-0.051676 -0.7493,-0.02067 -0.20154,0.015503 -0.41341,0.062011 -0.20671,0.046509 -0.39791,0.1188554 -0.1912,0.072347 -0.3514,0.165364 -0.16019,0.093017 -0.25321,0.1963699 0,0.093017 0.0362,0.2222079 0.0362,0.1240231 0.10335,0.2583814 0.0672,0.1343583 0.15503,0.2687165 0.093,0.1291907 0.19637,0.2377109 0.10852,0.1085201 0.23771,0.2170403 0.12919,0.1033525 0.25322,0.1860346 0.12919,0.082682 0.24288,0.1343583 0.11368,0.051676 0.18603,0.051676 0.67179,-0.124023 1.33325,-0.3100576 0.66145,-0.1860345 1.25573,-0.3513986 0.0517,-0.010335 0.031,0.02067 -0.13436,0.2480461 -0.29456,0.470254 -0.16019,0.222208 -0.27388,0.3669016 z m -1.9482,-5.3691642 q -0.25838,0.1188555 -0.5426,0.2480461 -0.27905,0.1291907 -0.5426,0.2480461 -0.26355,0.1188554 -0.49092,0.222208 -0.22738,0.1033525 -0.38758,0.1705317 -0.0362,0.015503 -0.0517,0 -0.0155,-0.015503 0,-0.046509 L 424.43451,3.8938 q 0.0258,-0.041341 0.0517,-0.056844 0.031,-0.020671 0.0568,-0.036173 l 1.88618,-0.8371555 q 0.0827,-0.036173 0.0517,0.041341 l -0.21187,0.4805893 q -0.0155,0.046509 -0.0724,0.072347 z m -6.06679,6.4543658 h -0.093 q -0.15503,0 -0.23254,-0.1240231 -0.0775,-0.1291906 -0.0775,-0.2842194 0,-0.077514 0.0207,-0.1498612 0.0155,-0.072347 0.0568,-0.1291907 0.0362,-0.056844 0.0982,-0.093017 0.0568,-0.036173 0.13436,-0.036173 h 0.093 q 0.1602,0 0.35657,-0.010335 0.20153,-0.010335 0.37723,-0.056844 0.17053,-0.046509 0.3359,-0.1395259 0.16536,-0.098185 0.30489,-0.2687166 0.10335,-0.1240231 0.16536,-0.2532137 0.0672,-0.1291907 0.12919,-0.2945548 0.0258,-0.067179 0.0827,-0.072347 0.062,-0.00517 0.0672,0.025838 0.005,0.062012 -0.0103,0.1498612 -0.0103,0.08785 -0.0103,0.1601964 0,0.1343583 0.0672,0.2687166 0.0672,0.1343583 0.20671,0.2428785 0.13952,0.1085201 0.3824,0.1808669 0.24805,0.067179 0.55811,0.067179 h 0.0982 q 0.0775,0 0.13436,0.036173 0.0568,0.036173 0.093,0.093017 0.0413,0.056844 0.0568,0.1291907 0.0207,0.072347 0.0207,0.1498612 0,0.1550288 -0.0775,0.2842194 -0.0723,0.1240235 -0.22738,0.1240235 h -0.0982 q -0.27906,0 -0.53227,-0.051676 -0.24804,-0.056844 -0.42374,-0.1653641 -0.34107,-0.206705 -0.53227,-0.6097799 -0.11369,0.2325432 -0.26872,0.387572 -0.15503,0.1550288 -0.34106,0.2532137 -0.1912,0.098185 -0.43408,0.1446936 -0.24288,0.041341 -0.48059,0.041341 z m 1.4211,0.723468 0.63562,0.527098 q 0.0413,0.03617 0.005,0.08268 l -0.42374,0.532265 q -0.0362,0.05168 -0.0827,0.01033 l -0.64079,-0.527097 q -0.0413,-0.03617 0,-0.08785 l 0.42891,-0.527098 q 0.0362,-0.04651 0.0775,-0.01034 z m -0.83199,-6.5473832 q 0,0.08785 0.0465,0.1395259 0.0517,0.046509 0.11885,0.072347 0.0672,0.025838 0.1447,0.031006 0.0827,0.00517 0.14469,0.00517 0.14469,0 0.26872,-0.062012 0.12919,-0.062011 0.23254,-0.1601964 0.0103,-0.093017 -0.0207,-0.1963698 -0.031,-0.1033526 -0.0982,-0.1860346 -0.0672,-0.082682 -0.16536,-0.1291906 -0.0982,-0.051676 -0.22738,-0.041341 -0.0775,0.020671 -0.15502,0.077514 -0.0775,0.051676 -0.1447,0.1240231 -0.062,0.072347 -0.10335,0.1601964 -0.0413,0.082682 -0.0413,0.1653641 z m 1.20922,-0.1343583 q 0,0.1756993 -0.0465,0.3410633 -0.0465,0.1653641 -0.14469,0.2945548 -0.0982,0.1291906 -0.25321,0.206705 -0.14986,0.077514 -0.36174,0.077514 -0.26355,0 -0.44441,-0.1705316 -0.18087,-0.1705317 -0.19121,-0.4547512 0,-0.1446936 0.0413,-0.346231 0.0465,-0.2067051 0.13952,-0.3979073 0.093,-0.1912021 0.23771,-0.3307281 0.14986,-0.1446935 0.35657,-0.1705317 0.19637,-0.020671 0.32556,0.077514 0.12919,0.098185 0.2067,0.2480461 0.0723,0.1550288 0.10336,0.3307281 0.031,0.1705317 0.031,0.2945548 z m -4.11859,2.5889808 0.14986,-0.6046123 q 0.0155,-0.062011 0.062,-0.062011 0.0465,0 0.062,0.056844 l 0.5271,1.8655132 q 0.10335,0.3669015 0.25838,0.6407857 0.1602,0.2738843 0.43408,0.4599188 0.1602,0.1085202 0.3669,0.1550288 0.20671,0.046509 0.45992,0.046509 h 0.093 q 0.16536,0 0.24805,0.1291906 0.0827,0.1291907 0.0827,0.2790519 0,0.1498612 -0.0827,0.2790518 -0.0827,0.1240232 -0.24805,0.1240232 h -0.093 q -0.28422,0 -0.53226,-0.051676 -0.24288,-0.056844 -0.45475,-0.2015374 -0.20671,-0.139526 -0.38758,-0.387572 -0.1757,-0.2532138 -0.33072,-0.6459534 -0.13436,0.4030749 -0.43925,0.6666239 -0.24805,0.2118727 -0.58394,0.3203928 -0.3359,0.1033526 -0.65629,0.1446936 -0.31523,0.046509 -0.59945,0.02067 -0.27905,-0.031006 -0.42891,-0.1705317 -0.0775,-0.072347 -0.11369,-0.1963698 -0.031,-0.1240231 -0.031,-0.2583814 0,-0.1395259 0.0207,-0.2687166 0.0258,-0.1343583 0.0672,-0.2273755 0.0155,-0.031006 0.0414,-0.031006 0.031,0 0.0465,0.031006 0.093,0.1705317 0.21188,0.2325432 0.11885,0.056844 0.28422,0.072347 0.24288,0.025838 0.5581,-0.010335 0.31523,-0.036173 0.61495,-0.1291907 0.29972,-0.08785 0.53743,-0.2273756 0.24288,-0.1446935 0.33073,-0.3307281 z m -1.2454,-1.6691435 q 0.17053,-0.098185 0.33589,-0.1963698 0.16537,-0.098185 0.3204,-0.2118727 0.16019,-0.1136878 0.31522,-0.2480461 0.15503,-0.1343583 0.29972,-0.30489 -0.13952,-0.041341 -0.29455,-0.1395259 -0.15503,-0.098185 -0.24805,-0.2118727 -0.0465,-0.056844 -0.0568,-0.1446935 -0.0103,-0.093017 0.0155,-0.1705317 0.0413,-0.1240231 0.11369,-0.2687166 0.0775,-0.1446936 0.18087,-0.263549 0.10335,-0.1188554 0.22737,-0.1912022 0.12919,-0.077514 0.25838,-0.072347 0.1602,0.010335 0.23255,0.1550288 0.0723,0.1395259 0.0879,0.3255605 0.0207,0.1860345 0,0.3669015 -0.0155,0.1808669 -0.0258,0.2635489 0,0.025838 0.0155,0.041341 0.062,0.036173 0.0827,0.067179 0.0258,0.031006 0.0413,0.072347 0.031,0.077514 0.0103,0.1860345 -0.0155,0.1085202 -0.062,0.1653641 -0.0413,0.051676 -0.0723,0.051676 -0.031,-0.00517 -0.062,-0.051676 -0.0258,-0.031006 -0.0517,-0.056844 -0.0207,-0.031006 -0.0672,-0.051676 -0.14469,0.1756993 -0.31005,0.3358958 -0.1602,0.1601964 -0.34107,0.2945547 -0.18603,0.1291906 -0.38757,0.2325432 -0.20154,0.1033525 -0.42374,0.1705317 -0.0879,0.025838 -0.18087,0.036173 -0.093,0.00517 -0.10335,-0.020671 -0.0103,-0.031006 0.0362,-0.072347 0.0465,-0.046509 0.11369,-0.08785 z m 0.97151,-1.7363226 q 0.10852,0.1498612 0.25838,0.2377109 0.14986,0.082682 0.27389,0.1136877 h 0.0103 q 0,-0.041341 0.005,-0.1085201 0.005,-0.072347 0,-0.1446936 0,-0.072347 -0.0207,-0.1395259 -0.0155,-0.067179 -0.062,-0.1136878 -0.0413,-0.036173 -0.11886,-0.031006 -0.0723,0 -0.14469,0.025838 -0.0724,0.025838 -0.13436,0.072347 -0.0568,0.041341 -0.0672,0.08785 z m -3.52432,0.077514 q 0.0827,0.00517 0.0775,0.1912022 -0.0103,0.1963698 0.005,0.387572 0.0155,0.1860345 0.0413,0.3772367 0.0517,0.4599188 0.12403,0.9508434 0.0723,0.4857569 0.14469,0.981849 0.0672,0.4909246 0.13436,0.9818491 0.0672,0.4909246 0.11369,0.956011 0.0207,0.1808669 0.0258,0.4237454 0.0103,0.2428784 -0.005,0.4960921 -0.0103,0.2480461 -0.0568,0.4805893 -0.0413,0.2325432 -0.11885,0.387572 -0.0413,0.08785 -0.0982,0.1136886 -0.0465,0.0052 -0.0413,-0.04134 -0.031,-0.4495843 -0.0775,-0.9043355 -0.0413,-0.4599187 -0.10852,-0.9353404 -0.0672,-0.4909246 -0.13436,-0.9715138 -0.0672,-0.4805893 -0.12919,-0.9611786 -0.0672,-0.4805893 -0.13436,-0.9611786 -0.062,-0.4805893 -0.12402,-0.9663462 0.0155,-0.1188554 0.0465,-0.2428785 0.031,-0.1291906 0.0878,-0.2635489 0.12403,-0.3358958 0.16537,-0.4082426 0.0465,-0.072347 0.062,-0.072347 z M 411.7945,3.0256386 q 0.0155,-0.046509 0.0413,-0.056844 0.0258,-0.010335 0.0413,0.056844 0.0413,0.124023 0.093,0.2532137 0.0517,0.1291907 0.11885,0.2532137 0.0724,0.124023 0.16537,0.2325432 0.093,0.1033525 0.21187,0.1756993 -0.0724,0.1240231 -0.12919,0.2170403 -0.0517,0.08785 -0.0879,0.1653641 -0.0362,0.072347 -0.0517,0.1446935 -0.0155,0.067179 -0.005,0.1446936 0.0568,0.4960922 0.12919,0.997352 0.0775,0.4960921 0.14469,0.9921843 0.0723,0.4960922 0.12402,0.9921843 0.0568,0.4960922 0.0724,0.997352 0.005,0.1653641 -0.0207,0.3358958 -0.0258,0.1705316 -0.0827,0.3255604 -0.0568,0.1550288 -0.1447,0.2945548 -0.0827,0.1343583 -0.1912,0.2273755 -0.14986,0.1291907 -0.37207,0.1860346 -0.21704,0.051676 -0.53226,0.051676 h -0.093 q -0.16536,0 -0.24805,-0.1240243 -0.0879,-0.1291906 -0.0879,-0.2790518 0,-0.1550288 0.0879,-0.2790519 0.0827,-0.1291906 0.24805,-0.1291906 h 0.093 q 0.17053,0 0.33073,-0.010335 0.16019,-0.015503 0.29455,-0.046509 0.13436,-0.036173 0.22738,-0.093017 0.0982,-0.062012 0.13952,-0.1550288 -0.10335,-1.0903693 -0.26871,-2.1497327 -0.16537,-1.0645312 -0.3204,-2.1393975 -0.031,-0.2170404 -0.0672,-0.4237454 -0.031,-0.2118727 -0.14986,-0.4082425 -0.0413,-0.056844 -0.0465,-0.072347 -0.005,-0.020671 0.0258,-0.082682 0.0879,-0.1498612 0.1602,-0.30489 0.0775,-0.1601965 0.14986,-0.2893871 z m -1.99471,5.6172103 q 0.0207,-0.072347 0.0724,-0.010335 0.16019,0.1912022 0.32039,0.30489 0.1602,0.1085202 0.33073,0.1653641 0.0879,0.031006 0.17053,0.051676 0.0827,0.015503 0.17053,0.031006 0.093,0.010335 0.20154,0.015503 0.10852,0 0.24804,0 h 0.093 q 0.16537,0 0.24805,0.1291906 0.0827,0.1240231 0.0827,0.2738843 0,0.1550288 -0.0827,0.2842194 -0.0827,0.1240227 -0.24805,0.1240227 h -0.093 q -0.17053,0 -0.35139,-0.01033 -0.1757,-0.015503 -0.34624,-0.041341 -0.0517,0.28422 -0.12402,0.532266 -0.0723,0.253214 -0.14986,0.470254 -0.18603,0.48059 -0.43408,0.857826 -0.23771,0.372069 -0.7183,0.630451 -0.26355,0.144693 -0.54777,0.21704 -0.28422,0.07235 -0.56844,0.08785 -0.18603,0.01033 -0.3669,0.0052 -0.1757,-0.0052 -0.36173,-0.03101 -0.18604,-0.02067 -0.38241,-0.07235 -0.20153,-0.04651 -0.42374,-0.129191 -0.062,-0.02584 -0.0827,-0.06201 -0.0258,-0.03617 -0.0103,-0.07235 0.0258,-0.06718 0.20671,-0.06718 0.31005,0.0052 0.5736,-0.01034 0.26355,-0.0155 0.5116,-0.07235 0.24804,-0.05168 0.49609,-0.149861 0.25321,-0.09302 0.54777,-0.253214 0.31522,-0.170532 0.56327,-0.387572 0.24804,-0.211873 0.43408,-0.459919 0.18087,-0.248046 0.31006,-0.52193 0.12919,-0.273884 0.20153,-0.5684399 -0.19637,-0.082682 -0.3824,-0.2273756 Q 409.72235,9.5317 409.60349,9.3766712 Z m -0.56327,-3.2039286 q -0.11368,0.2273756 -0.25838,0.3410634 -0.15503,0.1188554 -0.3669,0.124023 -0.17053,0.00517 -0.29972,-0.08785 -0.12403,-0.093017 -0.1447,-0.3255605 -0.0103,-0.1033526 0.0103,-0.2118727 0.0207,-0.1136878 0.062,-0.2118727 0.0413,-0.093017 0.093,-0.1601965 0.0568,-0.072347 0.11885,-0.093017 0.062,-0.00517 0.0103,0.093017 -0.031,0.056844 -0.0517,0.1343583 -0.0155,0.077514 -0.0207,0.1550288 0,0.072347 0.0155,0.1240231 0.0155,0.051676 0.0672,0.098185 0.0775,0.056844 0.16537,0.056844 0.0878,-0.00517 0.17053,-0.041341 0.0879,-0.036173 0.15503,-0.082682 0.0723,-0.051676 0.14469,-0.1343583 0.0672,-0.077514 0.0982,-0.1963699 0.031,-0.1188554 0.0413,-0.1963698 0.005,-0.067179 0.0362,-0.1343583 0.031,-0.067179 0.10335,-0.067179 0.0155,0 0.0207,0.031006 0.0103,0.025838 0.0155,0.062012 0.005,0.036173 0.005,0.072347 0,0.031006 0,0.046509 0,0.1498612 0.0465,0.2377108 0.0465,0.082682 0.18604,0.1136878 0.0723,0.015503 0.18603,-0.015503 0.11886,-0.031006 0.20671,-0.1033525 0.0103,-0.010335 0.005,-0.056844 -0.005,-0.046509 -0.0207,-0.098185 -0.0103,-0.051676 -0.0362,-0.1085202 -0.0207,-0.062011 -0.0258,-0.072347 l 0.19121,-0.3617338 q 0.0517,0.025838 0.0775,0.1136878 0.031,0.08785 0.0362,0.2015374 0.0103,0.1085202 0,0.2222079 -0.0103,0.1136878 -0.0258,0.1912022 -0.062,0.1912022 -0.17054,0.346231 -0.10335,0.1550288 -0.32039,0.1963699 -0.1912,0.036173 -0.32039,-0.025838 -0.12919,-0.062012 -0.20671,-0.1756993 z m 0.93018,-2.077386 q -0.25839,0.1188555 -0.54261,0.2480461 -0.27905,0.1291907 -0.5426,0.2480461 -0.26354,0.1188554 -0.49092,0.222208 -0.22738,0.1033525 -0.38757,0.1705316 -0.0362,0.015503 -0.0517,0 -0.0155,-0.015503 0,-0.046509 l 0.25322,-0.5064274 q 0.0258,-0.041341 0.0517,-0.056844 0.031,-0.020671 0.0568,-0.036173 l 1.88618,-0.8371555 q 0.0827,-0.036173 0.0517,0.041341 l -0.21188,0.4805893 q -0.0155,0.046509 -0.0723,0.072347 z m -4.02042,4.7955577 q 0.0413,-0.1136878 0.12403,-0.1188555 0.0827,-0.010335 0.0517,0.1291907 -0.0362,0.1240231 -0.0775,0.2428785 -0.0362,0.1136878 -0.0827,0.2273756 0.0362,0.093017 0.1757,0.1860345 0.1447,0.093017 0.32556,0.1550288 0.18087,0.067179 0.36174,0.08785 0.18603,0.02067 0.30489,-0.025838 0,-0.1860345 -0.031,-0.346231 -0.031,-0.165364 -0.10852,-0.3669015 l 0.3204,-0.552936 q 0.0103,-0.02067 0.031,-0.015503 0.0207,0 0.0258,0.020671 0.12402,0.3565663 0.12402,0.6614562 0.005,0.30489 -0.0827,0.6252829 -0.0258,0.098185 -0.0775,0.2273756 -0.0517,0.124023 -0.12403,0.2428784 -0.0723,0.1188554 -0.16536,0.2118727 -0.093,0.08785 -0.20671,0.098185 -0.11885,0.015503 -0.28422,-0.010335 -0.16019,-0.031006 -0.32556,-0.098185 -0.17053,-0.072347 -0.33072,-0.1756994 -0.1602,-0.1085201 -0.26872,-0.248046 -0.14469,0.2273755 -0.39791,0.3720691 -0.24804,0.1446935 -0.54777,0.1963698 -0.29972,0.051676 -0.61494,0.015503 -0.31523,-0.041341 -0.58911,-0.180867 -0.31006,0.180867 -0.60978,0.2377109 -0.29456,0.056844 -0.55294,0.056844 h -0.093 q -0.16019,0 -0.23771,-0.1240219 -0.0775,-0.1291906 -0.0775,-0.2790518 0,-0.1498612 0.0775,-0.2790519 0.0775,-0.1291906 0.23771,-0.1291906 h 0.093 q 0.32556,0 0.59428,-0.020671 0.27388,-0.025838 0.52193,-0.1343583 0.23254,-0.093017 0.43408,-0.2893871 0.20154,-0.2015375 0.36173,-0.4702541 0.0517,-0.093017 0.11369,-0.098185 0.062,-0.010335 0.0413,0.1085202 -0.0155,0.093017 -0.0517,0.2067051 -0.0362,0.1136877 -0.0827,0.2325432 -0.0465,0.1188554 -0.10335,0.2273755 -0.0568,0.1033526 -0.11369,0.1756993 0.15503,0.041341 0.33073,0.051676 0.1757,0.010335 0.3514,-0.010335 0.26355,-0.025838 0.49609,-0.1291907 0.23771,-0.1033525 0.41341,-0.3100576 0.0982,-0.1136878 0.1757,-0.2583814 0.0775,-0.1446935 0.14986,-0.3255604 z m 0.26355,-1.2143923 q -0.031,0.036173 -0.0465,0.036173 -0.0155,0 -0.0517,-0.025838 l -0.60978,-0.4805893 -0.39791,0.5529361 q -0.0362,0.046509 -0.0775,0.010335 l -0.65112,-0.4960922 q -0.0362,-0.031006 -0.0103,-0.067179 l 0.41341,-0.5891094 q 0.0258,-0.031006 0.0362,-0.025838 0.0155,0 0.0362,0.015503 l 0.61494,0.4702541 0.41858,-0.5374332 q 0.031,-0.041341 0.062,-0.020671 l 0.65112,0.5426008 q 0.031,0.031006 0,0.072347 z m -0.97668,-2.1807385 0.63562,0.5219303 q 0.0413,0.031006 0.005,0.072347 l -0.42375,0.527098 q -0.0362,0.046509 -0.0827,0.010335 l -0.64079,-0.5167626 q -0.0413,-0.036173 0,-0.08785 l 0.42892,-0.5167627 q 0.0362,-0.046509 0.0775,-0.010335 z m 0.60978,6.8729438 q -0.50643,0.160196 -0.99735,0.32556 -0.49093,0.165364 -0.94051,0.310058 -0.0827,0.02584 -0.0413,-0.05168 l 0.21187,-0.39274 q 0.0155,-0.03101 0.0258,-0.04651 0.0155,-0.0155 0.0465,-0.02584 0.13952,-0.05168 0.3669,-0.12919 0.22737,-0.07235 0.49092,-0.160197 0.26872,-0.08268 0.54777,-0.170532 0.27905,-0.08785 0.53227,-0.165364 0.0413,-0.0155 0.0517,-0.01033 0.0103,0.01033 -0.0103,0.05168 l -0.22221,0.403075 q -0.0155,0.02067 -0.031,0.03617 -0.0103,0.02067 -0.031,0.02584 z m -4.38215,0.439248 q -0.0258,0.03101 -0.0413,0.03101 -0.0155,0.0052 -0.0568,-0.02584 l -0.61495,-0.48059 -0.40308,0.552936 q -0.0362,0.04651 -0.0775,0.0155 l -0.65629,-0.506427 q -0.0362,-0.02584 -0.0103,-0.06201 l 0.41857,-0.594277 q 0.0207,-0.03101 0.0362,-0.03101 0.0155,0 0.0362,0.02067 l 0.62011,0.470254 0.42375,-0.542601 q 0.031,-0.04134 0.062,-0.0155 l 0.65629,0.547769 q 0.0362,0.02584 0,0.07235 z m -2.16007,-2.061883 h -0.093 q -0.15503,0 -0.23255,-0.1240231 -0.0775,-0.1291906 -0.0775,-0.2842194 0,-0.077514 0.0207,-0.1498612 0.0155,-0.072347 0.0568,-0.1291907 0.0362,-0.056844 0.0982,-0.093017 0.0568,-0.036173 0.13436,-0.036173 h 0.093 q 0.1602,0 0.35657,-0.010335 0.20154,-0.010335 0.37724,-0.056844 0.17053,-0.046509 0.33589,-0.1395259 0.16537,-0.098185 0.30489,-0.2687166 0.10335,-0.1240231 0.16537,-0.2532137 0.0672,-0.1291907 0.12919,-0.2945548 0.0258,-0.067179 0.0827,-0.072347 0.062,-0.00517 0.0672,0.025838 0.005,0.062012 -0.0103,0.1498612 -0.0103,0.08785 -0.0103,0.1601964 0,0.1343583 0.0672,0.2687166 0.0672,0.1343583 0.2067,0.2428785 0.13953,0.1085201 0.38241,0.1808669 0.24804,0.067179 0.5581,0.067179 h 0.0982 q 0.0775,0 0.13436,0.036173 0.0568,0.036173 0.093,0.093017 0.0413,0.056844 0.0568,0.1291907 0.0207,0.072347 0.0207,0.1498612 0,0.1550288 -0.0775,0.2842194 -0.0723,0.1240235 -0.22738,0.1240235 h -0.0982 q -0.27905,0 -0.53227,-0.051676 -0.24804,-0.056844 -0.42374,-0.1653641 -0.34107,-0.206705 -0.53227,-0.6097799 -0.11369,0.2325432 -0.26871,0.387572 -0.15503,0.1550288 -0.34107,0.2532137 -0.1912,0.098185 -0.43408,0.1446936 -0.24288,0.041341 -0.48059,0.041341 z m -2.32026,-3.3692927 0.14986,-0.6046123 q 0.0155,-0.062011 0.062,-0.062011 0.0465,0 0.062,0.056844 l 0.5271,1.8655132 q 0.10335,0.3669015 0.25838,0.6407857 0.1602,0.2738843 0.43408,0.4599188 0.1602,0.1085202 0.3669,0.1550288 0.20671,0.046509 0.45992,0.046509 h 0.093 q 0.16536,0 0.24805,0.1291906 0.0827,0.1291907 0.0827,0.2790519 0,0.1498612 -0.0827,0.2790518 -0.0827,0.1240232 -0.24805,0.1240232 h -0.093 q -0.28422,0 -0.53226,-0.051676 -0.24288,-0.056844 -0.45475,-0.2015374 -0.20671,-0.139526 -0.38758,-0.387572 -0.1757,-0.2532138 -0.33072,-0.6459534 -0.13436,0.4030749 -0.43925,0.6666239 -0.24805,0.2118727 -0.58394,0.3203928 -0.3359,0.1033526 -0.65629,0.1446936 -0.31523,0.046509 -0.59945,0.02067 -0.27905,-0.031006 -0.42891,-0.1705317 -0.0775,-0.072347 -0.11369,-0.1963698 -0.031,-0.1240231 -0.031,-0.2583814 0,-0.1395259 0.0207,-0.2687166 0.0258,-0.1343583 0.0672,-0.2273755 0.0155,-0.031006 0.0413,-0.031006 0.031,0 0.0465,0.031006 0.093,0.1705317 0.21187,0.2325432 0.11885,0.056844 0.28422,0.072347 0.24288,0.025838 0.5581,-0.010335 0.31523,-0.036173 0.61495,-0.1291907 0.29972,-0.08785 0.53743,-0.2273756 0.24288,-0.1446935 0.33073,-0.3307281 z m -5.8911,1.6794787 q -0.11368,-0.2170403 -0.32556,-0.3720691 -0.2067,-0.1550288 -0.44441,-0.2377108 -0.23771,-0.082682 -0.47542,-0.08785 -0.23771,-0.010335 -0.41341,0.062011 -0.24288,0.1033526 -0.4961,0.2687166 -0.25321,0.1653641 -0.49092,0.3669015 -0.23771,0.2015375 -0.45992,0.428913 -0.21704,0.222208 -0.40307,0.4340807 0.34106,0.051676 0.84232,0.025838 0.50126,-0.025838 1.00769,-0.1291906 0.50126,-0.1085202 0.94567,-0.2945548 0.44959,-0.1912022 0.71313,-0.4650855 z m -3.95323,0.816485 q 0.25321,-0.3100576 0.5581,-0.6304504 0.30489,-0.3203929 0.62012,-0.60978 0.32039,-0.2893871 0.63562,-0.5270979 0.31522,-0.2428785 0.59427,-0.3979073 0.23771,-0.1291906 0.57361,-0.1085201 0.34106,0.02067 0.65629,0.1550288 0.31522,0.1291906 0.53743,0.3565662 0.22738,0.222208 0.23771,0.5064274 -0.0155,0.4805893 -0.22221,0.8371556 -0.2067,0.3565662 -0.53743,0.6046123 -0.33073,0.2480461 -0.75964,0.4030749 -0.42374,0.1498612 -0.8785,0.2273756 -0.57877,0.093017 -1.15754,0.077514 -0.57361,-0.0155 -1.02836,-0.098184 -0.0413,0.062011 -0.093,0.1756989 -0.0465,0.118855 -0.0775,0.19637 -0.0568,0.134358 -0.14987,0.113687 -0.0465,-0.01034 -0.062,-0.06718 -0.0155,-0.05168 0,-0.124023 0.0207,-0.09302 0.0465,-0.180866 0.031,-0.08785 0.0723,-0.1912023 -0.27905,-0.1033526 -0.45992,-0.2325432 -0.1757,-0.1291907 -0.37724,-0.3617339 -0.13435,0.1860346 -0.28422,0.3255605 -0.14469,0.1395259 -0.32039,0.2325432 -0.35657,0.1860337 -0.85783,0.1912017 h -0.093 q -0.16537,0 -0.24288,-0.1240226 -0.0827,-0.1291906 -0.0827,-0.2842194 0,-0.1498612 0.0827,-0.2738843 0.0775,-0.1291906 0.24288,-0.1291906 h 0.093 q 0.26355,0 0.49093,-0.025838 0.23254,-0.025838 0.44958,-0.1550288 0.23771,-0.1395259 0.37207,-0.3720691 0.13436,-0.2325432 0.24805,-0.470254 0.0362,-0.072347 0.093,-0.093017 0.062,-0.025838 0.0672,0.051676 0.005,0.2015374 0.10336,0.3772367 0.10335,0.1705317 0.24804,0.30489 0.14986,0.1291907 0.32556,0.2170403 0.1757,0.082682 0.3359,0.1033525 z M 387.2276,4.9738338 q 0.17053,-0.098185 0.33589,-0.1963698 0.16537,-0.098185 0.3204,-0.2118727 0.16019,-0.1136878 0.31522,-0.2480461 0.15503,-0.1343583 0.29972,-0.30489 -0.13952,-0.041341 -0.29455,-0.1395259 -0.15503,-0.098185 -0.24805,-0.2118727 -0.0465,-0.056844 -0.0568,-0.1446935 -0.0103,-0.093017 0.0155,-0.1705317 0.0413,-0.1240231 0.11369,-0.2687166 0.0775,-0.1446936 0.18087,-0.263549 0.10335,-0.1188554 0.22737,-0.1912022 0.12919,-0.077514 0.25838,-0.072347 0.1602,0.010335 0.23255,0.1550288 0.0723,0.1395259 0.0879,0.3255605 0.0207,0.1860345 0,0.3669015 -0.0155,0.1808669 -0.0258,0.2635489 0,0.025838 0.0155,0.041341 0.062,0.036173 0.0827,0.067179 0.0258,0.031006 0.0413,0.072347 0.031,0.077514 0.0103,0.1860345 -0.0155,0.1085202 -0.062,0.1653641 -0.0413,0.051676 -0.0723,0.051676 -0.031,-0.00517 -0.062,-0.051676 -0.0258,-0.031006 -0.0517,-0.056844 -0.0207,-0.031006 -0.0672,-0.051676 -0.14469,0.1756993 -0.31005,0.3358958 -0.1602,0.1601964 -0.34107,0.2945547 -0.18603,0.1291906 -0.38757,0.2325432 -0.20154,0.1033525 -0.42374,0.1705317 -0.0879,0.025838 -0.18087,0.036173 -0.093,0.00517 -0.10335,-0.020671 -0.0103,-0.031006 0.0362,-0.072347 0.0465,-0.046509 0.11369,-0.08785 z m 0.97151,-1.7363226 q 0.10852,0.1498612 0.25838,0.2377109 0.14986,0.082682 0.27389,0.1136877 h 0.0103 q 0,-0.041341 0.005,-0.1085201 0.005,-0.072347 0,-0.1446936 0,-0.072347 -0.0207,-0.1395259 -0.0155,-0.067179 -0.062,-0.1136878 -0.0413,-0.036173 -0.11886,-0.031006 -0.0723,0 -0.14469,0.025838 -0.0723,0.025838 -0.13436,0.072347 -0.0568,0.041341 -0.0672,0.08785 z m -5.49319,5.844586 q 0.031,0.067179 0.15503,0.1033525 0.12919,0.036173 0.28422,0.051676 0.15503,0.010335 0.30489,0.00517 0.15503,-0.00517 0.23255,-0.015503 0,-0.02067 -0.0568,-0.1033525 -0.0517,-0.082682 -0.13952,-0.1705317 -0.0879,-0.093017 -0.19637,-0.1653641 -0.10336,-0.077514 -0.20671,-0.08785 -0.0568,0 -0.12402,0.041341 -0.062,0.036173 -0.11886,0.098185 -0.0568,0.056844 -0.0982,0.124023 -0.0362,0.067179 -0.0362,0.1188555 z m 1.13688,0.9353408 -0.51676,0.01033 q -0.21704,0.01033 -0.41341,-0.041341 -0.1912,-0.056844 -0.3359,-0.165364 -0.13952,-0.1136878 -0.21704,-0.2790519 -0.0723,-0.1705316 -0.0465,-0.387572 0.0155,-0.1446935 0.10335,-0.3565662 0.0879,-0.2118727 0.22221,-0.4082425 0.13435,-0.2015375 0.29972,-0.3410634 0.16536,-0.1446936 0.33589,-0.1446936 0.18087,0 0.3359,0.1498612 0.1602,0.1446936 0.28422,0.346231 0.11885,0.2067051 0.19637,0.4340807 0.0775,0.2222079 0.0982,0.3824044 l 0.41341,-0.015503 h 0.0982 q 0.0775,0 0.13952,0.036173 0.062,0.036173 0.10336,0.093017 0.0413,0.056844 0.062,0.1291907 0.0207,0.072347 0.0207,0.1498612 0.005,0.1498612 -0.0775,0.2790518 -0.0827,0.1240236 -0.24804,0.1240236 h -0.0982 l -0.43408,0.0052 q -0.093,0.439248 -0.21704,0.862993 -0.11885,0.423746 -0.30489,0.780312 -0.1912,0.356566 -0.46508,0.625283 -0.26872,0.268716 -0.66146,0.392739 -0.25838,0.09302 -0.57361,0.118856 -0.31005,0.02584 -0.63561,0.0052 -0.3204,-0.0155 -0.63045,-0.07235 -0.31523,-0.05684 -0.56844,-0.129191 -0.0724,-0.02067 -0.0879,-0.06201 -0.0207,-0.03617 0,-0.07235 0.0155,-0.03617 0.0672,-0.06201 0.0517,-0.02584 0.12402,-0.02067 0.24288,0.02584 0.5271,0.0052 0.28938,-0.0155 0.57877,-0.07235 0.29456,-0.05168 0.56844,-0.139526 0.27388,-0.08785 0.48576,-0.206705 0.29455,-0.160197 0.52193,-0.382405 0.22737,-0.222208 0.40824,-0.485757 0.18087,-0.263549 0.31006,-0.537433 0.13436,-0.268717 0.22737,-0.547768 z m -5.69472,-3.3382873 q 0.0413,0.1188554 0.13952,0.1912022 0.10336,0.072347 0.22738,0.098185 0.12402,0.02067 0.25321,-0.00517 0.12919,-0.031006 0.22738,-0.1136878 0.0207,-0.010335 0.031,-0.041341 0.0103,-0.036173 -0.0103,-0.08785 -0.0413,-0.077514 -0.10852,-0.1550288 -0.0672,-0.077514 -0.14986,-0.1343583 -0.0775,-0.062012 -0.17053,-0.093017 -0.0879,-0.036173 -0.1757,-0.031006 -0.11369,0.031006 -0.18087,0.1498612 -0.062,0.1136877 -0.0827,0.2222079 z m -0.21187,2.6458249 q 0,-0.046509 0.0155,-0.1343583 0.0207,-0.093017 0.0568,-0.1860345 0.0362,-0.098185 0.0827,-0.180867 0.0465,-0.08785 0.10852,-0.124023 0.13436,-0.051676 0.3359,-0.1343583 0.20671,-0.08785 0.40308,-0.1963698 0.19637,-0.1136878 0.34106,-0.2480461 0.14986,-0.1343583 0.17053,-0.2893871 0.0103,-0.082682 -0.0103,-0.1705317 -0.0155,-0.093017 -0.0517,-0.1808669 -0.031,-0.08785 -0.0723,-0.1705317 -0.0362,-0.082682 -0.0672,-0.1550288 -0.11885,0.2842194 -0.33589,0.4444159 -0.21704,0.1601964 -0.47026,0.1601964 -0.13435,0 -0.25838,-0.072347 -0.12402,-0.072347 -0.22221,-0.1860345 -0.093,-0.1136878 -0.14986,-0.2532138 -0.0568,-0.1395259 -0.0568,-0.2738842 0,-0.1756993 0.062,-0.4237454 0.0672,-0.2480461 0.18604,-0.4754216 0.12402,-0.2273756 0.28938,-0.387572 0.17053,-0.1601965 0.37207,-0.1601965 0.19637,0 0.37207,0.1343583 0.18087,0.1343583 0.32039,0.3358958 0.1447,0.2015374 0.24805,0.4392482 0.10335,0.2325432 0.14986,0.4340807 0.11369,0.4960922 0.0517,0.9818491 -0.0568,0.4857569 -0.35657,0.8784965 0.43925,0.077514 0.64079,0.2997224 0.2067,0.2170403 0.18603,0.5581037 -0.0207,0.3152252 -0.19637,0.6046126 -0.17053,0.289387 -0.44958,0.537433 -0.27905,0.253214 -0.63562,0.459919 -0.35657,0.206705 -0.74931,0.351398 -0.38757,0.149862 -0.78548,0.227376 -0.39274,0.08268 -0.74413,0.08268 -0.46509,0 -0.85783,-0.118855 -0.39274,-0.118856 -0.67696,-0.361734 -0.27905,-0.242879 -0.43925,-0.620115 -0.16019,-0.377237 -0.16019,-0.8888324 0,-0.5219303 0.1912,-0.9921843 0.19637,-0.4702541 0.47542,-0.8888318 0.0207,-0.031006 0.0413,-0.025838 0.0258,0.00517 0.0413,0.031006 0.0155,0.020671 0.0207,0.051676 0.0103,0.031006 0,0.046509 -0.19637,0.3565662 -0.30489,0.7544735 -0.10852,0.3979073 -0.0827,0.8009821 0.0258,0.3824039 0.1912,0.6459529 0.16537,0.268717 0.41858,0.434081 0.25838,0.170532 0.57361,0.242878 0.31522,0.07752 0.63562,0.07752 0.64595,0 1.20922,-0.186035 0.56327,-0.186034 1.11621,-0.490924 0.0827,-0.04651 0.21187,-0.129191 0.12919,-0.08268 0.25321,-0.175699 0.12919,-0.093018 0.22221,-0.180867 0.0982,-0.093017 0.10852,-0.1498612 -0.0465,-0.072347 -0.12919,-0.124023 -0.0775,-0.051676 -0.1757,-0.082682 -0.093,-0.036173 -0.2067,-0.056844 -0.10852,-0.020671 -0.22221,-0.036173 -0.18087,-0.025838 -0.38241,-0.041341 -0.20153,-0.020671 -0.37723,-0.031006 -0.1757,-0.015503 -0.31006,-0.02067 -0.12919,-0.010335 -0.16536,-0.010335 z m 0.18086,-5.7153952 q 0.031,-0.041341 0.0723,-0.010335 l 0.62528,0.5064275 q 0.0103,0.02067 0.0155,0.036173 0.005,0.015503 -0.0155,0.051676 l -0.41341,0.5064274 q -0.031,0.031006 -0.0827,0.010335 l -0.61495,-0.5064274 q -0.0103,-0.010335 -0.0155,-0.031006 -0.005,-0.025838 0.0155,-0.056844 z m 1.66915,10.2215656 q -0.50643,0.160197 -0.99736,0.325561 -0.49092,0.165364 -0.9405,0.310057 -0.0827,0.02584 -0.0413,-0.05168 l 0.21187,-0.39274 q 0.0155,-0.031 0.0258,-0.04651 0.0155,-0.0155 0.0465,-0.02584 0.13953,-0.05168 0.36691,-0.129191 0.22737,-0.07235 0.49092,-0.160196 0.26872,-0.08268 0.54777,-0.170532 0.27905,-0.08785 0.53226,-0.165364 0.0414,-0.0155 0.0517,-0.01033 0.0103,0.01033 -0.0103,0.05168 l -0.22221,0.403075 q -0.0155,0.02067 -0.031,0.03617 -0.0103,0.02067 -0.031,0.02584 z"
         id="text33"
         style="font-size:10.5833px;line-height:1.25;font-family:'KFGQPC Uthmanic Script HAFS';-inkscape-font-specification:'KFGQPC Uthmanic Script HAFS';direction:rtl;stroke-width:0.264583"
         aria-label="الشَّيْخُ عَبْدُالرَّشِيد صُوفِي" />
    </g>
  </g>
</svg>
