<?xml version="1.0" encoding="UTF-8" standalone="no"?>
<!-- Created with Inkscape (http://www.inkscape.org/) -->

<svg
   width="93.49736mm"
   height="15.48649mm"
   viewBox="0 0 93.49736 15.48649"
   version="1.1"
   id="svg1"
   xmlns="http://www.w3.org/2000/svg"
   xmlns:svg="http://www.w3.org/2000/svg">
  <defs
     id="defs1" />
  <g
     id="layer1"
     transform="translate(-1787.8835)">
    <g
       id="g30"
       transform="translate(1520.4656,-0.42062518)">
      <path
         d="m 359.26952,3.0577291 q 0.0827,0.00517 0.0775,0.1912022 -0.0103,0.1963698 0.005,0.387572 0.0155,0.1860346 0.0413,0.3772368 0.0517,0.4599187 0.12402,0.9508433 0.0724,0.4857569 0.14469,0.9818491 0.0672,0.4909245 0.13436,0.9818491 0.0672,0.4909245 0.11369,0.9560109 0.0207,0.180867 0.0258,0.4237454 0.0103,0.2428785 -0.005,0.4960922 -0.0103,0.2480461 -0.0568,0.4805893 -0.0414,0.2325432 -0.11886,0.387572 -0.0413,0.08785 -0.0982,0.1136878 -0.0465,0.00517 -0.0414,-0.041341 -0.031,-0.4495836 -0.0775,-0.9043347 -0.0413,-0.4599188 -0.10852,-0.9353405 -0.0672,-0.4909245 -0.13436,-0.9715138 -0.0672,-0.4805893 -0.12919,-0.9611786 -0.0672,-0.4805893 -0.13436,-0.9611786 -0.062,-0.4805893 -0.12402,-0.9663462 0.0155,-0.1188554 0.0465,-0.2428784 0.031,-0.1291907 0.0879,-0.263549 0.12402,-0.3358957 0.16536,-0.4082425 0.0465,-0.072347 0.062,-0.072347 z M 357.05261,2.768342 q 0.0155,-0.046509 0.0413,-0.056844 0.0258,-0.010335 0.0413,0.056844 0.0414,0.1240231 0.093,0.2532137 0.0517,0.1291907 0.11886,0.2532137 0.0723,0.1240231 0.16536,0.2325432 0.093,0.1033526 0.21187,0.1756993 -0.0723,0.1240231 -0.12919,0.2170404 -0.0517,0.08785 -0.0879,0.165364 -0.0362,0.072347 -0.0517,0.1446936 -0.0155,0.067179 -0.005,0.1446935 0.0568,0.4960922 0.12919,0.997352 0.0775,0.4960922 0.14469,0.9921843 0.0723,0.4960922 0.12403,0.9921844 0.0568,0.4960922 0.0723,0.9973519 0.005,0.1653641 -0.0207,0.3358958 -0.0258,0.1705317 -0.0827,0.3255605 -0.0568,0.1550288 -0.14469,0.2945547 -0.0827,0.1343583 -0.1912,0.2273756 -0.14987,0.1291906 -0.37207,0.1860345 -0.21704,0.051676 -0.53227,0.051676 h -0.093 q -0.16536,0 -0.24804,-0.124023 -0.0879,-0.1291907 -0.0879,-0.2790519 0,-0.1550288 0.0879,-0.2790518 0.0827,-0.1291907 0.24804,-0.1291907 h 0.093 q 0.17053,0 0.33073,-0.010335 0.1602,-0.015503 0.29455,-0.046509 0.13436,-0.036173 0.22738,-0.093017 0.0982,-0.062012 0.13953,-0.1550288 -0.10336,-1.0903692 -0.26872,-2.1497327 -0.16537,-1.0645311 -0.32039,-2.1393975 -0.031,-0.2170403 -0.0672,-0.4237454 -0.031,-0.2118727 -0.14986,-0.4082425 -0.0414,-0.056844 -0.0465,-0.072347 -0.005,-0.020671 0.0258,-0.082682 0.0878,-0.1498612 0.16019,-0.30489 0.0775,-0.1601964 0.14986,-0.2893871 z m -3.37963,5.2503088 q 0.062,-0.1033525 0.12403,-0.098185 0.0672,0.00517 0.0362,0.124023 -0.0258,0.1085202 -0.0724,0.2273756 -0.0465,0.1136878 -0.10335,0.2480461 0.0362,0.08785 0.1602,0.1756993 0.12919,0.082682 0.28939,0.1446936 0.15502,0.056844 0.31522,0.082682 0.16536,0.025838 0.27388,-0.015503 0.1757,-0.056844 0.28939,-0.3152252 0.11369,-0.263549 0.19637,-0.5529361 0.0413,-0.1550288 0.10852,-0.1808669 0.0672,-0.025838 0.0775,0.1136878 0.0207,0.2583813 0.093,0.4444159 0.0723,0.1860345 0.21704,0.2997223 0.27389,0.2273756 0.89917,0.2273756 h 0.093 q 0.16536,0 0.24804,0.1291907 0.0827,0.1291906 0.0827,0.2790518 0,0.1498612 -0.0827,0.2790519 -0.0827,0.124023 -0.24804,0.124023 h -0.093 q -0.27388,0 -0.47025,-0.031006 -0.19637,-0.036173 -0.38241,-0.1136878 -0.43408,-0.1860346 -0.65629,-0.6149476 -0.0362,0.082682 -0.093,0.1963698 -0.0568,0.1136878 -0.13436,0.2222079 -0.0723,0.1033526 -0.1602,0.1756994 -0.0879,0.072347 -0.18603,0.072347 -0.12919,0 -0.29973,-0.031006 -0.17053,-0.031006 -0.34106,-0.098185 -0.1757,-0.062012 -0.33589,-0.1601965 -0.15503,-0.1033525 -0.26355,-0.2428784 -0.18087,0.206705 -0.40825,0.346231 -0.2222,0.1343583 -0.47542,0.1756993 -0.25838,0.046509 -0.5426,0 -0.27905,-0.051676 -0.5736,-0.2067051 -0.13436,0.098185 -0.29456,0.1601964 -0.1602,0.062012 -0.31522,0.093017 -0.1602,0.036173 -0.30489,0.046509 -0.1447,0.010335 -0.25322,0.010335 h -0.093 q -0.15502,0 -0.23254,-0.124023 -0.0775,-0.1291907 -0.0775,-0.2790519 0,-0.1498612 0.0775,-0.2790518 0.0775,-0.1291907 0.23254,-0.1291907 h 0.093 q 0.31006,0 0.57361,-0.020671 0.26355,-0.025838 0.49609,-0.1136878 0.22738,-0.082682 0.42891,-0.2532137 0.20671,-0.1705317 0.39274,-0.4650864 0.0672,-0.1085202 0.11369,-0.093017 0.0517,0.010335 0.031,0.1188554 -0.0362,0.1860346 -0.11886,0.3979073 -0.0827,0.2118727 -0.20154,0.3617339 0.10336,0.031006 0.25322,0.046509 0.15503,0.015503 0.32556,0 0.25321,-0.02067 0.47542,-0.1033525 0.22738,-0.08785 0.40824,-0.263549 0.11369,-0.1033525 0.21187,-0.2377108 0.10336,-0.139526 0.19637,-0.2997224 z m 0.45476,-1.162716 q -0.031,0.036173 -0.0465,0.036173 -0.0155,0 -0.0517,-0.025838 l -0.60978,-0.4805892 -0.39791,0.552936 q -0.0362,0.046509 -0.0775,0.010335 l -0.65112,-0.4960922 q -0.0362,-0.031006 -0.0103,-0.067179 l 0.41341,-0.5891095 q 0.0258,-0.031006 0.0362,-0.025838 0.0155,0 0.0362,0.015503 l 0.61495,0.4702541 0.41858,-0.5374332 q 0.031,-0.041341 0.062,-0.02067 l 0.65112,0.5426008 q 0.031,0.031006 0,0.072347 z m -0.97669,-2.1807385 0.63562,0.5219303 q 0.0413,0.031006 0.005,0.072347 l -0.42375,0.5270979 q -0.0362,0.046509 -0.0827,0.010335 l -0.64078,-0.5167627 q -0.0413,-0.036173 0,-0.08785 l 0.42891,-0.5167627 q 0.0362,-0.046509 0.0775,-0.010335 z m 0.0413,-1.4314326 q -0.11368,0.2273756 -0.25838,0.3410634 -0.15503,0.1188554 -0.3669,0.124023 -0.17053,0.00517 -0.29972,-0.08785 -0.12402,-0.093017 -0.14469,-0.3255605 -0.0103,-0.1033525 0.0103,-0.2118727 0.0207,-0.1136878 0.062,-0.2118727 0.0413,-0.093017 0.093,-0.1601964 0.0568,-0.072347 0.11885,-0.093017 0.062,-0.00517 0.0103,0.093017 -0.031,0.056844 -0.0517,0.1343583 -0.0155,0.077514 -0.0207,0.1550288 0,0.072347 0.0155,0.124023 0.0155,0.051676 0.0672,0.098185 0.0775,0.056844 0.16536,0.056844 0.0879,-0.00517 0.17053,-0.041341 0.0879,-0.036173 0.15503,-0.082682 0.0723,-0.051676 0.14469,-0.1343583 0.0672,-0.077514 0.0982,-0.1963698 0.031,-0.1188555 0.0413,-0.1963699 0.005,-0.067179 0.0362,-0.1343582 0.031,-0.067179 0.10336,-0.067179 0.0155,0 0.0207,0.031006 0.0103,0.025838 0.0155,0.062012 0.005,0.036173 0.005,0.072347 0,0.031006 0,0.046509 0,0.1498612 0.0465,0.2377108 0.0465,0.082682 0.18604,0.1136878 0.0724,0.015503 0.18603,-0.015503 0.11886,-0.031006 0.20671,-0.1033525 0.0103,-0.010335 0.005,-0.056844 -0.005,-0.046509 -0.0207,-0.098185 -0.0103,-0.051676 -0.0362,-0.1085202 -0.0207,-0.062011 -0.0258,-0.072347 l 0.19121,-0.3617339 q 0.0517,0.025838 0.0775,0.1136878 0.031,0.08785 0.0362,0.2015374 0.0103,0.1085202 0,0.222208 -0.0103,0.1136878 -0.0258,0.1912022 -0.062,0.1912022 -0.17054,0.346231 -0.10335,0.1550288 -0.32039,0.1963698 -0.1912,0.036173 -0.32039,-0.025838 -0.12919,-0.062012 -0.20671,-0.1756993 z m 0.93018,-2.0773859 q -0.25838,0.1188554 -0.5426,0.2480461 -0.27906,0.1291906 -0.5426,0.248046 -0.26355,0.1188555 -0.49093,0.222208 -0.22737,0.1033525 -0.38757,0.1705317 -0.0362,0.015503 -0.0517,0 -0.0155,-0.015503 0,-0.046509 l 0.25322,-0.5064274 q 0.0258,-0.041341 0.0517,-0.056844 0.031,-0.020671 0.0568,-0.036173 l 1.88618,-0.83715551 q 0.0827,-0.0361734 0.0517,0.041341 L 354.19485,1.094031 q -0.0155,0.046509 -0.0723,0.072347 z m -4.88858,10.6504782 q -0.0258,0.03101 -0.0413,0.03101 -0.0155,0.0052 -0.0568,-0.02584 l -0.61495,-0.480589 -0.40307,0.552936 q -0.0362,0.04651 -0.0775,0.0155 l -0.65629,-0.506428 q -0.0362,-0.02584 -0.0103,-0.06201 l 0.41858,-0.594277 q 0.0207,-0.03101 0.0362,-0.03101 0.0155,0 0.0362,0.02067 l 0.62012,0.470255 0.42374,-0.542601 q 0.031,-0.04134 0.062,-0.0155 l 0.65629,0.547768 q 0.0362,0.02584 0,0.07235 z m -2.16006,-2.0618826 h -0.093 q -0.15503,0 -0.23254,-0.124023 -0.0775,-0.1291907 -0.0775,-0.2842195 0,-0.077514 0.0207,-0.1498612 0.0155,-0.072347 0.0568,-0.1291906 0.0362,-0.056844 0.0982,-0.093017 0.0568,-0.036173 0.13436,-0.036173 h 0.093 q 0.16019,0 0.35656,-0.010335 0.20154,-0.010335 0.37724,-0.056844 0.17053,-0.046509 0.33589,-0.1395259 0.16537,-0.098185 0.30489,-0.2687166 0.10336,-0.124023 0.16537,-0.2532137 0.0672,-0.1291907 0.12919,-0.2945547 0.0258,-0.067179 0.0827,-0.072347 0.062,-0.00517 0.0672,0.025838 0.005,0.062012 -0.0103,0.1498612 -0.0103,0.08785 -0.0103,0.1601964 0,0.1343583 0.0672,0.2687166 0.0672,0.1343583 0.2067,0.2428785 0.13953,0.1085202 0.38241,0.1808669 0.24804,0.067179 0.5581,0.067179 h 0.0982 q 0.0775,0 0.13436,0.036173 0.0568,0.036173 0.093,0.093017 0.0413,0.056844 0.0568,0.1291906 0.0207,0.072347 0.0207,0.1498612 0,0.1550288 -0.0775,0.2842195 -0.0723,0.124023 -0.22737,0.124023 h -0.0982 q -0.27905,0 -0.53226,-0.051676 -0.24805,-0.056844 -0.42375,-0.165364 -0.34106,-0.2067051 -0.53226,-0.60978 -0.11369,0.2325432 -0.26872,0.387572 -0.15503,0.1550288 -0.34106,0.2532137 -0.19121,0.098185 -0.43408,0.1446936 -0.24288,0.041341 -0.48059,0.041341 z M 347.663,4.1894396 q 0,0.08785 0.0465,0.1395259 0.0517,0.046509 0.11885,0.072347 0.0672,0.025838 0.14469,0.031006 0.0827,0.00517 0.1447,0.00517 0.14469,0 0.26872,-0.062012 0.12919,-0.062011 0.23254,-0.1601964 0.0103,-0.093017 -0.0207,-0.1963698 -0.031,-0.1033525 -0.0982,-0.1860346 -0.0672,-0.082682 -0.16536,-0.1291906 -0.0982,-0.051676 -0.22738,-0.041341 -0.0775,0.020671 -0.15503,0.077514 -0.0775,0.051676 -0.14469,0.1240231 -0.062,0.072347 -0.10335,0.1601964 -0.0413,0.082682 -0.0413,0.1653641 z m 1.20922,-0.1343583 q 0,0.1756993 -0.0465,0.3410633 -0.0465,0.1653641 -0.14469,0.2945548 -0.0982,0.1291906 -0.25321,0.206705 -0.14987,0.077514 -0.36174,0.077514 -0.26355,0 -0.44441,-0.1705316 -0.18087,-0.1705317 -0.19121,-0.4547512 0,-0.1446935 0.0413,-0.346231 0.0465,-0.2067051 0.13952,-0.3979073 0.093,-0.1912021 0.23771,-0.3307281 0.14986,-0.1446935 0.35657,-0.1705317 0.19637,-0.020671 0.32556,0.077514 0.12919,0.098185 0.2067,0.248046 0.0723,0.1550288 0.10336,0.3307282 0.031,0.1705316 0.031,0.2945547 z m -6.09263,2.780183 q 0.21187,-0.010335 0.44441,0.025838 0.23255,0.031006 0.66146,0.1136878 0.42891,0.077514 0.86299,0.093017 0.47026,0.015503 0.90951,0.00517 0.43924,-0.010335 0.9095,-0.051676 0.0207,-0.00517 0.031,0 0.0103,0.00517 0.005,0.031006 -0.0672,0.2015375 -0.14986,0.3979073 -0.0775,0.1963698 -0.1757,0.3824044 -0.23254,0.025838 -0.46509,0.062012 -0.23254,0.031006 -0.45991,0.077514 -0.0465,0.3772367 0.0827,0.5787742 0.13436,0.1963698 0.3824,0.2842194 0.24805,0.08785 0.57361,0.098185 0.33073,0.010335 0.68213,0.010335 0.0258,0 0.0465,0 0.0207,0 0.0465,0 0.15503,0 0.23255,0.1291907 0.0827,0.124023 0.0827,0.2738842 0,0.1550288 -0.0827,0.2842195 -0.0775,0.124023 -0.23255,0.124023 -0.0258,0 -0.0465,0 -0.0207,0 -0.0465,0 -0.57361,0.010335 -1.02319,-0.056844 -0.44959,-0.072347 -0.7183,-0.3152252 -0.21188,-0.1912022 -0.29973,-0.5115951 -0.0827,-0.3255605 -0.0207,-0.8268203 -0.45475,0.1085202 -0.87849,0.2893871 -0.42375,0.1756994 -0.78032,0.4599188 -0.31005,0.2480461 -0.5581,0.5581037 -0.24288,0.3100576 -0.41341,0.6666232 -0.16536,0.356567 -0.25321,0.738971 -0.0879,0.387572 -0.0879,0.785479 0,0.434081 0.16536,0.847491 0.17053,0.418578 0.44958,0.764809 0.27906,0.351398 0.63562,0.604612 0.36174,0.258382 0.74414,0.366902 0.50126,0.144693 1.02836,0.191202 0.53226,0.05168 0.98702,0.03617 0.50126,-0.0155 1.02835,-0.06201 0.5271,-0.04651 1.02836,-0.04651 0.062,0 0.0672,0.03101 0.005,0.03617 -0.062,0.113688 -0.0672,0.07751 -0.13953,0.08785 -0.31006,0.04651 -0.59944,0.139526 -0.28422,0.09818 -0.56327,0.19637 -0.27906,0.103353 -0.56844,0.186035 -0.28422,0.08785 -0.59428,0.10852 -0.75447,0.05168 -1.47794,-0.118856 -0.7183,-0.170531 -1.28157,-0.583941 -0.56327,-0.408243 -0.9095,-1.064532 -0.34624,-0.651121 -0.34624,-1.555455 0,-0.594277 0.15503,-1.193722 0.15503,-0.5942768 0.43925,-1.1265424 0.28939,-0.5374332 0.69246,-0.9715138 0.40825,-0.4392483 0.90434,-0.7131325 0.0207,-0.015503 -0.0103,-0.025838 -0.031,-0.010335 -0.0672,-0.015503 -0.23771,-0.025838 -0.51159,-0.046509 -0.26872,-0.025838 -0.53743,-0.00517 -0.26355,0.020671 -0.4961,0.1033525 -0.23254,0.077514 -0.38757,0.2583814 -0.031,0.036173 -0.0672,0.031006 -0.031,-0.00517 -0.0207,-0.072347 0.031,-0.2377109 0.10852,-0.4495836 0.0827,-0.2118727 0.21187,-0.3669015 0.1292,-0.1601964 0.31006,-0.2532137 0.18087,-0.098185 0.42375,-0.1033525 z m 1.08003,-2.1342299 0.63562,0.527098 q 0.0413,0.036173 0.005,0.082682 l -0.42375,0.5322655 q -0.0362,0.051676 -0.0827,0.010335 L 343.353,5.326317 q -0.0413,-0.036173 0,-0.08785 l 0.42892,-0.5270979 q 0.0362,-0.046509 0.0775,-0.010335 z m -1.1317,-0.6304503 q 0.17053,-0.098185 0.33589,-0.1963698 0.16536,-0.098185 0.32039,-0.2118727 0.1602,-0.1136878 0.31523,-0.2480461 0.15503,-0.1343583 0.29972,-0.30489 -0.13952,-0.041341 -0.29455,-0.1395259 -0.15503,-0.098185 -0.24805,-0.2118727 -0.0465,-0.056844 -0.0568,-0.1446936 -0.0103,-0.093017 0.0155,-0.1705317 0.0413,-0.124023 0.11369,-0.2687165 0.0775,-0.1446936 0.18086,-0.263549 0.10336,-0.1188554 0.22738,-0.1912022 0.12919,-0.077514 0.25838,-0.072347 0.1602,0.010335 0.23254,0.1550288 0.0724,0.1395259 0.0879,0.3255605 0.0207,0.1860346 0,0.3669015 -0.0155,0.1808669 -0.0258,0.263549 0,0.025838 0.0155,0.041341 0.062,0.036173 0.0827,0.067179 0.0258,0.031006 0.0413,0.072347 0.031,0.077514 0.0103,0.1860346 -0.0155,0.1085201 -0.062,0.165364 -0.0413,0.051676 -0.0723,0.051676 -0.031,-0.00517 -0.062,-0.051676 -0.0258,-0.031006 -0.0517,-0.056844 -0.0207,-0.031006 -0.0672,-0.051676 -0.14469,0.1756993 -0.31006,0.3358957 -0.16019,0.1601964 -0.34106,0.2945547 -0.18603,0.1291907 -0.38757,0.2325432 -0.20154,0.1033526 -0.42375,0.1705317 -0.0879,0.025838 -0.18086,0.036173 -0.093,0.00517 -0.10336,-0.020671 -0.0103,-0.031006 0.0362,-0.072347 0.0465,-0.046509 0.11369,-0.08785 z m 0.97151,-1.7363226 q 0.10852,0.1498612 0.25838,0.2377108 0.14986,0.082682 0.27388,0.1136878 h 0.0103 q 0,-0.041341 0.005,-0.1085202 0.005,-0.072347 0,-0.1446935 0,-0.072347 -0.0207,-0.1395259 -0.0155,-0.067179 -0.062,-0.1136878 -0.0414,-0.036173 -0.11886,-0.031006 -0.0724,0 -0.14469,0.025838 -0.0723,0.025838 -0.13436,0.072347 -0.0569,0.041341 -0.0672,0.08785 z m -5.03327,5.5138576 q -0.0207,0.046509 -0.0672,0.139526 -0.0465,0.08785 -0.10335,0.1860345 -0.0517,0.098185 -0.10852,0.1912022 -0.0568,0.08785 -0.0982,0.1395259 -0.031,0.056844 -0.14986,0.031006 -0.54777,-0.1033525 -1.02319,-0.056844 -0.47542,0.046509 -0.94568,0.1963698 -0.40824,0.1343583 -0.77514,0.2997224 -0.3669,0.1601964 -0.72347,0.2842194 -0.68212,0.2480461 -1.32291,0.3720692 -0.63562,0.124023 -1.31775,0.124023 h -0.093 q -0.16537,0 -0.24805,-0.124023 -0.0827,-0.1291907 -0.0827,-0.2842195 0,-0.1550288 0.0827,-0.2790518 0.0827,-0.1291907 0.24805,-0.1291907 h 0.093 q 0.23772,0 0.4961,-0.010335 0.25838,-0.010335 0.50642,-0.031006 0.24805,-0.02067 0.47026,-0.046509 0.22221,-0.031006 0.39274,-0.067179 0.35656,-0.077514 0.7493,-0.2170403 0.39791,-0.1446936 0.83716,-0.3255605 -0.25321,-0.036173 -0.58911,-0.08785 -0.3359,-0.056844 -0.69246,-0.1085202 -0.35657,-0.056844 -0.69763,-0.1033525 -0.34107,-0.046509 -0.59945,-0.072347 -0.0362,-0.010335 -0.10335,0.010335 -0.0672,0.020671 -0.13436,0.046509 -0.031,0.010335 -0.062,-0.010335 -0.031,-0.02067 -0.0207,-0.067179 0.062,-0.2222079 0.18087,-0.4495835 0.11885,-0.2273756 0.22221,-0.387572 0.0465,-0.067179 0.23254,-0.1550288 0.1912,-0.093017 0.45475,-0.2067051 0.26872,-0.1188554 0.57877,-0.2635489 0.31006,-0.1446936 0.60462,-0.3152253 0.29455,-0.1756993 0.53743,-0.3824044 0.24288,-0.2118727 0.37207,-0.4547511 0.10335,-0.1963698 0.22737,-0.4392483 0.12403,-0.2428785 0.26872,-0.4495835 0.14986,-0.2118727 0.31523,-0.346231 0.17053,-0.1395259 0.3669,-0.1291907 0.1757,0.010335 0.33589,0.1860346 0.1602,0.1756993 0.28422,0.4185777 0.12403,0.2428785 0.19637,0.5064275 0.0723,0.2635489 0.0723,0.4444159 0,0.093017 -0.0362,0.2170403 -0.0362,0.124023 -0.0879,0.2377108 -0.0465,0.1085202 -0.10336,0.1963698 -0.0568,0.082682 -0.0982,0.098185 -0.10852,0.041341 -0.29972,0.031006 -0.18604,-0.010335 -0.41341,-0.067179 -0.22221,-0.062012 -0.45475,-0.1705317 -0.23255,-0.1136878 -0.42375,-0.2790519 -0.45475,0.5942771 -0.97668,0.9405081 -0.52193,0.346231 -1.14721,0.5270979 0.37723,0.067179 0.70796,0.1291907 0.33073,0.056844 0.64079,0.1136878 0.31522,0.051676 0.62528,0.098185 0.31522,0.046509 0.65629,0.08785 0.53226,0.062011 1.1007,0.1188554 0.56844,0.051676 1.10071,0.072347 0.0775,0.00517 0.0413,0.072347 z m -1.31258,-2.3719407 q -0.031,-0.077514 -0.093,-0.2170403 -0.062,-0.1395259 -0.14986,-0.2790518 -0.0827,-0.139526 -0.1912,-0.2377109 -0.10335,-0.1033525 -0.22221,-0.1033525 -0.0517,0 -0.12919,0.051676 -0.0724,0.046509 -0.14469,0.1188554 -0.0724,0.067179 -0.12919,0.1395259 -0.0568,0.067179 -0.0775,0.1136878 0.24805,0.2170403 0.5271,0.3100576 0.28422,0.093017 0.60978,0.1033525 z m -1.79317,-2.5683102 q 0.17053,-0.098185 0.3359,-0.1963699 0.16536,-0.098185 0.32039,-0.2118726 0.1602,-0.1136878 0.31523,-0.2480461 0.15502,-0.1343583 0.29972,-0.30489 -0.13953,-0.041341 -0.29456,-0.1395259 -0.15503,-0.098185 -0.24804,-0.2118727 -0.0465,-0.056844 -0.0568,-0.1446936 -0.0103,-0.093017 0.0155,-0.1705317 0.0413,-0.124023 0.11368,-0.2687166 0.0775,-0.14469351 0.18087,-0.26354893 0.10335,-0.11885541 0.22738,-0.19120219 0.12919,-0.0775144 0.25838,-0.0723468 0.16019,0.0103353 0.23254,0.1550288 0.0723,0.13952592 0.0879,0.32556049 0.0207,0.18603463 0,0.36690153 -0.0155,0.1808669 -0.0258,0.263549 0,0.025838 0.0155,0.041341 0.062,0.036173 0.0827,0.067179 0.0258,0.031006 0.0413,0.072347 0.031,0.077514 0.0103,0.1860346 -0.0155,0.1085201 -0.062,0.165364 -0.0413,0.051676 -0.0723,0.051676 -0.031,-0.00517 -0.062,-0.051676 -0.0258,-0.031006 -0.0517,-0.056844 -0.0207,-0.031006 -0.0672,-0.051676 -0.1447,0.1756993 -0.31006,0.3358957 -0.1602,0.1601964 -0.34106,0.2945547 -0.18604,0.1291907 -0.38757,0.2325432 -0.20154,0.1033526 -0.42375,0.1705317 -0.0879,0.025838 -0.18087,0.036173 -0.093,0.00517 -0.10335,-0.020671 -0.0103,-0.031006 0.0362,-0.072347 0.0465,-0.046509 0.11369,-0.08785 z m 0.97152,-1.7363226 q 0.10852,0.1498611 0.25838,0.2377108 0.14986,0.082682 0.27388,0.1136878 h 0.0103 q 0,-0.041341 0.005,-0.1085202 0.005,-0.072347 0,-0.1446935 0,-0.072347 -0.0207,-0.1395259 -0.0155,-0.067179 -0.062,-0.1136878 -0.0413,-0.0361734 -0.11885,-0.0310058 -0.0723,0 -0.1447,0.0258381 -0.0723,0.025838 -0.13436,0.072347 -0.0568,0.041341 -0.0672,0.08785 z m -2.35127,1.9998712 q -0.25839,0.1188554 -0.54261,0.248046 -0.27905,0.1291907 -0.5426,0.2480461 -0.26355,0.1188554 -0.49092,0.222208 -0.22738,0.1033525 -0.38757,0.1705317 -0.0362,0.015503 -0.0517,0 -0.0155,-0.015503 0,-0.046509 l 0.25321,-0.5064274 q 0.0258,-0.041341 0.0517,-0.056844 0.031,-0.020671 0.0568,-0.036173 l 1.88619,-0.8371555 q 0.0827,-0.036173 0.0517,0.041341 L 334.25304,3.09907 q -0.0155,0.046509 -0.0723,0.072347 z m -3.79821,5.8755917 q 0.0155,0.00517 0.031,0 0.0155,-0.010335 -0.0103,-0.046509 -0.0879,-0.098185 -0.14986,-0.2015374 -0.062,-0.1085202 -0.10852,-0.2015375 -0.0465,-0.093017 -0.0775,-0.165364 -0.031,-0.072347 -0.0517,-0.1136878 -0.0517,-0.093017 -0.13436,-0.077514 -0.093,0.02067 -0.22737,0.1085201 -0.13436,0.08785 -0.22221,0.2067051 -0.031,0.036173 -0.031,0.051676 0,0.015503 0.0413,0.041341 0.0827,0.062012 0.20154,0.1291907 0.11886,0.067179 0.24805,0.124023 0.12919,0.051676 0.25838,0.093017 0.12919,0.041341 0.23254,0.051676 z m 0.5116,0.4805893 q -0.0465,0.1085202 -0.10336,0.2325432 -0.0517,0.1291907 -0.0982,0.1446936 -0.17053,0.031006 -0.43925,-0.025838 -0.26872,-0.051676 -0.53227,-0.1601965 -0.26354,-0.1085201 -0.46508,-0.2583813 -0.19637,-0.1498612 -0.21704,-0.3152252 -0.13953,0.1860345 -0.29972,0.3048899 -0.15503,0.1136878 -0.31523,0.1860346 -0.16536,0.067179 -0.32556,0.093017 -0.15503,0.025838 -0.29455,0.025838 h -0.093 q -0.16537,0 -0.24805,-0.124023 -0.0827,-0.1291907 -0.0827,-0.2790519 0,-0.1550288 0.0827,-0.2790518 0.0827,-0.1291907 0.24805,-0.1291907 h 0.093 q 0.1912,0 0.3824,-0.010335 0.1912,-0.010335 0.37207,-0.062012 0.18087,-0.051676 0.3514,-0.1601964 0.17053,-0.1136878 0.32039,-0.3152252 0.0827,-0.1085202 0.18087,-0.2170404 0.0982,-0.1136877 0.19637,-0.2015374 0.10335,-0.08785 0.2067,-0.1395259 0.10335,-0.056844 0.19637,-0.056844 0.093,0 0.20154,0.08785 0.10852,0.08785 0.21704,0.2067051 0.11369,0.1136878 0.21187,0.2377108 0.10335,0.1240231 0.1757,0.1912022 0.12402,0.1291907 0.26355,0.2118727 0.13953,0.082682 0.28939,0.1343583 0.14986,0.051676 0.31522,0.072347 0.16537,0.020671 0.34623,0.020671 h 0.093 q 0.1602,0 0.24288,0.1291907 0.0827,0.124023 0.0827,0.2790518 0,0.1498612 -0.0827,0.2790519 -0.0827,0.124023 -0.24288,0.124023 h -0.093 q -0.14986,0 -0.29972,-0.00517 -0.14986,-0.00517 -0.29455,-0.031006 -0.1447,-0.02067 -0.28422,-0.067179 -0.13436,-0.046509 -0.25838,-0.1240231 z m -1.27641,-4.7335459 q -0.11368,0.2273756 -0.25838,0.3410634 -0.15503,0.1188554 -0.3669,0.124023 -0.17053,0.00517 -0.29972,-0.08785 -0.12403,-0.093017 -0.1447,-0.3255605 -0.0103,-0.1033525 0.0103,-0.2118727 0.0207,-0.1136878 0.062,-0.2118727 0.0413,-0.093017 0.093,-0.1601964 0.0568,-0.072347 0.11885,-0.093017 0.062,-0.00517 0.0103,0.093017 -0.031,0.056844 -0.0517,0.1343583 -0.0155,0.077514 -0.0207,0.1550288 0,0.072347 0.0155,0.124023 0.0155,0.051676 0.0672,0.098185 0.0775,0.056844 0.16537,0.056844 0.0879,-0.00517 0.17053,-0.041341 0.0879,-0.036173 0.15503,-0.082682 0.0724,-0.051676 0.14469,-0.1343583 0.0672,-0.077514 0.0982,-0.1963698 0.031,-0.1188555 0.0413,-0.1963699 0.005,-0.067179 0.0362,-0.1343582 0.031,-0.067179 0.10335,-0.067179 0.0155,0 0.0207,0.031006 0.0103,0.025838 0.0155,0.062011 0.005,0.036173 0.005,0.072347 0,0.031006 0,0.046509 0,0.1498612 0.0465,0.2377108 0.0465,0.082682 0.18604,0.1136878 0.0724,0.015503 0.18603,-0.015503 0.11886,-0.031006 0.20671,-0.1033525 0.0103,-0.010335 0.005,-0.056844 -0.005,-0.046509 -0.0207,-0.098185 -0.0103,-0.051676 -0.0362,-0.1085202 -0.0207,-0.062011 -0.0258,-0.072347 l 0.19121,-0.3617339 q 0.0517,0.025838 0.0775,0.1136878 0.031,0.08785 0.0362,0.2015374 0.0103,0.1085202 0,0.222208 -0.0103,0.1136878 -0.0258,0.1912022 -0.062,0.1912022 -0.17054,0.346231 -0.10335,0.1550288 -0.32039,0.1963698 -0.1912,0.036173 -0.32039,-0.025838 -0.12919,-0.062012 -0.20671,-0.1756993 z m 0.93018,-2.0773859 q -0.25839,0.1188554 -0.5426,0.2480461 -0.27906,0.1291906 -0.54261,0.248046 -0.26354,0.1188555 -0.49092,0.222208 -0.22738,0.1033525 -0.38757,0.1705317 -0.0362,0.015503 -0.0517,0 -0.0155,-0.015503 0,-0.046509 l 0.25322,-0.5064274 q 0.0258,-0.041341 0.0517,-0.056844 0.031,-0.020671 0.0568,-0.036173 l 1.88618,-0.8371555 q 0.0827,-0.036173 0.0517,0.041341 l -0.21188,0.4805893 q -0.0155,0.046509 -0.0723,0.072347 z m -5.06428,3.6690148 0.14986,-0.6046124 q 0.0155,-0.062011 0.062,-0.062011 0.0465,0 0.062,0.056844 l 0.52709,1.8655133 q 0.10336,0.3669015 0.25839,0.6407857 0.16019,0.2738842 0.43408,0.4599188 0.16019,0.1085201 0.3669,0.1550288 0.2067,0.046509 0.45992,0.046509 h 0.093 q 0.16537,0 0.24805,0.1291907 0.0827,0.1291906 0.0827,0.2790518 0,0.1498612 -0.0827,0.2790519 -0.0827,0.124023 -0.24805,0.124023 h -0.093 q -0.28422,0 -0.53227,-0.051676 -0.24288,-0.056844 -0.45475,-0.2015374 -0.2067,-0.1395259 -0.38757,-0.387572 -0.1757,-0.2532137 -0.33073,-0.6459534 -0.13436,0.4030749 -0.43925,0.6666239 -0.24804,0.2118727 -0.58394,0.3203929 -0.3359,0.1033525 -0.65629,0.1446935 -0.31522,0.046509 -0.59944,0.02067 -0.27906,-0.031006 -0.42892,-0.1705317 -0.0775,-0.072347 -0.11368,-0.1963698 -0.031,-0.124023 -0.031,-0.2583813 0,-0.1395259 0.0207,-0.2687166 0.0258,-0.1343583 0.0672,-0.2273756 0.0155,-0.031006 0.0413,-0.031006 0.031,0 0.0465,0.031006 0.093,0.1705317 0.21187,0.2325432 0.11886,0.056844 0.28422,0.072347 0.24288,0.025838 0.55811,-0.010335 0.31522,-0.036173 0.61494,-0.1291906 0.29973,-0.08785 0.53744,-0.2273756 0.24287,-0.1446936 0.33072,-0.3307281 z m -5.43634,1.4624383 q -0.0207,0.046509 -0.0672,0.139526 -0.0465,0.08785 -0.10335,0.1860345 -0.0517,0.098185 -0.10852,0.1912022 -0.0568,0.08785 -0.0982,0.1395259 -0.031,0.056844 -0.14986,0.031006 -0.54777,-0.1033525 -1.02319,-0.056844 -0.47542,0.046509 -0.94567,0.1963698 -0.40825,0.1343583 -0.77515,0.2997224 -0.3669,0.1601964 -0.72347,0.2842194 -0.68212,0.2480461 -1.32291,0.3720692 -0.63562,0.124023 -1.31774,0.124023 h -0.093 q -0.16536,0 -0.24805,-0.124023 -0.0827,-0.1291907 -0.0827,-0.2842195 0,-0.1550288 0.0827,-0.2790518 0.0827,-0.1291907 0.24805,-0.1291907 h 0.093 q 0.23771,0 0.49609,-0.010335 0.25838,-0.010335 0.50643,-0.031006 0.24804,-0.02067 0.47025,-0.046509 0.22221,-0.031006 0.39274,-0.067179 0.35657,-0.077514 0.74931,-0.2170403 0.3979,-0.1446936 0.83715,-0.3255605 -0.25321,-0.036173 -0.58911,-0.08785 -0.33589,-0.056844 -0.69246,-0.1085202 -0.35657,-0.056844 -0.69763,-0.1033525 -0.34106,-0.046509 -0.59944,-0.072347 -0.0362,-0.010335 -0.10336,0.010335 -0.0672,0.020671 -0.13435,0.046509 -0.031,0.010335 -0.062,-0.010335 -0.031,-0.02067 -0.0207,-0.067179 0.062,-0.2222079 0.18087,-0.4495835 0.11886,-0.2273756 0.22221,-0.387572 0.0465,-0.067179 0.23254,-0.1550288 0.1912,-0.093017 0.45475,-0.2067051 0.26872,-0.1188554 0.57878,-0.2635489 0.31005,-0.1446936 0.60461,-0.3152253 0.29455,-0.1756993 0.53743,-0.3824044 0.24288,-0.2118727 0.37207,-0.4547511 0.10335,-0.1963698 0.22738,-0.4392483 0.12402,-0.2428785 0.26871,-0.4495835 0.14986,-0.2118727 0.31523,-0.346231 0.17053,-0.1395259 0.3669,-0.1291907 0.1757,0.010335 0.3359,0.1860346 0.16019,0.1756993 0.28422,0.4185777 0.12402,0.2428785 0.19637,0.5064275 0.0723,0.2635489 0.0723,0.4444159 0,0.093017 -0.0362,0.2170403 -0.0362,0.124023 -0.0879,0.2377108 -0.0465,0.1085202 -0.10335,0.1963698 -0.0568,0.082682 -0.0982,0.098185 -0.10852,0.041341 -0.29972,0.031006 -0.18604,-0.010335 -0.41341,-0.067179 -0.22221,-0.062012 -0.45475,-0.1705317 -0.23255,-0.1136878 -0.42375,-0.2790519 -0.45475,0.5942771 -0.97668,0.9405081 -0.52193,0.346231 -1.14721,0.5270979 0.37723,0.067179 0.70796,0.1291907 0.33073,0.056844 0.64079,0.1136878 0.31522,0.051676 0.62528,0.098185 0.31523,0.046509 0.65629,0.08785 0.53227,0.062011 1.1007,0.1188554 0.56844,0.051676 1.10071,0.072347 0.0775,0.00517 0.0413,0.072347 z m -1.31258,-2.3719407 q -0.031,-0.077514 -0.093,-0.2170403 -0.062,-0.1395259 -0.14987,-0.2790518 -0.0827,-0.139526 -0.1912,-0.2377109 -0.10335,-0.1033525 -0.22221,-0.1033525 -0.0517,0 -0.12919,0.051676 -0.0723,0.046509 -0.14469,0.1188554 -0.0723,0.067179 -0.12919,0.1395259 -0.0568,0.067179 -0.0775,0.1136878 0.24805,0.2170403 0.5271,0.3100576 0.28422,0.093017 0.60978,0.1033525 z m 0.0568,-3.3382866 q -0.25838,0.1188554 -0.5426,0.2480461 -0.27905,0.1291906 -0.5426,0.248046 -0.26355,0.1188555 -0.49092,0.222208 -0.22738,0.1033525 -0.38757,0.1705317 -0.0362,0.015503 -0.0517,0 -0.0155,-0.015503 0,-0.046509 l 0.25321,-0.5064274 q 0.0258,-0.041341 0.0517,-0.056844 0.031,-0.020671 0.0568,-0.036173 l 1.88619,-0.8371555 q 0.0827,-0.036173 0.0517,0.041341 l -0.21187,0.4805893 q -0.0155,0.046509 -0.0724,0.072347 z m -4.79039,0.7596409 q 0,0.08785 0.0465,0.139526 0.0517,0.046509 0.11886,0.072347 0.0672,0.025838 0.14469,0.031006 0.0827,0.00517 0.14469,0.00517 0.1447,0 0.26872,-0.062012 0.12919,-0.062012 0.23254,-0.1601964 0.0103,-0.093017 -0.0207,-0.1963698 -0.031,-0.1033526 -0.0982,-0.1860346 -0.0672,-0.082682 -0.16537,-0.1291907 -0.0982,-0.051676 -0.22737,-0.041341 -0.0775,0.020671 -0.15503,0.077514 -0.0775,0.051676 -0.1447,0.1240231 -0.062,0.072347 -0.10335,0.1601964 -0.0413,0.082682 -0.0413,0.165364 z m 1.20923,-0.1343583 q 0,0.1756994 -0.0465,0.3410634 -0.0465,0.1653641 -0.1447,0.2945547 -0.0982,0.1291907 -0.25321,0.2067051 -0.14986,0.077514 -0.36173,0.077514 -0.26355,0 -0.44442,-0.1705317 -0.18087,-0.1705317 -0.1912,-0.4547511 0,-0.1446936 0.0413,-0.346231 0.0465,-0.2067051 0.13952,-0.3979073 0.093,-0.1912022 0.23772,-0.3307281 0.14986,-0.1446936 0.35656,-0.1705317 0.19637,-0.020671 0.32556,0.077514 0.12919,0.098185 0.20671,0.2480461 0.0723,0.1550288 0.10335,0.3307281 0.031,0.1705317 0.031,0.2945547 z m -3.44681,6.2838341 q 0.0155,0.00517 0.031,0 0.0155,-0.010335 -0.0103,-0.046509 -0.0879,-0.098185 -0.14986,-0.2015374 -0.062,-0.1085202 -0.10852,-0.2015375 -0.0465,-0.093017 -0.0775,-0.165364 -0.031,-0.072347 -0.0517,-0.1136878 -0.0517,-0.093017 -0.13436,-0.077514 -0.093,0.02067 -0.22738,0.1085201 -0.13435,0.08785 -0.2222,0.2067051 -0.031,0.036173 -0.031,0.051676 0,0.015503 0.0413,0.041341 0.0827,0.062012 0.20154,0.1291907 0.11885,0.067179 0.24805,0.124023 0.12919,0.051676 0.25838,0.093017 0.12919,0.041341 0.23254,0.051676 z m 0.51159,0.4805893 q -0.0465,0.1085202 -0.10335,0.2325432 -0.0517,0.1291907 -0.0982,0.1446936 -0.17053,0.031006 -0.43925,-0.025838 -0.26872,-0.051676 -0.53227,-0.1601965 -0.26355,-0.1085201 -0.46508,-0.2583813 -0.19637,-0.1498612 -0.21704,-0.3152252 -0.13953,0.1860345 -0.29973,0.3048899 -0.15502,0.1136878 -0.31522,0.1860346 -0.16536,0.067179 -0.32556,0.093017 -0.15503,0.025838 -0.29456,0.025838 h -0.093 q -0.16537,0 -0.24805,-0.124023 -0.0827,-0.1291907 -0.0827,-0.2790519 0,-0.1550288 0.0827,-0.2790518 0.0827,-0.1291907 0.24805,-0.1291907 h 0.093 q 0.19121,0 0.38241,-0.010335 0.1912,-0.010335 0.37207,-0.062012 0.18086,-0.051676 0.3514,-0.1601964 0.17053,-0.1136878 0.32039,-0.3152252 0.0827,-0.1085202 0.18087,-0.2170404 0.0982,-0.1136877 0.19637,-0.2015374 0.10335,-0.08785 0.2067,-0.1395259 0.10335,-0.056844 0.19637,-0.056844 0.093,0 0.20154,0.08785 0.10852,0.08785 0.21704,0.2067051 0.11369,0.1136878 0.21187,0.2377108 0.10335,0.1240231 0.1757,0.1912022 0.12402,0.1291907 0.26355,0.2118727 0.13953,0.082682 0.28939,0.1343583 0.14986,0.051676 0.31522,0.072347 0.16537,0.020671 0.34623,0.020671 h 0.093 q 0.1602,0 0.24288,0.1291907 0.0827,0.124023 0.0827,0.2790518 0,0.1498612 -0.0827,0.2790519 -0.0827,0.124023 -0.24288,0.124023 h -0.093 q -0.14986,0 -0.29972,-0.00517 -0.14986,-0.00517 -0.29455,-0.031006 -0.1447,-0.02067 -0.28422,-0.067179 -0.13436,-0.046509 -0.25839,-0.1240231 z M 310.00137,5.2333 q 0.17054,-0.098185 0.3359,-0.1963698 0.16536,-0.098185 0.32039,-0.2118727 0.1602,-0.1136878 0.31523,-0.2480461 0.15503,-0.1343583 0.29972,-0.30489 -0.13953,-0.041341 -0.29456,-0.1395259 -0.15502,-0.098185 -0.24804,-0.2118727 -0.0465,-0.056844 -0.0568,-0.1446936 -0.0103,-0.093017 0.0155,-0.1705316 0.0413,-0.1240231 0.11369,-0.2687166 0.0775,-0.1446936 0.18086,-0.263549 0.10336,-0.1188554 0.22738,-0.1912022 0.12919,-0.077514 0.25838,-0.072347 0.1602,0.010335 0.23254,0.1550288 0.0723,0.139526 0.0879,0.3255605 0.0207,0.1860346 0,0.3669015 -0.0155,0.180867 -0.0258,0.263549 0,0.025838 0.0155,0.041341 0.062,0.036173 0.0827,0.067179 0.0258,0.031006 0.0413,0.072347 0.031,0.077514 0.0103,0.1860346 -0.0155,0.1085202 -0.062,0.165364 -0.0413,0.051676 -0.0723,0.051676 -0.031,-0.00517 -0.062,-0.051676 -0.0258,-0.031006 -0.0517,-0.056844 -0.0207,-0.031006 -0.0672,-0.051676 -0.14469,0.1756993 -0.31006,0.3358957 -0.16019,0.1601965 -0.34106,0.2945548 -0.18604,0.1291906 -0.38757,0.2325432 -0.20154,0.1033525 -0.42375,0.1705316 -0.0879,0.025838 -0.18087,0.036173 -0.093,0.00517 -0.10335,-0.02067 -0.0103,-0.031006 0.0362,-0.072347 0.0465,-0.046509 0.11368,-0.08785 z m 0.97152,-1.7363226 q 0.10852,0.1498612 0.25838,0.2377108 0.14986,0.082682 0.27388,0.1136878 h 0.0103 q 0,-0.041341 0.005,-0.1085201 0.005,-0.072347 0,-0.1446936 0,-0.072347 -0.0207,-0.1395259 -0.0155,-0.067179 -0.062,-0.1136878 -0.0413,-0.036173 -0.11885,-0.031006 -0.0723,0 -0.1447,0.025838 -0.0723,0.025838 -0.13435,0.072347 -0.0568,0.041341 -0.0672,0.08785 z m -3.68452,5.3278232 q 0.031,0.067179 0.15503,0.1033525 0.12919,0.036173 0.28422,0.051676 0.15502,0.010335 0.30489,0.00517 0.15502,-0.00517 0.23254,-0.015503 0,-0.02067 -0.0568,-0.1033525 -0.0517,-0.082682 -0.13953,-0.1705317 -0.0878,-0.093017 -0.19637,-0.165364 -0.10335,-0.077514 -0.20671,-0.08785 -0.0568,0 -0.12402,0.041341 -0.062,0.036173 -0.11885,0.098185 -0.0568,0.056844 -0.0982,0.1240231 -0.0362,0.067179 -0.0362,0.1188554 z m 1.13688,0.9353404 -0.51677,0.010335 q -0.21704,0.010335 -0.41341,-0.041341 -0.1912,-0.056844 -0.33589,-0.1653641 -0.13953,-0.1136878 -0.21704,-0.2790518 -0.0723,-0.1705317 -0.0465,-0.387572 0.0155,-0.1446936 0.10335,-0.3565663 0.0879,-0.2118727 0.22221,-0.4082425 0.13436,-0.2015374 0.29972,-0.3410634 0.16536,-0.1446935 0.3359,-0.1446935 0.18086,0 0.33589,0.1498612 0.1602,0.1446935 0.28422,0.346231 0.11886,0.206705 0.19637,0.4340806 0.0775,0.222208 0.0982,0.3824044 l 0.41341,-0.015503 h 0.0982 q 0.0775,0 0.13953,0.036173 0.062,0.036173 0.10335,0.093017 0.0413,0.056844 0.062,0.1291906 0.0207,0.072347 0.0207,0.1498612 0.005,0.1498612 -0.0775,0.2790519 -0.0827,0.124023 -0.24805,0.124023 h -0.0982 l -0.43408,0.00517 q -0.093,0.4392477 -0.21704,0.8629937 -0.11886,0.423745 -0.30489,0.780311 -0.19121,0.356567 -0.46509,0.625283 -0.26872,0.268717 -0.66146,0.39274 -0.25838,0.09302 -0.5736,0.118855 -0.31006,0.02584 -0.63562,0.0052 -0.32039,-0.0155 -0.63045,-0.07235 -0.31523,-0.05684 -0.56844,-0.129191 -0.0723,-0.02067 -0.0878,-0.06201 -0.0207,-0.03617 0,-0.07235 0.0155,-0.03617 0.0672,-0.06201 0.0517,-0.02584 0.12402,-0.02067 0.24288,0.02584 0.5271,0.0052 0.28939,-0.0155 0.57877,-0.07235 0.29456,-0.05168 0.56844,-0.139526 0.27389,-0.08785 0.48576,-0.206705 0.29455,-0.160196 0.52193,-0.382404 0.22738,-0.222208 0.40824,-0.485757 0.18087,-0.263549 0.31006,-0.537434 0.13436,-0.268716 0.22738,-0.5477677 z m -5.21414,-3.0902408 0.0258,-0.6976296 q 0.0103,-0.082682 0.0672,-0.093017 0.062,-0.010335 0.13952,0.015503 0.3514,0.1085202 0.66146,0.3617339 0.31006,0.2480461 0.55294,0.5736066 0.23771,0.3255604 0.38757,0.6924619 0.15503,0.3617339 0.18603,0.6872944 0.0103,0.124023 0,0.2842195 -0.0103,0.1601964 -0.0465,0.3203928 -0.031,0.1550288 -0.0827,0.2790519 -0.0465,0.124023 -0.11369,0.1756993 -0.1757,0.1395259 -0.43924,0.2377108 -0.26355,0.098185 -0.55811,0.1601965 -0.29972,0.062011 -0.60461,0.08785 -0.30489,0.031006 -0.56844,0.031006 -0.062,0 -0.15503,-0.010335 -0.0879,-0.00517 -0.1757,-0.031006 -0.0879,-0.031006 -0.15503,-0.082682 -0.062,-0.051676 -0.0672,-0.1343583 0,-0.041341 0,-0.1601964 0.005,-0.1188554 0.0155,-0.2480461 0.0103,-0.1291907 0.0258,-0.2273756 0.0155,-0.1033525 0.0413,-0.1033525 0.0155,0 0.0258,0.02067 0.0155,0.02067 0.031,0.036173 0.0879,0.062012 0.21187,0.093017 0.12403,0.031006 0.25838,0.041341 0.13953,0.00517 0.27389,0 0.13952,-0.010335 0.24288,-0.015503 0.18086,-0.010335 0.37723,-0.036173 0.19637,-0.031006 0.37724,-0.072347 0.18604,-0.041341 0.3514,-0.093017 0.16536,-0.056844 0.28422,-0.1188554 0.0517,-0.025838 0.0982,-0.062012 0.0465,-0.041341 0.0568,-0.072347 -0.0465,-0.2738843 -0.21704,-0.5736066 -0.16537,-0.2997224 -0.40308,-0.5632713 -0.24288,-0.2583814 -0.53226,-0.4495836 -0.28422,-0.1963698 -0.57361,-0.2532137 z m -4.8214,-3.6121711 q 0.0827,0.00517 0.0775,0.1912022 -0.0103,0.1963698 0.005,0.387572 0.0155,0.1860346 0.0413,0.3772368 0.0517,0.4599187 0.12402,0.9508433 0.0723,0.4857569 0.14469,0.9818491 0.0672,0.4909245 0.13436,0.9818491 0.0672,0.4909245 0.11369,0.9560109 0.0207,0.180867 0.0258,0.4237454 0.0103,0.2428785 -0.005,0.4960922 -0.0103,0.2480461 -0.0568,0.4805893 -0.0413,0.2325432 -0.11886,0.387572 -0.0413,0.08785 -0.0982,0.1136878 -0.0465,0.00517 -0.0413,-0.041341 -0.031,-0.4495836 -0.0775,-0.9043347 -0.0413,-0.4599188 -0.10852,-0.9353405 -0.0672,-0.4909245 -0.13436,-0.9715138 -0.0672,-0.4805893 -0.12919,-0.9611786 -0.0672,-0.4805893 -0.13436,-0.9611786 -0.062,-0.4805893 -0.12402,-0.9663462 0.0155,-0.1188554 0.0465,-0.2428784 0.031,-0.1291907 0.0878,-0.263549 0.12402,-0.3358957 0.16536,-0.4082425 0.0465,-0.072347 0.062,-0.072347 z m -2.2014,-0.2893871 q 0.0258,-0.041341 0.0465,-0.041341 0.0207,-0.00517 0.0362,0.041341 0.0827,0.2480461 0.21704,0.5115951 0.13436,0.2583813 0.37207,0.4030748 -0.13953,0.2480461 -0.21704,0.3824044 -0.0723,0.1343583 -0.0568,0.2893871 l 0.47026,3.9532345 q 0,0.1395259 -0.031,0.2997224 -0.0258,0.1550288 -0.0775,0.3048899 -0.0465,0.1446936 -0.11369,0.2687166 -0.062,0.1188555 -0.12919,0.1860346 -0.14986,0.1395259 -0.37724,0.222208 -0.22737,0.077514 -0.47542,0.1136877 -0.24805,0.036173 -0.49092,0.046509 -0.23771,0.00517 -0.42375,0.00517 h -0.093 q -0.16536,0 -0.24804,-0.124023 -0.0827,-0.1291907 -0.0827,-0.2790519 0,-0.1498612 0.0827,-0.2790518 0.0827,-0.1291907 0.24804,-0.1291907 h 0.093 q 0.093,0 0.36173,-0.00517 0.26872,-0.00517 0.56328,-0.036173 0.29455,-0.031006 0.5426,-0.093017 0.24804,-0.062012 0.29972,-0.1705317 -0.14469,-1.0696987 -0.29456,-2.1393975 -0.14469,-1.0748663 -0.29455,-2.1497327 -0.031,-0.2170403 -0.0775,-0.4237454 -0.0465,-0.2118727 -0.17053,-0.4082425 -0.0362,-0.056844 -0.0465,-0.072347 -0.005,-0.020671 0.0258,-0.082682 0.0827,-0.1498612 0.17053,-0.2945547 0.0879,-0.1498612 0.17054,-0.2997224 z m -5.55003,5.441511 q 0.12919,-0.2325432 0.12402,-0.7079649 0,-0.4805893 -0.062,-1.0490282 -0.062,-0.5632713 -0.1602,-1.1368779 -0.093,-0.5787742 -0.15503,-0.997352 -0.0258,-0.1963698 -0.0775,-0.3927396 -0.0517,-0.1963698 -0.15503,-0.3669015 -0.0362,-0.062012 -0.0413,-0.082682 -0.005,-0.020671 0.0207,-0.072347 L 290.442,2.8045152 q 0.0517,-0.093017 0.0827,0 0.093,0.2532137 0.21187,0.4960922 0.11886,0.2428784 0.35657,0.387572 -0.1447,0.2480461 -0.22221,0.3772367 -0.0723,0.1291907 -0.0568,0.2945548 0.093,0.4134101 0.16019,0.8629936 0.0672,0.4495836 0.093,0.9095023 0.0258,0.4650865 0.005,0.9250052 -0.0207,0.4547512 -0.0982,0.8836642 0.29972,-0.2583813 0.65629,-0.5477684 0.35657,-0.2945548 0.72864,-0.4702541 0.27388,-0.1291906 0.59944,-0.124023 0.33073,0 0.62528,0.1033525 0.29456,0.098185 0.5116,0.2842195 0.21704,0.1860346 0.27388,0.4237454 -0.031,0.4392483 -0.22221,0.775144 -0.1912,0.3307281 -0.51676,0.5115951 0.31006,0.031006 0.66146,0.041341 0.35656,0.00517 0.65112,0.00517 h 0.093 q 0.16536,0 0.24804,0.1291907 0.0827,0.1291906 0.0827,0.2790518 0,0.1498612 -0.0827,0.2790519 -0.0827,0.124023 -0.24804,0.124023 h -0.093 q -0.31006,0 -0.81649,-0.00517 -0.50126,-0.010335 -1.05419,-0.025838 -0.55294,-0.010335 -1.0852,-0.031006 -0.53227,-0.02067 -0.90951,-0.041341 -0.42374,0.056844 -0.84232,0.082682 -0.41858,0.020671 -0.80615,0.020671 h -0.093 q -0.16019,0 -0.23771,-0.124023 -0.0827,-0.1291907 -0.0827,-0.2790519 0,-0.1498612 0.0827,-0.2790518 0.0775,-0.1291907 0.23771,-0.1291907 h 0.093 q 0.0827,0 0.20154,0 0.12402,-0.00517 0.21187,-0.00517 z m 3.24527,-0.1188554 q -0.1292,-0.1756993 -0.3204,-0.2997224 -0.1912,-0.124023 -0.40824,-0.1912022 -0.21704,-0.067179 -0.44442,-0.077514 -0.22737,-0.010335 -0.42891,0.041341 -0.25838,0.072347 -0.50126,0.206705 -0.23771,0.1291907 -0.48059,0.3100576 -0.23771,0.180867 -0.48575,0.4030749 -0.24288,0.2170403 -0.5116,0.4599188 0.41858,-0.020671 0.91467,-0.072347 0.49609,-0.056844 0.98702,-0.1550288 0.48575,-0.1033525 0.925,-0.2532137 0.44442,-0.1550288 0.75448,-0.3720692 z m -1.09038,-3.555327 q -0.11368,0.2273755 -0.25838,0.3410633 -0.15503,0.1188554 -0.3669,0.1240231 -0.17053,0.00517 -0.29972,-0.08785 -0.12402,-0.093017 -0.14469,-0.3255605 -0.0103,-0.1033525 0.0103,-0.2118727 0.0207,-0.1136878 0.062,-0.2118727 0.0413,-0.093017 0.093,-0.1601964 0.0568,-0.072347 0.11886,-0.093017 0.062,-0.00517 0.0103,0.093017 -0.031,0.056844 -0.0517,0.1343583 -0.0155,0.077514 -0.0207,0.1550288 0,0.072347 0.0155,0.1240231 0.0155,0.051676 0.0672,0.098185 0.0775,0.056844 0.16536,0.056844 0.0879,-0.00517 0.17053,-0.041341 0.0879,-0.036173 0.15503,-0.082682 0.0723,-0.051676 0.14469,-0.1343583 0.0672,-0.077514 0.0982,-0.1963698 0.031,-0.1188554 0.0413,-0.1963698 0.005,-0.067179 0.0362,-0.1343583 0.031,-0.067179 0.10336,-0.067179 0.0155,0 0.0207,0.031006 0.0103,0.025838 0.0155,0.062012 0.005,0.036173 0.005,0.072347 0,0.031006 0,0.046509 0,0.1498612 0.0465,0.2377109 0.0465,0.082682 0.18603,0.1136878 0.0723,0.015503 0.18603,-0.015503 0.11886,-0.031006 0.20671,-0.1033526 0.0103,-0.010335 0.005,-0.056844 -0.005,-0.046509 -0.0207,-0.098185 -0.0103,-0.051676 -0.0362,-0.1085201 -0.0207,-0.062012 -0.0258,-0.072347 l 0.1912,-0.3617339 q 0.0517,0.025838 0.0775,0.1136878 0.031,0.08785 0.0362,0.2015375 0.0103,0.1085201 0,0.2222079 -0.0103,0.1136878 -0.0258,0.1912022 -0.062,0.1912022 -0.17053,0.346231 -0.10336,0.1550288 -0.3204,0.1963698 -0.1912,0.036173 -0.32039,-0.025838 -0.12919,-0.062012 -0.20671,-0.1756993 z m 0.93018,-2.077386 q -0.25838,0.1188554 -0.5426,0.2480461 -0.27906,0.1291907 -0.5426,0.2480461 -0.26355,0.1188554 -0.49093,0.2222079 -0.22737,0.1033526 -0.38757,0.1705317 -0.0362,0.015503 -0.0517,0 -0.0155,-0.015503 0,-0.046509 l 0.25322,-0.5064275 q 0.0258,-0.041341 0.0517,-0.056844 0.031,-0.02067 0.0568,-0.036173 l 1.88618,-0.8371556 q 0.0827,-0.036173 0.0517,0.041341 l -0.21188,0.4805893 q -0.0155,0.046509 -0.0723,0.072347 z m -7.30703,7.2966888 h -0.093 q -0.15503,0 -0.23255,-0.124023 -0.0775,-0.1291907 -0.0775,-0.2842195 0,-0.077514 0.0207,-0.1498612 0.0155,-0.072347 0.0568,-0.1291906 0.0362,-0.056844 0.0982,-0.093017 0.0568,-0.036173 0.13436,-0.036173 h 0.093 q 0.1602,0 0.35657,-0.010335 0.20154,-0.010335 0.37724,-0.056844 0.17053,-0.046509 0.33589,-0.1395259 0.16537,-0.098185 0.30489,-0.2687166 0.10335,-0.124023 0.16537,-0.2532137 0.0672,-0.1291907 0.12919,-0.2945547 0.0258,-0.067179 0.0827,-0.072347 0.062,-0.00517 0.0672,0.025838 0.005,0.062012 -0.0103,0.1498612 -0.0103,0.08785 -0.0103,0.1601964 0,0.1343583 0.0672,0.2687166 0.0672,0.1343583 0.2067,0.2428785 0.13953,0.1085202 0.38241,0.1808669 0.24804,0.067179 0.5581,0.067179 h 0.0982 q 0.0775,0 0.13436,0.036173 0.0568,0.036173 0.093,0.093017 0.0413,0.056844 0.0568,0.1291906 0.0207,0.072347 0.0207,0.1498612 0,0.1550288 -0.0775,0.2842195 -0.0724,0.124023 -0.22738,0.124023 h -0.0982 q -0.27905,0 -0.53227,-0.051676 -0.24804,-0.056844 -0.42374,-0.165364 -0.34106,-0.2067051 -0.53227,-0.60978 -0.11368,0.2325432 -0.26871,0.387572 -0.15503,0.1550288 -0.34107,0.2532137 -0.1912,0.098185 -0.43408,0.1446936 -0.24288,0.041341 -0.48059,0.041341 z m 1.4211,0.7234676 0.63562,0.527098 q 0.0413,0.03617 0.005,0.08268 l -0.42375,0.532266 q -0.0362,0.05168 -0.0827,0.01033 l -0.64079,-0.527098 q -0.0413,-0.03617 0,-0.08785 l 0.42892,-0.527098 q 0.0362,-0.04651 0.0775,-0.01033 z m -0.83199,-6.5473828 q 0,0.08785 0.0465,0.1395259 0.0517,0.046509 0.11886,0.072347 0.0672,0.025838 0.14469,0.031006 0.0827,0.00517 0.14469,0.00517 0.1447,0 0.26872,-0.062011 0.12919,-0.062012 0.23254,-0.1601965 0.0103,-0.093017 -0.0207,-0.1963698 -0.031,-0.1033525 -0.0982,-0.1860345 -0.0672,-0.082682 -0.16537,-0.1291907 -0.0982,-0.051676 -0.22737,-0.041341 -0.0775,0.020671 -0.15503,0.077514 -0.0775,0.051676 -0.14469,0.124023 -0.062,0.072347 -0.10336,0.1601964 -0.0413,0.082682 -0.0413,0.1653641 z m 1.20923,-0.1343583 q 0,0.1756993 -0.0465,0.3410634 -0.0465,0.165364 -0.14469,0.2945547 -0.0982,0.1291907 -0.25322,0.2067051 -0.14986,0.077514 -0.36173,0.077514 -0.26355,0 -0.44442,-0.1705317 -0.18086,-0.1705317 -0.1912,-0.4547512 0,-0.1446935 0.0413,-0.346231 0.0465,-0.206705 0.13953,-0.3979072 0.093,-0.1912022 0.23771,-0.3307281 0.14986,-0.1446936 0.35656,-0.1705317 0.19637,-0.020671 0.32556,0.077514 0.1292,0.098185 0.20671,0.2480461 0.0723,0.1550288 0.10335,0.3307281 0.031,0.1705317 0.031,0.2945547 z m -3.80338,-1.2195601 q 0.11369,0.9921844 0.18604,1.7931665 0.0775,0.7958145 0.18087,1.5554557 0.10335,0.7596411 0.19637,1.2609009 0.0982,0.5012598 0.16536,0.7803116 0.0672,0.2532138 0.15503,0.4392483 0.093,0.1860346 0.23771,0.30489 0.14469,0.1188554 0.35657,0.1756993 0.21704,0.056844 0.53226,0.056844 h 0.093 q 0.16536,0 0.24288,0.1291907 0.0827,0.124023 0.0827,0.2738842 0,0.1550288 -0.0827,0.2842195 -0.0775,0.124023 -0.24288,0.124023 h -0.093 q -0.25321,0 -0.50126,-0.041341 -0.24804,-0.046509 -0.46509,-0.1756993 -0.21704,-0.1291907 -0.39273,-0.3617339 -0.1757,-0.2377108 -0.28939,-0.6252828 -0.10852,-0.3979073 -0.18604,-0.8216527 -0.0723,-0.428913 -0.17053,-1.1265426 -0.0517,0.3617339 -0.16019,0.775144 -0.10852,0.4134101 -0.29456,0.8113174 -0.18603,0.4030749 -0.45992,0.7596411 -0.26871,0.3513987 -0.64595,0.5994447 -0.53227,0.3513987 -1.10071,0.5270976 -0.56843,0.180867 -1.19889,0.273884 -0.19637,0.02067 -0.24287,-0.04651 -0.0413,-0.06718 0.0723,-0.118856 0.43408,-0.1912017 0.83716,-0.4134096 0.40824,-0.2170403 0.78548,-0.4754217 0.37723,-0.2583813 0.72863,-0.5581037 0.3514,-0.2997223 0.68213,-0.6459533 -0.0775,-0.4547512 -0.33073,-0.9146699 -0.25321,-0.4650865 -0.60461,-0.8836642 -0.34623,-0.4134102 -0.75447,-0.7596412 -0.40308,-0.346231 -0.78032,-0.5736065 -0.0465,0.1188554 -0.0982,0.1446935 -0.0517,0.025838 -0.13436,0.031006 -0.11885,0 -0.31006,-0.062012 -0.18603,-0.067179 -0.3669,-0.1705317 -0.18086,-0.1085202 -0.31006,-0.2532137 -0.12919,-0.1446936 -0.12919,-0.30489 0,-0.046509 0.005,-0.1498612 0.0103,-0.1033525 0.0258,-0.2377108 0.0207,-0.1343583 0.0465,-0.2738843 0.0258,-0.1446935 0.0568,-0.2635489 0.0362,-0.1240231 0.0775,-0.1446936 0.0465,-0.025838 0.16536,0.036173 0.29456,0.1498612 0.60461,0.3565663 0.31523,0.206705 0.62012,0.4599188 0.31006,0.248046 0.60978,0.5374331 0.29972,0.2842195 0.56327,0.5942771 0.26872,0.3100576 0.49092,0.6407857 0.22738,0.3255605 0.39274,0.6562886 0.16537,0.3307282 0.25838,0.6614563 0.093,0.3255605 0.0982,0.6356181 0.28422,-0.4082426 0.41341,-1.1317103 0.13436,-0.7234678 0.10335,-1.7001492 -0.0103,-0.4185778 -0.0568,-0.8319879 -0.0413,-0.4185778 -0.0827,-0.8216527 -0.0103,-0.098185 0.0207,-0.2118727 0.0362,-0.1136878 0.0879,-0.2273756 0.0568,-0.1136877 0.11885,-0.2170403 0.0672,-0.1033525 0.11886,-0.1756993 0.0207,-0.031006 0.0465,-0.00517 0.0258,0.025838 0.0258,0.046509 z m 0.66146,-1.2143921 q -0.25838,0.1188554 -0.5426,0.2480461 -0.27905,0.1291906 -0.5426,0.248046 -0.26355,0.1188555 -0.49093,0.222208 -0.22737,0.1033525 -0.38757,0.1705317 -0.0362,0.015503 -0.0517,0 -0.0155,-0.015503 0,-0.046509 l 0.25321,-0.5064274 q 0.0258,-0.041341 0.0517,-0.056844 0.031,-0.020671 0.0568,-0.036173 l 1.88618,-0.83715551 q 0.0827,-0.0361734 0.0517,0.041341 l -0.21187,0.48058931 q -0.0155,0.046509 -0.0723,0.072347 z m -7.68426,6.5422153 q -0.0775,0.00517 -0.13953,0.062011 -0.062,0.051676 -0.10852,0.1240231 -0.0413,0.067179 -0.0672,0.1395259 -0.0207,0.072347 -0.0207,0.1085202 0.0672,0.1085201 0.18604,0.1498612 0.11885,0.036173 0.23771,0.036173 0.13436,-0.010335 0.24288,-0.062011 0.11369,-0.056844 0.15503,-0.1085201 0,-0.067179 -0.0517,-0.1446936 -0.0465,-0.082682 -0.12402,-0.1498612 -0.0723,-0.067179 -0.1602,-0.1085201 -0.0827,-0.046509 -0.14986,-0.046509 z m 0.67179,0.9095023 q -0.0724,0.2170404 -0.26355,0.3669015 -0.1912,0.1498612 -0.47025,0.1498612 -0.13953,0 -0.26872,-0.072347 -0.12402,-0.072347 -0.21704,-0.1860345 -0.093,-0.1188554 -0.14469,-0.2687166 -0.0465,-0.1498612 -0.031,-0.30489 0.0103,-0.1085202 0.0465,-0.2532137 0.0362,-0.1446936 0.093,-0.2945547 0.0568,-0.1498612 0.12919,-0.2997224 0.0775,-0.1498612 0.17053,-0.263549 0.093,-0.1136877 0.19637,-0.1860345 0.10335,-0.072347 0.21704,-0.072347 0.20154,0 0.37724,0.1601964 0.1757,0.1601965 0.30489,0.4082426 0.12919,0.2428784 0.20153,0.5426008 0.0724,0.2945547 0.0672,0.5736065 -0.005,0.3720692 -0.0982,0.7751441 -0.0879,0.3979072 -0.23771,0.78548 -0.14986,0.387572 -0.34623,0.728635 -0.19121,0.346231 -0.40825,0.583942 -0.32039,0.351398 -0.68212,0.537433 -0.35657,0.191202 -0.74931,0.248046 -0.39274,0.05684 -0.82165,0 -0.42375,-0.05684 -0.8785,-0.19637 -0.0413,-0.0155 -0.0517,-0.05168 -0.0155,-0.03617 0.005,-0.07751 0.0155,-0.03617 0.062,-0.06718 0.0413,-0.02584 0.11368,-0.02067 0.43408,0.03617 0.78548,-0.0155 0.35657,-0.05168 0.66146,-0.180867 0.31006,-0.124023 0.59428,-0.320393 0.28422,-0.19637 0.58394,-0.459919 0.20154,-0.175699 0.38757,-0.408242 0.1912,-0.232543 0.34106,-0.480589 0.15503,-0.2532144 0.25838,-0.5064281 0.10336,-0.2532137 0.1447,-0.4702541 0.005,-0.046509 0,-0.1033525 -0.005,-0.062012 -0.0155,-0.1188554 -0.0103,-0.056844 -0.0258,-0.1033526 -0.0155,-0.051676 -0.031,-0.077514 z m -0.65112,4.8885747 q -0.50643,0.160197 -0.99735,0.325561 -0.49093,0.165364 -0.94051,0.310057 -0.0827,0.02584 -0.0413,-0.05168 l 0.21187,-0.392739 q 0.0155,-0.03101 0.0258,-0.04651 0.0155,-0.0155 0.0465,-0.02584 0.13952,-0.05168 0.3669,-0.129191 0.22738,-0.07235 0.49092,-0.160196 0.26872,-0.08268 0.54777,-0.170532 0.27905,-0.08785 0.53227,-0.165364 0.0413,-0.0155 0.0517,-0.01033 0.0103,0.01033 -0.0103,0.05168 l -0.22221,0.403075 q -0.0155,0.02067 -0.031,0.03617 -0.0103,0.02067 -0.031,0.02584 z M 273.921,9.899667 q -0.3514,0.294555 -0.74414,0.542601 -0.39274,0.248046 -0.81648,0.428913 -0.42375,0.180867 -0.8785,0.279052 -0.45475,0.103352 -0.925,0.103352 -0.47543,0 -0.89917,-0.134358 -0.41858,-0.129191 -0.7338,-0.387572 -0.31006,-0.253214 -0.50126,-0.635618 -0.18604,-0.377237 -0.19121,-0.8733291 -0.0155,-0.5477685 0.15503,-1.0645312 0.1757,-0.5167626 0.50126,-0.9663462 0.031,-0.041341 0.0517,-0.036173 0.0207,0 0.0362,0.025838 0.0155,0.020671 0.0207,0.051676 0.005,0.025838 0.005,0.041341 -0.10335,0.2118727 -0.20154,0.4444159 -0.093,0.2325432 -0.15503,0.4754216 -0.062,0.2428785 -0.0723,0.4960922 -0.005,0.2532137 0.0827,0.5064274 0.093,0.2997224 0.25838,0.5219303 0.17053,0.222208 0.39274,0.3720691 0.22221,0.155029 0.48576,0.237711 0.26871,0.08268 0.56327,0.10852 0.42374,0.03617 0.8785,-0.02584 0.45475,-0.05684 0.90433,-0.191202 0.44958,-0.139526 0.86299,-0.3410636 0.41858,-0.2015375 0.76481,-0.4495836 0.0879,-0.062012 0.093,-0.1033525 0.005,-0.046509 -0.0362,-0.077514 -0.0362,-0.036173 -0.10336,-0.056844 -0.062,-0.020671 -0.10852,-0.036173 -0.14986,-0.041341 -0.32556,-0.067179 -0.1757,-0.031006 -0.36173,-0.056844 -0.18087,-0.025838 -0.36173,-0.051676 -0.1757,-0.031006 -0.32556,-0.067179 -0.17054,-0.041341 -0.32557,-0.124023 -0.14986,-0.082682 -0.26354,-0.1963698 -0.11369,-0.1188554 -0.18604,-0.2687166 -0.0672,-0.1498612 -0.0723,-0.3203929 -0.0103,-0.2428784 0.0465,-0.4857569 0.062,-0.2428784 0.1757,-0.470254 0.11369,-0.2325432 0.26355,-0.4444159 0.15503,-0.2170403 0.33073,-0.4082425 0.18087,-0.2015375 0.38757,-0.3772368 0.20671,-0.1756993 0.41858,-0.2945547 0.21704,-0.1188554 0.43408,-0.1653641 0.21704,-0.051676 0.41858,-0.00517 0.21704,0.056844 0.34623,0.2067051 0.12919,0.1498611 0.1757,0.3410633 0.0517,0.1912022 0.0258,0.3979073 -0.0258,0.2067051 -0.11369,0.3720691 -0.0155,0.020671 -0.0465,0.015503 -0.0258,-0.00517 -0.0362,-0.036173 -0.031,-0.077514 -0.0982,-0.1756993 -0.0672,-0.098185 -0.1602,-0.1860346 -0.093,-0.08785 -0.2067,-0.1446935 -0.10852,-0.062011 -0.23254,-0.062011 -0.24805,0 -0.51677,0.1291906 -0.26355,0.1291907 -0.50642,0.3307282 -0.24288,0.2015374 -0.43408,0.4444159 -0.18604,0.2428784 -0.27906,0.470254 -0.093,0.1808669 -0.0465,0.30489 0.0517,0.1188554 0.1912,0.2170403 0.13952,0.1033525 0.32556,0.1705317 0.1912,0.067179 0.39274,0.1136878 0.20154,0.046509 0.40307,0.077514 0.20154,0.025838 0.37207,0.051676 0.12402,0.02067 0.26355,0.051676 0.14469,0.031006 0.26872,0.08785 0.12402,0.051676 0.21187,0.1395259 0.0879,0.082682 0.10335,0.2118727 0.0155,0.1136878 -0.005,0.263549 -0.0207,0.1446935 -0.0723,0.2893871 -0.0465,0.1446935 -0.11886,0.2738842 -0.0672,0.124023 -0.14986,0.1912022 z"
         id="text31"
         style="font-size:10.5833px;line-height:1.25;font-family:'KFGQPC Uthmanic Script HAFS';-inkscape-font-specification:'KFGQPC Uthmanic Script HAFS';direction:rtl;stroke-width:0.264583"
         aria-label="   " />
    </g>
  </g>
</svg>
