<?xml version="1.0" encoding="UTF-8" standalone="no"?>
<!-- Created with Inkscape (http://www.inkscape.org/) -->

<svg
   width="9.8299999mm"
   height="14.2mm"
   viewBox="0 0 9.8300004 14.2"
   version="1.1"
   id="svg1"
   xmlns="http://www.w3.org/2000/svg"
   xmlns:svg="http://www.w3.org/2000/svg">
  <defs
     id="defs1" />
  <g
     id="layer1"
     transform="translate(-188.40877,-8.1394641)">
    <g
       id="g6"
       transform="translate(39.356821,-12.349386)">
      <g
         id="g43">
        <path
           id="path6"
           style="font-size:10.5833px;line-height:1.25;font-family:'KFGQPC Uthmanic Script HAFS';-inkscape-font-specification:'KFGQPC Uthmanic Script HAFS';stroke-width:0.264583"
           d="m 158.69854,22.148697 c -0.0138,-0.01033 -0.0345,-4e-6 -0.062,0.03101 -0.093,0.09301 -0.19292,0.172252 -0.29972,0.237712 -0.10335,0.06201 -0.2136,0.113689 -0.33073,0.155029 -0.11024,0.04134 -0.22565,0.07235 -0.34623,0.09302 -0.12057,0.01722 -0.2446,0.02927 -0.37207,0.03617 -0.19637,0.0069 -0.39619,-0.01551 -0.59945,-0.06718 -0.19981,-0.05168 -0.38757,-0.120576 -0.56327,-0.206706 -0.062,-0.03099 -0.10509,-0.02928 -0.12919,0.0052 -0.0207,0.04479 -0.0482,0.106796 -0.0827,0.186036 -0.031,0.07579 -0.062,0.158477 -0.093,0.248047 -0.0275,0.08613 -0.0534,0.170534 -0.0775,0.253214 -0.0241,0.08268 -0.0395,0.146413 -0.0465,0.191203 -0.007,0.03445 -0.0137,0.07579 -0.0207,0.124023 -0.003,0.04479 0.009,0.06718 0.0362,0.06718 0.0172,0 0.0413,-0.0155 0.0723,-0.04651 0.031,-0.03445 0.062,-0.07235 0.093,-0.113688 0.0345,-0.04479 0.0655,-0.0913 0.093,-0.139527 0.0276,-0.04823 0.0447,-0.08441 0.0517,-0.10852 0.003,-0.03103 0.0275,-0.03273 0.0723,-0.0052 0.12747,0.08268 0.28077,0.148141 0.45992,0.196371 0.18259,0.04823 0.37035,0.06891 0.56328,0.06201 0.13781,-0.01033 0.27561,-0.02928 0.41341,-0.05684 0.13781,-0.031 0.27044,-0.07752 0.39791,-0.139526 0.12747,-0.06546 0.24804,-0.146419 0.36173,-0.242879 0.11369,-0.09991 0.21706,-0.22221 0.31006,-0.366903 0.0172,-0.03101 0.0327,-0.06546 0.0465,-0.103353 0.0172,-0.04134 0.0327,-0.08268 0.0465,-0.124023 0.0137,-0.04134 0.0207,-0.07579 0.0207,-0.103353 0.004,-0.03101 -0.002,-0.05168 -0.0155,-0.06201 z m -1.7725,1.79834 c -0.0103,0 -0.031,0.02412 -0.062,0.07235 -0.0276,0.04823 -0.0827,0.184313 -0.16536,0.408244 -0.0379,0.08957 -0.0677,0.17742 -0.0884,0.26355 -0.0207,0.08268 -0.0357,0.163639 -0.046,0.242879 0.0413,0.323837 0.0822,0.645956 0.1235,0.966349 0.0448,0.320393 0.0896,0.640789 0.13436,0.961182 0.0413,0.320392 0.0844,0.640789 0.12919,0.961181 0.0448,0.320393 0.0896,0.644235 0.13436,0.971517 0.0448,0.316948 0.081,0.628731 0.10852,0.935344 0.031,0.303166 0.0568,0.604616 0.0775,0.904337 -0.004,0.03103 0.0103,0.04484 0.0413,0.04134 0.0379,-0.01723 0.0707,-0.05512 0.0982,-0.113688 0.0517,-0.103353 0.0914,-0.232544 0.11886,-0.387573 0.0311,-0.155029 0.0504,-0.315227 0.0574,-0.480591 0.01,-0.168809 0.0117,-0.334175 0.005,-0.496094 -0.003,-0.161918 -0.012,-0.303168 -0.0258,-0.423746 -0.031,-0.310058 -0.0689,-0.628732 -0.11368,-0.956014 -0.0448,-0.327283 -0.0896,-0.65457 -0.13436,-0.981852 -0.0483,-0.330729 -0.0965,-0.658016 -0.1447,-0.981853 -0.0482,-0.327282 -0.0895,-0.644233 -0.12402,-0.950846 -0.0172,-0.127468 -0.031,-0.253215 -0.0413,-0.377238 -0.01,-0.127468 -0.0117,-0.25666 -0.005,-0.387573 0.004,-0.124002 -0.0224,-0.187703 -0.0775,-0.191203 z m -2.01796,0.467672 c -0.009,-0.0069 -0.0267,-0.0043 -0.0543,0.0078 l -1.88619,0.837158 c -0.0172,0.01033 -0.0362,0.02239 -0.0569,0.03617 -0.0173,0.01033 -0.0345,0.02928 -0.0517,0.05684 l -0.25322,0.506429 c -0.0103,0.02067 -0.0103,0.03618 0,0.04651 0.0103,0.01033 0.0276,0.01033 0.0517,0 0.10679,-0.04479 0.23598,-0.101633 0.38757,-0.170532 0.15159,-0.0689 0.31524,-0.142969 0.49093,-0.222209 0.1757,-0.07924 0.35656,-0.161917 0.5426,-0.248047 0.18948,-0.08613 0.37035,-0.168807 0.5426,-0.248047 0.0379,-0.01723 0.062,-0.04134 0.0724,-0.07235 l 0.21187,-0.480591 c 0.0104,-0.02584 0.0112,-0.0422 0.003,-0.04909 z m -3.61477,0.245463 c -0.0207,-0.01723 -0.0413,-0.01206 -0.062,0.0155 l -0.42375,0.542602 -0.62011,-0.470255 c -0.0138,-0.01377 -0.0259,-0.02067 -0.0362,-0.02067 -0.0103,0 -0.0224,0.01034 -0.0362,0.03101 l -0.41858,0.594279 c -0.0173,0.02411 -0.0138,0.04478 0.0103,0.06201 l 0.65629,0.506429 c 0.0275,0.02067 0.0534,0.01551 0.0775,-0.0155 l 0.40308,-0.552938 0.61495,0.480591 c 0.0275,0.02067 0.0465,0.03101 0.0568,0.03101 0.0103,-0.0034 0.0241,-0.0155 0.0413,-0.03617 l 0.39274,-0.54777 c 0.0241,-0.03101 0.0241,-0.05512 0,-0.07235 z m -0.29455,1.793172 c -0.0241,-0.0069 -0.043,0.0052 -0.0568,0.03617 h -5.1e-4 l -0.0465,0.124024 c -0.0207,0.05512 -0.0408,0.11369 -0.0615,0.1757 -0.0172,0.05857 -0.0327,0.115412 -0.0465,0.170532 -0.0133,0.05512 -0.0173,0.09646 -0.0103,0.124023 0.0138,0.06201 0.0259,0.129189 0.0362,0.201538 0.0138,0.0689 0.024,0.124025 0.031,0.165365 -0.14469,0.05857 -0.27906,0.118858 -0.40308,0.180868 -0.12058,0.06201 -0.23255,0.130915 -0.3359,0.206705 -0.20671,0.144694 -0.38068,0.318672 -0.52193,0.521932 -0.0896,0.134358 -0.17225,0.285944 -0.24805,0.454753 -0.0724,0.165364 -0.12236,0.346233 -0.14986,0.542602 -0.0103,0.124023 0.0293,0.220488 0.11886,0.289388 0.093,0.0689 0.19637,0.110244 0.31006,0.124024 0.12057,0.01374 0.25149,0.01723 0.39274,0.01034 0.14125,-0.01033 0.27389,-0.03789 0.39791,-0.08268 0.12058,-0.04479 0.24115,-0.115414 0.36173,-0.211874 0.12057,-0.09646 0.24633,-0.229099 0.37724,-0.397908 0.0655,0.192925 0.1292,0.38413 0.1912,0.573608 0.062,0.18948 0.15848,0.363458 0.28939,0.521932 0.12403,0.151583 0.2825,0.277328 0.47542,0.377238 0.15473,0.07736 0.34629,0.112104 0.55863,0.12299 0.0177,0.0027 0.0318,0.01137 0.0512,0.01137 h 0.093 c 0.002,0 0.005,2e-6 0.007,0 10e-4,-2.6e-5 0.002,2.7e-5 0.003,0 h 0.093 c 0.007,0 0.0114,-0.0033 0.0181,-0.0036 0.11727,-0.0019 0.23465,-0.0041 0.36949,-0.01189 0.18259,-0.01378 0.36173,-0.03962 0.53743,-0.07751 0.1757,-0.0379 0.33591,-0.09474 0.4806,-0.170532 0.14814,-0.07579 0.26353,-0.1757 0.34623,-0.299723 0.031,-0.04823 0.0568,-0.105072 0.0775,-0.170532 0.0241,-0.0689 0.043,-0.139524 0.0568,-0.211874 0.0138,-0.07579 0.024,-0.149858 0.031,-0.222208 0.007,-0.07235 0.0103,-0.137801 0.0103,-0.196371 0,-0.134358 -0.0172,-0.266995 -0.0517,-0.397908 -0.0345,-0.130913 -0.0827,-0.258383 -0.14469,-0.382406 -0.062,-0.124023 -0.13434,-0.242879 -0.21704,-0.356567 -0.0792,-0.113687 -0.16705,-0.218767 -0.26355,-0.315227 -0.0275,-0.03101 -0.0534,-0.04651 -0.0775,-0.04651 -0.0241,0 -0.0414,0.01895 -0.0517,0.05684 l -0.17053,0.72347 c 0.0654,0.06545 0.12744,0.13091 0.18604,0.19637 0.0586,0.06546 0.11543,0.134356 0.17053,0.206706 0.0517,0.0689 0.0982,0.141251 0.13953,0.217041 0.0448,0.07579 0.0844,0.158477 0.11885,0.248047 0.0167,0.04823 0.0237,0.08785 0.0207,0.118856 0,0.03101 -0.0189,0.05684 -0.0568,0.07751 -0.0689,0.04479 -0.16192,0.08096 -0.27905,0.108521 -0.11713,0.02411 -0.24977,0.04306 -0.39791,0.05684 -0.14469,0.01378 -0.29973,0.02411 -0.46509,0.03101 -0.16192,0.0035 -0.32556,0.0052 -0.49093,0.0052 h -0.0543 c -0.10861,-0.0029 -0.21675,-0.0086 -0.32297,-0.02584 -0.12402,-0.02411 -0.23944,-0.06718 -0.34624,-0.129191 -0.10679,-0.06201 -0.20495,-0.146417 -0.29455,-0.253214 -0.0861,-0.110243 -0.15678,-0.251493 -0.21188,-0.423747 -0.0345,-0.113688 -0.0775,-0.277332 -0.12919,-0.490926 -0.0482,-0.21704 -0.0982,-0.451309 -0.14986,-0.7028 -0.0482,-0.248046 -0.0947,-0.494372 -0.13952,-0.738973 -0.0448,-0.244601 -0.081,-0.453031 -0.10853,-0.625285 -0.004,-0.02065 -0.019,-0.03267 -0.0465,-0.03617 z m -0.0775,1.529622 c 0.0172,0.08268 0.031,0.155031 0.0413,0.217041 0.0138,0.05857 0.0259,0.113695 0.0362,0.165365 0.0138,0.05512 0.0259,0.108517 0.0362,0.160197 0.0137,0.05168 0.0275,0.111967 0.0413,0.180867 -0.0482,0.04134 -0.12919,0.08613 -0.24288,0.134359 -0.11369,0.04824 -0.23772,0.08785 -0.37207,0.118856 -0.13781,0.03445 -0.27561,0.05168 -0.41341,0.05168 -0.13436,0 -0.24973,-0.02928 -0.34623,-0.08785 -0.0345,-0.01722 -0.0293,-0.06029 0.0155,-0.129191 0.0758,-0.103353 0.15678,-0.196373 0.24288,-0.279052 0.0896,-0.08613 0.18604,-0.163644 0.28939,-0.232544 0.0999,-0.06546 0.2067,-0.122303 0.32039,-0.170533 0.11369,-0.04823 0.23082,-0.0913 0.3514,-0.129191 z m 0.8113,3.513998 c -0.004,-0.0069 -0.0207,-0.0052 -0.0517,0.0052 -0.17569,0.05857 -0.36,0.11713 -0.55293,0.1757 -0.18948,0.06201 -0.37207,0.12058 -0.54777,0.1757 -0.1757,0.05512 -0.33763,0.106799 -0.48576,0.155029 -0.14469,0.04823 -0.2618,0.08785 -0.3514,0.118856 -0.0172,0.0069 -0.031,0.01551 -0.0413,0.02584 -0.0103,0.01378 -0.0207,0.02928 -0.031,0.04651 l -0.21187,0.392741 c -0.0241,0.04828 -0.0104,0.06546 0.0413,0.05168 0.32384,-0.103353 0.64423,-0.210151 0.96118,-0.320394 0.32039,-0.106797 0.64252,-0.211874 0.96635,-0.315227 0.0173,-0.0035 0.0292,-0.01034 0.0362,-0.02067 0.0103,-0.0069 0.0207,-0.01723 0.031,-0.03101 l 0.22738,-0.413412 c 0.0102,-0.02067 0.0133,-0.03618 0.0103,-0.04651 z m 2.68718,0.05684 c -0.0207,-0.01723 -0.0413,-0.01206 -0.062,0.0155 l -0.42374,0.542602 -0.62012,-0.470255 c -0.0138,-0.01377 -0.0259,-0.02067 -0.0362,-0.02067 -0.0103,0 -0.0224,0.01034 -0.0362,0.03101 l -0.41858,0.594279 c -0.0173,0.02411 -0.0138,0.04478 0.0103,0.06201 l 0.65629,0.506429 c 0.0275,0.02067 0.0534,0.01551 0.0775,-0.0155 l 0.40308,-0.552938 0.61495,0.480591 c 0.0275,0.02074 0.0465,0.02934 0.0568,0.02584 0.0103,0 0.0241,-0.01034 0.0413,-0.03101 l 0.39274,-0.54777 c 0.0241,-0.03101 0.0241,-0.05512 0,-0.07235 z m -2.79053,0.89917 c -0.004,-0.0069 -0.0207,-0.0052 -0.0517,0.0052 -0.17569,0.05857 -0.36001,0.11713 -0.55294,0.1757 -0.18948,0.06201 -0.37207,0.12058 -0.54777,0.1757 -0.1757,0.05512 -0.33761,0.105072 -0.48575,0.149862 -0.14469,0.04823 -0.2618,0.08957 -0.3514,0.124023 -0.0172,0.0069 -0.031,0.01551 -0.0413,0.02584 -0.0103,0.01378 -0.0207,0.02928 -0.031,0.04651 l -0.21187,0.392741 c -0.0241,0.04828 -0.0104,0.06546 0.0413,0.05168 0.32383,-0.103353 0.64423,-0.210151 0.96118,-0.320394 0.32039,-0.110243 0.64251,-0.215317 0.96635,-0.315227 0.0173,-0.0035 0.0292,-0.01034 0.0362,-0.02067 0.0103,-0.0069 0.0207,-0.01723 0.031,-0.03101 l 0.22737,-0.413412 c 0.0102,-0.02067 0.0133,-0.03618 0.0103,-0.04651 z" />
      </g>
    </g>
  </g>
</svg>
