<?xml version="1.0" encoding="UTF-8" standalone="no"?>
<!-- Created with Inkscape (http://www.inkscape.org/) -->

<svg
   width="16.300575mm"
   height="14.198843mm"
   viewBox="0 0 16.300576 14.198843"
   version="1.1"
   id="svg1"
   xmlns="http://www.w3.org/2000/svg"
   xmlns:svg="http://www.w3.org/2000/svg">
  <defs
     id="defs1" />
  <g
     id="layer1"
     transform="translate(-181.94242,-8.1394641)">
    <g
       id="g6"
       transform="translate(50.978167,-12.349386)">
      <g
         id="g42">
        <path
           id="path5"
           style="font-size:10.5833px;line-height:1.25;font-family:'KFGQPC Uthmanic Script HAFS';-inkscape-font-specification:'KFGQPC Uthmanic Script HAFS';stroke-width:0.264583"
           d="m 147.11269,22.148697 c -0.0138,-0.01033 -0.0345,-4e-6 -0.062,0.03101 -0.093,0.09301 -0.19293,0.172252 -0.29973,0.237712 -0.10335,0.06201 -0.2136,0.113689 -0.33073,0.155029 -0.11024,0.04134 -0.22565,0.07235 -0.34623,0.09302 -0.12058,0.01722 -0.2446,0.02927 -0.37207,0.03617 -0.19637,0.0069 -0.39619,-0.01551 -0.59944,-0.06718 -0.19981,-0.05168 -0.38758,-0.120576 -0.56328,-0.206706 -0.062,-0.03099 -0.10509,-0.02928 -0.12919,0.0052 -0.0207,0.04479 -0.0482,0.106796 -0.0827,0.186036 -0.031,0.07579 -0.062,0.158477 -0.093,0.248047 -0.0275,0.08613 -0.0534,0.170534 -0.0775,0.253214 -0.0241,0.08268 -0.0395,0.146413 -0.0465,0.191203 -0.007,0.03445 -0.0137,0.07579 -0.0207,0.124023 -0.004,0.04479 0.009,0.06718 0.0362,0.06718 0.0172,0 0.0413,-0.0155 0.0724,-0.04651 0.031,-0.03445 0.062,-0.07235 0.093,-0.113688 0.0345,-0.04479 0.0655,-0.0913 0.093,-0.139527 0.0276,-0.04823 0.0447,-0.08441 0.0517,-0.10852 0.004,-0.03103 0.0276,-0.03273 0.0724,-0.0052 0.12747,0.08268 0.28077,0.148141 0.45992,0.196371 0.18259,0.04823 0.37034,0.06891 0.56327,0.06201 0.13781,-0.01033 0.27561,-0.02928 0.41341,-0.05684 0.13781,-0.031 0.27044,-0.07752 0.39791,-0.139526 0.12747,-0.06546 0.24804,-0.146419 0.36173,-0.242879 0.11369,-0.09991 0.21706,-0.22221 0.31006,-0.366903 0.0172,-0.03101 0.0327,-0.06546 0.0465,-0.103353 0.0172,-0.04134 0.0327,-0.08268 0.0465,-0.124023 0.0137,-0.04134 0.0207,-0.07579 0.0207,-0.103353 0.004,-0.03101 -0.002,-0.05168 -0.0155,-0.06201 z m -1.7725,1.79834 c -0.0103,0 -0.031,0.02412 -0.062,0.07235 -0.0276,0.04823 -0.0827,0.184313 -0.16537,0.408244 -0.0379,0.08957 -0.0671,0.17742 -0.0879,0.26355 -0.0207,0.08268 -0.0362,0.163639 -0.0465,0.242879 0.0413,0.323837 0.0827,0.645956 0.12403,0.966349 0.0448,0.320393 0.0895,0.640789 0.13435,0.961182 0.0413,0.320392 0.0844,0.640789 0.12919,0.961181 0.0448,0.320393 0.0896,0.644235 0.13436,0.971517 0.0448,0.316948 0.081,0.628731 0.10852,0.935344 0.031,0.303166 0.0568,0.604616 0.0775,0.904337 -0.004,0.03103 0.0103,0.04484 0.0413,0.04134 0.0379,-0.01723 0.0707,-0.05512 0.0982,-0.113688 0.0517,-0.103353 0.0914,-0.232544 0.11885,-0.387573 0.031,-0.155029 0.0499,-0.315227 0.0569,-0.480591 0.01,-0.168809 0.0116,-0.334175 0.005,-0.496094 -0.003,-0.161918 -0.012,-0.303168 -0.0258,-0.423746 -0.031,-0.310058 -0.0689,-0.628732 -0.11369,-0.956014 -0.0448,-0.327283 -0.0896,-0.65457 -0.13436,-0.981852 -0.0482,-0.330729 -0.0964,-0.658016 -0.14469,-0.981853 -0.0482,-0.327282 -0.0895,-0.644233 -0.12403,-0.950846 -0.0172,-0.127468 -0.031,-0.253215 -0.0413,-0.377238 -0.01,-0.127468 -0.0117,-0.25666 -0.005,-0.387573 0.004,-0.124002 -0.0224,-0.187703 -0.0775,-0.191203 z m -5.98465,0.0155 c -0.0172,0 -0.031,0.01206 -0.0413,0.03617 l -0.26872,0.676962 c -0.007,0.02067 -0.008,0.0379 -0.005,0.05168 0.004,0.01378 0.008,0.03445 0.0155,0.06201 0.10333,0.365178 0.17741,0.706245 0.22221,1.023193 0.0482,0.313503 0.0895,0.625287 0.12402,0.935344 0.0344,0.299722 0.0689,0.599448 0.10336,0.89917 0.0345,0.299722 0.0672,0.599448 0.0982,0.899169 0.0276,0.261827 0.0621,0.525379 0.10336,0.79065 0.0448,0.261827 0.13608,0.50643 0.27388,0.733805 0.11713,0.189479 0.27389,0.341065 0.47026,0.454753 0.15924,0.09061 0.36347,0.134565 0.59272,0.152962 0.026,0.0065 0.049,0.01757 0.0791,0.01757 h 0.093 0.0362 0.0362 c 0.005,0 0.007,-0.0024 0.0119,-0.0026 0.12713,-0.0015 0.25828,-0.0044 0.40669,-0.01292 0.18259,-0.01378 0.36174,-0.03962 0.53744,-0.07751 0.1757,-0.0379 0.3359,-0.09474 0.48059,-0.170532 0.14814,-0.07579 0.26353,-0.1757 0.34623,-0.299723 0.031,-0.04823 0.0568,-0.105072 0.0775,-0.170532 0.0241,-0.0689 0.043,-0.139524 0.0568,-0.211874 0.0138,-0.07579 0.024,-0.149858 0.031,-0.222208 0.007,-0.07235 0.0103,-0.137801 0.0103,-0.196371 0,-0.134358 -0.0172,-0.266995 -0.0517,-0.397908 -0.0345,-0.130913 -0.0827,-0.258383 -0.14469,-0.382406 -0.062,-0.124023 -0.13434,-0.242879 -0.21704,-0.356567 -0.0792,-0.113687 -0.16705,-0.218767 -0.26355,-0.315227 -0.0275,-0.03101 -0.0534,-0.04651 -0.0775,-0.04651 -0.0241,0 -0.0414,0.01895 -0.0517,0.05684 l -0.17053,0.72347 c 0.0654,0.06545 0.12743,0.13091 0.18603,0.19637 0.0585,0.06546 0.11543,0.134356 0.17053,0.206706 0.0517,0.0689 0.0982,0.141251 0.13953,0.217041 0.0448,0.07579 0.0844,0.158477 0.11886,0.248047 0.0167,0.04823 0.0237,0.08785 0.0207,0.118856 0,0.03101 -0.0189,0.05684 -0.0568,0.07751 -0.0689,0.04479 -0.16192,0.08096 -0.27905,0.108521 -0.11713,0.02411 -0.24977,0.04306 -0.39791,0.05684 -0.14469,0.01378 -0.29973,0.02411 -0.46509,0.03101 -0.16192,0.0035 -0.32555,0.0052 -0.49092,0.0052 h -5.2e-4 c -0.27216,0 -0.48403,-0.03617 -0.63562,-0.10852 -0.14813,-0.07235 -0.26186,-0.179146 -0.34106,-0.320394 -0.0896,-0.165364 -0.1482,-0.346233 -0.1757,-0.542603 -0.0275,-0.196369 -0.0534,-0.387573 -0.0775,-0.573608 l -0.0724,-0.702799 c -0.0241,-0.234265 -0.05,-0.471979 -0.0775,-0.713135 -0.0379,-0.347954 -0.074,-0.658015 -0.10852,-0.930176 -0.031,-0.275607 -0.0637,-0.5271 -0.0982,-0.754476 -0.0345,-0.230821 -0.0706,-0.444419 -0.10852,-0.640788 -0.0379,-0.199814 -0.0792,-0.39791 -0.12402,-0.594279 -0.007,-0.02411 -0.0206,-0.03617 -0.0413,-0.03617 z m 3.96668,0.452169 c -0.009,-0.0069 -0.0267,-0.0043 -0.0543,0.0078 l -1.88619,0.837158 c -0.0172,0.01033 -0.0361,0.02239 -0.0568,0.03617 -0.0173,0.01033 -0.0345,0.02928 -0.0517,0.05684 l -0.25321,0.506429 c -0.0103,0.02067 -0.0103,0.03618 0,0.04651 0.0103,0.01033 0.0276,0.01033 0.0517,0 0.1068,-0.04479 0.236,-0.101633 0.38758,-0.170532 0.15159,-0.0689 0.31522,-0.142969 0.49092,-0.222209 0.17569,-0.07924 0.35657,-0.161917 0.54261,-0.248047 0.18948,-0.08613 0.37035,-0.168807 0.5426,-0.248047 0.0379,-0.01723 0.062,-0.04134 0.0723,-0.07235 l 0.21188,-0.480591 c 0.0104,-0.02584 0.0112,-0.0422 0.003,-0.04909 z m -8.31215,1.625223 c -0.0207,-0.01723 -0.0413,-0.01206 -0.062,0.0155 l -0.42375,0.542603 -0.62012,-0.470256 c -0.0138,-0.01377 -0.0259,-0.02067 -0.0362,-0.02067 -0.0103,0 -0.0224,0.01034 -0.0362,0.03101 l -0.41858,0.594279 c -0.0173,0.02411 -0.0138,0.04478 0.0103,0.06201 l 0.65629,0.506429 c 0.0275,0.02067 0.0534,0.01551 0.0775,-0.0155 l 0.40307,-0.552937 0.61495,0.48059 c 0.0275,0.02067 0.0465,0.03101 0.0568,0.03101 0.0103,-0.0034 0.0241,-0.0155 0.0413,-0.03617 l 0.39274,-0.54777 c 0.0241,-0.03101 0.0241,-0.05512 0,-0.07235 z m 2.50734,1.038697 c -0.0215,-0.0017 -0.0372,0.01206 -0.0475,0.04134 l -0.25322,0.687296 c 0.15503,0.155029 0.29628,0.318673 0.42375,0.490927 0.12747,0.172253 0.22222,0.361736 0.28422,0.56844 0.0172,0.08957 -0.0276,0.156748 -0.13436,0.201538 -0.34107,0.141249 -0.67696,0.26355 -1.00769,0.366903 -0.33073,0.103353 -0.66146,0.189482 -0.99219,0.258382 -0.33417,0.06545 -0.67179,0.115412 -1.01286,0.149862 -0.34107,0.03101 -0.69247,0.04651 -1.0542,0.04651 -0.19292,0 -0.38929,-0.0034 -0.58911,-0.01034 -0.19981,-0.01033 -0.39102,-0.03962 -0.5736,-0.08785 -0.18259,-0.04823 -0.3514,-0.120581 -0.50643,-0.217041 -0.15158,-0.09991 -0.27734,-0.241157 -0.37724,-0.423746 -0.10329,-0.196369 -0.1517,-0.415135 -0.1447,-0.656291 0.007,-0.244601 0.0741,-0.480592 0.20154,-0.707967 0.0172,-0.05512 0.007,-0.09818 -0.031,-0.129191 -0.0379,-0.031 -0.074,-0.02755 -0.10852,0.01033 -0.29627,0.41341 -0.44442,0.840605 -0.44442,1.281576 0,0.26527 0.0465,0.499539 0.13952,0.702799 0.093,0.199815 0.21877,0.372072 0.37724,0.516764 0.16192,0.141249 0.34969,0.253217 0.56328,0.335897 0.21704,0.08269 0.44786,0.136087 0.69246,0.160197 0.45131,0.04479 0.88711,0.04995 1.30741,0.0155 0.42375,-0.03445 0.85784,-0.09302 1.30225,-0.1757 0.45131,-0.07924 0.87678,-0.187758 1.27641,-0.325561 0.39963,-0.141249 0.79753,-0.322118 1.19372,-0.542603 0.0655,-0.03445 0.11713,-0.09646 0.15503,-0.186035 0.0414,-0.09302 0.0707,-0.192925 0.0879,-0.299723 0.0208,-0.110243 0.0332,-0.220487 0.0362,-0.330729 0.007,-0.110243 0.008,-0.201536 0.005,-0.273886 -0.0207,-0.25838 -0.0947,-0.509875 -0.2222,-0.754475 -0.12402,-0.244601 -0.27905,-0.465089 -0.46509,-0.661459 -0.0328,-0.03273 -0.0601,-0.04995 -0.0816,-0.05168 z m 5.31647,4.475179 c -0.0207,-0.01723 -0.0413,-0.01206 -0.062,0.0155 l -0.42375,0.542602 -0.62012,-0.470255 c -0.0138,-0.01377 -0.0259,-0.02067 -0.0362,-0.02067 -0.0103,0 -0.0224,0.01034 -0.0362,0.03101 l -0.41858,0.594279 c -0.0173,0.02411 -0.0138,0.04478 0.0103,0.06201 l 0.65629,0.506429 c 0.0275,0.02067 0.0534,0.01551 0.0775,-0.0155 l 0.40307,-0.552938 0.61495,0.480591 c 0.0275,0.02074 0.0466,0.02934 0.0569,0.02584 0.0103,0 0.0241,-0.01034 0.0413,-0.03101 l 0.39274,-0.54777 c 0.0241,-0.03101 0.0241,-0.05512 0,-0.07235 z m -6.91947,0.330729 c -0.004,-0.0069 -0.0207,-0.0052 -0.0517,0.0052 -0.1757,0.05857 -0.36002,0.11713 -0.55294,0.175699 -0.18948,0.06201 -0.37207,0.12058 -0.54777,0.1757 -0.1757,0.05512 -0.33762,0.1068 -0.48576,0.15503 -0.14469,0.04823 -0.2618,0.08784 -0.3514,0.118855 -0.0172,0.0069 -0.031,0.01551 -0.0413,0.02584 -0.0103,0.01378 -0.0207,0.02928 -0.031,0.04651 l -0.21188,0.392741 c -0.0241,0.04828 -0.0104,0.06546 0.0413,0.05168 0.32384,-0.103353 0.64424,-0.210151 0.96119,-0.320394 0.32038,-0.106797 0.6425,-0.211873 0.96634,-0.315226 0.0173,-0.0035 0.0292,-0.01034 0.0362,-0.02067 0.0103,-0.0069 0.0207,-0.01723 0.031,-0.03101 l 0.22738,-0.413411 c 0.0102,-0.02067 0.0133,-0.03618 0.0103,-0.04651 z m -0.10336,0.956014 c -0.004,-0.0069 -0.0207,-0.0052 -0.0517,0.0052 -0.1757,0.05857 -0.36001,0.11713 -0.55294,0.175699 -0.18948,0.06201 -0.37207,0.12058 -0.54777,0.1757 -0.17569,0.05512 -0.33762,0.105072 -0.48576,0.149862 -0.14469,0.04823 -0.2618,0.08957 -0.3514,0.124023 -0.0172,0.0069 -0.031,0.01551 -0.0413,0.02584 -0.0103,0.01378 -0.0207,0.02928 -0.031,0.04651 l -0.21187,0.392741 c -0.0241,0.04828 -0.0104,0.06546 0.0413,0.05168 0.32384,-0.103353 0.64423,-0.210151 0.96118,-0.320394 0.32039,-0.110243 0.64251,-0.215316 0.96635,-0.315226 0.0173,-0.0035 0.0292,-0.01034 0.0362,-0.02067 0.0103,-0.0069 0.0207,-0.01723 0.031,-0.03101 l 0.22738,-0.413411 c 0.0102,-0.02067 0.0133,-0.03618 0.0103,-0.04651 z" />
      </g>
    </g>
  </g>
</svg>
