<?xml version="1.0" encoding="UTF-8" standalone="no"?>
<!-- Created with Inkscape (http://www.inkscape.org/) -->

<svg
   width="18.94231mm"
   height="14.2mm"
   viewBox="0 0 18.942311 14.2"
   version="1.1"
   id="svg1"
   xmlns="http://www.w3.org/2000/svg"
   xmlns:svg="http://www.w3.org/2000/svg">
  <defs
     id="defs1" />
  <g
     id="layer1"
     transform="translate(-186.26645,-8.1394641)">
    <g
       id="g6"
       transform="translate(5.7832447,-12.349386)">
      <g
         id="g41">
        <path
           id="path1"
           style="font-size:10.5833px;line-height:1.25;font-family:'KFGQPC Uthmanic Script HAFS';-inkscape-font-specification:'KFGQPC Uthmanic Script HAFS';stroke-width:0.264583"
           d="m 183.03143,20.936885 c -0.0836,-0.0069 -0.17588,-0.0043 -0.27751,0.0078 -0.19981,0.02067 -0.39274,0.09302 -0.57877,0.217041 -0.16881,0.110243 -0.31522,0.23599 -0.43925,0.377238 -0.12057,0.137803 -0.22219,0.280776 -0.30489,0.428915 -0.0827,0.144693 -0.14641,0.285943 -0.19121,0.423746 -0.0414,0.137803 -0.0653,0.260106 -0.0723,0.366903 -0.007,0.134359 0.0258,0.253215 0.0982,0.356567 0.0758,0.103351 0.15501,0.186037 0.23771,0.248047 0.0172,0.01033 0.0361,0.02239 0.0568,0.03617 0.0241,0.01033 0.0448,-0.0052 0.062,-0.04651 0.0138,-0.03101 0.0259,-0.06374 0.0362,-0.09819 0.0103,-0.03445 0.0207,-0.0689 0.031,-0.103353 0.007,-0.02067 0.0103,-0.04134 0.0103,-0.06201 0,-0.02411 -0.009,-0.04651 -0.0258,-0.06718 -0.0207,-0.02067 -0.0465,-0.04479 -0.0775,-0.07235 -0.0276,-0.02756 -0.0552,-0.05512 -0.0827,-0.08268 -0.0275,-0.03101 -0.0516,-0.06029 -0.0724,-0.08785 -0.0208,-0.03101 -0.0332,-0.05857 -0.0362,-0.08268 -0.0138,-0.192925 0.0327,-0.377239 0.13953,-0.552938 0.11024,-0.179144 0.2446,-0.33762 0.40307,-0.475423 0.0827,-0.07234 0.17915,-0.134355 0.28939,-0.186035 0.11025,-0.05512 0.22221,-0.09646 0.3359,-0.124023 0.11713,-0.03103 0.2291,-0.04484 0.33589,-0.04134 0.1068,0 0.19809,0.02067 0.27389,0.06201 0.0448,0.02411 0.0827,0.06029 0.11369,0.108521 0.0345,0.04823 0.0603,0.09991 0.0775,0.155029 0.0208,0.05168 0.0332,0.105077 0.0362,0.160197 0.007,0.05167 0.005,0.09474 -0.005,0.129191 -0.0105,0.03099 -0.009,0.04818 0.005,0.05168 0.0172,0 0.0327,-0.01034 0.0465,-0.03101 0.0517,-0.07579 0.0878,-0.161923 0.10852,-0.258382 0.0205,-0.09991 0.0224,-0.194651 0.005,-0.284221 -0.0138,-0.09302 -0.0465,-0.177424 -0.0982,-0.253214 -0.0517,-0.07579 -0.12404,-0.132643 -0.21704,-0.170533 -0.0655,-0.02583 -0.14022,-0.0422 -0.22376,-0.04909 z m -0.2465,0.922424 c -0.0965,0 -0.18435,0.02412 -0.26355,0.07235 -0.0792,0.04479 -0.15154,0.10335 -0.21704,0.1757 -0.0655,0.07235 -0.124,0.151582 -0.1757,0.237712 -0.0482,0.08613 -0.0895,0.170534 -0.12402,0.253214 -0.0167,0.04134 -0.0237,0.09129 -0.0207,0.149862 0.004,0.05512 0.0241,0.103354 0.062,0.144694 0.0689,0.07235 0.14988,0.1378 0.24288,0.19637 0.0965,0.05512 0.19122,0.09646 0.28422,0.124024 -0.0999,0.09991 -0.20844,0.19465 -0.32557,0.28422 -0.11713,0.08957 -0.23598,0.173975 -0.35656,0.253215 -0.12402,0.08268 -0.24804,0.161921 -0.37207,0.237711 -0.12402,0.07234 -0.24288,0.141246 -0.35657,0.206706 -0.062,0.04135 -0.10509,0.07407 -0.12919,0.09818 -0.0275,0.02411 -0.0224,0.04478 0.0155,0.06201 0.0138,0.0069 0.0362,0.01033 0.0672,0.01033 0.031,0 0.0637,-0.0017 0.0982,-0.0052 0.038,-0.0069 0.0724,-0.01551 0.10335,-0.02584 0.0345,-0.01034 0.062,-0.02068 0.0827,-0.03101 0.15847,-0.06201 0.30662,-0.125743 0.44442,-0.191202 0.13781,-0.06546 0.26872,-0.137802 0.39274,-0.217041 0.12403,-0.08268 0.24116,-0.172258 0.3514,-0.268718 0.11369,-0.09991 0.22565,-0.213597 0.3359,-0.341064 0.0103,0.01033 0.0258,0.02411 0.0465,0.04134 0.0207,0.01722 0.0397,0.03617 0.0568,0.05684 0.0207,0.03101 0.0449,0.04651 0.0724,0.04651 0.0276,0 0.05,-0.0155 0.0672,-0.04651 0.0241,-0.03789 0.0448,-0.08957 0.062,-0.155029 0.0172,-0.0689 0.0172,-0.125743 0,-0.170533 -0.0103,-0.02756 -0.0241,-0.05168 -0.0413,-0.07235 -0.0173,-0.02067 -0.0448,-0.04134 -0.0827,-0.06201 -0.031,-0.01378 -0.0465,-0.02756 -0.0465,-0.04134 0.0138,-0.04823 0.0259,-0.129192 0.0362,-0.242879 0.014,-0.113688 0.0155,-0.227376 0.005,-0.341064 -0.0104,-0.117133 -0.0396,-0.218761 -0.0878,-0.304891 -0.0448,-0.08957 -0.12058,-0.134359 -0.22738,-0.134359 z m -0.14004,0.454753 c 0.0518,-0.0034 0.0914,0.0069 0.11885,0.03101 0.031,0.03101 0.0517,0.07235 0.062,0.124023 0.0105,0.04823 0.0155,0.09819 0.0155,0.149862 0,0.04823 -0.003,0.09302 -0.0103,0.134358 -0.007,0.03789 -0.0125,0.06028 -0.0155,0.06718 h -0.01 c -0.0758,-0.02067 -0.16365,-0.05684 -0.26355,-0.108521 -0.0999,-0.05168 -0.18431,-0.124021 -0.25321,-0.217041 0.0104,-0.02062 0.0341,-0.04489 0.0718,-0.07235 0.0414,-0.02756 0.0862,-0.05168 0.13435,-0.07235 0.0517,-0.02065 0.10167,-0.03267 0.14987,-0.03617 z m 4.14186,0.741556 c -0.009,-0.0069 -0.0267,-0.0043 -0.0543,0.0078 l -1.88619,0.837158 c -0.0172,0.01033 -0.0361,0.02239 -0.0568,0.03617 -0.0173,0.01033 -0.0345,0.02928 -0.0517,0.05684 l -0.25321,0.506429 c -0.0103,0.02067 -0.0103,0.03618 0,0.04651 0.0103,0.01033 0.0276,0.01033 0.0517,0 0.1068,-0.04479 0.2365,-0.101633 0.38809,-0.170533 0.15158,-0.0689 0.31471,-0.142968 0.49041,-0.222208 0.1757,-0.07924 0.35658,-0.161917 0.54261,-0.248047 0.18948,-0.08613 0.37035,-0.168807 0.5426,-0.248047 0.0379,-0.01723 0.062,-0.04134 0.0724,-0.07235 l 0.21187,-0.480591 c 0.0104,-0.02584 0.0112,-0.0422 0.003,-0.04909 z m 7.25021,1.2299 c -0.009,-0.0069 -0.0267,-0.0043 -0.0543,0.0078 l -1.88619,0.837158 c -0.0172,0.01033 -0.0361,0.02239 -0.0568,0.03617 -0.0173,0.01033 -0.0345,0.02928 -0.0517,0.05684 l -0.25322,0.506429 c -0.0103,0.02067 -0.0103,0.03618 0,0.04651 0.0103,0.01033 0.0276,0.01033 0.0517,0 0.10679,-0.04479 0.23598,-0.101633 0.38757,-0.170533 0.15158,-0.0689 0.31523,-0.142968 0.49093,-0.222208 0.1757,-0.07924 0.35657,-0.161917 0.5426,-0.248047 0.18948,-0.08613 0.37034,-0.168807 0.5426,-0.248047 h 5.2e-4 c 0.0379,-0.01723 0.0615,-0.04134 0.0718,-0.07235 l 0.21187,-0.480591 c 0.0104,-0.02584 0.0112,-0.0422 0.003,-0.04909 z m 4.51135,0 c -0.009,-0.0069 -0.0267,-0.0043 -0.0543,0.0078 l -1.88619,0.837158 c -0.0172,0.01033 -0.0361,0.02239 -0.0568,0.03617 -0.0173,0.01033 -0.0345,0.02928 -0.0517,0.05684 l -0.25322,0.506429 c -0.0103,0.02067 -0.0103,0.03618 0,0.04651 0.0103,0.01033 0.0276,0.01033 0.0517,0 0.1068,-0.04479 0.23599,-0.101633 0.38757,-0.170533 0.15159,-0.0689 0.31523,-0.142968 0.49093,-0.222208 0.1757,-0.07924 0.35657,-0.161917 0.5426,-0.248047 0.18948,-0.08613 0.37035,-0.168807 0.5426,-0.248047 0.0379,-0.01723 0.062,-0.04134 0.0724,-0.07235 l 0.21187,-0.480591 c 0.0104,-0.02584 0.0112,-0.0422 0.003,-0.04909 z m -15.78922,0.374654 c -0.0207,-0.01723 -0.0413,-0.01206 -0.062,0.0155 l -0.42375,0.542602 -0.62011,-0.470255 c -0.0138,-0.01377 -0.0259,-0.02067 -0.0362,-0.02067 -0.0103,0 -0.0224,0.01034 -0.0362,0.03101 l -0.41858,0.594279 c -0.0173,0.02411 -0.0138,0.04478 0.0103,0.06201 l 0.6563,0.506429 c 0.0275,0.02067 0.0534,0.01551 0.0775,-0.0155 l 0.40308,-0.552938 0.61495,0.480591 c 0.0275,0.02067 0.0465,0.03101 0.0568,0.03101 0.0103,-0.0034 0.0241,-0.0155 0.0413,-0.03617 l 0.39274,-0.54777 c 0.0241,-0.03101 0.0241,-0.05512 0,-0.07235 z m 3.74086,0.0052 -0.1912,0.361735 c 0.003,0.0069 0.012,0.03101 0.0258,0.07235 0.0173,0.03789 0.0292,0.07407 0.0362,0.108521 0.0105,0.03445 0.0177,0.06718 0.0207,0.09819 0.004,0.031 0.002,0.04994 -0.005,0.05684 -0.0586,0.04823 -0.12751,0.08268 -0.20671,0.103353 -0.0758,0.0207 -0.13773,0.02583 -0.18603,0.0155 -0.093,-0.02067 -0.15504,-0.05857 -0.18604,-0.113688 -0.031,-0.05857 -0.0465,-0.137802 -0.0465,-0.237712 v -0.04651 c 0,-0.02412 -0.002,-0.04824 -0.005,-0.07235 -0.004,-0.02411 -0.009,-0.04478 -0.0155,-0.06201 -0.004,-0.02067 -0.0104,-0.03101 -0.0207,-0.03101 -0.0482,0 -0.0827,0.02239 -0.10335,0.06718 -0.0208,0.04479 -0.0332,0.08957 -0.0362,0.134359 -0.007,0.05168 -0.0206,0.11713 -0.0413,0.19637 -0.0207,0.07924 -0.0534,0.144701 -0.0982,0.196371 -0.0483,0.05512 -0.0965,0.09991 -0.14469,0.134359 -0.0448,0.03101 -0.0964,0.05857 -0.15503,0.08268 -0.0552,0.02409 -0.11203,0.03784 -0.17053,0.04134 -0.0586,0 -0.11367,-0.01895 -0.16537,-0.05684 -0.0345,-0.031 -0.0569,-0.06374 -0.0672,-0.09819 -0.0105,-0.03445 -0.0155,-0.07579 -0.0155,-0.124024 0.003,-0.05168 0.0104,-0.103359 0.0207,-0.155029 0.0138,-0.05168 0.031,-0.09647 0.0517,-0.134359 0.0345,-0.06548 0.031,-0.09652 -0.0103,-0.09302 -0.0414,0.01378 -0.081,0.04479 -0.11886,0.09302 -0.0345,0.04478 -0.0655,0.09819 -0.093,0.160197 -0.0275,0.06546 -0.0482,0.136084 -0.062,0.211874 -0.0133,0.07235 -0.0168,0.142973 -0.01,0.211873 0.0138,0.155027 0.0615,0.263552 0.14417,0.325561 0.0861,0.06203 0.18655,0.09135 0.30024,0.08785 0.14125,-0.0034 0.26356,-0.04478 0.36691,-0.124023 0.0965,-0.07579 0.18206,-0.189481 0.25786,-0.341064 0.0517,0.07579 0.12061,0.134359 0.20671,0.175699 0.0861,0.04134 0.19292,0.04995 0.32039,0.02584 0.14469,-0.02756 0.2515,-0.09302 0.3204,-0.196371 0.0723,-0.103353 0.12923,-0.218764 0.17053,-0.346232 0.0103,-0.05168 0.0188,-0.115413 0.0258,-0.191203 0.007,-0.07579 0.007,-0.149858 0,-0.222208 -0.004,-0.07579 -0.0155,-0.142969 -0.0362,-0.201538 -0.0172,-0.05857 -0.043,-0.09646 -0.0775,-0.113689 z m 2.16679,0.821656 c -0.0129,0.0017 -0.0257,0.01033 -0.0377,0.02584 l -0.42892,0.527099 c -0.0275,0.03445 -0.0275,0.06374 0,0.08785 l 0.64079,0.5271 c 0.031,0.02756 0.0586,0.02411 0.0827,-0.01034 l 0.42375,-0.532268 c 0.0242,-0.03101 0.0223,-0.05857 -0.005,-0.08268 l -0.63562,-0.527099 c -0.0137,-0.01206 -0.0269,-0.01722 -0.0398,-0.0155 z m -6.20272,0.966349 c -0.0241,-0.0069 -0.0425,0.0052 -0.0563,0.03617 h -5.2e-4 l -0.0465,0.124024 c -0.0207,0.05512 -0.0413,0.11369 -0.062,0.1757 -0.0172,0.05857 -0.0327,0.115412 -0.0465,0.170532 -0.0133,0.05512 -0.0173,0.09646 -0.0103,0.124023 0.0138,0.06201 0.0259,0.129189 0.0362,0.201538 0.0138,0.0689 0.024,0.124025 0.031,0.165365 -0.14469,0.05857 -0.27906,0.118858 -0.40308,0.180868 -0.12058,0.06201 -0.23254,0.130915 -0.33589,0.206705 -0.20671,0.144694 -0.38069,0.318672 -0.52194,0.521932 -0.0896,0.134358 -0.17224,0.285944 -0.24804,0.454753 -0.0724,0.165364 -0.12236,0.346233 -0.14986,0.542602 -0.0103,0.124023 0.0292,0.220488 0.11885,0.289388 0.093,0.0689 0.19637,0.110244 0.31006,0.124024 0.12058,0.01374 0.25149,0.01723 0.39274,0.01034 0.14125,-0.01033 0.27389,-0.03789 0.39791,-0.08268 0.12058,-0.04479 0.24116,-0.115414 0.36173,-0.211874 0.12057,-0.09646 0.24633,-0.229099 0.37724,-0.397908 0.0655,0.192925 0.12921,0.38413 0.19121,0.573608 0.062,0.18948 0.15847,0.363458 0.28938,0.521932 0.12403,0.151583 0.28251,0.277328 0.47543,0.377238 0.15741,0.0787 0.35243,0.114124 0.56947,0.124024 0.016,0.0024 0.0285,0.01034 0.046,0.01034 h 0.093 0.002 c 9.3e-4,-2.2e-5 0.002,2.3e-5 0.003,0 h 0.093 c 0.025,0 0.0435,-0.0097 0.0656,-0.01395 0.1054,-0.0062 0.21039,-0.0092 0.31729,-0.02739 0.16191,-0.03101 0.30661,-0.07924 0.43408,-0.144694 0.12402,-0.06546 0.23772,-0.149863 0.34107,-0.253215 0.10335,-0.103353 0.19292,-0.232544 0.26872,-0.387573 0.12747,0.268716 0.30489,0.471978 0.53226,0.609782 0.11713,0.07235 0.25838,0.127475 0.42375,0.165365 0.11521,0.02351 0.24005,0.02767 0.36328,0.03514 0.0251,0.0058 0.0468,0.01654 0.076,0.01654 h 0.093 0.0982 c 0.005,0 0.009,-0.0029 0.0139,-0.0031 0.0769,-0.0015 0.14976,-0.0025 0.2496,-0.0072 0.14813,-0.0069 0.30489,-0.01894 0.47026,-0.03617 0.16881,-0.01723 0.34106,-0.03962 0.51676,-0.06718 0.1757,-0.02756 0.33934,-0.06373 0.49093,-0.108521 0.15503,-0.04478 0.29283,-0.09819 0.41341,-0.160197 0.12054,-0.06201 0.21012,-0.134361 0.26872,-0.217041 0.031,-0.04478 0.0563,-0.0999 0.077,-0.165364 0.0241,-0.0689 0.043,-0.139524 0.0568,-0.211874 0.0173,-0.07579 0.0292,-0.149858 0.0362,-0.222208 0.0105,-0.07579 0.0155,-0.142968 0.0155,-0.201538 -0.004,-0.130913 -0.0241,-0.261828 -0.062,-0.392741 -0.0345,-0.130913 -0.0827,-0.258383 -0.14469,-0.382406 -0.0586,-0.124023 -0.12917,-0.24288 -0.21187,-0.356567 -0.0827,-0.113688 -0.17055,-0.218767 -0.26355,-0.315226 -0.0653,-0.06526 -0.10621,-0.06834 -0.12351,-0.01034 -0.031,0.120578 -0.0637,0.24288 -0.0982,0.366903 -0.0311,0.124023 -0.0609,0.246325 -0.0884,0.366903 0.1447,0.144693 0.2744,0.29111 0.38809,0.439249 0.1171,0.144693 0.20495,0.311783 0.26355,0.501262 0.0173,0.05857 -0.003,0.103348 -0.062,0.134358 -0.062,0.03445 -0.15503,0.06546 -0.27906,0.09302 -0.12057,0.02411 -0.25838,0.04478 -0.41341,0.06201 -0.15158,0.01723 -0.31178,0.03101 -0.48059,0.04134 -0.16536,0.01033 -0.32383,0.01894 -0.47542,0.02584 -0.14814,0.0069 -0.28078,0.012 -0.39791,0.0155 h -0.14108 c -0.007,-4.89e-4 -0.0118,-0.0052 -0.0191,-0.0052 h -0.0982 c -0.2067,0 -0.39274,-0.02239 -0.55811,-0.06718 -0.16192,-0.04823 -0.2894,-0.108518 -0.3824,-0.180867 -0.093,-0.07235 -0.16191,-0.15331 -0.20671,-0.24288 -0.0448,-0.08957 -0.0672,-0.179147 -0.0672,-0.268717 0,-0.04823 0.003,-0.101627 0.0103,-0.160197 0.0102,-0.05857 0.0133,-0.108522 0.0103,-0.149862 -0.004,-0.02074 -0.0259,-0.02934 -0.0672,-0.02584 -0.0379,0.0035 -0.0655,0.02756 -0.0827,0.07235 -0.0413,0.110243 -0.0844,0.208426 -0.12919,0.294556 -0.0413,0.08613 -0.0965,0.170534 -0.16537,0.253214 -0.093,0.113691 -0.19465,0.203268 -0.30489,0.268718 -0.11025,0.06201 -0.2222,0.108516 -0.33589,0.139526 -0.11713,0.031 -0.24288,0.04994 -0.37724,0.05684 -0.13091,0.0069 -0.24978,0.01034 -0.35657,0.01034 h -0.0599 c -0.10862,-0.0029 -0.21676,-0.0086 -0.32298,-0.02584 -0.12402,-0.02411 -0.23943,-0.06718 -0.34623,-0.129191 -0.10679,-0.06201 -0.20496,-0.146417 -0.29456,-0.253214 -0.0861,-0.110243 -0.15677,-0.251493 -0.21187,-0.423747 -0.0345,-0.113688 -0.0775,-0.277332 -0.12919,-0.490926 -0.0482,-0.21704 -0.0982,-0.451309 -0.14987,-0.7028 -0.0482,-0.248046 -0.0947,-0.494372 -0.13952,-0.738973 -0.0448,-0.244601 -0.081,-0.453031 -0.10852,-0.625285 -0.004,-0.02065 -0.019,-0.03267 -0.0465,-0.03617 z m -0.077,1.529622 c 0.0172,0.08268 0.031,0.155031 0.0413,0.217041 0.0138,0.05857 0.0259,0.113695 0.0362,0.165365 0.0138,0.05512 0.0259,0.108517 0.0362,0.160197 0.0137,0.05168 0.0275,0.111967 0.0413,0.180867 -0.0482,0.04134 -0.12919,0.08613 -0.24288,0.134359 -0.11369,0.04824 -0.23772,0.08785 -0.37207,0.118856 -0.13781,0.03445 -0.27561,0.05168 -0.41341,0.05168 -0.13436,0 -0.24973,-0.02928 -0.34623,-0.08785 -0.0345,-0.01722 -0.0293,-0.06029 0.0155,-0.129191 0.0758,-0.103353 0.15678,-0.196373 0.24288,-0.279052 0.0896,-0.08613 0.18604,-0.163644 0.28939,-0.232544 0.0999,-0.06546 0.2067,-0.122303 0.32039,-0.170533 0.11369,-0.04823 0.23083,-0.0913 0.3514,-0.129191 z m 10.97039,-1.322916 c -0.031,0 -0.0517,0.02067 -0.062,0.06201 l -0.14986,0.604615 0.47542,1.720825 c -0.0586,0.124023 -0.16881,0.234269 -0.33073,0.330729 -0.15847,0.09302 -0.33762,0.168806 -0.53743,0.227376 -0.19981,0.06201 -0.4048,0.105081 -0.61495,0.129191 -0.21015,0.02412 -0.39619,0.02757 -0.55811,0.01034 -0.11025,-0.01034 -0.20502,-0.03446 -0.28422,-0.07235 -0.0793,-0.04134 -0.14987,-0.118857 -0.21187,-0.232544 -0.0103,-0.02067 -0.0258,-0.03101 -0.0465,-0.03101 -0.0172,0 -0.0305,0.01034 -0.0408,0.03101 -0.0276,0.06201 -0.05,0.137806 -0.0672,0.227376 -0.0137,0.08613 -0.0212,0.175698 -0.0212,0.268717 0,0.08957 0.0103,0.175703 0.031,0.258383 0.0241,0.08268 0.062,0.14814 0.11369,0.19637 0.0999,0.09301 0.24289,0.149862 0.42892,0.170532 0.18948,0.01723 0.38929,0.01034 0.59944,-0.02067 0.21359,-0.02756 0.43236,-0.07579 0.65629,-0.144694 0.22393,-0.07235 0.41858,-0.179146 0.58395,-0.320394 0.20326,-0.175699 0.34965,-0.397909 0.43925,-0.666626 0.10335,0.261826 0.2136,0.477146 0.33073,0.645955 0.12058,0.165364 0.24976,0.294554 0.38757,0.387573 0.14125,0.09646 0.29283,0.163649 0.45475,0.201539 0.11302,0.02354 0.23952,0.02768 0.3638,0.03514 0.025,0.0057 0.0464,0.01654 0.0755,0.01654 h 0.093 0.093 c 0.0394,0 0.071,-0.01167 0.10335,-0.02222 0.3262,-0.02358 0.61221,-0.09522 0.83199,-0.246496 0.26871,-0.182589 0.47025,-0.470258 0.60461,-0.862997 0.11713,0.08268 0.24288,0.155031 0.37724,0.217041 0.13436,0.06202 0.27045,0.115407 0.40825,0.160197 0.13781,0.04479 0.298,0.08613 0.48059,0.124024 0.18259,0.03445 0.34278,0.02929 0.48059,-0.0155 0.0689,-0.03101 0.12573,-0.07579 0.17053,-0.134359 0.0483,-0.06201 0.0862,-0.129188 0.11369,-0.201538 0.031,-0.07579 0.0534,-0.153304 0.0672,-0.232544 0.0138,-0.08268 0.024,-0.160194 0.031,-0.232544 0.007,-0.117133 -0.0172,-0.265273 -0.0723,-0.444417 -0.0517,-0.179144 -0.12404,-0.353124 -0.21704,-0.521932 -0.0896,-0.168809 -0.19465,-0.315227 -0.31523,-0.43925 -0.12058,-0.12403 -0.2446,-0.189471 -0.37207,-0.19637 -0.0792,-0.0035 -0.16018,0.01895 -0.24288,0.06718 -0.0792,0.04479 -0.15674,0.101632 -0.23254,0.170532 -0.0724,0.0689 -0.13954,0.142969 -0.20154,0.222209 -0.062,0.07924 -0.11196,0.151591 -0.14986,0.217041 -0.0999,0.175699 -0.19462,0.35829 -0.28422,0.54777 -0.0861,0.186034 -0.17916,0.372071 -0.27906,0.558105 -0.0551,0.103351 -0.13264,0.186037 -0.23254,0.248047 -0.0965,0.05857 -0.20671,0.103349 -0.33073,0.134359 -0.12403,0.03101 -0.25839,0.05168 -0.40308,0.06201 -0.14125,0.0069 -0.28422,0.01033 -0.42891,0.01033 -0.16881,0 -0.32211,-0.0155 -0.45992,-0.04651 -0.1378,-0.03101 -0.2601,-0.08268 -0.3669,-0.155029 -0.18259,-0.124023 -0.32729,-0.277331 -0.43409,-0.45992 -0.10335,-0.182589 -0.18948,-0.396187 -0.25838,-0.640788 l -0.5271,-1.865519 c -0.0103,-0.03789 -0.031,-0.05684 -0.062,-0.05684 z m 4.5992,1.772501 c 0.12402,-0.0069 0.22736,0.02756 0.31006,0.103353 0.0861,0.07579 0.15844,0.156749 0.21704,0.242879 0.0103,0.01723 0.0293,0.05168 0.0568,0.103353 0.0276,0.04823 0.0552,0.09991 0.0827,0.15503 0.0276,0.05512 0.05,0.106799 0.0672,0.155029 0.0207,0.04479 0.0277,0.07235 0.0207,0.08268 -0.11369,0 -0.22738,-0.0069 -0.34107,-0.02067 -0.11369,-0.01378 -0.22392,-0.03617 -0.33072,-0.06718 -0.1068,-0.03101 -0.21016,-0.07235 -0.31006,-0.124023 -0.0999,-0.05168 -0.19296,-0.115413 -0.27906,-0.191203 0.0345,-0.09991 0.0999,-0.194651 0.19637,-0.28422 0.0965,-0.09302 0.19981,-0.1447 0.31006,-0.15503 z m -11.78687,3.15743 c -0.0207,-0.01723 -0.0413,-0.01206 -0.062,0.0155 l -0.42374,0.542603 -0.62012,-0.470256 c -0.0138,-0.01377 -0.0259,-0.02067 -0.0362,-0.02067 -0.0103,0 -0.0224,0.01034 -0.0362,0.03101 l -0.41858,0.594278 c -0.0173,0.02411 -0.0138,0.04478 0.0103,0.06201 l 0.65629,0.506429 c 0.0275,0.02067 0.0534,0.01551 0.0775,-0.0155 l 0.40308,-0.552938 0.61495,0.480591 c 0.0275,0.02074 0.0465,0.02934 0.0568,0.02584 0.0103,0 0.0236,-0.01034 0.0408,-0.03101 l 0.39326,-0.547771 c 0.0241,-0.03101 0.0241,-0.05512 0,-0.07235 z m 3.77703,0.08268 c -0.007,-0.0034 -0.0242,5e-6 -0.0517,0.01033 -0.16881,0.05168 -0.34624,0.106795 -0.53227,0.165364 -0.18604,0.05857 -0.36863,0.115413 -0.54777,0.170533 -0.1757,0.05857 -0.33933,0.111967 -0.49092,0.160197 -0.15158,0.05167 -0.27391,0.09474 -0.36691,0.129191 -0.0207,0.0069 -0.0362,0.01551 -0.0465,0.02584 -0.007,0.01033 -0.015,0.02584 -0.0253,0.04651 l -0.21187,0.392741 c -0.0276,0.05168 -0.0143,0.06891 0.0408,0.05168 0.29973,-0.09646 0.61324,-0.199816 0.94052,-0.310059 0.32728,-0.110242 0.65973,-0.218764 0.99735,-0.325561 h 5.2e-4 c 0.0138,-0.0035 0.024,-0.01206 0.031,-0.02584 0.0103,-0.01033 0.0207,-0.02239 0.031,-0.03617 l 0.22221,-0.403076 c 0.0133,-0.02756 0.0168,-0.04478 0.01,-0.05168 z" />
      </g>
    </g>
  </g>
</svg>
