<?xml version="1.0" encoding="UTF-8" standalone="no"?>
<!-- Created with Inkscape (http://www.inkscape.org/) -->

<svg
   width="17.119745mm"
   height="14.2mm"
   viewBox="0 0 17.119746 14.2"
   version="1.1"
   id="svg1"
   xmlns="http://www.w3.org/2000/svg"
   xmlns:svg="http://www.w3.org/2000/svg">
  <defs
     id="defs1" />
  <g
     id="layer1"
     transform="translate(-188.08902,-8.1394641)">
    <g
       id="g6"
       transform="translate(27.462182,-12.349386)">
      <g
         id="g40">
        <path
           id="text1"
           style="font-size:10.5833px;line-height:1.25;font-family:'KFGQPC Uthmanic Script HAFS';-inkscape-font-specification:'KFGQPC Uthmanic Script HAFS';stroke-width:0.264583"
           d="m 163.1515,20.936885 c -0.0835,-0.0069 -0.17587,-0.0043 -0.2775,0.0078 -0.19981,0.02067 -0.39275,0.09302 -0.57878,0.217041 -0.16881,0.110243 -0.31522,0.23599 -0.43925,0.377238 -0.12057,0.137803 -0.22219,0.280776 -0.30489,0.428915 -0.0827,0.144693 -0.1464,0.285943 -0.1912,0.423746 -0.0414,0.137803 -0.0653,0.260106 -0.0724,0.366903 -0.007,0.134359 0.0258,0.253215 0.0982,0.356567 0.0758,0.103351 0.15501,0.186037 0.23771,0.248047 0.0172,0.01033 0.0361,0.02239 0.0568,0.03617 0.0241,0.01033 0.0448,-0.0052 0.062,-0.04651 0.0138,-0.03101 0.0259,-0.06374 0.0362,-0.09819 0.0103,-0.03445 0.0207,-0.0689 0.031,-0.103353 0.007,-0.02067 0.0103,-0.04134 0.0103,-0.06201 0,-0.02411 -0.009,-0.04651 -0.0258,-0.06718 -0.0207,-0.02067 -0.0465,-0.04479 -0.0775,-0.07235 -0.0276,-0.02756 -0.0552,-0.05512 -0.0827,-0.08268 -0.0275,-0.03101 -0.0516,-0.06029 -0.0724,-0.08785 -0.0208,-0.03101 -0.0332,-0.05857 -0.0362,-0.08268 -0.0138,-0.192925 0.0327,-0.377239 0.13952,-0.552938 0.11024,-0.179144 0.24461,-0.33762 0.40308,-0.475423 0.0827,-0.07234 0.17915,-0.134355 0.28939,-0.186035 0.11025,-0.05512 0.2222,-0.09646 0.33589,-0.124023 0.11713,-0.03103 0.22911,-0.04484 0.3359,-0.04134 0.1068,0 0.19808,0.02067 0.27388,0.06201 0.0448,0.02411 0.0827,0.06029 0.11369,0.108521 0.0345,0.04823 0.0603,0.09991 0.0775,0.155029 0.0208,0.05168 0.0332,0.105077 0.0362,0.160197 0.007,0.05167 0.005,0.09474 -0.005,0.129191 -0.0105,0.03099 -0.009,0.04818 0.005,0.05168 0.0172,0 0.0327,-0.01034 0.0465,-0.03101 0.0517,-0.07579 0.0878,-0.161923 0.10852,-0.258382 0.0205,-0.09991 0.0224,-0.194651 0.005,-0.284221 -0.0138,-0.09302 -0.0465,-0.177424 -0.0982,-0.253214 -0.0517,-0.07579 -0.12404,-0.132643 -0.21704,-0.170533 -0.0654,-0.02583 -0.14021,-0.0422 -0.22376,-0.04909 z m -0.24649,0.922424 c -0.0965,0 -0.18435,0.02412 -0.26355,0.07235 -0.0792,0.04479 -0.15154,0.10335 -0.21704,0.1757 -0.0655,0.07235 -0.124,0.151582 -0.1757,0.237712 -0.0482,0.08613 -0.0895,0.170534 -0.12403,0.253214 -0.0167,0.04134 -0.0237,0.09129 -0.0207,0.149862 0.004,0.05512 0.0241,0.103354 0.062,0.144694 0.0689,0.07235 0.14988,0.1378 0.24288,0.19637 0.0965,0.05512 0.19122,0.09646 0.28422,0.124024 -0.0999,0.09991 -0.20843,0.19465 -0.32556,0.28422 -0.11713,0.08957 -0.23599,0.173975 -0.35657,0.253215 -0.12402,0.08268 -0.24804,0.161921 -0.37207,0.237711 -0.12402,0.07234 -0.24287,0.141246 -0.35656,0.206706 -0.062,0.04135 -0.1051,0.07407 -0.12919,0.09818 -0.0275,0.02411 -0.0224,0.04478 0.0155,0.06201 0.0138,0.0069 0.0362,0.01033 0.0672,0.01033 0.031,0 0.0637,-0.0017 0.0982,-0.0052 0.038,-0.0069 0.0724,-0.01551 0.10336,-0.02584 0.0345,-0.01034 0.062,-0.02068 0.0827,-0.03101 0.15847,-0.06201 0.30662,-0.125743 0.44441,-0.191202 0.13781,-0.06546 0.26873,-0.137802 0.39275,-0.217041 0.12403,-0.08268 0.24116,-0.172258 0.3514,-0.268718 0.11369,-0.09991 0.22564,-0.213597 0.33589,-0.341064 0.0103,0.01033 0.0258,0.02411 0.0465,0.04134 0.0207,0.01722 0.0396,0.03617 0.0568,0.05684 0.0207,0.03101 0.0448,0.04651 0.0723,0.04651 0.0276,0 0.05,-0.0155 0.0672,-0.04651 0.0241,-0.03789 0.0448,-0.08957 0.062,-0.155029 0.0172,-0.0689 0.0172,-0.125743 0,-0.170533 -0.0103,-0.02756 -0.0241,-0.05168 -0.0413,-0.07235 -0.0173,-0.02067 -0.0448,-0.04134 -0.0827,-0.06201 -0.031,-0.01378 -0.0465,-0.02756 -0.0465,-0.04134 0.0138,-0.04823 0.0259,-0.129192 0.0362,-0.242879 0.014,-0.113688 0.0155,-0.227376 0.005,-0.341064 -0.0103,-0.117133 -0.0396,-0.218761 -0.0878,-0.304891 -0.0448,-0.08957 -0.12057,-0.134359 -0.22737,-0.134359 z m -0.13953,0.454753 c 0.0518,-0.0034 0.0914,0.0069 0.11886,0.03101 0.031,0.03101 0.0517,0.07235 0.062,0.124023 0.0105,0.04823 0.015,0.09819 0.015,0.149862 0,0.04823 -0.003,0.09302 -0.01,0.134358 -0.008,0.03789 -0.0125,0.06028 -0.0155,0.06718 h -0.0103 c -0.0758,-0.02067 -0.16365,-0.05684 -0.26355,-0.108521 -0.0999,-0.05168 -0.18432,-0.124021 -0.25322,-0.217041 0.0103,-0.02067 0.0345,-0.04479 0.0724,-0.07235 0.0414,-0.02756 0.0862,-0.05168 0.13436,-0.07235 0.0517,-0.02065 0.10166,-0.03267 0.14986,-0.03617 z m 7.61659,-0.361735 -0.1912,0.361735 c 0.003,0.0069 0.012,0.03101 0.0258,0.07235 0.0173,0.03789 0.0292,0.07407 0.0362,0.10852 0.0105,0.03445 0.0177,0.06718 0.0207,0.09819 0.004,0.031 0.002,0.04995 -0.005,0.05684 -0.0586,0.04823 -0.1275,0.08268 -0.2067,0.103353 -0.0758,0.0207 -0.13774,0.02583 -0.18604,0.0155 -0.093,-0.02067 -0.15504,-0.05857 -0.18604,-0.113688 -0.031,-0.05857 -0.0465,-0.137802 -0.0465,-0.237711 v -0.04651 c 0,-0.02412 -0.002,-0.04824 -0.005,-0.07235 -0.004,-0.02411 -0.008,-0.04478 -0.0155,-0.06201 -0.004,-0.02067 -0.0104,-0.03101 -0.0207,-0.03101 -0.0482,0 -0.0827,0.02239 -0.10335,0.06718 -0.0208,0.04479 -0.0332,0.08957 -0.0362,0.134358 -0.007,0.05168 -0.0206,0.117131 -0.0413,0.196371 -0.0207,0.07924 -0.0534,0.1447 -0.0982,0.19637 -0.0482,0.05512 -0.0964,0.09991 -0.14469,0.134359 -0.0447,0.03101 -0.0964,0.05857 -0.15503,0.08268 -0.0551,0.02409 -0.11193,0.03784 -0.17053,0.04134 -0.0586,0 -0.11367,-0.01895 -0.16537,-0.05684 -0.0345,-0.03101 -0.0569,-0.06374 -0.0672,-0.09819 -0.0105,-0.03445 -0.0155,-0.07579 -0.0155,-0.124023 0.004,-0.05168 0.0104,-0.10336 0.0207,-0.15503 0.0138,-0.05168 0.031,-0.09647 0.0517,-0.134358 0.0345,-0.06548 0.0315,-0.09652 -0.01,-0.09302 -0.0414,0.01378 -0.0815,0.04479 -0.11937,0.09302 -0.0345,0.04478 -0.065,0.09819 -0.0925,0.160196 -0.0275,0.06546 -0.0482,0.136084 -0.062,0.211874 -0.0133,0.07235 -0.0173,0.142973 -0.0103,0.211873 0.0138,0.155027 0.062,0.263552 0.14469,0.325562 0.0861,0.06203 0.18604,0.09135 0.29973,0.08785 0.14125,-0.0034 0.26355,-0.04478 0.3669,-0.124024 0.0964,-0.07572 0.18263,-0.189179 0.25838,-0.340547 0.0516,0.07549 0.12032,0.133954 0.20619,0.175183 0.0861,0.04134 0.19292,0.04995 0.32039,0.02584 0.14469,-0.02756 0.2515,-0.09302 0.3204,-0.196371 0.0723,-0.103352 0.12923,-0.218764 0.17053,-0.346232 0.0103,-0.05168 0.0188,-0.115413 0.0258,-0.191202 0.007,-0.07579 0.007,-0.149859 0,-0.222209 -0.004,-0.07579 -0.0155,-0.142968 -0.0362,-0.201538 -0.0172,-0.05857 -0.043,-0.09646 -0.0775,-0.113688 z m 2.66702,0.511596 c -0.31695,0.155029 -0.86128,0.420304 -1.63298,0.795817 -0.77168,0.375514 -1.31258,0.644234 -1.62264,0.806153 -0.35829,0.189479 -0.76308,0.422025 -1.21439,0.697632 -0.44786,0.272161 -0.76309,0.520209 -0.94568,0.74414 -0.0448,0.07235 -0.0896,0.167088 -0.13436,0.284221 -0.0413,0.117132 -0.0741,0.234266 -0.0982,0.351399 -0.0241,0.117133 -0.0362,0.223934 -0.0362,0.320394 0,0.09301 0.019,0.155025 0.0568,0.186035 l 1.35909,1.090373 c 0.54777,0.468532 0.90606,0.828547 1.07487,1.080038 0.17222,0.248045 0.28243,0.451308 0.33073,0.609781 -0.17225,0.130917 -0.38585,0.229106 -0.64079,0.294556 -0.25493,0.06201 -0.51505,0.105081 -0.78032,0.129191 -0.26871,0.02411 -0.52538,0.03617 -0.76998,0.03617 -0.19249,-0.0028 -0.33278,-0.0036 -0.46767,-0.0041 -0.009,-7.22e-4 -0.0143,-0.0062 -0.0232,-0.0062 h -0.0982 c -0.20671,0 -0.39273,-0.02239 -0.5581,-0.06718 -0.16192,-0.04823 -0.28941,-0.108518 -0.38241,-0.180867 -0.093,-0.07235 -0.1619,-0.15331 -0.2067,-0.24288 -0.0448,-0.08957 -0.0672,-0.179147 -0.0672,-0.268717 0,-0.04823 0.003,-0.101627 0.0103,-0.160197 0.0102,-0.05857 0.0133,-0.108522 0.0103,-0.149862 -0.004,-0.02074 -0.0259,-0.02934 -0.0672,-0.02584 -0.0379,0.0035 -0.0655,0.02756 -0.0827,0.07235 -0.0413,0.110243 -0.0844,0.208426 -0.1292,0.294556 -0.0413,0.08613 -0.0965,0.170534 -0.16536,0.253214 -0.093,0.113691 -0.19465,0.203268 -0.30489,0.268718 -0.11024,0.06201 -0.22221,0.108516 -0.3359,0.139526 -0.11713,0.031 -0.24289,0.04994 -0.37724,0.05684 -0.13091,0.0069 -0.24976,0.01034 -0.35656,0.01034 h -0.0594 c -0.10862,-0.0029 -0.21675,-0.0086 -0.32298,-0.02584 -0.12402,-0.02411 -0.23943,-0.06718 -0.34623,-0.129191 -0.10679,-0.06201 -0.20496,-0.146417 -0.29456,-0.253214 -0.0861,-0.110243 -0.15677,-0.251493 -0.21187,-0.423747 -0.0345,-0.113688 -0.0775,-0.277332 -0.12919,-0.490926 -0.0482,-0.21704 -0.0982,-0.451309 -0.14986,-0.7028 -0.0482,-0.248046 -0.0947,-0.494372 -0.13953,-0.738973 -0.0448,-0.244601 -0.081,-0.453031 -0.10852,-0.625285 -0.004,-0.02065 -0.019,-0.03267 -0.0465,-0.03617 -0.0241,-0.0069 -0.043,0.0052 -0.0568,0.03617 h -5.2e-4 l -0.0465,0.124024 c -0.0207,0.05512 -0.0413,0.11369 -0.062,0.1757 -0.0172,0.05857 -0.0327,0.115412 -0.0465,0.170532 -0.0133,0.05512 -0.0173,0.09646 -0.0103,0.124023 0.0138,0.06201 0.0264,0.129189 0.0367,0.201538 0.0138,0.0689 0.024,0.124025 0.031,0.165365 -0.14469,0.05857 -0.27905,0.118858 -0.40307,0.180868 -0.12058,0.06201 -0.23255,0.130915 -0.3359,0.206705 -0.20671,0.144694 -0.38068,0.318672 -0.52193,0.521932 -0.0896,0.134358 -0.17225,0.285944 -0.24805,0.454753 -0.0724,0.165364 -0.12236,0.346233 -0.14986,0.542602 -0.0103,0.124023 0.0293,0.220488 0.11886,0.289388 0.093,0.0689 0.19636,0.110244 0.31005,0.124024 0.12058,0.01374 0.25149,0.01723 0.39274,0.01034 0.14125,-0.01033 0.27389,-0.03789 0.39791,-0.08268 0.12058,-0.04479 0.24116,-0.115414 0.36174,-0.211874 0.12057,-0.09646 0.24633,-0.229099 0.37724,-0.397908 0.0655,0.192925 0.1292,0.38413 0.1912,0.573608 0.062,0.18948 0.15848,0.363458 0.28939,0.521932 0.12403,0.151583 0.2825,0.277328 0.47542,0.377238 0.15729,0.07864 0.35214,0.114076 0.56896,0.124024 0.016,0.0024 0.0285,0.01034 0.046,0.01034 h 0.093 0.003 c 9.3e-4,-2.2e-5 0.002,2.3e-5 0.003,0 h 0.0925 c 0.0251,0 0.0439,-0.0097 0.0661,-0.01395 0.10524,-0.0062 0.21005,-0.0092 0.31678,-0.02739 0.16192,-0.03101 0.30661,-0.07924 0.43408,-0.144694 0.12403,-0.06546 0.23771,-0.149863 0.34106,-0.253215 0.10335,-0.103353 0.19292,-0.232544 0.26872,-0.387573 0.12747,0.268716 0.30489,0.471978 0.53227,0.609782 0.11713,0.07235 0.25839,0.127475 0.42375,0.165365 0.11193,0.02284 0.23344,0.02641 0.35295,0.03411 0.0266,0.0065 0.0502,0.01757 0.0811,0.01757 h 0.093 0.005 5.1e-4 0.0982 c 0.002,0 0.003,-0.001 0.004,-0.001 0.12521,-5.27e-4 0.26066,-0.0013 0.45579,-0.0041 0.2446,-0.0069 0.50299,-0.02756 0.77515,-0.06201 0.26872,-0.03445 0.53055,-0.08957 0.78548,-0.165365 0.25839,-0.07579 0.46681,-0.182591 0.62528,-0.320394 0.12403,-0.110243 0.20675,-0.24288 0.24805,-0.397908 0.0445,-0.155029 0.0603,-0.311782 0.0465,-0.470256 -0.0103,-0.161919 -0.0413,-0.313504 -0.093,-0.454752 -0.0517,-0.141248 -0.11197,-0.249772 -0.18087,-0.325562 0.11024,0.08613 0.2291,0.191203 0.35657,0.315226 0.13091,0.120578 0.26872,0.249771 0.41341,0.387573 0.14469,0.134359 0.29456,0.273887 0.44959,0.41858 0.15847,0.141248 0.32039,0.273885 0.48575,0.397908 0.15159,0.117133 0.29973,0.218761 0.44442,0.304891 0.14469,0.08613 0.29283,0.156753 0.44442,0.211873 0.15158,0.05512 0.31005,0.09646 0.47542,0.124024 0.12379,0.02063 0.26502,0.02582 0.40618,0.03101 0.0169,0.0023 0.0296,0.01034 0.0481,0.01034 h 0.0884 0.005 0.0884 c 0.037,0 0.0657,-0.01136 0.0961,-0.02067 0.33165,-0.02225 0.62134,-0.09487 0.84388,-0.248046 0.26871,-0.182589 0.47025,-0.470258 0.60461,-0.862997 0.11713,0.08268 0.24288,0.155031 0.37724,0.217041 0.13436,0.06202 0.27044,0.115407 0.40824,0.160197 0.13781,0.04479 0.298,0.08613 0.48059,0.124024 0.18259,0.03445 0.34278,0.02929 0.48059,-0.0155 0.0689,-0.03101 0.12574,-0.07579 0.17054,-0.134359 0.0483,-0.06201 0.0862,-0.129188 0.11368,-0.201538 0.031,-0.07579 0.0534,-0.153304 0.0672,-0.232544 0.0138,-0.08268 0.024,-0.160194 0.031,-0.232544 0.007,-0.117133 -0.0167,-0.265273 -0.0718,-0.444417 -0.0517,-0.179144 -0.12404,-0.353124 -0.21704,-0.521932 -0.0896,-0.168809 -0.19465,-0.315227 -0.31523,-0.43925 -0.12058,-0.12403 -0.2446,-0.189471 -0.37207,-0.19637 -0.0792,-0.0035 -0.16018,0.01895 -0.24288,0.06718 -0.0792,0.04479 -0.15674,0.101632 -0.23254,0.170532 -0.0724,0.0689 -0.13954,0.142969 -0.20154,0.222209 -0.0621,0.07924 -0.11196,0.151591 -0.14986,0.217041 -0.0999,0.175699 -0.19462,0.35829 -0.28422,0.54777 -0.0861,0.186034 -0.17915,0.372071 -0.27905,0.558105 -0.0551,0.103351 -0.13265,0.186037 -0.23255,0.248047 -0.0965,0.05857 -0.20671,0.103349 -0.33073,0.134359 -0.12402,0.03101 -0.25837,0.05168 -0.40307,0.06201 -0.14125,0.0069 -0.28423,0.01033 -0.42892,0.01033 h -0.005 c -0.21015,0 -0.39103,-0.01206 -0.54261,-0.03617 -0.14814,-0.02412 -0.28594,-0.06374 -0.41341,-0.118856 -0.12403,-0.05512 -0.24805,-0.125744 -0.37207,-0.211874 -0.12058,-0.08613 -0.26183,-0.18948 -0.42375,-0.310058 -0.14814,-0.113687 -0.30834,-0.239435 -0.48059,-0.377238 -0.16881,-0.137804 -0.33589,-0.275609 -0.50126,-0.413412 -0.16536,-0.141248 -0.32383,-0.275608 -0.47542,-0.403076 -0.15158,-0.127469 -0.28767,-0.237709 -0.40825,-0.330729 -0.39273,-0.299722 -0.78548,-0.575332 -1.17822,-0.826823 -0.39274,-0.251491 -0.79754,-0.511597 -1.21439,-0.780314 0,-0.03789 0.0172,-0.08957 0.0517,-0.155029 0.0379,-0.06546 0.0982,-0.129193 0.18087,-0.191203 0.0999,-0.0689 0.2067,-0.141251 0.32039,-0.217041 0.11713,-0.07924 0.37035,-0.22221 0.75965,-0.428915 0.38929,-0.210149 0.7407,-0.391018 1.0542,-0.542602 0.26872,-0.127468 0.71314,-0.334176 1.33325,-0.620117 0.62356,-0.285942 1.06971,-0.490927 1.33842,-0.61495 0.0482,-0.120578 0.0964,-0.251492 0.14469,-0.392741 0.0482,-0.141249 0.0895,-0.277331 0.12403,-0.408244 0.007,-0.01723 0.007,-0.02927 0,-0.03617 -0.007,-0.0069 -0.0172,-0.0087 -0.031,-0.0052 z m -10.54199,5.519043 c 0.0172,0.08268 0.031,0.155031 0.0413,0.217041 0.0138,0.05857 0.0259,0.113695 0.0362,0.165365 0.0138,0.05512 0.0259,0.108517 0.0362,0.160197 0.0137,0.05168 0.0275,0.111967 0.0413,0.180867 -0.0482,0.04134 -0.12919,0.08613 -0.24288,0.134359 -0.11369,0.04824 -0.23772,0.08785 -0.37207,0.118856 -0.13781,0.03445 -0.27561,0.05168 -0.41341,0.05168 -0.13436,0 -0.24974,-0.02928 -0.34624,-0.08785 -0.0345,-0.01722 -0.0293,-0.06029 0.0155,-0.129191 0.0758,-0.103353 0.15678,-0.196373 0.24288,-0.279052 0.0896,-0.08613 0.18603,-0.163644 0.28938,-0.232544 0.0999,-0.06546 0.20671,-0.122303 0.3204,-0.170533 0.11369,-0.04823 0.23083,-0.0913 0.3514,-0.129191 z m 13.77177,0.449585 c 0.12402,-0.0069 0.22736,0.02756 0.31006,0.103353 0.0862,0.07579 0.15854,0.156749 0.21704,0.242879 0.0103,0.01723 0.0288,0.05168 0.0563,0.103353 0.0276,0.04823 0.0552,0.09991 0.0827,0.15503 0.0276,0.05512 0.05,0.106799 0.0672,0.155029 0.0207,0.04479 0.0282,0.07235 0.0212,0.08268 -0.11369,0 -0.22737,-0.0069 -0.34106,-0.02067 -0.11369,-0.01378 -0.22393,-0.03617 -0.33073,-0.06718 -0.1068,-0.03101 -0.21016,-0.07235 -0.31006,-0.124023 -0.0999,-0.05168 -0.19295,-0.115413 -0.27905,-0.191203 0.0345,-0.09991 0.0999,-0.194651 0.19637,-0.28422 0.0965,-0.09302 0.19981,-0.1447 0.31006,-0.15503 z m -9.37152,-5.376933 c -0.009,-0.0069 -0.0267,-0.0043 -0.0543,0.0078 l -1.88619,0.837158 c -0.0172,0.01033 -0.0362,0.02239 -0.0568,0.03617 -0.0173,0.01033 -0.0345,0.02928 -0.0517,0.05684 l -0.25322,0.506429 c -0.0103,0.02067 -0.0103,0.03618 0,0.04651 0.0103,0.01033 0.0276,0.01033 0.0517,0 0.1068,-0.04479 0.23598,-0.101633 0.38757,-0.170533 0.15158,-0.0689 0.31523,-0.142968 0.49093,-0.222208 0.1757,-0.07924 0.35657,-0.161917 0.5426,-0.248047 0.18933,-0.08606 0.36996,-0.168864 0.54208,-0.248047 0.0379,-0.01723 0.0626,-0.04134 0.0729,-0.07235 l 0.21187,-0.480591 c 0.0103,-0.02584 0.0112,-0.0422 0.003,-0.04909 z m 9.9627,1.2299 c -0.009,-0.0069 -0.0267,-0.0043 -0.0543,0.0078 l -1.88618,0.837158 c -0.0172,0.01033 -0.0356,0.02239 -0.0563,0.03617 -0.0173,0.01033 -0.0345,0.02928 -0.0517,0.05684 l -0.25321,0.506429 c -0.0103,0.02067 -0.0103,0.03618 0,0.04651 0.0103,0.01033 0.0276,0.01033 0.0517,0 0.1068,-0.04479 0.236,-0.101633 0.38758,-0.170533 0.15159,-0.0689 0.31522,-0.142968 0.49092,-0.222208 0.1757,-0.07924 0.35658,-0.161917 0.54261,-0.248047 0.18933,-0.08606 0.36995,-0.168864 0.54208,-0.248047 0.0379,-0.01723 0.0626,-0.04134 0.0729,-0.07235 l 0.21188,-0.480591 c 0.0104,-0.02584 0.0107,-0.0422 0.002,-0.04909 z m -13.99088,0.374654 c -0.0207,-0.01723 -0.0413,-0.01206 -0.062,0.0155 l -0.42375,0.542602 -0.62012,-0.470255 c -0.0138,-0.01377 -0.0259,-0.02067 -0.0362,-0.02067 -0.0103,0 -0.0224,0.01034 -0.0362,0.03101 l -0.41858,0.594279 c -0.0173,0.02411 -0.0138,0.04478 0.0103,0.06201 l 0.65629,0.506429 c 0.0275,0.02067 0.0534,0.01551 0.0775,-0.0155 l 0.40307,-0.552938 0.61495,0.480591 c 0.0275,0.02067 0.0465,0.03101 0.0568,0.03101 0.0103,-0.0034 0.0241,-0.0155 0.0413,-0.03617 l 0.39274,-0.54777 c 0.0241,-0.03101 0.0241,-0.05512 0,-0.07235 z m 3.74085,0.0052 -0.1912,0.361735 c 0.003,0.0069 0.012,0.03101 0.0258,0.07235 0.0173,0.03789 0.0292,0.07407 0.0362,0.108521 0.0105,0.03445 0.0177,0.06718 0.0207,0.09819 0.004,0.031 0.002,0.04994 -0.005,0.05684 -0.0586,0.04823 -0.12751,0.08268 -0.20671,0.103353 -0.0758,0.0207 -0.13773,0.02583 -0.18603,0.0155 -0.093,-0.02067 -0.15504,-0.05857 -0.18604,-0.113688 -0.031,-0.05857 -0.0465,-0.137802 -0.0465,-0.237712 v -0.04651 c 0,-0.02412 -0.002,-0.04824 -0.005,-0.07235 -0.004,-0.02411 -0.008,-0.04478 -0.0155,-0.06201 -0.004,-0.02067 -0.0104,-0.03101 -0.0207,-0.03101 -0.0482,0 -0.0827,0.02239 -0.10335,0.06718 -0.0208,0.04479 -0.0332,0.08957 -0.0362,0.134359 -0.007,0.05168 -0.0206,0.11713 -0.0413,0.19637 -0.0207,0.07924 -0.0534,0.144701 -0.0982,0.196371 -0.0483,0.05512 -0.0965,0.09991 -0.1447,0.134359 -0.0448,0.03101 -0.0964,0.05857 -0.15503,0.08268 -0.0551,0.02409 -0.11193,0.03784 -0.17053,0.04134 -0.0586,0 -0.11366,-0.01895 -0.16536,-0.05684 -0.0345,-0.031 -0.0569,-0.06374 -0.0672,-0.09819 -0.0105,-0.03445 -0.0155,-0.07579 -0.0155,-0.124024 0.003,-0.05168 0.0104,-0.103359 0.0207,-0.155029 0.0138,-0.05168 0.031,-0.09647 0.0517,-0.134359 0.0345,-0.06548 0.0315,-0.09652 -0.01,-0.09302 -0.0414,0.01378 -0.081,0.04479 -0.11885,0.09302 -0.0345,0.04478 -0.0655,0.09819 -0.093,0.160197 -0.0275,0.06546 -0.0482,0.136084 -0.062,0.211874 -0.0133,0.07235 -0.0173,0.142973 -0.0103,0.211873 0.0138,0.155027 0.062,0.263552 0.1447,0.325561 0.0861,0.06203 0.18603,0.09135 0.29972,0.08785 0.14125,-0.0034 0.26355,-0.04478 0.3669,-0.124023 0.0964,-0.07572 0.18264,-0.189179 0.25839,-0.340548 0.0516,0.07549 0.12032,0.133954 0.20618,0.175183 0.0861,0.04134 0.19293,0.04995 0.3204,0.02584 0.14469,-0.02756 0.25149,-0.09302 0.32039,-0.196371 0.0723,-0.103353 0.12923,-0.218764 0.17053,-0.346232 0.0103,-0.05168 0.0188,-0.115413 0.0258,-0.191203 0.007,-0.07579 0.007,-0.149858 0,-0.222208 -0.004,-0.07579 -0.0155,-0.142969 -0.0362,-0.201538 -0.0172,-0.05857 -0.043,-0.09646 -0.0775,-0.113689 z m -0.33021,6.924642 c -0.0207,-0.01723 -0.0413,-0.01206 -0.062,0.0155 l -0.42375,0.542603 -0.62011,-0.470256 c -0.0138,-0.01377 -0.0259,-0.02067 -0.0362,-0.02067 -0.0103,0 -0.0224,0.01034 -0.0362,0.03101 l -0.41858,0.594278 c -0.0173,0.02411 -0.0138,0.04478 0.0103,0.06201 l 0.65629,0.506429 c 0.0275,0.02067 0.0534,0.01551 0.0775,-0.0155 l 0.40308,-0.552938 0.61495,0.480591 c 0.0275,0.02074 0.0465,0.02934 0.0568,0.02584 0.0103,0 0.0241,-0.01034 0.0413,-0.03101 l 0.39274,-0.547771 c 0.0241,-0.03101 0.0241,-0.05512 0,-0.07235 z m 4.29431,0.08268 c -0.007,-0.0034 -0.0242,5e-6 -0.0517,0.01033 -0.16881,0.05168 -0.34623,0.106795 -0.53227,0.165364 -0.18603,0.05857 -0.36863,0.115413 -0.54777,0.170533 -0.1757,0.05857 -0.33934,0.111967 -0.49093,0.160197 -0.15158,0.05167 -0.2739,0.09474 -0.3669,0.129191 -0.0207,0.0069 -0.0362,0.01551 -0.0465,0.02584 -0.007,0.01033 -0.0155,0.02584 -0.0258,0.04651 l -0.21187,0.392741 c -0.0276,0.05168 -0.0138,0.06891 0.0413,0.05168 0.29973,-0.09646 0.61323,-0.199816 0.94051,-0.310059 0.32728,-0.110242 0.65974,-0.218764 0.99736,-0.325561 0.0138,-0.0035 0.024,-0.01206 0.031,-0.02584 0.0103,-0.01033 0.0207,-0.02239 0.031,-0.03617 l 0.22221,-0.403076 c 0.0133,-0.02756 0.0173,-0.04478 0.0103,-0.05168 z" />
      </g>
    </g>
  </g>
</svg>
