<?xml version="1.0" encoding="UTF-8" standalone="no"?>
<!-- Created with Inkscape (http://www.inkscape.org/) -->

<svg
   width="5.3734078mm"
   height="9.3577547mm"
   viewBox="0 0 5.3734081 9.3577544"
   version="1.1"
   id="svg1"
   xmlns="http://www.w3.org/2000/svg"
   xmlns:svg="http://www.w3.org/2000/svg">
  <defs
     id="defs1" />
  <g
     id="layer1"
     transform="translate(-183.09467,-59.835324)">
    <g
       id="g11"
       transform="translate(9.1205721)">
      <g
         id="g3">
        <path
           id="path30-8"
           style="fill:#000000;fill-opacity:1;fill-rule:nonzero;stroke:none"
           d="m 0,0 c 0,7.04 -1.05,12.09 -3.17,15.13 -1.4,2.05 -4,3.759999 -7.8,5.12 1.38,4.049999 2.94,9.43 4.69,16.139999 0.64,4.16 0.95,6.970002 0.95,8.430001 0,1.979999 -0.26,3.580002 -0.79,4.799999 -0.66,1.600002 -1.12,2.389999 -1.37,2.380001 -0.1,0.01 -0.56,-2.279999 -1.37,-6.860001 -1.02,-5.86 -2.74,-11.259998 -5.17,-16.189998 C -15.89,25.17 -18.52,20.719999 -21.940001,15.61 c -2.35,-3.5 -3.529998,-5.91 -3.529998,-7.23 0,-0.34 0.25,-1.06 0.739999,-2.16 0.600001,-1.29 1.029999,-2.66 1.31,-4.11 0.18,-0.8 0.43,-1.2 0.74,-1.21 0.08,0.01 1.26,1.38 3.540001,4.12 2.279998,2.74 4.639999,4.08 7.059999,4 3.98,-0.1 6.61,-1.22 7.91,-3.38 0.36,-0.55 1.06,-3.12 2.11,-7.7 0.08,-0.3 0.25,-0.46 0.53,-0.47 C -0.51,-2.52 0,-1.68 0,0 Z"
           transform="matrix(0.14594677,0,0,0.14594677,178.41516,60.771598)" />
      </g>
    </g>
  </g>
</svg>
