<?xml version="1.0" encoding="UTF-8" standalone="no"?>
<!-- Created with Inkscape (http://www.inkscape.org/) -->

<svg
   version="1.1"
   id="svg1"
   width="3.556644"
   height="5.3198667"
   viewBox="0 0 3.5566439 5.3198667"
   xmlns="http://www.w3.org/2000/svg"
   xmlns:svg="http://www.w3.org/2000/svg">
  <defs
     id="defs1">
    <clipPath
       clipPathUnits="userSpaceOnUse"
       id="clipPath24">
      <path
         d="m 201.965,294.919 h 2.668 v -3.99 h -2.668 z"
         transform="translate(-204.49021,-294.8569)"
         id="path24" />
    </clipPath>
    <clipPath
       clipPathUnits="userSpaceOnUse"
       id="clipPath26">
      <path
         d="M 0,547.086 H 382.677 V 0 H 0 Z"
         transform="matrix(1.3333333,0,0,-1.3333333,0,729.448)"
         id="path26" />
    </clipPath>
  </defs>
  <g
     id="layer-MC1"
     transform="translate(-269.28693,-336.2228)">
    <g
       id="g25"
       clip-path="url(#clipPath26)">
      <path
         d="m 0,0 c 0,-0.218 -0.093,-0.405 -0.124,-0.468 -0.219,-0.249 -0.655,-0.187 -0.748,0.031 -0.031,0.094 0,0.187 0,0.281 0,0.062 -0.031,0.094 -0.063,0.094 -0.062,0 -0.062,-0.032 -0.093,-0.094 -0.032,-0.156 -0.063,-0.281 -0.125,-0.374 -0.249,-0.343 -0.686,-0.312 -0.936,-0.062 -0.124,0.093 -0.218,0.311 -0.279,0.436 -0.032,0.062 -0.063,0.094 -0.095,0 L -2.4,-0.187 -2.525,-0.842 c 0,-0.062 0.032,-0.062 0.062,-0.156 0.219,-0.53 0.343,-0.748 0.53,-1.215 0.188,-0.531 0.282,-0.873 0.374,-1.528 0,-0.063 0,-0.187 0.094,-0.187 0.063,0 0.094,0.062 0.094,0.124 0.093,0.655 0,1.435 -0.28,2.12 -0.033,0.063 -0.033,0.094 0,0.094 h 0.092 c 0.219,0 0.437,0.187 0.531,0.405 0.281,-0.28 0.685,-0.312 0.935,0 C 0.156,-0.904 0.187,-0.25 0.095,0 0.095,0.062 0.062,0.062 0.062,0.062 0.032,0.062 0,0.031 0,0"
         style="fill:#231f20;fill-opacity:1;fill-rule:evenodd;stroke:none"
         transform="matrix(1.3333333,0,0,-1.3333333,272.6536,336.30547)"
         clip-path="url(#clipPath24)"
         id="path25" />
    </g>
  </g>
</svg>
