<?xml version="1.0" encoding="UTF-8" standalone="no"?>
<!-- Created with Inkscape (http://www.inkscape.org/) -->

<svg
   version="1.1"
   id="svg1"
   width="3.1613333"
   height="5.3462801"
   viewBox="0 0 3.1613333 5.3462801"
   xmlns="http://www.w3.org/2000/svg"
   xmlns:svg="http://www.w3.org/2000/svg">
  <defs
     id="defs1">
    <clipPath
       clipPathUnits="userSpaceOnUse"
       id="clipPath33">
      <path
         d="m 190.986,252.327 h 2.371 v -4.011 h -2.371 z"
         transform="translate(-190.9995,-252.26371)"
         id="path33" />
    </clipPath>
    <clipPath
       clipPathUnits="userSpaceOnUse"
       id="clipPath35">
      <path
         d="M 0,547.086 H 382.677 V 0 H 0 Z"
         transform="matrix(1.3333333,0,0,-1.3333333,0,729.448)"
         id="path35" />
    </clipPath>
  </defs>
  <g
     id="layer-MC1"
     transform="translate(-254.648,-393.01373)">
    <g
       id="g34"
       clip-path="url(#clipPath35)">
      <path
         d="m 0,0 c 0,-0.125 -0.031,-0.343 0,-0.562 0.031,-0.28 0.28,-0.435 0.529,-0.466 0.312,-0.032 0.624,0 0.935,0.061 0.063,0 0.093,-0.03 0.093,-0.093 0,-0.561 0,-0.904 0.063,-1.278 0.062,-0.53 0.186,-1.06 0.436,-1.528 0.031,-0.093 0.094,-0.124 0.125,0 0.03,0.156 0.093,0.344 0.155,0.53 0.033,0.094 0.033,0.125 -0.03,0.219 -0.375,0.779 -0.406,1.465 -0.5,2.369 -0.031,0.343 0,0.654 -0.467,0.593 l 0.063,0.061 C 1.184,-0.155 0.935,-0.187 0.686,-0.187 0.436,-0.187 0.125,-0.094 0.125,0 0.125,0.031 0.093,0.062 0.062,0.062 0.031,0.062 0,0.031 0,0"
         style="fill:#231f20;fill-opacity:1;fill-rule:evenodd;stroke:none"
         transform="matrix(1.3333333,0,0,-1.3333333,254.666,393.0964)"
         clip-path="url(#clipPath33)"
         id="path34" />
    </g>
  </g>
</svg>
