<?xml version="1.0" encoding="UTF-8" standalone="no"?>
<!-- Created with Inkscape (http://www.inkscape.org/) -->

<svg
   width="5.3734078mm"
   height="9.3577547mm"
   viewBox="0 0 5.3734081 9.3577544"
   version="1.1"
   id="svg1"
   xmlns="http://www.w3.org/2000/svg"
   xmlns:svg="http://www.w3.org/2000/svg">
  <defs
     id="defs1" />
  <g
     id="layer1"
     transform="translate(-183.09467,-59.835324)">
    <g
       id="g11"
       transform="translate(61.692488)">
      <g
         id="g7"
         transform="translate(-17.469405)">
        <path
           id="path70"
           style="fill:#000000;fill-opacity:1;fill-rule:nonzero;stroke:none"
           d="M 0,0 C 0,2.82 -0.51,5.01 -1.53,6.59 -1.99,7.3 -2.5,7.65 -3.06,7.64 -4.82,7.65 -6.73,4.93 -8.81,-0.53 c -1.79,-4.67 -3.04,-9.68 -3.74,-15.03 -0.38,-2.94 -0.75,-7.94 -1.11,-14.980001 -3.370001,1.280001 -7.33,1.910002 -11.870001,1.900002 C -32.66,-28.629999 -36.23,-30.110001 -36.23,-33.07 c 0,-1.43 0.3,-3.080002 0.899998,-4.959999 0.780003,-2.34 1.720001,-3.52 2.84,-3.530002 0.220002,0.01 0.430001,0.05 0.640002,0.11 3.130001,1.130001 6.42,1.690003 9.86,1.680001 1.619999,0.01 3.51,-0.130002 5.690001,-0.41 2.179999,-0.279999 3.519999,-0.419998 4.009999,-0.430001 1.34,0.01 2.04,0.5 2.11,1.48 0.6,10.310001 1.83,18.68 3.69,25.100001 0.53,1.8 1.81,4.42 3.85,7.86 C -0.88,-3.21 0,-1.15 0,0 Z"
           transform="matrix(0.14594677,0,0,0.14594677,144.20086,66.813795)" />
      </g>
    </g>
  </g>
</svg>
