<?xml version="1.0" encoding="UTF-8" standalone="no"?>
<!-- Created with Inkscape (http://www.inkscape.org/) -->

<svg
   version="1.1"
   id="svg1"
   width="3.9030128"
   height="6.1422534"
   viewBox="0 0 3.9030127 6.1422534"
   xmlns="http://www.w3.org/2000/svg"
   xmlns:svg="http://www.w3.org/2000/svg">
  <defs
     id="defs1">
    <clipPath
       clipPathUnits="userSpaceOnUse"
       id="clipPath61">
      <path
         d="m 110.628,406.841 h 2.928 v -4.607 h -2.928 z"
         transform="translate(-113.1685,-406.69731)"
         id="path61" />
    </clipPath>
    <clipPath
       clipPathUnits="userSpaceOnUse"
       id="clipPath63">
      <path
         d="M 0,547.086 H 382.677 V 0 H 0 Z"
         transform="matrix(1.3333333,0,0,-1.3333333,0,729.448)"
         id="path63" />
    </clipPath>
  </defs>
  <g
     id="layer-MC2"
     transform="translate(-147.50432,-186.99334)">
    <g
       id="g62"
       clip-path="url(#clipPath63)">
      <path
         d="m 0,0 c -0.496,-0.875 -0.756,-2 -0.891,-2.69 -0.176,0.47 -0.731,1.875 -1.412,2.707 -0.068,0.092 -0.151,0.067 -0.159,-0.068 -0.026,-0.201 -0.068,-0.47 -0.076,-0.672 -0.009,-0.092 0.008,-0.168 0.067,-0.227 0.689,-1.026 1.277,-2.043 1.522,-3.362 0.025,-0.067 0.016,-0.151 0.109,-0.151 0.067,0 0.109,0.05 0.117,0.151 0.227,1.37 0.48,2.395 1.035,3.479 0.041,0.093 0.075,0.11 0.075,0.203 C 0.328,-0.462 0.261,-0.152 0.236,0.008 0.176,0.219 0.101,0.16 0,0"
         style="fill:#231f20;fill-opacity:1;fill-rule:evenodd;stroke:none"
         transform="matrix(1.3333333,0,0,-1.3333333,150.89133,187.18493)"
         clip-path="url(#clipPath61)"
         id="path62" />
    </g>
  </g>
</svg>
