<?xml version="1.0" encoding="UTF-8" standalone="no"?>
<!-- Created with Inkscape (http://www.inkscape.org/) -->

<svg
   width="5.3734078mm"
   height="9.3577547mm"
   viewBox="0 0 5.3734081 9.3577544"
   version="1.1"
   id="svg1"
   xmlns="http://www.w3.org/2000/svg"
   xmlns:svg="http://www.w3.org/2000/svg">
  <defs
     id="defs1" />
  <g
     id="layer1"
     transform="translate(-183.09467,-59.835324)">
    <g
       id="g11"
       transform="translate(70.625972)">
      <g
         id="g10">
        <path
           id="path100"
           style="fill:#000000;fill-opacity:1;fill-rule:nonzero;stroke:none"
           d="m 0,0 c 0.53,0.88 0.79,1.9 0.79,3.06 0,0.82 -0.44,2.87 -1.32,6.17 -0.56,1.24 -1.05,1.85 -1.47,1.84 -0.42,0.01 -0.97,-0.34 -1.64,-1.05 -2.88,-3.16 -5.27,-7.71 -7.17,-13.66 -1.65,-5.09 -2.63,-10.03 -2.95,-14.819999 -3.48,2.359999 -6.08,3.539999 -7.81,3.529999 -0.45,0.01 -0.91,-0.04 -1.370001,-0.16 -2.139999,-0.41 -3.869998,-1.459999 -5.17,-3.16 -1.299999,-1.57 -1.959999,-3.43 -2,-5.59 -0.1,-4.030001 0.780001,-8.020001 2.640002,-11.970001 2,-4.32 4.319999,-6.459999 6.959999,-6.430001 3.76,0.08 6.63,2.730004 8.59,7.960003 1.06,2.859999 1.97,7.199999 2.74,13.019999 0.6,4.550001 1.89,8.7 3.85,12.45 1.76,2.96 3.54,5.9 5.33,8.81 z M -18.51,-29.059999 C -18.51,-29.65 -18.940001,-30.16 -19.799999,-30.58 -20.66,-31 -21.530001,-31.190001 -22.41,-31.17 c -1.370001,0.360001 -2.18,1.08 -2.43,2.16 -0.31,1.559999 0.729999,2.33 3.11,2.319999 0.680001,0.01 1.260001,-0.109998 1.74,-0.369998 0.99,-0.860001 1.48,-1.530001 1.48,-2 z"
           transform="matrix(0.14594677,0,0,0.14594677,117.35103,66.590494)" />
      </g>
    </g>
  </g>
</svg>
