<?xml version="1.0" encoding="UTF-8" standalone="no"?>
<!-- Created with Inkscape (http://www.inkscape.org/) -->

<svg
   version="1.1"
   id="svg1"
   width="61.923889"
   height="18.175385"
   viewBox="0 0 61.923889 18.175385"
   sodipodi:docname="001___Hafs39__DM.ai"
   xmlns:inkscape="http://www.inkscape.org/namespaces/inkscape"
   xmlns:sodipodi="http://sodipodi.sourceforge.net/DTD/sodipodi-0.dtd"
   xmlns="http://www.w3.org/2000/svg"
   xmlns:svg="http://www.w3.org/2000/svg">
  <defs
     id="defs1">
    <clipPath
       clipPathUnits="userSpaceOnUse"
       id="clipPath39">
      <path
         d="M 168.117,406.886 H 214.56 V 393.254 H 168.117 Z"
         transform="translate(-197.2852,-406.51511)"
         id="path39" />
    </clipPath>
    <clipPath
       clipPathUnits="userSpaceOnUse"
       id="clipPath41">
      <path
         d="M 0,547.086 H 382.677 V 0 H 0 Z"
         transform="matrix(1.3333333,0,0,-1.3333333,0,729.448)"
         id="path41" />
    </clipPath>
  </defs>
  <sodipodi:namedview
     id="namedview1"
     pagecolor="#ffffff"
     bordercolor="#666666"
     borderopacity="1.0"
     inkscape:showpageshadow="2"
     inkscape:pageopacity="0.0"
     inkscape:pagecheckerboard="0"
     inkscape:deskcolor="#d1d1d1" />
  <g
     id="layer-MC2"
     inkscape:groupmode="layer"
     inkscape:label="Quran Text"
     transform="translate(-224.1561,-186.93387)">
    <g
       id="g40"
       clip-path="url(#clipPath41)">
      <path
         d="m 0,0 c -0.163,-0.229 -0.262,-0.818 -0.065,-0.982 0.229,-0.164 0.556,-0.294 0.556,-0.294 -1.048,-1.278 -1.735,-1.506 -2.357,-1.867 v 0.034 c -0.163,-0.099 -0.13,-0.164 -0.032,-0.164 0.032,0 0.851,0.13 1.833,0.851 0.523,0.393 0.818,1.047 0.818,1.047 0,0 0.263,-0.229 0.295,-0.261 0.065,-0.098 0.131,-0.164 0.164,-0.066 0.131,0.393 -0.066,0.589 -0.23,0.72 0,0 0.197,0.589 -0.164,1.178 C 0.753,0.295 0.425,0.622 0,0 M 0.557,-0.131 C 0.785,-0.36 0.753,-0.72 0.753,-0.785 H 0.721 c 0,0 -0.296,0.131 -0.426,0.196 -0.131,0.065 -0.197,0.131 -0.131,0.229 0.196,0.295 0.294,0.295 0.393,0.229 m -3.928,0.393 c -0.033,-0.098 -0.295,-0.753 -0.295,-0.753 0,-0.033 0.065,-0.327 0.099,-0.426 0.129,-0.948 0.917,-6.612 1.145,-8.379 0.098,-0.884 0.196,-1.67 0.196,-2.096 0,-0.13 0.033,-0.196 0.098,-0.065 0.032,0.065 0.164,0.359 0.197,1.08 0.033,0.557 0,1.408 -0.165,2.554 -0.032,0.163 -0.85,6.055 -0.85,6.055 0,0 0.426,-0.425 0.524,-0.49 0.065,-0.066 0.163,-0.034 0.131,0.098 -0.033,0.131 -0.95,2.291 -0.982,2.389 -0.034,0.066 -0.066,0.131 -0.098,0.033 m -2.422,0 c -0.034,-0.098 -0.263,-0.687 -0.263,-0.687 0.066,-0.36 1.244,-8.413 1.277,-8.905 0.033,-0.49 0.196,-0.916 -1.179,-1.145 -0.229,-0.033 -1.113,-0.065 -1.505,0.524 0.229,0.196 0.818,0.523 0.818,1.637 -0.131,1.603 -0.981,1.603 -1.211,1.538 -0.229,-0.065 -0.72,-0.328 -0.852,-1.44 0,-0.361 0.066,-0.917 0.263,-1.408 -0.655,-0.36 -2.684,-1.342 -4.092,-1.047 -0.36,0.065 -1.342,0.163 -1.767,1.963 -0.197,0.786 -0.524,4.092 -0.524,4.092 0,0 -0.263,2.521 -0.459,3.47 -0.065,0.328 -0.196,0.917 -0.262,1.146 -0.065,0.196 -0.098,0.229 -0.163,0.098 -0.099,-0.131 -0.295,-0.36 -0.163,-1.015 0.13,-0.654 0.424,-2.095 0.555,-3.175 0.066,-0.622 0.393,-3.633 0.426,-3.993 0.033,-0.361 0,-3.143 2.095,-3.536 0.491,-0.098 1.44,-0.13 2.946,0.426 0.557,0.196 1.768,0.818 1.768,0.818 0.229,-0.36 0.589,-1.211 2.226,-1.015 0.295,0.034 1.08,0.197 1.44,1.146 0.098,0.262 0.164,0.884 0.065,1.637 h 0.033 c -0.033,0.261 -1.048,6.841 -1.048,6.841 0,0 0.427,-0.425 0.524,-0.49 0.066,-0.066 0.164,-0.034 0.132,0.098 -0.033,0.131 -0.95,2.291 -0.982,2.389 -0.034,0.066 -0.066,0.131 -0.098,0.033 m -1.278,-8.675 c 0.197,-0.393 -0.72,-0.917 -0.85,-0.982 0,0 -0.328,0.852 -0.393,1.047 -0.066,0.197 -0.033,0.426 0.36,0.59 0.392,0.164 0.687,-0.262 0.883,-0.655 m -4.19,8.544 c -0.392,-0.524 -0.425,-1.212 -0.491,-1.964 -0.065,0.164 -0.392,1.179 -1.439,1.768 -0.066,0.032 -0.23,-0.033 -0.23,-0.295 0,-0.131 -0.033,-0.491 0.066,-0.589 h -0.033 c 0.098,-0.098 0.393,-0.295 0.426,-0.327 0.065,-0.033 0.098,-0.033 0.13,0.032 0,0.066 0.066,0.197 0.164,0.098 0.065,-0.065 0.589,-0.49 0.851,-1.408 0.033,-0.13 0.164,-0.13 0.196,0.033 0.066,0.426 0.099,1.146 0.132,1.375 0.032,0.295 0.196,0.95 0.589,0.622 0.098,-0.065 0.196,-0.163 0.196,-0.163 0.099,-0.098 0.196,-0.23 0.229,-0.098 0.065,0.196 0.131,0.491 0.065,0.654 -0.032,0.066 -0.523,0.688 -0.851,0.262 m 4.551,-1.833 c -0.164,-0.098 -6.481,-3.535 -6.678,-3.634 -0.196,-0.098 -0.229,-0.131 -0.262,-0.261 -0.033,-0.131 -0.033,-0.197 -0.065,-0.23 l 0.032,-0.032 c -0.032,-0.098 -0.066,-0.197 0.197,-0.034 0.098,0.034 6.448,3.504 6.58,3.601 0.13,0.099 0.228,0.132 0.294,0.263 0.065,0.131 0.065,0.164 0.098,0.261 0.033,0.099 0.065,0.197 -0.196,0.066 m -1.703,-3.012 -0.425,-0.589 v -0.065 l 0.753,-0.557 h 0.065 l 0.426,0.589 v 0.066 l -0.753,0.556 z m -2.75,-1.767 c -0.098,-0.23 -0.458,-0.983 -0.326,-1.867 0.032,-0.195 0.196,-0.589 0.524,-0.589 0.163,0 0.392,0.131 0.523,0.655 0.032,0.131 0.032,0.197 0.032,0.262 0,0.065 -0.032,0.131 -0.098,0 -0.097,-0.328 -0.425,-0.557 -0.687,-0.164 -0.033,0.066 -0.229,0.426 0.032,1.277 V -6.94 c 0.066,0.164 0.131,0.394 0.131,0.394 0.067,0.195 -0.032,0.261 -0.131,0.065 M 11.13,0 C 10.737,-0.524 10.705,-1.211 10.639,-1.964 10.574,-1.8 10.246,-0.785 9.199,-0.196 9.134,-0.164 8.97,-0.229 8.97,-0.491 c 0,-0.131 -0.033,-0.491 0.065,-0.59 H 9.002 C 9.1,-1.178 9.396,-1.375 9.428,-1.408 9.493,-1.44 9.526,-1.44 9.559,-1.375 c 0,0.066 0.065,0.197 0.164,0.099 0.064,-0.066 0.589,-0.492 0.851,-1.408 0.032,-0.131 0.163,-0.131 0.197,0.032 0.064,0.426 0.096,1.146 0.129,1.376 0.034,0.294 0.197,0.949 0.589,0.622 0.099,-0.066 0.198,-0.164 0.198,-0.164 0.098,-0.099 0.196,-0.229 0.229,-0.099 0.065,0.197 0.131,0.492 0.065,0.655 C 11.949,-0.196 11.458,0.426 11.13,0 m 3.371,-0.229 h 0.033 c -0.164,-0.229 -0.262,-0.818 -0.064,-0.982 0.229,-0.164 0.555,-0.295 0.555,-0.295 -1.046,-1.276 -3.076,-2.193 -3.567,-2.553 -0.132,-0.098 -0.132,-0.164 -0.033,-0.164 0.064,0.033 1.637,0.458 3.045,1.669 0.654,0.557 0.621,0.59 0.784,0.95 0.132,-0.065 0.229,-0.196 0.295,-0.261 0.065,-0.099 0.131,-0.164 0.164,-0.067 0.132,0.394 -0.066,0.59 -0.23,0.721 0,0 0.197,0.589 -0.163,1.178 -0.066,0.099 -0.393,0.426 -0.819,-0.196 m 0.59,-0.164 c 0.229,-0.229 0.196,-0.589 0.196,-0.654 0,0 -0.295,0.13 -0.425,0.196 h -0.034 c -0.129,0.066 -0.195,0.131 -0.129,0.229 0.196,0.295 0.293,0.295 0.392,0.229 M 7.104,0.033 C 6.939,-0.065 3.109,-2.258 2.946,-2.356 2.783,-2.455 2.75,-2.488 2.717,-2.618 2.685,-2.75 2.685,-2.815 2.685,-2.815 H 2.651 C 2.619,-2.88 2.619,-2.979 2.848,-2.848 c 0.065,0.033 3.927,2.291 4.059,2.357 0.131,0.066 0.197,0.131 0.262,0.229 0.065,0.131 0.065,0.131 0.099,0.229 C 7.3,0.066 7.333,0.164 7.104,0.033 M -18.331,0 c -0.065,-0.164 -0.36,-0.753 -0.294,-1.408 h -0.034 c 0,-0.163 0.099,-0.457 0.361,-0.457 0.131,0 0.295,0.097 0.392,0.457 0.033,0.099 0.033,0.164 0.033,0.197 0,0.065 -0.033,0.098 -0.065,0 -0.098,-0.229 -0.328,-0.393 -0.492,-0.098 -0.032,0.065 -0.13,0.36 0.066,0.982 0.033,0.131 0.098,0.294 0.098,0.294 0.033,0.131 0,0.197 -0.065,0.033 m -4.419,-0.294 c -0.393,-0.491 -0.426,-1.146 -0.458,-1.866 -0.066,0.163 -0.361,1.113 -1.342,1.669 -0.067,0.033 -0.23,-0.033 -0.23,-0.262 0,-0.131 -0.033,-0.458 0.033,-0.556 v -0.033 c 0.099,-0.098 0.36,-0.262 0.425,-0.294 0.033,-0.033 0.098,-0.033 0.098,0.032 0,0.066 0.066,0.196 0.164,0.098 0.065,-0.065 0.557,-0.491 0.819,-1.342 0.033,-0.098 0.164,-0.131 0.164,0.033 0.065,0.393 0.098,1.081 0.131,1.309 0.032,0.295 0.196,0.884 0.556,0.589 0.098,-0.065 0.163,-0.164 0.163,-0.164 0.066,-0.097 0.164,-0.228 0.229,-0.097 0.066,0.164 0.132,0.458 0.066,0.621 -0.033,0.066 -0.491,0.655 -0.818,0.263 m -3.699,-1.048 c -0.098,-0.229 -0.459,-0.982 -0.328,-1.866 v -0.033 c 0.033,-0.196 0.197,-0.589 0.524,-0.589 0.164,0 0.393,0.131 0.524,0.655 0.033,0.131 0.033,0.196 0.033,0.262 0,0.065 -0.033,0.131 -0.098,0 -0.099,-0.328 -0.426,-0.557 -0.688,-0.164 -0.033,0.065 -0.229,0.425 0.033,1.277 0.065,0.164 0.131,0.392 0.131,0.392 0.065,0.197 -0.033,0.262 -0.131,0.066 m 6.284,-1.276 c -0.163,-0.066 -3.469,-1.67 -3.633,-1.736 h -0.065 c -0.163,-0.065 -0.197,-0.131 -0.23,-0.262 -0.032,-0.131 -0.032,-0.196 -0.032,-0.196 -0.033,-0.065 -0.033,-0.164 0.196,-0.033 0.066,0.033 3.438,1.637 3.568,1.702 0.131,0.066 0.196,0.131 0.262,0.23 0.065,0.131 0.065,0.131 0.098,0.229 0.034,0.099 0.066,0.163 -0.164,0.066 M 7.758,-3.012 C 7.692,-3.208 7.366,-3.863 7.398,-4.616 h 0.066 c 0,-0.163 0.132,-0.523 0.392,-0.523 0.131,0 0.328,0.098 0.426,0.523 0.033,0.099 0.033,0.164 0.033,0.23 0,0.065 -0.033,0.13 -0.066,0 C 8.15,-4.648 7.89,-4.845 7.692,-4.485 c -0.032,0.066 -0.163,0.393 0.066,1.081 0.033,0.131 0.098,0.327 0.098,0.327 0.066,0.164 0,0.229 -0.098,0.065 m -25.532,0.524 -0.361,-0.524 -0.719,0.524 h -0.066 l -0.426,-0.589 v -0.066 l 0.753,-0.556 h 0.066 l 0.36,0.524 0.72,-0.524 h 0.065 l 0.426,0.59 v 0.065 l -0.753,0.556 z m 32.996,-0.916 c -0.065,-0.164 -0.36,-0.786 -0.327,-1.473 0,-0.164 0.13,-0.491 0.359,-0.491 0.132,0 0.295,0.098 0.393,0.491 0.033,0.098 0.033,0.163 0.033,0.196 0,0.065 -0.033,0.131 -0.066,0 -0.097,-0.229 -0.327,-0.425 -0.523,-0.098 -0.033,0.065 -0.164,0.36 0.066,1.014 h 0.031 c 0.034,0.132 0.099,0.328 0.099,0.328 0.066,0.131 0,0.229 -0.065,0.033 m -43.963,-0.688 c -0.098,-0.36 -0.556,-1.538 -0.392,-2.946 h 0.032 c 0.033,-0.327 0.262,-0.917 0.688,-0.917 0.228,0 0.491,0.197 0.654,1.015 0.033,0.164 0.033,0.328 0.033,0.394 0,0.098 -0.066,0.229 -0.131,-0.034 -0.131,-0.49 -0.524,-0.851 -0.884,-0.229 -0.065,0.132 -0.294,0.688 0,1.997 0.065,0.262 0.132,0.622 0.132,0.622 0.065,0.294 -0.034,0.425 -0.132,0.098 M 1.31,-3.404 0.949,-3.928 0.229,-3.404 H 0.164 l -0.426,-0.59 v -0.065 l 0.753,-0.557 h 0.066 l 0.36,0.524 0.72,-0.524 h 0.066 l 0.425,0.59 v 0.065 l -0.753,0.557 z m 2.946,-0.95 C 4.223,-4.452 4.158,-4.877 4.124,-4.976 c -0.032,-0.098 0,-0.163 0.034,-0.261 0.032,-0.066 0.163,-0.328 0.229,-0.557 0.066,-0.229 0.917,-1.833 1.014,-1.997 0.066,-0.131 0.099,-0.262 0.034,-0.36 -2.718,-2.848 -7.923,-4.616 -8.085,-4.714 -0.165,-0.098 -0.132,-0.163 0.162,-0.131 0.425,0.066 2.783,0.458 3.437,0.786 0.426,0.229 1.997,0.982 3.241,1.964 -0.032,-0.262 -0.066,-0.622 -0.066,-1.112 0.099,-2.292 2.129,-1.932 2.685,-1.801 1.604,0.36 3.601,2.586 3.765,3.044 0.163,0.458 0.197,0.851 0.163,1.211 0.425,0.229 1.342,0.982 1.342,0.982 0.033,-0.982 0.818,-1.276 1.048,-1.309 1.112,-0.164 1.701,0.753 1.931,1.08 0.196,-0.524 0.688,-0.655 0.95,-0.687 0.981,-0.197 1.145,0.49 1.211,0.654 h -0.032 c 0.293,0.95 -0.23,1.638 -0.329,1.736 -0.065,0.065 -0.098,0 -0.129,-0.098 -0.034,-0.099 -0.099,-0.426 -0.165,-0.655 0,0 0.196,-0.328 0.261,-0.491 0.067,-0.164 -0.032,-0.263 -0.228,-0.296 -0.589,-0.065 -1.048,0.263 -1.211,0.426 -0.164,0.164 0,0.426 0.131,0.753 0.097,0.263 -0.099,0.294 -0.23,0 -0.49,-1.309 -1.211,-1.44 -1.375,-1.505 -1.669,-0.458 -1.538,1.08 -1.505,1.309 0,0.262 -0.164,0.164 -0.393,0 -0.688,-0.557 -1.277,-0.884 -1.572,-1.015 -0.261,0.524 -0.655,0.819 -0.785,0.95 -1.801,1.309 -1.965,-1.343 -1.899,-1.638 0.263,-1.112 2.129,-0.458 2.389,-0.425 0.295,0.033 0.198,-0.36 0.034,-0.589 -0.394,-0.557 -0.852,-0.949 -1.277,-1.309 -1.8,-1.441 -2.684,-1.343 -2.946,-1.343 -1.768,0.066 -1.604,1.932 -1.505,2.357 0.523,0.459 0.982,0.917 1.242,1.44 0.1,0.263 0.296,0.885 -0.032,1.67 -0.163,0.361 -0.72,1.31 -0.72,1.31 h 0.458 c 0.034,0 0.131,0.032 0,0.163 -0.097,0.098 -0.948,0.982 -1.014,1.048 -0.066,0.065 -0.099,0.13 -0.131,0.032 m 5.401,-3.895 c 0,0 -0.261,-0.131 -0.917,-0.099 -0.59,0.034 -0.524,0.263 -0.458,0.36 0.098,0.099 0.785,0.524 1.375,-0.261 m -27.824,3.404 c -0.033,-0.032 -0.458,-0.294 -0.753,-0.785 -0.294,-0.491 -0.655,-1.179 -1.571,-1.67 -0.23,-0.131 -1.441,-0.753 -1.507,-0.884 -0.065,-0.13 -0.229,-0.458 -0.261,-0.588 -0.033,-0.099 0,-0.197 0.098,-0.165 0.262,0.197 3.307,-0.261 3.307,-0.261 -0.165,-0.132 -1.376,-0.95 -2.685,-1.211 -0.426,-0.099 -1.342,-0.262 -1.866,0.818 -0.131,0.229 -0.36,1.243 -1.212,0.916 -0.818,-0.327 -1.44,-0.982 -1.734,-1.8 -0.295,-0.818 -0.589,-1.506 -0.949,-1.506 -0.328,0 -1.179,0.491 -1.277,1.735 -0.032,0.262 0.033,0.982 0.098,1.179 0.033,0.196 -0.098,0.327 -0.164,0.098 -0.065,-0.229 -0.654,-2.75 0.884,-3.666 0.131,-0.066 0.786,-0.361 1.146,0.327 0.131,0.262 0.687,2.095 1.539,2.619 0.228,0.131 0.785,0.425 1.014,0.065 0.23,-0.36 0.491,-1.604 1.735,-1.703 0.164,0 0.851,-0.13 2.75,0.852 0.163,0.098 1.735,1.015 2.357,1.113 v 0.032 c 0.327,0.066 1.407,0.132 1.407,0.132 0.066,0.098 0.393,0.655 0.459,0.752 0.032,0.066 0.098,0.164 -0.099,0.132 -0.196,0 -1.636,-0.066 -2.52,0 -1.015,0.065 -2.423,0.261 -2.423,0.261 0.132,0.098 1.081,0.852 1.44,1.538 0.1,0.198 0.459,0.721 0.656,0.787 0.196,0.098 0.392,0.098 0.458,-0.131 0.098,-0.393 0.098,-0.884 0.131,-0.982 0.033,-0.099 0.131,-0.263 0.196,-0.099 0.098,0.197 0.23,0.819 0.098,1.473 -0.032,0.131 -0.196,0.917 -0.752,0.622 M 2.192,-5.106 C 2.063,-5.27 0.884,-6.841 0.884,-6.841 l 0.033,0.065 -0.884,0.622 c 0,0 0.36,0.098 0.425,0.098 0.066,0.033 0.099,0.099 0,0.163 -0.098,0.066 -1.145,0.492 -1.244,0.525 -0.065,0.032 -0.098,0.065 -0.131,-0.033 0,-0.098 -0.032,-0.786 -0.032,-0.786 0,0 0,-0.032 0.065,-0.098 0.098,-0.066 0.197,-0.163 0.262,-0.23 0.065,-0.065 1.047,-0.85 1.113,-0.883 0,0 -0.491,-0.851 -0.556,-1.539 -0.065,-0.687 0,-1.603 0.917,-1.309 0.261,0.066 1.276,0.491 1.505,1.211 0.066,0.263 0.294,0.753 -0.066,1.212 -0.195,0.294 -1.015,0.753 -1.015,0.753 0,0 0.623,0.851 0.688,0.949 0.065,0.098 0.295,0.753 0.295,0.916 0.032,0.164 0.032,0.229 -0.067,0.099 M 2.029,-8.675 C 1.703,-8.969 0.982,-9.33 0.785,-9.33 0.59,-9.362 0.066,-9.264 0.295,-8.708 c 0.062,0.158 0.573,1.001 0.614,1.068 0.257,-0.129 1.47,-0.75 1.12,-1.035 m -27.136,2.914 -0.36,-0.524 -0.72,0.524 h -0.066 l -0.425,-0.59 v -0.065 l 0.752,-0.556 h 0.066 l 0.36,0.524 0.72,-0.524 h 0.066 l 0.425,0.589 v 0.066 l -0.753,0.556 z m 41.048,-4.157 c -0.065,-0.197 -0.096,-0.328 -0.096,-0.393 0,-0.066 0.031,-0.328 0.031,-0.328 -0.064,-0.065 -0.393,-0.261 -0.688,-0.032 0.034,0.065 0.066,0.196 0.066,0.262 0.033,0.098 -0.032,0.196 -0.097,0.065 -0.066,-0.131 -0.197,-0.524 -0.295,-0.589 -0.098,-0.098 -0.196,-0.425 -0.95,-0.098 -0.131,0.032 -0.359,0.228 -0.686,-0.132 -0.788,-0.719 -1.343,-0.785 -2.227,-1.112 -0.099,-0.066 -0.328,-0.23 -0.065,-0.197 0.261,0.033 1.374,0 1.997,0.688 0.131,0.131 0.261,0.457 0.752,0.262 0.262,-0.099 0.754,-0.524 1.309,0.327 0.328,-0.197 0.786,-0.132 0.884,0.097 0.065,0.23 0.165,0.459 0.165,0.623 v 0.36 l 0.031,0.098 c 0,0.131 -0.064,0.295 -0.131,0.099 m -31.097,-0.393 c -0.164,-0.066 -3.601,-1.408 -3.764,-1.506 -0.164,-0.099 -0.229,-0.099 -0.263,-0.229 -0.031,-0.131 -0.065,-0.197 -0.065,-0.197 -0.033,-0.065 -0.065,-0.163 0.164,-0.032 0.065,0.032 3.535,1.407 3.666,1.472 0.131,0.066 0.197,0.099 0.262,0.23 0.065,0.131 0.065,0.131 0.098,0.229 l 0.066,-0.033 c 0.033,0.098 0.065,0.197 -0.164,0.066 m 6.448,-0.818 c -0.064,-0.164 -0.359,-0.753 -0.294,-1.409 0,-0.163 0.099,-0.458 0.36,-0.458 0.131,0 0.295,0.099 0.393,0.458 0.033,0.099 0.033,0.164 0.033,0.197 h -0.033 c 0,0.066 -0.033,0.098 -0.065,0 -0.099,-0.229 -0.328,-0.393 -0.491,-0.098 -0.033,0.065 -0.132,0.36 0.065,0.982 0.032,0.13 0.098,0.294 0.098,0.294 0.033,0.132 0,0.197 -0.066,0.034 m -14.304,-0.622 c -0.164,-0.066 -2.062,-0.721 -2.226,-0.787 -0.164,-0.065 -0.229,-0.097 -0.262,-0.229 -0.033,-0.13 -0.066,-0.196 -0.066,-0.196 -0.032,-0.065 -0.065,-0.131 0.164,-0.033 0.131,0.066 1.965,0.688 2.161,0.753 0.131,0.066 0.196,0.098 0.262,0.229 0.065,0.132 0.065,0.132 0.098,0.23 l 0.032,-0.033 c 0.033,0.098 0.066,0.13 -0.163,0.066"
         style="fill:#231f20;fill-opacity:1;fill-rule:evenodd;stroke:none"
         transform="matrix(1.3333333,0,0,-1.3333333,263.04693,187.42787)"
         clip-path="url(#clipPath39)"
         id="path40" />
    </g>
  </g>
</svg>
