<?xml version="1.0" encoding="UTF-8" standalone="no"?>
<!-- Created with Inkscape (http://www.inkscape.org/) -->

<svg
   width="16.944695mm"
   height="6.1117635mm"
   viewBox="0 0 16.944695 6.1117635"
   version="1.1"
   id="svg1"
   xmlns:inkscape="http://www.inkscape.org/namespaces/inkscape"
   xmlns:sodipodi="http://sodipodi.sourceforge.net/DTD/sodipodi-0.dtd"
   xmlns="http://www.w3.org/2000/svg"
   xmlns:svg="http://www.w3.org/2000/svg">
  <sodipodi:namedview
     id="namedview1"
     pagecolor="#ffffff"
     bordercolor="#666666"
     borderopacity="1.0"
     inkscape:showpageshadow="2"
     inkscape:pageopacity="0.0"
     inkscape:pagecheckerboard="0"
     inkscape:deskcolor="#d1d1d1"
     inkscape:document-units="mm" />
  <defs
     id="defs1" />
  <g
     inkscape:label="Layer 1"
     inkscape:groupmode="layer"
     id="layer1"
     transform="translate(-106.3857,-62.003031)">
    <path
       d="m 115.58728,62.171897 c -0.0699,0.106537 -0.12206,0.362654 -0.0222,0.435679 0.10019,0.07338 0.24659,0.132646 0.24659,0.132646 -0.46567,0.570794 -0.78458,0.679802 -1.05727,0.839258 -0.0699,0.04128 -0.0561,0.07796 -0.0152,0.06703 0.0215,-0.0056 0.38806,-0.06279 0.81633,-0.387702 0.23142,-0.176037 0.37148,-0.475898 0.37148,-0.475898 0,0 0.11571,0.09666 0.13158,0.116065 0.0353,0.04339 0.0543,0.07549 0.0709,0.02963 0.061,-0.168981 -0.0254,-0.270581 -0.1076,-0.323498 0,0 0.0857,-0.263173 -0.0716,-0.52705 -0.0265,-0.0441 -0.18203,-0.18556 -0.36301,0.09384 m 0.24377,0.07303 c 0.10513,0.09737 0.0889,0.257527 0.085,0.294217 0,0 -0.13441,-0.0628 -0.19438,-0.08855 -0.0596,-0.02574 -0.0914,-0.0635 -0.0635,-0.1016 0.0921,-0.129823 0.13794,-0.125236 0.17286,-0.104069 m -5.21158,0.0028 c -0.0628,0.103365 -0.10372,0.348546 -0.006,0.414163 0.0977,0.06668 0.23883,0.117475 0.23883,0.117475 -0.42334,0.558094 -0.72179,0.672746 -0.97543,0.83326 -0.0653,0.04163 -0.0508,0.07585 -0.012,0.06421 0.0198,-0.0064 0.36619,-0.07267 0.7613,-0.396171 0.21378,-0.174977 0.3369,-0.464961 0.3369,-0.464961 0,0 0.11324,0.08819 0.12877,0.105834 0.0349,0.04057 0.0543,0.0702 0.0684,0.02611 0.0522,-0.16228 -0.0332,-0.256471 -0.11324,-0.30339 0,0 0.0723,-0.252941 -0.0857,-0.498475 -0.0265,-0.04092 -0.17921,-0.17004 -0.34149,0.101952 m 0.23354,0.06068 c 0.10301,0.08925 0.0935,0.242003 0.0907,0.276928 0,0 -0.12947,-0.05539 -0.18732,-0.07796 -0.0575,-0.02188 -0.0889,-0.05715 -0.0639,-0.09419 0.0836,-0.126297 0.127,-0.123473 0.16052,-0.104775 m 11.25678,-0.04057 c -0.0702,0.106188 -0.12206,0.362305 -0.0222,0.43533 0.0998,0.07338 0.24624,0.132644 0.24624,0.132644 -0.46567,0.571148 -1.38042,0.977193 -1.59809,1.146526 -0.0646,0.04939 -0.0564,0.07832 -0.0152,0.06703 0.0363,-0.0095 0.73343,-0.204613 1.37054,-0.750358 0.29175,-0.250473 0.28399,-0.269172 0.35807,-0.420865 0.0631,0.03281 0.10689,0.08537 0.13194,0.116417 0.0346,0.04339 0.054,0.07585 0.0706,0.02963 0.061,-0.168627 -0.0251,-0.270582 -0.10725,-0.323144 0,0 0.085,-0.263173 -0.0716,-0.52705 -0.0261,-0.04445 -0.18239,-0.185914 -0.36301,0.09384 m 0.24342,0.07232 c 0.10477,0.09772 0.0889,0.257878 0.0847,0.29492 0,0 -0.1337,-0.06314 -0.19367,-0.08855 -0.06,-0.02574 -0.0914,-0.06385 -0.0639,-0.101955 0.0928,-0.12982 0.13793,-0.125235 0.17286,-0.10442 m -1.78823,-0.1651 c -0.18345,0.232478 -0.19509,0.538337 -0.21908,0.879827 -0.0261,-0.07162 -0.17215,-0.529167 -0.63994,-0.790927 -0.0339,-0.01905 -0.10301,0.01693 -0.10936,0.124528 -0.004,0.0628 -0.0219,0.215197 0.0226,0.258234 0.0444,0.04339 0.17463,0.128058 0.1965,0.140054 0.0219,0.01199 0.0459,0.01376 0.0522,-0.01236 0.007,-0.02611 0.0363,-0.08678 0.0787,-0.04339 0.0356,0.03598 0.26635,0.226835 0.38594,0.630766 0.0204,0.05362 0.0702,0.05856 0.0815,-0.01765 0.0279,-0.186267 0.0427,-0.511175 0.0575,-0.6096 0.0208,-0.137936 0.0868,-0.423334 0.26212,-0.274813 0.0399,0.03316 0.0818,0.07761 0.0818,0.07761 0.037,0.04692 0.084,0.100189 0.10654,0.04621 0.0346,-0.08149 0.0621,-0.216958 0.0243,-0.289983 -0.0166,-0.03246 -0.23354,-0.306917 -0.38135,-0.118533 m -1.80058,-0.0113 c -0.0674,0.03951 -1.78753,1.031875 -1.85702,1.077032 -0.0699,0.04515 -0.0945,0.0568 -0.10548,0.110418 -0.0113,0.05362 -0.0173,0.08467 -0.0201,0.09349 -0.0124,0.03598 -0.0215,0.08008 0.0811,0.01341 0.0318,-0.02082 1.76212,-1.020586 1.8228,-1.058334 0.0579,-0.03669 0.0914,-0.05186 0.11501,-0.10795 0.0233,-0.05539 0.0293,-0.06562 0.0416,-0.104068 0.013,-0.04163 0.0265,-0.08537 -0.078,-0.024 m -5.32696,0.253653 c -0.0564,0.114652 -0.0759,0.375002 0.0324,0.434975 0.10866,0.06033 0.26141,0.100542 0.26141,0.100542 -0.39088,0.625121 -0.86501,0.988129 -1.11478,1.180746 -0.0645,0.04939 -0.0459,0.08431 -0.007,0.06844 0.0205,-0.0085 0.4004,-0.156281 0.78458,-0.532341 0.20708,-0.203552 0.45649,-0.689327 0.45649,-0.689327 0,0 0.127,0.08149 0.145,0.09913 0.0402,0.03881 0.0631,0.06844 0.0741,0.02045 0.0392,-0.17498 -0.0589,-0.26529 -0.14711,-0.307271 0,0 0.0515,-0.271992 -0.13758,-0.513996 -0.0314,-0.04057 -0.20356,-0.161221 -0.34784,0.138642 m 0.25082,0.04163 c 0.11642,0.08361 0.1203,0.244475 0.121,0.281516 0,0 -0.14075,-0.04551 -0.20355,-0.0635 -0.0628,-0.01799 -0.0988,-0.05151 -0.0762,-0.09278 0.0755,-0.140404 0.121,-0.141817 0.15875,-0.125235 m -1.37267,-0.08501 c -0.0296,0.08925 -0.16016,0.398991 -0.0995,0.740833 0.0141,0.07937 0.0893,0.228246 0.2226,0.218369 0.0688,-0.0071 0.15311,-0.06174 0.1958,-0.263173 0.007,-0.04551 0.01,-0.08114 0.0123,-0.09913 0.004,-0.02717 -0.0204,-0.05609 -0.0367,0.0063 -0.0377,0.124883 -0.16017,0.22225 -0.27482,0.07232 -0.0194,-0.02999 -0.10089,-0.168275 -0.0127,-0.498475 0.018,-0.06421 0.0395,-0.159102 0.0395,-0.159102 0.0198,-0.07197 -0.0166,-0.106891 -0.0466,-0.01799 m -4.66583,0.18062 c -0.15487,0.235305 -0.14112,0.526346 -0.13688,0.851607 -0.03,-0.06562 -0.20532,-0.48754 -0.66993,-0.698148 -0.0335,-0.01553 -0.0963,0.02434 -0.0935,0.127 0.001,0.05962 -0.003,0.205671 0.042,0.243064 0.0455,0.03739 0.17603,0.107244 0.19755,0.116769 0.0219,0.0099 0.0441,0.0095 0.0487,-0.01588 0.004,-0.0254 0.0272,-0.08537 0.0709,-0.04727 0.037,0.0314 0.27059,0.193321 0.41628,0.566561 0.024,0.04868 0.0716,0.05009 0.0762,-0.02294 0.0113,-0.17921 -7.9e-4,-0.488243 0.005,-0.582787 0.009,-0.132291 0.0483,-0.408165 0.22648,-0.281871 0.0399,0.02893 0.084,0.06738 0.084,0.06738 0.0392,0.04163 0.0875,0.08819 0.10442,0.03528 0.0261,-0.08008 0.0416,-0.210608 0,-0.276928 -0.0187,-0.02893 -0.24624,-0.271992 -0.37147,-0.08185 m 2.46662,0.157692 c -0.0632,0.03951 -2.42288,1.214615 -2.60315,1.361017 -0.0907,0.07338 -0.16616,0.189441 -0.19226,0.315738 -0.0381,0.182737 0.007,0.36336 0.12594,0.38241 0.0836,0.01304 0.13053,0.06138 0.15205,0.08925 0.008,0.01198 0.0219,0.0035 0.0261,-0.0046 0.0942,-0.185914 0.009,-0.303035 -0.15169,-0.34925 -0.0639,-0.01834 -0.0921,-0.106539 0.14393,-0.258233 0.21731,-0.1397 2.36679,-1.227315 2.41477,-1.260827 0.0653,-0.04551 0.10477,-0.0628 0.12982,-0.128413 0.0254,-0.06526 0.0318,-0.07655 0.0451,-0.121708 0.0141,-0.04833 0.0282,-0.09948 -0.0907,-0.0254 m 0.90981,0.4826 -0.19508,0.267406 c -0.006,0.0085 -0.005,0.02011 0.003,0.02612 l 0.33302,0.24271 c 0.008,0.0056 0.0194,0.0035 0.0258,-0.0049 l 0.19473,-0.267404 c 0.006,-0.0085 0.005,-0.02011 -0.003,-0.02611 l -0.33303,-0.24271 c -0.008,-0.0056 -0.0194,-0.0035 -0.0254,0.0049 m 8.06874,0.32385 c -0.0342,0.08396 -0.17886,0.37465 -0.15699,0.717198 0.005,0.07902 0.0582,0.233185 0.17709,0.237418 0.0614,-2.64e-4 0.14111,-0.0448 0.19756,-0.238829 0.01,-0.04339 0.0162,-0.07867 0.0204,-0.0956 0.006,-0.02611 -0.0138,-0.0575 -0.0335,0.0024 -0.0452,0.118533 -0.16228,0.201435 -0.25012,0.04269 -0.0138,-0.03175 -0.0734,-0.176035 0.0353,-0.490714 0.0219,-0.06138 0.0494,-0.1524 0.0494,-0.1524 0.0243,-0.06914 -0.005,-0.106538 -0.0392,-0.02222 m 3.30764,0.173214 c -0.0321,0.07797 -0.16581,0.347134 -0.14534,0.663927 0.005,0.07338 0.0533,0.216255 0.16368,0.219782 0.0575,0 0.13088,-0.04163 0.18309,-0.22084 0.009,-0.04057 0.0148,-0.07303 0.0187,-0.0889 0.005,-0.024 -0.0124,-0.05327 -0.031,0.0024 -0.0416,0.110067 -0.14994,0.186619 -0.23143,0.03916 -0.013,-0.02893 -0.0681,-0.16228 0.0328,-0.454025 0.0204,-0.0568 0.0455,-0.141465 0.0455,-0.141465 0.0229,-0.06315 -0.004,-0.09842 -0.036,-0.02011 m -6.20678,0.0085 -0.16827,0.230365 -0.32315,-0.235657 c -0.008,-0.0056 -0.0194,-0.0035 -0.0257,0.0053 l -0.19509,0.267052 c -0.006,0.0085 -0.005,0.02045 0.003,0.02611 l 0.33337,0.243065 c 0.008,0.0056 0.019,0.0032 0.0254,-0.0049 l 0.16828,-0.230716 0.32314,0.235656 c 0.008,0.0056 0.0198,0.0032 0.0258,-0.0049 l 0.19508,-0.267758 c 0.006,-0.0081 0.005,-0.01976 -0.003,-0.02611 l -0.33302,-0.24271 c -0.008,-0.0056 -0.0198,-0.0035 -0.0258,0.0053 m -4.94594,0.225425 c -0.0152,0.06421 -0.0716,0.386644 -0.0716,0.386644 -0.002,0.03069 0.0198,0.05292 0.0381,0.06844 0.0183,0.01553 0.0617,0.112183 0.0797,0.152751 0.0183,0.04057 0.47871,0.823384 0.50976,0.89888 0.031,0.07585 0.0896,0.252235 -0.20743,0.240594 -0.29669,-0.01093 -0.45368,-0.182034 -0.45932,-0.24624 -0.006,-0.0642 -0.0325,-0.153104 -0.0892,-0.02011 -0.0568,0.132999 -0.11501,0.465315 -0.39229,0.445913 -0.0395,-0.0028 -0.26741,-0.04762 -0.27305,-0.238125 0.001,-0.06456 0.0183,-0.08678 0.0321,-0.132998 0.0265,-0.06879 -0.0127,-0.131585 -0.0572,-0.04622 -0.0452,0.08537 -0.36548,0.643822 -0.86854,0.427215 0,0 -0.17639,-0.248002 -0.20567,-0.288573 -0.0293,-0.04057 -0.0561,-0.04621 -0.0603,-0.0067 -0.004,0.03881 -0.0208,0.307623 -0.0208,0.307623 0,0 0.27658,0.450144 0.33091,0.715079 0.0106,0.04657 -0.0226,0.147463 -0.0875,0.214842 -0.0646,0.06703 -0.85337,0.848783 -1.73602,0.893233 -0.15134,0.0078 -0.94403,-0.01659 -1.08091,-0.638175 -0.0268,-0.121002 -0.0871,-0.569735 0.10336,-1.03646 0.091,-0.02188 0.19439,-0.125235 0.25648,-0.445207 0.0109,-0.07973 0.0169,-0.143933 0.0219,-0.175683 0.007,-0.04798 -0.0268,-0.102304 -0.0526,0.0078 -0.0586,0.219075 -0.23424,0.379587 -0.38876,0.09948 -0.0254,-0.05574 -0.1337,-0.311857 0.005,-0.89253 0.0286,-0.112887 0.0624,-0.280458 0.0624,-0.280458 0.0314,-0.127 -0.0187,-0.192262 -0.0642,-0.03633 -0.0459,0.155575 -0.24271,0.694618 -0.17321,1.313391 0.0141,0.126648 0.0935,0.356307 0.24201,0.40499 -0.0748,0.206375 -0.54222,1.345142 0.23389,1.906058 0.0818,0.05891 0.91228,0.527402 2.04717,-0.271639 0.0818,-0.05786 0.63288,-0.428274 0.70591,-0.778582 0.0529,-0.156633 0.0247,-0.578908 0.0247,-0.578908 0.0511,0 0.36901,0.0099 0.58844,-0.314677 0,0 0.16721,0.262467 0.34431,0.276577 0.066,0.0053 0.29315,0.05362 0.47131,-0.41275 0,0 0.17357,0.167923 0.40675,0.210963 -2.6e-4,0.0013 -7.9e-4,0.0024 -0.001,0.0042 -0.0448,0.162277 -0.34361,1.250595 0.21272,1.62701 0.11783,0.07937 0.69074,0.408517 1.65171,-0.382058 0.2293,-0.188735 0.496,-0.4699 0.63923,-0.769057 0.0826,-0.173212 0.0808,-0.544687 0.0808,-0.544687 0.084,-0.0441 0.37006,-0.157339 0.42227,-0.355248 0.0233,-0.08396 0.13229,-0.363008 -0.0374,-0.728485 -0.0423,-0.0695 -0.3175,-0.424392 -0.3175,-0.424392 0.0822,0.0042 0.14076,0.0127 0.17251,0.01447 0.0314,0.0021 0.0734,-0.01871 0.0314,-0.05856 -0.042,-0.04022 -0.41169,-0.323498 -0.42439,-0.346427 -0.0127,-0.02328 -0.067,-0.157692 -0.0882,-0.07373 -0.0212,0.08432 -0.0547,0.281517 -0.0547,0.331965 0,0.05045 -0.002,0.07761 0.0381,0.107244 0.0395,0.02928 0.067,0.08396 0.0963,0.14464 0.0293,0.06103 0.28575,0.487537 0.40957,0.611362 0.0677,0.07338 0.11359,0.157339 0.0653,0.195439 -0.0483,0.03739 -0.21625,0.16369 -0.41804,0.226484 0,0 -0.20179,-0.285398 -0.44132,-0.43674 -0.084,-0.04833 -0.23531,-0.12841 -0.43674,0.06527 -0.20179,0.193323 -0.24765,0.61736 -0.13018,0.789868 0.0543,0.08185 0.25788,0.203555 0.5962,0.115359 0.0928,-0.02082 0.30303,-0.06526 0.33443,-0.07761 0.031,-0.01304 0.0293,0.04833 0.0148,0.08608 -0.0148,0.03775 -0.63006,1.113367 -1.52647,1.26224 -0.16052,0.02646 -0.7172,0.02787 -0.87348,-0.543277 -0.0257,-0.09525 -0.0254,-0.553508 0.0829,-0.831498 0.0349,7.94e-4 0.0706,-0.0021 0.1076,-0.0088 0.0674,-0.01236 0.2032,-0.06879 0.2854,-0.256117 0.0226,-0.05751 0.0829,-0.351721 -10e-4,-0.586671 -0.11465,-0.351367 -0.44908,-0.803979 -0.44908,-0.803979 0,0 0.17321,0.02822 0.20108,0.03069 0.0282,0.0032 0.0847,-0.01236 0.0367,-0.06138 -0.0476,-0.04868 -0.42827,-0.405696 -0.42827,-0.405696 -0.0141,-0.024 -0.0508,-0.112183 -0.066,-0.04798 m 2.3622,1.831623 c 0,0 -0.20603,0.105479 -0.48613,0.02469 -0.084,-0.03351 -0.066,-0.08784 0.0272,-0.171802 0.0928,-0.08467 0.3041,-0.08149 0.45897,0.147108 m -4.27602,-1.680281 c -0.0296,0.0889 -0.16016,0.398285 -0.0998,0.740481 0.0145,0.07902 0.0889,0.228246 0.22261,0.218369 0.0691,-0.0074 0.15345,-0.06173 0.19614,-0.263525 0.007,-0.04516 0.01,-0.08114 0.0124,-0.09913 0.004,-0.02716 -0.0208,-0.05574 -0.0367,0.0067 -0.0381,0.124884 -0.16016,0.221896 -0.27517,0.07232 -0.0191,-0.03034 -0.10089,-0.168275 -0.0124,-0.498475 0.018,-0.06421 0.0395,-0.159102 0.0395,-0.159102 0.0198,-0.07232 -0.0166,-0.10654 -0.0466,-0.01765 m 8.16292,0.03881 c -0.013,0.04551 -0.0459,0.240241 -0.0533,0.280104 -0.008,0.03986 -0.007,0.07973 0.0124,0.113948 0.0198,0.03422 0.0702,0.152752 0.10724,0.24906 0.0363,0.09631 0.41416,0.82409 0.44873,0.888648 0.0353,0.06421 0.042,0.112535 0.007,0.155223 -1.21285,1.279525 -3.55282,2.06657 -3.62761,2.109962 -0.0748,0.04375 -0.0554,0.07726 0.0709,0.05503 0.18803,-0.03281 1.23931,-0.208491 1.53917,-0.353128 0.1979,-0.09525 0.88794,-0.433917 1.45238,-0.8763 -0.0159,0.1143 -0.0303,0.281868 -0.0222,0.4953 0.0381,1.029052 0.95849,0.857953 1.19979,0.805391 0.72355,-0.159104 1.60867,-1.159581 1.68416,-1.360313 0.0741,-0.198612 0.085,-0.379587 0.0681,-0.537633 0.1905,-0.10301 0.59972,-0.43321 0.59972,-0.43321 0.0169,0.438502 0.36583,0.570442 0.47378,0.589492 0.50342,0.07655 0.75565,-0.344311 0.8629,-0.480836 0.0914,0.240594 0.31221,0.287513 0.42545,0.309738 0.43462,0.08643 0.51929,-0.220838 0.54151,-0.291042 0.13653,-0.422979 -0.10901,-0.739069 -0.14076,-0.774346 -0.0318,-0.03493 -0.0473,-0.0011 -0.0582,0.03951 -0.0117,0.04057 -0.0466,0.192968 -0.0684,0.288573 0,0 0.0907,0.148166 0.12312,0.22366 0.0321,0.07514 -0.0159,0.116417 -0.10901,0.127706 -0.26423,0.03245 -0.47555,-0.119239 -0.54787,-0.189089 -0.0727,-0.06985 0.006,-0.193323 0.0649,-0.340784 0.0466,-0.118181 -0.0406,-0.132291 -0.10724,-2.64e-4 -0.22401,0.588785 -0.53869,0.652637 -0.62159,0.674862 -0.74613,0.203554 -0.68192,-0.478367 -0.6791,-0.59055 0.003,-0.111477 -0.0787,-0.07055 -0.17074,0.0032 -0.31398,0.252238 -0.56727,0.400404 -0.70309,0.460729 -0.11677,-0.2286 -0.28716,-0.372533 -0.35878,-0.424391 -0.80751,-0.588434 -0.87418,0.599368 -0.84984,0.72672 0.12312,0.50518 0.94756,0.198967 1.07738,0.183446 0.12948,-0.01516 0.0868,0.155575 0.0145,0.257175 -0.17921,0.250471 -0.38594,0.429684 -0.57291,0.582436 -0.79975,0.652639 -1.20121,0.600781 -1.32433,0.5969 -0.78564,-0.02222 -0.71332,-0.86854 -0.66993,-1.049515 0.23637,-0.200025 0.43921,-0.417687 0.55739,-0.641702 0.048,-0.122767 0.13088,-0.401815 -0.0187,-0.751417 -0.0787,-0.154165 -0.32632,-0.586316 -0.32632,-0.586316 0,0 0.18238,0.006 0.19967,0.0056 0.0173,-7.94e-4 0.0519,-0.01871 0.007,-0.0695 -0.0444,-0.05115 -0.42757,-0.433565 -0.45085,-0.464257 -0.0229,-0.03104 -0.0441,-0.05292 -0.0572,-0.0078 m 2.42252,1.7526 c 0,0 -0.11042,0.06315 -0.41769,0.04233 -0.25788,-0.01728 -0.23565,-0.117475 -0.20002,-0.155575 0.0381,-0.04163 0.35383,-0.240596 0.61771,0.113242 m -11.82828,-0.686155 c -0.0423,0.145699 -0.22684,0.649817 -0.16157,1.228022 0.0152,0.133702 0.10724,0.390525 0.28292,0.38735 0.0907,-0.0053 0.20356,-0.08784 0.26812,-0.420513 0.0102,-0.07479 0.0159,-0.13476 0.0201,-0.164394 0.007,-0.0448 -0.025,-0.09596 -0.0483,0.0074 -0.0554,0.204964 -0.21942,0.354893 -0.36406,0.09278 -0.0236,-0.05221 -0.12454,-0.291396 0.005,-0.834321 0.0261,-0.105479 0.0582,-0.262112 0.0582,-0.262112 0.0293,-0.118534 -0.0173,-0.179565 -0.0603,-0.03422 m 8.51147,-0.738716 c -0.0536,0.06632 -0.58985,0.770115 -0.58985,0.770115 l -0.38982,-0.27799 c 0,0 0.1591,-0.03986 0.18662,-0.04833 0.0279,-0.0078 0.0438,-0.04375 -0.006,-0.06915 -0.0497,-0.02574 -0.51999,-0.213429 -0.55598,-0.227542 -0.0356,-0.01482 -0.0487,-0.03104 -0.0515,0.0071 -0.003,0.0381 -0.009,0.347485 -0.009,0.347485 0,0 -0.007,0.02151 0.0339,0.0448 0.0409,0.02363 0.0815,0.07373 0.11501,0.106892 0.0335,0.03387 0.47096,0.378883 0.49212,0.391229 0,0 -0.21872,0.384175 -0.24659,0.685096 -0.0279,0.300919 0.005,0.716137 0.41663,0.582435 0.11077,-0.0314 0.57115,-0.214841 0.67451,-0.535868 0.0335,-0.118534 0.12806,-0.332672 -0.0261,-0.548923 -0.0893,-0.127707 -0.44909,-0.342549 -0.44909,-0.342549 0,0 0.27623,-0.38241 0.30304,-0.428625 0.0261,-0.04692 0.12735,-0.3429 0.13899,-0.414512 0.0109,-0.07161 0.0166,-0.107598 -0.0367,-0.04163 m -0.0942,1.623131 c -0.1531,0.12559 -0.47413,0.291748 -0.56444,0.300567 -0.09,0.0085 -0.32985,-0.03528 -0.22578,-0.28081 0.036,-0.07937 0.27552,-0.48895 0.27552,-0.48895 0.0896,0.04904 0.6671,0.343603 0.5147,0.469193 m 6.23041,0.561623 c -0.031,0.08643 -0.043,0.142875 -0.0402,0.175684 0.004,0.03316 0.0148,0.1397 0.0148,0.1397 -0.0321,0.02574 -0.16863,0.11077 -0.3055,0.01024 0.009,-0.02928 0.0268,-0.08854 0.0307,-0.121354 0.0148,-0.05045 -0.0162,-0.08784 -0.0409,-0.03598 -0.0247,0.05292 -0.0829,0.228245 -0.12594,0.267758 -0.043,0.03951 -0.0938,0.184502 -0.41945,0.03704 -0.0572,-0.02188 -0.15734,-0.09596 -0.31291,0.06068 -0.35278,0.327731 -0.59585,0.353483 -0.99131,0.49389 -0.0476,0.02223 -0.14816,0.09701 -0.0289,0.08537 0.11924,-0.01199 0.62019,2.65e-4 0.89253,-0.312912 0.0575,-0.05539 0.12277,-0.201438 0.33937,-0.116771 0.11995,0.04551 0.34184,0.236008 0.58314,-0.140052 0.14288,0.0949 0.35913,0.05715 0.39335,-0.04762 0.0349,-0.104775 0.0744,-0.208844 0.0737,-0.279752 0,-0.07126 -0.006,-0.1651 -0.006,-0.1651 -0.005,-0.05645 -0.0247,-0.136525 -0.0561,-0.0508 m -12.37438,0.148167 c -0.0296,0.0889 -0.16052,0.398285 -0.0998,0.740478 0.0141,0.07902 0.0889,0.228248 0.22296,0.218723 0.0691,-0.0074 0.15345,-0.06173 0.19614,-0.263525 0.006,-0.04551 0.01,-0.08149 0.0124,-0.09913 0.004,-0.02716 -0.0212,-0.05574 -0.037,0.0067 -0.0381,0.124529 -0.16016,0.221895 -0.27516,0.07161 -0.0191,-0.02998 -0.10054,-0.16792 -0.0124,-0.49812 0.0183,-0.06386 0.0392,-0.15875 0.0392,-0.15875 0.0201,-0.07232 -0.0162,-0.107247 -0.0462,-0.01799 m 4.23015,0.06738 -0.16862,0.230716 -0.32315,-0.235301 c -0.008,-0.006 -0.0194,-0.0042 -0.0257,0.0046 l -0.19509,0.267406 c -0.006,0.0085 -0.004,0.01977 0.004,0.02574 l 0.33267,0.243065 c 0.008,0.0056 0.0198,0.0035 0.0261,-0.0049 l 0.16827,-0.230716 0.32279,0.235656 c 0.008,0.0056 0.0198,0.0035 0.0257,-0.0049 l 0.19508,-0.267758 c 0.006,-0.0081 0.005,-0.01976 -0.004,-0.02574 l -0.33267,-0.242358 c -0.008,-0.006 -0.0194,-0.0042 -0.0254,0.0046"
       style="fill:#231f20;fill-opacity:1;fill-rule:evenodd;stroke:none;stroke-width:0.264583"
       id="path1-1" />
  </g>
</svg>
