<?xml version="1.0" encoding="UTF-8" standalone="no"?>
<!-- Created with Inkscape (http://www.inkscape.org/) -->

<svg
   width="23.142838mm"
   height="6.1373639mm"
   viewBox="0 0 23.142838 6.1373639"
   version="1.1"
   id="svg1"
   xmlns="http://www.w3.org/2000/svg"
   xmlns:svg="http://www.w3.org/2000/svg">
  <defs
     id="defs1" />
  <g
     id="layer1"
     transform="translate(-173.9346,-41.648276)">
    <path
       d="m 184.45822,41.715971 c -0.14534,0.22084 -0.13229,0.493536 -0.12806,0.79869 -0.0286,-0.06138 -0.19297,-0.456848 -0.62865,-0.654404 -0.0314,-0.01447 -0.09,0.02328 -0.0875,0.119239 0.001,0.05609 -0.003,0.192969 0.0395,0.227894 0.0427,0.03493 0.16474,0.100542 0.1852,0.109363 0.0208,0.0095 0.0416,0.0088 0.0455,-0.01482 0.004,-0.02363 0.0257,-0.07973 0.0667,-0.04445 0.0342,0.02928 0.25364,0.180975 0.39052,0.530929 0.0226,0.04621 0.067,0.04692 0.0713,-0.02117 0.0106,-0.168627 -7.9e-4,-0.457903 0.005,-0.5461 0.008,-0.124883 0.0452,-0.383116 0.21238,-0.264935 0.0377,0.02717 0.0783,0.06315 0.0783,0.06315 0.037,0.0388 0.0822,0.0829 0.0984,0.03316 0.0243,-0.07514 0.0388,-0.197201 -2.7e-4,-0.259643 -0.0173,-0.02752 -0.23107,-0.255413 -0.34819,-0.07691 m -5.23663,0.02574 c -0.0335,0.08255 -0.17463,0.366184 -0.15311,0.700972 0.005,0.07726 0.0564,0.227541 0.17251,0.231775 0.0607,-2.65e-4 0.13829,-0.04375 0.19332,-0.232834 0.01,-0.04269 0.0159,-0.07691 0.0198,-0.09384 0.006,-0.0254 -0.0131,-0.05574 -0.0325,0.0024 -0.0441,0.115713 -0.15875,0.19685 -0.24412,0.04163 -0.0141,-0.03069 -0.072,-0.17145 0.0342,-0.479425 0.0215,-0.05962 0.0483,-0.148873 0.0483,-0.148873 0.024,-0.06738 -0.005,-0.104068 -0.0385,-0.02188 m 10.11308,0.132998 c -0.0702,0.10654 -0.12242,0.363009 -0.0222,0.435682 0.10019,0.07338 0.24624,0.132643 0.24624,0.132643 -0.46602,0.570794 -0.78422,0.67945 -1.05692,0.839259 -0.0702,0.04127 -0.0561,0.07796 -0.0152,0.06668 0.0212,-0.0056 0.38805,-0.06244 0.81597,-0.387702 0.23142,-0.175684 0.37148,-0.475898 0.37148,-0.475898 0,0 0.11606,0.09631 0.13158,0.116064 0.0353,0.04374 0.0543,0.07585 0.0709,0.02999 0.061,-0.168982 -0.0254,-0.270934 -0.1076,-0.323499 0,0 0.0857,-0.26317 -0.0716,-0.52705 -0.0261,-0.04409 -0.18203,-0.185912 -0.36266,0.09384 m 0.24342,0.07267 c 0.10513,0.09772 0.0889,0.257879 0.085,0.294569 0,0 -0.13405,-0.06279 -0.19438,-0.08855 -0.0596,-0.02574 -0.091,-0.0635 -0.0635,-0.101952 0.0924,-0.129469 0.13794,-0.124883 0.17286,-0.104069 m -6.93949,-0.188031 c -0.0226,0.03316 -0.1404,0.215193 -0.0988,0.407458 0.127,0.456142 0.26776,1.753659 0.28928,1.929342 0.0307,0.252235 0.1009,1.587852 0.17357,1.893358 0.073,0.305507 0.15945,1.133827 1.3275,1.016352 0.32632,-0.04233 0.88583,-0.284337 1.38642,-0.533045 0.16227,0.155575 0.31997,0.305858 0.43956,0.394403 0.12488,0.09172 0.71261,0.30833 1.05057,-0.18415 0.0808,-0.143226 0.21731,-0.3937 0.17674,-0.90805 -0.0148,-0.249766 -0.3623,-3.065991 -0.3623,-3.065991 0,0 0.18062,0.188738 0.21237,0.221898 0.0314,0.03387 0.0702,0.01588 0.0515,-0.0381 -0.0176,-0.05362 -0.42157,-1.030465 -0.43463,-1.064332 -0.013,-0.03351 -0.0261,-0.05856 -0.0427,-0.01905 -0.0159,0.03916 -0.1457,0.324557 -0.1457,0.324557 0.004,0.02328 0.0339,0.09349 0.055,0.237773 0.0155,0.105479 0.0356,0.243769 0.0582,0.398637 0,0 0.41875,3.132315 0.41875,3.288948 0,0.156282 0.009,0.267407 -0.01,0.29351 -0.018,0.02574 -0.4445,0.466374 -0.97331,0.102659 -0.036,-0.02257 -0.0984,-0.07796 -0.17145,-0.147812 0.40887,-0.215197 0.72002,-0.400757 0.72813,-0.422275 0.0191,-0.0501 0.0766,-0.266348 0.0766,-0.266348 -0.0649,-0.05009 -1.17793,-0.609249 -2.14454,-0.0695 -0.0409,0.02151 -0.096,0.08185 -0.15134,0.331613 -0.007,0.04763 0.0243,0.0762 0.0649,0.0575 0.0138,-0.0067 0.24624,-0.102658 0.47025,-0.0011 0.0942,0.0448 0.22507,0.153458 0.3676,0.283985 -0.0402,0.01976 -0.0769,0.03669 -0.10866,0.0501 -0.0695,0.03634 -1.06997,0.604661 -1.72261,0.232834 -0.0935,-0.04762 -0.44133,-0.235305 -0.48931,-1.285875 -0.0159,-0.198263 -0.18838,-2.706159 -0.42368,-3.428648 -0.0374,-0.09631 -0.0462,-0.0635 -0.0684,-0.03069 m 3.60609,4.03719 c -0.0385,0.02188 -0.24412,0.137935 -0.46037,0.253645 -0.0854,-0.08854 -0.15981,-0.167568 -0.19756,-0.208137 -0.0289,-0.0314 -0.0734,-0.07338 -0.12805,-0.114655 0.23495,-0.01799 0.50306,-0.0053 0.78598,0.06915 m 0.25118,-3.146425 c -0.0889,0.04057 -2.92311,1.380066 -3.01342,1.423458 -0.0857,0.04127 -0.10831,0.0642 -0.12101,0.126294 -0.0127,0.06138 -0.0194,0.09666 -0.0229,0.106891 -0.0141,0.04092 -0.0243,0.07726 0.0931,0.01516 0.0388,-0.02045 2.90159,-1.363485 2.97356,-1.401937 0.0691,-0.03669 0.10512,-0.05927 0.13194,-0.123121 0.0268,-0.06385 0.0335,-0.07514 0.0476,-0.119592 0.0152,-0.04727 0.037,-0.08502 -0.0889,-0.02716 m -0.51294,0.855837 c -0.0459,0.123473 -0.23706,0.548923 -0.21166,1.052338 0.006,0.116416 0.073,0.343252 0.2286,0.35066 0.0804,2.65e-4 0.18485,-0.06491 0.2607,-0.348544 0.013,-0.06491 0.0215,-0.116064 0.0272,-0.141464 0.008,-0.0381 -0.0169,-0.08396 -0.0437,0.0039 -0.06,0.173919 -0.21378,0.294569 -0.32667,0.06032 -0.0183,-0.04657 -0.0942,-0.25894 0.0508,-0.720725 0.0293,-0.08961 0.0663,-0.223308 0.0663,-0.223308 0.0325,-0.101248 -0.006,-0.156634 -0.0515,-0.03316 m -1.76882,0.838906 c -0.0367,0.09031 -0.1905,0.40005 -0.16722,0.765175 0.006,0.08396 0.0617,0.248357 0.18873,0.252942 0.0656,-2.65e-4 0.15064,-0.04798 0.21097,-0.254352 0.0102,-0.04692 0.0169,-0.08396 0.0212,-0.102658 0.006,-0.02752 -0.0141,-0.06068 -0.0353,0.0032 -0.0483,0.126293 -0.17321,0.214841 -0.2667,0.04515 -0.0148,-0.03351 -0.078,-0.18697 0.0377,-0.522816 0.0233,-0.06526 0.0526,-0.162629 0.0526,-0.162629 0.0261,-0.07303 -0.005,-0.113596 -0.042,-0.024 m -6.42409,-2.50331 c -0.0423,0.07761 -0.13687,0.238125 -0.0991,0.396521 0.12277,0.429683 0.2092,1.356783 0.25118,2.160764 0.0476,0.903817 -0.0166,1.652059 0.39652,2.045407 0.14641,0.140052 0.39158,0.352425 1.33174,0.214487 0.0699,-0.01024 0.19297,-0.03104 0.32455,-0.07937 -0.008,0.07056 -0.0265,0.415221 -0.0314,0.516821 -0.005,0.106892 -0.0293,0.746829 0.83079,0.420862 0.11324,-0.04268 1.03611,-0.472368 1.82492,-1.127125 0.13123,-0.10936 0.2413,-0.121708 0.10618,-0.795512 -0.0279,-0.1397 -0.15945,-0.30198 -0.34713,-0.391938 -0.18768,-0.0896 -0.74754,-0.265993 -0.87383,-0.321733 -0.31362,-0.13476 -0.41063,-0.255762 -0.41063,-0.255762 0,0 0.17003,-0.03669 0.19614,-0.04622 0.0265,-0.0088 0.0593,-0.0448 0.0187,-0.06844 -0.0409,-0.02328 -0.54046,-0.17921 -0.56798,-0.198966 -0.0279,-0.01976 -0.0645,-0.05539 -0.079,-0.0088 -0.0145,0.04586 -0.0145,0.38735 -0.0145,0.38735 0.042,0.03034 0.1658,0.14605 0.26599,0.243417 0.10019,0.09772 0.42333,0.353131 0.9973,0.518231 0.14288,0.04798 0.59655,0.224367 0.67804,0.397933 0.0251,0.05891 0.042,0.111829 -0.0452,0.184854 -0.0868,0.07267 -0.8763,0.724958 -1.88736,1.108782 -0.0755,0.02893 -0.59831,0.27446 -0.5641,-0.242007 10e-4,-0.0515 0.0236,-0.26035 0.0286,-0.345368 0.001,-0.01164 7.9e-4,-0.02151 0,-0.03069 0.18415,-0.09384 0.35913,-0.250473 0.4064,-0.517173 0.0212,-0.105127 0.0818,-0.569735 -0.37112,-0.963435 -0.0462,-0.03422 -0.0515,-0.02328 -0.0624,0.0127 -0.0106,0.03528 -0.0663,0.332316 -0.0663,0.332316 0.0466,0.04657 0.30198,0.345723 0.3228,0.425802 0.0204,0.08008 0.0956,0.196498 -0.1965,0.320323 -0.2921,0.124177 -1.14688,0.301977 -1.59491,0.03104 -0.073,-0.0441 -0.27058,-0.219779 -0.32314,-0.7366 -0.0194,-0.191559 -0.15311,-2.203096 -0.17816,-2.459212 -0.0254,-0.256472 -0.15381,-1.051632 -0.17956,-1.119717 -0.0261,-0.06844 -0.0448,-0.08749 -0.0875,-0.0095 m 10.0523,-0.032 c -0.0162,0.03916 -0.13723,0.335846 -0.13723,0.335846 0.003,0.01765 0.0363,0.147108 0.0427,0.195792 0.0561,0.42827 0.40711,2.959451 0.50765,3.760258 0.0497,0.3937 0.0878,0.747887 0.0935,0.938387 -0.005,0.05856 0.0212,0.08079 0.048,0.024 0.0145,-0.03034 0.0751,-0.155575 0.0935,-0.483659 0.0141,-0.246943 -0.006,-0.625827 -0.0762,-1.147233 -0.0102,-0.0762 -0.37535,-2.720623 -0.37535,-2.720623 0,0 0.1972,0.185563 0.22895,0.218723 0.0314,0.03387 0.0699,0.01588 0.0522,-0.0381 -0.0183,-0.05362 -0.42228,-1.030465 -0.43533,-1.064331 -0.013,-0.03351 -0.0261,-0.05856 -0.0423,-0.01905 m 8.01476,0.161221 c -0.0702,0.106185 -0.12277,0.362302 -0.0226,0.434975 0.10018,0.07373 0.24659,0.132995 0.24659,0.132995 -0.46602,0.570796 -1.38077,0.976842 -1.59808,1.146882 -0.0649,0.04903 -0.0565,0.07761 -0.0155,0.06667 0.0367,-0.0099 0.73343,-0.204965 1.37055,-0.750359 0.2921,-0.250118 0.28398,-0.269168 0.35842,-0.420864 0.0628,0.03246 0.10654,0.08502 0.13158,0.116064 0.0349,0.04374 0.054,0.07585 0.0709,0.02999 0.061,-0.168979 -0.0251,-0.270579 -0.10795,-0.323496 0,0 0.0857,-0.263525 -0.0713,-0.527404 -0.0265,-0.0441 -0.18203,-0.185209 -0.36265,0.09455 m 0.24341,0.07232 c 0.10478,0.09737 0.0889,0.257527 0.0847,0.294569 0,0 -0.1337,-0.06279 -0.19403,-0.08819 -0.0596,-0.02574 -0.0914,-0.06421 -0.0635,-0.101952 0.0924,-0.129823 0.13794,-0.125589 0.17286,-0.104423 m -1.78858,-0.165452 c -0.18309,0.232479 -0.19473,0.538692 -0.21908,0.879475 -0.0257,-0.07091 -0.1718,-0.528814 -0.63958,-0.790223 -0.0339,-0.01939 -0.10301,0.01693 -0.10936,0.124532 -0.004,0.06244 -0.0219,0.215193 0.0222,0.258233 0.0445,0.04339 0.17498,0.128058 0.19685,0.1397 0.0219,0.0127 0.0455,0.01376 0.0519,-0.01236 0.007,-0.02611 0.0367,-0.08678 0.079,-0.04304 0.0356,0.03634 0.266,0.226484 0.38594,0.630063 0.0205,0.05433 0.0699,0.05891 0.0815,-0.01693 0.0275,-0.186973 0.0427,-0.511175 0.0572,-0.6096 0.0212,-0.13829 0.0871,-0.423333 0.26247,-0.275167 0.0399,0.03351 0.0818,0.07796 0.0818,0.07796 0.0371,0.04657 0.0836,0.100542 0.10654,0.04622 0.0342,-0.08149 0.0621,-0.216958 0.0244,-0.289983 -0.0169,-0.03246 -0.23354,-0.306917 -0.38171,-0.118885 m -1.80058,-0.01093 c -0.0674,0.03951 -1.78752,1.03223 -1.85702,1.077384 -0.0699,0.04445 -0.0945,0.05609 -0.10548,0.110066 -0.0113,0.05362 -0.0169,0.08467 -0.0201,0.09349 -0.0124,0.03563 -0.0215,0.08008 0.0811,0.01341 0.0321,-0.02117 1.76212,-1.020937 1.82245,-1.058685 0.0582,-0.03633 0.0921,-0.05186 0.11571,-0.107598 0.0233,-0.05539 0.0289,-0.06526 0.0413,-0.10442 0.0134,-0.04127 0.0268,-0.08502 -0.078,-0.02363 m -16.94497,0.08396 c -0.15522,0.213784 -0.15522,0.486834 -0.1651,0.791634 -0.0258,-0.0628 -0.17145,-0.465667 -0.59725,-0.68298 -0.0311,-0.01588 -0.091,0.01834 -0.0935,0.114655 -0.001,0.05609 -0.012,0.192968 0.0293,0.229658 0.0406,0.03739 0.15981,0.108302 0.17956,0.117827 0.0205,0.01058 0.0413,0.01093 0.0462,-0.0127 0.005,-0.02328 0.0296,-0.07867 0.0684,-0.04092 0.0335,0.03105 0.24518,0.192616 0.36583,0.548571 0.0201,0.04692 0.0646,0.05009 0.072,-0.01834 0.0183,-0.167216 0.0208,-0.4572 0.0307,-0.545393 0.0137,-0.123825 0.0628,-0.379942 0.22401,-0.254352 0.0367,0.02893 0.0759,0.06738 0.0759,0.06738 0.0346,0.03986 0.078,0.08608 0.0967,0.0374 0.0275,-0.07408 0.0476,-0.195792 0.0116,-0.259646 -0.0159,-0.02822 -0.21872,-0.265642 -0.34431,-0.09278 m 1.48343,0.06562 c -0.0586,0.144637 -0.29951,0.642408 -0.2921,1.241776 0.002,0.13829 0.0695,0.410986 0.25012,0.425802 0.0935,0.0039 0.21731,-0.06879 0.31785,-0.403225 0.0183,-0.07585 0.0303,-0.136525 0.0374,-0.166158 0.0116,-0.04551 -0.0152,-0.100894 -0.0504,0.0024 -0.0773,0.203904 -0.26141,0.341487 -0.38206,0.05785 -0.0194,-0.05609 -0.0981,-0.311854 0.0907,-0.854779 0.0377,-0.105129 0.0868,-0.262466 0.0868,-0.262466 0.042,-0.118534 7.9e-4,-0.186267 -0.0582,-0.04127 m 4.62915,0.197201 c -0.0885,0.04022 -2.92312,1.379715 -3.01378,1.422752 -0.0854,0.04198 -0.10795,0.06491 -0.12065,0.126648 -0.0127,0.06138 -0.0194,0.09701 -0.0226,0.107244 -0.0145,0.04092 -0.0247,0.07691 0.0928,0.01482 0.0388,-0.02011 2.90195,-1.363486 2.97391,-1.401586 0.0692,-0.03704 0.10478,-0.05927 0.13194,-0.123473 0.0265,-0.06314 0.0332,-0.07479 0.0476,-0.119237 0.0152,-0.04692 0.0367,-0.08467 -0.0893,-0.02716 m 0.21448,0.829382 c -0.0314,0.09948 -0.16651,0.443442 -0.12065,0.837493 0.0106,0.09102 0.0766,0.265994 0.20462,0.263525 0.066,-0.0042 0.14816,-0.06032 0.19614,-0.287514 0.007,-0.05115 0.012,-0.09172 0.0152,-0.112184 0.005,-0.03034 -0.018,-0.06526 -0.0353,0.0053 -0.0409,0.1397 -0.16051,0.242358 -0.26493,0.06421 -0.0173,-0.03563 -0.09,-0.198614 0.006,-0.568676 0.0194,-0.07197 0.043,-0.178859 0.043,-0.178859 0.0215,-0.08114 -0.012,-0.122415 -0.0438,-0.02328 m 10.94846,0.178858 c -0.0346,0.08396 -0.17851,0.37465 -0.15628,0.717196 0.005,0.07867 0.0575,0.233188 0.17639,0.237421 0.0617,-2.65e-4 0.14146,-0.04481 0.1979,-0.238832 0.01,-0.04374 0.0162,-0.07867 0.0201,-0.09631 0.006,-0.02611 -0.0134,-0.05715 -0.0332,0.0028 -0.0452,0.118885 -0.16228,0.202142 -0.25012,0.04268 -0.0141,-0.0314 -0.0734,-0.175683 0.0353,-0.490714 0.0219,-0.06103 0.0494,-0.1524 0.0494,-0.1524 0.0247,-0.06879 -0.005,-0.106537 -0.0395,-0.02188 m 3.30764,0.17286 c -0.0317,0.07832 -0.16545,0.346781 -0.14499,0.664281 0.004,0.07338 0.0529,0.2159 0.16369,0.219779 0.0568,-2.65e-4 0.13053,-0.04127 0.18274,-0.220837 0.01,-0.04057 0.0148,-0.07303 0.0187,-0.0889 0.006,-0.02469 -0.012,-0.05327 -0.0307,0.0024 -0.0416,0.109715 -0.15028,0.186619 -0.23142,0.03916 -0.013,-0.02893 -0.0681,-0.162276 0.0325,-0.454025 0.0201,-0.0568 0.0459,-0.141464 0.0459,-0.141464 0.0226,-0.0635 -0.004,-0.09842 -0.0363,-0.02045 m -6.20642,0.0081 -0.16862,0.231421 -0.3228,-0.235654 c -0.008,-0.006 -0.0198,-0.0039 -0.0261,0.0042 l -0.19473,0.267758 c -0.006,0.0085 -0.005,0.02011 0.003,0.02611 l 0.33267,0.242713 c 0.008,0.0056 0.0198,0.0039 0.0257,-0.0049 l 0.16863,-0.230365 0.32314,0.235305 c 0.008,0.0056 0.0194,0.0039 0.0257,-0.0049 l 0.19473,-0.267406 c 0.006,-0.0081 0.005,-0.02011 -0.003,-0.02574 l -0.33303,-0.242711 c -0.008,-0.006 -0.0194,-0.0039 -0.0254,0.0042 m -14.53021,0.08643 c -0.0339,0.08255 -0.17462,0.366537 -0.1531,0.701323 0.005,0.07691 0.0564,0.227541 0.17251,0.231775 0.0603,-2.65e-4 0.13829,-0.04374 0.19332,-0.233186 0.01,-0.04269 0.0159,-0.07691 0.0198,-0.09384 0.006,-0.0254 -0.013,-0.05574 -0.0325,0.0024 -0.0441,0.116065 -0.15875,0.197204 -0.24413,0.04198 -0.0137,-0.0314 -0.072,-0.171802 0.0342,-0.479425 0.0212,-0.05997 0.0483,-0.148873 0.0483,-0.148873 0.024,-0.06738 -0.005,-0.10442 -0.0384,-0.02222 m -1.18604,0.173921 c -0.0589,0.144638 -0.29951,0.642409 -0.2921,1.241425 0.002,0.134761 0.0663,0.396169 0.23601,0.423686 -0.13476,0.254 -0.4071,0.883002 0.0109,1.340556 0.0437,0.05045 0.46143,0.489302 2.06551,0.01939 0.38065,-0.106892 0.93204,-0.333727 1.17228,-0.666398 0.0427,-0.05821 0.19297,-0.362302 0.0854,-0.65546 -0.043,-0.115007 -0.23283,-0.408517 -0.27128,-0.467077 -0.0385,-0.05891 -0.0677,-0.06632 -0.0847,-0.0053 -0.0173,0.06068 -0.0801,0.366535 -0.0801,0.366535 0.0624,0.08326 0.34008,0.439561 0.26705,0.512234 -0.0727,0.07303 -0.7299,0.627943 -2.26906,0.716843 -0.17251,0.01024 -0.97226,-0.01236 -0.93028,-0.656518 0.006,-0.08819 0.0639,-0.3556 0.1524,-0.532694 0.0709,-0.04621 0.14746,-0.152048 0.21378,-0.372533 0.0183,-0.07585 0.0303,-0.13688 0.0377,-0.166513 0.0113,-0.04515 -0.0159,-0.100894 -0.0508,0.0021 -0.0773,0.204613 -0.26105,0.341489 -0.38206,0.05786 -0.019,-0.05574 -0.0981,-0.311856 0.0907,-0.854427 0.0381,-0.105129 0.0868,-0.262466 0.0868,-0.262466 0.0423,-0.118888 7.9e-4,-0.186267 -0.0582,-0.04127 m 17.01941,0.156278 c -0.0134,0.0448 -0.0459,0.23989 -0.0536,0.279755 -0.008,0.03986 -0.007,0.07973 0.0127,0.113945 0.0194,0.03422 0.0702,0.152755 0.10689,0.249063 0.0367,0.09631 0.41451,0.824087 0.44909,0.888646 0.0353,0.06421 0.0423,0.112538 0.007,0.155223 -1.2125,1.279525 -3.55282,2.066573 -3.62761,2.109964 -0.0748,0.04374 -0.055,0.07726 0.0709,0.05503 0.18838,-0.03281 1.23966,-0.208846 1.53952,-0.353132 0.19755,-0.09525 0.88794,-0.434268 1.45238,-0.8763 -0.0159,0.1143 -0.0303,0.281869 -0.0226,0.494948 0.0385,1.029404 0.9585,0.858309 1.20015,0.805392 0.72355,-0.15875 1.60832,-1.159229 1.68346,-1.359958 0.0744,-0.198615 0.0854,-0.379942 0.0684,-0.537633 0.1905,-0.103365 0.59972,-0.433213 0.59972,-0.433213 0.0173,0.438856 0.36618,0.570441 0.47378,0.589846 0.50377,0.07585 0.756,-0.344665 0.86325,-0.48119 0.0914,0.240594 0.31221,0.287515 0.42545,0.30974 0.43462,0.08643 0.51893,-0.22084 0.54151,-0.291042 0.13617,-0.423333 -0.10936,-0.739423 -0.14076,-0.773996 -0.0317,-0.03528 -0.0476,-0.0013 -0.0589,0.03881 -0.0109,0.04057 -0.0459,0.193675 -0.0677,0.288925 0,0 0.0907,0.147815 0.12276,0.223309 0.0325,0.07549 -0.0159,0.116416 -0.109,0.128058 -0.26424,0.0321 -0.4752,-0.11924 -0.54787,-0.18909 -0.0727,-0.06985 0.006,-0.19332 0.0646,-0.340783 0.0469,-0.118179 -0.0402,-0.132292 -0.10654,-2.65e-4 -0.22437,0.588786 -0.53869,0.652286 -0.62159,0.674865 -0.74613,0.203552 -0.68157,-0.478721 -0.6791,-0.59055 0.002,-0.111831 -0.079,-0.0702 -0.1711,0.0035 -0.31397,0.251532 -0.56656,0.399698 -0.70273,0.460375 -0.11712,-0.228952 -0.28752,-0.372533 -0.35913,-0.424743 -0.80751,-0.588788 -0.87383,0.599368 -0.84949,0.727075 0.12277,0.504825 0.94792,0.198966 1.07703,0.183443 0.12947,-0.01516 0.0871,0.155927 0.0148,0.257175 -0.17921,0.250473 -0.38594,0.429332 -0.57291,0.582083 -0.79975,0.652992 -1.20121,0.601134 -1.32468,0.5969 -0.78529,-0.02188 -0.71332,-0.868185 -0.66957,-1.04916 0.23636,-0.200379 0.4392,-0.418041 0.55738,-0.641704 0.048,-0.122767 0.13053,-0.401812 -0.0187,-0.751417 -0.079,-0.154162 -0.32632,-0.586317 -0.32632,-0.586317 0,0 0.18239,0.0056 0.19967,0.0053 0.0173,-2.65e-4 0.0515,-0.01834 0.007,-0.06949 -0.0441,-0.05151 -0.42757,-0.433213 -0.4505,-0.464257 -0.0229,-0.03034 -0.0444,-0.05257 -0.0571,-0.0071 m 2.42252,1.752248 c 0,0 -0.11042,0.06315 -0.41769,0.04268 -0.25752,-0.01765 -0.23565,-0.117827 -0.20037,-0.156279 0.0385,-0.04163 0.35419,-0.240241 0.61806,0.113594 m -3.31681,-1.424869 c -0.0536,0.06632 -0.58985,0.769761 -0.58985,0.769761 l -0.38982,-0.277636 c 0,0 0.15875,-0.04022 0.18627,-0.04833 0.0279,-0.0078 0.0437,-0.04374 -0.006,-0.0695 -0.0501,-0.0254 -0.52034,-0.213077 -0.55597,-0.227542 -0.036,-0.01447 -0.049,-0.03104 -0.0519,0.0071 -0.003,0.03845 -0.009,0.34784 -0.009,0.34784 0,0 -0.007,0.02151 0.0339,0.0448 0.0409,0.02363 0.0815,0.07373 0.11536,0.106892 0.0332,0.03387 0.47061,0.378883 0.49213,0.391231 0,0 -0.21908,0.384175 -0.24695,0.685094 -0.0279,0.300918 0.006,0.71614 0.41699,0.582083 0.11042,-0.03104 0.57115,-0.21449 0.67451,-0.535517 0.0332,-0.118533 0.12806,-0.332668 -0.0265,-0.549275 -0.0889,-0.127351 -0.44873,-0.342548 -0.44873,-0.342548 0,0 0.27622,-0.382058 0.30268,-0.428625 0.0265,-0.04657 0.12771,-0.3429 0.139,-0.41416 0.0113,-0.07197 0.0166,-0.10795 -0.0363,-0.04163 m -0.0945,1.622777 c -0.15275,0.125942 -0.47378,0.291748 -0.56409,0.300919 -0.0903,0.0085 -0.32985,-0.03563 -0.22577,-0.280811 0.0356,-0.07973 0.27516,-0.489301 0.27516,-0.489301 0.0892,0.04939 0.6671,0.343603 0.5147,0.469193 M 179.4675,44.21287 c -0.13371,0.202848 -0.12171,0.453673 -0.11783,0.734131 -0.0261,-0.0568 -0.1778,-0.42051 -0.57785,-0.60184 -0.0289,-0.01304 -0.0829,0.02151 -0.0804,0.109715 0.001,0.05151 -0.003,0.177448 0.0363,0.20955 0.0388,0.0321 0.15134,0.09243 0.17039,0.100894 0.0187,0.0081 0.0378,0.0078 0.0416,-0.01376 0.003,-0.02222 0.0236,-0.07338 0.0614,-0.04127 0.0314,0.02681 0.23283,0.166513 0.35912,0.488598 0.0205,0.04198 0.0614,0.04269 0.0656,-0.02011 0.009,-0.154517 -0.001,-0.42051 0.004,-0.502002 0.007,-0.1143 0.0416,-0.352073 0.19509,-0.243416 0.0346,0.02469 0.0723,0.05821 0.0723,0.05821 0.0335,0.03563 0.0755,0.0762 0.0903,0.03034 0.0222,-0.06879 0.0356,-0.181679 -2.7e-4,-0.238829 -0.0159,-0.02506 -0.21237,-0.234598 -0.31997,-0.0702 m -3.35033,0.602898 -0.16862,0.230716 -0.3228,-0.235656 c -0.008,-0.0053 -0.0198,-0.0035 -0.0261,0.0049 l -0.19473,0.267406 c -0.006,0.0085 -0.005,0.02045 0.003,0.02611 l 0.33267,0.242712 c 0.008,0.0056 0.0198,0.0035 0.0261,-0.0049 l 0.16828,-0.230365 0.32314,0.235304 c 0.008,0.0056 0.0194,0.0035 0.0254,-0.0049 l 0.19544,-0.267407 c 0.006,-0.0085 0.005,-0.01976 -0.004,-0.02574 l -0.33302,-0.243064 c -0.008,-0.0053 -0.0194,-0.0035 -0.0254,0.0049 m 20.3708,1.515534 c -0.0314,0.08608 -0.0434,0.142875 -0.0399,0.175683 0.003,0.03316 0.0145,0.1397 0.0145,0.1397 -0.0321,0.02574 -0.16898,0.110773 -0.30586,0.01024 0.01,-0.02928 0.0272,-0.08855 0.031,-0.121356 0.0148,-0.05045 -0.0162,-0.08819 -0.0413,-0.03598 -0.025,0.05292 -0.0829,0.228248 -0.12559,0.267406 -0.0434,0.03986 -0.0938,0.184854 -0.42015,0.03739 -0.0564,-0.02222 -0.15664,-0.09596 -0.31221,0.06068 -0.35278,0.32738 -0.59584,0.353132 -0.99131,0.493538 -0.0483,0.02257 -0.14817,0.09772 -0.0293,0.08537 0.11959,-0.01164 0.62054,2.64e-4 0.89288,-0.31256 0.0572,-0.05539 0.12242,-0.20179 0.33902,-0.116417 0.1203,0.04516 0.34184,0.235656 0.5835,-0.140407 0.14287,0.09525 0.35912,0.0568 0.3937,-0.04762 0.0342,-0.105126 0.0741,-0.208843 0.0737,-0.280103 -2.7e-4,-0.07126 -0.007,-0.164748 -0.007,-0.164748 -0.005,-0.05644 -0.0247,-0.136525 -0.0561,-0.0508 m -19.24685,0.523523 c -0.0699,0.03492 -1.60831,0.637468 -1.68063,0.677685 -0.0723,0.04092 -0.0977,0.0508 -0.11254,0.103717 -0.0145,0.05292 -0.0222,0.08396 -0.0257,0.09207 -0.0145,0.03528 -0.0265,0.07867 0.0804,0.01834 0.0332,-0.01871 1.58503,-0.627591 1.64465,-0.661458 0.0596,-0.03387 0.0949,-0.04586 0.12171,-0.100187 0.0272,-0.05398 0.0335,-0.0635 0.0483,-0.1016 0.0159,-0.04022 0.0318,-0.08326 -0.0762,-0.02857 m 5.76898,0.08925 c -0.0699,0.03563 -0.95568,0.381706 -1.02764,0.422275 -0.0727,0.04022 -0.0981,0.05045 -0.11254,0.103364 -0.0145,0.05256 -0.0222,0.08325 -0.0258,0.09208 -0.0148,0.03492 -0.0268,0.07867 0.0801,0.01799 0.0332,-0.01871 0.9324,-0.370771 0.99201,-0.40499 0.0596,-0.03387 0.0949,-0.04586 0.12207,-0.100541 0.0265,-0.05362 0.0332,-0.06315 0.048,-0.101248 0.0162,-0.04022 0.0321,-0.08325 -0.0762,-0.02893 m -3.84633,0.08925 -0.16828,0.231423 -0.32279,-0.235657 c -0.008,-0.006 -0.0198,-0.0039 -0.0257,0.0042 l -0.19544,0.267758 c -0.006,0.0085 -0.004,0.02011 0.004,0.02611 l 0.33266,0.24271 c 0.008,0.0056 0.0194,0.0039 0.0257,-0.0046 l 0.16827,-0.231068 0.3228,0.235653 c 0.008,0.0056 0.0198,0.0039 0.0261,-0.0046 l 0.19473,-0.267758 c 0.006,-0.0081 0.005,-0.01976 -0.003,-0.02574 l -0.33302,-0.242713 c -0.008,-0.006 -0.0194,-0.0039 -0.0257,0.0042"
       style="fill:#231f20;fill-opacity:1;fill-rule:evenodd;stroke:none;stroke-width:0.264583"
       id="path1" />
  </g>
</svg>
