<?xml version="1.0" encoding="UTF-8" standalone="no"?>
<!-- Created with Inkscape (http://www.inkscape.org/) -->

<svg
   width="21.08799mm"
   height="6.0770192mm"
   viewBox="0 0 21.08799 6.0770192"
   version="1.1"
   id="svg1"
   xmlns:inkscape="http://www.inkscape.org/namespaces/inkscape"
   xmlns:sodipodi="http://sodipodi.sourceforge.net/DTD/sodipodi-0.dtd"
   xmlns="http://www.w3.org/2000/svg"
   xmlns:svg="http://www.w3.org/2000/svg">
  <sodipodi:namedview
     id="namedview1"
     pagecolor="#ffffff"
     bordercolor="#666666"
     borderopacity="1.0"
     inkscape:showpageshadow="2"
     inkscape:pageopacity="0.0"
     inkscape:pagecheckerboard="0"
     inkscape:deskcolor="#d1d1d1"
     inkscape:document-units="mm" />
  <defs
     id="defs1" />
  <g
     inkscape:label="Layer 1"
     inkscape:groupmode="layer"
     id="layer1"
     transform="translate(-77.855936,-143.55815)">
    <path
       d="m 91.200816,143.72731 c -0.0702,0.10654 -0.122061,0.3623 -0.02223,0.43533 0.100189,0.0734 0.246239,0.13264 0.246239,0.13264 -0.465666,0.57115 -0.784225,0.67981 -1.056923,0.83962 -0.06985,0.0413 -0.05609,0.078 -0.01516,0.067 0.02151,-0.006 0.388054,-0.0628 0.815975,-0.3877 0.231775,-0.17604 0.371475,-0.47625 0.371475,-0.47625 0,0 0.116062,0.0963 0.131585,0.11606 0.03528,0.0434 0.05468,0.0759 0.07126,0.03 0.06068,-0.16898 -0.0254,-0.27093 -0.107595,-0.3235 0,0 0.08537,-0.26317 -0.07161,-0.5274 -0.02611,-0.0441 -0.182033,-0.18556 -0.363008,0.0942 m 0.243768,0.0727 c 0.104775,0.0977 0.0889,0.25753 0.08467,0.29457 0,0 -0.134054,-0.0628 -0.194027,-0.0885 -0.05997,-0.0258 -0.09102,-0.0639 -0.0635,-0.1016 0.09207,-0.13018 0.137583,-0.12559 0.17286,-0.10443 m -1.735666,-0.13793 c -0.01659,0.0388 -0.137584,0.33584 -0.137584,0.33584 0.0028,0.0176 0.03634,0.14711 0.04269,0.19544 0.05644,0.42863 0.36195,2.70087 0.462492,3.50132 0.04974,0.3937 0.08819,0.74824 0.09384,0.93874 -0.0046,0.0586 0.02082,0.0808 0.04762,0.024 0.01447,-0.0303 0.07514,-0.15557 0.09349,-0.48366 0.0141,-0.24694 -0.0056,-0.62582 -0.0762,-1.14723 -0.01024,-0.0762 -0.329848,-2.46168 -0.329848,-2.46168 0,0 0.19685,0.18556 0.2286,0.21872 0.03175,0.0335 0.0702,0.0159 0.05186,-0.0381 -0.01765,-0.054 -0.421923,-1.03047 -0.434975,-1.06433 -0.0127,-0.0339 -0.02574,-0.0582 -0.04198,-0.019 m -1.068211,0 c -0.01622,0.0388 -0.14605,0.32455 -0.14605,0.32455 0.0032,0.0233 0.03352,0.0935 0.05503,0.23742 0.02151,0.14605 0.418041,3.45405 0.422627,3.76344 0.0046,0.0921 0.01236,0.084 -0.0056,0.11747 -0.01765,0.0339 -0.319617,0.33585 -0.880182,0.27623 -0.03845,-0.008 -0.141462,-0.0141 -0.250825,-0.11007 0.106892,-0.0794 0.196147,-0.16792 0.254707,-0.26599 0.104068,-0.14888 0.26176,-0.52635 -0.02822,-0.98814 -0.05891,-0.0787 -0.242359,-0.20002 -0.402871,-0.025 -0.131233,0.14287 -0.409223,0.51541 -0.203554,1.12465 -0.02363,0.01 -0.04762,0.0194 -0.07267,0.0282 -0.172863,0.073 -1.197681,0.54892 -1.954035,0.16263 -0.114654,-0.0646 -0.401815,-0.28434 -0.460729,-1.02341 -0.03316,-0.34467 -0.189087,-2.73509 -0.411692,-3.42794 -0.06279,-0.16828 -0.08008,-0.0367 -0.09207,-0.0127 -0.0254,0.0504 -0.125587,0.31891 -0.113594,0.35701 0.250825,0.79445 0.400757,3.4544 0.518232,3.82411 0.117475,0.36971 0.17921,0.97437 1.568447,0.78987 0.07373,-0.007 0.680863,-0.13476 1.155348,-0.38982 0.02363,0.0434 0.04939,0.0875 0.07797,0.13264 0.118179,0.13794 0.439912,0.40287 1.065742,0.12101 0.222602,-0.12136 0.516818,-0.40288 0.445558,-1.10067 -0.02117,-0.28117 -0.354542,-3.04588 -0.354542,-3.04588 0,0 0.173567,0.18062 0.205317,0.21378 0.03175,0.0339 0.0702,0.0162 0.05186,-0.0381 -0.01765,-0.0536 -0.388763,-0.99237 -0.401814,-1.02623 -0.01304,-0.0339 -0.02574,-0.0582 -0.04233,-0.019 m -0.701323,3.7398 c 0.15734,0.21448 0.135467,0.24024 0.123473,0.25999 -0.0092,0.0152 -0.142875,0.19615 -0.401108,0.35102 -0.07373,-0.1644 -0.16651,-0.42545 -0.10936,-0.52388 0.07902,-0.13688 0.23001,-0.30162 0.386995,-0.0871 m 9.783924,-3.57894 c -0.0702,0.10654 -0.122415,0.36266 -0.02257,0.43533 0.100187,0.0734 0.246237,0.13265 0.246237,0.13265 -0.465312,0.57114 -1.380418,0.97719 -1.598083,1.14688 -0.0642,0.049 -0.05609,0.0783 -0.01482,0.067 0.03634,-0.01 0.733073,-0.20497 1.37019,-0.75072 0.2921,-0.25012 0.28434,-0.26881 0.358423,-0.42051 0.06315,0.0325 0.106892,0.0854 0.131585,0.11607 0.03493,0.0434 0.05433,0.0758 0.07091,0.03 0.06103,-0.16898 -0.02506,-0.27093 -0.107599,-0.32349 0,0 0.08537,-0.26318 -0.07161,-0.52741 -0.02611,-0.0441 -0.182033,-0.18521 -0.362656,0.0942 m 0.243417,0.0727 c 0.104775,0.0977 0.0889,0.25752 0.08467,0.29457 0,0 -0.133702,-0.0628 -0.193675,-0.0885 -0.05997,-0.0257 -0.09137,-0.0639 -0.06385,-0.1016 0.09243,-0.13018 0.137936,-0.12559 0.172861,-0.10442 m -1.788584,-0.16546 c -0.183091,0.23284 -0.194733,0.5387 -0.218723,0.87983 -0.02611,-0.0716 -0.172508,-0.52881 -0.639937,-0.79093 -0.03352,-0.019 -0.103013,0.0173 -0.109363,0.12453 -0.0039,0.0628 -0.02188,0.21555 0.02257,0.25859 0.0441,0.043 0.174625,0.12806 0.196496,0.14005 0.02188,0.012 0.04586,0.0138 0.05221,-0.0123 0.0067,-0.0265 0.03634,-0.0871 0.07867,-0.0434 0.03563,0.036 0.265994,0.22648 0.38594,0.63041 0.02045,0.0536 0.0702,0.0586 0.08149,-0.0176 0.02787,-0.18626 0.04269,-0.51117 0.0575,-0.60924 0.02082,-0.13829 0.08678,-0.42334 0.261761,-0.27517 0.04022,0.0335 0.0822,0.078 0.0822,0.078 0.03704,0.0469 0.08396,0.10019 0.106891,0.0462 0.03387,-0.0815 0.06174,-0.21696 0.024,-0.28999 -0.01659,-0.0324 -0.23354,-0.30726 -0.381706,-0.11888 m -1.800225,-0.0109 c -0.06738,0.0392 -1.787525,1.03188 -1.857375,1.07703 -0.06985,0.0448 -0.09454,0.0568 -0.105482,0.11007 -0.01093,0.054 -0.01693,0.085 -0.01976,0.0938 -0.0127,0.0356 -0.02151,0.0801 0.08114,0.013 0.03175,-0.0208 1.761773,-1.02058 1.82245,-1.05833 0.05821,-0.0363 0.09137,-0.0519 0.115358,-0.1076 0.02328,-0.0557 0.02893,-0.0656 0.04163,-0.10442 0.01304,-0.0413 0.02646,-0.085 -0.07797,-0.0236 m -8.157279,0.0684 c -0.150283,0.22084 -0.141464,0.49707 -0.142523,0.8054 -0.02752,-0.0625 -0.187677,-0.46532 -0.624768,-0.67169 -0.03175,-0.0152 -0.09137,0.0215 -0.09031,0.11888 0,0.0568 -0.0067,0.19544 0.03598,0.23142 0.04233,0.036 0.1651,0.10408 0.185915,0.1136 0.02045,0.01 0.04163,0.01 0.04586,-0.0148 0.0042,-0.0236 0.02752,-0.0801 0.06809,-0.0437 0.03422,0.0303 0.253645,0.18768 0.386292,0.54363 0.02222,0.0469 0.06703,0.0487 0.07303,-0.0208 0.01304,-0.16969 0.0063,-0.4625 0.01376,-0.5521 0.0099,-0.12559 0.0515,-0.38629 0.21872,-0.26423 0.03739,0.0279 0.07832,0.0653 0.07832,0.0653 0.03669,0.0399 0.08184,0.0854 0.09878,0.0349 0.02574,-0.0755 0.04269,-0.19897 0.0039,-0.26247 -0.01693,-0.0282 -0.229303,-0.26176 -0.351012,-0.0832 m 2.106435,0.60995 c -0.05186,0.0321 -2.595385,1.20121 -2.744258,1.32186 -0.07479,0.0607 -0.137231,0.15663 -0.159102,0.2607 -0.03069,0.15099 0.0067,0.29951 0.104421,0.31538 0.06879,0.0109 0.107598,0.0508 0.125238,0.0737 0.0074,0.01 0.01833,0.003 0.02151,-0.004 0.07761,-0.15381 0.0078,-0.25011 -0.124883,-0.28821 -0.05292,-0.0152 -0.07655,-0.0882 0.118533,-0.21344 0.17921,-0.115 2.549171,-1.21144 2.589387,-1.2393 0.05327,-0.0377 0.08608,-0.0519 0.106892,-0.10584 0.02082,-0.054 0.02646,-0.0635 0.03704,-0.10054 0.01164,-0.0399 0.02328,-0.0818 -0.07479,-0.0208 m -1.079149,1.56774 -0.194381,0.26776 c -0.0064,0.008 -0.0049,0.0198 0.0028,0.0257 l 0.333023,0.24271 c 0.0081,0.006 0.01939,0.004 0.02574,-0.005 l 0.168627,-0.23107 0.322792,0.23565 c 0.0078,0.006 0.01939,0.004 0.02574,-0.005 l 0.195085,-0.26776 c 0.006,-0.008 0.0046,-0.0201 -0.0035,-0.0257 l -0.333023,-0.24272 c -0.0078,-0.006 -0.01939,-0.004 -0.0254,0.005 l -0.168275,0.23072 -0.323144,-0.23531 c -0.0081,-0.006 -0.01939,-0.004 -0.02611,0.005 m -0.916869,0.87171 c -0.03845,0.0998 -0.202141,0.44556 -0.152048,0.83926 0.01199,0.0914 0.0882,0.26529 0.23989,0.26141 0.07761,-0.005 0.176035,-0.0621 0.23495,-0.28963 0.0092,-0.0512 0.01482,-0.0921 0.01905,-0.11218 0.0056,-0.0307 -0.02082,-0.0653 -0.04233,0.005 -0.04904,0.1404 -0.192265,0.24447 -0.313619,0.0674 -0.02011,-0.0356 -0.104423,-0.19791 0.0127,-0.56939 0.02363,-0.0723 0.05256,-0.17956 0.05256,-0.17956 0.02611,-0.0811 -0.01304,-0.12277 -0.05115,-0.0226 m -3.078324,-2.92664 c -0.05186,0.0321 -2.662766,1.26824 -2.811991,1.38889 -0.07408,0.0607 -0.136525,0.15663 -0.158396,0.2607 -0.0314,0.15099 0.0063,0.29986 0.104069,0.31539 0.06879,0.0109 0.10795,0.0508 0.125235,0.0737 0.0074,0.01 0.01834,0.003 0.02151,-0.004 0.07796,-0.15381 0.0078,-0.25012 -0.124532,-0.28822 -0.05327,-0.0152 -0.07655,-0.0882 0.118182,-0.21308 0.17921,-0.11536 2.616552,-1.27882 2.656416,-1.30704 0.05362,-0.0374 0.08643,-0.0515 0.107244,-0.10548 0.02082,-0.054 0.02611,-0.0635 0.03704,-0.1009 0.01164,-0.0395 0.02328,-0.0818 -0.07479,-0.0205 m -3.19546,0.0617 c -0.1651,0.20991 -0.175332,0.48613 -0.197557,0.79375 -0.02328,-0.0645 -0.154868,-0.4773 -0.577143,-0.71366 -0.03069,-0.0169 -0.09278,0.0155 -0.09878,0.11289 -0.0035,0.0564 -0.01977,0.19402 0.02045,0.23318 0.03986,0.0388 0.157692,0.11536 0.177448,0.12594 0.01976,0.0109 0.04092,0.0127 0.04692,-0.0109 0.006,-0.0236 0.03281,-0.0787 0.07126,-0.0392 0.03211,0.0325 0.23989,0.20426 0.34784,0.56903 0.01871,0.048 0.0635,0.0526 0.07373,-0.0159 0.02506,-0.16827 0.03845,-0.46108 0.05186,-0.54998 0.01871,-0.12453 0.07832,-0.3817 0.23636,-0.24835 0.03598,0.0303 0.07408,0.0705 0.07408,0.0705 0.03351,0.042 0.07549,0.0903 0.09631,0.0416 0.03104,-0.0737 0.05609,-0.19579 0.02188,-0.26176 -0.01516,-0.0293 -0.210962,-0.27693 -0.344664,-0.10725 m -1.798461,0.46073 c -0.03034,0.0748 -0.158398,0.33232 -0.138996,0.63641 0.0049,0.0702 0.05115,0.20708 0.156988,0.21061 0.05468,0 0.125235,-0.0395 0.175329,-0.21167 0.0088,-0.0388 0.01447,-0.0699 0.01834,-0.085 0.0053,-0.0233 -0.01199,-0.0508 -0.02963,0.002 -0.04057,0.10512 -0.144288,0.17885 -0.221898,0.0374 -0.0127,-0.0279 -0.06526,-0.15593 0.03104,-0.43533 0.01939,-0.0543 0.0441,-0.13511 0.0441,-0.13511 0.02151,-0.0614 -0.0042,-0.0945 -0.03528,-0.0198 m 5.301191,0.0243 c -0.03598,0.10195 -0.188383,0.4519 -0.1651,0.86465 0.0053,0.0956 0.06068,0.28117 0.186619,0.28611 0.06456,-2.7e-4 0.149225,-0.0543 0.208492,-0.28752 0.01024,-0.0529 0.01659,-0.0949 0.02117,-0.11571 0.0063,-0.0314 -0.0141,-0.0691 -0.03493,0.003 -0.04762,0.14322 -0.17145,0.24306 -0.263877,0.0515 -0.01482,-0.0381 -0.07726,-0.21202 0.03739,-0.59161 0.02257,-0.0737 0.05186,-0.18379 0.05186,-0.18379 0.02612,-0.0829 -0.0049,-0.12841 -0.04163,-0.0268 m 11.148481,0.61665 c -0.03457,0.0843 -0.178858,0.37465 -0.156985,0.71755 0.0053,0.079 0.05786,0.23319 0.176741,0.23742 0.06174,-2.6e-4 0.141465,-0.0448 0.197909,-0.23883 0.0095,-0.0437 0.01622,-0.0787 0.02045,-0.096 0.0056,-0.0261 -0.01341,-0.0575 -0.03351,0.003 -0.04516,0.11854 -0.16228,0.20144 -0.250121,0.0423 -0.0141,-0.0317 -0.07338,-0.17569 0.03528,-0.49072 0.02188,-0.0614 0.04939,-0.1524 0.04939,-0.1524 0.02434,-0.0688 -0.0049,-0.10653 -0.03916,-0.0222 m 3.307292,0.17321 c -0.0321,0.078 -0.165452,0.34714 -0.144992,0.66428 0.0046,0.073 0.05327,0.2159 0.16369,0.21978 0.05715,0 0.130881,-0.042 0.183091,-0.22119 0.0088,-0.0402 0.01482,-0.0727 0.01834,-0.0889 0.0053,-0.024 -0.01199,-0.0529 -0.03069,0.002 -0.04198,0.11007 -0.150283,0.18697 -0.23142,0.0395 -0.01304,-0.0293 -0.06809,-0.16263 0.03245,-0.45437 0.02045,-0.0565 0.04586,-0.14112 0.04586,-0.14112 0.02294,-0.0635 -0.0042,-0.0984 -0.03634,-0.0205 m -6.206419,0.008 -0.168275,0.23071 -0.323143,-0.23565 c -0.0081,-0.006 -0.01977,-0.004 -0.02574,0.005 l -0.195085,0.26706 c -0.006,0.009 -0.0046,0.0205 0.0032,0.0261 l 0.333023,0.24271 c 0.0078,0.006 0.01939,0.004 0.02574,-0.005 l 0.168275,-0.23071 0.322791,0.2353 c 0.0081,0.006 0.02011,0.004 0.02612,-0.005 l 0.194733,-0.2674 c 0.0063,-0.008 0.0049,-0.0201 -0.0032,-0.0261 l -0.332671,-0.24271 c -0.0081,-0.006 -0.01976,-0.004 -0.02574,0.005 m 1.30316,0.41592 c -0.01304,0.0455 -0.04551,0.23989 -0.05362,0.27975 -0.0078,0.0402 -0.0067,0.0797 0.01236,0.1143 0.02011,0.0342 0.07056,0.15276 0.107598,0.24907 0.03598,0.0963 0.41416,0.82408 0.448733,0.88829 0.03528,0.0646 0.04198,0.11289 0.0074,0.15557 -1.21285,1.27953 -3.552825,2.06622 -3.627614,2.10997 -0.07479,0.0434 -0.05539,0.0773 0.07091,0.055 0.188031,-0.0328 1.239308,-0.20884 1.539171,-0.35313 0.197909,-0.0952 0.887942,-0.43427 1.452033,-0.87665 -0.01553,0.1143 -0.02999,0.28222 -0.02188,0.49565 0.0381,1.02905 0.958499,0.85796 1.199799,0.80539 0.723545,-0.1591 1.608666,-1.15958 1.683808,-1.36031 0.07444,-0.19861 0.08502,-0.37994 0.06809,-0.53763 0.190852,-0.10301 0.600075,-0.43321 0.600075,-0.43321 0.01693,0.4385 0.365832,0.57079 0.473427,0.58949 0.503767,0.0766 0.756004,-0.34431 0.863248,-0.48049 0.09137,0.23989 0.311856,0.28717 0.42545,0.30939 0.434623,0.0864 0.51929,-0.22084 0.541515,-0.29104 0.13617,-0.42333 -0.109009,-0.73907 -0.140759,-0.77435 -0.03175,-0.0349 -0.04762,-10e-4 -0.05856,0.0392 -0.0113,0.0409 -0.04621,0.19332 -0.06809,0.28893 0,0 0.09067,0.14816 0.123119,0.22366 0.0321,0.0751 -0.01587,0.11641 -0.10936,0.1277 -0.263877,0.0325 -0.475192,-0.11924 -0.547865,-0.18909 -0.07232,-0.0699 0.0063,-0.19332 0.06491,-0.34113 0.04657,-0.11818 -0.04022,-0.13229 -0.106892,-2.7e-4 -0.224015,0.58914 -0.538692,0.65264 -0.621596,0.67487 -0.746125,0.20355 -0.681567,-0.47837 -0.67945,-0.5902 0.0028,-0.11183 -0.07867,-0.0706 -0.170744,0.003 -0.313973,0.25224 -0.56656,0.40005 -0.702733,0.46073 -0.116768,-0.22895 -0.28716,-0.37288 -0.359127,-0.42439 -0.807508,-0.58879 -0.873831,0.59902 -0.84949,0.72672 0.123119,0.50483 0.947915,0.19862 1.077032,0.1838 0.129468,-0.0155 0.08713,0.15522 0.01482,0.25682 -0.179213,0.25047 -0.38594,0.42969 -0.572913,0.58244 -0.799746,0.65228 -1.201561,0.60113 -1.324327,0.5969 -0.78599,-0.0222 -0.713669,-0.86889 -0.669925,-1.04952 0.236008,-0.20002 0.439208,-0.41768 0.557035,-0.6417 0.04833,-0.12277 0.131233,-0.40181 -0.01834,-0.75142 -0.07867,-0.15416 -0.326318,-0.58631 -0.326318,-0.58631 0,0 0.182385,0.006 0.199318,0.005 0.01765,-2.7e-4 0.05186,-0.0183 0.0078,-0.0695 -0.04445,-0.0512 -0.427567,-0.43321 -0.45085,-0.4639 -0.02294,-0.031 -0.0441,-0.0533 -0.05715,-0.008 m 2.422173,1.7526 c 0,0 -0.110067,0.0631 -0.417335,0.0423 -0.25753,-0.0173 -0.235657,-0.11748 -0.20038,-0.15593 0.0381,-0.0416 0.35419,-0.23989 0.617715,0.1136 m -17.521767,-1.61008 c -0.0388,0.14958 -0.206375,0.66816 -0.142875,1.26435 0.0095,0.0875 0.04798,0.22578 0.116417,0.31503 -0.01799,8e-4 -0.03669,0.0353 -0.04551,0.11713 -0.02117,0.18908 -0.01693,1.33208 0.638175,1.63406 0.138996,0.0632 0.381706,0.0797 0.512587,-0.32314 0.05539,-0.17075 0.220838,-0.92322 0.722488,-1.27706 0.06385,-0.0452 0.201789,-0.10936 0.28575,0.0586 0.08396,0.16793 0.230012,0.99836 1.516239,0.67628 0.198967,-0.0497 1.30669,-0.60043 1.478844,-0.89041 0.05433,-0.11324 0.109363,-0.22507 0.109363,-0.22507 0.0381,-0.11607 0.102304,-0.29069 -0.0113,-0.19756 -0.113593,0.0931 -0.550333,0.4826 -0.940152,0.6604 -0.1397,0.0639 -0.500591,0.20391 -0.861131,-0.11642 -0.09631,-0.0843 -0.337609,-0.35771 -0.392994,-0.72742 -0.006,-0.0843 0.0088,-0.17745 0.08431,-0.23001 0.07585,-0.0522 0.508707,-0.29458 0.969082,-0.34326 0.20955,-0.0222 0.424743,-0.0233 0.584906,0.0783 0.05221,0.0381 0.128059,-0.0317 0.05821,-0.0928 -0.200732,-0.16898 -0.704147,-0.25612 -0.969082,-0.21837 -0.264935,0.0378 -0.684742,0.11606 -0.844198,0.53551 -0.03528,0.0938 -0.205317,0.56304 0.01871,0.94686 0.06456,0.0981 0.221544,0.37218 0.381,0.48719 -0.133702,0.0293 -0.702027,0.0624 -1.070681,-0.66957 -0.06526,-0.13018 -0.182386,-0.26529 -0.429684,-0.10513 -0.246943,0.16051 -0.525637,0.50729 -0.668512,1.03223 -0.09666,0.27728 -0.172156,0.5842 -0.399346,0.59231 -0.226835,0.008 -0.680154,-0.35701 -0.684387,-1.26436 0.0011,-0.0445 -0.0046,-0.0815 -0.01376,-0.10583 0.03387,0.0332 0.07338,0.054 0.119237,0.0533 0.08431,-0.005 0.188738,-0.0893 0.246591,-0.43145 0.0088,-0.0773 0.01376,-0.13899 0.01765,-0.16933 0.0056,-0.0462 -0.02363,-0.0991 -0.04516,0.007 -0.04974,0.21061 -0.201436,0.36478 -0.33655,0.0938 -0.02257,-0.054 -0.117475,-0.30127 -7.94e-4,-0.86007 0.02363,-0.1083 0.05256,-0.26988 0.05256,-0.26988 0.02646,-0.12206 -0.01728,-0.1852 -0.05609,-0.0353 m 1.774121,0.14322 -0.168629,0.23072 -0.322792,-0.23566 c -0.0081,-0.006 -0.01976,-0.004 -0.02574,0.005 l -0.195085,0.26741 c -0.006,0.008 -0.0046,0.0201 0.0032,0.0257 l 0.333021,0.24271 c 0.0078,0.006 0.01976,0.004 0.02574,-0.005 l 0.168275,-0.23072 0.322792,0.2353 c 0.0081,0.006 0.01977,0.004 0.02612,-0.005 l 0.194733,-0.2674 c 0.0063,-0.008 0.0049,-0.0201 -0.0028,-0.0261 l -0.333023,-0.24271 c -0.0081,-0.006 -0.01977,-0.004 -0.02574,0.005 m 12.43118,0.042 c -0.05362,0.066 -0.589843,0.77011 -0.589843,0.77011 l -0.389819,-0.27799 c 0,0 0.15875,-0.0402 0.186619,-0.0483 0.02787,-0.008 0.04339,-0.0437 -0.0063,-0.0695 -0.05009,-0.0257 -0.519994,-0.21307 -0.556332,-0.22754 -0.03528,-0.0145 -0.04833,-0.0307 -0.0515,0.007 -0.0032,0.0381 -0.0085,0.34784 -0.0085,0.34784 0,0 -0.0074,0.0215 0.03387,0.0448 0.04057,0.0233 0.08149,0.0734 0.114651,0.10689 0.03387,0.0335 0.471311,0.37888 0.492477,0.39088 0,0 -0.21872,0.38453 -0.246591,0.68545 -0.02787,0.30056 0.0053,0.71649 0.416631,0.58208 0.110773,-0.0314 0.5715,-0.21449 0.67451,-0.53587 0.03316,-0.11818 0.128059,-0.33232 -0.02646,-0.54857 -0.0889,-0.1277 -0.448733,-0.3429 -0.448733,-0.3429 0,0 0.276225,-0.38206 0.302683,-0.42863 0.02611,-0.0469 0.128058,-0.3429 0.139348,-0.41451 0.01093,-0.0716 0.01659,-0.1076 -0.03669,-0.0413 m -0.09419,1.62277 c -0.153104,0.12595 -0.474134,0.2921 -0.564444,0.30057 -0.09031,0.009 -0.329848,-0.0349 -0.225777,-0.28046 0.03598,-0.0794 0.275167,-0.4893 0.275167,-0.4893 0.0896,0.0494 0.667454,0.34396 0.515054,0.46919 m -8.482894,-1.44039 c -0.01376,0.0427 -0.05044,0.22754 -0.05891,0.26529 -0.0085,0.0381 -0.0092,0.0759 0.0088,0.10901 0.01799,0.0332 0.06279,0.14781 0.0949,0.24024 0.03245,0.0931 0.372179,0.79763 0.403225,0.85972 0.03175,0.0628 0.0067,0.12771 -0.02822,0.16722 -1.302809,1.06821 -3.304117,1.70674 -3.376436,1.7459 -0.07232,0.0395 -0.05433,0.0723 0.06562,0.0547 0.180621,-0.0261 1.188154,-0.16404 1.477433,-0.29351 0.289984,-0.12911 1.564569,-0.61524 1.976613,-1.34479 0.04939,-0.11535 0.136173,-0.37888 0.0032,-0.71684 -0.07055,-0.14887 -0.294921,-0.56797 -0.294921,-0.56797 0,0 0.173919,0.0109 0.1905,0.0109 0.01659,0 0.04974,-0.0162 0.0092,-0.066 -0.04092,-0.0501 -0.395462,-0.42509 -0.416629,-0.45508 -0.02117,-0.03 -0.04057,-0.0515 -0.05433,-0.009 m 14.713302,2.00237 c -0.03104,0.0864 -0.04304,0.14287 -0.03986,0.17568 0.0032,0.0332 0.01447,0.1397 0.01447,0.1397 -0.0321,0.0257 -0.168627,0.11077 -0.305858,0.0102 0.0095,-0.0293 0.02681,-0.0889 0.03105,-0.12136 0.01482,-0.0508 -0.01622,-0.0882 -0.04092,-0.036 -0.02506,0.0526 -0.0829,0.22825 -0.125942,0.26776 -0.04304,0.0395 -0.09384,0.1845 -0.419806,0.037 -0.0568,-0.0219 -0.156985,-0.096 -0.31256,0.0607 -0.352777,0.32773 -0.596194,0.35348 -0.991307,0.49389 -0.04798,0.0219 -0.148518,0.097 -0.02893,0.085 0.118885,-0.0116 0.620184,2.7e-4 0.892527,-0.31256 0.05715,-0.0554 0.122767,-0.20143 0.339373,-0.11676 0.119944,0.0455 0.34149,0.236 0.583142,-0.14006 0.142875,0.0949 0.359127,0.0572 0.3937,-0.0476 0.03422,-0.10478 0.07408,-0.2092 0.07373,-0.28011 -2.64e-4,-0.0713 -0.0067,-0.1651 -0.0067,-0.1651 -0.0049,-0.0561 -0.02469,-0.13617 -0.05609,-0.0504 m -13.741046,0.52353 c -0.0702,0.0353 -0.879826,0.35101 -0.952148,0.39158 -0.07267,0.0402 -0.09772,0.0501 -0.112183,0.10301 -0.01447,0.0533 -0.02223,0.084 -0.02574,0.0924 -0.01482,0.0346 -0.02646,0.0787 0.08008,0.0183 0.03316,-0.019 0.856192,-0.34113 0.916163,-0.375 0.05962,-0.0339 0.0949,-0.0459 0.121708,-0.10019 0.02681,-0.054 0.03316,-0.0635 0.04798,-0.1016 0.01588,-0.0399 0.0321,-0.0832 -0.07585,-0.0286 m -4.066468,0.0169 c -0.06985,0.0353 -0.896408,0.35066 -0.96873,0.39123 -0.07232,0.0402 -0.09772,0.0504 -0.112183,0.10336 -0.01482,0.0529 -0.02222,0.0836 -0.02574,0.0921 -0.01482,0.0353 -0.02681,0.0787 0.08008,0.0183 0.03316,-0.0187 0.873125,-0.34042 0.933096,-0.375 0.05927,-0.0339 0.09455,-0.0459 0.121356,-0.10019 0.02717,-0.054 0.03352,-0.0635 0.04833,-0.10124 0.01588,-0.0406 0.0321,-0.0833 -0.0762,-0.0286"
       style="fill:#231f20;fill-opacity:1;fill-rule:evenodd;stroke:none;stroke-width:0.264583"
       id="path1" />
  </g>
</svg>
