<?xml version="1.0" encoding="UTF-8" standalone="no"?>
<!-- Created with Inkscape (http://www.inkscape.org/) -->

<svg
   width="20.123331mm"
   height="6.1001287mm"
   viewBox="0 0 20.123331 6.1001287"
   version="1.1"
   id="svg1"
   xmlns:inkscape="http://www.inkscape.org/namespaces/inkscape"
   xmlns:sodipodi="http://sodipodi.sourceforge.net/DTD/sodipodi-0.dtd"
   xmlns="http://www.w3.org/2000/svg"
   xmlns:svg="http://www.w3.org/2000/svg">
  <sodipodi:namedview
     id="namedview1"
     pagecolor="#ffffff"
     bordercolor="#666666"
     borderopacity="1.0"
     inkscape:showpageshadow="2"
     inkscape:pageopacity="0.0"
     inkscape:pagecheckerboard="0"
     inkscape:deskcolor="#d1d1d1"
     inkscape:document-units="mm" />
  <defs
     id="defs1" />
  <g
     inkscape:label="Layer 1"
     inkscape:groupmode="layer"
     id="layer1"
     transform="translate(-41.032201,-203.87185)">
    <path
       d="m 53.412318,204.04102 c -0.0702,0.10654 -0.122061,0.36266 -0.02222,0.43533 0.100189,0.0737 0.246591,0.13265 0.246591,0.13265 -0.466018,0.57114 -0.784929,0.68015 -1.057275,0.83961 -0.06985,0.0409 -0.05609,0.078 -0.01516,0.067 0.02151,-0.006 0.388056,-0.0628 0.815975,-0.38805 0.231775,-0.17569 0.371475,-0.47625 0.371475,-0.47625 0,0 0.116064,0.097 0.131585,0.11606 0.03563,0.0437 0.05468,0.0762 0.07091,0.03 0.06103,-0.16863 -0.02506,-0.27058 -0.107243,-0.32315 0,0 0.08537,-0.26317 -0.07162,-0.5274 -0.02646,-0.0445 -0.182033,-0.18521 -0.363008,0.0942 m 0.243771,0.0727 c 0.104775,0.0974 0.0889,0.25787 0.08467,0.29456 0,0 -0.134056,-0.0631 -0.194029,-0.0885 -0.05997,-0.0257 -0.09137,-0.0639 -0.06385,-0.1016 0.09243,-0.13018 0.137935,-0.12559 0.173215,-0.10442 m 6.278737,0.0229 c -0.0702,0.10654 -0.122412,0.36266 -0.02257,0.43533 0.10019,0.0737 0.246591,0.133 0.246591,0.133 -0.465666,0.5708 -1.380773,0.97684 -1.598083,1.14653 -0.06491,0.049 -0.05644,0.078 -0.01516,0.067 0.03633,-0.01 0.73307,-0.20461 1.370541,-0.75071 0.291746,-0.25013 0.283634,-0.26882 0.357717,-0.42052 0.0635,0.0325 0.107243,0.0854 0.131937,0.11607 0.03493,0.0437 0.05433,0.0759 0.07091,0.03 0.06103,-0.16933 -0.0254,-0.27093 -0.107595,-0.32349 0,0 0.08537,-0.26318 -0.07126,-0.52705 -0.02646,-0.0445 -0.182385,-0.18592 -0.363008,0.0938 m 0.243416,0.0723 c 0.104775,0.0981 0.0889,0.25823 0.08467,0.29492 0,0 -0.134054,-0.0628 -0.194027,-0.0885 -0.05997,-0.0257 -0.09102,-0.0635 -0.0635,-0.10195 0.09208,-0.12982 0.137583,-0.12524 0.17286,-0.10442 m -1.788583,-0.1651 c -0.183092,0.23283 -0.194733,0.53869 -0.21872,0.87982 -0.02611,-0.0713 -0.172157,-0.52881 -0.63994,-0.79092 -0.03387,-0.019 -0.10301,0.0169 -0.10936,0.12452 -0.0039,0.0631 -0.02188,0.21555 0.02257,0.25894 0.0441,0.043 0.174625,0.12771 0.196498,0.13935 0.02188,0.0124 0.04551,0.0141 0.05221,-0.0123 0.0067,-0.0258 0.03634,-0.0864 0.07902,-0.043 0.03528,0.036 0.265994,0.22648 0.385233,0.63041 0.02082,0.0533 0.07055,0.0586 0.08184,-0.0177 0.02787,-0.18626 0.04268,-0.51082 0.0575,-0.60924 0.02082,-0.13829 0.08678,-0.42334 0.262114,-0.27552 0.03951,0.0339 0.08184,0.0783 0.08184,0.0783 0.03704,0.0469 0.08396,0.10019 0.10654,0.0462 0.03422,-0.0819 0.06209,-0.21696 0.02434,-0.28999 -0.01659,-0.0325 -0.233539,-0.30726 -0.381706,-0.11888 m -14.624047,0.0882 c -0.06209,0.0889 -0.112538,0.3048 -0.02928,0.36936 0.08361,0.0646 0.206375,0.11818 0.206375,0.11818 -0.409223,0.47378 -0.97296,0.9144 -1.208264,1.04387 -0.06068,0.0328 -0.04974,0.0646 -0.01447,0.0564 0.01799,-0.005 0.32667,-0.10866 0.700969,-0.37007 0.315383,-0.22048 0.618418,-0.69144 0.618418,-0.69144 0,0 0.09596,0.0847 0.109008,0.10195 0.02893,0.0377 0.0441,0.0653 0.05962,0.0268 0.05574,-0.14182 -0.01516,-0.23036 -0.08361,-0.27693 0,0 0.07867,-0.2219 -0.04868,-0.44944 -0.02117,-0.0384 -0.149931,-0.16192 -0.310092,0.0713 m 0.205317,0.0674 c 0.08643,0.085 0.06914,0.2212 0.06491,0.25224 0,0 -0.112183,-0.0564 -0.162983,-0.0801 -0.05009,-0.0229 -0.0762,-0.0561 -0.05151,-0.0878 0.08149,-0.10795 0.119947,-0.10337 0.14958,-0.0843 m 12.618505,-0.16686 c -0.06738,0.0399 -1.787524,1.03223 -1.857374,1.07738 -0.06985,0.0448 -0.09419,0.0565 -0.105479,0.11042 -0.0113,0.0536 -0.01693,0.0847 -0.01977,0.0935 -0.0127,0.036 -0.02188,0.0801 0.08079,0.013 0.0321,-0.0208 1.762479,-1.02023 1.822804,-1.05833 0.05821,-0.0363 0.09172,-0.0515 0.115358,-0.1076 0.02294,-0.0557 0.02928,-0.0656 0.04127,-0.10442 0.01342,-0.0409 0.02681,-0.085 -0.07761,-0.024 m -4.669013,0.0102 c -0.01659,0.0392 -0.137583,0.3362 -0.137583,0.3362 0.0028,0.0173 0.03669,0.14676 0.04268,0.19544 0.05609,0.42827 0.407459,2.95981 0.508,3.76026 0.04939,0.3937 0.08784,0.74824 0.09313,0.93839 -0.0042,0.0589 0.02151,0.0808 0.04833,0.0243 0.01447,-0.0307 0.07479,-0.15558 0.09349,-0.48401 0.01376,-0.2466 -0.006,-0.62548 -0.0762,-1.14724 -0.01024,-0.0758 -0.375708,-2.72062 -0.375708,-2.72062 0,0 0.197202,0.18556 0.228952,0.21908 0.03175,0.0335 0.0702,0.0155 0.05186,-0.0385 -0.01765,-0.0536 -0.421568,-1.03011 -0.434975,-1.06433 -0.0127,-0.0335 -0.02574,-0.0582 -0.04198,-0.0191 m -1.035049,0 c -0.01588,0.0392 -0.145699,0.32491 -0.145699,0.32491 0.0035,0.0233 0.03422,0.0931 0.05503,0.23742 0.01939,0.13229 0.04586,0.31538 0.07585,0.51964 0,0 0.498827,3.03389 0.424037,3.13937 -0.07444,0.10513 -0.61242,0.33161 -0.895702,0.0106 -0.03316,-0.0377 -0.130175,-0.19508 -0.146756,-0.35701 -0.0042,-0.0543 -0.02928,-0.11747 -0.08819,-0.0564 -0.05891,0.061 -0.259643,0.40569 -0.582435,0.5588 -0.113596,0.054 -0.571148,0.21837 -1.016707,-0.0759 -0.121708,-0.0667 -0.293862,-0.19297 -0.583845,-0.48718 -0.20179,-0.18027 -1.192038,-0.90241 -2.091973,-1.13418 -0.09278,-0.0236 -0.222602,-0.0589 -0.134408,-0.13829 0.08819,-0.0801 1.337026,-1.16629 2.785181,-1.78118 0.130175,-0.0554 0.848429,-0.27728 0.588079,0.14252 -0.260702,0.42051 -0.525285,0.73943 -0.575379,0.82762 -0.0508,0.0882 -0.159808,0.31115 -0.17639,0.39053 -0.01693,0.0801 -0.02963,0.1852 0.05009,0.0466 0.07973,-0.13864 0.609248,-0.85301 0.689327,-0.97049 0.343958,-0.57115 0.360891,-1.10878 -0.210254,-0.94474 -0.571148,0.16334 -2.375607,1.16452 -3.108677,1.84785 -0.173921,0.16228 -0.17639,0.22296 -0.201438,0.30268 -0.0067,0.0215 -0.02222,0.0681 -0.03598,0.12736 -0.09984,-0.77294 -0.237419,-1.67323 -0.409221,-2.23626 -0.03775,-0.10936 -0.05891,-0.13441 -0.109008,-0.0293 -0.0508,0.10513 -0.09701,0.18909 -0.04657,0.34431 0.0508,0.15557 0.468842,2.32798 0.515409,3.19546 0.01304,0.24659 0.05009,1.30175 0.778578,1.45627 0.18909,0.0399 0.566915,0.0208 0.990955,-0.39793 0.127352,-0.12559 0.360537,-0.44909 0.02787,-1.08868 0.347839,0.14253 0.957085,0.77047 1.04775,0.84067 0.106185,0.0818 1.041751,0.7172 1.748366,-0.37183 0.1016,0.23778 0.300212,0.7613 0.99201,0.51859 0.100542,-0.0349 0.458259,-0.11078 0.408517,-0.87313 -0.01093,-0.17074 -0.421568,-2.98591 -0.421568,-2.98591 0,0 0.197201,0.18556 0.228951,0.21908 0.03175,0.0335 0.06985,0.0155 0.05221,-0.0385 -0.01834,-0.0536 -0.422627,-1.03011 -0.435327,-1.06433 -0.01304,-0.0335 -0.02611,-0.0582 -0.04268,-0.0191 m -5.202058,3.04131 c 0.256469,0.13864 1.226608,0.64735 1.604785,1.13842 0.07549,0.13052 0.07549,0.18944 -0.04657,0.30691 -0.121709,0.11783 -0.516467,0.36125 -0.751769,0.38241 -0.235305,0.0208 -0.61948,0.012 -0.760238,-0.91157 -0.01939,-0.12665 -0.0575,-0.49671 -0.113945,-0.96803 0.01871,0.0198 0.04092,0.0378 0.06773,0.0519 m 1.811512,-2.88925 c -0.07726,0.0356 -1.55575,0.74507 -1.63477,0.78282 -0.07444,0.0367 -0.09455,0.0568 -0.105482,0.11077 -0.0113,0.0536 -0.01693,0.0847 -0.01976,0.0931 -0.0127,0.036 -0.02188,0.0677 0.08114,0.0134 0.03387,-0.0177 1.5367,-0.73096 1.599493,-0.76447 0.06068,-0.0317 0.09208,-0.0515 0.115358,-0.10724 0.02363,-0.0561 0.02928,-0.0656 0.04198,-0.10443 0.01341,-0.0413 0.0321,-0.0741 -0.07796,-0.024 m 2.953457,0.78988 c -0.06985,0.0349 -0.871363,0.33055 -0.943682,0.37076 -0.07197,0.0406 -0.09737,0.0508 -0.112183,0.10372 -0.01447,0.0529 -0.02223,0.0836 -0.02574,0.0921 -0.01482,0.0349 -0.02646,0.0787 0.08008,0.0183 0.03351,-0.0191 0.847725,-0.32032 0.907698,-0.35454 0.05962,-0.0342 0.0949,-0.0462 0.12206,-0.10019 0.02646,-0.0543 0.03316,-0.0639 0.04798,-0.1016 0.01588,-0.0406 0.0321,-0.0832 -0.0762,-0.0286 m -0.1524,0.77152 c -0.02188,0.0688 -0.03881,0.12206 -0.0088,0.20073 0.02999,0.0783 0.110773,0.25682 0.123825,0.28222 0.01376,0.0254 0.01693,0.0543 -0.02752,0.073 -0.04409,0.0191 -0.246943,0.0621 -0.284337,-0.15381 -0.03775,-0.2159 -0.04127,-0.27905 -0.05997,-0.31574 -0.01871,-0.0363 -0.03669,-0.0409 -0.0508,-0.004 -0.01447,0.0363 -0.02328,0.11183 -0.0254,0.12382 -0.0024,0.0124 -0.0024,0.0212 0.0056,0.0342 0.0074,0.0134 0.08855,0.25471 0.05186,0.32138 -0.03634,0.066 -0.218017,0.18592 -0.313619,0.0607 -0.04516,-0.0871 -0.01765,-0.30868 -0.01765,-0.36089 0,-0.0522 -0.01622,-0.0699 -0.0388,-0.0279 -0.02188,0.0423 -0.03422,0.0702 -0.03316,0.1076 0.0013,0.0377 0.0067,0.19932 0.0032,0.25012 -0.0032,0.0508 0,0.2159 0.09772,0.26246 0.09737,0.0466 0.239184,0.004 0.346427,-0.19896 0.0829,0.12029 0.20955,0.12065 0.276932,0.096 0.0575,-0.0208 0.12206,-0.10724 0.140758,-0.22683 0.01871,-0.11924 -0.01236,-0.20179 -0.04974,-0.26917 -0.0501,-0.0829 -0.08326,-0.22225 -0.08326,-0.22225 -0.01765,-0.0501 -0.03069,-0.1009 -0.05327,-0.0325 m -2.699102,0.13547 c -0.03034,0.0751 -0.158398,0.33267 -0.138996,0.63676 0.0046,0.0702 0.05116,0.20708 0.156988,0.21061 0.05468,-2.6e-4 0.125235,-0.0399 0.175683,-0.21167 0.0085,-0.0392 0.0141,-0.0702 0.01765,-0.0854 0.0053,-0.0233 -0.01199,-0.0508 -0.02963,0.002 -0.04022,0.10513 -0.143934,0.17886 -0.221544,0.0377 -0.01304,-0.0282 -0.06527,-0.15593 0.03104,-0.43603 0.01939,-0.0536 0.0441,-0.13476 0.0441,-0.13476 0.02151,-0.061 -0.0046,-0.0945 -0.03528,-0.0198 m 1.084792,0.84208 c -0.03916,0.11324 -0.207788,0.50588 -0.153107,0.95497 0.0127,0.10372 0.09313,0.30269 0.250473,0.2988 0.08149,-0.005 0.183092,-0.0695 0.243417,-0.32808 0.0095,-0.0586 0.01516,-0.10477 0.01905,-0.12806 0.006,-0.0346 -0.02188,-0.0744 -0.04339,0.006 -0.0508,0.15945 -0.199321,0.27728 -0.326673,0.0748 -0.02117,-0.0406 -0.110067,-0.22613 0.0099,-0.64841 0.024,-0.0818 0.05362,-0.20391 0.05362,-0.20391 0.02752,-0.0928 -0.0141,-0.14005 -0.05327,-0.0261 m 1.630537,0.0762 -0.168275,0.23037 -0.322792,-0.23566 c -0.0085,-0.006 -0.02011,-0.004 -0.02611,0.005 l -0.195086,0.26706 c -0.0063,0.008 -0.0046,0.0201 0.0032,0.0261 l 0.333024,0.24271 c 0.0078,0.006 0.01939,0.004 0.02574,-0.005 l 0.168626,-0.23071 0.322792,0.23565 c 0.0078,0.006 0.01939,0.004 0.02574,-0.005 l 0.195085,-0.26706 c 0.006,-0.009 0.0046,-0.0204 -0.0035,-0.0264 l -0.332671,-0.24272 c -0.0081,-0.006 -0.01976,-0.004 -0.02574,0.005 m -7.732183,-2.32199 c -0.162629,0.20955 -0.17286,0.48507 -0.194379,0.79269 -0.02294,-0.0646 -0.152754,-0.4766 -0.567621,-0.71261 -0.02999,-0.0173 -0.09137,0.0152 -0.09701,0.11219 -0.0035,0.0568 -0.01939,0.19402 0.02011,0.23318 0.03916,0.0388 0.154869,0.11501 0.174271,0.12594 0.01976,0.0106 0.04057,0.0124 0.04621,-0.0113 0.006,-0.0236 0.0321,-0.0783 0.0702,-0.0392 0.02681,0.0279 0.248709,0.22295 0.316442,0.48965 0.05645,0.23178 -0.513644,0.69956 -0.543629,0.72108 -0.05327,0.0381 -0.03634,0.0632 -0.0113,0.0497 0.02469,-0.0134 0.04939,-0.0173 0.341842,-0.21025 0.235657,-0.15558 0.285044,-0.33585 0.305152,-0.47449 0.0028,-0.006 0.0049,-0.0141 0.006,-0.0233 0.02469,-0.16828 0.03775,-0.46073 0.0508,-0.54928 0.01871,-0.12418 0.07726,-0.38135 0.232833,-0.24765 0.03528,0.0303 0.07267,0.0702 0.07267,0.0702 0.03316,0.042 0.07444,0.0903 0.09454,0.0416 0.03069,-0.0734 0.05503,-0.19544 0.02151,-0.26105 -0.01482,-0.0293 -0.207079,-0.27693 -0.338667,-0.10725 m 1.616075,0.56797 -0.194733,0.26741 c -0.0063,0.008 -0.0046,0.0201 0.0032,0.0257 l 0.333023,0.24272 c 0.0078,0.006 0.01939,0.004 0.02574,-0.005 l 0.195088,-0.26741 c 0.006,-0.009 0.0042,-0.0204 -0.0035,-0.0261 l -0.333021,-0.24272 c -0.0078,-0.006 -0.01939,-0.004 -0.02574,0.005 m 12.72399,0.33161 c -0.03457,0.0843 -0.178859,0.37501 -0.156988,0.7172 0.0053,0.0794 0.0575,0.23354 0.176742,0.23742 0.06174,-2.7e-4 0.141464,-0.0448 0.197908,-0.23848 0.0099,-0.0437 0.01622,-0.0787 0.02011,-0.0959 0.006,-0.0261 -0.01341,-0.0572 -0.03316,0.002 -0.04516,0.11888 -0.162277,0.20178 -0.250119,0.0427 -0.0141,-0.0317 -0.07338,-0.17568 0.03528,-0.49106 0.02188,-0.0607 0.04939,-0.15205 0.04939,-0.15205 0.02434,-0.0692 -0.0049,-0.10654 -0.03916,-0.0222 m 3.307291,0.17322 c -0.0321,0.0783 -0.165454,0.34713 -0.144991,0.66392 0.0046,0.0734 0.05327,0.21626 0.163335,0.21979 0.05715,0 0.130881,-0.0413 0.183444,-0.22084 0.0088,-0.0402 0.01482,-0.073 0.01871,-0.0889 0.0049,-0.024 -0.0127,-0.0529 -0.03104,0.002 -0.04163,0.11006 -0.149931,0.18697 -0.231423,0.0399 -0.01341,-0.0293 -0.06809,-0.16298 0.03246,-0.45473 0.02046,-0.0565 0.04586,-0.14081 0.04586,-0.14081 0.02294,-0.0639 -0.0046,-0.0984 -0.03634,-0.0205 m -6.206421,0.008 -0.168627,0.23037 -0.322791,-0.23531 c -0.0081,-0.006 -0.01939,-0.004 -0.02574,0.005 l -0.195088,0.26741 c -0.006,0.008 -0.0046,0.0198 0.0032,0.0261 l 0.333023,0.24236 c 0.0081,0.006 0.01939,0.004 0.02574,-0.005 l 0.168275,-0.23107 0.322792,0.23566 c 0.0081,0.006 0.02011,0.004 0.02611,-0.005 L 54.3826,205.8295 c 0.0063,-0.008 0.0049,-0.0201 -0.0032,-0.0257 l -0.332668,-0.24306 c -0.0081,-0.006 -0.02011,-0.004 -0.02574,0.005 m -9.457264,0.0353 -0.168275,0.23072 -0.323146,-0.23566 c -0.0081,-0.006 -0.01976,-0.004 -0.02574,0.005 l -0.194734,0.26706 c -0.0063,0.009 -0.0049,0.0205 0.0028,0.0265 l 0.333375,0.24236 c 0.0078,0.006 0.01939,0.004 0.0254,-0.005 l 0.168275,-0.23071 0.323496,0.23565 c 0.0078,0.006 0.01905,0.004 0.0254,-0.005 l 0.195088,-0.26706 c 0.006,-0.008 0.0046,-0.0205 -0.0035,-0.0261 l -0.332669,-0.24271 c -0.0081,-0.006 -0.01939,-0.004 -0.02574,0.005 m 10.760427,0.38065 c -0.01304,0.0455 -0.04586,0.23953 -0.05327,0.2801 -0.0085,0.0399 -0.0074,0.0794 0.01236,0.11395 0.01976,0.0339 0.0702,0.1524 0.107243,0.24906 0.03598,0.0959 0.414163,0.82409 0.448734,0.88829 0.03493,0.0646 0.04233,0.11289 0.0074,0.15558 -1.21285,1.27952 -3.553177,2.06622 -3.627967,2.10961 -0.07444,0.0437 -0.05503,0.0773 0.07126,0.0554 0.188029,-0.0332 1.239309,-0.20849 1.539169,-0.35312 0.197556,-0.0956 0.887942,-0.43427 1.452385,-0.87666 -0.01588,0.11395 -0.03034,0.28222 -0.02223,0.4953 0.03775,1.02906 0.958146,0.85831 1.199798,0.80539 0.723548,-0.15875 1.608667,-1.15887 1.683457,-1.36031 0.07443,-0.19791 0.08537,-0.37923 0.06879,-0.53728 0.1905,-0.10336 0.599721,-0.43356 0.599721,-0.43356 0.01693,0.43886 0.365831,0.57079 0.473781,0.58984 0.503415,0.0762 0.755298,-0.34431 0.862894,-0.48083 0.09137,0.24059 0.312208,0.28716 0.42545,0.30974 0.434623,0.0864 0.519289,-0.22084 0.541514,-0.29104 0.136174,-0.42369 -0.109008,-0.73943 -0.140758,-0.77435 -0.03175,-0.0349 -0.04763,-0.001 -0.05856,0.0392 -0.0113,0.0406 -0.04622,0.19332 -0.06844,0.28892 0,0 0.09102,0.14817 0.123473,0.22331 0.0321,0.0755 -0.01588,0.11677 -0.109363,0.12806 -0.264228,0.0325 -0.475191,-0.11924 -0.547862,-0.18909 -0.07232,-0.0695 0.006,-0.19332 0.06456,-0.34114 0.04692,-0.11818 -0.04022,-0.13229 -0.10654,-2.6e-4 -0.224015,0.58913 -0.538692,0.65263 -0.621594,0.67486 -0.746125,0.2032 -0.681921,-0.47837 -0.67945,-0.59055 0.0028,-0.11148 -0.07867,-0.0702 -0.170746,0.004 -0.31397,0.25188 -0.566912,0.40005 -0.702733,0.46073 -0.117121,-0.22896 -0.287161,-0.37254 -0.359127,-0.4244 -0.807157,-0.58878 -0.874184,0.59902 -0.84949,0.72637 0.122767,0.50518 0.947563,0.19897 1.077383,0.1838 0.129117,-0.0152 0.08678,0.15522 0.01447,0.25682 -0.17921,0.25012 -0.38594,0.43004 -0.57291,0.58279 -0.799748,0.65229 -1.201208,0.60078 -1.32433,0.59655 -0.785987,-0.0219 -0.713668,-0.86854 -0.669925,-1.04952 0.236009,-0.20002 0.439209,-0.41733 0.557038,-0.64135 0.04833,-0.12276 0.130879,-0.40181 -0.01834,-0.75176 -0.07867,-0.15381 -0.326319,-0.58597 -0.326319,-0.58597 0,0 0.182033,0.006 0.199319,0.005 0.01765,-2.6e-4 0.05186,-0.0183 0.0078,-0.0695 -0.04445,-0.0512 -0.427567,-0.43322 -0.45085,-0.46426 -0.02294,-0.0307 -0.04445,-0.0526 -0.05715,-0.007 m 2.42217,1.7526 c 0,0 -0.110066,0.0632 -0.417335,0.0423 -0.257881,-0.0173 -0.235656,-0.11748 -0.200377,-0.15593 0.03845,-0.0413 0.353835,-0.24024 0.617712,0.11359 m -3.316462,-1.42487 c -0.05362,0.0663 -0.589846,0.77012 -0.589846,0.77012 l -0.389819,-0.27835 c 0,0 0.159102,-0.0395 0.186619,-0.048 0.02787,-0.008 0.04339,-0.0438 -0.0067,-0.0695 -0.04974,-0.0254 -0.519642,-0.21343 -0.555625,-0.22789 -0.03563,-0.0145 -0.04868,-0.0307 -0.05186,0.007 -0.0032,0.0381 -0.0088,0.34784 -0.0088,0.34784 0,0 -0.0071,0.0215 0.03422,0.0448 0.04092,0.0236 0.08149,0.0734 0.114652,0.10689 0.03387,0.0339 0.471312,0.37853 0.492479,0.39087 0,0 -0.218723,0.38453 -0.246592,0.68545 -0.02822,0.30092 0.0053,0.71614 0.416629,0.58209 0.110773,-0.0314 0.571148,-0.21449 0.674513,-0.53587 0.03316,-0.11818 0.128058,-0.33197 -0.02646,-0.54893 -0.0889,-0.12735 -0.448734,-0.34254 -0.448734,-0.34254 0,0 0.276225,-0.38206 0.302684,-0.42898 0.02611,-0.0466 0.127704,-0.34255 0.139345,-0.41416 0.01093,-0.0716 0.01622,-0.10725 -0.03669,-0.0413 m -0.09498,1.623 c -0.1524,0.12559 -0.473427,0.29175 -0.563739,0.29986 -0.09031,0.009 -0.329846,-0.0349 -0.225425,-0.2801 0.03563,-0.0797 0.274814,-0.48931 0.274814,-0.48931 0.08925,0.049 0.667457,0.34326 0.51435,0.46955 m -9.694333,-1.50742 c -0.01693,0.0441 -0.07126,0.28963 -0.02082,0.35878 0.05115,0.0695 0.212019,0.30974 0.127352,0.38417 -0.08149,0.0716 -0.279752,0.16969 -0.619477,0.14182 -0.03034,-0.0575 -0.06597,-0.11607 -0.10795,-0.17463 -0.03916,-0.0642 -0.131587,-0.23812 -0.159456,-0.0699 -0.02787,0.16757 0.02506,0.27446 0.07267,0.38665 0.04763,0.11183 0.288925,0.50094 0.240946,0.61313 -0.04762,0.11183 -0.523875,0.80503 -2.170288,1.49824 -0.167923,0.0713 -0.853016,0.31927 -0.920046,0.34855 -0.06703,0.0293 -0.07549,0.0674 0.01693,0.0586 0.09243,-0.008 1.285171,-0.18874 1.407231,-0.24307 0.121708,-0.055 0.87771,-0.39934 1.428398,-0.94967 0.301977,-0.30657 0.327729,-0.55034 0.327729,-0.55034 0.01341,-0.0688 0.05186,-0.28151 -0.0039,-0.54962 0.16792,-0.0145 0.546803,-0.0483 0.640995,-0.42334 0.01871,-0.0593 0.145346,-0.41945 -0.191204,-0.83926 -0.02506,-0.0325 -0.05221,-0.0342 -0.06915,0.01 m -2.10961,0.28787 c -0.04233,0.14429 -0.225425,0.64417 -0.160515,1.21744 0.01482,0.13229 0.106188,0.38699 0.280458,0.38417 0.08996,-0.006 0.20179,-0.0871 0.265642,-0.41733 0.01058,-0.0741 0.01588,-0.13371 0.02011,-0.16264 0.0067,-0.0445 -0.02468,-0.0953 -0.04833,0.007 -0.05433,0.2032 -0.217313,0.35207 -0.360188,0.0921 -0.024,-0.0518 -0.123825,-0.28892 0.0046,-0.82726 0.02611,-0.10442 0.0575,-0.25929 0.0575,-0.25929 0.02963,-0.11783 -0.01693,-0.17851 -0.05927,-0.0342 m 2.362907,1.76424 c -0.03492,0.10089 -0.18415,0.44909 -0.135822,0.84702 0.0113,0.0921 0.08255,0.26882 0.22225,0.26529 0.07232,-0.004 0.162632,-0.0617 0.2159,-0.29104 0.0085,-0.0519 0.01342,-0.0931 0.01693,-0.11324 0.0056,-0.031 -0.01939,-0.0663 -0.03845,0.005 -0.04516,0.14182 -0.176742,0.24624 -0.289984,0.0663 -0.01834,-0.036 -0.09737,-0.20037 0.0092,-0.57467 0.02117,-0.073 0.04798,-0.18133 0.04798,-0.18133 0.02363,-0.0818 -0.01304,-0.12347 -0.04798,-0.0233 m 15.672151,0.0169 c -0.03105,0.0864 -0.04304,0.14323 -0.04022,0.17568 0.0035,0.0328 0.01482,0.13935 0.01482,0.13935 -0.0321,0.0257 -0.168629,0.11113 -0.305506,0.0106 0.0088,-0.0293 0.02646,-0.0885 0.03069,-0.12136 0.01482,-0.0508 -0.01622,-0.0882 -0.04092,-0.036 -0.02506,0.0529 -0.08325,0.22824 -0.126293,0.26775 -0.04304,0.0392 -0.09349,0.18451 -0.419452,0.0367 -0.0568,-0.0219 -0.156988,-0.096 -0.312563,0.0607 -0.352777,0.32808 -0.595842,0.35348 -0.991304,0.49424 -0.04798,0.0219 -0.148521,0.097 -0.02893,0.0854 0.119239,-0.012 0.619831,0 0.892529,-0.31291 0.05715,-0.0554 0.122767,-0.20143 0.339371,-0.11677 0.119946,0.0455 0.341489,0.23566 0.583141,-0.14005 0.142523,0.0949 0.35913,0.0568 0.393348,-0.0476 0.03457,-0.10477 0.07444,-0.20919 0.07373,-0.2801 -2.65e-4,-0.0709 -0.0064,-0.1651 -0.0064,-0.1651 -0.0049,-0.0561 -0.02506,-0.13617 -0.05609,-0.0505 m -10.560404,0.23248 c -0.03069,0.0748 -0.158396,0.33267 -0.138994,0.63677 0.0046,0.0702 0.05115,0.20672 0.156985,0.21025 0.05468,0 0.125238,-0.0395 0.175332,-0.21131 0.0088,-0.0392 0.0141,-0.0702 0.01799,-0.0857 0.0053,-0.0229 -0.01199,-0.0504 -0.02963,0.002 -0.04022,0.10548 -0.143933,0.17886 -0.221543,0.0381 -0.0127,-0.0282 -0.06562,-0.15628 0.03104,-0.43568 0.01939,-0.0543 0.0441,-0.13511 0.0441,-0.13511 0.02151,-0.061 -0.0046,-0.0945 -0.03528,-0.0198 m -1.848178,0.14579 c -0.03069,0.0748 -0.158396,0.33232 -0.138994,0.63677 0.0046,0.0699 0.05115,0.20672 0.156985,0.21025 0.05468,0 0.125238,-0.0399 0.175332,-0.21167 0.0085,-0.0392 0.01447,-0.0702 0.01765,-0.085 0.0053,-0.0233 -0.01164,-0.0512 -0.02963,0.002 -0.03986,0.10548 -0.143933,0.17886 -0.221546,0.0377 -0.0127,-0.0275 -0.06491,-0.15593 0.03105,-0.43568 0.01939,-0.054 0.0441,-0.13476 0.0441,-0.13476 0.02188,-0.0614 -0.0042,-0.0945 -0.03492,-0.0198 m -3.757787,0.42545 c -0.06985,0.0353 -0.871009,0.33055 -0.94333,0.37113 -0.07232,0.0402 -0.09807,0.0504 -0.112887,0.10336 -0.01447,0.0526 -0.02151,0.0836 -0.0254,0.0917 -0.01482,0.0353 -0.02646,0.079 0.08043,0.0187 0.03281,-0.019 0.847725,-0.32033 0.907344,-0.3549 0.05962,-0.0335 0.0949,-0.0459 0.12206,-0.0998 0.02646,-0.054 0.03281,-0.0639 0.04762,-0.1016 0.01622,-0.0402 0.03246,-0.0829 -0.07584,-0.0286"
       style="fill:#231f20;fill-opacity:1;fill-rule:evenodd;stroke:none;stroke-width:0.264583"
       id="path1-6" />
  </g>
</svg>
