<?xml version="1.0" encoding="UTF-8" standalone="no"?>
<!-- Created with Inkscape (http://www.inkscape.org/) -->

<svg
   width="19.432047mm"
   height="6.1588941mm"
   viewBox="0 0 19.432047 6.1588941"
   version="1.1"
   id="svg1"
   xmlns:inkscape="http://www.inkscape.org/namespaces/inkscape"
   xmlns:sodipodi="http://sodipodi.sourceforge.net/DTD/sodipodi-0.dtd"
   xmlns="http://www.w3.org/2000/svg"
   xmlns:svg="http://www.w3.org/2000/svg">
  <sodipodi:namedview
     id="namedview1"
     pagecolor="#ffffff"
     bordercolor="#666666"
     borderopacity="1.0"
     inkscape:showpageshadow="2"
     inkscape:pageopacity="0.0"
     inkscape:pagecheckerboard="0"
     inkscape:deskcolor="#d1d1d1"
     inkscape:document-units="mm" />
  <defs
     id="defs1" />
  <g
     inkscape:label="Layer 1"
     inkscape:groupmode="layer"
     id="layer1"
     transform="translate(-64.400545,-171.35174)">
    <path
       d="m 66.65655,171.41392 c -0.174625,0.22119 -0.18556,0.51258 -0.208491,0.83714 -0.02469,-0.0681 -0.16369,-0.50306 -0.608542,-0.75248 -0.03246,-0.018 -0.09807,0.0162 -0.104069,0.11854 -0.0039,0.06 -0.02045,0.20496 0.02151,0.24624 0.04022,0.0392 0.340783,0.14499 0.1778,0.3175 -0.07267,0.0769 -0.438856,0.4572 -0.517525,0.54892 -0.07867,0.0921 -0.08608,0.10865 -0.0019,0.0621 0.08432,-0.0469 0.571854,-0.23636 0.652288,-0.71967 0.0063,-0.0635 -0.0064,-0.11113 -0.02082,-0.14288 0.0063,0.002 0.01376,0.006 0.02151,0.0138 0.03387,0.0342 0.252589,0.21555 0.366889,0.59973 0.01939,0.0512 0.06667,0.0561 0.07761,-0.0162 0.02646,-0.1778 0.04092,-0.48648 0.05503,-0.57997 0.01939,-0.13158 0.0822,-0.40287 0.249063,-0.26176 0.03775,0.0321 0.07796,0.0741 0.07796,0.0741 0.03563,0.0445 0.07973,0.0956 0.101248,0.0441 0.03281,-0.0776 0.05927,-0.20637 0.02328,-0.27622 -0.01587,-0.0307 -0.22225,-0.2921 -0.363008,-0.11289 m 2.027415,0.0275 c -0.03034,0.0752 -0.158398,0.33303 -0.138996,0.63677 0.0046,0.0702 0.05115,0.20708 0.156633,0.21061 0.05503,0 0.12559,-0.0399 0.175683,-0.21167 0.0088,-0.0388 0.0141,-0.0699 0.01799,-0.085 0.0053,-0.0233 -0.01164,-0.0512 -0.02963,0.002 -0.04022,0.10548 -0.143934,0.17921 -0.221896,0.0377 -0.0127,-0.0279 -0.06526,-0.15592 0.0314,-0.43532 0.01905,-0.0543 0.0441,-0.13512 0.0441,-0.13512 0.02117,-0.0614 -0.0046,-0.0945 -0.03528,-0.0201 m 5.935485,-0.0198 c -0.01765,0.0388 -0.14746,0.33161 -0.14746,0.33161 0.0021,0.0177 0.0314,0.14852 0.03633,0.19685 0.04269,0.43004 0.315735,2.9711 0.391935,3.77402 0.03704,0.39546 0.06456,0.75071 0.06421,0.94121 -0.006,0.0586 0.01871,0.0811 0.04727,0.0254 0.01553,-0.0296 0.08008,-0.15311 0.108305,-0.48084 0.02151,-0.24588 0.01376,-0.62512 -0.04092,-1.14899 -0.0078,-0.0762 -0.291394,-2.7305 -0.291394,-2.7305 0,0 0.191558,0.1912 0.22225,0.22577 0.03034,0.0346 0.0695,0.018 0.05292,-0.0367 -0.01622,-0.0543 -0.389819,-1.04282 -0.401815,-1.07704 -0.01236,-0.0342 -0.024,-0.0593 -0.04163,-0.0208 m -1.06821,0.003 c -0.01728,0.0381 -0.155575,0.31961 -0.155575,0.31961 0.0024,0.0236 0.03104,0.0945 0.04762,0.23954 0.01236,0.10865 0.02858,0.25047 0.04727,0.41063 0,0 0.2032,2.0447 0.217665,2.23697 0.01447,0.19191 0.117475,0.83608 0.01905,0.97296 -0.09843,0.13688 -0.660752,0.45649 -1.121833,0.0818 -0.02117,-0.0176 -0.06597,-0.0677 -0.126294,-0.1337 0.269875,-0.133 0.521404,-0.2533 0.61595,-0.27905 0.03951,-0.0621 0.209902,-0.31785 0.110771,-0.39158 -0.09913,-0.0737 -0.926042,-0.52987 -1.976967,-0.0875 -0.06173,0.0346 -0.174977,0.17956 -0.211667,0.37112 -0.0092,0.0459 0.02045,0.0896 0.08043,0.055 0.01659,-0.01 0.215196,-0.1196 0.354541,-0.0296 0.04057,0.0268 0.21449,0.14111 0.41628,0.30727 -0.332671,0.13265 -0.720373,0.26494 -1.089732,0.33585 -0.01341,0.002 -0.03351,0.005 -0.05927,0.01 0.0889,-0.16687 0.190148,-0.49742 0.187325,-0.62266 -0.0095,-0.44062 -0.466725,-0.56268 -0.649817,-0.60501 -0.669573,-0.15416 -1.196975,0.57609 -1.290108,0.6985 -0.04833,0.0628 -0.230717,0.33302 -0.402519,0.59478 -0.07902,-0.0307 -0.148166,-0.0695 -0.204965,-0.11782 -0.07514,-0.0631 -0.147108,-0.16369 -0.248001,-0.27694 -0.100897,-0.11324 -0.489305,-0.33549 -1.083734,-0.0504 -0.220488,0.10583 -0.781404,0.52528 -1.394531,1.1049 -0.138994,0.13829 -0.588082,0.5207 -0.949325,0.34008 -0.100894,-0.0505 -0.294217,-0.33902 -0.01693,-0.9899 0.0575,-0.13617 0.211666,-0.45755 0.268464,-0.57503 0.0081,0.002 0.01587,0.004 0.02363,0.004 0.09701,0.004 0.226131,-0.0723 0.329848,-0.41981 0.01833,-0.0787 0.03104,-0.14182 0.0388,-0.17286 0.0113,-0.0469 -0.01693,-0.10478 -0.05292,0.003 -0.08008,0.21202 -0.270579,0.35489 -0.396875,0.0607 -0.02011,-0.0582 -0.102659,-0.3235 0.09278,-0.88794 0.03881,-0.10936 0.08925,-0.2727 0.08925,-0.2727 0.04375,-0.12347 2.65e-4,-0.19332 -0.06068,-0.043 -0.06033,0.15064 -0.309385,0.66816 -0.300918,1.29046 0.0019,0.10972 0.04374,0.30022 0.146753,0.39123 -0.17427,0.30233 -0.875241,1.71521 -0.05221,1.99002 0.136877,0.0455 0.506942,0.0434 0.919692,-0.37818 0.21449,-0.20602 0.899583,-0.86183 1.348668,-1.05868 0.241655,-0.10548 0.668867,-0.25682 0.93698,0.0631 0.06562,0.0787 0.156633,0.22014 0.348192,0.33267 -0.06244,0.0991 -0.10795,0.17392 -0.119947,0.20073 -0.07479,0.16969 0.07408,0.0741 0.144992,-0.0579 0,0 0.02611,-0.0381 0.06597,-0.096 0.173212,0.079 0.413809,0.1323 0.757767,0.11607 1.90006,-0.0896 2.606675,-0.48155 2.939695,-0.67663 0.08678,0.0818 0.17145,0.16827 0.246947,0.25612 0.06526,0.0645 0.720725,0.6103 1.352901,-0.0145 0.05256,-0.0628 0.268817,-0.38205 0.242711,-0.93733 -0.0024,-0.17744 -0.06279,-0.90311 -0.08396,-1.09079 -0.02188,-0.18697 -0.190148,-1.69827 -0.190148,-1.69827 0,0 0.164042,0.17427 0.194734,0.20885 0.03034,0.0346 0.0695,0.018 0.05327,-0.0367 -0.01659,-0.0543 -0.345723,-0.94086 -0.358071,-0.97508 -0.01199,-0.0342 -0.02434,-0.0593 -0.04198,-0.0205 m -2.911123,3.90631 c 0.08361,0.0931 0.04974,0.15981 -0.0067,0.20567 -0.644525,0.52387 -1.732846,0.43392 -1.953332,0.40746 0.06844,-0.0974 0.129117,-0.18168 0.154517,-0.21449 0.421569,-0.53093 0.714727,-0.71473 0.952852,-0.76588 0.463198,-0.0995 0.768705,0.27375 0.852665,0.36724 m 2.102556,-0.2279 c -0.02328,0.01 -0.206729,0.10513 -0.476956,0.22649 -0.124884,-0.12312 -0.268817,-0.2473 -0.407459,-0.32103 0.276225,-0.0339 0.592315,-0.0254 0.884415,0.0945 m -1.435454,-3.6142 c -0.174271,0.22154 -0.185209,0.51258 -0.208137,0.83714 -0.02469,-0.0681 -0.164042,-0.50306 -0.608897,-0.75248 -0.0321,-0.018 -0.09772,0.0166 -0.103716,0.11889 -0.0039,0.0596 -0.02082,0.20461 0.02117,0.24589 0.04198,0.0409 0.166159,0.1217 0.187325,0.13299 0.02082,0.0116 0.04304,0.013 0.04939,-0.012 0.0063,-0.0247 0.03457,-0.0822 0.07479,-0.0409 0.03422,0.0342 0.252942,0.21555 0.367242,0.59973 0.01939,0.0508 0.06668,0.0557 0.07761,-0.0162 0.02646,-0.1778 0.04057,-0.48649 0.05468,-0.58033 0.02011,-0.13158 0.08255,-0.40251 0.249412,-0.26176 0.03775,0.0321 0.07797,0.0744 0.07797,0.0744 0.03528,0.0445 0.07937,0.0952 0.101248,0.0437 0.03245,-0.0776 0.05891,-0.20603 0.02294,-0.27588 -0.01553,-0.0307 -0.221896,-0.2921 -0.363009,-0.11324 m 4.782257,0.11218 c -0.07021,0.10654 -0.122063,0.36231 -0.02223,0.43533 0.09983,0.0734 0.246591,0.13265 0.246591,0.13265 -0.466021,0.57114 -0.784931,0.6798 -1.057275,0.83961 -0.06985,0.0409 -0.05645,0.0776 -0.01516,0.0667 0.02117,-0.005 0.388056,-0.0624 0.815975,-0.3877 0.231775,-0.17568 0.371829,-0.4759 0.371829,-0.4759 0,0 0.11571,0.0963 0.131585,0.11607 0.03493,0.0434 0.05433,0.0758 0.07056,0.03 0.06103,-0.16898 -0.02506,-0.27093 -0.107246,-0.3235 0,0 0.08537,-0.26352 -0.07161,-0.5274 -0.02646,-0.0441 -0.182034,-0.18556 -0.363009,0.0942 m 0.243769,0.0723 c 0.104775,0.0977 0.0889,0.25824 0.08467,0.29493 0,0 -0.134056,-0.0628 -0.194026,-0.0885 -0.05997,-0.0258 -0.09137,-0.0639 -0.06386,-0.10195 0.09278,-0.12983 0.137938,-0.12524 0.173215,-0.10443 m 6.278385,0.0233 c -0.06985,0.10654 -0.122412,0.36265 -0.02188,0.43533 0.09983,0.0734 0.246237,0.13264 0.246237,0.13264 -0.465667,0.57115 -1.38077,0.97684 -1.598083,1.14653 -0.06526,0.0494 -0.05644,0.0783 -0.01516,0.0674 0.03633,-0.01 0.733073,-0.20497 1.37019,-0.75071 0.291745,-0.25012 0.283985,-0.26882 0.35842,-0.42052 0.06315,0.0325 0.106892,0.0854 0.131588,0.11642 0.03528,0.043 0.05398,0.0755 0.07055,0.0296 0.06138,-0.16897 -0.02506,-0.27093 -0.107244,-0.32349 0,0 0.08572,-0.26353 -0.07197,-0.52741 -0.02612,-0.0441 -0.181682,-0.1852 -0.362657,0.0942 m 0.243771,0.0727 c 0.104775,0.0974 0.0889,0.25788 0.08502,0.29457 0,0 -0.134056,-0.0628 -0.194381,-0.0885 -0.05962,-0.0257 -0.09137,-0.0639 -0.06385,-0.1016 0.09278,-0.13017 0.138289,-0.12559 0.173214,-0.10442 m -1.788583,-0.16581 c -0.183091,0.23319 -0.194733,0.53905 -0.219075,0.88018 -0.02574,-0.0716 -0.171804,-0.52916 -0.639233,-0.79128 -0.03422,-0.0187 -0.103013,0.0177 -0.109715,0.12489 -0.0039,0.0631 -0.02151,0.21519 0.02257,0.25858 0.0441,0.043 0.174625,0.12806 0.196498,0.14006 0.02188,0.012 0.04586,0.0134 0.05221,-0.0127 0.0067,-0.0261 0.03634,-0.0868 0.07867,-0.043 0.03563,0.036 0.265641,0.22648 0.385585,0.63041 0.02082,0.0533 0.07056,0.0586 0.08184,-0.0173 0.02752,-0.18662 0.04269,-0.51153 0.05751,-0.60995 0.02082,-0.13794 0.08678,-0.42298 0.262112,-0.27481 0.03951,0.0335 0.08185,0.0776 0.08185,0.0776 0.03739,0.0473 0.08361,0.10054 0.106537,0.0466 0.03457,-0.0815 0.06209,-0.21695 0.02434,-0.28998 -0.01659,-0.0328 -0.233537,-0.30727 -0.381704,-0.11924 m -1.800225,-0.0106 c -0.06738,0.0392 -1.787879,1.03187 -1.857375,1.07703 -0.06985,0.0448 -0.09419,0.0564 -0.105481,0.11007 -0.0113,0.054 -0.01693,0.085 -0.01977,0.0935 -0.0127,0.036 -0.02151,0.0804 0.08114,0.0134 0.03175,-0.0208 1.761773,-1.02059 1.822098,-1.05834 0.05821,-0.0363 0.09208,-0.0519 0.115711,-0.10795 0.02328,-0.0554 0.02928,-0.0653 0.04127,-0.10407 0.01341,-0.0413 0.02716,-0.085 -0.07761,-0.0236 M 67.69255,172.1308 c -0.03351,0.0819 -0.173918,0.36407 -0.1524,0.69709 0.0053,0.0765 0.05609,0.22648 0.171802,0.23072 0.05997,-2.7e-4 0.137231,-0.0437 0.192265,-0.23213 0.0095,-0.0423 0.01553,-0.0766 0.01939,-0.0931 0.006,-0.0254 -0.0127,-0.0557 -0.0321,0.002 -0.0441,0.11536 -0.157692,0.19614 -0.24271,0.0416 -0.0141,-0.0307 -0.07161,-0.17074 0.03387,-0.4773 0.02117,-0.0593 0.04833,-0.14782 0.04833,-0.14782 0.02328,-0.067 -0.0049,-0.10336 -0.03845,-0.0215 m 5.35446,0.2286 c -0.08431,0.0427 -2.766483,1.12219 -2.853618,1.17087 -0.08749,0.0487 -0.118182,0.0607 -0.135819,0.12489 -0.01765,0.0635 -0.02646,0.10054 -0.03105,0.11112 -0.01799,0.042 -0.03175,0.0949 0.09666,0.0219 0.04022,-0.0226 2.738612,-1.10948 2.810227,-1.15076 0.07232,-0.0409 0.114652,-0.0554 0.147108,-0.121 0.03246,-0.0653 0.04057,-0.0765 0.05856,-0.12241 0.01905,-0.0487 0.03845,-0.10054 -0.09207,-0.0346 m -4.34622,0.32244 c -0.12559,0.13653 -0.164396,0.23037 -0.202142,0.28928 -0.05151,0.0808 0.01342,0.11642 0.07197,0.0536 0.05821,-0.0628 0.09878,-0.12559 0.269169,-0.121 0.170743,0.005 0.57926,-0.0113 0.426508,0.10089 -0.1524,0.11219 -0.255765,0.17745 -0.255765,0.17745 -0.09913,0.0709 -0.186267,0.20391 -0.0113,0.13018 0.174977,-0.0741 0.4064,-0.19086 0.583494,-0.45791 0.05151,-0.0776 0.112183,-0.18168 -0.128058,-0.21766 -0.240242,-0.0356 -0.628299,-0.0921 -0.753886,0.0452 m 10.896246,0.26564 c -0.03492,0.0847 -0.178859,0.37501 -0.156634,0.71791 0.0049,0.0787 0.0575,0.23318 0.17639,0.23706 0.06173,0 0.141462,-0.0448 0.197908,-0.23847 0.0099,-0.0437 0.01588,-0.0787 0.02011,-0.096 0.0063,-0.0261 -0.01341,-0.0572 -0.03316,0.003 -0.04515,0.11853 -0.162629,0.20144 -0.250119,0.0423 -0.01447,-0.0318 -0.07338,-0.17568 0.03528,-0.49071 0.02151,-0.0614 0.04939,-0.1524 0.04939,-0.1524 0.02434,-0.0688 -0.0046,-0.10654 -0.03916,-0.0226 m -13.383329,0.0903 c -0.03316,0.0822 -0.173567,0.36442 -0.152048,0.69744 0.0049,0.0769 0.05574,0.22684 0.171802,0.23072 0.05962,-2.7e-4 0.137231,-0.0437 0.192265,-0.23213 0.0095,-0.0423 0.01553,-0.0765 0.01939,-0.0931 0.006,-0.0254 -0.01304,-0.0557 -0.03245,0.003 -0.04375,0.115 -0.157692,0.19579 -0.242713,0.0409 -0.0141,-0.0307 -0.07161,-0.17074 0.03387,-0.47695 0.02151,-0.0593 0.04833,-0.14782 0.04833,-0.14782 0.02363,-0.067 -0.0046,-0.10371 -0.03845,-0.0219 m 16.69062,0.0833 c -0.0321,0.078 -0.165806,0.34713 -0.145343,0.66392 0.0049,0.0734 0.05327,0.21626 0.163687,0.22014 0.05715,-2.7e-4 0.130881,-0.0416 0.183092,-0.22119 0.0092,-0.0406 0.01482,-0.0727 0.01871,-0.0885 0.0056,-0.0243 -0.01199,-0.0533 -0.03069,0.002 -0.04198,0.11006 -0.150283,0.18662 -0.231423,0.0395 -0.01304,-0.0293 -0.06808,-0.16263 0.03246,-0.45438 0.02011,-0.0564 0.04621,-0.14111 0.04621,-0.14111 0.02223,-0.0635 -0.0049,-0.0984 -0.03669,-0.0204 m -6.206418,0.008 -0.16863,0.23072 -0.322791,-0.23566 c -0.0081,-0.006 -0.01976,-0.004 -0.02574,0.005 l -0.195086,0.26705 c -0.0064,0.008 -0.0046,0.0204 0.0035,0.0265 l 0.332317,0.24236 c 0.0081,0.006 0.02011,0.004 0.02611,-0.005 l 0.168275,-0.23072 0.323144,0.23531 c 0.0078,0.006 0.01905,0.004 0.02574,-0.005 l 0.195088,-0.26741 c 0.006,-0.008 0.0042,-0.0201 -0.0035,-0.0261 l -0.332669,-0.24271 c -0.0081,-0.006 -0.01976,-0.004 -0.02574,0.005 m -3.843866,0.11607 c -0.03316,0.0808 -0.170744,0.35771 -0.149932,0.68474 0.0053,0.0755 0.05539,0.2226 0.168982,0.22648 0.05891,-2.6e-4 0.13476,-0.0427 0.188735,-0.22754 0.0095,-0.0416 0.01553,-0.0751 0.01905,-0.0917 0.006,-0.0251 -0.0127,-0.0547 -0.03175,0.002 -0.04268,0.11324 -0.154869,0.19262 -0.238477,0.0406 -0.01341,-0.03 -0.06985,-0.16757 0.03387,-0.46849 0.02045,-0.0582 0.04692,-0.14499 0.04692,-0.14499 0.02328,-0.066 -0.0046,-0.10195 -0.03739,-0.0215 m 5.147027,0.29951 c -0.01304,0.0455 -0.04586,0.23988 -0.05362,0.2801 -0.0081,0.0402 -0.0071,0.0801 0.0127,0.11395 0.01977,0.0346 0.07056,0.15275 0.106892,0.24941 0.03669,0.096 0.414515,0.82409 0.44944,0.88865 0.03457,0.0642 0.04198,0.11254 0.0071,0.15522 -1.21285,1.27953 -3.553179,2.06622 -3.627614,2.10961 -0.07479,0.0438 -0.05539,0.0776 0.07091,0.055 0.188383,-0.0328 1.239308,-0.2085 1.539168,-0.35278 0.197557,-0.0952 0.887942,-0.43427 1.452388,-0.87665 -0.01588,0.11394 -0.03034,0.28222 -0.02223,0.4953 0.0381,1.0294 0.958144,0.85831 1.199796,0.80539 0.723548,-0.15875 1.608314,-1.15923 1.683456,-1.35996 0.07443,-0.19861 0.08537,-0.37994 0.06879,-0.53799 0.190148,-0.10301 0.599723,-0.43321 0.599723,-0.43321 0.01693,0.43886 0.365829,0.5708 0.473427,0.58985 0.503415,0.0765 0.756002,-0.34431 0.8636,-0.48084 0.09102,0.24059 0.311856,0.28716 0.42545,0.30974 0.434268,0.0864 0.518583,-0.22084 0.54116,-0.29104 0.136525,-0.42333 -0.10936,-0.73942 -0.140758,-0.77435 -0.0314,-0.0353 -0.04762,-0.001 -0.05891,0.0392 -0.01093,0.0406 -0.04586,0.19332 -0.06773,0.28892 0,0 0.09066,0.14782 0.123119,0.22296 0.0321,0.0755 -0.01587,0.11712 -0.10936,0.12841 -0.264232,0.0321 -0.475192,-0.11924 -0.548217,-0.18909 -0.07232,-0.0699 0.0067,-0.19332 0.06491,-0.34113 0.04692,-0.11783 -0.03987,-0.1323 -0.10654,-2.7e-4 -0.224366,0.58914 -0.539043,0.65229 -0.621945,0.67486 -0.745773,0.20356 -0.681567,-0.47836 -0.678746,-0.59019 0.0024,-0.11183 -0.07902,-0.0709 -0.170744,0.003 -0.314325,0.25189 -0.567267,0.40005 -0.703085,0.46073 -0.117123,-0.22895 -0.287163,-0.37289 -0.35913,-0.42474 -0.807508,-0.58879 -0.873828,0.59936 -0.849487,0.72672 0.122767,0.50518 0.94756,0.19896 1.077029,0.18379 0.129117,-0.0152 0.08714,0.15558 0.01482,0.25718 -0.179211,0.24977 -0.385937,0.42968 -0.572911,0.58208 -0.799748,0.65264 -1.201208,0.60114 -1.324681,0.5969 -0.785283,-0.0219 -0.712962,-0.86854 -0.66957,-1.04951 0.23636,-0.20003 0.439208,-0.41734 0.557387,-0.64135 0.04798,-0.12277 0.130529,-0.40181 -0.01871,-0.75177 -0.07902,-0.15417 -0.326322,-0.58632 -0.326322,-0.58632 0,0 0.182388,0.006 0.199674,0.005 0.01728,0 0.05151,-0.018 0.0071,-0.0691 -0.0441,-0.0512 -0.427567,-0.43356 -0.450498,-0.46426 -0.02328,-0.0307 -0.04445,-0.0529 -0.05715,-0.008 m 2.422173,1.75295 c 0,0 -0.110067,0.0631 -0.417338,0.0423 -0.258233,-0.0173 -0.235654,-0.11748 -0.200729,-0.15593 0.0388,-0.0416 0.354542,-0.24024 0.618067,0.11359 m -12.46011,-1.57409 c -0.173921,0.22154 -0.185208,0.51259 -0.20814,0.83714 -0.02469,-0.0681 -0.16369,-0.50341 -0.60819,-0.75247 -0.03245,-0.018 -0.09842,0.0162 -0.104068,0.11853 -0.0039,0.06 -0.02117,0.20496 0.02117,0.24624 0.04198,0.0409 0.166159,0.12171 0.186974,0.133 0.02082,0.0116 0.04339,0.013 0.04974,-0.012 0.006,-0.0247 0.03422,-0.0825 0.07479,-0.0409 0.03387,0.0342 0.252942,0.21519 0.36689,0.59972 0.01976,0.0508 0.06703,0.0557 0.07761,-0.0166 0.02646,-0.17745 0.04092,-0.48613 0.05468,-0.57997 0.02011,-0.13158 0.0829,-0.40251 0.249415,-0.26176 0.03775,0.0321 0.07796,0.0744 0.07796,0.0744 0.03528,0.0445 0.07937,0.0952 0.101248,0.0437 0.03281,-0.0776 0.05927,-0.20637 0.02328,-0.27587 -0.01588,-0.0307 -0.221898,-0.2921 -0.36336,-0.11324 m -1.900767,0.99413 c -0.03316,0.0822 -0.173566,0.36442 -0.152048,0.69744 0.0049,0.0765 0.05609,0.22683 0.171802,0.23036 0.06033,0 0.137231,-0.0434 0.192265,-0.23142 0.0095,-0.0427 0.01553,-0.0769 0.01939,-0.0935 0.006,-0.0254 -0.0127,-0.0557 -0.0321,0.002 -0.0441,0.11536 -0.158044,0.19579 -0.243065,0.0416 -0.01376,-0.031 -0.07126,-0.17109 0.03457,-0.4773 0.02082,-0.0593 0.04798,-0.14782 0.04798,-0.14782 0.02328,-0.067 -0.0049,-0.10336 -0.0388,-0.0219 m 11.044412,-0.8449 c -0.05362,0.066 -0.589843,0.77011 -0.589843,0.77011 l -0.389822,-0.27798 c 0,0 0.15875,-0.0402 0.186622,-0.0483 0.02787,-0.008 0.04339,-0.0437 -0.0063,-0.0695 -0.0501,-0.0257 -0.520348,-0.21308 -0.556332,-0.22755 -0.03563,-0.0145 -0.04833,-0.0307 -0.05151,0.007 -0.0032,0.0381 -0.0085,0.34784 -0.0085,0.34784 0,0 -0.0074,0.0215 0.03352,0.0448 0.04127,0.0233 0.08149,0.0734 0.115006,0.10689 0.03351,0.0335 0.470959,0.37889 0.492125,0.39088 0,0 -0.218723,0.38417 -0.246239,0.68545 -0.02787,0.30092 0.0053,0.71614 0.416276,0.58243 0.111125,-0.0318 0.571855,-0.21519 0.674513,-0.53622 0.03351,-0.11853 0.128411,-0.33232 -0.02574,-0.54892 -0.08925,-0.12735 -0.449085,-0.34255 -0.449085,-0.34255 0,0 0.276225,-0.38206 0.302684,-0.42898 0.02646,-0.0466 0.127706,-0.34254 0.138993,-0.41416 0.0113,-0.0716 0.01693,-0.10759 -0.03633,-0.0413 m -0.09454,1.62278 c -0.152754,0.12594 -0.473781,0.29174 -0.564091,0.30056 -0.09031,0.008 -0.329497,-0.0353 -0.225425,-0.28046 0.03528,-0.0797 0.275166,-0.4893 0.275166,-0.4893 0.0889,0.0494 0.667102,0.34361 0.51435,0.4692 m 6.23076,0.56197 c -0.0314,0.0861 -0.04339,0.14288 -0.04022,0.17568 0.0035,0.0332 0.01482,0.13935 0.01482,0.13935 -0.0321,0.0257 -0.168981,0.11113 -0.305506,0.0106 0.0088,-0.0293 0.02681,-0.0889 0.03069,-0.1217 0.01516,-0.0505 -0.01587,-0.0882 -0.04127,-0.0356 -0.02506,0.0526 -0.0829,0.22824 -0.125587,0.2674 -0.04339,0.0399 -0.09384,0.18486 -0.420159,0.0374 -0.0568,-0.0219 -0.156633,-0.0963 -0.312208,0.0607 -0.352425,0.32773 -0.596196,0.35313 -0.991307,0.49354 -0.04798,0.0222 -0.148166,0.0974 -0.02928,0.0857 0.11924,-0.012 0.620183,2.7e-4 0.892881,-0.31326 0.0575,-0.055 0.122415,-0.20109 0.338667,-0.11642 0.12065,0.0455 0.341842,0.23566 0.5842,-0.14005 0.141817,0.0945 0.358423,0.0568 0.393348,-0.0476 0.03457,-0.10477 0.07373,-0.20884 0.07373,-0.2801 -2.65e-4,-0.0709 -0.0071,-0.1651 -0.0071,-0.1651 -0.0042,-0.0561 -0.02434,-0.13653 -0.05574,-0.0505 m -9.147879,0.0385 c -0.03669,0.0861 -0.191558,0.38312 -0.160515,0.72955 0.0071,0.0801 0.06844,0.23495 0.201084,0.23671 0.06844,-10e-4 0.156281,-0.0487 0.215193,-0.24588 0.0099,-0.0445 0.01622,-0.0797 0.02045,-0.0974 0.0064,-0.0265 -0.01587,-0.0579 -0.03704,0.003 -0.04762,0.12136 -0.17639,0.20779 -0.276932,0.0483 -0.01659,-0.0314 -0.08502,-0.17638 0.02963,-0.49741 0.02328,-0.0624 0.05221,-0.15522 0.05221,-0.15522 0.02611,-0.0702 -0.0074,-0.1076 -0.04409,-0.0219 m -2.436638,0.0169 c -0.03633,0.0861 -0.191204,0.38311 -0.160512,0.72919 0.0078,0.0804 0.06879,0.23495 0.201083,0.23671 0.06844,-0.001 0.156279,-0.048 0.215194,-0.24553 0.0099,-0.0445 0.01622,-0.0801 0.02011,-0.0977 0.0063,-0.0265 -0.01553,-0.0575 -0.03704,0.004 -0.04727,0.121 -0.176035,0.20743 -0.276225,0.0483 -0.01659,-0.0318 -0.08502,-0.17639 0.02963,-0.49741 0.02294,-0.0625 0.05221,-0.15558 0.05221,-0.15558 0.02574,-0.0702 -0.0074,-0.1076 -0.04445,-0.0215 m -3.990975,0.41063 c -0.0702,0.0349 -0.921454,0.36231 -0.993775,0.40288 -0.07232,0.0402 -0.09772,0.0504 -0.112535,0.10336 -0.0141,0.0529 -0.02188,0.0836 -0.0254,0.0917 -0.01516,0.0353 -0.02646,0.079 0.08008,0.0187 0.03316,-0.019 0.89817,-0.35208 0.957792,-0.38665 0.05962,-0.0339 0.0949,-0.0459 0.121708,-0.10019 0.02681,-0.054 0.03351,-0.0635 0.04833,-0.10124 0.01553,-0.0406 0.03175,-0.0833 -0.0762,-0.0286 m 1.499658,0.24271 c -0.02045,0.0328 -0.03528,0.0596 -0.04339,0.0723 -0.01236,0.0198 -0.0053,0.0501 0.02787,0.007 0.0702,-0.084 0.188383,-0.11818 0.215193,0.0356 0.0021,0.0296 0.0099,0.16334 -0.167216,0.38876 -0.03492,0.0434 -0.0829,0.10972 -0.0829,0.10972 -0.03951,0.049 -0.02646,0.0878 0.0254,0.0289 0.05221,-0.0586 0.250825,-0.254 0.329493,-0.53798 0.01799,-0.066 0.01871,-0.20567 -0.07655,-0.24271 -0.0501,-0.0173 -0.127354,-0.004 -0.227896,0.13793"
       style="fill:#231f20;fill-opacity:1;fill-rule:evenodd;stroke:none;stroke-width:0.264583"
       id="path1" />
  </g>
</svg>
