<?xml version="1.0" encoding="UTF-8" standalone="no"?>
<!-- Created with Inkscape (http://www.inkscape.org/) -->

<svg
   width="19.143349mm"
   height="6.14323mm"
   viewBox="0 0 19.143349 6.14323"
   version="1.1"
   id="svg1"
   xmlns:inkscape="http://www.inkscape.org/namespaces/inkscape"
   xmlns:sodipodi="http://sodipodi.sourceforge.net/DTD/sodipodi-0.dtd"
   xmlns="http://www.w3.org/2000/svg"
   xmlns:svg="http://www.w3.org/2000/svg">
  <sodipodi:namedview
     id="namedview1"
     pagecolor="#ffffff"
     bordercolor="#666666"
     borderopacity="1.0"
     inkscape:showpageshadow="2"
     inkscape:pageopacity="0.0"
     inkscape:pagecheckerboard="0"
     inkscape:deskcolor="#d1d1d1"
     inkscape:document-units="mm" />
  <defs
     id="defs1" />
  <g
     inkscape:label="Layer 1"
     inkscape:groupmode="layer"
     id="layer1"
     transform="translate(-99.339533,-235.26249)">
    <path
       d="m 107.35899,235.28186 c -0.0173,0.0388 -0.15346,0.32138 -0.15346,0.32138 0.003,0.0233 0.0311,0.0995 0.0487,0.24413 0.0166,0.13864 0.0296,0.33372 0.0557,0.54892 0.0176,0.14958 0.1979,1.48272 0.23177,1.66334 0.0109,0.0589 0.0293,0.17816 0.0674,0.31927 -0.0709,-2.7e-4 -0.13194,0.0138 -0.16404,0.0251 -0.11783,0.042 -0.46214,0.32349 -0.56727,0.84455 -0.0324,0.14005 -0.0935,0.3944 0.0639,0.61101 -0.0797,0.0204 -0.16616,0.0399 -0.26141,0.0564 -0.21414,0.0215 -1.71662,0.18627 -2.41971,-0.61313 -0.0684,-0.078 -0.0797,-0.10054 -0.10477,-0.0254 -0.006,0.0187 -0.0127,0.0561 -0.0187,0.10196 -0.0737,-0.0102 -0.15981,-0.0148 -0.26141,-0.0124 -0.21343,0.005 -0.59231,0.003 -1.24918,0.52811 -0.22543,0.18062 -1.01424,0.92957 -1.14265,1.02941 -0.1711,0.13335 -0.54116,0.25964 -0.75177,0.0459 -0.0938,-0.0949 -0.20779,-0.51259 0.19756,-1.1677 0.0173,-0.0282 0.0233,-0.0607 0.0169,-0.0818 0.14887,-0.0907 0.30127,-0.22084 0.35525,-0.38912 0.0335,-0.11853 0.12806,-0.33231 -0.0265,-0.54892 -0.0893,-0.1277 -0.44873,-0.34254 -0.44873,-0.34254 0,0 0.27622,-0.38242 0.30232,-0.42863 0.0268,-0.0469 0.12806,-0.3429 0.13935,-0.41451 0.0113,-0.0716 0.0169,-0.1076 -0.0367,-0.0416 -0.0536,0.0663 -0.58949,0.77011 -0.58949,0.77011 l -0.39017,-0.27799 c 0,0 0.1591,-0.0399 0.18697,-0.0483 0.0275,-0.008 0.0438,-0.0437 -0.006,-0.0691 -0.0501,-0.0258 -0.520344,-0.21343 -0.555975,-0.22754 -0.03598,-0.0148 -0.04904,-0.031 -0.05186,0.007 -0.0032,0.0381 -0.0085,0.34749 -0.0085,0.34749 0,0 -0.0074,0.0215 0.03351,0.0448 0.04127,0.0236 0.08114,0.0737 0.115004,0.10689 0.03387,0.0339 0.470601,0.37889 0.492481,0.39123 0,0 -0.21908,0.38418 -0.24695,0.6851 -0.0275,0.30127 0.005,0.71649 0.41663,0.58279 0.0318,-0.01 0.0921,-0.031 0.1644,-0.0642 -0.0159,0.0212 -0.0325,0.0459 -0.0508,0.0748 -0.20955,0.33408 -0.52106,1.4164 0.34008,1.52083 0.17497,0.0212 0.4766,0.0264 1.07985,-0.65159 0.13052,-0.14675 0.52916,-0.52634 0.82338,-0.69709 0.46461,-0.27022 0.82621,-0.27587 0.82621,-0.27587 0.0183,-0.002 0.10124,-0.009 0.20743,0.009 -0.0173,0.26212 0.007,0.60361 0.21308,0.78141 0.4071,0.34995 0.49812,0.13158 0.51999,0.0487 0.0173,-0.0663 0.0716,-0.2293 0.0589,-0.43074 0.002,7.9e-4 0.004,0.001 0.006,0.002 0.20179,0.0699 1.1744,0.4198 2.42076,-0.10125 0.0628,0.0286 0.13406,0.054 0.21731,0.0759 0.12136,0.0296 0.5835,0.0631 1.16347,-0.0882 0.1344,-0.042 0.27692,-0.0589 0.35277,-0.34854 0.0759,-0.28999 0.0843,-0.60502 -0.19755,-0.73907 -0.28117,-0.13476 -0.71826,-0.10972 -0.9197,-0.73096 -0.084,-0.248 -0.33901,-2.15618 -0.33901,-2.15618 0,0 0.19296,0.18945 0.22401,0.22367 0.031,0.0342 0.0695,0.0173 0.0529,-0.037 -0.0169,-0.0543 -0.37748,-0.94685 -0.38947,-0.98107 -0.0124,-0.0342 -0.0247,-0.0593 -0.042,-0.0205 m -6.22159,3.89678 c -0.15275,0.12559 -0.47413,0.29175 -0.56409,0.30057 -0.0903,0.008 -0.32985,-0.0353 -0.22578,-0.28046 0.0356,-0.0797 0.27517,-0.4893 0.27517,-0.4893 0.0893,0.049 0.66745,0.3436 0.5147,0.46919 m 6.60153,-0.24941 c 0.0586,0.12171 0.13441,0.31044 0.0797,0.39476 -0.036,0.0554 -0.13018,0.22542 -0.44662,0.38064 -0.0275,-0.0106 -0.0536,-0.0229 -0.0783,-0.0363 -0.1217,-0.0674 -0.37394,-0.17216 -0.21836,-0.47449 0.25188,-0.47907 0.52387,-0.55421 0.66357,-0.26458 m 0.47449,0.27728 c 0.18097,0.067 0.39088,0.15522 0.47484,0.1972 0.084,0.042 0.248,0.17639 0.0924,0.22684 -0.10971,0.0356 -0.58384,0.16051 -1.00894,0.14605 0.0949,-0.11359 0.18979,-0.31468 0.24447,-0.69109 0.0586,0.0476 0.12348,0.0892 0.19721,0.121 m -3.65937,1.00365 c 0.0183,0.0494 0.0293,0.0949 -0.0529,0.061 -0.0822,-0.0335 -0.2981,-0.12242 -0.32138,-0.38841 -2.7e-4,-0.0109 -2.7e-4,-0.0307 -0.001,-0.0554 0.14428,0.0561 0.29457,0.16686 0.37535,0.38276 m 6.18631,-4.76955 c -0.0699,0.10654 -0.12241,0.36265 -0.0222,0.43533 0.10019,0.0737 0.24659,0.13264 0.24659,0.13264 -0.46602,0.57115 -0.78493,0.68016 -1.05763,0.83961 -0.0702,0.0413 -0.0561,0.078 -0.0148,0.067 0.0212,-0.006 0.38771,-0.0628 0.81598,-0.3877 0.23142,-0.17604 0.37183,-0.47661 0.37183,-0.47661 0,0 0.11571,0.0967 0.13123,0.11642 0.0353,0.0437 0.0547,0.0759 0.0709,0.0296 0.0607,-0.16862 -0.0251,-0.27058 -0.10725,-0.32314 0,0 0.0854,-0.26317 -0.0716,-0.52705 -0.0265,-0.0445 -0.18203,-0.18591 -0.36301,0.0938 m 0.24342,0.0727 c 0.10513,0.0977 0.0889,0.25788 0.085,0.29457 0,0 -0.13406,-0.0628 -0.19403,-0.0885 -0.06,-0.0257 -0.0914,-0.0639 -0.0635,-0.10195 0.0921,-0.12982 0.13759,-0.12524 0.17251,-0.10407 m -1.79776,-0.18274 c -0.0173,0.0388 -0.14534,0.33302 -0.14534,0.33302 0.002,0.0173 0.0332,0.14782 0.0381,0.1965 0.0466,0.42933 0.33902,2.96827 0.42122,3.77049 0.0406,0.39511 0.0709,0.75036 0.072,0.94051 -0.006,0.0589 0.0194,0.0811 0.0473,0.0254 0.0152,-0.03 0.0787,-0.15381 0.10477,-0.48155 0.0198,-0.24624 0.008,-0.62547 -0.0497,-1.14864 -0.009,-0.0762 -0.31256,-2.72803 -0.31256,-2.72803 0,0 0.19261,0.18944 0.22366,0.22401 0.031,0.0339 0.0699,0.0173 0.0526,-0.0374 -0.0166,-0.0543 -0.39793,-1.03964 -0.40992,-1.07386 -0.0124,-0.0342 -0.0247,-0.0589 -0.042,-0.0205 m -6.47452,0.0526 c -0.17428,0.22119 -0.18521,0.51258 -0.2085,0.83679 -0.0247,-0.0677 -0.16369,-0.50307 -0.60819,-0.75213 -0.0325,-0.0183 -0.0981,0.0162 -0.10406,0.11854 -0.004,0.06 -0.0208,0.20496 0.0212,0.24588 0.042,0.0413 0.16616,0.12171 0.18733,0.133 0.0204,0.0116 0.043,0.013 0.0494,-0.0116 0.006,-0.0251 0.0342,-0.0825 0.0748,-0.0413 0.0339,0.0342 0.2533,0.21555 0.36689,0.59973 0.0198,0.0511 0.067,0.0561 0.078,-0.0162 0.0261,-0.1778 0.0406,-0.48648 0.0547,-0.57997 0.0198,-0.13159 0.0825,-0.40287 0.24906,-0.26211 0.0378,0.0321 0.078,0.0744 0.078,0.0744 0.0356,0.0444 0.0797,0.0952 0.1016,0.0437 0.0325,-0.0773 0.0589,-0.20638 0.0229,-0.27552 -0.0159,-0.031 -0.2219,-0.29245 -0.36301,-0.11324 m 14.55103,0.1531 c -0.0702,0.10654 -0.12171,0.36266 -0.0222,0.43533 0.0998,0.0734 0.24624,0.133 0.24624,0.133 -0.46567,0.57044 -1.38042,0.97684 -1.59773,1.14652 -0.0653,0.049 -0.0564,0.078 -0.0152,0.067 0.0363,-0.01 0.73307,-0.20461 1.37019,-0.75071 0.2921,-0.24977 0.28398,-0.26846 0.35842,-0.42051 0.0631,0.0325 0.10654,0.0854 0.13159,0.11642 0.0349,0.043 0.0543,0.0755 0.0709,0.0293 0.061,-0.16863 -0.0254,-0.27058 -0.10795,-0.32315 0,0 0.0857,-0.26317 -0.0713,-0.52705 -0.0265,-0.0444 -0.18238,-0.18591 -0.36301,0.0938 m 0.24377,0.0727 c 0.10478,0.0977 0.0889,0.25788 0.0847,0.29457 0,0 -0.13405,-0.0628 -0.19403,-0.0885 -0.0596,-0.0258 -0.0914,-0.0635 -0.0635,-0.1016 0.0924,-0.13018 0.13794,-0.12559 0.17286,-0.10443 m -1.78858,-0.16545 c -0.18309,0.23248 -0.19473,0.53869 -0.21907,0.87983 -0.0258,-0.0713 -0.17216,-0.52917 -0.63959,-0.79093 -0.0339,-0.019 -0.10301,0.0173 -0.10936,0.12453 -0.004,0.0631 -0.0219,0.21555 0.0226,0.25859 0.0444,0.0434 0.17462,0.12806 0.1965,0.14005 0.0219,0.012 0.0455,0.0138 0.0522,-0.0127 0.006,-0.0261 0.0363,-0.0868 0.0787,-0.043 0.0356,0.036 0.26564,0.22649 0.38593,0.63042 0.0205,0.0533 0.0699,0.0589 0.0815,-0.0173 0.0275,-0.18698 0.0427,-0.51153 0.0575,-0.6096 0.0205,-0.13829 0.0868,-0.42334 0.26211,-0.27517 0.0395,0.0335 0.0819,0.078 0.0819,0.078 0.037,0.0466 0.084,0.10018 0.10654,0.0462 0.0346,-0.0815 0.0621,-0.21696 0.0243,-0.28999 -0.0169,-0.0325 -0.23354,-0.30726 -0.38171,-0.11888 m -1.80058,-0.0109 c -0.0674,0.0395 -1.78717,1.03188 -1.85702,1.07703 -0.0695,0.0448 -0.0942,0.0565 -0.10583,0.11007 -0.0109,0.054 -0.0166,0.085 -0.0198,0.0938 -0.0124,0.0356 -0.0212,0.0801 0.0815,0.013 0.0318,-0.0208 1.76177,-1.02058 1.8221,-1.05833 0.0582,-0.0363 0.0921,-0.0519 0.11535,-0.1076 0.0236,-0.0557 0.0293,-0.0656 0.0416,-0.10442 0.0134,-0.0413 0.0268,-0.085 -0.078,-0.0236 m -7.57591,0.03 c -0.0303,0.0748 -0.15839,0.33267 -0.13899,0.63676 0.005,0.0699 0.0515,0.20673 0.15699,0.21061 0.0547,-2.6e-4 0.12523,-0.0399 0.17568,-0.21202 0.008,-0.0388 0.0141,-0.0699 0.0177,-0.085 0.005,-0.0233 -0.012,-0.0508 -0.0296,0.002 -0.0399,0.10513 -0.14393,0.17886 -0.22154,0.0374 -0.0127,-0.0279 -0.0653,-0.15558 0.031,-0.43533 0.0194,-0.0543 0.0441,-0.13511 0.0441,-0.13511 0.0215,-0.0614 -0.005,-0.0945 -0.0353,-0.0198 m -5.69418,0.0233 c -0.0307,0.0748 -0.15875,0.33266 -0.13864,0.63676 0.004,0.0699 0.0508,0.20673 0.15663,0.21025 0.0547,0 0.12523,-0.0395 0.17533,-0.21166 0.009,-0.0388 0.0141,-0.0699 0.0177,-0.085 0.005,-0.0233 -0.0113,-0.0508 -0.0296,0.002 -0.0399,0.10548 -0.14357,0.17851 -0.22154,0.0374 -0.0124,-0.0279 -0.0649,-0.15593 0.0314,-0.43533 0.0194,-0.0543 0.0437,-0.13512 0.0437,-0.13512 0.0219,-0.061 -0.004,-0.0945 -0.0349,-0.0198 m 4.39314,0.59196 c -0.0818,0.0409 -2.76013,1.26189 -2.84445,1.30951 -0.085,0.0473 -0.11465,0.0589 -0.13194,0.12101 -0.0173,0.0621 -0.0261,0.0981 -0.0303,0.10795 -0.0173,0.0413 -0.031,0.0924 0.0938,0.0215 0.0392,-0.0219 2.73297,-1.2499 2.80282,-1.29046 0.0698,-0.0399 0.11148,-0.0536 0.14288,-0.11713 0.0314,-0.0631 0.0392,-0.0748 0.0564,-0.11923 0.0187,-0.0469 0.0377,-0.0977 -0.0893,-0.0332 m 9.2075,0.70944 c -0.0346,0.0843 -0.17851,0.375 -0.15663,0.71755 0.005,0.079 0.0579,0.23319 0.17674,0.23742 0.0617,-2.7e-4 0.14146,-0.0452 0.19791,-0.23883 0.01,-0.0438 0.0159,-0.0787 0.0201,-0.096 0.006,-0.0264 -0.013,-0.0571 -0.0335,0.002 -0.0448,0.11888 -0.16228,0.20178 -0.24977,0.043 -0.0141,-0.0317 -0.0734,-0.17568 0.0353,-0.49142 0.0219,-0.061 0.0494,-0.15204 0.0494,-0.15204 0.0243,-0.0688 -0.005,-0.10654 -0.0395,-0.0222 m -5.68713,0.0374 c -0.0318,0.0995 -0.16757,0.44344 -0.12171,0.83749 0.0106,0.091 0.0773,0.266 0.20567,0.26353 0.0663,-0.004 0.14923,-0.0607 0.1972,-0.28787 0.008,-0.0508 0.012,-0.0917 0.0155,-0.11148 0.005,-0.031 -0.018,-0.0653 -0.0356,0.005 -0.0409,0.1397 -0.16157,0.24271 -0.2667,0.0642 -0.0173,-0.0356 -0.0903,-0.19861 0.006,-0.56867 0.0191,-0.072 0.043,-0.17921 0.043,-0.17921 0.0219,-0.0808 -0.0116,-0.12242 -0.0437,-0.0229 m -7.73783,-0.0124 -0.16792,0.23037 -0.32315,-0.23566 c -0.008,-0.006 -0.0198,-0.004 -0.0257,0.005 l -0.19509,0.26706 c -0.006,0.008 -0.005,0.0201 0.003,0.0261 l 0.33302,0.24306 c 0.008,0.006 0.0194,0.003 0.0254,-0.005 l 0.16863,-0.23072 0.32314,0.23566 c 0.008,0.006 0.0194,0.003 0.0254,-0.005 l 0.19509,-0.26776 c 0.006,-0.008 0.005,-0.0198 -0.003,-0.0261 l -0.33302,-0.24272 c -0.008,-0.006 -0.0198,-0.004 -0.0258,0.005 m 16.73261,0.14817 c -0.0321,0.0783 -0.16581,0.34678 -0.14535,0.66393 0.005,0.0737 0.0533,0.21625 0.16404,0.22013 0.0568,-2.6e-4 0.13088,-0.0416 0.1831,-0.22084 0.008,-0.0406 0.0145,-0.073 0.0183,-0.0889 0.006,-0.0243 -0.012,-0.0529 -0.0307,0.002 -0.0416,0.10971 -0.15063,0.18662 -0.23142,0.0395 -0.013,-0.0293 -0.0681,-0.16298 0.0321,-0.45438 0.0204,-0.0568 0.0462,-0.14146 0.0462,-0.14146 0.0226,-0.0635 -0.004,-0.0984 -0.0363,-0.0205 m -11.90131,0.0265 c -0.0667,0.0406 -1.99637,0.91229 -2.06516,0.95779 -0.0695,0.0459 -0.0942,0.0575 -0.10442,0.11148 -0.0106,0.0536 -0.0162,0.085 -0.0187,0.0938 -0.0124,0.036 -0.0208,0.0804 0.0808,0.0124 0.0321,-0.0212 1.97449,-0.90029 2.03129,-0.93874 0.0572,-0.0381 0.0914,-0.0529 0.11395,-0.10901 0.0229,-0.0557 0.0286,-0.0656 0.0406,-0.10443 0.013,-0.0416 0.0257,-0.0854 -0.0783,-0.0233 m 5.69489,-0.018 -0.16863,0.23072 -0.32279,-0.23566 c -0.008,-0.006 -0.0198,-0.004 -0.0261,0.005 l -0.19474,0.26741 c -0.006,0.008 -0.005,0.0201 0.003,0.0261 l 0.33302,0.24271 c 0.008,0.006 0.0194,0.004 0.0257,-0.005 l 0.16828,-0.23071 0.32279,0.23565 c 0.008,0.006 0.0198,0.004 0.0257,-0.005 l 0.19509,-0.26706 c 0.006,-0.009 0.005,-0.0205 -0.003,-0.0261 l -0.33302,-0.24306 c -0.008,-0.006 -0.0194,-0.004 -0.0254,0.005 m -4.83199,0.15488 c -0.085,0.10124 -0.17004,0.35736 -0.0766,0.4445 0.0938,0.0875 0.23672,0.16651 0.23672,0.16651 -0.54787,0.52846 -1.27953,0.99977 -1.57904,1.12994 -0.0765,0.0339 -0.0674,0.0734 -0.024,0.0667 0.0229,-0.003 0.40816,-0.0949 0.89041,-0.37042 0.40605,-0.23177 0.82585,-0.7687 0.82585,-0.7687 0,0 0.10725,0.11324 0.121,0.13546 0.0307,0.0487 0.0462,0.0843 0.0688,0.0392 0.0833,-0.16616 0.007,-0.28081 -0.0706,-0.34501 0,0 0.11959,-0.25965 -0.009,-0.54998 -0.0215,-0.0483 -0.16404,-0.21273 -0.38382,0.0519 m 0.24094,0.10442 c 0.0956,0.11324 0.0596,0.27587 0.0508,0.31291 0,0 -0.12982,-0.0808 -0.18838,-0.11465 -0.0582,-0.0335 -0.0857,-0.0762 -0.0529,-0.11218 0.11078,-0.12207 0.15699,-0.11184 0.1905,-0.0861 m 5.89421,0.15663 c -0.013,0.0452 -0.0459,0.23954 -0.0536,0.28011 -0.008,0.0399 -0.007,0.0794 0.0127,0.11394 0.0198,0.0346 0.0702,0.15276 0.10654,0.24906 0.037,0.096 0.41451,0.82409 0.44944,0.88865 0.0349,0.0642 0.042,0.11254 0.007,0.15522 -1.21285,1.27953 -3.55318,2.06622 -3.62797,2.10997 -0.0751,0.0434 -0.055,0.0773 0.0709,0.0554 0.18838,-0.0335 1.23966,-0.20919 1.53952,-0.35348 0.19791,-0.0952 0.88794,-0.43427 1.45239,-0.87665 -0.0159,0.1143 -0.0303,0.28222 -0.0226,0.4953 0.0384,1.0294 0.9585,0.85831 1.20015,0.80539 0.7232,-0.15875 1.60831,-1.15923 1.68381,-1.35996 0.0741,-0.19861 0.085,-0.37959 0.0681,-0.53798 0.1905,-0.10302 0.60007,-0.43286 0.60007,-0.43286 0.0169,0.43885 0.36583,0.57044 0.47343,0.58949 0.50341,0.0765 0.756,-0.34467 0.86325,-0.48084 0.0914,0.2406 0.3122,0.28716 0.42545,0.30974 0.43462,0.0864 0.51893,-0.22084 0.54151,-0.29069 0.13617,-0.42368 -0.10901,-0.73942 -0.14076,-0.7747 -0.0318,-0.0349 -0.0476,-10e-4 -0.0586,0.0392 -0.0113,0.0406 -0.0462,0.19367 -0.0681,0.28892 0,0 0.0903,0.14817 0.12312,0.22331 0.0321,0.0755 -0.0162,0.11642 -0.10901,0.12842 -0.26458,0.0321 -0.47554,-0.1196 -0.54821,-0.18945 -0.0727,-0.0699 0.006,-0.19332 0.0649,-0.34078 0.0462,-0.11853 -0.0406,-0.13265 -0.10689,-2.6e-4 -0.22437,0.58878 -0.5387,0.65193 -0.6216,0.67486 -0.74647,0.20355 -0.68192,-0.47907 -0.6791,-0.59055 0.002,-0.11183 -0.079,-0.0706 -0.17109,0.003 -0.31362,0.25188 -0.56656,0.40005 -0.70273,0.46072 -0.11713,-0.2286 -0.28752,-0.37253 -0.35878,-0.42474 -0.80786,-0.58879 -0.87418,0.59972 -0.84984,0.72672 0.12312,0.50553 0.94791,0.19897 1.07703,0.1838 0.12947,-0.0152 0.0871,0.15557 0.0148,0.25717 -0.17921,0.25012 -0.38593,0.42969 -0.57291,0.58244 -0.79974,0.65229 -1.20156,0.60078 -1.32468,0.59655 -0.78528,-0.0219 -0.71331,-0.86854 -0.66957,-1.04916 0.23636,-0.20038 0.43921,-0.41769 0.55704,-0.64206 0.0483,-0.12241 0.13088,-0.40111 -0.0187,-0.75142 -0.0787,-0.15381 -0.32632,-0.58596 -0.32632,-0.58596 0,0 0.18274,0.006 0.20003,0.005 0.0173,-2.6e-4 0.0515,-0.0183 0.007,-0.0691 -0.0441,-0.0515 -0.42756,-0.43357 -0.4505,-0.46426 -0.0229,-0.031 -0.0444,-0.0529 -0.0572,-0.008 m 2.42218,1.7526 c 0,0 -0.11007,0.0635 -0.41734,0.0427 -0.25788,-0.0177 -0.23565,-0.11783 -0.20038,-0.15593 0.0384,-0.0416 0.35419,-0.2406 0.61772,0.11324 m -12.47669,-0.78493 -0.19509,0.26741 c -0.006,0.008 -0.004,0.0201 0.004,0.0261 l 0.33232,0.24271 c 0.008,0.006 0.0198,0.004 0.0261,-0.005 l 0.19509,-0.2674 c 0.006,-0.008 0.005,-0.0201 -0.004,-0.0257 l -0.33267,-0.24271 c -0.008,-0.006 -0.0198,-0.004 -0.0261,0.005 m 9.15988,-0.63994 c -0.0533,0.0663 -0.58949,0.77011 -0.58949,0.77011 l -0.38982,-0.27834 c 0,0 0.15875,-0.0399 0.18662,-0.0476 0.0275,-0.008 0.0434,-0.0441 -0.006,-0.0699 -0.0501,-0.0254 -0.52035,-0.21308 -0.55633,-0.22789 -0.0353,-0.0141 -0.0487,-0.0307 -0.0515,0.007 -0.003,0.0384 -0.008,0.34784 -0.008,0.34784 0,0 -0.007,0.0215 0.0335,0.0448 0.0413,0.0236 0.0815,0.0737 0.115,0.10689 0.0335,0.0339 0.47096,0.37888 0.49248,0.39088 0,0 -0.21907,0.38453 -0.24659,0.68544 -0.0279,0.30093 0.005,0.71614 0.41663,0.58244 0.11077,-0.0318 0.57115,-0.21484 0.67416,-0.53622 0.0335,-0.11818 0.12841,-0.33197 -0.0261,-0.54857 -0.0893,-0.12771 -0.44873,-0.3429 -0.44873,-0.3429 0,0 0.27623,-0.38206 0.30233,-0.42898 0.0265,-0.0462 0.12806,-0.34219 0.13935,-0.41416 0.0109,-0.0716 0.0169,-0.1076 -0.0367,-0.0413 m -0.0942,1.62277 c -0.15276,0.12594 -0.47413,0.2921 -0.56409,0.30092 -0.09,0.008 -0.32985,-0.0356 -0.22578,-0.28081 0.0356,-0.0794 0.27516,-0.4893 0.27516,-0.4893 0.0893,0.0494 0.66746,0.34361 0.51471,0.46919 m 6.23076,0.56198 c -0.0314,0.0864 -0.0434,0.14323 -0.0402,0.17568 0.003,0.0332 0.0148,0.13935 0.0148,0.13935 -0.0321,0.0261 -0.16898,0.11112 -0.30586,0.0106 0.01,-0.0293 0.0272,-0.0886 0.031,-0.12135 0.0148,-0.0505 -0.0162,-0.0882 -0.0413,-0.036 -0.0247,0.0526 -0.0825,0.22825 -0.12559,0.26776 -0.0434,0.0392 -0.0938,0.18486 -0.4198,0.037 -0.0572,-0.0219 -0.15734,-0.0963 -0.31256,0.0607 -0.35278,0.32773 -0.5962,0.35313 -0.99131,0.49389 -0.048,0.0219 -0.14852,0.097 -0.0293,0.0854 0.11924,-0.012 0.62018,2.7e-4 0.89288,-0.31326 0.0575,-0.055 0.12241,-0.20109 0.33867,-0.11642 0.12065,0.0455 0.34219,0.23566 0.58384,-0.14005 0.14252,0.0949 0.35878,0.0568 0.3937,-0.0476 0.0342,-0.10477 0.0737,-0.20884 0.0737,-0.27975 -2.6e-4,-0.0716 -0.007,-0.1651 -0.007,-0.1651 -0.005,-0.0565 -0.0247,-0.13653 -0.0561,-0.0508 m -14.52421,0.20531 c -0.0459,0.0861 -0.23178,0.38065 -0.24519,0.7486 -0.003,0.0854 0.0367,0.25541 0.16405,0.2727 0.0663,0.006 0.15628,-0.0325 0.23777,-0.23319 0.0152,-0.0459 0.0254,-0.0825 0.0321,-0.10019 0.009,-0.0279 -0.008,-0.0628 -0.0363,-0.001 -0.061,0.12207 -0.19544,0.19791 -0.27235,0.0183 -0.012,-0.0349 -0.06,-0.19544 0.0903,-0.52035 0.0303,-0.0624 0.0699,-0.15734 0.0699,-0.15734 0.0335,-0.0705 0.006,-0.11359 -0.0402,-0.0275 m -3.05788,0.0646 c -0.0677,0.0346 -0.76694,0.29987 -0.837145,0.33973 -0.06985,0.0399 -0.09454,0.0497 -0.106537,0.0981 -0.01164,0.0483 -0.01765,0.0765 -0.02045,0.0843 -0.0127,0.0321 -0.02223,0.072 0.08079,0.013 0.03245,-0.0183 0.745072,-0.29034 0.802922,-0.32385 0.0572,-0.0328 0.0921,-0.0452 0.11572,-0.0956 0.024,-0.0501 0.03,-0.0586 0.0427,-0.0935 0.0134,-0.037 0.0272,-0.0762 -0.078,-0.0222 m 6.94302,0.0956 c -0.0413,0.0748 -0.20991,0.32879 -0.21238,0.64452 -2.6e-4,0.0727 0.0423,0.21837 0.16405,0.23142 0.0631,0.005 0.14781,-0.0296 0.21978,-0.20214 0.013,-0.0395 0.0222,-0.0713 0.0275,-0.0868 0.008,-0.0233 -0.01,-0.0533 -0.0342,-2.6e-4 -0.0547,0.10512 -0.18097,0.1718 -0.25893,0.019 -0.0124,-0.0303 -0.0628,-0.16652 0.0713,-0.44662 0.0268,-0.0543 0.0617,-0.13547 0.0617,-0.13547 0.03,-0.061 0.003,-0.0981 -0.0388,-0.0236"
       style="fill:#231f20;fill-opacity:1;fill-rule:evenodd;stroke:none;stroke-width:0.264583"
       id="path1" />
  </g>
</svg>
