<?xml version="1.0" encoding="UTF-8" standalone="no"?>
<!-- Created with Inkscape (http://www.inkscape.org/) -->

<svg
   width="19.492559mm"
   height="6.1749139mm"
   viewBox="0 0 19.492559 6.1749139"
   version="1.1"
   id="svg1"
   xmlns:inkscape="http://www.inkscape.org/namespaces/inkscape"
   xmlns:sodipodi="http://sodipodi.sourceforge.net/DTD/sodipodi-0.dtd"
   xmlns="http://www.w3.org/2000/svg"
   xmlns:svg="http://www.w3.org/2000/svg">
  <sodipodi:namedview
     id="namedview1"
     pagecolor="#ffffff"
     bordercolor="#666666"
     borderopacity="1.0"
     inkscape:showpageshadow="2"
     inkscape:pageopacity="0.0"
     inkscape:pagecheckerboard="0"
     inkscape:deskcolor="#d1d1d1"
     inkscape:document-units="mm" />
  <defs
     id="defs1" />
  <g
     inkscape:label="Layer 1"
     inkscape:groupmode="layer"
     id="layer1"
     transform="translate(-94.00342,-174.46534)">
    <path
       d="m 105.83993,174.63442 c -0.0699,0.10654 -0.12206,0.36265 -0.0222,0.43568 0.10019,0.0734 0.2466,0.13264 0.2466,0.13264 -0.46602,0.5708 -0.78458,0.67981 -1.05728,0.83926 -0.0699,0.0413 -0.0561,0.0783 -0.0152,0.067 0.0215,-0.005 0.38806,-0.0624 0.81597,-0.3877 0.23178,-0.17569 0.37183,-0.47625 0.37183,-0.47625 0,0 0.11571,0.0967 0.13159,0.11641 0.0349,0.043 0.0543,0.0755 0.0705,0.0296 0.061,-0.16898 -0.025,-0.27058 -0.10724,-0.3235 0,0 0.0854,-0.26317 -0.0716,-0.5274 -0.0264,-0.0441 -0.18203,-0.18521 -0.363,0.0942 m 0.24377,0.0727 c 0.10477,0.0977 0.0889,0.25788 0.0847,0.29457 0,0 -0.1337,-0.0624 -0.19403,-0.0882 -0.0596,-0.0261 -0.0914,-0.0639 -0.0635,-0.1016 0.0921,-0.13053 0.13794,-0.12595 0.17287,-0.10478 m -3.02049,-0.14499 c -0.0166,0.0388 -0.14605,0.32491 -0.14605,0.32491 0.003,0.0226 0.0339,0.0931 0.055,0.23706 0.007,0.0515 0.60431,3.53484 0.61066,3.60363 0.006,0.0688 0.0324,0.12629 -0.0423,0.18168 -0.0751,0.0554 -0.25082,0.21202 -0.61595,0.21731 -0.11959,10e-4 -0.38452,0.024 -0.58455,-0.21661 0.0561,-0.0455 0.1083,-0.0931 0.15522,-0.14252 0.0811,-0.0871 0.50659,-0.60254 0.13723,-1.15393 -0.0508,-0.0811 -0.2159,-0.29422 -0.46778,-0.11501 -0.17886,0.12735 -0.34819,0.72672 -0.18415,1.27706 -0.12665,0.0705 -0.26847,0.13829 -0.42333,0.19614 -0.13476,0.0476 -1.20192,0.54363 -2.019304,0.1905 -0.118533,-0.0515 -0.515408,-0.25188 -0.573968,-0.59655 -0.006,-0.0698 -0.0254,-0.18203 -0.140407,-0.0141 -0.115006,0.16792 -0.320675,0.80363 -0.895702,0.78564 -0.109714,-0.004 -0.626181,-0.0713 -0.752475,-1.2058 -0.04621,-0.25188 -0.370771,-2.76965 -0.589491,-3.4417 -0.0501,-0.16792 -0.06103,-0.12312 -0.08961,-0.0557 -0.02787,0.067 -0.117475,0.18486 -0.06668,0.50377 0.05045,0.31962 0.559859,3.22615 0.486834,3.39972 -0.07267,0.17357 -0.638527,0.75636 -0.9017,0.92992 -0.263174,0.17357 -1.304219,0.8315 -1.81469,-0.1905 -0.0695,-0.13899 -0.08572,-0.59619 0.08784,-1.022 2.65e-4,-10e-4 7.94e-4,-0.002 0.0013,-0.003 0.03634,0.0279 0.07867,0.0444 0.127352,0.0437 0.09701,-0.006 0.218017,-0.0893 0.288219,-0.42616 0.0113,-0.0759 0.01765,-0.13617 0.02223,-0.16616 0.0071,-0.0455 -0.02612,-0.0967 -0.05186,0.007 -0.05962,0.20779 -0.236361,0.36019 -0.389467,0.0956 -0.0254,-0.0526 -0.132996,-0.29422 0.0078,-0.84349 0.02857,-0.10654 0.06315,-0.26529 0.06315,-0.26529 0.03175,-0.11995 -0.01765,-0.18168 -0.0642,-0.0342 -0.04586,0.14746 -0.24483,0.65757 -0.177096,1.24177 0.0095,0.0815 0.04904,0.20709 0.119239,0.29422 -0.0074,0.0138 -0.01482,0.0296 -0.02188,0.0473 -0.06138,0.15135 -0.607483,1.41535 0.357365,1.90465 0.310444,0.15805 1.0414,0.17427 1.819982,-0.54892 0.2032,-0.18838 0.588078,-0.51506 0.660751,-0.92957 0,0 0.114652,0.87418 0.756357,1.04704 0.245179,0.066 0.772935,-0.0109 1.024818,-0.72813 0,0 0.227894,0.8315 1.710273,0.6664 0.12911,-0.0145 0.96131,-0.20708 1.56598,-0.5835 0.0663,0.11395 0.15204,0.22119 0.2607,0.31468 0.0921,0.0801 0.68756,0.41698 1.21849,-0.12559 0.0621,-0.0639 0.23601,-0.39864 0.16263,-0.92428 -0.0212,-0.14781 -0.47378,-2.90971 -0.47378,-2.90971 0,0 0.15628,0.16652 0.18768,0.20003 0.0318,0.0335 0.0702,0.0159 0.0519,-0.0381 -0.0177,-0.054 -0.39723,-0.97579 -0.41028,-1.01 -0.013,-0.0335 -0.0261,-0.0586 -0.0423,-0.019 m -0.6604,3.32528 c 0.0847,0.085 0.27305,0.24165 0.16686,0.4131 -0.0557,0.09 -0.18803,0.21661 -0.37641,0.34431 -0.0233,-0.0649 -0.0444,-0.13758 -0.0607,-0.22084 -0.0314,-0.10124 -0.13794,-0.32632 0.012,-0.50482 0.0363,-0.048 0.17357,-0.11607 0.25824,-0.0317 m 9.87284,-3.15736 c -0.0699,0.10654 -0.12207,0.36301 -0.0222,0.43603 0.10019,0.073 0.24695,0.13229 0.24695,0.13229 -0.46638,0.5708 -1.38078,0.97685 -1.59844,1.14688 -0.0649,0.0487 -0.0564,0.0776 -0.0155,0.0667 0.0367,-0.01 0.73342,-0.20461 1.37054,-0.75036 0.29174,-0.25047 0.28434,-0.26917 0.35807,-0.42086 0.0639,0.0325 0.1076,0.0857 0.13194,0.11641 0.0353,0.0434 0.054,0.0759 0.0709,0.03 0.0607,-0.16933 -0.0254,-0.27129 -0.1076,-0.32385 0,0 0.0857,-0.26282 -0.0716,-0.52705 -0.0261,-0.0441 -0.18168,-0.18556 -0.36301,0.0938 m 0.24378,0.0727 c 0.10477,0.0981 0.0889,0.25823 0.085,0.29457 0,0 -0.13405,-0.0628 -0.19402,-0.0885 -0.06,-0.0254 -0.0917,-0.0632 -0.0642,-0.1016 0.0928,-0.12982 0.13794,-0.12523 0.17322,-0.10442 m -10.56252,-0.0593 c -0.14006,0.22684 -0.11959,0.5013 -0.10725,0.80857 -0.0303,-0.0614 -0.20673,-0.45544 -0.65087,-0.64241 -0.0325,-0.0138 -0.0907,0.0254 -0.0854,0.12242 0.003,0.0564 0.002,0.19438 0.0459,0.2286 0.0441,0.0342 0.16933,0.097 0.18979,0.10548 0.0208,0.008 0.042,0.007 0.0452,-0.0166 0.004,-0.024 0.0243,-0.0811 0.0663,-0.0466 0.0356,0.0286 0.2607,0.17568 0.40781,0.52493 0.024,0.0455 0.0688,0.0452 0.0716,-0.0236 0.006,-0.16969 -0.013,-0.46144 -0.0102,-0.55069 0.005,-0.12559 0.0353,-0.387 0.20709,-0.2727 0.0388,0.0265 0.0808,0.0621 0.0808,0.0621 0.0381,0.0378 0.085,0.0808 0.0998,0.0303 0.0226,-0.0762 0.0342,-0.20038 -0.007,-0.26141 -0.0183,-0.0275 -0.23954,-0.25117 -0.35348,-0.0684 m -3.729924,0.15134 c -0.140404,0.22649 -0.119944,0.50095 -0.107244,0.80857 -0.03069,-0.0614 -0.207081,-0.45543 -0.651227,-0.64276 -0.0321,-0.0134 -0.09067,0.0257 -0.08537,0.12242 0.0024,0.0564 0.0021,0.19473 0.04586,0.22895 0.0441,0.0339 0.169334,0.0963 0.190148,0.10548 0.02045,0.008 0.04163,0.007 0.04516,-0.0166 0.0032,-0.0243 0.02363,-0.0815 0.06597,-0.0466 0.03563,0.0286 0.26035,0.17569 0.408165,0.52458 0.02363,0.0459 0.06844,0.0455 0.07126,-0.0233 0.006,-0.17004 -0.01304,-0.46179 -0.0099,-0.55104 0.0049,-0.12523 0.03528,-0.38664 0.206727,-0.27234 0.03881,0.0265 0.08079,0.0617 0.08079,0.0617 0.0381,0.0381 0.08502,0.0811 0.09984,0.0307 0.02294,-0.0762 0.03387,-0.20037 -0.0071,-0.26176 -0.01834,-0.0275 -0.239535,-0.25118 -0.353131,-0.0681 m 3.749676,1.60337 -0.19543,0.26741 c -0.006,0.008 -0.004,0.0201 0.004,0.0261 l 0.33303,0.24236 c 0.008,0.006 0.0198,0.004 0.0254,-0.005 l 0.19543,-0.2674 c 0.006,-0.008 0.005,-0.0204 -0.004,-0.0261 l -0.33303,-0.24271 c -0.008,-0.006 -0.0194,-0.004 -0.0254,0.005 m -3.702403,0.0635 c -0.03916,0.12489 -0.207786,0.55774 -0.150284,1.0534 0.01342,0.11465 0.09596,0.33478 0.255765,0.33126 0.0822,-0.004 0.184854,-0.0751 0.244475,-0.3609 0.0095,-0.0645 0.01482,-0.11571 0.01871,-0.14111 0.0064,-0.0388 -0.02257,-0.0825 -0.04445,0.006 -0.05009,0.17603 -0.19967,0.30515 -0.3302,0.0811 -0.02151,-0.0448 -0.112183,-0.24977 0.0067,-0.71579 0.024,-0.0907 0.05362,-0.22507 0.05362,-0.22507 0.02716,-0.10196 -0.01516,-0.15452 -0.05433,-0.0289 m 2.293057,0.79093 c -0.0385,0.10019 -0.20179,0.44556 -0.1517,0.83961 0.0116,0.0907 0.0882,0.26529 0.23954,0.26141 0.078,-0.005 0.17603,-0.0617 0.23495,-0.28963 0.009,-0.0512 0.0148,-0.0924 0.019,-0.11219 0.006,-0.031 -0.0208,-0.0653 -0.0423,0.005 -0.049,0.14006 -0.19192,0.24413 -0.31327,0.067 -0.0204,-0.0353 -0.10478,-0.19755 0.0123,-0.56903 0.0236,-0.0723 0.0526,-0.17956 0.0526,-0.17956 0.0265,-0.0811 -0.013,-0.12241 -0.0512,-0.0229 m 10.16352,-2.71533 c -0.18309,0.23283 -0.19473,0.53869 -0.21907,0.88018 -0.0257,-0.0716 -0.17216,-0.52917 -0.63959,-0.79128 -0.0339,-0.019 -0.10301,0.0169 -0.10936,0.12488 -0.004,0.0632 -0.0219,0.21484 0.0226,0.25823 0.0441,0.043 0.17463,0.12806 0.1965,0.14006 0.0219,0.0123 0.0455,0.0138 0.0519,-0.0124 0.007,-0.0265 0.0367,-0.0868 0.079,-0.0434 0.0356,0.036 0.26599,0.22648 0.38559,0.63077 0.0204,0.0533 0.0702,0.0582 0.0818,-0.0177 0.0279,-0.18627 0.0427,-0.51118 0.0571,-0.60995 0.0212,-0.13759 0.0875,-0.42263 0.26247,-0.27482 0.0395,0.0339 0.0818,0.078 0.0818,0.078 0.037,0.0469 0.084,0.10054 0.10654,0.0462 0.0342,-0.0815 0.0621,-0.21696 0.0243,-0.29034 -0.0169,-0.0321 -0.23354,-0.30656 -0.3817,-0.11853 m -1.80023,-0.0109 c -0.0677,0.0395 -1.78752,1.03223 -1.85773,1.07739 -0.0691,0.0448 -0.0942,0.0564 -0.10512,0.10971 -0.0113,0.054 -0.0169,0.085 -0.0201,0.0938 -0.0124,0.036 -0.0215,0.0804 0.0811,0.013 0.0321,-0.0205 1.76212,-1.02023 1.8228,-1.05833 0.0582,-0.0363 0.0917,-0.0515 0.11536,-0.1076 0.0233,-0.0557 0.0289,-0.0653 0.0416,-0.10407 0.0131,-0.0416 0.0265,-0.0854 -0.078,-0.024 m -4.80836,0.003 c -0.0166,0.0392 -0.13723,0.3362 -0.13723,0.3362 0.002,0.0173 0.0363,0.14676 0.0423,0.19579 0.0561,0.42828 0.40711,2.95946 0.508,3.75991 0.0494,0.3937 0.0878,0.74824 0.0935,0.93874 -0.005,0.0586 0.0208,0.0804 0.048,0.0243 0.0141,-0.0307 0.0748,-0.15628 0.0935,-0.48436 0.0138,-0.24659 -0.006,-0.62548 -0.0765,-1.14723 -0.0102,-0.0759 -0.37536,-2.71992 -0.37536,-2.71992 0,0 0.19721,0.18486 0.22896,0.21872 0.0318,0.0332 0.0702,0.0159 0.0522,-0.0384 -0.0183,-0.054 -0.42228,-1.03046 -0.43498,-1.06433 -0.013,-0.0339 -0.0261,-0.0586 -0.0423,-0.0194 m -8.516405,0.31645 c -0.140406,0.22613 -0.119946,0.50059 -0.107598,0.80856 -0.03034,-0.0617 -0.206727,-0.45578 -0.650875,-0.64346 -0.03246,-0.0134 -0.09067,0.0261 -0.08537,0.12276 0.0024,0.0564 0.0021,0.19474 0.04586,0.2286 0.04374,0.0342 0.169333,0.097 0.189441,0.10548 0.02117,0.009 0.04233,0.008 0.04551,-0.0166 0.0035,-0.024 0.024,-0.0808 0.06597,-0.0462 0.03563,0.0286 0.260702,0.17569 0.408165,0.52458 0.024,0.0459 0.06879,0.0455 0.07161,-0.024 0.0056,-0.16898 -0.01341,-0.46073 -0.01024,-0.54998 0.0049,-0.12594 0.03563,-0.3877 0.207079,-0.2727 0.03881,0.0265 0.08079,0.0614 0.08079,0.0614 0.0381,0.0384 0.08502,0.0818 0.09984,0.031 0.02294,-0.0765 0.03387,-0.20038 -0.0071,-0.26176 -0.01833,-0.0275 -0.239535,-0.25118 -0.353128,-0.0677 m 13.654961,1.0354 c -0.0342,0.0847 -0.1785,0.375 -0.15663,0.7172 0.005,0.0794 0.0575,0.23354 0.17709,0.23777 0.0614,0 0.14111,-0.0448 0.19756,-0.23883 0.01,-0.0437 0.0159,-0.0787 0.0201,-0.096 0.006,-0.0257 -0.0134,-0.0572 -0.0335,0.003 -0.0448,0.11853 -0.16227,0.20143 -0.24976,0.0423 -0.0141,-0.0314 -0.0734,-0.17568 0.0349,-0.49071 0.0222,-0.0614 0.0497,-0.1524 0.0497,-0.1524 0.0243,-0.0692 -0.005,-0.10619 -0.0395,-0.0222 m 3.30765,0.17357 c -0.0321,0.0776 -0.16546,0.34713 -0.145,0.66393 0.005,0.073 0.0529,0.2159 0.16334,0.21978 0.0575,0 0.13088,-0.0416 0.18309,-0.22084 0.009,-0.0406 0.0148,-0.073 0.0187,-0.0892 0.006,-0.024 -0.0124,-0.0526 -0.0307,0.003 -0.042,0.11006 -0.15029,0.18662 -0.23178,0.0392 -0.0127,-0.0293 -0.0677,-0.16263 0.0332,-0.45438 0.0201,-0.0568 0.0455,-0.14076 0.0455,-0.14076 0.0226,-0.0639 -0.005,-0.0984 -0.0363,-0.0204 m -6.20641,0.008 -0.16863,0.23037 -0.3228,-0.2353 c -0.008,-0.006 -0.0198,-0.004 -0.0257,0.005 l -0.19508,0.26705 c -0.006,0.008 -0.005,0.0201 0.003,0.0261 l 0.33302,0.24271 c 0.008,0.006 0.0194,0.004 0.0257,-0.005 l 0.16828,-0.23107 0.32314,0.23566 c 0.008,0.006 0.0194,0.004 0.0254,-0.005 l 0.19509,-0.26776 c 0.006,-0.008 0.005,-0.0201 -0.003,-0.0257 l -0.33266,-0.24271 c -0.008,-0.006 -0.0198,-0.004 -0.0257,0.005 m 1.30316,0.41557 c -0.013,0.0455 -0.0459,0.23989 -0.0536,0.27975 -0.008,0.0402 -0.007,0.0801 0.0127,0.1143 0.0198,0.0342 0.0705,0.1524 0.10724,0.24906 0.0363,0.0963 0.41381,0.82444 0.44874,0.88865 0.0349,0.0646 0.0423,0.11289 0.007,0.15522 -1.2125,1.27988 -3.55283,2.06622 -3.62797,2.10961 -0.0748,0.0438 -0.055,0.0776 0.0709,0.0554 0.18838,-0.0328 1.23966,-0.20849 1.53952,-0.35349 0.19755,-0.0949 0.88794,-0.43356 1.45239,-0.8763 -0.0159,0.1143 -0.03,0.28258 -0.0226,0.49566 0.0381,1.02905 0.9585,0.8583 1.1998,0.80539 0.72354,-0.1591 1.60901,-1.15923 1.68416,-1.36031 0.0741,-0.19826 0.085,-0.37959 0.0684,-0.53764 0.1905,-0.10301 0.59972,-0.43321 0.59972,-0.43321 0.0169,0.43886 0.36583,0.57045 0.47343,0.5895 0.50341,0.0769 0.756,-0.34432 0.86324,-0.48049 0.0914,0.24024 0.31186,0.28681 0.42581,0.30974 0.43426,0.0861 0.51858,-0.22084 0.54116,-0.29139 0.13617,-0.42334 -0.10936,-0.73907 -0.14076,-0.774 -0.0317,-0.0353 -0.0473,-0.002 -0.0586,0.0388 -0.0113,0.0409 -0.0466,0.19332 -0.0684,0.28892 0,0 0.091,0.14817 0.12347,0.22366 0.0321,0.0752 -0.0159,0.11677 -0.10936,0.12771 -0.26423,0.0324 -0.47519,-0.11889 -0.54786,-0.18874 -0.0727,-0.0702 0.006,-0.19367 0.0649,-0.34149 0.0469,-0.11747 -0.0402,-0.13193 -0.10725,-2.6e-4 -0.22366,0.58914 -0.53834,0.65299 -0.62159,0.67521 -0.74577,0.2032 -0.68157,-0.47871 -0.67875,-0.59055 0.002,-0.11147 -0.079,-0.0705 -0.17109,0.003 -0.31362,0.25223 -0.56692,0.40005 -0.70274,0.46108 -0.11712,-0.22931 -0.28716,-0.37289 -0.35913,-0.42475 -0.8075,-0.58878 -0.87418,0.59938 -0.84948,0.72638 0.12276,0.50552 0.94791,0.19931 1.07667,0.18415 0.12983,-0.0152 0.0875,0.15522 0.0148,0.25646 -0.17886,0.25048 -0.38558,0.43039 -0.57291,0.58279 -0.7994,0.65229 -1.2005,0.60113 -1.32397,0.5969 -0.78599,-0.0222 -0.71368,-0.86854 -0.66993,-1.04951 0.23636,-0.20003 0.43921,-0.41769 0.55739,-0.64135 0.0476,-0.12277 0.13088,-0.40182 -0.019,-0.75212 -0.0783,-0.15381 -0.32632,-0.58597 -0.32632,-0.58597 0,0 0.18274,0.006 0.20002,0.006 0.0173,-2.6e-4 0.0515,-0.0187 0.007,-0.0699 -0.0444,-0.0508 -0.42756,-0.43321 -0.45085,-0.4639 -0.0229,-0.0307 -0.0441,-0.0529 -0.0571,-0.008 m 2.42218,1.7526 c 0,0 -0.11007,0.0635 -0.41734,0.0427 -0.25788,-0.0176 -0.23601,-0.11818 -0.20073,-0.15628 0.0388,-0.0413 0.35419,-0.24024 0.61807,0.1136 M 95.672039,176.7449 c -0.03528,0.0861 -0.182737,0.38277 -0.159808,0.73273 0.0049,0.0811 0.05856,0.23847 0.180271,0.24271 0.06314,-2.7e-4 0.144637,-0.0459 0.202141,-0.24377 0.0099,-0.0448 0.01622,-0.0804 0.02045,-0.0981 0.006,-0.0268 -0.01376,-0.0586 -0.03387,0.003 -0.04622,0.12101 -0.165806,0.20567 -0.25541,0.0434 -0.01447,-0.0325 -0.07514,-0.17957 0.03598,-0.50165 0.02223,-0.0624 0.05045,-0.15523 0.05045,-0.15523 0.02506,-0.0705 -0.0046,-0.10865 -0.04022,-0.0229 m -0.117475,1.56281 c -0.03528,0.0861 -0.182737,0.38277 -0.160512,0.73272 0.0056,0.0804 0.05927,0.23812 0.180975,0.24201 0.06315,0 0.144285,-0.0452 0.202141,-0.24307 0.0095,-0.0448 0.01588,-0.0804 0.02045,-0.0981 0.006,-0.0268 -0.01376,-0.0586 -0.03422,0.003 -0.04622,0.12065 -0.165454,0.20567 -0.255058,0.0434 -0.01447,-0.0321 -0.07514,-0.17956 0.03563,-0.50165 0.02257,-0.0624 0.0508,-0.15557 0.0508,-0.15557 0.02469,-0.0702 -0.0049,-0.10866 -0.04022,-0.0226 m 11.215866,-1.40123 c -0.0533,0.0663 -0.58949,0.77046 -0.58949,0.77046 l -0.38982,-0.27834 c 0,0 0.1591,-0.0402 0.18662,-0.0483 0.0279,-0.008 0.0434,-0.0437 -0.007,-0.0691 -0.0497,-0.0261 -0.52,-0.21344 -0.55563,-0.2279 -0.0356,-0.0145 -0.049,-0.031 -0.0519,0.007 -0.003,0.0377 -0.009,0.34749 -0.009,0.34749 0,0 -0.007,0.0219 0.0342,0.0452 0.0406,0.0233 0.0811,0.073 0.11501,0.10689 0.0335,0.0332 0.47096,0.37853 0.49212,0.39053 0,0 -0.21872,0.38453 -0.24694,0.68544 -0.0275,0.30093 0.006,0.7165 0.41698,0.58244 0.11077,-0.0318 0.57115,-0.21484 0.67451,-0.53622 0.0335,-0.11853 0.12806,-0.33197 -0.0261,-0.54857 -0.0893,-0.12771 -0.44909,-0.34255 -0.44909,-0.34255 0,0 0.27623,-0.38206 0.30269,-0.42897 0.0265,-0.0469 0.1277,-0.3429 0.13899,-0.41452 0.0109,-0.0716 0.0166,-0.10724 -0.0367,-0.0413 m -0.0942,1.62313 c -0.15275,0.12558 -0.47413,0.29174 -0.56409,0.30021 -0.0903,0.009 -0.32985,-0.0349 -0.22543,-0.28046 0.0353,-0.0794 0.27482,-0.48895 0.27482,-0.48895 0.0896,0.049 0.66745,0.34326 0.5147,0.4692 m 6.23076,0.56162 c -0.031,0.0868 -0.0434,0.14323 -0.0399,0.17639 0.003,0.0321 0.0145,0.13899 0.0145,0.13899 -0.0321,0.0257 -0.16898,0.11077 -0.30551,0.0102 0.009,-0.0293 0.0268,-0.0889 0.0303,-0.121 0.0148,-0.0512 -0.0159,-0.0885 -0.0409,-0.036 -0.0247,0.0522 -0.0829,0.22825 -0.12594,0.26776 -0.0427,0.0392 -0.0935,0.18451 -0.41945,0.0367 -0.0572,-0.0215 -0.15699,-0.096 -0.31256,0.0607 -0.35278,0.32808 -0.5962,0.35313 -0.99131,0.49389 -0.048,0.0219 -0.14852,0.0974 -0.0289,0.0854 0.11889,-0.0116 0.61983,2.6e-4 0.89253,-0.31291 0.0572,-0.055 0.12241,-0.20144 0.33902,-0.11642 0.11994,0.0455 0.34184,0.23566 0.58349,-0.14005 0.14252,0.0945 0.35878,0.0568 0.39335,-0.048 0.0346,-0.10442 0.0744,-0.20885 0.0741,-0.28011 -2.6e-4,-0.0705 -0.007,-0.16474 -0.007,-0.16474 -0.004,-0.0561 -0.024,-0.13688 -0.0557,-0.0508 m -10.65495,0.60254 c -0.0702,0.0353 -1.02693,0.39335 -1.0996,0.43392 -0.0723,0.0402 -0.0977,0.0508 -0.11184,0.10336 -0.0148,0.0526 -0.0226,0.0833 -0.0261,0.0921 -0.0145,0.0346 -0.0265,0.0787 0.0804,0.018 0.0328,-0.0183 1.0033,-0.38277 1.06292,-0.41699 0.06,-0.0339 0.0953,-0.0459 0.12206,-0.10019 0.0268,-0.054 0.0332,-0.0635 0.0483,-0.10124 0.0155,-0.0406 0.0318,-0.0836 -0.0762,-0.0289 m -5.074365,0.26882 c -0.0702,0.0353 -1.027289,0.39334 -1.099608,0.43391 -0.07232,0.0402 -0.09737,0.0501 -0.112183,0.10337 -0.01447,0.0526 -0.02188,0.0832 -0.02574,0.0921 -0.01482,0.0349 -0.02646,0.0787 0.08008,0.018 0.03351,-0.0187 1.003654,-0.38276 1.063273,-0.41663 0.05962,-0.0342 0.09525,-0.0462 0.12206,-0.10054 0.02681,-0.054 0.03316,-0.0635 0.04798,-0.1016 0.01587,-0.0402 0.0321,-0.0829 -0.07585,-0.0286 m 2.028825,0.0222 -0.168275,0.23072 -0.322791,-0.23566 c -0.0078,-0.006 -0.01977,-0.004 -0.02612,0.005 l -0.194733,0.26741 c -0.0063,0.008 -0.0046,0.0201 0.0035,0.0261 l 0.332317,0.24271 c 0.0081,0.006 0.01976,0.004 0.02611,-0.005 l 0.168275,-0.23071 0.322792,0.23565 c 0.0081,0.006 0.01976,0.004 0.02611,-0.005 l 0.194733,-0.26741 c 0.0063,-0.008 0.0049,-0.0201 -0.0032,-0.0257 l -0.332668,-0.24306 c -0.0081,-0.006 -0.01977,-0.004 -0.02612,0.005"
       style="fill:#231f20;fill-opacity:1;fill-rule:evenodd;stroke:none;stroke-width:0.264583"
       id="path1" />
  </g>
</svg>
