<?xml version="1.0" encoding="UTF-8" standalone="no"?>
<!-- Created with Inkscape (http://www.inkscape.org/) -->

<svg
   width="17.692654mm"
   height="6.2591467mm"
   viewBox="0 0 17.692654 6.2591467"
   version="1.1"
   id="svg1"
   xmlns:inkscape="http://www.inkscape.org/namespaces/inkscape"
   xmlns:sodipodi="http://sodipodi.sourceforge.net/DTD/sodipodi-0.dtd"
   xmlns="http://www.w3.org/2000/svg"
   xmlns:svg="http://www.w3.org/2000/svg">
  <sodipodi:namedview
     id="namedview1"
     pagecolor="#ffffff"
     bordercolor="#666666"
     borderopacity="1.0"
     inkscape:showpageshadow="2"
     inkscape:pageopacity="0.0"
     inkscape:pagecheckerboard="0"
     inkscape:deskcolor="#d1d1d1"
     inkscape:document-units="mm" />
  <defs
     id="defs1" />
  <g
     inkscape:label="Layer 1"
     inkscape:groupmode="layer"
     id="layer1"
     transform="translate(-142.32595,-181.7216)">
    <path
       d="m 151.34192,181.76921 c -0.0409,0.084 -0.20955,0.37289 -0.19543,0.71967 0.003,0.0804 0.0568,0.23812 0.18873,0.24624 0.0681,0.001 0.15804,-0.0406 0.22613,-0.23495 0.0124,-0.0437 0.0204,-0.079 0.0257,-0.0963 0.007,-0.0261 -0.0134,-0.0582 -0.0374,0.002 -0.0533,0.11854 -0.18591,0.19827 -0.27834,0.0346 -0.0148,-0.0325 -0.0762,-0.18027 0.054,-0.49495 0.0265,-0.0614 0.0593,-0.15205 0.0593,-0.15205 0.0296,-0.0691 -0.002,-0.1083 -0.0427,-0.024 m -1.26929,0.0896 c -0.0769,0.0878 -0.15699,0.31362 -0.0751,0.39229 0.0811,0.0794 0.20672,0.15134 0.20672,0.15134 -0.49494,0.45861 -1.15076,0.8636 -1.41816,0.97367 -0.0688,0.0282 -0.061,0.0638 -0.0222,0.0589 0.0198,-0.002 0.36301,-0.0773 0.79516,-0.31291 0.36336,-0.19826 0.74436,-0.66675 0.74436,-0.66675 0,0 0.0931,0.1023 0.10478,0.12206 0.0265,0.0437 0.0395,0.0755 0.0603,0.036 0.0765,-0.14534 0.0113,-0.24871 -0.0564,-0.30691 0,0 0.11077,-0.2279 0.001,-0.48719 -0.018,-0.0434 -0.14182,-0.19121 -0.34079,0.0395 m 0.21167,0.0967 c 0.0829,0.10195 0.048,0.24518 0.0399,0.27799 0,0 -0.11395,-0.0741 -0.1651,-0.10477 -0.0508,-0.031 -0.0744,-0.0695 -0.0448,-0.10055 0.10019,-0.10618 0.14076,-0.096 0.17004,-0.0727 m 1.9879,0.043 c -0.0699,0.10654 -0.12241,0.3623 -0.0222,0.43533 0.10019,0.0734 0.24659,0.13264 0.24659,0.13264 -0.46602,0.5708 -0.78458,0.67981 -1.05727,0.83926 -0.0702,0.0413 -0.0561,0.0783 -0.0148,0.0674 0.0208,-0.006 0.3877,-0.0632 0.81562,-0.38805 0.23142,-0.17569 0.37183,-0.47625 0.37183,-0.47625 0,0 0.11536,0.0967 0.13158,0.11641 0.0353,0.0434 0.054,0.0755 0.0705,0.0296 0.061,-0.16863 -0.0251,-0.27058 -0.10759,-0.32315 0,0 0.0857,-0.26317 -0.0716,-0.52775 -0.0261,-0.0441 -0.18168,-0.18521 -0.36266,0.0945 m 0.24342,0.0727 c 0.10477,0.0974 0.0889,0.25753 0.085,0.29422 0,0 -0.1337,-0.0628 -0.19403,-0.0885 -0.0596,-0.0254 -0.0914,-0.0639 -0.0639,-0.1016 0.0928,-0.12982 0.13794,-0.12523 0.17286,-0.10407 m -6.15129,-0.17647 c -0.0342,0.084 -0.17815,0.37465 -0.15628,0.71649 0.005,0.079 0.0579,0.23319 0.17674,0.23742 0.0614,-2.6e-4 0.14111,-0.0448 0.19756,-0.23847 0.01,-0.0438 0.0159,-0.0787 0.0201,-0.096 0.006,-0.0261 -0.0134,-0.0571 -0.0335,0.003 -0.0452,0.11818 -0.16193,0.20144 -0.24977,0.0423 -0.0141,-0.0314 -0.0734,-0.17533 0.0356,-0.49036 0.0215,-0.061 0.049,-0.15204 0.049,-0.15204 0.0247,-0.0688 -0.005,-0.10654 -0.0395,-0.0222 m 12.43048,0.19932 c -0.0702,0.10654 -0.12241,0.3623 -0.0222,0.43533 0.0998,0.0734 0.24624,0.13264 0.24624,0.13264 -0.46567,0.57115 -1.38042,0.97684 -1.59809,1.14688 -0.0649,0.049 -0.0561,0.078 -0.0152,0.0667 0.036,-0.01 0.73307,-0.20461 1.37054,-0.75036 0.29175,-0.25012 0.28364,-0.26882 0.35807,-0.42086 0.0635,0.0324 0.1069,0.0854 0.13159,0.11641 0.0353,0.0434 0.0547,0.0755 0.0706,0.0296 0.061,-0.16863 -0.0251,-0.27059 -0.10725,-0.32315 0,0 0.0854,-0.26317 -0.0713,-0.5274 -0.0268,-0.0445 -0.18238,-0.18556 -0.363,0.0942 m 0.24341,0.0727 c 0.10513,0.0974 0.0889,0.25753 0.085,0.29457 0,0 -0.13405,-0.0631 -0.19438,-0.0889 -0.06,-0.0257 -0.0914,-0.0635 -0.0638,-0.1016 0.0928,-0.12982 0.13794,-0.12523 0.17321,-0.10407 m -1.78858,-0.16545 c -0.18309,0.23248 -0.19473,0.53834 -0.21908,0.87947 -0.0257,-0.0713 -0.1718,-0.52881 -0.63923,-0.79057 -0.0342,-0.019 -0.10336,0.0169 -0.10971,0.12453 -0.004,0.0628 -0.0219,0.21519 0.0226,0.25858 0.0441,0.043 0.17462,0.12806 0.1965,0.1397 0.0219,0.0124 0.0455,0.0138 0.0522,-0.0123 0.006,-0.0261 0.0363,-0.0868 0.0787,-0.0434 0.0356,0.0363 0.26599,0.22683 0.38558,0.63041 0.0208,0.0536 0.0702,0.0589 0.0822,-0.0173 0.0275,-0.18662 0.0423,-0.51117 0.0572,-0.60925 0.0208,-0.13828 0.0868,-0.42368 0.26212,-0.27516 0.0395,0.0335 0.0815,0.078 0.0815,0.078 0.0377,0.0466 0.0843,0.0998 0.10689,0.0462 0.0342,-0.0819 0.0621,-0.21696 0.0243,-0.29034 -0.0166,-0.0321 -0.23354,-0.30692 -0.38171,-0.11853 m -1.80022,-0.0109 c -0.0677,0.0392 -1.78788,1.03187 -1.85738,1.07667 -0.0699,0.0452 -0.0942,0.0568 -0.10547,0.11043 -0.0113,0.054 -0.0166,0.085 -0.0198,0.0935 -0.0127,0.036 -0.0215,0.0804 0.0808,0.0134 0.0321,-0.0208 1.76212,-1.02059 1.8228,-1.05834 0.0579,-0.0363 0.0917,-0.0519 0.115,-0.10795 0.0236,-0.0554 0.0293,-0.0656 0.042,-0.10407 0.013,-0.0413 0.0265,-0.0854 -0.078,-0.0236 m -11.55699,0.0716 c -0.16052,0.24694 -0.14676,0.5528 -0.14217,0.89499 -0.0314,-0.0691 -0.21308,-0.51329 -0.69356,-0.73624 -0.0353,-0.0159 -0.0998,0.0257 -0.097,0.13335 0.001,0.0628 -0.004,0.21625 0.0434,0.25576 0.0469,0.0395 0.18203,0.11324 0.20461,0.12347 0.0226,0.0102 0.0459,0.01 0.0501,-0.0169 0.004,-0.0261 0.0286,-0.0893 0.0737,-0.0494 0.0325,0.0286 0.29563,0.22366 0.39511,0.51259 0.084,0.25153 -0.50342,0.82127 -0.53446,0.84772 -0.0557,0.0473 -0.0346,0.0734 -0.008,0.0561 0.0265,-0.0173 0.0536,-0.0236 0.35913,-0.26424 0.24659,-0.19367 0.28469,-0.39793 0.29421,-0.55245 0.002,-0.008 0.004,-0.0162 0.005,-0.0268 0.0116,-0.18838 -7.9e-4,-0.51258 0.006,-0.61207 0.009,-0.13934 0.0501,-0.42897 0.23425,-0.29562 0.042,0.0303 0.0868,0.0713 0.0868,0.0713 0.0409,0.0434 0.091,0.0928 0.10865,0.037 0.0272,-0.084 0.043,-0.22084 0,-0.29104 -0.0194,-0.031 -0.25505,-0.28681 -0.38452,-0.0875 m 3.89748,0.14287 c -0.11817,0.12877 -0.15486,0.21731 -0.19014,0.27235 -0.0487,0.0759 0.0127,0.11006 0.0674,0.0508 0.0554,-0.0593 0.0935,-0.11818 0.254,-0.1143 0.16016,0.005 0.54504,-0.0102 0.40111,0.0952 -0.14358,0.10548 -0.24095,0.16686 -0.24095,0.16686 -0.0931,0.0667 -0.17498,0.19226 -0.0102,0.12277 0.16475,-0.0699 0.38241,-0.17992 0.54893,-0.43145 0.049,-0.073 0.10583,-0.17074 -0.11995,-0.20496 -0.22648,-0.0335 -0.59161,-0.0864 -0.71014,0.0427 m -2.71639,0.3295 c -0.061,0.15028 -0.31221,0.66675 -0.30551,1.2894 0.001,0.14393 0.0713,0.42721 0.25859,0.44309 0.097,0.004 0.22613,-0.0709 0.33091,-0.41839 0.0191,-0.0783 0.0318,-0.14182 0.0395,-0.17287 0.012,-0.0466 -0.0159,-0.10442 -0.0526,0.003 -0.0808,0.21167 -0.272,0.35384 -0.39688,0.0593 -0.0198,-0.0582 -0.10125,-0.32385 0.096,-0.88759 0.0392,-0.10901 0.0903,-0.2727 0.0903,-0.2727 0.0445,-0.12276 0.001,-0.19297 -0.0603,-0.043 m 1.41076,0.59761 -0.19544,0.26741 c -0.006,0.008 -0.005,0.0201 0.004,0.0261 l 0.33267,0.24236 c 0.008,0.006 0.0201,0.004 0.0257,-0.005 l 0.19508,-0.26741 c 0.006,-0.008 0.005,-0.0201 -0.003,-0.0261 l -0.33266,-0.24271 c -0.008,-0.006 -0.0201,-0.004 -0.0257,0.005 m 4.29894,0.10477 -0.16827,0.23072 -0.32279,-0.23566 c -0.008,-0.006 -0.0201,-0.004 -0.0261,0.005 l -0.19474,0.26776 c -0.006,0.008 -0.005,0.0198 0.003,0.0257 l 0.33302,0.24236 c 0.008,0.006 0.0194,0.004 0.0254,-0.005 l 0.16828,-0.23071 0.3235,0.2353 c 0.008,0.006 0.0194,0.004 0.0254,-0.005 l 0.19508,-0.2674 c 0.006,-0.008 0.005,-0.0201 -0.003,-0.0261 l -0.33302,-0.24271 c -0.008,-0.006 -0.0194,-0.004 -0.0257,0.005 m 4.99639,0.1083 c -0.0342,0.084 -0.17815,0.37465 -0.15663,0.7172 0.005,0.079 0.0579,0.23318 0.1771,0.23742 0.0614,0 0.14111,-0.0448 0.19791,-0.23848 0.01,-0.0438 0.0155,-0.0787 0.0198,-0.0963 0.006,-0.0261 -0.0134,-0.0572 -0.0335,0.003 -0.0448,0.11889 -0.16228,0.20144 -0.24977,0.0423 -0.0145,-0.0314 -0.0737,-0.17533 0.0353,-0.49072 0.0219,-0.061 0.0497,-0.1524 0.0497,-0.1524 0.0243,-0.0688 -0.005,-0.10618 -0.0399,-0.0219 m -7.83801,0.0639 c -0.0261,0.0653 -0.0871,0.26141 -0.018,0.45968 0.0691,0.19826 0.31714,0.93556 0.36265,1.06045 0.0455,0.12488 0.11289,0.2734 0.0339,0.31502 -0.0794,0.0416 -0.57079,0.18239 -0.76905,-0.26775 0.0106,-0.0385 0.0201,-0.0741 0.0265,-0.0991 0.007,-0.0251 -0.0222,-0.0801 -0.0533,-0.0303 -0.0307,0.0497 -0.1464,0.33831 -0.21167,0.42121 -0.0649,0.0829 -0.16792,0.18592 -0.39864,0.13547 -0.0519,-0.0116 -0.19861,-0.10089 -0.2226,-0.27093 0.0166,-0.0367 0.0554,-0.13229 0.0639,-0.15981 0.008,-0.0272 0.006,-0.10795 -0.0579,-0.0409 -0.0617,0.0645 -0.43462,0.77787 -1.09608,0.38982 -0.0469,-0.10866 -0.097,-0.19968 -0.13759,-0.26917 -0.0212,-0.0487 -0.0522,-0.072 -0.072,-0.0371 -0.0194,0.0353 -0.0797,0.30974 -0.0797,0.30974 0.0974,0.2025 0.0776,0.16934 0.0974,0.2025 0.0194,0.0332 0.16934,0.35242 0.18698,0.42439 0.0173,0.0723 0.0406,0.17357 -0.004,0.22613 -0.0448,0.0526 -0.92463,0.94544 -2.05882,0.96203 -0.18485,-0.0166 -0.96202,-0.067 -1.05868,-0.78105 -0.0251,-0.14288 0.0127,-0.51682 0.0967,-0.72249 0.006,-0.0138 0.0102,-0.0265 0.0141,-0.0385 0.004,2.7e-4 0.007,10e-4 0.0102,0.002 0.0974,0.004 0.22648,-0.0713 0.33126,-0.4184 0.0187,-0.0787 0.0317,-0.14182 0.0395,-0.17286 0.0116,-0.0469 -0.0162,-0.10478 -0.0526,0.002 -0.0808,0.21202 -0.27199,0.35419 -0.39723,0.0596 -0.0198,-0.0582 -0.10089,-0.3242 0.0959,-0.88794 0.0395,-0.10901 0.0907,-0.27235 0.0907,-0.27235 0.0441,-0.12311 10e-4,-0.19332 -0.0603,-0.043 -0.0614,0.15028 -0.31221,0.66675 -0.30621,1.2894 0.001,0.11747 0.0483,0.32773 0.16757,0.40957 -0.006,0.0124 -0.0116,0.0258 -0.0169,0.0406 -0.0589,0.16828 -0.47061,1.23931 0.29422,1.76001 0.15522,0.0928 0.81879,0.42016 1.8482,-0.13017 0.27305,-0.14676 0.99095,-0.59232 1.05869,-0.81915 0.0674,-0.21837 0.0748,-0.42686 0.0497,-0.61525 0.17603,0.0268 0.54645,0.008 0.73412,-0.28292 0.0173,-0.0254 0.0307,-0.0455 0.0307,-0.0455 0,0 0.10407,0.24377 0.31715,0.32138 0.0624,0.0212 0.27552,0.0663 0.44732,-0.12101 0.0632,-0.0691 0.15135,-0.25188 0.16546,-0.29139 0,0 0.11465,0.26317 0.48154,0.30833 0.073,0.008 0.31362,0.0194 0.46073,-0.1263 0.042,-0.0462 0.23953,-0.39475 0.0995,-0.86818 -0.0448,-0.12312 -0.26353,-0.75883 -0.26353,-0.75883 0,0 0.16052,0.0893 0.18803,0.10301 0.0282,0.0138 0.0557,-0.024 0.006,-0.10301 -0.0494,-0.0794 -0.36054,-0.50941 -0.39229,-0.55104 -0.0318,-0.0416 -0.0455,-0.0434 -0.0713,0.0219 m 11.14531,0.109 c -0.0314,0.0783 -0.1651,0.34749 -0.14499,0.66428 0.005,0.0734 0.054,0.21626 0.16369,0.22014 0.0571,-2.7e-4 0.13088,-0.042 0.18344,-0.22119 0.009,-0.0402 0.0148,-0.0727 0.0183,-0.0889 0.006,-0.024 -0.0124,-0.0529 -0.031,0.002 -0.0416,0.10971 -0.14958,0.18662 -0.23107,0.0395 -0.013,-0.0293 -0.0681,-0.16298 0.0328,-0.45438 0.0201,-0.0568 0.0455,-0.14111 0.0455,-0.14111 0.0226,-0.0639 -0.005,-0.0984 -0.0367,-0.0208 m -6.20606,0.009 -0.16828,0.23036 -0.32349,-0.2353 c -0.008,-0.006 -0.0194,-0.004 -0.0254,0.005 l -0.19509,0.26705 c -0.007,0.008 -0.005,0.0205 0.003,0.0261 l 0.33302,0.24307 c 0.008,0.006 0.0198,0.004 0.0254,-0.005 l 0.16863,-0.23107 0.32279,0.236 c 0.008,0.006 0.0201,0.004 0.0257,-0.005 l 0.19508,-0.26741 c 0.006,-0.008 0.005,-0.0201 -0.003,-0.0261 l -0.33266,-0.24271 c -0.008,-0.006 -0.0198,-0.004 -0.0257,0.005 m -6.02933,0.18062 -0.16863,0.23072 -0.32279,-0.23565 c -0.008,-0.006 -0.0194,-0.004 -0.0257,0.005 l -0.19544,0.26741 c -0.006,0.008 -0.004,0.0201 0.004,0.0261 l 0.33267,0.24271 c 0.008,0.006 0.0201,0.004 0.0261,-0.005 l 0.16828,-0.23072 0.32279,0.23566 c 0.008,0.006 0.0198,0.004 0.0257,-0.005 l 0.19508,-0.2674 c 0.006,-0.008 0.005,-0.0205 -0.003,-0.0261 l -0.33231,-0.24271 c -0.008,-0.006 -0.0198,-0.004 -0.0257,0.005 m -2.70369,1.05727 c -0.0522,0.12806 -0.26529,0.56657 -0.26,1.09503 0.001,0.12206 0.0607,0.36301 0.21978,0.37641 0.0829,0.004 0.19226,-0.0603 0.28116,-0.3556 0.0162,-0.0663 0.0268,-0.1203 0.0339,-0.1464 0.01,-0.0399 -0.0138,-0.0892 -0.0448,0.002 -0.0684,0.17992 -0.23106,0.30057 -0.33725,0.0501 -0.0169,-0.049 -0.0857,-0.27481 0.0811,-0.75353 0.0339,-0.0928 0.0769,-0.23143 0.0769,-0.23143 0.0377,-0.10442 0.001,-0.16404 -0.0508,-0.0367 m 10.03618,-0.82197 c -0.013,0.0452 -0.0455,0.23989 -0.0533,0.27976 -0.008,0.0402 -0.007,0.0797 0.0124,0.1143 0.0198,0.0339 0.0706,0.15275 0.10689,0.2487 0.0367,0.0967 0.41451,0.82409 0.44944,0.88865 0.0349,0.0646 0.042,0.11254 0.007,0.15558 -1.2125,1.27952 -3.55248,2.06622 -3.62762,2.10961 -0.0748,0.0434 -0.0547,0.0773 0.0709,0.0554 0.18874,-0.0332 1.23967,-0.20884 1.53953,-0.35313 0.19755,-0.0956 0.88759,-0.43427 1.45238,-0.87665 -0.0159,0.1143 -0.0303,0.28222 -0.0226,0.4953 0.0384,1.02905 0.9585,0.85831 1.20015,0.80504 0.72355,-0.15875 1.60832,-1.15888 1.68381,-1.35996 0.0741,-0.19861 0.085,-0.37959 0.0684,-0.53728 0.1905,-0.10336 0.59972,-0.43321 0.59972,-0.43321 0.0169,0.4385 0.36583,0.57044 0.47378,0.58949 0.50306,0.0762 0.75565,-0.34466 0.86289,-0.48083 0.0917,0.24024 0.31221,0.2868 0.42545,0.30973 0.43463,0.0861 0.51929,-0.22083 0.54152,-0.29104 0.13652,-0.42368 -0.10936,-0.73942 -0.14076,-0.77434 -0.0314,-0.0353 -0.0476,-10e-4 -0.0586,0.0388 -0.0113,0.0409 -0.0462,0.19367 -0.0684,0.28928 0,0 0.091,0.14781 0.12347,0.22331 0.0324,0.0755 -0.0159,0.11641 -0.10936,0.12806 -0.26423,0.0321 -0.47519,-0.1196 -0.54751,-0.18909 -0.073,-0.0699 0.006,-0.19368 0.0642,-0.34114 0.0469,-0.11818 -0.0399,-0.13229 -0.10689,-2.6e-4 -0.22366,0.58878 -0.53834,0.65228 -0.62124,0.67486 -0.74648,0.20355 -0.68192,-0.47872 -0.6791,-0.5902 0.002,-0.11183 -0.079,-0.0709 -0.1711,0.003 -0.31362,0.25188 -0.56691,0.40005 -0.70273,0.46073 -0.11712,-0.22896 -0.28716,-0.37289 -0.35913,-0.42475 -0.80716,-0.58878 -0.87383,0.59937 -0.84913,0.72672 0.12241,0.50518 0.9472,0.19897 1.07667,0.1838 0.12912,-0.0152 0.0871,0.15522 0.0145,0.25682 -0.17921,0.25048 -0.38523,0.42969 -0.57291,0.58244 -0.79939,0.65264 -1.20085,0.60113 -1.32433,0.5969 -0.78528,-0.0222 -0.71296,-0.86889 -0.66957,-1.04951 0.23601,-0.20003 0.43921,-0.41769 0.55704,-0.64171 0.0483,-0.12241 0.13088,-0.40146 -0.0187,-0.75141 -0.0783,-0.15417 -0.32632,-0.58632 -0.32632,-0.58632 0,0 0.18274,0.006 0.20002,0.006 0.0173,-2.7e-4 0.0515,-0.0183 0.007,-0.0695 -0.0441,-0.0512 -0.42756,-0.43356 -0.45049,-0.46426 -0.0229,-0.0307 -0.0445,-0.0529 -0.0572,-0.007 m 2.42217,1.7526 c 0,0 -0.11007,0.0631 -0.41734,0.0423 -0.25788,-0.0177 -0.2353,-0.11783 -0.20037,-0.15593 0.0385,-0.0416 0.35383,-0.24024 0.61771,0.1136 m -6.69184,-1.71133 c -0.0699,0.0353 -1.03082,0.41134 -1.10314,0.45191 -0.0727,0.0406 -0.0977,0.0504 -0.11253,0.10336 -0.0145,0.0529 -0.0219,0.0836 -0.0254,0.0921 -0.0148,0.0349 -0.0265,0.0787 0.0797,0.0183 0.0335,-0.0187 1.00824,-0.40111 1.06786,-0.43568 0.0596,-0.0339 0.0945,-0.0459 0.1217,-0.0998 0.0272,-0.0543 0.0335,-0.0639 0.048,-0.1016 0.0162,-0.0402 0.0321,-0.0833 -0.0762,-0.0286 m 0.65476,0.10407 c -0.39123,0.16298 -0.45896,0.67345 -0.3369,0.83397 0.0737,0.097 0.15134,0.2226 0.66287,0.18485 0.38841,-0.006 0.43356,0.19509 0.37182,0.24271 -0.0822,0.0635 -0.76235,0.44979 -1.2453,0.12206 -0.0342,-0.0843 -0.0706,-0.16616 -0.1083,-0.23636 -0.0279,-0.067 -0.0279,-0.0388 -0.0512,0.008 -0.024,0.0476 -0.0603,0.25435 -0.0603,0.25435 0,0 0.18132,0.4445 0.21131,0.55633 0.03,0.11219 0.10301,0.24589 -0.13688,0.43498 -0.23918,0.18909 -1.15923,0.8696 -3.28506,1.38218 -0.10478,0.0293 -0.15064,0.11712 -0.0102,0.10936 0.1404,-0.008 1.31162,-0.12453 1.31162,-0.12453 1.35784,-0.39652 2.02565,-1.05163 2.02565,-1.05163 0.0427,-0.043 0.26706,-0.2092 0.27411,-0.76553 0,-0.012 -0.003,-0.0296 -0.007,-0.0515 0.12912,0.005 0.36618,0.006 0.56621,-0.036 0.29069,-0.0614 0.60043,-0.1471 0.68051,-0.50976 0.0639,-0.28751 0.0173,-0.50341 0.0173,-0.50341 -0.0483,-0.30304 -0.37218,-1.07315 -0.88018,-0.85055 m 0.36159,0.49953 c 0.0381,0.0459 0.078,0.10125 0.11571,0.15664 -0.11147,-0.0229 -0.23071,-0.0215 -0.3623,-0.0247 -0.21801,-0.006 -0.32173,-0.10936 -0.21237,-0.19897 0.10901,-0.0892 0.33584,-0.0811 0.45896,0.067 m 2.35903,-0.31715 c -0.0536,0.066 -0.58985,0.76976 -0.58985,0.76976 l -0.39017,-0.27798 c 0,0 0.15946,-0.0399 0.18697,-0.048 0.0279,-0.008 0.0437,-0.0441 -0.007,-0.0695 -0.0497,-0.0257 -0.51964,-0.21343 -0.55562,-0.22789 -0.036,-0.0141 -0.049,-0.0307 -0.0519,0.007 -0.003,0.0381 -0.009,0.34749 -0.009,0.34749 0,0 -0.007,0.0219 0.0342,0.0452 0.0409,0.0233 0.0808,0.073 0.11465,0.10689 0.0339,0.0335 0.47131,0.37853 0.49212,0.39088 0,0 -0.21872,0.38452 -0.24659,0.68544 -0.0279,0.30092 0.006,0.71614 0.41699,0.58209 0.11042,-0.0314 0.57114,-0.21485 0.67451,-0.53587 0.0335,-0.11854 0.12806,-0.33232 -0.0261,-0.54893 -0.0892,-0.12735 -0.44909,-0.3429 -0.44909,-0.3429 0,0 0.27623,-0.38205 0.30269,-0.42827 0.0265,-0.0469 0.1277,-0.3429 0.13899,-0.41451 0.0113,-0.0716 0.0169,-0.1076 -0.0363,-0.0413 m -0.0945,1.62278 c -0.15275,0.12594 -0.47413,0.29175 -0.56409,0.30057 -0.09,0.009 -0.32985,-0.0353 -0.22578,-0.28081 0.0356,-0.0794 0.27517,-0.48895 0.27517,-0.48895 0.0896,0.049 0.66746,0.3436 0.5147,0.46919 m -2.4518,0.30692 c -0.0381,0.0998 -0.20179,0.44556 -0.1517,0.83926 0.012,0.0914 0.0882,0.26564 0.23954,0.2614 0.078,-0.004 0.17603,-0.0617 0.23495,-0.28927 0.01,-0.0512 0.0152,-0.0924 0.019,-0.11254 0.006,-0.0307 -0.0205,-0.0649 -0.042,0.006 -0.0494,0.14005 -0.19227,0.24447 -0.31362,0.067 -0.0204,-0.0356 -0.10478,-0.19756 0.0124,-0.56939 0.0236,-0.072 0.0529,-0.17921 0.0529,-0.17921 0.0265,-0.0811 -0.0134,-0.12241 -0.0515,-0.0229 m -2.37984,-0.0173 -0.16828,0.23072 -0.32314,-0.2353 c -0.008,-0.006 -0.0194,-0.004 -0.0257,0.005 l -0.19509,0.26741 c -0.006,0.008 -0.004,0.0201 0.004,0.0261 l 0.33267,0.24271 c 0.008,0.006 0.0198,0.004 0.0261,-0.005 l 0.16828,-0.23072 0.32279,0.23566 c 0.008,0.006 0.0198,0.004 0.0261,-0.005 l 0.19473,-0.2674 c 0.006,-0.008 0.005,-0.0201 -0.003,-0.0258 l -0.33302,-0.24271 c -0.008,-0.006 -0.0198,-0.004 -0.0257,0.005 m 11.06241,0.27199 c -0.0314,0.0864 -0.043,0.14323 -0.0402,0.17568 0.004,0.0332 0.0148,0.1397 0.0148,0.1397 -0.0321,0.0258 -0.16863,0.11113 -0.30551,0.0102 0.009,-0.0293 0.0268,-0.0885 0.0307,-0.12135 0.0152,-0.0505 -0.0162,-0.0882 -0.0409,-0.0356 -0.0254,0.0526 -0.0833,0.22824 -0.12629,0.2674 -0.043,0.0395 -0.0935,0.18486 -0.41946,0.0374 -0.0568,-0.0222 -0.15734,-0.0963 -0.31256,0.0603 -0.35278,0.32773 -0.59619,0.35349 -0.99166,0.49389 -0.0473,0.0219 -0.14816,0.0974 -0.0289,0.0854 0.11924,-0.012 0.62019,2.7e-4 0.89324,-0.31291 0.0568,-0.055 0.12206,-0.20108 0.33901,-0.11642 0.1196,0.0455 0.34114,0.23566 0.58315,-0.1404 0.14252,0.0949 0.35877,0.0572 0.3937,-0.0476 0.0342,-0.10442 0.0741,-0.20884 0.0734,-0.27975 0,-0.0713 -0.006,-0.1651 -0.006,-0.1651 -0.005,-0.0561 -0.0247,-0.13653 -0.0561,-0.0508 m -12.579,0.17921 c -0.0698,0.0349 -0.98214,0.39194 -1.05445,0.43251 -0.0727,0.0406 -0.0981,0.0504 -0.11254,0.10336 -0.0148,0.0529 -0.0222,0.0836 -0.0257,0.0921 -0.0148,0.0349 -0.0265,0.0787 0.0801,0.0183 0.0335,-0.0187 0.9592,-0.38206 1.01847,-0.41592 0.06,-0.0342 0.0953,-0.0459 0.12206,-0.10055 0.0268,-0.0536 0.0335,-0.0635 0.0483,-0.10124 0.0159,-0.0402 0.0321,-0.0833 -0.0762,-0.0286 m 0.0776,0.39794 c -0.0695,0.0353 -0.98213,0.39193 -1.05445,0.4325 -0.0727,0.0402 -0.0981,0.0504 -0.11254,0.10337 -0.0145,0.0529 -0.0219,0.0836 -0.0257,0.0921 -0.0148,0.0353 -0.0265,0.0787 0.0801,0.0183 0.0332,-0.0187 0.95921,-0.38171 1.01883,-0.41628 0.0596,-0.0339 0.0953,-0.0455 0.12206,-0.0998 0.0265,-0.0543 0.0332,-0.0635 0.048,-0.1016 0.0162,-0.0402 0.0318,-0.0833 -0.0762,-0.0286"
       style="fill:#231f20;fill-opacity:1;fill-rule:evenodd;stroke:none;stroke-width:0.264583"
       id="path1" />
  </g>
</svg>
