<?xml version="1.0" encoding="UTF-8" standalone="no"?>
<!-- Created with Inkscape (http://www.inkscape.org/) -->

<svg
   width="21.682775mm"
   height="6.3790684mm"
   viewBox="0 0 21.682775 6.3790684"
   version="1.1"
   id="svg1"
   xmlns:inkscape="http://www.inkscape.org/namespaces/inkscape"
   xmlns:sodipodi="http://sodipodi.sourceforge.net/DTD/sodipodi-0.dtd"
   xmlns="http://www.w3.org/2000/svg"
   xmlns:svg="http://www.w3.org/2000/svg">
  <sodipodi:namedview
     id="namedview1"
     pagecolor="#ffffff"
     bordercolor="#666666"
     borderopacity="1.0"
     inkscape:showpageshadow="2"
     inkscape:pageopacity="0.0"
     inkscape:pagecheckerboard="0"
     inkscape:deskcolor="#d1d1d1"
     inkscape:document-units="mm" />
  <defs
     id="defs1" />
  <g
     inkscape:label="Layer 1"
     inkscape:groupmode="layer"
     id="layer1"
     transform="translate(-108.77814,-195.69863)">
    <path
       d="m 122.71939,195.86797 c -0.0702,0.10619 -0.12206,0.36231 -0.0222,0.43498 0.0998,0.0734 0.24624,0.13264 0.24624,0.13264 -0.46567,0.57115 -0.78458,0.68016 -1.05693,0.83962 -0.0702,0.0409 -0.0564,0.078 -0.0152,0.067 0.0212,-0.006 0.38806,-0.0628 0.81563,-0.3877 0.23177,-0.17568 0.37182,-0.47625 0.37182,-0.47625 0,0 0.11607,0.0967 0.13159,0.11606 0.0353,0.0438 0.0543,0.0759 0.0705,0.03 0.061,-0.16898 -0.025,-0.27093 -0.10724,-0.32315 0,0 0.0857,-0.26352 -0.0713,-0.52775 -0.0265,-0.0441 -0.18239,-0.18521 -0.36301,0.0945 m 0.24342,0.0723 c 0.10477,0.0974 0.0893,0.25788 0.085,0.29457 0,0 -0.13406,-0.0628 -0.19403,-0.0885 -0.06,-0.0258 -0.0917,-0.0639 -0.0639,-0.1016 0.0924,-0.13018 0.13793,-0.12559 0.17286,-0.10443 m -1.73567,-0.20531 c -0.0162,0.0388 -0.13723,0.33584 -0.13723,0.33584 0.002,0.0177 0.036,0.14711 0.0423,0.19579 0.0561,0.42863 0.40711,2.95981 0.508,3.75991 0.0494,0.39405 0.0882,0.74859 0.0935,0.93874 -0.004,0.0589 0.0212,0.0808 0.048,0.0243 0.0145,-0.0307 0.0751,-0.15593 0.0935,-0.48401 0.0138,-0.24694 -0.006,-0.62583 -0.0762,-1.14723 -0.0102,-0.0762 -0.3757,-2.72027 -0.3757,-2.72027 0,0 0.1972,0.18556 0.2293,0.21872 0.0314,0.0335 0.0698,0.0159 0.0519,-0.0384 -0.0183,-0.0536 -0.42228,-1.03047 -0.43498,-1.06398 -0.013,-0.0339 -0.0257,-0.0586 -0.0423,-0.0194 m -1.48837,0 c -0.0162,0.0388 -0.14605,0.3249 -0.14605,0.3249 0.004,0.0229 0.0342,0.0935 0.0554,0.23743 0.0159,0.11041 0.0374,0.25576 0.061,0.4191 0,0 0.13793,1.31056 0.18062,1.66687 0.0381,0.31962 0.12241,1.10596 0.27693,1.63442 -0.30868,0.14852 -0.96696,0.44767 -1.43616,0.51012 -0.13123,0.0173 -1.02658,0.20002 -1.46755,-0.62195 -0.30939,-0.57644 -0.12312,-2.94076 -0.56409,-4.06188 -0.0631,-0.1263 -0.0586,-0.042 -0.084,0.004 -0.0254,0.0462 -0.10937,0.29845 -0.10937,0.29845 0.56692,1.81046 -0.0212,3.87703 1.04176,4.61681 0.13793,0.0956 0.83361,0.37818 1.81857,-0.005 0.27163,-0.10548 0.73271,-0.30692 0.84349,-0.3489 0.024,-0.01 0.0568,-0.0236 0.0945,-0.0402 0.0998,0.20673 0.28011,0.49037 0.62124,0.55986 0.14605,0.03 0.22578,-0.002 0.3108,-0.16404 0.0339,-0.0639 0.22296,-0.49777 0.0586,-0.75247 -0.036,-0.0564 -0.30057,-0.35807 -0.8696,-0.11818 -0.0367,-0.09 -0.0705,-0.19015 -0.0945,-0.29987 -0.0504,-0.20566 -0.21661,-1.35501 -0.23848,-1.5314 -0.0229,-0.17675 -0.15981,-1.45627 -0.15981,-1.45627 0,0 0.18662,0.18768 0.21837,0.22119 0.0318,0.0335 0.0699,0.0155 0.0519,-0.0385 -0.018,-0.054 -0.40816,-1.00189 -0.42122,-1.0354 -0.013,-0.0339 -0.0257,-0.0586 -0.0423,-0.0194 m 1.40018,4.67184 c 0.0169,0.0335 0.0388,0.12841 -0.0515,0.11994 -0.0903,-0.009 -0.30198,-0.0727 -0.4198,-0.20602 -0.01,-0.0113 -0.0279,-0.0353 -0.0515,-0.0702 0.0557,-0.0148 0.1076,-0.0236 0.15099,-0.0215 0.0663,0.006 0.23107,-0.007 0.37183,0.1778 m -3.4156,-4.49686 c -0.0307,0.0748 -0.15839,0.33267 -0.13899,0.63606 0.005,0.0705 0.0508,0.20743 0.15698,0.21131 0.0543,-2.6e-4 0.12489,-0.0402 0.17533,-0.21202 0.008,-0.0388 0.0141,-0.0699 0.0177,-0.0854 0.005,-0.0233 -0.0116,-0.0508 -0.0293,0.002 -0.0406,0.10513 -0.14393,0.17886 -0.2219,0.0378 -0.0127,-0.0279 -0.0653,-0.15593 0.0314,-0.43533 0.019,-0.0547 0.0438,-0.13547 0.0438,-0.13547 0.0215,-0.061 -0.004,-0.0945 -0.0349,-0.0194 m 1.12748,0.0572 c -0.037,0.11359 -0.19791,0.508 -0.14464,0.95885 0.0123,0.10442 0.0903,0.30444 0.24165,0.30127 0.078,-0.005 0.17604,-0.0695 0.23284,-0.32949 0.009,-0.0586 0.0141,-0.10513 0.0183,-0.12841 0.006,-0.0349 -0.0212,-0.0744 -0.042,0.006 -0.0483,0.16016 -0.19015,0.27799 -0.31327,0.0741 -0.0204,-0.0406 -0.10653,-0.22683 0.007,-0.65087 0.0236,-0.0825 0.0515,-0.20496 0.0515,-0.20496 0.0257,-0.0928 -0.0141,-0.14041 -0.0519,-0.0265 m -0.87312,1.23684 c -0.0434,0.0769 -0.21802,0.34043 -0.23848,0.67451 -0.005,0.0773 0.0272,0.23248 0.14217,0.25118 0.0593,0.007 0.14217,-0.0265 0.22013,-0.20673 0.0148,-0.0413 0.0251,-0.0744 0.031,-0.0907 0.009,-0.0247 -0.006,-0.0568 -0.0328,-0.001 -0.0579,0.10936 -0.18098,0.17533 -0.2466,0.0109 -0.01,-0.0325 -0.0494,-0.17886 0.0935,-0.47061 0.0286,-0.0564 0.0663,-0.14111 0.0663,-0.14111 0.0321,-0.0635 0.008,-0.10371 -0.0353,-0.0261 m 1.63688,0.7373 c -0.0699,0.0353 -2.02988,0.87701 -2.10255,0.91793 -0.0723,0.0399 -0.0977,0.0501 -0.11218,0.10301 -0.0145,0.0526 -0.0219,0.0833 -0.0258,0.0917 -0.0145,0.0353 -0.0265,0.079 0.0801,0.0187 0.0335,-0.0191 2.00731,-0.86713 2.06692,-0.90099 0.0596,-0.0342 0.0945,-0.0462 0.12171,-0.10019 0.0268,-0.054 0.0332,-0.0639 0.048,-0.1016 0.0159,-0.0402 0.0321,-0.0833 -0.0762,-0.0286 m -0.77823,1.02518 c -0.0321,0.0843 -0.17039,0.37606 -0.1277,0.70802 0.01,0.0765 0.0744,0.22366 0.20179,0.22049 0.066,-0.004 0.14852,-0.0522 0.19826,-0.24448 0.008,-0.0434 0.0127,-0.0776 0.0159,-0.0945 0.005,-0.0261 -0.0173,-0.0554 -0.0353,0.004 -0.0416,0.11818 -0.16227,0.20638 -0.26458,0.0568 -0.0173,-0.03 -0.0885,-0.16651 0.0102,-0.47978 0.0201,-0.061 0.0448,-0.15134 0.0448,-0.15134 0.0222,-0.0684 -0.0109,-0.10372 -0.0434,-0.0194 m -4.70217,-3.00672 c -0.0773,0.11818 -0.13476,0.40111 -0.0243,0.48119 0.11042,0.0811 0.27199,0.1464 0.27199,0.1464 -0.514,0.63077 -1.23049,1.22343 -1.53106,1.39982 -0.078,0.0459 -0.0621,0.0864 -0.0169,0.0741 0.0233,-0.006 0.42051,-0.15275 0.89747,-0.50658 0.40075,-0.2974 0.77822,-0.9204 0.77822,-0.9204 0,0 0.12771,0.10654 0.14535,0.12841 0.0388,0.048 0.06,0.0836 0.0783,0.0325 0.067,-0.18627 -0.0282,-0.29881 -0.11889,-0.35702 0,0 0.0942,-0.29033 -0.0794,-0.58208 -0.0293,-0.0487 -0.20108,-0.20496 -0.40075,0.10372 m 0.26882,0.0804 c 0.11606,0.10795 0.0984,0.28469 0.0942,0.32526 0,0 -0.14782,-0.0695 -0.21484,-0.0977 -0.0656,-0.0282 -0.10055,-0.0702 -0.0702,-0.11253 0.10196,-0.14323 0.1524,-0.13829 0.19086,-0.11501 m 14.83853,-0.0769 c -0.0702,0.10653 -0.12206,0.36265 -0.0222,0.43532 0.0998,0.0737 0.24624,0.13265 0.24624,0.13265 -0.46567,0.57114 -1.38042,0.97719 -1.59809,1.14688 -0.0649,0.0494 -0.0561,0.078 -0.0152,0.0667 0.0367,-0.009 0.73308,-0.20461 1.37054,-0.75 0.2921,-0.25047 0.28364,-0.26917 0.35808,-0.42087 0.0635,0.0325 0.10689,0.0854 0.13158,0.11607 0.0353,0.0437 0.0547,0.0758 0.0709,0.03 0.0607,-0.16898 -0.0254,-0.27093 -0.10724,-0.32349 0,0 0.0854,-0.26318 -0.0716,-0.52741 -0.0261,-0.0441 -0.18238,-0.1852 -0.36301,0.0942 m 0.24377,0.0727 c 0.10478,0.0977 0.0889,0.25788 0.0847,0.29457 0,0 -0.13406,-0.0632 -0.19438,-0.0885 -0.0596,-0.0258 -0.091,-0.0635 -0.0632,-0.1016 0.0921,-0.13018 0.13758,-0.12524 0.17286,-0.10442 m -1.78858,-0.16546 c -0.18345,0.23284 -0.19509,0.5387 -0.21908,0.87983 -0.0261,-0.0716 -0.17215,-0.52881 -0.63958,-0.79093 -0.0342,-0.019 -0.10301,0.0169 -0.10936,0.12489 -0.004,0.0628 -0.0219,0.21484 0.0222,0.25858 0.0441,0.0427 0.17463,0.12771 0.19685,0.13935 0.0219,0.0124 0.0452,0.0138 0.0519,-0.0124 0.007,-0.0261 0.0367,-0.0864 0.079,-0.043 0.0353,0.036 0.266,0.22649 0.38523,0.63042 0.0208,0.0536 0.0706,0.0589 0.0822,-0.0173 0.0275,-0.18662 0.0427,-0.51117 0.0571,-0.60995 0.0212,-0.13794 0.0871,-0.42298 0.26212,-0.27481 0.0399,0.0335 0.0822,0.078 0.0822,0.078 0.037,0.0469 0.0836,0.10019 0.10619,0.0462 0.0346,-0.0815 0.0624,-0.21695 0.0247,-0.28998 -0.0166,-0.0324 -0.23354,-0.30727 -0.38171,-0.11889 m -1.80058,-0.0109 c -0.0674,0.0392 -1.78752,1.03222 -1.85737,1.07738 -0.0695,0.0445 -0.0942,0.0561 -0.10513,0.10971 -0.0116,0.054 -0.0169,0.085 -0.0201,0.0935 -0.0124,0.0363 -0.0215,0.0808 0.0811,0.0138 0.0318,-0.0212 1.76213,-1.02094 1.82245,-1.05869 0.0582,-0.036 0.0917,-0.0515 0.11571,-0.10795 0.0229,-0.0554 0.0289,-0.0653 0.0413,-0.10407 0.0134,-0.0413 0.0268,-0.085 -0.078,-0.0236 m -10.03582,0.12418 c -0.0378,0.11395 -0.19861,0.50836 -0.14499,0.95921 0.0127,0.10406 0.0907,0.30444 0.24165,0.30091 0.0783,-0.005 0.17569,-0.0695 0.23284,-0.32914 0.009,-0.0586 0.0141,-0.10512 0.018,-0.12876 0.006,-0.0349 -0.0208,-0.0744 -0.042,0.006 -0.048,0.15981 -0.19015,0.27799 -0.31327,0.0741 -0.0201,-0.0406 -0.10619,-0.22719 0.008,-0.65158 0.0229,-0.0818 0.0511,-0.20461 0.0511,-0.20461 0.0261,-0.0924 -0.0141,-0.14005 -0.0515,-0.0265 m -3.66325,0 c -0.037,0.11395 -0.1979,0.50836 -0.14463,0.95921 0.0123,0.10406 0.0903,0.30444 0.24165,0.30091 0.078,-0.005 0.17568,-0.0695 0.23283,-0.32914 0.009,-0.0586 0.0145,-0.10512 0.018,-0.12876 0.006,-0.0349 -0.0208,-0.0744 -0.042,0.006 -0.048,0.15981 -0.1905,0.27799 -0.31326,0.0741 -0.0205,-0.0406 -0.10619,-0.22719 0.008,-0.65158 0.0229,-0.0818 0.0515,-0.20461 0.0515,-0.20461 0.0258,-0.0924 -0.0145,-0.14005 -0.0519,-0.0265 m -1.75012,0.13371 c -0.15099,0.21766 -0.14711,0.49388 -0.1524,0.80186 -0.0261,-0.0632 -0.17745,-0.46814 -0.60396,-0.68192 -0.031,-0.0155 -0.0907,0.0204 -0.0914,0.11712 -2.6e-4,0.0568 -0.009,0.19509 0.0321,0.23178 0.0413,0.0367 0.16122,0.10689 0.18098,0.11641 0.0201,0.0102 0.0409,0.0106 0.0455,-0.0134 0.005,-0.0236 0.0282,-0.0797 0.0677,-0.0423 0.0289,0.0261 0.26035,0.20919 0.34184,0.47201 0.0688,0.2286 -0.4759,0.72567 -0.50482,0.7486 -0.0515,0.0409 -0.0332,0.0649 -0.009,0.0501 0.024,-0.0145 0.0487,-0.0198 0.33055,-0.22754 0.22719,-0.16792 0.26705,-0.35066 0.2801,-0.48966 0.002,-0.007 0.004,-0.0145 0.004,-0.0236 0.0162,-0.16969 0.0138,-0.46214 0.0222,-0.55104 0.012,-0.12559 0.0571,-0.38524 0.21943,-0.26 0.0367,0.0282 0.0762,0.0663 0.0762,0.0663 0.0353,0.0406 0.079,0.0864 0.0967,0.0367 0.0265,-0.0751 0.0448,-0.19791 0.008,-0.26211 -0.0166,-0.0282 -0.2219,-0.26529 -0.34431,-0.0892 m -1.44709,0.92604 c -0.0487,0.14111 -0.25259,0.62865 -0.21449,1.20015 0.007,0.10195 0.0554,0.27834 0.15698,0.3556 -0.12488,0.32878 -0.502,1.70497 0.61066,2.02459 0.21555,0.0624 0.71473,0.16827 1.55681,-0.30657 -0.004,0.01 -0.007,0.0198 -0.0106,0.03 -0.0924,0.28116 -0.27588,1.23931 0.21872,1.56669 0.15416,0.1023 0.67169,0.43744 1.66723,-0.30233 0.16016,-0.11924 0.78775,-0.58138 0.86148,-1.15959 0.003,-0.0219 0.0113,-0.0914 0.001,-0.19014 0.23213,-0.0822 0.54645,-0.20567 0.91863,-0.381 0.21449,-0.1009 1.55857,-0.79552 1.55857,-0.79552 0,0 0.0769,-0.20955 0.1009,-0.30233 0.0247,-0.0928 0.0204,-0.13723 -0.0483,-0.10512 -0.0684,0.0321 -1.10561,0.61736 -1.2506,0.64981 -0.1457,0.0321 -0.49283,0.14111 -0.99695,-0.16933 -0.0769,-0.0607 -0.4318,-0.34749 -0.52493,-0.65405 -0.036,-0.10901 -0.0162,-0.0967 0.0282,-0.14111 0.0444,-0.0444 0.87983,-0.69709 1.80128,-0.47766 0.0882,0.0208 0.17357,0.0123 0.078,-0.0646 -0.072,-0.0586 -0.2794,-0.15628 -0.50941,-0.19579 -0.1584,-0.0275 -0.3302,-0.031 -0.4819,-0.0127 -0.37112,0.0445 -0.8068,0.26211 -0.93239,0.48859 -0.0603,0.12912 -0.2861,0.51224 -0.0804,0.87136 0.0847,0.14147 0.32702,0.55669 0.7747,0.72638 0,0 -0.31398,0.14111 -0.53728,0.21977 -0.0385,-0.0769 -0.0903,-0.15804 -0.15946,-0.23953 -0.0589,-0.0759 -0.3447,-0.4788 -0.73946,-0.21421 -0.12206,0.10089 -0.34855,0.48295 -0.15946,0.7814 0.0879,0.13441 0.3108,0.23495 0.74331,0.14252 0.0381,-0.007 0.11218,-0.0275 0.21872,-0.0607 0.0187,0.0286 0.0303,0.0487 0.0346,0.0565 0.0222,0.042 0.031,0.0811 -0.0251,0.16263 -0.0561,0.0811 -0.89641,1.05445 -1.63548,1.13982 -0.10901,0.0124 -0.56197,0.043 -0.83185,-0.40781 -0.0328,-0.0547 -0.13017,-0.48295 0.0462,-0.98248 0.009,-0.0229 0.013,-0.0441 0.0138,-0.0628 0.16051,-0.0991 0.33302,-0.21766 0.51681,-0.36159 0.11889,-0.0924 0.70098,-0.47555 0.52882,-1.07845 -0.0201,-0.0843 -0.37253,-0.85689 -0.37253,-0.85689 0.0794,0.031 0.13088,0.0445 0.1591,0.0564 0.0282,0.012 0.0755,-0.018 0.0303,-0.0759 -0.0452,-0.0579 -0.34502,-0.40745 -0.35349,-0.43039 -0.008,-0.0229 -0.0219,-0.0406 -0.0303,-0.0716 -0.009,-0.031 -0.0289,-0.0251 -0.0406,10e-4 -0.012,0.0261 -0.0815,0.28293 -0.0857,0.30621 -0.004,0.0236 0.0628,0.25435 0.10478,0.35913 0.10971,0.29951 0.33549,0.71614 0.37147,0.78458 0.0353,0.0688 0.0977,0.18027 0.0226,0.28681 -0.0744,0.10653 -0.68968,0.75 -1.73778,1.04633 -0.1651,0.0469 -0.85937,0.21238 -1.24813,-0.30762 -0.0617,-0.0829 -0.34149,-0.48471 -0.097,-1.25835 0.008,0.002 0.0173,0.003 0.0257,0.004 0.0896,-0.001 0.20461,-0.0772 0.28293,-0.40146 0.0134,-0.0734 0.0215,-0.13229 0.0272,-0.16086 0.008,-0.0437 -0.0201,-0.0956 -0.048,0.005 -0.0635,0.19896 -0.23177,0.33937 -0.36195,0.0748 -0.0212,-0.0522 -0.10971,-0.29246 0.0423,-0.82021 0.0307,-0.10231 0.0691,-0.25506 0.0691,-0.25506 0.0342,-0.11536 -0.009,-0.1778 -0.0575,-0.0363 m 4.16807,2.7686 c 0.079,0.0445 0.15663,0.11254 0.22718,0.18697 -0.19614,0.0247 -0.42156,0.0293 -0.50411,-0.0236 -0.0459,-0.0363 -0.0593,-0.1016 0.006,-0.14182 0.0656,-0.0406 0.17145,-0.0769 0.27129,-0.0215 m 13.05913,-2.59786 c -0.0349,0.0843 -0.17886,0.37465 -0.15699,0.7172 0.005,0.0794 0.0575,0.23354 0.17674,0.23742 0.0617,0 0.14146,-0.0448 0.19791,-0.23813 0.01,-0.0441 0.0159,-0.079 0.0198,-0.0963 0.006,-0.0261 -0.0134,-0.0572 -0.0332,0.003 -0.0448,0.11853 -0.16192,0.20143 -0.24976,0.0423 -0.0141,-0.0317 -0.0734,-0.17568 0.0349,-0.49071 0.0222,-0.0614 0.0497,-0.1524 0.0497,-0.1524 0.0243,-0.0688 -0.005,-0.10654 -0.0392,-0.0222 m 3.3073,0.17322 c -0.0321,0.078 -0.16546,0.34713 -0.14535,0.66427 0.005,0.073 0.0533,0.2159 0.16334,0.21943 0.0571,0 0.13088,-0.0413 0.18344,-0.22048 0.009,-0.0409 0.0148,-0.0734 0.0187,-0.0889 0.005,-0.0243 -0.0127,-0.0533 -0.0307,0.002 -0.0416,0.11007 -0.15029,0.18698 -0.23178,0.0395 -0.013,-0.0293 -0.0677,-0.16264 0.0325,-0.45438 0.0205,-0.0565 0.0462,-0.14076 0.0462,-0.14076 0.0226,-0.0639 -0.005,-0.0991 -0.0363,-0.0208 m -6.20677,0.008 -0.16827,0.23036 -0.32315,-0.2353 c -0.008,-0.006 -0.0194,-0.004 -0.0257,0.005 l -0.19509,0.2674 c -0.006,0.008 -0.004,0.0201 0.004,0.0261 l 0.33267,0.24271 c 0.008,0.006 0.0198,0.004 0.0261,-0.005 l 0.16792,-0.23072 0.32314,0.23566 c 0.008,0.006 0.0198,0.004 0.0257,-0.005 l 0.19508,-0.26741 c 0.006,-0.008 0.005,-0.0201 -0.004,-0.0261 l -0.33267,-0.24271 c -0.008,-0.006 -0.0198,-0.004 -0.0257,0.005 m -12.70564,1.29822 -0.19509,0.2674 c -0.006,0.008 -0.005,0.0201 0.003,0.0258 l 0.33302,0.24271 c 0.008,0.006 0.0198,0.004 0.0257,-0.005 l 0.19509,-0.2674 c 0.006,-0.009 0.005,-0.0201 -0.004,-0.0261 l -0.33267,-0.24271 c -0.008,-0.006 -0.0198,-0.004 -0.0258,0.005 m 14.0088,-0.88229 c -0.013,0.0452 -0.0455,0.23988 -0.0533,0.27975 -0.008,0.0402 -0.007,0.0801 0.0127,0.11395 0.0198,0.0346 0.0702,0.1531 0.10689,0.24941 0.0363,0.0963 0.41416,0.82409 0.44873,0.88865 0.0353,0.0642 0.0423,0.11218 0.008,0.15522 -1.21285,1.27952 -3.55353,2.06657 -3.62796,2.10996 -0.0748,0.0434 -0.055,0.0773 0.0709,0.055 0.18838,-0.0332 1.23966,-0.20885 1.53917,-0.35313 0.19755,-0.0956 0.88794,-0.43392 1.45238,-0.87666 -0.0155,0.1143 -0.0303,0.28223 -0.0222,0.4953 0.0381,1.02941 0.95814,0.85866 1.19979,0.80539 0.7239,-0.15875 1.60867,-1.15922 1.68346,-1.35995 0.0744,-0.19862 0.0857,-0.37959 0.0691,-0.53764 0.19015,-0.10336 0.59937,-0.43321 0.59937,-0.43321 0.0169,0.43886 0.36619,0.57044 0.47378,0.58914 0.50342,0.0769 0.75565,-0.34396 0.8629,-0.48048 0.0917,0.24059 0.31221,0.28716 0.4258,0.30974 0.43427,0.0864 0.51894,-0.22049 0.54151,-0.29105 0.13618,-0.42333 -0.10936,-0.73942 -0.14075,-0.77434 -0.0318,-0.0353 -0.048,-0.001 -0.0589,0.0392 -0.0109,0.0406 -0.0459,0.19332 -0.0681,0.28857 0,0 0.0907,0.14816 0.12312,0.22366 0.0325,0.0755 -0.0159,0.11677 -0.10937,0.12806 -0.26423,0.0321 -0.47483,-0.11924 -0.54751,-0.18874 -0.0727,-0.0702 0.006,-0.19403 0.0646,-0.34149 0.0469,-0.11783 -0.0402,-0.13229 -0.10689,-2.6e-4 -0.22401,0.58914 -0.53869,0.65264 -0.62124,0.67522 -0.74613,0.2032 -0.68192,-0.47872 -0.67945,-0.59055 0.003,-0.11183 -0.079,-0.0706 -0.17075,0.004 -0.31397,0.25153 -0.56726,0.3997 -0.70273,0.46038 -0.11712,-0.22896 -0.28751,-0.37253 -0.35913,-0.42439 -0.8075,-0.58879 -0.87418,0.59901 -0.84949,0.72672 0.12242,0.50482 0.94757,0.19861 1.07668,0.1838 0.12947,-0.0155 0.0875,0.15486 0.0148,0.25646 -0.17886,0.25048 -0.38559,0.43004 -0.57291,0.58244 -0.79975,0.65264 -1.20086,0.60149 -1.32433,0.5969 -0.78564,-0.0219 -0.71332,-0.86819 -0.66992,-1.04916 0.23636,-0.20038 0.4392,-0.41804 0.55738,-0.6417 0.048,-0.12277 0.13088,-0.40146 -0.0187,-0.75177 -0.0787,-0.15381 -0.32632,-0.58597 -0.32632,-0.58597 0,0 0.18239,0.006 0.19967,0.005 0.0173,-2.7e-4 0.0519,-0.0183 0.008,-0.0695 -0.0444,-0.0511 -0.42756,-0.43356 -0.4512,-0.46426 -0.0229,-0.0307 -0.0441,-0.0529 -0.0572,-0.007 m 2.42217,1.7526 c 0,0 -0.10971,0.0631 -0.41733,0.0423 -0.25789,-0.0173 -0.23566,-0.11748 -0.20038,-0.15593 0.0384,-0.0413 0.35419,-0.24024 0.61771,0.1136 m -3.31646,-1.42488 c -0.0533,0.066 -0.58985,0.77012 -0.58985,0.77012 l -0.38982,-0.27834 c 0,0 0.15911,-0.0395 0.18662,-0.0476 0.0279,-0.008 0.0437,-0.0441 -0.006,-0.0699 -0.0497,-0.0257 -0.51999,-0.21307 -0.55597,-0.22754 -0.0356,-0.0148 -0.0487,-0.0307 -0.0515,0.007 -0.004,0.0378 -0.009,0.34748 -0.009,0.34748 0,0 -0.007,0.0219 0.0339,0.0452 0.0409,0.0233 0.0811,0.073 0.115,0.10689 0.0335,0.0332 0.47096,0.37853 0.49212,0.39053 0,0 -0.21836,0.38417 -0.24694,0.68545 -0.0275,0.30091 0.006,0.71613 0.41698,0.58243 0.11078,-0.0317 0.5715,-0.21484 0.67451,-0.53622 0.0335,-0.11818 0.12842,-0.33196 -0.0261,-0.54892 -0.0892,-0.12736 -0.44873,-0.34255 -0.44873,-0.34255 0,0 0.27622,-0.38171 0.30233,-0.42863 0.0264,-0.0469 0.1277,-0.3429 0.13934,-0.41451 0.0113,-0.0716 0.0166,-0.10724 -0.0367,-0.0413 m -0.0945,1.62278 c -0.1524,0.12595 -0.47378,0.29175 -0.56409,0.30057 -0.0903,0.008 -0.32949,-0.0353 -0.22543,-0.28046 0.0356,-0.0794 0.27482,-0.48895 0.27482,-0.48895 0.0893,0.049 0.66781,0.34325 0.5147,0.46884 m -7.3279,0.48931 c -0.0374,0.11394 -0.19861,0.508 -0.14499,0.9592 0.0127,0.10407 0.0907,0.30409 0.24165,0.30127 0.0783,-0.005 0.17569,-0.0695 0.23284,-0.32949 0.009,-0.0586 0.0145,-0.10548 0.018,-0.12842 0.006,-0.0349 -0.0208,-0.0748 -0.042,0.006 -0.048,0.15981 -0.19015,0.27799 -0.31327,0.0741 -0.0204,-0.0406 -0.10583,-0.22719 0.008,-0.65087 0.0229,-0.0825 0.0515,-0.20497 0.0515,-0.20497 0.0257,-0.0931 -0.0141,-0.1404 -0.0515,-0.0268 m 13.55902,0.0727 c -0.0314,0.0864 -0.0434,0.14322 -0.0406,0.17568 0.004,0.0332 0.0148,0.13935 0.0148,0.13935 -0.0321,0.0261 -0.16862,0.11112 -0.3055,0.0106 0.009,-0.0293 0.0268,-0.0889 0.031,-0.12171 0.0148,-0.0501 -0.0166,-0.0882 -0.0413,-0.0356 -0.0251,0.0526 -0.0829,0.22825 -0.1263,0.26776 -0.043,0.0395 -0.0931,0.18485 -0.41945,0.037 -0.0564,-0.0219 -0.15663,-0.0963 -0.31256,0.0607 -0.35243,0.32773 -0.59584,0.35313 -0.99095,0.49353 -0.0483,0.0222 -0.14852,0.0977 -0.0293,0.0857 0.11888,-0.012 0.62018,2.6e-4 0.89288,-0.31291 0.0572,-0.0554 0.12241,-0.20144 0.33902,-0.11677 0.11994,0.0455 0.34149,0.23565 0.58314,-0.14041 0.14252,0.0949 0.35912,0.0572 0.39335,-0.0473 0.0349,-0.10478 0.0744,-0.20884 0.0741,-0.27975 -2.7e-4,-0.0713 -0.006,-0.16546 -0.006,-0.16546 -0.005,-0.0561 -0.0251,-0.13652 -0.0561,-0.0504 m -15.42556,0.28786 c -0.0258,0.0497 -0.037,0.11536 -0.0141,0.16863 0.0258,0.0617 0.085,0.0977 0.14218,0.12806 -0.17957,0.16545 -0.27694,0.53446 -0.0681,0.71543 0.0977,0.0854 0.23636,0.10619 0.36195,0.10548 0.0702,-7.9e-4 0.13652,-0.0233 0.20285,-0.0437 0.0307,-0.01 0.061,-0.019 0.0931,-0.0243 0.0169,-0.002 0.0303,-0.006 0.0413,-0.0201 0.006,-0.008 0.0113,-0.0233 -0.001,-0.0293 -0.0127,-0.007 -0.0342,-0.004 -0.0483,-0.004 -0.0201,0 -0.0402,7.9e-4 -0.0603,0.001 -0.0462,0.002 -0.0928,0.006 -0.13935,0.006 -0.0917,0 -0.18591,-0.0109 -0.27375,-0.0399 -0.084,-0.0279 -0.16016,-0.0854 -0.19862,-0.16652 -0.0381,-0.0801 -0.0318,-0.17638 0.004,-0.25682 0.0762,-0.16898 0.25823,-0.25894 0.41557,-0.3376 0.0187,-0.009 0.0395,-0.0141 0.0466,-0.0346 0.006,-0.0194 0.012,-0.0392 0.0169,-0.0582 0.0148,-0.0561 -0.0607,-0.0148 -0.0797,-0.005 -0.0684,0.0353 -0.1591,0.10477 -0.24095,0.084 -0.0561,-0.0145 -0.11712,-0.0554 -0.14887,-0.10442 -0.005,-0.008 -0.0134,-0.0183 -0.007,-0.0275 0.009,-0.0127 0.0229,-0.0219 0.0353,-0.0303 0.0286,-0.0177 0.0589,-0.0314 0.0903,-0.0427 0.0596,-0.0219 0.10936,-0.0296 0.17074,-0.012 0.0102,0.003 0.0226,0.009 0.0332,0.004 0.012,-0.005 0.0162,-0.0198 0.01,-0.031 -0.013,-0.0226 -0.0536,-0.0395 -0.0762,-0.0494 -0.1143,-0.0487 -0.24941,-0.009 -0.30797,0.10408 m 5.52167,0.16474 c -0.0307,0.0751 -0.1584,0.33267 -0.13899,0.63641 0.005,0.0706 0.0512,0.20744 0.15698,0.21096 0.0547,-2.6e-4 0.12524,-0.0399 0.17533,-0.21166 0.009,-0.0388 0.0141,-0.0699 0.018,-0.085 0.005,-0.0233 -0.0116,-0.0512 -0.0296,0.002 -0.0399,0.10512 -0.14393,0.17885 -0.22189,0.0377 -0.0124,-0.0282 -0.0653,-0.15593 0.0314,-0.43568 0.0194,-0.054 0.0441,-0.13511 0.0441,-0.13511 0.0212,-0.061 -0.005,-0.0945 -0.0353,-0.0198 m -9.3726,0.2279 c -0.0773,0.0349 -1.23155,0.60113 -1.31057,0.63888 -0.0744,0.0363 -0.0942,0.0564 -0.10548,0.11042 -0.0113,0.0536 -0.0169,0.0847 -0.0198,0.0935 -0.0127,0.0356 -0.0215,0.0674 0.0811,0.0134 0.0339,-0.018 1.2132,-0.58738 1.27564,-0.62054 0.0603,-0.0321 0.0917,-0.0515 0.11501,-0.10795 0.0233,-0.0554 0.0293,-0.0656 0.042,-0.10442 0.013,-0.0409 0.0321,-0.0737 -0.078,-0.0233"
       style="fill:#231f20;fill-opacity:1;fill-rule:evenodd;stroke:none;stroke-width:0.264583"
       id="path1" />
  </g>
</svg>
