<?xml version="1.0" encoding="UTF-8" standalone="no"?>
<!-- Created with Inkscape (http://www.inkscape.org/) -->

<svg
   width="19.253298mm"
   height="6.4932408mm"
   viewBox="0 0 19.253298 6.4932408"
   version="1.1"
   id="svg1"
   xmlns:inkscape="http://www.inkscape.org/namespaces/inkscape"
   xmlns:sodipodi="http://sodipodi.sourceforge.net/DTD/sodipodi-0.dtd"
   xmlns="http://www.w3.org/2000/svg"
   xmlns:svg="http://www.w3.org/2000/svg">
  <sodipodi:namedview
     id="namedview1"
     pagecolor="#ffffff"
     bordercolor="#666666"
     borderopacity="1.0"
     inkscape:showpageshadow="2"
     inkscape:pageopacity="0.0"
     inkscape:pagecheckerboard="0"
     inkscape:deskcolor="#d1d1d1"
     inkscape:document-units="mm" />
  <defs
     id="defs1" />
  <g
     inkscape:label="Layer 1"
     inkscape:groupmode="layer"
     id="layer1"
     transform="translate(-105.7604,-194.32804)">
    <path
       d="m 113.88619,194.33198 c -0.41981,0.0335 -2.22356,0.56585 -3.42759,1.25448 -0.10477,0.073 -0.14958,0.15628 -0.16863,0.20178 -0.0212,0.0483 -0.17497,0.44415 -0.0279,0.57997 0.14746,0.13547 1.63441,1.24425 2.00836,1.85773 0.018,0.0388 0.10936,0.23283 -0.47061,0.37359 -0.0226,-0.0511 -0.0497,-0.10301 -0.0808,-0.15699 -0.30903,-0.5789 -0.64911,-0.43074 -0.74225,-0.33584 -0.0928,0.0953 -0.24518,0.31362 -0.24941,0.53023 -0.005,0.21625 0.0949,0.4639 0.53234,0.4572 0.0706,-0.002 0.26317,-0.003 0.49107,-0.0603 0.0233,0.0579 0.0307,0.10972 0.01,0.14534 -0.084,0.1457 -0.65793,0.72003 -1.21285,0.96097 -0.17921,0.0614 -1.4672,0.49283 -1.22061,-0.98601 0.003,-0.0335 0.002,-0.0593 -0.002,-0.0783 0.054,-0.0639 0.0917,-0.12629 0.10936,-0.18626 0.0191,-0.0854 0.10019,-0.37536 0.024,-0.74966 0.12277,-0.0159 0.45579,-0.10689 0.65335,-0.42686 0.048,-0.078 0.097,-0.097 0.10548,-0.006 0.008,0.0921 0.024,0.28398 0.024,0.34607 0,0.0621 0.0406,0.0536 0.0515,-0.003 0.01,-0.0512 0.0864,-0.49742 0.0755,-0.60819 -0.0106,-0.11077 -0.0836,-0.24589 -0.19721,-0.15099 -0.11324,0.0945 -0.21343,0.22649 -0.25929,0.27834 -0.0437,0.0483 -0.28293,0.30233 -0.63853,0.0833 -0.0399,-0.0702 -0.0864,-0.14111 -0.14111,-0.21273 -0.042,-0.0589 -0.0378,0.005 -0.0473,0.0356 -0.0102,0.0314 -0.0586,0.28223 -0.0586,0.28223 0.0526,0.11677 0.27517,0.54186 0.30621,0.65687 0.0307,0.11465 0.0448,0.2099 -0.0226,0.27446 -0.0674,0.0639 -1.06398,0.98566 -3.49497,1.68028 -0.0617,0.0335 -0.0896,0.0893 0.0169,0.0783 0.10619,-0.0113 1.45592,-0.1965 1.45592,-0.1965 0.0663,-0.024 1.38536,-0.56197 1.92793,-1.06221 l -0.001,0.004 c -0.0388,0.19614 -0.21837,1.18745 0.40887,1.39488 0.11783,0.0392 0.65546,0.24059 1.60761,-0.48754 0.14181,-0.10654 0.72037,-0.48366 0.67239,-1.11337 0.13653,-0.048 0.27834,-0.11959 0.40958,-0.22436 0.073,-0.0596 0.17674,-0.15029 0.12629,-0.56339 -0.009,-0.073 -0.0444,-0.27164 -0.15487,-0.45508 0,0 0.56515,0.39722 0.8382,0.67451 0.2727,0.27728 0.84032,0.92004 1.31057,0.95391 0.10901,0.004 0.69709,0.0416 0.82762,-0.54645 0.025,-0.14253 0.0589,-0.49566 0.0166,-0.87348 -0.0251,-0.24377 -0.272,-2.36714 -0.272,-2.36714 -7.9e-4,-0.006 0.19121,0.18168 0.2219,0.21625 0.0307,0.0346 0.0695,0.0177 0.0529,-0.0367 -0.0166,-0.0547 -0.37077,-0.93027 -0.38312,-0.96484 -0.012,-0.0342 -0.0243,-0.0593 -0.0416,-0.0201 -0.0173,0.0384 -0.15451,0.32067 -0.15451,0.32067 0.003,0.0233 0.0317,0.0942 0.0487,0.23883 0.009,0.0748 0.34643,3.26285 0.34643,3.33022 0,0.0677 0.006,0.0984 -0.0374,0.13618 -0.043,0.0367 -0.57397,0.26529 -0.91334,0.0741 -0.12347,-0.0621 -0.52458,-0.38947 -0.80856,-0.68545 -0.16652,-0.16051 -0.94439,-0.87665 -2.86421,-2.01824 -0.0864,-0.0741 -0.19156,-0.12629 -0.06,-0.20179 0.13159,-0.0751 1.49049,-0.78069 2.81235,-1.18392 0.29703,-0.0836 1.15922,-0.20708 0.86254,0.14005 -0.29669,0.34749 -0.83468,0.76165 -1.05304,1.13136 -0.10654,0.16828 -0.0783,0.20708 0.0787,0.0561 0.15664,-0.15098 1.18146,-1.05868 1.2319,-1.46156 0.0113,-0.14569 -0.0391,-0.35877 -0.45931,-0.3249 m -2.45322,4.25097 c 0.008,0.0116 0.0314,0.0384 0.0621,0.0751 -0.0247,0.003 -0.0494,0.007 -0.0751,0.0102 -0.42651,0.0519 -0.47272,-0.0734 -0.44027,-0.12206 0.0279,-0.042 0.23778,-0.21555 0.45332,0.0367 m 7.9e-4,-4.15079 c -0.0773,0.0349 -1.29998,0.61807 -1.37865,0.65617 -0.0748,0.036 -0.0945,0.0564 -0.10548,0.11007 -0.0113,0.0536 -0.0169,0.0847 -0.0201,0.0935 -0.0124,0.0356 -0.0212,0.0674 0.0815,0.0134 0.0335,-0.018 1.28129,-0.60396 1.34338,-0.63747 0.061,-0.0325 0.0921,-0.0515 0.11571,-0.1076 0.0233,-0.0557 0.0293,-0.0656 0.0416,-0.10407 0.013,-0.042 0.0321,-0.0744 -0.078,-0.024 m -1.35219,0.0519 c -0.0568,0.0303 -1.9297,0.82021 -2.09409,0.93698 -0.0825,0.0593 -0.15417,0.15557 -0.1838,0.26388 -0.043,0.15628 -0.013,0.31573 0.0889,0.33866 0.0713,0.0159 0.10972,0.0603 0.12629,0.0857 0.007,0.0106 0.0194,0.004 0.0236,-0.003 0.0914,-0.15628 0.024,-0.26212 -0.11324,-0.31115 -0.054,-0.019 -0.0741,-0.0974 0.13899,-0.21625 0.1965,-0.10937 1.88172,-0.83397 1.92546,-0.86078 0.0589,-0.036 0.0942,-0.0487 0.1196,-0.10407 0.0254,-0.0554 0.0321,-0.0649 0.0459,-0.10372 0.0152,-0.0406 0.03,-0.0843 -0.0776,-0.0265 m 7.18996,0.42898 c -0.0702,0.10654 -0.12241,0.36266 -0.0226,0.43568 0.10019,0.0734 0.24659,0.13229 0.24659,0.13229 -0.46602,0.57115 -0.78457,0.68016 -1.05692,0.83961 -0.0705,0.0413 -0.0568,0.0776 -0.0152,0.0667 0.0208,-0.005 0.38735,-0.0628 0.81563,-0.38735 0.23142,-0.17604 0.37182,-0.4766 0.37182,-0.4766 0,0 0.11571,0.0967 0.13159,0.11641 0.0349,0.0434 0.0543,0.0759 0.0709,0.0296 0.0607,-0.16863 -0.0254,-0.27094 -0.10795,-0.32315 0,0 0.0857,-0.26317 -0.0713,-0.52705 -0.0261,-0.0445 -0.18204,-0.18556 -0.36266,0.0938 m 0.24306,0.073 c 0.10513,0.0974 0.0893,0.25753 0.085,0.29457 0,0 -0.1337,-0.0632 -0.19367,-0.0889 -0.06,-0.0257 -0.0917,-0.0635 -0.0639,-0.10196 0.0924,-0.12982 0.13793,-0.12523 0.1725,-0.10371 m -5.25603,0.67804 c -0.0286,0.0829 -0.1524,0.369 -0.11254,0.69603 0.009,0.0755 0.0684,0.22048 0.1838,0.21801 0.0596,-0.004 0.13441,-0.0504 0.17851,-0.23918 0.007,-0.043 0.0109,-0.0765 0.0141,-0.0935 0.005,-0.0254 -0.0159,-0.054 -0.0321,0.005 -0.037,0.11642 -0.14569,0.20214 -0.23953,0.0547 -0.0155,-0.0296 -0.0804,-0.16475 0.008,-0.47272 0.0177,-0.06 0.0395,-0.14888 0.0395,-0.14888 0.0201,-0.067 -0.0102,-0.10195 -0.0395,-0.019 m 1.80481,1.08691 c -0.14534,0.19862 -0.1464,0.45297 -0.15699,0.7366 -0.0233,-0.0586 -0.15769,-0.43391 -0.5535,-0.63782 -0.0286,-0.0152 -0.085,0.0169 -0.0871,0.10654 -0.002,0.0522 -0.012,0.17886 0.0265,0.21378 0.0378,0.0346 0.14817,0.10125 0.16686,0.11042 0.0187,0.01 0.0385,0.0106 0.0427,-0.012 0.005,-0.0215 0.0279,-0.073 0.0642,-0.0381 0.0307,0.0293 0.22719,0.18097 0.33832,0.51258 0.0187,0.0438 0.06,0.0466 0.067,-0.0166 0.0176,-0.15593 0.0212,-0.4258 0.0303,-0.50765 0.0134,-0.11535 0.0603,-0.35383 0.20991,-0.236 0.0339,0.0268 0.0698,0.0621 0.0698,0.0621 0.0325,0.0381 0.0727,0.0811 0.09,0.0356 0.0261,-0.0684 0.0455,-0.18238 0.012,-0.24165 -0.0148,-0.0265 -0.2025,-0.24835 -0.31997,-0.0878 m 1.86055,-1.94451 c -0.0173,0.0388 -0.14605,0.33232 -0.14605,0.33232 0.002,0.0176 0.0321,0.14816 0.0374,0.19685 0.0444,0.42968 0.32878,2.96933 0.40816,3.7719 0.0388,0.39511 0.0681,0.75036 0.0684,0.94086 -0.006,0.0586 0.019,0.0815 0.0476,0.025 0.0152,-0.0296 0.079,-0.15275 0.10619,-0.48083 0.0204,-0.24624 0.0106,-0.62583 -0.0459,-1.149 -0.008,-0.0762 -0.30339,-2.72909 -0.30339,-2.72909 0,0 0.19226,0.1905 0.22295,0.22472 0.0307,0.0342 0.0695,0.0176 0.0529,-0.037 -0.0166,-0.0543 -0.39441,-1.04105 -0.4064,-1.07527 -0.0124,-0.0342 -0.0247,-0.0593 -0.042,-0.0205 m 7.86977,0.20214 c -0.0702,0.10689 -0.12242,0.3623 -0.0222,0.43533 0.0998,0.0734 0.24624,0.13264 0.24624,0.13264 -0.46567,0.57115 -1.38042,0.9772 -1.59808,1.14688 -0.0649,0.049 -0.0564,0.078 -0.0152,0.067 0.036,-0.01 0.73307,-0.20461 1.37018,-0.75071 0.29246,-0.24977 0.28434,-0.26882 0.35843,-0.42087 0.0635,0.0328 0.10689,0.0857 0.13158,0.11678 0.0353,0.0434 0.0543,0.0755 0.0709,0.0296 0.0607,-0.16898 -0.0254,-0.27093 -0.10724,-0.32315 0,0 0.0854,-0.26387 -0.072,-0.52775 -0.0261,-0.0441 -0.18203,-0.18521 -0.36266,0.0942 m 0.24378,0.0727 c 0.10442,0.0974 0.0889,0.25788 0.0847,0.29457 0,0 -0.13405,-0.0628 -0.19403,-0.0885 -0.06,-0.0254 -0.0917,-0.0639 -0.0639,-0.1016 0.0924,-0.13017 0.13794,-0.12559 0.17322,-0.10442 m -1.78894,-0.1658 c -0.18309,0.23283 -0.19474,0.53904 -0.21908,0.87982 -0.0257,-0.0713 -0.1718,-0.52881 -0.63923,-0.79092 -0.0342,-0.0183 -0.10301,0.0173 -0.10936,0.12523 -0.004,0.0628 -0.0219,0.21484 0.0222,0.25824 0.0441,0.0434 0.17498,0.12805 0.1965,0.14005 0.0222,0.012 0.0455,0.0138 0.0522,-0.0124 0.006,-0.0265 0.0363,-0.0871 0.0787,-0.0437 0.0356,0.0363 0.266,0.22683 0.38559,0.63076 0.0208,0.0533 0.0702,0.0589 0.0818,-0.0173 0.0279,-0.18697 0.043,-0.51152 0.0575,-0.6096 0.0208,-0.13793 0.0871,-0.42333 0.26212,-0.27551 0.0399,0.0339 0.0818,0.0783 0.0818,0.0783 0.0374,0.0466 0.0836,0.10019 0.10654,0.0462 0.0346,-0.0815 0.0624,-0.21695 0.0243,-0.28998 -0.0166,-0.0328 -0.23354,-0.30727 -0.3817,-0.11924 m -1.80023,-0.0106 c -0.0674,0.0392 -1.78787,1.03188 -1.85737,1.07703 -0.0695,0.0448 -0.0945,0.0564 -0.10548,0.11042 -0.0109,0.054 -0.0169,0.085 -0.0198,0.0935 -0.013,0.0356 -0.0215,0.0801 0.0811,0.013 0.0318,-0.0208 1.76177,-1.02058 1.82245,-1.05833 0.0582,-0.0363 0.0917,-0.0515 0.11536,-0.10795 0.0233,-0.0554 0.0289,-0.0653 0.0413,-0.10407 0.0138,-0.0413 0.0272,-0.085 -0.0776,-0.0236 m -13.18647,0.0639 c -0.036,0.0878 -0.18662,0.39088 -0.16369,0.74824 0.006,0.0825 0.0603,0.24342 0.1845,0.24801 0.0646,-2.7e-4 0.14746,-0.0469 0.20638,-0.24906 0.0106,-0.0459 0.0169,-0.0825 0.0212,-0.10019 0.006,-0.0275 -0.0141,-0.0596 -0.0349,0.002 -0.0469,0.12382 -0.16934,0.21061 -0.26071,0.0444 -0.0148,-0.0325 -0.0769,-0.18309 0.037,-0.51224 0.0226,-0.0639 0.0515,-0.1591 0.0515,-0.1591 0.0254,-0.072 -0.005,-0.11077 -0.0413,-0.0226 m 2.0708,0.55845 -0.19509,0.2674 c -0.006,0.008 -0.005,0.0201 0.003,0.0257 l 0.33302,0.24271 c 0.008,0.006 0.0198,0.004 0.0257,-0.005 l 0.19508,-0.26741 c 0.006,-0.009 0.005,-0.0204 -0.003,-0.0261 l -0.33302,-0.24271 c -0.008,-0.006 -0.0194,-0.004 -0.0258,0.005 m 0.34431,0.57926 -0.16827,0.23107 -0.32279,-0.23566 c -0.008,-0.006 -0.0198,-0.004 -0.0258,0.005 l -0.19509,0.26741 c -0.006,0.009 -0.005,0.0204 0.003,0.0261 l 0.33302,0.24271 c 0.008,0.006 0.0198,0.004 0.0254,-0.005 l 0.16863,-0.23072 0.32279,0.2353 c 0.008,0.006 0.0201,0.004 0.0261,-0.005 l 0.19473,-0.26741 c 0.006,-0.008 0.005,-0.0201 -0.004,-0.0265 l -0.33232,-0.24235 c -0.008,-0.006 -0.0198,-0.004 -0.0261,0.005 m 11.10191,0.15346 c -0.0346,0.084 -0.17885,0.3743 -0.15663,0.71684 0.005,0.0794 0.0575,0.23319 0.17674,0.23778 0.0617,-2.7e-4 0.14111,-0.0452 0.19756,-0.23883 0.01,-0.0437 0.0159,-0.0787 0.0201,-0.096 0.006,-0.0261 -0.0134,-0.0572 -0.0335,0.003 -0.0452,0.11818 -0.16228,0.20144 -0.24976,0.0427 -0.0141,-0.0317 -0.0734,-0.17568 0.0353,-0.49142 0.0219,-0.0607 0.0497,-0.15205 0.0497,-0.15205 0.0243,-0.0688 -0.005,-0.10654 -0.0395,-0.0219 m 3.3073,0.17286 c -0.0321,0.0783 -0.16546,0.34714 -0.145,0.66393 0.005,0.0737 0.0529,0.2159 0.16369,0.22014 0.0568,-2.7e-4 0.13053,-0.0416 0.18309,-0.22084 0.009,-0.0406 0.0148,-0.073 0.0183,-0.0889 0.006,-0.0243 -0.0124,-0.0529 -0.0307,0.002 -0.0416,0.10971 -0.14993,0.18662 -0.23143,0.0392 -0.013,-0.0293 -0.0677,-0.16263 0.0325,-0.45438 0.0201,-0.0564 0.0459,-0.14111 0.0459,-0.14111 0.0226,-0.0639 -0.004,-0.0984 -0.0363,-0.0205 m -6.20678,0.008 -0.16792,0.23072 -0.32314,-0.23565 c -0.008,-0.006 -0.0198,-0.004 -0.0257,0.005 l -0.19509,0.26741 c -0.006,0.008 -0.005,0.0201 0.004,0.0261 l 0.33267,0.24235 c 0.008,0.006 0.0198,0.004 0.0258,-0.005 l 0.16827,-0.23072 0.32315,0.2353 c 0.008,0.006 0.0198,0.004 0.0257,-0.005 l 0.19509,-0.26706 c 0.006,-0.009 0.005,-0.0204 -0.004,-0.0264 l -0.33267,-0.24271 c -0.008,-0.006 -0.0198,-0.004 -0.0261,0.005 m 1.30352,0.41593 c -0.013,0.0452 -0.0459,0.23989 -0.0536,0.28011 -0.008,0.0399 -0.007,0.0797 0.013,0.11359 0.0194,0.0346 0.0702,0.15311 0.10654,0.24941 0.0367,0.0963 0.41451,0.82374 0.44944,0.8883 0.0346,0.0646 0.042,0.11254 0.007,0.15557 -1.21214,1.27953 -3.55282,2.06622 -3.62761,2.10997 -0.0748,0.043 -0.0547,0.0773 0.0709,0.055 0.18838,-0.0332 1.23966,-0.20884 1.53952,-0.35313 0.19756,-0.0952 0.88794,-0.43392 1.45239,-0.87665 -0.0159,0.1143 -0.03,0.28222 -0.0222,0.4953 0.0381,1.0294 0.95815,0.85831 1.1998,0.80539 0.72355,-0.1591 1.60831,-1.15923 1.68345,-1.35996 0.0744,-0.19897 0.0854,-0.37959 0.0684,-0.53763 0.1905,-0.10337 0.60008,-0.43321 0.60008,-0.43321 0.0169,0.4385 0.36618,0.57044 0.47343,0.58949 0.50376,0.0765 0.756,-0.34431 0.86324,-0.48048 0.0914,0.23988 0.31186,0.2868 0.42581,0.30903 0.43427,0.0868 0.51858,-0.22049 0.54151,-0.29069 0.13617,-0.42369 -0.10936,-0.73907 -0.14111,-0.77435 -0.0314,-0.0353 -0.0476,-0.001 -0.0589,0.0392 -0.0106,0.0409 -0.0459,0.19332 -0.0677,0.28892 0,0 0.0907,0.14817 0.12312,0.22296 0.0321,0.0755 -0.0159,0.11712 -0.10936,0.12877 -0.26423,0.0321 -0.47519,-0.1196 -0.54786,-0.18945 -0.0727,-0.0699 0.006,-0.19332 0.0649,-0.34078 0.0469,-0.11818 -0.0402,-0.13265 -0.10725,-2.6e-4 -0.22366,0.58878 -0.53834,0.65228 -0.62089,0.67486 -0.74647,0.2032 -0.68192,-0.47907 -0.67945,-0.59055 0.003,-0.11183 -0.079,-0.0702 -0.17109,0.003 -0.31362,0.25223 -0.56692,0.4004 -0.70274,0.46072 -0.11712,-0.22895 -0.28716,-0.37253 -0.35877,-0.42474 -0.80751,-0.58879 -0.87419,0.59972 -0.84984,0.72707 0.12276,0.50518 0.94791,0.19862 1.07703,0.1831 0.12911,-0.0152 0.0871,0.15592 0.0145,0.25752 -0.17921,0.25012 -0.38559,0.42969 -0.57256,0.58209 -0.79975,0.65264 -1.20086,0.60078 -1.32468,0.59725 -0.78528,-0.0222 -0.71332,-0.86889 -0.66957,-1.04951 0.23636,-0.20038 0.43921,-0.41769 0.55739,-0.64171 0.048,-0.12276 0.13088,-0.40181 -0.0187,-0.75141 -0.079,-0.15417 -0.32667,-0.58632 -0.32667,-0.58632 0,0 0.18274,0.005 0.20002,0.005 0.0177,-2.7e-4 0.0515,-0.018 0.007,-0.0691 -0.0441,-0.0512 -0.42721,-0.43321 -0.4505,-0.4639 -0.0233,-0.031 -0.0441,-0.0529 -0.0572,-0.008 m 2.42217,1.7526 c 0,0 -0.11006,0.0635 -0.41768,0.0423 -0.25753,-0.0173 -0.23566,-0.11747 -0.20003,-0.15557 0.0384,-0.0416 0.35419,-0.2406 0.61771,0.11324 m -13.67648,-1.54622 c -0.17992,0.23283 -0.19156,0.53939 -0.21555,0.87982 -0.0254,-0.0713 -0.16933,-0.52881 -0.63006,-0.79092 -0.0335,-0.0187 -0.1016,0.0176 -0.10795,0.12523 -0.004,0.0624 -0.0212,0.2152 0.0222,0.25824 0.0434,0.043 0.17216,0.12805 0.19368,0.14005 0.0215,0.012 0.0448,0.0138 0.0515,-0.0127 0.006,-0.0261 0.036,-0.0868 0.0776,-0.043 0.0303,0.031 0.27622,0.2473 0.35136,0.54328 0.0628,0.25788 -0.57009,0.77717 -0.6036,0.8008 -0.0593,0.0423 -0.0402,0.0699 -0.0124,0.055 0.0275,-0.0148 0.0547,-0.019 0.37959,-0.23318 0.26141,-0.17286 0.31645,-0.37359 0.33867,-0.5267 0.003,-0.007 0.005,-0.0159 0.007,-0.0261 0.0272,-0.18698 0.042,-0.51118 0.0564,-0.6096 0.0204,-0.13829 0.0854,-0.42334 0.25788,-0.27482 0.0388,0.0332 0.0811,0.0776 0.0811,0.0776 0.0363,0.0466 0.0825,0.10054 0.10477,0.0462 0.0339,-0.0815 0.061,-0.21696 0.024,-0.28999 -0.0166,-0.0325 -0.23001,-0.30691 -0.37641,-0.11924 m 10.36002,0.12136 c -0.0536,0.066 -0.58984,0.77012 -0.58984,0.77012 l -0.39017,-0.27835 c 0,0 0.1591,-0.0399 0.18697,-0.0476 0.0279,-0.008 0.0437,-0.0441 -0.006,-0.0699 -0.0501,-0.0254 -0.5207,-0.21308 -0.55598,-0.22754 -0.036,-0.0145 -0.049,-0.031 -0.0522,0.007 -0.003,0.0385 -0.008,0.34784 -0.008,0.34784 0,0 -0.007,0.0215 0.0342,0.0448 0.0409,0.0233 0.0808,0.0737 0.11465,0.1069 0.0339,0.0335 0.47132,0.37888 0.49213,0.39087 0,0 -0.21837,0.38453 -0.24659,0.6851 -0.0275,0.30127 0.006,0.71649 0.41698,0.58279 0.11042,-0.0314 0.5715,-0.2152 0.67451,-0.53658 0.0335,-0.11783 0.12806,-0.33196 -0.0261,-0.54857 -0.0892,-0.12735 -0.44909,-0.34254 -0.44909,-0.34254 0,0 0.27623,-0.38206 0.30269,-0.42863 0.0264,-0.0469 0.12805,-0.3429 0.13899,-0.41451 0.0113,-0.0716 0.0169,-0.1076 -0.0363,-0.0413 m -0.0945,1.62313 c -0.15275,0.12559 -0.47378,0.29175 -0.56444,0.30021 -0.09,0.009 -0.32915,-0.0353 -0.22508,-0.28081 0.0353,-0.079 0.27482,-0.48895 0.27482,-0.48895 0.0896,0.0494 0.66781,0.34361 0.5147,0.46955 m -7.50111,-1.40335 c -0.0762,0.0829 -0.0998,0.1397 -0.12242,0.17569 -0.0314,0.049 0.008,0.0709 0.0434,0.0328 0.0353,-0.0385 0.06,-0.0762 0.16369,-0.0734 0.10372,0.002 0.35172,-0.007 0.25859,0.061 -0.0924,0.0681 -0.15487,0.10759 -0.15487,0.10759 -0.0603,0.043 -0.11359,0.12418 -0.007,0.079 0.10654,-0.0448 0.24694,-0.11572 0.35454,-0.27799 0.0314,-0.0469 0.0681,-0.11042 -0.078,-0.13194 -0.1457,-0.0219 -0.38171,-0.0561 -0.45791,0.0272 m 4.83094,1.81681 c -0.0385,0.0892 -0.19826,0.39581 -0.18027,0.76094 0.005,0.0843 0.0582,0.24941 0.18591,0.25541 0.0667,0.001 0.15275,-0.0455 0.21696,-0.25082 0.0109,-0.0462 0.018,-0.0833 0.0229,-0.1016 0.007,-0.0279 -0.0134,-0.061 -0.0363,0.002 -0.0501,0.12559 -0.17709,0.21166 -0.26846,0.0409 -0.0148,-0.0335 -0.0762,-0.18838 0.0459,-0.52141 0.024,-0.0649 0.0557,-0.16121 0.0557,-0.16121 0.0272,-0.073 -0.004,-0.1136 -0.0423,-0.0247 m 8.90093,0.14817 c -0.0314,0.0861 -0.0434,0.14323 -0.0402,0.17568 0.004,0.0332 0.0148,0.1397 0.0148,0.1397 -0.0321,0.0254 -0.16898,0.11042 -0.3055,0.0102 0.009,-0.0293 0.0268,-0.0889 0.031,-0.12171 0.0148,-0.0501 -0.0166,-0.0878 -0.0416,-0.0356 -0.0247,0.0522 -0.0825,0.22825 -0.12559,0.26776 -0.043,0.0392 -0.0938,0.1845 -0.41945,0.0367 -0.0575,-0.0215 -0.15734,-0.0956 -0.31291,0.061 -0.35243,0.32773 -0.5962,0.35313 -0.99166,0.49353 -0.0476,0.0222 -0.14817,0.0974 -0.0289,0.0857 0.11924,-0.0124 0.62054,2.6e-4 0.89288,-0.31327 0.0575,-0.055 0.12242,-0.20108 0.33902,-0.11606 0.11995,0.0455 0.34149,0.23565 0.5835,-0.14041 0.14252,0.0949 0.35877,0.0568 0.3937,-0.0476 0.0346,-0.10478 0.0741,-0.20885 0.0737,-0.27976 -2.7e-4,-0.0716 -0.007,-0.1651 -0.007,-0.1651 -0.005,-0.0564 -0.0247,-0.13652 -0.0561,-0.0508 m -11.23491,0.0924 c -0.14605,0.19862 -0.14676,0.45262 -0.15699,0.7366 -0.0236,-0.0586 -0.15804,-0.43462 -0.55351,-0.63853 -0.0289,-0.0148 -0.085,0.0173 -0.0871,0.1069 -0.002,0.0526 -0.012,0.17956 0.0257,0.21413 0.0378,0.0342 0.14888,0.10125 0.16722,0.11007 0.0187,0.01 0.0381,0.0102 0.043,-0.0116 0.004,-0.0219 0.0275,-0.073 0.0639,-0.0385 0.0307,0.0289 0.22754,0.18063 0.33796,0.51294 0.0191,0.0438 0.0603,0.0462 0.0677,-0.0169 0.0177,-0.15593 0.0205,-0.4258 0.0303,-0.508 0.0134,-0.11501 0.0603,-0.35383 0.20955,-0.23601 0.0339,0.0268 0.0706,0.0628 0.0706,0.0628 0.0318,0.0374 0.0723,0.0811 0.0896,0.0353 0.0261,-0.0688 0.0452,-0.18169 0.012,-0.2413 -0.0148,-0.0265 -0.20285,-0.24836 -0.31997,-0.0879 m -4.30318,0.58738 c -0.0681,0.0346 -0.91934,0.36442 -0.9899,0.40428 -0.0709,0.0392 -0.0956,0.049 -0.10936,0.1009 -0.0145,0.0512 -0.0219,0.0811 -0.0254,0.0896 -0.0145,0.0342 -0.0257,0.0765 0.078,0.0177 0.0324,-0.018 0.89676,-0.35419 0.95497,-0.3877 0.0586,-0.0332 0.0928,-0.0444 0.11888,-0.0977 0.0265,-0.0526 0.0328,-0.0617 0.0469,-0.0988 0.0155,-0.0395 0.0314,-0.0811 -0.0741,-0.0282"
       style="fill:#231f20;fill-opacity:1;fill-rule:evenodd;stroke:none;stroke-width:0.264583"
       id="path1" />
  </g>
</svg>
