<?xml version="1.0" encoding="UTF-8" standalone="no"?>
<!-- Created with Inkscape (http://www.inkscape.org/) -->

<svg
   width="23.229235mm"
   height="6.6729941mm"
   viewBox="0 0 23.229235 6.6729941"
   version="1.1"
   id="svg1"
   xmlns:inkscape="http://www.inkscape.org/namespaces/inkscape"
   xmlns:sodipodi="http://sodipodi.sourceforge.net/DTD/sodipodi-0.dtd"
   xmlns="http://www.w3.org/2000/svg"
   xmlns:svg="http://www.w3.org/2000/svg">
  <sodipodi:namedview
     id="namedview1"
     pagecolor="#ffffff"
     bordercolor="#666666"
     borderopacity="1.0"
     inkscape:showpageshadow="2"
     inkscape:pageopacity="0.0"
     inkscape:pagecheckerboard="0"
     inkscape:deskcolor="#d1d1d1"
     inkscape:document-units="mm" />
  <defs
     id="defs1" />
  <g
     inkscape:label="Layer 1"
     inkscape:groupmode="layer"
     id="layer1"
     transform="translate(-90.01961,-142.50331)">
    <path
       d="m 101.83837,142.53182 c -0.0734,0.0384 -2.653945,1.44745 -2.729087,1.48837 -0.07514,0.0409 -0.09737,0.0582 -0.108657,0.11359 -0.01198,0.055 -0.01765,0.0843 -0.02082,0.096 -0.01058,0.0378 -0.02574,0.0762 0.08361,0.0138 0.03387,-0.0194 2.634894,-1.42981 2.693804,-1.46897 0.0586,-0.0388 0.0942,-0.0533 0.11854,-0.11077 0.0236,-0.0572 0.03,-0.0674 0.0427,-0.10725 0.0138,-0.0427 0.0307,-0.0818 -0.0801,-0.0247 m 3.66642,0.7172 c -0.0702,0.10689 -0.12206,0.36265 -0.0222,0.43567 0.0998,0.0734 0.24623,0.13265 0.24623,0.13265 -0.46566,0.57079 -0.78422,0.6798 -1.05657,0.83926 -0.0705,0.0413 -0.0568,0.078 -0.0155,0.067 0.0212,-0.006 0.38771,-0.0628 0.81563,-0.38771 0.23177,-0.17603 0.37182,-0.4766 0.37182,-0.4766 0,0 0.11607,0.097 0.13159,0.11642 0.0353,0.0437 0.0543,0.0758 0.0713,0.03 0.0607,-0.16898 -0.0257,-0.27093 -0.1076,-0.32349 0,0 0.0854,-0.26318 -0.0716,-0.52705 -0.0261,-0.0445 -0.18239,-0.18592 -0.36301,0.0938 m 0.24377,0.0727 c 0.10442,0.0977 0.0885,0.25788 0.0847,0.29457 0,0 -0.13406,-0.0628 -0.19438,-0.0885 -0.0596,-0.0254 -0.091,-0.0635 -0.0635,-0.1016 0.0928,-0.12982 0.13793,-0.12559 0.17321,-0.10442 m 6.27874,0.0229 c -0.0702,0.10689 -0.12277,0.36265 -0.0229,0.43568 0.1009,0.0734 0.24695,0.13264 0.24695,0.13264 -0.46602,0.57079 -1.38042,0.97684 -1.59844,1.14688 -0.0646,0.0487 -0.0561,0.0776 -0.0152,0.0667 0.0363,-0.01 0.73342,-0.20462 1.37054,-0.75036 0.2921,-0.25012 0.28399,-0.26882 0.35842,-0.42122 0.0631,0.0328 0.10689,0.0857 0.13159,0.11642 0.0349,0.0437 0.054,0.0758 0.0706,0.03 0.0614,-0.16898 -0.0247,-0.27093 -0.10724,-0.32349 0,0 0.0857,-0.26318 -0.0716,-0.52705 -0.0265,-0.0445 -0.18167,-0.18556 -0.36265,0.0938 m 0.24306,0.0727 c 0.10513,0.0977 0.0889,0.25788 0.085,0.29457 0,0 -0.13405,-0.0628 -0.19403,-0.0885 -0.0596,-0.0254 -0.0914,-0.0635 -0.0635,-0.1016 0.0921,-0.12982 0.13794,-0.12559 0.17251,-0.10442 m -8.25782,-0.21943 c -0.0162,0.0385 -0.13723,0.33126 -0.13723,0.33126 0.003,0.0176 0.0363,0.14534 0.0427,0.19297 0.0561,0.42263 0.4071,2.91923 0.50764,3.7084 0.0498,0.38841 0.0879,0.73801 0.0938,0.92569 -0.005,0.0579 0.0208,0.0797 0.0476,0.024 0.0148,-0.03 0.0751,-0.15346 0.0935,-0.47731 0.0141,-0.24341 -0.006,-0.617 -0.0762,-1.13135 -0.0102,-0.0748 -0.37535,-2.68288 -0.37535,-2.68288 0,0 0.1972,0.18274 0.2286,0.2159 0.0321,0.0328 0.0702,0.0155 0.0526,-0.0378 -0.0183,-0.0533 -0.42227,-1.01635 -0.43532,-1.04951 -0.0127,-0.0335 -0.0258,-0.0579 -0.0423,-0.0194 m -1.09255,0 c -0.0162,0.0384 -0.1457,0.32032 -0.1457,0.32032 0.003,0.0229 0.0335,0.0924 0.055,0.2346 0.013,0.0871 0.5789,3.50661 0.5789,3.66501 0,0.0342 0.009,0.084 -0.0406,0.121 -0.0497,0.0374 -0.45684,0.23636 -0.84843,0.13088 -0.15804,-0.0427 -0.48471,-0.19579 -0.77681,-0.55033 -0.10619,-0.12877 -0.84279,-0.74295 -1.66935,-1.07562 -0.156273,-0.0628 -0.941909,-0.33867 -1.022696,-0.37289 -0.08079,-0.0342 -0.08678,-0.0529 -0.04339,-0.0963 0.04339,-0.0434 1.544816,-1.29822 2.733326,-1.74766 0.12594,-0.0423 0.47061,-0.10936 0.39088,0.0882 -0.1009,0.34431 -0.55845,1.01211 -0.61348,1.19274 -0.0212,0.0882 0.0339,0.0801 0.0755,0.0335 0.0423,-0.0462 0.65123,-0.94086 0.72284,-1.46156 0.0251,-0.19332 -0.0462,-0.39511 -0.34043,-0.29421 -0.29386,0.10089 -1.96603,0.87383 -2.973918,1.79775 -0.04198,0.0504 -0.09666,0.11783 -0.163687,0.24765 -0.01588,0.031 -0.03528,0.0759 -0.05221,0.127 -0.06773,-0.70838 -0.187677,-1.83268 -0.322085,-2.16817 -0.03739,-0.1009 -0.06244,-0.12912 -0.100894,-0.037 -0.03916,0.0921 -0.09066,0.30797 -0.09066,0.30797 0.02858,0.10407 0.124531,0.54399 0.170743,0.84208 0.04622,0.2981 0.272698,2.2726 0.302332,2.49132 0.02928,0.21837 0.12206,1.23084 0.5715,1.45344 0.113241,0.0586 0.4445,0.30516 1.348309,-0.28575 0.10901,-0.0713 0.41593,-0.2353 0.37818,-0.6678 -0.008,-0.14711 -0.042,-0.37818 -0.22295,-0.61772 0.0885,0.0251 0.5588,0.34431 0.75635,0.53799 0.19756,0.19297 0.66781,0.78951 1.3776,0.67627 0.2099,-0.0504 0.4833,-0.13476 0.57538,-0.50447 0.0339,-0.13441 0.0967,-0.29386 0.0504,-0.68862 -0.0335,-0.2353 -0.46426,-2.87408 -0.46426,-2.87408 0,0 0.19756,0.18274 0.22931,0.2159 0.0314,0.0328 0.0698,0.0152 0.0518,-0.0377 -0.018,-0.0536 -0.42156,-0.95109 -0.43462,-0.98425 -0.013,-0.0335 -0.0261,-0.0579 -0.0423,-0.0194 m -4.023428,2.8381 c 0.256469,0.0928 1.680278,0.8068 1.974138,1.41569 0.0212,0.0381 0.0589,0.0801 -0.004,0.13053 -0.0628,0.0504 -0.65899,0.55422 -1.12571,0.54575 -0.197204,-0.0124 -0.411339,-0.0501 -0.600429,-0.44486 -0.159808,-0.43285 -0.277635,-1.37795 -0.298096,-1.53317 -0.0032,-0.0204 -0.0081,-0.0744 -0.01553,-0.15345 0.01939,0.0162 0.04233,0.0296 0.06985,0.0395 m 11.585575,-2.78413 c -0.1831,0.23248 -0.19474,0.53869 -0.21908,0.87983 -0.0257,-0.0713 -0.1718,-0.52881 -0.63959,-0.79093 -0.0339,-0.019 -0.10301,0.0169 -0.10936,0.12489 -0.004,0.0628 -0.0219,0.21519 0.0222,0.25858 0.0441,0.043 0.17498,0.12771 0.19685,0.1397 0.0219,0.012 0.0452,0.0138 0.0519,-0.0127 0.007,-0.0257 0.0363,-0.0864 0.079,-0.0434 0.0356,0.0363 0.26599,0.22684 0.38558,0.63077 0.0208,0.0536 0.0702,0.0586 0.0815,-0.0173 0.0279,-0.18697 0.0427,-0.51153 0.0575,-0.6096 0.0212,-0.13793 0.0871,-0.42333 0.26247,-0.27517 0.0395,0.0339 0.0818,0.0783 0.0818,0.0783 0.037,0.0466 0.0836,0.10019 0.10654,0.0459 0.0342,-0.0815 0.0617,-0.21695 0.0243,-0.28998 -0.0169,-0.0325 -0.23354,-0.30692 -0.3817,-0.11889 m -1.80023,-0.0109 c -0.0674,0.0395 -1.78788,1.03222 -1.85737,1.07703 -0.0699,0.0448 -0.0945,0.0568 -0.10549,0.11042 -0.0109,0.054 -0.0169,0.0847 -0.0201,0.0935 -0.0124,0.036 -0.0215,0.0804 0.0811,0.0131 0.0321,-0.0205 1.76177,-1.02024 1.82245,-1.05834 0.0582,-0.0363 0.0921,-0.0519 0.11535,-0.1076 0.0233,-0.0554 0.0293,-0.0656 0.0416,-0.10442 0.0134,-0.0413 0.0265,-0.085 -0.0776,-0.0236 m -12.609684,0.17181 c -0.06738,0.096 -0.121002,0.32879 -0.03175,0.39793 0.08996,0.0699 0.22225,0.12771 0.22225,0.12771 -0.440971,0.51046 -1.048454,0.9853 -1.302102,1.1243 -0.06491,0.036 -0.05292,0.0702 -0.01516,0.061 0.01976,-0.005 0.352425,-0.11677 0.755296,-0.39899 0.339725,-0.23707 0.666398,-0.74472 0.666398,-0.74472 0,0 0.103716,0.0914 0.117827,0.10972 0.03105,0.0406 0.04762,0.0709 0.06385,0.0293 0.05997,-0.15311 -0.01622,-0.24836 -0.09031,-0.29881 0,0 0.08502,-0.23883 -0.05186,-0.48436 -0.02294,-0.0413 -0.161925,-0.17427 -0.334433,0.0769 m 0.221191,0.0727 c 0.09313,0.0921 0.07444,0.23812 0.07021,0.27164 0,0 -0.121357,-0.061 -0.175683,-0.0857 -0.05397,-0.0254 -0.08185,-0.0607 -0.05574,-0.0949 0.08784,-0.11642 0.129468,-0.11113 0.161218,-0.091 m 4.371622,1.33738 c -0.0324,0.0928 -0.17286,0.41345 -0.13088,0.7814 0.01,0.085 0.0741,0.24871 0.2025,0.24695 0.0667,-0.004 0.15028,-0.0557 0.20073,-0.26741 0.008,-0.048 0.0134,-0.0861 0.0169,-0.10477 0.005,-0.0286 -0.0173,-0.061 -0.0356,0.005 -0.0423,0.13053 -0.16439,0.22578 -0.2674,0.0589 -0.0173,-0.0332 -0.0885,-0.18556 0.0124,-0.53093 0.0204,-0.067 0.0455,-0.16687 0.0455,-0.16687 0.0226,-0.0755 -0.0106,-0.1143 -0.0441,-0.0219 m 1.69192,0.79128 c -0.14781,0.21343 -0.14146,0.4819 -0.14463,0.78176 -0.0268,-0.061 -0.17886,-0.45403 -0.60184,-0.65829 -0.0307,-0.0152 -0.0893,0.0201 -0.0893,0.11466 0,0.0554 -0.008,0.18979 0.0332,0.22507 0.0413,0.0356 0.15981,0.10301 0.17992,0.11218 0.0194,0.01 0.0406,0.01 0.0448,-0.0138 0.004,-0.0233 0.0272,-0.0776 0.0667,-0.042 0.0332,0.0296 0.24448,0.18415 0.37077,0.53164 0.0208,0.0455 0.0649,0.0476 0.0709,-0.0198 0.0141,-0.16475 0.0102,-0.4498 0.0176,-0.53658 0.0113,-0.12206 0.054,-0.375 0.2152,-0.25471 0.0363,0.0275 0.0755,0.0639 0.0755,0.0639 0.0353,0.0392 0.0787,0.0836 0.096,0.0349 0.0258,-0.0734 0.043,-0.19297 0.006,-0.25506 -0.0162,-0.0275 -0.22084,-0.25647 -0.34079,-0.084 m -4.746621,-2.23026 c -0.03034,0.0748 -0.158399,0.33267 -0.138997,0.63641 0.0049,0.0702 0.05151,0.20708 0.156988,0.21061 0.05468,0 0.125235,-0.0399 0.175684,-0.21167 0.0085,-0.0388 0.0141,-0.0699 0.01765,-0.085 0.0053,-0.0236 -0.01164,-0.0508 -0.02963,0.002 -0.03986,0.10548 -0.143933,0.17886 -0.221544,0.0377 -0.0127,-0.0279 -0.06526,-0.15557 0.03104,-0.43533 0.01939,-0.0547 0.0441,-0.13547 0.0441,-0.13547 0.02151,-0.0607 -0.0042,-0.0945 -0.03528,-0.0194 m -3.058938,0.16545 c -0.148166,0.21343 -0.141816,0.4819 -0.145343,0.78176 -0.02646,-0.0614 -0.178507,-0.45367 -0.601485,-0.65829 -0.03069,-0.0148 -0.08925,0.0205 -0.08925,0.11501 0,0.055 -0.0078,0.18944 0.03351,0.22472 0.04057,0.0356 0.159456,0.10301 0.17921,0.11218 0.01976,0.01 0.04092,0.01 0.04516,-0.0138 0.0042,-0.0229 0.02681,-0.0776 0.06667,-0.042 0.03316,0.03 0.244475,0.18451 0.370769,0.53129 0.02082,0.0459 0.06491,0.048 0.07091,-0.019 0.0141,-0.1651 0.0099,-0.45015 0.01765,-0.53693 0.0113,-0.12171 0.05397,-0.375 0.214842,-0.25471 0.03669,0.0272 0.07585,0.0639 0.07585,0.0639 0.03528,0.0392 0.07902,0.0836 0.09595,0.0349 0.02574,-0.0734 0.04269,-0.19297 0.006,-0.25506 -0.01622,-0.0275 -0.22084,-0.25647 -0.340432,-0.084 m -3.85586,0.13547 c -0.04269,0.0871 -0.219075,0.387 -0.206023,0.74789 0.0032,0.0836 0.05856,0.24765 0.19544,0.25647 0.07126,0.002 0.164748,-0.0416 0.236714,-0.24307 0.0127,-0.0455 0.02117,-0.0822 0.02646,-0.10019 0.0081,-0.0272 -0.01304,-0.0607 -0.0381,0.002 -0.05645,0.12276 -0.194382,0.20531 -0.289984,0.0349 -0.01553,-0.0335 -0.07867,-0.18768 0.05785,-0.51505 0.02752,-0.0632 0.06244,-0.15805 0.06244,-0.15805 0.03069,-0.0713 -0.0013,-0.11183 -0.0448,-0.0247 m 2.439458,0.2607 c -0.05292,0.0328 -2.285293,1.13877 -2.436635,1.26118 -0.07585,0.0614 -0.138996,0.1591 -0.161221,0.26494 -0.03175,0.15275 0.0063,0.30444 0.106188,0.32032 0.0695,0.0113 0.10936,0.0515 0.127,0.0751 0.0078,0.01 0.01871,0.003 0.02223,-0.004 0.07867,-0.15628 0.0074,-0.254 -0.127355,-0.29281 -0.05327,-0.0152 -0.07761,-0.0893 0.120298,-0.2166 0.18274,-0.11712 2.238727,-1.14935 2.278944,-1.17757 0.05468,-0.0381 0.08784,-0.0526 0.109008,-0.1076 0.02117,-0.0547 0.02646,-0.0642 0.0374,-0.10231 0.01199,-0.0402 0.024,-0.0832 -0.07585,-0.0208 m 4.01955,0.44132 -0.195085,0.26741 c -0.006,0.008 -0.0046,0.0201 0.0035,0.0261 l 0.332669,0.24271 c 0.0081,0.006 0.01976,0.004 0.02611,-0.005 l 0.194733,-0.26741 c 0.0064,-0.008 0.0049,-0.0201 -0.0032,-0.0261 l -0.332668,-0.24271 c -0.0081,-0.006 -0.01976,-0.004 -0.02611,0.005 m 11.857566,0.2092 c -0.0346,0.0843 -0.17851,0.37465 -0.15664,0.71684 0.005,0.0794 0.0575,0.23354 0.17675,0.23777 0.0617,-2.6e-4 0.14111,-0.0451 0.1979,-0.23847 0.01,-0.0441 0.0159,-0.079 0.0201,-0.0963 0.006,-0.0261 -0.0134,-0.0572 -0.0335,0.003 -0.0448,0.11853 -0.16193,0.20144 -0.24977,0.0427 -0.0141,-0.0318 -0.0734,-0.17604 0.0353,-0.49142 0.0219,-0.0607 0.0494,-0.15205 0.0494,-0.15205 0.0247,-0.0688 -0.005,-0.10619 -0.0395,-0.0219 m 3.30729,0.17286 c -0.0318,0.0783 -0.1651,0.34713 -0.14499,0.66428 0.005,0.0734 0.0533,0.2159 0.16404,0.21978 0.0568,-2.6e-4 0.13053,-0.0416 0.18274,-0.22084 0.01,-0.0406 0.0148,-0.073 0.0187,-0.0889 0.006,-0.0243 -0.0123,-0.0529 -0.031,0.002 -0.0416,0.10971 -0.14993,0.18662 -0.23107,0.0395 -0.0131,-0.0296 -0.0684,-0.16298 0.0324,-0.45473 0.0201,-0.0564 0.0462,-0.14076 0.0462,-0.14076 0.0226,-0.0642 -0.005,-0.0988 -0.037,-0.0208 m -6.20642,0.008 -0.16828,0.23071 -0.32279,-0.2353 c -0.008,-0.006 -0.0198,-0.004 -0.0261,0.005 l -0.19508,0.2674 c -0.006,0.009 -0.004,0.0201 0.004,0.0261 l 0.33266,0.24271 c 0.008,0.006 0.0198,0.004 0.0261,-0.005 l 0.16827,-0.23072 0.32279,0.23565 c 0.008,0.006 0.0198,0.004 0.0261,-0.005 l 0.19473,-0.26741 c 0.006,-0.008 0.005,-0.0201 -0.003,-0.0257 l -0.33302,-0.24272 c -0.008,-0.006 -0.0194,-0.004 -0.0257,0.005 m -13.136023,0.12912 c -0.01199,0.0268 -0.08326,0.28857 -0.08749,0.31221 -0.0046,0.024 0.06279,0.25964 0.104775,0.36653 0.110419,0.30621 0.33796,0.73237 0.373944,0.80257 0.03563,0.0702 0.09878,0.1845 0.02257,0.29281 -0.07655,0.1083 -0.702381,0.7627 -1.766006,1.0615 -0.167569,0.0473 -0.872419,0.21343 -1.26506,-0.31891 -0.06456,-0.0875 -0.364773,-0.52528 -0.06526,-1.36983 0.02998,-0.0674 -0.01058,-0.14076 -0.07937,-0.0155 -0.06914,0.12524 -0.649465,1.77201 0.584552,2.13396 0.270581,0.0794 0.980723,0.22895 2.249313,-0.75883 0.121002,-0.0942 0.712258,-0.48295 0.53975,-1.0989 -0.02011,-0.0864 -0.375357,-0.8763 -0.375357,-0.8763 0.08079,0.0321 0.132644,0.0462 0.161573,0.0586 0.02858,0.012 0.07655,-0.0183 0.03069,-0.078 -0.04551,-0.0593 -0.348192,-0.41662 -0.356658,-0.44026 -0.0088,-0.0236 -0.02222,-0.0416 -0.03069,-0.073 -0.0088,-0.0314 -0.02928,-0.0257 -0.04127,0.001 m 14.439547,0.28716 c -0.0134,0.0452 -0.0455,0.23953 -0.0536,0.27975 -0.008,0.0399 -0.007,0.0797 0.0124,0.11395 0.0198,0.0342 0.0709,0.15275 0.10724,0.24906 0.0363,0.0963 0.41417,0.82409 0.44944,0.88864 0.0346,0.0646 0.042,0.11254 0.007,0.15523 -1.21285,1.27952 -3.55283,2.06657 -3.62797,2.10996 -0.0748,0.0434 -0.0547,0.0773 0.0709,0.0554 0.18838,-0.0335 1.23966,-0.2092 1.53917,-0.35349 0.19791,-0.0952 0.88794,-0.43391 1.45238,-0.87665 -0.0152,0.1143 -0.03,0.28257 -0.0219,0.49565 0.0378,1.02906 0.95815,0.85831 1.19945,0.8054 0.7239,-0.15911 1.60866,-1.15923 1.68416,-1.36032 0.0741,-0.19861 0.0847,-0.37958 0.0681,-0.53763 0.1905,-0.10336 0.60008,-0.43321 0.60008,-0.43321 0.0166,0.43886 0.36583,0.57044 0.47343,0.58949 0.50376,0.0765 0.756,-0.34431 0.86289,-0.48083 0.0917,0.24059 0.31221,0.28716 0.42545,0.30973 0.43497,0.0864 0.51929,-0.22083 0.54222,-0.29068 0.13547,-0.42404 -0.10936,-0.73978 -0.14111,-0.7747 -0.0318,-0.0349 -0.048,-0.001 -0.0589,0.0392 -0.0109,0.0406 -0.0462,0.19368 -0.0677,0.28893 0,0 0.0907,0.14781 0.12241,0.22331 0.0328,0.0755 -0.0148,0.11641 -0.109,0.12841 -0.26388,0.0321 -0.47484,-0.11959 -0.54751,-0.18944 -0.0727,-0.0699 0.006,-0.19333 0.0646,-0.34079 0.0473,-0.11818 -0.0402,-0.13229 -0.10654,-2.6e-4 -0.22436,0.58878 -0.53869,0.65228 -0.62159,0.67486 -0.74612,0.2032 -0.68157,-0.47907 -0.6791,-0.59055 0.002,-0.11183 -0.0794,-0.0705 -0.17145,0.004 -0.31362,0.25188 -0.56656,0.39969 -0.70273,0.46037 -0.11677,-0.22895 -0.28716,-0.37253 -0.35913,-0.42439 -0.80715,-0.58914 -0.87347,0.59902 -0.84913,0.72672 0.12276,0.50483 0.94791,0.19897 1.07703,0.18345 0.12911,-0.0152 0.0871,0.15557 0.0148,0.25717 -0.17956,0.25012 -0.38593,0.42969 -0.57291,0.58244 -0.79975,0.65228 -1.20121,0.60078 -1.32468,0.5969 -0.78563,-0.0222 -0.71332,-0.86854 -0.66957,-1.04952 0.23601,-0.20002 0.43921,-0.41804 0.55704,-0.6417 0.048,-0.12241 0.13088,-0.40146 -0.0183,-0.75141 -0.079,-0.15417 -0.32632,-0.58632 -0.32632,-0.58632 0,0 0.18203,0.006 0.19967,0.005 0.0169,-2.6e-4 0.0515,-0.0183 0.007,-0.0691 -0.0444,-0.0512 -0.42757,-0.43357 -0.45085,-0.46426 -0.0233,-0.0307 -0.0445,-0.0529 -0.0572,-0.007 m 2.42217,1.75225 c 0,0 -0.11006,0.0635 -0.41769,0.0427 -0.25752,-0.0173 -0.23565,-0.11783 -0.20002,-0.15593 0.0381,-0.0416 0.35383,-0.2406 0.61771,0.11324 m -12.653428,-1.60972 c -0.10019,0.0695 -0.351719,0.29492 -0.332317,0.6477 0.0056,0.10442 0.05362,0.34395 0.409223,0.33266 0.0956,-0.003 0.334785,-0.0596 0.44097,-0.0303 0.101249,0.0279 0.4318,0.14218 0.25753,0.34044 -0.174273,0.19826 -0.760238,0.49389 -1.423458,0.69638 -0.187325,0.0572 -0.641705,0.26882 -0.991307,0.72108 -0.189441,0.24518 -0.497065,0.66428 -0.756708,0.7627 -0.229307,0.0864 -0.680508,0.0448 -0.60819,-0.508 0.02188,-0.17074 0.06844,-0.40287 0.09525,-0.53622 0.29704,-0.22084 0.58279,-0.46602 0.764471,-0.70062 0.06562,-0.085 0.306211,-0.39052 0.142521,-0.95214 -0.258937,-0.88936 -0.753885,-0.7299 -0.896054,-0.62477 -0.09772,0.0727 -0.324908,0.3055 -0.310798,0.65828 0.0141,0.10372 0.06491,0.34184 0.420158,0.31926 0.09525,-0.006 0.330552,-0.0586 0.43956,-0.0448 0.109363,0.0141 0.29704,0.0476 0.224367,0.16263 -0.505529,0.8763 -3.231443,2.25813 -3.231443,2.25813 -0.06562,0.0356 -0.135115,0.0825 -0.12559,0.11078 0.0092,0.0279 0.02822,0.0264 0.08043,0.0113 0.05257,-0.0152 1.24954,-0.40357 1.311275,-0.4392 0.03704,-0.0212 0.53693,-0.29775 1.044223,-0.65935 -0.0822,0.29458 -0.251531,0.98778 0.235302,1.23896 0.158046,0.0811 0.715788,0.24307 1.14159,-0.48048 0.179917,-0.30621 0.726723,-0.80469 0.972608,-0.889 0.24624,-0.084 1.267532,-0.4385 1.4478,-0.67275 0.580319,-0.75424 -0.08996,-1.56774 -0.132643,-1.61819 -0.231775,-0.27235 -0.516115,-0.17533 -0.618773,-0.10442 m 0.526698,0.55668 c 0,0 -0.282223,0.0811 -0.582438,0.008 -0.118885,-0.0392 0.01833,-0.17356 0.112183,-0.19614 0.05997,-0.0141 0.255058,-0.048 0.470255,0.18803 m -2.879725,0.13159 c 0,0 -0.279755,0.0899 -0.582084,0.0272 -0.119946,-0.0356 0.0127,-0.17427 0.105834,-0.19967 0.05962,-0.0162 0.253645,-0.0564 0.47625,0.17251 m 1.28552,-0.55845 c -0.04268,0.0871 -0.219427,0.387 -0.206375,0.74789 0.0032,0.0836 0.05821,0.24765 0.19544,0.25647 0.07126,0.002 0.164748,-0.0416 0.236715,-0.24307 0.01304,-0.0459 0.02151,-0.0825 0.02646,-0.10019 0.0081,-0.0275 -0.01304,-0.0607 -0.03845,0.001 -0.05609,0.12312 -0.194378,0.20567 -0.289983,0.0353 -0.01516,-0.0339 -0.07832,-0.18768 0.05786,-0.51506 0.02787,-0.0635 0.06315,-0.15804 0.06315,-0.15804 0.03069,-0.0716 -0.0021,-0.11183 -0.0448,-0.0247 m 10.404131,0.055 c -0.0533,0.0663 -0.58949,0.77012 -0.58949,0.77012 l -0.38983,-0.27834 c 0,0 0.15875,-0.0395 0.18627,-0.0476 0.0279,-0.008 0.0438,-0.0441 -0.006,-0.0699 -0.0501,-0.0254 -0.52034,-0.21307 -0.55597,-0.22754 -0.036,-0.0145 -0.049,-0.031 -0.0522,0.007 -0.003,0.0381 -0.008,0.34748 -0.008,0.34748 0,0 -0.007,0.0215 0.0335,0.0452 0.0413,0.0233 0.0815,0.073 0.115,0.10689 0.0339,0.0335 0.47096,0.37853 0.49248,0.39053 0,0 -0.21907,0.38452 -0.24694,0.68545 -0.0279,0.30091 0.006,0.71613 0.41698,0.58243 0.11077,-0.0317 0.5715,-0.21484 0.67451,-0.53622 0.0332,-0.11818 0.12771,-0.33196 -0.0265,-0.54892 -0.0889,-0.127 -0.44873,-0.34255 -0.44873,-0.34255 0,0 0.27587,-0.38171 0.30233,-0.42863 0.0265,-0.0466 0.12841,-0.34254 0.13935,-0.41451 0.0113,-0.0716 0.0166,-0.10724 -0.0367,-0.0413 m -0.0942,1.62278 c -0.15276,0.12595 -0.47378,0.2921 -0.56409,0.30057 -0.0903,0.009 -0.32985,-0.0353 -0.22543,-0.28046 0.0353,-0.0797 0.27481,-0.48895 0.27481,-0.48895 0.0896,0.049 0.66746,0.34325 0.51471,0.46884 m -15.293631,-0.94826 c -0.03916,0.0892 -0.202142,0.39652 -0.17286,0.75671 0.0067,0.0832 0.06879,0.24482 0.206375,0.24765 0.07126,-0.001 0.162631,-0.049 0.225777,-0.25365 0.01058,-0.0459 0.01728,-0.0829 0.02223,-0.1009 0.0063,-0.0275 -0.01622,-0.0603 -0.03845,0.003 -0.0508,0.12523 -0.185209,0.21378 -0.287867,0.0476 -0.01728,-0.0328 -0.08714,-0.18415 0.03493,-0.51682 0.02469,-0.0646 0.05574,-0.16086 0.05574,-0.16086 0.02716,-0.0727 -0.0071,-0.11183 -0.04586,-0.0229 m 0.599017,-0.0162 -0.195437,0.26705 c -0.006,0.009 -0.0042,0.0205 0.0035,0.0265 l 0.332669,0.24271 c 0.0081,0.006 0.01976,0.004 0.02574,-0.005 l 0.195437,-0.26705 c 0.006,-0.008 0.0049,-0.0205 -0.0032,-0.0261 l -0.333375,-0.24271 c -0.0078,-0.006 -0.01939,-0.004 -0.0254,0.005 m 20.925015,1.52647 c -0.031,0.0864 -0.0427,0.14323 -0.0399,0.17568 0.004,0.0332 0.0152,0.1397 0.0152,0.1397 -0.0324,0.0257 -0.16933,0.11078 -0.30621,0.0102 0.01,-0.0289 0.0272,-0.0885 0.031,-0.12135 0.0145,-0.0505 -0.0166,-0.0882 -0.0413,-0.0356 -0.0251,0.0522 -0.0829,0.22825 -0.12594,0.26741 -0.043,0.0392 -0.0935,0.18485 -0.4198,0.037 -0.0568,-0.0219 -0.15664,-0.096 -0.31221,0.0607 -0.35278,0.32774 -0.5962,0.35314 -0.99166,0.49389 -0.0476,0.0219 -0.14817,0.097 -0.0289,0.0854 0.11924,-0.012 0.62054,2.7e-4 0.89288,-0.31291 0.0568,-0.055 0.12242,-0.20144 0.33902,-0.11641 0.11995,0.0455 0.34149,0.23565 0.5835,-0.14041 0.14252,0.0949 0.35912,0.0571 0.39334,-0.048 0.0346,-0.10407 0.0744,-0.20849 0.0741,-0.2794 -7.9e-4,-0.0713 -0.007,-0.1651 -0.007,-0.1651 -0.005,-0.0561 -0.0247,-0.13652 -0.0564,-0.0508 m -8.72279,0.0628 c -0.0339,0.0832 -0.17674,0.37041 -0.15487,0.70873 0.005,0.078 0.0571,0.23071 0.17498,0.23459 0.061,-2.6e-4 0.1397,-0.0445 0.19544,-0.23565 0.01,-0.0434 0.0155,-0.078 0.0194,-0.0949 0.006,-0.0261 -0.013,-0.0564 -0.0324,0.003 -0.0448,0.11677 -0.16016,0.19897 -0.2473,0.0416 -0.0138,-0.031 -0.0723,-0.17322 0.0353,-0.48507 0.0212,-0.0603 0.0487,-0.15028 0.0487,-0.15028 0.0243,-0.0681 -0.005,-0.10513 -0.0392,-0.0219 m -2.38583,0.21025 c -0.0339,0.0829 -0.17604,0.37006 -0.15487,0.70838 0.005,0.0783 0.0571,0.23072 0.17498,0.2346 0.0607,-2.7e-4 0.1397,-0.0444 0.19543,-0.23566 0.01,-0.0434 0.0155,-0.078 0.0198,-0.0949 0.006,-0.0257 -0.0134,-0.0564 -0.0332,0.003 -0.0444,0.11713 -0.15981,0.19897 -0.24695,0.0416 -0.0138,-0.031 -0.0723,-0.17321 0.0349,-0.48472 0.0215,-0.0603 0.049,-0.15028 0.049,-0.15028 0.024,-0.0681 -0.005,-0.10548 -0.0392,-0.0219 m -3.203224,0.007 c -0.0702,0.0349 -1.608667,0.63748 -1.680986,0.67804 -0.07232,0.0402 -0.09772,0.0501 -0.112538,0.10301 -0.01447,0.0529 -0.02188,0.0836 -0.02574,0.0921 -0.01482,0.0349 -0.02646,0.0787 0.08008,0.0183 0.03351,-0.0187 1.585735,-0.62688 1.645354,-0.66145 0.05962,-0.0339 0.0949,-0.0455 0.121708,-0.0998 0.02681,-0.0543 0.03316,-0.0635 0.04798,-0.1016 0.01587,-0.0406 0.0321,-0.0833 -0.07585,-0.0286"
       style="fill:#231f20;fill-opacity:1;fill-rule:evenodd;stroke:none;stroke-width:0.264583"
       id="path1" />
  </g>
</svg>
