<?xml version="1.0" encoding="UTF-8" standalone="no"?>
<!-- Created with Inkscape (http://www.inkscape.org/) -->

<svg
   width="15.717451mm"
   height="6.4669504mm"
   viewBox="0 0 15.717451 6.4669504"
   version="1.1"
   id="svg1"
   xmlns:inkscape="http://www.inkscape.org/namespaces/inkscape"
   xmlns:sodipodi="http://sodipodi.sourceforge.net/DTD/sodipodi-0.dtd"
   xmlns="http://www.w3.org/2000/svg"
   xmlns:svg="http://www.w3.org/2000/svg">
  <sodipodi:namedview
     id="namedview1"
     pagecolor="#ffffff"
     bordercolor="#666666"
     borderopacity="1.0"
     inkscape:showpageshadow="2"
     inkscape:pageopacity="0.0"
     inkscape:pagecheckerboard="0"
     inkscape:deskcolor="#d1d1d1"
     inkscape:document-units="mm" />
  <defs
     id="defs1" />
  <g
     inkscape:label="Layer 1"
     inkscape:groupmode="layer"
     id="layer1"
     transform="translate(-136.37171,-64.684485)">
    <path
       d="m 141.9679,64.889484 c -0.0773,0.127 -0.1277,0.426509 -0.009,0.507294 0.11924,0.08149 0.29139,0.14464 0.29139,0.14464 -0.51893,0.681918 -1.25306,1.331029 -1.56351,1.527527 -0.0797,0.05045 -0.0621,0.09243 -0.0148,0.07832 0.0243,-0.0074 0.43744,-0.175683 0.9271,-0.564798 0.41204,-0.327025 0.7874,-0.996243 0.7874,-0.996243 0,0 0.13829,0.108302 0.15734,0.130175 0.0423,0.04939 0.066,0.08608 0.0836,0.03175 0.0642,-0.198612 -0.0399,-0.313619 -0.13759,-0.371475 0,0 0.0893,-0.309386 -0.10371,-0.610304 -0.0325,-0.0501 -0.21908,-0.208492 -0.4184,0.123118 m 0.2861,0.07549 c 0.12559,0.109008 0.1136,0.296333 0.11007,0.338667 0,0 -0.15805,-0.06773 -0.22895,-0.0949 -0.0706,-0.02752 -0.10866,-0.07056 -0.078,-0.116065 0.10231,-0.154516 0.15522,-0.150989 0.19685,-0.127706 m -2.21756,-0.194733 c -0.19156,0.220133 -0.21731,0.5207 -0.25788,0.854781 -0.0222,-0.07126 -0.14358,-0.528108 -0.5909,-0.808918 -0.0325,-0.02011 -0.10195,0.01236 -0.1136,0.117475 -0.007,0.06173 -0.0318,0.21096 0.01,0.25541 0.0395,0.04304 0.34502,0.167568 0.16757,0.337608 -0.0794,0.07585 -0.4766,0.450496 -0.56268,0.541512 -0.0864,0.09067 -0.0945,0.107598 -0.005,0.0635 0.0896,-0.04409 0.6029,-0.215193 0.71085,-0.710493 0.01,-0.06526 -7.9e-4,-0.115004 -0.0145,-0.148871 0.007,0.0024 0.0141,0.0067 0.0219,0.01553 0.0332,0.03704 0.25047,0.235657 0.34854,0.638882 0.018,0.05362 0.0663,0.06103 0.0815,-0.01341 0.0363,-0.182033 0.0667,-0.500591 0.0857,-0.596545 0.0275,-0.134763 0.10618,-0.412398 0.27128,-0.258233 0.0374,0.03493 0.0769,0.08078 0.0769,0.08078 0.0342,0.04798 0.0776,0.102658 0.10266,0.05045 0.0377,-0.07832 0.0713,-0.210257 0.0377,-0.283988 -0.0148,-0.03281 -0.21485,-0.313267 -0.36972,-0.135467 m 4.31024,0.251532 c -0.0702,0.10654 -0.12241,0.362656 -0.0222,0.435327 0.0998,0.07338 0.24624,0.132646 0.24624,0.132646 -0.46567,0.570793 -0.78458,0.680154 -1.05693,0.83961 -0.0702,0.04092 -0.0561,0.07796 -0.0152,0.06703 0.0212,-0.0056 0.38771,-0.06279 0.81598,-0.388056 0.23142,-0.175684 0.37147,-0.475896 0.37147,-0.475896 0,0 0.11607,0.09666 0.13159,0.116062 0.0353,0.04375 0.0543,0.07585 0.0706,0.02963 0.0614,-0.168979 -0.0251,-0.270579 -0.10724,-0.323144 0,0 0.0857,-0.263525 -0.0716,-0.527402 -0.0261,-0.0441 -0.18204,-0.18556 -0.36266,0.09419 m 0.24342,0.07232 c 0.10512,0.09772 0.0892,0.257882 0.085,0.294572 0,0 -0.13406,-0.06244 -0.19438,-0.0882 -0.0596,-0.0254 -0.091,-0.06385 -0.0635,-0.1016 0.0924,-0.130175 0.13758,-0.125587 0.17286,-0.104775 m 6.27873,0.02328 c -0.0702,0.106539 -0.12241,0.362656 -0.0222,0.435681 0.10019,0.07338 0.24659,0.132292 0.24659,0.132292 -0.46602,0.571145 -1.38077,0.977193 -1.59843,1.146879 -0.0649,0.04904 -0.0561,0.07796 -0.0152,0.06703 0.0363,-0.0099 0.73342,-0.204965 1.37054,-0.750358 0.29174,-0.250473 0.28398,-0.269523 0.35807,-0.421217 0.0635,0.03316 0.10724,0.08572 0.13194,0.116417 0.0349,0.04339 0.054,0.07585 0.0705,0.02998 0.061,-0.168981 -0.0251,-0.271285 -0.1076,-0.323495 0,0 0.0857,-0.263174 -0.0713,-0.527405 -0.0265,-0.04409 -0.18203,-0.18556 -0.36301,0.09419 m 0.24342,0.07267 c 0.10513,0.09772 0.0889,0.257881 0.085,0.294568 0,0 -0.13406,-0.06279 -0.19403,-0.08854 -0.06,-0.02574 -0.0914,-0.0635 -0.0639,-0.101955 0.0924,-0.12982 0.13793,-0.125235 0.17286,-0.104068 m -1.78823,-0.165452 c -0.18345,0.232833 -0.19509,0.538692 -0.21943,0.879827 -0.0257,-0.07161 -0.1718,-0.529167 -0.63958,-0.790927 -0.0339,-0.01939 -0.10266,0.01693 -0.10901,0.124883 -0.004,0.06279 -0.0219,0.214842 0.0222,0.258234 0.0441,0.04304 0.17463,0.127703 0.1965,0.140051 0.0222,0.01199 0.0455,0.01342 0.0522,-0.0127 0.007,-0.02611 0.0363,-0.08643 0.079,-0.04339 0.0356,0.03598 0.26565,0.226835 0.38524,0.630766 0.0208,0.05327 0.0705,0.05856 0.0822,-0.01728 0.0275,-0.186618 0.0423,-0.511527 0.0572,-0.609952 0.0208,-0.137935 0.0868,-0.422979 0.26247,-0.275166 0.0395,0.03387 0.0815,0.07832 0.0815,0.07832 0.0374,0.04657 0.084,0.10019 0.10654,0.04586 0.0346,-0.08149 0.0624,-0.216606 0.0247,-0.289631 -0.0169,-0.03281 -0.2339,-0.307269 -0.38171,-0.118886 m -1.80058,-0.0113 c -0.0674,0.03951 -1.78752,1.032579 -1.85702,1.077735 -0.0699,0.0448 -0.0945,0.05609 -0.10548,0.109715 -0.0116,0.05362 -0.0169,0.08467 -0.0201,0.09349 -0.0123,0.03598 -0.0215,0.08043 0.0811,0.01341 0.0321,-0.02082 1.76213,-1.020585 1.82245,-1.058333 0.0582,-0.03633 0.0921,-0.05186 0.11536,-0.10795 0.0233,-0.05539 0.0293,-0.06526 0.0416,-0.104069 0.0134,-0.04127 0.0268,-0.08467 -0.078,-0.024 m -10.1734,0.06103 c -0.0466,0.1143 -0.24236,0.508704 -0.21237,0.973312 0.007,0.106892 0.078,0.316442 0.23953,0.321734 0.0836,0 0.19191,-0.06103 0.26847,-0.323498 0.0134,-0.05927 0.0215,-0.106892 0.0272,-0.130175 0.008,-0.03563 -0.018,-0.07796 -0.0452,0.0035 -0.0614,0.160867 -0.22013,0.273754 -0.33901,0.0575 -0.0194,-0.04268 -0.0995,-0.237773 0.048,-0.665337 0.0296,-0.08326 0.067,-0.206729 0.067,-0.206729 0.0332,-0.09349 -0.007,-0.144637 -0.0536,-0.03034 m 10.50396,1.293987 c -0.0346,0.08431 -0.17886,0.37465 -0.15664,0.717198 0.005,0.07937 0.0575,0.233537 0.17675,0.237418 0.0617,0 0.14146,-0.0448 0.1979,-0.238125 0.01,-0.0441 0.0159,-0.07937 0.0198,-0.09631 0.006,-0.02611 -0.013,-0.05715 -0.0332,0.0028 -0.0452,0.118533 -0.16193,0.201435 -0.24977,0.04233 -0.0145,-0.03175 -0.0737,-0.176037 0.0353,-0.490714 0.0219,-0.06138 0.0494,-0.152048 0.0494,-0.152048 0.0243,-0.06914 -0.005,-0.106892 -0.0395,-0.02257 m -8.07755,0.159808 c -0.0409,0.10019 -0.21238,0.44591 -0.18662,0.853017 0.006,0.09384 0.0688,0.276931 0.21025,0.282223 0.0734,-2.65e-4 0.16828,-0.05327 0.2353,-0.283988 0.012,-0.05186 0.019,-0.09349 0.024,-0.113946 0.007,-0.03105 -0.0159,-0.06809 -0.0395,0.0032 -0.0536,0.141111 -0.19297,0.239536 -0.29739,0.05045 -0.0169,-0.03739 -0.0871,-0.208844 0.042,-0.583494 0.0261,-0.07232 0.0589,-0.180623 0.0589,-0.180623 0.0289,-0.08219 -0.006,-0.127 -0.0469,-0.02681 m 11.3852,0.01341 c -0.0321,0.07796 -0.16545,0.347134 -0.14534,0.664279 0.005,0.07303 0.0533,0.2159 0.16368,0.21943 0.0571,0 0.13053,-0.04127 0.1831,-0.22084 0.009,-0.04057 0.0148,-0.07303 0.0187,-0.0889 0.006,-0.024 -0.0123,-0.05292 -0.0307,0.0024 -0.042,0.110067 -0.15028,0.186973 -0.23178,0.03951 -0.013,-0.02928 -0.0677,-0.162631 0.0328,-0.45438 0.0201,-0.05644 0.0459,-0.140758 0.0459,-0.140758 0.0226,-0.06385 -0.005,-0.09878 -0.0363,-0.02082 m -6.20678,0.0085 -0.16827,0.230717 -0.32314,-0.235657 c -0.008,-0.0056 -0.0194,-0.0039 -0.0258,0.0049 l -0.19508,0.267404 c -0.006,0.0085 -0.005,0.02011 0.004,0.02574 l 0.33266,0.24271 c 0.008,0.006 0.0198,0.0039 0.0261,-0.0046 l 0.16792,-0.231072 0.32315,0.235657 c 0.008,0.006 0.0198,0.0039 0.0257,-0.0046 l 0.19508,-0.267759 c 0.006,-0.0081 0.005,-0.01976 -0.004,-0.02574 l -0.33267,-0.24271 c -0.008,-0.0056 -0.0198,-0.0039 -0.0258,0.0049 m 1.30317,0.415925 c -0.0131,0.04551 -0.0455,0.239887 -0.0533,0.279752 -0.008,0.03986 -0.007,0.08008 0.0124,0.113948 0.0198,0.03422 0.0706,0.152752 0.10724,0.24906 0.0363,0.09631 0.41417,0.824442 0.44909,0.889 0.0349,0.06421 0.0423,0.112535 0.007,0.154869 -1.21285,1.279879 -3.55318,2.066573 -3.62797,2.109964 -0.0748,0.04374 -0.055,0.07761 0.0709,0.05539 0.18839,-0.03316 1.23966,-0.208844 1.53917,-0.353129 0.19791,-0.09525 0.88794,-0.434271 1.45274,-0.876655 -0.0159,0.113948 -0.0303,0.282223 -0.0226,0.4953 0.0381,1.029055 0.9585,0.858309 1.1998,0.805392 0.7239,-0.15875 1.60867,-1.158875 1.68381,-1.359958 0.0744,-0.198613 0.0854,-0.379942 0.0684,-0.537986 0.1905,-0.10301 0.59972,-0.43321 0.59972,-0.43321 0.0169,0.438854 0.36618,0.570794 0.47378,0.589492 0.50341,0.0769 0.75565,-0.343959 0.86289,-0.480484 0.0917,0.240594 0.31221,0.287161 0.42581,0.309738 0.43427,0.08608 0.51893,-0.221192 0.54151,-0.291042 0.13617,-0.423333 -0.10936,-0.739421 -0.14076,-0.774346 -0.0317,-0.03528 -0.048,-0.0013 -0.0589,0.03916 -0.0113,0.04057 -0.0462,0.192968 -0.0681,0.28857 0,0 0.0907,0.148167 0.12312,0.223663 0.0325,0.07549 -0.0155,0.116769 -0.10936,0.128058 -0.26423,0.0321 -0.47484,-0.119239 -0.54786,-0.189441 -0.0723,-0.0695 0.006,-0.192971 0.0649,-0.340784 0.0469,-0.117829 -0.0402,-0.132291 -0.10689,-2.64e-4 -0.22402,0.58914 -0.5387,0.65264 -0.62125,0.675217 -0.74612,0.202848 -0.68191,-0.479071 -0.67909,-0.590902 0.002,-0.111477 -0.0794,-0.0702 -0.17145,0.0035 -0.31362,0.251883 -0.56656,0.40005 -0.70274,0.460729 -0.11712,-0.228954 -0.2868,-0.372888 -0.35912,-0.424746 -0.80716,-0.588785 -0.87383,0.599371 -0.84949,0.726723 0.12312,0.505177 0.94791,0.198967 1.07738,0.183798 0.12912,-0.01516 0.0871,0.155575 0.0145,0.256821 -0.17886,0.250473 -0.38558,0.430037 -0.57291,0.582437 -0.79975,0.652286 -1.20085,0.601134 -1.32433,0.5969 -0.78563,-0.02188 -0.71331,-0.868187 -0.66992,-1.049514 0.23636,-0.200025 0.43956,-0.41769 0.55739,-0.64135 0.048,-0.123119 0.13088,-0.401815 -0.0187,-0.751769 -0.0787,-0.154165 -0.32632,-0.585965 -0.32632,-0.585965 0,0 0.18239,0.0056 0.19968,0.0053 0.0173,-2.65e-4 0.0519,-0.01834 0.007,-0.0695 -0.0441,-0.05115 -0.42721,-0.433562 -0.45049,-0.464254 -0.0233,-0.03069 -0.0444,-0.05292 -0.0575,-0.0074 m 2.42253,1.752245 c 0,0 -0.11042,0.0635 -0.41769,0.04269 -0.25788,-0.01728 -0.23566,-0.117829 -0.20003,-0.155929 0.0381,-0.04163 0.35384,-0.240242 0.61772,0.113241 m -11.36827,-1.666168 c -0.008,0.05574 -0.03,0.385585 -0.03,0.385585 0.0589,0.06597 0.45508,0.524933 0.90452,0.72884 0.11995,0.0568 0.647,0.319264 0.77294,0.492831 0.0335,0.04798 0.10089,0.07867 -0.084,0.204258 -0.18486,0.126294 -1.15182,0.794809 -1.80905,1.075619 -0.10936,0.04198 -0.44803,0.182033 -0.5461,-0.291042 -0.0113,-0.09384 -0.084,-0.358775 0.36125,-1.28411 0.0621,-0.03492 0.12488,-0.116771 0.16757,-0.289279 0.01,-0.05539 0.0159,-0.09948 0.0198,-0.121354 0.006,-0.03316 -0.0212,-0.07056 -0.0437,0.006 -0.0512,0.151342 -0.19967,0.263525 -0.32667,0.07161 -0.0208,-0.0381 -0.10936,-0.214136 0.012,-0.614892 0.0243,-0.07796 0.0543,-0.193675 0.0543,-0.193675 0.0275,-0.08749 -0.0138,-0.132292 -0.0533,-0.02469 -0.0399,0.107596 -0.20955,0.480836 -0.15628,0.906286 0.0116,0.09278 0.0836,0.265289 0.22366,0.281868 -0.0229,0.0381 -0.0483,0.0882 -0.0737,0.153107 -0.12877,0.324556 -0.65829,1.523293 -0.0367,1.8288 0.12065,0.05045 0.35595,0.07832 0.93839,-0.293865 0.12911,-0.07444 0.69673,-0.435327 1.07032,-0.682271 -0.003,0.0085 -0.006,0.01659 -0.009,0.02681 -0.067,0.221191 -0.39758,1.111956 0.15135,1.430866 0.091,0.05292 0.8583,0.384527 2.09761,-0.717198 0.23742,-0.211312 0.30163,-0.632529 0.30163,-0.632529 0.004,-0.02574 0.007,-0.06703 0.006,-0.118888 0.18944,-0.0762 0.57432,-0.246237 0.68862,-0.2159 0.13582,0.03634 0.97155,0.235305 1.27035,0.153813 0.0875,-0.02716 0.22931,-0.0755 0.29245,-0.5461 0,-0.156988 0.0124,-0.386291 -0.39229,-0.651581 -0.10265,-0.06033 -0.74824,-0.349957 -0.80256,-0.440619 0.0808,-0.01799 0.11888,-0.0254 0.1591,-0.03457 0.0409,-0.0088 0.0762,-0.06103 0.006,-0.08467 -0.0695,-0.02434 -0.58738,-0.214136 -0.58738,-0.214136 0,0 -0.0374,0.309034 -0.0166,0.325967 0.0212,0.01659 0.0296,0.01447 0.0296,0.01447 -0.0505,0.04445 -0.50412,0.5588 -0.2921,1.163814 0,0 -0.13124,0.100542 -0.42263,0.166159 -0.0395,-0.109009 -0.10019,-0.226132 -0.19368,-0.340784 -0.23495,-0.266348 -0.44944,-0.418393 -0.72637,-0.143933 -0.27693,0.274815 -0.28292,0.759532 0.0713,0.911932 0.11395,0.03669 0.30939,0.06703 0.58597,0.0141 0.0572,-0.01199 0.24024,-0.0321 0.14887,0.09772 -0.0917,0.13053 -0.86289,0.9779 -1.70074,0.993072 -0.10654,0.0024 -0.8569,-0.06703 -0.647,-0.828675 0.0113,-0.08114 0.0702,-0.274463 0.0924,-0.364067 0.004,-0.01516 0.005,-0.02928 0.004,-0.04198 0.10407,-0.0702 0.18168,-0.124532 0.2092,-0.148519 0.0649,-0.05609 0.17956,-0.207081 0.13194,-0.604663 -0.0169,-0.103717 -0.0113,-0.322437 -0.35595,-0.526695 -0.63006,-0.305155 -1.02765,-0.593022 -1.02765,-0.593022 0,0 0.14641,-0.02469 0.16828,-0.02858 0.0219,-0.0039 0.0617,-0.02716 0.0127,-0.06173 -0.0494,-0.03422 -0.45438,-0.212018 -0.5394,-0.284691 -0.0257,-0.02328 -0.0713,-0.07091 -0.0794,-0.01482 m 5.05213,1.320093 c 0.0695,0.185209 -0.21414,0.277284 -0.32526,0.306917 -0.11148,0.02963 -0.24307,-0.08114 -0.34043,-0.183443 -0.097,-0.102307 0.13088,-0.368652 0.248,-0.497065 0.11712,-0.12841 0.32773,0.140758 0.41769,0.373591 m 0.92886,0.388057 c 0.0226,0.0321 0.10231,0.138642 -0.11183,0.15381 -0.21413,0.01553 -0.51541,0.01976 -0.79375,-0.07126 0,0 0.0825,-0.14111 0.11748,-0.25894 0.0476,-0.144285 0.0533,-0.262112 0.0533,-0.262112 0.0533,0.01834 0.5013,0.147108 0.73484,0.438502 m -2.46062,0.300567 c 0,0 -0.11713,0.06985 -0.38383,0.0046 -0.2667,-0.06491 -0.16051,-0.188384 -0.10724,-0.233185 0.0533,-0.0448 0.35207,-0.124884 0.49107,0.2286 m 4.53107,-1.767065 c -0.0533,0.06597 -0.58949,0.769763 -0.58949,0.769763 l -0.39017,-0.27799 c 0,0 0.1591,-0.03951 0.18662,-0.04798 0.0279,-0.0081 0.0434,-0.04375 -0.006,-0.0695 -0.0497,-0.02574 -0.52,-0.213077 -0.55598,-0.227542 -0.0356,-0.01482 -0.0487,-0.03104 -0.0515,0.0074 -0.003,0.03775 -0.009,0.347485 -0.009,0.347485 0,0 -0.007,0.02151 0.0339,0.0448 0.0413,0.02363 0.0815,0.07338 0.11501,0.106537 0.0335,0.03387 0.47096,0.379238 0.49212,0.391232 0,0 -0.21872,0.384175 -0.24659,0.685448 -0.0279,0.300919 0.005,0.716137 0.41663,0.582435 0.11077,-0.03175 0.5715,-0.214841 0.67451,-0.536223 0.0335,-0.118533 0.12806,-0.331962 -0.0261,-0.54892 -0.0889,-0.127707 -0.44873,-0.342548 -0.44873,-0.342548 0,0 0.27622,-0.382059 0.30233,-0.428625 0.0265,-0.04727 0.12806,-0.3429 0.13899,-0.414515 0.0116,-0.07161 0.0169,-0.107596 -0.0363,-0.04127 m -0.0945,1.622779 c -0.15275,0.125942 -0.47378,0.291746 -0.56409,0.300567 -0.0903,0.0085 -0.32949,-0.03528 -0.22542,-0.280458 0.0356,-0.07973 0.27481,-0.489657 0.27481,-0.489657 0.0896,0.04939 0.66745,0.343959 0.5147,0.469548 M 151.5,69.478111 c -0.031,0.08678 -0.043,0.143229 -0.0399,0.176038 0.003,0.03281 0.0148,0.139345 0.0148,0.139345 -0.0325,0.02574 -0.16898,0.111125 -0.30585,0.01024 0.009,-0.02893 0.0268,-0.08855 0.031,-0.121002 0.0145,-0.0508 -0.0166,-0.08855 -0.0413,-0.03598 -0.0251,0.05256 -0.0829,0.227894 -0.12595,0.267404 -0.043,0.03986 -0.0935,0.184857 -0.4198,0.03704 -0.0568,-0.02151 -0.15663,-0.0956 -0.31221,0.06068 -0.35278,0.328084 -0.59619,0.353484 -0.9913,0.493887 -0.0483,0.02223 -0.14852,0.09737 -0.0293,0.08573 0.11924,-0.01199 0.62019,0 0.89288,-0.312912 0.0571,-0.05539 0.12242,-0.201789 0.33902,-0.116771 0.11995,0.04586 0.34149,0.235657 0.5835,-0.140052 0.14217,0.09454 0.35877,0.0568 0.39335,-0.04798 0.0346,-0.104423 0.0741,-0.208846 0.0737,-0.279754 -2.7e-4,-0.07126 -0.006,-0.1651 -0.006,-0.1651 -0.005,-0.05609 -0.0247,-0.136525 -0.0565,-0.0508 m -9.32427,0.181681 c -0.0342,0.09948 -0.18168,0.444148 -0.1344,0.8382 0.0113,0.09102 0.0822,0.265642 0.22013,0.262467 0.0713,-0.0039 0.16016,-0.06103 0.21308,-0.288219 0.008,-0.05115 0.013,-0.09207 0.0166,-0.112183 0.006,-0.03069 -0.019,-0.06527 -0.0385,0.0053 -0.0441,0.1397 -0.17392,0.243416 -0.28575,0.06562 -0.0183,-0.03598 -0.0963,-0.198263 0.008,-0.569383 0.0215,-0.07197 0.0476,-0.178858 0.0476,-0.178858 0.0236,-0.08114 -0.0127,-0.122767 -0.0473,-0.02294 m -4.12362,0.6477 c -0.06,0.0254 -0.76799,0.275873 -0.83079,0.29845 -0.0646,0.02328 -0.0815,0.04198 -0.0935,0.08608 -0.012,0.04375 -0.019,0.06879 -0.0212,0.0762 -0.009,0.02893 -0.006,0.04304 0.0667,0.01516 0.0296,-0.0113 0.75142,-0.256117 0.80081,-0.28434 0.0494,-0.02822 0.0663,-0.01341 0.10124,-0.08361 0.0222,-0.04445 0.0275,-0.05257 0.0402,-0.08431 0.013,-0.03316 0.0226,-0.05962 -0.0635,-0.02363 m 0,0.352776 c -0.06,0.0254 -0.76799,0.275874 -0.83079,0.298805 -0.0646,0.02294 -0.0815,0.04163 -0.0935,0.08537 -0.012,0.0441 -0.019,0.0695 -0.0212,0.07655 -0.009,0.02928 -0.006,0.04304 0.0667,0.01553 0.0296,-0.0113 0.75142,-0.256469 0.80081,-0.285044 0.0494,-0.02787 0.0663,-0.01304 0.10124,-0.08326 0.0222,-0.0448 0.0275,-0.05256 0.0402,-0.08396 0.013,-0.03352 0.0226,-0.05997 -0.0635,-0.024"
       style="fill:#231f20;fill-opacity:1;fill-rule:evenodd;stroke:none;stroke-width:0.264583"
       id="path1-4" />
  </g>
</svg>
