<?xml version="1.0" encoding="UTF-8" standalone="no"?>
<!-- Created with Inkscape (http://www.inkscape.org/) -->

<svg
   width="18.438587mm"
   height="6.4462638mm"
   viewBox="0 0 18.438587 6.4462638"
   version="1.1"
   id="svg1"
   xmlns:inkscape="http://www.inkscape.org/namespaces/inkscape"
   xmlns:sodipodi="http://sodipodi.sourceforge.net/DTD/sodipodi-0.dtd"
   xmlns="http://www.w3.org/2000/svg"
   xmlns:svg="http://www.w3.org/2000/svg">
  <sodipodi:namedview
     id="namedview1"
     pagecolor="#ffffff"
     bordercolor="#666666"
     borderopacity="1.0"
     inkscape:showpageshadow="2"
     inkscape:pageopacity="0.0"
     inkscape:pagecheckerboard="0"
     inkscape:deskcolor="#d1d1d1"
     inkscape:document-units="mm" />
  <defs
     id="defs1" />
  <g
     inkscape:label="Layer 1"
     inkscape:groupmode="layer"
     id="layer1"
     transform="translate(-109.87609,-223.56324)">
    <path
       d="m 120.57228,223.73244 c -0.0702,0.10654 -0.12206,0.36266 -0.0222,0.43533 0.0998,0.0737 0.24659,0.13264 0.24659,0.13264 -0.46602,0.57115 -0.78458,0.68016 -1.05728,0.83962 -0.0702,0.0409 -0.0557,0.0776 -0.0152,0.067 0.0215,-0.006 0.38806,-0.0628 0.81633,-0.38805 0.23107,-0.17569 0.37112,-0.47625 0.37112,-0.47625 0,0 0.11607,0.0967 0.13159,0.11641 0.0353,0.0438 0.0543,0.0759 0.0709,0.03 0.061,-0.16898 -0.0254,-0.27129 -0.10725,-0.3235 0,0 0.0854,-0.26317 -0.0716,-0.52775 -0.0261,-0.0441 -0.18203,-0.18486 -0.36301,0.0945 m 0.24342,0.0727 c 0.10512,0.0974 0.0893,0.25789 0.085,0.29422 0,0 -0.13406,-0.0624 -0.19403,-0.0882 -0.06,-0.0258 -0.0914,-0.0639 -0.0639,-0.10195 0.0924,-0.12983 0.13794,-0.12524 0.17287,-0.10408 m 6.27909,0.0229 c -0.0702,0.10654 -0.12242,0.36266 -0.0226,0.43533 0.10019,0.0734 0.24659,0.13265 0.24659,0.13265 -0.46566,0.57079 -1.38042,0.97684 -1.59843,1.14688 -0.0646,0.049 -0.0561,0.0783 -0.0148,0.067 0.036,-0.01 0.73307,-0.20496 1.37054,-0.75071 0.29175,-0.25012 0.28399,-0.26881 0.35807,-0.42051 0.0632,0.0325 0.10654,0.0854 0.13159,0.11607 0.0349,0.0437 0.0543,0.0758 0.0709,0.03 0.061,-0.16898 -0.0251,-0.27093 -0.10795,-0.3235 0,0 0.0857,-0.26317 -0.0713,-0.5274 -0.0261,-0.0441 -0.18203,-0.18521 -0.36265,0.0942 m 0.24306,0.0727 c 0.10513,0.0974 0.0893,0.25788 0.085,0.29457 0,0 -0.13405,-0.0632 -0.19367,-0.0885 -0.06,-0.0258 -0.0917,-0.0639 -0.0639,-0.10195 0.0924,-0.12983 0.13794,-0.12559 0.17251,-0.10407 m -1.78858,-0.16581 c -0.18274,0.23283 -0.19438,0.53904 -0.21872,0.87983 -0.0257,-0.0713 -0.17181,-0.52882 -0.63959,-0.79058 -0.0339,-0.0191 -0.10301,0.0173 -0.10936,0.12453 -0.004,0.0628 -0.0219,0.21555 0.0226,0.25859 0.0441,0.043 0.17462,0.12806 0.1965,0.1397 0.0222,0.0123 0.0455,0.0141 0.0522,-0.012 0.007,-0.0265 0.0363,-0.0871 0.0787,-0.0434 0.0356,0.036 0.26599,0.22648 0.38558,0.63042 0.0208,0.0533 0.0702,0.0586 0.0819,-0.0173 0.0275,-0.18697 0.0423,-0.51118 0.0575,-0.6096 0.0208,-0.13829 0.0868,-0.42333 0.26176,-0.27552 0.0399,0.0339 0.0822,0.0783 0.0822,0.0783 0.037,0.0469 0.084,0.10019 0.10654,0.0462 0.0342,-0.0815 0.0621,-0.21696 0.0243,-0.28998 -0.0166,-0.0325 -0.23354,-0.30727 -0.38206,-0.11924 m -1.80022,-0.0106 c -0.067,0.0395 -1.78753,1.03187 -1.85702,1.07703 -0.0695,0.0448 -0.0942,0.0564 -0.10549,0.11006 -0.0113,0.054 -0.0166,0.085 -0.0198,0.0938 -0.0127,0.0356 -0.0219,0.0801 0.0808,0.013 0.0325,-0.0208 1.76212,-1.02058 1.8228,-1.05833 0.0582,-0.0363 0.0917,-0.0519 0.11501,-0.1076 0.0236,-0.0557 0.0293,-0.0656 0.042,-0.10442 0.0134,-0.0413 0.0265,-0.085 -0.0783,-0.0236 m -4.66831,0.01 c -0.0166,0.0392 -0.13758,0.3362 -0.13758,0.3362 0.003,0.0173 0.0363,0.14676 0.0427,0.19544 0.0561,0.42862 0.40711,2.9598 0.50765,3.7599 0.0494,0.39406 0.0878,0.74824 0.0935,0.93874 -0.005,0.0589 0.0212,0.0811 0.0483,0.0244 0.0141,-0.0307 0.0748,-0.15558 0.0931,-0.48401 0.0138,-0.2466 -0.006,-0.62583 -0.0762,-1.14724 -0.0102,-0.0755 -0.37535,-2.72027 -0.37535,-2.72027 0,0 0.1972,0.18521 0.22895,0.21872 0.0314,0.0339 0.0698,0.0159 0.0519,-0.0381 -0.018,-0.054 -0.42192,-1.03046 -0.43498,-1.06432 -0.0127,-0.0339 -0.0261,-0.0586 -0.042,-0.0194 m -1.03505,0 c -0.0159,0.0392 -0.1457,0.32456 -0.1457,0.32456 0.004,0.0233 0.0342,0.0938 0.0554,0.23777 0.0162,0.11254 0.44909,3.3341 0.46073,3.47169 0.012,0.13793 0.0152,0.29033 -0.0332,0.35031 -0.0476,0.0596 -0.33796,0.27481 -0.72672,0.11041 -0.0776,-0.0332 -0.2152,-0.0804 -0.254,-0.46954 0.003,-0.048 0.0568,-0.17639 -0.0868,-0.10795 -0.14358,0.0691 -0.69144,0.369 -1.00506,0.47554 -0.0427,0.0145 -0.11219,0.0349 -0.20214,0.0589 0.11465,-0.18274 0.2487,-0.47414 0.2861,-0.56868 0.0889,-0.30727 -0.0801,-0.50095 -0.18768,-0.60219 -0.50377,-0.35984 -0.79587,-0.26176 -0.90664,-0.23354 -0.55315,0.0981 -1.08479,1.09079 -1.16134,1.22273 -0.0353,0.0603 -0.12453,0.20884 -0.21449,0.35877 -0.0751,-0.0286 -0.13794,-0.0653 -0.18486,-0.11254 -0.65228,-0.6417 -1.09784,-0.41028 -1.36525,-0.24659 -0.23848,0.14676 -0.6678,0.45156 -1.1818,1.12572 -0.13088,0.17145 -0.52458,0.63782 -0.95744,0.5334 -0.16792,-0.0402 -0.43604,-0.38312 0.11183,-1.52048 0.0247,0.0138 0.0522,0.0219 0.0822,0.0229 0.0974,-0.001 0.22225,-0.0832 0.30762,-0.43567 0.0148,-0.0797 0.024,-0.14359 0.0303,-0.17498 0.009,-0.0476 -0.0222,-0.10372 -0.0526,0.005 -0.0691,0.2159 -0.25223,0.36865 -0.39334,0.0811 -0.0229,-0.0571 -0.11854,-0.31785 0.0473,-0.89147 0.0332,-0.11113 0.0751,-0.27693 0.0751,-0.27693 0.0374,-0.12524 -0.01,-0.19333 -0.0624,-0.0399 -0.0533,0.15382 -0.27517,0.68298 -0.2346,1.30422 0.006,0.0879 0.0399,0.22543 0.10795,0.32103 -0.0674,0.10795 -0.31574,0.56268 -0.36618,1.01318 -0.0441,0.3944 0.0127,0.8823 0.57749,0.93627 0.13759,0.013 0.45368,-0.0173 0.79799,-0.50835 0.0621,-0.0945 0.46566,-0.55916 0.80962,-0.86748 0.1457,-0.13053 0.79622,-0.65688 1.31622,-0.19968 0.0847,0.0744 0.18132,0.17639 0.34043,0.25859 -0.0187,0.0325 -0.0321,0.0565 -0.037,0.0667 -0.0575,0.11994 -0.0579,0.19614 -0.0325,0.21731 0.0208,0.0169 0.0875,-0.042 0.1524,-0.16828 0.006,-0.0106 0.0177,-0.0324 0.0356,-0.0635 0.22931,0.085 0.56691,0.12524 1.10349,0.0378 0.24377,-0.0293 1.02941,-0.14676 2.2853,-0.73907 0.0251,0.2099 0.10089,0.65123 0.66816,0.66781 0.13829,0 0.65087,-0.0801 0.70555,-0.7814 0.0543,-0.33585 -0.40146,-3.3401 -0.40146,-3.3401 0,0 0.1972,0.18556 0.22931,0.21907 0.0318,0.0335 0.0699,0.0155 0.0519,-0.0385 -0.0183,-0.054 -0.38911,-0.98108 -0.40216,-1.01494 -0.0131,-0.0339 -0.0261,-0.0586 -0.0427,-0.0194 m -1.88207,3.77861 c 0.1136,0.11042 0.0124,0.18732 -0.0522,0.23953 -0.87312,0.65194 -1.59456,0.70203 -1.97802,0.66323 -0.0268,-0.004 -0.0529,-0.009 -0.0783,-0.0148 0.22789,-0.36019 0.57185,-0.86043 0.84878,-1.08797 0.15134,-0.12453 0.59302,-0.39017 1.25977,0.20003 m -0.97508,-3.53978 c -0.0257,0.0631 -0.1344,0.28152 -0.11782,0.5387 0.004,0.0596 0.0434,0.17533 0.13299,0.1785 0.0462,-2.6e-4 0.10584,-0.0339 0.14852,-0.17921 0.007,-0.0332 0.0116,-0.0593 0.0148,-0.0723 0.005,-0.0194 -0.01,-0.043 -0.0251,0.002 -0.0335,0.0896 -0.1217,0.1517 -0.18732,0.0325 -0.0109,-0.024 -0.0554,-0.13194 0.0265,-0.36865 0.0162,-0.0459 0.037,-0.1143 0.037,-0.1143 0.0183,-0.0519 -0.004,-0.0801 -0.0296,-0.0169 m -2.36926,0.121 c -0.0529,0.15346 -0.27517,0.68298 -0.23495,1.30423 0.01,0.14357 0.0953,0.42262 0.28328,0.42827 0.097,-0.001 0.2219,-0.0836 0.30762,-0.43568 0.0145,-0.0797 0.0236,-0.14358 0.0296,-0.17498 0.01,-0.0476 -0.0219,-0.10336 -0.0522,0.005 -0.0691,0.21625 -0.25258,0.36865 -0.39299,0.0811 -0.0229,-0.0568 -0.11924,-0.31785 0.0466,-0.89147 0.0335,-0.11112 0.0755,-0.27693 0.0755,-0.27693 0.0374,-0.12524 -0.01,-0.19332 -0.0624,-0.0399 m 4.82071,-7.9e-4 c -0.0819,0.0413 -2.88043,1.149 -2.9651,1.19698 -0.085,0.0469 -0.1143,0.0586 -0.13159,0.121 -0.0173,0.0617 -0.0261,0.0977 -0.0303,0.1076 -0.0173,0.0413 -0.031,0.0924 0.0938,0.0215 0.0392,-0.0222 2.85327,-1.13701 2.92348,-1.17687 0.0695,-0.0402 0.11112,-0.0536 0.14252,-0.11748 0.0314,-0.0635 0.0392,-0.0744 0.0561,-0.11924 0.019,-0.0469 0.0377,-0.0974 -0.0889,-0.0335 m -3.56129,0.0254 c -0.0342,0.0836 -0.17675,0.37077 -0.15522,0.70944 0.005,0.0787 0.0572,0.23107 0.17497,0.2353 0.061,-2.7e-4 0.14005,-0.0445 0.19579,-0.23601 0.01,-0.0437 0.0159,-0.078 0.0198,-0.0952 0.006,-0.0257 -0.013,-0.0568 -0.0328,0.003 -0.0444,0.11748 -0.16087,0.19968 -0.24765,0.042 -0.0138,-0.0314 -0.0723,-0.17392 0.0349,-0.48577 0.0219,-0.0603 0.0494,-0.15064 0.0494,-0.15064 0.0243,-0.0684 -0.005,-0.10548 -0.0392,-0.0219 m -2.59362,0.0991 c -0.16439,0.22895 -0.16263,0.52035 -0.1718,0.84525 -0.0272,-0.0667 -0.18521,-0.4953 -0.64064,-0.72495 -0.0332,-0.0166 -0.097,0.0208 -0.0988,0.12347 -0.001,0.0596 -0.0116,0.20532 0.0324,0.24483 0.042,0.0374 0.34678,0.12982 0.19156,0.30903 -0.0699,0.0804 -0.41839,0.47625 -0.49248,0.5715 -0.0751,0.0949 -0.0818,0.11254 2.7e-4,0.0621 0.0822,-0.0508 0.56092,-0.26141 0.62018,-0.74789 0.004,-0.0635 -0.0113,-0.11042 -0.0275,-0.14146 0.007,10e-4 0.0145,0.005 0.0226,0.0127 0.0349,0.0328 0.26212,0.20425 0.39229,0.58349 0.0222,0.0497 0.0695,0.0526 0.0773,-0.0201 0.0183,-0.17886 0.0194,-0.48789 0.0293,-0.58208 0.0138,-0.13194 0.0649,-0.40534 0.23777,-0.27199 0.0388,0.03 0.0808,0.0706 0.0808,0.0706 0.0378,0.043 0.084,0.0917 0.10336,0.0395 0.0296,-0.079 0.0501,-0.20884 0.0113,-0.27657 -0.0177,-0.0303 -0.23495,-0.28223 -0.36794,-0.0974 m 5.6843,0.81915 c -0.0222,0.0695 -0.0395,0.12347 -0.009,0.20285 0.03,0.0797 0.11219,0.25999 0.12559,0.2861 0.0134,0.0257 0.0162,0.055 -0.0282,0.0741 -0.0451,0.0191 -0.24977,0.0628 -0.28822,-0.15593 -0.0381,-0.21872 -0.0416,-0.28257 -0.0607,-0.31961 -0.019,-0.037 -0.037,-0.0416 -0.0515,-0.005 -0.0148,0.037 -0.0236,0.11324 -0.0258,0.12559 -0.002,0.0127 -0.002,0.0215 0.005,0.0349 0.008,0.0134 0.0899,0.25788 0.0529,0.32527 -0.0367,0.067 -0.22048,0.18838 -0.31714,0.0614 -0.0462,-0.0885 -0.018,-0.31256 -0.018,-0.36548 0,-0.0526 -0.0169,-0.0705 -0.0391,-0.0279 -0.0226,0.0427 -0.0349,0.0706 -0.0339,0.10866 0.001,0.0385 0.007,0.20178 0.004,0.25329 -0.004,0.0515 0,0.21908 0.0984,0.26599 0.0991,0.0473 0.24236,0.003 0.35102,-0.20214 0.0843,0.12242 0.21202,0.12277 0.28046,0.0977 0.0582,-0.0212 0.12347,-0.10865 0.14252,-0.22965 0.0191,-0.12136 -0.0124,-0.20426 -0.0508,-0.27235 -0.0504,-0.0843 -0.084,-0.22578 -0.084,-0.22578 -0.0176,-0.0505 -0.031,-0.10195 -0.0536,-0.0325 m 6.91021,0.0416 c -0.0342,0.0847 -0.17851,0.37535 -0.15664,0.7179 0.005,0.079 0.0575,0.23318 0.1771,0.23706 0.0617,0 0.14111,-0.0448 0.19755,-0.23847 0.01,-0.0437 0.0159,-0.0787 0.0201,-0.096 0.006,-0.0265 -0.013,-0.0572 -0.0332,0.003 -0.0455,0.11854 -0.16228,0.20144 -0.24977,0.042 -0.0145,-0.031 -0.0737,-0.17533 0.0349,-0.49036 0.0219,-0.0614 0.0494,-0.1524 0.0494,-0.1524 0.0247,-0.0688 -0.005,-0.10654 -0.0395,-0.0226 m 3.30764,0.17357 c -0.0321,0.0783 -0.16545,0.34678 -0.14499,0.66393 0.005,0.0734 0.0533,0.21625 0.16369,0.22013 0.0568,-2.7e-4 0.13052,-0.042 0.18309,-0.22119 0.009,-0.0402 0.0145,-0.0727 0.0183,-0.0885 0.006,-0.0247 -0.0124,-0.0529 -0.031,0.002 -0.0416,0.10971 -0.14993,0.18627 -0.23107,0.0392 -0.013,-0.0289 -0.0681,-0.16263 0.0328,-0.45473 0.0198,-0.0564 0.0455,-0.14041 0.0455,-0.14041 0.0229,-0.0639 -0.004,-0.0988 -0.0363,-0.0208 m -6.20677,0.008 -0.16828,0.23037 -0.32279,-0.23531 c -0.008,-0.006 -0.0198,-0.004 -0.0261,0.005 l -0.19474,0.26705 c -0.006,0.009 -0.005,0.0205 0.003,0.0265 l 0.33302,0.24271 c 0.008,0.006 0.0194,0.004 0.0257,-0.005 l 0.16828,-0.23072 0.32314,0.23565 c 0.008,0.006 0.0194,0.004 0.0257,-0.005 l 0.19473,-0.2674 c 0.006,-0.008 0.005,-0.0204 -0.003,-0.0261 l -0.33266,-0.24271 c -0.008,-0.006 -0.0198,-0.004 -0.0261,0.005 m 1.30352,0.41593 c -0.013,0.0452 -0.0455,0.23953 -0.0536,0.27975 -0.008,0.0399 -0.007,0.0801 0.0127,0.1143 0.0198,0.0339 0.0702,0.15275 0.10689,0.24871 0.0363,0.0963 0.41452,0.82444 0.44909,0.88864 0.0353,0.0646 0.0423,0.11254 0.007,0.15558 -1.21285,1.27952 -3.55318,2.06622 -3.62761,2.10961 -0.0748,0.0434 -0.0554,0.0773 0.0705,0.0554 0.18874,-0.0332 1.23966,-0.20885 1.53917,-0.35313 0.19791,-0.0956 0.88794,-0.43392 1.45239,-0.87666 -0.0155,0.11395 -0.03,0.28258 -0.0222,0.4953 0.0385,1.02906 0.9585,0.85831 1.1998,0.80539 0.7239,-0.15875 1.60867,-1.15922 1.68381,-1.36031 0.0744,-0.19826 0.085,-0.37959 0.0684,-0.53763 0.19085,-0.10301 0.60007,-0.43321 0.60007,-0.43321 0.0169,0.43885 0.36583,0.57079 0.47343,0.58984 0.50377,0.0766 0.756,-0.34466 0.86289,-0.48083 0.0917,0.24059 0.31257,0.28681 0.42581,0.30938 0.43462,0.0868 0.51893,-0.22048 0.54186,-0.29069 0.13582,-0.42333 -0.10936,-0.73907 -0.14111,-0.77434 -0.0317,-0.0349 -0.0476,-0.001 -0.0586,0.0388 -0.0113,0.0409 -0.0466,0.19403 -0.0681,0.28928 0,0 0.0907,0.14817 0.12311,0.22296 0.0321,0.0755 -0.0159,0.11677 -0.10936,0.12805 -0.26388,0.0328 -0.47519,-0.11888 -0.54786,-0.18873 -0.0723,-0.0699 0.006,-0.19368 0.0649,-0.34114 0.0466,-0.11783 -0.0402,-0.13229 -0.10689,-2.6e-4 -0.22437,0.58879 -0.53869,0.65229 -0.6216,0.67486 -0.74612,0.20356 -0.68156,-0.47872 -0.67945,-0.59019 0.003,-0.11183 -0.079,-0.0709 -0.17074,0.003 -0.31397,0.25188 -0.56691,0.4004 -0.70273,0.46073 -0.11713,-0.2286 -0.28717,-0.37253 -0.35913,-0.42439 -0.80716,-0.58914 -0.87383,0.59901 -0.84984,0.72637 0.12312,0.50553 0.94826,0.19896 1.07738,0.18379 0.12947,-0.0155 0.0871,0.15523 0.0148,0.25683 -0.17921,0.25012 -0.38559,0.43003 -0.57291,0.58278 -0.79975,0.65229 -1.20086,0.60079 -1.32469,0.59655 -0.78563,-0.0219 -0.71331,-0.86854 -0.66957,-1.04916 0.23601,-0.20038 0.43921,-0.41769 0.55739,-0.6417 0.0476,-0.12277 0.13088,-0.40146 -0.0187,-0.75177 -0.0787,-0.15381 -0.32632,-0.58632 -0.32632,-0.58632 0,0 0.18204,0.006 0.19932,0.005 0.0177,0 0.0515,-0.018 0.007,-0.0691 -0.0441,-0.0512 -0.42721,-0.43321 -0.45014,-0.4639 -0.0233,-0.0311 -0.0444,-0.0533 -0.0575,-0.008 m 2.42217,1.7526 c 0,0 -0.11007,0.0632 -0.41769,0.0423 -0.25753,-0.0173 -0.23566,-0.11748 -0.20003,-0.15593 0.0381,-0.0416 0.35384,-0.24024 0.61772,0.11359 m -3.31634,-1.42491 c -0.0536,0.066 -0.5902,0.77012 -0.5902,0.77012 l -0.38981,-0.27835 c 0,0 0.1591,-0.0395 0.18697,-0.048 0.0275,-0.008 0.0434,-0.0441 -0.006,-0.0699 -0.0501,-0.0254 -0.52,-0.21308 -0.55563,-0.22754 -0.036,-0.0141 -0.049,-0.0307 -0.0518,0.007 -0.003,0.0381 -0.009,0.34784 -0.009,0.34784 0,0 -0.007,0.0215 0.0339,0.0448 0.0409,0.0233 0.0811,0.073 0.11501,0.10689 0.0335,0.0339 0.47061,0.37853 0.49177,0.39087 0,0 -0.21872,0.38453 -0.24624,0.68545 -0.0279,0.30092 0.005,0.71614 0.41628,0.58209 0.11077,-0.0318 0.57185,-0.21485 0.67486,-0.53588 0.0332,-0.11817 0.12806,-0.33231 -0.0264,-0.54927 -0.0889,-0.127 -0.44874,-0.34219 -0.44874,-0.34219 0,0 0.27623,-0.38206 0.30269,-0.42898 0.0264,-0.0466 0.12805,-0.34255 0.13899,-0.41416 0.0113,-0.0716 0.0169,-0.1076 -0.0363,-0.0413 m -0.0945,1.62278 c -0.15275,0.12559 -0.47378,0.2921 -0.56409,0.30057 -0.0903,0.009 -0.3295,-0.0356 -0.22543,-0.28046 0.0356,-0.0794 0.27482,-0.48931 0.27482,-0.48931 0.0893,0.0494 0.66745,0.34361 0.5147,0.4692 m -7.61682,-1.4986 c -0.12207,0.133 -0.16017,0.22472 -0.1965,0.28187 -0.0504,0.0783 0.013,0.11359 0.0699,0.0522 0.0572,-0.0614 0.0967,-0.12206 0.26246,-0.11783 0.16616,0.004 0.56374,-0.0109 0.41522,0.0981 -0.14852,0.10971 -0.24906,0.17286 -0.24906,0.17286 -0.0967,0.0691 -0.18168,0.19896 -0.0109,0.12664 0.1704,-0.072 0.39547,-0.18591 0.56833,-0.44555 0.0497,-0.0758 0.10901,-0.1771 -0.12488,-0.21238 -0.23354,-0.0349 -0.61172,-0.0892 -0.73449,0.0441 m -2.27224,0.0208 c -0.0339,0.0995 -0.1785,0.44415 -0.13158,0.83856 0.0113,0.0907 0.0808,0.26528 0.2166,0.26246 0.0702,-0.004 0.15769,-0.061 0.2092,-0.28822 0.008,-0.0512 0.013,-0.0917 0.0162,-0.11183 0.006,-0.031 -0.0187,-0.0656 -0.0374,0.005 -0.0437,0.14006 -0.17109,0.24307 -0.28116,0.0653 -0.0183,-0.0353 -0.0949,-0.19826 0.008,-0.56903 0.0208,-0.072 0.0459,-0.17886 0.0459,-0.17886 0.0233,-0.0811 -0.012,-0.12277 -0.0459,-0.0233 m 1.41041,0.18874 c -0.0346,0.0836 -0.1771,0.37077 -0.15523,0.70979 0.005,0.0787 0.0568,0.23107 0.17498,0.23495 0.061,-2.7e-4 0.1397,-0.0444 0.19544,-0.23601 0.01,-0.0434 0.0159,-0.078 0.0201,-0.0952 0.006,-0.0257 -0.0134,-0.0564 -0.0332,0.003 -0.0444,0.11748 -0.16052,0.19967 -0.2473,0.042 -0.0141,-0.031 -0.0727,-0.17356 0.0349,-0.48542 0.0219,-0.0607 0.049,-0.15064 0.049,-0.15064 0.0243,-0.0684 -0.005,-0.10583 -0.0388,-0.0222 m 4.01531,0.10089 -0.19508,0.26741 c -0.006,0.009 -0.005,0.0205 0.003,0.0265 l 0.33302,0.24236 c 0.008,0.006 0.0194,0.004 0.0258,-0.005 l 0.19509,-0.26741 c 0.006,-0.009 0.005,-0.0201 -0.003,-0.0257 l -0.33302,-0.24306 c -0.008,-0.006 -0.0198,-0.004 -0.0258,0.005 m 10.69411,1.75013 c -0.0314,0.0861 -0.043,0.14287 -0.0402,0.17568 0.004,0.0332 0.0152,0.13935 0.0152,0.13935 -0.0324,0.0261 -0.16933,0.11112 -0.30621,0.0106 0.01,-0.0293 0.0272,-0.0885 0.031,-0.12171 0.0145,-0.0504 -0.0166,-0.0882 -0.0413,-0.0356 -0.0247,0.0526 -0.0825,0.22825 -0.12559,0.26776 -0.043,0.0392 -0.0935,0.1845 -0.4198,0.037 -0.0568,-0.0219 -0.15699,-0.0963 -0.31292,0.0607 -0.35277,0.32773 -0.59584,0.35313 -0.9913,0.49353 -0.0476,0.0219 -0.14817,0.0977 -0.0289,0.0857 0.11924,-0.0124 0.62054,0 0.89288,-0.31327 0.0572,-0.055 0.12242,-0.20108 0.33902,-0.11641 0.11995,0.0455 0.34149,0.23565 0.5835,-0.14041 0.14252,0.0953 0.35912,0.0572 0.39369,-0.0476 0.0342,-0.10443 0.0741,-0.20849 0.0737,-0.27976 -7.9e-4,-0.0713 -0.007,-0.16474 -0.007,-0.16474 -0.005,-0.0564 -0.0247,-0.13688 -0.0561,-0.0508 m -8.98172,0.27163 c -0.0321,0.079 -0.16793,0.35173 -0.14711,0.67346 0.005,0.0741 0.054,0.21907 0.1658,0.2226 0.0579,-2.6e-4 0.133,-0.042 0.18592,-0.22401 0.009,-0.0409 0.0148,-0.0737 0.0187,-0.09 0.006,-0.0247 -0.0123,-0.054 -0.031,0.003 -0.0427,0.11077 -0.1524,0.18873 -0.23495,0.0395 -0.0134,-0.0296 -0.0688,-0.16475 0.0335,-0.46073 0.0201,-0.0572 0.0462,-0.14287 0.0462,-0.14287 0.0229,-0.0649 -0.005,-0.0998 -0.037,-0.0208 m -2.27013,0.23072 c -0.0321,0.079 -0.16722,0.35172 -0.14711,0.67346 0.005,0.0741 0.0543,0.21907 0.16616,0.22295 0.0579,-2.6e-4 0.133,-0.0423 0.18556,-0.22401 0.009,-0.0413 0.0152,-0.0741 0.0187,-0.0903 0.006,-0.0243 -0.0124,-0.0536 -0.0311,0.002 -0.0423,0.11147 -0.1524,0.18944 -0.23424,0.0399 -0.0134,-0.0293 -0.0695,-0.1651 0.0324,-0.46073 0.0208,-0.0571 0.0469,-0.14287 0.0469,-0.14287 0.0229,-0.0646 -0.005,-0.0998 -0.0374,-0.0208 m -3.18171,0.48155 c -0.0699,0.0353 -1.21108,0.48683 -1.2834,0.5274 -0.0723,0.0406 -0.0981,0.0508 -0.11254,0.10336 -0.0145,0.0529 -0.0219,0.084 -0.0254,0.0921 -0.0152,0.0349 -0.0268,0.079 0.0801,0.0183 0.0332,-0.0187 1.18781,-0.4766 1.24778,-0.51082 0.0596,-0.0339 0.0949,-0.0459 0.12171,-0.10019 0.0268,-0.054 0.0335,-0.0635 0.0483,-0.1016 0.0159,-0.0399 0.0318,-0.0829 -0.0766,-0.0286"
       style="fill:#231f20;fill-opacity:1;fill-rule:evenodd;stroke:none;stroke-width:0.264583"
       id="path1" />
  </g>
</svg>
