<?xml version="1.0" encoding="UTF-8" standalone="no"?>
<!-- Created with Inkscape (http://www.inkscape.org/) -->

<svg
   width="18.303953mm"
   height="6.2229891mm"
   viewBox="0 0 18.303953 6.2229891"
   version="1.1"
   id="svg1"
   xmlns:inkscape="http://www.inkscape.org/namespaces/inkscape"
   xmlns:sodipodi="http://sodipodi.sourceforge.net/DTD/sodipodi-0.dtd"
   xmlns="http://www.w3.org/2000/svg"
   xmlns:svg="http://www.w3.org/2000/svg">
  <sodipodi:namedview
     id="namedview1"
     pagecolor="#ffffff"
     bordercolor="#666666"
     borderopacity="1.0"
     inkscape:showpageshadow="2"
     inkscape:pageopacity="0.0"
     inkscape:pagecheckerboard="0"
     inkscape:deskcolor="#d1d1d1"
     inkscape:document-units="mm" />
  <defs
     id="defs1" />
  <g
     inkscape:label="Layer 1"
     inkscape:groupmode="layer"
     id="layer1"
     transform="translate(-113.1193,-230.30325)">
    <path
       d="m 123.67955,230.47191 c -0.0702,0.10689 -0.12206,0.36301 -0.0222,0.43603 0.10019,0.0734 0.2466,0.1323 0.2466,0.1323 -0.46603,0.57114 -0.78458,0.68015 -1.05693,0.83961 -0.0702,0.0413 -0.0564,0.0776 -0.0155,0.0667 0.0212,-0.005 0.3877,-0.0624 0.81597,-0.38699 0.23178,-0.17639 0.37183,-0.47661 0.37183,-0.47661 0,0 0.11571,0.0963 0.13124,0.11607 0.0353,0.0434 0.0543,0.0758 0.0713,0.03 0.0607,-0.16898 -0.0254,-0.27128 -0.1076,-0.32349 0,0 0.0854,-0.26318 -0.0716,-0.52705 -0.0261,-0.0441 -0.18204,-0.18592 -0.36301,0.0935 m 0.24377,0.0734 c 0.10442,0.0974 0.0889,0.25753 0.0847,0.29422 0,0 -0.13405,-0.0628 -0.19367,-0.0885 -0.0603,-0.0257 -0.0917,-0.0635 -0.0642,-0.10195 0.0928,-0.12983 0.13794,-0.12524 0.17322,-0.10372 m 6.27838,0.0226 c -0.0699,0.10689 -0.12206,0.36266 -0.0222,0.43533 0.10019,0.0737 0.24659,0.13264 0.24659,0.13264 -0.46602,0.57115 -1.38042,0.9772 -1.59844,1.14688 -0.0645,0.049 -0.0561,0.0783 -0.0148,0.067 0.036,-0.01 0.73307,-0.20461 1.37019,-0.75071 0.2921,-0.24977 0.28398,-0.26882 0.35842,-0.42051 0.0632,0.0325 0.10689,0.0854 0.13159,0.11641 0.0353,0.0434 0.0543,0.0755 0.0709,0.0296 0.0607,-0.16898 -0.0254,-0.27094 -0.10759,-0.3235 0,0 0.0854,-0.26353 -0.0716,-0.5274 -0.0261,-0.0441 -0.18203,-0.18521 -0.36301,0.0942 m 0.24377,0.0727 c 0.10513,0.0974 0.0889,0.25753 0.0847,0.29457 0,0 -0.13406,-0.0628 -0.19403,-0.0882 -0.0596,-0.0258 -0.0914,-0.0642 -0.0635,-0.10196 0.0921,-0.12982 0.13758,-0.12594 0.17286,-0.10442 m -1.78858,-0.1658 c -0.18309,0.23283 -0.19473,0.53904 -0.21907,0.87982 -0.0258,-0.0713 -0.17181,-0.52881 -0.63924,-0.79092 -0.0342,-0.0183 -0.10336,0.0176 -0.10971,0.12523 -0.004,0.0624 -0.0219,0.2152 0.0222,0.25823 0.0444,0.0434 0.17498,0.12806 0.19685,0.14041 0.0219,0.0116 0.0455,0.0134 0.0522,-0.013 0.006,-0.0261 0.036,-0.0868 0.0787,-0.043 0.0356,0.036 0.266,0.22648 0.38559,0.63076 0.0208,0.0533 0.0706,0.0586 0.0818,-0.0176 0.0275,-0.18697 0.0427,-0.51118 0.0572,-0.6096 0.0212,-0.13794 0.0871,-0.42334 0.26212,-0.27552 0.0399,0.0339 0.0822,0.0783 0.0822,0.0783 0.0374,0.0469 0.0836,0.10019 0.10653,0.0462 0.0342,-0.0815 0.0621,-0.21696 0.0243,-0.28998 -0.0166,-0.0328 -0.23353,-0.30692 -0.3817,-0.11924 m -1.80022,-0.0106 c -0.0674,0.0395 -1.78753,1.03223 -1.85738,1.07739 -0.0699,0.0445 -0.0945,0.0561 -0.10548,0.11006 -0.0109,0.054 -0.0166,0.0847 -0.0198,0.0935 -0.0127,0.0356 -0.0219,0.0801 0.0808,0.0134 0.0321,-0.0212 1.76213,-1.02094 1.82245,-1.05868 0.0582,-0.0363 0.0921,-0.0515 0.11536,-0.1076 0.0236,-0.0554 0.0293,-0.0656 0.0416,-0.10442 0.0134,-0.0413 0.0265,-0.085 -0.0776,-0.0236 m -5.92349,0.0349 c -0.0169,0.0374 -0.15381,0.3115 -0.15381,0.3115 0.003,0.0229 0.0318,0.0917 0.0494,0.23249 0.009,0.0727 0.31821,2.70615 0.52353,3.64913 -0.36936,0.17074 -1.25766,0.55562 -1.52683,-0.0349 0,0 0.008,-0.0462 0.0191,-0.097 0.0102,-0.0501 -0.0377,-0.13159 -0.0801,-0.0441 -0.30409,0.6343 -0.63853,0.65335 -0.83996,0.3235 0.019,-0.048 0.0589,-0.17215 0.0797,-0.2286 0.0208,-0.0568 0,-0.14111 -0.0649,-0.061 -0.0653,0.0797 -0.34573,0.51223 -0.65546,0.56691 -0.0776,0.0141 -0.39053,0.0568 -0.44486,-0.29386 0.0289,-0.11148 0.0416,-0.12841 0.048,-0.16792 0.006,-0.0399 -0.006,-0.13018 -0.0924,-0.0483 -0.0864,0.0818 -0.37394,0.51188 -0.89253,0.56056 -0.11112,0.0102 -0.6163,0.0455 -0.85901,-0.55845 -0.0307,-0.0762 -0.17039,-0.86113 -0.19967,-1.02517 -0.0296,-0.16369 -0.2921,-1.34091 -0.72955,-1.74413 -0.0381,-0.0261 -0.0367,-0.001 -0.0409,0.0275 -0.005,0.0289 -0.0289,0.34395 -0.0289,0.34395 0.0487,0.0963 0.52635,1.05763 0.61031,1.78823 0.0106,0.10231 0.0321,0.1898 -0.11148,0.34749 -0.0409,0.0466 -0.70696,0.78423 -1.44568,1.05586 -0.0522,0.0194 -0.37007,0.11748 -0.59655,-0.0265 -0.0769,-0.049 -0.48542,-0.44344 0.0113,-1.44956 0.0113,-0.0173 0.0152,-0.0374 0.0134,-0.0536 0.0836,-0.0205 0.18063,-0.11536 0.24801,-0.40252 0.0127,-0.0741 0.0208,-0.13335 0.0261,-0.16263 0.008,-0.0441 -0.0212,-0.0963 -0.0487,0.005 -0.0621,0.20144 -0.23142,0.34431 -0.36477,0.0787 -0.0215,-0.0533 -0.11289,-0.29457 0.0367,-0.82868 0.0303,-0.10406 0.0684,-0.25787 0.0684,-0.25787 0.0332,-0.11713 -0.0106,-0.17992 -0.0589,-0.0367 -0.0476,0.14322 -0.25047,0.63676 -0.20778,1.21355 0.01,0.12453 0.0811,0.35842 0.23318,0.39159 -0.0102,0.0123 -0.0208,0.0286 -0.0324,0.0504 -0.0783,0.14852 -0.44874,0.86819 -0.24624,1.52612 0.0381,0.12418 0.27728,0.73836 1.2961,0.17674 0.21802,-0.1203 1.10949,-0.70591 1.26612,-1.22731 0.0699,0.23001 0.17886,1.15711 0.98319,1.17651 0.16757,0.004 0.62442,-0.084 0.92111,-0.44803 0.18203,0.62724 0.77011,0.31115 0.8262,0.27729 0.0561,-0.0335 0.13159,-0.0868 0.26353,-0.24095 0.15381,0.33337 0.6103,0.49036 0.94932,-0.11183 0.43145,0.5274 1.36807,0.14111 1.76636,-0.0247 0.0931,0.22402 0.2981,0.57468 0.66287,0.60255 0.0508,0 0.23072,-0.009 0.34607,-0.39335 0.0162,-0.0571 0.127,-0.46249 -0.1852,-0.65934 -0.0522,-0.0325 -0.26,-0.12665 -0.66217,0.007 -0.2353,-0.71437 -0.52317,-3.24414 -0.52317,-3.24414 0,0 0.16863,0.20567 0.19968,0.23918 0.031,0.0335 0.0698,0.0173 0.0529,-0.0356 -0.0166,-0.0533 -0.35419,-0.99236 -0.36653,-1.02588 -0.0124,-0.0328 -0.0244,-0.0575 -0.042,-0.0194 m 1.31868,4.57341 c 0.0342,0.0561 0.0423,0.13688 -0.0444,0.13123 -0.0868,-0.005 -0.23707,-0.0261 -0.36971,-0.17886 -0.0169,-0.0198 -0.0374,-0.0547 -0.0603,-0.0974 0.0649,-0.01 0.13018,-0.0152 0.18062,-0.012 0.13406,0.008 0.25542,0.0928 0.29387,0.15699 m 0.0519,-4.53884 c -0.0173,0.0377 -0.14535,0.32314 -0.14535,0.32314 0.002,0.0169 0.0321,0.14394 0.0374,0.19121 0.0455,0.41769 0.33337,2.88713 0.41416,3.66748 0.0402,0.38417 0.0695,0.72954 0.0706,0.91475 -0.006,0.0572 0.019,0.079 0.0473,0.0247 0.0152,-0.0289 0.079,-0.14922 0.10548,-0.46813 0.0198,-0.23954 0.01,-0.60819 -0.048,-1.11654 -0.008,-0.0741 -0.30798,-2.65395 -0.30798,-2.65395 0,0 0.19262,0.18521 0.22366,0.21837 0.0307,0.0339 0.0695,0.0173 0.0529,-0.0356 -0.0169,-0.0533 -0.39617,-1.01212 -0.40887,-1.04563 -0.012,-0.0332 -0.024,-0.0572 -0.0413,-0.0198 m -7.7851,0.13511 c -0.17428,0.2212 -0.18521,0.51189 -0.20849,0.83679 -0.0243,-0.0681 -0.16334,-0.50341 -0.60819,-0.75282 -0.0325,-0.0177 -0.0981,0.0166 -0.10407,0.11888 -0.004,0.0596 -0.0208,0.20461 0.0215,0.24624 0.042,0.0409 0.1658,0.12136 0.18662,0.133 0.0212,0.0116 0.0434,0.013 0.0497,-0.0124 0.006,-0.0243 0.0346,-0.0822 0.0748,-0.0409 0.0342,0.0342 0.25294,0.21555 0.36689,0.59972 0.0198,0.0511 0.067,0.0561 0.078,-0.0162 0.0265,-0.17744 0.0406,-0.48648 0.0547,-0.57996 0.0198,-0.13159 0.0825,-0.40287 0.24906,-0.26176 0.0378,0.0321 0.0783,0.0741 0.0783,0.0741 0.0349,0.0444 0.0794,0.0952 0.10089,0.0441 0.0332,-0.0776 0.0593,-0.20638 0.0233,-0.27588 -0.0155,-0.0307 -0.22225,-0.29245 -0.36301,-0.11289 m 4.02237,0.0392 c -0.0332,0.0808 -0.17039,0.35807 -0.14958,0.68474 0.005,0.0755 0.055,0.22296 0.16863,0.22649 0.0589,-2.7e-4 0.13476,-0.0427 0.18909,-0.22719 0.009,-0.0416 0.0152,-0.0755 0.0191,-0.0921 0.006,-0.0247 -0.0127,-0.0547 -0.0318,0.003 -0.0434,0.11289 -0.15487,0.19226 -0.23883,0.0406 -0.0134,-0.0303 -0.0702,-0.16757 0.0339,-0.46849 0.0208,-0.0586 0.0469,-0.14535 0.0469,-0.14535 0.0236,-0.066 -0.005,-0.1016 -0.0374,-0.0215 m -1.86372,0.145 c -0.0413,0.11747 -0.21414,0.52317 -0.18063,0.998 0.008,0.10937 0.0755,0.3228 0.22366,0.32632 0.0759,-0.001 0.17393,-0.0642 0.24025,-0.33443 0.0113,-0.061 0.0183,-0.10936 0.0229,-0.1337 0.007,-0.036 -0.0177,-0.079 -0.0413,0.005 -0.0533,0.16546 -0.1972,0.28258 -0.30833,0.0632 -0.0183,-0.0434 -0.0945,-0.24271 0.0339,-0.68192 0.0261,-0.085 0.0586,-0.21202 0.0586,-0.21202 0.0293,-0.0963 -0.007,-0.14781 -0.049,-0.03 m 3.59128,0.37783 c -0.0953,0.0392 -3.30411,1.48449 -3.40148,1.52753 -0.0917,0.0406 -0.11642,0.0646 -0.13229,0.12912 -0.0159,0.0645 -0.024,0.10195 -0.0279,0.11218 -0.0166,0.043 -0.0289,0.0808 0.0977,0.0194 0.0416,-0.0198 3.28118,-1.46826 3.35844,-1.50601 0.0744,-0.0367 0.1136,-0.0589 0.14393,-0.12594 0.0303,-0.0663 0.0381,-0.078 0.0543,-0.12453 0.018,-0.0494 0.0427,-0.0885 -0.0928,-0.0317 m 6.91868,0.58844 c -0.0349,0.084 -0.17886,0.37429 -0.15699,0.71719 0.005,0.079 0.0575,0.23319 0.1771,0.23742 0.0614,-2.6e-4 0.14111,-0.0452 0.19755,-0.23883 0.01,-0.0437 0.0159,-0.0787 0.0198,-0.0959 0.006,-0.0265 -0.0131,-0.0572 -0.0328,0.002 -0.0452,0.11889 -0.16228,0.20179 -0.25012,0.043 -0.0141,-0.0318 -0.0734,-0.17569 0.0353,-0.49142 0.0219,-0.0607 0.0494,-0.15205 0.0494,-0.15205 0.0247,-0.0688 -0.005,-0.10618 -0.0392,-0.0219 m -6.52992,0.7172 c -0.0783,0.0332 -1.58009,0.6925 -1.65982,0.72813 -0.0758,0.0335 -0.0963,0.0529 -0.109,0.10654 -0.0134,0.0536 -0.0201,0.0843 -0.0233,0.0928 -0.0138,0.0356 -0.024,0.0663 0.0808,0.0162 0.0342,-0.0169 1.56034,-0.6791 1.62419,-0.7105 0.0617,-0.0303 0.0938,-0.0487 0.11888,-0.10371 0.0254,-0.0547 0.0314,-0.0646 0.0455,-0.10266 0.0145,-0.0409 0.0346,-0.0734 -0.0773,-0.0268 m -3.13725,0.68227 c -0.037,0.0857 -0.19121,0.37959 -0.17392,0.7299 0.004,0.0808 0.0561,0.23953 0.17921,0.24518 0.0638,0.001 0.14711,-0.0434 0.20885,-0.24024 0.0106,-0.0444 0.018,-0.0804 0.0222,-0.0981 0.007,-0.0265 -0.0127,-0.0586 -0.0346,0.002 -0.0483,0.12065 -0.1711,0.2032 -0.25929,0.0392 -0.0145,-0.0321 -0.0734,-0.18027 0.0444,-0.50024 0.0233,-0.0621 0.0536,-0.15487 0.0536,-0.15487 0.0261,-0.0699 -0.003,-0.10936 -0.0406,-0.0233 m 12.97446,-1.22661 c -0.0321,0.0783 -0.16545,0.34678 -0.14534,0.66428 0.005,0.0734 0.0536,0.2159 0.16368,0.21978 0.0572,-2.6e-4 0.13089,-0.0416 0.18345,-0.22084 0.009,-0.0406 0.0148,-0.073 0.0187,-0.0889 0.005,-0.0243 -0.0131,-0.0529 -0.0311,0.002 -0.042,0.10972 -0.15028,0.18662 -0.23142,0.0392 -0.013,-0.0293 -0.0681,-0.16263 0.0325,-0.45438 0.0205,-0.0564 0.0459,-0.14076 0.0459,-0.14076 0.0229,-0.0642 -0.005,-0.0988 -0.0363,-0.0208 m -6.20677,0.008 -0.16828,0.23107 -0.32279,-0.23601 c -0.008,-0.006 -0.0194,-0.004 -0.0257,0.005 l -0.19544,0.2674 c -0.006,0.008 -0.004,0.0201 0.004,0.0261 l 0.33231,0.24236 c 0.008,0.006 0.0201,0.004 0.0261,-0.005 l 0.16827,-0.23072 0.3228,0.2353 c 0.008,0.006 0.0198,0.004 0.0261,-0.005 l 0.19473,-0.26705 c 0.006,-0.009 0.005,-0.0204 -0.003,-0.0265 l -0.33267,-0.24271 c -0.008,-0.006 -0.0198,-0.004 -0.0261,0.005 m -9.59061,1.08373 c -0.037,0.0854 -0.19085,0.37994 -0.17392,0.72954 0.004,0.0811 0.0561,0.23954 0.17956,0.24554 0.0639,7.9e-4 0.14711,-0.0437 0.2085,-0.23989 0.0109,-0.0448 0.018,-0.0808 0.0226,-0.0984 0.006,-0.0265 -0.0131,-0.0586 -0.0349,0.002 -0.0487,0.1203 -0.1711,0.20285 -0.25929,0.0395 -0.0145,-0.0325 -0.0734,-0.18062 0.0444,-0.50059 0.0236,-0.0624 0.0536,-0.15487 0.0536,-0.15487 0.0265,-0.0702 -0.004,-0.10865 -0.0406,-0.0233 m 7.1434,-0.70167 c -0.031,0.0762 -0.16157,0.33901 -0.14182,0.64875 0.005,0.0716 0.0526,0.21132 0.16016,0.2152 0.0557,-2.7e-4 0.12771,-0.0406 0.17886,-0.2159 0.009,-0.0399 0.0145,-0.0713 0.018,-0.0871 0.006,-0.0236 -0.012,-0.0515 -0.0296,0.003 -0.0413,0.1069 -0.14676,0.18239 -0.22613,0.0381 -0.013,-0.0286 -0.0667,-0.15875 0.0318,-0.44379 0.0198,-0.0554 0.0448,-0.13793 0.0448,-0.13793 0.0219,-0.0624 -0.005,-0.0963 -0.036,-0.0201 m 3.75073,0.0339 c -0.013,0.0452 -0.0455,0.23989 -0.0536,0.28011 -0.008,0.0399 -0.007,0.0797 0.0124,0.11359 0.0201,0.0346 0.0709,0.15311 0.10725,0.24942 0.0363,0.0963 0.41416,0.82373 0.44944,0.88829 0.0349,0.0646 0.042,0.11289 0.007,0.15558 -1.21285,1.27952 -3.55282,2.06657 -3.62796,2.10996 -0.0748,0.0434 -0.0547,0.0773 0.0713,0.055 0.18803,-0.0332 1.2393,-0.20884 1.53881,-0.35313 0.19791,-0.0949 0.88794,-0.43391 1.45239,-0.8763 -0.0152,0.11395 -0.03,0.28222 -0.0219,0.49495 0.0381,1.02941 0.95814,0.85831 1.19944,0.80574 0.7239,-0.1591 1.60867,-1.15958 1.68381,-1.36031 0.0744,-0.19861 0.0854,-0.37958 0.0684,-0.53798 0.19085,-0.10301 0.60007,-0.43286 0.60007,-0.43286 0.0169,0.4385 0.36583,0.57044 0.47343,0.58949 0.50341,0.0765 0.756,-0.34431 0.86325,-0.48083 0.0914,0.24059 0.31221,0.28751 0.42545,0.30938 0.43427,0.0871 0.51893,-0.22048 0.54151,-0.29069 0.13617,-0.42368 -0.10901,-0.73907 -0.1404,-0.77434 -0.0317,-0.0349 -0.048,-0.001 -0.0589,0.0392 -0.0113,0.0406 -0.0466,0.19332 -0.0681,0.28928 0,0 0.0903,0.14782 0.12312,0.2226 0.0321,0.0755 -0.0159,0.11677 -0.10972,0.12877 -0.26388,0.0317 -0.47484,-0.11959 -0.54751,-0.18944 -0.0723,-0.0699 0.006,-0.19297 0.0646,-0.34079 0.0469,-0.11818 -0.0399,-0.13264 -0.10654,-2.6e-4 -0.22437,0.58913 -0.53904,0.65228 -0.62159,0.67486 -0.74613,0.2032 -0.68157,-0.47907 -0.6791,-0.59055 0.002,-0.11183 -0.0794,-0.0705 -0.1711,0.003 -0.31397,0.25224 -0.56691,0.40041 -0.70273,0.46073 -0.11712,-0.2286 -0.28716,-0.37253 -0.35913,-0.42474 -0.80751,-0.58879 -0.87383,0.59972 -0.84949,0.72707 0.12277,0.50518 0.94756,0.19862 1.07703,0.18345 0.12912,-0.0155 0.0875,0.15593 0.0145,0.25717 -0.17921,0.25012 -0.38558,0.42969 -0.57256,0.58244 -0.79974,0.65228 -1.2012,0.60043 -1.32468,0.5969 -0.78563,-0.0222 -0.71331,-0.86889 -0.66922,-1.04952 0.23566,-0.20002 0.43886,-0.41768 0.55669,-0.64135 0.048,-0.12311 0.13088,-0.40216 -0.0183,-0.75176 -0.079,-0.15417 -0.32632,-0.58632 -0.32632,-0.58632 0,0 0.18203,0.005 0.19967,0.005 0.0173,0 0.0515,-0.0177 0.007,-0.0688 -0.0441,-0.0512 -0.42756,-0.43357 -0.45085,-0.46426 -0.0233,-0.0307 -0.0444,-0.0529 -0.0572,-0.008 m 2.42182,1.7526 c 0,0 -0.10971,0.0635 -0.41698,0.0423 -0.25788,-0.0173 -0.23601,-0.11747 -0.20038,-0.15557 0.0381,-0.0416 0.35384,-0.2406 0.61736,0.11324 m -3.31646,-1.42487 c -0.0533,0.066 -0.58949,0.77046 -0.58949,0.77046 l -0.38982,-0.27869 c 0,0 0.15875,-0.0399 0.18662,-0.0476 0.0279,-0.008 0.0434,-0.0437 -0.006,-0.0699 -0.0501,-0.0254 -0.52035,-0.21307 -0.55598,-0.22754 -0.0356,-0.0145 -0.0487,-0.031 -0.0522,0.007 -0.003,0.0384 -0.008,0.34783 -0.008,0.34783 0,0 -0.007,0.0215 0.0335,0.0452 0.0413,0.0229 0.0815,0.0734 0.11501,0.10654 0.0339,0.0339 0.47095,0.37888 0.49247,0.39088 0,0 -0.21872,0.38452 -0.24694,0.68544 -0.0275,0.30092 0.006,0.71614 0.41698,0.58244 0.11077,-0.0314 0.5715,-0.21519 0.67451,-0.53622 0.0332,-0.11818 0.12806,-0.33197 -0.0265,-0.54892 -0.0889,-0.12736 -0.44838,-0.34255 -0.44838,-0.34255 0,0 0.27552,-0.38171 0.30233,-0.42863 0.0261,-0.0469 0.12806,-0.34254 0.13865,-0.41416 0.0116,-0.072 0.0173,-0.10795 -0.0363,-0.0416 m -0.0942,1.62278 c -0.15275,0.12594 -0.47378,0.2921 -0.56409,0.30057 -0.0903,0.008 -0.3295,-0.0356 -0.22543,-0.28081 0.0353,-0.079 0.27482,-0.48895 0.27482,-0.48895 0.0896,0.0494 0.66745,0.3436 0.5147,0.46919 m 6.23076,0.56198 c -0.031,0.0861 -0.0434,0.14322 -0.0402,0.17568 0.004,0.0332 0.0148,0.1397 0.0148,0.1397 -0.0321,0.0257 -0.16863,0.11042 -0.30586,0.0102 0.009,-0.0293 0.0268,-0.0885 0.031,-0.12171 0.0148,-0.0501 -0.0162,-0.0878 -0.0409,-0.0356 -0.0254,0.0529 -0.0832,0.22825 -0.12664,0.26776 -0.0427,0.0395 -0.0931,0.1845 -0.4191,0.037 -0.0572,-0.0219 -0.15699,-0.096 -0.31292,0.0607 -0.35242,0.32773 -0.59584,0.35348 -0.9913,0.49354 -0.0476,0.0222 -0.14817,0.0977 -0.0286,0.0857 0.11854,-0.0124 0.61983,2.7e-4 0.89253,-0.31291 0.0572,-0.0554 0.12241,-0.20144 0.33902,-0.11642 0.11994,0.0455 0.34149,0.2353 0.58349,-0.1404 0.14217,0.0949 0.35913,0.0564 0.39335,-0.0476 0.0346,-0.10477 0.0741,-0.20884 0.0737,-0.27975 -2.6e-4,-0.0716 -0.006,-0.1651 -0.006,-0.1651 -0.005,-0.0565 -0.0247,-0.13653 -0.0561,-0.0508 m -10.01289,0.72884 c -0.0229,0.0328 -0.0402,0.0603 -0.049,0.0737 -0.0141,0.0198 -0.008,0.0522 0.0286,0.009 0.078,-0.0843 0.20461,-0.11395 0.22401,0.049 0.001,0.0314 0.002,0.17216 -0.19614,0.40005 -0.0392,0.0434 -0.0931,0.11042 -0.0931,0.11042 -0.0441,0.0497 -0.0321,0.091 0.0254,0.0321 0.0579,-0.0589 0.27729,-0.25365 0.37501,-0.54822 0.0226,-0.0681 0.031,-0.21519 -0.0677,-0.25894 -0.0519,-0.0208 -0.1337,-0.0109 -0.24694,0.133 m -4.88739,-0.10725 c -0.0698,0.0353 -1.03751,0.52846 -1.10983,0.56868 -0.0723,0.0406 -0.0977,0.0508 -0.11219,0.10337 -0.0148,0.0529 -0.0222,0.0836 -0.0257,0.0924 -0.0148,0.0349 -0.0265,0.0787 0.0801,0.018 0.0332,-0.0187 1.01424,-0.51823 1.07421,-0.55245 0.0593,-0.0335 0.0945,-0.0459 0.12136,-0.10019 0.0268,-0.0536 0.0335,-0.0635 0.0483,-0.10124 0.0159,-0.0402 0.0321,-0.0833 -0.0762,-0.0286 m 2.35585,0.27482 c -0.0229,0.0335 -0.0402,0.0607 -0.0494,0.0737 -0.0141,0.0201 -0.008,0.0529 0.0289,0.009 0.078,-0.0843 0.20425,-0.1143 0.22401,0.049 0.001,0.0314 0.002,0.17251 -0.19615,0.40005 -0.0391,0.0437 -0.0931,0.11078 -0.0931,0.11078 -0.0441,0.0494 -0.0325,0.0907 0.0254,0.0317 0.0575,-0.0589 0.27693,-0.25365 0.37501,-0.54787 0.0226,-0.0684 0.0307,-0.2159 -0.0677,-0.25964 -0.0519,-0.0204 -0.1337,-0.0102 -0.24694,0.13299"
       style="fill:#231f20;fill-opacity:1;fill-rule:evenodd;stroke:none;stroke-width:0.264583"
       id="path1" />
  </g>
</svg>
