<?xml version="1.0" encoding="UTF-8" standalone="no"?>
<!-- Created with Inkscape (http://www.inkscape.org/) -->

<svg
   width="23.061932mm"
   height="7.2371879mm"
   viewBox="0 0 23.061932 7.2371879"
   version="1.1"
   id="svg1"
   xmlns="http://www.w3.org/2000/svg"
   xmlns:svg="http://www.w3.org/2000/svg">
  <defs
     id="defs1" />
  <g
     id="layer1"
     transform="translate(-114.70454,-180.12425)">
    <path
       d="m 123.1766,180.1494 c -0.0617,0.0289 -1.75049,0.65123 -1.93111,0.76482 -0.0903,0.0575 -0.1718,0.15522 -0.20955,0.26776 -0.0547,0.16228 -0.0328,0.33232 0.0737,0.36266 0.0744,0.0212 0.11218,0.0702 0.12841,0.0977 0.007,0.012 0.0201,0.006 0.0243,-10e-4 0.10654,-0.15981 0.0413,-0.27552 -0.10019,-0.33514 -0.0564,-0.024 -0.0727,-0.1076 0.15911,-0.22049 0.21378,-0.10371 1.70074,-0.66851 1.74836,-0.69426 0.0646,-0.0342 0.10231,-0.0459 0.13265,-0.10266 0.0303,-0.0568 0.0374,-0.0667 0.0547,-0.10654 0.0177,-0.0423 0.036,-0.0875 -0.0804,-0.0328 m 4.34022,0.72884 c -0.018,0.0392 -0.15699,0.32385 -0.15699,0.32385 0.002,0.0233 0.0307,0.0956 0.0469,0.242 0.0173,0.1524 0.0413,0.37007 0.0681,0.61031 0,0 0.41945,2.85891 0.33302,3.10762 -0.0113,0.0339 -0.0289,0.0776 -0.0533,0.12876 0.0138,-0.23177 -0.0138,-0.58808 -0.23318,-0.89429 -0.28752,-0.40076 -0.85126,-0.895 -0.97579,-1.02482 -0.0935,-0.097 -0.59619,-0.58914 -0.85654,-0.95038 -0.11642,-0.16545 -0.25365,-0.38665 -0.25365,-0.38665 0.0857,0.0353 0.19015,0.0677 0.2473,0.0893 0.0571,0.0212 0.12488,0.004 0.0413,-0.0797 -0.084,-0.0836 -0.72778,-0.5902 -0.77682,-0.64982 -0.0494,-0.06 -0.0561,-0.0504 -0.0607,-0.005 -0.005,0.0452 -0.01,0.28434 -0.009,0.35878 7.9e-4,0.0744 0.0159,0.10089 0.0473,0.12453 0.0314,0.0236 0.0815,0.061 0.11465,0.11677 0.0335,0.0564 0.62124,0.99095 1.14653,1.48378 0.0677,0.0751 1.02306,0.83044 1.36772,1.55434 0.072,0.15169 0.0984,0.29774 0.10019,0.43991 -0.22402,0.34466 -0.72461,0.8576 -1.8355,1.27459 -0.0935,0.0402 -0.0811,0.10512 0.11218,0.0536 0.19297,-0.0508 1.39065,-0.09 1.85384,-1.13136 0.10619,-0.21907 0.31856,-0.629 0.16158,-1.66864 -0.036,-0.4251 -0.26318,-2.1971 -0.26318,-2.1971 0,0 0.19121,0.19403 0.2212,0.22896 0.0303,0.0349 0.0699,0.0183 0.0536,-0.037 -0.0166,-0.055 -0.3877,-1.05621 -0.3997,-1.09114 -0.0116,-0.0346 -0.0236,-0.0596 -0.0413,-0.0208 m -5.1809,0.0755 c -0.0332,0.0628 -0.0963,0.3295 -0.0674,0.52811 0.0289,0.19862 0.33937,2.58763 0.3295,2.75237 -0.004,0.0632 0.0339,0.22719 -0.0543,0.47555 -0.006,-0.22049 -0.0614,-0.52282 -0.26282,-0.77858 -0.29245,-0.37183 -0.85513,-0.82092 -0.98002,-0.9398 -0.0935,-0.0889 -0.59725,-0.53834 -0.86254,-0.87313 -0.11924,-0.15381 -0.25999,-0.35983 -0.25999,-0.35983 0.0833,0.0296 0.18485,0.0564 0.24094,0.0741 0.0554,0.0177 0.11959,-0.002 0.0349,-0.0783 -0.0836,-0.0762 -0.72249,-0.5334 -0.77259,-0.58843 -0.0497,-0.0554 -0.0557,-0.0459 -0.0579,-0.002 -0.002,0.0437 0.004,0.2734 0.008,0.34502 0.004,0.0713 0.0198,0.096 0.0508,0.11712 0.0314,0.0215 0.0804,0.0547 0.11501,0.10724 0.0346,0.0522 0.63923,0.92287 1.16416,1.37196 0.0681,0.0695 1.01671,0.75106 1.37901,1.43051 0.0681,0.12735 0.0998,0.25153 0.11219,0.37359 -0.21661,0.38947 -0.73731,0.92498 -1.97203,1.5688 -0.0921,0.0533 -0.11042,0.11748 0.0243,0.073 0.13441,-0.0448 0.82867,-0.24095 1.04175,-0.3362 0.21273,-0.0952 0.92957,-0.50976 1.15359,-1.40546 0,0 0.12382,0.85654 0.86853,1.03646 0.03,0.10477 0.0494,0.1912 0.0466,0.23001 -0.01,0.12594 0.0145,0.12594 0.0487,0.0727 0.0194,-0.0307 0.0713,-0.1143 0.0825,-0.27481 0.0455,0.004 0.0917,0.006 0.14147,0.005 0.29139,-0.006 0.85372,-0.11853 1.46156,-0.52634 0.72284,-0.48472 1.11477,-0.40076 1.11477,-0.40076 l 0.14076,-0.37782 c 0,0 -0.49459,-0.0342 -0.87701,-0.16475 -0.38276,-0.13053 -1.36172,-0.44556 -1.87536,-0.39723 -0.12665,0.012 -0.27622,0.0289 -0.45544,0.3489 -0.17956,0.31997 -0.21307,0.40675 -0.0529,0.82868 0.013,0.0342 0.0349,0.0928 0.0607,0.16404 -0.18098,-0.0882 -0.33585,-0.24166 -0.41029,-0.49883 -0.0455,-0.15875 -0.21272,-1.33244 -0.24694,-1.63266 -0.0335,-0.30056 -0.2226,-1.95298 -0.31962,-2.28212 -0.0434,-0.13582 -0.0582,-0.0487 -0.0924,0.0145 m 3.33411,3.84245 c -0.16475,0.11148 -1.06116,0.53764 -1.36137,0.6156 -0.13582,0.0346 -0.37571,0.0681 -0.61666,0.0289 -0.005,-0.0159 -0.008,-0.0314 -0.0134,-0.0487 -0.0582,-0.18873 -0.19403,-0.54257 -0.22296,-0.62512 -0.0289,-0.0822 -0.0247,-0.31468 0.24236,-0.33902 0.87066,-0.079 1.97203,0.3683 1.97203,0.3683 m 4.35292,-3.75179 c -0.0699,0.10619 -0.12206,0.3623 -0.0219,0.43533 0.0998,0.0734 0.24624,0.13229 0.24624,0.13229 -0.46602,0.57115 -0.78493,0.68016 -1.05692,0.83961 -0.0702,0.0413 -0.0565,0.078 -0.0155,0.067 0.0215,-0.006 0.38805,-0.0628 0.81597,-0.38771 0.23178,-0.17568 0.37183,-0.47625 0.37183,-0.47625 0,0 0.11571,0.0967 0.13159,0.11607 0.0349,0.0437 0.0547,0.0762 0.0705,0.03 0.061,-0.16897 -0.025,-0.27093 -0.10724,-0.32314 0,0 0.0857,-0.26352 -0.0716,-0.5274 -0.0265,-0.0445 -0.18203,-0.18556 -0.36301,0.0942 m 0.24378,0.0723 c 0.10512,0.0977 0.0889,0.25788 0.0847,0.29457 0,0 -0.13405,-0.0628 -0.19403,-0.0885 -0.06,-0.0257 -0.0914,-0.0635 -0.0635,-0.1016 0.0921,-0.13017 0.13794,-0.12524 0.17287,-0.10442 m -1.61502,-0.20567 c -0.018,0.0385 -0.14817,0.33126 -0.14817,0.33126 0.002,0.0173 0.031,0.14781 0.0356,0.19685 0.042,0.43003 0.30974,2.97144 0.38418,3.77437 0.0367,0.39581 0.0631,0.75106 0.0624,0.94156 -0.007,0.0586 0.0187,0.0811 0.0473,0.0257 0.0155,-0.03 0.0797,-0.15311 0.10936,-0.48084 0.0219,-0.24589 0.0145,-0.62547 -0.0385,-1.149 -0.008,-0.0758 -0.2861,-2.73085 -0.2861,-2.73085 0,0 0.1912,0.19156 0.22154,0.22578 0.031,0.0349 0.0695,0.0183 0.0536,-0.0363 -0.0162,-0.0543 -0.38805,-1.04351 -0.39969,-1.07809 -0.012,-0.0339 -0.0243,-0.0593 -0.0416,-0.0205 m 7.89375,0.22895 c -0.0705,0.10619 -0.12241,0.3623 -0.0222,0.43533 0.0998,0.0734 0.24589,0.13229 0.24589,0.13229 -0.46567,0.5715 -1.38043,0.9772 -1.59774,1.14688 -0.0649,0.049 -0.0564,0.078 -0.0152,0.067 0.0367,-0.01 0.73307,-0.20461 1.37019,-0.75036 0.29246,-0.25047 0.28434,-0.26917 0.35842,-0.42086 0.0632,0.0324 0.10654,0.0854 0.13159,0.11606 0.0353,0.0438 0.0543,0.0759 0.0713,0.03 0.0607,-0.16898 -0.0257,-0.27058 -0.10795,-0.32315 0,0 0.0857,-0.26352 -0.0716,-0.5274 -0.0261,-0.0444 -0.18204,-0.18556 -0.36266,0.0942 m 0.24377,0.0723 c 0.10478,0.0977 0.0889,0.25788 0.0847,0.29457 0,0 -0.13406,-0.0628 -0.19438,-0.0885 -0.0593,-0.0257 -0.091,-0.0635 -0.0635,-0.1016 0.0924,-0.13017 0.13793,-0.12523 0.17321,-0.10442 m -20.15066,-0.17462 c -0.17428,0.22154 -0.18521,0.51258 -0.20814,0.83714 -0.0247,-0.0681 -0.16369,-0.50341 -0.6089,-0.75248 -0.0321,-0.018 -0.0977,0.0166 -0.10371,0.11889 -0.004,0.0596 -0.0208,0.20461 0.0215,0.24589 0.0402,0.0391 0.34043,0.14499 0.17744,0.3175 -0.0727,0.0772 -0.4385,0.4572 -0.51717,0.54927 -0.0787,0.0917 -0.0861,0.10866 -0.002,0.0617 0.0843,-0.0469 0.5715,-0.23636 0.65228,-0.71967 0.006,-0.0631 -0.006,-0.11077 -0.0212,-0.14288 0.007,0.002 0.0141,0.006 0.0215,0.0138 0.0342,0.0346 0.25329,0.21555 0.36689,0.60008 0.0198,0.0508 0.067,0.0554 0.078,-0.0166 0.0261,-0.1778 0.0402,-0.48648 0.0547,-0.57997 0.0198,-0.13159 0.0825,-0.40287 0.24906,-0.26176 0.0381,0.0318 0.078,0.0741 0.078,0.0741 0.0356,0.0448 0.0801,0.0956 0.1016,0.0441 0.0328,-0.0776 0.0589,-0.20637 0.0233,-0.27587 -0.0159,-0.031 -0.22225,-0.2921 -0.36336,-0.11324 m 18.36208,0.009 c -0.18344,0.23283 -0.19473,0.53869 -0.21907,0.87982 -0.0261,-0.0716 -0.17216,-0.52881 -0.63959,-0.79092 -0.0342,-0.0191 -0.10301,0.0173 -0.10936,0.12488 -0.004,0.0628 -0.0219,0.21519 0.0222,0.25858 0.0441,0.043 0.17463,0.12806 0.1965,0.1397 0.0219,0.012 0.0459,0.0138 0.0522,-0.0127 0.007,-0.0261 0.0367,-0.0864 0.0787,-0.043 0.0356,0.036 0.266,0.22648 0.38594,0.63041 0.0204,0.0536 0.0702,0.0589 0.0818,-0.0173 0.0275,-0.18662 0.0423,-0.51117 0.0572,-0.6096 0.0212,-0.13829 0.0868,-0.42333 0.26211,-0.27516 0.0399,0.0335 0.0822,0.078 0.0822,0.078 0.037,0.0469 0.0836,0.10019 0.10618,0.0462 0.0346,-0.0815 0.0621,-0.21696 0.0243,-0.28998 -0.0166,-0.0321 -0.23318,-0.30692 -0.38135,-0.11889 m -1.80058,-0.0109 c -0.0674,0.0395 -1.78752,1.03222 -1.85702,1.07703 -0.0702,0.0448 -0.0945,0.0568 -0.10583,0.11042 -0.0113,0.0536 -0.0166,0.085 -0.0198,0.0935 -0.0124,0.036 -0.0212,0.0804 0.0815,0.0134 0.0314,-0.0208 1.76177,-1.02059 1.8221,-1.05834 0.0582,-0.0363 0.0917,-0.0519 0.11535,-0.10795 0.0233,-0.0554 0.0293,-0.0656 0.0416,-0.10442 0.0134,-0.0409 0.0268,-0.085 -0.078,-0.0236 m -6.76205,0.0734 c -0.0363,0.0864 -0.18873,0.38382 -0.17074,0.73695 0.004,0.0815 0.0561,0.2413 0.17886,0.24695 0.0631,7.9e-4 0.14605,-0.0445 0.20708,-0.24307 0.0102,-0.0451 0.0169,-0.0811 0.0215,-0.0988 0.007,-0.0268 -0.0127,-0.0589 -0.0342,0.002 -0.048,0.12171 -0.16969,0.20531 -0.25788,0.0402 -0.0141,-0.0328 -0.073,-0.18203 0.0427,-0.50553 0.0236,-0.0624 0.0529,-0.15592 0.0529,-0.15592 0.0268,-0.0706 -0.003,-0.10972 -0.0402,-0.0233 m -8.10542,0.2092 c -0.0466,0.12277 -0.24765,0.54751 -0.18627,1.03082 0.0141,0.11183 0.10866,0.32596 0.29422,0.32102 0.096,-0.006 0.21625,-0.0758 0.28857,-0.35524 0.0116,-0.0632 0.0183,-0.11325 0.0233,-0.13794 0.007,-0.0377 -0.0251,-0.0801 -0.0515,0.007 -0.0607,0.17216 -0.23601,0.29987 -0.38523,0.0822 -0.0251,-0.0437 -0.12842,-0.24271 0.0152,-0.6992 0.0293,-0.0885 0.0649,-0.22014 0.0649,-0.22014 0.0321,-0.0998 -0.0162,-0.15063 -0.0632,-0.0282 m 5.22676,0.74613 c -0.0995,0.10901 -0.13053,0.18344 -0.16052,0.23036 -0.0409,0.0642 0.0106,0.0928 0.0571,0.0427 0.0462,-0.0497 0.0787,-0.0998 0.21414,-0.0963 0.13547,0.004 0.46038,-0.009 0.33902,0.0804 -0.121,0.0892 -0.20355,0.14076 -0.20355,0.14076 -0.0783,0.0564 -0.14782,0.16263 -0.009,0.10372 0.13934,-0.0589 0.32314,-0.15205 0.46425,-0.36407 0.0413,-0.0621 0.0892,-0.14464 -0.10195,-0.17321 -0.19085,-0.0286 -0.49954,-0.073 -0.59973,0.0356 m 9.97127,0.32632 c -0.0346,0.084 -0.17886,0.37465 -0.15663,0.71684 0.005,0.0794 0.0575,0.23354 0.17638,0.23777 0.0617,-2.6e-4 0.14182,-0.0451 0.19791,-0.23847 0.01,-0.0441 0.0162,-0.079 0.0201,-0.0963 0.006,-0.0261 -0.0134,-0.0571 -0.0332,0.003 -0.0452,0.11889 -0.16228,0.20144 -0.25012,0.0427 -0.0138,-0.0321 -0.073,-0.17604 0.0353,-0.49107 0.0219,-0.061 0.0497,-0.15205 0.0497,-0.15205 0.024,-0.0691 -0.005,-0.10689 -0.0395,-0.0222 m 3.30729,0.17286 c -0.0318,0.0783 -0.16545,0.34713 -0.14499,0.66428 0.005,0.0734 0.0533,0.2159 0.16369,0.21978 0.0572,-2.6e-4 0.13088,-0.0416 0.18309,-0.22084 0.009,-0.0406 0.0145,-0.073 0.0187,-0.0889 0.005,-0.0243 -0.0123,-0.0529 -0.0307,0.002 -0.042,0.11007 -0.15063,0.18662 -0.23142,0.0392 -0.0138,-0.0289 -0.0684,-0.16263 0.0321,-0.45438 0.0205,-0.0564 0.0459,-0.14076 0.0459,-0.14076 0.0229,-0.0639 -0.004,-0.0988 -0.0363,-0.0208 m -6.20642,0.008 -0.16863,0.23072 -0.32279,-0.23566 c -0.008,-0.006 -0.0194,-0.004 -0.0257,0.005 l -0.19509,0.26741 c -0.006,0.008 -0.005,0.0201 0.004,0.0261 l 0.33267,0.24271 c 0.008,0.006 0.0198,0.004 0.0261,-0.005 l 0.16792,-0.23071 0.32315,0.23565 c 0.008,0.006 0.0194,0.004 0.0257,-0.005 l 0.19509,-0.2674 c 0.006,-0.008 0.005,-0.0201 -0.003,-0.0261 l -0.33302,-0.24271 c -0.008,-0.006 -0.0194,-0.004 -0.0257,0.005 m -15.51376,0.2921 c -0.0455,0.15558 -0.24271,0.69498 -0.17286,1.3134 0.005,0.043 0.0173,0.0967 0.0363,0.15169 -0.006,0.0148 -0.0127,0.0307 -0.0198,0.049 -0.0882,0.23953 -0.28998,0.73519 -0.25223,1.31939 0.0109,0.16757 0.13864,1.06891 1.23931,1.03752 0.97472,-0.0282 1.99531,-0.86149 1.99531,-0.86149 0.10513,-0.0963 0.30656,-0.26458 0.32773,-0.756 10e-4,-0.0314 -0.004,-0.0878 -0.0159,-0.16016 1.33244,0.35948 2.419,-0.37183 2.4952,-0.43145 0.0762,-0.0589 0.13123,-0.25788 0.18627,-0.43568 0.055,-0.17745 0.0127,-0.30021 -0.0462,-0.38488 -0.14428,-0.20708 -0.45296,-0.43145 -0.72813,-0.50729 -0.57468,-0.13935 -1.03152,0.45684 -1.1243,0.57926 -0.0723,0.0952 -0.387,0.53199 -0.57327,0.81385 -0.1778,-0.0543 -0.29104,-0.12558 -0.35383,-0.17074 -0.054,-0.14287 -0.12171,-0.28822 -0.20532,-0.41628 -0.0504,-0.067 -0.0504,-0.0166 -0.0674,0.0423 -0.0169,0.0589 -0.0416,0.26881 -0.0416,0.26881 0.0797,0.16369 0.34466,0.70979 0.3108,0.84843 -0.0339,0.13864 -0.067,0.33585 -0.71402,0.68898 -0.1263,0.0713 -1.21003,0.76447 -2.05458,0.32773 -0.0967,-0.0466 -0.57362,-0.36971 -0.43251,-1.15112 0.0339,-0.18873 0.0759,-0.32138 0.12595,-0.48295 0.008,-0.0261 0.0148,-0.0504 0.0201,-0.0737 0.0487,0.0702 0.11325,0.12065 0.19474,0.11924 0.0967,-0.006 0.21766,-0.0938 0.28681,-0.45014 0.0109,-0.0797 0.0169,-0.14394 0.0219,-0.17569 0.007,-0.0476 -0.0272,-0.1023 -0.0526,0.008 -0.0586,0.21907 -0.23424,0.37959 -0.38876,0.0991 -0.0254,-0.0557 -0.1337,-0.31186 0.005,-0.89218 0.0279,-0.11289 0.0621,-0.28046 0.0621,-0.28046 0.0314,-0.127 -0.0187,-0.19261 -0.0646,-0.0367 m 5.55308,1.19698 c 0.13935,0.17745 -0.35525,0.34255 -0.62159,0.43145 -0.6283,0.18944 -1.07598,0.19791 -1.38677,0.14499 0.25893,-0.59549 0.72742,-0.9465 0.89993,-1.02059 0.1778,-0.0762 0.57997,-0.1778 1.10843,0.44415 m -4.15819,-1.18639 c -0.042,0.0815 -0.2159,0.36089 -0.21167,0.70238 0.001,0.079 0.0494,0.23566 0.17921,0.24694 0.067,0.004 0.15664,-0.0356 0.22896,-0.22436 0.013,-0.043 0.0222,-0.0773 0.0275,-0.0942 0.008,-0.0257 -0.0113,-0.0575 -0.0363,8e-4 -0.0561,0.115 -0.18839,0.18979 -0.27482,0.0265 -0.0138,-0.0321 -0.0702,-0.17921 0.0663,-0.48543 0.0275,-0.0593 0.0628,-0.14816 0.0628,-0.14816 0.0307,-0.0667 7.9e-4,-0.10584 -0.042,-0.0243 m 7.51981,0.0949 -0.19544,0.26705 c -0.006,0.009 -0.005,0.0205 0.004,0.0265 l 0.33267,0.24272 c 0.008,0.006 0.0198,0.004 0.0261,-0.005 l 0.19474,-0.26741 c 0.006,-0.008 0.005,-0.0201 -0.003,-0.0261 l -0.3329,-0.24274 c -0.008,-0.006 -0.0198,-0.004 -0.0254,0.005 m 7.90223,0.0183 c -0.0131,0.0452 -0.0459,0.23989 -0.0533,0.27976 -0.008,0.0402 -0.007,0.0801 0.0124,0.1143 0.0198,0.0342 0.0706,0.15275 0.10689,0.24906 0.0367,0.0963 0.41452,0.82409 0.44944,0.88864 0.0349,0.0642 0.042,0.11254 0.007,0.15522 -1.21285,1.27988 -3.55318,2.06658 -3.62726,2.10997 -0.0752,0.0434 -0.0557,0.0773 0.0705,0.055 0.18839,-0.0328 1.23931,-0.20849 1.53952,-0.35313 0.19756,-0.0953 0.88794,-0.43427 1.45204,-0.87665 -0.0159,0.11465 -0.0303,0.28222 -0.0222,0.4953 0.0381,1.02941 0.95815,0.85831 1.1998,0.80539 0.72355,-0.15875 1.60867,-1.15923 1.68381,-1.35996 0.0741,-0.19826 0.0854,-0.37959 0.0684,-0.53763 0.1905,-0.10301 0.59972,-0.43286 0.59972,-0.43286 0.0169,0.4385 0.36618,0.57009 0.47343,0.58914 0.50376,0.0765 0.756,-0.34431 0.86324,-0.48084 0.0917,0.2406 0.31221,0.28717 0.42545,0.30974 0.43463,0.0864 0.51894,-0.22084 0.54152,-0.29104 0.13652,-0.42368 -0.10901,-0.73942 -0.14076,-0.77399 -0.0314,-0.0353 -0.0473,-0.002 -0.0586,0.0388 -0.0109,0.0406 -0.0459,0.19368 -0.0681,0.28893 0,0 0.0907,0.14816 0.12312,0.22366 0.0325,0.0751 -0.0159,0.11606 -0.10901,0.1277 -0.26423,0.0325 -0.47519,-0.11923 -0.54821,-0.18908 -0.0723,-0.0699 0.006,-0.19333 0.0646,-0.34079 0.0469,-0.11818 -0.0399,-0.13229 -0.10654,-2.6e-4 -0.22402,0.58879 -0.53905,0.65229 -0.6216,0.67486 -0.74612,0.20355 -0.68192,-0.47872 -0.6791,-0.59055 0.003,-0.11147 -0.0787,-0.0705 -0.17074,0.003 -0.31432,0.25223 -0.56727,0.40005 -0.70273,0.46072 -0.11713,-0.2286 -0.28752,-0.37253 -0.35948,-0.42439 -0.80716,-0.58878 -0.87348,0.59937 -0.84949,0.72673 0.12312,0.50517 0.94756,0.19896 1.07738,0.18344 0.12947,-0.0152 0.0871,0.15557 0.0145,0.25717 -0.17886,0.25048 -0.38594,0.42969 -0.57256,0.58209 -0.79974,0.65299 -1.20156,0.60149 -1.32468,0.59725 -0.78563,-0.0222 -0.71331,-0.86889 -0.66992,-1.04951 0.23636,-0.20003 0.43921,-0.41769 0.55739,-0.6417 0.048,-0.12277 0.13052,-0.40182 -0.0187,-0.75178 -0.0787,-0.15381 -0.32632,-0.58596 -0.32632,-0.58596 0,0 0.18239,0.006 0.19968,0.005 0.0173,-2.6e-4 0.0519,-0.0183 0.007,-0.0695 -0.0441,-0.0512 -0.42756,-0.43321 -0.45085,-0.46426 -0.0233,-0.0307 -0.0444,-0.0529 -0.0571,-0.007 m 2.42217,1.7526 c 0,0 -0.10971,0.0631 -0.41698,0.0423 -0.25858,-0.0173 -0.23601,-0.11747 -0.20073,-0.15557 0.0385,-0.0416 0.35419,-0.24024 0.61771,0.11324 m -8.92774,-1.61854 c -0.03,0.0705 -0.15417,0.31256 -0.13935,0.59972 0.003,0.0663 0.0455,0.1965 0.1457,0.20108 0.0515,8e-4 0.11853,-0.036 0.16827,-0.1979 0.008,-0.0363 0.0141,-0.066 0.018,-0.0801 0.005,-0.0222 -0.0109,-0.0483 -0.0279,0.002 -0.0395,0.0984 -0.13864,0.16687 -0.2099,0.0325 -0.0116,-0.0265 -0.06,-0.14817 0.0349,-0.41099 0.0187,-0.0512 0.043,-0.12735 0.043,-0.12735 0.0212,-0.0572 -0.003,-0.0892 -0.0328,-0.019 m -8.79898,1.56739 c -0.042,0.0815 -0.2159,0.36089 -0.21167,0.70238 10e-4,0.079 0.0497,0.23565 0.17921,0.2473 0.0674,0.004 0.15663,-0.036 0.22931,-0.22472 0.013,-0.0427 0.0219,-0.0773 0.0272,-0.0945 0.008,-0.0254 -0.0109,-0.0575 -0.0363,8e-4 -0.0561,0.11536 -0.18838,0.19015 -0.27481,0.0265 -0.0138,-0.0317 -0.0699,-0.17886 0.0667,-0.48507 0.0272,-0.0593 0.0624,-0.14817 0.0624,-0.14817 0.0307,-0.0667 10e-4,-0.10583 -0.042,-0.0243 m 14.41026,-1.37337 c -0.0533,0.066 -0.58984,0.76977 -0.58984,0.76977 l -0.38982,-0.27834 c 0,0 0.15875,-0.0395 0.18662,-0.0476 0.0279,-0.008 0.0434,-0.0441 -0.006,-0.0695 -0.0501,-0.0261 -0.52035,-0.21343 -0.55633,-0.22789 -0.0353,-0.0145 -0.0483,-0.0311 -0.0515,0.007 -0.003,0.0381 -0.008,0.34748 -0.008,0.34748 0,0 -0.007,0.0215 0.0335,0.0452 0.0413,0.0233 0.0818,0.073 0.115,0.10689 0.0339,0.0335 0.47096,0.37853 0.49248,0.39088 0,0 -0.21872,0.38417 -0.24659,0.68509 -0.0279,0.30092 0.005,0.71614 0.41628,0.58244 0.11112,-0.0314 0.57185,-0.21484 0.67451,-0.53587 0.0335,-0.11854 0.12876,-0.33267 -0.0258,-0.54892 -0.0892,-0.12771 -0.44873,-0.3429 -0.44873,-0.3429 0,0 0.27623,-0.38171 0.30233,-0.42863 0.0265,-0.0466 0.12771,-0.3429 0.139,-0.41451 0.0113,-0.0716 0.0169,-0.10725 -0.0363,-0.0409 m -0.0942,1.62278 c -0.15276,0.12559 -0.47413,0.29175 -0.56445,0.30022 -0.0903,0.009 -0.32949,-0.0349 -0.22542,-0.28081 0.0356,-0.079 0.27516,-0.4886 0.27516,-0.4886 0.0889,0.049 0.66711,0.34325 0.51471,0.46919 m -10.37343,0.48507 c -0.0617,0.0286 -1.89442,0.73731 -2.07504,0.85125 -0.0903,0.0571 -0.1718,0.15523 -0.2099,0.26741 -0.0547,0.16263 -0.0325,0.33232 0.0741,0.36266 0.0744,0.0212 0.11218,0.0702 0.12841,0.0981 0.007,0.012 0.0201,0.006 0.0247,-0.001 0.10618,-0.15981 0.0409,-0.27587 -0.10054,-0.33514 -0.0564,-0.024 -0.0727,-0.1076 0.1591,-0.22049 0.21378,-0.10371 1.84503,-0.75529 1.89265,-0.78069 0.0642,-0.0342 0.10266,-0.0462 0.13229,-0.10301 0.0303,-0.0568 0.0377,-0.0663 0.0547,-0.10654 0.018,-0.0423 0.0363,-0.0875 -0.0804,-0.0325 m 16.60384,0.0765 c -0.0311,0.0864 -0.043,0.14288 -0.0399,0.17569 0.003,0.0332 0.0145,0.1397 0.0145,0.1397 -0.0321,0.0257 -0.16863,0.11112 -0.30551,0.0102 0.009,-0.0293 0.0268,-0.0885 0.0307,-0.12136 0.0152,-0.0504 -0.0159,-0.0878 -0.0409,-0.036 -0.0251,0.0529 -0.0829,0.22825 -0.12594,0.26776 -0.0434,0.0391 -0.0938,0.1845 -0.41981,0.037 -0.0564,-0.0219 -0.15698,-0.096 -0.31256,0.0607 -0.35242,0.32773 -0.59584,0.35348 -0.9913,0.49388 -0.048,0.0222 -0.14817,0.097 -0.0289,0.0854 0.11924,-0.012 0.61983,2.6e-4 0.89288,-0.31256 0.0572,-0.0557 0.12241,-0.20179 0.33902,-0.11677 0.1203,0.0452 0.34149,0.2353 0.58314,-0.14041 0.14252,0.0952 0.35913,0.0572 0.3937,-0.0476 0.0342,-0.10478 0.0737,-0.20885 0.0734,-0.27976 -2.7e-4,-0.0713 -0.006,-0.1651 -0.006,-0.1651 -0.005,-0.0564 -0.0247,-0.13687 -0.0561,-0.0508 m -14.36264,0.31468 c -0.0423,0.0815 -0.21661,0.36125 -0.21202,0.70238 0.001,0.079 0.0494,0.23566 0.17921,0.24695 0.0667,0.004 0.15628,-0.0353 0.22895,-0.22402 0.0134,-0.043 0.0222,-0.0776 0.0275,-0.0945 0.008,-0.0257 -0.0116,-0.0575 -0.0363,7.9e-4 -0.0561,0.11501 -0.18838,0.19015 -0.27481,0.0265 -0.0138,-0.0321 -0.0702,-0.17921 0.0663,-0.48542 0.0272,-0.0593 0.0628,-0.14781 0.0628,-0.14781 0.0303,-0.067 0.001,-0.10619 -0.0416,-0.0247 m 2.3181,0.004 c -0.0346,0.0811 -0.1778,0.35983 -0.16087,0.6918 0.004,0.0765 0.0526,0.22648 0.16792,0.23177 0.06,8e-4 0.13723,-0.0416 0.19438,-0.22825 0.0106,-0.0423 0.0166,-0.0758 0.0208,-0.0924 0.006,-0.0254 -0.012,-0.0554 -0.0325,0.002 -0.0452,0.1143 -0.15945,0.19297 -0.242,0.0377 -0.0134,-0.0307 -0.0691,-0.17074 0.0402,-0.47449 0.0219,-0.0586 0.0497,-0.14675 0.0497,-0.14675 0.0247,-0.066 -0.003,-0.10266 -0.0377,-0.0215 m 2.62043,0.47801 c -0.11959,0.0924 -0.39476,0.35984 -0.27093,0.48507 0.072,0.0579 0.10406,0.0868 0.10406,0.0868 -0.0339,0.0127 -0.0624,0.0448 -0.0825,0.0857 -0.0204,0.0409 -0.0233,0.0501 -0.0339,0.0734 -0.0102,0.0229 -0.0162,0.0543 0.0406,0.0219 0.0572,-0.0324 0.19226,-0.16086 0.55703,-0.2413 0.0508,-0.0106 0.0952,-0.0935 0.0952,-0.0935 0.0212,-0.0353 0.0639,-0.11677 -0.007,-0.0765 -0.0713,0.0402 -0.26176,0.097 -0.34643,0.0808 -0.0847,-0.0162 -0.18486,-0.0893 -0.20708,-0.12418 -0.0215,-0.0349 -0.0187,-0.0741 0.0487,-0.11253 0.067,-0.0388 0.14005,-0.0656 0.19156,0.0201 0.01,0.0141 0.0208,0.0141 0.0427,-0.008 0.0215,-0.0219 0.0649,-0.0822 0.0769,-0.0998 0.0113,-0.0173 0.0204,-0.0462 0.002,-0.0674 -0.0177,-0.0215 -0.0917,-0.12312 -0.21096,-0.0307 m 0.44591,0.67698 c -0.054,0.0205 -0.60219,0.19333 -0.65793,0.21767 -0.0564,0.0243 -0.0762,0.0296 -0.0907,0.0677 -0.0152,0.0377 -0.0226,0.06 -0.0261,0.0656 -0.0138,0.025 -0.0254,0.0561 0.0575,0.0198 0.0257,-0.0113 0.58208,-0.18768 0.63076,-0.20814 0.0469,-0.0194 0.0734,-0.0265 0.0974,-0.0642 0.0236,-0.0381 0.0296,-0.0445 0.0434,-0.0716 0.0148,-0.0282 0.03,-0.0589 -0.0543,-0.0268"
       style="fill:#231f20;fill-opacity:1;fill-rule:evenodd;stroke:none;stroke-width:0.264583"
       id="path1" />
  </g>
</svg>
