<?xml version="1.0" encoding="UTF-8" standalone="no"?>
<!-- Created with Inkscape (http://www.inkscape.org/) -->

<svg
   width="18.352617mm"
   height="7.1350136mm"
   viewBox="0 0 18.352617 7.1350136"
   version="1.1"
   id="svg1"
   xmlns="http://www.w3.org/2000/svg"
   xmlns:svg="http://www.w3.org/2000/svg">
  <defs
     id="defs1" />
  <g
     id="layer1"
     transform="translate(-110.97335,-156.67828)">
    <path
       d="m 115.39361,156.70872 c -0.0579,0.0325 -2.22179,0.99695 -2.38936,1.12113 -0.084,0.0628 -0.15628,0.1644 -0.18486,0.27658 -0.0413,0.16228 -0.007,0.32632 0.0984,0.34784 0.0741,0.0148 0.115,0.0603 0.13264,0.0861 0.008,0.0109 0.0201,0.004 0.024,-0.003 0.0917,-0.16369 0.0198,-0.27164 -0.12277,-0.31891 -0.0564,-0.019 -0.0787,-0.0998 0.139,-0.22684 0.20073,-0.11712 2.17205,-1.01035 2.2165,-1.03893 0.0603,-0.0385 0.0967,-0.0522 0.12171,-0.11007 0.0251,-0.0572 0.0318,-0.0677 0.0448,-0.10795 0.0148,-0.0427 0.0293,-0.0882 -0.0801,-0.0257 m 6.18984,0.74613 c -0.0702,0.10654 -0.12206,0.363 -0.0222,0.43568 0.10019,0.0734 0.24624,0.13264 0.24624,0.13264 -0.46602,0.57079 -0.78422,0.6798 -1.05692,0.83926 -0.0699,0.0413 -0.0557,0.078 -0.0152,0.067 0.0215,-0.005 0.38805,-0.0628 0.81633,-0.38771 0.23107,-0.17603 0.37112,-0.47625 0.37112,-0.47625 0,0 0.11606,0.0967 0.13159,0.11607 0.0356,0.0437 0.0547,0.0758 0.0709,0.03 0.0607,-0.16898 -0.0251,-0.27093 -0.10724,-0.32349 0,0 0.0854,-0.26317 -0.0716,-0.52705 -0.0261,-0.0444 -0.18204,-0.18556 -0.36301,0.0938 m 0.24341,0.0727 c 0.10549,0.0977 0.0889,0.25788 0.085,0.29457 0,0 -0.13405,-0.0628 -0.19438,-0.0885 -0.0596,-0.0254 -0.0907,-0.0635 -0.0631,-0.1016 0.0921,-0.13018 0.13758,-0.12559 0.1725,-0.10442 m -1.73566,-0.20532 c -0.0159,0.0392 -0.13688,0.3362 -0.13688,0.3362 0.003,0.0173 0.0363,0.14711 0.0423,0.19544 0.0561,0.42862 0.40711,2.9598 0.508,3.76026 0.0494,0.39405 0.0878,0.74824 0.0935,0.93874 -0.005,0.0586 0.0212,0.0804 0.048,0.024 0.0145,-0.0303 0.0751,-0.15557 0.0935,-0.48401 0.0138,-0.24624 -0.006,-0.62547 -0.0762,-1.14688 -0.0102,-0.0762 -0.37535,-2.72062 -0.37535,-2.72062 0,0 0.1972,0.18521 0.2286,0.21872 0.0317,0.0335 0.0702,0.0159 0.0522,-0.0381 -0.018,-0.054 -0.42192,-1.03046 -0.43533,-1.06433 -0.013,-0.0339 -0.0257,-0.0586 -0.0423,-0.0194 m -3.6188,0.0684 c -0.14605,0.22331 -0.13229,0.49919 -0.127,0.80751 -0.0289,-0.0621 -0.19649,-0.46143 -0.63746,-0.65969 -0.0321,-0.0145 -0.091,0.0236 -0.0882,0.12065 10e-4,0.0568 -0.003,0.19508 0.0406,0.23036 0.0434,0.0353 0.16686,0.10125 0.18768,0.11042 0.0208,0.009 0.0423,0.009 0.0462,-0.0155 0.004,-0.024 0.0254,-0.0808 0.0667,-0.0451 0.0353,0.0296 0.25717,0.18274 0.39652,0.53587 0.0226,0.0466 0.0677,0.0473 0.0723,-0.0219 0.01,-0.17004 -0.002,-0.46285 0.003,-0.5521 0.008,-0.12594 0.0448,-0.38735 0.21379,-0.26811 0.0384,0.0268 0.0801,0.0635 0.0801,0.0635 0.0367,0.0392 0.0829,0.0833 0.0991,0.0332 0.0243,-0.0759 0.0388,-0.19967 -0.001,-0.26247 -0.018,-0.0279 -0.23424,-0.25717 -0.35243,-0.0765 m 2.54141,-0.0469 c -0.0162,0.0392 -0.14569,0.32456 -0.14569,0.32456 0.004,0.0233 0.0339,0.0938 0.0547,0.23812 0.0222,0.14958 0.48119,3.59834 0.48754,3.68194 0.007,0.0833 0.002,0.10055 -0.0173,0.12489 -0.0198,0.0243 -0.44097,0.3115 -0.83397,0.21696 -0.0441,-0.0113 -0.21272,-0.0109 -0.38417,-0.21061 0.16757,-0.11536 0.38735,-0.30304 0.44062,-0.63536 0.0293,-0.13899 0.0335,-0.49177 -0.2353,-0.73977 -0.12171,-0.0836 -0.24765,-0.10478 -0.38242,0 -0.13405,0.10548 -0.30232,0.3362 -0.27692,0.66816 0.0102,0.13476 0.0427,0.33514 0.10301,0.53799 -0.13794,0.0751 -0.29422,0.14957 -0.46285,0.21484 -0.3683,0.14287 -0.87489,0.27799 -1.46861,0.2219 -0.30692,-0.0208 -0.79446,-0.18698 -0.96944,-1.21427 -0.0289,-0.24377 -0.42827,-2.91958 -0.46178,-3.05399 -0.0339,-0.13441 -0.0473,-0.0861 -0.0702,-0.0392 -0.0236,0.0466 -0.11923,0.23953 -0.0956,0.43074 0.0233,0.1912 0.24977,1.65841 0.27094,1.8348 0.009,0.0755 0.0519,0.3436 0.10301,0.64205 -0.0117,0.0522 -0.0247,0.0988 -0.0459,0.15628 -0.11466,0.21096 -0.30128,0.3355 -0.49495,0.40781 -0.12171,-0.25611 -0.29951,-0.42615 -0.42969,-0.51611 -0.21554,-0.14923 -0.46496,0.11959 -0.51399,0.20885 -0.20708,0.37359 -0.12242,0.55456 -0.0847,0.6163 0.21131,0.31856 0.68545,0.18944 0.8188,0.16051 0.0462,-0.01 0.0892,-0.0208 0.12947,-0.0328 0.0381,0.0914 0.0589,0.16228 0.0624,0.18027 0.0113,0.0561 -0.0194,0.10936 -0.0504,0.14817 -0.1658,0.21167 -0.77046,0.6096 -0.93803,0.70026 -0.87595,0.4759 -1.40018,0.15699 -1.54023,0.0815 -0.63924,-0.34326 -0.36195,-1.24002 -0.25965,-1.51236 0.0674,-0.0445 0.139,-0.1457 0.19897,-0.35278 0.0159,-0.0713 0.0268,-0.12841 0.0335,-0.15664 0.01,-0.0427 -0.0169,-0.0942 -0.049,0.004 -0.0709,0.19227 -0.24554,0.32385 -0.36654,0.0593 -0.0194,-0.0519 -0.0995,-0.29104 0.073,-0.80328 0.0349,-0.0995 0.0794,-0.248 0.0794,-0.248 0.0388,-0.11183 -0.002,-0.17462 -0.0568,-0.0377 -0.0543,0.13688 -0.27763,0.60749 -0.2607,1.17017 0.004,0.12312 0.0667,0.35807 0.22119,0.39229 -0.009,0.0141 -0.0162,0.0282 -0.0219,0.0406 -0.18591,0.40075 -0.16545,0.86818 -0.14569,1.00541 0.0921,1.01636 0.97684,1.01494 1.20403,1.01353 0.85231,-0.005 1.68875,-0.81774 1.85949,-0.99695 0.17074,-0.17921 0.16616,-0.40075 0.17462,-0.50729 -7.9e-4,-0.0896 -0.008,-0.17427 -0.0222,-0.25294 0.35348,-0.16687 0.44344,-0.42581 0.48719,-0.57256 0.0494,0.28187 0.096,0.53516 0.11641,0.62018 0.0504,0.2099 0.29316,1.08127 1.7646,0.79375 0.38911,-0.0758 1.06786,-0.35383 1.33138,-0.49106 0.0843,0.17497 0.19509,0.32455 0.33584,0.39863 0.23531,0.1136 0.83185,0.18909 1.1684,-0.23495 0.0921,-0.17215 0.20991,-0.36547 0.11748,-1.12606 -0.0296,-0.25612 -0.3549,-2.65642 -0.3549,-2.65642 0,0 0.19756,0.18521 0.22896,0.21872 0.0318,0.0335 0.0705,0.0159 0.0522,-0.0381 -0.018,-0.054 -0.42192,-1.03046 -0.43533,-1.06433 -0.013,-0.0339 -0.0257,-0.0586 -0.0423,-0.0194 m -0.77259,3.37361 c 0.0854,0.1009 0.25295,0.32138 0.19968,0.39017 -0.0533,0.0692 -0.20849,0.19791 -0.43357,0.33691 -0.0254,-0.0575 -0.0504,-0.12171 -0.0734,-0.19438 -0.0307,-0.0808 -0.13582,-0.33338 0.0152,-0.48014 0.0466,-0.0504 0.20673,-0.15381 0.2921,-0.0526 m -4.62562,0.32879 c 0.0857,0.0335 0.16157,0.0995 0.22542,0.17815 -0.22895,0.0356 -0.42122,0.0169 -0.45826,0.01 -0.0811,-0.0166 -0.10371,-0.073 -0.0392,-0.12877 0.0646,-0.0561 0.16828,-0.0924 0.272,-0.0589 m 14.49034,-3.49568 c -0.0702,0.1069 -0.12241,0.36266 -0.0226,0.43569 0.10019,0.0734 0.24659,0.13264 0.24659,0.13264 -0.46602,0.5708 -1.38077,0.97684 -1.59808,1.14653 -0.0649,0.049 -0.0564,0.0783 -0.0155,0.067 0.0367,-0.01 0.73342,-0.20461 1.37054,-0.75036 0.2921,-0.25012 0.28399,-0.26882 0.35842,-0.42087 0.0628,0.0328 0.10654,0.0857 0.13159,0.11607 0.0349,0.0437 0.054,0.0762 0.0709,0.03 0.061,-0.16898 -0.0251,-0.27093 -0.10795,-0.32349 0,0 0.0857,-0.26318 -0.0709,-0.52705 -0.0268,-0.0444 -0.18274,-0.18557 -0.36301,0.0938 m 0.24342,0.0727 c 0.10477,0.0977 0.0889,0.25788 0.0847,0.29457 0,0 -0.1337,-0.0624 -0.19402,-0.0885 -0.0596,-0.0254 -0.0914,-0.0635 -0.0635,-0.1016 0.0924,-0.12982 0.13793,-0.12559 0.17286,-0.10442 m -1.78859,-0.16545 c -0.18309,0.23283 -0.19473,0.53869 -0.21907,0.87982 -0.0258,-0.0713 -0.17216,-0.52881 -0.63959,-0.79092 -0.0339,-0.019 -0.10301,0.0173 -0.10936,0.12488 -0.004,0.0628 -0.0219,0.21519 0.0222,0.25858 0.0444,0.043 0.17498,0.12771 0.19685,0.14006 0.0219,0.012 0.0455,0.0134 0.0519,-0.0127 0.007,-0.0261 0.0367,-0.0871 0.079,-0.0434 0.0356,0.036 0.26599,0.22649 0.38594,0.63077 0.0204,0.0533 0.0698,0.0586 0.0815,-0.0177 0.0275,-0.18662 0.0427,-0.51117 0.0572,-0.6096 0.0212,-0.13793 0.0871,-0.42333 0.26247,-0.27516 0.0399,0.0339 0.0818,0.078 0.0818,0.078 0.037,0.0469 0.0836,0.10019 0.10654,0.0462 0.0342,-0.0815 0.0621,-0.2166 0.0243,-0.28998 -0.0169,-0.0325 -0.23354,-0.30692 -0.38171,-0.11888 m -1.80057,-0.0109 c -0.0674,0.0395 -1.78753,1.03223 -1.85703,1.07738 -0.0699,0.0448 -0.0942,0.0564 -0.10548,0.11007 -0.0113,0.054 -0.0169,0.0847 -0.0198,0.0935 -0.0127,0.036 -0.0215,0.0804 0.0811,0.013 0.0321,-0.0205 1.76212,-1.02023 1.82245,-1.05798 0.0582,-0.0367 0.0914,-0.0519 0.11535,-0.10795 0.0229,-0.0554 0.0293,-0.0656 0.0413,-0.10442 0.0134,-0.0409 0.0268,-0.085 -0.078,-0.0236 m -12.79914,0.21025 c -0.15839,0.20108 -0.16862,0.46567 -0.18944,0.76059 -0.0222,-0.0617 -0.14887,-0.4572 -0.55315,-0.68368 -0.0293,-0.0166 -0.0889,0.0145 -0.0942,0.10795 -0.004,0.054 -0.0191,0.18591 0.019,0.2233 0.0381,0.0374 0.15098,0.11042 0.17003,0.12101 0.0191,0.0106 0.0392,0.012 0.0452,-0.0109 0.006,-0.0226 0.0314,-0.0748 0.0677,-0.0374 0.031,0.031 0.23037,0.19615 0.33373,0.5454 0.018,0.0462 0.061,0.0504 0.0706,-0.0152 0.024,-0.16157 0.037,-0.44203 0.0501,-0.52705 0.0177,-0.11959 0.0748,-0.36619 0.22648,-0.23813 0.0342,0.0293 0.0706,0.0674 0.0706,0.0674 0.0321,0.0406 0.0727,0.0868 0.0921,0.0402 0.03,-0.0706 0.0536,-0.18768 0.0215,-0.25082 -0.0145,-0.0282 -0.20214,-0.26565 -0.3302,-0.10266 m 6.65304,0.53481 c -0.0582,0.0328 -2.91641,1.33985 -3.08434,1.46438 -0.084,0.0624 -0.15627,0.16404 -0.1845,0.27587 -0.0409,0.16263 -0.008,0.32667 0.0984,0.34819 0.0741,0.0152 0.11465,0.0603 0.13264,0.0861 0.008,0.0109 0.0198,0.004 0.024,-0.003 0.0914,-0.16369 0.0198,-0.27199 -0.12277,-0.31962 -0.0564,-0.0187 -0.0787,-0.0995 0.13864,-0.22648 0.20074,-0.11677 2.86703,-1.35325 2.91148,-1.38183 0.0607,-0.0381 0.0967,-0.0522 0.12206,-0.11007 0.0251,-0.0572 0.0314,-0.0677 0.0452,-0.10759 0.0141,-0.0427 0.0286,-0.0882 -0.0808,-0.0261 m -0.73484,1.21603 -0.19473,0.26705 c -0.007,0.008 -0.005,0.0205 0.003,0.0265 l 0.33303,0.24236 c 0.008,0.006 0.0198,0.004 0.0254,-0.005 l 0.19508,-0.26705 c 0.006,-0.008 0.005,-0.0204 -0.003,-0.0265 l -0.33302,-0.24271 c -0.008,-0.006 -0.0198,-0.004 -0.0258,0.005 m -1.19097,0.98884 c -0.0381,0.10018 -0.20179,0.44556 -0.15135,0.83961 0.0117,0.091 0.0882,0.26529 0.23954,0.26105 0.0776,-0.005 0.17604,-0.0617 0.23495,-0.28928 0.01,-0.0512 0.0148,-0.0924 0.0187,-0.11253 0.006,-0.0307 -0.0201,-0.0653 -0.042,0.006 -0.0494,0.14006 -0.19226,0.24413 -0.31361,0.067 -0.0201,-0.0356 -0.10443,-0.1979 0.0127,-0.56903 0.0236,-0.0723 0.0526,-0.17956 0.0526,-0.17956 0.0265,-0.0815 -0.013,-0.12277 -0.0515,-0.0229 m 8.40246,-1.59526 c -0.0346,0.0847 -0.1785,0.375 -0.15628,0.71755 0.005,0.079 0.0575,0.23354 0.17639,0.23742 0.0617,-2.7e-4 0.14147,-0.0448 0.19791,-0.23883 0.01,-0.0434 0.0162,-0.0787 0.0201,-0.0956 0.006,-0.0264 -0.013,-0.0575 -0.0332,0.002 -0.0452,0.11854 -0.16228,0.20144 -0.25012,0.0423 -0.0141,-0.0314 -0.0734,-0.17569 0.0353,-0.49072 0.0219,-0.061 0.0494,-0.1524 0.0494,-0.1524 0.0247,-0.0688 -0.005,-0.10618 -0.0395,-0.0222 m 3.30765,0.17356 c -0.0321,0.078 -0.16545,0.34679 -0.14499,0.66393 0.004,0.073 0.0529,0.21626 0.16369,0.21978 0.0568,0 0.13088,-0.0413 0.18274,-0.22083 0.01,-0.0406 0.0148,-0.073 0.0187,-0.0893 0.006,-0.024 -0.012,-0.0526 -0.0307,0.003 -0.0416,0.11007 -0.15028,0.18662 -0.23142,0.0395 -0.013,-0.0293 -0.0684,-0.16298 0.0325,-0.45437 0.0201,-0.0568 0.0459,-0.14111 0.0459,-0.14111 0.0226,-0.0639 -0.004,-0.0984 -0.0363,-0.0205 m -6.20642,0.008 -0.16863,0.23106 -0.32279,-0.23565 c -0.008,-0.006 -0.0198,-0.004 -0.0261,0.005 l -0.19438,0.2674 c -0.007,0.008 -0.005,0.0201 0.003,0.0261 l 0.33302,0.24271 c 0.008,0.006 0.0194,0.004 0.0257,-0.005 l 0.16793,-0.23071 0.32314,0.2353 c 0.008,0.006 0.0198,0.004 0.0261,-0.005 l 0.19474,-0.26741 c 0.006,-0.009 0.005,-0.0205 -0.003,-0.0261 l -0.33338,-0.24271 c -0.008,-0.006 -0.0194,-0.004 -0.0254,0.005 m -10.11837,0.44062 c -0.0349,0.0921 -0.18591,0.41064 -0.1397,0.77364 0.0109,0.084 0.0811,0.24448 0.22084,0.2406 0.0723,-0.004 0.16228,-0.0568 0.21661,-0.2667 0.009,-0.0473 0.0138,-0.085 0.0176,-0.10336 0.006,-0.0282 -0.0191,-0.0603 -0.0385,0.005 -0.0455,0.12947 -0.17745,0.22543 -0.28963,0.0617 -0.0183,-0.0328 -0.0963,-0.18203 0.012,-0.52458 0.0215,-0.0667 0.0483,-0.1651 0.0483,-0.1651 0.0247,-0.0751 -0.012,-0.11324 -0.0476,-0.0212 m 11.42118,-0.0247 c -0.013,0.0455 -0.0452,0.23989 -0.0529,0.28011 -0.008,0.0399 -0.007,0.0797 0.0124,0.11395 0.0198,0.0346 0.0702,0.15275 0.10689,0.24906 0.0363,0.0963 0.41451,0.82444 0.44909,0.88865 0.0349,0.0645 0.0423,0.11288 0.007,0.15522 -1.21285,1.27988 -3.55282,2.06657 -3.62761,2.10996 -0.0748,0.0438 -0.0554,0.0773 0.0709,0.0554 0.18838,-0.0332 1.23931,-0.20885 1.53917,-0.35349 0.19791,-0.0949 0.88794,-0.43391 1.45238,-0.8763 -0.0162,0.1143 -0.0303,0.28223 -0.0226,0.49566 0.0381,1.0287 0.95849,0.85795 1.20015,0.80504 0.72354,-0.15911 1.60831,-1.15888 1.68345,-1.36031 0.0744,-0.19827 0.0854,-0.37924 0.0688,-0.53764 0.19015,-0.10301 0.59937,-0.43321 0.59937,-0.43321 0.0173,0.43921 0.36619,0.5708 0.47414,0.58949 0.50341,0.0769 0.75565,-0.34396 0.86289,-0.48048 0.0914,0.24059 0.31221,0.28716 0.42545,0.30974 0.43462,0.0864 0.51929,-0.22119 0.54151,-0.29104 0.13617,-0.42369 -0.109,-0.73943 -0.14075,-0.77435 -0.0317,-0.0353 -0.0476,-0.001 -0.0586,0.0392 -0.0113,0.0406 -0.0462,0.19332 -0.0681,0.28892 0,0 0.0907,0.14782 0.12276,0.22331 0.0325,0.0755 -0.0155,0.11677 -0.109,0.12806 -0.26424,0.0321 -0.4752,-0.11924 -0.54787,-0.18909 -0.0727,-0.0702 0.006,-0.19332 0.0646,-0.34114 0.0469,-0.11782 -0.0402,-0.13229 -0.10654,-2.6e-4 -0.22436,0.58914 -0.53834,0.65264 -0.62159,0.67522 -0.74613,0.20284 -0.68157,-0.47908 -0.67945,-0.59091 0.003,-0.11148 -0.0787,-0.0702 -0.17075,0.003 -0.31397,0.25259 -0.56656,0.4004 -0.70273,0.46108 -0.11712,-0.22895 -0.28752,-0.37289 -0.35913,-0.42475 -0.80751,-0.58878 -0.87383,0.59937 -0.84949,0.72673 0.12312,0.50517 0.94792,0.19896 1.07703,0.18379 0.12947,-0.0152 0.0871,0.15558 0.0148,0.25683 -0.17921,0.25047 -0.38594,0.43003 -0.57291,0.58243 -0.79975,0.65229 -1.20121,0.60113 -1.32468,0.5969 -0.78564,-0.0219 -0.71332,-0.86854 -0.66993,-1.04916 0.23636,-0.20038 0.43956,-0.41804 0.55739,-0.6417 0.0483,-0.12277 0.13088,-0.40146 -0.0183,-0.75177 -0.079,-0.15416 -0.32668,-0.58632 -0.32668,-0.58632 0,0 0.18274,0.006 0.19968,0.005 0.0176,-2.6e-4 0.0519,-0.018 0.007,-0.0691 -0.0441,-0.0512 -0.42721,-0.43357 -0.45014,-0.46426 -0.0233,-0.0307 -0.0444,-0.0529 -0.0579,-0.008 m 2.42288,1.7526 c 0,0 -0.11042,0.0635 -0.41769,0.043 -0.25753,-0.0177 -0.23565,-0.11818 -0.20038,-0.15628 0.0385,-0.0416 0.35419,-0.24024 0.61807,0.11324 m -12.28689,-1.55081 -0.16793,0.23072 -0.32314,-0.23566 c -0.008,-0.006 -0.0194,-0.004 -0.0258,0.005 l -0.19508,0.2674 c -0.006,0.008 -0.005,0.0201 0.003,0.0261 l 0.33303,0.24271 c 0.008,0.006 0.0198,0.004 0.0254,-0.005 l 0.16862,-0.23072 0.32279,0.23566 c 0.008,0.006 0.0201,0.004 0.0258,-0.005 l 0.19543,-0.26741 c 0.006,-0.008 0.005,-0.0201 -0.004,-0.0261 l -0.33303,-0.24271 c -0.008,-0.006 -0.0194,-0.004 -0.0257,0.005 m -1.25413,1.61537 c -0.0356,0.0917 -0.18626,0.41064 -0.14005,0.77329 0.0109,0.0843 0.0815,0.24483 0.22049,0.2413 0.072,-0.004 0.16227,-0.0572 0.21696,-0.26705 0.008,-0.0473 0.0141,-0.085 0.0173,-0.10372 0.005,-0.0279 -0.0187,-0.06 -0.0388,0.005 -0.0452,0.12947 -0.1771,0.22508 -0.28893,0.0617 -0.0187,-0.0328 -0.0963,-0.18203 0.0116,-0.52458 0.0215,-0.0667 0.0487,-0.16545 0.0487,-0.16545 0.024,-0.0748 -0.0124,-0.11289 -0.0473,-0.0208 m 10.22385,-1.48943 c -0.0533,0.0663 -0.58949,0.77011 -0.58949,0.77011 l -0.38982,-0.27799 c 0,0 0.15875,-0.0399 0.18626,-0.048 0.0279,-0.008 0.0438,-0.0441 -0.006,-0.0695 -0.0501,-0.0257 -0.52035,-0.21343 -0.55633,-0.2279 -0.0353,-0.0145 -0.0483,-0.0307 -0.0515,0.007 -0.004,0.0384 -0.008,0.34819 -0.008,0.34819 0,0 -0.007,0.0215 0.0335,0.0448 0.0409,0.0233 0.0815,0.0734 0.115,0.10654 0.0335,0.0339 0.47096,0.37888 0.49248,0.39123 0,0 -0.21907,0.38453 -0.24659,0.68545 -0.0279,0.30092 0.005,0.71614 0.41663,0.58243 0.11077,-0.0317 0.5715,-0.21484 0.67451,-0.53622 0.0332,-0.11853 0.12806,-0.33196 -0.0265,-0.54892 -0.0889,-0.12735 -0.44873,-0.34255 -0.44873,-0.34255 0,0 0.27622,-0.38206 0.30233,-0.42898 0.0265,-0.0466 0.12841,-0.34254 0.13935,-0.41416 0.0113,-0.072 0.0169,-0.10759 -0.0367,-0.0416 m -0.0942,1.62313 c -0.15275,0.12594 -0.47414,0.29174 -0.56409,0.30056 -0.0903,0.008 -0.32985,-0.0353 -0.22578,-0.28046 0.0356,-0.0797 0.27517,-0.4893 0.27517,-0.4893 0.0893,0.0494 0.66745,0.34361 0.5147,0.4692 m 6.23076,0.56162 c -0.0314,0.0868 -0.0434,0.14358 -0.0399,0.17603 0.003,0.0328 0.0148,0.13935 0.0148,0.13935 -0.0325,0.0257 -0.16933,0.11113 -0.30586,0.0102 0.009,-0.0289 0.0268,-0.0885 0.0307,-0.121 0.0148,-0.0508 -0.0162,-0.0885 -0.0413,-0.036 -0.0247,0.0526 -0.0829,0.22825 -0.12559,0.26776 -0.043,0.0395 -0.0938,0.18486 -0.42016,0.037 -0.0564,-0.0219 -0.15663,-0.096 -0.31221,0.0603 -0.35277,0.32808 -0.59584,0.35348 -0.9913,0.49389 -0.0483,0.0219 -0.14817,0.0974 -0.0293,0.0857 0.11959,-0.012 0.62053,0 0.89288,-0.31291 0.0571,-0.0554 0.12241,-0.20144 0.33902,-0.11677 0.12029,0.0459 0.34184,0.23566 0.58349,-0.14041 0.14288,0.0949 0.35913,0.0572 0.3937,-0.0476 0.0342,-0.10442 0.0741,-0.20885 0.0737,-0.27975 -2.6e-4,-0.0713 -0.007,-0.1651 -0.007,-0.1651 -0.005,-0.0561 -0.0247,-0.13653 -0.0561,-0.0508 m -8.96197,0.29315 c -0.0314,0.0766 -0.16227,0.34079 -0.14252,0.65194 0.005,0.072 0.0526,0.21202 0.16087,0.21555 0.0557,0 0.12841,-0.0406 0.17956,-0.21661 0.009,-0.0399 0.0148,-0.072 0.0183,-0.0875 0.005,-0.0236 -0.0117,-0.0515 -0.03,0.002 -0.0413,0.10795 -0.14746,0.18344 -0.22754,0.0388 -0.0127,-0.0286 -0.0663,-0.15945 0.0324,-0.44591 0.0194,-0.0557 0.0444,-0.13864 0.0444,-0.13864 0.0226,-0.0624 -0.004,-0.0967 -0.0356,-0.0201 m -2.26342,0.12912 c -0.031,0.0765 -0.16192,0.34008 -0.14217,0.65158 0.005,0.0716 0.0522,0.21167 0.16051,0.2159 0.0561,-2.6e-4 0.12842,-0.0409 0.17992,-0.21696 0.009,-0.0399 0.0145,-0.0716 0.0183,-0.0871 0.005,-0.024 -0.012,-0.0522 -0.0303,0.002 -0.0409,0.10759 -0.14746,0.18309 -0.22754,0.0381 -0.0127,-0.0282 -0.0663,-0.15946 0.0324,-0.44592 0.0198,-0.0554 0.0448,-0.13828 0.0448,-0.13828 0.0226,-0.0628 -0.004,-0.0967 -0.036,-0.0198 m -3.15242,0.67204 c -0.0699,0.0353 -1.2894,0.52459 -1.36172,0.5648 -0.0723,0.0406 -0.0977,0.0505 -0.11254,0.10337 -0.0145,0.0529 -0.0222,0.0836 -0.0254,0.0924 -0.0148,0.0346 -0.0265,0.0787 0.0801,0.018 0.0332,-0.0187 1.26577,-0.51365 1.32574,-0.54822 0.0596,-0.0339 0.0949,-0.0459 0.12171,-0.10019 0.0272,-0.054 0.0339,-0.0635 0.0483,-0.10125 0.0162,-0.0402 0.0321,-0.0832 -0.0762,-0.0289"
       style="fill:#231f20;fill-opacity:1;fill-rule:evenodd;stroke:none;stroke-width:0.264583"
       id="path1-2" />
  </g>
</svg>
