<?xml version="1.0" encoding="UTF-8" standalone="no"?>
<!-- Created with Inkscape (http://www.inkscape.org/) -->

<svg
   width="19.927877mm"
   height="6.079926mm"
   viewBox="0 0 19.927877 6.079926"
   version="1.1"
   id="svg1"
   xmlns="http://www.w3.org/2000/svg"
   xmlns:svg="http://www.w3.org/2000/svg">
  <defs
     id="defs1" />
  <g
     id="layer1"
     transform="translate(-128.97057,-212.27439)">
    <path
       d="m 141.15662,212.44338 c -0.0699,0.10618 -0.12241,0.36265 -0.0226,0.43568 0.10054,0.0734 0.24694,0.13229 0.24694,0.13229 -0.46602,0.57115 -0.78493,0.68016 -1.05727,0.83961 -0.0702,0.0413 -0.0565,0.0776 -0.0152,0.0667 0.0215,-0.006 0.3877,-0.0628 0.81597,-0.38735 0.23107,-0.17603 0.37148,-0.47625 0.37148,-0.47625 0,0 0.11606,0.0963 0.13194,0.11607 0.0349,0.0434 0.054,0.0759 0.0705,0.0296 0.061,-0.16862 -0.0251,-0.27058 -0.1076,-0.32314 0,0 0.0857,-0.26317 -0.0716,-0.52705 -0.0261,-0.0444 -0.18168,-0.18556 -0.36266,0.0938 m 0.24342,0.073 c 0.10513,0.0974 0.0889,0.25753 0.085,0.29422 0,0 -0.13405,-0.0632 -0.19403,-0.0885 -0.0596,-0.0257 -0.0914,-0.0635 -0.0635,-0.10195 0.0921,-0.12982 0.13759,-0.12524 0.17251,-0.10372 m -1.72579,-0.20284 c -0.0166,0.0395 -0.13829,0.33584 -0.13829,0.33584 0.002,0.0173 0.0356,0.14711 0.0416,0.19579 0.055,0.42863 0.39723,2.96122 0.49566,3.76132 0.048,0.39405 0.0857,0.74894 0.0899,0.93874 -0.004,0.0593 0.0212,0.0811 0.0483,0.025 0.0145,-0.0307 0.0755,-0.15557 0.0949,-0.48365 0.0148,-0.24695 -0.004,-0.62583 -0.072,-1.14759 -0.0106,-0.0758 -0.36689,-2.72133 -0.36689,-2.72133 0,0 0.1965,0.18556 0.2279,0.21943 0.0317,0.0339 0.0702,0.0159 0.0526,-0.0385 -0.018,-0.054 -0.41874,-1.03152 -0.43144,-1.06539 -0.013,-0.0339 -0.0257,-0.0586 -0.0423,-0.0198 m -0.99977,0.0148 c -0.0173,0.0388 -0.15346,0.32138 -0.15346,0.32138 0.003,0.0233 0.0321,0.0942 0.0501,0.23883 0.0159,0.12877 0.40993,3.0861 0.42439,3.24909 0.0145,0.16298 0.0649,0.59725 0.0505,0.6551 -0.0145,0.0579 -0.32915,0.39441 -0.77047,0.26388 -0.0797,-0.0254 -0.26388,-0.15557 -0.30374,-0.39793 -0.007,-0.0758 0,-0.15205 0.004,-0.2025 0.004,-0.0504 -0.0251,-0.0653 -0.0829,-0.0325 -0.0582,0.0325 -1.10701,0.80327 -2.10255,0.83291 -0.15099,0 -1.23507,0.0166 -1.28552,-1.18463 -0.0212,-0.17639 -0.20603,-3.0794 -0.41275,-3.6957 -0.0508,-0.10089 -0.0787,0.0452 -0.0896,0.073 -0.0116,0.0279 -0.073,0.24095 -0.073,0.24095 0.1397,0.48754 0.34149,3.39937 0.38629,3.67418 0.0448,0.27446 0.0674,1.29928 1.45097,1.28834 0.89042,-0.0116 2.02777,-0.8008 2.02777,-0.8008 0,0 0.061,0.61595 0.67733,0.62724 0.19579,-0.006 0.68898,-0.0956 0.72814,-0.69497 0.0335,-0.25189 -0.0113,-0.83432 -0.0452,-1.1423 -0.0317,-0.2928 -0.30409,-2.40594 -0.30409,-2.40594 0,0 0.19296,0.18944 0.22401,0.22366 0.0307,0.0342 0.0698,0.0173 0.0529,-0.037 -0.0169,-0.0543 -0.39829,-1.03928 -0.41064,-1.07386 -0.0124,-0.0342 -0.0247,-0.0593 -0.042,-0.0204 m -2.90477,0.067 c -0.15557,0.23459 -0.14323,0.52599 -0.14005,0.85125 -0.03,-0.066 -0.20391,-0.48824 -0.66746,-0.70062 -0.0335,-0.0155 -0.0963,0.024 -0.0938,0.12665 0.001,0.06 -0.004,0.20567 0.0409,0.24306 0.0455,0.0377 0.17568,0.10831 0.19685,0.11748 0.0226,0.0102 0.0444,0.01 0.049,-0.0159 0.004,-0.025 0.0275,-0.085 0.0709,-0.0469 0.037,0.0314 0.26988,0.19403 0.41452,0.56798 0.024,0.0494 0.0713,0.0508 0.0762,-0.0222 0.012,-0.17956 0.001,-0.48824 0.007,-0.58279 0.01,-0.13264 0.0498,-0.40816 0.22755,-0.28151 0.0402,0.0293 0.0832,0.0681 0.0832,0.0681 0.0395,0.0413 0.0875,0.0886 0.10477,0.0356 0.0265,-0.0801 0.042,-0.21025 0.001,-0.27693 -0.0187,-0.0293 -0.24518,-0.27305 -0.37112,-0.0832 m 2.38055,0.33231 c -0.0617,0.0346 -2.98098,1.27459 -3.16054,1.40582 -0.09,0.0656 -0.16757,0.17357 -0.19897,0.29316 -0.0448,0.17251 -0.01,0.34749 0.10231,0.37112 0.079,0.0166 0.12206,0.0653 0.1404,0.0928 0.008,0.012 0.0212,0.005 0.0261,-0.003 0.0984,-0.17321 0.0229,-0.28893 -0.12877,-0.34078 -0.06,-0.0205 -0.0825,-0.1069 0.14993,-0.24025 0.21485,-0.12312 2.92841,-1.2894 2.97604,-1.31903 0.0645,-0.0409 0.10301,-0.0554 0.13053,-0.11677 0.0272,-0.0607 0.0342,-0.072 0.049,-0.1143 0.0155,-0.0455 0.0314,-0.0931 -0.0861,-0.0286 m -0.72778,1.23155 c -0.0254,0.0794 -0.0448,0.14111 -0.01,0.23213 0.0342,0.09 0.12735,0.29598 0.14323,0.32561 0.0152,0.0293 0.0191,0.0624 -0.0321,0.0843 -0.0508,0.0215 -0.2854,0.0716 -0.32879,-0.17745 -0.0434,-0.24941 -0.0469,-0.32209 -0.0692,-0.36442 -0.0212,-0.0423 -0.0416,-0.0473 -0.0586,-0.005 -0.0166,0.042 -0.0268,0.12876 -0.0293,0.14288 -0.003,0.0137 -0.003,0.0247 0.006,0.0395 0.009,0.0155 0.10231,0.29421 0.0603,0.37076 -0.0427,0.0769 -0.25224,0.21485 -0.36195,0.0702 -0.0526,-0.1009 -0.0205,-0.35631 -0.0205,-0.41663 0,-0.06 -0.019,-0.0804 -0.0448,-0.0317 -0.0254,0.0483 -0.0395,0.0804 -0.0384,0.12382 0.001,0.0438 0.008,0.23001 0.004,0.28893 -0.004,0.0586 0,0.24906 0.11253,0.30303 0.11289,0.054 0.27623,0.004 0.40005,-0.23001 0.096,0.139 0.24166,0.13935 0.31962,0.11078 0.0667,-0.024 0.14076,-0.12348 0.16228,-0.26177 0.0219,-0.13793 -0.0141,-0.23283 -0.0575,-0.31079 -0.0572,-0.0956 -0.0956,-0.25647 -0.0956,-0.25647 -0.0208,-0.0579 -0.036,-0.11642 -0.0617,-0.0377 m -0.0261,1.30493 -0.19508,0.26705 c -0.006,0.009 -0.005,0.0205 0.004,0.0265 l 0.33267,0.24271 c 0.008,0.006 0.0198,0.004 0.0257,-0.005 l 0.19509,-0.26705 c 0.006,-0.008 0.005,-0.0201 -0.004,-0.0261 l -0.33267,-0.24236 c -0.008,-0.006 -0.0198,-0.004 -0.0258,0.005 m -1.46578,0.27199 c -0.0377,0.0998 -0.20144,0.44556 -0.15099,0.83925 0.0116,0.091 0.0882,0.26529 0.23918,0.26141 0.0783,-0.004 0.17603,-0.0617 0.23495,-0.28927 0.01,-0.0515 0.0152,-0.0924 0.0194,-0.11254 0.006,-0.0303 -0.0205,-0.0649 -0.042,0.006 -0.0497,0.1404 -0.19261,0.24447 -0.31432,0.0674 -0.0198,-0.0356 -0.10442,-0.19826 0.0127,-0.56974 0.0236,-0.072 0.0529,-0.17921 0.0529,-0.17921 0.0264,-0.0815 -0.013,-0.12277 -0.0519,-0.0229 m 11.7482,-2.9972 c -0.0702,0.10654 -0.12241,0.3623 -0.0222,0.43533 0.10019,0.0737 0.24659,0.13264 0.24659,0.13264 -0.46602,0.57115 -1.38078,0.97684 -1.59809,1.14688 -0.0653,0.049 -0.0568,0.078 -0.0152,0.067 0.0363,-0.01 0.73307,-0.20461 1.36984,-0.75071 0.29245,-0.25012 0.28398,-0.26882 0.35842,-0.42087 0.0635,0.0325 0.10689,0.0857 0.13159,0.11678 0.0353,0.0434 0.0543,0.0755 0.0709,0.0296 0.061,-0.16898 -0.0251,-0.27093 -0.1069,-0.32315 0,0 0.085,-0.26387 -0.072,-0.52775 -0.0265,-0.0441 -0.18204,-0.18521 -0.36301,0.0942 m 0.24377,0.0727 c 0.10442,0.0974 0.0889,0.25788 0.0847,0.29422 0,0 -0.13405,-0.0628 -0.19402,-0.0882 -0.06,-0.0257 -0.0917,-0.0639 -0.0639,-0.1016 0.0924,-0.13017 0.13793,-0.12559 0.17321,-0.10442 m -1.78859,-0.1658 c -0.18309,0.23283 -0.19473,0.53904 -0.21907,0.87982 -0.0257,-0.0713 -0.17215,-0.52846 -0.63959,-0.79057 -0.0339,-0.0187 -0.10265,0.0169 -0.10936,0.12488 -0.004,0.0628 -0.0219,0.21484 0.0226,0.25824 0.0441,0.0434 0.17463,0.1277 0.19615,0.14005 0.0222,0.0123 0.0455,0.0138 0.0526,-0.0124 0.006,-0.0261 0.0363,-0.0871 0.0783,-0.0437 0.036,0.0363 0.26599,0.22719 0.38594,0.63076 0.0208,0.0536 0.0699,0.0589 0.0818,-0.0173 0.0275,-0.18697 0.0427,-0.51117 0.0572,-0.6096 0.0208,-0.13828 0.0875,-0.42333 0.26247,-0.27551 0.0395,0.0339 0.0815,0.0783 0.0815,0.0783 0.0378,0.0466 0.084,0.10019 0.10689,0.0462 0.0346,-0.0815 0.0621,-0.21696 0.024,-0.28999 -0.0166,-0.0328 -0.23354,-0.30727 -0.38136,-0.11924 m -1.80022,-0.0106 c -0.0681,0.0392 -1.78788,1.03188 -1.85773,1.07703 -0.0691,0.0448 -0.0938,0.0565 -0.10548,0.11042 -0.0109,0.0536 -0.0166,0.0847 -0.0194,0.0935 -0.013,0.0356 -0.0219,0.0801 0.0808,0.0134 0.0321,-0.0212 1.76213,-1.02094 1.82245,-1.05869 0.0586,-0.0363 0.0921,-0.0515 0.11536,-0.10795 0.0233,-0.0554 0.0293,-0.0653 0.0413,-0.10442 0.0137,-0.0409 0.0272,-0.0847 -0.0773,-0.0233 m -11.68612,0.10759 c -0.0483,0.1397 -0.25259,0.62125 -0.21131,1.18534 0.01,0.13053 0.0903,0.38347 0.26564,0.38735 0.0903,-0.002 0.20602,-0.0773 0.28399,-0.39758 0.013,-0.0723 0.0212,-0.13018 0.0268,-0.15875 0.008,-0.043 -0.0212,-0.0938 -0.0487,0.005 -0.0631,0.1965 -0.23283,0.33584 -0.36583,0.0762 -0.0212,-0.0519 -0.11218,-0.28787 0.0388,-0.80998 0.0307,-0.10089 0.0688,-0.25188 0.0688,-0.25188 0.0339,-0.11395 -0.01,-0.17533 -0.0582,-0.0356 m -1.78435,0.121 c -0.15557,0.2353 -0.14323,0.52634 -0.1397,0.8516 -0.03,-0.066 -0.2039,-0.48824 -0.66781,-0.70061 -0.0335,-0.0159 -0.0963,0.0243 -0.0938,0.127 8e-4,0.0596 -0.004,0.20531 0.0413,0.24271 0.0455,0.0377 0.17533,0.1083 0.1972,0.11747 0.0215,0.01 0.0441,0.01 0.048,-0.0155 0.004,-0.0254 0.0282,-0.085 0.0716,-0.0473 0.0367,0.0317 0.26953,0.19473 0.41452,0.56833 0.0236,0.049 0.0713,0.0501 0.0762,-0.0229 0.0116,-0.17922 0.001,-0.48825 0.007,-0.58244 0.01,-0.13265 0.0501,-0.40781 0.22719,-0.28116 0.0406,0.0289 0.084,0.0674 0.084,0.0674 0.0388,0.042 0.0871,0.0889 0.10478,0.036 0.0261,-0.0801 0.042,-0.21061 7.9e-4,-0.27693 -0.0183,-0.0293 -0.24518,-0.2734 -0.37112,-0.0836 m 13.80066,1.12642 c -0.0346,0.084 -0.17885,0.3743 -0.15663,0.71684 0.005,0.0794 0.0575,0.23319 0.17674,0.23778 0.0617,-2.7e-4 0.14112,-0.0448 0.19756,-0.23883 0.0102,-0.0438 0.0162,-0.0787 0.0201,-0.096 0.006,-0.0265 -0.013,-0.0571 -0.0332,0.003 -0.0452,0.11818 -0.16228,0.20144 -0.25012,0.0427 -0.0141,-0.0317 -0.0734,-0.17568 0.0353,-0.49107 0.0222,-0.061 0.0497,-0.15275 0.0497,-0.15275 0.0243,-0.0688 -0.005,-0.10619 -0.0395,-0.0215 m 3.3073,0.17286 c -0.0318,0.0783 -0.1651,0.34713 -0.145,0.66393 0.005,0.0734 0.0533,0.2159 0.16369,0.21978 0.0568,0 0.13089,-0.0413 0.18345,-0.22049 0.009,-0.0406 0.0145,-0.073 0.018,-0.0889 0.006,-0.0243 -0.012,-0.0533 -0.0307,0.002 -0.0416,0.10937 -0.14993,0.18662 -0.23142,0.0392 -0.0131,-0.0293 -0.0677,-0.16263 0.0328,-0.45438 0.0201,-0.0564 0.0459,-0.14111 0.0459,-0.14111 0.0226,-0.0635 -0.005,-0.0984 -0.0367,-0.0204 m -6.20642,0.008 -0.16828,0.23072 -0.32314,-0.23566 c -0.008,-0.006 -0.0198,-0.004 -0.0254,0.005 l -0.19509,0.26741 c -0.006,0.008 -0.005,0.0201 0.003,0.0261 l 0.33302,0.24236 c 0.008,0.006 0.0194,0.004 0.0254,-0.005 l 0.16863,-0.23036 0.32314,0.2353 c 0.008,0.006 0.0194,0.004 0.0254,-0.005 l 0.19509,-0.2667 c 0.006,-0.009 0.005,-0.0204 -0.003,-0.0265 l -0.33302,-0.24271 c -0.008,-0.006 -0.0198,-0.004 -0.0257,0.005 m -12.42731,0.12877 c -0.0519,0.15028 -0.27093,0.6678 -0.22683,1.27388 0.007,0.09 0.0455,0.23424 0.12171,0.32702 -0.006,0.0124 -0.0127,0.0258 -0.0194,0.0416 -0.084,0.20144 -0.68015,1.63371 0.38629,2.03835 0.41769,0.1591 1.3776,0.20743 2.36326,-0.70556 0.30833,-0.28539 0.33832,-0.62159 0.33832,-0.62159 0.006,-0.0808 0.0356,-0.23918 -0.004,-0.46849 0.0956,0.003 0.45685,-0.0138 0.67663,-0.42227 0,0 0.13652,0.25012 0.3556,0.28116 0.21907,0.031 0.44097,0.0127 0.53093,-0.37606 0.0127,-0.0854 0.0261,-0.37924 -0.12594,-0.6216 -0.0257,-0.0437 -0.049,-0.0208 -0.0596,0.0131 -0.01,0.0335 -0.072,0.31185 -0.072,0.31185 0.0409,0.09 0.0977,0.27023 0.0437,0.29387 -0.054,0.0233 -0.31185,0.0797 -0.54645,-0.2346 0,0 0.0466,-0.14182 0.0646,-0.22155 0.018,-0.0801 0,-0.19085 -0.0646,-0.0723 -0.0635,0.11712 -0.31538,0.80962 -0.94227,0.6163 -0.0388,-0.0829 -0.0864,-0.17145 -0.14534,-0.26459 -0.0501,-0.0748 -0.0713,-0.0321 -0.0819,-0.004 -0.0109,0.0282 -0.0501,0.31009 -0.0501,0.31009 0.11042,0.17815 0.39934,0.71931 0.28152,0.86536 -0.11748,0.14605 -1.03893,1.03505 -1.95192,1.02411 -0.41946,-0.0356 -0.95003,-0.16263 -1.0474,-0.79551 -0.0296,-0.19085 0.0279,-0.64982 0.12912,-0.86819 0.008,-0.0191 0.0155,-0.0367 0.0215,-0.0533 0.0247,0.013 0.0526,0.0215 0.0829,0.0222 0.097,-0.002 0.22155,-0.0833 0.30515,-0.42721 0.0141,-0.078 0.0229,-0.14006 0.0289,-0.17075 0.009,-0.0462 -0.0226,-0.10125 -0.0522,0.006 -0.0681,0.21131 -0.25012,0.36124 -0.393,0.0818 -0.0233,-0.0561 -0.12065,-0.30974 0.042,-0.86995 0.0325,-0.10901 0.0737,-0.27093 0.0737,-0.27093 0.0367,-0.12277 -0.0106,-0.18839 -0.0632,-0.0385 m 1.41041,0.24588 c -0.0367,0.0963 -0.19439,0.42863 -0.14605,0.80716 0.0113,0.0875 0.0847,0.25506 0.23001,0.25117 0.0751,-0.005 0.16933,-0.0593 0.22613,-0.27834 0.009,-0.0494 0.0141,-0.0885 0.0183,-0.10795 0.006,-0.0293 -0.0198,-0.0624 -0.0406,0.005 -0.0473,0.13512 -0.18485,0.23495 -0.30127,0.0649 -0.0198,-0.0342 -0.10054,-0.1905 0.0116,-0.54752 0.0233,-0.0695 0.0508,-0.17215 0.0508,-0.17215 0.0258,-0.0783 -0.0123,-0.11818 -0.049,-0.0226 m 12.32005,0.0413 c -0.0127,0.0452 -0.0455,0.23989 -0.0533,0.27975 -0.008,0.0399 -0.007,0.0797 0.0127,0.11395 0.0194,0.0346 0.0702,0.1531 0.1069,0.24906 0.0363,0.0967 0.41416,0.82409 0.44908,0.88865 0.0349,0.0645 0.042,0.11253 0.007,0.15557 -1.2125,1.27953 -3.55283,2.06622 -3.62762,2.10996 -0.0748,0.0434 -0.055,0.0773 0.0706,0.055 0.18873,-0.0332 1.24001,-0.20885 1.53987,-0.35313 0.19756,-0.0952 0.88759,-0.43392 1.45239,-0.87666 -0.0159,0.1143 -0.0303,0.28223 -0.0226,0.4953 0.0385,1.02906 0.95814,0.85831 1.20015,0.8054 0.72319,-0.15911 1.60831,-1.15923 1.68381,-1.35996 0.0737,-0.19897 0.0847,-0.37959 0.0681,-0.53799 0.19015,-0.10301 0.60008,-0.43286 0.60008,-0.43286 0.0166,0.43851 0.36583,0.57044 0.47343,0.58949 0.50341,0.0766 0.75565,-0.34431 0.86324,-0.48048 0.091,0.23989 0.31186,0.28681 0.42545,0.30903 0.43427,0.0868 0.51894,-0.22083 0.54152,-0.29068 0.13617,-0.42334 -0.10936,-0.73907 -0.14111,-0.77435 -0.0314,-0.0353 -0.0473,-0.001 -0.0586,0.0392 -0.0109,0.0409 -0.0459,0.19332 -0.0681,0.28892 0,0 0.0907,0.14817 0.12347,0.22331 0.0321,0.0751 -0.0159,0.11642 -0.10971,0.12806 -0.26423,0.0325 -0.47519,-0.11924 -0.54751,-0.18909 -0.073,-0.0699 0.006,-0.19332 0.0645,-0.34078 0.0473,-0.11854 -0.0399,-0.13229 -0.10689,-2.7e-4 -0.22366,0.58879 -0.53834,0.65194 -0.62124,0.67487 -0.74648,0.2032 -0.68192,-0.47872 -0.6791,-0.59055 0.003,-0.11148 -0.0794,-0.0702 -0.17145,0.003 -0.31326,0.25224 -0.56656,0.40041 -0.70273,0.46073 -0.11712,-0.22895 -0.28716,-0.37253 -0.35877,-0.42474 -0.80751,-0.58844 -0.87419,0.59972 -0.84985,0.72707 0.12312,0.50518 0.94827,0.19861 1.07703,0.18309 0.12947,-0.0152 0.0871,0.15593 0.0148,0.25753 -0.17921,0.25012 -0.38594,0.42968 -0.57291,0.58208 -0.79939,0.65264 -1.20086,0.60078 -1.32468,0.59726 -0.78493,-0.0222 -0.71296,-0.86854 -0.66922,-1.04987 0.23636,-0.19967 0.43886,-0.41734 0.55739,-0.64135 0.048,-0.12277 0.13053,-0.40181 -0.019,-0.75177 -0.0783,-0.15381 -0.32667,-0.58596 -0.32667,-0.58596 0,0 0.18274,0.006 0.20037,0.005 0.0173,-2.7e-4 0.0515,-0.018 0.007,-0.0692 -0.0441,-0.0511 -0.42757,-0.43321 -0.4505,-0.46425 -0.0229,-0.0307 -0.0441,-0.0529 -0.0575,-0.007 m 2.42252,1.7526 c 0,0 -0.11006,0.0632 -0.41768,0.0423 -0.25753,-0.0177 -0.23566,-0.11747 -0.20038,-0.15557 0.0385,-0.0416 0.35419,-0.24025 0.61806,0.11324 m -3.31681,-1.42487 c -0.0536,0.066 -0.58949,0.77011 -0.58949,0.77011 l -0.39017,-0.27834 c 0,0 0.15945,-0.0395 0.18697,-0.048 0.0279,-0.008 0.0437,-0.0437 -0.006,-0.0695 -0.0501,-0.0258 -0.52035,-0.21308 -0.55633,-0.22754 -0.0356,-0.0148 -0.0487,-0.0307 -0.0519,0.007 -0.003,0.0384 -0.008,0.34749 -0.008,0.34749 0,0 -0.007,0.0219 0.0342,0.0452 0.0409,0.0233 0.0808,0.0737 0.11465,0.10689 0.0335,0.0335 0.47096,0.37889 0.49213,0.39123 0,0 -0.21872,0.38418 -0.24659,0.6851 -0.0275,0.30092 0.006,0.71614 0.41698,0.58243 0.11042,-0.0314 0.57115,-0.21484 0.67416,-0.53622 0.0339,-0.11853 0.12806,-0.33231 -0.0257,-0.54892 -0.0892,-0.12735 -0.44944,-0.34255 -0.44944,-0.34255 0,0 0.27623,-0.38205 0.30269,-0.42862 0.0268,-0.0469 0.12806,-0.3429 0.13899,-0.41452 0.0113,-0.0716 0.0173,-0.10759 -0.0363,-0.0413 m -0.0942,1.62313 c -0.15275,0.12524 -0.47448,0.29175 -0.56444,0.30021 -0.0896,0.008 -0.32949,-0.0353 -0.22542,-0.28081 0.0353,-0.079 0.27516,-0.48895 0.27516,-0.48895 0.0892,0.0494 0.66746,0.34361 0.5147,0.46955 m -11.44128,-0.28505 c -0.0307,0.0748 -0.15875,0.33267 -0.139,0.63677 0.005,0.0702 0.0512,0.20708 0.15699,0.21025 0.0547,0 0.12523,-0.0399 0.17533,-0.21166 0.009,-0.0388 0.0138,-0.0699 0.0177,-0.0854 0.006,-0.0229 -0.0116,-0.0508 -0.0296,0.003 -0.0399,0.10548 -0.14357,0.1785 -0.22154,0.0377 -0.0124,-0.0282 -0.0649,-0.15593 0.0314,-0.43568 0.0194,-0.0543 0.0437,-0.13512 0.0437,-0.13512 0.0219,-0.0614 -0.004,-0.0945 -0.0349,-0.0198 m 17.67169,0.84666 c -0.0314,0.0861 -0.043,0.14288 -0.0399,0.17569 0.004,0.0332 0.0148,0.1397 0.0148,0.1397 -0.0325,0.0254 -0.16934,0.11042 -0.30551,0.0102 0.009,-0.0296 0.0268,-0.0889 0.0307,-0.12171 0.0148,-0.0501 -0.0162,-0.0878 -0.0416,-0.0356 -0.0247,0.0526 -0.0825,0.22824 -0.12559,0.26776 -0.043,0.0391 -0.0938,0.1845 -0.41946,0.037 -0.0572,-0.0219 -0.15734,-0.096 -0.31256,0.0607 -0.35278,0.32774 -0.59619,0.35314 -0.99166,0.49354 -0.0473,0.0222 -0.14816,0.0974 -0.0293,0.0857 0.1196,-0.0124 0.62054,2.6e-4 0.89324,-0.31292 0.0571,-0.0554 0.12206,-0.20143 0.33902,-0.11641 0.11994,0.0452 0.34149,0.23565 0.58349,-0.14041 0.14252,0.0949 0.35877,0.0568 0.39335,-0.0476 0.0349,-0.10477 0.0741,-0.20884 0.0737,-0.27975 -2.7e-4,-0.0716 -0.007,-0.1651 -0.007,-0.1651 -0.005,-0.0564 -0.0247,-0.13688 -0.0561,-0.0508 m -14.27021,0.0127 c -0.0702,0.0349 -1.84644,0.80081 -1.91876,0.84138 -0.0723,0.0406 -0.0977,0.0504 -0.11253,0.10336 -0.0148,0.0533 -0.0219,0.0836 -0.0257,0.0921 -0.0148,0.0353 -0.0265,0.079 0.0804,0.0187 0.0328,-0.019 1.82315,-0.79128 1.88242,-0.82514 0.0596,-0.0339 0.0949,-0.0459 0.12206,-0.10019 0.0265,-0.054 0.0332,-0.0635 0.0483,-0.1016 0.0159,-0.0406 0.0317,-0.0833 -0.0762,-0.0286 m 3.31964,0.43992 c -0.031,0.0748 -0.15875,0.33302 -0.13899,0.63641 0.004,0.0702 0.0508,0.20708 0.15698,0.21096 0.0543,0 0.12488,-0.0395 0.17533,-0.21167 0.008,-0.0388 0.0141,-0.0702 0.018,-0.0854 0.005,-0.0229 -0.012,-0.0504 -0.0296,0.002 -0.0402,0.10548 -0.14393,0.17921 -0.2219,0.0374 -0.0123,-0.0279 -0.0653,-0.15558 0.0314,-0.43533 0.0194,-0.054 0.0437,-0.13476 0.0437,-0.13476 0.0215,-0.0614 -0.004,-0.0945 -0.0349,-0.0201"
       style="fill:#231f20;fill-opacity:1;fill-rule:evenodd;stroke:none;stroke-width:0.264583"
       id="path1-1" />
  </g>
</svg>
