<?xml version="1.0" encoding="UTF-8" standalone="no"?>
<!-- Created with Inkscape (http://www.inkscape.org/) -->

<svg
   width="18.285446mm"
   height="6.0797729mm"
   viewBox="0 0 18.285446 6.0797729"
   version="1.1"
   id="svg1"
   xmlns:inkscape="http://www.inkscape.org/namespaces/inkscape"
   xmlns:sodipodi="http://sodipodi.sourceforge.net/DTD/sodipodi-0.dtd"
   xmlns="http://www.w3.org/2000/svg"
   xmlns:svg="http://www.w3.org/2000/svg">
  <sodipodi:namedview
     id="namedview1"
     pagecolor="#ffffff"
     bordercolor="#666666"
     borderopacity="1.0"
     inkscape:showpageshadow="2"
     inkscape:pageopacity="0.0"
     inkscape:pagecheckerboard="0"
     inkscape:deskcolor="#d1d1d1"
     inkscape:document-units="mm" />
  <defs
     id="defs1" />
  <g
     inkscape:label="Layer 1"
     inkscape:groupmode="layer"
     id="layer1"
     transform="translate(-87.992586,-58.230418)">
    <path
       d="m 98.535312,58.39929 c -0.0702,0.10654 -0.122412,0.362657 -0.02223,0.435682 0.09984,0.07338 0.246592,0.132291 0.246592,0.132291 -0.466019,0.571148 -0.784929,0.680157 -1.057272,0.83961 -0.0702,0.04127 -0.05609,0.07796 -0.01516,0.06667 0.02151,-0.0053 0.388056,-0.06244 0.815623,-0.38735 0.231775,-0.176035 0.371827,-0.476601 0.371827,-0.476601 0,0 0.116065,0.09701 0.131585,0.116416 0.03528,0.04339 0.05433,0.07585 0.07091,0.02998 0.06103,-0.168978 -0.02506,-0.270933 -0.107244,-0.323495 0,0 0.08537,-0.263173 -0.07161,-0.52705 -0.02646,-0.0441 -0.182385,-0.185563 -0.363008,0.09384 m 0.243417,0.07267 c 0.105129,0.09772 0.0889,0.257882 0.08467,0.294569 0,0 -0.133702,-0.06279 -0.193675,-0.08855 -0.05962,-0.0254 -0.09137,-0.0635 -0.06385,-0.1016 0.09243,-0.129823 0.137936,-0.125589 0.172861,-0.104423 m 6.279092,0.02294 c -0.0702,0.106537 -0.12241,0.363008 -0.0226,0.435678 0.10019,0.07338 0.24659,0.132647 0.24659,0.132647 -0.46601,0.570793 -1.38077,0.976487 -1.59843,1.146878 -0.0646,0.04868 -0.0561,0.07761 -0.0148,0.06667 0.036,-0.0099 0.73307,-0.20461 1.37019,-0.75071 0.2921,-0.250118 0.28399,-0.268817 0.35842,-0.42051 0.0631,0.03281 0.10689,0.08537 0.13159,0.116417 0.0353,0.04339 0.054,0.07585 0.0705,0.02999 0.061,-0.169685 -0.0251,-0.271285 -0.10759,-0.323498 0,0 0.0861,-0.263525 -0.0713,-0.527402 -0.0261,-0.0441 -0.18204,-0.18556 -0.36266,0.09384 m 0.24306,0.07267 c 0.10513,0.09772 0.0889,0.257881 0.085,0.294217 0,0 -0.13405,-0.06209 -0.19402,-0.08819 -0.06,-0.0254 -0.0914,-0.0635 -0.0639,-0.1016 0.0924,-0.130175 0.13829,-0.12559 0.17286,-0.104423 m -1.78823,-0.165452 c -0.18309,0.232833 -0.19473,0.538692 -0.21907,0.879827 -0.0261,-0.07126 -0.1718,-0.529167 -0.63959,-0.790927 -0.0339,-0.01905 -0.10301,0.01728 -0.10936,0.124883 -0.004,0.06279 -0.0219,0.214842 0.0226,0.258234 0.0441,0.04339 0.17463,0.128058 0.1965,0.140052 0.0219,0.01199 0.0455,0.01376 0.0522,-0.01236 0.006,-0.02646 0.036,-0.08678 0.0787,-0.04339 0.0356,0.03598 0.26599,0.226129 0.38559,0.630412 0.0208,0.05362 0.0702,0.05891 0.0815,-0.01728 0.0282,-0.186619 0.043,-0.511175 0.0575,-0.6096 0.0212,-0.137935 0.0871,-0.423334 0.26247,-0.275519 0.0395,0.03387 0.0818,0.07832 0.0818,0.07832 0.037,0.04692 0.0836,0.100187 0.10654,0.04621 0.0342,-0.08149 0.0621,-0.216604 0.0243,-0.289629 -0.0169,-0.03281 -0.23354,-0.307271 -0.38171,-0.11924 m -1.80022,-0.01093 c -0.0677,0.03951 -1.787879,1.031875 -1.857377,1.077029 -0.06985,0.0448 -0.09454,0.05645 -0.105479,0.110421 -0.0113,0.05362 -0.01693,0.08467 -0.01976,0.09349 -0.0127,0.03598 -0.02188,0.08043 0.08079,0.01304 0.0321,-0.02082 1.762126,-1.020233 1.822806,-1.058333 0.0582,-0.03598 0.0917,-0.05186 0.115,-0.107595 0.0233,-0.05539 0.0293,-0.06562 0.0416,-0.104424 0.0134,-0.04092 0.0268,-0.08467 -0.0776,-0.02363 m -5.40279,0.262467 c -0.05891,0.113242 -0.08431,0.372885 0.02257,0.435327 0.107243,0.06315 0.258939,0.106891 0.258939,0.106891 -0.404638,0.615599 -1.272471,1.113719 -1.471438,1.305277 -0.05962,0.05539 -0.04798,0.08326 -0.0081,0.06809 0.03493,-0.01341 0.708377,-0.2794 1.28552,-0.887941 0.264584,-0.278697 0.254707,-0.296688 0.312915,-0.455438 0.06632,0.02611 0.115358,0.07408 0.143227,0.101954 0.03916,0.03986 0.06174,0.06985 0.07338,0.02222 0.04304,-0.173921 -0.05327,-0.2667 -0.140406,-0.310446 0,0 0.05786,-0.270579 -0.12559,-0.51717 -0.03069,-0.04127 -0.200025,-0.165455 -0.351012,0.131233 m 0.249412,0.04692 c 0.114655,0.08608 0.115359,0.247299 0.114655,0.28434 0,0 -0.139348,-0.04868 -0.20179,-0.06773 -0.06244,-0.01939 -0.09772,-0.05433 -0.07373,-0.0949 0.07832,-0.138994 0.124179,-0.138994 0.160866,-0.121709 M 91.99762,58.500551 c -0.06773,0.03775 -2.582334,1.159227 -2.777067,1.303867 -0.09772,0.07267 -0.181679,0.1905 -0.214487,0.321027 -0.04798,0.18909 -0.0081,0.37959 0.114652,0.404638 0.08608,0.01728 0.133702,0.06985 0.154165,0.09984 0.0088,0.01304 0.02328,0.0049 0.02787,-0.0035 0.106185,-0.190148 0.02257,-0.315738 -0.142875,-0.370771 -0.06562,-0.02188 -0.09172,-0.116062 0.161573,-0.263525 0.232834,-0.135819 2.523771,-1.175102 2.575983,-1.208262 0.06985,-0.04445 0.112184,-0.06068 0.141111,-0.128059 0.02928,-0.06668 0.03669,-0.07832 0.05256,-0.125237 0.01693,-0.04939 0.03351,-0.102304 -0.09349,-0.02999 m 0.612775,0.07691 c -0.03845,0.09948 -0.201788,0.444852 -0.151694,0.839258 0.01199,0.09066 0.08819,0.264935 0.239535,0.261054 0.07832,-0.0046 0.176038,-0.06174 0.23495,-0.289277 0.0095,-0.05151 0.01516,-0.09208 0.01905,-0.112535 0.006,-0.03105 -0.02045,-0.06491 -0.04198,0.0053 -0.04939,0.140404 -0.192264,0.244475 -0.313621,0.06703 -0.02011,-0.03528 -0.10442,-0.197202 0.01236,-0.569031 0.024,-0.07232 0.05292,-0.179562 0.05292,-0.179562 0.02646,-0.08079 -0.01304,-0.122415 -0.05151,-0.02222 m 1.113014,0.143227 c -0.05891,0.113241 -0.08431,0.373591 0.02257,0.435327 0.107246,0.0628 0.25894,0.106539 0.25894,0.106539 -0.404635,0.616302 -1.272117,1.114073 -1.471435,1.305632 -0.05927,0.05539 -0.04762,0.08361 -0.0081,0.06809 0.03493,-0.01341 0.708025,-0.279048 1.285523,-0.887942 0.264584,-0.278693 0.254704,-0.297039 0.312912,-0.455435 0.06632,0.02574 0.115359,0.07408 0.142875,0.102304 0.03951,0.03951 0.06209,0.06985 0.07373,0.02222 0.04339,-0.174625 -0.05292,-0.2667 -0.140407,-0.310092 0,0 0.05786,-0.271285 -0.125587,-0.517525 -0.03069,-0.04127 -0.200025,-0.165804 -0.351015,0.130882 m 0.249767,0.04727 c 0.1143,0.08608 0.115007,0.247295 0.114652,0.283985 0,0 -0.1397,-0.04833 -0.202142,-0.06773 -0.06209,-0.01976 -0.09772,-0.05398 -0.07373,-0.0949 0.07832,-0.138288 0.124176,-0.138642 0.161218,-0.121354 m -5.044017,-0.128765 c -0.03104,0.08149 -0.164393,0.362656 -0.123473,0.682977 0.0095,0.07408 0.07197,0.215548 0.194734,0.212373 0.0635,-0.0035 0.143229,-0.05009 0.191206,-0.235302 0.0074,-0.04198 0.01236,-0.07479 0.01553,-0.09137 0.0049,-0.02506 -0.01659,-0.05327 -0.03422,0.0042 -0.03986,0.1143 -0.156279,0.198967 -0.255058,0.05468 -0.01622,-0.02857 -0.08502,-0.160515 0.0099,-0.462844 0.01976,-0.05892 0.04304,-0.14605 0.04304,-0.14605 0.02151,-0.06597 -0.01058,-0.09948 -0.04163,-0.01871 m 13.113453,1.10631 c -0.0342,0.08467 -0.1785,0.375357 -0.15663,0.717905 0.005,0.07902 0.0575,0.233185 0.17674,0.237418 0.0617,-2.64e-4 0.14147,-0.04516 0.19791,-0.238831 0.01,-0.04374 0.0159,-0.07867 0.0201,-0.09595 0.006,-0.02611 -0.0134,-0.05715 -0.0335,0.0028 -0.0452,0.118888 -0.16193,0.201438 -0.24977,0.04269 -0.0141,-0.03175 -0.0734,-0.176038 0.0353,-0.491421 0.0215,-0.06103 0.0494,-0.151694 0.0494,-0.151694 0.0243,-0.06914 -0.005,-0.106891 -0.0395,-0.02294 m 3.30729,0.173567 c -0.0318,0.07832 -0.16545,0.347133 -0.14499,0.664281 0.005,0.07303 0.0533,0.216252 0.16404,0.219781 0.0568,-2.64e-4 0.13053,-0.04163 0.18274,-0.220839 0.009,-0.04057 0.0148,-0.07303 0.0187,-0.0889 0.006,-0.02434 -0.0124,-0.05292 -0.0311,0.0024 -0.0416,0.109715 -0.15028,0.186267 -0.23142,0.03916 -0.013,-0.02928 -0.0677,-0.162277 0.0328,-0.454377 0.0201,-0.05644 0.0459,-0.140758 0.0459,-0.140758 0.0226,-0.06421 -0.004,-0.09842 -0.0367,-0.02082 m -6.206418,0.0085 -0.168275,0.230717 -0.322792,-0.235654 c -0.0081,-0.0053 -0.01976,-0.0035 -0.02574,0.0049 l -0.195088,0.267758 c -0.0063,0.0081 -0.0049,0.01976 0.0032,0.02574 l 0.333023,0.242358 c 0.0078,0.0063 0.01939,0.0039 0.02574,-0.0046 l 0.168275,-0.230717 0.322792,0.235305 c 0.0081,0.0063 0.01976,0.0039 0.02574,-0.0046 l 0.195085,-0.267404 c 0.006,-0.0085 0.0046,-0.02045 -0.0035,-0.02574 l -0.332317,-0.243062 c -0.0081,-0.0053 -0.02011,-0.0035 -0.02611,0.0049 m -7.9375,0.158398 -0.195085,0.267407 c -0.006,0.0081 -0.0046,0.02011 0.0032,0.02574 l 0.333023,0.243065 c 0.0081,0.0056 0.01976,0.0032 0.02574,-0.0049 l 0.195085,-0.267758 c 0.006,-0.0081 0.0046,-0.01976 -0.0035,-0.02574 L 91.23187,60.080523 c -0.0081,-0.0056 -0.01977,-0.0032 -0.02574,0.0053 m -3.022246,0.100541 c -0.04233,0.109715 -0.221191,0.486127 -0.186973,0.927452 0.0081,0.1016 0.07797,0.299508 0.230365,0.303035 0.0085,-2.64e-4 0.01834,-0.0011 0.02787,-0.0035 -0.151341,0.299509 -0.513998,1.105959 0.171099,1.578327 0.103362,0.07162 0.827968,0.492832 2.142066,-0.06138 0.161219,-0.06808 0.654402,-0.310444 0.654402,-0.310444 0.02328,-0.01376 0.07338,-0.04198 0.136173,-0.08184 0.05997,0.10442 0.138287,0.209195 0.240242,0.292804 0.06138,0.05186 0.472368,0.319971 1.043868,0.05115 0.161573,-0.0822 0.329494,-0.277283 0.329494,-0.277283 0.413104,0.473779 0.873831,0.267052 1.018823,-0.102659 0,0 0.06668,0.0822 0.16369,0.151342 -0.03986,0.129821 -0.284692,0.879475 0.03739,1.282346 0.07867,0.09842 0.62089,0.728839 1.904294,-0.343604 0.08749,-0.07303 0.627592,-0.499534 0.572206,-1.112309 0.05362,-0.03069 0.479073,-0.2159 0.449792,-0.694266 -0.006,-0.09631 -0.01482,-0.255765 -0.140758,-0.470607 -0.06103,-0.103716 -0.212373,-0.353835 -0.212373,-0.353835 0,0 0.177448,0.05539 0.200025,0.06385 0.02257,0.0092 0.05927,0.0039 0.02893,-0.03139 -0.03034,-0.03528 -0.483658,-0.548924 -0.505883,-0.57009 -0.02257,-0.02117 -0.03669,-0.03281 -0.04551,-0.0011 -0.0088,0.0314 -0.06879,0.386292 -0.06879,0.386292 0.024,0.06421 0.23636,0.449437 0.305504,0.563033 0.06915,0.113242 0.316796,0.468488 0.226837,0.540102 -0.09066,0.07126 -0.210256,0.159457 -0.344664,0.198967 0,0 -0.06385,-0.230365 -0.351015,-0.459317 -0.05045,-0.04092 -0.409221,-0.242006 -0.633942,0.316794 -0.02928,0.09631 -0.142875,0.598665 0.315738,0.682273 0.118885,0.01341 0.341135,-0.03175 0.417687,-0.05433 0.0762,-0.02222 0.258234,-0.09631 0.218017,0.02681 -0.04057,0.124177 -0.268462,0.619832 -1.211085,1.081265 -0.11289,0.05503 -0.814565,0.392994 -1.091848,-0.242358 -0.09525,-0.218371 -0.0049,-0.638175 0.02117,-0.753182 0.04057,0.01871 0.08326,0.03281 0.126648,0.03634 0.119944,0.0067 0.315032,0.01939 0.430742,-0.274813 0.01659,-0.0508 0.09454,-0.264583 0.0254,-0.453673 -0.01693,-0.07126 -0.108302,-0.318206 -0.118885,-0.3429 -0.0099,-0.02434 -0.02434,-0.05398 -0.04833,-0.0099 -0.024,0.0441 -0.0956,0.2794 -0.0956,0.2794 0.03387,0.100894 0.142169,0.333021 0.0889,0.365477 -0.05327,0.0321 -0.298098,0.146757 -0.5588,-0.184856 0.0085,-0.04374 0.03104,-0.154162 0.0381,-0.198967 0.0141,-0.05468 -0.01693,-0.09384 -0.05045,-0.03528 -0.03351,0.05892 -0.126648,0.29704 -0.168627,0.389819 -0.04233,0.09208 -0.269171,0.358775 -0.607131,0.207788 -0.05891,-0.02963 -0.214135,-0.164042 -0.186973,-0.231423 0.02752,-0.06703 0.04622,-0.140759 0.06315,-0.207434 0.01659,-0.06738 0.0063,-0.134408 -0.0568,-0.0508 -0.06315,0.08396 -0.27446,0.448027 -0.658283,0.56021 -0.125587,0.0314 -0.557387,0.116772 -0.865011,-0.197908 0.122767,-0.102304 0.25259,-0.224718 0.303036,-0.370768 0.02434,-0.07126 0.156988,-0.483659 -0.0822,-0.879827 -0.03528,-0.05644 -0.232129,-0.344665 -0.436388,-0.147815 -0.203903,0.197204 -0.400753,0.760235 -0.168978,1.264356 0,0 -0.993424,0.697442 -2.061282,0.590902 -0.207785,-0.02045 -1.127831,-0.19191 -0.9652,-0.995539 0.01728,-0.0769 0.117827,-0.359479 0.177448,-0.485775 0.03775,-0.04727 0.07408,-0.12065 0.104069,-0.229656 0.01164,-0.0568 0.01905,-0.101955 0.024,-0.12418 0.0074,-0.03387 -0.01799,-0.07373 -0.04269,0.0039 -0.05539,0.15381 -0.2032,0.262818 -0.318204,0.05927 -0.01871,-0.04022 -0.09701,-0.225073 0.03598,-0.632883 0.02681,-0.07937 0.06068,-0.197556 0.06068,-0.197556 0.02963,-0.08925 -0.0085,-0.136877 -0.05115,-0.02787 m 3.623379,1.524 c 0.04339,0.105833 -0.331258,0.349954 -0.37606,0.376767 0,0 -0.348898,-0.425098 -0.0085,-0.742247 0.148519,-0.128762 0.341842,0.259999 0.384527,0.36548 m 4.441825,0.494945 c 0,0 -0.120296,0.05362 -0.363008,0.03528 -0.08784,-0.01659 -0.2159,-0.06386 -0.05891,-0.198967 0.156986,-0.135114 0.384527,0.111125 0.421921,0.163687 m -2.318102,-2.01083 c -0.03775,0.09948 -0.20179,0.445204 -0.151342,0.839258 0.01164,0.09066 0.08819,0.265287 0.239536,0.261406 0.07796,-0.0046 0.176037,-0.06173 0.23495,-0.289981 0.0092,-0.0508 0.01516,-0.09172 0.01905,-0.112183 0.006,-0.03069 -0.02082,-0.06491 -0.04198,0.0056 -0.04974,0.140052 -0.192265,0.244123 -0.313973,0.06703 -0.02011,-0.03528 -0.104423,-0.197202 0.0127,-0.569383 0.02363,-0.07197 0.05256,-0.17921 0.05256,-0.17921 0.02646,-0.08114 -0.01304,-0.122767 -0.05151,-0.02257 m 6.516161,0.149225 c -0.0131,0.0448 -0.0459,0.239535 -0.0536,0.2794 -0.008,0.04022 -0.007,0.08008 0.0124,0.1143 0.0198,0.03422 0.0706,0.1524 0.10724,0.24906 0.0363,0.09596 0.41416,0.824087 0.44909,0.888294 0.0349,0.06456 0.042,0.113241 0.007,0.155575 -1.212853,1.279876 -3.55318,2.066218 -3.627967,2.109964 -0.07444,0.04304 -0.05503,0.07726 0.07091,0.05503 0.188383,-0.03281 1.23966,-0.208492 1.539168,-0.353132 0.197909,-0.0949 0.887942,-0.433916 1.452739,-0.876652 -0.0159,0.1143 -0.0303,0.282575 -0.0226,0.4953 0.0381,1.029404 0.9585,0.858309 1.20015,0.805392 0.72355,-0.15875 1.60866,-1.15923 1.68345,-1.359958 0.0744,-0.198615 0.0854,-0.379942 0.0684,-0.537634 0.1905,-0.103013 0.60008,-0.433213 0.60008,-0.433213 0.0166,0.438505 0.36583,0.570442 0.47343,0.589492 0.50341,0.07655 0.75565,-0.343958 0.86324,-0.480835 0.0914,0.240242 0.31186,0.28716 0.42545,0.30974 0.43427,0.08643 0.51894,-0.22084 0.54152,-0.29069 0.13617,-0.42404 -0.10936,-0.739423 -0.14111,-0.7747 -0.0314,-0.03493 -0.0473,-0.0019 -0.0586,0.03951 -0.0109,0.04057 -0.0462,0.192971 -0.0681,0.288573 0,0 0.091,0.148167 0.12347,0.22366 0.0321,0.07514 -0.0159,0.116417 -0.10936,0.127707 -0.26423,0.03246 -0.47519,-0.11924 -0.54786,-0.18909 -0.0727,-0.0695 0.006,-0.19332 0.0649,-0.341135 0.0469,-0.117827 -0.0402,-0.132292 -0.10725,-2.65e-4 -0.22401,0.589137 -0.53869,0.652637 -0.62159,0.674862 -0.74577,0.203555 -0.68157,-0.478366 -0.67875,-0.590195 0.002,-0.111831 -0.0794,-0.07056 -0.1711,0.0032 -0.31397,0.252235 -0.56691,0.400402 -0.70308,0.460727 -0.11677,-0.228952 -0.28716,-0.372533 -0.35878,-0.424392 -0.8075,-0.588785 -0.87418,0.599369 -0.84984,0.726369 0.12312,0.505531 0.94792,0.199321 1.07739,0.183798 0.12946,-0.01516 0.0871,0.155575 0.0148,0.257175 -0.17921,0.249767 -0.38594,0.429683 -0.57291,0.582435 -0.8001,0.652288 -1.20121,0.600781 -1.32468,0.596548 -0.78563,-0.02151 -0.71332,-0.86854 -0.66957,-1.049515 0.23601,-0.19967 0.43921,-0.417335 0.55704,-0.640995 0.0483,-0.123121 0.13087,-0.402167 -0.0187,-0.752123 -0.0787,-0.15381 -0.32632,-0.586317 -0.32632,-0.586317 0,0 0.18239,0.006 0.19967,0.0056 0.0173,-2.65e-4 0.0519,-0.01834 0.008,-0.0695 -0.0444,-0.05115 -0.42792,-0.433211 -0.45085,-0.463902 -0.0229,-0.03069 -0.0444,-0.05292 -0.0571,-0.0074 m 2.42182,1.752246 c 0,0 -0.10971,0.0635 -0.41733,0.04233 -0.25788,-0.01693 -0.23566,-0.117475 -0.20038,-0.155575 0.0384,-0.04198 0.35419,-0.240593 0.61771,0.113242 M 89.943045,60.961571 c -0.161925,0.221546 -0.171802,0.512585 -0.193323,0.837493 -0.02294,-0.06844 -0.1524,-0.503412 -0.56656,-0.752827 -0.02998,-0.01834 -0.09102,0.01588 -0.09631,0.118182 -0.0039,0.05997 -0.01939,0.204962 0.01976,0.246237 0.03916,0.04057 0.154517,0.121708 0.173919,0.132998 0.01976,0.01164 0.04022,0.01304 0.04621,-0.01164 0.0056,-0.02506 0.0321,-0.08255 0.0695,-0.04127 0.03175,0.03457 0.235656,0.2159 0.341842,0.600075 0.01833,0.0508 0.06244,0.05574 0.07232,-0.01622 0.02434,-0.178154 0.03739,-0.486833 0.05044,-0.580321 0.01834,-0.131585 0.07691,-0.402518 0.23213,-0.261408 0.03493,0.0321 0.07232,0.07408 0.07232,0.07408 0.03281,0.04445 0.07444,0.0956 0.09419,0.0441 0.03069,-0.07796 0.05503,-0.206375 0.02151,-0.27587 -0.01482,-0.03105 -0.206727,-0.2921 -0.337961,-0.113596 m 9.609312,-0.290336 c -0.05327,0.06632 -0.589491,0.770112 -0.589491,0.770112 l -0.390171,-0.277987 c 0,0 0.159102,-0.04022 0.186971,-0.04833 0.02787,-0.0078 0.04339,-0.0441 -0.0067,-0.06914 -0.04974,-0.02574 -0.519994,-0.213431 -0.555977,-0.227893 -0.03563,-0.01447 -0.04833,-0.03105 -0.05151,0.0074 -0.0032,0.0381 -0.0088,0.347485 -0.0088,0.347485 0,0 -0.0071,0.02188 0.03422,0.0448 0.04092,0.02328 0.08114,0.07338 0.114652,0.106892 0.03351,0.03352 0.471313,0.378883 0.492125,0.390877 0,0 -0.21872,0.384529 -0.246237,0.685448 -0.02822,0.300918 0.0053,0.716492 0.416277,0.582435 0.110773,-0.03175 0.5715,-0.214842 0.67451,-0.53622 0.03351,-0.118534 0.128059,-0.332317 -0.02611,-0.548572 -0.0889,-0.127703 -0.448733,-0.3429 -0.448733,-0.3429 0,0 0.276225,-0.382055 0.302683,-0.428976 0.02611,-0.04657 0.127704,-0.342194 0.138993,-0.414513 0.01093,-0.07126 0.01659,-0.106891 -0.03669,-0.04092 m -0.09454,1.623129 c -0.152752,0.125238 -0.473781,0.291748 -0.56374,0.300215 -0.09031,0.0088 -0.329845,-0.03528 -0.225777,-0.28081 0.03563,-0.07902 0.275167,-0.488598 0.275167,-0.488598 0.08925,0.04904 0.667457,0.343251 0.51435,0.469193 m 6.230764,0.561975 c -0.031,0.08608 -0.043,0.142523 -0.0399,0.175683 0.004,0.03281 0.0148,0.139349 0.0148,0.139349 -0.0324,0.0254 -0.16898,0.110773 -0.3055,0.0099 0.009,-0.02893 0.0268,-0.08854 0.031,-0.121001 0.0145,-0.0508 -0.0166,-0.08819 -0.0416,-0.03598 -0.0247,0.05292 -0.0829,0.228248 -0.12594,0.267759 -0.043,0.03916 -0.0935,0.184501 -0.41945,0.03669 -0.0571,-0.02151 -0.15699,-0.0956 -0.31256,0.06103 -0.35278,0.327732 -0.5962,0.353132 -0.99131,0.49389 -0.048,0.02188 -0.14852,0.09737 -0.0293,0.08537 0.11924,-0.01199 0.62019,2.65e-4 0.89288,-0.313267 0.0572,-0.05503 0.12242,-0.201083 0.33902,-0.116064 0.11995,0.04516 0.34184,0.235656 0.5835,-0.140052 0.14252,0.09454 0.35877,0.0568 0.39334,-0.04798 0.0346,-0.104775 0.0744,-0.208843 0.0741,-0.279752 -8e-4,-0.07126 -0.007,-0.1651 -0.007,-0.1651 -0.005,-0.05644 -0.025,-0.136877 -0.0564,-0.05045 m -8.139293,-0.0019 -0.168275,0.230717 -0.322791,-0.235657 c -0.0081,-0.006 -0.01976,-0.0039 -0.02574,0.0049 l -0.195088,0.267052 c -0.006,0.0085 -0.0046,0.02011 0.0035,0.02646 l 0.332316,0.242359 c 0.0081,0.006 0.02011,0.0039 0.02612,-0.0046 l 0.168275,-0.230716 0.323146,0.235302 c 0.0078,0.006 0.01939,0.0039 0.02574,-0.0046 l 0.194733,-0.267406 c 0.0063,-0.0088 0.0049,-0.02045 -0.0032,-0.02612 l -0.332668,-0.24271 c -0.0081,-0.006 -0.01976,-0.0039 -0.02612,0.0049 m -4.353277,0.254352 c -0.03775,0.08396 -0.05398,0.139348 -0.05362,0.172156 7.94e-4,0.03316 0.0035,0.140052 0.0035,0.140052 -0.03387,0.02328 -0.176741,0.09772 -0.305152,-0.01376 0.01093,-0.02822 0.03351,-0.08608 0.04022,-0.118534 0.01871,-0.04939 -0.0092,-0.08925 -0.0381,-0.03881 -0.02928,0.05045 -0.100894,0.22084 -0.146756,0.256823 -0.04586,0.03598 -0.10795,0.176742 -0.421217,0.0042 -0.05503,-0.02646 -0.149225,-0.108301 -0.316442,0.03598 -0.377118,0.298802 -0.621945,0.305506 -1.026935,0.41416 -0.04939,0.01871 -0.155575,0.08608 -0.03563,0.08326 0.119591,-0.0024 0.618066,0.04868 0.914754,-0.242006 0.06138,-0.05044 0.137583,-0.191204 0.347133,-0.0896 0.116063,0.05468 0.322086,0.26176 0.592313,-0.09419 0.134762,0.105833 0.353483,0.08502 0.396171,-0.01693 0.04233,-0.101248 0.09031,-0.202141 0.09525,-0.27305 0.0053,-0.07091 0.0063,-0.164748 0.0063,-0.164748 -2.65e-4,-0.0568 -0.01376,-0.13829 -0.05186,-0.05503 m -3.415596,0.213077 c -0.03104,0.08114 -0.164041,0.36195 -0.12347,0.682625 0.0099,0.07373 0.07197,0.2159 0.195085,0.212373 0.0635,-0.0035 0.143227,-0.05009 0.191207,-0.235302 0.0074,-0.04163 0.01198,-0.07514 0.01516,-0.09137 0.0049,-0.02506 -0.01659,-0.05292 -0.03422,0.0046 -0.03987,0.113945 -0.156282,0.198612 -0.255059,0.05433 -0.01622,-0.02893 -0.08502,-0.160515 0.01024,-0.462492 0.01939,-0.05891 0.04304,-0.14605 0.04304,-0.14605 0.02151,-0.06632 -0.01058,-0.09983 -0.04198,-0.01871"
       style="fill:#231f20;fill-opacity:1;fill-rule:evenodd;stroke:none;stroke-width:0.264583"
       id="path1-7" />
  </g>
</svg>
