<?xml version="1.0" encoding="UTF-8" standalone="no"?>
<!-- Created with Inkscape (http://www.inkscape.org/) -->

<svg
   width="17.640968mm"
   height="6.4591422mm"
   viewBox="0 0 17.640968 6.4591422"
   version="1.1"
   id="svg1"
   xmlns:inkscape="http://www.inkscape.org/namespaces/inkscape"
   xmlns:sodipodi="http://sodipodi.sourceforge.net/DTD/sodipodi-0.dtd"
   xmlns="http://www.w3.org/2000/svg"
   xmlns:svg="http://www.w3.org/2000/svg">
  <sodipodi:namedview
     id="namedview1"
     pagecolor="#ffffff"
     bordercolor="#666666"
     borderopacity="1.0"
     inkscape:showpageshadow="2"
     inkscape:pageopacity="0.0"
     inkscape:pagecheckerboard="0"
     inkscape:deskcolor="#d1d1d1"
     inkscape:document-units="mm" />
  <defs
     id="defs1" />
  <g
     inkscape:label="Layer 1"
     inkscape:groupmode="layer"
     id="layer1"
     transform="translate(-103.92498,-37.956305)">
    <path
       d="m 112.24041,37.976321 c -0.0162,0.03916 -0.11218,0.303387 -0.11218,0.303387 0.0261,0.17145 0.25294,2.014362 0.26776,2.13995 0.0152,0.125589 0.33407,2.210154 0.35066,2.786946 -0.004,0.05891 0.0212,0.08078 0.0483,0.02434 0.0265,-0.0568 0.21272,-0.440973 -0.008,-1.851379 -0.0162,-0.117121 -0.35031,-2.500135 -0.35031,-2.500135 0,0 0.19685,0.18556 0.22824,0.219075 0.0321,0.03316 0.0702,0.01553 0.0526,-0.03845 -0.0183,-0.05398 -0.42192,-1.030465 -0.43498,-1.064332 -0.013,-0.03387 -0.0257,-0.05856 -0.0423,-0.01939 m -1.17651,0.02151 c -0.0162,0.03881 -0.11219,0.30339 -0.11219,0.30339 0.0106,0.07055 0.51188,3.542593 0.51718,3.663595 0.005,0.121005 0.0575,0.18909 -0.0734,0.268113 -0.42016,0.241652 -1.11901,0.404283 -1.34479,0.498827 -0.19015,0.07937 -0.56339,0.241652 -1.01424,0.625123 -0.24694,0.210608 -0.57009,0.492829 -0.74542,0.582787 -0.20531,0.10513 -0.7493,0.289632 -0.75141,-0.304445 -2.7e-4,-0.142171 0.19014,-0.672396 0.26776,-0.814213 0.004,-0.0071 0.006,-0.01482 0.005,-0.02188 0.043,-0.01058 0.0871,-0.02328 0.13265,-0.0381 0.22613,-0.06667 0.94085,-0.390525 1.10525,-0.724958 0.0667,-0.148874 0.0977,-0.226132 0.11853,-0.30833 0.0204,-0.08219 0.0413,-0.159102 -0.067,-0.05115 -0.10795,0.10795 -0.85372,0.817033 -1.41922,0.693915 -0.1591,-0.05151 -0.51894,-0.395817 -0.63712,-1.018117 -0.0208,-0.09737 0.072,-0.190148 0.17992,-0.231071 0.10795,-0.04127 0.88406,-0.380294 1.3522,-0.205669 0.0769,0.03069 0.15416,0 0.0512,-0.07726 -0.10266,-0.07691 -0.37007,-0.32879 -0.97684,-0.226131 -0.22613,0.06174 -0.75036,0.226131 -0.80187,0.873831 -0.0102,0.149225 0.0564,0.473075 0.15417,0.765882 -0.0667,-0.04092 -0.32456,-0.13829 -0.52423,-1.058688 -0.0568,-0.262112 -0.24659,-1.382887 -0.75071,-2.040819 -0.0511,-0.0822 -0.0921,0.354542 -0.0921,0.354542 0.0836,0.164393 0.38947,0.924983 0.52212,1.392766 0.0296,0.103365 0.0699,0.309034 0.0755,0.335492 0.0293,0.134057 0.0674,0.254352 -0.20708,0.554215 -0.33408,0.365125 -0.86113,0.696029 -0.97402,0.758118 -0.11289,0.06209 -0.81492,0.484011 -0.97261,-0.228248 -0.0208,-0.09384 -0.0247,-0.651933 0.23636,-1.087966 0.0938,-0.0095 0.21061,-0.09913 0.30551,-0.419452 0.0183,-0.07867 0.0303,-0.141817 0.0381,-0.17286 0.0116,-0.04692 -0.0166,-0.104775 -0.0522,0.0028 -0.0797,0.212021 -0.27023,0.355248 -0.39688,0.06138 -0.0201,-0.05785 -0.10301,-0.323144 0.0903,-0.887942 0.0392,-0.109712 0.0892,-0.272695 0.0892,-0.272695 0.043,-0.123825 0,-0.193675 -0.0607,-0.04304 -0.0603,0.15099 -0.30833,0.668515 -0.2981,1.291167 0.002,0.129823 0.0614,0.373239 0.21096,0.429331 -0.004,0.0095 -0.009,0.01939 -0.0134,0.03034 -0.0843,0.2032 -0.58385,1.212498 -0.09,1.734257 0.1016,0.08749 0.52317,0.372181 1.51412,-0.434269 0.53234,-0.433565 0.6918,-0.8636 0.6918,-0.8636 0.0483,0.100894 0.21802,1.342319 1.35361,1.137002 -0.002,0.0053 -0.005,0.01164 -0.008,0.01834 -0.0526,0.136525 -0.63147,1.1303 0.14182,1.528233 0.22013,0.113596 0.49777,0.04269 1.1557,-0.567267 0.13123,-0.121708 0.80786,-0.655108 1.45521,-0.824441 0.14993,-0.03951 0.50941,-0.110419 0.79304,-0.289277 0.18451,-0.123825 0.31962,-0.300215 0.38877,-0.556332 0.084,-0.394052 -0.0106,-0.961318 -0.0684,-1.3081 -0.0579,-0.346778 -0.29775,-1.92405 -0.29775,-1.92405 0,0 0.1972,0.185209 0.2286,0.218723 0.0318,0.03352 0.0702,0.01588 0.0519,-0.03845 -0.018,-0.05362 -0.42157,-1.030113 -0.43462,-1.06398 -0.0131,-0.03387 -0.0261,-0.05856 -0.0423,-0.01939 m 2.75979,0.166865 c -0.0702,0.106537 -0.12242,0.362654 -0.0226,0.435327 0.10019,0.07373 0.24659,0.132998 0.24659,0.132998 -0.46602,0.570793 -0.78493,0.67945 -1.05728,0.839258 -0.0699,0.04092 -0.0561,0.07796 -0.0152,0.06703 0.0212,-0.0056 0.3877,-0.06279 0.81598,-0.388056 0.23142,-0.175684 0.37182,-0.47625 0.37182,-0.47625 0,0 0.11572,0.09701 0.13159,0.116416 0.0349,0.04339 0.0543,0.07585 0.0706,0.02999 0.061,-0.168981 -0.0251,-0.270933 -0.10725,-0.323498 0,0 0.0857,-0.263173 -0.0716,-0.527402 -0.0265,-0.0441 -0.18204,-0.185563 -0.36266,0.09419 m 0.24342,0.07267 c 0.10478,0.09772 0.0889,0.25753 0.0847,0.294572 0,0 -0.13406,-0.0628 -0.19403,-0.08855 -0.06,-0.02574 -0.0914,-0.06385 -0.0635,-0.1016 0.0921,-0.130175 0.13758,-0.125589 0.17286,-0.104423 m -8.88471,-0.147812 c -0.17427,0.221544 -0.18521,0.512585 -0.20849,0.837142 -0.0247,-0.06809 -0.16369,-0.503063 -0.60854,-0.752123 -0.0325,-0.01834 -0.0977,0.01622 -0.10372,0.118533 -0.004,0.05962 -0.0208,0.20461 0.0212,0.245885 0.042,0.04092 0.16616,0.121709 0.18697,0.132998 0.0212,0.0113 0.0434,0.01304 0.0497,-0.01164 0.006,-0.02506 0.0342,-0.08255 0.0748,-0.04163 0.0339,0.03457 0.25294,0.215545 0.36689,0.600075 0.0198,0.0508 0.067,0.05574 0.0776,-0.01659 0.0261,-0.1778 0.0409,-0.486481 0.0547,-0.579966 0.0201,-0.131234 0.0829,-0.402519 0.24942,-0.26176 0.0377,0.0321 0.078,0.07444 0.078,0.07444 0.0353,0.04445 0.0797,0.09525 0.10125,0.04374 0.0328,-0.07761 0.0593,-0.206375 0.0233,-0.27587 -0.0159,-0.03105 -0.22225,-0.2921 -0.36301,-0.113242 m 15.16345,0.170744 c -0.0702,0.10654 -0.12241,0.362656 -0.0226,0.435327 0.10054,0.07373 0.24659,0.132998 0.24659,0.132998 -0.46602,0.570793 -1.38042,0.976841 -1.59843,1.146527 -0.0646,0.04904 -0.0557,0.07796 -0.0152,0.06703 0.0367,-0.0099 0.73342,-0.204965 1.37054,-0.750358 0.29174,-0.250473 0.28398,-0.269171 0.35842,-0.421217 0.0635,0.03281 0.10689,0.08537 0.13159,0.116417 0.0349,0.04339 0.0543,0.07585 0.0709,0.02963 0.0607,-0.168629 -0.025,-0.270581 -0.10759,-0.323146 0,0 0.0857,-0.26317 -0.0716,-0.52705 -0.0261,-0.04445 -0.18168,-0.185912 -0.36265,0.09384 m 0.24341,0.07267 c 0.10513,0.09772 0.0889,0.257527 0.0847,0.294568 0,0 -0.13405,-0.06279 -0.19403,-0.08855 -0.06,-0.02574 -0.091,-0.0635 -0.0635,-0.1016 0.0921,-0.130175 0.13794,-0.125587 0.17286,-0.10442 m -1.78858,-0.165455 c -0.18309,0.232482 -0.19509,0.53834 -0.21907,0.87983 -0.0258,-0.07161 -0.17216,-0.528815 -0.63959,-0.79093 -0.0339,-0.01905 -0.10301,0.01693 -0.10936,0.124532 -0.004,0.06315 -0.0219,0.215548 0.0226,0.258585 0.0441,0.04339 0.17427,0.128058 0.1965,0.1397 0.0222,0.01236 0.0451,0.0141 0.0519,-0.01236 0.007,-0.02574 0.0367,-0.08678 0.079,-0.04304 0.0356,0.03598 0.26599,0.226484 0.38558,0.63006 0.0205,0.05397 0.0706,0.05891 0.0819,-0.01693 0.0275,-0.18697 0.0427,-0.511175 0.0575,-0.6096 0.0208,-0.138287 0.0868,-0.423333 0.26211,-0.275167 0.0395,0.03352 0.0819,0.07796 0.0819,0.07796 0.037,0.04692 0.084,0.10019 0.10654,0.04622 0.0342,-0.08149 0.0621,-0.216958 0.0247,-0.289983 -0.0169,-0.03246 -0.23389,-0.307272 -0.38206,-0.118888 m -1.80022,-0.01093 c -0.0677,0.03951 -1.78788,1.032227 -1.85738,1.077032 -0.0699,0.0448 -0.0942,0.0568 -0.10547,0.110418 -0.0113,0.05362 -0.0169,0.08467 -0.0198,0.09349 -0.0127,0.03598 -0.0215,0.08008 0.0811,0.01304 0.0318,-0.02082 1.76213,-1.020588 1.8221,-1.058334 0.0582,-0.03634 0.0921,-0.05186 0.11535,-0.107598 0.0233,-0.05574 0.0293,-0.06562 0.0416,-0.104423 0.0134,-0.04127 0.0268,-0.08502 -0.0776,-0.02363 m -6.53238,0.113593 c -0.0938,0.0501 -2.65325,1.318684 -2.74991,1.376188 -0.097,0.05715 -0.13158,0.07161 -0.14922,0.143934 -0.018,0.07232 -0.0275,0.1143 -0.0321,0.125941 -0.0191,0.04833 -0.0335,0.10795 0.10937,0.02257 0.0448,-0.02681 2.62219,-1.304218 2.70192,-1.35255 0.0797,-0.04833 0.12735,-0.06562 0.16228,-0.140406 0.0346,-0.07444 0.043,-0.08749 0.0621,-0.139346 0.0201,-0.05539 0.0406,-0.1143 -0.10442,-0.03634 m -3.64843,0.06456 c -0.11466,0.124531 -0.14993,0.210256 -0.18415,0.263879 -0.0473,0.07373 0.012,0.106537 0.0653,0.04904 0.0536,-0.0575 0.0903,-0.114652 0.24589,-0.110419 0.15557,0.0042 0.52811,-0.01024 0.38911,0.09208 -0.13934,0.102304 -0.23354,0.161925 -0.23354,0.161925 -0.0903,0.06456 -0.17004,0.185912 -0.0102,0.118533 0.15981,-0.06738 0.37042,-0.173921 0.53235,-0.417689 0.0469,-0.07091 0.1023,-0.165807 -0.11677,-0.198615 -0.21908,-0.03245 -0.57327,-0.08396 -0.68792,0.04127 m 3.29318,0.852313 c -0.0324,0.07902 -0.16757,0.351366 -0.14675,0.672393 0.005,0.07444 0.054,0.219075 0.1658,0.222957 0.0575,-2.65e-4 0.13229,-0.04198 0.18521,-0.224015 0.01,-0.04092 0.0152,-0.07373 0.0187,-0.08996 0.006,-0.02469 -0.012,-0.05362 -0.0307,0.0024 -0.0427,0.111479 -0.1524,0.18909 -0.2346,0.04022 -0.0134,-0.02998 -0.0688,-0.164745 0.0332,-0.460375 0.0205,-0.0575 0.0466,-0.142875 0.0466,-0.142875 0.0226,-0.06456 -0.005,-0.09983 -0.0374,-0.02082 m 0.37359,1.341612 c -0.0272,0.08396 -0.0473,0.148521 -0.0109,0.244475 0.0363,0.09596 0.13476,0.313267 0.15134,0.344313 0.0162,0.0314 0.0201,0.06632 -0.0339,0.08925 -0.054,0.02294 -0.30128,0.07585 -0.34714,-0.187677 -0.0459,-0.263525 -0.0497,-0.340432 -0.0727,-0.384882 -0.0229,-0.0448 -0.0448,-0.04974 -0.0621,-0.0053 -0.0176,0.04445 -0.0286,0.136173 -0.0314,0.150989 -0.002,0.01482 -0.002,0.02574 0.007,0.04198 0.01,0.01622 0.1083,0.310446 0.0638,0.391584 -0.0448,0.08114 -0.26634,0.227189 -0.38241,0.07444 -0.0554,-0.106891 -0.0215,-0.377121 -0.0215,-0.440266 0,-0.0635 -0.0204,-0.08502 -0.0473,-0.03387 -0.0272,0.05115 -0.042,0.08502 -0.0406,0.131233 0.001,0.04586 0.008,0.243063 0.004,0.305152 -0.004,0.06209 0,0.263173 0.11888,0.319969 0.11889,0.0568 0.2921,0.0042 0.42299,-0.243062 0.10089,0.147108 0.25505,0.147812 0.3376,0.117475 0.0702,-0.02574 0.14852,-0.130882 0.17145,-0.276932 0.0229,-0.14605 -0.0148,-0.245885 -0.061,-0.328083 -0.0607,-0.101248 -0.10125,-0.271285 -0.10125,-0.271285 -0.0215,-0.06103 -0.0377,-0.123121 -0.0645,-0.03951 m -5.08882,-0.112183 c -0.0342,0.09031 -0.18274,0.403579 -0.13688,0.760237 0.0102,0.08255 0.0794,0.240242 0.2166,0.237067 0.0706,-0.0042 0.15981,-0.05609 0.21273,-0.262467 0.009,-0.04657 0.0138,-0.08361 0.0173,-0.1016 0.006,-0.02822 -0.0183,-0.05927 -0.0381,0.0046 -0.0444,0.127352 -0.17392,0.221543 -0.28399,0.06103 -0.0183,-0.0321 -0.0949,-0.179213 0.0113,-0.515763 0.0215,-0.06526 0.048,-0.162629 0.048,-0.162629 0.024,-0.07338 -0.012,-0.110773 -0.0469,-0.02045 m 11.93306,-0.905227 c -0.0346,0.08431 -0.1785,0.375002 -0.15663,0.717198 0.005,0.07902 0.0575,0.233186 0.1771,0.237419 0.0614,0 0.14111,-0.0448 0.19755,-0.238477 0.0102,-0.04375 0.0159,-0.07867 0.0201,-0.09631 0.006,-0.02612 -0.0134,-0.05715 -0.0332,0.0028 -0.0452,0.118888 -0.16228,0.20179 -0.25012,0.04269 -0.0141,-0.0314 -0.0734,-0.175684 0.0353,-0.491067 0.0219,-0.06103 0.0494,-0.152048 0.0494,-0.152048 0.0247,-0.06914 -0.005,-0.10654 -0.0395,-0.02222 m 3.30765,0.173215 c -0.0321,0.07832 -0.16545,0.347133 -0.14499,0.663927 0.005,0.07338 0.0533,0.216251 0.16369,0.220133 0.0568,-2.65e-4 0.13053,-0.04163 0.18274,-0.221192 0.01,-0.04022 0.0148,-0.07267 0.0183,-0.0889 0.006,-0.024 -0.012,-0.05292 -0.0307,0.0028 -0.0416,0.109712 -0.14993,0.186619 -0.23107,0.03916 -0.013,-0.02928 -0.0681,-0.162632 0.0328,-0.45438 0.0201,-0.05644 0.0459,-0.14111 0.0459,-0.14111 0.0222,-0.06385 -0.005,-0.09842 -0.0367,-0.02045 m -6.20642,0.0085 -0.16863,0.230717 -0.32279,-0.235657 c -0.008,-0.0056 -0.0198,-0.0035 -0.0261,0.0049 l -0.19473,0.267404 c -0.006,0.0085 -0.005,0.02011 0.003,0.02611 l 0.33267,0.242711 c 0.008,0.0056 0.0198,0.0035 0.0261,-0.0049 l 0.16827,-0.230717 0.32315,0.235654 c 0.008,0.0056 0.0194,0.0035 0.0254,-0.0049 l 0.19543,-0.267406 c 0.006,-0.0085 0.004,-0.02011 -0.004,-0.02611 l -0.33267,-0.24271 c -0.008,-0.0056 -0.0198,-0.0035 -0.0257,0.0049 m 1.30317,0.415925 c -0.013,0.04515 -0.0455,0.239887 -0.0533,0.279752 -0.008,0.04022 -0.007,0.07973 0.0124,0.1143 0.0198,0.03422 0.0706,0.152752 0.10689,0.248708 0.0363,0.09666 0.41416,0.82409 0.44909,0.888648 0.0349,0.06456 0.0423,0.112887 0.007,0.155575 -1.21285,1.279525 -3.55318,2.066219 -3.62762,2.10961 -0.0748,0.04374 -0.055,0.07726 0.0709,0.05539 0.18839,-0.03316 1.23931,-0.208844 1.53917,-0.353484 0.19756,-0.09525 0.88794,-0.433916 1.45239,-0.8763 -0.0159,0.1143 -0.0303,0.282223 -0.0222,0.4953 0.0381,1.029055 0.95815,0.858309 1.19945,0.805392 0.7239,-0.15875 1.60866,-1.159227 1.68416,-1.36031 0.0741,-0.19826 0.085,-0.37959 0.0681,-0.537282 0.19086,-0.103362 0.60008,-0.43321 0.60008,-0.43321 0.0166,0.438502 0.36583,0.570442 0.47343,0.589492 0.50376,0.0762 0.756,-0.34431 0.86324,-0.480835 0.0914,0.240241 0.31186,0.28716 0.42545,0.309737 0.43463,0.08608 0.51894,-0.220837 0.54187,-0.291042 0.13582,-0.423685 -0.10971,-0.73942 -0.14111,-0.774345 -0.0314,-0.03528 -0.0476,-0.0013 -0.0586,0.03916 -0.0109,0.04057 -0.0466,0.19332 -0.0681,0.28857 0,0 0.0907,0.148167 0.12277,0.223663 0.0324,0.07549 -0.0155,0.116417 -0.10901,0.128059 -0.26388,0.03245 -0.47519,-0.11924 -0.54786,-0.18909 -0.0723,-0.06985 0.006,-0.193323 0.0646,-0.340784 0.0473,-0.118181 -0.0399,-0.132291 -0.10654,-7.93e-4 -0.22402,0.589139 -0.5387,0.652639 -0.6216,0.675216 -0.74612,0.2032 -0.68192,-0.47907 -0.6791,-0.59055 0.002,-0.112183 -0.0794,-0.07055 -0.17109,0.0032 -0.31362,0.251884 -0.56692,0.40005 -0.70309,0.46073 -0.11677,-0.228955 -0.28681,-0.372533 -0.35877,-0.424392 -0.80751,-0.58914 -0.87384,0.599017 -0.84949,0.726369 0.12276,0.505177 0.94791,0.198966 1.07703,0.183798 0.12947,-0.01516 0.0871,0.155575 0.0145,0.25682 -0.17886,0.250473 -0.38523,0.429684 -0.57256,0.582438 -0.79975,0.652637 -1.20121,0.601134 -1.32468,0.5969 -0.78528,-0.02188 -0.71296,-0.868188 -0.66957,-1.049163 0.23636,-0.200025 0.43921,-0.418041 0.55739,-0.641702 0.0476,-0.122766 0.13052,-0.401814 -0.019,-0.751768 -0.0787,-0.154165 -0.32632,-0.585965 -0.32632,-0.585965 0,0 0.18274,0.0056 0.20002,0.0053 0.0169,-2.65e-4 0.0515,-0.01834 0.007,-0.0695 -0.0444,-0.05115 -0.42757,-0.433562 -0.45085,-0.464254 -0.0233,-0.03034 -0.0444,-0.05256 -0.0571,-0.0074 m 2.42217,1.7526 c 0,0 -0.11006,0.06314 -0.41769,0.04233 -0.25752,-0.01728 -0.23565,-0.11783 -0.20002,-0.15593 0.0381,-0.04163 0.35384,-0.240241 0.61771,0.113597 m -3.31681,-1.424872 c -0.0533,0.06632 -0.58914,0.769763 -0.58914,0.769763 l -0.39017,-0.27799 c 0,0 0.15875,-0.03986 0.18661,-0.04763 0.0275,-0.0085 0.0434,-0.0441 -0.006,-0.06985 -0.0501,-0.02574 -0.52034,-0.213076 -0.55597,-0.227893 -0.036,-0.0141 -0.0487,-0.03069 -0.0519,0.0074 -0.003,0.03845 -0.009,0.347837 -0.009,0.347837 0,0 -0.007,0.02151 0.0339,0.04516 0.0413,0.02294 0.0815,0.07303 0.11536,0.10654 0.0332,0.03351 0.47061,0.378528 0.49177,0.390876 0,0 -0.21872,0.384527 -0.24659,0.685449 -0.0275,0.300918 0.006,0.716137 0.41698,0.582083 0.11078,-0.0314 0.5715,-0.21449 0.67416,-0.535871 0.0335,-0.118534 0.12842,-0.332317 -0.0257,-0.548921 -0.0892,-0.127354 -0.44909,-0.342548 -0.44909,-0.342548 0,0 0.27623,-0.382058 0.30233,-0.428625 0.0268,-0.04692 0.12806,-0.3429 0.139,-0.414515 0.0116,-0.07161 0.0173,-0.107243 -0.0363,-0.04127 m -0.0942,1.62278 c -0.15275,0.125942 -0.47413,0.291745 -0.56409,0.300212 -0.0903,0.0088 -0.32985,-0.03493 -0.22543,-0.280458 0.0353,-0.07937 0.27482,-0.48895 0.27482,-0.48895 0.0893,0.04904 0.66745,0.343254 0.5147,0.469196 m 6.23076,0.561975 c -0.031,0.08643 -0.043,0.142875 -0.0402,0.175683 0.003,0.03281 0.0148,0.1397 0.0148,0.1397 -0.0321,0.02574 -0.16863,0.110771 -0.3055,0.0099 0.009,-0.02893 0.0268,-0.08855 0.0307,-0.121356 0.0148,-0.05045 -0.0162,-0.08784 -0.0413,-0.03563 -0.025,0.05256 -0.0829,0.228245 -0.12594,0.267758 -0.043,0.03916 -0.0931,0.184502 -0.41945,0.03704 -0.0568,-0.02223 -0.15699,-0.09631 -0.31256,0.06032 -0.35278,0.327729 -0.5962,0.353483 -0.99131,0.493887 -0.048,0.02222 -0.14852,0.09737 -0.0289,0.08537 0.11889,-0.01164 0.62019,2.65e-4 0.89253,-0.31256 0.0572,-0.05539 0.12241,-0.20179 0.33902,-0.116771 0.11994,0.04551 0.34149,0.235656 0.58349,-0.140052 0.14253,0.0949 0.35878,0.0568 0.3937,-0.04798 0.0342,-0.104423 0.0741,-0.208492 0.0737,-0.279755 -8e-4,-0.07126 -0.007,-0.164745 -0.007,-0.164745 -0.005,-0.05645 -0.0247,-0.13688 -0.0561,-0.0508 m -9.77195,0.31256 c -0.0321,0.07902 -0.16721,0.351719 -0.14675,0.672748 0.005,0.07408 0.054,0.218721 0.1658,0.222602 0.0579,-2.64e-4 0.1323,-0.04198 0.18521,-0.22366 0.009,-0.04092 0.0148,-0.07408 0.019,-0.08996 0.006,-0.02469 -0.0127,-0.05362 -0.0314,0.0024 -0.042,0.111125 -0.15205,0.18909 -0.23425,0.03951 -0.0134,-0.02928 -0.0691,-0.164393 0.0332,-0.46002 0.0201,-0.05715 0.0462,-0.142875 0.0462,-0.142875 0.0229,-0.06456 -0.004,-0.09984 -0.037,-0.02082 m -4.5794,-0.01199 c -0.0681,0.0381 -1.57798,0.708729 -1.64853,0.752475 -0.0706,0.04374 -0.0956,0.05468 -0.1076,0.108302 -0.0124,0.05327 -0.0183,0.08431 -0.0219,0.09313 -0.0131,0.03563 -0.0229,0.08008 0.0811,0.01482 0.0324,-0.02011 1.5554,-0.697793 1.6136,-0.734483 0.0582,-0.03669 0.0928,-0.05009 0.11748,-0.105482 0.024,-0.05539 0.03,-0.06491 0.0434,-0.103716 0.0141,-0.04092 0.0282,-0.08431 -0.0776,-0.02506"
       style="fill:#231f20;fill-opacity:1;fill-rule:evenodd;stroke:none;stroke-width:0.264583"
       id="path1" />
  </g>
</svg>
