<?xml version="1.0" encoding="UTF-8" standalone="no"?>
<!-- Created with Inkscape (http://www.inkscape.org/) -->

<svg
   width="20.680456mm"
   height="6.5514617mm"
   viewBox="0 0 20.680456 6.5514617"
   version="1.1"
   id="svg1"
   xmlns:inkscape="http://www.inkscape.org/namespaces/inkscape"
   xmlns:sodipodi="http://sodipodi.sourceforge.net/DTD/sodipodi-0.dtd"
   xmlns="http://www.w3.org/2000/svg"
   xmlns:svg="http://www.w3.org/2000/svg">
  <sodipodi:namedview
     id="namedview1"
     pagecolor="#ffffff"
     bordercolor="#666666"
     borderopacity="1.0"
     inkscape:showpageshadow="2"
     inkscape:pageopacity="0.0"
     inkscape:pagecheckerboard="0"
     inkscape:deskcolor="#d1d1d1"
     inkscape:document-units="mm" />
  <defs
     id="defs1" />
  <g
     inkscape:label="Layer 1"
     inkscape:groupmode="layer"
     id="layer1"
     transform="translate(-118.54434,-47.477145)">
    <path
       d="m 129.81771,47.497153 c -0.0162,0.03951 -0.11219,0.30339 -0.11219,0.30339 0.0257,0.17145 0.25294,2.01436 0.26776,2.13995 0.0152,0.125941 0.33443,2.123368 0.35101,2.70016 -0.005,0.05891 0.0212,0.08079 0.048,0.02434 0.0268,-0.05644 0.21273,-0.354187 -0.008,-1.764593 -0.0162,-0.117123 -0.35031,-2.500135 -0.35031,-2.500135 0,0 0.19721,0.18556 0.22896,0.219075 0.0314,0.03351 0.0699,0.01553 0.0519,-0.03845 -0.018,-0.05398 -0.42193,-1.03011 -0.43498,-1.064329 -0.013,-0.03387 -0.0261,-0.05856 -0.0423,-0.01939 m -3.92078,0 c -0.0162,0.03951 -0.11218,0.30339 -0.11218,0.30339 0.0261,0.17145 0.25294,2.01436 0.26811,2.13995 0.0148,0.125942 0.33408,2.210152 0.35066,2.786944 -0.004,0.05891 0.0212,0.08079 0.0483,0.02434 0.0268,-0.05644 0.21273,-0.44097 -0.008,-1.851377 -0.0166,-0.117123 -0.35066,-2.500135 -0.35066,-2.500135 0,0 0.1972,0.18556 0.22895,0.219075 0.0318,0.03351 0.0702,0.01553 0.0519,-0.03845 -0.018,-0.05398 -0.42157,-1.030111 -0.43497,-1.064329 -0.013,-0.03387 -0.0258,-0.05856 -0.0423,-0.01939 m 1.49473,0.09137 c -0.0325,0.07937 -0.16793,0.352425 -0.14747,0.67451 0.005,0.07444 0.054,0.219075 0.16616,0.222957 0.0579,0 0.133,-0.04233 0.18592,-0.224015 0.009,-0.04163 0.0148,-0.07444 0.0187,-0.09031 0.006,-0.02506 -0.0124,-0.05398 -0.031,0.0024 -0.0427,0.111477 -0.15276,0.189442 -0.23495,0.03986 -0.0134,-0.02963 -0.0692,-0.1651 0.0332,-0.461433 0.0204,-0.05715 0.0466,-0.14323 0.0466,-0.14323 0.0229,-0.06491 -0.005,-0.100187 -0.0371,-0.02082 m 4.09081,0.207785 c -0.0699,0.106892 -0.12206,0.363009 -0.0222,0.435682 0.10019,0.07338 0.24659,0.132643 0.24659,0.132643 -0.46602,0.570794 -0.78493,0.679802 -1.05727,0.839611 -0.0702,0.04092 -0.0561,0.07796 -0.0152,0.06667 0.0215,-0.0056 0.38806,-0.06244 0.81598,-0.387702 0.23142,-0.175684 0.37183,-0.47625 0.37183,-0.47625 0,0 0.11571,0.09666 0.13158,0.116416 0.0349,0.04339 0.0543,0.07585 0.0706,0.02963 0.061,-0.168627 -0.0251,-0.270582 -0.10725,-0.323144 0,0 0.0854,-0.263525 -0.0716,-0.527404 -0.0265,-0.0441 -0.18203,-0.185561 -0.36301,0.09384 m 0.24377,0.07302 c 0.10478,0.09737 0.0889,0.257527 0.0847,0.294217 0,0 -0.13406,-0.06244 -0.19403,-0.08819 -0.0596,-0.02574 -0.0914,-0.06385 -0.0639,-0.101955 0.0924,-0.12982 0.13794,-0.125235 0.17321,-0.104069 m 6.27839,0.02294 c -0.0699,0.106537 -0.12206,0.362654 -0.0219,0.435327 0.10018,0.07338 0.24623,0.132643 0.24623,0.132643 -0.46566,0.570797 -1.38041,0.976842 -1.59808,1.146882 -0.0653,0.04903 -0.0564,0.07796 -0.0152,0.06703 0.0363,-0.0099 0.73307,-0.204611 1.37019,-0.750711 0.2921,-0.250118 0.28399,-0.268816 0.35842,-0.420864 0.0635,0.03281 0.10689,0.08572 0.13159,0.116416 0.0353,0.04375 0.0543,0.07585 0.0709,0.02999 0.0607,-0.168981 -0.0254,-0.270933 -0.10725,-0.323498 0,0 0.0854,-0.263173 -0.072,-0.527402 -0.0265,-0.0441 -0.18203,-0.185563 -0.363,0.09419 m 0.24377,0.07267 c 0.10477,0.09737 0.0889,0.257882 0.085,0.294217 0,0 -0.13406,-0.06244 -0.19439,-0.08819 -0.0596,-0.02574 -0.0914,-0.06385 -0.0635,-0.101951 0.0924,-0.129824 0.13794,-0.125238 0.17287,-0.104072 m -1.78859,-0.165803 c -0.18274,0.232833 -0.19473,0.538691 -0.21907,0.879826 -0.0261,-0.07126 -0.17216,-0.528814 -0.63959,-0.790575 -0.0339,-0.01905 -0.10266,0.01693 -0.10936,0.124884 -0.004,0.06244 -0.0215,0.214841 0.0226,0.258233 0.0441,0.04304 0.17462,0.128058 0.1965,0.1397 0.0222,0.01236 0.0455,0.0141 0.0522,-0.01236 0.006,-0.02611 0.0363,-0.08678 0.0787,-0.04339 0.0356,0.03598 0.26599,0.226484 0.38558,0.630767 0.0208,0.05362 0.0702,0.05856 0.0819,-0.01728 0.0275,-0.186973 0.0427,-0.511527 0.0575,-0.6096 0.0208,-0.13829 0.0871,-0.423334 0.26211,-0.275519 0.0395,0.03387 0.0819,0.07832 0.0819,0.07832 0.0374,0.04657 0.0836,0.100187 0.10654,0.04586 0.0346,-0.08114 0.0621,-0.216606 0.0243,-0.289631 -0.0166,-0.03281 -0.23354,-0.307269 -0.3817,-0.119237 m -1.80023,-0.01093 c -0.0677,0.03951 -1.78752,1.03223 -1.85702,1.077384 -0.0702,0.0448 -0.0949,0.05645 -0.10584,0.110421 -0.0113,0.05362 -0.0169,0.08467 -0.0198,0.09313 -0.0127,0.03598 -0.0215,0.08043 0.0811,0.01341 0.0318,-0.02082 1.76212,-1.020585 1.82245,-1.058333 0.0582,-0.03634 0.0917,-0.05186 0.11501,-0.107595 0.0233,-0.05574 0.0293,-0.06562 0.0416,-0.104423 0.0134,-0.04127 0.0268,-0.08502 -0.0776,-0.024 m -10.10532,0.03775 c -0.18274,0.232833 -0.19473,0.538692 -0.21907,0.879827 -0.0258,-0.07161 -0.17181,-0.528812 -0.63959,-0.790927 -0.0339,-0.01905 -0.10266,0.01728 -0.10936,0.124883 -0.004,0.06279 -0.0219,0.215194 0.0226,0.258586 0.0441,0.04304 0.17498,0.127706 0.1965,0.1397 0.0222,0.01199 0.0455,0.01376 0.0522,-0.01236 0.007,-0.02612 0.0363,-0.08678 0.0787,-0.04375 0.036,0.03634 0.26599,0.226838 0.38558,0.630767 0.0208,0.05327 0.0706,0.05891 0.0819,-0.01728 0.0279,-0.186619 0.0427,-0.511175 0.0575,-0.6096 0.0208,-0.13829 0.0871,-0.423334 0.26211,-0.275167 0.0395,0.03352 0.0819,0.07796 0.0819,0.07796 0.0374,0.04657 0.084,0.100187 0.10654,0.04621 0.0346,-0.08149 0.0624,-0.216958 0.0243,-0.289629 -0.0166,-0.03281 -0.23354,-0.307271 -0.3817,-0.11924 m -1.93817,0.187325 c -0.0409,0.13829 -0.21554,0.616302 -0.15381,1.164873 0.0145,0.127 0.1016,0.370769 0.26847,0.367594 0.0861,-0.0049 0.19332,-0.08326 0.25435,-0.39864 0.01,-0.07126 0.0152,-0.128058 0.0194,-0.156279 0.006,-0.04233 -0.024,-0.09066 -0.0466,0.0071 -0.0519,0.194381 -0.20814,0.336904 -0.34467,0.0882 -0.0229,-0.04974 -0.11853,-0.27658 0.004,-0.791633 0.0251,-0.09984 0.0554,-0.248357 0.0554,-0.248357 0.0279,-0.11289 -0.0162,-0.171098 -0.0568,-0.03281 m -2.03306,0.0085 c -0.17392,0.221191 -0.18521,0.512585 -0.20814,0.836789 -0.0247,-0.06773 -0.16369,-0.503063 -0.60854,-0.752123 -0.0321,-0.01834 -0.0981,0.01622 -0.10407,0.118534 -0.004,0.05997 -0.0208,0.20461 0.0215,0.245885 0.0402,0.03951 0.34078,0.145346 0.1778,0.3175 -0.073,0.07726 -0.43851,0.4572 -0.51718,0.549275 -0.079,0.09172 -0.0864,0.109008 -0.002,0.06174 0.0843,-0.04692 0.5715,-0.236009 0.65228,-0.719667 0.007,-0.06315 -0.006,-0.110421 -0.0212,-0.142523 0.007,0.0013 0.0141,0.006 0.0219,0.01376 0.0335,0.03422 0.25294,0.215548 0.36653,0.599723 0.0198,0.0508 0.067,0.05574 0.078,-0.01659 0.0265,-0.177448 0.0406,-0.486127 0.0547,-0.579615 0.0198,-0.131937 0.0829,-0.40287 0.24941,-0.262112 0.0378,0.0321 0.078,0.07444 0.078,0.07444 0.0353,0.04445 0.0797,0.09525 0.10124,0.04374 0.0328,-0.07726 0.0593,-0.206021 0.0233,-0.275871 -0.0159,-0.03069 -0.22225,-0.2921 -0.36337,-0.112889 m 8.41693,0.186266 c -0.0533,0.03281 -2.04364,1.024467 -2.19604,1.147586 -0.0765,0.06209 -0.14005,0.160162 -0.16228,0.2667 -0.0321,0.154164 0.006,0.306212 0.10654,0.322439 0.0702,0.0113 0.11007,0.05186 0.12806,0.07549 0.007,0.0099 0.0187,0.0028 0.0222,-0.0042 0.0794,-0.156634 0.008,-0.255411 -0.12805,-0.294217 -0.0536,-0.01553 -0.078,-0.09031 0.12135,-0.218017 0.18309,-0.117827 1.99637,-1.035402 2.03729,-1.063625 0.0547,-0.03845 0.0882,-0.05292 0.10936,-0.108302 0.0215,-0.05503 0.0268,-0.06456 0.0377,-0.10301 0.012,-0.04057 0.024,-0.08361 -0.0762,-0.02082 m -3.68547,0.655109 c -0.0377,0.09984 -0.20143,0.445206 -0.15134,0.839258 0.0116,0.09102 0.0882,0.26529 0.23918,0.261408 0.0783,-0.0046 0.17604,-0.06173 0.23495,-0.289277 0.01,-0.05151 0.0152,-0.09243 0.0194,-0.112537 0.006,-0.03069 -0.0205,-0.06526 -0.042,0.0056 -0.0494,0.140052 -0.19227,0.244121 -0.31398,0.06668 -0.0201,-0.03528 -0.10442,-0.197556 0.0127,-0.569031 0.0236,-0.07197 0.0526,-0.17921 0.0526,-0.17921 0.0268,-0.08149 -0.0127,-0.122767 -0.0515,-0.02294 m 9.67529,0.279752 c -0.0342,0.08467 -0.17851,0.375005 -0.15664,0.71755 0.005,0.07937 0.0575,0.23354 0.17674,0.237421 0.0617,0 0.14147,-0.0448 0.19791,-0.238479 0.01,-0.04374 0.0159,-0.07902 0.0201,-0.09595 0.006,-0.02646 -0.013,-0.0575 -0.0332,0.0024 -0.0452,0.118885 -0.16228,0.20179 -0.25012,0.04268 -0.0141,-0.03139 -0.0737,-0.175683 0.0353,-0.491066 0.0219,-0.06103 0.0494,-0.152046 0.0494,-0.152046 0.0247,-0.06879 -0.005,-0.106539 -0.0395,-0.02257 m 3.30729,0.173567 c -0.0317,0.07796 -0.16546,0.347133 -0.14499,0.664281 0.005,0.07303 0.0533,0.2159 0.16404,0.219427 0.0568,0 0.13088,-0.04127 0.18273,-0.220837 0.009,-0.04022 0.0148,-0.07303 0.0187,-0.0889 0.006,-0.024 -0.0124,-0.05292 -0.031,0.0028 -0.0416,0.109715 -0.14993,0.186267 -0.23107,0.03916 -0.013,-0.02928 -0.0681,-0.162629 0.0328,-0.454377 0.0198,-0.05644 0.0455,-0.140759 0.0455,-0.140759 0.0226,-0.06421 -0.004,-0.09878 -0.0367,-0.02082 m -6.20643,0.0085 -0.16827,0.230717 -0.32279,-0.235654 c -0.008,-0.0056 -0.0194,-0.0039 -0.0258,0.0049 l -0.19508,0.267406 c -0.006,0.0085 -0.005,0.02011 0.003,0.02574 l 0.33302,0.242713 c 0.008,0.006 0.0194,0.0039 0.0258,-0.0046 l 0.16827,-0.230717 0.32279,0.235305 c 0.008,0.006 0.0198,0.0039 0.0261,-0.0046 l 0.19473,-0.267758 c 0.006,-0.0081 0.005,-0.02011 -0.003,-0.02574 l -0.33267,-0.24271 c -0.008,-0.0056 -0.0198,-0.0039 -0.0261,0.0049 m -3.40465,0.175683 c -0.0998,0.108656 -0.13088,0.183446 -0.16052,0.230365 -0.0413,0.06385 0.0106,0.09243 0.0572,0.04233 0.0462,-0.04974 0.0783,-0.09983 0.21414,-0.09631 0.13547,0.0039 0.46037,-0.0088 0.33902,0.08043 -0.12136,0.08925 -0.20355,0.14111 -0.20355,0.14111 -0.0787,0.05645 -0.14817,0.16228 -0.009,0.103365 0.13899,-0.05856 0.32279,-0.151693 0.4639,-0.363715 0.0413,-0.06209 0.0896,-0.144991 -0.1016,-0.173212 -0.19085,-0.02893 -0.49989,-0.07338 -0.59972,0.03563 m -0.85725,0.11924 c -0.0381,0.09983 -0.20179,0.445558 -0.15135,0.83961 0.0117,0.09067 0.0882,0.264938 0.23919,0.261056 0.0783,-0.0046 0.17603,-0.06174 0.23495,-0.289276 0.01,-0.05116 0.0152,-0.09243 0.0194,-0.112538 0.006,-0.03069 -0.0208,-0.06526 -0.042,0.0056 -0.0494,0.140052 -0.19226,0.244121 -0.31397,0.06668 -0.0201,-0.03493 -0.10442,-0.197556 0.0124,-0.569031 0.0236,-0.07197 0.0529,-0.17921 0.0529,-0.17921 0.0265,-0.08149 -0.013,-0.122767 -0.0515,-0.02294 m -5.79156,-0.0099 c -0.0674,0.03951 -1.56492,0.73801 -1.63441,0.783167 -0.0695,0.0448 -0.0942,0.05609 -0.10549,0.110067 -0.0113,0.05398 -0.0169,0.08502 -0.0198,0.09349 -0.013,0.03598 -0.0215,0.08043 0.0811,0.01341 0.0317,-0.02082 1.54234,-0.726371 1.59949,-0.764116 0.0575,-0.03775 0.0921,-0.05186 0.11536,-0.10795 0.0233,-0.05539 0.0293,-0.06562 0.042,-0.104424 0.013,-0.04092 0.0261,-0.08467 -0.0783,-0.02363 m 1.87149,0.425096 c 0.006,0.0381 0.0173,0.05539 0.0321,0.06456 0,0 -0.0353,0.03175 -0.10512,0.163338 -0.32738,0.572558 -0.21908,0.999066 -0.21908,0.999066 0.003,0.02469 0.0247,0.07267 0.0663,0.126646 -0.15557,0.07373 -0.76552,0.281517 -1.17087,-0.293158 -0.18873,-0.327729 -0.45755,-0.277284 -0.60466,-0.125942 -0.1471,0.151342 -0.5461,0.688975 -0.33619,1.394531 -0.0882,0.03351 -0.80645,0.222602 -1.33985,0.646994 -0.14288,0.113596 -0.70168,0.554567 -1.02941,0.583848 -0.16369,0.0127 -0.60889,0.07973 -0.51647,-0.563033 0.0162,-0.106186 0.17569,-0.633942 0.59091,-1.126773 0.006,2.64e-4 0.0123,0.0013 0.0191,0.0013 0.097,-0.0056 0.21766,-0.09384 0.28681,-0.449792 0.0109,-0.08043 0.0169,-0.144288 0.0215,-0.176038 0.007,-0.04762 -0.0268,-0.102304 -0.0522,0.0078 -0.0586,0.219427 -0.2346,0.379942 -0.38877,0.09948 -0.0254,-0.05609 -0.1337,-0.311857 0.005,-0.89253 0.0279,-0.112535 0.0621,-0.280458 0.0621,-0.280458 0.0314,-0.127 -0.0183,-0.192262 -0.0642,-0.03669 -0.0459,0.155926 -0.24306,0.69497 -0.17321,1.313743 0.012,0.105127 0.0684,0.281165 0.17215,0.365832 -0.17921,0.224012 -1.04669,1.278112 -0.35772,1.951212 0.14288,0.09666 0.44521,0.319264 1.08797,-0.142875 0.17639,-0.121709 0.83996,-0.630061 1.23084,-0.739069 0.39053,-0.10936 0.82938,-0.259998 1.4919,0.12206 0.0215,-0.01976 0.0769,-0.15381 0.0483,-0.382058 -0.002,-0.03951 -0.0286,-0.06809 -0.0501,-0.08078 -0.0215,-0.01236 -0.74647,-0.268465 -0.89146,-0.539398 -0.0356,-0.06526 -0.16369,-0.382059 0.19967,-0.693209 0.0522,-0.0448 0.24977,-0.184853 0.35701,-0.0314 0.10689,0.153458 0.3235,0.579612 0.8696,0.577495 0.11641,-0.0019 0.46461,-0.01482 0.90769,-0.275518 0.0353,0.0088 0.0727,0.01588 0.11289,0.02011 0.15487,0.01164 0.80328,0.09948 0.92005,0.09067 0.0296,-0.0021 0.0706,-0.0019 0.11641,-0.0049 -0.0282,0.04092 -0.0593,0.1016 -0.0815,0.170744 -0.0642,0.198615 -0.13829,0.69709 -0.11465,0.865013 0.12523,0.894291 0.71402,0.859718 0.87066,0.854427 0.9525,-0.03387 1.62454,-0.829027 1.77835,-1.016707 0.15416,-0.187677 0.1591,-0.674158 0.1591,-0.674158 0.85478,0.237066 1.61502,-0.121709 1.69721,-0.167921 0.0815,-0.04657 0.16369,-0.290338 0.18451,-0.382413 0.10301,-0.455787 -0.2533,-0.798687 -0.28011,-0.827616 -0.0268,-0.02893 -0.0568,-0.0254 -0.0656,0.01482 -0.008,0.03986 -0.0459,0.311505 -0.0459,0.311505 0.12594,0.160867 0.21943,0.3175 0.23636,0.364419 0.0166,0.04727 -0.0212,0.133701 -0.13511,0.177093 -0.66146,0.25259 -1.20156,0.191558 -1.50601,0.08502 -0.3048,-0.106891 -0.40922,-0.428625 -0.44838,-0.487539 -0.0392,-0.05891 -0.0547,-0.01516 -0.0635,0.01728 l -0.0519,0.256117 c 0,0 0.0448,0.128764 0.22966,0.487187 0.18486,0.358421 0.042,0.450496 -0.0388,0.543277 -0.70627,0.809273 -1.46227,0.889 -1.64712,0.89041 -1.03082,0.0095 -0.67734,-1.218141 -0.61877,-1.428043 0.007,-0.0254 0.0113,-0.04516 0.013,-0.06103 0.12171,-0.02045 0.25612,-0.08149 0.31432,-0.275871 0.0247,-0.08255 0.15558,-0.451556 -0.1404,-0.800806 -0.13088,-0.154517 -0.79164,-0.423334 -0.88794,-0.475898 -0.0963,-0.05256 -0.29175,-0.178152 -0.29175,-0.178152 0.073,-0.0088 0.14005,-0.0321 0.17498,-0.04092 0.0349,-0.0088 0.0265,-0.05821 -0.0378,-0.08184 -0.0642,-0.02328 -0.45861,-0.160515 -0.47943,-0.178152 -0.0204,-0.01728 -0.0289,0.306562 -0.0229,0.344662 m 0.58984,0.757063 c 0.1016,0.282221 -0.2921,0.404283 -0.3429,0.416983 0,0 -0.13229,0.01516 -0.36089,-0.201083 -0.12665,-0.119592 0.0381,-0.388763 0.21837,-0.541163 0.18062,-0.1524 0.45543,0.242359 0.48542,0.325263 m 0.95532,0.345721 c 0.049,0.0628 0.0505,0.131939 -0.025,0.147462 -0.42193,0.08643 -0.84914,-0.01516 -0.84914,-0.01516 0.0487,-0.02787 0.18309,-0.317852 0.13229,-0.549275 0,0 0.47519,0.07408 0.74189,0.416983 m 7.94032,-1.397 c -0.0127,0.04516 -0.0455,0.23989 -0.0536,0.279755 -0.008,0.03986 -0.007,0.08008 0.0127,0.1143 0.0198,0.03387 0.0702,0.1524 0.10689,0.248708 0.0363,0.09631 0.41452,0.824087 0.44944,0.888645 0.0346,0.06456 0.042,0.112538 0.007,0.155224 -0.81845,0.8636 -1.87854,1.386768 -2.50437,1.649589 -0.30163,0.126294 -0.39652,0.140759 -0.42087,0.155221 -0.0709,0.02328 -0.0617,0.09102 0.0505,0.07691 0.16404,-0.01799 0.25012,-0.03493 0.41028,-0.05997 0.37924,-0.07197 0.8569,-0.173918 1.04317,-0.263877 0.16933,-0.08149 0.5087,-0.259998 0.84631,-0.540102 -0.0109,0.107596 -0.0187,0.246592 -0.0124,0.413102 0.0381,1.029052 0.95815,0.858308 1.1998,0.805392 0.72355,-0.159102 1.60866,-1.159227 1.68381,-1.36031 0.0741,-0.198615 0.085,-0.37959 0.0681,-0.537634 0.1905,-0.103364 0.60008,-0.433213 0.60008,-0.433213 0.0166,0.438857 0.36618,0.570797 0.47343,0.589847 0.50341,0.0762 0.756,-0.344313 0.8636,-0.48119 0.091,0.240593 0.3115,0.28716 0.42509,0.30974 0.43462,0.08643 0.51894,-0.22084 0.54187,-0.29069 0.13617,-0.423685 -0.10971,-0.739423 -0.14111,-0.774348 -0.0314,-0.03528 -0.0476,-0.0019 -0.0586,0.03916 -0.0113,0.04022 -0.0462,0.192971 -0.0681,0.288573 0,0 0.0907,0.147815 0.12312,0.223309 0.0321,0.07549 -0.0159,0.116768 -0.10936,0.128058 -0.26423,0.03246 -0.47519,-0.118885 -0.54786,-0.188735 -0.0727,-0.06985 0.006,-0.193675 0.0649,-0.341138 0.0469,-0.117827 -0.0402,-0.132292 -0.10725,0 -0.22401,0.588433 -0.53834,0.651933 -0.62124,0.674513 -0.74612,0.203552 -0.68157,-0.478722 -0.6791,-0.59055 0.003,-0.111832 -0.079,-0.07056 -0.17109,0.0035 -0.31362,0.251883 -0.56692,0.40005 -0.70274,0.460375 -0.11712,-0.228952 -0.28716,-0.372534 -0.35913,-0.424392 -0.8075,-0.588785 -0.87382,0.599368 -0.84948,0.726723 0.12276,0.505177 0.94791,0.198967 1.07738,0.183444 0.12912,-0.01516 0.0868,0.155926 0.0141,0.257175 -0.17886,0.250118 -0.38558,0.429683 -0.57256,0.582435 -0.79974,0.652288 -1.2012,0.601133 -1.32468,0.5969 -0.70167,-0.01976 -0.71896,-0.697794 -0.68333,-0.970844 0.2159,-0.197202 0.42157,-0.437091 0.5708,-0.720018 0.0483,-0.123122 0.13088,-0.401815 -0.0187,-0.751772 -0.0783,-0.154162 -0.32632,-0.586316 -0.32632,-0.586316 0,0 0.18274,0.0056 0.20003,0.0053 0.0173,0 0.0515,-0.01834 0.007,-0.06914 -0.0444,-0.05115 -0.42757,-0.433565 -0.4505,-0.464256 -0.0233,-0.03069 -0.0444,-0.05256 -0.0575,-0.0074 m 2.42217,1.752248 c 0,0 -0.11007,0.0635 -0.41734,0.04233 -0.25788,-0.01693 -0.23565,-0.117475 -0.20038,-0.155575 0.0381,-0.04163 0.35384,-0.240242 0.61772,0.113241 m -3.31647,-1.424516 c -0.0536,0.06632 -0.58984,0.76976 -0.58984,0.76976 l -0.38982,-0.277987 c 0,0 0.15875,-0.03986 0.18662,-0.04798 0.0279,-0.0081 0.0437,-0.04409 -0.006,-0.06949 -0.0501,-0.02574 -0.52035,-0.21308 -0.55598,-0.227896 -0.0356,-0.01447 -0.0487,-0.03069 -0.0519,0.0074 -0.003,0.0381 -0.009,0.34784 -0.009,0.34784 0,0 -0.007,0.02151 0.0339,0.0448 0.0413,0.02328 0.0815,0.07338 0.11501,0.10654 0.0339,0.03387 0.47095,0.379235 0.49247,0.391232 0,0 -0.21907,0.384527 -0.24659,0.685445 -0.0279,0.300921 0.005,0.71614 0.41663,0.582083 0.11077,-0.03139 0.5715,-0.214841 0.67416,-0.53622 0.0339,-0.118181 0.12841,-0.331965 -0.0257,-0.548923 -0.0893,-0.127352 -0.44909,-0.342194 -0.44909,-0.342194 0,0 0.27623,-0.382058 0.30268,-0.428979 0.0265,-0.04657 0.12771,-0.342546 0.139,-0.414512 0.0113,-0.07126 0.0169,-0.107246 -0.0363,-0.04092 m -0.0945,1.622776 c -0.15276,0.12559 -0.47413,0.291749 -0.56409,0.300215 -0.09,0.0088 -0.32985,-0.03528 -0.22543,-0.280458 0.0353,-0.07937 0.27481,-0.48895 0.27481,-0.48895 0.0893,0.04903 0.66781,0.343252 0.51471,0.469193 m -11.95211,-0.78881 c -0.0381,0.09983 -0.20179,0.445559 -0.1517,0.839259 0.012,0.09102 0.0882,0.265289 0.23954,0.26176 0.078,-0.0049 0.17604,-0.06209 0.23495,-0.289984 0.01,-0.05115 0.0152,-0.09208 0.019,-0.112183 0.006,-0.03069 -0.0204,-0.06526 -0.042,0.0053 -0.0494,0.140406 -0.19227,0.244475 -0.31362,0.06738 -0.0201,-0.03563 -0.10477,-0.197908 0.0124,-0.569383 0.024,-0.07232 0.0529,-0.17921 0.0529,-0.17921 0.0265,-0.08149 -0.013,-0.122767 -0.0515,-0.02294 m 4.25591,1.328915 c -0.0699,0.03528 -1.09432,0.444852 -1.16699,0.485421 -0.0723,0.04022 -0.0977,0.05045 -0.11218,0.103364 -0.0145,0.05257 -0.0219,0.08326 -0.0258,0.09172 -0.0148,0.03528 -0.0265,0.07902 0.0801,0.01871 0.0335,-0.01905 1.07139,-0.43462 1.13101,-0.468841 0.0596,-0.03387 0.0949,-0.04586 0.12171,-0.100187 0.0268,-0.05398 0.0335,-0.0635 0.0483,-0.101248 0.0159,-0.04057 0.0321,-0.08326 -0.0762,-0.02893 m 13.92696,0.02188 c -0.0314,0.08608 -0.0434,0.142523 -0.0402,0.175683 0.004,0.03281 0.0148,0.139348 0.0148,0.139348 -0.0321,0.02574 -0.16898,0.111125 -0.30551,0.01024 0.009,-0.02928 0.0268,-0.08855 0.031,-0.121357 0.0148,-0.05045 -0.0162,-0.08819 -0.0416,-0.03563 -0.0247,0.05256 -0.0825,0.228248 -0.12594,0.267406 -0.0427,0.03951 -0.0935,0.184502 -0.41946,0.03704 -0.0572,-0.02188 -0.15733,-0.09596 -0.31256,0.06068 -0.35242,0.327731 -0.59619,0.353483 -0.9913,0.493889 -0.048,0.02188 -0.14852,0.09737 -0.0293,0.08537 0.11924,-0.01199 0.62018,2.64e-4 0.89288,-0.312915 0.0575,-0.05539 0.12241,-0.201435 0.33902,-0.116417 0.11994,0.04551 0.34184,0.235657 0.58349,-0.140406 0.14252,0.0949 0.35878,0.05715 0.3937,-0.04763 0.0346,-0.104421 0.0741,-0.208492 0.0737,-0.279752 -7.9e-4,-0.07126 -0.007,-0.164748 -0.007,-0.164748 -0.005,-0.05644 -0.0247,-0.137229 -0.0561,-0.0508 m -9.46045,0.122414 -0.19508,0.267407 c -0.006,0.0085 -0.005,0.02011 0.003,0.02611 l 0.33303,0.242713 c 0.008,0.0056 0.0194,0.0039 0.0257,-0.0046 l 0.19509,-0.267759 c 0.006,-0.0085 0.005,-0.02011 -0.004,-0.02574 L 129.2014,52.37096 c -0.008,-0.006 -0.0198,-0.0039 -0.0257,0.0046 m -1.04317,0.50306 c -0.0208,0.03775 -0.036,0.06879 -0.0444,0.08361 -0.0127,0.02257 -0.003,0.0568 0.0317,0.0063 0.0741,-0.09772 0.20497,-0.143227 0.24342,0.02822 0.005,0.03316 0.0208,0.18274 -0.16545,0.44591 -0.0367,0.0508 -0.0868,0.127707 -0.0868,0.127707 -0.0416,0.0575 -0.0247,0.10019 0.0303,0.0314 0.0547,-0.06879 0.26705,-0.299508 0.33937,-0.623006 0.0162,-0.07514 0.009,-0.232127 -0.10019,-0.268465 -0.0572,-0.01622 -0.14322,0.0035 -0.248,0.168275 m 2.17064,-0.0071 c -0.11924,0.09243 -0.39476,0.359834 -0.27093,0.485069 0.072,0.05786 0.10407,0.08678 0.10407,0.08678 -0.0335,0.0127 -0.0621,0.04516 -0.0825,0.08573 -0.0201,0.04092 -0.0233,0.04974 -0.0335,0.07302 -0.0106,0.02328 -0.0166,0.05468 0.0406,0.02223 0.0568,-0.03246 0.19192,-0.160866 0.55704,-0.240948 0.0505,-0.01093 0.0949,-0.09384 0.0949,-0.09384 0.0215,-0.03528 0.0639,-0.116417 -0.007,-0.07655 -0.0713,0.04022 -0.26176,0.09737 -0.34643,0.08079 -0.085,-0.01622 -0.18521,-0.08925 -0.20708,-0.124179 -0.0222,-0.03493 -0.019,-0.07408 0.0483,-0.112887 0.067,-0.03881 0.14006,-0.06526 0.19156,0.02045 0.01,0.01447 0.0212,0.0141 0.0427,-0.0078 0.0219,-0.02188 0.0653,-0.08255 0.0769,-0.09984 0.0116,-0.01728 0.0208,-0.04621 0.003,-0.06773 -0.018,-0.02117 -0.0921,-0.122767 -0.21131,-0.03034 m -5.91326,0.07796 c -0.0324,0.07937 -0.16792,0.352425 -0.14746,0.674158 0.005,0.07479 0.0543,0.219429 0.16651,0.223308 0.0579,0 0.13265,-0.04198 0.18556,-0.224366 0.01,-0.04092 0.0152,-0.07408 0.019,-0.08996 0.006,-0.02468 -0.0127,-0.05398 -0.0314,0.0024 -0.042,0.111477 -0.1524,0.189442 -0.23495,0.03986 -0.013,-0.02963 -0.0688,-0.1651 0.0332,-0.461434 0.0208,-0.0575 0.0466,-0.142875 0.0466,-0.142875 0.0229,-0.06491 -0.004,-0.100187 -0.037,-0.02117 m -3.17112,0.04974 c -0.0363,0.07761 -0.18662,0.343255 -0.18309,0.665692 7.9e-4,0.07444 0.0423,0.221546 0.15381,0.231423 0.0579,0.0032 0.13476,-0.03457 0.19756,-0.213783 0.0116,-0.04057 0.0191,-0.07303 0.0236,-0.0889 0.007,-0.02434 -0.009,-0.05433 -0.031,7.93e-4 -0.0483,0.109009 -0.16263,0.180975 -0.23707,0.02752 -0.0116,-0.03069 -0.06,-0.168981 0.0582,-0.458965 0.0236,-0.05609 0.054,-0.140406 0.054,-0.140406 0.0265,-0.0635 0.001,-0.100187 -0.036,-0.02328 m 1.84221,0.271639 -0.16828,0.230717 -0.32314,-0.235302 c -0.008,-0.006 -0.0198,-0.0039 -0.0258,0.0046 l -0.19473,0.267407 c -0.006,0.0085 -0.005,0.02011 0.003,0.02574 l 0.33302,0.243065 c 0.008,0.0056 0.0198,0.0039 0.0258,-0.0049 l 0.16862,-0.230717 0.32279,0.235657 c 0.008,0.0056 0.0198,0.0039 0.0258,-0.0049 l 0.19509,-0.267407 c 0.006,-0.0085 0.005,-0.02011 -0.003,-0.02611 l -0.33302,-0.242358 c -0.008,-0.006 -0.0198,-0.0039 -0.0257,0.0046 m 7.76993,0.243417 c -0.0716,0.03175 -0.7306,0.245885 -0.82197,0.277283 -0.0783,0.02716 -0.10019,0.04551 -0.11712,0.09772 -0.0169,0.05186 -0.0265,0.08255 -0.0303,0.09066 -0.0166,0.03422 -0.0303,0.07726 0.079,0.02257 0.0342,-0.01728 0.70873,-0.238125 0.78564,-0.262818 0.0649,-0.02117 0.097,-0.04092 0.12665,-0.09384 0.0293,-0.05292 0.0363,-0.06173 0.0529,-0.09913 0.018,-0.03916 0.0363,-0.08149 -0.0748,-0.03246"
       style="fill:#231f20;fill-opacity:1;fill-rule:evenodd;stroke:none;stroke-width:0.264583"
       id="path1-3" />
  </g>
</svg>
