<?xml version="1.0" encoding="UTF-8" standalone="no"?>
<!-- Created with Inkscape (http://www.inkscape.org/) -->

<svg
   width="17.951521mm"
   height="6.2691164mm"
   viewBox="0 0 17.951521 6.2691164"
   version="1.1"
   id="svg1"
   xmlns:inkscape="http://www.inkscape.org/namespaces/inkscape"
   xmlns:sodipodi="http://sodipodi.sourceforge.net/DTD/sodipodi-0.dtd"
   xmlns="http://www.w3.org/2000/svg"
   xmlns:svg="http://www.w3.org/2000/svg">
  <sodipodi:namedview
     id="namedview1"
     pagecolor="#ffffff"
     bordercolor="#666666"
     borderopacity="1.0"
     inkscape:showpageshadow="2"
     inkscape:pageopacity="0.0"
     inkscape:pagecheckerboard="0"
     inkscape:deskcolor="#d1d1d1"
     inkscape:document-units="mm" />
  <defs
     id="defs1" />
  <g
     inkscape:label="Layer 1"
     inkscape:groupmode="layer"
     id="layer1"
     transform="translate(-73.338938,-23.913678)">
    <path
       d="m 81.543524,23.934137 c -0.01516,0.03986 -0.104423,0.306212 -0.104423,0.306212 0.02963,0.170744 0.301273,2.007659 0.319265,2.132894 0.0092,0.06527 0.106539,0.734131 0.201789,1.442156 -0.471312,-0.04339 -1.003654,-0.117123 -1.388533,-0.242006 0.01659,-0.07973 0.04586,-0.180269 0.05468,-0.352777 0.02082,-0.369713 -0.384527,-2.330098 -0.384527,-2.330098 0,0 0.20179,0.180269 0.234244,0.213077 0.03281,0.03281 0.07056,0.0141 0.05115,-0.03916 -0.01939,-0.05398 -0.446617,-1.020234 -0.460375,-1.053746 -0.0141,-0.03352 -0.02752,-0.05786 -0.04304,-0.01834 -0.01516,0.03951 -0.104775,0.305859 -0.104775,0.305859 0.01516,0.08608 0.186973,1.147233 0.36689,2.150888 0.01516,0.08431 0.137229,0.879475 0.106537,0.912987 -0.0508,0.06456 -1.062564,0.105129 -1.109837,0.189796 -0.04762,0.08431 -0.115006,0.250119 -0.135467,0.297744 -0.02011,0.04727 -0.01024,0.05398 0.02717,0.04727 0.03704,-0.0067 0.551392,-0.125238 1.939571,0.236712 -0.03739,0.02045 -1.469319,0.738365 -2.403475,0.548923 -0.194027,-0.03951 -0.924277,-0.268817 -0.583846,-1.1176 v -0.0011 c 0.525285,-0.286102 0.867127,-0.536927 0.867127,-0.536927 0,0 0.156985,-0.339022 0.118885,-0.356307 -0.0388,-0.01765 -1.45697,-0.31115 -2.613376,-0.195791 -0.09102,0.01024 -0.615244,0.08043 -0.712965,0.492831 -0.0141,0.08008 -0.02998,0.314677 0.146756,0.461079 0.140052,0.115713 0.5207,0.412398 0.555625,0.45085 -0.115358,0.05927 -0.9525,0.442383 -1.364543,0.851254 -0.165807,0.164394 -0.625475,0.800804 -0.868188,0.923571 -0.2159,0.109008 -0.714727,0.183446 -0.765175,-0.475192 -0.02117,-0.277283 0.07338,-0.817737 0.394758,-1.275292 0.0032,-0.0053 0.0056,-0.01093 0.0074,-0.01622 0.08396,-0.03528 0.173922,-0.147814 0.230013,-0.436739 0.01093,-0.08008 0.01693,-0.144286 0.02188,-0.176036 0.0067,-0.04763 -0.02681,-0.102306 -0.05256,0.0081 -0.05856,0.219075 -0.234246,0.379587 -0.388763,0.09913 -0.0254,-0.05574 -0.133702,-0.311854 0.0049,-0.892175 0.02822,-0.112887 0.06244,-0.280458 0.06244,-0.280458 0.0314,-0.127 -0.01834,-0.192617 -0.06421,-0.03704 -0.04586,0.15593 -0.243062,0.695325 -0.173212,1.313746 0.01376,0.121354 0.08678,0.33655 0.223309,0.397579 -0.0039,0.0063 -0.0074,0.0127 -0.01093,0.02011 -0.09772,0.198967 -0.552095,0.897821 -0.359833,1.67005 0.04904,0.15734 0.216606,0.670984 0.793046,0.520348 0.174977,-0.05574 0.409221,-0.156985 0.856192,-0.729898 0.124883,-0.15381 0.410633,-0.652991 1.732137,-1.197327 0.05539,0.06914 0.103365,0.142875 0.13335,0.22225 0.03528,0.08396 0.04904,0.05257 0.05962,0.0035 0.0071,-0.03316 0.04445,-0.166158 0.02117,-0.310795 0.365829,-0.13053 0.706966,-0.288573 1.001183,-0.44168 -0.05645,0.23989 -0.349604,1.071034 0.467429,1.394884 0.200025,0.07937 0.609248,0.266348 1.98261,-0.226836 0.261408,-0.09384 0.889706,-0.419806 1.589617,-0.524226 0.06315,0.489301 0.115713,0.93627 0.127,1.146526 -0.0035,0.05891 0.02294,0.08043 0.04833,0.02294 0.01939,-0.04269 0.127,-0.411692 0.08149,-1.19733 0.188031,-0.01164 0.378531,-0.0039 0.565502,0.03105 0.05891,-0.100541 0.176741,-0.407106 0.176741,-0.407106 -0.06879,-0.0039 -0.380293,-0.01199 -0.777875,-0.04127 -0.01728,-0.159102 -0.04057,-0.330906 -0.07055,-0.51576 -0.01939,-0.116771 -0.410988,-2.490965 -0.410988,-2.490965 0,0 0.201438,0.180623 0.234246,0.213077 0.0321,0.03281 0.0702,0.0141 0.0508,-0.03916 -0.01905,-0.05362 -0.446617,-1.020234 -0.46073,-1.053746 -0.01376,-0.03351 -0.02752,-0.05786 -0.04268,-0.01834 m -3.458279,2.980973 c 0.160867,0.01376 0.365125,0.0508 0.340784,0.07514 -0.765175,0.485775 -1.618546,0.752123 -1.618546,0.752123 0,0 -0.308327,-0.324204 -0.748594,-0.635 -0.136173,-0.104775 0.12206,-0.178506 0.188735,-0.192264 0.426157,-0.118886 1.676755,-0.0141 1.837621,0 M 76.97861,23.966278 c -0.03034,0.07479 -0.158044,0.332669 -0.138994,0.63641 0.0046,0.07056 0.05115,0.207082 0.156985,0.210961 0.05468,-2.65e-4 0.125236,-0.03986 0.175684,-0.212019 0.0085,-0.03881 0.0141,-0.06985 0.01799,-0.08502 0.0049,-0.02328 -0.01236,-0.0508 -0.02963,0.0024 -0.04022,0.105481 -0.144285,0.178858 -0.221898,0.03775 -0.0127,-0.02787 -0.06526,-0.15593 0.0314,-0.435682 0.01905,-0.05433 0.04374,-0.135114 0.04374,-0.135114 0.02151,-0.06103 -0.0042,-0.09454 -0.03528,-0.01976 m 6.56872,0.189087 c -0.0702,0.106892 -0.122767,0.362657 -0.02223,0.435682 0.09984,0.07338 0.24624,0.132643 0.24624,0.132643 -0.466019,0.570797 -0.784932,0.679805 -1.057275,0.839613 -0.06985,0.04092 -0.05609,0.07796 -0.01516,0.06703 0.02117,-0.006 0.387702,-0.06279 0.815975,-0.388056 0.231775,-0.175684 0.371827,-0.47625 0.371827,-0.47625 0,0 0.11571,0.09666 0.131585,0.116064 0.03528,0.04374 0.05397,0.0762 0.07056,0.02999 0.06103,-0.168979 -0.02469,-0.270579 -0.106892,-0.323144 0,0 0.08537,-0.263173 -0.07197,-0.527402 -0.02646,-0.0441 -0.181681,-0.185563 -0.362656,0.09384 m 0.243417,0.07267 c 0.104775,0.09807 0.08925,0.257882 0.08502,0.294924 0,0 -0.134057,-0.06315 -0.194382,-0.0889 -0.05962,-0.0254 -0.09137,-0.0635 -0.0635,-0.1016 0.09243,-0.129824 0.137936,-0.125238 0.172861,-0.104424 m 6.278739,0.02294 c -0.0702,0.106892 -0.122414,0.362654 -0.02223,0.435679 0.09984,0.07338 0.24624,0.132646 0.24624,0.132646 -0.465667,0.570793 -1.380421,0.976841 -1.598083,1.146879 -0.06491,0.04904 -0.05609,0.07796 -0.01516,0.06703 0.03634,-0.0099 0.733425,-0.204965 1.370542,-0.750713 0.291748,-0.250118 0.283988,-0.268816 0.358071,-0.420862 0.0635,0.03281 0.106892,0.08573 0.131585,0.116417 0.03528,0.04339 0.05468,0.07584 0.07126,0.02963 0.06033,-0.168629 -0.0254,-0.270581 -0.107595,-0.323146 0,0 0.08537,-0.26317 -0.07161,-0.527402 -0.02646,-0.0441 -0.182033,-0.18556 -0.363008,0.09384 m 0.243417,0.07267 c 0.105126,0.09772 0.08925,0.257882 0.08502,0.294923 0,0 -0.134054,-0.06279 -0.194379,-0.0889 -0.05962,-0.0254 -0.09102,-0.0635 -0.06315,-0.1016 0.09208,-0.129823 0.137584,-0.125235 0.172509,-0.104423 m -1.788232,-0.1651 c -0.183092,0.232482 -0.194733,0.538692 -0.219427,0.87983 -0.02574,-0.07162 -0.171802,-0.529167 -0.639233,-0.79093 -0.03422,-0.01905 -0.10301,0.01693 -0.109715,0.124532 -0.0035,0.06279 -0.02151,0.215193 0.02294,0.258585 0.0441,0.04339 0.174273,0.128058 0.196143,0.140055 0.02223,0.01198 0.04551,0.01376 0.05221,-0.0127 0.0063,-0.02612 0.03633,-0.08678 0.07902,-0.04339 0.03528,0.03634 0.265642,0.226835 0.385234,0.630412 0.02082,0.05362 0.07056,0.05891 0.0822,-0.01693 0.02752,-0.186971 0.04268,-0.511527 0.0575,-0.6096 0.02045,-0.138287 0.08678,-0.423334 0.261763,-0.275519 0.03951,0.03387 0.08184,0.07832 0.08184,0.07832 0.03739,0.04657 0.08396,0.10019 0.10654,0.04622 0.03457,-0.08185 0.06244,-0.216959 0.02469,-0.289984 -0.01659,-0.03281 -0.233892,-0.307271 -0.381707,-0.118888 m -1.800577,-0.01093 c -0.06738,0.03916 -1.787173,1.031875 -1.857023,1.077031 -0.06985,0.0448 -0.09419,0.05644 -0.105479,0.110067 -0.0113,0.05398 -0.01693,0.08502 -0.01976,0.09349 -0.0127,0.03598 -0.02188,0.08043 0.08078,0.01342 0.03211,-0.02082 1.762125,-1.020588 1.82245,-1.058334 0.05821,-0.03669 0.09207,-0.05186 0.115359,-0.10795 0.02328,-0.05539 0.02963,-0.06526 0.04163,-0.104071 0.01341,-0.04127 0.02681,-0.08502 -0.07797,-0.02363 m -11.688937,0.08361 c -0.180271,0.232834 -0.191913,0.539044 -0.215548,0.879827 -0.0254,-0.07126 -0.169685,-0.528812 -0.630415,-0.790927 -0.03351,-0.01905 -0.101245,0.01728 -0.107595,0.124884 -0.0042,0.06279 -0.02151,0.215193 0.02223,0.258585 0.04339,0.04304 0.172154,0.127706 0.19332,0.1397 0.02188,0.01198 0.0448,0.01376 0.05151,-0.01236 0.0063,-0.02612 0.03598,-0.08678 0.07761,-0.04339 0.03034,0.03104 0.276225,0.247296 0.351721,0.543629 0.06244,0.257175 -0.570441,0.776817 -0.603604,0.800454 -0.05927,0.04233 -0.04022,0.0702 -0.0127,0.05539 0.02752,-0.01516 0.05503,-0.01939 0.379941,-0.23354 0.261409,-0.17286 0.31609,-0.373237 0.339022,-0.526344 0.0024,-0.0074 0.0046,-0.01622 0.0063,-0.02611 0.02681,-0.186971 0.04163,-0.511527 0.05644,-0.609952 0.02045,-0.137935 0.08572,-0.422981 0.258234,-0.274815 0.03881,0.03351 0.08043,0.07796 0.08043,0.07796 0.03704,0.04657 0.0829,0.10019 0.105127,0.04622 0.03422,-0.08185 0.06103,-0.216959 0.024,-0.289984 -0.01622,-0.03246 -0.230364,-0.307271 -0.37606,-0.119239 m 3.745442,0.05962 c -0.04516,0.15593 -0.242358,0.694973 -0.172863,1.313746 0.01622,0.142875 0.114655,0.417688 0.303038,0.414513 0.09666,-0.006 0.21731,-0.09384 0.286454,-0.450144 0.01093,-0.08008 0.01728,-0.144285 0.02188,-0.175683 0.0067,-0.04798 -0.02716,-0.102659 -0.05221,0.0078 -0.05891,0.219075 -0.234598,0.37959 -0.388762,0.09913 -0.02612,-0.05574 -0.133702,-0.311501 0.0046,-0.892175 0.02822,-0.112889 0.06279,-0.280458 0.06279,-0.280458 0.0314,-0.127 -0.01871,-0.192617 -0.06491,-0.03669 m -2.1717,0.841375 c -0.124531,0.135822 -0.163338,0.228955 -0.200379,0.287515 -0.0515,0.08008 0.01341,0.11571 0.07126,0.05327 0.05785,-0.06209 0.09807,-0.124884 0.267403,-0.120296 0.169334,0.0042 0.57503,-0.01093 0.423334,0.100187 -0.151694,0.11148 -0.254,0.176038 -0.254,0.176038 -0.09842,0.07055 -0.184854,0.202846 -0.01093,0.129117 0.173567,-0.07338 0.403225,-0.18909 0.579261,-0.45438 0.05115,-0.07726 0.111479,-0.180268 -0.127352,-0.2159 -0.238477,-0.03598 -0.62371,-0.09137 -0.748594,0.04445 m 10.445747,0.370065 c -0.03457,0.08431 -0.178503,0.37465 -0.156633,0.717198 0.0053,0.07937 0.0575,0.233537 0.176742,0.237419 0.06174,0 0.141465,-0.0448 0.197908,-0.238477 0.0095,-0.04375 0.01587,-0.07867 0.01976,-0.09596 0.0063,-0.02646 -0.01304,-0.0575 -0.03281,0.0024 -0.04516,0.118533 -0.162277,0.201789 -0.250118,0.04269 -0.01447,-0.03175 -0.07338,-0.175684 0.03493,-0.491067 0.02223,-0.06103 0.04974,-0.152048 0.04974,-0.152048 0.02434,-0.06914 -0.0049,-0.10654 -0.03951,-0.02222 m 3.307647,0.173215 c -0.03211,0.07796 -0.165455,0.346778 -0.145699,0.663926 0.0049,0.07338 0.05397,0.216252 0.16369,0.219782 0.05715,0 0.130879,-0.04127 0.183444,-0.22084 0.0092,-0.04022 0.01482,-0.07303 0.01871,-0.0889 0.0053,-0.024 -0.01236,-0.05292 -0.03069,0.0024 -0.04233,0.110067 -0.150283,0.186973 -0.231775,0.03951 -0.01304,-0.02928 -0.06773,-0.162631 0.03281,-0.454379 0.02045,-0.0568 0.04586,-0.141111 0.04586,-0.141111 0.02257,-0.06385 -0.0046,-0.09842 -0.03634,-0.02045 m -6.206773,0.0081 -0.168275,0.231071 -0.323143,-0.235656 c -0.0078,-0.0056 -0.01939,-0.0035 -0.02574,0.0046 l -0.195085,0.267406 c -0.006,0.0088 -0.0046,0.02045 0.0032,0.02612 l 0.333023,0.24271 c 0.0081,0.006 0.01976,0.0039 0.02611,-0.0046 l 0.167923,-0.231072 0.323144,0.235657 c 0.0081,0.006 0.01976,0.0039 0.0254,-0.0046 l 0.19544,-0.267407 c 0.0063,-0.0085 0.0049,-0.02011 -0.0035,-0.02611 l -0.332672,-0.24271 c -0.0078,-0.0056 -0.01976,-0.0035 -0.02574,0.0046 m -9.215612,0.414867 c -0.0381,0.09948 -0.201789,0.445558 -0.151341,0.839258 0.0113,0.09102 0.08784,0.26529 0.239183,0.261408 0.07796,-0.0046 0.176387,-0.06173 0.235302,-0.289277 0.0092,-0.05115 0.01482,-0.09243 0.01871,-0.112535 0.006,-0.03069 -0.02045,-0.06527 -0.04198,0.0053 -0.04904,0.140404 -0.192265,0.244475 -0.313619,0.06703 -0.02011,-0.03528 -0.104423,-0.197202 0.0127,-0.569032 0.02363,-0.07197 0.05256,-0.179562 0.05256,-0.179562 0.02646,-0.08114 -0.01304,-0.122063 -0.0515,-0.02257 m 10.518773,0.0013 c -0.0127,0.04515 -0.04551,0.239535 -0.05327,0.280104 -0.0081,0.03987 -0.0074,0.07938 0.01236,0.113596 0.02011,0.03457 0.07055,0.152752 0.107244,0.24906 0.03633,0.09631 0.41416,0.824442 0.449085,0.888648 0.03493,0.06456 0.04198,0.112536 0.0074,0.155575 -1.21285,1.279525 -3.553529,2.066219 -3.628318,2.109611 -0.07514,0.04339 -0.05503,0.07726 0.07091,0.05539 0.188735,-0.03316 1.240015,-0.208844 1.539875,-0.353129 0.197202,-0.09561 0.88759,-0.434271 1.452033,-0.876655 -0.01553,0.113949 -0.03034,0.282224 -0.02223,0.4953 0.0381,1.029407 0.958144,0.858309 1.199798,0.805392 0.7239,-0.159102 1.608667,-1.158875 1.683809,-1.36031 0.07408,-0.19826 0.08537,-0.37959 0.06844,-0.537633 0.1905,-0.103011 0.600075,-0.433211 0.600075,-0.433211 0.01659,0.438854 0.365831,0.570794 0.473429,0.589844 0.503413,0.07655 0.75565,-0.344665 0.863246,-0.480835 0.09137,0.240593 0.312208,0.286808 0.42545,0.309737 0.434271,0.08608 0.518938,-0.220837 0.541515,-0.291042 0.136173,-0.423685 -0.109361,-0.73942 -0.140759,-0.774345 -0.03175,-0.03493 -0.04762,-0.0013 -0.05891,0.03916 -0.0113,0.04057 -0.04621,0.19332 -0.06809,0.288925 0,0 0.09066,0.147812 0.123119,0.223308 0.03246,0.07549 -0.01587,0.116417 -0.10936,0.128059 -0.264232,0.0321 -0.47484,-0.11924 -0.547511,-0.189442 -0.07267,-0.0695 0.006,-0.192971 0.06456,-0.340783 0.04692,-0.118182 -0.04022,-0.132292 -0.10654,-2.65e-4 -0.224015,0.58914 -0.539044,0.652288 -0.621594,0.675217 -0.746125,0.2032 -0.681921,-0.479071 -0.67945,-0.590902 0.0028,-0.111477 -0.07902,-0.0702 -0.170746,0.0035 -0.31397,0.251883 -0.567266,0.40005 -0.703085,0.460729 -0.117123,-0.228954 -0.28716,-0.372888 -0.359127,-0.424746 -0.807156,-0.588785 -0.873831,0.599371 -0.849138,0.726723 0.122767,0.505177 0.947563,0.198967 1.077032,0.183798 0.129116,-0.01516 0.08714,0.155221 0.0141,0.256821 -0.178504,0.250473 -0.385233,0.430038 -0.57291,0.582438 -0.799042,0.652637 -1.200502,0.601133 -1.323975,0.5969 -0.785635,-0.02188 -0.713317,-0.86854 -0.669925,-1.049163 0.23636,-0.200377 0.43956,-0.418042 0.55739,-0.642054 0.04833,-0.122415 0.130878,-0.401463 -0.01905,-0.751417 -0.07832,-0.153813 -0.325967,-0.585964 -0.325967,-0.585964 0,0 0.182385,0.0056 0.19967,0.0053 0.01728,-2.64e-4 0.05186,-0.01834 0.0078,-0.0695 -0.04445,-0.05115 -0.427922,-0.43321 -0.45085,-0.464254 -0.02328,-0.03069 -0.04445,-0.05256 -0.05751,-0.0074 m 2.422173,1.752245 c 0,0 -0.110067,0.0635 -0.416983,0.04304 -0.258234,-0.01765 -0.235657,-0.117827 -0.200732,-0.156281 0.03845,-0.04163 0.353838,-0.240242 0.617715,0.113241 m -3.31611,-1.424868 c -0.05327,0.06632 -0.589846,0.770115 -0.589846,0.770115 L 83.5851,26.919463 c 0,0 0.15875,-0.03987 0.186619,-0.04798 0.02752,-0.0081 0.04339,-0.0441 -0.0067,-0.0695 -0.04974,-0.02574 -0.520348,-0.213077 -0.555977,-0.227894 -0.03563,-0.01447 -0.04904,-0.03069 -0.05186,0.0074 -0.0032,0.0381 -0.0088,0.347485 -0.0088,0.347485 0,0 -0.0067,0.02188 0.03387,0.04516 0.04127,0.02328 0.08149,0.07338 0.115007,0.106892 0.03387,0.03351 0.47131,0.378883 0.492477,0.390877 0,0 -0.218721,0.384527 -0.246592,0.685448 -0.02787,0.300919 0.0053,0.716137 0.416632,0.582435 0.111125,-0.03175 0.5715,-0.214841 0.67451,-0.536223 0.03352,-0.118179 0.128058,-0.332316 -0.02611,-0.54892 -0.0889,-0.127355 -0.448733,-0.342548 -0.448733,-0.342548 0,0 0.276225,-0.382059 0.302683,-0.428977 0.02612,-0.04657 0.127704,-0.342548 0.138642,-0.414163 0.01164,-0.07161 0.01693,-0.107596 -0.03598,-0.04163 m -0.09455,1.623131 c -0.152751,0.125942 -0.474133,0.291746 -0.564091,0.300567 -0.09031,0.0085 -0.3302,-0.03528 -0.225777,-0.280458 0.03563,-0.07973 0.274815,-0.489305 0.274815,-0.489305 0.0896,0.04939 0.667808,0.343255 0.515053,0.469196 m 6.230409,0.561975 c -0.03104,0.08608 -0.04304,0.142875 -0.03986,0.175684 0.0032,0.03316 0.01447,0.139345 0.01447,0.139345 -0.0321,0.02574 -0.168275,0.111125 -0.305503,0.01058 0.0088,-0.02928 0.02681,-0.0889 0.03104,-0.121353 0.01482,-0.0508 -0.01622,-0.08855 -0.04127,-0.03598 -0.02506,0.05256 -0.0829,0.228246 -0.126293,0.267759 -0.04304,0.03916 -0.09313,0.184502 -0.419455,0.03704 -0.05679,-0.02188 -0.156985,-0.09631 -0.31256,0.06033 -0.352425,0.328084 -0.595842,0.353484 -0.990952,0.493887 -0.04798,0.02223 -0.148521,0.09737 -0.02928,0.08537 0.118886,-0.01164 0.620184,2.64e-4 0.892882,-0.312915 0.05715,-0.05503 0.12206,-0.201435 0.339018,-0.116417 0.119944,0.04551 0.34149,0.235657 0.583494,-0.140404 0.142171,0.09525 0.358775,0.05715 0.393348,-0.04763 0.03457,-0.104423 0.07408,-0.208846 0.07373,-0.279754 -2.65e-4,-0.07126 -0.0063,-0.1651 -0.0063,-0.1651 -0.0049,-0.05609 -0.02506,-0.136171 -0.05645,-0.05045 m -13.48881,0.322437 -0.195085,0.267407 c -0.006,0.0085 -0.0046,0.02011 0.0035,0.02574 l 0.333023,0.242713 c 0.0078,0.006 0.01939,0.0042 0.02574,-0.0046 l 0.194733,-0.267403 c 0.0063,-0.0085 0.0049,-0.02011 -0.0032,-0.02574 l -0.33302,-0.243062 c -0.0078,-0.0056 -0.01939,-0.0035 -0.02574,0.0049 m 4.20511,0.0575 c -0.07161,0.03139 -1.640062,0.552802 -1.714497,0.589137 -0.07444,0.03669 -0.10019,0.04551 -0.117475,0.09737 -0.01728,0.05221 -0.02646,0.08255 -0.03069,0.09066 -0.01659,0.03422 -0.03069,0.07726 0.07902,0.02257 0.03422,-0.01693 1.616426,-0.543628 1.67781,-0.57432 0.06138,-0.03105 0.09737,-0.04128 0.127,-0.09384 0.02963,-0.05257 0.03669,-0.06174 0.05327,-0.09878 0.01834,-0.03951 0.03669,-0.08149 -0.07444,-0.03281 m -3.299529,0.100893 c -0.02822,0.08361 -0.149225,0.37465 -0.106185,0.705202 0.0099,0.0762 0.07091,0.22225 0.186267,0.218723 0.05997,-0.0042 0.134054,-0.05256 0.176742,-0.243768 0.0067,-0.04339 0.01024,-0.07761 0.01304,-0.09455 0.0042,-0.02574 -0.01659,-0.05468 -0.0321,0.0049 -0.03598,0.117827 -0.144288,0.205317 -0.239184,0.0568 -0.01588,-0.02963 -0.08255,-0.165455 0.0024,-0.477663 0.01728,-0.06068 0.03845,-0.150636 0.03845,-0.150636 0.01939,-0.06844 -0.0113,-0.10301 -0.03951,-0.01905 M 76.554813,29.4001 c -0.0695,0.03493 -1.259771,0.498475 -1.332089,0.538692 -0.07267,0.04057 -0.09772,0.05045 -0.112184,0.103364 -0.01447,0.05292 -0.02223,0.08361 -0.02574,0.09243 -0.01482,0.03493 -0.02646,0.07867 0.08008,0.01799 0.03316,-0.01871 1.236488,-0.487892 1.296106,-0.522465 0.05962,-0.03387 0.09525,-0.04586 0.122061,-0.09983 0.02646,-0.05433 0.03316,-0.0635 0.04833,-0.1016 0.01553,-0.04057 0.0314,-0.08326 -0.07655,-0.02858"
       style="fill:#231f20;fill-opacity:1;fill-rule:evenodd;stroke:none;stroke-width:0.264583"
       id="path1-5"
       inkscape:export-filename=".\path1-5.svg"
       inkscape:export-xdpi="96"
       inkscape:export-ydpi="96" />
  </g>
</svg>
