<?xml version="1.0" encoding="UTF-8" standalone="no"?>
<!-- Created with Inkscape (http://www.inkscape.org/) -->

<svg
   width="17.486004mm"
   height="6.9869003mm"
   viewBox="0 0 17.486004 6.9869003"
   version="1.1"
   id="svg1"
   xmlns:inkscape="http://www.inkscape.org/namespaces/inkscape"
   xmlns:sodipodi="http://sodipodi.sourceforge.net/DTD/sodipodi-0.dtd"
   xmlns="http://www.w3.org/2000/svg"
   xmlns:svg="http://www.w3.org/2000/svg">
  <sodipodi:namedview
     id="namedview1"
     pagecolor="#ffffff"
     bordercolor="#666666"
     borderopacity="1.0"
     inkscape:showpageshadow="2"
     inkscape:pageopacity="0.0"
     inkscape:pagecheckerboard="0"
     inkscape:deskcolor="#d1d1d1"
     inkscape:document-units="mm" />
  <defs
     id="defs1" />
  <g
     inkscape:label="Layer 1"
     inkscape:groupmode="layer"
     id="layer1"
     transform="translate(-125.43403,-48.80865)">
    <path
       d="m 131.89539,48.841873 c -0.0681,0.03634 -2.30117,0.96026 -2.49943,1.09996 -0.0995,0.06985 -0.18627,0.185913 -0.22225,0.315736 -0.0522,0.187677 -0.0173,0.378883 0.10477,0.407106 0.0857,0.01976 0.13194,0.07302 0.1517,0.103717 0.009,0.0127 0.0229,0.0053 0.0282,-0.0028 0.11077,-0.187677 0.0303,-0.315384 -0.1337,-0.374298 -0.0653,-0.02363 -0.0889,-0.117827 0.16757,-0.259644 0.23601,-0.130175 2.24366,-0.976842 2.29623,-1.008943 0.0713,-0.04269 0.11359,-0.05821 0.14464,-0.124532 0.0307,-0.06597 0.0384,-0.07761 0.055,-0.123825 0.0183,-0.04903 0.0363,-0.1016 -0.0928,-0.03245 m -3.49321,0.137936 c -0.0391,0.08396 -0.115,0.257526 -0.10089,0.397581 0.0138,0.140052 0.31503,2.182987 0.34043,2.418289 0.0251,0.235305 0.14711,1.37795 0.14711,1.457679 0,0.07973 0.004,0.159454 -0.10513,0.276929 -0.10936,0.11783 -1.16346,1.096788 -2.02071,1.109134 -0.19332,0.0028 -0.69603,0.06421 -0.96626,-0.5334 -0.0656,-0.145696 -0.19297,-0.512586 0.0547,-1.150761 0.006,-0.01659 0.0102,-0.03175 0.0134,-0.04621 0.0279,0.01482 0.0586,0.02328 0.0921,0.02294 0.097,-0.006 0.21767,-0.09384 0.28717,-0.450144 0.0106,-0.08008 0.0169,-0.143933 0.0215,-0.175331 0.007,-0.04833 -0.0268,-0.102658 -0.0522,0.0078 -0.0589,0.218723 -0.2346,0.37959 -0.38877,0.09913 -0.0257,-0.05574 -0.1337,-0.311857 0.005,-0.892527 0.0279,-0.11289 0.0624,-0.280458 0.0624,-0.280458 0.0311,-0.127 -0.0187,-0.192617 -0.0645,-0.03669 -0.0459,0.155927 -0.24307,0.694973 -0.17287,1.313743 0.0102,0.09243 0.0554,0.239538 0.13653,0.331259 -0.009,0.01482 -0.0183,0.03351 -0.0279,0.05609 -0.0797,0.188738 -0.64629,1.475671 0.36971,2.06234 0.1464,0.08467 0.79163,0.34925 1.9237,-0.419806 0.28716,-0.195438 0.76553,-0.56515 0.84666,-0.745771 0.0321,-0.05997 0.10619,-0.277638 0.10619,-0.277638 0.0325,0.138996 0.11007,1.04775 0.62689,1.322917 0.1083,0.0575 0.45367,0.230013 1.43651,-0.294217 0.23989,-0.127704 1.06433,-0.517877 1.38324,-0.517877 0.31962,0 0.49318,0.01939 0.49318,0.01939 0.0504,-0.07267 0.21555,-0.403225 0.21555,-0.403225 -0.0783,-0.02222 -0.77011,-0.0448 -1.19309,-0.07832 -0.73907,-0.04798 -1.34127,-0.173567 -1.34127,-0.173567 0,0 0.51259,-0.201787 0.82339,-0.762 0.0783,-0.103362 0.20143,-0.26317 0.2547,-0.112183 0.0533,0.151696 0.11219,0.599723 0.36971,0.731308 0.14817,0.06138 0.647,0.182033 0.83185,-0.235302 0.0445,-0.08961 0.15417,-0.450498 0.11184,-0.809273 -0.018,-0.151342 -0.34961,-2.346325 -0.34961,-2.346325 0,0 0.19721,0.185208 0.22896,0.218723 0.0317,0.03387 0.0702,0.01587 0.0522,-0.0381 -0.0183,-0.05398 -0.42193,-1.03011 -0.43498,-1.064329 -0.013,-0.03387 -0.0261,-0.05856 -0.0423,-0.01939 -0.0162,0.03916 -0.11183,0.30339 -0.11183,0.30339 0.0134,0.09208 0.45826,3.203221 0.46143,3.303058 0.004,0.09984 0.0317,0.190852 -0.0487,0.248709 -0.0804,0.0575 -0.42263,0.165452 -0.62689,0 -0.0639,-0.05186 -0.17357,-0.129823 -0.26247,-0.551746 -0.0229,-0.108654 -0.0582,-0.295627 -0.23847,-0.17145 -0.18027,0.124531 -0.29951,0.351721 -0.38171,0.439208 -0.0822,0.08749 -0.52881,0.528815 -1.25518,0.806098 -0.0526,0.01905 -0.0797,0.04833 -0.1136,0.09031 -0.0335,0.04198 -0.13652,0.291748 -0.13652,0.291748 0.0713,0.0085 1.02693,0.07585 1.70109,0.218723 -0.0395,0.03563 -0.73236,0.404988 -0.96449,0.472369 -0.23248,0.06738 -0.82621,0.321027 -1.12042,-0.487185 -0.13865,-0.381355 -0.20426,-0.988484 -0.24342,-1.25448 -0.0395,-0.265993 -0.25753,-2.044345 -0.25753,-2.044345 0,0 -0.15416,-1.220965 -0.3055,-1.660877 -0.0363,-0.09243 -0.0307,-0.06985 -0.0699,0.0141 m 5.28073,-0.03881 c -0.0166,0.03916 -0.11254,0.30339 -0.11254,0.30339 0.0261,0.171098 0.2533,2.014008 0.26811,2.13995 0.0152,0.125587 0.3295,2.444395 0.34608,3.020835 -0.004,0.05891 0.0212,0.08078 0.048,0.02434 0.0272,-0.05644 0.21767,-0.675216 -0.003,-2.085268 -0.0162,-0.117475 -0.35066,-2.500138 -0.35066,-2.500138 0,0 0.1972,0.185208 0.22895,0.218723 0.0317,0.03352 0.0702,0.01588 0.0519,-0.03845 -0.018,-0.05362 -0.42192,-1.03011 -0.43462,-1.063977 -0.013,-0.03387 -0.0261,-0.05856 -0.0423,-0.01939 m -2.12373,0.774348 c -0.0257,0.07937 -0.0448,0.140759 -0.0102,0.231421 0.0342,0.09067 0.12771,0.296688 0.14323,0.325967 0.0152,0.02963 0.019,0.06244 -0.0321,0.08431 -0.0512,0.02188 -0.28505,0.07161 -0.32844,-0.1778 -0.0434,-0.24906 -0.0473,-0.321733 -0.0691,-0.364066 -0.0215,-0.04233 -0.042,-0.04727 -0.0589,-0.0049 -0.0166,0.04198 -0.0268,0.128765 -0.0293,0.142875 -0.003,0.01376 -0.003,0.02434 0.006,0.03951 0.009,0.01553 0.10231,0.294217 0.0603,0.370768 -0.0423,0.07691 -0.25188,0.214842 -0.36195,0.0702 -0.0522,-0.100893 -0.0205,-0.356658 -0.0205,-0.416628 0,-0.05997 -0.019,-0.08043 -0.0448,-0.03175 -0.0254,0.04833 -0.0395,0.08043 -0.0381,0.123825 10e-4,0.04339 0.007,0.23001 0.004,0.288925 -0.004,0.05856 0,0.249412 0.11219,0.302683 0.11253,0.05398 0.27622,0.0042 0.40005,-0.229658 0.096,0.139345 0.24165,0.1397 0.31961,0.111125 0.0667,-0.02434 0.14076,-0.12418 0.16228,-0.262115 0.0219,-0.137935 -0.0141,-0.232834 -0.0571,-0.310798 -0.0579,-0.0956 -0.096,-0.256821 -0.096,-0.256821 -0.0204,-0.0575 -0.036,-0.116416 -0.0614,-0.03704 m -0.19085,1.293283 -0.19509,0.267052 c -0.006,0.0085 -0.005,0.02011 0.004,0.02611 l 0.33267,0.24271 c 0.008,0.006 0.0194,0.0035 0.0258,-0.0049 l 0.19508,-0.267404 c 0.006,-0.0085 0.005,-0.02011 -0.003,-0.02612 l -0.33303,-0.24271 c -0.008,-0.0056 -0.0194,-0.0035 -0.0257,0.0053 m -1.70215,0.562327 c -0.11042,0.120298 -0.14464,0.202848 -0.17745,0.254706 -0.0455,0.07126 0.0116,0.102659 0.0631,0.04762 0.0515,-0.05539 0.0868,-0.110773 0.23706,-0.106891 0.14993,0.0039 0.50941,-0.0099 0.37536,0.0889 -0.13441,0.09878 -0.22543,0.155926 -0.22543,0.155926 -0.0871,0.06279 -0.16404,0.179917 -0.01,0.114652 0.15417,-0.06526 0.35737,-0.16792 0.51365,-0.403225 0.0452,-0.06808 0.0984,-0.159453 -0.11254,-0.191203 -0.21131,-0.03175 -0.55315,-0.08114 -0.66393,0.03951 m 5.5111,-2.36361 c -0.0702,0.106539 -0.12242,0.362656 -0.0226,0.435681 0.10019,0.07338 0.24659,0.132292 0.24659,0.132292 -0.46567,0.571145 -0.78458,0.680154 -1.05692,0.83961 -0.0706,0.04127 -0.0564,0.07796 -0.0152,0.06703 0.0212,-0.0056 0.3877,-0.06279 0.81562,-0.387702 0.23142,-0.175683 0.37183,-0.47625 0.37183,-0.47625 0,0 0.11571,0.09666 0.13158,0.116062 0.0353,0.04375 0.0543,0.07585 0.0709,0.02999 0.061,-0.168981 -0.0254,-0.270933 -0.10759,-0.323144 0,0 0.0857,-0.263525 -0.0713,-0.527756 -0.0265,-0.0441 -0.18238,-0.185208 -0.363,0.09419 m 0.24341,0.07267 c 0.10478,0.09772 0.0889,0.257879 0.0847,0.294568 0,0 -0.1337,-0.06279 -0.19403,-0.08855 -0.0596,-0.02574 -0.091,-0.0635 -0.0635,-0.1016 0.0924,-0.12982 0.13794,-0.125235 0.17286,-0.10442 m -8.17703,-0.08432 c -0.16299,0.245533 -0.1517,0.551392 -0.15029,0.893585 -0.0307,-0.0695 -0.20813,-0.515054 -0.68685,-0.742243 -0.0346,-0.01659 -0.10019,0.02468 -0.0984,0.132643 8e-4,0.0628 -0.005,0.2159 0.0413,0.256117 0.0466,0.03951 0.18132,0.114652 0.20355,0.124883 0.0226,0.01024 0.0459,0.01024 0.0501,-0.01622 0.005,-0.02646 0.0296,-0.08925 0.0744,-0.04868 0.0321,0.02858 0.29386,0.226129 0.39088,0.51576 0.0815,0.252235 -0.51153,0.817033 -0.54258,0.84314 -0.0564,0.04657 -0.0353,0.07267 -0.008,0.05574 0.0265,-0.01693 0.0533,-0.02294 0.36124,-0.260702 0.24801,-0.191558 0.28787,-0.395465 0.29916,-0.550333 0.002,-0.0074 0.004,-0.01588 0.004,-0.02646 0.0134,-0.188031 0.004,-0.512939 0.0113,-0.612068 0.0102,-0.139348 0.054,-0.428273 0.23706,-0.29351 0.0416,0.03069 0.0864,0.07197 0.0864,0.07197 0.0399,0.04374 0.09,0.09384 0.1083,0.0381 0.0275,-0.08361 0.0448,-0.220839 0.002,-0.290689 -0.0187,-0.0314 -0.25223,-0.289277 -0.38346,-0.09102 m 14.45577,0.107598 c -0.0702,0.106185 -0.12206,0.362302 -0.0222,0.435327 0.10019,0.07338 0.24624,0.132292 0.24624,0.132292 -0.46566,0.571145 -1.38042,0.977193 -1.59808,1.146878 -0.0649,0.04939 -0.0561,0.07832 -0.0152,0.06703 0.0363,-0.0099 0.73342,-0.204613 1.37054,-0.750358 0.29175,-0.250474 0.28399,-0.268817 0.35807,-0.420865 0.0635,0.03281 0.10689,0.08537 0.13158,0.116065 0.0353,0.04374 0.0543,0.0762 0.0709,0.02998 0.061,-0.168982 -0.0251,-0.270934 -0.10724,-0.323144 0,0 0.0854,-0.263525 -0.0716,-0.527756 -0.0264,-0.0441 -0.18238,-0.185209 -0.363,0.09455 m 0.24377,0.07267 c 0.10477,0.09737 0.0889,0.25753 0.0843,0.294217 0,0 -0.1337,-0.06279 -0.19368,-0.08819 -0.06,-0.02574 -0.0914,-0.06385 -0.0639,-0.101952 0.0924,-0.129823 0.13794,-0.125238 0.17322,-0.104072 m -1.78859,-0.165803 c -0.18344,0.232833 -0.19473,0.538691 -0.21943,0.879827 -0.0257,-0.07162 -0.17215,-0.529167 -0.63958,-0.790927 -0.0335,-0.01905 -0.10266,0.01728 -0.10901,0.124883 -0.004,0.06279 -0.0219,0.215194 0.0222,0.258233 0.0445,0.04339 0.17497,0.128056 0.19649,0.140052 0.0222,0.01199 0.0455,0.01376 0.0522,-0.01236 0.006,-0.02646 0.0363,-0.08713 0.0787,-0.04339 0.0356,0.03598 0.266,0.226483 0.38594,0.630766 0.0205,0.05292 0.0702,0.05856 0.0815,-0.01765 0.0279,-0.186618 0.043,-0.511175 0.0575,-0.609597 0.0208,-0.137938 0.0871,-0.422981 0.26211,-0.275167 0.0399,0.03351 0.0818,0.07796 0.0818,0.07796 0.0374,0.04692 0.084,0.100189 0.1069,0.04621 0.0342,-0.08114 0.0621,-0.216958 0.0243,-0.289983 -0.0169,-0.03246 -0.23389,-0.306917 -0.38171,-0.118885 m -1.80058,-0.01093 c -0.0674,0.03951 -1.78752,1.032226 -1.85737,1.077383 -0.0695,0.0448 -0.0942,0.05609 -0.10548,0.109715 -0.0109,0.05397 -0.0169,0.08502 -0.0198,0.09384 -0.0124,0.03598 -0.0215,0.08008 0.0811,0.01341 0.0321,-0.02117 1.76177,-1.020585 1.82245,-1.058333 0.0582,-0.03634 0.0917,-0.05186 0.11535,-0.10795 0.0233,-0.05539 0.0289,-0.06562 0.0416,-0.104421 0.0134,-0.04127 0.0265,-0.08467 -0.078,-0.02363 m 0.3302,1.354667 c -0.0342,0.08467 -0.17851,0.375002 -0.15628,0.71755 0.005,0.07902 0.0575,0.233539 0.17639,0.237418 0.0617,-2.64e-4 0.14146,-0.0448 0.19826,-0.238477 0.01,-0.0441 0.0159,-0.07902 0.0198,-0.09596 0.006,-0.02646 -0.013,-0.0575 -0.0335,0.0024 -0.0448,0.118533 -0.16192,0.201435 -0.24941,0.04269 -0.0145,-0.03175 -0.0737,-0.176035 0.0349,-0.491066 0.0222,-0.06138 0.0497,-0.1524 0.0497,-0.1524 0.0243,-0.06879 -0.005,-0.106186 -0.0399,-0.02222 m 3.30764,0.173566 c -0.0317,0.07796 -0.16545,0.346782 -0.14499,0.663927 0.005,0.07303 0.0533,0.216255 0.16369,0.219782 0.0572,0 0.13088,-0.04163 0.18309,-0.22084 0.009,-0.04057 0.0148,-0.07303 0.0183,-0.0889 0.006,-0.02434 -0.012,-0.05292 -0.0307,0.0024 -0.0416,0.109712 -0.14993,0.186619 -0.23142,0.03916 -0.013,-0.02893 -0.0681,-0.16228 0.0328,-0.45438 0.0201,-0.05644 0.0459,-0.140758 0.0459,-0.140758 0.0226,-0.06385 -0.005,-0.09878 -0.0367,-0.02045 m -6.72359,0.0085 -0.19473,0.267052 c -0.006,0.0085 -0.005,0.02045 0.003,0.02611 l 0.33302,0.242711 c 0.008,0.0056 0.0198,0.0039 0.0258,-0.0049 l 0.16827,-0.230717 0.32315,0.235654 c 0.008,0.0056 0.0198,0.0039 0.0257,-0.0049 l 0.19509,-0.267406 c 0.006,-0.0085 0.005,-0.02011 -0.003,-0.02611 l -0.33302,-0.24271 c -0.008,-0.0056 -0.0198,-0.0035 -0.0257,0.0053 l -0.16828,0.230365 -0.32314,-0.235657 c -0.008,-0.0056 -0.0198,-0.0035 -0.0258,0.0053 m -7.76252,1.076677 c -0.0455,0.156281 -0.24271,0.695325 -0.17286,1.313746 0.0162,0.143227 0.11465,0.417687 0.30268,0.414512 0.097,-0.0056 0.21802,-0.09349 0.28716,-0.449792 0.0106,-0.08008 0.0166,-0.144285 0.0215,-0.175683 0.007,-0.04763 -0.0268,-0.102658 -0.0522,0.0078 -0.0586,0.218721 -0.23459,0.379587 -0.38911,0.09913 -0.0254,-0.05574 -0.1337,-0.311502 0.005,-0.892527 0.0282,-0.112535 0.0621,-0.280106 0.0621,-0.280106 0.0314,-0.127 -0.0183,-0.192617 -0.0646,-0.03704 m -0.88935,1.273175 c -0.0325,0.08467 -0.17145,0.378883 -0.12877,0.713671 0.01,0.07726 0.0751,0.225777 0.20356,0.22225 0.0663,-0.0039 0.14958,-0.05256 0.19967,-0.246239 0.008,-0.04339 0.013,-0.07832 0.0162,-0.0956 0.005,-0.02574 -0.0173,-0.05503 -0.0356,0.0046 -0.042,0.119592 -0.16334,0.20814 -0.2667,0.05715 -0.0173,-0.02999 -0.0889,-0.167923 0.0102,-0.48401 0.0204,-0.06103 0.0452,-0.1524 0.0452,-0.1524 0.0226,-0.06915 -0.0113,-0.104423 -0.0437,-0.01939 m 10.4722,-1.934279 c -0.013,0.04551 -0.0455,0.239887 -0.0533,0.280104 -0.008,0.03987 -0.007,0.07973 0.0124,0.113948 0.0198,0.03422 0.0706,0.152752 0.10724,0.24906 0.0363,0.09596 0.41417,0.82409 0.44909,0.888648 0.0346,0.06421 0.042,0.112535 0.007,0.155223 -1.21285,1.279525 -3.55283,2.066571 -3.62762,2.109611 -0.0751,0.04374 -0.0554,0.07761 0.0706,0.05539 0.18873,-0.03316 1.24001,-0.208844 1.53952,-0.353129 0.19791,-0.09525 0.88794,-0.433917 1.45239,-0.876655 -0.0159,0.1143 -0.03,0.282224 -0.0222,0.495655 0.0381,1.029052 0.9585,0.858308 1.1998,0.805037 0.72355,-0.15875 1.60866,-1.158875 1.68381,-1.359958 0.0744,-0.198612 0.085,-0.379942 0.0684,-0.537634 0.1905,-0.10301 0.59972,-0.43321 0.59972,-0.43321 0.0169,0.438857 0.36618,0.570794 0.47343,0.589492 0.50376,0.07655 0.756,-0.34431 0.86324,-0.480483 0.0917,0.240241 0.31221,0.286808 0.42581,0.309385 0.43426,0.08643 0.51893,-0.220837 0.54116,-0.291042 0.13652,-0.423333 -0.10936,-0.739068 -0.14041,-0.774345 -0.0317,-0.03493 -0.0476,-0.0013 -0.0586,0.03916 -0.0113,0.04092 -0.0462,0.193675 -0.0684,0.288925 0,0 0.0907,0.147812 0.12312,0.223308 0.0325,0.07549 -0.0155,0.116769 -0.10936,0.128059 -0.26423,0.03245 -0.47484,-0.11924 -0.54751,-0.18909 -0.0727,-0.06985 0.006,-0.193323 0.0646,-0.341135 0.0469,-0.11783 -0.0402,-0.132292 -0.1069,0 -0.22401,0.588785 -0.53869,0.652285 -0.62124,0.67451 -0.74647,0.203552 -0.68192,-0.478719 -0.67945,-0.590198 0.003,-0.111477 -0.079,-0.07055 -0.17109,0.0032 -0.31362,0.252238 -0.56657,0.400404 -0.70274,0.460729 -0.11712,-0.2286 -0.28716,-0.372533 -0.35877,-0.424391 -0.80751,-0.58914 -0.87419,0.599368 -0.84949,0.726368 0.12277,0.505532 0.94756,0.198967 1.07668,0.183798 0.12947,-0.01516 0.0875,0.155575 0.0148,0.256821 -0.17921,0.250473 -0.38594,0.430038 -0.57291,0.58279 -0.79939,0.652285 -1.20121,0.600781 -1.32468,0.596548 -0.78528,-0.02188 -0.71296,-0.868188 -0.66957,-1.049163 0.23636,-0.200025 0.43956,-0.417687 0.55739,-0.641702 0.048,-0.122767 0.13088,-0.40146 -0.0187,-0.751769 -0.0787,-0.153813 -0.32632,-0.585964 -0.32632,-0.585964 0,0 0.18239,0.0056 0.19968,0.0053 0.0173,-2.64e-4 0.0515,-0.01834 0.007,-0.06914 -0.0441,-0.05116 -0.42721,-0.433565 -0.45014,-0.464257 -0.0233,-0.03069 -0.0444,-0.05292 -0.0575,-0.0078 m 2.42217,1.7526 c 0,0 -0.10972,0.06315 -0.41734,0.04269 -0.25753,-0.01765 -0.23566,-0.117827 -0.20038,-0.155927 0.0385,-0.04163 0.35419,-0.240241 0.61772,0.113242 m -3.31647,-1.424871 c -0.0536,0.06632 -0.58984,0.770115 -0.58984,0.770115 l -0.38982,-0.27799 c 0,0 0.1591,-0.03986 0.18662,-0.04833 0.0279,-0.0078 0.0437,-0.04375 -0.006,-0.0695 -0.0497,-0.02574 -0.52,-0.213077 -0.55598,-0.227542 -0.0356,-0.01447 -0.0487,-0.03069 -0.0519,0.0074 -0.003,0.0381 -0.008,0.347485 -0.008,0.347485 0,0 -0.007,0.02188 0.0339,0.0448 0.0409,0.02328 0.0811,0.07338 0.11501,0.106892 0.0335,0.03351 0.47096,0.378883 0.49212,0.390877 0,0 -0.21872,0.384527 -0.24659,0.685448 -0.0279,0.300918 0.005,0.716492 0.41663,0.582435 0.11077,-0.03175 0.5715,-0.214842 0.67451,-0.536223 0.0335,-0.118179 0.12806,-0.331962 -0.0261,-0.54892 -0.0893,-0.127355 -0.44909,-0.342548 -0.44909,-0.342548 0,0 0.27623,-0.382059 0.30269,-0.428625 0.0265,-0.04692 0.12806,-0.342549 0.13899,-0.414515 0.0113,-0.07161 0.0169,-0.107244 -0.0363,-0.04127 m -0.0942,1.623131 c -0.15275,0.12559 -0.47413,0.291748 -0.56444,0.300567 -0.09,0.0085 -0.32985,-0.03563 -0.22543,-0.28081 0.0356,-0.07937 0.27482,-0.489305 0.27482,-0.489305 0.0896,0.04939 0.66781,0.343606 0.51505,0.469548 m 6.23041,0.561623 c -0.0314,0.08608 -0.0434,0.143227 -0.0399,0.175684 0.003,0.03316 0.0148,0.1397 0.0148,0.1397 -0.0325,0.02574 -0.16898,0.11077 -0.30585,0.01024 0.009,-0.02928 0.0268,-0.08854 0.031,-0.121354 0.0145,-0.0508 -0.0166,-0.08855 -0.0413,-0.03598 -0.0251,0.05292 -0.0829,0.228245 -0.12594,0.267758 -0.043,0.03951 -0.0938,0.184502 -0.41945,0.03704 -0.0572,-0.02188 -0.15734,-0.09596 -0.31291,0.06068 -0.35278,0.327731 -0.5962,0.353131 -0.99131,0.493889 -0.0476,0.02188 -0.14852,0.09737 -0.0293,0.08537 0.11959,-0.01236 0.62054,2.65e-4 0.89323,-0.312912 0.0571,-0.05539 0.12242,-0.201438 0.33902,-0.116771 0.11995,0.04551 0.34149,0.235656 0.58314,-0.140052 0.14288,0.09454 0.35913,0.0568 0.39335,-0.04763 0.0349,-0.104775 0.0744,-0.208844 0.0741,-0.279752 -2.7e-4,-0.07126 -0.007,-0.1651 -0.007,-0.1651 -0.005,-0.05645 -0.0247,-0.13688 -0.0561,-0.0508 m -10.37802,0.630412 c -0.0307,0.07479 -0.15839,0.332671 -0.13864,0.636765 0.004,0.0702 0.0508,0.207081 0.15664,0.210608 0.0547,-2.65e-4 0.12523,-0.03951 0.17533,-0.211667 0.009,-0.03881 0.0145,-0.06985 0.018,-0.08502 0.006,-0.02328 -0.0116,-0.05116 -0.0296,0.0021 -0.0399,0.105479 -0.14359,0.178859 -0.22155,0.03775 -0.0127,-0.02787 -0.0653,-0.155927 0.031,-0.435679 0.0194,-0.05398 0.0441,-0.135115 0.0441,-0.135115 0.0215,-0.06103 -0.004,-0.09454 -0.0353,-0.01976 m -2.9598,0.433917 c -0.0667,0.04092 -1.55116,0.766939 -1.61996,0.813154 -0.0688,0.04621 -0.0931,0.05821 -0.10336,0.112184 -0.0102,0.05397 -0.0152,0.08502 -0.018,0.09384 -0.012,0.03598 -0.0201,0.08079 0.0815,0.01164 0.0314,-0.02117 1.52858,-0.754237 1.58503,-0.793395 0.0568,-0.03881 0.091,-0.05362 0.11359,-0.109715 0.0219,-0.05609 0.0279,-0.06632 0.0392,-0.105127 0.0127,-0.04163 0.0254,-0.08572 -0.078,-0.02257"
       style="fill:#231f20;fill-opacity:1;fill-rule:evenodd;stroke:none;stroke-width:0.264583"
       id="path1-48" />
  </g>
</svg>
