<?xml version="1.0" encoding="UTF-8" standalone="no"?>
<!-- Created with Inkscape (http://www.inkscape.org/) -->

<svg
   width="18.354443mm"
   height="6.8539505mm"
   viewBox="0 0 18.354443 6.8539505"
   version="1.1"
   id="svg1"
   xmlns:inkscape="http://www.inkscape.org/namespaces/inkscape"
   xmlns:sodipodi="http://sodipodi.sourceforge.net/DTD/sodipodi-0.dtd"
   xmlns="http://www.w3.org/2000/svg"
   xmlns:svg="http://www.w3.org/2000/svg">
  <sodipodi:namedview
     id="namedview1"
     pagecolor="#ffffff"
     bordercolor="#666666"
     borderopacity="1.0"
     inkscape:showpageshadow="2"
     inkscape:pageopacity="0.0"
     inkscape:pagecheckerboard="0"
     inkscape:deskcolor="#d1d1d1"
     inkscape:document-units="mm" />
  <defs
     id="defs1" />
  <g
     inkscape:label="Layer 1"
     inkscape:groupmode="layer"
     id="layer1"
     transform="translate(-102.76958,-32.198447)">
    <path
       d="m 109.7093,32.269324 c -0.17286,0.240242 -0.17109,0.546452 -0.18062,0.888293 -0.0289,-0.0702 -0.19473,-0.5207 -0.67345,-0.762351 -0.0346,-0.01728 -0.10196,0.02188 -0.10407,0.129468 -8e-4,0.0628 -0.0124,0.2159 0.0339,0.257175 0.0462,0.04092 0.18028,0.120298 0.20215,0.131233 0.0229,0.01093 0.0462,0.01164 0.0518,-0.01482 0.006,-0.02646 0.0328,-0.08819 0.0769,-0.04692 0.037,0.03493 0.27552,0.215194 0.4124,0.613482 0.0229,0.05256 0.073,0.05539 0.0808,-0.02082 0.0198,-0.187677 0.0208,-0.512585 0.031,-0.611717 0.0152,-0.138993 0.0688,-0.426508 0.25012,-0.28575 0.0413,0.0314 0.0854,0.07408 0.0854,0.07408 0.0395,0.04516 0.0882,0.09666 0.10866,0.04127 0.0307,-0.0829 0.0522,-0.219075 0.0116,-0.290336 -0.0183,-0.0321 -0.24659,-0.297039 -0.38665,-0.102306 m 2.15688,0.05221 c -0.0162,0.03881 -0.11253,0.303038 -0.11253,0.303038 0.0257,0.17145 0.25294,2.01436 0.26776,2.140302 0.0152,0.12559 0.3616,2.355143 0.37853,2.931583 -0.004,0.05927 0.0212,0.08114 0.048,0.02469 0.0268,-0.0568 0.21801,-0.493535 -0.0353,-1.996369 -0.0162,-0.117475 -0.35066,-2.500135 -0.35066,-2.500135 0,0 0.19755,0.185208 0.2293,0.218721 0.0314,0.03351 0.0702,0.01553 0.0519,-0.03845 -0.018,-0.05398 -0.42192,-1.030465 -0.43462,-1.063977 -0.0134,-0.03422 -0.0265,-0.05856 -0.0423,-0.01939 m -1.17757,0.01622 c -0.0169,0.0381 -0.13194,0.308679 -0.13194,0.308679 0.0138,0.100541 0.61913,3.847041 0.58244,4.053064 -0.004,0.02257 -0.0102,0.05151 -0.0212,0.08537 -0.0233,-0.190854 -0.10971,-0.4699 -0.35313,-0.866775 -0.4011,-0.655108 -1.78858,-1.791054 -2.21897,-2.469091 -0.004,-0.0071 -0.004,-0.01516 -0.004,-0.01516 0,0 0.17216,0.04128 0.20214,0.04833 0.0466,0.01093 0.11536,0.0085 0.0684,-0.03457 -0.0469,-0.04304 -0.68298,-0.468487 -0.74824,-0.518935 -0.0646,-0.04974 -0.0914,-0.08573 -0.0921,-0.03422 -2.6e-4,0.0508 0.007,0.343603 0.008,0.375002 0.002,0.03069 0.004,0.04868 0.0416,0.07832 0.0381,0.02963 0.18274,0.194382 0.30515,0.345369 0.67698,0.781404 1.50425,1.611841 1.60832,1.700038 0.10371,0.08819 0.96167,0.920395 1.08161,1.585383 10e-4,0.0067 0.002,0.01341 0.003,0.01976 -0.19226,0.319617 -0.68615,0.801865 -1.97203,1.225905 -0.14393,0.07267 -0.085,0.11712 0.0159,0.102304 0.10089,-0.01516 1.48414,-0.09454 2.04752,-1.006475 0.25506,-0.434269 0.26353,-0.827969 0.16545,-1.565275 -0.03,-0.231421 -0.40569,-2.525887 -0.40569,-2.525887 0,0 0.19438,0.185208 0.22613,0.218368 0.031,0.03352 0.0695,0.01659 0.0522,-0.03669 -0.0173,-0.05327 -0.40675,-1.019527 -0.4191,-1.053041 -0.0124,-0.03351 -0.0251,-0.05785 -0.042,-0.01976 m -6.32707,0.04551 c -0.0166,0.03916 -0.11218,0.303387 -0.11218,0.303387 0.0257,0.171804 0.25294,2.014363 0.26811,2.140304 0.0148,0.125587 0.30409,1.988254 0.32067,2.564694 -0.005,0.05891 0.009,0.07338 0.0476,0.024 0.0194,-0.02363 0.24306,-0.218724 0.0229,-1.62913 -0.0166,-0.11712 -0.35102,-2.500135 -0.35102,-2.500135 0,0 0.19721,0.18556 0.22896,0.219075 0.0318,0.03352 0.0702,0.01553 0.0522,-0.03845 -0.018,-0.05398 -0.42228,-1.030465 -0.43498,-1.06398 -0.0134,-0.03422 -0.0261,-0.05891 -0.0423,-0.01976 m 1.51624,0.05186 c -0.14923,0.239184 -0.1457,0.545394 -0.15205,0.886884 -0.0254,-0.07021 -0.17321,-0.522113 -0.59231,-0.766588 -0.0307,-0.01765 -0.0889,0.02082 -0.09,0.128765 -7.9e-4,0.06279 -0.01,0.2159 0.031,0.257175 0.0406,0.04163 0.15769,0.121356 0.17745,0.132643 0.0198,0.0113 0.0406,0.01199 0.0448,-0.01447 0.005,-0.02611 0.0282,-0.0882 0.0667,-0.04621 0.0328,0.03493 0.242,0.216958 0.36406,0.615598 0.0208,0.05292 0.0642,0.05609 0.0706,-0.02011 0.0159,-0.187325 0.0145,-0.512233 0.0233,-0.611012 0.0124,-0.138994 0.0571,-0.425802 0.21626,-0.284692 0.0363,0.0321 0.0748,0.07514 0.0748,0.07514 0.0349,0.04551 0.078,0.09701 0.0952,0.04198 0.0264,-0.08255 0.0444,-0.219075 0.008,-0.290335 -0.0159,-0.03211 -0.21696,-0.29845 -0.33796,-0.104775 m 7.50358,0.109008 c -0.0698,0.106537 -0.12171,0.362654 -0.0219,0.435327 0.0998,0.07338 0.24589,0.132998 0.24589,0.132998 -0.46532,0.570442 -0.78388,0.679802 -1.05693,0.839258 -0.0699,0.04092 -0.0561,0.07796 -0.0152,0.06703 0.0215,-0.0056 0.38806,-0.06279 0.81633,-0.388056 0.23142,-0.175683 0.37147,-0.475896 0.37147,-0.475896 0,0 0.11607,0.09666 0.13159,0.116063 0.0353,0.04375 0.0543,0.07585 0.0713,0.02999 0.0607,-0.168981 -0.0257,-0.270933 -0.10795,-0.323498 0,0 0.0857,-0.263525 -0.0713,-0.527402 -0.0265,-0.0441 -0.18239,-0.185562 -0.36336,0.09419 m 0.24412,0.07232 c 0.10478,0.09772 0.0889,0.257881 0.0847,0.294568 0,0 -0.13406,-0.06244 -0.19438,-0.08819 -0.06,-0.0254 -0.091,-0.06385 -0.0631,-0.1016 0.0921,-0.130175 0.13758,-0.12559 0.17286,-0.104775 m 6.27874,0.02328 c -0.0702,0.10654 -0.12241,0.362656 -0.0226,0.435681 0.10019,0.07338 0.24624,0.132292 0.24624,0.132292 -0.46567,0.571146 -1.38042,0.977194 -1.59808,1.146879 -0.0646,0.04939 -0.0561,0.07796 -0.0152,0.06703 0.0363,-0.0099 0.73307,-0.204964 1.37054,-0.750358 0.29175,-0.250473 0.28434,-0.269171 0.35842,-0.421217 0.0632,0.03316 0.10654,0.08572 0.13159,0.116417 0.0349,0.04339 0.0543,0.07585 0.0709,0.02999 0.0607,-0.168981 -0.025,-0.270933 -0.10759,-0.323498 0,0 0.0854,-0.26317 -0.0716,-0.52705 -0.0261,-0.04409 -0.18238,-0.18556 -0.36265,0.09384 m 0.24341,0.07267 c 0.10478,0.09772 0.0889,0.257879 0.0843,0.294569 0,0 -0.1337,-0.06279 -0.19332,-0.08855 -0.0603,-0.02574 -0.0917,-0.0635 -0.0639,-0.101952 0.0924,-0.129823 0.13794,-0.125236 0.17286,-0.104069 m -13.30183,-0.18909 c -0.0286,0.07761 -0.1524,0.34784 -0.10231,0.648052 0.0113,0.0695 0.0769,0.201084 0.19826,0.19403 0.0624,-0.006 0.14006,-0.05257 0.18204,-0.228955 0.007,-0.03951 0.0102,-0.07126 0.0127,-0.08678 0.004,-0.02363 -0.0176,-0.04974 -0.0335,0.0056 -0.0363,0.108653 -0.14887,0.192968 -0.25047,0.06032 -0.0169,-0.02681 -0.0885,-0.148874 -0.003,-0.437092 0.0173,-0.05609 0.0381,-0.139348 0.0381,-0.139348 0.0194,-0.06279 -0.013,-0.09384 -0.0416,-0.01588 m 11.51325,0.02363 c -0.18309,0.232833 -0.19473,0.538692 -0.21907,0.87983 -0.0258,-0.07162 -0.17251,-0.529167 -0.63959,-0.79093 -0.0335,-0.01939 -0.10301,0.01693 -0.10901,0.124883 -0.005,0.0628 -0.0222,0.214842 0.0219,0.258588 0.0444,0.04269 0.17498,0.127352 0.19685,0.1397 0.0219,0.01199 0.0455,0.01341 0.0522,-0.0127 0.006,-0.02611 0.036,-0.08643 0.0787,-0.04339 0.0353,0.03598 0.266,0.226835 0.38559,0.630766 0.0204,0.05362 0.0705,0.05856 0.0815,-0.01728 0.0279,-0.186619 0.0427,-0.511527 0.0575,-0.609952 0.0212,-0.137935 0.0871,-0.422981 0.26212,-0.274815 0.0399,0.03352 0.0822,0.07796 0.0822,0.07796 0.037,0.04657 0.0836,0.100542 0.10654,0.04586 0.0342,-0.08114 0.0621,-0.216603 0.0243,-0.289628 -0.0166,-0.03246 -0.23354,-0.306917 -0.38171,-0.118888 m -1.80058,-0.0113 c -0.067,0.03951 -1.78752,1.032579 -1.85702,1.077735 -0.0699,0.0448 -0.0945,0.05609 -0.10548,0.110067 -0.0113,0.05362 -0.0169,0.08432 -0.0201,0.09313 -0.0123,0.03598 -0.0215,0.08043 0.0811,0.01342 0.0321,-0.02082 1.76212,-1.020588 1.8228,-1.058334 0.0582,-0.03634 0.0914,-0.05186 0.11501,-0.10795 0.0233,-0.05503 0.0293,-0.06527 0.0416,-0.104071 0.0134,-0.04127 0.0265,-0.08467 -0.078,-0.024 m -6.36235,1.207204 c -0.0282,0.07726 -0.15169,0.347488 -0.1023,0.648055 0.0116,0.06985 0.0773,0.201083 0.19861,0.193675 0.0624,-0.0056 0.14006,-0.05221 0.18204,-0.228955 0.007,-0.03916 0.0102,-0.07091 0.0127,-0.08608 0.004,-0.024 -0.0176,-0.04974 -0.0332,0.0053 -0.0367,0.108656 -0.14923,0.192616 -0.25083,0.05997 -0.0169,-0.02646 -0.0885,-0.148521 -0.003,-0.437092 0.0176,-0.05609 0.0381,-0.138996 0.0381,-0.138996 0.0194,-0.06314 -0.013,-0.09349 -0.042,-0.01588 m -7.07918,-0.60466 c -0.0367,0.125941 -0.1958,0.561268 -0.1397,1.060802 0.0134,0.115358 0.0928,0.336904 0.24447,0.334788 0.0783,-0.0049 0.17568,-0.07585 0.23178,-0.363715 0.008,-0.06456 0.0134,-0.116065 0.0173,-0.141817 0.005,-0.03845 -0.0215,-0.08255 -0.042,0.0064 -0.0476,0.176742 -0.18979,0.306565 -0.31397,0.08008 -0.0208,-0.0448 -0.10795,-0.251532 0.004,-0.720374 0.0229,-0.09102 0.0504,-0.226131 0.0504,-0.226131 0.0254,-0.102658 -0.0152,-0.155575 -0.0522,-0.02998 m 4.59211,0.608893 c -0.0681,0.03669 -2.07504,0.877007 -2.27295,1.017413 -0.0991,0.07055 -0.18521,0.186971 -0.22084,0.316442 -0.0515,0.188383 -0.0162,0.379235 0.10654,0.407104 0.0857,0.01905 0.13194,0.07267 0.15169,0.103013 0.009,0.01304 0.0233,0.0049 0.0282,-0.0032 0.11007,-0.18768 0.0293,-0.315384 -0.13511,-0.373947 -0.0656,-0.02294 -0.0893,-0.117475 0.16651,-0.259995 0.23566,-0.131233 2.01789,-0.893233 2.07045,-0.925338 0.0709,-0.04304 0.11325,-0.05856 0.14394,-0.125235 0.0307,-0.06597 0.0381,-0.07761 0.0547,-0.123825 0.018,-0.04939 0.036,-0.101952 -0.0931,-0.03246 m 9.17998,0.143582 c -0.0346,0.08467 -0.17851,0.37465 -0.15664,0.717198 0.005,0.07937 0.0575,0.233537 0.17675,0.237418 0.0614,0 0.14111,-0.0448 0.1979,-0.238125 0.01,-0.04374 0.0159,-0.07938 0.0201,-0.09631 0.006,-0.02611 -0.0134,-0.05715 -0.0335,0.0028 -0.0448,0.118534 -0.16193,0.201435 -0.24977,0.04233 -0.0141,-0.03175 -0.0737,-0.176038 0.0353,-0.490715 0.0219,-0.06138 0.0494,-0.152048 0.0494,-0.152048 0.0243,-0.06914 -0.005,-0.106537 -0.0395,-0.02257 m 3.30729,0.173214 c -0.0318,0.07796 -0.1651,0.347134 -0.14464,0.664279 0.004,0.07302 0.0529,0.2159 0.16369,0.21943 0.0568,0 0.13053,-0.04127 0.18274,-0.22084 0.009,-0.04057 0.0148,-0.07303 0.0183,-0.0889 0.006,-0.024 -0.012,-0.05292 -0.0307,0.0024 -0.0416,0.110067 -0.14993,0.186973 -0.23107,0.03951 -0.013,-0.02928 -0.0681,-0.162631 0.0321,-0.454379 0.0204,-0.05644 0.0462,-0.140759 0.0462,-0.140759 0.0226,-0.06385 -0.004,-0.09878 -0.0367,-0.02082 m -6.20642,0.0085 -0.16792,0.230717 -0.3235,-0.235305 c -0.008,-0.006 -0.0194,-0.0039 -0.0257,0.0046 l -0.19473,0.267403 c -0.006,0.0085 -0.005,0.02011 0.003,0.02574 l 0.33337,0.243063 c 0.008,0.0056 0.0194,0.0035 0.0254,-0.0049 l 0.16828,-0.230717 0.32314,0.235654 c 0.008,0.0056 0.0198,0.0035 0.0261,-0.0049 l 0.19438,-0.267758 c 0.007,-0.0081 0.005,-0.01976 -0.003,-0.02574 l -0.33303,-0.242358 c -0.008,-0.006 -0.0194,-0.0039 -0.0257,0.0046 m 1.30351,0.415925 c -0.0134,0.04551 -0.0455,0.239887 -0.0536,0.279752 -0.008,0.03986 -0.007,0.08008 0.0124,0.113948 0.0198,0.03457 0.0706,0.152752 0.10724,0.24906 0.0363,0.09631 0.41451,0.824442 0.44909,0.889 0.0349,0.06456 0.042,0.112535 0.007,0.154869 -1.21285,1.279879 -3.55317,2.066573 -3.62796,2.109964 -0.0748,0.04374 -0.0554,0.07761 0.0709,0.05539 0.18803,-0.03316 1.23966,-0.208844 1.53917,-0.353129 0.1979,-0.09525 0.88829,-0.434271 1.45238,-0.876655 -0.0155,0.113948 -0.03,0.282223 -0.0219,0.495655 0.0377,1.029052 0.95815,0.857954 1.19945,0.805037 0.7239,-0.15875 1.60866,-1.158875 1.68416,-1.359958 0.0741,-0.198612 0.085,-0.379587 0.0681,-0.537986 0.19086,-0.10301 0.59973,-0.43321 0.59973,-0.43321 0.0169,0.438854 0.36618,0.570794 0.47378,0.589844 0.50376,0.07655 0.756,-0.34431 0.86289,-0.480835 0.0917,0.240593 0.31221,0.28716 0.42545,0.309737 0.43498,0.08608 0.51929,-0.221192 0.54187,-0.291042 0.13617,-0.423333 -0.10936,-0.73942 -0.14076,-0.774345 -0.0318,-0.03528 -0.048,-0.0013 -0.0586,0.03916 -0.0109,0.04057 -0.0466,0.19332 -0.0681,0.288925 0,0 0.0907,0.147812 0.12277,0.223308 0.0324,0.07549 -0.0159,0.116769 -0.10901,0.128059 -0.26388,0.0321 -0.47519,-0.11924 -0.54786,-0.189442 -0.0723,-0.0695 0.006,-0.192971 0.0649,-0.340783 0.0466,-0.11783 -0.0406,-0.132292 -0.10689,-2.65e-4 -0.22437,0.58914 -0.5387,0.65264 -0.6216,0.675217 -0.74612,0.2032 -0.68157,-0.478719 -0.67945,-0.590902 0.003,-0.111477 -0.0787,-0.0702 -0.17074,0.0035 -0.31398,0.252238 -0.56692,0.40005 -0.70274,0.460729 -0.11712,-0.228954 -0.28716,-0.372888 -0.35912,-0.424746 -0.80751,-0.588433 -0.87384,0.599371 -0.84985,0.726723 0.12312,0.505177 0.94827,0.198967 1.07739,0.183798 0.12911,-0.01516 0.0871,0.155575 0.0145,0.256821 -0.17921,0.250473 -0.38559,0.430038 -0.57256,0.582438 -0.79975,0.652637 -1.20121,0.601133 -1.32468,0.5969 -0.78564,-0.02188 -0.71367,-0.868188 -0.66993,-1.049515 0.23637,-0.199673 0.43957,-0.41769 0.55739,-0.64135 0.048,-0.122767 0.13124,-0.401815 -0.0187,-0.751769 -0.0787,-0.154165 -0.32632,-0.585965 -0.32632,-0.585965 0,0 0.18274,0.0056 0.19967,0.0053 0.0173,-2.64e-4 0.0519,-0.01834 0.007,-0.0695 -0.0441,-0.0508 -0.42721,-0.433562 -0.4505,-0.464254 -0.0233,-0.03069 -0.0441,-0.05257 -0.0571,-0.0074 m 2.42217,1.752245 c 0,0 -0.11041,0.0635 -0.41768,0.04304 -0.25753,-0.01765 -0.23566,-0.117827 -0.20003,-0.156281 0.0381,-0.04163 0.35384,-0.240242 0.61771,0.113241 m -3.31681,-1.424516 c -0.0533,0.06597 -0.58985,0.769763 -0.58985,0.769763 l -0.38946,-0.27799 c 0,0 0.15875,-0.03951 0.18626,-0.04798 0.0279,-0.0081 0.0438,-0.04375 -0.006,-0.0695 -0.0501,-0.02574 -0.52035,-0.213077 -0.55633,-0.227542 -0.0356,-0.01482 -0.0487,-0.03104 -0.0519,0.0074 -0.003,0.03775 -0.008,0.347486 -0.008,0.347486 0,0 -0.007,0.02151 0.0335,0.0448 0.0409,0.02363 0.0815,0.07338 0.11501,0.106537 0.0335,0.03387 0.47095,0.379238 0.49248,0.391232 0,0 -0.21908,0.384527 -0.24695,0.685448 -0.0275,0.300918 0.005,0.716137 0.41663,0.582435 0.11077,-0.03175 0.57185,-0.214842 0.67451,-0.536223 0.0335,-0.118179 0.12841,-0.331962 -0.0261,-0.54892 -0.0889,-0.127355 -0.44874,-0.342549 -0.44874,-0.342549 0,0 0.27587,-0.382058 0.30233,-0.428625 0.0265,-0.04692 0.12806,-0.3429 0.13935,-0.414514 0.0113,-0.07161 0.0166,-0.107596 -0.0367,-0.04127 m -0.0942,1.622779 c -0.15275,0.125942 -0.47378,0.291746 -0.56444,0.300567 -0.0903,0.0085 -0.32985,-0.03528 -0.22508,-0.280458 0.0353,-0.07973 0.27482,-0.489305 0.27482,-0.489305 0.0896,0.04939 0.66745,0.343606 0.5147,0.469196 m -6.69749,-1.548341 c -0.10547,0.115003 -0.13793,0.194378 -0.16968,0.243416 -0.0437,0.06809 0.0113,0.09842 0.0603,0.04551 0.0487,-0.05292 0.0829,-0.105834 0.22649,-0.101955 0.14322,0.0035 0.48648,-0.0095 0.35842,0.08502 -0.12841,0.09419 -0.2152,0.148871 -0.2152,0.148871 -0.0833,0.05997 -0.15663,0.17145 -0.01,0.109714 0.14711,-0.06244 0.34149,-0.160514 0.49071,-0.385233 0.0438,-0.06526 0.0942,-0.152752 -0.10759,-0.183092 -0.20179,-0.02998 -0.52846,-0.07726 -0.63395,0.03775 m -1.17333,0.303387 c -0.0282,0.07796 -0.15205,0.347488 -0.10266,0.648406 0.0116,0.0695 0.0773,0.201083 0.19897,0.193675 0.0621,-0.0056 0.1397,-0.05257 0.18203,-0.228952 0.006,-0.03951 0.01,-0.07091 0.0123,-0.08643 0.004,-0.024 -0.0176,-0.04939 -0.0332,0.0053 -0.0367,0.109009 -0.14887,0.192969 -0.25082,0.05997 -0.0169,-0.02612 -0.0885,-0.148522 -0.003,-0.43674 0.0177,-0.05609 0.0385,-0.138994 0.0385,-0.138994 0.0194,-0.0635 -0.0134,-0.09384 -0.042,-0.01622 m -3.18382,0.06386 c -0.18909,0.146402 -0.62548,0.570087 -0.42933,0.76835 0.11394,0.09208 0.1651,0.137583 0.1651,0.137583 -0.0533,0.02011 -0.0988,0.07126 -0.13053,0.135819 -0.0321,0.06491 -0.037,0.07902 -0.0536,0.116064 -0.0166,0.03669 -0.0258,0.08643 0.0642,0.03493 0.0903,-0.05151 0.30445,-0.254706 0.88265,-0.382058 0.0801,-0.01693 0.15064,-0.148873 0.15064,-0.148873 0.0339,-0.05539 0.10124,-0.18415 -0.012,-0.121002 -0.11253,0.06385 -0.41416,0.154162 -0.54821,0.12841 -0.13441,-0.02611 -0.29316,-0.141816 -0.32809,-0.19685 -0.0349,-0.05574 -0.03,-0.117475 0.0762,-0.17921 0.10654,-0.06103 0.22261,-0.103013 0.3041,0.03281 0.0152,0.02294 0.0332,0.02188 0.0677,-0.01236 0.0339,-0.03493 0.10301,-0.130881 0.12136,-0.158043 0.0187,-0.02787 0.0332,-0.07373 0.004,-0.107598 -0.0286,-0.03352 -0.1457,-0.194734 -0.33443,-0.04798 m 5.91573,0.653695 c -0.0109,0.01622 -0.10866,0.261409 -0.10866,0.261409 0.0353,0.09278 0.18203,0.356658 0.0787,0.392289 -0.10336,0.03528 -0.45473,0.08678 -0.55809,-0.226131 0.006,-0.02998 0.0462,-0.1143 0.0684,-0.166158 0.0212,-0.0515 -0.0113,-0.141462 -0.0737,-0.05715 -0.0628,0.08467 -0.25294,0.591608 -0.64805,0.642408 -0.12806,0.01693 -0.29915,0.0074 -0.58808,-0.244827 -0.11253,-0.09772 -0.59443,-0.299508 -1.30951,0.267052 -0.0578,0.04551 -0.85937,0.834321 -0.99942,0.96873 -0.1404,0.134053 -0.70273,0.668866 -0.98848,0.271285 -0.0649,-0.08961 -0.24412,-0.59196 0.44556,-1.464027 0.0533,-0.06844 -0.0215,-0.134408 -0.1651,0.06667 -0.14323,0.201435 -0.90594,1.238954 -0.19191,1.739545 0.12453,0.08714 0.46319,0.280107 1.04951,-0.332668 0.14182,-0.148519 0.76271,-0.872773 1.27212,-1.104548 0.19226,-0.08537 0.45261,-0.239536 0.91545,0.09455 0.13935,0.100542 0.45474,0.391229 0.84491,-0.01799 0.0794,-0.08361 0.23248,-0.339021 0.23248,-0.339021 0.0159,0.04904 0.0755,0.244475 0.33478,0.305155 0.10831,0.0254 0.381,0.01905 0.4819,-0.20673 0.0324,-0.08467 0.18768,-0.495652 -0.0272,-0.844195 -0.0356,-0.0762 -0.0547,-0.02188 -0.0656,-0.0056 m 0.82938,0.385588 c -0.0286,0.07726 -0.1524,0.347485 -0.10266,0.648052 0.0113,0.0695 0.0773,0.200731 0.19826,0.193675 0.0628,-0.0056 0.14041,-0.05257 0.18239,-0.228952 0.007,-0.03951 0.01,-0.07126 0.0127,-0.08643 0.004,-0.024 -0.0183,-0.04939 -0.0339,0.0053 -0.0363,0.109008 -0.14852,0.192969 -0.25047,0.06032 -0.0169,-0.02681 -0.0885,-0.148519 -0.003,-0.43674 0.0169,-0.05644 0.0381,-0.139345 0.0381,-0.139345 0.0194,-0.06315 -0.0134,-0.09384 -0.0416,-0.01588 m -6.12987,0.220133 c -0.0691,0.03634 -0.84949,0.476602 -0.92534,0.523169 -0.0706,0.04339 -0.0878,0.06632 -0.0931,0.12065 -0.005,0.05503 -0.008,0.08643 -0.01,0.09525 -0.009,0.03704 -0.0219,0.06985 0.0822,0.0046 0.0504,-0.0314 0.82091,-0.454025 0.89288,-0.500592 0.0571,-0.03775 0.0857,-0.06138 0.10301,-0.119591 0.0169,-0.05785 0.0222,-0.06844 0.03,-0.108302 0.009,-0.04233 0.0236,-0.0695 -0.0797,-0.01516 m 16.66981,0.483658 c -0.031,0.08643 -0.043,0.142875 -0.0399,0.175684 0.004,0.03316 0.0148,0.139345 0.0148,0.139345 -0.0321,0.02574 -0.16898,0.111125 -0.30586,0.01058 0.01,-0.02928 0.0268,-0.0889 0.0311,-0.121354 0.0148,-0.0508 -0.0166,-0.08855 -0.0413,-0.03598 -0.0247,0.05256 -0.0825,0.227894 -0.12594,0.267404 -0.0427,0.03986 -0.0935,0.184857 -0.41945,0.0374 -0.0572,-0.02188 -0.15734,-0.09596 -0.31292,0.06068 -0.35242,0.327732 -0.59584,0.353132 -0.9913,0.493536 -0.0476,0.02222 -0.14817,0.09737 -0.0289,0.08572 0.11924,-0.01199 0.62053,0 0.89288,-0.312913 0.0571,-0.05503 0.12241,-0.201437 0.33902,-0.116771 0.11994,0.04586 0.34149,0.235657 0.58314,-0.140052 0.14288,0.09454 0.35948,0.0568 0.3937,-0.04798 0.0346,-0.104423 0.0744,-0.208491 0.0741,-0.279754 -7.9e-4,-0.07126 -0.007,-0.164746 -0.007,-0.164746 -0.005,-0.05609 -0.0247,-0.136879 -0.0564,-0.0508 m -11.76372,0.381 c -0.0311,0.08608 -0.043,0.142875 -0.0399,0.175684 0.004,0.03316 0.0148,0.139345 0.0148,0.139345 -0.0321,0.02574 -0.16898,0.110773 -0.3055,0.01058 0.009,-0.02963 0.0268,-0.0889 0.0307,-0.121709 0.0148,-0.05044 -0.0159,-0.08784 -0.0413,-0.03598 -0.0247,0.05292 -0.0825,0.2286 -0.12594,0.267758 -0.0427,0.03951 -0.0935,0.184857 -0.41945,0.03704 -0.0571,-0.02188 -0.15734,-0.0956 -0.31256,0.06068 -0.35243,0.327729 -0.5962,0.353129 -0.99166,0.493888 -0.0476,0.02222 -0.14817,0.09737 -0.0289,0.08537 0.11924,-0.01199 0.62018,2.64e-4 0.89288,-0.312915 0.0571,-0.05503 0.12241,-0.201435 0.33902,-0.116417 0.11994,0.04551 0.34184,0.235657 0.58385,-0.140404 0.14217,0.09525 0.35842,0.05715 0.39334,-0.04727 0.0342,-0.105127 0.0741,-0.209198 0.0737,-0.280106 -8e-4,-0.07126 -0.007,-0.1651 -0.007,-0.1651 -0.005,-0.05609 -0.0247,-0.136525 -0.0564,-0.05045 m -3.12384,0.5588 c -0.0233,0.03316 -0.0399,0.06032 -0.049,0.07303 -0.0138,0.01939 -0.005,0.05256 0.0328,0.0095 0.0797,-0.08255 0.21731,-0.110066 0.25224,0.05362 0.004,0.03105 0.0159,0.171804 -0.18521,0.395465 -0.0399,0.04339 -0.0942,0.10936 -0.0942,0.10936 -0.0448,0.04868 -0.0282,0.09031 0.0307,0.0321 0.0589,-0.05786 0.28645,-0.248004 0.37112,-0.541162 0.0194,-0.06738 0.0169,-0.214488 -0.0956,-0.26035 -0.0593,-0.02151 -0.14923,-0.0127 -0.26282,0.128412 m 5.55766,-0.08396 c -0.11924,0.09243 -0.39511,0.359833 -0.27093,0.484716 0.072,0.05821 0.10406,0.08678 0.10406,0.08678 -0.0339,0.01304 -0.0621,0.04516 -0.0825,0.08608 -0.0201,0.04057 -0.0233,0.04974 -0.0335,0.07303 -0.0106,0.02328 -0.0166,0.05468 0.0406,0.02222 0.0568,-0.03281 0.19191,-0.160867 0.55704,-0.240948 0.0504,-0.01093 0.0949,-0.09384 0.0949,-0.09384 0.0212,-0.03528 0.0635,-0.116768 -0.007,-0.07655 -0.0709,0.04022 -0.26141,0.09702 -0.34608,0.08079 -0.085,-0.01622 -0.18521,-0.08925 -0.20708,-0.124177 -0.0222,-0.03492 -0.019,-0.07444 0.0483,-0.11289 0.067,-0.0388 0.14041,-0.06526 0.19156,0.02011 0.01,0.01482 0.0208,0.01447 0.0427,-0.0074 0.0215,-0.02188 0.0653,-0.08255 0.0766,-0.100187 0.012,-0.01728 0.0212,-0.04622 0.003,-0.06738 -0.018,-0.02117 -0.0921,-0.122766 -0.21096,-0.03034 m 0.58878,0.648758 c -0.0649,0.02716 -0.86042,0.322792 -0.92921,0.347133 -0.0684,0.02434 -0.0893,0.03598 -0.10619,0.08114 -0.0173,0.04516 -0.0254,0.06914 -0.03,0.07832 -0.0138,0.03034 -0.0318,0.06068 0.0681,0.02223 0.0314,-0.01164 0.84208,-0.310798 0.89711,-0.335492 0.055,-0.02506 0.0864,-0.03246 0.11466,-0.07796 0.0275,-0.04445 0.0339,-0.05256 0.0497,-0.08467 0.0173,-0.03351 0.0367,-0.07267 -0.0642,-0.03069"
       style="fill:#231f20;fill-opacity:1;fill-rule:evenodd;stroke:none;stroke-width:0.264583"
       id="path1" />
  </g>
</svg>
