<?xml version="1.0" encoding="UTF-8" standalone="no"?>
<!-- Created with Inkscape (http://www.inkscape.org/) -->

<svg
   width="20.276733mm"
   height="6.4779167mm"
   viewBox="0 0 20.276733 6.4779167"
   version="1.1"
   id="svg1"
   xmlns:inkscape="http://www.inkscape.org/namespaces/inkscape"
   xmlns:sodipodi="http://sodipodi.sourceforge.net/DTD/sodipodi-0.dtd"
   xmlns="http://www.w3.org/2000/svg"
   xmlns:svg="http://www.w3.org/2000/svg">
  <sodipodi:namedview
     id="namedview1"
     pagecolor="#ffffff"
     bordercolor="#666666"
     borderopacity="1.0"
     inkscape:showpageshadow="2"
     inkscape:pageopacity="0.0"
     inkscape:pagecheckerboard="0"
     inkscape:deskcolor="#d1d1d1"
     inkscape:document-units="mm" />
  <defs
     id="defs1" />
  <g
     inkscape:label="Layer 1"
     inkscape:groupmode="layer"
     id="layer1"
     transform="translate(-112.13243,-10.798149)">
    <path
       d="m 121.02331,10.803922 c -0.27411,0.0448 -1.97661,0.470607 -3.08575,1.260123 -0.13441,0.100894 -0.35278,0.246237 -0.31362,0.694619 0.0504,0.27446 0.21273,0.453673 0.4759,0.660752 0.26352,0.207433 1.0474,0.963438 1.31657,1.43369 0.0783,0.13476 0.24412,0.396523 -0.18415,0.581728 -0.1457,0.0635 -0.89888,0.394759 -1.58821,0.452615 0.0667,-0.10019 0.40993,-0.577143 -0.0423,-1.56986 -0.0275,-0.06703 -0.0459,-0.0575 -0.067,-0.0095 -0.0212,0.04868 -0.47978,1.503537 -0.48295,1.530702 0,0 -0.89253,0.182385 -1.21179,-0.24271 0.073,-0.06985 0.55103,-0.479074 0.24941,-1.166636 -0.0466,-0.105481 -0.30374,-0.470254 -0.55598,-0.169333 -0.25223,0.300212 -0.34008,0.69497 -0.11853,1.223079 -0.0392,0.02787 -1.05975,0.610658 -1.84009,0.613833 -0.16087,-0.0092 -0.65899,0.0028 -1.02659,-0.385585 -0.10018,-0.103365 -0.37041,-0.38594 -0.12452,-0.911225 0.0116,-0.02506 0.0166,-0.04939 0.0169,-0.06879 0.003,0 0.006,0.0011 0.009,7.94e-4 0.097,-0.006 0.21802,-0.09384 0.28716,-0.450146 0.0106,-0.07973 0.0169,-0.144285 0.0215,-0.175684 0.007,-0.04833 -0.0268,-0.102658 -0.0522,0.0078 -0.0589,0.219427 -0.23459,0.379941 -0.38876,0.09913 -0.0257,-0.05539 -0.1337,-0.311502 0.005,-0.892175 0.0282,-0.112888 0.0624,-0.280104 0.0624,-0.280104 0.031,-0.127707 -0.0187,-0.192971 -0.0646,-0.0374 -0.0455,0.156281 -0.24271,0.695325 -0.17286,1.314098 0.0138,0.122766 0.0885,0.341841 0.2286,0.399698 -0.008,0.01198 -0.0166,0.02716 -0.025,0.04621 -0.0639,0.14605 -0.51647,0.959908 0.26387,1.518356 0.0914,0.05785 0.70909,0.428271 1.69616,0.08008 0.13229,-0.04727 0.70767,-0.239183 1.24813,-0.571145 0.12417,0.136525 0.33196,0.563737 1.143,0.49671 0.0293,0.07549 0.0339,0.10301 0.0804,0.10654 0.0557,0.0046 0.25329,-0.0095 0.25329,-0.0095 0.0258,0.07796 0.18063,0.66675 0.78564,0.819501 0.0501,0.0088 0.38841,0.06985 0.48719,-0.289631 0.0208,-0.109008 0.0568,-0.432152 -0.10937,-0.70132 0.0508,-0.02117 0.90347,-0.281517 1.2245,-0.497772 0.0907,-0.06491 0.27128,-0.222601 0.25858,-0.68721 -0.006,-0.12982 -0.0377,-0.388054 -0.24588,-0.696735 0.13652,0.09102 0.65193,0.51929 1.09431,1.014942 0.17075,0.198612 0.5207,0.826203 1.32186,0.812445 0.1651,-0.01447 0.67522,-0.126645 0.72813,-0.680508 0.0198,-0.199319 0.006,-0.72531 -0.008,-0.868185 -0.0141,-0.142875 -0.3496,-2.537884 -0.3496,-2.537884 0,0 0.19332,0.189796 0.22436,0.223663 0.0307,0.03422 0.0699,0.01728 0.0526,-0.03704 -0.0166,-0.05398 -0.39864,-1.039283 -0.41099,-1.07315 -0.0124,-0.03457 -0.0251,-0.05927 -0.042,-0.02045 -0.0173,0.03846 -0.13794,0.333375 -0.13794,0.333375 0.0141,0.11148 0.47167,3.722158 0.47978,3.827992 0.008,0.105833 0.0423,0.245181 -0.21131,0.342548 -0.25365,0.09701 -0.73554,0.152045 -1.12854,-0.219782 -0.21484,-0.2032 -1.03999,-1.175101 -1.66123,-1.623483 -0.254,-0.182737 -1.33985,-0.967668 -1.5427,-1.103135 -0.0762,-0.05468 -0.0889,-0.09702 -0.0466,-0.160515 0.042,-0.0635 1.72437,-1.061154 2.97568,-1.305983 0.14393,-0.0254 0.72707,-0.118534 0.53692,0.240948 -0.19014,0.359127 -0.6805,0.96379 -0.7567,1.141235 -0.0762,0.177448 -0.008,0.194382 0.0677,0.08043 0.0759,-0.114651 0.65087,-0.858308 0.72284,-0.984953 0.55351,-0.934157 -0.16016,-0.956382 -0.32138,-0.929923 m -5.01227,4.10845 c 0.0434,0.102306 -0.0102,0.120298 -0.0377,0.153106 -0.11501,0.127352 -0.2787,0.230717 -0.32809,0.261054 0,0 -0.13194,-0.261054 -0.16933,-0.358421 -0.0378,-0.09772 -0.0614,-0.211314 0.11395,-0.355248 0.17568,-0.144285 0.37782,0.197557 0.42121,0.299509 m 1.66053,0.4699 c 0.0208,0.14252 -0.35595,0.362301 -0.42298,0.392641 0,0 0.12523,-0.629708 0.27728,-0.878416 0.0423,-0.08819 0.12418,0.343251 0.1457,0.485775 m 0.43674,1.189212 c 0.10936,0.08537 0.009,0.194381 -0.0699,0.2159 -0.37606,0.0695 -0.6985,-0.327729 -0.74401,-0.4064 0,0 0.47801,-0.04339 0.81386,0.1905 m -0.16052,-5.589762 c -0.0772,0.03493 -1.90888,0.876651 -1.9879,0.914751 -0.0744,0.03598 -0.0942,0.0568 -0.10548,0.110422 -0.0109,0.05327 -0.0166,0.08467 -0.0198,0.09348 -0.0127,0.03598 -0.0215,0.06738 0.0811,0.01341 0.0339,-0.01799 1.89019,-0.863248 1.95298,-0.896408 0.0607,-0.0321 0.0921,-0.05186 0.11536,-0.107598 0.0233,-0.05538 0.0293,-0.06597 0.0416,-0.104775 0.013,-0.04092 0.0324,-0.07373 -0.078,-0.02328 m 6.71865,0.302331 c -0.0702,0.106892 -0.12276,0.362654 -0.0222,0.435679 0.0998,0.07338 0.24589,0.132291 0.24589,0.132291 -0.46567,0.5715 -0.78423,0.680157 -1.05693,0.839613 -0.0702,0.04163 -0.0561,0.07796 -0.0152,0.06703 0.0212,-0.0056 0.38806,-0.06279 0.81598,-0.387702 0.23142,-0.176038 0.37183,-0.47625 0.37183,-0.47625 0,0 0.11606,0.09631 0.13123,0.116417 0.0353,0.04339 0.0547,0.07584 0.0713,0.02998 0.0607,-0.169333 -0.0254,-0.271285 -0.1076,-0.32385 0,0 0.0854,-0.262818 -0.0716,-0.52705 -0.0265,-0.0441 -0.18203,-0.18556 -0.36266,0.09384 m 0.24342,0.07303 c 0.10477,0.09772 0.0889,0.257879 0.0847,0.294217 0,0 -0.13406,-0.0628 -0.19403,-0.08855 -0.06,-0.0254 -0.0914,-0.0635 -0.0635,-0.1016 0.0921,-0.129824 0.13758,-0.125236 0.17286,-0.104069 m -5.31601,0.859012 c -0.0339,0.0822 -0.17498,0.366183 -0.1531,0.700617 0.005,0.07726 0.0564,0.228248 0.17251,0.231775 0.0603,-2.65e-4 0.13793,-0.0441 0.19332,-0.233186 0.01,-0.04233 0.0155,-0.07691 0.0194,-0.09313 0.006,-0.02611 -0.0127,-0.05644 -0.0324,0.0021 -0.0438,0.11571 -0.1584,0.19685 -0.24377,0.04163 -0.0141,-0.03069 -0.072,-0.171802 0.0339,-0.479777 0.0215,-0.05962 0.0487,-0.148519 0.0487,-0.148519 0.024,-0.06738 -0.005,-0.104071 -0.0384,-0.02151 m 1.74236,1.139825 c -0.16263,0.238479 -0.16192,0.544689 -0.17215,0.886883 -0.0268,-0.07091 -0.17992,-0.523169 -0.62618,-0.769054 -0.0325,-0.01799 -0.0956,0.02045 -0.0974,0.128059 -10e-4,0.06315 -0.0123,0.2159 0.0303,0.257878 0.043,0.04163 0.16792,0.122063 0.18874,0.132998 0.0212,0.0113 0.043,0.01236 0.0483,-0.0141 0.005,-0.02611 0.0307,-0.08784 0.0716,-0.04586 0.0349,0.03492 0.25682,0.217313 0.38347,0.616657 0.0212,0.05292 0.0677,0.05644 0.0759,-0.01977 0.0187,-0.187325 0.0204,-0.512233 0.0307,-0.61101 0.0145,-0.138993 0.0656,-0.426156 0.23424,-0.283985 0.0385,0.03245 0.0794,0.07549 0.0794,0.07549 0.0367,0.04516 0.0822,0.09702 0.10125,0.04269 0.0293,-0.08255 0.0501,-0.219075 0.0123,-0.290687 -0.0169,-0.03211 -0.22966,-0.299509 -0.36054,-0.106188 m 1.82034,-2.187927 c -0.0169,0.03881 -0.11889,0.300918 -0.11889,0.300918 0.0222,0.172157 0.20849,2.0193 0.22084,2.145597 0.012,0.125941 0.28504,2.217205 0.28927,2.793997 -0.006,0.05891 0.019,0.08114 0.0473,0.02506 0.0282,-0.05574 0.2226,-0.436385 0.0335,-1.850671 -0.0138,-0.117475 -0.29527,-2.507546 -0.29527,-2.507546 0,0 0.19297,0.189442 0.22366,0.223663 0.031,0.03457 0.0699,0.01728 0.0529,-0.03669 -0.0166,-0.05503 -0.39899,-1.039635 -0.41134,-1.073856 -0.0124,-0.03422 -0.0243,-0.05891 -0.042,-0.02045 m 8.03204,0.212018 c -0.0702,0.10654 -0.12242,0.362305 -0.0226,0.43533 0.10054,0.07338 0.24659,0.132643 0.24659,0.132643 -0.46602,0.570794 -1.38077,0.976842 -1.59808,1.146882 -0.0649,0.04903 -0.0564,0.07796 -0.0152,0.06668 0.0363,-0.0099 0.73307,-0.204613 1.37019,-0.750713 0.29175,-0.249767 0.28434,-0.268462 0.35842,-0.42051 0.0632,0.03246 0.10654,0.08537 0.13159,0.116416 0.0349,0.04339 0.0543,0.07585 0.0709,0.02999 0.061,-0.169334 -0.025,-0.270934 -0.10759,-0.32385 0,0 0.0854,-0.263171 -0.0716,-0.527402 -0.0261,-0.0441 -0.18203,-0.184857 -0.36265,0.09454 m 0.24341,0.07267 c 0.10513,0.09737 0.0889,0.257527 0.0847,0.294217 0,0 -0.1337,-0.06244 -0.19403,-0.08819 -0.0596,-0.02574 -0.091,-0.06385 -0.0635,-0.1016 0.0924,-0.130529 0.13794,-0.125941 0.17286,-0.104423 m -1.78858,-0.165806 c -0.18309,0.232481 -0.19438,0.538692 -0.21907,0.879829 -0.0258,-0.07126 -0.17181,-0.529166 -0.63959,-0.790575 -0.0339,-0.01905 -0.10301,0.01693 -0.10936,0.124529 -0.004,0.0628 -0.0215,0.215196 0.0226,0.258588 0.0441,0.04304 0.17462,0.128058 0.19649,0.1397 0.0219,0.01199 0.0455,0.01376 0.0522,-0.01236 0.006,-0.02646 0.0363,-0.08713 0.0787,-0.04339 0.0356,0.03634 0.266,0.226484 0.38594,0.630415 0.0205,0.05397 0.0702,0.05856 0.0815,-0.01728 0.0275,-0.186619 0.0427,-0.511175 0.0575,-0.609246 0.0208,-0.138289 0.0868,-0.423333 0.26211,-0.275521 0.0395,0.03351 0.0819,0.07796 0.0819,0.07796 0.0374,0.04692 0.084,0.10019 0.10654,0.04622 0.0346,-0.08114 0.0621,-0.216607 0.0243,-0.289984 -0.0166,-0.03246 -0.23354,-0.306564 -0.38171,-0.118887 m -1.80022,-0.01058 c -0.0674,0.03916 -1.78753,1.031875 -1.85738,1.07668 -0.0695,0.0448 -0.0942,0.0568 -0.10548,0.110418 -0.0113,0.05397 -0.0169,0.08502 -0.0201,0.09384 -0.0124,0.03563 -0.0212,0.08008 0.0815,0.0127 0.0321,-0.02045 1.76178,-1.020233 1.82245,-1.057981 0.0579,-0.03669 0.0917,-0.05221 0.11501,-0.107598 0.0236,-0.05574 0.0293,-0.06597 0.042,-0.104775 0.013,-0.04092 0.0265,-0.08502 -0.078,-0.02328 m -13.99822,0.03598 c -0.18028,0.232833 -0.19156,0.539046 -0.21555,0.879829 -0.0254,-0.07126 -0.16969,-0.528815 -0.63042,-0.790575 -0.0332,-0.01939 -0.10124,0.01693 -0.10759,0.124529 -0.004,0.0628 -0.0215,0.215196 0.0219,0.258588 0.0437,0.04304 0.17215,0.127704 0.19367,0.140052 0.0219,0.01198 0.0452,0.01376 0.0515,-0.01304 0.006,-0.02574 0.0356,-0.08643 0.0776,-0.04304 0.0303,0.03104 0.27622,0.24765 0.35172,0.543277 0.0624,0.257881 -0.57044,0.777523 -0.6036,0.800806 -0.0596,0.04269 -0.0402,0.06985 -0.0127,0.05503 0.0275,-0.01482 0.055,-0.01905 0.37959,-0.233186 0.26176,-0.172508 0.31644,-0.372888 0.33901,-0.526346 0.003,-0.0074 0.005,-0.01588 0.007,-0.02611 0.0272,-0.186973 0.042,-0.51153 0.0564,-0.6096 0.0208,-0.13829 0.0857,-0.423334 0.25824,-0.275167 0.0391,0.03387 0.0808,0.07832 0.0808,0.07832 0.0363,0.04657 0.0825,0.09984 0.10478,0.04586 0.0339,-0.08114 0.0614,-0.216958 0.024,-0.289983 -0.0166,-0.03281 -0.23001,-0.307269 -0.37606,-0.11924 m 1.27847,0.165806 c -0.0427,0.127352 -0.22825,0.567973 -0.16757,1.072092 0.0141,0.116065 0.10336,0.339725 0.27658,0.335844 0.0896,-0.0053 0.20179,-0.07796 0.26776,-0.368652 0.0102,-0.06491 0.0162,-0.117827 0.0208,-0.143227 0.007,-0.03916 -0.024,-0.08361 -0.0483,0.0067 -0.0554,0.178506 -0.21872,0.310443 -0.35913,0.08326 -0.0233,-0.04516 -0.12135,-0.253648 0.01,-0.727781 0.0268,-0.09172 0.0593,-0.2286 0.0593,-0.2286 0.0296,-0.103365 -0.0159,-0.156634 -0.0593,-0.02963 m 13.04995,1.152877 c -0.0342,0.08432 -0.1785,0.37465 -0.15628,0.717198 0.005,0.07902 0.0575,0.23354 0.17674,0.237773 0.0614,-2.64e-4 0.14112,-0.04516 0.19756,-0.238831 0.01,-0.0441 0.0162,-0.07902 0.0201,-0.09631 0.006,-0.02611 -0.0134,-0.0575 -0.0335,0.0028 -0.0448,0.118533 -0.16192,0.201435 -0.24976,0.04233 -0.0141,-0.0314 -0.0734,-0.175683 0.0353,-0.490363 0.0219,-0.06138 0.0497,-0.152752 0.0497,-0.152752 0.0243,-0.06879 -0.005,-0.106539 -0.0399,-0.02188 m 3.30765,0.173215 c -0.0321,0.07761 -0.16546,0.346781 -0.14499,0.663927 0.004,0.07338 0.0533,0.2159 0.16368,0.220133 0.0571,-2.64e-4 0.13053,-0.04198 0.1831,-0.220837 0.009,-0.04092 0.0145,-0.07302 0.0183,-0.08925 0.006,-0.02434 -0.012,-0.05292 -0.0307,0.0024 -0.0416,0.109712 -0.15028,0.18697 -0.23142,0.03951 -0.013,-0.02928 -0.0681,-0.162631 0.0328,-0.454377 0.0201,-0.0568 0.0455,-0.141465 0.0455,-0.141465 0.0226,-0.0635 -0.004,-0.09807 -0.0363,-0.02011 m -6.20642,0.0081 -0.16863,0.230716 -0.32279,-0.235656 c -0.008,-0.0053 -0.0198,-0.0032 -0.0257,0.0049 l -0.19509,0.267758 c -0.006,0.0081 -0.005,0.02011 0.003,0.02574 l 0.33302,0.24271 c 0.008,0.0056 0.0198,0.0039 0.0257,-0.0049 l 0.16828,-0.230365 0.32314,0.235302 c 0.008,0.0056 0.0194,0.0039 0.0258,-0.0049 l 0.19508,-0.267407 c 0.006,-0.0081 0.005,-0.02011 -0.004,-0.02574 l -0.33267,-0.243065 c -0.008,-0.0053 -0.0198,-0.0032 -0.0257,0.0049 m -8.7817,0.490009 c -0.10266,0.111125 -0.13405,0.187677 -0.16475,0.235654 -0.042,0.06562 0.0109,0.0949 0.0586,0.04375 0.0476,-0.05115 0.0804,-0.102307 0.21907,-0.09842 0.139,0.0035 0.47202,-0.0095 0.34784,0.0822 -0.12453,0.09172 -0.20884,0.144288 -0.20884,0.144288 -0.0804,0.05785 -0.1517,0.16651 -0.009,0.106185 0.14252,-0.06033 0.33125,-0.155575 0.47554,-0.373239 0.042,-0.06315 0.0914,-0.148167 -0.10442,-0.177446 -0.19544,-0.02893 -0.51188,-0.07479 -0.61419,0.03704 m -1.21073,-0.02612 -0.19473,0.267052 c -0.006,0.0088 -0.005,0.02045 0.003,0.02646 l 0.33302,0.242713 c 0.008,0.0056 0.0194,0.0035 0.0258,-0.0049 l 0.19473,-0.267407 c 0.006,-0.0085 0.005,-0.02011 -0.003,-0.02611 l -0.33267,-0.242358 c -0.008,-0.0063 -0.0198,-0.0042 -0.0261,0.0046 m -1.40441,0.676981 c -0.0448,0.127352 -0.23812,0.568677 -0.17674,1.072444 0.0148,0.116417 0.10689,0.33937 0.28681,0.335492 0.0931,-0.0056 0.20955,-0.07867 0.27869,-0.369007 0.0109,-0.06597 0.0173,-0.117827 0.0222,-0.143579 0.007,-0.03951 -0.0247,-0.08361 -0.0501,0.0064 -0.0582,0.179563 -0.22789,0.311502 -0.37359,0.08431 -0.024,-0.04515 -0.12559,-0.252942 0.0124,-0.727427 0.0275,-0.09207 0.0617,-0.228952 0.0617,-0.228952 0.0314,-0.103717 -0.0162,-0.156988 -0.0614,-0.02963 m 12.7,-0.724606 c -0.013,0.04516 -0.0455,0.23989 -0.0536,0.279752 -0.008,0.03987 -0.007,0.07938 0.0127,0.113948 0.0194,0.03457 0.0702,0.152752 0.10689,0.24906 0.0367,0.09666 0.41451,0.82409 0.44944,0.888648 0.0346,0.06421 0.042,0.112536 0.007,0.154869 -1.21285,1.280231 -3.55282,2.066925 -3.62761,2.110316 -0.0751,0.04339 -0.0554,0.07691 0.0709,0.05503 0.18839,-0.03281 1.23967,-0.208492 1.53918,-0.353132 0.19755,-0.0956 0.88794,-0.434268 1.45203,-0.876651 -0.0155,0.1143 -0.03,0.282223 -0.0222,0.495651 0.0385,1.029055 0.9585,0.857957 1.20015,0.80504 0.72355,-0.158398 1.60832,-1.158875 1.68381,-1.359958 0.0741,-0.198615 0.085,-0.379942 0.0684,-0.537633 0.1905,-0.103363 0.59972,-0.433211 0.59972,-0.433211 0.0169,0.438857 0.36583,0.570794 0.47343,0.589492 0.50377,0.07655 0.75636,-0.34431 0.86325,-0.480835 0.0914,0.240593 0.31221,0.28716 0.42545,0.309737 0.43462,0.08643 0.51893,-0.220837 0.54186,-0.290687 0.13582,-0.423688 -0.10971,-0.739775 -0.14111,-0.774348 -0.0318,-0.03528 -0.0476,-0.0019 -0.0589,0.03881 -0.0106,0.04092 -0.0459,0.193321 -0.0677,0.288925 0,0 0.0907,0.147812 0.12276,0.223308 0.0325,0.07549 -0.0159,0.116769 -0.10901,0.128059 -0.26423,0.03245 -0.47519,-0.11924 -0.54786,-0.18909 -0.0727,-0.06985 0.006,-0.193675 0.0649,-0.341135 0.0466,-0.11783 -0.0406,-0.132292 -0.10689,0 -0.22401,0.588433 -0.53869,0.652285 -0.6216,0.674862 -0.74612,0.2032 -0.68191,-0.479071 -0.67909,-0.590196 0.002,-0.112183 -0.079,-0.07091 -0.17075,0.0028 -0.31432,0.251884 -0.56691,0.40005 -0.70308,0.46073 -0.11713,-0.2286 -0.28716,-0.372888 -0.35878,-0.424392 -0.80786,-0.588788 -0.87418,0.599017 -0.84984,0.726721 0.12312,0.504825 0.94792,0.198615 1.07703,0.183443 0.12947,-0.01516 0.0871,0.155575 0.0148,0.257175 -0.17921,0.250122 -0.38594,0.429684 -0.57291,0.582438 -0.79975,0.652637 -1.20121,0.600779 -1.32468,0.596546 -0.78529,-0.02188 -0.71332,-0.868537 -0.66958,-1.049161 0.23636,-0.200376 0.43921,-0.417687 0.55739,-0.641701 0.048,-0.122415 0.13088,-0.401461 -0.019,-0.751417 -0.0783,-0.154165 -0.32596,-0.586317 -0.32596,-0.586317 0,0 0.18238,0.0056 0.19967,0.0053 0.0173,-2.65e-4 0.0515,-0.01834 0.007,-0.06914 -0.0441,-0.05151 -0.42721,-0.433564 -0.45014,-0.464256 -0.0233,-0.03069 -0.0444,-0.05292 -0.0575,-0.0074 M 129,14.980815 c 0,0 -0.11007,0.06315 -0.41734,0.04269 -0.25788,-0.01728 -0.23565,-0.117827 -0.20038,-0.156282 0.0385,-0.04127 0.35419,-0.239887 0.61772,0.113597 m -3.31647,-1.424517 c -0.0536,0.06597 -0.58984,0.76976 -0.58984,0.76976 l -0.38982,-0.27799 c 0,0 0.15875,-0.03986 0.18662,-0.04798 0.0279,-0.0081 0.0434,-0.0441 -0.006,-0.0695 -0.0501,-0.02574 -0.51999,-0.213428 -0.55598,-0.227541 -0.036,-0.01447 -0.049,-0.03104 -0.0519,0.0071 -0.003,0.0381 -0.008,0.347485 -0.008,0.347485 0,0 -0.007,0.02188 0.0335,0.04516 0.0413,0.02328 0.0815,0.07267 0.11536,0.10654 0.0335,0.03387 0.4706,0.378528 0.49212,0.391228 0,0 -0.21907,0.384175 -0.24659,0.685097 -0.0279,0.300918 0.005,0.716137 0.41663,0.58208 0.11078,-0.03139 0.5715,-0.214487 0.67451,-0.535868 0.0332,-0.118179 0.12806,-0.331962 -0.0265,-0.548921 -0.0889,-0.127354 -0.44873,-0.342548 -0.44873,-0.342548 0,0 0.27623,-0.382058 0.30268,-0.428625 0.0265,-0.04657 0.12771,-0.342548 0.139,-0.414515 0.0113,-0.07161 0.0169,-0.107243 -0.0363,-0.04092 m -0.0945,1.622425 c -0.15275,0.126293 -0.47378,0.292097 -0.56409,0.300918 -0.0903,0.0085 -0.3295,-0.03563 -0.22578,-0.28081 0.036,-0.07937 0.27517,-0.48895 0.27517,-0.48895 0.0896,0.04939 0.66745,0.343252 0.5147,0.468842 m -5.45394,0.55386 c -0.0385,0.100187 -0.20179,0.445558 -0.1517,0.839258 0.0116,0.09102 0.0882,0.265642 0.23954,0.262113 0.078,-0.0049 0.17568,-0.06244 0.23495,-0.289984 0.01,-0.05115 0.0148,-0.09207 0.019,-0.112183 0.006,-0.03069 -0.0208,-0.06526 -0.042,0.0056 -0.0494,0.140051 -0.19227,0.24412 -0.31397,0.06703 -0.0198,-0.03563 -0.10443,-0.19826 0.0127,-0.569383 0.0236,-0.07197 0.0526,-0.17921 0.0526,-0.17921 0.0265,-0.08149 -0.0127,-0.122767 -0.0511,-0.02328 m 11.6847,0.0081 c -0.0314,0.08643 -0.043,0.142875 -0.0399,0.176038 0.003,0.03281 0.0145,0.138994 0.0145,0.138994 -0.0321,0.02646 -0.16863,0.111125 -0.30586,0.01058 0.01,-0.02893 0.0272,-0.08855 0.0311,-0.121356 0.0148,-0.0508 -0.0162,-0.08855 -0.0413,-0.03598 -0.0247,0.05292 -0.0825,0.228248 -0.12559,0.267759 -0.0434,0.03951 -0.0938,0.184856 -0.4198,0.03704 -0.0568,-0.02188 -0.15699,-0.09631 -0.31256,0.06068 -0.35278,0.327729 -0.5962,0.353483 -0.99166,0.493535 -0.0476,0.02222 -0.14817,0.09772 -0.0289,0.08573 0.11924,-0.01199 0.62054,0 0.89323,-0.312915 0.0568,-0.05539 0.12206,-0.201435 0.33867,-0.116768 0.1203,0.04551 0.34184,0.235656 0.58349,-0.140052 0.14253,0.0949 0.35878,0.0568 0.3937,-0.04798 0.0342,-0.10442 0.0741,-0.208491 0.0737,-0.279752 -2.7e-4,-0.07091 -0.007,-0.164748 -0.007,-0.164748 -0.005,-0.05644 -0.0247,-0.136877 -0.0561,-0.0508 m -15.94238,0.613482 c -0.0702,0.03528 -1.60866,0.637823 -1.68098,0.678039 -0.0723,0.04022 -0.0977,0.05045 -0.11219,0.103363 -0.0148,0.05256 -0.0222,0.08361 -0.0257,0.09243 -0.0148,0.03457 -0.0265,0.07832 0.0801,0.01834 0.0332,-0.01905 1.58538,-0.627592 1.645,-0.661459 0.0596,-0.03422 0.0949,-0.04621 0.12171,-0.100893 0.0268,-0.05362 0.0335,-0.06315 0.0483,-0.101248 0.0159,-0.04022 0.0321,-0.08326 -0.0762,-0.02858"
       style="fill:#231f20;fill-opacity:1;fill-rule:evenodd;stroke:none;stroke-width:0.264583"
       id="path1-9" />
  </g>
</svg>
