<?xml version="1.0" encoding="UTF-8" standalone="no"?>
<!-- Created with Inkscape (http://www.inkscape.org/) -->

<svg
   width="19.126368mm"
   height="6.407815mm"
   viewBox="0 0 19.126368 6.407815"
   version="1.1"
   id="svg1"
   xmlns:inkscape="http://www.inkscape.org/namespaces/inkscape"
   xmlns:sodipodi="http://sodipodi.sourceforge.net/DTD/sodipodi-0.dtd"
   xmlns="http://www.w3.org/2000/svg"
   xmlns:svg="http://www.w3.org/2000/svg">
  <sodipodi:namedview
     id="namedview1"
     pagecolor="#ffffff"
     bordercolor="#666666"
     borderopacity="1.0"
     inkscape:showpageshadow="2"
     inkscape:pageopacity="0.0"
     inkscape:pagecheckerboard="0"
     inkscape:deskcolor="#d1d1d1"
     inkscape:document-units="mm" />
  <defs
     id="defs1" />
  <g
     inkscape:label="Layer 1"
     inkscape:groupmode="layer"
     id="layer1"
     transform="translate(-110.06132,-24.00328)">
    <path
       d="m 118.59179,24.067418 c -0.0427,0.111125 -0.22155,0.494593 -0.19403,0.947208 0.006,0.104421 0.0716,0.307975 0.21908,0.313267 0.0762,0 0.17497,-0.05891 0.24518,-0.315032 0.012,-0.05786 0.0198,-0.104068 0.0247,-0.126648 0.008,-0.03457 -0.0166,-0.07549 -0.0413,0.0035 -0.0557,0.156633 -0.20073,0.266346 -0.30974,0.05609 -0.0177,-0.04163 -0.091,-0.23213 0.0437,-0.648407 0.0272,-0.08043 0.0614,-0.201083 0.0614,-0.201083 0.0303,-0.09066 -0.006,-0.140406 -0.049,-0.02893 m 2.85327,0.336902 c -0.0702,0.10654 -0.12242,0.362656 -0.0222,0.435681 0.0998,0.07338 0.24624,0.132644 0.24624,0.132644 -0.46567,0.570794 -0.78458,0.679802 -1.05692,0.839258 -0.0702,0.04127 -0.0561,0.07796 -0.0152,0.06668 0.0212,-0.0056 0.3877,-0.06244 0.81597,-0.387702 0.23142,-0.175683 0.37148,-0.475898 0.37148,-0.475898 0,0 0.11606,0.09666 0.13194,0.116065 0.0349,0.04374 0.054,0.07585 0.0705,0.02998 0.061,-0.168981 -0.0251,-0.270933 -0.10724,-0.323498 0,0 0.0854,-0.26317 -0.072,-0.52705 -0.0261,-0.0441 -0.18168,-0.18556 -0.36266,0.09384 m 0.24342,0.07232 c 0.10478,0.09807 0.0893,0.258233 0.085,0.294923 0,0 -0.13405,-0.06279 -0.19403,-0.08855 -0.06,-0.02574 -0.0917,-0.0635 -0.0639,-0.1016 0.0924,-0.130175 0.13794,-0.125236 0.17286,-0.104775 m -9.87425,-0.13335 c -0.1584,0.233187 -0.14887,0.524581 -0.14922,0.849841 -0.0293,-0.06597 -0.19826,-0.49036 -0.6597,-0.708025 -0.0335,-0.01553 -0.0967,0.02328 -0.0956,0.12559 7.9e-4,0.06033 -0.006,0.206023 0.0388,0.243769 0.0448,0.0381 0.17427,0.110066 0.19579,0.119591 0.0215,0.01024 0.0441,0.01024 0.0487,-0.01516 0.004,-0.02506 0.0286,-0.08467 0.0716,-0.04622 0.0363,0.0321 0.26776,0.197204 0.40817,0.572558 0.0233,0.04939 0.0705,0.05116 0.0765,-0.02188 0.0138,-0.178858 0.006,-0.487892 0.0138,-0.582083 0.0106,-0.132646 0.0543,-0.407813 0.23036,-0.278696 0.0399,0.02928 0.0829,0.06844 0.0829,0.06844 0.0384,0.04163 0.0864,0.08961 0.10407,0.03669 0.0275,-0.07973 0.0448,-0.209904 0.004,-0.276931 -0.018,-0.02963 -0.24201,-0.275873 -0.37007,-0.08749 m 16.15299,0.156633 c -0.0702,0.10654 -0.12206,0.362657 -0.0222,0.435682 0.10019,0.07338 0.24624,0.132643 0.24624,0.132643 -0.46567,0.570796 -1.38007,0.976842 -1.59809,1.14653 -0.0649,0.04939 -0.0561,0.07796 -0.0152,0.06703 0.0363,-0.0099 0.73343,-0.204611 1.37054,-0.750359 0.2921,-0.250118 0.28399,-0.269168 0.35807,-0.420864 0.0635,0.03246 0.10725,0.08537 0.13159,0.116064 0.0353,0.04374 0.0547,0.0762 0.0713,0.02999 0.0607,-0.168979 -0.0257,-0.270579 -0.1076,-0.323144 0,0 0.0854,-0.263525 -0.0716,-0.527402 -0.0261,-0.0441 -0.18203,-0.185563 -0.36301,0.09384 m 0.24377,0.07267 c 0.10477,0.09772 0.0889,0.257882 0.0847,0.294569 0,0 -0.13406,-0.06279 -0.19403,-0.08819 -0.06,-0.02611 -0.0914,-0.06385 -0.0635,-0.101952 0.0921,-0.130175 0.13758,-0.125589 0.17286,-0.104423 m -1.78858,-0.165806 c -0.1831,0.233188 -0.19474,0.539046 -0.21943,0.880181 -0.0257,-0.07161 -0.1718,-0.529166 -0.63923,-0.791281 -0.0342,-0.01871 -0.10301,0.01765 -0.10972,0.124883 -0.004,0.06315 -0.0215,0.215548 0.0226,0.258588 0.0445,0.04339 0.17498,0.128058 0.19685,0.140052 0.0219,0.01199 0.0451,0.01376 0.0519,-0.01236 0.007,-0.02646 0.0367,-0.08678 0.079,-0.04339 0.0356,0.03598 0.266,0.226484 0.38523,0.630415 0.0208,0.05362 0.0706,0.05891 0.0822,-0.01728 0.0275,-0.186621 0.0423,-0.51153 0.0571,-0.6096 0.0212,-0.13829 0.0871,-0.423334 0.26212,-0.275167 0.0395,0.03351 0.0822,0.07796 0.0822,0.07796 0.037,0.04692 0.0836,0.10019 0.10654,0.04622 0.0342,-0.08149 0.0621,-0.216958 0.0243,-0.289983 -0.0169,-0.03246 -0.23389,-0.307269 -0.3817,-0.11924 m -1.80023,-0.01058 c -0.0677,0.03951 -1.78788,1.032229 -1.85737,1.077031 -0.0699,0.0448 -0.0945,0.05644 -0.10548,0.110067 -0.0113,0.05362 -0.0169,0.08502 -0.0201,0.09384 -0.0127,0.03563 -0.0215,0.08008 0.0811,0.01304 0.0321,-0.02082 1.76212,-1.020233 1.82245,-1.058333 0.0582,-0.03634 0.0921,-0.05186 0.11535,-0.107598 0.0233,-0.05574 0.0293,-0.06562 0.042,-0.10442 0.013,-0.04127 0.0261,-0.08502 -0.078,-0.02363 m -9.23678,0.109009 c -0.0293,0.01236 -2.71286,1.077031 -3.2826,1.308454 -0.0547,0.02257 -0.60677,0.246944 -0.79516,0.504825 -0.20249,0.308679 -0.11394,0.491771 -0.0169,0.548921 0.097,0.05715 0.14111,0.132998 0.17604,0.207787 0.23036,-0.388408 -0.0621,-0.341489 -0.19191,-0.532341 -0.0649,-0.0949 0.48683,-0.381707 0.92004,-0.553509 1.25554,-0.508706 3.13478,-1.244954 3.15207,-1.253066 0.019,-0.0092 0.0346,-0.01905 0.0374,-0.03069 0.002,-0.01198 0.0582,-0.177448 0.0663,-0.208492 0.008,-0.03034 -0.0307,-0.0067 -0.0653,0.0081 m 2.11314,0.54328 c -0.10054,0.0381 -3.64208,1.474258 -3.74544,1.515885 -0.10301,0.04127 -0.13406,0.06068 -0.15699,0.130175 -0.0233,0.06985 -0.0346,0.106892 -0.0409,0.121002 -0.0194,0.04727 -0.0448,0.0949 0.10584,0.03034 0.0469,-0.02011 3.6142,-1.454502 3.6964,-1.496132 0.0819,-0.04127 0.12982,-0.05468 0.16933,-0.125587 0.0399,-0.0702 0.049,-0.08255 0.0713,-0.132292 0.024,-0.05256 0.0519,-0.100896 -0.0995,-0.04339 m 2.70969,0.321379 c -0.0759,0.04233 -1.75295,0.775054 -1.83127,0.823031 -0.0783,0.04763 -0.10583,0.05997 -0.11959,0.118885 -0.0141,0.05962 -0.0212,0.09384 -0.0247,0.103365 -0.0148,0.03951 -0.0261,0.08819 0.0896,0.01659 0.036,-0.02188 1.7272,-0.762 1.79176,-0.802923 0.0645,-0.03986 0.10336,-0.05468 0.13088,-0.11571 0.0272,-0.06103 0.0339,-0.07197 0.0487,-0.114655 0.0159,-0.0448 0.0321,-0.09349 -0.0854,-0.02858 m 4.74415,0.381 c -0.0346,0.08432 -0.1785,0.375005 -0.15663,0.71755 0.005,0.07902 0.0575,0.233188 0.17674,0.237422 0.0617,-2.65e-4 0.14146,-0.04516 0.19791,-0.238832 0.01,-0.04374 0.0159,-0.07867 0.0198,-0.09596 0.006,-0.02612 -0.013,-0.05715 -0.0328,0.0024 -0.0455,0.118885 -0.16263,0.201787 -0.25011,0.04304 -0.0141,-0.03175 -0.0734,-0.176035 0.0349,-0.491067 0.0222,-0.06138 0.0497,-0.152045 0.0497,-0.152045 0.0243,-0.06915 -0.005,-0.106892 -0.0395,-0.02257 m 3.30765,0.173215 c -0.0321,0.07832 -0.16546,0.347133 -0.14535,0.664281 0.005,0.07338 0.0536,0.2159 0.16369,0.219779 0.0568,-2.65e-4 0.13088,-0.04163 0.18344,-0.221192 0.008,-0.04022 0.0145,-0.07267 0.0183,-0.08854 0.006,-0.02434 -0.0124,-0.05327 -0.031,0.0024 -0.0413,0.109715 -0.14993,0.186267 -0.23142,0.03916 -0.013,-0.02893 -0.0681,-0.162632 0.0328,-0.454025 0.0201,-0.0568 0.0459,-0.141465 0.0459,-0.141465 0.0229,-0.0635 -0.005,-0.09842 -0.0363,-0.02045 m -6.20677,0.0085 -0.16827,0.230717 -0.32279,-0.235302 c -0.008,-0.006 -0.0198,-0.0039 -0.0261,0.0046 l -0.19508,0.267407 c -0.006,0.0085 -0.005,0.02011 0.004,0.02611 l 0.33268,0.242713 c 0.008,0.006 0.0198,0.0035 0.0261,-0.0049 l 0.16828,-0.230365 0.32279,0.235305 c 0.008,0.006 0.0198,0.0035 0.0257,-0.0049 l 0.19509,-0.267406 c 0.006,-0.0085 0.005,-0.02011 -0.004,-0.02574 l -0.33267,-0.24271 c -0.008,-0.006 -0.0194,-0.0039 -0.0258,0.0046 m 1.30352,0.415573 c -0.0131,0.04551 -0.0459,0.240242 -0.0536,0.280458 -0.008,0.03986 -0.007,0.07973 0.0124,0.113946 0.0201,0.03422 0.0705,0.152754 0.10724,0.249063 0.0363,0.09595 0.41416,0.824087 0.44909,0.888645 0.0349,0.06421 0.042,0.112538 0.007,0.154871 -1.21285,1.279877 -3.55318,2.066925 -3.62797,2.109962 -0.0748,0.04375 -0.055,0.07726 0.0709,0.05503 0.18838,-0.03245 1.23966,-0.208137 1.53917,-0.352777 0.19791,-0.09525 0.88794,-0.433917 1.45238,-0.876652 -0.0155,0.1143 -0.03,0.28222 -0.0222,0.4953 0.0381,1.029052 0.95814,0.858308 1.1998,0.805392 0.7239,-0.15875 1.60866,-1.15923 1.68381,-1.359959 0.0744,-0.198614 0.085,-0.379941 0.0684,-0.537988 0.1905,-0.102658 0.60008,-0.43321 0.60008,-0.43321 0.0166,0.438857 0.36583,0.570794 0.47343,0.589844 0.50306,0.07655 0.756,-0.34431 0.86324,-0.480835 0.0914,0.240241 0.31221,0.28716 0.42545,0.309739 0.43427,0.08643 0.51894,-0.220839 0.54152,-0.291041 0.13617,-0.423334 -0.10901,-0.739072 -0.14076,-0.774348 -0.0314,-0.03493 -0.0476,-0.0013 -0.0586,0.03916 -0.0113,0.04092 -0.0466,0.193323 -0.0684,0.288925 0,0 0.091,0.147815 0.12312,0.223308 0.0324,0.07514 -0.0155,0.116769 -0.10901,0.127707 -0.26458,0.03281 -0.47519,-0.118888 -0.54786,-0.188738 -0.0727,-0.06985 0.006,-0.193321 0.0646,-0.341135 0.0469,-0.117827 -0.0399,-0.132292 -0.1069,-2.65e-4 -0.22366,0.588785 -0.53869,0.652637 -0.62159,0.675217 -0.74613,0.2032 -0.68157,-0.478722 -0.67875,-0.59055 0.002,-0.111832 -0.0794,-0.07056 -0.17109,0.0032 -0.31397,0.251883 -0.56692,0.400402 -0.70274,0.460727 -0.11747,-0.228952 -0.28751,-0.372534 -0.35948,-0.424392 -0.80715,-0.588785 -0.87383,0.599017 -0.84913,0.726368 0.12276,0.505532 0.94756,0.198967 1.07703,0.183799 0.12911,-0.01516 0.0871,0.155575 0.0145,0.256823 -0.17921,0.25047 -0.38559,0.430035 -0.57291,0.582787 -0.79975,0.652639 -1.20086,0.600781 -1.32433,0.596548 -0.78563,-0.02188 -0.71332,-0.86854 -0.66957,-1.04916 0.23601,-0.20038 0.43921,-0.41769 0.55704,-0.641705 0.048,-0.122767 0.13087,-0.401812 -0.0187,-0.751417 -0.0787,-0.154162 -0.32632,-0.586668 -0.32632,-0.586668 0,0 0.18239,0.006 0.20003,0.0056 0.0169,-2.64e-4 0.0515,-0.01834 0.007,-0.06949 -0.0444,-0.05115 -0.42756,-0.433213 -0.45085,-0.464256 -0.0233,-0.03069 -0.0441,-0.05257 -0.0571,-0.0078 m 2.42182,1.7526 c 0,0 -0.11006,0.06315 -0.41733,0.04269 -0.25788,-0.01728 -0.23531,-0.117475 -0.20038,-0.155927 0.0385,-0.04163 0.35384,-0.240242 0.61771,0.113241 m -15.16521,-1.575858 c -0.0455,0.155927 -0.24271,0.695325 -0.17321,1.313744 0.012,0.104068 0.0677,0.277989 0.16969,0.36336 -0.004,0.0046 -0.009,0.0095 -0.0134,0.01516 -0.11289,0.137584 -0.47201,0.662162 -0.5267,1.176867 -0.025,0.192969 -0.0236,0.916517 0.56057,0.938387 0.11359,0.0046 0.52317,0 1.06715,-0.684742 0.0692,-0.08573 0.72884,-0.770466 1.07562,-0.930275 0.508,-0.233185 0.73872,-0.182385 0.73872,-0.182385 -0.004,0.03069 -0.11007,0.5715 0.46849,0.771877 0.0702,0.02151 0.19579,0.07902 0.22401,-0.0769 0.0286,-0.156281 0.0265,-0.383116 0.0243,-0.470606 0.0413,0.0074 0.8315,0.184856 1.69898,-0.02893 -0.003,0.0049 -0.006,0.01024 -0.009,0.01588 -0.0896,0.170744 -0.57256,1.130652 0.0307,1.562452 0.0991,0.07126 0.6163,0.330552 1.26012,-0.408869 0.0928,-0.103364 0.7366,-0.912989 1.59067,-1.170516 0.13794,-0.04974 0.50518,-0.172863 0.79587,-0.269172 0.0409,0.05468 0.0748,0.10019 0.0864,0.121005 0.0279,0.05009 0.0473,0.04445 0.0557,0.0053 0.004,-0.01939 0.0169,-0.08467 0.0106,-0.176742 0.0847,-0.02787 0.15416,-0.05045 0.19685,-0.06386 0.19332,-0.06173 0.49282,-0.190851 0.49282,-0.190851 0,0 0.13441,-0.358069 0.1009,-0.391936 -0.0335,-0.03351 -0.4131,-0.390879 -0.47202,-0.441325 -0.0589,-0.05045 -0.34078,-0.257881 -0.5334,-0.160514 -0.16898,0.08502 -0.3556,0.391583 -0.30797,0.599368 0.0395,0.171805 0.0981,0.287515 0.15875,0.39088 -0.0579,0.01765 -0.10795,0.03316 -0.14464,0.04586 -0.1905,0.06421 -0.71402,0.202848 -1.02235,0.381 -0.16545,0.09525 -0.63853,0.41134 -0.96308,0.828675 -0.1009,0.12065 -0.63571,0.700265 -1.04775,0.686152 -0.10337,-0.0056 -0.54328,0.04763 -0.38312,-0.772935 0.0222,-0.10654 0.15628,-0.439561 0.21519,-0.55739 0.0127,-0.0254 0.0183,-0.04833 0.0187,-0.06738 0.10372,-0.03034 0.20814,-0.06597 0.31186,-0.109008 0.10936,-0.04198 0.72531,-0.240597 0.83185,-0.778582 0.0194,-0.106185 0.0617,-0.436739 -0.3108,-0.868185 -0.0536,-0.05856 -0.0536,-0.03634 -0.0702,0.0088 -0.0169,0.04445 -0.0752,0.305506 -0.0752,0.305506 0.0621,0.06526 0.20955,0.301977 0.25436,0.402871 0.0448,0.100541 0.0614,0.204258 -0.0981,0.293864 -0.15945,0.08961 -0.87947,0.5207 -1.99672,0.478719 -0.12876,-0.0081 -0.98848,-0.08114 -1.25165,-0.490008 -0.0307,-0.03069 -0.0448,-0.03351 -0.0561,0.0028 -0.0113,0.03634 -0.0504,0.159808 -0.0504,0.159808 -0.16792,-0.0056 -0.8121,-0.02822 -1.64924,0.842785 -0.0952,0.09525 -0.70203,0.826558 -1.04211,0.964142 -0.17956,0.06703 -0.66569,0.221191 -0.67415,-0.396521 0,-0.104423 0.036,-0.706966 0.51153,-1.253773 0.003,-0.0032 0.006,-0.0067 0.009,-0.01024 0.0134,0.0028 0.0272,0.0049 0.042,0.0046 0.097,-0.0056 0.21766,-0.09384 0.28681,-0.449791 0.0106,-0.08043 0.0169,-0.144288 0.0215,-0.176038 0.007,-0.04763 -0.0265,-0.102659 -0.0519,0.0081 -0.0589,0.219075 -0.23495,0.37959 -0.38912,0.09948 -0.0254,-0.05644 -0.1337,-0.312209 0.005,-0.892882 0.0282,-0.112535 0.0624,-0.280458 0.0624,-0.280458 0.0314,-0.127 -0.0187,-0.192262 -0.0646,-0.03669 m 9.29288,1.173691 c 0.14076,0.114652 0.24941,0.187677 0.22119,0.201788 -0.0864,0.04727 -0.28505,0.111479 -0.47872,0.17145 l -0.003,-0.006 c -0.0928,-0.148522 -0.18486,-0.294217 -0.21026,-0.341842 -0.0251,-0.04763 0,-0.137232 0.11501,-0.142523 0.11465,-0.006 0.23812,0.02223 0.3556,0.117123 m -5.89069,1.134885 c 0.019,0.03598 0.006,0.0575 -0.0363,0.04233 -0.34784,-0.129823 -0.29669,-0.3048 -0.29669,-0.3048 0.0427,0.0127 0.2219,0.09172 0.33302,0.262467 m 1.71556,-2.250368 c -0.0448,0.116416 -0.23142,0.517876 -0.2032,0.9906 0.007,0.10936 0.0748,0.322437 0.22931,0.327728 0.0801,-2.64e-4 0.18309,-0.06173 0.25647,-0.329141 0.0127,-0.06032 0.0208,-0.109009 0.0257,-0.132644 0.008,-0.03634 -0.0169,-0.07902 -0.043,0.0035 -0.0582,0.164042 -0.21025,0.278342 -0.32385,0.05891 -0.0183,-0.04374 -0.0952,-0.24271 0.0459,-0.677685 0.0282,-0.08467 0.0639,-0.210609 0.0639,-0.210609 0.0318,-0.0949 -0.006,-0.146756 -0.0512,-0.03069 m 6.731,0.09313 c -0.0533,0.06632 -0.58949,0.770112 -0.58949,0.770112 l -0.39017,-0.277987 c 0,0 0.1591,-0.04022 0.18697,-0.04833 0.0275,-0.0081 0.0434,-0.0441 -0.007,-0.0695 -0.0497,-0.02574 -0.52,-0.213076 -0.55563,-0.227541 -0.036,-0.01447 -0.049,-0.03104 -0.0522,0.0074 -0.003,0.0381 -0.008,0.347488 -0.008,0.347488 0,0 -0.007,0.02188 0.0339,0.0448 0.0413,0.02328 0.0811,0.07338 0.115,0.106892 0.0335,0.03351 0.47096,0.378531 0.49213,0.390876 0,0 -0.21872,0.38453 -0.24659,0.685097 -0.0275,0.30127 0.006,0.716491 0.41663,0.582787 0.11077,-0.03175 0.5715,-0.215194 0.67451,-0.536221 0.0335,-0.118181 0.12841,-0.332316 -0.0261,-0.548923 -0.0889,-0.127706 -0.44873,-0.342548 -0.44873,-0.342548 0,0 0.27623,-0.382058 0.30233,-0.428625 0.0265,-0.04657 0.12806,-0.3429 0.139,-0.414512 0.0116,-0.07162 0.0169,-0.107598 -0.0363,-0.04127 m -0.0942,1.622777 c -0.15311,0.125941 -0.47414,0.2921 -0.56409,0.300918 -0.0903,0.0085 -0.32985,-0.03563 -0.22578,-0.28081 0.0356,-0.07938 0.27517,-0.48895 0.27517,-0.48895 0.0892,0.04903 0.66745,0.343252 0.5147,0.468842 m -9.98538,-1.55716 c -0.0335,0.09913 -0.17638,0.443793 -0.12911,0.837845 0.0109,0.09102 0.0797,0.265996 0.21413,0.262821 0.0695,-0.0042 0.15628,-0.06103 0.20708,-0.287866 0.008,-0.05151 0.0127,-0.09208 0.0162,-0.112184 0.005,-0.03069 -0.0187,-0.06526 -0.037,0.0053 -0.043,0.1397 -0.16968,0.243062 -0.27869,0.06491 -0.018,-0.03563 -0.0942,-0.19826 0.008,-0.569031 0.0204,-0.07197 0.0459,-0.178859 0.0459,-0.178859 0.0229,-0.08079 -0.0127,-0.122766 -0.0462,-0.02294 m 5.40667,0.384527 c -0.0998,0.109008 -0.13053,0.183443 -0.16051,0.230365 -0.0409,0.0642 0.0109,0.09278 0.0571,0.04268 0.0466,-0.04974 0.0787,-0.09983 0.21413,-0.09631 0.13582,0.0035 0.46073,-0.0088 0.33938,0.08043 -0.12136,0.08925 -0.20356,0.14111 -0.20356,0.14111 -0.079,0.05645 -0.14817,0.161925 -0.009,0.103365 0.13935,-0.05891 0.3235,-0.151694 0.46425,-0.363715 0.0409,-0.06244 0.0893,-0.144992 -0.1016,-0.173212 -0.19085,-0.02893 -0.49988,-0.07373 -0.60007,0.03528 m 1.76389,1.735667 c -0.0565,0.09066 -0.28328,0.398991 -0.30974,0.794808 -0.006,0.09137 0.0356,0.277283 0.18486,0.302331 0.0776,0.01058 0.18485,-0.02681 0.2861,-0.238831 0.0194,-0.04868 0.0328,-0.08784 0.0406,-0.106892 0.0116,-0.02893 -0.008,-0.06773 -0.0423,-0.0024 -0.0755,0.128058 -0.23565,0.2032 -0.32102,0.0056 -0.0127,-0.03845 -0.0646,-0.213784 0.12135,-0.556332 0.0374,-0.06632 0.0864,-0.165804 0.0864,-0.165804 0.0413,-0.07479 0.0106,-0.122766 -0.0462,-0.03246 m 9.04557,-0.0011 c -0.031,0.08643 -0.0434,0.142875 -0.0406,0.176035 0.004,0.03246 0.0148,0.138996 0.0148,0.138996 -0.0321,0.02611 -0.16863,0.111125 -0.30515,0.01058 0.009,-0.02928 0.0268,-0.0889 0.0307,-0.121356 0.0148,-0.05045 -0.0162,-0.08855 -0.0413,-0.03598 -0.025,0.05256 -0.0829,0.228248 -0.12594,0.267758 -0.043,0.03951 -0.0935,0.184502 -0.41945,0.03704 -0.0571,-0.02188 -0.15699,-0.09631 -0.31291,0.06068 -0.35243,0.327732 -0.59585,0.353484 -0.99131,0.49389 -0.0476,0.02188 -0.14817,0.09701 -0.0289,0.08537 0.11924,-0.01198 0.62019,2.65e-4 0.89288,-0.312914 0.0571,-0.05539 0.12242,-0.201436 0.33902,-0.116769 0.11995,0.04551 0.34149,0.235654 0.5835,-0.140406 0.14217,0.0949 0.35877,0.05715 0.39334,-0.04763 0.0346,-0.104424 0.0741,-0.208492 0.0737,-0.2794 -2.7e-4,-0.07126 -0.006,-0.1651 -0.006,-0.1651 -0.005,-0.05644 -0.0251,-0.136877 -0.0561,-0.0508 m -15.8623,0.234243 c -0.0339,0.0822 -0.17462,0.366183 -0.1531,0.700971 0.005,0.07726 0.0561,0.227894 0.17251,0.232127 0.0603,-2.64e-4 0.13829,-0.0441 0.19332,-0.23354 0.01,-0.04268 0.0155,-0.0769 0.0194,-0.09349 0.006,-0.02574 -0.0127,-0.05609 -0.0324,0.0024 -0.0438,0.116064 -0.1584,0.19685 -0.24412,0.04163 -0.0138,-0.03105 -0.0716,-0.171804 0.0346,-0.479779 0.0212,-0.05962 0.0483,-0.148519 0.0483,-0.148519 0.0236,-0.06738 -0.005,-0.104069 -0.0384,-0.02188 m 2.34667,0.416279 -0.16862,0.230717 -0.3228,-0.235656 c -0.008,-0.006 -0.0194,-0.0035 -0.0257,0.0049 l -0.19509,0.267404 c -0.006,0.0085 -0.005,0.02011 0.004,0.02612 l 0.33267,0.24271 c 0.008,0.0056 0.0198,0.0039 0.0257,-0.0049 l 0.16828,-0.230717 0.32314,0.235654 c 0.008,0.0056 0.0198,0.0039 0.0261,-0.0049 l 0.19473,-0.267406 c 0.006,-0.0085 0.005,-0.02011 -0.003,-0.02574 l -0.33302,-0.243065 c -0.008,-0.006 -0.0194,-0.0035 -0.0258,0.0049"
       style="fill:#231f20;fill-opacity:1;fill-rule:evenodd;stroke:none;stroke-width:0.264583"
       id="path1-5" />
  </g>
</svg>
