<?xml version="1.0" encoding="UTF-8" standalone="no"?>
<!-- Created with Inkscape (http://www.inkscape.org/) -->

<svg
   version="1.1"
   id="svg1"
   width="56.850494"
   height="18.679871"
   viewBox="0 0 56.850494 18.679871"
   sodipodi:docname="002 - Bakarah.svg"
   inkscape:version="1.3.2 (091e20e, 2023-11-25, custom)"
   xmlns:inkscape="http://www.inkscape.org/namespaces/inkscape"
   xmlns:sodipodi="http://sodipodi.sourceforge.net/DTD/sodipodi-0.dtd"
   xmlns="http://www.w3.org/2000/svg"
   xmlns:svg="http://www.w3.org/2000/svg">
  <defs
     id="defs1">
    <clipPath
       clipPathUnits="userSpaceOnUse"
       id="clipPath1">
      <path
         d="M 85.1101,423.161 H 297.567 V 123.925 H 85.1101 Z"
         transform="translate(-85.109905,-423.16111)"
         id="path1" />
    </clipPath>
    <clipPath
       clipPathUnits="userSpaceOnUse"
       id="clipPath3">
      <path
         d="M 0,547.086 H 382.677 V 0 H 0 Z"
         transform="matrix(1.3333333,0,0,-1.3333333,0,729.448)"
         id="path3" />
    </clipPath>
    <clipPath
       clipPathUnits="userSpaceOnUse"
       id="clipPath29">
      <path
         d="m 169.441,407.076 h 42.638 v -14.01 h -42.638 z"
         transform="translate(-191.3032,-407.02641)"
         id="path29" />
    </clipPath>
    <clipPath
       clipPathUnits="userSpaceOnUse"
       id="clipPath31">
      <path
         d="M 0,547.086 H 382.677 V 0 H 0 Z"
         transform="matrix(1.3333333,0,0,-1.3333333,0,729.448)"
         id="path31" />
    </clipPath>
  </defs>
  <sodipodi:namedview
     id="namedview1"
     pagecolor="#ffffff"
     bordercolor="#666666"
     borderopacity="1.0"
     inkscape:showpageshadow="2"
     inkscape:pageopacity="0.0"
     inkscape:pagecheckerboard="0"
     inkscape:deskcolor="#d1d1d1"
     inkscape:zoom="4.216484"
     inkscape:cx="-76.841274"
     inkscape:cy="40.673699"
     inkscape:window-width="1920"
     inkscape:window-height="1017"
     inkscape:window-x="-8"
     inkscape:window-y="-8"
     inkscape:window-maximized="1"
     inkscape:current-layer="layer-MC2" />
  <g
     id="layer-MC2"
     inkscape:groupmode="layer"
     inkscape:label="Quran Text"
     transform="translate(-225.92133,-186.68001)">
    <path
       d="m 0,0 c -0.032,-0.098 -0.295,-0.752 -0.295,-0.752 0,-0.034 0.066,-0.328 0.098,-0.426 0.132,-0.949 0.918,-6.613 1.147,-8.381 0.098,-0.883 0.197,-1.669 0.197,-2.094 0,-0.131 0.032,-0.197 0.098,-0.066 0.032,0.066 0.164,0.36 0.196,1.08 0.032,0.557 0,1.409 -0.164,2.554 -0.032,0.164 -0.852,6.056 -0.852,6.056 0,0 0.427,-0.426 0.525,-0.491 0.065,-0.066 0.164,-0.033 0.131,0.098 -0.033,0.13 -0.95,2.291 -0.982,2.39 C 0.065,0.033 0.032,0.098 0,0 m -13.676,-0.086 c -0.353,-0.471 -0.382,-1.06 -0.441,-1.738 -0.059,0.147 -0.354,1.031 -1.267,1.561 -0.059,0.03 -0.207,-0.029 -0.207,-0.236 0,-0.118 -0.028,-0.412 0.06,-0.501 l -0.03,-0.029 c 0.088,-0.088 0.354,-0.265 0.382,-0.265 0.031,-0.029 0.089,-0.029 0.118,0.029 0,0.059 0.06,0.177 0.149,0.089 0.058,-0.059 0.529,-0.442 0.766,-1.238 0.029,-0.117 0.147,-0.117 0.147,0.03 0.059,0.383 0.088,1.002 0.117,1.208 0.029,0.265 0.177,0.825 0.53,0.53 0.088,-0.059 0.177,-0.147 0.177,-0.147 0.06,-0.088 0.177,-0.207 0.206,-0.088 0.06,0.147 0.118,0.441 0.06,0.559 -0.029,0.059 -0.472,0.619 -0.767,0.236 m 7.485,0.051 c -0.205,-0.117 -8.043,-3.888 -8.249,-4.036 h -0.03 c -0.206,-0.118 -0.295,-0.147 -0.324,-0.324 -0.029,-0.147 -0.059,-0.265 -0.059,-0.294 -0.029,-0.118 -0.088,-0.236 0.236,-0.06 0.089,0.06 7.984,3.86 8.161,3.978 0.177,0.118 0.295,0.147 0.353,0.324 0.088,0.176 0.088,0.206 0.148,0.323 0.059,0.118 0.088,0.266 -0.236,0.089 m 24.709,-0.288 h 0.032 c -0.164,-0.229 -0.261,-0.819 -0.065,-0.983 0.229,-0.163 0.557,-0.294 0.557,-0.294 -1.047,-1.277 -3.078,-2.193 -3.569,-2.553 -0.131,-0.098 -0.131,-0.164 -0.033,-0.164 0.066,0.032 1.638,0.458 3.045,1.669 0.654,0.557 0.622,0.589 0.786,0.95 0.131,-0.066 0.229,-0.197 0.294,-0.262 0.065,-0.099 0.131,-0.164 0.164,-0.065 0.131,0.392 -0.065,0.589 -0.229,0.719 0,0 0.196,0.59 -0.165,1.179 -0.064,0.098 -0.391,0.426 -0.817,-0.196 m 0.589,-0.164 c 0.228,-0.229 0.196,-0.59 0.196,-0.655 0,0 -0.295,0.131 -0.426,0.196 h -0.032 c -0.131,0.066 -0.196,0.132 -0.131,0.23 0.197,0.294 0.294,0.294 0.393,0.229 M 3.501,-0.323 C 3.337,-0.552 3.24,-1.142 3.435,-1.306 3.665,-1.469 3.993,-1.6 3.993,-1.6 2.945,-2.877 2.257,-3.106 1.635,-3.466 v 0.033 C 1.472,-3.531 1.504,-3.597 1.602,-3.597 c 0.033,0 0.852,0.131 1.833,0.851 0.524,0.393 0.818,1.048 0.818,1.048 0,0 0.263,-0.23 0.295,-0.262 0.066,-0.098 0.131,-0.164 0.164,-0.065 0.131,0.392 -0.065,0.589 -0.229,0.719 0,0 0.196,0.59 -0.163,1.179 -0.067,0.098 -0.394,0.426 -0.819,-0.196 m 0.556,-0.131 c 0.23,-0.23 0.196,-0.589 0.196,-0.655 H 4.221 c 0,0 -0.295,0.131 -0.426,0.197 -0.13,0.065 -0.195,0.13 -0.13,0.228 0.196,0.295 0.294,0.295 0.392,0.23 m -6.648,0.453 c -0.033,-0.099 -0.295,-0.786 -0.295,-0.786 0.033,-0.229 1.15,-8.276 1.183,-8.898 0,-0.131 0.065,-0.36 -0.098,-0.524 -0.165,-0.163 -0.818,-0.72 -1.964,-0.13 -0.131,0.065 -0.556,0.49 -0.492,0.753 0.066,0.327 0.033,0.621 -0.163,0.393 -0.196,-0.23 -0.982,-1.506 -2.554,-1.572 -0.261,0 -1.08,-0.033 -1.799,0.884 0,0 0.687,0.458 0.818,0.883 0.131,0.426 0.393,1.507 -0.59,2.358 -0.196,0.131 -0.589,0.392 -1.08,-0.327 -0.458,-0.72 -0.393,-1.932 -0.131,-2.325 0,0 -1.179,-0.425 -2.291,-0.72 -0.328,-0.098 -1.702,-0.524 -3.339,-2.03 -0.262,-0.262 -1.572,-1.539 -2.488,-0.982 -0.164,0.099 -0.851,0.589 0.131,2.75 0.032,0.033 0.032,0.098 0.032,0.131 0.197,0.131 0.426,0.294 0.655,0.557 0.098,0.097 0.295,0.458 0.098,1.44 -0.064,0.294 -0.294,0.655 -0.982,1.179 0,0 0.655,0.916 0.688,1.014 0.032,0.098 0.23,0.687 0.262,0.819 0.032,0.163 0,0.228 -0.099,0.097 -0.098,-0.13 -1.211,-1.669 -1.211,-1.669 -0.131,0.066 -0.556,0.426 -0.621,0.491 -0.099,0.098 -0.033,0.131 -0.033,0.131 0,0 0.229,0.066 0.262,0.066 0.065,0 0.065,0.098 -0.033,0.13 -0.098,0.033 -0.884,0.459 -0.949,0.524 -0.066,0.033 -0.132,0.098 -0.163,-0.032 -0.034,-0.131 -0.066,-0.786 -0.066,-0.884 0,-0.098 0,-0.164 0.097,-0.197 0.099,-0.032 1.016,-0.883 1.016,-0.883 -0.131,-0.197 -0.722,-1.147 -0.786,-2.129 0,-0.228 -0.098,-1.145 0.786,-1.014 0.13,0.033 0.359,0.033 0.654,0.164 -0.261,-0.557 -1.113,-2.685 0.491,-3.536 0.294,-0.131 1.081,-0.294 2.488,1.047 0.261,0.23 1.474,1.245 2.455,1.572 0.655,0.229 3.077,0.949 3.24,1.015 0,0 0.491,-1.146 1.474,-1.408 0.294,-0.065 2.03,-0.36 3.142,1.179 0.164,-0.262 0.557,-1.113 1.899,-1.113 0.328,0.033 1.196,0.02 1.604,1.505 0.152,0.552 0.131,0.931 -0.057,2.236 l -0.7,5.484 c 0,0 0.491,-0.492 0.589,-0.557 0.066,-0.098 0.197,-0.033 0.131,0.098 -0.032,0.131 -1.08,2.652 -1.113,2.75 -0.032,0.098 -0.065,0.164 -0.098,0.066 m -14.726,-8.636 c 0.097,-0.132 -0.099,-0.361 -0.099,-0.361 -0.164,-0.163 -0.818,-0.491 -1.178,-0.588 -0.36,-0.099 -0.655,0.196 -0.589,0.588 0.065,0.295 0.687,1.179 0.786,1.343 0,0 0.752,-0.524 1.08,-0.982 m 8.936,0.392 c 0.36,-0.425 -0.655,-0.851 -0.818,-0.916 0,0 -0.263,0.36 -0.361,0.688 -0.097,0.327 0.098,0.589 0.295,0.786 0.229,0.196 0.72,-0.361 0.884,-0.558 m -10.41,8.185 c -0.079,-0.186 -0.345,-0.849 -0.266,-1.618 0.027,-0.186 0.16,-0.504 0.424,-0.504 0.133,0 0.319,0.107 0.425,0.557 0.026,0.106 0.026,0.186 0.026,0.212 0,0.054 -0.026,0.133 -0.08,0 -0.079,-0.265 -0.343,-0.477 -0.555,-0.132 -0.028,0.079 -0.187,0.371 0.026,1.087 0.053,0.132 0.079,0.345 0.079,0.345 0.053,0.159 -0.026,0.238 -0.079,0.053 M 14.63,-0.229 c -0.392,-0.524 -0.424,-1.212 -0.49,-1.965 -0.065,0.164 -0.392,1.179 -1.44,1.768 -0.066,0.032 -0.23,-0.033 -0.23,-0.295 0,-0.131 -0.032,-0.491 0.066,-0.589 h -0.033 c 0.099,-0.098 0.393,-0.294 0.425,-0.327 0.067,-0.033 0.099,-0.033 0.131,0.033 0,0.065 0.066,0.196 0.164,0.098 0.066,-0.066 0.589,-0.492 0.852,-1.408 0.032,-0.13 0.163,-0.13 0.196,0.033 0.065,0.425 0.099,1.146 0.131,1.375 0.032,0.294 0.196,0.949 0.589,0.622 0.098,-0.066 0.197,-0.164 0.197,-0.164 0.098,-0.098 0.195,-0.229 0.229,-0.098 0.065,0.196 0.13,0.491 0.065,0.655 -0.033,0.065 -0.524,0.687 -0.852,0.262 M 10.476,-0.274 C 10.312,-0.373 6.482,-2.565 6.319,-2.664 6.155,-2.762 6.123,-2.794 6.089,-2.926 6.056,-3.057 6.056,-3.122 6.056,-3.122 H 6.024 C 5.991,-3.188 5.991,-3.286 6.22,-3.155 c 0.066,0.033 3.928,2.292 4.059,2.357 0.132,0.066 0.197,0.131 0.263,0.229 0.065,0.131 0.065,0.131 0.097,0.229 0.033,0.099 0.067,0.197 -0.163,0.066 M -5.565,-2.017 c -0.099,-0.23 -0.426,-1.047 -0.329,-1.997 0.034,-0.229 0.198,-0.622 0.525,-0.622 0.164,0 0.392,0.132 0.523,0.687 0.034,0.132 0.034,0.23 0.034,0.262 0,0.066 -0.034,0.165 -0.099,0 -0.098,-0.327 -0.425,-0.589 -0.688,-0.163 -0.033,0.098 -0.229,0.458 0.034,1.342 0.065,0.164 0.097,0.425 0.097,0.425 0.066,0.197 -0.032,0.295 -0.097,0.066 m 16.742,-1.211 c -0.097,-0.229 -0.426,-1.047 -0.327,-1.997 0.032,-0.229 0.196,-0.621 0.524,-0.621 0.164,0 0.393,0.131 0.524,0.687 0.032,0.131 0.032,0.229 0.032,0.262 0,0.065 -0.032,0.164 -0.098,0 -0.098,-0.328 -0.425,-0.589 -0.688,-0.164 -0.032,0.099 -0.228,0.458 0.033,1.342 0.066,0.164 0.099,0.426 0.099,0.426 0.064,0.197 -0.033,0.294 -0.099,0.065 m -29.282,0.266 -0.491,-0.688 -0.851,0.622 h -0.066 l -0.491,-0.687 V -3.78 l 0.852,-0.623 h 0.065 l 0.491,0.688 0.851,-0.622 h 0.065 l 0.492,0.687 v 0.066 l -0.852,0.622 z m 36.827,-0.962 c -0.064,-0.163 -0.36,-0.785 -0.327,-1.473 0,-0.164 0.132,-0.491 0.36,-0.491 0.131,0 0.295,0.098 0.394,0.491 0.032,0.098 0.032,0.164 0.032,0.196 0,0.066 -0.032,0.131 -0.065,0 -0.099,-0.229 -0.327,-0.425 -0.524,-0.098 -0.033,0.066 -0.164,0.36 0.066,1.014 h 0.032 c 0.032,0.132 0.099,0.328 0.099,0.328 0.065,0.131 0,0.23 -0.067,0.033 m -28.674,-0.194 -0.491,-0.687 v -0.066 l 0.851,-0.622 h 0.066 l 0.424,0.589 0.819,-0.621 h 0.065 l 0.492,0.687 v 0.065 l -0.851,0.622 h -0.066 l -0.425,-0.589 -0.819,0.622 z m 14.505,0.065 -0.36,-0.523 -0.72,0.523 H 3.407 L 2.982,-4.642 v -0.066 l 0.753,-0.556 h 0.064 l 0.361,0.523 0.72,-0.523 h 0.066 l 0.425,0.589 v 0.065 l -0.752,0.557 z m -7.535,-1.721 c -0.196,-0.099 -3.535,-1.572 -3.732,-1.67 l -0.032,0.033 C -6.942,-7.509 -7.008,-7.542 -7.041,-7.706 -7.073,-7.837 -7.106,-7.935 -7.106,-7.968 -7.139,-8.066 -7.172,-8.164 -6.877,-8 c 0.099,0.065 3.502,1.539 3.634,1.636 0.163,0.098 0.261,0.132 0.327,0.262 0.065,0.131 0.098,0.164 0.131,0.262 0.032,0.098 0.065,0.229 -0.197,0.066 m -8.607,-0.468 c -0.197,-0.098 -3.536,-1.571 -3.731,-1.669 -0.198,-0.099 -0.262,-0.131 -0.295,-0.295 -0.033,-0.13 -0.099,-0.229 -0.099,-0.229 -0.032,-0.099 -0.065,-0.196 0.23,-0.033 0.098,0.066 3.502,1.539 3.633,1.637 0.163,0.098 0.262,0.131 0.328,0.262 0.065,0.131 0.097,0.164 0.13,0.262 0.034,0.098 0.066,0.229 -0.196,0.065 M 7.756,-5.053 C 7.724,-5.151 7.659,-5.576 7.625,-5.675 7.593,-5.773 7.625,-5.838 7.659,-5.937 7.692,-6.002 7.822,-6.264 7.887,-6.493 7.953,-6.722 8.804,-8.326 8.903,-8.489 8.967,-8.621 9,-8.751 8.935,-8.85 6.218,-11.697 1.013,-13.465 0.85,-13.564 c -0.164,-0.098 -0.132,-0.164 0.163,-0.13 0.426,0.066 2.782,0.458 3.438,0.785 0.425,0.229 1.996,0.982 3.241,1.964 -0.033,-0.262 -0.067,-0.622 -0.067,-1.112 0.099,-2.292 2.128,-1.932 2.685,-1.801 1.605,0.36 3.601,2.586 3.765,3.044 0.163,0.458 0.196,0.851 0.163,1.211 0.426,0.229 1.343,0.982 1.343,0.982 0.032,-0.982 0.817,-1.276 1.046,-1.309 1.114,-0.164 1.703,0.753 1.932,1.08 0.196,-0.524 0.688,-0.654 0.949,-0.687 0.982,-0.197 1.146,0.491 1.212,0.655 h -0.033 c 0.294,0.949 -0.229,1.636 -0.327,1.735 -0.067,0.065 -0.099,0 -0.131,-0.099 -0.033,-0.098 -0.099,-0.425 -0.164,-0.654 0,0 0.196,-0.328 0.262,-0.492 0.065,-0.163 -0.034,-0.261 -0.229,-0.295 -0.59,-0.064 -1.048,0.263 -1.212,0.427 -0.164,0.163 0,0.425 0.131,0.753 0.099,0.261 -0.098,0.294 -0.228,0 -0.492,-1.31 -1.211,-1.441 -1.375,-1.506 -1.67,-0.459 -1.539,1.08 -1.506,1.308 0,0.263 -0.164,0.165 -0.393,0 -0.687,-0.555 -1.277,-0.883 -1.571,-1.013 -0.263,0.523 -0.655,0.818 -0.786,0.949 -1.801,1.309 -1.964,-1.343 -1.899,-1.637 0.262,-1.113 2.128,-0.459 2.39,-0.426 0.295,0.033 0.197,-0.36 0.032,-0.589 -0.392,-0.557 -0.85,-0.949 -1.276,-1.309 -1.8,-1.441 -2.685,-1.342 -2.947,-1.342 -1.766,0.065 -1.603,1.931 -1.505,2.356 0.523,0.459 0.982,0.917 1.244,1.441 0.098,0.262 0.295,0.883 -0.032,1.67 C 9,-7.246 8.444,-6.296 8.444,-6.296 h 0.459 c 0.032,0 0.131,0.032 0,0.163 -0.099,0.098 -0.95,0.982 -1.016,1.048 -0.065,0.065 -0.097,0.13 -0.131,0.032 m 5.402,-3.895 c 0,0 -0.262,-0.131 -0.916,-0.098 -0.59,0.033 -0.525,0.262 -0.459,0.359 0.098,0.099 0.786,0.524 1.375,-0.261 M 5.694,-5.755 C 5.564,-5.918 4.384,-7.49 4.384,-7.49 l 0.033,0.065 -0.883,0.622 c 0,0 0.36,0.098 0.425,0.098 0.066,0.033 0.098,0.099 0,0.164 -0.098,0.066 -1.146,0.491 -1.244,0.524 -0.065,0.033 -0.098,0.065 -0.131,-0.033 0,-0.098 -0.032,-0.785 -0.032,-0.785 0,0 0,-0.033 0.065,-0.099 0.098,-0.065 0.196,-0.163 0.262,-0.229 0.066,-0.065 1.047,-0.851 1.114,-0.883 0,0 -0.492,-0.852 -0.558,-1.539 -0.064,-0.687 0,-1.603 0.918,-1.31 0.261,0.066 1.275,0.491 1.505,1.211 0.066,0.263 0.295,0.753 -0.066,1.212 -0.196,0.295 -1.014,0.753 -1.014,0.753 0,0 0.622,0.851 0.687,0.949 0.066,0.098 0.295,0.753 0.295,0.916 0.032,0.165 0.032,0.23 -0.066,0.099 M 5.531,-9.323 C 5.204,-9.618 4.483,-9.978 4.287,-9.978 4.09,-10.011 3.566,-9.913 3.795,-9.356 c 0.064,0.157 0.574,1 0.616,1.067 0.256,-0.128 1.468,-0.749 1.12,-1.034 m -5.992,-1.117 c -0.097,-0.228 -0.426,-1.047 -0.327,-1.996 0.032,-0.23 0.196,-0.623 0.523,-0.623 0.164,0 0.394,0.131 0.525,0.688 0.032,0.131 0.032,0.229 0.032,0.262 0,0.066 -0.032,0.164 -0.098,0 -0.098,-0.327 -0.426,-0.59 -0.687,-0.163 -0.033,0.097 -0.23,0.458 0.032,1.341 0.065,0.164 0.098,0.426 0.098,0.426 0.066,0.196 -0.033,0.295 -0.098,0.065 m 19.904,-0.127 c -0.066,-0.197 -0.098,-0.328 -0.098,-0.393 0,-0.065 0.032,-0.327 0.032,-0.327 -0.065,-0.066 -0.392,-0.262 -0.687,-0.033 0.032,0.065 0.065,0.196 0.065,0.261 0.034,0.099 -0.033,0.197 -0.097,0.066 -0.066,-0.131 -0.198,-0.524 -0.296,-0.59 -0.098,-0.097 -0.195,-0.424 -0.948,-0.097 -0.131,0.033 -0.361,0.229 -0.688,-0.131 -0.785,-0.72 -1.343,-0.786 -2.226,-1.113 -0.098,-0.066 -0.328,-0.229 -0.066,-0.196 0.262,0.032 1.375,0 1.997,0.687 0.131,0.131 0.262,0.458 0.753,0.262 0.262,-0.098 0.753,-0.524 1.31,0.327 0.327,-0.196 0.786,-0.131 0.883,0.098 0.066,0.229 0.164,0.459 0.164,0.622 v 0.36 l 0.033,0.099 c 0,0.13 -0.066,0.294 -0.131,0.098 m -38.667,-0.525 c -0.196,-0.098 -2.062,-0.884 -2.258,-1.015 -0.197,-0.099 -0.262,-0.131 -0.294,-0.294 -0.034,-0.132 -0.066,-0.229 -0.066,-0.263 -0.033,-0.097 -0.065,-0.196 0.229,-0.032 0.098,0.066 1.997,0.851 2.16,0.949 0.164,0.098 0.262,0.131 0.328,0.262 0.064,0.131 0.098,0.164 0.131,0.262 l -0.033,0.065 c 0.033,0.098 0.065,0.229 -0.197,0.066 m 8.42,-0.26 c -0.065,-0.23 -0.425,-0.982 -0.294,-1.834 0.033,-0.196 0.197,-0.588 0.491,-0.588 0.164,0 0.36,0.13 0.491,0.621 0.029,0.088 0.031,0.172 0.032,0.236 -0.002,0.063 -0.035,0.12 -0.098,-0.006 -0.097,-0.295 -0.392,-0.524 -0.654,-0.132 -0.033,0.065 -0.229,0.426 0.032,1.244 0.033,0.164 0.099,0.393 0.099,0.393 0.065,0.164 -0.033,0.262 -0.099,0.066 m 5.925,-1.052 -0.49,-0.687 v -0.065 l 0.85,-0.623 h 0.066 l 0.491,0.688 v 0.065 l -0.85,0.622 z"
       style="fill:#231f20;fill-opacity:1;fill-rule:evenodd;stroke:none"
       transform="matrix(1.3333333,0,0,-1.3333333,255.07093,186.74613)"
       clip-path="url(#clipPath29)"
       id="path30" />
  </g>
</svg>
