<?xml version="1.0" encoding="UTF-8" standalone="no"?>
<!-- Created with Inkscape (http://www.inkscape.org/) -->

<svg
   width="15.536495mm"
   height="6.3370085mm"
   viewBox="0 0 15.536495 6.3370085"
   version="1.1"
   id="svg1"
   xmlns:inkscape="http://www.inkscape.org/namespaces/inkscape"
   xmlns:sodipodi="http://sodipodi.sourceforge.net/DTD/sodipodi-0.dtd"
   xmlns="http://www.w3.org/2000/svg"
   xmlns:svg="http://www.w3.org/2000/svg">
  <sodipodi:namedview
     id="namedview1"
     pagecolor="#ffffff"
     bordercolor="#666666"
     borderopacity="1.0"
     inkscape:showpageshadow="2"
     inkscape:pageopacity="0.0"
     inkscape:pagecheckerboard="0"
     inkscape:deskcolor="#d1d1d1"
     inkscape:document-units="mm" />
  <defs
     id="defs1" />
  <g
     inkscape:label="Layer 1"
     inkscape:groupmode="layer"
     id="layer1"
     transform="translate(-106.56047,-42.611342)">
    <path
       d="m 111.17721,42.631711 c -0.0159,0.03916 -0.13582,0.349957 -0.13582,0.349957 0.006,0.04339 0.0519,0.1143 0.0755,0.348543 0.012,0.121709 0.22966,2.549877 0.25717,2.804232 0.0275,0.252941 0.0822,0.944033 -0.048,1.36525 -0.24165,0.244827 -0.4258,0.430387 -0.4258,0.430387 -0.1778,-0.01553 -1.23543,-0.0321 -1.62419,-0.898525 -0.0843,-0.128762 -0.11253,-0.295275 -0.43779,-0.12206 -0.32562,0.173566 -0.59444,0.381 -0.81563,0.924277 -0.0589,0.148166 -0.23248,0.815975 -0.71155,0.623006 -0.17639,-0.08431 -0.6544,-0.444852 -0.49601,-1.392415 0.0162,0.0056 0.0332,0.0092 0.0512,0.0092 0.0917,-0.0056 0.20567,-0.09948 0.26811,-0.481189 0.0102,-0.08572 0.0152,-0.154517 0.0194,-0.188384 0.006,-0.0515 -0.0261,-0.110418 -0.049,0.0081 -0.0543,0.234243 -0.21978,0.405693 -0.3676,0.103717 -0.025,-0.06032 -0.12912,-0.335492 -0.002,-0.958144 0.0257,-0.12065 0.0568,-0.300215 0.0568,-0.300215 0.0289,-0.136173 -0.0187,-0.206727 -0.061,-0.03986 -0.042,0.166865 -0.22508,0.744009 -0.15452,1.408642 0.012,0.108657 0.0631,0.288925 0.15522,0.383823 l -2.6e-4,0.0013 c -0.0251,0.117475 -0.25224,1.243542 0.50411,1.815042 0.10478,0.05468 0.47061,0.256116 0.69286,-0.315029 0.0801,-0.180623 0.3489,-1.041755 0.93698,-1.21003 0.10089,-0.03775 0.15981,-0.05009 0.20602,0.0127 0.0462,0.0628 0.11536,0.177097 0.11536,0.177097 0.0833,0.151693 0.53798,1.222727 2.73791,0.720725 0.48048,-0.125238 1.00294,-0.323498 1.45238,-0.589847 0.15664,-0.09419 0.30304,-0.41275 0.32385,-0.616653 0.0208,-0.203907 -0.14111,-0.44944 -0.50165,-0.548572 -0.24024,-0.05785 -0.75776,-0.09419 -1.21743,0.376063 -0.15946,0.163336 -0.33867,0.345721 -0.50448,0.513292 0.0212,-0.03457 0.0385,-0.07444 0.0476,-0.118888 0.0346,-0.173567 0.16581,-0.627592 0.0868,-1.316918 -0.0152,-0.15875 -0.2293,-2.367844 -0.2293,-2.367844 0.0388,0.03669 0.19226,0.181679 0.22013,0.21096 0.0318,0.03316 0.0702,0.01588 0.0522,-0.03845 -0.0183,-0.05398 -0.42192,-1.030464 -0.43497,-1.064331 -0.0134,-0.03387 -0.0265,-0.05856 -0.0427,-0.01905 m 2.19251,4.48169 c 0.0684,0.07091 0.0653,0.08008 0.009,0.124177 -0.93274,0.559506 -2.06974,0.690033 -2.20556,0.695676 0,0 0.65687,-0.846666 1.31127,-1.044926 0.56233,-0.156634 0.81704,0.154164 0.88512,0.225073 m -0.58702,-4.41678 c -0.0374,0.09172 -0.19438,0.408165 -0.17039,0.780698 0.006,0.08608 0.0628,0.254 0.19261,0.258586 0.0667,-2.65e-4 0.15346,-0.04904 0.2152,-0.259644 0.0106,-0.04763 0.0173,-0.08608 0.0219,-0.104775 0.006,-0.02822 -0.0145,-0.06244 -0.0363,0.0028 -0.0494,0.129469 -0.17675,0.219779 -0.272,0.04657 -0.0155,-0.03457 -0.0801,-0.191559 0.0381,-0.534107 0.024,-0.06667 0.054,-0.165806 0.054,-0.165806 0.0265,-0.07514 -0.005,-0.116062 -0.043,-0.02434 m 1.57198,0.282223 c -0.0702,0.10654 -0.12206,0.362657 -0.0222,0.435682 0.0998,0.07338 0.24624,0.132291 0.24624,0.132291 -0.46567,0.571146 -0.78458,0.679802 -1.05692,0.839611 -0.0699,0.04127 -0.0565,0.07796 -0.0152,0.06703 0.0215,-0.0056 0.38806,-0.06279 0.81562,-0.388053 0.23178,-0.175684 0.37183,-0.475898 0.37183,-0.475898 0,0 0.11606,0.09631 0.13159,0.116064 0.0353,0.04339 0.0547,0.07585 0.0709,0.02999 0.061,-0.168982 -0.0254,-0.270934 -0.1076,-0.323499 0,0 0.0857,-0.26317 -0.0713,-0.52705 -0.0265,-0.04409 -0.18239,-0.185912 -0.36301,0.09384 m 0.24342,0.07232 c 0.10512,0.09807 0.0893,0.258233 0.085,0.294923 0,0 -0.13405,-0.06279 -0.19402,-0.08855 -0.06,-0.0254 -0.0914,-0.0635 -0.0639,-0.1016 0.0924,-0.129821 0.13794,-0.125587 0.17287,-0.104775 m 6.27909,0.02328 c -0.0706,0.106892 -0.12242,0.362657 -0.0226,0.435682 0.10019,0.07303 0.24624,0.132643 0.24624,0.132643 -0.46567,0.570442 -1.38042,0.976842 -1.59773,1.14653 -0.0653,0.04904 -0.0564,0.07796 -0.0155,0.06703 0.0367,-0.0099 0.73342,-0.204611 1.37054,-0.750711 0.2921,-0.249766 0.28398,-0.268816 0.35842,-0.420513 0.0632,0.03246 0.10654,0.08537 0.13159,0.116065 0.0349,0.04374 0.0543,0.07585 0.0709,0.02999 0.0607,-0.168978 -0.0254,-0.270933 -0.10759,-0.323495 0,0 0.0854,-0.263173 -0.0716,-0.527405 -0.0261,-0.04409 -0.18203,-0.18556 -0.36265,0.09419 m 0.24341,0.07267 c 0.10478,0.09772 0.0889,0.257882 0.0847,0.294569 0,0 -0.13406,-0.06244 -0.19403,-0.08855 -0.06,-0.02574 -0.0914,-0.0635 -0.0635,-0.101954 0.0921,-0.129469 0.13758,-0.125235 0.17286,-0.104069 m -1.78858,-0.165452 c -0.18345,0.232479 -0.19473,0.538692 -0.21907,0.879827 -0.0261,-0.07126 -0.17216,-0.529166 -0.63959,-0.790927 -0.0342,-0.01905 -0.10301,0.01728 -0.10936,0.124529 -0.004,0.06315 -0.0219,0.215548 0.0222,0.25894 0.0444,0.04304 0.17498,0.127706 0.19685,0.1397 0.0219,0.01199 0.0455,0.01376 0.0519,-0.01236 0.007,-0.02646 0.0367,-0.08713 0.079,-0.04339 0.0353,0.03598 0.266,0.226484 0.38524,0.630415 0.0208,0.05327 0.0709,0.05856 0.0822,-0.01728 0.0275,-0.186622 0.0427,-0.51153 0.0575,-0.6096 0.0208,-0.13829 0.0868,-0.423334 0.26176,-0.275522 0.0399,0.03387 0.0822,0.07832 0.0822,0.07832 0.037,0.04692 0.0836,0.10019 0.10653,0.04621 0.0342,-0.08149 0.0621,-0.216607 0.0243,-0.289983 -0.0166,-0.03246 -0.23353,-0.307269 -0.3817,-0.118886 m -1.80022,-0.01093 c -0.0674,0.03951 -1.78788,1.03223 -1.85773,1.077383 -0.0695,0.04445 -0.0942,0.05609 -0.10513,0.109715 -0.0113,0.05362 -0.0169,0.08502 -0.0201,0.09384 -0.0123,0.03563 -0.0215,0.08008 0.0811,0.01304 0.0317,-0.02082 1.76213,-1.020233 1.8228,-1.057982 0.0582,-0.03669 0.0917,-0.05221 0.11536,-0.10795 0.0229,-0.05574 0.0289,-0.06562 0.0413,-0.10442 0.0134,-0.04127 0.0268,-0.08502 -0.0776,-0.02363 m -7.36355,0.07343 c -0.1831,0.232833 -0.19474,0.539043 -0.21908,0.880178 -0.0257,-0.07161 -0.1718,-0.528812 -0.63958,-0.790927 -0.0339,-0.01905 -0.10301,0.01728 -0.10901,0.124884 -0.004,0.06279 -0.0222,0.215193 0.0219,0.258233 0.0441,0.04339 0.17498,0.128058 0.19685,0.140052 0.0222,0.01164 0.0455,0.01376 0.0519,-0.0127 0.007,-0.02611 0.0367,-0.08678 0.079,-0.04304 0.0356,0.03598 0.26599,0.226483 0.38559,0.630412 0.0204,0.05362 0.0702,0.05856 0.0818,-0.01765 0.0275,-0.186621 0.0423,-0.510823 0.0571,-0.609248 0.0212,-0.13829 0.0871,-0.423333 0.26247,-0.275518 0.0399,0.03387 0.0818,0.07832 0.0818,0.07832 0.037,0.04692 0.0836,0.100187 0.10654,0.04621 0.0342,-0.08149 0.0624,-0.216958 0.0243,-0.289983 -0.0166,-0.03245 -0.23354,-0.306917 -0.38171,-0.119237 m -2.55022,0.154162 c -0.0395,0.121356 -0.20744,0.541515 -0.15099,1.02235 0.013,0.111125 0.0949,0.324205 0.25364,0.32103 0.0819,-0.0049 0.1838,-0.07373 0.24342,-0.351015 0.009,-0.06209 0.0148,-0.111832 0.0191,-0.136877 0.006,-0.0374 -0.0226,-0.07938 -0.0441,0.0067 -0.0504,0.170392 -0.19932,0.295981 -0.32843,0.07832 -0.0212,-0.04304 -0.11148,-0.242007 0.008,-0.693915 0.024,-0.08784 0.0536,-0.218369 0.0536,-0.218369 0.0268,-0.09913 -0.0148,-0.149577 -0.054,-0.02822 m 5.08105,1.094317 c -0.0381,0.09208 -0.19473,0.408516 -0.17039,0.78105 0.005,0.08608 0.0624,0.254 0.19191,0.258233 0.0674,0 0.15381,-0.04868 0.21555,-0.259292 0.0106,-0.04798 0.0173,-0.08608 0.0215,-0.10442 0.007,-0.02893 -0.0145,-0.06244 -0.036,0.0028 -0.049,0.128765 -0.17674,0.219075 -0.27199,0.04621 -0.0155,-0.03457 -0.0801,-0.191207 0.0384,-0.534459 0.0236,-0.06632 0.0536,-0.165806 0.0536,-0.165806 0.0265,-0.07479 -0.005,-0.11571 -0.0427,-0.02434 m 5.16326,0.03281 c -0.0349,0.08431 -0.17886,0.375004 -0.15699,0.71755 0.005,0.07902 0.0575,0.233188 0.17675,0.237421 0.0617,-2.65e-4 0.14146,-0.04516 0.1979,-0.238832 0.01,-0.04374 0.0159,-0.07867 0.0198,-0.09596 0.006,-0.02611 -0.0134,-0.0575 -0.0332,0.0028 -0.0448,0.118533 -0.16193,0.201435 -0.24977,0.04198 -0.0141,-0.03105 -0.0734,-0.175331 0.0349,-0.490714 0.0222,-0.06103 0.0497,-0.152048 0.0497,-0.152048 0.0243,-0.06879 -0.005,-0.106538 -0.0392,-0.02222 m 3.30729,0.173214 c -0.0321,0.07832 -0.16545,0.347134 -0.14499,0.664282 0.004,0.07338 0.0533,0.2159 0.16333,0.219779 0.0572,-2.65e-4 0.13089,-0.04163 0.1831,-0.221192 0.009,-0.04022 0.0148,-0.07267 0.0187,-0.0889 0.005,-0.024 -0.0123,-0.05292 -0.0307,0.0028 -0.0416,0.109715 -0.15028,0.186619 -0.23142,0.03951 -0.0134,-0.02928 -0.0681,-0.162983 0.0321,-0.454729 0.0205,-0.05645 0.0462,-0.140758 0.0462,-0.140758 0.0229,-0.06421 -0.005,-0.09878 -0.0363,-0.02082 m -6.20642,0.0085 -0.16863,0.231069 -0.32314,-0.236009 c -0.008,-0.0056 -0.0194,-0.0035 -0.0257,0.0049 l -0.19508,0.267052 c -0.006,0.0088 -0.004,0.02045 0.004,0.02646 l 0.33267,0.242359 c 0.008,0.006 0.0198,0.0042 0.0261,-0.0046 l 0.16792,-0.230716 0.32314,0.235301 c 0.008,0.006 0.0198,0.0042 0.0261,-0.0046 l 0.19473,-0.267406 c 0.006,-0.0085 0.005,-0.02011 -0.004,-0.02574 l -0.33267,-0.243065 c -0.008,-0.0056 -0.0198,-0.0035 -0.0254,0.0049 m -6.70136,0.428625 c -0.17428,0.221543 -0.18556,0.512585 -0.20849,0.837141 -0.0243,-0.06808 -0.16369,-0.503414 -0.60855,-0.752475 -0.0321,-0.01799 -0.0977,0.01622 -0.10406,0.118534 -0.004,0.05997 -0.0205,0.204964 0.0215,0.246239 0.042,0.04092 0.16615,0.121709 0.18697,0.132644 0.0212,0.01164 0.043,0.01341 0.0497,-0.01164 0.006,-0.02506 0.0346,-0.08255 0.0748,-0.04092 0.0339,0.03387 0.25329,0.215196 0.36689,0.599371 0.0198,0.05115 0.0667,0.05609 0.078,-0.01622 0.0261,-0.177446 0.0402,-0.486127 0.0543,-0.580319 0.0198,-0.131233 0.0829,-0.402519 0.24941,-0.261408 0.0378,0.03175 0.078,0.07444 0.078,0.07444 0.0353,0.04445 0.0797,0.0949 0.1016,0.04375 0.0321,-0.07761 0.0589,-0.206375 0.0229,-0.275873 -0.0159,-0.03069 -0.22225,-0.2921 -0.36301,-0.113242 m 8.00417,-0.0127 c -0.013,0.04516 -0.0455,0.23989 -0.0533,0.280107 -0.008,0.03986 -0.007,0.07973 0.0127,0.113945 0.0198,0.03422 0.0702,0.152755 0.10689,0.249063 0.0363,0.09595 0.41452,0.824087 0.44909,0.888294 0.0349,0.06456 0.042,0.112889 0.007,0.155223 -1.21285,1.279877 -3.55318,2.06657 -3.62797,2.109962 -0.0744,0.04375 -0.055,0.07726 0.0713,0.05539 0.18803,-0.03281 1.23931,-0.208492 1.53917,-0.353132 0.19721,-0.09525 0.88794,-0.433916 1.45203,-0.8763 -0.0155,0.113594 -0.03,0.281869 -0.0219,0.494948 0.0381,1.029052 0.9578,0.858309 1.1998,0.805392 0.72355,-0.15875 1.60831,-1.158875 1.68346,-1.360313 0.0741,-0.19826 0.0854,-0.379235 0.0688,-0.537633 0.1905,-0.10301 0.59972,-0.43321 0.59972,-0.43321 0.0169,0.438856 0.36583,0.570793 0.47343,0.589843 0.50376,0.07655 0.75565,-0.34431 0.86325,-0.480835 0.0914,0.240594 0.31185,0.28716 0.42545,0.30974 0.43462,0.08643 0.51893,-0.22084 0.54151,-0.29069 0.13617,-0.42404 -0.10901,-0.739775 -0.14076,-0.7747 -0.0318,-0.03493 -0.0476,-0.0013 -0.0586,0.03916 -0.0109,0.04092 -0.0462,0.193323 -0.0684,0.288925 0,0 0.0907,0.147815 0.12312,0.223309 0.0324,0.07549 -0.0155,0.116768 -0.10901,0.128058 -0.26423,0.03246 -0.47519,-0.11924 -0.54786,-0.18909 -0.0723,-0.06985 0.006,-0.192968 0.0646,-0.340783 0.0469,-0.118179 -0.0399,-0.132644 -0.10654,-2.65e-4 -0.22437,0.588786 -0.53905,0.652286 -0.6216,0.674865 -0.74612,0.2032 -0.68192,-0.479073 -0.67945,-0.59055 0.003,-0.111831 -0.0787,-0.07056 -0.17074,0.0032 -0.31397,0.252235 -0.56727,0.40005 -0.70273,0.460727 -0.11713,-0.228952 -0.28717,-0.372533 -0.35913,-0.424392 -0.80751,-0.589139 -0.87419,0.599017 -0.84949,0.726369 0.12241,0.505179 0.94756,0.198966 1.07703,0.183798 0.12911,-0.01516 0.0875,0.155575 0.0145,0.256823 -0.17886,0.25047 -0.38559,0.430035 -0.57256,0.582787 -0.79975,0.652288 -1.20121,0.600782 -1.32468,0.596548 -0.78528,-0.02188 -0.71332,-0.86854 -0.66992,-1.04916 0.23636,-0.20038 0.4392,-0.41769 0.55739,-0.641704 0.048,-0.122767 0.13088,-0.401813 -0.0183,-0.751417 -0.079,-0.154162 -0.32667,-0.586317 -0.32667,-0.586317 0,0 0.18238,0.0056 0.20002,0.0053 0.0173,-2.65e-4 0.0515,-0.01834 0.007,-0.0695 -0.0445,-0.05115 -0.42757,-0.433212 -0.45085,-0.463904 -0.0233,-0.03069 -0.0444,-0.05292 -0.0575,-0.0078 m 2.42217,1.752248 c 0,0 -0.10971,0.0635 -0.41699,0.04269 -0.25823,-0.01693 -0.236,-0.117475 -0.20072,-0.155927 0.0388,-0.04163 0.35418,-0.240242 0.61771,0.113242 m -8.382,-1.443922 c -0.0392,0.121357 -0.20708,0.541515 -0.15064,1.02235 0.013,0.111125 0.0949,0.324557 0.25365,0.32103 0.0815,-0.0046 0.1838,-0.07338 0.24307,-0.350663 0.01,-0.06244 0.0152,-0.112535 0.019,-0.136877 0.006,-0.03739 -0.0222,-0.07973 -0.0438,0.006 -0.0508,0.170744 -0.19932,0.296334 -0.32844,0.07902 -0.0212,-0.04339 -0.11147,-0.242004 0.008,-0.694267 0.024,-0.08784 0.0533,-0.218017 0.0533,-0.218017 0.0272,-0.09913 -0.0145,-0.149928 -0.054,-0.02858 m 5.06554,0.01939 c -0.0533,0.06632 -0.58949,0.770112 -0.58949,0.770112 l -0.38982,-0.277987 c 0,0 0.15875,-0.03986 0.18626,-0.04798 0.0279,-0.0085 0.0438,-0.0441 -0.006,-0.06985 -0.0497,-0.02574 -0.51999,-0.213077 -0.55597,-0.227542 -0.0356,-0.01447 -0.0487,-0.03104 -0.0515,0.0071 -0.003,0.03845 -0.009,0.347839 -0.009,0.347839 0,0 -0.007,0.02151 0.0339,0.04515 0.0409,0.02328 0.0815,0.07303 0.11501,0.10654 0.0339,0.03352 0.47096,0.378883 0.49248,0.390877 0,0 -0.21873,0.384529 -0.24695,0.685448 -0.0279,0.300918 0.005,0.71614 0.41663,0.582083 0.11113,-0.0314 0.5715,-0.21449 0.67452,-0.535868 0.0335,-0.118182 0.12841,-0.331965 -0.0261,-0.548923 -0.0892,-0.127352 -0.44838,-0.342549 -0.44838,-0.342549 0,0 0.27587,-0.381703 0.30233,-0.428625 0.0261,-0.04692 0.12771,-0.342545 0.139,-0.414512 0.0113,-0.07161 0.0166,-0.107598 -0.0367,-0.04128 m -0.0945,1.622777 c -0.1524,0.125942 -0.47342,0.2921 -0.56374,0.300567 -0.0903,0.0088 -0.32984,-0.03528 -0.22577,-0.280458 0.0356,-0.07937 0.27516,-0.489302 0.27516,-0.489302 0.0893,0.04939 0.66746,0.343603 0.51435,0.469193 m 6.23112,0.561975 c -0.0311,0.08643 -0.043,0.142875 -0.0402,0.176035 0.004,0.03246 0.0145,0.139348 0.0145,0.139348 -0.0318,0.02574 -0.16863,0.110774 -0.30515,0.01024 0.009,-0.02928 0.0268,-0.08855 0.0307,-0.121357 0.0148,-0.05045 -0.0162,-0.08855 -0.0413,-0.03598 -0.0247,0.05257 -0.0829,0.228248 -0.12594,0.267758 -0.043,0.03951 -0.0935,0.184502 -0.41945,0.03704 -0.0568,-0.02188 -0.15698,-0.09596 -0.31291,0.06032 -0.35243,0.328083 -0.59585,0.353835 -0.99096,0.49389 -0.048,0.02188 -0.14851,0.09772 -0.0289,0.08537 0.11888,-0.01164 0.61983,2.65e-4 0.89252,-0.31256 0.0571,-0.05539 0.12242,-0.20179 0.33902,-0.116768 0.1203,0.04586 0.34149,0.235653 0.58314,-0.140055 0.14253,0.09455 0.35913,0.0568 0.3937,-0.04798 0.0346,-0.104423 0.0741,-0.208492 0.0737,-0.279752 -2.7e-4,-0.07091 -0.006,-0.164748 -0.006,-0.164748 -0.005,-0.05644 -0.0251,-0.136877 -0.0561,-0.0508 m -12.67318,0.817033 c -0.0198,0.03457 -0.0342,0.06244 -0.042,0.07585 -0.0124,0.02082 -0.004,0.05221 0.0289,0.0067 0.0691,-0.0889 0.19015,-0.12841 0.22261,0.02928 0.004,0.03069 0.0162,0.168275 -0.1584,0.406752 -0.0342,0.04657 -0.0815,0.116416 -0.0815,0.116416 -0.0392,0.05186 -0.0243,0.09137 0.0275,0.02893 0.0512,-0.06209 0.24942,-0.270933 0.32068,-0.566912 0.0162,-0.06844 0.0124,-0.213079 -0.0875,-0.24765 -0.0522,-0.01588 -0.13194,0.0011 -0.23036,0.150635"
       style="fill:#231f20;fill-opacity:1;fill-rule:evenodd;stroke:none;stroke-width:0.264583"
       id="path1-57" />
  </g>
</svg>
