<?xml version="1.0" encoding="UTF-8" standalone="no"?>
<!-- Created with Inkscape (http://www.inkscape.org/) -->

<svg
   width="19.563923mm"
   height="7.3015571mm"
   viewBox="0 0 19.563923 7.3015571"
   version="1.1"
   id="svg1"
   xmlns:inkscape="http://www.inkscape.org/namespaces/inkscape"
   xmlns:sodipodi="http://sodipodi.sourceforge.net/DTD/sodipodi-0.dtd"
   xmlns="http://www.w3.org/2000/svg"
   xmlns:svg="http://www.w3.org/2000/svg">
  <sodipodi:namedview
     id="namedview1"
     pagecolor="#ffffff"
     bordercolor="#666666"
     borderopacity="1.0"
     inkscape:showpageshadow="2"
     inkscape:pageopacity="0.0"
     inkscape:pagecheckerboard="0"
     inkscape:deskcolor="#d1d1d1"
     inkscape:document-units="mm" />
  <defs
     id="defs1" />
  <g
     inkscape:label="Layer 1"
     inkscape:groupmode="layer"
     id="layer1"
     transform="translate(-121.7462,-36.853213)">
    <path
       d="m 129.45286,36.874521 c -0.0818,0.0321 -1.32891,0.451554 -1.41464,0.489302 -0.085,0.03739 -0.11465,0.04622 -0.13652,0.103717 -0.0222,0.05786 -0.0339,0.09172 -0.0388,0.100541 -0.0201,0.03775 -0.0381,0.08537 0.0875,0.02928 0.0399,-0.01765 1.30246,-0.442738 1.37301,-0.47484 0.0702,-0.03175 0.11113,-0.04092 0.14711,-0.09913 0.0356,-0.05785 0.0441,-0.06773 0.0649,-0.108654 0.0219,-0.04339 0.0444,-0.08961 -0.0826,-0.04022 m -2.89489,0.40146 c -0.0261,0.08114 -0.14041,0.362657 -0.096,0.681215 0.0102,0.07338 0.0702,0.213783 0.18168,0.209196 0.0575,-0.0042 0.12877,-0.05186 0.16828,-0.236713 0.006,-0.04127 0.009,-0.07479 0.0116,-0.09102 0.004,-0.02506 -0.0162,-0.05256 -0.0307,0.0049 -0.0339,0.113949 -0.13758,0.199674 -0.23036,0.05715 -0.0155,-0.02857 -0.0811,-0.159101 -0.001,-0.461078 0.0159,-0.05856 0.0353,-0.145698 0.0353,-0.145698 0.018,-0.06597 -0.012,-0.09913 -0.0384,-0.01799 m 7.00722,0.319617 c -0.0702,0.106539 -0.12206,0.362656 -0.0219,0.435681 0.0998,0.07338 0.24588,0.132292 0.24588,0.132292 -0.46566,0.571145 -0.78457,0.680153 -1.05692,0.83961 -0.0702,0.04127 -0.0561,0.07796 -0.0152,0.06703 0.0215,-0.0056 0.38806,-0.06279 0.81598,-0.387702 0.23142,-0.176035 0.37147,-0.47625 0.37147,-0.47625 0,0 0.11606,0.09666 0.13159,0.116417 0.0353,0.04339 0.0547,0.07585 0.0709,0.02963 0.0607,-0.168982 -0.025,-0.270933 -0.10724,-0.323498 0,0 0.0854,-0.263171 -0.0716,-0.52705 -0.0265,-0.04445 -0.18204,-0.18556 -0.36301,0.09384 m 0.24377,0.07267 c 0.10477,0.09772 0.0889,0.257878 0.0847,0.294568 0,0 -0.13405,-0.06279 -0.19402,-0.08855 -0.06,-0.02574 -0.0917,-0.0635 -0.0635,-0.1016 0.0921,-0.130175 0.13758,-0.125587 0.17286,-0.10442 m 6.27874,0.02328 c -0.0706,0.106185 -0.12242,0.362302 -0.0226,0.435327 0.10019,0.07338 0.24624,0.132292 0.24624,0.132292 -0.46567,0.571148 -1.38043,0.977193 -1.59809,1.146881 -0.0646,0.04939 -0.0561,0.07796 -0.0148,0.06703 0.0363,-0.0095 0.73307,-0.20461 1.37018,-0.750358 0.2921,-0.250474 0.28434,-0.269169 0.35843,-0.420865 0.0631,0.03246 0.10654,0.08537 0.13158,0.116416 0.0349,0.04339 0.0543,0.07585 0.0709,0.02963 0.061,-0.168979 -0.0254,-0.270579 -0.1076,-0.323496 0,0 0.0854,-0.263173 -0.0716,-0.52705 -0.0261,-0.04445 -0.18203,-0.185563 -0.36266,0.09419 m 0.24342,0.07232 c 0.10513,0.09772 0.0889,0.257881 0.0847,0.294568 0,0 -0.13406,-0.06279 -0.19403,-0.08855 -0.0596,-0.02574 -0.091,-0.0635 -0.0635,-0.1016 0.0924,-0.130175 0.13758,-0.12559 0.17286,-0.104423 m -1.78858,-0.165807 c -0.1831,0.233188 -0.19474,0.539046 -0.21908,0.880182 -0.0257,-0.07162 -0.17215,-0.528815 -0.63958,-0.790927 -0.0342,-0.01905 -0.10301,0.01728 -0.10901,0.124883 -0.004,0.06279 -0.0219,0.215194 0.0222,0.258233 0.0441,0.04339 0.17463,0.128059 0.1965,0.140052 0.0219,0.01199 0.0455,0.01376 0.0522,-0.01236 0.007,-0.02646 0.0363,-0.08678 0.0787,-0.04339 0.0356,0.03598 0.266,0.226483 0.38594,0.630414 0.0201,0.05362 0.0702,0.05891 0.0815,-0.01728 0.0275,-0.186621 0.0427,-0.511175 0.0575,-0.6096 0.0212,-0.13829 0.0868,-0.423333 0.26212,-0.275167 0.0399,0.03351 0.0818,0.07796 0.0818,0.07796 0.037,0.04692 0.084,0.10019 0.10619,0.04622 0.0349,-0.08149 0.0624,-0.216958 0.0247,-0.289983 -0.0166,-0.03246 -0.23353,-0.306917 -0.3817,-0.11924 m -1.80058,-0.01058 c -0.067,0.03951 -1.78752,1.031875 -1.85667,1.077031 -0.0699,0.04516 -0.0945,0.05644 -0.10583,0.110067 -0.0113,0.05398 -0.0169,0.08502 -0.0198,0.09384 -0.0127,0.03598 -0.0215,0.08043 0.0811,0.01341 0.0317,-0.02082 1.76212,-1.020585 1.82245,-1.058333 0.0582,-0.03634 0.0917,-0.05221 0.11535,-0.10795 0.0229,-0.05539 0.0293,-0.06562 0.0416,-0.104421 0.013,-0.04127 0.0265,-0.08502 -0.0783,-0.02363 m -8.04756,0.02574 c -0.17392,0.07408 -0.35454,0.332668 -0.29492,0.43815 0.0501,0.0896 0.15839,0.17286 0.15839,0.17286 -0.0554,0.02822 -0.11641,0.04163 -0.13546,0.09737 -0.0187,0.05539 -0.0247,0.08925 -0.0272,0.109715 -0.002,0.02011 -0.006,0.03598 0.0261,0.02787 0.0332,-0.0074 0.0487,-0.01236 0.0487,-0.01236 0.0956,-0.03775 0.46285,-0.207433 0.70626,-0.252942 0.007,-0.0013 0.0265,-0.07973 0.0363,-0.12206 0.01,-0.04304 -0.0349,-0.04092 -0.10548,-0.02857 -0.0709,0.01236 -0.32738,0.07479 -0.45685,-0.04586 -0.11148,-0.104071 -0.12418,-0.145346 -0.0822,-0.168275 0.0423,-0.02257 0.16158,-0.09419 0.23213,0.0039 0.0374,0.05151 0.0706,0.05398 0.0885,0.02151 0.0183,-0.03246 0.0804,-0.117475 0.0653,-0.153813 -0.0159,-0.03634 -0.0854,-0.16157 -0.25964,-0.08749 m 3.29141,0.01693 c -0.0173,0.0388 -0.12065,0.299861 -0.12065,0.299861 0.0212,0.172508 0.20744,1.799166 0.21873,1.92546 0.0113,0.125941 0.34995,2.280356 0.21413,3.1369 -0.006,0.05856 0.0183,0.08114 0.0469,0.02574 0.0286,-0.05574 0.36548,-0.621597 0.10231,-2.191809 -0.0127,-0.117829 -0.29104,-2.287764 -0.29104,-2.287764 0,0 0.19155,0.190852 0.2226,0.225425 0.0307,0.03422 0.0695,0.01728 0.0529,-0.03669 -0.0162,-0.05468 -0.39193,-1.042104 -0.40392,-1.076677 -0.012,-0.03422 -0.024,-0.05927 -0.042,-0.02045 m -0.98954,0.02893 c -0.0173,0.03739 -0.16651,0.34925 -0.16651,0.34925 0.0127,0.09913 0.21731,1.4732 0.33937,2.571043 0.0194,0.17145 0.18274,1.102432 0.14358,1.30528 -0.009,0.04621 -0.0388,0.120295 -0.0981,0.213428 0.019,-0.165803 0.0102,-0.426508 -0.1464,-0.770818 -0.22931,-0.506942 -1.57374,-1.515182 -2.03165,-2.194632 -0.005,-0.0071 0.0205,-7.93e-4 0.0205,-7.93e-4 0,0 0.1718,0.04304 0.20214,0.05045 0.0462,0.0113 0.115,0.0099 0.0691,-0.03316 -0.0466,-0.04339 -0.67698,-0.472017 -0.74118,-0.52211 -0.0646,-0.05045 -0.0903,-0.08608 -0.0921,-0.03598 -0.001,0.05045 0.002,0.339725 0.004,0.370417 0.001,0.03069 -0.002,0.05644 0.0406,0.07796 0.067,0.03422 0.18027,0.194382 0.30057,0.345017 0.66639,0.780346 1.1938,1.241073 1.29645,1.329266 0.10231,0.0889 0.97649,0.767647 0.99131,1.420284 10e-4,0.03704 -0.004,0.06844 -0.0106,0.09913 -0.25612,0.3175 -0.80363,0.771525 -1.88877,1.171223 -0.14535,0.06914 -0.0871,0.1143 0.0141,0.100542 0.1016,-0.01341 1.43616,-0.142875 2.01154,-1.03505 0.19438,-0.336905 0.29774,-0.694973 0.20955,-1.423458 -0.0272,-0.228955 -0.29598,-2.506134 -0.29598,-2.506134 0,0 0.19191,0.185561 0.2226,0.219075 0.0307,0.03351 0.0699,0.01693 0.0533,-0.03563 -0.0166,-0.05292 -0.393,-1.011767 -0.40499,-1.044927 -0.012,-0.03316 -0.0243,-0.0575 -0.042,-0.01976 m -6.28333,0.04974 c -0.14605,0.230365 -0.13581,0.518232 -0.1344,0.840317 -0.0275,-0.06562 -0.18768,-0.486127 -0.61948,-0.702733 -0.0314,-0.01588 -0.09,0.02257 -0.0885,0.124177 10e-4,0.05927 -0.005,0.203554 0.0374,0.2413 0.042,0.03775 0.16333,0.109362 0.18379,0.118887 0.0198,0.0099 0.0409,0.01024 0.0452,-0.01482 0.004,-0.02506 0.0261,-0.08396 0.0667,-0.04586 0.0342,0.03175 0.25083,0.196146 0.38383,0.568325 0.0222,0.04868 0.0663,0.0508 0.0713,-0.02151 0.012,-0.177093 0.003,-0.482952 0.01,-0.576439 0.009,-0.130879 0.0483,-0.402871 0.21343,-0.274813 0.0378,0.02928 0.078,0.06844 0.078,0.06844 0.036,0.04127 0.0808,0.0889 0.0974,0.03634 0.0247,-0.07867 0.0402,-0.207433 0.002,-0.274108 -0.0173,-0.02928 -0.22754,-0.273404 -0.34608,-0.08749 m -1.79281,0.147109 c -0.0148,0.0314 -0.10301,0.28575 -0.10301,0.28575 0.0441,0.159808 0.20285,0.933801 0.26176,1.752951 0.0208,0.268817 0.11359,1.361372 0.13441,1.533525 0.0208,0.172157 0.0257,1.39559 1.53282,1.348317 0.20602,-0.0063 1.17263,-0.151342 1.87395,-0.63006 0.0183,0.07867 0.0691,0.611717 0.62336,0.507293 0.36371,-0.08784 0.44979,-0.451908 0.44979,-0.451908 0.0497,0.0635 0.24377,0.373946 0.58173,0.396171 0.33796,0.02188 0.71896,-0.0113 0.87842,-0.214489 0.0423,-0.05398 0.18309,-0.325967 0.11677,-0.561269 -0.0311,-0.109715 -0.10513,-0.324205 -0.24941,-0.49883 -0.0557,-0.0695 -0.0748,-0.03916 -0.0885,0.0053 -0.0141,0.04445 -0.0889,0.265996 -0.0557,0.302332 0.0335,0.03598 0.20602,0.263173 0.21872,0.329493 0.009,0.04586 0.006,0.127707 -0.0857,0.16369 -0.0914,0.03598 -0.68439,0.26035 -1.03329,-0.06668 -0.0445,-0.03598 -0.16369,-0.177094 -0.23036,-0.470958 -0.0332,-0.144286 -0.16899,-0.850549 -0.30763,-1.036109 -0.0247,-0.03634 -0.12171,0.296334 -0.12171,0.296334 0.0388,0.138641 0.25506,0.922866 0.26353,1.180393 0.002,0.03316 -2.7e-4,0.0568 -0.0614,0.09807 -0.0607,0.04127 -0.57785,0.448734 -0.74613,-0.124177 0.009,-0.02928 0.037,-0.168981 0.042,-0.210256 0.005,-0.04127 0.002,-0.101248 -0.0621,-0.07303 -0.0646,0.02787 -1.24636,0.812448 -2.24507,0.672042 -0.17286,-0.024 -0.99166,-0.09631 -1.11372,-1.154994 -0.0332,-0.205671 -0.15064,-1.755775 -0.18451,-2.020713 -0.0339,-0.264583 -0.10583,-1.057627 -0.22824,-1.36031 -0.0251,-0.05715 -0.0459,-0.02963 -0.0607,0.0021 m -0.97049,0.162277 c -0.0335,0.0822 -0.17216,0.364773 -0.14958,0.696737 0.005,0.0769 0.0568,0.226129 0.17251,0.229659 0.0596,-2.65e-4 0.13652,-0.0441 0.19085,-0.23213 0.009,-0.04233 0.0152,-0.07655 0.019,-0.09313 0.006,-0.0254 -0.0127,-0.05539 -0.0321,0.0024 -0.0438,0.115358 -0.15699,0.196496 -0.24236,0.04233 -0.0138,-0.03034 -0.072,-0.170039 0.0325,-0.47625 0.0208,-0.05962 0.0473,-0.148166 0.0473,-0.148166 0.0233,-0.06703 -0.005,-0.103365 -0.0381,-0.02151 m 8.06979,0.114655 c -0.0265,0.08149 -0.14076,0.362653 -0.0963,0.68086 0.0106,0.07373 0.0702,0.21449 0.18238,0.20955 0.0575,-0.0042 0.12842,-0.05151 0.16758,-0.23636 0.006,-0.04198 0.01,-0.07514 0.012,-0.09137 0.004,-0.02469 -0.0162,-0.05256 -0.0307,0.0046 -0.0339,0.1143 -0.13758,0.200025 -0.23072,0.0575 -0.0155,-0.02857 -0.0808,-0.159102 -0.001,-0.461082 0.0159,-0.05856 0.0356,-0.145695 0.0356,-0.145695 0.018,-0.06597 -0.012,-0.09913 -0.0385,-0.01799 m -2.48356,0.0081 c -0.0875,0.04833 -3.59022,1.645004 -3.68053,1.700741 -0.0903,0.05539 -0.12206,0.0695 -0.13793,0.137584 -0.0155,0.06809 -0.0236,0.10795 -0.0275,0.118888 -0.0176,0.04551 -0.03,0.101952 0.10301,0.01939 0.0413,-0.02612 3.56129,-1.630892 3.63573,-1.677811 0.0741,-0.04692 0.11853,-0.06385 0.14993,-0.134408 0.031,-0.0702 0.0392,-0.0829 0.0561,-0.132292 0.0183,-0.05221 0.0363,-0.107598 -0.0988,-0.0321 m 9.537,0.801158 c -0.0346,0.08431 -0.17886,0.375005 -0.15699,0.71755 0.005,0.07902 0.0575,0.233188 0.17674,0.237421 0.0617,-2.64e-4 0.14146,-0.04516 0.19791,-0.238479 0.01,-0.04374 0.0159,-0.07902 0.0201,-0.09631 0.006,-0.02612 -0.0134,-0.05715 -0.0332,0.0028 -0.0452,0.118885 -0.16228,0.201435 -0.25012,0.04233 -0.0141,-0.0314 -0.0734,-0.175683 0.0353,-0.490715 0.0219,-0.06138 0.0494,-0.152045 0.0494,-0.152045 0.0243,-0.06915 -0.005,-0.106892 -0.0391,-0.02257 m -9.39342,0.0508 c -0.0335,0.08185 -0.17251,0.364421 -0.14993,0.696738 0.006,0.07655 0.0568,0.226483 0.17251,0.23001 0.06,-2.65e-4 0.13723,-0.0441 0.1912,-0.232482 0.01,-0.04233 0.0152,-0.07655 0.019,-0.09313 0.006,-0.02574 -0.0127,-0.05574 -0.0321,0.0024 -0.0434,0.115359 -0.15663,0.196496 -0.24236,0.04233 -0.0138,-0.03034 -0.0723,-0.170392 0.0321,-0.476605 0.0212,-0.05962 0.0476,-0.148167 0.0476,-0.148167 0.0236,-0.06703 -0.005,-0.103362 -0.0381,-0.02117 m 12.70071,0.122415 c -0.0321,0.07832 -0.16546,0.347133 -0.14499,0.664281 0.005,0.07338 0.0533,0.2159 0.16333,0.219779 0.0575,0 0.13088,-0.04163 0.18345,-0.220837 0.009,-0.04057 0.0145,-0.07303 0.0183,-0.0889 0.006,-0.02434 -0.012,-0.05292 -0.0307,0.0024 -0.0416,0.109715 -0.15028,0.186618 -0.23142,0.03916 -0.0134,-0.02893 -0.0681,-0.162631 0.0324,-0.454377 0.0205,-0.05645 0.0459,-0.140758 0.0459,-0.140758 0.0226,-0.06386 -0.004,-0.09878 -0.0363,-0.02082 m -6.20642,0.0085 -0.16863,0.230717 -0.32314,-0.235657 c -0.008,-0.0056 -0.019,-0.0035 -0.0254,0.0049 l -0.19544,0.267406 c -0.006,0.0085 -0.004,0.02011 0.004,0.02611 l 0.33303,0.242358 c 0.008,0.006 0.0194,0.0039 0.0257,-0.0046 l 0.16793,-0.230717 0.32314,0.235302 c 0.008,0.006 0.0198,0.0039 0.0261,-0.0046 l 0.19474,-0.267407 c 0.006,-0.0085 0.005,-0.02011 -0.003,-0.02611 l -0.33267,-0.242713 c -0.008,-0.0056 -0.0194,-0.0035 -0.0257,0.0049 m -12.12356,0.289277 c -0.0332,0.08185 -0.1718,0.364421 -0.14958,0.696737 0.006,0.07655 0.0572,0.226129 0.17251,0.229659 0.06,-2.65e-4 0.13688,-0.04445 0.19121,-0.232482 0.01,-0.04233 0.0152,-0.07655 0.0191,-0.09313 0.006,-0.0254 -0.0131,-0.05539 -0.0325,0.0024 -0.043,0.115713 -0.15663,0.19685 -0.24201,0.04269 -0.0141,-0.03069 -0.0723,-0.170392 0.0325,-0.476604 0.0208,-0.05927 0.0473,-0.147813 0.0473,-0.147813 0.0236,-0.06703 -0.005,-0.103364 -0.0384,-0.02151 m 13.42672,0.126648 c -0.013,0.04551 -0.0459,0.240242 -0.0536,0.279752 -0.008,0.04022 -0.007,0.08008 0.0127,0.1143 0.0198,0.03422 0.0702,0.152754 0.10689,0.249063 0.0363,0.09631 0.41452,0.824087 0.44909,0.888645 0.0349,0.06421 0.042,0.112538 0.007,0.155223 -1.21285,1.279525 -3.55317,2.066573 -3.62761,2.109965 -0.0751,0.04339 -0.0554,0.07726 0.0709,0.05503 0.18838,-0.03316 1.23931,-0.208846 1.53917,-0.353131 0.19791,-0.09525 0.88794,-0.434269 1.45238,-0.876652 -0.0159,0.1143 -0.0307,0.28222 -0.0222,0.4953 0.0378,1.029404 0.95815,0.858308 1.1998,0.805392 0.72355,-0.15875 1.60866,-1.15923 1.68381,-1.359959 0.0741,-0.198614 0.085,-0.379941 0.0684,-0.537633 0.19014,-0.103365 0.59972,-0.433213 0.59972,-0.433213 0.0166,0.438505 0.36583,0.570796 0.47342,0.589492 0.50377,0.07655 0.75601,-0.34431 0.86325,-0.480835 0.0914,0.240593 0.31221,0.28716 0.42545,0.309739 0.43462,0.08643 0.51894,-0.220839 0.54152,-0.291041 0.13617,-0.423334 -0.10937,-0.739423 -0.14076,-0.774348 -0.0317,-0.03528 -0.0476,-0.0013 -0.0589,0.03916 -0.0106,0.04057 -0.0459,0.193323 -0.0677,0.288925 0,0 0.0903,0.147815 0.12312,0.223308 0.0324,0.07549 -0.0162,0.116769 -0.10936,0.128059 -0.26423,0.0321 -0.47484,-0.11924 -0.54787,-0.18909 -0.0727,-0.06985 0.006,-0.193321 0.0646,-0.341135 0.0469,-0.117827 -0.0402,-0.132292 -0.10654,-2.65e-4 -0.22401,0.589137 -0.53904,0.652637 -0.62159,0.675217 -0.74613,0.2032 -0.68192,-0.478722 -0.6791,-0.59055 0.003,-0.111832 -0.079,-0.07056 -0.1711,0.0032 -0.31397,0.252235 -0.56691,0.40005 -0.70273,0.460727 -0.11712,-0.228952 -0.28751,-0.372534 -0.35913,-0.424392 -0.8075,-0.588785 -0.87383,0.599368 -0.84949,0.726368 0.12313,0.50518 0.94757,0.199322 1.07739,0.183799 0.12911,-0.01516 0.0868,0.155575 0.0145,0.257175 -0.17921,0.250118 -0.38594,0.429683 -0.57256,0.582083 -0.8001,0.65264 -1.20156,0.601133 -1.32503,0.5969 -0.78564,-0.02188 -0.71332,-0.86854 -0.66957,-1.04916 0.236,-0.200025 0.4392,-0.41769 0.55703,-0.641705 0.0483,-0.122767 0.13088,-0.40146 -0.0183,-0.751768 -0.0787,-0.153811 -0.32667,-0.585965 -0.32667,-0.585965 0,0 0.18238,0.0056 0.19967,0.0053 0.0177,-2.64e-4 0.0519,-0.01834 0.008,-0.06949 -0.0445,-0.05116 -0.42757,-0.433213 -0.45085,-0.463905 -0.0229,-0.03069 -0.0444,-0.05327 -0.0572,-0.0078 m 2.42217,1.7526 c 0,0 -0.11007,0.06315 -0.41734,0.04233 -0.25823,-0.01728 -0.23565,-0.117475 -0.20037,-0.155575 0.0381,-0.04198 0.35383,-0.240242 0.61771,0.113241 m -11.67589,-1.588558 c -0.0346,0.131585 -0.18485,0.587375 -0.12629,1.110192 0.0138,0.121001 0.0924,0.353483 0.23918,0.35066 0.0755,-0.0046 0.16934,-0.07902 0.22049,-0.379942 0.008,-0.06773 0.0124,-0.12206 0.0159,-0.148518 0.005,-0.04092 -0.0212,-0.08678 -0.0406,0.0063 -0.0444,0.185208 -0.18027,0.321026 -0.30304,0.08361 -0.0201,-0.04727 -0.10619,-0.263525 -0.002,-0.754592 0.0212,-0.09525 0.0462,-0.236715 0.0462,-0.236715 0.024,-0.107243 -0.0155,-0.162983 -0.0501,-0.03104 m 8.35907,0.164042 c -0.0529,0.06597 -0.5895,0.76976 -0.5895,0.76976 L 133.603,40.35933 c 0,0 0.15875,-0.03986 0.18661,-0.04833 0.0275,-0.0081 0.0434,-0.04374 -0.006,-0.0695 -0.0501,-0.02574 -0.52034,-0.213077 -0.55632,-0.227542 -0.0356,-0.01447 -0.0483,-0.03069 -0.0515,0.0074 -0.003,0.0381 -0.009,0.347488 -0.009,0.347488 0,0 -0.007,0.02151 0.0339,0.0448 0.0409,0.02328 0.0815,0.07338 0.115,0.106891 0.0335,0.03352 0.47096,0.378884 0.49248,0.391232 0,0 -0.21872,0.384175 -0.24659,0.685093 -0.0279,0.300919 0.005,0.716492 0.41627,0.582435 0.11113,-0.03175 0.5715,-0.215193 0.67451,-0.53622 0.0335,-0.118181 0.12842,-0.332317 -0.0261,-0.548923 -0.0889,-0.127352 -0.44873,-0.342548 -0.44873,-0.342548 0,0 0.27622,-0.382059 0.30233,-0.428625 0.0265,-0.04657 0.12805,-0.3429 0.13934,-0.414512 0.0113,-0.07126 0.0169,-0.107247 -0.0367,-0.04092 m -0.0942,1.622776 c -0.15275,0.12559 -0.47378,0.291397 -0.56409,0.300215 -0.0903,0.0088 -0.32985,-0.03528 -0.22578,-0.280458 0.036,-0.07973 0.27552,-0.48895 0.27552,-0.48895 0.0889,0.04903 0.66711,0.343252 0.51435,0.469193 m -5.85364,-1.083026 -0.19403,0.268464 c -0.006,0.0085 -0.005,0.02011 0.004,0.02574 l 0.33338,0.241652 c 0.008,0.0056 0.0198,0.0035 0.0257,-0.0046 l 0.19438,-0.268465 c 0.006,-0.0085 0.005,-0.02011 -0.004,-0.02611 l -0.33337,-0.2413 c -0.008,-0.0056 -0.0198,-0.0039 -0.0258,0.0046 m -3.73027,0.174977 c -0.1464,0.230013 -0.13617,0.518231 -0.13441,0.839965 -0.0279,-0.06526 -0.18803,-0.486127 -0.61947,-0.702382 -0.0314,-0.01588 -0.09,0.02222 -0.0885,0.123825 7.9e-4,0.05927 -0.005,0.203555 0.037,0.2413 0.0423,0.0381 0.16369,0.109363 0.1838,0.11924 0.0201,0.0099 0.0409,0.0099 0.0455,-0.01516 0.004,-0.02506 0.0257,-0.08396 0.0663,-0.04551 0.0342,0.03175 0.25082,0.196144 0.38417,0.56797 0.0219,0.04868 0.066,0.0508 0.0709,-0.02117 0.012,-0.177094 0.003,-0.483304 0.0102,-0.576437 0.009,-0.130882 0.048,-0.402873 0.21308,-0.275167 0.0374,0.02928 0.0776,0.06844 0.0776,0.06844 0.0363,0.04163 0.0811,0.0889 0.0974,0.03669 0.0251,-0.07867 0.0402,-0.207785 0.002,-0.273757 -0.0169,-0.02963 -0.22719,-0.273753 -0.34572,-0.08784 m -2.64337,0.371829 c -0.20355,0.157692 -0.67274,0.613127 -0.46143,0.826204 0.12242,0.09948 0.17745,0.148167 0.17745,0.148167 -0.0575,0.02188 -0.10619,0.07691 -0.14076,0.146404 -0.0346,0.0695 -0.0399,0.08502 -0.0575,0.124529 -0.018,0.03986 -0.0279,0.09313 0.0691,0.03775 0.097,-0.05503 0.32773,-0.274108 0.94968,-0.410985 0.0857,-0.01799 0.16157,-0.159808 0.16157,-0.159808 0.0367,-0.05962 0.10866,-0.198615 -0.0123,-0.130175 -0.12136,0.06844 -0.44556,0.165803 -0.59055,0.137935 -0.14429,-0.02787 -0.31503,-0.1524 -0.35243,-0.212019 -0.0374,-0.05927 -0.0324,-0.126296 0.0822,-0.192264 0.11465,-0.06597 0.23918,-0.111125 0.32702,0.03493 0.0162,0.02468 0.0353,0.02363 0.0723,-0.01342 0.037,-0.03704 0.11113,-0.140404 0.13088,-0.170037 0.0198,-0.02999 0.0356,-0.07902 0.005,-0.115358 -0.0307,-0.03598 -0.15699,-0.20955 -0.36019,-0.05186 m 7.85284,0.334079 c -0.036,0.08537 -0.18874,0.380296 -0.16404,0.727075 0.006,0.08008 0.0621,0.236009 0.18909,0.23989 0.066,-7.94e-4 0.15028,-0.04622 0.2099,-0.242358 0.0102,-0.04445 0.0169,-0.08008 0.0212,-0.09772 0.006,-0.02646 -0.0145,-0.05786 -0.0356,0.0032 -0.0476,0.119944 -0.1718,0.20461 -0.26599,0.0441 -0.0155,-0.0321 -0.0787,-0.1778 0.0356,-0.497417 0.0229,-0.06209 0.0522,-0.154517 0.0522,-0.154517 0.0261,-0.06985 -0.005,-0.10795 -0.0423,-0.02222 m 10.6052,0.763765 c -0.0314,0.08643 -0.043,0.142875 -0.0402,0.175683 0.003,0.03316 0.0145,0.1397 0.0145,0.1397 -0.0317,0.02574 -0.16827,0.110773 -0.3055,0.01024 0.01,-0.02928 0.0268,-0.0889 0.031,-0.121357 0.0148,-0.0508 -0.0162,-0.08819 -0.0413,-0.03598 -0.0247,0.05257 -0.0825,0.228248 -0.12594,0.267758 -0.0434,0.03951 -0.0935,0.184502 -0.41945,0.03704 -0.0568,-0.02188 -0.15699,-0.09596 -0.31256,0.06068 -0.35278,0.327731 -0.5962,0.353131 -0.99131,0.49389 -0.048,0.02188 -0.14816,0.09701 -0.0293,0.08537 0.11924,-0.01199 0.62054,2.64e-4 0.89324,-0.312915 0.0568,-0.05539 0.12241,-0.201435 0.33866,-0.116769 0.1203,0.04551 0.34184,0.235654 0.5835,-0.140054 0.14252,0.0949 0.35877,0.0568 0.39334,-0.04762 0.0349,-0.104775 0.0741,-0.208844 0.0737,-0.280104 -2.7e-4,-0.07091 -0.006,-0.164748 -0.006,-0.164748 -0.005,-0.05644 -0.0247,-0.136877 -0.0561,-0.0508 m -17.5588,0.149931 c -0.0639,0.04551 -1.13418,0.458611 -1.19945,0.509762 -0.0653,0.0508 -0.0889,0.06456 -0.0953,0.11924 -0.006,0.05433 -0.009,0.08608 -0.0109,0.0949 -0.01,0.03669 -0.0145,0.08184 0.0818,0.0056 0.03,-0.02328 1.11231,-0.444852 1.16629,-0.48754 0.0536,-0.04269 0.0868,-0.05997 0.10477,-0.117827 0.0183,-0.0575 0.0233,-0.06773 0.0324,-0.107598 0.01,-0.04233 0.019,-0.08714 -0.0797,-0.01659 m 0.1531,0.715433 c -0.0243,0.03245 -0.042,0.05927 -0.0519,0.07197 -0.0148,0.01939 -0.008,0.05292 0.0303,0.01058 0.0826,-0.08149 0.21626,-0.105833 0.23883,0.05927 10e-4,0.0314 0.004,0.173918 -0.20425,0.394052 -0.0409,0.04268 -0.0977,0.107598 -0.0977,0.107598 -0.0462,0.04798 -0.0335,0.09031 0.0272,0.03351 0.0607,-0.05715 0.29175,-0.243417 0.39229,-0.536221 0.0233,-0.06738 0.031,-0.215196 -0.0741,-0.263879 -0.055,-0.02294 -0.14182,-0.01622 -0.26071,0.123121 m 4.38221,-0.0762 -0.19438,0.268462 c -0.006,0.0085 -0.005,0.02011 0.004,0.02574 l 0.33337,0.241652 c 0.008,0.0056 0.0198,0.0035 0.0258,-0.0046 l 0.19402,-0.268465 c 0.006,-0.0085 0.005,-0.02011 -0.004,-0.02611 l -0.33337,-0.2413 c -0.008,-0.006 -0.0201,-0.0039 -0.0257,0.0046 m -1.61749,0.06456 -0.16757,0.231421 -0.32385,-0.234244 c -0.008,-0.006 -0.0198,-0.0039 -0.0257,0.0046 l -0.19403,0.268112 c -0.006,0.0088 -0.005,0.02045 0.004,0.02611 l 0.33338,0.241654 c 0.008,0.0056 0.0198,0.0035 0.0261,-0.0046 l 0.16757,-0.231775 0.3235,0.234246 c 0.008,0.006 0.0198,0.0039 0.0257,-0.0046 l 0.19438,-0.26811 c 0.006,-0.0088 0.005,-0.02045 -0.004,-0.02612 l -0.33382,-0.241334 c -0.008,-0.0056 -0.0198,-0.0035 -0.0257,0.0049 m 2.44122,0.47766 c -0.0639,0.04551 -1.13383,0.45861 -1.19945,0.509765 -0.0653,0.0508 -0.0889,0.06456 -0.0949,0.119237 -0.006,0.05433 -0.01,0.08608 -0.0116,0.0949 -0.009,0.03704 -0.0141,0.08184 0.0822,0.006 0.03,-0.024 1.11266,-0.445207 1.16664,-0.487892 0.0533,-0.04269 0.0864,-0.05997 0.10442,-0.117829 0.0183,-0.0575 0.0236,-0.06773 0.0325,-0.107596 0.01,-0.04233 0.0187,-0.08714 -0.0797,-0.01659"
       style="fill:#231f20;fill-opacity:1;fill-rule:evenodd;stroke:none;stroke-width:0.264583"
       id="path1-40" />
  </g>
</svg>
