<?xml version="1.0" encoding="UTF-8" standalone="no"?>
<!-- Created with Inkscape (http://www.inkscape.org/) -->

<svg
   width="14.501327mm"
   height="6.4654527mm"
   viewBox="0 0 14.501327 6.4654527"
   version="1.1"
   id="svg1"
   xmlns:inkscape="http://www.inkscape.org/namespaces/inkscape"
   xmlns:sodipodi="http://sodipodi.sourceforge.net/DTD/sodipodi-0.dtd"
   xmlns="http://www.w3.org/2000/svg"
   xmlns:svg="http://www.w3.org/2000/svg">
  <sodipodi:namedview
     id="namedview1"
     pagecolor="#ffffff"
     bordercolor="#666666"
     borderopacity="1.0"
     inkscape:showpageshadow="2"
     inkscape:pageopacity="0.0"
     inkscape:pagecheckerboard="0"
     inkscape:deskcolor="#d1d1d1"
     inkscape:document-units="mm" />
  <defs
     id="defs1" />
  <g
     inkscape:label="Layer 1"
     inkscape:groupmode="layer"
     id="layer1"
     transform="translate(-115.28039,-22.757762)">
    <path
       d="m 120.3579,22.777624 c -0.0162,0.03951 -0.11218,0.30339 -0.11218,0.30339 0.0261,0.17145 0.19826,1.607608 0.21343,1.733198 0.009,0.07479 0.12523,0.843492 0.22189,1.575504 -0.34184,-0.03457 -0.72495,-0.0956 -1.09149,-0.202142 0.008,-0.07514 0.0642,-0.338666 0.0452,-0.545041 -0.019,-0.207079 -0.31504,-1.940277 -0.31504,-1.940277 0,0 0.19756,0.184856 0.22931,0.218723 0.0318,0.03351 0.0702,0.01588 0.0519,-0.0381 -0.018,-0.05397 -0.42157,-1.030465 -0.43462,-1.064332 -0.013,-0.03387 -0.0261,-0.05856 -0.0427,-0.01939 -0.0159,0.03916 -0.11218,0.303388 -0.11218,0.303388 0.013,0.08431 0.14957,1.096433 0.30374,2.079273 0.0113,0.07338 0.15416,0.783873 0.12771,0.799041 -0.13865,0.07867 -0.89077,0.05997 -1.01142,0.19544 -0.0339,0.04515 -0.1203,0.244475 -0.13123,0.281869 -0.0116,0.03775 0.0261,0.05644 0.0561,0.04127 0.0303,-0.01482 0.47025,-0.172861 1.44427,0.184502 -0.1397,0.06032 -1.1818,0.606779 -1.94028,0.229306 -0.1277,-0.0635 -0.69038,-0.366183 -0.33937,-1.474258 0.24836,-0.118886 0.4946,-0.234244 0.4946,-0.234244 0,0 0.11712,-0.326321 0.0868,-0.344313 -0.03,-0.01799 -1.06257,-0.215545 -2.16782,-0.119943 -0.0963,0.01198 -0.57467,0.03316 -0.647,0.443441 -0.0314,0.177094 0.0448,0.350661 0.1524,0.431448 0.0755,0.05644 0.35666,0.194027 0.60996,0.422627 -0.0938,0.09278 -0.17745,0.189442 -0.24377,0.288219 -0.0466,0.06879 -0.2787,0.411692 -0.37571,1.159581 -0.0501,0.46355 0.0268,0.975432 0.44132,1.356432 0.13441,0.10936 0.47873,0.432504 1.57093,0.373943 0.16827,-0.0127 0.72248,-0.04198 1.43262,-0.361243 0.17639,-0.09243 0.20603,-0.11783 -0.0755,-0.0882 -0.28187,0.02928 -1.77306,0.214137 -2.60879,-0.147109 -0.18062,-0.08396 -0.72249,-0.5461 -0.58808,-1.28552 0.0123,-0.135467 0.0956,-0.646996 0.61101,-1.128184 0.0466,0.05468 0.09,0.113242 0.1277,0.176036 0.0212,0.02998 0.0504,0.02963 0.0533,-0.05151 0.002,-0.04409 0.006,-0.134408 -0.0353,-0.250118 0.18203,-0.144992 0.40816,-0.283986 0.68827,-0.405342 0.055,-0.03175 0.17886,-0.09384 0.31997,-0.162277 -0.0727,0.291746 -0.37677,1.477433 0.46954,1.843969 0.16087,0.06985 0.96661,0.262466 2.01154,-0.311857 0.14076,-0.07726 0.34784,-0.186266 0.88583,-0.233891 0.0402,0.333375 0.0702,0.624416 0.0751,0.790223 -0.005,0.05891 0.0212,0.08078 0.0483,0.02434 0.0187,-0.03951 0.11394,-0.238125 0.0959,-0.829381 0.1711,-0.0081 0.36795,-0.01164 0.59832,-0.0067 l 0.16897,-0.357717 c -0.12241,0.0021 -0.41733,0.0056 -0.79092,-0.02082 -0.0169,-0.184854 -0.0423,-0.395463 -0.0804,-0.636763 -0.0159,-0.117123 -0.29562,-2.093383 -0.29562,-2.093383 0,0 0.1972,0.185208 0.22895,0.218721 0.0318,0.03351 0.0702,0.01588 0.0519,-0.0381 -0.018,-0.05398 -0.42192,-1.030463 -0.43498,-1.064329 -0.013,-0.03387 -0.0257,-0.05821 -0.0423,-0.01939 m -2.9785,2.366433 c -0.0759,0.02717 -0.66922,0.324908 -1.14089,0.72249 -0.0307,-0.03881 -0.0656,-0.07832 -0.10865,-0.11924 -0.16193,-0.164745 -0.57997,-0.436385 -0.61242,-0.460727 -0.0116,-0.0088 -0.0473,-0.03246 10e-4,-0.0695 0.0487,-0.03669 0.66499,-0.282927 1.86055,-0.07303 m 4.65949,-2.120545 c -0.0702,0.106185 -0.12171,0.362653 -0.0219,0.435327 0.0998,0.07373 0.24623,0.132998 0.24623,0.132998 -0.46566,0.570441 -0.78422,0.67945 -1.05692,0.838903 -0.0702,0.04128 -0.0564,0.07832 -0.0152,0.06703 0.0212,-0.0056 0.38806,-0.0628 0.81563,-0.387705 0.23177,-0.175683 0.37182,-0.47625 0.37182,-0.47625 0,0 0.11607,0.09701 0.13124,0.116417 0.0356,0.04339 0.0547,0.07585 0.0716,0.02963 0.0607,-0.168626 -0.0257,-0.270578 -0.1076,-0.323143 0,0 0.0854,-0.263173 -0.0716,-0.527402 -0.0265,-0.0441 -0.18239,-0.185563 -0.36336,0.09419 m 0.24412,0.07267 c 0.10442,0.09737 0.0889,0.257882 0.0847,0.294571 0,0 -0.13406,-0.06315 -0.19438,-0.0889 -0.0596,-0.0254 -0.091,-0.0635 -0.0635,-0.1016 0.0924,-0.129823 0.13758,-0.125237 0.17321,-0.104071 m 6.27874,0.02294 c -0.0702,0.106185 -0.12242,0.362656 -0.0226,0.435326 0.10019,0.07373 0.24659,0.132999 0.24659,0.132999 -0.46602,0.570793 -1.38077,0.976841 -1.59843,1.146526 -0.0646,0.04904 -0.0561,0.07797 -0.0148,0.06668 0.0363,-0.0095 0.73272,-0.20461 1.37019,-0.750358 0.29175,-0.250118 0.28434,-0.268817 0.35878,-0.420862 0.0628,0.03281 0.10618,0.08537 0.13123,0.116417 0.0349,0.04339 0.0543,0.07585 0.0709,0.02963 0.061,-0.16863 -0.0251,-0.270581 -0.1076,-0.323146 0,0 0.0854,-0.263171 -0.0716,-0.527402 -0.0261,-0.0441 -0.18203,-0.18556 -0.36265,0.09419 m 0.24342,0.07267 c 0.10477,0.09737 0.0889,0.257878 0.0843,0.294568 0,0 -0.1337,-0.06315 -0.19332,-0.0889 -0.06,-0.02574 -0.0917,-0.0635 -0.0639,-0.1016 0.0924,-0.129823 0.13794,-0.125235 0.17287,-0.104068 m -1.78859,-0.165455 c -0.18309,0.232482 -0.19473,0.53834 -0.21907,0.87983 -0.0258,-0.07162 -0.17251,-0.528815 -0.63959,-0.79093 -0.0335,-0.01905 -0.10301,0.01693 -0.10901,0.124532 -0.005,0.06279 -0.0222,0.215193 0.0219,0.258585 0.0441,0.04304 0.17498,0.128058 0.19685,0.1397 0.0219,0.01236 0.0455,0.01376 0.0522,-0.01236 0.007,-0.02612 0.036,-0.08678 0.0787,-0.04339 0.0353,0.03634 0.266,0.226835 0.38559,0.630767 0.0208,0.05327 0.0706,0.05856 0.0815,-0.01765 0.0279,-0.186619 0.0427,-0.511175 0.0575,-0.609248 0.0212,-0.138642 0.0871,-0.423333 0.26212,-0.275167 0.0399,0.03351 0.0822,0.07796 0.0822,0.07796 0.037,0.04657 0.0836,0.10019 0.10653,0.04622 0.0342,-0.08185 0.0621,-0.216959 0.0243,-0.289984 -0.0166,-0.03246 -0.23354,-0.307271 -0.38171,-0.118887 m -8.83214,0.01659 c -0.18345,0.233185 -0.19509,0.538692 -0.21943,0.880181 -0.0261,-0.07197 -0.17216,-0.529166 -0.63959,-0.791281 -0.0342,-0.01905 -0.10301,0.01728 -0.10936,0.124883 -0.004,0.06279 -0.0219,0.215194 0.0226,0.258586 0.0441,0.04304 0.17463,0.128058 0.1965,0.1397 0.0219,0.01198 0.0455,0.01376 0.0519,-0.01236 0.007,-0.02611 0.0367,-0.08678 0.079,-0.04304 0.0353,0.03598 0.266,0.226483 0.38559,0.630414 0.0208,0.05327 0.0702,0.05856 0.0815,-0.01765 0.0279,-0.186619 0.0427,-0.511175 0.0579,-0.6096 0.0208,-0.137935 0.0868,-0.422982 0.26177,-0.275167 0.0399,0.03352 0.0822,0.07796 0.0822,0.07796 0.037,0.04727 0.0836,0.100187 0.10619,0.04657 0.0346,-0.08149 0.0624,-0.216959 0.0247,-0.290338 -0.0166,-0.03245 -0.23354,-0.306917 -0.38135,-0.118886 m 7.03192,-0.02787 c -0.0674,0.03986 -1.78788,1.032227 -1.85737,1.077383 -0.0699,0.0448 -0.0946,0.05644 -0.10549,0.110067 -0.0113,0.05362 -0.0169,0.08502 -0.0201,0.09349 -0.0124,0.03633 -0.0215,0.08043 0.0811,0.01341 0.0325,-0.02082 1.76212,-1.020587 1.8228,-1.058333 0.0582,-0.03634 0.0917,-0.05186 0.115,-0.107598 0.0233,-0.05574 0.0293,-0.06562 0.0416,-0.104423 0.0134,-0.04128 0.0265,-0.08537 -0.0776,-0.024 m -8.78875,0.232834 c -0.0254,0.07937 -0.0444,0.140758 -0.0102,0.231775 0.0346,0.09066 0.12771,0.296333 0.14323,0.325612 0.0152,0.02963 0.0191,0.0628 -0.0321,0.08467 -0.0508,0.02151 -0.28504,0.07126 -0.32808,-0.1778 -0.0437,-0.249412 -0.0476,-0.322085 -0.0695,-0.364418 -0.0215,-0.04198 -0.042,-0.04727 -0.0589,-0.0049 -0.0162,0.04198 -0.0268,0.129117 -0.0293,0.14323 -0.002,0.01376 -0.002,0.02434 0.006,0.03951 0.009,0.01553 0.10231,0.293865 0.0603,0.370768 -0.042,0.07655 -0.25188,0.21449 -0.36195,0.07021 -0.0526,-0.100896 -0.0201,-0.356658 -0.0201,-0.416631 0,-0.06032 -0.0194,-0.08079 -0.0448,-0.0321 -0.0254,0.04868 -0.0395,0.08078 -0.0384,0.124177 0.001,0.04339 0.008,0.23001 0.004,0.288573 -0.004,0.05891 0,0.249412 0.11289,0.303035 0.11253,0.05397 0.27587,0.0039 0.39969,-0.23001 0.0963,0.139345 0.24201,0.1397 0.31997,0.111125 0.0663,-0.024 0.14041,-0.123825 0.16228,-0.262115 0.0215,-0.137935 -0.0141,-0.232482 -0.0575,-0.310444 -0.0575,-0.09596 -0.096,-0.256823 -0.096,-0.256823 -0.0204,-0.05786 -0.0356,-0.116416 -0.0614,-0.03739 m 9.11895,1.122185 c -0.0346,0.08396 -0.1785,0.375002 -0.15663,0.717198 0.005,0.07902 0.0575,0.233185 0.17674,0.23777 0.0614,-2.64e-4 0.14111,-0.04515 0.19791,-0.238828 0.01,-0.04375 0.0159,-0.07902 0.0201,-0.09596 0.006,-0.02646 -0.0131,-0.0575 -0.0335,0.0024 -0.0448,0.118888 -0.16192,0.20179 -0.24976,0.04269 -0.0141,-0.03175 -0.0737,-0.175683 0.0353,-0.491066 0.0219,-0.06103 0.0494,-0.152048 0.0494,-0.152048 0.0247,-0.06914 -0.005,-0.10654 -0.0395,-0.02222 m 3.30775,0.173315 c -0.0321,0.07796 -0.16545,0.347133 -0.14499,0.663927 0.004,0.07338 0.0529,0.216252 0.16369,0.220133 0.0568,-2.65e-4 0.13088,-0.04163 0.18273,-0.221192 0.01,-0.04022 0.0148,-0.07267 0.0183,-0.0889 0.006,-0.024 -0.012,-0.05292 -0.0307,0.0028 -0.0416,0.109713 -0.14993,0.186267 -0.23107,0.03916 -0.013,-0.02928 -0.0681,-0.162984 0.0325,-0.45438 0.0201,-0.0568 0.0459,-0.14111 0.0459,-0.14111 0.0226,-0.06385 -0.004,-0.09842 -0.0363,-0.02045 m -6.72395,0.0085 -0.19473,0.267404 c -0.006,0.0085 -0.005,0.02011 0.003,0.02574 l 0.33302,0.243062 c 0.008,0.0056 0.0194,0.0035 0.0254,-0.0049 l 0.16827,-0.230717 0.32315,0.235654 c 0.008,0.0056 0.0198,0.0035 0.0261,-0.0049 l 0.19438,-0.267406 c 0.007,-0.0085 0.005,-0.02011 -0.003,-0.02574 l -0.33302,-0.243065 c -0.008,-0.006 -0.0194,-0.0039 -0.0257,0.0049 l -0.16828,0.230716 -0.32279,-0.235656 c -0.008,-0.006 -0.0198,-0.0039 -0.0261,0.0049 m -3.09351,0.535163 c -0.0702,0.03493 -1.14265,0.508354 -1.21497,0.548923 -0.0723,0.04057 -0.0977,0.05045 -0.11218,0.103364 -0.0145,0.05292 -0.0219,0.08361 -0.0257,0.09208 -0.0145,0.03528 -0.0265,0.07902 0.0801,0.01834 0.0332,-0.01871 1.11902,-0.498475 1.17864,-0.532342 0.0596,-0.03422 0.0952,-0.04586 0.12206,-0.100189 0.0268,-0.05397 0.0335,-0.0635 0.0483,-0.101952 0.0155,-0.03987 0.0314,-0.08255 -0.0762,-0.02822 m 4.91419,-0.119238 c -0.0134,0.04515 -0.0455,0.239888 -0.0536,0.279752 -0.008,0.03986 -0.007,0.07973 0.0124,0.1143 0.0198,0.03387 0.0706,0.152752 0.10725,0.248709 0.0363,0.09666 0.41451,0.824089 0.44909,0.888648 0.0349,0.06456 0.0423,0.112535 0.007,0.15522 -1.21285,1.27988 -3.55282,2.066573 -3.62796,2.109965 -0.0748,0.04374 -0.055,0.07726 0.0713,0.05538 0.18803,-0.03316 1.23966,-0.208843 1.53881,-0.353129 0.19791,-0.0956 0.8883,-0.434271 1.45239,-0.876654 -0.0155,0.1143 -0.03,0.281871 -0.0219,0.4953 0.0377,1.029054 0.95814,0.858308 1.19944,0.805392 0.7239,-0.159102 1.60867,-1.159227 1.68416,-1.360311 0.0741,-0.19826 0.085,-0.379589 0.0681,-0.537281 0.19085,-0.103362 0.60007,-0.43321 0.60007,-0.43321 0.0166,0.438856 0.36583,0.570441 0.47343,0.589491 0.50377,0.0762 0.756,-0.344664 0.86289,-0.480835 0.0917,0.240242 0.31221,0.286808 0.42545,0.309737 0.43498,0.08643 0.51929,-0.220837 0.54187,-0.291041 0.13617,-0.423686 -0.10936,-0.739421 -0.14076,-0.7747 -0.0318,-0.03492 -0.048,-0.0013 -0.0586,0.03916 -0.0109,0.04092 -0.0466,0.193675 -0.0681,0.289279 0,0 0.0907,0.147813 0.12276,0.223309 0.0325,0.07549 -0.0155,0.116416 -0.109,0.127704 -0.26424,0.03246 -0.4752,-0.118886 -0.54787,-0.188736 -0.0723,-0.06985 0.006,-0.193323 0.0649,-0.341135 0.0466,-0.118181 -0.0406,-0.132292 -0.10689,-2.64e-4 -0.22437,0.588787 -0.53869,0.652287 -0.62159,0.675216 -0.74613,0.2032 -0.68157,-0.47907 -0.67945,-0.59055 0.003,-0.111829 -0.0787,-0.07055 -0.17075,0.0032 -0.31397,0.251884 -0.56691,0.40005 -0.70273,0.46073 -0.11712,-0.228955 -0.28716,-0.372534 -0.35913,-0.424746 -0.80751,-0.588786 -0.87383,0.599371 -0.84949,0.726723 0.12277,0.505177 0.94791,0.198966 1.07703,0.183443 0.12912,-0.01482 0.0871,0.15593 0.0145,0.25753 -0.17921,0.250118 -0.38558,0.429329 -0.57255,0.582083 -0.79975,0.652637 -1.20121,0.601133 -1.32469,0.5969 -0.78563,-0.02222 -0.71366,-0.868188 -0.66992,-1.049163 0.23636,-0.200377 0.43956,-0.418041 0.55739,-0.642054 0.048,-0.122414 0.13123,-0.401462 -0.0187,-0.751416 -0.0787,-0.154165 -0.32596,-0.585965 -0.32596,-0.585965 0,0 0.18238,0.0056 0.19932,0.0053 0.0173,-2.65e-4 0.0519,-0.01834 0.008,-0.0695 -0.0441,-0.05115 -0.42757,-0.433563 -0.4505,-0.464254 -0.0236,-0.03069 -0.0444,-0.05257 -0.0575,-0.0074 m 2.42217,1.752246 c 0,0 -0.11006,0.06315 -0.41769,0.04269 -0.25752,-0.01728 -0.23565,-0.117475 -0.20002,-0.15593 0.0381,-0.04127 0.35383,-0.240241 0.61771,0.113242 m -3.31681,-1.424517 c -0.0533,0.06632 -0.58985,0.769763 -0.58985,0.769763 l -0.38982,-0.27799 c 0,0 0.1591,-0.03986 0.18662,-0.04798 0.0279,-0.0081 0.0438,-0.0441 -0.006,-0.06985 -0.0501,-0.0254 -0.52034,-0.213079 -0.55633,-0.227541 -0.0356,-0.01447 -0.0483,-0.03069 -0.0519,0.0074 -0.003,0.0381 -0.008,0.347485 -0.008,0.347485 0,0 -0.007,0.02188 0.0335,0.04516 0.0409,0.02328 0.0815,0.07302 0.11465,0.106891 0.0339,0.03351 0.47096,0.378529 0.49248,0.390877 0,0 -0.21873,0.384527 -0.24624,0.685094 -0.0282,0.301273 0.005,0.716492 0.41628,0.582438 0.11077,-0.0314 0.57185,-0.214842 0.67486,-0.535871 0.0332,-0.118534 0.12806,-0.332317 -0.0265,-0.549275 -0.0889,-0.127352 -0.44838,-0.342546 -0.44838,-0.342546 0,0 0.27552,-0.382058 0.30198,-0.428273 0.0265,-0.04692 0.12806,-0.343252 0.13935,-0.414515 0.0113,-0.07161 0.0169,-0.107243 -0.0367,-0.04127 m -0.0942,1.62278 c -0.15276,0.125587 -0.47379,0.291745 -0.5641,0.300566 -0.0903,0.0088 -0.32984,-0.03528 -0.22577,-0.280812 0.0356,-0.07938 0.27516,-0.48895 0.27516,-0.48895 0.0896,0.04904 0.66746,0.343606 0.51471,0.469196 m -6.33871,-0.08855 -0.19509,0.267406 c -0.006,0.0085 -0.005,0.02011 0.004,0.02574 l 0.33267,0.24271 c 0.008,0.006 0.0198,0.0039 0.0261,-0.0046 l 0.19473,-0.267406 c 0.006,-0.0088 0.005,-0.02011 -0.003,-0.02612 l -0.33302,-0.242713 c -0.008,-0.0056 -0.0194,-0.0039 -0.0258,0.0049 m 0.91158,0.63006 c -0.0695,0.03528 -1.14194,0.508355 -1.21426,0.549275 -0.073,0.04022 -0.0981,0.0501 -0.11254,0.103013 -0.0145,0.05292 -0.0222,0.08361 -0.0261,0.09208 -0.0145,0.03493 -0.0261,0.07867 0.0804,0.01834 0.0332,-0.01871 1.11866,-0.498475 1.17828,-0.532694 0.0596,-0.03387 0.0956,-0.04586 0.12241,-0.09984 0.0261,-0.05433 0.0332,-0.06385 0.048,-0.1016 0.0159,-0.04057 0.0321,-0.08325 -0.0762,-0.02858 m 11.65754,0.02045 c -0.031,0.08608 -0.0427,0.142875 -0.0399,0.175683 0.004,0.03281 0.0152,0.139345 0.0152,0.139345 -0.0325,0.02574 -0.16934,0.111125 -0.30622,0.01024 0.01,-0.02928 0.0272,-0.08855 0.031,-0.121002 0.0148,-0.05045 -0.0166,-0.0882 -0.0413,-0.03598 -0.0247,0.05256 -0.0825,0.228245 -0.12594,0.267403 -0.0427,0.03951 -0.0935,0.184857 -0.41945,0.0374 -0.0571,-0.02223 -0.15734,-0.09631 -0.31291,0.06032 -0.35243,0.327728 -0.59585,0.353483 -0.99131,0.494241 -0.0476,0.02188 -0.14817,0.09701 -0.0286,0.08502 0.11888,-0.01164 0.62018,2.64e-4 0.89252,-0.31256 0.0572,-0.05539 0.12242,-0.201438 0.33902,-0.116772 0.11995,0.04516 0.34184,0.235657 0.58314,-0.140052 0.14288,0.0949 0.35948,0.0568 0.39406,-0.04798 0.0342,-0.104424 0.0741,-0.208492 0.0737,-0.279755 -8e-4,-0.07126 -0.007,-0.164745 -0.007,-0.164745 -0.005,-0.05645 -0.0247,-0.137232 -0.0564,-0.0508 m -9.67176,0.149928 c -0.0145,0.02999 -0.073,0.13053 -0.0815,0.151697 -0.008,0.02117 8e-4,0.0448 0.0152,0.02858 0.0145,-0.01659 0.0102,-0.102307 0.27764,-0.09807 0.0392,-7.93e-4 0.0526,0.01024 0.037,0.03034 -0.0162,0.02011 -0.25647,0.227542 -0.3175,0.503767 -0.0759,0.402167 0.3108,0.328787 0.39088,0.296685 0.0487,-0.01939 0.29492,-0.130881 0.48683,-0.421217 0.0268,-0.04128 0.0409,-0.102658 -0.0155,-0.04233 -0.0564,0.06068 -0.31292,0.298098 -0.58526,0.310444 -0.21202,-0.01482 -0.24307,-0.194027 -0.18838,-0.280459 0.0557,-0.08678 0.26352,-0.291393 0.30021,-0.343958 0.0367,-0.05292 0.0677,-0.132995 0.0677,-0.132995 0.0194,-0.0575 0.0289,-0.0949 -0.031,-0.09807 -0.0596,-0.0028 -0.26811,-0.04127 -0.35631,0.0956 m -1.25906,-0.05644 c -0.0303,0.07479 -0.15875,0.332668 -0.139,0.63641 0.005,0.07056 0.0508,0.207433 0.15699,0.210963 0.0547,-2.65e-4 0.12524,-0.03986 0.17533,-0.212021 0.009,-0.03845 0.0141,-0.06985 0.018,-0.08502 0.006,-0.02328 -0.012,-0.0508 -0.0296,0.0024 -0.0402,0.10513 -0.14393,0.178859 -0.2219,0.03775 -0.0127,-0.02822 -0.0649,-0.155926 0.0314,-0.435681 0.0194,-0.05433 0.0437,-0.135112 0.0437,-0.135112 0.0219,-0.06103 -0.004,-0.09419 -0.0349,-0.01976"
       style="fill:#231f20;fill-opacity:1;fill-rule:evenodd;stroke:none;stroke-width:0.264583"
       id="path1" />
  </g>
</svg>
