<?xml version="1.0" encoding="UTF-8" standalone="no"?>
<!-- Created with Inkscape (http://www.inkscape.org/) -->

<svg
   width="20.220373mm"
   height="6.0801363mm"
   viewBox="0 0 20.220373 6.0801363"
   version="1.1"
   id="svg1"
   xmlns:inkscape="http://www.inkscape.org/namespaces/inkscape"
   xmlns:sodipodi="http://sodipodi.sourceforge.net/DTD/sodipodi-0.dtd"
   xmlns="http://www.w3.org/2000/svg"
   xmlns:svg="http://www.w3.org/2000/svg">
  <sodipodi:namedview
     id="namedview1"
     pagecolor="#ffffff"
     bordercolor="#666666"
     borderopacity="1.0"
     inkscape:showpageshadow="2"
     inkscape:pageopacity="0.0"
     inkscape:pagecheckerboard="0"
     inkscape:deskcolor="#d1d1d1"
     inkscape:document-units="mm" />
  <defs
     id="defs1" />
  <g
     inkscape:label="Layer 1"
     inkscape:groupmode="layer"
     id="layer1"
     transform="translate(-116.65423,-53.914507)">
    <path
       d="m 129.13148,54.083373 c -0.0702,0.106892 -0.12241,0.362657 -0.0226,0.435682 0.10054,0.07338 0.24659,0.132643 0.24659,0.132643 -0.46602,0.570794 -0.78457,0.679802 -1.05692,0.839259 -0.0705,0.04127 -0.0564,0.07796 -0.0152,0.06703 0.0212,-0.0056 0.3877,-0.06279 0.81562,-0.387702 0.23142,-0.176036 0.37183,-0.47625 0.37183,-0.47625 0,0 0.11606,0.09666 0.13159,0.116416 0.0353,0.04374 0.0543,0.07585 0.0709,0.02963 0.0607,-0.168982 -0.025,-0.270934 -0.10759,-0.323498 0,0 0.0857,-0.263171 -0.0716,-0.52705 -0.0261,-0.0441 -0.18168,-0.185561 -0.36265,0.09384 m 0.24341,0.07303 c 0.10478,0.09737 0.0889,0.257527 0.085,0.294217 0,0 -0.13405,-0.06279 -0.19438,-0.08855 -0.0596,-0.02574 -0.0914,-0.0635 -0.0635,-0.1016 0.0924,-0.129821 0.13794,-0.125587 0.17286,-0.104069 m -1.68945,-0.160514 c -0.0162,0.03916 -0.11183,0.303037 -0.11183,0.303037 0.0254,0.171802 0.25153,1.68275 0.2667,1.808338 0.0148,0.125589 0.33373,2.210154 0.35066,2.786946 -0.005,0.05891 0.0212,0.08078 0.048,0.02434 0.0272,-0.0568 0.21308,-0.440973 -0.008,-1.851379 -0.0162,-0.117121 -0.3496,-2.168525 -0.3496,-2.168525 0,0 0.19755,0.185563 0.22895,0.219075 0.0318,0.03352 0.0706,0.01553 0.0522,-0.03845 -0.0183,-0.05398 -0.42192,-1.030465 -0.43533,-1.063977 -0.0127,-0.03422 -0.0254,-0.05856 -0.042,-0.01939 m -1.28517,0.02117 c -0.0166,0.03916 -0.11253,0.30339 -0.11253,0.30339 0.01,0.06173 0.091,0.6223 0.19085,1.304925 0.0134,0.08925 0.30304,1.83515 0.35313,2.07151 0,0 -0.58561,0.225779 -0.66111,0.231423 0,0 -0.12453,-0.304448 -0.38029,-0.500944 -0.0639,-0.04939 -0.33373,-0.188738 -0.57221,0.22225 -0.0568,0.09843 -0.27693,0.541512 0.0995,0.6985 0.17745,0.07338 0.41628,0.04868 0.5782,0.0092 0.0624,-0.01871 0.19403,-0.02646 0.17498,0.09419 -0.0187,0.12065 -0.54293,0.63218 -1.03011,0.867481 -0.12312,0.05327 -1.37795,0.630061 -1.32715,-0.565501 0.008,-0.129117 0.1397,-0.599372 0.17074,-0.686507 0.0949,0.0254 0.20673,0.04551 0.33232,0.05009 0.0653,0 0.39088,0.03563 0.34043,-0.361244 -0.0148,-0.147108 -0.0928,-0.554567 -0.38664,-0.811035 -0.0441,-0.03775 -0.31257,-0.180271 -0.55669,0.28575 -0.0462,0.09878 -0.18027,0.523168 -0.30339,0.635 -0.12347,0.112183 -0.67804,0.47907 -0.97225,-0.109008 -0.0335,-0.07021 -0.0529,-0.358775 -0.0557,-0.437092 -0.003,-0.07832 -0.0367,-0.07585 -0.0727,-0.03634 -0.0367,0.03916 -0.47908,0.515056 -0.76447,0.624417 0,0 -0.12841,-0.278694 -0.4124,-0.4699 -0.0663,-0.04445 -0.26846,-0.172154 -0.49565,0.0635 -0.0459,0.04762 -0.35525,0.439914 -0.12101,0.772583 0.0596,0.08502 0.39159,0.27164 0.86643,0.09313 0.0314,-0.01024 0.12171,0.01693 0.0818,0.11783 -0.0399,0.100542 -0.35242,0.63147 -1.45944,1.002593 -0.13899,0.04622 -0.97473,0.291042 -1.07562,-0.570089 -0.0201,-0.159102 0.009,-0.521404 0.0624,-0.702379 0.19791,-0.09984 0.41522,-0.230365 0.6544,-0.399346 0.11854,-0.08431 0.69745,-0.428625 0.55175,-1.008592 -0.0166,-0.08114 -0.33232,-0.82832 -0.33232,-0.82832 0.0766,0.0321 0.12594,0.04692 0.15311,0.05927 0.0272,0.01236 0.0741,-0.01482 0.0321,-0.07162 -0.042,-0.0568 -0.32067,-0.399343 -0.32808,-0.421568 -0.007,-0.02222 -0.0198,-0.03951 -0.0268,-0.06915 -0.008,-0.02963 -0.0272,-0.02469 -0.0399,0 -0.0123,0.02469 -0.0889,0.266348 -0.0935,0.288573 -0.005,0.02222 0.0515,0.244475 0.0889,0.345368 0.096,0.288573 0.30056,0.692857 0.33267,0.759532 0.0321,0.06668 0.0889,0.174977 0.0123,0.273402 -0.0765,0.09913 -0.69673,0.690033 -1.72508,0.936273 -0.16228,0.03845 -0.84279,0.172156 -1.20156,-0.336198 -0.0593,-0.08396 -0.33338,-0.501296 -0.0198,-1.279877 0.031,-0.06173 -0.005,-0.131585 -0.0755,-0.01659 -0.0699,0.114655 -0.67804,1.632657 0.49283,2.007659 0.19826,0.0635 0.647,0.174273 1.41605,-0.185912 -0.11465,0.354541 -0.41169,1.337733 0.41557,1.647825 0.71685,0.268816 1.77483,-0.528109 2.0186,-0.782463 0.14675,-0.152752 0.26423,-0.336902 0.28328,-0.547862 0.0212,-0.08396 0.0462,-0.321382 0.0462,-0.321382 0.0794,-0.05856 0.42439,-0.26035 0.57327,-0.492477 0.14922,0.822325 0.81103,0.687917 0.88018,0.667102 0.0691,-0.02117 0.39475,-0.144992 0.51893,-0.533752 0,0 0.10231,0.07549 0.28152,0.136525 -0.0787,0.213077 -0.60501,1.44286 0.20073,1.801635 0.13688,0.06068 0.85796,0.167924 1.71379,-0.605014 0.15205,-0.136877 0.5715,-0.408869 0.50412,-0.918634 0.0367,-0.01693 0.58244,-0.2159 0.68616,-0.26035 0.0169,0.04198 0.22683,0.548923 0.6163,0.624417 0.0533,0.0113 0.3108,0.05609 0.36442,-0.42827 0.0138,-0.112184 0.14252,-0.851607 -0.81527,-0.683684 -0.10372,-0.288221 -0.47484,-2.651125 -0.47484,-2.651125 0,0 0.1972,0.185209 0.22895,0.218721 0.0318,0.03352 0.0699,0.01588 0.0519,-0.0381 -0.0177,-0.05398 -0.42157,-1.030462 -0.43462,-1.064329 -0.013,-0.03387 -0.0261,-0.05821 -0.0423,-0.01939 m -2.14735,3.619855 c 0.0289,0.09243 -0.0106,0.07444 -0.0504,0.07126 -0.37818,-0.03633 -0.50871,-0.151694 -0.54822,-0.1778 0,0 0.0318,-0.08184 0.17181,-0.212725 0.0469,-0.03775 0.25647,-0.122767 0.42686,0.319265 m 1.58573,0.347837 c 0,0 -0.15628,0.03881 -0.40569,-0.0141 -0.14182,-0.03246 -0.0353,-0.134408 0.0261,-0.173566 0.0614,-0.03881 0.24695,-0.06738 0.37959,0.187677 m 1.87678,0.184856 c 0.0127,0.04127 0.0236,0.09313 -0.0487,0.103365 -0.33973,0.02328 -0.46814,-0.312563 -0.46814,-0.312563 0.0466,-0.0078 0.41593,-0.05962 0.51682,0.209198 m -6.59024,-0.150283 c 0,0 -0.18803,0.04903 -0.50694,-0.03845 -0.13194,-0.05715 0.01,-0.18415 0.0554,-0.19544 0.0462,-0.01093 0.22261,-0.05398 0.45156,0.233892 m 14.52845,-3.84034 c -0.0702,0.106892 -0.12207,0.362656 -0.0222,0.435681 0.10019,0.07338 0.24624,0.132644 0.24624,0.132644 -0.46567,0.570796 -1.38042,0.976842 -1.59809,1.146529 -0.0649,0.04904 -0.0561,0.07796 -0.0152,0.06703 0.0363,-0.0099 0.73343,-0.20461 1.37055,-0.750358 0.29174,-0.250119 0.28398,-0.268817 0.35806,-0.420865 0.0635,0.03281 0.1069,0.08573 0.13159,0.116417 0.0356,0.04375 0.0547,0.07585 0.0709,0.02963 0.0607,-0.168978 -0.0251,-0.270578 -0.10725,-0.323143 0,0 0.0854,-0.263525 -0.0716,-0.527402 -0.0265,-0.0441 -0.18203,-0.185563 -0.36301,0.09384 m 0.24377,0.07267 c 0.10478,0.09772 0.0889,0.257882 0.0847,0.294569 0,0 -0.13406,-0.06279 -0.19438,-0.08855 -0.0596,-0.0254 -0.0914,-0.0635 -0.0635,-0.1016 0.0924,-0.129823 0.13794,-0.12559 0.17321,-0.104423 m -10.38648,-0.06068 c -0.0688,0.104421 -0.1203,0.3556 -0.0226,0.427212 0.0981,0.07232 0.2413,0.13053 0.2413,0.13053 -0.45755,0.559504 -1.09502,1.084791 -1.36243,1.24107 -0.0691,0.04022 -0.0554,0.0762 -0.0152,0.06562 0.0212,-0.0056 0.37395,-0.135112 0.79799,-0.448379 0.35701,-0.263879 0.6932,-0.816681 0.6932,-0.816681 0,0 0.1136,0.0949 0.12877,0.1143 0.0346,0.04268 0.0529,0.07444 0.0691,0.02928 0.0603,-0.165454 -0.024,-0.265641 -0.10477,-0.3175 0,0 0.0847,-0.257881 -0.0695,-0.517173 -0.0254,-0.04339 -0.17815,-0.182385 -0.35595,0.09172 m 0.23883,0.07161 c 0.10266,0.09596 0.0868,0.253297 0.0825,0.28928 0,0 -0.13123,-0.06209 -0.19015,-0.08714 -0.0586,-0.0254 -0.0896,-0.06279 -0.0621,-0.100187 0.0907,-0.127 0.13547,-0.122767 0.16969,-0.101955 m 8.35872,-0.176387 c -0.18274,0.232834 -0.19439,0.538692 -0.21908,0.879827 -0.0257,-0.07161 -0.1718,-0.528815 -0.63923,-0.790575 -0.0339,-0.01905 -0.10302,0.01693 -0.10972,0.124532 -0.004,0.06279 -0.0215,0.215193 0.0229,0.258585 0.0441,0.04304 0.17463,0.127706 0.19615,0.1397 0.0222,0.01199 0.0455,0.01376 0.0522,-0.0127 0.006,-0.02574 0.0363,-0.08643 0.0787,-0.04304 0.036,0.03598 0.26599,0.226483 0.38558,0.630767 0.0208,0.05327 0.0702,0.05856 0.0822,-0.01728 0.0275,-0.186973 0.0427,-0.511527 0.0575,-0.609952 0.0205,-0.137937 0.0868,-0.423333 0.26176,-0.275166 0.0395,0.03387 0.0819,0.07832 0.0819,0.07832 0.0374,0.04657 0.084,0.100188 0.10654,0.04586 0.0346,-0.08149 0.0624,-0.216959 0.0243,-0.289984 -0.0162,-0.03246 -0.23354,-0.306916 -0.38171,-0.118885 m -12.30665,0.137229 c -0.0762,0.115358 -0.133,0.391583 -0.0254,0.470606 0.1083,0.07973 0.26635,0.143934 0.26635,0.143934 -0.50412,0.616302 -1.20721,1.19521 -1.50178,1.367366 -0.0755,0.0441 -0.0607,0.08396 -0.0162,0.07197 0.0229,-0.006 0.41169,-0.148519 0.87913,-0.49389 0.39299,-0.290335 0.76341,-0.899583 0.76341,-0.899583 0,0 0.12488,0.104775 0.14216,0.12559 0.0378,0.04727 0.0586,0.0822 0.0766,0.03246 0.066,-0.182388 -0.0268,-0.292454 -0.11571,-0.349604 0,0 0.0924,-0.284338 -0.0766,-0.569736 -0.0282,-0.04798 -0.19649,-0.201083 -0.39193,0.100894 m 0.26282,0.07902 c 0.11289,0.105481 0.0956,0.279048 0.091,0.318558 0,0 -0.14464,-0.06808 -0.20919,-0.09631 -0.0649,-0.02752 -0.0988,-0.06879 -0.0691,-0.109715 0.10019,-0.140404 0.14923,-0.135466 0.18733,-0.112535 m 10.24361,-0.22719 c -0.0677,0.03951 -1.78788,1.03223 -1.85703,1.077384 -0.0699,0.0448 -0.0945,0.05609 -0.10583,0.110066 -0.0113,0.05362 -0.0166,0.08467 -0.0198,0.09349 -0.0124,0.03598 -0.0215,0.08008 0.0811,0.01341 0.0321,-0.02117 1.76212,-1.020585 1.82245,-1.058685 0.0582,-0.03634 0.0921,-0.05186 0.11535,-0.107598 0.0233,-0.05539 0.0293,-0.06562 0.042,-0.10442 0.013,-0.04092 0.0265,-0.08467 -0.0783,-0.02363 m -8.93974,0.113242 c -0.0332,0.0822 -0.17322,0.364421 -0.15205,0.696738 0.005,0.0769 0.0561,0.226483 0.1718,0.230717 0.06,-2.65e-4 0.13723,-0.04339 0.19227,-0.231775 0.01,-0.04233 0.0155,-0.07656 0.019,-0.09313 0.006,-0.0254 -0.0127,-0.05574 -0.0321,0.0024 -0.0441,0.115006 -0.15734,0.195791 -0.24271,0.04127 -0.0138,-0.03069 -0.0713,-0.170744 0.0342,-0.476602 0.0212,-0.05962 0.048,-0.147815 0.048,-0.147815 0.024,-0.06703 -0.005,-0.103717 -0.0385,-0.02188 m -3.32881,0.03457 c -0.085,0.04022 -2.6215,1.298927 -2.70828,1.341967 -0.0822,0.04057 -0.10407,0.0635 -0.11536,0.123118 -0.012,0.05962 -0.0176,0.09419 -0.0208,0.103717 -0.0138,0.04022 -0.0233,0.07514 0.09,0.01376 0.037,-0.02011 2.60068,-1.282345 2.66982,-1.320093 0.0667,-0.03634 0.1009,-0.05856 0.12665,-0.121002 0.0247,-0.06174 0.0314,-0.07302 0.0444,-0.116065 0.0145,-0.04586 0.0349,-0.0822 -0.0864,-0.0254 m -2.7873,0.07479 c -0.0332,0.08184 -0.17357,0.364066 -0.15205,0.696383 0.005,0.0769 0.0557,0.226835 0.17145,0.231069 0.06,-2.65e-4 0.13759,-0.04374 0.19227,-0.231775 0.01,-0.04269 0.0155,-0.07655 0.0194,-0.09349 0.006,-0.0254 -0.0127,-0.05539 -0.0321,0.0024 -0.0437,0.115358 -0.15769,0.195791 -0.24271,0.04163 -0.0138,-0.03069 -0.0716,-0.170743 0.0342,-0.476601 0.0212,-0.05962 0.048,-0.148167 0.048,-0.148167 0.0236,-0.06703 -0.005,-0.103365 -0.0384,-0.02151 m 3.52884,0.06738 c -0.0339,0.08185 -0.17357,0.364067 -0.1524,0.696383 0.005,0.07691 0.0561,0.226838 0.17215,0.230717 0.0596,-2.64e-4 0.13653,-0.04339 0.19191,-0.231775 0.009,-0.04233 0.0155,-0.07655 0.0194,-0.09313 0.006,-0.0254 -0.013,-0.05539 -0.0321,0.0024 -0.0441,0.115358 -0.15804,0.195792 -0.24306,0.04127 -0.0138,-0.03069 -0.0713,-0.170746 0.0342,-0.476605 0.0212,-0.05962 0.048,-0.147812 0.048,-0.147812 0.024,-0.06703 -0.005,-0.103364 -0.0381,-0.02151 m 3.49497,0.206729 c -0.0998,0.109009 -0.13088,0.183444 -0.16052,0.230362 -0.0413,0.06421 0.0106,0.09278 0.0572,0.04304 0.0466,-0.05009 0.0787,-0.10019 0.21414,-0.09666 0.13582,0.0035 0.46037,-0.0088 0.33937,0.08043 -0.12171,0.08925 -0.20355,0.14111 -0.20355,0.14111 -0.079,0.05644 -0.14817,0.162277 -0.009,0.103365 0.13935,-0.05891 0.32314,-0.151696 0.46425,-0.364066 0.0409,-0.06174 0.0889,-0.14464 -0.10195,-0.172863 -0.19085,-0.02893 -0.49988,-0.07338 -0.59972,0.03528 m -5.5196,0.78477 c -0.0339,0.08184 -0.17392,0.364067 -0.1524,0.696384 0.005,0.07691 0.0557,0.226835 0.17145,0.230716 0.06,-2.64e-4 0.13723,-0.04374 0.19227,-0.231423 0.01,-0.04304 0.0152,-0.0769 0.0194,-0.09349 0.006,-0.0254 -0.0127,-0.05574 -0.0325,0.0028 -0.0437,0.115004 -0.15734,0.195437 -0.24236,0.04092 -0.0138,-0.03069 -0.0713,-0.170391 0.0339,-0.476601 0.0212,-0.05927 0.048,-0.147815 0.048,-0.147815 0.024,-0.06703 -0.004,-0.103362 -0.0378,-0.02151 m 4.89656,0.04692 c -0.15028,0.234246 -0.1337,0.521406 -0.12594,0.842433 -0.0303,-0.06456 -0.20849,-0.47907 -0.66887,-0.681918 -0.0335,-0.01447 -0.0949,0.0254 -0.091,0.126648 0.002,0.05927 -10e-4,0.2032 0.0441,0.239535 0.0455,0.03634 0.17498,0.104068 0.19685,0.113242 0.0212,0.0092 0.0434,0.0088 0.0473,-0.01659 0.004,-0.02506 0.0261,-0.08431 0.0698,-0.04763 0.0363,0.03069 0.26882,0.188032 0.41734,0.554921 0.0243,0.04798 0.0709,0.04833 0.0748,-0.02363 0.009,-0.177094 -0.006,-0.481894 -10e-4,-0.575379 0.007,-0.130881 0.043,-0.403579 0.22014,-0.280813 0.0402,0.02822 0.084,0.06562 0.084,0.06562 0.0392,0.04022 0.0875,0.08608 0.10371,0.03352 0.0251,-0.07902 0.0385,-0.208492 -0.003,-0.273402 -0.0187,-0.02858 -0.24659,-0.265642 -0.36759,-0.07655 m 8.98525,0.02646 c -0.0342,0.08467 -0.17816,0.375004 -0.15629,0.71755 0.005,0.07902 0.0575,0.233539 0.17675,0.237421 0.0617,-2.65e-4 0.14111,-0.04516 0.1979,-0.23848 0.01,-0.04374 0.0155,-0.07902 0.0198,-0.09595 0.006,-0.02646 -0.013,-0.0575 -0.0332,0.0024 -0.0448,0.118533 -0.16228,0.20179 -0.25012,0.04268 -0.0141,-0.03175 -0.0734,-0.175683 0.0353,-0.491067 0.0222,-0.06103 0.0498,-0.1524 0.0498,-0.1524 0.0243,-0.06879 -0.005,-0.106185 -0.0399,-0.02222 m -10.70504,0.623007 -0.19508,0.267406 c -0.006,0.0085 -0.005,0.02011 0.003,0.02611 l 0.33267,0.242713 c 0.008,0.0056 0.0201,0.0039 0.0257,-0.0049 l 0.19544,-0.267407 c 0.006,-0.0085 0.005,-0.02011 -0.004,-0.02574 l -0.33268,-0.243064 c -0.008,-0.0056 -0.0198,-0.0035 -0.0257,0.0049 m 3.34328,0.325615 c -0.14641,0.113594 -0.48366,0.441325 -0.33197,0.594783 0.0882,0.07126 0.12771,0.106186 0.12771,0.106186 -0.0413,0.01588 -0.0766,0.05539 -0.10125,0.105481 -0.0247,0.05009 -0.0286,0.06103 -0.0413,0.0896 -0.0127,0.02822 -0.0201,0.06668 0.0494,0.02717 0.0702,-0.03986 0.23566,-0.197202 0.68333,-0.295627 0.0617,-0.01304 0.11642,-0.115007 0.11642,-0.115007 0.0261,-0.04304 0.078,-0.142875 -0.009,-0.09349 -0.0871,0.04904 -0.32068,0.119237 -0.42404,0.09913 -0.10407,-0.02045 -0.22719,-0.109712 -0.254,-0.152752 -0.0272,-0.04268 -0.0236,-0.09066 0.0589,-0.13829 0.0822,-0.04727 0.17216,-0.08008 0.23531,0.0254 0.0116,0.01728 0.0254,0.01693 0.0519,-0.0099 0.0268,-0.02681 0.0801,-0.100893 0.0945,-0.122414 0.0141,-0.02117 0.0254,-0.0568 0.004,-0.08255 -0.0226,-0.02574 -0.11289,-0.150988 -0.2593,-0.03775 m -0.3122,2.03835 c -0.0699,0.03528 -0.77929,0.3175 -0.85161,0.357717 -0.0723,0.04057 -0.0977,0.05044 -0.11218,0.103716 -0.0145,0.05256 -0.0222,0.08325 -0.0258,0.09172 -0.0148,0.03528 -0.0265,0.07902 0.0801,0.01834 0.0332,-0.01871 0.75601,-0.306916 0.81562,-0.341137 0.06,-0.03422 0.0949,-0.04586 0.12206,-0.100188 0.0268,-0.05433 0.0332,-0.0635 0.048,-0.101248 0.0159,-0.04057 0.0321,-0.08361 -0.0762,-0.02893 m 10.98154,-2.813351 c -0.0317,0.07796 -0.1651,0.346781 -0.14499,0.663929 0.005,0.07338 0.0536,0.216252 0.16369,0.219779 0.0568,-2.64e-4 0.13088,-0.04127 0.18344,-0.220837 0.009,-0.04057 0.0145,-0.07303 0.018,-0.0889 0.006,-0.024 -0.012,-0.05292 -0.0307,0.0024 -0.0416,0.109715 -0.14993,0.186619 -0.23142,0.03951 -0.013,-0.02928 -0.0677,-0.162629 0.0328,-0.454377 0.0205,-0.0568 0.0459,-0.141111 0.0459,-0.141111 0.0222,-0.06385 -0.005,-0.09878 -0.0367,-0.02045 m -6.20642,0.0081 -0.16827,0.231068 -0.32315,-0.235653 c -0.008,-0.006 -0.0194,-0.0039 -0.0257,0.0046 l -0.19509,0.267758 c -0.006,0.0081 -0.005,0.02011 0.004,0.02574 l 0.33267,0.242713 c 0.008,0.006 0.0198,0.0039 0.0257,-0.0049 l 0.16828,-0.230364 0.32314,0.235304 c 0.008,0.006 0.0198,0.0039 0.0257,-0.0049 l 0.19508,-0.267406 c 0.006,-0.0081 0.005,-0.02011 -0.004,-0.02574 l -0.33266,-0.24271 c -0.008,-0.006 -0.0198,-0.0039 -0.0258,0.0046 m 1.30351,0.416277 c -0.013,0.04516 -0.0459,0.23989 -0.0536,0.279755 -0.008,0.03986 -0.007,0.07973 0.0127,0.113945 0.0194,0.03422 0.0702,0.152755 0.10654,0.249063 0.0367,0.09631 0.41452,0.824087 0.44944,0.888645 0.0349,0.06456 0.042,0.112538 0.007,0.154872 -1.21249,1.279876 -3.55282,2.06657 -3.62761,2.110316 -0.0751,0.04339 -0.055,0.07726 0.0706,0.05503 0.18908,-0.03316 1.24001,-0.208846 1.53987,-0.353131 0.19756,-0.09525 0.88759,-0.434269 1.45203,-0.876652 -0.0155,0.1143 -0.03,0.282221 -0.0222,0.495652 0.0381,1.029052 0.95814,0.858308 1.1998,0.80504 0.7239,-0.15875 1.60866,-1.15923 1.6838,-1.359959 0.0741,-0.198614 0.085,-0.379589 0.0684,-0.537633 0.1905,-0.103365 0.60008,-0.433213 0.60008,-0.433213 0.0166,0.438857 0.36583,0.570796 0.47343,0.589492 0.50341,0.07655 0.756,-0.34431 0.86324,-0.480835 0.0914,0.240593 0.31221,0.28716 0.42545,0.30974 0.43427,0.08643 0.51894,-0.22084 0.54152,-0.291042 0.13617,-0.423333 -0.10972,-0.739071 -0.14076,-0.774348 -0.0317,-0.03493 -0.0476,-0.0013 -0.0586,0.03916 -0.0116,0.04057 -0.0466,0.193323 -0.0684,0.288925 0,0 0.0907,0.147815 0.12312,0.223308 0.0324,0.07549 -0.0159,0.116417 -0.10936,0.128059 -0.26423,0.0321 -0.47484,-0.11924 -0.54751,-0.188735 -0.073,-0.0702 0.006,-0.193675 0.0645,-0.341138 0.0469,-0.118179 -0.0402,-0.132292 -0.10689,-2.65e-4 -0.22366,0.588785 -0.53869,0.651933 -0.62124,0.674865 -0.74648,0.2032 -0.68192,-0.479073 -0.6791,-0.59055 0.002,-0.111832 -0.0794,-0.07056 -0.17109,0.0035 -0.31398,0.251883 -0.56692,0.399698 -0.70309,0.460375 -0.11712,-0.228952 -0.28716,-0.372534 -0.35877,-0.424392 -0.80751,-0.588785 -0.87419,0.599369 -0.84949,0.726369 0.12276,0.505531 0.94756,0.198966 1.07703,0.183798 0.12911,-0.01516 0.0868,0.155575 0.0141,0.257175 -0.17886,0.249766 -0.38523,0.429683 -0.57256,0.582083 -0.79939,0.65264 -1.20085,0.601133 -1.32468,0.5969 -0.78528,-0.02188 -0.71296,-0.86854 -0.66922,-1.04916 0.23601,-0.200025 0.43921,-0.418042 0.55704,-0.641705 0.0483,-0.122766 0.13088,-0.40146 -0.0187,-0.751768 -0.0787,-0.154165 -0.32667,-0.585965 -0.32667,-0.585965 0,0 0.18274,0.0056 0.20002,0.0053 0.0173,0 0.0515,-0.01834 0.007,-0.06914 -0.0441,-0.05115 -0.42757,-0.433565 -0.4505,-0.464256 -0.0229,-0.03069 -0.0445,-0.05292 -0.0572,-0.0074 m 2.42182,1.752248 c 0,0 -0.10971,0.06315 -0.41698,0.04233 -0.25823,-0.01728 -0.23566,-0.117475 -0.20073,-0.155575 0.0384,-0.04163 0.35383,-0.240242 0.61771,0.113241 m -3.31645,-1.424847 c -0.0533,0.06632 -0.58949,0.770112 -0.58949,0.770112 l -0.39017,-0.277987 c 0,0 0.1591,-0.03986 0.18697,-0.04798 0.0275,-0.0081 0.0434,-0.0441 -0.007,-0.06985 -0.0497,-0.0254 -0.51999,-0.213077 -0.55597,-0.227542 -0.0356,-0.01447 -0.0487,-0.03069 -0.0515,0.0074 -0.003,0.0381 -0.009,0.347488 -0.009,0.347488 0,0 -0.007,0.02188 0.0339,0.04515 0.0409,0.02294 0.0811,0.07302 0.115,0.10654 0.0335,0.03387 0.47096,0.378883 0.49213,0.390877 0,0 -0.21872,0.384529 -0.24659,0.685448 -0.0279,0.300918 0.006,0.716139 0.41663,0.582435 0.11077,-0.03175 0.5715,-0.214842 0.67451,-0.536221 0.0335,-0.118181 0.12806,-0.331964 -0.0261,-0.548923 -0.0889,-0.127352 -0.44908,-0.342548 -0.44908,-0.342548 0,0 0.27658,-0.382058 0.30268,-0.428625 0.0265,-0.04657 0.12771,-0.342545 0.139,-0.41416 0.0116,-0.07197 0.0169,-0.107598 -0.0363,-0.04163 m -0.0945,1.622777 c -0.1524,0.125942 -0.47414,0.2921 -0.56374,0.300567 -0.0903,0.0085 -0.32985,-0.03563 -0.22578,-0.280459 0.0356,-0.07973 0.27517,-0.48895 0.27517,-0.48895 0.0892,0.04904 0.66745,0.343252 0.51435,0.468842 m -11.69988,-1.437569 -0.19508,0.267404 c -0.006,0.0085 -0.005,0.02011 0.004,0.02574 l 0.33302,0.24271 c 0.008,0.006 0.0194,0.0039 0.0257,-0.0046 l 0.19509,-0.267758 c 0.006,-0.0085 0.005,-0.01976 -0.004,-0.02574 l -0.33303,-0.242718 c -0.008,-0.0056 -0.0194,-0.0039 -0.0257,0.0049 m -0.7112,0.162629 c -0.0293,0.08326 -0.15558,0.37183 -0.11818,0.703088 0.009,0.07655 0.067,0.22366 0.18274,0.221895 0.0596,-0.0028 0.13476,-0.05009 0.18027,-0.240593 0.007,-0.04268 0.012,-0.07726 0.0152,-0.09384 0.005,-0.02574 -0.0155,-0.05503 -0.0321,0.0039 -0.0381,0.117475 -0.14816,0.2032 -0.24059,0.05327 -0.0155,-0.03034 -0.0794,-0.167217 0.0113,-0.478012 0.018,-0.06032 0.0406,-0.150283 0.0406,-0.150283 0.0204,-0.06738 -0.01,-0.103013 -0.0392,-0.01939 m 18.64183,1.836914 c -0.0314,0.08643 -0.043,0.143227 -0.0399,0.175684 0.004,0.03316 0.0145,0.1397 0.0145,0.1397 -0.0321,0.02574 -0.16827,0.110773 -0.30551,0.01024 0.009,-0.02928 0.0268,-0.08855 0.0311,-0.121356 0.0148,-0.05045 -0.0162,-0.08819 -0.0409,-0.03598 -0.0254,0.05257 -0.0833,0.228248 -0.12665,0.267759 -0.0427,0.03916 -0.0935,0.184856 -0.41945,0.03704 -0.0564,-0.02188 -0.15699,-0.09596 -0.31256,0.06068 -0.35243,0.327732 -0.5962,0.353132 -0.99131,0.493538 -0.0476,0.02223 -0.14817,0.09772 -0.0293,0.08573 0.11924,-0.01199 0.62054,2.65e-4 0.89323,-0.312915 0.0572,-0.05503 0.12206,-0.201435 0.33902,-0.116768 0.11959,0.04551 0.34149,0.235654 0.5835,-0.140055 0.14217,0.0949 0.35842,0.0568 0.39334,-0.04762 0.0346,-0.104775 0.0741,-0.208843 0.0737,-0.279752 -2.6e-4,-0.07161 -0.006,-0.1651 -0.006,-0.1651 -0.005,-0.05609 -0.025,-0.136877 -0.0564,-0.0508 m -18.31234,0.110773 c -0.0346,0.08008 -0.17956,0.356659 -0.15734,0.682625 0.005,0.07549 0.0579,0.222602 0.17745,0.226484 0.0621,-2.65e-4 0.14217,-0.04304 0.19896,-0.227542 0.01,-0.04127 0.0159,-0.07479 0.0201,-0.09102 0.006,-0.02506 -0.0134,-0.05468 -0.0335,0.0021 -0.0452,0.113242 -0.16298,0.192262 -0.25118,0.04092 -0.0141,-0.03034 -0.0737,-0.167569 0.0356,-0.467784 0.0219,-0.05821 0.0497,-0.144637 0.0497,-0.144637 0.0244,-0.06562 -0.005,-0.1016 -0.0399,-0.02117 m 4.28872,0.02858 c -0.0342,0.08502 -0.17921,0.376767 -0.15734,0.720725 0.005,0.07937 0.0579,0.234596 0.17745,0.238477 0.0621,0 0.14217,-0.0448 0.19861,-0.239535 0.0102,-0.0441 0.0162,-0.07938 0.0204,-0.09666 0.006,-0.02611 -0.0134,-0.0575 -0.0335,0.0028 -0.0455,0.11924 -0.16299,0.202494 -0.25118,0.04269 -0.0145,-0.03175 -0.0737,-0.176387 0.0356,-0.493183 0.0219,-0.06138 0.0497,-0.152752 0.0497,-0.152752 0.0243,-0.0695 -0.005,-0.107243 -0.0399,-0.02257 m 4.34269,0.224012 c -0.0222,0.03387 -0.0384,0.06174 -0.0476,0.07514 -0.0138,0.02045 -0.005,0.05327 0.031,0.0088 0.078,-0.08643 0.21061,-0.118888 0.24236,0.04586 0.003,0.03175 0.0134,0.173919 -0.18274,0.407106 -0.0385,0.04515 -0.0917,0.113594 -0.0917,0.113594 -0.0438,0.0508 -0.0282,0.09243 0.0293,0.0321 0.0572,-0.06068 0.27834,-0.261408 0.36336,-0.560562 0.0191,-0.0695 0.0183,-0.218017 -0.0896,-0.261057 -0.0568,-0.01976 -0.14322,-0.0078 -0.25435,0.138994"
       style="fill:#231f20;fill-opacity:1;fill-rule:evenodd;stroke:none;stroke-width:0.264583"
       id="path1-46" />
  </g>
</svg>
