<?xml version="1.0" encoding="UTF-8" standalone="no"?>
<!-- Created with Inkscape (http://www.inkscape.org/) -->

<svg
   width="17.370581mm"
   height="6.2368569mm"
   viewBox="0 0 17.370581 6.2368569"
   version="1.1"
   id="svg1"
   xmlns:inkscape="http://www.inkscape.org/namespaces/inkscape"
   xmlns:sodipodi="http://sodipodi.sourceforge.net/DTD/sodipodi-0.dtd"
   xmlns="http://www.w3.org/2000/svg"
   xmlns:svg="http://www.w3.org/2000/svg">
  <sodipodi:namedview
     id="namedview1"
     pagecolor="#ffffff"
     bordercolor="#666666"
     borderopacity="1.0"
     inkscape:showpageshadow="2"
     inkscape:pageopacity="0.0"
     inkscape:pagecheckerboard="0"
     inkscape:deskcolor="#d1d1d1"
     inkscape:document-units="mm" />
  <defs
     id="defs1" />
  <g
     inkscape:label="Layer 1"
     inkscape:groupmode="layer"
     id="layer1"
     transform="translate(-106.43745,-39.010188)">
    <path
       d="m 111.68204,39.179571 c -0.0801,0.110419 -0.14852,0.381 -0.0452,0.46355 0.10301,0.08361 0.25647,0.15381 0.25647,0.15381 -0.52564,0.586317 -1.2446,1.127477 -1.54305,1.284111 -0.0769,0.04057 -0.0639,0.08079 -0.0194,0.07091 0.0229,-0.0049 0.41345,-0.129117 0.8897,-0.449085 0.40111,-0.269875 0.7934,-0.855134 0.7934,-0.855134 0,0 0.11924,0.109009 0.13511,0.130882 0.0353,0.04798 0.0543,0.08325 0.0737,0.03528 0.0734,-0.177448 -0.0134,-0.290336 -0.0988,-0.350661 0,0 0.10443,-0.276579 -0.0504,-0.566208 -0.0257,-0.04833 -0.18521,-0.206729 -0.39158,0.08255 m 0.25646,0.0896 c 0.1069,0.109363 0.0819,0.2794 0.0759,0.318558 0,0 -0.14005,-0.07373 -0.20285,-0.104068 -0.0624,-0.03034 -0.0942,-0.07232 -0.0628,-0.111832 0.10478,-0.134054 0.1531,-0.127 0.18979,-0.102658 m 2.58163,-0.189794 c -0.0162,0.03916 -0.11218,0.30339 -0.11218,0.30339 0.0257,0.17145 0.29245,1.783292 0.30762,1.909233 0.0148,0.125588 0.39194,2.113492 0.35066,2.786944 -0.005,0.05892 0.0208,0.08079 0.0483,0.02434 0.0265,-0.0568 0.21237,-0.441325 -0.008,-1.851732 -0.0166,-0.11712 -0.39053,-2.269066 -0.39053,-2.269066 0,0 0.19721,0.185208 0.2286,0.218723 0.0321,0.03387 0.0702,0.01588 0.0526,-0.0381 -0.0183,-0.05398 -0.42228,-1.030465 -0.43533,-1.064332 -0.013,-0.03387 -0.0257,-0.05856 -0.042,-0.01939 m -1.06962,0.02117 c -0.0166,0.03916 -0.11254,0.30339 -0.11254,0.30339 0.009,0.05821 0.0896,0.555977 0.17357,1.18392 0.0194,0.147815 0.3616,2.20698 0.38171,2.361496 0.0201,0.154162 0.067,0.355246 -0.10725,0.436034 -0.17427,0.08043 -0.57714,0.254703 -0.82515,-0.04727 -0.0737,-0.08714 -0.15275,-0.395111 -0.13264,-0.593019 0.002,-0.04974 -0.0162,-0.107598 -0.0861,-0.05786 -0.0667,0.04798 -0.38841,0.340076 -0.65228,0.44591 -0.0413,-0.09772 -0.10019,-0.201787 -0.19156,-0.298802 -0.24307,-0.258585 -0.47061,-0.394758 -0.73272,-0.105833 -0.26212,0.288573 -0.24942,0.790223 0.11818,0.906639 0.1143,0.03634 0.31044,0.01622 0.58385,-0.05115 0.0568,-0.01516 0.20814,-0.02294 0.12347,0.111831 -0.0843,0.13476 -0.87242,1.03364 -1.61431,1.093259 -0.10619,0.0085 -0.77223,-0.01834 -0.68898,-0.794102 0.008,-0.07796 0.11289,-0.514705 0.13829,-0.633942 0.10513,-0.09984 0.19297,-0.202496 0.25506,-0.306213 0.0483,-0.122767 0.15946,-0.404283 0.01,-0.754237 -0.0787,-0.153813 -0.32632,-0.585965 -0.32632,-0.585965 l 0.005,-0.01376 c 0,0 0.1771,0.01939 0.19473,0.01905 0.0173,-2.65e-4 0.0515,-0.01834 0.007,-0.0695 -0.0444,-0.05115 -0.42722,-0.43321 -0.4505,-0.464254 -0.0229,-0.03069 -0.0444,-0.05292 -0.0575,-0.0074 -0.0127,0.04515 -0.0455,0.239887 -0.0529,0.279752 -0.008,0.04022 -0.008,0.07973 0.0124,0.1143 0.0194,0.03422 0.0702,0.152751 0.10689,0.24906 0.0363,0.09631 0.42086,0.809979 0.45544,0.874538 0.0353,0.0642 0.013,0.108302 -0.0219,0.150987 -1.1938,1.040696 -3.40748,1.761066 -3.48192,1.804458 -0.0751,0.04339 -0.055,0.07726 0.0709,0.05503 0.18838,-0.03281 1.01953,-0.134408 1.27141,-0.218368 0.24941,-0.0829 1.25624,-0.501298 1.87078,-1.01106 -0.0914,0.327377 -0.39793,1.363133 0.17427,1.637945 0.0953,0.04551 0.86713,0.340783 2.02706,-0.843843 0.2219,-0.227542 0.2727,-0.621594 0.2727,-0.621594 0.002,-0.03387 0.006,-0.09349 0.002,-0.169688 0.11007,-0.05221 0.28329,-0.153458 0.45615,-0.333727 0.0296,-0.02363 0.0494,-0.03352 0.0575,0.01447 0.008,0.04762 0.0515,0.58561 0.41734,0.715433 0.0755,0.0254 0.52705,0.136877 0.86536,-0.251883 0.0314,-0.03986 0.18909,-0.2794 0.10089,-0.997657 -0.0127,-0.107243 -0.38558,-2.620785 -0.40216,-2.624666 0,0 0.17815,0.186973 0.2099,0.220485 0.0318,0.03352 0.0699,0.01553 0.0519,-0.0381 -0.0177,-0.05398 -0.42193,-1.030462 -0.43498,-1.064683 -0.0127,-0.03351 -0.0257,-0.05821 -0.042,-0.01939 m -1.66416,4.124301 c 0,0 -0.16475,0.05997 -0.38276,0.02469 -0.27129,-0.0441 -0.17004,-0.180269 -0.1196,-0.227894 0.0512,-0.04727 0.34537,-0.142523 0.50236,0.2032 m 4.27849,-3.957815 c -0.0702,0.106892 -0.12242,0.362657 -0.0226,0.435682 0.10019,0.07338 0.24659,0.132643 0.24659,0.132643 -0.46602,0.570796 -0.78458,0.679805 -1.05692,0.839613 -0.0706,0.04092 -0.0564,0.07761 -0.0152,0.06668 0.0208,-0.0056 0.3877,-0.0628 0.81562,-0.387704 0.23143,-0.176036 0.37183,-0.476602 0.37183,-0.476602 0,0 0.11571,0.09701 0.13159,0.116416 0.0349,0.04374 0.0543,0.07585 0.0706,0.02999 0.0614,-0.168979 -0.0251,-0.270934 -0.10724,-0.323496 0,0 0.0857,-0.263173 -0.0716,-0.52705 -0.0265,-0.04445 -0.18168,-0.185563 -0.36265,0.09384 m 0.24306,0.07267 c 0.10513,0.09772 0.0889,0.257882 0.0854,0.294569 0,0 -0.13405,-0.06279 -0.19438,-0.08855 -0.0596,-0.0254 -0.0914,-0.0635 -0.0639,-0.1016 0.0928,-0.129823 0.13829,-0.125589 0.17286,-0.104423 m 6.27909,0.02294 c -0.0702,0.106891 -0.12206,0.362654 -0.0222,0.435679 0.0998,0.07338 0.24624,0.132646 0.24624,0.132646 -0.46567,0.570793 -1.38042,0.976841 -1.59809,1.146879 -0.0649,0.04904 -0.0561,0.07761 -0.0152,0.06668 0.036,-0.0095 0.73343,-0.204611 1.37019,-0.750359 0.29245,-0.250118 0.28434,-0.268816 0.35842,-0.420862 0.0635,0.03245 0.1069,0.08537 0.13159,0.116062 0.0353,0.04375 0.0543,0.07585 0.0706,0.02999 0.0614,-0.168981 -0.0251,-0.270933 -0.1069,-0.323498 0,0 0.0854,-0.263173 -0.0716,-0.52705 -0.0265,-0.04445 -0.18203,-0.18556 -0.36301,0.09384 m 0.24342,0.07267 c 0.10513,0.09772 0.0889,0.257882 0.085,0.294571 0,0 -0.13406,-0.0628 -0.19438,-0.08855 -0.0596,-0.0254 -0.0914,-0.0635 -0.0639,-0.1016 0.0928,-0.129823 0.13829,-0.125589 0.17322,-0.104423 m -1.78859,-0.165452 c -0.18309,0.232482 -0.19438,0.538692 -0.21907,0.879827 -0.0258,-0.07126 -0.1718,-0.528812 -0.63923,-0.790575 -0.0342,-0.01939 -0.10337,0.01693 -0.10972,0.124532 -0.004,0.06279 -0.0215,0.215193 0.0226,0.258585 0.0445,0.04304 0.17463,0.127706 0.1965,0.1397 0.0222,0.01199 0.0455,0.01376 0.0522,-0.0127 0.006,-0.02574 0.0363,-0.08643 0.0787,-0.04304 0.0356,0.03598 0.266,0.226483 0.38559,0.630412 0.0212,0.05362 0.0702,0.05891 0.0822,-0.01728 0.0275,-0.186974 0.0423,-0.511175 0.0571,-0.6096 0.0208,-0.137936 0.0868,-0.423334 0.26212,-0.275167 0.0399,0.03387 0.0818,0.07832 0.0818,0.07832 0.0374,0.04657 0.0843,0.100189 0.10654,0.04586 0.0346,-0.08149 0.0624,-0.216959 0.0243,-0.289984 -0.0166,-0.03245 -0.23354,-0.306916 -0.3817,-0.118885 m -1.80023,-0.01093 c -0.0677,0.03951 -1.78788,1.032227 -1.85737,1.077383 -0.0695,0.04445 -0.0942,0.05609 -0.10548,0.110067 -0.0113,0.05398 -0.0169,0.08467 -0.0198,0.09349 -0.0124,0.03598 -0.0215,0.08043 0.0808,0.01304 0.0324,-0.02045 1.76212,-1.020233 1.8228,-1.058333 0.0579,-0.03634 0.0921,-0.0515 0.11501,-0.107596 0.0236,-0.05539 0.0293,-0.06526 0.0416,-0.104423 0.0138,-0.04127 0.0272,-0.08502 -0.0776,-0.02363 m -9.04592,0.100187 c -0.0378,0.09948 -0.20144,0.445207 -0.15135,0.839258 0.0117,0.09066 0.0882,0.26529 0.23954,0.261409 0.078,-0.0046 0.17604,-0.06173 0.23495,-0.289629 0.01,-0.05116 0.0148,-0.09208 0.019,-0.112538 0.006,-0.03034 -0.0208,-0.06491 -0.042,0.0056 -0.0494,0.140052 -0.19226,0.244475 -0.31362,0.06703 -0.0204,-0.03563 -0.10477,-0.197557 0.0124,-0.569384 0.024,-0.07197 0.0529,-0.17921 0.0529,-0.17921 0.0265,-0.08114 -0.013,-0.122415 -0.0519,-0.02257 m -1.34232,0.07056 c -0.17428,0.221543 -0.18556,0.512585 -0.20849,0.837141 -0.0247,-0.06808 -0.16369,-0.50306 -0.60855,-0.752475 -0.0321,-0.01799 -0.0977,0.01622 -0.10406,0.118885 -0.004,0.05927 -0.0205,0.204613 0.0215,0.245534 0.0402,0.03986 0.34113,0.145346 0.1778,0.317854 -0.0727,0.0769 -0.43886,0.4572 -0.51718,0.549275 -0.079,0.09172 -0.0861,0.108302 -0.002,0.06174 0.0843,-0.04692 0.57185,-0.236361 0.65264,-0.719667 0.006,-0.0635 -0.007,-0.110773 -0.0215,-0.142875 0.007,0.0019 0.0141,0.006 0.0219,0.01376 0.0339,0.03457 0.25294,0.2159 0.36689,0.600075 0.0198,0.0508 0.067,0.05574 0.0776,-0.01659 0.0261,-0.1778 0.0409,-0.486479 0.0547,-0.579967 0.0201,-0.131233 0.0829,-0.402518 0.24941,-0.26176 0.0378,0.0321 0.078,0.07444 0.078,0.07444 0.0353,0.04445 0.0797,0.09525 0.10124,0.04375 0.0328,-0.07761 0.0593,-0.206375 0.0233,-0.275873 -0.0159,-0.03104 -0.22225,-0.2921 -0.36301,-0.113241 m 3.60151,0.984956 c -0.0258,0.07937 -0.0444,0.140758 -0.0102,0.231775 0.0349,0.09031 0.12806,0.296333 0.14323,0.325612 0.0152,0.02928 0.0194,0.0628 -0.0317,0.08432 -0.0512,0.02188 -0.2854,0.07162 -0.32879,-0.1778 -0.0434,-0.24906 -0.0469,-0.321733 -0.0688,-0.364067 -0.0219,-0.04233 -0.042,-0.04727 -0.0589,-0.0053 -0.0166,0.04233 -0.0268,0.129116 -0.0293,0.143226 -0.003,0.0141 -0.002,0.02434 0.006,0.03951 0.01,0.01553 0.10266,0.294217 0.0603,0.370769 -0.0423,0.07691 -0.25188,0.214842 -0.36159,0.0702 -0.0526,-0.100894 -0.0204,-0.356304 -0.0204,-0.416277 0,-0.06032 -0.0194,-0.08078 -0.0448,-0.0321 -0.0254,0.04833 -0.0395,0.08078 -0.0381,0.124177 0.001,0.04304 0.007,0.229658 0.004,0.288573 -0.004,0.05891 0,0.249412 0.11219,0.303035 0.11253,0.05362 0.27622,0.0039 0.40005,-0.230365 0.096,0.139349 0.2413,0.140055 0.31961,0.11148 0.0663,-0.024 0.14041,-0.12418 0.16228,-0.262115 0.0215,-0.137935 -0.0141,-0.232481 -0.0575,-0.310798 -0.0575,-0.0956 -0.096,-0.25682 -0.096,-0.25682 -0.0201,-0.0575 -0.0356,-0.116417 -0.0614,-0.03704 m 7.11694,0.199319 c -0.0339,0.08431 -0.17851,0.37465 -0.15664,0.717198 0.005,0.07902 0.0579,0.233185 0.1771,0.237418 0.0614,-2.64e-4 0.14111,-0.04516 0.19755,-0.238477 0.01,-0.0441 0.0162,-0.07902 0.0201,-0.09631 0.006,-0.02611 -0.013,-0.05715 -0.0335,0.0028 -0.0448,0.118533 -0.16193,0.201438 -0.24977,0.04269 -0.0141,-0.03175 -0.0734,-0.175683 0.0353,-0.491067 0.0219,-0.06103 0.0497,-0.1524 0.0497,-0.1524 0.0243,-0.06879 -0.005,-0.106188 -0.0399,-0.02188 m 3.30764,0.173215 c -0.0321,0.07796 -0.1651,0.346779 -0.14534,0.663927 0.005,0.07338 0.054,0.2159 0.16404,0.219781 0.0572,-2.64e-4 0.13053,-0.04163 0.18309,-0.220839 0.009,-0.04057 0.0148,-0.07303 0.0183,-0.0889 0.006,-0.02434 -0.012,-0.05292 -0.0307,0.0024 -0.042,0.109715 -0.14993,0.186621 -0.23142,0.03951 -0.013,-0.02928 -0.0681,-0.162984 0.0328,-0.45438 0.0204,-0.0568 0.0459,-0.14111 0.0459,-0.14111 0.0222,-0.06421 -0.005,-0.09878 -0.0367,-0.02045 m -6.20642,0.0081 -0.16828,0.230717 -0.32314,-0.235302 c -0.008,-0.006 -0.0198,-0.0039 -0.0257,0.0046 l -0.19509,0.267407 c -0.006,0.0088 -0.005,0.02011 0.004,0.02611 l 0.33267,0.24271 c 0.008,0.006 0.0198,0.0035 0.0257,-0.0049 l 0.16828,-0.230717 0.32314,0.235656 c 0.008,0.006 0.0198,0.0035 0.0258,-0.0049 l 0.19508,-0.267052 c 0.006,-0.0085 0.005,-0.02045 -0.004,-0.02611 l -0.33267,-0.242711 c -0.008,-0.006 -0.0198,-0.0039 -0.0257,0.0046 m -4.32929,0.803629 -0.19508,0.267404 c -0.006,0.0085 -0.005,0.02011 0.004,0.02574 l 0.33266,0.24271 c 0.008,0.006 0.0194,0.0039 0.0261,-0.0046 l 0.19438,-0.267407 c 0.006,-0.0088 0.005,-0.02011 -0.003,-0.02611 l -0.33306,-0.24261 c -0.008,-0.0056 -0.0194,-0.0039 -0.0257,0.0049 m 5.63245,-0.38735 c -0.013,0.04515 -0.0455,0.239535 -0.0533,0.279752 -0.008,0.03986 -0.007,0.07973 0.0124,0.113948 0.0198,0.03422 0.0706,0.152752 0.10689,0.24906 0.0367,0.09631 0.41452,0.82409 0.44944,0.888648 0.0346,0.06456 0.042,0.112536 0.007,0.155221 -1.2125,1.279525 -3.55283,2.066221 -3.62797,2.109965 -0.0744,0.04339 -0.0547,0.07726 0.0713,0.05539 0.18839,-0.03351 1.23931,-0.209196 1.53952,-0.353484 0.19721,-0.09525 0.88759,-0.433916 1.45204,-0.876651 -0.0159,0.1143 -0.0303,0.282575 -0.0226,0.495651 0.0385,1.029055 0.95885,0.857957 1.2005,0.80504 0.7232,-0.15875 1.60796,-1.158875 1.68346,-1.359958 0.0741,-0.198615 0.085,-0.37959 0.0681,-0.537633 0.19086,-0.103365 0.60008,-0.433211 0.60008,-0.433211 0.0169,0.438854 0.36618,0.570794 0.47343,0.589492 0.50376,0.07655 0.756,-0.344313 0.86324,-0.480838 0.0917,0.240596 0.31221,0.287163 0.42545,0.30974 0.43462,0.08643 0.51894,-0.22084 0.54187,-0.291042 0.13617,-0.423333 -0.10971,-0.739423 -0.14111,-0.774348 -0.0314,-0.03492 -0.0473,-0.0013 -0.0586,0.03916 -0.0113,0.04057 -0.0462,0.193675 -0.0684,0.288925 0,0 0.091,0.148167 0.12347,0.223309 0.0324,0.0755 -0.0159,0.116416 -0.10936,0.128413 -0.26423,0.0321 -0.47484,-0.119592 -0.54786,-0.18909 -0.0727,-0.0702 0.006,-0.193675 0.0649,-0.341135 0.0469,-0.118182 -0.0402,-0.132292 -0.10725,-2.65e-4 -0.22366,0.588788 -0.53834,0.651933 -0.62124,0.674865 -0.74612,0.2032 -0.68157,-0.478719 -0.6791,-0.59055 0.003,-0.111832 -0.079,-0.07056 -0.1711,0.0032 -0.31361,0.252235 -0.56691,0.400402 -0.70273,0.460727 -0.11712,-0.228952 -0.28716,-0.372534 -0.35877,-0.424392 -0.80751,-0.588785 -0.87419,0.599371 -0.84985,0.726371 0.12313,0.505177 0.94757,0.198967 1.07704,0.183796 0.12946,-0.01516 0.0871,0.155575 0.0148,0.257175 -0.17956,0.250121 -0.38594,0.429683 -0.57291,0.582438 -0.79975,0.652285 -1.20121,0.600778 -1.32468,0.5969 -0.78528,-0.02222 -0.71296,-0.86854 -0.66957,-1.049163 0.23636,-0.200377 0.43921,-0.418394 0.55739,-0.642054 0.048,-0.122767 0.13088,-0.401463 -0.0191,-0.751771 -0.0783,-0.15381 -0.32632,-0.585962 -0.32632,-0.585962 0,0 0.18274,0.0056 0.20002,0.0053 0.0176,-2.64e-4 0.0515,-0.01834 0.007,-0.06915 -0.0441,-0.05115 -0.42757,-0.433562 -0.4505,-0.464254 -0.0229,-0.03069 -0.0441,-0.05292 -0.0572,-0.0074 m 2.42217,1.752245 c 0,0 -0.10971,0.06315 -0.41768,0.04269 -0.25753,-0.01765 -0.23495,-0.117829 -0.20003,-0.156281 0.0384,-0.04127 0.35419,-0.240242 0.61771,0.113593 m -12.12497,-1.506008 c -0.0455,0.15593 -0.24271,0.695325 -0.17286,1.313746 0.0162,0.142875 0.11465,0.417687 0.30233,0.414512 0.0974,-0.0056 0.21802,-0.09384 0.28716,-0.449791 0.0109,-0.08043 0.0166,-0.144285 0.0215,-0.176035 0.007,-0.04763 -0.0268,-0.102659 -0.0519,0.0078 -0.0589,0.219075 -0.2346,0.379941 -0.38947,0.09948 -0.0254,-0.05609 -0.13335,-0.311854 0.005,-0.892527 0.0282,-0.11289 0.0624,-0.280458 0.0624,-0.280458 0.0311,-0.127 -0.0187,-0.192265 -0.0646,-0.03669 m 8.80851,0.08114 c -0.0536,0.06632 -0.58949,0.76976 -0.58949,0.76976 l -0.39052,-0.277987 c 0,0 0.15945,-0.03951 0.18697,-0.04762 0.0279,-0.0081 0.0437,-0.04375 -0.006,-0.06985 -0.0501,-0.0254 -0.52035,-0.21308 -0.55598,-0.227542 -0.036,-0.01447 -0.049,-0.03105 -0.0519,0.0074 -0.003,0.0381 -0.008,0.347485 -0.008,0.347485 0,0 -0.007,0.02151 0.0339,0.04516 0.0409,0.02328 0.0811,0.07338 0.11501,0.106537 0.0335,0.03387 0.47096,0.378884 0.49177,0.39088 0,0 -0.21837,0.384527 -0.24624,0.685445 -0.0279,0.300922 0.005,0.71614 0.41663,0.582438 0.11077,-0.03175 0.5715,-0.214841 0.67451,-0.536223 0.0335,-0.118181 0.12806,-0.331965 -0.0261,-0.548568 -0.0893,-0.127355 -0.44909,-0.3429 -0.44909,-0.3429 0,0 0.27623,-0.382059 0.30304,-0.428625 0.0261,-0.04657 0.1277,-0.342548 0.13864,-0.414515 0.0109,-0.07161 0.0169,-0.107244 -0.0363,-0.04127 m -0.0945,1.622777 c -0.15275,0.125941 -0.47378,0.2921 -0.56374,0.300566 -0.0903,0.0088 -0.32985,-0.03528 -0.22578,-0.280458 0.0353,-0.07937 0.27482,-0.48895 0.27482,-0.48895 0.0896,0.04904 0.66745,0.343255 0.5147,0.468842 m -2.5587,0.473075 c -0.0332,0.08749 -0.17674,0.390879 -0.13264,0.736248 0.0106,0.07973 0.0773,0.232481 0.2099,0.229306 0.0684,-0.0042 0.15416,-0.05433 0.20638,-0.254354 0.008,-0.0448 0.013,-0.08078 0.0166,-0.09807 0.005,-0.02716 -0.018,-0.0575 -0.0371,0.0046 -0.043,0.123118 -0.16827,0.214489 -0.27516,0.05891 -0.0177,-0.03105 -0.0917,-0.173214 0.0109,-0.499533 0.0208,-0.06315 0.0466,-0.15734 0.0466,-0.15734 0.0233,-0.07126 -0.0116,-0.107243 -0.0455,-0.01976 m 8.78946,0.08925 c -0.0314,0.08608 -0.043,0.142875 -0.0402,0.175329 0.004,0.03316 0.0148,0.1397 0.0148,0.1397 -0.0321,0.02574 -0.16863,0.110773 -0.3055,0.01024 0.009,-0.02893 0.0268,-0.08855 0.031,-0.121357 0.0148,-0.05045 -0.0166,-0.08819 -0.0416,-0.03563 -0.0247,0.05221 -0.0829,0.228246 -0.12559,0.267759 -0.043,0.0388 -0.0938,0.184502 -0.41945,0.03669 -0.0575,-0.02188 -0.15769,-0.09595 -0.31291,0.06068 -0.35278,0.327729 -0.5962,0.353129 -0.99131,0.493888 -0.0476,0.02188 -0.14852,0.09701 -0.0293,0.08537 0.11924,-0.01199 0.62018,2.64e-4 0.89323,-0.312915 0.0571,-0.05503 0.12206,-0.201435 0.33867,-0.116769 0.11994,0.04586 0.34184,0.236009 0.58385,-0.140052 0.14217,0.0949 0.35842,0.0568 0.39334,-0.04762 0.0346,-0.104423 0.0741,-0.208846 0.0737,-0.279754 -2.7e-4,-0.07126 -0.007,-0.1651 -0.007,-0.1651 -0.005,-0.05609 -0.0247,-0.136525 -0.0561,-0.05045 m -10.59251,0.08996 c -0.0339,0.08749 -0.17709,0.390877 -0.13299,0.736245 0.0102,0.07973 0.0773,0.232834 0.21025,0.228955 0.0681,-0.0039 0.15381,-0.05397 0.20602,-0.253648 0.008,-0.04516 0.013,-0.08079 0.0166,-0.09878 0.005,-0.02681 -0.018,-0.0568 -0.037,0.0049 -0.043,0.123122 -0.16863,0.214138 -0.27481,0.05891 -0.018,-0.03104 -0.0921,-0.173566 0.0106,-0.499181 0.0212,-0.0635 0.0466,-0.157337 0.0466,-0.157337 0.0229,-0.07126 -0.0116,-0.107598 -0.0452,-0.02011 m -3.40501,0.624769 c -0.0702,0.03493 -1.22132,0.523523 -1.29399,0.564092 -0.0723,0.04022 -0.0977,0.05045 -0.11218,0.103364 -0.0148,0.05292 -0.0222,0.08361 -0.0258,0.09208 -0.0148,0.03528 -0.0265,0.07902 0.0801,0.01834 0.0332,-0.01871 1.19838,-0.513292 1.258,-0.54751 0.0596,-0.03422 0.0945,-0.04586 0.12171,-0.100542 0.0268,-0.05398 0.0332,-0.0635 0.048,-0.101248 0.0159,-0.04022 0.0321,-0.08326 -0.0759,-0.02858"
       style="fill:#231f20;fill-opacity:1;fill-rule:evenodd;stroke:none;stroke-width:0.264583"
       id="path1-0" />
  </g>
</svg>
