<?xml version="1.0" encoding="UTF-8" standalone="no"?>
<!-- Created with Inkscape (http://www.inkscape.org/) -->

<svg
   width="20.155762mm"
   height="6.1774411mm"
   viewBox="0 0 20.155762 6.1774411"
   version="1.1"
   id="svg1"
   xmlns:inkscape="http://www.inkscape.org/namespaces/inkscape"
   xmlns:sodipodi="http://sodipodi.sourceforge.net/DTD/sodipodi-0.dtd"
   xmlns="http://www.w3.org/2000/svg"
   xmlns:svg="http://www.w3.org/2000/svg">
  <sodipodi:namedview
     id="namedview1"
     pagecolor="#ffffff"
     bordercolor="#666666"
     borderopacity="1.0"
     inkscape:showpageshadow="2"
     inkscape:pageopacity="0.0"
     inkscape:pagecheckerboard="0"
     inkscape:deskcolor="#d1d1d1"
     inkscape:document-units="mm" />
  <defs
     id="defs1" />
  <g
     inkscape:label="Layer 1"
     inkscape:groupmode="layer"
     id="layer1"
     transform="translate(-100.28684,-29.557227)">
    <path
       d="m 112.69934,29.726397 c -0.0702,0.106891 -0.12241,0.362656 -0.0222,0.435327 0.10018,0.07338 0.24659,0.132646 0.24659,0.132646 -0.46602,0.570793 -0.78493,0.679802 -1.05728,0.839258 -0.0702,0.04127 -0.0561,0.07832 -0.0152,0.06738 0.0215,-0.0056 0.38771,-0.06244 0.81598,-0.387702 0.23142,-0.176035 0.37183,-0.47625 0.37183,-0.47625 0,0 0.11571,0.09666 0.13158,0.116065 0.0353,0.0441 0.054,0.07585 0.0706,0.02998 0.061,-0.168981 -0.0251,-0.270933 -0.10725,-0.323498 0,0 0.0854,-0.263525 -0.0716,-0.527402 -0.0265,-0.0441 -0.18203,-0.18556 -0.36301,0.09419 m 0.24377,0.07267 c 0.10478,0.09737 0.0889,0.257879 0.0847,0.294568 0,0 -0.13406,-0.06279 -0.19403,-0.08819 -0.0596,-0.02612 -0.0914,-0.06421 -0.0639,-0.101955 0.0924,-0.130175 0.13793,-0.125587 0.17321,-0.10442 m -1.56351,-0.167923 c -0.0159,0.03916 -0.11183,0.303389 -0.11183,0.303389 0.0257,0.17145 0.25294,2.014361 0.26776,2.13995 0.0152,0.125942 0.33408,2.210152 0.35066,2.786944 -0.004,0.05927 0.0215,0.08078 0.0483,0.02434 0.0268,-0.05645 0.21272,-0.441325 -0.008,-1.851025 -0.0162,-0.117827 -0.35031,-2.50049 -0.35031,-2.50049 0,0 0.1972,0.185208 0.2286,0.218723 0.0318,0.03351 0.0702,0.01587 0.0519,-0.03775 -0.018,-0.05433 -0.42157,-1.030817 -0.43463,-1.064683 -0.0134,-0.03387 -0.0261,-0.05856 -0.0427,-0.01939 m -1.10984,0.02151 c -0.0159,0.03881 -0.13194,0.329848 -0.13194,0.329848 0.01,0.06597 0.61278,3.362325 0.63853,3.525309 0.008,0.05362 0.0508,0.230364 -0.006,0.291748 -0.0977,0.137583 -0.98566,0.487537 -1.27952,-0.03669 0.0868,-0.05856 0.47589,-0.23495 0.38064,-0.904169 -0.15098,-0.688975 -0.48436,-0.576791 -0.6103,-0.459316 -0.1263,0.117475 -0.3556,0.46496 -0.14288,1.139825 -0.30585,0.183795 -1.1116,0.472016 -1.54305,0.815975 -0.28857,0.23001 -0.61348,0.739772 -0.76059,0.865714 -0.36089,0.373946 -1.02905,0.407458 -0.78563,-0.482952 0.0529,-0.181679 0.0822,-0.274109 0.10901,-0.352425 0.15592,-0.05468 0.32279,-0.127704 0.49882,-0.224719 0.16828,-0.09243 0.36125,-0.201435 0.4117,-0.501298 0.0169,-0.117475 0.008,-0.282575 0.008,-0.282575 -0.0222,-0.156985 -0.0967,-0.655108 -0.48436,-0.921454 -0.14005,-0.09596 -0.387,-0.157339 -0.54928,0.03669 -0.17427,0.208491 -0.28539,0.498123 -0.17638,0.722137 0.10936,0.223661 0.44132,0.242359 0.62194,0.184854 0.10231,-0.03281 0.31821,-0.02082 0.381,0.08149 0.049,0.07973 0.0529,0.09772 -0.0116,0.156633 -0.0642,0.05891 -1.20227,0.826207 -2.12795,0.361246 -0.12136,-0.06103 -0.41381,-0.310446 -0.51541,-1.355373 -0.0268,-0.275518 -0.14852,-2.315985 -0.4565,-2.946048 -0.0392,-0.08678 -0.0448,-0.06173 -0.0702,0.0081 -0.0251,0.07056 -0.12594,0.266348 -0.0921,0.358423 0.21837,0.456494 0.40323,2.607379 0.45932,2.996494 0.0268,0.186618 0.0522,1.149701 0.81492,1.408641 0.13864,0.04727 0.54716,0.135819 1.13136,-0.03246 -0.11007,0.30339 -0.32526,1.059391 0.30797,1.271765 0.18486,0.05433 0.55422,0.03387 0.84843,-0.382059 0.12594,-0.168275 0.51823,-0.775758 1.22696,-1.062918 0.23143,-0.09384 0.79728,-0.361247 0.89818,-0.402522 0.0473,0.09807 0.26246,0.679099 1.05127,0.553157 0.0892,-0.01588 0.58032,-0.107244 0.63818,-0.632177 0.009,-0.11289 0.0444,-0.645583 -0.14605,-1.47179 -0.0332,-0.170743 -0.34079,-1.75401 -0.34079,-1.75401 0,0 0.19721,0.185208 0.22896,0.21872 0.0318,0.03352 0.0702,0.01588 0.0522,-0.03845 -0.0183,-0.05398 -0.42228,-1.030111 -0.43498,-1.063977 -0.0134,-0.03387 -0.0265,-0.05856 -0.0427,-0.01939 m -0.56127,3.372556 c 0.11042,0.20461 -0.32174,0.3937 -0.38488,0.426508 0,0 -0.0871,-0.15381 -0.14006,-0.369006 -0.0314,-0.128058 0.0159,-0.232833 0.15946,-0.344662 0.14323,-0.111832 0.3235,0.201083 0.36548,0.28716 m -3.10868,-0.02257 c 0,0 -0.27905,0.0889 -0.52035,-0.0019 -0.127,-0.06562 0.0229,-0.181327 0.084,-0.209902 0.0614,-0.02787 0.27447,-0.04939 0.43639,0.211667 m 2.43664,-3.171825 c -0.0825,0.11077 -0.15487,0.385233 -0.0512,0.4699 0.10407,0.08608 0.25859,0.159102 0.25859,0.159102 -0.5401,0.589491 -1.276,1.1303 -1.58115,1.286227 -0.0783,0.04022 -0.0656,0.08079 -0.0205,0.07126 0.0233,-0.0046 0.42121,-0.126297 0.9084,-0.445559 0.41028,-0.269523 0.81527,-0.859015 0.81527,-0.859015 0,0 0.11959,0.112184 0.13546,0.134057 0.0353,0.04939 0.0543,0.08608 0.0748,0.03704 0.0766,-0.179213 -0.0106,-0.294924 -0.0963,-0.357013 0,0 0.109,-0.279752 -0.0448,-0.575379 -0.0257,-0.04939 -0.1852,-0.212021 -0.39864,0.07937 m 0.2593,0.09384 c 0.10724,0.112183 0.0804,0.284692 0.0734,0.32385 0,0 -0.14111,-0.07585 -0.20426,-0.107595 -0.0635,-0.03175 -0.0952,-0.07444 -0.0628,-0.113949 0.1083,-0.13476 0.15699,-0.127351 0.19368,-0.102306 m -4.23545,-0.222954 c -0.0307,0.07479 -0.1584,0.332317 -0.139,0.63641 0.005,0.0702 0.0512,0.207082 0.15699,0.210609 0.0543,0 0.12523,-0.03951 0.17533,-0.211667 0.009,-0.03881 0.0141,-0.06985 0.0177,-0.08502 0.006,-0.02328 -0.0117,-0.0508 -0.0293,0.0024 -0.0399,0.105127 -0.14394,0.178858 -0.2219,0.03739 -0.0127,-0.02822 -0.0649,-0.155575 0.031,-0.435678 0.0198,-0.05398 0.0441,-0.135115 0.0441,-0.135115 0.0219,-0.06103 -0.004,-0.09419 -0.0349,-0.01939 m 2.81269,0.01588 c -0.0674,0.0381 -3.00566,1.36525 -3.19934,1.510593 -0.0974,0.07338 -0.18097,0.191911 -0.21308,0.32244 -0.0466,0.189087 -0.006,0.379587 0.11713,0.403929 0.0861,0.01693 0.13405,0.0695 0.15486,0.09913 0.009,0.0127 0.0233,0.0042 0.0275,-0.0039 0.10548,-0.1905 0.0212,-0.316087 -0.14464,-0.370062 -0.066,-0.02151 -0.0924,-0.115007 0.15981,-0.264232 0.23213,-0.137583 2.94746,-1.380773 2.99932,-1.414285 0.0695,-0.04516 0.11183,-0.06138 0.1404,-0.128765 0.0289,-0.06668 0.0363,-0.07902 0.0519,-0.125589 0.0166,-0.04939 0.0332,-0.102304 -0.0938,-0.02928 m -0.40781,0.832554 c -0.0328,0.08008 -0.16898,0.355248 -0.14852,0.67945 0.005,0.0755 0.0547,0.221191 0.16757,0.224721 0.0586,0 0.13371,-0.04198 0.18733,-0.225425 0.01,-0.04163 0.0152,-0.07514 0.0191,-0.09102 0.006,-0.02469 -0.0127,-0.05433 -0.0314,0.0021 -0.043,0.112535 -0.15381,0.191204 -0.23671,0.04057 -0.0134,-0.02998 -0.0699,-0.166864 0.0332,-0.46496 0.0205,-0.05821 0.0469,-0.144288 0.0469,-0.144288 0.0229,-0.06526 -0.005,-0.100893 -0.0374,-0.02117 m 1.657,0.898525 -0.19509,0.267758 c -0.006,0.0081 -0.005,0.01976 0.004,0.02574 l 0.33267,0.242358 c 0.008,0.0063 0.0194,0.0042 0.0258,-0.0042 l 0.19508,-0.267406 c 0.006,-0.0088 0.005,-0.02045 -0.004,-0.02612 l -0.33267,-0.243062 c -0.008,-0.0053 -0.0194,-0.0035 -0.0257,0.0049 m -2.74885,0.01447 -0.16827,0.230717 -0.32315,-0.235656 c -0.008,-0.0056 -0.0194,-0.0039 -0.0254,0.0049 l -0.19543,0.267407 c -0.006,0.0085 -0.005,0.02011 0.004,0.02611 l 0.33267,0.242359 c 0.008,0.006 0.0198,0.0039 0.0258,-0.0046 l 0.16827,-0.230716 0.32315,0.235301 c 0.008,0.006 0.0198,0.0039 0.0257,-0.0046 l 0.19509,-0.267406 c 0.006,-0.0088 0.005,-0.02045 -0.003,-0.02574 l -0.33302,-0.243065 c -0.008,-0.0056 -0.0194,-0.0039 -0.0258,0.0049 m 1.33421,1.141589 c -0.0998,0.109009 -0.13088,0.18415 -0.16087,0.230363 -0.0409,0.06421 0.0106,0.09278 0.0572,0.04304 0.0466,-0.05009 0.0787,-0.100189 0.21414,-0.09631 0.13582,0.0035 0.46037,-0.0092 0.33902,0.08008 -0.12136,0.08925 -0.2032,0.140759 -0.2032,0.140759 -0.0787,0.0568 -0.14817,0.162629 -0.009,0.103716 0.13934,-0.05891 0.32279,-0.151696 0.4639,-0.364066 0.0409,-0.06174 0.0893,-0.14464 -0.10195,-0.172863 -0.19086,-0.02893 -0.49954,-0.07338 -0.59937,0.03528 m -2.57705,-0.129471 c -0.0328,0.08008 -0.16933,0.355248 -0.14851,0.679805 0.005,0.07479 0.0547,0.220837 0.16756,0.224718 0.0586,-2.64e-4 0.13371,-0.04269 0.18733,-0.226131 0.009,-0.04127 0.0152,-0.07444 0.0191,-0.09102 0.006,-0.02468 -0.0127,-0.05398 -0.0318,0.0028 -0.0423,0.112184 -0.15346,0.190852 -0.23671,0.04022 -0.0134,-0.02998 -0.0695,-0.16651 0.0335,-0.46496 0.0205,-0.05786 0.0469,-0.144288 0.0469,-0.144288 0.0229,-0.06526 -0.005,-0.101246 -0.0374,-0.02117 m 14.09101,-2.653241 c -0.0702,0.106539 -0.12206,0.362656 -0.0219,0.435681 0.0998,0.07338 0.24623,0.132292 0.24623,0.132292 -0.46602,0.571148 -1.38042,0.977193 -1.59843,1.146881 -0.0649,0.04868 -0.0561,0.07796 -0.0148,0.06703 0.036,-0.0095 0.73307,-0.20461 1.37019,-0.750358 0.2921,-0.250473 0.28399,-0.269169 0.35842,-0.420865 0.0632,0.03281 0.10654,0.08537 0.13123,0.116065 0.0356,0.04374 0.0547,0.07585 0.0713,0.02998 0.0607,-0.168979 -0.0254,-0.271285 -0.1076,-0.323496 0,0 0.0857,-0.263173 -0.0716,-0.52705 -0.0261,-0.0441 -0.18203,-0.185914 -0.363,0.09384 m 0.24377,0.07302 c 0.10512,0.09737 0.0889,0.257529 0.0847,0.294216 0,0 -0.13405,-0.06279 -0.19403,-0.08819 -0.0596,-0.02612 -0.091,-0.06385 -0.0635,-0.102307 0.0921,-0.12982 0.13794,-0.125235 0.17287,-0.103716 M 117.6767,29.72913 c -0.18309,0.232833 -0.19473,0.538691 -0.21907,0.879827 -0.0257,-0.07162 -0.17216,-0.528815 -0.63959,-0.790927 -0.0339,-0.01905 -0.10301,0.01728 -0.10936,0.124883 -0.004,0.06279 -0.0219,0.215194 0.0226,0.258233 0.0441,0.04339 0.17462,0.128059 0.1965,0.140052 0.0219,0.01199 0.0455,0.01342 0.0522,-0.0127 0.006,-0.02574 0.036,-0.08678 0.0787,-0.04304 0.0356,0.03598 0.26599,0.226837 0.38558,0.630414 0.0208,0.05327 0.0706,0.05856 0.0819,-0.01728 0.0275,-0.186621 0.0427,-0.511175 0.0575,-0.6096 0.0204,-0.13829 0.0868,-0.423333 0.26211,-0.275521 0.0395,0.03387 0.0819,0.07796 0.0819,0.07796 0.037,0.04727 0.0836,0.100541 0.10654,0.04657 0.0342,-0.08149 0.0621,-0.216958 0.0243,-0.289983 -0.0166,-0.03246 -0.23354,-0.306917 -0.3817,-0.118885 m -1.80023,-0.01093 c -0.0674,0.03951 -1.78752,1.03223 -1.85737,1.077384 -0.0695,0.0448 -0.0942,0.05609 -0.10549,0.110066 -0.0113,0.05362 -0.0169,0.08467 -0.0201,0.09313 -0.0124,0.03634 -0.0212,0.08043 0.0811,0.01341 0.0324,-0.02082 1.76247,-1.020585 1.82245,-1.058333 0.0586,-0.03634 0.0921,-0.05151 0.11535,-0.107598 0.0233,-0.05539 0.0296,-0.06562 0.0416,-0.104069 0.0138,-0.04163 0.0268,-0.08502 -0.0776,-0.024 m -13.94918,0.353132 c -0.16052,0.247298 -0.14641,0.553156 -0.14182,0.894998 -0.0314,-0.06915 -0.21273,-0.51294 -0.69392,-0.735896 -0.0349,-0.01587 -0.0995,0.02574 -0.097,0.13335 10e-4,0.0628 -0.003,0.216254 0.0438,0.255413 0.0469,0.03986 0.18238,0.113593 0.20461,0.12347 0.0226,0.01024 0.0455,0.0099 0.0501,-0.01659 0.004,-0.02646 0.0286,-0.08926 0.0737,-0.04974 0.0328,0.02822 0.29598,0.223308 0.39547,0.512585 0.084,0.251177 -0.50377,0.821973 -0.53446,0.848077 -0.0557,0.04727 -0.0346,0.07303 -0.008,0.05609 0.0265,-0.01728 0.0536,-0.02363 0.35913,-0.264583 0.24624,-0.193675 0.28434,-0.397934 0.29421,-0.55245 0.002,-0.0078 0.004,-0.01622 0.004,-0.02681 0.0116,-0.188383 -8e-4,-0.512939 0.006,-0.612068 0.009,-0.139348 0.0498,-0.42898 0.23425,-0.295982 0.0416,0.03069 0.0871,0.07126 0.0871,0.07126 0.0402,0.04339 0.0907,0.09313 0.10831,0.0374 0.0268,-0.08432 0.043,-0.221192 -2.7e-4,-0.29069 -0.0187,-0.03104 -0.2547,-0.287515 -0.38452,-0.08784 m 0.9659,0.372886 c -0.0303,0.08643 -0.16016,0.385939 -0.12065,0.728839 0.009,0.07867 0.0699,0.231069 0.18944,0.229307 0.0621,-0.0035 0.1397,-0.05221 0.18662,-0.249767 0.008,-0.04445 0.012,-0.08008 0.0152,-0.09737 0.005,-0.02681 -0.0162,-0.05715 -0.0332,0.0042 -0.0392,0.121354 -0.15275,0.210608 -0.24871,0.05574 -0.0159,-0.03104 -0.0829,-0.17286 0.0102,-0.4953 0.0187,-0.06244 0.042,-0.154869 0.042,-0.154869 0.0212,-0.07056 -0.0102,-0.106891 -0.0409,-0.02082 m 13.31348,0.62865 c -0.0346,0.08467 -0.1785,0.37465 -0.15663,0.71755 0.005,0.07902 0.0578,0.233539 0.17674,0.237066 0.0617,0 0.14146,-0.0448 0.19791,-0.238125 0.01,-0.04374 0.0159,-0.07902 0.0201,-0.09631 0.006,-0.02611 -0.013,-0.05715 -0.0332,0.0024 -0.0452,0.118885 -0.16228,0.201787 -0.25012,0.04268 -0.0141,-0.03175 -0.0734,-0.175683 0.0353,-0.490714 0.0219,-0.06103 0.0494,-0.1524 0.0494,-0.1524 0.0247,-0.06879 -0.005,-0.106186 -0.0395,-0.02222 m 3.30765,0.173566 c -0.0321,0.07761 -0.16546,0.346782 -0.14535,0.66393 0.005,0.07303 0.0536,0.216252 0.16369,0.219427 0.0568,0 0.13088,-0.04163 0.18345,-0.22084 0.009,-0.04057 0.0145,-0.07303 0.0183,-0.08855 0.006,-0.02434 -0.0123,-0.05327 -0.0307,0.0021 -0.042,0.110419 -0.15028,0.186971 -0.23177,0.03951 -0.013,-0.02893 -0.0677,-0.162277 0.0328,-0.454377 0.0205,-0.0568 0.0459,-0.140758 0.0459,-0.140758 0.0229,-0.0635 -0.005,-0.09878 -0.0363,-0.02045 m -6.20677,0.0081 -0.16828,0.230716 -0.32279,-0.235656 c -0.008,-0.0056 -0.0194,-0.0035 -0.0258,0.0049 l -0.19508,0.267406 c -0.006,0.0085 -0.005,0.02011 0.003,0.02574 l 0.33303,0.243065 c 0.008,0.0056 0.0194,0.0035 0.0257,-0.0046 l 0.16827,-0.231068 0.3228,0.235656 c 0.008,0.0056 0.0198,0.0035 0.0257,-0.0046 l 0.19544,-0.267758 c 0.006,-0.0085 0.005,-0.02011 -0.004,-0.02612 l -0.33267,-0.242713 c -0.008,-0.0056 -0.0198,-0.0035 -0.0261,0.0049 m -12.833,0.184502 c -0.0455,0.15593 -0.24271,0.695325 -0.17286,1.314098 0.0134,0.11924 0.0847,0.330907 0.21766,0.394758 -10e-4,0.0024 -0.003,0.0046 -0.004,0.0074 -0.0681,0.112535 -0.657576,1.60655 0.47802,1.975908 0.2487,0.08114 0.90416,0.239887 2.11349,-0.62865 0.115,-0.08255 0.67627,-0.421217 0.53516,-0.99201 -0.0166,-0.07973 -0.32244,-0.815271 -0.32244,-0.815271 0.0744,0.03175 0.12206,0.04621 0.14852,0.05821 0.0261,0.01199 0.072,-0.01482 0.0311,-0.0702 -0.0406,-0.05574 -0.31115,-0.393348 -0.31821,-0.415218 -0.007,-0.02151 -0.019,-0.03881 -0.0261,-0.06773 -0.007,-0.02928 -0.0265,-0.02434 -0.0385,0 -0.012,0.02434 -0.0861,0.262112 -0.0907,0.283634 -0.005,0.02188 0.0501,0.240241 0.0857,0.339725 0.0935,0.284337 0.2921,0.68227 0.32315,0.747535 0.031,0.06562 0.0861,0.172508 0.012,0.269875 -0.0741,0.09666 -0.67557,0.678743 -1.67358,0.92075 -0.15699,0.0381 -0.81703,0.169685 -1.16558,-0.330907 -0.0575,-0.08219 -0.32314,-0.493535 -0.0191,-1.259416 10e-4,-0.0013 10e-4,-0.0032 0.002,-0.0049 0.005,0 0.009,0.0011 0.0141,0.0011 0.0967,-0.006 0.21766,-0.09419 0.28681,-0.450146 0.0109,-0.08008 0.0169,-0.144285 0.0215,-0.176035 0.007,-0.04727 -0.0265,-0.102658 -0.0519,0.0085 -0.0589,0.218724 -0.23495,0.37959 -0.38912,0.09913 -0.0254,-0.05609 -0.1337,-0.312208 0.005,-0.89253 0.0282,-0.112887 0.0624,-0.280458 0.0624,-0.280458 0.0314,-0.127 -0.0187,-0.192617 -0.0645,-0.03704 m 1.83162,0.124884 c -0.0303,0.08643 -0.16016,0.385588 -0.12101,0.728133 0.01,0.07973 0.0702,0.231775 0.19015,0.229658 0.0617,-0.0032 0.13935,-0.05221 0.18627,-0.249766 0.007,-0.04445 0.012,-0.08008 0.0152,-0.09737 0.005,-0.02646 -0.0162,-0.0568 -0.0332,0.0042 -0.0395,0.121357 -0.15275,0.210963 -0.24871,0.05539 -0.0159,-0.03105 -0.0829,-0.172508 0.0102,-0.494596 0.0191,-0.06244 0.042,-0.15522 0.042,-0.15522 0.0212,-0.07056 -0.0102,-0.106892 -0.0409,-0.02045 m 12.30489,0.10654 c -0.013,0.04551 -0.0455,0.23989 -0.0536,0.280107 -0.008,0.03986 -0.007,0.07973 0.0124,0.113593 0.0201,0.03457 0.0706,0.153107 0.10724,0.249415 0.0367,0.09595 0.41417,0.824087 0.44944,0.888645 0.0346,0.06421 0.042,0.112538 0.007,0.155223 -1.21285,1.279525 -3.55318,2.066219 -3.62797,2.109611 -0.0748,0.04374 -0.055,0.07726 0.0709,0.05539 0.18838,-0.03316 1.23966,-0.208844 1.53952,-0.353129 0.19756,-0.09525 0.88759,-0.434271 1.45239,-0.876652 -0.0159,0.1143 -0.0303,0.282221 -0.0222,0.495652 0.0378,1.029052 0.95815,0.857954 1.19945,0.805392 0.7239,-0.159105 1.60901,-1.159227 1.68416,-1.360665 0.0741,-0.197908 0.085,-0.379587 0.0681,-0.537279 0.1905,-0.103365 0.60008,-0.433565 0.60008,-0.433565 0.0166,0.439209 0.36583,0.571149 0.47343,0.589492 0.50341,0.07655 0.756,-0.343958 0.86324,-0.480131 0.0914,0.240241 0.31221,0.286808 0.42545,0.309388 0.43427,0.08643 0.51894,-0.22084 0.54152,-0.291042 0.13652,-0.422982 -0.10901,-0.739423 -0.14076,-0.774348 -0.0318,-0.03493 -0.0476,-0.0011 -0.0586,0.03951 -0.0113,0.04022 -0.0462,0.193323 -0.0684,0.288573 0,0 0.091,0.147815 0.12347,0.223308 0.0325,0.07549 -0.0159,0.116769 -0.10936,0.128059 -0.26423,0.0321 -0.47519,-0.11924 -0.54751,-0.18909 -0.0727,-0.06985 0.006,-0.19332 0.0646,-0.341135 0.0466,-0.117827 -0.0402,-0.132292 -0.1069,-2.65e-4 -0.22401,0.589137 -0.53904,0.652637 -0.62159,0.674862 -0.74612,0.203555 -0.68192,-0.478366 -0.6791,-0.590195 0.002,-0.111832 -0.0794,-0.07056 -0.17109,0.0028 -0.31362,0.252238 -0.56692,0.400404 -0.70274,0.461433 -0.11712,-0.228952 -0.28716,-0.373237 -0.35913,-0.424743 -0.8075,-0.588786 -0.87383,0.599016 -0.84948,0.726368 0.12276,0.50518 0.94756,0.199321 1.07703,0.18415 0.12947,-0.01587 0.0871,0.155223 0.0145,0.256471 -0.17886,0.250471 -0.38559,0.430036 -0.57291,0.582788 -0.7994,0.651933 -1.20086,0.600781 -1.32433,0.596548 -0.78564,-0.02151 -0.71296,-0.868186 -0.66957,-1.049161 0.23636,-0.200379 0.43921,-0.417689 0.55703,-0.641704 0.0483,-0.122767 0.13088,-0.40146 -0.0187,-0.751769 -0.0783,-0.15381 -0.32632,-0.585964 -0.32632,-0.585964 0,0 0.18274,0.0056 0.20002,0.0053 0.0169,-2.64e-4 0.0515,-0.01834 0.007,-0.06914 -0.0445,-0.05151 -0.42756,-0.433917 -0.45085,-0.464609 -0.0229,-0.03069 -0.0441,-0.05256 -0.0572,-0.0074 m 2.42217,1.752248 c 0,0 -0.11006,0.0635 -0.41733,0.04304 -0.25788,-0.01765 -0.23566,-0.117827 -0.20038,-0.156279 0.0381,-0.04127 0.35384,-0.239889 0.61771,0.113242 m -3.31681,-1.424871 c -0.0533,0.06632 -0.58949,0.770467 -0.58949,0.770467 l -0.38982,-0.278342 c 0,0 0.15875,-0.03951 0.18662,-0.04798 0.0279,-0.0081 0.0434,-0.04374 -0.006,-0.0695 -0.0501,-0.0254 -0.52,-0.213077 -0.55633,-0.227542 -0.0353,-0.01482 -0.0487,-0.03069 -0.0515,0.0074 -0.003,0.03775 -0.008,0.347133 -0.008,0.347133 0,0 -0.007,0.02188 0.0335,0.04516 0.0413,0.02363 0.0815,0.07338 0.115,0.106892 0.0335,0.03387 0.47096,0.378883 0.49248,0.390877 0,0 -0.21907,0.384529 -0.24659,0.685448 -0.0282,0.300919 0.005,0.71614 0.41663,0.582435 0.11077,-0.03175 0.5715,-0.214841 0.67416,-0.535868 0.0335,-0.118534 0.12806,-0.332317 -0.0261,-0.549275 -0.0889,-0.127352 -0.44873,-0.342548 -0.44873,-0.342548 0,0 0.27623,-0.382059 0.30233,-0.428625 0.0265,-0.04692 0.12806,-0.342546 0.13935,-0.414161 0.0113,-0.07197 0.0166,-0.107598 -0.0367,-0.04198 m -0.0942,1.623483 c -0.15276,0.125238 -0.47378,0.291396 -0.56409,0.300215 -0.0903,0.0085 -0.32985,-0.03528 -0.22543,-0.280106 0.0356,-0.08008 0.27481,-0.489654 0.27481,-0.489654 0.0893,0.04939 0.66746,0.343958 0.51471,0.469545 m -11.64625,-0.573968 -0.19509,0.267406 c -0.006,0.0081 -0.005,0.01976 0.004,0.02574 l 0.33267,0.243065 c 0.008,0.0056 0.0198,0.0035 0.0257,-0.0049 l 0.19509,-0.267758 c 0.006,-0.0081 0.005,-0.01976 -0.003,-0.02574 l -0.33302,-0.242713 c -0.008,-0.0056 -0.0198,-0.0035 -0.0257,0.0049 m -0.52988,0.332316 c -0.0303,0.08678 -0.16016,0.385586 -0.12065,0.728486 0.009,0.07902 0.0695,0.231423 0.18944,0.229306 0.0621,-0.0035 0.1397,-0.05221 0.18662,-0.249767 0.007,-0.04445 0.012,-0.07938 0.0152,-0.09701 0.005,-0.02681 -0.0162,-0.0568 -0.0332,0.0042 -0.0392,0.121356 -0.15275,0.210608 -0.24906,0.05539 -0.0155,-0.03105 -0.0829,-0.172509 0.0106,-0.494948 0.0187,-0.06209 0.0416,-0.155575 0.0416,-0.155575 0.0215,-0.0702 -0.01,-0.10654 -0.0406,-0.02011 m 18.40689,0.803275 c -0.031,0.08608 -0.0434,0.143227 -0.0402,0.175684 0.004,0.03316 0.0148,0.139348 0.0148,0.139348 -0.0325,0.02611 -0.16863,0.111125 -0.30551,0.01058 0.009,-0.02928 0.0268,-0.08855 0.0307,-0.121356 0.0148,-0.0508 -0.0162,-0.08819 -0.0409,-0.03634 -0.0251,0.05327 -0.0833,0.2286 -0.12629,0.267759 -0.043,0.03986 -0.0935,0.184854 -0.41946,0.03739 -0.0568,-0.02188 -0.15698,-0.09596 -0.31256,0.06032 -0.35278,0.327729 -0.59619,0.353484 -0.9913,0.494242 -0.048,0.02188 -0.14817,0.09701 -0.0293,0.08502 0.11924,-0.01199 0.62018,2.64e-4 0.89323,-0.312561 0.0568,-0.05539 0.12171,-0.201438 0.33902,-0.116771 0.11994,0.04551 0.34114,0.235657 0.58314,-0.140052 0.14252,0.09454 0.35913,0.0568 0.39335,-0.04762 0.0346,-0.105127 0.0741,-0.209195 0.0737,-0.280104 -2.7e-4,-0.07126 -0.006,-0.1651 -0.006,-0.1651 -0.005,-0.05645 -0.0251,-0.136173 -0.0561,-0.05045 m -8.6808,0.05891 c -0.0328,0.07973 -0.16934,0.355246 -0.14853,0.679447 0.005,0.07479 0.0547,0.221192 0.16758,0.224722 0.0582,-2.65e-4 0.1337,-0.04198 0.18767,-0.22578 0.009,-0.04163 0.0148,-0.07479 0.0187,-0.09066 0.006,-0.02506 -0.0124,-0.05468 -0.0314,0.0021 -0.0427,0.112535 -0.15381,0.191203 -0.23671,0.04022 -0.0138,-0.02963 -0.0699,-0.166513 0.0332,-0.46496 0.0204,-0.05821 0.0469,-0.144288 0.0469,-0.144288 0.0229,-0.06526 -0.005,-0.100541 -0.0374,-0.02082 m -2.40982,0.131234 c -0.0328,0.07973 -0.16933,0.354893 -0.14852,0.679802 0.005,0.07479 0.0543,0.220837 0.16757,0.224366 0.0582,-2.64e-4 0.1337,-0.04269 0.18732,-0.225779 0.009,-0.04163 0.0148,-0.07443 0.019,-0.09102 0.006,-0.02469 -0.0127,-0.05433 -0.0318,0.0028 -0.0427,0.112184 -0.15345,0.190852 -0.23671,0.04022 -0.0134,-0.02999 -0.0695,-0.166865 0.0335,-0.46496 0.0205,-0.05786 0.0466,-0.14464 0.0466,-0.14464 0.0233,-0.06526 -0.004,-0.100894 -0.037,-0.02082 m -4.40055,0.282221 c -0.0663,0.04127 -1.54517,0.777875 -1.61361,0.825148 -0.0684,0.04586 -0.0928,0.05891 -0.10266,0.112887 -0.01,0.05362 -0.0145,0.08467 -0.0173,0.09349 -0.0116,0.03634 -0.0194,0.08114 0.0815,0.0113 0.0314,-0.02188 1.52294,-0.765526 1.57938,-0.805391 0.0561,-0.03916 0.0907,-0.05433 0.11254,-0.110419 0.0219,-0.05644 0.0275,-0.06597 0.0388,-0.105833 0.0123,-0.04128 0.0243,-0.08537 -0.0787,-0.02117 m 0.52493,0.04868 c -0.0303,0.08643 -0.16051,0.385939 -0.121,0.728839 0.01,0.07867 0.0698,0.231069 0.18944,0.229304 0.0624,-0.0039 0.1397,-0.05221 0.18662,-0.249767 0.008,-0.04445 0.012,-0.07973 0.0155,-0.09737 0.005,-0.02646 -0.0162,-0.0568 -0.0332,0.0042 -0.0395,0.121357 -0.15276,0.210608 -0.24906,0.05574 -0.0159,-0.03104 -0.0826,-0.173215 0.0102,-0.4953 0.0187,-0.06209 0.042,-0.154869 0.042,-0.154869 0.0212,-0.07091 -0.01,-0.106891 -0.0406,-0.02082"
       style="fill:#231f20;fill-opacity:1;fill-rule:evenodd;stroke:none;stroke-width:0.264583"
       id="path1" />
  </g>
</svg>
