<?xml version="1.0" encoding="UTF-8" standalone="no"?>
<!-- Created with Inkscape (http://www.inkscape.org/) -->

<svg
   width="19.008497mm"
   height="6.2221494mm"
   viewBox="0 0 19.008497 6.2221494"
   version="1.1"
   id="svg1"
   xmlns:inkscape="http://www.inkscape.org/namespaces/inkscape"
   xmlns:sodipodi="http://sodipodi.sourceforge.net/DTD/sodipodi-0.dtd"
   xmlns="http://www.w3.org/2000/svg"
   xmlns:svg="http://www.w3.org/2000/svg">
  <sodipodi:namedview
     id="namedview1"
     pagecolor="#ffffff"
     bordercolor="#666666"
     borderopacity="1.0"
     inkscape:showpageshadow="2"
     inkscape:pageopacity="0.0"
     inkscape:pagecheckerboard="0"
     inkscape:deskcolor="#d1d1d1"
     inkscape:document-units="mm" />
  <defs
     id="defs1" />
  <g
     inkscape:label="Layer 1"
     inkscape:groupmode="layer"
     id="layer1"
     transform="translate(-122.82122,-30.022914)">
    <path
       d="m 129.93077,30.163981 c -0.0705,0.09313 -0.13405,0.323498 -0.0469,0.396523 0.0868,0.07338 0.21696,0.136171 0.21696,0.136171 -0.46073,0.493183 -1.08655,0.944033 -1.34549,1.07315 -0.0667,0.03316 -0.0561,0.06773 -0.018,0.06032 0.0198,-0.0042 0.35666,-0.103362 0.77082,-0.369358 0.34855,-0.223661 0.69533,-0.718254 0.69533,-0.718254 0,0 0.10019,0.09525 0.11324,0.1143 0.0293,0.04198 0.0452,0.07267 0.0628,0.03175 0.066,-0.150638 -0.006,-0.249063 -0.0783,-0.302332 0,0 0.0942,-0.235302 -0.0332,-0.486127 -0.0212,-0.04198 -0.15487,-0.180623 -0.33726,0.06385 m 0.21802,0.08114 c 0.09,0.09595 0.0656,0.240946 0.0596,0.27446 0,0 -0.11854,-0.06562 -0.1718,-0.09278 -0.0533,-0.02716 -0.0797,-0.06385 -0.0522,-0.09701 0.0924,-0.11289 0.13371,-0.105834 0.1644,-0.08467 m 2.41265,-0.184856 c -0.0159,0.0381 -0.11219,0.296333 -0.11219,0.296333 0.0261,0.167923 0.25294,1.969558 0.26811,2.092325 0.0148,0.122767 0.33408,2.160765 0.35066,2.724502 -0.005,0.0575 0.0212,0.07902 0.048,0.02363 0.0272,-0.05539 0.21308,-0.431096 -0.007,-1.80975 -0.0162,-0.114654 -0.35066,-2.444398 -0.35066,-2.444398 0,0 0.19685,0.180975 0.22896,0.213783 0.0314,0.03281 0.0702,0.01553 0.0519,-0.03704 -0.018,-0.05292 -0.42157,-1.007885 -0.43462,-1.040694 -0.0134,-0.03316 -0.0261,-0.05715 -0.0427,-0.01871 m -0.97438,2.65e-4 c -0.0166,0.03916 -0.14816,0.407813 -0.14816,0.407813 -0.0127,0.04586 0.0589,0.09102 0.0794,0.222602 0.12418,0.785283 0.47131,3.290006 0.48331,3.364793 0.0198,0.122063 0.049,0.246592 -0.0402,0.265642 -0.0896,0.01905 -0.39194,0.0762 -0.60325,-0.275871 0.006,-0.02928 0.005,-0.0441 0.009,-0.07655 0.004,-0.0321 -0.0293,-0.08608 -0.0744,-0.01304 -0.0459,0.07373 -0.14146,0.542925 -0.43956,0.519993 -0.0988,-0.01058 -0.31503,-0.119591 -0.2794,-0.208137 0.0356,-0.0882 0.0505,-0.134408 0.0649,-0.174273 0.0148,-0.03986 -0.0145,-0.117827 -0.0755,-0.03563 -0.0607,0.08185 -0.22895,0.344313 -0.42827,0.436739 -0.19967,0.09243 -0.44768,0.09243 -0.63888,-0.220485 0.0148,-0.0568 0.0339,-0.102658 0.0441,-0.147108 0.0106,-0.0441 -0.0102,-0.109008 -0.0607,-0.06068 -0.0504,0.04833 -0.81245,1.05128 -1.66088,0.14605 0.0847,-0.04692 0.33478,-0.171802 0.6611,-0.303741 0.019,-0.0441 0.13653,-0.296334 0.11959,-0.317146 -0.0169,-0.02082 -1.04633,-0.685096 -2.13536,-0.07479 -0.0864,0.04868 -0.18203,0.162277 -0.19579,0.375357 0,0.06138 0.0335,0.06985 0.0783,0.03634 0.0448,-0.03387 0.37182,-0.316793 0.84913,0.154165 -0.0797,0.03634 -0.73025,0.242004 -1.26788,0.607483 -0.34114,0.231775 -1.16769,1.120069 -1.32715,1.180394 -0.18944,0.07126 -0.66816,0.113593 -0.51682,-0.64276 0.0335,-0.164042 0.30233,-0.70979 0.39053,-0.83185 0.0882,-0.121709 0.0504,-0.23495 -0.0924,-0.05856 -0.14252,0.176389 -0.83573,1.131712 -0.24377,1.760008 0.17145,0.181681 0.57573,0.287163 1.04598,-0.245179 0.20744,-0.23495 0.66323,-0.9525 2.30541,-1.481666 0.13828,0.14887 0.47201,0.589137 1.07209,0.608541 0.10724,0 0.43709,-0.0028 0.78105,-0.432154 0.17886,0.484364 0.59972,0.371475 0.70697,0.330554 0.10724,-0.04163 0.27904,-0.178858 0.3884,-0.288221 0.0222,0.05327 0.0952,0.254706 0.39758,0.263173 0.0642,-0.0028 0.25753,-0.0127 0.42228,-0.37324 0.1076,0.09349 0.29245,0.353838 0.76905,0.185563 0.0483,-0.02506 0.21661,-0.18274 0.1704,-0.802216 -0.0169,-0.13829 -0.41346,-2.898775 -0.41346,-2.898775 0,0 0.1972,0.185208 0.2286,0.21872 0.0318,0.03351 0.0702,0.01587 0.0519,-0.0381 -0.018,-0.05398 -0.42192,-1.030462 -0.43498,-1.064683 -0.0127,-0.03351 -0.0257,-0.05821 -0.042,-0.01905 m -3.56552,3.677708 c 0,0 -0.30339,0.148167 -0.47167,0.212725 0,0 -0.26387,-0.219427 -0.38346,-0.291394 0.40781,-0.123825 0.74224,0.01728 0.85513,0.07867 m 6.0646,-3.466042 c -0.0702,0.106892 -0.12241,0.363009 -0.0222,0.436034 0.0998,0.07303 0.24623,0.132646 0.24623,0.132646 -0.46566,0.570442 -0.78457,0.67945 -1.05727,0.839258 -0.0699,0.04128 -0.0561,0.07796 -0.0148,0.06703 0.0212,-0.0056 0.38771,-0.06315 0.81562,-0.388056 0.23143,-0.175684 0.37183,-0.475896 0.37183,-0.475896 0,0 0.11607,0.09666 0.13159,0.116062 0.0353,0.04339 0.0543,0.07585 0.0706,0.02963 0.0614,-0.168627 -0.0247,-0.270579 -0.10724,-0.323496 0,0 0.0857,-0.262821 -0.0716,-0.52705 -0.0261,-0.0441 -0.18203,-0.185563 -0.36265,0.09384 m 0.24342,0.07303 c 0.10477,0.09737 0.0892,0.25753 0.085,0.294572 0,0 -0.13406,-0.06315 -0.19403,-0.0889 -0.06,-0.0254 -0.0917,-0.0635 -0.0639,-0.1016 0.0924,-0.129824 0.13794,-0.125238 0.17287,-0.104072 m 6.27873,0.02294 c -0.0702,0.106539 -0.12206,0.362656 -0.0222,0.435327 0.0998,0.07373 0.24624,0.132646 0.24624,0.132646 -0.46602,0.571145 -1.38007,0.977193 -1.59808,1.146879 -0.0649,0.04904 -0.0561,0.07796 -0.0152,0.06703 0.0367,-0.0095 0.73342,-0.204613 1.37054,-0.750358 0.29174,-0.250473 0.28398,-0.269523 0.35807,-0.421217 0.0635,0.03316 0.10724,0.08537 0.13158,0.116417 0.0349,0.04339 0.0547,0.07585 0.0713,0.02998 0.0603,-0.168981 -0.0257,-0.270933 -0.10759,-0.323498 0,0 0.085,-0.263171 -0.0716,-0.52705 -0.0261,-0.04445 -0.18203,-0.18556 -0.36301,0.09384 m 0.24377,0.07267 c 0.10478,0.09737 0.0889,0.257879 0.0843,0.294568 0,0 -0.13406,-0.06279 -0.19368,-0.08855 -0.0603,-0.02574 -0.091,-0.0635 -0.0639,-0.101952 0.0924,-0.129823 0.13758,-0.125235 0.17321,-0.104068 m -1.78858,-0.165455 c -0.18309,0.232834 -0.19509,0.538692 -0.21943,0.87983 -0.0257,-0.07161 -0.1718,-0.528815 -0.63958,-0.79093 -0.0339,-0.01905 -0.10266,0.01693 -0.10901,0.124884 -0.004,0.06244 -0.0222,0.214841 0.0222,0.258233 0.0441,0.04339 0.17463,0.128058 0.19685,0.140054 0.0222,0.01236 0.0452,0.01376 0.0519,-0.0127 0.007,-0.02574 0.0367,-0.08678 0.0787,-0.04339 0.036,0.03634 0.26635,0.226835 0.38559,0.630766 0.0208,0.05362 0.0705,0.05856 0.0818,-0.01728 0.0279,-0.186618 0.0427,-0.511527 0.0575,-0.6096 0.0212,-0.138287 0.0871,-0.423685 0.26212,-0.275166 0.0399,0.03351 0.0822,0.07761 0.0822,0.07761 0.037,0.04692 0.0836,0.100542 0.10653,0.04657 0.0342,-0.08149 0.0621,-0.216958 0.024,-0.289983 -0.0166,-0.03281 -0.23318,-0.307271 -0.38135,-0.118888 m -1.80023,-0.01093 c -0.0677,0.03916 -1.78788,1.031875 -1.85737,1.077031 -0.0699,0.04515 -0.0945,0.05644 -0.10548,0.110419 -0.0116,0.05362 -0.0169,0.08467 -0.0201,0.09313 -0.0127,0.03634 -0.0215,0.08043 0.0811,0.01341 0.0318,-0.02082 1.76212,-1.020233 1.82245,-1.058333 0.0582,-0.03634 0.0921,-0.05151 0.11536,-0.10795 0.0233,-0.05539 0.0293,-0.06527 0.0416,-0.104071 0.013,-0.04127 0.0265,-0.08502 -0.0776,-0.02363 m -10.27465,0.157692 c -0.0875,0.04586 -1.76212,0.964494 -1.85138,1.013532 -0.0847,0.04657 -0.10618,0.07161 -0.11571,0.13476 -0.01,0.06315 -0.0145,0.09984 -0.0173,0.110066 -0.0123,0.04233 -0.0208,0.07973 0.0953,0.01024 0.0381,-0.02294 1.74096,-0.946857 1.81187,-0.989542 0.0684,-0.04128 0.10372,-0.06597 0.12735,-0.132292 0.0236,-0.06632 0.0296,-0.07832 0.0416,-0.124179 0.013,-0.04868 0.0332,-0.08819 -0.0917,-0.02257 m -2.58339,-0.006 c -0.0166,0.0381 -0.12418,0.324556 -0.12418,0.324556 0.0257,0.167923 0.25188,1.205442 0.26705,1.328561 0.0148,0.122766 0.43815,2.001662 0.37112,2.708629 -0.004,0.0575 0.0212,0.07902 0.0483,0.024 0.0268,-0.05539 0.21273,-0.431094 -0.008,-1.80975 -0.0166,-0.114652 -0.35842,-1.693333 -0.35842,-1.693333 0,0 0.19756,0.180975 0.22895,0.213783 0.0318,0.03281 0.0702,0.01553 0.0522,-0.03704 -0.018,-0.05292 -0.42192,-1.007533 -0.43533,-1.040693 -0.0127,-0.03316 -0.0257,-0.05715 -0.042,-0.01871 m 4.60621,0.157339 c -0.0892,0.04622 -3.22368,1.757892 -3.3154,1.807986 -0.091,0.04939 -0.11783,0.07056 -0.13229,0.137583 -0.0138,0.06703 -0.0205,0.103013 -0.0243,0.117123 -0.013,0.04551 -0.0318,0.09243 0.10125,0.01622 0.0409,-0.02363 3.2004,-1.737077 3.27202,-1.783995 0.0716,-0.04763 0.115,-0.06527 0.14393,-0.135115 0.0293,-0.0695 0.0367,-0.08149 0.0522,-0.130527 0.0166,-0.05151 0.037,-0.09913 -0.0974,-0.02928 m -5.35869,0.420159 c -0.14217,0.22084 -0.12806,0.494241 -0.12277,0.799748 -0.0282,-0.06138 -0.19226,-0.457555 -0.623,-0.654405 -0.0314,-0.0141 -0.0889,0.02328 -0.0861,0.119592 0.001,0.05609 -0.002,0.193323 0.0399,0.227896 0.0423,0.03528 0.16334,0.100894 0.18345,0.109712 0.0205,0.0092 0.0413,0.0088 0.0448,-0.01516 0.004,-0.024 0.0251,-0.08008 0.0656,-0.0448 0.0293,0.0254 0.26529,0.19826 0.3556,0.456141 0.0759,0.224367 -0.44627,0.736246 -0.47414,0.759884 -0.0494,0.04233 -0.0303,0.06562 -0.007,0.05009 0.0236,-0.01553 0.0476,-0.02151 0.31962,-0.237418 0.21943,-0.174273 0.25223,-0.356659 0.26035,-0.4953 0.002,-0.0067 0.003,-0.01447 0.004,-0.02363 0.01,-0.168274 -0.003,-0.458258 0.002,-0.547158 0.007,-0.124529 0.0427,-0.383468 0.20779,-0.265287 0.0377,0.02716 0.0783,0.0635 0.0783,0.0635 0.0363,0.03845 0.0811,0.08255 0.097,0.03281 0.0236,-0.07514 0.0374,-0.197908 -10e-4,-0.26035 -0.0173,-0.02752 -0.22895,-0.255058 -0.34431,-0.07585 m 6.8072,0.13335 c -0.0254,0.07937 -0.0448,0.140759 -0.0102,0.231423 0.0346,0.09066 0.12771,0.296686 0.14323,0.325613 0.0152,0.02963 0.0194,0.06315 -0.0317,0.08467 -0.0512,0.02188 -0.2854,0.07162 -0.32879,-0.1778 -0.0434,-0.24906 -0.0473,-0.321733 -0.0688,-0.364418 -0.0219,-0.04198 -0.0423,-0.04692 -0.0589,-0.0049 -0.0166,0.04233 -0.0268,0.129117 -0.0293,0.143229 -0.003,0.01376 -0.003,0.02434 0.006,0.03951 0.009,0.01516 0.10196,0.293864 0.06,0.370768 -0.0423,0.07691 -0.25189,0.214842 -0.3616,0.07021 -0.0526,-0.100896 -0.0204,-0.356307 -0.0204,-0.416632 0,-0.05997 -0.0194,-0.08079 -0.0448,-0.0321 -0.0257,0.04868 -0.0399,0.08043 -0.0384,0.124177 0.001,0.04339 0.008,0.230011 0.004,0.288925 -0.004,0.05892 0,0.249415 0.11218,0.303036 0.11289,0.05362 0.27623,0.0035 0.4004,-0.230363 0.096,0.139346 0.2413,0.140052 0.31962,0.111477 0.0663,-0.02434 0.14041,-0.124177 0.16228,-0.262114 0.0215,-0.138288 -0.0141,-0.232834 -0.0575,-0.310444 -0.0575,-0.09631 -0.096,-0.257175 -0.096,-0.257175 -0.0205,-0.0575 -0.0356,-0.116417 -0.0614,-0.03704 m 7.13352,0.492125 c -0.0346,0.08431 -0.17886,0.37465 -0.15664,0.717198 0.005,0.07937 0.0575,0.233538 0.17675,0.237771 0.0617,-2.65e-4 0.14111,-0.0448 0.1979,-0.238829 0.01,-0.04375 0.0159,-0.07867 0.0198,-0.0956 0.006,-0.02646 -0.0134,-0.05785 -0.0332,0.0021 -0.0452,0.118888 -0.16193,0.20179 -0.24977,0.04269 -0.0141,-0.0314 -0.0737,-0.175683 0.0353,-0.490715 0.0219,-0.06103 0.0494,-0.1524 0.0494,-0.1524 0.0243,-0.06914 -0.005,-0.106539 -0.0395,-0.02222 m 3.30764,0.173215 c -0.0321,0.07796 -0.16545,0.347133 -0.14534,0.663927 0.005,0.07338 0.0536,0.216252 0.16333,0.220133 0.0575,0 0.13124,-0.04163 0.18345,-0.221191 0.009,-0.04022 0.0148,-0.07267 0.0187,-0.0889 0.005,-0.024 -0.0127,-0.05292 -0.031,0.0028 -0.0416,0.110066 -0.14993,0.186618 -0.23107,0.03916 -0.0134,-0.02928 -0.0681,-0.162631 0.0324,-0.454379 0.0205,-0.0568 0.0459,-0.141111 0.0459,-0.141111 0.0226,-0.0635 -0.005,-0.09843 -0.0363,-0.02045 m -6.72394,0.0085 -0.19509,0.267403 c -0.006,0.0085 -0.005,0.02011 0.004,0.02574 l 0.33267,0.243063 c 0.008,0.0056 0.0198,0.0035 0.0257,-0.0046 l 0.16827,-0.231068 0.32315,0.235653 c 0.008,0.0056 0.0198,0.0035 0.0257,-0.0046 l 0.19509,-0.267758 c 0.006,-0.0085 0.005,-0.02011 -0.004,-0.02611 l -0.33267,-0.24271 c -0.008,-0.0056 -0.0194,-0.0039 -0.0257,0.0049 l -0.16828,0.230717 -0.32314,-0.235657 c -0.008,-0.0056 -0.0194,-0.0039 -0.0257,0.0049 m -5.65186,0.07655 c -0.0303,0.09913 -0.16192,0.44309 -0.11641,0.837493 0.0106,0.09102 0.0751,0.265642 0.19967,0.263173 0.0642,-0.0032 0.14429,-0.05997 0.1905,-0.286808 0.007,-0.05115 0.0116,-0.09172 0.0145,-0.111831 0.005,-0.03069 -0.0173,-0.06562 -0.0342,0.0049 -0.0395,0.1397 -0.15593,0.242359 -0.25788,0.06385 -0.0166,-0.03563 -0.0878,-0.198612 0.005,-0.569029 0.019,-0.07197 0.042,-0.178506 0.042,-0.178506 0.0208,-0.08079 -0.012,-0.122767 -0.0427,-0.02328 m 7.47219,0.339373 c -0.0127,0.04551 -0.0452,0.239887 -0.0533,0.280104 -0.008,0.03986 -0.007,0.07937 0.0123,0.113596 0.0198,0.03422 0.0706,0.152752 0.10725,0.249412 0.0363,0.09631 0.41416,0.823738 0.44909,0.888296 0.0349,0.06456 0.0423,0.112887 0.007,0.155575 -1.21285,1.279525 -3.55318,2.066219 -3.62796,2.10961 -0.0751,0.04374 -0.0547,0.07761 0.0709,0.05539 0.18838,-0.03316 1.23966,-0.208844 1.53916,-0.353129 0.19791,-0.09525 0.88795,-0.434271 1.45239,-0.876655 -0.0155,0.1143 -0.03,0.282223 -0.0222,0.4953 0.0381,1.029055 0.9585,0.858309 1.1998,0.805392 0.7239,-0.15875 1.60867,-1.159227 1.68381,-1.359958 0.0744,-0.198967 0.085,-0.379942 0.0684,-0.537634 0.1905,-0.103362 0.60008,-0.43321 0.60008,-0.43321 0.0166,0.438502 0.36618,0.570442 0.47342,0.589492 0.50342,0.0762 0.75565,-0.344311 0.86325,-0.480484 0.0914,0.240242 0.31185,0.286809 0.4251,0.309034 0.43462,0.08643 0.51929,-0.220486 0.54186,-0.29069 0.13618,-0.423333 -0.10936,-0.739421 -0.14076,-0.7747 -0.0314,-0.03457 -0.0476,-0.0011 -0.0586,0.03951 -0.0109,0.04057 -0.0466,0.19332 -0.0684,0.288925 0,0 0.0907,0.147812 0.12313,0.223308 0.0325,0.07514 -0.0159,0.116769 -0.10937,0.128058 -0.26423,0.0321 -0.47519,-0.119239 -0.54751,-0.189441 -0.0723,-0.0695 0.006,-0.192971 0.0646,-0.340784 0.0469,-0.118181 -0.0402,-0.131939 -0.10689,-2.64e-4 -0.22402,0.58914 -0.53869,0.65264 -0.62124,0.674865 -0.74613,0.203552 -0.68192,-0.478367 -0.6791,-0.590198 0.002,-0.111829 -0.0794,-0.07055 -0.1711,0.0032 -0.31397,0.252237 -0.56691,0.40005 -0.70308,0.460729 -0.11712,-0.228954 -0.28681,-0.372888 -0.35878,-0.424746 -0.80751,-0.588433 -0.87418,0.599371 -0.84984,0.726723 0.12277,0.505177 0.94791,0.199319 1.07738,0.183444 0.12912,-0.01516 0.0871,0.155929 0.0141,0.257175 -0.17885,0.250473 -0.38523,0.429683 -0.57255,0.582437 -0.79975,0.652638 -1.20086,0.600779 -1.32433,0.597252 -0.78564,-0.02223 -0.71332,-0.868539 -0.66993,-1.049866 0.23636,-0.199673 0.43956,-0.41769 0.55739,-0.64135 0.048,-0.122767 0.13088,-0.401815 -0.0187,-0.751769 -0.0787,-0.153813 -0.32632,-0.585965 -0.32632,-0.585965 0,0 0.18238,0.0056 0.19967,0.0053 0.0173,-2.65e-4 0.0519,-0.01834 0.008,-0.0695 -0.0444,-0.05115 -0.42756,-0.433562 -0.4512,-0.463902 -0.0229,-0.03104 -0.0441,-0.05292 -0.0571,-0.0078 m 2.42217,1.752245 c 0,0 -0.11007,0.0635 -0.41733,0.04269 -0.25789,-0.01728 -0.23566,-0.11783 -0.20003,-0.155575 0.0381,-0.04198 0.35384,-0.240242 0.61736,0.112887 m -8.14281,-1.764945 -0.19474,0.267403 c -0.006,0.0085 -0.005,0.02011 0.003,0.02574 l 0.33302,0.242711 c 0.008,0.0064 0.0194,0.0039 0.0257,-0.0046 l 0.19474,-0.267406 c 0.006,-0.0085 0.005,-0.02045 -0.003,-0.02611 l -0.33302,-0.242711 c -0.008,-0.006 -0.0194,-0.0039 -0.0257,0.0049 m 4.82636,0.340429 c -0.0533,0.06597 -0.5895,0.769763 -0.5895,0.769763 l -0.39017,-0.27799 c 0,0 0.1591,-0.03986 0.18662,-0.04798 0.0279,-0.0081 0.0437,-0.04375 -0.006,-0.0695 -0.0497,-0.02574 -0.51999,-0.213431 -0.55562,-0.227542 -0.036,-0.01447 -0.049,-0.03069 -0.0522,0.0071 -0.003,0.0381 -0.008,0.347485 -0.008,0.347485 0,0 -0.007,0.02188 0.0339,0.04516 0.0409,0.02328 0.0811,0.07338 0.11501,0.106892 0.0335,0.03351 0.47096,0.378883 0.49213,0.390877 0,0 -0.21873,0.384527 -0.24695,0.685448 -0.0275,0.300919 0.006,0.716137 0.41698,0.582083 0.11078,-0.0314 0.5715,-0.214489 0.67452,-0.535871 0.0335,-0.118179 0.12805,-0.332317 -0.0261,-0.54892 -0.0893,-0.127355 -0.44873,-0.342548 -0.44873,-0.342548 0,0 0.27587,-0.382059 0.30233,-0.428625 0.0265,-0.04692 0.1277,-0.342549 0.13935,-0.414515 0.0113,-0.07161 0.0166,-0.107244 -0.0367,-0.04127 m -0.0945,1.622779 c -0.15275,0.125587 -0.47378,0.291746 -0.56409,0.300567 -0.09,0.0085 -0.32949,-0.03528 -0.22542,-0.280813 0.0356,-0.07937 0.27516,-0.48895 0.27516,-0.48895 0.0893,0.04904 0.66746,0.343607 0.51435,0.469196 m -4.43371,-1.436513 -0.16827,0.230717 -0.32315,-0.235302 c -0.008,-0.006 -0.0198,-0.0039 -0.0257,0.0046 l -0.19509,0.267406 c -0.006,0.0088 -0.005,0.02045 0.004,0.02611 l 0.33267,0.242711 c 0.008,0.0056 0.0198,0.0035 0.0257,-0.0049 l 0.16828,-0.230717 0.32279,0.235657 c 0.008,0.0056 0.0198,0.0035 0.0261,-0.0049 l 0.19509,-0.267052 c 0.006,-0.0088 0.005,-0.02011 -0.004,-0.02646 l -0.33302,-0.242359 c -0.008,-0.006 -0.0194,-0.0039 -0.0254,0.0046 m -4.89126,0.206729 c -0.0279,0.09031 -0.14711,0.403577 -0.10584,0.762352 0.009,0.08326 0.0681,0.242006 0.18168,0.23989 0.0586,-0.0032 0.13123,-0.05433 0.17322,-0.261409 0.007,-0.04657 0.0106,-0.08361 0.0134,-0.101954 0.004,-0.02787 -0.0159,-0.05927 -0.0314,0.0046 -0.0356,0.127352 -0.14181,0.220837 -0.2346,0.05821 -0.0152,-0.03246 -0.0801,-0.180624 0.004,-0.517525 0.0173,-0.06562 0.0381,-0.162984 0.0381,-0.162984 0.0187,-0.07373 -0.0109,-0.111831 -0.0388,-0.02117 m -2.22391,0.178858 c -0.1845,0.143227 -0.6103,0.556329 -0.41875,0.750004 0.11148,0.08996 0.16122,0.134056 0.16122,0.134056 -0.0522,0.01976 -0.0963,0.06985 -0.1277,0.132998 -0.0314,0.06315 -0.0363,0.0769 -0.0522,0.112887 -0.0162,0.03598 -0.0254,0.08467 0.0628,0.03457 0.0878,-0.05045 0.29704,-0.248708 0.86148,-0.372885 0.078,-0.01659 0.14676,-0.145346 0.14676,-0.145346 0.0332,-0.05362 0.0984,-0.179917 -0.0113,-0.118179 -0.11006,0.06244 -0.40428,0.150635 -0.53551,0.125235 -0.13088,-0.0254 -0.28611,-0.138289 -0.32032,-0.192264 -0.0339,-0.05398 -0.0289,-0.1143 0.0748,-0.174625 0.10372,-0.05962 0.21696,-0.100542 0.29669,0.03175 0.0145,0.02257 0.0324,0.02151 0.0656,-0.01199 0.0335,-0.03387 0.10054,-0.127706 0.11888,-0.154165 0.018,-0.02716 0.0321,-0.07197 0.004,-0.104775 -0.0279,-0.03281 -0.14217,-0.189793 -0.32668,-0.04727 m 0.51118,1.273527 c -0.0698,0.03528 -0.89147,0.390173 -0.96379,0.430741 -0.0723,0.04022 -0.0977,0.05045 -0.11218,0.103365 -0.0145,0.05292 -0.0222,0.08361 -0.0258,0.09208 -0.0152,0.03493 -0.0268,0.07902 0.0801,0.01834 0.0332,-0.01871 0.86819,-0.379942 0.92816,-0.41416 0.0593,-0.03422 0.0946,-0.04586 0.12136,-0.10019 0.0272,-0.05398 0.0335,-0.0635 0.0483,-0.1016 0.0162,-0.04022 0.0321,-0.08326 -0.0762,-0.02858 m 8.47337,0.33655 c -0.0307,0.07479 -0.1584,0.332668 -0.139,0.63641 0.005,0.07021 0.0508,0.207081 0.15699,0.210608 0.0543,0 0.12524,-0.03951 0.17533,-0.211312 0.008,-0.03881 0.0141,-0.0702 0.018,-0.08572 0.005,-0.02294 -0.0123,-0.05045 -0.0296,0.0028 -0.0402,0.10513 -0.14429,0.178859 -0.22155,0.03775 -0.013,-0.02822 -0.0656,-0.156281 0.0307,-0.435681 0.0194,-0.05433 0.0441,-0.135112 0.0441,-0.135112 0.0219,-0.06103 -0.004,-0.09455 -0.0349,-0.01976 m 8.79545,0.0028 c -0.031,0.08608 -0.0434,0.142875 -0.0406,0.175684 0.004,0.03281 0.0148,0.1397 0.0148,0.1397 -0.0321,0.0254 -0.16863,0.110418 -0.30551,0.01024 0.009,-0.02963 0.0268,-0.08855 0.0311,-0.121708 0.0148,-0.05045 -0.0162,-0.08784 -0.0413,-0.03563 -0.0251,0.05256 -0.0829,0.228246 -0.12629,0.267404 -0.0427,0.03951 -0.0931,0.184856 -0.41945,0.0374 -0.0568,-0.02222 -0.15699,-0.09596 -0.31257,0.06068 -0.35242,0.327731 -0.59584,0.353131 -0.9913,0.49389 -0.0476,0.02188 -0.14817,0.09701 -0.0289,0.08502 0.11889,-0.01199 0.62018,2.65e-4 0.89288,-0.31256 0.0568,-0.05574 0.12242,-0.20179 0.33902,-0.116417 0.11995,0.04515 0.34149,0.235654 0.58314,-0.140406 0.14253,0.0949 0.35913,0.0568 0.3937,-0.04798 0.0346,-0.104423 0.0741,-0.208492 0.0734,-0.279754 0,-0.07126 -0.006,-0.164746 -0.006,-0.164746 -0.005,-0.05645 -0.0251,-0.136879 -0.0561,-0.0508 m -14.24446,0.227542 c -0.0321,0.10442 -0.16968,0.464608 -0.12206,0.87771 0.0109,0.0949 0.079,0.278694 0.2092,0.276225 0.0674,-0.0042 0.15099,-0.06279 0.19967,-0.300919 0.008,-0.05327 0.012,-0.09631 0.0152,-0.117123 0.005,-0.03246 -0.0183,-0.06879 -0.0363,0.0053 -0.0409,0.14605 -0.16298,0.253648 -0.26952,0.06668 -0.0177,-0.03739 -0.0924,-0.20814 0.005,-0.596194 0.0194,-0.07514 0.0434,-0.187325 0.0434,-0.187325 0.0219,-0.08467 -0.0127,-0.128058 -0.0444,-0.02434 m 3.81635,0.01765 c -0.031,0.08643 -0.043,0.14323 -0.0402,0.176038 0.004,0.03316 0.0148,0.1397 0.0148,0.1397 -0.0321,0.0254 -0.16862,0.110771 -0.3055,0.0099 0.009,-0.02893 0.0268,-0.08855 0.0307,-0.121356 0.0148,-0.05045 -0.0162,-0.08784 -0.0409,-0.03563 -0.0251,0.05256 -0.0833,0.227894 -0.12594,0.267404 -0.0434,0.03951 -0.0938,0.184856 -0.41981,0.03704 -0.0568,-0.02151 -0.15698,-0.0956 -0.31256,0.06103 -0.35278,0.327377 -0.5962,0.353131 -0.99131,0.49389 -0.048,0.02188 -0.14816,0.09701 -0.0293,0.08502 0.11924,-0.01199 0.62054,2.65e-4 0.89324,-0.31256 0.0568,-0.05574 0.12206,-0.20179 0.33866,-0.116771 0.1203,0.04551 0.34184,0.235656 0.5835,-0.140052 0.14252,0.0949 0.35913,0.0568 0.3937,-0.04763 0.0346,-0.104775 0.0741,-0.209198 0.0737,-0.280106 -2.7e-4,-0.07126 -0.007,-0.1651 -0.007,-0.1651 -0.005,-0.05644 -0.0247,-0.136525 -0.0561,-0.0508"
       style="fill:#231f20;fill-opacity:1;fill-rule:evenodd;stroke:none;stroke-width:0.264583"
       id="path1-2" />
  </g>
</svg>
