<?xml version="1.0" encoding="UTF-8" standalone="no"?>
<!-- Created with Inkscape (http://www.inkscape.org/) -->

<svg
   width="18.356575mm"
   height="6.3418107mm"
   viewBox="0 0 18.356575 6.3418107"
   version="1.1"
   id="svg1"
   xmlns:inkscape="http://www.inkscape.org/namespaces/inkscape"
   xmlns:sodipodi="http://sodipodi.sourceforge.net/DTD/sodipodi-0.dtd"
   xmlns="http://www.w3.org/2000/svg"
   xmlns:svg="http://www.w3.org/2000/svg">
  <sodipodi:namedview
     id="namedview1"
     pagecolor="#ffffff"
     bordercolor="#666666"
     borderopacity="1.0"
     inkscape:showpageshadow="2"
     inkscape:pageopacity="0.0"
     inkscape:pagecheckerboard="0"
     inkscape:deskcolor="#d1d1d1"
     inkscape:document-units="mm" />
  <defs
     id="defs1" />
  <g
     inkscape:label="Layer 1"
     inkscape:groupmode="layer"
     id="layer1"
     transform="translate(-125.52812,-31.828107)">
    <path
       d="m 134.68022,31.848142 c -0.0166,0.03916 -0.11218,0.303389 -0.11218,0.303389 0.0257,0.171098 0.25258,2.014009 0.26775,2.13995 0.0152,0.12559 0.33408,2.210152 0.35102,2.786592 -0.005,0.05927 0.0208,0.08078 0.048,0.02434 0.0268,-0.05644 0.21272,-0.440974 -0.008,-1.851025 -0.0162,-0.117475 -0.35066,-2.500136 -0.35066,-2.500136 0,0 0.1972,0.185209 0.22895,0.218721 0.0317,0.03352 0.0702,0.01588 0.0519,-0.0381 -0.0176,-0.05398 -0.42192,-1.030817 -0.43497,-1.064683 -0.0127,-0.03351 -0.0261,-0.05821 -0.042,-0.01905 m -0.97473,0 c -0.0162,0.03916 -0.13123,0.333375 -0.13123,0.333375 0.001,0.0092 0.0399,0.06421 0.0536,0.145698 0.11571,0.681566 0.58491,3.599039 0.59619,3.756731 0.0127,0.176387 0.11536,0.375354 -0.37217,0.481542 -0.09,0.01905 -0.51365,0.06738 -0.57785,-0.407813 0,-0.08643 0.009,-0.0949 0.0138,-0.137935 0.005,-0.04304 0.005,-0.168982 -0.11959,-0.07761 -0.12453,0.09102 -0.73166,0.700262 -1.57727,0.742244 -0.16792,0.0056 -0.81774,0.07832 -1.32186,-0.49036 -0.042,-0.02787 -0.0727,-0.01622 -0.10618,0.03387 -0.0339,0.05045 -0.26318,0.473075 -0.46496,0.551744 -0.20179,0.07832 -0.79799,0.209902 -1.07562,-0.674865 -0.0392,-0.154162 -0.21555,-1.402995 -0.21555,-1.402995 0,0 -0.24624,-1.951921 -0.41734,-2.47015 -0.0222,-0.07267 -0.0392,-0.114655 -0.0868,-0.0028 -0.0476,0.112183 -0.10654,0.299508 -0.10654,0.299508 0.0339,0.1905 0.49848,2.940756 0.4819,3.422298 0,0.100894 0.005,0.183444 -0.10725,0.324554 -0.11218,0.140758 -0.93874,1.09079 -1.86796,0.88759 -0.1083,-0.024 -1.02376,-0.225425 -0.4392,-1.741665 0.0843,-0.0321 0.17991,-0.138642 0.25646,-0.41416 0.0173,-0.07867 0.0286,-0.142523 0.0356,-0.173215 0.0106,-0.04727 -0.0183,-0.104775 -0.0526,0.0032 -0.0762,0.214138 -0.26423,0.359833 -0.39546,0.06809 -0.0212,-0.0575 -0.10795,-0.321734 0.0765,-0.889355 0.037,-0.109712 0.0847,-0.27446 0.0847,-0.27446 0.0413,-0.123825 -0.003,-0.192969 -0.0614,-0.04163 -0.0578,0.151342 -0.29739,0.6731 -0.27799,1.2954 0.005,0.130527 0.0677,0.373237 0.21873,0.42686 -0.002,0.0046 -0.004,0.0088 -0.006,0.0141 -0.0575,0.150283 -0.6357,1.801989 0.50306,2.149475 0.10478,0.0321 0.92287,0.146756 1.85491,-0.845961 0.0822,-0.08714 0.25611,-0.271991 0.28187,-0.512233 0,0 0.0995,0.224367 0.20496,0.448381 0.10619,0.224367 0.3623,0.567267 0.75953,0.564092 0.18239,-0.0019 0.53834,-0.05786 0.81033,-0.554215 0.003,0.118534 -0.0512,0.740127 0.56727,0.893586 0.0896,0.02574 0.18909,0.02257 0.20496,-0.06738 0.0162,-0.08961 0.0483,-0.477309 0.0483,-0.477309 0.15981,0.0448 1.18216,0.237419 2.13678,-0.691798 0,0 -0.042,0.623007 0.67275,0.621594 0.1023,-2.65e-4 0.67909,-0.04833 0.64382,-0.893937 -0.006,-0.147463 -0.17287,-1.287992 -0.17287,-1.287992 l -0.3563,-2.030941 c 0,0 0.1972,0.185208 0.2293,0.21872 0.0314,0.03351 0.0699,0.01587 0.0519,-0.0381 -0.0183,-0.05398 -0.42192,-1.030817 -0.43497,-1.064683 -0.013,-0.03351 -0.0261,-0.05821 -0.0423,-0.01905 m 2.43523,0.276579 c -0.0698,0.106892 -0.12206,0.362654 -0.0222,0.435679 0.10019,0.07338 0.2466,0.132646 0.2466,0.132646 -0.46602,0.570794 -0.78458,0.679802 -1.05728,0.839259 -0.0702,0.04127 -0.0561,0.07832 -0.0148,0.06738 0.0212,-0.006 0.38806,-0.06314 0.81563,-0.388053 0.23142,-0.176038 0.37182,-0.47625 0.37182,-0.47625 0,0 0.11571,0.09666 0.13159,0.116062 0.0353,0.04375 0.0543,0.0762 0.0706,0.02999 0.0614,-0.168982 -0.0251,-0.270934 -0.10725,-0.323499 0,0 0.0857,-0.262818 -0.0716,-0.52705 -0.0265,-0.04445 -0.18204,-0.18556 -0.36301,0.09384 m 0.24342,0.07267 c 0.10512,0.09772 0.0889,0.257881 0.0854,0.294571 0,0 -0.13406,-0.0628 -0.19438,-0.08855 -0.0596,-0.0254 -0.0914,-0.0635 -0.0635,-0.1016 0.0924,-0.129823 0.13793,-0.12559 0.17251,-0.104423 m 6.27909,0.02294 c -0.0702,0.106892 -0.12242,0.362656 -0.0222,0.435681 0.0998,0.07338 0.24624,0.132644 0.24624,0.132644 -0.46567,0.570794 -1.38042,0.977194 -1.59808,1.146881 -0.0646,0.04868 -0.0561,0.07796 -0.0152,0.06667 0.0363,-0.0095 0.73342,-0.204612 1.37019,-0.750358 0.2921,-0.250121 0.28434,-0.268817 0.35842,-0.420865 0.0632,0.03281 0.10689,0.08537 0.13194,0.116065 0.0346,0.04374 0.0543,0.0762 0.0705,0.02999 0.061,-0.168981 -0.0254,-0.270581 -0.10759,-0.323143 0,0 0.0854,-0.263173 -0.0713,-0.527405 -0.0265,-0.04409 -0.18239,-0.18556 -0.36301,0.09384 m 0.24341,0.07267 c 0.10513,0.09772 0.0889,0.257879 0.0847,0.294921 0,0 -0.13406,-0.06315 -0.19367,-0.0889 -0.06,-0.0254 -0.0917,-0.0635 -0.0642,-0.1016 0.0928,-0.129821 0.13829,-0.125588 0.17321,-0.104421 m -1.78858,-0.165454 c -0.18309,0.232833 -0.19473,0.538691 -0.21872,0.879829 -0.0261,-0.07126 -0.17216,-0.528815 -0.63994,-0.790575 -0.0339,-0.01905 -0.10301,0.01693 -0.10901,0.124529 -0.004,0.0628 -0.0222,0.215196 0.0222,0.258588 0.0445,0.04304 0.17462,0.128058 0.19685,0.1397 0.0219,0.01236 0.0451,0.0141 0.0519,-0.01236 0.006,-0.02611 0.0363,-0.08678 0.0787,-0.04339 0.0356,0.03598 0.26635,0.226483 0.38594,0.630415 0.0205,0.05362 0.0699,0.05856 0.0815,-0.01728 0.0279,-0.186619 0.0427,-0.511175 0.0575,-0.609246 0.0212,-0.138642 0.0868,-0.423688 0.26211,-0.275521 0.0399,0.03387 0.0819,0.07796 0.0819,0.07796 0.037,0.04692 0.0843,0.100189 0.10654,0.04621 0.0346,-0.08149 0.0621,-0.216606 0.0243,-0.289983 -0.0166,-0.03246 -0.23319,-0.307271 -0.38171,-0.118888 m -1.80022,-0.01058 c -0.0677,0.03916 -1.78753,1.031875 -1.85738,1.077031 -0.0695,0.0448 -0.0942,0.05644 -0.10513,0.110067 -0.0116,0.05362 -0.0173,0.08502 -0.0201,0.09349 -0.0127,0.03598 -0.0215,0.08043 0.0811,0.01341 0.0317,-0.02082 1.76178,-1.020586 1.82281,-1.058334 0.0579,-0.03669 0.0914,-0.05186 0.11465,-0.107598 0.0236,-0.05609 0.0296,-0.06562 0.042,-0.104775 0.013,-0.04092 0.0268,-0.08502 -0.078,-0.02328 m -6.18314,0.05186 c -0.0642,0.04339 -3.89537,2.121959 -4.07811,2.281767 -0.0917,0.08008 -0.16581,0.204258 -0.18838,0.336904 -0.0328,0.192262 0.0219,0.378884 0.1464,0.394052 0.0871,0.01058 0.13864,0.05927 0.16192,0.08749 0.01,0.01199 0.0233,0.0028 0.0272,-0.0056 0.091,-0.197908 -0.002,-0.316793 -0.17145,-0.35842 -0.0677,-0.01693 -0.1009,-0.10795 0.1397,-0.275521 0.22119,-0.154162 3.83646,-2.132894 3.88549,-2.169935 0.0663,-0.05009 0.10689,-0.06985 0.13053,-0.138994 0.024,-0.06879 0.0303,-0.08114 0.0423,-0.129117 0.013,-0.0508 0.0257,-0.104775 -0.0956,-0.02257 m -3.28083,0.04127 c -0.16757,0.212725 -0.1778,0.49248 -0.20003,0.803982 -0.024,-0.06526 -0.15734,-0.483307 -0.58455,-0.722842 -0.031,-0.01728 -0.0942,0.01553 -0.10019,0.113948 -0.003,0.05715 -0.0198,0.196496 0.0208,0.23636 0.0402,0.03951 0.15981,0.116769 0.17957,0.127707 0.0201,0.0113 0.0413,0.0127 0.0476,-0.0113 0.006,-0.024 0.0332,-0.07937 0.072,-0.03986 0.0325,0.03316 0.24306,0.207434 0.35242,0.576792 0.019,0.04833 0.0642,0.05327 0.0748,-0.01622 0.0254,-0.170392 0.0392,-0.467077 0.0526,-0.557035 0.0191,-0.126296 0.0794,-0.386998 0.23953,-0.251532 0.036,0.03069 0.0748,0.07126 0.0748,0.07126 0.0342,0.04269 0.0769,0.09172 0.0974,0.04233 0.0314,-0.07443 0.0568,-0.19826 0.0222,-0.264935 -0.0152,-0.02963 -0.21343,-0.28081 -0.34889,-0.108657 m 2.909,1.191684 c -0.0257,0.07938 -0.0448,0.140758 -0.0102,0.231423 0.0346,0.09066 0.12771,0.296685 0.14323,0.325966 0.0152,0.02963 0.019,0.06244 -0.0321,0.08432 -0.0511,0.02151 -0.28505,0.07161 -0.32844,-0.1778 -0.0434,-0.249063 -0.0473,-0.322088 -0.0691,-0.364066 -0.0219,-0.04198 -0.042,-0.04763 -0.0586,-0.0049 -0.0166,0.04198 -0.0268,0.128765 -0.0296,0.142875 -0.002,0.0141 -0.002,0.02434 0.007,0.03986 0.009,0.01516 0.10195,0.293862 0.0596,0.370416 -0.0416,0.0769 -0.25153,0.214842 -0.3616,0.07055 -0.0522,-0.101245 -0.0204,-0.35701 -0.0204,-0.416983 0,-0.05997 -0.0191,-0.08043 -0.0448,-0.0321 -0.0254,0.04868 -0.0395,0.08078 -0.0381,0.124177 0.001,0.04339 0.007,0.230365 0.004,0.288925 -0.004,0.05892 0,0.249063 0.11254,0.303038 0.11218,0.05362 0.27587,0.0039 0.3997,-0.230013 0.096,0.139348 0.24165,0.1397 0.31996,0.111125 0.0663,-0.02434 0.14041,-0.124177 0.16228,-0.262112 0.0215,-0.13829 -0.0138,-0.232834 -0.0575,-0.310798 -0.0579,-0.0956 -0.096,-0.256824 -0.096,-0.256824 -0.0205,-0.0575 -0.036,-0.116416 -0.0614,-0.03704 m -2.62008,1.386771 c -0.1143,0.124883 -0.14993,0.210608 -0.18415,0.264229 -0.0469,0.07373 0.0124,0.106539 0.0656,0.04904 0.0529,-0.05715 0.09,-0.114655 0.24553,-0.110422 0.15558,0.0039 0.52846,-0.01024 0.38911,0.09207 -0.13934,0.102307 -0.23353,0.161573 -0.23353,0.161573 -0.0903,0.06491 -0.16969,0.186267 -0.0102,0.118534 0.1598,-0.06738 0.37077,-0.173567 0.53234,-0.41769 0.0473,-0.07055 0.1023,-0.165452 -0.11677,-0.19826 -0.21908,-0.03281 -0.57327,-0.08396 -0.68792,0.04092 m 2.54882,-0.04304 -0.19508,0.267407 c -0.006,0.0085 -0.005,0.02011 0.004,0.02611 l 0.33268,0.242713 c 0.008,0.0056 0.0198,0.0035 0.0257,-0.0049 l 0.19508,-0.267406 c 0.006,-0.0085 0.005,-0.02011 -0.003,-0.02612 l -0.33302,-0.242713 c -0.008,-0.006 -0.0194,-0.0035 -0.0257,0.0049 m -1.03117,0.165807 c -0.0381,0.09948 -0.20179,0.445203 -0.1517,0.839258 0.0116,0.09102 0.0885,0.265287 0.23954,0.261408 0.078,-0.0046 0.17603,-0.06209 0.23495,-0.289631 0.01,-0.05115 0.0152,-0.09208 0.019,-0.112184 0.006,-0.03069 -0.0204,-0.06526 -0.042,0.0053 -0.0494,0.140407 -0.19227,0.244475 -0.31362,0.06703 -0.0201,-0.03528 -0.10478,-0.197554 0.0123,-0.569029 0.024,-0.07232 0.0529,-0.179565 0.0529,-0.179565 0.0265,-0.08114 -0.013,-0.122414 -0.0515,-0.02257 m -4.67113,-2.605617 c -0.16439,0.24412 -0.15487,0.550333 -0.15592,0.892175 -0.0303,-0.0695 -0.20461,-0.516467 -0.68192,-0.746832 -0.0349,-0.01659 -0.10019,0.024 -0.0991,0.131586 0,0.06315 -0.007,0.216254 0.0395,0.256471 0.0462,0.04022 0.17991,0.116062 0.20249,0.126645 0.0226,0.01058 0.0455,0.01058 0.0501,-0.01587 0.005,-0.02646 0.03,-0.0889 0.0748,-0.04833 0.0324,0.02893 0.2921,0.227893 0.38735,0.518583 0.0797,0.252587 -0.51718,0.813504 -0.54857,0.839258 -0.0564,0.04621 -0.0353,0.07267 -0.009,0.05574 0.0268,-0.01659 0.054,-0.02257 0.36336,-0.258233 0.24942,-0.189794 0.29069,-0.393345 0.30304,-0.547862 0.002,-0.0078 0.004,-0.01622 0.005,-0.02681 0.0148,-0.187677 0.007,-0.512585 0.0159,-0.611717 0.0109,-0.139345 0.0568,-0.42827 0.23883,-0.2921 0.0416,0.03105 0.0861,0.07267 0.0861,0.07267 0.0392,0.0441 0.0889,0.09454 0.1076,0.03916 0.0282,-0.08361 0.0462,-0.22084 0.005,-0.291042 -0.0187,-0.0314 -0.25047,-0.291042 -0.38347,-0.09349 m 12.65873,1.165929 c -0.0339,0.08431 -0.17851,0.37465 -0.15664,0.717198 0.005,0.07902 0.0579,0.23354 0.1771,0.237418 0.0614,-2.64e-4 0.14111,-0.0448 0.19791,-0.238828 0.01,-0.04375 0.0159,-0.07867 0.0201,-0.09561 0.006,-0.02646 -0.0138,-0.0575 -0.0335,0.0024 -0.0452,0.118534 -0.16228,0.201787 -0.24977,0.04233 -0.0145,-0.0314 -0.0737,-0.175332 0.0349,-0.490715 0.0219,-0.06103 0.0497,-0.1524 0.0497,-0.1524 0.024,-0.06879 -0.005,-0.10654 -0.0399,-0.02188 m 3.30764,0.173215 c -0.0317,0.07796 -0.1651,0.346781 -0.14499,0.663926 0.005,0.07338 0.0533,0.216255 0.16369,0.219782 0.0572,0 0.13088,-0.04128 0.18309,-0.22084 0.009,-0.04022 0.0148,-0.07303 0.0183,-0.0889 0.006,-0.024 -0.012,-0.05292 -0.0307,0.0024 -0.0416,0.110067 -0.15028,0.186619 -0.23106,0.03951 -0.0134,-0.02928 -0.0684,-0.162984 0.0321,-0.454732 0.0204,-0.05644 0.0459,-0.140758 0.0459,-0.140758 0.0229,-0.06385 -0.004,-0.09842 -0.0363,-0.02045 m -15.73671,0.844198 c -0.0579,0.151693 -0.29739,0.673452 -0.27799,1.295752 0.005,0.143933 0.0808,0.425449 0.26882,0.437798 0.0967,0.0013 0.22437,-0.0762 0.32173,-0.425805 0.0173,-0.07902 0.0286,-0.14252 0.0356,-0.173567 0.0109,-0.04692 -0.0183,-0.10442 -0.0522,0.0039 -0.0765,0.213783 -0.26458,0.359481 -0.39581,0.06738 -0.0212,-0.0575 -0.10795,-0.321381 0.0765,-0.889 0.037,-0.110421 0.0847,-0.274463 0.0847,-0.274463 0.0413,-0.124177 -0.003,-0.19332 -0.0614,-0.04198 m 9.53029,-0.836084 -0.16827,0.231069 -0.32314,-0.235657 c -0.008,-0.0056 -0.0198,-0.0039 -0.0258,0.0046 l -0.19508,0.267403 c -0.006,0.0085 -0.005,0.02045 0.003,0.02612 l 0.33302,0.24271 c 0.008,0.0056 0.0198,0.0039 0.0258,-0.0046 l 0.16827,-0.231069 0.32315,0.235654 c 0.008,0.0056 0.0198,0.0039 0.0257,-0.0046 l 0.19509,-0.267759 c 0.006,-0.0085 0.005,-0.02011 -0.004,-0.02574 l -0.33267,-0.242712 c -0.008,-0.0056 -0.0194,-0.0039 -0.0258,0.0046 m 1.30316,0.416277 c -0.013,0.04516 -0.0459,0.239535 -0.0536,0.279752 -0.007,0.03986 -0.007,0.07973 0.0127,0.113948 0.0198,0.03422 0.0702,0.152752 0.10724,0.24906 0.0363,0.09631 0.41417,0.82409 0.44874,0.888648 0.0349,0.06421 0.042,0.112535 0.007,0.155223 -1.2125,1.279877 -3.55283,2.066571 -3.62762,2.109962 -0.0748,0.04339 -0.055,0.07726 0.0709,0.05539 0.18803,-0.03316 1.23931,-0.209198 1.53917,-0.353483 0.19791,-0.09525 0.88794,-0.433917 1.45239,-0.8763 -0.0159,0.113945 -0.0303,0.281868 -0.0226,0.494945 0.0384,1.029055 0.95885,0.858663 1.20015,0.805746 0.72354,-0.159104 1.60866,-1.159229 1.68381,-1.360312 0.0744,-0.198613 0.085,-0.379588 0.0681,-0.537634 0.19085,-0.103362 0.60008,-0.43321 0.60008,-0.43321 0.0169,0.438856 0.36583,0.570442 0.47378,0.589844 0.50341,0.0762 0.75565,-0.344663 0.86289,-0.480836 0.0917,0.240242 0.31221,0.286809 0.42545,0.309386 0.43498,0.08643 0.51929,-0.220838 0.54152,-0.290688 0.13652,-0.423687 -0.10901,-0.739775 -0.14076,-0.7747 -0.0314,-0.03493 -0.0476,-0.0013 -0.0586,0.03916 -0.0109,0.04057 -0.0462,0.19332 -0.0681,0.288925 0,0 0.0907,0.147812 0.12312,0.223308 0.0324,0.07549 -0.0162,0.116769 -0.10901,0.12841 -0.26458,0.0321 -0.47554,-0.119591 -0.54786,-0.189441 -0.073,-0.06985 0.006,-0.193323 0.0649,-0.340784 0.0466,-0.118181 -0.0409,-0.132291 -0.10725,-2.64e-4 -0.22401,0.588785 -0.53869,0.652285 -0.62159,0.674862 -0.74613,0.2032 -0.68192,-0.478719 -0.6791,-0.59055 0.003,-0.111829 -0.079,-0.07055 -0.1711,0.0035 -0.31361,0.251883 -0.56691,0.399695 -0.70273,0.460375 -0.11677,-0.2286 -0.28716,-0.372533 -0.35877,-0.424392 -0.80751,-0.588788 -0.87419,0.599017 -0.84985,0.726369 0.12312,0.505177 0.94756,0.199318 1.07704,0.183798 0.12946,-0.01516 0.0871,0.155575 0.0148,0.257175 -0.17921,0.250118 -0.38594,0.429683 -0.57291,0.582435 -0.79975,0.652285 -1.20121,0.601133 -1.32433,0.5969 -0.78563,-0.02222 -0.71331,-0.86854 -0.66992,-1.049515 0.23636,-0.200025 0.43921,-0.417687 0.55739,-0.64135 0.048,-0.123118 0.13088,-0.401812 -0.019,-0.751768 -0.0783,-0.154165 -0.32632,-0.586317 -0.32632,-0.586317 0,0 0.18274,0.0056 0.20002,0.0053 0.0173,-2.65e-4 0.0515,-0.01834 0.007,-0.0695 -0.0444,-0.0508 -0.42757,-0.433211 -0.45085,-0.463902 -0.0226,-0.03069 -0.0441,-0.05292 -0.0571,-0.0074 m 2.42217,1.752249 c 0,0 -0.11006,0.0635 -0.41733,0.04233 -0.25788,-0.01693 -0.23566,-0.117475 -0.20038,-0.155575 0.0381,-0.04163 0.35419,-0.240242 0.61771,0.113242 m -3.31646,-1.424872 c -0.0533,0.06632 -0.58985,0.770115 -0.58985,0.770115 l -0.38981,-0.27799 c 0,0 0.1591,-0.03986 0.18661,-0.04798 0.0279,-0.0081 0.0437,-0.0441 -0.006,-0.06985 -0.0501,-0.0254 -0.51999,-0.213076 -0.55597,-0.227541 -0.0356,-0.01447 -0.0487,-0.03069 -0.0519,0.0074 -0.003,0.0381 -0.008,0.347485 -0.008,0.347485 0,0 -0.007,0.02188 0.0339,0.04516 0.0409,0.02328 0.0811,0.07303 0.115,0.10654 0.0335,0.03387 0.47096,0.378883 0.49213,0.391228 0,0 -0.21872,0.38453 -0.24659,0.685448 -0.0279,0.300919 0.005,0.715786 0.41663,0.581732 0.11077,-0.03105 0.57115,-0.21449 0.67451,-0.535871 0.0335,-0.118179 0.12806,-0.331962 -0.0261,-0.548921 -0.0893,-0.127354 -0.44908,-0.342548 -0.44908,-0.342548 0,0 0.27622,-0.382058 0.30303,-0.428625 0.0257,-0.04657 0.12736,-0.342548 0.139,-0.414515 0.0109,-0.07161 0.0166,-0.107243 -0.0367,-0.04127 m -0.0945,1.62278 c -0.15275,0.125942 -0.47378,0.2921 -0.56409,0.300567 -0.09,0.0088 -0.32985,-0.03528 -0.22577,-0.280459 0.0356,-0.07937 0.27516,-0.48895 0.27516,-0.48895 0.0896,0.04903 0.66746,0.343252 0.5147,0.468842 m 6.23076,0.561975 c -0.031,0.08643 -0.043,0.142875 -0.0402,0.176035 0.004,0.03281 0.0145,0.139348 0.0145,0.139348 -0.0314,0.02574 -0.16827,0.111125 -0.30515,0.01024 0.009,-0.02928 0.0268,-0.08855 0.0307,-0.121354 0.0148,-0.05045 -0.0162,-0.0882 -0.0413,-0.03563 -0.0243,0.05257 -0.0825,0.228248 -0.12558,0.267407 -0.043,0.03951 -0.0938,0.184854 -0.41946,0.03704 -0.0572,-0.02188 -0.15734,-0.09596 -0.31291,0.06068 -0.35278,0.327732 -0.59584,0.353484 -0.99131,0.49389 -0.0476,0.02188 -0.14852,0.09737 -0.0289,0.08537 0.11888,-0.01199 0.61983,0 0.89288,-0.312913 0.0571,-0.05539 0.12241,-0.201437 0.33902,-0.116416 0.11994,0.04551 0.34148,0.235654 0.58314,-0.140407 0.14287,0.0949 0.35912,0.05715 0.39334,-0.04798 0.0349,-0.104071 0.0741,-0.208491 0.0737,-0.2794 0,-0.07161 -0.006,-0.1651 -0.006,-0.1651 -0.005,-0.05609 -0.0247,-0.136879 -0.0565,-0.0508 M 134.5733,36.9736 c -0.0219,0.03316 -0.0377,0.06068 -0.0469,0.07338 -0.013,0.02011 -0.006,0.05186 0.0286,0.0081 0.0744,-0.08431 0.19756,-0.117121 0.22119,0.04233 0.002,0.03034 0.007,0.168982 -0.18168,0.39723 -0.037,0.0441 -0.0882,0.111125 -0.0882,0.111125 -0.042,0.04974 -0.0289,0.08996 0.0257,0.03069 0.055,-0.05927 0.26494,-0.256116 0.35278,-0.547513 0.0201,-0.06773 0.0247,-0.212018 -0.0734,-0.252587 -0.0515,-0.01871 -0.13123,-0.0064 -0.23812,0.137229 m -1.91594,0.28575 c -0.0215,0.03316 -0.0378,0.06032 -0.0462,0.07338 -0.0134,0.02011 -0.007,0.05186 0.0282,0.0081 0.0744,-0.08467 0.19755,-0.117475 0.22119,0.04198 0.002,0.03104 0.007,0.169333 -0.18168,0.397581 -0.037,0.04374 -0.0882,0.111125 -0.0882,0.111125 -0.0416,0.04974 -0.0289,0.08996 0.0261,0.03069 0.0543,-0.05927 0.26458,-0.256117 0.35242,-0.547513 0.0201,-0.06773 0.0247,-0.212019 -0.0734,-0.252587 -0.0511,-0.01905 -0.13123,-0.0063 -0.23847,0.137229 m -4.17019,-0.0039 c -0.0702,0.03422 -1.21955,0.615596 -1.29681,0.659694 -0.0716,0.04127 -0.0893,0.06385 -0.0963,0.118181 -0.007,0.05433 -0.0102,0.08608 -0.0123,0.09454 -0.01,0.03704 -0.024,0.06914 0.0818,0.0071 0.0511,-0.03034 1.19062,-0.593373 1.2633,-0.638529 0.0582,-0.03598 0.0875,-0.05856 0.10653,-0.116062 0.0187,-0.05715 0.024,-0.06773 0.0332,-0.107247 0.0102,-0.04233 0.025,-0.06914 -0.0794,-0.01765"
       style="fill:#231f20;fill-opacity:1;fill-rule:evenodd;stroke:none;stroke-width:0.264583"
       id="path1-3" />
  </g>
</svg>
