<?xml version="1.0" encoding="UTF-8" standalone="no"?>
<!-- Created with Inkscape (http://www.inkscape.org/) -->

<svg
   width="20.086273mm"
   height="6.4078417mm"
   viewBox="0 0 20.086273 6.4078417"
   version="1.1"
   id="svg1"
   xmlns:inkscape="http://www.inkscape.org/namespaces/inkscape"
   xmlns:sodipodi="http://sodipodi.sourceforge.net/DTD/sodipodi-0.dtd"
   xmlns="http://www.w3.org/2000/svg"
   xmlns:svg="http://www.w3.org/2000/svg">
  <sodipodi:namedview
     id="namedview1"
     pagecolor="#ffffff"
     bordercolor="#666666"
     borderopacity="1.0"
     inkscape:showpageshadow="2"
     inkscape:pageopacity="0.0"
     inkscape:pagecheckerboard="0"
     inkscape:deskcolor="#d1d1d1"
     inkscape:document-units="mm" />
  <defs
     id="defs1" />
  <g
     inkscape:label="Layer 1"
     inkscape:groupmode="layer"
     id="layer1"
     transform="translate(-120.42998,-42.830634)">
    <path
       d="m 132.77345,42.999764 c -0.0702,0.106186 -0.12241,0.362657 -0.0226,0.435682 0.10019,0.07338 0.2466,0.132291 0.2466,0.132291 -0.46602,0.571146 -0.78458,0.679802 -1.05693,0.839611 -0.0702,0.04092 -0.0564,0.07796 -0.0152,0.06703 0.0212,-0.006 0.3877,-0.06279 0.81598,-0.387702 0.23142,-0.176036 0.37147,-0.47625 0.37147,-0.47625 0,0 0.11571,0.09631 0.13159,0.116064 0.0353,0.04339 0.0543,0.07585 0.0709,0.02963 0.0607,-0.16863 -0.0254,-0.27023 -0.1076,-0.323146 0,0 0.0857,-0.263171 -0.0716,-0.52705 -0.0261,-0.04445 -0.18169,-0.185913 -0.36266,0.09384 m 0.24342,0.07267 c 0.10477,0.09772 0.0889,0.257879 0.0847,0.294569 0,0 -0.1337,-0.06315 -0.19402,-0.08855 -0.0596,-0.02574 -0.0914,-0.0635 -0.0635,-0.101952 0.0921,-0.129823 0.13758,-0.125235 0.17286,-0.104069 m 6.27874,0.02294 c -0.0702,0.10654 -0.12242,0.362304 -0.0222,0.435329 0.0998,0.07373 0.24659,0.132644 0.24659,0.132644 -0.46637,0.571148 -1.38077,0.976842 -1.59843,1.146879 -0.0649,0.04904 -0.0561,0.07796 -0.0152,0.06668 0.0363,-0.0092 0.73307,-0.204611 1.37019,-0.750356 0.2921,-0.250121 0.28434,-0.268817 0.35877,-0.420513 0.0632,0.03211 0.10654,0.08502 0.13159,0.116065 0.0349,0.04374 0.0543,0.07585 0.0705,0.02999 0.061,-0.168979 -0.025,-0.270933 -0.10759,-0.323495 0,0 0.0854,-0.263525 -0.0716,-0.527405 -0.0261,-0.04409 -0.18203,-0.185208 -0.36265,0.09419 m 0.24341,0.07267 c 0.10513,0.09737 0.0889,0.257527 0.085,0.294217 0,0 -0.1337,-0.06279 -0.19402,-0.08819 -0.06,-0.02574 -0.0917,-0.06386 -0.0639,-0.1016 0.0928,-0.130175 0.13794,-0.12559 0.17286,-0.104423 m -8.26911,-0.212019 c -0.0162,0.03916 -0.11183,0.303036 -0.11183,0.303036 0.0258,0.171801 0.25294,2.014712 0.26776,2.13995 0.0148,0.125941 0.31362,2.05387 0.33055,2.63031 -0.005,0.05927 0.0208,0.08114 0.0476,0.02434 0.0272,-0.05644 0.21308,-0.440973 -0.007,-1.851025 -0.0162,-0.117123 -0.3302,-2.343501 -0.3302,-2.343501 0,0 0.1972,0.18556 0.22895,0.218723 0.0317,0.03351 0.0702,0.01587 0.0519,-0.0381 -0.0177,-0.05398 -0.42192,-1.030465 -0.43497,-1.064332 -0.013,-0.03387 -0.0257,-0.05856 -0.0423,-0.01939 m 6.48088,0.04621 c -0.18344,0.232834 -0.19473,0.539047 -0.21942,0.87983 -0.0257,-0.07126 -0.17181,-0.528463 -0.63924,-0.790575 -0.0342,-0.01905 -0.10301,0.01693 -0.10971,0.124529 -0.004,0.0628 -0.0219,0.215196 0.0226,0.258588 0.0444,0.04339 0.17462,0.128058 0.19685,0.1397 0.0219,0.01236 0.0452,0.01376 0.0519,-0.01236 0.006,-0.02612 0.0363,-0.08678 0.0787,-0.04304 0.036,0.03598 0.266,0.226483 0.38559,0.630063 0.0208,0.05398 0.0702,0.05891 0.0822,-0.01728 0.0275,-0.186618 0.0423,-0.51082 0.0572,-0.609245 0.0208,-0.13829 0.0868,-0.423333 0.26211,-0.275521 0.0395,0.03387 0.0818,0.07832 0.0818,0.07832 0.0374,0.04657 0.084,0.10019 0.1069,0.04621 0.0342,-0.08149 0.0617,-0.216958 0.024,-0.289983 -0.0166,-0.03246 -0.23354,-0.307269 -0.38135,-0.11924 m -7.52334,-0.02469 c -0.0162,0.03881 -0.14605,0.324909 -0.14605,0.324909 0.003,0.02294 0.0511,0.09525 0.0723,0.239183 0.0219,0.149932 0.0519,0.353835 0.0861,0.590198 0,0 0.36724,2.748489 0.37359,2.817987 0.006,0.06914 0.042,0.323498 -0.025,0.36336 -0.0674,0.03951 -0.37183,0.23495 -0.76659,0.155575 0.0378,-0.04621 0.32561,-0.506587 0.22648,-0.924276 -0.0162,-0.06279 -0.19297,-0.55245 -0.53304,-0.27305 -0.34044,0.2794 -0.51047,0.942975 -0.33197,1.17616 -0.0293,0.01482 -0.53904,0.216958 -0.79128,0.236715 0.0448,-0.04762 0.55598,-0.572559 0.32068,-0.942269 -0.0628,-0.109363 -0.45368,-0.701675 -1.26436,-0.294217 -0.46214,0.277284 -1.04598,1.146879 -1.05868,1.167694 0,0 -0.2854,-0.04586 -0.36054,-0.408869 -0.0124,-0.05997 -0.002,-0.132998 -0.10196,-0.03105 -0.10019,0.102307 -0.30762,0.48895 -0.71931,0.553508 -0.15699,0.02222 -0.68051,0.03352 -0.7366,-0.585258 0,-0.0019 -2.7e-4,-0.0035 -7.9e-4,-0.0056 0.39511,-0.01799 0.93486,-0.117827 1.49895,-0.453674 0.2092,-0.124528 0.52105,-0.532341 0.40358,-0.826558 -0.0392,-0.100542 -0.22366,-0.569383 -0.84843,-0.559858 -0.15734,0.0024 -0.85161,0.0755 -1.57974,1.375129 -0.0339,-0.0085 -0.29457,-0.05292 -0.39617,-0.383823 -0.0233,-0.0508 -0.0554,-0.06385 -0.0741,0.0085 -0.019,0.07267 -0.0466,0.29351 -0.0466,0.29351 0.0564,0.116065 0.31256,0.569383 0.28998,0.74013 -0.0222,0.170391 -0.30233,0.565502 -1.16346,0.905578 -0.19332,0.0635 -1.29787,0.554922 -1.86513,-0.382058 -0.0723,-0.119237 -0.19756,-0.63641 0.0734,-1.172279 0.0127,0.0032 0.0261,0.0056 0.0402,0.006 0.097,-0.0028 0.22048,-0.08713 0.30057,-0.44097 0.0134,-0.08008 0.0219,-0.143933 0.0275,-0.17498 0.008,-0.04798 -0.0236,-0.103362 -0.0522,0.006 -0.0656,0.216959 -0.24659,0.372182 -0.39229,0.08714 -0.0236,-0.05644 -0.12347,-0.315736 0.0335,-0.891821 0.0314,-0.111831 0.0713,-0.278341 0.0713,-0.278341 0.0349,-0.125942 -0.0127,-0.192972 -0.0635,-0.03881 -0.0508,0.154517 -0.26459,0.686858 -0.21449,1.307748 0.009,0.105479 0.0603,0.284692 0.16228,0.372533 -0.11183,0.241652 -0.58491,1.317271 0.18591,1.927929 0.17992,0.142171 0.93874,0.53834 2.10467,-0.142875 0.19403,-0.113945 0.8569,-0.487185 0.89041,-0.995891 0.0127,-0.138642 -0.005,-0.327729 -0.005,-0.327729 0.0441,0.0085 0.22402,0.04339 0.49001,0.04268 -2.7e-4,0.006 -0.001,0.01236 -0.002,0.01939 -0.0109,0.20955 -0.0392,0.879475 0.60219,0.94615 0.0924,0.0141 0.60783,0.04198 0.96626,-0.506587 0.0219,0.05821 0.0741,0.228245 0.30092,0.36336 -0.0526,0.10019 -0.10337,0.220133 -0.12736,0.283282 -0.0254,0.06703 0.003,0.112183 0.0561,0.05609 0.0384,-0.04022 0.14746,-0.192616 0.20461,-0.273756 0.22084,0.08996 0.55562,0.14605 1.06821,0.102658 0.21413,-0.01236 0.94932,-0.0039 1.97838,-0.419806 0.0631,0.02506 0.49988,0.328083 1.17227,0.01693 0.0797,-0.05044 0.14817,-0.203552 0.22261,-0.508704 0.12029,-0.494241 -0.36019,-3.3401 -0.36019,-3.3401 0,0 0.19721,0.18556 0.22931,0.219075 0.0318,0.03352 0.0699,0.01553 0.0519,-0.03881 -0.0183,-0.05327 -0.42193,-1.029759 -0.43498,-1.063977 -0.013,-0.03352 -0.0261,-0.05821 -0.0423,-0.01905 m -4.49545,2.79541 c 0.26106,0.09349 0.45791,0.34431 0.42545,0.371123 -0.80574,0.665692 -1.8542,0.611362 -2.05105,0.565502 0,0 0.66851,-1.279525 1.6256,-0.936625 m 4.12574,0.988483 c 0.14076,0.381352 -0.36054,0.549627 -0.36054,0.549627 0,0 -0.16863,-0.06209 -0.21026,-0.198612 -0.0416,-0.136525 0.1203,-0.369713 0.26564,-0.480483 0.1457,-0.111125 0.27517,0.02787 0.30516,0.129468 m -1.46862,0.18909 c 0.19897,0.165452 0.0952,0.252235 0.0254,0.316442 -0.6918,0.526343 -1.57797,0.481893 -1.82456,0.410279 0,0 0.38205,-0.701321 0.88935,-0.906286 0.41169,-0.162276 0.7112,0.0141 0.90981,0.179565 m 7.56109,-3.958873 c -0.0677,0.03951 -1.78753,1.031875 -1.85703,1.077032 -0.0699,0.0448 -0.0945,0.05644 -0.10583,0.110418 -0.0109,0.05362 -0.0166,0.08467 -0.0198,0.09349 -0.0127,0.03563 -0.0215,0.08008 0.0811,0.01341 0.0321,-0.02117 1.76213,-1.020937 1.82245,-1.058685 0.0582,-0.03634 0.0921,-0.05186 0.11536,-0.107598 0.0233,-0.05574 0.0293,-0.06562 0.0416,-0.10442 0.0134,-0.04127 0.0265,-0.08502 -0.078,-0.02363 m -6.72395,0.0127 c -0.0307,0.07514 -0.15839,0.332672 -0.13899,0.636413 0.005,0.07055 0.0512,0.207434 0.15698,0.21096 0.0547,-2.64e-4 0.12559,-0.04022 0.17534,-0.212018 0.009,-0.03845 0.0145,-0.06985 0.0176,-0.08502 0.006,-0.02328 -0.0116,-0.0508 -0.0293,0.0021 -0.0399,0.105482 -0.14394,0.179213 -0.22155,0.0381 -0.0127,-0.02787 -0.0656,-0.155927 0.031,-0.435678 0.0194,-0.05433 0.0441,-0.135115 0.0441,-0.135115 0.0215,-0.06103 -0.005,-0.09454 -0.0353,-0.01976 m -0.87171,0.03069 c -0.097,0.03669 -3.51508,1.417108 -3.61491,1.457677 -0.0991,0.03951 -0.12947,0.05786 -0.1517,0.125238 -0.0222,0.06703 -0.0335,0.10301 -0.0392,0.116768 -0.0191,0.04551 -0.0437,0.09137 0.1016,0.02893 0.0452,-0.01905 3.48827,-1.398055 3.56764,-1.438272 0.079,-0.03986 0.12524,-0.05257 0.16369,-0.12065 0.0381,-0.06809 0.0473,-0.07973 0.0691,-0.127707 0.0229,-0.0508 0.0497,-0.09737 -0.0963,-0.04198 m -3.05082,0.03281 c -0.0307,0.07479 -0.15875,0.332317 -0.139,0.636413 0.005,0.0702 0.0512,0.207079 0.15699,0.210609 0.0547,-2.65e-4 0.12524,-0.03986 0.17533,-0.211667 0.009,-0.03881 0.0141,-0.06985 0.018,-0.08502 0.005,-0.02328 -0.012,-0.05115 -0.0296,0.0021 -0.0402,0.10513 -0.14394,0.178859 -0.2219,0.03775 -0.0124,-0.02787 -0.0653,-0.155926 0.0314,-0.435681 0.0194,-0.05398 0.0437,-0.135112 0.0437,-0.135112 0.0219,-0.06103 -0.004,-0.09455 -0.0349,-0.01939 m -1.51906,0.129471 c -0.0476,0.14605 -0.25047,0.650875 -0.2032,1.238602 0.0113,0.136171 0.0963,0.399344 0.27446,0.401812 0.0921,-0.0024 0.20884,-0.08219 0.28504,-0.417335 0.0127,-0.07585 0.0204,-0.136525 0.0261,-0.165804 0.008,-0.04551 -0.0226,-0.09842 -0.0501,0.0056 -0.0617,0.205668 -0.23318,0.352425 -0.37112,0.08255 -0.0226,-0.05398 -0.11712,-0.299509 0.0314,-0.845257 0.03,-0.105833 0.0674,-0.263877 0.0674,-0.263877 0.0339,-0.119239 -0.0116,-0.182739 -0.06,-0.03634 m -1.39558,0.17921 c -0.16652,0.242711 -0.16052,0.548569 -0.16475,0.890411 -0.0296,-0.06985 -0.19967,-0.518229 -0.67451,-0.753179 -0.0346,-0.01693 -0.10054,0.02294 -0.10054,0.130527 -2.7e-4,0.06315 -0.009,0.216606 0.0367,0.256823 0.0462,0.04092 0.17957,0.117827 0.20179,0.128762 0.0222,0.01058 0.0455,0.01093 0.0504,-0.01553 0.005,-0.02646 0.0307,-0.08855 0.0751,-0.04798 0.0318,0.02963 0.28963,0.231424 0.38206,0.522465 0.0773,0.253646 -0.52493,0.808567 -0.55668,0.833967 -0.0568,0.04586 -0.0363,0.07197 -0.01,0.05574 0.0268,-0.01659 0.054,-0.02222 0.36583,-0.254704 0.25153,-0.187325 0.29457,-0.390525 0.30833,-0.54469 0.002,-0.0078 0.004,-0.01659 0.005,-0.02646 0.0166,-0.188029 0.0127,-0.512937 0.0212,-0.612068 0.0127,-0.138994 0.0614,-0.427567 0.24235,-0.289632 0.0409,0.03175 0.0847,0.07338 0.0847,0.07338 0.0395,0.0448 0.0885,0.09525 0.1076,0.04022 0.0293,-0.08361 0.0487,-0.220133 0.007,-0.291041 -0.0183,-0.0314 -0.24765,-0.293513 -0.38241,-0.09701 m 7.31308,0.682977 c -0.0684,0.03528 -2.286,0.922866 -2.48567,1.059743 -0.10019,0.0695 -0.18839,0.18415 -0.22613,0.313267 -0.0543,0.186973 -0.0219,0.378883 0.10054,0.408165 0.085,0.02082 0.13053,0.07444 0.14993,0.105481 0.009,0.01304 0.0233,0.0056 0.0282,-0.0024 0.11324,-0.186267 0.0342,-0.314677 -0.12947,-0.375708 -0.0649,-0.02434 -0.0871,-0.118886 0.17075,-0.257527 0.23777,-0.127352 2.22885,-0.940152 2.28176,-0.97155 0.0716,-0.04198 0.1143,-0.0568 0.1457,-0.122767 0.0317,-0.06562 0.0395,-0.0769 0.0572,-0.12347 0.0187,-0.04868 0.0374,-0.100542 -0.0928,-0.03316 m -3.08222,0.142523 c -0.0275,0.08784 -0.14817,0.3937 -0.096,0.737658 0.012,0.07937 0.0783,0.230717 0.19896,0.224367 0.0621,-0.0053 0.13864,-0.05751 0.17886,-0.257882 0.006,-0.04516 0.01,-0.08114 0.0124,-0.09842 0.004,-0.02716 -0.0187,-0.0568 -0.0339,0.0053 -0.0349,0.123825 -0.14605,0.217665 -0.24835,0.06456 -0.0173,-0.03069 -0.0896,-0.170743 -0.007,-0.498826 0.0166,-0.0635 0.0367,-0.157692 0.0367,-0.157692 0.0187,-0.07197 -0.0141,-0.107598 -0.0416,-0.01905 m 9.66082,0.144285 c -0.0346,0.08396 -0.1785,0.375002 -0.15663,0.717198 0.005,0.07902 0.0575,0.233185 0.17674,0.237419 0.0617,-2.65e-4 0.14146,-0.0448 0.19791,-0.238477 0.01,-0.04375 0.0159,-0.07867 0.0198,-0.09631 0.006,-0.02574 -0.013,-0.05715 -0.0332,0.0028 -0.0452,0.118887 -0.16228,0.201789 -0.25012,0.04269 -0.0141,-0.03175 -0.0734,-0.175683 0.0353,-0.490714 0.0219,-0.06103 0.0497,-0.1524 0.0497,-0.1524 0.0243,-0.06879 -0.005,-0.106537 -0.0395,-0.02223 m 3.30729,0.173214 c -0.0317,0.07796 -0.16545,0.347134 -0.14499,0.663927 0.005,0.07338 0.0533,0.2159 0.16369,0.219782 0.0572,-2.65e-4 0.13088,-0.04163 0.18309,-0.220488 0.009,-0.04092 0.0148,-0.07303 0.0187,-0.0889 0.006,-0.02469 -0.0124,-0.05327 -0.031,0.0024 -0.0416,0.109712 -0.15028,0.186619 -0.23142,0.03916 -0.013,-0.02928 -0.0681,-0.162631 0.0328,-0.454379 0.0201,-0.05644 0.0455,-0.14111 0.0455,-0.14111 0.0229,-0.0635 -0.004,-0.09842 -0.0363,-0.02045 m -6.72359,0.0081 -0.19509,0.267758 c -0.006,0.0085 -0.005,0.02011 0.004,0.02612 l 0.33267,0.242358 c 0.008,0.006 0.0194,0.0039 0.0258,-0.0046 l 0.16827,-0.230717 0.32314,0.235302 c 0.008,0.006 0.0198,0.0039 0.0258,-0.0046 l 0.19508,-0.267407 c 0.006,-0.0085 0.005,-0.02011 -0.004,-0.02611 l -0.33267,-0.24271 c -0.008,-0.0056 -0.0198,-0.0035 -0.0257,0.0046 l -0.16828,0.231071 -0.32279,-0.235656 c -0.008,-0.0056 -0.0198,-0.0035 -0.0261,0.0046 m -9.85414,0.184857 c -0.0307,0.07479 -0.15875,0.332668 -0.139,0.63641 0.005,0.0702 0.0512,0.207081 0.15699,0.210608 0.0543,0 0.12524,-0.03951 0.17533,-0.211312 0.008,-0.03881 0.0141,-0.0702 0.0177,-0.08537 0.005,-0.02328 -0.0113,-0.0508 -0.0296,0.0024 -0.0395,0.10513 -0.14358,0.178507 -0.22154,0.03775 -0.0127,-0.02787 -0.0653,-0.155927 0.031,-0.435681 0.0194,-0.05397 0.0441,-0.13476 0.0441,-0.13476 0.0219,-0.06138 -0.004,-0.09454 -0.0349,-0.02011 m 6.72041,0.567619 -0.16863,0.230365 -0.32279,-0.235302 c -0.008,-0.0056 -0.0198,-0.0035 -0.0257,0.0049 l -0.19509,0.267055 c -0.006,0.0085 -0.005,0.02011 0.003,0.02611 l 0.33302,0.242359 c 0.008,0.0063 0.0194,0.0039 0.0257,-0.0046 l 0.16828,-0.230716 0.32279,0.235302 c 0.008,0.0064 0.0201,0.0039 0.0261,-0.0046 l 0.19474,-0.267406 c 0.006,-0.0081 0.005,-0.02045 -0.003,-0.02574 l -0.33267,-0.24271 c -0.008,-0.0056 -0.0198,-0.0035 -0.0257,0.0049 m -7.40128,0.511175 c -0.0476,0.14605 -0.25047,0.650523 -0.20285,1.23825 0.0113,0.136173 0.0963,0.399347 0.27446,0.401815 0.0917,-0.0028 0.20885,-0.0822 0.2847,-0.417335 0.0127,-0.07585 0.0204,-0.136525 0.0261,-0.165807 0.008,-0.04516 -0.0222,-0.09807 -0.0497,0.0053 -0.0624,0.206023 -0.23354,0.352777 -0.37148,0.0829 -0.0226,-0.05397 -0.11712,-0.299508 0.0318,-0.845254 0.0296,-0.105833 0.067,-0.263525 0.067,-0.263525 0.0335,-0.11924 -0.0116,-0.18274 -0.06,-0.03634 m 12.35533,-0.84737 c -0.0127,0.04515 -0.0455,0.239887 -0.0533,0.279752 -0.008,0.04022 -0.007,0.07973 0.0124,0.113948 0.0198,0.03422 0.0705,0.152752 0.10689,0.24906 0.0367,0.09631 0.41451,0.82409 0.44944,0.888294 0.0349,0.06456 0.042,0.113241 0.007,0.155575 -1.21249,1.279879 -3.55282,2.066221 -3.62761,2.109964 -0.0748,0.04339 -0.055,0.07726 0.0706,0.05503 0.18873,-0.03281 1.24001,-0.208492 1.53952,-0.353484 0.19791,-0.0949 0.88794,-0.433564 1.45238,-0.8763 -0.0159,0.1143 -0.0303,0.282575 -0.0222,0.4953 0.0381,1.029407 0.95814,0.858309 1.1998,0.805392 0.7239,-0.15875 1.60866,-1.159227 1.6838,-1.359958 0.0744,-0.198615 0.085,-0.37959 0.0684,-0.537282 0.1905,-0.103362 0.60008,-0.433562 0.60008,-0.433562 0.0166,0.438502 0.36548,0.570442 0.47307,0.589492 0.50377,0.07655 0.75636,-0.344313 0.86325,-0.480838 0.0917,0.240242 0.31221,0.287163 0.42545,0.30974 0.43498,0.08678 0.51894,-0.22084 0.54187,-0.291042 0.13617,-0.423685 -0.10936,-0.739068 -0.14111,-0.774348 -0.0314,-0.03493 -0.0476,-0.0019 -0.0586,0.03916 -0.0109,0.04092 -0.0462,0.193323 -0.0681,0.288925 0,0 0.091,0.148167 0.12312,0.223309 0.0321,0.07514 -0.0159,0.116771 -0.10901,0.128413 -0.26423,0.0321 -0.47554,-0.119592 -0.54786,-0.18909 -0.0727,-0.0702 0.006,-0.193675 0.0649,-0.341135 0.0462,-0.118182 -0.0406,-0.132647 -0.10725,-2.65e-4 -0.22401,0.588788 -0.53869,0.652288 -0.62159,0.674865 -0.74613,0.2032 -0.68157,-0.478719 -0.6791,-0.59055 0.003,-0.111832 -0.079,-0.07056 -0.17074,0.0032 -0.31398,0.252235 -0.56692,0.400402 -0.70309,0.460727 -0.11712,-0.228952 -0.28716,-0.372534 -0.35913,-0.424392 -0.80715,-0.588785 -0.87383,0.599371 -0.84913,0.726371 0.12276,0.505529 0.94756,0.198967 1.07703,0.183796 0.12911,-0.01516 0.0868,0.155575 0.0145,0.257175 -0.17921,0.249766 -0.38559,0.429683 -0.57291,0.582437 -0.79975,0.652286 -1.20121,0.600779 -1.32468,0.596546 -0.78529,-0.02188 -0.71297,-0.868537 -0.66958,-1.04916 0.23636,-0.200377 0.43956,-0.41769 0.55739,-0.64135 0.048,-0.123119 0.13088,-0.402167 -0.0187,-0.752123 -0.0787,-0.153811 -0.32667,-0.585962 -0.32667,-0.585962 0,0 0.18274,0.0056 0.20002,0.0053 0.0173,-2.64e-4 0.0519,-0.01834 0.007,-0.0695 -0.0445,-0.0508 -0.42757,-0.432858 -0.4505,-0.463902 -0.0233,-0.03069 -0.0445,-0.05292 -0.0575,-0.0074 m 2.42217,1.752245 c 0,0 -0.11006,0.0635 -0.41733,0.04233 -0.25788,-0.01728 -0.23531,-0.117475 -0.20038,-0.155575 0.0385,-0.04163 0.35383,-0.240594 0.61771,0.113241 m -3.31646,-1.424516 c -0.0536,0.06597 -0.58985,0.769763 -0.58985,0.769763 l -0.38982,-0.27799 c 0,0 0.15911,-0.04022 0.18698,-0.04798 0.0275,-0.0085 0.0434,-0.0441 -0.007,-0.0695 -0.0497,-0.02574 -0.51999,-0.213432 -0.55598,-0.227894 -0.0356,-0.01447 -0.0487,-0.03105 -0.0519,0.0071 -0.003,0.03845 -0.008,0.347839 -0.008,0.347839 0,0 -0.007,0.02188 0.0339,0.04516 0.0413,0.02294 0.0811,0.07302 0.11465,0.106891 0.0339,0.03316 0.47131,0.378529 0.49247,0.390525 0,0 -0.21872,0.384527 -0.24659,0.685094 -0.0279,0.301273 0.005,0.716492 0.41663,0.582435 0.11078,-0.0314 0.5715,-0.214841 0.67451,-0.535868 0.0335,-0.118534 0.12806,-0.331965 -0.0261,-0.548569 -0.0892,-0.127706 -0.44909,-0.3429 -0.44909,-0.3429 0,0 0.27623,-0.382058 0.30269,-0.428979 0.0265,-0.04657 0.12805,-0.342546 0.13899,-0.413809 0.0113,-0.07161 0.0169,-0.107595 -0.0363,-0.04127 m -0.0942,1.62278 c -0.1531,0.125587 -0.47448,0.291745 -0.56409,0.300212 -0.0903,0.0088 -0.32984,-0.03528 -0.22578,-0.28081 0.0356,-0.07902 0.27482,-0.488598 0.27482,-0.488598 0.0896,0.04904 0.66781,0.3429 0.51505,0.469196 m 6.23041,0.56162 c -0.031,0.08643 -0.043,0.14323 -0.0399,0.176038 0.003,0.03281 0.0148,0.139346 0.0148,0.139346 -0.0321,0.02574 -0.16899,0.110421 -0.30586,0.0099 0.009,-0.02893 0.0272,-0.08855 0.0307,-0.121004 0.0152,-0.05045 -0.0162,-0.08819 -0.0409,-0.03598 -0.0247,0.05256 -0.0829,0.228248 -0.12595,0.267758 -0.043,0.03916 -0.0938,0.184504 -0.4198,0.03669 -0.0568,-0.02151 -0.15699,-0.0956 -0.31291,0.06103 -0.35243,0.327729 -0.59585,0.353129 -0.99096,0.493887 -0.0476,0.02188 -0.14817,0.09737 -0.0289,0.08537 0.11924,-0.01199 0.62019,2.65e-4 0.89289,-0.312914 0.0568,-0.05539 0.12241,-0.201436 0.33901,-0.116417 0.11995,0.04516 0.34149,0.235656 0.58315,-0.140052 0.14287,0.09454 0.35912,0.0568 0.3937,-0.04798 0.0342,-0.104775 0.0744,-0.208846 0.0737,-0.279754 -2.7e-4,-0.07126 -0.007,-0.1651 -0.007,-0.1651 -0.005,-0.05644 -0.0243,-0.136877 -0.0561,-0.0508 m -8.98137,0.541514 c -0.0243,0.03598 -0.042,0.06491 -0.0519,0.07902 -0.0145,0.02151 -0.008,0.05609 0.0307,0.0095 0.0825,-0.09031 0.21695,-0.123825 0.23953,0.05009 0.002,0.03316 0.004,0.183444 -0.20461,0.427567 -0.0413,0.04727 -0.0981,0.119591 -0.0981,0.119591 -0.0462,0.05292 -0.0332,0.09701 0.0275,0.03352 0.0607,-0.0635 0.29245,-0.273404 0.39334,-0.588081 0.0233,-0.07303 0.0307,-0.230011 -0.0748,-0.275873 -0.0554,-0.02117 -0.14287,-0.0095 -0.26176,0.144639 m -1.92934,0.221544 c -0.0243,0.03563 -0.0423,0.06526 -0.0522,0.07902 -0.0145,0.02151 -0.008,0.05574 0.031,0.0095 0.0822,-0.09067 0.21661,-0.123825 0.23919,0.04974 0.002,0.03351 0.004,0.183443 -0.20461,0.427918 -0.0413,0.04692 -0.0981,0.11924 -0.0981,0.11924 -0.0459,0.05292 -0.0332,0.09737 0.0275,0.03387 0.0607,-0.06385 0.29246,-0.273402 0.39335,-0.588434 0.0233,-0.07267 0.0307,-0.23001 -0.0748,-0.275518 -0.0554,-0.02117 -0.14252,-0.0095 -0.26141,0.144637 m -4.4704,0.11289 c -0.0699,0.03492 -1.48943,0.578202 -1.56174,0.618773 -0.0727,0.03986 -0.0977,0.04974 -0.11219,0.10301 -0.0148,0.05257 -0.0226,0.08361 -0.0257,0.09243 -0.0152,0.03457 -0.0268,0.07832 0.0797,0.01799 0.0335,-0.01871 1.46649,-0.567971 1.52611,-0.602544 0.0596,-0.03387 0.0949,-0.04551 0.12171,-0.09984 0.0272,-0.05397 0.0335,-0.06385 0.0483,-0.1016 0.0159,-0.04022 0.0321,-0.0829 -0.0762,-0.02822 m 1.71803,0.155575 c -0.024,0.03598 -0.042,0.06562 -0.0519,0.07937 -0.0145,0.02117 -0.008,0.05609 0.0311,0.0092 0.0822,-0.09067 0.2166,-0.123473 0.23918,0.05009 0.001,0.03351 0.004,0.183444 -0.20461,0.427919 -0.0413,0.04763 -0.0981,0.119592 -0.0981,0.119592 -0.0462,0.05256 -0.0335,0.09701 0.0275,0.03316 0.0607,-0.0628 0.29246,-0.27305 0.39335,-0.588081 0.0233,-0.07302 0.0303,-0.229306 -0.0748,-0.275519 -0.0557,-0.02117 -0.14287,-0.0092 -0.26176,0.144286"
       style="fill:#231f20;fill-opacity:1;fill-rule:evenodd;stroke:none;stroke-width:0.264583"
       id="path1-7" />
  </g>
</svg>
