<?xml version="1.0" encoding="UTF-8" standalone="no"?>
<!-- Created with Inkscape (http://www.inkscape.org/) -->

<svg
   width="21.732855mm"
   height="6.1693711mm"
   viewBox="0 0 21.732855 6.1693711"
   version="1.1"
   id="svg1"
   xmlns:inkscape="http://www.inkscape.org/namespaces/inkscape"
   xmlns:sodipodi="http://sodipodi.sourceforge.net/DTD/sodipodi-0.dtd"
   xmlns="http://www.w3.org/2000/svg"
   xmlns:svg="http://www.w3.org/2000/svg">
  <sodipodi:namedview
     id="namedview1"
     pagecolor="#ffffff"
     bordercolor="#666666"
     borderopacity="1.0"
     inkscape:showpageshadow="2"
     inkscape:pageopacity="0.0"
     inkscape:pagecheckerboard="0"
     inkscape:deskcolor="#d1d1d1"
     inkscape:document-units="mm" />
  <defs
     id="defs1" />
  <g
     inkscape:label="Layer 1"
     inkscape:groupmode="layer"
     id="layer1"
     transform="translate(-116.86493,-45.115897)">
    <path
       d="m 127.20602,45.182755 c -0.16051,0.225425 -0.15769,0.511881 -0.16475,0.83185 -0.0275,-0.06562 -0.18485,-0.486482 -0.63394,-0.710142 -0.0321,-0.01622 -0.0953,0.02045 -0.0963,0.121357 -0.001,0.05927 -0.0106,0.202493 0.0328,0.240945 0.0434,0.03845 0.16863,0.11148 0.19015,0.121708 0.0208,0.01058 0.043,0.01093 0.0476,-0.0141 0.005,-0.02469 0.03,-0.08255 0.072,-0.0441 0.0346,0.03246 0.25859,0.200025 0.38911,0.571854 0.0219,0.04904 0.0681,0.05186 0.0755,-0.01976 0.0177,-0.175683 0.0166,-0.480131 0.0261,-0.572206 0.0131,-0.130175 0.0621,-0.399696 0.23213,-0.269169 0.0388,0.02963 0.0804,0.06914 0.0804,0.06914 0.0367,0.04233 0.0829,0.08996 0.1016,0.0381 0.0282,-0.07761 0.0483,-0.205317 0.01,-0.271992 -0.0169,-0.02963 -0.23213,-0.276225 -0.36195,-0.09349 m -2.06869,-0.01058 c -0.40604,0.109361 -2.27118,0.694974 -3.37185,1.467909 -0.0617,0.06456 -0.15945,0.137231 -0.20461,0.411691 -0.0106,0.109361 -0.0166,0.305152 0.0589,0.380646 0.0758,0.07585 1.30492,1.106313 1.70286,1.761421 0.0504,0.08431 0.0406,0.103362 0.006,0.142875 -0.0353,0.03951 -0.42474,0.392287 -0.84349,0.216958 -0.0875,-0.04833 -0.22119,-0.173214 -0.25224,-0.486481 0.0155,-0.09454 0.0441,-0.20814 -0.0677,-0.133702 -0.10477,0.06985 -0.55739,0.3429 -0.74471,0.409927 -0.0427,-0.09419 -0.10584,-0.194027 -0.19932,-0.289632 -0.22613,-0.215193 -0.42616,-0.33161 -0.64735,-0.06914 -0.22084,0.262115 -0.18803,0.686506 0.1337,0.793043 0.10266,0.02294 0.27623,0.03422 0.51435,-0.03351 0.0494,-0.01516 0.20779,-0.04763 0.13794,0.07373 -0.0702,0.121357 -0.6791,0.923573 -1.41147,1.002596 -0.0931,0.0099 -0.75565,0.0081 -0.63111,-0.674864 0.003,-0.07267 0.0395,-0.24624 0.0522,-0.326319 0.001,-0.0085 0.001,-0.01659 0.001,-0.024 0.21414,-0.103364 0.41664,-0.237418 0.53376,-0.399343 0.0367,-0.05116 0.16757,-0.317148 0.0723,-0.572207 -0.0385,-0.09983 -0.20638,-0.354541 -0.2406,-0.406048 -0.0339,-0.0508 -0.0593,-0.0575 -0.0744,-0.0042 -0.0148,0.05327 -0.0688,0.319971 -0.0688,0.319971 0.0554,0.07267 0.30057,0.381704 0.23707,0.445204 -0.0639,0.06421 -0.63853,0.550688 -1.99037,0.634296 -0.15134,0.0095 -0.85372,-0.0071 -0.8195,-0.568679 0.005,-0.08043 0.0586,-0.329494 0.14075,-0.483304 0.0127,0.0024 0.0251,0.0035 0.0385,0.0035 0.097,-0.0056 0.21801,-0.09349 0.2868,-0.449792 0.0113,-0.07973 0.0173,-0.144285 0.0219,-0.175683 0.007,-0.04833 -0.0268,-0.102659 -0.0522,0.0078 -0.0589,0.219075 -0.2346,0.379942 -0.38912,0.09913 -0.0254,-0.05539 -0.1337,-0.311856 0.005,-0.892175 0.0286,-0.112889 0.0624,-0.280458 0.0624,-0.280458 0.0314,-0.127 -0.0183,-0.192617 -0.0642,-0.03669 -0.0455,0.155575 -0.24271,0.694973 -0.17321,1.313747 0.0127,0.111828 0.0759,0.303387 0.19262,0.380293 -0.079,0.135819 -0.44768,0.788107 -0.0261,1.241425 0.0384,0.0441 0.40675,0.424744 1.81434,0.0088 0.12135,-0.03422 0.26246,-0.08325 0.40322,-0.144285 -0.004,0.01376 -0.008,0.02893 -0.0116,0.04586 -0.0413,0.198966 -0.26141,1.005064 0.24412,1.241073 0.0843,0.03916 0.77611,0.257881 1.77483,-0.803275 0.19156,-0.203907 0.22084,-0.566208 0.22084,-0.566208 0.001,-0.0254 2.6e-4,-0.06773 -0.006,-0.121709 0.14746,-0.06068 0.37535,-0.165452 0.59937,-0.34431 0.0437,0.137935 0.0758,0.753533 0.81738,0.666044 0.0804,-0.01516 0.62336,-0.131586 0.58103,-0.5969 -0.003,-0.07902 -0.0265,-0.314677 -0.13794,-0.545749 0.0557,0.02363 0.38559,0.267759 0.70591,0.673807 0.0709,0.09102 0.5722,0.784225 0.98813,0.798335 0.12629,0.0042 0.5461,0.04727 0.82338,-0.519287 0.0631,0.09913 0.20179,0.51082 0.83397,0.361595 0.11571,-0.03598 0.38029,-0.157337 0.66146,-0.352776 0.018,-0.0141 0.0578,-0.03845 0.11006,-0.06914 0.0145,0.01376 0.0289,0.02787 0.0441,0.04198 0.23813,0.190854 0.32597,0.339021 0.77717,0.305506 0.15275,-0.02294 0.48719,-0.08326 0.6537,-0.435681 0.0381,-0.08572 0.14358,-0.395462 0.10336,-0.781402 -0.0116,-0.1778 -0.45932,-2.737202 -0.45932,-2.737202 0,0 0.19685,0.18556 0.2286,0.219075 0.0317,0.03352 0.0706,0.01553 0.0522,-0.03845 -0.018,-0.05398 -0.42193,-1.030113 -0.43498,-1.063979 -0.013,-0.03387 -0.0261,-0.05856 -0.0423,-0.01976 -0.0166,0.03916 -0.12594,0.316087 -0.12594,0.316087 0.001,0.0088 0.0416,0.09631 0.0554,0.185209 0.11007,0.697796 0.54363,3.507316 0.55457,3.596923 0.0127,0.100893 0,0.159453 -0.084,0.226483 -0.084,0.06738 -0.49671,0.314677 -0.90558,0.11712 -0.049,-0.02822 -0.09,-0.05927 -0.13018,-0.09419 0.26458,-0.14746 0.56303,-0.314325 0.5842,-0.352425 0.0356,-0.06526 0.13617,-0.275167 0.0967,-0.312912 -0.0399,-0.0381 -1.0294,-0.434975 -1.84397,0.09031 -0.0275,0.02045 -0.0318,0.07937 -0.0381,0.10301 -0.006,0.02257 -0.0335,0.159457 -0.0399,0.194733 -0.006,0.03598 0.002,0.05715 0.0339,0.0381 0.0289,-0.01728 0.1845,-0.109712 0.33725,-0.05962 0.0804,0.03669 0.19085,0.110773 0.35878,0.256823 -0.0363,0.02188 -0.0663,0.04057 -0.0871,0.05292 -0.13864,0.08361 -0.94932,0.5461 -1.12995,-0.103013 -0.005,-0.09701 -0.006,-0.199671 -0.0758,-0.117475 -0.0691,0.08149 -0.36336,0.705908 -0.97649,0.554215 -0.1591,-0.03916 -0.36054,-0.142524 -0.92216,-0.840317 -0.10443,-0.129823 -0.95956,-0.915458 -1.35291,-1.16346 -0.12982,-0.100896 -0.90699,-0.676275 -0.95108,-0.712259 -0.0441,-0.03528 -0.145,-0.08185 -0.0314,-0.172156 0.41875,-0.299154 1.91382,-0.943679 2.1523,-1.050219 0.23777,-0.106185 0.86218,-0.335843 1.03857,-0.372181 0.17674,-0.03633 0.53234,-0.05609 0.36971,0.179213 -0.16227,0.235302 -0.76447,0.90452 -0.80927,0.971902 -0.0448,0.06738 -0.12876,0.232481 -0.1457,0.305152 -0.0166,0.07267 -0.0222,0.145343 0.0367,0.06703 0.0589,-0.07832 0.641,-0.767289 0.72214,-0.845961 0.0815,-0.07796 0.33055,-0.461433 0.36971,-0.655108 0.0395,-0.192969 0.0759,-0.53481 -0.3302,-0.425802 m 2.75026,3.9497 c 0,0 -0.16722,0.100542 -0.3429,0.206375 -0.073,-0.06491 -0.16475,-0.140406 -0.28999,-0.229306 -0.004,-0.0024 -0.0102,-0.0046 -0.0166,-0.0063 0.11677,-0.03352 0.46532,-0.07338 0.64947,0.02928 m -6.75217,0.277987 c 0,0 -0.0967,0.07056 -0.33549,0.03457 -0.23883,-0.03634 -0.15557,-0.153106 -0.11253,-0.196143 0.043,-0.04339 0.29845,-0.136525 0.44802,0.16157 m 8.24724,-4.22698 c -0.0166,0.03916 -0.11218,0.303387 -0.11218,0.303387 0.0257,0.17145 0.25259,2.01436 0.26775,2.13995 0.0152,0.125941 0.33444,2.210151 0.35067,2.786943 -0.004,0.05892 0.0215,0.08079 0.048,0.02434 0.0272,-0.0568 0.21308,-0.441325 -0.007,-1.851377 -0.0166,-0.117475 -0.35066,-2.500135 -0.35066,-2.500135 0,0 0.1972,0.185208 0.2286,0.218723 0.0321,0.03351 0.0702,0.01588 0.0522,-0.0381 -0.018,-0.05398 -0.42192,-1.030465 -0.43498,-1.064332 -0.013,-0.03387 -0.0261,-0.05891 -0.0423,-0.01939 m -1.38324,1.137002 c -0.0896,0.03598 -3.24132,1.380067 -3.33304,1.419225 -0.0917,0.0388 -0.11924,0.05644 -0.139,0.119237 -0.0194,0.0628 -0.0293,0.09596 -0.0342,0.109009 -0.0166,0.04269 -0.0392,0.08608 0.0949,0.0254 0.0416,-0.01871 3.21663,-1.362073 3.28965,-1.400527 0.073,-0.03845 0.11571,-0.05115 0.14993,-0.115358 0.0346,-0.0635 0.0427,-0.07479 0.0621,-0.119592 0.0201,-0.04763 0.0445,-0.09137 -0.0903,-0.03739 m -4.3702,0.459 c -0.0307,0.07514 -0.1584,0.332668 -0.13864,0.63641 0.004,0.07055 0.0508,0.207433 0.15663,0.21096 0.0547,0 0.12559,-0.03986 0.17568,-0.211667 0.009,-0.03881 0.0141,-0.06985 0.0177,-0.08537 0.006,-0.02328 -0.0116,-0.05045 -0.0296,0.0024 -0.0399,0.105479 -0.14394,0.179211 -0.2219,0.03775 -0.0124,-0.02822 -0.0649,-0.155927 0.0314,-0.435679 0.0198,-0.05398 0.0441,-0.135115 0.0441,-0.135115 0.0215,-0.06068 -0.004,-0.09454 -0.0353,-0.01976 m 3.98039,0.347485 c -0.0381,0.09984 -0.20215,0.445559 -0.1517,0.839259 0.0116,0.09102 0.0882,0.265287 0.23954,0.261408 0.078,-0.0046 0.17639,-0.06209 0.23495,-0.289632 0.01,-0.05115 0.0152,-0.09208 0.0187,-0.112183 0.006,-0.03069 -0.0201,-0.06526 -0.0416,0.0056 -0.0494,0.140054 -0.19226,0.244123 -0.31397,0.06703 -0.0198,-0.03563 -0.10442,-0.197908 0.0127,-0.569383 0.0236,-0.07232 0.0526,-0.179213 0.0526,-0.179213 0.0264,-0.08149 -0.0127,-0.122767 -0.0512,-0.02294 m -2.10996,1.041752 -0.19473,0.267406 c -0.006,0.0081 -0.005,0.02011 0.003,0.02611 l 0.33267,0.242359 c 0.008,0.006 0.0198,0.0039 0.0261,-0.0046 l 0.19473,-0.267406 c 0.006,-0.0085 0.005,-0.02045 -0.003,-0.02611 l -0.33303,-0.242713 c -0.008,-0.006 -0.019,-0.0039 -0.0257,0.0049 m -2.57034,-2.950985 c -0.0836,0.0381 -1.68134,0.804685 -1.76636,0.84596 -0.0804,0.03916 -0.10195,0.06103 -0.11395,0.118888 -0.012,0.05821 -0.0183,0.09172 -0.0215,0.101246 -0.0138,0.03881 -0.0233,0.07303 0.0875,0.01447 0.0367,-0.01939 1.66088,-0.789868 1.72897,-0.825851 0.0653,-0.03457 0.0991,-0.05574 0.12418,-0.116417 0.0257,-0.05997 0.0318,-0.07056 0.0452,-0.112538 0.0145,-0.04445 0.0349,-0.08008 -0.084,-0.02574 m 7.92409,0.167569 c -0.0699,0.106188 -0.12206,0.362304 -0.0222,0.435329 0.10019,0.07338 0.24659,0.132292 0.24659,0.132292 -0.46637,0.571145 -0.78493,0.680154 -1.05728,0.83961 -0.0702,0.04127 -0.0564,0.07796 -0.0148,0.06703 0.0208,-0.0056 0.38735,-0.06279 0.81562,-0.387702 0.23142,-0.176035 0.37183,-0.47625 0.37183,-0.47625 0,0 0.11571,0.09666 0.13123,0.116065 0.0353,0.04374 0.0543,0.07585 0.0709,0.02999 0.061,-0.168981 -0.0251,-0.270933 -0.1076,-0.323143 0,0 0.0857,-0.263174 -0.0716,-0.527405 -0.0257,-0.04409 -0.18168,-0.18556 -0.36266,0.09419 m 0.24342,0.07232 c 0.10513,0.09772 0.0889,0.258233 0.0847,0.294568 0,0 -0.13371,-0.06279 -0.19368,-0.08855 -0.0596,-0.02574 -0.0914,-0.0635 -0.0639,-0.1016 0.0924,-0.12982 0.13829,-0.125587 0.17286,-0.10442 m 6.27874,0.02294 c -0.0699,0.106892 -0.12206,0.362657 -0.0219,0.43533 0.0998,0.07373 0.24624,0.132995 0.24624,0.132995 -0.46567,0.570796 -1.38078,0.976842 -1.59809,1.146527 -0.0649,0.04904 -0.0568,0.07832 -0.0152,0.06703 0.036,-0.0099 0.73308,-0.204613 1.37019,-0.750711 0.2921,-0.249766 0.28399,-0.268464 0.35807,-0.420512 0.0635,0.03246 0.10725,0.08537 0.13194,0.116064 0.0353,0.0441 0.054,0.07585 0.0706,0.02999 0.061,-0.168979 -0.0251,-0.270579 -0.10725,-0.323144 0,0 0.0857,-0.263525 -0.0716,-0.527402 -0.0265,-0.04445 -0.18203,-0.185563 -0.36301,0.09384 m 0.24377,0.07267 c 0.10478,0.09772 0.0889,0.257882 0.085,0.294569 0,0 -0.13441,-0.06279 -0.19438,-0.08819 -0.0596,-0.02611 -0.0914,-0.06421 -0.0635,-0.1016 0.0921,-0.130527 0.13758,-0.125941 0.17286,-0.104775 m -17.46003,-0.178506 c -0.0339,0.08925 -0.17992,0.397933 -0.13511,0.749654 0.0102,0.08114 0.0783,0.236713 0.21378,0.233186 0.0695,-0.0042 0.15699,-0.05503 0.2099,-0.258234 0.008,-0.04586 0.0134,-0.08255 0.0169,-0.100541 0.005,-0.02717 -0.0183,-0.05821 -0.0377,0.0049 -0.0441,0.125236 -0.17145,0.218017 -0.28011,0.05962 -0.018,-0.03104 -0.0931,-0.176035 0.0109,-0.508 0.0215,-0.06456 0.0473,-0.159808 0.0473,-0.159808 0.024,-0.07303 -0.0113,-0.109715 -0.0459,-0.02082 m 15.6711,0.01304 c -0.18274,0.232833 -0.19474,0.538692 -0.21873,0.879827 -0.0257,-0.07162 -0.1718,-0.528815 -0.63958,-0.790927 -0.0339,-0.01871 -0.10266,0.01728 -0.10936,0.124529 -0.004,0.06315 -0.0215,0.215548 0.0226,0.258939 0.0441,0.04304 0.17463,0.128059 0.19615,0.1397 0.0226,0.01199 0.0459,0.01376 0.0526,-0.01236 0.006,-0.02646 0.0363,-0.08678 0.0787,-0.04339 0.0356,0.03634 0.266,0.226483 0.38559,0.630414 0.0208,0.05327 0.0702,0.05856 0.0815,-0.01728 0.0282,-0.186621 0.043,-0.511175 0.0579,-0.6096 0.0208,-0.137938 0.0868,-0.423333 0.26211,-0.275166 0.0395,0.03351 0.0815,0.07796 0.0815,0.07796 0.0377,0.04692 0.084,0.100189 0.10689,0.04621 0.0346,-0.08114 0.0621,-0.216958 0.0243,-0.289983 -0.0169,-0.03246 -0.23389,-0.307268 -0.38205,-0.118885 m -1.79988,-0.01058 c -0.0677,0.03916 -1.78787,1.031875 -1.85737,1.076676 -0.0695,0.0448 -0.0945,0.0568 -0.10548,0.110067 -0.0113,0.05397 -0.0169,0.08537 -0.0198,0.09384 -0.013,0.03598 -0.0219,0.08043 0.0808,0.01341 0.0321,-0.02117 1.76212,-1.020585 1.8228,-1.058333 0.0582,-0.03634 0.0917,-0.05221 0.11501,-0.10795 0.0236,-0.05574 0.0293,-0.06562 0.0416,-0.104421 0.0134,-0.04092 0.0268,-0.08502 -0.0776,-0.02328 m -15.15603,0.0508 c -0.16969,0.240594 -0.16793,0.546452 -0.17675,0.888294 -0.0286,-0.0702 -0.19261,-0.5207 -0.66428,-0.762352 -0.0342,-0.01728 -0.10054,0.02188 -0.10266,0.129468 -7.9e-4,0.06315 -0.0116,0.2159 0.0339,0.257175 0.0455,0.04127 0.1778,0.120298 0.19967,0.131234 0.0222,0.0113 0.0455,0.01198 0.0508,-0.01482 0.005,-0.02646 0.0317,-0.08819 0.0755,-0.04657 0.0314,0.02999 0.28681,0.23495 0.375,0.527402 0.0737,0.254707 -0.53552,0.80151 -0.56762,0.826559 -0.0575,0.0448 -0.037,0.07161 -0.0102,0.05574 0.0268,-0.01622 0.0543,-0.02151 0.36901,-0.250121 0.254,-0.184147 0.29986,-0.386289 0.31573,-0.540806 0.002,-0.0074 0.004,-0.01588 0.005,-0.02646 0.019,-0.187325 0.0194,-0.512233 0.0296,-0.611717 0.0145,-0.138641 0.067,-0.426508 0.24589,-0.286104 0.0406,0.0321 0.084,0.07444 0.084,0.07444 0.0388,0.04551 0.0871,0.09666 0.10724,0.04163 0.03,-0.08255 0.0511,-0.219427 0.0109,-0.29069 -0.018,-0.03175 -0.24377,-0.296685 -0.381,-0.102304 m 1.88066,1.35396 c -0.066,0.10019 -0.11466,0.340784 -0.0212,0.408869 0.0942,0.06914 0.23177,0.124531 0.23177,0.124531 -0.43779,0.536575 -0.73695,0.638527 -0.99307,0.788459 -0.0656,0.0388 -0.0522,0.07303 -0.0141,0.06279 0.0201,-0.0053 0.36442,-0.05891 0.76623,-0.364066 0.21731,-0.165452 0.3489,-0.447324 0.3489,-0.447324 0,0 0.10901,0.09067 0.12383,0.109363 0.0328,0.04092 0.0508,0.07126 0.0663,0.02822 0.0571,-0.159102 -0.0236,-0.254704 -0.1009,-0.304094 0,0 0.0804,-0.247295 -0.067,-0.494945 -0.0251,-0.04163 -0.1711,-0.174273 -0.34079,0.08819 m 0.2286,0.06809 c 0.0984,0.09172 0.0836,0.242358 0.0797,0.276931 0,0 -0.12594,-0.05927 -0.18238,-0.08361 -0.0561,-0.02363 -0.0857,-0.05962 -0.0596,-0.09525 0.0864,-0.122061 0.12948,-0.117827 0.16228,-0.09807 m -1.6203,-0.148519 c -0.0339,0.0889 -0.17992,0.397579 -0.13512,0.749652 0.0102,0.08078 0.0787,0.23636 0.21343,0.233185 0.0699,-0.0042 0.15734,-0.05539 0.2099,-0.258937 0.008,-0.04586 0.0134,-0.0822 0.0173,-0.10019 0.005,-0.02716 -0.0187,-0.05821 -0.0377,0.0049 -0.0441,0.125235 -0.17145,0.218017 -0.28011,0.05997 -0.0177,-0.03175 -0.0931,-0.176741 0.0113,-0.508351 0.0208,-0.0642 0.0469,-0.160161 0.0469,-0.160161 0.0236,-0.07232 -0.0117,-0.109008 -0.0459,-0.02011 m 14.99728,0.03005 c -0.0342,0.08431 -0.17886,0.375002 -0.15664,0.71755 0.005,0.07902 0.0575,0.233185 0.1771,0.237419 0.0617,0 0.14111,-0.0448 0.1972,-0.238477 0.0102,-0.0441 0.0162,-0.07902 0.0204,-0.09631 0.006,-0.02611 -0.0134,-0.05715 -0.0335,0.0028 -0.0452,0.118886 -0.16228,0.201436 -0.24977,0.04233 -0.0141,-0.0314 -0.0734,-0.175332 0.0353,-0.490715 0.0219,-0.06138 0.0494,-0.1524 0.0494,-0.1524 0.0243,-0.06879 -0.005,-0.106537 -0.0395,-0.02223 m 3.30729,0.173215 c -0.0318,0.07832 -0.16545,0.347133 -0.14464,0.664278 0.005,0.07338 0.0529,0.2159 0.16334,0.219782 0.0572,-2.65e-4 0.13088,-0.04127 0.18309,-0.220485 0.009,-0.04092 0.0148,-0.07303 0.0187,-0.0889 0.006,-0.02469 -0.0124,-0.05327 -0.031,0.0021 -0.0416,0.109712 -0.14957,0.186619 -0.23142,0.03951 -0.013,-0.02928 -0.0677,-0.162984 0.0328,-0.454732 0.0201,-0.05644 0.0459,-0.140756 0.0459,-0.140756 0.0226,-0.06385 -0.005,-0.09842 -0.0367,-0.02082 m -6.72324,0.0085 -0.19508,0.267404 c -0.006,0.0085 -0.005,0.02011 0.004,0.02611 l 0.33267,0.24271 c 0.008,0.006 0.0194,0.0039 0.0257,-0.0049 l 0.16828,-0.230717 0.32314,0.235654 c 0.008,0.006 0.0194,0.0039 0.0257,-0.0049 l 0.19474,-0.267406 c 0.006,-0.0085 0.005,-0.02011 -0.003,-0.02574 l -0.33267,-0.243065 c -0.008,-0.0056 -0.0198,-0.0035 -0.0261,0.0049 l -0.16828,0.230717 -0.32279,-0.235657 c -0.008,-0.0056 -0.0198,-0.0035 -0.0257,0.0049 m -12.80831,1.329267 -0.19473,0.267758 c -0.006,0.0081 -0.005,0.01976 0.003,0.02574 l 0.33267,0.242358 c 0.008,0.0063 0.0201,0.0039 0.0261,-0.0042 l 0.16828,-0.231069 0.32279,0.235302 c 0.008,0.0063 0.0198,0.0039 0.0257,-0.0042 l 0.19509,-0.267407 c 0.006,-0.0088 0.005,-0.02011 -0.004,-0.02611 l -0.33232,-0.243065 c -0.008,-0.0056 -0.0198,-0.0035 -0.0261,0.0049 l -0.16828,0.230717 -0.32314,-0.235657 c -0.008,-0.0056 -0.0194,-0.0035 -0.0258,0.0049 m 14.62864,-0.913342 c -0.013,0.04515 -0.0459,0.239887 -0.0536,0.280104 -0.008,0.03986 -0.007,0.07973 0.0127,0.1143 0.0194,0.03387 0.0705,0.1524 0.10689,0.249063 0.0363,0.09595 0.41416,0.823735 0.44909,0.888294 0.0349,0.06421 0.0423,0.112535 0.007,0.155223 -1.21215,1.279877 -3.55283,2.066218 -3.62761,2.109962 -0.0748,0.04339 -0.0547,0.07691 0.0709,0.05503 0.18839,-0.03281 1.23966,-0.208492 1.53917,-0.352777 0.19791,-0.0956 0.88794,-0.434268 1.45274,-0.877006 -0.0159,0.1143 -0.0303,0.282223 -0.0226,0.495654 0.0385,1.029052 0.9585,0.857954 1.20015,0.805037 0.7232,-0.15875 1.60831,-1.158875 1.68346,-1.36031 0.0744,-0.19826 0.085,-0.379235 0.0684,-0.537633 0.1905,-0.102658 0.60007,-0.432858 0.60007,-0.432858 0.0166,0.438856 0.36618,0.570793 0.47343,0.589491 0.50341,0.07655 0.756,-0.34431 0.86325,-0.480835 0.091,0.240594 0.31185,0.28716 0.42545,0.309737 0.43426,0.08643 0.51893,-0.220837 0.54151,-0.290687 0.13653,-0.423688 -0.10936,-0.739423 -0.14111,-0.7747 -0.0314,-0.03493 -0.0473,-0.0013 -0.0586,0.03916 -0.0109,0.04092 -0.0459,0.193321 -0.0681,0.288925 0,0 0.091,0.147812 0.12347,0.223309 0.0321,0.07549 -0.0159,0.116768 -0.10936,0.127703 -0.26423,0.03281 -0.47519,-0.118885 -0.54786,-0.188735 -0.0727,-0.0695 0.006,-0.193323 0.0649,-0.340783 0.0469,-0.118182 -0.0402,-0.132644 -0.10725,-2.65e-4 -0.22401,0.588434 -0.53833,0.652286 -0.62124,0.674862 -0.74647,0.2032 -0.68156,-0.478718 -0.67909,-0.590195 0.003,-0.112183 -0.079,-0.07091 -0.1711,0.0028 -0.31397,0.251883 -0.56692,0.400405 -0.70273,0.461081 -0.11713,-0.228951 -0.28716,-0.372885 -0.35878,-0.424743 -0.80751,-0.588788 -0.87453,0.599017 -0.85019,0.72672 0.12312,0.50518 0.94826,0.198615 1.07738,0.183447 0.12912,-0.01516 0.0871,0.155575 0.0145,0.257175 -0.17921,0.25047 -0.38558,0.429683 -0.57255,0.582435 -0.79975,0.65264 -1.20121,0.600781 -1.32468,0.596548 -0.78529,-0.02188 -0.71332,-0.86854 -0.66958,-1.049163 0.23636,-0.200377 0.43921,-0.417687 0.55739,-0.641702 0.048,-0.122415 0.13088,-0.40146 -0.0191,-0.751417 -0.0787,-0.154164 -0.32632,-0.586316 -0.32632,-0.586316 0,0 0.18239,0.0056 0.20003,0.0056 0.0173,-2.64e-4 0.0511,-0.01871 0.007,-0.0695 -0.0441,-0.05115 -0.42721,-0.433565 -0.4505,-0.464256 -0.0233,-0.03069 -0.0441,-0.05292 -0.0572,-0.0078 m 2.42218,1.7526 c 0,0 -0.11007,0.06279 -0.41769,0.04268 -0.25753,-0.01728 -0.23566,-0.117475 -0.20003,-0.156281 0.0381,-0.04127 0.35384,-0.239887 0.61772,0.113596 m -3.31647,-1.424516 c -0.0536,0.06632 -0.58984,0.76976 -0.58984,0.76976 l -0.39017,-0.27799 c 0,0 0.1591,-0.03986 0.18697,-0.04798 0.0279,-0.0081 0.0437,-0.04445 -0.006,-0.06985 -0.0501,-0.02574 -0.52035,-0.213077 -0.55598,-0.227542 -0.036,-0.01447 -0.049,-0.03069 -0.0522,0.0074 -0.003,0.0381 -0.008,0.347485 -0.008,0.347485 0,0 -0.007,0.02188 0.0342,0.04516 0.0409,0.02328 0.0811,0.07303 0.11465,0.10654 0.0339,0.03351 0.47132,0.378529 0.49213,0.391229 0,0 -0.21872,0.384175 -0.24659,0.685096 -0.0275,0.300919 0.006,0.716137 0.41698,0.582435 0.11042,-0.03175 0.5715,-0.214841 0.67451,-0.536223 0.0335,-0.117827 0.12806,-0.332316 -0.0261,-0.54892 -0.0893,-0.127355 -0.44909,-0.342548 -0.44909,-0.342548 0,0 0.27587,-0.382059 0.30268,-0.428625 0.0265,-0.04657 0.12771,-0.342548 0.139,-0.414515 0.0109,-0.07161 0.0169,-0.107244 -0.0363,-0.04092 m -0.0945,1.622425 c -0.15311,0.125941 -0.47414,0.2921 -0.56445,0.300918 -0.0899,0.0085 -0.32914,-0.03563 -0.22507,-0.28081 0.0353,-0.07937 0.27482,-0.48895 0.27482,-0.48895 0.0892,0.04939 0.66745,0.343604 0.5147,0.468842 m 6.23041,0.562326 c -0.031,0.08608 -0.043,0.142524 -0.0399,0.175684 0.004,0.03281 0.0148,0.138993 0.0148,0.138993 -0.0321,0.02611 -0.16898,0.111125 -0.30551,0.01093 0.009,-0.02963 0.0268,-0.0889 0.031,-0.121709 0.0145,-0.05045 -0.0166,-0.0882 -0.0416,-0.03598 -0.0247,0.05256 -0.0829,0.2286 -0.12594,0.267758 -0.043,0.03951 -0.0935,0.184854 -0.41946,0.03704 -0.0571,-0.02188 -0.15698,-0.09596 -0.31256,0.06068 -0.35277,0.327731 -0.59619,0.353483 -0.99165,0.49389 -0.048,0.02188 -0.14817,0.09701 -0.0289,0.08537 0.11924,-0.01199 0.62018,2.65e-4 0.89288,-0.313267 0.0572,-0.05503 0.12241,-0.201083 0.33902,-0.116416 0.11994,0.04551 0.34149,0.235656 0.58349,-0.140052 0.14253,0.0949 0.35878,0.0568 0.39335,-0.04798 0.0349,-0.104423 0.0744,-0.208492 0.0741,-0.2794 -7.9e-4,-0.07126 -0.007,-0.1651 -0.007,-0.1651 -0.005,-0.05645 -0.0247,-0.13688 -0.0564,-0.05045 m -8.91117,0.323498 c -0.0243,0.0314 -0.0427,0.0575 -0.0522,0.0695 -0.0152,0.01905 -0.0113,0.05116 0.0275,0.01024 0.0811,-0.07761 0.20637,-0.10019 0.2166,0.06068 -7.9e-4,0.03069 -0.007,0.168981 -0.21414,0.380296 -0.0406,0.04128 -0.0974,0.103717 -0.0974,0.103717 -0.0455,0.04586 -0.0367,0.08713 0.0233,0.03281 0.0593,-0.05468 0.2854,-0.232833 0.39723,-0.516115 0.0257,-0.06562 0.0423,-0.208843 -0.0519,-0.257881 -0.0494,-0.02294 -0.13053,-0.01728 -0.24906,0.116771 m -1.9177,0.241652 c -0.0243,0.0314 -0.0427,0.0575 -0.0526,0.0695 -0.0148,0.01834 -0.0109,0.05115 0.0279,0.01058 0.0811,-0.07832 0.20672,-0.100541 0.2166,0.06068 -7.9e-4,0.03069 -0.008,0.168275 -0.21449,0.380294 -0.0406,0.04092 -0.0974,0.103364 -0.0974,0.103364 -0.0455,0.04622 -0.036,0.08749 0.0233,0.03316 0.0596,-0.05503 0.2854,-0.233537 0.39723,-0.516467 0.0264,-0.06562 0.0427,-0.209195 -0.0515,-0.257879 -0.0497,-0.02294 -0.13053,-0.01728 -0.24906,0.116769 m -8.42363,-0.08855 c -0.0836,0.0381 -1.02411,0.521054 -1.10948,0.562329 -0.0808,0.03916 -0.10231,0.06103 -0.1143,0.119237 -0.012,0.05786 -0.018,0.09137 -0.0212,0.100542 -0.0138,0.03916 -0.0233,0.07338 0.0875,0.01482 0.0367,-0.01939 1.00436,-0.505884 1.07209,-0.542219 0.0653,-0.03457 0.0991,-0.05574 0.12453,-0.116417 0.0254,-0.05997 0.0318,-0.07056 0.0452,-0.112535 0.0141,-0.04445 0.0346,-0.08008 -0.0843,-0.02574 m 4.82953,0.103365 c -0.0243,0.03175 -0.0427,0.0575 -0.0522,0.06985 -0.0148,0.01834 -0.0113,0.0508 0.0275,0.01024 0.0811,-0.07832 0.20672,-0.100189 0.2166,0.06068 -7.9e-4,0.03069 -0.007,0.168627 -0.21378,0.380648 -0.0409,0.04057 -0.0974,0.103717 -0.0974,0.103717 -0.0459,0.04586 -0.0367,0.08678 0.0229,0.03245 0.0596,-0.05503 0.2854,-0.233185 0.39758,-0.516112 0.0257,-0.06562 0.042,-0.20955 -0.0522,-0.257882 -0.0494,-0.02294 -0.13017,-0.01728 -0.24906,0.116417 m -1.42099,0.09243 -0.19508,0.267054 c -0.006,0.0088 -0.004,0.02045 0.004,0.02611 l 0.33267,0.243065 c 0.008,0.0053 0.0198,0.0032 0.0261,-0.0049 l 0.19473,-0.267759 c 0.006,-0.0081 0.005,-0.01976 -0.003,-0.02574 l -0.33303,-0.242711 c -0.008,-0.006 -0.0194,-0.0035 -0.0257,0.0049"
       style="fill:#231f20;fill-opacity:1;fill-rule:evenodd;stroke:none;stroke-width:0.264583"
       id="path1-22" />
  </g>
</svg>
