<?xml version="1.0" encoding="UTF-8" standalone="no"?>
<!-- Created with Inkscape (http://www.inkscape.org/) -->

<svg
   width="21.407591mm"
   height="7.3670087mm"
   viewBox="0 0 21.407591 7.3670087"
   version="1.1"
   id="svg1"
   inkscape:export-filename="Fatihah.svg"
   inkscape:export-xdpi="96"
   inkscape:export-ydpi="96"
   xmlns:inkscape="http://www.inkscape.org/namespaces/inkscape"
   xmlns:sodipodi="http://sodipodi.sourceforge.net/DTD/sodipodi-0.dtd"
   xmlns="http://www.w3.org/2000/svg"
   xmlns:svg="http://www.w3.org/2000/svg">
  <sodipodi:namedview
     id="namedview1"
     pagecolor="#ffffff"
     bordercolor="#666666"
     borderopacity="1.0"
     inkscape:showpageshadow="2"
     inkscape:pageopacity="0.0"
     inkscape:pagecheckerboard="0"
     inkscape:deskcolor="#d1d1d1"
     inkscape:document-units="mm" />
  <defs
     id="defs1" />
  <g
     inkscape:label="Layer 1"
     inkscape:groupmode="layer"
     id="layer1"
     transform="translate(-153.36724,-95.705083)">
    <path
       d="m 166.34248,95.709881 c -0.11853,0.06738 -0.75106,0.423332 -1.39488,0.25788 -0.0699,-0.01834 -0.0956,-0.02752 -0.11889,0.0074 -0.0233,0.03457 -0.0582,0.194734 -0.0582,0.194734 0.0441,0.06068 0.17462,0.167568 0.1979,0.333023 0,0.03669 0.0187,0.01622 0.037,-0.01659 0.0187,-0.03246 0.0536,-0.137231 0.0466,-0.227893 0.26952,0.03739 0.70203,0.0071 1.10455,-0.23495 0.079,-0.0441 0.1277,-0.08572 0.10689,0.0049 -0.0208,0.09066 -0.049,0.216254 -0.0628,0.269523 -0.0138,0.05362 0,0.08361 0.0162,0.05362 0.0162,-0.02999 0.24413,-0.709437 0.12559,-0.641703 m 0.68969,1.073503 c -0.0702,0.106185 -0.12242,0.362654 -0.0226,0.435679 0.10019,0.07338 0.24624,0.132291 0.24624,0.132291 -0.46567,0.571148 -0.78423,0.679805 -1.05693,0.839259 -0.0699,0.04127 -0.0561,0.07832 -0.0152,0.06703 0.0215,-0.0056 0.38806,-0.0628 0.81598,-0.387704 0.23177,-0.175684 0.37182,-0.47625 0.37182,-0.47625 0,0 0.11607,0.09666 0.13159,0.116416 0.0349,0.04339 0.0543,0.07585 0.0709,0.02963 0.061,-0.168627 -0.0254,-0.270579 -0.1076,-0.323144 0,0 0.0857,-0.263173 -0.0716,-0.527402 -0.0261,-0.0441 -0.18204,-0.185563 -0.36266,0.09419 m 0.24342,0.07267 c 0.10513,0.09772 0.0889,0.257882 0.0847,0.294571 0,0 -0.13406,-0.06315 -0.19403,-0.0889 -0.06,-0.02574 -0.091,-0.0635 -0.0635,-0.1016 0.0921,-0.129823 0.13794,-0.125237 0.17286,-0.104071 m -1.7085,-0.210608 c -0.0166,0.03916 -0.11219,0.303038 -0.11219,0.303038 0.0257,0.17145 0.2533,2.01436 0.26812,2.13995 0.0152,0.125941 0.33407,2.210507 0.35101,2.787297 -0.005,0.0589 0.0208,0.0808 0.0476,0.024 0.0272,-0.0564 0.21308,-0.44097 -0.007,-1.85103 -0.0162,-0.117474 -0.35066,-2.500134 -0.35066,-2.500134 0,0 0.19721,0.185208 0.2286,0.21872 0.0321,0.03316 0.0702,0.01587 0.0526,-0.0381 -0.0183,-0.05433 -0.42263,-1.030817 -0.43533,-1.064329 -0.013,-0.03387 -0.0257,-0.05856 -0.0423,-0.01939 m -8.45185,0 c -0.0162,0.03916 -0.11183,0.303038 -0.11183,0.303038 0.0254,0.17145 0.22013,1.537404 0.23495,1.663346 0.0152,0.125589 0.33443,2.210159 0.35101,2.786949 -0.005,0.0586 0.0212,0.0808 0.0483,0.024 0.0268,-0.0564 0.16122,-0.37958 -0.0162,-1.832322 -0.0145,-0.117475 -0.30974,-2.041877 -0.30974,-2.041877 0,0 0.19685,0.185208 0.2286,0.21872 0.0318,0.03316 0.0702,0.01587 0.0526,-0.0381 -0.0187,-0.05433 -0.42228,-1.030816 -0.43533,-1.064328 -0.013,-0.03387 -0.0261,-0.05856 -0.0423,-0.01939 m 7.34236,0.02117 c -0.0166,0.03881 -0.11254,0.30339 -0.11254,0.30339 0.0169,0.1143 0.26635,1.92899 0.44662,3.073757 0.0649,0.41169 0.15099,1.0354 0.10195,1.13312 -0.049,0.0977 -1.12254,1.0982 -2.05457,1.02694 -0.16334,-0.0124 -1.06363,-0.21167 -0.73343,-1.15747 0.0572,-0.0815 1.49578,-0.68086 1.53247,-0.70132 0.0367,-0.0201 0.11006,-0.25259 0.15063,-0.32985 0.0409,-0.07761 0.0124,-0.09383 -0.0691,-0.05715 -0.0815,0.03669 -1.14935,0.53023 -1.27565,0.53376 -0.12664,0.005 -0.95391,-0.0201 -1.32503,-0.908762 -0.0325,-0.101952 -0.008,-0.153106 0.0642,-0.194381 0.0727,-0.04092 1.05339,-0.623711 1.8482,-0.288925 0.0529,0.02646 0.13723,-0.0074 0.0385,-0.09419 -0.0988,-0.08643 -0.55139,-0.332317 -1.21391,-0.27446 -0.11359,0.01939 -0.71578,0.08431 -0.86995,0.720373 -0.0388,0.178504 -0.20708,0.783165 0.73237,1.356425 0,0 -1.137,0.57574 -2.12019,-0.22401 -0.0529,-0.0459 -0.0734,-0.13829 -0.10831,-0.0621 -0.0349,0.0765 -0.0691,0.14429 -0.0691,0.14429 -0.23777,0.0335 -0.75883,0.0127 -1.7586,1.004 -0.18097,0.18486 -0.72778,0.80257 -1.15111,0.73943 -0.17286,-0.0261 -0.57962,-0.1009 -0.30233,-0.9077 0.005,-0.0187 0.007,-0.0349 0.008,-0.0494 0.22613,-0.17992 0.51188,-0.44768 0.5969,-0.62653 0.0529,-0.14288 0.11747,-0.46814 -0.009,-0.74225 -0.0529,-0.106538 -0.27799,-0.519992 -0.27799,-0.519992 0,0 0.14746,0.02611 0.17992,0.03281 0.0325,0.006 0.0455,-0.02822 0.007,-0.07161 -0.0392,-0.04339 -0.37959,-0.357365 -0.39476,-0.389819 -0.0152,-0.03281 -0.037,-0.105481 -0.0589,-0.05609 -0.0219,0.05009 -0.0882,0.344663 -0.0882,0.344663 0.0621,0.135466 0.45085,0.885478 0.50306,0.984248 0.0526,0.0984 0.097,0.15205 -0.0346,0.27517 -0.13194,0.12312 -0.93134,0.86431 -1.8094,1.02482 -0.19297,0.0356 -0.91828,0.12629 -1.20968,-0.45649 -0.0522,-0.11289 -0.20426,-0.48719 0.042,-1.11055 0.006,8e-4 0.0109,0.001 0.0166,0.001 0.10055,-0.005 0.22719,-0.0822 0.30657,-0.401106 0.013,-0.07197 0.0208,-0.129468 0.0265,-0.157691 0.008,-0.04304 -0.0254,-0.09243 -0.0543,0.0067 -0.0656,0.195792 -0.25047,0.338667 -0.40393,0.08537 -0.0251,-0.05045 -0.13088,-0.281162 0.0254,-0.801158 0.0317,-0.100894 0.0705,-0.250825 0.0705,-0.250825 0.0353,-0.113946 -0.0148,-0.173212 -0.0656,-0.03387 -0.0504,0.1397 -0.26635,0.621948 -0.20814,1.177573 0.0106,0.101248 0.0723,0.275877 0.19261,0.345017 -10e-4,0.004 -0.003,0.007 -0.004,0.0102 -0.0727,0.19896 -0.50235,1.385 0.34149,1.87395 0.14217,0.0822 0.75071,0.43639 2.0641,-0.36971 0.0265,-0.0145 0.0628,-0.0378 0.10478,-0.0674 -0.066,0.22507 -0.23248,1.03858 0.45685,1.16946 0.16686,0.0318 0.60889,0.0522 1.27705,-0.75212 0.10054,-0.12136 0.96203,-0.88195 1.42805,-0.86537 0.0797,0.004 0.14746,-0.0441 0.20143,0.15381 0.0543,0.19791 0.16475,0.53728 0.61877,0.61207 0.0519,0.002 0.1644,0.0187 0.16898,-0.20002 0.006,-0.16193 -0.0233,-0.2914 -0.0233,-0.2914 0.078,0.007 0.71649,0.1457 1.72473,-0.25364 0,0 -0.32561,1.12606 0.5147,1.42875 0.13018,0.0416 1.10526,0.3683 2.33998,-0.84455 0.1397,-0.13759 0.26458,-0.34855 0.30656,-0.76871 0.0205,-0.36547 -0.0289,-0.69285 -0.0289,-0.69285 -0.12629,-0.82797 -0.40675,-2.684639 -0.40675,-2.684991 0,0 0.19756,0.185208 0.22931,0.219075 0.0314,0.03316 0.0699,0.01553 0.0519,-0.03845 -0.018,-0.05362 -0.42193,-1.030463 -0.43498,-1.064329 -0.013,-0.03351 -0.0257,-0.05856 -0.042,-0.01939 m 9.09673,0.212373 c -0.0702,0.10654 -0.12242,0.362302 -0.0222,0.435327 0.10019,0.07373 0.24624,0.132646 0.24624,0.132646 -0.46567,0.571145 -1.38042,0.976842 -1.59808,1.146879 -0.0649,0.04904 -0.0565,0.07797 -0.0152,0.06668 0.0363,-0.0095 0.73342,-0.20461 1.37018,-0.750359 0.2921,-0.250118 0.28434,-0.268816 0.35843,-0.420862 0.0631,0.03245 0.10689,0.08537 0.13158,0.116417 0.0349,0.04374 0.0543,0.07585 0.0713,0.02998 0.0607,-0.169333 -0.0254,-0.270933 -0.10795,-0.323498 0,0 0.0854,-0.263525 -0.0713,-0.527402 -0.0265,-0.0441 -0.18203,-0.185208 -0.36301,0.09419 m 0.24342,0.07267 c 0.10478,0.09737 0.0889,0.257527 0.0847,0.294217 0,0 -0.1337,-0.0628 -0.19368,-0.0882 -0.06,-0.02574 -0.0914,-0.06385 -0.0639,-0.1016 0.0928,-0.130175 0.13794,-0.125588 0.17286,-0.104421 m -11.81382,-0.167923 c -0.18344,0.232481 -0.19473,0.53834 -0.21907,0.879475 -0.0258,-0.07126 -0.17181,-0.528815 -0.63959,-0.790575 -0.0339,-0.01939 -0.10301,0.01659 -0.10936,0.124531 -0.004,0.06315 -0.0219,0.215194 0.0222,0.258586 0.0349,0.03387 0.12312,0.09348 0.16969,0.123473 -0.0318,0.102658 -0.16157,0.353128 -1.00471,0.860425 -0.0384,0.02822 -0.073,0.08396 0,0.05962 0.0734,-0.02469 0.51999,-0.143227 0.75706,-0.36971 0.14993,-0.150283 0.30515,-0.426863 0.32667,-0.546806 0.007,-0.02574 0.0367,-0.08643 0.079,-0.04304 0.0356,0.03598 0.266,0.226483 0.38559,0.630415 0.0205,0.05362 0.0702,0.05856 0.0819,-0.01693 0.0275,-0.186973 0.0427,-0.511527 0.0572,-0.609952 0.0212,-0.138289 0.0871,-0.423333 0.26211,-0.275166 0.0399,0.03387 0.0822,0.07796 0.0822,0.07796 0.037,0.04692 0.0836,0.10019 0.10653,0.04622 0.0342,-0.08149 0.0621,-0.216959 0.0243,-0.289984 -0.0166,-0.03246 -0.23353,-0.306916 -0.3817,-0.118533 m 10.02559,0.0021 c -0.18344,0.232833 -0.19509,0.538691 -0.21943,0.879826 -0.0254,-0.07126 -0.1718,-0.52846 -0.63958,-0.790574 -0.0335,-0.01905 -0.10266,0.01693 -0.10901,0.124531 -0.004,0.06279 -0.0222,0.215194 0.0219,0.258585 0.0448,0.04339 0.17498,0.128059 0.19685,0.140055 0.0219,0.01198 0.0459,0.01341 0.0522,-0.0127 0.007,-0.02611 0.0363,-0.08678 0.079,-0.04339 0.0353,0.03634 0.26565,0.226835 0.38559,0.630412 0.0204,0.05397 0.0702,0.05891 0.0815,-0.01728 0.0275,-0.186619 0.0427,-0.510823 0.0575,-0.609248 0.0208,-0.138287 0.0868,-0.423334 0.26212,-0.275519 0.0399,0.03387 0.0818,0.07832 0.0818,0.07832 0.037,0.04657 0.084,0.10019 0.10654,0.04622 0.0346,-0.08149 0.0624,-0.217313 0.0243,-0.289984 -0.0166,-0.03246 -0.23354,-0.307271 -0.38135,-0.119239 m -13.64756,-0.006 c -0.0261,0.08326 -0.14041,0.370771 -0.0931,0.694621 0.0109,0.07514 0.073,0.21731 0.18662,0.212018 0.0586,-0.0049 0.13088,-0.05362 0.16933,-0.242006 0.006,-0.04233 0.01,-0.07655 0.012,-0.09313 0.004,-0.0254 -0.0169,-0.05362 -0.0317,0.0053 -0.0335,0.116417 -0.13864,0.204258 -0.23424,0.05962 -0.0159,-0.02893 -0.0836,-0.161221 -0.005,-0.469548 0.0162,-0.05997 0.0353,-0.148518 0.0353,-0.148518 0.0177,-0.06738 -0.0127,-0.100896 -0.0395,-0.01834 m 11.84663,-0.0046 c -0.067,0.03951 -1.78753,1.031875 -1.85667,1.076677 -0.0699,0.0448 -0.0945,0.0568 -0.10583,0.110773 -0.0109,0.05362 -0.0169,0.08467 -0.0198,0.09349 -0.0123,0.03563 -0.0215,0.08008 0.0811,0.01341 0.0321,-0.02117 1.76213,-1.020939 1.82245,-1.058685 0.0582,-0.03634 0.0921,-0.05186 0.11536,-0.10795 0.0233,-0.05539 0.0293,-0.06562 0.0413,-0.104071 0.0134,-0.04127 0.0268,-0.08537 -0.078,-0.02363 m -6.85341,0.177093 c -0.0515,0.144288 -0.26635,0.642409 -0.23354,1.22908 0.008,0.135466 0.0857,0.40005 0.26352,0.406752 0.0917,-2.65e-4 0.21026,-0.07655 0.29457,-0.408517 0.0148,-0.07514 0.024,-0.135467 0.03,-0.164394 0.009,-0.04516 -0.0198,-0.09843 -0.0497,0.0042 -0.0667,0.2032 -0.24201,0.34572 -0.37254,0.07267 -0.0208,-0.05362 -0.10936,-0.300566 0.0529,-0.840668 0.0325,-0.105127 0.0737,-0.261057 0.0737,-0.261057 0.036,-0.118179 -0.007,-0.182737 -0.0589,-0.0381 m -7.63658,0.06386 c -0.0282,0.08925 -0.15134,0.398637 -0.10019,0.747183 0.0116,0.08043 0.0783,0.234244 0.20038,0.227894 0.0631,-0.0053 0.14111,-0.0575 0.18273,-0.26035 0.006,-0.04551 0.01,-0.08184 0.0124,-0.09984 0.004,-0.02752 -0.0183,-0.0575 -0.0339,0.0053 -0.036,0.125587 -0.14887,0.220133 -0.25223,0.06456 -0.0173,-0.03105 -0.0896,-0.173566 -0.005,-0.505179 0.0173,-0.06456 0.0378,-0.159808 0.0378,-0.159808 0.0194,-0.07267 -0.0134,-0.108654 -0.042,-0.01976 m -1.04987,0.04939 c -0.16475,0.24624 -0.15311,0.552098 -0.15169,0.894292 -0.031,-0.0695 -0.21167,-0.51435 -0.6978,-0.740127 -0.0353,-0.01622 -0.10124,0.02506 -0.0995,0.132644 7.9e-4,0.06315 -0.005,0.216606 0.042,0.256116 0.0476,0.03987 0.18415,0.1143 0.20673,0.124884 0.0229,0.01024 0.0466,0.0099 0.0512,-0.01659 0.004,-0.02646 0.0296,-0.08925 0.0751,-0.04939 0.0381,0.03351 0.28222,0.206024 0.43215,0.599369 0.0251,0.05186 0.0748,0.05327 0.0804,-0.02328 0.0134,-0.188384 0.004,-0.512937 0.0109,-0.612421 0.0102,-0.139348 0.0543,-0.428273 0.24059,-0.294216 0.0416,0.03034 0.0875,0.07161 0.0875,0.07161 0.0406,0.04375 0.0914,0.09349 0.10971,0.0381 0.0279,-0.08396 0.0455,-0.221192 0.002,-0.291042 -0.0194,-0.0314 -0.25646,-0.28857 -0.38981,-0.08996 m 5.37456,0.298098 c -0.0561,0.0314 -1.94062,0.82691 -2.10255,0.94474 -0.0815,0.05997 -0.1517,0.157337 -0.17992,0.264935 -0.0406,0.155575 -0.009,0.313973 0.0928,0.335491 0.0709,0.01482 0.10972,0.05856 0.12665,0.08326 0.007,0.01093 0.0194,0.0042 0.0233,-0.0024 0.0893,-0.156634 0.0208,-0.261409 -0.11571,-0.307975 -0.0547,-0.01871 -0.0751,-0.09595 0.13476,-0.216959 0.19368,-0.111477 1.89336,-0.839962 1.9364,-0.867127 0.0582,-0.03634 0.0928,-0.04974 0.11783,-0.104775 0.0243,-0.05539 0.0307,-0.06526 0.0437,-0.103716 0.0145,-0.04092 0.0289,-0.08431 -0.0773,-0.0254 m -3.41665,0.638527 c -0.0561,0.03105 -1.94063,0.826558 -2.10255,0.945091 -0.0815,0.05962 -0.1517,0.156634 -0.17957,0.264584 -0.0409,0.155929 -0.009,0.313621 0.0924,0.335139 0.0713,0.01516 0.11007,0.05891 0.12665,0.08361 0.007,0.01058 0.0191,0.0042 0.0233,-0.0028 0.0893,-0.156634 0.0208,-0.261054 -0.11571,-0.307621 -0.0547,-0.01871 -0.0751,-0.09596 0.13511,-0.216958 0.19333,-0.111125 1.89266,-0.839965 1.93605,-0.86713 0.0579,-0.03634 0.0931,-0.04974 0.11747,-0.105126 0.0247,-0.05503 0.0307,-0.06491 0.0441,-0.103365 0.0145,-0.04092 0.0286,-0.08396 -0.0773,-0.0254 m 13.91285,0.128058 c -0.0346,0.08361 -0.17886,0.37465 -0.15663,0.716846 0.005,0.07902 0.0575,0.233186 0.17674,0.237771 0.0614,-2.65e-4 0.14111,-0.04515 0.19755,-0.238829 0.01,-0.0441 0.0162,-0.07902 0.0201,-0.09631 0.006,-0.02612 -0.013,-0.05715 -0.0332,0.0028 -0.0452,0.118888 -0.16227,0.201789 -0.25012,0.04269 -0.0138,-0.03175 -0.0734,-0.175684 0.0356,-0.490715 0.0215,-0.06103 0.049,-0.1524 0.049,-0.1524 0.0247,-0.06914 -0.005,-0.10654 -0.0392,-0.02188 m 3.30765,0.172508 c -0.0321,0.07832 -0.16581,0.347488 -0.14535,0.664281 0.005,0.07338 0.0533,0.2159 0.16369,0.219782 0.0572,-2.65e-4 0.13053,-0.04127 0.18309,-0.220488 0.009,-0.04057 0.0145,-0.07303 0.0183,-0.0889 0.006,-0.02469 -0.012,-0.05327 -0.0307,0.0024 -0.0416,0.109712 -0.15029,0.186619 -0.23143,0.03916 -0.013,-0.02928 -0.0681,-0.162632 0.0328,-0.45438 0.0201,-0.05644 0.0455,-0.14111 0.0455,-0.14111 0.0229,-0.0635 -0.004,-0.09843 -0.036,-0.02082 m -6.20678,0.0085 -0.16827,0.231071 -0.32279,-0.235656 c -0.008,-0.0056 -0.0201,-0.0039 -0.0265,0.0046 l -0.19438,0.267758 c -0.006,0.0085 -0.005,0.02011 0.003,0.02612 l 0.33302,0.242358 c 0.008,0.006 0.0194,0.0039 0.0257,-0.0046 l 0.16863,-0.230717 0.32314,0.235302 c 0.007,0.006 0.0191,0.0039 0.0254,-0.0046 l 0.19508,-0.267407 c 0.006,-0.0085 0.004,-0.02011 -0.003,-0.02611 l -0.33302,-0.24271 c -0.008,-0.0056 -0.0198,-0.0039 -0.0257,0.0046 m -3.70765,2.550262 c -0.067,0.0399 -1.08903,0.50659 -1.15888,0.5514 -0.0695,0.0448 -0.0938,0.0564 -0.10512,0.11006 -0.0113,0.054 -0.0166,0.0847 -0.0198,0.0938 -0.0127,0.0356 -0.0219,0.0801 0.0808,0.0131 0.0321,-0.0208 1.06715,-0.49425 1.1243,-0.53235 0.0575,-0.0377 0.0917,-0.0518 0.11536,-0.10759 0.0229,-0.0557 0.0289,-0.0656 0.0413,-0.10442 0.0134,-0.0413 0.0268,-0.085 -0.078,-0.024 m -4.6482,-1.793168 c -0.12241,0.132995 -0.15981,0.224367 -0.1965,0.281517 -0.0504,0.07867 0.013,0.113241 0.0699,0.05221 0.0568,-0.06068 0.0963,-0.12206 0.26176,-0.117827 0.16581,0.0046 0.56304,-0.01058 0.41452,0.09842 -0.14817,0.109008 -0.24871,0.172508 -0.24871,0.172508 -0.096,0.06879 -0.18097,0.19826 -0.0106,0.126646 0.17003,-0.07232 0.39476,-0.185561 0.56726,-0.445559 0.0504,-0.07549 0.10936,-0.176741 -0.12418,-0.211666 -0.23353,-0.03493 -0.61136,-0.08925 -0.73342,0.04375 m -0.85478,0.299154 c -0.0265,0.0829 -0.14111,0.370771 -0.0935,0.694615 0.0109,0.0748 0.0727,0.21732 0.18627,0.21202 0.0586,-0.005 0.13123,-0.0536 0.17004,-0.242 0.006,-0.04269 0.008,-0.07655 0.0113,-0.09314 0.004,-0.0254 -0.0169,-0.05362 -0.0314,0.0053 -0.0335,0.11641 -0.13864,0.20425 -0.2346,0.05962 -0.0159,-0.02893 -0.0833,-0.161576 -0.004,-0.469551 0.0159,-0.05997 0.0349,-0.148518 0.0349,-0.148518 0.018,-0.06738 -0.0127,-0.100896 -0.0388,-0.01834 m -3.26884,0.925679 -0.19544,0.26741 c -0.006,0.009 -0.005,0.0201 0.004,0.0261 l 0.33267,0.24272 c 0.008,0.006 0.0198,0.004 0.0257,-0.005 l 0.19544,-0.26705 c 0.006,-0.009 0.005,-0.0204 -0.004,-0.0265 l -0.33267,-0.24236 c -0.008,-0.006 -0.0198,-0.004 -0.0257,0.005 m -0.68721,0.1143 c -0.0307,0.0748 -0.1584,0.33232 -0.139,0.63606 0.005,0.0705 0.0512,0.20708 0.15699,0.21096 0.0543,-2.7e-4 0.12523,-0.0399 0.17533,-0.21167 0.009,-0.0388 0.0141,-0.0702 0.018,-0.0854 0.005,-0.0233 -0.012,-0.0508 -0.0296,0.002 -0.0402,0.10513 -0.14393,0.17886 -0.22154,0.0378 -0.013,-0.0282 -0.0653,-0.15593 0.031,-0.43568 0.0194,-0.0543 0.0441,-0.13512 0.0441,-0.13512 0.0215,-0.0614 -0.005,-0.0945 -0.0353,-0.0194 m 14.46988,-1.679921 c -0.013,0.04515 -0.0455,0.239888 -0.0536,0.279752 -0.008,0.04022 -0.007,0.07973 0.0127,0.1143 0.0198,0.03387 0.0702,0.152752 0.10689,0.249061 0.037,0.09631 0.41451,0.823728 0.44908,0.888288 0.0353,0.0646 0.0427,0.11289 0.007,0.15558 -1.21285,1.27952 -3.55282,2.06621 -3.62761,2.10996 -0.0748,0.043 -0.055,0.0769 0.0709,0.055 0.18838,-0.0332 1.23966,-0.20884 1.53917,-0.35313 0.19755,-0.0952 0.88829,-0.43427 1.45238,-0.87665 -0.0159,0.1143 -0.0303,0.28222 -0.0222,0.4953 0.0381,1.02905 0.9585,0.85831 1.1998,0.80504 0.72354,-0.15875 1.60866,-1.15888 1.6838,-1.35961 0.0744,-0.19897 0.0854,-0.37994 0.0684,-0.53763 0.1905,-0.10336 0.59972,-0.43321 0.59972,-0.43321 0.0169,0.4385 0.36584,0.57044 0.47343,0.58949 0.50377,0.0762 0.75601,-0.34467 0.86325,-0.48119 0.0914,0.2406 0.31221,0.28751 0.42545,0.31009 0.43462,0.0864 0.51894,-0.22119 0.54187,-0.29139 0.13617,-0.42334 -0.10936,-0.739064 -0.14111,-0.774343 -0.0318,-0.03493 -0.0476,-0.0013 -0.0586,0.03951 -0.0113,0.04057 -0.0462,0.193321 -0.0681,0.288923 0,0 0.0907,0.14781 0.12312,0.22331 0.0321,0.0751 -0.0159,0.11641 -0.10901,0.12805 -0.26423,0.0321 -0.47555,-0.11959 -0.54786,-0.18909 -0.0727,-0.0698 0.006,-0.193666 0.0645,-0.341126 0.0469,-0.118181 -0.0402,-0.132646 -0.10689,-2.64e-4 -0.22436,0.58878 -0.53869,0.65228 -0.62159,0.67521 -0.74613,0.2032 -0.68157,-0.47907 -0.6791,-0.590896 0.003,-0.111831 -0.0787,-0.0702 -0.17074,0.0035 -0.31398,0.251876 -0.56692,0.400046 -0.70274,0.460726 -0.11747,-0.22896 -0.28751,-0.372884 -0.35913,-0.424742 -0.80786,-0.588434 -0.87418,0.599362 -0.84984,0.726712 0.12312,0.50518 0.94792,0.19897 1.07703,0.18345 0.12947,-0.0148 0.0871,0.15593 0.0148,0.25753 -0.17921,0.24976 -0.38594,0.42933 -0.57291,0.58208 -0.79975,0.65264 -1.20086,0.60113 -1.32468,0.5969 -0.78528,-0.0219 -0.71332,-0.86854 -0.66957,-1.04951 0.23636,-0.20003 0.43956,-0.41769 0.55774,-0.64135 0.0476,-0.12277 0.13053,-0.40182 -0.019,-0.751766 -0.079,-0.153813 -0.32632,-0.585965 -0.32632,-0.585965 0,0 0.18274,0.0056 0.19967,0.0053 0.0173,-2.65e-4 0.0519,-0.01834 0.007,-0.0695 -0.0441,-0.05115 -0.42757,-0.433563 -0.45015,-0.464254 -0.0233,-0.03069 -0.0445,-0.05292 -0.0575,-0.0074 m 2.42253,1.752595 c 0,0 -0.11042,0.0631 -0.41769,0.0423 -0.25753,-0.0177 -0.23566,-0.11748 -0.20038,-0.15593 0.0384,-0.0416 0.35419,-0.24024 0.61807,0.11359 m -3.31682,-1.424866 c -0.0536,0.06632 -0.58985,0.769763 -0.58985,0.769763 l -0.38946,-0.27799 c 0,0 0.15839,-0.03986 0.18591,-0.04798 0.0279,-0.0081 0.0437,-0.0441 -0.006,-0.0695 -0.0501,-0.02574 -0.52035,-0.213077 -0.55598,-0.227541 -0.036,-0.01482 -0.0487,-0.03104 -0.0519,0.0071 -0.003,0.03845 -0.008,0.347485 -0.008,0.347485 0,0 -0.007,0.02188 0.0335,0.04516 0.0413,0.02328 0.0818,0.07338 0.11571,0.106891 0.0328,0.03351 0.47025,0.378878 0.49177,0.390868 0,0 -0.21872,0.38453 -0.24659,0.6851 -0.0279,0.30092 0.005,0.71649 0.41663,0.58244 0.11077,-0.0318 0.5715,-0.21485 0.67451,-0.53623 0.0332,-0.11818 0.12841,-0.33196 -0.0261,-0.54857 -0.0892,-0.12735 -0.44909,-0.342891 -0.44909,-0.342891 0,0 0.27623,-0.381706 0.30269,-0.428625 0.0268,-0.04657 0.12805,-0.342548 0.13899,-0.414163 0.0113,-0.07197 0.0169,-0.107595 -0.0363,-0.04127 m -0.0942,1.622779 c -0.1531,0.12559 -0.47413,0.29175 -0.56444,0.30057 -0.09,0.009 -0.3295,-0.0353 -0.22543,-0.28082 0.0356,-0.0794 0.27517,-0.48895 0.27517,-0.48895 0.0892,0.049 0.6671,0.34326 0.5147,0.4692 m 6.23076,0.56198 c -0.0317,0.0861 -0.0434,0.14287 -0.0402,0.17568 0.003,0.0332 0.0148,0.13934 0.0148,0.13934 -0.0325,0.0258 -0.16898,0.11078 -0.30586,0.0102 0.009,-0.0293 0.0272,-0.0885 0.0307,-0.12135 0.0148,-0.0504 -0.0162,-0.0878 -0.0409,-0.0356 -0.025,0.0522 -0.0829,0.22824 -0.12594,0.2674 -0.043,0.0395 -0.0938,0.18486 -0.4198,0.037 -0.0568,-0.0219 -0.15699,-0.0956 -0.31257,0.061 -0.35277,0.32737 -0.59584,0.35313 -0.9913,0.49353 -0.048,0.0222 -0.14817,0.0974 -0.0293,0.0854 0.11959,-0.0116 0.62053,2.7e-4 0.89288,-0.31291 0.0575,-0.055 0.12277,-0.20144 0.33902,-0.11677 0.1203,0.0455 0.34219,0.23566 0.58349,-0.1397 0.14288,0.0949 0.35913,0.0571 0.3937,-0.048 0.0346,-0.10477 0.0741,-0.20884 0.0737,-0.27975 -2.6e-4,-0.0713 -0.007,-0.16475 -0.007,-0.16475 -0.005,-0.0564 -0.0247,-0.13688 -0.0557,-0.0508 m -13.208,0.39688 c -0.0282,0.0892 -0.15134,0.39864 -0.10054,0.74753 0.012,0.0801 0.0787,0.2339 0.20108,0.2279 0.0628,-0.006 0.14076,-0.0575 0.18204,-0.2607 0.007,-0.0455 0.0102,-0.0819 0.0127,-0.0995 0.004,-0.0279 -0.018,-0.0579 -0.0335,0.005 -0.0367,0.12524 -0.14922,0.21979 -0.25223,0.0642 -0.0173,-0.0311 -0.09,-0.17357 -0.005,-0.50518 0.0173,-0.0642 0.0377,-0.15981 0.0377,-0.15981 0.0191,-0.0723 -0.0138,-0.10865 -0.0423,-0.0198 m -2.35268,0.0674 c -0.0279,0.0893 -0.15098,0.39828 -0.10018,0.74753 0.012,0.0804 0.0787,0.23354 0.20108,0.2279 0.0628,-0.005 0.1404,-0.0579 0.18239,-0.2607 0.006,-0.0455 0.01,-0.0822 0.012,-0.0998 0.004,-0.0275 -0.018,-0.0579 -0.0335,0.006 -0.0363,0.12489 -0.14887,0.21943 -0.25224,0.0639 -0.0173,-0.0311 -0.0896,-0.17322 -0.005,-0.50483 0.0173,-0.0646 0.0385,-0.15981 0.0385,-0.15981 0.0187,-0.0727 -0.0141,-0.10901 -0.043,-0.0198 m 6.57719,0.5655 c -0.067,0.0395 -1.08938,0.50589 -1.15888,0.55104 -0.0695,0.0448 -0.0942,0.0568 -0.10548,0.11042 -0.0113,0.0536 -0.0169,0.0847 -0.0198,0.0935 -0.0127,0.0356 -0.0215,0.0801 0.0808,0.0134 0.0325,-0.0208 1.0668,-0.4946 1.12395,-0.5327 0.0575,-0.0377 0.0921,-0.0519 0.11571,-0.10759 0.0233,-0.0554 0.0293,-0.0656 0.0416,-0.10442 0.0134,-0.0413 0.0265,-0.085 -0.078,-0.0236"
       style="fill:#231f20;fill-opacity:1;fill-rule:evenodd;stroke:none;stroke-width:0.264583"
       id="path1" />
  </g>
</svg>
