<?xml version="1.0" encoding="UTF-8" standalone="no"?>
<!-- Created with Inkscape (http://www.inkscape.org/) -->

<svg
   width="18.414524mm"
   height="6.3378682mm"
   viewBox="0 0 18.414524 6.3378682"
   version="1.1"
   id="svg1"
   xmlns:inkscape="http://www.inkscape.org/namespaces/inkscape"
   xmlns:sodipodi="http://sodipodi.sourceforge.net/DTD/sodipodi-0.dtd"
   xmlns="http://www.w3.org/2000/svg"
   xmlns:svg="http://www.w3.org/2000/svg">
  <sodipodi:namedview
     id="namedview1"
     pagecolor="#ffffff"
     bordercolor="#666666"
     borderopacity="1.0"
     inkscape:showpageshadow="2"
     inkscape:pageopacity="0.0"
     inkscape:pagecheckerboard="0"
     inkscape:deskcolor="#d1d1d1"
     inkscape:document-units="mm" />
  <defs
     id="defs1" />
  <g
     inkscape:label="Layer 1"
     inkscape:groupmode="layer"
     id="layer1"
     transform="translate(-105.38762,-30.13631)">
    <path
       d="m 116.05789,30.305482 c -0.0702,0.106537 -0.12206,0.362302 -0.0222,0.434975 0.10019,0.07338 0.24624,0.132643 0.24624,0.132643 -0.46567,0.571148 -0.78423,0.680157 -1.05693,0.83961 -0.0702,0.04127 -0.0561,0.07796 -0.0152,0.06738 0.0215,-0.006 0.38806,-0.06279 0.81598,-0.388057 0.23142,-0.175683 0.37147,-0.475895 0.37147,-0.475895 0,0 0.11571,0.09631 0.13159,0.116417 0.0353,0.04339 0.0547,0.07514 0.0713,0.02963 0.0603,-0.169333 -0.0254,-0.271288 -0.1076,-0.323498 0,0 0.0854,-0.263173 -0.0716,-0.527402 -0.0265,-0.0441 -0.18204,-0.185563 -0.36301,0.09419 m 0.24377,0.07232 c 0.10477,0.09772 0.0889,0.258234 0.0847,0.294569 0,0 -0.13405,-0.06279 -0.19437,-0.08819 -0.0596,-0.02574 -0.0914,-0.06421 -0.0631,-0.101952 0.0921,-0.129823 0.13758,-0.125238 0.17286,-0.104423 M 114.697,30.205291 c -0.0162,0.03881 -0.11218,0.30339 -0.11218,0.30339 0.0257,0.171802 0.25647,1.750483 0.27164,1.876777 0.0148,0.125235 0.33408,2.2098 0.35066,2.786591 -0.004,0.05927 0.0212,0.08078 0.0483,0.02434 0.0268,-0.0568 0.21308,-0.441325 -0.007,-1.851377 -0.0162,-0.117475 -0.35454,-2.236965 -0.35454,-2.236965 0,0 0.19685,0.18556 0.22895,0.219427 0.0314,0.03316 0.0698,0.01553 0.0519,-0.03845 -0.018,-0.05397 -0.42192,-1.030465 -0.43533,-1.064331 -0.0127,-0.03387 -0.0257,-0.05821 -0.042,-0.01939 m -0.9525,0 c -0.0166,0.03916 -0.1464,0.324908 -0.1464,0.324908 0.004,0.02328 0.0413,0.09948 0.0624,0.243417 0.0215,0.149931 0.0617,0.349602 0.0963,0.585965 0,0 0.44768,2.391833 0.4632,2.524125 0.0152,0.131937 0.0455,0.244826 -0.0886,0.334078 -0.2794,0.185915 -1.03293,0.402873 -1.14476,0.449086 -0.067,0.02787 -0.52635,0.212725 -1.07774,0.904523 -0.0896,0.109008 -0.35031,0.478718 -0.61383,0.565502 -0.15064,0.0508 -0.39723,0.07867 -0.4565,-0.198261 -0.0183,-0.112889 -0.0494,-0.4572 0.13018,-0.86501 0.22719,-0.180975 0.43533,-0.372533 0.57855,-0.557742 0.066,-0.08537 0.30657,-0.390879 0.14288,-0.9525 -0.25894,-0.888999 -0.75389,-0.729898 -0.89606,-0.624416 -0.0977,0.07267 -0.32491,0.305506 -0.31079,0.658283 0.0141,0.103717 0.0649,0.341842 0.4198,0.31891 0.096,-0.0056 0.33091,-0.05856 0.43991,-0.0448 0.10937,0.01447 0.29669,0.04798 0.22402,0.162632 -0.50553,0.876652 -3.23109,2.258481 -3.23109,2.258481 -0.0656,0.03528 -0.13512,0.08255 -0.12594,0.110421 0.01,0.02787 0.0282,0.02611 0.0811,0.0113 0.0522,-0.01482 1.24919,-0.403225 1.31128,-0.438854 0.0402,-0.02328 0.63606,-0.353132 1.18957,-0.76553 -0.10478,0.39088 -0.26776,1.254125 0.40887,1.264357 0.0868,-0.0056 0.40005,-0.02611 0.69391,-0.432152 0.15099,-0.196146 0.64664,-0.787048 0.98848,-0.949325 0.24377,-0.112184 0.87101,-0.296688 1.03047,-0.375357 0.15945,-0.07832 0.4004,-0.125941 0.46743,-0.66675 0.0198,-0.122766 0.0646,-0.431093 -0.0109,-0.842433 -0.0279,-0.165452 -0.43004,-2.099733 -0.43004,-2.099733 0,0 0.19756,0.185208 0.22931,0.219075 0.0318,0.03316 0.0702,0.01553 0.0519,-0.03845 -0.018,-0.05398 -0.42192,-1.030465 -0.43498,-1.064332 -0.013,-0.03387 -0.0257,-0.05821 -0.042,-0.01939 m -2.40594,3.272719 c 0,0 -0.27905,0.09031 -0.58138,0.02752 -0.11959,-0.03563 0.0124,-0.174271 0.10584,-0.200025 0.0593,-0.01588 0.25329,-0.05609 0.47554,0.172508 M 122.58084,30.4011 c -0.0706,0.106185 -0.12242,0.362656 -0.0226,0.435326 0.10019,0.07338 0.24624,0.132647 0.24624,0.132647 -0.46567,0.570793 -1.38042,0.976841 -1.59809,1.146878 -0.0645,0.04939 -0.0561,0.07796 -0.0148,0.06667 0.0363,-0.0095 0.73307,-0.20461 1.37019,-0.750358 0.29174,-0.25047 0.28434,-0.268817 0.35842,-0.420862 0.0631,0.03281 0.10654,0.08537 0.13159,0.116417 0.0353,0.04339 0.0543,0.07585 0.0709,0.02963 0.061,-0.16863 -0.0251,-0.270581 -0.10759,-0.323498 0,0 0.0854,-0.262819 -0.0716,-0.52705 -0.0265,-0.0441 -0.18203,-0.185208 -0.36265,0.09419 m 0.24341,0.07267 c 0.10478,0.09737 0.0889,0.257878 0.0847,0.294568 0,0 -0.13406,-0.06315 -0.19403,-0.08855 -0.0593,-0.02611 -0.091,-0.06385 -0.0635,-0.101952 0.0924,-0.129823 0.13759,-0.125235 0.17286,-0.104068 m -10.25489,-0.04833 c -0.0695,0.11289 -0.1143,0.380648 -0.008,0.452967 0.10653,0.07267 0.26105,0.128765 0.26105,0.128765 -0.46461,0.6096 -1.11971,1.189566 -1.39735,1.364895 -0.0716,0.04481 -0.0561,0.08291 -0.0134,0.07021 0.0219,-0.0067 0.39088,-0.156988 0.82832,-0.504473 0.36795,-0.292452 0.70309,-0.890059 0.70309,-0.890059 0,0 0.12418,0.09631 0.14111,0.116065 0.0378,0.0441 0.0593,0.0769 0.0748,0.02858 0.0575,-0.1778 -0.036,-0.280458 -0.12312,-0.332317 0,0 0.0797,-0.276225 -0.0928,-0.545396 -0.0289,-0.0448 -0.19544,-0.186266 -0.37359,0.110773 m 0.25541,0.06668 c 0.11254,0.09807 0.10125,0.264584 0.0988,0.30339 0,0 -0.14182,-0.06103 -0.20497,-0.08537 -0.0628,-0.02469 -0.0974,-0.06315 -0.0699,-0.103717 0.0914,-0.137935 0.139,-0.13476 0.17604,-0.1143 m 8.2109,-0.18415 c -0.18309,0.232834 -0.19473,0.538692 -0.21907,0.879827 -0.0261,-0.07161 -0.17216,-0.528812 -0.63959,-0.790927 -0.0339,-0.01905 -0.10301,0.01728 -0.10936,0.124884 -0.004,0.06279 -0.0219,0.215193 0.0226,0.258585 0.0441,0.04304 0.17462,0.127706 0.19649,0.1397 0.0219,0.01198 0.0455,0.01376 0.0519,-0.0127 0.007,-0.02574 0.0367,-0.08643 0.079,-0.04304 0.0356,0.03598 0.266,0.226835 0.38594,0.630766 0.0205,0.05327 0.0699,0.05821 0.0815,-0.01728 0.0275,-0.18697 0.0427,-0.511527 0.0575,-0.609952 0.0208,-0.13829 0.0868,-0.422981 0.26176,-0.274815 0.0399,0.03316 0.0822,0.07796 0.0822,0.07796 0.037,0.04657 0.0836,0.10019 0.10654,0.04586 0.0342,-0.08114 0.0621,-0.216958 0.0243,-0.289983 -0.0166,-0.0321 -0.23354,-0.306917 -0.38171,-0.118885 m -1.80058,-0.01058 c -0.0674,0.03916 -1.78717,1.031875 -1.85667,1.077031 -0.0702,0.0448 -0.0949,0.05644 -0.10583,0.110067 -0.0113,0.05362 -0.0169,0.08467 -0.0201,0.09348 -0.0123,0.03598 -0.0212,0.08043 0.0815,0.01341 0.0318,-0.02082 1.76213,-1.020588 1.82245,-1.058333 0.0582,-0.03634 0.0917,-0.05186 0.11501,-0.10795 0.0233,-0.05539 0.0296,-0.06562 0.042,-0.104071 0.0134,-0.04127 0.0265,-0.08502 -0.0783,-0.02363 m -9.19021,0.06068 c -0.15487,0.250473 -0.13335,0.556332 -0.12065,0.897821 -0.0332,-0.06844 -0.22543,-0.507648 -0.7112,-0.718962 -0.0356,-0.01516 -0.0991,0.02752 -0.0942,0.135466 0.003,0.06315 0.002,0.216255 0.0497,0.255059 0.0483,0.03775 0.18521,0.108656 0.20779,0.118181 0.0226,0.0095 0.0459,0.0088 0.0497,-0.01799 0.004,-0.02681 0.0265,-0.08996 0.0727,-0.05151 0.0328,0.02787 0.30092,0.216606 0.40746,0.503063 0.0896,0.249412 -0.48401,0.83326 -0.5147,0.860425 -0.0543,0.04833 -0.0328,0.07408 -0.007,0.05609 0.0258,-0.01765 0.0529,-0.02468 0.35243,-0.272698 0.242,-0.199318 0.27516,-0.404283 0.28081,-0.559506 0.002,-0.0074 0.004,-0.01622 0.004,-0.02646 0.007,-0.188736 -0.0127,-0.512938 -0.008,-0.612421 0.005,-0.1397 0.0395,-0.429683 0.22684,-0.301273 0.0427,0.02928 0.0885,0.0695 0.0885,0.0695 0.0416,0.04233 0.0931,0.09066 0.10936,0.03422 0.0251,-0.08467 0.0378,-0.221898 -0.007,-0.29069 -0.0198,-0.03034 -0.26141,-0.28081 -0.38629,-0.07832 m -2.23873,0.164396 c -0.0339,0.08255 -0.17462,0.366536 -0.15311,0.701675 0.005,0.0769 0.0561,0.228246 0.17251,0.232127 0.0603,-2.64e-4 0.13829,-0.04374 0.19333,-0.233185 0.01,-0.04269 0.0159,-0.07726 0.0198,-0.09419 0.006,-0.0254 -0.0127,-0.05574 -0.0325,0.0028 -0.0441,0.116064 -0.15839,0.19685 -0.24412,0.04127 -0.0141,-0.03069 -0.072,-0.17145 0.0342,-0.479425 0.0215,-0.06033 0.0487,-0.149225 0.0487,-0.149225 0.0236,-0.06738 -0.005,-0.104069 -0.0388,-0.02188 m 3.1944,0.127 c -0.0261,0.08855 -0.14217,0.394052 -0.0864,0.736246 0.0131,0.07832 0.0811,0.228248 0.20144,0.220488 0.0617,-0.0064 0.13723,-0.05892 0.17497,-0.259292 0.005,-0.0448 0.008,-0.08043 0.0102,-0.09807 0.004,-0.02681 -0.0191,-0.05644 -0.0328,0.006 -0.0335,0.123471 -0.14322,0.218369 -0.24694,0.06738 -0.0176,-0.03034 -0.091,-0.169333 -0.013,-0.496358 0.0159,-0.0635 0.0349,-0.158044 0.0349,-0.158044 0.0173,-0.07162 -0.0155,-0.106185 -0.0423,-0.01834 m 8.56509,1.002242 c -0.0346,0.08467 -0.17851,0.375002 -0.15663,0.71755 0.005,0.07902 0.0579,0.233537 0.17674,0.237419 0.0617,0 0.14146,-0.0448 0.19791,-0.238477 0.01,-0.04375 0.0159,-0.07902 0.0201,-0.09596 0.006,-0.02646 -0.0134,-0.0575 -0.0332,0.0024 -0.0452,0.118534 -0.16228,0.201438 -0.25013,0.04233 -0.0141,-0.0314 -0.0734,-0.175684 0.0353,-0.49036 0.0219,-0.06138 0.0494,-0.1524 0.0494,-0.1524 0.0243,-0.06879 -0.005,-0.10654 -0.0395,-0.02257 m -11.14742,0.05009 c -0.0339,0.0822 -0.17463,0.366535 -0.15311,0.701323 0.005,0.07726 0.0564,0.228246 0.17286,0.232479 0.0603,0 0.13794,-0.04409 0.19368,-0.233892 0.009,-0.04268 0.0155,-0.07655 0.0194,-0.09349 0.006,-0.0254 -0.013,-0.05609 -0.0324,0.0024 -0.0441,0.116065 -0.15875,0.197205 -0.24483,0.04163 -0.0134,-0.03105 -0.0713,-0.17145 0.0349,-0.480131 0.0212,-0.05927 0.0483,-0.148519 0.0483,-0.148519 0.024,-0.06773 -0.005,-0.104423 -0.0388,-0.02188 m 14.45507,0.123473 c -0.0321,0.07761 -0.16546,0.346779 -0.145,0.664279 0.004,0.07303 0.0533,0.2159 0.16369,0.219429 0.0568,0 0.13089,-0.04163 0.18274,-0.220839 0.009,-0.04057 0.0148,-0.07303 0.0187,-0.0889 0.006,-0.02434 -0.012,-0.05327 -0.0307,0.0021 -0.0416,0.110419 -0.15028,0.186973 -0.23142,0.03986 -0.013,-0.02928 -0.0681,-0.162631 0.0324,-0.454379 0.0205,-0.05644 0.0459,-0.141111 0.0459,-0.141111 0.0226,-0.0635 -0.004,-0.09878 -0.0363,-0.02045 m -6.20677,0.0085 -0.16828,0.230362 -0.32314,-0.235654 c -0.008,-0.0056 -0.019,-0.0035 -0.0258,0.0053 L 115.95473,32.101 c -0.006,0.0081 -0.004,0.02011 0.004,0.02574 l 0.33303,0.242711 c 0.008,0.0056 0.0194,0.0035 0.0257,-0.0046 l 0.16828,-0.231071 0.32279,0.235657 c 0.008,0.0056 0.0198,0.0035 0.0261,-0.0046 l 0.19474,-0.267758 c 0.006,-0.0081 0.005,-0.01976 -0.003,-0.02574 l -0.33304,-0.242954 c -0.008,-0.0056 -0.0194,-0.0035 -0.0257,0.0053 m 1.30351,0.415925 c -0.013,0.04515 -0.0459,0.239887 -0.0536,0.279752 -0.008,0.03986 -0.007,0.07973 0.0124,0.113948 0.0201,0.03422 0.0705,0.152752 0.10724,0.24906 0.0363,0.09666 0.41451,0.824442 0.44909,0.889 0.0349,0.06385 0.042,0.112184 0.007,0.154869 -1.21285,1.279525 -3.55283,2.066218 -3.62762,2.109965 -0.0751,0.04374 -0.0554,0.07726 0.0706,0.05539 0.18873,-0.03352 1.23966,-0.209198 1.53952,-0.353484 0.19791,-0.09525 0.88794,-0.434268 1.45203,-0.876651 -0.0155,0.1143 -0.03,0.28222 -0.0219,0.495651 0.0378,1.029052 0.95815,0.857957 1.19945,0.805392 0.7239,-0.159102 1.60902,-1.159227 1.68416,-1.36031 0.0741,-0.198263 0.085,-0.37959 0.0681,-0.537633 0.1905,-0.103365 0.60008,-0.432859 0.60008,-0.432859 0.0166,0.438502 0.36583,0.570442 0.47343,0.589137 0.50376,0.07655 0.756,-0.343955 0.86324,-0.48048 0.0914,0.240593 0.31221,0.28716 0.42545,0.309385 0.43463,0.08643 0.51894,-0.22084 0.54152,-0.291042 0.13617,-0.422981 -0.10936,-0.739423 -0.14076,-0.773993 -0.0317,-0.03528 -0.0476,-0.0013 -0.0586,0.03916 -0.0113,0.04022 -0.0466,0.19332 -0.0681,0.28857 0,0 0.0903,0.147815 0.12277,0.223309 0.0325,0.0755 -0.0155,0.116771 -0.10901,0.128058 -0.26423,0.03246 -0.47519,-0.118885 -0.54786,-0.189087 -0.0727,-0.06985 0.006,-0.193323 0.0649,-0.341138 0.0466,-0.117827 -0.0406,-0.132292 -0.10689,-2.64e-4 -0.22402,0.589139 -0.53905,0.652639 -0.6216,0.675216 -0.74612,0.203552 -0.68192,-0.478718 -0.67909,-0.59055 0.002,-0.111477 -0.079,-0.07056 -0.1711,0.0032 -0.31398,0.252235 -0.56692,0.40005 -0.70274,0.461082 -0.11712,-0.228955 -0.28751,-0.37324 -0.35912,-0.424747 -0.80751,-0.588785 -0.87383,0.599372 -0.84949,0.726724 0.12312,0.504825 0.94756,0.198966 1.07738,0.183795 0.12912,-0.01553 0.0868,0.155223 0.0141,0.257175 -0.17885,0.250121 -0.38558,0.429331 -0.57255,0.582083 -0.79975,0.652288 -1.20121,0.601134 -1.32468,0.5969 -0.78564,-0.02188 -0.71332,-0.868537 -0.66958,-1.049512 0.23601,-0.200025 0.43921,-0.41769 0.55704,-0.641704 0.0483,-0.122764 0.13088,-0.401461 -0.0187,-0.751414 -0.0783,-0.154165 -0.32632,-0.586317 -0.32632,-0.586317 0,0 0.18239,0.0056 0.19967,0.0053 0.0173,0 0.0519,-0.01834 0.008,-0.06915 -0.0444,-0.05115 -0.42757,-0.433916 -0.45085,-0.464608 -0.0229,-0.03069 -0.0441,-0.05256 -0.0572,-0.0071 m 2.42217,1.7526 c 0,0 -0.11007,0.06279 -0.41734,0.04233 -0.25823,-0.01765 -0.23565,-0.117829 -0.20037,-0.155929 0.0381,-0.04163 0.35383,-0.240242 0.61771,0.113596 M 107.285,32.441275 c -0.0575,0.157692 -0.29739,0.703085 -0.266,1.347962 0.008,0.148873 0.091,0.43956 0.28575,0.449085 0.1009,2.65e-4 0.23178,-0.0829 0.32703,-0.446968 0.0166,-0.08184 0.0272,-0.148167 0.0339,-0.180621 0.0102,-0.04868 -0.0208,-0.107598 -0.0547,0.0049 -0.0751,0.222957 -0.26775,0.377121 -0.40886,0.07726 -0.0229,-0.05962 -0.11783,-0.33161 0.0642,-0.923925 0.0367,-0.114651 0.0829,-0.28575 0.0829,-0.28575 0.0409,-0.129116 -0.006,-0.200376 -0.0642,-0.04198 m 5.79155,0.06314 c -0.0254,0.07973 -0.0448,0.141113 -0.0102,0.231775 0.0349,0.09102 0.12771,0.296688 0.14323,0.325967 0.0152,0.02928 0.0194,0.06244 -0.0321,0.08431 -0.0508,0.02151 -0.28505,0.07161 -0.32844,-0.1778 -0.0434,-0.249415 -0.0473,-0.322086 -0.0691,-0.364067 -0.0215,-0.04233 -0.042,-0.04763 -0.0589,-0.0056 -0.0162,0.04268 -0.0268,0.129469 -0.0293,0.143227 -0.002,0.0141 -0.002,0.02469 0.007,0.04022 0.008,0.01516 0.10231,0.29351 0.06,0.370416 -0.042,0.07655 -0.25188,0.214842 -0.36194,0.0702 -0.0522,-0.100893 -0.0201,-0.356658 -0.0201,-0.416277 0,-0.06068 -0.0194,-0.08114 -0.0448,-0.03246 -0.0254,0.04868 -0.0395,0.08079 -0.0381,0.12418 8e-4,0.04339 0.007,0.23001 0.004,0.28857 -0.004,0.05891 0,0.249767 0.11254,0.303038 0.11253,0.05398 0.27622,0.0042 0.40005,-0.230013 0.096,0.1397 0.2413,0.140055 0.31962,0.11148 0.0663,-0.02434 0.1404,-0.12418 0.16227,-0.262467 0.0215,-0.137583 -0.0138,-0.232482 -0.0575,-0.310446 -0.0575,-0.09595 -0.096,-0.256821 -0.096,-0.256821 -0.0204,-0.0575 -0.036,-0.116065 -0.0614,-0.0374 m 3.99838,0.07303 c -0.0529,0.06597 -0.58949,0.769763 -0.58949,0.769763 l -0.38982,-0.278342 c 0,0 0.15875,-0.03951 0.18662,-0.04798 0.0275,-0.0078 0.0434,-0.04374 -0.006,-0.0695 -0.0501,-0.0254 -0.52035,-0.212725 -0.55633,-0.22719 -0.0353,-0.01482 -0.0483,-0.03069 -0.0515,0.0071 -0.003,0.03775 -0.009,0.347485 -0.009,0.347485 0,0 -0.007,0.02188 0.0339,0.0448 0.0409,0.02363 0.0815,0.07338 0.11501,0.106892 0.0335,0.03387 0.47096,0.378883 0.49248,0.391231 0,0 -0.21908,0.384175 -0.2466,0.685446 -0.0279,0.300566 0.005,0.716139 0.41628,0.582083 0.11113,-0.03175 0.5715,-0.214842 0.67451,-0.535869 0.0335,-0.118533 0.12841,-0.332316 -0.0261,-0.549275 -0.0889,-0.127 -0.44873,-0.342545 -0.44873,-0.342545 0,0 0.27622,-0.382058 0.30233,-0.428273 0.0265,-0.04692 0.1277,-0.3429 0.13935,-0.414515 0.0113,-0.07161 0.0169,-0.107595 -0.0367,-0.04127 m -0.0942,1.622777 c -0.15276,0.125942 -0.47414,0.291396 -0.5641,0.300567 -0.0903,0.0085 -0.32984,-0.03563 -0.22577,-0.280459 0.0356,-0.08008 0.27516,-0.489302 0.27516,-0.489302 0.0896,0.04904 0.66746,0.343607 0.51471,0.469194 m -8.13506,-0.992714 c -0.14499,0.14887 -0.26458,0.363008 -0.3235,0.61736 -0.025,0.09666 -0.0571,0.270227 -0.15346,0.421921 -0.12065,0.191206 -0.49565,0.537633 -1.23472,0.938389 -0.17639,0.09525 -1.71873,0.870302 -1.71873,0.870302 -0.0392,0.02574 -0.043,0.04481 0.0187,0.02999 0.061,-0.01482 1.03011,-0.255058 1.16594,-0.310798 0.13581,-0.05574 0.76587,-0.31609 1.30774,-0.727427 0.0642,-0.04868 0.59337,-0.396171 0.66005,-0.935567 0.11606,0.05115 0.53587,0.268463 0.95003,0.166863 0.0445,-0.01093 0.0381,-0.0254 0.0505,-0.06103 0.0127,-0.03563 0.0695,-0.251884 0.0356,-0.342194 -0.0335,-0.09067 -0.15981,-0.422275 -0.34855,-0.621596 -0.0797,-0.08008 -0.26493,-0.195792 -0.40957,-0.04621 m 0.4452,0.648404 c 0.0321,0.05997 0.005,0.05891 -0.03,0.05715 -0.28505,-0.01093 -0.54328,-0.147812 -0.58385,-0.173919 0,0 0.0543,-0.159808 0.17216,-0.192617 0.0645,-0.01659 0.21872,-0.0829 0.44167,0.309386 m 13.92061,0.905933 c -0.0314,0.08643 -0.043,0.143227 -0.0402,0.175683 0.004,0.03351 0.0148,0.1397 0.0148,0.1397 -0.0321,0.02574 -0.16862,0.111125 -0.30586,0.01024 0.01,-0.02893 0.0268,-0.08855 0.0311,-0.121357 0.0148,-0.0508 -0.0162,-0.08819 -0.0409,-0.03598 -0.0251,0.05292 -0.0829,0.228248 -0.1263,0.267406 -0.043,0.04022 -0.0935,0.185209 -0.41945,0.03775 -0.0568,-0.02188 -0.15699,-0.09631 -0.31256,0.06068 -0.35278,0.327377 -0.59619,0.353129 -0.99131,0.493536 -0.048,0.02188 -0.14816,0.09701 -0.0293,0.08537 0.11924,-0.01164 0.62054,0 0.89288,-0.312915 0.0571,-0.05539 0.12242,-0.201435 0.33902,-0.116769 0.11995,0.04586 0.34185,0.235654 0.5835,-0.140054 0.14252,0.0949 0.35912,0.05715 0.39335,-0.04763 0.0346,-0.104775 0.0741,-0.209196 0.0737,-0.280104 -2.6e-4,-0.07126 -0.006,-0.164748 -0.006,-0.164748 -0.005,-0.05644 -0.0247,-0.136525 -0.0561,-0.0508 m -13.75515,0.04092 c -0.0653,0.04374 -1.51448,0.836435 -1.58115,0.886177 -0.067,0.04903 -0.091,0.06244 -0.0984,0.116768 -0.008,0.05398 -0.0113,0.08537 -0.0138,0.09419 -0.0106,0.03704 -0.0166,0.08149 0.0815,0.0081 0.031,-0.02294 1.4933,-0.823383 1.54763,-0.864658 0.055,-0.04127 0.0885,-0.0575 0.1083,-0.115007 0.0198,-0.05715 0.0251,-0.06738 0.0349,-0.106892 0.0102,-0.04198 0.0212,-0.08643 -0.079,-0.01871 m 4.48662,0.293159 c -0.0307,0.07479 -0.15875,0.33302 -0.13899,0.636762 0.004,0.0702 0.0511,0.207081 0.15663,0.210963 0.0547,0 0.12559,-0.04022 0.17568,-0.211667 0.009,-0.03881 0.0141,-0.07021 0.0177,-0.08537 0.006,-0.02363 -0.0116,-0.0508 -0.0293,0.0024 -0.0399,0.10513 -0.14393,0.178507 -0.22189,0.03775 -0.0124,-0.02787 -0.0653,-0.155927 0.0314,-0.435681 0.0194,-0.05433 0.0441,-0.135112 0.0441,-0.135112 0.0212,-0.06138 -0.005,-0.09455 -0.0353,-0.02011"
       style="fill:#231f20;fill-opacity:1;fill-rule:evenodd;stroke:none;stroke-width:0.264583"
       id="path1-0" />
  </g>
</svg>
