<?xml version="1.0" encoding="UTF-8" standalone="no"?>
<!-- Created with Inkscape (http://www.inkscape.org/) -->

<svg
   width="17.583019mm"
   height="7.0314631mm"
   viewBox="0 0 17.583019 7.0314631"
   version="1.1"
   id="svg1"
   xmlns:inkscape="http://www.inkscape.org/namespaces/inkscape"
   xmlns:sodipodi="http://sodipodi.sourceforge.net/DTD/sodipodi-0.dtd"
   xmlns="http://www.w3.org/2000/svg"
   xmlns:svg="http://www.w3.org/2000/svg">
  <sodipodi:namedview
     id="namedview1"
     pagecolor="#ffffff"
     bordercolor="#666666"
     borderopacity="1.0"
     inkscape:showpageshadow="2"
     inkscape:pageopacity="0.0"
     inkscape:pagecheckerboard="0"
     inkscape:deskcolor="#d1d1d1"
     inkscape:document-units="mm" />
  <defs
     id="defs1" />
  <g
     inkscape:label="Layer 1"
     inkscape:groupmode="layer"
     id="layer1"
     transform="translate(-162.42676,-47.419261)">
    <path
       d="m 170.57536,47.559877 c -0.0586,0.08855 -0.10195,0.301274 -0.0183,0.36195 0.0825,0.06103 0.20461,0.110419 0.20461,0.110419 -0.3877,0.474133 -0.65264,0.56515 -0.87877,0.697796 -0.0582,0.03387 -0.0466,0.06456 -0.0123,0.05539 0.0173,-0.0046 0.32208,-0.05221 0.67804,-0.322085 0.19226,-0.14605 0.30868,-0.395816 0.30868,-0.395816 0,0 0.0963,0.08008 0.10936,0.09666 0.0293,0.03598 0.0452,0.06279 0.0589,0.02468 0.0508,-0.140758 -0.0208,-0.22507 -0.0892,-0.268816 0,0 0.0709,-0.218721 -0.0596,-0.438502 -0.0219,-0.03669 -0.15134,-0.154164 -0.30127,0.07832 m 0.20214,0.06032 c 0.0871,0.08114 0.0737,0.214136 0.0706,0.244827 0,0 -0.11148,-0.05221 -0.16122,-0.07373 -0.0497,-0.02117 -0.0762,-0.05292 -0.0529,-0.08432 0.0769,-0.108302 0.11465,-0.104069 0.14358,-0.08678 m -3.36691,0.253649 c -0.14429,0.213076 -0.13512,0.47907 -0.13476,0.776462 -0.0268,-0.06068 -0.18239,-0.448027 -0.60396,-0.645584 -0.0307,-0.01447 -0.0882,0.02082 -0.0871,0.115007 7.9e-4,0.05433 -0.005,0.187677 0.036,0.22225 0.0409,0.03493 0.15945,0.100541 0.17886,0.109008 0.0201,0.0092 0.0402,0.0092 0.0445,-0.0141 0.004,-0.02294 0.0261,-0.07726 0.0656,-0.04233 0.0332,0.02893 0.24483,0.179916 0.3736,0.522462 0.0212,0.04516 0.0645,0.04657 0.0699,-0.01976 0.0123,-0.164041 0.005,-0.446264 0.0116,-0.532341 0.01,-0.121005 0.049,-0.372182 0.2099,-0.255059 0.0367,0.02681 0.0762,0.06279 0.0762,0.06279 0.0349,0.0381 0.0787,0.08149 0.0952,0.03351 0.0247,-0.07267 0.0402,-0.192265 0.003,-0.253297 -0.0166,-0.02716 -0.22154,-0.251528 -0.33831,-0.07902 m -2.1142,0.32526 c -0.0554,0.122767 -0.27975,0.542925 -0.29386,1.059744 -0.003,0.119239 0.0459,0.356306 0.20073,0.375356 0.0804,0.0067 0.18979,-0.05186 0.28787,-0.33655 0.018,-0.06456 0.0307,-0.116768 0.0381,-0.141817 0.0109,-0.03881 -0.0102,-0.08749 -0.0437,2.65e-4 -0.0737,0.173215 -0.23671,0.285046 -0.33126,0.03669 -0.0145,-0.04868 -0.0737,-0.27164 0.10725,-0.733073 0.0363,-0.08925 0.0836,-0.222954 0.0836,-0.222954 0.0406,-0.100896 0.007,-0.160515 -0.0487,-0.03775 m 3.37679,0.02257 c -0.0589,0.143581 -0.29527,0.636413 -0.31538,1.239663 -0.005,0.138993 0.043,0.415218 0.20284,0.435678 0.0833,0.0067 0.1965,-0.06279 0.30128,-0.395816 0.0194,-0.07549 0.0328,-0.136525 0.0409,-0.166159 0.012,-0.04515 -0.01,-0.101951 -0.0455,7.94e-4 -0.078,0.2032 -0.24765,0.335492 -0.34219,0.04657 -0.0148,-0.0568 -0.0734,-0.31609 0.11888,-0.856192 0.0385,-0.104775 0.0889,-0.261408 0.0889,-0.261408 0.043,-0.118182 0.009,-0.186973 -0.0497,-0.04304 m 3.59375,0.131233 c -0.0702,0.10654 -0.12242,0.362657 -0.0222,0.435682 0.0998,0.07338 0.24624,0.132643 0.24624,0.132643 -0.46566,0.570797 -0.78457,0.679805 -1.05692,0.839259 -0.0702,0.04127 -0.0561,0.07796 -0.0155,0.06667 0.0215,-0.0056 0.38805,-0.06244 0.81597,-0.38735 0.23178,-0.176035 0.37218,-0.476602 0.37218,-0.476602 0,0 0.11536,0.09701 0.13124,0.116417 0.0353,0.04374 0.0543,0.07585 0.0709,0.02999 0.061,-0.168979 -0.025,-0.270934 -0.10759,-0.323496 0,0 0.0857,-0.263173 -0.0716,-0.52705 -0.0261,-0.0441 -0.18203,-0.185563 -0.36265,0.09384 m 0.24341,0.07267 c 0.10478,0.09772 0.0889,0.257881 0.085,0.294568 0,0 -0.13405,-0.06314 -0.19402,-0.08854 -0.06,-0.02574 -0.0917,-0.0635 -0.0639,-0.1016 0.0924,-0.129823 0.13794,-0.125238 0.17286,-0.104423 m 6.27874,-0.06385 c -0.0702,0.106891 -0.12241,0.362653 -0.0222,0.435678 0.10019,0.07338 0.24624,0.132647 0.24624,0.132647 -0.46567,0.570793 -1.38042,0.976841 -1.59809,1.146527 -0.0649,0.04939 -0.0561,0.07832 -0.0148,0.06738 0.036,-0.0099 0.73272,-0.204965 1.37018,-0.750713 0.2921,-0.250118 0.28399,-0.268817 0.35807,-0.42051 0.0635,0.03246 0.1069,0.08502 0.13159,0.11571 0.0356,0.0441 0.0543,0.07585 0.0709,0.02999 0.0614,-0.168981 -0.0251,-0.270581 -0.1076,-0.323146 0,0 0.0861,-0.263525 -0.0716,-0.527754 -0.0261,-0.0441 -0.18168,-0.185208 -0.36266,0.09419 m 0.24342,0.07267 c 0.10513,0.09772 0.0889,0.257882 0.0854,0.294571 0,0 -0.13405,-0.06244 -0.19438,-0.0882 -0.0596,-0.02574 -0.0914,-0.06385 -0.0635,-0.1016 0.0921,-0.130527 0.13758,-0.125587 0.17251,-0.104775 m -1.78823,-0.165452 c -0.18309,0.232834 -0.19473,0.539044 -0.21943,0.879827 -0.0254,-0.07126 -0.1718,-0.528812 -0.63923,-0.790927 -0.0339,-0.01871 -0.10301,0.01728 -0.10936,0.124884 -0.004,0.06279 -0.0219,0.215193 0.0222,0.258585 0.0441,0.04304 0.17498,0.128058 0.19685,0.1397 0.0219,0.01198 0.0455,0.01376 0.0519,-0.01236 0.007,-0.02646 0.0367,-0.08678 0.079,-0.04304 0.0356,0.03598 0.26564,0.226131 0.38559,0.63006 0.0205,0.05362 0.0702,0.05891 0.0818,-0.01728 0.0272,-0.186619 0.0423,-0.511175 0.0572,-0.6096 0.0212,-0.137935 0.0871,-0.422982 0.26212,-0.275167 0.0395,0.03351 0.0822,0.07796 0.0822,0.07796 0.037,0.04692 0.0836,0.100187 0.10619,0.04657 0.0342,-0.08149 0.0621,-0.216959 0.0247,-0.289984 -0.0166,-0.03281 -0.23354,-0.307271 -0.3817,-0.119239 m -1.80023,-0.01058 c -0.0677,0.03916 -1.78787,1.031875 -1.85737,1.077032 -0.0699,0.0448 -0.0945,0.05644 -0.10584,0.109712 -0.0109,0.05398 -0.0166,0.08537 -0.0198,0.09384 -0.0127,0.03598 -0.0215,0.08043 0.0811,0.01341 0.0321,-0.02082 1.76212,-1.020588 1.82245,-1.058333 0.0582,-0.03634 0.0921,-0.05186 0.11536,-0.10795 0.0233,-0.05539 0.0293,-0.06562 0.0416,-0.104072 0.0134,-0.04127 0.0265,-0.08502 -0.0776,-0.02363 m -9.42022,0.0695 c -0.0279,0.05327 -0.12312,0.255762 -0.0949,0.392287 0.13865,0.670632 0.24342,3.106915 0.24765,3.325284 0.005,0.218371 -0.0519,1.529998 0.68475,1.545873 0.16404,0.0035 0.38452,0.02646 0.69708,-0.361598 -0.0194,0.08502 -0.0639,0.606073 0.49989,0.777875 0.0656,0.01939 0.11783,0.0095 0.14464,-0.05221 0.0272,-0.06173 0.0984,-0.279751 0.06,-0.482248 0.0346,0.0074 0.86501,0.200025 1.85385,-0.198966 0.061,0.01905 0.45367,0.202848 0.98284,0 0.0586,-0.02222 0.2226,-0.115711 0.23989,-0.53975 0.008,-0.119944 0.0289,-0.657225 -0.0526,-1.169811 -0.0215,-0.165806 -0.23072,-2.157235 -0.23072,-2.157235 0,0 0.18945,0.193321 0.22014,0.228246 0.03,0.03493 0.0688,0.01871 0.0529,-0.03598 -0.0155,-0.05468 -0.37817,-1.047043 -0.38981,-1.081616 -0.0117,-0.03422 -0.0236,-0.05962 -0.0413,-0.02117 -0.018,0.03845 -0.15946,0.318206 -0.15946,0.318206 0.002,0.024 0.0561,0.107244 0.0713,0.252236 0.0155,0.150283 0.36124,3.557764 0.36618,3.610329 0.005,0.05256 0.0251,0.222954 -0.0688,0.26176 -0.0945,0.03916 -0.4505,0.09666 -0.57679,0.04833 0.0159,-0.02999 0.1905,-0.4064 0.0713,-0.767292 -0.0342,-0.09172 -0.14711,-0.4318 -0.41134,-0.20179 -0.26388,0.229659 -0.49354,0.63359 -0.3556,0.996599 0,0 -1.51342,0.46637 -2.09444,-0.330907 -0.06,-0.05045 -0.0642,-0.03422 -0.10337,0.01871 -0.0391,0.05292 -0.11959,0.381352 -0.50764,0.47766 -0.0596,0.01622 -0.47661,0.125942 -0.66816,-0.454731 -0.12489,-0.378177 -0.13335,-2.868787 -0.19897,-3.308702 -0.0233,-0.155575 -0.0702,-0.789868 -0.15981,-1.069623 -0.0307,-0.08114 -0.0505,-0.07302 -0.0787,-0.01976 m 4.43054,4.183591 c 0.13088,0.239535 -0.20003,0.340429 -0.26459,0.365125 0,0 -0.12735,-0.04163 -0.21131,-0.148166 -0.0833,-0.10654 0.0554,-0.264584 0.17886,-0.34784 0.12382,-0.08396 0.24553,0.02257 0.29704,0.130881 m -2.39819,1.004004 c 0.0483,0.09419 -0.0194,0.08396 -0.0667,0.05362 -0.24095,-0.154165 -0.31574,-0.370768 -0.31786,-0.407106 0,0 0.23002,0.05433 0.38453,0.353483 m -4.01284,-5.11316 c -0.17428,0.221191 -0.18521,0.512585 -0.2085,0.837141 -0.0243,-0.06808 -0.16369,-0.50306 -0.60819,-0.752475 -0.0324,-0.01799 -0.0981,0.01622 -0.10406,0.118886 -0.004,0.05962 -0.0208,0.204613 0.0212,0.245888 0.042,0.04092 0.16651,0.121708 0.18733,0.132995 0.0208,0.01164 0.043,0.01304 0.0494,-0.01199 0.006,-0.02468 0.0346,-0.0822 0.0748,-0.04127 0.0342,0.03457 0.25295,0.2159 0.36689,0.600075 0.0198,0.0508 0.067,0.05574 0.078,-0.01659 0.0265,-0.1778 0.0406,-0.486479 0.0547,-0.579612 0.0198,-0.131588 0.0829,-0.402873 0.24906,-0.262115 0.0377,0.0321 0.078,0.07408 0.078,0.07408 0.0356,0.0448 0.0797,0.0956 0.1016,0.0441 0.0325,-0.07761 0.0589,-0.206024 0.0229,-0.275874 -0.0155,-0.03104 -0.2219,-0.292451 -0.36301,-0.113241 m 5.70513,0.847018 c -0.10019,0.109009 -0.13088,0.183447 -0.16122,0.230365 -0.0409,0.06421 0.0109,0.09243 0.0575,0.04268 0.0462,-0.04974 0.0783,-0.100187 0.21414,-0.09631 0.13546,0.0035 0.46037,-0.0092 0.33901,0.08008 -0.12135,0.08925 -0.20355,0.141111 -0.20355,0.141111 -0.0787,0.05645 -0.14816,0.162279 -0.009,0.103716 0.13935,-0.05891 0.32315,-0.152045 0.46426,-0.364418 0.0413,-0.06173 0.0892,-0.144285 -0.10196,-0.17286 -0.19085,-0.02893 -0.49953,-0.07338 -0.59936,0.03563 m -2.44793,0.164042 c -0.0279,0.08784 -0.14746,0.39088 -0.10725,0.738013 0.01,0.08043 0.0681,0.234243 0.18133,0.232127 0.0586,-0.0035 0.13159,-0.05327 0.17357,-0.253294 0.007,-0.0448 0.0106,-0.08079 0.0134,-0.09913 0.004,-0.02646 -0.0159,-0.0575 -0.031,0.0049 -0.0363,0.122766 -0.14217,0.213783 -0.2346,0.05644 -0.0152,-0.0314 -0.0797,-0.174625 0.005,-0.500943 0.0169,-0.0635 0.0381,-0.15734 0.0381,-0.15734 0.0191,-0.07161 -0.0109,-0.108302 -0.0388,-0.02082 m 1.88454,0.606425 c -0.0804,0.04198 -2.36114,1.153231 -2.44369,1.198388 -0.0819,0.0448 -0.10619,0.0635 -0.11889,0.123825 -0.0123,0.06068 -0.0187,0.09278 -0.0222,0.105479 -0.0117,0.04127 -0.0286,0.08326 0.091,0.01482 0.0374,-0.02117 2.34033,-1.134178 2.40489,-1.176866 0.0646,-0.04269 0.10336,-0.05821 0.12982,-0.121354 0.0261,-0.06244 0.0328,-0.07373 0.0466,-0.117475 0.0152,-0.04622 0.0339,-0.08926 -0.0875,-0.02681 m 0.99554,1.038225 -0.16828,0.230365 -0.32314,-0.235302 c -0.008,-0.006 -0.0198,-0.0039 -0.0257,0.0049 l -0.19509,0.267054 c -0.006,0.0085 -0.005,0.02045 0.003,0.02612 l 0.33302,0.243064 c 0.008,0.0053 0.0194,0.0032 0.0257,-0.0049 l 0.16828,-0.231069 0.32314,0.236008 c 0.008,0.0053 0.0194,0.0032 0.0257,-0.0049 l 0.19509,-0.267404 c 0.006,-0.0085 0.005,-0.02011 -0.004,-0.02611 l -0.33267,-0.24271 c -0.008,-0.006 -0.0198,-0.0039 -0.0257,0.0049 m -1.69475,0.205671 c -0.0349,0.09983 -0.18344,0.4445 -0.13511,0.838552 0.0109,0.09102 0.0822,0.265642 0.22084,0.262467 0.0716,-0.0042 0.16122,-0.06138 0.21413,-0.288573 0.008,-0.05115 0.0134,-0.09208 0.0169,-0.111829 0.005,-0.03069 -0.019,-0.06526 -0.0388,0.0049 -0.0444,0.140054 -0.17533,0.243771 -0.28716,0.06597 -0.0187,-0.03563 -0.097,-0.198263 0.009,-0.569032 0.0212,-0.07232 0.0476,-0.179564 0.0476,-0.179564 0.0236,-0.08079 -0.0127,-0.122767 -0.0473,-0.02294 m 7.28874,-1.651 c -0.0349,0.08467 -0.17886,0.375002 -0.15698,0.71755 0.005,0.07902 0.0575,0.233185 0.17674,0.237419 0.0617,0 0.14146,-0.0448 0.19791,-0.238477 0.01,-0.0441 0.0155,-0.07867 0.0198,-0.09631 0.006,-0.02611 -0.013,-0.05715 -0.0328,0.0028 -0.0455,0.118887 -0.16263,0.201789 -0.25012,0.04269 -0.0145,-0.03175 -0.0734,-0.175683 0.0353,-0.491066 0.0215,-0.06138 0.0494,-0.152048 0.0494,-0.152048 0.0243,-0.06914 -0.005,-0.10654 -0.0392,-0.02257 m 3.30694,0.173566 c -0.0317,0.07796 -0.16545,0.346779 -0.14499,0.663927 0.005,0.07338 0.0533,0.2159 0.16369,0.220134 0.0568,-2.65e-4 0.13088,-0.04198 0.18344,-0.22084 0.009,-0.04092 0.0145,-0.07338 0.0183,-0.0889 0.006,-0.02469 -0.0124,-0.05327 -0.031,0.0021 -0.0413,0.109715 -0.15028,0.186622 -0.23142,0.03951 -0.013,-0.02928 -0.0677,-0.162631 0.0328,-0.454379 0.0201,-0.0568 0.0459,-0.14111 0.0459,-0.14111 0.0226,-0.06385 -0.005,-0.09878 -0.0367,-0.02045 m -6.72359,0.0081 -0.19508,0.267758 c -0.006,0.0081 -0.005,0.01976 0.004,0.02574 l 0.33266,0.242711 c 0.008,0.006 0.0198,0.0039 0.0257,-0.0049 l 0.16827,-0.230362 0.32315,0.235302 c 0.008,0.006 0.0198,0.0039 0.0257,-0.0049 l 0.19509,-0.267052 c 0.006,-0.0088 0.005,-0.02045 -0.003,-0.02611 l -0.33302,-0.243063 c -0.008,-0.0056 -0.0194,-0.0032 -0.0257,0.0049 l -0.16828,0.230717 -0.32315,-0.235654 c -0.008,-0.0056 -0.0194,-0.0032 -0.0257,0.0049 m -6.71336,0.109363 c -0.0699,0.03528 -1.91911,0.761293 -1.99108,0.801862 -0.0727,0.04022 -0.0981,0.05045 -0.11253,0.103365 -0.0145,0.05292 -0.0222,0.08361 -0.0254,0.09208 -0.0148,0.03457 -0.0268,0.07867 0.0797,0.01871 0.0335,-0.01905 1.89582,-0.751417 1.9558,-0.785638 0.0593,-0.03387 0.0949,-0.04586 0.1217,-0.100187 0.0265,-0.05398 0.0332,-0.0635 0.048,-0.101249 0.0159,-0.04057 0.0318,-0.08326 -0.0762,-0.02893 m 8.53405,0.306562 c -0.013,0.04551 -0.0459,0.239889 -0.054,0.280106 -0.008,0.04022 -0.007,0.07973 0.0127,0.113948 0.0201,0.03457 0.0706,0.152752 0.10689,0.249412 0.037,0.09596 0.41452,0.823738 0.44944,0.888297 0.0349,0.0642 0.042,0.112535 0.007,0.15522 -1.21285,1.279525 -3.55318,2.066221 -3.62797,2.109965 -0.0748,0.04339 -0.055,0.07726 0.0709,0.05503 0.18839,-0.03281 1.23966,-0.208492 1.53917,-0.353131 0.19791,-0.09525 0.88794,-0.433917 1.45239,-0.8763 -0.0155,0.113948 -0.03,0.281871 -0.0219,0.4953 0.0377,1.029054 0.95779,0.857956 1.19909,0.805039 0.72425,-0.15875 1.60902,-1.158875 1.68416,-1.359958 0.0741,-0.198615 0.085,-0.37959 0.0684,-0.537633 0.1905,-0.10301 0.59972,-0.43321 0.59972,-0.43321 0.0169,0.438853 0.36619,0.570441 0.47343,0.589491 0.50377,0.07655 0.75636,-0.344313 0.86325,-0.480483 0.0917,0.240242 0.31221,0.286808 0.4258,0.309385 0.43427,0.08678 0.51858,-0.220485 0.54151,-0.29069 0.13617,-0.423685 -0.10936,-0.73942 -0.14111,-0.774345 -0.0314,-0.03528 -0.0473,-0.0019 -0.0586,0.0388 -0.0109,0.04092 -0.0466,0.193675 -0.0681,0.288925 0,0 0.091,0.147814 0.12347,0.223308 0.0318,0.0755 -0.0159,0.116771 -0.10936,0.128058 -0.26424,0.03246 -0.4752,-0.119237 -0.54787,-0.188735 -0.0727,-0.06985 0.006,-0.193675 0.0646,-0.341135 0.0469,-0.118182 -0.0399,-0.132646 -0.10689,-2.65e-4 -0.22401,0.58914 -0.53869,0.652288 -0.6216,0.674865 -0.74577,0.2032 -0.68156,-0.478718 -0.67874,-0.590198 0.002,-0.112183 -0.0794,-0.07091 -0.1711,0.0028 -0.31397,0.252235 -0.56691,0.400402 -0.70273,0.461081 -0.11748,-0.228954 -0.28752,-0.372887 -0.35948,-0.424746 -0.80716,-0.588785 -0.87383,0.599017 -0.84949,0.726723 0.12277,0.505177 0.94791,0.198615 1.07738,0.183798 0.12912,-0.01553 0.0871,0.155221 0.0145,0.256821 -0.17921,0.250121 -0.38559,0.429683 -0.57291,0.582438 -0.79975,0.652637 -1.20086,0.600779 -1.32433,0.596545 -0.78564,-0.02188 -0.71332,-0.868185 -0.66957,-1.04916 0.23601,-0.200377 0.43921,-0.41769 0.55703,-0.641702 0.048,-0.122415 0.13088,-0.401463 -0.0187,-0.751417 -0.0787,-0.154164 -0.32633,-0.586316 -0.32633,-0.586316 0,0 0.18239,0.0056 0.19968,0.0053 0.0173,-2.64e-4 0.0519,-0.01799 0.007,-0.06915 -0.0441,-0.05115 -0.42757,-0.433562 -0.4505,-0.464254 -0.0233,-0.03069 -0.0445,-0.05292 -0.0572,-0.0078 m 2.42182,1.7526 c 0,0 -0.10972,0.06315 -0.41734,0.04269 -0.25788,-0.01728 -0.2353,-0.117475 -0.20038,-0.156281 0.0385,-0.04127 0.35419,-0.23989 0.61772,0.113593 m -13.75481,-1.707091 c -0.0575,0.127354 -0.29068,0.563387 -0.30515,1.099608 -0.003,0.102306 0.0317,0.287515 0.13441,0.360188 -0.0102,0.0095 -0.0215,0.02434 -0.0342,0.04515 -0.0681,0.113241 -0.65758,1.606904 0.47801,1.976262 0.24871,0.08079 0.90417,0.239887 2.11349,-0.628298 0.11501,-0.08255 0.67663,-0.421923 0.53517,-0.992364 -0.0162,-0.07973 -0.32209,-0.815269 -0.32209,-0.815269 0.0741,0.0314 0.12206,0.04622 0.14817,0.05821 0.0265,0.01236 0.072,-0.01447 0.0314,-0.07056 -0.0409,-0.05574 -0.31115,-0.392994 -0.31821,-0.414867 -0.007,-0.02188 -0.0194,-0.0388 -0.0265,-0.06809 -0.007,-0.02893 -0.0264,-0.02434 -0.0381,0 -0.0123,0.02469 -0.0864,0.262115 -0.091,0.283985 -0.005,0.02222 0.0501,0.240596 0.0861,0.34008 0.0931,0.283985 0.29175,0.681566 0.3228,0.747535 0.031,0.06562 0.0864,0.172508 0.012,0.269523 -0.0741,0.09701 -0.67557,0.678744 -1.67358,0.92075 -0.15698,0.0381 -0.81703,0.169685 -1.16557,-0.330906 -0.0572,-0.0822 -0.32315,-0.492832 -0.0187,-1.259417 0.006,-0.01304 0.009,-0.02574 0.0102,-0.03775 0.008,0.0024 0.0159,0.0042 0.0247,0.0053 0.0832,0.0067 0.19685,-0.05362 0.29845,-0.34925 0.0187,-0.06703 0.0317,-0.121002 0.0395,-0.147461 0.0116,-0.03986 -0.0106,-0.09066 -0.0455,7.94e-4 -0.0762,0.179562 -0.24518,0.295627 -0.34361,0.03775 -0.0148,-0.05044 -0.0765,-0.281868 0.11148,-0.760235 0.0377,-0.09278 0.0868,-0.231423 0.0868,-0.231423 0.042,-0.105127 0.007,-0.166862 -0.0505,-0.03916 m 10.43834,0.282575 c -0.0533,0.06597 -0.58949,0.769763 -0.58949,0.769763 l -0.39018,-0.27799 c 0,0 0.15911,-0.03986 0.18698,-0.04798 0.0275,-0.0081 0.0434,-0.0441 -0.007,-0.06985 -0.0497,-0.02574 -0.51999,-0.21308 -0.55562,-0.227542 -0.036,-0.01447 -0.049,-0.03069 -0.0522,0.0074 -0.003,0.0381 -0.008,0.347485 -0.008,0.347485 0,0 -0.007,0.02188 0.0339,0.04516 0.0409,0.02328 0.0811,0.07302 0.115,0.106892 0.0335,0.03316 0.47096,0.378529 0.49213,0.390525 0,0 -0.21837,0.384527 -0.2466,0.685445 -0.0279,0.300922 0.005,0.71614 0.41664,0.582438 0.11077,-0.03175 0.5715,-0.214841 0.67451,-0.536223 0.0335,-0.118181 0.12841,-0.331965 -0.0261,-0.548923 -0.0892,-0.127352 -0.44873,-0.342545 -0.44873,-0.342545 0,0 0.27587,-0.381707 0.30233,-0.428625 0.0265,-0.04657 0.12806,-0.342548 0.13935,-0.414515 0.0109,-0.07162 0.0166,-0.107244 -0.0367,-0.04092 m -0.0945,1.622779 c -0.15276,0.125587 -0.47379,0.291746 -0.5641,0.300567 -0.0899,0.0085 -0.32949,-0.03563 -0.22542,-0.280813 0.0356,-0.07937 0.27517,-0.48895 0.27517,-0.48895 0.0892,0.04939 0.66745,0.343255 0.51435,0.469196 m -9.80932,-0.35089 c -0.0279,0.08784 -0.14781,0.390879 -0.10724,0.738365 0.009,0.08008 0.0681,0.234243 0.18097,0.231423 0.0586,-0.0028 0.13159,-0.05257 0.17392,-0.252942 0.007,-0.0448 0.0106,-0.08079 0.0134,-0.09878 0.004,-0.02681 -0.0159,-0.0575 -0.0314,0.0049 -0.036,0.122767 -0.14217,0.213432 -0.23425,0.05609 -0.0152,-0.0314 -0.0797,-0.174625 0.005,-0.500944 0.0173,-0.0635 0.0381,-0.157339 0.0381,-0.157339 0.0194,-0.07162 -0.0106,-0.10795 -0.0384,-0.02082 m 0.82162,0.06773 -0.19509,0.267407 c -0.006,0.0088 -0.005,0.02045 0.003,0.02611 l 0.33302,0.24271 c 0.008,0.0056 0.0194,0.0035 0.0257,-0.0046 l 0.19509,-0.267406 c 0.006,-0.0088 0.005,-0.02045 -0.004,-0.02611 l -0.33267,-0.24271 c -0.008,-0.006 -0.0198,-0.0042 -0.0257,0.0046 m 15.21883,0.84455 c -0.0314,0.08643 -0.0434,0.14323 -0.0402,0.176038 0.004,0.03281 0.0148,0.138994 0.0148,0.138994 -0.0325,0.02611 -0.16898,0.111125 -0.3055,0.01058 0.009,-0.02928 0.0265,-0.08855 0.0307,-0.121356 0.0148,-0.05045 -0.0162,-0.08819 -0.0413,-0.03598 -0.0251,0.05257 -0.0829,0.228248 -0.12594,0.267759 -0.043,0.03951 -0.0935,0.184856 -0.41981,0.03704 -0.0568,-0.02151 -0.15663,-0.09595 -0.31256,0.06068 -0.35242,0.327729 -0.59619,0.353483 -0.9913,0.493887 -0.048,0.02188 -0.14817,0.09737 -0.0289,0.08537 0.11924,-0.01199 0.62018,2.65e-4 0.89288,-0.312915 0.0568,-0.05539 0.12206,-0.201435 0.33902,-0.116768 0.11994,0.04586 0.34149,0.235656 0.58349,-0.140052 0.14217,0.09454 0.35878,0.0568 0.3937,-0.04762 0.0339,-0.104775 0.0737,-0.208846 0.0734,-0.279755 -2.6e-4,-0.07126 -0.007,-0.1651 -0.007,-0.1651 -0.005,-0.05644 -0.0247,-0.136877 -0.0557,-0.0508 m -13.88851,0.667809 c -0.0286,0.03351 -0.0497,0.06138 -0.0614,0.07408 -0.0173,0.02011 -0.0148,0.05574 0.03,0.01341 0.0938,-0.0822 0.23319,-0.100189 0.23601,0.07761 -0.002,0.03387 -0.0173,0.185914 -0.25611,0.408516 -0.0469,0.04304 -0.11289,0.109363 -0.11289,0.109363 -0.0526,0.04833 -0.0445,0.09419 0.024,0.03704 0.0688,-0.0568 0.32703,-0.242007 0.46532,-0.548571 0.0321,-0.07055 0.0575,-0.2286 -0.0437,-0.286809 -0.0536,-0.02822 -0.14322,-0.02611 -0.28116,0.115359 m 4.34622,0.313973 c -0.0286,0.03351 -0.0501,0.06068 -0.0614,0.07408 -0.0173,0.01939 -0.0152,0.05539 0.03,0.0127 0.0935,-0.0822 0.23318,-0.10019 0.23565,0.07796 -0.002,0.03387 -0.0169,0.185912 -0.25576,0.408868 -0.0469,0.04269 -0.11289,0.109009 -0.11289,0.109009 -0.0529,0.04833 -0.0448,0.09454 0.024,0.03739 0.0688,-0.05715 0.32703,-0.242358 0.46532,-0.549275 0.0318,-0.07055 0.0572,-0.228245 -0.0441,-0.286808 -0.0533,-0.02787 -0.14287,-0.02574 -0.28081,0.116065"
       style="fill:#231f20;fill-opacity:1;fill-rule:evenodd;stroke:none;stroke-width:0.264583"
       id="path1-02" />
  </g>
</svg>
