<?xml version="1.0" encoding="UTF-8" standalone="no"?>
<!-- Created with Inkscape (http://www.inkscape.org/) -->

<svg
   width="18.523804mm"
   height="6.1676631mm"
   viewBox="0 0 18.523804 6.1676631"
   version="1.1"
   id="svg1"
   xmlns:inkscape="http://www.inkscape.org/namespaces/inkscape"
   xmlns:sodipodi="http://sodipodi.sourceforge.net/DTD/sodipodi-0.dtd"
   xmlns="http://www.w3.org/2000/svg"
   xmlns:svg="http://www.w3.org/2000/svg">
  <sodipodi:namedview
     id="namedview1"
     pagecolor="#ffffff"
     bordercolor="#666666"
     borderopacity="1.0"
     inkscape:showpageshadow="2"
     inkscape:pageopacity="0.0"
     inkscape:pagecheckerboard="0"
     inkscape:deskcolor="#d1d1d1"
     inkscape:document-units="mm" />
  <defs
     id="defs1" />
  <g
     inkscape:label="Layer 1"
     inkscape:groupmode="layer"
     id="layer1"
     transform="translate(-140.7916,-30.792747)">
    <path
       d="m 145.82623,30.8332 c -0.0861,0.05221 -2.35091,1.167696 -2.43981,1.226963 -0.0885,0.05927 -0.1203,0.07479 -0.13335,0.144285 -0.0134,0.06914 -0.0201,0.10936 -0.0236,0.12065 -0.0155,0.04657 -0.0265,0.103717 0.10442,0.01516 0.0409,-0.02716 2.32233,-1.152171 2.39536,-1.202267 0.073,-0.04939 0.11712,-0.06844 0.14605,-0.140758 0.0289,-0.07197 0.0363,-0.08502 0.0515,-0.135112 0.0162,-0.05327 0.0324,-0.109715 -0.10055,-0.02893 m -2.85291,0.06562 c -0.0289,0.08678 -0.15416,0.387704 -0.10971,0.729546 0.0102,0.07902 0.073,0.230362 0.19261,0.226483 0.0621,-0.0042 0.13864,-0.05433 0.18274,-0.252238 0.007,-0.04445 0.0109,-0.08008 0.0138,-0.09772 0.004,-0.02646 -0.0173,-0.05644 -0.0332,0.0049 -0.0374,0.122061 -0.14958,0.212725 -0.24765,0.05927 -0.0166,-0.03105 -0.0854,-0.17145 0.003,-0.494596 0.0177,-0.06279 0.0395,-0.155927 0.0395,-0.155927 0.0198,-0.07056 -0.0116,-0.10654 -0.0409,-0.01976 m 4.52014,0.02082 c -0.133,0.218723 -0.11148,0.483659 -0.0977,0.779992 -0.0293,-0.05927 -0.20144,-0.43815 -0.6283,-0.616302 -0.031,-0.0127 -0.0864,0.02506 -0.0811,0.118533 0.003,0.05433 0.004,0.187325 0.0459,0.220486 0.042,0.03246 0.16228,0.09243 0.18239,0.100189 0.0201,0.0085 0.0406,0.0074 0.0434,-0.01587 0.003,-0.02328 0.0222,-0.07832 0.0631,-0.04516 0.0342,0.02752 0.25082,0.167923 0.39441,0.503767 0.0233,0.04374 0.0663,0.04339 0.0684,-0.02328 0.005,-0.163689 -0.0159,-0.4445 -0.013,-0.530931 0.004,-0.121002 0.0314,-0.373237 0.1965,-0.263171 0.0374,0.02469 0.078,0.05891 0.078,0.05891 0.0367,0.03634 0.0822,0.07761 0.096,0.02893 0.0212,-0.07373 0.031,-0.193323 -0.009,-0.25259 -0.0173,-0.02611 -0.23108,-0.240593 -0.33903,-0.0635 m 4.07741,0.129823 c -0.0702,0.106892 -0.12241,0.362654 -0.0219,0.435679 0.0998,0.07338 0.24588,0.132646 0.24588,0.132646 -0.46566,0.570794 -0.78422,0.679802 -1.05692,0.839259 -0.0699,0.04128 -0.0561,0.07796 -0.0152,0.06703 0.0212,-0.0056 0.38771,-0.06279 0.81598,-0.387702 0.23177,-0.175684 0.37183,-0.47625 0.37183,-0.47625 0,0 0.11571,0.09666 0.13158,0.116416 0.0349,0.04339 0.0543,0.07549 0.0706,0.02963 0.061,-0.168982 -0.0251,-0.270934 -0.10725,-0.323146 0,0 0.0854,-0.263525 -0.072,-0.527402 -0.0261,-0.0441 -0.18168,-0.185561 -0.36266,0.09384 m 0.24377,0.07302 c 0.10478,0.09737 0.0889,0.257527 0.0847,0.294217 0,0 -0.13406,-0.0628 -0.19403,-0.0882 -0.06,-0.02574 -0.0914,-0.06385 -0.0639,-0.101952 0.0924,-0.129823 0.13793,-0.12559 0.17321,-0.104069 m -1.84573,-0.226837 c -0.0166,0.03916 -0.11254,0.303389 -0.11254,0.303389 0.0261,0.171802 0.25294,2.014361 0.26811,2.140302 0.0148,0.12559 0.33408,2.210155 0.35067,2.786946 -0.004,0.05891 0.0212,0.08079 0.0483,0.024 0.0268,-0.05644 0.21272,-0.44097 -0.008,-1.851025 -0.0162,-0.117475 -0.35066,-2.500135 -0.35066,-2.500135 0,0 0.1972,0.185208 0.22895,0.218723 0.0318,0.03351 0.0702,0.01588 0.0522,-0.03845 -0.0183,-0.05362 -0.42227,-1.03011 -0.43532,-1.063976 -0.013,-0.03387 -0.0257,-0.05856 -0.042,-0.01976 m -0.96344,0 c -0.0166,0.03916 -0.1464,0.324909 -0.1464,0.324909 0.004,0.02328 0.0342,0.09349 0.055,0.237773 0.0219,0.149577 0.16545,1.177925 0.24977,1.813631 0,0 0.127,1.091846 0.127,1.133475 0,0.04163 0.005,0.07408 -0.037,0.09948 -0.0416,0.0254 -0.46602,0.175684 -0.64735,-0.186973 0.0138,-0.09031 0.0152,-0.07479 0.0198,-0.113948 0.005,-0.03916 -0.0183,-0.120295 -0.067,-0.02999 -0.0487,0.09031 -0.17603,0.460727 -0.43074,0.442031 -0.0811,-0.0092 -0.22472,-0.05997 -0.25223,-0.201083 0.0321,-0.07197 0.0416,-0.09737 0.0529,-0.125238 0.012,-0.02787 -0.009,-0.09031 -0.06,-0.03457 -0.0512,0.05538 -0.30586,0.430387 -0.58596,0.377118 -0.0811,-0.01834 -0.32173,-0.09243 -0.42122,-0.476956 -0.0279,-0.08784 -0.0628,-0.404987 -0.2801,-0.231421 -0.21802,0.173567 -0.28964,0.331259 -0.35701,0.428271 -0.067,0.09737 -0.13194,0.333375 -1.03964,0.750358 -0.0554,0.08043 -0.13935,0.231423 -0.15628,0.273757 -0.0169,0.04198 0,0.06421 0.0307,0.06138 0.031,-0.0028 0.54328,0.0141 1.51765,0.260702 -0.0416,0.03069 -0.92392,0.490008 -1.34126,0.310798 -0.14535,-0.05609 -0.37783,-0.198967 -0.4759,-0.83185 -0.0392,-0.193323 -0.16827,-1.164873 -0.41734,-1.794933 -0.0645,-0.159809 -0.28575,-0.630061 -0.33055,-0.694619 -0.0448,-0.06456 -0.0646,-0.09243 -0.0811,-0.01659 -0.0166,0.07549 -0.0674,0.335843 -0.0226,0.433916 0.0448,0.09772 0.36019,0.987073 0.4318,1.285169 0.0222,0.09455 0.0646,0.266348 0.11325,0.461081 -0.005,-0.0095 -0.008,-0.01588 -0.008,-0.01588 -0.0169,0.117827 -0.3108,0.903465 -1.53353,1.402998 -0.11888,0.04904 -0.71261,0.216959 -0.61736,-0.524933 0.0141,-0.123473 0.10407,-0.562329 0.14111,-0.724958 0.15981,-0.09102 0.33444,-0.228955 0.393,-0.412046 0.0335,-0.118179 0.12806,-0.331963 -0.0261,-0.548921 -0.0892,-0.127354 -0.44873,-0.342548 -0.44873,-0.342548 0,0 0.27587,-0.381706 0.30233,-0.428273 0.0265,-0.04692 0.12806,-0.3429 0.13935,-0.414512 0.0109,-0.07197 0.0166,-0.107598 -0.0367,-0.04163 -0.0533,0.06632 -0.58949,0.770115 -0.58949,0.770115 l -0.39018,-0.27799 c 0,0 0.15911,-0.03986 0.18698,-0.04798 0.0275,-0.0081 0.0434,-0.0441 -0.006,-0.06985 -0.0501,-0.0254 -0.52035,-0.213077 -0.55633,-0.227541 -0.0356,-0.01447 -0.0487,-0.03069 -0.0519,0.0074 -0.003,0.0381 -0.008,0.347485 -0.008,0.347485 0,0 -0.007,0.02188 0.0339,0.04516 0.0409,0.02328 0.0815,0.07338 0.115,0.106539 0.0339,0.03387 0.47096,0.378884 0.49213,0.390877 0,0 -0.21872,0.384527 -0.24624,0.685448 -0.0282,0.300919 0.005,0.716492 0.41628,0.582436 0.0328,-0.0092 0.0956,-0.03175 0.17074,-0.06703 -0.11359,0.345368 -0.44662,1.464379 0.19544,1.639358 0.0963,0.02611 0.62477,0.07303 1.46262,-0.716846 0.10865,-0.101952 0.49036,-0.431094 0.56444,-0.745771 0.0808,0.315384 0.15663,0.607836 0.17921,0.675921 0.0466,0.138996 0.21026,0.5715 0.76906,0.529167 0.17639,-0.0081 0.63006,-0.142521 1.36913,-0.549979 0.16404,-0.0882 0.72919,-0.223309 1.10313,-0.156282 0.0505,-0.07267 0.1898,-0.348898 0.1898,-0.348898 -0.0727,-0.0141 -1.61255,0.01659 -2.32657,-0.234243 0.0723,-0.05009 0.3429,-0.348898 0.40993,-0.463198 0.067,-0.1143 0.20672,-0.320675 0.29033,-0.376767 0.0836,-0.05539 0.11995,-0.09172 0.13935,0.0113 0.0194,0.103364 0.0586,0.597252 0.51611,0.678039 0.078,0.01093 0.37642,0.01659 0.54963,-0.237066 0.27058,0.499179 0.68615,0.175683 0.73942,-0.106188 0,0 0.11713,0.242713 0.40464,0.276225 0.0914,0.01058 0.42651,0.05327 0.58279,-0.54116 0.037,-0.141465 -0.0148,-0.713669 -0.0335,-0.859367 -0.0191,-0.150283 -0.23354,-1.721202 -0.23354,-1.721202 0,0 0.20284,0.18556 0.23459,0.219075 0.0314,0.03351 0.0702,0.01588 0.0519,-0.03845 -0.018,-0.05362 -0.42192,-1.030111 -0.43497,-1.063977 -0.0127,-0.03387 -0.0258,-0.05856 -0.042,-0.01976 m -6.34124,3.528137 c -0.15275,0.12559 -0.47413,0.291748 -0.56409,0.300215 -0.0903,0.0088 -0.32984,-0.03528 -0.22577,-0.280459 0.0356,-0.07937 0.27516,-0.48895 0.27516,-0.48895 0.0893,0.04904 0.66746,0.343252 0.5147,0.469194 m 15.42874,-3.278717 c -0.0702,0.106892 -0.12206,0.362657 -0.0219,0.435682 0.0998,0.07338 0.24624,0.132643 0.24624,0.132643 -0.46602,0.570794 -1.38042,0.976842 -1.59809,1.146527 -0.0649,0.04904 -0.0564,0.07832 -0.0152,0.06703 0.036,-0.0095 0.73308,-0.204613 1.37019,-0.750359 0.29175,-0.250121 0.28434,-0.269171 0.35842,-0.420864 0.0635,0.03281 0.10689,0.08573 0.13159,0.116416 0.0353,0.04374 0.0543,0.07585 0.0705,0.02963 0.0614,-0.168982 -0.0251,-0.270934 -0.10724,-0.323144 0,0 0.0857,-0.263525 -0.0716,-0.527404 -0.0265,-0.0441 -0.18168,-0.185561 -0.36301,0.09384 m 0.24341,0.07303 c 0.10513,0.09737 0.0893,0.257527 0.0854,0.294217 0,0 -0.13406,-0.06279 -0.19438,-0.08819 -0.0596,-0.02574 -0.091,-0.06385 -0.0639,-0.101954 0.0928,-0.129821 0.13829,-0.125587 0.17286,-0.104069 m -1.78822,-0.165806 c -0.1831,0.232833 -0.19474,0.538692 -0.21908,0.879829 -0.0257,-0.07126 -0.1718,-0.528814 -0.63959,-0.790929 -0.0339,-0.01871 -0.10301,0.01728 -0.10936,0.124883 -0.004,0.0628 -0.0219,0.215196 0.0226,0.258588 0.0441,0.04304 0.17463,0.127704 0.1965,0.140052 0.0222,0.01199 0.0455,0.01341 0.0522,-0.0127 0.007,-0.02611 0.0363,-0.08713 0.0787,-0.04339 0.0356,0.03598 0.26599,0.226836 0.38559,0.630767 0.0205,0.05327 0.0705,0.05856 0.0818,-0.01728 0.0275,-0.186973 0.0427,-0.51153 0.0575,-0.609955 0.0208,-0.137935 0.0868,-0.423333 0.26212,-0.275166 0.0395,0.03387 0.0818,0.07796 0.0818,0.07796 0.0374,0.04692 0.084,0.100542 0.10654,0.04622 0.0346,-0.08114 0.0621,-0.216606 0.0243,-0.289983 -0.0166,-0.03246 -0.23354,-0.306917 -0.3817,-0.118888 m -1.80023,-0.01058 c -0.0674,0.03916 -1.78752,1.031875 -1.85737,1.077031 -0.0695,0.0448 -0.0942,0.05609 -0.10548,0.110067 -0.0113,0.05398 -0.0169,0.08467 -0.0201,0.09349 -0.0124,0.03598 -0.0212,0.08008 0.0815,0.01304 0.0318,-0.02082 1.76177,-1.020234 1.8221,-1.058334 0.0582,-0.03634 0.0921,-0.05151 0.11571,-0.107598 0.0229,-0.05539 0.0293,-0.06526 0.0416,-0.104068 0.013,-0.04163 0.0265,-0.08502 -0.078,-0.02363 m -9.11789,0.322087 c -0.0289,0.08678 -0.15452,0.387702 -0.10972,0.729544 0.0106,0.07902 0.073,0.23001 0.19297,0.226483 0.0614,-0.0046 0.13864,-0.05433 0.18239,-0.252235 0.007,-0.04445 0.0109,-0.08008 0.0138,-0.09772 0.004,-0.02646 -0.0169,-0.05644 -0.0332,0.0053 -0.0374,0.121708 -0.14923,0.212373 -0.24765,0.05891 -0.0162,-0.03069 -0.0854,-0.17145 0.003,-0.494593 0.018,-0.0628 0.0399,-0.15593 0.0399,-0.15593 0.0198,-0.07055 -0.012,-0.106537 -0.0413,-0.01976 m 2.98062,0.357362 c -0.0766,0.03845 -1.76636,0.699913 -1.84539,0.744363 -0.0797,0.04409 -0.10759,0.05503 -0.12347,0.113241 -0.0159,0.05821 -0.0243,0.09207 -0.0282,0.101246 -0.0162,0.03845 -0.0293,0.08643 0.0878,0.02011 0.0367,-0.02082 1.74061,-0.68862 1.80658,-0.726368 0.0653,-0.03739 0.10371,-0.05009 0.13335,-0.110067 0.0293,-0.05892 0.0367,-0.06985 0.0529,-0.111125 0.0173,-0.04445 0.0349,-0.09172 -0.0836,-0.0314 m -6.3687,0.212373 -0.16792,0.230717 -0.32315,-0.235302 c -0.008,-0.006 -0.0194,-0.0039 -0.0257,0.0046 l -0.19509,0.267407 c -0.006,0.0088 -0.005,0.02045 0.004,0.02611 l 0.33267,0.242713 c 0.008,0.0056 0.0198,0.0039 0.0257,-0.0046 l 0.16828,-0.231068 0.32314,0.235656 c 0.008,0.0056 0.0194,0.0039 0.0257,-0.0046 l 0.19473,-0.267758 c 0.006,-0.0085 0.005,-0.02011 -0.003,-0.02574 l -0.33266,-0.24271 c -0.008,-0.006 -0.0198,-0.0039 -0.0261,0.0046 m 12.83653,0.462492 c -0.0349,0.08467 -0.17886,0.375001 -0.15664,0.717549 0.005,0.07937 0.0575,0.23354 0.17674,0.237419 0.0614,0 0.14111,-0.0448 0.19756,-0.238477 0.01,-0.04374 0.0159,-0.07867 0.0201,-0.09596 0.006,-0.02646 -0.0134,-0.0575 -0.0332,0.0024 -0.0452,0.118533 -0.16263,0.201435 -0.25012,0.04269 -0.0141,-0.03175 -0.0734,-0.175683 0.0353,-0.491066 0.0219,-0.06103 0.0494,-0.1524 0.0494,-0.1524 0.0243,-0.06879 -0.005,-0.106186 -0.0392,-0.02222 m 3.30729,0.173566 c -0.0321,0.07796 -0.16581,0.346782 -0.14535,0.663927 0.005,0.07338 0.0536,0.216255 0.16369,0.219782 0.0571,0 0.13088,-0.04127 0.18309,-0.22084 0.01,-0.04057 0.0148,-0.07303 0.0187,-0.0889 0.006,-0.02434 -0.012,-0.05292 -0.0307,0.0024 -0.042,0.110067 -0.15029,0.186619 -0.23143,0.03951 -0.013,-0.02928 -0.0677,-0.162631 0.0328,-0.454377 0.0201,-0.0568 0.0459,-0.141113 0.0459,-0.141113 0.0222,-0.06385 -0.005,-0.09842 -0.0367,-0.02045 m -6.20678,0.0085 -0.16827,0.230717 -0.32279,-0.235657 c -0.008,-0.006 -0.0198,-0.0039 -0.0258,0.0049 l -0.19544,0.267052 c -0.006,0.0088 -0.004,0.02011 0.004,0.02611 l 0.33302,0.24271 c 0.008,0.006 0.0198,0.0039 0.0257,-0.0046 l 0.16827,-0.230717 0.32279,0.235302 c 0.008,0.006 0.0198,0.0039 0.0257,-0.0046 l 0.19544,-0.267407 c 0.006,-0.0085 0.005,-0.02045 -0.004,-0.02611 l -0.33302,-0.242713 c -0.008,-0.006 -0.0194,-0.0039 -0.0257,0.0049 m -6.77157,0.123119 c -0.11147,0.121356 -0.14569,0.204612 -0.17885,0.256471 -0.0459,0.07161 0.0116,0.103362 0.0635,0.04798 0.0519,-0.05574 0.0875,-0.111477 0.23883,-0.107598 0.15099,0.0039 0.51294,-0.0099 0.37747,0.08961 -0.13511,0.09948 -0.22648,0.156985 -0.22648,0.156985 -0.0879,0.06315 -0.1651,0.18133 -0.0102,0.115713 0.15522,-0.06562 0.36018,-0.169333 0.51717,-0.405696 0.0459,-0.06914 0.0995,-0.161219 -0.11324,-0.192969 -0.21273,-0.0321 -0.55704,-0.08184 -0.66816,0.03951 m 2.90477,-0.01553 c -0.0257,0.07937 -0.0448,0.140759 -0.0102,0.231069 0.0346,0.09102 0.12771,0.296685 0.14287,0.326319 0.0155,0.02928 0.0194,0.06244 -0.0318,0.08431 -0.0511,0.02188 -0.28504,0.07162 -0.32878,-0.1778 -0.0434,-0.24906 -0.0469,-0.321733 -0.0688,-0.364066 -0.0215,-0.04233 -0.0423,-0.04727 -0.0589,-0.0053 -0.0166,0.04198 -0.0268,0.129117 -0.0293,0.143227 -0.002,0.0141 -0.002,0.02434 0.006,0.03951 0.009,0.01553 0.10231,0.293862 0.0603,0.370768 -0.0423,0.07655 -0.25223,0.214842 -0.36195,0.0702 -0.0526,-0.100893 -0.0204,-0.356658 -0.0204,-0.416629 0,-0.05997 -0.0191,-0.08043 -0.0448,-0.0321 -0.0254,0.04868 -0.0395,0.08043 -0.0385,0.124179 0.001,0.04339 0.008,0.230011 0.004,0.288925 -0.004,0.05856 0,0.249061 0.11253,0.302684 0.11254,0.05398 0.27623,0.0039 0.4004,-0.229659 0.096,0.138994 0.2413,0.1397 0.31927,0.110771 0.0667,-0.02434 0.14076,-0.123825 0.16228,-0.26176 0.0215,-0.13829 -0.0138,-0.232834 -0.0575,-0.310798 -0.0572,-0.0956 -0.0956,-0.256821 -0.0956,-0.256821 -0.0204,-0.0575 -0.0356,-0.116065 -0.0614,-0.03704 m -3.03495,0.896054 c -0.0289,0.08714 -0.15452,0.387705 -0.11007,0.729898 0.0106,0.07867 0.0734,0.230011 0.19297,0.226132 0.0621,-0.0042 0.139,-0.05433 0.18274,-0.252238 0.007,-0.04445 0.0109,-0.08008 0.0138,-0.09772 0.005,-0.02646 -0.0173,-0.05644 -0.0332,0.0049 -0.0374,0.12206 -0.14958,0.212725 -0.248,0.05927 -0.0162,-0.03069 -0.085,-0.17145 0.003,-0.494596 0.018,-0.06244 0.0399,-0.155927 0.0399,-0.155927 0.0198,-0.07056 -0.0123,-0.106186 -0.0413,-0.01976 m -1.74766,0.23495 c -0.0332,0.09948 -0.17674,0.4445 -0.12982,0.838555 0.0113,0.09102 0.0804,0.265641 0.21519,0.262466 0.0695,-0.0039 0.15628,-0.06068 0.20743,-0.287866 0.008,-0.05116 0.0127,-0.09208 0.0162,-0.112184 0.005,-0.03034 -0.0187,-0.06526 -0.0374,0.0053 -0.043,0.1397 -0.16969,0.243062 -0.27905,0.06491 -0.0183,-0.03528 -0.0942,-0.19826 0.008,-0.569031 0.0205,-0.07161 0.0459,-0.178858 0.0459,-0.178858 0.0229,-0.08079 -0.0127,-0.122767 -0.0462,-0.02328 m 9.95292,-0.822677 c -0.013,0.04516 -0.0459,0.23989 -0.0536,0.279752 -0.008,0.03986 -0.007,0.07973 0.0127,0.113948 0.0198,0.03457 0.0705,0.152752 0.10689,0.249061 0.0367,0.09631 0.41416,0.824089 0.44944,0.888648 0.0346,0.06456 0.042,0.112535 0.007,0.155223 -1.21285,1.279877 -3.55282,2.06657 -3.62796,2.10961 -0.0748,0.04374 -0.0547,0.07761 0.0713,0.05539 0.18838,-0.03281 1.23931,-0.208843 1.53917,-0.353129 0.19755,-0.09525 0.88794,-0.433916 1.45238,-0.8763 -0.0159,0.113946 -0.0303,0.282221 -0.0222,0.4953 0.0377,1.029052 0.95814,0.858309 1.19944,0.805038 0.7239,-0.15875 1.60867,-1.158875 1.68381,-1.359959 0.0744,-0.198612 0.0854,-0.379587 0.0684,-0.537633 0.19085,-0.10301 0.60008,-0.43321 0.60008,-0.43321 0.0169,0.438856 0.36618,0.570793 0.47342,0.589491 0.50342,0.07655 0.756,-0.34431 0.8629,-0.480483 0.0917,0.240242 0.31256,0.286808 0.42615,0.309385 0.43427,0.08643 0.51859,-0.220837 0.54152,-0.290687 0.13582,-0.423688 -0.10972,-0.739423 -0.14112,-0.7747 -0.0318,-0.03493 -0.0476,-0.0011 -0.0589,0.03916 -0.0109,0.04092 -0.0462,0.193675 -0.0677,0.289277 0,0 0.0907,0.147815 0.12312,0.222957 0.0321,0.07549 -0.0159,0.116768 -0.10936,0.12841 -0.26423,0.0321 -0.47555,-0.119592 -0.54787,-0.18909 -0.0727,-0.0702 0.006,-0.19332 0.0649,-0.341135 0.0469,-0.118181 -0.0402,-0.132292 -0.10724,-2.65e-4 -0.22402,0.588786 -0.53869,0.652286 -0.62124,0.674863 -0.74613,0.203554 -0.68192,-0.478719 -0.6791,-0.590196 0.002,-0.111831 -0.079,-0.07091 -0.1711,0.0028 -0.31397,0.252238 -0.56691,0.400405 -0.70273,0.461082 -0.11712,-0.228952 -0.28716,-0.372886 -0.35913,-0.424744 -0.80751,-0.588788 -0.87418,0.599369 -0.84949,0.726369 0.12277,0.505531 0.94756,0.199318 1.07703,0.183798 0.12947,-0.01516 0.0871,0.155575 0.0145,0.257175 -0.17886,0.250118 -0.38559,0.429683 -0.57256,0.582435 -0.79975,0.652285 -1.20121,0.600781 -1.32433,0.5969 -0.78564,-0.02222 -0.71367,-0.86854 -0.66993,-1.049515 0.23637,-0.200025 0.43921,-0.417687 0.55704,-0.641702 0.0483,-0.122415 0.13123,-0.40146 -0.0187,-0.751416 -0.0783,-0.154165 -0.32596,-0.586317 -0.32596,-0.586317 0,0 0.18239,0.0056 0.19967,0.0053 0.0173,-2.65e-4 0.0515,-0.01799 0.007,-0.06914 -0.0445,-0.05116 -0.42757,-0.433565 -0.45085,-0.464256 -0.0233,-0.03069 -0.0441,-0.05292 -0.0572,-0.0074 m 2.42217,1.752248 c 0,0 -0.11006,0.0635 -0.41734,0.04269 -0.25787,-0.01728 -0.23565,-0.117827 -0.20037,-0.155927 0.0384,-0.04163 0.35419,-0.240242 0.61771,0.113241 m -3.31681,-1.424871 c -0.0529,0.06632 -0.5895,0.770115 -0.5895,0.770115 l -0.39017,-0.27799 c 0,0 0.1591,-0.03986 0.18697,-0.04798 0.0279,-0.0081 0.0434,-0.0441 -0.006,-0.06985 -0.0501,-0.0254 -0.52034,-0.213077 -0.55598,-0.227541 -0.036,-0.01447 -0.049,-0.03069 -0.0522,0.0074 -0.003,0.0381 -0.008,0.347485 -0.008,0.347485 0,0 -0.007,0.02188 0.0335,0.0448 0.0413,0.02363 0.0815,0.07338 0.115,0.106891 0.0335,0.03351 0.47096,0.378884 0.49248,0.390877 0,0 -0.21872,0.384882 -0.24694,0.685448 -0.0275,0.300919 0.006,0.716492 0.41698,0.582436 0.11077,-0.03175 0.5715,-0.214842 0.67451,-0.536224 0.0332,-0.118178 0.12806,-0.331962 -0.0265,-0.54892 -0.0889,-0.127355 -0.44838,-0.342548 -0.44838,-0.342548 0,0 0.27587,-0.382058 0.30198,-0.428625 0.0268,-0.04657 0.12806,-0.342548 0.13934,-0.41416 0.0113,-0.07197 0.0169,-0.107598 -0.0367,-0.04163 m -0.0942,1.623132 c -0.15276,0.125589 -0.47379,0.291748 -0.5641,0.300566 -0.0903,0.0085 -0.32949,-0.03563 -0.22542,-0.28081 0.0356,-0.07937 0.27481,-0.489305 0.27481,-0.489305 0.0896,0.04939 0.66746,0.343959 0.51471,0.469549 m -2.73509,0.494241 c -0.0279,0.07691 -0.0385,0.127707 -0.036,0.156985 0.003,0.02928 0.0134,0.124532 0.0134,0.124532 -0.0286,0.02294 -0.15063,0.09878 -0.27269,0.0092 0.008,-0.02611 0.0236,-0.07937 0.0275,-0.108656 0.013,-0.0448 -0.0148,-0.07867 -0.0367,-0.03175 -0.0226,0.04692 -0.0744,0.203906 -0.11289,0.238831 -0.0385,0.03528 -0.0833,0.1651 -0.37465,0.03316 -0.0508,-0.01976 -0.1404,-0.08572 -0.27904,0.05398 -0.31468,0.292807 -0.53234,0.315735 -0.88512,0.440973 -0.043,0.01976 -0.1323,0.08714 -0.0261,0.07655 0.10654,-0.01058 0.55386,0 0.79763,-0.2794 0.0508,-0.04939 0.10936,-0.179916 0.30233,-0.104068 0.10725,0.04057 0.30515,0.210253 0.52105,-0.12559 0.12736,0.08502 0.32033,0.0508 0.35137,-0.04233 0.031,-0.09313 0.0663,-0.186619 0.066,-0.249767 -7.9e-4,-0.0635 -0.006,-0.14746 -0.006,-0.14746 -0.004,-0.05045 -0.0219,-0.122063 -0.0501,-0.04516 m -7.91986,0.03104 c -0.0699,0.03528 -0.85831,0.460729 -0.93521,0.505531 -0.0713,0.04233 -0.0889,0.06456 -0.0956,0.11924 -0.006,0.05468 -0.009,0.08572 -0.0116,0.09489 -0.009,0.03669 -0.0229,0.06915 0.0822,0.006 0.0512,-0.03069 0.82973,-0.43815 0.90205,-0.483658 0.0579,-0.03669 0.0868,-0.05997 0.10548,-0.117475 0.018,-0.0575 0.0233,-0.06808 0.0321,-0.107598 0.01,-0.04233 0.0243,-0.06914 -0.0794,-0.01693 m 16.88571,0.03634 c -0.0314,0.08608 -0.043,0.143226 -0.0402,0.175683 0.004,0.03316 0.0148,0.1397 0.0148,0.1397 -0.0321,0.02574 -0.16863,0.11077 -0.30551,0.01024 0.009,-0.02928 0.0268,-0.08854 0.0307,-0.121354 0.0148,-0.05045 -0.0162,-0.0882 -0.0413,-0.03598 -0.0247,0.05256 -0.0825,0.228246 -0.12559,0.267758 -0.0434,0.03951 -0.0938,0.184854 -0.41981,0.03739 -0.0572,-0.02222 -0.15698,-0.09631 -0.31256,0.06032 -0.35242,0.327731 -0.59619,0.353483 -0.99165,0.49389 -0.0476,0.02188 -0.14782,0.09737 -0.0286,0.08537 0.11889,-0.01199 0.61983,2.65e-4 0.89288,-0.312912 0.0568,-0.05503 0.12206,-0.201083 0.33867,-0.116417 0.12029,0.04551 0.34149,0.235654 0.58384,-0.140406 0.14217,0.0949 0.35843,0.0568 0.39335,-0.04763 0.0342,-0.104423 0.0741,-0.208844 0.0734,-0.279752 0,-0.07162 -0.006,-0.1651 -0.006,-0.1651 -0.005,-0.05645 -0.0247,-0.136525 -0.0561,-0.0508 m -14.4265,0.850546 c -0.0159,0.02858 -0.0279,0.05186 -0.0342,0.06315 -0.01,0.01728 -0.003,0.04304 0.0236,0.0053 0.0568,-0.07373 0.15664,-0.106891 0.18451,0.02328 0.003,0.02506 0.0141,0.138641 -0.12877,0.33655 -0.0282,0.03845 -0.067,0.09631 -0.067,0.09631 -0.0318,0.04304 -0.019,0.07585 0.0229,0.024 0.0423,-0.05186 0.20461,-0.225073 0.26212,-0.4699 0.013,-0.05645 0.009,-0.175684 -0.0737,-0.203907 -0.0434,-0.01304 -0.10866,0.0019 -0.18945,0.125236 m 2.68994,-0.03598 -0.19509,0.267759 c -0.006,0.0085 -0.005,0.02011 0.004,0.02574 l 0.33267,0.242711 c 0.008,0.006 0.0198,0.0039 0.0257,-0.0046 l 0.19509,-0.267406 c 0.006,-0.0085 0.005,-0.02011 -0.003,-0.02611 l -0.33267,-0.242711 c -0.008,-0.0056 -0.0198,-0.0039 -0.0261,0.0046"
       style="fill:#231f20;fill-opacity:1;fill-rule:evenodd;stroke:none;stroke-width:0.264583"
       id="path1-44" />
  </g>
</svg>
