<?xml version="1.0" encoding="UTF-8" standalone="no"?>
<!-- Created with Inkscape (http://www.inkscape.org/) -->

<svg
   width="19.948557mm"
   height="7.368042mm"
   viewBox="0 0 19.948557 7.368042"
   version="1.1"
   id="svg1"
   xmlns:inkscape="http://www.inkscape.org/namespaces/inkscape"
   xmlns:sodipodi="http://sodipodi.sourceforge.net/DTD/sodipodi-0.dtd"
   xmlns="http://www.w3.org/2000/svg"
   xmlns:svg="http://www.w3.org/2000/svg">
  <sodipodi:namedview
     id="namedview1"
     pagecolor="#ffffff"
     bordercolor="#666666"
     borderopacity="1.0"
     inkscape:showpageshadow="2"
     inkscape:pageopacity="0.0"
     inkscape:pagecheckerboard="0"
     inkscape:deskcolor="#d1d1d1"
     inkscape:document-units="mm" />
  <defs
     id="defs1" />
  <g
     inkscape:label="Layer 1"
     inkscape:groupmode="layer"
     id="layer1"
     transform="translate(-159.38726,-40.264762)">
    <path
       d="m 167.31943,40.292128 c -0.0794,0.0381 -1.51095,0.645583 -1.59315,0.689681 -0.0822,0.04374 -0.11112,0.05433 -0.12841,0.113594 -0.0176,0.05927 -0.0268,0.09349 -0.031,0.103365 -0.0177,0.0388 -0.0318,0.08784 0.09,0.02222 0.0377,-0.02045 1.48413,-0.634649 1.55187,-0.67169 0.0681,-0.03669 0.10795,-0.04939 0.1397,-0.110067 0.0314,-0.06032 0.0384,-0.07091 0.0564,-0.113242 0.0187,-0.0448 0.0374,-0.09278 -0.0854,-0.03387 m -2.7813,0.484716 c -0.17427,0.221192 -0.18521,0.512586 -0.20849,0.837142 -0.0243,-0.06808 -0.16369,-0.503415 -0.60854,-0.752475 -0.0321,-0.01834 -0.0977,0.01622 -0.10372,0.118885 -0.004,0.05962 -0.0208,0.204613 0.0212,0.245534 0.042,0.04092 0.16615,0.121708 0.18697,0.132998 0.0212,0.01199 0.0434,0.01341 0.0497,-0.01164 0.006,-0.02506 0.0346,-0.0829 0.0748,-0.04127 0.0342,0.03422 0.25329,0.215548 0.36689,0.599723 0.0201,0.0508 0.0667,0.05609 0.0783,-0.01659 0.0257,-0.177448 0.0402,-0.486127 0.0543,-0.579967 0.0198,-0.131233 0.0825,-0.402518 0.24942,-0.261408 0.0374,0.03175 0.078,0.07444 0.078,0.07444 0.0349,0.04445 0.0794,0.0949 0.10125,0.04375 0.0328,-0.07761 0.0589,-0.206729 0.0229,-0.276225 -0.0159,-0.03069 -0.22225,-0.2921 -0.36301,-0.112889 m 5.56365,0.111476 c -0.0162,0.03916 -0.13687,0.336199 -0.13687,0.336199 0.002,0.01728 0.0356,0.146756 0.0423,0.195439 0.0561,0.428271 0.40675,2.959452 0.50765,3.759904 0.0497,0.394055 0.0882,0.748596 0.0935,0.938742 -0.005,0.05891 0.0212,0.08079 0.0483,0.024 0.0145,-0.02999 0.0748,-0.155223 0.0931,-0.483658 0.0138,-0.246592 -0.006,-0.625827 -0.0762,-1.147233 -0.0102,-0.07585 -0.37571,-2.720269 -0.37571,-2.720269 0,0 0.19755,0.185209 0.2293,0.218721 0.0314,0.03387 0.0702,0.01588 0.0519,-0.0381 -0.018,-0.05397 -0.42157,-1.030462 -0.43462,-1.064329 -0.0138,-0.03387 -0.0265,-0.05856 -0.0427,-0.01939 m -3.41947,0.04163 c -0.16369,0.07867 -0.32561,0.334079 -0.26388,0.433211 0.0519,0.08326 0.15911,0.158398 0.15911,0.158398 -0.0519,0.02928 -0.10937,0.04515 -0.12524,0.09913 -0.0155,0.05398 -0.0201,0.08714 -0.0215,0.106539 -0.001,0.01976 -0.005,0.03457 0.0265,0.02611 0.0314,-0.0088 0.0459,-0.0141 0.0459,-0.0141 0.0903,-0.04022 0.43497,-0.219426 0.66639,-0.273401 0.007,-0.0019 0.0219,-0.07796 0.0296,-0.118886 0.008,-0.04127 -0.0353,-0.03775 -0.10231,-0.02257 -0.0677,0.01516 -0.31079,0.08608 -0.44027,-0.02434 -0.11147,-0.0949 -0.12558,-0.133702 -0.0857,-0.157337 0.0395,-0.024 0.15028,-0.09772 0.22225,-0.0071 0.0384,0.04833 0.0702,0.04903 0.0861,0.01693 0.0166,-0.03175 0.072,-0.116065 0.0557,-0.149932 -0.0166,-0.03457 -0.0889,-0.151342 -0.25259,-0.07267 m -3.90031,-0.0019 c -0.0166,0.03916 -0.12912,0.356658 -0.12912,0.356658 0.0257,0.17145 0.26494,1.671108 0.28892,1.79564 0.03,0.154516 0.46708,2.271535 0.3041,3.129491 -0.004,0.05856 0.0212,0.08079 0.0483,0.024 0.0268,-0.05644 0.34749,-0.63147 0.0392,-2.19357 -0.0162,-0.117124 -0.3549,-2.209097 -0.3549,-2.209097 0,0 0.19721,0.185209 0.2286,0.218723 0.0317,0.03352 0.0702,0.01553 0.0522,-0.0381 -0.018,-0.05398 -0.42192,-1.030464 -0.43497,-1.064683 -0.013,-0.03351 -0.0261,-0.05821 -0.0423,-0.01905 m 6.41808,0.02151 c -0.0162,0.03916 -0.18485,0.386291 -0.18485,0.386291 0.004,0.02257 0.0487,0.07232 0.0727,0.206375 0.0843,0.46849 0.26952,1.50989 0.38911,2.385838 0.024,0.176387 0.18874,1.153584 0.16052,1.364544 -0.008,0.0635 -0.0272,0.132291 -0.0589,0.206023 0.007,-0.180975 -0.0353,-0.463198 -0.25823,-0.877006 -0.1524,-0.282575 -0.62971,-0.724959 -1.1176,-1.220965 -0.0547,-0.05574 -0.43321,-0.465667 -0.57079,-0.638527 -0.0434,-0.05468 -0.28999,-0.344665 -0.28999,-0.344665 0,0 0.19791,0.02257 0.23848,0.0254 0.0476,0.0028 0.11501,0.0067 0.0674,-0.03634 -0.0473,-0.04304 -0.63958,-0.458965 -0.7052,-0.508352 -0.0656,-0.0501 -0.0928,-0.08643 -0.0928,-0.03422 0,0.05186 0.0339,0.395816 0.0363,0.427566 0.002,0.0314 0.0423,0.03316 0.0811,0.06244 0.0406,0.0314 0.13759,0.199673 0.27199,0.363363 0.14429,0.164394 0.24166,0.279045 0.37465,0.427212 0.0825,0.09243 0.23636,0.267055 0.23636,0.267055 0.33691,0.370768 0.5835,0.635 0.63853,0.696383 0.14041,0.155575 0.95532,0.802569 0.98919,1.474962 0.002,0.03634 0.002,0.06491 0.001,0.09207 -0.23213,0.338315 -0.762,0.755298 -1.89195,1.22273 -0.14287,0.07549 -0.0924,0.117826 0.008,0.100893 0.10089,-0.01693 1.50424,-0.180623 2.02071,-1.071385 0.18485,-0.35278 0.30374,-0.763058 0.19438,-1.510948 -0.0335,-0.23495 -0.41487,-2.56399 -0.41487,-2.56399 0,0 0.19756,0.185563 0.22931,0.219075 0.0321,0.03351 0.0702,0.01553 0.0522,-0.03845 -0.0183,-0.05398 -0.42228,-1.03011 -0.43533,-1.064331 -0.0127,-0.03387 -0.0257,-0.05821 -0.042,-0.01905 m -0.92392,0.09737 c -0.0311,0.09948 -0.1644,0.443442 -0.11889,0.837497 0.0106,0.09102 0.0762,0.265993 0.2025,0.26317 0.0649,-0.0035 0.1464,-0.05997 0.19367,-0.28716 0.007,-0.0508 0.0113,-0.09172 0.0148,-0.111832 0.004,-0.03069 -0.018,-0.06526 -0.0353,0.0053 -0.0399,0.139348 -0.15804,0.242007 -0.26141,0.06385 -0.0169,-0.03563 -0.0892,-0.198615 0.005,-0.56868 0.019,-0.07197 0.0423,-0.178858 0.0423,-0.178858 0.0212,-0.08114 -0.0124,-0.122767 -0.043,-0.02328 m 3.31787,0.320324 c -0.0702,0.106539 -0.12206,0.362656 -0.0226,0.435326 0.10019,0.07373 0.24695,0.132647 0.24695,0.132647 -0.46637,0.571145 -0.78493,0.679802 -1.05728,0.83961 -0.0702,0.04127 -0.0564,0.07796 -0.0152,0.06703 0.0212,-0.006 0.3877,-0.06279 0.81598,-0.388054 0.23142,-0.175683 0.37147,-0.47625 0.37147,-0.47625 0,0 0.11607,0.09666 0.13194,0.116417 0.0346,0.04374 0.0543,0.07585 0.0705,0.02998 0.061,-0.168982 -0.0254,-0.270933 -0.10759,-0.323498 0,0 0.0857,-0.263171 -0.0716,-0.52705 -0.0261,-0.0448 -0.18168,-0.185912 -0.36265,0.09384 m 0.24341,0.07232 c 0.10513,0.09772 0.0889,0.258233 0.085,0.294923 0,0 -0.13406,-0.06279 -0.19403,-0.08855 -0.06,-0.02574 -0.0917,-0.0635 -0.0639,-0.1016 0.0924,-0.130175 0.13794,-0.125587 0.17286,-0.104775 m -11.00031,-0.1778 c -0.17427,0.221192 -0.18521,0.512588 -0.20849,0.83679 -0.0243,-0.06808 -0.16369,-0.50306 -0.60819,-0.752475 -0.0325,-0.01799 -0.0984,0.01659 -0.10442,0.118885 -0.004,0.05997 -0.0205,0.204613 0.0215,0.245888 0.042,0.04127 0.16651,0.12206 0.18697,0.132995 0.0212,0.01164 0.0434,0.01304 0.0497,-0.01164 0.006,-0.02506 0.0342,-0.08255 0.0748,-0.04127 0.0339,0.03422 0.25294,0.215548 0.36689,0.599723 0.0198,0.05115 0.067,0.05574 0.0776,-0.01659 0.0265,-0.177445 0.0406,-0.486126 0.055,-0.579966 0.0194,-0.131233 0.0825,-0.402519 0.24906,-0.26176 0.0377,0.0321 0.078,0.07444 0.078,0.07444 0.0356,0.04445 0.0801,0.09525 0.1016,0.0441 0.0324,-0.07761 0.0589,-0.206375 0.0233,-0.276225 -0.0162,-0.03104 -0.2226,-0.291748 -0.36336,-0.11289 m 17.27905,0.201084 c -0.0699,0.106539 -0.12241,0.362656 -0.0222,0.435329 0.10019,0.07373 0.24659,0.132995 0.24659,0.132995 -0.46567,0.570797 -1.38077,0.976842 -1.59844,1.14653 -0.0649,0.04903 -0.0564,0.07796 -0.0148,0.06703 0.036,-0.0099 0.73307,-0.204965 1.37018,-0.75071 0.2921,-0.249767 0.28399,-0.268817 0.35808,-0.420513 0.0635,0.03246 0.10724,0.08537 0.13193,0.116065 0.0353,0.04339 0.054,0.07585 0.0706,0.02963 0.061,-0.168982 -0.0251,-0.270582 -0.10724,-0.323144 0,0 0.0854,-0.263173 -0.072,-0.527404 -0.0261,-0.0441 -0.18168,-0.18556 -0.36266,0.09419 m 0.24342,0.07267 c 0.10513,0.09772 0.0892,0.257881 0.085,0.294568 0,0 -0.1337,-0.06279 -0.19403,-0.08854 -0.0596,-0.02574 -0.0914,-0.0635 -0.0639,-0.101955 0.0928,-0.12982 0.13793,-0.125235 0.17286,-0.104068 m -1.78823,-0.165452 c -0.18309,0.232479 -0.19474,0.538691 -0.21943,0.879827 -0.0254,-0.07126 -0.17145,-0.529167 -0.63923,-0.790927 -0.0339,-0.01905 -0.10301,0.01693 -0.10936,0.124529 -0.004,0.06315 -0.0215,0.215548 0.0226,0.258939 0.0441,0.04268 0.17462,0.127707 0.19614,0.1397 0.0226,0.01199 0.0459,0.01376 0.0526,-0.0127 0.006,-0.02611 0.036,-0.08643 0.0787,-0.04304 0.0356,0.03598 0.26565,0.226484 0.38524,0.630415 0.0212,0.05327 0.0705,0.05856 0.0822,-0.01728 0.0275,-0.186621 0.0423,-0.51153 0.0575,-0.6096 0.0208,-0.138642 0.0868,-0.423333 0.26176,-0.275521 0.0399,0.03387 0.0818,0.07832 0.0818,0.07832 0.0378,0.04692 0.0843,0.10019 0.10654,0.04621 0.0346,-0.08184 0.0628,-0.216958 0.0243,-0.289983 -0.0166,-0.03246 -0.23353,-0.307269 -0.38135,-0.118885 m -1.80058,-0.01093 c -0.0674,0.03951 -1.78787,1.03223 -1.85702,1.077384 -0.0699,0.04445 -0.0942,0.05609 -0.10583,0.109714 -0.0109,0.05362 -0.0166,0.08502 -0.0194,0.09384 -0.013,0.03563 -0.0215,0.08008 0.0808,0.01304 0.0321,-0.02082 1.76177,-1.020233 1.82245,-1.058333 0.0582,-0.03634 0.0921,-0.05186 0.11536,-0.107598 0.0236,-0.05609 0.0293,-0.06562 0.0416,-0.104421 0.0137,-0.04092 0.0268,-0.08502 -0.078,-0.02363 m -12.88415,0.106188 c -0.0437,0.13335 -0.23072,0.594783 -0.16827,1.122892 0.0145,0.12206 0.10548,0.356658 0.28187,0.352776 0.0907,-0.0053 0.20426,-0.08114 0.27058,-0.385585 0.0106,-0.06879 0.0169,-0.123473 0.0215,-0.150283 0.006,-0.04092 -0.0251,-0.08749 -0.049,0.0067 -0.0561,0.187325 -0.2219,0.325615 -0.36513,0.08678 -0.024,-0.04763 -0.12417,-0.265993 0.009,-0.762352 0.0268,-0.09666 0.0596,-0.239889 0.0596,-0.239889 0.03,-0.108657 -0.0166,-0.164394 -0.06,-0.03104 m 4.11515,0.339725 c -0.0557,0.0321 -2.14277,0.994127 -2.30363,1.116893 -0.0808,0.06174 -0.14958,0.161219 -0.17604,0.270227 -0.0374,0.158047 -0.003,0.316797 0.10019,0.336198 0.072,0.01376 0.11218,0.05715 0.12947,0.08184 0.008,0.01093 0.0198,0.0039 0.0233,-0.0028 0.0868,-0.160163 0.0159,-0.264231 -0.12312,-0.30833 -0.055,-0.01799 -0.0776,-0.09525 0.13194,-0.221543 0.19297,-0.11571 2.09444,-1.006827 2.13748,-1.03505 0.0579,-0.0381 0.0924,-0.05186 0.11642,-0.108302 0.0236,-0.05609 0.03,-0.06597 0.0427,-0.10513 0.0134,-0.04127 0.0268,-0.08537 -0.0787,-0.024 m 9.09955,0.908754 c -0.0342,0.08431 -0.17886,0.375004 -0.15663,0.717198 0.005,0.07938 0.0579,0.233539 0.17674,0.237773 0.0621,-2.65e-4 0.14147,-0.04516 0.19756,-0.238832 0.0102,-0.04374 0.0162,-0.07867 0.0201,-0.09596 0.006,-0.02611 -0.0131,-0.05715 -0.0332,0.0024 -0.0452,0.118885 -0.16228,0.201787 -0.24977,0.04233 -0.0145,-0.03105 -0.0737,-0.175331 0.0353,-0.490714 0.0215,-0.06103 0.0494,-0.152048 0.0494,-0.152048 0.0243,-0.06914 -0.005,-0.106538 -0.0395,-0.02222 m -14.31819,0.04163 c -0.0367,0.0956 -0.19332,0.42686 -0.14534,0.804685 0.0113,0.08714 0.0843,0.254352 0.22966,0.250473 0.0748,-0.0042 0.16862,-0.05927 0.22472,-0.277637 0.01,-0.04939 0.0148,-0.08819 0.0187,-0.107596 0.006,-0.02928 -0.0198,-0.06244 -0.0399,0.0053 -0.0476,0.134408 -0.1845,0.234243 -0.30127,0.0642 -0.019,-0.03422 -0.10019,-0.189442 0.012,-0.545746 0.0229,-0.06915 0.0508,-0.171804 0.0508,-0.171804 0.0251,-0.07796 -0.0127,-0.117475 -0.0494,-0.02188 m 4.87186,0.1143 c -0.0984,0.107243 -0.12912,0.180975 -0.1584,0.226835 -0.0406,0.06315 0.0106,0.09137 0.0564,0.04233 0.0455,-0.04939 0.0773,-0.09842 0.21096,-0.09525 0.13335,0.0039 0.45368,-0.0085 0.33409,0.07902 -0.11995,0.08819 -0.20074,0.138994 -0.20074,0.138994 -0.0772,0.05609 -0.14605,0.16016 -0.008,0.102306 0.13687,-0.05856 0.31785,-0.149579 0.45685,-0.358775 0.0402,-0.06068 0.0878,-0.142523 -0.10019,-0.170746 -0.18804,-0.02787 -0.49248,-0.07197 -0.59055,0.03528 m 12.75397,0.01728 c -0.0321,0.07832 -0.16545,0.346781 -0.14535,0.663927 0.005,0.07338 0.0536,0.216254 0.16369,0.220133 0.0572,-2.65e-4 0.13053,-0.04163 0.18345,-0.221192 0.009,-0.04022 0.0148,-0.07267 0.0183,-0.0889 0.006,-0.024 -0.0123,-0.05292 -0.0307,0.0028 -0.042,0.109715 -0.15028,0.186619 -0.23177,0.03951 -0.013,-0.02928 -0.0677,-0.162984 0.0328,-0.454729 0.0204,-0.05645 0.0459,-0.140758 0.0459,-0.140758 0.0226,-0.06421 -0.005,-0.09878 -0.0363,-0.02082 m -6.20677,0.0081 -0.16828,0.231068 -0.32279,-0.235656 c -0.008,-0.0056 -0.0198,-0.0035 -0.0261,0.0046 l -0.19509,0.267404 c -0.006,0.0088 -0.005,0.02045 0.004,0.02646 l 0.33267,0.242358 c 0.008,0.0063 0.0198,0.0042 0.0261,-0.0046 l 0.16827,-0.230717 0.32279,0.235302 c 0.008,0.0064 0.0198,0.0042 0.0257,-0.0046 l 0.19508,-0.267406 c 0.006,-0.0085 0.005,-0.02011 -0.004,-0.02574 l -0.33231,-0.243065 c -0.008,-0.0056 -0.0198,-0.0035 -0.0261,0.0046 m -12.54654,0.211667 c -0.0402,0.136877 -0.21343,0.611362 -0.1524,1.155345 0.0102,0.08855 0.0564,0.234598 0.14076,0.312563 -0.004,0.0042 -0.007,0.0095 -0.0102,0.01553 -0.0395,0.07091 -0.51717,0.830088 -0.0247,1.359607 0.042,0.04798 0.42792,0.483306 1.96568,0.02893 0.36513,-0.103011 0.89359,-0.321734 1.12219,-0.639234 0.0406,-0.05609 0.1838,-0.346427 0.0794,-0.62512 -0.042,-0.109009 -0.22542,-0.388057 -0.26282,-0.443796 -0.037,-0.05574 -0.0653,-0.06244 -0.0815,-0.0046 -0.0162,0.05821 -0.0751,0.349602 -0.0751,0.349602 0.0603,0.07902 0.35878,0.445207 0.28928,0.515057 -0.0702,0.0695 -0.68615,0.583141 -2.16359,0.674864 -0.16545,0.01024 -0.97472,-0.01799 -0.93698,-0.631825 0.005,-0.09208 0.0692,-0.386646 0.16687,-0.551746 2.6e-4,-0.0013 7.9e-4,-0.0028 0.001,-0.0042 0.0173,0.006 0.036,0.0095 0.0557,0.0092 0.0854,-0.0053 0.19156,-0.0829 0.25259,-0.396169 0.009,-0.0702 0.0148,-0.126648 0.0187,-0.154516 0.006,-0.04198 -0.0236,-0.09031 -0.0459,0.0071 -0.0515,0.192617 -0.20638,0.334081 -0.34185,0.08749 -0.0226,-0.04939 -0.11782,-0.27446 0.004,-0.784932 0.0247,-0.09948 0.055,-0.246943 0.055,-0.246943 0.0272,-0.111477 -0.0166,-0.169685 -0.0568,-0.0321 m 4.92937,0.07549 c -0.037,0.08537 -0.19015,0.37959 -0.16687,0.726017 0.005,0.08008 0.061,0.23636 0.18803,0.240594 0.066,-2.65e-4 0.15064,-0.04586 0.21096,-0.241652 0.0102,-0.0441 0.0169,-0.07973 0.0212,-0.09737 0.006,-0.02681 -0.0141,-0.05786 -0.0353,0.0024 -0.048,0.120298 -0.17286,0.204259 -0.26634,0.04339 -0.0152,-0.03175 -0.0783,-0.1778 0.0374,-0.497062 0.0236,-0.06174 0.0529,-0.154165 0.0529,-0.154165 0.0261,-0.06985 -0.005,-0.107598 -0.042,-0.02222 m 8.92069,0.129117 c -0.013,0.04516 -0.0459,0.239535 -0.0536,0.279752 -0.008,0.03986 -0.007,0.08008 0.0127,0.1143 0.0194,0.03422 0.0702,0.152754 0.10654,0.248708 0.037,0.09631 0.41451,0.824442 0.44943,0.888648 0.0349,0.06456 0.0423,0.112535 0.007,0.155223 -1.2125,1.279877 -3.55283,2.066571 -3.62762,2.109962 -0.0748,0.04375 -0.055,0.07726 0.0709,0.05539 0.18838,-0.03316 1.23966,-0.208491 1.53952,-0.353131 0.19756,-0.0956 0.88795,-0.433917 1.45239,-0.876652 -0.0159,0.113945 -0.0303,0.28222 -0.0226,0.4953 0.0384,1.029052 0.9585,0.858308 1.20015,0.805392 0.72319,-0.15875 1.60832,-1.158875 1.68346,-1.360313 0.0744,-0.198261 0.0854,-0.379236 0.0681,-0.537634 0.19085,-0.10301 0.60043,-0.43321 0.60043,-0.43321 0.0166,0.438857 0.36583,0.570794 0.47307,0.589844 0.50377,0.0762 0.75636,-0.344662 0.86325,-0.480836 0.0914,0.240594 0.31221,0.287161 0.4258,0.30974 0.43428,0.08643 0.51859,-0.22084 0.54152,-0.291041 0.13652,-0.423688 -0.10936,-0.739424 -0.14111,-0.774349 -0.0314,-0.03528 -0.0473,-0.0013 -0.0586,0.03916 -0.0109,0.04057 -0.0462,0.192968 -0.0681,0.288925 0,0 0.0907,0.147815 0.12347,0.223308 0.0321,0.07549 -0.0159,0.116417 -0.10936,0.128058 -0.26423,0.03246 -0.47554,-0.119239 -0.54822,-0.189089 -0.0723,-0.0695 0.006,-0.193675 0.0649,-0.340784 0.0469,-0.118178 -0.0399,-0.132643 -0.10689,-2.64e-4 -0.22367,0.588785 -0.5387,0.652285 -0.62125,0.674865 -0.74648,0.202845 -0.68156,-0.479074 -0.67909,-0.59055 0.002,-0.111832 -0.079,-0.07056 -0.17145,0.0032 -0.31362,0.251883 -0.56656,0.40005 -0.70239,0.460726 -0.11747,-0.228951 -0.28716,-0.372533 -0.35912,-0.424391 -0.80716,-0.58914 -0.87419,0.599016 -0.84984,0.726368 0.12311,0.504825 0.94791,0.198967 1.07738,0.183798 0.12912,-0.01516 0.0871,0.155224 0.0145,0.256824 -0.17921,0.25047 -0.38559,0.430035 -0.57291,0.582435 -0.79939,0.65264 -1.20086,0.601133 -1.32468,0.5969 -0.78493,-0.02188 -0.71296,-0.86854 -0.66922,-1.04916 0.23601,-0.20038 0.43921,-0.41769 0.55704,-0.641705 0.048,-0.122767 0.13088,-0.401812 -0.0187,-0.751769 -0.0783,-0.15381 -0.32632,-0.585964 -0.32632,-0.585964 0,0 0.18239,0.0056 0.20003,0.0053 0.0173,-2.64e-4 0.0515,-0.01834 0.007,-0.0695 -0.0441,-0.05116 -0.42757,-0.433213 -0.45049,-0.463905 -0.0229,-0.03069 -0.0444,-0.05292 -0.0571,-0.0078 m 2.42217,1.752248 c 0,0 -0.11007,0.0635 -0.41805,0.04268 -0.25752,-0.01728 -0.2353,-0.117475 -0.19967,-0.155927 0.0381,-0.04163 0.35384,-0.240241 0.61772,0.113242 m -3.31647,-1.424517 c -0.0536,0.06632 -0.58984,0.770113 -0.58984,0.770113 l -0.39017,-0.278342 c 0,0 0.1591,-0.03951 0.18697,-0.04762 0.0275,-0.0085 0.0434,-0.0441 -0.007,-0.06985 -0.0501,-0.02574 -0.52034,-0.213077 -0.55562,-0.227894 -0.0363,-0.0141 -0.049,-0.03069 -0.0522,0.0074 -0.003,0.03845 -0.008,0.347839 -0.008,0.347839 0,0 -0.007,0.02151 0.0339,0.04515 0.0413,0.02328 0.0815,0.07303 0.115,0.10654 0.0335,0.03351 0.47096,0.378531 0.49178,0.390877 0,0 -0.21837,0.384529 -0.24624,0.685448 -0.0275,0.300919 0.006,0.71614 0.41663,0.582435 0.11077,-0.03175 0.57185,-0.214841 0.67451,-0.53622 0.0335,-0.118182 0.12841,-0.331965 -0.0257,-0.548923 -0.0893,-0.127707 -0.44944,-0.342548 -0.44944,-0.342548 0,0 0.27658,-0.381704 0.30304,-0.428977 0.0265,-0.04657 0.12771,-0.342548 0.13864,-0.414515 0.0113,-0.07126 0.0173,-0.107244 -0.036,-0.04092 m -0.0945,1.622777 c -0.1531,0.125942 -0.47413,0.291748 -0.56444,0.300567 -0.09,0.0088 -0.32949,-0.03528 -0.22507,-0.280458 0.0353,-0.07973 0.27446,-0.489302 0.27446,-0.489302 0.0896,0.04939 0.66781,0.343252 0.51505,0.469193 m -7.35365,-1.13665 c -0.15945,0.02506 -0.42827,0.197557 -0.47872,0.407459 -0.0339,0.172156 0.0102,0.361243 0.10972,0.458964 0.0318,0.03104 0.27658,0.240242 0.50976,0.465313 -0.0183,0.0067 -0.0363,0.01376 -0.054,0.02045 -0.16122,0.05962 -0.92816,0.462492 -1.29787,0.877004 -0.13159,0.134763 -0.55316,0.610658 -0.79234,0.715433 -0.15558,0.05468 -0.45367,0.147108 -0.5969,-0.251883 -0.0332,-0.09666 -0.0166,-0.672394 0.40358,-1.256242 0.0755,-0.104775 0.0293,-0.18062 -0.0716,-0.07126 -0.10054,0.109008 -1.0414,1.6383 0.0716,1.923698 0.16792,0.01304 0.50059,0.05398 1.02482,-0.595138 0.13687,-0.168979 0.70661,-0.740479 1.35678,-0.992717 0.0293,-0.0113 0.10936,-0.04657 0.22154,-0.09666 0.049,0.05539 0.091,0.107244 0.12136,0.152752 0.0282,0.03881 0.0759,0.04727 0.0818,-0.02574 0.003,-0.03281 0.01,-0.106185 -0.0166,-0.211315 0.54293,-0.246943 1.43334,-0.66181 1.55787,-0.734483 0.17215,-0.100894 0.32349,-0.172508 0.32349,-0.172508 l 0.20144,-0.466019 c -0.13441,-0.05045 -1.57903,-0.35701 -2.67582,-0.147108 m 2.0761,0.444852 c -0.10795,0.08149 -0.91228,0.468138 -1.63124,0.764823 -0.043,-0.06244 -0.0967,-0.129117 -0.1644,-0.200025 -0.0501,-0.05644 -0.46919,-0.404635 -0.508,-0.44944 -0.0395,-0.04515 -0.0621,-0.106892 0.0617,-0.146402 0.12347,-0.03951 1.08726,-0.272343 2.2419,0.03104 m -6.10553,-0.286102 c -0.0346,0.09102 -0.18379,0.405693 -0.13793,0.764468 0.0109,0.08291 0.0801,0.2413 0.21802,0.237773 0.0713,-0.0039 0.16051,-0.05574 0.21413,-0.263173 0.008,-0.04692 0.0138,-0.08431 0.0173,-0.102303 0.006,-0.02822 -0.0183,-0.05962 -0.0381,0.0046 -0.0452,0.127706 -0.17498,0.222602 -0.28575,0.06103 -0.0183,-0.0321 -0.0952,-0.179565 0.0116,-0.518231 0.0212,-0.06597 0.0476,-0.163335 0.0476,-0.163335 0.0243,-0.07408 -0.012,-0.11148 -0.0469,-0.02082 m 2.89489,0.455435 -0.19508,0.267407 c -0.006,0.0085 -0.005,0.02011 0.003,0.02574 l 0.33267,0.242713 c 0.008,0.006 0.0198,0.0039 0.0261,-0.0046 l 0.19474,-0.267404 c 0.006,-0.0085 0.005,-0.02011 -0.003,-0.02611 l -0.33267,-0.242358 c -0.008,-0.006 -0.0198,-0.0039 -0.0257,0.0046 m 3.97792,0.09666 c -0.0406,0.131233 -0.21696,0.585962 -0.15663,1.10631 0.0141,0.12065 0.10054,0.351367 0.26705,0.348192 0.0864,-0.0049 0.19368,-0.07973 0.25577,-0.37959 0.01,-0.06738 0.0155,-0.121354 0.0198,-0.147812 0.006,-0.04022 -0.024,-0.08608 -0.0462,0.0067 -0.0533,0.184502 -0.20919,0.320323 -0.34572,0.08467 -0.0222,-0.04692 -0.11747,-0.262466 0.007,-0.751416 0.0251,-0.0949 0.0561,-0.236361 0.0561,-0.236361 0.0279,-0.106891 -0.0159,-0.161925 -0.0572,-0.03069 m 10.74102,0.987777 c -0.0318,0.08643 -0.0434,0.142875 -0.0402,0.175683 0.004,0.03281 0.0148,0.139348 0.0148,0.139348 -0.0321,0.02611 -0.16898,0.111125 -0.3055,0.01058 0.009,-0.02928 0.0268,-0.08855 0.0307,-0.121356 0.0148,-0.05045 -0.0162,-0.08855 -0.0413,-0.03598 -0.025,0.05256 -0.0829,0.228248 -0.12594,0.267758 -0.043,0.03916 -0.0935,0.184502 -0.41945,0.03669 -0.0571,-0.02188 -0.15699,-0.09596 -0.31292,0.06068 -0.35242,0.328083 -0.59619,0.353483 -0.9913,0.493889 -0.0476,0.02188 -0.14817,0.09772 -0.0293,0.08537 0.11959,-0.01164 0.62053,2.64e-4 0.89323,-0.31256 0.0572,-0.05539 0.12241,-0.20179 0.33867,-0.116769 0.11994,0.04551 0.34184,0.235654 0.58384,-0.140406 0.14218,0.0949 0.35878,0.05715 0.39335,-0.04762 0.0346,-0.104423 0.0741,-0.208492 0.0737,-0.279752 0,-0.07091 -0.007,-0.164748 -0.007,-0.164748 -0.005,-0.05644 -0.0243,-0.136877 -0.0557,-0.0508 m -12.60722,0.216958 c -0.0141,0.03034 -0.073,0.130881 -0.0815,0.152048 -0.008,0.02151 8e-4,0.0448 0.0152,0.02858 0.0148,-0.01659 0.0106,-0.102306 0.27799,-0.09843 0.0388,-2.64e-4 0.0526,0.01058 0.0367,0.03069 -0.0159,0.02011 -0.25647,0.227541 -0.3175,0.503766 -0.0758,0.402519 0.3108,0.328436 0.39123,0.296334 0.0483,-0.01905 0.29493,-0.13053 0.48684,-0.421217 0.0268,-0.04127 0.0409,-0.102306 -0.0155,-0.04198 -0.0564,0.06068 -0.31256,0.29845 -0.58525,0.310443 -0.21237,-0.01482 -0.24307,-0.194027 -0.18803,-0.28081 0.055,-0.08643 0.26282,-0.29069 0.29951,-0.343606 0.0367,-0.05292 0.0681,-0.132996 0.0681,-0.132996 0.019,-0.0575 0.0286,-0.09525 -0.031,-0.09807 -0.06,-0.0032 -0.26847,-0.04127 -0.35666,0.09525 m -4.95088,0.266348 -0.19509,0.267758 c -0.006,0.0085 -0.005,0.02011 0.004,0.02611 l 0.33267,0.242358 c 0.008,0.006 0.0198,0.0039 0.0257,-0.0046 l 0.19509,-0.267407 c 0.006,-0.0085 0.005,-0.02011 -0.004,-0.02611 l -0.33267,-0.242713 c -0.008,-0.0056 -0.0194,-0.0035 -0.0257,0.0046 m 3.60503,0.27305 c -0.0169,0.03457 -0.0296,0.06279 -0.0363,0.07655 -0.0102,0.02045 -2.7e-4,0.0508 0.0282,0.0042 0.0621,-0.09031 0.17709,-0.135819 0.21837,0.01553 0.006,0.02893 0.0257,0.161925 -0.12912,0.403577 -0.031,0.04692 -0.0727,0.118181 -0.0727,0.118181 -0.0346,0.05256 -0.0177,0.08996 0.0286,0.02646 0.0462,-0.06385 0.22613,-0.277989 0.27729,-0.569383 0.0116,-0.06738 -0.001,-0.207081 -0.0998,-0.23495 -0.0519,-0.01236 -0.12771,0.0088 -0.21449,0.159808 m -2.67017,0.267759 c -0.0709,0.03316 -1.66794,0.506941 -1.74131,0.545393 -0.0737,0.0381 -0.0995,0.04727 -0.11536,0.09984 -0.0162,0.05221 -0.0247,0.08255 -0.0289,0.09102 -0.0155,0.03457 -0.0286,0.07796 0.0797,0.02082 0.0339,-0.01728 1.64429,-0.497769 1.70497,-0.529873 0.0607,-0.0321 0.0963,-0.04304 0.12489,-0.09631 0.0286,-0.05292 0.0353,-0.06279 0.0515,-0.09983 0.0169,-0.03986 0.0346,-0.08255 -0.0755,-0.03104"
       style="fill:#231f20;fill-opacity:1;fill-rule:evenodd;stroke:none;stroke-width:0.264583"
       id="path1-04" />
  </g>
</svg>
