<?xml version="1.0" encoding="UTF-8" standalone="no"?>
<!-- Created with Inkscape (http://www.inkscape.org/) -->

<svg
   width="15.323273mm"
   height="6.584579mm"
   viewBox="0 0 15.323273 6.584579"
   version="1.1"
   id="svg1"
   xmlns:inkscape="http://www.inkscape.org/namespaces/inkscape"
   xmlns:sodipodi="http://sodipodi.sourceforge.net/DTD/sodipodi-0.dtd"
   xmlns="http://www.w3.org/2000/svg"
   xmlns:svg="http://www.w3.org/2000/svg">
  <sodipodi:namedview
     id="namedview1"
     pagecolor="#ffffff"
     bordercolor="#666666"
     borderopacity="1.0"
     inkscape:showpageshadow="2"
     inkscape:pageopacity="0.0"
     inkscape:pagecheckerboard="0"
     inkscape:deskcolor="#d1d1d1"
     inkscape:document-units="mm" />
  <defs
     id="defs1" />
  <g
     inkscape:label="Layer 1"
     inkscape:groupmode="layer"
     id="layer1"
     transform="translate(-115.39859,-55.144469)">
    <path
       d="m 122.97939,55.313791 c -0.0706,0.10654 -0.12241,0.362302 -0.0222,0.434975 0.0998,0.07373 0.24588,0.132998 0.24588,0.132998 -0.46531,0.570794 -0.78387,0.680154 -1.05692,0.83961 -0.0699,0.04057 -0.0561,0.07761 -0.0148,0.06668 0.0212,-0.0056 0.38771,-0.06279 0.81562,-0.387702 0.23143,-0.175683 0.37148,-0.47625 0.37148,-0.47625 0,0 0.11642,0.09666 0.13159,0.116417 0.0353,0.04374 0.0547,0.07585 0.0713,0.02963 0.061,-0.168981 -0.0258,-0.270933 -0.1076,-0.323146 0,0 0.0854,-0.263525 -0.0716,-0.527754 -0.0261,-0.0441 -0.18239,-0.185208 -0.36266,0.09454 m 0.24342,0.07232 c 0.10477,0.09772 0.0889,0.257881 0.0847,0.294571 0,0 -0.13405,-0.0628 -0.19402,-0.0882 -0.06,-0.02574 -0.091,-0.06385 -0.0635,-0.101952 0.0921,-0.130175 0.13758,-0.12559 0.17286,-0.104423 m -5.12798,-0.09313 c -0.17709,0.232834 -0.18803,0.538692 -0.21202,0.880182 -0.0247,-0.07197 -0.16616,-0.529167 -0.61877,-0.791282 -0.0325,-0.01905 -0.0995,0.01728 -0.10548,0.124884 -0.004,0.06244 -0.0215,0.215196 0.0215,0.258233 0.0427,0.04339 0.16933,0.128058 0.19014,0.140054 0.0215,0.01199 0.0441,0.01376 0.0504,-0.01236 0.006,-0.02611 0.0349,-0.08713 0.0762,-0.04339 0.0346,0.03598 0.25753,0.226835 0.37324,0.630414 0.0201,0.05362 0.0681,0.05891 0.0794,-0.01728 0.0268,-0.186618 0.0409,-0.511175 0.055,-0.609245 0.0204,-0.13829 0.084,-0.423334 0.25365,-0.275521 0.0384,0.03387 0.079,0.07832 0.079,0.07832 0.0363,0.04657 0.0815,0.10019 0.10336,0.04621 0.0332,-0.08149 0.06,-0.216958 0.0236,-0.289983 -0.0162,-0.03281 -0.22613,-0.307269 -0.36936,-0.11924 m 11.40672,0.116065 c -0.0699,0.106539 -0.12242,0.363008 -0.0226,0.435681 0.10054,0.07338 0.24695,0.132292 0.24695,0.132292 -0.46638,0.571145 -1.38078,0.977193 -1.59844,1.146879 -0.0646,0.04939 -0.0561,0.07796 -0.0155,0.06738 0.0367,-0.0099 0.73342,-0.204965 1.37054,-0.75071 0.2921,-0.250473 0.28434,-0.269171 0.35877,-0.420865 0.0632,0.03281 0.10654,0.08537 0.13159,0.116065 0.0346,0.04374 0.054,0.07585 0.0706,0.02998 0.061,-0.168981 -0.0251,-0.270581 -0.1076,-0.323498 0,0 0.0857,-0.263171 -0.0716,-0.52705 -0.0261,-0.04445 -0.18168,-0.18556 -0.36265,0.09384 m 0.24342,0.07303 c 0.10512,0.09737 0.0889,0.257527 0.0847,0.294216 0,0 -0.1337,-0.06279 -0.19367,-0.08855 -0.06,-0.02574 -0.0914,-0.0635 -0.0635,-0.1016 0.0921,-0.12982 0.13793,-0.125235 0.17251,-0.104068 m -1.78859,-0.165807 c -0.18344,0.232834 -0.19438,0.538692 -0.21872,0.87983 -0.0261,-0.07162 -0.17216,-0.528815 -0.63994,-0.79093 -0.0339,-0.01905 -0.10301,0.01765 -0.10901,0.124884 -0.004,0.0628 -0.0219,0.215196 0.0222,0.258587 0.0441,0.04304 0.17462,0.127704 0.19649,0.1397 0.0222,0.01199 0.0455,0.01376 0.0522,-0.0127 0.006,-0.02574 0.0363,-0.08643 0.0787,-0.04304 0.036,0.03598 0.26599,0.226835 0.38593,0.630766 0.0201,0.05327 0.0702,0.05891 0.0815,-0.01765 0.0279,-0.186619 0.0427,-0.511175 0.0575,-0.6096 0.0212,-0.138288 0.0868,-0.423334 0.26176,-0.275167 0.0402,0.03387 0.0822,0.07832 0.0822,0.07832 0.0374,0.04621 0.084,0.100189 0.10689,0.04586 0.0339,-0.08149 0.0617,-0.216958 0.0243,-0.289983 -0.0169,-0.0321 -0.23389,-0.306917 -0.38206,-0.118888 m -1.80022,-0.01093 c -0.0674,0.03986 -1.78753,1.032227 -1.85703,1.077383 -0.0702,0.0448 -0.0949,0.05644 -0.10583,0.110067 -0.0109,0.05362 -0.0169,0.08502 -0.0201,0.09349 -0.0123,0.03598 -0.0212,0.08043 0.0815,0.01342 0.0321,-0.02117 1.76178,-1.02094 1.82245,-1.058334 0.0582,-0.03634 0.0921,-0.05186 0.11536,-0.107598 0.0229,-0.05574 0.0289,-0.06562 0.0416,-0.104775 0.013,-0.04092 0.0265,-0.08467 -0.078,-0.02363 m -4.65843,0.115006 c -0.0614,0.03457 -4.27567,1.920521 -4.45241,2.053167 -0.0885,0.06668 -0.16475,0.174625 -0.19403,0.29351 -0.0427,0.172157 -0.006,0.345369 0.10654,0.367948 0.0783,0.01516 0.12206,0.06315 0.14111,0.09031 0.008,0.01164 0.0204,0.0042 0.0251,-0.0032 0.096,-0.173918 0.0198,-0.287866 -0.13159,-0.337608 -0.0603,-0.01976 -0.084,-0.104775 0.1457,-0.240593 0.21166,-0.124884 4.22275,-1.934634 4.27002,-1.964973 0.0635,-0.04092 0.1016,-0.05574 0.12806,-0.117124 0.0261,-0.06103 0.0328,-0.07197 0.0469,-0.1143 0.0152,-0.04551 0.0303,-0.09349 -0.0854,-0.02716 m -5.34034,0.687192 c 0,0.05891 0.12559,1.189215 0.16334,1.81469 0.0141,0.226835 0.0801,1.42381 0.14711,1.655233 0.0674,0.230717 0.19403,0.729895 0.82338,0.621242 0.31397,-0.05398 0.52352,-0.46849 0.52352,-0.46849 0,0 0.12348,0.326318 0.55669,0.42051 0.0709,0.01553 0.30127,0.03422 0.48789,0.02469 0.2794,-0.01834 0.76941,-0.112538 1.45097,-0.522465 0.0226,0.05574 0.0917,0.43039 0.49284,0.41769 0.10477,-0.0021 0.38629,-0.0755 0.52951,-0.365125 0.14076,0.12347 0.35455,0.36971 0.653,0.157337 0.10936,-0.08431 0.38629,-0.36971 0.10512,-0.926394 -0.036,-0.06491 -0.042,-0.02082 -0.0589,0.0021 -0.0169,0.02328 -0.10054,0.275519 -0.10054,0.275519 0.0335,0.08361 0.14252,0.325262 0.0734,0.348191 -0.0692,0.02328 -0.3676,0.04022 -0.51259,-0.212018 0.0272,-0.0568 0.0596,-0.145344 0.0818,-0.20814 0.0293,-0.08149 -0.0145,-0.157337 -0.067,-0.05644 -0.17039,0.516819 -0.83397,0.905582 -1.00224,0.319265 0.0444,-0.107246 0.0885,-0.24765 -0.0459,-0.161925 -0.13477,0.08643 -0.84914,0.602192 -1.58821,0.569383 -0.20743,-0.0092 -0.78705,-0.05256 -0.88935,-0.458964 0.0148,-0.0508 -0.0169,-0.187325 -0.10689,-0.05327 -0.0903,0.133702 -0.27059,0.603954 -0.78882,0.532694 -0.11888,-0.01622 -0.4258,-0.116769 -0.51329,-0.919692 -0.019,-0.155575 -0.16545,-2.795765 -0.2286,-3.043415 -0.0127,-0.05045 -0.18627,0.178507 -0.18627,0.237773 m 5.86811,0.180623 c -0.0953,0.04198 -3.45334,1.611136 -3.55141,1.656996 -0.097,0.04551 -0.12665,0.06562 -0.1457,0.134056 -0.0187,0.06879 -0.0279,0.105127 -0.0332,0.119592 -0.0166,0.04657 -0.0384,0.09384 0.10407,0.024 0.0441,-0.02188 3.42759,-1.591382 3.5052,-1.635832 0.0769,-0.0441 0.12312,-0.05962 0.15769,-0.130175 0.0349,-0.0702 0.043,-0.08255 0.0628,-0.131585 0.0201,-0.05221 0.0448,-0.100542 -0.0995,-0.03704 m 4.46123,0.37183 c -0.0346,0.08467 -0.17851,0.37465 -0.15664,0.717198 0.005,0.07937 0.0575,0.233892 0.17675,0.237419 0.0614,0 0.14111,-0.0448 0.19755,-0.238125 0.01,-0.04374 0.0162,-0.07902 0.0201,-0.09596 0.006,-0.02646 -0.0134,-0.05715 -0.0335,0.0024 -0.0448,0.118886 -0.16193,0.201436 -0.24942,0.04269 -0.0145,-0.03175 -0.0737,-0.176036 0.0353,-0.491067 0.0215,-0.06103 0.0494,-0.152048 0.0494,-0.152048 0.0243,-0.06914 -0.005,-0.106537 -0.0395,-0.02257 m 3.30729,0.173567 c -0.0321,0.07796 -0.16545,0.346781 -0.14499,0.663927 0.005,0.07303 0.0533,0.216254 0.16404,0.219429 0.0568,0 0.13053,-0.04127 0.18238,-0.220488 0.01,-0.04057 0.0152,-0.07303 0.0187,-0.0889 0.006,-0.02434 -0.0124,-0.05327 -0.0307,0.0024 -0.0416,0.110067 -0.15028,0.186619 -0.23107,0.03916 -0.013,-0.02893 -0.0684,-0.16228 0.0325,-0.454025 0.0201,-0.0568 0.0455,-0.141113 0.0455,-0.141113 0.0229,-0.06385 -0.004,-0.09878 -0.0363,-0.02045 m -6.20642,0.0081 -0.16828,0.230717 -0.32279,-0.235305 c -0.008,-0.006 -0.0198,-0.0039 -0.0261,0.0046 l -0.19509,0.267404 c -0.006,0.0088 -0.004,0.02011 0.003,0.02611 l 0.33302,0.24271 c 0.008,0.0056 0.0198,0.0035 0.0257,-0.0049 l 0.16828,-0.230716 0.32314,0.235654 c 0.008,0.0056 0.0194,0.0035 0.0261,-0.0049 l 0.19474,-0.267407 c 0.006,-0.0085 0.005,-0.02011 -0.003,-0.02611 l -0.33302,-0.242358 c -0.008,-0.006 -0.0194,-0.0039 -0.0257,0.0046 m -2.03659,0.302683 c -0.0434,0.113242 -0.22931,0.505529 -0.17216,0.951794 0.0134,0.103365 0.10019,0.301273 0.27164,0.296685 0.0885,-0.0049 0.19967,-0.0702 0.2667,-0.328435 0.0106,-0.05786 0.0169,-0.104423 0.0215,-0.127352 0.007,-0.03457 -0.0233,-0.07373 -0.0476,0.0063 -0.0561,0.159102 -0.21837,0.276929 -0.3556,0.07585 -0.0233,-0.04022 -0.11889,-0.224012 0.0138,-0.645583 0.0268,-0.08184 0.06,-0.2032 0.06,-0.2032 0.03,-0.09243 -0.0148,-0.138993 -0.0582,-0.02611 m 3.33939,0.113241 c -0.0127,0.04551 -0.0451,0.239888 -0.0533,0.280104 -0.007,0.03986 -0.007,0.07973 0.0127,0.113596 0.0198,0.03457 0.0702,0.153459 0.10725,0.249061 0.0363,0.09666 0.41416,0.824441 0.44873,0.889 0.0349,0.06456 0.0427,0.112535 0.007,0.155223 -1.21285,1.279525 -3.55247,2.066218 -3.62761,2.109962 -0.0748,0.04339 -0.055,0.07726 0.0709,0.05503 0.18839,-0.03316 1.24002,-0.208843 1.53917,-0.353129 0.19791,-0.09525 0.88794,-0.433916 1.45204,-0.876654 -0.0155,0.1143 -0.03,0.282223 -0.0219,0.495654 0.0381,1.029052 0.9585,0.857954 1.1998,0.805037 0.72355,-0.158395 1.60867,-1.158875 1.68381,-1.359958 0.0744,-0.19826 0.085,-0.379587 0.0684,-0.537633 0.1905,-0.103362 0.59972,-0.43321 0.59972,-0.43321 0.0169,0.438856 0.36618,0.570793 0.47343,0.589491 0.50377,0.07655 0.75635,-0.34431 0.86325,-0.480835 0.0917,0.240594 0.31185,0.28716 0.42545,0.309737 0.43462,0.08643 0.51893,-0.220837 0.54186,-0.290687 0.13582,-0.423688 -0.10936,-0.739423 -0.14076,-0.7747 -0.0317,-0.03493 -0.048,-0.0011 -0.0589,0.03916 -0.0109,0.04057 -0.0462,0.193321 -0.0681,0.288925 0,0 0.091,0.148167 0.12277,0.223309 0.0328,0.07549 -0.0155,0.116768 -0.10901,0.128058 -0.26388,0.0321 -0.47484,-0.118888 -0.54786,-0.188738 -0.0723,-0.0702 0.006,-0.193675 0.0649,-0.341487 0.0466,-0.11783 -0.0402,-0.13194 -0.10689,-2.65e-4 -0.22402,0.58914 -0.53869,0.65264 -0.62124,0.675217 -0.74613,0.2032 -0.68192,-0.478718 -0.67981,-0.59055 0.003,-0.111477 -0.0787,-0.07055 -0.17074,0.0032 -0.31397,0.252238 -0.56656,0.40005 -0.70273,0.46073 -0.11713,-0.228955 -0.28717,-0.372182 -0.35913,-0.424747 -0.80716,-0.588433 -0.87383,0.599724 -0.84949,0.727075 0.12312,0.504825 0.94791,0.198615 1.07738,0.183447 0.12912,-0.01516 0.0871,0.155575 0.0141,0.25682 -0.17886,0.250473 -0.38524,0.430038 -0.57221,0.582438 -0.8001,0.652637 -1.20156,0.601485 -1.32468,0.597252 -0.78564,-0.02222 -0.71367,-0.86854 -0.67028,-1.04916 0.23636,-0.20038 0.43992,-0.418042 0.55774,-0.642057 0.0476,-0.122766 0.13088,-0.40146 -0.0187,-0.751768 -0.0787,-0.153813 -0.32668,-0.585965 -0.32668,-0.585965 0,0 0.18274,0.0056 0.20003,0.0053 0.0173,-2.65e-4 0.0515,-0.01834 0.007,-0.0695 -0.0444,-0.0508 -0.42757,-0.43321 -0.4505,-0.464253 -0.0233,-0.03034 -0.0444,-0.05257 -0.0579,-0.0074 m 2.42253,1.7526 c 0,0 -0.11007,0.06315 -0.41734,0.04269 -0.25753,-0.01765 -0.23601,-0.117827 -0.20002,-0.155927 0.0381,-0.04163 0.35383,-0.240242 0.61736,0.113241 m -11.7611,-1.556932 c -0.0367,0.110419 -0.19403,0.492125 -0.14182,0.928862 0.012,0.100896 0.0882,0.294217 0.23565,0.291396 0.0762,-0.0046 0.17181,-0.06738 0.22755,-0.319264 0.009,-0.0568 0.0141,-0.1016 0.018,-0.124177 0.005,-0.03387 -0.0204,-0.07232 -0.0409,0.006 -0.0473,0.154516 -0.18627,0.269171 -0.30657,0.07161 -0.0194,-0.03951 -0.10371,-0.219426 0.008,-0.630414 0.0222,-0.07937 0.0501,-0.198261 0.0501,-0.198261 0.0254,-0.08996 -0.0138,-0.135818 -0.0504,-0.02574 m 8.44549,0.132291 c -0.0533,0.06562 -0.58984,0.76976 -0.58984,0.76976 l -0.38982,-0.278341 c 0,0 0.1591,-0.03951 0.18662,-0.04798 0.0279,-0.0081 0.0437,-0.04375 -0.006,-0.0695 -0.0501,-0.0254 -0.51999,-0.213077 -0.55562,-0.227542 -0.036,-0.01482 -0.049,-0.03069 -0.0522,0.0074 -0.003,0.0381 -0.008,0.347486 -0.008,0.347486 0,0 -0.007,0.02151 0.0339,0.04516 0.0409,0.02328 0.0811,0.07302 0.11501,0.106892 0.0335,0.03352 0.47061,0.378531 0.49212,0.390877 0,0 -0.21872,0.384175 -0.24659,0.685096 -0.0279,0.30127 0.005,0.716491 0.41663,0.582435 0.11078,-0.03175 0.5715,-0.214842 0.67487,-0.535868 0.0332,-0.118534 0.1277,-0.332317 -0.0268,-0.549275 -0.0889,-0.127355 -0.44838,-0.342549 -0.44838,-0.342549 0,0 0.27587,-0.381706 0.30233,-0.428625 0.0264,-0.04692 0.12805,-0.3429 0.13899,-0.414514 0.0113,-0.07161 0.0169,-0.107244 -0.0363,-0.04092 m -0.0942,1.622777 c -0.1531,0.12559 -0.47413,0.291748 -0.56444,0.300567 -0.0903,0.0081 -0.3295,-0.03563 -0.22578,-0.28081 0.036,-0.07973 0.27517,-0.48895 0.27517,-0.48895 0.0896,0.04903 0.66745,0.343251 0.51505,0.469193 m -4.21569,-1.311627 c -0.037,0.09595 -0.19473,0.429684 -0.14676,0.809271 0.0116,0.0882 0.0857,0.256116 0.23143,0.252238 0.0751,-0.0042 0.16968,-0.05962 0.22648,-0.2794 0.01,-0.04904 0.0145,-0.0889 0.0183,-0.108305 0.006,-0.02928 -0.0198,-0.06279 -0.0402,0.0056 -0.0476,0.135112 -0.18556,0.235301 -0.30304,0.06456 -0.019,-0.03457 -0.10054,-0.1905 0.0124,-0.549275 0.0229,-0.0695 0.0508,-0.173215 0.0508,-0.173215 0.0254,-0.07796 -0.0127,-0.117827 -0.0494,-0.02151 m 10.44614,1.873705 c -0.031,0.08608 -0.043,0.142875 -0.0399,0.175331 0.003,0.03316 0.0145,0.1397 0.0145,0.1397 -0.0317,0.02574 -0.16862,0.11077 -0.3055,0.01024 0.009,-0.02893 0.0268,-0.0889 0.031,-0.121353 0.0145,-0.0508 -0.0166,-0.0882 -0.0416,-0.03563 -0.0247,0.05257 -0.0825,0.228248 -0.12558,0.267759 -0.043,0.03916 -0.0935,0.184501 -0.41981,0.03669 -0.0568,-0.02151 -0.15698,-0.09596 -0.31291,0.06068 -0.35243,0.327732 -0.59585,0.353132 -0.99096,0.493535 -0.048,0.02222 -0.14851,0.09737 -0.0289,0.08608 0.11888,-0.01236 0.62018,2.65e-4 0.89288,-0.313267 0.0568,-0.05503 0.12241,-0.201438 0.33902,-0.116771 0.11994,0.04586 0.34148,0.236008 0.58278,-0.140052 0.14323,0.0949 0.35913,0.0568 0.39406,-0.04762 0.0342,-0.104423 0.0744,-0.208843 0.0741,-0.279752 -7.9e-4,-0.07126 -0.007,-0.1651 -0.007,-0.1651 -0.005,-0.05609 -0.0247,-0.136525 -0.0565,-0.05045 m -8.61554,0.310092 c -0.0314,0.08608 -0.0434,0.142523 -0.0402,0.175683 0.004,0.03246 0.0148,0.138994 0.0148,0.138994 -0.0321,0.02611 -0.16897,0.111125 -0.3055,0.01093 0.009,-0.02963 0.0268,-0.08926 0.0307,-0.121708 0.0148,-0.05045 -0.0162,-0.0882 -0.0413,-0.03598 -0.0251,0.05256 -0.0829,0.228246 -0.12594,0.267759 -0.043,0.03951 -0.0935,0.184502 -0.41981,0.03704 -0.0568,-0.02188 -0.15663,-0.09596 -0.31256,0.06032 -0.35243,0.328084 -0.59584,0.353484 -0.99131,0.493887 -0.048,0.02222 -0.14816,0.09772 -0.0289,0.08573 0.11924,-0.01199 0.62018,2.65e-4 0.89288,-0.312912 0.0568,-0.05503 0.12241,-0.201438 0.33866,-0.116771 0.1203,0.04586 0.34185,0.235657 0.58385,-0.140052 0.14252,0.0949 0.35877,0.0568 0.3937,-0.04798 0.0339,-0.104423 0.0737,-0.208491 0.0737,-0.2794 -2.6e-4,-0.07126 -0.007,-0.1651 -0.007,-0.1651 -0.005,-0.05609 -0.0247,-0.136879 -0.0561,-0.05045 m -5.28003,0.135467 c -0.12241,0.09525 -0.40534,0.370065 -0.27799,0.498827 0.0737,0.05927 0.1069,0.0889 0.1069,0.0889 -0.0349,0.01341 -0.0642,0.04621 -0.085,0.0882 -0.0208,0.04198 -0.024,0.0515 -0.0346,0.07514 -0.0106,0.02434 -0.0169,0.05644 0.0416,0.02294 0.0586,-0.03351 0.19756,-0.1651 0.57256,-0.248002 0.0522,-0.01093 0.0977,-0.09631 0.0977,-0.09631 0.0219,-0.03563 0.0656,-0.119592 -0.007,-0.07832 -0.0734,0.04092 -0.26917,0.09983 -0.35595,0.0829 -0.0871,-0.01659 -0.19015,-0.09172 -0.21308,-0.127704 -0.0226,-0.03563 -0.0194,-0.0762 0.0497,-0.116064 0.0692,-0.03951 0.14464,-0.06703 0.1972,0.02117 0.01,0.01482 0.0215,0.01447 0.0438,-0.0081 0.0222,-0.02222 0.0667,-0.08467 0.079,-0.102658 0.012,-0.01799 0.0215,-0.04763 0.002,-0.0695 -0.018,-0.02188 -0.0942,-0.126297 -0.21696,-0.0314 m 1.58609,0.308326 -0.19508,0.267407 c -0.006,0.0085 -0.005,0.02011 0.004,0.02611 l 0.33303,0.242711 c 0.007,0.006 0.019,0.0039 0.0254,-0.0049 l 0.19544,-0.267052 c 0.006,-0.0088 0.004,-0.02045 -0.004,-0.02611 l -0.33267,-0.243063 c -0.008,-0.0053 -0.0198,-0.0035 -0.0261,0.0049 m -1.137,0.372182 c -0.0455,0.02363 -0.81068,0.331964 -0.85795,0.358775 -0.0473,0.02611 -0.0639,0.03281 -0.073,0.06773 -0.009,0.03422 -0.0145,0.05433 -0.0169,0.05997 -0.009,0.02294 -0.0169,0.0515 0.0526,0.01199 0.0219,-0.01236 0.79516,-0.325261 0.83432,-0.34784 0.0388,-0.02222 0.0621,-0.02998 0.079,-0.06562 0.0177,-0.03528 0.0219,-0.04163 0.0318,-0.06632 0.0102,-0.02611 0.0205,-0.05433 -0.0497,-0.01871 m -0.0554,0.314677 c -0.0455,0.02328 -0.81033,0.331612 -0.85761,0.358423 -0.0473,0.02646 -0.0638,0.03316 -0.073,0.06773 -0.01,0.03422 -0.0145,0.05468 -0.0166,0.05997 -0.01,0.02294 -0.0173,0.05186 0.0522,0.01199 0.0215,-0.01199 0.79516,-0.325261 0.83432,-0.347486 0.0388,-0.02222 0.0617,-0.02999 0.0794,-0.06562 0.0173,-0.03563 0.0219,-0.04198 0.031,-0.06668 0.0106,-0.02611 0.0208,-0.05433 -0.0497,-0.01834"
       style="fill:#231f20;fill-opacity:1;fill-rule:evenodd;stroke:none;stroke-width:0.264583"
       id="path1-1" />
  </g>
</svg>
