<?xml version="1.0" encoding="UTF-8" standalone="no"?>
<!-- Created with Inkscape (http://www.inkscape.org/) -->

<svg
   width="17.601954mm"
   height="6.3804488mm"
   viewBox="0 0 17.601954 6.3804488"
   version="1.1"
   id="svg1"
   xmlns:inkscape="http://www.inkscape.org/namespaces/inkscape"
   xmlns:sodipodi="http://sodipodi.sourceforge.net/DTD/sodipodi-0.dtd"
   xmlns="http://www.w3.org/2000/svg"
   xmlns:svg="http://www.w3.org/2000/svg">
  <sodipodi:namedview
     id="namedview1"
     pagecolor="#ffffff"
     bordercolor="#666666"
     borderopacity="1.0"
     inkscape:showpageshadow="2"
     inkscape:pageopacity="0.0"
     inkscape:pagecheckerboard="0"
     inkscape:deskcolor="#d1d1d1"
     inkscape:document-units="mm" />
  <defs
     id="defs1" />
  <g
     inkscape:label="Layer 1"
     inkscape:groupmode="layer"
     id="layer1"
     transform="translate(-130.92798,-56.4741)">
    <path
       d="m 135.37918,56.568516 c -0.0494,0.16369 -0.25894,0.728488 -0.20461,1.385358 0.013,0.151694 0.10513,0.444852 0.2928,0.447323 0.097,-0.0035 0.22014,-0.09313 0.29775,-0.467783 0.0127,-0.08431 0.0201,-0.152048 0.0257,-0.18556 0.008,-0.05045 -0.0243,-0.109008 -0.0522,0.0071 -0.0639,0.230013 -0.24377,0.394759 -0.39123,0.09384 -0.0243,-0.05997 -0.1263,-0.334081 0.0261,-0.944385 0.0311,-0.118533 0.0695,-0.294923 0.0695,-0.294923 0.0339,-0.13335 -0.0141,-0.203907 -0.0639,-0.04092 m 1.00506,0.0081 c -0.0353,0.07056 -0.10513,0.278342 -0.10513,0.278342 0.0374,0.18274 0.29986,1.50001 0.31221,2.281412 0.004,0.188738 0.0716,1.36525 0.0882,1.533525 0.0169,0.167571 0,1.33985 1.26859,1.369132 0.1852,0.0085 0.82514,0.08255 1.89476,-0.499886 0.16581,-0.09031 0.29951,-0.125941 0.34431,-0.457906 0.0519,-0.383469 -0.037,-0.923925 -0.39511,-1.187098 -0.0829,-0.05962 -0.34078,-0.300567 -0.65899,0.06773 -0.3182,0.368655 -0.20531,0.769408 0.11007,0.856898 0.15064,0.04551 0.45861,0.01024 0.53128,0.0049 0.0727,-0.0049 0.21802,0.03034 0.26565,0.153104 0.0176,0.0702 0.0152,0.07267 -0.1704,0.1778 -0.1852,0.105481 -0.93732,0.528814 -1.87677,0.491066 -0.24271,-0.0127 -0.94227,0.0078 -1.06998,-0.936977 -0.078,-0.523875 -0.10759,-1.335616 -0.11536,-1.438274 -0.007,-0.103011 -0.085,-1.929694 -0.32561,-2.701571 -0.0328,-0.105129 -0.0628,-0.06244 -0.0977,0.0078 m 3.42512,3.869267 c 0,0 -0.0751,-0.01976 -0.14005,-0.01236 -0.16087,0.02117 -0.2473,0.01553 -0.36442,-0.0024 -0.19262,-0.02963 -0.0593,-0.188384 0.03,-0.232834 0.0889,-0.0448 0.31539,-0.0254 0.47449,0.24765 m -1.4358,-3.871735 c -0.17322,0.232479 -0.18415,0.538337 -0.20709,0.879475 -0.0247,-0.07126 -0.16333,-0.528815 -0.60642,-0.790929 -0.0321,-0.01939 -0.0977,0.01659 -0.10372,0.124531 -0.004,0.06279 -0.0205,0.214842 0.0215,0.258233 0.0416,0.04339 0.16546,0.128411 0.18627,0.140052 0.0208,0.01236 0.0434,0.01376 0.0494,-0.01236 0.006,-0.02611 0.0346,-0.08678 0.0744,-0.04304 0.0339,0.03598 0.25259,0.226484 0.36583,0.630415 0.0198,0.05362 0.067,0.05891 0.0776,-0.01728 0.0261,-0.186619 0.0402,-0.511175 0.054,-0.609245 0.0201,-0.138642 0.0825,-0.423334 0.24836,-0.275522 0.0381,0.03387 0.0776,0.07832 0.0776,0.07832 0.0356,0.04657 0.0797,0.10019 0.10124,0.04621 0.0325,-0.08149 0.0589,-0.21731 0.0229,-0.289984 -0.0155,-0.03246 -0.22119,-0.307268 -0.36195,-0.118885 m 2.41336,0.117475 c -0.0702,0.106537 -0.12242,0.363009 -0.0222,0.435679 0.10019,0.07338 0.24659,0.132292 0.24659,0.132292 -0.46637,0.571148 -0.78493,0.680156 -1.05727,0.83961 -0.0702,0.04127 -0.0561,0.07796 -0.0152,0.06703 0.0212,-0.0053 0.3877,-0.0628 0.81597,-0.387701 0.23142,-0.176038 0.37148,-0.47625 0.37148,-0.47625 0,0 0.11606,0.09666 0.13193,0.116416 0.0353,0.04339 0.054,0.07549 0.0706,0.02963 0.061,-0.16863 -0.0251,-0.270582 -0.1076,-0.323499 0,0 0.0857,-0.263173 -0.0716,-0.52705 -0.0261,-0.0441 -0.18168,-0.18556 -0.36266,0.09384 m 0.24342,0.07303 c 0.10513,0.09737 0.0889,0.257527 0.085,0.294217 0,0 -0.13406,-0.0628 -0.19403,-0.08855 -0.0596,-0.02574 -0.0914,-0.0635 -0.0639,-0.1016 0.0924,-0.129823 0.13793,-0.125235 0.17286,-0.104069 m -7.09436,-0.219075 c -0.0162,0.03916 -0.1457,0.324554 -0.1457,0.324554 0.004,0.02328 0.0339,0.09384 0.055,0.237773 0.0222,0.149932 0.52423,2.700512 0.4064,3.305527 -0.003,0.01482 -0.65934,0.726723 -0.73942,0.772935 -0.0797,0.04622 -0.68862,0.361246 -1.10913,0.718257 -0.18803,0.159808 -0.647,0.549981 -1.02447,0.483306 -0.10442,-0.01905 -0.43285,-0.13053 -0.24377,-0.769056 0.055,-0.187325 0.32773,-0.67945 0.43216,-0.832909 0.004,0 0.007,7.94e-4 0.0102,7.94e-4 0.097,-0.006 0.21766,-0.09843 0.2854,-0.475546 0.0102,-0.08467 0.0166,-0.152046 0.0212,-0.18556 0.006,-0.0508 -0.0268,-0.109009 -0.0522,0.0078 -0.0582,0.232129 -0.23354,0.401108 -0.38876,0.104071 -0.0258,-0.05962 -0.13476,-0.330554 0.002,-0.944388 0.0279,-0.119237 0.0614,-0.296685 0.0614,-0.296685 0.0307,-0.134408 -0.0191,-0.203552 -0.0646,-0.03916 -0.0452,0.164748 -0.24024,0.734483 -0.16863,1.389591 0.0124,0.112184 0.0702,0.300919 0.17569,0.390173 -0.17921,0.238477 -0.93063,1.323621 -0.2219,1.894063 0.12771,0.102658 0.51682,0.202141 1.02941,-0.226484 0.16933,-0.141462 1.07138,-0.869595 1.63406,-0.978958 0.27587,-0.05327 1.5808,-0.344662 2.14207,-0.667808 0.16827,-0.09666 0.24377,-0.411692 0.27763,-0.504119 0.0335,-0.09243 0.0293,-0.155223 -0.10936,-0.323144 -0.13864,-0.167923 -0.52846,-0.410281 -0.99554,-0.252589 -0.28963,0.09842 -0.5842,0.378531 -0.78986,0.542218 0,0 0.10936,-0.567266 0.0169,-1.075266 -0.0335,-0.185209 -0.3108,-1.760006 -0.3108,-1.760006 0,0 0.14499,0.09666 0.17639,0.130527 0.0317,0.03316 0.0702,0.01516 0.0522,-0.03845 -0.0183,-0.05398 -0.35877,-0.878065 -0.37183,-0.911932 -0.013,-0.03422 -0.0257,-0.05856 -0.0423,-0.01939 m 2.10926,3.792361 c 0.0402,0.03598 0.043,0.06314 -0.0501,0.113593 -0.78175,0.422275 -2.10573,0.612069 -2.10573,0.612069 0.10866,-0.13476 0.76941,-0.855485 1.2633,-1.017762 0.0801,-0.02646 0.41346,-0.136525 0.89253,0.2921 m 11.26384,-3.550357 c -0.0699,0.10654 -0.12206,0.362305 -0.0222,0.43533 0.10019,0.07338 0.2466,0.132643 0.2466,0.132643 -0.46567,0.571148 -1.38042,0.976842 -1.59809,1.146527 -0.0649,0.04903 -0.0564,0.07796 -0.0152,0.06703 0.036,-0.0099 0.73308,-0.20461 1.37054,-0.750356 0.29175,-0.250121 0.28364,-0.269171 0.35772,-0.420864 0.0635,0.03246 0.10725,0.08537 0.13194,0.116416 0.0353,0.04374 0.0543,0.07585 0.0706,0.02999 0.061,-0.168979 -0.0251,-0.271286 -0.10725,-0.323496 0,0 0.0854,-0.263525 -0.0713,-0.527756 -0.0268,-0.0441 -0.18238,-0.184857 -0.36336,0.09454 m 0.24377,0.07267 c 0.10477,0.09701 0.0889,0.257527 0.0847,0.294217 0,0 -0.13371,-0.06279 -0.19403,-0.08819 -0.06,-0.02574 -0.0914,-0.06421 -0.0635,-0.101954 0.0921,-0.129821 0.13758,-0.125587 0.17286,-0.104069 m -1.78858,-0.165806 c -0.1831,0.233188 -0.19474,0.538692 -0.21908,0.879829 -0.0257,-0.07126 -0.1718,-0.528814 -0.63958,-0.790575 -0.0339,-0.01905 -0.10266,0.01693 -0.10937,0.124529 -0.004,0.0628 -0.0219,0.215196 0.0226,0.258234 0.0441,0.04339 0.17463,0.128412 0.19615,0.140054 0.0226,0.01236 0.0459,0.01376 0.0526,-0.01236 0.006,-0.02611 0.036,-0.08714 0.0787,-0.04339 0.0356,0.03634 0.26599,0.226836 0.38558,0.630415 0.0208,0.05362 0.0702,0.05891 0.0819,-0.01728 0.0279,-0.186619 0.0427,-0.511175 0.0575,-0.6096 0.0204,-0.137935 0.0868,-0.423333 0.26212,-0.275167 0.0395,0.03352 0.0815,0.07832 0.0815,0.07832 0.0374,0.04657 0.0843,0.09984 0.10689,0.04586 0.0346,-0.08114 0.0621,-0.216959 0.024,-0.289984 -0.0162,-0.03246 -0.23354,-0.306916 -0.38135,-0.118887 m -1.80023,-0.01093 c -0.0677,0.03951 -1.78752,1.032227 -1.85737,1.077032 -0.0699,0.04515 -0.0942,0.05644 -0.10549,0.110418 -0.0113,0.05398 -0.0169,0.08502 -0.0198,0.09349 -0.0127,0.03598 -0.0219,0.08008 0.0808,0.01341 0.0321,-0.02082 1.76212,-1.020585 1.8228,-1.058333 0.0582,-0.03634 0.0917,-0.05221 0.115,-0.10795 0.0236,-0.05539 0.0293,-0.06562 0.042,-0.104424 0.0134,-0.04127 0.0265,-0.08502 -0.078,-0.02363 m -11.25678,0.05962 c -0.16369,0.228954 -0.16122,0.5207 -0.16899,0.845963 -0.0279,-0.06703 -0.18732,-0.4953 -0.64311,-0.723197 -0.0332,-0.01659 -0.097,0.02082 -0.0984,0.123122 -0.001,0.05997 -0.0113,0.205668 0.0328,0.244827 0.0423,0.03775 0.34749,0.129116 0.19262,0.309033 -0.0695,0.08043 -0.41628,0.477308 -0.49071,0.57291 -0.0744,0.09525 -0.0815,0.112535 10e-4,0.06173 0.0818,-0.0508 0.55985,-0.262818 0.61736,-0.749652 0.004,-0.0635 -0.0117,-0.110066 -0.0275,-0.14111 0.007,0.0011 0.0145,0.0049 0.0219,0.01236 0.036,0.03281 0.26317,0.203552 0.39476,0.582084 0.0226,0.04974 0.0695,0.05256 0.0773,-0.02045 0.018,-0.178504 0.0176,-0.487537 0.0272,-0.581377 0.0138,-0.132291 0.0639,-0.406048 0.23671,-0.273402 0.0395,0.02999 0.0815,0.07055 0.0815,0.07055 0.0374,0.04269 0.0843,0.09137 0.10302,0.03916 0.0293,-0.07902 0.0497,-0.208844 0.0106,-0.276929 -0.0173,-0.02999 -0.23566,-0.281165 -0.36795,-0.0956 m 7.60695,0.30339 c -0.0684,0.04269 -2.63772,1.32221 -2.83457,1.481667 -0.0984,0.07973 -0.18098,0.206727 -0.20955,0.343958 -0.0413,0.198967 0.008,0.39511 0.13758,0.416277 0.0907,0.0141 0.14217,0.06668 0.1651,0.09701 0.01,0.0127 0.0243,0.0039 0.0289,-0.0049 0.10266,-0.202848 0.01,-0.329848 -0.1651,-0.380294 -0.0695,-0.01976 -0.10054,-0.116416 0.15593,-0.281164 0.23707,-0.152048 2.57739,-1.335969 2.62996,-1.372659 0.0713,-0.04974 0.1143,-0.06879 0.14181,-0.1397 0.0275,-0.07126 0.0346,-0.08396 0.0487,-0.132995 0.0155,-0.05221 0.0307,-0.108305 -0.0988,-0.02716 m 3.98004,0.991658 c -0.0342,0.08431 -0.17851,0.37465 -0.15664,0.717196 0.005,0.07937 0.0579,0.233188 0.17675,0.237421 0.0621,0 0.14146,-0.04445 0.19826,-0.238479 0.01,-0.04374 0.0159,-0.07867 0.0198,-0.09595 0.006,-0.02574 -0.0134,-0.05715 -0.0335,0.0024 -0.0448,0.118885 -0.16193,0.20179 -0.24977,0.04268 -0.0145,-0.03175 -0.0734,-0.175683 0.0353,-0.49036 0.0219,-0.06138 0.0494,-0.152752 0.0494,-0.152752 0.0243,-0.06879 -0.005,-0.106185 -0.0395,-0.02222 m -10.86027,0.138287 c -0.0321,0.08855 -0.16792,0.395817 -0.12982,0.749655 0.009,0.08149 0.0702,0.238829 0.19368,0.23777 0.0642,-0.0028 0.14428,-0.05292 0.19402,-0.256116 0.008,-0.04586 0.013,-0.08255 0.0166,-0.100188 0.005,-0.02787 -0.0166,-0.05856 -0.0342,0.0042 -0.0413,0.124883 -0.1591,0.216252 -0.25717,0.05539 -0.0159,-0.0321 -0.084,-0.178506 0.0141,-0.509765 0.0201,-0.0642 0.0444,-0.16016 0.0444,-0.16016 0.0226,-0.07232 -0.01,-0.109715 -0.0416,-0.02082 m 14.16756,0.03493 c -0.0314,0.07832 -0.1651,0.347134 -0.14499,0.66393 0.005,0.07338 0.0536,0.2159 0.16369,0.219779 0.0572,0 0.13087,-0.04127 0.18344,-0.220486 0.009,-0.04057 0.0148,-0.07338 0.0183,-0.0889 0.006,-0.02434 -0.0123,-0.05327 -0.0307,0.0021 -0.042,0.109715 -0.14993,0.186973 -0.23177,0.03951 -0.013,-0.02928 -0.0677,-0.162629 0.0328,-0.454377 0.0205,-0.05644 0.0459,-0.140758 0.0459,-0.140758 0.0226,-0.0635 -0.005,-0.09842 -0.0367,-0.02082 m -6.20607,0.0088 -0.16862,0.230362 -0.3228,-0.235654 c -0.008,-0.0053 -0.0198,-0.0035 -0.0257,0.0053 l -0.19508,0.267052 c -0.006,0.0085 -0.005,0.02011 0.003,0.02574 l 0.33302,0.242713 c 0.008,0.006 0.0194,0.0039 0.0254,-0.0046 l 0.16863,-0.230716 0.32279,0.235304 c 0.008,0.006 0.0201,0.0039 0.0258,-0.0046 l 0.19508,-0.267404 c 0.006,-0.0085 0.005,-0.02045 -0.003,-0.02611 l -0.33267,-0.24271 c -0.008,-0.0053 -0.0201,-0.0035 -0.0258,0.0053 m 1.30316,0.415571 c -0.013,0.04516 -0.0459,0.239889 -0.0533,0.279754 -0.008,0.04022 -0.007,0.07973 0.0123,0.113946 0.0194,0.03457 0.0702,0.152754 0.10689,0.249414 0.0363,0.09631 0.41416,0.823736 0.44909,0.888294 0.0353,0.06456 0.0423,0.112538 0.007,0.155575 -1.21214,1.279173 -3.55282,2.066221 -3.62761,2.109965 -0.0748,0.04339 -0.055,0.07726 0.0709,0.05503 0.18838,-0.03316 1.23966,-0.208843 1.53952,-0.353483 0.19755,-0.0949 0.88759,-0.433565 1.45238,-0.8763 -0.0159,0.1143 -0.0303,0.282223 -0.0226,0.4953 0.0385,1.029406 0.95849,0.858308 1.20015,0.805391 0.72354,-0.159101 1.60831,-1.159226 1.68345,-1.359958 0.0744,-0.198967 0.085,-0.379942 0.0688,-0.537633 0.1905,-0.10301 0.59972,-0.43321 0.59972,-0.43321 0.0169,0.438501 0.36584,0.570087 0.47379,0.589491 0.50306,0.07655 0.75565,-0.344665 0.86289,-0.480838 0.0917,0.240242 0.31221,0.287163 0.42545,0.30974 0.43427,0.08643 0.51929,-0.22084 0.54151,-0.291042 0.13653,-0.423685 -0.10936,-0.739068 -0.14075,-0.774348 -0.0317,-0.03528 -0.0476,-0.0019 -0.0586,0.03916 -0.0116,0.04057 -0.0462,0.193323 -0.0684,0.288925 0,0 0.091,0.148166 0.12347,0.223308 0.0321,0.07514 -0.0159,0.116771 -0.10936,0.128058 -0.26424,0.03246 -0.4752,-0.119237 -0.54787,-0.189087 -0.0723,-0.06985 0.006,-0.193323 0.0646,-0.341138 0.0473,-0.118178 -0.0399,-0.131937 -0.10689,-2.64e-4 -0.22366,0.58914 -0.53834,0.65264 -0.62124,0.674865 -0.74648,0.203551 -0.68192,-0.478722 -0.6791,-0.590199 0.003,-0.111831 -0.079,-0.07056 -0.1711,0.0032 -0.31397,0.252236 -0.56691,0.400402 -0.70273,0.460727 -0.11712,-0.228952 -0.28716,-0.372533 -0.35913,-0.424743 -0.80715,-0.588785 -0.87418,0.599723 -0.84949,0.726723 0.12277,0.505177 0.94756,0.198967 1.07703,0.183443 0.12947,-0.01482 0.0871,0.155927 0.0145,0.257175 -0.17886,0.250119 -0.38524,0.430036 -0.57291,0.582436 -0.7994,0.652639 -1.20086,0.601133 -1.32433,0.597254 -0.78528,-0.02222 -0.71332,-0.868891 -0.66957,-1.049866 0.236,-0.200025 0.4392,-0.417338 0.55703,-0.64135 0.0483,-0.123122 0.13088,-0.401815 -0.0187,-0.751772 -0.0783,-0.154162 -0.32597,-0.585962 -0.32597,-0.585962 0,0 0.18203,0.0056 0.19967,0.0049 0.0173,0 0.0511,-0.01799 0.007,-0.06914 -0.0445,-0.0508 -0.42721,-0.43321 -0.45049,-0.464256 -0.0229,-0.03069 -0.0445,-0.05292 -0.0572,-0.0074 m 2.42217,1.7526 c 0,0 -0.11007,0.06315 -0.41734,0.04233 -0.25788,-0.01728 -0.23565,-0.117475 -0.20038,-0.155575 0.0385,-0.04198 0.35384,-0.240946 0.61772,0.113242 m -5.81554,-1.63195 -0.19509,0.267406 c -0.006,0.0085 -0.005,0.02045 0.003,0.02611 l 0.33302,0.242711 c 0.008,0.0056 0.0194,0.0035 0.0257,-0.0049 l 0.19473,-0.267404 c 0.006,-0.0081 0.005,-0.02011 -0.003,-0.02574 l -0.33267,-0.243062 c -0.008,-0.0056 -0.0198,-0.0032 -0.0258,0.0049 m -6.63645,0.818091 c -0.0317,0.0889 -0.16792,0.396172 -0.12982,0.749655 0.009,0.08219 0.0702,0.239535 0.19402,0.238125 0.0639,-0.0028 0.14394,-0.05257 0.19403,-0.255413 0.008,-0.04621 0.0127,-0.08255 0.0162,-0.101245 0.005,-0.02681 -0.0162,-0.05821 -0.0342,0.0049 -0.0413,0.124884 -0.15875,0.2159 -0.25717,0.05503 -0.0159,-0.03175 -0.084,-0.178152 0.0145,-0.509762 0.0198,-0.06421 0.0441,-0.159809 0.0441,-0.159809 0.0226,-0.07267 -0.01,-0.110421 -0.0416,-0.02151 m 9.13553,-0.611011 c -0.0536,0.06597 -0.58984,0.770115 -0.58984,0.770115 l -0.39017,-0.27799 c 0,0 0.15945,-0.04022 0.18697,-0.04833 0.0279,-0.0081 0.0434,-0.04374 -0.007,-0.06914 -0.0497,-0.02611 -0.51965,-0.213783 -0.55563,-0.227893 -0.036,-0.01482 -0.049,-0.03105 -0.0519,0.0071 -0.003,0.0381 -0.009,0.34784 -0.009,0.34784 0,0 -0.007,0.02117 0.0342,0.0448 0.0409,0.02328 0.0811,0.07338 0.11466,0.106892 0.0339,0.03351 0.47131,0.378883 0.49247,0.390879 0,0 -0.21907,0.384527 -0.24694,0.685094 -0.0279,0.301273 0.006,0.716491 0.41698,0.582435 0.11042,-0.03175 0.5715,-0.214842 0.67451,-0.535869 0.0332,-0.118533 0.12806,-0.332316 -0.0261,-0.548923 -0.0893,-0.127352 -0.44944,-0.342193 -0.44944,-0.342193 0,0 0.27658,-0.382411 0.30303,-0.429332 0.0261,-0.04657 0.12771,-0.342545 0.139,-0.41416 0.0113,-0.07161 0.0166,-0.107598 -0.0363,-0.04127 m -0.0945,1.623131 c -0.15275,0.125236 -0.47413,0.291746 -0.56409,0.300213 -0.0903,0.0088 -0.32985,-0.03493 -0.22543,-0.280811 0.0356,-0.07902 0.27446,-0.48895 0.27446,-0.48895 0.0896,0.04939 0.66781,0.343252 0.51506,0.469548 m -3.71299,-0.745421 c -0.0342,0.09948 -0.18027,0.444148 -0.13264,0.8382 0.0109,0.09102 0.0811,0.265642 0.21801,0.262467 0.0706,-0.0039 0.15911,-0.06068 0.21132,-0.288219 0.008,-0.05151 0.0134,-0.09208 0.0169,-0.111831 0.005,-0.03069 -0.0191,-0.06562 -0.0381,0.0049 -0.0441,0.140406 -0.17286,0.243416 -0.28398,0.06526 -0.018,-0.03563 -0.0956,-0.198263 0.008,-0.568679 0.0208,-0.07232 0.0469,-0.17921 0.0469,-0.17921 0.0233,-0.08114 -0.0123,-0.122767 -0.0469,-0.02294 m 9.9434,1.30669 c -0.031,0.08643 -0.043,0.143227 -0.0399,0.176035 0.004,0.03316 0.0148,0.1397 0.0148,0.1397 -0.0321,0.0254 -0.16863,0.110421 -0.30551,0.0099 0.009,-0.02928 0.0265,-0.08855 0.0307,-0.121356 0.0148,-0.05045 -0.0162,-0.08819 -0.0409,-0.03563 -0.0254,0.05221 -0.0832,0.227896 -0.12629,0.267759 -0.043,0.03916 -0.0931,0.184504 -0.41945,0.03669 -0.0568,-0.02151 -0.15699,-0.0956 -0.31256,0.06103 -0.35278,0.327729 -0.59585,0.353129 -0.99166,0.493535 -0.0476,0.02222 -0.14782,0.09737 -0.0289,0.08572 0.11924,-0.01236 0.62018,0 0.89288,-0.312915 0.0572,-0.05539 0.12241,-0.201787 0.33937,-0.116768 0.11959,0.04551 0.34114,0.236008 0.58314,-0.140407 0.14253,0.09525 0.35878,0.0575 0.39335,-0.04727 0.0349,-0.104775 0.0744,-0.208846 0.0737,-0.280107 -2.6e-4,-0.07091 -0.006,-0.1651 -0.006,-0.1651 -0.005,-0.05609 -0.0247,-0.136525 -0.0564,-0.0508 m -11.68753,0.301273 c -0.0773,0.03528 -1.29787,0.613127 -1.37689,0.651579 -0.0744,0.03563 -0.0938,0.05609 -0.10548,0.109715 -0.0109,0.05362 -0.0169,0.08467 -0.0194,0.09348 -0.0127,0.03598 -0.0219,0.06738 0.0808,0.01342 0.0339,-0.01799 1.27917,-0.599017 1.34161,-0.632532 0.061,-0.0321 0.0921,-0.05186 0.11536,-0.107595 0.0233,-0.05539 0.0293,-0.06562 0.0416,-0.104775 0.0134,-0.04092 0.0324,-0.07373 -0.0776,-0.02328 m -2.47791,0.528813 c -0.0632,0.02045 -0.77753,0.276579 -0.84738,0.304096 -0.0653,0.02611 -0.0829,0.04268 -0.0952,0.08749 -0.0123,0.0448 -0.0187,0.07091 -0.0215,0.07832 -0.0127,0.02999 -0.0282,0.05503 0.0677,0.01553 0.0466,-0.01939 0.75036,-0.261409 0.81703,-0.290336 0.0533,-0.02328 0.0801,-0.03916 0.10301,-0.08502 0.0229,-0.04551 0.0286,-0.05398 0.0409,-0.08608 0.0134,-0.03387 0.0293,-0.05433 -0.0645,-0.024 m 0.0116,0.370416 c -0.0624,0.02045 -0.77717,0.27658 -0.84702,0.3048 -0.0653,0.02574 -0.0829,0.04198 -0.0952,0.08714 -0.0124,0.0448 -0.0187,0.07055 -0.0215,0.07796 -0.0127,0.02999 -0.0282,0.05503 0.0677,0.01588 0.0466,-0.01939 0.75036,-0.26176 0.81703,-0.290687 0.0529,-0.02328 0.0801,-0.03881 0.10337,-0.08467 0.0222,-0.04586 0.0279,-0.05398 0.0406,-0.08643 0.0134,-0.03387 0.0293,-0.05433 -0.0649,-0.024"
       style="fill:#231f20;fill-opacity:1;fill-rule:evenodd;stroke:none;stroke-width:0.264583"
       id="path1-5" />
  </g>
</svg>
