<?xml version="1.0" encoding="UTF-8" standalone="no"?>
<!-- Created with Inkscape (http://www.inkscape.org/) -->

<svg
   width="14.368091mm"
   height="6.0800757mm"
   viewBox="0 0 14.368091 6.0800757"
   version="1.1"
   id="svg1"
   xmlns:inkscape="http://www.inkscape.org/namespaces/inkscape"
   xmlns:sodipodi="http://sodipodi.sourceforge.net/DTD/sodipodi-0.dtd"
   xmlns="http://www.w3.org/2000/svg"
   xmlns:svg="http://www.w3.org/2000/svg">
  <sodipodi:namedview
     id="namedview1"
     pagecolor="#ffffff"
     bordercolor="#666666"
     borderopacity="1.0"
     inkscape:showpageshadow="2"
     inkscape:pageopacity="0.0"
     inkscape:pagecheckerboard="0"
     inkscape:deskcolor="#d1d1d1"
     inkscape:document-units="mm" />
  <defs
     id="defs1" />
  <g
     inkscape:label="Layer 1"
     inkscape:groupmode="layer"
     id="layer1"
     transform="translate(-112.17129,-41.2652)">
    <path
       d="m 118.79756,41.434067 c -0.0702,0.10654 -0.12276,0.363008 -0.0222,0.435681 0.0998,0.07338 0.24624,0.132996 0.24624,0.132996 -0.46602,0.570441 -0.78458,0.67945 -1.05728,0.839258 -0.0702,0.04092 -0.0561,0.07796 -0.0148,0.06703 0.0208,-0.0056 0.38771,-0.0628 0.81563,-0.388057 0.23142,-0.175683 0.37147,-0.475898 0.37147,-0.475898 0,0 0.11607,0.09666 0.13194,0.116065 0.0353,0.04339 0.054,0.07585 0.0706,0.02963 0.061,-0.168981 -0.0251,-0.270581 -0.1076,-0.323143 0,0 0.0857,-0.263525 -0.0713,-0.527405 -0.0265,-0.04409 -0.18204,-0.18556 -0.36266,0.09384 m 0.24307,0.07303 c 0.10513,0.09737 0.0889,0.257527 0.085,0.294216 0,0 -0.13371,-0.06244 -0.19403,-0.08855 -0.0596,-0.0254 -0.0914,-0.0635 -0.0639,-0.1016 0.0928,-0.12982 0.13793,-0.125235 0.17286,-0.104068 m 6.27909,0.02294 c -0.0702,0.106537 -0.12241,0.362654 -0.0222,0.435679 0.0998,0.07338 0.24624,0.132292 0.24624,0.132292 -0.46566,0.571148 -1.38042,0.977196 -1.59808,1.146881 -0.0649,0.04903 -0.0561,0.07796 -0.0152,0.06703 0.036,-0.0099 0.73307,-0.20461 1.37054,-0.750358 0.29175,-0.250471 0.28363,-0.269169 0.35807,-0.421217 0.0635,0.03316 0.10689,0.08572 0.13158,0.116417 0.0353,0.04339 0.0543,0.07585 0.0706,0.02999 0.061,-0.168981 -0.0251,-0.270933 -0.10689,-0.323498 0,0 0.085,-0.263173 -0.0716,-0.52705 -0.0268,-0.04445 -0.18238,-0.18556 -0.363,0.09384 m 0.24341,0.07232 c 0.10513,0.09807 0.0893,0.258233 0.0847,0.294923 0,0 -0.1337,-0.0628 -0.19403,-0.08855 -0.06,-0.02574 -0.0914,-0.0635 -0.0635,-0.101952 0.0924,-0.129471 0.13759,-0.125238 0.17286,-0.104423 m -1.78858,-0.1651 c -0.18309,0.232833 -0.19473,0.538691 -0.21908,0.879827 -0.0257,-0.07161 -0.1718,-0.529167 -0.63958,-0.790927 -0.0339,-0.01905 -0.10266,0.01693 -0.10936,0.124883 -0.004,0.06279 -0.0219,0.214842 0.0226,0.258233 0.0441,0.04304 0.17462,0.128059 0.1965,0.140052 0.0222,0.01199 0.0455,0.01376 0.0522,-0.0127 0.006,-0.02611 0.036,-0.08678 0.0787,-0.04339 0.0356,0.03598 0.266,0.226837 0.38559,0.630766 0.0208,0.05327 0.0702,0.05856 0.0819,-0.01728 0.0279,-0.186619 0.043,-0.511527 0.0575,-0.609952 0.0208,-0.137938 0.0868,-0.423333 0.26211,-0.274815 0.0395,0.03352 0.0819,0.07761 0.0819,0.07761 0.0374,0.04692 0.084,0.100541 0.10654,0.04621 0.0346,-0.08114 0.0624,-0.216606 0.0243,-0.289631 -0.0166,-0.03281 -0.23354,-0.307269 -0.38171,-0.118885 m -1.80022,-0.0113 c -0.0677,0.03951 -1.78753,1.032581 -1.85738,1.077738 -0.0699,0.0448 -0.0942,0.05609 -0.10548,0.110066 -0.0113,0.05327 -0.0169,0.08467 -0.0198,0.09313 -0.0124,0.03598 -0.0215,0.08043 0.0808,0.01341 0.0321,-0.02082 1.76213,-1.020585 1.82281,-1.058333 0.0582,-0.03634 0.0917,-0.05186 0.115,-0.107596 0.0236,-0.05574 0.0293,-0.06562 0.042,-0.104423 0.0134,-0.04127 0.0268,-0.08467 -0.078,-0.024 m -8.0892,0.03387 c -0.17391,0.221546 -0.18485,0.512588 -0.20849,0.837142 -0.0243,-0.06808 -0.16333,-0.503412 -0.60783,-0.752475 -0.0325,-0.01799 -0.0984,0.01622 -0.10443,0.118888 -0.004,0.05962 -0.0208,0.20461 0.0212,0.245885 0.0406,0.03916 0.34114,0.144992 0.17816,0.317148 -0.073,0.07761 -0.43851,0.457552 -0.51753,0.549627 -0.0787,0.09172 -0.0861,0.108656 -0.002,0.06138 0.0847,-0.04657 0.57185,-0.236008 0.65228,-0.719314 0.007,-0.06315 -0.006,-0.110771 -0.0208,-0.142521 0.006,0.0013 0.0138,0.006 0.0212,0.01376 0.0342,0.03422 0.25329,0.215546 0.36688,0.599721 0.0201,0.0508 0.0674,0.05574 0.0783,-0.01659 0.0261,-0.177449 0.0402,-0.486482 0.0543,-0.579967 0.0198,-0.131233 0.0829,-0.402521 0.24906,-0.261763 0.0381,0.0321 0.0783,0.07444 0.0783,0.07444 0.0353,0.04445 0.0797,0.09525 0.10125,0.04374 0.0328,-0.07761 0.0593,-0.206375 0.0229,-0.275873 -0.0155,-0.03069 -0.2219,-0.2921 -0.36301,-0.113241 m 3.1182,0.100896 c -1.15041,0.716843 -2.0066,0.449437 -2.05352,0.428625 -0.0469,-0.02082 -0.0963,-0.03669 -0.0836,0.02328 0.0134,0.05962 0.0183,0.220485 0.0469,0.251884 0.091,0.08043 0.12982,0.238828 0.13512,0.285395 0.005,0.04692 0.0261,0.04445 0.0416,0.01553 0.0155,-0.02857 0.0286,-0.129823 0.0363,-0.251531 1.09573,0.0702 1.90818,-0.528109 1.95545,-0.558446 0.0801,-0.05186 0.0515,0.03387 0.0441,0.119592 -0.008,0.08537 -0.0367,0.254352 -0.0416,0.31397 -0.005,0.05962 0.0257,0.02363 0.0416,-0.03351 0.0155,-0.05715 0.0776,-0.280458 0.10372,-0.511529 0.0261,-0.231421 -0.15346,-0.124529 -0.22613,-0.08325 m 5.30119,1.220258 c -0.0342,0.08431 -0.17815,0.37465 -0.15663,0.717196 0.005,0.07902 0.0579,0.233891 0.17674,0.237421 0.0621,0 0.14146,-0.04481 0.19826,-0.23848 0.01,-0.04374 0.0155,-0.07902 0.0198,-0.0956 0.006,-0.02646 -0.0134,-0.0575 -0.0335,0.0021 -0.0448,0.118885 -0.16157,0.20179 -0.24976,0.04268 -0.0145,-0.03139 -0.0737,-0.176035 0.0353,-0.490712 0.0219,-0.06138 0.0497,-0.1524 0.0497,-0.1524 0.024,-0.06915 -0.005,-0.106892 -0.0399,-0.02223 m 3.30765,0.173212 c -0.0317,0.07797 -0.16546,0.347134 -0.14535,0.66393 0.005,0.07338 0.0536,0.216252 0.16369,0.219779 0.0571,0 0.13088,-0.04127 0.18344,-0.220838 0.009,-0.04022 0.0148,-0.07303 0.0183,-0.0889 0.006,-0.024 -0.0124,-0.05292 -0.0307,0.0024 -0.042,0.110066 -0.14993,0.186973 -0.23142,0.03951 -0.013,-0.02928 -0.0681,-0.162629 0.0324,-0.454377 0.0205,-0.0568 0.0462,-0.14111 0.0462,-0.14111 0.0222,-0.0635 -0.005,-0.09843 -0.0367,-0.02045 m -9.38213,0.03387 c -0.14322,0.204965 -0.13793,0.463198 -0.14217,0.751771 -0.025,-0.05927 -0.17039,-0.437446 -0.57644,-0.635354 -0.0296,-0.0141 -0.0864,0.01939 -0.0864,0.110421 -2.6e-4,0.05327 -0.008,0.182385 0.0314,0.216252 0.0395,0.03457 0.15346,0.09948 0.17251,0.108656 0.019,0.0092 0.0388,0.0092 0.0434,-0.01304 0.004,-0.02222 0.0261,-0.07479 0.0638,-0.04022 0.0321,0.02858 0.23495,0.1778 0.35525,0.511881 0.0205,0.0441 0.0621,0.04621 0.0681,-0.01834 0.0145,-0.158399 0.0113,-0.432507 0.0187,-0.516115 0.0109,-0.117475 0.0529,-0.36054 0.20743,-0.244475 0.0353,0.02681 0.0727,0.06173 0.0727,0.06173 0.0339,0.03775 0.0755,0.08043 0.0921,0.03352 0.0251,-0.06985 0.0416,-0.185208 0.006,-0.244827 -0.0155,-0.02681 -0.21131,-0.247298 -0.32667,-0.08185 m 2.65853,-0.0254 -0.19508,0.267406 c -0.006,0.0081 -0.005,0.02011 0.003,0.02574 l 0.33302,0.242713 c 0.008,0.006 0.0198,0.0039 0.0254,-0.0046 l 0.16863,-0.231069 0.32279,0.235657 c 0.008,0.006 0.0201,0.0039 0.0258,-0.0046 l 0.19543,-0.267758 c 0.006,-0.0081 0.005,-0.01976 -0.004,-0.02574 l -0.33266,-0.24271 c -0.008,-0.0056 -0.0198,-0.0039 -0.0258,0.0049 l -0.16863,0.230717 -0.32279,-0.235654 c -0.008,-0.0056 -0.0198,-0.0039 -0.0257,0.0049 m -5.05778,0.105833 c -0.0374,0.09137 -0.19367,0.406755 -0.17004,0.77823 0.006,0.08572 0.0624,0.252942 0.19156,0.257527 0.0674,0 0.15346,-0.04868 0.2152,-0.25894 0.0102,-0.04727 0.0173,-0.08537 0.0212,-0.104069 0.007,-0.02858 -0.0141,-0.06209 -0.036,0.0028 -0.0487,0.128762 -0.17568,0.21872 -0.27093,0.04621 -0.0155,-0.03422 -0.0797,-0.1905 0.0384,-0.532694 0.0233,-0.06597 0.0533,-0.1651 0.0533,-0.1651 0.0265,-0.07444 -0.005,-0.11571 -0.0427,-0.024 m 3.60892,0.0568 c -0.0162,0.04374 -0.0667,0.278693 -0.0737,0.301976 -0.007,0.02328 0.084,0.326673 0.1016,0.380297 0.0321,0.09948 0.3369,0.857953 0.35489,0.91581 0.0187,0.0575 0.0624,0.204965 -0.10795,0.20955 -0.17109,0.0046 -0.45684,-0.05433 -0.58843,-0.27799 0,0 0.0102,-0.05468 0.0279,-0.09807 0.0229,-0.05574 -0.0113,-0.119592 -0.0508,-0.04586 -0.0392,0.07373 -0.20285,0.516466 -0.45649,0.548571 -0.0642,0.0095 -0.25965,0.02963 -0.29634,-0.251532 0,0 0.0268,-0.09384 0.0498,-0.147108 0.0233,-0.05327 0.002,-0.108302 -0.0529,-0.0441 -0.0557,0.06491 -0.44238,0.550333 -0.99342,0.386998 0,0 -0.15664,-0.352777 -0.18204,-0.403577 -0.0254,-0.0508 -0.072,-0.02468 -0.079,0.01659 -0.007,0.04163 -0.0554,0.322791 -0.0554,0.322791 0,0 0.28575,0.592667 0.30657,0.691798 0.0212,0.09948 0.0903,0.270934 -0.24412,0.504825 -0.10266,0.07232 -0.93945,0.727427 -1.75825,0.700265 -0.20073,-0.0071 -1.35008,-0.08467 -0.82232,-1.566688 0.0825,-0.04163 0.17356,-0.167568 0.24553,-0.478012 0.0166,-0.09137 0.0272,-0.164748 0.0339,-0.200379 0.01,-0.05468 -0.0198,-0.120296 -0.0526,0.0046 -0.0737,0.24765 -0.26035,0.4191 -0.39476,0.08467 -0.0219,-0.06597 -0.11218,-0.368655 0.0667,-1.026232 0.036,-0.127706 0.0815,-0.317852 0.0815,-0.317852 0.0402,-0.143581 -0.005,-0.222604 -0.0617,-0.04727 -0.0561,0.176035 -0.29034,0.781402 -0.26318,1.498248 0.005,0.154162 0.0744,0.443442 0.2346,0.492829 -0.003,0.0071 -0.006,0.01447 -0.008,0.02294 -0.067,0.209902 -0.629,1.721557 0.72249,1.902884 0.21378,0.02822 1.4986,-0.05574 2.22638,-0.966259 0.0924,-0.11571 0.16404,-0.202141 0.16651,-0.460726 0.002,-0.134057 -0.0332,-0.322088 -0.0332,-0.322088 0.10795,-0.0067 0.39617,-0.01024 0.71438,-0.316794 0,0.02999 0.0183,0.288925 0.35031,0.297392 0.0713,0.0021 0.28821,-0.02082 0.46108,-0.403577 0.03,0.0254 0.23953,0.390525 0.73095,0.207785 0.0843,-0.0314 0.37148,-0.303035 0.23283,-0.83961 -0.0293,-0.113596 -0.26493,-0.721432 -0.26493,-0.721432 0,0 0.12206,0.04833 0.14746,0.05786 0.0251,0.0092 0.0921,0.01588 0.0508,-0.05786 -0.0413,-0.07373 -0.38735,-0.516466 -0.41522,-0.553156 -0.0275,-0.03704 -0.0346,-0.04621 -0.0508,-0.0024 m -3.41207,1.342318 c -0.0483,0.134409 -0.25011,0.597255 -0.22613,1.145117 0.006,0.126648 0.0744,0.374298 0.23672,0.382765 0.0843,2.64e-4 0.19402,-0.06985 0.27411,-0.378884 0.0141,-0.0695 0.0236,-0.125941 0.0289,-0.153106 0.009,-0.04198 -0.0173,-0.09208 -0.0455,0.0035 -0.0631,0.189442 -0.22436,0.319968 -0.34148,0.06456 -0.0191,-0.0508 -0.0974,-0.282575 0.0568,-0.784931 0.0311,-0.09701 0.0702,-0.24271 0.0702,-0.24271 0.0346,-0.109715 -0.005,-0.170392 -0.0536,-0.03634 m 6.68126,-1.089025 c -0.013,0.04551 -0.0455,0.239889 -0.0533,0.279754 -0.008,0.03986 -0.007,0.08008 0.0124,0.113946 0.0198,0.03422 0.0705,0.152754 0.10689,0.249063 0.0367,0.09631 0.41451,0.824087 0.44908,0.888645 0.0353,0.06456 0.0423,0.11289 0.007,0.155223 -1.21249,1.279877 -3.55317,2.066573 -3.62796,2.109965 -0.0748,0.04374 -0.0547,0.07761 0.0709,0.05539 0.18874,-0.03316 1.23967,-0.208843 1.53953,-0.353131 0.19755,-0.09525 0.88794,-0.434269 1.45238,-0.876652 -0.0159,0.113948 -0.0303,0.282223 -0.0226,0.4953 0.0385,1.029052 0.9585,0.858308 1.20015,0.805391 0.7239,-0.15875 1.60832,-1.159226 1.68346,-1.359958 0.0744,-0.198615 0.0854,-0.379942 0.0688,-0.537985 0.1905,-0.103013 0.59972,-0.433213 0.59972,-0.433213 0.0169,0.438856 0.36619,0.570796 0.47378,0.589846 0.50306,0.0762 0.75565,-0.344313 0.8629,-0.480838 0.0917,0.240242 0.31221,0.287163 0.4258,0.30974 0.43427,0.08608 0.51894,-0.221192 0.54116,-0.291042 0.13653,-0.423333 -0.10936,-0.739423 -0.1404,-0.7747 -0.0317,-0.03493 -0.048,-0.0011 -0.0589,0.03951 -0.0113,0.04057 -0.0462,0.193323 -0.0684,0.288573 0,0 0.091,0.148166 0.12348,0.22366 0.0324,0.07514 -0.0159,0.116771 -0.10937,0.128058 -0.26423,0.03211 -0.47519,-0.119237 -0.54786,-0.189441 -0.0723,-0.0695 0.006,-0.192969 0.0646,-0.340784 0.0473,-0.118178 -0.0399,-0.132291 -0.10689,-2.64e-4 -0.22366,0.58914 -0.53834,0.65264 -0.62089,0.674865 -0.74648,0.203551 -0.68227,-0.478367 -0.67945,-0.59055 0.003,-0.11148 -0.079,-0.07021 -0.1711,0.0035 -0.31362,0.252235 -0.56691,0.40005 -0.70273,0.460375 -0.11712,-0.2286 -0.28716,-0.372534 -0.35913,-0.424392 -0.80716,-0.588785 -0.87383,0.599368 -0.84914,0.726723 0.12242,0.505177 0.94721,0.199319 1.07668,0.183444 0.12947,-0.01516 0.0871,0.155926 0.0145,0.257175 -0.17885,0.250473 -0.38523,0.430035 -0.57291,0.582435 -0.79939,0.652639 -1.20085,0.601133 -1.32433,0.5969 -0.78528,-0.02188 -0.71296,-0.868185 -0.66957,-1.049512 0.23601,-0.199673 0.43921,-0.41769 0.55704,-0.64135 0.0483,-0.123122 0.13088,-0.401815 -0.0187,-0.751772 -0.0783,-0.154162 -0.32596,-0.585962 -0.32596,-0.585962 0,0 0.18238,0.0056 0.19967,0.0053 0.0173,-2.65e-4 0.0515,-0.01834 0.007,-0.0695 -0.0444,-0.05115 -0.42721,-0.433565 -0.45049,-0.464257 -0.0229,-0.03069 -0.0444,-0.05292 -0.0571,-0.0074 m 2.42217,1.752248 c 0,0 -0.11007,0.0635 -0.41734,0.04233 -0.25788,-0.01693 -0.23565,-0.117475 -0.20037,-0.155224 0.0384,-0.04198 0.35383,-0.240241 0.61771,0.11289 m -3.31646,-1.424516 c -0.0536,0.06597 -0.58985,0.76976 -0.58985,0.76976 l -0.39017,-0.277987 c 0,0 0.15945,-0.03951 0.18697,-0.04798 0.0279,-0.0081 0.0438,-0.04374 -0.007,-0.0695 -0.0497,-0.02574 -0.51964,-0.213432 -0.55563,-0.227542 -0.036,-0.01482 -0.049,-0.03069 -0.0515,0.0074 -0.004,0.03775 -0.009,0.347134 -0.009,0.347134 0,0 -0.007,0.02188 0.0342,0.04515 0.0409,0.02328 0.0811,0.07338 0.11501,0.10654 0.0335,0.03387 0.47096,0.379235 0.49212,0.391232 0,0 -0.21907,0.384527 -0.24694,0.685445 -0.0275,0.300921 0.006,0.71614 0.41698,0.582083 0.11042,-0.0314 0.57115,-0.214487 0.67451,-0.535868 0.0335,-0.118533 0.12806,-0.331965 -0.0261,-0.548923 -0.0893,-0.127352 -0.44909,-0.342546 -0.44909,-0.342546 0,0 0.27623,-0.382058 0.30269,-0.428625 0.0265,-0.04692 0.1277,-0.3429 0.13899,-0.414514 0.0116,-0.07162 0.0166,-0.107599 -0.0363,-0.04127 m -0.0945,1.622776 c -0.1524,0.12559 -0.47413,0.291749 -0.56409,0.300567 -0.0903,0.0085 -0.32985,-0.03528 -0.22543,-0.280458 0.0356,-0.07973 0.27447,-0.489302 0.27447,-0.489302 0.0896,0.04904 0.66816,0.343606 0.51505,0.469193 m -3.5493,0.449088 c -0.0346,0.09984 -0.18309,0.444146 -0.13511,0.8382 0.0113,0.09102 0.0822,0.265642 0.22084,0.262467 0.0716,-0.0042 0.16087,-0.06103 0.21378,-0.288221 0.008,-0.05115 0.0134,-0.09208 0.0169,-0.112184 0.006,-0.03069 -0.0191,-0.06526 -0.0385,0.0053 -0.0445,0.1397 -0.17497,0.243065 -0.28716,0.06527 -0.0183,-0.03528 -0.0967,-0.19826 0.009,-0.568677 0.0212,-0.07232 0.0476,-0.179213 0.0476,-0.179213 0.0236,-0.08114 -0.0127,-0.122412 -0.0473,-0.02294 m 9.78006,0.112887 c -0.0314,0.08608 -0.0434,0.142523 -0.0402,0.175683 0.004,0.03281 0.0148,0.1397 0.0148,0.1397 -0.0321,0.0254 -0.16863,0.110773 -0.3055,0.0099 0.009,-0.02893 0.0268,-0.08855 0.031,-0.121004 0.0145,-0.0508 -0.0166,-0.08855 -0.0413,-0.03598 -0.0254,0.05257 -0.0832,0.227896 -0.12629,0.267407 -0.043,0.03986 -0.0931,0.184502 -0.41945,0.03739 -0.0568,-0.02222 -0.15699,-0.09595 -0.31256,0.06068 -0.35243,0.327377 -0.59585,0.353129 -0.99131,0.493535 -0.048,0.02223 -0.14852,0.09737 -0.0293,0.08537 0.11924,-0.01199 0.62018,2.65e-4 0.89323,-0.312563 0.0572,-0.05538 0.12206,-0.201787 0.33902,-0.116768 0.11959,0.04551 0.34114,0.235656 0.58314,-0.140052 0.14253,0.09454 0.35878,0.0568 0.39335,-0.04798 0.0346,-0.10442 0.0744,-0.208491 0.0737,-0.279752 0,-0.07126 -0.006,-0.164748 -0.006,-0.164748 -0.005,-0.05644 -0.0251,-0.136877 -0.0564,-0.0508 m -8.14458,0.0088 -0.16792,0.230717 -0.32314,-0.235657 c -0.008,-0.0056 -0.0194,-0.0035 -0.0257,0.0049 l -0.19508,0.267404 c -0.006,0.0085 -0.005,0.02011 0.004,0.02611 l 0.33266,0.24271 c 0.008,0.006 0.0198,0.0035 0.0258,-0.0049 l 0.16863,-0.230364 0.32279,0.235302 c 0.008,0.006 0.0194,0.0035 0.0257,-0.0049 l 0.19509,-0.267055 c 0.006,-0.0088 0.005,-0.02045 -0.004,-0.02611 l -0.33267,-0.243065 c -0.008,-0.0056 -0.0198,-0.0035 -0.0261,0.0049"
       style="fill:#231f20;fill-opacity:1;fill-rule:evenodd;stroke:none;stroke-width:0.264583"
       id="path1-8" />
  </g>
</svg>
