<?xml version="1.0" encoding="UTF-8" standalone="no"?>
<!-- Created with Inkscape (http://www.inkscape.org/) -->

<svg
   width="21.380703mm"
   height="6.1694827mm"
   viewBox="0 0 21.380703 6.1694827"
   version="1.1"
   id="svg1"
   xmlns:inkscape="http://www.inkscape.org/namespaces/inkscape"
   xmlns:sodipodi="http://sodipodi.sourceforge.net/DTD/sodipodi-0.dtd"
   xmlns="http://www.w3.org/2000/svg"
   xmlns:svg="http://www.w3.org/2000/svg">
  <sodipodi:namedview
     id="namedview1"
     pagecolor="#ffffff"
     bordercolor="#666666"
     borderopacity="1.0"
     inkscape:showpageshadow="2"
     inkscape:pageopacity="0.0"
     inkscape:pagecheckerboard="0"
     inkscape:deskcolor="#d1d1d1"
     inkscape:document-units="mm" />
  <defs
     id="defs1" />
  <g
     inkscape:label="Layer 1"
     inkscape:groupmode="layer"
     id="layer1"
     transform="translate(-150.73423,-9.9731128)">
    <path
       d="m 161.95911,9.9933859 c -0.0162,0.038804 -0.14569,0.3242021 -0.14569,0.3242021 0.003,0.02363 0.0339,0.09384 0.0547,0.238125 0.0222,0.149225 0.0533,0.363715 0.0878,0.599723 0,0 0.39617,2.925585 0.40322,3.014485 0.007,0.08925 0.0145,0.416632 -0.63394,0.524227 0.0356,-0.0822 0.27764,-0.509058 0.10689,-0.794808 -0.26881,-0.449792 -0.83925,-0.616654 -1.38641,-0.277636 -0.38136,0.236361 -0.7359,0.732719 -1.07598,1.325034 0,0 -0.38911,-0.10795 -0.48365,-0.44944 0.0138,-0.0381 0.0183,-0.05927 0.0233,-0.09313 0.004,-0.03351 -0.0233,-0.112536 -0.0843,-0.02117 -0.061,0.09137 -0.39722,0.735542 -0.84807,0.685448 -0.0952,-0.0088 -0.4759,-0.06456 -0.61313,-0.865717 -0.042,-0.23636 -0.13017,-2.359025 -0.31362,-3.343626 -0.0367,-0.20179 -0.11783,-0.658284 -0.13758,-0.736249 -0.0194,-0.07867 -0.0448,-0.05609 -0.0642,-0.01728 l -0.14287,0.28575 c 0.35771,1.328912 0.32208,3.686527 0.56021,4.436179 0.0716,0.226483 0.27411,0.638529 0.71543,0.640292 0.12629,7.93e-4 0.53375,-0.100188 0.74436,-0.567619 0,0 0.13229,0.244475 0.44627,0.398992 -0.0388,0.0695 -0.11677,0.218016 -0.12312,0.245181 -0.007,0.03034 0.006,0.08537 0.0416,0.04198 0.0314,-0.03775 0.14888,-0.202846 0.17886,-0.244827 0.16722,0.06385 0.37606,0.10019 0.63394,0.07232 0.12947,-0.01236 0.92464,-0.09384 1.84609,-0.381704 0.1905,-0.05927 0.66675,-0.210257 0.73131,-0.607838 0.0335,-0.117827 0.0981,-0.313971 0.0282,-0.762 -0.0226,-0.167921 -0.35313,-2.766129 -0.35313,-2.766129 0,0 0.16827,0.130175 0.20002,0.163687 0.0318,0.03316 0.0702,0.01553 0.0522,-0.0381 -0.018,-0.05433 -0.393,-0.975428 -0.4064,-1.009295 -0.013,-0.033867 -0.0258,-0.058563 -0.0423,-0.01905 m -0.33125,4.280958 c 0.0261,0.04374 0.0413,0.111125 -0.10866,0.216958 -0.88794,0.619125 -2.02565,0.498121 -2.02565,0.498121 0.0723,-0.118885 0.61383,-1.019527 1.21779,-1.128183 0.14711,-0.01765 0.62265,-0.07267 0.91652,0.413104 m 2.74461,-4.088696 c -0.0699,0.10654 -0.12242,0.362305 -0.0222,0.435681 0.10019,0.07338 0.24659,0.132292 0.24659,0.132292 -0.46602,0.571148 -0.78457,0.680156 -1.05762,0.83961 -0.0699,0.04092 -0.0557,0.07796 -0.0145,0.06668 0.0212,-0.0056 0.38771,-0.06244 0.81563,-0.387702 0.23142,-0.175683 0.37182,-0.47625 0.37182,-0.47625 0,0 0.11571,0.09666 0.13159,0.116417 0.0349,0.04374 0.0543,0.07585 0.0706,0.02963 0.061,-0.168626 -0.0251,-0.270581 -0.1076,-0.323143 0,0 0.0857,-0.263173 -0.0716,-0.52705 -0.0261,-0.04445 -0.18168,-0.1859147 -0.36265,0.09384 m 0.24342,0.07267 c 0.10512,0.09772 0.0892,0.257882 0.085,0.294569 0,0 -0.1337,-0.06315 -0.19402,-0.0889 -0.0596,-0.0254 -0.0914,-0.06315 -0.0635,-0.1016 0.0924,-0.129469 0.13793,-0.125236 0.17251,-0.104069 m -1.73532,-0.205668 c -0.0166,0.03916 -0.13723,0.336195 -0.13723,0.336195 0.002,0.01728 0.036,0.147108 0.0423,0.19544 0.0561,0.428625 0.40711,2.960158 0.50765,3.759906 0.0497,0.394404 0.0882,0.748594 0.0938,0.939094 -0.005,0.05856 0.0208,0.08079 0.048,0.024 0.0145,-0.03034 0.0748,-0.155223 0.0935,-0.484012 0.0134,-0.246238 -0.006,-0.625475 -0.0765,-1.146879 -0.0102,-0.07585 -0.37535,-2.720271 -0.37535,-2.720271 0,0 0.19755,0.185208 0.22895,0.218723 0.0314,0.03351 0.0702,0.01553 0.0519,-0.03845 -0.018,-0.05398 -0.42157,-1.030113 -0.43498,-1.06398 -0.013,-0.03422 -0.0257,-0.05856 -0.042,-0.01976 m -4.17054,0.109712 c -0.17392,0.232833 -0.18485,0.538692 -0.20778,0.87983 -0.0247,-0.07126 -0.16405,-0.529167 -0.60855,-0.791282 -0.0324,-0.01871 -0.0981,0.01728 -0.10406,0.124532 -0.004,0.06314 -0.0208,0.215545 0.0215,0.258585 0.0416,0.04304 0.16615,0.128058 0.18697,0.140052 0.0208,0.0127 0.0434,0.01376 0.0494,-0.01236 0.006,-0.02611 0.0346,-0.08678 0.0748,-0.04339 0.0342,0.03633 0.25329,0.226835 0.36724,0.630767 0.0198,0.05362 0.067,0.05891 0.078,-0.01728 0.0261,-0.186618 0.0402,-0.511527 0.054,-0.6096 0.0201,-0.138287 0.0826,-0.423333 0.24941,-0.274812 0.0377,0.03351 0.0776,0.07761 0.0776,0.07761 0.0356,0.04692 0.0797,0.100542 0.1016,0.04622 0.0328,-0.08149 0.0589,-0.216606 0.0229,-0.289983 -0.0159,-0.0321 -0.22225,-0.3069166 -0.36301,-0.118888 m 1.22591,0.0092 c -0.0342,0.08361 -0.17675,0.370769 -0.15523,0.709083 0.005,0.07796 0.0568,0.230365 0.17463,0.234598 0.061,-2.64e-4 0.1397,-0.04445 0.19544,-0.235656 0.01,-0.04304 0.0159,-0.07797 0.0201,-0.0949 0.006,-0.02611 -0.0131,-0.05644 -0.0328,0.0024 -0.0445,0.117475 -0.16052,0.198967 -0.24695,0.04198 -0.0141,-0.03104 -0.0727,-0.173567 0.0346,-0.485069 0.0215,-0.06032 0.049,-0.150283 0.049,-0.150283 0.024,-0.06808 -0.005,-0.105481 -0.0388,-0.02222 m 1.52999,0.632532 c -0.0984,0.04304 -3.55141,1.656291 -3.65231,1.70321 -0.10018,0.04657 -0.13052,0.06703 -0.14993,0.137935 -0.0194,0.0702 -0.0293,0.10795 -0.0339,0.122415 -0.0173,0.04798 -0.0406,0.09666 0.10654,0.02506 0.0455,-0.02257 3.5246,-1.635832 3.60433,-1.68134 0.0797,-0.04516 0.12664,-0.06103 0.16263,-0.133702 0.036,-0.07197 0.0445,-0.08467 0.0646,-0.135467 0.0212,-0.05362 0.0462,-0.103012 -0.10196,-0.0381 m -0.79339,1.336321 c -0.0257,0.07938 -0.0448,0.140406 -0.0106,0.231071 0.0349,0.09102 0.12806,0.296685 0.14323,0.326319 0.0152,0.02928 0.0194,0.06244 -0.0318,0.08431 -0.0511,0.02188 -0.2854,0.07161 -0.32879,-0.1778 -0.0434,-0.249062 -0.0473,-0.321733 -0.0688,-0.364421 -0.0219,-0.04198 -0.042,-0.04692 -0.0589,-0.0049 -0.0166,0.04198 -0.0265,0.129116 -0.0293,0.143226 -0.002,0.01376 -0.002,0.02434 0.006,0.03987 0.009,0.01516 0.10196,0.293862 0.06,0.370417 -0.042,0.07655 -0.25189,0.214841 -0.3616,0.07055 -0.0526,-0.101246 -0.0204,-0.357011 -0.0204,-0.416984 0,-0.05997 -0.0191,-0.08079 -0.0448,-0.0321 -0.0254,0.04868 -0.0395,0.08079 -0.0385,0.124177 0.001,0.04339 0.008,0.230013 0.004,0.288925 -0.004,0.05856 0,0.249063 0.11219,0.302684 0.11253,0.05397 0.27622,0.0039 0.4004,-0.230011 0.0956,0.139348 0.2413,0.1397 0.31926,0.111477 0.0663,-0.02468 0.14041,-0.124177 0.16228,-0.262466 0.0215,-0.137584 -0.0138,-0.232479 -0.0575,-0.310444 -0.0572,-0.09596 -0.096,-0.256823 -0.096,-0.256823 -0.0205,-0.05785 -0.0356,-0.116417 -0.061,-0.03704 m -2.03623,0.83185 c -0.0342,0.08326 -0.17674,0.370417 -0.15487,0.708732 0.005,0.07796 0.0568,0.230716 0.17463,0.234598 0.061,0 0.1397,-0.0441 0.19543,-0.235657 0.01,-0.04339 0.0155,-0.07796 0.0198,-0.0949 0.006,-0.02611 -0.013,-0.05644 -0.0328,0.0024 -0.0444,0.117475 -0.16016,0.199318 -0.24694,0.04233 -0.0141,-0.0314 -0.0727,-0.173921 0.0349,-0.485071 0.0215,-0.06033 0.0487,-0.150636 0.0487,-0.150636 0.0243,-0.06808 -0.005,-0.105126 -0.0388,-0.02188 m -4.42032,-2.830509 c -0.0455,0.0956 -0.0885,0.263876 -0.0885,0.263876 0.14287,0.582436 0.36583,2.876199 0.37712,2.988027 0.005,0.04692 0.0236,0.348898 0.0727,0.706967 0.0684,0.496358 0.15557,1.071388 0.58526,1.23684 0.50623,0.194381 0.9338,-0.06103 0.9338,-0.06103 0.10231,-0.05679 0.53446,-0.240593 0.514,-0.74577 -0.005,-0.125238 0.0579,-0.541867 -0.45932,-0.995892 -0.0586,-0.05115 -0.35242,-0.256823 -0.58914,0.0088 -0.23636,0.266348 -0.2727,0.66181 -0.0748,0.834673 0.11395,0.08431 0.26176,0.10936 0.5207,0.07514 0.10019,-0.01587 0.37077,-0.0088 0.42968,0.07267 0.0593,0.0822 0.0117,0.12065 -0.0388,0.156988 -0.0497,0.03634 -0.43639,0.329845 -0.82726,0.31397 -0.14147,-0.0046 -0.55528,0.01799 -0.73449,-0.66181 -0.0452,-0.162983 -0.1277,-0.971198 -0.14358,-1.111956 -0.0159,-0.141111 -0.20426,-2.583744 -0.38453,-3.090334 -0.0222,-0.05433 -0.0473,-0.08643 -0.0928,0.0088 m 1.94663,3.933119 c 0,0 -0.13864,-0.0113 -0.25823,0.0046 -0.11995,0.01587 -0.19544,0.03422 -0.28893,-0.03387 -0.0914,-0.06526 0,-0.165452 0.0554,-0.196143 0.0561,-0.02999 0.25717,-0.09102 0.49177,0.225425 m 14.73235,-3.793419 c -0.0705,0.106537 -0.12241,0.362654 -0.0222,0.435327 0.0998,0.07338 0.24624,0.132998 0.24624,0.132998 -0.46602,0.570442 -1.38042,0.976487 -1.59808,1.146527 -0.0649,0.04903 -0.0564,0.07796 -0.0152,0.06703 0.0363,-0.0099 0.73307,-0.20461 1.36983,-0.75071 0.29246,-0.250119 0.28469,-0.268817 0.35878,-0.420865 0.0635,0.03281 0.10689,0.08573 0.13158,0.116417 0.0353,0.04375 0.0543,0.07585 0.0706,0.02999 0.061,-0.168981 -0.0251,-0.270933 -0.10689,-0.323498 0,0 0.0854,-0.263525 -0.072,-0.527402 -0.0261,-0.0441 -0.18168,-0.185562 -0.36265,0.09419 m 0.24341,0.07267 c 0.10513,0.09737 0.0889,0.257529 0.085,0.294216 0,0 -0.13406,-0.06244 -0.19438,-0.08819 -0.0596,-0.02574 -0.091,-0.06385 -0.0639,-0.1016 0.0928,-0.130175 0.13829,-0.12559 0.17321,-0.104423 m -1.78858,-0.165452 c -0.18309,0.232481 -0.19509,0.538691 -0.21908,0.879475 -0.0257,-0.07126 -0.1718,-0.528815 -0.63923,-0.790575 -0.0342,-0.01905 -0.10301,0.01728 -0.10971,0.124883 -0.004,0.06244 -0.0215,0.215194 0.0229,0.258233 0.0441,0.04339 0.17428,0.128059 0.19615,0.140052 0.0222,0.01164 0.0455,0.01376 0.0522,-0.0127 0.006,-0.02611 0.0363,-0.08678 0.0783,-0.04304 0.0363,0.03598 0.26634,0.226483 0.38593,0.63006 0.0208,0.05397 0.0706,0.05892 0.0818,-0.01693 0.0279,-0.186973 0.0427,-0.511527 0.0579,-0.6096 0.0205,-0.13829 0.0868,-0.423333 0.26177,-0.275519 0.0395,0.03387 0.0818,0.07832 0.0818,0.07832 0.0374,0.04657 0.084,0.100187 0.10654,0.04621 0.0346,-0.08149 0.0621,-0.216958 0.024,-0.289983 -0.0162,-0.03245 -0.23319,-0.307269 -0.38135,-0.118885 m -1.80023,-0.01093 c -0.0674,0.03951 -1.78787,1.031875 -1.85702,1.077029 -0.0699,0.04481 -0.0949,0.05645 -0.10583,0.110421 -0.0113,0.05362 -0.0169,0.08467 -0.0198,0.09349 -0.013,0.03563 -0.0215,0.08008 0.0811,0.01304 0.0317,-0.02117 1.76177,-1.020586 1.82245,-1.058334 0.0582,-0.03634 0.0921,-0.05186 0.115,-0.107595 0.0236,-0.05539 0.0293,-0.06562 0.042,-0.104423 0.013,-0.04128 0.0268,-0.08502 -0.078,-0.02363 m -15.15639,0.03422 c -0.17039,0.219781 -0.18098,0.508706 -0.20355,0.831143 -0.0243,-0.06738 -0.16016,-0.499885 -0.59549,-0.747183 -0.0314,-0.01799 -0.0956,0.01588 -0.1016,0.11783 -0.004,0.05927 -0.0205,0.2032 0.0208,0.24412 0.0409,0.04092 0.16263,0.121005 0.18309,0.13194 0.0204,0.01199 0.042,0.01304 0.0483,-0.0113 0.006,-0.02506 0.0339,-0.0822 0.0734,-0.04128 0.0282,0.02928 0.26105,0.233892 0.33196,0.513292 0.0593,0.243417 -0.53869,0.734131 -0.57008,0.756356 -0.0561,0.04022 -0.0381,0.06632 -0.012,0.05221 0.0261,-0.0141 0.0522,-0.01834 0.35878,-0.220486 0.24729,-0.162983 0.2988,-0.352425 0.32032,-0.497416 0.002,-0.0067 0.005,-0.01482 0.006,-0.02469 0.0258,-0.17639 0.0399,-0.4826 0.0536,-0.575733 0.0194,-0.13053 0.0808,-0.399698 0.24378,-0.259998 0.037,0.03175 0.0762,0.07373 0.0762,0.07373 0.0349,0.0441 0.078,0.0949 0.0995,0.04339 0.0318,-0.07691 0.0575,-0.204613 0.0222,-0.273757 -0.0155,-0.03069 -0.21731,-0.289983 -0.35524,-0.112183 m 3.92571,0.102658 c -0.0794,0.03104 -1.22414,0.507648 -1.30493,0.540809 -0.0765,0.0321 -0.0974,0.05151 -0.11183,0.104068 -0.0141,0.05327 -0.0215,0.08396 -0.0247,0.09278 -0.0148,0.03492 -0.0254,0.06562 0.0797,0.01765 0.0349,-0.01587 1.20473,-0.494596 1.26964,-0.524581 0.0621,-0.02858 0.0945,-0.04622 0.12101,-0.100894 0.0265,-0.05433 0.0328,-0.06385 0.0476,-0.1016 0.0152,-0.04057 0.0363,-0.07232 -0.0765,-0.02822 m -2.8695,0.325967 c -0.0455,0.155927 -0.24271,0.695325 -0.17286,1.313743 0.0162,0.14323 0.11466,0.418042 0.30269,0.414867 0.097,-0.006 0.21731,-0.09419 0.28681,-0.450143 0.0109,-0.08008 0.0169,-0.144286 0.0215,-0.176036 0.007,-0.04763 -0.0268,-0.102658 -0.0519,0.0081 -0.0589,0.219075 -0.2346,0.37959 -0.38912,0.09948 -0.0257,-0.05609 -0.1337,-0.312208 0.005,-0.892527 0.0282,-0.112889 0.0624,-0.28081 0.0624,-0.28081 0.0311,-0.126648 -0.0187,-0.192265 -0.0646,-0.03669 m 2.48638,0.686152 c -0.0208,0.06386 -0.0363,0.113242 -0.008,0.186267 0.0279,0.07373 0.10302,0.239538 0.11572,0.263173 0.0123,0.02363 0.0152,0.05045 -0.0261,0.06808 -0.0413,0.01765 -0.23001,0.05786 -0.26493,-0.143578 -0.0349,-0.201084 -0.0381,-0.259647 -0.0557,-0.293865 -0.0177,-0.03387 -0.0339,-0.0381 -0.0473,-0.0039 -0.0134,0.03387 -0.0219,0.104424 -0.0236,0.115713 -0.002,0.0113 -0.002,0.01905 0.005,0.03175 0.007,0.01236 0.0822,0.237067 0.048,0.299154 -0.0339,0.06209 -0.2032,0.172863 -0.29175,0.05645 -0.0423,-0.08149 -0.0166,-0.287514 -0.0166,-0.335846 0,-0.04868 -0.0152,-0.06491 -0.036,-0.02611 -0.0208,0.03916 -0.0317,0.06526 -0.0307,0.100187 0.001,0.03493 0.006,0.185915 0.003,0.233188 -0.003,0.04727 0,0.201083 0.0903,0.244475 0.0907,0.04304 0.22261,0.0028 0.32279,-0.185563 0.0773,0.111831 0.19509,0.112538 0.25788,0.08925 0.0536,-0.01905 0.1136,-0.09984 0.13124,-0.210963 0.0177,-0.111828 -0.0116,-0.187676 -0.0466,-0.250825 -0.0466,-0.07761 -0.0773,-0.207433 -0.0773,-0.207433 -0.0162,-0.04657 -0.0289,-0.09384 -0.0494,-0.02963 m -4.8641,0.215548 c -0.042,0.144285 -0.22472,0.643115 -0.16016,1.215318 0.0152,0.13194 0.10619,0.386292 0.28011,0.383117 0.0896,-0.0053 0.20143,-0.08678 0.26529,-0.415925 0.0102,-0.07443 0.0159,-0.133702 0.0201,-0.162629 0.006,-0.04445 -0.0247,-0.0949 -0.0483,0.0071 -0.0543,0.202496 -0.21696,0.351014 -0.35984,0.09208 -0.0236,-0.0515 -0.12347,-0.288571 0.005,-0.8255 0.0257,-0.104421 0.0575,-0.259644 0.0575,-0.259644 0.0289,-0.117475 -0.0173,-0.178152 -0.0596,-0.03387 m 16.8081,-0.01024 c -0.0342,0.08467 -0.17886,0.375005 -0.15628,0.71755 0.005,0.07937 0.0575,0.23354 0.17674,0.237421 0.0614,-2.64e-4 0.14111,-0.0448 0.19756,-0.238479 0.01,-0.04374 0.0159,-0.07902 0.0201,-0.09595 0.006,-0.02646 -0.0134,-0.05715 -0.0335,0.0024 -0.0452,0.118885 -0.16228,0.20179 -0.24977,0.04304 -0.0141,-0.03175 -0.0734,-0.176038 0.0356,-0.491421 0.0215,-0.06103 0.0494,-0.152046 0.0494,-0.152046 0.024,-0.06915 -0.005,-0.106539 -0.0399,-0.02257 m 3.30729,0.173567 c -0.0317,0.07832 -0.1651,0.346782 -0.14464,0.66393 0.005,0.07338 0.0533,0.216251 0.16334,0.219778 0.0575,0 0.13088,-0.04127 0.18309,-0.220485 0.01,-0.04057 0.0148,-0.07338 0.0187,-0.0889 0.006,-0.02434 -0.0124,-0.05327 -0.0307,0.0024 -0.042,0.109715 -0.14993,0.186267 -0.23142,0.03916 -0.0134,-0.02893 -0.0677,-0.162629 0.0328,-0.454025 0.0201,-0.0568 0.0455,-0.141462 0.0455,-0.141462 0.0226,-0.06386 -0.004,-0.09842 -0.0367,-0.02045 m -6.20642,0.0081 -0.16792,0.231069 -0.32314,-0.235654 c -0.008,-0.0056 -0.0198,-0.0035 -0.0257,0.0046 l -0.19508,0.267758 c -0.006,0.0085 -0.005,0.02011 0.004,0.02611 l 0.33267,0.242358 c 0.008,0.0063 0.0198,0.0039 0.0257,-0.0049 l 0.16828,-0.230364 0.32314,0.235304 c 0.008,0.0064 0.0194,0.0039 0.0254,-0.0049 l 0.19544,-0.267052 c 0.006,-0.0081 0.004,-0.02011 -0.004,-0.02612 l -0.33267,-0.24271 c -0.008,-0.0056 -0.0194,-0.0035 -0.0261,0.0046 m 1.30352,0.416277 c -0.0127,0.04516 -0.0455,0.23989 -0.0536,0.279755 -0.008,0.04022 -0.007,0.07973 0.0127,0.1143 0.0194,0.03422 0.0702,0.152752 0.10689,0.248708 0.0367,0.09631 0.41451,0.824442 0.44908,0.888646 0.0349,0.06456 0.0423,0.112889 0.007,0.155575 -1.21215,1.279524 -3.55248,2.066221 -3.62727,2.109612 -0.0751,0.04339 -0.055,0.07726 0.0709,0.05503 0.18803,-0.03281 1.23967,-0.208492 1.53882,-0.35278 0.19826,-0.0956 0.88794,-0.434268 1.45274,-0.876652 -0.0159,0.113948 -0.0303,0.282223 -0.0226,0.4953 0.0385,1.029052 0.9585,0.858309 1.20015,0.80504 0.72355,-0.158398 1.60867,-1.158875 1.68381,-1.359958 0.0741,-0.198263 0.085,-0.37959 0.0681,-0.537634 0.1905,-0.103012 0.60043,-0.433212 0.60043,-0.433212 0.0162,0.438856 0.36583,0.570796 0.47308,0.589846 0.50376,0.07655 0.75635,-0.344665 0.86324,-0.48119 0.0914,0.240594 0.31186,0.28716 0.42545,0.310092 0.43462,0.08643 0.51894,-0.22084 0.54187,-0.291042 0.13617,-0.423685 -0.10971,-0.739423 -0.14111,-0.774348 -0.0314,-0.03528 -0.0473,-0.0019 -0.0589,0.03916 -0.0109,0.04057 -0.0459,0.193323 -0.0677,0.288925 0,0 0.0907,0.147815 0.12312,0.222957 0.0321,0.07585 -0.0159,0.116768 -0.10936,0.12841 -0.26458,0.0321 -0.47519,-0.119237 -0.54786,-0.189087 -0.0727,-0.06985 0.006,-0.193323 0.0649,-0.340784 0.0469,-0.118533 -0.0402,-0.132646 -0.10725,-2.64e-4 -0.22366,0.588788 -0.53834,0.651933 -0.62124,0.674865 -0.74612,0.2032 -0.68192,-0.479074 -0.67909,-0.590902 0.003,-0.11148 -0.0794,-0.07056 -0.1711,0.0035 -0.31362,0.251883 -0.56656,0.40005 -0.70309,0.460727 -0.11677,-0.228952 -0.28716,-0.372534 -0.35842,-0.424744 -0.80751,-0.588785 -0.87418,0.599369 -0.85019,0.726723 0.12311,0.505177 0.94826,0.198967 1.07773,0.183796 0.12912,-0.01553 0.0864,0.155223 0.0141,0.257175 -0.17886,0.249766 -0.38558,0.429683 -0.57256,0.582083 -0.8001,0.65264 -1.20085,0.601133 -1.32467,0.5969 -0.78529,-0.02223 -0.71297,-0.868537 -0.66958,-1.04916 0.23636,-0.200377 0.43956,-0.418042 0.55739,-0.642057 0.048,-0.122412 0.13088,-0.40146 -0.019,-0.751416 -0.0783,-0.153811 -0.32632,-0.586317 -0.32632,-0.586317 0,0 0.18274,0.0056 0.20003,0.0053 0.0173,0 0.0515,-0.01799 0.007,-0.06914 -0.0444,-0.05115 -0.42756,-0.43321 -0.45085,-0.464256 -0.0233,-0.03069 -0.0441,-0.05256 -0.0571,-0.0074 m 2.42218,1.7526 c 0,0 -0.11007,0.0628 -0.41769,0.04233 -0.25753,-0.01728 -0.23566,-0.117475 -0.20003,-0.155927 0.0381,-0.04163 0.35384,-0.240242 0.61772,0.113593 m -3.31682,-1.424868 c -0.0529,0.06632 -0.58949,0.76976 -0.58949,0.76976 L 164.40993,12.9492 c 0,0 0.1591,-0.03986 0.18732,-0.04798 0.0275,-0.0081 0.0434,-0.0441 -0.007,-0.06949 -0.0501,-0.0254 -0.52035,-0.21308 -0.55598,-0.227896 -0.036,-0.01447 -0.049,-0.03069 -0.0522,0.0074 -0.002,0.03845 -0.008,0.347488 -0.008,0.347488 0,0 -0.007,0.02188 0.0339,0.04515 0.0409,0.02328 0.0811,0.07338 0.11465,0.106891 0.0339,0.03387 0.47131,0.378884 0.49213,0.39088 0,0 -0.21872,0.384527 -0.24659,0.685093 -0.0275,0.301273 0.006,0.716492 0.41698,0.58279 0.11042,-0.03175 0.5715,-0.214842 0.67451,-0.536223 0.0335,-0.118181 0.12771,-0.332317 -0.0261,-0.549275 -0.0893,-0.127352 -0.44909,-0.342194 -0.44909,-0.342194 0,0 0.27622,-0.382058 0.30268,-0.428979 0.0265,-0.04621 0.12771,-0.342546 0.139,-0.41416 0.0113,-0.07161 0.0169,-0.107598 -0.0367,-0.04128 m -0.0942,1.622777 c -0.15311,0.125589 -0.47379,0.2921 -0.56445,0.300566 -0.0896,0.0085 -0.32914,-0.03563 -0.22507,-0.28081 0.0356,-0.07937 0.27481,-0.48895 0.27481,-0.48895 0.0896,0.04939 0.66746,0.343606 0.51471,0.469194 m -9.68622,-1.550459 -0.19474,0.267407 c -0.006,0.0088 -0.005,0.02011 0.003,0.02611 l 0.33267,0.24271 c 0.008,0.006 0.0198,0.0039 0.0261,-0.0046 l 0.19474,-0.267406 c 0.006,-0.0088 0.005,-0.02045 -0.003,-0.02612 l -0.33302,-0.24271 c -0.008,-0.0056 -0.019,-0.0039 -0.0257,0.0046 m -3.07622,0.273757 -0.16827,0.230716 -0.3228,-0.235656 c -0.008,-0.006 -0.0198,-0.0039 -0.0257,0.0049 l -0.19509,0.267406 c -0.006,0.0081 -0.005,0.02011 0.003,0.02574 l 0.33267,0.24271 c 0.008,0.0056 0.0198,0.0039 0.0261,-0.0046 l 0.16828,-0.231069 0.32279,0.235654 c 0.008,0.0056 0.0198,0.0039 0.0257,-0.0046 l 0.19509,-0.267758 c 0.006,-0.0085 0.005,-0.01976 -0.003,-0.02574 l -0.33267,-0.242713 c -0.008,-0.006 -0.0201,-0.0039 -0.0261,0.0049 m 1.23508,0.618067 c -0.0173,0.05856 -0.0819,0.351719 -0.0819,0.351719 0.0575,0.08114 0.31362,0.428979 0.24306,0.497416 -0.0702,0.06879 -0.70026,0.591609 -2.15547,0.650523 -0.16298,0.0067 -0.91793,-0.02928 -0.86642,-0.648052 0.007,-0.09278 0.0773,-0.389114 0.17709,-0.553508 0.0272,-0.06385 -0.0363,-0.105129 -0.0769,-0.03387 -0.0406,0.07091 -0.54469,0.845961 -0.0727,1.392413 0.0402,0.04904 0.42651,0.478366 1.9498,0.05397 0.3616,-0.09595 0.88653,-0.304446 1.11901,-0.620184 0.0409,-0.05538 0.18874,-0.345368 0.0924,-0.629354 -0.0385,-0.111479 -0.21308,-0.397229 -0.248,-0.454379 -0.0353,-0.05715 -0.0624,-0.06491 -0.0801,-0.0067 m -1.39489,0.239535 c -0.0219,0.07056 -0.11888,0.315032 -0.078,0.59055 0.01,0.0635 0.0628,0.184505 0.1591,0.179917 0.0497,-0.0042 0.11148,-0.04551 0.14358,-0.206021 0.005,-0.03634 0.008,-0.06491 0.01,-0.07937 0.003,-0.02151 -0.0148,-0.04516 -0.0268,0.0046 -0.0286,0.09913 -0.11748,0.173918 -0.19897,0.05151 -0.0138,-0.02469 -0.0716,-0.137231 -0.005,-0.399346 0.0138,-0.0508 0.03,-0.126646 0.03,-0.126646 0.0148,-0.05715 -0.0109,-0.08537 -0.0335,-0.01516 m 19.15266,0.981075 c -0.031,0.08608 -0.0427,0.142875 -0.0395,0.175683 0.003,0.03316 0.0145,0.139348 0.0145,0.139348 -0.0321,0.02611 -0.16863,0.111125 -0.30551,0.01058 0.009,-0.02928 0.0268,-0.08855 0.0311,-0.121709 0.0148,-0.05009 -0.0162,-0.08819 -0.0416,-0.03563 -0.0247,0.05256 -0.0825,0.228248 -0.12594,0.267758 -0.043,0.03916 -0.0935,0.184505 -0.41945,0.03669 -0.0568,-0.02151 -0.15734,-0.09596 -0.31256,0.06103 -0.35278,0.327377 -0.5962,0.353129 -0.99166,0.493536 -0.0476,0.02223 -0.14817,0.09737 -0.0289,0.08573 0.11924,-0.01199 0.62054,0 0.89323,-0.313267 0.0571,-0.05503 0.12206,-0.201083 0.33867,-0.116769 0.11994,0.04586 0.34184,0.236009 0.58349,-0.140054 0.14252,0.09525 0.35878,0.0568 0.39335,-0.04763 0.0349,-0.104421 0.0744,-0.208492 0.0737,-0.2794 -2.6e-4,-0.07161 -0.006,-0.1651 -0.006,-0.1651 -0.005,-0.05644 -0.0247,-0.136877 -0.0564,-0.0508 m -8.97749,0.36689 c -0.0194,0.02998 -0.0328,0.05503 -0.0406,0.06668 -0.0116,0.01799 -0.005,0.04657 0.0254,0.0067 0.0656,-0.0769 0.17533,-0.10795 0.19897,0.03422 0.002,0.02787 0.009,0.151693 -0.15664,0.359479 -0.0325,0.03986 -0.0776,0.100896 -0.0776,0.100896 -0.0363,0.04515 -0.0243,0.08149 0.0243,0.02752 0.0476,-0.05468 0.23319,-0.234598 0.30762,-0.496712 0.0169,-0.06103 0.0183,-0.1905 -0.0698,-0.225071 -0.0462,-0.01659 -0.11782,-0.0039 -0.21166,0.126294 m -5.86634,0.419806 c -0.0106,0.03387 -0.018,0.06138 -0.0222,0.07479 -0.007,0.02045 0.006,0.04622 0.0265,0 0.0441,-0.09066 0.14217,-0.148518 0.20108,-0.01622 0.009,0.02574 0.0462,0.143934 -0.0614,0.386644 -0.0215,0.04692 -0.0497,0.117123 -0.0497,0.117123 -0.0243,0.05327 -0.004,0.08467 0.0296,0.02045 0.0332,-0.06456 0.16722,-0.285043 0.17357,-0.558093 0.001,-0.06279 -0.03,-0.188736 -0.12418,-0.200025 -0.0487,-0.0042 -0.11536,0.02574 -0.17321,0.175331 m -2.65501,-0.13829 c -0.0699,0.03493 -1.47849,0.567619 -1.55081,0.60819 -0.0723,0.04022 -0.0977,0.05045 -0.11254,0.103717 -0.0145,0.05256 -0.0222,0.08325 -0.0254,0.09172 -0.0152,0.03528 -0.0268,0.07867 0.0801,0.01871 0.0332,-0.01905 1.4552,-0.558093 1.51482,-0.592314 0.0593,-0.03387 0.0949,-0.04551 0.12171,-0.100188 0.0268,-0.05398 0.0332,-0.0635 0.0483,-0.101248 0.0155,-0.04022 0.0317,-0.08326 -0.0762,-0.02858"
       style="fill:#231f20;fill-opacity:1;fill-rule:evenodd;stroke:none;stroke-width:0.264583"
       id="path1" />
  </g>
</svg>
