<?xml version="1.0" encoding="UTF-8" standalone="no"?>
<!-- Created with Inkscape (http://www.inkscape.org/) -->

<svg
   width="17.118301mm"
   height="6.3542676mm"
   viewBox="0 0 17.118301 6.3542676"
   version="1.1"
   id="svg1"
   xmlns:inkscape="http://www.inkscape.org/namespaces/inkscape"
   xmlns:sodipodi="http://sodipodi.sourceforge.net/DTD/sodipodi-0.dtd"
   xmlns="http://www.w3.org/2000/svg"
   xmlns:svg="http://www.w3.org/2000/svg">
  <sodipodi:namedview
     id="namedview1"
     pagecolor="#ffffff"
     bordercolor="#666666"
     borderopacity="1.0"
     inkscape:showpageshadow="2"
     inkscape:pageopacity="0.0"
     inkscape:pagecheckerboard="0"
     inkscape:deskcolor="#d1d1d1"
     inkscape:document-units="mm" />
  <defs
     id="defs1" />
  <g
     inkscape:label="Layer 1"
     inkscape:groupmode="layer"
     id="layer1"
     transform="translate(-172.97811,-35.246505)">
    <path
       d="m 182.35355,35.415677 c -0.0699,0.10654 -0.12241,0.362657 -0.0222,0.435682 0.10019,0.07338 0.2466,0.132291 0.2466,0.132291 -0.46602,0.571146 -0.78493,0.679802 -1.05728,0.839611 -0.0702,0.04127 -0.0561,0.07796 -0.0152,0.06667 0.0215,-0.0056 0.3877,-0.06244 0.81597,-0.387702 0.23143,-0.175684 0.37183,-0.47625 0.37183,-0.47625 0,0 0.11571,0.09666 0.13159,0.116416 0.0353,0.04339 0.054,0.07585 0.0705,0.02963 0.061,-0.16863 -0.025,-0.270582 -0.10724,-0.323146 0,0 0.0854,-0.263171 -0.0716,-0.527402 -0.0265,-0.0441 -0.18204,-0.185561 -0.36301,0.09419 m 0.24341,0.07267 c 0.10513,0.09772 0.0889,0.257879 0.085,0.294569 0,0 -0.13405,-0.06315 -0.19402,-0.0889 -0.06,-0.0254 -0.0914,-0.0635 -0.0635,-0.1016 0.0921,-0.129469 0.13758,-0.125235 0.1725,-0.104069 m -4.47675,-0.129471 c -0.0324,0.09455 -0.17215,0.421217 -0.127,0.794809 0.0106,0.08643 0.0776,0.251883 0.20814,0.248708 0.0681,-0.0042 0.1524,-0.05785 0.20215,-0.27305 0.008,-0.04868 0.0127,-0.08749 0.0162,-0.106537 0.005,-0.02928 -0.0183,-0.06174 -0.0363,0.0049 -0.0423,0.132999 -0.16545,0.230717 -0.27129,0.06209 -0.0177,-0.03352 -0.0914,-0.187677 0.008,-0.539398 0.0201,-0.06809 0.0448,-0.169333 0.0448,-0.169333 0.0226,-0.07726 -0.0117,-0.116417 -0.0448,-0.02222 m 10.75549,0.1524 c -0.0699,0.10654 -0.12206,0.362656 -0.0219,0.435329 0.0998,0.07373 0.24624,0.132996 0.24624,0.132996 -0.46602,0.570796 -1.38077,0.97649 -1.59809,1.146881 -0.0649,0.04868 -0.0564,0.07761 -0.0155,0.06668 0.0367,-0.0099 0.73343,-0.204965 1.37054,-0.75071 0.2921,-0.250121 0.28399,-0.268817 0.35843,-0.420865 0.0631,0.03246 0.10689,0.08537 0.13158,0.116417 0.0349,0.04374 0.0543,0.07585 0.0709,0.02998 0.0607,-0.169333 -0.0254,-0.270933 -0.1076,-0.323495 0,0 0.0854,-0.263173 -0.0713,-0.527405 -0.0265,-0.0441 -0.18238,-0.185208 -0.36336,0.09419 m 0.24377,0.07267 c 0.10478,0.09737 0.0889,0.257527 0.0847,0.294568 0,0 -0.13371,-0.06279 -0.19368,-0.08855 -0.0603,-0.02574 -0.0917,-0.06385 -0.0642,-0.1016 0.0928,-0.130175 0.13793,-0.12559 0.17321,-0.104423 m -1.78858,-0.165452 c -0.18309,0.232479 -0.19474,0.538692 -0.21908,0.879827 -0.0257,-0.07126 -0.17215,-0.529167 -0.63958,-0.790927 -0.0339,-0.01905 -0.10301,0.01693 -0.10936,0.124883 -0.004,0.06244 -0.0219,0.214842 0.0226,0.258234 0.0441,0.04339 0.17463,0.128058 0.1965,0.140052 0.0219,0.01199 0.0455,0.01341 0.0519,-0.0127 0.007,-0.02611 0.0367,-0.08678 0.079,-0.04304 0.0356,0.03598 0.266,0.226483 0.38559,0.630063 0.0208,0.05398 0.0702,0.05891 0.0818,-0.01693 0.0279,-0.186973 0.0427,-0.511529 0.0575,-0.6096 0.0205,-0.138289 0.0868,-0.423333 0.26211,-0.275521 0.0395,0.03387 0.0819,0.07832 0.0819,0.07832 0.037,0.04657 0.0836,0.10019 0.10689,0.04621 0.0339,-0.08149 0.0617,-0.216959 0.024,-0.289984 -0.0166,-0.03246 -0.23353,-0.307268 -0.3817,-0.118885 m -1.80022,-0.01093 c -0.0677,0.03951 -1.78753,1.031875 -1.85738,1.077031 -0.0699,0.04445 -0.0942,0.05644 -0.10583,0.110419 -0.0109,0.05362 -0.0166,0.08467 -0.0194,0.09349 -0.0127,0.03563 -0.0215,0.08008 0.0811,0.01304 0.0318,-0.02117 1.76178,-1.020234 1.82245,-1.058334 0.0582,-0.03634 0.0917,-0.05186 0.11501,-0.107598 0.0233,-0.05574 0.0293,-0.06562 0.0416,-0.10442 0.0134,-0.04127 0.0268,-0.08537 -0.0776,-0.02363 m -9.25548,0.33514 c -0.16016,0.246592 -0.14605,0.55245 -0.14111,0.894644 -0.0314,-0.06914 -0.21308,-0.512937 -0.69427,-0.735542 -0.0349,-0.01622 -0.0995,0.0254 -0.097,0.13335 0.001,0.0628 -0.003,0.2159 0.0437,0.255413 0.0469,0.03951 0.18239,0.113593 0.20461,0.123118 0.0226,0.01058 0.0459,0.01024 0.0505,-0.01659 0.004,-0.02646 0.0282,-0.08925 0.0734,-0.04939 0.0328,0.02822 0.29598,0.223308 0.39581,0.511879 0.084,0.251531 -0.50341,0.821973 -0.5341,0.848431 -0.0561,0.04727 -0.0346,0.07302 -0.008,0.05609 0.0261,-0.01728 0.0533,-0.02363 0.35877,-0.264232 0.24589,-0.194378 0.28399,-0.398285 0.29351,-0.552801 0.002,-0.0078 0.004,-0.01659 0.005,-0.02681 0.0113,-0.188383 -0.001,-0.512939 0.005,-0.612423 0.009,-0.138993 0.0497,-0.428625 0.23424,-0.295627 0.0416,0.03034 0.0868,0.07091 0.0868,0.07091 0.0406,0.04374 0.091,0.09313 0.10865,0.03739 0.0268,-0.08396 0.043,-0.221543 -2.6e-4,-0.291041 -0.0191,-0.03069 -0.25506,-0.286809 -0.38488,-0.08678 m 4.73675,0.255765 c -1.19521,0.74436 -2.08598,0.466725 -2.13466,0.444852 -0.0487,-0.02151 -0.0998,-0.03739 -0.0861,0.02469 0.0134,0.06174 0.0187,0.229306 0.0483,0.261408 0.0945,0.08361 0.13511,0.248356 0.14041,0.29704 0.005,0.04833 0.0268,0.04586 0.043,0.01622 0.0162,-0.02963 0.03,-0.135113 0.0377,-0.261761 1.13877,0.07267 1.98367,-0.548923 2.032,-0.580318 0.084,-0.05398 0.0543,0.03493 0.0462,0.123825 -0.008,0.08925 -0.0381,0.264935 -0.0434,0.327025 -0.006,0.06173 0.0272,0.024 0.0434,-0.03528 0.0159,-0.05927 0.0808,-0.291745 0.10795,-0.531635 0.0268,-0.240242 -0.15946,-0.129469 -0.23495,-0.08608 m -7.31591,0.171096 c -0.0381,0.09984 -0.20179,0.445912 -0.15169,0.839612 0.0116,0.09102 0.0882,0.264936 0.23953,0.261409 0.078,-0.0049 0.17604,-0.06209 0.23495,-0.289984 0.01,-0.0508 0.0148,-0.09208 0.019,-0.112183 0.006,-0.03069 -0.0204,-0.06527 -0.042,0.0056 -0.0494,0.140052 -0.19226,0.244123 -0.31397,0.06703 -0.0198,-0.03563 -0.10442,-0.197909 0.0127,-0.569384 0.0236,-0.07197 0.0526,-0.17921 0.0526,-0.17921 0.0268,-0.08149 -0.013,-0.122767 -0.0512,-0.02294 m 12.16484,0.593021 c -0.0342,0.08361 -0.17851,0.37465 -0.15664,0.716843 0.005,0.07902 0.0579,0.233186 0.17675,0.237774 0.0617,-2.65e-4 0.14146,-0.04516 0.1979,-0.238832 0.01,-0.0441 0.0159,-0.07867 0.0201,-0.09631 0.006,-0.02611 -0.013,-0.05715 -0.0335,0.0028 -0.0448,0.118885 -0.16228,0.201787 -0.24977,0.04268 -0.0141,-0.0314 -0.0737,-0.175683 0.0353,-0.491067 0.0219,-0.06068 0.0494,-0.152048 0.0494,-0.152048 0.0247,-0.06914 -0.005,-0.106537 -0.0395,-0.02188 m 3.30764,0.172509 c -0.0321,0.07832 -0.16581,0.347133 -0.14499,0.664278 0.005,0.07373 0.0533,0.2159 0.16333,0.220134 0.0572,-2.65e-4 0.13124,-0.04163 0.1831,-0.220837 0.009,-0.04057 0.0148,-0.07303 0.0187,-0.0889 0.006,-0.02469 -0.012,-0.05327 -0.031,0.0024 -0.0416,0.109715 -0.14993,0.186266 -0.23107,0.03916 -0.013,-0.02928 -0.0684,-0.162631 0.0328,-0.454377 0.0198,-0.05645 0.0455,-0.141113 0.0455,-0.141113 0.0226,-0.06385 -0.005,-0.09842 -0.0363,-0.02082 m -6.20642,0.0085 -0.16827,0.231069 -0.32315,-0.235657 c -0.008,-0.0056 -0.0198,-0.0039 -0.0257,0.0046 l -0.19509,0.267758 c -0.006,0.0085 -0.005,0.02011 0.003,0.02611 l 0.33302,0.242359 c 0.008,0.006 0.0194,0.0039 0.0257,-0.0046 l 0.16827,-0.230717 0.3228,0.235302 c 0.008,0.006 0.0201,0.0039 0.0257,-0.0046 l 0.19509,-0.267406 c 0.006,-0.0085 0.005,-0.02011 -0.003,-0.02574 l -0.33302,-0.243065 c -0.008,-0.0056 -0.0198,-0.0039 -0.0254,0.0046 m -5.3594,0.150987 c -0.0328,0.09455 -0.17251,0.420864 -0.12735,0.794456 0.0109,0.08643 0.0776,0.251883 0.20884,0.24906 0.0674,-0.0042 0.1517,-0.05785 0.20144,-0.273402 0.008,-0.04868 0.013,-0.08749 0.0159,-0.106539 0.005,-0.02893 -0.018,-0.06174 -0.0363,0.0053 -0.042,0.132647 -0.1651,0.230365 -0.27094,0.06209 -0.0176,-0.03387 -0.0914,-0.187677 0.008,-0.539398 0.0201,-0.06808 0.0448,-0.169685 0.0448,-0.169685 0.0226,-0.07691 -0.012,-0.116417 -0.0445,-0.02188 m 6.66256,0.26529 c -0.013,0.04516 -0.0455,0.239889 -0.0533,0.279751 -0.008,0.04022 -0.007,0.07973 0.0124,0.1143 0.0198,0.03387 0.0702,0.152755 0.10689,0.249063 0.0363,0.09595 0.41416,0.824087 0.44909,0.888294 0.0349,0.06456 0.0423,0.11289 0.007,0.155575 -1.2125,1.279525 -3.55282,2.066218 -3.62761,2.109965 -0.0748,0.04304 -0.055,0.0769 0.0709,0.05503 0.18873,-0.03316 1.23966,-0.208846 1.53952,-0.353132 0.19755,-0.0956 0.88794,-0.434268 1.45238,-0.876651 -0.0159,0.1143 -0.0303,0.28222 -0.0226,0.4953 0.0385,1.029051 0.95849,0.858308 1.20015,0.805037 0.72354,-0.15875 1.60866,-1.158875 1.6838,-1.359604 0.0744,-0.198615 0.085,-0.379942 0.0684,-0.537988 0.1905,-0.10301 0.59973,-0.43321 0.59973,-0.43321 0.0169,0.438856 0.36583,0.570793 0.47342,0.589843 0.50342,0.0762 0.75601,-0.344662 0.86325,-0.480835 0.0914,0.240242 0.31221,0.28716 0.42545,0.30974 0.43462,0.08643 0.51894,-0.22084 0.54151,-0.291042 0.13618,-0.423688 -0.109,-0.739423 -0.14075,-0.7747 -0.0317,-0.03457 -0.0476,-0.0013 -0.0586,0.03951 -0.0113,0.04057 -0.0462,0.193323 -0.0681,0.288925 0,0 0.091,0.147814 0.12277,0.223308 0.0325,0.07549 -0.0159,0.116417 -0.10866,0.128058 -0.26458,0.0321 -0.47554,-0.11924 -0.54786,-0.18909 -0.073,-0.06985 0.006,-0.19332 0.0645,-0.340783 0.0466,-0.118533 -0.0402,-0.132643 -0.10724,-2.64e-4 -0.22366,0.588433 -0.53834,0.651933 -0.62124,0.674864 -0.74648,0.2032 -0.68192,-0.479073 -0.6791,-0.59055 0.002,-0.112183 -0.079,-0.07056 -0.1711,0.0032 -0.31362,0.251884 -0.56656,0.40005 -0.70273,0.460727 -0.11747,-0.228952 -0.28751,-0.372533 -0.35913,-0.424743 -0.80751,-0.588788 -0.87383,0.599368 -0.84949,0.72672 0.12312,0.50518 0.94792,0.198967 1.07703,0.183798 0.12947,-0.01516 0.0871,0.155575 0.0145,0.257175 -0.17921,0.249767 -0.38559,0.429332 -0.57291,0.582083 -0.7994,0.65264 -1.20086,0.601134 -1.32469,0.5969 -0.78493,-0.02188 -0.71296,-0.868539 -0.66921,-1.04916 0.23636,-0.200379 0.4392,-0.418041 0.55703,-0.641704 0.0483,-0.122767 0.13123,-0.401812 -0.0187,-0.751769 -0.0783,-0.15381 -0.32632,-0.585965 -0.32632,-0.585965 0,0 0.18274,0.0056 0.20002,0.0053 0.0173,-2.65e-4 0.0515,-0.01834 0.007,-0.0695 -0.0444,-0.05116 -0.42757,-0.433565 -0.45085,-0.464257 -0.0229,-0.03069 -0.0441,-0.05257 -0.0572,-0.0074 m 2.42217,1.7526 c 0,0 -0.11006,0.06279 -0.41733,0.04233 -0.25788,-0.01728 -0.23566,-0.117475 -0.20038,-0.156281 0.0385,-0.04127 0.35383,-0.239887 0.61771,0.113948 m -3.31681,-1.424869 c -0.0533,0.06632 -0.5895,0.769761 -0.5895,0.769761 l -0.38982,-0.27799 c 0,0 0.15911,-0.03986 0.18662,-0.04798 0.0279,-0.0078 0.0437,-0.0441 -0.006,-0.0695 -0.0497,-0.02574 -0.51999,-0.213077 -0.55597,-0.227542 -0.0356,-0.01482 -0.0487,-0.03104 -0.0519,0.0071 -0.003,0.03845 -0.008,0.347486 -0.008,0.347486 0,0 -0.007,0.02188 0.0339,0.04516 0.0409,0.02328 0.0811,0.07338 0.11465,0.106892 0.0339,0.03351 0.47131,0.378883 0.49248,0.390877 0,0 -0.21908,0.384529 -0.24659,0.685448 -0.0279,0.300918 0.005,0.71614 0.41663,0.582083 0.11077,-0.0314 0.57114,-0.21449 0.67451,-0.536223 0.0335,-0.118179 0.12806,-0.331962 -0.0265,-0.548569 -0.0892,-0.127351 -0.44873,-0.342548 -0.44873,-0.342548 0,0 0.27622,-0.382058 0.30233,-0.428977 0.0265,-0.04657 0.12806,-0.342548 0.13934,-0.414514 0.0113,-0.07161 0.0169,-0.107244 -0.0367,-0.04092 m -0.0942,1.622777 c -0.15275,0.125942 -0.47413,0.291748 -0.56409,0.300567 -0.09,0.0088 -0.32984,-0.03528 -0.22578,-0.28081 0.0356,-0.07937 0.27517,-0.48895 0.27517,-0.48895 0.0892,0.04903 0.66746,0.343251 0.5147,0.469193 m -9.13235,-1.491898 c -0.16404,0.246592 -0.15134,0.55245 -0.14888,0.89394 -0.0314,-0.06914 -0.21307,-0.513292 -0.70026,-0.737659 -0.0349,-0.01588 -0.10089,0.0254 -0.0991,0.132999 0.001,0.06315 -0.005,0.216251 0.043,0.256116 0.0473,0.03916 0.18415,0.113594 0.20673,0.123825 0.0229,0.01058 0.0466,0.01024 0.0512,-0.01693 0.005,-0.02646 0.0293,-0.08926 0.0751,-0.04904 0.0385,0.03316 0.28293,0.204965 0.43392,0.598313 0.0254,0.0515 0.0751,0.05256 0.0804,-0.024 0.013,-0.188383 0.002,-0.513291 0.009,-0.612068 0.01,-0.139348 0.0533,-0.42898 0.23954,-0.295275 0.0423,0.03034 0.0878,0.07161 0.0878,0.07161 0.0409,0.04339 0.0914,0.09313 0.11006,0.0374 0.0275,-0.08396 0.0445,-0.22084 0.001,-0.291042 -0.019,-0.03105 -0.25717,-0.287866 -0.38982,-0.0882 m 5.82295,0.307623 c -0.4071,0.401109 -0.81068,1.17616 -0.81068,1.17616 -0.0984,-0.02468 -0.16757,-0.04833 -0.19897,-0.06103 -0.048,-0.115007 -0.11924,-0.24483 -0.22366,-0.390525 -0.0589,-0.06456 -0.0674,-0.03951 -0.0815,0.01341 -0.0138,0.05362 -0.042,0.283281 -0.042,0.283281 0.042,0.08114 0.30833,0.582084 0.28575,0.660752 -0.0222,0.07867 -0.55598,0.977548 -2.29905,1.292225 -0.10513,0.0127 -2.07927,0.331965 -3.49497,-0.739068 -0.10478,-0.06315 -0.17216,-0.07161 -0.0801,0.06279 0.0928,0.134409 1.41146,1.70533 3.95711,0.991659 1.96179,-0.5715 2.04576,-1.562804 2.04576,-1.562804 0.007,-0.03563 0.0176,-0.08573 0.0215,-0.151696 0.65299,0.167923 1.36631,-0.03634 1.46332,-0.06738 1.08267,-0.343607 1.1236,-0.860425 1.15429,-1.016707 0.0571,-0.29351 -0.27517,-0.60325 -0.40287,-0.682273 -0.69956,-0.431093 -1.21144,0.110067 -1.29399,0.191207 m 1.42416,0.483306 c 0.0222,0.04445 0.0282,0.09243 -0.0811,0.196144 -0.87065,0.784225 -1.96215,0.535868 -1.96215,0.535868 0.031,-0.06173 0.61525,-1.216377 1.26189,-1.168752 0.0843,0.0056 0.45967,0.02506 0.7814,0.43674 m -5.33717,-0.0949 c -0.0455,0.155575 -0.24272,0.695325 -0.17322,1.313744 0.0162,0.142875 0.11465,0.417689 0.30269,0.414163 0.097,-0.0056 0.21766,-0.09349 0.2868,-0.44944 0.0109,-0.08043 0.0173,-0.144285 0.0219,-0.176035 0.007,-0.04762 -0.0268,-0.102659 -0.0522,0.0078 -0.0589,0.219075 -0.23459,0.379941 -0.38911,0.09948 -0.0254,-0.05609 -0.13371,-0.311856 0.005,-0.892527 0.0282,-0.112538 0.0624,-0.280458 0.0624,-0.280458 0.0314,-0.127 -0.0187,-0.192265 -0.0642,-0.03669 m 1.53493,0.567267 c -0.0328,0.09454 -0.17286,0.421568 -0.12735,0.794808 0.0106,0.08608 0.0773,0.251883 0.20849,0.248708 0.0674,-0.0039 0.15169,-0.05786 0.20144,-0.273401 0.008,-0.04833 0.013,-0.08714 0.0162,-0.106188 0.005,-0.02928 -0.0183,-0.06209 -0.0363,0.0053 -0.042,0.132292 -0.1651,0.230717 -0.27093,0.06174 -0.0177,-0.03352 -0.0917,-0.187679 0.008,-0.539398 0.0198,-0.06808 0.0448,-0.169685 0.0448,-0.169685 0.0222,-0.07691 -0.0124,-0.116065 -0.0445,-0.02188 m -3.09316,0.112183 c -0.0328,0.09454 -0.1725,0.421217 -0.12735,0.794457 0.0106,0.08643 0.0776,0.251883 0.20849,0.24906 0.0674,-0.0042 0.1517,-0.05786 0.20179,-0.273402 0.008,-0.04833 0.0124,-0.08749 0.0159,-0.106188 0.005,-0.02893 -0.018,-0.06209 -0.0363,0.0049 -0.042,0.132291 -0.1651,0.230716 -0.27093,0.06209 -0.0177,-0.03387 -0.0914,-0.188032 0.008,-0.539399 0.0201,-0.06808 0.0452,-0.169685 0.0452,-0.169685 0.0222,-0.07691 -0.0124,-0.116416 -0.0448,-0.02188 m 5.79226,0.656519 c -0.0381,0.10019 -0.20179,0.445558 -0.15169,0.839258 0.012,0.09102 0.0882,0.265642 0.23953,0.261763 0.0783,-0.0049 0.17604,-0.06209 0.23495,-0.289631 0.009,-0.05151 0.0152,-0.09243 0.019,-0.112184 0.006,-0.03069 -0.0205,-0.06562 -0.042,0.0053 -0.0494,0.140406 -0.19226,0.244123 -0.31362,0.06703 -0.0201,-0.03563 -0.10442,-0.197909 0.0127,-0.569029 0.0233,-0.07232 0.0526,-0.179565 0.0526,-0.179565 0.0261,-0.08114 -0.0134,-0.122415 -0.0515,-0.02294 m 9.21914,0.02188 c -0.031,0.08608 -0.0434,0.142875 -0.0402,0.175683 0.004,0.03316 0.0148,0.139348 0.0148,0.139348 -0.0325,0.02574 -0.16898,0.111125 -0.3055,0.01024 0.009,-0.02928 0.0268,-0.08855 0.0307,-0.121354 0.0148,-0.0501 -0.0162,-0.08784 -0.0409,-0.03563 -0.0251,0.05257 -0.0833,0.228249 -0.1263,0.267759 -0.0427,0.03916 -0.0935,0.184502 -0.41945,0.03669 -0.0568,-0.02188 -0.15699,-0.09596 -0.31256,0.06103 -0.35278,0.32738 -0.5962,0.353132 -0.99131,0.49389 -0.0476,0.02188 -0.14852,0.09701 -0.0289,0.08502 0.11889,-0.01164 0.61983,2.64e-4 0.89253,-0.312912 0.0572,-0.05503 0.12242,-0.201438 0.33937,-0.116417 0.1196,0.04551 0.34149,0.235654 0.58315,-0.140407 0.14252,0.09525 0.35877,0.05715 0.3937,-0.04762 0.0342,-0.104423 0.0741,-0.208491 0.0734,-0.279751 0,-0.07126 -0.006,-0.164749 -0.006,-0.164749 -0.005,-0.05644 -0.0247,-0.136876 -0.0561,-0.0508"
       style="fill:#231f20;fill-opacity:1;fill-rule:evenodd;stroke:none;stroke-width:0.264583"
       id="path1" />
  </g>
</svg>
