<?xml version="1.0" encoding="UTF-8" standalone="no"?>
<!-- Created with Inkscape (http://www.inkscape.org/) -->

<svg
   width="17.458252mm"
   height="6.2663488mm"
   viewBox="0 0 17.458252 6.2663488"
   version="1.1"
   id="svg1"
   xmlns:inkscape="http://www.inkscape.org/namespaces/inkscape"
   xmlns:sodipodi="http://sodipodi.sourceforge.net/DTD/sodipodi-0.dtd"
   xmlns="http://www.w3.org/2000/svg"
   xmlns:svg="http://www.w3.org/2000/svg">
  <sodipodi:namedview
     id="namedview1"
     pagecolor="#ffffff"
     bordercolor="#666666"
     borderopacity="1.0"
     inkscape:showpageshadow="2"
     inkscape:pageopacity="0.0"
     inkscape:pagecheckerboard="0"
     inkscape:deskcolor="#d1d1d1"
     inkscape:document-units="mm" />
  <defs
     id="defs1" />
  <g
     inkscape:label="Layer 1"
     inkscape:groupmode="layer"
     id="layer1"
     transform="translate(-144.22893,-63.131506)">
    <path
       d="m 151.24349,63.151562 c -0.0162,0.03916 -0.14605,0.324556 -0.14605,0.324556 0.004,0.02328 0.067,0.153104 0.0882,0.297392 0.0219,0.149928 0.067,0.366183 0.10195,0.602543 0,0 0.31927,2.2733 0.31503,2.39536 -0.005,0.122415 0.0575,0.231424 -0.15275,0.345724 -0.45861,0.246239 -1.55857,0.486126 -2.07715,0.80645 -0.38065,0.23495 -0.94086,0.784225 -1.14265,0.957791 -0.20144,0.173567 -0.93592,0.375709 -0.89041,-0.27446 0.0123,-0.178506 0.23706,-0.880533 0.63323,-1.38289 0.073,-0.02469 0.1457,-0.04939 0.21343,-0.07267 0.0409,0.05715 0.0748,0.104423 0.0861,0.125942 0.0279,0.05221 0.0476,0.04657 0.0561,0.006 0.004,-0.02011 0.0166,-0.08784 0.0113,-0.183444 0.0847,-0.02857 0.15452,-0.05186 0.19721,-0.06597 0.19402,-0.06315 0.49424,-0.195792 0.49424,-0.195792 0,0 0.13617,-0.371827 0.10266,-0.406752 -0.0335,-0.03493 -0.4124,-0.407106 -0.47132,-0.459316 -0.0586,-0.05257 -0.34078,-0.269523 -0.5341,-0.168982 -0.16969,0.0882 -0.35772,0.405697 -0.3108,0.62089 0.0388,0.178858 0.0977,0.299508 0.15769,0.406752 -0.0579,0.01799 -0.10795,0.03387 -0.14534,0.04692 -0.19085,0.06632 -0.71579,0.208137 -1.02517,0.391935 -0.16651,0.09843 -0.64135,0.425099 -0.96838,0.85725 -0.10125,0.124532 -0.63923,0.724607 -1.05198,0.708377 -0.10372,-0.006 -0.54469,0.04762 -0.38135,-0.803627 0.0226,-0.110066 0.15839,-0.455435 0.21766,-0.577498 0.008,-0.01588 0.013,-0.03069 0.0159,-0.04445 0.0162,0.0049 0.0332,0.0085 0.0515,0.0088 0.097,-0.0028 0.22049,-0.08714 0.30092,-0.440621 0.0134,-0.08008 0.0212,-0.143934 0.0268,-0.175329 0.008,-0.04763 -0.0236,-0.103365 -0.0522,0.0063 -0.0656,0.216958 -0.24659,0.372179 -0.39194,0.08714 -0.024,-0.0568 -0.12382,-0.31609 0.0328,-0.892175 0.0318,-0.111477 0.0713,-0.278341 0.0713,-0.278341 0.0349,-0.12559 -0.0123,-0.192617 -0.0631,-0.03845 -0.0504,0.154516 -0.26459,0.68721 -0.21414,1.307745 0.008,0.103013 0.0572,0.274815 0.15381,0.364773 -0.0166,0.01693 -0.0342,0.04163 -0.0522,0.07691 -0.0903,0.176741 -0.5775,1.17122 0.0257,1.62207 0.0991,0.07373 0.61595,0.344665 1.264,-0.420158 0.0931,-0.107244 0.74119,-0.945444 1.59809,-1.210027 0.0773,-0.02858 0.22754,-0.08079 0.39546,-0.138994 -0.19544,0.301625 -1.02341,1.611842 -0.27023,2.023179 0.17357,0.0949 0.6216,0.224367 1.10878,-0.319262 0.1457,-0.16228 0.77753,-0.783873 1.34338,-0.966258 0.28857,-0.118182 1.10667,-0.259292 1.49754,-0.510117 0.12242,-0.07867 0.38206,-0.372533 0.33867,-1.00824 -0.0134,-0.197908 -0.35348,-2.517068 -0.35348,-2.517068 0,0 0.19226,0.175683 0.22401,0.209195 0.0317,0.03387 0.0702,0.01587 0.0519,-0.0381 -0.018,-0.05398 -0.4251,-0.957791 -0.43815,-0.991304 -0.013,-0.03422 -0.0261,-0.05891 -0.0423,-0.01976 m -2.74356,3.210631 c 0.14076,0.119238 0.24906,0.195792 0.2212,0.210254 -0.0871,0.04868 -0.28646,0.114655 -0.48049,0.176038 -0.001,-0.0021 -0.002,-0.0042 -0.003,-0.006 -0.0917,-0.154517 -0.18415,-0.305858 -0.2092,-0.3556 -0.0251,-0.04939 7.9e-4,-0.142169 0.11571,-0.147815 0.11501,-0.0053 0.23883,0.024 0.35595,0.123121 m 5.44477,-3.049412 c -0.0699,0.106539 -0.1217,0.362304 -0.0219,0.435329 0.0998,0.07338 0.24624,0.132644 0.24624,0.132644 -0.46567,0.570793 -0.78458,0.679802 -1.05692,0.839258 -0.0702,0.04127 -0.0561,0.07796 -0.0152,0.06738 0.0212,-0.0056 0.38806,-0.06315 0.81562,-0.388056 0.23178,-0.175683 0.37183,-0.475898 0.37183,-0.475898 0,0 0.11571,0.09631 0.13159,0.116065 0.0353,0.04339 0.0543,0.07549 0.0705,0.02998 0.0614,-0.168979 -0.025,-0.270933 -0.10689,-0.323495 0,0 0.0854,-0.263174 -0.0716,-0.527405 -0.0268,-0.04445 -0.18239,-0.18556 -0.36337,0.09419 m 0.24378,0.07267 c 0.10512,0.09737 0.0892,0.257881 0.085,0.294568 0,0 -0.13405,-0.06314 -0.19438,-0.08854 -0.0596,-0.02574 -0.0914,-0.06386 -0.0635,-0.101955 0.0924,-0.12982 0.13794,-0.125235 0.17287,-0.104068 m -1.73567,-0.205669 c -0.0162,0.03916 -0.13723,0.336196 -0.13723,0.336196 0.003,0.01765 0.0363,0.146756 0.0423,0.195439 0.0561,0.428625 0.40711,2.959807 0.508,3.760259 0.0494,0.3937 0.0882,0.748241 0.0931,0.938741 -0.004,0.05856 0.0215,0.08079 0.0483,0.024 0.0145,-0.03034 0.0751,-0.155575 0.0938,-0.484013 0.0138,-0.246591 -0.006,-0.625475 -0.0765,-1.147233 -0.01,-0.07585 -0.37571,-2.719917 -0.37571,-2.719917 0,0 0.19721,0.184857 0.22931,0.218371 0.0314,0.03387 0.0699,0.01622 0.0515,-0.0381 -0.018,-0.05362 -0.42157,-1.030464 -0.43462,-1.064331 -0.013,-0.03352 -0.0257,-0.05856 -0.0423,-0.01939 m -2.46345,0.129469 c -0.079,0.09948 -0.15346,0.348543 -0.061,0.429683 0.0924,0.08184 0.23248,0.153458 0.23248,0.153458 -0.51294,0.524227 -1.20438,0.99836 -1.48907,1.132065 -0.073,0.03422 -0.0628,0.07197 -0.0212,0.06491 0.0219,-0.0035 0.39052,-0.10301 0.84702,-0.381352 0.38417,-0.234598 0.77364,-0.763058 0.77364,-0.763058 0,0 0.10619,0.106185 0.11995,0.127 0.031,0.04657 0.0473,0.08008 0.0674,0.03563 0.0755,-0.161925 -8e-4,-0.270227 -0.0773,-0.329846 0,0 0.10795,-0.253296 -0.024,-0.529166 -0.0219,-0.04621 -0.16369,-0.200025 -0.36795,0.06068 m 0.23495,0.09384 c 0.0952,0.106538 0.0649,0.263525 0.0575,0.299509 0,0 -0.127,-0.07408 -0.18415,-0.10513 -0.0571,-0.03069 -0.085,-0.07126 -0.054,-0.106537 0.10336,-0.120298 0.14781,-0.111831 0.18062,-0.08784 m 10.2429,0.0053 c -0.0702,0.106537 -0.12206,0.362302 -0.0222,0.435327 0.0998,0.07338 0.24624,0.132644 0.24624,0.132644 -0.46567,0.571148 -1.38042,0.976841 -1.59809,1.146881 -0.0649,0.04904 -0.0561,0.07797 -0.0152,0.06668 0.0367,-0.0095 0.73343,-0.20461 1.37055,-0.750358 0.29174,-0.250119 0.28363,-0.268817 0.35807,-0.420865 0.0631,0.03246 0.10689,0.08537 0.13158,0.116416 0.0353,0.04339 0.0543,0.0755 0.0713,0.02999 0.0607,-0.168981 -0.0254,-0.270933 -0.10759,-0.323498 0,0 0.0854,-0.263173 -0.0716,-0.527402 -0.0261,-0.04445 -0.18238,-0.185562 -0.36301,0.09419 m 0.24342,0.07267 c 0.10513,0.09737 0.0889,0.257881 0.085,0.294571 0,0 -0.13406,-0.06315 -0.19438,-0.08855 -0.0596,-0.02574 -0.091,-0.06385 -0.0632,-0.101952 0.0921,-0.129823 0.13758,-0.125238 0.17251,-0.104071 m -1.78823,-0.165452 c -0.18309,0.232481 -0.19473,0.538339 -0.21908,0.879475 -0.0261,-0.07161 -0.17215,-0.528815 -0.63993,-0.790575 -0.0339,-0.01905 -0.10266,0.01693 -0.10937,0.124531 -0.004,0.06315 -0.0215,0.215546 0.0229,0.258585 0.0441,0.04304 0.17463,0.128059 0.1965,0.1397 0.0219,0.01236 0.0452,0.0141 0.0519,-0.01236 0.007,-0.02611 0.0363,-0.08678 0.079,-0.04304 0.0356,0.03598 0.266,0.226483 0.38523,0.630412 0.0212,0.05327 0.0706,0.05856 0.0822,-0.01765 0.0275,-0.186622 0.0423,-0.510824 0.0572,-0.6096 0.0212,-0.137938 0.0871,-0.422982 0.26212,-0.275167 0.0395,0.03387 0.0822,0.07832 0.0822,0.07832 0.037,0.04657 0.0836,0.100187 0.10619,0.04621 0.0346,-0.08149 0.0624,-0.216959 0.0247,-0.290336 -0.0169,-0.03246 -0.23353,-0.306916 -0.3817,-0.118533 m -1.80058,-0.01093 c -0.0674,0.03916 -1.78752,1.031875 -1.85737,1.076677 -0.0695,0.04516 -0.0942,0.0568 -0.10513,0.110418 -0.0116,0.05398 -0.0169,0.08502 -0.0201,0.09349 -0.0123,0.03633 -0.0215,0.08043 0.0811,0.01341 0.0321,-0.02082 1.76212,-1.020585 1.82245,-1.058333 0.0582,-0.03633 0.0917,-0.05186 0.11536,-0.107595 0.0233,-0.05574 0.0293,-0.06597 0.0416,-0.104775 0.0134,-0.04092 0.0268,-0.08502 -0.078,-0.02328 m -9.84285,0.06385 c -0.0307,0.07514 -0.15875,0.332669 -0.13935,0.636411 0.005,0.07056 0.0512,0.207081 0.15699,0.210962 0.0547,-2.64e-4 0.12523,-0.03986 0.17568,-0.211666 0.008,-0.03881 0.0141,-0.0702 0.0173,-0.08537 0.006,-0.02328 -0.0116,-0.0508 -0.0296,0.0024 -0.0395,0.105129 -0.14358,0.178858 -0.22155,0.03775 -0.0127,-0.02822 -0.0649,-0.155927 0.031,-0.435681 0.0198,-0.05433 0.0441,-0.135113 0.0441,-0.135113 0.0219,-0.06103 -0.004,-0.09455 -0.0346,-0.01976 m -1.59702,0.05644 c -0.17428,0.221546 -0.18521,0.512587 -0.20814,0.837141 -0.0251,-0.06773 -0.16369,-0.50306 -0.60854,-0.752475 -0.0325,-0.01799 -0.0981,0.01659 -0.10407,0.118888 -0.004,0.05962 -0.0208,0.204962 0.0215,0.245885 0.0402,0.03951 0.34043,0.144992 0.17745,0.3175 -0.073,0.07726 -0.43851,0.4572 -0.51718,0.549275 -0.0787,0.09208 -0.0861,0.108657 -0.002,0.06174 0.0843,-0.04692 0.5715,-0.236361 0.65193,-0.719667 0.007,-0.0635 -0.006,-0.110771 -0.0208,-0.142521 0.006,0.0019 0.0141,0.0056 0.0215,0.01376 0.0342,0.03422 0.25294,0.215545 0.36654,0.59972 0.0201,0.0508 0.0674,0.05574 0.0783,-0.01622 0.0261,-0.1778 0.0402,-0.486833 0.0543,-0.579966 0.0201,-0.131586 0.0833,-0.402873 0.24942,-0.262115 0.0381,0.0321 0.078,0.07444 0.078,0.07444 0.0356,0.04445 0.0801,0.09525 0.10125,0.04374 0.0328,-0.07761 0.0593,-0.206375 0.0236,-0.275873 -0.0159,-0.03104 -0.22225,-0.2921 -0.36336,-0.113241 m 3.1436,0.633941 c -0.0653,0.04092 -2.52977,1.268238 -2.71851,1.42099 -0.0945,0.07691 -0.17321,0.19826 -0.20073,0.3302 -0.0395,0.1905 0.008,0.379235 0.13194,0.398992 0.0864,0.0141 0.13617,0.06421 0.15805,0.09349 0.01,0.01236 0.0236,0.0035 0.0275,-0.0049 0.0984,-0.194381 0.01,-0.316442 -0.1584,-0.364421 -0.0663,-0.01905 -0.0959,-0.111829 0.15029,-0.269875 0.22719,-0.14605 2.47191,-1.281994 2.52201,-1.316919 0.0684,-0.04762 0.10936,-0.06597 0.13582,-0.134056 0.0264,-0.06808 0.0335,-0.08008 0.0469,-0.127352 0.0148,-0.05045 0.0293,-0.103717 -0.0949,-0.02611 m 8.62682,0.600429 c -0.0346,0.08431 -0.1785,0.37465 -0.15663,0.717196 0.005,0.07902 0.0575,0.233188 0.17674,0.237421 0.0617,-2.65e-4 0.14147,-0.0448 0.19791,-0.23848 0.01,-0.04374 0.0159,-0.07902 0.0198,-0.09631 0.006,-0.02574 -0.013,-0.05715 -0.0332,0.0028 -0.0452,0.118533 -0.16192,0.20179 -0.24976,0.04269 -0.0141,-0.03175 -0.0737,-0.175683 0.0349,-0.491066 0.0222,-0.06103 0.0497,-0.1524 0.0497,-0.1524 0.0243,-0.06879 -0.005,-0.106186 -0.0395,-0.02188 m -7.03544,0.06879 c -0.0243,0.07514 -0.0427,0.133702 -0.01,0.219779 0.0332,0.08608 0.12171,0.281871 0.13617,0.30974 0.0148,0.02787 0.018,0.05962 -0.0303,0.08008 -0.0487,0.02045 -0.27093,0.06808 -0.31221,-0.168629 -0.0413,-0.237067 -0.0448,-0.306211 -0.0656,-0.346427 -0.0205,-0.04022 -0.0402,-0.0448 -0.0561,-0.0046 -0.0155,0.03986 -0.0254,0.122413 -0.0279,0.135819 -0.002,0.01304 -0.002,0.02294 0.006,0.03775 0.008,0.01447 0.097,0.2794 0.0571,0.352071 -0.0399,0.07303 -0.23953,0.203906 -0.34396,0.06703 -0.0497,-0.09596 -0.0194,-0.339021 -0.0194,-0.396171 0,-0.0568 -0.018,-0.07655 -0.0427,-0.03034 -0.024,0.04621 -0.0374,0.07655 -0.036,0.117827 0.001,0.04127 0.007,0.218723 0.004,0.27446 -0.004,0.05574 0,0.237067 0.10654,0.288221 0.10724,0.0508 0.26247,0.0032 0.38029,-0.219075 0.091,0.132292 0.22966,0.132644 0.30375,0.105833 0.0631,-0.02328 0.1337,-0.117829 0.15416,-0.249062 0.0204,-0.131234 -0.0134,-0.220838 -0.0547,-0.294921 -0.0543,-0.09137 -0.091,-0.244123 -0.091,-0.244123 -0.019,-0.05468 -0.0339,-0.110773 -0.0582,-0.03528 m 10.3431,0.104421 c -0.0321,0.07796 -0.16546,0.347133 -0.14535,0.663929 0.005,0.07338 0.0533,0.2159 0.16369,0.220133 0.0568,-2.64e-4 0.13053,-0.04198 0.18309,-0.221191 0.009,-0.04022 0.0148,-0.07303 0.0187,-0.0889 0.005,-0.024 -0.0127,-0.05292 -0.0307,0.0024 -0.042,0.109715 -0.15029,0.186619 -0.23178,0.03951 -0.013,-0.02928 -0.0677,-0.162983 0.0328,-0.454377 0.0201,-0.0568 0.0459,-0.14111 0.0459,-0.14111 0.0226,-0.06385 -0.005,-0.09842 -0.0363,-0.02045 m -6.20677,0.0085 -0.16863,0.230364 -0.32279,-0.235302 c -0.008,-0.006 -0.0194,-0.0035 -0.0257,0.0049 l -0.19509,0.267055 c -0.006,0.0088 -0.005,0.02045 0.004,0.02646 l 0.33267,0.242358 c 0.008,0.006 0.0198,0.0039 0.0261,-0.0046 l 0.16792,-0.230717 0.32315,0.235305 c 0.008,0.006 0.0198,0.0039 0.0257,-0.0046 l 0.19509,-0.267404 c 0.006,-0.0085 0.005,-0.02045 -0.004,-0.02611 l -0.33267,-0.24271 c -0.008,-0.006 -0.0198,-0.0035 -0.0258,0.0049 m 1.30316,0.415925 c -0.0127,0.04516 -0.0455,0.239538 -0.0533,0.279754 -0.008,0.04022 -0.007,0.07973 0.0124,0.113946 0.0198,0.03422 0.0705,0.152754 0.10724,0.249063 0.0363,0.09631 0.41416,0.824087 0.44909,0.888645 0.0349,0.06456 0.042,0.112538 0.007,0.155575 -1.21285,1.279173 -3.55353,2.066221 -3.62832,2.109613 -0.0744,0.04374 -0.0547,0.07726 0.0713,0.05539 0.18838,-0.03316 1.23931,-0.209198 1.53917,-0.353483 0.19791,-0.09525 0.88794,-0.433917 1.45238,-0.876652 -0.0155,0.114652 -0.03,0.282575 -0.0222,0.495652 0.0381,1.029052 0.95814,0.858308 1.1998,0.805392 0.7239,-0.15875 1.60902,-1.159227 1.68381,-1.360311 0.0744,-0.198614 0.0854,-0.379589 0.0684,-0.537633 0.1905,-0.103013 0.60008,-0.433213 0.60008,-0.433213 0.0166,0.438857 0.36583,0.570796 0.47343,0.589492 0.50341,0.07655 0.75565,-0.34431 0.86289,-0.480483 0.0917,0.240241 0.31221,0.287162 0.42545,0.309739 0.43462,0.08643 0.51929,-0.220839 0.54152,-0.291041 0.13652,-0.423686 -0.10901,-0.739423 -0.14041,-0.7747 -0.0317,-0.03493 -0.0476,-0.0013 -0.0586,0.03916 -0.0113,0.04092 -0.0466,0.193675 -0.0684,0.288925 0,0 0.0907,0.148167 0.12312,0.22366 0.0324,0.07514 -0.0159,0.116417 -0.10936,0.128059 -0.26423,0.03246 -0.47484,-0.119592 -0.54751,-0.189088 -0.0727,-0.0702 0.006,-0.193675 0.0646,-0.341137 0.0469,-0.118179 -0.0402,-0.132292 -0.10654,-2.65e-4 -0.22402,0.588785 -0.53905,0.652285 -0.6216,0.674865 -0.74612,0.203552 -0.68192,-0.478721 -0.67945,-0.590198 0.003,-0.112184 -0.079,-0.07091 -0.17074,0.0032 -0.31397,0.251883 -0.56692,0.399698 -0.70274,0.460727 -0.11712,-0.228952 -0.28751,-0.372886 -0.35912,-0.424744 -0.80751,-0.588785 -0.87419,0.599369 -0.84985,0.726369 0.12277,0.505531 0.94792,0.199321 1.07704,0.183798 0.12982,-0.01482 0.0875,0.155575 0.0148,0.257175 -0.17886,0.250118 -0.38559,0.429683 -0.57291,0.582435 -0.79939,0.652288 -1.20085,0.600781 -1.32433,0.5969 -0.78563,-0.02223 -0.71331,-0.868537 -0.66992,-1.049512 0.23636,-0.200025 0.43921,-0.41769 0.55739,-0.64135 0.048,-0.122767 0.13088,-0.401815 -0.0187,-0.751771 -0.0783,-0.154163 -0.32632,-0.585963 -0.32632,-0.585963 0,0 0.18239,0.0053 0.19967,0.0049 0.0173,-2.64e-4 0.0519,-0.01799 0.007,-0.06914 -0.0441,-0.05115 -0.42721,-0.433565 -0.45049,-0.464257 -0.0229,-0.03069 -0.0444,-0.05292 -0.0575,-0.0074 m 2.42217,1.7526 c 0,0 -0.10971,0.06315 -0.41733,0.04233 -0.25788,-0.01728 -0.23566,-0.117827 -0.20038,-0.155927 0.0384,-0.04163 0.35384,-0.240241 0.61771,0.113594 m -3.31646,-1.425221 c -0.0533,0.06632 -0.58984,0.770467 -0.58984,0.770467 l -0.38947,-0.278342 c 0,0 0.15875,-0.03986 0.18627,-0.04798 0.0279,-0.0081 0.0437,-0.0441 -0.006,-0.0695 -0.0498,-0.02574 -0.52,-0.213431 -0.55598,-0.227896 -0.0356,-0.01447 -0.0483,-0.03069 -0.0515,0.0074 -0.004,0.0381 -0.009,0.347487 -0.009,0.347487 0,0 -0.007,0.02188 0.0339,0.04515 0.0409,0.02328 0.0811,0.07303 0.11501,0.106892 0.0335,0.03351 0.47095,0.378531 0.49212,0.390525 0,0 -0.21872,0.384529 -0.24659,0.685448 -0.0279,0.300918 0.005,0.716492 0.41663,0.582435 0.11077,-0.03175 0.5715,-0.214842 0.67451,-0.535868 0.0335,-0.118534 0.12841,-0.332317 -0.0261,-0.548924 -0.0889,-0.127351 -0.44873,-0.342545 -0.44873,-0.342545 0,0 0.27623,-0.382058 0.30233,-0.42898 0.0265,-0.04657 0.12771,-0.342545 0.13935,-0.41416 0.0113,-0.07161 0.0166,-0.107598 -0.0367,-0.04163 m -0.0945,1.623129 c -0.15275,0.125942 -0.47378,0.291748 -0.56374,0.300215 -0.0903,0.0088 -0.33019,-0.03493 -0.22577,-0.280458 0.0356,-0.07937 0.27481,-0.48895 0.27481,-0.48895 0.0893,0.04903 0.66781,0.343251 0.5147,0.469193 m -5.04789,-1.052335 -0.19544,0.267406 c -0.006,0.0085 -0.005,0.02011 0.004,0.02574 l 0.33231,0.243065 c 0.008,0.0056 0.0198,0.0035 0.0261,-0.0049 l 0.19473,-0.267758 c 0.007,-0.0081 0.005,-0.01976 -0.003,-0.02574 l -0.33267,-0.242713 c -0.008,-0.0056 -0.0198,-0.0039 -0.0257,0.0049 m 11.27901,1.61431 c -0.0314,0.08608 -0.0437,0.142875 -0.0402,0.175683 0.003,0.03281 0.0145,0.139349 0.0145,0.139349 -0.0321,0.02611 -0.16863,0.110773 -0.3055,0.01024 0.009,-0.02893 0.0268,-0.08855 0.031,-0.121356 0.0145,-0.05045 -0.0166,-0.08819 -0.0413,-0.03563 -0.0251,0.05257 -0.0833,0.228248 -0.1263,0.267407 -0.0427,0.03951 -0.0931,0.184856 -0.4191,0.03704 -0.0571,-0.02188 -0.15699,-0.09596 -0.31291,0.06068 -0.35278,0.327732 -0.59584,0.353483 -0.99095,0.49389 -0.048,0.02188 -0.14853,0.09737 -0.0293,0.08537 0.11889,-0.01199 0.62019,2.65e-4 0.89289,-0.312563 0.0572,-0.05538 0.12241,-0.201787 0.33901,-0.116768 0.11995,0.04551 0.34185,0.235656 0.5835,-0.140407 0.14217,0.0949 0.35913,0.05715 0.39299,-0.04763 0.0349,-0.10442 0.0744,-0.208843 0.0741,-0.279752 -2.7e-4,-0.07126 -0.006,-0.1651 -0.006,-0.1651 -0.005,-0.05609 -0.0251,-0.136525 -0.0561,-0.05045 m -9.10731,0.0092 c -0.0307,0.07443 -0.1584,0.332317 -0.139,0.63641 0.005,0.07021 0.0512,0.207082 0.15699,0.210609 0.0547,0 0.12523,-0.03986 0.17533,-0.211667 0.009,-0.0388 0.0145,-0.06985 0.018,-0.08537 0.005,-0.02328 -0.0116,-0.0508 -0.0296,0.0024 -0.0402,0.105127 -0.14393,0.178858 -0.22154,0.03775 -0.0127,-0.02822 -0.0656,-0.15593 0.031,-0.435682 0.0194,-0.05433 0.0441,-0.135114 0.0441,-0.135114 0.0212,-0.06103 -0.005,-0.09454 -0.0353,-0.01939 m -1.71274,0.349602 c -0.0303,0.07514 -0.15875,0.333023 -0.139,0.636764 0.005,0.0702 0.0512,0.207082 0.15699,0.210609 0.0547,0 0.12524,-0.03987 0.17533,-0.211667 0.009,-0.03881 0.0145,-0.0702 0.018,-0.08537 0.005,-0.02294 -0.012,-0.0508 -0.0296,0.0024 -0.0402,0.105479 -0.14393,0.178859 -0.2219,0.03775 -0.0127,-0.02787 -0.0649,-0.155927 0.0314,-0.435679 0.0194,-0.05397 0.0437,-0.134763 0.0437,-0.134763 0.0219,-0.06138 -0.004,-0.09454 -0.0349,-0.02011 m -3.45581,0.635 c -0.0744,0.02434 -0.91793,0.326673 -1.00048,0.359481 -0.0773,0.03069 -0.0981,0.05009 -0.11254,0.10301 -0.0145,0.05292 -0.0219,0.08361 -0.0257,0.09207 -0.0145,0.03528 -0.0332,0.06527 0.0804,0.01834 0.0547,-0.02257 0.88583,-0.30833 0.96414,-0.342548 0.0632,-0.02752 0.0952,-0.04586 0.12206,-0.10019 0.0268,-0.05397 0.0335,-0.0635 0.0483,-0.1016 0.0155,-0.04022 0.0346,-0.06456 -0.0762,-0.02858"
       style="fill:#231f20;fill-opacity:1;fill-rule:evenodd;stroke:none;stroke-width:0.264583"
       id="path1-9" />
  </g>
</svg>
