<?xml version="1.0" encoding="UTF-8" standalone="no"?>
<!-- Created with Inkscape (http://www.inkscape.org/) -->

<svg
   width="17.12623mm"
   height="6.584353mm"
   viewBox="0 0 17.12623 6.584353"
   version="1.1"
   id="svg1"
   xmlns:inkscape="http://www.inkscape.org/namespaces/inkscape"
   xmlns:sodipodi="http://sodipodi.sourceforge.net/DTD/sodipodi-0.dtd"
   xmlns="http://www.w3.org/2000/svg"
   xmlns:svg="http://www.w3.org/2000/svg">
  <sodipodi:namedview
     id="namedview1"
     pagecolor="#ffffff"
     bordercolor="#666666"
     borderopacity="1.0"
     inkscape:showpageshadow="2"
     inkscape:pageopacity="0.0"
     inkscape:pagecheckerboard="0"
     inkscape:deskcolor="#d1d1d1"
     inkscape:document-units="mm" />
  <defs
     id="defs1" />
  <g
     inkscape:label="Layer 1"
     inkscape:groupmode="layer"
     id="layer1"
     transform="translate(-125.67049,-52.33634)">
    <path
       d="m 135.05436,52.505553 c -0.0702,0.10654 -0.12241,0.36266 -0.0222,0.43568 0.10019,0.073 0.24659,0.13265 0.24659,0.13265 -0.46601,0.57044 -0.78457,0.67945 -1.05727,0.83926 -0.0702,0.0413 -0.0561,0.078 -0.0152,0.067 0.0215,-0.006 0.38805,-0.0631 0.81597,-0.38805 0.23143,-0.17568 0.37148,-0.4759 0.37148,-0.4759 0,0 0.11606,0.0967 0.13194,0.11607 0.0353,0.0434 0.0543,0.0758 0.0705,0.0296 0.061,-0.16863 -0.0251,-0.27058 -0.10724,-0.32315 0,0 0.0854,-0.26317 -0.0716,-0.5274 -0.0264,-0.0441 -0.18203,-0.18556 -0.363,0.0942 m 0.24341,0.0727 c 0.10513,0.0977 0.0889,0.25787 0.085,0.29456 0,0 -0.1337,-0.0631 -0.19403,-0.0889 -0.0596,-0.0254 -0.0914,-0.0635 -0.0635,-0.1016 0.0924,-0.12946 0.13759,-0.12523 0.17251,-0.10406 m -1.74096,-0.1898 c -0.0162,0.0392 -0.11183,0.30339 -0.11183,0.30339 0.0257,0.17145 0.25259,2.01436 0.26776,2.13995 0.0148,0.12559 0.33444,2.21015 0.35102,2.78694 -0.005,0.0589 0.0212,0.0808 0.048,0.0243 0.0272,-0.0568 0.21308,-0.44097 -0.007,-1.85137 -0.0166,-0.11748 -0.35102,-2.50014 -0.35102,-2.50014 0,0 0.19756,0.18556 0.22895,0.21872 0.0318,0.0335 0.0702,0.0159 0.0522,-0.0381 -0.0183,-0.054 -0.42193,-1.03046 -0.43533,-1.06433 -0.013,-0.0339 -0.0257,-0.0586 -0.0423,-0.0194 m -1.04739,0.0212 c -0.0162,0.0392 -0.11219,0.30374 -0.11219,0.30374 0.013,0.0843 0.16228,1.1049 0.30551,2.09444 0,0 0.37006,2.12161 0.37218,2.23873 0.002,0.0575 0.0212,0.13017 -0.0106,0.15557 -0.0321,0.0258 -0.49989,0.34079 -0.88689,0.0596 -0.0582,-0.042 -0.26881,-0.19826 -0.33725,-0.60501 -0.0275,-0.13441 -0.18944,-0.78881 -0.36618,-1.07633 -0.0409,-0.049 -0.0579,-0.049 -0.0794,0.0127 -0.0212,0.0617 -0.0445,0.30657 -0.0445,0.30657 0.0469,0.13229 0.29951,0.83008 0.32808,1.1617 0.01,0.1083 -0.0935,0.25788 -0.27481,0.23671 -0.0575,-0.008 -0.33902,-0.0744 -0.38382,-0.24271 0.008,-0.0406 0.0106,-0.0325 0.0173,-0.0748 0.006,-0.0427 -0.013,-0.12171 -0.066,-0.0406 -0.0536,0.0811 -0.16333,0.32632 -0.24729,0.40675 -0.12101,0.11607 -0.52035,0.15205 -0.50307,-0.15734 0.0275,-0.0639 0.0423,-0.10019 0.0575,-0.13194 0.0148,-0.0321 -0.008,-0.0875 -0.0681,-0.03 -0.06,0.0575 -0.21343,0.30903 -0.40499,0.41557 -0.19191,0.10654 -0.59055,0.19191 -0.65899,-0.20673 0.0236,-0.0617 0.0321,-0.12806 0.0406,-0.16227 0.009,-0.0339 -0.0148,-0.11042 -0.066,-0.0423 -0.0508,0.0681 -0.25364,0.4004 -0.59443,0.51365 -0.16333,0.054 -0.71508,0.23212 -1.0294,-0.46285 -0.048,-0.10477 -0.1898,-0.5334 -0.2346,-1.16981 -0.01,-0.13194 -0.19403,-2.05705 -0.22825,-2.29976 -0.0339,-0.24306 -0.1023,-0.75247 -0.17462,-0.91016 -0.0257,-0.0617 -0.06,-0.0596 -0.079,-0.008 -0.019,0.0512 -0.10019,0.2794 -0.10019,0.2794 0.13864,0.52176 0.26211,1.71203 0.28151,1.85773 0.0307,0.23495 0.14253,1.75824 0.20991,2.10573 0.054,0.27869 0.11324,0.77928 0.58808,0.97825 0.11677,0.049 0.70379,0.25682 1.19239,-0.28787 0.0758,0.0963 0.32561,0.4498 0.81632,0.19438 0.0974,-0.0504 0.18662,-0.13758 0.26318,-0.26775 0.0272,0.0515 0.1083,0.2988 0.38593,0.29986 0.073,0 0.29281,-0.006 0.47484,-0.36301 0.0579,0.0378 0.26176,0.23601 0.55245,0.20532 0.085,-0.0141 0.31362,-0.0998 0.33373,-0.43216 0,0 0.13582,0.31115 0.39864,0.44168 0.0882,0.0441 0.33584,0.1905 0.79199,-0.0462 0.0801,-0.0416 0.17639,-0.0882 0.28963,-0.53975 0.019,-0.0967 0.0423,-0.22472 -0.0102,-0.54187 -0.0483,-0.19932 -0.54257,-3.26496 -0.54257,-3.26531 0,0 0.1972,0.18521 0.22895,0.21907 0.0317,0.0335 0.0702,0.0155 0.0519,-0.0381 -0.018,-0.0543 -0.42193,-1.03046 -0.43498,-1.06468 -0.013,-0.0339 -0.0257,-0.0586 -0.0423,-0.0194 m 9.06745,0.19156 c -0.0702,0.10654 -0.12242,0.36265 -0.0226,0.43533 0.10019,0.0737 0.24659,0.13299 0.24659,0.13299 -0.46602,0.5708 -1.38042,0.97684 -1.59844,1.14688 -0.0646,0.0487 -0.0557,0.0776 -0.0148,0.0667 0.036,-0.01 0.73307,-0.20461 1.37018,-0.75036 0.2921,-0.25047 0.28434,-0.26917 0.35843,-0.42122 0.0631,0.0332 0.10689,0.0854 0.13158,0.11642 0.0353,0.0437 0.0543,0.0759 0.0706,0.03 0.0614,-0.16897 -0.0251,-0.27093 -0.10725,-0.32349 0,0 0.0854,-0.26317 -0.0716,-0.52705 -0.0261,-0.0444 -0.18203,-0.18556 -0.36266,0.0938 m 0.24342,0.0727 c 0.10513,0.0974 0.0889,0.25753 0.0847,0.29457 0,0 -0.13371,-0.0628 -0.19403,-0.0885 -0.0596,-0.0257 -0.0914,-0.0639 -0.0639,-0.1016 0.0928,-0.13017 0.13828,-0.12559 0.17321,-0.10442 m -1.78858,-0.16545 c -0.1831,0.23283 -0.19474,0.53833 -0.21908,0.87982 -0.0257,-0.0716 -0.1718,-0.52881 -0.63958,-0.79057 -0.0339,-0.0194 -0.10301,0.0166 -0.10936,0.12453 -0.004,0.0624 -0.0219,0.21484 0.0226,0.25823 0.0441,0.0434 0.17463,0.12806 0.1965,0.14006 0.0219,0.0124 0.0455,0.0138 0.0522,-0.0127 0.006,-0.0258 0.0363,-0.0868 0.0787,-0.0434 0.036,0.0363 0.266,0.22684 0.38559,0.63042 0.0208,0.054 0.0702,0.0589 0.0818,-0.0169 0.0279,-0.18698 0.0427,-0.51118 0.0575,-0.6096 0.0208,-0.13829 0.0868,-0.42369 0.26211,-0.27517 0.0395,0.0335 0.0818,0.078 0.0818,0.078 0.0371,0.0466 0.084,0.10019 0.10654,0.0462 0.0346,-0.0815 0.0621,-0.21696 0.0243,-0.28999 -0.0166,-0.0324 -0.23353,-0.30727 -0.3817,-0.11888 m -1.80023,-0.0109 c -0.0677,0.0392 -1.78787,1.03187 -1.85737,1.07703 -0.0699,0.0452 -0.0942,0.0564 -0.10548,0.11042 -0.0113,0.0536 -0.0169,0.0847 -0.0198,0.0931 -0.0127,0.0363 -0.0215,0.0804 0.0811,0.0134 0.0321,-0.0208 1.76177,-1.02059 1.82245,-1.05834 0.0582,-0.0363 0.0917,-0.0515 0.115,-0.10759 0.0236,-0.0557 0.0296,-0.0656 0.042,-0.10442 0.0134,-0.0413 0.0265,-0.085 -0.078,-0.0236 m -7.75053,0.0212 c -0.0307,0.0744 -0.15875,0.33268 -0.13899,0.63642 0.004,0.0698 0.0508,0.20708 0.15663,0.21061 0.0547,0 0.12523,-0.0399 0.17568,-0.21167 0.008,-0.0388 0.0141,-0.0702 0.0177,-0.0854 0.005,-0.0229 -0.0116,-0.0504 -0.0296,0.002 -0.0399,0.10548 -0.14394,0.17921 -0.2219,0.0378 -0.0124,-0.0279 -0.0653,-0.15593 0.0314,-0.43533 0.0194,-0.0543 0.0441,-0.13512 0.0441,-0.13512 0.0215,-0.061 -0.004,-0.0945 -0.0349,-0.0198 m -1.8415,0.25965 c -0.18309,0.23247 -0.19438,0.53869 -0.21872,0.87982 -0.0258,-0.0716 -0.17216,-0.52881 -0.63959,-0.79057 -0.0339,-0.0194 -0.10301,0.0169 -0.10936,0.12453 -0.004,0.0628 -0.0219,0.21519 0.0222,0.25858 0.0444,0.043 0.17498,0.12771 0.1965,0.1397 0.0222,0.012 0.0459,0.0138 0.0526,-0.0127 0.006,-0.0261 0.036,-0.0868 0.0783,-0.043 0.036,0.036 0.266,0.22649 0.38594,0.63042 0.0204,0.0536 0.0702,0.0589 0.0818,-0.0173 0.0275,-0.18697 0.0423,-0.51117 0.0571,-0.6096 0.0208,-0.13794 0.0871,-0.42333 0.26212,-0.27516 0.0399,0.0335 0.0818,0.078 0.0818,0.078 0.0374,0.0469 0.084,0.10019 0.10689,0.0462 0.0342,-0.0815 0.0617,-0.21696 0.024,-0.28998 -0.0162,-0.0325 -0.23318,-0.30692 -0.38171,-0.11889 m 2.96969,0.61031 c -0.0314,0.0878 -0.0385,0.1143 -0.0325,0.15205 0.005,0.037 0.0307,0.15839 0.0201,0.1905 -0.0109,0.0321 -0.17392,0.14851 -0.24765,0.0762 -0.025,-0.0293 -0.0183,-0.14641 -0.024,-0.2032 -0.005,-0.0572 -0.0166,-0.12136 -0.0554,-0.0388 -0.0385,0.0818 -0.0296,0.10866 -0.0261,0.16016 0.004,0.0519 0.0254,0.11571 -0.0152,0.16581 -0.0406,0.0501 -0.2293,0.19367 -0.32914,0.0374 -0.0166,-0.0318 -0.01,-0.0893 -0.006,-0.1337 0.004,-0.0444 -0.0395,-0.0893 -0.0572,-0.0194 -0.0173,0.0695 -0.0508,0.20356 -0.0183,0.29387 0.0328,0.091 0.21343,0.28257 0.45967,-0.0501 0.0677,0.03 0.27658,0.0931 0.39828,-0.23354 0.042,-0.15487 0.007,-0.35277 0.007,-0.35277 -0.0162,-0.0945 -0.0413,-0.13194 -0.0734,-0.0444 m -1.33668,0.17956 c -0.0758,0.0445 -2.47085,1.32856 -2.54917,1.37936 -0.0783,0.0504 -0.10618,0.0635 -0.11853,0.12418 -0.0127,0.0603 -0.019,0.0953 -0.0226,0.10477 -0.0141,0.0406 -0.0243,0.0903 0.0914,0.0152 0.036,-0.0233 2.44546,-1.31551 2.51001,-1.3582 0.0646,-0.0423 0.10337,-0.0582 0.12983,-0.121 0.0261,-0.0628 0.0328,-0.0737 0.0466,-0.11783 0.0152,-0.0462 0.03,-0.0953 -0.0875,-0.0265 m 0.8943,1.02129 -0.19474,0.26776 c -0.006,0.008 -0.005,0.0198 0.003,0.0258 l 0.33302,0.24271 c 0.008,0.006 0.0198,0.004 0.0257,-0.005 l 0.19474,-0.26741 c 0.006,-0.008 0.005,-0.0201 -0.003,-0.0257 l -0.33267,-0.24271 c -0.008,-0.006 -0.0198,-0.004 -0.0261,0.005 m 0.96555,0.22084 c -0.0325,0.0843 -0.17109,0.37676 -0.12841,0.71014 0.01,0.0765 0.0744,0.22401 0.20285,0.22084 0.066,-0.004 0.14852,-0.0526 0.19826,-0.24483 0.008,-0.0437 0.013,-0.078 0.0166,-0.0953 0.005,-0.0257 -0.0177,-0.0547 -0.0356,0.005 -0.0416,0.11853 -0.16263,0.20673 -0.26529,0.0572 -0.0173,-0.0303 -0.0885,-0.16722 0.0106,-0.4819 0.0201,-0.0607 0.0444,-0.15134 0.0444,-0.15134 0.0226,-0.0688 -0.0109,-0.10371 -0.0434,-0.0194 m -1.95333,0.28222 c -0.1397,0.22895 -0.11747,0.50518 -0.10301,0.81491 -0.031,-0.0617 -0.21131,-0.45755 -0.66005,-0.64346 -0.0324,-0.0134 -0.091,0.0265 -0.085,0.12382 0.003,0.0568 0.004,0.19615 0.048,0.23037 0.0441,0.0339 0.17074,0.0963 0.19156,0.10477 0.0212,0.008 0.0423,0.007 0.0455,-0.0169 0.003,-0.024 0.0233,-0.0815 0.0663,-0.0469 0.036,0.0286 0.26353,0.17533 0.41416,0.52599 0.0243,0.0459 0.0695,0.0452 0.0716,-0.0243 0.005,-0.17075 -0.0159,-0.46426 -0.0131,-0.55457 0.004,-0.12664 0.0332,-0.39017 0.20638,-0.27552 0.0392,0.0258 0.0822,0.0614 0.0822,0.0614 0.0385,0.0381 0.0861,0.0811 0.1009,0.03 0.0219,-0.0769 0.0324,-0.20143 -0.01,-0.26352 -0.0183,-0.0272 -0.24271,-0.25118 -0.35595,-0.066 m -1.77729,0.3563 c -0.043,0.11148 -0.22649,0.49954 -0.17039,0.94157 0.013,0.10195 0.0991,0.29739 0.26881,0.29316 0.0875,-0.005 0.1972,-0.0695 0.26353,-0.32491 0.0106,-0.0575 0.0169,-0.10337 0.0215,-0.12594 0.007,-0.0346 -0.0233,-0.073 -0.0473,0.006 -0.0554,0.1577 -0.2159,0.27447 -0.35207,0.0751 -0.0226,-0.0399 -0.11748,-0.22155 0.0141,-0.63853 0.0265,-0.0808 0.0593,-0.20108 0.0593,-0.20108 0.0296,-0.091 -0.0148,-0.13759 -0.0575,-0.0254 m -2.52977,-2.52907 c -0.0325,0.0843 -0.17074,0.37677 -0.12841,0.70979 0.01,0.0769 0.0744,0.22437 0.20249,0.22084 0.066,-0.004 0.14888,-0.0522 0.19862,-0.24483 0.008,-0.0434 0.0127,-0.078 0.0162,-0.0949 0.005,-0.0261 -0.0177,-0.055 -0.0356,0.005 -0.0416,0.11854 -0.16228,0.20673 -0.26494,0.0568 -0.0173,-0.03 -0.0885,-0.16686 0.0102,-0.48154 0.0201,-0.0607 0.0448,-0.1517 0.0448,-0.1517 0.0222,-0.0684 -0.0109,-0.10336 -0.0434,-0.019 m 12.68977,0.93239 c -0.0342,0.084 -0.1785,0.37501 -0.15663,0.7172 0.005,0.079 0.0579,0.23354 0.17709,0.23778 0.0614,-2.7e-4 0.14111,-0.0448 0.19791,-0.23884 0.01,-0.0437 0.0155,-0.079 0.0198,-0.096 0.006,-0.0261 -0.013,-0.0575 -0.0332,0.002 -0.0451,0.11888 -0.16227,0.20179 -0.25011,0.0427 -0.0145,-0.0314 -0.0734,-0.17568 0.0356,-0.49071 0.0215,-0.0614 0.0494,-0.1524 0.0494,-0.1524 0.0243,-0.0691 -0.005,-0.10654 -0.0399,-0.0222 m 3.30765,0.17322 c -0.0318,0.078 -0.16546,0.34713 -0.14535,0.66393 0.005,0.0737 0.0536,0.21625 0.16404,0.22013 0.0572,0 0.13053,-0.0416 0.18309,-0.22084 0.009,-0.0406 0.0148,-0.073 0.0183,-0.0889 0.006,-0.0243 -0.012,-0.0533 -0.0307,0.002 -0.042,0.10972 -0.15029,0.18627 -0.23143,0.0395 -0.013,-0.0296 -0.0681,-0.16298 0.0328,-0.45473 0.0201,-0.0568 0.0455,-0.14111 0.0455,-0.14111 0.0226,-0.0635 -0.005,-0.0984 -0.0363,-0.0204 m -6.20643,0.008 -0.16827,0.23071 -0.32314,-0.23565 c -0.008,-0.006 -0.0198,-0.004 -0.0257,0.005 l -0.19509,0.26741 c -0.006,0.008 -0.005,0.0201 0.003,0.0257 l 0.33302,0.24307 c 0.008,0.006 0.0198,0.004 0.0257,-0.005 l 0.16827,-0.23107 0.32279,0.23566 c 0.008,0.006 0.0198,0.004 0.0258,-0.005 l 0.19508,-0.26776 c 0.006,-0.008 0.005,-0.0201 -0.003,-0.0257 l -0.33267,-0.24306 c -0.008,-0.006 -0.0198,-0.004 -0.0258,0.005 m -9.76523,0.19474 c -0.0377,0.0995 -0.20144,0.4452 -0.15135,0.83926 0.0117,0.0907 0.0882,0.26528 0.23919,0.26176 0.0783,-0.005 0.17603,-0.0624 0.23495,-0.28999 0.01,-0.0515 0.0152,-0.0921 0.0194,-0.11218 0.006,-0.0307 -0.0208,-0.0653 -0.042,0.006 -0.0494,0.14006 -0.19226,0.24412 -0.31397,0.0667 -0.0198,-0.0353 -0.10442,-0.19756 0.0127,-0.56903 0.0236,-0.0723 0.0526,-0.17957 0.0526,-0.17957 0.0268,-0.0811 -0.013,-0.12241 -0.0515,-0.0226 m 11.0684,0.22155 c -0.013,0.0451 -0.0455,0.23954 -0.0533,0.27975 -0.008,0.0399 -0.007,0.0794 0.0123,0.11395 0.0198,0.0339 0.0702,0.1524 0.1069,0.24906 0.0367,0.0963 0.41416,0.82374 0.44908,0.88829 0.0349,0.0646 0.0423,0.11289 0.007,0.15558 -1.21285,1.27952 -3.55283,2.06622 -3.62761,2.10996 -0.0748,0.0434 -0.0554,0.0769 0.0705,0.055 0.18874,-0.0332 1.23966,-0.20885 1.53952,-0.35313 0.19791,-0.0952 0.88759,-0.43427 1.45239,-0.87666 -0.0159,0.1143 -0.0303,0.28222 -0.0226,0.4953 0.0385,1.02906 0.95885,0.85831 1.20015,0.8054 0.7239,-0.15911 1.60867,-1.15923 1.68381,-1.35996 0.0741,-0.19897 0.085,-0.37959 0.0681,-0.53764 0.19086,-0.10336 0.60008,-0.43321 0.60008,-0.43321 0.0169,0.43851 0.36583,0.57044 0.47378,0.58949 0.50342,0.0762 0.75565,-0.34431 0.86289,-0.48083 0.0917,0.24024 0.31221,0.28716 0.42545,0.30974 0.43463,0.0864 0.51929,-0.22084 0.54152,-0.29104 0.13652,-0.42369 -0.10936,-0.73943 -0.14076,-0.7747 -0.0314,-0.0346 -0.0476,-10e-4 -0.0586,0.0395 -0.0113,0.0406 -0.0462,0.19332 -0.0684,0.28892 0,0 0.091,0.14782 0.12347,0.22331 0.0325,0.0755 -0.0159,0.11677 -0.10936,0.12806 -0.26423,0.0321 -0.47519,-0.11924 -0.54786,-0.18909 -0.0727,-0.0698 0.006,-0.19332 0.0649,-0.34079 0.0466,-0.11853 -0.0402,-0.13229 -0.10689,-2.6e-4 -0.22402,0.58878 -0.53869,0.65228 -0.6216,0.67486 -0.74612,0.2032 -0.68156,-0.47872 -0.67909,-0.59055 0.003,-0.11218 -0.079,-0.0705 -0.1711,0.003 -0.31397,0.25188 -0.56691,0.40005 -0.70274,0.46073 -0.11712,-0.22896 -0.28751,-0.37254 -0.35912,-0.42475 -0.80716,-0.58843 -0.87383,0.59937 -0.84949,0.72672 0.12276,0.50518 0.94791,0.19932 1.07703,0.18345 0.12947,-0.0148 0.0871,0.15593 0.0148,0.25753 -0.17921,0.24976 -0.38594,0.42933 -0.57291,0.58208 -0.79975,0.65264 -1.20121,0.60113 -1.32469,0.59725 -0.78528,-0.0222 -0.71331,-0.86854 -0.66957,-1.04987 0.23601,-0.19967 0.43921,-0.41768 0.55704,-0.64135 0.0483,-0.12276 0.13123,-0.40181 -0.0187,-0.75176 -0.0783,-0.15381 -0.32632,-0.58597 -0.32632,-0.58597 0,0 0.18274,0.006 0.20003,0.005 0.0173,-2.6e-4 0.0515,-0.0183 0.007,-0.0695 -0.0445,-0.0508 -0.42792,-0.43357 -0.4505,-0.46391 -0.0233,-0.031 -0.0444,-0.0529 -0.0575,-0.007 m 2.42217,1.75225 c 0,0 -0.11007,0.0631 -0.41734,0.0423 -0.25788,-0.0173 -0.23565,-0.11783 -0.20037,-0.15558 0.0385,-0.042 0.35418,-0.24059 0.61771,0.11324 m -3.31682,-1.42487 c -0.0533,0.0663 -0.58949,0.76976 -0.58949,0.76976 l -0.39017,-0.27799 c 0,0 0.1591,-0.0399 0.18697,-0.048 0.0279,-0.008 0.0434,-0.0438 -0.006,-0.0695 -0.0501,-0.0257 -0.51999,-0.21343 -0.55598,-0.22754 -0.036,-0.0148 -0.0487,-0.0307 -0.0519,0.007 -0.003,0.0381 -0.008,0.34749 -0.008,0.34749 0,0 -0.007,0.0219 0.0335,0.0452 0.0413,0.0233 0.0815,0.0734 0.11501,0.1069 0.0339,0.0339 0.47095,0.37888 0.49248,0.39087 0,0 -0.21908,0.38453 -0.2466,0.6851 -0.0279,0.30127 0.005,0.71649 0.41628,0.58243 0.11077,-0.031 0.57185,-0.21484 0.67487,-0.53586 0.0332,-0.11854 0.12805,-0.33232 -0.0261,-0.54893 -0.0892,-0.12735 -0.44908,-0.34255 -0.44908,-0.34255 0,0 0.27657,-0.38205 0.30268,-0.42862 0.0261,-0.0469 0.1277,-0.3429 0.13899,-0.41451 0.0113,-0.0716 0.0169,-0.10725 -0.0367,-0.0413 m -0.0942,1.62278 c -0.15275,0.12559 -0.47378,0.29175 -0.56409,0.30057 -0.0903,0.009 -0.32949,-0.0353 -0.22578,-0.28081 0.036,-0.0794 0.27517,-0.48895 0.27517,-0.48895 0.0896,0.049 0.66746,0.34325 0.5147,0.46919 m -9.89259,-0.44274 c -0.24483,0.1196 -0.48613,0.50377 -0.39335,0.65158 0.079,0.12559 0.2406,0.23742 0.2406,0.23742 -0.078,0.0441 -0.1644,0.0681 -0.18768,0.14958 -0.0226,0.0811 -0.0296,0.13018 -0.031,0.15981 -0.002,0.0293 -0.007,0.0519 0.0395,0.0384 0.0473,-0.0127 0.0691,-0.0215 0.0691,-0.0215 0.13476,-0.0607 0.65087,-0.33161 0.99766,-0.41451 0.0109,-0.002 0.0328,-0.11642 0.0441,-0.17816 0.0109,-0.0624 -0.0533,-0.0564 -0.15416,-0.0335 -0.1009,0.0233 -0.46567,0.13123 -0.66076,-0.0332 -0.16756,-0.14182 -0.18908,-0.20038 -0.12982,-0.23636 0.0589,-0.0356 0.22578,-0.14746 0.33373,-0.0113 0.0579,0.0723 0.10548,0.073 0.12947,0.0247 0.0243,-0.0476 0.10725,-0.17463 0.0825,-0.22578 -0.0251,-0.0512 -0.13441,-0.22648 -0.37994,-0.10724 m 16.12335,1.00471 c -0.0314,0.0861 -0.043,0.14287 -0.0399,0.17568 0.003,0.0332 0.0145,0.1397 0.0145,0.1397 -0.0321,0.0254 -0.16863,0.11077 -0.3055,0.01 0.009,-0.0293 0.0268,-0.0882 0.0307,-0.12136 0.0148,-0.0501 -0.0162,-0.0878 -0.0409,-0.0356 -0.025,0.0526 -0.0832,0.22825 -0.12594,0.26741 -0.0434,0.0395 -0.0938,0.18485 -0.4198,0.0374 -0.0568,-0.0222 -0.15699,-0.096 -0.31256,0.0607 -0.35278,0.32773 -0.5962,0.35313 -0.99131,0.49389 -0.048,0.0219 -0.14852,0.097 -0.0293,0.085 0.11924,-0.012 0.62054,2.6e-4 0.89323,-0.31256 0.0568,-0.0554 0.12242,-0.20179 0.33902,-0.11642 0.11959,0.0452 0.34149,0.23566 0.58314,-0.1404 0.14253,0.0949 0.35878,0.0572 0.3937,-0.048 0.0342,-0.10442 0.0741,-0.20849 0.0737,-0.27975 -2.7e-4,-0.0713 -0.007,-0.16475 -0.007,-0.16475 -0.005,-0.0564 -0.0247,-0.13688 -0.0561,-0.0508 m -15.21954,0.45261 c -0.0699,0.0349 -0.92816,0.31891 -1.00048,0.35948 -0.0723,0.0402 -0.0977,0.0497 -0.11253,0.10301 -0.0141,0.0529 -0.0222,0.0836 -0.0254,0.0921 -0.0148,0.0353 -0.0265,0.0787 0.0801,0.0183 0.0332,-0.0187 0.90487,-0.30869 0.96449,-0.34255 0.0596,-0.0342 0.0949,-0.0462 0.12171,-0.10054 0.0272,-0.0536 0.0335,-0.0635 0.0483,-0.10125 0.0159,-0.0402 0.0318,-0.0833 -0.0762,-0.0286 m 1.72403,0.80891 c -0.0162,0.036 -0.0282,0.0653 -0.0346,0.0797 -0.0102,0.0215 0.001,0.0519 0.0293,0.004 0.0607,-0.0949 0.17745,-0.14605 0.22508,0.008 0.006,0.03 0.0317,0.16581 -0.11959,0.41981 -0.03,0.0494 -0.0706,0.12347 -0.0706,0.12347 -0.0339,0.0554 -0.0152,0.0935 0.0303,0.0265 0.0452,-0.067 0.22296,-0.29351 0.26564,-0.59479 0.0102,-0.0699 -0.008,-0.21343 -0.11042,-0.23847 -0.054,-0.0109 -0.13088,0.0138 -0.21519,0.1718 m 3.60997,-0.12594 c -0.0699,0.0353 -1.12042,0.44591 -1.19239,0.48648 -0.0727,0.0402 -0.0981,0.0501 -0.11253,0.10336 -0.0145,0.0529 -0.0222,0.0836 -0.0257,0.0917 -0.0148,0.0353 -0.0265,0.079 0.0801,0.0187 0.0335,-0.019 1.09714,-0.43533 1.15676,-0.4699 0.0596,-0.0339 0.0949,-0.0459 0.12206,-0.10019 0.0268,-0.054 0.0332,-0.0635 0.048,-0.1016 0.0159,-0.0402 0.0321,-0.0829 -0.0762,-0.0286"
       style="fill:#231f20;fill-opacity:1;fill-rule:evenodd;stroke:none;stroke-width:0.264583"
       id="path1" />
  </g>
</svg>
