<?xml version="1.0" encoding="UTF-8" standalone="no"?>
<!-- Created with Inkscape (http://www.inkscape.org/) -->

<svg
   width="18.022341mm"
   height="6.1496248mm"
   viewBox="0 0 18.022341 6.1496248"
   version="1.1"
   id="svg1"
   xmlns:inkscape="http://www.inkscape.org/namespaces/inkscape"
   xmlns:sodipodi="http://sodipodi.sourceforge.net/DTD/sodipodi-0.dtd"
   xmlns="http://www.w3.org/2000/svg"
   xmlns:svg="http://www.w3.org/2000/svg">
  <sodipodi:namedview
     id="namedview1"
     pagecolor="#ffffff"
     bordercolor="#666666"
     borderopacity="1.0"
     inkscape:showpageshadow="2"
     inkscape:pageopacity="0.0"
     inkscape:pagecheckerboard="0"
     inkscape:deskcolor="#d1d1d1"
     inkscape:document-units="mm" />
  <defs
     id="defs1" />
  <g
     inkscape:label="Layer 1"
     inkscape:groupmode="layer"
     id="layer1"
     transform="translate(-121.72683,-73.900038)">
    <path
       d="m 130.83371,73.940212 c -0.0674,0.04163 -3.09422,1.495425 -3.28789,1.65241 -0.097,0.07867 -0.1778,0.2032 -0.20602,0.338667 -0.0409,0.19544 0.008,0.389115 0.13546,0.409929 0.0889,0.01376 0.1397,0.06562 0.16228,0.0956 0.01,0.0127 0.024,0.0039 0.0286,-0.0053 0.10055,-0.198967 0.01,-0.324909 -0.16263,-0.373944 -0.0688,-0.01976 -0.0991,-0.114654 0.15382,-0.277283 0.23283,-0.14958 3.03459,-1.508832 3.08645,-1.545167 0.0695,-0.04868 0.11183,-0.06738 0.13935,-0.137583 0.0268,-0.0695 0.0339,-0.0822 0.048,-0.13053 0.0152,-0.0515 0.03,-0.106537 -0.0974,-0.02681 m -2.80071,0.02787 c -0.0324,0.07937 -0.16827,0.353131 -0.14746,0.675923 0.005,0.07479 0.054,0.220133 0.16651,0.22366 0.0582,0 0.133,-0.04198 0.18662,-0.224719 0.009,-0.04127 0.0148,-0.07443 0.0187,-0.09066 0.006,-0.02469 -0.0124,-0.05397 -0.0314,0.0028 -0.0423,0.111831 -0.15311,0.190148 -0.23566,0.03986 -0.0134,-0.02963 -0.0691,-0.165454 0.0335,-0.462491 0.0204,-0.05786 0.0466,-0.143582 0.0466,-0.143582 0.0229,-0.06526 -0.005,-0.100541 -0.0374,-0.02082 m 3.97263,0.131587 c -0.0699,0.106186 -0.12206,0.362302 -0.0222,0.434975 0.10019,0.07408 0.24659,0.132996 0.24659,0.132996 -0.46602,0.571148 -0.78493,0.679804 -1.05728,0.839613 -0.0699,0.04092 -0.0561,0.07761 -0.0152,0.06668 0.0215,-0.0056 0.38806,-0.06244 0.81598,-0.387705 0.23177,-0.175683 0.37182,-0.47625 0.37182,-0.47625 0,0 0.11572,0.09666 0.13159,0.116417 0.0349,0.04339 0.0543,0.07585 0.0706,0.02963 0.0614,-0.168627 -0.0251,-0.270933 -0.10725,-0.323143 0,0 0.0854,-0.263173 -0.0716,-0.527402 -0.0265,-0.0441 -0.18204,-0.185563 -0.36301,0.09419 m 0.24377,0.07232 c 0.10477,0.09772 0.0889,0.257881 0.0847,0.294569 0,0 -0.13371,-0.06279 -0.19403,-0.08819 -0.0596,-0.02574 -0.0914,-0.06385 -0.0639,-0.101952 0.0928,-0.130175 0.13828,-0.12559 0.17321,-0.104423 m 6.27874,0.02294 c -0.0702,0.106538 -0.12242,0.362654 -0.0222,0.435679 0.0998,0.07338 0.24624,0.132646 0.24624,0.132646 -0.46566,0.570794 -1.38042,0.976842 -1.59808,1.146527 -0.0649,0.04939 -0.0564,0.07796 -0.0152,0.06738 0.0363,-0.0099 0.73342,-0.204965 1.37019,-0.750713 0.2921,-0.250471 0.28398,-0.268817 0.35807,-0.42051 0.0635,0.0321 0.10724,0.08502 0.13194,0.116064 0.0353,0.04339 0.0543,0.07585 0.0709,0.02963 0.061,-0.168982 -0.0254,-0.270582 -0.10759,-0.323498 0,0 0.0857,-0.263173 -0.0713,-0.52705 -0.0265,-0.0441 -0.18239,-0.185561 -0.36301,0.09384 m 0.24341,0.07267 c 0.10513,0.09772 0.0889,0.257881 0.0847,0.294571 0,0 -0.13406,-0.0628 -0.19367,-0.08855 -0.06,-0.02574 -0.0914,-0.0635 -0.0639,-0.1016 0.0924,-0.130175 0.13794,-0.125235 0.17286,-0.104423 M 136.983,74.102145 c -0.18309,0.232833 -0.19473,0.538692 -0.21872,0.879827 -0.0261,-0.07161 -0.17216,-0.528812 -0.63959,-0.790927 -0.0342,-0.01905 -0.10336,0.01728 -0.10971,0.124883 -0.004,0.06279 -0.0219,0.215194 0.0226,0.258586 0.0441,0.04269 0.17462,0.128058 0.19649,0.139699 0.0222,0.01236 0.0459,0.01376 0.0522,-0.01236 0.007,-0.02646 0.0363,-0.08678 0.0787,-0.04304 0.0356,0.03598 0.26634,0.226131 0.38558,0.63006 0.0212,0.05362 0.0706,0.05891 0.0819,-0.01728 0.0279,-0.186619 0.0427,-0.511175 0.0575,-0.609952 0.0208,-0.137938 0.0868,-0.42263 0.26211,-0.274815 0.0395,0.03352 0.0819,0.07797 0.0819,0.07797 0.0374,0.04692 0.084,0.100541 0.10654,0.04657 0.0346,-0.08185 0.0621,-0.216958 0.0243,-0.289983 -0.0166,-0.03246 -0.23354,-0.307271 -0.38171,-0.11924 m -1.80022,-0.01093 c -0.0674,0.03986 -1.78753,1.032227 -1.85738,1.077383 -0.0695,0.0448 -0.0942,0.05644 -0.10548,0.110067 -0.0113,0.05362 -0.0169,0.08502 -0.0198,0.09384 -0.0127,0.03563 -0.0219,0.08008 0.0808,0.01304 0.0325,-0.02082 1.76212,-1.020588 1.8228,-1.058333 0.0582,-0.03634 0.0917,-0.05186 0.11536,-0.107598 0.0233,-0.05609 0.0289,-0.06597 0.0416,-0.104423 0.0131,-0.04127 0.0265,-0.08502 -0.078,-0.024 m -8.62718,0.09349 c -0.0293,0.10936 -0.10936,0.340432 -0.10936,0.340432 0.1143,0.38876 0.21449,1.314449 0.19332,1.911349 0,0.27305 -0.0332,2.116313 0.48295,2.545644 0.10125,0.08361 0.60678,0.560565 2.14666,0.06279 0.22013,-0.07091 2.11278,-0.866069 2.11278,-0.866069 0,0 0.14958,-0.321027 0.17428,-0.379942 0.0247,-0.05891 0.0219,-0.112183 -0.0621,-0.06844 -0.0843,0.04339 -1.06786,0.523171 -1.21744,0.554214 -0.14922,0.03104 -0.69744,0.06244 -1.02729,-0.40146 -0.0705,-0.09913 -0.18697,-0.292806 -0.20567,-0.432858 -0.0113,-0.08537 0.031,-0.146405 0.0903,-0.1778 0.0593,-0.03105 0.79093,-0.572559 1.65629,-0.3048 0.0952,0.02928 0.14958,0.01834 0.0374,-0.08114 -0.11183,-0.09948 -0.51047,-0.351719 -0.8375,-0.314677 -0.32667,0.03775 -0.84701,0.131233 -1.0989,0.791279 -0.0642,0.167923 -0.11536,0.53834 0.1337,0.856192 0.0716,0.08396 0.41417,0.388762 0.41417,0.388762 -0.19932,0.07126 -1.23226,0.426861 -1.93428,0.09666 -0.21414,-0.100894 -0.57609,-0.336902 -0.61772,-1.373717 -0.0177,-0.452615 0.0169,-2.600325 -0.23072,-3.200752 -0.0339,-0.07585 -0.0713,-0.05468 -0.10089,0.05433 m -1.01282,0.01447 c -0.0321,0.07973 -0.16828,0.353483 -0.14747,0.676275 0.005,0.07479 0.0543,0.219779 0.16652,0.224012 0.0582,0 0.13335,-0.04233 0.18661,-0.225071 0.009,-0.04127 0.0148,-0.07408 0.0187,-0.09031 0.006,-0.02506 -0.0124,-0.05398 -0.0314,0.0021 -0.0423,0.111832 -0.15275,0.190148 -0.23565,0.04057 -0.013,-0.02999 -0.0688,-0.166158 0.0335,-0.462846 0.0204,-0.05785 0.0462,-0.143933 0.0462,-0.143933 0.0233,-0.06456 -0.004,-0.100187 -0.037,-0.02082 m -1.52118,0.07796 c -0.17427,0.221192 -0.1852,0.512588 -0.20813,0.83679 -0.0247,-0.06773 -0.16404,-0.50306 -0.60854,-0.752123 -0.0325,-0.01834 -0.0981,0.01622 -0.10408,0.118533 -0.004,0.05997 -0.0208,0.204965 0.0212,0.24624 0.0402,0.03916 0.34078,0.144992 0.17816,0.317148 -0.073,0.07726 -0.43886,0.457552 -0.51753,0.549275 -0.0787,0.09207 -0.0861,0.108654 -0.002,0.06173 0.0847,-0.04657 0.5715,-0.236008 0.65229,-0.719666 0.007,-0.06315 -0.006,-0.110419 -0.0208,-0.142523 0.007,0.0013 0.0141,0.0056 0.0215,0.01376 0.0339,0.03422 0.25329,0.215548 0.36688,0.599723 0.0198,0.0508 0.067,0.05609 0.078,-0.01659 0.0261,-0.177446 0.0402,-0.486479 0.0543,-0.579967 0.0201,-0.131233 0.0829,-0.40287 0.24976,-0.261408 0.0374,0.03175 0.0776,0.07444 0.0776,0.07444 0.0356,0.04445 0.0797,0.09489 0.1016,0.04374 0.0324,-0.07761 0.0589,-0.206727 0.0229,-0.276225 -0.0159,-0.03069 -0.2219,-0.2921 -0.36301,-0.11289 m 11.49173,1.168755 c -0.0346,0.08467 -0.17885,0.375002 -0.15698,0.71755 0.005,0.07902 0.0578,0.233185 0.17709,0.237418 0.0614,0 0.14111,-0.0448 0.19756,-0.238476 0.01,-0.04375 0.0162,-0.07902 0.0201,-0.09631 0.006,-0.02611 -0.013,-0.05715 -0.0332,0.0028 -0.0451,0.118888 -0.16227,0.20179 -0.25011,0.04233 -0.0141,-0.0314 -0.0734,-0.175684 0.0353,-0.490713 0.0219,-0.06138 0.0494,-0.152048 0.0494,-0.152048 0.0247,-0.06879 -0.005,-0.106539 -0.0392,-0.02257 m -10.43128,0.101246 -0.19509,0.267054 c -0.006,0.0088 -0.005,0.02045 0.004,0.02612 l 0.33302,0.243065 c 0.008,0.0056 0.0194,0.0035 0.0254,-0.0049 l 0.19509,-0.267404 c 0.006,-0.0085 0.005,-0.02011 -0.003,-0.02611 l -0.33266,-0.242359 c -0.008,-0.0063 -0.0198,-0.0039 -0.0261,0.0046 m 13.73858,0.07232 c -0.0321,0.07796 -0.16545,0.346779 -0.14499,0.663927 0.005,0.07303 0.0533,0.2159 0.16333,0.219781 0.0572,0 0.13088,-0.04163 0.18345,-0.22084 0.009,-0.04057 0.0148,-0.07303 0.0187,-0.0889 0.005,-0.02434 -0.0127,-0.05292 -0.031,0.0024 -0.0416,0.110066 -0.15029,0.186621 -0.23142,0.03951 -0.013,-0.02928 -0.0681,-0.162984 0.0328,-0.454732 0.0201,-0.05644 0.0455,-0.140758 0.0455,-0.140758 0.0229,-0.06385 -0.005,-0.09843 -0.0363,-0.02045 m -9.36978,-0.0053 -0.19509,0.267404 c -0.006,0.0085 -0.005,0.02045 0.003,0.02646 l 0.33302,0.242358 c 0.008,0.006 0.0198,0.0039 0.0258,-0.0049 l 0.19508,-0.267055 c 0.006,-0.0088 0.005,-0.02045 -0.003,-0.02646 l -0.33302,-0.242359 c -0.008,-0.0063 -0.0194,-0.0035 -0.0258,0.0046 m 3.16336,0.01341 -0.16828,0.230717 -0.32314,-0.235302 c -0.008,-0.0064 -0.0194,-0.0035 -0.0257,0.0046 l -0.19509,0.267407 c -0.006,0.0085 -0.005,0.02011 0.004,0.02646 l 0.33267,0.242358 c 0.008,0.006 0.0198,0.0039 0.0257,-0.0046 l 0.16828,-0.230717 0.32314,0.235302 c 0.008,0.006 0.0198,0.0039 0.0257,-0.0046 l 0.19508,-0.267407 c 0.006,-0.0088 0.005,-0.02045 -0.004,-0.02646 l -0.33267,-0.242358 c -0.008,-0.0063 -0.0198,-0.0035 -0.0257,0.0046 m -10.19563,0.477663 c -0.0748,0.164745 -0.37289,0.726017 -0.42369,1.424868 -0.0116,0.159457 0.031,0.474486 0.20955,0.513644 -0.13405,0.186973 -0.42827,0.598313 -0.47625,1.188863 -0.0113,0.138642 0.003,0.663927 0.56762,0.765527 0.0879,0.01447 0.44556,0.02646 0.9578,-0.607132 0.0907,-0.111828 0.70908,-0.754943 1.47178,-0.929568 0.20673,-0.04692 0.99025,-0.286102 1.12678,-0.41769 0.44661,-0.431094 0.16686,-1.214612 -0.30234,-1.598787 -0.0818,-0.06703 -0.25646,-0.175332 -0.51082,0.01447 -0.27693,0.207433 -0.43285,0.656873 -0.16686,0.858308 0.13547,0.102658 0.24871,0.115713 0.58455,0.113242 0.13265,0 0.52247,0.05891 0.34749,0.265289 -0.17498,0.206023 -0.77117,0.319265 -0.87842,0.341842 -0.10724,0.02257 -0.96661,0.225425 -1.41499,0.649465 -0.12488,0.118179 -0.74295,0.79375 -0.92357,0.881237 -0.18098,0.08784 -0.5962,0.291396 -0.72602,-0.270933 -0.0229,-0.104775 0.0825,-0.728134 0.49142,-1.299279 2.6e-4,-0.0011 7.9e-4,-0.0019 0.001,-0.0021 0.0706,-0.05891 0.14852,-0.177096 0.22719,-0.396171 0.0261,-0.08714 0.0444,-0.157337 0.055,-0.191204 0.0162,-0.05186 -0.006,-0.11924 -0.0526,-0.0011 -0.10019,0.232127 -0.3041,0.377825 -0.40181,0.03845 -0.0141,-0.06703 -0.0709,-0.370769 0.17744,-0.98919 0.0494,-0.119944 0.11536,-0.299508 0.11536,-0.299508 0.0554,-0.135113 0.0191,-0.216959 -0.0561,-0.05256 m 3.1884,0.936977 c 0,0 -0.16086,-0.02999 -0.29527,-0.0053 -0.35842,0.06632 -0.33232,-0.190852 -0.13088,-0.257882 0.1838,-0.06103 0.38382,0.180271 0.42615,0.263173 m 8.31039,-0.998714 c -0.013,0.04551 -0.0455,0.239889 -0.0536,0.279754 -0.008,0.04022 -0.007,0.08008 0.0127,0.1143 0.0198,0.03422 0.0706,0.152752 0.10724,0.24906 0.0363,0.09631 0.41417,0.824442 0.44909,0.888648 0.0349,0.06456 0.042,0.112536 0.007,0.155221 -1.21285,1.279525 -3.55318,2.066573 -3.62797,2.109965 -0.0744,0.04339 -0.0547,0.07726 0.0713,0.05503 0.18803,-0.03281 1.23931,-0.208844 1.53917,-0.353131 0.19756,-0.09525 0.88794,-0.433917 1.45239,-0.876652 -0.0159,0.1143 -0.0303,0.282223 -0.0222,0.4953 0.0381,1.029406 0.95815,0.85866 1.1998,0.805743 0.72355,-0.159102 1.60867,-1.159227 1.68381,-1.36031 0.0744,-0.19826 0.085,-0.37959 0.0681,-0.537633 0.19085,-0.103365 0.60008,-0.433211 0.60008,-0.433211 0.0169,0.438854 0.36618,0.570794 0.47378,0.589492 0.50341,0.0769 0.75565,-0.344313 0.86289,-0.480483 0.0917,0.240241 0.31221,0.286808 0.42545,0.309385 0.43463,0.08643 0.51929,-0.220485 0.54152,-0.29069 0.13652,-0.423685 -0.10901,-0.739775 -0.14076,-0.774345 -0.0318,-0.03528 -0.0476,-0.0019 -0.0586,0.0388 -0.0109,0.04057 -0.0462,0.193323 -0.0684,0.288925 0,0 0.091,0.147814 0.12347,0.223308 0.0325,0.0755 -0.0159,0.116771 -0.10901,0.128058 -0.26458,0.03246 -0.47519,-0.119237 -0.54786,-0.188735 -0.0727,-0.0702 0.006,-0.193675 0.0646,-0.341135 0.0469,-0.118182 -0.0402,-0.132646 -0.10689,-7.94e-4 -0.22402,0.58914 -0.5387,0.65264 -0.6216,0.675217 -0.74613,0.2032 -0.68157,-0.478719 -0.6791,-0.590198 0.002,-0.112184 -0.079,-0.07091 -0.17109,0.0032 -0.31362,0.251883 -0.56692,0.399698 -0.70274,0.460729 -0.11677,-0.229306 -0.28716,-0.372533 -0.35877,-0.424746 -0.80786,-0.588785 -0.87419,0.599017 -0.84984,0.726723 0.12276,0.504825 0.94756,0.198967 1.07703,0.183798 0.12947,-0.01553 0.0871,0.155221 0.0148,0.256821 -0.17921,0.250121 -0.38594,0.429683 -0.57291,0.582437 -0.79974,0.652286 -1.20121,0.601134 -1.32433,0.596546 -0.78563,-0.02188 -0.71331,-0.868185 -0.66992,-1.04916 0.23636,-0.200025 0.43921,-0.41769 0.55739,-0.641702 0.048,-0.122767 0.13088,-0.401463 -0.0187,-0.751417 -0.0787,-0.154165 -0.32632,-0.586317 -0.32632,-0.586317 0,0 0.18239,0.0056 0.19968,0.0053 0.0173,-2.64e-4 0.0515,-0.01799 0.007,-0.0695 -0.0445,-0.0508 -0.42757,-0.43321 -0.45085,-0.463902 -0.0229,-0.03069 -0.0441,-0.05327 -0.0572,-0.0078 m 2.42217,1.7526 c 0,0 -0.11007,0.06315 -0.41734,0.04269 -0.25788,-0.01765 -0.23566,-0.11783 -0.20038,-0.156282 0.0385,-0.04127 0.35384,-0.239889 0.61772,0.113594 m -12.50174,-1.615721 c -0.0543,0.135819 -0.27693,0.602544 -0.27799,1.167342 0,0.130175 0.0579,0.387702 0.21978,0.403225 0.084,0.0042 0.1965,-0.0628 0.29104,-0.377473 0.0169,-0.07126 0.0286,-0.12841 0.0356,-0.156281 0.0106,-0.04269 -0.013,-0.0949 -0.0459,0.0019 -0.0716,0.19191 -0.23883,0.319264 -0.34396,0.05151 -0.0166,-0.05292 -0.0843,-0.294217 0.0921,-0.803981 0.0353,-0.09948 0.0811,-0.246944 0.0811,-0.246944 0.0395,-0.111479 0.003,-0.175331 -0.0519,-0.03916 m 9.18527,0.191204 c -0.0536,0.06562 -0.58984,0.769762 -0.58984,0.769762 l -0.38982,-0.277989 c 0,0 0.15875,-0.03987 0.18662,-0.04798 0.0279,-0.0085 0.0437,-0.0441 -0.006,-0.06985 -0.0501,-0.02574 -0.52,-0.212725 -0.55598,-0.227542 -0.0356,-0.01447 -0.0487,-0.03069 -0.0519,0.0074 -0.003,0.03845 -0.008,0.347486 -0.008,0.347486 0,0 -0.007,0.02188 0.0339,0.04516 0.0409,0.02328 0.0815,0.07303 0.11501,0.106892 0.0335,0.03316 0.47096,0.378529 0.49212,0.390877 0,0 -0.21872,0.384175 -0.24659,0.685093 -0.0279,0.300921 0.005,0.716492 0.41663,0.582438 0.11077,-0.03175 0.5715,-0.214842 0.67451,-0.536223 0.0335,-0.118182 0.12806,-0.331965 -0.0261,-0.548923 -0.0892,-0.127352 -0.44909,-0.342546 -0.44909,-0.342546 0,0 0.27623,-0.381706 0.30304,-0.428625 0.0261,-0.04657 0.12771,-0.3429 0.13899,-0.414514 0.0109,-0.07126 0.0166,-0.107244 -0.0367,-0.04092 m -0.0945,1.622779 c -0.15275,0.125587 -0.47378,0.291394 -0.56409,0.300212 -0.0903,0.0088 -0.3295,-0.03528 -0.22543,-0.280458 0.0356,-0.07973 0.27482,-0.48895 0.27482,-0.48895 0.0896,0.04904 0.66745,0.343606 0.5147,0.469196 m -4.8648,-1.021998 c -0.0487,0.111831 -0.25083,0.496358 -0.22931,0.954617 0.005,0.106185 0.0723,0.313618 0.23318,0.322085 0.0836,0.0011 0.19192,-0.05644 0.27305,-0.314325 0.0145,-0.05821 0.0236,-0.104775 0.0296,-0.127704 0.009,-0.03493 -0.0166,-0.07691 -0.0452,0.0028 -0.0639,0.15734 -0.22436,0.26529 -0.33902,0.0508 -0.0183,-0.04268 -0.0949,-0.237067 0.06,-0.65546 0.031,-0.08114 0.0705,-0.202142 0.0705,-0.202142 0.0346,-0.09172 -0.004,-0.142523 -0.0529,-0.03069 m 11.09556,1.583973 c -0.031,0.08608 -0.043,0.142875 -0.0402,0.175683 0.004,0.03281 0.0148,0.139345 0.0148,0.139345 -0.0321,0.02574 -0.16863,0.110774 -0.3055,0.01024 0.009,-0.02928 0.0268,-0.0889 0.031,-0.121357 0.0145,-0.0508 -0.0166,-0.08819 -0.0413,-0.03563 -0.025,0.05221 -0.0832,0.227893 -0.12594,0.267403 -0.043,0.03951 -0.0938,0.184857 -0.4198,0.03704 -0.0568,-0.02151 -0.15699,-0.09595 -0.31256,0.06068 -0.35278,0.327728 -0.5962,0.353483 -0.99131,0.493887 -0.048,0.02188 -0.14852,0.09737 -0.0289,0.08537 0.11924,-0.01164 0.61983,2.64e-4 0.89253,-0.312915 0.0572,-0.05503 0.12277,-0.201435 0.33937,-0.116769 0.11995,0.04586 0.34149,0.235657 0.58314,-0.140051 0.14253,0.0949 0.35913,0.0568 0.39335,-0.04762 0.0349,-0.104775 0.0744,-0.208847 0.0741,-0.279755 -8e-4,-0.07126 -0.006,-0.1651 -0.006,-0.1651 -0.005,-0.05644 -0.0251,-0.136877 -0.0565,-0.05044 m -12.64708,0.02822 c -0.0699,0.03528 -1.14618,0.455438 -1.2185,0.495655 -0.0723,0.04057 -0.0974,0.05009 -0.11218,0.103362 -0.0145,0.05292 -0.0222,0.08361 -0.0257,0.09207 -0.0148,0.03493 -0.0265,0.07832 0.0801,0.01833 0.0335,-0.01871 1.12289,-0.445206 1.18286,-0.479425 0.0593,-0.03387 0.0949,-0.04586 0.12171,-0.09984 0.0268,-0.05433 0.0332,-0.0635 0.0483,-0.1016 0.0159,-0.04022 0.0318,-0.08325 -0.0765,-0.02858 m 3.6389,0.631825 c -0.0265,0.03598 -0.0459,0.06562 -0.0568,0.07937 -0.0162,0.02151 -0.0109,0.05786 0.0314,0.0113 0.0889,-0.09031 0.22931,-0.119592 0.24588,0.06138 2.7e-4,0.03457 -0.004,0.189794 -0.2293,0.434624 -0.0444,0.04692 -0.10654,0.119237 -0.10654,0.119237 -0.0501,0.05327 -0.0385,0.09948 0.0272,0.03634 0.0653,-0.0635 0.31397,-0.270934 0.43144,-0.593374 0.0268,-0.07443 0.0409,-0.23636 -0.0663,-0.287514 -0.0568,-0.02506 -0.14746,-0.01622 -0.27693,0.138641 m -5.5753,-0.02082 c -0.0646,0.02117 -0.68545,0.236712 -0.75742,0.265287 -0.067,0.02681 -0.085,0.04375 -0.0977,0.08996 -0.0124,0.04621 -0.019,0.07303 -0.0222,0.08008 -0.013,0.03034 -0.0289,0.0568 0.0695,0.01622 0.048,-0.01976 0.65828,-0.221543 0.72637,-0.251176 0.0547,-0.02434 0.0825,-0.04022 0.10583,-0.08749 0.0233,-0.04657 0.0293,-0.05503 0.042,-0.08819 0.0138,-0.03457 0.0303,-0.05609 -0.0663,-0.02469 m 0,0.381703 c -0.0646,0.02151 -0.68545,0.237067 -0.75742,0.265642 -0.067,0.02681 -0.085,0.04375 -0.0977,0.08996 -0.0124,0.04586 -0.019,0.07267 -0.0222,0.08008 -0.013,0.03069 -0.0289,0.05644 0.0695,0.01588 0.048,-0.01977 0.65828,-0.221544 0.72637,-0.250825 0.0547,-0.024 0.0825,-0.03986 0.10583,-0.08714 0.0233,-0.04727 0.0293,-0.05539 0.042,-0.08855 0.0138,-0.03493 0.0303,-0.05609 -0.0663,-0.02506"
       style="fill:#231f20;fill-opacity:1;fill-rule:evenodd;stroke:none;stroke-width:0.264583"
       id="path1-8" />
  </g>
</svg>
