<?xml version="1.0" encoding="UTF-8" standalone="no"?>
<!-- Created with Inkscape (http://www.inkscape.org/) -->

<svg
   width="19.636229mm"
   height="6.5343032mm"
   viewBox="0 0 19.636229 6.5343032"
   version="1.1"
   id="svg1"
   xmlns:inkscape="http://www.inkscape.org/namespaces/inkscape"
   xmlns:sodipodi="http://sodipodi.sourceforge.net/DTD/sodipodi-0.dtd"
   xmlns="http://www.w3.org/2000/svg"
   xmlns:svg="http://www.w3.org/2000/svg">
  <sodipodi:namedview
     id="namedview1"
     pagecolor="#ffffff"
     bordercolor="#666666"
     borderopacity="1.0"
     inkscape:showpageshadow="2"
     inkscape:pageopacity="0.0"
     inkscape:pagecheckerboard="0"
     inkscape:deskcolor="#d1d1d1"
     inkscape:document-units="mm" />
  <defs
     id="defs1" />
  <g
     inkscape:label="Layer 1"
     inkscape:groupmode="layer"
     id="layer1"
     transform="translate(-121.97808,-47.597136)">
    <path
       d="m 127.67758,47.625071 c -0.0632,0.0314 -2.40877,0.926746 -2.59327,1.048454 -0.0928,0.06138 -0.17498,0.164396 -0.21167,0.281517 -0.0529,0.169687 -0.0265,0.345016 0.0843,0.373946 0.0776,0.02045 0.11818,0.07055 0.13546,0.09878 0.007,0.01198 0.0208,0.0056 0.0254,-0.0019 0.10654,-0.167921 0.0367,-0.286454 -0.11147,-0.345017 -0.0589,-0.02328 -0.0776,-0.109712 0.16016,-0.231421 0.21907,-0.112537 2.35726,-0.943681 2.40594,-0.971198 0.066,-0.03704 0.10513,-0.05009 0.13512,-0.109714 0.03,-0.05891 0.0374,-0.06985 0.0536,-0.111125 0.018,-0.04445 0.0363,-0.09172 -0.0836,-0.03245 m 6.19301,0.36971 c -0.0702,0.106185 -0.12241,0.362656 -0.0226,0.435327 0.10055,0.07338 0.2466,0.132646 0.2466,0.132646 -0.46567,0.570794 -0.78494,0.679802 -1.05693,0.839258 -0.0702,0.04127 -0.0561,0.07832 -0.0152,0.06703 0.0215,-0.0056 0.3877,-0.06279 0.81598,-0.387702 0.23142,-0.175683 0.37147,-0.47625 0.37147,-0.47625 0,0 0.11571,0.09666 0.13159,0.116417 0.0353,0.04339 0.0543,0.07585 0.0705,0.02963 0.0614,-0.168981 -0.0247,-0.270581 -0.10724,-0.323146 0,0 0.0857,-0.263525 -0.0716,-0.527402 -0.0265,-0.0441 -0.18169,-0.18556 -0.36266,0.09419 m 0.24342,0.07267 c 0.10512,0.09737 0.0889,0.257527 0.085,0.294217 0,0 -0.13405,-0.0628 -0.19437,-0.08855 -0.0596,-0.02574 -0.091,-0.0635 -0.0635,-0.1016 0.0924,-0.129823 0.13793,-0.12559 0.17286,-0.104069 m 6.27874,0.02294 c -0.0702,0.106188 -0.12207,0.362657 -0.0219,0.43533 0.0998,0.07373 0.24624,0.132644 0.24624,0.132644 -0.46602,0.571148 -1.38077,0.976841 -1.59843,1.146881 -0.0649,0.04904 -0.0564,0.07761 -0.0152,0.06668 0.0363,-0.0095 0.73342,-0.204613 1.37019,-0.750358 0.29245,-0.250122 0.28433,-0.269172 0.35842,-0.420865 0.0635,0.03246 0.10689,0.08537 0.13158,0.116417 0.0353,0.04339 0.0543,0.07585 0.0709,0.02963 0.061,-0.168982 -0.0254,-0.270582 -0.1076,-0.323144 0,0 0.0857,-0.263525 -0.0713,-0.527404 -0.0265,-0.0441 -0.18238,-0.18556 -0.363,0.09419 m 0.24376,0.07232 c 0.10443,0.09772 0.0889,0.257878 0.0847,0.294568 0,0 -0.13406,-0.06279 -0.19438,-0.08855 -0.0596,-0.02574 -0.0914,-0.0635 -0.0635,-0.1016 0.0924,-0.12982 0.13794,-0.125235 0.17321,-0.10442 m -1.78858,-0.165455 c -0.18309,0.232833 -0.19508,0.538692 -0.21943,0.87983 -0.0257,-0.07126 -0.1718,-0.528815 -0.63923,-0.790575 -0.0342,-0.01905 -0.10301,0.01693 -0.10971,0.124528 -0.004,0.0628 -0.0215,0.215197 0.0229,0.258588 0.0441,0.04304 0.17428,0.127704 0.19615,0.1397 0.0222,0.01199 0.0459,0.01376 0.0522,-0.0127 0.007,-0.02611 0.0363,-0.08643 0.0787,-0.04304 0.036,0.03598 0.26599,0.226483 0.38594,0.630414 0.0208,0.05362 0.0702,0.05891 0.0815,-0.01728 0.0279,-0.186619 0.043,-0.511175 0.0575,-0.6096 0.0208,-0.138287 0.0871,-0.423333 0.26247,-0.275167 0.0395,0.03352 0.0815,0.07796 0.0815,0.07796 0.0374,0.04692 0.084,0.100542 0.10689,0.04622 0.0342,-0.08149 0.0621,-0.216958 0.024,-0.289983 -0.0166,-0.03211 -0.23354,-0.306917 -0.38135,-0.118888 m -1.80058,-0.01093 c -0.0674,0.03951 -1.78752,1.032227 -1.85702,1.077032 -0.0699,0.0448 -0.0945,0.0568 -0.10583,0.110418 -0.0109,0.05362 -0.0169,0.08502 -0.0194,0.09349 -0.0127,0.03598 -0.0215,0.08043 0.0808,0.01341 0.0321,-0.02082 1.76212,-1.020585 1.82245,-1.058685 0.0586,-0.03598 0.0917,-0.05151 0.11536,-0.107246 0.0233,-0.05574 0.0293,-0.06597 0.0416,-0.104775 0.0134,-0.04092 0.0268,-0.08502 -0.078,-0.02363 m -13.15685,0.0695 c -0.17392,0.221192 -0.18521,0.512586 -0.20849,0.836788 -0.0243,-0.06809 -0.16369,-0.503061 -0.60819,-0.752121 -0.0324,-0.01834 -0.0981,0.01622 -0.10442,0.118533 -0.004,0.05962 -0.0204,0.204611 0.0215,0.245886 0.042,0.04092 0.16616,0.121708 0.18697,0.132998 0.0212,0.01164 0.0434,0.01304 0.0494,-0.01164 0.006,-0.02506 0.0349,-0.08255 0.0751,-0.04128 0.0339,0.03422 0.25329,0.215546 0.36688,0.599721 0.0198,0.0508 0.067,0.05574 0.078,-0.01622 0.0261,-0.1778 0.0402,-0.486834 0.0543,-0.579967 0.0201,-0.13194 0.0829,-0.402873 0.24942,-0.26176 0.0381,0.03175 0.078,0.07408 0.078,0.07408 0.0356,0.04445 0.0801,0.09525 0.1016,0.04374 0.0325,-0.07761 0.0589,-0.206024 0.0233,-0.275519 -0.0159,-0.0314 -0.22261,-0.292455 -0.36337,-0.113242 m 8.19503,0.19685 c -0.0748,0.0956 -0.14323,0.334434 -0.054,0.410986 0.0892,0.07726 0.22331,0.144285 0.22331,0.144285 -0.48472,0.506238 -1.14089,0.965554 -1.41112,1.096081 -0.0695,0.03387 -0.0593,0.06985 -0.0194,0.06244 0.0205,-0.0035 0.37183,-0.102307 0.80504,-0.372885 0.36512,-0.227897 0.73201,-0.7366 0.73201,-0.7366 0,0 0.10231,0.100541 0.11571,0.120295 0.03,0.04375 0.0459,0.07585 0.0649,0.03352 0.0705,-0.155223 -0.003,-0.258585 -0.0773,-0.314677 0,0 0.10089,-0.243065 -0.0282,-0.505531 -0.0215,-0.04374 -0.15839,-0.189442 -0.35101,0.06209 m 0.22543,0.08714 c 0.0921,0.100541 0.0649,0.251176 0.0582,0.28575 0,0 -0.12241,-0.0695 -0.17744,-0.09878 -0.0543,-0.02893 -0.0815,-0.06703 -0.0526,-0.101248 0.0977,-0.116417 0.14041,-0.108302 0.17181,-0.08572 m -3.14184,-0.07056 c -0.18239,0.214138 -0.20497,0.504825 -0.24024,0.828323 -0.0222,-0.06914 -0.14429,-0.509058 -0.57926,-0.775758 -0.0314,-0.01905 -0.0984,0.01304 -0.10866,0.115006 -0.006,0.05962 -0.0286,0.203552 0.012,0.246237 0.0388,0.04128 0.33514,0.158399 0.16546,0.324557 -0.0759,0.07408 -0.45579,0.439915 -0.53799,0.528815 -0.0825,0.08855 -0.0903,0.105127 -0.004,0.06173 0.0861,-0.04374 0.58032,-0.214135 0.6791,-0.694267 0.009,-0.06279 -0.002,-0.111125 -0.0152,-0.143227 0.007,0.0019 0.0138,0.0064 0.0212,0.01447 0.0325,0.03598 0.24448,0.225073 0.34325,0.613481 0.0177,0.05186 0.0646,0.05856 0.0783,-0.01341 0.0335,-0.176387 0.0593,-0.484362 0.0769,-0.577143 0.025,-0.130882 0.0984,-0.399344 0.25929,-0.252236 0.0367,0.03351 0.0751,0.07726 0.0751,0.07726 0.0339,0.04586 0.0762,0.09843 0.0998,0.04798 0.0353,-0.07655 0.0667,-0.203907 0.0339,-0.275167 -0.0148,-0.0314 -0.21096,-0.300215 -0.35877,-0.126648 m 1.41393,-0.0042 c -0.0339,0.08326 -0.17639,0.370417 -0.15452,0.708732 0.005,0.07796 0.0568,0.230365 0.17463,0.234243 0.0607,0 0.13935,-0.04409 0.19508,-0.235653 0.01,-0.04304 0.0159,-0.07761 0.0201,-0.09455 0.006,-0.02611 -0.0134,-0.0568 -0.0332,0.0024 -0.0444,0.11712 -0.16016,0.198966 -0.24659,0.04198 -0.0141,-0.03104 -0.073,-0.173566 0.0346,-0.484716 0.0219,-0.06068 0.049,-0.150635 0.049,-0.150635 0.024,-0.06809 -0.005,-0.105127 -0.0392,-0.02188 m -3.91089,0.201083 c -0.0314,0.06738 -0.11572,0.15734 -0.0903,0.373946 0.0251,0.216252 0.19403,1.651704 0.21061,1.769179 0.0169,0.117829 0.15699,1.35255 0.1263,1.666171 -0.0131,0.132644 -0.12101,0.421569 -0.63606,0.436385 -0.0829,-0.0013 -0.40499,-0.0095 -0.43251,-0.30621 0,-0.0448 0.0145,-0.210608 0.0198,-0.256471 0.005,-0.04586 0.006,-0.09842 -0.0766,-0.05644 -0.0825,0.04198 -1.02834,0.626886 -2.08703,0.811742 -0.17639,0.02506 -1.37336,0.179565 -1.5374,-0.710142 -0.024,-0.132643 -0.0127,-0.428273 0.14922,-0.696735 0.0279,0.01447 0.0579,0.02294 0.091,0.02222 0.097,-0.0056 0.21766,-0.09384 0.28681,-0.449792 0.0109,-0.08043 0.0169,-0.144639 0.0219,-0.176037 0.007,-0.04763 -0.0268,-0.102659 -0.0522,0.0078 -0.0589,0.219075 -0.2346,0.379941 -0.38912,0.09948 -0.0257,-0.05574 -0.1337,-0.311856 0.005,-0.892529 0.0282,-0.112887 0.0624,-0.280104 0.0624,-0.280104 0.0314,-0.127 -0.0183,-0.192617 -0.0646,-0.03704 -0.0455,0.155927 -0.24235,0.695325 -0.17286,1.313744 0.0109,0.09701 0.06,0.254706 0.14923,0.345016 -0.004,0.0053 -0.007,0.01058 -0.0109,0.01728 -0.0882,0.151341 -0.57891,1.012473 0.0455,1.597379 0.19579,0.183444 1.07597,0.561975 2.41194,-0.06844 0.18027,-0.08396 0.91299,-0.448381 0.96556,-0.482951 0,0 0.0349,0.599016 0.52916,0.590195 0.75812,-0.01304 0.81421,-0.629354 0.81421,-0.629354 0.0279,0.06738 0.15664,0.714021 0.81492,0.733777 0.10936,0 0.4759,0.01976 0.82585,-0.565856 0,0 0.0699,0.293864 0.41169,0.466725 -0.0374,0.08714 -0.0871,0.172508 -0.1083,0.229306 -0.0226,0.06032 0.0169,0.103365 0.0582,0.04516 0.0314,-0.04445 0.12947,-0.166513 0.17427,-0.221547 0.084,0.02893 0.18062,0.05116 0.2914,0.06244 0.11289,0.01765 1.02411,0.09842 2.20874,-0.19826 0.22119,-0.05327 1.09925,-0.278342 1.43933,-0.605015 0.0575,-0.05468 0.23848,-0.285044 0.10372,-0.784225 -0.25189,-0.932037 -0.8382,-0.761645 -0.98849,-0.632883 -0.11994,0.103013 -0.49036,0.613481 -0.19332,0.848783 0.17921,0.153813 0.64135,0.140055 0.71684,0.137231 0.0787,-0.0028 0.2032,0.0013 0.26035,0.06703 0.0568,0.06526 0.0953,0.09243 0.042,0.125942 -0.0529,0.03351 -1.16205,0.539398 -1.5681,0.5715 0.0505,-0.06985 0.42016,-0.512585 0.26035,-0.851252 -0.3108,-0.67804 -1.04175,-0.532342 -1.17334,-0.498827 -0.13158,0.03351 -0.7366,0.26035 -1.33032,1.358546 0,0 -0.38524,-0.09807 -0.44874,-0.499886 0.0504,-0.116768 -0.001,-0.181326 -0.0737,-0.09384 -0.0607,0.07338 -0.40075,0.739071 -0.95744,0.672041 -0.0861,-0.01058 -0.42015,-0.09031 -0.5588,-0.624062 -0.061,-0.243416 -0.17039,-1.3589 -0.17039,-1.3589 0,0 -0.20249,-1.94945 -0.31291,-2.366788 -0.0194,-0.07549 -0.0314,-0.09243 -0.0628,-0.0254 m 6.18349,3.11503 c 0,0 -0.254,0.01659 -0.57961,-0.0695 -0.18486,-0.06279 -0.0504,-0.165807 0.0543,-0.197557 0.10512,-0.0314 0.35101,-0.02294 0.52528,0.267055 m -2.07962,0.159454 c 0.68791,0.06985 0.83149,0.527756 0.79869,0.565856 -0.76059,0.69709 -2.1135,0.529519 -2.159,0.511882 0,0 0.68191,-1.146882 1.36031,-1.077738 m 6.60188,-2.399242 c -0.0346,0.08396 -0.17886,0.37465 -0.15663,0.717198 0.005,0.07902 0.0575,0.233185 0.17639,0.237419 0.0621,-2.65e-4 0.14181,-0.04515 0.1979,-0.238477 0.01,-0.0441 0.0162,-0.07902 0.0201,-0.09631 0.006,-0.02611 -0.013,-0.05715 -0.0332,0.0028 -0.0452,0.118885 -0.16228,0.201435 -0.25012,0.04268 -0.0138,-0.03175 -0.0734,-0.176035 0.0353,-0.491067 0.0219,-0.06103 0.0497,-0.152048 0.0497,-0.152048 0.0243,-0.06914 -0.005,-0.106537 -0.0395,-0.02223 m 3.30729,0.172863 c -0.0318,0.07796 -0.16545,0.347133 -0.14534,0.664279 0.005,0.07338 0.0533,0.2159 0.16404,0.219781 0.0568,-2.65e-4 0.13088,-0.04163 0.18344,-0.22084 0.008,-0.04057 0.0145,-0.07303 0.018,-0.0889 0.006,-0.02434 -0.012,-0.05327 -0.0307,0.0028 -0.0416,0.109715 -0.15028,0.186267 -0.23142,0.03881 -0.013,-0.02893 -0.0677,-0.162632 0.0328,-0.45438 0.0201,-0.05644 0.0459,-0.140758 0.0459,-0.140758 0.0226,-0.06385 -0.005,-0.09878 -0.0367,-0.02082 m -6.20642,0.0085 -0.16863,0.231068 -0.32279,-0.235656 c -0.008,-0.006 -0.0194,-0.0039 -0.0257,0.0046 l -0.19474,0.267759 c -0.006,0.0081 -0.005,0.02011 0.003,0.02574 l 0.33267,0.24271 c 0.008,0.0056 0.0198,0.0035 0.0257,-0.0049 l 0.16828,-0.230717 0.32314,0.235654 c 0.008,0.0056 0.0198,0.0035 0.0257,-0.0049 l 0.19509,-0.267407 c 0.006,-0.0081 0.005,-0.02011 -0.003,-0.02574 L 134.5046,49.5179 c -0.008,-0.006 -0.0198,-0.0039 -0.0257,0.0046 m -10.85603,0.276225 c -0.11465,0.125235 -0.15029,0.210608 -0.18415,0.264228 -0.0473,0.07373 0.012,0.10654 0.0653,0.04939 0.0533,-0.05715 0.09,-0.115006 0.24554,-0.110418 0.15592,0.0039 0.52846,-0.01058 0.38911,0.09172 -0.13935,0.102658 -0.23319,0.161925 -0.23319,0.161925 -0.0907,0.06456 -0.17003,0.186267 -0.0102,0.118888 0.15981,-0.06773 0.37042,-0.174273 0.53235,-0.41769 0.0469,-0.07091 0.1023,-0.165806 -0.11713,-0.198615 -0.21872,-0.03281 -0.57326,-0.08396 -0.68756,0.04057 m 2.13395,0.291745 c -0.0349,0.09948 -0.18662,0.444855 -0.13829,0.838555 0.0113,0.09102 0.0836,0.265641 0.22472,0.262466 0.073,-0.0046 0.16404,-0.06138 0.21837,-0.288925 0.008,-0.05115 0.0138,-0.09208 0.0173,-0.112183 0.006,-0.03069 -0.0194,-0.06526 -0.0392,0.0053 -0.0455,0.140403 -0.17851,0.243768 -0.29245,0.06597 -0.0191,-0.03563 -0.0988,-0.197908 0.009,-0.569031 0.0219,-0.07197 0.049,-0.179211 0.049,-0.179211 0.024,-0.08114 -0.013,-0.122766 -0.0487,-0.02294 m -1.50918,1.18604 -0.16827,0.230716 -0.32315,-0.235301 c -0.008,-0.006 -0.0194,-0.0039 -0.0257,0.0046 l -0.19509,0.267406 c -0.006,0.0088 -0.005,0.02011 0.004,0.02611 l 0.33267,0.242713 c 0.008,0.0056 0.0198,0.0035 0.0261,-0.0049 l 0.16828,-0.230717 0.32279,0.235657 c 0.008,0.0056 0.0198,0.0035 0.0257,-0.0049 l 0.19509,-0.267407 c 0.006,-0.0081 0.005,-0.02011 -0.003,-0.02574 l -0.33303,-0.242711 c -0.008,-0.006 -0.0194,-0.0039 -0.0257,0.0046 m 11.53442,-1.338086 c -0.0127,0.04515 -0.0455,0.240242 -0.0533,0.279752 -0.008,0.04022 -0.007,0.08008 0.0124,0.1143 0.0198,0.03422 0.0705,0.152752 0.10724,0.24906 0.0363,0.09631 0.41416,0.82409 0.44909,0.888649 0.0349,0.06456 0.042,0.112535 0.007,0.155223 -1.21285,1.279525 -3.55318,2.06657 -3.62761,2.109962 -0.0748,0.04339 -0.055,0.07726 0.0709,0.05503 0.18838,-0.03316 1.2393,-0.208492 1.53952,-0.353129 0.19755,-0.09525 0.88759,-0.434271 1.45238,-0.876654 -0.0162,0.1143 -0.0303,0.282223 -0.0226,0.495654 0.0381,1.0287 0.95849,0.857954 1.20015,0.805037 0.72319,-0.15875 1.60866,-1.159226 1.6838,-1.359958 0.0737,-0.198612 0.085,-0.379942 0.0681,-0.537633 0.19015,-0.103362 0.59972,-0.43321 0.59972,-0.43321 0.0169,0.438856 0.36619,0.570793 0.47378,0.589843 0.50342,0.0762 0.75565,-0.344662 0.86325,-0.481187 0.091,0.240242 0.31186,0.28716 0.42545,0.310092 0.43427,0.08608 0.51893,-0.221192 0.54151,-0.291397 0.13653,-0.423333 -0.10936,-0.73942 -0.14111,-0.774345 -0.0314,-0.03493 -0.0473,-0.0013 -0.0586,0.03916 -0.0113,0.04057 -0.0459,0.193321 -0.0681,0.288925 0,0 0.0907,0.147812 0.12347,0.223309 0.0321,0.07549 -0.0162,0.116768 -0.10936,0.128058 -0.26424,0.03245 -0.47555,-0.11924 -0.54787,-0.18909 -0.0727,-0.0695 0.006,-0.193323 0.0649,-0.340783 0.0469,-0.118182 -0.0402,-0.132644 -0.10724,-2.65e-4 -0.22401,0.588786 -0.53869,0.652286 -0.62124,0.674862 -0.74648,0.2032 -0.68227,-0.478718 -0.6791,-0.59055 0.002,-0.111828 -0.0794,-0.07055 -0.1711,0.0035 -0.31397,0.251529 -0.56691,0.399696 -0.70308,0.460375 -0.11713,-0.228954 -0.28717,-0.372533 -0.35878,-0.424391 -0.80751,-0.588788 -0.87418,0.599016 -0.84984,0.72672 0.12312,0.50518 0.94791,0.198967 1.07738,0.183446 0.12947,-0.01516 0.0868,0.155575 0.0145,0.257175 -0.17921,0.250119 -0.38594,0.429684 -0.57291,0.582436 -0.7994,0.652639 -1.20121,0.601133 -1.32468,0.596548 -0.78529,-0.02188 -0.71297,-0.868188 -0.66958,-1.049163 0.23637,-0.200025 0.43921,-0.417687 0.55739,-0.641702 0.0483,-0.122767 0.13053,-0.401815 -0.0187,-0.751769 -0.0787,-0.153812 -0.32633,-0.585964 -0.32633,-0.585964 0,0 0.18239,0.0056 0.19968,0.0053 0.0177,-2.64e-4 0.0519,-0.01834 0.007,-0.0695 -0.0445,-0.05115 -0.42757,-0.43321 -0.4505,-0.464254 -0.0229,-0.03034 -0.0445,-0.05256 -0.0575,-0.0074 m 2.42252,1.7526 c 0,0 -0.11007,0.06315 -0.41769,0.04233 -0.25788,-0.01728 -0.23565,-0.117475 -0.20038,-0.155929 0.0385,-0.04127 0.35419,-0.239887 0.61807,0.113596 m -8.09731,-1.665817 c -0.0254,0.07937 -0.0448,0.140759 -0.01,0.231421 0.0342,0.09102 0.12771,0.296688 0.14288,0.325967 0.0152,0.02963 0.0194,0.06244 -0.0318,0.08431 -0.0512,0.02188 -0.2854,0.07161 -0.32879,-0.177448 -0.0434,-0.249412 -0.0469,-0.322085 -0.0688,-0.364418 -0.0215,-0.04198 -0.0423,-0.04727 -0.0589,-0.0049 -0.0166,0.04198 -0.0268,0.129117 -0.0293,0.142875 -0.003,0.0141 -0.003,0.02434 0.006,0.03986 0.009,0.01516 0.10231,0.293864 0.0603,0.370416 -0.0427,0.07691 -0.25224,0.214842 -0.36195,0.07056 -0.0526,-0.100896 -0.0205,-0.357013 -0.0205,-0.416984 0,-0.05997 -0.0194,-0.08043 -0.0448,-0.03175 -0.0257,0.04868 -0.0395,0.08043 -0.0381,0.124177 0.001,0.04304 0.007,0.230011 0.004,0.288573 -0.004,0.05891 0,0.249413 0.11254,0.303036 0.11253,0.05362 0.27587,0.0039 0.40005,-0.230011 0.096,0.139346 0.24165,0.1397 0.31961,0.111125 0.0663,-0.02434 0.14041,-0.124179 0.16228,-0.262114 0.0215,-0.137936 -0.0141,-0.232482 -0.0575,-0.310444 -0.0575,-0.09596 -0.0956,-0.257175 -0.0956,-0.257175 -0.0205,-0.0575 -0.036,-0.116417 -0.0617,-0.03704 m 2.09374,-0.0039 -0.19509,0.267407 c -0.006,0.0085 -0.005,0.02011 0.003,0.02574 l 0.33303,0.24271 c 0.008,0.006 0.0198,0.0042 0.0257,-0.0042 l 0.19509,-0.267758 c 0.006,-0.0085 0.005,-0.02011 -0.003,-0.02611 l -0.33302,-0.242713 c -0.008,-0.0056 -0.0194,-0.0035 -0.0257,0.0049 m 2.68675,0.245181 c -0.0533,0.06597 -0.58949,0.76976 -0.58949,0.76976 l -0.39017,-0.27799 c 0,0 0.15875,-0.03986 0.18662,-0.04833 0.0279,-0.0078 0.0437,-0.04375 -0.006,-0.0695 -0.0497,-0.02574 -0.52035,-0.213077 -0.55598,-0.227542 -0.0356,-0.01447 -0.0487,-0.03069 -0.0515,0.0074 -0.004,0.0381 -0.009,0.347485 -0.009,0.347485 0,0 -0.007,0.02188 0.0339,0.04516 0.0409,0.02294 0.0815,0.07303 0.11501,0.10654 0.0335,0.03351 0.47095,0.378883 0.49212,0.391228 0,0 -0.21872,0.384175 -0.24659,0.685097 -0.0279,0.300918 0.005,0.716491 0.41663,0.582435 0.11077,-0.03175 0.5715,-0.214842 0.67451,-0.536223 0.0335,-0.118179 0.12806,-0.331962 -0.0261,-0.548921 -0.0889,-0.127354 -0.44909,-0.342548 -0.44909,-0.342548 0,0 0.27623,-0.382058 0.30268,-0.428625 0.0265,-0.04657 0.12806,-0.3429 0.139,-0.414515 0.0113,-0.07161 0.0169,-0.107243 -0.0363,-0.04092 m -0.0942,1.622425 c -0.15311,0.125942 -0.47413,0.2921 -0.56444,0.300567 -0.09,0.0088 -0.3295,-0.03528 -0.22543,-0.280459 0.0356,-0.07973 0.27517,-0.48895 0.27517,-0.48895 0.0892,0.04904 0.66745,0.343252 0.5147,0.468842 m -6.70419,-1.395942 c -0.0385,0.09984 -0.20214,0.445559 -0.15204,0.839259 0.012,0.09102 0.0885,0.265287 0.23989,0.261408 0.078,-0.0046 0.17568,-0.06174 0.23495,-0.28928 0.01,-0.0515 0.0148,-0.09243 0.0187,-0.112535 0.006,-0.03069 -0.0205,-0.06527 -0.0416,0.0056 -0.0494,0.140054 -0.19226,0.244123 -0.31397,0.06668 -0.0201,-0.03528 -0.10442,-0.197554 0.0127,-0.569029 0.0236,-0.07232 0.0529,-0.179213 0.0529,-0.179213 0.0261,-0.08149 -0.0134,-0.122767 -0.0515,-0.02294 m 12.9346,1.957916 c -0.0314,0.08643 -0.0434,0.143227 -0.0399,0.175684 0.004,0.03316 0.0145,0.1397 0.0145,0.1397 -0.0321,0.02574 -0.16898,0.11077 -0.30515,0.01024 0.009,-0.02928 0.0268,-0.0889 0.0307,-0.121354 0.0148,-0.05045 -0.0162,-0.0882 -0.0416,-0.03598 -0.0243,0.05256 -0.0825,0.228245 -0.12559,0.267758 -0.043,0.03951 -0.0938,0.184502 -0.4191,0.03704 -0.0575,-0.02188 -0.15769,-0.09631 -0.31291,0.06068 -0.35278,0.327377 -0.5962,0.353131 -0.99131,0.49389 -0.048,0.02188 -0.14852,0.09701 -0.0296,0.08537 0.11959,-0.01199 0.62053,2.65e-4 0.89288,-0.312912 0.0575,-0.05539 0.12276,-0.201438 0.33937,-0.116771 0.11994,0.04551 0.34149,0.235656 0.58349,-0.140052 0.14253,0.0949 0.35878,0.0568 0.39335,-0.04798 0.0349,-0.104423 0.0741,-0.208492 0.0737,-0.2794 -2.6e-4,-0.07126 -0.007,-0.1651 -0.007,-0.1651 -0.005,-0.05645 -0.0247,-0.13688 -0.0561,-0.0508 m -15.69332,0.612069 c -0.0282,0.06914 -0.1464,0.306916 -0.12806,0.587375 0.004,0.06491 0.0469,0.191206 0.14464,0.194733 0.0504,-2.65e-4 0.11571,-0.03704 0.16192,-0.195792 0.008,-0.03563 0.013,-0.06456 0.0166,-0.07832 0.005,-0.02151 -0.0109,-0.04692 -0.0275,0.0021 -0.0367,0.09701 -0.13265,0.1651 -0.20461,0.03457 -0.0117,-0.02574 -0.0603,-0.143581 0.0286,-0.401814 0.0183,-0.05009 0.0409,-0.124532 0.0409,-0.124532 0.0201,-0.0568 -0.004,-0.08749 -0.0325,-0.01834 m 5.36786,0.2921 c -0.0702,0.03493 -1.57726,0.491774 -1.64959,0.532342 -0.0723,0.04057 -0.0977,0.05045 -0.11218,0.103365 -0.0145,0.05292 -0.0222,0.08361 -0.0257,0.09208 -0.0148,0.03493 -0.0265,0.07902 0.0801,0.01834 0.0335,-0.01871 1.55398,-0.481894 1.6136,-0.516115 0.0593,-0.03387 0.0949,-0.04586 0.12171,-0.100187 0.0265,-0.05398 0.0332,-0.06385 0.048,-0.1016 0.0159,-0.04022 0.0321,-0.08326 -0.0759,-0.02822"
       style="fill:#231f20;fill-opacity:1;fill-rule:evenodd;stroke:none;stroke-width:0.264583"
       id="path1-3" />
  </g>
</svg>
