<?xml version="1.0" encoding="UTF-8" standalone="no"?>
<!-- Created with Inkscape (http://www.inkscape.org/) -->

<svg
   width="20.071175mm"
   height="6.2047048mm"
   viewBox="0 0 20.071175 6.2047048"
   version="1.1"
   id="svg1"
   xmlns:inkscape="http://www.inkscape.org/namespaces/inkscape"
   xmlns:sodipodi="http://sodipodi.sourceforge.net/DTD/sodipodi-0.dtd"
   xmlns="http://www.w3.org/2000/svg"
   xmlns:svg="http://www.w3.org/2000/svg">
  <sodipodi:namedview
     id="namedview1"
     pagecolor="#ffffff"
     bordercolor="#666666"
     borderopacity="1.0"
     inkscape:showpageshadow="2"
     inkscape:pageopacity="0.0"
     inkscape:pagecheckerboard="0"
     inkscape:deskcolor="#d1d1d1"
     inkscape:document-units="mm" />
  <defs
     id="defs1" />
  <g
     inkscape:label="Layer 1"
     inkscape:groupmode="layer"
     id="layer1"
     transform="translate(-123.34717,-66.003042)">
    <path
       d="m 131.27627,66.140258 c -0.078,0.09419 -0.15487,0.331965 -0.0677,0.412046 0.0875,0.08043 0.21978,0.1524 0.21978,0.1524 -0.50376,0.492829 -1.17828,0.93345 -1.4545,1.055863 -0.0713,0.03175 -0.0617,0.06809 -0.0219,0.06209 0.0212,-0.0032 0.37747,-0.09066 0.82197,-0.348543 0.37465,-0.217313 0.75988,-0.716846 0.75988,-0.716846 0,0 0.0998,0.104423 0.11254,0.124531 0.0289,0.04551 0.0437,0.07796 0.0642,0.03598 0.0762,-0.154164 0.005,-0.259998 -0.0677,-0.31891 0,0 0.10972,-0.240948 -0.0113,-0.508706 -0.0201,-0.0448 -0.1531,-0.196144 -0.35524,0.05009 m 0.22401,0.09525 c 0.0892,0.104071 0.0568,0.254707 0.049,0.28928 0,0 -0.12101,-0.07408 -0.17498,-0.104775 -0.0543,-0.03105 -0.0801,-0.07056 -0.0497,-0.103717 0.10195,-0.113596 0.14428,-0.104775 0.17568,-0.08079 m 2.50578,-0.150635 c -0.0162,0.03916 -0.11218,0.303035 -0.11218,0.303035 0.0257,0.17145 0.25294,2.014363 0.26811,2.140305 0.0148,0.125587 0.33408,2.210152 0.35066,2.786943 -0.004,0.05891 0.0212,0.08114 0.048,0.02434 0.0272,-0.05644 0.21272,-0.440973 -0.008,-1.851377 -0.0162,-0.117123 -0.35031,-2.500138 -0.35031,-2.500138 0,0 0.19721,0.185209 0.22896,0.218723 0.0314,0.03352 0.0699,0.01588 0.0519,-0.0381 -0.018,-0.05433 -0.42192,-1.030464 -0.43497,-1.064331 -0.013,-0.03422 -0.0261,-0.05856 -0.0423,-0.01939 m -1.05657,0 c -0.0162,0.03916 -0.14605,0.324556 -0.14605,0.324556 0.004,0.02328 0.0342,0.09384 0.055,0.237771 0.0219,0.149931 0.0533,0.364066 0.0878,0.600429 0,0 0.0773,0.577496 0.16193,1.213554 0,0 0.21801,1.671463 0.17886,1.738842 -0.0392,0.06703 -0.42334,0.186266 -0.63112,-0.160512 0,0 0.0342,-0.09243 0.0483,-0.125238 0.0233,-0.04798 0.0123,-0.132644 -0.0579,-0.04339 -0.0702,0.0889 -0.23424,0.459317 -0.46566,0.543632 -0.0374,0.01587 -0.30163,0.04374 -0.30763,-0.231069 0.0109,-0.02822 0.0356,-0.09384 0.0497,-0.131233 0.0141,-0.03775 0.0109,-0.134409 -0.0674,-0.04868 -0.078,0.08608 -0.29351,0.473779 -0.67627,0.500237 -0.0984,0.0078 -0.51259,0.02151 -0.49071,-0.459316 0.0109,-0.07197 0.10018,-0.339019 -0.0455,-0.239184 -0.1263,0.08714 -0.62054,0.361247 -0.80575,0.452263 -0.0349,-0.09031 -0.0861,-0.185914 -0.16122,-0.280458 -0.2219,-0.259292 -0.46743,-0.395113 -0.73695,-0.09984 -0.30762,0.337257 -0.28505,0.589492 -0.13053,0.734132 0.0621,0.05856 0.31927,0.180623 0.80116,0.108656 0.0547,-0.0085 0.2279,-0.01482 0.14146,0.111477 -0.0864,0.126648 -0.8255,0.96379 -1.61713,0.978606 -0.10054,0.0019 -0.76976,-0.07479 -0.5715,-0.814916 8e-4,-0.0028 0.001,-0.0064 0.002,-0.0092 0.3175,-0.2159 0.59867,-0.466374 0.7366,-0.739423 0.0593,-0.117827 0.17533,-0.361596 0.0346,-0.7366 -0.0603,-0.161925 -0.32631,-0.585963 -0.32631,-0.585963 l 0.006,-0.01341 c 0,0 0.17674,0.01905 0.19438,0.01871 0.0173,-2.65e-4 0.0515,-0.01799 0.007,-0.0695 -0.0441,-0.05115 -0.42757,-0.43321 -0.4505,-0.463902 -0.0229,-0.03069 -0.0444,-0.05327 -0.0572,-0.0078 -0.0134,0.04516 -0.0459,0.239538 -0.0536,0.279754 -0.008,0.04022 -0.007,0.08008 0.0123,0.1143 0.0198,0.03422 0.0706,0.152752 0.10725,0.249061 0.0363,0.09596 0.41416,0.824089 0.44943,0.888648 0.0346,0.0642 -0.0137,0.09278 -0.0483,0.135466 -1.24142,1.223786 -3.58245,1.933575 -3.65689,1.976967 -0.0748,0.04374 -0.055,0.07726 0.0709,0.05539 0.18803,-0.03316 1.23931,-0.208843 1.53917,-0.353483 0.1778,-0.08572 0.77434,-0.325967 1.31021,-0.666044 -0.0734,0.355952 -0.1016,0.84455 0.254,1.056921 0.0861,0.05151 0.74154,0.371829 1.88313,-0.729896 0.27517,-0.265996 0.3235,-0.627591 0.3235,-0.627591 0.004,-0.03387 0.01,-0.09419 0.007,-0.170747 0.22895,-0.114651 0.5969,-0.315028 0.61137,-0.330551 0,0 0.008,0.773641 0.66851,0.618418 0.0815,-0.02011 0.25365,-0.05292 0.51929,-0.339018 0.012,0.178151 0.44132,0.559858 0.7874,-0.109361 0.0596,0.06562 0.26106,0.284692 0.61066,0.223661 0.0864,-0.01871 0.37676,-0.08467 0.37817,-0.776817 0.009,-0.125942 -0.33619,-2.895248 -0.33619,-2.895248 0,0 0.16263,0.145346 0.19438,0.178858 0.0317,0.03351 0.0702,0.01587 0.0519,-0.03845 -0.018,-0.05362 -0.38735,-0.990248 -0.40041,-1.024115 -0.013,-0.03422 -0.0261,-0.05856 -0.0423,-0.01939 m -3.40466,4.272843 c 0,0 -0.13935,0.03669 -0.37782,-0.0035 -0.25647,-0.04339 -0.21484,-0.139348 -0.0808,-0.216606 0.121,-0.0695 0.31186,-0.02928 0.45861,0.220133 m 6.13093,-4.100335 c -0.0702,0.10654 -0.12242,0.362656 -0.0222,0.435681 0.0998,0.07338 0.24624,0.132644 0.24624,0.132644 -0.46602,0.570793 -0.78458,0.67945 -1.05692,0.839258 -0.0702,0.04127 -0.0565,0.07797 -0.0155,0.06703 0.0212,-0.0056 0.38805,-0.06244 0.81597,-0.387702 0.23178,-0.175683 0.37183,-0.47625 0.37183,-0.47625 0,0 0.11607,0.09666 0.13159,0.116065 0.0349,0.04339 0.0543,0.0762 0.0709,0.02998 0.0607,-0.168981 -0.0254,-0.270581 -0.1076,-0.323143 0,0 0.0857,-0.263525 -0.0716,-0.527405 -0.0261,-0.04409 -0.18203,-0.18556 -0.36265,0.09384 m 0.24342,0.07267 c 0.10477,0.09772 0.0889,0.257879 0.0847,0.294568 0,0 -0.13405,-0.06279 -0.19403,-0.08855 -0.06,-0.02574 -0.091,-0.0635 -0.0635,-0.101952 0.0924,-0.129468 0.13794,-0.125235 0.17287,-0.104068 m 6.27838,0.02294 c -0.0699,0.10654 -0.12171,0.362657 -0.0219,0.435682 0.0998,0.07338 0.24624,0.132643 0.24624,0.132643 -0.46567,0.570796 -1.38042,0.976842 -1.59808,1.14653 -0.0649,0.04904 -0.0564,0.07796 -0.0152,0.06703 0.0363,-0.0095 0.73342,-0.204611 1.37054,-0.750359 0.29174,-0.250118 0.28363,-0.269168 0.35807,-0.420864 0.0631,0.03281 0.10689,0.08537 0.13158,0.116416 0.0353,0.04339 0.0547,0.07585 0.0709,0.02963 0.061,-0.168627 -0.0254,-0.270934 -0.1076,-0.323496 0,0 0.0857,-0.263173 -0.0716,-0.52705 -0.0265,-0.0441 -0.18203,-0.185563 -0.36301,0.09384 m 0.24412,0.07267 c 0.10478,0.09772 0.0889,0.257882 0.0847,0.294569 0,0 -0.13406,-0.06279 -0.19438,-0.08855 -0.0596,-0.0254 -0.0914,-0.0635 -0.0632,-0.1016 0.0921,-0.129823 0.13759,-0.125237 0.17286,-0.104423 M 140.653,66.260197 c -0.18309,0.232834 -0.19438,0.538692 -0.21908,0.879827 -0.0254,-0.07161 -0.1718,-0.528814 -0.63923,-0.790927 -0.0342,-0.01905 -0.10301,0.01728 -0.10971,0.124884 -0.004,0.06279 -0.0215,0.214841 0.0226,0.258233 0.0441,0.04339 0.17462,0.128058 0.19649,0.140052 0.0219,0.01236 0.0459,0.01341 0.0522,-0.0127 0.007,-0.02574 0.0363,-0.08678 0.0787,-0.04304 0.0356,0.03598 0.266,0.226484 0.38559,0.630415 0.0208,0.05362 0.0705,0.05856 0.0822,-0.01728 0.0275,-0.186621 0.0423,-0.511175 0.0571,-0.6096 0.0208,-0.13829 0.0868,-0.422982 0.26211,-0.275167 0.0399,0.03351 0.0818,0.07796 0.0818,0.07796 0.0374,0.04692 0.084,0.10019 0.10654,0.04622 0.0346,-0.08149 0.0625,-0.216958 0.0243,-0.289983 -0.0166,-0.03246 -0.23354,-0.306917 -0.38171,-0.118886 m -1.80023,-0.01093 c -0.0674,0.03951 -1.78752,1.03223 -1.85737,1.077383 -0.0695,0.0448 -0.0942,0.05645 -0.10548,0.110067 -0.0109,0.05362 -0.0166,0.08467 -0.0198,0.09349 -0.0124,0.03598 -0.0215,0.08008 0.0811,0.01341 0.0321,-0.02082 1.76212,-1.020585 1.82245,-1.058685 0.0579,-0.03633 0.0917,-0.05151 0.11535,-0.107598 0.0233,-0.05539 0.0293,-0.06526 0.0416,-0.10442 0.0134,-0.04127 0.0268,-0.08502 -0.078,-0.02363 m -12.20047,0.170392 c -0.0324,0.08396 -0.17004,0.376063 -0.12806,0.708379 0.01,0.07655 0.0744,0.223661 0.20215,0.220486 0.066,-0.0039 0.14851,-0.05221 0.19826,-0.244475 0.008,-0.04304 0.0127,-0.07761 0.0162,-0.0949 0.005,-0.02574 -0.0176,-0.05503 -0.0356,0.0049 -0.0416,0.118182 -0.16228,0.206023 -0.26459,0.05609 -0.0173,-0.02963 -0.0882,-0.16651 0.0106,-0.479777 0.0198,-0.06103 0.0441,-0.151696 0.0441,-0.151696 0.0226,-0.06809 -0.0106,-0.103362 -0.043,-0.01905 m -1.8609,0.09948 c -0.17427,0.221546 -0.18556,0.512588 -0.20849,0.83679 -0.0247,-0.06738 -0.16369,-0.502708 -0.60854,-0.751769 -0.0321,-0.01834 -0.0981,0.01587 -0.10407,0.118534 -0.004,0.05962 -0.0208,0.204962 0.0215,0.245885 0.0402,0.03951 0.34078,0.144992 0.1778,0.3175 -0.073,0.07726 -0.4385,0.4572 -0.51753,0.549275 -0.0787,0.09207 -0.0861,0.108656 -0.002,0.06173 0.0843,-0.04692 0.57185,-0.23636 0.65229,-0.719666 0.007,-0.0635 -0.006,-0.110771 -0.0208,-0.142521 0.007,0.0013 0.0138,0.0056 0.0215,0.01376 0.0339,0.03422 0.25295,0.215194 0.36689,0.599721 0.0194,0.0508 0.067,0.05574 0.0776,-0.01659 0.0265,-0.177448 0.0406,-0.486481 0.0547,-0.579966 0.0198,-0.131588 0.0825,-0.402873 0.24942,-0.261763 0.0378,0.03211 0.078,0.07408 0.078,0.07408 0.0353,0.0448 0.0797,0.0956 0.10125,0.0441 0.0328,-0.07761 0.0593,-0.206375 0.0233,-0.275873 -0.0159,-0.03104 -0.2226,-0.2921 -0.36301,-0.113241 m 4.59846,-0.02752 c -0.0776,0.03528 -2.06198,1.011415 -2.14101,1.049515 -0.0744,0.03563 -0.0942,0.05644 -0.10548,0.110066 -0.0109,0.05362 -0.0169,0.08467 -0.0198,0.09349 -0.0127,0.03598 -0.0215,0.06738 0.0811,0.01341 0.0339,-0.01799 2.04294,-0.997302 2.10573,-1.030817 0.0607,-0.03246 0.0917,-0.05186 0.11536,-0.107598 0.0233,-0.05574 0.0293,-0.06562 0.0416,-0.104775 0.0134,-0.04092 0.0324,-0.07373 -0.0776,-0.02328 m 2.4564,0.666046 c -0.0226,0.06914 -0.0392,0.122412 -0.009,0.201435 0.03,0.07902 0.11113,0.258234 0.12454,0.283986 0.0134,0.02574 0.0169,0.05468 -0.0279,0.07338 -0.0445,0.01939 -0.24835,0.06244 -0.2861,-0.154517 -0.0378,-0.217312 -0.0413,-0.280812 -0.0603,-0.317148 -0.019,-0.03669 -0.0367,-0.04163 -0.0511,-0.0046 -0.0145,0.03669 -0.0233,0.112535 -0.0258,0.124529 -0.002,0.01236 -0.002,0.02117 0.006,0.03457 0.007,0.01304 0.0889,0.256117 0.0519,0.323143 -0.0367,0.06668 -0.21908,0.186622 -0.31503,0.06068 -0.0455,-0.08784 -0.0177,-0.310092 -0.0177,-0.362656 0,-0.05257 -0.0169,-0.07056 -0.0392,-0.02787 -0.0222,0.04233 -0.0342,0.0702 -0.0332,0.10795 0.001,0.0381 0.007,0.200377 0.003,0.251883 -0.003,0.0508 0,0.216959 0.0981,0.263877 0.0977,0.04657 0.2406,0.0032 0.3482,-0.200731 0.084,0.121356 0.2106,0.122063 0.27869,0.09701 0.0582,-0.02117 0.12241,-0.10795 0.14146,-0.228249 0.0191,-0.120295 -0.0123,-0.202493 -0.0501,-0.270578 -0.0501,-0.08361 -0.0836,-0.224015 -0.0836,-0.224015 -0.0177,-0.05009 -0.031,-0.101248 -0.0533,-0.0321 m 7.33707,0.446262 c -0.0346,0.08467 -0.17885,0.375005 -0.15663,0.71755 0.005,0.07867 0.0575,0.23354 0.17674,0.237421 0.0614,0 0.14111,-0.0448 0.19756,-0.238479 0.01,-0.04374 0.0162,-0.07902 0.0201,-0.09631 0.006,-0.02611 -0.013,-0.05715 -0.0332,0.0028 -0.0448,0.118533 -0.16227,0.201435 -0.25011,0.04233 -0.0141,-0.0314 -0.073,-0.175683 0.0353,-0.490715 0.0219,-0.06103 0.0497,-0.1524 0.0497,-0.1524 0.0243,-0.06879 -0.005,-0.106537 -0.0395,-0.02222 m 3.3073,0.173567 c -0.0317,0.07797 -0.16546,0.346781 -0.14535,0.664281 0.005,0.07267 0.0536,0.215548 0.16404,0.219427 0.0568,0 0.13053,-0.04127 0.18309,-0.220837 0.009,-0.04057 0.0148,-0.07302 0.0183,-0.0889 0.006,-0.02434 -0.012,-0.05327 -0.0303,0.0024 -0.0423,0.110067 -0.15064,0.186619 -0.23178,0.03916 -0.013,-0.02928 -0.0681,-0.162632 0.0325,-0.454377 0.0204,-0.05645 0.0462,-0.140759 0.0462,-0.140759 0.0222,-0.06385 -0.005,-0.09878 -0.0367,-0.02045 m -16.16111,0.0127 c -0.13582,0.05115 -0.84772,0.369358 -1.03469,1.314805 -0.0212,0.111125 -0.12383,0.629708 0.64452,0.640291 0.0924,0.0013 0.5334,-0.05257 0.64911,0.04621 0.042,0.03563 0.0254,0.04833 -0.0293,0.103013 -0.0547,0.05468 -0.67345,0.550685 -1.3148,0.803627 -0.22825,0.08996 -1.29364,0.388057 -1.6189,-0.358423 -0.0434,-0.09983 -0.21943,-0.61595 0.12594,-1.422752 0.0265,-0.06103 0.0117,-0.159456 -0.0727,-0.04198 -0.084,0.117829 -0.70167,1.453798 0.003,2.091973 0.13441,0.121708 0.94368,0.689681 2.27542,-0.21449 0.11253,-0.0762 0.85584,-0.521758 0.87206,-1.050925 0.003,-0.12347 -0.0335,-0.375354 -0.43391,-0.389467 -0.14817,0.0028 -0.61031,0.03634 -0.75318,-0.05045 -0.14288,-0.08678 -0.29422,-0.212725 -0.0868,-0.515057 0.10936,-0.162983 0.65511,-0.692856 0.9017,-0.579966 0.1323,0.06068 0.19121,0.14464 0.21343,0.169333 0.0222,0.02469 0.0353,0.03104 0.0434,0.01553 0.008,-0.01553 0.13229,-0.209904 0.0931,-0.333375 -0.11606,-0.309388 -0.34114,-0.279048 -0.47731,-0.227896 m 9.95468,-0.0042 -0.16862,0.230716 -0.32244,-0.235653 c -0.008,-0.006 -0.0201,-0.0039 -0.0261,0.0049 l -0.19509,0.267055 c -0.006,0.0085 -0.005,0.02045 0.004,0.02611 l 0.33267,0.242713 c 0.008,0.0056 0.0198,0.0039 0.0257,-0.0046 l 0.16828,-0.231069 0.32315,0.235657 c 0.008,0.0056 0.0194,0.0039 0.0257,-0.0046 l 0.19508,-0.267758 c 0.006,-0.0085 0.005,-0.02011 -0.003,-0.02611 l -0.33302,-0.242359 c -0.008,-0.006 -0.0198,-0.0039 -0.0257,0.0049 m -6.78462,0.236363 c -0.14605,0.213783 -0.139,0.481187 -0.14041,0.780343 -0.0265,-0.06068 -0.18062,-0.451556 -0.6036,-0.652991 -0.031,-0.01447 -0.0889,0.02082 -0.0882,0.115358 0,0.05468 -0.007,0.188735 0.0346,0.22366 0.0409,0.03563 0.15981,0.101955 0.17957,0.110773 0.0198,0.0095 0.0406,0.0095 0.0448,-0.01341 0.004,-0.02328 0.0265,-0.07796 0.066,-0.04233 0.0332,0.02893 0.24518,0.182033 0.37324,0.527756 0.0208,0.04516 0.0646,0.04692 0.0702,-0.02011 0.0134,-0.164394 0.008,-0.448382 0.0148,-0.53481 0.0102,-0.122063 0.0515,-0.37465 0.21272,-0.255765 0.0367,0.02752 0.0759,0.0635 0.0759,0.0635 0.0353,0.03881 0.0794,0.08255 0.096,0.03422 0.025,-0.07303 0.0416,-0.192616 0.004,-0.254352 -0.0162,-0.02752 -0.22154,-0.254706 -0.33972,-0.08184 m 8.08778,0.17921 c -0.013,0.04551 -0.0455,0.240242 -0.0533,0.279752 -0.008,0.04022 -0.007,0.08008 0.0123,0.1143 0.0198,0.03422 0.0706,0.152755 0.10689,0.249063 0.0371,0.09631 0.41452,0.824087 0.44944,0.888293 0.0349,0.06456 0.042,0.11289 0.007,0.155575 -1.21285,1.279525 -3.55283,2.066574 -3.62761,2.109965 -0.0748,0.04339 -0.055,0.07726 0.0709,0.05503 0.18838,-0.03316 1.23966,-0.208847 1.53952,-0.353132 0.1972,-0.09525 0.88759,-0.434268 1.45203,-0.876652 -0.0159,0.1143 -0.0303,0.282221 -0.0222,0.495652 0.0381,1.029052 0.95815,0.857957 1.1998,0.805392 0.72355,-0.159102 1.60832,-1.159227 1.68381,-1.36031 0.0741,-0.198263 0.085,-0.379942 0.0684,-0.537634 0.1905,-0.103365 0.59972,-0.433213 0.59972,-0.433213 0.0169,0.438857 0.36583,0.570797 0.47378,0.589492 0.50306,0.07655 0.75565,-0.34431 0.86325,-0.480483 0.0914,0.239889 0.31221,0.286808 0.42545,0.309739 0.43427,0.08608 0.51894,-0.221191 0.54116,-0.291393 0.13653,-0.423333 -0.10901,-0.739423 -0.14041,-0.773996 -0.0318,-0.03528 -0.0476,-0.0019 -0.0589,0.03916 -0.0113,0.04022 -0.0459,0.192971 -0.0681,0.288573 0,0 0.0907,0.147815 0.12313,0.223308 0.0325,0.07549 -0.0159,0.116769 -0.10937,0.128059 -0.26423,0.0321 -0.47483,-0.11924 -0.54786,-0.18909 -0.0723,-0.06985 0.006,-0.19332 0.0646,-0.340783 0.0469,-0.118179 -0.0399,-0.132292 -0.10654,-2.65e-4 -0.22402,0.588785 -0.53904,0.652285 -0.62159,0.674865 -0.74613,0.2032 -0.68157,-0.478721 -0.6791,-0.59055 0.003,-0.111832 -0.079,-0.07056 -0.17075,0.0032 -0.31432,0.252235 -0.56726,0.40005 -0.70308,0.460727 -0.11712,-0.228952 -0.28716,-0.372534 -0.35913,-0.424392 -0.80716,-0.588785 -0.87383,0.599017 -0.84914,0.726723 0.12277,0.505177 0.94721,0.198967 1.07668,0.183444 0.12982,-0.01553 0.0871,0.155927 0.0148,0.257175 -0.17886,0.250118 -0.38594,0.429683 -0.57291,0.582435 -0.7994,0.652288 -1.20121,0.601133 -1.32468,0.596548 -0.78529,-0.02188 -0.71297,-0.868185 -0.66958,-1.049515 0.23637,-0.19967 0.43921,-0.417335 0.55739,-0.64135 0.048,-0.122766 0.13088,-0.401812 -0.0187,-0.751768 -0.0787,-0.15381 -0.32632,-0.585965 -0.32632,-0.585965 0,0 0.18238,0.0056 0.19967,0.0053 0.0173,-2.65e-4 0.0515,-0.01834 0.007,-0.0695 -0.0441,-0.05115 -0.42722,-0.433565 -0.45015,-0.464256 -0.0236,-0.03034 -0.0445,-0.05257 -0.0575,-0.0074 m 2.42217,1.7526 c 0,0 -0.10971,0.06315 -0.41698,0.04269 -0.25824,-0.01765 -0.23601,-0.117827 -0.20073,-0.156279 0.0384,-0.04127 0.35419,-0.23989 0.61771,0.113593 m -8.2363,-1.731081 -0.19509,0.267406 c -0.006,0.0085 -0.005,0.01976 0.004,0.02611 l 0.33267,0.24271 c 0.008,0.0056 0.0198,0.0035 0.0258,-0.0049 l 0.19508,-0.267403 c 0.006,-0.0085 0.005,-0.02011 -0.003,-0.02612 l -0.33302,-0.24271 c -0.008,-0.0056 -0.0198,-0.0035 -0.0258,0.0049 m 0.35666,0.570089 -0.16827,0.230717 -0.3228,-0.235302 c -0.008,-0.006 -0.0198,-0.0039 -0.0261,0.0046 l -0.1955,0.267605 c -0.006,0.0085 -0.004,0.02045 0.004,0.02574 l 0.33267,0.243065 c 0.008,0.0056 0.0198,0.0035 0.0257,-0.0046 l 0.16828,-0.231068 0.32315,0.235656 c 0.008,0.0056 0.0194,0.0035 0.0257,-0.0046 l 0.19508,-0.267758 c 0.006,-0.0085 0.005,-0.02011 -0.004,-0.02574 l -0.33267,-0.242711 c -0.008,-0.006 -0.0198,-0.0039 -0.0258,0.0046 m 4.56318,-0.263877 c -0.0536,0.06632 -0.58949,0.770112 -0.58949,0.770112 l -0.39017,-0.277987 c 0,0 0.15875,-0.03987 0.18662,-0.04833 0.0279,-0.0081 0.0434,-0.04374 -0.006,-0.0695 -0.0501,-0.02574 -0.52,-0.212725 -0.55598,-0.227541 -0.036,-0.01447 -0.0487,-0.03069 -0.0519,0.0074 -0.003,0.0381 -0.008,0.347488 -0.008,0.347488 0,0 -0.007,0.02188 0.0335,0.0448 0.0413,0.02328 0.0815,0.07373 0.11536,0.106891 0.0335,0.03352 0.47096,0.378884 0.49212,0.391232 0,0 -0.21907,0.384175 -0.24659,0.685093 -0.0279,0.301273 0.005,0.716492 0.41628,0.582084 0.11112,-0.03104 0.57185,-0.21449 0.67486,-0.535869 0.0332,-0.118181 0.12806,-0.331965 -0.0261,-0.548923 -0.0892,-0.127352 -0.44909,-0.342194 -0.44909,-0.342194 0,0 0.27658,-0.382412 0.30269,-0.428979 0.0265,-0.04692 0.12806,-0.3429 0.13899,-0.414512 0.0113,-0.07126 0.0169,-0.107246 -0.0363,-0.04127 m -0.0945,1.623129 c -0.1524,0.125589 -0.47378,0.291396 -0.56374,0.300214 -0.0907,0.0085 -0.32985,-0.03528 -0.22578,-0.280458 0.0356,-0.07973 0.27517,-0.489302 0.27517,-0.489302 0.0892,0.04939 0.6671,0.343958 0.51435,0.469546 m -12.31371,-1.408288 c -0.0173,0.03069 -0.0515,0.166511 -0.0515,0.166511 0.0402,0.05891 0.55809,0.573264 0.49882,1.398764 -0.002,0.04798 0.0152,0.08996 0.0286,0.05221 0.0134,-0.03881 0.20602,-0.969434 -0.39017,-1.607961 -0.066,-0.07056 -0.0688,-0.03986 -0.0857,-0.0095 m 9.50242,1.792817 c -0.0416,0.09631 -0.21201,0.426154 -0.20214,0.823029 0.003,0.09172 0.054,0.271992 0.18486,0.281165 0.0681,0.0021 0.15734,-0.04622 0.22719,-0.267759 0.0127,-0.05009 0.0208,-0.09066 0.0261,-0.110418 0.008,-0.02999 -0.012,-0.06632 -0.0367,0.0019 -0.0543,0.135467 -0.18662,0.226838 -0.27658,0.03951 -0.0145,-0.03704 -0.0734,-0.206023 0.0589,-0.565857 0.0265,-0.0695 0.061,-0.174273 0.061,-0.174273 0.0296,-0.07832 -10e-4,-0.122766 -0.0427,-0.02716 m 9.04204,0.177094 c -0.031,0.08608 -0.0434,0.143227 -0.0399,0.175683 0.003,0.03316 0.0145,0.1397 0.0145,0.1397 -0.0321,0.02574 -0.16863,0.111125 -0.30551,0.01024 0.009,-0.02928 0.0268,-0.0889 0.0307,-0.121004 0.0152,-0.0508 -0.0159,-0.08855 -0.0409,-0.03634 -0.025,0.05292 -0.0832,0.228248 -0.12594,0.267406 -0.0434,0.03986 -0.0935,0.184854 -0.4198,0.03739 -0.0565,-0.02188 -0.15699,-0.09596 -0.31221,0.06068 -0.35278,0.32738 -0.5962,0.353132 -0.99166,0.49389 -0.048,0.02188 -0.14817,0.09737 -0.0293,0.08502 0.11924,-0.01164 0.62054,2.64e-4 0.89323,-0.31256 0.0572,-0.05539 0.12206,-0.201436 0.33867,-0.116417 0.1203,0.04516 0.34149,0.235656 0.58385,-0.140407 0.14181,0.0949 0.35877,0.0568 0.39334,-0.04762 0.0346,-0.104775 0.0737,-0.208843 0.0737,-0.280103 -2.6e-4,-0.07126 -0.007,-0.164748 -0.007,-0.164748 -0.005,-0.05644 -0.0247,-0.136877 -0.0561,-0.0508 m -10.49973,0.318558 c -0.031,0.08643 -0.043,0.142875 -0.0402,0.175683 0.004,0.03316 0.0148,0.1397 0.0148,0.1397 -0.0321,0.02574 -0.16862,0.111125 -0.3055,0.01024 0.009,-0.02928 0.0268,-0.0889 0.031,-0.121357 0.0148,-0.0508 -0.0162,-0.08819 -0.0413,-0.03598 -0.0251,0.05292 -0.0829,0.228248 -0.1263,0.267758 -0.0427,0.03951 -0.0935,0.184502 -0.4191,0.03704 -0.0572,-0.02188 -0.15733,-0.09596 -0.31291,0.06068 -0.35242,0.327731 -0.5962,0.353483 -0.99131,0.493538 -0.0476,0.02223 -0.14851,0.09737 -0.0289,0.08572 0.11923,-0.01199 0.62018,2.64e-4 0.89252,-0.312915 0.0575,-0.05539 0.12242,-0.201083 0.33938,-0.116769 0.11994,0.04551 0.34148,0.236009 0.58314,-0.140054 0.14287,0.0949 0.35913,0.05715 0.3937,-0.04762 0.0346,-0.104775 0.0741,-0.208844 0.0737,-0.279752 -8e-4,-0.07126 -0.007,-0.1651 -0.007,-0.1651 -0.005,-0.05644 -0.0247,-0.136525 -0.0561,-0.0508"
       style="fill:#231f20;fill-opacity:1;fill-rule:evenodd;stroke:none;stroke-width:0.264583"
       id="path1-9" />
  </g>
</svg>
