<?xml version="1.0" encoding="UTF-8" standalone="no"?>
<!-- Created with Inkscape (http://www.inkscape.org/) -->

<svg
   width="20.358721mm"
   height="6.4382377mm"
   viewBox="0 0 20.358721 6.4382377"
   version="1.1"
   id="svg1"
   xmlns:inkscape="http://www.inkscape.org/namespaces/inkscape"
   xmlns:sodipodi="http://sodipodi.sourceforge.net/DTD/sodipodi-0.dtd"
   xmlns="http://www.w3.org/2000/svg"
   xmlns:svg="http://www.w3.org/2000/svg">
  <sodipodi:namedview
     id="namedview1"
     pagecolor="#ffffff"
     bordercolor="#666666"
     borderopacity="1.0"
     inkscape:showpageshadow="2"
     inkscape:pageopacity="0.0"
     inkscape:pagecheckerboard="0"
     inkscape:deskcolor="#d1d1d1"
     inkscape:document-units="mm" />
  <defs
     id="defs1" />
  <g
     inkscape:label="Layer 1"
     inkscape:groupmode="layer"
     id="layer1"
     transform="translate(-135.90438,-50.114668)">
    <path
       d="m 144.45498,50.264977 c -0.0825,0.1016 -0.16192,0.357717 -0.0674,0.442029 0.0945,0.08537 0.23777,0.160866 0.23777,0.160866 -0.53376,0.534459 -1.25131,1.015648 -1.54587,1.150763 -0.0759,0.03457 -0.0653,0.07373 -0.0222,0.06667 0.0222,-0.0035 0.40287,-0.101954 0.87665,-0.384175 0.39829,-0.237773 0.80469,-0.778581 0.80469,-0.778581 0,0 0.1083,0.110773 0.12241,0.132291 0.0314,0.04798 0.0476,0.0829 0.0692,0.03775 0.0797,-0.166159 0.002,-0.278697 -0.0762,-0.340784 0,0 0.1143,-0.259998 -0.0194,-0.545748 -0.0222,-0.04763 -0.16651,-0.20814 -0.37959,0.05891 m 0.24095,0.09913 c 0.097,0.110066 0.0646,0.271991 0.0564,0.309033 0,0 -0.13052,-0.07761 -0.18908,-0.110067 -0.0582,-0.03245 -0.0864,-0.07408 -0.0547,-0.110418 0.10759,-0.123119 0.15381,-0.113594 0.18732,-0.08855 m 1.29505,-0.197909 c -0.0208,0.03951 -0.18662,0.326673 -0.18662,0.326673 0.002,0.02434 0.0367,0.107599 0.0476,0.259999 0.012,0.158395 0.0395,0.370768 0.0579,0.620535 0,0 0.29351,2.537883 0.29951,2.677231 0.006,0.139346 0.0155,0.21096 -0.13864,0.292804 -0.32103,0.170392 -1.14689,0.355248 -1.27247,0.394055 -0.0762,0.02363 -0.52035,0.11077 -1.22308,0.87771 -0.10725,0.106185 -0.43039,0.482952 -0.7546,0.537633 -0.16968,0.03986 -0.42827,-0.07549 -0.43638,-0.491418 -0.009,-0.484013 0.30374,-1.018472 0.56585,-1.450975 0.002,-0.0039 0.004,-0.0071 0.006,-0.01058 0.62442,-0.283988 1.46403,-0.64629 1.46403,-0.64629 l 0.12876,-0.389818 c -0.14076,-0.05574 -1.60337,-0.448733 -2.74637,-0.290338 -0.16722,0.02363 -0.44874,0.157692 -0.5013,0.390525 -0.0349,0.1905 0.007,0.394055 0.16157,0.52705 0.036,0.0314 0.57432,0.440621 0.55563,0.44803 -0.16793,0.06597 -1.10138,0.528108 -1.62384,1.133826 -0.13829,0.149225 -0.57362,0.6858 -0.82832,0.79234 -0.16017,0.06703 -0.55281,0.168627 -0.62372,-0.278696 -0.0148,-0.09384 0.0233,-0.490712 0.21167,-0.935567 0.51576,-0.238477 0.68439,-0.426508 0.75142,-0.586316 0.0617,-0.144992 0.0896,-0.338667 0.037,-0.595842 -0.254,-0.975429 -0.71261,-0.968375 -0.93169,-0.883708 -0.0515,0.01976 -0.15099,0.103716 -0.17885,0.140054 -0.13194,0.173212 -0.32597,0.553154 -0.0536,0.8128 0.2092,0.168627 0.58173,0.08784 0.65053,0.08537 0.12347,-0.0046 0.28257,-0.01164 0.36547,0.192616 0.0166,0.05221 -0.0441,0.118534 -0.18273,0.198263 -0.139,0.07937 -1.75578,0.964142 -2.75838,0.680509 -0.16968,-0.0508 -0.78704,-0.189797 -0.76446,-0.916517 0.004,-0.08855 0.0448,-0.244475 0.0808,-0.371475 0.0251,0.01482 0.0519,0.02434 0.0822,0.02574 0.0956,-7.94e-4 0.21943,-0.08784 0.30621,-0.462492 0.0152,-0.08467 0.0247,-0.1524 0.0307,-0.18556 0.01,-0.0508 -0.0208,-0.110773 -0.0519,0.0053 -0.0695,0.229658 -0.25117,0.390525 -0.38841,0.0829 -0.0226,-0.06068 -0.11535,-0.339019 0.0522,-0.948619 0.0339,-0.118533 0.0762,-0.294571 0.0762,-0.294571 0.0381,-0.13335 -0.008,-0.206021 -0.0617,-0.04304 -0.0529,0.163335 -0.27552,0.725662 -0.23989,1.387475 0.005,0.0956 0.0399,0.248708 0.11077,0.351366 -0.14076,0.319262 -0.42545,1.104546 0.24659,1.596319 0.14958,0.104423 0.67275,0.448027 1.91841,0.07444 0.30621,-0.100894 0.55598,-0.194379 0.75988,-0.281517 -0.20284,0.530932 -0.39017,1.413582 0.35349,1.532115 0.17392,0.02752 0.49741,-0.0039 1.04563,-0.721783 0.72637,-0.951442 1.81328,-1.280935 1.9304,-1.336675 0.0512,0.06138 0.0759,0.08502 0.10795,0.135467 0.0293,0.04339 0.079,0.05256 0.085,-0.02822 0.002,-0.03669 0.0215,-0.16016 0.018,-0.207078 0.0663,-0.03211 0.14323,-0.06809 0.22613,-0.10654 -0.21484,0.308681 -1.11477,2.0574 -0.0346,2.1971 0.0949,0.01236 0.42192,0.03704 0.77752,-0.36195 0.18168,-0.19191 0.73801,-0.778227 1.12572,-0.918282 0.26917,-0.125587 0.88688,-0.290687 1.11054,-0.370416 0.18239,-0.06491 0.50059,-0.09595 0.6156,-0.588785 0.0317,-0.127 0.0832,-0.444149 0.0342,-0.880886 -0.0169,-0.174979 -0.27446,-2.231673 -0.27446,-2.231673 0,0 0.17497,0.161573 0.20672,0.199673 0.0317,0.03739 0.0755,0.02223 0.06,-0.03563 -0.0152,-0.05786 -0.35137,-1.064332 -0.36301,-1.101019 -0.0109,-0.03634 -0.0233,-0.06315 -0.0444,-0.02363 m -2.08633,3.263196 c -0.1397,0.08396 -0.72143,0.336196 -1.47285,0.664985 -0.0452,-0.06914 -0.82726,-0.612068 -0.86854,-0.66181 -0.0413,-0.04974 -0.0649,-0.118181 0.0646,-0.161925 0.12912,-0.04339 1.06328,-0.134408 2.27683,0.15875 m -4.41995,0.07232 c 0,0 -0.0998,0.0035 -0.16193,0.02223 -0.0617,0.01871 -0.17533,0.05856 -0.3489,0 -0.15522,-0.05221 -0.0896,-0.210257 0.0169,-0.250119 0.048,-0.01765 0.24765,-0.09278 0.49389,0.227894 m 7.53533,-3.334102 c -0.0173,0.0388 -0.11818,0.30127 -0.11818,0.30127 0.0226,0.171805 0.21378,2.018597 0.22648,2.14489 0.0124,0.12559 0.29104,2.21615 0.29634,2.792942 -0.006,0.05891 0.0198,0.08114 0.0476,0.02506 0.0282,-0.05574 0.22154,-0.43674 0.0286,-1.851025 -0.0141,-0.117475 -0.30234,-2.506133 -0.30234,-2.506133 0,0 0.19368,0.188735 0.22473,0.222953 0.031,0.03422 0.0699,0.01728 0.0529,-0.03704 -0.0173,-0.05433 -0.40181,-1.038577 -0.41416,-1.072796 -0.0127,-0.03387 -0.0247,-0.05891 -0.042,-0.02011 m 1.49966,0.160867 c -0.0702,0.106537 -0.12206,0.362301 -0.0222,0.435326 0.10019,0.07302 0.2466,0.132644 0.2466,0.132644 -0.46603,0.570442 -0.78458,0.679804 -1.05693,0.839613 -0.0705,0.04092 -0.0564,0.07796 -0.0155,0.06667 0.0212,-0.0056 0.38806,-0.06244 0.81562,-0.387705 0.23178,-0.176035 0.37219,-0.47625 0.37219,-0.47625 0,0 0.11571,0.09666 0.13123,0.116417 0.0353,0.04339 0.0543,0.07585 0.0713,0.02963 0.0607,-0.168978 -0.0254,-0.270933 -0.1076,-0.323495 0,0 0.0854,-0.263173 -0.0716,-0.527405 -0.0261,-0.04409 -0.18239,-0.185208 -0.36301,0.09455 m 0.24377,0.07232 c 0.10477,0.09772 0.0889,0.257882 0.0847,0.294569 0,0 -0.13406,-0.06244 -0.19403,-0.08819 -0.06,-0.02574 -0.0914,-0.06385 -0.0639,-0.101952 0.0924,-0.129823 0.13794,-0.12559 0.17322,-0.104423 m -9.44986,-0.1651 c -0.0462,0.132644 -0.23989,0.590198 -0.20637,1.127832 0.008,0.124528 0.0811,0.366535 0.24377,0.371474 0.084,-7.93e-4 0.19226,-0.07161 0.2674,-0.376414 0.0127,-0.06879 0.0208,-0.123825 0.0265,-0.15099 0.008,-0.04127 -0.019,-0.08996 -0.0455,0.0046 -0.0603,0.186619 -0.21907,0.318204 -0.34078,0.06914 -0.0194,-0.04974 -0.10195,-0.275519 0.043,-0.771525 0.0293,-0.09666 0.066,-0.23989 0.066,-0.23989 0.0328,-0.108302 -0.008,-0.166862 -0.054,-0.03422 m 1.6824,0.188736 c -0.0684,0.111831 -0.11289,0.376063 -0.008,0.447323 0.10512,0.07197 0.25717,0.127352 0.25717,0.127352 -0.45826,0.601488 -1.1049,1.173691 -1.37901,1.346554 -0.0702,0.04445 -0.0547,0.08184 -0.013,0.06914 0.0215,-0.0063 0.38594,-0.154517 0.81739,-0.497769 0.36336,-0.288573 0.69426,-0.878416 0.69426,-0.878416 0,0 0.12206,0.09525 0.13865,0.114651 0.0377,0.04374 0.0586,0.07585 0.0741,0.02822 0.0564,-0.175332 -0.0356,-0.27658 -0.12136,-0.327732 0,0 0.0783,-0.27305 -0.0917,-0.53834 -0.0286,-0.04445 -0.19297,-0.183795 -0.36865,0.109009 m 0.25188,0.06632 c 0.11113,0.09631 0.10054,0.261056 0.0974,0.298802 0,0 -0.1397,-0.05962 -0.20179,-0.08396 -0.0624,-0.02434 -0.096,-0.06209 -0.0688,-0.101951 0.0903,-0.136525 0.13652,-0.133705 0.17321,-0.11289 m 13.79432,-0.06703 c -0.0702,0.106892 -0.12242,0.363008 -0.0226,0.435679 0.10019,0.07338 0.24659,0.132646 0.24659,0.132646 -0.46567,0.570793 -1.38042,0.976842 -1.59808,1.146879 -0.0649,0.04904 -0.0564,0.07761 -0.0152,0.06668 0.0363,-0.0095 0.73307,-0.204611 1.37054,-0.750359 0.29175,-0.250118 0.28363,-0.269168 0.35807,-0.421216 0.0631,0.03316 0.10689,0.08573 0.13123,0.116416 0.0356,0.04375 0.0547,0.07585 0.0713,0.02999 0.061,-0.168981 -0.0254,-0.270933 -0.1076,-0.323498 0,0 0.0857,-0.262818 -0.0716,-0.52705 -0.0261,-0.0441 -0.18203,-0.18556 -0.36265,0.09384 m 0.24341,0.07303 c 0.10478,0.09737 0.0889,0.257527 0.0847,0.294217 0,0 -0.13406,-0.0628 -0.19403,-0.08855 -0.06,-0.0254 -0.091,-0.0635 -0.0635,-0.1016 0.0921,-0.129823 0.13758,-0.125235 0.17286,-0.104068 m -1.78858,-0.165807 c -0.18274,0.232834 -0.19473,0.53834 -0.21908,0.879827 -0.0261,-0.07126 -0.1718,-0.528812 -0.63958,-0.790575 -0.0339,-0.01939 -0.10301,0.01659 -0.10936,0.124532 -0.004,0.06279 -0.0219,0.215193 0.0226,0.258585 0.0441,0.04304 0.17497,0.127706 0.19649,0.1397 0.0222,0.01236 0.0455,0.01376 0.0522,-0.0127 0.007,-0.02574 0.0363,-0.08643 0.0787,-0.04304 0.0356,0.03598 0.266,0.226483 0.38559,0.630412 0.0208,0.05362 0.0702,0.05856 0.0818,-0.01693 0.0275,-0.186971 0.0423,-0.511527 0.0575,-0.609952 0.0208,-0.13829 0.0868,-0.423334 0.26176,-0.275167 0.0399,0.03387 0.0822,0.07832 0.0822,0.07832 0.0374,0.04657 0.0836,0.10019 0.10653,0.04586 0.0342,-0.08149 0.0621,-0.216958 0.0243,-0.289983 -0.0166,-0.03245 -0.23354,-0.307269 -0.38171,-0.118886 m -1.80022,-0.01093 c -0.0674,0.03951 -1.78753,1.032227 -1.85738,1.077384 -0.0695,0.0448 -0.0945,0.05644 -0.10548,0.110066 -0.0109,0.05362 -0.0169,0.08467 -0.0201,0.09348 -0.0123,0.03598 -0.0215,0.08043 0.0811,0.01304 0.0325,-0.02045 1.76213,-1.020233 1.82245,-1.058333 0.0586,-0.03598 0.0921,-0.0515 0.11536,-0.107244 0.0233,-0.05609 0.0293,-0.06562 0.042,-0.104423 0.013,-0.04163 0.0265,-0.08502 -0.078,-0.024 m -14.01269,0.08078 c -0.16263,0.233185 -0.15875,0.529167 -0.16545,0.859718 -0.0279,-0.06773 -0.18944,-0.502001 -0.64629,-0.732718 -0.0335,-0.01693 -0.0974,0.02117 -0.0981,0.12559 -0.001,0.06068 -0.0102,0.208491 0.0339,0.248002 0.0441,0.03986 0.17216,0.115006 0.19368,0.125941 0.0212,0.01058 0.0437,0.01058 0.0487,-0.01447 0.005,-0.02574 0.0303,-0.08573 0.073,-0.04586 0.0307,0.02857 0.27869,0.225425 0.36547,0.507648 0.073,0.245534 -0.51258,0.777169 -0.54363,0.801511 -0.0554,0.04374 -0.0356,0.0695 -0.01,0.05433 0.0257,-0.01588 0.0522,-0.02151 0.35489,-0.244121 0.24448,-0.179213 0.28752,-0.375004 0.30163,-0.524229 0.002,-0.0074 0.004,-0.01553 0.005,-0.0254 0.0173,-0.181679 0.0159,-0.495652 0.0251,-0.591254 0.013,-0.134057 0.0621,-0.412398 0.236,-0.27799 0.0392,0.03069 0.0815,0.07162 0.0815,0.07162 0.0377,0.04339 0.0847,0.09278 0.10371,0.03951 0.0286,-0.08043 0.0483,-0.212019 0.009,-0.281165 -0.0173,-0.03034 -0.23671,-0.285043 -0.36865,-0.09666 m 4.8454,0.157692 c -0.10936,0.137935 -0.1397,0.229306 -0.1711,0.287514 -0.0434,0.08008 0.0208,0.109713 0.0716,0.04586 0.0508,-0.06315 0.0847,-0.12559 0.24624,-0.132644 0.16157,-0.0074 0.5468,-0.0501 0.41028,0.06597 -0.13653,0.117123 -0.22966,0.185208 -0.22966,0.185208 -0.0889,0.07408 -0.16228,0.205669 -0.002,0.124177 0.16016,-0.08184 0.37077,-0.208492 0.51999,-0.473075 0.0438,-0.0769 0.0938,-0.17921 -0.13547,-0.19685 -0.2293,-0.01765 -0.60042,-0.0441 -0.71014,0.09384 m 2.68429,0.949325 c -0.0254,0.07938 -0.0445,0.140758 -0.01,0.231423 0.0346,0.09066 0.12771,0.296685 0.14323,0.325612 0.0152,0.02963 0.019,0.0628 -0.0321,0.08467 -0.0512,0.02151 -0.28504,0.07161 -0.32843,-0.1778 -0.0434,-0.249413 -0.0473,-0.322086 -0.0692,-0.364419 -0.0215,-0.04198 -0.042,-0.04727 -0.0589,-0.0049 -0.0162,0.04233 -0.0268,0.129117 -0.0293,0.14323 -0.003,0.01376 -0.003,0.02434 0.006,0.03951 0.009,0.01516 0.10231,0.293865 0.0603,0.370769 -0.0423,0.07691 -0.25223,0.214489 -0.36195,0.0702 -0.0526,-0.100542 -0.0205,-0.356658 -0.0205,-0.416631 0,-0.05997 -0.019,-0.08079 -0.0448,-0.0321 -0.0254,0.04868 -0.0392,0.08078 -0.0385,0.124177 0.001,0.04339 0.008,0.23001 0.004,0.288925 -0.004,0.05891 0,0.249414 0.11253,0.303035 0.11219,0.05327 0.27588,0.0035 0.3997,-0.230362 0.096,0.139345 0.2413,0.140052 0.31997,0.111477 0.0663,-0.02434 0.14041,-0.124177 0.16228,-0.262115 0.0215,-0.137935 -0.0141,-0.232479 -0.0579,-0.310444 -0.0572,-0.09596 -0.0956,-0.257175 -0.0956,-0.257175 -0.0204,-0.0575 -0.036,-0.116416 -0.0617,-0.03704 m 6.8132,0.167216 c -0.0346,0.08432 -0.1785,0.37465 -0.15663,0.716844 0.005,0.07937 0.0575,0.23354 0.17709,0.237773 0.0617,0 0.14111,-0.0448 0.19756,-0.238477 0.01,-0.0441 0.0159,-0.07902 0.0201,-0.09631 0.006,-0.02612 -0.0131,-0.05715 -0.0335,0.0028 -0.0448,0.118533 -0.16192,0.201438 -0.24976,0.04233 -0.0141,-0.0314 -0.073,-0.175683 0.0353,-0.490712 0.0219,-0.06138 0.0494,-0.152048 0.0494,-0.152048 0.0247,-0.06914 -0.005,-0.10654 -0.0395,-0.02222 m -9.85943,0.124177 -0.19509,0.267406 c -0.006,0.0081 -0.005,0.02011 0.003,0.02574 l 0.33302,0.243065 c 0.008,0.0056 0.0198,0.0035 0.0261,-0.0046 l 0.19474,-0.267759 c 0.006,-0.0085 0.005,-0.02011 -0.003,-0.02611 l -0.33302,-0.242358 c -0.008,-0.0064 -0.0198,-0.0039 -0.0257,0.0046 m -3.4551,0.131588 -0.19509,0.267404 c -0.006,0.0085 -0.005,0.02011 0.004,0.02574 l 0.33267,0.24271 c 0.008,0.0056 0.0198,0.0039 0.0261,-0.0046 l 0.19473,-0.267759 c 0.006,-0.0081 0.005,-0.01976 -0.003,-0.02574 l -0.33267,-0.24271 c -0.008,-0.006 -0.0198,-0.0039 -0.0261,0.0049 m 1.91559,0.805743 c -0.0286,0.09137 -0.15135,0.407459 -0.10936,0.769057 0.01,0.08361 0.0699,0.24412 0.18591,0.241652 0.06,-0.0035 0.13476,-0.05503 0.17815,-0.263525 0.007,-0.04692 0.0109,-0.08467 0.0138,-0.103011 0.004,-0.02787 -0.0162,-0.05997 -0.0321,0.0049 -0.0367,0.128058 -0.14605,0.222605 -0.2406,0.05856 -0.0159,-0.03246 -0.0822,-0.182388 0.005,-0.522113 0.0173,-0.06597 0.0388,-0.164042 0.0388,-0.164042 0.0198,-0.07443 -0.0113,-0.112887 -0.0395,-0.02151 m -2.94428,0.0829 c -0.0413,0.141113 -0.21907,0.627591 -0.15628,1.185688 0.0148,0.129116 0.10372,0.377118 0.27305,0.374295 0.0875,-0.0053 0.1965,-0.08502 0.25894,-0.406045 0.01,-0.07267 0.0155,-0.130175 0.0198,-0.15875 0.006,-0.04339 -0.0243,-0.09278 -0.0473,0.0071 -0.0529,0.197556 -0.21167,0.342548 -0.35066,0.08961 -0.0233,-0.0508 -0.121,-0.281516 0.004,-0.805391 0.0254,-0.1016 0.0561,-0.252942 0.0561,-0.252942 0.0286,-0.115006 -0.0162,-0.173919 -0.0579,-0.03352 m 7.38152,0.121357 -0.19508,0.267052 c -0.006,0.0088 -0.004,0.02045 0.004,0.02646 l 0.33302,0.242713 c 0.008,0.0056 0.0194,0.0035 0.0257,-0.0049 l 0.19474,-0.267406 c 0.006,-0.0085 0.005,-0.02011 -0.003,-0.02612 L 145.091,52.93585 c -0.008,-0.006 -0.0194,-0.0035 -0.0258,0.0049 m 10.26936,-1.092552 c -0.0321,0.07761 -0.16545,0.346779 -0.14534,0.663927 0.005,0.07338 0.0536,0.216252 0.16369,0.219782 0.0572,0 0.13088,-0.04163 0.18309,-0.22084 0.009,-0.04057 0.0148,-0.07267 0.0191,-0.0889 0.005,-0.02434 -0.0127,-0.05327 -0.031,0.0028 -0.042,0.109712 -0.15029,0.186266 -0.23143,0.0388 -0.013,-0.02893 -0.0681,-0.162629 0.0325,-0.454377 0.0205,-0.05644 0.0462,-0.140759 0.0462,-0.140759 0.0226,-0.06385 -0.005,-0.09878 -0.0367,-0.02045 m -6.20677,0.0081 -0.16827,0.230716 -0.3228,-0.235301 c -0.008,-0.006 -0.0194,-0.0039 -0.0257,0.0046 l -0.19544,0.267406 c -0.006,0.0088 -0.004,0.02045 0.004,0.02611 l 0.33232,0.24271 c 0.008,0.0056 0.0201,0.0035 0.0261,-0.0046 l 0.16828,-0.231072 0.32279,0.235657 c 0.008,0.0056 0.0198,0.0035 0.0261,-0.0046 l 0.19474,-0.267759 c 0.006,-0.0085 0.005,-0.02011 -0.003,-0.02574 l -0.33267,-0.24271 c -0.008,-0.006 -0.0198,-0.0039 -0.0261,0.0046 m 1.30351,0.41628 c -0.013,0.04515 -0.0455,0.239535 -0.0536,0.2794 -0.008,0.04022 -0.007,0.08008 0.0124,0.1143 0.0198,0.03422 0.0709,0.152752 0.10724,0.24906 0.0363,0.09631 0.41451,0.82409 0.44944,0.888648 0.0346,0.06456 0.042,0.112535 0.007,0.155221 -1.21285,1.279525 -3.55282,2.066221 -3.62796,2.109964 -0.0744,0.04339 -0.0547,0.07691 0.0713,0.05503 0.18803,-0.03316 1.23966,-0.208844 1.53917,-0.353132 0.19755,-0.09525 0.88794,-0.434268 1.45203,-0.876652 -0.0152,0.1143 -0.03,0.282223 -0.0219,0.495652 0.0377,1.0287 0.95814,0.857957 1.19944,0.805392 0.7239,-0.159102 1.60902,-1.159227 1.68381,-1.36031 0.0744,-0.198615 0.085,-0.37959 0.0684,-0.537634 0.19085,-0.103364 0.60007,-0.43321 0.60007,-0.43321 0.0166,0.438854 0.36583,0.570794 0.47343,0.589492 0.50377,0.07655 0.756,-0.344313 0.86325,-0.480483 0.0914,0.240241 0.31221,0.286808 0.42545,0.309737 0.43462,0.08608 0.51893,-0.221192 0.54151,-0.291394 0.13617,-0.423333 -0.10901,-0.739423 -0.14076,-0.774348 -0.0314,-0.03492 -0.0476,-0.0013 -0.0586,0.03916 -0.0109,0.04057 -0.0466,0.193323 -0.0684,0.288925 0,0 0.091,0.147815 0.12312,0.223309 0.0325,0.07585 -0.0155,0.116771 -0.109,0.128058 -0.26424,0.03246 -0.4752,-0.118885 -0.54787,-0.188735 -0.0723,-0.0702 0.006,-0.193675 0.0646,-0.341135 0.0469,-0.118182 -0.0402,-0.132292 -0.10654,-2.65e-4 -0.22401,0.588788 -0.53904,0.652288 -0.62159,0.674865 -0.74613,0.2032 -0.68157,-0.478719 -0.6791,-0.59055 0.002,-0.111832 -0.079,-0.07056 -0.1711,0.0032 -0.31397,0.252235 -0.56691,0.40005 -0.70273,0.461081 -0.11712,-0.229306 -0.28716,-0.372888 -0.35913,-0.424746 -0.80751,-0.588785 -0.87383,0.599017 -0.84984,0.726371 0.12312,0.505177 0.94791,0.199319 1.07774,0.183796 0.12876,-0.01516 0.0868,0.155575 0.0145,0.257175 -0.17921,0.250121 -0.38594,0.429683 -0.57291,0.582437 -0.79975,0.652286 -1.20121,0.601134 -1.32468,0.5969 -0.78529,-0.02222 -0.71332,-0.868539 -0.66922,-1.049514 0.23601,-0.200025 0.43885,-0.418042 0.55668,-0.64135 0.048,-0.123119 0.13123,-0.401815 -0.0183,-0.752123 -0.079,-0.153811 -0.32633,-0.585963 -0.32633,-0.585963 0,0 0.18204,0.0056 0.19968,0.0056 0.0169,-2.64e-4 0.0515,-0.01871 0.007,-0.06985 -0.0441,-0.0508 -0.42757,-0.433565 -0.4505,-0.463902 -0.0236,-0.03069 -0.0445,-0.05292 -0.0575,-0.0074 m 2.42181,1.752245 c 0,0 -0.10971,0.06315 -0.41698,0.04269 -0.25788,-0.01765 -0.23601,-0.117829 -0.20038,-0.155929 0.0381,-0.04163 0.35384,-0.240242 0.61736,0.113241 m -3.31611,-1.424516 c -0.0533,0.06597 -0.58984,0.769408 -0.58984,0.769408 l -0.38982,-0.277987 c 0,0 0.15875,-0.03951 0.18662,-0.04763 0.0279,-0.0081 0.0437,-0.0441 -0.006,-0.06985 -0.0501,-0.0254 -0.52035,-0.21308 -0.55598,-0.227542 -0.036,-0.01447 -0.0487,-0.03069 -0.0522,0.0074 -0.003,0.03775 -0.008,0.347837 -0.008,0.347837 0,0 -0.007,0.02117 0.0339,0.0448 0.0409,0.02328 0.0811,0.07303 0.11465,0.106537 0.0335,0.03352 0.47096,0.378884 0.49248,0.391232 0,0 -0.21873,0.384175 -0.24659,0.685448 -0.0282,0.300918 0.005,0.716137 0.41663,0.582083 0.11077,-0.0314 0.5715,-0.214841 0.67451,-0.536223 0.0335,-0.118533 0.12805,-0.331965 -0.0265,-0.548923 -0.0889,-0.127352 -0.44838,-0.342545 -0.44838,-0.342545 0,0 0.27552,-0.382059 0.30233,-0.428625 0.0261,-0.04692 0.12806,-0.342549 0.13899,-0.414515 0.0113,-0.07161 0.0166,-0.107244 -0.0363,-0.04092 m -0.0949,1.622425 c -0.1524,0.126296 -0.47343,0.2921 -0.56374,0.300566 -0.0903,0.0088 -0.32985,-0.03528 -0.22542,-0.280458 0.0353,-0.07973 0.27481,-0.48895 0.27481,-0.48895 0.0896,0.04868 0.66781,0.343255 0.51435,0.468842 m 6.23111,0.562329 c -0.031,0.08608 -0.043,0.142875 -0.0402,0.175329 0.004,0.03316 0.0148,0.1397 0.0148,0.1397 -0.0321,0.02574 -0.16862,0.111125 -0.30586,0.0099 0.009,-0.02858 0.0268,-0.08855 0.031,-0.121005 0.0148,-0.05044 -0.0162,-0.08819 -0.0409,-0.03563 -0.0251,0.05256 -0.0833,0.228245 -0.12665,0.267403 -0.0427,0.03951 -0.0931,0.184857 -0.4191,0.03704 -0.0572,-0.02188 -0.15699,-0.09595 -0.31256,0.06068 -0.35278,0.327728 -0.5962,0.353128 -0.99166,0.493887 -0.0476,0.02188 -0.14817,0.09701 -0.0286,0.08537 0.11888,-0.01199 0.61983,0 0.89288,-0.312915 0.0568,-0.05539 0.12241,-0.201435 0.33866,-0.116417 0.11995,0.04551 0.34184,0.235657 0.58385,-0.140403 0.14182,0.09489 0.35877,0.05715 0.39299,-0.04798 0.0346,-0.104069 0.0741,-0.208492 0.0737,-0.279752 -2.6e-4,-0.07091 -0.006,-0.164748 -0.006,-0.164748 -0.005,-0.05609 -0.0247,-0.136877 -0.0561,-0.05045 m -9.44562,0.34431 c -0.0413,0.07973 -0.2099,0.353835 -0.21837,0.69356 -0.002,0.07867 0.0363,0.23495 0.15346,0.249767 0.0607,0.0053 0.14323,-0.03175 0.21625,-0.218017 0.0134,-0.04163 0.0226,-0.0762 0.0282,-0.09243 0.008,-0.0254 -0.008,-0.0575 -0.0332,-2.64e-4 -0.0547,0.112887 -0.17815,0.184501 -0.25012,0.01976 -0.0113,-0.03281 -0.0571,-0.179917 0.0783,-0.481187 0.0272,-0.05856 0.0624,-0.14605 0.0624,-0.14605 0.0303,-0.06597 0.005,-0.10513 -0.037,-0.02506 m -4.72899,0.141816 c -0.0384,0.08184 -0.19685,0.361244 -0.19649,0.703086 0,0.07867 0.0413,0.23495 0.15698,0.246239 0.06,0.0039 0.14005,-0.03598 0.20708,-0.224718 0.0124,-0.04304 0.0205,-0.07761 0.0254,-0.09419 0.007,-0.0254 -0.009,-0.0575 -0.0324,7.94e-4 -0.0515,0.115006 -0.17004,0.1905 -0.24554,0.02717 -0.012,-0.03246 -0.0607,-0.17921 0.0642,-0.485423 0.0254,-0.05927 0.0579,-0.148167 0.0579,-0.148167 0.0279,-0.06703 0.002,-0.106185 -0.037,-0.02469 m -3.60009,0.313267 c -0.0748,0.02434 -0.91793,0.326319 -1.00048,0.359481 -0.0769,0.03069 -0.0977,0.05009 -0.11219,0.103363 -0.0148,0.05292 -0.0222,0.08361 -0.0257,0.09172 -0.0152,0.03563 -0.0335,0.06526 0.0797,0.01871 0.0554,-0.02257 0.88653,-0.30833 0.96485,-0.3429 0.0628,-0.02752 0.0949,-0.04586 0.1217,-0.10019 0.0268,-0.05398 0.0332,-0.0635 0.0483,-0.1016 0.0155,-0.04022 0.0342,-0.06456 -0.0762,-0.02858"
       style="fill:#231f20;fill-opacity:1;fill-rule:evenodd;stroke:none;stroke-width:0.264583"
       id="path1-3" />
  </g>
</svg>
