<?xml version="1.0" encoding="UTF-8" standalone="no"?>
<!-- Created with Inkscape (http://www.inkscape.org/) -->

<svg
   width="21.165817mm"
   height="6.41747mm"
   viewBox="0 0 21.165817 6.41747"
   version="1.1"
   id="svg1"
   xmlns:inkscape="http://www.inkscape.org/namespaces/inkscape"
   xmlns:sodipodi="http://sodipodi.sourceforge.net/DTD/sodipodi-0.dtd"
   xmlns="http://www.w3.org/2000/svg"
   xmlns:svg="http://www.w3.org/2000/svg">
  <sodipodi:namedview
     id="namedview1"
     pagecolor="#ffffff"
     bordercolor="#666666"
     borderopacity="1.0"
     inkscape:showpageshadow="2"
     inkscape:pageopacity="0.0"
     inkscape:pagecheckerboard="0"
     inkscape:deskcolor="#d1d1d1"
     inkscape:document-units="mm" />
  <defs
     id="defs1" />
  <g
     inkscape:label="Layer 1"
     inkscape:groupmode="layer"
     id="layer1"
     transform="translate(-114.32991,-78.945272)">
    <path
       d="m 123.02779,79.082865 c -0.0614,0.08784 -0.11042,0.301977 -0.0279,0.365831 0.0825,0.0635 0.20426,0.116417 0.20426,0.116417 -0.40358,0.470252 -0.96026,0.90805 -1.19274,1.036812 -0.0596,0.03281 -0.049,0.06421 -0.0141,0.05574 0.018,-0.0042 0.32314,-0.108302 0.69285,-0.368652 0.31151,-0.218723 0.60996,-0.6858 0.60996,-0.6858 0,0 0.0956,0.08361 0.10865,0.100542 0.0286,0.03739 0.0438,0.06456 0.0589,0.02646 0.0543,-0.140758 -0.0159,-0.2286 -0.0836,-0.274108 0,0 0.0773,-0.21943 -0.0494,-0.444855 -0.0212,-0.03775 -0.14958,-0.159808 -0.30692,0.07161 m 0.2032,0.06597 c 0.0861,0.08432 0.0692,0.218724 0.0649,0.249767 0,0 -0.11112,-0.05609 -0.16086,-0.07867 -0.0501,-0.02294 -0.0755,-0.05539 -0.0519,-0.08678 0.0804,-0.107598 0.11853,-0.102658 0.14781,-0.08432 m 4.5212,0.07514 c -0.0705,0.10654 -0.12241,0.362657 -0.0226,0.43533 0.10019,0.07373 0.24659,0.132643 0.24659,0.132643 -0.46601,0.571148 -0.78457,0.680157 -1.05692,0.83961 -0.0702,0.04092 -0.0564,0.07797 -0.0155,0.06703 0.0215,-0.006 0.38806,-0.0628 0.81633,-0.388056 0.23142,-0.175684 0.37147,-0.47625 0.37147,-0.47625 0,0 0.11607,0.09701 0.13194,0.116416 0.0346,0.04339 0.054,0.07585 0.0706,0.02963 0.061,-0.168627 -0.0254,-0.270582 -0.1076,-0.323144 0,0 0.0854,-0.263173 -0.0713,-0.527405 -0.0265,-0.04409 -0.18239,-0.18556 -0.36301,0.09419 m 0.24342,0.07267 c 0.10513,0.09737 0.0889,0.257527 0.0847,0.294217 0,0 -0.13406,-0.06279 -0.19403,-0.08855 -0.0596,-0.0254 -0.0914,-0.0635 -0.0635,-0.1016 0.0924,-0.129821 0.13758,-0.125235 0.17286,-0.104069 M 126.158,79.098033 c -0.0152,0.03987 -0.10442,0.306213 -0.10442,0.306213 0.0307,0.171096 0.3048,2.007304 0.32279,2.132894 0.0183,0.125235 0.39123,2.200627 0.42263,2.776715 -0.003,0.05891 0.0233,0.08008 0.0487,0.02294 0.0254,-0.05715 0.20108,-0.446617 -0.055,-1.85067 -0.0198,-0.116772 -0.41487,-2.489907 -0.41487,-2.489907 0,0 0.20144,0.179917 0.23424,0.212373 0.0328,0.03316 0.0706,0.0141 0.0512,-0.03951 -0.0198,-0.05327 -0.44838,-1.01882 -0.46249,-1.052335 -0.0138,-0.03387 -0.0272,-0.05786 -0.0427,-0.01871 m 8.11636,0.221546 c -0.0702,0.106537 -0.12241,0.362654 -0.0222,0.435327 0.10019,0.07373 0.24624,0.132998 0.24624,0.132998 -0.46566,0.570794 -1.38042,0.976842 -1.59808,1.146527 -0.0649,0.04903 -0.0564,0.07796 -0.0152,0.06703 0.0363,-0.0095 0.73342,-0.204962 1.37019,-0.750358 0.2921,-0.250471 0.28434,-0.269169 0.35877,-0.420862 0.0628,0.03245 0.10689,0.08537 0.13123,0.116062 0.0353,0.04339 0.0543,0.07585 0.0709,0.02963 0.061,-0.168627 -0.025,-0.270579 -0.10759,-0.323143 0,0 0.0857,-0.263174 -0.0716,-0.52705 -0.0261,-0.04445 -0.18168,-0.185915 -0.36265,0.09384 m 0.24341,0.07267 c 0.10478,0.09737 0.0893,0.257529 0.085,0.294571 0,0 -0.1337,-0.0628 -0.19403,-0.08855 -0.06,-0.02574 -0.0914,-0.06385 -0.0639,-0.101952 0.0924,-0.129823 0.13794,-0.125238 0.17286,-0.104071 m -9.40188,-0.212371 c -0.0155,0.03951 -0.1397,0.327377 -0.1397,0.327377 0.004,0.02328 0.036,0.09278 0.06,0.236715 0.0243,0.149225 0.0596,0.362654 0.0988,0.59831 0,0 0.52529,3.14466 0.53975,3.247319 0.0148,0.102306 0.0628,0.382765 -0.41592,0.405696 -0.0748,0.0039 -0.48754,0.08008 -0.65758,-0.447675 -0.0325,-0.09772 -0.19791,-1.019881 -0.25259,-1.208971 -0.0543,-0.189087 -0.29457,-1.014587 -0.56127,-1.290109 -0.0437,-0.0448 -0.042,-0.01516 -0.0476,0.01976 -0.006,0.03528 -0.0448,0.29069 -0.0448,0.29069 0.0473,0.106891 0.51506,1.210733 0.59938,1.811512 0.004,0.0628 0.0233,0.142171 -0.10972,0.301273 -0.13264,0.159456 -0.73801,0.800806 -1.34443,1.055865 -0.0734,0.03069 -0.29387,0.1397 -0.55175,-0.02082 -0.1143,-0.07162 -0.22578,-0.292452 -0.0706,-0.781402 0.003,-0.01093 0.006,-0.02082 0.007,-0.03069 0.17886,-0.08537 0.33126,-0.152048 0.42192,-0.175683 0.60149,-0.156281 0.92323,-0.0949 0.92323,-0.0949 l 0.14922,-0.381707 c 0,0 -0.79269,0.06526 -1.39841,-0.05256 -0.59761,-0.116064 -1.51977,-0.375356 -1.63724,-0.327731 -0.11748,0.04763 -0.51788,0.20461 -0.55986,0.229658 -0.0423,0.0254 -0.0702,0.0448 -0.0843,0.09243 -0.0138,0.04763 -0.0416,0.18768 -0.0501,0.226838 -0.008,0.03916 0.006,0.05045 0.0311,0.04198 0.025,-0.0085 0.60466,-0.06173 0.66604,-0.06173 0.0617,0 0.0984,-0.01093 0.11253,-0.03069 0.0138,-0.01939 0.0307,-0.05045 0.0307,-0.05045 0.32173,0.03351 1.28234,0.26035 1.30774,0.257529 0.0251,-0.0024 -1.18886,0.694971 -1.9939,0.781402 -0.18697,0.02011 -0.76235,0.137935 -1.10984,-0.289983 -0.23671,-0.291394 -0.3048,-0.744715 -0.32737,-0.951794 -0.0452,-0.412398 -0.0991,-1.005771 -0.11289,-1.223788 -0.0212,-0.327728 -0.14288,-1.909233 -0.36089,-2.418995 -0.0279,-0.05116 -0.0462,-0.06809 -0.0734,-0.0056 -0.0275,0.06244 -0.10795,0.28434 -0.10795,0.28434 0.29986,1.119365 0.38276,3.159477 0.46249,3.684765 0.0914,0.60607 0.27869,1.236837 0.92393,1.332793 0.63746,0.09454 1.18533,-0.09454 1.62419,-0.291393 0.26352,-0.11783 0.67274,-0.334082 1.02093,-0.505532 -0.004,0.01447 -0.008,0.02999 -0.0127,0.04692 -0.0737,0.298098 -0.15098,0.886883 0.15346,1.105958 0.0773,0.05574 0.46849,0.2413 1.04634,-0.218368 0.11289,-0.0889 0.74189,-0.558448 0.96167,-0.878769 0.0579,-0.08432 0.11395,-0.184504 0.13829,-0.294923 0,0 0.12136,0.460375 0.25753,0.625827 0.0314,0.03775 0.49283,0.574675 1.04387,-0.01622 0.0437,-0.04657 0.23318,-0.356658 0.16792,-0.906992 -0.0145,-0.126293 -0.51011,-3.148189 -0.51011,-3.148189 0,0 0.20108,0.181681 0.23353,0.214489 0.0318,0.03281 0.0702,0.01447 0.0512,-0.03951 -0.0194,-0.05327 -0.44168,-1.021998 -0.45509,-1.055513 -0.0138,-0.03387 -0.0268,-0.05785 -0.043,-0.01871 m 7.61365,0.04692 c -0.18344,0.232481 -0.19508,0.538692 -0.21943,0.879827 -0.0254,-0.07161 -0.1718,-0.529167 -0.63923,-0.790927 -0.0339,-0.01905 -0.10301,0.01693 -0.10936,0.124883 -0.004,0.06244 -0.0222,0.215194 0.0219,0.258234 0.0444,0.04339 0.17498,0.128058 0.1972,0.1397 0.0215,0.01236 0.0455,0.0141 0.0519,-0.01236 0.007,-0.02611 0.0367,-0.08678 0.079,-0.04304 0.0353,0.03598 0.26565,0.226484 0.38524,0.630061 0.0208,0.05397 0.0705,0.05891 0.0818,-0.01693 0.0275,-0.186973 0.0427,-0.511527 0.0575,-0.6096 0.0208,-0.13829 0.0868,-0.423333 0.26212,-0.275166 0.0399,0.03351 0.0818,0.07796 0.0818,0.07796 0.0374,0.04657 0.084,0.100187 0.10689,0.04621 0.0339,-0.08184 0.0617,-0.216958 0.0243,-0.289983 -0.0169,-0.03245 -0.23354,-0.307268 -0.38171,-0.118885 m -1.80058,-0.0113 c -0.0674,0.03987 -1.78752,1.03223 -1.85702,1.077384 -0.0699,0.0448 -0.0945,0.05645 -0.10583,0.110421 -0.0109,0.05362 -0.0166,0.08467 -0.0198,0.09349 -0.0127,0.03563 -0.0212,0.08008 0.0811,0.01304 0.0321,-0.02082 1.76177,-1.020585 1.82245,-1.058333 0.0582,-0.03634 0.0921,-0.05186 0.11536,-0.107596 0.0233,-0.05574 0.0293,-0.06562 0.0413,-0.104423 0.0134,-0.04127 0.0268,-0.08502 -0.0776,-0.024 m -10.99537,0.08291 c -0.16898,0.214487 -0.17956,0.496004 -0.20214,0.809977 -0.0236,-0.06597 -0.1584,-0.486834 -0.58879,-0.728134 -0.031,-0.01728 -0.0945,0.01587 -0.10054,0.115007 -0.004,0.05785 -0.0198,0.197908 0.0208,0.238125 0.0406,0.03951 0.16087,0.117475 0.18062,0.12841 0.0204,0.0113 0.0423,0.01304 0.0483,-0.0113 0.006,-0.02434 0.0332,-0.08008 0.0723,-0.03986 0.0328,0.03316 0.24518,0.208492 0.3549,0.580319 0.019,0.04939 0.0649,0.05398 0.0755,-0.01587 0.0254,-0.172157 0.0388,-0.470607 0.0526,-0.561269 0.0194,-0.127354 0.0804,-0.389466 0.2413,-0.253296 0.0363,0.03105 0.0758,0.07197 0.0758,0.07197 0.0339,0.04304 0.0769,0.09207 0.0977,0.04233 0.0314,-0.07514 0.0572,-0.19967 0.0226,-0.2667 -0.0152,-0.02998 -0.21519,-0.282927 -0.35101,-0.109712 m 2.48391,0.16792 c -0.0878,0.04516 -3.1489,1.716972 -3.23815,1.765655 -0.0893,0.04833 -0.11536,0.06914 -0.12876,0.13476 -0.0138,0.06526 -0.0205,0.10019 -0.0247,0.113948 -0.0127,0.04445 -0.0307,0.09066 0.0991,0.01622 0.0402,-0.02328 3.12561,-1.696508 3.19546,-1.742723 0.0699,-0.04621 0.11218,-0.06315 0.14111,-0.131585 0.0282,-0.06773 0.0353,-0.07973 0.0505,-0.127352 0.0162,-0.05045 0.0367,-0.09666 -0.0946,-0.02893 m 1.38113,0.457907 c -0.0251,0.0762 -0.043,0.13476 -0.0102,0.221543 0.0332,0.08678 0.12241,0.283988 0.13723,0.311857 0.0145,0.02857 0.0183,0.05997 -0.031,0.08078 -0.0487,0.02082 -0.27234,0.06879 -0.31432,-0.169685 -0.0416,-0.238832 -0.0452,-0.308327 -0.066,-0.348898 -0.0208,-0.04057 -0.0402,-0.04515 -0.0561,-0.0046 -0.0159,0.03987 -0.0261,0.123119 -0.0282,0.136525 -0.002,0.01341 -0.002,0.02363 0.006,0.0381 0.009,0.01482 0.0981,0.281517 0.0575,0.354894 -0.0402,0.07338 -0.24094,0.205317 -0.34607,0.06703 -0.0501,-0.09631 -0.0198,-0.341138 -0.0198,-0.39864 0,-0.0575 -0.0183,-0.07726 -0.0427,-0.03069 -0.0243,0.04657 -0.0377,0.07691 -0.0367,0.118885 0.001,0.04127 0.007,0.220134 0.004,0.276225 -0.004,0.05609 0,0.238832 0.10795,0.290338 0.10759,0.05115 0.26423,0.0032 0.38276,-0.220488 0.0917,0.13335 0.23107,0.133705 0.30586,0.10654 0.0639,-0.02363 0.13476,-0.118885 0.15557,-0.250825 0.0205,-0.132292 -0.0134,-0.222602 -0.0554,-0.297392 -0.0547,-0.09172 -0.0914,-0.245885 -0.0914,-0.245885 -0.0198,-0.05503 -0.0342,-0.111479 -0.0586,-0.03563 m -1.10878,1.521177 c -0.036,0.09349 -0.18944,0.418041 -0.14217,0.788106 0.0106,0.08537 0.0825,0.24906 0.22436,0.245182 0.0734,-0.0042 0.16546,-0.05786 0.22084,-0.271992 0.009,-0.04762 0.0141,-0.08643 0.018,-0.10513 0.006,-0.02893 -0.0194,-0.06138 -0.0395,0.0049 -0.0462,0.131585 -0.18028,0.229658 -0.29458,0.06315 -0.0187,-0.03352 -0.0981,-0.185915 0.0117,-0.534813 0.0226,-0.06773 0.0497,-0.168275 0.0497,-0.168275 0.0247,-0.0762 -0.0124,-0.115003 -0.0483,-0.02117 m -1.40688,0.06738 -0.19544,0.267406 c -0.006,0.0085 -0.005,0.02011 0.004,0.02612 l 0.33302,0.242713 c 0.008,0.006 0.0198,0.0039 0.0258,-0.0046 l 0.19473,-0.267403 c 0.007,-0.0088 0.005,-0.02011 -0.003,-0.02646 l -0.33267,-0.242358 c -0.008,-0.006 -0.0198,-0.0035 -0.0258,0.0046 m -1.78329,0.334786 c -0.0279,0.08431 -0.14816,0.375708 -0.10865,0.709437 0.01,0.0769 0.0677,0.224719 0.18062,0.222602 0.0582,-0.0035 0.13053,-0.05151 0.17321,-0.243768 0.007,-0.04339 0.0109,-0.07797 0.0134,-0.0949 0.005,-0.02574 -0.0155,-0.05539 -0.0311,0.0042 -0.036,0.118533 -0.14181,0.206023 -0.23389,0.05503 -0.0148,-0.02998 -0.0787,-0.167923 0.006,-0.481541 0.0173,-0.06103 0.0381,-0.151342 0.0381,-0.151342 0.0194,-0.06879 -0.0102,-0.104069 -0.0381,-0.01976 m -2.35902,-2.342444 c -0.0522,0.14111 -0.26776,0.626533 -0.24871,1.204735 0.005,0.133705 0.0741,0.395113 0.24412,0.405342 0.0878,0.0019 0.20285,-0.07126 0.28998,-0.396169 0.0152,-0.07373 0.0254,-0.132643 0.0318,-0.161573 0.01,-0.04374 -0.0169,-0.09701 -0.0476,0.0035 -0.0681,0.198967 -0.23813,0.335137 -0.35737,0.06456 -0.0191,-0.05362 -0.0988,-0.29845 0.0674,-0.826559 0.0332,-0.102306 0.0758,-0.255413 0.0758,-0.255413 0.037,-0.115358 -0.004,-0.179916 -0.0554,-0.03845 m -1.32857,0.05786 c -0.17427,0.221192 -0.18556,0.512233 -0.20849,0.836787 -0.0247,-0.06773 -0.16369,-0.50306 -0.60854,-0.752475 -0.0321,-0.01799 -0.0977,0.01622 -0.10407,0.118888 -0.004,0.05962 -0.0208,0.20461 0.0215,0.245885 0.0402,0.03951 0.34079,0.144992 0.1778,0.3175 -0.073,0.07691 -0.4385,0.457552 -0.51717,0.549275 -0.079,0.09172 -0.0861,0.108657 -0.002,0.06174 0.0847,-0.04692 0.5715,-0.236008 0.65229,-0.719666 0.007,-0.0635 -0.006,-0.110771 -0.0208,-0.142521 0.007,0.0013 0.0138,0.0056 0.0215,0.01376 0.0339,0.03422 0.25294,0.215545 0.36689,0.59972 0.0198,0.0508 0.0667,0.05609 0.078,-0.01659 0.0261,-0.177448 0.0402,-0.486482 0.0543,-0.579967 0.0201,-0.131233 0.0826,-0.402521 0.24942,-0.261763 0.0377,0.03211 0.078,0.07444 0.078,0.07444 0.0353,0.04445 0.0797,0.09525 0.10125,0.04374 0.0328,-0.07761 0.0593,-0.206375 0.0233,-0.275874 -0.0159,-0.03069 -0.22225,-0.2921 -0.36301,-0.112887 m 15.44743,1.007534 c -0.0346,0.08431 -0.17885,0.375002 -0.15698,0.717195 0.005,0.07937 0.0579,0.23354 0.17709,0.237421 0.0614,0 0.14111,-0.0448 0.19756,-0.238479 0.01,-0.04374 0.0162,-0.07902 0.0201,-0.09595 0.006,-0.02611 -0.013,-0.0575 -0.0332,0.0024 -0.0448,0.118885 -0.16227,0.20179 -0.25011,0.04269 -0.0141,-0.0314 -0.0734,-0.176035 0.0353,-0.490712 0.0219,-0.06103 0.0497,-0.1524 0.0497,-0.1524 0.0247,-0.06879 -0.005,-0.106539 -0.0395,-0.02223 m 3.30765,0.173212 c -0.0321,0.07832 -0.16581,0.347134 -0.14535,0.66393 0.005,0.07338 0.0533,0.216252 0.16369,0.219779 0.0572,0 0.13088,-0.04127 0.18309,-0.220837 0.009,-0.04022 0.0145,-0.07302 0.0187,-0.0889 0.006,-0.024 -0.0124,-0.05292 -0.031,0.0028 -0.0416,0.109714 -0.15029,0.186621 -0.23108,0.03916 -0.0134,-0.02893 -0.0684,-0.162629 0.0325,-0.454377 0.0201,-0.05644 0.0459,-0.14111 0.0459,-0.14111 0.0226,-0.0635 -0.005,-0.09842 -0.0363,-0.02045 m -6.20713,0.0085 -0.16792,0.230717 -0.32279,-0.235654 c -0.008,-0.0056 -0.0198,-0.0035 -0.0261,0.0049 l -0.19509,0.267406 c -0.006,0.0085 -0.005,0.02011 0.004,0.02612 l 0.33267,0.24271 c 0.008,0.006 0.0194,0.0035 0.0258,-0.0049 l 0.16862,-0.230716 0.3228,0.235656 c 0.008,0.006 0.0194,0.0035 0.0257,-0.0049 l 0.19509,-0.267404 c 0.006,-0.0085 0.005,-0.02011 -0.004,-0.02611 l -0.33267,-0.24271 c -0.008,-0.0056 -0.0198,-0.0035 -0.0261,0.0049 m 1.30387,0.415925 c -0.0134,0.04516 -0.0459,0.239889 -0.0536,0.280106 -0.008,0.03951 -0.007,0.07937 0.0123,0.113948 0.0198,0.03422 0.0709,0.152752 0.1069,0.248708 0.037,0.09631 0.41451,0.824442 0.44943,0.888646 0.0349,0.06456 0.0423,0.112538 0.007,0.155575 -1.2125,1.279173 -3.55283,2.066221 -3.62797,2.109613 -0.0744,0.04374 -0.0547,0.07761 0.0713,0.05539 0.18838,-0.03316 1.23966,-0.208844 1.53916,-0.353131 0.19756,-0.09525 0.8883,-0.433917 1.45239,-0.876652 -0.0155,0.1143 -0.03,0.282223 -0.0222,0.4953 0.0381,1.029406 0.9585,0.858308 1.1998,0.805391 0.72355,-0.15875 1.60832,-1.159227 1.68381,-1.359958 0.0744,-0.198615 0.0854,-0.37959 0.0681,-0.537985 0.19085,-0.103013 0.60007,-0.433213 0.60007,-0.433213 0.0169,0.438856 0.36583,0.570796 0.47343,0.589846 0.50377,0.07655 0.75635,-0.344313 0.86325,-0.480838 0.0914,0.240596 0.3122,0.287163 0.42545,0.30974 0.43462,0.08608 0.51893,-0.22084 0.54186,-0.291042 0.13618,-0.423685 -0.10936,-0.739423 -0.14111,-0.774348 -0.0314,-0.03528 -0.0476,-0.0013 -0.0586,0.03916 -0.0109,0.04057 -0.0466,0.193323 -0.0681,0.288925 0,0 0.091,0.147814 0.12313,0.223308 0.0321,0.0755 -0.0155,0.116417 -0.10901,0.128058 -0.26423,0.03211 -0.47555,-0.119237 -0.54822,-0.189087 -0.0723,-0.06985 0.006,-0.193323 0.0649,-0.340783 0.0469,-0.118534 -0.0402,-0.132646 -0.10689,-7.94e-4 -0.22437,0.58914 -0.53869,0.65264 -0.62159,0.675217 -0.74613,0.2032 -0.68157,-0.478719 -0.6791,-0.59055 0.002,-0.111832 -0.0787,-0.07056 -0.1711,0.0032 -0.31397,0.251883 -0.56656,0.400402 -0.70238,0.460727 -0.11747,-0.229304 -0.28751,-0.372534 -0.35948,-0.424744 -0.80751,-0.588433 -0.87348,0.599369 -0.84914,0.726723 0.12277,0.505177 0.94756,0.198967 1.07703,0.183796 0.12912,-0.01516 0.0871,0.155575 0.0145,0.256823 -0.17957,0.250118 -0.38594,0.430035 -0.57292,0.582435 -0.79974,0.65264 -1.20085,0.601133 -1.32468,0.5969 -0.78528,-0.02188 -0.71331,-0.868185 -0.66921,-1.04916 0.23565,-0.200025 0.4392,-0.418042 0.55703,-0.641702 0.048,-0.122767 0.13088,-0.401815 -0.0187,-0.751771 -0.079,-0.154163 -0.32631,-0.585963 -0.32631,-0.585963 0,0 0.18274,0.0056 0.19967,0.0053 0.0173,-2.64e-4 0.0519,-0.01834 0.007,-0.0695 -0.0441,-0.05115 -0.42757,-0.43321 -0.4505,-0.464256 -0.0236,-0.03069 -0.0445,-0.05256 -0.0572,-0.0074 m 2.42217,1.752248 c 0,0 -0.11042,0.0635 -0.41769,0.04304 -0.25788,-0.01765 -0.23565,-0.117829 -0.20037,-0.156281 0.0384,-0.04163 0.35418,-0.240242 0.61806,0.113241 m -17.53587,-1.472493 c -0.0413,0.144637 -0.21873,0.645229 -0.15452,1.220258 0.008,0.07479 0.0406,0.188383 0.097,0.273402 -0.15522,0.429683 -0.46319,1.688042 0.61278,2.021065 0.27481,0.08467 0.998,0.249412 2.31457,-0.720373 0.12559,-0.09243 0.73766,-0.472017 0.57397,-1.095375 -0.019,-0.08749 -0.36654,-0.888648 -0.36654,-0.888648 0.0822,0.03351 0.13512,0.04868 0.16405,0.06174 0.0289,0.0127 0.079,-0.01728 0.0332,-0.07761 -0.0455,-0.06068 -0.34749,-0.426154 -0.35596,-0.450144 -0.008,-0.024 -0.0215,-0.04233 -0.03,-0.07408 -0.008,-0.0321 -0.0296,-0.02611 -0.0423,2.64e-4 -0.0127,0.02681 -0.0907,0.288925 -0.0952,0.312563 -0.005,0.02434 0.0586,0.262819 0.0998,0.371121 0.10654,0.310091 0.33056,0.743304 0.36583,0.814564 0.0353,0.07126 0.097,0.187677 0.0173,0.294923 -0.0804,0.107244 -0.73307,0.754238 -1.82668,1.034344 -0.17216,0.0441 -0.89606,0.19826 -1.28658,-0.345017 -0.0589,-0.0822 -0.31539,-0.466018 -0.10619,-1.18251 0.0307,0.02223 0.0656,0.03563 0.10513,0.03528 0.0875,-0.0053 0.19649,-0.08678 0.25858,-0.41769 0.01,-0.07443 0.0152,-0.134054 0.0194,-0.163335 0.006,-0.04445 -0.0243,-0.09525 -0.0473,0.0071 -0.0526,0.203552 -0.21132,0.352425 -0.35137,0.09207 -0.0233,-0.05221 -0.12136,-0.289983 0.003,-0.829381 0.0254,-0.104775 0.0561,-0.260702 0.0561,-0.260702 0.0282,-0.117829 -0.0173,-0.178858 -0.0582,-0.03387 m 1.47073,0.0035 c -0.0279,0.08431 -0.14781,0.375709 -0.10795,0.709436 0.009,0.07691 0.067,0.224721 0.17991,0.222604 0.0579,-0.0035 0.13089,-0.05151 0.17357,-0.243771 0.007,-0.04339 0.0106,-0.07796 0.0138,-0.0949 0.004,-0.02611 -0.0159,-0.05539 -0.0314,0.0042 -0.036,0.118533 -0.14217,0.20602 -0.23389,0.05503 -0.0148,-0.02999 -0.079,-0.167571 0.006,-0.481542 0.0173,-0.06103 0.0381,-0.151341 0.0381,-0.151341 0.0194,-0.06879 -0.0102,-0.104071 -0.0384,-0.01977 m 12.74833,0.04445 c -0.0536,0.06632 -0.58949,0.769761 -0.58949,0.769761 l -0.39018,-0.277987 c 0,0 0.15875,-0.03987 0.18662,-0.04798 0.0275,-0.0081 0.0434,-0.04374 -0.006,-0.0695 -0.0505,-0.02574 -0.5207,-0.21308 -0.55633,-0.227897 -0.0356,-0.01447 -0.0487,-0.03069 -0.0519,0.0074 -0.003,0.03845 -0.008,0.347488 -0.008,0.347488 0,0 -0.007,0.02188 0.0335,0.04515 0.0416,0.02363 0.0818,0.07338 0.11535,0.106892 0.0335,0.03352 0.47096,0.378883 0.49213,0.39088 0,0 -0.21872,0.384526 -0.24659,0.685093 -0.0275,0.301273 0.006,0.716492 0.41663,0.58279 0.11077,-0.03175 0.5715,-0.214842 0.67451,-0.536223 0.0332,-0.118182 0.12841,-0.332317 -0.0261,-0.548923 -0.0892,-0.127352 -0.44873,-0.342546 -0.44873,-0.342546 0,0 0.27587,-0.382058 0.30233,-0.428979 0.0268,-0.04621 0.12806,-0.342546 0.139,-0.414161 0.0113,-0.07161 0.0173,-0.107598 -0.0363,-0.04128 m -0.0942,1.622777 c -0.15276,0.12559 -0.47413,0.291748 -0.56445,0.300567 -0.0903,0.0085 -0.32949,-0.03528 -0.22507,-0.280458 0.0353,-0.07973 0.27446,-0.489302 0.27446,-0.489302 0.0896,0.04939 0.66746,0.343606 0.51506,0.469193 m -12.38427,-0.100541 -0.19508,0.267758 c -0.006,0.0085 -0.005,0.02011 0.003,0.02574 l 0.33303,0.24271 c 0.008,0.0056 0.0198,0.0039 0.0257,-0.0049 l 0.19509,-0.267403 c 0.006,-0.0085 0.005,-0.02011 -0.003,-0.02574 l -0.33302,-0.242711 c -0.008,-0.006 -0.0198,-0.0039 -0.0257,0.0046 m 18.61467,0.662516 c -0.031,0.08608 -0.043,0.142875 -0.0402,0.175684 0.004,0.03316 0.0152,0.139348 0.0152,0.139348 -0.0324,0.02611 -0.16898,0.111125 -0.30585,0.01058 0.009,-0.02928 0.0272,-0.0889 0.0307,-0.121356 0.0152,-0.0508 -0.0162,-0.08819 -0.0409,-0.03598 -0.025,0.05257 -0.0829,0.228249 -0.12594,0.267759 -0.043,0.03916 -0.0938,0.184504 -0.4198,0.03669 -0.0572,-0.02151 -0.15699,-0.0956 -0.31256,0.06068 -0.35207,0.328084 -0.59585,0.353484 -0.99166,0.49389 -0.0476,0.02222 -0.14781,0.09737 -0.0286,0.08537 0.11924,-0.01164 0.62019,2.65e-4 0.89253,-0.312563 0.0575,-0.05539 0.12241,-0.201787 0.33902,-0.116768 0.11994,0.04551 0.34184,0.235656 0.58349,-0.140407 0.14253,0.09525 0.35913,0.05715 0.39406,-0.04727 0.0339,-0.104775 0.0737,-0.208846 0.0734,-0.279755 -2.7e-4,-0.07161 -0.007,-0.1651 -0.007,-0.1651 -0.005,-0.05644 -0.0247,-0.136876 -0.0561,-0.0508 m -10.59145,0.473075 c -0.0307,0.07479 -0.15875,0.332672 -0.13899,0.636413 0.005,0.0702 0.0508,0.207079 0.15663,0.210609 0.055,0 0.12559,-0.03951 0.17533,-0.211667 0.009,-0.03881 0.0145,-0.06985 0.018,-0.08502 0.006,-0.02328 -0.0117,-0.0508 -0.0296,0.0024 -0.0399,0.105127 -0.14358,0.178858 -0.22154,0.03775 -0.0127,-0.02822 -0.0649,-0.156278 0.031,-0.435678 0.0198,-0.05433 0.0441,-0.135115 0.0441,-0.135115 0.0219,-0.06103 -0.004,-0.09454 -0.0349,-0.01976 m -5.83812,0.356658 c -0.0773,0.03528 -1.17792,0.568679 -1.25694,0.606425 -0.0744,0.03634 -0.0942,0.0568 -0.10548,0.110421 -0.0109,0.05362 -0.0166,0.08502 -0.0198,0.09348 -0.0123,0.03598 -0.0215,0.06738 0.0811,0.01342 0.0339,-0.01799 1.15923,-0.554567 1.22167,-0.588082 0.0607,-0.0321 0.0921,-0.05186 0.11536,-0.107243 0.0236,-0.05574 0.0293,-0.06562 0.0416,-0.104423 0.013,-0.04127 0.0324,-0.07408 -0.0776,-0.024"
       style="fill:#231f20;fill-opacity:1;fill-rule:evenodd;stroke:none;stroke-width:0.264583"
       id="path1-6" />
  </g>
</svg>
