<?xml version="1.0" encoding="UTF-8" standalone="no"?>
<!-- Created with Inkscape (http://www.inkscape.org/) -->

<svg
   width="19.651442mm"
   height="6.170352mm"
   viewBox="0 0 19.651442 6.170352"
   version="1.1"
   id="svg1"
   xmlns:inkscape="http://www.inkscape.org/namespaces/inkscape"
   xmlns:sodipodi="http://sodipodi.sourceforge.net/DTD/sodipodi-0.dtd"
   xmlns="http://www.w3.org/2000/svg"
   xmlns:svg="http://www.w3.org/2000/svg">
  <sodipodi:namedview
     id="namedview1"
     pagecolor="#ffffff"
     bordercolor="#666666"
     borderopacity="1.0"
     inkscape:showpageshadow="2"
     inkscape:pageopacity="0.0"
     inkscape:pagecheckerboard="0"
     inkscape:deskcolor="#d1d1d1"
     inkscape:document-units="mm" />
  <defs
     id="defs1" />
  <g
     inkscape:label="Layer 1"
     inkscape:groupmode="layer"
     id="layer1"
     transform="translate(-111.38652,-73.669126)">
    <path
       d="m 116.95772,73.720748 c -0.0392,0.07091 -0.11642,0.315032 -0.11642,0.315032 0.23742,0.748241 0.39406,3.248025 0.45438,3.792008 0.0226,0.201435 0.0169,1.453092 1.27741,1.46191 0.14711,-0.0042 0.84949,0.02893 2.33539,-0.65546 0.2099,-0.09666 0.6096,-0.30339 1.21144,-0.358423 0.0335,0.286102 0.0575,0.53199 0.0621,0.679098 -0.005,0.05891 0.0208,0.08078 0.0476,0.02469 0.0177,-0.03704 0.10196,-0.212373 0.0988,-0.716492 0.16545,-0.0042 0.34502,0.0028 0.53763,0.02681 0.0632,-0.126293 0.17216,-0.365477 0.17216,-0.365477 -0.0536,-0.0019 -0.34925,-0.0092 -0.72566,-0.0321 -0.0155,-0.213079 -0.0438,-0.465666 -0.0903,-0.764471 -0.0162,-0.11712 -0.35066,-2.500135 -0.35066,-2.500135 0,0 0.19685,0.185208 0.22895,0.219075 0.0314,0.03352 0.0702,0.01516 0.0519,-0.03845 -0.018,-0.05398 -0.42192,-1.030113 -0.43497,-1.064331 -0.013,-0.03387 -0.0258,-0.05856 -0.0423,-0.01939 -0.0159,0.03916 -0.11218,0.303387 -0.11218,0.303387 0.0261,0.17145 0.25294,2.014363 0.26811,2.13995 0.01,0.07973 0.14006,0.940154 0.23954,1.708856 -0.49248,-0.03563 -1.05481,-0.09666 -1.39312,-0.200377 0.0339,-0.0628 0.18485,-0.390879 0.10513,-0.869598 -0.0504,-0.319264 -0.3676,-2.285293 -0.3676,-2.285293 0,0 0.19721,0.185208 0.22896,0.21872 0.0318,0.03316 0.0699,0.01588 0.0522,-0.0381 -0.0183,-0.05433 -0.37077,-0.923925 -0.38418,-0.958143 -0.013,-0.03387 -0.0257,-0.05856 -0.0423,-0.01939 -0.0162,0.03951 -0.1457,0.324908 -0.1457,0.324908 0.003,0.02328 0.0335,0.09313 0.0547,0.237419 0.0222,0.149931 0.0533,0.364066 0.0878,0.600426 0,0 0.3556,2.37349 0.3556,2.435225 0,0.06138 -0.037,0.09455 -0.0776,0.102307 -0.18097,0.06173 -1.02658,0.08255 -1.19486,0.29986 -0.0698,0.07796 -0.11077,0.287515 0.0328,0.250473 0.32844,-0.111125 1.63372,0.205317 1.63372,0.205317 -0.127,0.07761 -1.05269,0.51435 -2.03165,0.643818 -0.20884,0.02787 -1.01353,0.161925 -1.35043,-0.57432 -0.20567,-0.449792 -0.26176,-3.538008 -0.58667,-4.485923 -0.0455,-0.123119 -0.0501,-0.1143 -0.0896,-0.04339 m 1.71238,0.04163 c -0.18062,0.232482 -0.19191,0.538692 -0.21625,0.879475 -0.0254,-0.07126 -0.16933,-0.528812 -0.63006,-0.790575 -0.0335,-0.01905 -0.10125,0.01728 -0.1076,0.124532 -0.004,0.06315 -0.0215,0.215193 0.0219,0.258939 0.0438,0.04269 0.17216,0.127704 0.19368,0.1397 0.0219,0.01199 0.0452,0.01376 0.0519,-0.0127 0.006,-0.02611 0.0353,-0.08678 0.0773,-0.04304 0.0303,0.03104 0.27658,0.247298 0.35172,0.543276 0.0624,0.25753 -0.57044,0.776817 -0.60361,0.800807 -0.0593,0.04233 -0.0406,0.06985 -0.013,0.05503 0.0279,-0.01482 0.0554,-0.01905 0.37994,-0.233185 0.26176,-0.172863 0.31679,-0.37324 0.33902,-0.526698 0.003,-0.0074 0.005,-0.01588 0.007,-0.02611 0.0272,-0.186971 0.042,-0.511175 0.0564,-0.6096 0.0204,-0.138288 0.0857,-0.423334 0.25823,-0.275167 0.0392,0.03352 0.0808,0.07797 0.0808,0.07797 0.0367,0.04692 0.0825,0.100189 0.10512,0.04621 0.0335,-0.08149 0.061,-0.216958 0.0236,-0.289983 -0.0162,-0.03246 -0.23001,-0.306917 -0.37571,-0.118888 m 0.75601,0.76835 c -0.0349,0.08502 -0.17992,0.377121 -0.1577,0.721784 0.005,0.07973 0.0579,0.234598 0.1778,0.238831 0.0621,0 0.14253,-0.04516 0.19897,-0.240242 0.01,-0.04374 0.0162,-0.07902 0.0204,-0.09666 0.006,-0.02611 -0.0138,-0.0575 -0.0339,0.0028 -0.0452,0.11924 -0.16334,0.202848 -0.25118,0.04304 -0.0145,-0.0321 -0.0741,-0.177094 0.0356,-0.49389 0.0215,-0.06138 0.0497,-0.153458 0.0497,-0.153458 0.0243,-0.06879 -0.005,-0.106892 -0.0399,-0.02222 m 0.67769,1.061156 c -0.055,0.03387 -1.95439,0.98566 -2.11243,1.113367 -0.0787,0.06456 -0.14464,0.165806 -0.16757,0.276225 -0.0335,0.159456 0.006,0.3175 0.11007,0.334081 0.0727,0.0113 0.11394,0.05362 0.13264,0.07796 0.008,0.01024 0.0194,0.0032 0.0229,-0.0042 0.0822,-0.162277 0.008,-0.264935 -0.13229,-0.305152 -0.0561,-0.01553 -0.0808,-0.09278 0.12524,-0.225425 0.18979,-0.122415 1.90606,-0.99695 1.94839,-1.026231 0.0568,-0.03951 0.0914,-0.05468 0.11324,-0.112184 0.0222,-0.0568 0.0279,-0.06703 0.0395,-0.106537 0.0124,-0.04198 0.0243,-0.08678 -0.0797,-0.02188 m -1.42628,1.720498 c -0.0349,0.08467 -0.17991,0.376767 -0.15804,0.721429 0.006,0.07973 0.0579,0.234598 0.1778,0.238832 0.0621,-2.65e-4 0.14252,-0.04551 0.19932,-0.240242 0.01,-0.04374 0.0162,-0.07937 0.0201,-0.09631 0.006,-0.02646 -0.0134,-0.05786 -0.0335,0.0028 -0.0451,0.119237 -0.16298,0.202493 -0.25118,0.04233 -0.0145,-0.03175 -0.0741,-0.17639 0.0353,-0.493538 0.0219,-0.06138 0.0497,-0.153104 0.0497,-0.153104 0.0247,-0.0695 -0.005,-0.107246 -0.0395,-0.02223 m 4.61786,-3.383846 c -0.0702,0.10654 -0.12206,0.362657 -0.0222,0.435682 0.0998,0.07338 0.24624,0.132643 0.24624,0.132643 -0.46602,0.570796 -0.78458,0.679805 -1.05693,0.839613 -0.0702,0.04092 -0.0564,0.07761 -0.0152,0.06667 0.0212,-0.0056 0.38771,-0.0628 0.81598,-0.387705 0.23142,-0.176035 0.37147,-0.47625 0.37147,-0.47625 0,0 0.11607,0.09666 0.13194,0.116065 0.0346,0.04374 0.0543,0.07585 0.0706,0.02999 0.0607,-0.168978 -0.0254,-0.270933 -0.1076,-0.323495 0,0 0.0854,-0.263173 -0.0713,-0.52705 -0.0265,-0.0441 -0.18203,-0.185563 -0.36301,0.09384 m 0.24342,0.07267 c 0.10512,0.09772 0.0889,0.257882 0.085,0.294569 0,0 -0.13406,-0.06279 -0.19403,-0.08855 -0.06,-0.0254 -0.0917,-0.0635 -0.0639,-0.1016 0.0924,-0.129823 0.13793,-0.125238 0.17286,-0.104423 m -8.70197,-0.128765 c -0.15663,0.204259 -0.16616,0.473075 -0.18697,0.772584 -0.0222,-0.06279 -0.14711,-0.464609 -0.54646,-0.694971 -0.0289,-0.01659 -0.0878,0.01482 -0.0935,0.109712 -0.003,0.05503 -0.0187,0.18909 0.0191,0.226838 0.0381,0.0381 0.14958,0.112536 0.16827,0.123119 0.0187,0.01058 0.0388,0.01236 0.0445,-0.01093 0.005,-0.02294 0.031,-0.0762 0.0674,-0.0381 0.0303,0.03175 0.22684,0.199318 0.32914,0.55386 0.0177,0.04727 0.06,0.05186 0.0702,-0.01482 0.0233,-0.164393 0.0363,-0.44944 0.0487,-0.535868 0.018,-0.121357 0.0741,-0.371475 0.22366,-0.2413 0.0342,0.02928 0.0702,0.06844 0.0702,0.06844 0.0318,0.04092 0.0716,0.0882 0.091,0.04057 0.0293,-0.07161 0.0529,-0.190855 0.0208,-0.254706 -0.0141,-0.02858 -0.19967,-0.269875 -0.32596,-0.104424 m 14.98106,0.151697 c -0.0706,0.106891 -0.12277,0.362653 -0.0229,0.435678 0.10054,0.07338 0.24659,0.132647 0.24659,0.132647 -0.46567,0.570793 -1.38042,0.976841 -1.59808,1.146526 -0.0646,0.04939 -0.0561,0.07797 -0.0148,0.06738 0.036,-0.0099 0.73272,-0.204965 1.37019,-0.750713 0.2921,-0.250119 0.28398,-0.269169 0.35842,-0.420862 0.0631,0.03281 0.10654,0.08537 0.13159,0.116062 0.0349,0.04375 0.054,0.0762 0.0705,0.02999 0.0614,-0.168981 -0.025,-0.270581 -0.10724,-0.323146 0,0 0.0854,-0.263525 -0.0716,-0.527402 -0.0265,-0.0441 -0.18238,-0.18556 -0.36265,0.09384 m 0.24306,0.07267 c 0.10513,0.09772 0.0889,0.257882 0.085,0.294571 0,0 -0.13405,-0.06244 -0.19438,-0.0882 -0.0593,-0.02574 -0.091,-0.06385 -0.0632,-0.101952 0.0924,-0.129823 0.13759,-0.12559 0.17251,-0.104423 m -1.78823,-0.165452 c -0.18309,0.232834 -0.19508,0.539044 -0.21907,0.879827 -0.0258,-0.07126 -0.17216,-0.528812 -0.63959,-0.790927 -0.0339,-0.01871 -0.10301,0.01728 -0.10936,0.125235 -0.004,0.06244 -0.0219,0.214842 0.0222,0.258234 0.0441,0.04339 0.17498,0.127706 0.1965,0.1397 0.0222,0.01236 0.0459,0.01376 0.0526,-0.01236 0.006,-0.02611 0.0363,-0.08678 0.0787,-0.04339 0.0353,0.03633 0.26564,0.226483 0.38558,0.630412 0.0208,0.05362 0.0702,0.05891 0.0818,-0.01728 0.0275,-0.186619 0.0423,-0.511527 0.0572,-0.609248 0.0212,-0.138642 0.0871,-0.423685 0.26211,-0.275519 0.0402,0.03387 0.0818,0.07796 0.0818,0.07796 0.0374,0.04692 0.084,0.100542 0.10654,0.04621 0.0346,-0.08149 0.0621,-0.216604 0.0247,-0.289629 -0.0169,-0.03281 -0.23389,-0.307623 -0.38171,-0.119239 m -1.80058,-0.01093 c -0.0674,0.03951 -1.78752,1.032227 -1.85702,1.077384 -0.0699,0.0448 -0.0945,0.05609 -0.10583,0.110418 -0.0109,0.05292 -0.0166,0.08467 -0.0194,0.09313 -0.013,0.03598 -0.0219,0.08043 0.0808,0.01304 0.0321,-0.02082 1.76177,-1.020233 1.82245,-1.058333 0.0582,-0.03634 0.0917,-0.05186 0.11571,-0.107595 0.0229,-0.05574 0.0289,-0.06526 0.0413,-0.104072 0.0134,-0.04127 0.0265,-0.08502 -0.078,-0.024 m -10.48102,0.0254 c -0.0367,0.09066 -0.19156,0.402166 -0.16793,0.76976 0.006,0.08502 0.0617,0.250473 0.1898,0.254706 0.066,0 0.15134,-0.04798 0.21202,-0.255764 0.0106,-0.04692 0.0173,-0.08467 0.0215,-0.103365 0.006,-0.02787 -0.0145,-0.06103 -0.0356,0.0032 -0.0487,0.127 -0.17427,0.216254 -0.26811,0.04551 -0.0152,-0.03387 -0.079,-0.188383 0.0377,-0.526695 0.0233,-0.06562 0.0529,-0.162984 0.0529,-0.162984 0.0261,-0.07444 -0.005,-0.114654 -0.0423,-0.02434 m -3.28013,0.422275 c -0.0409,0.124529 -0.21802,0.556683 -0.15946,1.049866 0.0138,0.1143 0.0995,0.333375 0.266,0.329846 0.0857,-0.0053 0.19332,-0.0762 0.25611,-0.360892 0.0102,-0.06385 0.0159,-0.115358 0.0198,-0.140404 0.007,-0.03845 -0.0229,-0.08185 -0.0459,0.0064 -0.0533,0.175329 -0.20955,0.304446 -0.34502,0.08114 -0.0222,-0.04445 -0.11677,-0.248353 0.009,-0.71261 0.0257,-0.09031 0.0568,-0.224366 0.0568,-0.224366 0.0286,-0.1016 -0.0155,-0.153459 -0.0571,-0.02893 m 1.53705,0.862893 c -0.037,0.09031 -0.19191,0.402167 -0.16828,0.769409 0.006,0.08467 0.0617,0.250118 0.1898,0.255058 0.066,-2.65e-4 0.15169,-0.04833 0.21202,-0.256469 0.0106,-0.04657 0.0173,-0.08467 0.0215,-0.102658 0.007,-0.02857 -0.0141,-0.06138 -0.0356,0.0028 -0.0483,0.127355 -0.17428,0.216255 -0.26811,0.04551 -0.0152,-0.03387 -0.0787,-0.188383 0.0377,-0.526695 0.0233,-0.06562 0.0533,-0.163338 0.0533,-0.163338 0.0261,-0.07373 -0.005,-0.113945 -0.0423,-0.02363 m 12.55465,0.0441 c -0.0346,0.08467 -0.1785,0.375002 -0.15698,0.71755 0.006,0.07902 0.0579,0.233185 0.17709,0.237418 0.0617,0 0.14147,-0.0448 0.19756,-0.238476 0.0102,-0.0441 0.0162,-0.07902 0.0201,-0.09596 0.006,-0.02646 -0.0131,-0.0575 -0.0332,0.0024 -0.0451,0.118534 -0.16227,0.20179 -0.24976,0.04269 -0.0145,-0.03175 -0.0734,-0.175683 0.0349,-0.491066 0.0219,-0.06103 0.0497,-0.152049 0.0497,-0.152049 0.0243,-0.06914 -0.005,-0.106891 -0.0395,-0.02257 m 3.30729,0.173212 c -0.0317,0.07832 -0.16545,0.347133 -0.14499,0.664281 0.005,0.07338 0.0533,0.2159 0.16369,0.219781 0.0572,-2.64e-4 0.13088,-0.04127 0.18309,-0.220839 0.009,-0.04057 0.0148,-0.07303 0.0187,-0.0889 0.005,-0.02434 -0.012,-0.05292 -0.031,0.0024 -0.0413,0.109715 -0.14993,0.186621 -0.23107,0.03951 -0.0134,-0.02928 -0.0684,-0.162632 0.0321,-0.45438 0.0205,-0.0568 0.0462,-0.14111 0.0462,-0.14111 0.0229,-0.06385 -0.004,-0.09842 -0.0367,-0.02082 m -6.20678,0.0085 -0.16827,0.231071 -0.32279,-0.235656 c -0.008,-0.0056 -0.0194,-0.0039 -0.0257,0.0046 l -0.19508,0.267758 c -0.006,0.0085 -0.004,0.01976 0.004,0.02574 l 0.33266,0.242711 c 0.008,0.006 0.0198,0.0039 0.0261,-0.0046 l 0.16827,-0.230716 0.32279,0.235302 c 0.008,0.006 0.0198,0.0039 0.0261,-0.0046 l 0.19438,-0.267406 c 0.006,-0.0085 0.005,-0.02045 -0.003,-0.02611 l -0.33303,-0.24271 c -0.008,-0.0056 -0.0194,-0.0039 -0.0261,0.0046 m -7.8613,0.08008 -0.19509,0.267406 c -0.006,0.0088 -0.005,0.02011 0.004,0.02612 l 0.33267,0.242713 c 0.008,0.006 0.0198,0.0039 0.0257,-0.0049 L 116.405,75.80068 c 0.006,-0.0085 0.005,-0.02011 -0.004,-0.02612 l -0.333,-0.242474 c -0.008,-0.006 -0.0198,-0.0035 -0.0261,0.0046 m -4.49933,0.0956 c -0.0377,0.113596 -0.19861,0.505531 -0.14534,0.954265 0.0124,0.103716 0.0903,0.302331 0.24165,0.299508 0.0783,-0.0049 0.17569,-0.0695 0.23284,-0.328083 0.009,-0.05821 0.0145,-0.104423 0.0183,-0.127352 0.006,-0.03493 -0.0212,-0.07444 -0.042,0.0056 -0.0487,0.159457 -0.1905,0.276577 -0.31362,0.07373 -0.0204,-0.04022 -0.10583,-0.225425 0.008,-0.6477 0.0233,-0.08185 0.0515,-0.2032 0.0515,-0.2032 0.0257,-0.09278 -0.0141,-0.1397 -0.0515,-0.02681 m 13.66415,0.240596 c -0.013,0.04515 -0.0455,0.239887 -0.0533,0.280104 -0.008,0.03951 -0.007,0.07937 0.0127,0.113596 0.0198,0.03422 0.0702,0.152752 0.10653,0.24906 0.0367,0.09631 0.41452,0.82409 0.44944,0.888649 0.0349,0.06456 0.042,0.112535 0.007,0.15522 -1.2125,1.27988 -3.55283,2.066573 -3.62762,2.109613 -0.0748,0.04374 -0.055,0.07761 0.0709,0.05539 0.18803,-0.03281 1.23966,-0.208492 1.53953,-0.352777 0.19755,-0.0956 0.88758,-0.434271 1.45203,-0.876654 -0.0155,0.113948 -0.03,0.281871 -0.0222,0.4953 0.0381,1.0287 0.9585,0.858308 1.1998,0.805039 0.72355,-0.15875 1.60867,-1.158875 1.68381,-1.359958 0.0741,-0.198615 0.085,-0.37959 0.0684,-0.537985 0.1905,-0.103013 0.59972,-0.432858 0.59972,-0.432858 0.0169,0.438853 0.36618,0.570441 0.47343,0.589843 0.50376,0.0762 0.756,-0.344665 0.86325,-0.48119 0.0917,0.240597 0.3122,0.287163 0.4258,0.30974 0.43427,0.08643 0.51893,-0.22084 0.54116,-0.29069 0.13652,-0.423685 -0.10866,-0.739775 -0.14041,-0.7747 -0.0317,-0.03493 -0.048,-0.0013 -0.0589,0.03916 -0.0109,0.04057 -0.0462,0.193323 -0.0681,0.288925 0,0 0.0907,0.147814 0.12312,0.223308 0.0325,0.0755 -0.0155,0.116771 -0.10901,0.128058 -0.26423,0.03246 -0.47519,-0.118885 -0.54821,-0.189087 -0.0723,-0.0695 0.006,-0.193323 0.0646,-0.340783 0.0469,-0.118182 -0.0399,-0.132646 -0.10654,-2.65e-4 -0.22402,0.588788 -0.5387,0.652288 -0.62125,0.674865 -0.74612,0.2032 -0.68191,-0.478718 -0.67909,-0.59055 0.002,-0.111477 -0.079,-0.07056 -0.17145,0.0035 -0.31362,0.251883 -0.56692,0.40005 -0.70238,0.46073 -0.11748,-0.228955 -0.28752,-0.372888 -0.35913,-0.424747 -0.80751,-0.588785 -0.87418,0.599017 -0.84949,0.726372 0.12242,0.505176 0.94756,0.198966 1.07703,0.183795 0.12912,-0.01516 0.0871,0.155575 0.0145,0.256823 -0.17921,0.250473 -0.38558,0.430035 -0.57255,0.582435 -0.8001,0.652992 -1.20121,0.601134 -1.32468,0.597255 -0.78529,-0.02223 -0.71367,-0.86854 -0.66958,-1.049515 0.23601,-0.200025 0.43886,-0.41769 0.55704,-0.641702 0.048,-0.122766 0.13088,-0.401815 -0.0183,-0.751416 -0.079,-0.153813 -0.32667,-0.586317 -0.32667,-0.586317 0,0 0.18203,0.0056 0.20003,0.0053 0.0173,-2.65e-4 0.0515,-0.01799 0.007,-0.06915 -0.0441,-0.0515 -0.42757,-0.433562 -0.4505,-0.464253 -0.0233,-0.03069 -0.0444,-0.05256 -0.0575,-0.0074 m 2.42217,1.751894 c 0,0 -0.10971,0.0635 -0.41733,0.04304 -0.25788,-0.01728 -0.23566,-0.11783 -0.20003,-0.156282 0.0381,-0.04127 0.35384,-0.240242 0.61736,0.113242 m -11.20563,-1.481667 -0.16863,0.230717 -0.32279,-0.235302 c -0.008,-0.006 -0.0198,-0.0039 -0.0257,0.0046 l -0.19509,0.267407 c -0.006,0.0085 -0.005,0.02045 0.004,0.02574 l 0.33232,0.243064 c 0.008,0.0056 0.0198,0.0035 0.0261,-0.0046 l 0.16828,-0.231068 0.32314,0.235656 c 0.008,0.0056 0.0194,0.0035 0.0257,-0.0046 l 0.19474,-0.267404 c 0.006,-0.0088 0.005,-0.02045 -0.003,-0.02646 l -0.33267,-0.242359 c -0.008,-0.006 -0.0198,-0.0039 -0.0257,0.0046 m 7.88917,0.05715 c -0.0533,0.06632 -0.58985,0.770114 -0.58985,0.770114 l -0.38982,-0.277989 c 0,0 0.15911,-0.03987 0.18662,-0.04798 0.0279,-0.0081 0.0437,-0.0441 -0.006,-0.06985 -0.0504,-0.0254 -0.5207,-0.21308 -0.55633,-0.227542 -0.036,-0.01447 -0.0487,-0.03105 -0.0519,0.0074 -0.003,0.0381 -0.008,0.347486 -0.008,0.347486 0,0 -0.007,0.02188 0.0339,0.04516 0.0409,0.02328 0.0815,0.07303 0.11465,0.106537 0.0339,0.03352 0.47131,0.378883 0.49248,0.39088 0,0 -0.21872,0.384878 -0.24659,0.685445 -0.0275,0.300921 0.005,0.71614 0.41663,0.582438 0.11077,-0.03175 0.5715,-0.214842 0.67451,-0.536223 0.0335,-0.117827 0.12841,-0.331965 -0.0261,-0.548923 -0.0889,-0.127352 -0.44873,-0.342546 -0.44873,-0.342546 0,0 0.27623,-0.381706 0.30233,-0.428625 0.0268,-0.04657 0.12806,-0.342548 0.139,-0.414514 0.0113,-0.07161 0.0173,-0.107244 -0.0363,-0.04127 m -0.0942,1.622776 c -0.15311,0.125942 -0.47413,0.291748 -0.56444,0.300922 -0.0903,0.0085 -0.3295,-0.03563 -0.22543,-0.280813 0.0356,-0.07937 0.27481,-0.48895 0.27481,-0.48895 0.0896,0.04904 0.66781,0.343254 0.51506,0.468841 m -11.04018,-1.624893 -0.16827,0.230717 -0.32315,-0.235302 c -0.008,-0.006 -0.0194,-0.0039 -0.0257,0.0046 l -0.19474,0.267406 c -0.006,0.0088 -0.005,0.02045 0.003,0.02611 l 0.33267,0.242713 c 0.008,0.0056 0.0198,0.0039 0.0257,-0.0046 l 0.16863,-0.231068 0.32279,0.235656 c 0.008,0.0056 0.0198,0.0039 0.0257,-0.0046 L 113.54,76.462448 c 0.006,-0.0085 0.005,-0.02045 -0.004,-0.02611 l -0.33267,-0.24271 c -0.008,-0.006 -0.0194,-0.0039 -0.0257,0.0046 m 2.07504,0.309033 c -0.0744,0.02469 -1.08762,0.500944 -1.17017,0.534107 -0.0769,0.03069 -0.0977,0.05044 -0.11218,0.10301 -0.0148,0.05292 -0.0222,0.08361 -0.0261,0.09207 -0.0148,0.03493 -0.0332,0.06527 0.0804,0.01834 0.055,-0.02257 1.05586,-0.4826 1.13383,-0.51717 0.0631,-0.02716 0.0949,-0.04586 0.12206,-0.10019 0.0268,-0.05397 0.0332,-0.0635 0.0483,-0.101248 0.0159,-0.04057 0.0346,-0.06491 -0.0762,-0.02893 m 1.36172,0.860777 c -0.0159,0.03316 -0.0681,0.236715 -0.0681,0.236715 0.0466,0.130175 0.15733,0.386291 0.10865,0.437091 -0.0487,0.05045 -0.36477,0.263877 -0.66005,0.110774 -0.0579,-0.02999 -0.23706,-0.140055 -0.25647,-0.40993 0.0176,-0.05045 0.01,-0.01939 0.0293,-0.07761 0.0198,-0.05821 -0.01,-0.122415 -0.0663,-0.06597 -0.0561,0.05609 -0.27763,0.392642 -0.55527,0.543629 -0.0914,0.04939 -0.85972,0.442383 -1.33562,-0.201787 -0.0727,-0.09807 -0.18768,-0.276931 -0.22436,-0.333023 -0.0363,-0.05609 -0.13159,-0.148519 -0.30798,-0.05891 -0.10724,0.05468 -0.22825,0.154871 -0.32279,0.250825 -0.061,0.06138 -0.19226,0.267758 -0.23107,0.354542 -0.10301,0.231423 -0.24448,0.583496 -0.27481,0.646641 -0.042,0.08678 -0.21026,0.44803 -0.51823,0.182034 -0.30798,-0.266346 -0.3803,-0.469546 -0.40605,-1.168046 -0.003,-0.07267 -0.0282,-0.176741 -0.0617,-0.0028 -0.0335,0.173567 -0.10371,1.263298 0.48719,1.585032 0.11218,0.06138 0.34184,0.165452 0.48471,-0.08678 0.0586,-0.103364 0.20426,-0.593725 0.29669,-0.769763 0.0924,-0.176741 0.32209,-0.451553 0.48719,-0.577143 0.0896,-0.05891 0.1905,-0.129117 0.27728,0.01659 0.0871,0.14605 0.35278,0.729544 1.01953,0.722842 0.70838,-0.0074 1.06151,-0.597255 1.06151,-0.597255 0.0233,0.0508 0.11818,0.540809 0.68509,0.473782 0.0646,-0.0074 0.44662,-0.01728 0.54575,-0.576792 0.0155,-0.08714 0.0586,-0.372181 -0.14923,-0.667808 -0.0215,-0.03104 -0.0293,0 -0.0448,0.03316 m 13.83418,1.017413 c -0.0314,0.08608 -0.0434,0.14252 -0.0406,0.175683 0.004,0.03245 0.0152,0.138994 0.0152,0.138994 -0.0321,0.02611 -0.16898,0.111125 -0.3055,0.01093 0.009,-0.02963 0.0265,-0.0889 0.0307,-0.121708 0.0148,-0.05045 -0.0166,-0.08819 -0.0413,-0.03598 -0.025,0.05257 -0.0829,0.2286 -0.12594,0.267759 -0.0434,0.03951 -0.0935,0.184504 -0.4198,0.03704 -0.0568,-0.02188 -0.15664,-0.09595 -0.31256,0.06068 -0.35243,0.328083 -0.5962,0.353483 -0.99131,0.493535 -0.048,0.02222 -0.14817,0.09772 -0.0289,0.08572 0.11924,-0.01199 0.62019,2.65e-4 0.89288,-0.312915 0.0572,-0.05539 0.12242,-0.201435 0.33902,-0.116416 0.11995,0.04551 0.34149,0.235656 0.5835,-0.140404 0.14252,0.0949 0.35877,0.0568 0.39334,-0.04798 0.0342,-0.10442 0.0741,-0.208491 0.0737,-0.2794 -2.6e-4,-0.07126 -0.006,-0.1651 -0.006,-0.1651 -0.005,-0.05609 -0.0247,-0.136876 -0.0561,-0.05044 m -16.42745,0.549627 c -0.0744,0.02434 -1.08761,0.500592 -1.17016,0.5334 -0.0769,0.03069 -0.0977,0.0508 -0.11218,0.103365 -0.0148,0.05256 -0.0222,0.08361 -0.0258,0.09208 -0.0148,0.03493 -0.0332,0.06526 0.0801,0.01833 0.055,-0.02294 1.05551,-0.4826 1.13383,-0.517173 0.0632,-0.02752 0.0953,-0.04586 0.12206,-0.100187 0.0268,-0.05398 0.0335,-0.0635 0.048,-0.1016 0.0162,-0.04022 0.0349,-0.06456 -0.0758,-0.02822 m 3.17571,0.0127 c -0.0776,0.03528 -0.82092,0.384527 -0.89994,0.422627 -0.0744,0.03563 -0.0942,0.05645 -0.10548,0.110067 -0.0113,0.05362 -0.0169,0.08467 -0.0198,0.09349 -0.0127,0.03598 -0.0215,0.06738 0.0811,0.01341 0.0339,-0.01799 0.80187,-0.370062 0.86501,-0.403929 0.0603,-0.03175 0.0914,-0.05151 0.11501,-0.107598 0.0233,-0.05574 0.0293,-0.06526 0.0416,-0.104423 0.0134,-0.04092 0.0324,-0.07408 -0.0776,-0.02363 m -1.82563,0.186267 -0.16827,0.230717 -0.32315,-0.235302 c -0.008,-0.006 -0.0194,-0.0039 -0.0257,0.0046 l -0.19509,0.267407 c -0.006,0.0085 -0.005,0.02045 0.004,0.02611 l 0.33267,0.242713 c 0.008,0.0056 0.0198,0.0035 0.0261,-0.0046 l 0.16828,-0.231069 0.32279,0.235656 c 0.008,0.0056 0.0194,0.0035 0.0257,-0.0046 l 0.19509,-0.267758 c 0.006,-0.0085 0.005,-0.02011 -0.003,-0.02574 l -0.33302,-0.24271 c -0.008,-0.006 -0.0198,-0.0039 -0.0257,0.0046 m 5.27156,0.03493 -0.19509,0.267406 c -0.006,0.0085 -0.004,0.02045 0.004,0.02611 l 0.33267,0.242713 c 0.008,0.0056 0.0198,0.0035 0.0261,-0.0049 l 0.19473,-0.267407 c 0.006,-0.0085 0.005,-0.02011 -0.003,-0.02611 l -0.33266,-0.242713 c -0.008,-0.0056 -0.0198,-0.0039 -0.0261,0.0049"
       style="fill:#231f20;fill-opacity:1;fill-rule:evenodd;stroke:none;stroke-width:0.264583"
       id="path1-5" />
  </g>
</svg>
