<?xml version="1.0" encoding="UTF-8" standalone="no"?>
<!-- Created with Inkscape (http://www.inkscape.org/) -->

<svg
   width="21.773283mm"
   height="6.5419378mm"
   viewBox="0 0 21.773283 6.5419378"
   version="1.1"
   id="svg1"
   xmlns:inkscape="http://www.inkscape.org/namespaces/inkscape"
   xmlns:sodipodi="http://sodipodi.sourceforge.net/DTD/sodipodi-0.dtd"
   xmlns="http://www.w3.org/2000/svg"
   xmlns:svg="http://www.w3.org/2000/svg">
  <sodipodi:namedview
     id="namedview1"
     pagecolor="#ffffff"
     bordercolor="#666666"
     borderopacity="1.0"
     inkscape:showpageshadow="2"
     inkscape:pageopacity="0.0"
     inkscape:pagecheckerboard="0"
     inkscape:deskcolor="#d1d1d1"
     inkscape:document-units="mm" />
  <defs
     id="defs1" />
  <g
     inkscape:label="Layer 1"
     inkscape:groupmode="layer"
     id="layer1"
     transform="translate(-102.91327,-60.297354)">
    <path
       d="m 112.34642,60.330857 c -0.0568,0.03493 -1.79423,0.8636 -1.95545,0.994833 -0.0815,0.06562 -0.14887,0.169686 -0.1725,0.282575 -0.0339,0.16369 0.007,0.325261 0.11324,0.342194 0.0744,0.01199 0.11677,0.05503 0.13546,0.08008 0.008,0.01058 0.0201,0.0032 0.024,-0.0039 0.084,-0.166862 0.008,-0.271285 -0.13617,-0.312912 -0.0572,-0.01622 -0.0825,-0.0956 0.12876,-0.231071 0.19474,-0.125235 1.74414,-0.875242 1.78718,-0.905579 0.0586,-0.04057 0.0938,-0.05609 0.11641,-0.114655 0.0226,-0.05821 0.0286,-0.06879 0.0402,-0.10936 0.0127,-0.04304 0.0251,-0.08855 -0.0811,-0.02222 m 4.59705,0.569735 c -0.0698,0.106892 -0.12242,0.362657 -0.0222,0.435682 0.10019,0.07338 0.24659,0.132643 0.24659,0.132643 -0.46637,0.570797 -0.78493,0.679805 -1.05727,0.839259 -0.0702,0.04127 -0.0561,0.07796 -0.0148,0.06703 0.0212,-0.0056 0.38735,-0.06244 0.81562,-0.387704 0.23143,-0.176035 0.37183,-0.47625 0.37183,-0.47625 0,0 0.11571,0.09666 0.13159,0.116065 0.0349,0.04374 0.0543,0.07585 0.0705,0.02999 0.061,-0.168979 -0.025,-0.270934 -0.10759,-0.323496 0,0 0.0857,-0.263173 -0.0713,-0.52705 -0.0265,-0.04445 -0.18204,-0.185914 -0.36301,0.09384 m 0.24341,0.07267 c 0.10513,0.09772 0.0893,0.257881 0.0854,0.294568 0,0 -0.13405,-0.06279 -0.19437,-0.08854 -0.06,-0.0254 -0.0914,-0.0635 -0.0635,-0.1016 0.0924,-0.129823 0.13758,-0.12559 0.1725,-0.104423 m 6.27874,0.02294 c -0.0699,0.106892 -0.12206,0.362654 -0.0219,0.435679 0.0998,0.07338 0.24624,0.132646 0.24624,0.132646 -0.46602,0.570793 -1.38042,0.976842 -1.59809,1.146879 -0.0649,0.04868 -0.0564,0.07761 -0.0152,0.06667 0.0363,-0.0095 0.73308,-0.204611 1.37019,-0.750359 0.2921,-0.250118 0.28399,-0.269168 0.35842,-0.420862 0.0631,0.03245 0.1069,0.08537 0.13159,0.116062 0.0353,0.04375 0.054,0.07585 0.0706,0.02999 0.061,-0.168981 -0.0251,-0.270933 -0.10725,-0.323498 0,0 0.0857,-0.263173 -0.0716,-0.52705 -0.0265,-0.0441 -0.18204,-0.18556 -0.36301,0.09384 m 0.24377,0.07267 c 0.10477,0.09772 0.0889,0.257882 0.0847,0.294572 0,0 -0.13371,-0.0628 -0.19403,-0.0882 -0.0596,-0.02574 -0.0914,-0.06385 -0.0635,-0.101952 0.0924,-0.129823 0.13793,-0.125589 0.17286,-0.104423 m -11.7306,-0.194025 c -0.11959,0.09243 -0.39476,0.359834 -0.27093,0.484717 0.0716,0.05821 0.10407,0.08678 0.10407,0.08678 -0.0339,0.01304 -0.0624,0.04516 -0.0825,0.08608 -0.0201,0.04092 -0.0233,0.04974 -0.0335,0.07302 -0.0106,0.02328 -0.0166,0.05468 0.0402,0.02188 0.0568,-0.0321 0.19227,-0.160514 0.55739,-0.240948 0.0504,-0.01058 0.0949,-0.09349 0.0949,-0.09349 0.0212,-0.03528 0.0635,-0.116768 -0.007,-0.07655 -0.0713,0.04022 -0.26141,0.09737 -0.34643,0.08078 -0.0843,-0.01622 -0.18485,-0.08961 -0.20673,-0.124176 -0.0222,-0.03493 -0.019,-0.07444 0.048,-0.113242 0.067,-0.03845 0.14041,-0.06491 0.19191,0.02082 0.01,0.01447 0.0208,0.01376 0.0427,-0.0078 0.0215,-0.02188 0.0649,-0.08255 0.0765,-0.09983 0.012,-0.01728 0.0212,-0.04657 0.003,-0.06773 -0.018,-0.02117 -0.0917,-0.123122 -0.21096,-0.03034 m 9.94199,0.02857 c -0.18309,0.232833 -0.19474,0.538692 -0.21908,0.879827 -0.0257,-0.07126 -0.1718,-0.528812 -0.63959,-0.790927 -0.0339,-0.01905 -0.10265,0.01693 -0.10936,0.124883 -0.004,0.06279 -0.0215,0.215194 0.0226,0.258234 0.0444,0.04339 0.17463,0.128058 0.1965,0.140051 0.0222,0.01199 0.0455,0.01376 0.0522,-0.01236 0.006,-0.02611 0.0363,-0.08678 0.0783,-0.04339 0.0363,0.03598 0.26635,0.226483 0.38594,0.630412 0.0208,0.05362 0.0702,0.05856 0.0818,-0.01728 0.0279,-0.186619 0.0427,-0.511175 0.0575,-0.6096 0.0208,-0.13829 0.0871,-0.423334 0.26211,-0.275167 0.0395,0.03352 0.0818,0.07796 0.0818,0.07796 0.0374,0.04692 0.0836,0.100541 0.10654,0.04621 0.0346,-0.08149 0.0621,-0.216604 0.0243,-0.289983 -0.0169,-0.03245 -0.23353,-0.306917 -0.3817,-0.118886 m -11.92601,-0.0046 c -0.0635,0.03916 -2.29693,1.147937 -2.47932,1.2954 -0.0914,0.07408 -0.16757,0.19191 -0.19438,0.319262 -0.0381,0.184505 0.008,0.36689 0.12771,0.38594 0.084,0.01341 0.13193,0.06209 0.1531,0.09031 0.009,0.01199 0.0226,0.0035 0.0268,-0.0046 0.0949,-0.188032 0.009,-0.30621 -0.1531,-0.352777 -0.0649,-0.01834 -0.0935,-0.10795 0.14499,-0.260705 0.21943,-0.141462 2.24049,-1.160637 2.28882,-1.194858 0.0663,-0.04621 0.10619,-0.0635 0.13159,-0.12982 0.0257,-0.06562 0.0321,-0.07726 0.0451,-0.122767 0.0145,-0.04868 0.0286,-0.100542 -0.0914,-0.0254 m 10.12578,-0.0064 c -0.0677,0.03951 -1.78788,1.032227 -1.85737,1.077383 -0.0695,0.0448 -0.0942,0.05644 -0.10583,0.110067 -0.0109,0.05362 -0.0166,0.08467 -0.0194,0.09348 -0.0127,0.03598 -0.0215,0.08043 0.0811,0.01304 0.0321,-0.02082 1.76177,-1.020233 1.8221,-1.058333 0.0582,-0.03634 0.0921,-0.0515 0.11536,-0.107596 0.0236,-0.05574 0.0293,-0.06526 0.0416,-0.104423 0.0138,-0.04127 0.0272,-0.08502 -0.0776,-0.02363 m -4.67113,7.94e-4 c -0.0162,0.03916 -0.11218,0.303389 -0.11218,0.303389 0.0257,0.17145 0.25294,2.014361 0.26776,2.140302 0.0152,0.12559 0.33408,2.2098 0.35101,2.786592 -0.005,0.05891 0.0212,0.08079 0.048,0.02434 0.0268,-0.05644 0.21273,-0.441325 -0.008,-1.851377 -0.0162,-0.117475 -0.35067,-2.500135 -0.35067,-2.500135 0,0 0.19756,0.185208 0.22896,0.21872 0.0318,0.03352 0.0702,0.01588 0.0522,-0.0381 -0.0183,-0.05398 -0.42192,-1.030462 -0.43498,-1.064329 -0.013,-0.03387 -0.0264,-0.05856 -0.0423,-0.01939 m -1.00083,0 c -0.0162,0.03916 -0.14605,0.324909 -0.14605,0.324909 0.004,0.02328 0.0339,0.09349 0.055,0.237773 0.0219,0.149577 0.0529,0.363714 0.0878,0.600075 0,0 0.5133,2.808816 0.43498,3.057173 -0.0102,0.03351 -0.0261,0.0769 -0.049,0.128058 0.004,-0.220488 -0.0367,-0.549629 -0.25153,-0.826913 -0.28786,-0.37112 -0.84313,-0.822677 -0.96696,-0.942268 -0.0917,-0.0889 -0.58879,-0.540102 -0.84984,-0.874536 -0.11677,-0.153458 -0.25471,-0.359129 -0.25471,-0.359129 0.0829,0.03069 0.18415,0.05821 0.23919,0.07691 0.0554,0.01834 0.11959,0 0.037,-0.07691 -0.0833,-0.07655 -0.71544,-0.536927 -0.76412,-0.592312 -0.0494,-0.05539 -0.0554,-0.04586 -0.0586,-0.0028 -0.003,0.04268 0,0.269875 0.003,0.340431 0.003,0.07055 0.0183,0.09525 0.049,0.116769 0.0307,0.02151 0.0797,0.05503 0.1136,0.107243 0.0335,0.05221 0.62582,0.92075 1.14476,1.371955 0.0667,0.06914 1.00542,0.756002 1.35819,1.431925 0.072,0.137935 0.1016,0.271637 0.10937,0.402518 -0.21097,0.34784 -0.69392,0.873125 -1.796,1.323269 -0.0921,0.04269 -0.078,0.10654 0.1136,0.04974 0.19156,-0.0568 1.40476,-0.262467 1.81575,-1.177571 0.0995,-0.219781 0.29809,-0.631121 0.10653,-1.652765 -0.0494,-0.418393 -0.33513,-2.16041 -0.33513,-2.16041 0,0 0.19755,0.185209 0.22895,0.218721 0.0321,0.03351 0.0702,0.01588 0.0522,-0.0381 -0.0183,-0.05398 -0.42192,-1.030462 -0.43498,-1.064329 -0.013,-0.03387 -0.0261,-0.05856 -0.0423,-0.01939 m -7.75546,0.134763 c -0.024,0.05715 -0.10337,0.2921 -0.10337,0.2921 0.3877,1.419929 0.40252,3.031418 0.48119,3.621968 0.0744,0.560211 0.10901,1.073857 0.56833,1.368777 0.24553,0.157692 1.05339,0.36054 2.21156,-0.385585 0.16016,0.156633 0.53657,0.878065 2.02318,0.105833 0.17145,-0.08925 0.77964,-0.452966 1.05551,-0.51435 0.53798,-0.122414 0.96802,-0.06985 0.96802,-0.06985 L 114.08,65.074802 c 0,0 -0.06,-0.01447 -0.16793,-0.01905 -0.1083,-0.0053 -1.16204,-0.02752 -1.91276,-0.290687 -0.2159,-0.06915 -0.32349,-0.198263 -0.78105,-0.04939 -0.0582,0.02151 -0.36512,0.155223 -0.40498,0.246944 -0.0399,0.09243 -0.0688,0.222604 -0.072,0.259646 -0.004,0.03704 0.012,0.04128 0.0519,0.03845 0.0402,-0.0032 0.75706,-0.09843 0.75706,-0.09843 0,0 0.0444,-0.0046 0.0642,-0.0321 0.0201,-0.02787 0.049,-0.04304 0.12276,-0.02011 0.0737,0.02294 0.80927,0.199671 0.80927,0.199671 -0.12417,0.06844 -1.75965,1.087967 -2.42887,0.440973 0.0674,-0.07056 0.46637,-0.375708 0.28434,-0.950383 -0.0293,-0.08996 -0.27552,-0.770467 -0.60608,-0.43815 -0.3302,0.332316 -0.33655,0.774348 -0.11923,1.259416 -0.11642,0.07867 -1.10878,0.602898 -1.7713,0.370065 -0.0988,-0.03457 -0.57609,-0.250825 -0.65546,-1.439333 -0.0102,-0.154517 -0.1203,-2.554113 -0.46778,-3.523192 -0.0448,-0.07832 -0.0646,-0.05856 -0.0889,-0.0011 m 3.58527,4.049887 c 0.0734,0.157692 -0.2995,0.354896 -0.36018,0.386292 0,0 -0.0444,-0.06315 -0.16545,-0.283634 -0.12101,-0.220837 -0.0896,-0.323143 0.0815,-0.465312 0.17074,-0.142171 0.37042,0.204962 0.44414,0.362654 m -5.80742,-3.797652 c -0.16722,0.221544 -0.1778,0.512585 -0.20003,0.837142 -0.0236,-0.06809 -0.15698,-0.503415 -0.5842,-0.752475 -0.031,-0.01834 -0.0938,0.01622 -0.0998,0.118885 -0.004,0.05962 -0.0201,0.204613 0.0204,0.245533 0.0388,0.03951 0.32702,0.145346 0.17074,0.3175 -0.0702,0.07726 -0.42121,0.457555 -0.49671,0.549275 -0.0755,0.09208 -0.0825,0.109009 -0.002,0.06209 0.0808,-0.04692 0.54892,-0.23636 0.62618,-0.720019 0.006,-0.06315 -0.006,-0.110421 -0.0201,-0.142523 0.006,0.0019 0.0134,0.006 0.0208,0.01376 0.0324,0.03457 0.24271,0.2159 0.35207,0.599723 0.0191,0.05115 0.0642,0.05609 0.0748,-0.01622 0.025,-0.1778 0.0388,-0.486479 0.0522,-0.579967 0.019,-0.131585 0.0794,-0.40287 0.23954,-0.26176 0.0363,0.03175 0.0748,0.07408 0.0748,0.07408 0.0342,0.04445 0.0766,0.0956 0.0974,0.0441 0.0314,-0.07761 0.0568,-0.206375 0.0222,-0.275873 -0.0152,-0.03104 -0.21307,-0.2921 -0.34854,-0.113241 m 9.20962,0.04833 c -0.0325,0.09948 -0.17216,0.443794 -0.12559,0.837845 0.0109,0.09102 0.0787,0.265997 0.2099,0.263174 0.0681,-0.0042 0.15275,-0.06068 0.20179,-0.287867 0.008,-0.05115 0.0127,-0.09208 0.0159,-0.112183 0.005,-0.03034 -0.018,-0.06527 -0.0363,0.0053 -0.0416,0.1397 -0.1651,0.243065 -0.27235,0.06456 -0.0173,-0.03528 -0.0917,-0.198261 0.007,-0.569032 0.0198,-0.07161 0.0444,-0.178504 0.0444,-0.178504 0.0222,-0.08114 -0.0124,-0.122766 -0.0448,-0.02328 m -8.18904,-0.0019 c -0.0349,0.09137 -0.1845,0.407106 -0.13864,0.767292 0.0109,0.08326 0.0808,0.24271 0.21908,0.238831 0.0713,-0.0039 0.16122,-0.05645 0.21484,-0.264583 0.008,-0.04692 0.0138,-0.08431 0.0173,-0.102659 0.005,-0.02787 -0.0187,-0.05962 -0.0385,0.0049 -0.0452,0.128058 -0.17568,0.223308 -0.28681,0.06138 -0.0183,-0.0321 -0.0956,-0.18062 0.0116,-0.520345 0.0219,-0.06562 0.0483,-0.16369 0.0483,-0.16369 0.024,-0.07444 -0.012,-0.112183 -0.0473,-0.02117 m 3.69641,0.729898 c -0.0342,0.08431 -0.17815,0.37465 -0.15663,0.716491 0.005,0.07937 0.0575,0.233537 0.17674,0.237419 0.0617,-2.65e-4 0.14146,-0.0448 0.19791,-0.238477 0.01,-0.04375 0.0159,-0.07867 0.0198,-0.09596 0.006,-0.02611 -0.0134,-0.05715 -0.0328,0.0028 -0.0452,0.118533 -0.16228,0.201435 -0.24976,0.04233 -0.0145,-0.0314 -0.0737,-0.175332 0.0349,-0.490363 0.0219,-0.06103 0.0494,-0.152045 0.0494,-0.152045 0.0247,-0.06879 -0.005,-0.10654 -0.0395,-0.02223 m 1.98296,0.03351 c -0.0342,0.08431 -0.1785,0.37465 -0.15663,0.716846 0.005,0.07902 0.0575,0.232833 0.17674,0.237067 0.0614,-2.65e-4 0.14111,-0.04445 0.19755,-0.238125 0.01,-0.0441 0.0159,-0.07902 0.0198,-0.09596 0.006,-0.02646 -0.013,-0.05715 -0.0328,0.0024 -0.0452,0.118534 -0.16228,0.201438 -0.24977,0.04269 -0.0141,-0.03175 -0.0734,-0.175683 0.0349,-0.490363 0.0222,-0.06138 0.0497,-0.1524 0.0497,-0.1524 0.024,-0.06879 -0.005,-0.106185 -0.0395,-0.02222 m 9.27982,0.156988 c -0.0342,0.08431 -0.17851,0.375002 -0.15628,0.717196 0.005,0.07937 0.0575,0.233539 0.17674,0.237773 0.0614,-2.65e-4 0.14111,-0.0448 0.19756,-0.238832 0.01,-0.04374 0.0159,-0.07867 0.0201,-0.09595 0.006,-0.02611 -0.0134,-0.05715 -0.0335,0.0028 -0.0452,0.118533 -0.16228,0.201437 -0.24977,0.04233 -0.0141,-0.0314 -0.0737,-0.175683 0.0353,-0.490712 0.0215,-0.06103 0.0497,-0.1524 0.0497,-0.1524 0.0243,-0.06879 -0.005,-0.10654 -0.0399,-0.02222 m 3.30729,0.173566 c -0.0318,0.07796 -0.1651,0.346779 -0.14499,0.663927 0.005,0.07338 0.0533,0.2159 0.16404,0.219782 0.0568,0 0.13053,-0.04163 0.18309,-0.22084 0.009,-0.04057 0.0148,-0.07303 0.0183,-0.0889 0.006,-0.02434 -0.0124,-0.05327 -0.0307,0.0024 -0.042,0.110067 -0.15029,0.186622 -0.23143,0.03916 -0.013,-0.02928 -0.0677,-0.162277 0.0325,-0.454377 0.0204,-0.05644 0.0462,-0.140759 0.0462,-0.140759 0.0222,-0.06385 -0.005,-0.09878 -0.037,-0.02045 m -6.20642,0.0081 -0.16827,0.230716 -0.3228,-0.235301 c -0.008,-0.006 -0.0198,-0.0039 -0.0257,0.0046 l -0.19508,0.267406 c -0.006,0.0088 -0.005,0.02011 0.004,0.02612 l 0.33267,0.24271 c 0.008,0.0056 0.0198,0.0035 0.0258,-0.0046 l 0.16827,-0.231072 0.32315,0.235657 c 0.008,0.0056 0.0194,0.0035 0.0254,-0.0046 l 0.19544,-0.267759 c 0.006,-0.0085 0.005,-0.02011 -0.004,-0.02574 l -0.33267,-0.24271 c -0.008,-0.006 -0.0198,-0.0039 -0.0261,0.0046 m -11.92318,0.3175 -0.19509,0.267407 c -0.006,0.0085 -0.005,0.02011 0.003,0.02611 l 0.33302,0.24271 c 0.008,0.0056 0.0194,0.0035 0.0258,-0.0049 L 105.99,63.010163 c 0.006,-0.0085 0.005,-0.02011 -0.003,-0.02611 l -0.33267,-0.242711 c -0.008,-0.006 -0.0198,-0.0035 -0.0258,0.0049 m 13.2267,0.09878 c -0.013,0.04515 -0.0455,0.239535 -0.0536,0.279751 -0.008,0.03986 -0.007,0.07973 0.0127,0.113949 0.0194,0.03422 0.0702,0.152751 0.10654,0.24906 0.037,0.09631 0.41452,0.82409 0.4498,0.888293 0.0346,0.06456 0.042,0.11289 0.007,0.155575 -1.21285,1.279525 -3.55318,2.066221 -3.62761,2.109613 -0.0752,0.04374 -0.055,0.07726 0.0705,0.05539 0.18839,-0.03281 1.23966,-0.208843 1.53952,-0.353131 0.19791,-0.09525 0.88759,-0.433917 1.45239,-0.876652 -0.0155,0.1143 -0.0303,0.282223 -0.0226,0.4953 0.0385,1.029052 0.9585,0.858308 1.20015,0.805392 0.72355,-0.15875 1.60832,-1.158875 1.68346,-1.359959 0.0744,-0.198614 0.0854,-0.379589 0.0684,-0.537633 0.1905,-0.103365 0.60007,-0.43321 0.60007,-0.43321 0.0166,0.438502 0.36619,0.570442 0.47343,0.589492 0.50341,0.07655 0.756,-0.344313 0.86325,-0.480838 0.0914,0.240241 0.31185,0.287163 0.42545,0.309739 0.43462,0.08643 0.51893,-0.220839 0.54151,-0.290689 0.13652,-0.423686 -0.10936,-0.739775 -0.14076,-0.7747 -0.0314,-0.03493 -0.0473,-0.0013 -0.0589,0.03916 -0.0109,0.04057 -0.0459,0.193323 -0.0677,0.288925 0,0 0.0907,0.147815 0.12311,0.223308 0.0325,0.0755 -0.0159,0.116417 -0.10936,0.128059 -0.26423,0.03246 -0.47519,-0.119237 -0.54786,-0.189087 -0.0727,-0.06985 0.006,-0.193324 0.0649,-0.340784 0.0466,-0.118181 -0.0402,-0.132291 -0.10689,-2.64e-4 -0.22401,0.588787 -0.53869,0.652287 -0.6216,0.674864 -0.74647,0.2032 -0.68191,-0.478718 -0.67909,-0.59055 0.003,-0.111831 -0.0794,-0.07056 -0.1711,0.0032 -0.31362,0.251884 -0.56691,0.40005 -0.70309,0.460727 -0.11677,-0.228952 -0.2868,-0.372533 -0.35842,-0.424391 -0.80751,-0.588786 -0.87418,0.599016 -0.85019,0.726371 0.12312,0.505177 0.94826,0.198966 1.07738,0.183795 0.12947,-0.01516 0.0871,0.155575 0.0145,0.256823 -0.17886,0.250473 -0.38558,0.430036 -0.57256,0.58279 -0.79974,0.652285 -1.2012,0.600779 -1.32468,0.5969 -0.78528,-0.02222 -0.71296,-0.86854 -0.66957,-1.049515 0.23636,-0.200025 0.43921,-0.418041 0.55739,-0.641702 0.048,-0.122766 0.13088,-0.401814 -0.019,-0.751416 -0.0783,-0.154165 -0.32632,-0.586317 -0.32632,-0.586317 0,0 0.18274,0.0056 0.20003,0.0053 0.0173,-2.65e-4 0.0515,-0.01834 0.007,-0.0695 -0.0441,-0.05115 -0.42757,-0.433211 -0.45015,-0.463902 -0.0233,-0.03069 -0.0444,-0.05292 -0.0575,-0.0074 m 2.42218,1.752246 c 0,0 -0.10972,0.06315 -0.41769,0.04233 -0.25753,-0.01728 -0.23566,-0.117827 -0.20003,-0.155927 0.0381,-0.04163 0.35384,-0.240241 0.61772,0.113594 M 104.3655,63.114676 c -0.0427,0.14464 -0.22578,0.645583 -0.16087,1.219906 0.0152,0.132998 0.10654,0.388057 0.28117,0.384882 0.09,-0.0053 0.20214,-0.08714 0.26635,-0.41769 0.0102,-0.07443 0.0159,-0.133702 0.0201,-0.163335 0.006,-0.04445 -0.0247,-0.09525 -0.0483,0.0074 -0.0547,0.203552 -0.21801,0.352777 -0.36124,0.09207 -0.0236,-0.05186 -0.12418,-0.289631 0.005,-0.828675 0.0261,-0.104775 0.0582,-0.260704 0.0582,-0.260704 0.0289,-0.117827 -0.0173,-0.178504 -0.06,-0.03387 m -1.06256,0.06209 c -0.0293,0.09102 -0.15417,0.405693 -0.11219,0.765527 0.01,0.08326 0.0709,0.243064 0.18909,0.240596 0.061,-0.0035 0.13723,-0.05503 0.18133,-0.262821 0.007,-0.04657 0.0113,-0.08396 0.0145,-0.102304 0.004,-0.02787 -0.0169,-0.05997 -0.0328,0.0049 -0.0377,0.127354 -0.14851,0.221546 -0.24482,0.05856 -0.0159,-0.03246 -0.0833,-0.181329 0.005,-0.519996 0.018,-0.06562 0.0402,-0.163335 0.0402,-0.163335 0.0198,-0.07408 -0.0113,-0.112183 -0.0406,-0.02117 m 14.65792,-0.0042 c -0.0536,0.06632 -0.58984,0.770115 -0.58984,0.770115 l -0.39018,-0.278342 c 0,0 0.15911,-0.03986 0.18698,-0.04762 0.0279,-0.0085 0.0437,-0.0441 -0.006,-0.06985 -0.0501,-0.0254 -0.52035,-0.213079 -0.55598,-0.227542 -0.036,-0.01447 -0.049,-0.03105 -0.0522,0.0074 -0.003,0.0381 -0.008,0.347485 -0.008,0.347485 0,0 -0.007,0.02151 0.0335,0.04516 0.0413,0.02294 0.0815,0.07303 0.11501,0.106538 0.0339,0.03351 0.47095,0.378883 0.49212,0.390879 0,0 -0.21872,0.384527 -0.24659,0.685446 -0.0275,0.300921 0.006,0.716139 0.41698,0.582083 0.11042,-0.0314 0.5715,-0.214487 0.67416,-0.535869 0.0339,-0.118181 0.12806,-0.331964 -0.0257,-0.548923 -0.0892,-0.127352 -0.44909,-0.342545 -0.44909,-0.342545 0,0 0.27623,-0.381707 0.30269,-0.428625 0.0264,-0.04692 0.1277,-0.342548 0.13899,-0.414515 0.0113,-0.07162 0.0169,-0.107244 -0.0363,-0.04128 m -0.0945,1.622777 c -0.15275,0.125942 -0.47413,0.291748 -0.56445,0.300567 -0.0896,0.0088 -0.32914,-0.03528 -0.22507,-0.280811 0.0353,-0.07937 0.27482,-0.48895 0.27482,-0.48895 0.0893,0.04939 0.66745,0.343607 0.5147,0.469194 m -7.80203,-1.374069 -0.16863,0.230717 -0.32279,-0.235656 c -0.008,-0.0056 -0.0194,-0.0035 -0.0258,0.0049 l -0.19508,0.267407 c -0.006,0.0085 -0.004,0.02011 0.003,0.02611 l 0.33267,0.242713 c 0.008,0.0056 0.0201,0.0039 0.0261,-0.0049 l 0.16827,-0.230716 0.32315,0.235656 c 0.008,0.0056 0.0198,0.0039 0.0261,-0.0049 l 0.19473,-0.267406 c 0.006,-0.0085 0.005,-0.02011 -0.004,-0.02574 l -0.33267,-0.243065 c -0.008,-0.0056 -0.0198,-0.0035 -0.0257,0.0049 m 1.78823,0.263877 c -0.0998,0.108656 -0.13053,0.183446 -0.16051,0.230364 -0.0409,0.06385 0.0106,0.09243 0.0571,0.04269 0.0466,-0.05009 0.0787,-0.09984 0.21449,-0.09666 0.13546,0.0039 0.46002,-0.0088 0.33901,0.08043 -0.12135,0.08961 -0.20355,0.14111 -0.20355,0.14111 -0.0787,0.05645 -0.14781,0.16228 -0.009,0.103717 0.13935,-0.05927 0.32315,-0.152046 0.46391,-0.364067 0.0413,-0.06209 0.0893,-0.144637 -0.1016,-0.173212 -0.19121,-0.02858 -0.50024,-0.07338 -0.60008,0.03563 m -6.08542,0.180271 c -0.0473,0.01905 -0.13864,0.100542 -0.16439,0.135467 -0.12065,0.168626 -0.29951,0.536575 -0.0487,0.788458 0.19192,0.163687 0.53411,0.08537 0.59726,0.0829 0.11324,-0.0046 0.25929,-0.01164 0.33584,0.186973 0.0152,0.05044 -0.0406,0.115004 -0.16792,0.19191 -0.1277,0.07691 -1.6129,0.935215 -2.53365,0.660048 -0.15593,-0.04939 -0.72319,-0.18415 -0.70238,-0.888648 0.005,-0.123825 0.0804,-0.38241 0.11183,-0.497768 0.031,-0.115359 -0.0106,-0.198263 -0.0624,-0.06315 -0.0522,0.134761 -0.55915,1.103136 0.17427,1.669699 0.13758,0.101245 0.61807,0.434268 1.76248,0.07197 1.14935,-0.399346 1.43086,-0.680156 1.51976,-0.903113 0.0564,-0.140403 0.0822,-0.328435 0.0339,-0.57785 -0.23354,-0.945443 -0.6544,-0.939093 -0.85584,-0.856895 m 0.43568,0.597958 c 0,0 -0.0917,0.0032 -0.14852,0.02151 -0.0568,0.01833 -0.16121,0.0568 -0.32067,0 -0.14252,-0.0508 -0.0826,-0.203907 0.0155,-0.242358 0.0441,-0.01693 0.22754,-0.08996 0.45367,0.220839 m 2.31846,-0.475191 c -0.13618,0.218368 -0.11748,0.483658 -0.10689,0.780695 -0.0286,-0.05927 -0.19791,-0.440618 -0.62619,-0.623004 -0.031,-0.01341 -0.0875,0.02434 -0.0829,0.117827 0.002,0.05468 0.001,0.188032 0.0434,0.221192 0.0427,0.03316 0.16299,0.09419 0.1831,0.102306 0.0205,0.0085 0.0406,0.0074 0.0441,-0.01553 0.003,-0.02328 0.0229,-0.07867 0.0639,-0.0448 0.0342,0.02787 0.25117,0.170744 0.39229,0.508704 0.0226,0.0441 0.066,0.0441 0.0688,-0.02294 0.007,-0.16369 -0.0109,-0.445559 -0.007,-0.53199 0.005,-0.121356 0.0353,-0.373592 0.20038,-0.262467 0.0377,0.0254 0.0783,0.05997 0.0783,0.05997 0.0363,0.03704 0.0819,0.07867 0.0963,0.02963 0.0222,-0.07338 0.0335,-0.192971 -0.006,-0.25259 -0.0173,-0.02646 -0.23071,-0.243417 -0.34113,-0.06703 m 15.57549,1.369129 c -0.0311,0.08643 -0.043,0.142875 -0.0395,0.176038 0.003,0.03245 0.0145,0.139345 0.0145,0.139345 -0.0321,0.02574 -0.16898,0.110773 -0.30551,0.01024 0.009,-0.02928 0.0268,-0.0889 0.0307,-0.121357 0.0152,-0.05045 -0.0159,-0.08819 -0.0413,-0.03598 -0.0247,0.05257 -0.0829,0.228248 -0.12594,0.267758 -0.043,0.03951 -0.0935,0.184505 -0.41945,0.03704 -0.0572,-0.02188 -0.15734,-0.09595 -0.31256,0.06032 -0.35278,0.328083 -0.5962,0.353838 -0.99166,0.49389 -0.0476,0.02222 -0.14817,0.09737 -0.0289,0.08537 0.11924,-0.01164 0.62054,2.64e-4 0.89288,-0.312563 0.0575,-0.05538 0.12242,-0.201787 0.33867,-0.116769 0.1203,0.04586 0.34219,0.236009 0.58385,-0.140052 0.14252,0.0949 0.35877,0.0568 0.39334,-0.04798 0.0349,-0.104421 0.0741,-0.208492 0.0741,-0.279752 -7.9e-4,-0.07126 -0.007,-0.164748 -0.007,-0.164748 -0.005,-0.05644 -0.0243,-0.136877 -0.0561,-0.0508 m -17.26071,0.525288 c -0.0716,0.0321 -1.41041,0.664985 -1.48908,0.70626 -0.0734,0.03845 -0.0921,0.05997 -0.10124,0.1143 -0.009,0.05398 -0.0134,0.08537 -0.0159,0.09419 -0.0113,0.03633 -0.0265,0.06808 0.0815,0.0099 0.0526,-0.02822 1.38077,-0.643819 1.45521,-0.6858 0.0596,-0.03387 0.0896,-0.05539 0.11113,-0.112184 0.0204,-0.05609 0.0264,-0.06668 0.037,-0.106185 0.0116,-0.04163 0.0279,-0.06773 -0.0787,-0.02045"
       style="fill:#231f20;fill-opacity:1;fill-rule:evenodd;stroke:none;stroke-width:0.264583"
       id="path1-4" />
  </g>
</svg>
