<?xml version="1.0" encoding="UTF-8" standalone="no"?>
<!-- Created with Inkscape (http://www.inkscape.org/) -->

<svg
   width="18.435583mm"
   height="6.517787mm"
   viewBox="0 0 18.435583 6.517787"
   version="1.1"
   id="svg1"
   xmlns:inkscape="http://www.inkscape.org/namespaces/inkscape"
   xmlns:sodipodi="http://sodipodi.sourceforge.net/DTD/sodipodi-0.dtd"
   xmlns="http://www.w3.org/2000/svg"
   xmlns:svg="http://www.w3.org/2000/svg">
  <sodipodi:namedview
     id="namedview1"
     pagecolor="#ffffff"
     bordercolor="#666666"
     borderopacity="1.0"
     inkscape:showpageshadow="2"
     inkscape:pageopacity="0.0"
     inkscape:pagecheckerboard="0"
     inkscape:deskcolor="#d1d1d1"
     inkscape:document-units="mm" />
  <defs
     id="defs1" />
  <g
     inkscape:label="Layer 1"
     inkscape:groupmode="layer"
     id="layer1"
     transform="translate(-128.66349,-70.241148)">
    <path
       d="m 134.10096,70.280458 c -0.0653,0.04057 -2.53012,1.268238 -2.71851,1.42099 -0.0949,0.07691 -0.17321,0.19826 -0.20073,0.329848 -0.0399,0.1905 0.008,0.379587 0.13194,0.399343 0.0864,0.01376 0.13617,0.06385 0.15805,0.09313 0.01,0.0127 0.0233,0.0039 0.0275,-0.0049 0.0984,-0.194379 0.01,-0.316087 -0.15804,-0.364067 -0.067,-0.01939 -0.0967,-0.111829 0.14993,-0.270227 0.22683,-0.145698 2.47191,-1.281289 2.52236,-1.316918 0.0681,-0.04762 0.10901,-0.06562 0.13582,-0.133705 0.0261,-0.06808 0.0332,-0.08008 0.0466,-0.127704 0.0148,-0.0501 0.0296,-0.103716 -0.0949,-0.02574 m 5.25498,0.210962 c -0.0706,0.106538 -0.12242,0.362654 -0.0226,0.435679 0.10018,0.07338 0.24623,0.132646 0.24623,0.132646 -0.46566,0.570794 -0.78422,0.679802 -1.05657,0.839259 -0.0702,0.04127 -0.0564,0.07796 -0.0155,0.06668 0.0212,-0.0053 0.38806,-0.06244 0.81598,-0.38735 0.23177,-0.176038 0.37147,-0.47625 0.37147,-0.47625 0,0 0.11607,0.09666 0.13194,0.116416 0.0349,0.04339 0.0543,0.07549 0.0709,0.02963 0.0607,-0.168982 -0.0254,-0.270582 -0.1076,-0.323498 0,0 0.0854,-0.263173 -0.0716,-0.52705 -0.0261,-0.0441 -0.18203,-0.185561 -0.36266,0.09384 m 0.24342,0.07267 c 0.10477,0.09772 0.0889,0.257881 0.0847,0.294571 0,0 -0.13406,-0.0628 -0.19368,-0.08855 -0.0603,-0.02574 -0.0917,-0.0635 -0.0642,-0.1016 0.0928,-0.130175 0.13794,-0.12559 0.17322,-0.104423 m -8.63388,-0.170037 c -0.17427,0.221543 -0.18521,0.512585 -0.2085,0.837141 -0.0243,-0.06809 -0.16368,-0.503062 -0.60818,-0.752123 -0.0325,-0.01833 -0.0981,0.01588 -0.10407,0.118182 -0.004,0.05997 -0.0208,0.204962 0.0212,0.246237 0.0402,0.03951 0.34079,0.144992 0.1778,0.3175 -0.0727,0.07726 -0.4385,0.457554 -0.51717,0.549275 -0.0787,0.09172 -0.0864,0.108304 -0.002,0.06174 0.0843,-0.04692 0.5715,-0.236009 0.65229,-0.719667 0.006,-0.0635 -0.007,-0.110773 -0.0212,-0.142875 0.007,0.0019 0.0141,0.006 0.0215,0.01376 0.0342,0.03457 0.25294,0.2159 0.36724,0.600075 0.0194,0.05115 0.0667,0.05574 0.0773,-0.01659 0.0265,-0.1778 0.0406,-0.486481 0.055,-0.579615 0.0198,-0.131585 0.0825,-0.40287 0.24906,-0.262112 0.0378,0.0321 0.078,0.07444 0.078,0.07444 0.0356,0.04445 0.0797,0.09525 0.1016,0.04374 0.0324,-0.07761 0.0589,-0.206375 0.0229,-0.275871 -0.0159,-0.03105 -0.22225,-0.292454 -0.36301,-0.113241 m 6.18067,0.15381 c -0.0825,0.10301 -0.16052,0.361598 -0.0642,0.446265 0.096,0.08502 0.24095,0.159808 0.24095,0.159808 -0.5334,0.543277 -0.96767,0.816679 -1.2633,0.954969 -0.0762,0.03563 -0.0653,0.07585 -0.0219,0.06738 0.18168,-0.03528 0.54504,-0.158046 0.87983,-0.394758 0.33373,-0.236363 0.51999,-0.573265 0.51999,-0.573265 0,0 0.11042,0.110419 0.12489,0.132292 0.0317,0.04798 0.0483,0.0829 0.0695,0.03739 0.079,-0.168275 -2.6e-4,-0.281162 -0.0801,-0.343252 0,0 0.11325,-0.262466 -0.0233,-0.549275 -0.0229,-0.04798 -0.17004,-0.208139 -0.38241,0.06244 m 0.24377,0.09807 c 0.0988,0.110067 0.067,0.273754 0.0593,0.31115 0,0 -0.13194,-0.07761 -0.19156,-0.109715 -0.0589,-0.0321 -0.0878,-0.07408 -0.0554,-0.110773 0.10725,-0.124883 0.15346,-0.116062 0.18768,-0.09066 m -0.95391,-0.200731 c -0.0808,0.04022 -2.93017,1.531056 -3.01378,1.574448 -0.0825,0.04304 -0.10725,0.06173 -0.12065,0.121708 -0.0138,0.06033 -0.0208,0.09243 -0.0243,0.104775 -0.0124,0.04127 -0.03,0.0829 0.0907,0.01659 0.0377,-0.02045 2.90936,-1.512358 2.97462,-1.553985 0.0653,-0.04127 0.10442,-0.05644 0.13194,-0.118885 0.0272,-0.06209 0.0342,-0.07338 0.049,-0.116417 0.0155,-0.04621 0.0349,-0.0889 -0.0875,-0.02822 m 9.44174,0.141817 c -0.0699,0.10654 -0.12206,0.362656 -0.0222,0.435681 0.10055,0.07338 0.2466,0.132644 0.2466,0.132644 -0.46567,0.570793 -1.38042,0.976842 -1.59844,1.146527 -0.0646,0.04939 -0.0557,0.07797 -0.0148,0.06703 0.0363,-0.0099 0.73308,-0.204964 1.37019,-0.750358 0.2921,-0.250473 0.28399,-0.269171 0.35842,-0.420865 0.0635,0.03246 0.1069,0.08537 0.13159,0.116417 0.0353,0.04339 0.0543,0.07549 0.0706,0.02963 0.0614,-0.168981 -0.0247,-0.270581 -0.10725,-0.323498 0,0 0.0857,-0.26317 -0.0716,-0.52705 -0.0261,-0.04409 -0.18168,-0.18556 -0.36301,0.09384 m 0.24377,0.07267 c 0.10478,0.09772 0.0889,0.257879 0.085,0.294569 0,0 -0.13406,-0.06279 -0.19438,-0.08855 -0.0596,-0.02574 -0.091,-0.0635 -0.0635,-0.1016 0.0924,-0.130175 0.13794,-0.125588 0.17286,-0.104421 m -1.78823,-0.165454 c -0.18344,0.232833 -0.19509,0.538691 -0.21943,0.879829 -0.0257,-0.07162 -0.1718,-0.528815 -0.63923,-0.790929 -0.0342,-0.01905 -0.10337,0.01728 -0.10972,0.124883 -0.004,0.0628 -0.0219,0.215196 0.0222,0.258233 0.0444,0.04339 0.17533,0.128059 0.19685,0.140055 0.0222,0.01236 0.0455,0.01376 0.0522,-0.01236 0.007,-0.02646 0.0363,-0.08678 0.079,-0.04339 0.0353,0.03598 0.26564,0.226483 0.38524,0.630415 0.0208,0.05362 0.0705,0.05891 0.0818,-0.01728 0.0275,-0.186618 0.0427,-0.511175 0.0575,-0.6096 0.0208,-0.138287 0.0868,-0.423333 0.26212,-0.275166 0.0399,0.03351 0.0818,0.07796 0.0818,0.07796 0.037,0.04692 0.084,0.100541 0.10654,0.04621 0.0342,-0.08149 0.0621,-0.216958 0.0247,-0.289983 -0.0169,-0.03246 -0.23389,-0.306917 -0.3817,-0.118888 m -1.80058,-0.01093 c -0.0674,0.03951 -1.78788,1.032227 -1.85737,1.077031 -0.0699,0.0448 -0.0942,0.05644 -0.10549,0.110419 -0.0109,0.05362 -0.0166,0.08467 -0.0198,0.09349 -0.0127,0.03563 -0.0219,0.08008 0.0808,0.01341 0.0324,-0.02117 1.76212,-1.020939 1.8228,-1.058685 0.0579,-0.03634 0.0917,-0.05186 0.11536,-0.107598 0.0233,-0.05539 0.0293,-0.06562 0.0413,-0.104423 0.0134,-0.04127 0.0268,-0.08502 -0.0776,-0.02363 m 0.33056,1.354666 c -0.0346,0.08432 -0.17886,0.375002 -0.15699,0.71755 0.005,0.07902 0.0579,0.233186 0.17674,0.237419 0.0621,-2.65e-4 0.14146,-0.04515 0.19791,-0.238829 0.01,-0.04375 0.0162,-0.07867 0.0201,-0.09596 0.006,-0.02612 -0.013,-0.05715 -0.0332,0.0028 -0.0452,0.118533 -0.16228,0.201435 -0.25012,0.04233 -0.0141,-0.0314 -0.0734,-0.175683 0.0353,-0.490715 0.0219,-0.06103 0.0494,-0.152048 0.0494,-0.152048 0.0247,-0.06914 -0.005,-0.106891 -0.0392,-0.02257 m -7.65634,0.174625 c -0.0448,0.117827 -0.23389,0.523875 -0.20496,1.002242 0.007,0.110418 0.0755,0.325615 0.23142,0.331258 0.0808,0 0.18485,-0.06244 0.25894,-0.333023 0.013,-0.06103 0.0208,-0.110067 0.0265,-0.134054 0.008,-0.03669 -0.0177,-0.08008 -0.0438,0.0039 -0.0589,0.165454 -0.21237,0.281516 -0.32738,0.05927 -0.0183,-0.04445 -0.0959,-0.245533 0.0462,-0.6858 0.0286,-0.08537 0.0646,-0.212725 0.0646,-0.212725 0.0321,-0.09631 -0.006,-0.14887 -0.0515,-0.03104 m 10.96328,-0.0013 c -0.0314,0.07796 -0.1651,0.347133 -0.14464,0.664279 0.005,0.07303 0.0529,0.2159 0.16369,0.219781 0.0568,-2.64e-4 0.13052,-0.04163 0.18309,-0.22084 0.009,-0.04092 0.0145,-0.07303 0.0183,-0.0889 0.006,-0.02434 -0.012,-0.05327 -0.031,0.0024 -0.0413,0.109712 -0.14993,0.186618 -0.23107,0.03916 -0.0131,-0.02893 -0.0677,-0.162631 0.0324,-0.45438 0.0201,-0.05644 0.0462,-0.14111 0.0462,-0.14111 0.0226,-0.0635 -0.005,-0.09842 -0.037,-0.02045 m -15.58573,7.94e-4 c -0.007,0.03563 -0.0448,0.301979 -0.0448,0.301979 0.0561,0.12065 0.53446,1.113719 0.6858,1.853142 0.0166,0.09666 0.042,0.205668 -0.11324,0.378177 -0.15557,0.172156 -0.63888,0.718256 -1.37372,0.999773 -0.18944,0.07126 -0.5849,0.286102 -0.86571,-0.159809 -0.079,-0.125589 -0.13406,-0.579614 0.15557,-1.163462 0.007,-0.02082 0.0116,-0.03951 0.0152,-0.0568 0.0183,0.0063 0.0385,0.0099 0.0596,0.0095 0.0921,-0.0053 0.20708,-0.08925 0.27305,-0.428625 0.0102,-0.0762 0.0162,-0.137231 0.0205,-0.167216 0.007,-0.04586 -0.0254,-0.09807 -0.0494,0.0074 -0.0561,0.208492 -0.22366,0.361595 -0.37077,0.09454 -0.0243,-0.05327 -0.12735,-0.297039 0.005,-0.850193 0.0268,-0.107598 0.0593,-0.267055 0.0593,-0.267055 0.03,-0.121353 -0.0177,-0.183443 -0.0614,-0.03493 -0.0434,0.148522 -0.23107,0.662165 -0.16475,1.251305 0.0106,0.09384 0.0582,0.246237 0.14464,0.33161 -0.008,0.0141 -0.0155,0.03104 -0.0233,0.05151 -0.0378,0.100893 -0.70803,1.661935 0.20602,1.915583 0.20708,0.0575 0.59196,-0.02928 1.19274,-0.441325 0.28152,-0.184857 0.83185,-0.554215 1.00401,-1.091848 0.0296,0.205668 0.0504,1.037518 0.74789,1.104548 0.51646,0.02117 0.77681,-0.536223 0.77681,-0.536223 0.006,0.06456 -0.0205,0.856191 0.51859,0.972608 0.036,0.0067 0.19473,0.04233 0.23247,-0.181327 0.0187,-0.110067 0.0353,-0.212021 0.0275,-0.3175 1.38607,0.519994 3.11573,-0.311504 3.33834,-0.424746 0.94121,-0.453671 1.60231,-0.391229 1.74766,-0.37606 0,0 0.242,-0.374298 0.25259,-0.410634 -1.49754,-0.0024 -2.98732,-0.192264 -3.0734,-0.205316 0.15804,-0.157692 0.70767,-0.394052 1.19662,-0.585259 0.036,0.06174 0.066,0.116065 0.0935,0.143227 0.0363,0.03634 0.0441,-0.05468 0.0621,-0.202845 v -7.94e-4 c 0.37078,-0.142168 0.67275,-0.248002 0.68404,-0.256468 0.0258,-0.02082 0.10901,-0.25753 0.096,-0.286105 -0.0381,-0.08361 -0.34855,-0.473075 -0.72037,-0.592667 -0.27023,-0.09384 -0.43674,0.215548 -0.49389,0.337963 -0.0572,0.12206 -0.018,0.3302 0.008,0.402871 0.0109,0.03069 0.0441,0.08925 0.0829,0.153458 -0.70767,0.2667 -1.2446,0.635 -1.3776,0.712965 -0.16898,0.09878 -0.26705,0.350308 -0.29598,0.438502 -0.0286,0.08855 0.0233,0.08855 0.0519,0.09102 0.0289,0.0024 1.90042,0.119592 1.85456,0.156988 -2.7813,1.388885 -3.80718,0.255762 -4.01391,-0.02294 -0.0194,-0.03352 -0.031,-0.05927 -0.0321,-0.07267 -0.005,-0.06491 -0.0159,-0.181327 -0.0871,-0.100542 -0.072,0.08008 -0.35595,0.776113 -0.90593,0.75565 -0.0942,-0.0035 -0.46038,0.05609 -0.59267,-0.854075 -0.0222,-0.154162 -0.17533,-1.49225 -0.85866,-2.398887 -0.0466,-0.04727 -0.067,-0.01376 -0.0737,0.02188 m 6.9783,0.996246 c 0.0568,0.0388 0.0233,0.07267 -0.0469,0.09066 -0.12594,0.02999 -0.24907,0.06491 -0.36866,0.103717 -0.0758,-0.146402 -0.16474,-0.286102 -0.17886,-0.31115 -0.0261,-0.04692 0.005,-0.06491 0.0699,-0.09595 0.15346,-0.07796 0.46744,0.173919 0.52459,0.212725 m -4.13597,2.523419 c 0.0624,0.116064 0.002,0.129468 -0.0448,0.107243 -0.24836,-0.118533 -0.34432,-0.429329 -0.3489,-0.545745 0,0 0.21026,0.09419 0.3937,0.438502 m 6.53697,-3.511902 -0.16827,0.231068 -0.3228,-0.235656 c -0.008,-0.006 -0.0198,-0.0039 -0.0261,0.0046 l -0.19473,0.267404 c -0.006,0.0085 -0.005,0.02011 0.004,0.02611 l 0.33232,0.242711 c 0.008,0.0056 0.0201,0.0035 0.0261,-0.0049 l 0.16827,-0.230717 0.32279,0.235654 c 0.008,0.0056 0.0198,0.0035 0.0261,-0.0049 l 0.19473,-0.267406 c 0.006,-0.0085 0.005,-0.02011 -0.003,-0.02611 l -0.33267,-0.242359 c -0.008,-0.006 -0.0198,-0.0039 -0.0261,0.0046 m -6.99487,0.752826 c -0.024,0.07408 -0.0416,0.131234 -0.01,0.2159 0.0321,0.08467 0.11924,0.276577 0.1337,0.304094 0.0141,0.02752 0.018,0.05856 -0.03,0.07867 -0.0476,0.02045 -0.266,0.06703 -0.30621,-0.165454 -0.0409,-0.232834 -0.0445,-0.300919 -0.0646,-0.340077 -0.0205,-0.03951 -0.0395,-0.0441 -0.055,-0.0049 -0.0155,0.03916 -0.0251,0.12065 -0.0275,0.133705 -0.002,0.01304 -0.002,0.02257 0.006,0.03704 0.008,0.0141 0.0952,0.274109 0.0557,0.345721 -0.0392,0.07161 -0.23495,0.200379 -0.33761,0.06562 -0.0487,-0.09419 -0.019,-0.332668 -0.019,-0.38876 0,-0.05609 -0.018,-0.07514 -0.0416,-0.02999 -0.024,0.04551 -0.037,0.07514 -0.036,0.116062 0.001,0.04022 0.007,0.21449 0.004,0.269523 -0.004,0.05468 0,0.232482 0.10477,0.282575 0.10513,0.05009 0.25788,0.0035 0.37324,-0.21449 0.0896,0.129823 0.22543,0.130175 0.29845,0.103365 0.0621,-0.02257 0.13123,-0.115358 0.15169,-0.244475 0.0201,-0.128765 -0.0134,-0.216958 -0.054,-0.289983 -0.0536,-0.08925 -0.0896,-0.239535 -0.0896,-0.239535 -0.0191,-0.05362 -0.0332,-0.108657 -0.0572,-0.03457 m 1.19804,0.651582 c -0.0335,0.08079 -0.1711,0.358775 -0.15029,0.686504 0.005,0.0755 0.0554,0.223308 0.16898,0.227189 0.0593,0 0.13547,-0.04304 0.18945,-0.228248 0.01,-0.04198 0.0155,-0.07549 0.0194,-0.09172 0.006,-0.0254 -0.013,-0.05503 -0.0321,0.0024 -0.043,0.113594 -0.15522,0.192969 -0.23918,0.04057 -0.0134,-0.03034 -0.0702,-0.168275 0.0339,-0.469546 0.0204,-0.05856 0.0473,-0.145698 0.0473,-0.145698 0.0236,-0.06597 -0.005,-0.101952 -0.0374,-0.02151 m 7.10036,-0.988484 c -0.0131,0.04515 -0.0455,0.239887 -0.0533,0.279752 -0.008,0.04022 -0.007,0.08008 0.0124,0.1143 0.0198,0.03422 0.0706,0.152752 0.1069,0.24906 0.0367,0.09631 0.41451,0.82409 0.44944,0.888648 0.0349,0.06421 0.042,0.112536 0.007,0.155224 -1.21285,1.279525 -3.55282,2.066218 -3.62797,2.109962 -0.0744,0.04339 -0.0547,0.07726 0.0713,0.05503 0.18804,-0.03316 1.23931,-0.208844 1.53917,-0.353129 0.19756,-0.09525 0.88759,-0.434271 1.45239,-0.876654 -0.0155,0.1143 -0.0303,0.282223 -0.0222,0.495654 0.0381,1.029052 0.95814,0.857954 1.19944,0.805037 0.7239,-0.15875 1.60902,-1.159227 1.68416,-1.359958 0.0741,-0.198612 0.085,-0.379942 0.0681,-0.537633 0.19085,-0.103362 0.60007,-0.433211 0.60007,-0.433211 0.0169,0.438502 0.36619,0.570442 0.47343,0.589492 0.50341,0.07655 0.756,-0.34431 0.86325,-0.480835 0.0914,0.240593 0.31221,0.28716 0.4258,0.309737 0.43427,0.08643 0.51858,-0.220837 0.54151,-0.291042 0.13582,-0.423333 -0.10936,-0.73942 -0.14111,-0.774345 -0.0317,-0.03493 -0.0476,-0.0013 -0.0589,0.03916 -0.0109,0.04057 -0.0462,0.193321 -0.0677,0.288925 0,0 0.0907,0.147812 0.12311,0.223309 0.0321,0.07549 -0.0155,0.116768 -0.10936,0.128058 -0.26423,0.0321 -0.47519,-0.118888 -0.54786,-0.18909 -0.0727,-0.06985 0.006,-0.193323 0.0649,-0.341135 0.0469,-0.11783 -0.0399,-0.132292 -0.10689,-2.65e-4 -0.22437,0.58914 -0.53869,0.65264 -0.6216,0.675217 -0.74612,0.2032 -0.68156,-0.478719 -0.67909,-0.59055 0.002,-0.111829 -0.079,-0.07055 -0.1711,0.0035 -0.31362,0.251529 -0.56691,0.399695 -0.70238,0.460375 -0.11748,-0.228955 -0.28752,-0.372533 -0.35948,-0.424392 -0.80751,-0.588788 -0.87383,0.599017 -0.84914,0.726369 0.12242,0.505177 0.94721,0.198966 1.07668,0.183798 0.12947,-0.01516 0.0875,0.155575 0.0148,0.257175 -0.17957,0.250118 -0.38594,0.429683 -0.57291,0.582435 -0.79975,0.652285 -1.20121,0.600782 -1.32469,0.596548 -0.78528,-0.02188 -0.71331,-0.868188 -0.66957,-1.049163 0.23601,-0.200377 0.43921,-0.417687 0.55704,-0.641702 0.048,-0.122766 0.13088,-0.401814 -0.0183,-0.751768 -0.079,-0.153813 -0.32632,-0.585965 -0.32632,-0.585965 0,0 0.18204,0.0056 0.20003,0.0053 0.0169,-2.65e-4 0.0515,-0.01834 0.007,-0.0695 -0.0441,-0.05115 -0.42757,-0.433211 -0.45085,-0.464254 -0.0229,-0.03034 -0.0445,-0.05257 -0.0572,-0.0074 m 2.42217,1.7526 c 0,0 -0.11006,0.06315 -0.41769,0.04233 -0.25752,-0.01728 -0.2353,-0.117475 -0.20002,-0.15593 0.0385,-0.04163 0.35419,-0.240241 0.61771,0.113597 m -13.47681,-1.059747 c -0.0356,0.09349 -0.18909,0.417338 -0.14182,0.786697 0.0109,0.08502 0.0825,0.248708 0.22437,0.245178 0.0734,-0.0046 0.16475,-0.05785 0.22048,-0.271637 0.008,-0.04798 0.0138,-0.08643 0.0177,-0.105129 0.006,-0.02893 -0.019,-0.06138 -0.0392,0.0049 -0.0466,0.131586 -0.18062,0.229307 -0.29421,0.06279 -0.0187,-0.03316 -0.0981,-0.185208 0.0116,-0.5334 0.0222,-0.06773 0.0494,-0.168275 0.0494,-0.168275 0.025,-0.07585 -0.012,-0.114652 -0.0483,-0.02117 m 10.16035,-0.365125 c -0.0536,0.06632 -0.58985,0.770115 -0.58985,0.770115 l -0.38982,-0.27799 c 0,0 0.15875,-0.04022 0.18627,-0.04833 0.0282,-0.0081 0.0438,-0.04375 -0.006,-0.0695 -0.0501,-0.02574 -0.52034,-0.213076 -0.55598,-0.227541 -0.036,-0.01447 -0.0487,-0.03104 -0.0519,0.0074 -0.003,0.0381 -0.008,0.347485 -0.008,0.347485 0,0 -0.007,0.02151 0.0335,0.0448 0.0413,0.02328 0.0815,0.07338 0.11501,0.106892 0.0339,0.03351 0.47131,0.378883 0.49248,0.390876 0,0 -0.21873,0.384527 -0.24659,0.685094 -0.0279,0.301273 0.006,0.716492 0.41663,0.58279 0.11077,-0.03175 0.5715,-0.215194 0.67451,-0.536223 0.0332,-0.118179 0.12841,-0.332317 -0.0265,-0.548921 -0.0889,-0.127354 -0.44838,-0.342548 -0.44838,-0.342548 0,0 0.27587,-0.382058 0.30233,-0.428625 0.0265,-0.04692 0.12806,-0.3429 0.13899,-0.414515 0.0113,-0.07126 0.0169,-0.107595 -0.0363,-0.04127 m -0.0942,1.62278 c -0.15311,0.125942 -0.47414,0.291745 -0.56445,0.300566 -0.0903,0.0085 -0.32949,-0.03528 -0.22542,-0.280458 0.0356,-0.07973 0.27481,-0.48895 0.27481,-0.48895 0.0896,0.04904 0.66781,0.343252 0.51506,0.468842 m 6.2304,0.561975 c -0.0314,0.08643 -0.043,0.142875 -0.0402,0.176035 0.004,0.03281 0.0152,0.139348 0.0152,0.139348 -0.0325,0.02574 -0.16934,0.110771 -0.30551,0.01024 0.009,-0.02928 0.0268,-0.08855 0.0303,-0.121354 0.0148,-0.05045 -0.0159,-0.0882 -0.0413,-0.03598 -0.0247,0.05256 -0.0825,0.228246 -0.12559,0.267759 -0.0434,0.03951 -0.0938,0.184502 -0.41981,0.03704 -0.0571,-0.02188 -0.15698,-0.09596 -0.31256,0.06068 -0.35278,0.327732 -0.59619,0.353132 -0.9913,0.49389 -0.048,0.02188 -0.14817,0.09701 -0.0289,0.08537 0.11924,-0.01199 0.61983,2.64e-4 0.89253,-0.312913 0.0572,-0.05539 0.12241,-0.201437 0.33901,-0.116771 0.11995,0.04551 0.34185,0.235657 0.58385,-0.140052 0.14217,0.0949 0.35878,0.0568 0.39335,-0.04762 0.0342,-0.104775 0.0741,-0.208843 0.0737,-0.279752 -2.7e-4,-0.07126 -0.007,-0.1651 -0.007,-0.1651 -0.005,-0.05645 -0.0247,-0.136879 -0.0561,-0.0508 m -9.22478,0.367242 c -0.0145,0.02998 -0.073,0.130527 -0.0819,0.151694 -0.008,0.02151 8e-4,0.0448 0.0159,0.02858 0.0145,-0.01659 0.01,-0.102307 0.27764,-0.09843 0.0384,-2.65e-4 0.0526,0.01058 0.0363,0.03069 -0.0159,0.02011 -0.25647,0.227542 -0.3175,0.503767 -0.0759,0.402167 0.31115,0.32879 0.39158,0.296333 0.048,-0.01905 0.29457,-0.130881 0.48649,-0.420864 0.0268,-0.04163 0.0413,-0.102659 -0.0155,-0.04233 -0.0564,0.06068 -0.31256,0.29845 -0.58525,0.310446 -0.21237,-0.01482 -0.24307,-0.193675 -0.18803,-0.280458 0.055,-0.08678 0.26282,-0.291396 0.29951,-0.343958 0.0367,-0.05292 0.0684,-0.132998 0.0684,-0.132998 0.0187,-0.0575 0.0286,-0.0949 -0.0314,-0.09807 -0.0596,-0.0028 -0.26847,-0.04127 -0.35631,0.0956 m -5.80425,0.426508 c -0.0741,0.024 -0.91758,0.326319 -1.00013,0.359479 -0.0772,0.03034 -0.0977,0.0501 -0.11253,0.103013 -0.0145,0.05292 -0.0219,0.08361 -0.0257,0.09207 -0.0148,0.03493 -0.0332,0.06491 0.0801,0.01834 0.0554,-0.02257 0.88653,-0.308682 0.9645,-0.3429 0.0631,-0.02716 0.0952,-0.04586 0.12206,-0.10019 0.0265,-0.05397 0.0332,-0.0635 0.048,-0.101246 0.0159,-0.04022 0.0346,-0.06491 -0.0762,-0.02858 m 0,0.419804 c -0.0741,0.02434 -0.91758,0.326673 -1.00013,0.359482 -0.0773,0.03069 -0.0977,0.05045 -0.11254,0.10301 -0.0145,0.05292 -0.0219,0.08396 -0.0257,0.09243 -0.0148,0.03493 -0.0332,0.06491 0.0801,0.01834 0.0554,-0.02257 0.88653,-0.308681 0.96449,-0.3429 0.0631,-0.02752 0.0952,-0.04586 0.12207,-0.10019 0.0265,-0.05397 0.0332,-0.0635 0.048,-0.1016 0.0159,-0.04022 0.0346,-0.06456 -0.0762,-0.02858"
       style="fill:#231f20;fill-opacity:1;fill-rule:evenodd;stroke:none;stroke-width:0.264583"
       id="path1-4" />
  </g>
</svg>
