<?xml version="1.0" encoding="UTF-8" standalone="no"?>
<!-- Created with Inkscape (http://www.inkscape.org/) -->

<svg
   width="17.009541mm"
   height="6.818778mm"
   viewBox="0 0 17.009541 6.818778"
   version="1.1"
   id="svg1"
   xmlns:inkscape="http://www.inkscape.org/namespaces/inkscape"
   xmlns:sodipodi="http://sodipodi.sourceforge.net/DTD/sodipodi-0.dtd"
   xmlns="http://www.w3.org/2000/svg"
   xmlns:svg="http://www.w3.org/2000/svg">
  <sodipodi:namedview
     id="namedview1"
     pagecolor="#ffffff"
     bordercolor="#666666"
     borderopacity="1.0"
     inkscape:showpageshadow="2"
     inkscape:pageopacity="0.0"
     inkscape:pagecheckerboard="0"
     inkscape:deskcolor="#d1d1d1"
     inkscape:document-units="mm" />
  <defs
     id="defs1" />
  <g
     inkscape:label="Layer 1"
     inkscape:groupmode="layer"
     id="layer1"
     transform="translate(-128.054,-69.592344)">
    <path
       d="m 137.3197,69.761206 c -0.0702,0.106891 -0.12206,0.363008 -0.0222,0.435679 0.10019,0.07338 0.24659,0.132291 0.24659,0.132291 -0.46602,0.571148 -0.78458,0.680157 -1.05728,0.839613 -0.0702,0.04127 -0.0561,0.07796 -0.0152,0.06703 0.0212,-0.0053 0.38806,-0.06279 0.81598,-0.387702 0.23142,-0.176038 0.37147,-0.475898 0.37147,-0.475898 0,0 0.11606,0.09631 0.13194,0.11571 0.0349,0.04375 0.054,0.07585 0.0706,0.02999 0.061,-0.168981 -0.0251,-0.270581 -0.10725,-0.323498 0,0 0.0854,-0.263173 -0.0716,-0.52705 -0.0265,-0.0441 -0.18204,-0.18556 -0.36301,0.09384 m 0.24377,0.07303 c 0.10477,0.09737 0.0889,0.257527 0.0847,0.294216 0,0 -0.13405,-0.0628 -0.19402,-0.08855 -0.0596,-0.0254 -0.0914,-0.0635 -0.0635,-0.1016 0.0921,-0.129823 0.13758,-0.125589 0.17286,-0.104068 m -1.5561,-0.196498 c -0.0159,0.03951 -0.11183,0.303389 -0.11183,0.303389 0.0257,0.17145 0.25258,2.014361 0.26776,2.13995 0.0148,0.125942 0.2166,1.804811 0.24059,2.364669 0.005,0.05715 0.0109,0.07479 0.048,0.024 0.061,-0.08396 0.18732,-0.68439 0.0801,-1.582209 -0.0166,-0.117475 -0.32809,-2.346325 -0.32809,-2.346325 0,0 0.19721,0.184854 0.22896,0.218721 0.0318,0.03352 0.0702,0.01588 0.0519,-0.0381 -0.018,-0.05397 -0.42156,-1.030462 -0.43497,-1.064683 -0.013,-0.03351 -0.0261,-0.05856 -0.0423,-0.01939 m -1.1102,0 c -0.0162,0.03951 -0.14605,0.324908 -0.14605,0.324908 0.004,0.02328 0.0342,0.09349 0.055,0.237418 0.0222,0.149932 0.35525,3.085397 0.37218,3.220157 0.0166,0.134408 0.0663,0.371123 -0.11113,0.419806 -0.17744,0.04833 -0.34854,0.06526 -0.54927,0.02716 0,0 0.16898,-0.32526 0.14146,-0.595841 -0.0127,-0.09278 -0.12029,-0.638175 -0.45226,-0.40146 -0.33161,0.236714 -0.50694,0.807156 -0.36336,1.046339 0,0 -0.85584,0.401109 -1.28058,-0.228248 -0.0251,-0.04445 -0.0399,-0.224366 -0.0399,-0.277283 0,-0.05257 0,-0.113594 -0.11641,-0.006 -0.11642,0.107598 -0.76271,0.900641 -1.84926,0.7112 -0.14323,-0.02469 -1.04564,-0.304094 -0.59444,-1.673577 0.1069,-0.05644 0.22049,-0.113594 0.3422,-0.170392 0.23813,-0.111477 0.82903,-0.436739 0.82903,-0.436739 l 0.13441,-0.364067 c -0.28575,-0.06173 -1.77554,-0.229658 -2.7559,0 -0.26318,0.06703 -0.46461,0.251883 -0.45897,0.509765 0,0.184502 0.0505,0.280106 0.15663,0.335843 0.25859,0.126296 0.49954,0.317855 0.67769,0.482248 -0.36583,0.353836 -0.82832,1.0287 -0.73907,2.161469 0.0162,0.207081 0.0152,1.548341 2.3749,1.444979 0.36372,-0.01622 1.28799,-0.291041 1.46156,-0.369713 0.17357,-0.07832 0.16827,-0.123118 -0.0617,-0.112183 -0.22965,0.01164 -1.62948,0.195792 -2.28494,0.03951 -0.2353,-0.05609 -1.48131,-0.218723 -1.3275,-1.629833 0.0201,-0.18274 0.0406,-0.705909 0.78634,-1.325388 0.0452,0.04974 0.0759,0.08678 0.0875,0.103365 0.0526,0.07549 0.0755,0.09207 0.079,0.01304 0.001,-0.03951 0.0152,-0.125236 -0.0102,-0.239184 0.1584,-0.118533 0.34432,-0.239887 0.56198,-0.362302 -0.0674,0.233186 -0.39053,1.3208 0.25823,1.807282 0.12206,0.08854 0.58385,0.403225 1.54164,0.01304 0.18344,-0.07655 0.52493,-0.258586 0.74965,-0.53975 0,0 0.11854,0.582789 0.80469,0.606777 0.17392,0.006 0.51576,-0.04057 0.91616,-0.242711 0,0 0.35596,0.13335 0.70979,0.11924 0.16581,-0.02011 0.54998,-0.09278 0.59655,-0.780698 0.004,-0.09525 -0.0526,-0.883356 -0.0727,-1.049515 -0.0201,-0.165803 -0.25471,-2.024591 -0.25471,-2.024591 0,0 0.17498,0.197204 0.20673,0.231071 0.0314,0.03351 0.0702,0.01553 0.0519,-0.03845 -0.018,-0.05362 -0.37148,-0.933095 -0.38453,-0.967316 -0.013,-0.03351 -0.0261,-0.05856 -0.0423,-0.01939 m -4.41114,2.172758 c -0.12488,0.05927 -1.09361,0.612775 -1.18886,0.67451 -0.0194,0.01236 -0.0861,0.0508 -0.17745,0.118182 -0.031,-0.04092 -0.0674,-0.0829 -0.11182,-0.125942 -0.0998,-0.09702 -0.69956,-0.47625 -0.72884,-0.502356 -0.0296,-0.02646 -0.0889,-0.05927 0.0395,-0.101952 0.1277,-0.04269 0.58773,-0.213432 2.16746,-0.06244 m 3.97546,1.63689 c 0.0674,0.222954 -0.18874,0.2921 -0.2667,0.323143 0,0 -0.13759,-0.03281 -0.21202,-0.163335 -0.0744,-0.130529 0.0995,-0.308329 0.2159,-0.384529 0.11571,-0.0762 0.19579,0.0019 0.26282,0.224721 m 9.38071,-3.590573 c -0.0702,0.106891 -0.12242,0.362656 -0.0226,0.435681 0.10019,0.07338 0.24659,0.132644 0.24659,0.132644 -0.46602,0.570793 -1.38042,0.976841 -1.59844,1.146881 -0.0645,0.04868 -0.0561,0.07796 -0.0152,0.06703 0.0367,-0.0099 0.73343,-0.204965 1.37055,-0.75071 0.2921,-0.250121 0.28398,-0.269171 0.35842,-0.420865 0.0635,0.03246 0.10689,0.08537 0.13158,0.116417 0.0353,0.04339 0.0543,0.07585 0.0709,0.02998 0.0607,-0.168979 -0.0254,-0.270933 -0.1076,-0.32385 0,0 0.0854,-0.262819 -0.0716,-0.527402 -0.0261,-0.0441 -0.18168,-0.185208 -0.36265,0.09419 m 0.24341,0.07267 c 0.10478,0.09772 0.0889,0.257879 0.0847,0.294568 0,0 -0.1337,-0.06244 -0.19403,-0.08819 -0.0596,-0.02574 -0.0914,-0.06386 -0.0635,-0.101955 0.0921,-0.12982 0.13759,-0.125235 0.17286,-0.10442 m -1.78823,-0.1651 c -0.18309,0.232479 -0.19508,0.538337 -0.21943,0.879475 -0.0257,-0.07126 -0.1718,-0.528815 -0.63958,-0.790575 -0.0339,-0.01905 -0.10301,0.01693 -0.10936,0.124529 -0.004,0.0628 -0.0219,0.215196 0.0226,0.258233 0.0441,0.04339 0.17463,0.128413 0.1965,0.140054 0.0222,0.01236 0.0455,0.01376 0.0519,-0.01236 0.007,-0.02611 0.0367,-0.08714 0.079,-0.04339 0.0356,0.03598 0.266,0.226835 0.38559,0.630415 0.0208,0.05362 0.0702,0.05856 0.0818,-0.01728 0.0275,-0.186618 0.0427,-0.511175 0.0572,-0.6096 0.0212,-0.137935 0.0875,-0.423333 0.26247,-0.275166 0.0395,0.03351 0.0818,0.07796 0.0818,0.07796 0.037,0.04692 0.084,0.10019 0.10654,0.04622 0.0342,-0.08114 0.0621,-0.216606 0.0243,-0.289983 -0.0169,-0.03246 -0.23354,-0.306917 -0.38135,-0.118534 m -1.80058,-0.0113 c -0.0677,0.03951 -1.78752,1.032227 -1.85737,1.077383 -0.0699,0.0448 -0.0942,0.05609 -0.10548,0.110067 -0.0113,0.05398 -0.0169,0.08502 -0.0198,0.09349 -0.0127,0.03598 -0.0215,0.08043 0.0808,0.01341 0.0321,-0.02082 1.76247,-1.020585 1.8228,-1.058333 0.0582,-0.03669 0.0921,-0.05221 0.11536,-0.107598 0.0233,-0.05574 0.0289,-0.06597 0.0416,-0.104775 0.013,-0.04092 0.0265,-0.08502 -0.078,-0.02363 m -10.1226,0.107243 c -0.17427,0.232834 -0.18521,0.53834 -0.20849,0.87983 -0.0243,-0.07161 -0.16334,-0.528815 -0.60819,-0.791282 -0.0325,-0.01905 -0.0981,0.01693 -0.10407,0.124884 -0.004,0.06279 -0.0208,0.214841 0.0215,0.258233 0.042,0.04304 0.16616,0.12841 0.18697,0.140052 0.0208,0.01236 0.0434,0.01376 0.0497,-0.01236 0.006,-0.02611 0.0342,-0.08678 0.0748,-0.04304 0.0339,0.03598 0.25294,0.226483 0.36689,0.630415 0.0198,0.05362 0.067,0.05891 0.078,-0.01728 0.0261,-0.186619 0.0402,-0.511175 0.0543,-0.6096 0.0194,-0.138288 0.0825,-0.423334 0.24906,-0.275167 0.0378,0.03351 0.078,0.07796 0.078,0.07796 0.0356,0.04692 0.0801,0.100541 0.10125,0.04657 0.0328,-0.08184 0.0593,-0.216958 0.0233,-0.290335 -0.0159,-0.03246 -0.22261,-0.306917 -0.36301,-0.118888 m 1.27529,0.296334 c -0.10548,0.115006 -0.13794,0.194029 -0.16969,0.243416 -0.0434,0.06809 0.0113,0.09807 0.0603,0.04516 0.0494,-0.05257 0.0833,-0.105482 0.22648,-0.101952 0.14323,0.0039 0.48684,-0.0092 0.35843,0.08502 -0.12806,0.09419 -0.2152,0.148873 -0.2152,0.148873 -0.0832,0.05997 -0.15628,0.171802 -0.009,0.109713 0.14711,-0.06209 0.34149,-0.160513 0.49072,-0.384879 0.0434,-0.06562 0.0942,-0.152755 -0.1076,-0.183092 -0.20214,-0.02999 -0.52846,-0.07726 -0.6343,0.03775 m -3.10303,0.0035 c -0.0307,0.07479 -0.15875,0.332669 -0.13899,0.636411 0.005,0.0702 0.0512,0.207081 0.15663,0.210608 0.055,0 0.12524,-0.03987 0.17568,-0.211667 0.009,-0.03845 0.0141,-0.06985 0.0177,-0.08537 0.005,-0.02328 -0.0116,-0.05045 -0.0296,0.0024 -0.0399,0.105126 -0.14359,0.17921 -0.22155,0.03775 -0.0123,-0.02787 -0.0653,-0.155575 0.0314,-0.435327 0.0194,-0.05433 0.0437,-0.135115 0.0437,-0.135115 0.0219,-0.06138 -0.004,-0.09454 -0.0349,-0.01976 m 5.96935,-0.01728 c -0.0741,0.02434 -1.61008,0.685448 -1.69263,0.718608 -0.0769,0.03034 -0.0981,0.0501 -0.11253,0.103365 -0.0145,0.05257 -0.0222,0.08361 -0.0257,0.09172 -0.0145,0.03528 -0.0328,0.06526 0.0804,0.01871 0.055,-0.02294 1.57868,-0.667808 1.65699,-0.702027 0.0628,-0.02752 0.0945,-0.04586 0.12171,-0.100542 0.0268,-0.05362 0.0332,-0.0635 0.0483,-0.101248 0.0155,-0.04022 0.0342,-0.06491 -0.0765,-0.02857 m 6.31154,0.9652 c -0.0346,0.08396 -0.17885,0.37465 -0.15698,0.717198 0.005,0.07902 0.0579,0.233186 0.17709,0.237419 0.0617,-2.65e-4 0.14112,-0.0448 0.19756,-0.238829 0.01,-0.04339 0.0159,-0.07867 0.0201,-0.09596 0.006,-0.02574 -0.0134,-0.0575 -0.0332,0.0028 -0.0452,0.118533 -0.16228,0.201435 -0.25012,0.04233 -0.0141,-0.0314 -0.0734,-0.175683 0.0353,-0.490715 0.0219,-0.06103 0.0494,-0.1524 0.0494,-0.1524 0.0247,-0.06879 -0.005,-0.10654 -0.0392,-0.02188 m 3.3073,0.172863 c -0.0317,0.07832 -0.16546,0.347485 -0.145,0.664279 0.005,0.07338 0.0529,0.2159 0.16334,0.219781 0.0572,0 0.13088,-0.04127 0.18345,-0.220839 0.009,-0.04022 0.0148,-0.07303 0.0183,-0.0889 0.006,-0.02434 -0.0123,-0.05292 -0.0307,0.0024 -0.0416,0.109712 -0.15028,0.186618 -0.23142,0.03916 -0.013,-0.02893 -0.0681,-0.162279 0.0328,-0.454379 0.0201,-0.05644 0.0455,-0.141111 0.0455,-0.141111 0.0229,-0.0635 -0.005,-0.09807 -0.0363,-0.02045 m -6.20677,0.0088 -0.16793,0.230716 -0.32314,-0.236008 c -0.008,-0.0053 -0.0198,-0.0035 -0.0261,0.0053 l -0.19474,0.267406 c -0.006,0.0081 -0.005,0.01976 0.004,0.02574 l 0.33267,0.242358 c 0.008,0.006 0.0194,0.0042 0.0257,-0.0042 l 0.16827,-0.231068 0.32315,0.235301 c 0.008,0.006 0.0194,0.0042 0.0254,-0.0042 l 0.19508,-0.267758 c 0.006,-0.0085 0.005,-0.02011 -0.003,-0.02574 L 137.95485,71.2844 c -0.008,-0.0053 -0.0198,-0.0035 -0.0261,0.0053 m -3.90595,0.506235 -0.19509,0.267406 c -0.006,0.0085 -0.005,0.02011 0.004,0.02574 l 0.33267,0.243065 c 0.008,0.006 0.0198,0.0035 0.0257,-0.0049 l 0.19508,-0.267403 c 0.006,-0.0085 0.005,-0.02011 -0.004,-0.02611 l -0.33267,-0.242358 c -0.008,-0.006 -0.0194,-0.0039 -0.0257,0.0046 m -1.81751,0.12065 -0.16828,0.230365 -0.32314,-0.235302 c -0.008,-0.006 -0.0198,-0.0039 -0.0257,0.0049 l -0.19474,0.267054 c -0.006,0.0085 -0.005,0.02045 0.003,0.02612 l 0.33267,0.243064 c 0.008,0.0053 0.0194,0.0032 0.0261,-0.0053 l 0.16828,-0.230717 0.32315,0.236008 c 0.008,0.0053 0.0194,0.0032 0.0254,-0.0053 l 0.19508,-0.267407 c 0.006,-0.0081 0.005,-0.01976 -0.003,-0.02574 l -0.33303,-0.24271 c -0.008,-0.006 -0.0194,-0.0039 -0.0257,0.0049 m -1.32433,0.782815 c -0.0321,0.07867 -0.16651,0.34925 -0.14605,0.668514 0.005,0.07373 0.054,0.217663 0.1651,0.221192 0.0571,-2.65e-4 0.13124,-0.04163 0.18415,-0.222604 0.009,-0.04057 0.0148,-0.07338 0.0187,-0.08925 0.005,-0.02434 -0.0124,-0.05362 -0.031,0.0024 -0.042,0.110773 -0.15099,0.188031 -0.23283,0.03987 -0.0134,-0.02963 -0.0688,-0.16369 0.0328,-0.457907 0.0204,-0.0568 0.0459,-0.141816 0.0459,-0.141816 0.0233,-0.0642 -0.004,-0.09913 -0.0367,-0.02045 m 8.35131,-0.994127 c -0.0131,0.04551 -0.0455,0.240242 -0.0536,0.280104 -0.008,0.03987 -0.007,0.07973 0.0127,0.113948 0.0198,0.03422 0.0705,0.152752 0.10689,0.24906 0.0367,0.09631 0.41416,0.82409 0.44908,0.888297 0.0349,0.06456 0.0423,0.113241 0.007,0.155575 -1.2125,1.279877 -3.55317,2.06657 -3.62796,2.109962 -0.0748,0.04375 -0.0547,0.07726 0.0709,0.05503 0.18839,-0.03281 1.23966,-0.208492 1.53953,-0.353129 0.19755,-0.09525 0.88758,-0.433916 1.45238,-0.8763 -0.0159,0.113946 -0.0303,0.282221 -0.0222,0.494946 0.0381,1.029406 0.95814,0.858663 1.19944,0.805746 0.7239,-0.159105 1.60902,-1.159581 1.68416,-1.360313 0.0741,-0.198612 0.085,-0.379942 0.0681,-0.537633 0.19085,-0.10301 0.60007,-0.43321 0.60007,-0.43321 0.0169,0.438501 0.36619,0.570441 0.47343,0.589491 0.50342,0.07655 0.75601,-0.34431 0.86325,-0.480835 0.0914,0.240594 0.31221,0.287512 0.4258,0.309737 0.43392,0.08643 0.51858,-0.220837 0.54116,-0.290687 0.13653,-0.42404 -0.109,-0.739423 -0.14075,-0.7747 -0.0314,-0.03493 -0.0476,-0.0013 -0.0586,0.03951 -0.0109,0.04057 -0.0462,0.193323 -0.0684,0.288573 0,0 0.091,0.148167 0.12347,0.223661 0.0321,0.07514 -0.0159,0.116416 -0.10936,0.127706 -0.26424,0.03245 -0.4752,-0.118888 -0.54787,-0.18909 -0.0727,-0.06985 0.006,-0.193323 0.0646,-0.340783 0.0473,-0.118182 -0.0399,-0.132292 -0.10654,-2.65e-4 -0.22401,0.588786 -0.53869,0.652637 -0.62159,0.674862 -0.74613,0.203555 -0.68157,-0.478718 -0.6791,-0.59055 0.002,-0.111828 -0.079,-0.0702 -0.1711,0.0035 -0.31362,0.251884 -0.56691,0.399696 -0.70273,0.460375 -0.11712,-0.2286 -0.28716,-0.372533 -0.35913,-0.424391 -0.80751,-0.588788 -0.87383,0.599368 -0.84949,0.726368 0.12277,0.505532 0.94792,0.199319 1.07703,0.183798 0.12947,-0.01516 0.0871,0.155927 0.0145,0.257175 -0.17886,0.250119 -0.38559,0.429684 -0.57291,0.582436 -0.7994,0.652285 -1.20051,0.600781 -1.32433,0.5969 -0.78528,-0.02223 -0.71332,-0.868892 -0.66957,-1.049515 0.23601,-0.200025 0.43921,-0.417687 0.55703,-0.64135 0.048,-0.123119 0.13088,-0.402167 -0.0187,-0.751769 -0.0783,-0.154164 -0.32633,-0.585964 -0.32633,-0.585964 0,0 0.18274,0.0056 0.20003,0.0049 0.0173,-2.64e-4 0.0519,-0.01834 0.007,-0.06914 -0.0444,-0.05116 -0.42757,-0.433565 -0.45085,-0.464257 -0.0229,-0.03069 -0.0441,-0.05292 -0.0571,-0.0078 m 2.42217,1.7526 c 0,0 -0.11007,0.0635 -0.41769,0.04233 -0.25753,-0.01693 -0.2353,-0.117475 -0.20002,-0.155575 0.0381,-0.04163 0.35383,-0.240596 0.61771,0.113242 m -3.31682,-1.424517 c -0.0533,0.06597 -0.58949,0.769761 -0.58949,0.769761 l -0.38982,-0.27799 c 0,0 0.15875,-0.04022 0.18662,-0.04798 0.0279,-0.0081 0.0434,-0.0441 -0.006,-0.0695 -0.0501,-0.02574 -0.52034,-0.213429 -0.55597,-0.227894 -0.0356,-0.01447 -0.0487,-0.03069 -0.0519,0.0074 -0.003,0.0381 -0.009,0.347485 -0.009,0.347485 0,0 -0.007,0.02188 0.0342,0.04516 0.0409,0.02294 0.0811,0.07338 0.11465,0.10654 0.0339,0.03387 0.47131,0.378883 0.49247,0.390877 0,0 -0.21872,0.384527 -0.24694,0.685448 -0.0275,0.30127 0.006,0.716137 0.41698,0.582083 0.11078,-0.0314 0.5715,-0.21449 0.67451,-0.535516 0.0332,-0.118534 0.12806,-0.332317 -0.0261,-0.548923 -0.0893,-0.127707 -0.44909,-0.342549 -0.44909,-0.342549 0,0 0.27623,-0.382058 0.30269,-0.428976 0.0264,-0.04692 0.1277,-0.342549 0.13899,-0.414161 0.0113,-0.07161 0.0169,-0.107598 -0.0367,-0.04127 m -0.0942,1.622777 c -0.15275,0.12559 -0.47413,0.291748 -0.56409,0.300215 -0.0903,0.0088 -0.32985,-0.03492 -0.22543,-0.280813 0.0353,-0.07902 0.27482,-0.488595 0.27482,-0.488595 0.0896,0.04904 0.66781,0.343252 0.5147,0.469193 m 6.23076,0.561623 c -0.031,0.08643 -0.0434,0.142875 -0.0402,0.176035 0.004,0.03281 0.0148,0.139349 0.0148,0.139349 -0.0321,0.02574 -0.16898,0.11077 -0.3055,0.01024 0.009,-0.02928 0.0268,-0.08854 0.0307,-0.121354 0.0148,-0.05045 -0.0162,-0.0882 -0.0413,-0.03598 -0.0251,0.05292 -0.0829,0.228245 -0.12594,0.267758 -0.043,0.03951 -0.0935,0.184502 -0.41945,0.03704 -0.0568,-0.02188 -0.15699,-0.09596 -0.31256,0.06068 -0.35278,0.327731 -0.5962,0.353483 -0.99131,0.49389 -0.048,0.02188 -0.14852,0.09737 -0.0289,0.08537 0.11889,-0.01199 0.61983,0 0.89253,-0.31256 0.0571,-0.05574 0.12242,-0.20179 0.33902,-0.116769 0.11995,0.04515 0.34184,0.235654 0.5835,-0.140054 0.14252,0.09455 0.35912,0.0568 0.3937,-0.04798 0.0342,-0.104775 0.0741,-0.208844 0.0737,-0.280107 -2.7e-4,-0.07091 -0.007,-0.164745 -0.007,-0.164745 -0.005,-0.05645 -0.0247,-0.136525 -0.0561,-0.0508 m -14.68261,0.115358 c -0.0744,0.024 -0.91757,0.326319 -1.00012,0.359479 -0.0769,0.03034 -0.0977,0.0501 -0.11254,0.103013 -0.0145,0.05292 -0.0219,0.08361 -0.0257,0.09208 -0.0148,0.03528 -0.0332,0.06526 0.0801,0.01833 0.0554,-0.02257 0.88653,-0.308326 0.96449,-0.342548 0.0632,-0.02752 0.0949,-0.04621 0.12206,-0.100187 0.0268,-0.05397 0.0332,-0.0635 0.048,-0.1016 0.0159,-0.04022 0.0349,-0.06456 -0.0762,-0.02858 m 5.79437,0.102659 c -0.0321,0.07832 -0.16651,0.34925 -0.14605,0.668512 0.005,0.07373 0.0536,0.217313 0.16475,0.221191 0.0575,-2.64e-4 0.13159,-0.04198 0.18415,-0.222602 0.009,-0.04022 0.0152,-0.07303 0.0187,-0.08925 0.006,-0.02434 -0.0124,-0.05327 -0.031,0.0024 -0.042,0.110418 -0.15099,0.187677 -0.23283,0.03951 -0.013,-0.02928 -0.0684,-0.163335 0.0328,-0.4572 0.0204,-0.05715 0.0462,-0.142169 0.0462,-0.142169 0.0229,-0.06421 -0.004,-0.09948 -0.0367,-0.02045 m -3.30447,0.05574 c -0.0321,0.07867 -0.16686,0.349605 -0.1464,0.668867 0.005,0.07373 0.054,0.217665 0.16475,0.22084 0.0579,0 0.13194,-0.04163 0.1845,-0.221898 0.01,-0.04092 0.0148,-0.07338 0.0187,-0.0896 0.006,-0.02469 -0.0124,-0.05362 -0.0307,0.0021 -0.0423,0.11077 -0.15135,0.188383 -0.23319,0.03986 -0.013,-0.02928 -0.0684,-0.163687 0.0328,-0.4572 0.0201,-0.05715 0.0462,-0.142169 0.0462,-0.142169 0.0226,-0.06421 -0.005,-0.09913 -0.0367,-0.02082"
       style="fill:#231f20;fill-opacity:1;fill-rule:evenodd;stroke:none;stroke-width:0.264583"
       id="path1-5" />
  </g>
</svg>
