<?xml version="1.0" encoding="UTF-8" standalone="no"?>
<!-- Created with Inkscape (http://www.inkscape.org/) -->

<svg
   width="20.358206mm"
   height="6.4065456mm"
   viewBox="0 0 20.358206 6.4065456"
   version="1.1"
   id="svg1"
   xmlns:inkscape="http://www.inkscape.org/namespaces/inkscape"
   xmlns:sodipodi="http://sodipodi.sourceforge.net/DTD/sodipodi-0.dtd"
   xmlns="http://www.w3.org/2000/svg"
   xmlns:svg="http://www.w3.org/2000/svg">
  <sodipodi:namedview
     id="namedview1"
     pagecolor="#ffffff"
     bordercolor="#666666"
     borderopacity="1.0"
     inkscape:showpageshadow="2"
     inkscape:pageopacity="0.0"
     inkscape:pagecheckerboard="0"
     inkscape:deskcolor="#d1d1d1"
     inkscape:document-units="mm" />
  <defs
     id="defs1" />
  <g
     inkscape:label="Layer 1"
     inkscape:groupmode="layer"
     id="layer1"
     transform="translate(-127.70267,-74.321432)">
    <path
       d="m 140.31701,74.490579 c -0.0702,0.106539 -0.12242,0.362301 -0.0219,0.435326 0.0998,0.07338 0.24588,0.132647 0.24588,0.132647 -0.46602,0.571145 -0.78422,0.680153 -1.05692,0.83961 -0.0702,0.04092 -0.0564,0.07797 -0.0148,0.06703 0.0208,-0.0056 0.38771,-0.06279 0.81563,-0.388054 0.23142,-0.175683 0.37147,-0.47625 0.37147,-0.47625 0,0 0.11642,0.09666 0.13159,0.116417 0.0353,0.04374 0.0547,0.07585 0.0709,0.02998 0.061,-0.169333 -0.0254,-0.270933 -0.1076,-0.323498 0,0 0.0857,-0.263525 -0.0716,-0.527402 -0.0261,-0.04445 -0.18169,-0.185208 -0.36266,0.09419 m 0.24342,0.07267 c 0.10512,0.09737 0.0892,0.257878 0.085,0.294568 0,0 -0.13405,-0.06279 -0.19402,-0.08855 -0.06,-0.02574 -0.0914,-0.06385 -0.0639,-0.101952 0.0924,-0.129823 0.13793,-0.125235 0.17286,-0.104068 m -1.96286,-0.159457 c -0.0152,0.03951 -0.10407,0.30621 -0.10407,0.30621 0.03,0.170392 0.30445,2.006955 0.32279,2.132542 0.01,0.06985 0.13194,0.754592 0.24236,1.443921 -0.4512,-0.02363 -0.98778,-0.07056 -1.3843,-0.173566 0,0 0.11359,-0.35278 0.0589,-0.802217 -0.0519,-0.425098 -0.37078,-1.970971 -0.37078,-1.970971 0,0 0.20215,0.180271 0.23495,0.212725 0.0325,0.03281 0.0702,0.01376 0.0508,-0.03951 -0.0194,-0.05327 -0.44802,-1.019175 -0.46213,-1.05269 -0.0141,-0.03351 -0.0275,-0.05785 -0.043,-0.01834 -0.0152,0.03951 -0.13723,0.328084 -0.13723,0.328084 0.004,0.02328 0.036,0.09313 0.061,0.23636 0.0236,0.137583 0.47625,2.522714 0.48824,2.870554 -0.005,0.02363 -0.0646,0.02506 -0.0896,0.03034 -0.1651,0.0501 -0.90629,0.05856 -1.07633,0.239184 -0.0381,0.05256 -0.0801,0.208139 -0.0945,0.254354 -0.0148,0.04586 0.0628,0.04163 0.1471,0.02716 0.0836,-0.01482 0.48719,-0.100893 1.58962,0.18274 -0.15134,0.07761 -0.9338,0.476602 -1.58785,0.61101 -0.24694,0.05115 -0.7874,0.06103 -1.0668,-0.26035 -0.0628,-0.07197 -0.23142,-0.34431 -0.0589,-0.751768 0.001,-0.0032 0.002,-0.0056 0.003,-0.0081 0.37324,-0.184854 0.67875,-0.337608 0.71931,-0.361595 0,0 0.19756,-0.340432 0.14288,-0.36548 -1.30246,-0.382058 -2.13395,-0.28575 -2.53294,-0.243768 -0.39935,0.04198 -0.5648,0.390173 -0.57997,0.508351 -0.0183,0.143934 0.0254,0.259647 0.097,0.357717 0.0907,0.12418 0.46814,0.420158 0.54257,0.49248 -0.0843,0.0388 -0.13934,0.0642 -0.15204,0.0695 -0.68475,0.302683 -1.43581,1.249188 -1.55857,1.394883 -0.2981,0.353132 -0.74472,0.44803 -0.93663,0.155224 -0.15593,-0.237419 -0.0138,-0.862894 0.0815,-1.120775 0.01,-0.02646 0.0173,-0.0508 0.0226,-0.07303 0.0455,-0.03987 0.0871,-0.0822 0.12242,-0.126649 0.0462,-0.05785 0.2159,-0.36336 0.11747,-0.66957 -0.0395,-0.119946 -0.22295,-0.43039 -0.26,-0.49248 -0.0374,-0.06173 -0.067,-0.07091 -0.0875,-0.0092 -0.0205,0.06174 -0.0995,0.373238 -0.0995,0.373238 0.061,0.08855 0.33267,0.466725 0.254,0.538339 -0.0787,0.07161 -0.78352,0.612423 -2.38125,0.634648 -0.17921,0.0024 -1.00577,-0.05715 -0.9338,-0.716846 0.009,-0.08184 0.0688,-0.31256 0.15381,-0.487185 0.0875,-0.01024 0.19403,-0.09525 0.25576,-0.41275 0.01,-0.07408 0.0152,-0.132998 0.0198,-0.161925 0.006,-0.0441 -0.0247,-0.09419 -0.048,0.0074 -0.054,0.201436 -0.21555,0.348898 -0.35772,0.09137 -0.0236,-0.0515 -0.12276,-0.286808 0.005,-0.820912 0.0261,-0.103717 0.0575,-0.257882 0.0575,-0.257882 0.0289,-0.116768 -0.0169,-0.176741 -0.0589,-0.03351 -0.0423,0.143229 -0.22331,0.638881 -0.15946,1.207912 0.0124,0.105834 0.0734,0.290336 0.18697,0.356304 -0.15204,0.25894 -0.45367,0.886884 -0.0448,1.371955 0.043,0.05362 0.45579,0.523168 2.13748,0.112535 0.28822,-0.06668 0.67063,-0.194027 0.96026,-0.384175 -0.007,0.02045 -0.0152,0.04198 -0.0229,0.06526 -0.0727,0.212018 -0.10653,0.482952 -0.10936,0.642408 -0.0127,0.685094 0.37007,0.867479 0.54187,0.882295 0.58279,0.05045 0.97896,-0.697087 1.3148,-1.066799 0.33585,-0.369711 0.8823,-0.609246 1.09643,-0.718254 0.0261,-0.01376 0.0783,-0.03951 0.14888,-0.07479 0.0596,0.06526 0.10407,0.116769 0.11994,0.137583 0.0501,0.06703 0.10689,-0.05609 0.0878,-0.2159 -0.001,-0.0074 -0.004,-0.0141 -0.006,-0.02151 0.27305,-0.134763 0.65652,-0.323498 1.00471,-0.496007 -0.007,0.02257 -0.0141,0.04621 -0.0198,0.07373 -0.0388,0.182033 -0.0914,0.547862 0.0134,0.830085 0.14605,0.394406 0.53234,0.451202 0.70696,0.467431 0.26035,0.024 0.70591,-0.02188 1.49719,-0.356658 0.18098,-0.0755 0.91581,-0.436388 1.17652,-0.4953 0.12876,-0.02928 0.34396,-0.06879 0.5655,-0.09525 0.0589,0.388408 0.10583,0.736952 0.11607,0.925687 -0.003,0.05856 0.0233,0.08008 0.0487,0.02294 0.019,-0.04304 0.12206,-0.271639 0.066,-0.970843 0.1457,-0.01058 0.28187,-0.01164 0.38382,0.0042 0.055,-0.06738 0.18485,-0.357364 0.18485,-0.357364 -0.0603,-0.0063 -0.29703,-0.0085 -0.60924,-0.02045 -0.0201,-0.1524 -0.0466,-0.319971 -0.0804,-0.506238 -0.0194,-0.116768 -0.41452,-2.490258 -0.41452,-2.490258 0,0 0.20179,0.180271 0.23424,0.212725 0.0325,0.03281 0.0706,0.01376 0.0512,-0.03951 -0.0198,-0.05362 -0.44838,-1.019175 -0.46214,-1.05269 -0.0141,-0.03387 -0.0275,-0.05821 -0.043,-0.01834 m -3.04447,3.335161 c 0,0 -0.9772,0.453321 -1.56316,0.723196 -0.0829,-0.08961 -0.19544,-0.1778 -0.28963,-0.26529 -0.18874,-0.17639 -0.35489,-0.339019 -0.38629,-0.378177 -0.084,-0.105129 0.0483,-0.159808 0.13864,-0.17639 0.83996,-0.155223 1.95333,0.04622 2.10044,0.09666 m 11.28642,-3.152775 c -0.0702,0.106539 -0.12242,0.362656 -0.0222,0.435329 0.0998,0.07338 0.24624,0.132644 0.24624,0.132644 -0.46567,0.571148 -1.38077,0.977193 -1.59808,1.146881 -0.0649,0.04904 -0.0564,0.07796 -0.0152,0.06703 0.0363,-0.0099 0.73307,-0.204965 1.37019,-0.75071 0.2921,-0.250121 0.28398,-0.268817 0.35842,-0.420865 0.0631,0.03281 0.10689,0.08573 0.13123,0.116417 0.0353,0.04339 0.0547,0.07549 0.0709,0.02998 0.061,-0.168979 -0.0251,-0.270933 -0.10725,-0.323495 0,0 0.0857,-0.263174 -0.0713,-0.527405 -0.0268,-0.04409 -0.18238,-0.18556 -0.363,0.09419 m 0.24341,0.07267 c 0.10513,0.09772 0.0889,0.257881 0.0847,0.294568 0,0 -0.13371,-0.06314 -0.19403,-0.08854 -0.06,-0.02574 -0.0914,-0.06385 -0.0639,-0.101955 0.0928,-0.12982 0.13793,-0.125235 0.17321,-0.104068 m -1.78858,-0.165452 c -0.18309,0.232479 -0.19473,0.538337 -0.21908,0.879827 -0.0257,-0.07161 -0.17215,-0.529167 -0.63958,-0.790927 -0.0339,-0.01905 -0.10301,0.01728 -0.10936,0.124529 -0.004,0.06315 -0.0219,0.215196 0.0226,0.258939 0.0441,0.04269 0.17463,0.127352 0.1965,0.139349 0.0219,0.01236 0.0455,0.01376 0.0522,-0.01236 0.006,-0.02611 0.0363,-0.08678 0.0783,-0.04339 0.036,0.03634 0.26634,0.226835 0.38594,0.630766 0.0208,0.05327 0.0702,0.05856 0.0818,-0.01728 0.0275,-0.186973 0.0427,-0.511175 0.0575,-0.609954 0.0208,-0.137936 0.0868,-0.422979 0.26212,-0.275167 0.0395,0.03387 0.0818,0.07832 0.0818,0.07832 0.0374,0.04657 0.084,0.100189 0.10654,0.04621 0.0346,-0.08149 0.0621,-0.21731 0.024,-0.290335 -0.0162,-0.0321 -0.23319,-0.306916 -0.38135,-0.118533 m -1.80023,-0.01093 c -0.0677,0.03951 -1.78788,1.032229 -1.85737,1.077031 -0.0699,0.0448 -0.0942,0.05644 -0.10549,0.110067 -0.0113,0.05397 -0.0169,0.08502 -0.0198,0.09349 -0.0127,0.03598 -0.0215,0.08043 0.0811,0.01341 0.0317,-0.02082 1.76177,-1.020585 1.82245,-1.057981 0.0579,-0.03669 0.0917,-0.05221 0.115,-0.10795 0.0233,-0.05574 0.0293,-0.06562 0.042,-0.104421 0.013,-0.04127 0.0265,-0.08502 -0.078,-0.02363 m -8.54216,0.192971 c -0.0889,0.118886 -0.16792,0.412396 -0.0568,0.504471 0.11078,0.09243 0.27658,0.17145 0.27658,0.17145 -0.58173,0.629356 -1.13806,1.107371 -1.46579,1.273175 -0.0843,0.04269 -0.0706,0.08678 -0.0222,0.07691 0.0251,-0.0053 0.21661,-0.03457 0.74084,-0.375356 0.44097,-0.286809 0.87806,-0.917221 0.87806,-0.917221 0,0 0.12771,0.120296 0.14464,0.144286 0.0374,0.05292 0.0575,0.09172 0.0797,0.03951 0.0829,-0.191559 -0.01,-0.315735 -0.1016,-0.383117 0,0 0.11818,-0.299508 -0.0455,-0.61736 -0.0272,-0.05292 -0.19791,-0.228248 -0.42792,0.08326 m 0.27764,0.101952 c 0.11465,0.12065 0.0847,0.305859 0.0772,0.348192 0,0 -0.15099,-0.0829 -0.21872,-0.116769 -0.0677,-0.03387 -0.1016,-0.08008 -0.0667,-0.122766 0.11641,-0.143934 0.16863,-0.135467 0.20814,-0.108657 m -2.51849,-0.177448 c -0.0307,0.07479 -0.15875,0.332317 -0.13899,0.636413 0.004,0.0702 0.0508,0.207079 0.15663,0.210608 0.0547,0 0.12559,-0.03951 0.17534,-0.211666 0.009,-0.03881 0.0145,-0.06985 0.018,-0.08502 0.005,-0.02328 -0.012,-0.0508 -0.0296,0.0021 -0.0399,0.105482 -0.14393,0.179213 -0.22189,0.03775 -0.0124,-0.02787 -0.0649,-0.155575 0.0314,-0.435327 0.0194,-0.05433 0.0441,-0.135114 0.0441,-0.135114 0.0219,-0.06103 -0.004,-0.09454 -0.0349,-0.01977 m -1.30668,0.0053 c -0.0155,0.03987 -0.10443,0.306213 -0.10443,0.306213 0.0303,0.170743 0.30445,2.007303 0.3228,2.132541 0.018,0.125587 0.34501,1.672167 0.37641,2.248252 -0.003,0.05892 0.0233,0.08008 0.0487,0.02294 0.0254,-0.05715 0.20144,-0.446265 -0.055,-1.850322 -0.0194,-0.11712 -0.36901,-1.961795 -0.36901,-1.961795 0,0 0.20215,0.180269 0.2346,0.213077 0.0325,0.03246 0.0702,0.01376 0.0508,-0.03951 -0.0194,-0.05362 -0.44803,-1.019175 -0.46214,-1.053042 -0.0138,-0.03316 -0.0272,-0.05751 -0.0427,-0.01834 m -1.90959,0.172863 c -0.17427,0.221192 -0.18556,0.512937 -0.20849,0.837142 -0.0243,-0.06809 -0.16369,-0.503063 -0.60854,-0.752123 -0.0321,-0.01834 -0.0981,0.01587 -0.10407,0.118181 -0.004,0.05997 -0.0208,0.204962 0.0212,0.246237 0.0406,0.03916 0.34114,0.144992 0.17816,0.3175 -0.073,0.07726 -0.43886,0.4572 -0.51717,0.548923 -0.079,0.09207 -0.0864,0.109009 -0.002,0.06209 0.0843,-0.04692 0.5715,-0.236008 0.65264,-0.719666 0.006,-0.06315 -0.007,-0.110774 -0.0215,-0.142875 0.007,0.0019 0.0141,0.006 0.0219,0.01376 0.0335,0.03457 0.25329,0.2159 0.36653,0.600075 0.0198,0.0508 0.067,0.05574 0.0783,-0.01659 0.0261,-0.1778 0.0402,-0.486481 0.0543,-0.579966 0.0198,-0.131234 0.0829,-0.402519 0.24942,-0.26176 0.0377,0.0321 0.078,0.07443 0.078,0.07443 0.0353,0.04445 0.0797,0.0949 0.10125,0.04374 0.0328,-0.07761 0.0593,-0.206375 0.0233,-0.27587 -0.0159,-0.03105 -0.22225,-0.2921 -0.36301,-0.113242 m 4.89585,0.355952 c -0.0663,0.04163 -2.03976,1.08444 -2.10784,1.13171 -0.0681,0.04692 -0.0924,0.05891 -0.10196,0.113597 -0.01,0.05362 -0.0145,0.08502 -0.0169,0.09384 -0.0116,0.03634 -0.0194,0.08079 0.0815,0.01058 0.031,-0.02188 2.01719,-1.072092 2.07328,-1.111954 0.0561,-0.03916 0.09,-0.05433 0.11183,-0.110773 0.0215,-0.0568 0.0275,-0.06668 0.0384,-0.105833 0.0124,-0.04127 0.0243,-0.08572 -0.0783,-0.02117 m 1.97521,0.26035 c -0.0699,0.09313 -0.13194,0.323144 -0.0448,0.39511 0.0868,0.07267 0.21696,0.134057 0.21696,0.134057 -0.33937,0.367593 -0.66745,0.669218 -0.91933,0.852665 -0.0864,0.0635 -0.16616,0.141816 0.0445,0.05503 0.11218,-0.04657 0.37676,-0.204258 0.48048,-0.291748 0.32138,-0.27164 0.49706,-0.570794 0.49706,-0.570794 0,0 0.10019,0.09454 0.11324,0.113594 0.0293,0.04127 0.0452,0.07197 0.0628,0.03104 0.0649,-0.150635 -0.008,-0.248002 -0.0797,-0.300212 0,0 0.0924,-0.23495 -0.036,-0.484365 -0.0212,-0.04163 -0.15522,-0.178858 -0.33514,0.06562 m 0.21766,0.07973 c 0.0896,0.09455 0.0663,0.239538 0.0607,0.272698 0,0 -0.11889,-0.06456 -0.1718,-0.09137 -0.0529,-0.02646 -0.0797,-0.06315 -0.0522,-0.09631 0.0914,-0.113241 0.13229,-0.106188 0.16333,-0.08502 m -5.89879,0.350663 c -0.0353,0.119943 -0.18698,0.535162 -0.13371,1.012118 0.0127,0.109715 0.0885,0.321382 0.23354,0.319265 0.0744,-0.0049 0.16757,-0.07232 0.22084,-0.346781 0.008,-0.06173 0.0131,-0.111125 0.0166,-0.135819 0.005,-0.03634 -0.0205,-0.07867 -0.0399,0.0063 -0.0452,0.168979 -0.18098,0.292452 -0.29986,0.07655 -0.0198,-0.04304 -0.10301,-0.240242 0.004,-0.687565 0.0219,-0.08678 0.048,-0.216252 0.048,-0.216252 0.0243,-0.09737 -0.0141,-0.148166 -0.0494,-0.02787 m 13.13956,0.01236 c -0.0342,0.08432 -0.1785,0.37465 -0.15628,0.717198 0.005,0.07937 0.0575,0.23354 0.17674,0.237419 0.0614,0 0.14112,-0.0448 0.19756,-0.238477 0.01,-0.04374 0.0159,-0.07902 0.0201,-0.09596 0.006,-0.02646 -0.0134,-0.0575 -0.0335,0.0028 -0.0448,0.118534 -0.16192,0.201084 -0.24976,0.04233 -0.0141,-0.03175 -0.0734,-0.175684 0.0353,-0.491067 0.0219,-0.06103 0.0494,-0.152048 0.0494,-0.152048 0.0243,-0.06879 -0.005,-0.106537 -0.0395,-0.02222 m 3.30765,0.173215 c -0.0317,0.07796 -0.16545,0.347133 -0.14535,0.663927 0.005,0.07338 0.0536,0.216254 0.16369,0.219781 0.0572,0 0.13088,-0.04163 0.18345,-0.22084 0.009,-0.04057 0.0148,-0.07267 0.0183,-0.0889 0.006,-0.024 -0.0123,-0.05292 -0.031,0.0028 -0.0416,0.109715 -0.14993,0.186619 -0.23107,0.03916 -0.013,-0.02928 -0.0681,-0.162984 0.0325,-0.454377 0.0205,-0.0568 0.0462,-0.141113 0.0462,-0.141113 0.0222,-0.06385 -0.005,-0.09878 -0.0367,-0.02045 m -6.20642,0.0085 -0.16863,0.230365 -0.32279,-0.235305 c -0.008,-0.006 -0.0198,-0.0039 -0.0257,0.0049 l -0.19509,0.267052 c -0.006,0.0088 -0.005,0.02045 0.003,0.02611 l 0.33302,0.243065 c 0.008,0.0053 0.0194,0.0035 0.0258,-0.0049 l 0.16792,-0.231068 0.32349,0.236008 c 0.008,0.0053 0.0194,0.0035 0.0254,-0.0049 l 0.19509,-0.267759 c 0.006,-0.0081 0.005,-0.02011 -0.003,-0.02574 l -0.33303,-0.242713 c -0.008,-0.006 -0.0194,-0.0039 -0.0254,0.0049 m -11.55241,0.363008 c -0.0325,0.08467 -0.17145,0.378532 -0.12876,0.712611 0.0102,0.07726 0.0751,0.225425 0.2032,0.221898 0.0663,-0.0035 0.14957,-0.05221 0.19967,-0.245885 0.008,-0.04339 0.013,-0.07832 0.0162,-0.09525 0.005,-0.02612 -0.0177,-0.05539 -0.0356,0.0049 -0.0416,0.118888 -0.16334,0.207434 -0.26635,0.05645 -0.0169,-0.02963 -0.0889,-0.167571 0.0106,-0.483306 0.0201,-0.06103 0.0448,-0.152048 0.0448,-0.152048 0.0226,-0.06914 -0.0113,-0.104069 -0.0437,-0.01939 m 0.52176,1.318683 -0.16828,0.230717 -0.32314,-0.235657 c -0.008,-0.006 -0.0194,-0.0039 -0.0257,0.0049 l -0.19509,0.267052 c -0.006,0.0085 -0.004,0.02045 0.004,0.02611 l 0.33266,0.243065 c 0.008,0.0056 0.0198,0.0035 0.0257,-0.0049 l 0.16863,-0.230717 0.32279,0.235656 c 0.008,0.0056 0.0198,0.0035 0.0261,-0.0049 l 0.19474,-0.267407 c 0.006,-0.0085 0.005,-0.02011 -0.003,-0.02611 l -0.33302,-0.242713 c -0.008,-0.006 -0.0194,-0.0039 -0.0257,0.0049 m 12.33346,-1.265767 c -0.0127,0.04516 -0.0452,0.239535 -0.0533,0.279752 -0.008,0.03987 -0.007,0.07973 0.0127,0.113948 0.0194,0.03422 0.0702,0.153106 0.1069,0.24906 0.0363,0.09631 0.41416,0.82409 0.44908,0.889 0.0349,0.06421 0.0423,0.112184 0.007,0.154871 -1.21285,1.279525 -3.55318,2.066219 -3.62762,2.109962 -0.0751,0.04339 -0.0554,0.07726 0.0706,0.05539 0.18874,-0.03351 1.24002,-0.208846 1.53952,-0.353483 0.19756,-0.09525 0.88759,-0.434271 1.45239,-0.876655 -0.0159,0.114655 -0.0303,0.282575 -0.0226,0.495655 0.0381,1.029052 0.9585,0.857954 1.20015,0.805392 0.72355,-0.159105 1.60831,-1.15923 1.68345,-1.360313 0.0744,-0.198612 0.0854,-0.379235 0.0688,-0.537634 0.19014,-0.103362 0.59972,-0.43321 0.59972,-0.43321 0.0169,0.439209 0.36618,0.570794 0.47378,0.589492 0.50306,0.07691 0.75565,-0.34431 0.86289,-0.480483 0.0917,0.240593 0.31221,0.28716 0.42545,0.309739 0.43427,0.08643 0.51929,-0.221191 0.54152,-0.291396 0.13652,-0.423333 -0.10936,-0.739068 -0.14076,-0.774345 -0.0314,-0.03493 -0.0476,-0.0011 -0.0586,0.03916 -0.0113,0.04092 -0.0462,0.193675 -0.0684,0.288925 0,0 0.091,0.148167 0.12347,0.22366 0.0325,0.07549 -0.0159,0.116417 -0.10936,0.128059 -0.26423,0.0321 -0.47484,-0.11924 -0.54786,-0.18909 -0.0727,-0.0702 0.006,-0.193675 0.0645,-0.341135 0.0469,-0.117827 -0.0399,-0.132292 -0.10689,-2.65e-4 -0.22366,0.588785 -0.53869,0.652285 -0.62124,0.674862 -0.74612,0.203555 -0.68192,-0.478718 -0.6791,-0.59055 0.003,-0.111477 -0.079,-0.07055 -0.17109,0.0032 -0.31398,0.252238 -0.56692,0.40005 -0.70274,0.461082 -0.11712,-0.228952 -0.28751,-0.372886 -0.35912,-0.424744 -0.80716,-0.588788 -0.87383,0.599369 -0.84949,0.726369 0.12276,0.505531 0.94756,0.199318 1.07703,0.18415 0.12912,-0.01516 0.0871,0.155223 0.0145,0.256823 -0.17886,0.250118 -0.38558,0.430035 -0.57256,0.582435 -0.79974,0.652285 -1.20121,0.601133 -1.32468,0.5969 -0.78528,-0.02222 -0.71331,-0.86854 -0.66957,-1.04916 0.23601,-0.20038 0.43921,-0.418042 0.55739,-0.641705 0.048,-0.123118 0.13088,-0.40146 -0.0191,-0.75212 -0.0783,-0.153813 -0.32632,-0.585613 -0.32632,-0.585613 0,0 0.18274,0.0053 0.19967,0.0053 0.0177,-2.64e-4 0.0519,-0.01871 0.007,-0.06949 -0.0441,-0.05116 -0.42757,-0.433213 -0.4505,-0.464256 -0.0229,-0.03034 -0.0441,-0.05292 -0.0575,-0.0074 m 2.42253,1.7526 c 0,0 -0.11007,0.06315 -0.41734,0.04233 -0.25788,-0.01765 -0.23566,-0.117827 -0.20038,-0.155927 0.0385,-0.04127 0.35419,-0.240242 0.61772,0.113593 m -3.31682,-1.424868 c -0.0533,0.06597 -0.58949,0.76976 -0.58949,0.76976 l -0.39018,-0.278342 c 0,0 0.15911,-0.03951 0.18698,-0.04762 0.0275,-0.0081 0.0434,-0.0441 -0.006,-0.06985 -0.0501,-0.0254 -0.52035,-0.213077 -0.55598,-0.227541 -0.036,-0.01447 -0.049,-0.03069 -0.0519,0.0074 -0.003,0.0381 -0.008,0.34784 -0.008,0.34784 0,0 -0.007,0.02117 0.0335,0.04515 0.0413,0.02294 0.0815,0.07267 0.115,0.10654 0.0335,0.03352 0.47096,0.378532 0.49213,0.390877 0,0 -0.21837,0.384175 -0.24659,0.685448 -0.0275,0.300919 0.005,0.71614 0.41663,0.582084 0.11077,-0.0314 0.57185,-0.21449 0.67486,-0.535869 0.0332,-0.118533 0.12806,-0.331965 -0.0261,-0.549275 -0.0893,-0.127 -0.44909,-0.342196 -0.44909,-0.342196 0,0 0.27622,-0.382059 0.30268,-0.428977 0.0261,-0.04657 0.12771,-0.342548 0.139,-0.41416 0.0113,-0.07161 0.0169,-0.107598 -0.0367,-0.04127 m -0.0942,1.622777 c -0.15275,0.125941 -0.47414,0.291748 -0.56409,0.300214 -0.0903,0.0088 -0.3295,-0.03493 -0.22578,-0.280458 0.036,-0.07937 0.27517,-0.48895 0.27517,-0.48895 0.0892,0.04904 0.66745,0.343604 0.5147,0.469194 m 6.23041,0.561623 c -0.0311,0.08678 -0.043,0.143227 -0.0399,0.175683 0.004,0.03316 0.0148,0.1397 0.0148,0.1397 -0.0325,0.02574 -0.16863,0.111125 -0.30551,0.01024 0.009,-0.02893 0.0268,-0.08854 0.0307,-0.121353 0.0148,-0.05045 -0.0162,-0.0882 -0.0409,-0.03563 -0.0254,0.05257 -0.0833,0.228248 -0.12629,0.267758 -0.043,0.03916 -0.0938,0.184502 -0.41946,0.03704 -0.0568,-0.02188 -0.15734,-0.09631 -0.31256,0.06032 -0.35278,0.328083 -0.59619,0.353132 -0.9913,0.49389 -0.048,0.02188 -0.14852,0.09737 -0.0293,0.08572 0.11924,-0.01199 0.62053,0 0.89323,-0.312915 0.0572,-0.05539 0.12206,-0.201435 0.33902,-0.116768 0.11959,0.04551 0.34114,0.235653 0.58314,-0.140407 0.14252,0.0949 0.35878,0.05715 0.39335,-0.04763 0.0346,-0.104423 0.0741,-0.208843 0.0737,-0.279752 0,-0.07126 -0.006,-0.1651 -0.006,-0.1651 -0.005,-0.05609 -0.0251,-0.136525 -0.0564,-0.0508 m -9.75749,0.517877 c -0.0145,0.02998 -0.073,0.130175 -0.0811,0.151342 -0.009,0.02151 2.6e-4,0.04516 0.0148,0.02858 0.0152,-0.01622 0.0102,-0.102307 0.27799,-0.09807 0.0388,-2.65e-4 0.0526,0.01024 0.0363,0.03034 -0.0159,0.02045 -0.25612,0.227542 -0.31715,0.504119 -0.0758,0.401815 0.3108,0.328438 0.39123,0.296333 0.0483,-0.01905 0.29492,-0.130878 0.48684,-0.420862 0.0268,-0.04198 0.0409,-0.102658 -0.0155,-0.04233 -0.0564,0.06068 -0.31291,0.298095 -0.58561,0.310092 -0.21202,-0.01482 -0.24271,-0.193675 -0.18768,-0.280459 0.0547,-0.08678 0.26283,-0.291041 0.29951,-0.343606 0.0367,-0.05292 0.0681,-0.13335 0.0681,-0.13335 0.019,-0.0575 0.0286,-0.09525 -0.0314,-0.09807 -0.0596,-0.0028 -0.26811,-0.04127 -0.3563,0.09596 m -4.18112,0.07797 c -0.0307,0.07479 -0.15875,0.332668 -0.139,0.63641 0.004,0.07056 0.0512,0.207433 0.15663,0.21096 0.0547,-2.64e-4 0.12524,-0.03986 0.17533,-0.211666 0.009,-0.0388 0.0145,-0.06985 0.018,-0.08572 0.005,-0.02328 -0.0117,-0.05045 -0.0296,0.0028 -0.0399,0.105127 -0.14393,0.178858 -0.2219,0.03775 -0.0123,-0.02822 -0.0649,-0.156282 0.0314,-0.435682 0.0194,-0.05433 0.0441,-0.135114 0.0441,-0.135114 0.0215,-0.06103 -0.004,-0.09454 -0.0349,-0.01977 m 0.89958,0.03986 -0.19544,0.267055 c -0.006,0.0088 -0.004,0.02045 0.004,0.02611 l 0.33267,0.242713 c 0.008,0.0056 0.0198,0.0039 0.0261,-0.0046 l 0.19474,-0.267758 c 0.006,-0.0085 0.005,-0.01977 -0.003,-0.02612 l -0.33267,-0.242358 c -0.008,-0.006 -0.0198,-0.0039 -0.0257,0.0049 m -4.02061,0.210256 c -0.0699,0.03528 -1.60831,0.637117 -1.68099,0.677685 -0.072,0.04057 -0.0974,0.05045 -0.11218,0.103717 -0.0145,0.05292 -0.0222,0.08326 -0.0254,0.09172 -0.0148,0.03528 -0.0268,0.07902 0.0797,0.01871 0.0335,-0.01905 1.58538,-0.627592 1.645,-0.661458 0.0596,-0.03422 0.0952,-0.04622 0.12206,-0.100542 0.0268,-0.05397 0.0335,-0.06315 0.048,-0.101248 0.0162,-0.04022 0.0321,-0.08326 -0.0762,-0.02858"
       style="fill:#231f20;fill-opacity:1;fill-rule:evenodd;stroke:none;stroke-width:0.264583"
       id="path1-6" />
  </g>
</svg>
