<?xml version="1.0" encoding="UTF-8" standalone="no"?>
<!-- Created with Inkscape (http://www.inkscape.org/) -->

<svg
   width="18.409197mm"
   height="6.0798697mm"
   viewBox="0 0 18.409197 6.0798697"
   version="1.1"
   id="svg1"
   xmlns:inkscape="http://www.inkscape.org/namespaces/inkscape"
   xmlns:sodipodi="http://sodipodi.sourceforge.net/DTD/sodipodi-0.dtd"
   xmlns="http://www.w3.org/2000/svg"
   xmlns:svg="http://www.w3.org/2000/svg">
  <sodipodi:namedview
     id="namedview1"
     pagecolor="#ffffff"
     bordercolor="#666666"
     borderopacity="1.0"
     inkscape:showpageshadow="2"
     inkscape:pageopacity="0.0"
     inkscape:pagecheckerboard="0"
     inkscape:deskcolor="#d1d1d1"
     inkscape:document-units="mm" />
  <defs
     id="defs1" />
  <g
     inkscape:label="Layer 1"
     inkscape:groupmode="layer"
     id="layer1"
     transform="translate(-115.44284,-66.412153)">
    <path
       d="m 126.10959,66.5813 c -0.0706,0.106539 -0.12242,0.362304 -0.0226,0.435329 0.0998,0.07338 0.24624,0.132644 0.24624,0.132644 -0.46567,0.571148 -0.78423,0.680156 -1.05657,0.83961 -0.0702,0.04127 -0.0564,0.07796 -0.0155,0.06668 0.0215,-0.0056 0.38806,-0.06244 0.81633,-0.387702 0.23142,-0.175683 0.37112,-0.47625 0.37112,-0.47625 0,0 0.11642,0.09666 0.13229,0.116417 0.0346,0.04374 0.054,0.07585 0.0706,0.02998 0.061,-0.168979 -0.0254,-0.270933 -0.1076,-0.323496 0,0 0.0854,-0.263173 -0.0716,-0.527404 -0.0261,-0.04445 -0.18204,-0.185208 -0.36266,0.09419 m 0.24342,0.07232 c 0.10513,0.09772 0.0889,0.258233 0.0847,0.29492 0,0 -0.13406,-0.06315 -0.19403,-0.08855 -0.0596,-0.02574 -0.0914,-0.06385 -0.0635,-0.1016 0.0921,-0.13053 0.13758,-0.12559 0.17286,-0.104775 m -1.78365,-0.188032 c -0.0162,0.03916 -0.11183,0.30339 -0.11183,0.30339 0.0257,0.171802 0.25295,2.014712 0.26776,2.140302 0.0148,0.125942 0.33408,2.210152 0.35066,2.786943 -0.004,0.05891 0.0212,0.08079 0.0483,0.02434 0.0272,-0.0568 0.21273,-0.441325 -0.008,-1.851729 -0.0162,-0.117123 -0.35066,-2.500138 -0.35066,-2.500138 0,0 0.1972,0.185563 0.22895,0.21943 0.0318,0.03316 0.0706,0.01516 0.0522,-0.03845 -0.0183,-0.05397 -0.42193,-1.030462 -0.43533,-1.064328 -0.0131,-0.03387 -0.0258,-0.05856 -0.0423,-0.01977 m -2.88289,0.024 c -0.03,0.07443 -0.1584,0.332669 -0.13865,0.63641 0.005,0.0702 0.0508,0.207082 0.15664,0.210609 0.055,0 0.12558,-0.03986 0.17568,-0.211315 0.009,-0.03916 0.0141,-0.0702 0.0177,-0.08537 0.006,-0.02363 -0.0116,-0.0508 -0.0293,0.0021 -0.0402,0.105479 -0.14393,0.17921 -0.22225,0.0381 -0.0124,-0.02787 -0.0646,-0.155929 0.0314,-0.435681 0.0198,-0.05433 0.0441,-0.135115 0.0441,-0.135115 0.0219,-0.06103 -0.004,-0.09454 -0.0353,-0.01976 m 1.50389,-0.0024 c -0.0166,0.03916 -0.11219,0.30339 -0.11219,0.30339 0.0183,0.121356 0.28364,2.165702 0.47625,3.28154 0.0268,0.154162 0.12206,0.562679 0.12206,0.562679 -0.18097,0.120649 -1.43721,0.821973 -2.18087,0.377121 -0.18027,-0.100897 -0.50377,-0.273405 -0.59619,-1.260475 -0.0378,-0.315032 0.013,-1.280938 -0.30657,-2.63384 -0.0561,-0.238125 -0.12417,-0.453673 -0.14781,-0.505177 -0.0236,-0.05115 -0.036,-0.01659 -0.0462,0.0039 -0.01,0.02011 -0.10654,0.318207 -0.10654,0.318207 0.0607,0.250118 0.29527,1.228018 0.32561,1.997781 0.007,0.170744 0.0339,1.372304 0.28293,1.966029 0.61489,1.465088 2.74496,0.156633 2.87408,0.09419 0.14182,0.208846 0.25576,0.365125 0.4325,0.443441 0.0769,0.03387 0.27905,0.121709 0.42016,-0.0049 0.16757,-0.150284 0.18874,-0.575734 0.0688,-0.789165 -0.19826,-0.353131 -0.623,-0.2159 -0.79092,-0.140052 0,0 -0.19121,-0.708379 -0.2914,-1.501423 -0.11924,-0.791633 -0.22719,-1.609725 -0.22719,-1.609725 0,0 0.19685,0.185208 0.22896,0.218369 0.0314,0.03387 0.0699,0.01588 0.0522,-0.0381 -0.0183,-0.05397 -0.42228,-1.030111 -0.43533,-1.064329 -0.013,-0.03387 -0.0261,-0.05821 -0.0423,-0.01939 m 1.37089,4.511675 c 0.0198,0.03916 0.01,0.09243 -0.0748,0.0949 -0.28751,-0.02999 -0.37535,-0.261057 -0.37535,-0.261057 0.0487,-0.0024 0.32243,-0.02822 0.45014,0.166159 m 8.0705,-4.321879 c -0.0702,0.106537 -0.12242,0.362654 -0.0226,0.435327 0.10054,0.07338 0.24659,0.132643 0.24659,0.132643 -0.46567,0.571149 -1.38042,0.976842 -1.59844,1.14653 -0.0645,0.04939 -0.0561,0.07832 -0.0148,0.06738 0.0363,-0.0099 0.73307,-0.20461 1.37018,-0.75071 0.2921,-0.250119 0.28434,-0.268817 0.35878,-0.420511 0.0628,0.03245 0.10654,0.08502 0.13123,0.116062 0.0349,0.04339 0.0543,0.07585 0.0709,0.02963 0.061,-0.168979 -0.025,-0.270579 -0.10759,-0.322792 0,0 0.0854,-0.263525 -0.0716,-0.527754 -0.0261,-0.04445 -0.18168,-0.185563 -0.36266,0.09419 m 0.24342,0.07267 c 0.10478,0.09737 0.0889,0.257882 0.085,0.294572 0,0 -0.13405,-0.0628 -0.19403,-0.0889 -0.06,-0.02574 -0.0914,-0.0635 -0.0639,-0.1016 0.0924,-0.129823 0.13794,-0.125238 0.17286,-0.104072 m -1.78823,-0.165803 c -0.18344,0.232833 -0.19509,0.539043 -0.21943,0.880178 -0.0254,-0.07161 -0.1718,-0.529166 -0.63923,-0.791278 -0.0339,-0.01871 -0.10336,0.01765 -0.10936,0.124883 -0.004,0.06314 -0.0222,0.215545 0.0219,0.258585 0.0445,0.04304 0.17498,0.128059 0.19685,0.140052 0.0219,0.01164 0.0459,0.01376 0.0522,-0.0127 0.007,-0.02611 0.0363,-0.08678 0.079,-0.04304 0.0353,0.03598 0.26565,0.226483 0.38524,0.630412 0.0208,0.05327 0.0705,0.05856 0.0818,-0.01728 0.0275,-0.186973 0.0427,-0.511527 0.0575,-0.6096 0.0208,-0.138642 0.0868,-0.423333 0.26177,-0.275167 0.0402,0.03352 0.0822,0.07797 0.0822,0.07797 0.037,0.04692 0.0836,0.100187 0.10689,0.04621 0.0339,-0.08184 0.0617,-0.216958 0.024,-0.289983 -0.0166,-0.03245 -0.23354,-0.307269 -0.38135,-0.119237 m -1.80058,-0.01058 c -0.0674,0.03916 -1.78788,1.031875 -1.85738,1.077029 -0.0695,0.04481 -0.0942,0.05645 -0.10547,0.110067 -0.0109,0.05362 -0.0166,0.08502 -0.0198,0.09349 -0.0127,0.03598 -0.0215,0.08043 0.0808,0.01341 0.0324,-0.02082 1.76212,-1.020233 1.8228,-1.058333 0.0582,-0.03634 0.0921,-0.05186 0.11536,-0.107596 0.0233,-0.05574 0.0293,-0.06597 0.0413,-0.104423 0.0134,-0.04127 0.0265,-0.08502 -0.0776,-0.02363 m -7.07535,0.94815 c -0.16051,0.203904 -0.17109,0.472369 -0.19226,0.771877 -0.0229,-0.06279 -0.15099,-0.463902 -0.56092,-0.693915 -0.03,-0.01693 -0.0903,0.01482 -0.096,0.109363 -0.004,0.05503 -0.019,0.188735 0.0198,0.226483 0.0388,0.0381 0.1531,0.112184 0.17215,0.122767 0.0194,0.01058 0.0402,0.01236 0.0459,-0.01093 0.006,-0.02294 0.0318,-0.07585 0.0691,-0.0381 0.0314,0.0321 0.23319,0.198966 0.33832,0.553156 0.018,0.04692 0.0614,0.05151 0.0716,-0.01516 0.0243,-0.16369 0.0374,-0.448382 0.0504,-0.534459 0.0183,-0.121356 0.0762,-0.371475 0.22965,-0.2413 0.0346,0.02928 0.072,0.06809 0.072,0.06809 0.0328,0.04127 0.0737,0.08784 0.0931,0.04057 0.0303,-0.07126 0.0547,-0.189794 0.0215,-0.254 -0.0145,-0.02893 -0.20461,-0.26952 -0.33443,-0.10442 m 0.90099,1.29046 c -0.0716,0.04022 -1.5688,0.729898 -1.64288,0.77611 -0.0737,0.04586 -0.0998,0.05786 -0.11254,0.1143 -0.0123,0.05609 -0.0191,0.0889 -0.0222,0.09772 -0.0138,0.03775 -0.024,0.08396 0.0854,0.01553 0.0335,-0.02151 1.54481,-0.718254 1.60585,-0.75706 0.0607,-0.03881 0.0974,-0.05327 0.12276,-0.111477 0.0254,-0.05821 0.0318,-0.06844 0.0455,-0.109008 0.0148,-0.04304 0.0296,-0.0889 -0.0818,-0.02611 m -0.45084,0.920399 c -0.0303,0.07514 -0.1584,0.332668 -0.13864,0.636762 0.004,0.0702 0.0508,0.207081 0.15663,0.210608 0.0547,0 0.12523,-0.03951 0.17568,-0.212019 0.008,-0.03845 0.0138,-0.0695 0.0177,-0.08502 0.005,-0.02328 -0.0116,-0.05045 -0.0296,0.0024 -0.0399,0.105127 -0.14393,0.17921 -0.22189,0.03775 -0.0124,-0.02822 -0.0653,-0.155929 0.0314,-0.435681 0.019,-0.05433 0.0437,-0.135115 0.0437,-0.135115 0.0219,-0.06103 -0.004,-0.09454 -0.0349,-0.01976 m -3.07377,-3.057097 c -0.0653,0.04233 -1.71167,0.954617 -1.77976,1.002594 -0.0674,0.04798 -0.0914,0.06032 -0.10054,0.114654 -0.009,0.05397 -0.013,0.08537 -0.0159,0.09454 -0.0109,0.03633 -0.018,0.08114 0.0819,0.0099 0.031,-0.02257 1.69016,-0.942269 1.74554,-0.982837 0.0557,-0.03986 0.09,-0.05574 0.11042,-0.112184 0.0212,-0.0568 0.0268,-0.06667 0.0374,-0.106187 0.0116,-0.04198 0.0229,-0.08608 -0.079,-0.02045 m -2.89348,0.331611 -0.16792,0.230364 -0.32315,-0.235302 c -0.008,-0.006 -0.0198,-0.0039 -0.0257,0.0049 l -0.19509,0.267055 c -0.006,0.0088 -0.005,0.02045 0.004,0.02611 l 0.33267,0.243065 c 0.008,0.0056 0.0194,0.0032 0.0258,-0.0049 l 0.16827,-0.230717 0.32314,0.235657 c 0.008,0.0056 0.0194,0.0032 0.0257,-0.0049 l 0.19473,-0.267758 c 0.006,-0.0081 0.005,-0.01977 -0.003,-0.02574 l -0.33302,-0.24271 c -0.008,-0.006 -0.0194,-0.0039 -0.0258,0.0049 m 12.92296,0.92075 c -0.0346,0.08467 -0.17886,0.375005 -0.15699,0.71755 0.005,0.07902 0.0579,0.23354 0.1771,0.237422 0.0614,0 0.14111,-0.04481 0.19755,-0.23848 0.01,-0.04374 0.0162,-0.07867 0.0201,-0.09595 0.006,-0.02646 -0.013,-0.0575 -0.0332,0.0024 -0.0448,0.118886 -0.16228,0.20179 -0.25012,0.04269 -0.0141,-0.0314 -0.0734,-0.175684 0.0353,-0.491067 0.0219,-0.06103 0.0494,-0.152045 0.0494,-0.152045 0.0247,-0.06879 -0.005,-0.10654 -0.0392,-0.02257 m -11.15801,0.276931 c -0.008,0.09772 0.0335,0.301977 0.0335,0.301977 0,0 0.29422,0.893588 0.34714,1.103842 0.2353,0.657931 -0.0561,0.786341 -0.24907,0.974373 -0.19332,0.187325 -1.02305,0.908402 -1.52964,0.769056 -0.45614,-0.12559 -0.13688,-0.934508 -0.11148,-1.102431 0.002,-0.01341 0.003,-0.0254 0.004,-0.03634 0.15558,-0.08502 0.32844,-0.216958 0.387,-0.394054 0.0328,-0.112535 0.12453,-0.315029 -0.0205,-0.522462 -0.084,-0.121709 -0.42439,-0.329496 -0.42439,-0.329496 0,0 0.26564,-0.361244 0.29139,-0.405694 0.0254,-0.0441 0.12453,-0.324908 0.13547,-0.392994 0.0116,-0.06809 0.0169,-0.101954 -0.0342,-0.03986 -0.0515,0.06279 -0.56762,0.728133 -0.56762,0.728133 L 116.3514,68.59067 c 0,0 0.15169,-0.03669 0.17815,-0.0441 0.0265,-0.0074 0.042,-0.04127 -0.005,-0.06632 -0.0473,-0.02469 -0.49318,-0.207081 -0.52705,-0.221192 -0.0342,-0.0141 -0.0466,-0.02963 -0.0494,0.0067 -0.004,0.03634 -0.0113,0.330552 -0.0113,0.330552 0,0 -0.007,0.02082 0.0318,0.04304 0.0388,0.02257 0.0769,0.07056 0.10866,0.102658 0.0318,0.0321 0.4452,0.364419 0.46496,0.375709 0,0 -0.21096,0.364418 -0.23989,0.650523 -0.0289,0.286102 -8e-4,0.681212 0.39193,0.557035 0.0261,-0.0071 0.0737,-0.02363 0.13159,-0.04833 -0.0356,0.128412 -0.11606,0.500591 -0.13123,0.607131 -0.1905,0.945798 0.56197,0.950383 0.95214,0.778227 0.35525,-0.155927 1.09609,-0.789517 1.19451,-0.89676 0.0988,-0.106892 0.13229,-0.306565 0.16616,-0.421217 0,0 0.12135,0.373944 0.1711,0.510117 0.19367,0.529166 0.59196,0.578908 0.70485,0.584552 0.46178,0.02257 0.52034,-0.313619 0.54539,-0.436034 0.0508,-0.564795 -0.31926,-0.929216 -0.36019,-0.970137 -0.0413,-0.04057 -0.0526,-0.03281 -0.0624,0.01024 -0.01,0.04269 -0.0399,0.377825 -0.0399,0.377825 0,0 0.2039,0.197204 0.28222,0.356658 0.0423,0.08678 0.0198,0.117829 -0.0335,0.162631 -0.21873,0.15099 -0.43039,0.103717 -0.58244,0.0141 -0.32597,-0.192617 -0.46461,-0.893938 -0.5013,-1.170517 -0.14816,-1.113719 -0.50165,-1.624542 -0.57432,-1.744837 -0.0727,-0.120298 -0.0896,0.06703 -0.0977,0.165452 m -1.27423,1.469318 c -0.14605,0.118534 -0.45297,0.274109 -0.53905,0.281517 -0.0861,0.0078 -0.31326,-0.03633 -0.21237,-0.268817 0.0346,-0.07514 0.26564,-0.463195 0.26564,-0.463195 0.0847,0.04762 0.63253,0.332316 0.48578,0.450495 m 15.73953,-1.572683 c -0.0318,0.07797 -0.16545,0.346781 -0.14499,0.663929 0.005,0.07338 0.0533,0.216252 0.16369,0.220134 0.0572,-2.65e-4 0.13088,-0.04163 0.18309,-0.221192 0.009,-0.04022 0.0145,-0.07267 0.0183,-0.0889 0.006,-0.024 -0.012,-0.05292 -0.0307,0.0024 -0.0416,0.109715 -0.15028,0.186619 -0.23107,0.03951 -0.0134,-0.02928 -0.0684,-0.162984 0.0325,-0.454377 0.0201,-0.0568 0.0455,-0.14111 0.0455,-0.14111 0.0229,-0.06386 -0.004,-0.09843 -0.0363,-0.02045 m -14.91403,1.078442 c -0.0282,0.07585 -0.14711,0.337608 -0.11713,0.640998 0.007,0.06985 0.0582,0.205317 0.16369,0.205317 0.055,-0.0024 0.12418,-0.04445 0.16828,-0.218017 0.007,-0.03916 0.0116,-0.07056 0.0148,-0.08572 0.005,-0.02363 -0.0134,-0.05045 -0.0293,0.0035 -0.0367,0.106188 -0.13793,0.183798 -0.22048,0.04516 -0.0134,-0.02752 -0.0702,-0.153458 0.0162,-0.436385 0.0177,-0.05503 0.0392,-0.136173 0.0392,-0.136173 0.0198,-0.06209 -0.007,-0.09454 -0.0353,-0.01871 m 8.70726,-1.069975 -0.16792,0.230717 -0.32279,-0.235654 c -0.008,-0.0056 -0.0201,-0.0035 -0.0265,0.0049 l -0.19474,0.267054 c -0.006,0.0085 -0.005,0.02045 0.003,0.02646 l 0.33302,0.242359 c 0.008,0.006 0.0194,0.0039 0.0258,-0.0049 l 0.16863,-0.230365 0.32279,0.235305 c 0.008,0.006 0.0194,0.0039 0.0257,-0.0049 l 0.19509,-0.267052 c 0.006,-0.0085 0.005,-0.02045 -0.004,-0.02611 l -0.33303,-0.24271 c -0.008,-0.0056 -0.0194,-0.0035 -0.0257,0.0049 m 1.30387,0.415573 c -0.0138,0.04551 -0.0459,0.23989 -0.0536,0.280107 -0.008,0.03986 -0.007,0.07973 0.0124,0.1143 0.0198,0.03422 0.0706,0.152752 0.10689,0.248708 0.037,0.09631 0.41452,0.824087 0.44909,0.889 0.0353,0.0642 0.0427,0.112184 0.007,0.154869 -1.21285,1.279877 -3.55282,2.066573 -3.62796,2.109965 -0.0744,0.04374 -0.0547,0.07726 0.0713,0.05503 0.18838,-0.03281 1.23966,-0.208492 1.53917,-0.35278 0.19756,-0.0956 0.88829,-0.434268 1.45238,-0.876652 -0.0159,0.113949 -0.0303,0.281869 -0.0222,0.4953 0.0381,1.029052 0.9585,0.858309 1.1998,0.80504 0.72355,-0.158398 1.60831,-1.158875 1.68381,-1.359958 0.0744,-0.198615 0.085,-0.37959 0.0681,-0.537633 0.19086,-0.103365 0.60008,-0.433213 0.60008,-0.433213 0.0169,0.438856 0.36583,0.570796 0.47343,0.589846 0.50376,0.07655 0.756,-0.344665 0.86324,-0.480838 0.0914,0.240242 0.31221,0.286808 0.42545,0.30974 0.43462,0.08643 0.51894,-0.22084 0.54187,-0.291042 0.13617,-0.423685 -0.10936,-0.739775 -0.14111,-0.774348 -0.0314,-0.03528 -0.0476,-0.0019 -0.0586,0.03881 -0.0109,0.04092 -0.0466,0.193324 -0.0681,0.289277 0,0 0.0907,0.147815 0.12312,0.222957 0.0321,0.07549 -0.0159,0.116768 -0.10901,0.128058 -0.26423,0.03281 -0.47554,-0.118885 -0.54821,-0.188735 -0.0723,-0.06985 0.006,-0.193675 0.0649,-0.341138 0.0469,-0.118179 -0.0402,-0.132292 -0.1069,-2.65e-4 -0.22436,0.588786 -0.53869,0.652286 -0.62159,0.674865 -0.74612,0.2032 -0.68157,-0.478721 -0.6791,-0.590198 0.002,-0.111831 -0.0787,-0.07091 -0.1711,0.0032 -0.31397,0.251883 -0.56691,0.40005 -0.70237,0.460727 -0.11748,-0.228952 -0.28752,-0.372885 -0.35949,-0.424744 -0.8075,-0.588785 -0.87383,0.599369 -0.84913,0.726724 0.12277,0.504825 0.94756,0.198966 1.07668,0.183795 0.12911,-0.01516 0.0875,0.155223 0.0148,0.256823 -0.17956,0.250119 -0.38594,0.429683 -0.57291,0.582435 -0.79975,0.65264 -1.20085,0.601134 -1.32468,0.5969 -0.78528,-0.02223 -0.71332,-0.868537 -0.66957,-1.04916 0.23601,-0.200377 0.43956,-0.41769 0.55739,-0.642056 0.0476,-0.122412 0.13088,-0.401461 -0.0187,-0.751417 -0.079,-0.154162 -0.32632,-0.586317 -0.32632,-0.586317 0,0 0.18239,0.0056 0.19968,0.0053 0.0173,0 0.0519,-0.01799 0.007,-0.06949 -0.0444,-0.0508 -0.42756,-0.433213 -0.45049,-0.463905 -0.0236,-0.03069 -0.0444,-0.05292 -0.0571,-0.0078 m 2.42182,1.7526 c 0,0 -0.11007,0.06315 -0.41769,0.04269 -0.25753,-0.01728 -0.23531,-0.117475 -0.20003,-0.155927 0.0385,-0.04163 0.35419,-0.240242 0.61772,0.113242 m -10.71351,-1.649942 c -0.18909,0.103717 -0.36477,0.415925 -0.28575,0.529167 0.0667,0.0956 0.19861,0.178152 0.19861,0.178152 -0.0596,0.03775 -0.12735,0.05997 -0.14252,0.124883 -0.0148,0.06491 -0.0183,0.103717 -0.0187,0.127354 -2.7e-4,0.02328 -0.004,0.04127 0.0328,0.02893 0.0371,-0.01236 0.054,-0.02011 0.054,-0.02011 0.10407,-0.05257 0.50094,-0.28575 0.77117,-0.364067 0.008,-0.0028 0.0212,-0.09349 0.0279,-0.142523 0.006,-0.04974 -0.0444,-0.04233 -0.12277,-0.02045 -0.0787,0.02188 -0.3623,0.121002 -0.52246,-0.0013 -0.13758,-0.105129 -0.15663,-0.15099 -0.11148,-0.181329 0.0455,-0.03069 0.17251,-0.124884 0.26317,-0.02151 0.0483,0.05468 0.0857,0.05362 0.10302,0.01447 0.0173,-0.03845 0.078,-0.141817 0.0564,-0.180975 -0.0219,-0.03987 -0.11465,-0.173922 -0.30339,-0.07056 m 7.39705,0.225425 c -0.0536,0.06632 -0.58985,0.770115 -0.58985,0.770115 l -0.38982,-0.27799 c 0,0 0.15875,-0.04022 0.18627,-0.04833 0.0279,-0.0085 0.0437,-0.0441 -0.006,-0.06985 -0.0501,-0.0254 -0.52034,-0.213077 -0.55598,-0.227542 -0.036,-0.0141 -0.0487,-0.03069 -0.0519,0.0078 -0.003,0.03775 -0.008,0.347134 -0.008,0.347134 0,0 -0.007,0.02188 0.0335,0.04515 0.0416,0.02328 0.0815,0.07303 0.11536,0.106892 0.0335,0.03352 0.47096,0.378532 0.49213,0.39088 0,0 -0.21873,0.384527 -0.24659,0.685093 -0.0275,0.301273 0.005,0.716492 0.41662,0.582435 0.11078,-0.0314 0.5715,-0.214841 0.67452,-0.535868 0.0332,-0.118533 0.12841,-0.332317 -0.0261,-0.549275 -0.0893,-0.127352 -0.44873,-0.342548 -0.44873,-0.342548 0,0 0.27587,-0.381704 0.30233,-0.428625 0.0268,-0.04621 0.12806,-0.342546 0.13899,-0.414512 0.0113,-0.07126 0.0169,-0.107247 -0.0363,-0.04092 m -0.0942,1.622776 c -0.15311,0.125942 -0.47414,0.2921 -0.56445,0.300567 -0.0903,0.0088 -0.32949,-0.03563 -0.22542,-0.28081 0.0353,-0.07937 0.27481,-0.488598 0.27481,-0.488598 0.0896,0.04904 0.66746,0.343254 0.51506,0.468841 m -10.50925,0.162632 c -0.0699,0.03493 -0.86008,0.372533 -0.93239,0.41275 -0.0723,0.04057 -0.0977,0.05045 -0.11254,0.103365 -0.0141,0.05292 -0.0219,0.08361 -0.0254,0.09243 -0.0148,0.03493 -0.0265,0.07867 0.0801,0.01799 0.0332,-0.01871 0.83644,-0.36195 0.89641,-0.396523 0.0596,-0.03387 0.0952,-0.04551 0.12206,-0.09983 0.0268,-0.05398 0.0335,-0.0635 0.048,-0.1016 0.0159,-0.04057 0.0318,-0.0829 -0.0762,-0.02858 m 16.73966,0.399343 c -0.031,0.08608 -0.043,0.142875 -0.0402,0.175684 0.004,0.03281 0.0152,0.139348 0.0152,0.139348 -0.0325,0.02611 -0.16898,0.111125 -0.30586,0.01024 0.009,-0.02893 0.0272,-0.08855 0.0307,-0.121356 0.0152,-0.05045 -0.0166,-0.08819 -0.0413,-0.03563 -0.0247,0.05257 -0.0825,0.228248 -0.12559,0.267407 -0.043,0.03951 -0.0938,0.184856 -0.41981,0.03704 -0.0572,-0.02151 -0.15698,-0.09596 -0.31256,0.06068 -0.35242,0.327732 -0.59619,0.353484 -0.99166,0.493538 -0.0476,0.02222 -0.14781,0.09772 -0.0286,0.08608 0.11924,-0.01236 0.62018,0 0.89253,-0.313267 0.0571,-0.05503 0.12241,-0.201083 0.33902,-0.116768 0.11994,0.04586 0.34184,0.235654 0.58349,-0.140055 0.14252,0.0949 0.35913,0.05715 0.3937,-0.04762 0.0342,-0.10442 0.0741,-0.208843 0.0737,-0.2794 -2.6e-4,-0.07161 -0.007,-0.1651 -0.007,-0.1651 -0.005,-0.05644 -0.0247,-0.137228 -0.0561,-0.0508 m -12.37227,0.529522 c -0.0702,0.03528 -1.30317,0.494241 -1.37548,0.534458 -0.0723,0.04057 -0.0977,0.05044 -0.11219,0.103362 -0.0145,0.05292 -0.0222,0.08361 -0.0254,0.09243 -0.0152,0.03457 -0.0272,0.07867 0.0797,0.01799 0.0332,-0.01871 1.27952,-0.483658 1.3395,-0.517879 0.0596,-0.03422 0.0949,-0.04621 0.12171,-0.100187 0.0268,-0.05397 0.0332,-0.0635 0.048,-0.1016 0.0159,-0.04022 0.0321,-0.08326 -0.0758,-0.02857"
       style="fill:#231f20;fill-opacity:1;fill-rule:evenodd;stroke:none;stroke-width:0.264583"
       id="path1-5" />
  </g>
</svg>
