<?xml version="1.0" encoding="UTF-8" standalone="no"?>
<!-- Created with Inkscape (http://www.inkscape.org/) -->

<svg
   width="15.177368mm"
   height="6.0800838mm"
   viewBox="0 0 15.177368 6.0800838"
   version="1.1"
   id="svg1"
   xmlns:inkscape="http://www.inkscape.org/namespaces/inkscape"
   xmlns:sodipodi="http://sodipodi.sourceforge.net/DTD/sodipodi-0.dtd"
   xmlns="http://www.w3.org/2000/svg"
   xmlns:svg="http://www.w3.org/2000/svg">
  <sodipodi:namedview
     id="namedview1"
     pagecolor="#ffffff"
     bordercolor="#666666"
     borderopacity="1.0"
     inkscape:showpageshadow="2"
     inkscape:pageopacity="0.0"
     inkscape:pagecheckerboard="0"
     inkscape:deskcolor="#d1d1d1"
     inkscape:document-units="mm" />
  <defs
     id="defs1" />
  <g
     inkscape:label="Layer 1"
     inkscape:groupmode="layer"
     id="layer1"
     transform="translate(-140.87126,-63.176672)">
    <path
       d="m 148.30637,63.345835 c -0.0702,0.106187 -0.12206,0.362304 -0.0222,0.435329 0.0998,0.07338 0.24624,0.132644 0.24624,0.132644 -0.46567,0.570793 -0.78422,0.679802 -1.05692,0.839258 -0.0702,0.04127 -0.0561,0.07832 -0.0152,0.06703 0.0215,-0.0056 0.38805,-0.06244 0.81632,-0.387702 0.23107,-0.175683 0.37113,-0.47625 0.37113,-0.47625 0,0 0.11606,0.09666 0.13193,0.116417 0.0349,0.04339 0.0543,0.07585 0.0706,0.02963 0.0607,-0.168981 -0.0251,-0.270581 -0.10724,-0.323144 0,0 0.0854,-0.263173 -0.0716,-0.527404 -0.0261,-0.0441 -0.18203,-0.18556 -0.36301,0.09419 m 0.24342,0.07232 c 0.10513,0.09772 0.0889,0.258233 0.0847,0.29492 0,0 -0.1337,-0.06314 -0.19403,-0.0889 -0.0596,-0.02574 -0.091,-0.0635 -0.0631,-0.1016 0.0921,-0.12982 0.13759,-0.125235 0.17251,-0.10442 m 6.27909,0.02328 c -0.0702,0.106537 -0.12241,0.362302 -0.0226,0.435327 0.10019,0.07338 0.24659,0.132644 0.24659,0.132644 -0.46602,0.571148 -1.38077,0.976841 -1.59808,1.146529 -0.0649,0.04939 -0.0564,0.07832 -0.0155,0.06703 0.0367,-0.0095 0.73343,-0.20461 1.37054,-0.750358 0.2921,-0.250119 0.28399,-0.268817 0.35843,-0.420865 0.0631,0.03281 0.10653,0.08537 0.13158,0.116417 0.0349,0.04375 0.054,0.07585 0.0709,0.02963 0.061,-0.168979 -0.0251,-0.270579 -0.1076,-0.323144 0,0 0.0854,-0.263173 -0.0713,-0.527402 -0.0268,-0.04445 -0.18274,-0.185562 -0.36301,0.09419 m 0.24342,0.07232 c 0.10477,0.09772 0.0889,0.258233 0.0847,0.294923 0,0 -0.13371,-0.06315 -0.19403,-0.0889 -0.0596,-0.02574 -0.0914,-0.0635 -0.0635,-0.1016 0.0924,-0.129823 0.13793,-0.125238 0.17285,-0.104423 m -1.78823,-0.165452 c -0.1838,0.232833 -0.19509,0.538691 -0.21943,0.880179 -0.0257,-0.07197 -0.17215,-0.529167 -0.63958,-0.791279 -0.0339,-0.01871 -0.10302,0.01728 -0.10937,0.124883 -0.004,0.06315 -0.0219,0.215194 0.0222,0.258585 0.0445,0.04304 0.17498,0.128059 0.19685,0.1397 0.0219,0.01199 0.0455,0.01376 0.0519,-0.01236 0.007,-0.02611 0.0367,-0.08678 0.079,-0.04339 0.0356,0.03634 0.26599,0.226483 0.38594,0.630766 0.0205,0.05327 0.0699,0.05856 0.0815,-0.01728 0.0275,-0.186973 0.0427,-0.511527 0.0572,-0.609952 0.0212,-0.137938 0.0871,-0.423333 0.26247,-0.274815 0.0399,0.03351 0.0818,0.07761 0.0818,0.07761 0.037,0.04692 0.0836,0.100189 0.10654,0.04657 0.0342,-0.08184 0.0621,-0.21731 0.0243,-0.290335 -0.0169,-0.0321 -0.23354,-0.306917 -0.38135,-0.118885 m -1.80093,-0.01058 c -0.0674,0.03916 -1.78717,1.031875 -1.85702,1.077029 -0.0699,0.04481 -0.0942,0.05645 -0.10548,0.110067 -0.0109,0.05362 -0.0169,0.08502 -0.0198,0.09349 -0.0127,0.03598 -0.0215,0.08043 0.0811,0.01341 0.0321,-0.02082 1.76177,-1.020585 1.82245,-1.058333 0.0582,-0.03633 0.0914,-0.05186 0.11536,-0.10795 0.0229,-0.05539 0.0293,-0.06562 0.0413,-0.104069 0.0134,-0.04127 0.0268,-0.08502 -0.078,-0.02363 m -4.43018,0.327729 c -1.06045,0.716846 -1.85032,0.449439 -1.89336,0.428625 -0.0434,-0.02082 -0.0885,-0.03633 -0.0769,0.02363 0.012,0.05962 0.0169,0.220485 0.043,0.251529 0.084,0.08043 0.11995,0.238831 0.12453,0.28575 0.005,0.04657 0.024,0.0441 0.0385,0.01553 0.0141,-0.02857 0.0264,-0.129823 0.0335,-0.251883 1.01035,0.06985 1.7593,-0.527757 1.80269,-0.558094 0.0741,-0.05186 0.048,0.03351 0.0402,0.119237 -0.007,0.08572 -0.0335,0.254707 -0.0377,0.314325 -0.005,0.05962 0.0236,0.02328 0.0377,-0.03387 0.0148,-0.05715 0.072,-0.280458 0.0963,-0.511526 0.0236,-0.231069 -0.14182,-0.124532 -0.20849,-0.08326 m -3.02613,0.305155 c -0.17992,0.216603 -0.19861,0.507293 -0.23036,0.831143 -0.0226,-0.06844 -0.15029,-0.507293 -0.58844,-0.767998 -0.0321,-0.01871 -0.0984,0.01376 -0.10724,0.115713 -0.005,0.05997 -0.0261,0.204258 0.0152,0.246592 0.0392,0.04057 0.3369,0.154162 0.16933,0.322085 -0.0751,0.07549 -0.45014,0.445558 -0.53163,0.535517 -0.0808,0.08996 -0.0889,0.106539 -0.003,0.06173 0.0854,-0.04445 0.5775,-0.220837 0.67063,-0.702379 0.008,-0.06315 -0.004,-0.110773 -0.0173,-0.14323 0.007,0.0019 0.0138,0.0063 0.0215,0.01447 0.0325,0.03528 0.2473,0.22225 0.35102,0.609248 0.018,0.05115 0.0653,0.0575 0.078,-0.01447 0.0311,-0.177094 0.0536,-0.485069 0.0699,-0.578202 0.0233,-0.131234 0.0931,-0.400757 0.25612,-0.255413 0.037,0.03281 0.0759,0.0762 0.0759,0.0762 0.0346,0.04551 0.0772,0.09737 0.10019,0.04692 0.0349,-0.07691 0.0645,-0.204965 0.0303,-0.275521 -0.0148,-0.0314 -0.21449,-0.297744 -0.35984,-0.122412 m -2.63172,0.02893 c -0.0349,0.09066 -0.18344,0.404283 -0.13794,0.761293 0.0106,0.08255 0.0804,0.240596 0.21731,0.237421 0.0709,-0.0042 0.15981,-0.05645 0.21344,-0.262821 0.008,-0.04657 0.0134,-0.08361 0.0173,-0.102304 0.005,-0.02752 -0.0187,-0.05856 -0.0381,0.0053 -0.0448,0.127352 -0.17462,0.221895 -0.28469,0.06103 -0.0183,-0.03245 -0.0949,-0.179562 0.0113,-0.516467 0.0212,-0.06526 0.048,-0.162629 0.048,-0.162629 0.024,-0.07408 -0.012,-0.111479 -0.0466,-0.02082 m 10.41894,0.692501 c -0.0349,0.08467 -0.17886,0.375005 -0.15664,0.71755 0.005,0.07902 0.0575,0.23354 0.17639,0.237422 0.0617,0 0.14147,-0.0448 0.19791,-0.23848 0.01,-0.04374 0.0162,-0.07902 0.0201,-0.09595 0.006,-0.02646 -0.013,-0.0575 -0.0332,0.0024 -0.0452,0.118885 -0.16228,0.201789 -0.25012,0.04269 -0.0141,-0.03175 -0.0734,-0.175684 0.0353,-0.491067 0.0219,-0.06103 0.0494,-0.1524 0.0494,-0.1524 0.0247,-0.06879 -0.005,-0.106537 -0.0392,-0.02223 m 3.30729,0.173567 c -0.0321,0.07797 -0.16581,0.346781 -0.14535,0.663929 0.005,0.07338 0.0533,0.216252 0.16405,0.219779 0.0568,0 0.13088,-0.04127 0.18274,-0.220837 0.01,-0.04057 0.0148,-0.07302 0.0187,-0.0889 0.006,-0.024 -0.012,-0.05292 -0.0307,0.0024 -0.0416,0.109715 -0.15028,0.186619 -0.23142,0.03951 -0.013,-0.02928 -0.0684,-0.162984 0.0325,-0.454377 0.0201,-0.0568 0.0459,-0.141111 0.0459,-0.141111 0.0229,-0.06385 -0.004,-0.09843 -0.0363,-0.02045 m -6.20642,0.0085 -0.16863,0.230365 -0.32279,-0.235302 c -0.008,-0.006 -0.0198,-0.0039 -0.0261,0.0049 l -0.19474,0.267055 c -0.006,0.0085 -0.005,0.02045 0.003,0.02611 l 0.33302,0.242713 c 0.008,0.006 0.0194,0.0039 0.0258,-0.0049 l 0.16827,-0.230716 0.32279,0.235656 c 0.008,0.006 0.0198,0.0039 0.0261,-0.0049 l 0.19473,-0.267406 c 0.006,-0.0081 0.005,-0.02011 -0.003,-0.02574 l -0.33338,-0.24271 c -0.008,-0.006 -0.0194,-0.0039 -0.0254,0.0049 m -2.17769,0.245887 -0.16828,0.231069 -0.32279,-0.235656 c -0.008,-0.0056 -0.0198,-0.0039 -0.0261,0.0046 l -0.19474,0.267758 c -0.006,0.0085 -0.005,0.02011 0.003,0.02574 l 0.33302,0.24271 c 0.008,0.006 0.0198,0.0039 0.0257,-0.0046 l 0.16863,-0.230717 0.32314,0.235302 c 0.008,0.006 0.0194,0.0039 0.0257,-0.0046 l 0.19509,-0.267406 c 0.006,-0.0085 0.004,-0.02011 -0.004,-0.02612 l -0.33302,-0.242713 c -0.008,-0.0056 -0.0194,-0.0039 -0.0257,0.0046 m 3.48053,0.169841 c -0.0131,0.04551 -0.0452,0.240242 -0.0529,0.280106 -0.008,0.04022 -0.007,0.07973 0.0124,0.113946 0.0198,0.03422 0.0702,0.152754 0.10689,0.249063 0.0363,0.09631 0.41451,0.824087 0.44908,0.888645 0.0349,0.06456 0.0423,0.112538 0.007,0.155223 -1.21285,1.279877 -3.55282,2.066573 -3.62761,2.109965 -0.0748,0.04339 -0.0554,0.07726 0.0705,0.05503 0.18839,-0.03281 1.23966,-0.208846 1.53953,-0.353131 0.1979,-0.09525 0.88794,-0.433917 1.45238,-0.876652 -0.0162,0.1143 -0.0303,0.28222 -0.0226,0.495652 0.0381,1.029052 0.9585,0.858308 1.20015,0.80504 0.72355,-0.15875 1.60831,-1.158875 1.68381,-1.359959 0.0741,-0.198614 0.085,-0.379589 0.0684,-0.537633 0.19015,-0.103013 0.59937,-0.433213 0.59937,-0.433213 0.0173,0.438857 0.36618,0.570796 0.47378,0.589846 0.50376,0.0762 0.756,-0.344664 0.86325,-0.480837 0.0914,0.240241 0.3122,0.286808 0.42545,0.309739 0.43462,0.08643 0.51928,-0.221191 0.54151,-0.291393 0.13617,-0.423334 -0.10901,-0.739423 -0.14076,-0.773996 -0.0317,-0.03528 -0.0476,-0.0019 -0.0586,0.03881 -0.0113,0.04092 -0.0462,0.193675 -0.0681,0.288925 0,0 0.0907,0.148167 0.12277,0.22366 0.0325,0.07514 -0.0155,0.116417 -0.10901,0.127707 -0.26423,0.03246 -0.47519,-0.11924 -0.54786,-0.188736 -0.0727,-0.0702 0.006,-0.193675 0.0646,-0.341137 0.0469,-0.118179 -0.0399,-0.132292 -0.1069,-2.65e-4 -0.22401,0.588785 -0.53798,0.652285 -0.62124,0.674865 -0.74612,0.2032 -0.68156,-0.478722 -0.67945,-0.59055 0.003,-0.11148 -0.0787,-0.07056 -0.17074,0.0035 -0.31362,0.251883 -0.56656,0.40005 -0.70273,0.460375 -0.11713,-0.2286 -0.28752,-0.372534 -0.35913,-0.424392 -0.80751,-0.588785 -0.87383,0.599369 -0.84949,0.726723 0.12312,0.505177 0.94791,0.198967 1.07703,0.183444 0.12947,-0.01516 0.0871,0.155575 0.0148,0.257527 -0.17922,0.249766 -0.38594,0.429331 -0.57292,0.582083 -0.79974,0.65264 -1.20156,0.601133 -1.32468,0.5969 -0.78528,-0.02223 -0.71331,-0.868537 -0.66992,-1.049512 0.23636,-0.200025 0.43956,-0.41769 0.55739,-0.641705 0.0483,-0.122766 0.13088,-0.40146 -0.0183,-0.751416 -0.079,-0.154163 -0.32667,-0.586317 -0.32667,-0.586317 0,0 0.18274,0.0056 0.20002,0.0056 0.0173,-2.65e-4 0.0515,-0.01871 0.007,-0.06985 -0.0441,-0.0508 -0.42757,-0.433213 -0.45015,-0.463905 -0.0233,-0.03069 -0.0448,-0.05292 -0.0579,-0.0078 m 2.42287,1.7526 c 0,0 -0.11041,0.06315 -0.41768,0.04269 -0.25753,-0.01765 -0.23566,-0.117827 -0.20038,-0.155927 0.0385,-0.04163 0.35419,-0.240242 0.61806,0.113242 m -10.68987,-1.468261 c -0.16721,0.215194 -0.17744,0.498475 -0.20002,0.814211 -0.0233,-0.06632 -0.15663,-0.489657 -0.58314,-0.732367 -0.0307,-0.01728 -0.0935,0.01587 -0.0995,0.11571 -0.004,0.05821 -0.0201,0.199321 0.0205,0.239184 0.0402,0.04022 0.15945,0.118533 0.17921,0.129471 0.0201,0.0113 0.0416,0.0127 0.0476,-0.01164 0.006,-0.02434 0.0332,-0.08008 0.0716,-0.03987 0.0279,0.02858 0.25611,0.228952 0.32561,0.503061 0.0579,0.238125 -0.52811,0.718962 -0.5588,0.740833 -0.0547,0.03951 -0.037,0.06491 -0.0116,0.0508 0.0254,-0.01341 0.0508,-0.01728 0.35137,-0.215546 0.242,-0.160162 0.2928,-0.345371 0.31397,-0.487539 0.002,-0.0067 0.004,-0.01447 0.006,-0.024 0.0251,-0.17286 0.0388,-0.473075 0.0522,-0.564444 0.0191,-0.128058 0.079,-0.391583 0.23883,-0.254706 0.0363,0.03105 0.0748,0.07232 0.0748,0.07232 0.0342,0.04339 0.0765,0.09278 0.0974,0.04268 0.0314,-0.07514 0.0564,-0.200731 0.0219,-0.26811 -0.0152,-0.02999 -0.21272,-0.28434 -0.34784,-0.110066 m 7.37266,0.04367 c -0.0533,0.06597 -0.58949,0.769761 -0.58949,0.769761 l -0.38982,-0.277988 c 0,0 0.15875,-0.03986 0.18662,-0.04798 0.0275,-0.0085 0.0434,-0.0441 -0.006,-0.06985 -0.0501,-0.02574 -0.52035,-0.212725 -0.55633,-0.227542 -0.0356,-0.01447 -0.0483,-0.03069 -0.0515,0.0078 -0.003,0.03775 -0.008,0.347134 -0.008,0.347134 0,0 -0.007,0.02188 0.0335,0.04515 0.0413,0.02294 0.0815,0.07303 0.11501,0.106891 0.0339,0.03351 0.47096,0.378532 0.49248,0.39088 0,0 -0.21872,0.384175 -0.2466,0.685093 -0.0279,0.301273 0.005,0.716492 0.41664,0.582436 0.11077,-0.0314 0.5715,-0.214842 0.67451,-0.536221 0.0332,-0.118181 0.12805,-0.331965 -0.0265,-0.548923 -0.0892,-0.127352 -0.44874,-0.342548 -0.44874,-0.342548 0,0 0.27623,-0.382058 0.30234,-0.428625 0.0265,-0.04657 0.12841,-0.342546 0.13934,-0.414512 0.0113,-0.07126 0.0169,-0.107246 -0.0367,-0.04092 m -0.0938,1.622777 c -0.1531,0.125589 -0.47448,0.291748 -0.56444,0.300566 -0.0903,0.0085 -0.32949,-0.03563 -0.22578,-0.28081 0.0356,-0.07938 0.27517,-0.48895 0.27517,-0.48895 0.0892,0.04903 0.66745,0.343606 0.51505,0.469194 m -2.76224,-1.173338 c -0.1517,0.136877 -0.29528,0.492829 -0.21273,0.682977 0.0684,0.146757 0.23918,0.256469 0.52952,0.236715 0.0829,-0.0049 0.35878,-0.02681 0.43427,0.07832 0.0441,0.05856 0.0854,0.132995 -0.0967,0.32032 -0.18239,0.18768 -1.42981,1.274588 -3.50449,1.316215 -0.21026,0 -0.4625,-0.0081 -0.57997,-0.02928 -0.11783,-0.02082 -1.20121,-0.180621 -2.06269,-0.705554 -0.0963,-0.04622 -0.14676,-0.03775 -0.0547,0.05856 0.0928,0.09666 0.77293,0.657577 1.38641,0.886177 0.0709,0.02681 0.46638,0.113596 0.96203,0.155575 0.32773,0.02117 1.85243,0.113596 3.39831,-0.949325 0.49565,-0.340077 0.64699,-0.652992 0.64699,-0.652992 0.0533,-0.104775 0.26317,-0.829379 -0.23672,-1.365954 -0.0363,-0.03951 -0.28327,-0.324556 -0.60959,-0.03175 m 0.57784,0.529519 c 0,0 -0.37076,0.03634 -0.49776,-0.02681 -0.12665,-0.0635 -0.0557,-0.146405 0.0243,-0.18768 0.0808,-0.04163 0.29774,-0.09525 0.47342,0.21449 m -2.98273,-0.578898 c -0.0452,0.147461 -0.24059,0.657932 -0.17321,1.242484 0.0155,0.135114 0.11183,0.394758 0.29739,0.391231 0.0956,-0.0056 0.21484,-0.08925 0.28363,-0.425804 0.0113,-0.0762 0.0173,-0.136525 0.0222,-0.166511 0.007,-0.04516 -0.0265,-0.09666 -0.0519,0.0074 -0.0586,0.207433 -0.23213,0.359833 -0.38347,0.0949 -0.0254,-0.05257 -0.13124,-0.294217 0.007,-0.843846 0.0282,-0.106538 0.0624,-0.265288 0.0624,-0.265288 0.031,-0.119946 -0.018,-0.182033 -0.0639,-0.03457 m 1.26436,-0.0053 c -0.0346,0.08502 -0.18063,0.378883 -0.1584,0.72531 0.006,0.08008 0.0582,0.236008 0.17921,0.240242 0.0624,-2.65e-4 0.14252,-0.04515 0.19967,-0.2413 0.01,-0.0441 0.0162,-0.07973 0.0205,-0.09701 0.006,-0.02681 -0.0134,-0.05821 -0.0339,0.0024 -0.0455,0.120298 -0.16405,0.203906 -0.25295,0.04304 -0.0141,-0.03175 -0.0741,-0.1778 0.036,-0.496358 0.0219,-0.06174 0.0497,-0.153813 0.0497,-0.153813 0.0251,-0.06985 -0.005,-0.10795 -0.0399,-0.02257 m -2.51283,0.377119 c -0.0346,0.09031 -0.18274,0.404283 -0.13758,0.761648 0.0109,0.08255 0.0804,0.240593 0.21731,0.237067 0.0709,-0.0042 0.1598,-0.05644 0.21307,-0.262819 0.009,-0.04621 0.0138,-0.08361 0.0177,-0.101955 0.005,-0.02787 -0.0191,-0.05927 -0.0381,0.0053 -0.0448,0.127 -0.17498,0.221546 -0.28469,0.06068 -0.0183,-0.03211 -0.0953,-0.179213 0.0113,-0.516467 0.0215,-0.06562 0.048,-0.162631 0.048,-0.162631 0.0236,-0.07373 -0.012,-0.111125 -0.0469,-0.02082 m 4.54625,1.38721 c -0.0349,0.08502 -0.18098,0.378884 -0.1584,0.725665 0.005,0.07973 0.0582,0.236008 0.1785,0.239887 0.0624,0 0.14323,-0.04515 0.20038,-0.2413 0.01,-0.04409 0.0159,-0.07973 0.0198,-0.09701 0.006,-0.02646 -0.013,-0.05821 -0.0332,0.0028 -0.0455,0.119946 -0.1644,0.203555 -0.25295,0.04304 -0.0145,-0.0321 -0.0744,-0.178152 0.036,-0.49671 0.0215,-0.06174 0.0497,-0.153813 0.0497,-0.153813 0.0243,-0.06985 -0.005,-0.10795 -0.0399,-0.02257 m 8.09978,0.0254 c -0.0314,0.08643 -0.0434,0.143227 -0.0399,0.175683 0.003,0.03316 0.0148,0.1397 0.0148,0.1397 -0.0325,0.02574 -0.16934,0.111125 -0.30586,0.01024 0.009,-0.02928 0.0268,-0.08855 0.0307,-0.121356 0.0148,-0.05045 -0.0162,-0.08819 -0.0413,-0.03598 -0.0247,0.05292 -0.0829,0.228248 -0.12559,0.267758 -0.043,0.03951 -0.0938,0.184856 -0.42015,0.03704 -0.0564,-0.02188 -0.15664,-0.09596 -0.31221,0.06068 -0.35278,0.327731 -0.5962,0.353483 -0.99131,0.493889 -0.0483,0.02188 -0.14852,0.09737 -0.0293,0.08537 0.11959,-0.01198 0.62019,2.65e-4 0.89288,-0.312914 0.0572,-0.05503 0.12242,-0.201084 0.33902,-0.116769 0.1203,0.04551 0.34184,0.235654 0.5835,-0.140054 0.14287,0.0949 0.35912,0.05715 0.3937,-0.04762 0.0342,-0.104775 0.0741,-0.208844 0.0737,-0.279752 -2.7e-4,-0.07126 -0.007,-0.1651 -0.007,-0.1651 -0.005,-0.05644 -0.0247,-0.136877 -0.0561,-0.0508"
       style="fill:#231f20;fill-opacity:1;fill-rule:evenodd;stroke:none;stroke-width:0.264583"
       id="path1-4" />
  </g>
</svg>
