<?xml version="1.0" encoding="UTF-8" standalone="no"?>
<!-- Created with Inkscape (http://www.inkscape.org/) -->

<svg
   width="22.0051mm"
   height="6.7763953mm"
   viewBox="0 0 22.0051 6.7763953"
   version="1.1"
   id="svg1"
   xmlns:inkscape="http://www.inkscape.org/namespaces/inkscape"
   xmlns:sodipodi="http://sodipodi.sourceforge.net/DTD/sodipodi-0.dtd"
   xmlns="http://www.w3.org/2000/svg"
   xmlns:svg="http://www.w3.org/2000/svg">
  <sodipodi:namedview
     id="namedview1"
     pagecolor="#ffffff"
     bordercolor="#666666"
     borderopacity="1.0"
     inkscape:showpageshadow="2"
     inkscape:pageopacity="0.0"
     inkscape:pagecheckerboard="0"
     inkscape:deskcolor="#d1d1d1"
     inkscape:document-units="mm" />
  <defs
     id="defs1" />
  <g
     inkscape:label="Layer 1"
     inkscape:groupmode="layer"
     id="layer1"
     transform="translate(-157.03617,-73.872038)">
    <path
       d="m 167.92469,73.898124 c -0.0695,0.03493 -1.16487,0.445206 -1.23719,0.486127 -0.072,0.03986 -0.0974,0.04974 -0.11218,0.103012 -0.0145,0.05256 -0.0219,0.08325 -0.0258,0.09172 -0.0148,0.03528 -0.0265,0.07902 0.0801,0.01834 0.0335,-0.01871 1.14124,-0.434975 1.20121,-0.469197 0.0596,-0.03422 0.0952,-0.04586 0.12206,-0.100187 0.0268,-0.05397 0.0335,-0.0635 0.048,-0.101248 0.0159,-0.04057 0.0317,-0.08361 -0.0762,-0.02858 m 3.37396,0.531635 c -0.0702,0.106892 -0.12206,0.363009 -0.0222,0.435682 0.10019,0.07338 0.24624,0.132643 0.24624,0.132643 -0.46567,0.570797 -0.78458,0.680157 -1.05692,0.839613 -0.0699,0.04092 -0.0561,0.07761 -0.0152,0.06703 0.0212,-0.0056 0.38805,-0.06315 0.81562,-0.387702 0.23213,-0.17639 0.37218,-0.476604 0.37218,-0.476604 0,0 0.11571,0.09666 0.13123,0.116416 0.0353,0.04375 0.0547,0.07585 0.0709,0.02999 0.0607,-0.169333 -0.0251,-0.271288 -0.10724,-0.323498 0,0 0.0854,-0.263173 -0.0716,-0.527402 -0.0265,-0.0441 -0.18203,-0.185563 -0.36301,0.09384 m 0.24377,0.07303 c 0.10478,0.09737 0.0889,0.25753 0.0847,0.294217 0,0 -0.13406,-0.06244 -0.19403,-0.08819 -0.0603,-0.02574 -0.0914,-0.06385 -0.0639,-0.101951 0.0924,-0.129824 0.13793,-0.12559 0.17321,-0.104072 m -8.98983,-0.103716 c -0.13865,0.236363 -0.12489,0.531989 -0.1196,0.862189 -0.0275,-0.06738 -0.18838,-0.497768 -0.60995,-0.718256 -0.0307,-0.01622 -0.0871,0.02328 -0.084,0.127355 10e-4,0.06068 -0.002,0.208843 0.0392,0.24765 0.0409,0.03845 0.15981,0.111125 0.17956,0.121353 0.0198,0.0099 0.0399,0.0099 0.0437,-0.01553 0.004,-0.02574 0.0243,-0.08608 0.0639,-0.04727 0.0339,0.0321 0.24624,0.200377 0.38029,0.581377 0.0219,0.04974 0.0649,0.05186 0.0688,-0.02222 0.009,-0.181679 -0.003,-0.495652 0.002,-0.591254 0.007,-0.134056 0.0413,-0.413456 0.2032,-0.282223 0.0367,0.02928 0.0766,0.06914 0.0766,0.06914 0.0353,0.04269 0.0794,0.09137 0.0945,0.03704 0.0236,-0.08043 0.0367,-0.212725 -0.001,-0.280458 -0.0166,-0.03034 -0.22402,-0.280104 -0.33691,-0.0889 m 15.26858,0.126648 c -0.0706,0.10654 -0.12242,0.362657 -0.0222,0.435327 0.0998,0.07338 0.24589,0.132646 0.24589,0.132646 -0.46567,0.570794 -1.38042,0.977194 -1.59773,1.146879 -0.0653,0.04904 -0.0565,0.07797 -0.0152,0.06668 0.0363,-0.0095 0.73307,-0.204258 1.37019,-0.750358 0.2921,-0.250119 0.28434,-0.268817 0.35807,-0.421217 0.0635,0.03316 0.10689,0.08608 0.13194,0.116771 0.0349,0.04374 0.0543,0.07549 0.0709,0.02963 0.061,-0.16863 -0.0257,-0.270582 -0.1076,-0.323499 0,0 0.0854,-0.262818 -0.0716,-0.52705 -0.0261,-0.0441 -0.18239,-0.18556 -0.36266,0.09419 m 0.24342,0.07267 c 0.10477,0.09737 0.0889,0.257527 0.0847,0.294569 0,0 -0.13405,-0.06315 -0.19438,-0.08855 -0.0596,-0.02574 -0.0907,-0.06385 -0.0631,-0.101952 0.0921,-0.129469 0.13758,-0.12559 0.17286,-0.104069 m -1.7887,-0.165785 c -0.18309,0.232833 -0.19473,0.538692 -0.21908,0.879827 -0.0257,-0.07161 -0.17215,-0.528812 -0.63958,-0.790927 -0.0342,-0.01871 -0.10301,0.01728 -0.10936,0.124883 -0.004,0.06279 -0.0219,0.215194 0.0222,0.258586 0.0445,0.04304 0.17498,0.127706 0.19685,0.140054 0.0219,0.01199 0.0459,0.01376 0.0522,-0.01304 0.007,-0.02574 0.0363,-0.08643 0.0787,-0.04304 0.0353,0.03598 0.266,0.226835 0.38524,0.630767 0.0208,0.05327 0.0709,0.05891 0.0822,-0.01728 0.0275,-0.18697 0.0427,-0.511527 0.0575,-0.609952 0.0208,-0.137935 0.0868,-0.422981 0.26211,-0.275166 0.0395,0.03387 0.0818,0.07867 0.0818,0.07867 0.0371,0.04622 0.0836,0.09984 0.10619,0.04551 0.0349,-0.08149 0.0624,-0.216959 0.0247,-0.289984 -0.0166,-0.03248 -0.23352,-0.306937 -0.38169,-0.118906 m -1.80058,-0.01093 c -0.067,0.03916 -1.78752,1.032227 -1.85702,1.077383 -0.0699,0.0448 -0.0942,0.05644 -0.10548,0.110067 -0.0113,0.05397 -0.0169,0.08467 -0.0201,0.09349 -0.0124,0.03598 -0.0215,0.08043 0.0815,0.01341 0.0318,-0.02082 1.76213,-1.020588 1.82245,-1.058333 0.0579,-0.03634 0.0914,-0.05186 0.11536,-0.10795 0.0233,-0.05539 0.0293,-0.06527 0.0413,-0.104071 0.0134,-0.04163 0.0268,-0.08502 -0.078,-0.024 m -4.66866,0.04374 c -0.0166,0.03881 -0.11254,0.303035 -0.11254,0.303035 0.0261,0.171804 0.25295,2.014715 0.26776,2.140304 0.0152,0.125587 0.33408,2.210152 0.35102,2.786944 -0.004,0.05891 0.0212,0.08079 0.048,0.02434 0.0272,-0.0568 0.21344,-0.440974 -0.007,-1.851377 -0.0166,-0.117475 -0.35137,-2.500138 -0.35137,-2.500138 0,0 0.19756,0.185208 0.22931,0.219075 0.0317,0.03316 0.0702,0.01553 0.0519,-0.0388 -0.018,-0.05397 -0.42193,-1.030113 -0.43498,-1.063979 -0.013,-0.03387 -0.0257,-0.05856 -0.042,-0.01939 m -1.06856,0 c -0.0159,0.03881 -0.14605,0.324908 -0.14605,0.324908 0.004,0.02294 0.0342,0.09349 0.0554,0.237418 0.0219,0.149932 0.0533,0.364067 0.0879,0.60043 0,0 0.54221,3.454045 0.49424,3.529187 -0.0617,0.09596 -0.50589,0.38735 -0.80222,0.224367 -0.24377,-0.134054 -0.29351,-0.315029 -0.3235,-0.479071 -0.03,-0.164041 -0.18591,-1.854906 -0.74647,-2.575279 -0.0388,-0.05574 -0.0691,0.0046 -0.0801,0.03598 -0.0106,0.0314 -0.067,0.204965 0.0109,0.386646 0.0783,0.181327 0.49918,1.237544 0.51611,1.758596 0.0109,0.114654 0.0444,0.187325 -0.0758,0.318913 -0.1203,0.131937 -0.80081,0.714726 -1.23226,0.874183 -0.12347,0.0448 -0.756,0.343604 -0.81491,-0.201438 -0.0145,-0.13476 -0.008,-0.257879 -0.008,-0.386644 0,-0.02893 -0.007,-0.0568 -0.0173,-0.07902 0.13088,-0.122766 0.24095,-0.251528 0.31644,-0.381351 0.048,-0.112184 0.13053,-0.366536 -0.0187,-0.6858 -0.079,-0.140759 -0.32668,-0.534811 -0.32668,-0.534811 0,0 0.18309,0.0053 0.20038,0.0049 0.0169,-2.65e-4 0.0515,-0.01693 0.007,-0.0635 -0.0445,-0.04657 -0.42792,-0.39511 -0.4505,-0.423333 -0.0236,-0.02787 -0.0448,-0.04833 -0.0575,-0.0071 -0.013,0.04163 -0.0455,0.219075 -0.0536,0.255762 -0.008,0.03634 -0.007,0.07267 0.0127,0.103717 0.0198,0.0314 0.0705,0.1397 0.10689,0.227542 0.0367,0.08749 0.41451,0.751416 0.44943,0.810331 0.0346,0.05891 0.042,0.102659 0.007,0.142169 -1.2125,1.166989 -3.55283,1.884539 -3.62762,1.924404 -0.0748,0.03951 -0.055,0.07055 0.0706,0.05009 0.18874,-0.02999 1.23966,-0.190148 1.53952,-0.322085 0.22825,-0.10019 1.11196,-0.496359 1.7018,-0.992013 -0.01,0.258233 -0.10301,0.948973 0.45085,1.033991 0.0893,0.01376 0.51329,0.02857 1.23226,-0.53481 0.1337,-0.104775 0.5401,-0.459317 0.59619,-0.613127 0.0141,-0.07867 0.0702,-0.184856 0.0702,-0.184856 0,0 0.12347,0.748948 0.42863,0.896056 0.30233,0.145696 0.58173,0.119944 0.86783,-0.151341 0.10795,-0.102307 0.2734,-0.288222 0.23495,-0.758825 -0.0113,-0.142875 -0.46461,-3.436057 -0.46461,-3.436057 0,0 0.15311,0.10654 0.18521,0.140052 0.0314,0.03351 0.0702,0.01516 0.0519,-0.03845 -0.0183,-0.05362 -0.39264,-0.977548 -0.4057,-1.011415 -0.0134,-0.03387 -0.0261,-0.05856 -0.0427,-0.01939 m -2.64513,0.03351 c -0.0159,0.03916 -0.11183,0.303387 -0.11183,0.303387 0.0254,0.171098 0.18979,1.335617 0.20496,1.461207 0.0152,0.12559 0.33408,2.210152 0.35102,2.786591 -0.004,0.05927 0.0208,0.08114 0.048,0.02434 0.0268,-0.05644 0.21238,-0.440973 -0.008,-1.851377 -0.0162,-0.117123 -0.28786,-1.82104 -0.28786,-1.82104 0,0 0.1972,0.185561 0.2286,0.218724 0.0317,0.03387 0.0705,0.01587 0.0522,-0.0381 -0.018,-0.05398 -0.42192,-1.030465 -0.43498,-1.064332 -0.013,-0.03387 -0.0261,-0.05856 -0.0423,-0.01939 m 1.46896,0.164394 c -0.031,0.07161 -0.0384,0.09313 -0.0349,0.124883 0.003,0.0314 0.0177,0.13335 0.007,0.159457 -0.0102,0.02611 -0.15204,0.115003 -0.20955,0.0515 -0.0194,-0.0254 -0.008,-0.123118 -0.0102,-0.170743 -0.002,-0.04727 -0.008,-0.1016 -0.0445,-0.03493 -0.036,0.06632 -0.03,0.08925 -0.0293,0.132291 7.9e-4,0.04374 0.0155,0.09807 -0.0208,0.137232 -0.0363,0.04022 -0.20073,0.150283 -0.27657,0.01482 -0.012,-0.02716 -0.003,-0.07479 0.001,-0.111125 0.005,-0.0374 -0.0286,-0.07655 -0.0462,-0.01939 -0.0183,0.05715 -0.0526,0.167216 -0.03,0.244829 0.0226,0.0769 0.16404,0.245533 0.38523,-0.01976 0.0554,0.02822 0.22613,0.09137 0.34396,-0.174977 0.0423,-0.127 0.0229,-0.293513 0.0229,-0.293513 -0.009,-0.07976 -0.0281,-0.112567 -0.0585,-0.0406 m -6.598,0.02506 c -0.0208,0.04621 -0.11253,0.232478 -0.0864,0.371827 0.0265,0.1397 0.26282,1.490839 0.29246,2.251426 0.0381,0.487188 0.0416,1.591734 0.44061,1.940632 0.61772,0.529167 2.16359,0.109008 2.34421,-0.35701 0.0296,-0.0762 0.18486,-0.714375 -0.37077,-1.116542 -0.0427,-0.03669 -0.0593,-0.02506 -0.0705,0.03775 -0.0116,0.06244 -0.0349,0.296688 -0.0349,0.296688 0.0381,0.04233 0.29493,0.322792 0.32809,0.408162 0.0328,0.08572 0.0854,0.170392 -0.12489,0.281517 -0.2099,0.111125 -1.21179,0.522817 -1.79775,0.167923 -0.10513,-0.0695 -0.41169,-0.184856 -0.47484,-1.184627 -0.0212,-0.251883 -0.18062,-2.445104 -0.36089,-3.045531 -0.0381,-0.113594 -0.0632,-0.09843 -0.0843,-0.05221 m -1.98613,0.05856 c -0.15311,0.194381 -0.16264,0.449792 -0.1831,0.734835 -0.0215,-0.05962 -0.14358,-0.442029 -0.5341,-0.6604 -0.0286,-0.01587 -0.0861,0.01447 -0.0917,0.104071 -0.003,0.05221 -0.018,0.179917 0.019,0.2159 0.037,0.03634 0.1457,0.106892 0.1644,0.116769 0.018,0.0099 0.0378,0.0113 0.0434,-0.01024 0.006,-0.02222 0.0303,-0.07232 0.066,-0.03634 0.0296,0.02999 0.2219,0.189442 0.32173,0.526698 0.0177,0.04445 0.0589,0.04904 0.0688,-0.01447 0.0226,-0.155927 0.0353,-0.427215 0.0476,-0.509411 0.0176,-0.115358 0.0727,-0.353483 0.21872,-0.229658 0.0335,0.02822 0.0688,0.06491 0.0688,0.06491 0.031,0.03951 0.0698,0.08432 0.0889,0.03916 0.0286,-0.06844 0.0519,-0.181682 0.0204,-0.242359 -0.0141,-0.02716 -0.19509,-0.256468 -0.31891,-0.09948 m 6.37293,-0.0078 c -0.036,0.08714 -0.1838,0.385233 -0.16122,0.736952 0.005,0.08149 0.0593,0.239889 0.18168,0.244123 0.0631,-2.65e-4 0.14499,-0.04622 0.2032,-0.245534 0.0102,-0.0448 0.0166,-0.08043 0.0205,-0.09807 0.006,-0.02716 -0.0138,-0.05927 -0.0342,0.0024 -0.0462,0.122062 -0.16651,0.207433 -0.25647,0.04375 -0.0148,-0.03246 -0.0758,-0.180623 0.036,-0.504473 0.0222,-0.06279 0.0508,-0.156282 0.0508,-0.156282 0.0251,-0.07055 -0.005,-0.109712 -0.0402,-0.02294 m -0.47025,0.03598 c -0.0804,0.04163 -2.90301,1.58256 -2.98521,1.627717 -0.0818,0.04445 -0.10654,0.0635 -0.11889,0.124177 -0.0127,0.06068 -0.019,0.09243 -0.0222,0.105127 -0.012,0.04127 -0.0286,0.08361 0.091,0.01516 0.0374,-0.02151 2.88184,-1.564216 2.9464,-1.606904 0.0645,-0.04233 0.10336,-0.05821 0.12946,-0.121354 0.0265,-0.06244 0.0332,-0.07373 0.0473,-0.117123 0.0148,-0.04692 0.0335,-0.08961 -0.0878,-0.02681 m 2.3495,0.733777 -0.19474,0.267406 c -0.006,0.0085 -0.005,0.02011 0.003,0.02574 l 0.33267,0.243065 c 0.008,0.0056 0.0198,0.0035 0.0261,-0.0049 l 0.19509,-0.267758 c 0.006,-0.0081 0.005,-0.01976 -0.004,-0.02574 l -0.33267,-0.242713 c -0.008,-0.0056 -0.0198,-0.0035 -0.0261,0.0049 m -6.83542,0.07267 c -0.0452,0.128762 -0.2346,0.573262 -0.20355,1.096078 0.007,0.12065 0.078,0.355955 0.236,0.36195 0.0815,-7.93e-4 0.18698,-0.06914 0.26071,-0.365477 0.0127,-0.06703 0.0212,-0.120298 0.0261,-0.146401 0.008,-0.04022 -0.0177,-0.08749 -0.0445,0.0039 -0.0589,0.18133 -0.21343,0.30833 -0.33091,0.06632 -0.019,-0.04833 -0.0981,-0.26811 0.0441,-0.749652 0.0286,-0.09349 0.0649,-0.232833 0.0649,-0.232833 0.0317,-0.10513 -0.007,-0.162632 -0.0529,-0.03387 m 14.41168,0.195183 c -0.0349,0.08432 -0.17886,0.37465 -0.15699,0.717198 0.005,0.07937 0.0575,0.233538 0.17674,0.237419 0.0617,0 0.14147,-0.0448 0.19791,-0.238477 0.01,-0.04375 0.0162,-0.07902 0.0198,-0.09596 0.006,-0.02646 -0.013,-0.05715 -0.0328,0.0024 -0.0452,0.118533 -0.16228,0.201438 -0.25012,0.04269 -0.0141,-0.03175 -0.0734,-0.175684 0.0349,-0.491067 0.0219,-0.06103 0.0497,-0.152048 0.0497,-0.152048 0.0243,-0.06879 -0.005,-0.106185 -0.0392,-0.02223 m -17.46921,0.05547 c -0.054,0.153458 -0.27904,0.681566 -0.24235,1.302808 0.009,0.143581 0.0924,0.423333 0.28045,0.430038 0.097,-7.94e-4 0.22225,-0.0822 0.3101,-0.433917 0.0152,-0.07973 0.0247,-0.143581 0.031,-0.174625 0.01,-0.04762 -0.0212,-0.103717 -0.0526,0.0049 -0.0702,0.2159 -0.25435,0.366538 -0.39335,0.07867 -0.0229,-0.05715 -0.11712,-0.318558 0.0519,-0.891117 0.0342,-0.110773 0.0773,-0.276579 0.0773,-0.276579 0.0377,-0.125235 -0.008,-0.193321 -0.0625,-0.04022 m 20.7765,0.11783 c -0.0321,0.07796 -0.16581,0.346778 -0.14535,0.664278 0.005,0.07303 0.0536,0.2159 0.16369,0.21943 0.0575,0 0.13088,-0.04128 0.18345,-0.22084 0.008,-0.04022 0.0145,-0.07267 0.0183,-0.0889 0.006,-0.024 -0.012,-0.05292 -0.0307,0.0024 -0.0416,0.110067 -0.15028,0.186622 -0.23142,0.03951 -0.0134,-0.02928 -0.0681,-0.162983 0.0325,-0.454731 0.0205,-0.05609 0.0459,-0.140407 0.0459,-0.140407 0.0229,-0.0642 -0.005,-0.09913 -0.0363,-0.02082 m -6.20642,0.0081 -0.16863,0.231072 -0.32279,-0.235657 c -0.008,-0.006 -0.0198,-0.0039 -0.0261,0.0046 l -0.19509,0.267406 c -0.006,0.0088 -0.004,0.02045 0.004,0.02611 l 0.33267,0.242711 c 0.008,0.006 0.0198,0.0039 0.0261,-0.0046 l 0.16793,-0.231071 0.32314,0.235657 c 0.008,0.006 0.0198,0.0039 0.0261,-0.0046 l 0.19473,-0.267406 c 0.006,-0.0085 0.005,-0.02011 -0.003,-0.02611 l -0.33267,-0.24271 c -0.008,-0.006 -0.0201,-0.0039 -0.0257,0.0046 m -12.97799,0.145347 c -0.0296,0.0889 -0.15734,0.39511 -0.11536,0.746125 0.01,0.08043 0.0713,0.23636 0.19121,0.233891 0.0614,-0.0039 0.13899,-0.05433 0.18415,-0.256471 0.007,-0.04551 0.0113,-0.08184 0.0145,-0.09983 0.005,-0.02716 -0.0166,-0.05821 -0.0332,0.0049 -0.0385,0.124245 -0.15065,0.21632 -0.24801,0.05757 -0.0162,-0.0314 -0.084,-0.176389 0.007,-0.506589 0.018,-0.0635 0.0406,-0.159102 0.0406,-0.159102 0.0205,-0.07232 -0.0113,-0.108657 -0.0409,-0.02045 m 5.27015,0.104775 c -0.0289,0.117475 -0.16193,0.527754 -0.0758,0.980369 0.0201,0.104775 0.11289,0.301273 0.26388,0.287867 0.078,-0.01058 0.17074,-0.08255 0.20919,-0.349602 0.005,-0.06033 0.007,-0.10795 0.009,-0.131588 0.003,-0.03563 -0.0268,-0.07408 -0.042,0.0088 -0.0367,0.165452 -0.17039,0.294921 -0.30798,0.09737 -0.0233,-0.03986 -0.12276,-0.22225 -0.0395,-0.659342 0.0173,-0.08537 0.037,-0.210962 0.037,-0.210962 0.0187,-0.09595 -0.0247,-0.140759 -0.054,-0.02294 m 9.011,0.166159 c -0.0134,0.04515 -0.0459,0.239887 -0.0536,0.279751 -0.008,0.03987 -0.007,0.08008 0.0127,0.113949 0.0198,0.03422 0.0702,0.153103 0.10689,0.24906 0.0367,0.09666 0.41451,0.823735 0.44908,0.888648 0.0349,0.06456 0.042,0.112535 0.007,0.15522 -1.2132,1.279525 -3.55317,2.066573 -3.62796,2.109965 -0.0744,0.04339 -0.055,0.07726 0.0713,0.05539 0.18838,-0.03351 1.2393,-0.209195 1.53917,-0.353483 0.19755,-0.0949 0.88794,-0.433917 1.45203,-0.8763 -0.0155,0.113948 -0.0303,0.282223 -0.0219,0.4953 0.0381,1.029052 0.95779,0.858308 1.1998,0.805392 0.72354,-0.159102 1.60831,-1.159579 1.68345,-1.360311 0.0741,-0.198614 0.0854,-0.379589 0.0688,-0.537633 0.19015,-0.103365 0.59937,-0.432858 0.59937,-0.432858 0.0173,0.438502 0.36619,0.570441 0.47378,0.589491 0.50342,0.0762 0.75565,-0.344664 0.86325,-0.480835 0.0914,0.240242 0.31221,0.28716 0.42545,0.309385 0.43462,0.08678 0.51894,-0.220839 0.54152,-0.291041 0.13652,-0.423334 -0.10901,-0.739069 -0.14076,-0.773994 -0.0317,-0.03528 -0.0476,-0.0013 -0.0589,0.0388 -0.0109,0.04057 -0.0459,0.193675 -0.0681,0.289279 0,0 0.0907,0.147813 0.12347,0.222954 0.0321,0.0755 -0.0159,0.116771 -0.10901,0.128413 -0.26458,0.0321 -0.47554,-0.11924 -0.54786,-0.18909 -0.073,-0.0702 0.006,-0.193323 0.0642,-0.341135 0.0466,-0.118181 -0.0399,-0.132291 -0.10654,-2.64e-4 -0.22436,0.588787 -0.53904,0.652287 -0.62159,0.674864 -0.74613,0.203552 -0.68192,-0.478718 -0.6791,-0.59055 0.002,-0.111477 -0.079,-0.0702 -0.17074,0.0035 -0.31433,0.252238 -0.56727,0.40005 -0.70309,0.460375 -0.11712,-0.2286 -0.28751,-0.372533 -0.35913,-0.424391 -0.8075,-0.588786 -0.87383,0.599371 -0.84949,0.726723 0.12277,0.505177 0.94721,0.198966 1.07704,0.183443 0.12946,-0.01516 0.0871,0.15593 0.0148,0.257175 -0.17921,0.250473 -0.38594,0.430038 -0.57291,0.582438 -0.79975,0.652285 -1.20156,0.600779 -1.32468,0.5969 -0.78528,-0.02222 -0.71332,-0.868892 -0.66957,-1.049515 0.23636,-0.199673 0.43921,-0.417689 0.55703,-0.64135 0.0483,-0.123118 0.13088,-0.401814 -0.0183,-0.751768 -0.079,-0.154165 -0.32632,-0.585965 -0.32632,-0.585965 0,0 0.18203,0.0053 0.19967,0.0049 0.0173,0 0.0515,-0.01799 0.007,-0.06915 -0.0441,-0.0508 -0.42756,-0.433563 -0.45049,-0.464254 -0.0233,-0.03069 -0.0444,-0.05292 -0.0572,-0.0074 m 2.42182,1.7526 c 0,0 -0.10972,0.06315 -0.41699,0.04233 -0.25823,-0.01765 -0.23565,-0.11783 -0.20073,-0.15593 0.0388,-0.04163 0.35419,-0.240241 0.61772,0.113596 m -3.31649,-1.424947 c -0.0533,0.06597 -0.5895,0.769762 -0.5895,0.769762 l -0.38981,-0.278341 c 0,0 0.15875,-0.03951 0.18626,-0.04727 0.0279,-0.0085 0.0437,-0.0441 -0.006,-0.0702 -0.0497,-0.0254 -0.51999,-0.212725 -0.55598,-0.227542 -0.0356,-0.01447 -0.0483,-0.03069 -0.0515,0.0074 -0.003,0.0381 -0.009,0.347838 -0.009,0.347838 0,0 -0.007,0.02117 0.0339,0.0448 0.0409,0.02328 0.0815,0.07338 0.11501,0.106537 0.0335,0.03387 0.47096,0.379238 0.49213,0.391232 0,0 -0.21873,0.384527 -0.24624,0.685448 -0.0282,0.300918 0.005,0.716137 0.41663,0.582083 0.11077,-0.0314 0.57115,-0.214842 0.67416,-0.536223 0.0335,-0.118181 0.12841,-0.33161 -0.0261,-0.548923 -0.0893,-0.127 -0.44873,-0.342194 -0.44873,-0.342194 0,0 0.27622,-0.382058 0.30233,-0.428625 0.0265,-0.04692 0.12806,-0.3429 0.13935,-0.414514 0.0113,-0.07161 0.0166,-0.107596 -0.0367,-0.04127 m -0.0942,1.622425 c -0.15276,0.126296 -0.47379,0.292454 -0.5641,0.300566 -0.0903,0.0088 -0.32984,-0.03528 -0.22577,-0.280458 0.0356,-0.07937 0.27516,-0.489302 0.27516,-0.489302 0.0893,0.04939 0.66746,0.343958 0.51471,0.469194 m -9.63754,-1.119011 c -0.0353,0.08643 -0.18345,0.384527 -0.16087,0.736952 0.005,0.08114 0.0589,0.239538 0.18168,0.243771 0.0628,-2.64e-4 0.14499,-0.04621 0.2032,-0.244829 0.01,-0.04515 0.0162,-0.08149 0.0205,-0.09913 0.006,-0.02681 -0.0138,-0.05891 -0.0342,0.0028 -0.0462,0.122063 -0.16687,0.207082 -0.25683,0.04375 -0.0144,-0.03247 -0.0755,-0.180633 0.0363,-0.504483 0.0222,-0.06244 0.0508,-0.156282 0.0508,-0.156282 0.025,-0.07055 -0.005,-0.10936 -0.0406,-0.02257 m -3.36303,0.326319 -0.16863,0.230716 -0.32279,-0.235301 c -0.008,-0.0063 -0.0198,-0.0042 -0.0257,0.0046 l -0.19508,0.267054 c -0.006,0.0088 -0.005,0.02045 0.003,0.02612 l 0.33302,0.243065 c 0.008,0.0056 0.0194,0.0035 0.0258,-0.0049 l 0.16827,-0.230717 0.32315,0.235657 c 0.008,0.0056 0.0198,0.0035 0.0257,-0.0049 l 0.19509,-0.267758 c 0.006,-0.0081 0.005,-0.01977 -0.004,-0.02574 l -0.33267,-0.242359 c -0.008,-0.0063 -0.0198,-0.0042 -0.0257,0.0046 m 1.16769,0.155223 c -0.0173,0.06138 -0.0822,0.370768 -0.0822,0.370768 0.0663,0.08396 0.36054,0.442738 0.28398,0.516467 -0.0765,0.07373 -0.76517,0.637823 -2.38478,0.734838 -0.18132,0.01058 -1.02305,-0.0085 -0.98178,-0.659696 0.006,-0.09737 0.0762,-0.409575 0.18309,-0.585259 0.0286,-0.06738 -0.0434,-0.109008 -0.0868,-0.03351 -0.043,0.07549 -0.5849,0.901346 -0.0452,1.462969 0.0462,0.05115 0.48789,0.492125 2.17381,0.0099 0.40041,-0.109361 0.97967,-0.341136 1.23085,-0.677686 0.0441,-0.05962 0.20108,-0.367593 0.0864,-0.663223 -0.0459,-0.116062 -0.24694,-0.411337 -0.28821,-0.470604 -0.0406,-0.05927 -0.0713,-0.06703 -0.0893,-0.0049 m 18.06363,1.199443 c -0.0314,0.08608 -0.043,0.14323 -0.0402,0.175684 0.004,0.03316 0.0145,0.140054 0.0145,0.140054 -0.0317,0.0254 -0.16827,0.110419 -0.30515,0.0099 0.009,-0.02893 0.0268,-0.08855 0.0307,-0.121356 0.0148,-0.05045 -0.0162,-0.08819 -0.0413,-0.03563 -0.0247,0.05256 -0.0829,0.227893 -0.12595,0.267404 -0.0434,0.03951 -0.0935,0.184504 -0.41945,0.0374 -0.0568,-0.02223 -0.15699,-0.09596 -0.31256,0.06032 -0.35278,0.327729 -0.59619,0.353483 -0.99131,0.493887 -0.048,0.02188 -0.14816,0.09737 -0.0293,0.08572 0.1196,-0.01236 0.62019,0 0.89288,-0.313267 0.0575,-0.05503 0.12242,-0.201083 0.33902,-0.116416 0.1203,0.04586 0.34185,0.235656 0.5835,-0.140404 0.14217,0.09489 0.35877,0.05715 0.39335,-0.04763 0.0346,-0.104423 0.0741,-0.208846 0.0737,-0.279755 -2.6e-4,-0.07161 -0.006,-0.1651 -0.006,-0.1651 -0.005,-0.05609 -0.025,-0.136525 -0.0561,-0.0508 m -18.21462,0.733073 c -0.0776,0.03528 -1.5561,0.745067 -1.63477,0.782815 -0.0744,0.03633 -0.0945,0.05644 -0.10548,0.110771 -0.0116,0.05327 -0.0169,0.08431 -0.0198,0.09313 -0.0127,0.03563 -0.0219,0.06738 0.0811,0.01341 0.0339,-0.01765 1.5367,-0.730956 1.59949,-0.764468 0.0607,-0.03211 0.0917,-0.05151 0.11536,-0.107598 0.0236,-0.05574 0.0293,-0.06526 0.0416,-0.104423 0.0134,-0.04092 0.0325,-0.07373 -0.0776,-0.02363 m 1.91135,0.02117 -0.16862,0.230717 -0.32315,-0.235657 c -0.008,-0.0056 -0.0194,-0.0032 -0.0257,0.0049 l -0.19509,0.267406 c -0.006,0.0085 -0.004,0.02011 0.004,0.02612 l 0.33267,0.242358 c 0.008,0.0063 0.0198,0.0042 0.0261,-0.0042 l 0.16793,-0.230717 0.32314,0.23495 c 0.008,0.0063 0.0198,0.0042 0.0257,-0.0042 l 0.19509,-0.267404 c 0.006,-0.0088 0.005,-0.02045 -0.004,-0.02611 l -0.33267,-0.243065 c -0.008,-0.0056 -0.0198,-0.0032 -0.0254,0.0049 m 3.08293,0.315735 c -0.0698,0.03528 -0.88547,0.343958 -0.95744,0.384529 -0.0727,0.04057 -0.0977,0.05009 -0.11254,0.103011 -0.0141,0.05327 -0.0222,0.08396 -0.0254,0.09207 -0.0145,0.03528 -0.0268,0.07902 0.0801,0.01871 0.0332,-0.01905 0.86183,-0.334079 0.92145,-0.367946 0.0593,-0.03422 0.0949,-0.04586 0.12171,-0.10019 0.0268,-0.05433 0.0335,-0.0635 0.0483,-0.101245 0.0162,-0.04057 0.0321,-0.08361 -0.0762,-0.02893"
       style="fill:#231f20;fill-opacity:1;fill-rule:evenodd;stroke:none;stroke-width:0.264583"
       id="path1-3" />
  </g>
</svg>
