<?xml version="1.0" encoding="UTF-8" standalone="no"?>
<!-- Created with Inkscape (http://www.inkscape.org/) -->

<svg
   width="18.654675mm"
   height="6.2086124mm"
   viewBox="0 0 18.654675 6.2086124"
   version="1.1"
   id="svg1"
   xmlns:inkscape="http://www.inkscape.org/namespaces/inkscape"
   xmlns:sodipodi="http://sodipodi.sourceforge.net/DTD/sodipodi-0.dtd"
   xmlns="http://www.w3.org/2000/svg"
   xmlns:svg="http://www.w3.org/2000/svg">
  <sodipodi:namedview
     id="namedview1"
     pagecolor="#ffffff"
     bordercolor="#666666"
     borderopacity="1.0"
     inkscape:showpageshadow="2"
     inkscape:pageopacity="0.0"
     inkscape:pagecheckerboard="0"
     inkscape:deskcolor="#d1d1d1"
     inkscape:document-units="mm" />
  <defs
     id="defs1" />
  <g
     inkscape:label="Layer 1"
     inkscape:groupmode="layer"
     id="layer1"
     transform="translate(-108.18058,-42.813693)">
    <path
       d="m 115.34235,42.955563 c -0.0656,0.09243 -0.12029,0.316794 -0.0346,0.384882 0.0861,0.06844 0.21378,0.125941 0.21378,0.125941 -0.20814,0.306211 -0.68862,0.753179 -0.92604,0.921809 -0.0589,0.04198 -0.0526,0.06738 -0.0159,0.05891 0.019,-0.0042 0.34819,-0.12206 0.69567,-0.446969 0.25753,-0.240241 0.34679,-0.492477 0.34679,-0.492477 0,0 0.0995,0.08925 0.11253,0.107244 0.0296,0.03951 0.0455,0.06879 0.0614,0.02893 0.06,-0.14746 -0.013,-0.240594 -0.084,-0.290335 0,0 0.0843,-0.229659 -0.0455,-0.468842 -0.0219,-0.03986 -0.15488,-0.17004 -0.32421,0.07091 m 0.21308,0.07267 c 0.0896,0.08996 0.0699,0.231069 0.0649,0.263877 0,0 -0.11642,-0.06032 -0.16863,-0.08537 -0.0522,-0.02469 -0.0787,-0.05927 -0.0529,-0.09208 0.0861,-0.111829 0.12629,-0.106185 0.15663,-0.08643 m 2.11349,-0.170746 c -0.0166,0.03916 -0.11218,0.30339 -0.11218,0.30339 0.0254,0.171802 0.25259,2.015067 0.2674,2.140654 0.0152,0.12559 0.33444,2.210154 0.35102,2.786946 -0.004,0.05891 0.0212,0.08043 0.048,0.024 0.0272,-0.05644 0.21308,-0.440971 -0.007,-1.851377 -0.0166,-0.117475 -0.35066,-2.500487 -0.35066,-2.500487 0,0 0.1972,0.185208 0.22895,0.219075 0.0318,0.03351 0.0699,0.01553 0.0522,-0.0381 -0.0187,-0.05398 -0.42227,-1.030817 -0.43533,-1.064684 -0.013,-0.03351 -0.0257,-0.05856 -0.042,-0.01939 m -1.00118,0 c -0.0162,0.03951 -0.14605,0.324909 -0.14605,0.324909 0.004,0.02328 0.0339,0.09349 0.055,0.237421 0.067,1.17757 0.5073,2.87161 0.35172,2.979206 -0.17709,0.136525 -0.57326,0.266348 -0.57326,0.266348 0,0 0.28187,-0.475544 0.15275,-0.765175 -0.30057,-0.488598 -0.88477,-0.379942 -1.03681,-0.306211 -0.35278,0.170392 -0.74154,0.504825 -1.05305,0.809271 0.0328,-0.249767 0.14006,-0.676627 -0.30127,-2.687106 -0.009,-0.02716 0.003,-0.03316 0.0187,-0.01871 0.0487,0.04551 0.14993,0.128765 0.18062,0.158044 0.0416,0.04022 0.14358,0.05609 0.003,-0.17921 -0.11043,-0.185209 -0.35455,-0.654757 -0.4057,-0.753534 -0.006,-0.01236 -0.0124,-0.0127 -0.0166,-0.0024 -0.0251,0.05997 -0.10971,0.261408 -0.11712,0.280458 -0.009,0.02188 0.0222,0.08396 0.0441,0.159102 0.0222,0.07585 0.26564,1.271765 0.31467,1.590675 0.0473,0.309385 0.17251,0.771877 0.12453,1.608312 -0.26317,0.27023 -0.44168,0.485423 -0.44168,0.485423 l -0.24906,0.03457 c -0.042,-0.108305 -0.10442,-0.2286 -0.19826,-0.354542 -0.21343,-0.287515 -0.47766,-0.426157 -0.77188,-0.146757 -0.29421,0.280107 -0.30056,0.773994 0.0758,0.929217 0.121,0.03739 0.32879,0.06844 0.62301,0.01447 0.0607,-0.01236 0.25506,-0.03316 0.15769,0.09948 -0.097,0.132644 -0.91687,0.996244 -1.80763,1.011767 -0.11289,0.0021 -0.91052,-0.06844 -0.68722,-0.84455 0.0116,-0.08255 0.0744,-0.2794 0.0981,-0.370771 0.0236,-0.09102 -0.0564,-0.162629 -0.12806,0.0628 -0.0713,0.225425 -0.42263,1.13312 0.16087,1.458029 0.0967,0.05362 0.90628,0.377473 2.22355,-0.744713 0.25224,-0.215548 0.32632,-0.630414 0.32632,-0.630414 0.004,-0.02574 0.006,-0.06385 0.005,-0.111477 0.43392,-0.04692 2.42852,-0.280459 2.91359,-0.537988 0.16792,-0.08819 0.57115,-0.31115 0.58385,-0.89041 0.006,-0.281517 -0.29845,-2.289879 -0.29845,-2.289879 0,0 0.15169,0.151693 0.18344,0.185208 0.0314,0.03351 0.0702,0.01553 0.0519,-0.03845 -0.018,-0.05398 -0.36089,-0.969079 -0.37394,-1.002946 -0.0131,-0.03351 -0.0261,-0.05856 -0.0423,-0.01939 m -0.508,3.236384 c 0.20179,0.185208 0.1263,0.268816 0.0423,0.34925 -0.3362,0.356306 -1.95757,0.545748 -2.10891,0.56656 0,0 0.69039,-0.692854 1.19027,-0.961671 0.31503,-0.151341 0.67487,-0.138641 0.8763,0.04586 m -2.92558,1.021998 c 0,0 -0.12418,0.07091 -0.40746,0.0046 -0.28399,-0.06632 -0.16933,-0.167923 -0.11254,-0.213783 0.0564,-0.04551 0.37218,-0.151342 0.52,0.209198 m 5.85964,-4.058002 c -0.0706,0.106537 -0.12277,0.362302 -0.0226,0.434975 0.10019,0.07373 0.24624,0.132995 0.24624,0.132995 -0.46567,0.570797 -0.78423,0.680157 -1.05693,0.839259 -0.0699,0.04127 -0.0561,0.07832 -0.0152,0.06738 0.0212,-0.0056 0.38806,-0.06279 0.81598,-0.388056 0.23142,-0.175684 0.37183,-0.47625 0.37183,-0.47625 0,0 0.11571,0.09666 0.13158,0.116416 0.0349,0.04375 0.054,0.07585 0.0706,0.02963 0.061,-0.168979 -0.0251,-0.270579 -0.10725,-0.323144 0,0 0.0854,-0.263525 -0.0716,-0.527756 -0.0265,-0.0441 -0.18203,-0.185209 -0.36266,0.09455 m 0.24307,0.07232 c 0.10513,0.09772 0.0893,0.257882 0.085,0.294569 0,0 -0.13406,-0.06279 -0.19403,-0.08854 -0.06,-0.0254 -0.0914,-0.06385 -0.0635,-0.1016 0.0924,-0.129824 0.13758,-0.12559 0.17251,-0.104424 m -8.17951,-0.168275 c -0.17427,0.221544 -0.1852,0.512586 -0.20849,0.837142 -0.0247,-0.06773 -0.16369,-0.503415 -0.60854,-0.752123 -0.0321,-0.01871 -0.0977,0.01588 -0.10407,0.118533 -0.004,0.05997 -0.0205,0.204613 0.0215,0.245888 0.0406,0.03916 0.34114,0.144992 0.17815,0.317146 -0.073,0.07761 -0.43885,0.457554 -0.51752,0.549275 -0.079,0.09208 -0.0864,0.109008 -0.002,0.06209 0.0847,-0.04692 0.57186,-0.236008 0.65264,-0.719666 0.006,-0.0635 -0.006,-0.110773 -0.0212,-0.142875 0.007,0.0019 0.0138,0.006 0.0215,0.01376 0.0339,0.03457 0.25294,0.2159 0.36689,0.600075 0.0198,0.0508 0.0667,0.05574 0.078,-0.01659 0.0261,-0.177446 0.0406,-0.486479 0.0543,-0.579967 0.0201,-0.131233 0.0825,-0.402518 0.24941,-0.26176 0.0381,0.03175 0.078,0.07443 0.078,0.07443 0.0353,0.04445 0.0797,0.0949 0.10125,0.04375 0.0328,-0.07761 0.0593,-0.206375 0.0233,-0.275873 -0.0159,-0.03069 -0.22225,-0.2921 -0.36301,-0.113241 m 4.77943,1.125008 c -0.0233,0.07338 -0.0413,0.130527 -0.009,0.21449 0.0318,0.08431 0.11818,0.275166 0.13265,0.302328 0.0141,0.02752 0.0176,0.05821 -0.0296,0.07832 -0.0473,0.02045 -0.26423,0.06632 -0.30445,-0.164745 -0.0406,-0.231423 -0.0437,-0.298805 -0.0639,-0.337609 -0.0201,-0.03916 -0.0392,-0.04375 -0.0547,-0.0049 -0.0155,0.03916 -0.0251,0.119591 -0.0272,0.132643 -0.002,0.01304 -0.002,0.02257 0.006,0.03669 0.008,0.0141 0.0949,0.272698 0.0561,0.343958 -0.0392,0.07126 -0.23354,0.198967 -0.33549,0.06526 -0.0487,-0.09384 -0.019,-0.330903 -0.019,-0.386643 0,-0.05539 -0.0177,-0.07479 -0.0413,-0.02963 -0.0236,0.04516 -0.037,0.07444 -0.0356,0.115007 0.001,0.04022 0.007,0.213783 0.004,0.267758 -0.004,0.05468 0,0.231421 0.10371,0.281162 0.10442,0.04939 0.25612,0.0035 0.37112,-0.213428 0.0889,0.129116 0.22367,0.129468 0.29598,0.10301 0.0614,-0.02222 0.13053,-0.115007 0.15064,-0.24271 0.0201,-0.128411 -0.013,-0.2159 -0.0536,-0.288574 -0.0529,-0.08855 -0.0885,-0.23777 -0.0885,-0.23777 -0.0191,-0.05327 -0.0332,-0.10795 -0.0572,-0.03457 m 9.67881,-0.933802 c -0.0699,0.106537 -0.12206,0.363008 -0.0219,0.435679 0.0998,0.07338 0.24624,0.132646 0.24624,0.132646 -0.46602,0.570794 -1.38042,0.977194 -1.59808,1.147231 -0.0649,0.04904 -0.0561,0.07761 -0.0155,0.06667 0.0367,-0.0095 0.73378,-0.204611 1.37055,-0.750711 0.2921,-0.25047 0.28398,-0.269168 0.35842,-0.420862 0.0632,0.03281 0.10689,0.08573 0.13158,0.116062 0.0349,0.04375 0.0543,0.07585 0.0709,0.02999 0.0607,-0.168981 -0.0254,-0.270933 -0.10759,-0.323498 0,0 0.0857,-0.263173 -0.0716,-0.52705 -0.0261,-0.0441 -0.18203,-0.18556 -0.36301,0.09384 m 0.24377,0.07267 c 0.10513,0.09772 0.0893,0.257881 0.0847,0.294571 0,0 -0.13405,-0.0628 -0.19403,-0.08855 -0.06,-0.02574 -0.091,-0.0635 -0.0631,-0.1016 0.0917,-0.129823 0.13724,-0.125236 0.17251,-0.104423 m -13.02279,-0.17145 c -0.06,0.132998 -0.30162,0.587023 -0.31644,1.145116 -0.003,0.128765 0.0501,0.384882 0.21766,0.405696 0.0864,0.0063 0.20497,-0.05645 0.3101,-0.364421 0.0198,-0.06985 0.0332,-0.125942 0.0409,-0.153458 0.012,-0.04163 -0.0113,-0.09419 -0.0473,7.94e-4 -0.079,0.186973 -0.25506,0.307975 -0.35737,0.03986 -0.0159,-0.05256 -0.0801,-0.293513 0.11501,-0.791633 0.0388,-0.09631 0.09,-0.2413 0.09,-0.2413 0.0437,-0.108305 0.007,-0.172863 -0.0526,-0.04057 m 9.43398,-0.0049 c -0.0674,0.03951 -1.78787,1.032227 -1.85737,1.077383 -0.0699,0.0448 -0.0945,0.05644 -0.10548,0.110067 -0.0113,0.05362 -0.0169,0.08467 -0.0201,0.09313 -0.0123,0.03634 -0.0215,0.08079 0.0811,0.01376 0.0321,-0.02117 1.76212,-1.02094 1.8228,-1.058688 0.0579,-0.03598 0.0917,-0.05186 0.11536,-0.107596 0.0229,-0.05539 0.0289,-0.06562 0.0413,-0.104423 0.0134,-0.04128 0.0268,-0.08467 -0.0776,-0.02363 m 1.63231,0.148167 c -0.18309,0.232833 -0.19473,0.539043 -0.21908,0.880178 -0.0257,-0.07161 -0.1718,-0.528812 -0.63958,-0.790926 -0.0339,-0.01905 -0.10301,0.01693 -0.10936,0.124531 -0.004,0.06279 -0.0215,0.215194 0.0226,0.258585 0.0441,0.04339 0.17427,0.128059 0.19649,0.140052 0.0219,0.01199 0.0455,0.01376 0.0522,-0.0127 0.006,-0.02574 0.0363,-0.08678 0.0787,-0.04304 0.0356,0.03598 0.26565,0.226483 0.38559,0.63006 0.0204,0.05398 0.0702,0.05927 0.0818,-0.01728 0.0275,-0.186621 0.0427,-0.510823 0.0575,-0.609248 0.0208,-0.13829 0.0868,-0.423333 0.26211,-0.275519 0.0395,0.03387 0.0819,0.07832 0.0819,0.07832 0.0374,0.04692 0.084,0.100187 0.10653,0.04621 0.0346,-0.08149 0.0621,-0.216958 0.0244,-0.289983 -0.0166,-0.03245 -0.23354,-0.307269 -0.38171,-0.119237 m -1.30175,1.2065 c -0.0346,0.08467 -0.17886,0.375353 -0.15699,0.717902 0.005,0.07937 0.0579,0.233537 0.17675,0.237418 0.0617,0 0.14146,-0.0448 0.1979,-0.238477 0.01,-0.04375 0.0162,-0.07902 0.0201,-0.09596 0.006,-0.02646 -0.0134,-0.0575 -0.0335,0.0024 -0.0448,0.118533 -0.16193,0.201438 -0.24942,0.04233 -0.0145,-0.0314 -0.0737,-0.175683 0.0349,-0.490712 0.0219,-0.06103 0.0494,-0.1524 0.0494,-0.1524 0.0247,-0.06879 -0.005,-0.10654 -0.0392,-0.02257 m -11.31111,0.148871 c -0.013,0.0448 -0.0459,0.239889 -0.0536,0.279752 -0.008,0.03986 -0.007,0.07973 0.0127,0.113948 0.0194,0.03422 0.0705,0.152752 0.10689,0.24906 0.0363,0.09631 0.41416,0.82409 0.44908,0.888648 0.0349,0.06456 0.0423,0.112535 0.007,0.155223 -1.21285,1.279525 -3.51402,1.913112 -3.58881,1.956504 -0.0748,0.04339 -0.055,0.07726 0.0709,0.05539 0.18838,-0.03316 1.43969,-0.251884 1.7392,-0.396171 0.30021,-0.144992 1.49225,-0.652286 1.90217,-1.42875 0.0476,-0.123119 0.13053,-0.401813 -0.0191,-0.752121 -0.0787,-0.153813 -0.32632,-0.585965 -0.32632,-0.585965 0,0 0.18239,0.0053 0.19968,0.0053 0.0176,-2.65e-4 0.0519,-0.01834 0.007,-0.06914 -0.0441,-0.05151 -0.42721,-0.433564 -0.45049,-0.464256 -0.0229,-0.03104 -0.0441,-0.05292 -0.0572,-0.0074 m 14.6184,0.02506 c -0.0318,0.07761 -0.16545,0.346779 -0.14534,0.663927 0.005,0.07303 0.0536,0.216252 0.16369,0.219781 0.0571,0 0.13088,-0.04163 0.18344,-0.22084 0.009,-0.04057 0.0148,-0.07302 0.0183,-0.0889 0.006,-0.02434 -0.0124,-0.05292 -0.0307,0.0024 -0.042,0.110066 -0.15028,0.186621 -0.23142,0.03951 -0.013,-0.02963 -0.0681,-0.162983 0.0325,-0.454731 0.0204,-0.05644 0.0459,-0.140758 0.0459,-0.140758 0.0229,-0.0642 -0.005,-0.09913 -0.0363,-0.02045 m -6.20642,0.0081 -0.16863,0.230714 -0.32279,-0.235654 c -0.008,-0.0056 -0.0198,-0.0035 -0.0261,0.0049 l -0.19474,0.267404 c -0.006,0.0088 -0.005,0.02045 0.003,0.02611 l 0.33267,0.24271 c 0.008,0.0056 0.0201,0.0035 0.0261,-0.0046 l 0.16827,-0.231071 0.32315,0.235656 c 0.008,0.0056 0.0194,0.0035 0.0254,-0.0046 l 0.19543,-0.267758 c 0.006,-0.0081 0.005,-0.02011 -0.004,-0.02574 l -0.33266,-0.243062 c -0.008,-0.0056 -0.0198,-0.0035 -0.0258,0.0049 m -9.5063,0.119944 c -0.0455,0.156279 -0.24271,0.695325 -0.17286,1.314095 0.0162,0.142875 0.11465,0.41769 0.30268,0.414163 0.097,-0.0053 0.21802,-0.09313 0.28716,-0.449791 0.0106,-0.07973 0.0166,-0.143934 0.0215,-0.175684 0.007,-0.04798 -0.0268,-0.102658 -0.0522,0.0078 -0.0589,0.219075 -0.23459,0.379589 -0.38911,0.09913 -0.0257,-0.05539 -0.13335,-0.311505 0.005,-0.892175 0.0279,-0.11289 0.0624,-0.280458 0.0624,-0.280458 0.0311,-0.127 -0.019,-0.192969 -0.0649,-0.03704 m 2.86209,0.20955 c -0.0346,0.08502 -0.18027,0.378529 -0.1584,0.724604 0.006,0.08008 0.0582,0.236363 0.17851,0.23989 0.0628,0 0.14322,-0.04516 0.20002,-0.240949 0.0102,-0.04409 0.0162,-0.07973 0.0205,-0.09701 0.006,-0.02646 -0.0134,-0.05786 -0.0335,0.0028 -0.0459,0.119947 -0.16404,0.203555 -0.25294,0.04269 -0.0141,-0.03175 -0.0741,-0.177448 0.0356,-0.496006 0.0222,-0.06173 0.0504,-0.15381 0.0504,-0.15381 0.0243,-0.0695 -0.005,-0.107599 -0.0402,-0.02222 m 7.94738,0.08678 c -0.0131,0.04515 -0.0455,0.239535 -0.0536,0.279752 -0.008,0.03986 -0.007,0.07973 0.0127,0.113948 0.0198,0.03422 0.0706,0.152752 0.1069,0.24906 0.0367,0.09631 0.41451,0.824442 0.44908,0.888648 0.0349,0.06456 0.0423,0.112535 0.007,0.155221 -1.21285,1.279525 -3.55282,2.066573 -3.62797,2.109613 -0.0748,0.04374 -0.0547,0.07761 0.0713,0.05574 0.18838,-0.03316 1.2393,-0.209196 1.53916,-0.353484 0.19756,-0.09525 0.88795,-0.433916 1.45239,-0.876652 -0.0155,0.1143 -0.0303,0.282224 -0.0222,0.495652 0.0381,1.029055 0.95815,0.858309 1.1998,0.805392 0.72355,-0.15875 1.60832,-1.158875 1.68381,-1.36031 0.0741,-0.19826 0.085,-0.37959 0.0684,-0.537634 0.1905,-0.10301 0.59972,-0.43321 0.59972,-0.43321 0.0169,0.438854 0.36583,0.570794 0.47343,0.589492 0.50341,0.07655 0.756,-0.344313 0.86325,-0.480483 0.0914,0.240593 0.3122,0.286808 0.42545,0.309737 0.43427,0.08608 0.51893,-0.220837 0.54151,-0.291042 0.13617,-0.423685 -0.10901,-0.739775 -0.14041,-0.7747 -0.0318,-0.03457 -0.048,-0.0013 -0.0589,0.03916 -0.0113,0.04057 -0.0462,0.193675 -0.0681,0.288925 0,0 0.0907,0.148167 0.12313,0.223663 0.0324,0.07549 -0.0159,0.116417 -0.10972,0.127704 -0.26423,0.03281 -0.47448,-0.119237 -0.54751,-0.188735 -0.0723,-0.0702 0.006,-0.193675 0.0646,-0.341135 0.0469,-0.118182 -0.0399,-0.132292 -0.10654,-2.65e-4 -0.22402,0.588788 -0.53869,0.652288 -0.62159,0.674865 -0.74613,0.2032 -0.68193,-0.478719 -0.6791,-0.590198 0.002,-0.111829 -0.079,-0.07091 -0.1711,0.0032 -0.31362,0.251883 -0.56691,0.40005 -0.70273,0.460729 -0.11712,-0.229306 -0.28716,-0.372888 -0.35913,-0.424746 -0.80751,-0.588785 -0.87383,0.599017 -0.84949,0.726371 0.12277,0.505177 0.94756,0.199319 1.07703,0.18415 0.12947,-0.01516 0.0875,0.155221 0.0145,0.256469 -0.17886,0.250473 -0.38558,0.430035 -0.57291,0.582789 -0.79939,0.652286 -1.20085,0.601134 -1.32433,0.5969 -0.78528,-0.02222 -0.71331,-0.868539 -0.66957,-1.049162 0.23636,-0.200377 0.43921,-0.418042 0.55739,-0.642054 0.048,-0.122415 0.13053,-0.401463 -0.019,-0.751417 -0.0787,-0.153813 -0.32632,-0.586316 -0.32632,-0.586316 0,0 0.18274,0.0056 0.20003,0.0053 0.0173,0 0.0519,-0.01834 0.007,-0.06915 -0.0444,-0.05115 -0.42756,-0.433562 -0.45085,-0.464254 -0.0229,-0.03069 -0.0444,-0.05292 -0.0571,-0.0074 m 2.42218,1.752245 c 0,0 -0.11007,0.06315 -0.41734,0.04304 -0.25788,-0.01765 -0.23566,-0.118181 -0.20038,-0.156633 0.0385,-0.04127 0.35384,-0.240242 0.61772,0.113593 m -3.31647,-1.424516 c -0.0536,0.06597 -0.58949,0.769763 -0.58949,0.769763 l -0.39017,-0.278342 c 0,0 0.15875,-0.03951 0.18626,-0.04762 0.0282,-0.0081 0.0438,-0.0441 -0.006,-0.06985 -0.0497,-0.0254 -0.51999,-0.21308 -0.55562,-0.227542 -0.036,-0.01447 -0.049,-0.03069 -0.0519,0.0074 -0.003,0.03775 -0.009,0.347837 -0.009,0.347837 0,0 -0.007,0.02151 0.0339,0.0448 0.0413,0.02328 0.0815,0.07303 0.11536,0.106892 0.0335,0.03351 0.47095,0.378529 0.49212,0.390525 0,0 -0.21872,0.384879 -0.24695,0.6858 -0.0275,0.300566 0.006,0.716137 0.41699,0.582083 0.11077,-0.03175 0.57115,-0.21449 0.67451,-0.535871 0.0332,-0.118179 0.12806,-0.332317 -0.0265,-0.54892 -0.0889,-0.127355 -0.44838,-0.3429 -0.44838,-0.3429 0,0 0.27587,-0.381707 0.30233,-0.428625 0.0265,-0.04657 0.12771,-0.342549 0.139,-0.414163 0.0113,-0.07197 0.0169,-0.107596 -0.0363,-0.04127 m -0.0946,1.622425 c -0.15275,0.125941 -0.47377,0.2921 -0.56409,0.300921 -0.0903,0.0085 -0.32984,-0.03528 -0.22542,-0.280813 0.0356,-0.07937 0.27481,-0.48895 0.27481,-0.48895 0.0896,0.04939 0.66746,0.343254 0.5147,0.468842 m -2.86102,0.367241 c -0.0349,0.08502 -0.18062,0.378884 -0.1584,0.724959 0.005,0.07973 0.0582,0.236008 0.17851,0.239889 0.0624,-2.64e-4 0.14287,-0.04516 0.20002,-0.240948 0.01,-0.04409 0.0162,-0.07973 0.0201,-0.09737 0.006,-0.02646 -0.0134,-0.05785 -0.0335,0.0028 -0.0455,0.119943 -0.16404,0.203906 -0.25259,0.04304 -0.0145,-0.0321 -0.0741,-0.1778 0.0356,-0.496006 0.0219,-0.06209 0.0501,-0.15381 0.0501,-0.15381 0.0247,-0.06985 -0.005,-0.107598 -0.0399,-0.02257 m 9.09179,0.195088 c -0.0311,0.08643 -0.0434,0.142875 -0.0402,0.175683 0.004,0.03281 0.0148,0.139345 0.0148,0.139345 -0.0321,0.02611 -0.16863,0.111125 -0.30551,0.01058 0.009,-0.02928 0.0268,-0.0889 0.031,-0.121709 0.0145,-0.05044 -0.0166,-0.08819 -0.0416,-0.03563 -0.0251,0.05256 -0.0829,0.228245 -0.12594,0.267758 -0.043,0.03916 -0.0931,0.184502 -0.41946,0.03704 -0.0568,-0.02223 -0.15698,-0.09631 -0.31256,0.05997 -0.35242,0.328083 -0.59619,0.353838 -0.9913,0.494242 -0.048,0.02188 -0.14852,0.09737 -0.0289,0.08537 0.11889,-0.01164 0.61983,2.64e-4 0.89253,-0.312915 0.0572,-0.05503 0.12241,-0.201435 0.33902,-0.116768 0.12029,0.04586 0.34149,0.236008 0.58349,-0.140052 0.14217,0.0949 0.35913,0.05715 0.39335,-0.04762 0.0346,-0.104423 0.0741,-0.208847 0.0741,-0.279755 -7.9e-4,-0.07126 -0.006,-0.1651 -0.006,-0.1651 -0.005,-0.05609 -0.025,-0.136525 -0.0564,-0.05044 m -10.96363,0.06562 c -0.15381,0.211667 -0.16334,0.490361 -0.18345,0.800452 -0.0215,-0.06526 -0.14428,-0.48119 -0.53692,-0.720018 -0.0286,-0.01765 -0.0861,0.01553 -0.0914,0.113241 -0.004,0.05715 -0.0183,0.196144 0.0187,0.235302 0.0374,0.03916 0.14675,0.116769 0.1651,0.127352 0.0183,0.0113 0.0381,0.01304 0.0437,-0.0113 0.006,-0.02328 0.0303,-0.07867 0.066,-0.03951 0.03,0.03351 0.22296,0.206729 0.32385,0.574675 0.0173,0.04833 0.0589,0.05327 0.0688,-0.01588 0.0229,-0.170038 0.0353,-0.465313 0.0476,-0.554567 0.0173,-0.125942 0.0727,-0.385585 0.21978,-0.250825 0.0332,0.03069 0.0688,0.07126 0.0688,0.07126 0.031,0.04268 0.0702,0.09172 0.0893,0.04198 0.0289,-0.07408 0.0519,-0.197554 0.0201,-0.263877 -0.0138,-0.02963 -0.19614,-0.2794 -0.31997,-0.108302 m -4.90149,0.56656 c -0.0699,0.03457 -1.24108,0.482952 -1.31304,0.523523 -0.0727,0.04022 -0.0981,0.0508 -0.11254,0.103362 -0.0145,0.05292 -0.0222,0.08361 -0.0257,0.09208 -0.0148,0.03493 -0.0265,0.07867 0.0801,0.01871 0.0332,-0.01905 1.21778,-0.473427 1.27776,-0.507648 0.0593,-0.03422 0.0945,-0.04586 0.12171,-0.09983 0.0268,-0.05398 0.0332,-0.06421 0.048,-0.101952 0.0159,-0.03986 0.0321,-0.0829 -0.0762,-0.02822"
       style="fill:#231f20;fill-opacity:1;fill-rule:evenodd;stroke:none;stroke-width:0.264583"
       id="path1" />
  </g>
</svg>
