<?xml version="1.0" encoding="UTF-8" standalone="no"?>
<!-- Created with Inkscape (http://www.inkscape.org/) -->

<svg
   width="19.470331mm"
   height="6.1615105mm"
   viewBox="0 0 19.470331 6.1615105"
   version="1.1"
   id="svg1"
   xmlns:inkscape="http://www.inkscape.org/namespaces/inkscape"
   xmlns:sodipodi="http://sodipodi.sourceforge.net/DTD/sodipodi-0.dtd"
   xmlns="http://www.w3.org/2000/svg"
   xmlns:svg="http://www.w3.org/2000/svg">
  <sodipodi:namedview
     id="namedview1"
     pagecolor="#ffffff"
     bordercolor="#666666"
     borderopacity="1.0"
     inkscape:showpageshadow="2"
     inkscape:pageopacity="0.0"
     inkscape:pagecheckerboard="0"
     inkscape:deskcolor="#d1d1d1"
     inkscape:document-units="mm" />
  <defs
     id="defs1" />
  <g
     inkscape:label="Layer 1"
     inkscape:groupmode="layer"
     id="layer1"
     transform="translate(-123.9093,-59.983278)">
    <path
       d="m 135.63565,60.152139 c -0.0702,0.106537 -0.12207,0.362654 -0.0219,0.435679 0.0998,0.07338 0.24624,0.132646 0.24624,0.132646 -0.46567,0.570794 -0.78423,0.679802 -1.05693,0.839258 -0.0702,0.04127 -0.0564,0.07796 -0.0152,0.06703 0.0212,-0.0056 0.38806,-0.06279 0.81598,-0.388056 0.23142,-0.175683 0.37147,-0.475896 0.37147,-0.475896 0,0 0.11571,0.09666 0.13159,0.116063 0.0353,0.04375 0.0547,0.0762 0.0709,0.02999 0.0607,-0.168981 -0.0254,-0.270581 -0.1076,-0.323498 0,0 0.0854,-0.263173 -0.0716,-0.52705 -0.0261,-0.0441 -0.18204,-0.18556 -0.36301,0.09384 m 0.24377,0.07267 c 0.10512,0.09772 0.0889,0.257881 0.085,0.294571 0,0 -0.13405,-0.0628 -0.19437,-0.08855 -0.06,-0.02574 -0.091,-0.0635 -0.0635,-0.1016 0.0924,-0.129823 0.13758,-0.12559 0.17286,-0.104423 m -1.73567,-0.205317 c -0.0162,0.03916 -0.11218,0.30339 -0.11218,0.30339 0.0257,0.17145 0.25259,2.01436 0.26775,2.13995 0.0152,0.125941 0.33444,2.210151 0.35137,2.786943 -0.005,0.05891 0.0208,0.08079 0.0476,0.024 0.0268,-0.05644 0.21307,-0.440973 -0.007,-1.851025 -0.0166,-0.117475 -0.35066,-2.500135 -0.35066,-2.500135 0,0 0.1972,0.185208 0.22895,0.21872 0.0318,0.03352 0.0699,0.01588 0.0519,-0.0381 -0.018,-0.05398 -0.42193,-1.030462 -0.43498,-1.064329 -0.013,-0.03387 -0.0261,-0.05856 -0.0423,-0.01939 m -1.13524,0 c -0.0162,0.03916 -0.14605,0.324557 -0.14605,0.324557 0.004,0.02328 0.0342,0.09384 0.055,0.237773 0.0325,0.221895 0.41205,2.807758 0.42616,2.917825 0.0219,0.170037 0.0589,0.540454 0.0547,0.625475 -0.005,0.08467 0.031,0.185208 -0.14817,0.251529 -0.17921,0.06667 -0.65793,0.117475 -0.76023,-0.347134 -0.0116,-0.05221 -0.007,-0.04057 -0.001,-0.06667 0.006,-0.02646 -0.0169,-0.12206 -0.0878,-0.04163 -0.0713,0.08008 -0.36266,0.753534 -1.18745,0.645936 -0.10195,-0.01342 -0.32067,-0.0762 -0.36124,-0.403577 0.31467,-0.01659 0.55351,0.01939 0.55351,0.01939 l 0.17594,-0.376071 c 0,0 -0.98283,-0.01588 -1.70003,-0.23495 -0.18415,-0.05503 -0.73625,-0.23495 -0.84984,-0.293865 -0.0667,-0.03528 -0.12559,-0.03528 -0.24659,-0.0078 -0.12171,0.02716 -0.59549,0.136877 -0.61878,0.18415 -0.024,0.04692 -0.17638,0.356306 -0.12558,0.364067 0.0508,0.0078 0.76764,-0.01164 0.8068,-0.01164 0.0395,0 0.0667,-0.0039 0.0744,-0.02363 0.008,-0.01939 0.0353,-0.07832 0.0353,-0.07832 0.27799,0.03916 0.96344,0.3175 0.96344,0.3175 -0.12383,0.04727 -0.74472,0.433917 -1.40829,0.439912 -0.32103,0.0028 -0.65229,-0.109712 -0.94192,-0.342194 -0.0811,-0.06526 -0.0981,-0.07056 -0.1277,-0.0381 -0.0296,0.0321 -0.0635,0.06174 -0.0635,0.06174 -0.1397,-0.02469 -0.61031,-0.08079 -1.1871,0.330906 -0.59619,0.448027 -0.94933,0.879475 -1.15112,1.04775 -0.20178,0.167923 -0.65087,0.529167 -0.94085,0.0949 -0.0868,-0.130175 -0.15981,-0.499533 0.40181,-1.358196 0.007,0.0011 0.0152,0.0021 0.0229,0.0024 0.0914,-0.0021 0.20779,-0.08043 0.28504,-0.41275 0.013,-0.07514 0.0208,-0.134763 0.0265,-0.164396 0.008,-0.04445 -0.0219,-0.09737 -0.049,0.0056 -0.0632,0.203552 -0.2339,0.348191 -0.36901,0.07973 -0.0222,-0.05327 -0.11501,-0.297744 0.0356,-0.8382 0.03,-0.104775 0.0681,-0.261057 0.0681,-0.261057 0.0339,-0.118179 -0.0109,-0.181327 -0.0593,-0.03669 -0.0483,0.144637 -0.25188,0.644525 -0.20779,1.227667 0.008,0.102304 0.0572,0.276577 0.15734,0.35701 -0.0843,0.12206 -0.4385,0.637823 -0.496,1.120068 -0.0385,0.321734 0.0589,0.697442 0.44697,0.79375 0.16827,0.04233 0.53304,0.0013 0.9973,-0.50941 0.21026,-0.231775 1.28799,-1.350081 2.00484,-1.063977 0.0303,0.200377 0.0787,0.521759 0.31785,0.662869 0.13688,0.08855 0.22119,0.123118 0.25788,0.13194 0.036,0.0092 0.13194,0.01376 0.13652,-0.10019 0.005,-0.113594 0.0251,-0.391935 0.0251,-0.391935 0.18133,0.04163 0.96273,0.09983 1.76918,-0.423334 0.25541,-0.165454 0.56656,-0.237066 0.84138,-0.264583 -0.005,0.178504 -0.13653,0.805744 0.68509,0.805037 0.15522,0 0.56268,-0.10936 0.93204,-0.613127 0.0843,0.172157 0.34219,0.694973 1.01247,0.323498 0.0942,-0.05221 0.29739,-0.256823 0.26882,-0.80645 -0.0148,-0.290689 -0.40675,-2.960158 -0.40675,-2.960158 0,0 0.1972,0.185208 0.2286,0.218721 0.0321,0.03351 0.0705,0.01588 0.0526,-0.0381 -0.0183,-0.05398 -0.42227,-1.030463 -0.43533,-1.063977 -0.013,-0.03422 -0.0261,-0.05891 -0.0423,-0.01976 m 9.14964,0.228248 c -0.0702,0.106892 -0.12206,0.362657 -0.0222,0.435682 0.0998,0.07338 0.24659,0.132643 0.24659,0.132643 -0.46637,0.570794 -1.38077,0.976842 -1.59844,1.146527 -0.0646,0.04904 -0.0561,0.07796 -0.0152,0.06703 0.0363,-0.0099 0.73308,-0.204613 1.37019,-0.750359 0.2921,-0.250121 0.28469,-0.269171 0.35878,-0.420864 0.0631,0.03281 0.10653,0.08537 0.13158,0.116064 0.0349,0.04374 0.0543,0.0762 0.0706,0.02999 0.061,-0.168982 -0.0251,-0.270582 -0.1076,-0.323144 0,0 0.0857,-0.263525 -0.0716,-0.527404 -0.0257,-0.0441 -0.18204,-0.185561 -0.36266,0.09384 m 0.24342,0.07267 c 0.10513,0.09772 0.0889,0.257879 0.085,0.294569 0,0 -0.1337,-0.06279 -0.19403,-0.08855 -0.0596,-0.02574 -0.0914,-0.0635 -0.0639,-0.1016 0.0928,-0.129821 0.13829,-0.125587 0.17286,-0.104421 m -1.78823,-0.165454 c -0.18345,0.232833 -0.19474,0.538692 -0.21908,0.879829 -0.0257,-0.07161 -0.17215,-0.528814 -0.63958,-0.790575 -0.0339,-0.01939 -0.10337,0.01693 -0.10937,0.124529 -0.004,0.0628 -0.0219,0.215196 0.0222,0.258588 0.0441,0.04304 0.17462,0.127704 0.19685,0.1397 0.0215,0.01199 0.0455,0.01376 0.0519,-0.0127 0.007,-0.02574 0.0367,-0.08643 0.0787,-0.04304 0.0356,0.03598 0.26599,0.226484 0.38594,0.630415 0.0205,0.05362 0.0702,0.05856 0.0818,-0.01693 0.0275,-0.186973 0.0423,-0.51153 0.0572,-0.6096 0.0212,-0.138642 0.0868,-0.423688 0.26211,-0.275521 0.0399,0.03387 0.0822,0.07796 0.0822,0.07796 0.037,0.04692 0.0836,0.10019 0.10654,0.04622 0.0342,-0.08149 0.0617,-0.216958 0.024,-0.289983 -0.0162,-0.03246 -0.23319,-0.307271 -0.38135,-0.118888 m -1.80058,-0.01093 c -0.0674,0.03951 -1.78752,1.032227 -1.85702,1.077383 -0.0699,0.0448 -0.0945,0.05609 -0.10548,0.110067 -0.0113,0.05362 -0.0169,0.08467 -0.0201,0.09349 -0.0124,0.03598 -0.0212,0.08008 0.0811,0.01304 0.0321,-0.02082 1.76212,-1.020233 1.82245,-1.058333 0.0582,-0.03634 0.0917,-0.05186 0.11536,-0.107599 0.0233,-0.05574 0.0293,-0.06562 0.0416,-0.104423 0.0134,-0.04092 0.0265,-0.08467 -0.078,-0.02363 m -6.6294,0.09278 c -0.0825,0.04233 -3.78883,1.729317 -3.8795,1.783292 -0.0847,0.05045 -0.10548,0.07761 -0.11253,0.142521 -0.007,0.06456 -0.0106,0.101954 -0.013,0.112537 -0.0106,0.04374 -0.0268,0.08255 0.0974,0.0064 0.0603,-0.03669 3.75532,-1.702506 3.84069,-1.757187 0.0684,-0.0441 0.10266,-0.07161 0.12418,-0.140052 0.0212,-0.06844 0.0275,-0.08079 0.0377,-0.128059 0.0109,-0.05045 0.0286,-0.08255 -0.0949,-0.01939 m -6.47034,0.295707 c -0.17463,0.221191 -0.18556,0.512585 -0.2085,0.836789 -0.0247,-0.06773 -0.16368,-0.503062 -0.60854,-0.752123 -0.0324,-0.01834 -0.0981,0.01622 -0.10407,0.118534 -0.004,0.05997 -0.0208,0.20461 0.0212,0.245885 0.0406,0.03951 0.34114,0.145346 0.17815,0.317854 -0.073,0.0769 -0.43885,0.4572 -0.51752,0.548921 -0.0787,0.09172 -0.0861,0.108656 -0.002,0.06209 0.0847,-0.04727 0.57186,-0.236361 0.65264,-0.720019 0.006,-0.06315 -0.006,-0.110773 -0.0212,-0.142523 0.007,0.0019 0.0141,0.006 0.0215,0.01376 0.0339,0.03422 0.25295,0.215548 0.36725,0.599723 0.0194,0.0508 0.0667,0.05609 0.0776,-0.01659 0.0265,-0.177448 0.0406,-0.486127 0.0547,-0.579615 0.0198,-0.131585 0.0825,-0.40287 0.24941,-0.26176 0.0374,0.03175 0.0776,0.07408 0.0776,0.07408 0.0356,0.04445 0.0801,0.09525 0.10125,0.0441 0.0328,-0.07796 0.0593,-0.206375 0.0236,-0.276225 -0.0159,-0.03069 -0.22225,-0.2921 -0.36301,-0.112889 m 2.18228,0.06914 c -0.0998,0.108657 -0.13088,0.183446 -0.16051,0.230365 -0.0413,0.06385 0.0106,0.09278 0.0568,0.04268 0.0466,-0.05009 0.0787,-0.09983 0.21449,-0.09631 0.13546,0.0035 0.46037,-0.0092 0.33901,0.08008 -0.12135,0.08925 -0.20355,0.141111 -0.20355,0.141111 -0.0787,0.05645 -0.14816,0.162279 -0.009,0.103716 0.139,-0.05927 0.32279,-0.152045 0.4639,-0.364418 0.0413,-0.06174 0.0893,-0.14464 -0.1016,-0.172861 -0.1912,-0.02858 -0.49988,-0.07338 -0.59972,0.03563 m 4.17477,0.747538 c -0.0257,0.07937 -0.0448,0.140758 -0.01,0.231421 0.0342,0.09066 0.12735,0.296687 0.14287,0.325966 0.0152,0.02928 0.019,0.0628 -0.0321,0.08432 -0.0508,0.02188 -0.28469,0.07197 -0.32808,-0.177448 -0.0437,-0.249412 -0.0473,-0.322085 -0.0695,-0.364419 -0.0215,-0.04233 -0.042,-0.04727 -0.0586,-0.0053 -0.0166,0.04233 -0.0268,0.129468 -0.0296,0.143227 -0.002,0.0141 -0.002,0.02434 0.007,0.03986 0.009,0.01516 0.1023,0.293865 0.06,0.370417 -0.042,0.07691 -0.25188,0.214842 -0.36195,0.07056 -0.0522,-0.100896 -0.0205,-0.356658 -0.0205,-0.416983 0,-0.05997 -0.019,-0.08043 -0.0444,-0.03175 -0.0258,0.04868 -0.0399,0.08078 -0.0385,0.124177 0.001,0.04304 0.008,0.23001 0.004,0.288573 -0.004,0.05891 0,0.249412 0.11218,0.303035 0.11289,0.05362 0.27658,0.0039 0.40005,-0.23001 0.0963,0.139346 0.24165,0.1397 0.31962,0.111125 0.0667,-0.02434 0.14075,-0.124179 0.16263,-0.262115 0.0215,-0.137935 -0.0141,-0.232481 -0.0575,-0.310443 -0.0579,-0.09596 -0.096,-0.257175 -0.096,-0.257175 -0.0204,-0.05715 -0.036,-0.116417 -0.0614,-0.03704 m 7.07318,0.149585 c -0.0346,0.08431 -0.17886,0.375002 -0.15664,0.71755 0.005,0.07902 0.0579,0.233185 0.17674,0.237419 0.0614,-2.65e-4 0.14147,-0.04515 0.19791,-0.238477 0.01,-0.0441 0.0159,-0.07902 0.0201,-0.09596 0.006,-0.02646 -0.0134,-0.0575 -0.0335,0.0024 -0.0452,0.118534 -0.16228,0.201436 -0.25012,0.04233 -0.0141,-0.0314 -0.073,-0.175684 0.0356,-0.490715 0.0215,-0.06103 0.0494,-0.1524 0.0494,-0.1524 0.0243,-0.06879 -0.005,-0.10654 -0.0395,-0.02222 m 3.30729,0.173215 c -0.0318,0.07832 -0.16545,0.347133 -0.14499,0.664279 0.005,0.07338 0.0533,0.216254 0.16404,0.219781 0.0568,-2.65e-4 0.13052,-0.04127 0.18274,-0.22084 0.009,-0.04057 0.0148,-0.07303 0.0187,-0.0889 0.005,-0.024 -0.0123,-0.05292 -0.0307,0.0024 -0.042,0.109713 -0.15063,0.186619 -0.23142,0.03951 -0.0134,-0.02928 -0.0684,-0.162984 0.0321,-0.454732 0.0205,-0.05644 0.0459,-0.140758 0.0459,-0.140758 0.0229,-0.06385 -0.004,-0.09878 -0.0363,-0.02082 m -6.20642,0.0085 -0.16828,0.231068 -0.32279,-0.235656 c -0.008,-0.006 -0.0198,-0.0039 -0.0261,0.0046 l -0.19509,0.267404 c -0.006,0.0085 -0.005,0.02045 0.004,0.02611 l 0.33303,0.242711 c 0.008,0.006 0.0194,0.0039 0.0257,-0.0049 l 0.16792,-0.230717 0.32279,0.235654 c 0.008,0.006 0.0198,0.0039 0.0261,-0.0049 l 0.19473,-0.267406 c 0.007,-0.0085 0.005,-0.02011 -0.003,-0.02574 l -0.33302,-0.242713 c -0.008,-0.006 -0.0194,-0.0039 -0.0257,0.0046 m -9.41458,0.193675 c -0.0487,0.144638 -0.25223,0.644171 -0.20813,1.227667 0.0102,0.135112 0.0931,0.396521 0.26987,0.40005 0.0914,-0.0021 0.20779,-0.08079 0.28504,-0.41275 0.0131,-0.07514 0.0212,-0.135115 0.0265,-0.164396 0.008,-0.0448 -0.0215,-0.09737 -0.049,0.0053 -0.0628,0.203906 -0.23389,0.348898 -0.36866,0.08008 -0.0226,-0.05327 -0.11536,-0.297392 0.0349,-0.8382 0.0303,-0.104775 0.0688,-0.261056 0.0688,-0.261056 0.0335,-0.118534 -0.0113,-0.181679 -0.0593,-0.03669 m 3.26108,0.05009 c -0.14429,0.229306 -0.13758,0.51929 -0.1397,0.84314 -0.0261,-0.06632 -0.17639,-0.492125 -0.59196,-0.71755 -0.03,-0.01622 -0.0875,0.02117 -0.0871,0.12347 0,0.05962 -0.007,0.204613 0.0335,0.243417 0.0402,0.03881 0.15663,0.11289 0.17639,0.122767 0.0198,0.01058 0.0395,0.01093 0.0441,-0.0141 0.004,-0.02506 0.0261,-0.08396 0.0653,-0.0448 0.0325,0.03245 0.24024,0.201436 0.36548,0.57785 0.0205,0.04974 0.0635,0.05221 0.0691,-0.02011 0.0134,-0.178155 0.008,-0.485775 0.0155,-0.579615 0.0102,-0.131939 0.0515,-0.404989 0.2099,-0.27305 0.036,0.02963 0.0744,0.06985 0.0744,0.06985 0.0346,0.04233 0.0773,0.09067 0.0938,0.03845 0.0254,-0.07867 0.0416,-0.208137 0.005,-0.275518 -0.0162,-0.02999 -0.21731,-0.2794 -0.33408,-0.09419 m 7.45666,0.172156 c -0.013,0.04551 -0.0455,0.239888 -0.0533,0.280104 -0.008,0.03986 -0.007,0.07973 0.0124,0.113948 0.0198,0.03422 0.0706,0.152752 0.10725,0.24906 0.0363,0.09631 0.41416,0.82409 0.44908,0.888649 0.0349,0.06456 0.042,0.112535 0.007,0.155223 -1.21285,1.279525 -3.55247,2.06657 -3.62761,2.109962 -0.0748,0.04339 -0.055,0.07726 0.0709,0.05503 0.18838,-0.03316 1.23966,-0.208843 1.53952,-0.353129 0.19756,-0.0949 0.88759,-0.433916 1.45203,-0.876654 -0.0159,0.1143 -0.0303,0.282223 -0.0222,0.495654 0.0381,1.0287 0.9585,0.858309 1.1998,0.805037 0.7239,-0.15875 1.60866,-1.158875 1.6838,-1.359958 0.0744,-0.198612 0.0854,-0.379587 0.0684,-0.537633 0.1905,-0.103362 0.59973,-0.43321 0.59973,-0.43321 0.0169,0.438501 0.36583,0.570793 0.47378,0.589843 0.50341,0.0762 0.756,-0.344662 0.86289,-0.481187 0.0917,0.240594 0.31221,0.28716 0.42545,0.309737 0.43498,0.08643 0.51929,-0.220837 0.54151,-0.291042 0.13653,-0.423333 -0.109,-0.73942 -0.14075,-0.774345 -0.0314,-0.03492 -0.0476,-0.0013 -0.0586,0.03951 -0.0109,0.04022 -0.0462,0.192969 -0.0681,0.288573 0,0 0.091,0.147812 0.12312,0.223309 0.0325,0.07549 -0.0159,0.116768 -0.10901,0.12841 -0.26423,0.0321 -0.47519,-0.11924 -0.54786,-0.189442 -0.0727,-0.06985 0.006,-0.193323 0.0649,-0.340783 0.0462,-0.118182 -0.0406,-0.132292 -0.10725,-2.65e-4 -0.22401,0.588786 -0.53869,0.652286 -0.62159,0.674862 -0.74613,0.203555 -0.68157,-0.478718 -0.6791,-0.59055 0.003,-0.111476 -0.0787,-0.07055 -0.17074,0.0035 -0.31433,0.251884 -0.56692,0.399696 -0.70274,0.460375 -0.11712,-0.228954 -0.28751,-0.372533 -0.35912,-0.424391 -0.80751,-0.588788 -0.87383,0.599016 -0.84985,0.726368 0.12312,0.505532 0.94792,0.199319 1.07739,0.183798 0.12911,-0.01516 0.0871,0.155927 0.0145,0.257175 -0.17921,0.250119 -0.38594,0.429684 -0.57256,0.582436 -0.8001,0.652285 -1.20156,0.601133 -1.32468,0.5969 -0.78563,-0.02188 -0.71367,-0.868892 -0.66992,-1.049867 0.23636,-0.199673 0.43956,-0.417335 0.55703,-0.64135 0.0483,-0.122767 0.13159,-0.40146 -0.0183,-0.751769 -0.0787,-0.153812 -0.32632,-0.585964 -0.32632,-0.585964 0,0 0.18239,0.0056 0.19967,0.0053 0.0173,-2.64e-4 0.0519,-0.01834 0.007,-0.0695 -0.0441,-0.05115 -0.42757,-0.433562 -0.4505,-0.463902 -0.0233,-0.03069 -0.0441,-0.05292 -0.0575,-0.0078 m 2.42217,1.7526 c 0,0 -0.10971,0.0635 -0.41734,0.04233 -0.25752,-0.01728 -0.23565,-0.117475 -0.20037,-0.155575 0.0384,-0.04163 0.35454,-0.240241 0.61771,0.113242 m -3.3165,-1.424747 c -0.0533,0.06632 -0.58985,0.770115 -0.58985,0.770115 l -0.38982,-0.27799 c 0,0 0.15911,-0.03986 0.18662,-0.04798 0.0279,-0.0081 0.0438,-0.0441 -0.006,-0.06985 -0.0501,-0.0254 -0.52035,-0.213077 -0.55633,-0.227541 -0.0356,-0.01447 -0.0487,-0.03069 -0.0519,0.0074 -0.003,0.0381 -0.008,0.347485 -0.008,0.347485 0,0 -0.007,0.02188 0.0335,0.04516 0.0409,0.02328 0.0815,0.07338 0.11465,0.106539 0.0339,0.03387 0.47096,0.379236 0.49248,0.391229 0,0 -0.21872,0.384175 -0.24659,0.685096 -0.0275,0.301271 0.005,0.716492 0.41663,0.582436 0.11077,-0.03175 0.57185,-0.214842 0.67486,-0.536223 0.0332,-0.118179 0.12806,-0.331963 -0.0265,-0.548921 -0.0892,-0.127354 -0.44873,-0.342548 -0.44873,-0.342548 0,0 0.27622,-0.381706 0.30233,-0.428625 0.0265,-0.04657 0.12806,-0.3429 0.13935,-0.414515 0.0109,-0.07161 0.0169,-0.107243 -0.0367,-0.04127 m -0.0942,1.623132 c -0.15311,0.125589 -0.47378,0.291748 -0.56409,0.300214 -0.0907,0.0088 -0.32985,-0.03528 -0.22578,-0.280458 0.0356,-0.07973 0.27517,-0.48895 0.27517,-0.48895 0.0896,0.04903 0.6671,0.343252 0.5147,0.469194 m -10.9594,-1.50495 c -0.0328,0.0822 -0.17039,0.366183 -0.1397,0.695677 0.007,0.07585 0.0639,0.223308 0.18415,0.224014 0.0621,-0.0019 0.14147,-0.04692 0.19333,-0.23495 0.009,-0.04233 0.0141,-0.07655 0.018,-0.09313 0.005,-0.0254 -0.0152,-0.05503 -0.0339,0.0032 -0.0423,0.11571 -0.1584,0.198615 -0.25082,0.04762 -0.0152,-0.02998 -0.078,-0.167217 0.0233,-0.473781 0.0204,-0.05962 0.0462,-0.148167 0.0462,-0.148167 0.0226,-0.06703 -0.008,-0.102658 -0.0406,-0.02045 m 6.4255,0.05962 -0.19544,0.267407 c -0.006,0.0085 -0.004,0.02011 0.004,0.02611 l 0.33302,0.24271 c 0.008,0.0056 0.0194,0.0035 0.0257,-0.0046 l 0.19509,-0.267758 c 0.006,-0.0085 0.005,-0.02011 -0.004,-0.02574 l -0.33299,-0.242745 c -0.008,-0.006 -0.0194,-0.0039 -0.0254,0.0046 m 10.7643,2.007307 c -0.031,0.08608 -0.043,0.142523 -0.0399,0.175331 0.003,0.03316 0.0148,0.1397 0.0148,0.1397 -0.0321,0.02574 -0.16898,0.111125 -0.30586,0.01024 0.009,-0.02928 0.0268,-0.08854 0.0307,-0.121353 0.0152,-0.05045 -0.0162,-0.0882 -0.0409,-0.03563 -0.0247,0.05257 -0.0829,0.228248 -0.12559,0.267407 -0.0434,0.03951 -0.0938,0.184502 -0.41981,0.03704 -0.0572,-0.02188 -0.15733,-0.09596 -0.31291,0.06068 -0.35278,0.327732 -0.5962,0.353132 -0.99131,0.49389 -0.0476,0.02188 -0.14816,0.09737 -0.0289,0.08537 0.11923,-0.01198 0.62018,2.65e-4 0.89288,-0.312912 0.0572,-0.05539 0.12241,-0.201438 0.33902,-0.116771 0.11994,0.04586 0.34148,0.235657 0.58314,-0.140052 0.14287,0.0949 0.35913,0.0568 0.39405,-0.04763 0.0342,-0.104423 0.0741,-0.208843 0.0734,-0.279752 -2.7e-4,-0.07126 -0.006,-0.1651 -0.006,-0.1651 -0.005,-0.05609 -0.0247,-0.136525 -0.0565,-0.05045 m -10.46374,0.400402 c -0.0303,0.07479 -0.15875,0.332671 -0.13899,0.636765 0.005,0.0702 0.0511,0.206727 0.15663,0.210608 0.055,0 0.12559,-0.03987 0.17604,-0.211666 0.008,-0.03881 0.0141,-0.0702 0.0173,-0.08537 0.006,-0.02294 -0.0116,-0.0508 -0.0293,0.0024 -0.0402,0.105127 -0.14394,0.178858 -0.2219,0.03775 -0.0127,-0.02787 -0.0649,-0.156279 0.0314,-0.435679 0.0194,-0.05397 0.0437,-0.134762 0.0437,-0.134762 0.0219,-0.06138 -0.004,-0.0949 -0.0349,-0.02011 m -3.67665,0.0628 c -0.0324,0.0822 -0.17074,0.365829 -0.1397,0.695325 0.007,0.0762 0.0639,0.223661 0.18415,0.224367 0.0621,-0.0019 0.14112,-0.04692 0.19368,-0.235304 0.008,-0.04233 0.0138,-0.07655 0.0173,-0.09313 0.006,-0.02506 -0.0148,-0.05468 -0.0332,0.0035 -0.0423,0.11571 -0.15875,0.198612 -0.25117,0.04762 -0.0148,-0.02999 -0.0783,-0.167571 0.0233,-0.474133 0.0204,-0.05927 0.0462,-0.147815 0.0462,-0.147815 0.0226,-0.06703 -0.007,-0.102658 -0.0406,-0.02045 m 1.22132,0.08819 -0.19544,0.267407 c -0.006,0.0088 -0.005,0.02045 0.004,0.02611 l 0.33267,0.242713 c 0.008,0.006 0.0198,0.0035 0.0257,-0.0046 l 0.19509,-0.267404 c 0.006,-0.0085 0.005,-0.02011 -0.003,-0.02611 l -0.33303,-0.242711 c -0.008,-0.006 -0.0198,-0.0039 -0.0254,0.0046 m -2.77177,0.140406 c -0.0695,0.03563 -0.85549,0.466019 -0.93134,0.511527 -0.0713,0.04233 -0.0889,0.06491 -0.0949,0.119943 -0.006,0.05433 -0.009,0.08572 -0.0109,0.0949 -0.01,0.03669 -0.0229,0.06914 0.0819,0.0056 0.0508,-0.03139 0.82691,-0.443793 0.89887,-0.490008 0.0575,-0.03669 0.0864,-0.05997 0.10443,-0.117827 0.018,-0.0575 0.0229,-0.06808 0.0318,-0.10795 0.01,-0.04233 0.024,-0.0695 -0.0797,-0.01622"
       style="fill:#231f20;fill-opacity:1;fill-rule:evenodd;stroke:none;stroke-width:0.264583"
       id="path1-5" />
  </g>
</svg>
