<?xml version="1.0" encoding="UTF-8" standalone="no"?>
<!-- Created with Inkscape (http://www.inkscape.org/) -->

<svg
   width="18.54734mm"
   height="6.0797243mm"
   viewBox="0 0 18.54734 6.0797243"
   version="1.1"
   id="svg1"
   xmlns:inkscape="http://www.inkscape.org/namespaces/inkscape"
   xmlns:sodipodi="http://sodipodi.sourceforge.net/DTD/sodipodi-0.dtd"
   xmlns="http://www.w3.org/2000/svg"
   xmlns:svg="http://www.w3.org/2000/svg">
  <sodipodi:namedview
     id="namedview1"
     pagecolor="#ffffff"
     bordercolor="#666666"
     borderopacity="1.0"
     inkscape:showpageshadow="2"
     inkscape:pageopacity="0.0"
     inkscape:pagecheckerboard="0"
     inkscape:deskcolor="#d1d1d1"
     inkscape:document-units="mm" />
  <defs
     id="defs1" />
  <g
     inkscape:label="Layer 1"
     inkscape:groupmode="layer"
     id="layer1"
     transform="translate(-121.46044,-51.76591)">
    <path
       d="m 132.26344,51.934747 c -0.0702,0.106891 -0.12241,0.363008 -0.0226,0.435678 0.10054,0.07373 0.24659,0.132998 0.24659,0.132998 -0.46601,0.570794 -0.78457,0.67945 -1.05692,0.839259 -0.0702,0.04092 -0.0564,0.07796 -0.0148,0.06667 0.0208,-0.0056 0.38735,-0.06279 0.81527,-0.387702 0.23142,-0.175683 0.37182,-0.47625 0.37182,-0.47625 0,0 0.11607,0.09666 0.13159,0.116417 0.0349,0.04374 0.0543,0.07585 0.0709,0.02963 0.061,-0.168982 -0.0254,-0.270582 -0.1076,-0.323146 0,0 0.0857,-0.263171 -0.0716,-0.52705 -0.0261,-0.04445 -0.18168,-0.185912 -0.36266,0.09349 m 0.24342,0.07267 c 0.10477,0.09807 0.0889,0.258233 0.085,0.294571 0,0 -0.13406,-0.06244 -0.19403,-0.08855 -0.06,-0.0254 -0.0917,-0.0635 -0.0639,-0.1016 0.0924,-0.129823 0.13793,-0.125235 0.17286,-0.104423 M 130.80471,51.8021 c -0.0162,0.03951 -0.11183,0.303742 -0.11183,0.303742 0.0257,0.171098 0.25295,2.014008 0.26776,2.139598 0.0152,0.125942 0.33408,2.210507 0.35102,2.786944 -0.005,0.05891 0.0208,0.08114 0.0476,0.02434 0.0272,-0.05644 0.21308,-0.440973 -0.007,-1.851025 -0.0162,-0.117475 -0.35031,-2.500135 -0.35031,-2.500135 0,0 0.19685,0.185208 0.2286,0.218723 0.0317,0.03351 0.0698,0.01553 0.0522,-0.0381 -0.0183,-0.05433 -0.42228,-1.030465 -0.43533,-1.064331 -0.013,-0.03422 -0.0257,-0.05856 -0.0423,-0.01976 m -0.93345,0 c -0.0162,0.03951 -0.14569,0.324909 -0.14569,0.324909 0.003,0.02328 0.0335,0.09349 0.055,0.237421 0.0215,0.149929 0.0529,0.364067 0.0875,0.600427 0,0 0.41628,2.542116 0.42192,2.638777 0.006,0.09631 0.0512,0.130529 -0.0854,0.204258 -0.13617,0.07408 -0.82621,0.395817 -1.17299,-0.109008 0.0466,-0.03422 0.47484,-0.245886 0.41558,-0.856896 -0.10548,-0.634648 -0.41558,-0.607483 -0.59055,-0.494596 -0.17463,0.113242 -0.46249,0.535165 -0.19086,1.190273 0,0 -0.75071,0.428625 -1.79528,0.386292 -0.11465,-0.0056 -1.00542,-0.03069 -1.47285,-0.573969 -0.0653,0.06526 -0.09,0.154162 -0.0938,0.173567 0,0 -0.69321,0.04586 -1.17087,0.295627 -0.47096,0.245885 -0.9151,0.623006 -1.23084,0.906637 -0.21343,0.191913 -0.39229,0.382765 -0.58843,0.460729 -0.15099,0.06703 -0.3683,0.123825 -0.56233,0.0021 -0.10089,-0.0508 -0.34466,-0.394758 0.0882,-1.129948 0.11254,-0.191558 0.31221,-0.523875 0.35349,-0.592312 0.0639,-0.05856 0.12806,-0.170746 0.18097,-0.374298 0.0155,-0.07902 0.0254,-0.142875 0.0325,-0.174273 0.01,-0.04692 -0.0205,-0.104069 -0.0529,0.0049 -0.072,0.214842 -0.25753,0.364419 -0.39405,0.07514 -0.0222,-0.05715 -0.1143,-0.319265 0.0596,-0.890765 0.0353,-0.110418 0.0797,-0.27587 0.0797,-0.27587 0.0391,-0.124532 -0.007,-0.193323 -0.0621,-0.04057 -0.0554,0.152754 -0.28505,0.678746 -0.25365,1.300691 0.007,0.132647 0.0769,0.380648 0.23495,0.425098 -0.16122,0.223661 -0.43603,0.656167 -0.5274,1.062919 -0.0748,0.334785 -0.0504,0.957792 0.51258,1.041752 0.12136,0.01447 0.37748,0.03246 0.97049,-0.499179 0.085,-0.0762 0.53094,-0.487188 0.79728,-0.664985 0.41663,-0.278696 1.00048,-0.58279 1.46685,-0.515763 0.0173,0.1524 0.007,0.731308 0.59796,0.859719 0.0706,0.01236 0.1517,0.0063 0.16616,-0.111829 0.0145,-0.118182 0.0268,-0.404635 0.0145,-0.480835 0.17921,0.03493 1.30951,0.379587 2.78377,-0.347134 0.0833,0.12206 0.30515,0.636762 1.0795,0.467429 0.091,-0.02328 0.54716,-0.103717 0.57467,-0.758119 0.0183,-0.277989 -0.06,-0.781756 -0.0801,-0.921456 -0.0201,-0.140404 -0.30691,-1.943452 -0.30691,-1.943452 0,0 0.19755,0.185208 0.2293,0.218723 0.0318,0.03351 0.0702,0.01553 0.0519,-0.0381 -0.018,-0.05433 -0.42192,-1.030465 -0.43497,-1.064331 -0.013,-0.03422 -0.0258,-0.05856 -0.0423,-0.01976 m -0.6036,3.242734 c 0.0483,0.120298 -0.29845,0.338666 -0.37006,0.370064 0,0 -0.139,-0.06597 -0.1838,-0.418041 -0.0177,-0.138642 0.0522,-0.243065 0.12841,-0.287867 0.0759,-0.0448 0.26564,-0.05962 0.42545,0.335844 m -3.48438,1.232606 c 0.0296,0.08784 -0.0152,0.06703 -0.0452,0.06103 -0.26988,-0.103013 -0.28787,-0.329849 -0.28328,-0.371475 0,0 0.19226,0 0.32844,0.310443 M 138.7856,52.0307 c -0.0702,0.10654 -0.12206,0.362657 -0.0222,0.43533 0.10019,0.07338 0.24624,0.132643 0.24624,0.132643 -0.46566,0.570794 -1.38042,0.977194 -1.59808,1.146882 -0.0646,0.04903 -0.0561,0.07796 -0.0148,0.06703 0.036,-0.0099 0.73307,-0.204965 1.36984,-0.750359 0.29245,-0.250473 0.28434,-0.269168 0.35842,-0.421216 0.0635,0.03281 0.10725,0.08537 0.13194,0.116416 0.0349,0.04339 0.054,0.07585 0.0706,0.02963 0.061,-0.168627 -0.0251,-0.270582 -0.10725,-0.323144 0,0 0.0854,-0.263525 -0.0716,-0.527404 -0.0265,-0.0441 -0.18204,-0.185561 -0.36301,0.09419 m 0.24377,0.07267 c 0.10477,0.09737 0.0889,0.257527 0.0847,0.294569 0,0 -0.13405,-0.06314 -0.19402,-0.08855 -0.06,-0.02574 -0.0917,-0.06385 -0.0639,-0.1016 0.0924,-0.130175 0.13793,-0.12559 0.17321,-0.104424 m -1.78894,-0.165806 c -0.18274,0.232833 -0.19438,0.538692 -0.21872,0.87983 -0.0258,-0.07126 -0.17215,-0.528815 -0.63959,-0.790575 -0.0339,-0.01939 -0.10301,0.01693 -0.10936,0.124883 -0.004,0.06244 -0.0219,0.214842 0.0226,0.258233 0.0441,0.04339 0.17463,0.127704 0.19615,0.1397 0.0222,0.01236 0.0459,0.01376 0.0526,-0.01236 0.006,-0.02611 0.036,-0.08678 0.0783,-0.04339 0.036,0.03634 0.26599,0.226835 0.38558,0.630414 0.0212,0.05398 0.0702,0.05891 0.0822,-0.01693 0.0275,-0.186973 0.0423,-0.51153 0.0572,-0.6096 0.0212,-0.138642 0.0871,-0.423333 0.26212,-0.275167 0.0399,0.03316 0.0818,0.07761 0.0818,0.07761 0.0374,0.04692 0.0843,0.100893 0.10654,0.04621 0.0346,-0.08114 0.0624,-0.216606 0.0243,-0.289631 -0.0166,-0.03281 -0.23354,-0.307269 -0.38171,-0.11924 m -1.80022,-0.01058 c -0.0674,0.03916 -1.78753,1.032229 -1.85738,1.077383 -0.0695,0.0441 -0.0938,0.05609 -0.10548,0.110067 -0.0109,0.05327 -0.0169,0.08431 -0.0194,0.09349 -0.0127,0.03563 -0.0219,0.07973 0.0808,0.01304 0.0321,-0.02117 1.76178,-1.020586 1.82245,-1.058334 0.0582,-0.03669 0.0921,-0.05186 0.11536,-0.10795 0.0233,-0.05539 0.0293,-0.06526 0.0416,-0.104423 0.0134,-0.04092 0.0268,-0.08467 -0.078,-0.02328 m -8.72914,-0.0042 c -0.0903,0.03563 -3.26495,1.370897 -3.35773,1.4097 -0.0921,0.03881 -0.11995,0.05609 -0.1397,0.119592 -0.0201,0.06315 -0.03,0.09631 -0.0356,0.109715 -0.0169,0.04268 -0.0392,0.08573 0.0956,0.02574 0.0423,-0.01871 3.24026,-1.353254 3.31399,-1.391354 0.073,-0.03845 0.11607,-0.05115 0.15134,-0.115358 0.0342,-0.06386 0.043,-0.07514 0.0624,-0.119946 0.0212,-0.04798 0.0455,-0.09172 -0.0903,-0.0381 m 2.53365,0.06138 c -0.0903,0.03563 -3.26495,1.370896 -3.35738,1.4097 -0.0921,0.03881 -0.11995,0.05609 -0.14005,0.11924 -0.0198,0.06315 -0.0303,0.09666 -0.0353,0.109714 -0.0169,0.04269 -0.0395,0.08608 0.0956,0.02612 0.042,-0.01871 3.24026,-1.353254 3.314,-1.39206 0.073,-0.0381 0.11641,-0.05045 0.15098,-0.115007 0.0349,-0.0635 0.043,-0.07479 0.0628,-0.119943 0.0212,-0.04727 0.0455,-0.09137 -0.0907,-0.03775 m -6.33624,0.142875 c -0.17392,0.221547 -0.18521,0.512588 -0.20813,0.837142 -0.0251,-0.06809 -0.16369,-0.503412 -0.60855,-0.752475 -0.0321,-0.01799 -0.0981,0.01659 -0.10407,0.118888 -0.004,0.05962 -0.0208,0.20461 0.0215,0.245885 0.042,0.04128 0.16616,0.121709 0.18697,0.132998 0.0208,0.01164 0.043,0.01304 0.0494,-0.01198 0.006,-0.02469 0.0346,-0.0822 0.0748,-0.04092 0.0342,0.03422 0.25294,0.215546 0.36689,0.599721 0.0198,0.0508 0.067,0.05609 0.078,-0.01659 0.0261,-0.177448 0.0406,-0.486129 0.0547,-0.579614 0.0201,-0.131586 0.0829,-0.403225 0.24906,-0.262115 0.0381,0.0321 0.078,0.07444 0.078,0.07444 0.036,0.0448 0.0801,0.09525 0.1016,0.04409 0.0328,-0.07761 0.0589,-0.206375 0.0233,-0.276225 -0.0159,-0.03069 -0.22225,-0.2921 -0.36336,-0.113242 m 12.86228,1.154642 c -0.0342,0.08431 -0.17886,0.37465 -0.15664,0.717198 0.005,0.07902 0.0575,0.23354 0.17675,0.237419 0.0617,0 0.14111,-0.0448 0.19755,-0.238477 0.0102,-0.04374 0.0162,-0.07902 0.0201,-0.09631 0.006,-0.02611 -0.013,-0.05715 -0.0332,0.0028 -0.0455,0.118533 -0.16228,0.201787 -0.25012,0.04268 -0.0141,-0.0314 -0.0734,-0.176035 0.0353,-0.490715 0.0219,-0.06138 0.0497,-0.152752 0.0497,-0.152752 0.0243,-0.06844 -0.005,-0.106185 -0.0395,-0.02188 m 3.30729,0.173215 c -0.0317,0.07832 -0.1651,0.346781 -0.14499,0.664281 0.005,0.07303 0.0536,0.2159 0.16369,0.219427 0.0571,0 0.13088,-0.04127 0.18344,-0.220485 0.009,-0.04057 0.0148,-0.07338 0.018,-0.0889 0.006,-0.02469 -0.012,-0.05362 -0.0307,0.0024 -0.0416,0.109715 -0.14993,0.186267 -0.23142,0.03916 -0.013,-0.02928 -0.0677,-0.162632 0.0328,-0.454377 0.0204,-0.05645 0.0459,-0.141113 0.0459,-0.141113 0.0222,-0.06385 -0.005,-0.09878 -0.0367,-0.02045 m -10.08874,0.0032 -0.16827,0.230364 -0.32279,-0.235304 c -0.008,-0.006 -0.0198,-0.0039 -0.0258,0.0049 l -0.19544,0.267052 c -0.006,0.0088 -0.005,0.02045 0.004,0.02646 l 0.33267,0.242358 c 0.008,0.006 0.0198,0.0039 0.0258,-0.0046 l 0.16862,-0.231069 0.3228,0.235654 c 0.008,0.006 0.0198,0.0039 0.0257,-0.0046 l 0.19509,-0.267407 c 0.006,-0.0085 0.005,-0.02045 -0.004,-0.02611 l -0.33267,-0.242713 c -0.008,-0.006 -0.0198,-0.0039 -0.0257,0.0049 m 3.3655,0.0049 -0.19544,0.267759 c -0.006,0.0085 -0.005,0.02011 0.004,0.02574 l 0.33268,0.243064 c 0.008,0.0056 0.0198,0.0035 0.0257,-0.0053 l 0.16827,-0.230365 0.32315,0.235656 c 0.008,0.0056 0.0198,0.0035 0.0257,-0.0053 l 0.19509,-0.267407 c 0.006,-0.0081 0.005,-0.01976 -0.003,-0.02574 l -0.33302,-0.242358 c -0.008,-0.0063 -0.0194,-0.0039 -0.0257,0.0042 l -0.16828,0.231069 -0.32279,-0.235302 c -0.008,-0.0063 -0.0201,-0.0039 -0.0257,0.0042 m -8.17668,0.357717 c -0.0497,0.137583 -0.25717,0.611717 -0.2286,1.172279 0.006,0.129471 0.0797,0.382413 0.24942,0.389821 0.0875,2.65e-4 0.20073,-0.07197 0.28292,-0.388763 0.0141,-0.07161 0.0233,-0.128762 0.0289,-0.156985 0.009,-0.04268 -0.018,-0.09384 -0.0469,0.0042 -0.0653,0.193675 -0.23248,0.328435 -0.3556,0.06773 -0.0201,-0.05186 -0.10301,-0.287867 0.054,-0.802569 0.0318,-0.10019 0.0716,-0.249415 0.0716,-0.249415 0.0353,-0.112183 -0.006,-0.174273 -0.0557,-0.03634 m 2.99297,0.252235 c -0.14852,0.242007 -0.1397,0.548217 -0.14005,0.890059 -0.0272,-0.0702 -0.18627,-0.518232 -0.61948,-0.75424 -0.0314,-0.01728 -0.0907,0.02222 -0.0896,0.130175 2.7e-4,0.0628 -0.006,0.2159 0.0363,0.256471 0.042,0.04057 0.16369,0.118179 0.1838,0.128762 0.0204,0.0113 0.0413,0.01164 0.0459,-0.01482 0.004,-0.02681 0.0268,-0.08854 0.067,-0.04762 0.0342,0.03387 0.25154,0.211667 0.38347,0.60819 0.0219,0.05257 0.0663,0.05503 0.0716,-0.02151 0.0134,-0.188032 0.006,-0.512588 0.0134,-0.612072 0.01,-0.138641 0.0505,-0.426508 0.21625,-0.28857 0.0374,0.0314 0.0776,0.07338 0.0776,0.07338 0.0363,0.0448 0.0811,0.0956 0.0981,0.04022 0.0254,-0.0829 0.0413,-0.219782 0.004,-0.290336 -0.0169,-0.03175 -0.2279,-0.293864 -0.34784,-0.09807 m 7.00369,-0.193675 c -0.0127,0.04516 -0.0455,0.23989 -0.0533,0.279752 -0.008,0.03987 -0.007,0.08008 0.0127,0.113948 0.0194,0.03457 0.0702,0.153107 0.10654,0.24906 0.0367,0.09666 0.41451,0.82409 0.44944,0.889 0.0349,0.06421 0.042,0.112184 0.007,0.154872 -1.21249,1.279522 -3.55282,2.066922 -3.62761,2.110314 -0.0748,0.04339 -0.0547,0.07691 0.0706,0.05503 0.18838,-0.03351 1.24001,-0.208844 1.53987,-0.353129 0.19756,-0.0956 0.88759,-0.434271 1.45203,-0.876652 -0.0155,0.114298 -0.03,0.281869 -0.0222,0.495298 0.0381,1.029054 0.95814,0.858308 1.1998,0.805039 0.72354,-0.15875 1.60866,-1.158875 1.68381,-1.359603 0.0744,-0.198615 0.085,-0.379942 0.0684,-0.537988 0.1905,-0.103362 0.60008,-0.432859 0.60008,-0.432859 0.0166,0.438505 0.36583,0.570442 0.47307,0.589492 0.50377,0.0762 0.75636,-0.34431 0.86325,-0.481187 0.0917,0.240594 0.31221,0.287512 0.4258,0.310092 0.43427,0.08608 0.51859,-0.221192 0.54152,-0.291042 0.13652,-0.423688 -0.10936,-0.739423 -0.14076,-0.774348 -0.0318,-0.03528 -0.0476,-0.0013 -0.0589,0.03916 -0.0113,0.04022 -0.0459,0.193323 -0.0681,0.288573 0,0 0.091,0.148167 0.12347,0.223309 0.0321,0.07549 -0.0162,0.116768 -0.10936,0.128058 -0.26458,0.03245 -0.47519,-0.118888 -0.54822,-0.188738 -0.0727,-0.06985 0.006,-0.193675 0.0649,-0.340783 0.0469,-0.118179 -0.0402,-0.132644 -0.1069,-2.65e-4 -0.22366,0.588433 -0.53869,0.651933 -0.62124,0.674865 -0.74648,0.2032 -0.68192,-0.479073 -0.6791,-0.590905 0.002,-0.111828 -0.0794,-0.0702 -0.17145,0.0035 -0.31361,0.251884 -0.56656,0.399696 -0.70273,0.460727 -0.11712,-0.228952 -0.28716,-0.372533 -0.35877,-0.424743 -0.80751,-0.588788 -0.87419,0.599368 -0.84985,0.72672 0.12277,0.50518 0.94792,0.198967 1.07704,0.183798 0.12946,-0.01553 0.0871,0.155575 0.0148,0.257175 -0.17921,0.250119 -0.38594,0.429329 -0.57291,0.582084 -0.79939,0.652637 -1.20085,0.601133 -1.32468,0.5969 -0.78528,-0.02188 -0.71296,-0.868188 -0.66922,-1.049161 0.23601,-0.200379 0.43886,-0.418041 0.55704,-0.641704 0.048,-0.122767 0.13088,-0.401812 -0.0187,-0.751769 -0.0783,-0.154165 -0.32632,-0.585965 -0.32632,-0.585965 0,0 0.18239,0.0053 0.19967,0.0049 0.0176,-2.64e-4 0.0515,-0.01834 0.007,-0.06914 -0.0445,-0.05151 -0.42757,-0.433565 -0.45049,-0.464609 -0.0229,-0.03034 -0.0445,-0.05256 -0.0575,-0.0071 m 2.42217,1.7526 c 0,0 -0.10971,0.06279 -0.41733,0.04233 -0.25753,-0.01728 -0.23566,-0.117475 -0.20038,-0.155927 0.0385,-0.04163 0.35419,-0.240241 0.61771,0.113594 m -3.31646,-1.424869 c -0.0536,0.06597 -0.58984,0.769761 -0.58984,0.769761 l -0.38982,-0.27799 c 0,0 0.15945,-0.03986 0.18697,-0.04798 0.0275,-0.0081 0.0434,-0.0441 -0.007,-0.0695 -0.0501,-0.02574 -0.52034,-0.213077 -0.55562,-0.227542 -0.0363,-0.01482 -0.049,-0.03104 -0.0522,0.0071 -0.003,0.03845 -0.008,0.347839 -0.008,0.347839 0,0 -0.007,0.02151 0.0339,0.04515 0.0409,0.02294 0.0811,0.07303 0.115,0.10654 0.0335,0.03352 0.47096,0.378531 0.49213,0.390877 0,0 -0.21872,0.384529 -0.24659,0.685096 -0.0279,0.30127 0.005,0.716489 0.41663,0.582435 0.11042,-0.0314 0.5715,-0.214841 0.67451,-0.535868 0.0335,-0.118534 0.12806,-0.332317 -0.0261,-0.548923 -0.0889,-0.127352 -0.44908,-0.342549 -0.44908,-0.342549 0,0 0.27622,-0.381703 0.30303,-0.428625 0.0265,-0.04692 0.12771,-0.3429 0.13864,-0.414866 0.0113,-0.07126 0.0169,-0.107244 -0.0363,-0.04092 m -0.0945,1.622777 c -0.1524,0.125942 -0.47378,0.291748 -0.56374,0.300567 -0.0903,0.0085 -0.32984,-0.03563 -0.22577,-0.28081 0.0353,-0.07973 0.27481,-0.48895 0.27481,-0.48895 0.0896,0.04903 0.66781,0.343603 0.5147,0.469193 m 6.23076,0.561975 c -0.0314,0.08608 -0.043,0.142875 -0.0399,0.175684 0.003,0.03316 0.0145,0.139345 0.0145,0.139345 -0.0317,0.02611 -0.16862,0.111125 -0.30515,0.01058 0.009,-0.02928 0.0268,-0.0889 0.0307,-0.121708 0.0148,-0.05009 -0.0162,-0.08819 -0.0416,-0.03563 -0.0247,0.05256 -0.0825,0.228246 -0.12559,0.267404 -0.043,0.03951 -0.0938,0.184856 -0.41945,0.03704 -0.0572,-0.02188 -0.15734,-0.09631 -0.31292,0.06103 -0.35242,0.327377 -0.59619,0.353131 -0.99131,0.493535 -0.0476,0.02222 -0.14816,0.09737 -0.0289,0.08537 0.11924,-0.01164 0.62018,2.65e-4 0.89323,-0.31256 0.0568,-0.05539 0.12206,-0.20179 0.33832,-0.116771 0.12029,0.04516 0.34184,0.235656 0.58384,-0.140404 0.14217,0.09525 0.35878,0.0568 0.39335,-0.04763 0.0346,-0.104775 0.0741,-0.208491 0.0737,-0.279754 -2.6e-4,-0.07126 -0.007,-0.164746 -0.007,-0.164746 -0.005,-0.05644 -0.0243,-0.136877 -0.0561,-0.0508 m -11.60568,0.119592 c -0.15169,0.219779 -0.15839,0.507293 -0.17603,0.828675 -0.0222,-0.06738 -0.14887,-0.496359 -0.54363,-0.739423 -0.0289,-0.01799 -0.0864,0.01659 -0.091,0.117827 -0.003,0.05927 -0.0162,0.202496 0.0215,0.242712 0.0374,0.04057 0.14746,0.118886 0.16581,0.130175 0.0187,0.01164 0.0388,0.01304 0.0437,-0.01199 0.006,-0.02434 0.0296,-0.08149 0.066,-0.04127 0.0303,0.03387 0.22507,0.211667 0.32914,0.590198 0.018,0.05045 0.0596,0.05503 0.0688,-0.01659 0.0212,-0.175684 0.031,-0.480836 0.0423,-0.573617 0.0162,-0.129821 0.0691,-0.398285 0.21766,-0.26035 0.0335,0.0314 0.0691,0.07303 0.0691,0.07303 0.0317,0.04375 0.0716,0.09349 0.09,0.04269 0.0279,-0.07691 0.0505,-0.204259 0.018,-0.27305 -0.0141,-0.02999 -0.19896,-0.286809 -0.32137,-0.109009 m 2.49202,0.145344 c -0.0162,0.03634 -0.0275,0.06597 -0.0339,0.08008 -0.01,0.02188 10e-4,0.05186 0.0296,0.0032 0.0593,-0.09525 0.17569,-0.147462 0.22437,0.006 0.007,0.02999 0.0342,0.165806 -0.11465,0.421216 -0.0296,0.04974 -0.0692,0.12418 -0.0692,0.12418 -0.0332,0.05574 -0.0141,0.09349 0.0307,0.02611 0.0445,-0.06738 0.21978,-0.295627 0.2593,-0.597604 0.009,-0.06985 -0.01,-0.213077 -0.11325,-0.237066 -0.0536,-0.01024 -0.13052,0.01482 -0.21307,0.173918 m -5.20736,0.329142 c -0.0702,0.03493 -1.21637,0.462843 -1.28834,0.50306 -0.0727,0.04057 -0.0981,0.05045 -0.11254,0.103365 -0.0145,0.05327 -0.0222,0.08396 -0.0257,0.09208 -0.0145,0.03528 -0.0268,0.07902 0.0801,0.01871 0.0332,-0.01871 1.19274,-0.452967 1.25236,-0.487188 0.0596,-0.03387 0.0949,-0.04586 0.12206,-0.09983 0.0268,-0.05433 0.0332,-0.06385 0.048,-0.1016 0.0159,-0.04057 0.0321,-0.08361 -0.0759,-0.02858"
       style="fill:#231f20;fill-opacity:1;fill-rule:evenodd;stroke:none;stroke-width:0.264583"
       id="path1" />
  </g>
</svg>
