<?xml version="1.0" encoding="UTF-8" standalone="no"?>
<!-- Created with Inkscape (http://www.inkscape.org/) -->

<svg
   width="19.245579mm"
   height="6.1567545mm"
   viewBox="0 0 19.245579 6.1567545"
   version="1.1"
   id="svg1"
   xmlns:inkscape="http://www.inkscape.org/namespaces/inkscape"
   xmlns:sodipodi="http://sodipodi.sourceforge.net/DTD/sodipodi-0.dtd"
   xmlns="http://www.w3.org/2000/svg"
   xmlns:svg="http://www.w3.org/2000/svg">
  <sodipodi:namedview
     id="namedview1"
     pagecolor="#ffffff"
     bordercolor="#666666"
     borderopacity="1.0"
     inkscape:showpageshadow="2"
     inkscape:pageopacity="0.0"
     inkscape:pagecheckerboard="0"
     inkscape:deskcolor="#d1d1d1"
     inkscape:document-units="mm" />
  <defs
     id="defs1" />
  <g
     inkscape:label="Layer 1"
     inkscape:groupmode="layer"
     id="layer1"
     transform="translate(-137.5181,-44.5833)">
    <path
       d="m 144.0761,44.60695 c -0.084,0.03316 -3.04306,1.29258 -3.12949,1.329267 -0.0857,0.03634 -0.11183,0.05257 -0.13053,0.111831 -0.018,0.05856 -0.0275,0.09031 -0.0321,0.102659 -0.0159,0.03951 -0.0367,0.08043 0.0892,0.02363 0.0388,-0.01728 3.02014,-1.275995 3.08857,-1.312333 0.0684,-0.03598 0.10831,-0.04798 0.14076,-0.10795 0.0325,-0.05962 0.0402,-0.0702 0.0582,-0.112184 0.0194,-0.0448 0.042,-0.08608 -0.0847,-0.03493 m 4.94524,0.221898 c -0.0702,0.106892 -0.12241,0.363009 -0.0222,0.435682 0.0998,0.07338 0.24623,0.132995 0.24623,0.132995 -0.46601,0.570442 -0.78457,0.67945 -1.05727,0.839259 -0.0699,0.04092 -0.0561,0.07796 -0.0148,0.06703 0.0212,-0.006 0.38771,-0.06315 0.81563,-0.388056 0.23177,-0.175684 0.37182,-0.47625 0.37182,-0.47625 0,0 0.11572,0.09701 0.13159,0.116065 0.0349,0.04374 0.0543,0.0762 0.0709,0.02999 0.0607,-0.168982 -0.0254,-0.270582 -0.1076,-0.323498 0,0 0.0857,-0.262819 -0.0716,-0.52705 -0.0261,-0.0441 -0.18204,-0.185561 -0.36266,0.09384 m 0.24342,0.07303 c 0.10477,0.09737 0.0889,0.257527 0.0847,0.294569 0,0 -0.13406,-0.06315 -0.19403,-0.0889 -0.0596,-0.02574 -0.0914,-0.0635 -0.0635,-0.1016 0.0924,-0.12982 0.13793,-0.125235 0.17286,-0.104069 m -1.56739,-0.205316 c -0.0162,0.03916 -0.11219,0.303035 -0.11219,0.303035 0.0257,0.17145 0.14746,1.520121 0.16228,1.645708 0.0152,0.125942 0.33443,2.210155 0.35102,2.786947 -0.005,0.05891 0.0212,0.08078 0.048,0.02434 0.0268,-0.0568 0.21308,-0.441325 -0.007,-1.851379 -0.0166,-0.117475 -0.24553,-2.005542 -0.24553,-2.005542 0,0 0.1972,0.185208 0.22895,0.218723 0.0318,0.03352 0.0702,0.01588 0.0522,-0.0381 -0.0183,-0.05433 -0.42228,-1.030465 -0.43533,-1.064683 -0.0127,-0.03387 -0.0257,-0.05856 -0.042,-0.01905 m -0.99378,0 c -0.0162,0.03916 -0.14605,0.324556 -0.14605,0.324556 0.004,0.02328 0.0339,0.09313 0.055,0.237771 0.0215,0.144288 0.0511,0.34925 0.0843,0.575733 0,0 0.32561,2.102908 0.33161,2.234496 0.006,0.131937 0.0462,0.341135 -0.0339,0.385937 -0.0801,0.04445 -0.53763,0.201084 -0.74118,-0.04127 -0.0152,-0.02011 -0.0706,-0.185912 -0.0787,-0.204962 -0.008,-0.01871 -0.024,-0.01622 -0.0427,0.02011 -0.0187,0.03669 -0.10724,0.258585 -0.0748,0.341135 0.0268,0.06879 0.14676,0.38735 0.18451,0.571148 0.008,0.03704 0.0649,0.200377 -0.0656,0.329142 -0.10266,0.09207 -0.62583,0.570793 -1.31269,0.720018 -0.90734,0.219075 -1.0668,-0.42404 -0.94932,-0.953558 0.0229,-0.126294 0.11536,-0.472017 0.23953,-0.760942 0.0688,-0.174625 -0.0374,-0.240593 -0.12805,-0.02011 -0.09,0.22084 -0.41028,1.140883 -0.27588,1.594202 0.0727,0.224014 0.31292,0.950383 1.72509,0.291396 0.13758,-0.06421 1.00824,-0.455083 0.96555,-1.359958 0.14746,-0.01622 0.63077,-0.04763 0.73307,-0.391938 0.036,-0.12065 0.0861,-0.336196 0.054,-0.706612 -0.0296,-0.30339 -0.32773,-2.28318 -0.32773,-2.28318 0,0 0.1397,0.09313 0.17109,0.126296 0.0321,0.03387 0.0706,0.01588 0.0522,-0.0381 -0.018,-0.05398 -0.36406,-0.938038 -0.37711,-0.971904 -0.013,-0.03422 -0.0257,-0.05891 -0.0423,-0.01939 m -1.36772,0.04586 c -0.0307,0.07514 -0.15875,0.332671 -0.13899,0.636413 0.005,0.07055 0.0512,0.207433 0.15698,0.21096 0.0543,-2.64e-4 0.12524,-0.03986 0.17533,-0.211667 0.009,-0.03881 0.0141,-0.0702 0.0177,-0.08573 0.006,-0.02328 -0.0116,-0.05045 -0.0293,0.0024 -0.0402,0.105481 -0.14393,0.179213 -0.2219,0.0381 -0.0127,-0.02822 -0.0649,-0.155927 0.031,-0.435679 0.0198,-0.05433 0.0441,-0.135115 0.0441,-0.135115 0.0215,-0.06103 -0.004,-0.09454 -0.0349,-0.01976 m -4.9089,0.03034 c -0.0367,0.0956 -0.19403,0.427918 -0.14535,0.805391 0.0109,0.08784 0.0843,0.255059 0.22966,0.251532 0.0751,-0.0046 0.16898,-0.05962 0.22578,-0.27799 0.009,-0.04939 0.0141,-0.08855 0.018,-0.10795 0.006,-0.02928 -0.0198,-0.06279 -0.0402,0.0053 -0.0473,0.13476 -0.1845,0.234598 -0.30127,0.06456 -0.019,-0.03422 -0.10019,-0.190148 0.012,-0.546807 0.0229,-0.06949 0.0505,-0.172153 0.0505,-0.172153 0.0257,-0.07832 -0.0124,-0.118182 -0.049,-0.02188 m 15.11617,0.152048 c -0.0699,0.106537 -0.12206,0.362302 -0.0219,0.435678 0.10019,0.07338 0.24624,0.132292 0.24624,0.132292 -0.46566,0.571148 -1.38042,0.977196 -1.59808,1.146882 -0.0649,0.04904 -0.0561,0.07796 -0.0152,0.06668 0.0363,-0.0095 0.73342,-0.204611 1.37054,-0.750007 0.29175,-0.25047 0.28399,-0.269168 0.35807,-0.421217 0.0635,0.03281 0.10689,0.08573 0.13158,0.116417 0.0353,0.04339 0.0547,0.07585 0.0713,0.02963 0.0607,-0.168626 -0.0258,-0.270578 -0.10795,-0.323143 0,0 0.0857,-0.263173 -0.0713,-0.527402 -0.0264,-0.04445 -0.18238,-0.185563 -0.36336,0.09419 m 0.24413,0.07232 c 0.10477,0.09772 0.0889,0.258234 0.0847,0.294923 0,0 -0.13405,-0.06315 -0.19438,-0.0889 -0.0596,-0.0254 -0.091,-0.0635 -0.0632,-0.1016 0.0921,-0.129823 0.13759,-0.125238 0.17287,-0.104423 m -1.78859,-0.1651 c -0.18344,0.232482 -0.19508,0.538692 -0.21943,0.879827 -0.0257,-0.07161 -0.1718,-0.529167 -0.63958,-0.790927 -0.0339,-0.01905 -0.10266,0.01693 -0.10936,0.124532 -0.004,0.06279 -0.0215,0.215193 0.0226,0.258585 0.0441,0.04339 0.17462,0.128058 0.1965,0.140052 0.0222,0.01198 0.0455,0.01341 0.0522,-0.0127 0.006,-0.02574 0.0363,-0.08678 0.0787,-0.04339 0.036,0.03634 0.266,0.226838 0.38559,0.630415 0.0208,0.05362 0.0706,0.05891 0.0822,-0.01728 0.0272,-0.186622 0.0423,-0.511175 0.0572,-0.609248 0.0208,-0.13829 0.0868,-0.423686 0.26211,-0.275167 0.0395,0.03387 0.0818,0.07796 0.0818,0.07796 0.0374,0.04657 0.084,0.100187 0.10654,0.04621 0.0346,-0.08184 0.0621,-0.216959 0.0247,-0.289984 -0.0169,-0.03281 -0.23389,-0.307268 -0.3817,-0.118885 m -1.80058,-0.01093 c -0.0674,0.03916 -1.78753,1.031875 -1.85702,1.077029 -0.0699,0.0448 -0.0945,0.05645 -0.10584,0.110421 -0.0113,0.05362 -0.0166,0.08467 -0.0198,0.09313 -0.0127,0.03633 -0.0215,0.08043 0.0811,0.01341 0.0321,-0.02082 1.76212,-1.020586 1.82245,-1.058686 0.0582,-0.03634 0.0921,-0.05151 0.11536,-0.107598 0.0233,-0.05539 0.0293,-0.06526 0.0416,-0.10442 0.0134,-0.04092 0.0265,-0.08502 -0.078,-0.02328 m -12.9861,0.08714 c -0.17427,0.221543 -0.18486,0.512585 -0.20849,0.837141 -0.0243,-0.06773 -0.16334,-0.50306 -0.60819,-0.752475 -0.0325,-0.01799 -0.0981,0.01622 -0.10407,0.118534 -0.004,0.05997 -0.0208,0.204964 0.0215,0.246239 0.0402,0.03951 0.34043,0.144992 0.1778,0.3175 -0.073,0.07726 -0.43886,0.4572 -0.51753,0.549275 -0.0787,0.09172 -0.0861,0.108654 -0.002,0.06174 0.0843,-0.04692 0.5715,-0.236009 0.65229,-0.719667 0.007,-0.06315 -0.007,-0.110773 -0.0212,-0.142523 0.007,0.0013 0.0138,0.0056 0.0215,0.01376 0.0342,0.03422 0.25329,0.215196 0.36689,0.599371 0.0198,0.05115 0.067,0.05644 0.078,-0.01622 0.0261,-0.177446 0.0402,-0.486479 0.0547,-0.579967 0.0198,-0.131585 0.0829,-0.402871 0.24906,-0.26176 0.0381,0.0321 0.078,0.07444 0.078,0.07444 0.0356,0.04445 0.0801,0.09525 0.10124,0.0441 0.0332,-0.07796 0.0593,-0.206727 0.0236,-0.276225 -0.0159,-0.03069 -0.22225,-0.2921 -0.36336,-0.113242 m 7.06931,0.625475 c -0.06,0.03069 -1.86301,0.724959 -2.03694,0.844902 -0.0875,0.06032 -0.16439,0.160515 -0.1972,0.27305 -0.0476,0.162983 -0.019,0.3302 0.0875,0.355955 0.0744,0.01765 0.11395,0.06491 0.13124,0.09172 0.007,0.01164 0.0201,0.0049 0.0243,-0.0019 0.0984,-0.162631 0.0296,-0.274815 -0.11289,-0.328083 -0.0568,-0.02117 -0.0762,-0.103717 0.14887,-0.224367 0.20708,-0.111479 1.81257,-0.740481 1.85914,-0.767646 0.0624,-0.03669 0.0995,-0.04939 0.127,-0.107244 0.0275,-0.05715 0.0346,-0.06738 0.0494,-0.107598 0.0162,-0.04268 0.0328,-0.08819 -0.0804,-0.02893 m -3.31187,0.512234 c -0.10513,0.1143 -0.13723,0.192616 -0.16863,0.2413 -0.043,0.06773 0.0113,0.09772 0.06,0.04516 0.0487,-0.05256 0.0822,-0.104775 0.22472,-0.101248 0.14217,0.0039 0.48295,-0.0092 0.3556,0.08432 -0.12735,0.09348 -0.21343,0.147812 -0.21343,0.147812 -0.0825,0.05962 -0.15557,0.170392 -0.01,0.108656 0.14605,-0.06173 0.33901,-0.159102 0.48683,-0.382058 0.043,-0.06456 0.0938,-0.151342 -0.10654,-0.181327 -0.20038,-0.02999 -0.52423,-0.07691 -0.629,0.03739 m 9.55922,0.129823 c -0.0346,0.08396 -0.17886,0.37465 -0.15664,0.717195 0.005,0.07902 0.0575,0.233188 0.17674,0.237421 0.0614,-2.64e-4 0.14147,-0.0448 0.19791,-0.238479 0.01,-0.04374 0.0159,-0.07902 0.0198,-0.09595 0.006,-0.02646 -0.013,-0.0575 -0.0332,0.0024 -0.0452,0.118534 -0.16228,0.20179 -0.24977,0.04269 -0.0141,-0.03175 -0.0737,-0.175684 0.0353,-0.491067 0.0215,-0.06068 0.0494,-0.1524 0.0494,-0.1524 0.0243,-0.06879 -0.005,-0.106185 -0.0395,-0.02188 m -12.51621,0.170392 c -0.0547,0.131585 -0.2794,0.583845 -0.26352,1.126066 0.004,0.125235 0.0741,0.370769 0.24871,0.38241 0.0903,0.0021 0.20919,-0.06456 0.30162,-0.367948 0.0162,-0.06914 0.0272,-0.123825 0.0335,-0.150987 0.0102,-0.04092 -0.0169,-0.09102 -0.049,0.0028 -0.0716,0.185563 -0.2473,0.31115 -0.36865,0.05609 -0.0194,-0.05009 -0.0998,-0.28081 0.0748,-0.773642 0.0346,-0.09525 0.0797,-0.238125 0.0797,-0.238125 0.0388,-0.107595 -0.002,-0.168275 -0.0572,-0.03669 m 15.82385,0.0028 c -0.0321,0.07796 -0.16581,0.347133 -0.1457,0.66393 0.005,0.07338 0.054,0.216252 0.16369,0.219778 0.0571,0 0.13088,-0.04127 0.18344,-0.220837 0.009,-0.04022 0.0148,-0.07303 0.0187,-0.0889 0.005,-0.024 -0.0127,-0.05292 -0.0307,0.0024 -0.0423,0.110066 -0.15028,0.186973 -0.23178,0.03951 -0.013,-0.02928 -0.0677,-0.162629 0.0328,-0.454377 0.0201,-0.0568 0.0459,-0.14111 0.0459,-0.14111 0.0222,-0.06385 -0.005,-0.09842 -0.0363,-0.02045 m -6.72395,0.0085 -0.19508,0.267407 c -0.006,0.0085 -0.005,0.02011 0.004,0.02574 l 0.33266,0.243065 c 0.008,0.0056 0.0194,0.0035 0.0257,-0.0049 l 0.16827,-0.231069 0.32315,0.236008 c 0.008,0.0056 0.0194,0.0035 0.0257,-0.0049 l 0.19509,-0.267759 c 0.006,-0.0081 0.005,-0.01976 -0.004,-0.02574 l -0.33267,-0.242358 c -0.008,-0.006 -0.0198,-0.0042 -0.0257,0.0046 l -0.16828,0.230717 -0.32314,-0.235302 c -0.008,-0.006 -0.0194,-0.0042 -0.0257,0.0046 m -2.93581,0.0695 c -0.024,0.07408 -0.042,0.131586 -0.01,0.216607 0.0321,0.08467 0.11924,0.277283 0.1337,0.3048 0.0145,0.02752 0.018,0.05856 -0.03,0.07902 -0.0476,0.02011 -0.2667,0.06703 -0.30727,-0.166158 -0.0406,-0.233185 -0.0441,-0.301625 -0.0646,-0.340783 -0.0204,-0.03951 -0.0395,-0.0448 -0.055,-0.0049 -0.0155,0.03951 -0.0251,0.12065 -0.0275,0.134054 -0.002,0.01304 -0.002,0.02257 0.006,0.03704 0.008,0.0141 0.0956,0.274815 0.0561,0.34643 -0.0392,0.07232 -0.23565,0.201083 -0.33831,0.06597 -0.049,-0.09454 -0.019,-0.333727 -0.019,-0.389819 0,-0.05609 -0.018,-0.0755 -0.042,-0.02963 -0.0236,0.04515 -0.0371,0.07514 -0.0356,0.11571 10e-4,0.04057 0.007,0.215193 0.004,0.270227 -0.004,0.05503 0,0.233188 0.10513,0.283633 0.10513,0.0501 0.25859,0.0035 0.37465,-0.215193 0.0896,0.130175 0.22543,0.130526 0.2988,0.104068 0.0621,-0.02294 0.13159,-0.116417 0.1517,-0.245533 0.0205,-0.129117 -0.013,-0.21731 -0.0536,-0.290335 -0.054,-0.08996 -0.09,-0.240594 -0.09,-0.240594 -0.019,-0.05362 -0.0332,-0.108656 -0.0571,-0.03457 m -5.08882,0.287867 c -0.0191,0.02928 -0.0617,0.162631 -0.0617,0.162631 0.0363,0.06174 0.4953,0.602895 0.38523,1.423458 -0.0155,0.0822 0.0127,0.07161 0.0328,0.03669 0.054,-0.09595 0.28434,-0.933801 -0.27128,-1.60796 -0.0614,-0.07479 -0.066,-0.0441 -0.085,-0.01482 m 9.84497,0.05856 c -0.013,0.04551 -0.0455,0.23989 -0.0533,0.279754 -0.008,0.03986 -0.007,0.07973 0.0123,0.113946 0.0198,0.03422 0.0706,0.152754 0.10689,0.249063 0.0367,0.09666 0.41452,0.824087 0.44944,0.889 0.0349,0.06456 0.042,0.112183 0.007,0.154868 -1.21285,1.279877 -3.55318,2.066573 -3.62796,2.109965 -0.0751,0.04374 -0.055,0.07726 0.0709,0.05539 0.18839,-0.03316 1.23966,-0.208843 1.53917,-0.353131 0.19791,-0.09525 0.88794,-0.434269 1.45239,-0.876652 -0.0155,0.1143 -0.0303,0.282223 -0.0222,0.495652 0.0381,1.0287 0.95815,0.857956 1.1998,0.805039 0.7239,-0.159101 1.60867,-1.159226 1.68381,-1.36031 0.0741,-0.198263 0.085,-0.37959 0.0684,-0.537281 0.1905,-0.103365 0.59972,-0.43321 0.59972,-0.43321 0.0169,0.438853 0.36618,0.570441 0.47343,0.589491 0.50341,0.0762 0.756,-0.344313 0.8636,-0.480838 0.0914,0.240597 0.31185,0.287163 0.42509,0.30974 0.43463,0.08608 0.51929,-0.221192 0.54187,-0.291042 0.13617,-0.423685 -0.10936,-0.739423 -0.14076,-0.774348 -0.0318,-0.03528 -0.0476,-0.0019 -0.0589,0.03916 -0.0113,0.04057 -0.0462,0.193323 -0.0681,0.288925 0,0 0.0907,0.147814 0.12312,0.223308 0.0325,0.0755 -0.0159,0.116417 -0.10936,0.128058 -0.26423,0.03211 -0.47484,-0.119237 -0.54751,-0.189441 -0.0727,-0.0695 0.006,-0.192969 0.0646,-0.340784 0.0466,-0.117826 -0.0402,-0.131937 -0.10689,-2.64e-4 -0.22402,0.588785 -0.53869,0.652285 -0.62124,0.674865 -0.74648,0.203551 -0.68192,-0.478722 -0.6791,-0.59055 0.002,-0.11148 -0.0794,-0.07021 -0.1711,0.0035 -0.31397,0.251883 -0.56691,0.40005 -0.70309,0.460726 -0.11712,-0.228951 -0.28716,-0.372885 -0.35912,-0.424743 -0.80716,-0.588785 -0.87383,0.599368 -0.84949,0.726723 0.12312,0.505177 0.94791,0.198967 1.07738,0.183795 0.12912,-0.01516 0.0868,0.155575 0.0141,0.256824 -0.1785,0.250473 -0.38523,0.430035 -0.57256,0.582435 -0.79974,0.65264 -1.20085,0.601133 -1.32468,0.597254 -0.78528,-0.02222 -0.71296,-0.868539 -0.66922,-1.049866 0.23601,-0.199673 0.43921,-0.41769 0.55704,-0.64135 0.048,-0.122767 0.13088,-0.401815 -0.019,-0.752123 -0.0783,-0.153811 -0.32632,-0.585611 -0.32632,-0.585611 0,0 0.18274,0.0056 0.20003,0.0053 0.0173,-7.94e-4 0.0519,-0.01834 0.007,-0.0695 -0.0441,-0.05115 -0.42756,-0.433565 -0.45049,-0.464257 -0.0233,-0.03069 -0.0445,-0.05292 -0.0575,-0.0074 m 2.42218,1.752248 c 0,0 -0.11007,0.0635 -0.41734,0.04268 -0.25788,-0.01765 -0.23566,-0.117826 -0.20038,-0.155926 0.0385,-0.04127 0.35419,-0.240242 0.61772,0.113241 m -15.42133,-1.672518 c -0.0596,0.142875 -0.30163,0.633235 -0.30304,1.227666 -2.6e-4,0.134761 0.06,0.398637 0.22896,0.424037 -0.11325,0.167572 -0.84032,1.582563 0.25929,2.090209 0.24694,0.113948 0.90346,0.358423 2.25742,-0.391935 0.0229,-0.0127 0.35031,-0.188384 0.49707,-0.418394 0.049,-0.07726 0.0741,-0.178858 0.0942,-0.27305 0.0356,-0.161573 0.0568,-0.320323 0.0568,-0.320323 0.0466,0.02328 0.74506,0.256823 1.03681,-0.423685 0.0233,-0.05327 0.0924,0.212725 0.13194,0.296333 0.0392,0.08325 0.20143,0.425802 0.58526,0.469545 0.0649,0.0071 0.34501,0.02787 0.38205,-0.51576 0.005,-0.09031 -0.0208,-0.285043 -0.22683,-0.479073 0.067,-0.02787 1.44357,-0.4572 2.61161,-0.157692 0.0501,-0.08643 0.15628,-0.240593 0.17886,-0.282575 0.0226,-0.04233 0.0423,-0.06173 -0.0166,-0.07302 -0.0589,-0.0113 -1.0728,-0.226483 -1.47038,-0.377825 -0.115,-0.03951 -0.93239,-0.364418 -1.01106,-0.411691 -0.0783,-0.04798 -0.25471,-0.06456 -0.38347,-0.02822 -0.12876,0.03669 -0.31503,0.108654 -0.34184,0.123119 -0.0272,0.0141 -0.0413,0.02469 -0.054,0.05292 -0.0127,0.02787 -0.10866,0.254351 -0.10866,0.254351 l 0.895,0.09631 c 0,0 0.0155,-0.04798 0.0797,-0.0254 0.15135,0.04763 0.61066,0.254706 0.66111,0.265996 0,0 -1.39735,0.257879 -1.46897,0.278694 -0.0713,0.02082 -0.2099,0.03387 -0.34466,0.180623 -0.13406,0.147108 -0.43639,0.428625 -0.7433,0.415925 -0.13018,-0.0127 -0.49883,-0.06809 -0.70062,-0.593022 -0.0162,-0.04798 -0.0406,-0.08396 -0.0593,-0.04904 -0.0183,0.03528 -0.0956,0.223309 -0.0582,0.354894 0.0367,0.131588 0.24059,0.700971 0.25082,0.78105 0.0275,0.212021 -0.24165,0.370771 -0.24412,0.372181 l 7.9e-4,-0.0011 c -0.29104,0.194733 -0.86713,0.499885 -1.63759,0.593373 -0.16687,0.02011 -0.86396,0.07549 -1.16205,-0.484013 -0.0494,-0.09208 -0.27341,-0.549275 0.1337,-1.304218 0.007,-0.0113 0.0124,-0.02328 0.0148,-0.03422 0.0741,-0.03881 0.15663,-0.142171 0.2293,-0.375356 0.0187,-0.07514 0.0314,-0.135467 0.0392,-0.164749 0.0113,-0.04445 -0.0138,-0.100187 -0.0494,0.0013 -0.0787,0.201787 -0.26,0.335137 -0.37394,0.05292 -0.0177,-0.05609 -0.091,-0.310446 0.10124,-0.846315 0.0385,-0.103716 0.0882,-0.259291 0.0882,-0.259291 0.043,-0.116769 0.004,-0.184502 -0.0561,-0.04163 m 4.54554,1.846437 c 0.31573,0.154165 0.3683,0.279754 0.40569,0.36054 0.0378,0.08114 -0.006,0.06173 -0.0526,0.05256 -0.24024,-0.04692 -0.36689,-0.164396 -0.43039,-0.249414 -0.0247,-0.03352 -0.0822,-0.109009 -0.037,-0.161574 0.0208,-0.02434 0.0554,-0.03069 0.1143,-0.0021 m -3.53378,-1.822802 c -0.0307,0.07443 -0.15839,0.331965 -0.13934,0.63641 0.005,0.07021 0.0511,0.20673 0.15698,0.210257 0.0547,0 0.12524,-0.03951 0.17533,-0.211315 0.009,-0.0388 0.0145,-0.0702 0.018,-0.08537 0.006,-0.02328 -0.012,-0.0508 -0.0296,0.0024 -0.0399,0.105127 -0.14393,0.178858 -0.22154,0.03775 -0.0127,-0.02787 -0.0653,-0.15593 0.031,-0.435682 0.0194,-0.05398 0.0441,-0.135114 0.0441,-0.135114 0.0215,-0.06103 -0.004,-0.09454 -0.0349,-0.01939 m 11.0931,0.224014 c -0.0533,0.06632 -0.58949,0.770112 -0.58949,0.770112 l -0.39017,-0.277987 c 0,0 0.15875,-0.03951 0.18661,-0.04798 0.0275,-0.0081 0.0438,-0.04374 -0.006,-0.0695 -0.0497,-0.02574 -0.51999,-0.213431 -0.55597,-0.227896 -0.0356,-0.01447 -0.0487,-0.03069 -0.0519,0.0074 -0.003,0.0381 -0.008,0.34784 -0.008,0.34784 0,0 -0.007,0.02151 0.0335,0.0448 0.0413,0.02363 0.0815,0.07338 0.11535,0.106892 0.0335,0.03352 0.47096,0.378883 0.49213,0.390879 0,0 -0.21872,0.384527 -0.24659,0.685446 -0.0279,0.300921 0.005,0.71614 0.41663,0.582438 0.11077,-0.03175 0.5715,-0.214842 0.67451,-0.536223 0.0335,-0.118534 0.12806,-0.331965 -0.0261,-0.548924 -0.0889,-0.127351 -0.44909,-0.342545 -0.44909,-0.342545 0,0 0.27623,-0.382058 0.30268,-0.428625 0.0265,-0.04692 0.12771,-0.3429 0.139,-0.414515 0.0116,-0.07162 0.0169,-0.107243 -0.0363,-0.04163 m -0.0945,1.623129 c -0.15276,0.125942 -0.47378,0.291748 -0.5641,0.300215 -0.0903,0.0088 -0.32949,-0.03493 -0.22542,-0.280107 0.0356,-0.07973 0.27481,-0.489301 0.27481,-0.489301 0.0896,0.04903 0.66746,0.343606 0.51471,0.469193 m -10.65354,-0.144285 -0.19508,0.267758 c -0.006,0.0081 -0.005,0.01976 0.003,0.02574 l 0.33302,0.242713 c 0.008,0.0056 0.0194,0.0035 0.0258,-0.0049 l 0.19508,-0.267406 c 0.006,-0.0085 0.005,-0.02011 -0.003,-0.02574 l -0.33338,-0.24271 c -0.008,-0.006 -0.0194,-0.0039 -0.0254,0.0046 m -0.502,0.447323 c -0.0307,0.07514 -0.1584,0.332669 -0.13899,0.636762 0.005,0.07021 0.0512,0.207082 0.15663,0.210609 0.055,0 0.12559,-0.03951 0.17568,-0.211313 0.009,-0.03916 0.0141,-0.0702 0.0177,-0.08573 0.006,-0.02294 -0.0113,-0.05045 -0.0293,0.0028 -0.0402,0.10513 -0.14393,0.178859 -0.22154,0.0374 -0.013,-0.02787 -0.0656,-0.15593 0.031,-0.435682 0.0194,-0.05398 0.0438,-0.13476 0.0438,-0.13476 0.0215,-0.06103 -0.004,-0.09455 -0.0349,-0.02011 m 6.14433,-0.251884 c -0.0307,0.07514 -0.1584,0.332669 -0.13899,0.636411 0.004,0.0702 0.0512,0.207433 0.15663,0.210608 0.055,0 0.12559,-0.03951 0.17568,-0.211315 0.009,-0.0388 0.0141,-0.0702 0.0177,-0.08537 0.006,-0.02328 -0.0116,-0.0508 -0.0296,0.0024 -0.0399,0.105127 -0.14358,0.178858 -0.22155,0.03775 -0.0127,-0.02787 -0.0653,-0.15593 0.031,-0.435681 0.0198,-0.05398 0.0441,-0.134761 0.0441,-0.134761 0.0215,-0.06138 -0.004,-0.09455 -0.0349,-0.02011 m 2.33115,0.334433 c -0.0427,0.08678 -0.21942,0.384527 -0.20707,0.743302 0.003,0.0829 0.0572,0.246592 0.19367,0.255765 0.0709,0.0024 0.16369,-0.04092 0.23636,-0.240948 0.0127,-0.04551 0.0212,-0.0822 0.0265,-0.09983 0.008,-0.02716 -0.013,-0.06032 -0.0385,0.0013 -0.0561,0.12206 -0.19368,0.203906 -0.28822,0.03422 -0.0152,-0.03387 -0.0776,-0.18697 0.0589,-0.511879 0.0275,-0.06315 0.0628,-0.157339 0.0628,-0.157339 0.0307,-0.07091 -0.002,-0.111477 -0.0445,-0.02469 m 8.91082,0.176387 c -0.031,0.08643 -0.043,0.142875 -0.0402,0.175332 0.004,0.03316 0.0148,0.1397 0.0148,0.1397 -0.0321,0.02574 -0.16863,0.111125 -0.30551,0.01024 0.009,-0.02893 0.0268,-0.08855 0.031,-0.121005 0.0148,-0.0508 -0.0162,-0.08819 -0.0413,-0.03563 -0.025,0.05221 -0.0829,0.227893 -0.12594,0.267403 -0.0434,0.03916 -0.0935,0.184505 -0.4198,0.03704 -0.0568,-0.02222 -0.15699,-0.09595 -0.31221,0.06032 -0.35278,0.327731 -0.5962,0.353483 -0.99166,0.49389 -0.048,0.02222 -0.14817,0.09737 -0.0293,0.08573 0.11924,-0.01236 0.62053,0 0.89323,-0.312915 0.0572,-0.05503 0.12206,-0.201435 0.33867,-0.116769 0.1203,0.04551 0.34184,0.235657 0.58349,-0.140051 0.14252,0.0949 0.35913,0.0568 0.3937,-0.04798 0.0342,-0.104069 0.0741,-0.208844 0.0737,-0.279752 -7.9e-4,-0.07126 -0.006,-0.1651 -0.006,-0.1651 -0.005,-0.05574 -0.025,-0.136525 -0.0564,-0.05045 m -13.41508,0.452615 c -0.0307,0.07514 -0.15875,0.332668 -0.139,0.63641 0.004,0.07056 0.0508,0.207081 0.15664,0.210963 0.0547,-2.65e-4 0.12559,-0.03986 0.17568,-0.211667 0.008,-0.03881 0.0141,-0.0702 0.0177,-0.08572 0.005,-0.02294 -0.0116,-0.05045 -0.0296,0.0028 -0.0399,0.10513 -0.14394,0.178859 -0.22155,0.03775 -0.0127,-0.02822 -0.0653,-0.155927 0.0314,-0.435681 0.0191,-0.05398 0.0437,-0.135112 0.0437,-0.135112 0.0215,-0.06103 -0.004,-0.09455 -0.0349,-0.01976 m -1.25483,0.07867 c -0.0303,0.07444 -0.1584,0.332317 -0.139,0.636413 0.005,0.06985 0.0512,0.207079 0.15699,0.210254 0.0547,0 0.12523,-0.03951 0.17568,-0.211312 0.008,-0.03881 0.0138,-0.06985 0.0177,-0.08537 0.005,-0.02328 -0.012,-0.05045 -0.0296,0.0024 -0.0402,0.105129 -0.14394,0.179213 -0.22155,0.03775 -0.0127,-0.02787 -0.0656,-0.155927 0.031,-0.435327 0.0194,-0.05433 0.0441,-0.135467 0.0441,-0.135467 0.0215,-0.06103 -0.005,-0.09455 -0.0353,-0.01939"
       style="fill:#231f20;fill-opacity:1;fill-rule:evenodd;stroke:none;stroke-width:0.264583"
       id="path1" />
  </g>
</svg>
