<?xml version="1.0" encoding="UTF-8" standalone="no"?>
<!-- Created with Inkscape (http://www.inkscape.org/) -->

<svg
   width="20.580856mm"
   height="6.1174521mm"
   viewBox="0 0 20.580856 6.1174521"
   version="1.1"
   id="svg1"
   xmlns:inkscape="http://www.inkscape.org/namespaces/inkscape"
   xmlns:sodipodi="http://sodipodi.sourceforge.net/DTD/sodipodi-0.dtd"
   xmlns="http://www.w3.org/2000/svg"
   xmlns:svg="http://www.w3.org/2000/svg">
  <sodipodi:namedview
     id="namedview1"
     pagecolor="#ffffff"
     bordercolor="#666666"
     borderopacity="1.0"
     inkscape:showpageshadow="2"
     inkscape:pageopacity="0.0"
     inkscape:pagecheckerboard="0"
     inkscape:deskcolor="#d1d1d1"
     inkscape:document-units="mm" />
  <defs
     id="defs1" />
  <g
     inkscape:label="Layer 1"
     inkscape:groupmode="layer"
     id="layer1"
     transform="translate(-125.99861,-60.762152)">
    <path
       d="m 138.83675,60.931318 c -0.0705,0.10654 -0.12241,0.362654 -0.0222,0.435327 0.0998,0.07338 0.24624,0.132643 0.24624,0.132643 -0.46602,0.570796 -0.78458,0.679805 -1.05728,0.839259 -0.0699,0.04127 -0.0561,0.07832 -0.0148,0.06703 0.0212,-0.0056 0.38771,-0.06244 0.81598,-0.387704 0.23142,-0.176036 0.37147,-0.47625 0.37147,-0.47625 0,0 0.11607,0.09666 0.13194,0.116416 0.0349,0.04339 0.0543,0.07585 0.0706,0.02963 0.061,-0.168979 -0.0251,-0.270579 -0.1076,-0.323144 0,0 0.0854,-0.263173 -0.0716,-0.527402 -0.0261,-0.0441 -0.18204,-0.18556 -0.36266,0.09419 m 0.24342,0.07232 c 0.10513,0.09772 0.0892,0.258234 0.085,0.294569 0,0 -0.13406,-0.06279 -0.19403,-0.08819 -0.06,-0.02611 -0.0917,-0.06385 -0.0639,-0.101952 0.0928,-0.129823 0.13793,-0.125235 0.17286,-0.104423 m -1.73567,-0.137935 c -0.0162,0.03916 -0.11218,0.303035 -0.11218,0.303035 0.0257,0.171802 0.24659,1.824215 0.26141,1.949802 0.0152,0.12559 0.33443,2.210155 0.35101,2.786946 -0.005,0.05891 0.0212,0.08079 0.048,0.02434 0.0272,-0.0568 0.21272,-0.441325 -0.008,-1.851379 -0.0159,-0.117475 -0.34395,-2.309636 -0.34395,-2.309636 0,0 0.19685,0.185209 0.22895,0.218723 0.0314,0.03351 0.0702,0.01588 0.0519,-0.0381 -0.018,-0.05397 -0.42192,-1.030464 -0.43498,-1.064331 -0.013,-0.03387 -0.0257,-0.05856 -0.0423,-0.01939 m -0.96696,0 c -0.0166,0.03916 -0.14641,0.324908 -0.14641,0.324908 0.004,0.02294 0.0342,0.09313 0.0554,0.237419 0.0219,0.149577 0.0533,0.364067 0.0875,0.600427 0,0 0.36159,2.051404 0.37606,2.261658 0.0148,0.209905 0.0229,0.273405 -0.005,0.29563 -0.0286,0.02257 -0.22825,0.145343 -0.31326,0.173566 -0.004,0.0013 -0.008,0.0039 -0.013,0.0071 -0.0459,-0.09666 -0.10971,-0.197554 -0.20002,-0.295979 -0.25718,-0.25894 -0.44168,-0.376767 -0.7112,-0.08008 -0.26917,0.29704 -0.29528,0.752475 0.0783,0.887942 0.11995,0.03104 0.32526,0.02858 0.60713,-0.04127 0.0582,-0.01587 0.24518,-0.0099 0.1584,0.128765 -0.0868,0.138642 -0.83326,1.049867 -1.69545,1.11407 -0.10901,0.0081 -0.87912,-0.02328 -0.75918,-0.824087 0.0124,-0.0829 0.0565,-0.28434 0.0748,-0.377473 0.002,-0.01447 0.003,-0.02787 0.001,-0.03986 0.0864,-0.119943 0.15663,-0.281868 0.17251,-0.49812 0.009,-0.12065 0.0335,-0.694621 -0.46002,-1.167696 -0.0762,-0.06703 -0.27693,-0.194379 -0.47766,-0.04692 -0.20109,0.14746 -0.53482,0.635707 -0.24589,0.921808 0.0497,0.04939 0.20285,0.13194 0.59408,0.107244 0.10724,-0.0067 0.37077,0.04904 0.43532,0.180975 0.0155,0.04022 0.0134,0.116065 -0.12029,0.223308 -0.13406,0.107247 -0.69886,0.524582 -1.32856,0.39723 -0.096,-0.01871 -0.33938,-0.08361 -0.66428,-0.364067 0.36794,-0.206729 0.69532,-0.401463 0.70873,-0.442383 0.0282,-0.08326 0.0709,-0.351015 0.0709,-0.351015 -0.10618,-0.05821 -1.07632,-0.381352 -2.19075,0.04304 -0.0804,0.03563 -0.0981,0.126293 -0.13617,0.20955 -0.0377,0.08361 -0.0582,0.166862 -0.0705,0.192262 -0.0127,0.02506 0.007,0.05574 0.0476,0.03281 0.0141,-0.0078 0.0998,-0.06279 0.25577,-0.109008 0.0963,-0.02858 0.30515,-0.03563 0.70626,0.331258 0.002,0.0028 0.005,0.006 0.009,0.01024 -0.3055,0.161218 -0.62689,0.327731 -0.82832,0.40005 -0.15028,0.05362 -1.07245,0.34149 -1.58221,-0.22719 -0.0526,-0.06138 -0.22966,-0.294569 -0.35348,-0.506587 -0.0554,-0.09067 -0.21484,-0.21308 -0.47837,-0.03634 -0.26317,0.17639 -0.47061,0.51788 -0.6664,0.985663 -0.0759,0.181327 -0.1651,0.428625 -0.24377,0.53481 -0.0783,0.10654 -0.19332,0.27164 -0.47307,0.0448 -0.11853,-0.09631 -0.45791,-0.525992 -0.44238,-1.293987 0.002,-0.08643 -0.0367,-0.15099 -0.0702,-0.0081 -0.0335,0.142875 -0.16298,1.309865 0.58808,1.752952 0.0854,0.05045 0.42298,0.159808 0.58808,-0.316442 0.0395,-0.125941 0.25506,-0.89817 0.7112,-1.246362 0.0935,-0.07091 0.2413,-0.178858 0.31115,-0.09207 0.0699,0.08678 0.15664,0.224012 0.15664,0.224012 0.0896,0.1397 0.67768,1.248834 2.40277,0.391938 0.11712,-0.05645 0.37782,-0.193323 0.66004,-0.347488 0.21096,0.184857 0.48472,0.416632 0.6731,0.513647 0.12982,0.06703 0.52917,0.261408 1.3462,-0.129472 0.0367,-0.01833 0.14887,-0.06668 0.26423,-0.169685 -0.0677,0.277283 -0.2667,1.151819 0.29175,1.433335 0.097,0.04868 0.89994,0.329848 2.11314,-0.868537 0.23283,-0.229658 0.28151,-0.650523 0.28151,-0.650523 0.003,-0.03881 0.0102,-0.100893 -0.003,-0.192617 0.14005,-0.06173 0.2854,-0.174976 0.35348,-0.328435 0.0413,-0.09984 0.12842,-0.405341 0.0603,-0.8636 -0.019,-0.1397 -0.36548,-2.143831 -0.36548,-2.143831 0,0 0.1972,0.185208 0.22895,0.218723 0.0317,0.03351 0.0702,0.01588 0.0522,-0.0381 -0.0183,-0.05398 -0.42228,-1.030465 -0.43533,-1.064331 -0.0131,-0.03387 -0.0258,-0.05856 -0.042,-0.01939 m -2.63984,3.288945 c 0,0 -0.16721,-0.02611 -0.26,-0.0028 -0.0656,0.01659 -0.20461,0.04304 -0.31785,-0.02469 -0.11324,-0.06773 0.0399,-0.19685 0.13088,-0.229658 0.12347,-0.04409 0.30057,0.02506 0.44697,0.257175 m -1.66899,0.316796 c -0.0296,0.01905 -0.21555,0.125587 -0.45755,0.257879 -0.018,-0.01939 -0.0353,-0.03986 -0.0533,-0.06068 -0.0557,-0.05221 -0.14923,-0.155927 -0.2667,-0.251883 0.22789,-0.0141 0.48895,-0.0028 0.77752,0.05468 m 4.03648,0.399696 c 0,0 -0.11712,0.08043 -0.39546,0.02681 -0.21026,-0.04022 -0.14782,-0.15099 -0.0956,-0.199674 0.0522,-0.04903 0.33514,-0.157691 0.49107,0.172861 M 134.33084,60.8658 c -0.0162,0.03916 -0.11183,0.303035 -0.11183,0.303035 0.0257,0.171802 0.24624,1.824215 0.26141,1.949802 0.0148,0.12559 0.33408,2.109259 0.35066,2.68605 -0.004,0.05891 0.0212,0.08079 0.0483,0.024 0.0268,-0.05644 0.21238,-0.340077 -0.008,-1.750132 -0.0159,-0.117475 -0.34431,-2.309635 -0.34431,-2.309635 0,0 0.1972,0.185209 0.22895,0.218723 0.0317,0.03351 0.0702,0.01588 0.0522,-0.0381 -0.0183,-0.05398 -0.42227,-1.030464 -0.43532,-1.064331 -0.0131,-0.03387 -0.0261,-0.05856 -0.0423,-0.01939 m 11.02783,0.161219 c -0.0702,0.106539 -0.12241,0.362301 -0.0219,0.435326 0.0998,0.07373 0.24624,0.132647 0.24624,0.132647 -0.46637,0.570793 -1.38041,0.977193 -1.59843,1.146878 -0.0649,0.04904 -0.0561,0.07796 -0.0148,0.06667 0.036,-0.0095 0.73307,-0.20461 1.36984,-0.750358 0.2921,-0.250118 0.28434,-0.268817 0.35842,-0.420862 0.0635,0.03245 0.10724,0.08537 0.13194,0.116417 0.0353,0.04339 0.054,0.07585 0.0705,0.02963 0.061,-0.168981 -0.025,-0.270581 -0.10759,-0.323146 0,0 0.0861,-0.263171 -0.0716,-0.527402 -0.0261,-0.0441 -0.18168,-0.18556 -0.36265,0.09419 m 0.24341,0.07267 c 0.10513,0.09737 0.0889,0.257878 0.0854,0.294568 0,0 -0.13406,-0.06315 -0.19438,-0.08855 -0.0596,-0.02574 -0.0914,-0.06385 -0.0639,-0.1016 0.0928,-0.130172 0.13794,-0.125587 0.17286,-0.10442 m -1.78823,-0.165807 c -0.18309,0.232834 -0.19508,0.538692 -0.21907,0.879827 -0.0258,-0.07161 -0.1718,-0.528812 -0.63959,-0.790927 -0.0339,-0.01871 -0.10266,0.01728 -0.10936,0.124884 -0.004,0.06315 -0.0219,0.215193 0.0222,0.258585 0.0441,0.04304 0.17497,0.128058 0.19685,0.1397 0.0222,0.01236 0.0455,0.01376 0.0522,-0.01236 0.006,-0.02612 0.0363,-0.08678 0.0783,-0.04339 0.036,0.03634 0.266,0.226483 0.38594,0.630767 0.0208,0.05327 0.0702,0.05856 0.0818,-0.01765 0.0272,-0.186619 0.0423,-0.511175 0.0572,-0.6096 0.0212,-0.137935 0.0871,-0.422979 0.26246,-0.275167 0.0395,0.03387 0.0819,0.07796 0.0819,0.07796 0.0374,0.04692 0.0836,0.100187 0.10654,0.04621 0.0342,-0.08114 0.0621,-0.216958 0.024,-0.28998 -0.0166,-0.03246 -0.23318,-0.306917 -0.38135,-0.118888 m -1.80022,-0.01058 c -0.0677,0.03916 -1.78788,1.032227 -1.85738,1.077032 -0.0695,0.0448 -0.0945,0.05644 -0.10583,0.110066 -0.0109,0.05362 -0.0166,0.08502 -0.0198,0.09349 -0.0127,0.03598 -0.0212,0.08043 0.0815,0.01341 0.0317,-0.02082 1.76177,-1.020588 1.8221,-1.058333 0.0582,-0.03634 0.0921,-0.05186 0.11536,-0.107598 0.0236,-0.05609 0.0293,-0.06597 0.0416,-0.104421 0.0134,-0.04127 0.0268,-0.08537 -0.0776,-0.02363 m -9.15881,0.156985 c -0.0931,0.0448 -3.36585,1.70815 -3.46146,1.756482 -0.0949,0.04833 -0.12347,0.06879 -0.1397,0.137583 -0.0166,0.06879 -0.0247,0.105127 -0.0293,0.119592 -0.0145,0.04621 -0.0353,0.09419 0.10372,0.02011 0.043,-0.02328 3.34081,-1.687335 3.41595,-1.733902 0.0751,-0.04621 0.11994,-0.0628 0.1524,-0.134056 0.0321,-0.0702 0.0399,-0.0829 0.0572,-0.132292 0.0187,-0.05256 0.0413,-0.100894 -0.0988,-0.03352 m -2.63807,0.03845 c -0.0307,0.07514 -0.1584,0.33302 -0.139,0.636762 0.005,0.0702 0.0512,0.207081 0.15699,0.210608 0.0547,0 0.12523,-0.03986 0.17533,-0.211667 0.009,-0.0388 0.0145,-0.06985 0.018,-0.08502 0.005,-0.02328 -0.0116,-0.0508 -0.0296,0.0021 -0.0402,0.105481 -0.14358,0.17921 -0.2219,0.03775 -0.0124,-0.02787 -0.0653,-0.15593 0.0314,-0.43533 0.0194,-0.05433 0.0441,-0.135112 0.0441,-0.135112 0.0215,-0.06103 -0.004,-0.09454 -0.0353,-0.02011 m 3.30623,0.01304 c -0.0303,0.07479 -0.1584,0.332668 -0.13864,0.63641 0.004,0.0702 0.0508,0.207433 0.15663,0.210963 0.0547,-2.65e-4 0.12524,-0.03986 0.17569,-0.211667 0.008,-0.03916 0.0137,-0.06985 0.0176,-0.08537 0.005,-0.02328 -0.0116,-0.05045 -0.0296,0.0021 -0.0399,0.105481 -0.14393,0.17921 -0.2219,0.03775 -0.0123,-0.02787 -0.0653,-0.155575 0.0314,-0.43533 0.019,-0.05433 0.0441,-0.135112 0.0441,-0.135112 0.0215,-0.06103 -0.005,-0.09454 -0.0353,-0.01976 m 2.03729,0.05433 c -0.0307,0.07479 -0.15875,0.332671 -0.13935,0.636764 0.005,0.0702 0.0515,0.206727 0.15664,0.210609 0.0554,-2.65e-4 0.12559,-0.03986 0.17568,-0.211667 0.009,-0.03881 0.0145,-0.0702 0.018,-0.08537 0.005,-0.02328 -0.0116,-0.0508 -0.0296,0.0024 -0.0399,0.105479 -0.14394,0.178858 -0.2219,0.03775 -0.0124,-0.02787 -0.0649,-0.155927 0.0314,-0.435679 0.0194,-0.05433 0.0437,-0.135115 0.0437,-0.135115 0.0219,-0.06103 -0.004,-0.09454 -0.0346,-0.01976 m -7.04921,0.07161 c -0.0441,0.150284 -0.23389,0.669574 -0.16651,1.265415 0.0155,0.137935 0.11042,0.402519 0.2914,0.399344 0.0931,-0.0053 0.20955,-0.09031 0.27622,-0.43321 0.0106,-0.07726 0.0166,-0.138997 0.0208,-0.169334 0.007,-0.04621 -0.0258,-0.09913 -0.0501,0.0074 -0.0564,0.21096 -0.22578,0.365828 -0.37465,0.0956 -0.0247,-0.05362 -0.12876,-0.300214 0.005,-0.859718 0.0268,-0.108305 0.06,-0.269875 0.06,-0.269875 0.0303,-0.122415 -0.018,-0.185208 -0.0621,-0.03563 m -1.21073,0.154165 c -0.17427,0.221544 -0.18521,0.512585 -0.20884,0.837142 -0.0243,-0.06773 -0.16334,-0.503063 -0.60819,-0.752123 -0.0325,-0.01834 -0.0981,0.01622 -0.10407,0.118533 -0.004,0.05997 -0.0205,0.204965 0.0215,0.245885 0.0402,0.03951 0.34078,0.145347 0.1778,0.3175 -0.0727,0.07726 -0.4385,0.457555 -0.51753,0.549275 -0.0787,0.09207 -0.0861,0.108657 -0.002,0.06174 0.0843,-0.04657 0.57185,-0.236008 0.65229,-0.719666 0.006,-0.06315 -0.006,-0.110774 -0.0208,-0.142524 0.007,0.0019 0.0138,0.0056 0.0215,0.01376 0.0339,0.03422 0.25295,0.215548 0.36689,0.599723 0.0194,0.05115 0.0667,0.05609 0.0776,-0.01622 0.0265,-0.1778 0.0409,-0.486479 0.055,-0.580319 0.0198,-0.131233 0.0822,-0.402518 0.24906,-0.26176 0.0381,0.0321 0.078,0.07443 0.078,0.07443 0.0353,0.04445 0.0797,0.09525 0.10125,0.04374 0.0328,-0.07761 0.0593,-0.206021 0.0233,-0.275871 -0.0159,-0.03069 -0.22225,-0.2921 -0.36301,-0.113241 m 15.0435,0.866068 c -0.0346,0.08431 -0.17885,0.37465 -0.15663,0.717198 0.005,0.07902 0.0579,0.233538 0.17674,0.237419 0.0617,0 0.14147,-0.0448 0.19791,-0.238831 0.01,-0.04374 0.0159,-0.07867 0.0201,-0.0956 0.006,-0.02646 -0.0134,-0.0575 -0.0335,0.0024 -0.0452,0.118533 -0.16228,0.201438 -0.24977,0.04233 -0.0145,-0.0314 -0.0737,-0.175329 0.0353,-0.490712 0.0215,-0.06103 0.0494,-0.1524 0.0494,-0.1524 0.0243,-0.06879 -0.005,-0.106188 -0.0395,-0.02188 m 3.3073,0.173215 c -0.0318,0.07761 -0.16546,0.346779 -0.145,0.663927 0.005,0.07338 0.0533,0.2159 0.16369,0.219781 0.0572,0 0.13089,-0.04163 0.1831,-0.220488 0.009,-0.04092 0.0148,-0.07338 0.0187,-0.0889 0.006,-0.02468 -0.0123,-0.05327 -0.0307,0.0021 -0.042,0.110067 -0.15064,0.186621 -0.23142,0.03951 -0.0134,-0.02928 -0.0677,-0.162632 0.0325,-0.454732 0.0201,-0.05644 0.0459,-0.140758 0.0459,-0.140758 0.0226,-0.06385 -0.005,-0.09842 -0.0367,-0.02045 m -14.06771,0.07232 c -0.11536,0.231069 -0.0808,0.505532 -0.0519,0.8128 -0.0314,-0.06068 -0.2152,-0.449439 -0.63183,-0.623006 -0.03,-0.01236 -0.0808,0.02857 -0.0709,0.125238 0.006,0.0568 0.013,0.194733 0.0554,0.227541 0.042,0.03281 0.15981,0.09172 0.17921,0.09948 0.0194,0.0081 0.0388,0.0064 0.0406,-0.01799 0.002,-0.024 0.0173,-0.08185 0.0575,-0.04833 0.0342,0.02752 0.24835,0.167568 0.40287,0.512233 0.0247,0.04516 0.0653,0.04339 0.0638,-0.02611 -0.004,-0.169686 -0.0381,-0.461079 -0.0402,-0.550334 -0.003,-0.125941 0.01,-0.38876 0.17322,-0.2794 0.037,0.02506 0.0776,0.05927 0.0776,0.05927 0.0367,0.03669 0.0822,0.07832 0.0928,0.02752 0.0162,-0.07726 0.0194,-0.201436 -0.0215,-0.262112 -0.0183,-0.02646 -0.23319,-0.243417 -0.32668,-0.0568 m 7.8613,-0.06421 -0.16827,0.231071 -0.32279,-0.235656 c -0.008,-0.006 -0.0198,-0.0039 -0.0257,0.0046 l -0.19544,0.267758 c -0.006,0.0081 -0.005,0.02011 0.004,0.02574 l 0.33303,0.242711 c 0.008,0.0056 0.0198,0.0039 0.0257,-0.0046 l 0.16827,-0.231071 0.3228,0.235656 c 0.008,0.0056 0.0194,0.0039 0.0257,-0.0046 l 0.19544,-0.267758 c 0.006,-0.0085 0.004,-0.02011 -0.004,-0.02574 l -0.33232,-0.24271 c -0.008,-0.006 -0.0198,-0.0039 -0.0261,0.0046 m -6.06284,0.08008 -0.16828,0.230717 -0.32314,-0.235656 c -0.008,-0.0056 -0.0194,-0.0035 -0.0257,0.0049 l -0.19508,0.267407 c -0.006,0.0085 -0.004,0.02011 0.004,0.02611 l 0.33278,0.242877 c 0.008,0.0056 0.0198,0.0039 0.0261,-0.0049 l 0.16828,-0.230716 0.32279,0.235656 c 0.008,0.0056 0.0198,0.0039 0.0257,-0.0049 l 0.19508,-0.267406 c 0.006,-0.0085 0.005,-0.02011 -0.004,-0.02611 l -0.33266,-0.242713 c -0.008,-0.0056 -0.0198,-0.0035 -0.0258,0.0049 m 2.84021,0.03069 c -0.0741,0.02434 -0.91792,0.326319 -1.00047,0.359482 -0.0769,0.03069 -0.0977,0.05009 -0.11219,0.10301 -0.0148,0.05327 -0.0222,0.08396 -0.0257,0.09208 -0.0148,0.03528 -0.0335,0.06526 0.0801,0.01871 0.055,-0.02257 0.88618,-0.308682 0.96449,-0.3429 0.0632,-0.02752 0.0949,-0.04586 0.12207,-0.10019 0.0265,-0.05398 0.0328,-0.0635 0.0476,-0.1016 0.0162,-0.04022 0.0349,-0.06456 -0.0759,-0.02858 m 4.52614,0.305506 c -0.013,0.04515 -0.0459,0.239536 -0.0536,0.279752 -0.008,0.04022 -0.007,0.07973 0.0124,0.113948 0.0198,0.03422 0.0705,0.152752 0.10689,0.249061 0.037,0.09631 0.41451,0.824441 0.44944,0.888648 0.0349,0.06456 0.0423,0.112887 0.007,0.15522 -1.2125,1.27988 -3.55282,2.066573 -3.62761,2.110317 -0.0748,0.04304 -0.0547,0.07691 0.0709,0.05503 0.18839,-0.03316 1.23967,-0.208843 1.53918,-0.353483 0.1979,-0.09525 0.88794,-0.433917 1.45273,-0.8763 -0.0159,0.1143 -0.0303,0.282223 -0.0226,0.4953 0.0381,1.029054 0.9585,0.858308 1.1998,0.805392 0.7239,-0.159102 1.60867,-1.159227 1.68381,-1.360311 0.0744,-0.19826 0.0854,-0.379589 0.0684,-0.537633 0.1905,-0.10301 0.59972,-0.432858 0.59972,-0.432858 0.0169,0.438502 0.36618,0.570441 0.47378,0.589139 0.50341,0.07655 0.756,-0.344312 0.86325,-0.480483 0.0914,0.240242 0.31185,0.28716 0.42545,0.309737 0.43462,0.08608 0.51893,-0.220837 0.54151,-0.291393 0.13617,-0.423334 -0.10936,-0.739069 -0.14076,-0.773994 -0.0317,-0.03528 -0.0476,-0.0013 -0.0589,0.0388 -0.0109,0.04092 -0.0462,0.193675 -0.0677,0.288925 0,0 0.0907,0.148167 0.12312,0.223663 0.0321,0.07514 -0.0159,0.116416 -0.10937,0.128058 -0.26458,0.0321 -0.47519,-0.11924 -0.54821,-0.18909 -0.0727,-0.06985 0.007,-0.193675 0.0649,-0.341489 0.0469,-0.117827 -0.0399,-0.131938 -0.10689,0 -0.22402,0.588787 -0.53869,0.652287 -0.6216,0.675216 -0.74612,0.2032 -0.68156,-0.47907 -0.67874,-0.590902 0.002,-0.111831 -0.0794,-0.07056 -0.17145,0.0035 -0.31362,0.251884 -0.56656,0.40005 -0.70274,0.46073 -0.11676,-0.228955 -0.28716,-0.372888 -0.35912,-0.424746 -0.80716,-0.588786 -0.87383,0.599371 -0.84949,0.726723 0.12312,0.505177 0.94791,0.198966 1.07738,0.183798 0.12912,-0.01553 0.0868,0.155575 0.0145,0.25682 -0.17921,0.250122 -0.38558,0.429684 -0.57291,0.582438 -0.79974,0.652637 -1.20085,0.601134 -1.32433,0.5969 -0.78528,-0.02223 -0.71296,-0.868891 -0.66957,-1.049515 0.23636,-0.200025 0.43921,-0.417689 0.55704,-0.64135 0.048,-0.122766 0.13123,-0.401814 -0.0187,-0.751768 -0.0787,-0.154165 -0.32632,-0.586317 -0.32632,-0.586317 0,0 0.18274,0.0056 0.20003,0.0056 0.0169,-2.65e-4 0.0515,-0.01871 0.007,-0.0695 -0.0441,-0.05115 -0.42756,-0.433562 -0.45049,-0.464254 -0.0233,-0.03069 -0.0441,-0.05292 -0.0571,-0.0074 m 2.42217,1.7526 c 0,0 -0.11042,0.06314 -0.41769,0.04233 -0.25788,-0.01765 -0.23565,-0.11783 -0.20002,-0.15593 0.0381,-0.04163 0.35383,-0.240241 0.61771,0.113597 m -3.31682,-1.424872 c -0.0533,0.06597 -0.58949,0.770115 -0.58949,0.770115 l -0.39017,-0.278341 c 0,0 0.15875,-0.03986 0.18662,-0.04798 0.0282,-0.0081 0.0437,-0.0441 -0.006,-0.0695 -0.0501,-0.02574 -0.52034,-0.213432 -0.55597,-0.227542 -0.036,-0.01482 -0.049,-0.03104 -0.0522,0.0071 -0.003,0.0381 -0.008,0.347485 -0.008,0.347485 0,0 -0.007,0.02188 0.0339,0.04516 0.0413,0.02328 0.0815,0.07303 0.115,0.106892 0.0335,0.03351 0.47096,0.378528 0.49212,0.390876 0,0 -0.21872,0.384175 -0.24659,0.685094 -0.0275,0.301273 0.006,0.716492 0.41663,0.582438 0.11078,-0.03175 0.57186,-0.214842 0.67451,-0.535871 0.0335,-0.118534 0.12806,-0.332317 -0.0257,-0.548921 -0.0892,-0.127354 -0.44944,-0.3429 -0.44944,-0.3429 0,0 0.27658,-0.381706 0.30268,-0.428625 0.0268,-0.04657 0.12806,-0.342548 0.13935,-0.414515 0.0109,-0.07161 0.0169,-0.107243 -0.0367,-0.04092 m -0.0942,1.62278 c -0.1531,0.125942 -0.47413,0.291745 -0.56444,0.300212 -0.0903,0.0088 -0.3295,-0.03528 -0.22543,-0.280458 0.0356,-0.07937 0.27517,-0.48895 0.27517,-0.48895 0.0892,0.04904 0.66746,0.343254 0.5147,0.469196 m -11.7094,-1.603375 -0.16863,0.230717 -0.32279,-0.235657 c -0.008,-0.0056 -0.0198,-0.0035 -0.0257,0.0049 l -0.19509,0.267404 c -0.006,0.0085 -0.005,0.02011 0.004,0.02574 l 0.33267,0.24271 c 0.008,0.006 0.0194,0.0039 0.0257,-0.0046 l 0.16828,-0.230717 0.32314,0.235302 c 0.008,0.006 0.0198,0.0039 0.0257,-0.0046 l 0.19508,-0.267406 c 0.006,-0.0085 0.005,-0.02011 -0.004,-0.02611 l -0.33267,-0.242711 c -0.008,-0.0056 -0.0198,-0.0035 -0.0258,0.0049 m -1.57974,0.08079 c -0.0349,0.09207 -0.18556,0.410282 -0.13934,0.772936 0.0106,0.08361 0.0811,0.244475 0.22048,0.240596 0.072,-0.0042 0.16193,-0.0568 0.21626,-0.2667 0.009,-0.04692 0.0138,-0.08467 0.0176,-0.103365 0.005,-0.02822 -0.019,-0.05997 -0.0388,0.0053 -0.0452,0.129116 -0.1771,0.224718 -0.28893,0.06138 -0.0183,-0.03246 -0.0959,-0.181681 0.0116,-0.523875 0.0219,-0.06632 0.0487,-0.1651 0.0487,-0.1651 0.0243,-0.07514 -0.012,-0.11289 -0.0476,-0.02117 m 3.04447,0.132292 c -0.0307,0.07479 -0.15839,0.332669 -0.13934,0.63641 0.005,0.07056 0.0512,0.207082 0.15734,0.210963 0.0543,-2.64e-4 0.12488,-0.03987 0.17533,-0.212021 0.008,-0.0388 0.0141,-0.06985 0.018,-0.08502 0.005,-0.02328 -0.0124,-0.0508 -0.0296,0.0024 -0.0402,0.105481 -0.14428,0.178858 -0.22189,0.03775 -0.013,-0.02787 -0.0653,-0.155927 0.031,-0.435682 0.0194,-0.05433 0.0441,-0.135112 0.0441,-0.135112 0.0215,-0.06103 -0.004,-0.09455 -0.0349,-0.01976 m 16.47508,1.951918 c -0.0311,0.08643 -0.043,0.14323 -0.0399,0.176038 0.004,0.03316 0.0148,0.139346 0.0148,0.139346 -0.0321,0.02611 -0.16898,0.110773 -0.3055,0.01024 0.009,-0.02893 0.0268,-0.08855 0.0303,-0.121356 0.0148,-0.05045 -0.0159,-0.08819 -0.0409,-0.03563 -0.025,0.05256 -0.0829,0.228245 -0.12594,0.267404 -0.043,0.03951 -0.0935,0.184856 -0.41981,0.03704 -0.0568,-0.02188 -0.15698,-0.09595 -0.3122,0.06068 -0.35278,0.327729 -0.5962,0.353483 -0.99166,0.493887 -0.048,0.02223 -0.14817,0.09737 -0.0289,0.08537 0.11924,-0.01199 0.62054,2.65e-4 0.89288,-0.31256 0.0572,-0.05574 0.12241,-0.20179 0.33867,-0.116771 0.12029,0.04551 0.34184,0.235304 0.58384,-0.140052 0.14217,0.0949 0.35878,0.0568 0.39335,-0.04798 0.0346,-0.104423 0.0741,-0.208846 0.0737,-0.279755 -2.6e-4,-0.07126 -0.007,-0.1651 -0.007,-0.1651 -0.005,-0.05609 -0.0243,-0.136525 -0.0561,-0.0508 m -8.91752,0.16863 c -0.0307,0.07444 -0.15839,0.332668 -0.13899,0.63641 0.005,0.0702 0.0511,0.207081 0.15698,0.210608 0.0547,0 0.12524,-0.03951 0.17533,-0.211666 0.009,-0.03881 0.0145,-0.06985 0.0177,-0.08502 0.006,-0.02328 -0.0116,-0.0508 -0.0296,0.0021 -0.0399,0.105479 -0.14358,0.17921 -0.22155,0.03775 -0.0127,-0.02787 -0.0649,-0.155575 0.0311,-0.435327 0.0198,-0.05433 0.0441,-0.135114 0.0441,-0.135114 0.0219,-0.06138 -0.004,-0.09454 -0.0349,-0.01977 m -6.39657,0.230717 c -0.0328,0.08608 -0.17392,0.384175 -0.13052,0.724252 0.01,0.07832 0.0762,0.2286 0.20637,0.225425 0.0674,-0.0042 0.15205,-0.05362 0.20285,-0.249767 0.008,-0.0441 0.013,-0.07973 0.0166,-0.09701 0.005,-0.02646 -0.018,-0.05609 -0.0363,0.0046 -0.0427,0.121353 -0.1658,0.21096 -0.27093,0.05785 -0.0173,-0.03034 -0.09,-0.170391 0.0109,-0.491066 0.0205,-0.06209 0.0455,-0.154517 0.0455,-0.154517 0.0229,-0.0702 -0.0109,-0.105833 -0.0445,-0.01976 m 2.76613,0.168978 c -0.0699,0.03528 -1.08585,0.47625 -1.15817,0.516822 -0.0727,0.04022 -0.0977,0.05044 -0.11218,0.103716 -0.0145,0.05256 -0.0222,0.08325 -0.0257,0.09172 -0.0148,0.03493 -0.0265,0.07902 0.0801,0.01833 0.0332,-0.01871 1.06257,-0.466021 1.12219,-0.499887 0.0596,-0.03422 0.0952,-0.04621 0.12206,-0.100542 0.0268,-0.05398 0.0335,-0.0635 0.0483,-0.101246 0.0155,-0.04022 0.0314,-0.08326 -0.0765,-0.02893 m -4.43406,0.120298 c -0.0741,0.024 -1.24531,0.520348 -1.32786,0.553508 -0.0773,0.03034 -0.0981,0.05045 -0.11253,0.103011 -0.0145,0.05327 -0.0222,0.08396 -0.0254,0.09243 -0.0148,0.03493 -0.0335,0.06491 0.0797,0.01834 0.055,-0.02294 1.21426,-0.502709 1.29258,-0.536927 0.0628,-0.02752 0.0949,-0.04586 0.12171,-0.10019 0.0272,-0.05433 0.0335,-0.0635 0.048,-0.1016 0.0162,-0.04057 0.0349,-0.06456 -0.0762,-0.02857"
       style="fill:#231f20;fill-opacity:1;fill-rule:evenodd;stroke:none;stroke-width:0.264583"
       id="path1-1" />
  </g>
</svg>
