<?xml version="1.0" encoding="UTF-8" standalone="no"?>
<!-- Created with Inkscape (http://www.inkscape.org/) -->

<svg
   width="19.774471mm"
   height="6.3067093mm"
   viewBox="0 0 19.774471 6.3067093"
   version="1.1"
   id="svg1"
   xmlns="http://www.w3.org/2000/svg"
   xmlns:svg="http://www.w3.org/2000/svg">
  <defs
     id="defs1" />
  <g
     id="layer1"
     transform="translate(-172.96239,-18.643093)">
    <path
       d="m 184.99428,18.812154 c -0.0702,0.10654 -0.12207,0.36266 -0.0222,0.43568 0.10019,0.0734 0.24624,0.13265 0.24624,0.13265 -0.46567,0.57079 -0.78423,0.67945 -1.05692,0.83926 -0.0699,0.0409 -0.0561,0.078 -0.0148,0.067 0.0208,-0.006 0.3877,-0.0628 0.81562,-0.38805 0.23142,-0.17568 0.37183,-0.4759 0.37183,-0.4759 0,0 0.11571,0.0963 0.13159,0.11642 0.0349,0.0434 0.0543,0.0759 0.0705,0.0296 0.061,-0.16898 -0.0254,-0.27093 -0.10724,-0.3235 0,0 0.0854,-0.26317 -0.072,-0.52705 -0.0261,-0.0445 -0.18168,-0.18556 -0.36265,0.0938 m 0.24376,0.0727 c 0.10478,0.0974 0.0886,0.25787 0.0847,0.29456 0,0 -0.13406,-0.0628 -0.19403,-0.0885 -0.0596,-0.0257 -0.0914,-0.0639 -0.0639,-0.10196 0.0928,-0.12982 0.13794,-0.12488 0.17321,-0.10406 m 6.27839,0.0229 c -0.0699,0.10654 -0.12206,0.36266 -0.0219,0.43533 0.0998,0.0734 0.24623,0.133 0.24623,0.133 -0.46566,0.57044 -1.38041,0.97684 -1.59843,1.14653 -0.0646,0.0494 -0.0561,0.0783 -0.0148,0.0674 0.036,-0.0102 0.73308,-0.20532 1.37019,-0.75071 0.2921,-0.25012 0.28399,-0.26917 0.35807,-0.42087 0.0635,0.0325 0.10724,0.0854 0.13194,0.11607 0.0349,0.0434 0.0543,0.0762 0.0709,0.0296 0.0607,-0.16863 -0.0254,-0.27023 -0.1076,-0.32314 0,0 0.0854,-0.26318 -0.0713,-0.52741 -0.0265,-0.0441 -0.18239,-0.18521 -0.36336,0.0942 m 0.24377,0.0727 c 0.10513,0.0974 0.0889,0.25788 0.0847,0.29457 0,0 -0.13406,-0.0632 -0.19403,-0.0885 -0.06,-0.0257 -0.0914,-0.0639 -0.0635,-0.1016 0.0924,-0.12982 0.13758,-0.12559 0.17286,-0.10442 m -1.78858,-0.16581 c -0.1831,0.23283 -0.19474,0.53905 -0.21908,0.87983 -0.0257,-0.0713 -0.1718,-0.52881 -0.63959,-0.79057 -0.0339,-0.019 -0.10301,0.0173 -0.10936,0.12488 -0.004,0.0624 -0.0219,0.21519 0.0226,0.25823 0.0441,0.043 0.17463,0.12806 0.1965,0.1397 0.0219,0.0124 0.0455,0.0141 0.0522,-0.0123 0.006,-0.0261 0.0363,-0.0868 0.0787,-0.043 0.0356,0.036 0.266,0.22648 0.38559,0.63041 0.0208,0.0536 0.0702,0.0586 0.0818,-0.0173 0.0275,-0.18697 0.0423,-0.51153 0.0572,-0.6096 0.0212,-0.13864 0.0871,-0.42333 0.26247,-0.27516 0.0399,0.0335 0.0818,0.078 0.0818,0.078 0.037,0.0469 0.084,0.10054 0.10654,0.0462 0.0342,-0.0815 0.0621,-0.21695 0.0243,-0.28998 -0.0166,-0.0325 -0.23354,-0.30727 -0.3817,-0.11924 m -1.80023,-0.0106 c -0.0674,0.0395 -1.78752,1.03223 -1.85737,1.07738 -0.0695,0.0445 -0.0942,0.0561 -0.10548,0.11007 -0.0113,0.0533 -0.0169,0.0847 -0.0198,0.0935 -0.0127,0.0356 -0.0215,0.0801 0.0811,0.013 0.0318,-0.0208 1.76178,-1.02023 1.82245,-1.05798 0.0579,-0.0367 0.0917,-0.0522 0.11536,-0.10795 0.0229,-0.0557 0.0293,-0.0656 0.0416,-0.10442 0.013,-0.0413 0.0265,-0.085 -0.078,-0.0236 m -5.99476,0.14429 c -0.0162,0.0392 -0.14605,0.32491 -0.14605,0.32491 0.004,0.0229 0.0342,0.0938 0.0554,0.23777 0.0194,0.13159 0.43744,2.49837 0.42792,2.67546 -0.005,0.0374 -1.02411,0.12948 -1.08126,0.22014 -0.0452,0.0702 -0.10408,0.22507 -0.12065,0.26035 -0.0169,0.0363 0.0229,0.0402 0.0526,0.0363 0.46531,-0.0512 1.47108,0.16756 1.60161,0.18873 0.007,0.001 0.0106,0.001 0.0127,0.001 0.042,0 -1.11654,0.57891 -1.64818,0.6537 -0.28857,0.0409 -1.05586,0.18274 -1.33562,-0.59231 -0.0515,-0.14252 -0.21801,-1.10455 -0.33196,-1.39841 -0.22225,-0.57362 -0.65087,-1.40335 -0.68474,-1.2439 -0.0335,0.15946 -0.0713,0.30656 -0.0127,0.44133 0.0589,0.13441 0.63429,1.36525 0.69356,1.72226 0.0293,0.15945 -0.0254,0.26035 -0.0928,0.34043 -0.067,0.0794 -0.63676,0.86148 -1.36913,1.16346 -0.1711,0.0702 -0.79834,0.28998 -0.69321,-0.46214 0.0233,-0.16757 0.0102,-0.25435 -0.012,-0.28645 0.20109,-0.0967 0.41805,-0.23249 0.61949,-0.42228 0.12135,-0.11395 0.17039,-0.39723 0.10124,-0.64029 -0.0688,-0.24342 -0.15663,-0.45579 -0.37782,-0.66358 -0.0438,-0.0427 -0.0564,-0.0501 -0.0713,0 -0.0152,0.0501 -0.0388,0.18168 -0.0476,0.22014 -0.009,0.0388 -0.0138,0.10407 0.0399,0.15733 0.054,0.0543 0.24589,0.27835 0.29634,0.43815 0.0254,0.0752 0.0504,0.12806 -0.0254,0.19086 -0.0755,0.0631 -0.69321,0.56832 -1.41323,0.57467 -0.11501,0.001 -0.72285,0.0113 -0.97755,-0.5207 -0.10372,-0.25505 -0.14288,-0.52916 -0.18203,-0.72848 -0.0392,-0.19862 -0.18204,-1.18992 -0.70309,-1.85914 -0.0392,-0.0476 -0.0448,-0.0169 -0.0505,0.0335 -0.005,0.0505 -0.0335,0.31644 -0.0335,0.31644 0.0533,0.0953 0.52387,1.21814 0.55739,1.60479 0.0113,0.12841 0.0705,0.36371 -0.22966,0.69462 -0.0878,0.0967 -0.71543,0.70979 -1.19027,0.87912 -0.11783,0.0423 -0.42722,0.1524 -0.6149,-0.1277 -0.0243,-0.036 -0.12629,-0.20779 -0.10089,-0.44486 0.0187,-0.17145 0.0875,-0.43074 0.26529,-0.82761 0.0363,-0.0868 0,-0.14006 -0.0593,-0.0251 -0.0586,0.11465 -0.64699,1.23931 -0.10336,1.74449 0.084,0.0783 0.48401,0.3235 1.23789,-0.28011 0.12312,-0.0988 0.73943,-0.56021 0.85126,-0.9719 0.0222,-0.0836 0.0607,-0.17074 0.0607,-0.17074 0.0363,0.11712 0.21519,1.26329 1.44497,1.05445 0.12065,-0.0205 0.36054,-0.0716 0.63712,-0.19438 -0.003,0.008 -0.006,0.0177 -0.007,0.0279 -0.0208,0.11782 -0.25223,1.15958 0.53341,1.14688 0.14746,-0.002 0.67627,-0.18945 1.15958,-0.68051 0.12665,-0.12912 0.51646,-0.45367 0.60466,-0.90311 0,0 0.13899,1.02623 1.02482,1.12959 0.2607,0.0307 1.1049,-0.0586 1.97449,-0.59619 0.13159,-0.0811 0.5013,-0.30304 1.01318,-0.40958 0.0494,0.39088 0.0871,0.74225 0.0928,0.93134 -0.005,0.0589 0.0212,0.0811 0.048,0.0243 0.0204,-0.0423 0.13159,-0.27376 0.0892,-0.99378 0.22578,-0.0279 0.47272,-0.0303 0.73555,0.0109 l 0.13864,-0.39935 c -0.11889,0.002 -0.46849,0.019 -0.9077,0.002 -0.0159,-0.14288 -0.0363,-0.29881 -0.0635,-0.47061 -0.0162,-0.11748 -0.35031,-2.23097 -0.35031,-2.23097 0,0 0.1972,0.18521 0.22895,0.21873 0.0314,0.0332 0.0699,0.0159 0.0519,-0.0385 -0.018,-0.054 -0.42192,-1.03046 -0.43497,-1.06433 -0.013,-0.0339 -0.0261,-0.0586 -0.0423,-0.0194 -0.0162,0.0392 -0.11219,0.30339 -0.11219,0.30339 0.0258,0.1718 0.25294,1.74554 0.26776,1.87113 0.008,0.0691 0.10971,0.73625 0.20108,1.41675 -0.33902,-0.0233 -0.71155,-0.0688 -1.06292,-0.15557 0.0378,-0.13053 0.11924,-0.25259 0.09,-0.51717 -0.0293,-0.26459 -0.32279,-2.01507 -0.32279,-2.01507 0,0 0.19756,0.18521 0.22895,0.21872 0.0318,0.0332 0.0702,0.0159 0.0519,-0.0385 -0.018,-0.054 -0.42157,-1.03046 -0.43497,-1.06398 -0.0131,-0.0342 -0.0258,-0.0589 -0.0423,-0.0198 m -1.67887,0.0533 c -0.15804,0.23318 -0.14816,0.52422 -0.14781,0.84984 -0.0296,-0.066 -0.19932,-0.49036 -0.66075,-0.70697 -0.0335,-0.0159 -0.0967,0.0229 -0.0953,0.12559 2.6e-4,0.06 -0.006,0.20567 0.0384,0.24412 0.0452,0.0377 0.17498,0.10901 0.19614,0.11889 0.0219,0.0102 0.0441,0.0102 0.0487,-0.0155 0.005,-0.0251 0.0286,-0.0847 0.072,-0.0459 0.0363,0.0314 0.26741,0.19685 0.40852,0.57185 0.0233,0.0494 0.0706,0.0508 0.0765,-0.0219 0.0134,-0.17921 0.006,-0.48824 0.013,-0.58208 0.0106,-0.133 0.0536,-0.40746 0.23001,-0.27905 0.0402,0.0293 0.0829,0.0681 0.0829,0.0681 0.0388,0.042 0.0864,0.0896 0.10442,0.0367 0.0272,-0.0797 0.0444,-0.2099 0.003,-0.27693 -0.0177,-0.0296 -0.24236,-0.27552 -0.37007,-0.0868 m -3.96311,0.13441 c -0.15205,0.22437 -0.14252,0.50376 -0.14252,0.81668 -0.0282,-0.0639 -0.19121,-0.47131 -0.63465,-0.67945 -0.0321,-0.0152 -0.0924,0.0222 -0.0917,0.121 8e-4,0.0575 -0.006,0.19756 0.0377,0.23425 0.043,0.036 0.16722,0.10512 0.18803,0.1143 0.0208,0.01 0.0423,0.01 0.0469,-0.0145 0.004,-0.0243 0.0272,-0.0818 0.0688,-0.0448 0.0349,0.0307 0.25753,0.18909 0.39265,0.54998 0.0226,0.0469 0.0681,0.0487 0.0737,-0.0215 0.013,-0.17216 0.005,-0.46884 0.0124,-0.55951 0.0102,-0.127 0.0515,-0.39158 0.22119,-0.26811 0.0381,0.0282 0.0794,0.066 0.0794,0.066 0.0374,0.0402 0.0832,0.0861 0.10054,0.0349 0.0257,-0.0762 0.0423,-0.20144 0.003,-0.26565 -0.0173,-0.0286 -0.23283,-0.26458 -0.3556,-0.0836 m -2.51354,0.0462 c -0.0332,0.0871 -0.17569,0.38876 -0.13194,0.73201 0.01,0.0794 0.0769,0.23178 0.20849,0.22825 0.0681,-0.004 0.15381,-0.0543 0.20496,-0.25259 0.008,-0.0448 0.0134,-0.0808 0.0166,-0.0981 0.005,-0.0268 -0.0177,-0.0571 -0.0367,0.005 -0.0427,0.12241 -0.16757,0.21343 -0.2734,0.0586 -0.0173,-0.031 -0.091,-0.17216 0.0109,-0.49636 0.0208,-0.0628 0.0462,-0.15628 0.0462,-0.15628 0.0229,-0.0706 -0.0116,-0.10689 -0.0451,-0.0201 m 4.15678,0.0935 c -0.0402,0.0988 -0.20849,0.43815 -0.18309,0.83855 0.006,0.0924 0.0674,0.2727 0.20673,0.27764 0.072,-2.7e-4 0.1651,-0.0529 0.23107,-0.27905 0.0116,-0.0512 0.0187,-0.0924 0.0233,-0.11254 0.007,-0.0303 -0.0152,-0.0667 -0.0388,0.003 -0.0526,0.13899 -0.18944,0.23565 -0.2921,0.0501 -0.0162,-0.0374 -0.0857,-0.20531 0.0413,-0.57397 0.0254,-0.0713 0.0579,-0.1778 0.0579,-0.1778 0.0286,-0.0808 -0.006,-0.12488 -0.0462,-0.0261 m 3.76697,0.92816 c -0.0776,0.0483 -1.80305,0.92392 -1.88243,0.97931 -0.0801,0.055 -0.1083,0.0695 -0.11959,0.133 -0.0109,0.0635 -0.0166,0.0998 -0.0194,0.11006 -0.0134,0.0427 -0.0222,0.0949 0.0953,0.0127 0.0367,-0.0257 1.77694,-0.90981 1.84291,-0.95638 0.0656,-0.0462 0.10548,-0.0642 0.13052,-0.13053 0.0254,-0.066 0.0318,-0.078 0.0448,-0.12382 0.0138,-0.0487 0.0279,-0.10054 -0.0921,-0.0243 m -1.10878,1.2633 c -0.0324,0.0794 -0.16862,0.35383 -0.14781,0.67662 0.005,0.0748 0.0543,0.22049 0.16686,0.22402 0.0582,-2.7e-4 0.13335,-0.0423 0.18698,-0.22508 0.009,-0.0416 0.0148,-0.0744 0.0187,-0.0903 0.006,-0.0247 -0.0123,-0.0543 -0.0314,0.002 -0.0427,0.11183 -0.15311,0.1905 -0.23601,0.0402 -0.0134,-0.0296 -0.0692,-0.16581 0.0335,-0.4632 0.0205,-0.0579 0.0462,-0.14393 0.0462,-0.14393 0.0233,-0.0646 -0.004,-0.10055 -0.037,-0.0205 m -4.19206,-0.44944 c -0.0317,0.1016 -0.17145,0.45368 -0.11254,0.85055 0.0138,0.0917 0.09,0.26635 0.22931,0.25965 0.0716,-0.006 0.15981,-0.0663 0.20708,-0.2974 0.007,-0.0519 0.0106,-0.0935 0.0138,-0.11359 0.005,-0.0314 -0.0208,-0.0653 -0.0385,0.006 -0.0409,0.14252 -0.16933,0.25047 -0.28681,0.0737 -0.0198,-0.0353 -0.10301,-0.1972 -0.007,-0.57538 0.0198,-0.073 0.0427,-0.18203 0.0427,-0.18203 0.0219,-0.0825 -0.0159,-0.12348 -0.048,-0.0219 m 11.85757,-0.85902 c -0.0342,0.0843 -0.1785,0.37501 -0.15663,0.71755 0.005,0.0787 0.0578,0.23319 0.17709,0.23707 0.0614,0 0.14111,-0.0448 0.19756,-0.23848 0.01,-0.0437 0.0159,-0.0787 0.0201,-0.0959 0.006,-0.0265 -0.0134,-0.0575 -0.0332,0.002 -0.0452,0.11888 -0.16228,0.20214 -0.25012,0.0423 -0.0141,-0.0307 -0.0734,-0.17568 0.0353,-0.49036 0.0219,-0.0614 0.0494,-0.1524 0.0494,-0.1524 0.0243,-0.0688 -0.005,-0.10654 -0.0395,-0.0222 m -15.09854,0.10972 c -0.0561,0.15099 -0.28716,0.66992 -0.27905,1.29187 0.002,0.14393 0.0677,0.42686 0.24166,0.44097 0.0903,0.003 0.20955,-0.0737 0.30585,-0.42157 0.0173,-0.079 0.0286,-0.14182 0.036,-0.17286 0.0106,-0.0473 -0.0152,-0.10477 -0.049,0.003 -0.0741,0.21273 -0.25117,0.35631 -0.36794,0.0628 -0.0183,-0.0579 -0.0952,-0.32279 0.0857,-0.88794 0.0363,-0.10972 0.0829,-0.27341 0.0829,-0.27341 0.0406,-0.12347 2.6e-4,-0.19332 -0.0561,-0.0427 m 18.40618,0.0635 c -0.0317,0.0783 -0.16545,0.34713 -0.14535,0.66428 0.005,0.073 0.0536,0.2159 0.16369,0.21978 0.0571,-2.7e-4 0.13088,-0.0413 0.18345,-0.22084 0.009,-0.0406 0.0148,-0.073 0.0187,-0.0889 0.005,-0.0247 -0.0127,-0.0533 -0.031,0.002 -0.042,0.10972 -0.15028,0.18627 -0.23142,0.0392 -0.0134,-0.0289 -0.0681,-0.16263 0.0324,-0.45403 0.0205,-0.0568 0.0459,-0.14146 0.0459,-0.14146 0.0226,-0.0635 -0.005,-0.0984 -0.0363,-0.0205 m -6.20678,0.008 -0.16827,0.23072 -0.32279,-0.2353 c -0.008,-0.006 -0.0198,-0.004 -0.0258,0.005 l -0.19508,0.2674 c -0.006,0.008 -0.005,0.0205 0.003,0.0261 l 0.33302,0.24271 c 0.008,0.006 0.0194,0.004 0.0258,-0.005 l 0.16827,-0.23036 0.32315,0.2353 c 0.008,0.006 0.0194,0.004 0.0257,-0.005 l 0.19509,-0.2674 c 0.006,-0.008 0.005,-0.0201 -0.004,-0.0261 l -0.33302,-0.24235 c -0.008,-0.006 -0.0194,-0.004 -0.0257,0.005 m 1.30351,0.41593 c -0.013,0.0452 -0.0459,0.23989 -0.0536,0.27975 -0.008,0.0399 -0.007,0.0801 0.0127,0.1143 0.0198,0.0342 0.0705,0.15275 0.10689,0.24906 0.0367,0.0963 0.41416,0.82409 0.44944,0.88865 0.0349,0.0642 0.0416,0.11218 0.007,0.15522 -1.21285,1.27953 -3.55318,2.06657 -3.62796,2.10996 -0.0748,0.0434 -0.0547,0.0769 0.0709,0.055 0.18874,-0.0332 1.23966,-0.20885 1.53953,-0.35313 0.19755,-0.0952 0.88758,-0.43427 1.45238,-0.8763 -0.0159,0.11395 -0.0303,0.28187 -0.0226,0.4953 0.0381,1.0287 0.9585,0.85831 1.20015,0.80503 0.72355,-0.15875 1.60832,-1.15922 1.68346,-1.3596 0.0744,-0.19897 0.0854,-0.38029 0.0684,-0.53834 0.1905,-0.10301 0.60008,-0.43286 0.60008,-0.43286 0.0169,0.43851 0.36582,0.5708 0.47342,0.58985 0.50342,0.0762 0.756,-0.34467 0.86325,-0.48119 0.0917,0.24059 0.31221,0.28751 0.42545,0.30974 0.43427,0.0864 0.51929,-0.22084 0.54151,-0.29104 0.13653,-0.42334 -0.10901,-0.73943 -0.14076,-0.77435 -0.0314,-0.0349 -0.0476,-0.001 -0.0586,0.0392 -0.0113,0.0406 -0.0462,0.19367 -0.0684,0.28892 0,0 0.091,0.14782 0.12348,0.22296 0.0324,0.0755 -0.0159,0.11677 -0.10936,0.12806 -0.26423,0.0325 -0.47519,-0.11854 -0.54787,-0.18874 -0.0723,-0.0699 0.006,-0.19368 0.0646,-0.34078 0.0469,-0.11818 -0.0399,-0.13265 -0.10654,-2.7e-4 -0.22401,0.58843 -0.53904,0.65193 -0.62159,0.67487 -0.74613,0.2032 -0.68192,-0.47908 -0.6791,-0.59055 0.002,-0.11184 -0.0794,-0.0706 -0.1711,0.004 -0.31397,0.25153 -0.56691,0.39969 -0.70308,0.46037 -0.11677,-0.2286 -0.28716,-0.37253 -0.35878,-0.42439 -0.80715,-0.58914 -0.87418,0.59902 -0.84949,0.72637 0.12277,0.50553 0.94756,0.19896 1.07703,0.1838 0.12947,-0.0155 0.0868,0.15592 0.0145,0.25717 -0.17886,0.25012 -0.38559,0.42933 -0.57256,0.58244 -0.79975,0.65264 -1.20121,0.60078 -1.32468,0.59654 -0.78564,-0.0219 -0.71297,-0.86854 -0.66958,-1.04916 0.23601,-0.20038 0.43921,-0.41769 0.55704,-0.6417 0.048,-0.12277 0.13123,-0.40146 -0.0187,-0.75142 -0.0783,-0.15416 -0.32631,-0.58631 -0.32631,-0.58631 0,0 0.18238,0.005 0.20002,0.005 0.0173,0 0.0515,-0.018 0.007,-0.0691 -0.0444,-0.0512 -0.42757,-0.43357 -0.45085,-0.46426 -0.0229,-0.0303 -0.0441,-0.0526 -0.0571,-0.007 m 2.42217,1.7526 c 0,0 -0.11006,0.0628 -0.41734,0.0423 -0.25787,-0.0173 -0.23565,-0.11748 -0.20072,-0.15593 0.0388,-0.0416 0.35454,-0.23989 0.61806,0.11359 m -3.31681,-1.42451 c -0.0529,0.066 -0.5895,0.76976 -0.5895,0.76976 l -0.39017,-0.27799 c 0,0 0.1591,-0.0399 0.18697,-0.0483 0.0275,-0.008 0.0434,-0.0441 -0.006,-0.0699 -0.0501,-0.0254 -0.52034,-0.21273 -0.55598,-0.22719 -0.036,-0.0145 -0.049,-0.0307 -0.0519,0.007 -0.003,0.0385 -0.008,0.34784 -0.008,0.34784 0,0 -0.007,0.0219 0.0335,0.0452 0.0413,0.0229 0.0815,0.073 0.11501,0.10654 0.0335,0.0339 0.47131,0.37853 0.49248,0.39123 0,0 -0.21908,0.38417 -0.24695,0.68509 -0.0275,0.30128 0.006,0.71614 0.41699,0.58209 0.11077,-0.0314 0.5715,-0.21485 0.67451,-0.53587 0.0332,-0.11818 0.12806,-0.33232 -0.0261,-0.54928 -0.0893,-0.127 -0.44908,-0.34219 -0.44908,-0.34219 0,0 0.27622,-0.38171 0.30268,-0.42863 0.0265,-0.0466 0.12771,-0.3429 0.13899,-0.41451 0.0113,-0.0716 0.0169,-0.1076 -0.0367,-0.0409 m -0.0942,1.62277 c -0.15276,0.12559 -0.47379,0.2914 -0.5641,0.30057 -0.0903,0.008 -0.32949,-0.036 -0.22542,-0.28081 0.0353,-0.0797 0.27481,-0.4893 0.27481,-0.4893 0.0893,0.0494 0.66746,0.3436 0.51471,0.46954 m -11.55983,-1.57586 c -0.0332,0.0871 -0.17604,0.38877 -0.1323,0.73237 0.0102,0.079 0.0769,0.23107 0.20885,0.22754 0.0681,-0.004 0.15346,-0.0536 0.20496,-0.25258 0.009,-0.0448 0.013,-0.0797 0.0166,-0.0974 0.005,-0.0268 -0.018,-0.0572 -0.0367,0.005 -0.043,0.12206 -0.16757,0.21307 -0.2734,0.0582 -0.0177,-0.0307 -0.0914,-0.17215 0.0106,-0.49635 0.0208,-0.0628 0.0462,-0.15664 0.0462,-0.15664 0.0229,-0.0705 -0.0116,-0.10689 -0.0448,-0.0198 m 17.79023,2.13748 c -0.0307,0.0861 -0.043,0.14288 -0.0399,0.17568 0.004,0.0332 0.0148,0.1397 0.0148,0.1397 -0.0324,0.0257 -0.16862,0.11077 -0.3055,0.0102 0.009,-0.0293 0.0268,-0.0885 0.0307,-0.12135 0.0148,-0.0505 -0.0162,-0.0882 -0.0409,-0.0356 -0.0254,0.0522 -0.0833,0.22789 -0.1263,0.26705 -0.043,0.0399 -0.0935,0.18486 -0.41945,0.0374 -0.0568,-0.0219 -0.15734,-0.0963 -0.31256,0.061 -0.35278,0.32703 -0.5962,0.35314 -0.99131,0.49319 -0.048,0.0226 -0.14816,0.0977 -0.0293,0.0854 0.11924,-0.0116 0.62019,2.7e-4 0.89324,-0.31256 0.0568,-0.0554 0.12206,-0.20144 0.33902,-0.11677 0.11994,0.0455 0.34113,0.23566 0.58314,-0.14005 0.14252,0.0949 0.35913,0.0568 0.39334,-0.0476 0.0346,-0.10477 0.0741,-0.20849 0.0737,-0.2801 -2.7e-4,-0.0713 -0.006,-0.1644 -0.006,-0.1644 -0.005,-0.0568 -0.0254,-0.13687 -0.0568,-0.0512 m -16.81621,0.35172 c -0.0688,0.037 -1.13524,0.64417 -1.21108,0.69074 -0.0705,0.0434 -0.0875,0.0667 -0.0928,0.12135 -0.005,0.0543 -0.008,0.0857 -0.01,0.0945 -0.008,0.0374 -0.0212,0.0702 0.0822,0.005 0.0505,-0.0321 1.10736,-0.62125 1.17863,-0.66816 0.0572,-0.0377 0.0857,-0.0614 0.10301,-0.1196 0.0169,-0.0575 0.0219,-0.0684 0.03,-0.1083 0.008,-0.0423 0.0233,-0.0695 -0.0801,-0.0152 m 7.2337,0.14781 c -0.0134,0.0279 -0.067,0.1196 -0.0744,0.139 -0.008,0.0194 2.7e-4,0.0409 0.0141,0.0261 0.0134,-0.0148 0.009,-0.0938 0.254,-0.09 0.0353,-2.6e-4 0.048,0.01 0.0332,0.0282 -0.0145,0.0183 -0.23425,0.20779 -0.29034,0.46073 -0.0695,0.36795 0.28469,0.30022 0.35772,0.27094 0.0444,-0.0177 0.26987,-0.11959 0.44556,-0.38524 0.0243,-0.0377 0.0374,-0.0938 -0.0141,-0.0385 -0.0519,0.055 -0.2861,0.2727 -0.53551,0.28399 -0.19368,-0.0134 -0.22225,-0.17745 -0.1718,-0.25683 0.0501,-0.079 0.24024,-0.26634 0.2741,-0.31432 0.0332,-0.0483 0.0621,-0.12171 0.0621,-0.12171 0.0176,-0.0529 0.0261,-0.0868 -0.0286,-0.0896 -0.0547,-0.003 -0.24553,-0.0377 -0.32597,0.0871 m -5.75839,0.14711 -0.16827,0.23036 -0.32315,-0.23565 c -0.008,-0.005 -0.0198,-0.004 -0.0257,0.005 l -0.19508,0.2674 c -0.006,0.008 -0.005,0.0201 0.003,0.0257 l 0.33302,0.24306 c 0.008,0.006 0.0194,0.003 0.0254,-0.005 l 0.16898,-0.23036 0.32279,0.23565 c 0.008,0.006 0.0194,0.003 0.0257,-0.005 l 0.19509,-0.26705 c 0.006,-0.008 0.005,-0.0205 -0.004,-0.0261 l -0.33267,-0.24306 c -0.008,-0.005 -0.0198,-0.004 -0.0257,0.005 m 3.14007,0.11183 c -0.0695,0.0356 -1.60831,0.63782 -1.68063,0.67839 -0.0723,0.0406 -0.0977,0.0501 -0.11218,0.10337 -0.0148,0.0529 -0.0222,0.0836 -0.0258,0.0917 -0.0148,0.0356 -0.0264,0.079 0.0801,0.0187 0.0332,-0.019 1.58503,-0.6276 1.645,-0.66146 0.0596,-0.0342 0.0949,-0.0459 0.12171,-0.10019 0.0268,-0.054 0.0332,-0.0635 0.0483,-0.1016 0.0155,-0.0402 0.0318,-0.0833 -0.0765,-0.0289"
       style="fill:#231f20;fill-opacity:1;fill-rule:evenodd;stroke:none;stroke-width:0.264583"
       id="path1" />
  </g>
</svg>
