<?xml version="1.0" encoding="UTF-8" standalone="no"?>
<!-- Created with Inkscape (http://www.inkscape.org/) -->

<svg
   width="21.114279mm"
   height="6.7274523mm"
   viewBox="0 0 21.114279 6.7274523"
   version="1.1"
   id="svg1"
   xmlns="http://www.w3.org/2000/svg"
   xmlns:svg="http://www.w3.org/2000/svg">
  <defs
     id="defs1" />
  <g
     id="layer1"
     transform="translate(-178.91353,-18.614707)">
    <path
       d="m 182.80274,18.645611 c -0.0526,0.03245 -2.00766,1.006475 -2.15724,1.127828 -0.0751,0.06068 -0.13758,0.156988 -0.15945,0.261409 -0.0318,0.151696 0.006,0.300921 0.10477,0.316796 0.0684,0.0113 0.10795,0.05115 0.12559,0.07408 0.007,0.0099 0.0183,0.0032 0.0219,-0.0035 0.078,-0.154516 0.007,-0.251177 -0.12559,-0.289277 -0.0533,-0.01516 -0.0765,-0.0889 0.11889,-0.214489 0.17991,-0.115711 1.96109,-1.016704 2.00131,-1.044575 0.054,-0.03775 0.0864,-0.05256 0.10759,-0.106186 0.0212,-0.05433 0.0265,-0.06385 0.0374,-0.101248 0.0113,-0.03986 0.0233,-0.0822 -0.0751,-0.02082 m 9.48231,0.51576 c -0.0706,0.10654 -0.12241,0.362656 -0.0222,0.435681 0.0998,0.07338 0.24588,0.132292 0.24588,0.132292 -0.46531,0.571145 -0.78387,0.680154 -1.05692,0.83961 -0.0699,0.04127 -0.0561,0.07796 -0.0148,0.06668 0.0212,-0.0056 0.38806,-0.06244 0.81562,-0.38735 0.23143,-0.176035 0.37148,-0.476602 0.37148,-0.476602 0,0 0.11642,0.09666 0.13194,0.116417 0.0349,0.04374 0.054,0.07585 0.0705,0.02998 0.0614,-0.168981 -0.025,-0.270933 -0.10759,-0.323498 0,0 0.0857,-0.26317 -0.0713,-0.52705 -0.0264,-0.04409 -0.18238,-0.18556 -0.36265,0.09384 m 0.24306,0.07267 c 0.10513,0.09772 0.0893,0.257879 0.085,0.294568 0,0 -0.13405,-0.06279 -0.19438,-0.08855 -0.0596,-0.02574 -0.0907,-0.0635 -0.0631,-0.101952 0.0921,-0.129468 0.13759,-0.125235 0.17251,-0.104068 m -1.66828,-0.205317 c -0.0159,0.03916 -0.11183,0.303387 -0.11183,0.303387 0.0257,0.17145 0.25259,2.014009 0.26775,2.13995 0.0148,0.12559 0.33409,2.210155 0.35067,2.786592 -0.005,0.05927 0.0215,0.08079 0.0483,0.02434 0.0272,-0.05644 0.21272,-0.440971 -0.008,-1.851377 -0.0166,-0.117123 -0.35066,-2.499784 -0.35066,-2.499784 0,0 0.1972,0.185209 0.22931,0.218724 0.0314,0.03351 0.0699,0.01553 0.0519,-0.0381 -0.0187,-0.05433 -0.42193,-1.030465 -0.43498,-1.064684 -0.0134,-0.03387 -0.0265,-0.05821 -0.0427,-0.01905 m -1.63971,0 c -0.0166,0.03916 -0.14569,0.324909 -0.14569,0.324909 0.003,0.02294 0.0335,0.09313 0.0547,0.237418 0.0169,0.115007 0.0395,0.268465 0.0646,0.440619 0,0 0.14605,1.253421 0.31961,2.031648 -0.31432,0.121002 -1.04069,0.450143 -1.61184,1.016 -0.0709,0.07796 -0.32773,0.462491 -0.26882,0.466373 0.0589,0.0042 1.74061,0.203904 1.74061,0.203904 -0.18944,0.07126 -1.51977,0.875596 -2.4003,0.615598 -0.23566,-0.0702 -0.64347,-0.191559 -0.76412,-1.210027 -0.0289,-0.244123 -0.1471,-1.587855 -0.18909,-1.961798 -0.0423,-0.373944 -0.248,-1.684515 -0.29421,-1.856669 -0.0462,-0.172156 -0.0882,-0.16369 -0.12594,-0.07585 -0.0378,0.08819 -0.10513,0.265994 -0.10513,0.265994 0.4385,2.02565 0.41663,3.325637 0.4706,3.817408 0.084,0.772938 0.23531,1.310571 1.05269,1.470379 0.41275,0.08043 0.92146,0.100542 2.44757,-0.756004 0.20567,-0.11571 1.10349,-0.313971 1.37831,-0.263525 l 0.15099,-0.358421 c -0.21273,0 -2.15759,-0.09948 -2.81129,-0.241654 0.0624,-0.08855 0.81844,-0.608894 1.41676,-0.795512 0.0307,0.09701 0.061,0.172508 0.0914,0.218368 0.40535,0.614892 0.75742,0.349602 0.81845,0.264232 0.0935,-0.13053 0.21449,-0.525992 -0.0183,-0.771173 -0.19685,-0.206023 -0.56621,-0.156634 -0.74295,-0.119944 -0.0462,-0.147463 -0.091,-0.331965 -0.12594,-0.559506 -0.0367,-0.232482 -0.23671,-1.556457 -0.21484,-1.514827 0,0 0.20567,0.200377 0.23742,0.233892 0.0317,0.03351 0.0702,0.01553 0.0522,-0.0381 -0.018,-0.05433 -0.42227,-1.030465 -0.43497,-1.064684 -0.0131,-0.03352 -0.0261,-0.05821 -0.0423,-0.01905 m 0.83361,3.310112 c 0.28717,0.04904 0.47484,0.264584 0.30234,0.280107 -0.17216,0.01553 -0.34431,-0.09807 -0.40323,-0.173567 -0.0155,-0.01976 -0.0384,-0.05538 -0.066,-0.10795 0.06,-0.006 0.11642,-0.006 0.16686,0.0013 m 8.75348,-3.081867 c -0.0702,0.10654 -0.12241,0.362657 -0.0226,0.43533 0.10019,0.07338 0.24659,0.132995 0.24659,0.132995 -0.46602,0.570442 -1.38042,0.97649 -1.59843,1.14653 -0.0646,0.04903 -0.0561,0.07796 -0.0152,0.06703 0.0367,-0.0099 0.73342,-0.20461 1.37054,-0.75071 0.29175,-0.249767 0.28434,-0.268817 0.35877,-0.420513 0.0628,0.03246 0.10654,0.08537 0.13124,0.116416 0.0346,0.04339 0.0543,0.07585 0.0709,0.02928 0.0607,-0.168627 -0.025,-0.270582 -0.10759,-0.323144 0,0 0.0854,-0.263173 -0.0716,-0.527404 -0.0261,-0.0441 -0.18168,-0.185561 -0.36265,0.09419 m 0.24341,0.07267 c 0.10478,0.09772 0.0889,0.257882 0.0847,0.294217 0,0 -0.1337,-0.06244 -0.19367,-0.08819 -0.0603,-0.0254 -0.0914,-0.06386 -0.0639,-0.1016 0.0924,-0.130175 0.13794,-0.12559 0.17286,-0.104424 m -1.78858,-0.165451 c -0.18344,0.232478 -0.19508,0.538691 -0.21907,0.879475 -0.0258,-0.07126 -0.17181,-0.528815 -0.63959,-0.790575 -0.0339,-0.01905 -0.10301,0.01728 -0.10901,0.124883 -0.005,0.06279 -0.0226,0.214842 0.0219,0.258233 0.0444,0.04304 0.17463,0.128059 0.19685,0.140052 0.0219,0.01199 0.0455,0.01376 0.0519,-0.0127 0.007,-0.02611 0.0367,-0.08678 0.079,-0.04304 0.0356,0.03598 0.266,0.226132 0.38559,0.630415 0.0205,0.05327 0.0705,0.05856 0.0815,-0.01728 0.0279,-0.186973 0.043,-0.51153 0.0579,-0.6096 0.0208,-0.13829 0.0868,-0.423334 0.26176,-0.275521 0.0399,0.03387 0.0822,0.07832 0.0822,0.07832 0.037,0.04692 0.084,0.10019 0.1069,0.04622 0.0339,-0.08149 0.0617,-0.216958 0.0243,-0.289983 -0.0169,-0.03246 -0.23389,-0.307269 -0.38206,-0.118886 m -1.80023,-0.01093 c -0.0674,0.03951 -1.78787,1.03223 -1.85737,1.077032 -0.0695,0.0448 -0.0945,0.05644 -0.10548,0.110418 -0.0113,0.05327 -0.0169,0.08467 -0.0201,0.09349 -0.0123,0.03563 -0.0215,0.08008 0.0811,0.01304 0.0321,-0.02082 1.76212,-1.020233 1.8228,-1.058333 0.0582,-0.03634 0.0921,-0.05186 0.11501,-0.107598 0.0233,-0.05539 0.0293,-0.06562 0.0416,-0.104421 0.013,-0.04127 0.0265,-0.08502 -0.0776,-0.02363 m -10.99608,0.09243 c -0.18027,0.232479 -0.1912,0.538337 -0.21554,0.879475 -0.0254,-0.07126 -0.16969,-0.528814 -0.63006,-0.790929 -0.0339,-0.01905 -0.1016,0.01728 -0.10795,0.124883 -0.004,0.06244 -0.0215,0.214842 0.0222,0.258233 0.0434,0.04339 0.17215,0.128059 0.19368,0.140055 0.0215,0.01236 0.0452,0.01341 0.0515,-0.01236 0.006,-0.02611 0.0356,-0.08678 0.0773,-0.04339 0.0307,0.03104 0.27658,0.247298 0.35172,0.543632 0.0628,0.257175 -0.57044,0.776816 -0.60361,0.800452 -0.0593,0.04233 -0.0402,0.06985 -0.0127,0.05503 0.0279,-0.01482 0.055,-0.01905 0.37959,-0.233185 0.26176,-0.172863 0.3168,-0.372888 0.33902,-0.526346 0.003,-0.0074 0.005,-0.01622 0.007,-0.02646 0.0275,-0.186618 0.042,-0.511175 0.0568,-0.609245 0.0201,-0.138642 0.0854,-0.423334 0.25788,-0.275521 0.0392,0.03387 0.0811,0.07832 0.0811,0.07832 0.0363,0.04692 0.0822,0.10019 0.10478,0.04622 0.0335,-0.08184 0.061,-0.216958 0.024,-0.289983 -0.0166,-0.03246 -0.23001,-0.307269 -0.37642,-0.118886 m 2.62291,0.02294 c -0.0339,0.09948 -0.17992,0.4445 -0.1323,0.8382 0.0109,0.09137 0.0815,0.265996 0.21767,0.262821 0.0702,-0.0042 0.15839,-0.06068 0.21061,-0.288221 0.008,-0.05115 0.013,-0.09208 0.0166,-0.112184 0.005,-0.03069 -0.0191,-0.06526 -0.0381,0.0049 -0.0437,0.140052 -0.17181,0.243769 -0.28258,0.06562 -0.0183,-0.03563 -0.0956,-0.19826 0.008,-0.569032 0.0208,-0.07197 0.0466,-0.17921 0.0466,-0.17921 0.0233,-0.08114 -0.0124,-0.122415 -0.0466,-0.02294 m 1.62031,0.620538 c -0.0526,0.03245 -2.00801,1.00612 -2.15688,1.127477 -0.0755,0.06103 -0.13758,0.157339 -0.15981,0.26176 -0.0314,0.151341 0.006,0.300921 0.10478,0.316796 0.0688,0.01093 0.1083,0.05115 0.12559,0.07408 0.007,0.0095 0.0187,0.0028 0.0219,-0.0039 0.078,-0.154165 0.007,-0.251177 -0.12559,-0.288925 -0.0533,-0.01553 -0.0765,-0.0889 0.11888,-0.214135 0.17992,-0.116065 1.9611,-1.017059 2.00131,-1.04493 0.054,-0.0381 0.0868,-0.05221 0.1076,-0.106537 0.0208,-0.05362 0.0261,-0.06385 0.0374,-0.100896 0.0116,-0.03986 0.0233,-0.08255 -0.0751,-0.02082 m -0.18379,0.868185 c -0.0801,0.103717 -0.15417,0.363009 -0.0572,0.445559 0.0974,0.08361 0.24306,0.155927 0.24306,0.155927 -0.52458,0.549981 -1.23366,1.050221 -1.52612,1.192741 -0.0758,0.03669 -0.0642,0.0755 -0.0212,0.06773 0.0222,-0.0042 0.40252,-0.112184 0.87171,-0.407104 0.39476,-0.24765 0.79057,-0.800807 0.79057,-0.800807 0,0 0.11113,0.108657 0.12595,0.129823 0.0328,0.04763 0.0497,0.08255 0.0705,0.03634 0.0759,-0.168627 -0.005,-0.280107 -0.085,-0.340432 0,0 0.10866,-0.264229 -0.0321,-0.547862 -0.0233,-0.04763 -0.17216,-0.204965 -0.38029,0.06808 m 0.24482,0.09384 c 0.10019,0.108654 0.0709,0.271992 0.0635,0.309385 0,0 -0.13264,-0.07514 -0.19226,-0.106539 -0.0593,-0.03104 -0.0889,-0.07267 -0.0575,-0.109361 0.10548,-0.126293 0.15204,-0.118181 0.18626,-0.09348 m -6.47876,-1.486254 c -0.0159,0.03916 -0.1457,0.324908 -0.1457,0.324908 0.003,0.02294 0.0339,0.09313 0.055,0.237421 0.0166,0.115004 0.60536,2.912885 0.63888,3.131608 0.0339,0.218017 0.0504,0.394404 -0.13441,0.503413 -0.1845,0.109362 -0.98284,0.487891 -1.33562,-0.327377 -0.078,-0.179917 -0.27869,-0.380294 -0.60501,-0.06703 -0.42863,0.411691 -0.58808,0.99977 -0.66358,1.167693 -0.0755,0.167923 -0.30409,0.480132 -0.63006,0.125942 -0.38065,-0.413102 -0.31185,-1.037873 -0.2981,-1.137708 0.003,-0.02506 0.002,-0.05256 -0.003,-0.07585 0.005,2.64e-4 0.008,0.0019 0.013,0.0021 0.097,0.0013 0.22472,-0.08819 0.32244,-0.487891 0.0173,-0.09066 0.0286,-0.163336 0.0356,-0.198967 0.0106,-0.05397 -0.0183,-0.118885 -0.0526,0.0046 -0.0765,0.244475 -0.26458,0.412396 -0.39546,0.07973 -0.0212,-0.06597 -0.10795,-0.366535 0.0773,-1.016352 0.0374,-0.125941 0.085,-0.314325 0.085,-0.314325 0.0416,-0.141816 -0.003,-0.22084 -0.061,-0.04727 -0.0582,0.173567 -0.29845,0.771173 -0.2794,1.482019 0.004,0.138289 0.0586,0.38735 0.18767,0.470606 -0.004,0.01236 -0.008,0.02752 -0.0123,0.04692 -0.0342,0.174979 -0.15099,1.387475 0.54257,1.713441 0.20532,0.09666 0.43039,0.04198 0.63183,-0.61101 0.0423,-0.136877 0.25823,-0.63006 0.54821,-0.841375 0.0339,-0.02506 0.14746,-0.119943 0.24412,-0.119943 0.0575,0 0.12348,0.03598 0.21061,0.185208 0.1651,0.281517 0.40182,0.638879 1.08515,0.54257 0.0451,-0.0064 0.13405,-0.02787 0.23283,-0.08184 -0.006,0.01516 -0.013,0.03387 -0.0187,0.0568 -0.0462,0.176387 -0.19579,0.885118 0.13829,1.071033 0.1771,0.09878 0.4371,0.167921 1.24778,-0.319265 0.25012,-0.150283 1.32292,-0.823383 1.47884,-0.949325 0.15523,-0.125941 0.29422,-0.420158 0.24342,-0.642408 -0.042,-0.185208 -0.0822,-0.327377 -0.34431,-0.504473 -0.16828,-0.113242 -0.64523,-0.251529 -0.86995,-0.348192 -0.21802,-0.08431 -0.63042,-0.34431 -0.63042,-0.34431 0,0 0.1517,-0.02646 0.1958,-0.03528 0.0437,-0.0088 0.0614,-0.04833 0.002,-0.08114 -0.0593,-0.03316 -0.54116,-0.19826 -0.59372,-0.213783 -0.0533,-0.01516 -0.0596,-0.01976 -0.0621,0.02469 -0.002,0.04375 0.0257,0.372181 0.0257,0.372181 0.0508,0.05292 0.28646,0.31115 0.75248,0.522465 0.0889,0.04057 1.06645,0.397579 1.30563,0.640995 0.0801,0.10513 0.0928,0.142875 0.013,0.197557 -0.0797,0.05468 -1.77835,1.10631 -2.15053,1.26859 -0.0762,0.03316 -0.82268,0.358775 -0.65123,-0.67169 0.006,-0.03986 0.001,-0.07161 -0.0109,-0.0889 0.1845,-0.12841 0.375,-0.380294 0.36583,-0.863248 -0.007,-0.363712 -0.21308,-1.41111 -0.21308,-1.41111 l -0.32173,-1.469674 c 0,0 0.1972,0.185563 0.22895,0.21943 0.0314,0.03316 0.0702,0.01553 0.0519,-0.03846 -0.018,-0.05433 -0.42192,-1.030462 -0.43462,-1.064328 -0.0134,-0.03387 -0.0265,-0.05856 -0.0427,-0.01939 m -2.37666,0.06562 c -0.17427,0.221192 -0.18556,0.512234 -0.2085,0.83679 -0.0247,-0.06808 -0.16368,-0.503415 -0.60818,-0.752475 -0.0325,-0.01799 -0.0981,0.01659 -0.10443,0.118885 -0.004,0.05962 -0.0205,0.204613 0.0215,0.245534 0.042,0.04163 0.16616,0.122063 0.18698,0.13335 0.0208,0.01164 0.0434,0.01304 0.0494,-0.01199 0.006,-0.02469 0.0346,-0.08255 0.0751,-0.04128 0.0339,0.03457 0.25294,0.2159 0.36689,0.600075 0.0198,0.0508 0.067,0.05574 0.078,-0.01659 0.0261,-0.1778 0.0402,-0.486479 0.0543,-0.579967 0.0201,-0.131233 0.0829,-0.402519 0.24941,-0.26176 0.0378,0.0321 0.078,0.07408 0.078,0.07408 0.0353,0.04445 0.0797,0.0956 0.1016,0.04445 0.0325,-0.07796 0.0589,-0.206375 0.0229,-0.276225 -0.0159,-0.03104 -0.22225,-0.2921 -0.36301,-0.11289 m 15.87747,1.077384 c -0.0342,0.08431 -0.17851,0.375004 -0.15664,0.71755 0.005,0.07867 0.0579,0.233188 0.1771,0.237421 0.061,-2.65e-4 0.14111,-0.04516 0.19755,-0.238832 0.01,-0.04374 0.0159,-0.07867 0.0201,-0.09596 0.006,-0.02646 -0.0134,-0.0575 -0.0335,0.0024 -0.0448,0.118885 -0.16193,0.201787 -0.24977,0.04269 -0.0141,-0.0314 -0.0737,-0.175683 0.0353,-0.491066 0.0219,-0.06103 0.0494,-0.152048 0.0494,-0.152048 0.0247,-0.06879 -0.005,-0.106537 -0.0395,-0.02222 m 3.30764,0.173214 c -0.0321,0.07832 -0.16545,0.347134 -0.14499,0.664282 0.005,0.07303 0.0533,0.2159 0.16334,0.219779 0.0575,-2.65e-4 0.13123,-0.04127 0.18309,-0.220837 0.01,-0.04057 0.0148,-0.07302 0.0187,-0.0889 0.006,-0.02434 -0.0123,-0.05327 -0.031,0.0024 -0.0416,0.109715 -0.14993,0.186266 -0.23072,0.03916 -0.0134,-0.02928 -0.0684,-0.162631 0.0325,-0.454377 0.0201,-0.05645 0.0455,-0.141113 0.0455,-0.141113 0.0226,-0.06385 -0.004,-0.09842 -0.0363,-0.02045 m -17.58315,0.02928 c -0.0307,0.07444 -0.15875,0.332668 -0.13899,0.63641 0.004,0.0702 0.0508,0.206727 0.15698,0.210608 0.0543,0 0.12489,-0.03986 0.17533,-0.211667 0.008,-0.03881 0.0141,-0.0702 0.0177,-0.08537 0.005,-0.02294 -0.0116,-0.0508 -0.0296,0.0024 -0.0399,0.105478 -0.14358,0.17921 -0.22155,0.0381 -0.0127,-0.02822 -0.0653,-0.156282 0.0314,-0.435682 0.0191,-0.05433 0.0438,-0.135115 0.0438,-0.135115 0.0215,-0.06138 -0.004,-0.0949 -0.0349,-0.01976 m 11.37638,-0.02082 -0.16792,0.231069 -0.32315,-0.236008 c -0.008,-0.0056 -0.0198,-0.0035 -0.0261,0.0049 l -0.19438,0.267759 c -0.006,0.0081 -0.005,0.01976 0.003,0.02574 l 0.33302,0.242358 c 0.008,0.006 0.0194,0.0042 0.0254,-0.0046 l 0.16863,-0.230717 0.32315,0.235302 c 0.008,0.006 0.0194,0.0042 0.0254,-0.0046 l 0.19543,-0.267406 c 0.006,-0.0085 0.005,-0.02011 -0.004,-0.02574 l -0.33302,-0.243065 c -0.008,-0.0056 -0.0194,-0.0035 -0.0257,0.0049 m -8.02499,0.226131 c -0.0332,0.08043 -0.17039,0.357363 -0.14958,0.683329 0.005,0.0755 0.055,0.222605 0.16898,0.226484 0.0586,-2.65e-4 0.13441,-0.04304 0.18803,-0.227542 0.009,-0.04163 0.0152,-0.07479 0.019,-0.09137 0.006,-0.02506 -0.0123,-0.05468 -0.0317,0.0028 -0.0427,0.112888 -0.15451,0.191559 -0.23812,0.04022 -0.0134,-0.02999 -0.0699,-0.167571 0.0335,-0.467431 0.0208,-0.05821 0.0476,-0.145344 0.0476,-0.145344 0.0233,-0.06562 -0.005,-0.101248 -0.0378,-0.02117 m 9.3285,0.189794 c -0.0134,0.04516 -0.0455,0.240242 -0.0536,0.279752 -0.008,0.04022 -0.007,0.08008 0.0123,0.1143 0.0201,0.03422 0.0709,0.152754 0.10725,0.249063 0.0367,0.09595 0.41451,0.824087 0.44873,0.888293 0.0353,0.06456 0.043,0.11289 0.008,0.155575 -1.21285,1.279525 -3.55247,2.066573 -3.62761,2.109965 -0.0748,0.04304 -0.055,0.07726 0.0709,0.05503 0.18838,-0.03316 1.23966,-0.208846 1.53882,-0.353131 0.1979,-0.09525 0.88829,-0.434269 1.45238,-0.876652 -0.0155,0.1143 -0.03,0.282221 -0.0222,0.4953 0.0381,1.029404 0.95885,0.858308 1.19979,0.805392 0.7239,-0.15875 1.60867,-1.15923 1.68416,-1.359959 0.0744,-0.198614 0.085,-0.379941 0.0681,-0.537633 0.19085,-0.103365 0.60008,-0.433213 0.60008,-0.433213 0.0166,0.438505 0.36583,0.570442 0.47342,0.589492 0.50377,0.07655 0.75601,-0.34431 0.86325,-0.480835 0.0914,0.240241 0.31186,0.28716 0.4251,0.309739 0.43497,0.08643 0.51929,-0.220839 0.54222,-0.291041 0.13582,-0.423688 -0.10972,-0.739423 -0.14111,-0.774348 -0.0314,-0.03493 -0.0476,-0.0013 -0.0586,0.03951 -0.0109,0.04022 -0.0466,0.192971 -0.0681,0.288573 0,0 0.0907,0.147815 0.12277,0.223308 0.0324,0.07549 -0.0159,0.116417 -0.10901,0.128059 -0.26423,0.03246 -0.47519,-0.11924 -0.54787,-0.18909 -0.0723,-0.06985 0.006,-0.193321 0.0649,-0.341135 0.0469,-0.117827 -0.0406,-0.132292 -0.10689,0 -0.22436,0.588785 -0.53869,0.652285 -0.62159,0.67451 -0.74613,0.203554 -0.68192,-0.478719 -0.67945,-0.590196 0.003,-0.111831 -0.0787,-0.07091 -0.17075,0.0035 -0.31397,0.251884 -0.56691,0.399698 -0.70273,0.460375 -0.11712,-0.228952 -0.28716,-0.372533 -0.35913,-0.424391 -0.8075,-0.58914 -0.87383,0.599368 -0.84949,0.726368 0.12277,0.505532 0.94792,0.199321 1.07703,0.183798 0.12947,-0.01553 0.0875,0.155927 0.0145,0.257175 -0.17922,0.249767 -0.38559,0.429332 -0.57292,0.582436 -0.79939,0.652287 -1.2005,0.600781 -1.32432,0.596548 -0.78564,-0.02188 -0.71332,-0.86854 -0.66993,-1.049515 0.23636,-0.200025 0.43992,-0.417335 0.55774,-0.64135 0.0476,-0.122767 0.13089,-0.401812 -0.019,-0.751769 -0.0787,-0.15381 -0.32631,-0.585964 -0.32631,-0.585964 0,0 0.18273,0.0053 0.19967,0.0053 0.0173,-2.64e-4 0.0519,-0.01834 0.008,-0.06949 -0.0444,-0.05116 -0.42757,-0.433565 -0.4505,-0.464257 -0.0236,-0.03034 -0.0445,-0.05256 -0.0575,-0.0074 m 2.42217,1.7526 c 0,0 -0.11042,0.06315 -0.41769,0.04233 -0.25753,-0.01728 -0.23565,-0.117475 -0.20002,-0.155575 0.0381,-0.04198 0.35383,-0.240593 0.61771,0.113242 m -15.62876,-0.933802 -0.16863,0.230717 -0.32279,-0.235305 c -0.008,-0.006 -0.0198,-0.0042 -0.0257,0.0046 l -0.19509,0.267403 c -0.006,0.0081 -0.005,0.02011 0.004,0.02574 l 0.33267,0.243062 c 0.008,0.0056 0.0198,0.0035 0.0257,-0.0049 l 0.16828,-0.230717 0.32279,0.235654 c 0.008,0.0056 0.0201,0.0035 0.0261,-0.0049 l 0.19473,-0.267758 c 0.006,-0.0081 0.005,-0.01977 -0.003,-0.02574 l -0.33267,-0.242358 c -0.008,-0.006 -0.0198,-0.0042 -0.0257,0.0046 m 12.3123,-0.491067 c -0.0536,0.06632 -0.58985,0.770112 -0.58985,0.770112 l -0.3899,-0.277609 c 0,0 0.15875,-0.04022 0.18626,-0.04833 0.0279,-0.0078 0.0437,-0.04374 -0.006,-0.0695 -0.0501,-0.02574 -0.52,-0.213077 -0.55563,-0.227542 -0.036,-0.01447 -0.049,-0.03104 -0.0522,0.0074 -0.003,0.0381 -0.008,0.347487 -0.008,0.347487 0,0 -0.007,0.02188 0.0339,0.0448 0.0409,0.02328 0.0811,0.07373 0.11501,0.106892 0.0335,0.03351 0.47096,0.378883 0.49212,0.390877 0,0 -0.21872,0.384529 -0.24659,0.685448 -0.0279,0.300919 0.005,0.71614 0.41628,0.582083 0.11112,-0.0314 0.5715,-0.214841 0.67486,-0.536223 0.0332,-0.117827 0.12806,-0.331962 -0.0265,-0.548568 -0.0893,-0.127352 -0.44838,-0.342548 -0.44838,-0.342548 0,0 0.27552,-0.382059 0.30233,-0.428625 0.0265,-0.04692 0.12771,-0.3429 0.139,-0.414867 0.0113,-0.07126 0.0169,-0.107244 -0.0363,-0.04092 m -0.0945,1.623129 c -0.15276,0.12559 -0.47378,0.291748 -0.56445,0.300215 -0.09,0.0088 -0.32914,-0.03563 -0.22507,-0.28081 0.0356,-0.07937 0.27481,-0.488598 0.27481,-0.488598 0.0896,0.04903 0.66711,0.343252 0.51471,0.469193 m -9.42128,-0.158043 c -0.0325,0.08008 -0.17004,0.35701 -0.14888,0.683331 0.005,0.07514 0.0547,0.22225 0.16828,0.226129 0.0586,-2.65e-4 0.13441,-0.04268 0.18838,-0.227187 0.009,-0.04198 0.0152,-0.0755 0.0191,-0.09172 0.006,-0.02469 -0.0124,-0.05468 -0.0318,0.0028 -0.0427,0.112887 -0.15452,0.19191 -0.23777,0.04022 -0.0138,-0.02999 -0.0706,-0.167216 0.0332,-0.467431 0.0212,-0.05821 0.0473,-0.145344 0.0473,-0.145344 0.0233,-0.06526 -0.005,-0.1016 -0.0377,-0.02082 m 15.65204,0.719666 c -0.031,0.08608 -0.043,0.142875 -0.0402,0.175684 0.003,0.03316 0.0148,0.139348 0.0148,0.139348 -0.0321,0.02611 -0.16863,0.111125 -0.30586,0.01058 0.009,-0.02928 0.0272,-0.0889 0.031,-0.121356 0.0148,-0.05045 -0.0162,-0.08819 -0.0413,-0.03598 -0.0247,0.05256 -0.0825,0.228248 -0.12594,0.267407 -0.0427,0.03951 -0.0935,0.184854 -0.41945,0.03704 -0.0572,-0.02151 -0.15734,-0.09596 -0.31257,0.06103 -0.35277,0.32738 -0.59619,0.353132 -0.99166,0.49389 -0.0476,0.02188 -0.14816,0.09737 -0.0286,0.08537 0.11889,-0.01199 0.62018,0 0.89253,-0.313267 0.0572,-0.05503 0.12241,-0.201083 0.33902,-0.116064 0.11994,0.04516 0.34184,0.235302 0.58314,-0.140407 0.14287,0.0949 0.35913,0.0568 0.39405,-0.04763 0.0342,-0.104775 0.0741,-0.208843 0.0737,-0.280104 -2.6e-4,-0.07126 -0.007,-0.164748 -0.007,-0.164748 -0.005,-0.05644 -0.0247,-0.136877 -0.0561,-0.0508 m -8.73831,0.410634 c -0.0328,0.08008 -0.17004,0.35701 -0.14887,0.683331 0.004,0.07514 0.0547,0.22225 0.16792,0.226129 0.0586,-2.65e-4 0.13512,-0.04269 0.18838,-0.227187 0.01,-0.04163 0.0155,-0.07514 0.0194,-0.09172 0.006,-0.02469 -0.0127,-0.05433 -0.0317,0.0028 -0.043,0.112887 -0.15452,0.192262 -0.23813,0.04057 -0.0138,-0.02998 -0.0702,-0.167568 0.0335,-0.467783 0.0212,-0.05821 0.0473,-0.144992 0.0473,-0.144992 0.0229,-0.06562 -0.005,-0.1016 -0.0378,-0.02117 m -5.24263,0.163689 c -0.0328,0.08043 -0.16968,0.357011 -0.14922,0.683329 0.005,0.07514 0.055,0.22225 0.16863,0.226484 0.0589,-2.65e-4 0.13476,-0.04304 0.18838,-0.227542 0.01,-0.04163 0.0152,-0.07514 0.0191,-0.09137 0.006,-0.02506 -0.0127,-0.05468 -0.0318,0.0024 -0.0427,0.112889 -0.15452,0.192264 -0.23777,0.04057 -0.0134,-0.02999 -0.0702,-0.167217 0.0332,-0.467784 0.0208,-0.05821 0.0473,-0.144991 0.0473,-0.144991 0.0233,-0.06562 -0.005,-0.1016 -0.0377,-0.02117 m -3.63643,0.275167 c -0.0744,0.02434 -1.24354,0.519993 -1.32609,0.553508 -0.0773,0.03069 -0.0981,0.05009 -0.11254,0.10301 -0.0145,0.05292 -0.0222,0.08361 -0.0254,0.09243 -0.0152,0.03457 -0.0335,0.06491 0.0801,0.01799 0.055,-0.02257 1.21215,-0.502354 1.29046,-0.536575 0.0631,-0.02787 0.0949,-0.04621 0.12171,-0.100187 0.0268,-0.05433 0.0332,-0.06386 0.048,-0.1016 0.0159,-0.04022 0.0349,-0.06456 -0.0762,-0.02858 m 7.07531,0.335491 -0.19544,0.267404 c -0.006,0.0085 -0.005,0.02011 0.004,0.02574 l 0.33302,0.243062 c 0.008,0.0056 0.019,0.0035 0.0257,-0.0049 l 0.19473,-0.267407 c 0.006,-0.0085 0.005,-0.02011 -0.003,-0.02611 l -0.33302,-0.242359 c -0.008,-0.006 -0.0194,-0.0039 -0.0254,0.0046"
       style="fill:#231f20;fill-opacity:1;fill-rule:evenodd;stroke:none;stroke-width:0.264583"
       id="path1" />
  </g>
</svg>
