<?xml version="1.0" encoding="UTF-8" standalone="no"?>
<!-- Created with Inkscape (http://www.inkscape.org/) -->

<svg
   width="19.425623mm"
   height="6.1207385mm"
   viewBox="0 0 19.425623 6.1207385"
   version="1.1"
   id="svg1"
   xmlns="http://www.w3.org/2000/svg"
   xmlns:svg="http://www.w3.org/2000/svg">
  <defs
     id="defs1" />
  <g
     id="layer1"
     transform="translate(-182.40532,-20.775529)">
    <path
       d="m 194.08767,20.944393 c -0.0699,0.106892 -0.12206,0.363009 -0.0222,0.435679 0.10019,0.07338 0.24659,0.132646 0.24659,0.132646 -0.46602,0.570794 -0.78458,0.679802 -1.05692,0.839611 -0.0706,0.04092 -0.0564,0.07796 -0.0155,0.06703 0.0215,-0.0056 0.38805,-0.06315 0.81597,-0.387701 0.23142,-0.176038 0.37183,-0.47625 0.37183,-0.47625 0,0 0.11606,0.09666 0.13159,0.116062 0.0353,0.04339 0.0543,0.07585 0.0709,0.02963 0.0607,-0.168627 -0.0254,-0.270579 -0.10759,-0.323144 0,0 0.0854,-0.263525 -0.0716,-0.527401 -0.0261,-0.0441 -0.18203,-0.185561 -0.363,0.09384 m 0.24376,0.07303 c 0.10478,0.09737 0.0889,0.257527 0.0847,0.294217 0,0 -0.1337,-0.0628 -0.19403,-0.0882 -0.0596,-0.02574 -0.0914,-0.06385 -0.0635,-0.101952 0.0924,-0.129823 0.13759,-0.125235 0.17286,-0.104069 m -1.73566,-0.205671 c -0.0162,0.03951 -0.11219,0.30339 -0.11219,0.30339 0.0257,0.171802 0.25259,2.014712 0.26776,2.140302 0.0152,0.125941 0.33444,2.210152 0.35102,2.786591 -0.005,0.05927 0.0212,0.08079 0.048,0.02469 0.0268,-0.0568 0.21273,-0.441325 -0.008,-1.851377 -0.0162,-0.117827 -0.35031,-2.500135 -0.35031,-2.500135 0,0 0.19721,0.184854 0.22896,0.21872 0.0314,0.03352 0.0699,0.01588 0.0519,-0.0381 -0.0183,-0.05433 -0.42192,-1.030814 -0.43497,-1.06468 -0.013,-0.03387 -0.0261,-0.05821 -0.0423,-0.01939 m -1.00083,0 c -0.0162,0.03951 -0.14605,0.324908 -0.14605,0.324908 0.004,0.02328 0.0176,0.09702 0.055,0.237421 0.0505,0.189442 0.41381,3.538361 0.42404,3.708752 0.0109,0.170744 0.0441,0.225425 -0.0607,0.295275 -0.10548,0.0702 -0.76059,0.425802 -1.02482,0.03316 -0.0459,-0.0762 -0.0896,-0.215548 -0.0889,-0.37606 0.16545,-0.01516 0.39688,-0.01164 0.74648,0.03634 0.031,-0.05539 0.17956,-0.394406 0.17956,-0.394406 -0.21766,-0.0067 -0.99871,0.04163 -2.54388,-0.46637 -0.0519,-0.01765 -0.121,-0.01693 -0.17321,-0.0113 -0.0522,0.006 -0.43533,0.07091 -0.60043,0.180975 -0.0236,0.01728 -0.0653,0.04516 -0.0822,0.08078 -0.0176,0.03598 -0.0811,0.230717 -0.0864,0.255765 -0.006,0.0254 0.002,0.03316 0.0187,0.03316 0.0166,0 0.8696,-0.05433 0.8696,-0.05433 0.007,-0.0254 0.0363,-0.05186 0.0995,-0.03104 0.0632,0.02117 0.74507,0.197553 0.87665,0.236712 -0.14287,0.05609 -1.59067,0.902054 -1.95791,0.165454 0.006,-0.06032 0.0113,-0.252941 -0.0628,-0.11924 -0.0744,0.13335 -0.18168,0.420865 -0.39864,0.44944 -0.0787,0.01024 -0.30797,0.0081 -0.37676,-0.207788 0.0137,-0.03139 0.0716,-0.190852 0.0755,-0.21731 0.004,-0.02574 0.0109,-0.126293 -0.0617,-0.03987 -0.073,0.08678 -0.25011,0.396523 -0.61101,0.518232 -0.0526,0.01693 -0.27481,0.04127 -0.52316,-0.220485 -0.079,-0.08255 -0.31927,-0.270934 -0.78141,-0.192972 -0.09,0.01516 -0.55421,0.122767 -1.32044,0.794457 -0.11043,0.09701 -0.58526,0.504118 -0.67487,0.568325 -0.0896,0.06456 -0.52493,0.351718 -0.74048,0.05186 -0.073,-0.101952 -0.17286,-0.444148 0.0741,-0.908756 0.0642,-0.125587 0.28293,-0.492477 0.41134,-0.660752 0.0307,-0.03986 0.049,-0.07443 0.0572,-0.101952 0.0692,-0.05398 0.1397,-0.167571 0.19685,-0.388763 0.0155,-0.07937 0.0254,-0.142875 0.0321,-0.173919 0.01,-0.04727 -0.0204,-0.104068 -0.0526,0.0046 -0.072,0.214841 -0.25717,0.364773 -0.39405,0.0755 -0.0222,-0.05715 -0.11465,-0.319265 0.0589,-0.890413 0.0346,-0.111125 0.0787,-0.276225 0.0787,-0.276225 0.0392,-0.124883 -0.007,-0.192968 -0.0617,-0.04057 -0.055,0.153106 -0.28434,0.67945 -0.25224,1.301043 0.007,0.13335 0.078,0.383823 0.23848,0.425805 -10e-4,0.0021 -0.003,0.0039 -0.005,0.0064 -0.1457,0.187677 -0.72531,0.90805 -0.57679,1.553985 0.0325,0.142523 0.19085,0.654756 0.80645,0.484365 0.36618,-0.100897 0.97155,-0.783522 1.12042,-0.892882 0.11748,-0.08713 0.92816,-0.778227 1.46438,-0.49036 0.1524,0.08149 0.35278,0.249412 0.42827,0.308327 0.0759,0.05856 0.46497,0.274108 0.85972,-0.319617 0.0688,0.355952 0.33937,0.3937 0.52,0.341135 0.23248,-0.06879 0.34572,-0.425801 0.34572,-0.425801 0.0378,0.06174 0.17074,0.524933 0.9331,0.348898 0.44697,-0.103365 1.29963,-0.54963 1.47249,-0.608542 0.0741,-0.02506 0.15558,-0.05609 0.28152,-0.0762 -0.0205,0.156633 -0.16052,0.730602 0.24659,0.897467 0.12171,0.05009 0.82091,0.114652 1.10631,-0.362657 0.0466,-0.08396 0.15663,-0.371475 0.10301,-0.86995 -0.012,-0.175331 -0.32632,-2.996493 -0.32632,-2.996493 0,0 0.1972,0.184853 0.22895,0.21872 0.0318,0.03351 0.0702,0.01587 0.0522,-0.0381 -0.0183,-0.05433 -0.42228,-1.030814 -0.43498,-1.064681 -0.013,-0.03387 -0.0261,-0.05821 -0.0423,-0.01939 m 9.01488,0.2286 c -0.0699,0.106539 -0.12171,0.362656 -0.0219,0.435329 0.0998,0.07373 0.24624,0.132644 0.24624,0.132644 -0.46567,0.571145 -1.38042,0.977193 -1.59809,1.146878 -0.0649,0.04904 -0.0561,0.07796 -0.0152,0.06703 0.0363,-0.0099 0.73307,-0.204613 1.37054,-0.750358 0.2921,-0.250473 0.28399,-0.269172 0.35807,-0.421217 0.0635,0.03281 0.10689,0.08573 0.13159,0.116769 0.0353,0.04339 0.0547,0.07549 0.0709,0.02963 0.061,-0.168982 -0.0254,-0.270933 -0.10725,-0.323496 0,0 0.0854,-0.263173 -0.0716,-0.52705 -0.0265,-0.04445 -0.18239,-0.185562 -0.36336,0.09384 m 0.24412,0.07267 c 0.10477,0.09737 0.0889,0.257881 0.0847,0.294568 0,0 -0.13406,-0.06279 -0.19438,-0.08854 -0.0596,-0.02574 -0.0914,-0.06386 -0.0635,-0.101955 0.0924,-0.12982 0.13793,-0.125235 0.17321,-0.104068 m -1.78894,-0.165452 c -0.18309,0.232833 -0.19438,0.538691 -0.21872,0.879472 -0.0261,-0.07126 -0.17215,-0.528812 -0.63994,-0.790572 -0.0339,-0.01905 -0.10301,0.01728 -0.10936,0.124883 -0.004,0.06244 -0.0215,0.214842 0.0226,0.258233 0.0445,0.04304 0.17463,0.128059 0.1965,0.140052 0.0222,0.01199 0.0455,0.01376 0.0522,-0.0127 0.007,-0.02611 0.0363,-0.08678 0.0787,-0.04339 0.0356,0.03598 0.26599,0.226835 0.38594,0.630766 0.0204,0.05362 0.0702,0.05856 0.0815,-0.01728 0.0279,-0.186619 0.0427,-0.511527 0.0575,-0.609597 0.0208,-0.13829 0.0868,-0.423688 0.26212,-0.275167 0.0395,0.03351 0.0818,0.07796 0.0818,0.07796 0.0374,0.04657 0.084,0.10019 0.10689,0.04586 0.0342,-0.08114 0.0617,-0.216606 0.024,-0.289631 -0.0166,-0.03281 -0.23354,-0.306917 -0.3817,-0.118886 m -1.80023,-0.01093 c -0.0674,0.03916 -1.78752,1.031875 -1.85702,1.077031 -0.0699,0.04515 -0.0945,0.05644 -0.10583,0.110419 -0.0109,0.05362 -0.0169,0.08467 -0.0198,0.09313 -0.0127,0.03598 -0.0215,0.08043 0.0811,0.01341 0.0321,-0.02082 1.76177,-1.020586 1.82245,-1.058334 0.0582,-0.03634 0.0917,-0.05186 0.11501,-0.107598 0.0236,-0.05539 0.0296,-0.06597 0.042,-0.104775 0.0134,-0.04092 0.0268,-0.08467 -0.078,-0.02328 m -8.43139,0.05362 c -0.17391,0.221544 -0.1852,0.512233 -0.20813,0.836787 -0.0247,-0.06773 -0.16369,-0.50306 -0.60854,-0.752472 -0.0321,-0.01799 -0.0977,0.01659 -0.10372,0.118885 -0.004,0.05997 -0.0208,0.204965 0.0212,0.24624 0.042,0.04092 0.16615,0.121708 0.18697,0.132643 0.0208,0.01164 0.043,0.01304 0.0494,-0.01164 0.006,-0.02506 0.0349,-0.08255 0.0751,-0.04127 0.0339,0.03457 0.25294,0.215545 0.36689,0.59972 0.0198,0.05116 0.0667,0.05609 0.078,-0.01622 0.0261,-0.177448 0.0402,-0.486481 0.0543,-0.579966 0.0201,-0.131586 0.0829,-0.402871 0.24941,-0.262113 0.0378,0.0321 0.078,0.07444 0.078,0.07444 0.0353,0.0448 0.0797,0.09525 0.10124,0.0441 0.0328,-0.07761 0.0589,-0.20673 0.0233,-0.275873 -0.0159,-0.03104 -0.22225,-0.2921 -0.36337,-0.113242 m -2.09796,-0.0046 c -0.0303,0.07514 -0.1584,0.332668 -0.139,0.636762 0.005,0.0702 0.0512,0.207081 0.15699,0.210608 0.0543,-2.64e-4 0.12523,-0.03987 0.17533,-0.211667 0.008,-0.03881 0.0141,-0.06985 0.018,-0.08502 0.005,-0.02328 -0.012,-0.05115 -0.0296,0.0024 -0.0399,0.104775 -0.14394,0.178507 -0.2219,0.03739 -0.0127,-0.02822 -0.0653,-0.155927 0.0314,-0.435679 0.019,-0.05433 0.0437,-0.135115 0.0437,-0.135115 0.0219,-0.06103 -0.004,-0.09454 -0.0349,-0.01976 m -1.23614,0.09701 c -0.17427,0.221546 -0.18521,0.512585 -0.20849,0.837493 -0.0243,-0.06844 -0.16333,-0.503412 -0.60854,-0.752826 -0.0321,-0.01799 -0.0977,0.01659 -0.10372,0.118887 -0.004,0.05962 -0.0208,0.204611 0.0212,0.245886 0.0423,0.04127 0.16616,0.121708 0.18697,0.132995 0.0212,0.01164 0.0434,0.01342 0.0497,-0.01198 0.006,-0.02469 0.0346,-0.08255 0.0748,-0.04092 0.0339,0.03422 0.2533,0.215549 0.36689,0.599724 0.0198,0.0508 0.067,0.05574 0.078,-0.01659 0.0261,-0.1778 0.0406,-0.486479 0.0543,-0.579967 0.0201,-0.13123 0.0829,-0.402518 0.24942,-0.26176 0.0377,0.0321 0.078,0.07444 0.078,0.07444 0.0356,0.04445 0.0797,0.09525 0.1016,0.04374 0.0325,-0.07761 0.0589,-0.206023 0.0229,-0.276225 -0.0159,-0.03069 -0.2219,-0.291748 -0.36301,-0.11289 m -1.89336,0.231071 c -0.0324,0.08467 -0.1718,0.378177 -0.12911,0.71261 0.0102,0.07726 0.0751,0.225425 0.20355,0.221896 0.0663,-0.0035 0.14922,-0.05256 0.19932,-0.245885 0.008,-0.04339 0.0127,-0.07832 0.0162,-0.09525 0.005,-0.02612 -0.0173,-0.05539 -0.0356,0.0049 -0.042,0.118886 -0.16334,0.207079 -0.26635,0.05644 -0.0169,-0.02963 -0.0889,-0.167569 0.0106,-0.482952 0.0201,-0.06103 0.0448,-0.1524 0.0448,-0.1524 0.0226,-0.06879 -0.0113,-0.104069 -0.0434,-0.01939 m 7.51735,0.242004 c -0.0843,0.03422 -3.05824,1.305983 -3.14502,1.343025 -0.0864,0.03669 -0.11253,0.05327 -0.13088,0.112535 -0.0183,0.05927 -0.0279,0.09102 -0.0325,0.103013 -0.0155,0.04057 -0.0367,0.08078 0.09,0.024 0.0388,-0.01765 3.03495,-1.288696 3.10374,-1.325386 0.0688,-0.03633 0.10936,-0.04833 0.14147,-0.108656 0.0325,-0.06032 0.0402,-0.07055 0.0586,-0.113242 0.0194,-0.0448 0.042,-0.08643 -0.0854,-0.03528 m -4.47429,0.643467 c -0.1277,0.139348 -0.16756,0.23495 -0.20531,0.294569 -0.0529,0.08255 0.0134,0.118887 0.0727,0.05503 0.0596,-0.06385 0.10054,-0.128058 0.27411,-0.123471 0.17392,0.0046 0.58984,-0.0113 0.43427,0.103011 -0.15522,0.113948 -0.26035,0.180268 -0.26035,0.180268 -0.1009,0.07232 -0.18944,0.20814 -0.0113,0.132646 0.17815,-0.0755 0.41345,-0.194381 0.59373,-0.466021 0.0529,-0.07938 0.1143,-0.185208 -0.13018,-0.221895 -0.24447,-0.03634 -0.63994,-0.09349 -0.76765,0.04586 m 10.94599,0.09208 c -0.0342,0.08432 -0.17815,0.37465 -0.15628,0.71755 0.005,0.07867 0.0575,0.233185 0.17674,0.237067 0.0617,-2.65e-4 0.14111,-0.0448 0.19791,-0.238477 0.01,-0.04339 0.0155,-0.07902 0.0198,-0.09596 0.006,-0.02611 -0.013,-0.0575 -0.0335,0.0024 -0.0448,0.118887 -0.16192,0.201789 -0.24976,0.04269 -0.0141,-0.0314 -0.0734,-0.175683 0.0356,-0.490714 0.0215,-0.06103 0.0494,-0.1524 0.0494,-0.1524 0.0243,-0.06879 -0.005,-0.10654 -0.0399,-0.02222 m -6.79273,0.176389 c -0.0466,0.131586 -0.23954,0.584552 -0.22402,1.12395 0.004,0.124529 0.0653,0.368652 0.21625,0.378177 0.078,0.0013 0.18063,-0.06632 0.25894,-0.36971 0.0138,-0.06844 0.0233,-0.123473 0.0289,-0.150283 0.008,-0.04092 -0.0152,-0.09031 -0.0423,0.0032 -0.0614,0.18556 -0.21308,0.31256 -0.31856,0.05997 -0.0169,-0.05009 -0.0871,-0.278693 0.0621,-0.77117 0.0296,-0.09525 0.0677,-0.238125 0.0677,-0.238125 0.0335,-0.107598 -0.002,-0.167571 -0.049,-0.03598 m 10.10002,-0.0028 c -0.0314,0.07761 -0.1651,0.346782 -0.14499,0.663575 0.005,0.07338 0.0536,0.216607 0.16404,0.219782 0.0568,0 0.13088,-0.04127 0.1831,-0.22084 0.009,-0.04022 0.0148,-0.07303 0.0183,-0.08855 0.006,-0.02434 -0.0124,-0.05327 -0.0307,0.0024 -0.042,0.10936 -0.15028,0.186619 -0.23142,0.03916 -0.0131,-0.02928 -0.0677,-0.162632 0.0328,-0.45438 0.0201,-0.05679 0.0459,-0.14111 0.0459,-0.14111 0.0222,-0.0635 -0.005,-0.09843 -0.037,-0.02011 m -6.20607,0.0081 -0.16828,0.230717 -0.32279,-0.235657 c -0.008,-0.0056 -0.0198,-0.0035 -0.0261,0.0049 l -0.19509,0.267404 c -0.006,0.0081 -0.005,0.02011 0.004,0.02611 l 0.33267,0.242711 c 0.008,0.0056 0.0198,0.0035 0.0257,-0.0049 l 0.16828,-0.230717 0.32314,0.235654 c 0.008,0.0056 0.0194,0.0035 0.0257,-0.0049 l 0.19508,-0.267406 c 0.006,-0.0085 0.005,-0.02011 -0.004,-0.02612 l -0.33267,-0.24271 c -0.008,-0.0056 -0.0198,-0.0035 -0.0258,0.0049 m -9.22619,0.4445 c -0.0469,0.131585 -0.23989,0.584552 -0.22402,1.12395 0.004,0.124883 0.0653,0.3683 0.2159,0.378529 0.0783,0.0013 0.18098,-0.06668 0.25929,-0.369711 0.0141,-0.06879 0.0233,-0.123825 0.0289,-0.150635 0.008,-0.04092 -0.0148,-0.09031 -0.0423,0.0035 -0.0614,0.185209 -0.21273,0.312209 -0.31856,0.05962 -0.0169,-0.04974 -0.0871,-0.278342 0.0621,-0.770819 0.0296,-0.0956 0.0681,-0.238477 0.0681,-0.238477 0.0332,-0.107598 -0.002,-0.167216 -0.0494,-0.03598 m 10.52935,-0.02858 c -0.0127,0.04551 -0.0455,0.239887 -0.0533,0.279752 -0.008,0.03986 -0.007,0.07973 0.0124,0.113948 0.0198,0.03457 0.0706,0.153104 0.10689,0.24906 0.0367,0.09631 0.41452,0.82409 0.44944,0.888648 0.0346,0.06491 0.042,0.112887 0.007,0.155221 -1.2125,1.279879 -3.55283,2.066573 -3.62762,2.109964 -0.0748,0.04374 -0.0554,0.07761 0.0709,0.05539 0.18838,-0.03316 1.23966,-0.208844 1.53917,-0.353129 0.19791,-0.09525 0.88794,-0.434271 1.45239,-0.876655 -0.0159,0.1143 -0.0303,0.282223 -0.0222,0.495655 0.0381,1.029052 0.95815,0.857954 1.1998,0.805037 0.7239,-0.15875 1.60866,-1.158875 1.68381,-1.359958 0.0744,-0.198612 0.085,-0.379942 0.0684,-0.537985 0.1905,-0.103011 0.59972,-0.432859 0.59972,-0.432859 0.0169,0.438857 0.36583,0.570794 0.47378,0.589492 0.50306,0.07655 0.75565,-0.34431 0.86289,-0.480835 0.0917,0.240241 0.31221,0.28716 0.42545,0.309737 0.43462,0.08643 0.51929,-0.221192 0.54187,-0.291042 0.13617,-0.423333 -0.10936,-0.73942 -0.14076,-0.774345 -0.0317,-0.03528 -0.0476,-0.0013 -0.0589,0.03916 -0.0113,0.04057 -0.0459,0.19332 -0.0681,0.288925 0,0 0.091,0.147812 0.12312,0.223308 0.0325,0.07549 -0.0159,0.116769 -0.10936,0.128059 -0.26423,0.0321 -0.47484,-0.11924 -0.54751,-0.18909 -0.073,-0.06985 0.006,-0.193323 0.0646,-0.341135 0.0469,-0.11783 -0.0402,-0.132292 -0.1069,-2.65e-4 -0.22366,0.58914 -0.53869,0.65264 -0.62124,0.674865 -0.74647,0.203552 -0.68192,-0.478367 -0.67945,-0.590198 0.003,-0.111477 -0.079,-0.07055 -0.17074,0.0032 -0.31397,0.252238 -0.56692,0.40005 -0.70309,0.460375 -0.11712,-0.2286 -0.28716,-0.372534 -0.35877,-0.424392 -0.80751,-0.588433 -0.87419,0.599723 -0.84984,0.726723 0.12312,0.505532 0.94791,0.199319 1.07703,0.183444 0.12947,-0.01516 0.0871,0.155929 0.0148,0.257529 -0.17921,0.250119 -0.38558,0.429684 -0.57291,0.582084 -0.79975,0.652637 -1.20121,0.601133 -1.32468,0.5969 -0.78528,-0.02188 -0.71296,-0.868188 -0.66957,-1.049515 0.23636,-0.199673 0.43956,-0.417335 0.55739,-0.64135 0.048,-0.122767 0.13088,-0.401815 -0.0187,-0.751769 -0.0787,-0.154165 -0.32632,-0.585965 -0.32632,-0.585965 0,0 0.18239,0.0056 0.19967,0.0053 0.0173,-7.94e-4 0.0515,-0.01834 0.007,-0.0695 -0.0444,-0.0508 -0.42757,-0.433562 -0.4505,-0.464254 -0.0233,-0.03069 -0.0444,-0.05257 -0.0575,-0.0074 m 2.42217,1.7526 c 0,0 -0.10971,0.06314 -0.41733,0.04268 -0.25788,-0.01765 -0.23566,-0.117827 -0.20038,-0.155927 0.0385,-0.04163 0.35419,-0.240241 0.61771,0.113242 M 184.2006,22.980967 c -0.0325,0.08502 -0.17145,0.378177 -0.12876,0.71261 0.0102,0.07726 0.0748,0.225425 0.2032,0.221898 0.0667,-0.0039 0.14958,-0.05256 0.19932,-0.245533 0.008,-0.04375 0.013,-0.07832 0.0162,-0.0956 0.006,-0.02611 -0.0173,-0.05539 -0.0353,0.0046 -0.042,0.119237 -0.16334,0.207433 -0.2667,0.05715 -0.0166,-0.03034 -0.0885,-0.168275 0.0109,-0.483307 0.0201,-0.06138 0.0448,-0.152048 0.0448,-0.152048 0.0226,-0.06949 -0.0113,-0.10442 -0.0437,-0.01976 m 5.11069,0.01659 c -0.0307,0.07091 -0.15875,0.31609 -0.13935,0.604663 0.005,0.06668 0.0512,0.196495 0.15699,0.200377 0.0547,-2.65e-4 0.12559,-0.0381 0.17568,-0.201435 0.008,-0.03669 0.0141,-0.06668 0.0177,-0.08114 0.005,-0.02188 -0.0116,-0.04798 -0.0293,0.0028 -0.0402,0.09983 -0.14429,0.169685 -0.2219,0.03563 -0.0127,-0.02716 -0.0653,-0.148167 0.031,-0.413809 0.0194,-0.05186 0.0441,-0.128762 0.0441,-0.128762 0.0219,-0.05786 -0.004,-0.08961 -0.0349,-0.01834 m -2.1971,0.239183 -0.19474,0.267406 c -0.006,0.0081 -0.005,0.02011 0.003,0.02612 l 0.33267,0.242358 c 0.008,0.006 0.0198,0.0039 0.0257,-0.0049 l 0.19509,-0.267051 c 0.006,-0.0085 0.005,-0.02045 -0.004,-0.02612 l -0.33267,-0.24271 c -0.008,-0.0056 -0.0198,-0.0035 -0.0257,0.0049 m 0.38558,0.638175 -0.16827,0.230364 -0.32315,-0.235656 c -0.008,-0.0056 -0.0198,-0.0032 -0.0257,0.0053 l -0.19509,0.267054 c -0.006,0.0085 -0.005,0.02045 0.004,0.02612 l 0.33267,0.242712 c 0.008,0.006 0.0194,0.0039 0.0257,-0.0049 l 0.16828,-0.230365 0.32314,0.235304 c 0.008,0.006 0.0194,0.0039 0.0257,-0.0049 l 0.19508,-0.267052 c 0.006,-0.0088 0.005,-0.02045 -0.004,-0.02646 l -0.33267,-0.242713 c -0.008,-0.0056 -0.0198,-0.0032 -0.0257,0.0053 m 7.60483,-0.658283 c -0.0536,0.06597 -0.58984,0.770115 -0.58984,0.770115 l -0.38982,-0.278342 c 0,0 0.1591,-0.03951 0.18662,-0.04798 0.0279,-0.0081 0.0437,-0.04375 -0.006,-0.0695 -0.0497,-0.02574 -0.52,-0.213431 -0.55598,-0.227542 -0.0356,-0.01482 -0.0487,-0.03069 -0.0519,0.0071 -0.003,0.0381 -0.008,0.347485 -0.008,0.347485 0,0 -0.007,0.02188 0.0339,0.04516 0.0409,0.02328 0.0815,0.07338 0.11466,0.106538 0.0339,0.03387 0.47095,0.379237 0.49247,0.391231 0,0 -0.21907,0.384527 -0.24659,0.685448 -0.0279,0.300919 0.005,0.716137 0.41663,0.582435 0.11077,-0.03175 0.5715,-0.214841 0.67451,-0.536223 0.0335,-0.118179 0.12806,-0.331962 -0.0261,-0.54892 -0.0893,-0.127355 -0.44909,-0.342548 -0.44909,-0.342548 0,0 0.27623,-0.382059 0.30269,-0.428625 0.0261,-0.04692 0.12805,-0.3429 0.13934,-0.414515 0.0109,-0.07161 0.0166,-0.107596 -0.0367,-0.04127 m -0.0945,1.622779 c -0.15275,0.125588 -0.47378,0.291746 -0.56374,0.300567 -0.0903,0.0085 -0.32985,-0.03528 -0.22578,-0.280458 0.0356,-0.07973 0.27482,-0.489305 0.27482,-0.489305 0.0896,0.04939 0.6678,0.343959 0.5147,0.469196 m 6.23041,0.561975 c -0.0311,0.08608 -0.043,0.143227 -0.0395,0.175684 0.003,0.03316 0.0145,0.1397 0.0145,0.1397 -0.0321,0.02574 -0.16863,0.11077 -0.30551,0.01024 0.009,-0.02928 0.0268,-0.0889 0.0311,-0.121354 0.0148,-0.0508 -0.0162,-0.08855 -0.0413,-0.03598 -0.0251,0.05256 -0.0829,0.227894 -0.12594,0.267404 -0.043,0.03986 -0.0938,0.184856 -0.41945,0.0374 -0.0571,-0.02188 -0.15734,-0.09596 -0.31291,0.06068 -0.35278,0.327377 -0.5962,0.353131 -0.99131,0.493535 -0.0476,0.02222 -0.14852,0.09737 -0.0293,0.08573 0.11924,-0.01236 0.62054,0 0.89323,-0.312912 0.0572,-0.05539 0.12206,-0.201438 0.33902,-0.116771 0.11995,0.04551 0.34149,0.235656 0.5835,-0.140052 0.14216,0.09454 0.35842,0.0568 0.39334,-0.04763 0.0346,-0.104775 0.0741,-0.208844 0.0737,-0.280106 -7.9e-4,-0.07126 -0.006,-0.164746 -0.006,-0.164746 -0.005,-0.05645 -0.025,-0.136879 -0.0568,-0.0508 m -8.75383,0.110067 c -0.0307,0.07126 -0.1584,0.316087 -0.139,0.60466 0.005,0.06703 0.0512,0.19685 0.15699,0.200377 0.0547,-2.65e-4 0.12524,-0.0381 0.17569,-0.201084 0.008,-0.03704 0.0141,-0.06668 0.0176,-0.08114 0.006,-0.02188 -0.012,-0.04833 -0.0296,0.0024 -0.0399,0.09948 -0.14393,0.169685 -0.22154,0.03563 -0.0127,-0.02681 -0.0653,-0.147815 0.031,-0.413808 0.0194,-0.05186 0.0437,-0.128413 0.0437,-0.128413 0.0222,-0.05821 -0.004,-0.0896 -0.0349,-0.01871 m -2.8127,0.435679 c -0.0123,0.02469 -0.061,0.108656 -0.0681,0.126648 -0.007,0.01765 2.6e-4,0.03704 0.0127,0.02328 0.0123,-0.01341 0.008,-0.08502 0.23177,-0.08149 0.0325,-7.93e-4 0.0437,0.0088 0.0307,0.02574 -0.0134,0.01693 -0.21413,0.189442 -0.26529,0.420159 -0.0631,0.335846 0.25965,0.274108 0.32668,0.247298 0.0406,-0.01587 0.24623,-0.109009 0.4064,-0.351367 0.0226,-0.03457 0.0342,-0.08537 -0.0131,-0.03492 -0.0473,0.05045 -0.26105,0.248708 -0.48859,0.258585 -0.17674,-0.01199 -0.2025,-0.16157 -0.15664,-0.233891 0.0459,-0.07232 0.21943,-0.243062 0.24977,-0.287161 0.031,-0.0441 0.0568,-0.110773 0.0568,-0.110773 0.0162,-0.04833 0.024,-0.07973 -0.0257,-0.08184 -0.0501,-0.0024 -0.22401,-0.03457 -0.29739,0.07973 m -2.05634,-0.0254 c -0.0307,0.07091 -0.15875,0.315738 -0.13899,0.604663 0.005,0.06632 0.0511,0.196495 0.15663,0.200025 0.0547,0 0.12559,-0.03775 0.17568,-0.201084 0.008,-0.03704 0.0141,-0.06632 0.0177,-0.08114 0.005,-0.02188 -0.0116,-0.04798 -0.0296,0.0024 -0.0399,0.09984 -0.14358,0.170039 -0.22155,0.03598 -0.0127,-0.02646 -0.0653,-0.148167 0.0314,-0.413808 0.019,-0.05186 0.0437,-0.128411 0.0437,-0.128411 0.0215,-0.05821 -0.004,-0.08996 -0.0349,-0.01871 m -1.83832,0.253649 c -0.0744,0.02434 -0.91793,0.326318 -1.00048,0.359481 -0.0769,0.03069 -0.0977,0.05044 -0.11254,0.10301 -0.0145,0.05292 -0.0219,0.08361 -0.0254,0.09208 -0.0148,0.03492 -0.0335,0.06527 0.0801,0.01834 0.055,-0.02257 0.88618,-0.308327 0.9645,-0.3429 0.0628,-0.02752 0.0949,-0.04586 0.1217,-0.100187 0.0268,-0.05398 0.0335,-0.0635 0.0483,-0.101248 0.0159,-0.04057 0.0346,-0.06491 -0.0762,-0.02858"
       style="fill:#231f20;fill-opacity:1;fill-rule:evenodd;stroke:none;stroke-width:0.264583"
       id="path1" />
  </g>
</svg>
