<?xml version="1.0" encoding="UTF-8" standalone="no"?>
<!-- Created with Inkscape (http://www.inkscape.org/) -->

<svg
   width="19.895281mm"
   height="7.0458879mm"
   viewBox="0 0 19.895281 7.0458879"
   version="1.1"
   id="svg1"
   xmlns:inkscape="http://www.inkscape.org/namespaces/inkscape"
   xmlns:sodipodi="http://sodipodi.sourceforge.net/DTD/sodipodi-0.dtd"
   xmlns="http://www.w3.org/2000/svg"
   xmlns:svg="http://www.w3.org/2000/svg">
  <sodipodi:namedview
     id="namedview1"
     pagecolor="#ffffff"
     bordercolor="#666666"
     borderopacity="1.0"
     inkscape:showpageshadow="2"
     inkscape:pageopacity="0.0"
     inkscape:pagecheckerboard="0"
     inkscape:deskcolor="#d1d1d1"
     inkscape:document-units="mm" />
  <defs
     id="defs1" />
  <g
     inkscape:label="Layer 1"
     inkscape:groupmode="layer"
     id="layer1"
     transform="translate(-136.12946,-77.83708)">
    <path
       d="m 143.27798,77.868394 c -0.0773,0.04198 -1.34761,0.674158 -1.42769,0.722489 -0.0801,0.04727 -0.10831,0.05962 -0.12312,0.119592 -0.0148,0.05997 -0.0222,0.0949 -0.0257,0.104421 -0.0155,0.03986 -0.0275,0.08925 0.0903,0.01799 0.037,-0.02223 1.32221,-0.66181 1.38854,-0.702379 0.0656,-0.04022 0.10512,-0.05468 0.1337,-0.116771 0.0282,-0.06138 0.0353,-0.07232 0.0508,-0.11571 0.0166,-0.04551 0.0332,-0.09454 -0.0868,-0.02963 m -3.38773,0.472016 c -0.15769,0.233892 -0.1464,0.524582 -0.14534,0.850194 -0.0296,-0.06597 -0.20109,-0.489654 -0.66287,-0.705202 -0.0339,-0.01553 -0.0967,0.02363 -0.0953,0.126294 7.9e-4,0.06033 -0.005,0.206023 0.0399,0.243771 0.0448,0.03775 0.17498,0.109008 0.19614,0.118533 0.0219,0.01024 0.0444,0.01024 0.0487,-0.01516 0.005,-0.0254 0.0257,-0.08184 0.0716,-0.04692 0.20673,0.157692 0.31327,0.307975 0.36971,0.418748 0.1397,0.23777 -0.025,0.446262 -0.0921,0.54116 -0.0776,0.110067 -0.40781,0.396169 -0.48825,0.512585 -0.0804,0.115713 0.17569,-0.0448 0.4826,-0.31891 0.30692,-0.274108 0.22296,-1.066093 0.22613,-1.18745 0.01,-0.132643 0.0526,-0.40781 0.22931,-0.279752 0.0402,0.02893 0.0833,0.06809 0.0833,0.06809 0.0385,0.04198 0.0864,0.08925 0.10442,0.03634 0.0268,-0.07973 0.0434,-0.209902 0.002,-0.276929 -0.0183,-0.02928 -0.24342,-0.274815 -0.37042,-0.08537 m 2.87338,0.203552 c -0.16369,0.07902 -0.32562,0.334081 -0.26424,0.433213 0.0522,0.08325 0.15946,0.15875 0.15946,0.15875 -0.0519,0.02928 -0.10971,0.0448 -0.12524,0.09878 -0.0155,0.05468 -0.0201,0.08678 -0.0215,0.106539 -0.001,0.01977 -0.005,0.03493 0.0268,0.02612 0.0311,-0.0088 0.0459,-0.0141 0.0459,-0.0141 0.09,-0.04022 0.43462,-0.219075 0.66604,-0.273401 0.007,-0.0019 0.0222,-0.07726 0.0296,-0.118888 0.008,-0.04127 -0.0349,-0.03739 -0.1023,-0.02223 -0.0674,0.01482 -0.31115,0.08572 -0.44027,-0.02469 -0.11113,-0.0949 -0.12524,-0.133702 -0.0857,-0.15734 0.0395,-0.024 0.15099,-0.09772 0.22225,-0.0067 0.0381,0.04798 0.0699,0.04904 0.0864,0.01693 0.0162,-0.03175 0.0716,-0.116065 0.0554,-0.150284 -0.0166,-0.03422 -0.0889,-0.151341 -0.25259,-0.07267 m 5.51956,0.161573 c -0.0699,0.106892 -0.12206,0.363009 -0.0222,0.436034 0.10019,0.07303 0.24659,0.132291 0.24659,0.132291 -0.46602,0.570794 -0.78458,0.679802 -1.05727,0.839611 -0.0702,0.04127 -0.0561,0.07761 -0.0152,0.06667 0.0215,-0.0056 0.3877,-0.06279 0.81597,-0.387702 0.23142,-0.176036 0.37183,-0.47625 0.37183,-0.47625 0,0 0.11571,0.09666 0.13158,0.116416 0.0349,0.04339 0.054,0.07585 0.0709,0.02963 0.0607,-0.168627 -0.0254,-0.270934 -0.10759,-0.323498 0,0 0.0854,-0.262819 -0.0716,-0.52705 -0.0261,-0.0441 -0.18203,-0.185561 -0.36301,0.09384 m 0.24377,0.07303 c 0.10478,0.09737 0.0889,0.257527 0.0847,0.294569 0,0 -0.1337,-0.06315 -0.19368,-0.0889 -0.06,-0.0254 -0.0917,-0.0635 -0.0639,-0.1016 0.0921,-0.129821 0.13794,-0.125235 0.17286,-0.104069 m -1.73602,-0.205668 c -0.0162,0.03916 -0.13652,0.336195 -0.13652,0.336195 0.002,0.01765 0.0356,0.146757 0.042,0.195792 0.0561,0.427921 0.4071,2.959806 0.508,3.759906 0.0494,0.394052 0.0878,0.74789 0.0935,0.93839 -0.005,0.05891 0.0208,0.08079 0.048,0.02434 0.0145,-0.03069 0.0748,-0.155575 0.0935,-0.484013 0.0138,-0.246237 -0.006,-0.625475 -0.0766,-1.147233 -0.0102,-0.07585 -0.375,-2.720269 -0.375,-2.720269 0,0 0.1972,0.185208 0.2286,0.219075 0.0318,0.03352 0.0706,0.01553 0.0519,-0.03845 -0.018,-0.05398 -0.42157,-1.030113 -0.43497,-1.064331 -0.0131,-0.03387 -0.0258,-0.05856 -0.0423,-0.01939 m -1.14794,0.01659 c -0.0159,0.03916 -0.12735,0.31609 -0.12735,0.31609 0.0152,0.101952 0.25118,1.535642 0.40499,2.662766 0.0236,0.17639 0.19368,1.154642 0.16016,1.364544 -0.008,0.04762 -0.0257,0.11924 -0.0674,0.20955 0.004,-0.183444 -0.037,-0.47272 -0.23954,-0.902404 -0.33196,-0.704498 -1.78752,-1.586796 -2.22779,-2.269421 -0.005,-0.0071 -0.005,-0.01516 -0.005,-0.01516 0,0 0.2099,0.0695 0.23988,0.07655 0.0466,0.0099 0.11536,0.0063 0.0677,-0.03633 -0.0469,-0.04339 -0.74895,-0.543277 -0.81457,-0.593018 -0.0656,-0.04974 -0.0928,-0.08608 -0.0928,-0.03422 0,0.05221 0.0342,0.396172 0.0363,0.427922 0.002,0.03175 0.004,0.04974 0.043,0.07902 0.0385,0.02963 0.18556,0.195088 0.31009,0.346781 0.68968,0.784932 1.49048,1.434042 1.60055,1.526117 0.10513,0.08819 0.95568,0.802569 0.98919,1.47461 10e-4,0.03211 0.002,0.05821 10e-4,0.0829 -0.20602,0.314325 -0.66992,0.757412 -1.71591,1.189918 -0.14287,0.07549 -0.0928,0.117475 0.008,0.100894 0.10089,-0.01693 1.32786,-0.235302 1.82351,-1.058333 0.18521,-0.353129 0.3108,-0.722842 0.20179,-1.470377 -0.0339,-0.235302 -0.40076,-2.574925 -0.40076,-2.574925 0,0 0.1972,0.184856 0.2286,0.218368 0.0318,0.03351 0.0702,0.01587 0.0522,-0.0381 -0.018,-0.05398 -0.42157,-1.030462 -0.43462,-1.064328 -0.0134,-0.03387 -0.0261,-0.05856 -0.0427,-0.01939 m 9.16235,0.212021 c -0.0699,0.106537 -0.12206,0.362654 -0.0219,0.435327 0.0998,0.07373 0.24624,0.132643 0.24624,0.132643 -0.46567,0.571148 -1.38042,0.976842 -1.59809,1.146882 -0.0649,0.04904 -0.0564,0.07796 -0.0152,0.06703 0.0363,-0.0099 0.73308,-0.204963 1.37019,-0.750711 0.2921,-0.250118 0.28434,-0.269168 0.35843,-0.420864 0.0635,0.03281 0.10689,0.08537 0.13158,0.116416 0.0353,0.04339 0.0543,0.07585 0.0706,0.02999 0.0614,-0.169333 -0.0251,-0.270933 -0.10689,-0.323498 0,0 0.0854,-0.263525 -0.072,-0.527402 -0.0261,-0.0441 -0.18168,-0.185208 -0.36301,0.09419 m 0.24377,0.07267 c 0.10478,0.09737 0.0889,0.25753 0.085,0.294217 0,0 -0.13405,-0.06244 -0.19438,-0.08819 -0.0596,-0.02574 -0.0914,-0.06385 -0.0635,-0.101952 0.0924,-0.129823 0.13794,-0.125589 0.17286,-0.104071 m -14.1157,-0.187677 c -0.0282,0.08572 -0.15063,0.383117 -0.10442,0.720373 0.0106,0.07796 0.0734,0.226836 0.19156,0.222602 0.061,-0.0049 0.13688,-0.05433 0.17886,-0.250118 0.007,-0.04375 0.0102,-0.07902 0.013,-0.09631 0.004,-0.02611 -0.0173,-0.05574 -0.0328,0.0053 -0.036,0.120296 -0.14605,0.210608 -0.24412,0.05962 -0.0162,-0.03069 -0.0854,-0.168982 2.7e-4,-0.488244 0.0169,-0.06209 0.0381,-0.154165 0.0381,-0.154165 0.0194,-0.06985 -0.0124,-0.105127 -0.0406,-0.01905 m 12.32712,0.02188 c -0.18274,0.232834 -0.19473,0.538692 -0.21908,0.879827 -0.0257,-0.07126 -0.1718,-0.52846 -0.63923,-0.790575 -0.0342,-0.01905 -0.10301,0.01693 -0.10971,0.124884 -0.004,0.06244 -0.0215,0.214841 0.0226,0.258233 0.0441,0.04339 0.17462,0.128058 0.19649,0.140052 0.0222,0.01199 0.0455,0.01341 0.0522,-0.0127 0.006,-0.02611 0.0363,-0.08678 0.0787,-0.04339 0.0356,0.03634 0.266,0.226484 0.38559,0.630415 0.0208,0.05398 0.0702,0.05891 0.0818,-0.01693 0.0279,-0.186973 0.0427,-0.511527 0.0575,-0.609952 0.0208,-0.137938 0.0871,-0.423334 0.26211,-0.275167 0.0395,0.03351 0.0818,0.07796 0.0818,0.07796 0.0374,0.04692 0.0836,0.100542 0.10654,0.04657 0.0346,-0.08149 0.0621,-0.216958 0.0243,-0.290335 -0.0166,-0.03246 -0.23354,-0.306917 -0.38171,-0.118886 m -1.80023,-0.01058 c -0.0677,0.03916 -1.78787,1.031875 -1.85737,1.077029 -0.0695,0.04445 -0.0945,0.05609 -0.10548,0.110421 -0.0113,0.05327 -0.0169,0.08467 -0.0198,0.09313 -0.013,0.03598 -0.0215,0.08043 0.0811,0.01341 0.0321,-0.02082 1.76177,-1.020585 1.82245,-1.058334 0.0582,-0.03633 0.0921,-0.05186 0.11501,-0.10795 0.0236,-0.05539 0.0293,-0.06526 0.042,-0.104068 0.013,-0.04128 0.0265,-0.08537 -0.078,-0.02363 m -6.81178,0.05362 c -0.031,0.09913 -0.1644,0.44309 -0.11889,0.837496 0.0106,0.09066 0.0765,0.265994 0.2025,0.263525 0.0653,-0.0039 0.1464,-0.06033 0.19367,-0.287515 0.007,-0.05115 0.0116,-0.09172 0.0148,-0.111831 0.005,-0.03069 -0.018,-0.06526 -0.0349,0.0053 -0.0402,0.139348 -0.1584,0.242006 -0.26176,0.0635 -0.0166,-0.03528 -0.0889,-0.19826 0.005,-0.568677 0.0194,-0.07161 0.0423,-0.178507 0.0423,-0.178507 0.0215,-0.08114 -0.012,-0.123118 -0.043,-0.02328 m -7.51593,0.06068 c -0.17428,0.221191 -0.18521,0.512233 -0.20814,0.836787 -0.0247,-0.06809 -0.16404,-0.50306 -0.6089,-0.752475 -0.0321,-0.01799 -0.0977,0.01659 -0.10371,0.118888 -0.004,0.05997 -0.0212,0.204258 0.0212,0.245533 0.042,0.04127 0.16616,0.12206 0.18698,0.132995 0.0208,0.01199 0.043,0.01341 0.0494,-0.0113 0.006,-0.0254 0.0349,-0.0829 0.0748,-0.04127 0.0342,0.03422 0.2533,0.215545 0.36725,0.59972 0.0198,0.0508 0.0667,0.05574 0.0776,-0.01659 0.0264,-0.1778 0.0406,-0.486482 0.0547,-0.579967 0.0201,-0.131588 0.0829,-0.402873 0.24941,-0.261763 0.0377,0.03211 0.078,0.07408 0.078,0.07408 0.0356,0.04445 0.0797,0.0956 0.1016,0.0441 0.0325,-0.07726 0.0589,-0.206375 0.0229,-0.275873 -0.0159,-0.03104 -0.2219,-0.2921 -0.36301,-0.112888 m 1.09785,-0.02681 c -0.0395,0.134762 -0.0952,0.361246 -0.0952,0.361246 0.0226,0.08149 0.1143,0.512233 0.16616,0.772583 0.12594,0.635352 0.18697,1.726142 0.23459,2.265892 0.007,0.08149 0.0141,0.163335 0.0215,0.24412 -0.21837,0.122063 -0.42863,0.24765 -0.5708,0.352425 -0.22013,0.16228 -0.62371,0.743657 -0.71014,0.868892 -0.0864,0.12559 -0.40146,0.4318 -0.70802,0.426508 -0.0582,-0.0028 -0.44556,0.0113 -0.25612,-0.836083 0.0709,-0.312208 0.22295,-0.584552 0.30409,-0.6985 0.006,7.94e-4 0.0109,0.0019 0.0166,0.0013 0.097,-0.0056 0.21767,-0.09384 0.28681,-0.450146 0.0109,-0.07973 0.0169,-0.143934 0.0215,-0.175684 0.007,-0.04798 -0.0265,-0.102304 -0.0522,0.0078 -0.0586,0.219426 -0.2346,0.379941 -0.38876,0.09948 -0.0254,-0.05574 -0.1337,-0.311857 0.005,-0.89253 0.0279,-0.112887 0.0621,-0.280458 0.0621,-0.280458 0.0314,-0.127 -0.0183,-0.192617 -0.0642,-0.03669 -0.0459,0.155927 -0.24306,0.69497 -0.17321,1.313743 0.0124,0.10795 0.0716,0.291394 0.18098,0.372886 -0.14429,0.246946 -0.82903,1.548696 0.0963,1.889831 0.14217,0.03916 0.43216,0.122767 0.88336,-0.496006 0.13123,-0.189442 0.5087,-0.793396 1.03681,-1.067504 0.0166,-0.0085 0.0406,-0.02082 0.0706,-0.03598 0.0628,0.452966 0.17886,0.858308 0.48613,1.112308 0.3563,0.29492 0.82655,0.331258 1.27317,0.2794 0.95038,-0.109363 1.86302,-0.70485 1.86302,-0.70485 0,0 0.42863,0.59055 1.05869,0.545745 0.15734,-0.01376 0.74259,-0.08925 0.98037,-0.481541 0.0476,-0.103717 0.17074,-0.428625 -0.0166,-0.795161 -0.0677,-0.123118 -0.29987,-0.470606 -0.29987,-0.470606 0.11466,0 0.30516,0.0028 0.21837,-0.06738 -0.0868,-0.0695 -0.52669,-0.45085 -0.52669,-0.45085 0,0 -0.0109,-0.01976 -0.0251,0.03669 -0.0141,0.05574 -0.0448,0.318913 -0.0448,0.318913 0.073,0.232479 0.39476,0.717196 0.47343,0.840317 0.0783,0.123118 0.16792,0.240593 0.10371,0.310795 -0.0646,0.07021 -0.53234,0.431448 -1.08126,0.333023 -0.10936,-0.02469 -0.41981,-0.150989 -0.52917,-0.321733 0,0 0.50553,-0.281517 0.73272,-0.365831 0.0229,-0.04763 0.12806,-0.324202 0.054,-0.376061 -0.0744,-0.05151 -1.14477,-0.609248 -2.19181,0.04127 -0.0455,0.04762 -0.0455,0.07444 -0.0663,0.132292 -0.0205,0.05786 -0.10548,0.316442 0.0289,0.254352 0.13441,-0.06209 0.37783,-0.239887 0.84279,0.222956 -0.0568,0.0448 -1.05798,0.7239 -2.11984,0.547511 -0.17039,-0.03387 -0.7867,-0.127704 -0.95462,-0.837494 -0.0109,-0.04551 -0.0215,-0.120298 -0.0328,-0.217665 0.23919,-0.119237 0.57397,-0.286102 0.87524,-0.437795 0.0356,0.07232 0.0579,0.116417 0.0667,0.138287 0.0106,0.02574 0.0423,0.01516 0.0511,-0.01236 0.007,-0.02257 0.0434,-0.118533 0.0346,-0.202848 0.29845,-0.150283 0.53623,-0.270582 0.56515,-0.286102 0.0783,-0.04198 0.0752,-0.06985 0.0974,-0.122767 0.0226,-0.05327 0.0822,-0.252941 0.0374,-0.296333 -0.0448,-0.04304 -0.2794,-0.335492 -0.64806,-0.484013 -0.0705,-0.03069 -0.26811,-0.03739 -0.43074,0.159808 -0.14358,0.173922 -0.25929,0.384882 -0.11712,0.65123 0.0494,0.07867 0.10513,0.16016 0.10513,0.16016 -0.0815,0.04798 -0.36407,0.190148 -0.6731,0.356659 -0.0744,-0.839611 -0.17428,-2.306461 -0.38171,-3.220509 -0.042,-0.167923 -0.13758,-0.431093 -0.17639,-0.29704 m 1.90712,2.787299 c 0.0233,0.02117 0.0106,0.05292 -0.006,0.0635 -0.0166,0.01058 -0.42122,0.205668 -0.42122,0.205668 0,0 -0.17815,-0.207785 -0.22048,-0.277635 -0.0427,-0.06985 -0.0593,-0.108302 0.11853,-0.190852 0.1778,-0.08255 0.50659,0.178152 0.52952,0.199319 m 2.57281,1.212498 c 0,0 -0.32914,0.161218 -0.43745,0.236712 0,0 -0.18168,-0.191911 -0.33514,-0.279752 0.36195,-0.112535 0.63783,-0.01622 0.77259,0.04304 m -0.27729,-3.175707 c -0.0737,0.03704 -1.81786,0.71896 -1.89371,0.761648 -0.0766,0.04269 -0.10336,0.05327 -0.11888,0.109361 -0.0152,0.05574 -0.0233,0.08855 -0.0268,0.09701 -0.0159,0.03704 -0.0282,0.08325 0.0843,0.01977 0.0353,-0.02045 1.79317,-0.708377 1.85632,-0.744712 0.0628,-0.03563 0.10019,-0.04798 0.12841,-0.105834 0.0282,-0.0568 0.0349,-0.06703 0.0508,-0.106891 0.0166,-0.04233 0.0339,-0.08784 -0.0804,-0.03034 m 9.35779,0.44309 c -0.0346,0.08396 -0.17886,0.37465 -0.15664,0.717195 0.005,0.07902 0.0575,0.233188 0.17674,0.237773 0.0617,-2.64e-4 0.14112,-0.04516 0.19756,-0.238831 0.01,-0.0441 0.0159,-0.07867 0.0201,-0.09631 0.006,-0.02611 -0.013,-0.05715 -0.0332,0.0028 -0.0455,0.118886 -0.16263,0.20179 -0.25012,0.04269 -0.0141,-0.0314 -0.0734,-0.175684 0.0353,-0.490713 0.0219,-0.06138 0.0494,-0.1524 0.0494,-0.1524 0.0247,-0.06915 -0.005,-0.106539 -0.0392,-0.02223 m 3.30694,0.172861 c -0.0318,0.07832 -0.1651,0.347485 -0.14464,0.664281 0.005,0.07338 0.0529,0.2159 0.16333,0.220133 0.0572,-2.64e-4 0.13088,-0.04163 0.18345,-0.221191 0.009,-0.04022 0.0145,-0.07267 0.0183,-0.0889 0.006,-0.02434 -0.0123,-0.05292 -0.0307,0.0028 -0.0416,0.109715 -0.15028,0.186621 -0.23142,0.03916 -0.013,-0.02928 -0.0677,-0.162629 0.0328,-0.454377 0.0201,-0.0568 0.0459,-0.14111 0.0459,-0.14111 0.0222,-0.0635 -0.005,-0.09843 -0.037,-0.02082 m -6.20642,0.0085 -0.16792,0.231069 -0.32315,-0.235654 c -0.008,-0.0056 -0.0198,-0.0039 -0.0257,0.0046 l -0.19509,0.267758 c -0.006,0.0085 -0.005,0.02011 0.004,0.02574 l 0.33267,0.242713 c 0.008,0.006 0.0198,0.0039 0.0258,-0.0046 l 0.16827,-0.230717 0.32315,0.235305 c 0.008,0.006 0.0194,0.0039 0.0257,-0.0046 l 0.19509,-0.267404 c 0.006,-0.0085 0.005,-0.02045 -0.004,-0.02611 l -0.33267,-0.24271 c -0.008,-0.0056 -0.0198,-0.0039 -0.0261,0.0046 m -11.28571,0.110419 c -0.0367,0.09561 -0.19368,0.427215 -0.14535,0.804688 0.0109,0.08714 0.0843,0.254 0.22931,0.25047 0.0748,-0.0042 0.16898,-0.05927 0.22542,-0.277635 0.009,-0.04904 0.0141,-0.08819 0.018,-0.107598 0.006,-0.02928 -0.0198,-0.06244 -0.0399,0.0053 -0.0473,0.134763 -0.1845,0.234246 -0.30092,0.06421 -0.019,-0.03422 -0.10054,-0.189793 0.012,-0.545748 0.0226,-0.06914 0.0504,-0.171802 0.0504,-0.171802 0.0254,-0.07796 -0.0123,-0.117475 -0.049,-0.02188 m 4.51132,0.12418 c -0.0942,0.102658 -0.12312,0.17286 -0.15099,0.216603 -0.0392,0.06032 0.01,0.08749 0.0533,0.04057 0.0437,-0.04727 0.0741,-0.09419 0.20144,-0.09067 0.12805,0.0032 0.43356,-0.0088 0.31961,0.07549 -0.11465,0.08396 -0.19156,0.132647 -0.19156,0.132647 -0.0741,0.05327 -0.1397,0.152752 -0.008,0.09737 0.13088,-0.05539 0.30409,-0.142523 0.43638,-0.342548 0.0392,-0.05821 0.0847,-0.136525 -0.0953,-0.162983 -0.17991,-0.02716 -0.4706,-0.06879 -0.56444,0.03351 m 8.0779,0.181678 c -0.0127,0.04516 -0.0455,0.23989 -0.0536,0.279755 -0.008,0.04022 -0.007,0.07973 0.0127,0.113945 0.0198,0.03422 0.0706,0.152755 0.10689,0.249415 0.0367,0.09631 0.41416,0.823735 0.44944,0.888294 0.0346,0.06421 0.042,0.112889 0.007,0.155575 -1.2125,1.279525 -3.55283,2.066221 -3.62762,2.109613 -0.0751,0.04339 -0.055,0.07726 0.0706,0.05539 0.18838,-0.03316 1.24001,-0.208844 1.53917,-0.353484 0.1979,-0.0949 0.88794,-0.433916 1.45274,-0.8763 -0.0155,0.1143 -0.0303,0.282224 -0.0222,0.4953 0.0381,1.029052 0.95814,0.858309 1.1998,0.80504 0.72354,-0.15875 1.60867,-1.158875 1.68381,-1.359606 0.0741,-0.198967 0.0847,-0.379942 0.0681,-0.537634 0.1905,-0.103364 0.60043,-0.43321 0.60043,-0.43321 0.0162,0.438502 0.36583,0.570442 0.47307,0.589492 0.50342,0.0762 0.75601,-0.344665 0.86325,-0.480838 0.0914,0.240242 0.31221,0.287163 0.4258,0.309388 0.43428,0.08643 0.51859,-0.220488 0.54152,-0.29069 0.13617,-0.423685 -0.10972,-0.739423 -0.14111,-0.7747 -0.0314,-0.03457 -0.0476,-0.0013 -0.0589,0.03951 -0.0109,0.04057 -0.0459,0.193323 -0.0677,0.288925 0,0 0.0907,0.147815 0.12312,0.222957 0.0321,0.07549 -0.0159,0.116768 -0.10936,0.12841 -0.26423,0.03211 -0.47519,-0.119237 -0.54787,-0.189442 -0.0727,-0.06949 0.006,-0.192968 0.0649,-0.340783 0.0469,-0.118179 -0.0402,-0.132292 -0.10725,-2.65e-4 -0.22366,0.588786 -0.53834,0.652286 -0.62159,0.674865 -0.74578,0.203552 -0.68122,-0.478721 -0.67839,-0.590198 0.002,-0.112183 -0.0794,-0.07091 -0.17145,0.0032 -0.31362,0.251883 -0.56656,0.40005 -0.70274,0.460727 -0.11712,-0.228952 -0.28716,-0.372885 -0.35877,-0.424744 -0.80786,-0.588433 -0.87419,0.599369 -0.8502,0.726369 0.12312,0.505531 0.94827,0.199321 1.07739,0.183798 0.12911,-0.01516 0.0871,0.155927 0.0145,0.257175 -0.17886,0.250119 -0.38559,0.429683 -0.57256,0.582435 -0.8001,0.65264 -1.20085,0.600782 -1.32468,0.5969 -0.78528,-0.02188 -0.71296,-0.868537 -0.66922,-1.049512 0.23601,-0.200025 0.43886,-0.41769 0.55704,-0.64135 0.048,-0.122766 0.13088,-0.401815 -0.0187,-0.751771 -0.079,-0.15381 -0.32667,-0.585962 -0.32667,-0.585962 0,0 0.18274,0.0053 0.20003,0.0049 0.0173,0 0.0515,-0.01799 0.007,-0.06914 -0.0445,-0.05115 -0.42756,-0.433565 -0.45049,-0.464256 -0.0236,-0.03069 -0.0445,-0.05256 -0.0575,-0.0074 m 2.42218,1.752248 c 0,0 -0.11007,0.0635 -0.41769,0.04269 -0.25753,-0.01728 -0.23531,-0.117827 -0.20003,-0.155927 0.0381,-0.04163 0.35419,-0.240242 0.61772,0.113241 M 141.3282,80.822309 c -0.037,0.08502 -0.19014,0.379235 -0.16686,0.726368 0.005,0.08008 0.0614,0.236363 0.18803,0.240596 0.066,-2.64e-4 0.15064,-0.04551 0.21096,-0.241654 0.0102,-0.04445 0.0169,-0.08008 0.0215,-0.09737 0.006,-0.02646 -0.0141,-0.05785 -0.0356,0.0028 -0.048,0.120298 -0.17286,0.203907 -0.26634,0.04269 -0.0152,-0.03175 -0.0783,-0.177446 0.0377,-0.496711 0.0229,-0.06209 0.0526,-0.154164 0.0526,-0.154164 0.0261,-0.06985 -0.005,-0.10795 -0.042,-0.02257 m 7.9703,0.155575 c -0.0536,0.06597 -0.58984,0.76976 -0.58984,0.76976 l -0.39017,-0.277987 c 0,0 0.1591,-0.03987 0.18732,-0.04798 0.0275,-0.0081 0.0434,-0.04409 -0.007,-0.06949 -0.0501,-0.02574 -0.52035,-0.213432 -0.55598,-0.227542 -0.036,-0.01482 -0.0487,-0.03105 -0.0522,0.0071 -0.002,0.0381 -0.008,0.347488 -0.008,0.347488 0,0 -0.007,0.02188 0.0339,0.04515 0.0409,0.02328 0.0811,0.07338 0.11465,0.106892 0.0335,0.03351 0.47131,0.378531 0.49213,0.390879 0,0 -0.21837,0.384527 -0.24624,0.685446 -0.0279,0.300921 0.005,0.716139 0.41663,0.582083 0.11042,-0.03175 0.5715,-0.214842 0.67451,-0.53622 0.0335,-0.118182 0.12806,-0.332317 -0.0261,-0.548572 -0.0893,-0.127351 -0.44909,-0.3429 -0.44909,-0.3429 0,0 0.27622,-0.381703 0.30268,-0.428625 0.0265,-0.04657 0.12771,-0.342545 0.139,-0.41416 0.0113,-0.07197 0.0169,-0.107598 -0.0363,-0.04127 m -0.0945,1.622777 c -0.15275,0.12559 -0.47414,0.291748 -0.56409,0.300567 -0.09,0.0085 -0.3295,-0.03563 -0.22543,-0.28081 0.0353,-0.07937 0.27482,-0.48895 0.27482,-0.48895 0.0896,0.04904 0.6678,0.343251 0.5147,0.469193 m -6.18631,-1.480608 -0.19509,0.267758 c -0.006,0.0081 -0.005,0.01976 0.004,0.02574 l 0.33267,0.24271 c 0.008,0.006 0.0198,0.0039 0.0261,-0.0046 l 0.19438,-0.267758 c 0.007,-0.0081 0.005,-0.01977 -0.003,-0.02574 l -0.33266,-0.243062 c -0.008,-0.0053 -0.0198,-0.0035 -0.0258,0.0049 m -2.76613,1.379363 c -0.0307,0.08713 -0.16263,0.387702 -0.12418,0.732719 0.01,0.08008 0.0699,0.233539 0.1905,0.232127 0.0617,-0.0032 0.14041,-0.05221 0.18839,-0.250825 0.007,-0.04445 0.0123,-0.08043 0.0155,-0.09807 0.005,-0.02681 -0.0162,-0.05715 -0.0335,0.0042 -0.0395,0.122413 -0.15452,0.211667 -0.25048,0.05468 -0.0159,-0.03104 -0.0825,-0.173918 0.012,-0.497768 0.0194,-0.06315 0.0427,-0.156634 0.0427,-0.156634 0.0215,-0.07056 -0.01,-0.107243 -0.0409,-0.02045 m 4.71417,-0.202848 c -0.031,0.09948 -0.16404,0.443442 -0.11888,0.837494 0.0109,0.09137 0.0762,0.266348 0.20284,0.263879 0.0649,-0.0039 0.14641,-0.06033 0.19297,-0.287163 0.008,-0.05115 0.0124,-0.09243 0.0152,-0.112183 0.005,-0.03069 -0.0176,-0.06562 -0.0349,0.0049 -0.0399,0.1397 -0.1584,0.242358 -0.26141,0.06421 -0.0173,-0.03563 -0.0889,-0.198263 0.005,-0.56868 0.0194,-0.07197 0.0423,-0.17921 0.0423,-0.17921 0.0215,-0.08078 -0.012,-0.122415 -0.043,-0.02328 m 10.46904,0.866068 c -0.0314,0.08608 -0.0434,0.142875 -0.0402,0.175684 0.004,0.03281 0.0148,0.139348 0.0148,0.139348 -0.0321,0.02574 -0.16898,0.110773 -0.30551,0.01024 0.009,-0.02928 0.0268,-0.08855 0.031,-0.121356 0.0148,-0.05045 -0.0162,-0.08784 -0.0416,-0.03563 -0.0247,0.05257 -0.0825,0.228248 -0.12594,0.267407 -0.043,0.03951 -0.0935,0.184856 -0.41981,0.03704 -0.0568,-0.02188 -0.15663,-0.0956 -0.31221,0.06103 -0.35242,0.327377 -0.59619,0.353129 -0.99166,0.493887 -0.0476,0.02188 -0.14816,0.09701 -0.0289,0.08502 0.11923,-0.01198 0.62018,2.65e-4 0.89288,-0.312915 0.0575,-0.05539 0.12241,-0.201435 0.33902,-0.116416 0.11994,0.04551 0.34184,0.235656 0.58384,-0.140052 0.14217,0.09489 0.35842,0.05679 0.39335,-0.04798 0.0346,-0.104775 0.0741,-0.208491 0.0737,-0.279752 -2.6e-4,-0.07126 -0.007,-0.164748 -0.007,-0.164748 -0.005,-0.0568 -0.0247,-0.136877 -0.0561,-0.0508 m -13.33888,0.681567 c -0.0335,0.0822 -0.17357,0.364067 -0.1524,0.696383 0.005,0.07691 0.0561,0.226838 0.1718,0.230717 0.0596,-2.65e-4 0.13723,-0.04374 0.19191,-0.231775 0.01,-0.04268 0.0155,-0.07655 0.0198,-0.09313 0.006,-0.02574 -0.013,-0.05539 -0.0325,0.0028 -0.0437,0.115006 -0.15769,0.19544 -0.24236,0.04092 -0.0138,-0.03069 -0.0716,-0.170392 0.0339,-0.476605 0.0215,-0.05927 0.0483,-0.147812 0.0483,-0.147812 0.0233,-0.06668 -0.005,-0.103365 -0.0384,-0.02151 m -3.37044,0.176389 c -0.0649,0.04374 -1.10949,0.554567 -1.17616,0.603957 -0.0667,0.04904 -0.0907,0.06209 -0.0984,0.116416 -0.008,0.05433 -0.0116,0.08572 -0.0138,0.09454 -0.0106,0.03669 -0.0166,0.08149 0.0815,0.0081 0.0307,-0.02257 1.08762,-0.541163 1.1423,-0.58279 0.0554,-0.04127 0.0889,-0.0575 0.10865,-0.114652 0.0198,-0.05715 0.0251,-0.06703 0.0349,-0.106892 0.0106,-0.04163 0.0212,-0.08643 -0.079,-0.01871"
       style="fill:#231f20;fill-opacity:1;fill-rule:evenodd;stroke:none;stroke-width:0.264583"
       id="path1-57" />
  </g>
</svg>
