<?xml version="1.0" encoding="UTF-8" standalone="no"?>
<!-- Created with Inkscape (http://www.inkscape.org/) -->

<svg
   width="22.95215mm"
   height="6.2447863mm"
   viewBox="0 0 22.95215 6.2447863"
   version="1.1"
   id="svg1"
   xmlns="http://www.w3.org/2000/svg"
   xmlns:svg="http://www.w3.org/2000/svg">
  <defs
     id="defs1" />
  <g
     id="layer1"
     transform="translate(-176.67615,-21.319744)">
    <path
       d="m 191.88525,21.488611 c -0.0702,0.10654 -0.12242,0.362657 -0.0222,0.435682 0.10019,0.07338 0.24624,0.132643 0.24624,0.132643 -0.46602,0.570794 -0.78458,0.679802 -1.05692,0.839259 -0.0702,0.04092 -0.0561,0.07796 -0.0152,0.06703 0.0215,-0.0056 0.3877,-0.06279 0.81597,-0.387702 0.23142,-0.175684 0.37183,-0.47625 0.37183,-0.47625 0,0 0.11571,0.09666 0.13123,0.116416 0.0353,0.04339 0.0543,0.07549 0.0709,0.02963 0.061,-0.168627 -0.025,-0.270934 -0.1076,-0.323144 0,0 0.0857,-0.263525 -0.0716,-0.527404 -0.0261,-0.0441 -0.18168,-0.185561 -0.36265,0.09384 m 0.24341,0.07267 c 0.10513,0.09772 0.0889,0.257879 0.0847,0.294569 0,0 -0.13406,-0.06279 -0.19368,-0.08819 -0.0603,-0.02611 -0.0914,-0.06385 -0.0635,-0.101954 0.0921,-0.129821 0.13759,-0.125235 0.17251,-0.104421 m -1.73566,-0.205316 c -0.0162,0.03916 -0.11184,0.303387 -0.11184,0.303387 0.0254,0.17145 0.25259,2.014363 0.26741,2.13995 0.0152,0.12559 0.33443,2.210154 0.35102,2.786946 -0.005,0.05891 0.0212,0.08078 0.048,0.02434 0.0272,-0.0568 0.21308,-0.440973 -0.007,-1.85138 -0.0166,-0.11712 -0.3503,-2.500135 -0.3503,-2.500135 0,0 0.19685,0.18556 0.2286,0.219075 0.0318,0.03316 0.0702,0.01553 0.0519,-0.03845 -0.0183,-0.05398 -0.42192,-1.030465 -0.43497,-1.064331 -0.013,-0.03387 -0.0261,-0.05856 -0.0423,-0.01939 m -1.45945,0 c -0.0166,0.03916 -0.1464,0.324908 -0.1464,0.324908 0.004,0.02294 0.0339,0.09349 0.0554,0.237771 0.0219,0.149579 0.34678,2.955924 0.5341,3.796596 8e-4,0.0035 0.002,0.0081 0.003,0.01236 -0.0222,0.0095 -0.0445,0.01976 -0.067,0.03069 -0.133,0.0635 -1.12854,0.679805 -2.11031,-0.205316 0.004,-0.01376 0.007,-0.02716 0.0116,-0.04127 0.0169,-0.07549 -0.0293,-0.150987 -0.13441,-0.0039 -0.0109,0.01516 -0.0247,0.03775 -0.0395,0.06526 -0.0335,0.05221 -0.0759,0.130882 -0.1704,0.2159 -0.0885,0.07973 -0.99165,0.869599 -1.3402,-0.205668 0.0293,-0.130175 0,-0.235302 -0.0755,-0.121708 -0.0759,0.113241 -0.53376,0.869243 -1.27318,0.663575 -0.10054,-0.02963 -0.44908,-0.218369 -0.4198,-0.579615 2.6e-4,-0.0021 2.6e-4,-0.0039 2.6e-4,-0.0056 0.18168,-0.0085 0.44239,-0.006 0.78811,0.03634 0.0335,-0.05044 0.19297,-0.364066 0.19297,-0.364066 -0.19861,-0.02222 -0.89888,0.01093 -2.5146,-0.644171 -0.0586,-0.03069 -0.10442,-0.04198 -0.17533,-0.03598 -0.0706,0.0064 -0.38876,0.06491 -0.65758,0.189087 -0.0339,0.01693 -0.0279,0.02011 -0.0416,0.03986 -0.0141,0.02011 -0.1076,0.250825 -0.12171,0.279752 -0.0137,0.02928 0.0155,0.04763 0.0646,0.04622 0.0494,-0.0013 0.75495,-0.03704 0.75495,-0.03704 0,0 0.0247,-0.0028 0.0293,-0.02574 0.005,-0.02328 0.0293,-0.03845 0.0843,-0.01871 0.0557,0.02011 0.77717,0.258585 0.97861,0.334081 -0.13865,0.05891 -1.74308,0.899229 -2.00343,-0.05045 0.0106,-0.07726 0.013,-0.243416 -0.0758,-0.117475 -0.0889,0.126648 -0.36443,0.734484 -1.08233,0.704144 -0.0769,-0.0049 -0.47872,-0.02858 -0.89041,-0.690034 -0.0776,-0.124176 -0.2734,-0.193675 -0.50518,-0.0141 -0.23107,0.180269 -0.42968,0.316794 -0.70732,1.012119 -0.0656,0.164041 -0.1852,0.532696 -0.5154,0.487539 -0.0974,-0.01341 -0.60572,-0.276931 -0.50024,-1.453443 0.009,-0.09666 -0.0293,-0.134408 -0.0501,-0.04622 -0.0212,0.08819 -0.28116,1.05551 0.28999,1.726494 0.31044,0.364773 0.58314,0.123121 0.68862,-0.05045 0.0716,-0.117829 0.37712,-1.016354 0.82338,-1.285523 0.10795,-0.06491 0.22684,-0.147108 0.37818,0.05468 0.15099,0.201787 0.39511,0.634293 1.02058,0.65546 0.62619,0.02082 0.95674,-0.600427 0.95674,-0.600427 0.0208,0.04057 0.21943,0.616302 1.03611,0.432504 0.38664,-0.08714 1.36348,-0.522462 1.48413,-0.539044 0.0314,-0.0046 0.0787,-0.01093 0.14111,-0.01659 -0.0236,0.182388 -0.13158,0.92569 0.68792,0.996598 0.12947,0.01093 0.67169,0.02082 1.07527,-0.634294 -0.0127,0.180621 0.48295,1.129946 1.48307,0.252236 0.0106,-0.0099 0.0236,-0.02011 0.0282,-0.02328 0.0113,0.161573 0.10618,0.528108 0.4378,0.753885 0.17215,0.09666 0.23106,0.100542 0.31079,0.104775 0.0797,0.0046 0.16404,-0.07091 0.17251,-0.239183 0.006,-0.113242 0.0321,-0.261054 0.0166,-0.399343 0.21237,0.03704 0.72954,0.09348 1.39912,-0.201084 0.0413,-0.01799 0.13405,-0.05538 0.24659,-0.09419 0.0903,0.203551 0.24941,0.435681 0.53975,0.558448 0.20073,0.08502 0.37606,0.08854 0.4706,-0.21449 0.0445,-0.142523 0.21872,-0.734483 -0.26846,-0.835377 -0.0952,-0.01976 -0.30833,-0.02222 -0.58314,0.0568 -0.0205,-0.06315 -0.0346,-0.132291 -0.0515,-0.206726 -0.28081,-1.246365 -0.46743,-3.164417 -0.46743,-3.164417 0,0 0.1972,0.18556 0.22895,0.219075 0.0318,0.03316 0.0702,0.01553 0.0522,-0.03845 -0.018,-0.05398 -0.42227,-1.030465 -0.43497,-1.064331 -0.0134,-0.03387 -0.0265,-0.05856 -0.0423,-0.01939 m 1.18145,4.595283 c 0.27129,0.07161 0.31538,0.348192 0.18239,0.327377 -0.0847,-0.01304 -0.29881,-0.0829 -0.47308,-0.308682 0.11218,-0.02328 0.21731,-0.03457 0.29069,-0.01871 m -2.86844,0.08714 c 0.26282,0.17921 0.51788,0.611716 0.28681,0.519641 -0.17215,-0.06914 -0.38594,-0.210256 -0.3937,-0.579615 0.0321,0.0011 0.0709,0.03528 0.10689,0.05997 m 11.16083,-4.454174 c -0.0702,0.10654 -0.12206,0.362657 -0.0219,0.435682 0.0998,0.07338 0.24589,0.132643 0.24589,0.132643 -0.46567,0.570797 -1.38042,0.976842 -1.59773,1.14653 -0.0653,0.04939 -0.0565,0.07796 -0.0152,0.06703 0.036,-0.0095 0.73307,-0.20461 1.37019,-0.750358 0.2921,-0.250474 0.28398,-0.269169 0.35807,-0.420865 0.0635,0.03246 0.10689,0.08537 0.13158,0.116416 0.0353,0.04339 0.0547,0.0755 0.0709,0.02963 0.061,-0.168627 -0.025,-0.270934 -0.10724,-0.323144 0,0 0.0854,-0.263525 -0.0713,-0.527402 -0.0272,-0.0441 -0.18239,-0.185563 -0.36336,0.09384 m 0.24376,0.07302 c 0.10478,0.09737 0.0889,0.25753 0.0847,0.294217 0,0 -0.1337,-0.06279 -0.19438,-0.08819 -0.0596,-0.02574 -0.091,-0.06385 -0.0632,-0.101952 0.0924,-0.129823 0.13759,-0.125238 0.17286,-0.104072 m -1.78858,-0.165803 c -0.18309,0.232833 -0.19473,0.538691 -0.21943,0.879827 -0.0257,-0.07126 -0.1718,-0.529167 -0.63923,-0.790927 -0.0339,-0.01871 -0.10301,0.01728 -0.10936,0.124883 -0.004,0.06279 -0.0219,0.215194 0.0222,0.258233 0.0445,0.04339 0.17498,0.128059 0.1965,0.140052 0.0222,0.01199 0.0459,0.01376 0.0522,-0.01236 0.007,-0.02611 0.0367,-0.08713 0.0787,-0.04339 0.036,0.03634 0.266,0.226837 0.38594,0.630414 0.0208,0.05362 0.0699,0.05891 0.0819,-0.01728 0.0275,-0.186621 0.0427,-0.511175 0.0575,-0.6096 0.0205,-0.137938 0.0868,-0.422981 0.26211,-0.275167 0.0395,0.03387 0.0815,0.07796 0.0815,0.07796 0.0374,0.04692 0.084,0.100542 0.10654,0.04622 0.0346,-0.08149 0.0624,-0.216958 0.0243,-0.289983 -0.0162,-0.03246 -0.23353,-0.306917 -0.38135,-0.118885 m -1.80058,-0.01093 c -0.0674,0.03951 -1.78752,1.03223 -1.85702,1.077384 -0.0695,0.0448 -0.0945,0.05609 -0.10583,0.110066 -0.0109,0.05362 -0.0166,0.08467 -0.0198,0.09349 -0.0123,0.03598 -0.0212,0.08008 0.0815,0.01341 0.0317,-0.02117 1.76177,-1.020937 1.82209,-1.058686 0.0582,-0.03634 0.0921,-0.05151 0.11536,-0.107598 0.0233,-0.05574 0.0293,-0.06562 0.0416,-0.10442 0.0134,-0.04128 0.0268,-0.08467 -0.078,-0.02363 m -12.05089,0.01516 c -0.0984,0.04022 -3.55636,1.552927 -3.6576,1.596671 -0.10019,0.0441 -0.13088,0.0635 -0.1517,0.132998 -0.0208,0.0695 -0.031,0.106185 -0.0367,0.12065 -0.018,0.04727 -0.042,0.0949 0.10513,0.02681 0.0455,-0.02082 3.52954,-1.532819 3.60962,-1.57621 0.0797,-0.04304 0.127,-0.0575 0.16405,-0.12841 0.037,-0.07056 0.0459,-0.08291 0.067,-0.132647 0.0219,-0.05256 0.0483,-0.100893 -0.0998,-0.03986 m 1.09925,0.04233 c -0.17427,0.221191 -0.18521,0.512233 -0.20849,0.836787 -0.0247,-0.06809 -0.16369,-0.503061 -0.60854,-0.752475 -0.0325,-0.01799 -0.0981,0.01622 -0.10407,0.118888 -0.004,0.05962 -0.0205,0.20461 0.0215,0.245885 0.042,0.04092 0.16616,0.121708 0.18698,0.132998 0.0208,0.01164 0.0434,0.01304 0.0497,-0.01199 0.006,-0.02468 0.0342,-0.08255 0.0748,-0.04092 0.0339,0.03422 0.25295,0.215545 0.36689,0.59972 0.0194,0.0508 0.0667,0.05574 0.0776,-0.01659 0.0265,-0.177448 0.0406,-0.48613 0.0547,-0.579967 0.0201,-0.131588 0.0829,-0.402521 0.24941,-0.261763 0.0377,0.03211 0.078,0.07444 0.078,0.07444 0.0356,0.04445 0.0797,0.09525 0.10125,0.04374 0.0328,-0.07761 0.0593,-0.206375 0.0233,-0.275873 -0.0159,-0.03069 -0.22225,-0.2921 -0.363,-0.112887 m 3.06775,0.07514 c -0.0981,0.04022 -3.55635,1.552927 -3.6576,1.597025 -0.10019,0.04374 -0.13053,0.0635 -0.15169,0.132996 -0.0208,0.06915 -0.0311,0.106187 -0.0367,0.12065 -0.018,0.04692 -0.042,0.09455 0.10513,0.02681 0.0455,-0.02117 3.52989,-1.533173 3.60962,-1.576212 0.0797,-0.04304 0.127,-0.05785 0.16439,-0.128762 0.0367,-0.07056 0.0459,-0.0829 0.0667,-0.132292 0.0222,-0.05292 0.0483,-0.101248 -0.0998,-0.04022 m 0.97614,0.02574 c -0.0325,0.08043 -0.17004,0.356658 -0.14888,0.682625 0.005,0.07549 0.0547,0.22225 0.16828,0.226132 0.0589,-2.65e-4 0.13441,-0.04304 0.18838,-0.22719 0.009,-0.04163 0.0148,-0.07479 0.019,-0.09137 0.006,-0.02469 -0.0127,-0.05433 -0.0318,0.0024 -0.043,0.113242 -0.15451,0.191911 -0.23812,0.04057 -0.0134,-0.02998 -0.0699,-0.167217 0.0335,-0.467077 0.0208,-0.05821 0.0473,-0.144992 0.0473,-0.144992 0.0233,-0.06562 -0.005,-0.101248 -0.0377,-0.02117 m -9.40153,0.04727 c -0.0596,0.128058 -0.30233,0.56656 -0.31256,1.104545 -0.002,0.124532 0.0547,0.37183 0.22542,0.391232 0.0889,0.0067 0.20885,-0.05398 0.31362,-0.351015 0.0194,-0.06738 0.0325,-0.121708 0.0402,-0.148167 0.012,-0.03986 -0.012,-0.09102 -0.048,7.94e-4 -0.0794,0.180623 -0.25788,0.297392 -0.36477,0.03845 -0.0166,-0.0508 -0.084,-0.282927 0.11042,-0.763762 0.0388,-0.09349 0.09,-0.232833 0.09,-0.232833 0.0434,-0.104775 0.006,-0.166865 -0.0543,-0.03916 m -1.12818,0.08149 c -0.17816,0.238477 -0.1898,0.552095 -0.21308,0.9017 -0.0254,-0.07302 -0.16757,-0.541867 -0.6223,-0.810332 -0.0332,-0.01976 -0.10054,0.01728 -0.10654,0.127707 -0.004,0.0642 -0.0212,0.220485 0.0219,0.264935 0.0427,0.0441 0.17004,0.131233 0.19121,0.143227 0.0215,0.0127 0.0441,0.0141 0.0508,-0.0127 0.006,-0.02681 0.0353,-0.0889 0.0765,-0.04445 0.03,0.03211 0.27305,0.253648 0.34713,0.557038 0.0621,0.263877 -0.56303,0.796218 -0.59584,0.82056 -0.0586,0.04339 -0.0399,0.07161 -0.0127,0.05644 0.0272,-0.01516 0.0547,-0.01939 0.37501,-0.239184 0.25858,-0.177093 0.31256,-0.38241 0.33478,-0.539395 0.002,-0.0074 0.005,-0.01659 0.007,-0.02681 0.0265,-0.191204 0.0413,-0.524227 0.0554,-0.624769 0.0205,-0.141816 0.085,-0.433916 0.25541,-0.282223 0.0384,0.03457 0.0794,0.08008 0.0794,0.08008 0.0363,0.04798 0.0818,0.10301 0.10371,0.04763 0.0335,-0.08361 0.0603,-0.222602 0.0236,-0.297392 -0.0159,-0.03316 -0.22719,-0.314677 -0.37112,-0.12206 m 4.5526,0.646993 c -0.0593,0.127707 -0.30198,0.566209 -0.31221,1.104549 -0.002,0.124176 0.0547,0.371826 0.22542,0.391228 0.0885,0.0067 0.2085,-0.05433 0.31362,-0.351012 0.019,-0.06738 0.0325,-0.121708 0.0402,-0.148166 0.012,-0.04022 -0.012,-0.09102 -0.0483,7.93e-4 -0.0794,0.180623 -0.25753,0.29704 -0.36442,0.03845 -0.0166,-0.0508 -0.0843,-0.283282 0.11042,-0.763765 0.0388,-0.09349 0.0896,-0.233185 0.0896,-0.233185 0.0434,-0.104775 0.006,-0.166865 -0.0543,-0.03881 m 13.21541,0.420511 c -0.0346,0.08431 -0.17851,0.375004 -0.15629,0.71755 0.005,0.07902 0.0572,0.233188 0.17639,0.237066 0.0617,0 0.14147,-0.04445 0.19791,-0.238477 0.01,-0.04339 0.0159,-0.07867 0.0198,-0.09596 0.006,-0.02611 -0.013,-0.05715 -0.0332,0.0028 -0.0448,0.118533 -0.16227,0.201435 -0.24976,0.04269 -0.0141,-0.03175 -0.0734,-0.175683 0.0353,-0.491066 0.0215,-0.06103 0.0494,-0.1524 0.0494,-0.1524 0.0243,-0.06879 -0.005,-0.106186 -0.0395,-0.02223 m 3.30729,0.173566 c -0.0314,0.07796 -0.1651,0.346782 -0.14499,0.66393 0.005,0.07303 0.0536,0.2159 0.16369,0.219779 0.0568,0 0.13088,-0.04163 0.18345,-0.220838 0.009,-0.04057 0.0145,-0.07302 0.0183,-0.0889 0.006,-0.02434 -0.0123,-0.05292 -0.0307,0.0024 -0.042,0.109714 -0.15028,0.186618 -0.23177,0.03916 -0.013,-0.02893 -0.0677,-0.162277 0.0328,-0.454025 0.0205,-0.0568 0.0459,-0.14111 0.0459,-0.14111 0.0226,-0.06385 -0.005,-0.09878 -0.0367,-0.02045 m -6.20642,0.0081 -0.16828,0.230717 -0.32279,-0.235302 c -0.008,-0.006 -0.0198,-0.0039 -0.0261,0.0046 l -0.19474,0.267407 c -0.006,0.0085 -0.005,0.02011 0.003,0.02611 l 0.33267,0.242713 c 0.008,0.006 0.0198,0.0035 0.0257,-0.0049 l 0.16863,-0.230365 0.32314,0.235305 c 0.008,0.006 0.019,0.0035 0.0254,-0.0049 l 0.19544,-0.267406 c 0.006,-0.0085 0.005,-0.02011 -0.004,-0.02574 l -0.33302,-0.24271 c -0.008,-0.006 -0.0198,-0.0039 -0.0257,0.0046 m -5.9242,0.199319 c -0.12206,0.132646 -0.15946,0.223662 -0.19615,0.280812 -0.0501,0.07832 0.0131,0.113242 0.0695,0.05221 0.0568,-0.06103 0.096,-0.122061 0.26176,-0.117827 0.16545,0.0046 0.56198,-0.01058 0.41381,0.09807 -0.14852,0.109009 -0.24836,0.172157 -0.24836,0.172157 -0.0963,0.06914 -0.18062,0.19826 -0.0109,0.126293 0.17004,-0.07161 0.3944,-0.184854 0.56656,-0.444145 0.0501,-0.0755 0.10901,-0.176742 -0.12453,-0.211315 -0.23284,-0.03493 -0.60996,-0.08925 -0.73166,0.04374 m 1.66969,0.204964 c -0.0702,0.10654 -0.12241,0.362302 -0.0222,0.435327 0.10019,0.07338 0.24624,0.132646 0.24624,0.132646 -0.46567,0.571146 -0.78458,0.679802 -1.05692,0.839611 -0.0702,0.04092 -0.0561,0.07796 -0.0152,0.06703 0.0215,-0.006 0.38771,-0.06279 0.81598,-0.388054 0.23142,-0.175684 0.37147,-0.475898 0.37147,-0.475898 0,0 0.11607,0.09631 0.13194,0.116064 0.0349,0.04339 0.054,0.07549 0.0709,0.02999 0.0607,-0.168982 -0.0254,-0.270934 -0.1076,-0.323498 0,0 0.0854,-0.263171 -0.0716,-0.527402 -0.0265,-0.04445 -0.18239,-0.185561 -0.36301,0.09419 m 0.24377,0.07267 c 0.10478,0.09737 0.0889,0.257879 0.0847,0.294569 0,0 -0.13406,-0.06315 -0.19438,-0.08855 -0.0593,-0.02574 -0.091,-0.06385 -0.0635,-0.1016 0.0924,-0.130175 0.13793,-0.125587 0.17321,-0.104421 m 5.31424,-0.06068 c -0.0134,0.04516 -0.0459,0.239538 -0.0536,0.279754 -0.008,0.03986 -0.007,0.07973 0.0127,0.113946 0.0194,0.03422 0.0702,0.152754 0.10654,0.249415 0.0367,0.0956 0.41451,0.823735 0.44944,0.888293 0.0349,0.06456 0.042,0.112538 0.007,0.155223 -1.21285,1.279525 -3.55282,2.066219 -3.62726,2.109965 -0.0751,0.04339 -0.0554,0.07726 0.0706,0.05503 0.18873,-0.03281 1.23966,-0.208846 1.53952,-0.353131 0.19755,-0.0949 0.88794,-0.433917 1.45203,-0.8763 -0.0155,0.1143 -0.0303,0.281869 -0.0222,0.4953 0.0381,1.029052 0.95814,0.858308 1.19979,0.80504 0.7239,-0.15875 1.60867,-1.158875 1.68381,-1.359959 0.0741,-0.198614 0.085,-0.379589 0.0688,-0.537987 0.19015,-0.103011 0.59973,-0.432859 0.59973,-0.432859 0.0169,0.438857 0.36583,0.570796 0.47342,0.589492 0.50342,0.07655 0.75565,-0.34431 0.86325,-0.480483 0.0914,0.240241 0.31221,0.287162 0.42545,0.309387 0.43427,0.08643 0.51929,-0.220487 0.54152,-0.291041 0.13617,-0.423334 -0.10937,-0.739071 -0.14076,-0.774348 -0.0317,-0.03493 -0.0476,-0.0011 -0.0586,0.03951 -0.0117,0.04057 -0.0462,0.193323 -0.0684,0.288925 0,0 0.0907,0.147815 0.12347,0.222956 0.0321,0.07549 -0.0159,0.116769 -0.10936,0.128059 -0.26458,0.03246 -0.47519,-0.11924 -0.54751,-0.188736 -0.073,-0.0702 0.006,-0.193675 0.0642,-0.341137 0.0469,-0.118179 -0.0399,-0.132644 -0.10689,-2.65e-4 -0.22366,0.588785 -0.53834,0.652285 -0.62124,0.674865 -0.74648,0.203552 -0.68192,-0.478721 -0.6791,-0.59055 0.002,-0.111832 -0.0794,-0.07056 -0.17074,0.0032 -0.31397,0.252235 -0.56727,0.400402 -0.70344,0.461079 -0.11712,-0.229304 -0.28716,-0.372886 -0.35877,-0.425096 -0.80751,-0.588433 -0.87419,0.599721 -0.84949,0.726721 0.12276,0.505531 0.94756,0.198966 1.07703,0.183798 0.12947,-0.01516 0.0868,0.155575 0.0145,0.257175 -0.17886,0.250118 -0.38558,0.429683 -0.57291,0.582435 -0.79939,0.652288 -1.20086,0.600781 -1.32433,0.5969 -0.78528,-0.02222 -0.71331,-0.868537 -0.66957,-1.049512 0.23636,-0.200025 0.43921,-0.41769 0.55739,-0.641705 0.048,-0.122766 0.13053,-0.40146 -0.019,-0.751768 -0.0787,-0.153811 -0.32632,-0.585965 -0.32632,-0.585965 0,0 0.18274,0.0056 0.20002,0.0053 0.0173,-2.65e-4 0.0515,-0.01834 0.007,-0.0695 -0.0441,-0.05115 -0.42757,-0.433213 -0.4505,-0.463904 -0.0229,-0.03104 -0.0445,-0.05292 -0.0572,-0.0074 m 2.42217,1.752248 c 0,0 -0.11006,0.06315 -0.41733,0.04269 -0.25788,-0.01765 -0.23566,-0.117827 -0.20073,-0.155927 0.0388,-0.04163 0.35454,-0.240242 0.61806,0.113241 m -3.31681,-1.424868 c -0.0533,0.06632 -0.5895,0.770112 -0.5895,0.770112 l -0.39017,-0.277987 c 0,0 0.15911,-0.03987 0.18662,-0.04833 0.0279,-0.0078 0.0438,-0.04374 -0.006,-0.0695 -0.0497,-0.0254 -0.52035,-0.213077 -0.55633,-0.227541 -0.0356,-0.01482 -0.0487,-0.03069 -0.0515,0.0074 -0.003,0.0381 -0.008,0.347488 -0.008,0.347488 0,0 -0.007,0.02151 0.0335,0.04515 0.0413,0.02328 0.0815,0.07338 0.115,0.106891 0.0335,0.03352 0.47061,0.378532 0.49248,0.390525 0,0 -0.21907,0.38453 -0.24694,0.685448 -0.0275,0.300919 0.005,0.716492 0.41698,0.582436 0.11042,-0.03175 0.57115,-0.214842 0.67416,-0.536221 0.0335,-0.118181 0.12841,-0.331965 -0.0261,-0.548923 -0.0892,-0.127352 -0.44873,-0.342548 -0.44873,-0.342548 0,0 0.27623,-0.381704 0.30233,-0.428625 0.0268,-0.04657 0.12806,-0.3429 0.139,-0.41416 0.0116,-0.07161 0.0173,-0.10795 -0.0363,-0.04163 m -0.0942,1.623129 c -0.15275,0.125589 -0.47413,0.291748 -0.56409,0.300566 -0.0903,0.0085 -0.32985,-0.03563 -0.22578,-0.28081 0.0356,-0.07937 0.27517,-0.48895 0.27517,-0.48895 0.0892,0.04903 0.66745,0.343252 0.5147,0.469194 m -7.39175,-1.410759 -0.16793,0.230717 -0.32314,-0.235654 c -0.008,-0.0056 -0.0198,-0.0035 -0.0257,0.0049 l -0.19509,0.267406 c -0.006,0.0085 -0.005,0.02011 0.003,0.02612 l 0.33267,0.24271 c 0.008,0.0056 0.0198,0.0035 0.0257,-0.0049 l 0.16863,-0.230717 0.32279,0.235657 c 0.008,0.0056 0.0198,0.0035 0.0257,-0.0049 l 0.19509,-0.267404 c 0.006,-0.0085 0.005,-0.02045 -0.003,-0.02611 l -0.33302,-0.24271 c -0.008,-0.0056 -0.0198,-0.0035 -0.0257,0.0049 m -4.78401,0.01622 -0.19544,0.267404 c -0.006,0.0085 -0.005,0.02011 0.004,0.02574 l 0.33267,0.243062 c 0.008,0.006 0.0198,0.0039 0.0261,-0.0046 l 0.19473,-0.267758 c 0.006,-0.0085 0.005,-0.02011 -0.003,-0.02574 l -0.33267,-0.243065 c -0.008,-0.0056 -0.0198,-0.0035 -0.0257,0.0049 m -1.93534,0.08219 -0.16828,0.231071 -0.32314,-0.235656 c -0.008,-0.0056 -0.0194,-0.0039 -0.0261,0.0046 l -0.19473,0.267407 c -0.006,0.0085 -0.005,0.02045 0.003,0.02611 l 0.33302,0.24271 c 0.008,0.0056 0.0194,0.0039 0.0257,-0.0046 l 0.16828,-0.231071 0.32314,0.235656 c 0.008,0.0056 0.0194,0.0039 0.0257,-0.0046 l 0.19508,-0.267758 c 0.006,-0.0085 0.005,-0.02011 -0.004,-0.02574 l -0.33302,-0.242711 c -0.008,-0.0056 -0.0194,-0.0039 -0.0254,0.0046 m 20.34152,1.874308 c -0.0311,0.08608 -0.043,0.142875 -0.0399,0.175683 0.004,0.03281 0.0148,0.138997 0.0148,0.138997 -0.0325,0.02611 -0.16863,0.111125 -0.30551,0.01093 0.009,-0.02963 0.0268,-0.0889 0.0307,-0.121709 0.0148,-0.05045 -0.0162,-0.08819 -0.0409,-0.03598 -0.0251,0.05256 -0.0833,0.2286 -0.12629,0.267758 -0.0434,0.03951 -0.0935,0.184857 -0.41981,0.03704 -0.0564,-0.02151 -0.15698,-0.09596 -0.31221,0.06068 -0.35277,0.327731 -0.59584,0.353131 -0.99165,0.493538 -0.0476,0.02222 -0.14817,0.09737 -0.0293,0.08573 0.11959,-0.01199 0.62053,2.64e-4 0.89323,-0.312915 0.0575,-0.05503 0.12206,-0.201435 0.33902,-0.116768 0.11994,0.04586 0.34184,0.235653 0.58349,-0.140055 0.14253,0.0949 0.35878,0.0568 0.39335,-0.04763 0.0346,-0.104775 0.0741,-0.208844 0.0737,-0.279752 -2.6e-4,-0.07126 -0.006,-0.1651 -0.006,-0.1651 -0.005,-0.05609 -0.0251,-0.136525 -0.0564,-0.05045 m -16.42957,0.434271 c -0.0332,0.08008 -0.17039,0.356659 -0.14958,0.682271 0.005,0.0755 0.055,0.22225 0.16863,0.226131 0.0582,0 0.13406,-0.04269 0.18803,-0.22719 0.009,-0.04128 0.0152,-0.07479 0.0191,-0.09102 0.006,-0.02506 -0.0127,-0.05468 -0.0318,0.0021 -0.043,0.113242 -0.15452,0.191913 -0.23777,0.04092 -0.0138,-0.03034 -0.0699,-0.167216 0.0335,-0.467431 0.0208,-0.05821 0.0473,-0.144992 0.0473,-0.144992 0.0229,-0.06526 -0.005,-0.101245 -0.0374,-0.02082 m -2.84162,0.155575 c -0.0773,0.03528 -1.55575,0.745066 -1.63442,0.782812 -0.0748,0.03598 -0.0942,0.05645 -0.10584,0.110421 -0.0109,0.05362 -0.0166,0.08467 -0.0198,0.09349 -0.0124,0.03598 -0.0215,0.06703 0.0815,0.01304 0.0335,-0.01765 1.53706,-0.730602 1.5995,-0.763762 0.0607,-0.03246 0.0921,-0.05186 0.11536,-0.10795 0.0233,-0.05539 0.0293,-0.06562 0.0416,-0.104423 0.0134,-0.04127 0.0325,-0.07373 -0.078,-0.02363 m 9.2844,0.138287 c -0.0201,0.03034 -0.0342,0.05503 -0.0423,0.06668 -0.012,0.01834 -0.006,0.04727 0.0257,0.0074 0.0674,-0.07655 0.17921,-0.106185 0.20003,0.03881 0.002,0.02752 0.006,0.153106 -0.1651,0.359833 -0.0335,0.03951 -0.0801,0.100542 -0.0801,0.100542 -0.0381,0.04516 -0.0268,0.08184 0.0229,0.02787 0.0501,-0.05362 0.24095,-0.231775 0.32138,-0.496004 0.018,-0.06103 0.0222,-0.191913 -0.0663,-0.228954 -0.0466,-0.01728 -0.11924,-0.006 -0.21626,0.123825 m -3.96134,0.06385 c -0.0201,0.03034 -0.0346,0.05503 -0.0423,0.06668 -0.0124,0.01834 -0.006,0.04692 0.0257,0.0074 0.0674,-0.0762 0.17922,-0.105834 0.20038,0.0388 0.002,0.02787 0.006,0.153107 -0.1651,0.359834 -0.0342,0.03987 -0.0808,0.100541 -0.0808,0.100541 -0.0377,0.04516 -0.0265,0.08149 0.0236,0.02822 0.0497,-0.05398 0.2406,-0.232127 0.32068,-0.496359 0.0187,-0.06103 0.0226,-0.192265 -0.066,-0.228952 -0.0466,-0.01728 -0.11924,-0.006 -0.21626,0.123825"
       style="fill:#231f20;fill-opacity:1;fill-rule:evenodd;stroke:none;stroke-width:0.264583"
       id="path1" />
  </g>
</svg>
