<?xml version="1.0" encoding="UTF-8" standalone="no"?>
<!-- Created with Inkscape (http://www.inkscape.org/) -->

<svg
   width="17.799219mm"
   height="6.2262268mm"
   viewBox="0 0 17.799219 6.2262268"
   version="1.1"
   id="svg1"
   xmlns="http://www.w3.org/2000/svg"
   xmlns:svg="http://www.w3.org/2000/svg">
  <defs
     id="defs1" />
  <g
     id="layer1"
     transform="translate(-182.16347,-25.989907)">
    <path
       d="m 192.21863,26.15907 c -0.0699,0.106188 -0.12206,0.362305 -0.0219,0.435681 0.10019,0.07303 0.24624,0.132292 0.24624,0.132292 -0.46602,0.570794 -0.78458,0.679802 -1.05692,0.839258 -0.0702,0.04128 -0.0564,0.07832 -0.0152,0.06703 0.0212,-0.0056 0.38771,-0.06279 0.81598,-0.387702 0.23142,-0.175683 0.37147,-0.47625 0.37147,-0.47625 0,0 0.11607,0.09666 0.13159,0.116417 0.0353,0.04339 0.0543,0.07585 0.0709,0.02963 0.0607,-0.168626 -0.0254,-0.270581 -0.1076,-0.323143 0,0 0.0857,-0.263173 -0.0716,-0.527405 -0.0261,-0.04409 -0.18168,-0.18556 -0.36301,0.09419 m 0.24377,0.07232 c 0.10477,0.09772 0.0889,0.258234 0.085,0.294569 0,0 -0.13406,-0.06279 -0.19403,-0.08855 -0.06,-0.02574 -0.0917,-0.0635 -0.0639,-0.1016 0.0924,-0.129821 0.13793,-0.125236 0.17286,-0.104421 m 6.27874,0.02294 c -0.0702,0.106891 -0.12206,0.363008 -0.0222,0.435681 0.0998,0.07338 0.24624,0.132995 0.24624,0.132995 -0.46566,0.570442 -1.38042,0.97649 -1.59808,1.14653 -0.0649,0.04903 -0.0565,0.07796 -0.0148,0.06668 0.036,-0.0095 0.73307,-0.204613 1.36984,-0.750358 0.29245,-0.250122 0.28434,-0.268817 0.35877,-0.420865 0.0632,0.03246 0.10654,0.08537 0.13159,0.116417 0.0349,0.04339 0.054,0.07585 0.0705,0.02963 0.0614,-0.168982 -0.0254,-0.270579 -0.10724,-0.323144 0,0 0.0854,-0.263525 -0.072,-0.527402 -0.0257,-0.0441 -0.18168,-0.185562 -0.36265,0.09384 m 0.24377,0.07303 c 0.10477,0.09737 0.0885,0.257529 0.0847,0.294216 0,0 -0.13405,-0.06279 -0.19438,-0.08819 -0.0593,-0.02574 -0.091,-0.06385 -0.0635,-0.101952 0.0924,-0.129823 0.13794,-0.125238 0.17322,-0.104071 m -1.78859,-0.165452 c -0.18309,0.232481 -0.19473,0.538339 -0.21907,0.879475 -0.0257,-0.07126 -0.17216,-0.528815 -0.63959,-0.790927 -0.0342,-0.01871 -0.10301,0.01728 -0.10936,0.124529 -0.004,0.06315 -0.0219,0.215548 0.0226,0.258939 0.0441,0.04304 0.17463,0.128059 0.19614,0.1397 0.0222,0.01199 0.0459,0.01376 0.0526,-0.01236 0.006,-0.02611 0.0363,-0.08678 0.0783,-0.04339 0.036,0.03634 0.26634,0.226483 0.38594,0.630414 0.0204,0.05362 0.0702,0.05891 0.0818,-0.01728 0.0275,-0.186618 0.0423,-0.511175 0.0572,-0.609597 0.0212,-0.137938 0.0871,-0.423334 0.26211,-0.275167 0.0399,0.03387 0.0819,0.07832 0.0819,0.07832 0.0374,0.04657 0.084,0.100187 0.10654,0.04621 0.0346,-0.08149 0.0621,-0.21731 0.0243,-0.290335 -0.0166,-0.0321 -0.23354,-0.307269 -0.38136,-0.118534 m -1.80057,-0.01093 c -0.0674,0.03916 -1.78753,1.031872 -1.85703,1.076677 -0.0699,0.0448 -0.0945,0.0568 -0.10583,0.110418 -0.0109,0.05362 -0.0166,0.08502 -0.0194,0.09349 -0.013,0.03598 -0.0219,0.08043 0.0808,0.01341 0.0321,-0.02117 1.76213,-1.020585 1.82245,-1.058333 0.0582,-0.03634 0.0921,-0.05186 0.11536,-0.107596 0.0233,-0.05609 0.0293,-0.06597 0.0416,-0.104423 0.0134,-0.04127 0.0268,-0.08537 -0.078,-0.02363 m -4.56001,0.160867 c -0.0159,0.03916 -0.11183,0.303387 -0.11183,0.303387 0.0257,0.17145 0.25259,2.01436 0.26776,2.140302 0.0152,0.125589 0.3175,2.010833 0.33443,2.587625 -0.005,0.05891 0.0212,0.08079 0.048,0.02434 0.0268,-0.0568 0.21272,-0.44097 -0.007,-1.851377 -0.0166,-0.117475 -0.33408,-2.301168 -0.33408,-2.301168 0,0 0.1972,0.18556 0.2286,0.21872 0.0317,0.03387 0.0702,0.01587 0.0519,-0.0381 -0.0177,-0.05398 -0.42157,-1.030462 -0.43462,-1.064329 -0.0134,-0.03387 -0.0261,-0.05856 -0.0427,-0.01939 m -0.97261,0 c -0.0162,0.03916 -0.12488,0.327376 -0.12488,0.327376 0.004,0.02294 0.042,0.09243 0.0632,0.236361 0.0205,0.138993 0.0194,0.331964 0.0512,0.547864 0,0 0.23319,1.655937 0.25047,1.770944 0.0166,0.114652 0.15663,0.974373 0.15663,1.089377 0,0.114654 0.0755,0.274108 -0.45367,0.450498 0.0279,-0.08678 0.16228,-0.473075 0.10337,-0.607483 -0.32174,-0.621594 -0.9077,-0.508352 -1.08656,-0.437092 -0.11218,0.0448 -0.5401,0.154165 -1.26576,1.288343 0,0 -0.35843,-0.109008 -0.49284,-0.487185 -0.008,-0.09243 -0.008,-0.265993 -0.084,-0.165452 -0.0758,0.100894 -0.18485,0.495652 -0.496,0.650169 -0.0727,0.04445 -0.65758,0.218368 -0.89853,-0.218369 0.10654,-0.109363 0.31891,-0.255058 0.3108,-0.714375 -0.0367,-0.610306 -0.44238,-0.756356 -0.57715,-0.590904 -0.1344,0.1651 -0.32455,0.517879 -0.27692,0.795515 0.0279,0.12841 0.12876,0.389114 0.12876,0.389114 -0.10654,0.07832 -1.34444,0.730954 -2.34139,0.394404 -0.10901,-0.04727 -0.72531,-0.254704 -0.42016,-1.147937 0.0254,-0.05292 -0.0335,-0.140055 -0.0864,-0.02222 -0.0536,0.117475 -0.50129,1.120069 0.38629,1.545519 0.10901,0.0508 0.85549,0.397933 2.6155,-0.467077 0.1083,0.152752 0.4699,0.659341 1.0601,0.459316 0.14499,-0.04516 0.37747,-0.167571 0.52564,-0.522464 0.0935,0.124531 0.22542,0.31256 0.48365,0.436739 -0.0335,0.06526 -0.10971,0.243769 -0.12876,0.283634 -0.0215,0.0448 0.006,0.06068 0.0272,0.03175 0.0173,-0.02294 0.15699,-0.199322 0.21167,-0.269172 0.17427,0.06244 0.39723,0.09631 0.68757,0.07585 0.11994,-0.0092 1.15746,-0.145344 1.73919,-0.380294 0.12382,-0.05891 0.44097,-0.216606 0.50412,-0.836083 0.0201,-0.223663 -0.37606,-3.00355 -0.37606,-3.00355 0,0 0.13405,0.08537 0.1658,0.118885 0.0318,0.03352 0.0702,0.01588 0.0519,-0.03845 -0.0177,-0.05362 -0.35842,-0.930275 -0.37147,-0.964142 -0.0131,-0.03387 -0.0261,-0.05856 -0.0423,-0.01939 m -4.1155,3.872439 c 0.0138,0.04481 -0.008,0.05609 -0.0314,0.08079 -0.0233,0.02506 -0.25506,0.203904 -0.32209,0.239887 0,0 -0.14499,-0.280103 -0.16792,-0.350308 -0.0236,-0.0702 -0.0579,-0.199318 0.0854,-0.327025 0.21555,-0.191558 0.42193,0.311505 0.43604,0.356658 m 3.92147,0.220134 c 0.0716,0.10019 0.0311,0.128765 -0.007,0.15734 -0.71861,0.499181 -1.77412,0.473075 -1.92476,0.454025 0,0 0.50165,-0.816682 1.04634,-1.005417 0.13829,-0.04092 0.52035,-0.07655 0.88582,0.394052 m -2.70051,-3.969102 c -0.17427,0.221192 -0.18556,0.512233 -0.20884,0.83679 -0.0243,-0.06809 -0.16334,-0.503063 -0.60819,-0.752475 -0.0325,-0.01799 -0.0981,0.01659 -0.10407,0.118885 -0.004,0.05962 -0.0208,0.20461 0.0215,0.245533 0.0416,0.04163 0.1658,0.12206 0.18697,0.132998 0.0208,0.01199 0.043,0.01342 0.0494,-0.01164 0.006,-0.02469 0.0346,-0.08255 0.0751,-0.04128 0.0335,0.03457 0.25294,0.2159 0.36689,0.600075 0.0194,0.0508 0.0667,0.05574 0.0776,-0.01659 0.0261,-0.1778 0.0406,-0.486481 0.0547,-0.579966 0.0198,-0.131234 0.0825,-0.402519 0.24941,-0.261761 0.0378,0.0321 0.078,0.07408 0.078,0.07408 0.0353,0.04445 0.0797,0.0956 0.10125,0.0441 0.0328,-0.07726 0.0589,-0.206372 0.0233,-0.27587 -0.0162,-0.03104 -0.2226,-0.2921 -0.36301,-0.11289 m -3.19758,0.06386 c -0.18062,0.232833 -0.19191,0.538689 -0.2159,0.879826 -0.0257,-0.07161 -0.16968,-0.528814 -0.63041,-0.790926 -0.0332,-0.01905 -0.10125,0.01728 -0.1076,0.124883 -0.004,0.06279 -0.0215,0.215193 0.0222,0.258231 0.0434,0.04339 0.17215,0.128058 0.19367,0.140054 0.0215,0.01199 0.0444,0.01376 0.0511,-0.0127 0.006,-0.02611 0.036,-0.08643 0.0776,-0.04304 0.03,0.03104 0.27622,0.247298 0.35172,0.543632 0.0624,0.257175 -0.57045,0.776462 -0.60361,0.800452 -0.0593,0.04233 -0.0402,0.0702 -0.0127,0.05503 0.0275,-0.01482 0.055,-0.01905 0.37959,-0.233185 0.26176,-0.172863 0.31644,-0.37324 0.33937,-0.526698 0.002,-0.0074 0.005,-0.01587 0.006,-0.02612 0.0272,-0.186618 0.042,-0.511175 0.0565,-0.6096 0.0204,-0.138287 0.0854,-0.42333 0.25823,-0.275166 0.0392,0.03351 0.0808,0.07796 0.0808,0.07796 0.0363,0.04692 0.0825,0.100542 0.10477,0.04622 0.0339,-0.08149 0.061,-0.216958 0.024,-0.289983 -0.0166,-0.03246 -0.23001,-0.306917 -0.37571,-0.118885 m 5.46665,0.335489 c -0.0804,0.04163 -2.90301,1.582914 -2.98556,1.628071 -0.0819,0.04445 -0.10654,0.0635 -0.11889,0.123825 -0.0123,0.06032 -0.0187,0.09278 -0.0222,0.105127 -0.0116,0.04163 -0.0286,0.08361 0.0914,0.01516 0.0374,-0.02117 2.88184,-1.564216 2.9464,-1.60655 0.0642,-0.04268 0.10301,-0.05856 0.12947,-0.121708 0.0261,-0.06209 0.0328,-0.07338 0.0469,-0.11712 0.0148,-0.04657 0.0335,-0.08961 -0.0875,-0.02681 m -3.8989,0.496713 c -0.0233,0.07267 -0.0406,0.128762 -0.009,0.21237 0.0318,0.08291 0.11712,0.27164 0.13123,0.29845 0.0141,0.02681 0.0177,0.05715 -0.0289,0.07726 -0.0473,0.02011 -0.26176,0.06562 -0.30127,-0.162628 -0.0402,-0.228249 -0.0434,-0.295275 -0.0631,-0.334082 -0.0201,-0.03845 -0.0388,-0.04339 -0.054,-0.0046 -0.0152,0.03845 -0.0247,0.118179 -0.0268,0.131233 -0.002,0.01304 -0.002,0.02222 0.005,0.03634 0.008,0.0141 0.0942,0.269169 0.0554,0.339725 -0.0388,0.0702 -0.23106,0.19685 -0.33161,0.06456 -0.0476,-0.09278 -0.0187,-0.327025 -0.0187,-0.382059 0,-0.05503 -0.0176,-0.07373 -0.0409,-0.02928 -0.0236,0.04445 -0.0363,0.07373 -0.0349,0.113596 0.001,0.03986 0.007,0.21096 0.003,0.264583 -0.003,0.05398 0,0.228952 0.10301,0.277636 0.10301,0.04939 0.25294,0.0035 0.36689,-0.210609 0.0878,0.127707 0.22119,0.128059 0.2928,0.1016 0.061,-0.02222 0.12877,-0.113593 0.14852,-0.239889 0.0201,-0.126646 -0.0127,-0.213077 -0.0526,-0.284692 -0.0526,-0.08784 -0.0878,-0.235302 -0.0878,-0.235302 -0.0187,-0.05292 -0.0328,-0.106892 -0.0565,-0.03422 m 10.38754,0.173919 c -0.0342,0.08432 -0.17886,0.375002 -0.15663,0.71755 0.005,0.07902 0.0575,0.233185 0.17674,0.237419 0.0617,-2.65e-4 0.14147,-0.04515 0.19791,-0.238477 0.01,-0.0441 0.0155,-0.07902 0.0201,-0.09631 0.006,-0.02611 -0.0134,-0.05715 -0.0335,0.0028 -0.0452,0.118886 -0.16227,0.201788 -0.25012,0.04269 -0.0141,-0.03175 -0.073,-0.175684 0.0353,-0.491067 0.0219,-0.06103 0.0497,-0.152048 0.0497,-0.152048 0.0243,-0.06914 -0.005,-0.106537 -0.0395,-0.02257 m 3.30729,0.173215 c -0.0317,0.07832 -0.16545,0.347133 -0.14499,0.664278 0.005,0.07338 0.0533,0.2159 0.16369,0.219782 0.0572,-2.65e-4 0.13088,-0.04128 0.18309,-0.220485 0.009,-0.04092 0.0148,-0.07338 0.0187,-0.0889 0.005,-0.02469 -0.0124,-0.05327 -0.0311,0.0024 -0.0416,0.10936 -0.14993,0.186267 -0.23142,0.03916 -0.013,-0.02928 -0.0677,-0.162631 0.0328,-0.454377 0.0201,-0.0568 0.0459,-0.141113 0.0459,-0.141113 0.0226,-0.06385 -0.005,-0.09843 -0.0367,-0.02082 m -6.20642,0.0085 -0.16827,0.231069 -0.32315,-0.235656 c -0.008,-0.0056 -0.0194,-0.0039 -0.0254,0.0046 l -0.19544,0.267758 c -0.006,0.0085 -0.005,0.02011 0.004,0.02574 l 0.33303,0.24271 c 0.008,0.006 0.0194,0.0039 0.0257,-0.0049 l 0.16792,-0.230365 0.32315,0.235302 c 0.008,0.006 0.0198,0.0039 0.0257,-0.0049 l 0.19509,-0.267406 c 0.006,-0.0085 0.005,-0.02011 -0.003,-0.02574 l -0.33302,-0.242713 c -0.008,-0.0056 -0.0194,-0.0039 -0.0257,0.0046 m -3.58527,0.289629 c -0.0381,0.09984 -0.20179,0.445558 -0.1517,0.839258 0.0116,0.09102 0.0885,0.26529 0.23954,0.261409 0.0783,-0.0046 0.17568,-0.06174 0.23495,-0.289277 0.01,-0.05151 0.0148,-0.09243 0.019,-0.112536 0.006,-0.03069 -0.0204,-0.06491 -0.042,0.0053 -0.0494,0.140758 -0.19227,0.244475 -0.31398,0.06738 -0.0198,-0.03563 -0.10442,-0.197554 0.0127,-0.569383 0.0236,-0.07232 0.0529,-0.179563 0.0529,-0.179563 0.0265,-0.08079 -0.013,-0.122414 -0.0515,-0.02257 m -6.77263,0.10795 c -0.0547,0.151342 -0.2794,0.672042 -0.266,1.294342 0.003,0.143933 0.0706,0.425805 0.24307,0.438505 0.0892,0.0021 0.20708,-0.0755 0.29951,-0.42404 0.0162,-0.07902 0.0272,-0.142523 0.0339,-0.173567 0.0106,-0.04692 -0.0159,-0.104423 -0.048,0.0035 -0.072,0.21308 -0.24623,0.358423 -0.36442,0.06597 -0.0187,-0.05786 -0.0967,-0.321733 0.0776,-0.888648 0.0349,-0.110066 0.0801,-0.274108 0.0801,-0.274108 0.0392,-0.123825 -10e-4,-0.193323 -0.0557,-0.04198 m 11.66106,0.01834 c -0.0127,0.04515 -0.0455,0.239887 -0.0536,0.280104 -0.008,0.04022 -0.007,0.07973 0.0127,0.1143 0.0198,0.03387 0.0706,0.1524 0.1069,0.248708 0.0367,0.09631 0.41451,0.82409 0.44943,0.888648 0.0349,0.06456 0.042,0.112536 0.007,0.155223 -1.2125,1.279525 -3.55283,2.066571 -3.62761,2.109963 -0.0748,0.04339 -0.055,0.07726 0.0709,0.05503 0.18839,-0.03281 1.23966,-0.208492 1.53917,-0.353129 0.19791,-0.09525 0.88794,-0.433917 1.45274,-0.8763 -0.0159,0.113946 -0.0307,0.281869 -0.0226,0.4953 0.0381,1.0287 0.9585,0.858308 1.1998,0.805037 0.72354,-0.15875 1.60867,-1.159227 1.68381,-1.359958 0.0741,-0.198612 0.085,-0.379587 0.0684,-0.537633 0.1905,-0.103363 0.60008,-0.433211 0.60008,-0.433211 0.0166,0.438857 0.36583,0.570794 0.47343,0.589844 0.50341,0.0762 0.75565,-0.344662 0.86289,-0.481187 0.0917,0.240593 0.31221,0.28716 0.42545,0.310091 0.43463,0.08643 0.51929,-0.221191 0.54152,-0.291396 0.13652,-0.423333 -0.10901,-0.739068 -0.14076,-0.774345 -0.0314,-0.03492 -0.0473,-0.0013 -0.0586,0.03951 -0.0109,0.04057 -0.0462,0.193323 -0.0681,0.288573 0,0 0.0907,0.147812 0.12312,0.223308 0.0325,0.07549 -0.0159,0.116769 -0.10901,0.128059 -0.26423,0.03245 -0.47519,-0.118888 -0.54786,-0.188738 -0.0727,-0.06985 0.006,-0.194027 0.0646,-0.341135 0.0466,-0.118182 -0.0402,-0.132644 -0.10689,-2.65e-4 -0.22402,0.588433 -0.5387,0.652285 -0.62125,0.674862 -0.74648,0.2032 -0.68192,-0.478718 -0.67909,-0.59055 0.002,-0.111829 -0.0794,-0.07055 -0.1711,0.0035 -0.31397,0.251529 -0.56691,0.40005 -0.70274,0.460375 -0.11712,-0.2286 -0.28751,-0.372533 -0.35912,-0.424391 -0.80751,-0.588788 -0.87419,0.599016 -0.84984,0.726368 0.12311,0.505177 0.94791,0.199319 1.07738,0.183798 0.12912,-0.01482 0.0868,0.155575 0.0145,0.257175 -0.17921,0.250119 -0.38594,0.429684 -0.57256,0.582435 -0.8001,0.652286 -1.20121,0.601134 -1.32468,0.596549 -0.78563,-0.02188 -0.71331,-0.868188 -0.66957,-1.049163 0.23601,-0.200025 0.43886,-0.418042 0.55704,-0.641702 0.048,-0.122767 0.13088,-0.40146 -0.0187,-0.751417 -0.0787,-0.154165 -0.32632,-0.586317 -0.32632,-0.586317 0,0 0.18239,0.0056 0.19967,0.0053 0.0177,0 0.0519,-0.01834 0.007,-0.06914 -0.0441,-0.05151 -0.42757,-0.433565 -0.45049,-0.464257 -0.0233,-0.03069 -0.0444,-0.05256 -0.0575,-0.0078 m 2.42217,1.7526 c 0,0 -0.10971,0.06314 -0.41733,0.04233 -0.25788,-0.01693 -0.23566,-0.117475 -0.20038,-0.155929 0.0385,-0.04127 0.35419,-0.239888 0.61771,0.113596 m -3.31646,-1.424517 c -0.0533,0.06632 -0.58984,0.76976 -0.58984,0.76976 l -0.38982,-0.277989 c 0,0 0.1591,-0.03986 0.18697,-0.04798 0.0275,-0.0081 0.0434,-0.0441 -0.007,-0.0695 -0.0497,-0.02574 -0.51999,-0.213429 -0.55597,-0.227894 -0.0356,-0.01447 -0.0487,-0.03069 -0.0519,0.0074 -0.003,0.0381 -0.008,0.347486 -0.008,0.347486 0,0 -0.007,0.02188 0.0339,0.04516 0.0409,0.02294 0.0815,0.07338 0.11465,0.106892 0.0339,0.03351 0.47131,0.378531 0.49248,0.390877 0,0 -0.21872,0.384529 -0.24659,0.685096 -0.0279,0.300918 0.005,0.716491 0.41663,0.582435 0.11077,-0.0314 0.5715,-0.214842 0.67451,-0.536223 0.0335,-0.118179 0.12841,-0.331962 -0.0261,-0.548921 -0.0889,-0.127354 -0.44873,-0.342548 -0.44873,-0.342548 0,0 0.27622,-0.382058 0.30233,-0.428625 0.0265,-0.04657 0.12806,-0.342548 0.13935,-0.414514 0.0109,-0.07161 0.0166,-0.107244 -0.0367,-0.04092 m -0.0942,1.622425 c -0.1531,0.125942 -0.47413,0.2921 -0.56444,0.300919 -0.09,0.0085 -0.32949,-0.03563 -0.22542,-0.280811 0.0356,-0.07937 0.27516,-0.48895 0.27516,-0.48895 0.0892,0.04904 0.66746,0.343252 0.5147,0.468842 m -8.02886,-1.550813 -0.19509,0.267407 c -0.006,0.0085 -0.005,0.02045 0.004,0.02646 l 0.33267,0.242358 c 0.008,0.006 0.0198,0.0039 0.0257,-0.0046 l 0.19508,-0.267406 c 0.006,-0.0088 0.005,-0.02045 -0.004,-0.02612 l -0.33267,-0.24271 c -0.008,-0.006 -0.0198,-0.0035 -0.0257,0.0046 m 2.92276,0.02188 c -0.0233,0.07267 -0.0409,0.129117 -0.009,0.212019 0.0314,0.08326 0.11713,0.271992 0.13088,0.298804 0.0145,0.02681 0.0177,0.05715 -0.0289,0.07726 -0.0469,0.02011 -0.26141,0.06562 -0.30128,-0.162984 -0.0399,-0.228248 -0.043,-0.294923 -0.0631,-0.333729 -0.0198,-0.03845 -0.0385,-0.04339 -0.0536,-0.0046 -0.0155,0.03845 -0.0251,0.118181 -0.0272,0.130881 -0.002,0.01304 -0.002,0.02257 0.006,0.03633 0.008,0.01447 0.0938,0.269523 0.0554,0.340077 -0.0391,0.07021 -0.23107,0.196498 -0.33161,0.06421 -0.048,-0.09278 -0.0187,-0.326673 -0.0187,-0.381707 0,-0.05503 -0.0177,-0.07408 -0.0409,-0.02963 -0.0236,0.0448 -0.0367,0.07408 -0.0353,0.113948 0.001,0.03986 0.007,0.210608 0.004,0.264935 -0.004,0.05362 0,0.228248 0.10301,0.277284 0.10302,0.04939 0.25295,0.0035 0.36689,-0.210961 0.0879,0.127707 0.2212,0.128059 0.29281,0.102307 0.0607,-0.02257 0.12876,-0.113948 0.14887,-0.240242 0.0194,-0.126648 -0.013,-0.213079 -0.0529,-0.284692 -0.0529,-0.08784 -0.0878,-0.235656 -0.0878,-0.235656 -0.0187,-0.05257 -0.0328,-0.10654 -0.0564,-0.03387 m -4.26649,0.534107 c -0.0385,0.100187 -0.20179,0.445558 -0.1517,0.839258 0.0116,0.09137 0.0882,0.265642 0.23954,0.26176 0.078,-0.0046 0.17568,-0.06209 0.23495,-0.289631 0.01,-0.05115 0.0148,-0.09207 0.019,-0.112535 0.006,-0.03069 -0.0208,-0.06527 -0.042,0.0056 -0.0498,0.140055 -0.19262,0.244123 -0.31398,0.06703 -0.0201,-0.03563 -0.10442,-0.197557 0.0127,-0.569032 0.0236,-0.07232 0.0529,-0.179564 0.0529,-0.179564 0.0261,-0.08114 -0.013,-0.122767 -0.0515,-0.02294 m 15.60336,1.55716 c -0.0314,0.08608 -0.0434,0.142875 -0.0406,0.175684 0.004,0.03281 0.0148,0.139348 0.0148,0.139348 -0.0318,0.02574 -0.16863,0.111125 -0.3055,0.01024 0.009,-0.02928 0.0268,-0.0889 0.031,-0.121354 0.0148,-0.0501 -0.0162,-0.0882 -0.0413,-0.03563 -0.0247,0.05221 -0.0829,0.228248 -0.12595,0.267406 -0.043,0.03951 -0.0938,0.184854 -0.41945,0.03704 -0.0572,-0.02188 -0.15734,-0.09596 -0.31291,0.06068 -0.35243,0.327731 -0.5962,0.353483 -0.99131,0.493535 -0.048,0.02222 -0.14817,0.09772 -0.0289,0.08573 0.11924,-0.01164 0.62019,2.65e-4 0.89289,-0.312912 0.0571,-0.05503 0.12241,-0.201438 0.33901,-0.116771 0.11995,0.04551 0.34149,0.235656 0.5835,-0.140052 0.14217,0.0949 0.35877,0.0568 0.39335,-0.04798 0.0346,-0.104423 0.0741,-0.208492 0.0734,-0.2794 0,-0.07126 -0.006,-0.164748 -0.006,-0.164748 -0.005,-0.05644 -0.0243,-0.137231 -0.0557,-0.0508 m -9.02688,0.722842 c -0.0208,0.03387 -0.0363,0.06103 -0.0448,0.07443 -0.0127,0.02011 -0.006,0.05186 0.0286,0.0074 0.0727,-0.08608 0.19509,-0.121354 0.2219,0.03775 0.003,0.03069 0.0102,0.168982 -0.17357,0.400402 -0.036,0.04516 -0.0861,0.113242 -0.0861,0.113242 -0.0406,0.0508 -0.0272,0.09067 0.0268,0.03069 0.0533,-0.06068 0.2593,-0.261761 0.34149,-0.555271 0.0187,-0.06738 0.0201,-0.212373 -0.0787,-0.250825 -0.0515,-0.01799 -0.13158,-0.0039 -0.23565,0.142169 m -5.1495,0.190852 c -0.0699,0.03528 -0.97825,0.402166 -1.05057,0.442737 -0.0723,0.04022 -0.0977,0.05045 -0.11254,0.103363 -0.0145,0.05292 -0.0219,0.08361 -0.0257,0.09208 -0.0148,0.03528 -0.0265,0.07902 0.0804,0.01834 0.0332,-0.01871 0.95532,-0.391938 1.01459,-0.426156 0.0596,-0.03422 0.0949,-0.04586 0.12171,-0.10019 0.0272,-0.05398 0.0335,-0.0635 0.0483,-0.1016 0.0159,-0.04022 0.0321,-0.0829 -0.0762,-0.02858"
       style="fill:#231f20;fill-opacity:1;fill-rule:evenodd;stroke:none;stroke-width:0.264583"
       id="path1" />
  </g>
</svg>
