<?xml version="1.0" encoding="UTF-8" standalone="no"?>
<!-- Created with Inkscape (http://www.inkscape.org/) -->

<svg
   width="19.120716mm"
   height="6.0798659mm"
   viewBox="0 0 19.120716 6.0798659"
   version="1.1"
   id="svg1"
   xmlns="http://www.w3.org/2000/svg"
   xmlns:svg="http://www.w3.org/2000/svg">
  <defs
     id="defs1" />
  <g
     id="layer1"
     transform="translate(-176.47411,-24.017883)">
    <path
       d="m 187.85301,24.186867 c -0.0702,0.106539 -0.12242,0.362656 -0.0226,0.435329 0.10018,0.07373 0.24659,0.132996 0.24659,0.132996 -0.46567,0.570796 -0.78458,0.679804 -1.05693,0.839612 -0.0702,0.04092 -0.0564,0.07761 -0.0152,0.06668 0.0212,-0.0056 0.38771,-0.0628 0.81598,-0.388056 0.23142,-0.175683 0.37147,-0.475898 0.37147,-0.475898 0,0 0.11571,0.09666 0.13159,0.116417 0.0349,0.04339 0.0543,0.07585 0.0709,0.02963 0.061,-0.168979 -0.0254,-0.270933 -0.1076,-0.323496 0,0 0.0854,-0.263173 -0.0713,-0.52705 -0.0265,-0.04445 -0.18239,-0.185562 -0.36301,0.09384 m 0.24342,0.07267 c 0.10512,0.09737 0.0889,0.257881 0.085,0.294568 0,0 -0.13406,-0.06279 -0.19403,-0.08854 -0.06,-0.0254 -0.0917,-0.0635 -0.0639,-0.1016 0.0924,-0.130175 0.13793,-0.125238 0.17286,-0.104423 m 6.27909,0.02294 c -0.0706,0.106537 -0.12277,0.363008 -0.0229,0.435679 0.10019,0.07338 0.24659,0.132646 0.24659,0.132646 -0.46567,0.570794 -1.38042,0.976842 -1.59808,1.146527 -0.0646,0.04939 -0.0561,0.07832 -0.0152,0.06738 0.0363,-0.01024 0.73342,-0.204964 1.37054,-0.750713 0.29175,-0.250118 0.28398,-0.269168 0.35842,-0.420862 0.0632,0.03281 0.10654,0.08537 0.13159,0.116062 0.0349,0.04375 0.054,0.0762 0.0705,0.02999 0.061,-0.168981 -0.0254,-0.270933 -0.10724,-0.323498 0,0 0.0854,-0.263173 -0.0716,-0.52705 -0.0265,-0.0441 -0.18239,-0.18556 -0.36266,0.09384 m 0.24306,0.07267 c 0.10513,0.09772 0.0889,0.257882 0.085,0.294572 0,0 -0.13405,-0.06244 -0.19402,-0.08855 -0.0596,-0.02574 -0.0914,-0.0635 -0.0639,-0.101952 0.0928,-0.129472 0.13758,-0.125238 0.17286,-0.104072 m -1.78823,-0.165451 c -0.18344,0.232833 -0.19508,0.539043 -0.21907,0.879826 -0.0261,-0.07126 -0.17216,-0.529166 -0.63959,-0.790926 -0.0342,-0.01905 -0.10301,0.01728 -0.10936,0.124883 -0.004,0.06279 -0.0219,0.215193 0.0222,0.258585 0.0445,0.04269 0.17498,0.127707 0.19685,0.140055 0.0219,0.01164 0.0455,0.01341 0.0519,-0.0127 0.007,-0.02646 0.0363,-0.08678 0.079,-0.04339 0.0353,0.03598 0.26564,0.226483 0.38558,0.630412 0.0204,0.05362 0.0702,0.05891 0.0815,-0.01693 0.0279,-0.186971 0.0427,-0.511879 0.0575,-0.609952 0.0212,-0.13829 0.0871,-0.423333 0.26211,-0.275167 0.0399,0.03352 0.0819,0.07797 0.0819,0.07797 0.0374,0.04692 0.084,0.100542 0.10653,0.04621 0.0346,-0.08149 0.0624,-0.216604 0.0247,-0.289629 -0.0169,-0.03281 -0.23354,-0.307623 -0.38171,-0.119239 m -6.61246,-0.03493 c -0.0162,0.03845 -0.11889,0.312208 -0.11889,0.312208 0.002,0.01728 0.036,0.14464 0.0423,0.192265 0.0395,0.297391 0.26917,2.156528 0.40146,3.363383 -0.47201,-0.05821 -0.96343,-0.136525 -1.09749,-0.222605 0.0783,-0.142875 0.17357,-0.310795 0.10654,-0.79022 -0.0254,-0.226483 -0.27199,-1.999546 -0.27199,-1.999546 0,0 0.17286,0.163338 0.20426,0.196146 0.0321,0.03316 0.0702,0.01553 0.0522,-0.0374 -0.018,-0.05292 -0.37289,-0.962025 -0.38594,-0.995185 -0.0134,-0.03316 -0.0261,-0.0575 -0.0427,-0.01905 -0.0159,0.03845 -0.14569,0.319264 -0.14569,0.319264 0.004,0.02257 0.0339,0.09208 0.055,0.233537 0.0208,0.141817 0.0508,0.341842 0.0836,0.564092 0,0 0.24059,2.084565 0.24059,2.173465 0,0.08925 0.001,0.133702 -0.0215,0.137231 -0.18979,0.0695 -0.99342,0.0635 -1.10278,0.143934 -0.0783,0.04974 -0.15699,0.25682 -0.17251,0.307268 -0.008,0.02434 0.002,0.0702 0.0557,0.05115 0.41028,-0.1397 1.76036,0.237773 1.76036,0.237773 -0.0896,0.05256 -1.32362,0.742598 -2.08915,0.155927 -0.0713,-0.06668 -0.20179,-0.227187 -0.25471,-0.401108 -0.0229,-0.07126 -0.0402,-0.07937 -0.0709,-0.0381 -0.0303,0.04128 -0.24765,0.348898 -0.37042,0.432858 -0.0554,0.03775 -0.6798,0.526346 -1.29893,-0.0448 -0.0109,-0.01236 -0.031,-0.03422 -0.0579,-0.06244 0.30162,-0.164394 0.56938,-0.31115 0.6925,-0.377825 0.0314,-0.09137 0.078,-0.334434 0.078,-0.334434 -0.0621,-0.04092 -0.99871,-0.52846 -2.13077,-0.05362 -0.0473,0.01939 -0.10937,0.07937 -0.14182,0.167571 -0.0321,0.08819 -0.0751,0.219075 -0.0921,0.268462 -0.0173,0.04939 0.0169,0.05151 0.0473,0.02787 0.0123,-0.0099 0.28575,-0.19685 0.50165,-0.08643 0.17709,0.09067 0.34431,0.213784 0.49071,0.338667 -0.30268,0.162983 -0.64594,0.336902 -0.9585,0.414515 -0.12806,0.03175 -0.85407,0.2159 -1.24319,-0.302332 -0.06,-0.07973 -0.27446,-0.473427 -0.31714,-0.53481 -0.0427,-0.06103 -0.17886,-0.257881 -0.48401,0.0113 -0.30516,0.268464 -0.48437,0.806098 -0.53199,0.963083 -0.0476,0.156988 -0.24624,0.750713 -0.58526,0.484717 -0.12912,-0.106537 -0.36689,-0.305504 -0.44521,-1.128887 -0.006,-0.103365 -0.0504,-0.142875 -0.073,0 -0.0226,0.142875 -0.0723,1.347258 0.62759,1.579385 0.0705,0.02363 0.35454,0.04374 0.49283,-0.431094 0.0353,-0.121708 0.2159,-0.896056 0.56832,-1.109133 0.11607,-0.06985 0.23813,-0.153813 0.28822,-0.05574 0.0508,0.09772 0.39688,1.40829 1.90818,0.848077 0.17462,-0.0642 0.55069,-0.261054 0.99413,-0.518935 0.1277,0.124177 0.22401,0.228248 0.27657,0.272698 0.14852,0.125942 0.51788,0.484717 1.12854,0.210254 0.10619,-0.04798 0.34431,-0.193321 0.4759,-0.353129 0,0 -0.0977,0.73942 0.42298,0.873829 0.0533,0.01376 0.17074,0.06738 0.27446,-0.487186 0.0896,0.02787 0.77011,0.148519 1.57656,-0.229306 0.0917,-0.04233 0.47061,-0.29986 1.028,-0.374295 0.03,0.291745 0.0487,0.504825 0.049,0.584903 -0.005,0.05786 0.0205,0.07973 0.0476,0.024 0.0145,-0.02998 0.0751,-0.153106 0.0935,-0.475898 0.003,-0.04551 0.004,-0.09525 0.004,-0.149929 0.17392,-0.0081 0.36195,0.0028 0.56162,0.04374 0.0476,-0.06738 0.17921,-0.347134 0.17921,-0.347134 -0.0593,-0.0074 -0.381,-0.03528 -0.75635,-0.07796 -0.0127,-0.172154 -0.0339,-0.370769 -0.0649,-0.596194 -0.0102,-0.07444 -0.28751,-2.410883 -0.28751,-2.410883 0,0 0.1972,0.182033 0.2286,0.214841 0.0318,0.03281 0.0702,0.01516 0.0522,-0.03739 -0.0183,-0.05327 -0.42192,-1.01318 -0.43497,-1.04634 -0.0131,-0.03316 -0.0261,-0.0575 -0.0423,-0.01905 m -4.28095,3.710517 c -0.0639,0.03352 -0.2286,0.13829 -0.44662,0.265641 -0.10654,-0.105833 -0.23001,-0.222956 -0.34996,-0.32526 0.22543,-0.0099 0.49072,0.0039 0.79658,0.05962 m 1.80516,1.15711 c 0.0318,0.08079 -0.0138,0.113948 -0.0632,0.08925 -0.23071,-0.106187 -0.25682,-0.503414 -0.25506,-0.564446 0,0 0.17287,0.137938 0.31821,0.475192 m 7.28768,-4.843637 c -0.0674,0.03951 -1.78752,1.032227 -1.85737,1.077383 -0.0695,0.0448 -0.0942,0.05609 -0.10513,0.110067 -0.0113,0.05362 -0.0169,0.08467 -0.0201,0.09349 -0.0127,0.03598 -0.0215,0.08043 0.0811,0.01304 0.0317,-0.02082 1.76177,-1.020233 1.82245,-1.057979 0.0582,-0.03634 0.0917,-0.05221 0.11536,-0.10795 0.0233,-0.05574 0.0293,-0.06562 0.0416,-0.104423 0.0134,-0.04092 0.0264,-0.08467 -0.078,-0.02363 m -6.81707,0.03669 c -0.031,0.09066 -0.15875,0.401815 -0.13935,0.769056 0.005,0.08467 0.0511,0.250119 0.15698,0.254352 0.0547,0 0.12524,-0.04833 0.17533,-0.255762 0.009,-0.04692 0.0141,-0.08467 0.0177,-0.102658 0.006,-0.02858 -0.0116,-0.06138 -0.0293,0.0024 -0.0402,0.127352 -0.14393,0.216252 -0.2219,0.04586 -0.0124,-0.03351 -0.0649,-0.188383 0.0314,-0.525991 0.0194,-0.06562 0.0441,-0.163336 0.0441,-0.163336 0.0215,-0.07408 -0.005,-0.113948 -0.0349,-0.024 m -5.46523,0.154871 c -0.0579,0.14111 -0.29457,0.62512 -0.28963,1.209675 0.001,0.135112 0.0663,0.401108 0.24236,0.416629 0.091,0.0039 0.21237,-0.06632 0.3115,-0.392287 0.018,-0.07373 0.03,-0.132998 0.0374,-0.161925 0.0109,-0.0441 -0.0148,-0.09843 -0.0494,0.0021 -0.0762,0.198967 -0.25612,0.331611 -0.37289,0.05503 -0.0187,-0.05468 -0.0946,-0.304448 0.0917,-0.833263 0.037,-0.101952 0.0854,-0.25541 0.0854,-0.25541 0.0416,-0.115711 0.001,-0.182034 -0.0564,-0.04057 m 4.64467,-0.0078 c -0.0917,0.04057 -3.82234,1.728964 -3.91654,1.772356 -0.0935,0.04339 -0.1217,0.06279 -0.14005,0.128765 -0.018,0.06562 -0.0272,0.100542 -0.0321,0.1143 -0.0159,0.04445 -0.037,0.08996 0.0995,0.02294 0.0427,-0.02082 3.79765,-1.708854 3.87209,-1.751541 0.0741,-0.04233 0.11783,-0.0568 0.15134,-0.124529 0.0335,-0.06738 0.042,-0.07902 0.0603,-0.126296 0.0201,-0.05009 0.043,-0.09631 -0.0946,-0.03598 m -2.88678,0.04798 c -0.14111,0.178858 -0.14993,0.414512 -0.16863,0.677685 -0.0198,-0.05538 -0.13264,-0.40781 -0.49247,-0.609248 -0.0261,-0.01482 -0.0794,0.01341 -0.0843,0.09596 -0.003,0.04833 -0.0166,0.165807 0.0173,0.198967 0.0342,0.03352 0.13441,0.09878 0.15134,0.107598 0.0169,0.0095 0.0353,0.01093 0.0402,-0.0095 0.005,-0.02011 0.0279,-0.06668 0.0607,-0.03352 0.0275,0.02822 0.20497,0.174625 0.29704,0.485775 0.0159,0.04127 0.054,0.04516 0.0628,-0.01341 0.0215,-0.143579 0.0328,-0.393345 0.0441,-0.469194 0.0162,-0.106539 0.0674,-0.325966 0.20214,-0.212373 0.0303,0.02612 0.0631,0.06068 0.0631,0.06068 0.0286,0.03598 0.0646,0.0769 0.0819,0.03528 0.0268,-0.06279 0.048,-0.166865 0.0187,-0.223309 -0.0127,-0.02506 -0.17991,-0.23636 -0.29386,-0.09137 m -3.07022,0.04551 c -0.18027,0.232479 -0.19156,0.538692 -0.21555,0.879475 -0.0257,-0.07091 -0.16969,-0.528815 -0.63042,-0.790575 -0.0332,-0.01939 -0.10124,0.01693 -0.10759,0.124529 -0.004,0.0628 -0.0215,0.215196 0.0219,0.258588 0.0438,0.04304 0.17251,0.128058 0.19403,0.1397 0.0215,0.01236 0.0445,0.01376 0.0512,-0.01236 0.006,-0.02612 0.036,-0.08678 0.0776,-0.04304 0.0303,0.03105 0.27623,0.246946 0.35172,0.54328 0.0624,0.257526 -0.57044,0.776816 -0.6036,0.800803 -0.0593,0.04198 -0.0402,0.06985 -0.0127,0.05503 0.0275,-0.01482 0.055,-0.01905 0.37959,-0.233537 0.26176,-0.172863 0.31644,-0.372888 0.33937,-0.526347 0.002,-0.0074 0.005,-0.01588 0.006,-0.02611 0.0272,-0.186973 0.042,-0.511175 0.0564,-0.6096 0.0205,-0.13829 0.0854,-0.423333 0.25823,-0.275167 0.0392,0.03351 0.0808,0.07796 0.0808,0.07796 0.0367,0.04692 0.0825,0.10019 0.10513,0.04622 0.0335,-0.08149 0.0607,-0.216958 0.0236,-0.289983 -0.0162,-0.03246 -0.23001,-0.307269 -0.37606,-0.118885 m 5.7023,0.831495 c -0.0896,0.09031 -0.19156,0.329496 -0.1083,0.420513 0.0829,0.09137 0.21378,0.178504 0.21378,0.178504 -0.5207,0.532341 -1.12078,0.861131 -1.41852,0.962731 -0.0765,0.02612 -0.0702,0.06491 -0.0279,0.06209 0.0219,-0.0011 0.46108,-0.07232 0.92146,-0.345017 0.42615,-0.252238 0.62935,-0.61595 0.62935,-0.61595 0,0 0.0938,0.117475 0.10513,0.1397 0.0254,0.04974 0.0381,0.08467 0.0631,0.04339 0.0931,-0.152755 0.0293,-0.269171 -0.0406,-0.336905 0,0 0.13547,-0.239887 0.0349,-0.528812 -0.0169,-0.04798 -0.14075,-0.216958 -0.37253,0.01976 m 0.22295,0.119239 c 0.0829,0.116065 0.0356,0.269524 0.0243,0.304094 0,0 -0.11818,-0.08749 -0.17181,-0.124529 -0.0533,-0.03704 -0.0765,-0.08008 -0.042,-0.111831 0.11607,-0.108657 0.15946,-0.09525 0.18944,-0.06773 m 7.99995,0.126649 c -0.0346,0.08467 -0.17886,0.375001 -0.15699,0.71755 0.005,0.07902 0.0579,0.233537 0.17709,0.237418 0.0617,-2.64e-4 0.14111,-0.04516 0.19756,-0.238477 0.01,-0.0441 0.0162,-0.07902 0.0204,-0.09596 0.006,-0.02646 -0.0138,-0.0575 -0.0335,0.0024 -0.0448,0.118888 -0.16228,0.20179 -0.24977,0.04233 -0.0145,-0.03104 -0.0737,-0.175683 0.0349,-0.490712 0.0219,-0.06138 0.0497,-0.152048 0.0497,-0.152048 0.0243,-0.06914 -0.005,-0.106892 -0.0395,-0.02257 m -7.00758,0.217662 c -0.0801,0.09913 -0.15734,0.347134 -0.0656,0.429684 0.0917,0.08255 0.23107,0.155575 0.23107,0.155575 -0.51858,0.519289 -0.99024,0.797983 -1.27599,0.928513 -0.0737,0.03387 -0.0635,0.07197 -0.0219,0.06526 0.0219,-0.0035 0.39123,-0.09913 0.8509,-0.372886 0.38699,-0.230364 0.55668,-0.567266 0.55668,-0.567266 0,0 0.10548,0.107598 0.11888,0.12841 0.0303,0.04657 0.0462,0.08043 0.067,0.03669 0.0773,-0.161573 0.002,-0.270934 -0.0741,-0.331259 0,0 0.11113,-0.252235 -0.0183,-0.529166 -0.0215,-0.04657 -0.16158,-0.20179 -0.36866,0.05644 m 0.23425,0.09666 c 0.0938,0.106892 0.0621,0.264229 0.0543,0.29986 0,0 -0.12665,-0.07514 -0.18345,-0.106891 -0.0564,-0.0314 -0.084,-0.07197 -0.0529,-0.107244 0.10443,-0.11924 0.14923,-0.110066 0.18204,-0.08573 m 10.08062,-0.141113 c -0.0318,0.07832 -0.1651,0.347134 -0.14464,0.664282 0.004,0.07303 0.0529,0.216252 0.16299,0.219781 0.0575,-2.64e-4 0.13123,-0.04127 0.18344,-0.22084 0.009,-0.04022 0.0148,-0.07303 0.0187,-0.08925 0.005,-0.024 -0.0124,-0.05257 -0.0307,0.0028 -0.0416,0.109714 -0.15029,0.186621 -0.23142,0.03951 -0.0134,-0.02928 -0.0684,-0.162983 0.0321,-0.454379 0.0205,-0.0568 0.0459,-0.14111 0.0459,-0.14111 0.0229,-0.06385 -0.004,-0.09842 -0.0363,-0.02082 m -6.20642,0.0085 -0.16827,0.231071 -0.32315,-0.236008 c -0.008,-0.0056 -0.0198,-0.0035 -0.0257,0.0049 l -0.19509,0.267407 c -0.006,0.0085 -0.005,0.02045 0.004,0.02611 l 0.33267,0.242358 c 0.008,0.0064 0.0198,0.0042 0.0257,-0.0046 l 0.16827,-0.230717 0.32314,0.235305 c 0.008,0.0064 0.0198,0.0042 0.0258,-0.0046 l 0.19473,-0.267404 c 0.006,-0.0085 0.005,-0.02011 -0.003,-0.02574 l -0.33302,-0.243062 c -0.008,-0.0056 -0.0194,-0.0035 -0.0258,0.0049 m -7.32366,0.164042 c -0.0307,0.09066 -0.15875,0.401463 -0.139,0.768705 0.005,0.08467 0.0512,0.249766 0.15664,0.254352 0.0547,-2.65e-4 0.12558,-0.04798 0.17568,-0.255765 0.009,-0.04657 0.0141,-0.08431 0.018,-0.102659 0.005,-0.02822 -0.012,-0.06173 -0.0296,0.0028 -0.0399,0.127 -0.14394,0.2159 -0.2219,0.04586 -0.0127,-0.03422 -0.0653,-0.188735 0.031,-0.526344 0.0194,-0.06562 0.0441,-0.162983 0.0441,-0.162983 0.0219,-0.07408 -0.004,-0.1143 -0.0349,-0.024 m 8.62682,0.251883 c -0.013,0.04551 -0.0455,0.23989 -0.0533,0.279755 -0.008,0.03986 -0.007,0.08008 0.0127,0.1143 0.0194,0.03422 0.0702,0.152752 0.1069,0.24906 0.0363,0.09631 0.41451,0.82409 0.44908,0.888648 0.0349,0.06456 0.042,0.112536 0.007,0.155221 -1.2125,1.279879 -3.55283,2.066573 -3.62762,2.109965 -0.0748,0.04339 -0.055,0.07761 0.0709,0.05503 0.18803,-0.03281 1.23931,-0.208492 1.53952,-0.352777 0.19756,-0.09525 0.88794,-0.434271 1.45204,-0.876655 -0.0155,0.113597 -0.03,0.282224 -0.0222,0.4953 0.0385,1.0287 0.9585,0.858309 1.1998,0.80504 0.72354,-0.158398 1.60866,-1.158875 1.6838,-1.359606 0.0744,-0.198967 0.085,-0.379942 0.0684,-0.538337 0.1905,-0.102659 0.59973,-0.432859 0.59973,-0.432859 0.0169,0.438502 0.36618,0.570794 0.47342,0.589844 0.50412,0.0762 0.75601,-0.344665 0.86325,-0.48119 0.0917,0.240596 0.31221,0.287515 0.4258,0.30974 0.43463,0.08643 0.51894,-0.22084 0.54116,-0.29069 0.13653,-0.423685 -0.109,-0.73942 -0.1404,-0.7747 -0.0317,-0.03493 -0.048,-0.0013 -0.0589,0.03951 -0.0109,0.04057 -0.0462,0.19332 -0.0677,0.28857 0,0 0.0903,0.148167 0.12277,0.223309 0.0325,0.0755 -0.0159,0.116771 -0.10901,0.128058 -0.26423,0.03246 -0.47519,-0.118885 -0.54822,-0.189087 -0.0723,-0.0695 0.006,-0.192971 0.0649,-0.340783 0.0469,-0.118182 -0.0402,-0.132647 -0.10689,-2.65e-4 -0.22401,0.588788 -0.53869,0.652288 -0.62124,0.674865 -0.74648,0.2032 -0.68192,-0.478719 -0.67945,-0.59055 0.003,-0.111477 -0.0787,-0.07056 -0.17109,0.0035 -0.31363,0.251883 -0.56692,0.40005 -0.70239,0.460375 -0.11712,-0.2286 -0.28751,-0.372534 -0.35912,-0.424392 -0.80751,-0.588785 -0.87419,0.599017 -0.84984,0.726371 0.12311,0.505529 0.94791,0.199319 1.07702,0.183796 0.12948,-0.01516 0.0875,0.155929 0.0148,0.257175 -0.17921,0.250121 -0.38594,0.429683 -0.57291,0.582438 -0.79939,0.652637 -1.20086,0.600778 -1.32433,0.5969 -0.78563,-0.02222 -0.71331,-0.86854 -0.66992,-1.049515 0.23636,-0.200025 0.43921,-0.41769 0.55739,-0.641702 0.048,-0.122767 0.13088,-0.401463 -0.0187,-0.751417 -0.0787,-0.154164 -0.32632,-0.586316 -0.32632,-0.586316 0,0 0.18239,0.0056 0.20002,0.0053 0.0173,-2.64e-4 0.0515,-0.01799 0.007,-0.0695 -0.0444,-0.05115 -0.42757,-0.43321 -0.45085,-0.463902 -0.0229,-0.03069 -0.0441,-0.05292 -0.0571,-0.0078 m 2.42217,1.7526 c 0,0 -0.10971,0.0635 -0.41734,0.04233 -0.25788,-0.01693 -0.23565,-0.117475 -0.20037,-0.155575 0.0385,-0.04198 0.35419,-0.240241 0.61771,0.113242 m -3.31646,-1.424517 c -0.0533,0.06597 -0.5895,0.769763 -0.5895,0.769763 l -0.39017,-0.277989 c 0,0 0.15911,-0.03986 0.18662,-0.04798 0.0279,-0.0081 0.0437,-0.0441 -0.006,-0.0695 -0.0501,-0.02574 -0.51999,-0.213432 -0.55598,-0.227894 -0.0356,-0.01447 -0.0487,-0.03069 -0.0519,0.0074 -0.003,0.0381 -0.008,0.347486 -0.008,0.347486 0,0 -0.007,0.02188 0.0339,0.04516 0.0409,0.02328 0.0811,0.07302 0.115,0.106537 0.0339,0.03387 0.47096,0.378883 0.49213,0.391232 0,0 -0.21873,0.384526 -0.2466,0.685093 -0.0275,0.301273 0.005,0.716492 0.41664,0.582438 0.11077,-0.03175 0.5715,-0.214842 0.67451,-0.536223 0.0335,-0.118182 0.12841,-0.331965 -0.0261,-0.548923 -0.0893,-0.127352 -0.44873,-0.342546 -0.44873,-0.342546 0,0 0.27587,-0.381706 0.30268,-0.428625 0.0261,-0.04657 0.12771,-0.3429 0.139,-0.414514 0.0109,-0.07162 0.0166,-0.107244 -0.0367,-0.04092 m -0.0942,1.62278 c -0.15311,0.125587 -0.47414,0.291745 -0.56445,0.300567 -0.09,0.0085 -0.32949,-0.03563 -0.22542,-0.280813 0.0356,-0.07938 0.27517,-0.48895 0.27517,-0.48895 0.0892,0.04904 0.66745,0.343254 0.5147,0.469196 m -10.8712,-1.513771 -0.19544,0.267406 c -0.006,0.0081 -0.004,0.02011 0.004,0.02574 l 0.33267,0.242713 c 0.008,0.006 0.0198,0.0039 0.0257,-0.0046 l 0.16828,-0.230717 0.32279,0.235305 c 0.008,0.006 0.0198,0.0039 0.0261,-0.0046 l 0.19508,-0.267758 c 0.006,-0.0081 0.005,-0.01976 -0.004,-0.02574 l -0.33267,-0.24271 c -0.008,-0.0056 -0.0198,-0.0039 -0.0261,0.0049 l -0.16828,0.230716 -0.32279,-0.235654 c -0.008,-0.0056 -0.0198,-0.0039 -0.0257,0.0049 m -1.12783,0.110421 c -0.0328,0.09384 -0.17463,0.418394 -0.12912,0.788811 0.0106,0.08573 0.078,0.249766 0.21025,0.246591 0.0681,-0.0042 0.15346,-0.0575 0.20426,-0.27164 0.008,-0.04763 0.0127,-0.08608 0.0162,-0.105126 0.005,-0.02893 -0.018,-0.06138 -0.0367,0.0049 -0.0427,0.131585 -0.16722,0.228952 -0.27411,0.06174 -0.0176,-0.03316 -0.0921,-0.186266 0.009,-0.535164 0.0205,-0.06738 0.0455,-0.168275 0.0455,-0.168275 0.0226,-0.07655 -0.0116,-0.115359 -0.0452,-0.02188 m 18.22979,1.965325 c -0.0314,0.08608 -0.0434,0.14252 -0.0406,0.175683 0.004,0.03281 0.0148,0.139345 0.0148,0.139345 -0.0317,0.02574 -0.16863,0.110774 -0.30551,0.01024 0.009,-0.02928 0.0268,-0.08855 0.0307,-0.121357 0.0152,-0.05044 -0.0162,-0.08819 -0.0409,-0.03563 -0.0251,0.05256 -0.0829,0.227893 -0.1263,0.267403 -0.043,0.03951 -0.0931,0.184505 -0.41945,0.03704 -0.0568,-0.02188 -0.15698,-0.09595 -0.31256,0.06103 -0.35242,0.327377 -0.59619,0.353132 -0.9913,0.493184 -0.048,0.02257 -0.14817,0.09772 -0.0289,0.08573 0.11924,-0.01199 0.62018,2.64e-4 0.89288,-0.312915 0.0572,-0.05539 0.12241,-0.201435 0.33902,-0.116769 0.11994,0.04586 0.34149,0.235657 0.58314,-0.140051 0.14288,0.0949 0.35913,0.0568 0.39335,-0.04763 0.0349,-0.104424 0.0744,-0.208492 0.0741,-0.279755 -2.7e-4,-0.07126 -0.006,-0.164745 -0.006,-0.164745 -0.005,-0.0568 -0.0247,-0.13688 -0.0561,-0.0508 m -13.69307,0.282926 c -0.03,0.09631 -0.1584,0.43039 -0.1143,0.813152 0.0102,0.08855 0.0737,0.258234 0.19544,0.255765 0.0628,-0.0035 0.14111,-0.05856 0.18662,-0.278342 0.007,-0.05009 0.0113,-0.08961 0.0141,-0.109008 0.005,-0.02998 -0.0173,-0.06385 -0.0339,0.0046 -0.0384,0.135822 -0.1524,0.235305 -0.25188,0.06209 -0.0166,-0.03422 -0.0861,-0.192616 0.005,-0.552098 0.018,-0.06985 0.0406,-0.173567 0.0406,-0.173567 0.0205,-0.07867 -0.0116,-0.119237 -0.0416,-0.02257 m 4.28061,0.329494 -0.19509,0.267406 c -0.006,0.0088 -0.005,0.02045 0.004,0.02612 l 0.33267,0.24271 c 0.008,0.0056 0.0198,0.0039 0.0261,-0.0046 l 0.19438,-0.267407 c 0.006,-0.0085 0.005,-0.02045 -0.003,-0.02611 l -0.33302,-0.24271 c -0.008,-0.006 -0.0194,-0.0039 -0.0257,0.0046 m -6.41245,0.09561 c -0.0698,0.03528 -1.03575,0.386643 -1.10807,0.42686 -0.0723,0.04057 -0.0977,0.05045 -0.11254,0.103365 -0.0145,0.05292 -0.0222,0.08361 -0.0254,0.09243 -0.0152,0.03457 -0.0268,0.07867 0.0801,0.01799 0.0332,-0.01871 1.01248,-0.376415 1.07245,-0.410281 0.0593,-0.03387 0.0945,-0.04586 0.12171,-0.100187 0.0268,-0.05397 0.0332,-0.0635 0.048,-0.101249 0.0159,-0.04057 0.0321,-0.08326 -0.0762,-0.02893"
       style="fill:#231f20;fill-opacity:1;fill-rule:evenodd;stroke:none;stroke-width:0.264583"
       id="path1" />
  </g>
</svg>
