<?xml version="1.0" encoding="UTF-8" standalone="no"?>
<!-- Created with Inkscape (http://www.inkscape.org/) -->

<svg
   width="21.877089mm"
   height="6.3180313mm"
   viewBox="0 0 21.877089 6.3180313"
   version="1.1"
   id="svg1"
   xmlns="http://www.w3.org/2000/svg"
   xmlns:svg="http://www.w3.org/2000/svg">
  <defs
     id="defs1" />
  <g
     id="layer1"
     transform="translate(-170.06522,-28.376641)">
    <path
       d="m 184.20013,28.545506 c -0.0705,0.106891 -0.12241,0.362656 -0.0222,0.435681 0.0998,0.07338 0.24588,0.132644 0.24588,0.132644 -0.46566,0.570793 -0.78422,0.679802 -1.05692,0.839258 -0.0699,0.04128 -0.0561,0.07832 -0.0148,0.06703 0.0212,-0.0056 0.38771,-0.06244 0.81598,-0.387702 0.23107,-0.175683 0.37112,-0.47625 0.37112,-0.47625 0,0 0.11642,0.09666 0.13194,0.116417 0.0349,0.04339 0.0543,0.07585 0.0709,0.02963 0.061,-0.168981 -0.0254,-0.270581 -0.1076,-0.323143 0,0 0.0854,-0.263174 -0.0716,-0.527402 -0.0261,-0.0441 -0.18204,-0.185563 -0.36266,0.09384 m 0.24342,0.07303 c 0.10513,0.09737 0.0889,0.257527 0.0847,0.294568 0,0 -0.13405,-0.06314 -0.19402,-0.08854 -0.06,-0.02574 -0.091,-0.06385 -0.0635,-0.1016 0.0921,-0.130175 0.13758,-0.125942 0.17286,-0.104423 m -5.15373,-0.11571 c -0.0307,0.07479 -0.15875,0.332668 -0.139,0.636762 0.005,0.0702 0.0512,0.207081 0.15664,0.210608 0.0547,-2.65e-4 0.12523,-0.03986 0.17533,-0.212019 0.009,-0.03881 0.0141,-0.06985 0.018,-0.08502 0.006,-0.02328 -0.0116,-0.0508 -0.0296,0.0024 -0.0399,0.105482 -0.14359,0.178859 -0.2219,0.03775 -0.0124,-0.02822 -0.0649,-0.155929 0.0314,-0.435327 0.0194,-0.05468 0.0441,-0.135466 0.0441,-0.135466 0.0219,-0.06103 -0.004,-0.09419 -0.0349,-0.01976 m 3.55247,-0.02257 c -0.0162,0.0388 -0.11889,0.317498 -0.11889,0.317498 0.003,0.01765 0.0363,0.147108 0.0423,0.195791 0.0561,0.428274 0.38241,2.586922 0.48295,3.387373 0.0497,0.3937 0.0878,0.748242 0.0935,0.93839 -0.005,0.05891 0.0212,0.08078 0.0483,0.02434 0.0145,-0.03069 0.0748,-0.155575 0.0931,-0.484013 0.0141,-0.246592 -0.006,-0.625475 -0.0762,-1.147233 -0.0102,-0.07585 -0.36865,-2.329037 -0.36865,-2.329037 0,0 0.1972,0.185208 0.22895,0.21872 0.0317,0.03351 0.0699,0.01587 0.0519,-0.03845 -0.018,-0.05362 -0.42192,-1.03011 -0.43498,-1.063977 -0.013,-0.03387 -0.0257,-0.05856 -0.0423,-0.01939 m -1.43439,0 c -0.0159,0.0388 -0.14605,0.324906 -0.14605,0.324906 0.004,0.02294 0.0342,0.09349 0.0554,0.237421 0.019,0.132292 0.0459,0.314325 0.0755,0.517877 0,0 0.37923,2.399594 0.42968,2.646185 0.0177,0.08537 0.0399,0.229659 0.0829,0.390173 -0.10089,0.06773 -0.19226,0.131234 -0.26352,0.161219 -0.16616,0.0695 -1.05622,0.499888 -1.24672,-0.244827 0.003,-0.06738 0.0226,-0.226835 -0.0896,-0.08149 -0.11183,0.145699 -0.31326,0.65264 -0.92427,0.636059 -0.14253,-0.006 -0.54293,-0.06174 -0.70556,-0.798335 -0.0363,-0.196147 -0.16228,-1.44498 -0.16228,-1.44498 0,0 -0.17074,-1.84291 -0.381,-2.305047 -0.0307,-0.06985 -0.0388,-0.03316 -0.067,0.0141 -0.0279,0.04763 -0.14535,0.226835 -0.0977,0.38382 0.0473,0.156634 0.32596,1.341263 0.39722,2.618317 0.0166,0.21449 0.0166,1.760008 0.90347,1.940631 0.17639,0.03352 0.73942,-0.02928 0.97437,-0.571148 0.37359,0.730957 1.11337,0.377825 1.29787,0.294217 0.0981,-0.04445 0.27376,-0.179917 0.47449,-0.291042 0.0967,0.207788 0.24377,0.399347 0.47483,0.488247 0.0462,0.01939 0.24907,0.06703 0.34749,-0.107599 0.0773,-0.136525 0.19685,-0.45085 0.15769,-0.648051 -0.0388,-0.194734 -0.21625,-0.261409 -0.29316,-0.287515 -0.11535,-0.03986 -0.23318,-0.02716 -0.37747,0.01482 -0.0575,0.01659 -0.11747,0.0441 -0.17745,0.07691 -0.0995,-0.265996 -0.1591,-0.575382 -0.19261,-0.80363 -0.0282,-0.190852 -0.34996,-2.258128 -0.34996,-2.258128 0,0 0.19756,0.185208 0.22896,0.21872 0.0318,0.03351 0.0702,0.01587 0.0519,-0.03845 -0.018,-0.05362 -0.42157,-1.03011 -0.43462,-1.063977 -0.0134,-0.03387 -0.0265,-0.05856 -0.0427,-0.01939 m 1.16981,4.268962 c 0.1404,0.01199 0.28751,0.214136 0.16227,0.238125 -0.17427,0.03422 -0.31362,-0.05609 -0.42368,-0.20955 0.0882,-0.0254 0.17674,-0.03775 0.26141,-0.02858 m 8.14458,-4.107743 c -0.0702,0.10654 -0.12242,0.362302 -0.0222,0.435327 0.10019,0.07338 0.24659,0.132643 0.24659,0.132643 -0.46637,0.570797 -1.38077,0.977197 -1.59843,1.146882 -0.0649,0.04868 -0.0561,0.07796 -0.0152,0.06668 0.0363,-0.0095 0.73307,-0.20461 1.37019,-0.750359 0.2921,-0.250118 0.28434,-0.268816 0.35877,-0.420864 0.0628,0.03246 0.10654,0.08537 0.13159,0.116416 0.0346,0.04339 0.054,0.07585 0.0705,0.02963 0.061,-0.168979 -0.025,-0.270579 -0.10759,-0.323144 0,0 0.0857,-0.263173 -0.0716,-0.527402 -0.0261,-0.0441 -0.18168,-0.18556 -0.36265,0.09419 m 0.24341,0.07267 c 0.10513,0.09772 0.0893,0.257527 0.0847,0.294569 0,0 -0.1337,-0.06315 -0.19367,-0.08855 -0.06,-0.02574 -0.0914,-0.06385 -0.0639,-0.1016 0.0924,-0.130175 0.13794,-0.125587 0.17286,-0.10442 m -9.97867,0.234595 c -0.0801,0.04127 -1.96673,1.038225 -2.04928,1.083382 -0.0819,0.04445 -0.10619,0.0635 -0.11854,0.123825 -0.013,0.06033 -0.019,0.09278 -0.0226,0.105127 -0.0116,0.04127 -0.0286,0.08361 0.0914,0.01482 0.037,-0.02082 1.94593,-1.019175 2.01013,-1.06186 0.0646,-0.04233 0.10372,-0.05821 0.12982,-0.121356 0.0265,-0.06244 0.0332,-0.07373 0.0469,-0.117475 0.0148,-0.04622 0.0335,-0.08925 -0.0878,-0.02646 m -0.16933,1.350434 c -0.054,0.08784 -0.0885,0.295627 -0.006,0.351718 0.0825,0.0568 0.23177,0.115007 0.23177,0.115007 -0.061,0.200377 -0.4064,0.466018 -0.5782,0.582083 -0.0921,0.06209 -0.11077,0.10301 0.0339,0.05574 0.46214,-0.149932 0.62441,-0.603957 0.62441,-0.603957 0,0 0.0808,0.05715 0.0938,0.07267 0.0296,0.03422 0.0459,0.05962 0.0582,0.02222 0.0441,-0.137938 -0.0279,-0.217665 -0.0956,-0.257882 0,0 0.0621,-0.21449 -0.0716,-0.423333 -0.0229,-0.03493 -0.15204,-0.14464 -0.29033,0.08573 m 0.19826,0.05186 c 0.0871,0.07585 0.079,0.205317 0.0762,0.235302 0,0 -0.10972,-0.04692 -0.15875,-0.06632 -0.049,-0.01905 -0.0755,-0.04868 -0.0543,-0.08008 0.0716,-0.107243 0.10795,-0.105127 0.13688,-0.0889 m -1.87466,0.474133 c -0.0314,0.09948 -0.16757,0.443442 -0.12136,0.837849 0.0106,0.09066 0.0769,0.265641 0.20532,0.26317 0.066,-0.0042 0.14887,-0.06032 0.1972,-0.287512 0.007,-0.05116 0.0116,-0.09208 0.0152,-0.112183 0.005,-0.03034 -0.0183,-0.06527 -0.036,0.0053 -0.0402,0.1397 -0.16087,0.24271 -0.26564,0.0642 -0.0173,-0.03528 -0.0907,-0.19826 0.006,-0.568677 0.0194,-0.07197 0.043,-0.178858 0.043,-0.178858 0.0219,-0.08114 -0.012,-0.122767 -0.0437,-0.02328 m 0.78175,0.518584 -0.19473,0.267406 c -0.006,0.0085 -0.005,0.02045 0.004,0.02612 l 0.33267,0.242712 c 0.008,0.0056 0.0198,0.0039 0.0257,-0.0049 l 0.19509,-0.267407 c 0.006,-0.0085 0.005,-0.02011 -0.004,-0.02611 l -0.33267,-0.242713 c -0.008,-0.0056 -0.0198,-0.0035 -0.0261,0.0049 m 9.25441,-2.79541 c -0.18344,0.232833 -0.19508,0.538691 -0.21942,0.880178 -0.0254,-0.07197 -0.1718,-0.529166 -0.63959,-0.791278 -0.0335,-0.01871 -0.10266,0.01728 -0.10901,0.124883 -0.004,0.06279 -0.0222,0.215193 0.0222,0.258585 0.0441,0.04304 0.17462,0.128058 0.19649,0.1397 0.0222,0.01236 0.0459,0.01376 0.0522,-0.01236 0.007,-0.02611 0.0363,-0.08678 0.0787,-0.04339 0.036,0.03634 0.26599,0.226484 0.38558,0.630415 0.0208,0.05362 0.0706,0.05891 0.0819,-0.01728 0.0275,-0.186621 0.0427,-0.511175 0.0575,-0.6096 0.0212,-0.137938 0.0868,-0.423333 0.26211,-0.275167 0.0399,0.03387 0.0819,0.07796 0.0819,0.07796 0.0374,0.04692 0.084,0.100542 0.10689,0.04657 0.0342,-0.08184 0.0617,-0.21731 0.024,-0.290335 -0.0166,-0.03245 -0.23354,-0.307269 -0.38136,-0.118885 m -1.80057,-0.01058 c -0.0674,0.03916 -1.78753,1.031875 -1.85703,1.076677 -0.0702,0.0448 -0.0945,0.0568 -0.10583,0.110419 -0.0109,0.05398 -0.0166,0.08502 -0.0198,0.09349 -0.0127,0.03598 -0.0215,0.08043 0.0811,0.01341 0.0321,-0.02082 1.76178,-1.020585 1.82245,-1.058331 0.0582,-0.03669 0.0921,-0.05186 0.11536,-0.10795 0.0229,-0.05539 0.0293,-0.06562 0.0416,-0.104071 0.013,-0.04163 0.0265,-0.08537 -0.078,-0.02363 m -10.32263,0.09737 c -0.14076,0.235302 -0.12418,0.525992 -0.11536,0.851252 -0.0293,-0.06597 -0.19791,-0.487185 -0.63218,-0.697793 -0.0317,-0.01516 -0.0892,0.02434 -0.0857,0.127 0.002,0.05962 -2.6e-4,0.205668 0.0423,0.243062 0.043,0.0374 0.1651,0.107246 0.18556,0.116771 0.0204,0.0095 0.0413,0.0092 0.0448,-0.01622 0.004,-0.02506 0.0243,-0.08502 0.0653,-0.04727 0.0349,0.03139 0.25435,0.19332 0.39511,0.566208 0.0229,0.04868 0.067,0.04974 0.0705,-0.02328 0.008,-0.178859 -0.008,-0.48754 -0.003,-0.581732 0.006,-0.132643 0.0392,-0.408162 0.20637,-0.281868 0.0377,0.02858 0.0787,0.06738 0.0787,0.06738 0.037,0.04092 0.0829,0.0882 0.0984,0.03493 0.0226,-0.07973 0.0349,-0.210253 -0.005,-0.276576 -0.0173,-0.02928 -0.23248,-0.271992 -0.34608,-0.08184 m -2.24366,0.189442 c -0.0667,0.0956 -0.12065,0.328787 -0.0314,0.397933 0.09,0.06985 0.22225,0.127704 0.22225,0.127704 -0.44097,0.510823 -1.0481,0.985308 -1.30175,1.124304 -0.0653,0.03598 -0.0533,0.0702 -0.0155,0.06103 0.0198,-0.0046 0.35207,-0.116768 0.75565,-0.398992 0.33902,-0.237066 0.66604,-0.744712 0.66604,-0.744712 0,0 0.10372,0.09137 0.11748,0.109712 0.031,0.04092 0.048,0.07091 0.0642,0.02928 0.06,-0.153107 -0.0162,-0.248357 -0.09,-0.298802 0,0 0.0847,-0.238831 -0.0522,-0.484365 -0.0233,-0.04092 -0.16192,-0.17427 -0.33478,0.07691 m 0.22119,0.07267 c 0.0935,0.09208 0.0748,0.23848 0.0702,0.27164 0,0 -0.12065,-0.06103 -0.17568,-0.08573 -0.0536,-0.02506 -0.0815,-0.06068 -0.0554,-0.09454 0.0878,-0.117123 0.12947,-0.111479 0.16087,-0.09137 m -1.65559,-0.07937 c -0.0977,0.04692 -2.79117,1.484842 -2.89136,1.536348 -0.0995,0.0508 -0.12947,0.07267 -0.1464,0.14464 -0.0169,0.07197 -0.0254,0.110419 -0.03,0.125587 -0.0155,0.04868 -0.0367,0.09913 0.10901,0.02082 0.0452,-0.02434 2.76436,-1.463675 2.84339,-1.512359 0.031,-0.01905 0.0568,-0.03387 0.079,-0.04868 -0.0533,0.123473 -0.16898,0.400757 -0.14887,0.720725 0.006,0.08432 0.0614,0.248357 0.18838,0.252942 0.0653,-2.65e-4 0.15028,-0.04798 0.21025,-0.254 0.0106,-0.04622 0.0169,-0.08396 0.0215,-0.101952 0.006,-0.02787 -0.0141,-0.06103 -0.0356,0.0028 -0.0476,0.125942 -0.17251,0.21449 -0.26564,0.04516 -0.0152,-0.03351 -0.078,-0.186973 0.0374,-0.52211 0.0233,-0.06527 0.11465,-0.323498 0.13264,-0.375356 0.0194,-0.05503 0.0434,-0.106185 -0.10371,-0.03457 m -2.62996,0.0071 c -0.0303,0.07514 -0.1584,0.332669 -0.139,0.63641 0.005,0.07056 0.0512,0.207434 0.15699,0.210963 0.0547,0 0.12524,-0.03986 0.17568,-0.211667 0.008,-0.03881 0.0138,-0.0702 0.0177,-0.08537 0.005,-0.02328 -0.012,-0.0508 -0.0296,0.0024 -0.0399,0.105129 -0.14394,0.178858 -0.2219,0.03775 -0.0127,-0.02822 -0.0649,-0.155927 0.0314,-0.435682 0.0194,-0.05397 0.0437,-0.135112 0.0437,-0.135112 0.0219,-0.06103 -0.004,-0.09454 -0.0349,-0.01976 m 16.9612,1.067506 c -0.0346,0.08431 -0.17886,0.37465 -0.15664,0.717196 0.005,0.07902 0.0575,0.233188 0.17675,0.237421 0.0614,0 0.14111,-0.04481 0.19755,-0.23848 0.01,-0.04409 0.0162,-0.07902 0.0201,-0.09631 0.006,-0.02611 -0.013,-0.05715 -0.0332,0.0028 -0.0452,0.118533 -0.16228,0.201435 -0.24977,0.04269 -0.0145,-0.03175 -0.0737,-0.175683 0.0353,-0.491066 0.0215,-0.06103 0.049,-0.1524 0.049,-0.1524 0.0247,-0.06879 -0.005,-0.106186 -0.0392,-0.02188 m 3.30729,0.173212 c -0.0317,0.07761 -0.16545,0.346781 -0.14499,0.663929 0.005,0.07338 0.0533,0.2159 0.16369,0.219779 0.0571,0 0.13088,-0.04163 0.18309,-0.220837 0.009,-0.04057 0.0148,-0.07302 0.0183,-0.0889 0.006,-0.02434 -0.012,-0.05292 -0.0307,0.0024 -0.0416,0.110067 -0.15028,0.186619 -0.23107,0.03951 -0.013,-0.02963 -0.0684,-0.162983 0.0325,-0.454377 0.0201,-0.0568 0.0455,-0.14111 0.0455,-0.14111 0.0229,-0.06385 -0.004,-0.09843 -0.0363,-0.02045 m -15.45378,-0.0019 -0.16792,0.230717 -0.32279,-0.235657 c -0.008,-0.006 -0.0198,-0.0035 -0.0261,0.0049 l -0.19508,0.267404 c -0.006,0.0085 -0.005,0.02011 0.003,0.02611 l 0.33302,0.24271 c 0.008,0.0056 0.0194,0.0035 0.0258,-0.0049 l 0.16862,-0.230716 0.3228,0.235654 c 0.008,0.0056 0.0194,0.0035 0.0257,-0.0049 l 0.19509,-0.267407 c 0.006,-0.0085 0.005,-0.02011 -0.004,-0.02611 l -0.33303,-0.24271 c -0.008,-0.006 -0.0194,-0.0035 -0.0257,0.0049 m 9.24736,0.0099 -0.16827,0.230716 -0.32315,-0.235302 c -0.008,-0.006 -0.0194,-0.0039 -0.0257,0.0046 l -0.19473,0.267406 c -0.006,0.0088 -0.005,0.02045 0.003,0.02611 l 0.33302,0.242713 c 0.008,0.0056 0.0194,0.0035 0.0257,-0.0046 l 0.16863,-0.231069 0.32315,0.235657 c 0.008,0.0056 0.019,0.0035 0.0254,-0.0046 l 0.19508,-0.267759 c 0.006,-0.0081 0.005,-0.02011 -0.003,-0.02574 l -0.33338,-0.24271 c -0.008,-0.006 -0.019,-0.0039 -0.0254,0.0046 m -7.84542,0.02752 -0.19509,0.267406 c -0.006,0.0088 -0.005,0.02011 0.004,0.02612 l 0.33267,0.242713 c 0.008,0.006 0.0198,0.0039 0.0261,-0.0049 l 0.19473,-0.267406 c 0.006,-0.0085 0.005,-0.01977 -0.004,-0.02574 l -0.33267,-0.242711 c -0.008,-0.0056 -0.0198,-0.0039 -0.0257,0.0046 m -4.13879,0.261408 c -0.0106,0.02506 -0.0741,0.271992 -0.0776,0.294923 -0.004,0.02222 0.0628,0.24271 0.10442,0.3429 0.1083,0.28575 0.31115,0.68721 0.34608,0.752475 0.0349,0.06562 0.0945,0.197202 0.0441,0.271285 -0.0702,0.102659 -0.65087,0.727427 -1.65029,1.024467 -0.15699,0.04692 -0.81915,0.214135 -1.19733,-0.280106 -0.0624,-0.08184 -0.35242,-0.488596 -0.0825,-1.287286 0.0275,-0.0635 -0.0116,-0.132291 -0.0751,-0.01341 -0.0632,0.11924 -0.58561,1.676048 0.58349,1.997075 0.2032,0.05609 0.6664,0.148521 1.43722,-0.285044 -0.0579,0.249767 -0.19262,1.162757 0.37183,1.441802 0.0956,0.04727 0.78563,0.377473 2.00519,-0.897818 0.22189,-0.232127 0.27587,-0.636059 0.27587,-0.636059 0.002,-0.03739 0.003,-0.105833 -0.01,-0.19191 0.14994,-0.06421 0.51189,-0.243065 0.52141,-0.252238 0,0 0.33514,0.614188 1.07209,0.567621 0.14958,-0.0092 1.27106,-0.139348 1.36772,-0.846314 0.0134,-0.100542 0.1591,-0.65405 -0.57432,-1.214967 -0.0631,-0.04798 -0.32879,-0.139348 -0.52141,0.129469 -0.19261,0.269171 -0.19544,0.637471 -0.03,0.757062 0.16616,0.119592 0.45826,0.09948 0.61418,0.07267 0.15628,-0.02611 0.27235,0.03352 0.31891,0.07973 0.0466,0.04692 0.096,0.113242 -0.0201,0.202846 -0.11607,0.08925 -1.34126,0.915813 -1.98508,0.06632 0,0 0.37535,-0.235656 0.36512,-0.760235 -0.002,-0.125942 -0.14146,-0.977548 -0.61736,-0.65405 -0.24906,0.169333 -0.25894,0.700616 -0.25541,0.783518 0.004,0.0829 0.11959,0.468136 0.11959,0.468136 -0.0392,0.03246 -0.13335,0.129116 -0.48472,0.255058 -0.0448,-0.08855 -0.10583,-0.180269 -0.18909,-0.269169 -0.25435,-0.251531 -0.45896,-0.375708 -0.72354,-0.08467 -0.26494,0.291041 -0.22507,0.783166 0.10583,0.8763 0.11818,0.02963 0.32138,0.0046 0.59972,-0.06491 0.0568,-0.01588 0.23672,0.0113 0.15099,0.147109 -0.085,0.135466 -0.80504,1.059391 -1.65523,1.12536 -0.10795,0.0085 -0.99378,-0.04903 -0.70415,-1.170165 0.17075,-0.104068 0.3556,-0.232833 0.55492,-0.392641 0.0663,-0.05362 0.44733,-0.320675 0.46355,-0.796571 0.0152,-0.428625 -0.078,-0.50024 -0.14428,-0.645231 -0.0953,-0.207786 -0.19403,-0.417336 -0.19403,-0.417336 0.0769,0.02858 0.12594,0.04127 0.15311,0.05221 0.0275,0.01093 0.072,-0.01834 0.0282,-0.07373 -0.0441,-0.05503 -0.33514,-0.386291 -0.34326,-0.408516 -0.008,-0.02188 -0.0215,-0.03845 -0.03,-0.06809 -0.009,-0.02928 -0.0279,-0.02363 -0.0392,0.0021 m 3.042,1.3716 c 0.0162,0.05327 0.003,0.09313 -0.0437,0.142875 -0.0459,0.04974 -0.23636,0.21096 -0.34643,0.28716 0,0 -0.10477,-0.230716 -0.15416,-0.366887 -0.0501,-0.136173 -0.0568,-0.248708 0.13582,-0.381706 0.19261,-0.132644 0.39158,0.265641 0.40851,0.318558 m 1.16135,-0.238831 c 0.31221,0.03634 0.40534,0.249062 0.40534,0.249062 -0.0434,-0.02999 -0.10301,-0.02011 -0.17921,-0.0067 -0.0765,0.01341 -0.33197,0.02963 -0.41522,-0.07338 -0.0829,-0.102659 0.0691,-0.183092 0.18909,-0.168982 m -2.53718,1.177573 c 0,0 -0.11465,0.07691 -0.38947,0.02787 -0.27516,-0.04868 -0.17462,-0.178504 -0.12312,-0.226484 0.0512,-0.04798 0.35031,-0.145695 0.51259,0.198615 m 11.6212,-2.182989 c -0.013,0.04516 -0.0455,0.239889 -0.0533,0.279754 -0.008,0.04022 -0.007,0.07973 0.0124,0.113946 0.0198,0.03422 0.0702,0.152754 0.10689,0.249062 0.0367,0.09666 0.41451,0.824087 0.44909,0.888646 0.0353,0.06456 0.0427,0.11289 0.007,0.155223 -1.21285,1.279877 -3.55283,2.066573 -3.62762,2.109965 -0.0748,0.04339 -0.055,0.07726 0.0709,0.05538 0.18838,-0.03316 1.23966,-0.208844 1.53917,-0.353483 0.19791,-0.09525 0.88794,-0.433917 1.45239,-0.876652 -0.0155,0.1143 -0.0303,0.282575 -0.0222,0.495652 0.0381,1.029051 0.9585,0.858308 1.1998,0.805391 0.72354,-0.159102 1.60867,-1.159227 1.68381,-1.36031 0.0744,-0.198615 0.085,-0.37959 0.0684,-0.537281 0.1905,-0.103365 0.59973,-0.433211 0.59973,-0.433211 0.0169,0.438502 0.36618,0.570442 0.47342,0.589137 0.50377,0.07655 0.75636,-0.34431 0.86325,-0.480483 0.0914,0.240242 0.31221,0.287163 0.42545,0.30974 0.43463,0.08608 0.51894,-0.22084 0.54187,-0.291394 0.13617,-0.423333 -0.10936,-0.739071 -0.14076,-0.774348 -0.0318,-0.03493 -0.048,-0.0011 -0.0589,0.03916 -0.0109,0.04092 -0.0462,0.193675 -0.0677,0.288925 0,0 0.0907,0.148166 0.12277,0.22366 0.0325,0.07514 -0.0159,0.116416 -0.10901,0.128058 -0.26458,0.0321 -0.47519,-0.119592 -0.54822,-0.189087 -0.0723,-0.07021 0.006,-0.193675 0.0649,-0.341138 0.0466,-0.118179 -0.0402,-0.132292 -0.10689,-2.64e-4 -0.22402,0.588785 -0.5387,0.652285 -0.6216,0.674864 -0.74613,0.203552 -0.68157,-0.478721 -0.6791,-0.59055 0.003,-0.111831 -0.079,-0.07056 -0.17109,0.0032 -0.31398,0.252236 -0.56656,0.40005 -0.70274,0.461079 -0.11712,-0.228952 -0.28716,-0.372885 -0.35912,-0.424743 -0.80716,-0.588786 -0.87384,0.599368 -0.84949,0.726368 0.12311,0.505532 0.94791,0.199321 1.07738,0.183798 0.12912,-0.01482 0.0871,0.155927 0.0145,0.257175 -0.17921,0.250119 -0.38559,0.429684 -0.57291,0.582435 -0.79975,0.65264 -1.20085,0.601134 -1.32468,0.5969 -0.78528,-0.02222 -0.71332,-0.868537 -0.66957,-1.049512 0.23601,-0.200025 0.43956,-0.417689 0.55774,-0.641704 0.0476,-0.122412 0.13053,-0.40146 -0.019,-0.751417 -0.0787,-0.154162 -0.32667,-0.586317 -0.32667,-0.586317 0,0 0.18274,0.0056 0.20002,0.0056 0.0173,-2.64e-4 0.0519,-0.01871 0.007,-0.0695 -0.0444,-0.05115 -0.42757,-0.433565 -0.4505,-0.464256 -0.0233,-0.03069 -0.0444,-0.05292 -0.0575,-0.0074 m 2.42252,1.7526 c 0,0 -0.11041,0.06315 -0.41768,0.04233 -0.25753,-0.01728 -0.23566,-0.117827 -0.20003,-0.155927 0.0381,-0.04163 0.35384,-0.240242 0.61771,0.113593 M 170.9565,30.844912 c -0.0303,0.09948 -0.16086,0.443442 -0.11571,0.837494 0.0106,0.09102 0.0748,0.266348 0.19897,0.263525 0.0639,-0.0035 0.14323,-0.05997 0.18909,-0.286809 0.007,-0.05115 0.0113,-0.09172 0.0145,-0.112183 0.005,-0.03034 -0.0173,-0.06526 -0.0342,0.0053 -0.0392,0.1397 -0.15487,0.242358 -0.25612,0.0635 -0.0169,-0.03528 -0.0878,-0.198615 0.004,-0.568677 0.0187,-0.07161 0.0413,-0.178507 0.0413,-0.178507 0.0212,-0.08114 -0.012,-0.122766 -0.042,-0.02363 m 14.26033,-0.02717 c -0.0529,0.06597 -0.58949,0.769761 -0.58949,0.769761 l -0.38982,-0.277988 c 0,0 0.15911,-0.03986 0.18662,-0.04798 0.0275,-0.0081 0.0437,-0.04409 -0.006,-0.06949 -0.0501,-0.02574 -0.52035,-0.213432 -0.55562,-0.227897 -0.0363,-0.01447 -0.049,-0.03069 -0.0522,0.0074 -0.003,0.0381 -0.008,0.347487 -0.008,0.347487 0,0 -0.007,0.02188 0.0335,0.04515 0.0416,0.02328 0.0815,0.07303 0.11536,0.106892 0.0335,0.03352 0.47061,0.378531 0.49213,0.390879 0,0 -0.21872,0.384175 -0.2466,0.685094 -0.0275,0.300919 0.005,0.716492 0.41628,0.582435 0.11113,-0.03175 0.57186,-0.214841 0.67487,-0.53622 0.0335,-0.118182 0.12805,-0.331965 -0.0261,-0.548571 -0.0892,-0.127352 -0.44873,-0.3429 -0.44873,-0.3429 0,0 0.27587,-0.382059 0.30233,-0.428271 0.0265,-0.04692 0.12806,-0.3429 0.13899,-0.414866 0.0113,-0.07161 0.0169,-0.107247 -0.0367,-0.04092 m -0.0938,1.622777 c -0.1531,0.125942 -0.47413,0.291748 -0.56444,0.300215 -0.0903,0.0088 -0.32949,-0.03528 -0.22542,-0.280458 0.0356,-0.07938 0.27516,-0.48895 0.27516,-0.48895 0.0892,0.04903 0.6671,0.343252 0.5147,0.469193 m -13.32864,-0.82056 -0.19544,0.267052 c -0.006,0.0088 -0.005,0.02011 0.004,0.02611 l 0.33267,0.243065 c 0.008,0.0056 0.0198,0.0035 0.0257,-0.0053 l 0.19509,-0.267054 c 0.006,-0.0085 0.005,-0.02011 -0.003,-0.02611 l -0.33302,-0.242713 c -0.008,-0.006 -0.0194,-0.0035 -0.0254,0.0049 m 19.55906,1.382536 c -0.031,0.08643 -0.043,0.142875 -0.0399,0.175683 0.003,0.03281 0.0148,0.139348 0.0148,0.139348 -0.0321,0.02611 -0.16898,0.110773 -0.30586,0.01024 0.009,-0.02893 0.0272,-0.08855 0.031,-0.121356 0.0148,-0.05045 -0.0166,-0.08784 -0.0416,-0.03563 -0.0247,0.05221 -0.0825,0.228249 -0.12559,0.267407 -0.043,0.03951 -0.0935,0.184856 -0.41981,0.03704 -0.0568,-0.02188 -0.15698,-0.09596 -0.31256,0.06068 -0.35277,0.327732 -0.59584,0.353484 -0.9913,0.49389 -0.048,0.02222 -0.14817,0.09701 -0.0289,0.08537 0.11924,-0.01164 0.62018,2.65e-4 0.89288,-0.312914 0.0568,-0.05503 0.12241,-0.201436 0.33867,-0.116417 0.12029,0.04551 0.34184,0.235302 0.58349,-0.140407 0.14252,0.09525 0.35913,0.05715 0.3937,-0.04763 0.0342,-0.10442 0.0741,-0.208843 0.0741,-0.279751 -7.9e-4,-0.07126 -0.007,-0.1651 -0.007,-0.1651 -0.005,-0.05609 -0.0243,-0.136525 -0.0561,-0.05045 m -15.90287,0.342549 c -0.0303,0.09948 -0.16087,0.443441 -0.11536,0.837493 0.0102,0.09067 0.0748,0.266348 0.19826,0.263525 0.0642,-0.0039 0.14358,-0.05997 0.18945,-0.286808 0.007,-0.05115 0.0113,-0.09172 0.0145,-0.112184 0.005,-0.03034 -0.0176,-0.06526 -0.0342,0.0053 -0.0392,0.1397 -0.15487,0.242007 -0.25612,0.0635 -0.0169,-0.03563 -0.0875,-0.198612 0.005,-0.568677 0.0183,-0.07162 0.0413,-0.178506 0.0413,-0.178506 0.0204,-0.08114 -0.012,-0.122767 -0.0423,-0.02363 m 2.78695,-0.02011 c -0.0699,0.03493 -1.60832,0.637469 -1.68063,0.67804 -0.0727,0.04022 -0.0981,0.05009 -0.11254,0.10301 -0.0148,0.05292 -0.0222,0.08396 -0.0257,0.09243 -0.0148,0.03493 -0.0265,0.07867 0.0801,0.01834 0.0332,-0.01905 1.58538,-0.62724 1.64535,-0.661459 0.0593,-0.03387 0.0945,-0.04621 0.12171,-0.100189 0.0265,-0.05433 0.0332,-0.06385 0.048,-0.1016 0.0159,-0.04057 0.0321,-0.08326 -0.0762,-0.02857 m 3.35279,0.208843 c -0.0307,0.07479 -0.15839,0.332671 -0.13864,0.636413 0.004,0.07055 0.0508,0.207079 0.15664,0.21096 0.0547,0 0.12523,-0.03986 0.17568,-0.211666 0.008,-0.03916 0.0141,-0.0702 0.018,-0.08537 0.005,-0.02328 -0.0123,-0.0508 -0.0296,0.0024 -0.0406,0.105127 -0.14429,0.178858 -0.2219,0.03774 -0.0127,-0.02822 -0.0656,-0.155927 0.031,-0.435679 0.0194,-0.05433 0.0441,-0.135114 0.0441,-0.135114 0.0215,-0.06103 -0.004,-0.09454 -0.0353,-0.01976 m -2.53082,0 c -0.0303,0.07479 -0.1584,0.332671 -0.13864,0.636413 0.004,0.07055 0.0508,0.207079 0.15663,0.21096 0.0543,0 0.12523,-0.03986 0.17533,-0.211666 0.009,-0.03916 0.0141,-0.0702 0.018,-0.08537 0.006,-0.02328 -0.0116,-0.0508 -0.0296,0.0024 -0.0399,0.105127 -0.14393,0.178858 -0.22155,0.03775 -0.0127,-0.02822 -0.0656,-0.155927 0.0311,-0.435678 0.0194,-0.05433 0.0441,-0.135115 0.0441,-0.135115 0.0215,-0.06103 -0.005,-0.09454 -0.0353,-0.01976 m -7.66904,0.03069 c -0.0303,0.07479 -0.1584,0.332671 -0.13899,0.636413 0.005,0.0702 0.0512,0.207079 0.15698,0.21096 0.0547,-2.64e-4 0.12524,-0.04022 0.17534,-0.212018 0.009,-0.03845 0.0145,-0.06985 0.018,-0.08502 0.005,-0.02328 -0.012,-0.0508 -0.0296,0.0024 -0.0399,0.105127 -0.14393,0.178858 -0.22189,0.03774 -0.0124,-0.02822 -0.0649,-0.155927 0.0314,-0.435679 0.0194,-0.05433 0.0441,-0.135114 0.0441,-0.135114 0.0215,-0.06103 -0.005,-0.09454 -0.0353,-0.01976"
       style="fill:#231f20;fill-opacity:1;fill-rule:evenodd;stroke:none;stroke-width:0.264583"
       id="path1" />
  </g>
</svg>
