<?xml version="1.0" encoding="UTF-8" standalone="no"?>
<!-- Created with Inkscape (http://www.inkscape.org/) -->

<svg
   width="19.834158mm"
   height="6.2831903mm"
   viewBox="0 0 19.834158 6.2831903"
   version="1.1"
   id="svg1"
   xmlns="http://www.w3.org/2000/svg"
   xmlns:svg="http://www.w3.org/2000/svg">
  <defs
     id="defs1" />
  <g
     id="layer1"
     transform="translate(-173.9957,-26.944173)">
    <path
       d="m 186.08851,27.113195 c -0.0702,0.106537 -0.12241,0.362654 -0.0219,0.435327 0.0998,0.07373 0.24588,0.132998 0.24588,0.132998 -0.46566,0.570794 -0.78457,0.679802 -1.05692,0.839259 -0.0702,0.04092 -0.0561,0.07796 -0.0152,0.06703 0.0212,-0.0056 0.38771,-0.06279 0.81563,-0.388056 0.23177,-0.175683 0.37182,-0.475895 0.37182,-0.475895 0,0 0.11607,0.09666 0.13159,0.116416 0.0356,0.04339 0.0543,0.07585 0.0709,0.02963 0.0607,-0.16863 -0.0251,-0.270934 -0.10725,-0.323499 0,0 0.0854,-0.262818 -0.072,-0.527401 -0.0261,-0.0441 -0.18168,-0.185209 -0.36266,0.09419 m 0.24377,0.07267 c 0.10442,0.09772 0.0885,0.257881 0.0847,0.294571 0,0 -0.13406,-0.0628 -0.19403,-0.08855 -0.06,-0.0254 -0.0917,-0.06385 -0.0638,-0.1016 0.0924,-0.129823 0.13793,-0.12559 0.17321,-0.104423 M 182.0146,27.04722 c -0.0868,0.04163 -3.12772,1.581856 -3.21662,1.627013 -0.0882,0.04445 -0.11466,0.0635 -0.12982,0.127 -0.0152,0.06385 -0.0229,0.09737 -0.0268,0.11077 -0.0141,0.04304 -0.0332,0.08749 0.096,0.01905 0.0399,-0.02117 3.10444,-1.562452 3.17394,-1.605491 0.0699,-0.04269 0.11148,-0.05821 0.14182,-0.124177 0.0296,-0.06527 0.037,-0.07691 0.0533,-0.123119 0.0176,-0.04868 0.0381,-0.09313 -0.0917,-0.03105 m 2.58199,2.65e-4 c -0.0166,0.03916 -0.13724,0.335843 -0.13724,0.335843 0.003,0.01799 0.036,0.147109 0.0423,0.196144 0.0561,0.428273 0.34784,2.551641 0.44908,3.351741 0.049,0.394055 0.0879,0.748242 0.0931,0.938742 -0.005,0.05856 0.0212,0.08079 0.0483,0.024 0.0141,-0.03034 0.0748,-0.155575 0.0931,-0.48401 0.0141,-0.24624 -0.006,-0.625475 -0.0762,-1.147234 -0.0106,-0.0755 -0.31644,-2.312106 -0.31644,-2.312106 0,0 0.1972,0.18556 0.22895,0.219075 0.0317,0.03351 0.0702,0.01553 0.0519,-0.03845 -0.018,-0.05362 -0.42192,-1.030113 -0.43462,-1.064332 -0.0134,-0.03351 -0.0261,-0.05856 -0.0423,-0.01939 m -1.06822,0 c -0.0166,0.03916 -0.14605,0.324908 -0.14605,0.324908 0.004,0.02328 0.0342,0.09348 0.055,0.237418 0.0222,0.149932 0.0533,0.364419 0.0878,0.600427 0,0 0.0977,0.521055 0.1972,1.134182 0.013,0.08079 0.34784,1.79211 0.25541,1.9685 -0.0201,0.03422 -0.27552,0.176741 -0.51152,0.154164 -0.0494,-0.0053 -0.38806,-0.0695 -0.41205,-0.384529 0.0141,-0.08431 0.0406,-0.316794 -0.0632,-0.164042 -0.10371,0.152755 -0.62724,1.097846 -1.52999,0.47484 0,0 -0.0455,-0.03916 -0.1009,-0.08713 0.28963,-0.176038 0.55739,-0.331613 0.60149,-0.326673 0,0 0.0529,-0.153811 0.0808,-0.291042 -0.86536,-0.594077 -1.96003,-0.08996 -2.06939,-0.01728 -0.10901,0.07303 -0.1457,0.305504 -0.16228,0.366887 -0.0169,0.06209 0.0448,0.05892 0.0991,0.03281 0.0935,-0.04798 0.26,-0.127 0.37501,-0.06632 0.1591,0.0889 0.32314,0.201787 0.46954,0.309737 -0.61947,0.314679 -1.33985,0.492831 -1.85384,0.244829 -0.39512,-0.197556 -0.46179,-1.151114 -0.48296,-1.323271 -0.0187,-0.150987 -0.14287,-2.188633 -0.48612,-3.014485 -0.0589,-0.143227 -0.0952,0.07267 -0.12595,0.229658 -0.0307,0.156634 -0.0194,0.131586 0.0113,0.249061 0.22402,0.705908 0.41346,2.603854 0.42828,2.862087 0.0579,1.009296 0.38488,1.273175 0.43674,1.319036 0.63711,0.562327 1.7085,-0.01939 1.89617,-0.103717 0.0498,-0.02222 0.22684,-0.130881 0.43851,-0.261056 0.0981,0.07832 0.1718,0.138641 0.20567,0.163337 0.20708,0.148167 0.9719,0.786694 1.66617,-0.2413 0.0758,0.147461 0.2226,0.394404 0.5087,0.425096 0.13794,0.01482 0.86149,-0.01482 0.78811,-0.968375 -0.0293,-0.382058 -0.48155,-3.057525 -0.48155,-3.057525 0,0 0.19756,0.185563 0.22931,0.219075 0.0317,0.03352 0.0699,0.01553 0.0519,-0.0381 -0.018,-0.05433 -0.40111,-0.917575 -0.41452,-0.951794 -0.013,-0.03351 -0.0257,-0.05856 -0.042,-0.01939 m -2.04506,3.799769 c -0.10971,0.08855 -0.23248,0.176035 -0.36442,0.259292 -0.12488,-0.09737 -0.27375,-0.202494 -0.42686,-0.286809 0.44415,-0.0635 0.76659,0.01447 0.79128,0.02752 m 11.12732,-3.63855 c -0.0702,0.10654 -0.12206,0.363008 -0.0222,0.435681 0.10019,0.07338 0.24624,0.132644 0.24624,0.132644 -0.46566,0.570793 -1.38042,0.976842 -1.59808,1.146527 -0.0649,0.04939 -0.0561,0.07832 -0.0148,0.06738 0.036,-0.01024 0.73308,-0.205316 1.37019,-0.75071 0.2921,-0.250473 0.28399,-0.268817 0.35807,-0.420865 0.0635,0.03246 0.10689,0.08537 0.13159,0.116065 0.0356,0.04374 0.0547,0.07585 0.0713,0.02998 0.0607,-0.168981 -0.0254,-0.270581 -0.1076,-0.323498 0,0 0.0857,-0.26317 -0.0716,-0.52705 -0.0265,-0.0441 -0.18204,-0.18556 -0.36301,0.09384 m 0.24377,0.07267 c 0.10513,0.09772 0.0889,0.257879 0.0847,0.294569 0,0 -0.13406,-0.06279 -0.19439,-0.08855 -0.0596,-0.02574 -0.091,-0.0635 -0.0631,-0.1016 0.0921,-0.129821 0.13758,-0.125588 0.17286,-0.104421 m -1.78858,-0.165454 c -0.1831,0.232833 -0.19474,0.538339 -0.21943,0.879829 -0.0254,-0.07162 -0.17181,-0.528815 -0.63924,-0.790929 -0.0339,-0.01905 -0.10301,0.01728 -0.10971,0.124883 -0.004,0.0628 -0.0212,0.215196 0.0229,0.258588 0.0441,0.04304 0.17462,0.128058 0.19615,0.139345 0.0222,0.01236 0.0455,0.0141 0.0526,-0.01198 0.006,-0.02612 0.036,-0.08678 0.0787,-0.04339 0.0356,0.03598 0.26564,0.226483 0.38558,0.630415 0.0205,0.05362 0.0706,0.05891 0.0819,-0.01728 0.0275,-0.186618 0.0427,-0.511175 0.0575,-0.6096 0.0208,-0.138287 0.0868,-0.423333 0.26211,-0.275166 0.0395,0.03351 0.0815,0.07796 0.0815,0.07796 0.0377,0.04657 0.0843,0.100542 0.10654,0.04622 0.0349,-0.08149 0.0624,-0.216958 0.0247,-0.289983 -0.0166,-0.03246 -0.23389,-0.307271 -0.3817,-0.118888 m -11.94259,-0.01588 c -0.0335,0.0822 -0.17356,0.364773 -0.1524,0.697442 0.005,0.07655 0.0561,0.226483 0.17216,0.230716 0.06,0 0.13688,-0.04374 0.19226,-0.232127 0.009,-0.04233 0.0152,-0.0762 0.0191,-0.09313 0.006,-0.02574 -0.0127,-0.05574 -0.0321,0.0024 -0.0437,0.115713 -0.15769,0.196147 -0.24307,0.04163 -0.0138,-0.03069 -0.0713,-0.171098 0.0346,-0.476957 0.0208,-0.05962 0.048,-0.148166 0.048,-0.148166 0.0236,-0.06703 -0.005,-0.103365 -0.0385,-0.02188 m 10.14201,0.0049 c -0.067,0.03951 -1.78717,1.032227 -1.85702,1.077384 -0.0695,0.04445 -0.0942,0.05644 -0.10548,0.110066 -0.0116,0.05362 -0.0169,0.08502 -0.0198,0.09349 -0.0127,0.03598 -0.0219,0.08043 0.0808,0.01341 0.0321,-0.02117 1.76213,-1.02094 1.82245,-1.058333 0.0582,-0.03633 0.0921,-0.05221 0.11536,-0.107598 0.0233,-0.05609 0.0296,-0.06597 0.042,-0.104775 0.0134,-0.04092 0.0265,-0.08502 -0.0783,-0.02363 m -6.20924,0.513644 c -0.0864,0.04163 -2.01471,1.042458 -2.10326,1.087615 -0.0882,0.04445 -0.11465,0.06385 -0.13018,0.127352 -0.0155,0.0635 -0.0226,0.09737 -0.0272,0.110773 -0.0138,0.04304 -0.0332,0.08749 0.0963,0.01871 0.0402,-0.02117 1.99178,-1.023057 2.06128,-1.066448 0.0698,-0.04269 0.11183,-0.05821 0.14182,-0.124177 0.0296,-0.06527 0.037,-0.07691 0.0533,-0.122767 0.0173,-0.04868 0.0388,-0.09384 -0.0921,-0.03105 m -0.10654,0.838906 c -0.0233,0.07162 -0.0409,0.127352 -0.01,0.209198 0.031,0.08184 0.11536,0.268111 0.12947,0.294569 0.0141,0.02646 0.0169,0.0568 -0.0293,0.07585 -0.0459,0.01976 -0.25717,0.06491 -0.29633,-0.160515 -0.0395,-0.224718 -0.0427,-0.290689 -0.0624,-0.329141 -0.0198,-0.03775 -0.0381,-0.04233 -0.0529,-0.0042 -0.0152,0.03775 -0.0247,0.116769 -0.0272,0.129117 -0.002,0.0127 -0.002,0.02222 0.006,0.03598 0.008,0.01376 0.0928,0.265642 0.0543,0.334786 -0.0381,0.0695 -0.22719,0.194029 -0.32703,0.06385 -0.0469,-0.09137 -0.0183,-0.32244 -0.0183,-0.376767 0,-0.05433 -0.0173,-0.07267 -0.0406,-0.02893 -0.0229,0.04375 -0.0356,0.07267 -0.0342,0.112183 0.001,0.03916 0.007,0.207434 0.004,0.260705 -0.004,0.05327 0,0.225425 0.1016,0.274108 0.1016,0.04798 0.24941,0.0032 0.36124,-0.20814 0.0864,0.125942 0.21802,0.126294 0.28857,0.100894 0.06,-0.02223 0.12736,-0.112535 0.14641,-0.237067 0.0201,-0.124883 -0.0124,-0.210254 -0.0515,-0.280458 -0.0519,-0.08678 -0.0868,-0.232127 -0.0868,-0.232127 -0.0183,-0.05221 -0.0325,-0.105481 -0.055,-0.03387 m -3.58104,0.943327 c -0.0321,0.09984 -0.17145,0.444148 -0.12489,0.8382 0.0106,0.09067 0.0783,0.265996 0.20991,0.262821 0.0677,-0.0039 0.15169,-0.06068 0.20143,-0.287514 0.008,-0.05115 0.0124,-0.09208 0.0159,-0.112536 0.005,-0.03034 -0.0187,-0.06491 -0.0367,0.0056 -0.0416,0.1397 -0.1651,0.24271 -0.27164,0.06456 -0.0177,-0.03563 -0.0921,-0.198614 0.006,-0.568677 0.0201,-0.07197 0.0445,-0.178858 0.0445,-0.178858 0.0226,-0.08114 -0.012,-0.122767 -0.0448,-0.02363 m 1.17122,0.03598 -0.19544,0.267055 c -0.006,0.0088 -0.005,0.02045 0.004,0.02646 l 0.33232,0.24271 c 0.008,0.006 0.0198,0.0035 0.0257,-0.0049 l 0.19544,-0.267404 c 0.006,-0.0085 0.005,-0.02011 -0.004,-0.02612 l -0.33267,-0.24271 c -0.008,-0.0056 -0.0198,-0.0035 -0.0257,0.0049 m 2.57562,0.208492 -0.16827,0.231071 -0.32314,-0.236009 c -0.008,-0.0053 -0.0198,-0.0035 -0.0254,0.0049 l -0.19509,0.267758 c -0.006,0.0081 -0.005,0.01977 0.003,0.02574 l 0.33266,0.242711 c 0.008,0.006 0.0198,0.0039 0.0257,-0.0049 l 0.16863,-0.230362 0.32279,0.235302 c 0.008,0.006 0.0194,0.0039 0.0257,-0.0049 l 0.19509,-0.267052 c 0.006,-0.0085 0.005,-0.02045 -0.004,-0.02611 l -0.33232,-0.243062 c -0.008,-0.0053 -0.0201,-0.0035 -0.0261,0.0049 m -7.23018,-2.307166 c -0.17074,0.239538 -0.17004,0.545748 -0.18062,0.887589 -0.0286,-0.07056 -0.1905,-0.521758 -0.66075,-0.765526 -0.0346,-0.01765 -0.1009,0.02117 -0.10302,0.128762 -0.001,0.06315 -0.013,0.216254 0.0325,0.257529 0.0452,0.04163 0.17709,0.121354 0.19897,0.132292 0.0222,0.0113 0.0455,0.01198 0.0508,-0.01482 0.005,-0.02611 0.0324,-0.08784 0.0758,-0.04622 0.0314,0.02999 0.28575,0.236361 0.37289,0.529519 0.0727,0.254706 -0.5394,0.79869 -0.5715,0.823383 -0.0579,0.04481 -0.0378,0.07197 -0.0106,0.05574 0.0272,-0.01587 0.0543,-0.02117 0.37006,-0.248002 0.25471,-0.183091 0.30163,-0.385233 0.31821,-0.539398 0.002,-0.0078 0.004,-0.01622 0.005,-0.02646 0.0198,-0.187677 0.0219,-0.512585 0.0325,-0.611365 0.0152,-0.138994 0.0688,-0.426154 0.24695,-0.285044 0.0406,0.0321 0.084,0.07444 0.084,0.07444 0.0385,0.04551 0.0868,0.09737 0.10654,0.04233 0.0307,-0.0829 0.0529,-0.219075 0.0124,-0.291042 -0.0173,-0.03139 -0.24165,-0.297391 -0.38029,-0.103716 m 1.2005,0.862896 c -0.067,0.0956 -0.121,0.328787 -0.0314,0.398285 0.09,0.0695 0.22225,0.127352 0.22225,0.127352 -0.44098,0.510823 -1.04846,0.985308 -1.30211,1.124304 -0.0649,0.03598 -0.0533,0.0702 -0.0155,0.06103 0.0194,-0.0046 0.35207,-0.116768 0.75565,-0.398637 0.33937,-0.237421 0.6664,-0.744715 0.6664,-0.744715 0,0 0.10336,0.09102 0.11747,0.109715 0.0307,0.04057 0.0476,0.07055 0.0639,0.02928 0.06,-0.153458 -0.0162,-0.248708 -0.0903,-0.299154 0,0 0.0854,-0.238831 -0.0518,-0.484365 -0.0233,-0.04092 -0.16193,-0.174273 -0.33444,0.07691 m 0.22119,0.07267 c 0.0935,0.09207 0.0744,0.23848 0.0699,0.271992 0,0 -0.121,-0.06103 -0.17533,-0.08608 -0.054,-0.02506 -0.0818,-0.06032 -0.0557,-0.0949 0.0882,-0.116062 0.12946,-0.111125 0.16121,-0.09102 m 12.28902,0.185915 c -0.0342,0.08432 -0.17851,0.375002 -0.15664,0.71755 0.005,0.07902 0.0575,0.233185 0.17675,0.237067 0.0617,0 0.14146,-0.0448 0.1979,-0.238125 0.01,-0.0441 0.0159,-0.07938 0.0198,-0.09631 0.006,-0.02611 -0.013,-0.05715 -0.0328,0.0028 -0.0451,0.118886 -0.16228,0.201788 -0.25012,0.04233 -0.0141,-0.03105 -0.0734,-0.175684 0.0353,-0.490715 0.0219,-0.06138 0.0494,-0.152048 0.0494,-0.152048 0.0243,-0.06914 -0.005,-0.106537 -0.0395,-0.02257 m 3.30729,0.173215 c -0.0318,0.07832 -0.1651,0.347133 -0.14499,0.664279 0.005,0.07303 0.0536,0.2159 0.16369,0.219781 0.0572,-2.65e-4 0.13088,-0.04163 0.18344,-0.22084 0.009,-0.04057 0.0145,-0.07302 0.0183,-0.0889 0.006,-0.02434 -0.0124,-0.05292 -0.0307,0.0024 -0.042,0.109713 -0.15029,0.186619 -0.23178,0.03951 -0.013,-0.02928 -0.0677,-0.162984 0.0328,-0.454732 0.0205,-0.05644 0.0459,-0.140758 0.0459,-0.140758 0.0222,-0.06385 -0.005,-0.09842 -0.0367,-0.02082 m -6.20606,0.0085 -0.16863,0.230717 -0.32315,-0.235305 c -0.008,-0.006 -0.0194,-0.0039 -0.0254,0.0046 l -0.19508,0.267404 c -0.006,0.0085 -0.005,0.02045 0.003,0.02611 l 0.33267,0.242711 c 0.008,0.006 0.0198,0.0039 0.0261,-0.0049 l 0.16827,-0.230717 0.32279,0.235654 c 0.008,0.006 0.0198,0.0039 0.0257,-0.0049 l 0.19508,-0.267406 c 0.006,-0.0085 0.005,-0.02011 -0.004,-0.02611 l -0.33231,-0.242359 c -0.008,-0.006 -0.0198,-0.0039 -0.0257,0.0046 m -12.48304,0.172508 c -0.0427,0.146754 -0.22825,0.653695 -0.16263,1.235427 0.0155,0.134408 0.10795,0.392993 0.28469,0.389818 0.091,-0.0053 0.20461,-0.08819 0.26988,-0.422979 0.0102,-0.0755 0.0159,-0.135821 0.0201,-0.1651 0.007,-0.04516 -0.0247,-0.09666 -0.049,0.0071 -0.055,0.206023 -0.22049,0.357013 -0.36548,0.09349 -0.0243,-0.05256 -0.12559,-0.293513 0.005,-0.839259 0.0265,-0.106187 0.0586,-0.263879 0.0586,-0.263879 0.0296,-0.119237 -0.0173,-0.180975 -0.0607,-0.03457 m 13.7862,0.243417 c -0.013,0.04515 -0.0459,0.239887 -0.0536,0.279752 -0.008,0.04022 -0.007,0.08008 0.0127,0.1143 0.0194,0.03387 0.0702,0.152752 0.10689,0.248708 0.0363,0.09666 0.41417,0.824442 0.44909,0.889 0.0349,0.06456 0.042,0.112536 0.007,0.155223 -1.21285,1.279525 -3.55318,2.066571 -3.62797,2.109963 -0.0748,0.04339 -0.055,0.07691 0.0709,0.05503 0.18874,-0.03281 1.23966,-0.208492 1.53952,-0.353129 0.19756,-0.09525 0.88759,-0.433917 1.45239,-0.8763 -0.0159,0.113946 -0.0303,0.281869 -0.0226,0.4953 0.0381,1.0287 0.95815,0.858308 1.20015,0.805037 0.72355,-0.15875 1.60831,-1.159227 1.68346,-1.359958 0.0741,-0.198612 0.0854,-0.379587 0.0688,-0.537633 0.19015,-0.103363 0.59972,-0.433211 0.59972,-0.433211 0.0166,0.438857 0.36618,0.570794 0.47378,0.589844 0.50306,0.0762 0.75565,-0.344662 0.8629,-0.481187 0.0914,0.240593 0.3122,0.28716 0.42545,0.309737 0.43426,0.08643 0.51928,-0.220837 0.54151,-0.290687 0.13617,-0.423688 -0.10936,-0.739423 -0.14076,-0.7747 -0.0318,-0.03493 -0.0476,-0.0013 -0.0586,0.03916 -0.0113,0.04092 -0.0462,0.193321 -0.0684,0.288925 0,0 0.091,0.147812 0.12312,0.223308 0.0325,0.07549 -0.0159,0.116769 -0.10936,0.128059 -0.26423,0.03245 -0.47449,-0.118888 -0.54751,-0.188738 -0.0727,-0.06985 0.006,-0.193675 0.0646,-0.341135 0.0469,-0.118182 -0.0402,-0.132292 -0.10654,-2.65e-4 -0.22402,0.588785 -0.53905,0.652285 -0.6216,0.674862 -0.74612,0.2032 -0.68192,-0.478718 -0.6791,-0.59055 0.003,-0.111829 -0.0794,-0.07055 -0.17109,0.0035 -0.31397,0.251529 -0.56692,0.40005 -0.70309,0.460375 -0.11712,-0.2286 -0.28716,-0.372533 -0.35877,-0.424392 -0.80716,-0.588787 -0.87419,0.599017 -0.84949,0.726369 0.12277,0.505177 0.94756,0.199319 1.07703,0.183798 0.12947,-0.01516 0.0868,0.155575 0.0145,0.257175 -0.17886,0.250119 -0.38558,0.429683 -0.57291,0.582435 -0.7994,0.652286 -1.20086,0.601134 -1.32468,0.596548 -0.78528,-0.02188 -0.71297,-0.868187 -0.66922,-1.049162 0.23601,-0.200025 0.43921,-0.418042 0.55704,-0.641702 0.0483,-0.122767 0.13088,-0.401461 -0.0187,-0.751417 -0.0783,-0.154165 -0.32632,-0.586317 -0.32632,-0.586317 0,0 0.18239,0.0056 0.19967,0.0053 0.0176,-2.65e-4 0.0515,-0.01834 0.007,-0.0695 -0.0441,-0.05115 -0.42721,-0.43321 -0.4505,-0.463902 -0.0229,-0.03069 -0.0441,-0.05292 -0.0572,-0.0078 m 2.42182,1.7526 c 0,0 -0.10971,0.06315 -0.41698,0.04233 -0.25823,-0.01693 -0.23565,-0.117475 -0.20073,-0.155929 0.0384,-0.04128 0.35419,-0.239888 0.61771,0.113596 m -3.31646,-1.424517 c -0.0529,0.06597 -0.58949,0.76976 -0.58949,0.76976 l -0.38982,-0.277989 c 0,0 0.15875,-0.03986 0.18662,-0.04798 0.0275,-0.0085 0.0434,-0.04445 -0.006,-0.06985 -0.0497,-0.02574 -0.52035,-0.213077 -0.55633,-0.227542 -0.0353,-0.01447 -0.0487,-0.03069 -0.0515,0.0074 -0.003,0.0381 -0.009,0.347486 -0.009,0.347486 0,0 -0.007,0.02188 0.0339,0.04516 0.0409,0.02294 0.0811,0.07303 0.115,0.10654 0.0335,0.03351 0.47096,0.378883 0.49248,0.391229 0,0 -0.21907,0.384175 -0.24694,0.685096 -0.0279,0.30127 0.006,0.716491 0.41663,0.582435 0.11077,-0.0314 0.57185,-0.214842 0.67451,-0.536223 0.0339,-0.118179 0.12806,-0.331962 -0.0257,-0.548921 -0.0893,-0.127354 -0.44944,-0.342548 -0.44944,-0.342548 0,0 0.27657,-0.381706 0.30303,-0.428625 0.0261,-0.04657 0.12736,-0.3429 0.13864,-0.414514 0.0116,-0.07161 0.0169,-0.107244 -0.0363,-0.04092 m -0.0945,1.622425 c -0.1524,0.125942 -0.47342,0.2921 -0.56373,0.300919 -0.0903,0.0085 -0.32985,-0.03563 -0.22578,-0.280811 0.036,-0.07938 0.27516,-0.48895 0.27516,-0.48895 0.0893,0.04904 0.66746,0.343252 0.51435,0.468842 m -9.54546,-1.366308 c -0.0152,0.05574 -0.0635,0.271637 -0.0635,0.271637 0.0455,0.09843 0.1524,0.309033 0.16969,0.344313 0.018,0.03563 0.008,0.06138 -0.0173,0.0889 -0.0257,0.02787 -0.2614,0.215545 -0.58349,0.106537 0,0 -0.14182,-0.212725 -0.16722,-0.248354 -0.0254,-0.03563 -0.0557,-0.05574 -0.0688,-0.01024 -0.0123,0.04586 -0.0303,0.319616 -0.0303,0.319616 0.10125,0.17145 0.30586,0.532694 0.30586,0.655815 0,0.123471 0.0109,0.193675 -0.1404,0.344662 -0.15099,0.151342 -0.94686,0.912284 -1.78929,0.879475 -0.0868,-0.0035 -0.89641,-0.05891 -0.94933,-0.82056 -0.006,-0.117475 0.0113,-0.422627 0.0952,-0.728133 0.0226,-0.08961 -0.008,-0.201436 -0.0759,-0.06738 -0.067,0.134763 -0.45331,1.426988 0.3362,1.862315 0.0945,0.05221 0.86325,0.38241 1.90148,-0.341842 0.12946,-0.08996 0.7059,-0.464608 0.7366,-0.906991 0.0363,-0.299861 -0.0169,-0.507294 -0.0169,-0.507294 0.11113,-0.0024 0.56127,-0.02787 0.63112,-0.532342 0.0201,-0.144287 0.0406,-0.337256 -0.19262,-0.705204 -0.0631,-0.08325 -0.066,-0.06068 -0.0811,-0.0049 m -1.94345,0.723546 -0.19473,0.267054 c -0.006,0.0088 -0.005,0.02011 0.003,0.02646 l 0.33267,0.242358 c 0.008,0.006 0.0198,0.0039 0.0261,-0.0046 l 0.19473,-0.267404 c 0.006,-0.0088 0.005,-0.02045 -0.003,-0.02646 l -0.33302,-0.242358 c -0.008,-0.006 -0.0198,-0.0035 -0.0261,0.0049 m -0.67804,0.545396 c -0.0328,0.0956 -0.17286,0.425096 -0.12735,0.802217 0.0106,0.08713 0.0776,0.254 0.2092,0.251177 0.0674,-0.0039 0.15205,-0.05821 0.20214,-0.275519 0.008,-0.04904 0.0124,-0.0882 0.0159,-0.107598 0.005,-0.02928 -0.018,-0.06209 -0.0363,0.0049 -0.042,0.134053 -0.1658,0.232833 -0.27164,0.06279 -0.0177,-0.03387 -0.0917,-0.189793 0.008,-0.544335 0.0205,-0.06879 0.0452,-0.17145 0.0452,-0.17145 0.0222,-0.07761 -0.0124,-0.117123 -0.0448,-0.02223 m 2.79329,0.373592 -0.19544,0.267403 c -0.006,0.0088 -0.004,0.02011 0.004,0.02612 l 0.33267,0.24271 c 0.008,0.006 0.0198,0.0035 0.0261,-0.0049 l 0.19473,-0.267406 c 0.006,-0.0085 0.005,-0.02011 -0.003,-0.02611 l -0.33302,-0.242359 c -0.008,-0.006 -0.0194,-0.0039 -0.0254,0.0046 m 15.60441,0.286102 c -0.031,0.08608 -0.043,0.142523 -0.0399,0.175684 0.004,0.03281 0.0145,0.139348 0.0145,0.139348 -0.0321,0.02574 -0.16827,0.111125 -0.3055,0.01024 0.009,-0.02928 0.0268,-0.0889 0.031,-0.121354 0.0148,-0.05045 -0.0162,-0.0882 -0.0409,-0.03563 -0.0254,0.05256 -0.0833,0.227894 -0.1263,0.267406 -0.043,0.03951 -0.0935,0.184854 -0.41945,0.03704 -0.0568,-0.02188 -0.15734,-0.09631 -0.31256,0.06068 -0.35278,0.327731 -0.5962,0.353483 -0.99166,0.493535 -0.0476,0.02222 -0.14781,0.09772 -0.0293,0.08573 0.11924,-0.01199 0.62054,2.65e-4 0.89359,-0.312912 0.0568,-0.05539 0.12206,-0.201438 0.33866,-0.116771 0.11995,0.04551 0.34149,0.235656 0.5835,-0.140052 0.14217,0.0949 0.35913,0.0568 0.39334,-0.04798 0.0349,-0.104423 0.0741,-0.20814 0.0737,-0.2794 -2.7e-4,-0.07126 -0.006,-0.164748 -0.006,-0.164748 -0.005,-0.05644 -0.0251,-0.137231 -0.0565,-0.0508 m -8.99971,0.188383 c -0.0342,0.08326 -0.17639,0.370417 -0.15523,0.708732 0.006,0.07796 0.0572,0.230362 0.17463,0.234595 0.061,0 0.14005,-0.04445 0.19579,-0.235654 0.01,-0.04304 0.0159,-0.07796 0.0198,-0.0949 0.006,-0.02574 -0.013,-0.0568 -0.0328,0.0024 -0.0444,0.117123 -0.16016,0.199321 -0.24695,0.04198 -0.0141,-0.03104 -0.0723,-0.173215 0.0346,-0.484717 0.0219,-0.06032 0.049,-0.150283 0.049,-0.150283 0.024,-0.06808 -0.005,-0.105481 -0.0388,-0.02222 m -3.37749,0.167923 c -0.0339,0.08361 -0.17639,0.370769 -0.15452,0.709083 0.005,0.07796 0.0565,0.230011 0.17428,0.234244 0.061,-2.65e-4 0.1397,-0.04445 0.19543,-0.235656 0.01,-0.04304 0.0159,-0.07796 0.0198,-0.0949 0.006,-0.02611 -0.013,-0.0568 -0.0325,0.0028 -0.0448,0.117123 -0.16051,0.198967 -0.24694,0.04198 -0.0145,-0.0314 -0.073,-0.173567 0.0346,-0.485069 0.0219,-0.06032 0.049,-0.150283 0.049,-0.150283 0.024,-0.06809 -0.005,-0.105482 -0.0392,-0.02222 M 177.26537,32.513 c -0.0699,0.03528 -1.08339,0.43039 -1.1557,0.470607 -0.0723,0.04057 -0.0977,0.05009 -0.11219,0.103362 -0.0145,0.05292 -0.0222,0.08361 -0.0261,0.09243 -0.0148,0.03457 -0.0265,0.07832 0.0804,0.01799 0.0332,-0.01871 1.0601,-0.419455 1.11972,-0.454025 0.0596,-0.03352 0.0949,-0.04586 0.12171,-0.09984 0.0268,-0.05433 0.0332,-0.06385 0.0483,-0.1016 0.0159,-0.04022 0.0321,-0.08325 -0.0762,-0.02893"
       style="fill:#231f20;fill-opacity:1;fill-rule:evenodd;stroke:none;stroke-width:0.264583"
       id="path1" />
  </g>
</svg>
