<?xml version="1.0" encoding="UTF-8" standalone="no"?>
<!-- Created with Inkscape (http://www.inkscape.org/) -->

<svg
   width="19.81465mm"
   height="6.505518mm"
   viewBox="0 0 19.81465 6.505518"
   version="1.1"
   id="svg1"
   xmlns="http://www.w3.org/2000/svg"
   xmlns:svg="http://www.w3.org/2000/svg">
  <defs
     id="defs1" />
  <g
     id="layer1"
     transform="translate(-170.56847,-29.079539)">
    <path
       d="m 176.67429,29.112739 c -0.0561,0.03457 -1.72191,0.778933 -1.88172,0.908756 -0.0808,0.06491 -0.14746,0.168275 -0.1711,0.280104 -0.0335,0.161925 0.007,0.32244 0.11254,0.339021 0.0737,0.01199 0.11571,0.05503 0.13405,0.07973 0.008,0.01024 0.0198,0.0028 0.0236,-0.0042 0.0833,-0.1651 0.008,-0.268817 -0.13441,-0.30974 -0.0568,-0.01622 -0.0818,-0.09454 0.12736,-0.229304 0.19261,-0.123825 1.67181,-0.790223 1.71485,-0.820208 0.0575,-0.04022 0.0928,-0.05609 0.11501,-0.113948 0.0226,-0.05786 0.0286,-0.06773 0.0402,-0.10795 0.0124,-0.04268 0.0243,-0.08819 -0.0804,-0.02222 m 5.96476,0.360185 c -0.0702,0.106188 -0.12241,0.362305 -0.0226,0.43533 0.10019,0.07373 0.2466,0.132643 0.2466,0.132643 -0.46602,0.571148 -0.78458,0.679802 -1.05728,0.83961 -0.0699,0.04057 -0.0561,0.07796 -0.0152,0.06668 0.0215,-0.0056 0.38805,-0.06244 0.81598,-0.387701 0.23177,-0.175684 0.37217,-0.47625 0.37217,-0.47625 0,0 0.11536,0.09666 0.13124,0.116416 0.0349,0.04339 0.0543,0.07585 0.0709,0.02963 0.061,-0.168982 -0.0251,-0.270582 -0.1076,-0.323144 0,0 0.0854,-0.263525 -0.0716,-0.527405 -0.0261,-0.04409 -0.18239,-0.18556 -0.36266,0.09419 m 0.24342,0.07232 c 0.10477,0.09772 0.0889,0.257879 0.0843,0.294569 0,0 -0.1337,-0.06279 -0.19332,-0.08819 -0.06,-0.02574 -0.0914,-0.06385 -0.0639,-0.101954 0.0924,-0.129821 0.13793,-0.125587 0.17286,-0.104421 m 6.27838,0.02294 c -0.0699,0.106539 -0.12206,0.363008 -0.0215,0.435681 0.0998,0.07338 0.24624,0.132644 0.24624,0.132644 -0.46602,0.570796 -1.38077,0.976841 -1.59808,1.146881 -0.0649,0.04903 -0.0568,0.07761 -0.0155,0.06703 0.0363,-0.0099 0.73342,-0.205317 1.37019,-0.75071 0.2921,-0.250473 0.28398,-0.268817 0.35842,-0.42051 0.0635,0.0321 0.10689,0.08502 0.13159,0.116062 0.0353,0.04339 0.0543,0.0755 0.0709,0.02963 0.061,-0.168627 -0.0254,-0.270579 -0.10724,-0.323495 0,0 0.0854,-0.263174 -0.072,-0.52705 -0.0261,-0.0441 -0.18203,-0.185563 -0.363,0.09384 m 0.24376,0.07303 c 0.10478,0.09737 0.0889,0.257529 0.085,0.294216 0,0 -0.13405,-0.06279 -0.19402,-0.08854 -0.06,-0.0254 -0.0917,-0.0635 -0.0639,-0.1016 0.0924,-0.129823 0.13794,-0.125238 0.17286,-0.104071 m -1.78858,-0.165452 c -0.18274,0.232481 -0.19473,0.53834 -0.21872,0.879475 -0.0261,-0.07126 -0.17216,-0.528815 -0.63959,-0.790927 -0.0342,-0.01905 -0.10301,0.01728 -0.10971,0.124883 -0.004,0.06279 -0.0215,0.215194 0.0226,0.258585 0.0441,0.04304 0.17497,0.128059 0.19649,0.1397 0.0222,0.01199 0.0455,0.01376 0.0522,-0.01236 0.006,-0.02611 0.0363,-0.08678 0.0787,-0.04339 0.036,0.03598 0.266,0.226838 0.38594,0.630414 0.0205,0.05362 0.0699,0.05892 0.0815,-0.01728 0.0279,-0.186621 0.043,-0.511175 0.0579,-0.6096 0.0205,-0.13829 0.0868,-0.422981 0.26176,-0.275166 0.0399,0.03387 0.0819,0.07832 0.0819,0.07832 0.0374,0.04657 0.0836,0.100187 0.10689,0.04621 0.0342,-0.08184 0.0621,-0.21731 0.024,-0.290335 -0.0166,-0.0321 -0.23353,-0.306917 -0.3817,-0.118533 m -1.79987,-0.0113 c -0.0681,0.03987 -1.78788,1.03223 -1.85773,1.077383 -0.0695,0.04481 -0.0945,0.05645 -0.10548,0.110067 -0.0109,0.05362 -0.0169,0.08502 -0.0198,0.09384 -0.0127,0.03563 -0.0215,0.08008 0.0811,0.01304 0.0317,-0.02117 1.76212,-1.020585 1.82245,-1.058334 0.0582,-0.03634 0.0917,-0.05186 0.11536,-0.107595 0.0233,-0.05609 0.0289,-0.06562 0.0413,-0.104423 0.0134,-0.04127 0.0272,-0.08537 -0.0773,-0.024 m -6.85165,0.129117 c -0.031,0.0755 -0.16086,0.337256 -0.14146,0.645583 0.005,0.07091 0.0522,0.209905 0.15981,0.213432 0.0554,-2.65e-4 0.127,-0.04022 0.17745,-0.214842 0.009,-0.03951 0.0145,-0.07091 0.0183,-0.08608 0.005,-0.02363 -0.012,-0.05186 -0.0303,0.0021 -0.0406,0.106891 -0.1457,0.181679 -0.22436,0.03845 -0.013,-0.02858 -0.0663,-0.158044 0.0314,-0.442032 0.0198,-0.05468 0.0444,-0.136877 0.0444,-0.136877 0.0222,-0.06209 -0.004,-0.0956 -0.0353,-0.01976 m 0.8255,0.902758 c -0.0699,0.03493 -1.39699,0.530225 -1.46896,0.570442 -0.0727,0.04057 -0.0981,0.05045 -0.11289,0.103365 -0.0145,0.05327 -0.0215,0.08396 -0.0254,0.09208 -0.0148,0.03528 -0.0265,0.07867 0.0801,0.01871 0.0332,-0.01871 1.37372,-0.520348 1.43334,-0.554921 0.0596,-0.03387 0.0952,-0.04551 0.12206,-0.09984 0.0265,-0.05398 0.0328,-0.06385 0.048,-0.1016 0.0159,-0.04057 0.0321,-0.0829 -0.0762,-0.02822 m -0.21484,0.99554 c -0.024,0.07408 -0.042,0.131233 -0.01,0.2159 0.0321,0.08467 0.11924,0.276577 0.1337,0.304093 0.0145,0.02787 0.018,0.05856 -0.03,0.07902 -0.0476,0.02011 -0.26599,0.06667 -0.30621,-0.165807 -0.0409,-0.232833 -0.0441,-0.300567 -0.0645,-0.340077 -0.0205,-0.03916 -0.0395,-0.0441 -0.0547,-0.0046 -0.0159,0.03951 -0.0254,0.120295 -0.0275,0.13335 -0.002,0.01304 -0.002,0.02257 0.006,0.03704 0.009,0.0141 0.0956,0.27446 0.0561,0.346075 -0.0392,0.07126 -0.23531,0.200025 -0.33761,0.06562 -0.0487,-0.09455 -0.019,-0.333023 -0.019,-0.389114 0,-0.05609 -0.018,-0.07514 -0.0416,-0.02999 -0.0236,0.04551 -0.037,0.07514 -0.0356,0.115711 0.001,0.04092 0.007,0.214841 0.004,0.269875 -0.004,0.05503 0,0.232481 0.10512,0.282575 0.10443,0.05009 0.25753,0.0035 0.37324,-0.21449 0.0893,0.129823 0.22508,0.130175 0.2981,0.103365 0.0621,-0.02257 0.13124,-0.115359 0.1517,-0.244475 0.0201,-0.128765 -0.0138,-0.216959 -0.054,-0.289632 -0.0536,-0.08925 -0.0896,-0.239535 -0.0896,-0.239535 -0.0187,-0.05362 -0.0332,-0.109008 -0.0572,-0.03493 m 1.50425,-1.84926 c -0.0166,0.03916 -0.13723,0.335843 -0.13723,0.335843 0.003,0.01765 0.0363,0.147109 0.0427,0.195792 0.0561,0.428273 0.40711,2.959806 0.50765,3.759906 0.0494,0.394052 0.0878,0.748242 0.0935,0.938742 -0.004,0.05856 0.0212,0.08078 0.048,0.02434 0.0145,-0.03069 0.0751,-0.155575 0.0935,-0.484013 0.0141,-0.246592 -0.006,-0.625827 -0.0762,-1.147234 -0.0102,-0.07585 -0.37535,-2.720268 -0.37535,-2.720268 0,0 0.1972,0.185208 0.2286,0.219075 0.0321,0.03352 0.0702,0.01553 0.0522,-0.03881 -0.018,-0.05362 -0.42192,-1.029758 -0.43498,-1.063976 -0.013,-0.03387 -0.0257,-0.05856 -0.0423,-0.01939 m -0.96696,0 c -0.0162,0.03916 -0.1457,0.324908 -0.1457,0.324908 0.003,0.02294 0.0335,0.09349 0.0547,0.237418 0.0219,0.149577 0.0529,0.364067 0.0878,0.600427 0,0 0.37783,2.297997 0.39123,2.518834 0.0138,0.220839 0.0406,0.418748 -0.0134,0.473075 -0.0536,0.05362 -0.64382,0.351366 -0.60749,0.297391 0.036,-0.05433 0.26565,-0.459668 0.18451,-0.78881 -0.0452,-0.153106 -0.37818,-0.652992 -1.16205,-0.3556 -0.26706,0.135467 -0.56938,0.426157 -0.82832,0.714023 0.0427,-0.291748 0.0914,-0.934156 -0.0819,-1.788231 -0.0469,-0.2667 -0.27764,-1.521177 -0.27764,-1.521177 0,0 0.19721,0.18556 0.22896,0.219075 0.0318,0.03351 0.0702,0.01553 0.0522,-0.03846 -0.0183,-0.05397 -0.37042,-0.839258 -0.38347,-0.873477 -0.013,-0.03387 -0.0257,-0.05856 -0.042,-0.01939 -0.0166,0.03916 -0.14605,0.324908 -0.14605,0.324908 0.003,0.02294 0.0335,0.09348 0.0547,0.237418 0.0222,0.149577 0.0533,0.364067 0.0878,0.600427 0.0385,0.214138 0.32174,1.96709 0.33937,2.192515 0.0162,0.201435 0.0205,0.664633 0.0109,0.846667 -0.26388,0.312208 -0.45191,0.578556 -0.45191,0.578556 0,0 -0.80574,0.02716 -0.96379,-1.166638 -0.0536,-0.38735 -0.26105,-2.621137 -0.45896,-3.355268 -0.0317,-0.135467 -0.0769,-0.153459 -0.10372,-0.0635 -0.0275,0.08996 -0.0949,0.423685 -0.0949,0.423685 0.0318,0.24765 0.34254,2.260955 0.35595,2.459215 0.006,0.09631 0.067,0.381 -0.006,0.733073 -0.0166,-0.19544 -0.0759,-0.429332 -0.23319,-0.636765 -0.28116,-0.370065 -0.82903,-0.823383 -0.95038,-0.942975 -0.0907,-0.08925 -0.57997,-0.54116 -0.83503,-0.87489 -0.1143,-0.152752 -0.2487,-0.357362 -0.2487,-0.357362 0.0822,0.03175 0.18309,0.06068 0.23777,0.07973 0.0554,0.01905 0.11994,0.0021 0.0384,-0.07479 -0.0815,-0.0769 -0.70556,-0.540453 -0.75424,-0.595841 -0.048,-0.05503 -0.054,-0.04586 -0.0579,-0.0039 -0.004,0.04233 -0.005,0.265642 -0.003,0.334786 0.002,0.06985 0.0166,0.09384 0.0473,0.11571 0.03,0.02188 0.0787,0.05574 0.11148,0.107598 0.0328,0.05186 0.61031,0.91581 1.12113,1.368777 0.0656,0.06879 0.99236,0.760589 1.3335,1.431221 0.0607,0.118885 0.0893,0.234595 0.0995,0.347837 -0.12665,0.299863 -0.36865,0.621596 -0.81985,0.904523 -0.17075,0.117123 -1.14371,0.644173 -1.22908,0.6985 -0.0857,0.05362 -0.0501,0.08079 0.0674,0.05362 0.11712,-0.02716 1.32891,-0.225073 1.83762,-0.887238 0.20743,-0.252587 0.41451,-0.797277 0.41451,-0.797277 0.0586,0.270227 0.22543,1.306336 1.72967,1.116894 0.16651,-0.01799 1.38712,-0.157692 2.153,-0.567267 0.12171,-0.07197 0.4953,-0.288218 0.45474,-1.049512 0,-0.22084 -0.4318,-2.785181 -0.4318,-2.785181 0,0 0.1972,0.18556 0.22895,0.219075 0.0317,0.03316 0.0699,0.01553 0.0515,-0.03845 -0.0176,-0.05398 -0.3884,-0.92428 -0.40181,-0.958498 -0.013,-0.03387 -0.0257,-0.05856 -0.0423,-0.01939 m -0.25506,3.984977 c 0.0423,0.06667 0.0332,0.09349 -0.006,0.132643 -0.71367,0.686859 -2.00307,0.686859 -2.12655,0.684038 0,0 0.38559,-0.67804 0.90065,-1.012473 0.12946,-0.08149 0.7052,-0.394758 1.23225,0.195792 m -7.47571,-3.908777 c -0.13406,0.235654 -0.11501,0.526343 -0.10266,0.851604 -0.0289,-0.06562 -0.19791,-0.485775 -0.6223,-0.694267 -0.0307,-0.01516 -0.0864,0.02506 -0.0815,0.127706 0.002,0.05927 0.002,0.205317 0.0437,0.242711 0.042,0.03704 0.16157,0.106188 0.18168,0.115358 0.0198,0.0095 0.0399,0.0092 0.043,-0.01622 0.003,-0.02506 0.0229,-0.08537 0.0632,-0.04763 0.0339,0.03069 0.2487,0.19191 0.38981,0.56374 0.0229,0.04903 0.0656,0.05009 0.0684,-0.02328 0.006,-0.178858 -0.0127,-0.487539 -0.01,-0.581731 0.005,-0.132644 0.0339,-0.408165 0.1979,-0.282575 0.0367,0.02822 0.0773,0.06668 0.0773,0.06668 0.0363,0.04092 0.0811,0.08784 0.0956,0.03493 0.0215,-0.08008 0.0325,-0.210608 -0.007,-0.276931 -0.0173,-0.02928 -0.22895,-0.270579 -0.33725,-0.08008 m 4.7057,1.932516 c -0.0363,0.08855 -0.18874,0.395817 -0.1651,0.757413 0.005,0.08326 0.0607,0.246239 0.18626,0.250473 0.0653,-2.65e-4 0.14958,-0.04727 0.20885,-0.251884 0.0106,-0.04621 0.0173,-0.08326 0.0212,-0.1016 0.007,-0.02752 -0.0141,-0.06032 -0.0349,0.0028 -0.0476,0.125236 -0.17145,0.213077 -0.26388,0.04515 -0.0152,-0.03351 -0.078,-0.185912 0.037,-0.518583 0.0236,-0.06456 0.0526,-0.160867 0.0526,-0.160867 0.0257,-0.07267 -0.005,-0.112183 -0.042,-0.02294 m 9.05898,-0.832205 c -0.0342,0.08432 -0.17886,0.375357 -0.15664,0.717198 0.005,0.07937 0.0575,0.23354 0.17675,0.237419 0.0617,0 0.14111,-0.04445 0.19755,-0.238125 0.01,-0.04374 0.0162,-0.07902 0.0201,-0.09631 0.006,-0.02612 -0.0134,-0.05715 -0.0332,0.0028 -0.0452,0.118885 -0.16263,0.201435 -0.25012,0.04233 -0.0141,-0.0314 -0.0734,-0.175683 0.0353,-0.490715 0.0219,-0.06103 0.0494,-0.152045 0.0494,-0.152045 0.0247,-0.06915 -0.005,-0.10654 -0.0392,-0.02257 m -15.31973,0.09666 c -0.055,0.148166 -0.2861,0.659341 -0.25612,1.264002 0.007,0.1397 0.0882,0.412398 0.27623,0.420864 0.097,2.65e-4 0.22331,-0.07761 0.31503,-0.4191 0.0155,-0.07691 0.0257,-0.138996 0.0325,-0.169333 0.01,-0.04586 -0.0201,-0.100896 -0.0526,0.0046 -0.0727,0.208844 -0.25823,0.353836 -0.39441,0.07232 -0.0222,-0.05574 -0.11359,-0.31115 0.0617,-0.865717 0.0353,-0.107595 0.0797,-0.26811 0.0797,-0.26811 0.0395,-0.121356 -0.006,-0.187677 -0.0621,-0.03951 m 18.62702,0.0769 c -0.0321,0.07832 -0.16581,0.346781 -0.14499,0.663929 0.005,0.07303 0.0529,0.2159 0.16369,0.219779 0.0568,0 0.13088,-0.04163 0.18274,-0.220837 0.009,-0.04057 0.0148,-0.07303 0.0187,-0.0889 0.006,-0.02434 -0.0123,-0.05292 -0.0307,0.0028 -0.0416,0.109715 -0.15028,0.186266 -0.23142,0.03881 -0.013,-0.02893 -0.0681,-0.162277 0.0328,-0.454377 0.0198,-0.05609 0.0455,-0.140758 0.0455,-0.140758 0.0229,-0.06386 -0.004,-0.09878 -0.0363,-0.02045 m -6.20642,0.0081 -0.16827,0.230717 -0.32315,-0.235302 c -0.008,-0.006 -0.0198,-0.0039 -0.0254,0.0046 l -0.19544,0.267407 c -0.006,0.0088 -0.005,0.02045 0.004,0.02611 l 0.33267,0.242713 c 0.008,0.0056 0.0198,0.0035 0.0258,-0.0046 l 0.16827,-0.231069 0.32314,0.235657 c 0.008,0.0056 0.0194,0.0035 0.0257,-0.0046 l 0.19508,-0.267403 c 0.006,-0.0088 0.005,-0.02011 -0.003,-0.02612 l -0.33302,-0.24271 c -0.008,-0.006 -0.0198,-0.0039 -0.0257,0.0046 m -10.31134,0.241652 -0.16863,0.230717 -0.32314,-0.235302 c -0.008,-0.006 -0.0191,-0.0039 -0.0254,0.0046 l -0.19509,0.267407 c -0.006,0.0088 -0.005,0.02045 0.003,0.02611 l 0.33302,0.24271 c 0.008,0.0056 0.0198,0.0035 0.0257,-0.0049 l 0.16828,-0.230717 0.32279,0.235656 c 0.008,0.0056 0.0201,0.0035 0.0261,-0.0049 l 0.19473,-0.267404 c 0.006,-0.0085 0.005,-0.01976 -0.003,-0.02574 l -0.33302,-0.24271 c -0.008,-0.006 -0.0198,-0.0039 -0.0257,0.0046 m 11.61486,0.174273 c -0.013,0.04551 -0.0459,0.23989 -0.054,0.280107 -0.008,0.03986 -0.007,0.07973 0.013,0.1143 0.0194,0.03387 0.0702,0.152751 0.10689,0.248708 0.0363,0.09631 0.41416,0.824087 0.44909,0.888293 0.0346,0.06456 0.042,0.11289 0.007,0.155575 -1.21215,1.279525 -3.55247,2.066219 -3.62726,2.109965 -0.0748,0.04339 -0.055,0.07726 0.0705,0.05503 0.18874,-0.03281 1.24002,-0.208847 1.53953,-0.353132 0.1979,-0.09525 0.88794,-0.434268 1.45238,-0.8763 -0.0155,0.113948 -0.03,0.281869 -0.0222,0.494948 0.0381,1.029404 0.95814,0.858309 1.19979,0.805744 0.72355,-0.159457 1.60867,-1.159582 1.68381,-1.36031 0.0744,-0.198615 0.085,-0.379942 0.0684,-0.537634 0.1905,-0.103013 0.60007,-0.433213 0.60007,-0.433213 0.0166,0.438505 0.36584,0.570442 0.47308,0.589492 0.50341,0.07655 0.756,-0.34431 0.8636,-0.480483 0.091,0.239889 0.31186,0.286808 0.42545,0.309388 0.43427,0.08643 0.51858,-0.22084 0.54151,-0.291042 0.13618,-0.423333 -0.10936,-0.739071 -0.14111,-0.773996 -0.0314,-0.03528 -0.0473,-0.0019 -0.0586,0.03916 -0.0113,0.04057 -0.0459,0.192971 -0.0681,0.288573 0,0 0.091,0.147815 0.12311,0.223308 0.0321,0.07549 -0.0155,0.116769 -0.109,0.128059 -0.26459,0.0321 -0.47555,-0.11924 -0.54787,-0.18909 -0.073,-0.06985 0.006,-0.19332 0.0646,-0.340783 0.0469,-0.118179 -0.0399,-0.132292 -0.10724,-2.65e-4 -0.22366,0.588785 -0.53834,0.652285 -0.62125,0.674865 -0.74612,0.2032 -0.68156,-0.478721 -0.67874,-0.59055 0.002,-0.111832 -0.0794,-0.07056 -0.17145,0.0032 -0.31362,0.251883 -0.56656,0.40005 -0.70273,0.460727 -0.11713,-0.228952 -0.28716,-0.372534 -0.35878,-0.424392 -0.80786,-0.588785 -0.87418,0.599017 -0.84984,0.726723 0.12277,0.504825 0.94792,0.198967 1.07703,0.183444 0.12947,-0.01516 0.0871,0.155575 0.0145,0.257175 -0.17886,0.250118 -0.38559,0.429331 -0.57256,0.582435 -0.79975,0.652288 -1.20121,0.600781 -1.32468,0.596548 -0.78493,-0.02188 -0.71297,-0.868185 -0.66922,-1.049515 0.23601,-0.19967 0.43885,-0.417335 0.55703,-0.64135 0.048,-0.122766 0.13088,-0.401812 -0.0187,-0.751768 -0.0787,-0.15381 -0.32667,-0.585965 -0.32667,-0.585965 0,0 0.18274,0.0056 0.20038,0.0053 0.0169,0 0.0512,-0.01799 0.007,-0.0695 -0.0445,-0.05115 -0.42757,-0.433213 -0.4505,-0.463904 -0.0233,-0.03104 -0.0445,-0.05292 -0.0572,-0.0078 m 2.42182,1.7526 c 0,0 -0.11006,0.06315 -0.41733,0.04233 -0.25753,-0.01728 -0.23566,-0.117475 -0.20038,-0.155927 0.0384,-0.04163 0.35419,-0.23989 0.61771,0.113593 m -3.31646,-1.424516 c -0.0536,0.06597 -0.58949,0.76976 -0.58949,0.76976 l -0.39017,-0.277987 c 0,0 0.1591,-0.03986 0.18697,-0.04798 0.0279,-0.0081 0.0437,-0.04409 -0.007,-0.06985 -0.0501,-0.02574 -0.52035,-0.212725 -0.55562,-0.227541 -0.036,-0.01482 -0.049,-0.03069 -0.0522,0.0074 -0.003,0.0381 -0.008,0.347488 -0.008,0.347488 0,0 -0.007,0.02151 0.0342,0.04515 0.0406,0.02328 0.0808,0.07338 0.11465,0.106539 0.0335,0.03352 0.47096,0.378884 0.49213,0.391232 0,0 -0.21908,0.384175 -0.2466,0.685093 -0.0279,0.300919 0.005,0.71614 0.41699,0.582084 0.11042,-0.03104 0.57115,-0.21449 0.67451,-0.535869 0.0335,-0.118181 0.1277,-0.332317 -0.0265,-0.548923 -0.0893,-0.127352 -0.44909,-0.342194 -0.44909,-0.342194 0,0 0.27623,-0.382058 0.30269,-0.428979 0.0265,-0.04657 0.12806,-0.3429 0.13899,-0.41416 0.0113,-0.07161 0.0169,-0.107598 -0.0363,-0.04127 m -0.0945,1.622425 c -0.15275,0.125589 -0.47413,0.291748 -0.56409,0.300566 -0.09,0.0088 -0.32949,-0.03528 -0.22542,-0.28081 0.0353,-0.07937 0.27516,-0.48895 0.27516,-0.48895 0.0893,0.04939 0.66746,0.343604 0.51435,0.469194 m -10.72338,-1.056217 c -0.15805,0.200377 -0.32103,0.78105 0.0684,0.837494 0.38876,0.05609 0.84666,-0.07161 0.99307,0.261056 0.0173,0.03986 0.0183,0.198967 -0.38912,0.498475 -0.12876,0.0949 -1.15852,0.917927 -2.03623,0.737306 -0.17956,-0.03669 -1.00083,-0.299862 -0.61736,-1.621366 0.0339,-0.116417 0.008,-0.209905 -0.0797,-0.05468 -0.0882,0.155575 -0.42792,1.246011 0.067,1.760009 1.03434,1.07456 2.82187,-0.565857 2.82187,-0.565857 0.0935,-0.09666 0.65475,-0.510116 0.23354,-1.435452 -0.43921,-0.9652 -0.93592,-0.576791 -1.06151,-0.416983 m 0.7493,0.507294 c -0.0201,-0.0113 -0.14394,-0.02963 -0.2607,-0.01693 -0.11642,0.0127 -0.17992,0.03634 -0.31468,-0.03351 -0.10513,-0.05468 -0.0554,-0.203906 0.0451,-0.233188 0.2854,-0.08184 0.53023,0.283634 0.53023,0.283634 m -1.65524,0.06033 c -0.0286,0.08855 -0.1531,0.395112 -0.10442,0.741891 0.0113,0.08008 0.0766,0.232834 0.19791,0.227896 0.0628,-0.0049 0.14041,-0.05645 0.18309,-0.257881 0.007,-0.04516 0.0102,-0.08149 0.0127,-0.09913 0.004,-0.02716 -0.0173,-0.0575 -0.0335,0.0053 -0.0367,0.12418 -0.14923,0.217313 -0.25083,0.06209 -0.0169,-0.03104 -0.0882,-0.17286 -0.002,-0.502002 0.0177,-0.06385 0.0388,-0.15875 0.0388,-0.15875 0.0194,-0.07197 -0.013,-0.10795 -0.042,-0.01939 m 2.96615,0.104423 c -0.0381,0.09983 -0.20179,0.445559 -0.15134,0.839259 0.0116,0.09102 0.0882,0.265289 0.23918,0.261408 0.078,-0.0046 0.17604,-0.06173 0.23495,-0.289632 0.01,-0.05115 0.0152,-0.09208 0.0194,-0.112183 0.006,-0.03104 -0.0205,-0.06491 -0.0423,0.0053 -0.049,0.140054 -0.19192,0.244123 -0.31362,0.06703 -0.0198,-0.03528 -0.10478,-0.197556 0.0123,-0.569031 0.024,-0.07232 0.0529,-0.179565 0.0529,-0.179565 0.0265,-0.08078 -0.0127,-0.122412 -0.0515,-0.02257 m 14.89392,0.94615 c -0.031,0.08608 -0.043,0.142875 -0.0399,0.175684 0.004,0.03316 0.0145,0.1397 0.0145,0.1397 -0.0321,0.0254 -0.16898,0.110773 -0.30515,0.01024 0.009,-0.02963 0.0268,-0.0889 0.0307,-0.121357 0.0148,-0.05045 -0.0162,-0.08819 -0.0416,-0.03598 -0.0247,0.05292 -0.0825,0.228248 -0.12559,0.267407 -0.043,0.03951 -0.0938,0.184853 -0.41981,0.03739 -0.0568,-0.02188 -0.15698,-0.09596 -0.31256,0.06068 -0.35242,0.32738 -0.59619,0.353131 -0.9913,0.49389 -0.0476,0.02188 -0.14852,0.09701 -0.0289,0.08502 0.11889,-0.01164 0.61983,2.65e-4 0.89253,-0.31256 0.0575,-0.05539 0.12241,-0.201435 0.33937,-0.116768 0.11994,0.04551 0.34149,0.236008 0.58349,-0.140055 0.14253,0.0949 0.35843,0.0568 0.39335,-0.04762 0.0346,-0.105127 0.0744,-0.208844 0.0737,-0.280104 -2.6e-4,-0.07126 -0.007,-0.164748 -0.007,-0.164748 -0.005,-0.05644 -0.0247,-0.136877 -0.0561,-0.0508 m -9.28017,0.714727 c -0.0205,0.03493 -0.0356,0.0635 -0.0441,0.07691 -0.0124,0.02082 -0.004,0.05257 0.0293,0.0071 0.072,-0.08926 0.19509,-0.127355 0.22578,0.03316 0.004,0.03104 0.0138,0.170744 -0.16722,0.410281 -0.0353,0.04586 -0.0847,0.116063 -0.0847,0.116063 -0.0399,0.05256 -0.0254,0.09278 0.0275,0.03034 0.0529,-0.06279 0.25788,-0.270933 0.33444,-0.570089 0.0173,-0.06879 0.0159,-0.2159 -0.0854,-0.252236 -0.0526,-0.01728 -0.13335,-0.0011 -0.23565,0.148519 m -6.26181,-0.112183 c -0.0773,0.03493 -1.39488,0.670631 -1.4739,0.709083 -0.0744,0.03563 -0.0942,0.05609 -0.10548,0.110067 -0.0109,0.05362 -0.0169,0.08467 -0.0198,0.09313 -0.0127,0.03634 -0.0215,0.06738 0.0811,0.01376 0.0335,-0.01799 1.37619,-0.657225 1.43898,-0.690385 0.0607,-0.03246 0.0921,-0.05186 0.11536,-0.10795 0.0233,-0.05539 0.0293,-0.06562 0.0416,-0.104423 0.013,-0.04092 0.0325,-0.07373 -0.078,-0.02328 m 1.90465,0.347487 c -0.0208,0.03493 -0.036,0.06315 -0.0441,0.0769 -0.0123,0.02045 -0.005,0.05257 0.0293,0.0067 0.0716,-0.0889 0.19508,-0.127 0.22577,0.03351 0.003,0.03105 0.0138,0.170747 -0.16721,0.40993 -0.036,0.04621 -0.0847,0.116768 -0.0847,0.116768 -0.0402,0.05221 -0.0257,0.09243 0.0275,0.02999 0.0529,-0.06244 0.25717,-0.270934 0.33408,-0.570087 0.0176,-0.06915 0.0159,-0.215549 -0.085,-0.252238 -0.0529,-0.01693 -0.13335,-0.0013 -0.23566,0.148521"
       style="fill:#231f20;fill-opacity:1;fill-rule:evenodd;stroke:none;stroke-width:0.264583"
       id="path1" />
  </g>
</svg>
