<?xml version="1.0" encoding="UTF-8" standalone="no"?>
<!-- Created with Inkscape (http://www.inkscape.org/) -->

<svg
   width="19.903257mm"
   height="6.3494735mm"
   viewBox="0 0 19.903257 6.3494735"
   version="1.1"
   id="svg1"
   xmlns="http://www.w3.org/2000/svg"
   xmlns:svg="http://www.w3.org/2000/svg">
  <defs
     id="defs1" />
  <g
     id="layer1"
     transform="translate(-177.40302,-27.666534)">
    <path
       d="m 189.56267,27.835825 c -0.0699,0.106185 -0.12241,0.362302 -0.0226,0.434975 0.10019,0.07373 0.24659,0.132996 0.24659,0.132996 -0.46566,0.570796 -0.78457,0.679804 -1.05727,0.839258 -0.0699,0.04092 -0.0561,0.07796 -0.0152,0.06703 0.0215,-0.0056 0.38805,-0.0628 0.81632,-0.388057 0.23107,-0.175331 0.37148,-0.475898 0.37148,-0.475898 0,0 0.11571,0.09666 0.13159,0.116065 0.0349,0.04374 0.0543,0.0762 0.0709,0.02998 0.0607,-0.168979 -0.025,-0.270933 -0.10759,-0.323144 0,0 0.0854,-0.263173 -0.0716,-0.527401 -0.0261,-0.04445 -0.18203,-0.185563 -0.36265,0.09419 m 0.24306,0.07232 c 0.10513,0.09772 0.0889,0.257881 0.0847,0.294923 0,0 -0.13335,-0.06315 -0.19332,-0.0889 -0.06,-0.0254 -0.0914,-0.0635 -0.0639,-0.1016 0.0924,-0.130175 0.13794,-0.125238 0.17251,-0.104423 m -1.73567,-0.205317 c -0.0159,0.03916 -0.13652,0.335844 -0.13652,0.335844 0.002,0.01765 0.0356,0.147108 0.0423,0.195791 0.0557,0.428625 0.40676,2.959807 0.5073,3.759907 0.0497,0.394052 0.0882,0.748593 0.0938,0.938741 -0.005,0.05891 0.0208,0.08079 0.048,0.02434 0.0148,-0.03069 0.0748,-0.155575 0.0935,-0.48401 0.0138,-0.246946 -0.006,-0.62583 -0.0765,-1.147233 -0.01,-0.0762 -0.37501,-2.720272 -0.37501,-2.720272 0,0 0.19685,0.185563 0.2286,0.218723 0.0317,0.03387 0.0702,0.01587 0.0522,-0.0381 -0.018,-0.05398 -0.42193,-1.03011 -0.43533,-1.064331 -0.013,-0.03387 -0.0257,-0.05856 -0.0423,-0.01939 m -1.02023,0.0035 c -0.0166,0.03881 -0.1464,0.324556 -0.1464,0.324556 0.004,0.02294 0.0339,0.09349 0.0554,0.237774 0.0208,0.14605 0.0512,0.353835 0.085,0.583141 0,0 0.44662,2.508954 0.46426,2.844446 0.0124,0.125941 0.0501,0.254706 -0.0328,0.305154 -0.10089,0.06844 -0.76165,0.37606 -0.95356,-0.277283 0.0303,-0.09596 0.0325,-0.295275 -0.0783,-0.141113 -0.11078,0.153458 -0.28505,0.686155 -1.11372,0.756005 -0.084,0.0085 -1.02623,0.08325 -0.71014,-0.92075 0.33549,-0.169334 0.61136,-0.310092 0.65651,-0.33373 0.11783,-0.06174 0.13935,-0.08784 0.13935,-0.08784 0.0314,-0.06985 0.0935,-0.263877 0.10372,-0.305503 0.0102,-0.04092 -0.0162,-0.03211 -0.037,-0.04481 -0.0205,-0.01341 -1.39453,-0.373944 -2.60421,-0.239535 -0.0963,0.01058 -0.30692,0.08819 -0.42016,0.420158 -0.0339,0.159457 -0.004,0.348544 0.0674,0.407458 0.0459,0.0381 0.36478,0.262115 0.63006,0.515057 -0.0229,0.01058 -0.0388,0.01765 -0.0462,0.02117 -0.10371,0.0448 -0.98778,0.430035 -1.41746,0.904168 -0.37218,0.412044 -0.82726,0.987073 -1.28235,0.935919 -0.12029,-0.01376 -0.65934,-0.178152 -0.0169,-1.551869 0.27905,-0.08467 0.61419,-0.0956 0.95673,0.116417 0,0 0.0208,-0.16369 0.0208,-0.243769 0,-0.07973 0.0589,-0.184504 -0.22649,-0.315031 -0.2861,-0.130175 -0.61771,-0.302332 -0.71896,-0.61736 -0.0586,-0.17639 -0.13299,-0.687565 -0.13299,-0.687565 0,0 0.1725,0.136173 0.19085,0.148518 0.0194,0.0127 0.0459,-0.0088 0.0233,-0.06068 -0.0233,-0.05221 -0.36653,-0.634293 -0.3817,-0.658283 -0.0152,-0.02434 -0.0381,-0.04586 -0.0522,-0.01024 -0.0138,0.03563 -0.0885,0.295275 -0.0885,0.295275 0,0 0.19579,1.233665 0.42686,1.596673 -0.1912,0.08184 -0.97296,0.488243 -1.40511,0.997656 -0.15417,0.182034 -0.82515,0.848784 -1.23931,0.676275 -0.11818,-0.04904 -0.49742,-0.421216 0.16827,-1.423813 0.061,-0.09243 0.0804,-0.122412 0.10372,-0.1651 0.0931,-0.01693 0.20249,-0.11571 0.2667,-0.44732 0.0109,-0.08008 0.0169,-0.144288 0.0215,-0.176038 0.007,-0.04763 -0.0268,-0.102658 -0.0522,0.0078 -0.0586,0.219427 -0.2346,0.379587 -0.38876,0.09913 -0.0258,-0.05539 -0.1337,-0.311502 0.005,-0.89182 0.0282,-0.113242 0.0624,-0.280459 0.0624,-0.280459 0.0314,-0.127354 -0.0187,-0.192616 -0.0646,-0.03704 -0.0455,0.155927 -0.24271,0.695325 -0.17286,1.313743 0.0127,0.113242 0.0776,0.308682 0.1972,0.384175 -0.22331,0.323498 -1.06151,1.720498 0.0681,1.948744 0.17885,0.03634 0.56444,-0.0314 1.02905,-0.541867 0.23989,-0.263877 0.53763,-0.541867 0.73519,-0.680508 0.0794,-0.05574 0.23848,-0.176035 0.44626,-0.270579 -0.003,0.0078 -0.007,0.01588 -0.0109,0.024 -0.15839,0.36195 -0.63923,1.653823 0.36407,1.775531 0.19579,0.024 0.57221,-0.07408 1.01353,-0.638527 0.16122,-0.205671 0.70591,-0.851254 1.69757,-1.209675 0.0282,-0.0113 0.079,-0.03422 0.1464,-0.06597 0.0356,0.04868 0.0653,0.09596 0.0861,0.141817 0.0177,0.05292 0.0709,0.02082 0.0818,-0.05327 0.004,-0.02752 0.006,-0.08537 -0.01,-0.16369 0.25435,-0.12347 0.61595,-0.303741 0.94263,-0.468487 -0.0635,0.221896 -0.27164,1.013884 0.38276,1.231194 0.10336,0.02822 1.08056,0.199318 1.49225,-0.60466 0.0646,0.137228 0.20179,0.487185 0.73131,0.422978 0.10054,-0.02011 0.57396,-0.03104 0.59901,-0.742243 0.003,-0.307975 -0.10336,-0.957792 -0.12876,-1.139825 l -0.37359,-2.145594 c 0,0 0.19755,0.185209 0.22895,0.218721 0.0318,0.03387 0.0702,0.01588 0.0522,-0.0381 -0.0183,-0.05397 -0.381,-0.920396 -0.39405,-0.954617 -0.013,-0.03351 -0.0257,-0.05821 -0.042,-0.01905 m -2.19816,3.23568 c -0.0963,0.04974 -0.9525,0.4572 -1.42981,0.682625 -0.0452,-0.06844 -0.10336,-0.140055 -0.17886,-0.212725 -0.067,-0.06491 -0.55703,-0.447323 -0.57749,-0.463905 -0.0208,-0.01659 -0.0501,-0.04763 0.0183,-0.07867 0.0684,-0.03104 0.79481,-0.244475 2.16782,0.07267 m 11.23315,-3.010959 c -0.0702,0.106537 -0.12241,0.363009 -0.0222,0.435679 0.10019,0.07338 0.24624,0.132646 0.24624,0.132646 -0.46602,0.570794 -1.38042,0.976842 -1.59773,1.146527 -0.0653,0.04939 -0.0568,0.07832 -0.0155,0.06703 0.0363,-0.0095 0.73343,-0.204962 1.37019,-0.750358 0.2921,-0.250119 0.28399,-0.268817 0.35843,-0.420862 0.0635,0.03245 0.10689,0.08537 0.13158,0.116062 0.0353,0.04375 0.054,0.0762 0.0709,0.02999 0.061,-0.168982 -0.0251,-0.270582 -0.1076,-0.323498 0,0 0.0857,-0.263174 -0.0716,-0.52705 -0.0265,-0.04445 -0.18168,-0.185561 -0.36266,0.09384 m 0.24342,0.07267 c 0.10478,0.09772 0.0889,0.257881 0.085,0.294571 0,0 -0.13405,-0.0628 -0.19438,-0.08855 -0.0596,-0.02574 -0.0914,-0.0635 -0.0635,-0.1016 0.0924,-0.129823 0.13794,-0.125235 0.17286,-0.104423 m -1.78823,-0.165452 c -0.18344,0.232833 -0.19509,0.538692 -0.21943,0.879827 -0.0257,-0.07126 -0.1718,-0.528812 -0.63923,-0.790927 -0.0342,-0.01905 -0.10301,0.01728 -0.10972,0.124531 -0.004,0.06315 -0.0219,0.215546 0.0222,0.258937 0.0445,0.04269 0.17533,0.128059 0.19685,0.139349 0.0222,0.01236 0.0455,0.0141 0.0522,-0.01199 0.006,-0.02611 0.0363,-0.08678 0.0787,-0.04339 0.036,0.03633 0.26599,0.226484 0.38594,0.630412 0.0208,0.05362 0.0699,0.05891 0.0815,-0.01728 0.0279,-0.186618 0.0427,-0.511175 0.0575,-0.6096 0.0208,-0.13829 0.0871,-0.423333 0.26212,-0.275167 0.0399,0.03351 0.0818,0.07796 0.0818,0.07796 0.0374,0.04692 0.0836,0.100542 0.10654,0.04657 0.0346,-0.08185 0.0624,-0.217313 0.0243,-0.289983 -0.0169,-0.03246 -0.23354,-0.307624 -0.38135,-0.11924 m -1.80058,-0.01093 c -0.0677,0.03986 -1.78752,1.032227 -1.85737,1.077384 -0.0695,0.04445 -0.0945,0.05644 -0.10548,0.110066 -0.0109,0.05362 -0.0169,0.08502 -0.0198,0.09349 -0.0127,0.03598 -0.0215,0.08043 0.0811,0.01341 0.0321,-0.02117 1.76177,-1.020588 1.82245,-1.058333 0.0582,-0.03634 0.0921,-0.05186 0.11536,-0.107598 0.0233,-0.05609 0.0289,-0.06562 0.0413,-0.104775 0.0134,-0.04092 0.0272,-0.08502 -0.0776,-0.02363 m -11.24267,0.1016 c -0.12383,0.221544 -0.0967,0.487186 -0.0762,0.784577 -0.03,-0.05856 -0.20532,-0.437443 -0.62336,-0.610306 -0.03,-0.0127 -0.0829,0.02646 -0.0755,0.119946 0.004,0.05503 0.008,0.188735 0.0494,0.220837 0.0416,0.0321 0.15981,0.09066 0.17921,0.09842 0.0194,0.0081 0.0395,0.0071 0.0416,-0.01693 0.002,-0.02294 0.0194,-0.07867 0.06,-0.04586 0.0335,0.02681 0.24695,0.165451 0.39406,0.500591 0.0233,0.0441 0.0653,0.04268 0.0656,-0.024 2.7e-4,-0.164394 -0.0257,-0.446617 -0.0251,-0.5334 7.9e-4,-0.121354 0.0215,-0.375002 0.18415,-0.267052 0.0367,0.02434 0.0769,0.05821 0.0769,0.05821 0.0363,0.03634 0.0815,0.07691 0.0935,0.02787 0.019,-0.07444 0.0257,-0.194734 -0.0145,-0.253294 -0.0176,-0.02646 -0.22966,-0.238831 -0.32985,-0.05962 m 4.96076,0.06209 c -0.0818,0.0381 -2.97321,1.446389 -3.05752,1.487664 -0.084,0.04092 -0.10937,0.05821 -0.12489,0.118182 -0.0148,0.05997 -0.0226,0.09172 -0.0268,0.10442 -0.0134,0.04057 -0.0321,0.08185 0.0907,0.01905 0.0381,-0.01976 2.95099,-1.42875 3.01766,-1.468612 0.0663,-0.03916 0.10584,-0.05327 0.13512,-0.115006 0.0293,-0.06138 0.036,-0.07197 0.0522,-0.115007 0.0169,-0.04551 0.0378,-0.08749 -0.0864,-0.03069 m -3.74615,0.177448 c -0.11571,0.126293 -0.15134,0.212725 -0.18591,0.267052 -0.0476,0.07444 0.0123,0.107598 0.066,0.04974 0.0536,-0.05821 0.0914,-0.116062 0.24835,-0.111829 0.15699,0.0039 0.5334,-0.01024 0.39264,0.09278 -0.1404,0.103717 -0.23565,0.16369 -0.23565,0.16369 -0.091,0.06562 -0.17145,0.188031 -0.0102,0.119944 0.16122,-0.06844 0.3743,-0.176036 0.53763,-0.421921 0.0476,-0.07162 0.10337,-0.167217 -0.11782,-0.200379 -0.22119,-0.03316 -0.57891,-0.08502 -0.69498,0.04092 m -2.81128,0.0064 c -0.0353,0.08713 -0.18415,0.386998 -0.16157,0.740127 0.005,0.08185 0.0596,0.240948 0.18274,0.245533 0.0631,-2.65e-4 0.14569,-0.04657 0.2039,-0.246592 0.0102,-0.04515 0.0166,-0.08114 0.0205,-0.09913 0.006,-0.02716 -0.0138,-0.05891 -0.0339,0.0024 -0.0469,0.122766 -0.16758,0.208491 -0.25824,0.0441 -0.0148,-0.03246 -0.0759,-0.180975 0.0363,-0.50659 0.0226,-0.06279 0.0512,-0.156985 0.0512,-0.156985 0.0251,-0.07126 -0.005,-0.110067 -0.0409,-0.02294 m -1.19133,0.02612 c -0.12383,0.221895 -0.097,0.487537 -0.0769,0.784577 -0.0296,-0.05856 -0.20496,-0.437092 -0.623,-0.610307 -0.03,-0.0127 -0.0829,0.02646 -0.0755,0.119946 0.004,0.05503 0.008,0.188736 0.0494,0.220838 0.0416,0.0321 0.15981,0.09066 0.17921,0.09842 0.0198,0.0081 0.0395,0.0071 0.0416,-0.01659 0.002,-0.02328 0.0198,-0.07902 0.06,-0.04622 0.0339,0.02717 0.24695,0.165452 0.39406,0.500944 0.0233,0.04375 0.0653,0.04233 0.0656,-0.02434 8e-4,-0.164393 -0.0257,-0.446616 -0.025,-0.533045 7.9e-4,-0.121708 0.0215,-0.375357 0.18379,-0.267407 0.0371,0.02469 0.0773,0.05821 0.0773,0.05821 0.0363,0.03634 0.0815,0.07691 0.0938,0.02787 0.0183,-0.07444 0.0254,-0.194733 -0.0145,-0.253293 -0.018,-0.02646 -0.23002,-0.238832 -0.32985,-0.05962 m 7.46337,0.648759 c -0.0226,0.07091 -0.0395,0.125941 -0.009,0.207078 0.031,0.08149 0.1143,0.265996 0.12805,0.2921 0.0138,0.02612 0.0173,0.05609 -0.0286,0.0755 -0.0459,0.01976 -0.25506,0.0642 -0.29422,-0.159104 -0.0388,-0.222954 -0.0423,-0.288571 -0.0617,-0.326319 -0.0194,-0.03775 -0.0378,-0.04233 -0.0529,-0.0046 -0.0145,0.03739 -0.0236,0.11571 -0.0261,0.12841 -0.002,0.01236 -0.002,0.02151 0.006,0.03528 0.008,0.01376 0.0917,0.263173 0.054,0.332317 -0.0378,0.06844 -0.22543,0.191913 -0.32385,0.0628 -0.0473,-0.09067 -0.0187,-0.319617 -0.0187,-0.37324 0,-0.05398 -0.0169,-0.07232 -0.0399,-0.02858 -0.0229,0.04339 -0.0356,0.07197 -0.0346,0.111125 0.001,0.03881 0.007,0.206023 0.004,0.258586 -0.004,0.05292 0,0.223308 0.1009,0.271639 0.10054,0.04763 0.2473,0.0028 0.35842,-0.206375 0.0857,0.124532 0.21625,0.124884 0.2861,0.09948 0.0596,-0.02151 0.12594,-0.110773 0.14535,-0.234598 0.0194,-0.123471 -0.0127,-0.208138 -0.0515,-0.278342 -0.0515,-0.08573 -0.0857,-0.23001 -0.0857,-0.23001 -0.0183,-0.05186 -0.0321,-0.104069 -0.0554,-0.03316 m 6.89786,0.332317 c -0.0346,0.08431 -0.17885,0.375002 -0.15663,0.71755 0.005,0.07902 0.0575,0.233185 0.17639,0.237067 0.0621,0 0.14147,-0.04481 0.19791,-0.238125 0.01,-0.0441 0.0162,-0.07902 0.0201,-0.09631 0.006,-0.02611 -0.0131,-0.05715 -0.0335,0.0028 -0.0448,0.118888 -0.16192,0.20179 -0.24976,0.04233 -0.0141,-0.0314 -0.0734,-0.175684 0.0353,-0.490712 0.0219,-0.06138 0.0494,-0.152048 0.0494,-0.152048 0.0247,-0.06914 -0.005,-0.106892 -0.0392,-0.02257 m -11.56828,0.18556 c -0.0363,0.128765 -0.19438,0.573265 -0.13723,1.083733 0.013,0.118182 0.0921,0.344665 0.24377,0.342194 0.078,-0.0046 0.17497,-0.0769 0.23001,-0.370769 0.009,-0.06597 0.0138,-0.118885 0.0176,-0.144991 0.006,-0.03951 -0.0215,-0.08467 -0.042,0.0063 -0.0469,0.180975 -0.18838,0.312914 -0.31326,0.08149 -0.0201,-0.04586 -0.1076,-0.257527 0.003,-0.736248 0.0226,-0.09278 0.0501,-0.23142 0.0501,-0.23142 0.0251,-0.104423 -0.0152,-0.15875 -0.0522,-0.03034 m 14.87558,-0.01236 c -0.0321,0.07832 -0.1658,0.347133 -0.14534,0.664281 0.005,0.07303 0.0533,0.2159 0.16404,0.219782 0.0568,-2.65e-4 0.13088,-0.04127 0.18274,-0.22084 0.01,-0.04057 0.0148,-0.07303 0.0187,-0.0889 0.006,-0.02434 -0.012,-0.05292 -0.0307,0.0024 -0.0416,0.110067 -0.15029,0.186621 -0.23142,0.03951 -0.013,-0.02928 -0.0681,-0.162983 0.0324,-0.45438 0.0201,-0.0568 0.0462,-0.14111 0.0462,-0.14111 0.0226,-0.06385 -0.005,-0.09842 -0.0367,-0.02082 m -6.20641,0.0085 -0.16828,0.230717 -0.32314,-0.235302 c -0.008,-0.0064 -0.0198,-0.0039 -0.0257,0.0046 l -0.19473,0.267407 c -0.007,0.0085 -0.005,0.02011 0.003,0.02611 l 0.33268,0.24271 c 0.008,0.006 0.0198,0.0039 0.0257,-0.0049 l 0.16863,-0.230717 0.32279,0.235656 c 0.008,0.006 0.0194,0.0039 0.0257,-0.0049 l 0.19509,-0.267052 c 0.006,-0.0088 0.005,-0.02045 -0.003,-0.02646 l -0.33302,-0.242358 c -0.008,-0.0063 -0.0198,-0.0039 -0.0257,0.0046 m -3.63785,0.809274 -0.16827,0.230716 -0.32315,-0.235302 c -0.008,-0.006 -0.0194,-0.0035 -0.0257,0.0046 l -0.19509,0.267406 c -0.006,0.0088 -0.005,0.02045 0.004,0.02611 l 0.33267,0.242713 c 0.008,0.006 0.0198,0.0039 0.0261,-0.0046 l 0.16793,-0.231069 0.32279,0.235657 c 0.008,0.006 0.0201,0.0039 0.0261,-0.0046 l 0.19509,-0.267404 c 0.006,-0.0088 0.005,-0.02011 -0.004,-0.02612 l -0.33267,-0.24271 c -0.008,-0.006 -0.0198,-0.0035 -0.0257,0.0046 m -5.51321,2.277182 -0.16863,0.230717 -0.32279,-0.236009 c -0.008,-0.0053 -0.0198,-0.0035 -0.0257,0.0053 l -0.19544,0.267404 c -0.006,0.0081 -0.004,0.02011 0.004,0.02574 l 0.33302,0.24271 c 0.008,0.006 0.0194,0.0039 0.0257,-0.0046 l 0.16792,-0.231072 0.32314,0.235657 c 0.008,0.006 0.0198,0.0039 0.0261,-0.0046 l 0.19473,-0.267758 c 0.006,-0.0081 0.005,-0.01976 -0.003,-0.02574 l -0.33337,-0.243062 c -0.008,-0.0053 -0.019,-0.0035 -0.0254,0.0053 m 10.45421,-2.67053 c -0.013,0.04516 -0.0455,0.23989 -0.0536,0.279755 -0.008,0.04022 -0.007,0.08008 0.0127,0.1143 0.0198,0.03422 0.0705,0.152752 0.10689,0.24906 0.0367,0.09631 0.41451,0.82409 0.44944,0.888648 0.0346,0.0642 0.042,0.112535 0.007,0.155575 -1.2125,1.279525 -3.55282,2.066219 -3.62761,2.109962 -0.0748,0.04304 -0.055,0.07691 0.0705,0.05468 0.18839,-0.03281 1.23966,-0.208492 1.53953,-0.353132 0.19791,-0.0956 0.88794,-0.433916 1.45273,-0.8763 -0.0159,0.113948 -0.0303,0.282223 -0.0226,0.494948 0.0385,1.029052 0.95814,0.858661 1.19979,0.805392 0.72355,-0.15875 1.60867,-1.159227 1.68381,-1.359606 0.0741,-0.198613 0.085,-0.379942 0.0684,-0.537986 0.19015,-0.10301 0.59972,-0.43321 0.59972,-0.43321 0.0169,0.438854 0.36619,0.570442 0.47343,0.589844 0.50341,0.0762 0.756,-0.344665 0.8636,-0.48119 0.091,0.240596 0.31186,0.287515 0.42545,0.30974 0.43427,0.08678 0.51894,-0.22084 0.54151,-0.291042 0.13618,-0.423333 -0.10936,-0.739069 -0.14111,-0.774348 -0.0314,-0.03493 -0.0473,-0.0013 -0.0586,0.03916 -0.0113,0.04092 -0.0462,0.193675 -0.0681,0.288925 0,0 0.0907,0.148167 0.12311,0.223309 0.0321,0.0755 -0.0155,0.116771 -0.10936,0.128058 -0.26423,0.03246 -0.47519,-0.118885 -0.54786,-0.188735 -0.0727,-0.06985 0.006,-0.194027 0.0649,-0.341136 0.0469,-0.118181 -0.0399,-0.132646 -0.10724,-2.64e-4 -0.22402,0.588788 -0.53799,0.652288 -0.62125,0.674865 -0.74612,0.2032 -0.68156,-0.478719 -0.67909,-0.59055 0.002,-0.111832 -0.079,-0.07056 -0.1711,0.0035 -0.31327,0.251531 -0.56656,0.40005 -0.70273,0.460375 -0.11713,-0.2286 -0.28716,-0.372179 -0.35878,-0.424392 -0.80786,-0.588785 -0.87418,0.599017 -0.84984,0.726723 0.12312,0.505177 0.94792,0.198615 1.07703,0.183444 0.12947,-0.01516 0.0871,0.155929 0.0148,0.256823 -0.17921,0.250473 -0.38594,0.430035 -0.57291,0.582789 -0.79975,0.652286 -1.20121,0.601134 -1.32468,0.596546 -0.78493,-0.02188 -0.71297,-0.868537 -0.66958,-1.04916 0.23636,-0.200377 0.43921,-0.418042 0.55739,-0.641702 0.048,-0.122767 0.13053,-0.401463 -0.0187,-0.751417 -0.079,-0.154165 -0.32668,-0.586317 -0.32668,-0.586317 0,0 0.18274,0.0056 0.20038,0.0053 0.0169,-2.64e-4 0.0515,-0.01834 0.007,-0.0695 -0.0441,-0.05115 -0.42757,-0.43321 -0.4505,-0.463902 -0.0229,-0.03069 -0.0441,-0.05292 -0.0572,-0.0078 m 2.42252,1.752954 c 0,0 -0.11041,0.06279 -0.41768,0.04198 -0.25753,-0.01693 -0.23566,-0.117475 -0.20038,-0.155927 0.0385,-0.04127 0.35419,-0.240241 0.61806,0.113948 m -14.7228,-1.299929 c -0.0356,0.08361 -0.18309,0.373239 -0.16087,0.714375 0.005,0.07867 0.0589,0.232129 0.18098,0.236363 0.0635,-2.65e-4 0.14464,-0.04481 0.20249,-0.237422 0.0102,-0.04374 0.0166,-0.07902 0.0208,-0.0956 0.006,-0.02646 -0.0134,-0.05715 -0.0342,0.0024 -0.0462,0.118181 -0.16581,0.200731 -0.25577,0.04233 -0.0145,-0.03139 -0.0751,-0.175329 0.036,-0.48895 0.0226,-0.06103 0.0508,-0.151342 0.0508,-0.151342 0.025,-0.06879 -0.005,-0.106185 -0.0402,-0.02223 m 11.40601,-0.124883 c -0.0536,0.06597 -0.58949,0.769763 -0.58949,0.769763 l -0.39017,-0.27799 c 0,0 0.15875,-0.03987 0.18662,-0.04798 0.0279,-0.0081 0.0437,-0.0441 -0.006,-0.06985 -0.0501,-0.02574 -0.52035,-0.213079 -0.55598,-0.227541 -0.0356,-0.01447 -0.049,-0.03069 -0.0519,0.0074 -0.003,0.0381 -0.008,0.347485 -0.008,0.347485 0,0 -0.007,0.02188 0.0339,0.04516 0.0413,0.02328 0.0811,0.07303 0.115,0.106891 0.0332,0.03351 0.47096,0.378529 0.49213,0.390877 0,0 -0.21908,0.384175 -0.24659,0.685094 -0.0279,0.301273 0.005,0.716139 0.41698,0.582438 0.11042,-0.03175 0.57115,-0.214842 0.67416,-0.536224 0.0339,-0.118181 0.12806,-0.331964 -0.0261,-0.548923 -0.0893,-0.127352 -0.44909,-0.342545 -0.44909,-0.342545 0,0 0.27622,-0.381707 0.30268,-0.428625 0.0265,-0.04657 0.12806,-0.3429 0.139,-0.414515 0.0113,-0.07162 0.0169,-0.107243 -0.0363,-0.04092 m -0.0942,1.62278 c -0.15311,0.125587 -0.47449,0.291745 -0.56445,0.300566 -0.0903,0.0085 -0.32949,-0.03563 -0.22542,-0.280813 0.0353,-0.07937 0.27517,-0.48895 0.27517,-0.48895 0.0892,0.04904 0.66745,0.343255 0.5147,0.469197 m -2.42711,0.510468 c -0.0303,0.07444 -0.15805,0.332317 -0.13864,0.63641 0.005,0.07021 0.0512,0.207082 0.15663,0.210609 0.0547,0 0.12523,-0.03951 0.17568,-0.211312 0.008,-0.03916 0.0141,-0.0702 0.018,-0.08537 0.005,-0.02328 -0.012,-0.0508 -0.0296,0.0021 -0.0402,0.105482 -0.14393,0.17921 -0.2219,0.0381 -0.0127,-0.02822 -0.0653,-0.156281 0.031,-0.436033 0.0194,-0.05398 0.0441,-0.13476 0.0441,-0.13476 0.0215,-0.06138 -0.004,-0.09455 -0.0353,-0.01976 m 8.65752,0.05151 c -0.0314,0.08608 -0.043,0.142875 -0.0399,0.175683 0.004,0.03281 0.0145,0.139345 0.0145,0.139345 -0.0321,0.02574 -0.16898,0.111125 -0.30516,0.01024 0.008,-0.02928 0.0268,-0.08855 0.0307,-0.121357 0.0148,-0.05044 -0.0162,-0.08784 -0.0416,-0.03563 -0.0247,0.05221 -0.0829,0.228245 -0.12559,0.267403 -0.043,0.03951 -0.0938,0.184857 -0.42016,0.03704 -0.0564,-0.02188 -0.15663,-0.09631 -0.31186,0.06103 -0.35277,0.327377 -0.59654,0.353132 -0.99165,0.493184 -0.048,0.02257 -0.14852,0.09772 -0.0293,0.08572 0.11959,-0.01199 0.62018,2.64e-4 0.89288,-0.312915 0.0572,-0.05539 0.12241,-0.201435 0.33902,-0.116769 0.12029,0.04551 0.34184,0.235657 0.58384,-0.140051 0.14253,0.09525 0.35843,0.0568 0.39335,-0.04762 0.0346,-0.104775 0.0741,-0.208847 0.0737,-0.279755 -2.6e-4,-0.07126 -0.007,-0.1651 -0.007,-0.1651 -0.005,-0.05644 -0.0247,-0.136525 -0.0561,-0.05044 m -10.21715,0.238476 c -0.0307,0.07479 -0.15875,0.332669 -0.139,0.636765 0.004,0.0702 0.0508,0.206727 0.15664,0.210609 0.0547,0 0.12523,-0.03986 0.17568,-0.211315 0.008,-0.03916 0.0141,-0.0702 0.0177,-0.08573 0.005,-0.02328 -0.0116,-0.0508 -0.0293,0.0024 -0.0399,0.105481 -0.14394,0.178858 -0.22225,0.03775 -0.0124,-0.02787 -0.0649,-0.155575 0.0314,-0.435681 0.0194,-0.05397 0.0441,-0.134761 0.0441,-0.134761 0.0215,-0.06138 -0.004,-0.09454 -0.0349,-0.02011 m -2.8254,0.202848 c -0.0145,0.02998 -0.073,0.130879 -0.0811,0.152046 -0.008,0.02117 2.6e-4,0.0448 0.0152,0.02822 0.0148,-0.01659 0.01,-0.101952 0.27799,-0.09807 0.0385,-7.94e-4 0.0522,0.01058 0.0363,0.03069 -0.0159,0.01976 -0.25612,0.227542 -0.3175,0.503767 -0.0759,0.401815 0.31115,0.32879 0.39122,0.296333 0.0483,-0.01939 0.29458,-0.130878 0.48684,-0.420862 0.0272,-0.04163 0.0413,-0.102658 -0.0159,-0.04269 -0.0564,0.06068 -0.31221,0.29845 -0.58526,0.310447 -0.21166,-0.01447 -0.24271,-0.193675 -0.18767,-0.280459 0.0547,-0.08643 0.26282,-0.291041 0.29986,-0.343958 0.0363,-0.05292 0.0677,-0.132646 0.0677,-0.132646 0.0194,-0.0575 0.0289,-0.09525 -0.031,-0.09842 -0.06,-0.0028 -0.26847,-0.04127 -0.35666,0.0956 m -0.5902,0.292804 c -0.0699,0.03528 -1.07103,0.44168 -1.14335,0.482248 -0.072,0.04057 -0.0974,0.05045 -0.11218,0.103365 -0.0145,0.05292 -0.0222,0.08361 -0.0254,0.09208 -0.0148,0.03492 -0.0265,0.07902 0.0797,0.01834 0.0335,-0.01905 1.04775,-0.431449 1.10737,-0.465667 0.0596,-0.03422 0.0949,-0.04586 0.12171,-0.10019 0.0268,-0.05433 0.0332,-0.0635 0.048,-0.1016 0.0159,-0.04022 0.0321,-0.08325 -0.0759,-0.02858 m -3.39937,0.392642 c -0.0744,0.024 -0.91827,0.326321 -1.00082,0.359129 -0.0769,0.03069 -0.0977,0.05045 -0.11219,0.103362 -0.0145,0.05292 -0.0222,0.08396 -0.0257,0.09208 -0.0148,0.03528 -0.0332,0.06491 0.0801,0.01834 0.055,-0.02257 0.88653,-0.308681 0.96449,-0.342548 0.0631,-0.02752 0.0952,-0.04621 0.12171,-0.10019 0.0268,-0.05433 0.0335,-0.06385 0.0483,-0.1016 0.0159,-0.04022 0.0346,-0.06491 -0.0759,-0.02858"
       style="fill:#231f20;fill-opacity:1;fill-rule:evenodd;stroke:none;stroke-width:0.264583"
       id="path1" />
  </g>
</svg>
