<?xml version="1.0" encoding="UTF-8" standalone="no"?>
<!-- Created with Inkscape (http://www.inkscape.org/) -->

<svg
   width="16.872mm"
   height="6.8864441mm"
   viewBox="0 0 16.872 6.8864441"
   version="1.1"
   id="svg1"
   xmlns="http://www.w3.org/2000/svg"
   xmlns:svg="http://www.w3.org/2000/svg">
  <defs
     id="defs1" />
  <g
     id="layer1"
     transform="translate(-182.09389,-27.179189)">
    <path
       d="m 185.95093,27.248662 c -0.0998,0.109008 -0.13052,0.183443 -0.16051,0.230362 -0.0409,0.06421 0.0109,0.09278 0.0571,0.04269 0.0462,-0.0501 0.0787,-0.09984 0.21414,-0.09631 0.13582,0.0035 0.46072,-0.0088 0.33937,0.08043 -0.12136,0.0889 -0.20355,0.140758 -0.20355,0.140758 -0.0787,0.05644 -0.14852,0.162277 -0.009,0.103362 0.13935,-0.05891 0.32315,-0.151693 0.46391,-0.364066 0.0413,-0.06174 0.0896,-0.144285 -0.1016,-0.17286 -0.19086,-0.02858 -0.49953,-0.07338 -0.59972,0.03563 m 5.2705,0.64276 c -0.0699,0.10654 -0.12207,0.362657 -0.0222,0.435682 0.10019,0.07338 0.24659,0.132643 0.24659,0.132643 -0.46602,0.570794 -0.78458,0.679802 -1.05657,0.839258 -0.0705,0.04092 -0.0564,0.07796 -0.0152,0.06703 0.0212,-0.006 0.38735,-0.06279 0.81527,-0.388053 0.23142,-0.175684 0.37183,-0.47625 0.37183,-0.47625 0,0 0.11571,0.09701 0.13158,0.116416 0.0349,0.04339 0.054,0.07585 0.0709,0.02963 0.0607,-0.16863 -0.0254,-0.270582 -0.1076,-0.323147 0,0 0.0854,-0.26317 -0.0713,-0.52705 -0.0268,-0.04445 -0.18238,-0.185912 -0.36336,0.09384 m 0.24377,0.07267 c 0.10478,0.09772 0.0889,0.257879 0.0847,0.294569 0,0 -0.1337,-0.06279 -0.19403,-0.0889 -0.0596,-0.0254 -0.0914,-0.06315 -0.0635,-0.1016 0.0924,-0.129469 0.13759,-0.125235 0.17286,-0.104069 m 6.27874,0.02294 c -0.0702,0.106539 -0.12206,0.362656 -0.0219,0.435681 0.0998,0.07338 0.24624,0.132644 0.24624,0.132644 -0.46602,0.570796 -1.38077,0.976841 -1.59808,1.146529 -0.0653,0.04903 -0.0564,0.07796 -0.0155,0.06703 0.0367,-0.0099 0.73342,-0.20461 1.37019,-0.750358 0.29245,-0.250473 0.28433,-0.269169 0.35877,-0.420865 0.0632,0.03246 0.10654,0.08537 0.13123,0.116065 0.0353,0.04339 0.0543,0.07585 0.0713,0.02963 0.0607,-0.168627 -0.0254,-0.270581 -0.10759,-0.323143 0,0 0.0854,-0.263174 -0.0716,-0.52705 -0.0265,-0.04445 -0.18203,-0.185915 -0.363,0.09384 m 0.24378,0.07266 c 0.10442,0.09772 0.0889,0.257882 0.0847,0.294569 0,0 -0.13406,-0.06279 -0.19403,-0.08855 -0.06,-0.02574 -0.0914,-0.0635 -0.0639,-0.1016 0.0928,-0.129823 0.13793,-0.12559 0.17321,-0.104423 m -1.78858,-0.165452 c -0.18309,0.232479 -0.19474,0.538692 -0.21943,0.879827 -0.0257,-0.07126 -0.1718,-0.528815 -0.63923,-0.790927 -0.0342,-0.01905 -0.10302,0.01693 -0.10937,0.124884 -0.004,0.06279 -0.0219,0.214841 0.0226,0.258233 0.0441,0.04339 0.17463,0.128058 0.1965,0.1397 0.0219,0.01236 0.0455,0.0141 0.0519,-0.01236 0.007,-0.02574 0.0367,-0.08678 0.079,-0.04304 0.0356,0.03598 0.26564,0.226483 0.38559,0.630415 0.0208,0.05362 0.0702,0.05856 0.0818,-0.01728 0.0275,-0.186974 0.0427,-0.51153 0.0571,-0.6096 0.0208,-0.13829 0.0871,-0.423334 0.26211,-0.275167 0.0399,0.03351 0.0819,0.07796 0.0819,0.07796 0.0374,0.04657 0.084,0.10019 0.10689,0.04622 0.0342,-0.08149 0.0621,-0.216959 0.0243,-0.289984 -0.0169,-0.03246 -0.23354,-0.307268 -0.3817,-0.118885 m -1.80058,-0.01093 c -0.0674,0.03951 -1.78753,1.032229 -1.85702,1.077383 -0.0702,0.04445 -0.0945,0.05609 -0.10584,0.110067 -0.0113,0.05327 -0.0169,0.08467 -0.0198,0.09349 -0.0127,0.03563 -0.0215,0.08008 0.0811,0.01304 0.0321,-0.02082 1.76212,-1.020585 1.82245,-1.058334 0.0586,-0.03634 0.0921,-0.05186 0.11536,-0.107598 0.0233,-0.05574 0.0293,-0.06526 0.0413,-0.10442 0.0138,-0.04127 0.0272,-0.08502 -0.0776,-0.02363 m -8.1347,0.07232 c -0.0279,0.08431 -0.0392,0.269168 -0.0529,0.353129 -0.0141,0.08361 -0.0141,0.176389 0.006,0.296687 0.0194,0.120296 0.49706,3.119613 0.51788,3.342217 0.0212,0.222602 0.0628,0.592667 -0.008,0.651227 -0.0713,0.05891 -0.55492,0.306565 -0.85689,0.0254 -0.0716,-0.06738 -0.20179,-0.331965 -0.32774,-1.142648 -0.0504,-0.31115 -0.36124,-2.571044 -0.40322,-2.831394 -0.042,-0.260702 -0.14429,-0.590198 -0.1651,-0.639233 -0.0208,-0.04868 -0.049,-0.05821 -0.0632,-0.0046 -0.0141,0.05362 -0.10583,0.216252 -0.0459,0.624416 0.06,0.408517 0.37465,2.371725 0.3997,2.590094 0.0254,0.218723 0.12665,0.74789 -0.0251,0.903465 -0.11183,0.115003 -0.84807,0.722487 -1.75154,0.848428 -0.27728,0.03352 -1.62666,0.08996 -1.0167,-1.53317 0.008,-0.02117 0.0134,-0.04551 0.0159,-0.06809 0.0956,-0.01024 0.21131,-0.102658 0.2787,-0.448733 0.0106,-0.08043 0.0169,-0.144285 0.0215,-0.176035 0.007,-0.04798 -0.0268,-0.102307 -0.0522,0.0078 -0.0589,0.219075 -0.2346,0.379942 -0.38876,0.09948 -0.0258,-0.05574 -0.13371,-0.311854 0.005,-0.892527 0.0282,-0.112535 0.0625,-0.280458 0.0625,-0.280458 0.0314,-0.127 -0.019,-0.192617 -0.0646,-0.03669 -0.0455,0.155575 -0.24271,0.694973 -0.17286,1.313746 0.0141,0.127704 0.0949,0.360538 0.24624,0.406046 -0.007,0.01164 -0.0145,0.0254 -0.0226,0.04163 -0.0967,0.193675 -0.72602,1.281994 0.16369,1.789642 0.2353,0.134054 0.71861,0.327729 1.78541,-0.104775 0.24024,-0.09772 0.95355,-0.449792 1.06256,-0.907698 0,0 0.13864,0.651227 0.40358,0.882298 0.22825,0.199319 0.80892,0.220837 1.01635,-0.151342 0.0653,-0.116416 0.10936,-0.281516 0.11325,-0.563033 0,0 0.35806,0.551392 0.99165,0.496004 0.23142,-0.02045 0.58808,-0.148871 0.99942,-0.362654 0.0268,-0.0141 0.0617,-0.03352 0.10231,-0.05609 0.0388,0.08608 0.0783,0.154869 0.11924,0.201436 0.0572,0.06597 0.26705,0.385233 0.67592,0.301273 0.0561,-0.01164 0.36336,-0.118888 0.21731,-0.726371 -0.0201,-0.08325 -0.11183,-0.308327 -0.43427,-0.335492 -0.17427,-0.01447 -0.31221,0.03352 -0.45473,0.101248 -0.0282,-0.06385 -0.0536,-0.132644 -0.0744,-0.205317 -0.1344,-0.514702 -0.46425,-2.93511 -0.46425,-2.93511 0,0 0.17639,0.157692 0.20814,0.191204 0.0314,0.03352 0.0702,0.01588 0.0522,-0.0381 -0.0183,-0.05397 -0.40111,-1.002946 -0.41416,-1.036812 -0.013,-0.03387 -0.0261,-0.05821 -0.0423,-0.01905 -0.0162,0.0388 -0.14605,0.324554 -0.14605,0.324554 0.004,0.02328 0.0339,0.09349 0.055,0.237773 0.0183,0.125941 0.0434,0.298098 0.0716,0.49036 0,0 0.19791,2.060223 0.51188,3.113971 -0.0236,0.01199 -0.0473,0.024 -0.0716,0.03598 -0.14111,0.06879 -0.91863,0.559859 -1.57798,0.07161 -0.0667,-0.04939 -0.21554,-0.184854 -0.33584,-0.778579 -0.0452,-0.235305 -0.37818,-2.405592 -0.41487,-2.621492 -0.0363,-0.215196 -0.15381,-0.769763 -0.1845,-0.853723 -0.0307,-0.08396 -0.042,-0.07585 -0.0702,0.0081 m 3.53307,4.431241 c 0.0462,0.04833 0.11535,0.142521 0.0166,0.153459 -0.0988,0.01024 -0.27057,-0.0441 -0.3884,-0.155575 -0.0208,-0.02011 -0.0469,-0.04974 -0.0752,-0.08749 0.14394,-0.03457 0.30269,-0.02752 0.44698,0.08961 m -2.37102,-4.313414 c -0.0349,0.08431 -0.17886,0.374298 -0.15699,0.716843 0.005,0.07867 0.0579,0.232834 0.17674,0.237067 0.0617,0 0.14111,-0.0448 0.19756,-0.238477 0.01,-0.04374 0.0162,-0.07867 0.0198,-0.09596 0.007,-0.02612 -0.013,-0.05715 -0.0328,0.0028 -0.0452,0.118533 -0.16192,0.201435 -0.24976,0.04233 -0.0141,-0.0314 -0.0734,-0.175332 0.0353,-0.490008 0.0215,-0.06138 0.0494,-0.1524 0.0494,-0.1524 0.0247,-0.06879 -0.005,-0.10654 -0.0391,-0.02222 m 0.38346,1.498248 c -0.067,0.0956 -0.121,0.328787 -0.0317,0.397933 0.09,0.06985 0.22261,0.127704 0.22261,0.127704 -0.2593,0.402521 -0.65441,0.733779 -0.89888,0.900641 -0.0614,0.04198 -0.0511,0.07585 -0.0155,0.06068 0.75106,-0.309388 1.01847,-0.919692 1.01847,-0.919692 0,0 0.10372,0.09137 0.11783,0.109712 0.031,0.04092 0.0476,0.07091 0.0639,0.02928 0.0603,-0.153107 -0.0162,-0.248708 -0.0903,-0.298802 0,0 0.085,-0.23848 -0.0522,-0.484365 -0.0226,-0.04092 -0.16158,-0.174273 -0.33408,0.07691 m 0.22084,0.07303 c 0.0938,0.09172 0.0748,0.23777 0.0702,0.271285 0,0 -0.121,-0.06068 -0.17533,-0.08608 -0.0543,-0.02469 -0.0819,-0.06032 -0.0557,-0.09455 0.0878,-0.116417 0.12947,-0.111125 0.16087,-0.09066 m 1.83408,-1.717675 c -0.0162,0.0388 -0.13722,0.335843 -0.13722,0.335843 0.002,0.01728 0.0363,0.147109 0.0423,0.195792 0.0561,0.428273 0.4071,2.959452 0.508,3.759906 0.0494,0.394052 0.0878,0.748242 0.0935,0.938742 -0.004,0.05856 0.0208,0.08043 0.048,0.024 0.0145,-0.03034 0.0748,-0.155575 0.0935,-0.484011 0.0141,-0.246239 -0.006,-0.625475 -0.0766,-1.147233 -0.01,-0.07585 -0.37535,-2.720268 -0.37535,-2.720268 0,0 0.1972,0.18556 0.22895,0.219075 0.0318,0.03316 0.0702,0.01553 0.0519,-0.03845 -0.018,-0.05398 -0.42192,-1.030462 -0.43462,-1.064329 -0.013,-0.03387 -0.0261,-0.05821 -0.0423,-0.01905 m -5.95133,0.149537 c -0.18062,0.232482 -0.19191,0.53834 -0.2159,0.879827 -0.0254,-0.07161 -0.16969,-0.529166 -0.63042,-0.791278 -0.0335,-0.01905 -0.10124,0.01728 -0.10759,0.124883 -0.004,0.06279 -0.0215,0.215193 0.0219,0.258585 0.0437,0.04304 0.17215,0.128058 0.19402,0.1397 0.0215,0.01236 0.0448,0.01376 0.0515,-0.0127 0.006,-0.02574 0.0356,-0.08643 0.0773,-0.04304 0.0303,0.03105 0.27622,0.24765 0.35172,0.543632 0.0624,0.257527 -0.5708,0.776816 -0.60361,0.8001 -0.0596,0.04304 -0.0406,0.0702 -0.0127,0.05539 0.0275,-0.01482 0.055,-0.01905 0.37959,-0.233185 0.26176,-0.17286 0.31644,-0.37324 0.33938,-0.526344 0.002,-0.0078 0.005,-0.01622 0.006,-0.02646 0.0272,-0.186621 0.0416,-0.511175 0.0564,-0.609248 0.0204,-0.13829 0.0857,-0.423685 0.25823,-0.275519 0.0392,0.03387 0.0808,0.07832 0.0808,0.07832 0.0367,0.04657 0.0825,0.100187 0.10477,0.04621 0.0339,-0.08149 0.0614,-0.216958 0.024,-0.289983 -0.0166,-0.03245 -0.23001,-0.307269 -0.37571,-0.118886 m 10.81617,1.161344 c -0.0346,0.08432 -0.17886,0.375005 -0.15663,0.717198 0.005,0.07937 0.0575,0.23354 0.17674,0.237773 0.0617,-2.64e-4 0.14111,-0.04516 0.19756,-0.238831 0.01,-0.04374 0.0162,-0.07902 0.0201,-0.09596 0.006,-0.02611 -0.013,-0.05715 -0.0332,0.0028 -0.0448,0.118534 -0.16228,0.201436 -0.24977,0.04233 -0.0141,-0.0314 -0.0737,-0.175684 0.0349,-0.490715 0.0222,-0.06138 0.0497,-0.1524 0.0497,-0.1524 0.0243,-0.06879 -0.005,-0.106537 -0.0395,-0.02223 m 3.30764,0.173215 c -0.0321,0.07832 -0.1658,0.347133 -0.14534,0.664281 0.005,0.07303 0.0536,0.2159 0.16369,0.219427 0.0571,0 0.13123,-0.04127 0.18309,-0.220485 0.009,-0.04057 0.0148,-0.07303 0.0187,-0.0889 0.006,-0.02434 -0.0124,-0.05327 -0.031,0.0024 -0.0416,0.109715 -0.14993,0.186267 -0.23106,0.03951 -0.0134,-0.02963 -0.0684,-0.162983 0.0325,-0.454728 0.0201,-0.05645 0.0459,-0.140759 0.0459,-0.140759 0.0226,-0.06385 -0.005,-0.09878 -0.0363,-0.02082 m -6.20677,0.0085 -0.16827,0.230717 -0.3235,-0.235302 c -0.007,-0.006 -0.0191,-0.0039 -0.0254,0.0046 l -0.19508,0.267407 c -0.006,0.0085 -0.005,0.02011 0.003,0.02611 l 0.33302,0.242713 c 0.008,0.0056 0.0198,0.0035 0.0258,-0.0049 l 0.16862,-0.230716 0.32244,0.235656 c 0.008,0.0056 0.0201,0.0035 0.0261,-0.0049 l 0.19473,-0.267406 c 0.006,-0.0085 0.005,-0.02011 -0.003,-0.02574 l -0.33267,-0.24271 c -0.008,-0.006 -0.0198,-0.0039 -0.0258,0.0046 m -8.02569,1.0414 c -0.13476,0.292806 -0.26212,0.705202 -0.007,0.715081 0.133,0.0053 0.26353,0.0039 0.3436,0.0113 0.0752,0.0074 0.10302,0.07303 0.0663,0.126296 -0.0765,0.112184 -0.34079,0.195792 -0.53481,0.183444 -0.16828,-0.01058 -0.27341,0.0067 -0.20356,0.06385 0.0688,0.05574 0.20849,0.104423 0.40993,0.121356 0.14005,0.01236 0.32491,-0.03387 0.387,-0.147108 0.13476,-0.245534 0.21943,-0.691444 -0.0332,-0.697794 -0.31821,-0.0081 -0.49389,-0.0254 -0.35384,-0.185563 0.14005,-0.160512 0.23178,-0.140051 0.29775,-0.132643 0.0663,0.0078 0.0713,-0.03034 0.0815,-0.08643 0.0106,-0.05609 0.084,-0.280103 -0.0508,-0.295275 -0.14147,-0.01622 -0.26741,0.03034 -0.40252,0.323499 m 9.32885,-0.625475 c -0.0127,0.04516 -0.0455,0.239889 -0.0536,0.280106 -0.008,0.03986 -0.007,0.07973 0.0127,0.113945 0.0198,0.03422 0.0706,0.152755 0.10725,0.249063 0.0363,0.09595 0.41416,0.824087 0.44908,0.888294 0.0349,0.06456 0.042,0.112535 0.007,0.155575 -1.21285,1.279525 -3.55248,2.066218 -3.62762,2.10961 -0.0748,0.04375 -0.0547,0.07726 0.0713,0.05539 0.18803,-0.03316 1.23896,-0.208846 1.53882,-0.353132 0.19755,-0.09525 0.88794,-0.434268 1.45239,-0.876651 -0.0155,0.1143 -0.0303,0.281868 -0.0222,0.4953 0.0384,1.029051 0.9585,0.858308 1.20015,0.805391 0.72319,-0.159104 1.60831,-1.159229 1.68381,-1.359958 0.0741,-0.198615 0.085,-0.37959 0.0681,-0.537988 0.1905,-0.10301 0.60008,-0.432858 0.60008,-0.432858 0.0166,0.438504 0.36583,0.570441 0.47343,0.589491 0.50341,0.0762 0.75565,-0.34431 0.86324,-0.481187 0.091,0.240594 0.31186,0.287512 0.42545,0.310092 0.43427,0.08643 0.51894,-0.22084 0.54152,-0.291042 0.13617,-0.423688 -0.10936,-0.739423 -0.14111,-0.774348 -0.0314,-0.03492 -0.0473,-0.0013 -0.0582,0.03916 -0.0113,0.04057 -0.0462,0.193324 -0.0684,0.288925 0,0 0.0907,0.147815 0.12312,0.223309 0.0325,0.07549 -0.0155,0.116416 -0.10901,0.128058 -0.26423,0.0321 -0.47554,-0.11924 -0.54786,-0.18909 -0.0727,-0.06985 0.006,-0.19332 0.0649,-0.340783 0.0466,-0.118533 -0.0402,-0.132644 -0.10725,-2.65e-4 -0.22366,0.588786 -0.53869,0.652286 -0.62124,0.674865 -0.74648,0.2032 -0.68192,-0.478721 -0.67909,-0.590904 0.002,-0.111477 -0.079,-0.0702 -0.1711,0.0035 -0.31362,0.251883 -0.56692,0.40005 -0.70274,0.460727 -0.11747,-0.228952 -0.28751,-0.372534 -0.35912,-0.424744 -0.80751,-0.588433 -0.87383,0.599369 -0.84949,0.72672 0.12276,0.50518 0.94756,0.198967 1.07703,0.183799 0.12912,-0.01516 0.0871,0.155575 0.0145,0.256823 -0.17921,0.25047 -0.38594,0.430035 -0.57291,0.582435 -0.79939,0.65264 -1.20121,0.601133 -1.32468,0.597252 -0.78493,-0.02222 -0.71296,-0.868892 -0.66922,-1.049867 0.23601,-0.19967 0.43921,-0.417687 0.55704,-0.64135 0.0483,-0.122767 0.13088,-0.401812 -0.0187,-0.751768 -0.0783,-0.153811 -0.32632,-0.585965 -0.32632,-0.585965 0,0 0.18274,0.0056 0.20002,0.0053 0.0173,-2.64e-4 0.0515,-0.01834 0.007,-0.06949 -0.0441,-0.05115 -0.42757,-0.433565 -0.45085,-0.464256 -0.0226,-0.03069 -0.0441,-0.05257 -0.0571,-0.0074 m 2.42252,1.752248 c 0,0 -0.11006,0.0635 -0.41769,0.04269 -0.25752,-0.01728 -0.23565,-0.117827 -0.20037,-0.155927 0.0385,-0.04163 0.35419,-0.240242 0.61806,0.113241 M 192.24,30.16342 c -0.0536,0.06632 -0.58985,0.76976 -0.58985,0.76976 l -0.38982,-0.27799 c 0,0 0.15911,-0.03986 0.18662,-0.04798 0.0279,-0.0078 0.0437,-0.04374 -0.006,-0.0695 -0.0505,-0.0254 -0.5207,-0.213077 -0.55633,-0.227893 -0.0356,-0.01447 -0.0487,-0.03069 -0.0519,0.0078 -0.003,0.0381 -0.008,0.347133 -0.008,0.347133 0,0 -0.007,0.02188 0.0339,0.04516 0.0409,0.02328 0.0811,0.07338 0.11465,0.106891 0.0339,0.03351 0.47131,0.378884 0.49248,0.390877 0,0 -0.21872,0.38453 -0.24659,0.685448 -0.0279,0.300919 0.006,0.71614 0.41663,0.582084 0.11077,-0.0314 0.5715,-0.21449 0.67451,-0.535869 0.0335,-0.118533 0.12806,-0.332317 -0.0261,-0.548923 -0.0893,-0.127706 -0.44873,-0.342548 -0.44873,-0.342548 0,0 0.27552,-0.382058 0.30233,-0.428625 0.0261,-0.04692 0.12771,-0.3429 0.139,-0.414512 0.0113,-0.07162 0.0169,-0.107246 -0.0363,-0.04127 m -0.0945,1.622777 c -0.15276,0.125589 -0.47378,0.291748 -0.56409,0.300566 -0.09,0.0088 -0.32985,-0.03528 -0.22543,-0.28081 0.0356,-0.07938 0.27481,-0.48895 0.27481,-0.48895 0.0896,0.04939 0.66781,0.343252 0.51471,0.469194 m 6.23111,0.561975 c -0.0314,0.08608 -0.0434,0.142875 -0.0402,0.175683 0.004,0.03281 0.0145,0.139348 0.0145,0.139348 -0.0321,0.02574 -0.16863,0.111125 -0.30516,0.01058 0.009,-0.02963 0.0268,-0.0889 0.0307,-0.121356 0.0148,-0.05045 -0.0162,-0.08819 -0.0413,-0.03598 -0.0247,0.05256 -0.0829,0.228248 -0.12594,0.267406 -0.043,0.03951 -0.0938,0.184854 -0.41946,0.03739 -0.0572,-0.02222 -0.15733,-0.09631 -0.31256,0.06032 -0.35277,0.328083 -0.59619,0.353483 -0.99165,0.493889 -0.0476,0.02222 -0.14817,0.09737 -0.0289,0.08537 0.11924,-0.01164 0.62018,2.64e-4 0.89288,-0.31256 0.0572,-0.05539 0.12241,-0.20179 0.33902,-0.116769 0.11994,0.04551 0.34184,0.235654 0.58349,-0.140055 0.14253,0.0949 0.35878,0.0568 0.39335,-0.04798 0.0346,-0.104424 0.0741,-0.208492 0.0737,-0.279752 -2.7e-4,-0.07126 -0.007,-0.164748 -0.007,-0.164748 -0.005,-0.05644 -0.0247,-0.136877 -0.0557,-0.0508 m -9.72044,0.511175 c -0.0321,0.07832 -0.16651,0.34925 -0.14605,0.668514 0.005,0.07373 0.0536,0.217311 0.16474,0.221192 0.0575,0 0.13159,-0.04198 0.18451,-0.222605 0.009,-0.04057 0.0148,-0.07338 0.0187,-0.08925 0.006,-0.02434 -0.0127,-0.05362 -0.031,0.0024 -0.042,0.110773 -0.15134,0.188031 -0.23318,0.03951 -0.013,-0.02928 -0.0681,-0.16369 0.0332,-0.457555 0.0201,-0.0568 0.0459,-0.141816 0.0459,-0.141816 0.0229,-0.0642 -0.004,-0.09913 -0.0367,-0.02045 m -3.33163,0.398992 c -0.0702,0.03493 -1.34021,0.523168 -1.41253,0.563385 -0.0723,0.04057 -0.0977,0.05045 -0.11218,0.103365 -0.0148,0.05327 -0.0222,0.08396 -0.0257,0.09243 -0.0148,0.03492 -0.0268,0.07832 0.0797,0.01834 0.0335,-0.01905 1.31692,-0.513291 1.37689,-0.547158 0.0593,-0.03422 0.0949,-0.04586 0.12207,-0.100542 0.0261,-0.05362 0.0328,-0.0635 0.0476,-0.101248 0.0159,-0.04022 0.0321,-0.08326 -0.0759,-0.02857"
       style="fill:#231f20;fill-opacity:1;fill-rule:evenodd;stroke:none;stroke-width:0.264583"
       id="path1" />
  </g>
</svg>
