<?xml version="1.0" encoding="UTF-8" standalone="no"?>
<!-- Created with Inkscape (http://www.inkscape.org/) -->

<svg
   width="17.85944mm"
   height="6.9826083mm"
   viewBox="0 0 17.85944 6.9826083"
   version="1.1"
   id="svg1"
   xmlns="http://www.w3.org/2000/svg"
   xmlns:svg="http://www.w3.org/2000/svg">
  <defs
     id="defs1" />
  <g
     id="layer1"
     transform="translate(-185.56745,-17.695037)">
    <path
       d="m 189.15451,17.729022 c -0.0681,0.03739 -1.97132,0.844902 -2.16817,0.987425 -0.0984,0.07126 -0.1838,0.188383 -0.21872,0.318558 -0.0501,0.188032 -0.0127,0.378883 0.10936,0.405694 0.0864,0.01871 0.13264,0.07161 0.1531,0.101954 0.009,0.0127 0.0233,0.0046 0.0279,-0.0035 0.10901,-0.188735 0.0268,-0.315383 -0.13758,-0.372533 -0.066,-0.02294 -0.0903,-0.116769 0.16439,-0.261408 0.2346,-0.132996 1.91382,-0.861129 1.96638,-0.893938 0.0706,-0.04339 0.11254,-0.05927 0.14253,-0.125941 0.0303,-0.06632 0.0378,-0.07832 0.054,-0.124884 0.0177,-0.04904 0.0353,-0.1016 -0.0931,-0.0314 m 3.97898,0.45085 c -0.018,0.03845 -0.15981,0.317852 -0.15981,0.317852 0.003,0.02328 0.03,0.0949 0.0448,0.23989 0.0148,0.141465 0.0349,0.340077 0.0575,0.560565 0.0198,0.209902 0.30585,2.607027 0.30585,2.724502 0,0.117827 0.0124,0.173566 -0.0441,0.227189 -0.0568,0.05433 -0.44662,0.289277 -0.80398,0.232479 -0.0871,-0.01376 -0.28752,-0.04939 -0.45368,-0.243416 0.18415,-0.153104 0.37783,-0.351719 0.41099,-0.499179 0.0377,-0.172509 0.12171,-0.357365 -0.11747,-0.811038 -0.0928,-0.125942 -0.1524,-0.20461 -0.33655,-0.163687 -0.18415,0.04057 -0.29528,0.163335 -0.35631,0.419804 -0.0444,0.185914 -0.11148,0.511175 0.0272,0.916516 -0.0138,0.0074 -0.0268,0.01482 -0.0406,0.02188 -0.11182,0.06279 -1.25976,0.606073 -2.0327,0.325967 -0.20461,-0.08114 -0.68897,-0.22084 -0.8121,-1.019175 -0.0254,-0.17921 -0.16262,-1.946275 -0.16262,-1.946275 0,0 -0.10372,-0.963435 -0.11184,-1.025173 -0.009,-0.06138 -0.0254,-0.134408 -0.084,-0.02506 -0.0589,0.10936 -0.10371,0.364066 -0.0953,0.506941 0.008,0.142521 0.17357,2.412294 0.1778,2.584802 0.004,0.172157 0.0293,1.440744 0.15135,1.634419 -0.0886,0.0081 -0.76906,0.13829 -1.26048,0.453321 -0.17639,0.109008 -0.94474,0.566912 -1.08832,0.613127 -0.115,0.03739 -0.41275,0.118181 -0.58103,-0.08008 -0.0406,-0.04798 -0.17286,-0.223309 0.0152,-0.681213 0.09,-0.206729 0.23883,-0.456496 0.46955,-0.708731 0.0243,-0.02188 0.036,-0.04833 0.0377,-0.07126 0.036,0.02716 0.0773,0.04409 0.12453,0.04304 0.097,-0.0056 0.21766,-0.09384 0.28681,-0.449792 0.0109,-0.08043 0.0169,-0.144285 0.0215,-0.175683 0.007,-0.04798 -0.0265,-0.102658 -0.0522,0.0074 -0.0589,0.21943 -0.2346,0.380296 -0.38876,0.09984 -0.0254,-0.05645 -0.13371,-0.311856 0.005,-0.892529 0.0279,-0.112536 0.0621,-0.280459 0.0621,-0.280459 0.0314,-0.127 -0.0183,-0.192262 -0.0642,-0.03669 -0.0455,0.155575 -0.24306,0.695325 -0.17321,1.313744 0.01,0.08784 0.0511,0.224718 0.12453,0.317148 -0.0169,0.0042 -0.0367,0.01659 -0.0596,0.04092 -0.0737,0.08008 -0.27234,0.322088 -0.40958,0.569384 -0.13652,0.245887 -0.18203,0.507296 -0.19685,0.675923 -0.0321,0.372181 0.17216,0.807508 0.66922,0.729191 0.39512,-0.06279 1.14688,-0.613481 1.36949,-0.726723 0.22225,-0.113241 1.25589,-0.680508 2.03305,-0.0381 0.0339,-0.104775 0.0674,-0.369358 0.0508,-0.449085 0,0 -0.53798,-0.315031 -0.61347,-0.36971 -0.0755,-0.05468 -0.3616,-0.243771 -0.35737,-0.915813 0,0 0.28504,0.779288 1.29822,0.798338 0.20991,0.0039 0.895,-0.01693 1.76036,-0.491773 0.0187,-0.01024 0.042,-0.024 0.0681,-0.04128 0.0349,0.06033 0.0741,0.122414 0.11959,0.18556 0.0589,0.08608 0.39406,0.522465 1.12183,0.208846 0.10055,-0.04339 0.39265,-0.143229 0.43815,-0.486129 0.0205,-0.140759 0.0589,-0.556329 0.0272,-0.840317 L 193.24648,18.9761 c 0,0 0.18909,0.193323 0.21943,0.2286 0.03,0.03457 0.0691,0.01834 0.054,-0.03598 -0.0159,-0.05503 -0.33373,-0.93345 -0.34502,-0.967669 -0.0116,-0.03457 -0.0236,-0.05997 -0.0416,-0.02117 m -1.05586,3.006725 c 0.11606,0.02469 0.13194,0.113593 0.19156,0.232127 0.0593,0.118887 0.10265,0.183446 0.0674,0.219075 -0.0261,0.02574 -0.18662,0.177096 -0.41169,0.3302 -0.0212,-0.05644 -0.0399,-0.118179 -0.055,-0.187677 -0.0568,-0.199319 -0.1083,-0.404284 -0.0515,-0.463902 0.0564,-0.05927 0.14322,-0.153813 0.25929,-0.129823 m 2.02212,-2.96404 c -0.018,0.03845 -0.1517,0.329848 -0.1517,0.329848 0.002,0.01799 0.03,0.148519 0.0342,0.197556 0.0378,0.430388 0.2794,2.974269 0.34573,3.77825 0.0325,0.395817 0.0557,0.751417 0.0529,0.941917 -0.007,0.05821 0.018,0.08114 0.0469,0.02611 0.0159,-0.02998 0.0815,-0.152045 0.1143,-0.479776 0.0243,-0.245534 0.0215,-0.625124 -0.0268,-1.14935 -0.007,-0.0762 -0.25823,-2.733675 -0.25823,-2.733675 0,0 0.18909,0.193675 0.21907,0.2286 0.0303,0.03493 0.0699,0.01834 0.054,-0.03598 -0.0159,-0.05468 -0.37748,-1.04775 -0.38912,-1.082323 -0.0113,-0.03422 -0.0229,-0.05927 -0.0413,-0.02117 m 1.58503,0.173214 c -0.0702,0.10654 -0.12206,0.362657 -0.0222,0.435682 0.10019,0.07338 0.24624,0.132291 0.24624,0.132291 -0.46566,0.571146 -0.78458,0.679802 -1.05692,0.839611 -0.0699,0.04127 -0.0561,0.07796 -0.0152,0.06668 0.0212,-0.0056 0.38805,-0.06244 0.81562,-0.38735 0.23213,-0.176036 0.37218,-0.476602 0.37218,-0.476602 0,0 0.11571,0.09666 0.13124,0.116416 0.0353,0.04374 0.0547,0.07585 0.0709,0.02999 0.061,-0.168982 -0.025,-0.270934 -0.10724,-0.323498 0,0 0.0854,-0.263171 -0.0716,-0.52705 -0.0265,-0.0441 -0.18204,-0.185561 -0.36301,0.09384 m 0.24377,0.07267 c 0.10477,0.09772 0.0889,0.257879 0.0847,0.294569 0,0 -0.13405,-0.06315 -0.19402,-0.08855 -0.06,-0.02574 -0.0914,-0.06385 -0.0639,-0.101952 0.0924,-0.129823 0.13794,-0.125235 0.17322,-0.104069 m -5.8561,-0.147481 c -0.0303,0.07479 -0.1584,0.332671 -0.13865,0.636413 0.004,0.0702 0.0508,0.207079 0.15664,0.21096 0.0547,0 0.12524,-0.03986 0.17568,-0.211667 0.008,-0.03916 0.0141,-0.0702 0.0177,-0.08537 0.005,-0.02328 -0.0116,-0.0508 -0.0293,0.0024 -0.0402,0.105126 -0.14429,0.178503 -0.2219,0.03739 -0.0127,-0.02822 -0.0653,-0.155575 0.0314,-0.435681 0.0191,-0.05397 0.0441,-0.135112 0.0441,-0.135112 0.0212,-0.06068 -0.005,-0.09419 -0.0356,-0.01939 m 12.13485,0.170391 c -0.0705,0.10654 -0.12241,0.362657 -0.0222,0.43533 0.0998,0.07373 0.24588,0.132643 0.24588,0.132643 -0.46566,0.571148 -1.38041,0.977194 -1.59772,1.146882 -0.0653,0.04903 -0.0564,0.07796 -0.0155,0.06703 0.0367,-0.0099 0.73343,-0.204611 1.37055,-0.750711 0.2921,-0.250121 0.28398,-0.268816 0.35842,-0.420512 0.0631,0.03246 0.10654,0.08537 0.13123,0.116416 0.0353,0.04339 0.0547,0.07585 0.0713,0.02963 0.061,-0.168979 -0.0254,-0.270934 -0.1076,-0.323496 0,0 0.0854,-0.263173 -0.0716,-0.527404 -0.0261,-0.0441 -0.18203,-0.185209 -0.36265,0.09419 m 0.24341,0.07267 c 0.10478,0.09737 0.0889,0.257882 0.0847,0.294569 0,0 -0.13406,-0.06279 -0.19403,-0.08855 -0.06,-0.02574 -0.0914,-0.06385 -0.0635,-0.1016 0.0921,-0.130175 0.13759,-0.125589 0.17286,-0.104423 m -1.78858,-0.165806 c -0.18309,0.232833 -0.19473,0.539046 -0.21908,0.879829 -0.0261,-0.07126 -0.17215,-0.528462 -0.63958,-0.790575 -0.0342,-0.01905 -0.10301,0.01728 -0.10936,0.124884 -0.004,0.06244 -0.0219,0.215193 0.0226,0.258233 0.0441,0.04339 0.17463,0.128058 0.1965,0.140052 0.0219,0.01199 0.0455,0.01376 0.0519,-0.0127 0.007,-0.02611 0.0367,-0.08678 0.079,-0.04304 0.0353,0.03598 0.266,0.226484 0.38524,0.630415 0.0208,0.05362 0.0709,0.05856 0.0822,-0.01728 0.0275,-0.186973 0.0427,-0.511175 0.0575,-0.6096 0.0208,-0.13829 0.0868,-0.423334 0.26176,-0.275167 0.0399,0.03351 0.0822,0.07796 0.0822,0.07796 0.0374,0.04692 0.0836,0.10019 0.10619,0.04622 0.0346,-0.08149 0.0624,-0.216958 0.0247,-0.289983 -0.0166,-0.03246 -0.23318,-0.306917 -0.3817,-0.11924 m -1.80023,-0.01058 c -0.0674,0.03916 -1.78752,1.031875 -1.85737,1.077031 -0.0699,0.0448 -0.0945,0.05644 -0.10548,0.110419 -0.0113,0.05362 -0.0169,0.08467 -0.0201,0.09349 -0.0124,0.03563 -0.0215,0.08008 0.0811,0.01341 0.0321,-0.02082 1.76212,-1.020585 1.82245,-1.058685 0.0586,-0.03634 0.0921,-0.05186 0.11571,-0.107599 0.0229,-0.05539 0.0293,-0.06597 0.0416,-0.10442 0.013,-0.04127 0.0265,-0.08502 -0.078,-0.02363 m -6.2932,0.216254 c -0.0677,0.03704 -3.0166,1.280935 -3.2131,1.422752 -0.0984,0.07161 -0.18415,0.188735 -0.21872,0.318558 -0.0501,0.188384 -0.0131,0.379236 0.10971,0.406049 0.0857,0.01834 0.13229,0.07161 0.15275,0.101951 0.009,0.0127 0.0229,0.0049 0.0279,-0.0032 0.109,-0.189089 0.0268,-0.315735 -0.13794,-0.372533 -0.0656,-0.02294 -0.0903,-0.117475 0.16439,-0.26176 0.23495,-0.132998 2.9591,-1.297165 3.01131,-1.329973 0.0706,-0.04339 0.11325,-0.05927 0.14323,-0.125942 0.03,-0.06632 0.0374,-0.07832 0.0536,-0.124531 0.0177,-0.04939 0.0353,-0.101952 -0.0931,-0.0314 m -0.4131,1.391354 -0.16828,0.230365 -0.32279,-0.235302 c -0.008,-0.0056 -0.0198,-0.0035 -0.0257,0.0049 l -0.19509,0.267406 c -0.006,0.0085 -0.005,0.02011 0.003,0.02574 l 0.33302,0.242713 c 0.008,0.006 0.0194,0.0042 0.0258,-0.0046 l 0.16827,-0.231069 0.32314,0.235656 c 0.008,0.006 0.0194,0.0042 0.0254,-0.0046 l 0.19544,-0.267404 c 0.006,-0.0085 0.004,-0.02045 -0.004,-0.02574 l -0.33266,-0.243046 c -0.008,-0.0056 -0.0198,-0.0035 -0.0261,0.0049 m -1.55046,0.955323 c -0.17427,0.221192 -0.18556,0.511881 -0.20849,0.83679 -0.0247,-0.06809 -0.16369,-0.503063 -0.60854,-0.752475 -0.0321,-0.01799 -0.0981,0.01622 -0.10407,0.118885 -0.004,0.05927 -0.0208,0.20461 0.0212,0.245533 0.042,0.04127 0.16652,0.121709 0.18698,0.13335 0.0212,0.0113 0.0434,0.01304 0.0497,-0.01199 0.006,-0.02469 0.0346,-0.08255 0.0751,-0.04127 0.0339,0.03457 0.25294,0.2159 0.36654,0.600075 0.0201,0.0508 0.067,0.05574 0.0783,-0.01659 0.0261,-0.1778 0.0406,-0.486481 0.0543,-0.579966 0.0201,-0.131234 0.0829,-0.402873 0.24941,-0.262115 0.0374,0.03246 0.078,0.07444 0.078,0.07444 0.0353,0.04445 0.0797,0.0956 0.10125,0.0441 0.0325,-0.07726 0.0593,-0.206375 0.0233,-0.27587 -0.0159,-0.03105 -0.2226,-0.2921 -0.36301,-0.11289 m 8.58732,-1.208265 c -0.0349,0.08432 -0.17886,0.375005 -0.15699,0.71755 0.005,0.07867 0.0575,0.233188 0.17674,0.237421 0.0617,-2.64e-4 0.14147,-0.04516 0.19791,-0.238831 0.01,-0.04339 0.0162,-0.07867 0.0198,-0.09596 0.006,-0.02646 -0.013,-0.0575 -0.0328,0.0028 -0.0452,0.118533 -0.16228,0.201435 -0.25013,0.04233 -0.0141,-0.0314 -0.0734,-0.175683 0.0349,-0.491067 0.0222,-0.06068 0.0497,-0.152048 0.0497,-0.152048 0.0243,-0.06879 -0.005,-0.106537 -0.0392,-0.02222 m 3.30729,0.173215 c -0.0321,0.07796 -0.16545,0.347133 -0.14499,0.664281 0.005,0.07338 0.0533,0.2159 0.16334,0.219779 0.0572,-2.64e-4 0.13088,-0.04163 0.18344,-0.220837 0.009,-0.04057 0.0145,-0.07302 0.0183,-0.0889 0.006,-0.02469 -0.0124,-0.05327 -0.0307,0.0024 -0.0416,0.109715 -0.15028,0.186619 -0.23178,0.03916 -0.013,-0.02928 -0.0677,-0.162632 0.0328,-0.454377 0.0205,-0.05645 0.0459,-0.141113 0.0459,-0.141113 0.0229,-0.06385 -0.005,-0.09842 -0.0363,-0.02045 m -6.20642,0.0085 -0.16863,0.230717 -0.32279,-0.235657 c -0.008,-0.0056 -0.0194,-0.0035 -0.0257,0.0049 l -0.19544,0.267407 c -0.006,0.0085 -0.004,0.02011 0.004,0.02611 l 0.33267,0.242358 c 0.008,0.006 0.0198,0.0039 0.0261,-0.0046 l 0.16792,-0.230717 0.32315,0.235302 c 0.008,0.006 0.0198,0.0039 0.0261,-0.0046 l 0.19474,-0.267406 c 0.006,-0.0085 0.005,-0.02011 -0.004,-0.02612 l -0.33267,-0.242713 c -0.008,-0.0056 -0.0198,-0.0035 -0.0254,0.0049 m -8.59508,0.253294 c -0.17462,0.221546 -0.18556,0.512939 -0.20849,0.837141 -0.0247,-0.06773 -0.16369,-0.50306 -0.60854,-0.75212 -0.0325,-0.01834 -0.0977,0.01587 -0.10407,0.118179 -0.004,0.06033 -0.0205,0.204964 0.0215,0.246239 0.042,0.04092 0.16616,0.121709 0.18697,0.132998 0.0212,0.01164 0.043,0.01304 0.0494,-0.01198 0.006,-0.02469 0.0346,-0.08255 0.0751,-0.04092 0.0339,0.03422 0.25259,0.215194 0.36689,0.599721 0.0194,0.0508 0.0667,0.05609 0.0776,-0.01659 0.0268,-0.177448 0.0406,-0.486129 0.055,-0.579966 0.0194,-0.131234 0.0822,-0.402521 0.24907,-0.261763 0.0377,0.03175 0.078,0.07444 0.078,0.07444 0.0353,0.04445 0.0797,0.09525 0.10125,0.04374 0.0328,-0.07761 0.0589,-0.206375 0.0233,-0.275873 -0.0159,-0.03069 -0.22225,-0.2921 -0.36301,-0.113241 m 9.89824,0.162631 c -0.013,0.04516 -0.0459,0.240242 -0.0536,0.280106 -0.008,0.03986 -0.007,0.07937 0.0127,0.113946 0.0198,0.03422 0.0702,0.152754 0.10689,0.249063 0.0363,0.09631 0.41451,0.824087 0.44909,0.888293 0.0349,0.06456 0.042,0.112536 0.007,0.155223 -1.21285,1.279877 -3.55353,2.066925 -3.62831,2.109962 -0.0744,0.04339 -0.0547,0.07726 0.0713,0.05503 0.18873,-0.03245 1.23966,-0.208492 1.53952,-0.352777 0.1972,-0.0956 0.88794,-0.434269 1.45203,-0.876652 -0.0155,0.113946 -0.03,0.281869 -0.0219,0.4953 0.0378,1.029052 0.95779,0.858308 1.19945,0.805037 0.7239,-0.158395 1.60902,-1.158875 1.6838,-1.359958 0.0741,-0.19826 0.0854,-0.379587 0.0688,-0.537633 0.1905,-0.102659 0.59972,-0.433211 0.59972,-0.433211 0.0169,0.438857 0.36583,0.570794 0.47343,0.589844 0.50376,0.07655 0.756,-0.344662 0.86324,-0.480835 0.0914,0.240593 0.31221,0.286808 0.42545,0.309739 0.43463,0.08643 0.51894,-0.220839 0.54152,-0.291041 0.13617,-0.423688 -0.10901,-0.739071 -0.14076,-0.774348 -0.0317,-0.03493 -0.048,-0.0019 -0.0586,0.03881 -0.0109,0.04092 -0.0462,0.193675 -0.0684,0.289277 0,0 0.091,0.14746 0.12347,0.222956 0.0321,0.07549 -0.0159,0.116769 -0.10901,0.128059 -0.26458,0.03245 -0.47554,-0.118888 -0.54821,-0.188738 -0.0723,-0.06985 0.006,-0.193675 0.0646,-0.341135 0.0469,-0.118182 -0.0399,-0.132644 -0.10653,-2.65e-4 -0.22402,0.588785 -0.53905,0.652285 -0.6216,0.675217 -0.74612,0.2032 -0.68192,-0.479073 -0.6791,-0.59055 0.002,-0.111832 -0.079,-0.07091 -0.17074,0.0032 -0.31433,0.251883 -0.56727,0.40005 -0.70309,0.460727 -0.11712,-0.228952 -0.28716,-0.372886 -0.35912,-0.424744 -0.80751,-0.588788 -0.87419,0.599369 -0.84949,0.72672 0.12276,0.505532 0.94756,0.198967 1.07738,0.183799 0.12876,-0.01516 0.0871,0.155223 0.0141,0.256823 -0.17886,0.250118 -0.38558,0.429683 -0.57256,0.582435 -0.79974,0.652285 -1.2012,0.601133 -1.32467,0.5969 -0.78529,-0.02222 -0.71332,-0.86854 -0.66958,-1.049515 0.23636,-0.200025 0.43921,-0.417687 0.55704,-0.641702 0.0483,-0.122415 0.13088,-0.40146 -0.0183,-0.751416 -0.079,-0.153811 -0.32667,-0.585965 -0.32667,-0.585965 0,0 0.18239,0.0053 0.20002,0.0053 0.0173,-2.65e-4 0.0515,-0.01834 0.007,-0.0695 -0.0444,-0.05115 -0.42756,-0.433213 -0.45085,-0.464256 -0.0233,-0.03069 -0.0444,-0.05257 -0.0571,-0.0074 m 2.42182,1.752248 c 0,0 -0.10971,0.06315 -0.41698,0.04269 -0.25823,-0.01728 -0.23566,-0.117827 -0.20073,-0.155927 0.0388,-0.04163 0.35419,-0.240242 0.61771,0.113241 m -3.31646,-1.424574 c -0.0529,0.06632 -0.5895,0.770112 -0.5895,0.770112 l -0.38981,-0.277987 c 0,0 0.15875,-0.04022 0.18661,-0.04833 0.0275,-0.0078 0.0434,-0.04374 -0.007,-0.0695 -0.0497,-0.02574 -0.52,-0.213077 -0.55598,-0.227542 -0.0356,-0.01447 -0.0483,-0.03104 -0.0515,0.0071 -0.003,0.0381 -0.009,0.347485 -0.009,0.347485 0,0 -0.007,0.02188 0.0339,0.04516 0.0409,0.02328 0.0815,0.07303 0.11501,0.106892 0.0339,0.03351 0.47096,0.378531 0.49248,0.390877 0,0 -0.21872,0.384529 -0.2466,0.685096 -0.0282,0.301271 0.005,0.716492 0.41628,0.582435 0.11113,-0.03175 0.5715,-0.214841 0.67451,-0.536223 0.0335,-0.117827 0.12841,-0.331962 -0.0261,-0.54892 -0.0892,-0.127355 -0.44838,-0.342548 -0.44838,-0.342548 0,0 0.27587,-0.381707 0.30233,-0.428625 0.0261,-0.04657 0.12771,-0.342548 0.139,-0.413809 0.0113,-0.07197 0.0166,-0.10795 -0.0367,-0.04163 m -0.0945,1.622777 c -0.1524,0.125942 -0.47343,0.291748 -0.56374,0.300567 -0.0903,0.0088 -0.32985,-0.03563 -0.22577,-0.28081 0.0356,-0.07938 0.27516,-0.48895 0.27516,-0.48895 0.0892,0.04939 0.66746,0.343604 0.51435,0.469193 m -8.90871,-0.580326 c -0.0384,0.09948 -0.20214,0.445204 -0.15169,0.839258 0.0116,0.09102 0.0882,0.265287 0.23954,0.261408 0.078,-0.0046 0.17603,-0.06209 0.23495,-0.289631 0.009,-0.05115 0.0152,-0.09208 0.0187,-0.112535 0.006,-0.03034 -0.0201,-0.06491 -0.042,0.006 -0.049,0.140054 -0.19226,0.244123 -0.31327,0.06668 -0.0201,-0.03528 -0.10477,-0.197554 0.0124,-0.569029 0.0236,-0.07197 0.0526,-0.179565 0.0526,-0.179565 0.0265,-0.08114 -0.013,-0.122414 -0.0512,-0.02257 m 15.13981,1.142294 c -0.031,0.08608 -0.043,0.142875 -0.0406,0.175683 0.004,0.03281 0.0148,0.139348 0.0148,0.139348 -0.0317,0.02611 -0.16828,0.111125 -0.30515,0.01058 0.009,-0.02928 0.0268,-0.08855 0.0307,-0.121357 0.0148,-0.0508 -0.0162,-0.08855 -0.0413,-0.03598 -0.0247,0.05256 -0.0829,0.228248 -0.12594,0.267406 -0.043,0.03951 -0.0935,0.184854 -0.41945,0.03704 -0.0568,-0.02151 -0.15699,-0.09596 -0.31292,0.06068 -0.35242,0.327731 -0.59584,0.353483 -0.99095,0.49389 -0.048,0.02222 -0.14817,0.09737 -0.0289,0.08537 0.11889,-0.01164 0.61983,2.65e-4 0.89288,-0.312912 0.0568,-0.05503 0.12206,-0.201083 0.33867,-0.116771 0.1203,0.04586 0.34184,0.235656 0.58349,-0.140052 0.14217,0.09525 0.35878,0.05715 0.39335,-0.04763 0.0346,-0.104423 0.0741,-0.208492 0.0737,-0.279752 -2.6e-4,-0.07126 -0.006,-0.164748 -0.006,-0.164748 -0.005,-0.05644 -0.025,-0.137232 -0.0561,-0.0508 m -9.24772,0.44591 c -0.0187,0.03492 -0.0317,0.06385 -0.0392,0.07761 -0.0113,0.02117 -0.002,0.05221 0.0289,0.0053 0.066,-0.09137 0.18521,-0.136173 0.22437,0.02011 0.005,0.03069 0.0233,0.167217 -0.14146,0.413102 -0.0328,0.04763 -0.0773,0.119592 -0.0773,0.119592 -0.0363,0.05362 -0.0201,0.09243 0.0289,0.02787 0.0487,-0.0642 0.23847,-0.28081 0.29703,-0.579967 0.0134,-0.06879 0.004,-0.213076 -0.0977,-0.243768 -0.0529,-0.01376 -0.13159,0.0067 -0.22367,0.16016 m -2.37913,0.186621 c -0.0215,0.03387 -0.0374,0.06103 -0.0459,0.07408 -0.013,0.02011 -0.006,0.05186 0.0286,0.0081 0.0734,-0.08537 0.19615,-0.119237 0.22155,0.03986 0.002,0.03069 0.008,0.168982 -0.17815,0.39864 -0.0367,0.04445 -0.0871,0.112183 -0.0871,0.112183 -0.0409,0.05009 -0.0282,0.09066 0.0265,0.03069 0.054,-0.05997 0.26211,-0.25894 0.34713,-0.55104 0.0198,-0.06808 0.0226,-0.212373 -0.0759,-0.251531 -0.0515,-0.01871 -0.13123,-0.0053 -0.23671,0.138996 m -2.08915,0.472017 c -0.0702,0.03528 -1.24248,0.436385 -1.3148,0.476953 -0.0723,0.04022 -0.0977,0.05045 -0.11218,0.103365 -0.0145,0.05292 -0.0222,0.08396 -0.0254,0.09208 -0.0152,0.03528 -0.0268,0.07867 0.0797,0.01871 0.0335,-0.01905 1.2192,-0.426508 1.27882,-0.460729 0.0596,-0.03422 0.0949,-0.04621 0.12206,-0.100542 0.0268,-0.05397 0.0335,-0.0635 0.048,-0.101245 0.0159,-0.04022 0.0317,-0.08326 -0.0762,-0.02858"
       style="fill:#231f20;fill-opacity:1;fill-rule:evenodd;stroke:none;stroke-width:0.264583"
       id="path1" />
  </g>
</svg>
