<?xml version="1.0" encoding="UTF-8" standalone="no"?>
<!-- Created with Inkscape (http://www.inkscape.org/) -->

<svg
   width="19.272144mm"
   height="6.2003818mm"
   viewBox="0 0 19.272144 6.2003818"
   version="1.1"
   id="svg1"
   xmlns="http://www.w3.org/2000/svg"
   xmlns:svg="http://www.w3.org/2000/svg">
  <defs
     id="defs1" />
  <g
     id="layer1"
     transform="translate(-185.12674,-13.765736)">
    <path
       d="m 196.65527,13.934899 c -0.0699,0.10654 -0.12171,0.362656 -0.0219,0.435327 0.0998,0.07338 0.24624,0.132998 0.24624,0.132998 -0.46566,0.570442 -0.78457,0.679802 -1.05692,0.839258 -0.0699,0.04092 -0.0561,0.07832 -0.0152,0.06668 0.0208,-0.0053 0.38806,-0.06244 0.81562,-0.387702 0.23213,-0.175331 0.37183,-0.47625 0.37183,-0.47625 0,0 0.11571,0.09666 0.13159,0.116417 0.0349,0.04374 0.054,0.07585 0.0709,0.02963 0.0607,-0.168629 -0.0254,-0.270229 -0.10724,-0.323146 0,0 0.085,-0.263525 -0.0716,-0.527402 -0.0265,-0.0441 -0.18239,-0.18556 -0.36336,0.09419 m 0.24412,0.07267 c 0.10442,0.09737 0.0889,0.257527 0.0843,0.294569 0,0 -0.1337,-0.06279 -0.19367,-0.08855 -0.0603,-0.02574 -0.0917,-0.06385 -0.0642,-0.1016 0.0928,-0.130175 0.13794,-0.125588 0.17357,-0.104421 m -7.34977,-0.143933 c -0.0617,0.03563 -2.35903,1.089025 -2.53683,1.223785 -0.0889,0.06773 -0.16474,0.176742 -0.19367,0.296685 -0.0423,0.173921 -0.004,0.348546 0.10936,0.370417 0.0794,0.01553 0.12312,0.06315 0.14217,0.09031 0.008,0.01164 0.0215,0.0039 0.0257,-0.0032 0.096,-0.176038 0.0176,-0.290338 -0.13476,-0.339373 -0.0607,-0.01976 -0.085,-0.105482 0.1457,-0.243417 0.21237,-0.127352 2.30575,-1.103135 2.35303,-1.134181 0.0635,-0.04163 0.1023,-0.0568 0.12841,-0.118534 0.0261,-0.06174 0.0328,-0.07302 0.0469,-0.11571 0.0148,-0.04586 0.03,-0.09419 -0.0861,-0.02681 m 13.62816,0.166862 c -0.0702,0.10654 -0.12242,0.362656 -0.0222,0.435329 0.10019,0.07338 0.24624,0.132644 0.24624,0.132644 -0.46567,0.571148 -1.38042,0.977193 -1.59808,1.146881 -0.0649,0.04904 -0.0561,0.07761 -0.0152,0.06668 0.0363,-0.0092 0.73307,-0.204613 1.37054,-0.750006 0.2921,-0.250473 0.28363,-0.269523 0.35807,-0.420865 0.0635,0.03246 0.10689,0.08537 0.13158,0.116065 0.0353,0.04374 0.0547,0.07549 0.0709,0.02998 0.061,-0.168979 -0.0254,-0.270933 -0.10759,-0.323495 0,0 0.0857,-0.263173 -0.0713,-0.527405 -0.0265,-0.0441 -0.18238,-0.18556 -0.363,0.09419 m 0.24341,0.07267 c 0.10513,0.09772 0.0889,0.257881 0.0847,0.294569 0,0 -0.13406,-0.06315 -0.19403,-0.0889 -0.0596,-0.0254 -0.091,-0.0635 -0.0631,-0.1016 0.0921,-0.129469 0.13759,-0.124884 0.17251,-0.104069 m -1.78823,-0.165452 c -0.18309,0.232833 -0.19473,0.538692 -0.21907,0.879827 -0.0265,-0.07161 -0.17216,-0.528815 -0.63994,-0.790927 -0.0339,-0.01905 -0.10301,0.01693 -0.10936,0.124529 -0.004,0.06315 -0.0215,0.215196 0.0226,0.258233 0.0441,0.04339 0.17497,0.128413 0.19685,0.140055 0.0219,0.01236 0.0448,0.01376 0.0519,-0.01236 0.007,-0.02612 0.0363,-0.08643 0.079,-0.04304 0.0353,0.03598 0.266,0.226483 0.38524,0.630415 0.0208,0.05327 0.0706,0.05856 0.0818,-0.01728 0.0279,-0.186621 0.0427,-0.511175 0.0579,-0.609954 0.0208,-0.137935 0.0864,-0.422979 0.26176,-0.274812 0.0395,0.03387 0.0822,0.07796 0.0822,0.07796 0.037,0.04657 0.0836,0.10019 0.10618,0.04622 0.0342,-0.08184 0.0621,-0.217311 0.0247,-0.290336 -0.0166,-0.0321 -0.23354,-0.306916 -0.38171,-0.118533 m -9.45832,0.01376 c -0.18062,0.233186 -0.19156,0.539044 -0.21555,0.880179 -0.0257,-0.07161 -0.17004,-0.529166 -0.63041,-0.791279 -0.0335,-0.01871 -0.10125,0.01728 -0.1076,0.124884 -0.004,0.06314 -0.0219,0.215193 0.0219,0.258585 0.0434,0.04268 0.17251,0.128058 0.19368,0.1397 0.0219,0.01236 0.0448,0.0141 0.0515,-0.01199 0.006,-0.02681 0.036,-0.08678 0.0776,-0.04339 0.03,0.03069 0.27657,0.247295 0.35172,0.543277 0.0624,0.257175 -0.5708,0.776816 -0.60361,0.800806 -0.0593,0.04198 -0.0406,0.06949 -0.0127,0.05468 0.0275,-0.01447 0.055,-0.01905 0.37959,-0.233185 0.26176,-0.172861 0.31644,-0.372886 0.33902,-0.526344 0.002,-0.0074 0.005,-0.01622 0.007,-0.02611 0.0268,-0.186619 0.0416,-0.511175 0.0564,-0.609952 0.0205,-0.137584 0.0854,-0.422982 0.25823,-0.275167 0.0388,0.03387 0.0804,0.07832 0.0804,0.07832 0.037,0.04692 0.0829,0.100187 0.10513,0.04621 0.0339,-0.08149 0.061,-0.216958 0.0236,-0.289983 -0.0159,-0.03245 -0.23001,-0.306917 -0.37571,-0.119238 m 7.65775,-0.02506 c -0.0674,0.03951 -1.78753,1.032582 -1.85738,1.077384 -0.0698,0.0448 -0.0942,0.05644 -0.10513,0.110066 -0.0113,0.05398 -0.0169,0.08502 -0.0201,0.09349 -0.0127,0.03634 -0.0219,0.08043 0.0808,0.01341 0.0325,-0.02082 1.76248,-1.020585 1.8228,-1.058685 0.0582,-0.03598 0.0917,-0.05151 0.11536,-0.107598 0.0229,-0.05539 0.0293,-0.06527 0.0416,-0.103717 0.0134,-0.04198 0.0265,-0.08537 -0.078,-0.02434 m -4.93819,0.0099 c -0.0166,0.03951 -0.13723,0.33655 -0.13723,0.33655 0.002,0.01693 0.036,0.146757 0.0423,0.195088 0.0508,0.385585 0.33938,2.471912 0.47061,3.469921 -0.55774,-0.04551 -1.12501,-0.1016 -1.27353,-0.141463 0.0497,-0.08008 0.12947,-0.341137 0.0903,-0.621241 -0.0392,-0.280107 -0.40075,-2.33539 -0.40075,-2.33539 0,0 0.19791,0.184856 0.22966,0.218723 0.031,0.03351 0.0699,0.01587 0.0515,-0.0381 -0.018,-0.05433 -0.42157,-1.030465 -0.43462,-1.064683 -0.0134,-0.03387 -0.0265,-0.05821 -0.0423,-0.01939 -0.0162,0.03951 -0.14605,0.324908 -0.14605,0.324908 0.003,0.02363 0.0339,0.09349 0.055,0.237421 0.0219,0.149929 0.20885,1.26365 0.32456,1.974496 0,0 0.18238,0.964496 0.14464,1.121129 -0.0141,0.03739 -0.81175,0.09525 -1.03788,0.141817 -0.0579,0.02045 -0.078,0.0321 -0.11324,0.07832 -0.0346,0.04621 -0.11289,0.197202 -0.13335,0.264228 -0.0201,0.06632 0.0265,0.09243 0.0642,0.07232 0.0374,-0.02045 0.22472,-0.171098 1.97238,0.186264 -0.15558,0.08396 -1.63019,0.823383 -2.57069,0.802216 -0.18521,-0.0039 -1.18922,-0.0088 -1.34903,-1.242835 -0.0243,-0.189442 -0.2226,-1.949095 -0.25188,-2.239433 -0.0296,-0.289629 -0.17639,-1.293987 -0.29422,-1.633712 -0.0374,-0.13053 -0.0628,-0.101248 -0.10089,-0.0381 -0.0374,0.06315 -0.0459,0.155575 -0.0713,0.222602 -0.0251,0.06738 -0.0169,0.105126 0,0.180975 0.0169,0.07549 0.25047,1.498248 0.34607,2.226026 0.0279,0.28575 0.17357,1.601965 0.2914,2.00519 0.0949,0.291042 0.4198,1.04775 1.66299,0.9017 0.23566,-0.01659 0.98425,-0.165806 2.04999,-0.688975 0.16405,-0.08008 0.55281,-0.283633 1.00048,-0.390525 0.0367,0.305504 0.0632,0.569384 0.0677,0.724959 -0.005,0.05856 0.0208,0.08043 0.0476,0.024 0.0145,-0.03069 0.0748,-0.155575 0.0935,-0.48401 0.005,-0.08573 0.006,-0.188031 0.002,-0.306565 0.24659,-0.0388 0.50306,-0.04022 0.74365,0.02928 0.0677,-0.100894 0.19615,-0.414512 0.19615,-0.414512 -0.0931,0.0024 -0.50589,-0.02257 -0.9712,-0.05821 -0.012,-0.122063 -0.0272,-0.254354 -0.0466,-0.397229 -0.0102,-0.0762 -0.37535,-2.720269 -0.37535,-2.720269 0,0 0.19685,0.184857 0.2286,0.218723 0.0321,0.03351 0.0702,0.01587 0.0526,-0.0381 -0.0183,-0.05433 -0.42227,-1.030464 -0.43533,-1.064683 -0.013,-0.03387 -0.0257,-0.05821 -0.0423,-0.01939 m -1.70603,1.853496 c -0.0819,0.04974 -1.90465,0.936625 -1.98896,0.993421 -0.0847,0.05609 -0.11466,0.07056 -0.12736,0.136879 -0.0127,0.06632 -0.019,0.104421 -0.0222,0.115358 -0.0148,0.04445 -0.0251,0.09878 0.0995,0.01482 0.0388,-0.02681 1.87748,-0.922515 1.94698,-0.969433 0.0695,-0.04763 0.11148,-0.06597 0.13935,-0.134763 0.0272,-0.06879 0.0346,-0.08114 0.049,-0.128762 0.0155,-0.0508 0.0307,-0.104775 -0.0963,-0.02752 m -1.3896,1.613958 c -0.0367,0.08855 -0.18767,0.3937 -0.16474,0.753179 0.005,0.08326 0.0607,0.245182 0.18591,0.249415 0.0649,0 0.14817,-0.04692 0.20779,-0.250473 0.01,-0.04621 0.0166,-0.0829 0.0208,-0.101246 0.006,-0.02716 -0.0138,-0.05997 -0.0349,0.0032 -0.0473,0.124529 -0.17039,0.212019 -0.26247,0.0448 -0.0152,-0.03351 -0.0773,-0.184502 0.037,-0.51576 0.0229,-0.06421 0.0522,-0.159808 0.0522,-0.159808 0.0254,-0.07232 -0.005,-0.111832 -0.0416,-0.02328 M 186.41632,14.1861 c -0.17428,0.221191 -0.18521,0.512588 -0.20849,0.837141 -0.0243,-0.06808 -0.16334,-0.50306 -0.60819,-0.752475 -0.0325,-0.01799 -0.0981,0.01659 -0.10407,0.118888 -0.004,0.05962 -0.0208,0.20461 0.0212,0.245534 0.0423,0.04128 0.16651,0.121708 0.18697,0.132995 0.0212,0.01164 0.0434,0.01304 0.0497,-0.01164 0.006,-0.02506 0.0346,-0.08255 0.0748,-0.04128 0.0339,0.03457 0.25329,0.2159 0.36689,0.600075 0.0198,0.0508 0.067,0.05539 0.078,-0.01659 0.0265,-0.1778 0.0402,-0.486481 0.0547,-0.579967 0.0198,-0.131588 0.0829,-0.402873 0.24941,-0.262114 0.0377,0.03246 0.078,0.07443 0.078,0.07443 0.0353,0.04445 0.0797,0.0956 0.10124,0.0441 0.0325,-0.07761 0.0589,-0.206375 0.0229,-0.275873 -0.0155,-0.03104 -0.22225,-0.2921 -0.36301,-0.113242 m 2.65148,0.615598 c -0.0254,0.07902 -0.0445,0.140052 -0.01,0.231423 0.0346,0.09066 0.12771,0.296334 0.14288,0.325612 0.0155,0.02963 0.0194,0.06244 -0.0317,0.08432 -0.0512,0.02188 -0.28505,0.07161 -0.32844,-0.1778 -0.0434,-0.24906 -0.0473,-0.321733 -0.0688,-0.364067 -0.0222,-0.04198 -0.0427,-0.04727 -0.0589,-0.0053 -0.0166,0.04233 -0.0272,0.129116 -0.0296,0.143227 -0.002,0.0141 -0.002,0.02434 0.006,0.03986 0.009,0.01516 0.10231,0.293865 0.06,0.370417 -0.042,0.07691 -0.25153,0.214842 -0.36159,0.07056 -0.0522,-0.100897 -0.0205,-0.356659 -0.0205,-0.416984 0,-0.05997 -0.019,-0.08043 -0.0448,-0.03175 -0.0254,0.04868 -0.0395,0.08043 -0.0381,0.124177 0.001,0.04304 0.007,0.229658 0.004,0.288573 -0.004,0.05856 0,0.249412 0.11254,0.303387 0.11254,0.05327 0.27623,0.0032 0.40005,-0.230716 0.096,0.139348 0.24165,0.140054 0.31962,0.111479 0.0663,-0.02434 0.14076,-0.124179 0.16263,-0.262115 0.0212,-0.137935 -0.0141,-0.232833 -0.0575,-0.310443 -0.0575,-0.09596 -0.096,-0.257175 -0.096,-0.257175 -0.0204,-0.05715 -0.036,-0.116417 -0.0617,-0.03669 m 11.09557,0.479777 c -0.0349,0.08432 -0.17886,0.37465 -0.15734,0.717198 0.006,0.07937 0.0575,0.23354 0.17709,0.237419 0.0617,0 0.14147,-0.0448 0.19791,-0.238477 0.01,-0.04374 0.0159,-0.07902 0.0198,-0.09596 0.006,-0.02611 -0.0134,-0.05715 -0.0332,0.0028 -0.0452,0.118534 -0.16192,0.201436 -0.24976,0.04233 -0.0145,-0.03175 -0.0734,-0.175684 0.0349,-0.491067 0.0219,-0.06103 0.0497,-0.1524 0.0497,-0.1524 0.0243,-0.06844 -0.005,-0.105833 -0.0392,-0.02188 m 3.30693,0.173215 c -0.0321,0.07796 -0.16545,0.347133 -0.14534,0.664281 0.005,0.07302 0.054,0.2159 0.16404,0.219427 0.0568,0 0.13053,-0.04128 0.18274,-0.22084 0.009,-0.04057 0.0152,-0.07302 0.019,-0.0889 0.005,-0.024 -0.0127,-0.05292 -0.031,0.0024 -0.0416,0.110066 -0.14993,0.186618 -0.23143,0.03951 -0.013,-0.02928 -0.0681,-0.162983 0.0328,-0.454377 0.0201,-0.05645 0.0459,-0.140758 0.0459,-0.140758 0.0229,-0.06421 -0.005,-0.09878 -0.0367,-0.02082 m -6.20641,0.0085 -0.16828,0.230716 -0.32314,-0.235302 c -0.008,-0.0064 -0.0194,-0.0042 -0.0258,0.0046 l -0.19508,0.267052 c -0.006,0.0088 -0.004,0.02045 0.004,0.02646 l 0.33231,0.242713 c 0.008,0.0056 0.0201,0.0035 0.0265,-0.0053 l 0.16828,-0.230717 0.32244,0.236009 c 0.008,0.0056 0.0201,0.0035 0.0261,-0.0053 L 197.626,15.72693 c 0.006,-0.0085 0.005,-0.02011 -0.003,-0.02612 l -0.33267,-0.242358 c -0.008,-0.0063 -0.0198,-0.0042 -0.0257,0.0046 m 1.30352,0.415925 c -0.0134,0.04516 -0.0459,0.23989 -0.0536,0.279752 -0.008,0.04022 -0.007,0.08008 0.0123,0.1143 0.0198,0.03387 0.0706,0.1524 0.10725,0.249063 0.036,0.09595 0.41416,0.824087 0.44908,0.888645 0.0346,0.06456 0.042,0.112184 0.007,0.155223 -1.2132,1.279525 -3.55318,2.066571 -3.62832,2.109611 -0.0744,0.04339 -0.0547,0.07761 0.0713,0.05503 0.18838,-0.03281 1.23966,-0.208844 1.53917,-0.353131 0.19756,-0.0949 0.88759,-0.433917 1.45239,-0.8763 -0.0155,0.1143 -0.0303,0.282223 -0.0219,0.4953 0.0377,1.029054 0.95779,0.858662 1.19944,0.805039 0.7239,-0.15875 1.60867,-1.158875 1.68381,-1.359958 0.0741,-0.198612 0.085,-0.379235 0.0684,-0.537279 0.1905,-0.103365 0.59972,-0.433565 0.59972,-0.433565 0.0169,0.439209 0.36618,0.570794 0.47378,0.589844 0.50306,0.07655 0.75565,-0.344662 0.8629,-0.480835 0.0917,0.240593 0.3122,0.28716 0.4258,0.310091 0.43462,0.08608 0.51894,-0.221191 0.54151,-0.291748 0.13582,-0.423333 -0.10901,-0.739068 -0.14076,-0.773993 -0.0318,-0.03528 -0.048,-0.0019 -0.0589,0.03881 -0.0109,0.04092 -0.0462,0.193675 -0.0681,0.289277 0,0 0.0907,0.147815 0.12312,0.223308 0.0325,0.07549 -0.0155,0.116769 -0.10936,0.128059 -0.26423,0.0321 -0.47484,-0.11924 -0.54751,-0.188735 -0.0727,-0.07056 0.006,-0.19403 0.0646,-0.34149 0.0466,-0.117827 -0.0402,-0.132292 -0.10689,-2.65e-4 -0.22402,0.588785 -0.53869,0.652637 -0.62124,0.675217 -0.74613,0.2032 -0.68192,-0.478721 -0.67945,-0.590905 0.002,-0.111477 -0.079,-0.0702 -0.17075,0.0035 -0.31397,0.251884 -0.56727,0.40005 -0.70308,0.461079 -0.11677,-0.229304 -0.28716,-0.373237 -0.35913,-0.42545 -0.80716,-0.588079 -0.87383,0.599723 -0.84949,0.727075 0.12277,0.505177 0.94756,0.198967 1.07738,0.183798 0.12912,-0.01482 0.0871,0.155575 0.0145,0.256821 -0.17921,0.250473 -0.38558,0.430037 -0.57291,0.582083 -0.79974,0.652992 -1.20121,0.60184 -1.32432,0.597606 -0.78564,-0.02257 -0.71367,-0.868539 -0.66958,-1.049514 0.23601,-0.200023 0.43921,-0.418039 0.55669,-0.641702 0.0483,-0.122767 0.13088,-0.401812 -0.0183,-0.752121 -0.0787,-0.153813 -0.32632,-0.585613 -0.32632,-0.585613 0,0 0.18239,0.0053 0.19967,0.0053 0.0173,0 0.0519,-0.01871 0.007,-0.06949 -0.0441,-0.0508 -0.42757,-0.433565 -0.4505,-0.464257 -0.0233,-0.03069 -0.0448,-0.05292 -0.0571,-0.0074 m 2.42182,1.752248 c 0,0 -0.10971,0.0635 -0.41733,0.04268 -0.25788,-0.01728 -0.23566,-0.117827 -0.20038,-0.155927 0.0385,-0.04127 0.35384,-0.240241 0.61771,0.113242 m -15.68979,-1.62951 c -0.042,0.143581 -0.22331,0.639585 -0.1591,1.208616 0.0148,0.131585 0.10513,0.384527 0.27834,0.381352 0.0892,-0.0056 0.20038,-0.08608 0.26388,-0.413808 0.01,-0.07373 0.0155,-0.132996 0.0198,-0.161571 0.006,-0.0441 -0.0243,-0.0949 -0.0476,0.0071 -0.0543,0.201438 -0.2159,0.34925 -0.35807,0.09102 -0.0233,-0.0508 -0.12312,-0.286453 0.005,-0.820912 0.0257,-0.103365 0.0571,-0.257529 0.0571,-0.257529 0.0293,-0.117121 -0.0169,-0.177094 -0.0589,-0.03422 m 3.96452,-0.03669 -0.16828,0.230717 -0.32314,-0.235654 c -0.008,-0.0056 -0.0198,-0.0039 -0.0261,0.0049 l -0.19474,0.267406 c -0.006,0.0085 -0.005,0.02011 0.003,0.02611 l 0.33302,0.24271 c 0.008,0.0056 0.0194,0.0035 0.0257,-0.0049 l 0.16793,-0.230716 0.32314,0.235656 c 0.008,0.0056 0.0198,0.0035 0.0261,-0.0049 l 0.19474,-0.267403 c 0.006,-0.0085 0.005,-0.02011 -0.003,-0.02612 l -0.33302,-0.24271 c -0.008,-0.0056 -0.0194,-0.0039 -0.0254,0.0049 m 8.40881,0.2413 c -0.0533,0.06668 -0.58984,0.770466 -0.58984,0.770466 l -0.38982,-0.278341 c 0,0 0.1591,-0.03986 0.18662,-0.04763 0.0279,-0.0085 0.0437,-0.0441 -0.006,-0.06985 -0.0497,-0.02574 -0.52,-0.213077 -0.55598,-0.227894 -0.0356,-0.01447 -0.0483,-0.03069 -0.0519,0.0078 -0.003,0.03775 -0.008,0.347488 -0.008,0.347488 0,0 -0.007,0.02117 0.0339,0.04515 0.0409,0.02294 0.0811,0.07303 0.11465,0.106892 0.0339,0.03316 0.47131,0.378531 0.49248,0.390525 0,0 -0.21872,0.384529 -0.24659,0.685096 -0.0282,0.30127 0.006,0.716843 0.41663,0.582787 0.11077,-0.03175 0.5715,-0.215194 0.67451,-0.53622 0.0335,-0.118534 0.12806,-0.331965 -0.0265,-0.548924 -0.0889,-0.127706 -0.44838,-0.342548 -0.44838,-0.342548 0,0 0.27587,-0.382058 0.30233,-0.428625 0.0261,-0.04692 0.12806,-0.343252 0.13935,-0.414512 0.0113,-0.07162 0.0162,-0.107246 -0.0367,-0.04163 m -0.0945,1.623131 c -0.15276,0.125942 -0.47378,0.291748 -0.56374,0.300215 -0.0903,0.0092 -0.32985,-0.03492 -0.22578,-0.280458 0.0356,-0.07937 0.27481,-0.488599 0.27481,-0.488599 0.0896,0.04868 0.66781,0.343252 0.51471,0.468842 m -10.37978,-1.203325 -0.16828,0.231069 -0.32314,-0.235654 c -0.008,-0.0056 -0.0194,-0.0035 -0.0258,0.0046 l -0.19508,0.267759 c -0.006,0.0085 -0.005,0.02011 0.004,0.02611 l 0.33267,0.242358 c 0.008,0.006 0.0198,0.0039 0.0257,-0.0046 l 0.16827,-0.230717 0.32315,0.235305 c 0.008,0.006 0.0198,0.0039 0.0257,-0.0046 l 0.19509,-0.267404 c 0.006,-0.0085 0.005,-0.02045 -0.004,-0.02612 l -0.33267,-0.24271 c -0.008,-0.0056 -0.0198,-0.0035 -0.0257,0.0046 m 1.59349,0.29704 c -0.0617,0.05397 -0.35736,0.486127 -0.0885,0.837846 0.043,0.05645 0.25223,0.142523 0.53975,0.08361 0.0882,-0.01834 0.39511,-0.04057 0.47801,0.201083 0.0201,0.05786 0.0349,0.07267 -0.0215,0.125942 -0.0564,0.05397 -0.75988,0.497065 -1.43687,0.317148 -0.0963,-0.0254 -0.45649,-0.153106 -0.66322,-0.6604 -0.0296,-0.07232 -0.0938,-0.222956 -0.28434,-0.153458 -0.19085,0.06985 -0.50764,0.201435 -0.73589,0.636762 -0.0381,0.07232 -0.266,0.719667 -0.30621,0.797631 -0.0406,0.07796 -0.20814,0.358423 -0.47131,0.159809 -0.10654,-0.08043 -0.54116,-0.420159 -0.4445,-1.255536 0.008,-0.07197 -0.0243,-0.142168 -0.0589,-0.04833 -0.0349,0.09384 -0.24835,1.434748 0.66323,1.737431 0.0624,0.02117 0.26564,0.03775 0.36512,-0.2413 0.0296,-0.08431 0.26776,-0.9398 0.66428,-1.237191 0.0392,-0.02963 0.2152,-0.13476 0.31891,-0.159102 0.067,-0.01553 0.13441,0 0.1771,0.09313 0.0914,0.201787 0.32208,0.892173 1.31304,0.746829 0.14464,-0.02117 1.06221,-0.1651 1.0929,-0.714375 0.0307,-0.550333 -0.17956,-0.926042 -0.25047,-1.029758 -0.23248,-0.343959 -0.56303,-0.487537 -0.85055,-0.237771 m 0.6851,0.553509 c 0,0 -0.13688,-0.03775 -0.23637,-0.01341 -0.0787,0.01871 -0.18273,0.06138 -0.31996,0.0053 -0.14006,-0.05786 -0.0794,-0.188384 0.0243,-0.246944 0.11818,-0.06703 0.37606,-0.02188 0.53199,0.255059 m 14.33194,0.914751 c -0.031,0.08643 -0.043,0.143227 -0.0402,0.175684 0.004,0.03281 0.0148,0.139345 0.0148,0.139345 -0.0321,0.02612 -0.16862,0.111125 -0.3055,0.01058 0.009,-0.02928 0.0268,-0.0889 0.031,-0.121354 0.0145,-0.0508 -0.0166,-0.0882 -0.0409,-0.03598 -0.0257,0.05256 -0.0833,0.228246 -0.12664,0.267759 -0.043,0.03916 -0.0931,0.184502 -0.41946,0.03704 -0.0568,-0.02188 -0.15663,-0.09596 -0.31256,0.06033 -0.35278,0.328084 -0.59584,0.353484 -0.99131,0.493888 -0.0476,0.02222 -0.14816,0.09737 -0.0289,0.08573 0.11888,-0.01199 0.61983,2.64e-4 0.89288,-0.312913 0.0568,-0.05503 0.12241,-0.201437 0.33902,-0.116771 0.11994,0.04551 0.34184,0.235657 0.58349,-0.140404 0.14217,0.09525 0.35878,0.0575 0.393,-0.04763 0.0346,-0.104423 0.0744,-0.208846 0.0741,-0.279754 -7.9e-4,-0.07091 -0.006,-0.1651 -0.006,-0.1651 -0.005,-0.05574 -0.0251,-0.136877 -0.0564,-0.05045 m -13.70858,0.283279 c -0.036,0.08855 -0.18768,0.3937 -0.16475,0.753534 0.006,0.0829 0.0607,0.244829 0.18591,0.249062 0.0646,0 0.14852,-0.04727 0.20779,-0.250121 0.0106,-0.04657 0.0166,-0.0829 0.0212,-0.100893 0.006,-0.02787 -0.0141,-0.06032 -0.0349,0.0028 -0.0473,0.124529 -0.17074,0.211666 -0.26282,0.0448 -0.0148,-0.03316 -0.0769,-0.184857 0.0374,-0.515409 0.0226,-0.06491 0.0515,-0.16016 0.0515,-0.16016 0.0261,-0.07267 -0.005,-0.112183 -0.0413,-0.02363 m 4.72192,0.145346 c -0.0363,0.08854 -0.18767,0.3937 -0.16439,0.753533 0.005,0.0829 0.0603,0.244827 0.18556,0.249061 0.0649,0 0.14817,-0.04727 0.20779,-0.250474 0.0106,-0.04621 0.0169,-0.08255 0.0212,-0.100541 0.006,-0.02787 -0.0141,-0.06033 -0.0349,0.0028 -0.0473,0.124531 -0.17039,0.211315 -0.26282,0.0448 -0.0148,-0.03351 -0.0773,-0.184854 0.0374,-0.515761 0.0226,-0.06456 0.0519,-0.159808 0.0519,-0.159808 0.0254,-0.07267 -0.005,-0.112183 -0.0416,-0.02363 m -6.66269,0.438848 c -0.0741,0.02469 -1.29222,0.436388 -1.37477,0.469197 -0.0769,0.03069 -0.0977,0.05044 -0.11219,0.103362 -0.0148,0.05292 -0.0222,0.08361 -0.0257,0.09208 -0.0148,0.03528 -0.0335,0.06526 0.0801,0.01833 0.055,-0.02257 1.26083,-0.418396 1.33914,-0.452614 0.0624,-0.02752 0.0949,-0.04551 0.12171,-0.09984 0.0268,-0.05433 0.0335,-0.06421 0.048,-0.102306 0.0162,-0.04022 0.0353,-0.06456 -0.0762,-0.02822"
       style="fill:#231f20;fill-opacity:1;fill-rule:evenodd;stroke:none;stroke-width:0.264583"
       id="path1" />
  </g>
</svg>
