<?xml version="1.0" encoding="UTF-8" standalone="no"?>
<!-- Created with Inkscape (http://www.inkscape.org/) -->

<svg
   width="20.479038mm"
   height="6.7424788mm"
   viewBox="0 0 20.479038 6.7424788"
   version="1.1"
   id="svg1"
   xmlns:inkscape="http://www.inkscape.org/namespaces/inkscape"
   xmlns:sodipodi="http://sodipodi.sourceforge.net/DTD/sodipodi-0.dtd"
   xmlns="http://www.w3.org/2000/svg"
   xmlns:svg="http://www.w3.org/2000/svg">
  <sodipodi:namedview
     id="namedview1"
     pagecolor="#ffffff"
     bordercolor="#666666"
     borderopacity="1.0"
     inkscape:showpageshadow="2"
     inkscape:pageopacity="0.0"
     inkscape:pagecheckerboard="0"
     inkscape:deskcolor="#d1d1d1"
     inkscape:document-units="mm" />
  <defs
     id="defs1" />
  <g
     inkscape:label="Layer 1"
     inkscape:groupmode="layer"
     id="layer1"
     transform="translate(-95.098421,-49.878108)">
    <path
       d="m 103.06921,49.909518 c -0.0772,0.04163 -1.21779,0.587375 -1.29751,0.635703 -0.0804,0.04727 -0.10866,0.05962 -0.12312,0.119592 -0.0148,0.05997 -0.0226,0.09455 -0.0261,0.104423 -0.0155,0.03986 -0.0272,0.08961 0.0907,0.01834 0.037,-0.02257 1.19204,-0.575379 1.25801,-0.61595 0.066,-0.04022 0.10548,-0.05468 0.13406,-0.116769 0.0282,-0.06173 0.0353,-0.07267 0.0508,-0.11571 0.0166,-0.04586 0.0332,-0.09455 -0.0868,-0.02963 m -2.82539,0.33937 c -0.0268,0.08114 -0.14217,0.362305 -0.0988,0.680863 0.0102,0.07338 0.0695,0.214135 0.18097,0.210254 0.0575,-0.0046 0.12912,-0.0515 0.16898,-0.23636 0.006,-0.04163 0.01,-0.07479 0.0124,-0.09102 0.004,-0.02469 -0.0162,-0.05257 -0.0307,0.0049 -0.0342,0.113593 -0.13829,0.198966 -0.23107,0.05609 -0.0155,-0.02858 -0.0801,-0.159104 2.6e-4,-0.460729 0.0162,-0.05891 0.036,-0.14605 0.036,-0.14605 0.0183,-0.06597 -0.0117,-0.09878 -0.0381,-0.01799 m 7.59072,0.414163 c -0.0702,0.106185 -0.12242,0.362302 -0.0222,0.435327 0.0998,0.07338 0.24624,0.132643 0.24624,0.132643 -0.46602,0.571149 -0.78458,0.679805 -1.05692,0.839613 -0.0702,0.04092 -0.0565,0.07761 -0.0152,0.06668 0.0212,-0.0056 0.3877,-0.06244 0.81597,-0.387704 0.23142,-0.175684 0.37148,-0.47625 0.37148,-0.47625 0,0 0.11606,0.09666 0.13193,0.116416 0.0346,0.04339 0.054,0.0755 0.0706,0.02963 0.0607,-0.168979 -0.0254,-0.270934 -0.1076,-0.323144 0,0 0.0857,-0.263525 -0.0716,-0.527402 -0.0261,-0.0441 -0.18203,-0.185563 -0.36266,0.09419 m 0.24342,0.07232 c 0.10513,0.09772 0.0889,0.257881 0.0847,0.294568 0,0 -0.13406,-0.06279 -0.19403,-0.08819 -0.0596,-0.02574 -0.091,-0.06385 -0.0635,-0.101952 0.0924,-0.130175 0.13793,-0.125238 0.17286,-0.104423 m -3.66889,-0.12065 c -0.11747,0.224014 -0.0797,0.4826 -0.0469,0.772935 -0.0328,-0.05609 -0.22683,-0.417335 -0.6604,-0.564444 -0.0314,-0.01058 -0.084,0.03069 -0.0723,0.121709 0.006,0.05362 0.0152,0.184501 0.0593,0.213783 0.0437,0.02928 0.16651,0.08008 0.18662,0.08678 0.0204,0.0067 0.0406,0.0046 0.042,-0.01871 0.001,-0.02294 0.0169,-0.07832 0.0593,-0.04868 0.0356,0.02468 0.25858,0.148873 0.42227,0.469548 0.0257,0.04163 0.0681,0.03845 0.066,-0.02752 -0.006,-0.160866 -0.0441,-0.435681 -0.0469,-0.5207 -0.004,-0.119591 0.007,-0.369006 0.17745,-0.272343 0.0381,0.02223 0.0808,0.05292 0.0808,0.05292 0.0385,0.03351 0.0861,0.07126 0.0967,0.02257 0.0159,-0.07408 0.0183,-0.192264 -0.0247,-0.247298 -0.019,-0.02506 -0.24412,-0.221895 -0.33902,-0.04057 m -5.199946,-0.05045 c -0.01516,0.03951 -0.103362,0.306212 -0.103362,0.306212 0.03104,0.170744 0.255059,1.422752 0.273754,1.547988 0.01871,0.124883 0.498123,2.257073 0.412046,3.119966 -0.0028,0.05892 0.02363,0.08008 0.04868,0.02294 0.0254,-0.0575 0.304098,-0.563386 -0.02469,-2.193925 -0.01939,-0.116769 -0.38382,-1.906411 -0.38382,-1.906411 0,0 0.202493,0.179562 0.235301,0.212019 0.03246,0.03281 0.0702,0.01376 0.0508,-0.03951 -0.01976,-0.05327 -0.451556,-1.017765 -0.465666,-1.05128 -0.0141,-0.03316 -0.02787,-0.0575 -0.04304,-0.01799 m -2.326569,0.07585 c -0.147814,0.220133 -0.137583,0.493889 -0.136525,0.8001 -0.02787,-0.06244 -0.189089,-0.460727 -0.62371,-0.663223 -0.0314,-0.01482 -0.09067,0.02222 -0.08925,0.118887 7.93e-4,0.05609 -0.0049,0.193321 0.03704,0.228952 0.04269,0.03563 0.164748,0.102659 0.184857,0.111832 0.02045,0.0092 0.04163,0.0092 0.04586,-0.01447 0.0039,-0.024 0.02434,-0.07726 0.06738,-0.0441 0.194382,0.148167 0.294569,0.289631 0.347486,0.3937 0.131588,0.223663 -0.02363,0.420158 -0.08608,0.509413 -0.07302,0.103716 -0.383823,0.372179 -0.459669,0.481541 -0.0755,0.109361 0.165452,-0.04198 0.454025,-0.299862 0.288571,-0.257527 0.209902,-1.002946 0.212725,-1.116894 0.0095,-0.124883 0.04939,-0.383469 0.2159,-0.263173 0.03775,0.02752 0.07796,0.06421 0.07796,0.06421 0.03634,0.03951 0.08185,0.08396 0.09843,0.03422 0.02506,-0.07514 0.04057,-0.197554 0.0021,-0.26035 -0.01693,-0.02787 -0.2286,-0.258585 -0.348544,-0.08078 m 5.799317,-0.03246 c -0.16757,0.07056 -0.34184,0.317855 -0.28505,0.419455 0.048,0.08608 0.1517,0.166158 0.1517,0.166158 -0.0536,0.02681 -0.11183,0.03986 -0.13017,0.09313 -0.0183,0.05327 -0.0243,0.08573 -0.0265,0.105127 -0.002,0.01976 -0.007,0.03457 0.0251,0.02752 0.0321,-0.0074 0.0466,-0.01236 0.0466,-0.01236 0.13335,-0.0515 0.42369,-0.19332 0.67875,-0.239887 0.007,-0.0013 0.0261,-0.07691 0.0353,-0.117475 0.01,-0.04092 -0.0332,-0.03916 -0.10124,-0.02752 -0.0677,0.01164 -0.31433,0.07055 -0.43815,-0.04586 -0.10654,-0.100187 -0.11889,-0.1397 -0.0783,-0.16157 0.0409,-0.02188 0.15557,-0.08996 0.2226,0.0042 0.0356,0.05009 0.0674,0.05221 0.0854,0.02117 0.0176,-0.03105 0.0776,-0.112538 0.0628,-0.147463 -0.0148,-0.03528 -0.0815,-0.15522 -0.24871,-0.08467 m 11.67483,0.15099 c -0.0702,0.106185 -0.12242,0.362302 -0.0222,0.435327 0.10019,0.07338 0.24624,0.132646 0.24624,0.132646 -0.46567,0.571146 -1.38042,0.976842 -1.59808,1.146527 -0.0649,0.04939 -0.0561,0.07832 -0.0152,0.06738 0.0363,-0.01024 0.73342,-0.204964 1.37054,-0.750712 0.2921,-0.250471 0.28363,-0.268817 0.35807,-0.420511 0.0635,0.03246 0.10689,0.08502 0.13158,0.116065 0.0353,0.04339 0.0543,0.07549 0.0713,0.02963 0.0607,-0.168981 -0.0257,-0.270933 -0.10759,-0.323146 0,0 0.0854,-0.263525 -0.0716,-0.527402 -0.0264,-0.0441 -0.18238,-0.18556 -0.363,0.09419 m 0.24376,0.07232 c 0.10478,0.09772 0.0889,0.257881 0.0847,0.294571 0,0 -0.13405,-0.0628 -0.19438,-0.0882 -0.0596,-0.02574 -0.0914,-0.06385 -0.0632,-0.101952 0.0921,-0.129823 0.13759,-0.125235 0.17286,-0.104423 m -8.3192,-0.220134 c -0.0173,0.03881 -0.1457,0.332317 -0.1457,0.332317 0.002,0.01765 0.0321,0.148167 0.0374,0.19685 0.0448,0.429683 0.32914,2.969331 0.40887,3.7719 0.0395,0.395465 0.0688,0.750358 0.0691,0.940858 -0.006,0.05856 0.0191,0.08114 0.0473,0.0254 0.0155,-0.02998 0.079,-0.153458 0.10619,-0.481541 0.0205,-0.245886 0.0106,-0.625475 -0.0462,-1.148292 -0.008,-0.07655 -0.30445,-2.729442 -0.30445,-2.729442 0,0 0.19226,0.1905 0.22331,0.224721 0.031,0.03457 0.0695,0.01728 0.0529,-0.03669 -0.0166,-0.05433 -0.39476,-1.0414 -0.4071,-1.075619 -0.012,-0.03387 -0.024,-0.05891 -0.0416,-0.02045 m 6.53062,0.05468 c -0.18344,0.232834 -0.19508,0.538692 -0.21943,0.879827 -0.0254,-0.07161 -0.1718,-0.528812 -0.63923,-0.790927 -0.0339,-0.01905 -0.10301,0.01728 -0.10936,0.124884 -0.004,0.06279 -0.0219,0.215193 0.0222,0.258585 0.0445,0.04304 0.17463,0.127706 0.1965,0.1397 0.0222,0.01199 0.0455,0.01376 0.0522,-0.01236 0.007,-0.02646 0.0363,-0.08678 0.079,-0.04339 0.0353,0.03598 0.26564,0.226483 0.38558,0.630767 0.0204,0.05327 0.0702,0.05856 0.0818,-0.01765 0.0272,-0.186618 0.0427,-0.511175 0.0572,-0.6096 0.0208,-0.137935 0.0871,-0.422981 0.26246,-0.275167 0.0395,0.03352 0.0815,0.07796 0.0815,0.07796 0.0374,0.04692 0.084,0.100542 0.10654,0.04657 0.0346,-0.08185 0.0624,-0.217313 0.0247,-0.290338 -0.0169,-0.03245 -0.23389,-0.306917 -0.38171,-0.118885 m -7.47853,-0.02612 c -0.018,0.03669 -0.13724,0.29704 -0.13724,0.29704 0.012,0.09701 0.20285,1.470377 0.32139,2.549173 0.0183,0.168627 0.15804,1.10631 0.11782,1.304925 -0.01,0.04903 -0.043,0.129117 -0.11218,0.230362 0.0145,-0.187325 0.001,-0.509058 -0.17251,-0.91087 -0.29809,-0.686858 -1.4866,-1.388181 -1.90535,-2.052815 -0.004,-0.0071 -0.004,-0.01447 -0.004,-0.01447 0,0 0.1718,0.04269 0.20179,0.0501 0.0466,0.0113 0.115,0.01024 0.0691,-0.03246 -0.0462,-0.04233 -0.67557,-0.466018 -0.73942,-0.51576 -0.0639,-0.04974 -0.0903,-0.08502 -0.0917,-0.03563 -0.001,0.05009 0.001,0.333726 0.002,0.363714 0.001,0.03034 0.003,0.04762 0.0406,0.0769 0.0374,0.02963 0.17957,0.191558 0.29916,0.34008 0.66428,0.769408 1.20544,1.20932 1.30739,1.296458 0.10231,0.08784 0.88547,0.8128 0.89817,1.45415 8e-4,0.04163 0,0.07514 -0.002,0.10795 -0.26246,0.310092 -0.81138,0.745419 -1.87889,1.126419 -0.14499,0.06738 -0.0871,0.111831 0.0141,0.09913 0.10125,-0.0127 1.43581,-0.134408 2.01366,-1.00824 0.19579,-0.3302 0.30021,-0.681566 0.21413,-1.397352 -0.0261,-0.225073 -0.28786,-2.462389 -0.28786,-2.462389 0,0 0.1912,0.183091 0.22189,0.2159 0.0307,0.03316 0.0695,0.01728 0.0533,-0.03457 -0.0166,-0.05221 -0.38946,-0.995185 -0.40146,-1.027993 -0.012,-0.03246 -0.024,-0.05644 -0.0413,-0.01976 m 5.67796,0.01516 c -0.0674,0.03951 -1.78753,1.032227 -1.85738,1.077383 -0.0691,0.0448 -0.0942,0.05609 -0.10548,0.110067 -0.0109,0.05362 -0.0166,0.08502 -0.0198,0.09349 -0.0124,0.03598 -0.0215,0.08043 0.0811,0.01341 0.0321,-0.02117 1.76212,-1.020588 1.82245,-1.058334 0.0582,-0.03634 0.0917,-0.05186 0.11571,-0.10795 0.0229,-0.05539 0.0289,-0.06562 0.0413,-0.104423 0.0134,-0.04092 0.0268,-0.08467 -0.078,-0.02363 m -12.748336,0.181327 c -0.03281,0.09525 -0.176035,0.426156 -0.130175,0.803627 0.01058,0.08749 0.07902,0.254706 0.212725,0.251531 0.06879,-0.0039 0.155223,-0.05856 0.206023,-0.276577 0.0085,-0.04904 0.01304,-0.0882 0.01659,-0.107598 0.0049,-0.02928 -0.01871,-0.06244 -0.03704,0.0053 -0.04304,0.134056 -0.16863,0.23354 -0.276932,0.06279 -0.01765,-0.03387 -0.09313,-0.189793 0.0085,-0.545393 0.02082,-0.06914 0.04586,-0.17145 0.04586,-0.17145 0.02328,-0.07796 -0.01198,-0.117475 -0.04551,-0.02222 m 3.191935,0.384175 c -0.0702,0.04374 -1.41217,0.711906 -1.484489,0.761648 -0.07197,0.04939 -0.09772,0.06244 -0.10795,0.119592 -0.01024,0.05715 -0.01516,0.08996 -0.01799,0.09913 -0.01198,0.03845 -0.02011,0.08537 0.08572,0.01164 0.03351,-0.02294 1.388889,-0.699204 1.448509,-0.740833 0.0593,-0.04163 0.0949,-0.0575 0.11783,-0.117121 0.0233,-0.05927 0.0293,-0.0702 0.0413,-0.111479 0.0127,-0.04374 0.0254,-0.09066 -0.0829,-0.02257 m -0.004,0.663575 c -0.0942,0.102306 -0.12312,0.172508 -0.15134,0.216606 -0.0388,0.06068 0.0102,0.08749 0.054,0.04057 0.0434,-0.04692 0.0737,-0.09419 0.20144,-0.09102 0.1277,0.0035 0.43356,-0.0081 0.31961,0.07585 -0.11465,0.08396 -0.19191,0.132644 -0.19191,0.132644 -0.0741,0.05292 -0.13934,0.153106 -0.008,0.09737 0.13088,-0.05539 0.30409,-0.142524 0.43674,-0.342549 0.0384,-0.05821 0.084,-0.13617 -0.096,-0.162983 -0.17991,-0.02681 -0.47025,-0.06914 -0.56444,0.03352 m 9.89083,0.12559 c -0.0346,0.08467 -0.17851,0.37465 -0.15663,0.71755 0.005,0.07902 0.0575,0.233185 0.17674,0.237418 0.0617,-2.64e-4 0.14146,-0.0448 0.19755,-0.238477 0.0102,-0.04375 0.0162,-0.07902 0.0201,-0.09631 0.006,-0.02611 -0.013,-0.05715 -0.0332,0.0028 -0.0451,0.118533 -0.16228,0.201438 -0.24977,0.04269 -0.0141,-0.03175 -0.0734,-0.176038 0.0349,-0.490715 0.0219,-0.06138 0.0494,-0.1524 0.0494,-0.1524 0.0247,-0.06879 -0.005,-0.10654 -0.0392,-0.02257 m 3.30764,0.173567 c -0.0321,0.07796 -0.1658,0.347133 -0.14569,0.663927 0.005,0.07303 0.0536,0.2159 0.16404,0.220133 0.0568,-2.65e-4 0.13053,-0.04198 0.18309,-0.221192 0.009,-0.04057 0.0148,-0.07302 0.0187,-0.0889 0.005,-0.02434 -0.0124,-0.05292 -0.0307,0.0024 -0.042,0.109714 -0.15029,0.186621 -0.23178,0.03916 -0.013,-0.02893 -0.0681,-0.162277 0.0325,-0.454025 0.0204,-0.05644 0.0462,-0.14111 0.0462,-0.14111 0.0226,-0.0635 -0.005,-0.09878 -0.0363,-0.02045 m -6.20677,0.0085 -0.16863,0.230362 -0.32279,-0.235654 c -0.008,-0.0056 -0.0194,-0.0035 -0.0257,0.0053 l -0.19474,0.267052 c -0.006,0.0085 -0.005,0.02045 0.003,0.02611 l 0.33267,0.242711 c 0.008,0.006 0.0194,0.0035 0.0261,-0.0049 l 0.16828,-0.230717 0.32314,0.235657 c 0.008,0.006 0.019,0.0035 0.0254,-0.0049 l 0.19509,-0.267404 c 0.006,-0.0081 0.005,-0.02011 -0.003,-0.02611 l -0.33302,-0.24271 c -0.008,-0.0056 -0.0198,-0.0035 -0.0257,0.0053 m -13.058074,0.23636 c -0.0501,0.154165 -0.261409,0.688269 -0.207788,1.308452 0.0085,0.09701 0.05292,0.255059 0.138996,0.34784 -0.10654,0.23001 -0.530931,1.12254 0.204962,1.660173 0.148521,0.10301 0.665692,0.442384 1.89724,0.07338 0.782815,-0.257175 1.191331,-0.465667 1.410758,-0.641702 -0.13335,0.401109 -0.283281,1.151819 0.276932,1.344435 0.187677,0.04727 0.566912,0.129824 1.054104,-0.521051 0.0413,-0.05927 0.24271,-0.331613 0.62194,-0.605015 0.23989,-0.17286 0.56515,-0.320323 0.92005,-0.495652 0.37359,-0.184857 1.89018,-0.865365 1.911,-0.89888 0.0212,-0.03387 0.11218,-0.28575 0.13617,-0.34431 0.0243,-0.05891 0.0243,-0.106892 -0.0614,-0.05644 -0.0854,0.05115 -1.01389,0.508351 -1.15006,0.537633 -0.13653,0.02963 -0.36089,0.117827 -0.6791,-0.106892 -0.375,-0.259291 -0.4953,-0.553508 -0.51929,-0.625829 -0.024,-0.07232 -0.0268,-0.1524 0.0963,-0.243417 0.12312,-0.09102 0.79975,-0.46002 1.41782,-0.336902 0.16827,0.0508 0.21378,0.02151 0.10971,-0.07514 -0.10478,-0.09596 -0.58314,-0.237773 -0.82409,-0.200376 -0.24095,0.03739 -0.56444,0.09631 -0.75953,0.360891 -0.19544,0.264935 -0.32914,0.639585 -0.13088,1.027287 0.12559,0.197557 0.33972,0.454732 0.52141,0.532342 -0.11007,0.05609 -1.00648,0.554215 -1.16876,0.661106 -0.42298,0.278694 -0.802571,0.840317 -0.966258,0.932392 -0.235304,0.151342 -0.924279,0.371123 -0.797983,-0.474485 0.04198,-0.193323 0.18062,-0.5588 0.201435,-0.613482 0.0049,-0.01199 0.0063,-0.03034 0.0042,-0.04903 0.0042,-0.0088 0.0088,-0.01799 0.01236,-0.02681 0.06032,-0.142875 0.08819,-0.334078 0.03633,-0.588433 -0.251177,-0.962729 -0.70485,-0.956027 -0.921102,-0.872419 -0.05116,0.01976 -0.14958,0.102659 -0.177096,0.13829 -0.130175,0.17145 -0.322437,0.5461 -0.05292,0.802569 0.20673,0.16651 0.575382,0.08678 0.643115,0.08467 0.12206,-0.0049 0.2794,-0.01198 0.361598,0.189794 0.01659,0.05186 -0.04375,0.117123 -0.180623,0.19544 -0.137232,0.07832 -1.736373,0.952148 -2.728032,0.672393 -0.16792,-0.05045 -0.778226,-0.188028 -0.756001,-0.904875 0.0049,-0.11571 0.07408,-0.347133 0.111476,-0.475191 0.02363,0.0113 0.04904,0.01799 0.07655,0.01834 0.09737,-0.0035 0.220133,-0.0882 0.298802,-0.442383 0.01304,-0.07973 0.02082,-0.143581 0.02611,-0.17498 0.0085,-0.04798 -0.024,-0.103362 -0.05221,0.0064 -0.06456,0.217313 -0.244475,0.37324 -0.391583,0.08925 -0.024,-0.0568 -0.125235,-0.315383 0.02893,-0.89253 0.03069,-0.111828 0.0695,-0.278693 0.0695,-0.278693 0.03457,-0.126294 -0.01341,-0.192617 -0.06315,-0.0381 m 3.25402,1.618543 c 0,0 -0.09842,0.0035 -0.159808,0.02222 -0.06103,0.01871 -0.173567,0.05786 -0.345369,0 -0.153106,-0.05186 -0.08819,-0.207785 0.01693,-0.246591 0.04762,-0.01765 0.245182,-0.09208 0.488244,0.224366 M 98.048185,52.543225 97.8531,52.81028 c -0.006,0.0085 -0.0046,0.02011 0.0032,0.02611 l 0.332668,0.242713 c 0.0081,0.006 0.01977,0.0039 0.02612,-0.0046 l 0.194733,-0.267404 c 0.0063,-0.0088 0.0049,-0.02011 -0.0032,-0.02611 l -0.332668,-0.243064 c -0.0081,-0.0056 -0.01977,-0.0032 -0.02574,0.0053 m 2.447927,0.391584 c -0.0367,0.08537 -0.19015,0.379589 -0.16686,0.726723 0.006,0.07973 0.0614,0.236008 0.18838,0.240241 0.0656,-2.64e-4 0.15063,-0.04551 0.21061,-0.241651 0.0102,-0.04445 0.0169,-0.08008 0.0215,-0.09737 0.006,-0.02646 -0.0141,-0.05786 -0.0353,0.0028 -0.0483,0.119946 -0.17321,0.204258 -0.26635,0.04304 -0.0152,-0.0321 -0.0787,-0.1778 0.0374,-0.497417 0.0233,-0.06173 0.0529,-0.154165 0.0529,-0.154165 0.0261,-0.06949 -0.005,-0.107595 -0.0423,-0.02222 m -3.655836,0.30974 c -0.04974,0.154517 -0.261056,0.688623 -0.207433,1.308806 0.01236,0.143579 0.103365,0.420863 0.291394,0.422627 0.09701,-0.0032 0.220133,-0.08819 0.298804,-0.442383 0.01304,-0.07973 0.02082,-0.143933 0.02646,-0.175331 0.0078,-0.04763 -0.02434,-0.103011 -0.05257,0.0067 -0.06456,0.21731 -0.244475,0.373237 -0.391584,0.0889 -0.024,-0.05645 -0.125235,-0.315032 0.02858,-0.892175 0.03104,-0.112184 0.06985,-0.278697 0.06985,-0.278697 0.03457,-0.125941 -0.01341,-0.192968 -0.0635,-0.03845 m 12.905665,-0.637823 c -0.013,0.04551 -0.0455,0.23989 -0.0533,0.280107 -0.008,0.03986 -0.007,0.07973 0.0127,0.113948 0.0198,0.03422 0.0702,0.152752 0.10653,0.24906 0.0367,0.09631 0.41452,0.82409 0.44944,0.888648 0.0349,0.06456 0.042,0.112535 0.007,0.155221 -1.2125,1.279525 -3.55283,2.066221 -3.62797,2.109964 -0.0748,0.04339 -0.0547,0.07726 0.0713,0.05503 0.18838,-0.03316 1.23966,-0.208844 1.53917,-0.353132 0.19756,-0.09489 0.88794,-0.433916 1.45239,-0.876652 -0.0155,0.1143 -0.0303,0.282575 -0.0222,0.495652 0.0381,1.029055 0.95815,0.857957 1.1998,0.80504 0.72355,-0.15875 1.60831,-1.158875 1.68345,-1.359958 0.0744,-0.198615 0.0857,-0.37959 0.0688,-0.537634 0.1905,-0.10301 0.59972,-0.43321 0.59972,-0.43321 0.0169,0.438854 0.36618,0.570794 0.47378,0.589492 0.50306,0.0769 0.75565,-0.344313 0.86325,-0.480483 0.0914,0.240241 0.31185,0.28716 0.42545,0.309385 0.43391,0.08643 0.51893,-0.22084 0.54116,-0.29069 0.13652,-0.423685 -0.10866,-0.73942 -0.14041,-0.7747 -0.0318,-0.03493 -0.0476,-0.0013 -0.0589,0.03951 -0.0113,0.04057 -0.0459,0.192968 -0.0681,0.28857 0,0 0.0907,0.148167 0.12312,0.223309 0.0325,0.0755 -0.0155,0.116771 -0.10936,0.128058 -0.26423,0.03246 -0.47484,-0.118885 -0.54751,-0.188735 -0.0727,-0.0702 0.006,-0.193675 0.0642,-0.34149 0.0469,-0.117827 -0.0395,-0.132292 -0.10654,-2.65e-4 -0.22401,0.58914 -0.53869,0.65264 -0.62124,0.675217 -0.74612,0.2032 -0.68192,-0.478718 -0.67909,-0.59055 0.002,-0.111477 -0.0794,-0.07056 -0.1711,0.0032 -0.31397,0.252235 -0.56692,0.400402 -0.70309,0.461082 -0.11712,-0.229307 -0.28716,-0.372888 -0.35877,-0.424747 -0.80751,-0.588785 -0.87419,0.599372 -0.84949,0.726372 0.12277,0.505528 0.94791,0.198966 1.07668,0.183795 0.12982,-0.01516 0.0871,0.155575 0.0148,0.257175 -0.17886,0.250121 -0.38558,0.429683 -0.57291,0.582438 -0.79939,0.652285 -1.20085,0.600779 -1.32468,0.596545 -0.78528,-0.02188 -0.71296,-0.868185 -0.66922,-1.04916 0.23601,-0.200025 0.43886,-0.41769 0.55739,-0.64135 0.0476,-0.123118 0.13053,-0.401815 -0.0191,-0.752123 -0.0787,-0.15381 -0.32632,-0.585962 -0.32632,-0.585962 0,0 0.18239,0.0056 0.20003,0.0053 0.0169,-2.65e-4 0.0515,-0.01834 0.007,-0.06915 -0.0441,-0.05115 -0.42757,-0.433562 -0.4505,-0.464253 -0.0229,-0.03069 -0.0444,-0.05292 -0.0575,-0.0078 m 2.42252,1.7526 c 0,0 -0.11006,0.06315 -0.41769,0.04269 -0.25752,-0.01765 -0.23565,-0.117829 -0.20037,-0.155929 0.0384,-0.04163 0.35419,-0.240242 0.61806,0.113241 m -3.31681,-1.424868 c -0.0533,0.06632 -0.58949,0.770114 -0.58949,0.770114 l -0.38982,-0.277989 c 0,0 0.15875,-0.03986 0.18626,-0.04833 0.0275,-0.0081 0.0438,-0.04374 -0.006,-0.06914 -0.0501,-0.02574 -0.52034,-0.213077 -0.55598,-0.227542 -0.036,-0.01482 -0.0487,-0.03104 -0.0515,0.0071 -0.004,0.0381 -0.009,0.347486 -0.009,0.347486 0,0 -0.007,0.02151 0.0339,0.04516 0.0409,0.02328 0.0811,0.07302 0.115,0.106892 0.0335,0.03351 0.47096,0.378528 0.49213,0.390525 0,0 -0.21872,0.384527 -0.24659,0.685445 -0.0275,0.300921 0.005,0.716492 0.41698,0.582438 0.11042,-0.03175 0.57115,-0.214842 0.67416,-0.536223 0.0335,-0.118182 0.12806,-0.331965 -0.0261,-0.548569 -0.0889,-0.127706 -0.44908,-0.3429 -0.44908,-0.3429 0,0 0.27658,-0.381706 0.30268,-0.428625 0.0268,-0.04657 0.12806,-0.342548 0.139,-0.414162 0.0113,-0.07161 0.0169,-0.107596 -0.0363,-0.04163 m -0.0942,1.623131 c -0.15275,0.125587 -0.47413,0.291745 -0.56444,0.300567 -0.09,0.0085 -0.3295,-0.03563 -0.22543,-0.280813 0.0356,-0.07937 0.27517,-0.48895 0.27517,-0.48895 0.0893,0.04904 0.66745,0.343606 0.5147,0.469196 m -5.58518,-0.10795 c -0.0356,0.115358 -0.19085,0.514702 -0.13758,0.972608 0.0123,0.105479 0.0882,0.308679 0.23495,0.305859 0.0755,-0.0042 0.17004,-0.06985 0.22472,-0.333375 0.008,-0.05927 0.0134,-0.107247 0.0173,-0.13053 0.005,-0.03528 -0.0208,-0.07549 -0.0409,0.0063 -0.0462,0.161925 -0.1838,0.281165 -0.30339,0.07444 -0.0198,-0.04163 -0.10336,-0.230717 0.006,-0.660755 0.0222,-0.08361 0.049,-0.207785 0.049,-0.207785 0.0251,-0.09419 -0.0138,-0.142523 -0.0501,-0.02681 m 11.81558,0.669925 c -0.031,0.08608 -0.0434,0.142875 -0.0399,0.175329 0.003,0.03316 0.0145,0.1397 0.0145,0.1397 -0.0321,0.02574 -0.16862,0.110773 -0.30515,0.01024 0.008,-0.02928 0.0265,-0.08855 0.0307,-0.121356 0.0148,-0.0508 -0.0162,-0.08819 -0.0413,-0.03598 -0.0254,0.05257 -0.0833,0.228249 -0.12594,0.267759 -0.0434,0.03951 -0.0935,0.184856 -0.41981,0.03704 -0.0564,-0.02151 -0.15699,-0.09595 -0.31221,0.06068 -0.35278,0.327729 -0.59619,0.353483 -0.99131,0.493535 -0.0483,0.02222 -0.14851,0.09737 -0.0296,0.08572 0.11959,-0.01198 0.62054,2.65e-4 0.89323,-0.312915 0.0571,-0.05503 0.12207,-0.201435 0.33903,-0.116768 0.12029,0.04586 0.34148,0.235656 0.58349,-0.140052 0.14252,0.0949 0.35877,0.05715 0.39335,-0.04763 0.0346,-0.104775 0.0741,-0.208846 0.0737,-0.279755 -2.7e-4,-0.07126 -0.006,-0.1651 -0.006,-0.1651 -0.005,-0.05644 -0.0251,-0.136525 -0.0564,-0.05045 m -13.53255,0.185912 c -0.0335,0.08185 -0.17357,0.363715 -0.15205,0.696383 0.005,0.07691 0.0561,0.226484 0.1718,0.230717 0.0596,-2.65e-4 0.13688,-0.04374 0.19192,-0.231775 0.01,-0.04268 0.0155,-0.07655 0.0194,-0.09313 0.006,-0.0254 -0.0127,-0.05574 -0.0321,0.0024 -0.0437,0.115358 -0.15769,0.195792 -0.24272,0.04127 -0.0138,-0.03069 -0.0713,-0.170392 0.0339,-0.476605 0.0215,-0.05927 0.0483,-0.147812 0.0483,-0.147812 0.0236,-0.06703 -0.005,-0.103364 -0.0384,-0.02151 M 98.284026,55.932 c -0.06809,0.0381 -1.340204,0.395465 -1.410758,0.439208 -0.07056,0.04339 -0.09561,0.05433 -0.107598,0.10795 -0.01199,0.05362 -0.01834,0.08467 -0.02151,0.09313 -0.01341,0.03598 -0.02328,0.08008 0.08078,0.01482 0.03246,-0.02011 1.317625,-0.384175 1.375834,-0.420862 0.05786,-0.03669 0.09278,-0.0501 0.117123,-0.105481 0.02434,-0.05503 0.03069,-0.06491 0.04374,-0.103717 0.0141,-0.04092 0.02822,-0.08432 -0.07761,-0.02506"
       style="fill:#231f20;fill-opacity:1;fill-rule:evenodd;stroke:none;stroke-width:0.264583"
       id="path1-9" />
  </g>
</svg>
