<?xml version="1.0" encoding="UTF-8" standalone="no"?>
<!-- Created with Inkscape (http://www.inkscape.org/) -->

<svg
   width="19.049627mm"
   height="6.2055364mm"
   viewBox="0 0 19.049627 6.2055364"
   version="1.1"
   id="svg1"
   xmlns="http://www.w3.org/2000/svg"
   xmlns:svg="http://www.w3.org/2000/svg">
  <defs
     id="defs1" />
  <g
     id="layer1"
     transform="translate(-182.06147,-25.98323)">
    <path
       d="m 193.36985,26.152545 c -0.0702,0.106185 -0.12242,0.362656 -0.0226,0.435327 0.10019,0.07338 0.24659,0.132291 0.24659,0.132291 -0.46602,0.571148 -0.78458,0.680157 -1.05728,0.839613 -0.0702,0.04127 -0.0561,0.07796 -0.0152,0.06668 0.0215,-0.0053 0.38806,-0.06244 0.81598,-0.38735 0.23142,-0.175683 0.37183,-0.476604 0.37183,-0.476604 0,0 0.11571,0.09701 0.13158,0.116416 0.0349,0.04375 0.054,0.07585 0.0709,0.02999 0.061,-0.168981 -0.025,-0.270933 -0.1076,-0.323498 0,0 0.0854,-0.263173 -0.0716,-0.527402 -0.0265,-0.0441 -0.18203,-0.185208 -0.36265,0.09454 m 0.24341,0.07267 c 0.10478,0.09737 0.0889,0.257527 0.0843,0.294217 0,0 -0.13335,-0.0628 -0.19367,-0.08855 -0.0596,-0.02574 -0.0914,-0.0635 -0.0635,-0.1016 0.0924,-0.130175 0.13794,-0.125589 0.17286,-0.104068 m -5.53155,-0.1016 c -0.14429,0.206727 -0.139,0.466725 -0.14358,0.75706 -0.0251,-0.05927 -0.17145,-0.440267 -0.58032,-0.639585 -0.03,-0.01447 -0.0868,0.01939 -0.0871,0.111125 -2.6e-4,0.05327 -0.008,0.183443 0.0317,0.218017 0.0395,0.03457 0.15417,0.100187 0.17357,0.10936 0.019,0.0088 0.0392,0.0092 0.0437,-0.01304 0.004,-0.02294 0.0265,-0.0755 0.0642,-0.04092 0.0321,0.02893 0.23671,0.17921 0.35807,0.516114 0.0205,0.04445 0.0624,0.04657 0.0684,-0.01834 0.0145,-0.16016 0.0116,-0.436033 0.0194,-0.519994 0.0106,-0.118533 0.0529,-0.36336 0.20885,-0.246239 0.0353,0.02646 0.0734,0.06209 0.0734,0.06209 0.0339,0.0381 0.0762,0.08114 0.0928,0.03387 0.0251,-0.07056 0.042,-0.186973 0.006,-0.247298 -0.0159,-0.02646 -0.21308,-0.24906 -0.32949,-0.0822 m 2.26906,0.06668 c -0.0836,0.05186 -2.94498,1.573388 -3.03141,1.633009 -0.0864,0.05891 -0.11713,0.07408 -0.12947,0.142168 -0.012,0.06809 -0.0183,0.10795 -0.0215,0.118886 -0.0145,0.04551 -0.0247,0.1016 0.10266,0.01376 0.0395,-0.02716 2.91747,-1.558571 2.98838,-1.60796 0.0709,-0.04974 0.11394,-0.06914 0.14146,-0.140052 0.0275,-0.07091 0.0346,-0.08361 0.049,-0.132998 0.0152,-0.05221 0.0307,-0.107598 -0.0991,-0.02681 m 0.16368,1.09855 c -0.0705,0.04339 -1.64006,0.828321 -1.71273,0.878063 -0.073,0.04939 -0.0988,0.06244 -0.10901,0.119946 -0.0102,0.0575 -0.0155,0.09066 -0.0183,0.100187 -0.0124,0.03845 -0.0205,0.08573 0.0864,0.01164 0.0332,-0.02328 1.61642,-0.815621 1.6764,-0.857602 0.0596,-0.04163 0.0963,-0.0575 0.11923,-0.117475 0.0233,-0.05962 0.0293,-0.0702 0.0409,-0.111832 0.013,-0.04445 0.0265,-0.09102 -0.0829,-0.02294 m -0.31468,0.789868 c -0.0303,0.08961 -0.16157,0.400402 -0.11889,0.75565 0.0102,0.0822 0.0734,0.239536 0.19614,0.236715 0.0635,-0.0039 0.14253,-0.05468 0.18945,-0.259646 0.007,-0.04621 0.0116,-0.08325 0.0148,-0.100894 0.005,-0.02752 -0.0173,-0.05891 -0.0339,0.0042 -0.0399,0.126648 -0.15522,0.219427 -0.25471,0.05891 -0.0166,-0.0321 -0.0857,-0.178858 0.007,-0.512939 0.0191,-0.06456 0.0423,-0.161219 0.0423,-0.161219 0.0208,-0.07302 -0.0116,-0.110773 -0.0423,-0.02082 m -2.54247,0.463199 c -0.0307,0.08996 -0.16193,0.400753 -0.11924,0.755647 0.0102,0.0822 0.0734,0.239538 0.19614,0.237067 0.0635,-0.0039 0.14253,-0.05503 0.18945,-0.259996 0.008,-0.04622 0.0116,-0.0829 0.0148,-0.101248 0.005,-0.02717 -0.0169,-0.05856 -0.0339,0.0049 -0.0395,0.125941 -0.15523,0.219427 -0.25471,0.05891 -0.0166,-0.0321 -0.0857,-0.178856 0.007,-0.512937 0.019,-0.06491 0.0423,-0.161219 0.0423,-0.161219 0.0212,-0.07338 -0.0113,-0.111125 -0.042,-0.02117 m 4.48909,-2.522362 c -0.0162,0.03881 -0.13688,0.335846 -0.13688,0.335846 0.002,0.01765 0.036,0.147108 0.042,0.195791 0.0568,0.428271 0.40745,2.959804 0.508,3.759904 0.0494,0.394052 0.0882,0.748594 0.0935,0.938742 -0.004,0.05891 0.0212,0.08078 0.048,0.024 0.0148,-0.02999 0.0751,-0.155224 0.0938,-0.484013 0.0138,-0.246237 -0.006,-0.625475 -0.0765,-1.146879 -0.01,-0.07585 -0.37501,-2.720269 -0.37501,-2.720269 0,0 0.19685,0.185209 0.2286,0.218721 0.0317,0.03352 0.0699,0.01553 0.0519,-0.03845 -0.0177,-0.05327 -0.42192,-1.03011 -0.43497,-1.064331 -0.0127,-0.03316 -0.0257,-0.05821 -0.0423,-0.01905 m -1.30316,0 c -0.0166,0.03881 -0.14605,0.324908 -0.14605,0.324908 0.003,0.02328 0.0335,0.09313 0.055,0.237067 0.0219,0.149931 0.24236,2.038704 0.4699,3.111148 0.036,0.168978 0.0737,0.329141 0.11289,0.473427 -0.0466,0.02506 -0.0903,0.05115 -0.12523,0.07514 -0.13441,0.09243 -0.85126,0.593725 -1.50672,0.148519 -0.0116,-0.0071 -0.0381,-0.02928 -0.0744,-0.06103 0.27658,-0.151342 0.51505,-0.27658 0.64558,-0.311856 0,0 0.0674,-0.191207 0.0854,-0.272699 0.0173,-0.08114 0.007,-0.148518 -0.0854,-0.194378 -0.0917,-0.04621 -1.21814,-0.467784 -2.13219,0.0956 -0.0437,0.105833 -0.0688,0.23636 -0.0938,0.307623 -0.0254,0.07091 -8e-4,0.09102 0.0501,0.06703 0.024,-0.0113 0.2734,-0.125942 0.38171,-0.08255 0.13687,0.05468 0.33266,0.155926 0.45578,0.264583 0.0251,0.02222 0.054,0.04833 0.0857,0.07691 -0.0533,0.03034 -0.1009,0.05644 -0.13759,0.07726 -0.22683,0.125941 -0.86112,0.415925 -1.29786,0.231068 -0.12171,-0.04233 -0.54046,-0.216958 -0.61913,-0.956381 -0.0392,-0.257527 -0.12876,-1.332794 -0.16757,-1.657702 -0.0395,-0.324908 -0.13476,-1.2827 -0.37571,-1.921579 -0.0392,-0.106188 -0.0699,-0.0019 -0.0801,0.02506 -0.0106,0.02646 -0.11218,0.231423 -0.0808,0.333023 0.031,0.101248 0.28998,1.031169 0.33443,1.680985 0.0169,0.324909 0.17921,1.982611 0.29704,2.290586 0.11747,0.308329 0.48719,0.800806 1.26576,0.649816 0.26283,-0.05115 0.70521,-0.283278 1.12643,-0.513995 0.1651,0.145695 0.33513,0.288218 0.43073,0.337608 0.17357,0.0896 0.70556,0.377825 1.5935,-0.29704 0.0183,-0.0113 0.0617,-0.04198 0.12312,-0.07479 0.0339,0.09208 0.0674,0.170391 0.10372,0.2286 0.10689,0.171098 0.29915,0.296688 0.46284,0.319616 0.0561,0.0081 0.29598,0.03281 0.40182,-0.34572 0.0229,-0.08396 0.0931,-0.45438 -0.0995,-0.596548 -0.0536,-0.03951 -0.28222,-0.181682 -0.64276,-0.07091 -0.0145,0.0028 -0.0437,0.01376 -0.0804,0.02963 -0.14182,-0.271285 -0.58103,-3.251552 -0.58103,-3.251552 0,0 0.19756,0.184856 0.22896,0.218368 0.0317,0.03387 0.0702,0.01587 0.0522,-0.0381 -0.0183,-0.05398 -0.38136,-0.903462 -0.39441,-0.937683 -0.013,-0.03316 -0.0257,-0.05821 -0.042,-0.01905 m -1.01812,3.803298 c -0.054,0.02893 -0.25364,0.142875 -0.46284,0.262112 -0.14428,-0.130878 -0.30021,-0.268816 -0.39864,-0.334078 0.2533,-0.02612 0.54751,-0.01622 0.86148,0.07197 m 2.12161,0.569735 c 0.11748,0.01976 0.40005,0.148167 0.23742,0.221192 -0.14111,0.0635 -0.36019,-0.06209 -0.46496,-0.227893 0.0709,-0.01058 0.14746,-0.01058 0.22754,0.0067 m -6.25087,-4.321878 c -0.0307,0.07514 -0.1584,0.33302 -0.13935,0.63641 0.005,0.0702 0.0515,0.207081 0.15734,0.21096 0.0547,-2.64e-4 0.12489,-0.03986 0.17534,-0.211666 0.009,-0.0388 0.0141,-0.0702 0.0176,-0.08537 0.006,-0.02328 -0.0116,-0.0508 -0.0296,0.0024 -0.0399,0.104775 -0.14393,0.178859 -0.22154,0.03775 -0.0127,-0.02822 -0.0653,-0.155929 0.031,-0.435681 0.0198,-0.05433 0.0438,-0.135115 0.0438,-0.135115 0.0219,-0.06103 -0.004,-0.09454 -0.0346,-0.01976 m 14.19613,0.177445 c -0.0702,0.10654 -0.12241,0.362305 -0.0222,0.43533 0.10019,0.07373 0.24624,0.132643 0.24624,0.132643 -0.46602,0.571149 -1.38042,0.976842 -1.59809,1.146527 -0.0649,0.04904 -0.0564,0.07796 -0.0152,0.06703 0.0363,-0.0099 0.73343,-0.204613 1.37019,-0.750713 0.29175,-0.249767 0.28434,-0.268817 0.35842,-0.42051 0.0635,0.03246 0.10689,0.08537 0.13159,0.116416 0.0353,0.04374 0.0543,0.07585 0.0709,0.02999 0.061,-0.169686 -0.0251,-0.271286 -0.1076,-0.323496 0,0 0.0857,-0.263525 -0.0716,-0.527404 -0.0265,-0.04445 -0.18169,-0.185561 -0.36266,0.09419 m 0.24342,0.07232 c 0.10477,0.09772 0.0889,0.257878 0.085,0.294568 0,0 -0.13406,-0.06279 -0.19438,-0.08855 -0.0596,-0.0254 -0.0914,-0.0635 -0.0635,-0.1016 0.0924,-0.130175 0.13793,-0.125235 0.17286,-0.10442 m -1.78859,-0.165807 c -0.18273,0.233185 -0.19473,0.539044 -0.21907,0.880182 -0.0257,-0.07161 -0.1718,-0.528815 -0.63924,-0.79093 -0.0342,-0.01871 -0.10301,0.01728 -0.10971,0.124883 -0.004,0.0628 -0.0219,0.215197 0.0226,0.258234 0.0441,0.04339 0.17498,0.128413 0.1965,0.140054 0.0222,0.01236 0.0455,0.01376 0.0522,-0.01236 0.006,-0.02646 0.0363,-0.08678 0.0787,-0.04339 0.0356,0.03598 0.26599,0.226484 0.38559,0.630415 0.0212,0.05362 0.0702,0.05891 0.0818,-0.01728 0.0279,-0.186619 0.0427,-0.510821 0.0575,-0.6096 0.0208,-0.137935 0.0871,-0.423333 0.26212,-0.275167 0.0395,0.03352 0.0818,0.07797 0.0818,0.07797 0.0374,0.04692 0.0836,0.10019 0.10689,0.04657 0.0342,-0.08184 0.0621,-0.217311 0.024,-0.290336 -0.0166,-0.03246 -0.23354,-0.306916 -0.38171,-0.119239 m -1.80022,-0.01058 c -0.0677,0.03951 -1.78753,1.032227 -1.85702,1.077032 -0.0699,0.0448 -0.0949,0.05644 -0.10584,0.110418 -0.0113,0.05397 -0.0169,0.08502 -0.0198,0.09349 -0.0127,0.03598 -0.0215,0.08043 0.0811,0.01341 0.0321,-0.02082 1.76177,-1.020585 1.82245,-1.058685 0.0582,-0.03598 0.0921,-0.05186 0.115,-0.107598 0.0236,-0.05539 0.0296,-0.06562 0.0416,-0.104423 0.0134,-0.04127 0.0272,-0.08502 -0.0776,-0.02363 m -14.03244,0.749652 c -0.26211,0.0755 -0.46108,0.27658 -0.45156,0.552805 0.002,0.197908 0.0543,0.299153 0.16158,0.357716 0.26035,0.131586 0.50412,0.334079 0.68474,0.507646 -0.36054,0.384175 -0.8128,1.113718 -0.70697,2.326216 0.0198,0.221899 0.0377,1.621015 2.39854,1.54799 0.4198,-0.0127 1.20685,-0.103716 2.17205,-0.585258 0.17251,-0.08608 0.20355,-0.168275 -0.019,-0.109715 -0.93063,0.246944 -2.38936,0.359482 -3.04694,0.200732 -0.23601,-0.05645 -1.48449,-0.213784 -1.35114,-1.728259 0.0169,-0.19544 0.03,-0.756708 0.76623,-1.430866 0.0462,0.05221 0.0773,0.09137 0.0889,0.10936 0.054,0.08008 0.0773,0.09772 0.0794,0.0127 7.9e-4,-0.04198 0.0134,-0.134054 -0.0141,-0.255762 0.26352,-0.216959 0.6029,-0.443797 1.04246,-0.67169 0.23636,-0.123119 0.82232,-0.479777 0.82232,-0.479777 l 0.12877,-0.39229 c -0.28646,-0.06209 -1.77871,-0.221191 -2.7552,0.03845 m 1.97838,0.379238 c -0.12418,0.06456 -1.08479,0.666044 -1.17863,0.73307 -0.0198,0.01376 -0.0854,0.05503 -0.17604,0.128413 -0.0317,-0.04304 -0.0688,-0.08749 -0.11359,-0.132291 -0.10125,-0.101955 -0.70626,-0.496359 -0.73625,-0.523875 -0.03,-0.02787 -0.0896,-0.06138 0.0378,-0.108657 0.12735,-0.04727 0.58455,-0.23495 2.16676,-0.09666 m 12.38426,0.226129 c -0.0346,0.08396 -0.1785,0.37465 -0.15663,0.716846 0.005,0.07937 0.0579,0.233537 0.17709,0.23777 0.0617,-2.64e-4 0.14111,-0.04515 0.19756,-0.238828 0.01,-0.0441 0.0159,-0.07867 0.0201,-0.09596 0.006,-0.02611 -0.0131,-0.05715 -0.0335,0.0028 -0.0448,0.118886 -0.16192,0.201436 -0.24976,0.04269 -0.0141,-0.03175 -0.0734,-0.175684 0.0353,-0.491419 0.0219,-0.06068 0.0494,-0.151696 0.0494,-0.151696 0.0247,-0.0695 -0.005,-0.106892 -0.0395,-0.02222 m 3.30765,0.172863 c -0.0321,0.07832 -0.16581,0.347133 -0.14535,0.664278 0.005,0.07338 0.0536,0.2159 0.16404,0.219782 0.0568,-2.65e-4 0.13088,-0.04127 0.18274,-0.22084 0.01,-0.04057 0.0148,-0.07303 0.0187,-0.0889 0.006,-0.02434 -0.012,-0.05292 -0.0311,0.0024 -0.0416,0.110067 -0.14993,0.186619 -0.23107,0.03916 -0.013,-0.02928 -0.0677,-0.162632 0.0328,-0.45438 0.0201,-0.05679 0.0459,-0.140758 0.0459,-0.140758 0.0222,-0.0642 -0.005,-0.09842 -0.0367,-0.02082 m -6.20677,0.0085 -0.16792,0.230716 -0.32314,-0.235656 c -0.008,-0.0056 -0.0194,-0.0035 -0.0254,0.0049 l -0.19544,0.267403 c -0.006,0.0085 -0.005,0.02011 0.004,0.02612 l 0.33267,0.242358 c 0.008,0.006 0.0198,0.0042 0.0258,-0.0046 l 0.16863,-0.230717 0.32279,0.235302 c 0.008,0.006 0.0194,0.0042 0.0257,-0.0046 l 0.19509,-0.267407 c 0.006,-0.0085 0.005,-0.02045 -0.004,-0.02574 l -0.33267,-0.243064 c -0.008,-0.0056 -0.0198,-0.0035 -0.0261,0.0049 m -8.84732,0.10795 c -0.0303,0.07479 -0.15804,0.332669 -0.13864,0.636762 0.005,0.06985 0.0508,0.207082 0.15699,0.210609 0.0543,0 0.12523,-0.03986 0.17533,-0.212019 0.009,-0.03845 0.0141,-0.0695 0.018,-0.08502 0.005,-0.02328 -0.012,-0.0508 -0.0296,0.0024 -0.0399,0.105481 -0.14394,0.178858 -0.2219,0.03739 -0.0124,-0.02787 -0.0653,-0.155575 0.0314,-0.435327 0.0194,-0.05433 0.0437,-0.135115 0.0437,-0.135115 0.0215,-0.06103 -0.004,-0.09454 -0.0353,-0.01976 m 0.66464,-0.0099 c -0.013,0.04551 -0.0455,0.239889 -0.0533,0.279754 -0.008,0.03986 -0.007,0.08008 0.0123,0.113946 0.0201,0.03457 0.0706,0.152754 0.10724,0.249062 0.0363,0.09666 0.41417,0.824087 0.44909,0.888646 0.0349,0.06421 0.042,0.11289 0.007,0.155223 -1.2132,1.279877 -3.1115,1.93322 -3.18629,1.976967 -0.0748,0.04339 -0.055,0.07726 0.0709,0.05503 0.18874,-0.03316 0.89676,-0.14958 1.20791,-0.275521 0.30833,-0.125236 1.62137,-0.792692 2.03059,-1.569154 0.048,-0.123121 0.13088,-0.402167 -0.0187,-0.752123 -0.0787,-0.154162 -0.32631,-0.585962 -0.32631,-0.585962 0,0 0.18238,0.0056 0.19967,0.0049 0.0177,-2.64e-4 0.0515,-0.01834 0.007,-0.06914 -0.0441,-0.05151 -0.42757,-0.433565 -0.45085,-0.463902 -0.0229,-0.03069 -0.0441,-0.05327 -0.0572,-0.0078 m 9.48654,0.317854 c -0.013,0.04515 -0.0459,0.240242 -0.054,0.279752 -0.008,0.04057 -0.007,0.08008 0.0127,0.1143 0.0198,0.03422 0.0705,0.152752 0.10689,0.24906 0.0367,0.09631 0.41451,0.82409 0.44944,0.888648 0.0346,0.0642 0.042,0.112888 0.007,0.155221 -1.21249,1.279879 -3.55282,2.066573 -3.62761,2.109965 -0.0751,0.04339 -0.055,0.07726 0.0705,0.05503 0.18839,-0.03281 1.24002,-0.208492 1.53953,-0.353483 0.19755,-0.0949 0.88794,-0.433565 1.45238,-0.8763 -0.0155,0.1143 -0.03,0.282575 -0.0222,0.4953 0.0381,1.029406 0.95814,0.85866 1.1998,0.805743 0.72354,-0.159102 1.60866,-1.159579 1.6838,-1.36031 0.0741,-0.198615 0.085,-0.37959 0.0681,-0.537281 0.1905,-0.103363 0.60007,-0.433563 0.60007,-0.433563 0.0166,0.438502 0.36619,0.570442 0.47343,0.589492 0.50342,0.07655 0.75601,-0.344313 0.8636,-0.480838 0.091,0.240242 0.31186,0.287163 0.42545,0.30974 0.43427,0.08678 0.51859,-0.22084 0.54152,-0.291042 0.13617,-0.423685 -0.10972,-0.739068 -0.14111,-0.774345 -0.0314,-0.03528 -0.0473,-0.0013 -0.0586,0.03916 -0.0113,0.04092 -0.0466,0.193321 -0.0681,0.288923 0,0 0.0907,0.148166 0.12312,0.223662 0.0321,0.07479 -0.0155,0.116417 -0.10936,0.128059 -0.26423,0.0321 -0.4752,-0.119592 -0.54787,-0.18909 -0.0727,-0.0702 0.006,-0.193675 0.0649,-0.341135 0.0469,-0.118182 -0.0402,-0.132644 -0.10724,-2.65e-4 -0.22366,0.588788 -0.53834,0.65264 -0.62124,0.674865 -0.74613,0.2032 -0.68157,-0.479073 -0.6791,-0.59055 0.002,-0.111477 -0.079,-0.07056 -0.1711,0.0035 -0.31362,0.251883 -0.56656,0.40005 -0.70273,0.460375 -0.11712,-0.228952 -0.28716,-0.372533 -0.35878,-0.424392 -0.80786,-0.589137 -0.87418,0.599371 -0.84984,0.726723 0.12312,0.505177 0.94792,0.198967 1.07703,0.183444 0.12947,-0.01516 0.0871,0.155575 0.0145,0.257175 -0.17886,0.250121 -0.38559,0.429683 -0.57256,0.582083 -0.79975,0.65264 -1.20086,0.601488 -1.32468,0.597255 -0.78529,-0.02222 -0.71297,-0.868892 -0.66958,-1.049515 0.23637,-0.200377 0.43957,-0.41769 0.55739,-0.64135 0.048,-0.123119 0.13089,-0.402167 -0.019,-0.752123 -0.0787,-0.15381 -0.32631,-0.585962 -0.32631,-0.585962 0,0 0.18273,0.0056 0.20002,0.0053 0.0169,-2.64e-4 0.0515,-0.01834 0.007,-0.0695 -0.0444,-0.05115 -0.42757,-0.43321 -0.4505,-0.463902 -0.0233,-0.03069 -0.0445,-0.05327 -0.0572,-0.0078 m 2.42182,1.752598 c 0,0 -0.11007,0.0635 -0.41734,0.04233 -0.25788,-0.01728 -0.23565,-0.117475 -0.20037,-0.155575 0.0381,-0.04163 0.35383,-0.240594 0.61771,0.113242 m -3.31646,-1.424869 c -0.0536,0.06632 -0.58949,0.770115 -0.58949,0.770115 L 193.405,28.915894 c 0,0 0.15875,-0.04022 0.18662,-0.04798 0.0279,-0.0085 0.0437,-0.0441 -0.006,-0.0695 -0.0501,-0.02611 -0.52035,-0.213783 -0.55598,-0.227894 -0.0356,-0.01447 -0.0487,-0.03104 -0.0519,0.0074 -0.003,0.0381 -0.008,0.347485 -0.008,0.347485 0,0 -0.007,0.02188 0.0339,0.04516 0.0413,0.02294 0.0811,0.07303 0.11501,0.106892 0.0332,0.03351 0.47096,0.378883 0.49213,0.390877 0,0 -0.21908,0.384175 -0.2466,0.685094 -0.0279,0.300921 0.006,0.716139 0.41663,0.582083 0.11078,-0.03104 0.5715,-0.214842 0.67452,-0.535869 0.0335,-0.118533 0.12805,-0.331964 -0.0261,-0.548568 -0.0893,-0.127707 -0.44908,-0.3429 -0.44908,-0.3429 0,0 0.27622,-0.382059 0.30268,-0.428625 0.0265,-0.04692 0.1277,-0.3429 0.13899,-0.414515 0.0113,-0.07161 0.0169,-0.107244 -0.0363,-0.04127 m -0.0945,1.623131 c -0.15275,0.125588 -0.47413,0.291746 -0.56409,0.300213 -0.0903,0.0088 -0.32985,-0.03528 -0.22543,-0.280811 0.0353,-0.07902 0.27482,-0.488598 0.27482,-0.488598 0.0896,0.04904 0.66781,0.3429 0.5147,0.469196 m -10.16811,-1.307393 -0.19544,0.267052 c -0.006,0.0085 -0.005,0.02011 0.004,0.02646 l 0.33267,0.242358 c 0.008,0.006 0.0198,0.0039 0.0257,-0.0046 l 0.19509,-0.267404 c 0.006,-0.0085 0.005,-0.02011 -0.003,-0.02611 l -0.33302,-0.24271 c -0.008,-0.006 -0.0194,-0.0039 -0.0254,0.0049 m -0.82409,0.144992 c -0.0307,0.07479 -0.15875,0.332669 -0.13899,0.636056 0.004,0.07056 0.0508,0.207081 0.15663,0.210963 0.0547,0 0.12559,-0.03987 0.17568,-0.211667 0.008,-0.03881 0.0141,-0.0702 0.0177,-0.08537 0.005,-0.02294 -0.012,-0.05045 -0.0296,0.0024 -0.0399,0.105482 -0.14393,0.178858 -0.2219,0.0381 -0.0124,-0.02822 -0.0649,-0.156279 0.0314,-0.435679 0.0194,-0.05433 0.0441,-0.135466 0.0441,-0.135466 0.0215,-0.06068 -0.004,-0.09419 -0.0349,-0.01939 m 2.08915,0.357362 c -0.0667,0.04163 -2.03482,1.12254 -2.10326,1.169106 -0.0684,0.04692 -0.0924,0.05927 -0.10231,0.113242 -0.01,0.05398 -0.0145,0.08502 -0.0173,0.09384 -0.0117,0.03634 -0.0194,0.08079 0.0811,0.01093 0.0314,-0.02151 2.01225,-1.109488 2.06905,-1.148998 0.0561,-0.03916 0.0899,-0.05433 0.11218,-0.110773 0.0219,-0.05609 0.0272,-0.06668 0.0388,-0.105479 0.0124,-0.04163 0.0243,-0.08573 -0.0783,-0.02188 m 1.24283,1.345142 c -0.0663,0.04127 -1.08514,0.534458 -1.15358,0.581377 -0.0684,0.04622 -0.0928,0.05891 -0.10231,0.113242 -0.01,0.05362 -0.0148,0.08502 -0.0173,0.09349 -0.0116,0.03634 -0.0194,0.08114 0.0811,0.0113 0.0314,-0.02188 1.06328,-0.52211 1.11937,-0.56162 0.0564,-0.03951 0.0907,-0.05433 0.11218,-0.111125 0.0219,-0.05574 0.0279,-0.06597 0.0388,-0.10513 0.0124,-0.04163 0.0243,-0.08573 -0.0783,-0.02151 m 13.89098,0.02151 c -0.0314,0.08643 -0.043,0.14323 -0.0399,0.176038 0.004,0.03281 0.0148,0.139345 0.0148,0.139345 -0.0325,0.02574 -0.16898,0.110774 -0.30586,0.0099 0.009,-0.02893 0.0268,-0.08855 0.0311,-0.121004 0.0148,-0.05045 -0.0162,-0.08819 -0.0413,-0.03598 -0.0251,0.05292 -0.0829,0.228248 -0.12629,0.267758 -0.0427,0.03916 -0.0935,0.184504 -0.41945,0.03669 -0.0571,-0.02151 -0.15699,-0.0956 -0.31257,0.06103 -0.35242,0.327729 -0.59619,0.353129 -0.9913,0.493887 -0.048,0.02222 -0.14852,0.09737 -0.0293,0.08537 0.11924,-0.01198 0.62018,2.65e-4 0.89288,-0.312914 0.0572,-0.05539 0.12241,-0.201436 0.33902,-0.116417 0.11994,0.04516 0.34184,0.235656 0.58385,-0.140404 0.14216,0.0949 0.35877,0.05715 0.39334,-0.04763 0.0346,-0.104775 0.0741,-0.208846 0.0737,-0.279754 -2.6e-4,-0.07126 -0.007,-0.1651 -0.007,-0.1651 -0.005,-0.05644 -0.0247,-0.136877 -0.0561,-0.0508 m -9.27841,0.198262 c -0.0314,0.0769 -0.16263,0.341488 -0.14252,0.653344 0.005,0.07162 0.0522,0.211667 0.16086,0.2159 0.0561,-2.65e-4 0.12877,-0.04092 0.18027,-0.21731 0.008,-0.03986 0.0145,-0.07161 0.0183,-0.08749 0.005,-0.024 -0.0124,-0.05186 -0.0303,0.0021 -0.0413,0.108302 -0.14782,0.183798 -0.2279,0.03916 -0.0127,-0.02858 -0.0663,-0.16016 0.0321,-0.446969 0.0201,-0.05539 0.0452,-0.138289 0.0452,-0.138289 0.0222,-0.06244 -0.004,-0.09701 -0.036,-0.02045 m -2.03941,0.0695 c -0.0388,0.08678 -0.19861,0.383471 -0.1905,0.74154 0.002,0.0822 0.0501,0.245181 0.17251,0.254351 0.0635,0.0019 0.14711,-0.04128 0.21343,-0.240945 0.012,-0.04481 0.0194,-0.08149 0.0243,-0.09878 0.008,-0.02752 -0.0113,-0.06032 -0.0346,0.0013 -0.0508,0.121709 -0.17498,0.203552 -0.25859,0.03387 -0.0134,-0.03352 -0.0684,-0.185915 0.0561,-0.509765 0.0251,-0.06279 0.0572,-0.156633 0.0572,-0.156633 0.0279,-0.07091 -7.9e-4,-0.111125 -0.0399,-0.02506"
       style="fill:#231f20;fill-opacity:1;fill-rule:evenodd;stroke:none;stroke-width:0.264583"
       id="path1" />
  </g>
</svg>
