<?xml version="1.0" encoding="UTF-8" standalone="no"?>
<!-- Created with Inkscape (http://www.inkscape.org/) -->

<svg
   width="13.946387mm"
   height="6.2566013mm"
   viewBox="0 0 13.946387 6.2566013"
   version="1.1"
   id="svg1"
   xmlns="http://www.w3.org/2000/svg"
   xmlns:svg="http://www.w3.org/2000/svg">
  <defs
     id="defs1" />
  <g
     id="layer1"
     transform="translate(-186.46653,-28.021814)">
    <path
       d="m 192.66923,28.190682 c -0.0702,0.106539 -0.12207,0.362656 -0.0219,0.435681 0.0998,0.07338 0.24624,0.132292 0.24624,0.132292 -0.46603,0.571148 -0.78458,0.679802 -1.05728,0.83961 -0.0699,0.04127 -0.0561,0.07796 -0.0148,0.06703 0.0212,-0.0056 0.38806,-0.0628 0.81598,-0.387704 0.23142,-0.176035 0.37112,-0.47625 0.37112,-0.47625 0,0 0.11606,0.09631 0.13194,0.116065 0.0353,0.04339 0.0543,0.07585 0.0709,0.02998 0.0607,-0.168979 -0.0254,-0.270579 -0.1076,-0.323496 0,0 0.0854,-0.263173 -0.0716,-0.527049 -0.0261,-0.0441 -0.18204,-0.185563 -0.36301,0.09384 m 0.24377,0.07267 c 0.10512,0.09772 0.0889,0.257881 0.0847,0.294568 0,0 -0.1337,-0.06279 -0.19402,-0.08854 -0.0596,-0.02574 -0.0914,-0.0635 -0.0635,-0.1016 0.0924,-0.130175 0.13758,-0.12559 0.17286,-0.104423 m -1.89583,-0.02717 c -0.067,0.0956 -0.121,0.32879 -0.0314,0.397933 0.0896,0.06985 0.22225,0.127707 0.22225,0.127707 -0.44097,0.510468 -1.04881,0.985308 -1.3021,1.124302 -0.0653,0.03563 -0.0533,0.06985 -0.0155,0.06103 0.0194,-0.0049 0.35207,-0.117123 0.75565,-0.398992 0.33937,-0.237418 0.66675,-0.744714 0.66675,-0.744714 0,0 0.10336,0.09137 0.11712,0.109714 0.031,0.04057 0.0476,0.07091 0.0639,0.02893 0.0603,-0.153104 -0.0162,-0.248354 -0.09,-0.29845 0,0 0.085,-0.238828 -0.0522,-0.484716 -0.0226,-0.04057 -0.16158,-0.173919 -0.33444,0.07726 m 0.22119,0.07267 c 0.0931,0.09172 0.0748,0.237773 0.0702,0.27164 0,0 -0.12136,-0.06103 -0.17533,-0.08608 -0.054,-0.02506 -0.0822,-0.06068 -0.0557,-0.09454 0.0878,-0.116769 0.12911,-0.111477 0.16086,-0.09102 m 7.95338,-0.02257 c -0.0702,0.106537 -0.12242,0.362654 -0.0222,0.435679 0.0998,0.07338 0.24624,0.132292 0.24624,0.132292 -0.46567,0.571148 -1.38042,0.977196 -1.59808,1.146881 -0.0646,0.04903 -0.0561,0.07832 -0.0152,0.06703 0.0363,-0.0095 0.73307,-0.20461 1.37054,-0.750358 0.29175,-0.250119 0.28398,-0.269169 0.35842,-0.420863 0.0628,0.03245 0.10654,0.08537 0.13159,0.116417 0.0349,0.04339 0.054,0.07585 0.0705,0.02963 0.061,-0.168629 -0.025,-0.270933 -0.10724,-0.323498 0,0 0.085,-0.262818 -0.0716,-0.527402 -0.0265,-0.0441 -0.18204,-0.185208 -0.36301,0.09419 m 0.24341,0.07267 c 0.10513,0.09772 0.0889,0.257881 0.0847,0.294571 0,0 -0.1337,-0.0628 -0.19367,-0.0882 -0.0596,-0.02574 -0.0914,-0.06385 -0.0639,-0.101952 0.0928,-0.130175 0.13794,-0.12559 0.17286,-0.104423 m -1.78822,-0.165812 c -0.18309,0.232833 -0.19508,0.539043 -0.21907,0.880179 -0.0261,-0.07161 -0.17216,-0.528812 -0.63959,-0.790927 -0.0342,-0.01905 -0.10301,0.01728 -0.10936,0.124883 -0.004,0.06244 -0.0219,0.215194 0.0222,0.258233 0.0441,0.04339 0.17463,0.128059 0.19685,0.140052 0.0219,0.01236 0.0452,0.01376 0.0519,-0.01236 0.007,-0.02611 0.0363,-0.08714 0.079,-0.04339 0.0353,0.03598 0.266,0.226835 0.38559,0.630412 0.0204,0.05362 0.0702,0.05856 0.0818,-0.01728 0.0275,-0.186618 0.0423,-0.511175 0.0572,-0.6096 0.0212,-0.137935 0.0868,-0.423333 0.26211,-0.275518 0.0399,0.03387 0.0818,0.07832 0.0818,0.07832 0.0374,0.04692 0.084,0.100187 0.10654,0.04621 0.0346,-0.08149 0.0621,-0.216959 0.0247,-0.289984 -0.0169,-0.03245 -0.23354,-0.306916 -0.38171,-0.119237 m -1.80058,-0.01058 c -0.0674,0.03951 -1.78752,1.031875 -1.85702,1.077029 -0.0702,0.04516 -0.0945,0.0568 -0.10583,0.110421 -0.0109,0.05362 -0.0166,0.08467 -0.0198,0.09348 -0.0127,0.03563 -0.0212,0.08043 0.0811,0.01341 0.0317,-0.02082 1.76213,-1.020587 1.8228,-1.058333 0.0582,-0.03669 0.0914,-0.05221 0.11501,-0.10795 0.0233,-0.05539 0.0293,-0.06562 0.0416,-0.104423 0.0134,-0.04127 0.0265,-0.08502 -0.078,-0.02363 m -5.91009,0.04445 c -0.0307,0.07514 -0.1584,0.332668 -0.13864,0.636762 0.004,0.0702 0.0508,0.207081 0.15628,0.210608 0.0547,0 0.12559,-0.03951 0.17568,-0.211666 0.009,-0.0388 0.0141,-0.06985 0.018,-0.08537 0.005,-0.02294 -0.012,-0.05045 -0.0296,0.0028 -0.0399,0.10513 -0.14393,0.178858 -0.2219,0.0374 -0.0123,-0.02822 -0.0653,-0.155929 0.0314,-0.435681 0.0194,-0.05398 0.0441,-0.13476 0.0441,-0.13476 0.0215,-0.06138 -0.005,-0.09455 -0.0353,-0.02011 m -3.05858,0.859012 c -0.12383,0.04868 -0.19121,0.102659 -0.24871,0.22719 -0.0575,0.125235 -0.1524,0.402167 -0.0261,0.561623 0.12665,0.159454 0.44662,0.349602 0.50871,0.397227 0.0215,0.01622 0.0769,0.06456 0.14182,0.123119 -0.13547,0.134763 -0.27094,0.298098 -0.38806,0.494596 -0.0998,-0.0011 -0.18309,-0.0042 -0.23883,-0.01093 -0.0691,-0.0042 -0.13194,-0.0088 -0.0497,0.06491 0.03,0.02681 0.0808,0.08043 0.18697,0.13476 -0.0243,0.0508 -0.0476,0.103716 -0.0691,0.158398 -0.0307,0.08396 -0.54716,1.39982 0.084,2.1844 0.10371,0.128762 0.76306,0.773993 1.85102,0.170743 0.1591,-0.08819 0.95144,-0.664281 1.12043,-1.481666 0.0257,-0.124884 0.24694,-0.905934 -0.40358,-1.159227 -0.20144,-0.07832 -0.57962,-0.162632 -1.13383,-0.109008 -0.11924,0.0074 -0.66463,0.03774 -1.0989,0.04586 0.0914,-0.108302 0.20108,-0.214842 0.3309,-0.315384 0.0589,0.0568 0.10513,0.104069 0.11536,0.121002 0.031,0.05256 0.067,0.04445 0.0755,0 0.005,-0.02506 0.0332,-0.117827 -0.005,-0.251528 0.0402,-0.02506 0.0818,-0.05045 0.12559,-0.07479 0.13758,-0.07691 1.67181,-0.936625 1.67181,-0.936625 0.0586,-0.151342 0.067,-0.18909 0.0882,-0.252235 0.0208,-0.0628 0.0169,-0.0882 -0.0505,-0.109363 -0.0674,-0.02045 -1.83268,-0.280104 -2.58798,0.01693 m 1.97026,0.310798 c -0.0448,0.02822 -0.76693,0.422982 -0.88194,0.484717 -0.0522,0.02787 -0.24659,0.123118 -0.47625,0.304093 -0.0268,-0.03281 -0.0579,-0.06632 -0.0938,-0.100893 -0.0734,-0.0695 -0.58596,-0.431448 -0.62089,-0.459317 -0.0342,-0.02822 -0.10619,-0.08043 0.004,-0.142875 0.11007,-0.06244 0.46743,-0.216958 2.0694,-0.08573 m -0.83926,1.818923 c 0.0931,-0.0063 1.00189,-0.0628 1.34338,0.200377 0.11218,0.08396 0.41063,0.281517 0.26317,0.694267 -0.0282,0.07973 -0.4946,1.140531 -1.53176,1.279877 -0.17851,0.02434 -1.50919,0.189441 -1.44075,-1.246362 0.004,-0.07761 0.003,-0.52423 0.28822,-0.999422 0.21026,0.06527 0.54328,0.110067 1.07774,0.07126 m 0.68368,0.394052 c -0.0727,0.02787 -1.07209,0.458258 -1.15323,0.4953 -0.0751,0.03457 -0.0949,0.05539 -0.10654,0.109008 -0.0123,0.05362 -0.0183,0.08467 -0.0215,0.09349 -0.013,0.03563 -0.03,0.06667 0.0811,0.01447 0.0536,-0.02574 1.04175,-0.43956 1.1183,-0.47766 0.061,-0.03034 0.0921,-0.05045 0.11642,-0.106188 0.024,-0.05503 0.0303,-0.06491 0.0434,-0.103716 0.0138,-0.04092 0.0314,-0.06632 -0.078,-0.02469 m 0.0402,0.370769 c -0.073,0.02787 -1.07244,0.458258 -1.15322,0.495654 -0.0752,0.03422 -0.0949,0.05468 -0.1069,0.108654 -0.0116,0.05362 -0.018,0.08467 -0.0212,0.09313 -0.013,0.03563 -0.03,0.06668 0.0811,0.01447 0.0536,-0.0254 1.04176,-0.439208 1.11831,-0.477308 0.0614,-0.03069 0.0924,-0.05045 0.11642,-0.106186 0.024,-0.05539 0.0303,-0.06491 0.043,-0.104071 0.0141,-0.04092 0.0318,-0.06632 -0.0776,-0.02434 m 7.44432,-2.442985 c -0.0346,0.08396 -0.17851,0.37465 -0.15698,0.717198 0.006,0.07902 0.0579,0.233186 0.17674,0.237419 0.0621,-2.65e-4 0.14181,-0.0448 0.19826,-0.238832 0.01,-0.04339 0.0159,-0.07867 0.0201,-0.09595 0.006,-0.02612 -0.0138,-0.05751 -0.0335,0.0028 -0.0452,0.118533 -0.16228,0.201438 -0.24977,0.04233 -0.0145,-0.03139 -0.0737,-0.175683 0.0349,-0.490712 0.0222,-0.06103 0.0497,-0.1524 0.0497,-0.1524 0.0243,-0.06879 -0.005,-0.10654 -0.0395,-0.02188 m -4.89267,-0.01587 -0.19544,0.267052 c -0.006,0.0088 -0.005,0.02045 0.004,0.02646 l 0.33267,0.242713 c 0.008,0.0053 0.0198,0.0032 0.0257,-0.0049 l 0.19509,-0.267406 c 0.006,-0.0085 0.005,-0.02011 -0.003,-0.02612 l -0.33267,-0.242712 c -0.008,-0.006 -0.0201,-0.0035 -0.0257,0.0049 m 8.19996,0.188736 c -0.0317,0.07796 -0.16545,0.347487 -0.14499,0.664281 0.005,0.07338 0.0533,0.2159 0.16369,0.219781 0.0572,0 0.13088,-0.04163 0.18309,-0.220839 0.009,-0.04057 0.0148,-0.07303 0.0187,-0.0889 0.005,-0.02469 -0.0124,-0.05292 -0.031,0.0024 -0.0416,0.109715 -0.14993,0.186621 -0.23107,0.03916 -0.013,-0.02928 -0.0684,-0.162629 0.0324,-0.454377 0.0201,-0.05644 0.0455,-0.14111 0.0455,-0.14111 0.0229,-0.0635 -0.004,-0.09807 -0.0363,-0.02045 m -6.20642,0.0085 -0.16863,0.230717 -0.32279,-0.235654 c -0.008,-0.0056 -0.0194,-0.0035 -0.0257,0.0049 l -0.19508,0.267407 c -0.006,0.0085 -0.005,0.02011 0.003,0.02611 l 0.33338,0.242358 c 0.008,0.006 0.0194,0.0039 0.0257,-0.0046 l 0.16792,-0.230717 0.32315,0.235305 c 0.008,0.006 0.0198,0.0039 0.0261,-0.0046 l 0.19438,-0.267403 c 0.006,-0.0085 0.005,-0.01976 -0.003,-0.02611 l -0.33299,-0.242715 c -0.008,-0.0056 -0.0194,-0.0035 -0.0257,0.0049 m -2.93229,0.388408 c -0.0385,0.09984 -0.2025,0.445558 -0.15205,0.839613 0.012,0.09066 0.0885,0.265287 0.23954,0.261054 0.078,-0.0046 0.17603,-0.06174 0.23495,-0.289629 0.01,-0.05116 0.0152,-0.09208 0.019,-0.112184 0.006,-0.03069 -0.0205,-0.06526 -0.042,0.0056 -0.0494,0.140052 -0.19227,0.244123 -0.31398,0.06703 -0.0198,-0.03563 -0.10407,-0.197908 0.013,-0.569383 0.0233,-0.07232 0.0526,-0.179211 0.0526,-0.179211 0.0261,-0.08114 -0.013,-0.122414 -0.0511,-0.02294 m 4.23545,0.02752 c -0.0127,0.04516 -0.0455,0.239889 -0.0533,0.280106 -0.008,0.03987 -0.007,0.07938 0.0124,0.113948 0.0201,0.03422 0.0705,0.152752 0.10724,0.24906 0.036,0.09631 0.41416,0.82409 0.44909,0.888294 0.0349,0.06456 0.042,0.113242 0.007,0.155575 -1.2125,1.279879 -3.55282,2.066573 -3.62726,2.109965 -0.0751,0.04339 -0.0554,0.07691 0.0706,0.05468 0.18838,-0.03246 1.2393,-0.208492 1.53916,-0.352779 0.19791,-0.0956 0.88795,-0.434269 1.45239,-0.876652 -0.0159,0.113948 -0.0303,0.282575 -0.0222,0.4953 0.0381,1.029052 0.95849,0.858308 1.19979,0.805391 0.7239,-0.15875 1.60867,-1.159227 1.68417,-1.359958 0.0741,-0.198615 0.0847,-0.379942 0.0681,-0.537633 0.1905,-0.103011 0.60008,-0.43321 0.60008,-0.43321 0.0166,0.438501 0.36583,0.570441 0.47342,0.589491 0.50342,0.07655 0.75565,-0.344665 0.8629,-0.480838 0.0914,0.240596 0.31221,0.287515 0.4258,0.30974 0.43462,0.08643 0.51894,-0.22084 0.54116,-0.291042 0.13617,-0.423685 -0.10901,-0.739068 -0.1404,-0.774348 -0.0318,-0.03493 -0.048,-0.0011 -0.0589,0.03916 -0.0109,0.04092 -0.0462,0.193323 -0.0677,0.288925 0,0 0.0903,0.148166 0.12277,0.223308 0.0321,0.07514 -0.0159,0.116417 -0.10901,0.128058 -0.26423,0.03246 -0.47555,-0.119237 -0.54787,-0.189087 -0.0727,-0.06985 0.006,-0.193323 0.0646,-0.341138 0.0469,-0.117827 -0.0402,-0.132291 -0.10689,-2.64e-4 -0.22401,0.589139 -0.53869,0.652639 -0.62159,0.675216 -0.74613,0.2032 -0.68192,-0.479073 -0.6791,-0.59055 0.003,-0.111831 -0.079,-0.07056 -0.17075,0.0032 -0.31397,0.251884 -0.56726,0.40005 -0.70308,0.460727 -0.11677,-0.2286 -0.28716,-0.372533 -0.35913,-0.424391 -0.80715,-0.588786 -0.87348,0.599016 -0.84949,0.726371 0.12312,0.505529 0.94791,0.198966 1.07739,0.183795 0.12911,-0.01516 0.0871,0.155575 0.0145,0.257175 -0.17921,0.250121 -0.38559,0.429684 -0.57291,0.582438 -0.79975,0.652285 -1.20121,0.600779 -1.32433,0.596546 -0.78564,-0.02222 -0.71367,-0.868538 -0.66992,-1.049161 0.23636,-0.200377 0.4392,-0.417689 0.55703,-0.641702 0.0483,-0.122766 0.13123,-0.401814 -0.0183,-0.751416 -0.0787,-0.154165 -0.32633,-0.586317 -0.32633,-0.586317 0,0 0.18239,0.006 0.19968,0.0053 0.0173,-2.65e-4 0.0519,-0.01834 0.008,-0.06915 -0.0445,-0.0515 -0.42792,-0.433562 -0.45085,-0.464254 -0.0233,-0.03069 -0.0448,-0.05292 -0.0575,-0.0078 m 2.42252,1.7526 c 0,0 -0.11042,0.06315 -0.41769,0.04233 -0.25788,-0.01728 -0.23565,-0.117475 -0.20002,-0.155927 0.0381,-0.04163 0.35384,-0.240242 0.61771,0.113594 m -5.47405,-1.599846 c -0.0109,0.01693 -0.073,0.20461 -0.0871,0.255762 -0.0141,0.0508 0,0.122063 0.0251,0.189442 0.0251,0.06703 0.35278,0.808567 0.36971,0.855133 0.0169,0.04586 0.0441,0.07726 0.002,0.113242 -0.0402,0.03422 -0.26917,0.18909 -0.39546,0.23354 -0.24095,-0.609952 -0.66146,-0.514702 -0.78599,-0.422275 -0.0917,0.06808 -0.3115,0.272343 -0.2981,0.604308 0.013,0.09737 0.0741,0.292452 0.40816,0.315031 0.0914,0.006 0.24166,0.01376 0.39935,-0.0321 0.28575,-0.08325 0.28046,0.02011 0.21202,0.128413 -0.47519,0.824441 -3.42089,1.6256 -3.42089,1.6256 -0.0621,0.03351 -0.127,0.07761 -0.11853,0.104068 0.009,0.02681 0.0265,0.02469 0.0759,0.01058 0.0494,-0.0141 1.29257,-0.128411 1.35078,-0.161574 0.0582,-0.03387 1.49649,-0.469193 2.09409,-1.125712 0.0603,-0.06597 0.23989,-0.303037 0.17427,-0.721783 0.15135,-0.0628 0.40217,-0.157692 0.47272,-0.536929 0.0275,-0.189442 0.0568,-0.428271 -0.21378,-0.888294 -0.0116,-0.02045 0.024,-0.0046 0.0505,0.0064 0.0257,0.0113 0.067,0.02611 0.085,0.03246 0.018,0.006 0.073,-0.0071 0.0452,-0.04621 -0.0282,-0.03916 -0.40675,-0.532694 -0.41874,-0.548923 -0.012,-0.01588 -0.0152,-0.0067 -0.0261,0.0099 m -0.36512,1.716969 c 0,0 -0.22437,0.08925 -0.50871,0.02999 -0.11289,-0.03387 0.012,-0.164041 0.0995,-0.188029 0.0557,-0.01516 0.20003,-0.05715 0.40923,0.158044 m 2.52236,-1.541992 c -0.0533,0.06632 -0.58985,0.770115 -0.58985,0.770115 l -0.38982,-0.27799 c 0,0 0.15911,-0.03986 0.18662,-0.04833 0.0279,-0.0081 0.0434,-0.04374 -0.006,-0.06914 -0.0501,-0.02574 -0.51999,-0.213431 -0.55598,-0.227893 -0.0356,-0.01447 -0.0487,-0.03069 -0.0515,0.0071 -0.004,0.03845 -0.009,0.34784 -0.009,0.34784 0,0 -0.007,0.02151 0.0339,0.0448 0.0409,0.02328 0.0815,0.07338 0.115,0.106892 0.0335,0.03351 0.47096,0.378531 0.49213,0.390879 0,0 -0.21873,0.384527 -0.24659,0.685446 -0.0275,0.300921 0.005,0.716139 0.41663,0.582083 0.11077,-0.03175 0.5715,-0.214842 0.67451,-0.536221 0.0335,-0.117829 0.12806,-0.331964 -0.0261,-0.548571 -0.0892,-0.127352 -0.44873,-0.3429 -0.44873,-0.3429 0,0 0.27587,-0.381704 0.30233,-0.42827 0.0261,-0.04692 0.12771,-0.342548 0.13935,-0.414163 0.0113,-0.07161 0.0169,-0.107596 -0.0367,-0.04163 m -0.0942,1.623131 c -0.15311,0.125588 -0.47414,0.291746 -0.56445,0.300213 -0.0903,0.0088 -0.32984,-0.03528 -0.22578,-0.280811 0.036,-0.07902 0.27553,-0.48895 0.27553,-0.48895 0.0893,0.04939 0.66745,0.343607 0.5147,0.469548 m 6.23041,0.561621 c -0.031,0.08643 -0.043,0.142875 -0.0402,0.175683 0.004,0.03281 0.0148,0.1397 0.0148,0.1397 -0.0318,0.02574 -0.16863,0.110421 -0.30551,0.01024 0.009,-0.02928 0.0268,-0.08855 0.0307,-0.121357 0.0148,-0.05044 -0.0162,-0.08819 -0.0409,-0.03598 -0.0251,0.05257 -0.0829,0.228248 -0.12594,0.267758 -0.0434,0.03916 -0.0935,0.184505 -0.41981,0.03704 -0.0568,-0.02188 -0.15663,-0.09631 -0.31256,0.06068 -0.35278,0.327729 -0.59584,0.353484 -0.9913,0.493887 -0.0476,0.02188 -0.14817,0.09702 -0.0289,0.08502 0.11924,-0.01164 0.62018,2.64e-4 0.89288,-0.312915 0.0568,-0.05503 0.12241,-0.201083 0.33902,-0.116417 0.11994,0.04551 0.34149,0.235657 0.58314,-0.140052 0.14288,0.0949 0.35913,0.0568 0.39335,-0.04762 0.0349,-0.104775 0.0744,-0.208846 0.0737,-0.280106 0,-0.07126 -0.006,-0.164748 -0.006,-0.164748 -0.005,-0.05644 -0.0243,-0.136525 -0.0561,-0.0508"
       style="fill:#231f20;fill-opacity:1;fill-rule:evenodd;stroke:none;stroke-width:0.264583"
       id="path1" />
  </g>
</svg>
