<?xml version="1.0" encoding="UTF-8" standalone="no"?>
<!-- Created with Inkscape (http://www.inkscape.org/) -->

<svg
   width="15.891068mm"
   height="6.8850231mm"
   viewBox="0 0 15.891068 6.8850231"
   version="1.1"
   id="svg1"
   xmlns="http://www.w3.org/2000/svg"
   xmlns:svg="http://www.w3.org/2000/svg">
  <defs
     id="defs1" />
  <g
     id="layer1"
     transform="translate(-183.11239,-22.382703)">
    <path
       d="m 188.00692,22.402659 c -0.0166,0.0388 -0.14852,0.323496 -0.14852,0.323496 0.003,0.02294 0.0325,0.09349 0.0526,0.238125 0.0191,0.137938 0.0455,0.330554 0.0748,0.544338 0,0 0.28928,1.83162 0.30409,1.989666 0.0148,0.158044 0.0106,0.257879 -0.006,0.278694 -0.0543,0.05786 -0.88018,0.06421 -1.09819,0.144992 -0.0265,0.01236 -0.0434,0.02893 -0.0723,0.0829 -0.0289,0.05397 -0.0808,0.194734 -0.10125,0.233892 -0.0208,0.03951 0.0205,0.05821 0.0494,0.04974 0.39405,-0.09772 1.36525,0.165806 1.80869,0.312915 -0.16263,0.04516 -1.28658,0.517525 -1.8602,0.3937 -0.0501,-0.01164 -0.31714,-0.04057 -0.46425,-0.379236 -0.0113,-0.02611 -0.085,-0.197908 -0.10407,-0.241654 -0.0226,-0.0515 -0.0684,-0.0642 -0.0907,-0.01976 -0.0423,0.08431 -0.0945,0.31115 -0.0945,0.31115 0.0773,0.163688 0.29422,0.590196 0.34008,0.972254 0.004,0.03987 0.0155,0.09067 -0.0459,0.152048 -0.0617,0.06174 -0.55598,0.553157 -1.72226,0.764469 -0.14006,0.0254 -1.05587,0.213783 -1.45063,-0.479071 -0.0469,-0.08185 -0.21025,-0.571148 0.0751,-1.220964 0.005,-0.01164 0.008,-0.02257 0.0102,-0.03316 0.01,0.0013 0.0194,0.0024 0.0296,0.0021 0.097,-0.006 0.21801,-0.09384 0.28681,-0.449792 0.0109,-0.08008 0.0169,-0.144287 0.0219,-0.176037 0.007,-0.04798 -0.0268,-0.102304 -0.0526,0.0081 -0.0586,0.218723 -0.23424,0.37959 -0.38876,0.09913 -0.0257,-0.05574 -0.13335,-0.311857 0.005,-0.89253 0.0282,-0.112535 0.0624,-0.280458 0.0624,-0.280458 0.0314,-0.127 -0.0187,-0.192262 -0.0642,-0.03634 -0.0455,0.155575 -0.24272,0.694618 -0.17322,1.313391 0.0124,0.110067 0.0741,0.29845 0.18803,0.377473 -0.009,0.01236 -0.0176,0.02822 -0.0261,0.04868 -0.0557,0.142875 -0.64523,1.388885 0.26176,1.964618 0.11783,0.06279 0.74225,0.502709 2.11173,-0.125235 0.23601,-0.10795 0.67416,-0.379238 0.75812,-0.454731 0.084,-0.07549 0.22225,-0.142524 0.29351,-0.844199 0.13899,0.02963 0.59231,0.07162 0.91581,-0.02928 0.3235,-0.100897 1.50389,-0.521055 1.93251,-0.567267 0.10231,-0.01093 0.21838,-0.01516 0.33585,-0.01516 0.0427,0.371124 0.0751,0.700972 0.0783,0.881947 -0.005,0.05927 0.0208,0.08114 0.048,0.02468 0.0145,-0.02998 0.0762,-0.154868 0.0974,-0.482952 0.008,-0.112183 0.008,-0.251883 0,-0.419806 0.28998,0.01024 0.53658,0.03634 0.53658,0.03634 0.0547,-0.138287 0.13476,-0.40287 0.13476,-0.40287 -0.0335,0 -0.30798,-0.0024 -0.70062,-0.03563 -0.01,-0.1016 -0.0222,-0.209902 -0.0367,-0.325966 -0.01,-0.07585 -0.35136,-2.723444 -0.35136,-2.723444 0,0 0.19543,0.186971 0.22683,0.220837 0.0314,0.03387 0.0702,0.01659 0.0526,-0.03775 -0.0176,-0.05397 -0.41311,-1.033992 -0.42545,-1.068213 -0.013,-0.03387 -0.0258,-0.05856 -0.0427,-0.01939 -0.0162,0.03881 -0.14005,0.334785 -0.14005,0.334785 0.002,0.01765 0.0349,0.147108 0.0406,0.195792 0.0462,0.376766 0.30516,2.375254 0.4311,3.400073 -0.46496,-0.04939 -1.03717,-0.140407 -1.56633,-0.306565 0,0 0.18027,-0.189087 0.16404,-0.45367 -0.0169,-0.264584 -0.34713,-2.375607 -0.34713,-2.375607 0,0 0.19579,0.186619 0.22719,0.220485 0.0318,0.03387 0.0702,0.01622 0.0526,-0.03775 -0.0176,-0.05433 -0.37853,-0.932746 -0.39123,-0.966613 -0.0127,-0.03387 -0.0258,-0.05891 -0.0423,-0.01976 m 3.25437,0.411691 c -0.0702,0.106538 -0.12206,0.362654 -0.0219,0.435327 0.0998,0.07373 0.24623,0.132644 0.24623,0.132644 -0.46601,0.571148 -0.78492,0.680156 -1.05692,0.839613 -0.0702,0.04092 -0.0564,0.07796 -0.0152,0.06703 0.0208,-0.006 0.38771,-0.06279 0.81563,-0.387702 0.23177,-0.176038 0.37147,-0.47625 0.37147,-0.47625 0,0 0.11607,0.09631 0.13194,0.116062 0.0349,0.04339 0.0543,0.07585 0.0705,0.02963 0.061,-0.168627 -0.0254,-0.270579 -0.10724,-0.323143 0,0 0.0854,-0.263173 -0.0716,-0.527402 -0.0261,-0.0441 -0.18204,-0.185563 -0.36301,0.09419 m 0.24377,0.07232 c 0.10477,0.09807 0.0889,0.258233 0.0847,0.294923 0,0 -0.13406,-0.0628 -0.19403,-0.08855 -0.06,-0.02574 -0.0917,-0.0635 -0.0639,-0.101952 0.0924,-0.129823 0.13794,-0.125238 0.17322,-0.104423 m 6.27838,0.02328 c -0.0699,0.10654 -0.12206,0.362657 -0.0222,0.435327 0.10019,0.07373 0.24659,0.132646 0.24659,0.132646 -0.46567,0.571146 -1.38077,0.977194 -1.59808,1.146879 -0.0653,0.04904 -0.0565,0.07797 -0.0152,0.06703 0.0363,-0.0099 0.73307,-0.204613 1.37054,-0.750359 0.29174,-0.250473 0.28363,-0.269171 0.35772,-0.420864 0.0635,0.03246 0.10724,0.08502 0.13193,0.116064 0.0353,0.04374 0.0543,0.07585 0.0709,0.02963 0.0607,-0.16863 -0.0254,-0.270582 -0.10759,-0.323146 0,0 0.0857,-0.263171 -0.0716,-0.527402 -0.0261,-0.0441 -0.18203,-0.185561 -0.36301,0.09419 m 0.24377,0.07267 c 0.10513,0.09772 0.0889,0.257879 0.085,0.294569 0,0 -0.13405,-0.06279 -0.19438,-0.08855 -0.0596,-0.0254 -0.091,-0.0635 -0.0632,-0.1016 0.0921,-0.130175 0.13723,-0.125587 0.17251,-0.104421 m -13.379,-0.174562 c -0.17427,0.221544 -0.18556,0.512234 -0.20849,0.836788 -0.0247,-0.06773 -0.16405,-0.503061 -0.60819,-0.752121 -0.0325,-0.01834 -0.0984,0.01622 -0.10407,0.118533 -0.004,0.05962 -0.0212,0.204611 0.0208,0.245886 0.0406,0.03986 0.34114,0.144991 0.17815,0.317852 -0.073,0.07691 -0.43885,0.4572 -0.51752,0.548923 -0.0783,0.09172 -0.0861,0.108656 -0.002,0.06209 0.0847,-0.04727 0.57186,-0.236362 0.65229,-0.720021 0.007,-0.06315 -0.006,-0.110418 -0.0208,-0.14252 0.006,0.0019 0.0141,0.006 0.0212,0.01376 0.0342,0.03422 0.2533,0.2159 0.36689,0.599721 0.0201,0.05115 0.067,0.05609 0.0783,-0.01622 0.0257,-0.1778 0.0402,-0.486482 0.0543,-0.579967 0.0201,-0.131585 0.0825,-0.402873 0.24941,-0.262115 0.0377,0.03211 0.078,0.07444 0.078,0.07444 0.0353,0.04445 0.0797,0.09525 0.1016,0.04374 0.0324,-0.07726 0.0589,-0.206375 0.0229,-0.275519 -0.0162,-0.03105 -0.22225,-0.292455 -0.36301,-0.113242 m 11.59051,0.0092 c -0.18344,0.232482 -0.19509,0.538692 -0.21943,0.87983 -0.0257,-0.07161 -0.1718,-0.529167 -0.63958,-0.79093 -0.0339,-0.01905 -0.10301,0.01693 -0.10936,0.124884 -0.004,0.0628 -0.0215,0.214841 0.0226,0.258233 0.0441,0.04339 0.17462,0.128058 0.19649,0.140055 0.0222,0.01199 0.0455,0.01376 0.0522,-0.0127 0.007,-0.02612 0.0363,-0.08678 0.079,-0.04304 0.0353,0.03598 0.26564,0.226483 0.38488,0.630415 0.0212,0.05327 0.0709,0.05856 0.0825,-0.01728 0.0272,-0.186618 0.042,-0.511527 0.0572,-0.6096 0.0208,-0.138287 0.0868,-0.423333 0.26176,-0.275518 0.0399,0.03387 0.0822,0.07796 0.0822,0.07796 0.0374,0.04727 0.084,0.100541 0.10618,0.04657 0.0346,-0.08149 0.0624,-0.216958 0.0247,-0.289983 -0.0166,-0.03246 -0.23354,-0.307271 -0.38135,-0.118888 m -1.80058,-0.01093 c -0.0674,0.03951 -1.78788,1.032227 -1.85738,1.077383 -0.0699,0.0448 -0.0942,0.05609 -0.10548,0.110067 -0.0113,0.05327 -0.0166,0.08467 -0.0198,0.09348 -0.0127,0.03563 -0.0219,0.08008 0.0808,0.01304 0.0321,-0.02082 1.76213,-1.020588 1.82245,-1.058333 0.0582,-0.03634 0.0921,-0.05186 0.11572,-0.107599 0.0233,-0.05574 0.0293,-0.06562 0.0416,-0.104423 0.0134,-0.04127 0.0265,-0.08467 -0.078,-0.02363 m -8.51111,0.01834 c -0.0307,0.07479 -0.1584,0.332671 -0.139,0.636413 0.005,0.07055 0.0512,0.207078 0.15663,0.21096 0.0547,-2.65e-4 0.12524,-0.03986 0.17569,-0.212019 0.008,-0.03881 0.0141,-0.06985 0.018,-0.08502 0.005,-0.02328 -0.012,-0.0508 -0.0296,0.0024 -0.0402,0.105127 -0.14393,0.178504 -0.22189,0.03739 -0.0127,-0.02787 -0.0653,-0.155575 0.031,-0.435327 0.0194,-0.05433 0.0445,-0.135115 0.0445,-0.135115 0.0212,-0.06138 -0.005,-0.09454 -0.0353,-0.01976 m 1.09184,0.131233 c -0.0452,0.129117 -0.23213,0.574323 -0.2099,1.101373 0.005,0.121709 0.0688,0.359834 0.21943,0.367594 0.078,7.93e-4 0.17921,-0.06703 0.254,-0.364067 0.013,-0.06738 0.0212,-0.121354 0.0268,-0.14746 0.008,-0.04057 -0.0159,-0.08855 -0.042,0.0035 -0.0593,0.182033 -0.20849,0.307975 -0.3168,0.06209 -0.0173,-0.04868 -0.0899,-0.271286 0.0522,-0.754592 0.0293,-0.09348 0.0653,-0.23354 0.0653,-0.23354 0.0321,-0.105833 -0.004,-0.164042 -0.049,-0.03493 m 7.74982,1.20509 c -0.0346,0.08432 -0.17885,0.37465 -0.15698,0.717198 0.005,0.07938 0.0579,0.233537 0.17674,0.237419 0.0621,0 0.14181,-0.0448 0.19791,-0.238477 0.01,-0.04375 0.0162,-0.07867 0.0198,-0.09596 0.007,-0.02611 -0.013,-0.05715 -0.0328,0.0024 -0.0455,0.118888 -0.16228,0.20179 -0.24976,0.04269 -0.0145,-0.03175 -0.0737,-0.175683 0.0349,-0.490714 0.0219,-0.06138 0.0494,-0.1524 0.0494,-0.1524 0.0243,-0.06914 -0.005,-0.10654 -0.0392,-0.02222 m -9.76164,0.102475 c -0.0257,0.07937 -0.0448,0.140759 -0.0106,0.231775 0.0346,0.09031 0.12806,0.296334 0.14323,0.325612 0.0155,0.02963 0.0194,0.0628 -0.0318,0.08467 -0.0511,0.02151 -0.28504,0.07126 -0.32879,-0.1778 -0.0434,-0.249412 -0.0473,-0.322085 -0.0688,-0.364418 -0.0219,-0.04233 -0.0423,-0.04727 -0.0589,-0.0049 -0.0166,0.04198 -0.0265,0.129117 -0.0293,0.143229 -0.002,0.01376 -0.002,0.024 0.006,0.03951 0.009,0.01516 0.1023,0.293864 0.06,0.370768 -0.042,0.07655 -0.25189,0.214842 -0.3616,0.0702 -0.0526,-0.100896 -0.0205,-0.356659 -0.0205,-0.416632 0,-0.06032 -0.019,-0.08078 -0.0448,-0.0321 -0.0258,0.04868 -0.0399,0.08043 -0.0385,0.123825 0.001,0.04374 0.008,0.230363 0.004,0.288925 -0.004,0.05891 0,0.249413 0.11218,0.303036 0.11219,0.05398 0.27623,0.0039 0.40005,-0.230011 0.096,0.139346 0.24165,0.1397 0.31962,0.111125 0.0667,-0.024 0.14076,-0.123825 0.16228,-0.261762 0.0219,-0.138288 -0.0138,-0.233186 -0.0575,-0.310796 -0.0575,-0.09596 -0.0956,-0.256823 -0.0956,-0.256823 -0.0208,-0.05786 -0.0356,-0.116417 -0.0614,-0.03739 m 13.069,0.07091 c -0.0317,0.07832 -0.16545,0.346779 -0.14534,0.663927 0.005,0.07338 0.0536,0.216252 0.16369,0.220133 0.0572,-2.65e-4 0.13088,-0.04163 0.18344,-0.22084 0.009,-0.04057 0.0148,-0.07338 0.0187,-0.0889 0.005,-0.02434 -0.0127,-0.05327 -0.0307,0.0021 -0.042,0.110067 -0.15063,0.186973 -0.23212,0.03951 -0.013,-0.02893 -0.0677,-0.16228 0.0328,-0.45438 0.0204,-0.0568 0.0459,-0.140758 0.0459,-0.140758 0.0229,-0.06385 -0.005,-0.09878 -0.0363,-0.02082 m -6.72359,0.0081 -0.19544,0.267758 c -0.006,0.0085 -0.004,0.02011 0.004,0.02574 l 0.33232,0.24271 c 0.008,0.006 0.0198,0.0039 0.0265,-0.0046 l 0.16792,-0.230717 0.3228,0.235302 c 0.008,0.006 0.0198,0.0039 0.0257,-0.0046 l 0.19508,-0.267406 c 0.006,-0.0085 0.005,-0.02011 -0.003,-0.02612 l -0.33267,-0.24271 c -0.008,-0.0056 -0.0198,-0.0035 -0.0261,0.0046 l -0.16828,0.231072 -0.32279,-0.235657 c -0.008,-0.0056 -0.0194,-0.0035 -0.0257,0.0046 m -5.23101,0.261083 c -0.0339,0.09948 -0.1785,0.444148 -0.13123,0.8382 0.0109,0.09102 0.0808,0.265994 0.2166,0.262819 0.0699,-0.0042 0.1577,-0.06103 0.20955,-0.288219 0.008,-0.05115 0.013,-0.09208 0.0169,-0.112183 0.005,-0.03034 -0.0194,-0.06526 -0.0381,0.0053 -0.0438,0.140051 -0.17145,0.243064 -0.28187,0.06526 -0.018,-0.03563 -0.0945,-0.198263 0.008,-0.569031 0.0208,-0.07197 0.0466,-0.178858 0.0466,-0.178858 0.0233,-0.08114 -0.0124,-0.122767 -0.0466,-0.02328 m 7.05132,0.155223 c -0.013,0.04515 -0.0459,0.239536 -0.0533,0.280104 -0.008,0.03986 -0.008,0.07973 0.0127,0.113596 0.0194,0.03457 0.0699,0.152752 0.10654,0.249412 0.0367,0.09596 0.41416,0.82409 0.44909,0.888297 0.0353,0.06456 0.0423,0.112887 0.007,0.155575 -1.21285,1.279525 -3.55318,2.066218 -3.62797,2.109962 -0.0748,0.04339 -0.0547,0.07726 0.0713,0.05503 0.18839,-0.03316 1.23931,-0.208843 1.53917,-0.353129 0.19756,-0.09525 0.88759,-0.433916 1.45239,-0.876654 -0.0159,0.1143 -0.0303,0.282223 -0.0222,0.4953 0.0381,1.029406 0.95815,0.858308 1.1998,0.805391 0.72355,-0.15875 1.60831,-1.158875 1.68346,-1.359958 0.0744,-0.198612 0.0857,-0.379587 0.0688,-0.537985 0.1905,-0.10301 0.59972,-0.432858 0.59972,-0.432858 0.0169,0.438501 0.36618,0.570441 0.47343,0.589491 0.50341,0.07655 0.756,-0.34431 0.86289,-0.480835 0.0921,0.240594 0.31256,0.28716 0.4258,0.309737 0.43427,0.08643 0.51894,-0.220837 0.54152,-0.291042 0.13652,-0.423333 -0.10901,-0.73942 -0.14076,-0.774345 -0.0318,-0.03492 -0.0476,-0.0013 -0.0586,0.03916 -0.0109,0.04057 -0.0462,0.193321 -0.0684,0.288925 0,0 0.091,0.147812 0.12347,0.223309 0.0325,0.07549 -0.0159,0.116768 -0.10936,0.128058 -0.26423,0.0321 -0.47484,-0.11924 -0.54786,-0.18909 -0.0723,-0.06985 0.006,-0.193323 0.0646,-0.341135 0.0469,-0.11783 -0.0399,-0.132292 -0.10654,-2.65e-4 -0.22402,0.58914 -0.53905,0.65264 -0.6216,0.675217 -0.74612,0.2032 -0.68156,-0.47907 -0.6791,-0.59055 0.002,-0.111829 -0.079,-0.07055 -0.17109,0.0032 -0.31397,0.252238 -0.56692,0.40005 -0.70238,0.46073 -0.11783,-0.228955 -0.28752,-0.372534 -0.35948,-0.424747 -0.80716,-0.588785 -0.87419,0.599372 -0.84949,0.726724 0.12241,0.505176 0.94756,0.198966 1.07703,0.183798 0.12947,-0.01516 0.0875,0.155575 0.0145,0.25682 -0.17886,0.250473 -0.38523,0.430038 -0.57256,0.58279 -0.79975,0.652285 -1.20121,0.600781 -1.32468,0.596548 -0.78563,-0.02188 -0.71296,-0.86854 -0.66957,-1.049163 0.23601,-0.200377 0.43921,-0.418042 0.55704,-0.641702 0.048,-0.122766 0.13087,-0.401815 -0.0187,-0.751768 -0.0783,-0.153813 -0.32597,-0.585965 -0.32597,-0.585965 0,0 0.18204,0.0056 0.19968,0.0053 0.0173,-2.65e-4 0.0519,-0.01834 0.007,-0.0695 -0.0441,-0.05115 -0.42756,-0.433562 -0.45085,-0.463901 -0.0229,-0.03104 -0.0445,-0.05292 -0.0572,-0.0078 m 2.42182,1.7526 c 0,0 -0.10936,0.06315 -0.41698,0.04233 -0.25788,-0.01728 -0.23566,-0.117475 -0.20038,-0.155575 0.0384,-0.04198 0.35384,-0.240597 0.61736,0.113241 m -10.74137,-0.567973 -0.19544,0.267758 c -0.006,0.0085 -0.004,0.02011 0.004,0.02612 l 0.33302,0.242358 c 0.008,0.006 0.0194,0.0039 0.0257,-0.0049 l 0.19474,-0.267051 c 0.006,-0.0085 0.005,-0.02045 -0.003,-0.02612 l -0.33302,-0.24271 c -0.008,-0.0056 -0.0194,-0.0039 -0.0257,0.0046 m 0.1771,1.048457 c -0.0303,0.07479 -0.1584,0.332668 -0.139,0.63641 0.005,0.0702 0.0512,0.207081 0.15699,0.210608 0.0547,0 0.12488,-0.03951 0.17568,-0.211666 0.008,-0.03881 0.0138,-0.06985 0.0177,-0.08537 0.005,-0.02328 -0.0116,-0.0508 -0.0296,0.0028 -0.0402,0.104775 -0.14358,0.178506 -0.22155,0.03739 -0.0127,-0.02822 -0.0656,-0.155575 0.0314,-0.435679 0.0191,-0.05397 0.0438,-0.134763 0.0438,-0.134763 0.0212,-0.06138 -0.004,-0.09454 -0.0353,-0.01976 m 7.24817,-1.905354 c -0.0533,0.06597 -0.58985,0.769762 -0.58985,0.769762 l -0.38984,-0.278069 c 0,0 0.15875,-0.03951 0.18662,-0.04798 0.0275,-0.0081 0.0434,-0.04375 -0.006,-0.0695 -0.0501,-0.0254 -0.52035,-0.213077 -0.55598,-0.227541 -0.0356,-0.01482 -0.0487,-0.03104 -0.0519,0.0071 -0.003,0.0381 -0.008,0.347837 -0.008,0.347837 0,0 -0.007,0.02151 0.0335,0.04516 0.0413,0.02328 0.0815,0.07303 0.115,0.106539 0.0339,0.03387 0.47096,0.378884 0.49248,0.390877 0,0 -0.21872,0.384527 -0.24694,0.685448 -0.0275,0.300919 0.006,0.716137 0.41663,0.582084 0.11077,-0.0314 0.57185,-0.21449 0.67451,-0.535872 0.0335,-0.118178 0.12841,-0.331962 -0.0257,-0.54892 -0.0892,-0.127355 -0.44873,-0.342548 -0.44873,-0.342548 0,0 0.27623,-0.381707 0.30233,-0.428625 0.0265,-0.04692 0.12771,-0.3429 0.139,-0.414515 0.0113,-0.07161 0.0169,-0.107595 -0.0363,-0.04128 m -0.0945,1.62278 c -0.15275,0.125941 -0.47377,0.2921 -0.56409,0.300566 -0.0903,0.0085 -0.32949,-0.03528 -0.22542,-0.280458 0.0356,-0.07973 0.27446,-0.489305 0.27446,-0.489305 0.0896,0.04939 0.66781,0.343607 0.51505,0.469197 m 6.23112,0.561975 c -0.0317,0.08643 -0.0437,0.142875 -0.0406,0.176035 0.004,0.03281 0.0148,0.138993 0.0148,0.138993 -0.0321,0.02574 -0.16863,0.111125 -0.30551,0.01058 0.009,-0.02928 0.0268,-0.0889 0.031,-0.121354 0.0148,-0.0508 -0.0166,-0.0882 -0.0413,-0.03598 -0.0254,0.05256 -0.0832,0.228245 -0.12629,0.267758 -0.043,0.03951 -0.0931,0.184502 -0.41946,0.03669 -0.0568,-0.02151 -0.15663,-0.09595 -0.31291,0.06103 -0.35243,0.327732 -0.59584,0.353132 -0.99095,0.493536 -0.048,0.02222 -0.14817,0.09737 -0.0289,0.08573 0.11889,-0.01199 0.61983,0 0.89288,-0.312912 0.0568,-0.05539 0.12206,-0.20179 0.33867,-0.116772 0.12029,0.04586 0.34184,0.235657 0.58349,-0.140052 0.14217,0.0949 0.35913,0.0568 0.39335,-0.04763 0.0346,-0.104775 0.0741,-0.208843 0.0741,-0.280106 -2.6e-4,-0.07091 -0.006,-0.164745 -0.006,-0.164745 -0.005,-0.05645 -0.0251,-0.13688 -0.0561,-0.0508 m -9.78394,0.417335 -0.19509,0.267406 c -0.006,0.0081 -0.004,0.02011 0.004,0.02574 l 0.33302,0.24271 c 0.008,0.006 0.0194,0.0039 0.0258,-0.0046 l 0.19473,-0.267758 c 0.006,-0.0085 0.005,-0.01976 -0.003,-0.02574 l -0.33338,-0.242713 c -0.008,-0.006 -0.019,-0.0039 -0.0257,0.0049 m 0.83291,0.61736 c -0.0698,0.03493 -1.1811,0.451204 -1.25307,0.491773 -0.0727,0.04022 -0.0981,0.05009 -0.11254,0.103365 -0.0145,0.05292 -0.0222,0.08361 -0.0261,0.09208 -0.0145,0.03493 -0.0261,0.07867 0.0808,0.01799 0.0328,-0.01871 1.15781,-0.440621 1.21743,-0.474839 0.0596,-0.03422 0.0945,-0.04622 0.12171,-0.10019 0.0268,-0.05398 0.0332,-0.0635 0.048,-0.1016 0.0159,-0.04022 0.0321,-0.08325 -0.0762,-0.02858 m -2.31317,0.179565 c -0.0699,0.03528 -1.32503,0.498123 -1.3977,0.538691 -0.072,0.04022 -0.097,0.05009 -0.11183,0.103011 -0.0148,0.05327 -0.0222,0.08396 -0.0261,0.09243 -0.0148,0.03492 -0.0264,0.07867 0.0801,0.01834 0.0339,-0.01871 1.30175,-0.487892 1.36136,-0.522465 0.0596,-0.03387 0.0956,-0.04586 0.12206,-0.09983 0.0265,-0.05398 0.0332,-0.0635 0.0483,-0.1016 0.0159,-0.04022 0.0317,-0.08326 -0.0762,-0.02858"
       style="fill:#231f20;fill-opacity:1;fill-rule:evenodd;stroke:none;stroke-width:0.264583"
       id="path1" />
  </g>
</svg>
