<?xml version="1.0" encoding="UTF-8" standalone="no"?>
<!-- Created with Inkscape (http://www.inkscape.org/) -->

<svg
   width="18.293859mm"
   height="6.9417558mm"
   viewBox="0 0 18.293859 6.9417558"
   version="1.1"
   id="svg1"
   xmlns="http://www.w3.org/2000/svg"
   xmlns:svg="http://www.w3.org/2000/svg">
  <defs
     id="defs1" />
  <g
     id="layer1"
     transform="translate(-172.65116,-21.46763)">
    <path
       d="m 179.8567,21.493551 c -0.0695,0.03493 -1.60832,0.637117 -1.68063,0.678037 -0.0727,0.03986 -0.0977,0.0501 -0.11219,0.103013 -0.0148,0.05292 -0.0222,0.08361 -0.0257,0.09207 -0.0148,0.03493 -0.0268,0.07867 0.0801,0.01871 0.0332,-0.01905 1.58538,-0.627592 1.645,-0.661458 0.0593,-0.03457 0.0949,-0.04621 0.12171,-0.100542 0.0268,-0.05397 0.0335,-0.0635 0.048,-0.1016 0.0162,-0.04022 0.0325,-0.0829 -0.0762,-0.02822 m -2.43699,0.378883 c -0.054,0.12982 -0.27693,0.575027 -0.26917,1.111954 0.002,0.124179 0.0656,0.3683 0.23283,0.382058 0.0868,0.0035 0.2025,-0.06173 0.29492,-0.360892 0.0169,-0.06808 0.0275,-0.122412 0.0349,-0.149225 0.0102,-0.04057 -0.0148,-0.09031 -0.0469,0.0024 -0.0716,0.182385 -0.24236,0.305152 -0.35525,0.05115 -0.018,-0.05009 -0.0917,-0.279049 0.0829,-0.765527 0.0346,-0.09384 0.0797,-0.23495 0.0797,-0.23495 0.0395,-0.106188 8e-4,-0.166865 -0.054,-0.03704 m 5.78203,0.146402 c -0.0702,0.10654 -0.12206,0.362656 -0.0222,0.435327 0.0998,0.07373 0.24589,0.132646 0.24589,0.132646 -0.46532,0.571145 -0.78387,0.680154 -1.05657,0.83961 -0.0702,0.04092 -0.0561,0.07796 -0.0152,0.06703 0.0215,-0.0056 0.38805,-0.06279 0.81597,-0.387702 0.23142,-0.176035 0.37148,-0.47625 0.37148,-0.47625 0,0 0.11606,0.09666 0.13123,0.116065 0.0353,0.04374 0.0547,0.07585 0.0713,0.02998 0.0607,-0.168981 -0.0254,-0.270933 -0.1076,-0.323498 0,0 0.0854,-0.26317 -0.0713,-0.527402 -0.0265,-0.0441 -0.18238,-0.185208 -0.36301,0.09419 m 0.24377,0.07267 c 0.10443,0.09772 0.0889,0.257879 0.0843,0.294569 0,0 -0.13406,-0.06279 -0.19403,-0.08855 -0.06,-0.02574 -0.091,-0.0635 -0.0635,-0.1016 0.0921,-0.130175 0.13758,-0.125587 0.17321,-0.10442 m -1.53423,-0.205317 c -0.0162,0.0388 -0.13688,0.335844 -0.13688,0.335844 0.002,0.01765 0.0356,0.147108 0.0427,0.195792 0.0557,0.428625 0.40675,2.959806 0.5073,3.760258 0.0497,0.3937 0.0882,0.748242 0.0935,0.93839 -0.005,0.05891 0.0212,0.08079 0.0483,0.02434 0.0145,-0.03034 0.0748,-0.155929 0.0935,-0.484013 0.0138,-0.246591 -0.006,-0.625826 -0.0765,-1.147233 -0.0102,-0.07585 -0.37501,-2.720268 -0.37501,-2.720268 0,0 0.19685,0.185208 0.2286,0.218723 0.0318,0.03351 0.0702,0.01587 0.0522,-0.03846 -0.0183,-0.05362 -0.42192,-1.03011 -0.43532,-1.063977 -0.013,-0.03387 -0.0261,-0.05856 -0.0423,-0.01939 m -1.37054,0 c -0.0162,0.0388 -0.1464,0.324909 -0.1464,0.324909 0.004,0.02294 0.0342,0.09348 0.0557,0.237418 0.0201,0.141817 0.0296,0.34149 0.0621,0.562682 0,0 0.38206,2.55411 0.40005,2.648653 0.007,0.03281 0.0205,0.128059 0.0494,0.25118 -0.0261,0.0095 -0.0515,0.01905 -0.0755,0.02858 -0.15981,0.06174 -0.67874,0.311854 -1.17828,0.01799 -0.0455,-0.143582 -0.11077,-0.299863 -0.20425,-0.467784 -0.0374,-0.07973 -0.0628,0 -0.0755,0.03351 -0.0123,0.03352 -0.0586,0.281517 -0.0586,0.281517 0.0755,0.180623 0.36583,0.795163 0.2854,0.915813 -0.4953,0.743302 -3.11679,1.583618 -3.11679,1.583618 -0.11325,0.03775 -0.25224,0.100542 -0.0924,0.105127 0.15945,0.0039 1.55046,-0.252235 1.55046,-0.252235 0.20567,-0.08396 1.59173,-0.764823 1.73884,-1.222375 0.0201,-0.06703 0.0681,-0.225425 0.0628,-0.458965 0.16334,0.02117 0.53693,0.04763 0.97402,-0.118178 0.0413,-0.01799 0.1591,-0.06562 0.29351,-0.111832 0.0628,0.158044 0.14993,0.316442 0.27129,0.4318 0.0582,0.05644 0.45297,0.329848 0.60748,0.0039 0.0222,-0.0441 0.2473,-0.607132 -0.0381,-0.84455 -0.0646,-0.04445 -0.16475,-0.15099 -0.57115,-0.05609 -0.0201,0.0056 -0.0624,0.01939 -0.11606,0.03775 -0.0152,-0.04339 -0.0279,-0.08325 -0.0346,-0.116416 -0.0367,-0.1651 -0.22155,-1.241071 -0.22155,-1.241071 0,0 -0.2547,-1.766358 -0.27728,-1.77165 0,0 0.19685,0.185209 0.2286,0.218721 0.0317,0.03351 0.0702,0.01553 0.0522,-0.0381 -0.018,-0.05433 -0.37006,-0.930627 -0.38311,-0.964494 -0.0127,-0.03387 -0.0265,-0.05856 -0.0423,-0.01939 m 1.00506,4.252383 c 0.16687,0.02434 0.27764,0.100542 0.30763,0.152752 0.03,0.05257 0.0384,0.128765 -0.048,0.134761 -0.0868,0.006 -0.24941,-0.02434 -0.38241,-0.172861 -0.0109,-0.01304 -0.0314,-0.04833 -0.0561,-0.09631 0.0734,-0.01622 0.13688,-0.02434 0.17885,-0.01834 M 175.4156,21.92502 c -0.0138,0.02468 -0.0819,0.295275 -0.0981,0.355248 -0.0166,0.05997 -0.008,0.202141 0.019,0.341135 0.0272,0.138996 0.32385,2.019654 0.34889,2.154063 0.0251,0.134408 0.10513,0.659693 0.10513,0.718608 0,0.05856 0.042,0.230717 -0.12206,0.424037 -0.16404,0.193323 -0.87771,1.016707 -1.67569,1.113015 -0.0967,0.01304 -0.69356,0.138993 -1.00436,-0.293865 -0.0759,-0.100893 -0.34855,-0.625827 -0.0251,-1.306335 0.0113,-0.01834 0.0155,-0.03669 0.0152,-0.05115 0.0931,-0.01341 0.20567,-0.107246 0.29034,-0.428273 0.0162,-0.07902 0.0261,-0.142523 0.0328,-0.173919 0.0102,-0.04727 -0.0198,-0.104071 -0.0522,0.0046 -0.073,0.214489 -0.2593,0.36336 -0.39476,0.07338 -0.0219,-0.0575 -0.11289,-0.319969 0.0642,-0.890411 0.0353,-0.110418 0.0804,-0.275518 0.0804,-0.275518 0.0395,-0.124532 -0.006,-0.193323 -0.0617,-0.04092 -0.0557,0.1524 -0.28822,0.677333 -0.25964,1.299281 0.006,0.131233 0.0737,0.375354 0.22789,0.424392 -0.008,0.0099 -0.0152,0.02222 -0.0226,0.03775 -0.0586,0.121357 -0.56127,1.241425 0.12629,1.827038 0.15276,0.130175 0.73943,0.499885 1.7011,-0.100896 0.20602,-0.121708 0.72249,-0.457904 0.99977,-0.865362 0.13758,-0.210609 0.14464,-0.353838 0.14464,-0.353838 0.0384,0.09843 0.16369,0.821973 0.66075,0.909108 0.1083,0.01939 0.59267,0.03846 0.79446,-0.39017 0.0363,-0.0762 0.13687,-0.313973 0.13687,-0.313973 0.0571,0.04127 0.24519,0.201789 0.6985,0.232127 0.0794,0.0053 0.29528,-0.03281 0.31151,-0.270579 0.006,-0.08149 0.0113,-0.450146 -0.32491,-0.81633 -0.0628,-0.06808 -0.23213,-0.152752 -0.37641,-0.01622 -0.145,0.136173 -0.28434,0.371123 -0.37465,0.600427 -0.0596,0.153813 -0.20426,0.57644 -0.63289,0.578908 -0.13688,0.0011 -0.45473,-0.0092 -0.58984,-0.387701 -0.0931,-0.259292 -0.15875,-0.72884 -0.1778,-0.868186 -0.019,-0.139348 -0.19368,-1.458031 -0.22684,-1.654529 -0.0325,-0.19685 -0.26458,-1.499304 -0.28363,-1.575504 -0.0187,-0.07655 -0.0413,-0.04375 -0.0547,-0.01939 m 2.73932,3.916892 c 0.0469,0.09701 -0.005,0.09878 -0.0677,0.0956 -0.24518,-0.02222 -0.42333,-0.142523 -0.46884,-0.173566 0,0 0.0363,-0.07832 0.16898,-0.164397 0.15981,-0.08749 0.32068,0.145347 0.3676,0.242359 m -1.7667,-3.861515 c -0.0328,0.08043 -0.1704,0.357717 -0.14923,0.684388 0.005,0.0755 0.0547,0.222604 0.16863,0.226837 0.0586,-2.64e-4 0.13476,-0.04304 0.18874,-0.227896 0.009,-0.04163 0.0152,-0.07514 0.0194,-0.09137 0.005,-0.02506 -0.013,-0.05468 -0.0321,0.0024 -0.043,0.113242 -0.15487,0.192265 -0.23848,0.04057 -0.0134,-0.03034 -0.0702,-0.167923 0.0339,-0.46849 0.0208,-0.05856 0.0466,-0.145343 0.0466,-0.145343 0.0236,-0.06562 -0.004,-0.1016 -0.0374,-0.02117 m 13.3357,0.134054 c -0.0699,0.10654 -0.12241,0.362656 -0.0222,0.435329 0.0998,0.07373 0.24659,0.132644 0.24659,0.132644 -0.46602,0.571148 -1.38077,0.977194 -1.59844,1.146881 -0.0646,0.04939 -0.0561,0.07796 -0.0155,0.06703 0.0367,-0.0099 0.73343,-0.20461 1.3709,-0.750358 0.29174,-0.250473 0.28398,-0.269169 0.35842,-0.420865 0.0631,0.03246 0.10654,0.08537 0.13158,0.116417 0.0349,0.04339 0.0543,0.0755 0.0706,0.02963 0.0607,-0.168979 -0.0251,-0.270933 -0.1076,-0.323495 0,0 0.0857,-0.263173 -0.0716,-0.527405 -0.0261,-0.04409 -0.18204,-0.185208 -0.36266,0.09419 m 0.24342,0.07267 c 0.10513,0.09772 0.0889,0.257881 0.0847,0.294569 0,0 -0.13371,-0.06279 -0.19368,-0.08855 -0.06,-0.0254 -0.0914,-0.0635 -0.0635,-0.1016 0.0921,-0.130175 0.13794,-0.12559 0.17251,-0.104423 m -1.78858,-0.165452 c -0.18309,0.232479 -0.19474,0.538692 -0.21873,0.879827 -0.0261,-0.07162 -0.17215,-0.529167 -0.63994,-0.790927 -0.0335,-0.01905 -0.10301,0.01728 -0.109,0.124883 -0.004,0.06279 -0.0219,0.215194 0.0222,0.258586 0.0441,0.04304 0.17463,0.127706 0.19685,0.1397 0.0219,0.01198 0.0452,0.01376 0.0519,-0.0127 0.006,-0.02611 0.0363,-0.08643 0.0787,-0.04304 0.036,0.03598 0.26599,0.226483 0.38594,0.630415 0.0201,0.05362 0.0702,0.05891 0.0815,-0.01728 0.0275,-0.186621 0.0427,-0.511529 0.0575,-0.6096 0.0212,-0.138289 0.0868,-0.423333 0.26176,-0.275166 0.0402,0.03351 0.0825,0.07796 0.0825,0.07796 0.037,0.04657 0.0836,0.10019 0.10654,0.04622 0.0339,-0.08149 0.0617,-0.216959 0.0243,-0.289984 -0.0166,-0.03246 -0.23354,-0.306916 -0.38206,-0.118885 m -1.80023,-0.01093 c -0.0674,0.03951 -1.78752,1.032229 -1.85702,1.077383 -0.0699,0.04481 -0.0949,0.05609 -0.10583,0.110067 -0.0109,0.05362 -0.0169,0.08467 -0.0201,0.09349 -0.0124,0.03563 -0.0212,0.08008 0.0815,0.01341 0.0321,-0.02117 1.76212,-1.020937 1.82245,-1.058685 0.0582,-0.03634 0.0917,-0.05186 0.11536,-0.107598 0.0229,-0.05539 0.0293,-0.06562 0.0416,-0.104421 0.0131,-0.04127 0.0265,-0.08502 -0.078,-0.02363 m -11.93094,0.209198 c -0.16369,0.244827 -0.15346,0.550685 -0.15346,0.892881 -0.0303,-0.0695 -0.20602,-0.515762 -0.68439,-0.745066 -0.0346,-0.01659 -0.0998,0.02434 -0.0984,0.132291 2.6e-4,0.06279 -0.007,0.2159 0.0402,0.256117 0.0466,0.04022 0.18063,0.11571 0.2025,0.125942 0.0233,0.01058 0.0459,0.01058 0.0508,-0.01588 0.005,-0.02646 0.0296,-0.08925 0.0744,-0.04868 0.0325,0.02893 0.29281,0.227188 0.38841,0.517525 0.0808,0.252588 -0.51435,0.814917 -0.54575,0.840669 -0.0564,0.04657 -0.0353,0.07267 -0.009,0.05609 0.0265,-0.01693 0.0536,-0.02294 0.3623,-0.259292 0.24907,-0.1905 0.28964,-0.394406 0.30163,-0.548923 0.002,-0.0078 0.004,-0.01622 0.005,-0.02681 0.0141,-0.188032 0.006,-0.512586 0.0138,-0.612069 0.0109,-0.139348 0.0557,-0.427921 0.23812,-0.292454 0.0416,0.03069 0.0861,0.07232 0.0861,0.07232 0.0399,0.04409 0.0893,0.09419 0.10795,0.0388 0.0279,-0.08396 0.0459,-0.220838 0.004,-0.291042 -0.019,-0.0314 -0.25118,-0.290335 -0.38347,-0.09243 m 5.30331,0.385585 c -0.0628,0.08961 -0.1136,0.307975 -0.0293,0.372888 0.084,0.06562 0.20813,0.119592 0.20813,0.119592 -0.4131,0.478718 -0.98283,0.923925 -1.22025,1.0541 -0.0614,0.03351 -0.0497,0.06562 -0.0145,0.05715 0.018,-0.0046 0.32984,-0.109715 0.70802,-0.373946 0.31821,-0.22225 0.62442,-0.698146 0.62442,-0.698146 0,0 0.0974,0.08608 0.11006,0.10301 0.0293,0.0381 0.0448,0.06632 0.0603,0.02752 0.0561,-0.143933 -0.0152,-0.23354 -0.0847,-0.280106 0,0 0.0797,-0.224013 -0.0487,-0.454377 -0.0219,-0.03845 -0.1517,-0.162984 -0.31362,0.07232 m 0.20708,0.06809 c 0.0878,0.08608 0.0702,0.223308 0.066,0.254704 0,0 -0.1136,-0.05715 -0.1644,-0.08079 -0.0508,-0.02328 -0.0769,-0.0568 -0.0522,-0.08855 0.0825,-0.109009 0.12101,-0.104421 0.15064,-0.08537 m -0.88794,-0.03069 c -0.0233,0.07091 -0.0406,0.126294 -0.01,0.207786 0.031,0.08184 0.11466,0.267052 0.12842,0.29351 0.0145,0.02646 0.0176,0.05609 -0.0286,0.07585 -0.0455,0.01939 -0.25612,0.06456 -0.29527,-0.159808 -0.0392,-0.224367 -0.0427,-0.289984 -0.0621,-0.327732 -0.0194,-0.0381 -0.0381,-0.04268 -0.0529,-0.0046 -0.0148,0.03775 -0.024,0.116065 -0.0265,0.128765 -0.002,0.0127 -0.002,0.02188 0.006,0.03563 0.008,0.01376 0.0917,0.264584 0.054,0.333375 -0.0378,0.06915 -0.22684,0.193324 -0.32561,0.0635 -0.0473,-0.09102 -0.0187,-0.321026 -0.0187,-0.375001 0,-0.05398 -0.0169,-0.07267 -0.0402,-0.02858 -0.0226,0.04339 -0.0353,0.07232 -0.0339,0.111125 7.9e-4,0.03916 0.007,0.207081 0.003,0.259998 -0.003,0.05292 0,0.224366 0.10125,0.272695 0.1016,0.04833 0.24871,0.0035 0.36018,-0.207079 0.0861,0.125236 0.21731,0.125942 0.28752,0.100187 0.0596,-0.02188 0.12664,-0.111476 0.14569,-0.235653 0.0201,-0.124532 -0.0123,-0.20955 -0.0511,-0.2794 -0.0519,-0.08643 -0.0864,-0.231423 -0.0864,-0.231423 -0.0187,-0.05186 -0.0321,-0.104775 -0.055,-0.03316 m 7.63905,0.722487 c -0.0346,0.08432 -0.17851,0.37465 -0.15664,0.717199 0.005,0.07937 0.0575,0.233539 0.1771,0.237418 0.061,0 0.14075,-0.0448 0.19755,-0.238125 0.01,-0.04409 0.0155,-0.07902 0.0198,-0.09631 0.006,-0.02612 -0.013,-0.05715 -0.0332,0.0024 -0.0451,0.118885 -0.16227,0.201787 -0.24976,0.04304 -0.0145,-0.03175 -0.0737,-0.176035 0.0353,-0.491066 0.0215,-0.06103 0.0494,-0.1524 0.0494,-0.1524 0.0247,-0.06879 -0.005,-0.106538 -0.0395,-0.02223 m 3.3073,0.173566 c -0.0321,0.07797 -0.16546,0.34643 -0.145,0.66393 0.005,0.07303 0.0533,0.2159 0.16369,0.219779 0.0572,-2.65e-4 0.13088,-0.04163 0.1831,-0.220838 0.009,-0.04057 0.0148,-0.07338 0.0183,-0.0889 0.006,-0.02434 -0.012,-0.05327 -0.0307,0.0021 -0.0416,0.110067 -0.15028,0.186971 -0.23107,0.03951 -0.013,-0.02893 -0.0684,-0.162277 0.0324,-0.454025 0.0201,-0.0568 0.0455,-0.14111 0.0455,-0.14111 0.0229,-0.06385 -0.004,-0.09878 -0.0363,-0.02045 m -6.20678,0.0081 -0.16792,0.230717 -0.32279,-0.235656 c -0.008,-0.0056 -0.0198,-0.0035 -0.0261,0.0049 l -0.19474,0.267407 c -0.006,0.0085 -0.005,0.02011 0.003,0.02611 l 0.33267,0.242713 c 0.008,0.0056 0.0198,0.0035 0.0257,-0.0049 l 0.16828,-0.230716 0.32314,0.235656 c 0.008,0.0056 0.0194,0.0035 0.0261,-0.0049 l 0.19473,-0.267406 c 0.006,-0.0085 0.005,-0.02011 -0.003,-0.02611 l -0.33302,-0.242713 c -0.008,-0.0056 -0.0194,-0.0035 -0.0261,0.0049 m -8.78805,0.158399 c -0.0328,0.08043 -0.17004,0.357716 -0.14922,0.684387 0.005,0.07585 0.0547,0.222604 0.16898,0.226838 0.0586,-2.65e-4 0.13441,-0.04304 0.18838,-0.227897 0.009,-0.04163 0.0152,-0.07514 0.019,-0.09172 0.006,-0.02469 -0.0127,-0.05468 -0.0318,0.0028 -0.0427,0.113242 -0.15487,0.192265 -0.23848,0.04057 -0.0134,-0.02999 -0.0702,-0.167923 0.0339,-0.46849 0.0204,-0.05856 0.0466,-0.145698 0.0466,-0.145698 0.0236,-0.06526 -0.004,-0.101245 -0.0374,-0.02082 m -0.83502,1.284462 c -0.0385,0.09349 -0.19826,0.416279 -0.17392,0.796925 0.006,0.08784 0.0639,0.258939 0.19614,0.263525 0.0688,-2.65e-4 0.15734,-0.04974 0.21978,-0.264936 0.0109,-0.04868 0.0177,-0.08749 0.0226,-0.106891 0.006,-0.02893 -0.0152,-0.06315 -0.0374,0.0032 -0.0497,0.13194 -0.17992,0.224015 -0.27764,0.04727 -0.0159,-0.03528 -0.0811,-0.19544 0.0392,-0.545396 0.0243,-0.06773 0.055,-0.168979 0.055,-0.168979 0.0272,-0.07655 -0.005,-0.118182 -0.0437,-0.02469 m 10.92664,-1.026834 c -0.013,0.04551 -0.0452,0.239889 -0.0536,0.280106 -0.007,0.03986 -0.007,0.07973 0.0127,0.113594 0.0198,0.03457 0.0702,0.153106 0.10725,0.249414 0.036,0.09631 0.41416,0.824087 0.44908,0.888646 0.0346,0.06421 0.0423,0.112538 0.007,0.155223 -1.21285,1.279525 -3.55247,2.066573 -3.62762,2.109965 -0.0748,0.04339 -0.055,0.07726 0.0709,0.05503 0.18839,-0.03316 1.24002,-0.208846 1.53917,-0.353131 0.19791,-0.09525 0.88794,-0.433917 1.45203,-0.876652 -0.0152,0.1143 -0.03,0.28222 -0.0215,0.4953 0.0374,1.029403 0.95815,0.85866 1.19909,0.805391 0.72426,-0.15875 1.60902,-1.158875 1.68417,-1.359958 0.0744,-0.198615 0.085,-0.37959 0.0684,-0.537633 0.1905,-0.103365 0.59973,-0.433213 0.59973,-0.433213 0.0169,0.438856 0.36618,0.570441 0.47342,0.589491 0.50377,0.07656 0.75636,-0.34431 0.86325,-0.480835 0.0917,0.240594 0.31221,0.28716 0.42545,0.30974 0.43498,0.08643 0.51894,-0.22084 0.54187,-0.29069 0.13582,-0.423685 -0.10936,-0.739423 -0.14076,-0.7747 -0.0318,-0.03493 -0.048,-0.0013 -0.0589,0.03951 -0.0109,0.04022 -0.0462,0.192972 -0.0677,0.288574 0,0 0.0907,0.148166 0.12277,0.223308 0.0325,0.07549 -0.0162,0.116417 -0.10901,0.128058 -0.26423,0.0321 -0.47519,-0.11924 -0.54786,-0.188735 -0.0727,-0.0702 0.006,-0.193675 0.0649,-0.34149 0.0462,-0.117827 -0.0406,-0.132291 -0.10725,-2.64e-4 -0.22401,0.589137 -0.53869,0.652637 -0.62159,0.675216 -0.74577,0.2032 -0.68121,-0.479073 -0.6791,-0.59055 0.002,-0.111831 -0.079,-0.07056 -0.17074,0.0035 -0.31433,0.251884 -0.56692,0.40005 -0.70309,0.460375 -0.11712,-0.228952 -0.28716,-0.372533 -0.35913,-0.424391 -0.80715,-0.58914 -0.87347,0.599368 -0.84948,0.726723 0.12311,0.504825 0.94791,0.198612 1.07738,0.183443 0.12912,-0.01516 0.0871,0.155575 0.0141,0.256823 -0.17886,0.250471 -0.38523,0.430036 -0.5722,0.582787 -0.8001,0.652288 -1.20156,0.600782 -1.32504,0.5969 -0.78528,-0.02223 -0.71331,-0.868537 -0.66957,-1.049512 0.23636,-0.200379 0.43956,-0.418041 0.55739,-0.641704 0.048,-0.122767 0.13123,-0.40146 -0.0187,-0.751417 -0.0787,-0.154162 -0.32667,-0.586316 -0.32667,-0.586316 0,0 0.18274,0.0056 0.19967,0.0053 0.0177,-2.64e-4 0.0519,-0.01834 0.008,-0.06949 -0.0441,-0.05116 -0.42757,-0.433213 -0.45015,-0.463905 -0.0236,-0.03104 -0.0445,-0.05292 -0.0579,-0.0078 m 2.42217,1.7526 c 0,0 -0.11007,0.06315 -0.41734,0.04268 -0.25753,-0.01765 -0.23565,-0.117827 -0.20002,-0.155927 0.0381,-0.04163 0.35383,-0.240593 0.61736,0.113242 m -9.91059,-1.695098 c -0.0229,0.07126 -0.0402,0.126648 -0.009,0.20814 0.0307,0.08184 0.11501,0.2667 0.12842,0.293158 0.0137,0.02646 0.0176,0.05644 -0.0286,0.0762 -0.0459,0.01939 -0.25682,0.06421 -0.29563,-0.16016 -0.0392,-0.224015 -0.0423,-0.289632 -0.0621,-0.327732 -0.0198,-0.03775 -0.0377,-0.04233 -0.0526,-0.0046 -0.0148,0.0381 -0.0247,0.116417 -0.0268,0.129117 -0.002,0.0127 -0.002,0.02151 0.006,0.03528 0.008,0.01376 0.0924,0.264583 0.054,0.333726 -0.0378,0.06879 -0.22613,0.192972 -0.32491,0.06315 -0.0473,-0.09067 -0.0187,-0.320675 -0.0187,-0.37465 0,-0.05433 -0.0173,-0.07267 -0.0402,-0.02893 -0.0229,0.04339 -0.036,0.07232 -0.0346,0.111828 0.001,0.03881 0.007,0.20673 0.004,0.259647 -0.004,0.05256 0,0.224012 0.10124,0.272343 0.10125,0.04868 0.24836,0.0035 0.35984,-0.206727 0.0861,0.125587 0.21731,0.125587 0.28751,0.100187 0.06,-0.02188 0.1263,-0.111828 0.14605,-0.236008 0.0194,-0.124177 -0.0127,-0.209195 -0.0519,-0.2794 -0.0515,-0.08643 -0.0864,-0.231068 -0.0864,-0.231068 -0.0183,-0.05186 -0.0321,-0.104775 -0.055,-0.03351 m 6.59412,0.270229 c -0.0533,0.06597 -0.58984,0.770112 -0.58984,0.770112 l -0.38982,-0.278341 c 0,0 0.1591,-0.03951 0.18662,-0.04763 0.0279,-0.0085 0.0437,-0.0441 -0.006,-0.06985 -0.0501,-0.0254 -0.52035,-0.213077 -0.55633,-0.227542 -0.0356,-0.01482 -0.0487,-0.03069 -0.0519,0.0074 -0.003,0.0381 -0.008,0.347488 -0.008,0.347488 0,0 -0.007,0.02188 0.0335,0.04515 0.0413,0.02328 0.0811,0.07303 0.11465,0.10654 0.0339,0.03387 0.47096,0.378883 0.49248,0.390877 0,0 -0.21872,0.384529 -0.24624,0.685448 -0.0279,0.300918 0.005,0.71614 0.41593,0.582435 0.11112,-0.03175 0.57185,-0.214842 0.67521,-0.53622 0.0332,-0.118182 0.12771,-0.331965 -0.0268,-0.548924 -0.0889,-0.127351 -0.44838,-0.342548 -0.44838,-0.342548 0,0 0.27588,-0.381703 0.30233,-0.428625 0.0261,-0.04692 0.12806,-0.3429 0.139,-0.41416 0.0116,-0.07197 0.0169,-0.10795 -0.0363,-0.04163 m -0.0945,1.622777 c -0.15276,0.125942 -0.47378,0.2921 -0.56409,0.300919 -0.0903,0.0081 -0.3295,-0.03563 -0.22543,-0.280811 0.0356,-0.07938 0.27517,-0.489301 0.27517,-0.489301 0.0892,0.04939 0.66745,0.343603 0.51435,0.469193 m -4.87751,-1.451327 -0.19508,0.267759 c -0.006,0.0081 -0.005,0.02011 0.004,0.02574 l 0.33267,0.24271 c 0.008,0.006 0.0194,0.0039 0.0257,-0.0049 l 0.19509,-0.267406 c 0.006,-0.0081 0.005,-0.02011 -0.003,-0.02574 l -0.33302,-0.242713 c -0.008,-0.006 -0.0198,-0.0039 -0.0257,0.0046 m 11.10826,2.013302 c -0.031,0.08643 -0.043,0.143227 -0.0399,0.176035 0.003,0.03281 0.0145,0.139348 0.0145,0.139348 -0.0317,0.02574 -0.16863,0.110773 -0.30551,0.01024 0.01,-0.02928 0.0272,-0.0889 0.0311,-0.121357 0.0145,-0.05045 -0.0166,-0.08819 -0.0413,-0.03598 -0.0247,0.05292 -0.0825,0.228248 -0.12595,0.267758 -0.043,0.03951 -0.0935,0.184857 -0.4198,0.03704 -0.0568,-0.02151 -0.15699,-0.09596 -0.31292,0.06068 -0.35242,0.327731 -0.59584,0.353131 -0.99095,0.493538 -0.048,0.02223 -0.14817,0.09772 -0.0289,0.08573 0.11889,-0.01199 0.62019,2.64e-4 0.89288,-0.312915 0.0568,-0.05538 0.12242,-0.201435 0.33902,-0.116769 0.11995,0.04586 0.34149,0.236009 0.58315,-0.140054 0.14287,0.0949 0.35877,0.0568 0.3937,-0.04763 0.0342,-0.104775 0.0744,-0.208844 0.0741,-0.279752 -7.9e-4,-0.07126 -0.007,-0.1651 -0.007,-0.1651 -0.005,-0.05644 -0.0247,-0.136525 -0.0564,-0.0508 m -9.7155,0.142523 c -0.0332,0.08043 -0.17074,0.357717 -0.14993,0.684387 0.005,0.0755 0.0554,0.222957 0.16933,0.226838 0.0586,-2.65e-4 0.13441,-0.04304 0.18874,-0.227542 0.009,-0.04233 0.0152,-0.0755 0.0187,-0.09208 0.006,-0.02506 -0.0127,-0.05433 -0.0314,0.0028 -0.0434,0.11289 -0.15522,0.192265 -0.23848,0.04022 -0.0138,-0.02998 -0.0702,-0.167569 0.0332,-0.468135 0.0208,-0.05856 0.0473,-0.145344 0.0473,-0.145344 0.0236,-0.06597 -0.004,-0.1016 -0.0374,-0.02117 m -2.09338,0.03387 c -0.0699,0.03493 -1.60796,0.637469 -1.68063,0.678037 -0.0723,0.04022 -0.0977,0.0501 -0.11219,0.103365 -0.0148,0.05292 -0.0219,0.08326 -0.0257,0.09208 -0.0148,0.03493 -0.0265,0.07867 0.0801,0.01834 0.0332,-0.01905 1.58538,-0.627592 1.645,-0.661459 0.0596,-0.03422 0.0949,-0.04586 0.12171,-0.100541 0.0268,-0.05362 0.0335,-0.0635 0.048,-0.101246 0.0162,-0.04022 0.0321,-0.08326 -0.0762,-0.02858 m -2.47544,0.605012 c -0.0702,0.03493 -1.60832,0.637472 -1.68064,0.677688 -0.0723,0.04057 -0.0977,0.05045 -0.11218,0.103362 -0.0148,0.05292 -0.0222,0.08361 -0.0261,0.09243 -0.0148,0.03492 -0.0265,0.07832 0.0801,0.01799 0.0335,-0.01871 1.58539,-0.62724 1.64501,-0.661459 0.06,-0.03387 0.0952,-0.04586 0.12206,-0.100189 0.0268,-0.05397 0.0332,-0.0635 0.048,-0.101249 0.0159,-0.04022 0.0317,-0.08361 -0.0762,-0.02858"
       style="fill:#231f20;fill-opacity:1;fill-rule:evenodd;stroke:none;stroke-width:0.264583"
       id="path1" />
  </g>
</svg>
