<?xml version="1.0" encoding="UTF-8" standalone="no"?>
<!-- Created with Inkscape (http://www.inkscape.org/) -->

<svg
   width="18.905596mm"
   height="6.2313137mm"
   viewBox="0 0 18.905596 6.2313137"
   version="1.1"
   id="svg1"
   xmlns="http://www.w3.org/2000/svg"
   xmlns:svg="http://www.w3.org/2000/svg">
  <defs
     id="defs1" />
  <g
     id="layer1"
     transform="translate(-183.19889,-24.796012)">
    <path
       d="m 189.62882,24.821937 c -0.0699,0.03528 -1.2947,0.544335 -1.36702,0.584907 -0.0723,0.04022 -0.0977,0.05044 -0.11253,0.103362 -0.0141,0.05256 -0.0219,0.08326 -0.0254,0.09208 -0.0148,0.03492 -0.0265,0.07867 0.0801,0.01833 0.0332,-0.01905 1.27141,-0.534106 1.33103,-0.568679 0.0596,-0.03387 0.0949,-0.04551 0.12206,-0.09983 0.0265,-0.05398 0.0332,-0.06385 0.048,-0.1016 0.0159,-0.04057 0.0321,-0.08326 -0.0762,-0.02858 m 4.7311,0.294568 c -0.0702,0.106892 -0.12206,0.362657 -0.0222,0.43533 0.10019,0.07373 0.24624,0.132995 0.24624,0.132995 -0.46567,0.570796 -0.78458,0.679805 -1.05692,0.839258 -0.0702,0.04128 -0.0564,0.07796 -0.0152,0.06703 0.0215,-0.0056 0.3877,-0.06244 0.81597,-0.387705 0.23143,-0.175683 0.37148,-0.47625 0.37148,-0.47625 0,0 0.11606,0.09666 0.13159,0.116065 0.0353,0.04374 0.0543,0.0762 0.0709,0.02963 0.061,-0.168627 -0.0254,-0.270582 -0.1076,-0.322792 0,0 0.0857,-0.263525 -0.0713,-0.527402 -0.0265,-0.0441 -0.18239,-0.185915 -0.36301,0.09384 m 0.24342,0.07267 c 0.10512,0.09772 0.0889,0.257882 0.085,0.294569 0,0 -0.13405,-0.06279 -0.19402,-0.08855 -0.06,-0.02574 -0.0914,-0.0635 -0.0635,-0.101954 0.0921,-0.129821 0.13758,-0.125235 0.17251,-0.104069 m -7.12225,-0.174966 c -0.0222,0.06879 -0.0392,0.122412 -0.009,0.201435 0.03,0.07902 0.11113,0.258233 0.12453,0.283985 0.0134,0.02574 0.0169,0.05468 -0.0279,0.07338 -0.0445,0.01905 -0.248,0.06244 -0.2861,-0.154517 -0.0377,-0.217313 -0.0413,-0.280813 -0.0603,-0.3175 -0.0187,-0.03669 -0.0367,-0.04128 -0.0512,-0.0046 -0.0145,0.03669 -0.0233,0.112538 -0.0254,0.124883 -0.002,0.01199 -0.002,0.02117 0.006,0.03457 0.008,0.01304 0.0889,0.256117 0.0522,0.322792 -0.0367,0.06668 -0.21943,0.186973 -0.31503,0.06103 -0.0455,-0.08784 -0.018,-0.310446 -0.018,-0.362656 0,-0.05257 -0.0166,-0.07056 -0.0388,-0.02822 -0.0222,0.04269 -0.0346,0.0702 -0.0335,0.108304 10e-4,0.03775 0.007,0.200377 0.003,0.251529 -0.003,0.05116 0,0.217313 0.0981,0.26388 0.0981,0.04692 0.24059,0.0035 0.34854,-0.20038 0.0836,0.121357 0.21026,0.121709 0.27834,0.09701 0.0582,-0.02151 0.12277,-0.108302 0.14182,-0.228248 0.0187,-0.120296 -0.0127,-0.202846 -0.0505,-0.270933 -0.0501,-0.08325 -0.0832,-0.223661 -0.0832,-0.223661 -0.018,-0.05009 -0.0314,-0.101248 -0.0536,-0.0321 m 13.40097,0.197908 c -0.0699,0.106537 -0.12241,0.362654 -0.0222,0.435679 0.10019,0.07338 0.24659,0.132646 0.24659,0.132646 -0.46602,0.570793 -1.38077,0.976839 -1.59808,1.146527 -0.0649,0.04903 -0.0565,0.07796 -0.0152,0.06703 0.036,-0.0095 0.73308,-0.204611 1.37019,-0.750359 0.2921,-0.25047 0.28399,-0.269168 0.35842,-0.420862 0.0632,0.03281 0.1069,0.08537 0.13159,0.116417 0.0353,0.04339 0.054,0.07549 0.0706,0.02963 0.061,-0.168981 -0.0251,-0.270933 -0.10725,-0.323498 0,0 0.0854,-0.263173 -0.0716,-0.52705 -0.0265,-0.0441 -0.18204,-0.18556 -0.36301,0.09384 m 0.24377,0.07267 c 0.10442,0.09772 0.0889,0.257882 0.0847,0.294571 0,0 -0.13406,-0.0628 -0.19403,-0.08855 -0.06,-0.0254 -0.0914,-0.0635 -0.0639,-0.1016 0.0924,-0.129823 0.13793,-0.125235 0.17321,-0.104423 m -1.78858,-0.165452 c -0.18309,0.232834 -0.19474,0.538692 -0.21908,0.879827 -0.0261,-0.07161 -0.17215,-0.528812 -0.63959,-0.790927 -0.0339,-0.01905 -0.10301,0.01728 -0.10936,0.124884 -0.004,0.06279 -0.0219,0.215193 0.0226,0.258233 0.0441,0.04339 0.17463,0.128058 0.19615,0.140052 0.0222,0.01199 0.0459,0.01376 0.0526,-0.0127 0.006,-0.02574 0.036,-0.08678 0.0783,-0.04304 0.036,0.03598 0.26599,0.226483 0.38594,0.630412 0.0208,0.05362 0.0702,0.05856 0.0818,-0.01693 0.0275,-0.186971 0.0427,-0.511527 0.0572,-0.609952 0.0212,-0.137936 0.0871,-0.422982 0.26212,-0.275167 0.0399,0.03387 0.0818,0.07796 0.0818,0.07796 0.0374,0.04692 0.084,0.100187 0.10689,0.04621 0.0342,-0.08149 0.0621,-0.216958 0.0243,-0.289983 -0.0169,-0.03245 -0.23353,-0.306917 -0.3817,-0.118886 m -1.80023,-0.01093 c -0.0677,0.03951 -1.78787,1.032227 -1.85737,1.077383 -0.0699,0.0448 -0.0946,0.05644 -0.10583,0.110067 -0.0109,0.05362 -0.0166,0.08467 -0.0198,0.09349 -0.0127,0.03598 -0.0215,0.08008 0.0811,0.01341 0.0321,-0.02082 1.76213,-1.020588 1.82245,-1.058688 0.0582,-0.03633 0.0921,-0.0515 0.11536,-0.107596 0.0233,-0.05539 0.0293,-0.06526 0.0416,-0.104071 0.0134,-0.04163 0.0268,-0.08502 -0.0776,-0.024 m -4.66937,0.0099 c -0.0162,0.03951 -0.13688,0.336199 -0.13688,0.336199 0.002,0.01728 0.036,0.146753 0.0423,0.195437 0.0561,0.428273 0.4131,2.60491 0.51364,3.405364 0.0497,0.394052 0.0878,0.748594 0.0938,0.938742 -0.005,0.05891 0.0208,0.08079 0.048,0.024 0.0145,-0.02998 0.0748,-0.155575 0.0931,-0.48401 0.0138,-0.246592 -0.006,-0.625475 -0.0762,-1.147234 -0.0102,-0.07549 -0.38135,-2.365375 -0.38135,-2.365375 0,0 0.1972,0.185209 0.2286,0.218723 0.0321,0.03352 0.0702,0.01588 0.0522,-0.03775 -0.018,-0.05397 -0.42192,-1.030816 -0.43498,-1.064683 -0.013,-0.03351 -0.0257,-0.05856 -0.0423,-0.01939 m -1.26965,0 c -0.0166,0.03951 -0.14605,0.324908 -0.14605,0.324908 0.004,0.02328 0.0339,0.09349 0.055,0.237419 0.0208,0.140758 0.0494,0.339021 0.0815,0.558448 0,0 0.39158,2.41441 0.42086,2.594679 0.0102,0.06456 0.0314,0.210608 0.0836,0.381706 -0.32702,0.207785 -0.86536,0.503767 -1.28093,0.47131 -0.14076,-0.01058 -0.67169,-0.133702 -0.81492,-0.584903 -0.0561,-0.176742 -0.20991,-0.730957 -0.22684,-0.865365 -0.0169,-0.13476 -0.21272,-1.184982 -0.6357,-1.702859 -0.0392,-0.0448 -0.0699,-0.0113 -0.0952,0.03387 -0.0251,0.04481 -0.0617,0.198615 -0.008,0.321733 0.0533,0.123119 0.51682,1.14935 0.63041,1.926519 0,0.0508 -0.009,0.0882 -0.0631,0.147108 -0.0547,0.05892 -0.44979,0.512588 -0.75636,0.718257 -0.1778,0.119591 -0.75424,0.492477 -1.06257,0.428625 -0.16298,-0.03352 -0.54221,-0.365477 -0.25223,-1.0795 0.0212,-0.06315 -0.0339,-0.11924 -0.12594,0.07585 -0.10937,0.230717 -0.31362,1.235075 0.31079,1.394177 0.15805,0.04057 0.74472,0.0011 1.56281,-0.760235 0.10866,-0.101249 0.34113,-0.348899 0.37641,-0.463905 0.0349,-0.115358 0.061,-0.226835 0.061,-0.226835 0.0402,0.104068 0.14641,0.749652 0.77506,0.992716 0.0702,0.02717 0.49706,0.197557 1.2199,-0.173566 0.0787,-0.04092 0.31115,-0.188384 0.52705,-0.315384 0.0642,0.116065 0.14676,0.228249 0.2533,0.319617 0.27234,0.23495 0.59619,0.184857 0.66639,-0.07444 0.16616,-0.614188 -0.067,-0.732367 -0.19297,-0.791282 -0.13511,-0.06279 -0.33408,-0.100541 -0.57785,0.01553 -0.005,0.0021 -0.0159,0.0099 -0.0317,0.02045 -0.007,-0.02082 -0.0145,-0.04198 -0.0208,-0.0635 -0.14887,-0.516467 -0.51858,-2.948517 -0.51858,-2.948517 0,0 0.17991,0.175683 0.21131,0.209198 0.0321,0.03351 0.0702,0.01587 0.0522,-0.03775 -0.018,-0.05398 -0.42192,-1.030816 -0.43497,-1.064683 -0.0131,-0.03351 -0.0261,-0.05856 -0.0423,-0.01939 m 1.42346,4.37162 c 0.0191,0.04022 0.006,0.09913 -0.0377,0.109363 -0.0441,0.01058 -0.30127,0.0013 -0.41345,-0.14464 -0.009,-0.0113 -0.0243,-0.03387 -0.043,-0.06279 0.0469,-0.02222 0.0847,-0.03704 0.10795,-0.04022 0.14076,-0.01905 0.34854,0.04833 0.38629,0.138287 m -7.21182,-4.289105 c -0.14852,0.207082 -0.14252,0.467077 -0.14569,0.757767 -0.0265,-0.05892 -0.17922,-0.438856 -0.60325,-0.634648 -0.031,-0.0141 -0.0896,0.02011 -0.0896,0.111831 -2.6e-4,0.05362 -0.008,0.183799 0.0335,0.218017 0.0413,0.03422 0.16017,0.09878 0.17992,0.107598 0.0201,0.0092 0.0409,0.0092 0.0452,-0.01376 0.004,-0.02223 0.0272,-0.0755 0.067,-0.04092 0.0328,0.02858 0.24554,0.177448 0.37218,0.51294 0.0208,0.04445 0.0649,0.04621 0.0709,-0.01905 0.0141,-0.159809 0.01,-0.435682 0.0177,-0.520349 0.0109,-0.117826 0.0536,-0.363714 0.21555,-0.248001 0.0367,0.02646 0.0758,0.06173 0.0758,0.06173 0.0353,0.03775 0.079,0.08043 0.0963,0.03316 0.0258,-0.07091 0.043,-0.18697 0.006,-0.247295 -0.0162,-0.02646 -0.22119,-0.247299 -0.34114,-0.07902 m 4.838,0.02752 c -0.0307,0.08255 -0.15875,0.36689 -0.139,0.701675 0.005,0.07726 0.0508,0.228248 0.15664,0.232127 0.0547,0 0.12559,-0.04374 0.17568,-0.233185 0.008,-0.04269 0.0141,-0.07726 0.0177,-0.09384 0.005,-0.02574 -0.0116,-0.05609 -0.0296,0.0024 -0.0399,0.116062 -0.14393,0.197202 -0.22154,0.04198 -0.0127,-0.03104 -0.0653,-0.172154 0.031,-0.480483 0.0194,-0.05962 0.0441,-0.148871 0.0441,-0.148871 0.0219,-0.06773 -0.004,-0.104423 -0.0349,-0.02188 m -1.41922,0.323498 c -0.0222,0.06914 -0.0388,0.122061 -0.009,0.201436 0.0303,0.07902 0.11148,0.258233 0.12488,0.283985 0.0134,0.02574 0.0166,0.05468 -0.0279,0.07373 -0.0445,0.01871 -0.24835,0.06244 -0.28645,-0.154868 -0.0374,-0.217313 -0.0409,-0.280813 -0.06,-0.3175 -0.019,-0.03669 -0.0367,-0.04128 -0.0508,-0.0046 -0.0148,0.03669 -0.0236,0.112538 -0.0257,0.124884 -0.002,0.01198 -0.002,0.02117 0.005,0.03457 0.008,0.01341 0.0892,0.255765 0.0522,0.322791 -0.0367,0.06668 -0.21907,0.186974 -0.31503,0.06138 -0.0459,-0.08784 -0.0176,-0.310798 -0.0176,-0.363009 0,-0.05256 -0.0169,-0.0702 -0.0392,-0.02787 -0.0222,0.04198 -0.0346,0.0702 -0.0335,0.10795 0.001,0.03775 0.007,0.200377 0.004,0.251529 -0.004,0.05151 0,0.217313 0.0981,0.264231 0.0981,0.04657 0.2406,0.0032 0.34855,-0.200377 0.0836,0.121354 0.21025,0.121709 0.27834,0.09666 0.0579,-0.02117 0.12241,-0.108301 0.14146,-0.2286 0.019,-0.119943 -0.0123,-0.202493 -0.0501,-0.270581 -0.0501,-0.08325 -0.0836,-0.22366 -0.0836,-0.22366 -0.0177,-0.05009 -0.0314,-0.101248 -0.0536,-0.0321 m -1.65947,0.4064 -0.19508,0.267052 c -0.006,0.0088 -0.005,0.02045 0.004,0.02611 l 0.33268,0.24271 c 0.008,0.0056 0.0194,0.0035 0.0257,-0.0046 l 0.19508,-0.267758 c 0.006,-0.0085 0.005,-0.01976 -0.004,-0.02612 l -0.33267,-0.242358 c -0.008,-0.006 -0.0198,-0.0039 -0.0257,0.0049 m 10.29829,0.504825 c -0.0346,0.08467 -0.1785,0.374647 -0.15663,0.717547 0.005,0.07902 0.0575,0.233188 0.17674,0.237421 0.0617,-2.64e-4 0.14111,-0.0448 0.19755,-0.238831 0.0102,-0.04339 0.0162,-0.07867 0.0201,-0.0956 0.006,-0.02646 -0.0134,-0.0575 -0.0332,0.0021 -0.0452,0.118885 -0.16227,0.201787 -0.24976,0.04304 -0.0141,-0.03175 -0.0737,-0.176035 0.0349,-0.491064 0.0222,-0.06103 0.0497,-0.1524 0.0497,-0.1524 0.0243,-0.06879 -0.005,-0.10654 -0.0395,-0.02222 m -7.01322,0.35842 c -0.0593,0.100894 -0.0952,0.337257 -2.6e-4,0.399344 0.0949,0.06244 0.23142,0.109715 0.23142,0.109715 -0.26811,0.466725 -0.68086,0.879123 -0.90558,1.055864 -0.0589,0.04586 -0.048,0.07408 -0.0109,0.06209 0.0191,-0.006 0.24165,-0.09666 0.55739,-0.38876 0.30374,-0.281165 0.46637,-0.695677 0.46637,-0.695677 0,0 0.11042,0.0829 0.12594,0.100187 0.0339,0.03846 0.0529,0.06703 0.066,0.024 0.048,-0.15734 -0.0356,-0.24624 -0.11289,-0.290335 0,0 0.066,-0.24483 -0.09,-0.479073 -0.0261,-0.0388 -0.17498,-0.161219 -0.32738,0.102658 m 0.22578,0.05539 c 0.10055,0.08432 0.0931,0.231775 0.0914,0.265642 0,0 -0.12559,-0.0515 -0.18168,-0.07232 -0.0557,-0.02082 -0.0864,-0.05397 -0.0631,-0.08996 0.079,-0.123118 0.12065,-0.121002 0.15345,-0.103365 m -3.18593,-0.298447 -0.16828,0.230714 -0.32314,-0.235654 c -0.008,-0.0056 -0.0194,-0.0039 -0.0257,0.0049 l -0.19508,0.267404 c -0.006,0.0081 -0.005,0.02011 0.003,0.02574 l 0.33302,0.242713 c 0.008,0.006 0.0198,0.0039 0.0258,-0.0046 l 0.16827,-0.230716 0.32279,0.235304 c 0.008,0.006 0.0198,0.0039 0.0258,-0.0046 l 0.19544,-0.267404 c 0.006,-0.0085 0.005,-0.02011 -0.004,-0.02611 l -0.33267,-0.24271 c -0.008,-0.0056 -0.0198,-0.0039 -0.0258,0.0049 m 13.28068,0.05821 c -0.0318,0.07796 -0.1651,0.346778 -0.14499,0.663926 0.005,0.07303 0.0533,0.2159 0.16368,0.219779 0.0572,0 0.13088,-0.04163 0.18309,-0.220837 0.009,-0.04057 0.0148,-0.07338 0.0183,-0.0889 0.006,-0.024 -0.012,-0.05292 -0.0307,0.0021 -0.0416,0.110418 -0.14993,0.18697 -0.23107,0.03951 -0.0131,-0.02893 -0.0681,-0.162277 0.0324,-0.454025 0.0205,-0.0568 0.0459,-0.14111 0.0459,-0.14111 0.0226,-0.06385 -0.005,-0.09878 -0.0367,-0.02045 m -6.20642,0.0081 -0.16828,0.230717 -0.32314,-0.235302 c -0.008,-0.006 -0.0194,-0.0039 -0.0257,0.0046 l -0.19508,0.267407 c -0.006,0.0085 -0.004,0.02011 0.004,0.02611 l 0.33267,0.242713 c 0.008,0.006 0.0198,0.0035 0.0257,-0.0046 l 0.16863,-0.231069 0.32279,0.235657 c 0.008,0.006 0.0198,0.0035 0.0261,-0.0046 l 0.19474,-0.267758 c 0.006,-0.0081 0.005,-0.02011 -0.003,-0.02611 l -0.33302,-0.242359 c -0.008,-0.006 -0.0194,-0.0039 -0.0257,0.0046 m -9.68481,0.410633 c -0.0427,0.14605 -0.22754,0.651227 -0.16228,1.23049 0.0155,0.134053 0.1076,0.391583 0.28399,0.38876 0.0907,-0.0056 0.2039,-0.08819 0.26846,-0.421569 0.0102,-0.07514 0.0162,-0.135115 0.0201,-0.164748 0.007,-0.04516 -0.0247,-0.09631 -0.0483,0.0071 -0.0554,0.205316 -0.22013,0.355951 -0.36477,0.09349 -0.024,-0.05256 -0.12524,-0.292452 0.005,-0.83679 0.0265,-0.105479 0.0586,-0.262112 0.0586,-0.262112 0.0296,-0.11924 -0.0173,-0.180623 -0.0603,-0.03457 m 10.98832,0.0053 c -0.013,0.04551 -0.0459,0.23989 -0.0536,0.280107 -0.008,0.03986 -0.007,0.07973 0.0127,0.113593 0.0194,0.03457 0.0702,0.152752 0.10689,0.249415 0.0363,0.09631 0.41416,0.824087 0.44909,0.888294 0.0349,0.06491 0.042,0.11289 0.007,0.155575 -1.21249,1.279525 -3.55282,2.066218 -3.62761,2.10961 -0.0748,0.04375 -0.055,0.07761 0.0709,0.05574 0.18838,-0.03352 1.23966,-0.209198 1.53952,-0.353484 0.19756,-0.09525 0.88794,-0.434268 1.45203,-0.876651 -0.0155,0.1143 -0.03,0.28222 -0.0219,0.495651 0.0378,1.029052 0.95815,0.857957 1.19945,0.80504 0.72354,-0.15875 1.60866,-1.158875 1.6838,-1.360313 0.0744,-0.19826 0.085,-0.379235 0.0684,-0.537278 0.1905,-0.103365 0.59973,-0.433213 0.59973,-0.433213 0.0169,0.438856 0.36618,0.570796 0.47378,0.589491 0.50341,0.07655 0.75565,-0.34431 0.86324,-0.480483 0.091,0.240596 0.31186,0.286808 0.42545,0.30974 0.43427,0.08608 0.51894,-0.221192 0.54152,-0.291394 0.13617,-0.423688 -0.10936,-0.739423 -0.14111,-0.774348 -0.031,-0.03493 -0.0473,-0.0013 -0.0586,0.03916 -0.0109,0.04057 -0.0459,0.193675 -0.0681,0.288925 0,0 0.0907,0.148167 0.12312,0.223661 0.0325,0.0755 -0.0155,0.116416 -0.10936,0.127706 -0.26388,0.03246 -0.47519,-0.11924 -0.54787,-0.18909 -0.0723,-0.06985 0.006,-0.19332 0.0649,-0.341135 0.0469,-0.117827 -0.0399,-0.13194 -0.10689,-2.64e-4 -0.22366,0.588785 -0.53869,0.652637 -0.62124,0.675216 -0.74612,0.2032 -0.68192,-0.478721 -0.67945,-0.590904 0.003,-0.111477 -0.0787,-0.0702 -0.17074,0.0035 -0.31398,0.252235 -0.56692,0.40005 -0.70274,0.461078 -0.11747,-0.229303 -0.28716,-0.373237 -0.35912,-0.425095 -0.80751,-0.588433 -0.87383,0.599368 -0.84985,0.72672 0.12312,0.50518 0.94792,0.199322 1.07739,0.183798 0.12911,-0.01516 0.0871,0.155575 0.0145,0.256824 -0.17921,0.25047 -0.38559,0.430035 -0.57256,0.582787 -0.79975,0.652288 -1.20121,0.601133 -1.32468,0.5969 -0.78528,-0.02222 -0.71332,-0.868892 -0.66993,-1.049512 0.23637,-0.200025 0.43921,-0.418042 0.55739,-0.641705 0.048,-0.122767 0.13089,-0.40146 -0.0187,-0.751769 -0.0783,-0.15381 -0.32632,-0.585964 -0.32632,-0.585964 0,0 0.18239,0.0056 0.20002,0.0053 0.0173,-2.64e-4 0.0515,-0.01834 0.007,-0.06914 -0.0441,-0.05115 -0.42757,-0.433565 -0.4505,-0.464257 -0.0233,-0.03104 -0.0445,-0.05292 -0.0572,-0.0078 m 2.42217,1.752248 c 0,0 -0.11006,0.0635 -0.41769,0.04304 -0.25752,-0.01765 -0.23565,-0.117827 -0.20002,-0.156278 0.0381,-0.04127 0.35383,-0.240242 0.61771,0.113241 m -3.31681,-1.424871 c -0.0533,0.06632 -0.58949,0.770115 -0.58949,0.770115 l -0.39029,-0.278064 c 0,0 0.1591,-0.03951 0.18662,-0.04798 0.0279,-0.0081 0.0441,-0.04374 -0.006,-0.0695 -0.0501,-0.0254 -0.5207,-0.213077 -0.55633,-0.227542 -0.0356,-0.01482 -0.0487,-0.03104 -0.0519,0.0071 -0.003,0.0381 -0.008,0.347839 -0.008,0.347839 0,0 -0.007,0.02151 0.0339,0.0448 0.0409,0.02363 0.0811,0.07338 0.11501,0.107244 0.0339,0.03352 0.47096,0.378531 0.49248,0.390525 0,0 -0.21908,0.384529 -0.24695,0.6858 -0.0275,0.300566 0.005,0.71614 0.41699,0.582083 0.11042,-0.03175 0.57114,-0.214842 0.67416,-0.535868 0.0339,-0.118534 0.12841,-0.332317 -0.0261,-0.549275 -0.0889,-0.127 -0.44873,-0.342548 -0.44873,-0.342548 0,0 0.27587,-0.381704 0.30233,-0.428625 0.0265,-0.04692 0.12806,-0.342546 0.13899,-0.414161 0.0113,-0.07197 0.0169,-0.107598 -0.0363,-0.04198 m -0.0942,1.623131 c -0.15276,0.125942 -0.47414,0.2921 -0.56445,0.300567 -0.09,0.0088 -0.32949,-0.03528 -0.22507,-0.280458 0.0353,-0.07973 0.27481,-0.48895 0.27481,-0.48895 0.0896,0.04903 0.66746,0.343251 0.51471,0.468841 m -7.34237,-1.6129 c -0.0363,0.02469 -0.61595,0.4572 -0.74859,0.485775 -0.13265,0.02822 -0.48119,0.0568 -0.63747,-0.274814 -0.0282,-0.04974 -0.0543,-0.140052 -0.0878,-0.04763 -0.0332,0.09243 -0.0543,0.289279 -0.0543,0.289279 0.0452,0.09243 0.24871,0.492477 0.25576,0.613479 0.007,0.121004 0.11995,0.238125 -0.35066,0.573971 -0.4706,0.336195 -1.28129,0.970844 -3.03283,1.453795 -0.12206,0.05045 -0.11783,0.09349 0.0222,0.07691 0.14005,-0.01693 1.54022,-0.246592 1.54022,-0.246592 0.23531,-0.09525 1.54623,-0.732015 1.82598,-1.260475 0.23813,-0.449085 0.13511,-0.742243 0.13511,-0.742243 0.0568,0.0049 0.44944,0.05609 0.96203,-0.426509 0.066,-0.06174 0.16581,-0.137231 0.20602,-0.09701 0.0402,0.04022 0.10443,0.106891 0.0639,0.414514 -0.0141,0.101952 0.005,0.187325 0.0593,0.06879 0.0466,-0.100896 0.10301,-0.390525 0.0751,-0.639588 -0.005,-0.04374 -0.0674,-0.354541 -0.23389,-0.241652 m 0.96273,0.421569 c -0.0328,0.07973 -0.16862,0.353838 -0.14816,0.676629 0.005,0.07479 0.0543,0.220486 0.16721,0.224367 0.0582,0 0.133,-0.04233 0.18662,-0.225073 0.009,-0.04127 0.0148,-0.07479 0.0187,-0.09066 0.006,-0.02469 -0.0124,-0.05398 -0.0314,0.0024 -0.0427,0.111829 -0.1531,0.190146 -0.23565,0.04022 -0.0138,-0.02999 -0.0695,-0.165806 0.0332,-0.463198 0.0205,-0.05786 0.0466,-0.143581 0.0466,-0.143581 0.0233,-0.06526 -0.004,-0.100542 -0.037,-0.02117 m -0.91546,0.715081 c -0.0699,0.03563 -0.8576,0.376415 -0.92992,0.416984 -0.0727,0.04022 -0.0981,0.0508 -0.11218,0.103364 -0.0148,0.05292 -0.0226,0.08361 -0.0258,0.09207 -0.0148,0.03493 -0.0268,0.07867 0.0801,0.01834 0.0332,-0.01871 0.83432,-0.365831 0.89394,-0.40005 0.0596,-0.03422 0.0949,-0.04622 0.12171,-0.100542 0.0272,-0.05397 0.0335,-0.06315 0.0483,-0.101248 0.0159,-0.04022 0.0321,-0.08325 -0.0762,-0.02893 m 13.5255,1.038577 c -0.0311,0.08608 -0.043,0.142875 -0.0399,0.175332 0.004,0.03316 0.0148,0.1397 0.0148,0.1397 -0.0324,0.02574 -0.16898,0.111125 -0.3055,0.01058 0.009,-0.02928 0.0268,-0.0889 0.0307,-0.121708 0.0148,-0.0508 -0.0162,-0.08819 -0.0413,-0.03563 -0.0251,0.05257 -0.0829,0.228248 -0.12594,0.267407 -0.043,0.03916 -0.0938,0.184502 -0.41945,0.03739 -0.0571,-0.02222 -0.15734,-0.09631 -0.31292,0.05997 -0.35242,0.328084 -0.59584,0.353484 -0.9913,0.494242 -0.0476,0.02188 -0.14817,0.09702 -0.0289,0.08537 0.11924,-0.01164 0.62018,2.65e-4 0.89288,-0.312915 0.0572,-0.05503 0.12242,-0.201435 0.33902,-0.116768 0.11995,0.04586 0.34149,0.235654 0.5835,-0.140055 0.14252,0.0949 0.35877,0.05715 0.39334,-0.04798 0.0346,-0.104068 0.0741,-0.208843 0.0737,-0.279752 -2.6e-4,-0.07091 -0.007,-0.1651 -0.007,-0.1651 -0.005,-0.05574 -0.0243,-0.136173 -0.0561,-0.0501 m -11.74927,0.191207 c -0.0328,0.07937 -0.16898,0.353483 -0.14816,0.676981 0.005,0.07479 0.0543,0.220133 0.16686,0.223308 0.0582,0 0.13335,-0.04198 0.18662,-0.224366 0.009,-0.04128 0.0152,-0.07444 0.0191,-0.09102 0.006,-0.02469 -0.0124,-0.05362 -0.0318,0.0028 -0.0423,0.111832 -0.15275,0.190148 -0.23565,0.03986 -0.0134,-0.02963 -0.0695,-0.165807 0.0332,-0.463198 0.0208,-0.05785 0.0469,-0.143579 0.0469,-0.143579 0.0229,-0.06491 -0.005,-0.100542 -0.0371,-0.02082 m -2.92452,0.146757 c -0.0702,0.03457 -1.14018,0.430741 -1.21215,0.471662 -0.0727,0.04022 -0.0981,0.04974 -0.11253,0.103013 -0.0145,0.05256 -0.0222,0.08361 -0.0257,0.09208 -0.0148,0.03493 -0.0265,0.07867 0.0801,0.01799 0.0335,-0.01871 1.11654,-0.420512 1.17652,-0.454379 0.0596,-0.03422 0.0949,-0.04621 0.1217,-0.100187 0.0268,-0.05398 0.0335,-0.06386 0.048,-0.101955 0.0162,-0.03986 0.0321,-0.0829 -0.0759,-0.02822"
       style="fill:#231f20;fill-opacity:1;fill-rule:evenodd;stroke:none;stroke-width:0.264583"
       id="path1" />
  </g>
</svg>
