<?xml version="1.0" encoding="UTF-8" standalone="no"?>
<!-- Created with Inkscape (http://www.inkscape.org/) -->

<svg
   width="19.961975mm"
   height="6.2931442mm"
   viewBox="0 0 19.961975 6.2931442"
   version="1.1"
   id="svg1"
   xmlns="http://www.w3.org/2000/svg"
   xmlns:svg="http://www.w3.org/2000/svg">
  <defs
     id="defs1" />
  <g
     id="layer1"
     transform="translate(-180.5517,-28.572662)">
    <path
       d="m 192.77178,28.74165 c -0.0702,0.106892 -0.12206,0.362656 -0.0222,0.435681 0.0998,0.07338 0.24624,0.132644 0.24624,0.132644 -0.46566,0.570796 -0.78457,0.679804 -1.05692,0.839613 -0.0702,0.04092 -0.0561,0.07796 -0.0152,0.06703 0.0212,-0.006 0.38806,-0.06279 0.81598,-0.388057 0.23142,-0.175683 0.37147,-0.47625 0.37147,-0.47625 0,0 0.11607,0.09666 0.13159,0.116065 0.0353,0.04374 0.0543,0.0762 0.0709,0.02998 0.061,-0.168979 -0.0251,-0.270579 -0.10725,-0.323495 0,0 0.0854,-0.262821 -0.0716,-0.52705 -0.0265,-0.04445 -0.18239,-0.185563 -0.36301,0.09384 m 0.24342,0.07267 c 0.10512,0.09772 0.0889,0.258233 0.085,0.294923 0,0 -0.13406,-0.06315 -0.19439,-0.0889 -0.0593,-0.0254 -0.091,-0.0635 -0.0635,-0.1016 0.0924,-0.129823 0.13794,-0.125238 0.17287,-0.104423 m -1.73567,-0.205317 c -0.0162,0.03916 -0.13688,0.336198 -0.13688,0.336198 0.002,0.01728 0.036,0.146754 0.0423,0.195438 0.0561,0.428625 0.40676,2.960158 0.50765,3.759906 0.0497,0.394406 0.0878,0.748593 0.0935,0.939093 -0.004,0.05856 0.0212,0.08079 0.048,0.024 0.0148,-0.03069 0.0751,-0.155575 0.0935,-0.48401 0.0141,-0.246592 -0.006,-0.625475 -0.0762,-1.147233 -0.01,-0.0755 -0.37535,-2.720272 -0.37535,-2.720272 0,0 0.1972,0.185563 0.22895,0.219075 0.0317,0.03352 0.0702,0.01553 0.0519,-0.03845 -0.018,-0.05398 -0.42192,-1.030111 -0.43498,-1.064332 -0.013,-0.03387 -0.0257,-0.05856 -0.0423,-0.01939 m -0.93345,0 c -0.0162,0.03916 -0.14605,0.324908 -0.14605,0.324908 0.004,0.02328 0.0339,0.09349 0.055,0.237774 0.0219,0.149576 0.49354,3.538008 0.50518,3.637491 0.0116,0.09948 0.0409,0.310092 -0.16686,0.385937 -0.13476,0.04939 -0.37289,0.06526 -0.62336,0.01447 0.0243,-0.02928 0.0441,-0.05927 0.0582,-0.08925 0.0381,-0.113242 0.20602,-0.394758 0.0716,-0.801865 -0.0462,-0.126293 -0.18909,-0.33655 -0.49565,-0.126293 -0.30692,0.209902 -0.47061,0.722487 -0.42016,0.932391 0.0124,0.04339 0.0395,0.09948 0.0885,0.159102 -0.0251,0.0085 -0.0505,0.01693 -0.0769,0.02574 -0.0938,0.04057 -0.86607,0.336198 -0.9712,-0.374295 0.0265,-0.155223 0.0321,-0.29845 -0.073,-0.17004 -0.10548,0.128765 -0.35384,0.671335 -0.83044,0.716844 -0.1845,0.01765 -0.6103,0.07726 -0.81597,-0.564796 -0.10619,-0.3302 -0.29951,-3.304116 -0.57644,-4.173714 -0.0328,-0.102659 -0.0589,-0.05468 -0.0843,-0.0127 -0.025,0.04233 -0.12171,0.206023 -0.0797,0.386643 0.25611,0.991306 0.42439,3.284715 0.44944,3.528483 0.0254,0.243772 0.0758,1.134182 0.86536,1.25589 0.15557,0.02117 0.65969,0.0127 0.9786,-0.60466 0.0212,0.05045 0.24307,0.675568 0.9077,0.482952 0.0977,-0.02858 0.36654,-0.13335 0.61278,-0.271992 0.0885,0.04057 0.19473,0.08043 0.32385,0.104069 0.16298,0.02963 0.73518,0.117475 0.91157,-0.222602 0.0631,-0.130175 0.17639,-0.499885 0.12595,-0.957792 -0.0377,-0.277283 -0.39759,-3.02119 -0.39759,-3.02119 0,0 0.19933,0.179917 0.23108,0.213432 0.0317,0.03351 0.0702,0.01553 0.0522,-0.0381 -0.018,-0.05398 -0.42404,-0.923219 -0.4371,-0.957085 -0.013,-0.03422 -0.0261,-0.05892 -0.0423,-0.01977 m -0.51294,3.931002 c 0.11712,0.111125 0.19015,0.269171 0.13441,0.339021 -0.0339,0.04339 -0.1203,0.132996 -0.30268,0.233892 -0.0321,-0.0141 -0.0639,-0.02928 -0.0949,-0.04622 -0.0878,-0.0381 -0.28081,-0.149577 -0.16686,-0.31891 0.079,-0.105481 0.31326,-0.318913 0.43003,-0.207788 m 9.46079,-3.702754 c -0.0699,0.106892 -0.12206,0.362654 -0.0219,0.435679 0.0998,0.07338 0.24624,0.132646 0.24624,0.132646 -0.46602,0.570794 -1.38077,0.977194 -1.59844,1.146879 -0.0645,0.04904 -0.0561,0.07797 -0.0148,0.06703 0.036,-0.0099 0.73307,-0.204613 1.37019,-0.750713 0.29174,-0.250119 0.28398,-0.268817 0.35842,-0.420862 0.0632,0.03281 0.10689,0.08537 0.13159,0.116062 0.0353,0.04375 0.054,0.0762 0.0709,0.02999 0.0607,-0.16863 -0.0254,-0.270582 -0.10795,-0.323498 0,0 0.0861,-0.262819 -0.0713,-0.52705 -0.0261,-0.0441 -0.18203,-0.185561 -0.36301,0.09384 m 0.24342,0.07267 c 0.10513,0.09772 0.0889,0.257881 0.085,0.294923 0,0 -0.13406,-0.06279 -0.19403,-0.08855 -0.0596,-0.02574 -0.0914,-0.0635 -0.0635,-0.101952 0.0921,-0.129823 0.13794,-0.125235 0.17251,-0.104423 m -12.20011,-0.106892 c -0.0321,0.07832 -0.16687,0.34925 -0.14605,0.668515 0.005,0.07373 0.0536,0.217665 0.16475,0.221192 0.0572,0 0.13158,-0.04163 0.18415,-0.22225 0.009,-0.04092 0.0152,-0.07338 0.0187,-0.08961 0.006,-0.02434 -0.0123,-0.05327 -0.031,0.0024 -0.0416,0.110771 -0.15099,0.188029 -0.23283,0.03951 -0.013,-0.02928 -0.0684,-0.16369 0.0332,-0.4572 0.0205,-0.05715 0.0459,-0.141817 0.0459,-0.141817 0.0229,-0.06421 -0.005,-0.09948 -0.0367,-0.02082 m 2.43311,0.06809 c -0.0804,0.04198 -2.90301,1.582912 -2.98556,1.628069 -0.0818,0.04445 -0.10619,0.06315 -0.11853,0.123825 -0.0127,0.06068 -0.019,0.09278 -0.0226,0.105481 -0.0117,0.04092 -0.0282,0.08325 0.0914,0.01482 0.037,-0.02117 2.88148,-1.563865 2.94604,-1.606905 0.0649,-0.04233 0.10372,-0.05821 0.12982,-0.121002 0.0265,-0.06279 0.0328,-0.07373 0.0469,-0.117475 0.0148,-0.04657 0.0335,-0.08925 -0.0875,-0.02681 m -0.14817,0.760942 c -0.0321,0.07832 -0.16616,0.34925 -0.14605,0.668512 0.005,0.07373 0.054,0.217313 0.1651,0.221192 0.0575,0 0.13158,-0.04163 0.18415,-0.22225 0.009,-0.04092 0.0152,-0.07373 0.0187,-0.0896 0.006,-0.02434 -0.0123,-0.05327 -0.031,0.0024 -0.042,0.110773 -0.15099,0.188031 -0.23284,0.03986 -0.0134,-0.02963 -0.0684,-0.164042 0.0328,-0.457555 0.0205,-0.05715 0.0459,-0.142168 0.0459,-0.142168 0.0229,-0.06421 -0.004,-0.09913 -0.0367,-0.02045 m -1.67676,1.433687 c -0.14075,0.239538 -0.11747,0.529874 -0.10195,0.854782 -0.031,-0.06491 -0.21449,-0.481542 -0.66851,-0.679802 -0.0328,-0.01447 -0.0917,0.02716 -0.0857,0.129469 0.004,0.05962 0.004,0.205668 0.049,0.242006 0.0448,0.03598 0.17286,0.102304 0.19402,0.111125 0.0215,0.0092 0.043,0.0085 0.0462,-0.01693 0.003,-0.0254 0.0233,-0.08608 0.0667,-0.04939 0.0367,0.03034 0.2667,0.185915 0.42016,0.554918 0.0247,0.04833 0.0706,0.04798 0.0727,-0.02506 0.004,-0.179212 -0.018,-0.487539 -0.0155,-0.582083 0.004,-0.132646 0.0321,-0.409223 0.20778,-0.287867 0.0399,0.02752 0.0833,0.06526 0.0833,0.06526 0.0388,0.03986 0.0871,0.08573 0.10195,0.03246 0.0219,-0.08114 0.0325,-0.211667 -0.01,-0.276931 -0.0191,-0.02858 -0.24624,-0.265288 -0.36019,-0.07197 m 1.83621,0.04586 -0.16827,0.230716 -0.32315,-0.235304 c -0.008,-0.006 -0.0194,-0.0039 -0.0257,0.0046 l -0.19509,0.267404 c -0.006,0.0085 -0.005,0.02045 0.004,0.02611 l 0.33267,0.242711 c 0.008,0.006 0.0198,0.0035 0.0257,-0.0046 l 0.16863,-0.230716 0.32279,0.235302 c 0.008,0.006 0.0198,0.0035 0.0257,-0.0046 l 0.19508,-0.267406 c 0.006,-0.0088 0.005,-0.02011 -0.004,-0.02612 l -0.33267,-0.242712 c -0.008,-0.006 -0.0194,-0.0039 -0.0258,0.0046 m 7.96749,-2.366788 c -0.18309,0.232481 -0.19474,0.53834 -0.21908,0.87983 -0.0261,-0.07161 -0.1718,-0.529167 -0.63958,-0.79093 -0.0339,-0.01905 -0.10302,0.01693 -0.10937,0.124531 -0.004,0.06279 -0.0219,0.215194 0.0226,0.258586 0.0441,0.04304 0.17463,0.128058 0.1965,0.1397 0.0222,0.01236 0.0452,0.0141 0.0522,-0.01236 0.006,-0.02612 0.036,-0.08678 0.0787,-0.04304 0.0356,0.03598 0.266,0.226483 0.38559,0.63006 0.0208,0.05362 0.0702,0.05891 0.0818,-0.01728 0.0275,-0.186619 0.0423,-0.511175 0.0572,-0.609248 0.0212,-0.138642 0.0871,-0.423334 0.26247,-0.275519 0.0395,0.03387 0.0818,0.07796 0.0818,0.07796 0.0371,0.04692 0.0836,0.100542 0.10654,0.04657 0.0342,-0.08185 0.0621,-0.216959 0.0243,-0.289984 -0.0169,-0.03281 -0.23353,-0.307271 -0.3817,-0.118888 m -1.80023,-0.0113 c -0.0677,0.03986 -1.78787,1.032227 -1.85737,1.077383 -0.0699,0.0448 -0.0945,0.05644 -0.10548,0.110067 -0.0113,0.05362 -0.0169,0.08502 -0.0201,0.09348 -0.0124,0.03598 -0.0215,0.08043 0.0811,0.01341 0.0321,-0.02082 1.76212,-1.020588 1.8228,-1.058333 0.0582,-0.03669 0.0917,-0.05186 0.11501,-0.107598 0.0233,-0.05609 0.0293,-0.06562 0.0416,-0.104775 0.0134,-0.04092 0.0268,-0.08467 -0.0776,-0.02363 m -11.35697,0.09525 c -0.0363,0.12982 -0.19438,0.578908 -0.13688,1.094668 0.013,0.11924 0.0928,0.348544 0.24412,0.346075 0.0783,-0.0049 0.17498,-0.07796 0.23002,-0.37465 0.009,-0.06668 0.0134,-0.120298 0.0173,-0.146756 0.005,-0.03951 -0.0219,-0.08537 -0.042,0.0067 -0.0469,0.182385 -0.18838,0.316087 -0.31291,0.0822 -0.0208,-0.04657 -0.10795,-0.26035 0.003,-0.744008 0.0222,-0.09419 0.0494,-0.233537 0.0494,-0.233537 0.0251,-0.105834 -0.0152,-0.160515 -0.0519,-0.03069 m -2.22708,0.06526 c -0.18063,0.232833 -0.19192,0.539046 -0.2159,0.880181 -0.0254,-0.07161 -0.16969,-0.529166 -0.63007,-0.790926 -0.0335,-0.01905 -0.1016,0.01693 -0.10795,0.124528 -0.004,0.0628 -0.0212,0.215197 0.0226,0.258588 0.043,0.04304 0.17181,0.128059 0.19332,0.1397 0.0215,0.01236 0.0448,0.01376 0.0512,-0.01236 0.006,-0.02611 0.036,-0.08678 0.078,-0.04304 0.03,0.03069 0.27623,0.246947 0.35137,0.54328 0.0628,0.257527 -0.57009,0.776817 -0.6036,0.800452 -0.0593,0.04233 -0.0402,0.0702 -0.0124,0.05539 0.0272,-0.01482 0.055,-0.01939 0.37924,-0.233537 0.26211,-0.172508 0.31679,-0.372888 0.33937,-0.526346 0.002,-0.0074 0.005,-0.01588 0.006,-0.02612 0.0272,-0.186621 0.042,-0.511175 0.0564,-0.6096 0.0208,-0.138289 0.0857,-0.423333 0.25824,-0.275166 0.0392,0.03351 0.0808,0.07796 0.0808,0.07796 0.0367,0.04692 0.0829,0.10019 0.10513,0.04622 0.0335,-0.08149 0.0614,-0.216959 0.024,-0.289984 -0.0166,-0.03246 -0.23037,-0.307268 -0.37606,-0.119239 m 1.1116,0.316441 c -0.0423,0.0949 -0.2159,0.419455 -0.22084,0.81633 -0.001,0.09137 0.0409,0.273402 0.1644,0.286808 0.0642,0.0042 0.15028,-0.04163 0.22471,-0.261056 0.0138,-0.04974 0.0229,-0.08961 0.0286,-0.109009 0.008,-0.02998 -0.009,-0.06738 -0.0349,7.94e-4 -0.0564,0.13335 -0.18485,0.220485 -0.26281,0.03069 -0.012,-0.0374 -0.0621,-0.20814 0.0762,-0.56374 0.0279,-0.06879 0.0639,-0.172156 0.0639,-0.172156 0.031,-0.07761 0.004,-0.122767 -0.0392,-0.02858 m 12.80266,0.878064 c -0.0346,0.08396 -0.17851,0.37465 -0.15664,0.717198 0.005,0.07937 0.0575,0.233186 0.17675,0.237419 0.0617,-2.65e-4 0.14146,-0.0448 0.1979,-0.238832 0.01,-0.04339 0.0159,-0.07867 0.0198,-0.0956 0.006,-0.02612 -0.013,-0.0575 -0.0332,0.0024 -0.0452,0.118533 -0.16193,0.20179 -0.24977,0.04233 -0.0141,-0.03139 -0.0734,-0.175683 0.0353,-0.490712 0.0219,-0.06103 0.0494,-0.1524 0.0494,-0.1524 0.0243,-0.06879 -0.005,-0.10654 -0.0395,-0.02188 m 3.30729,0.173215 c -0.0317,0.07796 -0.16546,0.346779 -0.14499,0.663927 0.005,0.07338 0.0533,0.216252 0.16404,0.219781 0.0568,0 0.13053,-0.04128 0.18274,-0.22084 0.009,-0.04022 0.0148,-0.07302 0.0183,-0.0889 0.006,-0.024 -0.012,-0.05292 -0.0307,0.0024 -0.0416,0.110066 -0.15028,0.186621 -0.23107,0.03951 -0.0134,-0.02928 -0.0681,-0.162631 0.0325,-0.454379 0.0201,-0.0568 0.0459,-0.14111 0.0459,-0.14111 0.0226,-0.06385 -0.004,-0.09843 -0.0367,-0.02045 m -6.20642,0.0081 -0.16828,0.230717 -0.32314,-0.235302 c -0.008,-0.006 -0.0194,-0.0035 -0.0254,0.0046 l -0.19509,0.267407 c -0.006,0.0088 -0.005,0.02045 0.003,0.02611 l 0.33302,0.24271 c 0.008,0.006 0.0194,0.0039 0.0257,-0.0046 l 0.16828,-0.230717 0.32279,0.235302 c 0.008,0.006 0.0198,0.0039 0.0257,-0.0046 l 0.19509,-0.267407 c 0.006,-0.0088 0.005,-0.02011 -0.003,-0.02611 l -0.33266,-0.24271 c -0.008,-0.006 -0.0198,-0.0035 -0.0261,0.0046 m -12.64038,0.426157 c -0.0455,0.156281 -0.24271,0.695325 -0.17286,1.314098 0.0162,0.142875 0.11465,0.417687 0.30269,0.414512 0.097,-0.0056 0.21766,-0.09384 0.28645,-0.449792 0.0113,-0.08043 0.0173,-0.144637 0.0219,-0.176035 0.007,-0.04763 -0.0268,-0.102658 -0.0519,0.0078 -0.0589,0.219075 -0.23495,0.37959 -0.38946,0.09948 -0.0254,-0.05609 -0.13335,-0.311854 0.005,-0.892527 0.0282,-0.11289 0.0624,-0.280459 0.0624,-0.280459 0.0314,-0.127 -0.0183,-0.192616 -0.0646,-0.03704 m 4.89832,-0.04516 c -0.0554,0.03422 -1.73955,0.862896 -1.89794,0.991659 -0.0797,0.06456 -0.14605,0.166864 -0.16934,0.277637 -0.0335,0.160513 0.007,0.319262 0.11148,0.336196 0.0727,0.0113 0.11465,0.05398 0.133,0.07867 0.008,0.01024 0.0198,0.0028 0.0229,-0.0039 0.0829,-0.164042 0.008,-0.267052 -0.133,-0.307269 -0.0561,-0.01622 -0.0811,-0.09384 0.12594,-0.22719 0.19121,-0.122766 1.69051,-0.874183 1.7332,-0.904168 0.0572,-0.03986 0.0917,-0.05503 0.11394,-0.112538 0.0222,-0.05715 0.0282,-0.06738 0.0399,-0.107244 0.0124,-0.04233 0.0247,-0.08713 -0.0801,-0.02188 m 9.04557,0.03528 c -0.013,0.04515 -0.0459,0.239535 -0.0536,0.279752 -0.008,0.03987 -0.007,0.07973 0.0123,0.113948 0.0198,0.03457 0.0706,0.152752 0.10725,0.24906 0.0363,0.09631 0.41416,0.82409 0.44909,0.888648 0.0349,0.06456 0.0423,0.112535 0.007,0.155575 -1.21285,1.279525 -3.55318,2.066219 -3.62796,2.10961 -0.0744,0.04374 -0.055,0.07726 0.0709,0.05539 0.18838,-0.03316 1.23966,-0.208844 1.53916,-0.353129 0.19791,-0.0956 0.88795,-0.434271 1.45274,-0.876655 -0.0159,0.113948 -0.0303,0.282223 -0.0226,0.4953 0.0381,1.029055 0.95849,0.858309 1.19979,0.805392 0.7239,-0.159102 1.60902,-1.159227 1.68381,-1.36031 0.0744,-0.198261 0.0854,-0.379236 0.0684,-0.537634 0.1905,-0.10301 0.60008,-0.43321 0.60008,-0.43321 0.0166,0.438854 0.36583,0.570794 0.47342,0.589844 0.50342,0.0762 0.75601,-0.344665 0.86325,-0.480836 0.0914,0.240242 0.31186,0.287161 0.42545,0.309738 0.43427,0.08643 0.51894,-0.221192 0.54151,-0.291042 0.13618,-0.423685 -0.10936,-0.73942 -0.14111,-0.774345 -0.0314,-0.03528 -0.0473,-0.0013 -0.0582,0.03916 -0.0113,0.04057 -0.0466,0.19332 -0.0684,0.28857 0,0 0.091,0.148167 0.12347,0.223663 0.0321,0.07549 -0.0159,0.116417 -0.10936,0.128058 -0.26423,0.0321 -0.47519,-0.119239 -0.54787,-0.189441 -0.0727,-0.0695 0.006,-0.192971 0.0649,-0.340783 0.0469,-0.118182 -0.0402,-0.132292 -0.10724,-2.65e-4 -0.22401,0.58914 -0.53834,0.652288 -0.62124,0.674865 -0.74613,0.2032 -0.68192,-0.478719 -0.6791,-0.59055 0.002,-0.111832 -0.0794,-0.0702 -0.1711,0.0035 -0.31397,0.251883 -0.56691,0.399698 -0.70273,0.460729 -0.11712,-0.228954 -0.28716,-0.372888 -0.35913,-0.424746 -0.80751,-0.588785 -0.87418,0.599017 -0.84984,0.726723 0.12312,0.505177 0.94792,0.198967 1.07738,0.183798 0.12947,-0.01553 0.0871,0.155575 0.0145,0.256821 -0.17886,0.250473 -0.38559,0.430038 -0.57291,0.582438 -0.7994,0.652637 -1.20086,0.601133 -1.32433,0.596899 -0.78564,-0.02222 -0.71332,-0.868539 -0.66957,-1.049514 0.236,-0.200025 0.4392,-0.41769 0.55703,-0.64135 0.048,-0.123119 0.13088,-0.401815 -0.0187,-0.751769 -0.0787,-0.153813 -0.32632,-0.585965 -0.32632,-0.585965 0,0 0.18238,0.0056 0.19967,0.0053 0.0173,-7.94e-4 0.0519,-0.01871 0.007,-0.06985 -0.0441,-0.0508 -0.42722,-0.43321 -0.4505,-0.463902 -0.0229,-0.03069 -0.0444,-0.05292 -0.0571,-0.0074 m 2.42217,1.7526 c 0,0 -0.11006,0.06314 -0.41769,0.04233 -0.25752,-0.01728 -0.23565,-0.117829 -0.20002,-0.155929 0.0381,-0.04163 0.35383,-0.240242 0.61771,0.113596 m -3.31646,-1.425223 c -0.0536,0.06632 -0.58984,0.770115 -0.58984,0.770115 l -0.38983,-0.27799 c 0,0 0.15875,-0.03986 0.18627,-0.04798 0.0282,-0.0081 0.0437,-0.04375 -0.006,-0.0695 -0.0497,-0.02574 -0.51999,-0.213077 -0.55562,-0.227894 -0.036,-0.01447 -0.0487,-0.03069 -0.0519,0.0074 -0.004,0.0381 -0.009,0.347837 -0.009,0.347837 0,0 -0.007,0.02151 0.0342,0.0448 0.0409,0.02328 0.0808,0.07338 0.11465,0.106892 0.0335,0.03387 0.47096,0.378529 0.49212,0.390877 0,0 -0.21872,0.384527 -0.24659,0.685448 -0.0279,0.300918 0.006,0.716137 0.41699,0.582083 0.11041,-0.0314 0.57114,-0.21449 0.67415,-0.536223 0.0335,-0.118181 0.12841,-0.33161 -0.0257,-0.548568 -0.0892,-0.127707 -0.44908,-0.342549 -0.44908,-0.342549 0,0 0.27622,-0.382058 0.30233,-0.428976 0.0265,-0.04657 0.12806,-0.342549 0.13934,-0.414163 0.0113,-0.07161 0.0166,-0.107596 -0.0363,-0.04163 m -0.0949,1.623131 c -0.15275,0.125942 -0.47378,0.291746 -0.56374,0.300567 -0.0903,0.0085 -0.32985,-0.03528 -0.22542,-0.280813 0.0353,-0.07937 0.27446,-0.48895 0.27446,-0.48895 0.0896,0.04904 0.66781,0.343255 0.5147,0.469196 m -10.92517,-1.20015 -0.16828,0.230717 -0.32279,-0.235657 c -0.008,-0.0056 -0.0198,-0.0035 -0.0257,0.0049 l -0.19509,0.267404 c -0.006,0.0085 -0.005,0.02011 0.003,0.02611 l 0.33302,0.242711 c 0.008,0.006 0.0194,0.0039 0.0257,-0.0049 l 0.16828,-0.230717 0.32314,0.235654 c 0.008,0.006 0.0194,0.0039 0.0258,-0.0049 l 0.19473,-0.267054 c 0.006,-0.0088 0.005,-0.02045 -0.003,-0.02646 l -0.33302,-0.24271 c -0.008,-0.0056 -0.0194,-0.0035 -0.0257,0.0049 m 2.12725,0.937329 c -0.17004,0.208491 -0.2727,0.498475 -0.31644,0.571854 -0.0445,0.07338 -0.22296,0.410279 -0.63959,0.422275 -0.10266,0 -0.48648,0.0381 -0.74154,-0.560213 -0.21414,-0.480835 -0.50447,-0.334079 -0.63641,-0.260702 -0.13194,0.07303 -0.47343,0.287515 -0.80927,1.031523 -0.0547,0.125942 -0.15699,0.442736 -0.36301,0.431094 -0.0642,-0.0039 -0.31433,-0.03916 -0.50836,-0.469194 -0.0317,-0.0882 -0.1524,-0.503062 -0.14005,-0.800454 -0.002,-0.08573 -0.0247,-0.169333 -0.0614,-0.06138 -0.0367,0.108304 -0.10054,0.879123 0.26282,1.429104 0.38311,0.540454 0.69497,0.162277 0.7366,0.07373 0.0416,-0.08819 0.40993,-0.972254 0.79798,-1.193446 0.0614,-0.03669 0.40287,-0.211314 0.51082,-0.0021 0.0734,0.144637 0.28928,0.636762 0.65053,0.753533 0.19473,0.06315 0.62582,0.05468 0.83043,-0.287163 0.0505,-0.0896 0.13371,-0.26317 0.13371,-0.26317 0.073,0.04692 0.38699,0.310795 0.89993,0.240241 0.079,-0.02045 0.15558,-0.05856 0.1584,-0.172862 0.003,-0.1143 0.004,-0.490361 -0.32844,-0.897113 -0.0614,-0.06738 -0.2667,-0.193674 -0.43673,0.01447 m 0.42192,0.522113 c 0.0677,0.102658 0.012,0.131233 -0.0381,0.128762 -0.24906,-0.01164 -0.41028,-0.123118 -0.47484,-0.17286 0,0 0.0236,-0.0762 0.13758,-0.1524 0.13547,-0.09031 0.30798,0.09384 0.37536,0.196498 m 14.60676,0.302683 c -0.031,0.08608 -0.043,0.142875 -0.0399,0.175684 0.004,0.03281 0.0148,0.139345 0.0148,0.139345 -0.0321,0.02574 -0.16898,0.111125 -0.3055,0.01024 0.009,-0.02893 0.0268,-0.08855 0.0307,-0.121357 0.0145,-0.05045 -0.0162,-0.08784 -0.0413,-0.03563 -0.0247,0.05256 -0.0829,0.228246 -0.12594,0.267404 -0.0427,0.03951 -0.0935,0.184857 -0.41945,0.03704 -0.0571,-0.02188 -0.15734,-0.09595 -0.31256,0.06068 -0.35278,0.328084 -0.5962,0.353484 -0.99131,0.493887 -0.048,0.02222 -0.14851,0.09737 -0.0293,0.08537 0.11924,-0.01164 0.62019,2.64e-4 0.89288,-0.312561 0.0572,-0.05574 0.12242,-0.201789 0.33902,-0.116771 0.11995,0.04586 0.34149,0.235657 0.5835,-0.140404 0.14252,0.09525 0.35877,0.05715 0.39334,-0.04763 0.0346,-0.104423 0.0744,-0.208846 0.0741,-0.279754 -8e-4,-0.07126 -0.007,-0.1651 -0.007,-0.1651 -0.005,-0.05609 -0.0247,-0.136525 -0.0564,-0.05045 M 185.4826,33.68423 c -0.042,0.08325 -0.21272,0.369359 -0.21449,0.720371 -2.6e-4,0.08114 0.043,0.242358 0.16687,0.255058 0.0639,0.0042 0.14957,-0.03563 0.22225,-0.228952 0.0134,-0.0441 0.0222,-0.07937 0.0279,-0.09666 0.008,-0.02611 -0.01,-0.05927 -0.0349,2.65e-4 -0.0554,0.117826 -0.18274,0.193675 -0.26247,0.0254 -0.0127,-0.03352 -0.0639,-0.184857 0.0716,-0.498475 0.0272,-0.06068 0.0624,-0.151694 0.0624,-0.151694 0.0303,-0.06844 0.003,-0.109008 -0.0392,-0.0254 m 5.35728,0.224012 c -0.0776,0.03528 -1.25236,0.560565 -1.33138,0.598665 -0.0744,0.03563 -0.0945,0.05609 -0.10548,0.110067 -0.0113,0.05362 -0.0169,0.08467 -0.0198,0.09349 -0.0127,0.03598 -0.0219,0.06738 0.0808,0.01304 0.0339,-0.01765 1.23402,-0.5461 1.29646,-0.579615 0.0607,-0.0321 0.0921,-0.05186 0.11536,-0.107598 0.0233,-0.05574 0.0293,-0.06562 0.0416,-0.104421 0.0131,-0.04127 0.0325,-0.07373 -0.0776,-0.02363 m -7.61365,0.06138 c -0.0702,0.03528 -1.22272,0.579967 -1.29504,0.620538 -0.0723,0.04022 -0.0977,0.05045 -0.11254,0.103362 -0.0145,0.05292 -0.0222,0.08361 -0.0254,0.09208 -0.0152,0.03493 -0.0268,0.07867 0.0801,0.01834 0.0332,-0.01871 1.19909,-0.57009 1.25871,-0.603956 0.0596,-0.03422 0.0949,-0.04586 0.12206,-0.10019 0.0265,-0.05398 0.0332,-0.0635 0.048,-0.1016 0.0162,-0.04022 0.0321,-0.08325 -0.0759,-0.02857 m 4.95195,0.357013 -0.16828,0.230716 -0.32279,-0.235656 c -0.008,-0.0056 -0.0198,-0.0039 -0.0257,0.0049 l -0.19509,0.267052 c -0.006,0.0088 -0.005,0.02045 0.003,0.02611 l 0.33303,0.24271 c 0.008,0.006 0.0194,0.0039 0.0257,-0.0046 l 0.16827,-0.230717 0.32315,0.235302 c 0.008,0.006 0.0194,0.0039 0.0257,-0.0046 l 0.19474,-0.267407 c 0.006,-0.0085 0.005,-0.02011 -0.003,-0.02611 l -0.33302,-0.24271 c -0.008,-0.0056 -0.0194,-0.0039 -0.0257,0.0049"
       style="fill:#231f20;fill-opacity:1;fill-rule:evenodd;stroke:none;stroke-width:0.264583"
       id="path1" />
  </g>
</svg>
