<?xml version="1.0" encoding="UTF-8" standalone="no"?>
<!-- Created with Inkscape (http://www.inkscape.org/) -->

<svg
   width="20.190578mm"
   height="6.525609mm"
   viewBox="0 0 20.190578 6.525609"
   version="1.1"
   id="svg1"
   xmlns="http://www.w3.org/2000/svg"
   xmlns:svg="http://www.w3.org/2000/svg">
  <defs
     id="defs1" />
  <g
     id="layer1"
     transform="translate(-164.29428,-21.760324)">
    <path
       d="m 176.74167,21.929335 c -0.0702,0.10654 -0.12242,0.363008 -0.0222,0.435681 0.0998,0.07338 0.24624,0.132644 0.24624,0.132644 -0.46602,0.570796 -0.78458,0.67945 -1.05692,0.839258 -0.0706,0.04127 -0.0565,0.07796 -0.0152,0.06738 0.0212,-0.006 0.3877,-0.06315 0.81562,-0.388057 0.23142,-0.176035 0.37183,-0.47625 0.37183,-0.47625 0,0 0.11571,0.09666 0.13158,0.116065 0.0353,0.04374 0.0543,0.0762 0.0706,0.02998 0.061,-0.168978 -0.0251,-0.270933 -0.10725,-0.323495 0,0 0.0857,-0.262821 -0.0716,-0.52705 -0.0261,-0.0441 -0.18203,-0.185915 -0.36266,0.09384 m 0.24342,0.07267 c 0.10477,0.09772 0.0889,0.257882 0.085,0.294569 0,0 -0.13406,-0.06279 -0.19403,-0.08855 -0.06,-0.02574 -0.0917,-0.0635 -0.0639,-0.101954 0.0924,-0.129469 0.13793,-0.125236 0.17286,-0.104069 m -3.56447,-0.163335 c -0.16192,0.20602 -0.17251,0.477308 -0.19402,0.779637 -0.0229,-0.06279 -0.1524,-0.468842 -0.56692,-0.700969 -0.03,-0.01659 -0.0914,0.01516 -0.097,0.110774 -0.004,0.05539 -0.019,0.190851 0.0201,0.229303 0.0391,0.03775 0.15451,0.113242 0.17392,0.123825 0.0198,0.01058 0.0406,0.01199 0.0462,-0.0113 0.006,-0.02294 0.0325,-0.07691 0.0699,-0.0381 0.0317,0.0321 0.23565,0.200728 0.34184,0.5588 0.0187,0.04763 0.0628,0.05186 0.0727,-0.01516 0.0243,-0.165804 0.0374,-0.453319 0.0512,-0.540454 0.018,-0.122415 0.0766,-0.375356 0.23212,-0.244475 0.0349,0.02998 0.0727,0.0695 0.0727,0.0695 0.0332,0.04163 0.0744,0.0889 0.0942,0.04127 0.0307,-0.07267 0.0554,-0.192617 0.0219,-0.257527 -0.0148,-0.02858 -0.20708,-0.271992 -0.33867,-0.105127 m -5.46276,0.04198 c -0.0448,0.06103 -0.12312,0.274108 -0.11218,0.352779 0.24623,1.013884 0.43144,3.735562 0.46496,3.931706 0.0335,0.196146 0.15204,1.077383 0.8964,1.0414 0.19086,-0.0085 0.45226,-0.07973 0.70803,-0.394052 0.049,0.07056 0.21484,0.426156 0.66005,0.24906 0.11677,-0.04657 0.2794,-0.148167 0.40393,-0.313618 0.0215,0.0702 0.14005,0.321026 0.44168,0.270226 0.0663,-0.0113 0.27057,-0.07761 0.37852,-0.394758 0.0557,0.04339 0.22755,0.286808 0.69215,0.207433 0.0713,-0.01198 0.26035,-0.116062 0.29034,-0.512233 0.0102,-0.131937 0.0254,-0.324202 -0.12594,-0.596897 -0.0801,-0.143582 -0.33514,-0.606073 -0.33514,-0.606073 0.0889,0.02752 0.17604,0.05221 0.21343,0.0635 0.0378,0.01093 0.0653,-0.0039 0.0349,-0.04586 -0.0307,-0.04163 -0.4773,-0.516821 -0.49776,-0.537987 -0.0212,-0.02082 -0.0265,0.0081 -0.0307,0.01939 -0.004,0.0113 -0.0554,0.203903 -0.0667,0.248353 -0.0109,0.04445 -0.01,0.08608 0.0138,0.112184 0.024,0.02646 0.0808,0.111125 0.0959,0.145346 0.0152,0.03493 0.25824,0.638527 0.33796,0.762352 0.0797,0.123825 0.19968,0.434975 0.19756,0.462491 -0.002,0.02681 0.004,0.07091 -0.0755,0.09384 -0.0801,0.02363 -0.49388,0.01304 -0.63041,-0.239184 0.0328,-0.157689 -0.0342,-0.143227 -0.067,-0.07302 -0.0328,0.06985 -0.12207,0.338667 -0.20285,0.41275 -0.0808,0.07444 -0.3676,0.23989 -0.51718,-0.121002 0.037,-0.09878 0.055,-0.150989 0.066,-0.178506 0.0106,-0.02752 0.0169,-0.140052 -0.0596,-0.04445 -0.0765,0.0956 -0.26246,0.402167 -0.45825,0.47625 -0.0572,0.02082 -0.39229,0.197204 -0.57256,-0.155575 0.0166,-0.03916 0.0462,-0.16651 0.0543,-0.202846 0.008,-0.03634 0.003,-0.127354 -0.0868,-0.04057 -0.0896,0.08678 -0.36548,0.512234 -0.78563,0.523523 -0.0607,0.0019 -0.47872,0.02328 -0.66534,-0.440973 -0.0991,-0.241652 -0.14111,-0.772935 -0.1517,-0.886529 -0.0102,-0.113241 -0.18662,-2.815518 -0.40252,-3.541183 -0.0529,-0.162631 -0.0614,-0.109008 -0.10618,-0.04727 m 15.30597,0.14464 c -0.0702,0.10654 -0.12207,0.362302 -0.0222,0.434975 0.0998,0.07373 0.24624,0.132998 0.24624,0.132998 -0.46567,0.570793 -1.38042,0.977193 -1.59808,1.146879 -0.0649,0.04868 -0.0561,0.07796 -0.0152,0.06668 0.0363,-0.0095 0.73307,-0.204611 1.37054,-0.750359 0.2921,-0.250118 0.28363,-0.268816 0.35807,-0.421216 0.0635,0.03316 0.10689,0.08573 0.13158,0.116416 0.0353,0.04375 0.0547,0.07585 0.0706,0.02999 0.061,-0.168629 -0.0251,-0.270581 -0.10689,-0.323498 0,0 0.0854,-0.262818 -0.0716,-0.52705 -0.0264,-0.04445 -0.18203,-0.18556 -0.363,0.09419 m 0.24341,0.07232 c 0.10513,0.09772 0.0892,0.257882 0.085,0.294923 0,0 -0.13406,-0.06315 -0.19438,-0.08855 -0.0596,-0.02574 -0.0914,-0.06385 -0.0635,-0.101952 0.0924,-0.129823 0.13794,-0.125589 0.17286,-0.104423 m -1.78858,-0.165452 c -0.18274,0.232834 -0.19473,0.53834 -0.21908,0.879827 -0.0257,-0.07161 -0.1718,-0.528812 -0.63923,-0.790927 -0.0342,-0.01905 -0.10301,0.01728 -0.10936,0.124884 -0.004,0.06244 -0.0219,0.215193 0.0222,0.258233 0.0441,0.04339 0.17463,0.128058 0.1965,0.140052 0.0222,0.01236 0.0455,0.0141 0.0522,-0.0127 0.006,-0.02574 0.0363,-0.08678 0.0787,-0.04339 0.0356,0.03634 0.266,0.22719 0.38559,0.630415 0.0208,0.05398 0.0702,0.05892 0.0822,-0.01693 0.0275,-0.186619 0.0427,-0.511175 0.0575,-0.6096 0.0205,-0.13829 0.0868,-0.423334 0.26176,-0.275167 0.0395,0.03352 0.0818,0.07796 0.0818,0.07796 0.0374,0.04692 0.084,0.100187 0.10654,0.04621 0.0346,-0.08149 0.0624,-0.216958 0.0243,-0.289983 -0.0162,-0.03281 -0.23353,-0.306917 -0.3817,-0.118886 m -6.30132,-0.03563 c -0.0162,0.03669 -0.13723,0.316442 -0.13723,0.316442 0.003,0.01659 0.0363,0.138996 0.0427,0.184504 0.0564,0.403577 0.4071,2.789767 0.50764,3.543652 0.0501,0.371475 0.0882,0.705202 0.0938,0.884767 -0.005,0.05503 0.0208,0.07585 0.0476,0.02294 0.0148,-0.02858 0.0751,-0.146754 0.0938,-0.456142 0.0138,-0.232478 -0.006,-0.589489 -0.0762,-1.081262 -0.0102,-0.07161 -0.37536,-2.563635 -0.37536,-2.563635 0,0 0.21696,0.245179 0.24871,0.276929 0.0317,0.0314 0.0702,0.01482 0.0519,-0.03633 -0.018,-0.05045 -0.44203,-1.041752 -0.45508,-1.073857 -0.013,-0.03175 -0.0257,-0.05503 -0.0423,-0.01799 m -1.0287,2.64e-4 c -0.0169,0.03775 -0.15275,0.313619 -0.15275,0.313619 0.004,0.02257 0.0356,0.09067 0.0579,0.23001 0.0226,0.144288 0.0554,0.351367 0.0914,0.579615 0,0 0.43992,2.788356 0.35525,3.027185 -0.03,0.08396 -0.0794,0.186973 -0.16263,0.303742 0.0367,-0.137584 0.11289,-0.635352 -0.19685,-1.047044 -0.28998,-0.384881 -0.86289,-0.863952 -0.98919,-0.98919 -0.0942,-0.09384 -0.60431,-0.568677 -0.86748,-0.916162 -0.11712,-0.15875 -0.25541,-0.370771 -0.25541,-0.370771 0.0871,0.03492 0.19473,0.06773 0.25259,0.0889 0.0582,0.02117 0.12806,0.0064 0.0434,-0.07444 -0.085,-0.08078 -0.73942,-0.572207 -0.78916,-0.63006 -0.0501,-0.05786 -0.0568,-0.04868 -0.0624,-0.0063 -0.005,0.04304 -0.013,0.26952 -0.013,0.339725 -2.6e-4,0.07055 0.0152,0.09595 0.0469,0.118885 0.0317,0.02294 0.0825,0.05927 0.11642,0.11289 0.0335,0.05362 0.64664,0.927451 1.15852,1.426633 0.0713,0.06949 1.03928,0.805392 1.3843,1.497542 0.0825,0.165803 0.10301,0.322789 0.0967,0.475189 -0.007,0.0374 -0.009,0.06244 -0.007,0.07867 -0.27411,0.32667 -0.81139,0.737304 -1.8729,1.13806 -0.096,0.04092 -0.12735,0.132998 0.073,0.07832 0.20073,-0.05503 1.53776,-0.109009 2.03871,-1.209675 0.0981,-0.215194 0.34043,-0.6096 0.14005,-1.596319 -0.0519,-0.404635 -0.28081,-2.096558 -0.28081,-2.096558 0,0 0.20637,0.17921 0.23953,0.211315 0.0332,0.03281 0.0734,0.01553 0.0543,-0.03669 -0.0191,-0.05221 -0.44132,-0.99554 -0.45473,-1.028348 -0.0138,-0.03281 -0.0275,-0.05644 -0.0445,-0.01871 m 5.52979,0.02434 c -0.0677,0.03916 -1.78788,1.032227 -1.85702,1.077029 -0.0699,0.04516 -0.0945,0.0568 -0.10583,0.110421 -0.0113,0.05362 -0.0166,0.08467 -0.0198,0.09349 -0.0127,0.03598 -0.0215,0.08008 0.0811,0.01341 0.0318,-0.02082 1.76178,-1.020588 1.82245,-1.058333 0.0582,-0.03669 0.0921,-0.05186 0.11536,-0.10795 0.0233,-0.05539 0.0289,-0.06562 0.0416,-0.104424 0.0134,-0.04127 0.0265,-0.08502 -0.078,-0.02363 m -9.20504,0.08008 c -0.0321,0.07902 -0.16686,0.349605 -0.14605,0.668867 0.005,0.07408 0.0536,0.217313 0.1651,0.221191 0.0572,0 0.13124,-0.04163 0.1838,-0.22225 0.01,-0.04057 0.0148,-0.07303 0.019,-0.08925 0.006,-0.02434 -0.0123,-0.05327 -0.031,0.0024 -0.042,0.110421 -0.15134,0.187679 -0.23319,0.03951 -0.013,-0.02963 -0.0681,-0.164042 0.0332,-0.457555 0.0201,-0.0568 0.0462,-0.141817 0.0462,-0.141817 0.0226,-0.0642 -0.005,-0.09948 -0.037,-0.02117 m -1.08267,0.04586 c -0.17392,0.221191 -0.18521,0.512233 -0.20849,0.836787 -0.0243,-0.06773 -0.16369,-0.502709 -0.60854,-0.751769 -0.0321,-0.01834 -0.0977,0.01588 -0.10407,0.118182 -0.004,0.05962 -0.0205,0.205316 0.0215,0.246237 0.042,0.04092 0.16651,0.121356 0.18697,0.132998 0.0212,0.0113 0.043,0.01304 0.0497,-0.01199 0.006,-0.02469 0.0346,-0.08255 0.0748,-0.04127 0.0339,0.03457 0.2533,0.215546 0.36689,0.599721 0.0194,0.05115 0.0667,0.05645 0.078,-0.01622 0.0261,-0.177448 0.0406,-0.486482 0.0547,-0.579967 0.0194,-0.131233 0.0825,-0.402873 0.24906,-0.26176 0.0377,0.0321 0.0783,0.07444 0.0783,0.07444 0.0353,0.04445 0.0794,0.0949 0.10125,0.04374 0.0325,-0.07761 0.0593,-0.206375 0.0229,-0.275871 -0.0159,-0.03069 -0.22225,-0.292454 -0.36301,-0.113242 m -3.80858,0.0448 c -0.17428,0.221192 -0.18557,0.512234 -0.2085,0.837142 -0.0247,-0.06808 -0.16369,-0.50306 -0.60854,-0.752475 -0.0321,-0.01799 -0.0977,0.01622 -0.10371,0.118533 -0.004,0.05962 -0.0212,0.204965 0.0212,0.24624 0.042,0.04127 0.16616,0.121354 0.18697,0.132996 0.0208,0.01164 0.0434,0.01304 0.0494,-0.01236 0.007,-0.02434 0.0349,-0.0822 0.0751,-0.04092 0.0339,0.03422 0.25295,0.2159 0.36689,0.599723 0.0198,0.05115 0.0667,0.05644 0.078,-0.01622 0.0261,-0.177446 0.0402,-0.486479 0.0543,-0.580319 0.0201,-0.130881 0.0829,-0.402519 0.24941,-0.261408 0.0377,0.0321 0.078,0.07444 0.078,0.07444 0.0353,0.04445 0.0797,0.0949 0.1016,0.04375 0.0325,-0.07761 0.0589,-0.206023 0.0229,-0.275873 -0.0159,-0.03069 -0.22225,-0.292452 -0.36301,-0.113242 m 1.14547,0.129117 c -0.0406,0.140052 -0.21484,0.623006 -0.1531,1.177219 0.0145,0.128412 0.10195,0.37465 0.26881,0.371829 0.0861,-0.0056 0.19333,-0.08396 0.25436,-0.402873 0.01,-0.07232 0.0152,-0.129469 0.019,-0.157692 0.006,-0.04304 -0.0236,-0.09207 -0.0459,0.0071 -0.0522,0.195791 -0.20813,0.340077 -0.34536,0.0889 -0.0226,-0.05045 -0.11889,-0.279755 0.004,-0.8001 0.0247,-0.100897 0.055,-0.25118 0.055,-0.25118 0.0275,-0.113945 -0.0166,-0.172508 -0.0571,-0.03316 m 6.88481,1.033285 c -0.0325,0.07902 -0.16686,0.34925 -0.1464,0.668867 0.005,0.07373 0.054,0.217665 0.16475,0.221546 0.0575,-2.65e-4 0.13158,-0.04198 0.1845,-0.22225 0.009,-0.04092 0.0148,-0.07373 0.0183,-0.08961 0.006,-0.02469 -0.0124,-0.05362 -0.0307,0.0024 -0.0423,0.110421 -0.15134,0.187679 -0.23318,0.03951 -0.0131,-0.02963 -0.0681,-0.164042 0.0332,-0.457555 0.0205,-0.05715 0.0462,-0.141817 0.0462,-0.141817 0.0229,-0.06456 -0.005,-0.09948 -0.0367,-0.02117 m -2.42005,-0.220837 c -0.0801,0.04127 -2.34527,1.217787 -2.42782,1.262943 -0.0818,0.04445 -0.10618,0.06385 -0.11888,0.124177 -0.0124,0.06032 -0.0183,0.09278 -0.0222,0.10513 -0.0116,0.04128 -0.0282,0.08361 0.0914,0.01516 0.037,-0.02151 2.32445,-1.199798 2.38866,-1.242131 0.0646,-0.04233 0.10336,-0.05821 0.12982,-0.121354 0.0265,-0.06244 0.0328,-0.07408 0.0469,-0.117475 0.0148,-0.04622 0.0335,-0.08961 -0.0878,-0.02646 m 8.81627,0.24271 c -0.0342,0.08396 -0.17816,0.37465 -0.15663,0.717198 0.006,0.07902 0.0579,0.233185 0.17709,0.237419 0.0617,-2.65e-4 0.14111,-0.0448 0.19791,-0.238832 0.01,-0.04339 0.0155,-0.07867 0.0198,-0.09595 0.006,-0.02611 -0.013,-0.0575 -0.0332,0.0024 -0.0448,0.118885 -0.16228,0.202141 -0.25012,0.04268 -0.0141,-0.0314 -0.0734,-0.175683 0.0353,-0.490712 0.0222,-0.06103 0.0497,-0.1524 0.0497,-0.1524 0.0243,-0.06879 -0.005,-0.10654 -0.0399,-0.02188 m 3.30764,0.173214 c -0.0317,0.07796 -0.1651,0.346779 -0.14499,0.663927 0.005,0.07338 0.0536,0.216252 0.16333,0.219782 0.0572,0 0.13089,-0.04128 0.18345,-0.22084 0.009,-0.04022 0.0148,-0.07303 0.0183,-0.0889 0.006,-0.02434 -0.0124,-0.05327 -0.0307,0.0024 -0.0416,0.109715 -0.14993,0.186622 -0.23142,0.03951 -0.013,-0.02963 -0.0677,-0.162983 0.0328,-0.454731 0.0201,-0.05644 0.0455,-0.140759 0.0455,-0.140759 0.0226,-0.06385 -0.004,-0.09878 -0.0363,-0.02045 m -6.20642,0.0081 -0.16827,0.231071 -0.32315,-0.235656 c -0.008,-0.006 -0.0198,-0.0039 -0.0257,0.0046 l -0.19509,0.267406 c -0.006,0.0085 -0.005,0.02011 0.004,0.02574 l 0.33267,0.243065 c 0.008,0.0056 0.0198,0.0039 0.0257,-0.0046 l 0.16828,-0.231071 0.32314,0.235656 c 0.008,0.0056 0.0198,0.0039 0.0257,-0.0046 l 0.19509,-0.267759 c 0.006,-0.0081 0.005,-0.01976 -0.004,-0.02611 l -0.33267,-0.242358 c -0.008,-0.006 -0.0198,-0.0039 -0.0257,0.0046 m -12.83158,0.289631 c -0.0434,0.149225 -0.23072,0.668161 -0.16404,1.26365 0.0102,0.09031 0.0547,0.235302 0.13476,0.323144 -0.1016,0.219781 -0.60008,1.689806 0.55068,2.03976 0.26212,0.07973 0.95144,0.233188 2.20028,-0.700617 0.11889,-0.0889 0.62935,-0.519287 0.54081,-1.049864 -0.0187,-0.08326 -0.35349,-0.847373 -0.35349,-0.847373 0.078,0.03175 0.12842,0.04622 0.15628,0.05821 0.0275,0.01198 0.0748,-0.01659 0.031,-0.07444 -0.0437,-0.0575 -0.33338,-0.405696 -0.34149,-0.428273 -0.008,-0.02294 -0.0208,-0.04022 -0.0289,-0.07056 -0.008,-0.03069 -0.0282,-0.02506 -0.0402,7.94e-4 -0.0116,0.02574 -0.0847,0.276225 -0.0896,0.299156 -0.004,0.02294 0.0579,0.250471 0.097,0.354187 0.10337,0.295275 0.31962,0.70838 0.35349,0.776113 0.0339,0.06844 0.11924,0.204962 0.0437,0.308327 -0.0759,0.10301 -0.72002,0.6985 -1.76001,0.97155 -0.16369,0.04339 -0.85231,0.194379 -1.22696,-0.322792 -0.0607,-0.0829 -0.33443,-0.489656 -0.066,-1.260475 0.0261,0.0141 0.0554,0.02257 0.0871,0.02222 0.0924,-0.006 0.20708,-0.09031 0.27305,-0.432858 0.0102,-0.07726 0.0162,-0.138994 0.0204,-0.169333 0.007,-0.04622 -0.0257,-0.09878 -0.0497,0.0078 -0.0557,0.210608 -0.22331,0.365125 -0.37042,0.09525 -0.0243,-0.05398 -0.12771,-0.300212 0.004,-0.859012 0.0268,-0.108305 0.0593,-0.269523 0.0593,-0.269523 0.0296,-0.12206 -0.0177,-0.184857 -0.0614,-0.03492 m 7.16456,0.04622 -0.19509,0.267403 c -0.006,0.0085 -0.005,0.02011 0.004,0.02612 l 0.33303,0.24271 c 0.008,0.006 0.0194,0.0039 0.0257,-0.0049 l 0.19473,-0.267054 c 0.006,-0.0085 0.005,-0.02045 -0.003,-0.02611 l -0.33302,-0.242713 c -0.008,-0.006 -0.0194,-0.0039 -0.0258,0.0046 m 6.97019,0.08043 c -0.0127,0.04515 -0.0455,0.239887 -0.0533,0.279752 -0.008,0.03987 -0.007,0.07973 0.0127,0.113948 0.0194,0.03422 0.0702,0.152752 0.10654,0.24906 0.0367,0.09666 0.41451,0.823735 0.44944,0.888294 0.0349,0.06456 0.042,0.11289 0.007,0.155575 -1.21214,1.279525 -3.55247,2.066573 -3.62761,2.109965 -0.0748,0.04339 -0.0547,0.0769 0.0709,0.05539 0.18908,-0.03352 1.24001,-0.209198 1.53952,-0.353484 0.19755,-0.09525 0.88794,-0.433916 1.45238,-0.8763 -0.0155,0.113949 -0.0303,0.281869 -0.0222,0.494949 0.0381,1.029403 0.95814,0.85866 1.1998,0.805391 0.7239,-0.15875 1.60866,-1.159229 1.6838,-1.359958 0.0741,-0.198967 0.085,-0.37959 0.0684,-0.537633 0.1905,-0.103365 0.60008,-0.432859 0.60008,-0.432859 0.0166,0.438502 0.36583,0.57009 0.47343,0.589492 0.50341,0.07584 0.756,-0.344665 0.86289,-0.48119 0.0917,0.240596 0.31256,0.287515 0.4258,0.30974 0.43427,0.08643 0.51894,-0.22084 0.54152,-0.291042 0.13617,-0.423685 -0.10972,-0.739423 -0.14076,-0.773993 -0.0317,-0.03528 -0.048,-0.0013 -0.0589,0.0388 -0.0109,0.04057 -0.0462,0.193674 -0.0681,0.288924 0,0 0.0907,0.147815 0.12312,0.223309 0.0325,0.0755 -0.0159,0.116416 -0.10936,0.128413 -0.26423,0.0321 -0.47484,-0.119592 -0.54751,-0.189442 -0.073,-0.06985 0.006,-0.192971 0.0645,-0.340783 0.0469,-0.118182 -0.0402,-0.132292 -0.10724,-2.65e-4 -0.22366,0.588788 -0.53834,0.652288 -0.62124,0.674865 -0.74613,0.203552 -0.68157,-0.479073 -0.67875,-0.59055 0.002,-0.111832 -0.0794,-0.0702 -0.17109,0.0035 -0.31398,0.251883 -0.56692,0.399698 -0.70309,0.460375 -0.11712,-0.2286 -0.28716,-0.372533 -0.35877,-0.424392 -0.80751,-0.588785 -0.87419,0.599017 -0.84949,0.726371 0.12276,0.505177 0.94756,0.199319 1.07703,0.183444 0.12876,-0.01482 0.0868,0.156279 0.0141,0.257527 -0.17921,0.250118 -0.38523,0.429683 -0.57256,0.582435 -0.79975,0.652288 -1.20085,0.600781 -1.32468,0.5969 -0.78528,-0.02223 -0.71332,-0.868892 -0.66922,-1.049512 0.23601,-0.200025 0.43921,-0.418042 0.55704,-0.64135 0.048,-0.123119 0.13088,-0.401815 -0.0187,-0.751769 -0.0787,-0.154164 -0.32667,-0.585964 -0.32667,-0.585964 0,0 0.18274,0.0053 0.20002,0.0049 0.0177,-2.64e-4 0.0515,-0.01834 0.007,-0.06915 -0.0445,-0.05115 -0.42757,-0.433917 -0.4505,-0.464254 -0.0233,-0.03069 -0.0444,-0.05292 -0.0575,-0.0074 m 2.42217,1.752245 c 0,0 -0.10971,0.0635 -0.41733,0.04233 -0.25788,-0.01728 -0.23531,-0.117475 -0.20038,-0.155575 0.0385,-0.04198 0.35419,-0.240594 0.61771,0.113241 m -15.20648,-1.658408 c -0.0321,0.07867 -0.16651,0.34925 -0.14605,0.668515 0.005,0.07373 0.0536,0.21731 0.16475,0.221192 0.0575,0 0.13158,-0.04163 0.1845,-0.22225 0.009,-0.04057 0.0145,-0.07338 0.0187,-0.08961 0.005,-0.02434 -0.0127,-0.05292 -0.031,0.0028 -0.0423,0.110773 -0.15134,0.187677 -0.23318,0.03951 -0.0134,-0.02963 -0.0684,-0.163687 0.0328,-0.457551 0.0204,-0.05715 0.0462,-0.141817 0.0462,-0.141817 0.0226,-0.06421 -0.005,-0.09948 -0.0367,-0.02082 m 11.89002,0.23354 c -0.0536,0.06632 -0.58949,0.76976 -0.58949,0.76976 l -0.39053,-0.277987 c 0,0 0.15946,-0.03951 0.18733,-0.04763 0.0275,-0.0081 0.0434,-0.04375 -0.007,-0.06985 -0.0497,-0.0254 -0.51999,-0.21308 -0.55597,-0.227542 -0.036,-0.01447 -0.0487,-0.03069 -0.0519,0.0071 -0.003,0.03845 -0.008,0.348191 -0.008,0.348191 0,0 -0.007,0.02117 0.0339,0.04481 0.0409,0.02328 0.0811,0.07338 0.11465,0.106537 0.0339,0.03387 0.47131,0.379238 0.49248,0.39088 0,0 -0.21908,0.384878 -0.24659,0.685445 -0.0279,0.300919 0.005,0.71614 0.41663,0.582083 0.11077,-0.0314 0.5715,-0.214841 0.67451,-0.535868 0.0335,-0.118182 0.12806,-0.331965 -0.0261,-0.548923 -0.0892,-0.127 -0.44908,-0.342546 -0.44908,-0.342546 0,0 0.27658,-0.382058 0.30268,-0.428273 0.0265,-0.04692 0.12771,-0.3429 0.139,-0.414515 0.0116,-0.07161 0.0169,-0.107595 -0.0363,-0.04163 m -0.0945,1.622777 c -0.1524,0.125942 -0.47414,0.291748 -0.56374,0.300567 -0.0903,0.0088 -0.32985,-0.03563 -0.22578,-0.28081 0.0356,-0.07937 0.27481,-0.48895 0.27481,-0.48895 0.0896,0.04939 0.66781,0.343606 0.51471,0.469193 m -11.57111,-0.339018 -0.19509,0.267406 c -0.006,0.0088 -0.005,0.02011 0.004,0.02574 l 0.33302,0.243065 c 0.008,0.006 0.019,0.0035 0.0257,-0.0049 l 0.19509,-0.267758 c 0.006,-0.0081 0.004,-0.01976 -0.004,-0.02574 l -0.33302,-0.242358 c -0.008,-0.0063 -0.0194,-0.0039 -0.0257,0.0046 m 4.39032,-1.123244 c -0.037,0.12065 -0.1965,0.537634 -0.14182,1.016 0.013,0.110067 0.0917,0.322437 0.24307,0.319617 0.078,-0.0049 0.17533,-0.07303 0.23142,-0.348192 0.009,-0.06209 0.0141,-0.111831 0.018,-0.136173 0.006,-0.03739 -0.0215,-0.07937 -0.042,0.0064 -0.0476,0.169334 -0.18944,0.293865 -0.31327,0.07726 -0.0205,-0.04304 -0.10724,-0.240949 0.006,-0.690034 0.0229,-0.08713 0.0505,-0.216252 0.0505,-0.216252 0.0254,-0.09842 -0.0145,-0.149225 -0.0515,-0.02858 m -1.13665,0.697794 c -0.0321,0.07867 -0.16686,0.349956 -0.14605,0.668867 0.005,0.07373 0.0536,0.217664 0.1651,0.221191 0.0572,0 0.13159,-0.04163 0.1838,-0.22225 0.01,-0.04092 0.0152,-0.07338 0.019,-0.08961 0.006,-0.02434 -0.0124,-0.05327 -0.031,0.0024 -0.042,0.110419 -0.15134,0.188029 -0.23283,0.03951 -0.0134,-0.02928 -0.0684,-0.163689 0.0328,-0.4572 0.0201,-0.05715 0.0462,-0.142168 0.0462,-0.142168 0.0226,-0.06421 -0.005,-0.09913 -0.037,-0.02082 m 4.06612,0.302683 c -0.0318,0.07867 -0.16616,0.349602 -0.14605,0.668515 0.005,0.07373 0.054,0.21731 0.16474,0.221189 0.0575,0 0.13194,-0.04163 0.18486,-0.222247 0.009,-0.04092 0.0148,-0.07338 0.0183,-0.08961 0.006,-0.02434 -0.0124,-0.05327 -0.031,0.0024 -0.042,0.110773 -0.15099,0.188031 -0.23283,0.04022 -0.0134,-0.02963 -0.0684,-0.164041 0.0328,-0.457552 0.0205,-0.05715 0.0462,-0.142168 0.0462,-0.142168 0.0226,-0.06421 -0.005,-0.09948 -0.037,-0.02082 m 10.48209,1.02376 c -0.0314,0.08608 -0.043,0.142875 -0.0402,0.175684 0.004,0.03316 0.0148,0.1397 0.0148,0.1397 -0.0321,0.02574 -0.16863,0.110773 -0.30551,0.01024 0.009,-0.02928 0.0268,-0.08855 0.031,-0.121708 0.0148,-0.0501 -0.0162,-0.08784 -0.0413,-0.03528 -0.0251,0.05221 -0.0829,0.227896 -0.12594,0.267055 -0.0434,0.03951 -0.0938,0.184853 -0.41981,0.03739 -0.0568,-0.02222 -0.15698,-0.09631 -0.31256,0.06068 -0.35242,0.327732 -0.59619,0.353483 -0.99166,0.49389 -0.0473,0.02222 -0.14816,0.09737 -0.0289,0.08502 0.11924,-0.01164 0.62054,2.65e-4 0.89324,-0.31256 0.0572,-0.05538 0.12206,-0.20179 0.33902,-0.116416 0.11959,0.04551 0.34149,0.235301 0.58349,-0.140407 0.14217,0.0949 0.35843,0.0568 0.39335,-0.04798 0.0346,-0.104068 0.0741,-0.208491 0.0737,-0.279752 -2.7e-4,-0.07126 -0.006,-0.164748 -0.006,-0.164748 -0.005,-0.05644 -0.0251,-0.136525 -0.0564,-0.0508 m -15.82985,0.657932 c -0.0699,0.03528 -1.31021,0.524933 -1.38253,0.565502 -0.0723,0.04022 -0.0977,0.05009 -0.11219,0.10301 -0.0145,0.05292 -0.0222,0.08396 -0.0257,0.09243 -0.0148,0.03457 -0.0265,0.07867 0.0801,0.01799 0.0335,-0.01871 1.28693,-0.51435 1.34655,-0.548571 0.0596,-0.03422 0.0945,-0.04586 0.12171,-0.100187 0.0268,-0.05433 0.0332,-0.0635 0.0483,-0.1016 0.0159,-0.04022 0.0321,-0.08326 -0.0762,-0.02858 m 6.5278,0.09102 c -0.11888,0.09313 -0.3944,0.360186 -0.27058,0.485421 0.072,0.05821 0.10407,0.08678 0.10407,0.08678 -0.0335,0.0127 -0.0621,0.04481 -0.0825,0.08573 -0.0204,0.04092 -0.0229,0.0501 -0.0339,0.07303 -0.0102,0.02363 -0.0159,0.05503 0.0409,0.02222 0.0572,-0.03245 0.19226,-0.160867 0.55703,-0.240945 0.0504,-0.01058 0.0949,-0.09384 0.0949,-0.09384 0.0215,-0.03528 0.0639,-0.116417 -0.007,-0.07655 -0.0709,0.04022 -0.26141,0.09701 -0.34607,0.08078 -0.0847,-0.01587 -0.18521,-0.08925 -0.20708,-0.123825 -0.0219,-0.03528 -0.0187,-0.07443 0.0483,-0.113241 0.067,-0.03881 0.1404,-0.06491 0.19155,0.02045 0.01,0.01447 0.0212,0.0141 0.0427,-0.0078 0.0219,-0.02188 0.0653,-0.08255 0.0769,-0.10019 0.0113,-0.01693 0.0208,-0.04586 0.003,-0.06703 -0.0183,-0.02117 -0.0921,-0.123473 -0.21167,-0.03104 m -4.00367,0.395111 c -0.0208,0.03351 -0.036,0.06103 -0.0445,0.07444 -0.013,0.02011 -0.006,0.05151 0.0286,0.0074 0.072,-0.08573 0.19332,-0.121002 0.22049,0.03669 0.002,0.03069 0.0102,0.167923 -0.17181,0.399343 -0.036,0.04445 -0.0854,0.112184 -0.0854,0.112184 -0.0402,0.05045 -0.0268,0.09031 0.0261,0.02999 0.0536,-0.06032 0.25788,-0.26035 0.33866,-0.552098 0.019,-0.06738 0.0201,-0.211315 -0.078,-0.249061 -0.0519,-0.01799 -0.13088,-0.0042 -0.23425,0.141111 m 4.41996,0.244475 c -0.0607,0.03034 -0.70979,0.264231 -0.77294,0.299156 -0.0628,0.03528 -0.085,0.04374 -0.0977,0.09031 -0.0127,0.04586 -0.0194,0.07232 -0.0222,0.07973 -0.013,0.03069 -0.0233,0.06879 0.0699,0.01659 0.0289,-0.01659 0.68933,-0.256117 0.74119,-0.285399 0.0522,-0.02998 0.0829,-0.03986 0.10619,-0.08749 0.0236,-0.04692 0.0289,-0.05503 0.042,-0.08855 0.0138,-0.03492 0.0275,-0.07197 -0.0663,-0.02434"
       style="fill:#231f20;fill-opacity:1;fill-rule:evenodd;stroke:none;stroke-width:0.264583"
       id="path1" />
  </g>
</svg>
