<?xml version="1.0" encoding="UTF-8" standalone="no"?>
<!-- Created with Inkscape (http://www.inkscape.org/) -->

<svg
   width="20.998718mm"
   height="6.5196767mm"
   viewBox="0 0 20.998718 6.5196767"
   version="1.1"
   id="svg1"
   xmlns="http://www.w3.org/2000/svg"
   xmlns:svg="http://www.w3.org/2000/svg">
  <defs
     id="defs1" />
  <g
     id="layer1"
     transform="translate(-170.24054,-28.146341)">
    <path
       d="m 175.71367,28.171951 c -0.0773,0.03528 -1.55575,0.744715 -1.63477,0.782815 -0.0748,0.03598 -0.0942,0.05644 -0.10584,0.110066 -0.0109,0.05398 -0.0166,0.08502 -0.0194,0.09384 -0.0127,0.03563 -0.0215,0.06703 0.0811,0.01304 0.0339,-0.01799 1.53705,-0.730602 1.59949,-0.764117 0.0607,-0.0321 0.0921,-0.05151 0.11536,-0.107598 0.0233,-0.05574 0.0293,-0.06562 0.042,-0.10442 0.0134,-0.04128 0.0321,-0.07408 -0.078,-0.02363 m 7.78263,0.534812 c -0.0702,0.106538 -0.12206,0.362654 -0.0219,0.435679 0.0998,0.07338 0.24589,0.132646 0.24589,0.132646 -0.46567,0.570794 -0.78423,0.679448 -1.05692,0.839256 -0.0699,0.04128 -0.0561,0.07832 -0.0148,0.06703 0.0212,-0.0056 0.3877,-0.0628 0.81597,-0.387705 0.23108,-0.175683 0.37113,-0.476247 0.37113,-0.476247 0,0 0.11606,0.09666 0.13194,0.116062 0.0349,0.04339 0.0543,0.0762 0.0709,0.02998 0.0607,-0.168979 -0.0258,-0.270579 -0.1076,-0.323495 0,0 0.0854,-0.263173 -0.0716,-0.52705 -0.0261,-0.04445 -0.18203,-0.185915 -0.36301,0.09384 m 0.24378,0.07267 c 0.10512,0.09772 0.0889,0.257881 0.0847,0.294571 0,0 -0.13405,-0.06315 -0.19403,-0.08855 -0.06,-0.02574 -0.0914,-0.0635 -0.0635,-0.1016 0.0921,-0.130175 0.13759,-0.12559 0.17287,-0.104423 m 6.27873,0.02294 c -0.0702,0.10654 -0.12241,0.362302 -0.0222,0.435682 0.0998,0.07338 0.24624,0.132291 0.24624,0.132291 -0.46602,0.571146 -1.38042,0.977546 -1.59809,1.146879 -0.0649,0.04903 -0.0561,0.07796 -0.0152,0.06668 0.0363,-0.0092 0.73307,-0.204258 1.37019,-0.750006 0.2921,-0.250471 0.28434,-0.269169 0.35842,-0.420862 0.0635,0.03245 0.1069,0.08537 0.13194,0.116062 0.0346,0.04375 0.054,0.07585 0.0706,0.02999 0.061,-0.168982 -0.0251,-0.270934 -0.1076,-0.323499 0,0 0.0854,-0.262818 -0.0716,-0.52705 -0.0261,-0.04445 -0.18204,-0.18556 -0.36266,0.09384 m 0.24342,0.07267 c 0.10513,0.09772 0.0893,0.258234 0.0847,0.294921 0,0 -0.1337,-0.06315 -0.19367,-0.0889 -0.06,-0.02574 -0.0914,-0.0635 -0.0639,-0.1016 0.0924,-0.129821 0.13793,-0.125235 0.17286,-0.104421 M 188.474,28.709595 c -0.18345,0.232833 -0.19509,0.538691 -0.21908,0.880181 -0.0261,-0.07197 -0.1725,-0.529166 -0.63994,-0.791281 -0.0335,-0.01905 -0.10265,0.01693 -0.109,0.124531 -0.004,0.06315 -0.0222,0.215548 0.0222,0.258585 0.0441,0.04339 0.17463,0.128059 0.1965,0.140055 0.0222,0.01199 0.0459,0.01376 0.0522,-0.0127 0.007,-0.02574 0.0363,-0.08678 0.0787,-0.04304 0.0356,0.03598 0.26599,0.226484 0.38594,0.630767 0.0204,0.05327 0.0702,0.05821 0.0815,-0.01799 0.0275,-0.186266 0.0427,-0.510823 0.0575,-0.609248 0.0212,-0.138287 0.0868,-0.423333 0.26176,-0.275167 0.0402,0.03387 0.0822,0.07797 0.0822,0.07797 0.0374,0.04692 0.084,0.10019 0.10654,0.04622 0.0346,-0.08149 0.0621,-0.216958 0.0243,-0.289983 -0.0166,-0.03246 -0.23354,-0.306917 -0.38135,-0.118888 m -1.80058,-0.01093 c -0.0674,0.03951 -1.78753,1.031875 -1.85702,1.077384 -0.0702,0.04445 -0.0945,0.05644 -0.10583,0.110066 -0.0109,0.05362 -0.0166,0.08467 -0.0198,0.09349 -0.0127,0.03598 -0.0215,0.08008 0.0811,0.01341 0.0317,-0.02082 1.76177,-1.020585 1.82245,-1.058685 0.0582,-0.03634 0.0917,-0.05151 0.11536,-0.107598 0.0229,-0.05574 0.0293,-0.06562 0.0416,-0.104423 0.013,-0.04128 0.0264,-0.08537 -0.078,-0.02363 m -14.80467,0.109361 c -0.18062,0.232481 -0.19191,0.538339 -0.21555,0.879475 -0.0257,-0.07126 -0.16968,-0.528813 -0.63041,-0.790575 -0.0335,-0.01905 -0.1016,0.01693 -0.1076,0.124531 -0.004,0.06244 -0.0215,0.215194 0.0219,0.258233 0.0437,0.04339 0.17216,0.128059 0.19368,0.140052 0.0219,0.01236 0.0452,0.01376 0.0515,-0.0127 0.006,-0.02574 0.0356,-0.08678 0.0776,-0.04304 0.03,0.03104 0.27622,0.247296 0.35171,0.543629 0.0625,0.257175 -0.57079,0.776817 -0.6036,0.800452 -0.0593,0.04233 -0.0402,0.0702 -0.013,0.05503 0.0279,-0.01482 0.0554,-0.01905 0.37994,-0.233185 0.26176,-0.17286 0.31644,-0.372885 0.33902,-0.526698 0.003,-0.0071 0.005,-0.01553 0.007,-0.02611 0.0272,-0.186621 0.042,-0.511175 0.0561,-0.6096 0.0208,-0.138289 0.0857,-0.422981 0.25858,-0.275166 0.0392,0.03387 0.0804,0.07832 0.0804,0.07832 0.0367,0.04657 0.0829,0.10019 0.10512,0.04586 0.0339,-0.08149 0.061,-0.216959 0.024,-0.289984 -0.0162,-0.0321 -0.23001,-0.306916 -0.37606,-0.118533 m 5.39927,0.01164 c -0.14711,0.221898 -0.13547,0.496713 -0.13229,0.803627 -0.0286,-0.06209 -0.19262,-0.461079 -0.63007,-0.661811 -0.0321,-0.01447 -0.091,0.02257 -0.0889,0.119592 0.001,0.0568 -0.004,0.19403 0.0385,0.230013 0.043,0.03528 0.1658,0.101952 0.18662,0.11077 0.0204,0.0095 0.0416,0.0092 0.0459,-0.01482 0.004,-0.024 0.0261,-0.08043 0.067,-0.04445 0.0349,0.02963 0.2547,0.183798 0.39087,0.536575 0.0226,0.04657 0.0674,0.04763 0.0723,-0.02151 0.0113,-0.169333 0.001,-0.460729 0.007,-0.549981 0.009,-0.125236 0.0473,-0.385234 0.21484,-0.265288 0.0381,0.02752 0.079,0.0642 0.079,0.0642 0.037,0.03881 0.0825,0.08326 0.0988,0.03316 0.025,-0.0755 0.0402,-0.198615 7.9e-4,-0.261056 -0.0169,-0.02787 -0.23142,-0.258234 -0.35031,-0.07902 m -2.07927,0.06632 c -0.0275,0.09454 -0.0759,0.197556 -0.0257,0.481189 0.0508,0.283279 0.31326,1.669696 0.33831,1.831269 0.0254,0.161925 0.12841,0.806802 0.11959,0.942975 -0.003,0.05362 -0.004,0.181679 -0.0501,0.352777 -0.0257,-0.246944 -0.1136,-0.629002 -0.32139,-0.890058 -0.24376,-0.306917 -0.66463,-0.680509 -0.79375,-0.777524 -0.40357,-0.302328 -1.12077,-1.089376 -1.12077,-1.089376 0.0787,0.02822 0.13794,0.02611 0.19085,0.04339 0.0526,0.01659 0.1143,0 0.0349,-0.07126 -0.0787,-0.07091 -0.64488,-0.4699 -0.69145,-0.5207 -0.0466,-0.05151 -0.0529,-0.04304 -0.0557,-0.0032 -0.003,0.03986 0,0.250471 0.003,0.315735 0.003,0.06527 0.0176,0.08819 0.0469,0.10795 0.0293,0.02011 0.0765,0.05151 0.1083,0.09948 0.0325,0.04833 0.65299,0.813506 1.14758,1.231548 0.0642,0.0642 0.84455,0.617712 1.27741,1.344083 0.0695,0.129117 0.0995,0.273402 0.10689,0.40146 -0.10265,0.239535 -0.2988,0.527402 -0.67697,0.809977 -0.1009,0.0755 -1.01389,0.644173 -1.0668,0.680508 -0.0536,0.03634 -0.0251,0.05327 0.0339,0.0448 0.0586,-0.0085 1.10561,-0.254706 1.47003,-0.73378 0.45367,-0.509762 0.45085,-1.015645 0.45085,-1.015645 0.0251,0.06773 0.23142,1.010708 0.93697,1.018469 0.0949,-0.0039 0.42722,-0.0056 0.74754,-0.438502 0.0681,0.168978 0.15946,0.25541 0.25188,0.295627 -0.005,0.0095 -0.01,0.02117 -0.0123,0.03633 -0.0141,0.07832 -0.21026,1.030816 0.47025,1.254831 0.0924,0.02787 0.62195,0.136877 1.41428,-0.408868 0.12877,-0.08114 0.58244,-0.470607 0.63289,-0.649817 0.0505,-0.179213 0.0765,-0.43533 0.0801,-0.649465 0.1845,0.02963 0.50518,0.01659 0.9084,-0.173918 0.0289,-0.01447 0.0684,-0.04198 0.11642,-0.07303 0.0741,0.14111 0.16757,0.277987 0.28151,0.376766 0.0487,0.03598 0.49777,0.307269 0.66429,-0.159808 0.0198,-0.06844 0.10971,-0.495655 -0.14888,-0.676981 -0.072,-0.04304 -0.2854,-0.155927 -0.66075,0.0035 -0.004,0.0021 -0.0109,0.0056 -0.018,0.0092 -0.0526,-0.104424 -0.10231,-0.226484 -0.13335,-0.364774 -0.0759,-0.296333 -0.42581,-2.158999 -0.42581,-2.158999 0,0 0.19721,0.185208 0.22896,0.218723 0.0318,0.03387 0.0702,0.01588 0.0519,-0.03845 -0.018,-0.05327 -0.42792,-0.999067 -0.44133,-1.032934 -0.013,-0.03351 -0.0257,-0.05856 -0.0423,-0.01939 -0.0162,0.0388 -0.14605,0.324554 -0.14605,0.324554 0.004,0.02328 0.0342,0.09384 0.0557,0.237773 0.018,0.124884 0.4699,2.562225 0.51788,2.728736 0.0148,0.05045 0.0395,0.132291 0.0744,0.2286 -0.0921,0.04304 -0.18344,0.08467 -0.23566,0.106185 -0.12029,0.04833 -0.55386,0.160515 -0.81385,-0.01588 0,0 -0.13829,-0.238125 -0.15522,-0.269169 -0.0169,-0.03069 -0.0356,-0.06456 -0.054,-0.02998 -0.018,0.03492 -0.0607,0.221544 -0.0702,0.268462 -0.0106,0.04692 0.006,0.05786 0.0159,0.0755 0.009,0.01799 0.22261,0.440619 0.26882,0.688621 0.007,0.06421 0.0254,0.141113 -0.0335,0.200025 -0.0589,0.05856 -0.66958,0.694621 -1.29399,0.840316 -0.1203,0.03634 -0.95497,0.229659 -1.0026,-0.462491 -0.0194,-0.131234 -0.008,-0.282575 -0.006,-0.338667 0.001,-0.01905 0,-0.03634 -0.004,-0.05044 0.12418,0.02151 0.2346,-0.02257 0.26917,-0.03669 0.0677,-0.02681 0.23001,-0.08502 0.38065,-0.415573 0.0504,0.06209 0.27622,0.255413 0.57185,0.156633 0.0561,-0.02117 0.32456,-0.179562 0.27834,-0.691443 -0.004,-0.07373 -0.11218,-0.305507 -0.14887,-0.359834 -0.0367,-0.05362 -0.048,-0.04233 -0.0656,-0.0019 -0.0173,0.04057 -0.0367,0.111832 -0.0483,0.158398 -0.0116,0.04657 0,0.09666 0.0134,0.135467 0.0138,0.03845 0.0716,0.175683 0.0889,0.229658 0.0176,0.05433 0.0254,0.12559 -0.0519,0.149225 -0.0776,0.02294 -0.45791,0.09454 -0.52952,-0.216606 0.007,-0.05221 0.0328,-0.116062 0.0501,-0.176035 0.0177,-0.05997 -0.0134,-0.110067 -0.0561,-0.03669 -0.0423,0.07338 -0.18944,0.502708 -0.31679,0.605015 -0.085,0.05221 -0.54081,0.295626 -0.62019,-0.173919 0.0155,-0.06209 0.0272,-0.115713 0.0423,-0.172156 0.0155,-0.05574 -0.004,-0.164394 -0.0692,-0.07902 -0.066,0.08467 -0.17815,0.315032 -0.26105,0.401815 -0.0833,0.08678 -0.49848,0.408165 -0.94756,0.112184 -0.078,-0.05045 -0.3362,-0.312915 -0.39476,-0.730957 -0.0275,-0.130527 -0.17216,-0.991658 -0.17216,-0.991658 0,0 -0.25435,-1.841852 -0.47907,-2.404531 -0.0275,-0.06527 -0.0526,-0.04233 -0.0797,0.05221 m 6.66433,3.682646 c 0.0755,0.0254 0.29386,0.182388 0.12029,0.210256 -0.17356,0.02787 -0.31079,-0.115006 -0.35277,-0.173918 -0.008,-0.01164 -0.0247,-0.0321 -0.0462,-0.05997 0.0854,-0.01622 0.17957,-0.01341 0.2787,0.02363 m -2.01401,-3.556352 c -0.0931,0.04833 -3.36303,1.83374 -3.45828,1.88595 -0.0949,0.05186 -0.12312,0.07373 -0.13758,0.143581 -0.0145,0.0702 -0.0219,0.107244 -0.0257,0.121709 -0.0138,0.04798 -0.0332,0.09701 0.10548,0.01765 0.043,-0.02468 3.33834,-1.811864 3.41277,-1.861253 0.0748,-0.04939 0.11995,-0.06738 0.15064,-0.140759 0.0303,-0.07232 0.0377,-0.08502 0.0543,-0.135818 0.0173,-0.05397 0.0388,-0.103717 -0.1016,-0.03105 m 0.0504,0.759531 c -0.067,0.09595 -0.121,0.328787 -0.0314,0.397933 0.09,0.06985 0.22225,0.127704 0.22225,0.127704 -0.44098,0.510823 -1.04846,0.985308 -1.30211,1.124305 -0.0649,0.03598 -0.0533,0.0702 -0.0155,0.06103 0.0198,-0.0042 0.35243,-0.116416 0.75565,-0.398637 0.33937,-0.237421 0.6664,-0.744714 0.6664,-0.744714 0,0 0.10371,0.09102 0.11747,0.109714 0.031,0.04022 0.048,0.07055 0.0639,0.02893 0.06,-0.153106 -0.0159,-0.248356 -0.09,-0.298802 0,0 0.085,-0.238479 -0.0522,-0.484364 -0.0226,-0.04092 -0.16157,-0.174274 -0.33444,0.07691 m 0.22119,0.07267 c 0.0931,0.09172 0.0748,0.238125 0.0702,0.271992 0,0 -0.12136,-0.06103 -0.17533,-0.08608 -0.054,-0.02506 -0.0819,-0.06033 -0.0557,-0.0949 0.0878,-0.116417 0.12911,-0.111125 0.16086,-0.09102 m -2.23202,0.87983 c -0.0385,0.09984 -0.20214,0.445558 -0.15169,0.839258 0.0116,0.09102 0.0882,0.265287 0.23953,0.261409 0.078,-0.0046 0.17604,-0.06174 0.23495,-0.28928 0.01,-0.0515 0.0152,-0.09243 0.019,-0.112535 0.006,-0.03069 -0.0205,-0.06491 -0.042,0.0056 -0.0494,0.140055 -0.19261,0.244124 -0.31362,0.06668 -0.0201,-0.03528 -0.10477,-0.197553 0.0124,-0.569028 0.0236,-0.07197 0.0529,-0.179213 0.0529,-0.179213 0.0261,-0.08114 -0.013,-0.122767 -0.0515,-0.02294 m 1.74131,0.582436 c -0.0998,0.109008 -0.13053,0.183443 -0.16051,0.230364 -0.0409,0.0642 0.0106,0.09278 0.0572,0.04304 0.0466,-0.05009 0.0787,-0.100188 0.21449,-0.09666 0.13511,0.0035 0.46002,-0.0088 0.33902,0.08043 -0.12136,0.08925 -0.20391,0.140758 -0.20391,0.140758 -0.0783,0.0568 -0.14817,0.162631 -0.009,0.103717 0.1397,-0.05891 0.32314,-0.151694 0.4639,-0.364067 0.0416,-0.06174 0.0893,-0.14464 -0.1016,-0.17286 -0.19085,-0.02893 -0.49988,-0.07373 -0.59972,0.03528 m 2.49238,-2.466621 c -0.0162,0.0388 -0.13724,0.335844 -0.13724,0.335844 0.002,0.01765 0.036,0.147108 0.0423,0.195791 0.0561,0.428271 0.4071,2.959804 0.508,3.759904 0.049,0.394055 0.0878,0.748596 0.0935,0.938742 -0.005,0.05891 0.0208,0.08079 0.048,0.02434 0.0145,-0.03034 0.0748,-0.155575 0.0935,-0.484011 0.0138,-0.246591 -0.006,-0.625827 -0.0765,-1.147233 -0.0104,-0.07578 -0.37551,-2.720205 -0.37551,-2.720205 0,0 0.1972,0.185208 0.22895,0.21872 0.0317,0.03352 0.0702,0.01588 0.0519,-0.03845 -0.018,-0.05362 -0.42192,-1.030111 -0.43498,-1.063977 -0.0127,-0.03387 -0.0257,-0.05856 -0.042,-0.01939 m -9.81322,1.214964 c -0.036,0.09384 -0.18979,0.4191 -0.14252,0.789516 0.0109,0.08573 0.0829,0.249415 0.22543,0.245888 0.0734,-0.0046 0.1651,-0.05821 0.22084,-0.272346 0.009,-0.04833 0.0141,-0.08713 0.0176,-0.105833 0.006,-0.02858 -0.019,-0.06138 -0.0395,0.0053 -0.0462,0.13194 -0.18062,0.229659 -0.29492,0.06315 -0.019,-0.03351 -0.0984,-0.185914 0.012,-0.535516 0.0219,-0.06773 0.0494,-0.168627 0.0494,-0.168627 0.0251,-0.07655 -0.0124,-0.115358 -0.0483,-0.02151 m 14.70484,-0.0013 c -0.0346,0.08396 -0.17886,0.37465 -0.15699,0.716844 0.005,0.07937 0.0579,0.23354 0.17674,0.237773 0.0617,-2.65e-4 0.14147,-0.0448 0.19791,-0.238831 0.01,-0.04374 0.0162,-0.07867 0.0201,-0.09595 0.006,-0.02611 -0.013,-0.05715 -0.0332,0.0024 -0.0452,0.118885 -0.16228,0.20179 -0.24977,0.04268 -0.0145,-0.03175 -0.0737,-0.175683 0.0353,-0.490712 0.0215,-0.06103 0.049,-0.1524 0.049,-0.1524 0.0243,-0.06915 -0.005,-0.10654 -0.0392,-0.02188 m -16.53717,0.202848 c -0.0406,0.140052 -0.21801,0.624769 -0.15557,1.1811 0.0145,0.128762 0.10336,0.375709 0.27235,0.372534 0.0871,-0.0049 0.19579,-0.08432 0.25787,-0.404284 0.01,-0.07232 0.0152,-0.129823 0.0194,-0.158046 0.006,-0.04304 -0.024,-0.09208 -0.0469,0.0071 -0.0529,0.19685 -0.21061,0.34149 -0.3496,0.08925 -0.0229,-0.05009 -0.11995,-0.280458 0.005,-0.802568 0.0254,-0.101248 0.0557,-0.252236 0.0557,-0.252236 0.0286,-0.113948 -0.0162,-0.172862 -0.0579,-0.03281 m 19.84445,-0.02963 c -0.0317,0.07761 -0.16545,0.346779 -0.14499,0.663575 0.005,0.07373 0.0533,0.216252 0.16369,0.220133 0.0572,0 0.13088,-0.04163 0.18309,-0.22084 0.009,-0.04057 0.0148,-0.07303 0.0183,-0.0889 0.006,-0.02434 -0.012,-0.05327 -0.0307,0.0024 -0.0416,0.110066 -0.15028,0.186621 -0.23142,0.03916 -0.013,-0.02928 -0.0681,-0.162629 0.0325,-0.454377 0.0204,-0.05644 0.0459,-0.140758 0.0459,-0.140758 0.0229,-0.06385 -0.004,-0.09878 -0.0363,-0.02045 m -6.20677,0.0081 -0.16792,0.230717 -0.3235,-0.235302 c -0.008,-0.006 -0.0194,-0.0039 -0.0254,0.0046 l -0.19509,0.267407 c -0.006,0.0085 -0.005,0.02045 0.003,0.02611 l 0.33302,0.24271 c 0.008,0.0056 0.0194,0.0035 0.0257,-0.0046 l 0.16828,-0.231071 0.32279,0.235656 c 0.008,0.0056 0.0198,0.0035 0.0261,-0.0046 l 0.19474,-0.267758 c 0.006,-0.0085 0.005,-0.02011 -0.003,-0.02612 l -0.33338,-0.242358 c -0.008,-0.006 -0.019,-0.0039 -0.0257,0.0046 m 1.30316,0.415925 c -0.0127,0.04551 -0.0452,0.23989 -0.0529,0.279755 -0.008,0.04022 -0.007,0.07973 0.0124,0.1143 0.0198,0.03422 0.0702,0.152752 0.10689,0.24906 0.0363,0.09631 0.41451,0.82409 0.44908,0.888293 0.0353,0.06491 0.0423,0.11289 0.007,0.155575 -1.21285,1.279525 -3.55282,2.066222 -3.62761,2.109965 -0.0748,0.04339 -0.055,0.07726 0.0709,0.05503 0.18838,-0.03316 1.23931,-0.208492 1.53917,-0.353132 0.19791,-0.09525 0.88794,-0.434268 1.45238,-0.876652 -0.0159,0.1143 -0.0303,0.282223 -0.0222,0.495652 0.0381,1.0287 0.9585,0.857957 1.1998,0.80504 0.72354,-0.15875 1.60866,-1.158875 1.6838,-1.359958 0.0744,-0.198261 0.085,-0.37959 0.0684,-0.537634 0.1905,-0.103365 0.59972,-0.43321 0.59972,-0.43321 0.0169,0.438854 0.36619,0.570794 0.47343,0.589492 0.50377,0.0762 0.75636,-0.344313 0.8629,-0.480484 0.0917,0.240242 0.31256,0.286809 0.4258,0.309737 0.43462,0.08608 0.51894,-0.221191 0.54151,-0.291393 0.13653,-0.423333 -0.109,-0.739423 -0.1404,-0.773994 -0.0317,-0.03563 -0.048,-0.0019 -0.0589,0.0388 -0.0109,0.04057 -0.0462,0.193323 -0.0677,0.288925 0,0 0.0903,0.148167 0.12277,0.223663 0.0324,0.07514 -0.0159,0.116417 -0.10901,0.127704 -0.26458,0.03246 -0.47555,-0.119237 -0.54822,-0.189087 -0.0727,-0.06985 0.006,-0.193323 0.0649,-0.341138 0.0466,-0.117827 -0.0402,-0.131937 -0.10689,-2.65e-4 -0.22401,0.58914 -0.53869,0.65264 -0.62159,0.675217 -0.74613,0.2032 -0.68157,-0.478719 -0.6791,-0.59055 0.002,-0.111832 -0.079,-0.07056 -0.1711,0.0032 -0.31397,0.252235 -0.56656,0.40005 -0.70273,0.461081 -0.11712,-0.229306 -0.28751,-0.373239 -0.35913,-0.424746 -0.80715,-0.588785 -0.87383,0.599017 -0.84949,0.726723 0.12312,0.504825 0.94792,0.198967 1.07739,0.183798 0.12911,-0.01553 0.0868,0.155221 0.0145,0.256821 -0.17921,0.250121 -0.38559,0.429683 -0.57291,0.582083 -0.79975,0.65264 -1.20121,0.601488 -1.32468,0.597255 -0.78529,-0.02222 -0.71332,-0.868892 -0.66958,-1.049515 0.23601,-0.200025 0.43921,-0.418042 0.55704,-0.641702 0.0483,-0.122767 0.13124,-0.401463 -0.0183,-0.751771 -0.0787,-0.15381 -0.32632,-0.585962 -0.32632,-0.585962 0,0 0.18238,0.006 0.19967,0.0056 0.0173,-7.93e-4 0.0519,-0.01871 0.007,-0.06985 -0.0444,-0.0508 -0.42757,-0.43321 -0.45085,-0.464256 -0.0229,-0.03069 -0.0441,-0.05292 -0.0575,-0.0074 m 2.42288,1.752599 c 0,0 -0.11042,0.06315 -0.41769,0.04269 -0.25752,-0.01765 -0.23565,-0.117829 -0.20002,-0.156281 0.0381,-0.04127 0.35383,-0.23989 0.61771,0.113593 m -3.31717,-1.424868 c -0.0529,0.06632 -0.58949,0.770115 -0.58949,0.770115 l -0.38982,-0.278342 c 0,0 0.1591,-0.03951 0.18662,-0.04798 0.0275,-0.0081 0.0437,-0.04374 -0.006,-0.06914 -0.0501,-0.02611 -0.52034,-0.213431 -0.55598,-0.227894 -0.036,-0.01447 -0.0487,-0.03069 -0.0519,0.0071 -0.003,0.03845 -0.008,0.34784 -0.008,0.34784 0,0 -0.007,0.02151 0.0335,0.0448 0.0409,0.02363 0.0815,0.07338 0.11501,0.106892 0.0339,0.03387 0.47096,0.378883 0.49248,0.391232 0,0 -0.21873,0.384175 -0.24659,0.685093 -0.0275,0.300921 0.005,0.716492 0.41627,0.582438 0.11113,-0.03175 0.57185,-0.214842 0.67451,-0.536223 0.0339,-0.118533 0.12842,-0.331965 -0.0257,-0.548569 -0.0892,-0.127706 -0.44873,-0.3429 -0.44873,-0.3429 0,0 0.27587,-0.382058 0.30233,-0.428625 0.0265,-0.04692 0.12806,-0.3429 0.13899,-0.414514 0.0113,-0.07162 0.0169,-0.107244 -0.0367,-0.04127 m -0.0938,1.623131 c -0.1531,0.125942 -0.47413,0.291745 -0.56444,0.300212 -0.0903,0.0088 -0.32985,-0.03493 -0.22543,-0.280458 0.0356,-0.07973 0.27517,-0.48895 0.27517,-0.48895 0.0892,0.04904 0.6671,0.343254 0.5147,0.469196 m -11.8498,-1.077031 -0.16863,0.230716 -0.32279,-0.235656 c -0.008,-0.0056 -0.0198,-0.0035 -0.0257,0.0049 l -0.19509,0.267407 c -0.006,0.0085 -0.005,0.02011 0.004,0.02611 l 0.33266,0.242359 c 0.008,0.0063 0.0198,0.0039 0.0258,-0.0046 l 0.16827,-0.230716 0.3228,0.235302 c 0.008,0.0064 0.0201,0.0039 0.0257,-0.0046 l 0.19508,-0.267406 c 0.006,-0.0081 0.005,-0.02011 -0.003,-0.02612 l -0.33265,-0.242776 c -0.008,-0.0056 -0.0198,-0.0035 -0.0258,0.0049 m 1.2312,0.0568 c -0.018,0.06173 -0.0808,0.37112 -0.0808,0.37112 0.0727,0.08185 0.39441,0.432507 0.31397,0.508 -0.0801,0.07514 -0.80574,0.650523 -2.53611,0.782463 -0.19403,0.01447 -1.09468,0.01376 -1.06363,-0.635 0.005,-0.09737 0.0734,-0.409575 0.18415,-0.585965 0.0296,-0.06844 -0.0483,-0.108656 -0.0931,-0.0321 -0.0448,0.0762 -0.60784,0.90946 -0.0191,1.45697 0.0504,0.04939 0.53163,0.479073 2.32551,-0.03704 0.4258,-0.117827 1.04069,-0.360537 1.30245,-0.70132 0.0462,-0.05997 0.20814,-0.369713 0.0797,-0.661813 -0.0515,-0.113945 -0.2727,-0.404283 -0.3175,-0.462137 -0.0448,-0.05821 -0.0776,-0.06456 -0.0956,-0.0032 m 16.84902,1.581854 c -0.031,0.08643 -0.043,0.143229 -0.0399,0.175683 0.003,0.03316 0.0148,0.1397 0.0148,0.1397 -0.0321,0.02574 -0.16898,0.110773 -0.30586,0.0099 0.009,-0.02858 0.0268,-0.08855 0.031,-0.121005 0.0148,-0.0508 -0.0166,-0.08819 -0.0416,-0.03598 -0.0247,0.05292 -0.0825,0.2286 -0.12559,0.267758 -0.043,0.03951 -0.0935,0.184505 -0.41981,0.03704 -0.0568,-0.02222 -0.15698,-0.09595 -0.31291,0.06068 -0.35243,0.327728 -0.59549,0.353128 -0.99095,0.493887 -0.048,0.02188 -0.14817,0.09701 -0.0289,0.08537 0.11924,-0.01164 0.62018,0 0.89288,-0.312915 0.0568,-0.05503 0.12241,-0.201435 0.33902,-0.116769 0.11994,0.04586 0.34149,0.235657 0.58314,-0.140051 0.14287,0.0949 0.35913,0.05715 0.3937,-0.04762 0.0342,-0.104775 0.0741,-0.209199 0.0737,-0.280107 -2.6e-4,-0.07091 -0.006,-0.1651 -0.006,-0.1651 -0.005,-0.05609 -0.0247,-0.136525 -0.0564,-0.05045 m -9.65165,0.04939 c -0.0307,0.07514 -0.1584,0.332668 -0.13864,0.636765 0.004,0.06985 0.0508,0.207078 0.15663,0.210608 0.0547,-2.65e-4 0.12559,-0.03987 0.17533,-0.211667 0.009,-0.03881 0.0145,-0.06985 0.018,-0.08502 0.005,-0.02328 -0.0116,-0.05115 -0.0296,0.0021 -0.0399,0.105129 -0.14393,0.178858 -0.2219,0.03775 -0.0123,-0.02822 -0.0649,-0.155927 0.0314,-0.435682 0.0194,-0.05433 0.0441,-0.135112 0.0441,-0.135112 0.0219,-0.06103 -0.005,-0.09455 -0.0353,-0.01976 m -5.10788,0.386654 c -0.0307,0.07479 -0.15875,0.332671 -0.13935,0.636413 0.005,0.0702 0.0515,0.207079 0.15699,0.21096 0.0547,0 0.12524,-0.03986 0.17568,-0.211667 0.008,-0.03916 0.0141,-0.0702 0.0177,-0.08537 0.005,-0.02328 -0.012,-0.0508 -0.0293,0.0024 -0.0402,0.105127 -0.14429,0.178858 -0.2219,0.03739 -0.0127,-0.02787 -0.0653,-0.155575 0.0314,-0.435681 0.0191,-0.05398 0.0441,-0.13476 0.0441,-0.13476 0.0212,-0.06103 -0.005,-0.09454 -0.0353,-0.01976 m -2.72662,0.129117 c -0.0748,0.02434 -1.58679,0.567266 -1.66934,0.600429 -0.0769,0.03069 -0.0977,0.05045 -0.11219,0.103362 -0.0145,0.05292 -0.0222,0.08326 -0.0257,0.09208 -0.0148,0.03493 -0.0332,0.06491 0.0801,0.01834 0.055,-0.02294 1.55504,-0.549629 1.63336,-0.583848 0.0628,-0.02752 0.0945,-0.04586 0.12171,-0.10019 0.0268,-0.05397 0.0332,-0.0635 0.048,-0.1016 0.0159,-0.04022 0.0349,-0.06491 -0.0758,-0.02857"
       style="fill:#231f20;fill-opacity:1;fill-rule:evenodd;stroke:none;stroke-width:0.264583"
       id="path1" />
  </g>
</svg>
