<?xml version="1.0" encoding="UTF-8" standalone="no"?>
<!-- Created with Inkscape (http://www.inkscape.org/) -->

<svg
   width="16.54232mm"
   height="6.5271859mm"
   viewBox="0 0 16.54232 6.5271859"
   version="1.1"
   id="svg1"
   xmlns="http://www.w3.org/2000/svg"
   xmlns:svg="http://www.w3.org/2000/svg">
  <defs
     id="defs1" />
  <g
     id="layer1"
     transform="translate(-169.29389,-31.107053)">
    <path
       d="m 178.0921,31.276041 c -0.0698,0.106892 -0.12206,0.362656 -0.0219,0.435681 0.0998,0.07338 0.2466,0.132644 0.2466,0.132644 -0.46602,0.570796 -0.78493,0.679804 -1.05728,0.839258 -0.0702,0.04092 -0.0561,0.07796 -0.0152,0.06703 0.0212,-0.0056 0.3877,-0.0628 0.81598,-0.388057 0.23177,-0.175683 0.37147,-0.475898 0.37147,-0.475898 0,0 0.11607,0.09666 0.13159,0.116417 0.0353,0.04339 0.054,0.07585 0.0709,0.02963 0.0607,-0.168627 -0.0254,-0.270933 -0.10724,-0.323495 0,0 0.0854,-0.263173 -0.072,-0.52705 -0.0261,-0.04445 -0.18168,-0.185563 -0.363,0.09384 m 0.24412,0.07267 c 0.10442,0.09737 0.0885,0.257881 0.0847,0.294569 0,0 -0.13406,-0.06279 -0.19403,-0.08855 -0.06,-0.0254 -0.0917,-0.06385 -0.0639,-0.1016 0.0924,-0.129823 0.13759,-0.125238 0.17322,-0.104423 m -1.73567,-0.17145 c -0.0166,0.03881 -0.13758,0.335844 -0.13758,0.335844 0.003,0.01728 0.036,0.147108 0.0423,0.195791 0.0564,0.428273 0.32738,2.519892 0.42792,3.320346 0.0497,0.394052 0.0882,0.748594 0.0935,0.938742 -0.005,0.05891 0.0212,0.08043 0.048,0.024 0.0145,-0.03034 0.0751,-0.155575 0.0938,-0.483659 0.0134,-0.246591 -0.006,-0.625826 -0.0765,-1.147585 -0.0102,-0.07585 -0.29563,-2.280356 -0.29563,-2.280356 0,0 0.19756,0.185208 0.22931,0.218371 0.0317,0.03387 0.0698,0.01622 0.0519,-0.0381 -0.0183,-0.05397 -0.42192,-1.030465 -0.43498,-1.064331 -0.013,-0.03387 -0.0257,-0.05821 -0.042,-0.01905 m -1.1564,0 c -0.0162,0.03881 -0.16193,0.329493 -0.16193,0.329493 0.004,0.02294 0.0554,0.08291 0.0769,0.22719 0.0219,0.149577 0.0984,0.86501 0.16227,1.232958 0,0 0.33514,2.10679 0.35807,2.283532 0.0226,0.176741 0.0303,0.289277 -0.003,0.31891 -0.0335,0.02998 -0.38594,0.317148 -0.72955,0.169333 -0.0452,-0.01976 -0.24447,-0.153458 -0.24976,-0.422981 0,-0.05115 0.0141,-0.0702 0.0194,-0.09843 0.006,-0.02822 0.01,-0.09948 -0.0977,-0.04445 -0.10724,0.05433 -1.1564,0.825854 -2.09656,0.778581 -0.17215,-0.0085 -0.89852,0 -1.10843,-0.524933 -0.0169,-0.06279 -0.0212,-0.222602 -0.12206,-0.09207 -0.10054,0.129823 -0.27728,0.491067 -0.49142,0.571148 -0.21448,0.07973 -0.94544,0.310795 -1.0795,-0.882298 -0.0296,-0.26035 -0.26881,-3.35139 -0.45614,-3.774017 -0.0346,-0.08255 -0.0554,-0.04939 -0.0702,-0.0078 -0.0152,0.04233 -0.06,0.172508 -0.084,0.237067 -0.024,0.06456 -0.0183,0.09419 -0.006,0.164745 0.17815,1.012473 0.40993,3.318933 0.43568,3.560588 0.0296,0.27305 0.073,1.227667 0.98319,1.167694 0.12206,-0.0074 0.44768,-0.1016 0.71861,-0.603957 0,0 0.22472,0.543983 1.07668,0.586317 0.10618,0.0053 1.1243,0.06315 2.19145,-0.764821 0,0 0.10584,0.59055 0.61807,0.603954 0.0861,0.0024 0.70062,-0.06844 0.73977,-0.73166 0.0138,-0.111477 -0.0254,-0.662869 -0.0744,-1.018117 l -0.34396,-2.348441 c 0,0 0.18062,0.139348 0.21202,0.17286 0.0317,0.03352 0.0702,0.01588 0.0522,-0.03845 -0.018,-0.05362 -0.41381,-0.999067 -0.42686,-1.032933 -0.013,-0.03387 -0.0261,-0.05821 -0.0423,-0.01905 m -1.96745,0.213783 c -0.0825,0.04727 -2.98555,1.803048 -3.07057,1.853848 -0.084,0.05115 -0.10901,0.07197 -0.11924,0.136525 -0.0102,0.0642 -0.0155,0.09842 -0.0183,0.111829 -0.0106,0.04375 -0.0265,0.08925 0.0967,0.0113 0.0381,-0.024 2.96369,-1.781881 3.03001,-1.829858 0.0656,-0.04763 0.10619,-0.06597 0.13088,-0.133702 0.0247,-0.06738 0.0314,-0.07902 0.0441,-0.125941 0.0138,-0.04974 0.031,-0.09596 -0.0935,-0.024 m -2.45886,0.05539 c -0.13264,0.226838 -0.10548,0.497417 -0.0857,0.8001 -0.0314,-0.05962 -0.21555,-0.444145 -0.65829,-0.617712 -0.0321,-0.01236 -0.0885,0.02752 -0.0808,0.122767 0.004,0.05609 0.007,0.19191 0.0508,0.224718 0.0441,0.03246 0.16933,0.09137 0.18944,0.09913 0.0212,0.0081 0.0416,0.0063 0.0445,-0.01728 0.003,-0.024 0.0219,-0.08043 0.0642,-0.04762 0.0356,0.02716 0.26106,0.166865 0.41522,0.507648 0.0251,0.04445 0.0692,0.04339 0.0702,-0.02506 0.002,-0.167568 -0.0247,-0.454728 -0.0236,-0.542925 0.002,-0.124176 0.0254,-0.382762 0.1972,-0.273753 0.0388,0.02469 0.0815,0.05856 0.0815,0.05856 0.0384,0.03669 0.0861,0.07797 0.0995,0.02787 0.0201,-0.07585 0.0282,-0.19826 -0.0138,-0.258233 -0.0187,-0.02646 -0.24271,-0.241652 -0.35031,-0.05821 m 3.75955,0.3556 c -0.0832,0.04763 -2.98556,1.803048 -3.07022,1.8542 -0.0847,0.0508 -0.10936,0.07162 -0.1196,0.136173 -0.0106,0.06421 -0.0155,0.09842 -0.0187,0.111831 -0.0106,0.04374 -0.0261,0.08925 0.0967,0.01164 0.0385,-0.024 2.96404,-1.781881 3.03001,-1.829858 0.0663,-0.04798 0.10654,-0.06632 0.13088,-0.133705 0.0251,-0.06738 0.0314,-0.07937 0.0441,-0.125942 0.0138,-0.04974 0.0314,-0.0956 -0.0931,-0.02434 m -0.18732,0.998363 c -0.0236,0.07302 -0.0413,0.12982 -0.01,0.213783 0.0317,0.08361 0.11818,0.273754 0.13229,0.300919 0.0141,0.02716 0.018,0.05786 -0.0296,0.07796 -0.0469,0.02011 -0.26317,0.06597 -0.30339,-0.164396 -0.0402,-0.23001 -0.0434,-0.297037 -0.0635,-0.336195 -0.0204,-0.03916 -0.0392,-0.04375 -0.0543,-0.0049 -0.0155,0.03916 -0.0254,0.119592 -0.0272,0.132643 -0.002,0.0127 -0.002,0.02222 0.006,0.03634 0.008,0.0141 0.0945,0.271637 0.0554,0.342194 -0.0388,0.07126 -0.23248,0.198615 -0.33408,0.06527 -0.0487,-0.09349 -0.019,-0.329497 -0.019,-0.384882 0,-0.05574 -0.0173,-0.07479 -0.0413,-0.02963 -0.0236,0.0448 -0.0363,0.07444 -0.0349,0.114652 0.001,0.04022 0.007,0.212373 0.003,0.2667 -0.003,0.05433 0,0.230365 0.10371,0.279754 0.10407,0.04974 0.25541,0.0035 0.37007,-0.212373 0.0885,0.128765 0.22295,0.129469 0.29492,0.102659 0.0614,-0.02222 0.12982,-0.114652 0.15028,-0.241652 0.0198,-0.128059 -0.013,-0.215197 -0.0536,-0.287163 -0.0529,-0.08855 -0.0882,-0.237771 -0.0882,-0.237771 -0.0187,-0.05292 -0.0332,-0.107246 -0.0568,-0.03387 m -1.59174,0.989893 c -0.0374,0.12206 -0.19649,0.545042 -0.14111,1.03011 0.0127,0.112184 0.0921,0.32738 0.24342,0.324557 0.0776,-0.0046 0.17498,-0.07373 0.23107,-0.352777 0.009,-0.0635 0.0138,-0.113242 0.0176,-0.13829 0.005,-0.03739 -0.0219,-0.08043 -0.042,0.0063 -0.0476,0.171802 -0.18909,0.297744 -0.31327,0.07832 -0.0205,-0.04339 -0.10689,-0.244475 0.005,-0.699558 0.0229,-0.08855 0.0504,-0.220134 0.0504,-0.220134 0.0254,-0.09948 -0.0148,-0.150635 -0.0515,-0.02858 m -2.14312,0.03246 c -0.0317,0.102658 -0.17075,0.456493 -0.12383,0.862187 0.0109,0.09384 0.079,0.273756 0.21026,0.271288 0.0674,-0.0042 0.15169,-0.06174 0.20073,-0.295982 0.007,-0.05221 0.0124,-0.09454 0.0155,-0.115358 0.005,-0.0314 -0.0187,-0.06703 -0.0367,0.0056 -0.0413,0.143581 -0.16404,0.249414 -0.27093,0.06597 -0.0177,-0.03669 -0.0924,-0.204613 0.006,-0.585613 0.0198,-0.07408 0.0441,-0.18415 0.0441,-0.18415 0.0222,-0.08361 -0.0123,-0.126294 -0.0448,-0.024 m 3.6449,0.1397 -0.19473,0.267404 c -0.007,0.0088 -0.005,0.02011 0.003,0.02611 l 0.33302,0.242711 c 0.008,0.0056 0.0198,0.0035 0.0254,-0.0049 l 0.19509,-0.267407 c 0.006,-0.0085 0.005,-0.02011 -0.003,-0.02611 l -0.33302,-0.242358 c -0.008,-0.006 -0.0198,-0.0039 -0.0257,0.0046 m 10.11449,-2.5908 c -0.0702,0.106537 -0.12206,0.363008 -0.0222,0.435679 0.10019,0.07338 0.24624,0.132646 0.24624,0.132646 -0.46567,0.570794 -1.38042,0.976842 -1.59809,1.146879 -0.0649,0.04904 -0.0561,0.07796 -0.0148,0.06703 0.0356,-0.0099 0.73272,-0.205316 1.37018,-0.750713 0.2921,-0.250118 0.28399,-0.269168 0.35807,-0.420862 0.0635,0.03245 0.1069,0.08537 0.13159,0.116062 0.0353,0.04375 0.0547,0.0762 0.0709,0.02999 0.061,-0.168981 -0.0251,-0.270581 -0.10725,-0.323498 0,0 0.0854,-0.263173 -0.0716,-0.52705 -0.0265,-0.0441 -0.18203,-0.18556 -0.36301,0.09384 m 0.24342,0.07303 c 0.10513,0.09737 0.0889,0.257527 0.0847,0.294217 0,0 -0.13371,-0.0628 -0.19403,-0.08855 -0.0596,-0.02574 -0.091,-0.0635 -0.0632,-0.1016 0.0921,-0.129824 0.13758,-0.12559 0.17251,-0.104069 m -1.78858,-0.165806 c -0.18274,0.232833 -0.19439,0.538691 -0.21908,0.879826 -0.0254,-0.07126 -0.17145,-0.529166 -0.63923,-0.790575 -0.0342,-0.01939 -0.10301,0.01693 -0.10972,0.124532 -0.004,0.06279 -0.0215,0.215193 0.0229,0.258233 0.0441,0.04339 0.17463,0.12841 0.19615,0.1397 0.0222,0.01236 0.0459,0.0141 0.0526,-0.01199 0.006,-0.02646 0.036,-0.08678 0.0787,-0.04339 0.0356,0.03598 0.26564,0.226483 0.38523,0.630412 0.0212,0.05362 0.0706,0.05891 0.0822,-0.01693 0.0275,-0.186971 0.0423,-0.511527 0.0575,-0.609952 0.0204,-0.13829 0.0868,-0.423333 0.26176,-0.275167 0.0395,0.03352 0.0819,0.07796 0.0819,0.07796 0.0374,0.04692 0.0843,0.100542 0.10654,0.04621 0.0346,-0.08149 0.0621,-0.216604 0.0247,-0.289983 -0.0166,-0.03245 -0.23389,-0.307269 -0.38205,-0.118885 m -1.80023,-0.01093 c -0.067,0.03951 -1.78752,1.032227 -1.85702,1.077384 -0.0699,0.04445 -0.0942,0.05609 -0.10584,0.110066 -0.0109,0.05362 -0.0166,0.08502 -0.0194,0.09349 -0.0127,0.03598 -0.0219,0.08043 0.0808,0.01304 0.0321,-0.02082 1.76177,-1.020233 1.82245,-1.057978 0.0582,-0.03634 0.0921,-0.05221 0.11535,-0.107598 0.0236,-0.05609 0.0293,-0.06597 0.0416,-0.104424 0.0134,-0.04127 0.0268,-0.08537 -0.078,-0.024 m 0.33055,1.354666 c -0.0342,0.08431 -0.1785,0.375002 -0.15699,0.71755 0.006,0.07902 0.0579,0.233186 0.1771,0.237067 0.0617,0 0.14111,-0.0448 0.19791,-0.238125 0.01,-0.0441 0.0159,-0.07902 0.0198,-0.09631 0.006,-0.02612 -0.013,-0.05715 -0.0328,0.0028 -0.0455,0.118888 -0.16227,0.20179 -0.25012,0.04233 -0.0145,-0.03104 -0.0734,-0.175683 0.0353,-0.490712 0.0219,-0.06138 0.0494,-0.152048 0.0494,-0.152048 0.0243,-0.06914 -0.005,-0.10654 -0.0395,-0.02257 m 3.30694,0.173212 c -0.0314,0.07832 -0.16475,0.347133 -0.14499,0.664281 0.005,0.07302 0.054,0.2159 0.16404,0.219782 0.0572,-2.65e-4 0.13052,-0.04127 0.18344,-0.22084 0.009,-0.04022 0.0145,-0.07303 0.0183,-0.0889 0.006,-0.02434 -0.0127,-0.05292 -0.0307,0.0024 -0.0423,0.109715 -0.15029,0.186267 -0.23178,0.03916 -0.013,-0.02893 -0.0677,-0.162629 0.0328,-0.454025 0.0205,-0.0567 0.0459,-0.141013 0.0459,-0.141013 0.0226,-0.06385 -0.005,-0.09842 -0.037,-0.02082 m -6.20606,0.0085 -0.16828,0.230717 -0.32279,-0.235302 c -0.008,-0.006 -0.0198,-0.0039 -0.0261,0.0046 l -0.19509,0.267407 c -0.006,0.0088 -0.005,0.02045 0.004,0.02611 l 0.33267,0.24271 c 0.008,0.006 0.0198,0.0039 0.0261,-0.0049 l 0.16827,-0.230362 0.32279,0.235301 c 0.008,0.006 0.0198,0.0039 0.0258,-0.0049 l 0.1951,-0.26738 c 0.006,-0.0085 0.005,-0.02011 -0.004,-0.02574 l -0.33232,-0.24271 c -0.008,-0.006 -0.0201,-0.0039 -0.0261,0.0046 m 1.30351,0.415925 c -0.013,0.04516 -0.0459,0.23989 -0.0536,0.279754 -0.008,0.04022 -0.007,0.08008 0.0124,0.1143 0.0198,0.03422 0.0706,0.152752 0.10724,0.249061 0.0363,0.09631 0.41416,0.824089 0.44908,0.888648 0.0349,0.06456 0.042,0.112535 0.007,0.15522 -1.2125,1.27988 -3.55283,2.066573 -3.62762,2.109965 -0.0751,0.04339 -0.055,0.07691 0.0709,0.05503 0.18839,-0.03281 1.23966,-0.208491 1.53917,-0.353131 0.19791,-0.09525 0.88759,-0.433917 1.45239,-0.8763 -0.0155,0.113948 -0.0303,0.282223 -0.0222,0.4953 0.0385,1.0287 0.95815,0.858308 1.1998,0.80504 0.7239,-0.15875 1.60867,-1.159227 1.68381,-1.359959 0.0741,-0.198614 0.085,-0.379941 0.0684,-0.537633 0.1905,-0.10301 0.60007,-0.43321 0.60007,-0.43321 0.0169,0.438502 0.36583,0.570793 0.47343,0.589843 0.50306,0.0762 0.75565,-0.344664 0.86289,-0.481189 0.0917,0.240596 0.31257,0.287162 0.42581,0.309739 0.43427,0.08643 0.51893,-0.220839 0.54151,-0.290689 0.13617,-0.423686 -0.10901,-0.739421 -0.14076,-0.7747 -0.0317,-0.03457 -0.0476,-0.0013 -0.0589,0.03916 -0.0113,0.04092 -0.0462,0.193675 -0.0681,0.288925 0,0 0.0907,0.148167 0.12348,0.223308 0.0321,0.0755 -0.0159,0.116771 -0.10972,0.128059 -0.26423,0.03246 -0.47484,-0.118886 -0.54751,-0.188736 -0.0727,-0.06985 0.006,-0.193675 0.0646,-0.341135 0.0469,-0.118181 -0.0399,-0.132646 -0.10689,-2.64e-4 -0.22402,0.588787 -0.53869,0.652287 -0.62124,0.674864 -0.74613,0.2032 -0.68192,-0.478718 -0.67945,-0.59055 0.003,-0.111831 -0.0794,-0.07056 -0.17075,0.0035 -0.31397,0.251532 -0.56727,0.40005 -0.70309,0.460375 -0.11712,-0.2286 -0.28716,-0.372533 -0.35877,-0.424391 -0.80751,-0.588786 -0.87418,0.599016 -0.84984,0.726371 0.12276,0.505529 0.94791,0.199318 1.07738,0.183795 0.12947,-0.01516 0.0868,0.155575 0.0145,0.257175 -0.17885,0.250121 -0.38558,0.429684 -0.57291,0.582438 -0.79974,0.652637 -1.20085,0.600779 -1.32468,0.596546 -0.78528,-0.02188 -0.71296,-0.868186 -0.66922,-1.049161 0.23601,-0.200025 0.43921,-0.417689 0.55704,-0.641702 0.048,-0.122766 0.13088,-0.401462 -0.0187,-0.751416 -0.0787,-0.154165 -0.32596,-0.586317 -0.32596,-0.586317 0,0 0.18203,0.0056 0.19932,0.0053 0.0176,0 0.0515,-0.01834 0.007,-0.0695 -0.0441,-0.05115 -0.42756,-0.433211 -0.45049,-0.463902 -0.0233,-0.03069 -0.0444,-0.05292 -0.0572,-0.0078 m 2.42182,1.752599 c 0,0 -0.10972,0.06315 -0.41734,0.04233 -0.25788,-0.01693 -0.23566,-0.117475 -0.20038,-0.155927 0.0385,-0.04127 0.35384,-0.23989 0.61772,0.113593 m -3.31647,-1.424868 c -0.0533,0.06623 -0.58986,0.770019 -0.58986,0.770019 l -0.38982,-0.277989 c 0,0 0.15911,-0.03986 0.18697,-0.04798 0.0275,-0.0081 0.0434,-0.0441 -0.007,-0.06985 -0.0497,-0.02574 -0.51999,-0.21308 -0.55598,-0.227542 -0.0356,-0.01447 -0.0487,-0.03069 -0.0519,0.0074 -0.003,0.0381 -0.008,0.347486 -0.008,0.347486 0,0 -0.007,0.02188 0.0339,0.04516 0.0413,0.02294 0.0815,0.07303 0.11465,0.106537 0.0339,0.03387 0.47131,0.378884 0.49247,0.391232 0,0 -0.21907,0.384527 -0.24659,0.685093 -0.0279,0.301273 0.006,0.716492 0.41663,0.582438 0.11078,-0.03175 0.5715,-0.214842 0.67451,-0.536223 0.0335,-0.118181 0.12806,-0.331965 -0.0261,-0.548923 -0.0889,-0.127352 -0.44909,-0.342546 -0.44909,-0.342546 0,0 0.27658,-0.381706 0.30268,-0.428625 0.0265,-0.04657 0.12806,-0.3429 0.139,-0.414514 0.0116,-0.07161 0.0169,-0.107244 -0.0363,-0.04127 m -0.0942,1.623131 c -0.1531,0.125587 -0.47378,0.291746 -0.56409,0.300567 -0.0903,0.0085 -0.32985,-0.03563 -0.22578,-0.280813 0.036,-0.07937 0.27482,-0.48895 0.27482,-0.48895 0.0896,0.04904 0.66781,0.343254 0.51505,0.469196 m 6.23006,0.561975 c -0.0307,0.08608 -0.0427,0.142521 -0.0395,0.175683 0.004,0.03281 0.0148,0.139346 0.0148,0.139346 -0.0325,0.02574 -0.16863,0.111125 -0.30585,0.01024 0.009,-0.02928 0.0268,-0.08855 0.031,-0.121356 0.0145,-0.05045 -0.0166,-0.08819 -0.0409,-0.03563 -0.0254,0.05256 -0.0833,0.227894 -0.1263,0.267404 -0.0434,0.03951 -0.0935,0.184504 -0.41945,0.03704 -0.0572,-0.02188 -0.15734,-0.09595 -0.31291,0.06103 -0.35278,0.327377 -0.59585,0.353131 -0.99166,0.493183 -0.0473,0.02257 -0.14782,0.09772 -0.0289,0.08573 0.11924,-0.01199 0.62054,2.65e-4 0.89323,-0.312915 0.0571,-0.05539 0.12206,-0.201435 0.33902,-0.116768 0.11959,0.04551 0.34149,0.235656 0.5835,-0.140052 0.14217,0.0949 0.35913,0.0568 0.39334,-0.04798 0.0346,-0.10442 0.0741,-0.208137 0.0737,-0.2794 -8e-4,-0.07126 -0.006,-0.164745 -0.006,-0.164745 -0.005,-0.0568 -0.0251,-0.13688 -0.0568,-0.0508 m -8.7436,0.31256 c -0.031,0.07479 -0.1584,0.332669 -0.13899,0.63641 0.004,0.07056 0.0508,0.207082 0.15698,0.210963 0.0543,-2.64e-4 0.12559,-0.04022 0.17533,-0.212021 0.009,-0.0388 0.0145,-0.06985 0.018,-0.08537 0.006,-0.02294 -0.012,-0.0508 -0.0296,0.0024 -0.0399,0.105481 -0.14393,0.17921 -0.2219,0.0381 -0.0123,-0.02822 -0.0653,-0.156281 0.0314,-0.435681 0.0194,-0.05433 0.0437,-0.135113 0.0437,-0.135113 0.0219,-0.06138 -0.004,-0.0949 -0.0349,-0.01976 m -2.11702,0.285485 c -0.031,0.07479 -0.15875,0.332669 -0.13899,0.636763 0.004,0.0702 0.0508,0.207081 0.15699,0.210608 0.0543,0 0.12559,-0.03986 0.17533,-0.211667 0.009,-0.0388 0.0141,-0.06985 0.0176,-0.08537 0.005,-0.02328 -0.0116,-0.05045 -0.0296,0.0024 -0.0399,0.105481 -0.14358,0.178858 -0.22154,0.03775 -0.0127,-0.02822 -0.0653,-0.155929 0.0314,-0.435681 0.0194,-0.05433 0.0437,-0.135115 0.0437,-0.135115 0.0215,-0.06103 -0.004,-0.09454 -0.0349,-0.01976 m -4.44359,0.06773 c -0.12206,0.09525 -0.40463,0.369004 -0.27728,0.497417 0.0734,0.05997 0.10654,0.08925 0.10654,0.08925 -0.0342,0.01304 -0.0635,0.04622 -0.0847,0.08784 -0.0208,0.04198 -0.0236,0.05151 -0.0346,0.07514 -0.0106,0.024 -0.0166,0.05609 0.0416,0.02294 0.0586,-0.03352 0.19685,-0.1651 0.57185,-0.247298 0.0512,-0.0113 0.097,-0.09631 0.097,-0.09631 0.0222,-0.03598 0.0653,-0.119592 -0.007,-0.07832 -0.073,0.04127 -0.26811,0.09948 -0.35525,0.0829 -0.0868,-0.01659 -0.18979,-0.09172 -0.21237,-0.127704 -0.0226,-0.03563 -0.0198,-0.0762 0.0494,-0.115713 0.0688,-0.03986 0.14393,-0.06703 0.19649,0.02117 0.0102,0.01447 0.0219,0.01447 0.0437,-0.0081 0.0226,-0.02222 0.067,-0.08467 0.079,-0.102306 0.0116,-0.01799 0.0215,-0.04762 0.003,-0.0695 -0.0187,-0.02151 -0.0945,-0.126294 -0.21696,-0.0314 m 1.6129,0.207434 -0.19509,0.267403 c -0.006,0.0081 -0.005,0.02011 0.004,0.02574 l 0.33267,0.243062 c 0.008,0.0053 0.0198,0.0035 0.0261,-0.0049 l 0.19473,-0.267407 c 0.006,-0.0085 0.005,-0.02011 -0.003,-0.02611 l -0.33268,-0.24271 c -0.008,-0.006 -0.0201,-0.0039 -0.0261,0.0049 m -0.88759,0.431094 c -0.0741,0.02434 -0.91722,0.326673 -1.00013,0.359481 -0.0765,0.03034 -0.0977,0.05009 -0.11253,0.103011 -0.0145,0.05292 -0.0219,0.08396 -0.0254,0.09208 -0.0148,0.03528 -0.0332,0.06491 0.0801,0.01871 0.055,-0.02294 0.88618,-0.308682 0.96449,-0.3429 0.0624,-0.02752 0.0949,-0.04586 0.12171,-0.100542 0.0268,-0.05362 0.0332,-0.0635 0.048,-0.101248 0.0159,-0.04022 0.0349,-0.06491 -0.0762,-0.02857"
       style="fill:#231f20;fill-opacity:1;fill-rule:evenodd;stroke:none;stroke-width:0.264583"
       id="path1" />
  </g>
</svg>
