<?xml version="1.0" encoding="UTF-8" standalone="no"?>
<!-- Created with Inkscape (http://www.inkscape.org/) -->

<svg
   width="21.264755mm"
   height="6.1685009mm"
   viewBox="0 0 21.264755 6.1685009"
   version="1.1"
   id="svg1"
   xmlns="http://www.w3.org/2000/svg"
   xmlns:svg="http://www.w3.org/2000/svg">
  <defs
     id="defs1" />
  <g
     id="layer1"
     transform="translate(-164.81792,-31.350593)">
    <path
       d="m 172.88922,31.40516 c -0.0169,0.02257 -0.11853,0.216958 -0.0988,0.327025 0.21625,0.990248 0.33372,3.215216 0.36159,3.4671 0.0226,0.201083 0.0998,1.402643 0.9525,1.428043 0.18486,0.0053 0.76024,-0.112535 1.03153,-0.648406 0.0332,0.06879 0.21096,0.629708 0.85513,0.494241 0.10936,-0.02294 0.46214,-0.13335 0.52811,-0.61736 0.0127,-0.09384 0.0395,-0.346427 0.006,-0.652991 -0.0208,-0.193675 -0.40429,-2.903712 -0.40429,-2.903712 0,0 0.16087,0.146401 0.19191,0.179916 0.0318,0.03387 0.0702,0.01588 0.0522,-0.03775 -0.0176,-0.05433 -0.381,-0.992365 -0.3937,-1.026583 -0.0134,-0.03387 -0.0257,-0.05856 -0.0423,-0.01939 -0.0166,0.03916 -0.14746,0.32385 -0.14746,0.32385 0.003,0.02328 0.0332,0.09384 0.054,0.238125 0.019,0.13617 0.0459,0.325612 0.0758,0.536575 0,0 0.37112,2.513893 0.38876,2.696985 0.0173,0.183092 0.0557,0.5969 0.0498,0.656519 -0.007,0.05962 -0.0162,0.104775 -0.14852,0.152751 -0.13159,0.04833 -0.49989,0.196499 -0.75918,-0.0769 -0.0325,-0.0374 -0.0917,-0.109715 -0.10795,-0.190148 -0.0159,-0.08043 7.9e-4,-0.314325 -0.0691,-0.231775 -0.0586,0.06914 -0.54186,0.780343 -1.21496,0.700616 -0.14288,-0.01659 -0.58067,-0.09031 -0.67663,-0.978606 -0.0251,-0.17145 -0.1972,-3.21451 -0.41734,-3.829402 -0.0363,-0.09278 -0.0508,-0.01093 -0.0674,0.0113 m -0.94897,-0.0024 c -0.0808,0.04127 -2.3689,1.2827 -2.45145,1.327854 -0.0819,0.0448 -0.10619,0.0635 -0.11889,0.12418 -0.0123,0.06032 -0.0187,0.09243 -0.0222,0.105127 -0.0116,0.04127 -0.0286,0.08396 0.0914,0.01516 0.037,-0.02151 2.34738,-1.264354 2.41229,-1.307041 0.0646,-0.04233 0.10301,-0.05856 0.12947,-0.121354 0.0261,-0.06244 0.0328,-0.07373 0.0466,-0.117475 0.0155,-0.04622 0.0339,-0.08926 -0.0871,-0.02646 m 3.57752,0.350309 c -0.0699,0.03493 -1.76459,0.732366 -1.83691,0.772583 -0.0723,0.04057 -0.0977,0.05045 -0.11219,0.103362 -0.0148,0.05327 -0.0226,0.08396 -0.0257,0.09207 -0.0152,0.03528 -0.0268,0.07867 0.0797,0.01871 0.0335,-0.01871 1.74166,-0.72249 1.80128,-0.756356 0.0593,-0.03422 0.0949,-0.04586 0.12171,-0.100187 0.0268,-0.05398 0.0335,-0.06386 0.048,-0.1016 0.0162,-0.04022 0.0325,-0.08326 -0.0758,-0.02858 m -0.38912,1.167341 c -0.0257,0.07937 -0.0448,0.140759 -0.0102,0.231775 0.0342,0.09102 0.1277,0.296686 0.14287,0.325964 0.0155,0.02963 0.0194,0.0628 -0.0318,0.08467 -0.0511,0.02151 -0.28504,0.07162 -0.32879,-0.1778 -0.0434,-0.249412 -0.0469,-0.322437 -0.0688,-0.36477 -0.0219,-0.04233 -0.0423,-0.04727 -0.0586,-0.0049 -0.0169,0.04233 -0.0268,0.129471 -0.0296,0.143229 -0.002,0.0141 -0.002,0.02469 0.006,0.03986 0.009,0.01516 0.10195,0.294216 0.06,0.370768 -0.042,0.07691 -0.25188,0.214842 -0.3616,0.07056 -0.0526,-0.101249 -0.0204,-0.357011 -0.0204,-0.416984 0,-0.06033 -0.0191,-0.08079 -0.0448,-0.0321 -0.0258,0.04868 -0.0399,0.08079 -0.0385,0.124177 0.001,0.04339 0.008,0.23001 0.004,0.288925 -0.004,0.05856 0,0.24906 0.11254,0.303035 0.11253,0.05362 0.27622,0.0035 0.40005,-0.230362 0.096,0.139346 0.24165,0.1397 0.31997,0.111125 0.066,-0.024 0.1404,-0.123825 0.16192,-0.261763 0.0215,-0.137935 -0.0138,-0.23283 -0.0575,-0.310795 -0.0575,-0.09596 -0.0956,-0.257527 -0.0956,-0.257527 -0.0208,-0.0575 -0.036,-0.116417 -0.0614,-0.03704 m -0.17215,1.283404 -0.19509,0.267407 c -0.006,0.0085 -0.005,0.02011 0.003,0.02611 l 0.33302,0.242713 c 0.008,0.006 0.0198,0.0035 0.0254,-0.0049 l 0.19544,-0.267052 c 0.006,-0.0088 0.005,-0.02045 -0.004,-0.02646 l -0.33303,-0.242358 c -0.008,-0.006 -0.0194,-0.0039 -0.0254,0.0046 m -0.8195,0.446968 c -0.0342,0.08326 -0.17674,0.370065 -0.15487,0.708732 0.005,0.07796 0.0568,0.230365 0.17463,0.234243 0.0607,0 0.13934,-0.04409 0.19508,-0.235653 0.01,-0.04304 0.0159,-0.07796 0.0201,-0.09455 0.006,-0.02611 -0.013,-0.0568 -0.0332,0.0021 -0.0444,0.117475 -0.16016,0.199321 -0.24659,0.04233 -0.0141,-0.03104 -0.0727,-0.173566 0.0346,-0.485068 0.0219,-0.06032 0.049,-0.150283 0.049,-0.150283 0.024,-0.06844 -0.005,-0.105127 -0.0388,-0.02188 m 2.7933,-3.251198 c -0.0166,0.03916 -0.13865,0.335492 -0.13865,0.335492 0.002,0.01728 0.0353,0.147108 0.0413,0.195792 0.054,0.428625 0.3937,2.962272 0.49071,3.763078 0.0473,0.394052 0.0843,0.748594 0.0889,0.938742 -0.005,0.05891 0.0208,0.08114 0.0476,0.02506 0.0148,-0.03069 0.0762,-0.155575 0.0959,-0.483658 0.0148,-0.246947 -0.003,-0.62583 -0.0709,-1.147588 -0.01,-0.07585 -0.36265,-2.722737 -0.36265,-2.722737 0,0 0.19614,0.186266 0.22789,0.219781 0.0314,0.03351 0.0702,0.01588 0.0522,-0.03775 -0.018,-0.05433 -0.41768,-1.032581 -0.43038,-1.066448 -0.013,-0.03422 -0.0257,-0.05856 -0.042,-0.01976 m 1.41111,0.161925 c -0.0702,0.106891 -0.12242,0.362653 -0.0222,0.435678 0.10019,0.07338 0.24624,0.132647 0.24624,0.132647 -0.46567,0.570793 -0.78458,0.679801 -1.05692,0.83961 -0.0702,0.04127 -0.0561,0.07796 -0.0152,0.06703 0.0215,-0.0056 0.3877,-0.06279 0.81597,-0.388054 0.23143,-0.175683 0.37183,-0.47625 0.37183,-0.47625 0,0 0.11571,0.09666 0.13123,0.116062 0.0353,0.04375 0.0547,0.0762 0.0709,0.02999 0.061,-0.168982 -0.0251,-0.270933 -0.10759,-0.323146 0,0 0.0857,-0.263525 -0.0716,-0.527402 -0.0261,-0.0441 -0.18168,-0.18556 -0.36266,0.09384 m 0.24342,0.07267 c 0.10513,0.09772 0.0889,0.257881 0.085,0.294571 0,0 -0.13405,-0.0628 -0.19403,-0.08855 -0.06,-0.0254 -0.0914,-0.0635 -0.0635,-0.1016 0.0921,-0.129823 0.13759,-0.125235 0.17251,-0.104423 m 6.27874,0.02294 c -0.0702,0.106892 -0.12206,0.362657 -0.0222,0.435682 0.0998,0.07338 0.24624,0.132643 0.24624,0.132643 -0.46567,0.570794 -1.38043,0.977548 -1.59774,1.147586 -0.0649,0.04868 -0.0564,0.07761 -0.0152,0.06667 0.0363,-0.0095 0.73307,-0.204611 1.37019,-0.751063 0.29175,-0.250121 0.28399,-0.269171 0.35842,-0.420864 0.0628,0.03281 0.10689,0.08537 0.13159,0.116416 0.0349,0.04339 0.054,0.07585 0.0709,0.02963 0.061,-0.168982 -0.0254,-0.270934 -0.1076,-0.323144 0,0 0.0854,-0.263525 -0.0716,-0.527404 -0.0261,-0.0441 -0.18204,-0.185561 -0.36301,0.09384 m 0.24377,0.07267 c 0.10477,0.09772 0.0889,0.257879 0.0847,0.294569 0,0 -0.13405,-0.06279 -0.19367,-0.08819 -0.06,-0.02574 -0.0917,-0.06385 -0.0642,-0.101954 0.0928,-0.129821 0.13829,-0.125235 0.17322,-0.104421 m -16.55128,-0.189089 c -0.0212,0.05433 -0.0639,0.232833 -0.0727,0.281516 -0.009,0.04833 -0.0152,0.07232 0.006,0.144992 0.13723,0.357717 0.36759,2.929112 0.39511,3.131254 0.0166,0.122766 0.0769,1.205796 0.90734,1.371954 0.78846,0.158044 1.76953,-0.779991 1.76953,-0.779991 0,0 0.0998,-0.248005 0.11501,-0.314325 0.0152,-0.06703 0,-0.109363 -0.0515,-0.05151 -0.0515,0.05715 -0.34042,0.394759 -0.9017,0.605367 -0.0924,0.03457 -0.40851,0.07267 -0.65687,-0.160515 -0.0483,-0.04551 -0.369,-0.29986 -0.40252,-0.771525 -0.006,-0.05503 0.0152,-0.10301 0.0727,-0.13335 0.0572,-0.03034 0.65969,-0.284692 0.86536,-0.290687 0.20602,-0.006 0.44203,0.006 0.5842,0.112183 0.0272,0.02716 0.0787,-0.0032 0.0487,-0.04233 -0.085,-0.112183 -0.4766,-0.310446 -0.6992,-0.335846 -0.10619,-0.01236 -0.7112,0.06315 -0.86572,0.34784 -0.127,0.234598 -0.24201,0.364066 -0.21061,0.61595 0.007,0.05362 0.0794,0.510823 0.28046,0.748948 0,0 -0.39617,-0.04798 -0.59655,-0.801865 -0.17462,-0.658283 -0.28116,-3.056112 -0.49036,-3.67806 -0.03,-0.07867 -0.0755,-0.05433 -0.0967,0 m 14.76269,0.02363 c -0.18309,0.232833 -0.19473,0.539046 -0.21907,0.87983 -0.0257,-0.07126 -0.17216,-0.528815 -0.63959,-0.79093 -0.0339,-0.01905 -0.10301,0.01728 -0.10936,0.124883 -0.004,0.0628 -0.0219,0.215197 0.0226,0.258588 0.0441,0.04304 0.17462,0.127704 0.19614,0.1397 0.0222,0.01199 0.0459,0.01376 0.0526,-0.01236 0.006,-0.02611 0.0363,-0.08678 0.0783,-0.04339 0.036,0.03598 0.26635,0.226483 0.38594,0.630414 0.0205,0.05362 0.0702,0.05891 0.0819,-0.01693 0.0275,-0.186973 0.0427,-0.51153 0.0572,-0.609955 0.0208,-0.138287 0.0871,-0.422978 0.26246,-0.275166 0.0395,0.03387 0.0819,0.07796 0.0819,0.07796 0.037,0.04692 0.0836,0.100541 0.10654,0.04621 0.0342,-0.08149 0.0621,-0.216606 0.0243,-0.289631 -0.0169,-0.03281 -0.23354,-0.307269 -0.38171,-0.11924 m -1.80022,-0.01093 c -0.0677,0.03951 -1.78788,1.032227 -1.85738,1.077383 -0.0695,0.0448 -0.0942,0.05644 -0.10583,0.110067 -0.0109,0.05362 -0.0166,0.08467 -0.0198,0.09349 -0.0124,0.03598 -0.0212,0.08043 0.0815,0.01341 0.0318,-0.02117 1.76177,-1.020585 1.82245,-1.058685 0.0582,-0.03634 0.0914,-0.05151 0.115,-0.107598 0.0233,-0.05574 0.0293,-0.06527 0.0416,-0.104423 0.0134,-0.04092 0.0268,-0.08467 -0.0776,-0.02363 m -14.85338,0.06799 c -0.16828,0.2413 -0.16405,0.547864 -0.17075,0.889706 -0.0289,-0.0702 -0.19614,-0.519642 -0.66957,-0.757767 -0.0342,-0.01728 -0.10054,0.02223 -0.10125,0.129824 -7.9e-4,0.06314 -0.0102,0.216251 0.0353,0.257175 0.0459,0.04092 0.1785,0.118885 0.20038,0.12982 0.0226,0.01093 0.0455,0.0113 0.0508,-0.01516 0.005,-0.02646 0.0314,-0.08819 0.0755,-0.04727 0.0317,0.02963 0.28822,0.233188 0.37853,0.524934 0.0755,0.254354 -0.52987,0.805743 -0.56197,0.831143 -0.0568,0.04516 -0.0367,0.07161 -0.01,0.05574 0.0272,-0.01659 0.0543,-0.02223 0.36759,-0.252235 0.25259,-0.186267 0.29704,-0.389467 0.3115,-0.543984 0.002,-0.0074 0.004,-0.01622 0.005,-0.02646 0.018,-0.187677 0.0159,-0.512585 0.0254,-0.611717 0.0134,-0.138993 0.0638,-0.427214 0.24377,-0.287866 0.0409,0.0314 0.0847,0.07373 0.0847,0.07373 0.0392,0.0448 0.0878,0.09595 0.10725,0.04092 0.0293,-0.08325 0.0501,-0.219779 0.009,-0.290688 -0.018,-0.03175 -0.24554,-0.295275 -0.38171,-0.09984 m 1.14653,0.339021 c -0.0462,0.121708 -0.23707,0.540454 -0.21837,1.039283 0.004,0.115358 0.0663,0.340781 0.21766,0.349602 0.0783,0.0013 0.18027,-0.06173 0.25718,-0.342194 0.0138,-0.0635 0.0226,-0.114654 0.0282,-0.139348 0.008,-0.0381 -0.0155,-0.08361 -0.0423,0.0028 -0.0603,0.171802 -0.21132,0.289629 -0.31821,0.05609 -0.0169,-0.04622 -0.0885,-0.257175 0.0582,-0.712965 0.0293,-0.08819 0.067,-0.220133 0.067,-0.220133 0.0328,-0.09948 -0.003,-0.154869 -0.0494,-0.03316 m 14.03702,0.947912 c -0.0342,0.08432 -0.17885,0.375356 -0.15663,0.717902 0.005,0.07902 0.0579,0.233539 0.17674,0.237421 0.0617,0 0.14147,-0.0448 0.19791,-0.238832 0.01,-0.04374 0.0159,-0.07867 0.0201,-0.0956 0.006,-0.02646 -0.0134,-0.0575 -0.0335,0.0024 -0.0452,0.118533 -0.16228,0.20179 -0.25012,0.04233 -0.0138,-0.0314 -0.073,-0.175683 0.0356,-0.491066 0.0219,-0.06103 0.0494,-0.152752 0.0494,-0.152752 0.0243,-0.06879 -0.005,-0.10654 -0.0395,-0.02188 m -11.18093,0.06385 c -0.036,0.08749 -0.18556,0.389819 -0.16263,0.745419 0.005,0.08184 0.0596,0.242003 0.18344,0.246237 0.0642,0 0.14676,-0.04657 0.20532,-0.24765 0.0102,-0.04551 0.0166,-0.08184 0.0208,-0.09948 0.006,-0.02752 -0.0138,-0.05962 -0.0346,0.0024 -0.0466,0.12347 -0.16827,0.20955 -0.25929,0.04409 -0.0148,-0.03245 -0.0765,-0.182385 0.0363,-0.50941 0.0229,-0.06385 0.0515,-0.15875 0.0515,-0.15875 0.0254,-0.07126 -0.005,-0.11077 -0.0409,-0.02294 m -5.64409,0.140758 c -0.0452,0.156279 -0.24271,0.695677 -0.17286,1.314095 0.0152,0.133702 0.1023,0.382765 0.2674,0.411692 -0.11536,0.168627 -0.54539,0.839258 -0.10301,1.35396 0.0413,0.05115 0.43921,0.496359 2.08315,0.134409 0.38982,-0.08114 0.95815,-0.268463 1.21779,-0.574321 0.0462,-0.05362 0.21414,-0.337608 0.121,-0.625123 -0.037,-0.113242 -0.21343,-0.406048 -0.24906,-0.464608 -0.0356,-0.05856 -0.0646,-0.06703 -0.0854,-0.0099 -0.0204,0.0575 -0.10019,0.348191 -0.10019,0.348191 0.0589,0.08361 0.32032,0.441325 0.24271,0.507294 -0.0773,0.06597 -0.76941,0.562681 -2.32762,0.562327 -0.17463,-2.65e-4 -0.98037,-0.06703 -0.90382,-0.683683 0.0116,-0.09243 0.0963,-0.385586 0.20884,-0.5461 0.004,-0.0078 0.006,-0.01553 0.007,-0.02257 0.078,-0.0441 0.15875,-0.160515 0.21026,-0.426509 0.0106,-0.08078 0.0169,-0.14464 0.0215,-0.176035 0.007,-0.04798 -0.0265,-0.102658 -0.0519,0.0074 -0.0589,0.219427 -0.2346,0.379942 -0.38911,0.09948 -0.0258,-0.05574 -0.13371,-0.311857 0.005,-0.892175 0.0282,-0.113242 0.0624,-0.280811 0.0624,-0.280811 0.0314,-0.127354 -0.0187,-0.192971 -0.0646,-0.03704 m 6.7317,-0.06879 -0.19508,0.267404 c -0.006,0.0088 -0.004,0.02045 0.004,0.02646 l 0.33267,0.24271 c 0.008,0.0056 0.0198,0.0035 0.0257,-0.0049 l 0.19508,-0.267407 c 0.006,-0.0085 0.005,-0.02045 -0.003,-0.02611 l -0.33302,-0.243065 c -0.008,-0.006 -0.0194,-0.0035 -0.0257,0.0049 m 13.40097,0.03739 c -0.0321,0.07832 -0.16581,0.347486 -0.14499,0.664634 0.005,0.07338 0.0529,0.216252 0.16333,0.219779 0.0571,-2.65e-4 0.13124,-0.04127 0.1831,-0.220838 0.009,-0.04022 0.0148,-0.07303 0.0187,-0.0889 0.005,-0.024 -0.012,-0.05327 -0.0307,0.0024 -0.042,0.109714 -0.15028,0.186618 -0.23142,0.03951 -0.013,-0.02928 -0.0684,-0.162629 0.0325,-0.454729 0.0201,-0.0568 0.0459,-0.14111 0.0459,-0.14111 0.0226,-0.06386 -0.005,-0.09878 -0.0363,-0.02082 m -6.20677,0.0085 -0.16828,0.23142 -0.32314,-0.236005 c -0.008,-0.0056 -0.0194,-0.0039 -0.0254,0.0046 l -0.19509,0.26811 c -0.006,0.0081 -0.005,0.02011 0.003,0.02574 l 0.33303,0.242713 c 0.008,0.0056 0.0194,0.0039 0.0257,-0.0046 l 0.16792,-0.231069 0.32315,0.235657 c 0.008,0.0056 0.0198,0.0039 0.0257,-0.0046 l 0.19509,-0.267758 c 0.006,-0.0085 0.005,-0.02011 -0.003,-0.02574 l -0.33302,-0.243062 c -0.008,-0.0056 -0.0194,-0.0039 -0.0257,0.0046 m 1.30316,0.416629 c -0.0127,0.04516 -0.0455,0.239538 -0.0533,0.279754 -0.008,0.03986 -0.007,0.07973 0.0127,0.113946 0.0194,0.03422 0.0702,0.152754 0.10689,0.249063 0.0363,0.09631 0.41416,0.824087 0.44908,0.888645 0.0349,0.06421 0.042,0.112538 0.007,0.155223 -1.2125,1.279525 -3.55283,2.066573 -3.62726,2.109965 -0.0751,0.04339 -0.0554,0.07726 0.0705,0.05503 0.18839,-0.03281 1.23966,-0.208846 1.53952,-0.353131 0.19791,-0.09525 0.88759,-0.433917 1.45204,-0.8763 -0.0155,0.1143 -0.03,0.281869 -0.0222,0.4953 0.0381,1.029052 0.9585,0.858308 1.1998,0.80504 0.72355,-0.15875 1.60902,-1.158875 1.68416,-1.359607 0.0741,-0.198966 0.085,-0.379589 0.0681,-0.537985 0.19085,-0.103013 0.60007,-0.432858 0.60007,-0.432858 0.0166,0.438502 0.36548,0.570441 0.47343,0.589491 0.50341,0.0762 0.756,-0.344664 0.86325,-0.481189 0.0914,0.240593 0.3122,0.287514 0.42545,0.309739 0.43462,0.08643 0.51893,-0.220839 0.54116,-0.290689 0.13652,-0.423686 -0.10901,-0.739423 -0.14041,-0.774348 -0.0318,-0.03528 -0.0476,-0.0019 -0.0586,0.03916 -0.0113,0.04022 -0.0462,0.193323 -0.0681,0.288573 0,0 0.0907,0.147815 0.12277,0.223308 0.0325,0.07549 -0.0159,0.116769 -0.10901,0.128411 -0.26423,0.03175 -0.47554,-0.119238 -0.54786,-0.189442 -0.0727,-0.06985 0.006,-0.192969 0.0649,-0.340783 0.0466,-0.118179 -0.0406,-0.132292 -0.10724,-2.65e-4 -0.22367,0.58914 -0.53869,0.652285 -0.6216,0.675217 -0.74612,0.2032 -0.68157,-0.479073 -0.67909,-0.59055 0.003,-0.112184 -0.0787,-0.07056 -0.17075,0.0032 -0.31397,0.251883 -0.56656,0.399698 -0.70273,0.460727 -0.11748,-0.228952 -0.28752,-0.372886 -0.35878,-0.425096 -0.80786,-0.588433 -0.87453,0.599369 -0.84984,0.727075 0.12277,0.504825 0.94791,0.198612 1.07703,0.183444 0.12912,-0.01516 0.0871,0.155927 0.0145,0.257175 -0.17885,0.250473 -0.38594,0.430035 -0.57255,0.582435 -0.79975,0.65264 -1.20157,0.600781 -1.32469,0.5969 -0.78528,-0.02222 -0.71331,-0.868537 -0.66957,-1.049512 0.23636,-0.200025 0.43886,-0.418042 0.55704,-0.641705 0.0483,-0.122766 0.13123,-0.40146 -0.0187,-0.751416 -0.0783,-0.154163 -0.32632,-0.586317 -0.32632,-0.586317 0,0 0.18274,0.0056 0.19967,0.0053 0.0177,0 0.0519,-0.01834 0.008,-0.06914 -0.0445,-0.05115 -0.42757,-0.433565 -0.45085,-0.464256 -0.0229,-0.03069 -0.0441,-0.05292 -0.0575,-0.0074 m 2.42253,1.752248 c 0,0 -0.11007,0.0635 -0.41734,0.04269 -0.25788,-0.01765 -0.23565,-0.117827 -0.20073,-0.155927 0.0388,-0.04163 0.35454,-0.240242 0.61807,0.113241 m -3.31682,-1.424868 c -0.0533,0.06632 -0.58949,0.76976 -0.58949,0.76976 l -0.39017,-0.277635 c 0,0 0.15945,-0.03986 0.18697,-0.04798 0.0275,-0.0081 0.0438,-0.04374 -0.006,-0.06985 -0.0501,-0.0254 -0.52035,-0.213077 -0.55598,-0.227541 -0.036,-0.01447 -0.049,-0.03069 -0.0522,0.0074 -0.003,0.0381 -0.008,0.347488 -0.008,0.347488 0,0 -0.007,0.02151 0.0335,0.04515 0.0409,0.02328 0.0815,0.07338 0.11501,0.106891 0.0339,0.03352 0.47096,0.378884 0.49212,0.39088 0,0 -0.21872,0.384527 -0.24659,0.685093 -0.0275,0.301273 0.005,0.71614 0.41663,0.582436 0.11078,-0.0314 0.5715,-0.214842 0.67451,-0.536221 0.0339,-0.118181 0.12842,-0.331965 -0.0261,-0.548923 -0.0893,-0.127352 -0.44873,-0.342194 -0.44873,-0.342194 0,0 0.27622,-0.382058 0.30232,-0.428979 0.0265,-0.04657 0.12806,-0.342546 0.13935,-0.414512 0.0109,-0.07162 0.0169,-0.107246 -0.0367,-0.04127 m -0.0942,1.622777 c -0.15275,0.125941 -0.47413,0.2921 -0.56409,0.300918 -0.0903,0.0085 -0.32985,-0.03563 -0.22578,-0.28081 0.0356,-0.07973 0.27517,-0.48895 0.27517,-0.48895 0.0892,0.04904 0.66746,0.343606 0.5147,0.468842 m -7.27075,-1.563159 c -0.013,0.04339 -0.0455,0.230717 -0.0533,0.269169 -0.008,0.03845 -0.008,0.07691 0.0124,0.109715 0.0198,0.03316 0.0705,0.147108 0.10689,0.239889 0.0367,0.09243 0.38594,0.817034 0.41628,0.881592 0.12171,0.261054 0.0519,0.281162 0.0173,0.322085 -1.33985,1.130652 -3.33269,1.671461 -3.43711,1.730023 -0.0748,0.04163 -0.055,0.07408 0.0709,0.05256 0.18838,-0.0314 1.07174,-0.100542 1.3716,-0.239184 0.29951,-0.139345 1.75048,-0.700968 2.1597,-1.4478 0.048,-0.118179 0.0977,-0.446262 -0.0522,-0.783166 -0.0783,-0.147461 -0.31185,-0.619125 -0.31185,-0.619125 0,0 0.18273,0.0049 0.20002,0.0046 0.0173,-2.65e-4 0.0519,-0.01728 0.007,-0.06632 -0.0444,-0.04939 -0.42757,-0.417335 -0.45085,-0.446617 -0.0233,-0.02963 -0.0444,-0.0508 -0.0572,-0.0074 m -5.09129,0.402518 -0.16827,0.230717 -0.3228,-0.235654 c -0.008,-0.0056 -0.0198,-0.0035 -0.0257,0.0049 l -0.19544,0.267406 c -0.006,0.0085 -0.005,0.02011 0.004,0.02574 l 0.33267,0.242713 c 0.008,0.006 0.0198,0.0042 0.0257,-0.0046 l 0.16827,-0.230717 0.32314,0.235305 c 0.008,0.006 0.0198,0.0042 0.0258,-0.0046 l 0.19508,-0.267403 c 0.006,-0.0085 0.005,-0.02011 -0.003,-0.02612 l -0.33303,-0.24271 c -0.008,-0.0056 -0.0198,-0.0035 -0.0257,0.0049 m 18.5928,1.722966 c -0.0311,0.08608 -0.0434,0.142524 -0.0402,0.175684 0.003,0.03281 0.0148,0.139348 0.0148,0.139348 -0.0325,0.02574 -0.16898,0.110773 -0.30586,0.01024 0.009,-0.02928 0.0268,-0.08855 0.0307,-0.121356 0.0152,-0.05045 -0.0159,-0.08819 -0.0409,-0.03563 -0.0247,0.05221 -0.0829,0.228248 -0.12559,0.267055 -0.0434,0.03986 -0.0938,0.185208 -0.4198,0.03739 -0.0571,-0.02188 -0.15699,-0.09631 -0.31257,0.06068 -0.35277,0.328084 -0.59619,0.353484 -0.99165,0.493538 -0.0476,0.02257 -0.14817,0.09772 -0.0289,0.08572 0.11924,-0.01198 0.62018,2.65e-4 0.89288,-0.312915 0.0572,-0.05539 0.12241,-0.201435 0.33902,-0.116416 0.1203,0.04551 0.34184,0.235656 0.58349,-0.140407 0.14253,0.09525 0.35878,0.0568 0.3937,-0.04762 0.0342,-0.10442 0.0737,-0.208843 0.0734,-0.280103 0,-0.07091 -0.007,-0.164749 -0.007,-0.164749 -0.005,-0.05609 -0.0243,-0.136525 -0.0557,-0.05045 m -17.07868,0.4064 c -0.036,0.08749 -0.18556,0.389467 -0.16298,0.745067 0.005,0.08185 0.0603,0.242006 0.1838,0.24624 0.0639,-2.65e-4 0.1464,-0.04657 0.20531,-0.24765 0.0102,-0.04551 0.0166,-0.08184 0.0205,-0.09948 0.006,-0.02752 -0.0134,-0.05962 -0.0342,0.0024 -0.0469,0.123121 -0.16827,0.20955 -0.25964,0.0441 -0.0148,-0.03246 -0.0762,-0.182034 0.0367,-0.50941 0.0226,-0.0635 0.0515,-0.158047 0.0515,-0.158047 0.0254,-0.07161 -0.005,-0.11077 -0.0409,-0.02328 m -0.54186,0.04127 c -0.0744,0.024 -1.65559,0.664281 -1.73814,0.69709 -0.0769,0.03069 -0.0977,0.05045 -0.11254,0.103365 -0.0145,0.05292 -0.0219,0.08361 -0.0254,0.09208 -0.0148,0.03528 -0.0335,0.06526 0.0801,0.01834 0.0547,-0.02257 1.62383,-0.646641 1.70215,-0.68086 0.0628,-0.02752 0.0945,-0.04586 0.12171,-0.10019 0.0268,-0.05398 0.0335,-0.06385 0.0483,-0.1016 0.0159,-0.04057 0.0346,-0.06491 -0.0762,-0.02822 m 7.09048,0.277283 c -0.0173,0.04057 -0.0293,0.07373 -0.0363,0.08996 -0.0106,0.02434 0.003,0.05786 0.0328,0.0028 0.0646,-0.107598 0.19262,-0.167569 0.25047,0.0021 0.008,0.03316 0.0409,0.183799 -0.11959,0.471311 -0.0317,0.05539 -0.0744,0.139348 -0.0744,0.139348 -0.036,0.06315 -0.0138,0.104775 0.0346,0.02857 0.048,-0.07585 0.23847,-0.333375 0.27693,-0.670632 0.008,-0.07761 -0.0155,-0.236712 -0.13053,-0.261408 -0.0603,-0.01024 -0.14535,0.01905 -0.23389,0.197908 m -1.87537,-0.117475 c -0.0699,0.03492 -0.89923,0.38735 -0.9712,0.428273 -0.0727,0.04022 -0.0981,0.05009 -0.11289,0.103365 -0.0145,0.05256 -0.0219,0.08361 -0.0254,0.09172 -0.0148,0.03528 -0.0264,0.07902 0.0801,0.01871 0.0332,-0.01905 0.87594,-0.377473 0.93556,-0.412044 0.0596,-0.03387 0.0952,-0.04586 0.12206,-0.10019 0.0268,-0.05362 0.0335,-0.0635 0.048,-0.101248 0.0159,-0.04022 0.0317,-0.08325 -0.0762,-0.02858"
       style="fill:#231f20;fill-opacity:1;fill-rule:evenodd;stroke:none;stroke-width:0.264583"
       id="path1" />
  </g>
</svg>
