<?xml version="1.0" encoding="UTF-8" standalone="no"?>
<!-- Created with Inkscape (http://www.inkscape.org/) -->

<svg
   width="20.585783mm"
   height="7.1264348mm"
   viewBox="0 0 20.585783 7.1264348"
   version="1.1"
   id="svg1"
   xmlns:inkscape="http://www.inkscape.org/namespaces/inkscape"
   xmlns:sodipodi="http://sodipodi.sourceforge.net/DTD/sodipodi-0.dtd"
   xmlns="http://www.w3.org/2000/svg"
   xmlns:svg="http://www.w3.org/2000/svg">
  <sodipodi:namedview
     id="namedview1"
     pagecolor="#ffffff"
     bordercolor="#666666"
     borderopacity="1.0"
     inkscape:showpageshadow="2"
     inkscape:pageopacity="0.0"
     inkscape:pagecheckerboard="0"
     inkscape:deskcolor="#d1d1d1"
     inkscape:document-units="mm" />
  <defs
     id="defs1" />
  <g
     inkscape:label="Layer 1"
     inkscape:groupmode="layer"
     id="layer1"
     transform="translate(-84.196627,-58.638304)">
    <path
       d="m 92.446368,58.663802 c -0.08043,0.03598 -1.249537,0.456848 -1.332793,0.49883 -0.08326,0.04198 -0.112536,0.05186 -0.131234,0.11077 -0.01905,0.05892 -0.02893,0.09278 -0.03387,0.102307 -0.01799,0.03845 -0.03352,0.08713 0.08925,0.02434 0.03845,-0.01939 1.223082,-0.446264 1.291874,-0.481541 0.06879,-0.03563 0.109008,-0.04727 0.141816,-0.107244 0.03281,-0.05927 0.04092,-0.0695 0.05927,-0.111479 0.01976,-0.04445 0.04022,-0.09208 -0.08431,-0.03598 m -2.757662,0.301625 c -0.15734,0.23354 -0.146405,0.524582 -0.145346,0.850196 -0.02963,-0.06597 -0.200729,-0.489656 -0.662869,-0.70485 -0.03387,-0.01553 -0.09666,0.02328 -0.0949,0.125942 2.65e-4,0.05997 -0.0056,0.206021 0.03951,0.243769 0.0448,0.03775 0.174977,0.109008 0.196495,0.118533 0.02188,0.01024 0.0441,0.01024 0.04868,-0.01553 0.0042,-0.02506 0.0254,-0.08184 0.07126,-0.04657 0.207078,0.157692 0.313618,0.30833 0.369358,0.418748 0.140052,0.237419 -0.02469,0.446265 -0.09137,0.541161 -0.07761,0.110421 -0.408162,0.396171 -0.488244,0.512233 -0.08043,0.116065 0.175684,-0.0448 0.482248,-0.318558 0.306562,-0.274109 0.223661,-1.066446 0.226484,-1.187802 0.0099,-0.132292 0.05221,-0.407459 0.228952,-0.2794 0.04022,0.02893 0.08326,0.06809 0.08326,0.06809 0.0388,0.04163 0.08678,0.08925 0.104775,0.03634 0.02646,-0.07973 0.04304,-0.209905 0.0021,-0.276932 -0.01799,-0.02963 -0.243417,-0.274814 -0.370417,-0.08537 m 7.350477,0.334788 c -0.0702,0.106537 -0.122415,0.363009 -0.02188,0.435679 0.09983,0.07338 0.245885,0.132646 0.245885,0.132646 -0.465667,0.570794 -0.784225,0.679802 -1.05692,0.839259 -0.07021,0.04127 -0.05609,0.07796 -0.01516,0.06703 0.02117,-0.0056 0.387704,-0.06279 0.815623,-0.387701 0.231775,-0.176038 0.371827,-0.47625 0.371827,-0.47625 0,0 0.116065,0.09666 0.131588,0.116416 0.03528,0.04339 0.05433,0.07549 0.07091,0.02963 0.06103,-0.16863 -0.0254,-0.270582 -0.107598,-0.323499 0,0 0.08572,-0.263173 -0.07162,-0.52705 -0.02611,-0.0441 -0.182033,-0.18556 -0.362654,0.09384 m 0.243417,0.07267 c 0.104775,0.09772 0.08925,0.257881 0.08502,0.294571 0,0 -0.134057,-0.0628 -0.194382,-0.08855 -0.05962,-0.02574 -0.09102,-0.0635 -0.0635,-0.1016 0.09243,-0.130175 0.137938,-0.12559 0.172863,-0.104423 m 6.279089,0.02294 c -0.0705,0.10654 -0.12241,0.363008 -0.0226,0.435681 0.10019,0.07338 0.2466,0.132644 0.2466,0.132644 -0.46637,0.570794 -1.38077,0.976842 -1.59844,1.146881 -0.0646,0.04904 -0.0561,0.07761 -0.0152,0.06667 0.0363,-0.0095 0.73307,-0.204612 1.37019,-0.750358 0.2921,-0.250121 0.28469,-0.269171 0.35842,-0.420865 0.0635,0.03246 0.10689,0.08537 0.13194,0.116417 0.0349,0.04339 0.0543,0.07585 0.0705,0.02963 0.061,-0.168627 -0.025,-0.270581 -0.10724,-0.323498 0,0 0.085,-0.26317 -0.0716,-0.52705 -0.0265,-0.04409 -0.18168,-0.18556 -0.36266,0.09384 m 0.24306,0.07303 c 0.10513,0.09737 0.0889,0.257527 0.085,0.294217 0,0 -0.13371,-0.06279 -0.19403,-0.08855 -0.0596,-0.02574 -0.0914,-0.0635 -0.0639,-0.1016 0.0928,-0.129821 0.13794,-0.125588 0.17286,-0.104069 m -1.78858,-0.165806 c -0.18309,0.232833 -0.19438,0.538691 -0.21872,0.879829 -0.0257,-0.07126 -0.17216,-0.528815 -0.63959,-0.790929 -0.0342,-0.01905 -0.10301,0.01728 -0.10936,0.124883 -0.004,0.0628 -0.0219,0.215196 0.0226,0.258233 0.0441,0.04339 0.17427,0.128059 0.1965,0.140055 0.0219,0.01236 0.0455,0.01376 0.0519,-0.01236 0.007,-0.02612 0.0363,-0.08678 0.0787,-0.04339 0.036,0.03598 0.26599,0.226835 0.38594,0.630415 0.0204,0.05362 0.0702,0.05891 0.0818,-0.01728 0.0275,-0.186619 0.0423,-0.511175 0.0575,-0.6096 0.0208,-0.138288 0.0868,-0.423334 0.26176,-0.275167 0.0399,0.03352 0.0822,0.07796 0.0822,0.07796 0.0374,0.04692 0.0836,0.100541 0.10654,0.04621 0.0342,-0.08149 0.0621,-0.216958 0.024,-0.289983 -0.0162,-0.03246 -0.23319,-0.306917 -0.38171,-0.118888 m -1.79987,-0.01093 c -0.0677,0.03951 -1.787525,1.032227 -1.857375,1.077031 -0.06985,0.04515 -0.09455,0.05644 -0.105834,0.110419 -0.01093,0.05362 -0.01659,0.08467 -0.01976,0.09349 -0.01236,0.03598 -0.02151,0.08043 0.08114,0.01342 0.0321,-0.02082 1.762119,-1.020586 1.822449,-1.058334 0.0582,-0.03634 0.0921,-0.05186 0.11536,-0.10795 0.0233,-0.05539 0.0293,-0.06562 0.042,-0.104068 0.0131,-0.04163 0.0265,-0.08537 -0.078,-0.024 m -8.228888,-0.0078 c -0.163338,0.07902 -0.325263,0.334433 -0.263525,0.43321 0.05186,0.08361 0.159102,0.15875 0.159102,0.15875 -0.05186,0.02928 -0.109715,0.0448 -0.125235,0.09913 -0.01553,0.05398 -0.02011,0.08643 -0.02151,0.106537 -0.0013,0.01939 -0.0049,0.03457 0.02646,0.02574 0.0314,-0.0088 0.04586,-0.0141 0.04586,-0.0141 0.09031,-0.04022 0.434975,-0.219075 0.666396,-0.273402 0.0074,-0.0019 0.02188,-0.07726 0.02963,-0.118885 0.0078,-0.04127 -0.03528,-0.0374 -0.102658,-0.02257 -0.06703,0.01516 -0.310444,0.08608 -0.439912,-0.024 -0.111125,-0.0949 -0.12559,-0.134056 -0.08608,-0.157691 0.03986,-0.024 0.15099,-0.09772 0.222605,-0.0067 0.03845,0.04798 0.06985,0.04868 0.08608,0.01693 0.01622,-0.03175 0.07197,-0.116417 0.05574,-0.150283 -0.01659,-0.03422 -0.0889,-0.151342 -0.252941,-0.07267 m 1.585735,0.04057 c -0.03634,0.09772 -0.187677,0.433916 -0.162983,0.830085 0.006,0.09137 0.06173,0.269523 0.188031,0.273756 0.06526,-2.64e-4 0.149577,-0.05256 0.208492,-0.276576 0.01024,-0.0508 0.01659,-0.09102 0.02082,-0.111125 0.0063,-0.03034 -0.01447,-0.06632 -0.03528,0.0032 -0.04727,0.137583 -0.170744,0.233537 -0.264584,0.05009 -0.01482,-0.03634 -0.07832,-0.2032 0.03563,-0.567618 0.02257,-0.07056 0.05186,-0.17639 0.05186,-0.17639 0.0254,-0.07973 -0.0056,-0.123119 -0.04198,-0.0254 m 1.946978,-0.03104 c -0.01765,0.03845 -0.150635,0.3302 -0.150635,0.3302 0.0021,0.01728 0.02998,0.148167 0.03422,0.19685 0.03881,0.430387 0.28575,2.973917 0.353483,3.777896 0.03351,0.395816 0.0575,0.751416 0.05539,0.941564 -0.0067,0.05891 0.01765,0.08184 0.04692,0.02612 0.01587,-0.02999 0.08149,-0.1524 0.113594,-0.479425 0.02363,-0.245888 0.01939,-0.625475 -0.02963,-1.14935 -0.0071,-0.07655 -0.263877,-2.733675 -0.263877,-2.733675 0,0 0.189441,0.19332 0.219781,0.228245 0.03069,0.03457 0.0695,0.01834 0.05362,-0.03634 -0.01587,-0.05433 -0.379587,-1.046692 -0.391229,-1.08091 -0.01164,-0.03457 -0.02363,-0.05962 -0.04163,-0.02117 m -1.05833,0.01058 c -0.01799,0.03951 -0.141113,0.31891 -0.141113,0.31891 0.01058,0.105127 0.18274,1.586441 0.286104,2.749902 0.01588,0.181681 0.179211,1.186391 0.136171,1.400529 -0.01199,0.06244 -0.04198,0.17286 -0.122767,0.311854 0.02716,-0.175329 0.02787,-0.49671 -0.189442,-1.029758 -0.37465,-0.7366 -1.462968,-1.442154 -1.872543,-2.161821 -0.0042,-0.0074 -0.0039,-0.01553 -0.0039,-0.01553 0,0 0.206375,0.08043 0.236362,0.08855 0.04586,0.0127 0.114652,0.01199 0.06914,-0.03422 -0.04551,-0.04621 -0.7239,-0.589492 -0.787752,-0.643467 -0.06315,-0.05398 -0.08855,-0.09208 -0.09102,-0.0388 -0.0021,0.05327 0.01659,0.40781 0.01728,0.440618 7.93e-4,0.03246 0.0024,0.05115 0.03951,0.0829 0.03704,0.03175 0.176742,0.207788 0.294217,0.369006 0.653698,0.834319 1.178279,1.277057 1.279173,1.371952 0.101248,0.09525 0.918985,0.864659 0.922514,1.55575 7.94e-4,0.06562 -0.0028,0.105834 -0.0078,0.156634 -0.24765,0.330906 -0.773641,0.764116 -1.90006,1.117248 -0.145698,0.07161 -0.09737,0.116768 0.0039,0.103716 0.1016,-0.0127 1.514121,-0.08996 2.049286,-0.991658 0.200025,-0.35419 0.301625,-0.785635 0.225425,-1.557515 -0.02328,-0.24271 -0.286809,-2.659591 -0.286809,-2.659591 0,0 0.188735,0.198614 0.219075,0.234598 0.03034,0.03563 0.0695,0.01905 0.05362,-0.03704 -0.01553,-0.05644 -0.375708,-1.075267 -0.386998,-1.110898 -0.01164,-0.03528 -0.02363,-0.06103 -0.04163,-0.02188 m -7.740298,0.04586 c -0.01834,0.03845 -0.156633,0.32244 -0.156633,0.32244 0.0071,0.0762 0.54751,3.604329 0.56374,3.811762 0.02222,0.28575 0.0448,0.453673 -0.05045,0.559858 -0.09525,0.10654 -1.053042,0.997305 -1.876425,0.957792 -0.195792,-0.01659 -1.265767,-0.140052 -0.72249,-1.512004 0.01553,-0.04586 0.02681,-0.08714 0.03387,-0.123825 0.0019,2.65e-4 0.0032,2.65e-4 0.0053,2.65e-4 0.09701,-0.0056 0.217665,-0.09384 0.286809,-0.449792 0.01093,-0.08008 0.01693,-0.144285 0.02151,-0.176035 0.0067,-0.04763 -0.02646,-0.102306 -0.05221,0.0078 -0.05891,0.219427 -0.234595,0.379942 -0.38876,0.09984 -0.02574,-0.05609 -0.133702,-0.312209 0.0049,-0.892879 0.02822,-0.11289 0.06244,-0.280459 0.06244,-0.280459 0.0314,-0.127 -0.01833,-0.192616 -0.06456,-0.03669 -0.04586,0.155927 -0.242713,0.694973 -0.173215,1.313743 0.0127,0.110773 0.07479,0.299863 0.189442,0.378532 -0.0085,0.01553 -0.01728,0.03316 -0.02646,0.05292 -0.134057,0.291394 -0.408869,1.43369 0.184856,1.848202 0.134408,0.08432 0.65546,0.560213 2.111727,-0.42545 0.257527,-0.184854 0.772935,-0.577143 0.666398,-1.372304 -0.03916,-0.341841 -0.471665,-3.171473 -0.471665,-3.171473 0,0 0.186973,0.19544 0.216959,0.230717 0.02998,0.03528 0.06914,0.01939 0.05397,-0.03563 -0.01516,-0.05468 -0.36689,-1.051277 -0.377825,-1.08585 -0.01164,-0.03422 -0.02294,-0.05962 -0.04127,-0.02151 m 1.003652,0.05962 c -0.03916,0.05574 -0.07832,0.156634 -0.09843,0.212725 -0.01939,0.05609 -0.01058,0.121357 0.03669,0.335847 0.12065,0.546452 0.280459,2.474028 0.29704,2.730852 0.0314,0.481189 0.09137,1.150408 0.187325,1.394531 0.09278,0.24765 0.403225,0.972254 1.722612,0.730954 0.642763,-0.117827 1.43228,-0.537279 1.43228,-0.537279 0,0 0.1905,0.381 0.621241,0.43321 0.168979,0.0064 0.521759,-0.03034 0.837846,-0.331258 0.03881,-0.03704 0.09525,-0.233892 0.09525,-0.357365 0,-0.12347 0.01939,-0.545393 -0.402871,-0.887587 -0.01728,-0.01304 -0.02574,0.0085 -0.03457,0.05186 -0.0085,0.04339 -0.03034,0.305504 -0.03034,0.305504 0.04551,0.07126 0.394054,0.521758 0.257881,0.597255 -0.136525,0.07585 -0.686506,0.420158 -1.095375,0.01516 0.03457,-0.04092 0.248708,-0.1905 0.276931,-0.5715 0.024,-0.16016 0.06068,-0.43321 -0.231423,-0.796925 -0.07373,-0.07338 -0.28575,-0.183798 -0.465666,0.106186 -0.179565,0.289983 -0.205669,0.785989 -0.0088,1.123598 0,0 -0.871715,0.582789 -1.941338,0.468135 -0.12065,-0.01693 -0.826204,-0.09525 -0.921454,-0.97155 -0.06703,-0.465312 -0.257881,-2.962979 -0.302683,-3.237442 -0.04445,-0.27446 -0.145698,-0.770112 -0.159456,-0.814916 -0.01376,-0.04515 -0.03352,-0.05609 -0.07267,0 m 3.964164,4.092223 c 0.01447,0.119591 -0.339373,0.339373 -0.339373,0.339373 0,0 -0.08078,-0.0755 -0.19191,-0.390525 -0.05644,-0.158398 0.02434,-0.2921 0.169685,-0.359834 0.14464,-0.06809 0.3429,0.254352 0.361598,0.410986 M 85.658573,59.43674 c -0.174273,0.221544 -0.185209,0.512585 -0.208492,0.837142 -0.02434,-0.06809 -0.163338,-0.503063 -0.60819,-0.752475 -0.0321,-0.01799 -0.09807,0.01659 -0.104068,0.118885 -0.0039,0.05962 -0.02082,0.20461 0.02117,0.245885 0.04057,0.03951 0.340784,0.144992 0.1778,0.3175 -0.07267,0.07691 -0.438504,0.4572 -0.516821,0.549275 -0.07902,0.09172 -0.08643,0.108657 -0.0021,0.06174 0.08431,-0.04692 0.5715,-0.236363 0.652287,-0.719667 0.0063,-0.0635 -0.0067,-0.110773 -0.02117,-0.142523 0.0067,0.0013 0.0141,0.0056 0.02151,0.01342 0.03422,0.03457 0.253294,0.2159 0.36689,0.600075 0.01977,0.0508 0.06703,0.05574 0.07796,-0.01659 0.02612,-0.177448 0.04057,-0.486481 0.05468,-0.579966 0.01976,-0.131234 0.0829,-0.402519 0.24906,-0.261761 0.03775,0.0321 0.07832,0.07408 0.07832,0.07408 0.03528,0.04445 0.07973,0.0956 0.101248,0.04409 0.03246,-0.07761 0.05927,-0.206375 0.02328,-0.27587 -0.01587,-0.03105 -0.22225,-0.2921 -0.36336,-0.113242 m 5.703004,0.930275 c -0.0642,0.04339 -2.477204,1.369483 -2.659238,1.529644 -0.09172,0.08043 -0.165454,0.204964 -0.187679,0.33796 -0.03175,0.191913 0.02328,0.378531 0.148167,0.393348 0.08714,0.01058 0.138641,0.05856 0.161573,0.08678 0.01024,0.01236 0.02363,0.0028 0.02752,-0.0056 0.09031,-0.198263 -0.0032,-0.316796 -0.17286,-0.358071 -0.06738,-0.01659 -0.100896,-0.107596 0.138994,-0.275519 0.221191,-0.155223 2.417939,-1.380419 2.467327,-1.417815 0.06597,-0.05009 0.106539,-0.06985 0.130175,-0.138993 0.02328,-0.06914 0.02963,-0.08149 0.04163,-0.129469 0.0127,-0.05045 0.0254,-0.104775 -0.0956,-0.02222 m 9.18492,0.280104 c -0.0346,0.08396 -0.17886,0.37465 -0.15663,0.717198 0.005,0.07902 0.0575,0.233185 0.17709,0.237419 0.061,0 0.14076,-0.0448 0.19756,-0.238829 0.01,-0.04339 0.0159,-0.07867 0.0201,-0.09596 0.006,-0.02611 -0.0134,-0.05715 -0.0335,0.0028 -0.0448,0.118886 -0.16228,0.201436 -0.24976,0.04233 -0.0145,-0.0314 -0.0734,-0.175684 0.0353,-0.490715 0.0219,-0.06103 0.0494,-0.152048 0.0494,-0.152048 0.0243,-0.06914 -0.005,-0.106537 -0.0395,-0.02222 m -14.980354,0.114654 c -0.03634,0.0956 -0.19332,0.427212 -0.145343,0.804686 0.0113,0.08714 0.08467,0.254351 0.229658,0.250473 0.07479,-0.0042 0.168627,-0.05927 0.225073,-0.277638 0.0092,-0.04904 0.01447,-0.08819 0.01834,-0.107596 0.0056,-0.02928 -0.01939,-0.06244 -0.04022,0.0053 -0.04727,0.134408 -0.184502,0.234244 -0.300918,0.0642 -0.01905,-0.03387 -0.10019,-0.189442 0.01198,-0.545746 0.02294,-0.06879 0.05045,-0.171804 0.05045,-0.171804 0.0254,-0.07796 -0.01236,-0.117475 -0.04904,-0.02188 m 18.287654,0.05821 c -0.0318,0.07832 -0.1651,0.347485 -0.14464,0.664279 0.004,0.07303 0.0533,0.2159 0.16333,0.219781 0.0571,0 0.13088,-0.04163 0.18309,-0.220839 0.01,-0.04057 0.0148,-0.07302 0.0187,-0.0889 0.006,-0.02434 -0.0124,-0.05292 -0.0307,0.0024 -0.042,0.109712 -0.15028,0.186618 -0.23142,0.03951 -0.0134,-0.02928 -0.0681,-0.162983 0.0328,-0.454731 0.0201,-0.05644 0.0452,-0.140759 0.0452,-0.140759 0.0229,-0.06385 -0.004,-0.09842 -0.0363,-0.02082 m -6.723247,0.0088 -0.19544,0.267052 c -0.006,0.0085 -0.0046,0.02045 0.0035,0.02611 l 0.33302,0.242711 c 0.0078,0.006 0.01939,0.0035 0.0254,-0.0046 l 0.168275,-0.231068 0.323146,0.235654 c 0.0081,0.006 0.01977,0.0035 0.02574,-0.0046 L 98.00939,61.09257 c 0.0063,-0.0088 0.0049,-0.02045 -0.0032,-0.02611 l -0.3331,-0.242689 c -0.0078,-0.006 -0.01939,-0.0039 -0.0254,0.0049 l -0.168629,0.230717 -0.322792,-0.235656 c -0.0081,-0.006 -0.02011,-0.0039 -0.02574,0.0049 m 1.819981,0.415573 c -0.0127,0.04551 -0.04551,0.240242 -0.05327,0.280104 -0.0078,0.03986 -0.0071,0.07973 0.01236,0.113948 0.01976,0.03422 0.07056,0.152752 0.107244,0.24906 0.03669,0.09631 0.414163,0.82409 0.449088,0.888649 0.03493,0.06421 0.04233,0.112535 0.0071,0.155223 -1.212495,1.279877 -3.55247,2.06657 -3.627612,2.109962 -0.07479,0.04339 -0.05503,0.07726 0.07091,0.05503 0.188384,-0.03281 1.23966,-0.208843 1.539521,-0.353129 0.197556,-0.09525 0.887589,-0.434271 1.452033,-0.8763 -0.01587,0.113946 -0.02998,0.281869 -0.02223,0.4953 0.0381,1.029052 0.958498,0.858309 1.199796,0.805037 0.7239,-0.15875 1.60867,-1.159226 1.68416,-1.359958 0.0741,-0.198612 0.0847,-0.379587 0.0681,-0.537633 0.19085,-0.10301 0.60007,-0.43321 0.60007,-0.43321 0.0166,0.438856 0.36548,0.570441 0.47343,0.589491 0.50377,0.07655 0.756,-0.34431 0.86289,-0.480835 0.0917,0.240594 0.31221,0.28716 0.42545,0.309737 0.43498,0.08643 0.51929,-0.220837 0.54222,-0.291042 0.13582,-0.423333 -0.10971,-0.739068 -0.14111,-0.773993 -0.0318,-0.03528 -0.0476,-0.0019 -0.0589,0.03881 -0.0109,0.04092 -0.0462,0.193321 -0.0677,0.288925 0,0 0.0907,0.147812 0.12276,0.223309 0.0325,0.07549 -0.0159,0.116768 -0.10901,0.128058 -0.26458,0.0321 -0.47554,-0.118888 -0.54786,-0.18909 -0.073,-0.06985 0.006,-0.193323 0.0649,-0.341135 0.0466,-0.11783 -0.0406,-0.132292 -0.10724,-2.65e-4 -0.22366,0.58914 -0.53834,0.65264 -0.6216,0.675217 -0.74577,0.2032 -0.68156,-0.478718 -0.67909,-0.59055 0.003,-0.111829 -0.079,-0.07055 -0.17075,0.0032 -0.31397,0.252238 -0.56691,0.40005 -0.70309,0.461082 -0.11676,-0.228952 -0.28716,-0.372886 -0.35877,-0.424744 -0.80751,-0.588788 -0.87418,0.599369 -0.84949,0.726369 0.12277,0.505531 0.94756,0.199318 1.07703,0.183798 0.12912,-0.01516 0.0868,0.155927 0.0145,0.257175 -0.17886,0.250118 -0.38558,0.429683 -0.57291,0.582435 -0.79939,0.652285 -1.200852,0.600781 -1.324325,0.5969 -0.785635,-0.02222 -0.713316,-0.86854 -0.669925,-1.049515 0.236363,-0.200025 0.439563,-0.417687 0.55739,-0.641702 0.04798,-0.122415 0.131233,-0.401815 -0.01871,-0.751768 -0.07832,-0.153459 -0.326319,-0.585965 -0.326319,-0.585965 0,0 0.182386,0.006 0.199674,0.0053 0.01728,0 0.0515,-0.01834 0.0074,-0.06914 -0.04445,-0.05116 -0.427215,-0.433565 -0.450498,-0.464256 -0.02328,-0.03069 -0.0441,-0.05292 -0.0575,-0.0078 m 2.422173,1.7526 c 0,0 -0.11007,0.06315 -0.41699,0.04268 -0.25788,-0.01765 -0.23601,-0.117826 -0.20037,-0.155926 0.0381,-0.04163 0.35383,-0.240242 0.61736,0.113241 m -3.316465,-1.424871 c -0.05327,0.06632 -0.589491,0.770115 -0.589491,0.770115 l -0.390174,-0.27799 c 0,0 0.159102,-0.03986 0.186974,-0.04798 0.02752,-0.0081 0.04339,-0.0441 -0.0067,-0.06985 -0.04974,-0.02574 -0.519994,-0.213077 -0.555625,-0.227541 -0.03598,-0.01447 -0.04904,-0.03069 -0.05221,0.0074 -0.0028,0.0381 -0.0085,0.347485 -0.0085,0.347485 0,0 -0.0071,0.02188 0.03387,0.0448 0.04092,0.02363 0.08114,0.07338 0.115007,0.106891 0.03387,0.03351 0.470958,0.378884 0.492477,0.391229 0,0 -0.219075,0.384175 -0.246944,0.685096 -0.02787,0.300919 0.0053,0.716492 0.416629,0.582435 0.110773,-0.03175 0.5715,-0.214841 0.674865,-0.536223 0.03316,-0.118178 0.127706,-0.332316 -0.02646,-0.54892 -0.08925,-0.127355 -0.449085,-0.342548 -0.449085,-0.342548 0,0 0.276577,-0.382059 0.302683,-0.428273 0.02646,-0.04692 0.128059,-0.343252 0.139346,-0.414512 0.01093,-0.07162 0.01659,-0.107598 -0.03669,-0.04163 m -0.09419,1.623131 c -0.152754,0.12559 -0.473781,0.291394 -0.564092,0.300215 -0.09031,0.0088 -0.329848,-0.03528 -0.225779,-0.280458 0.03598,-0.07937 0.275167,-0.48895 0.275167,-0.48895 0.08961,0.04903 0.667104,0.343252 0.514704,0.469193 m -11.923892,-1.0386 c -0.04551,0.155927 -0.24271,0.695325 -0.173212,1.313743 0.01659,0.143227 0.114652,0.418042 0.303035,0.414867 0.09666,-0.006 0.21731,-0.09384 0.286808,-0.450144 0.01058,-0.08008 0.01693,-0.143933 0.02151,-0.175683 0.0067,-0.04798 -0.02716,-0.102658 -0.05221,0.0078 -0.05856,0.219075 -0.234598,0.37959 -0.388761,0.09948 -0.02574,-0.05609 -0.133704,-0.312209 0.0049,-0.892882 0.02787,-0.112535 0.06209,-0.280103 0.06209,-0.280103 0.0314,-0.127355 -0.01834,-0.192617 -0.06421,-0.03704 m 4.810124,-0.251532 -0.195085,0.267407 c -0.006,0.0085 -0.0046,0.02045 0.0035,0.02611 l 0.332671,0.242713 c 0.0081,0.006 0.01977,0.0039 0.02574,-0.0046 l 0.195086,-0.267404 c 0.006,-0.0085 0.0049,-0.02045 -0.0032,-0.02611 L 90.87399,61.900444 c -0.0078,-0.006 -0.01976,-0.0035 -0.02574,0.0046 m 1.33844,0.141816 -0.195085,0.267407 c -0.006,0.0081 -0.0046,0.01976 0.0035,0.02574 l 0.332668,0.24271 c 0.0081,0.0056 0.01976,0.0039 0.02574,-0.0046 l 0.195085,-0.267759 c 0.0063,-0.0085 0.0046,-0.02011 -0.0032,-0.02574 l -0.333023,-0.243064 c -0.0081,-0.0056 -0.01976,-0.0035 -0.02574,0.0053 m -2.404181,0.307269 c -0.04798,0.134763 -0.252587,0.601488 -0.192617,1.137356 0.0141,0.123825 0.107598,0.36195 0.294923,0.359482 0.09666,-0.0049 0.218017,-0.08079 0.2921,-0.389115 0.01236,-0.0695 0.01939,-0.124883 0.02434,-0.152048 0.0078,-0.04163 -0.02469,-0.0889 -0.05186,0.0063 -0.06174,0.189796 -0.239184,0.32879 -0.388761,0.08573 -0.02434,-0.04868 -0.128058,-0.270227 0.01871,-0.773287 0.02999,-0.09772 0.06668,-0.242713 0.06668,-0.242713 0.03316,-0.109712 -0.01588,-0.166862 -0.0635,-0.03175 m 3.820938,0.892881 c -0.02822,0.09102 -0.150638,0.407107 -0.109008,0.768702 0.0099,0.08396 0.06985,0.244475 0.185912,0.242007 0.05962,-0.0032 0.134057,-0.05503 0.177448,-0.263525 0.0071,-0.04692 0.01093,-0.08432 0.01376,-0.103011 0.0046,-0.02822 -0.01622,-0.05997 -0.0321,0.0049 -0.03669,0.128058 -0.145347,0.22225 -0.23989,0.05856 -0.01588,-0.03246 -0.08184,-0.182388 0.0046,-0.522113 0.01765,-0.06597 0.03881,-0.164393 0.03881,-0.164393 0.01976,-0.07408 -0.01093,-0.112536 -0.03951,-0.02117 m 10.588981,0.509765 c -0.031,0.08643 -0.0427,0.142875 -0.0399,0.176035 0.003,0.03281 0.0148,0.139348 0.0148,0.139348 -0.0321,0.02574 -0.16863,0.11077 -0.30586,0.01024 0.009,-0.02928 0.0272,-0.08854 0.031,-0.121353 0.0145,-0.05045 -0.0166,-0.0882 -0.0413,-0.03598 -0.0247,0.05256 -0.0829,0.2286 -0.12594,0.267759 -0.043,0.03951 -0.0935,0.184501 -0.41981,0.03704 -0.0568,-0.02188 -0.15698,-0.09596 -0.31256,0.06068 -0.35278,0.327732 -0.59584,0.353483 -0.9913,0.49389 -0.0476,0.02188 -0.14817,0.09701 -0.0289,0.08537 0.11924,-0.01198 0.62054,2.65e-4 0.89288,-0.312912 0.0571,-0.05539 0.12241,-0.201438 0.33902,-0.116771 0.11994,0.04551 0.34184,0.235656 0.58314,-0.1397 0.14287,0.09455 0.35913,0.05645 0.3937,-0.04798 0.0346,-0.104775 0.0744,-0.208843 0.0737,-0.280106 -2.6e-4,-0.07091 -0.006,-0.164746 -0.006,-0.164746 -0.005,-0.05645 -0.0247,-0.136879 -0.0564,-0.0508 m -13.144152,0.872771 c -0.03351,0.08185 -0.173918,0.363714 -0.1524,0.696031 0.0053,0.07691 0.05609,0.226835 0.171805,0.230717 0.05962,0 0.137229,-0.04339 0.19191,-0.231775 0.0095,-0.04233 0.01553,-0.0762 0.01939,-0.09313 0.006,-0.0254 -0.0127,-0.05539 -0.0321,0.0024 -0.04374,0.115358 -0.157692,0.195791 -0.24271,0.04163 -0.01376,-0.03105 -0.07161,-0.170746 0.03422,-0.476604 0.02117,-0.05927 0.04798,-0.147812 0.04798,-0.147812 0.02363,-0.06703 -0.0046,-0.103365 -0.0381,-0.02151 m -3.34786,0.399346 c -0.06879,0.03704 -1.15711,0.44591 -1.228373,0.488244 -0.07126,0.04269 -0.09631,0.05362 -0.10936,0.106891 -0.0127,0.05327 -0.01939,0.08431 -0.02257,0.09278 -0.01376,0.03528 -0.02434,0.07937 0.08043,0.01587 0.03281,-0.01976 1.134533,-0.434623 1.193094,-0.470607 0.05856,-0.03598 0.09348,-0.04904 0.118885,-0.104068 0.02506,-0.05503 0.0314,-0.06456 0.04516,-0.103013 0.01447,-0.04092 0.02928,-0.08431 -0.07726,-0.02611"
       style="fill:#231f20;fill-opacity:1;fill-rule:evenodd;stroke:none;stroke-width:0.264583"
       id="path1-1" />
  </g>
</svg>
