<?xml version="1.0" encoding="UTF-8" standalone="no"?>
<!-- Created with Inkscape (http://www.inkscape.org/) -->

<svg
   width="16.771343mm"
   height="6.0825281mm"
   viewBox="0 0 16.771343 6.0825281"
   version="1.1"
   id="svg1"
   xmlns="http://www.w3.org/2000/svg"
   xmlns:svg="http://www.w3.org/2000/svg">
  <defs
     id="defs1" />
  <g
     id="layer1"
     transform="translate(-160.45252,-26.103297)">
    <path
       d="m 169.47688,26.272278 c -0.0702,0.10654 -0.12242,0.363008 -0.0222,0.435681 0.10019,0.07373 0.24624,0.132644 0.24624,0.132644 -0.46602,0.5715 -0.78493,0.680156 -1.05763,0.839965 -0.0702,0.04127 -0.0561,0.07796 -0.0148,0.06703 0.0212,-0.006 0.3877,-0.06279 0.81597,-0.388054 0.23178,-0.176038 0.37218,-0.47625 0.37218,-0.47625 0,0 0.11571,0.09666 0.13159,0.116062 0.0349,0.04375 0.0543,0.0762 0.0709,0.02999 0.0607,-0.168982 -0.0254,-0.270933 -0.1076,-0.323498 0,0 0.0854,-0.263173 -0.0716,-0.527402 -0.0265,-0.04445 -0.18204,-0.185563 -0.36301,0.09384 m 0.24341,0.07267 c 0.10513,0.09772 0.0893,0.258233 0.085,0.294923 0,0 -0.13405,-0.06315 -0.19438,-0.0889 -0.0596,-0.02574 -0.0914,-0.0635 -0.0635,-0.1016 0.0924,-0.130175 0.13794,-0.125238 0.17286,-0.104423 m 6.28156,0.02328 c -0.0699,0.10654 -0.12206,0.362657 -0.0222,0.435327 0.10054,0.07373 0.24659,0.132647 0.24659,0.132647 -0.46637,0.5715 -1.38112,0.977545 -1.59914,1.147585 -0.0646,0.04903 -0.0557,0.07796 -0.0152,0.06703 0.0367,-0.0095 0.73378,-0.204962 1.37125,-0.750711 0.2921,-0.250473 0.28433,-0.269168 0.35877,-0.421216 0.0632,0.03246 0.10689,0.08537 0.13159,0.116416 0.0349,0.04339 0.0543,0.07585 0.0705,0.02999 0.0607,-0.169334 -0.0251,-0.271286 -0.10724,-0.32385 0,0 0.0854,-0.263171 -0.0716,-0.527754 -0.0264,-0.0441 -0.18203,-0.185208 -0.36336,0.09454 m 0.24377,0.07232 c 0.10513,0.09772 0.0889,0.258233 0.085,0.294923 0,0 -0.13405,-0.06279 -0.19438,-0.08855 -0.06,-0.02574 -0.0914,-0.06385 -0.0635,-0.1016 0.0924,-0.130527 0.13794,-0.125587 0.17286,-0.104775 m -1.78929,-0.165452 c -0.18309,0.233185 -0.19508,0.539044 -0.21942,0.880182 -0.0257,-0.07162 -0.17216,-0.528815 -0.63959,-0.791282 -0.0342,-0.01905 -0.10301,0.01728 -0.10936,0.124883 -0.004,0.06279 -0.0219,0.215194 0.0222,0.258586 0.0445,0.04339 0.17498,0.128058 0.19721,0.140054 0.0219,0.01199 0.0448,0.01376 0.0515,-0.0127 0.007,-0.02574 0.0367,-0.08678 0.079,-0.04304 0.0356,0.03598 0.26635,0.226836 0.38559,0.630767 0.0208,0.05362 0.0706,0.05856 0.0822,-0.01765 0.0275,-0.186266 0.0423,-0.511175 0.0575,-0.6096 0.0208,-0.138287 0.0868,-0.423685 0.26211,-0.275166 0.0395,0.03316 0.0819,0.07761 0.0819,0.07761 0.0374,0.04727 0.084,0.100187 0.10689,0.04657 0.0339,-0.08149 0.0621,-0.217313 0.0243,-0.290338 -0.0166,-0.03245 -0.23389,-0.306916 -0.38206,-0.118885 m -1.80093,-0.01093 c -0.0677,0.03951 -1.78858,1.032579 -1.85808,1.077735 -0.0698,0.0448 -0.0949,0.0568 -0.10583,0.110067 -0.0113,0.05397 -0.0169,0.08502 -0.0198,0.09384 -0.0127,0.03563 -0.0215,0.08008 0.0811,0.01341 0.0317,-0.02082 1.76282,-1.021292 1.82315,-1.059037 0.0586,-0.03634 0.0921,-0.05221 0.11536,-0.10795 0.0233,-0.05539 0.0293,-0.06562 0.042,-0.104423 0.0127,-0.04127 0.0265,-0.08502 -0.078,-0.02363 m -4.35856,0.09031 c -0.0804,0.04127 -1.89195,1.014941 -1.9745,1.059391 -0.0815,0.0448 -0.10619,0.0635 -0.11889,0.124532 -0.0127,0.06032 -0.0187,0.09243 -0.0222,0.105127 -0.0116,0.04127 -0.0286,0.08326 0.0914,0.01482 0.037,-0.02117 1.87078,-0.995891 1.93498,-1.038577 0.0646,-0.04233 0.10372,-0.05821 0.13018,-0.121356 0.0261,-0.06244 0.0328,-0.07373 0.0466,-0.117475 0.0152,-0.04657 0.0335,-0.08961 -0.0875,-0.02646 m -1.72967,0.02045 c -0.0589,0.03881 -1.91135,1.025173 -2.07998,1.168754 -0.0843,0.07197 -0.15346,0.184502 -0.17533,0.305152 -0.0317,0.174625 0.0159,0.345369 0.12947,0.360892 0.0794,0.01058 0.12559,0.05538 0.14605,0.08114 0.009,0.01164 0.0215,0.0032 0.025,-0.0046 0.085,-0.179916 0.001,-0.28857 -0.1524,-0.328787 -0.0614,-0.01587 -0.0907,-0.09948 0.13053,-0.249766 0.20355,-0.137938 1.85808,-1.035405 1.90324,-1.068565 0.0607,-0.04516 0.0981,-0.06244 0.12029,-0.125235 0.0229,-0.06244 0.0286,-0.07408 0.0399,-0.117475 0.0123,-0.04586 0.0247,-0.0949 -0.0868,-0.02151 m -1.94804,0.133705 c -0.0804,0.04127 -2.90441,1.583266 -2.98696,1.62842 -0.0815,0.04445 -0.10619,0.0635 -0.11854,0.123825 -0.0127,0.06068 -0.019,0.09278 -0.0222,0.105482 -0.012,0.04092 -0.0286,0.08361 0.091,0.01482 0.037,-0.02117 2.8829,-1.564568 2.94746,-1.607256 0.0646,-0.04268 0.10372,-0.05856 0.12983,-0.121354 0.0265,-0.06244 0.0328,-0.07408 0.0469,-0.11783 0.0152,-0.04621 0.0335,-0.0896 -0.0875,-0.02611 m -3.08504,0.08678 c -0.12206,0.207434 -0.0981,0.455436 -0.0801,0.733071 -0.0286,-0.05468 -0.19649,-0.407458 -0.60219,-0.567619 -0.0293,-0.01164 -0.0808,0.02506 -0.0744,0.112536 0.004,0.05115 0.006,0.176037 0.0466,0.206023 0.0402,0.02963 0.15452,0.08431 0.17357,0.09102 0.019,0.0074 0.0384,0.0064 0.0409,-0.01553 0.002,-0.02188 0.0198,-0.07408 0.0586,-0.04339 0.0325,0.02468 0.23919,0.153458 0.37994,0.465666 0.0226,0.04092 0.0631,0.03951 0.0642,-0.02294 0.002,-0.153458 -0.0219,-0.416632 -0.0208,-0.497771 0.002,-0.113594 0.024,-0.350309 0.18097,-0.250471 0.0356,0.02294 0.0748,0.05397 0.0748,0.05397 0.0349,0.03387 0.0783,0.07161 0.091,0.0254 0.0187,-0.06915 0.0261,-0.181329 -0.0124,-0.236008 -0.0166,-0.02469 -0.22189,-0.22225 -0.32067,-0.05397 m 11.45152,1.024112 c -0.0342,0.08432 -0.17886,0.375005 -0.15664,0.71755 0.005,0.07902 0.0575,0.23354 0.1771,0.237773 0.0614,-2.65e-4 0.14111,-0.0448 0.19791,-0.238831 0.01,-0.04374 0.0159,-0.07867 0.0198,-0.09595 0.006,-0.02612 -0.0134,-0.0575 -0.0332,0.0024 -0.0452,0.118885 -0.16228,0.20179 -0.25012,0.04269 -0.0141,-0.03175 -0.0734,-0.175683 0.0353,-0.490712 0.0219,-0.06138 0.0497,-0.152754 0.0497,-0.152754 0.024,-0.06914 -0.005,-0.106537 -0.0399,-0.02223 m 3.30905,0.173214 c -0.0321,0.07832 -0.16545,0.347486 -0.14499,0.664634 0.005,0.07338 0.0533,0.216252 0.16334,0.219781 0.0575,0 0.13123,-0.04163 0.18344,-0.22084 0.009,-0.04057 0.0148,-0.07302 0.0187,-0.0889 0.006,-0.02434 -0.0124,-0.05327 -0.031,0.0021 -0.042,0.110067 -0.15029,0.186973 -0.23143,0.03951 -0.013,-0.02928 -0.0681,-0.162628 0.0328,-0.454728 0.0201,-0.05645 0.0459,-0.140759 0.0459,-0.140759 0.0222,-0.0635 -0.005,-0.09878 -0.0367,-0.02082 m -6.20959,0.0085 -0.16792,0.230717 -0.3235,-0.235657 c -0.008,-0.0056 -0.0194,-0.0035 -0.0254,0.0049 l -0.19544,0.267758 c -0.006,0.0081 -0.004,0.01976 0.004,0.02574 l 0.33302,0.242713 c 0.008,0.006 0.0194,0.0039 0.0254,-0.0046 l 0.16863,-0.230717 0.32314,0.235305 c 0.008,0.006 0.0198,0.0039 0.0258,-0.0046 l 0.19508,-0.267404 c 0.006,-0.0085 0.005,-0.02011 -0.003,-0.02612 l -0.33338,-0.243064 c -0.007,-0.0056 -0.019,-0.0035 -0.0257,0.0049 m -4.35539,0.121709 c -0.0307,0.0568 -0.0776,0.174273 -0.0307,0.317852 0.0473,0.143581 0.27552,0.922866 0.28716,1.021998 0.012,0.09878 0.0967,0.388408 -0.21872,0.395464 -0.0896,-0.0024 -0.36724,-0.03986 -0.45473,-0.242712 0.019,-0.06103 0.0261,-0.0702 0.0332,-0.10795 0.0166,-0.06138 -0.0307,-0.113242 -0.0755,-0.03528 -0.0445,0.07726 -0.13864,0.296333 -0.19544,0.367241 -0.0561,0.07056 -0.36477,0.339019 -0.54822,-0.05433 0.0187,-0.05186 0.0635,-0.169687 0.0776,-0.212021 0.0138,-0.04233 -0.005,-0.122412 -0.0564,-0.05398 -0.0519,0.06844 -0.39582,0.485071 -0.70168,0.46849 -0.0564,-0.0071 -0.22613,-0.04692 -0.40005,-0.395817 -0.0356,-0.0635 -0.0476,-0.01376 -0.0522,0.01199 -0.005,0.02611 -0.0469,0.294571 -0.0469,0.294571 0.0543,0.09172 0.28258,0.487185 0.29669,0.748594 0.007,0.07761 0,0.167216 -0.17427,0.317852 -0.17428,0.150637 -1.01177,0.814916 -1.77765,0.859366 -0.11077,0.0064 -0.73484,0.01871 -0.95603,-0.470958 -0.0448,-0.08713 -0.24024,-0.569735 0.0445,-1.158521 0.0286,-0.05856 -0.0445,-0.141112 -0.10583,-0.01376 -0.061,0.127 -0.53587,1.193446 0.12241,1.8034 0.0466,0.04269 0.60043,0.600779 1.9357,-0.127354 0.10371,-0.05609 0.83467,-0.517525 0.95814,-0.807154 0.0349,-0.08185 0.13652,-0.454732 0.10583,-0.643115 0.0423,-0.0095 0.31821,-0.03528 0.5394,-0.308327 0.0328,0.05644 0.17604,0.373944 0.50835,0.265994 0.10301,-0.03316 0.27552,-0.185915 0.34396,-0.360186 0.0141,0.0141 0.19297,0.280104 0.56727,0.242711 0.21696,-0.02363 0.34678,-0.391584 0.34678,-0.391584 0,0 0.33055,0.859367 1.54658,0.465667 0.20179,-0.06562 0.83431,-0.369358 1.09819,-0.68086 0.0568,-0.07902 0.13794,-0.283282 0.14676,-0.335492 0.01,-0.05151 -0.002,-0.06103 -0.0423,-0.02822 -0.0399,0.03316 -0.80397,0.70344 -1.35819,0.659342 -0.10195,-0.0081 -0.47519,-0.05468 -0.69956,-0.553157 -0.0374,-0.08361 -0.13158,-0.336902 -0.13158,-0.49671 -0.002,-0.05892 0.0282,-0.1016 0.13899,-0.157692 0.11042,-0.0568 0.61419,-0.294568 1.04281,-0.301625 0.11571,-0.0046 0.32703,0.0071 0.50871,0.06844 0.0988,0.03034 0.18132,0.0141 0.0988,-0.05186 -0.0825,-0.06597 -0.53904,-0.280458 -0.78422,-0.285046 -0.24448,-0.0046 -0.69674,0.02328 -0.98178,0.3556 -0.0776,0.09419 -0.31291,0.421571 -0.1905,0.897114 0.0328,0.106186 0.15558,0.458965 0.16722,0.480132 0,0 -0.32279,-0.110421 -0.45015,-0.513292 -0.0349,-0.117829 -0.23495,-1.029054 -0.38805,-1.259771 -0.0399,-0.07267 -0.0635,-0.0515 -0.0942,0.0049 m -2.46698,0.167923 c -0.0307,0.07479 -0.15875,0.33302 -0.139,0.636762 0.004,0.07056 0.0508,0.207433 0.15699,0.210963 0.0543,-2.65e-4 0.12524,-0.04022 0.17533,-0.212021 0.009,-0.0388 0.0141,-0.06985 0.0177,-0.08537 0.005,-0.02294 -0.0116,-0.05045 -0.0293,0.0024 -0.0402,0.105482 -0.14429,0.179211 -0.2219,0.0381 -0.0127,-0.02822 -0.0653,-0.156281 0.0314,-0.436033 0.019,-0.05433 0.0437,-0.135115 0.0437,-0.135115 0.0215,-0.06103 -0.004,-0.09454 -0.0349,-0.01976 m 8.12659,0.126645 c -0.013,0.04551 -0.0455,0.23989 -0.0536,0.280107 -0.008,0.03986 -0.007,0.07973 0.0127,0.113948 0.0194,0.03422 0.0702,0.152752 0.10689,0.24906 0.0363,0.09631 0.41487,0.824442 0.44944,0.889352 0.0349,0.06421 0.0423,0.112538 0.007,0.155223 -1.21355,1.279877 -3.55458,2.066925 -3.62973,2.110669 -0.0748,0.04375 -0.055,0.07726 0.0709,0.05539 0.18839,-0.03316 1.24037,-0.208846 1.54023,-0.353483 0.19791,-0.09525 0.88829,-0.434271 1.45274,-0.877006 -0.0152,0.1143 -0.03,0.282575 -0.0222,0.496006 0.0385,1.029404 0.95885,0.858308 1.20051,0.805392 0.72425,-0.159105 1.60937,-1.159582 1.68451,-1.360665 0.0744,-0.198615 0.085,-0.37959 0.0684,-0.537985 0.19085,-0.103365 0.60007,-0.433213 0.60007,-0.433213 0.0169,0.438856 0.36619,0.570796 0.47378,0.589492 0.50377,0.07655 0.75636,-0.344311 0.8636,-0.480484 0.0917,0.240597 0.31221,0.287163 0.42545,0.309388 0.43498,0.08678 0.51965,-0.22084 0.54222,-0.291041 0.13618,-0.423334 -0.10936,-0.739775 -0.14076,-0.7747 -0.0318,-0.03528 -0.048,-0.0013 -0.0589,0.03916 -0.0113,0.04057 -0.0462,0.193675 -0.0681,0.288925 0,0 0.0907,0.148167 0.12277,0.22366 0.0328,0.07549 -0.0155,0.116769 -0.10901,0.128058 -0.26423,0.03246 -0.47519,-0.119239 -0.54786,-0.189089 -0.0727,-0.06985 0.006,-0.193675 0.0646,-0.341487 0.0469,-0.118182 -0.0402,-0.13194 -0.1069,-2.65e-4 -0.22401,0.589492 -0.53904,0.652992 -0.62159,0.675217 -0.74648,0.203906 -0.68227,-0.478719 -0.67945,-0.59055 0.002,-0.111477 -0.0794,-0.07055 -0.1711,0.0032 -0.31397,0.252237 -0.56726,0.400404 -0.70343,0.461433 -0.11713,-0.229304 -0.28717,-0.373237 -0.35913,-0.425096 -0.80751,-0.589139 -0.87419,0.599721 -0.84985,0.727075 0.12277,0.505177 0.94827,0.198967 1.07774,0.183796 0.12912,-0.01516 0.0871,0.155575 0.0141,0.256823 -0.17885,0.250473 -0.38558,0.43039 -0.57291,0.58279 -0.8001,0.652637 -1.20156,0.601485 -1.32503,0.597252 -0.78564,-0.02188 -0.71332,-0.869244 -0.66992,-1.049867 0.23636,-0.200377 0.43956,-0.418042 0.55738,-0.642056 0.0483,-0.122767 0.13124,-0.401461 -0.0187,-0.752121 -0.0787,-0.153813 -0.32668,-0.585965 -0.32668,-0.585965 0,0 0.18274,0.0053 0.20003,0.0049 0.0173,-2.64e-4 0.0519,-0.01834 0.008,-0.06915 -0.0448,-0.0515 -0.42792,-0.433917 -0.45085,-0.464608 -0.0233,-0.03069 -0.0444,-0.05292 -0.0575,-0.0074 m 2.42323,1.753307 c 0,0 -0.11042,0.06315 -0.41769,0.04268 -0.25788,-0.01765 -0.23566,-0.117827 -0.20038,-0.155927 0.0385,-0.04163 0.35419,-0.240594 0.61807,0.113242 m -13.06054,-1.57339 c -0.0529,0.130529 -0.26952,0.579615 -0.26247,1.120071 0.002,0.124529 0.0628,0.370769 0.22543,0.384175 0.0847,0.0032 0.1965,-0.0628 0.28681,-0.364067 0.0162,-0.06844 0.0272,-0.123473 0.0339,-0.149931 0.01,-0.04092 -0.0141,-0.09102 -0.0455,0.0021 -0.0699,0.18415 -0.23566,0.307975 -0.34502,0.05221 -0.0169,-0.05045 -0.0885,-0.28081 0.0815,-0.770819 0.0339,-0.0949 0.078,-0.236714 0.078,-0.236714 0.0381,-0.107244 7.9e-4,-0.168275 -0.0526,-0.03704 m 9.74267,0.147815 c -0.0536,0.06632 -0.5902,0.770466 -0.5902,0.770466 l -0.39018,-0.278341 c 0,0 0.15911,-0.03951 0.18698,-0.04798 0.0275,-0.0081 0.0437,-0.04375 -0.006,-0.0695 -0.0501,-0.02574 -0.5207,-0.213432 -0.55633,-0.227542 -0.0356,-0.01482 -0.049,-0.03104 -0.0522,0.0071 -0.003,0.03775 -0.008,0.347486 -0.008,0.347486 0,0 -0.007,0.02188 0.0342,0.04516 0.0409,0.02328 0.0811,0.07338 0.11465,0.106892 0.0339,0.03387 0.47131,0.379235 0.49248,0.391228 0,0 -0.21872,0.38453 -0.24659,0.6858 -0.0279,0.300922 0.005,0.716492 0.41698,0.582438 0.11077,-0.03175 0.5715,-0.214841 0.67487,-0.536223 0.0335,-0.118533 0.12805,-0.332316 -0.0265,-0.549275 -0.0889,-0.127352 -0.44874,-0.342548 -0.44874,-0.342548 0,0 0.27587,-0.38241 0.30269,-0.428977 0.0261,-0.04692 0.1277,-0.3429 0.13899,-0.414515 0.0113,-0.07161 0.0166,-0.10795 -0.0363,-0.04163 m -0.0945,1.623835 c -0.1531,0.125941 -0.47413,0.291748 -0.56444,0.300566 -0.0903,0.0085 -0.3302,-0.03528 -0.22578,-0.280458 0.0356,-0.07973 0.27517,-0.489654 0.27517,-0.489654 0.0896,0.04939 0.6678,0.343604 0.51505,0.469546 m -8.15975,-0.413454 c -0.12206,0.207785 -0.0981,0.455435 -0.0804,0.73307 -0.0286,-0.05468 -0.1965,-0.407458 -0.60184,-0.567266 -0.0296,-0.01199 -0.0811,0.02506 -0.0748,0.112183 0.004,0.05151 0.006,0.176038 0.0466,0.206023 0.0402,0.02999 0.15487,0.08432 0.17392,0.09137 0.0191,0.0074 0.0381,0.006 0.0406,-0.01553 0.002,-0.02188 0.0198,-0.07444 0.0586,-0.04375 0.0328,0.02506 0.23918,0.153458 0.37994,0.465666 0.0226,0.04128 0.0632,0.03986 0.0642,-0.02294 0.002,-0.153458 -0.0215,-0.416632 -0.0204,-0.497417 10e-4,-0.113596 0.0233,-0.350663 0.18098,-0.250473 0.0356,0.02257 0.0744,0.05362 0.0744,0.05362 0.0353,0.03387 0.0787,0.07161 0.0914,0.02574 0.0183,-0.0695 0.0261,-0.181327 -0.0124,-0.23636 -0.0173,-0.02434 -0.22189,-0.221898 -0.32067,-0.05398 m 5.22781,0.954968 c -0.0166,0.04692 -0.0169,0.104069 0.012,0.145344 0.0342,0.04833 0.0952,0.06844 0.1531,0.08467 -0.14287,0.170391 -0.1785,0.499888 0.0452,0.618421 0.10512,0.05609 0.23812,0.05044 0.35595,0.02858 0.066,-0.01236 0.12453,-0.04269 0.18415,-0.07161 0.0272,-0.01304 0.0547,-0.02611 0.0836,-0.03598 0.0155,-0.0049 0.0275,-0.01024 0.0356,-0.024 0.005,-0.0078 0.007,-0.02151 -0.005,-0.02434 -0.013,-0.0042 -0.0332,0.0021 -0.0462,0.0046 -0.0187,0.0039 -0.0377,0.0074 -0.0564,0.01164 -0.043,0.0099 -0.0861,0.02117 -0.12947,0.02858 -0.0868,0.01553 -0.17674,0.02188 -0.26388,0.01199 -0.0825,-0.0095 -0.16298,-0.04516 -0.21131,-0.107598 -0.048,-0.06173 -0.0572,-0.144637 -0.0353,-0.218369 0.0455,-0.156281 0.20285,-0.263525 0.33867,-0.356658 0.0162,-0.01093 0.0353,-0.01834 0.0388,-0.03704 0.003,-0.01765 0.005,-0.03492 0.007,-0.05221 0.005,-0.0501 -0.0593,-0.0024 -0.0755,0.0092 -0.0593,0.04127 -0.1337,0.116065 -0.21343,0.111832 -0.0554,-0.0028 -0.11853,-0.02752 -0.15593,-0.0635 -0.006,-0.0064 -0.0152,-0.01304 -0.0102,-0.02222 0.006,-0.01236 0.0177,-0.02223 0.0286,-0.0314 0.0233,-0.02011 0.0504,-0.03669 0.0783,-0.05186 0.0522,-0.02822 0.0981,-0.04339 0.1584,-0.0388 0.01,7.94e-4 0.0222,0.0039 0.0314,-0.0024 0.0102,-0.0063 0.0123,-0.01905 0.005,-0.02787 -0.0159,-0.01728 -0.0561,-0.02469 -0.079,-0.02893 -0.11466,-0.02223 -0.23601,0.03387 -0.27341,0.140052 m 9.16517,0.02082 c -0.031,0.08608 -0.043,0.142875 -0.0399,0.175329 0.003,0.03352 0.0145,0.1397 0.0145,0.1397 -0.0317,0.02574 -0.16863,0.111125 -0.30551,0.01058 0.009,-0.02928 0.0268,-0.0889 0.031,-0.121708 0.0145,-0.0508 -0.0166,-0.08819 -0.0416,-0.03563 -0.0247,0.05256 -0.0825,0.228246 -0.12595,0.267404 -0.043,0.03951 -0.0935,0.185208 -0.4198,0.0374 -0.0568,-0.02188 -0.15699,-0.09631 -0.31256,0.06032 -0.35278,0.328084 -0.59655,0.353484 -0.99201,0.494242 -0.0476,0.02222 -0.14817,0.09737 -0.0286,0.08573 0.11889,-0.01199 0.62019,0 0.89288,-0.313267 0.0572,-0.05503 0.12242,-0.201438 0.33937,-0.116771 0.11995,0.04586 0.34185,0.236008 0.5835,-0.140052 0.14252,0.09454 0.35913,0.0568 0.3937,-0.04763 0.0346,-0.104775 0.0744,-0.209198 0.0741,-0.280106 -7.9e-4,-0.07126 -0.007,-0.165452 -0.007,-0.165452 -0.005,-0.05574 -0.0247,-0.136525 -0.0564,-0.05009 m -10.52619,0.04974 -0.19543,0.267404 c -0.006,0.0085 -0.005,0.02011 0.004,0.02574 l 0.33267,0.243062 c 0.008,0.006 0.0198,0.0039 0.0261,-0.0046 l 0.19508,-0.267759 c 0.006,-0.0085 0.005,-0.02011 -0.004,-0.02611 l -0.33267,-0.24271 c -0.008,-0.0056 -0.0198,-0.0039 -0.0257,0.0049 m -0.77823,0.144992 c -0.0282,0.07655 -0.0388,0.127352 -0.0363,0.156279 0.003,0.02963 0.0134,0.124531 0.0134,0.124531 -0.0286,0.02294 -0.15063,0.09913 -0.27234,0.0095 0.008,-0.02646 0.0236,-0.07902 0.0272,-0.108302 0.0134,-0.04516 -0.0145,-0.07867 -0.0367,-0.0321 -0.0222,0.04692 -0.0741,0.203554 -0.11253,0.238831 -0.0385,0.03528 -0.0836,0.164748 -0.3743,0.03316 -0.0508,-0.01976 -0.14041,-0.08573 -0.27905,0.05398 -0.31467,0.292455 -0.53163,0.315384 -0.88441,0.440622 -0.043,0.01976 -0.13229,0.08678 -0.0261,0.0762 0.10654,-0.01058 0.55351,0 0.79692,-0.2794 0.0508,-0.04939 0.10901,-0.179565 0.30233,-0.103717 0.10725,0.04057 0.3048,0.210254 0.5207,-0.125238 0.127,0.08467 0.32032,0.05116 0.35102,-0.04268 0.031,-0.09313 0.0663,-0.185915 0.066,-0.249767 -2.7e-4,-0.0635 -0.006,-0.147108 -0.006,-0.147108 -0.005,-0.05009 -0.0222,-0.12206 -0.0501,-0.0448"
       style="fill:#231f20;fill-opacity:1;fill-rule:evenodd;stroke:none;stroke-width:0.264583"
       id="path1" />
  </g>
</svg>
