<?xml version="1.0" encoding="UTF-8" standalone="no"?>
<!-- Created with Inkscape (http://www.inkscape.org/) -->

<svg
   width="22.263321mm"
   height="7.0031457mm"
   viewBox="0 0 22.263321 7.0031457"
   version="1.1"
   id="svg1"
   xmlns="http://www.w3.org/2000/svg"
   xmlns:svg="http://www.w3.org/2000/svg">
  <defs
     id="defs1" />
  <g
     id="layer1"
     transform="translate(-166.43328,-35.72758)">
    <path
       d="m 172.87134,36.971253 c -0.12312,0.06703 -0.38876,0.190145 -0.46779,0.575733 -0.0187,0.113593 -0.0586,0.281162 0.0589,0.382058 0.11747,0.100894 1.4665,1.110896 1.8923,1.703562 0.0713,0.09384 0.16898,0.228955 0.20249,0.307272 0.0335,0.07832 0.0307,0.10936 -0.006,0.14252 -0.0272,0.0254 -0.17075,0.178155 -0.50448,0.270581 -0.061,-0.164748 -0.15416,-0.326673 -0.29139,-0.443793 -0.0967,-0.08255 -0.33655,-0.250121 -0.54469,-0.08643 -0.20884,0.163336 -0.3683,0.637469 -0.16051,0.84949 0.17568,0.179562 0.56726,0.188029 0.93451,0.08784 0.0113,0.02963 0.0219,0.06032 0.0314,0.09278 0.0169,0.115006 -0.0388,0.131588 -0.078,0.179213 -0.0395,0.04727 -0.53305,0.652991 -1.19239,0.890762 -0.13758,0.04939 -0.8442,0.329141 -1.13171,-0.253294 -0.0557,-0.113593 -0.22119,-0.567618 0.0543,-1.231193 0.0187,-0.04727 0.0134,-0.08572 -0.006,-0.09384 0.0557,-0.06526 0.10019,-0.145344 0.12277,-0.246944 0.0289,-0.130881 0.0698,-0.559154 -0.28364,-0.842433 -0.0346,-0.03493 -0.0699,-0.06209 -0.085,0.01164 -0.0159,0.07408 -0.031,0.27587 -0.031,0.27587 0.0388,0.05821 0.248,0.329848 0.26352,0.376415 0.0155,0.04657 0.0392,0.08149 -0.0388,0.128058 -0.0776,0.04657 -1.12501,0.640644 -1.917,0.151342 0,0 -0.17921,-0.27164 -0.2039,-0.313973 -0.0247,-0.04304 -0.0473,-0.07514 -0.0614,-0.02787 -0.0138,0.04763 -0.0381,0.294217 -0.0381,0.294217 0.0459,0.0949 0.30656,0.619477 0.31891,0.703085 0.013,0.08431 0.009,0.231423 -0.13018,0.344665 -0.13829,0.113593 -1.41534,1.129948 -3.09562,1.43651 -0.0801,0.01693 -0.0589,0.05891 0.0335,0.05468 0.0924,-0.0042 1.14265,-0.04163 1.19733,-0.05891 0.0543,-0.01659 1.2894,-0.478719 1.84397,-1.058334 0.3489,-0.353128 0.27516,-0.877003 0.27516,-0.877003 0.0967,0.01939 0.6597,0.15875 1.29999,-0.06597 0.10725,-0.0381 0.29281,-0.08467 0.44132,-0.200728 -0.009,0.01765 -0.0183,0.03704 -0.0282,0.06068 -0.0864,0.218017 -0.42792,1.304219 0.16052,1.776236 0.0967,0.07726 0.76341,0.450146 1.69933,-0.307975 0.16968,-0.137229 0.70202,-0.576792 0.7373,-0.99695 0.006,-0.05927 0.005,-0.147109 -0.008,-0.248709 0.20037,-0.07303 0.3817,-0.177445 0.50235,-0.302328 0.096,-0.10019 0.11077,-0.263525 0.0801,-0.46849 -0.0519,-0.346427 -0.17956,-0.548217 -0.17956,-0.548217 0,0 0.33972,0.179565 0.65087,0.535517 0.3108,0.355952 0.82691,1.000477 0.93945,1.073856 0.11218,0.07408 0.49671,0.359127 1.02905,0.04163 0.18274,-0.125235 0.41628,-0.422981 0.41628,-0.422981 0.0515,0.131233 0.14499,0.516114 0.63535,0.512939 0.13441,-0.0032 0.55422,-0.03845 0.69215,-0.512939 0.0289,-0.134761 0.0543,-0.397227 0.0226,-0.727779 -0.0194,-0.214842 -0.35595,-2.888546 -0.35595,-2.888546 0,0 0.16969,0.1524 0.20144,0.185563 0.0317,0.03387 0.0699,0.01588 0.0519,-0.0381 -0.018,-0.05398 -0.37924,-0.921809 -0.39229,-0.955675 -0.013,-0.03387 -0.0258,-0.05821 -0.042,-0.01939 -0.0166,0.03951 -0.14605,0.324908 -0.14605,0.324908 0.004,0.02328 0.0339,0.09349 0.0547,0.237421 0.0212,0.142169 0.35136,2.704394 0.37183,2.880783 0.0208,0.176036 0.0804,0.620888 0.0804,0.690386 0,0.06985 0.0229,0.274814 -0.18521,0.351366 -0.0981,0.03422 -0.45826,0.131586 -0.6791,-0.04657 -0.0445,-0.03916 -0.1711,-0.160515 -0.17462,-0.504119 -0.004,-0.04657 -0.0141,-0.08185 -0.0497,-0.0321 -0.0356,0.0501 -0.35737,0.689681 -0.95956,0.689681 -0.0787,-0.0028 -0.3683,0.01553 -0.63853,-0.292806 -0.15134,-0.172861 -0.46849,-0.632529 -0.73907,-0.878063 -0.12065,-0.109008 -1.2827,-1.181806 -2.73896,-1.985433 -0.0367,-0.02506 -0.0702,-0.04763 -0.006,-0.100896 0.0646,-0.05327 1.99743,-1.135592 3.677,-1.397352 0.16193,-0.0254 0.50236,-0.02963 0.56868,0.110067 0.0159,0.05292 0.0459,0.155575 -0.0388,0.256468 -0.0847,0.100542 -0.52882,0.631825 -0.64806,0.893234 -0.0226,0.04092 -0.0205,0.09807 0.0275,0.0501 0.048,-0.04833 0.79022,-0.881592 0.88618,-1.332796 0.0113,-0.09595 0.073,-0.377471 -0.46779,-0.363361 -0.14005,0.0035 -1.9124,0.302332 -3.71051,1.24319 m 0.68897,3.254021 c 0.0448,0.0314 0.1263,0.08749 0.21132,0.182033 -0.0367,0.0046 -0.0758,0.0085 -0.11607,0.0113 -0.50976,0.02506 -0.52105,-0.0949 -0.46461,-0.159457 0.0557,-0.06456 0.19862,-0.126293 0.36936,-0.03387 M 172.88933,35.9401 c -0.0998,0.108656 -0.13053,0.183446 -0.16051,0.229658 -0.0409,0.06456 0.0106,0.09313 0.0571,0.04304 0.0466,-0.04974 0.0787,-0.09983 0.21448,-0.09596 0.13547,0.0032 0.46003,-0.0092 0.33867,0.08008 -0.121,0.08925 -0.2032,0.14111 -0.2032,0.14111 -0.0787,0.05645 -0.14852,0.161925 -0.009,0.103365 0.13899,-0.05891 0.32314,-0.151694 0.4639,-0.364067 0.0416,-0.06209 0.0892,-0.144639 -0.1016,-0.173214 -0.19085,-0.02893 -0.49953,-0.07303 -0.59972,0.03598 m 8.06309,0.369713 c -0.0706,0.106537 -0.12242,0.363008 -0.0226,0.435679 0.0998,0.07338 0.24624,0.132291 0.24624,0.132291 -0.46567,0.571148 -0.78423,0.680157 -1.05692,0.839965 -0.0702,0.04092 -0.0561,0.07761 -0.0152,0.06667 0.0215,-0.0056 0.38805,-0.06279 0.81597,-0.387702 0.23142,-0.176038 0.37148,-0.475898 0.37148,-0.475898 0,0 0.11606,0.09631 0.13158,0.11571 0.0353,0.04375 0.0543,0.0762 0.0713,0.02999 0.061,-0.168981 -0.0257,-0.270581 -0.10795,-0.323498 0,0 0.0857,-0.263173 -0.0713,-0.52705 -0.0265,-0.0441 -0.18238,-0.18556 -0.36265,0.09384 m 0.24306,0.07267 c 0.10513,0.09772 0.0889,0.257882 0.0847,0.294571 0,0 -0.13406,-0.0628 -0.19403,-0.08855 -0.0596,-0.0254 -0.091,-0.0635 -0.0632,-0.1016 0.0921,-0.129823 0.13758,-0.125235 0.17251,-0.104423 m -3.18171,0.816663 c -0.0515,0.02681 -2.32339,0.924632 -2.47297,1.026935 -0.0751,0.05151 -0.14147,0.137232 -0.17004,0.234247 -0.0409,0.1397 -0.0169,0.283633 0.0744,0.305858 0.0639,0.01553 0.0981,0.05609 0.11254,0.07902 0.006,0.0099 0.0169,0.0042 0.0208,-0.0013 0.085,-0.139348 0.0261,-0.236008 -0.096,-0.281868 -0.0487,-0.01871 -0.0656,-0.08926 0.12806,-0.192617 0.17815,-0.0949 2.2807,-0.937683 2.32022,-0.960966 0.0536,-0.0314 0.0854,-0.04198 0.10971,-0.09172 0.0236,-0.04903 0.0296,-0.0575 0.0423,-0.09208 0.0141,-0.03633 0.0286,-0.07549 -0.0691,-0.0254 m -3.24873,0.04516 c -0.0275,0.07584 -0.1464,0.33796 -0.11571,0.64135 0.007,0.0695 0.0586,0.204962 0.16439,0.20461 0.0547,-0.0024 0.12418,-0.0441 0.16792,-0.218017 0.007,-0.03916 0.0117,-0.0702 0.0145,-0.08572 0.005,-0.02328 -0.0134,-0.05045 -0.0293,0.0035 -0.0363,0.106188 -0.13759,0.18415 -0.22014,0.04586 -0.0138,-0.02787 -0.0709,-0.153458 0.0152,-0.436739 0.0173,-0.05468 0.0392,-0.136525 0.0392,-0.136525 0.0194,-0.06174 -0.008,-0.09419 -0.036,-0.01834 m 2.83563,0.759529 c -0.0208,0.06385 -0.0363,0.113241 -0.008,0.186621 0.0275,0.07303 0.10266,0.239183 0.11501,0.262818 0.0123,0.02363 0.0159,0.0508 -0.0258,0.06773 -0.0409,0.01765 -0.22965,0.05821 -0.26493,-0.142875 -0.0349,-0.201084 -0.0377,-0.259998 -0.0554,-0.293865 -0.0176,-0.03387 -0.0342,-0.0381 -0.0476,-0.0042 -0.0134,0.03387 -0.0215,0.104071 -0.0236,0.115358 -0.002,0.0113 -0.002,0.01976 0.005,0.03175 0.007,0.0127 0.0829,0.237421 0.0487,0.299508 -0.0342,0.06174 -0.2032,0.172863 -0.2921,0.05645 -0.042,-0.08114 -0.0166,-0.287515 -0.0166,-0.335847 0,-0.04868 -0.0152,-0.06491 -0.036,-0.02611 -0.0205,0.03951 -0.0318,0.06491 -0.0307,0.100542 7.9e-4,0.03457 0.006,0.185208 0.003,0.232833 -0.003,0.04727 0,0.201083 0.091,0.244475 0.0907,0.04304 0.2226,0.0028 0.32244,-0.185915 0.0776,0.112535 0.19508,0.11289 0.25823,0.08996 0.0533,-0.01976 0.11324,-0.100542 0.13088,-0.211315 0.0177,-0.111477 -0.0113,-0.188029 -0.0466,-0.250825 -0.0462,-0.07726 -0.0773,-0.207434 -0.0773,-0.207434 -0.0166,-0.04621 -0.0289,-0.09349 -0.0494,-0.02963 m 0.12594,1.174398 -0.16828,0.231069 -0.32314,-0.235654 c -0.008,-0.006 -0.0194,-0.0039 -0.0257,0.0046 l -0.19508,0.267759 c -0.006,0.0085 -0.005,0.01976 0.004,0.02574 l 0.33302,0.242712 c 0.008,0.006 0.019,0.0039 0.0254,-0.0046 l 0.16827,-0.230717 0.32315,0.235305 c 0.008,0.006 0.0194,0.0039 0.0257,-0.0046 l 0.19509,-0.267404 c 0.006,-0.0085 0.005,-0.02045 -0.003,-0.02611 l -0.33304,-0.242785 c -0.008,-0.006 -0.0194,-0.0039 -0.0257,0.0046 m 1.73319,-3.001082 c -0.0162,0.03916 -0.13723,0.33655 -0.13723,0.33655 0.003,0.01693 0.0363,0.146757 0.0427,0.195088 0.0561,0.428625 0.40711,2.959804 0.50765,3.759904 0.0497,0.394406 0.0878,0.748948 0.0938,0.938741 -0.005,0.05927 0.0208,0.08079 0.0476,0.024 0.0148,-0.02963 0.0751,-0.155223 0.0935,-0.483658 0.0141,-0.24624 -0.006,-0.625827 -0.0762,-1.147234 -0.0102,-0.07585 -0.37536,-2.720268 -0.37536,-2.720268 0,0 0.1972,0.185208 0.2286,0.219075 0.0321,0.03316 0.0702,0.01553 0.0526,-0.03845 -0.0183,-0.05398 -0.42228,-1.030462 -0.43533,-1.064328 -0.013,-0.03387 -0.0258,-0.05821 -0.0423,-0.01939 m 8.01441,0.2286 c -0.0699,0.106539 -0.12206,0.362656 -0.0222,0.435329 0.10055,0.07373 0.2466,0.132644 0.2466,0.132644 -0.46602,0.571148 -1.38078,0.976841 -1.59844,1.146881 -0.0646,0.04904 -0.0561,0.07796 -0.0152,0.06703 0.0363,-0.01024 0.73342,-0.20461 1.37054,-0.75071 0.29175,-0.250121 0.28399,-0.268817 0.35842,-0.420865 0.0631,0.03281 0.10654,0.08537 0.13159,0.116417 0.0349,0.04339 0.054,0.07585 0.0709,0.02998 0.061,-0.169333 -0.0254,-0.271285 -0.1076,-0.323495 0,0 0.0854,-0.263525 -0.0716,-0.527757 -0.0265,-0.0441 -0.18204,-0.184856 -0.36301,0.09454 m 0.24377,0.07232 c 0.10477,0.09772 0.0889,0.257879 0.0847,0.294568 0,0 -0.13405,-0.06244 -0.19402,-0.08819 -0.0596,-0.02574 -0.0914,-0.06385 -0.0635,-0.101955 0.0924,-0.12982 0.13793,-0.125587 0.17286,-0.10442 m -1.78859,-0.165455 c -0.18344,0.232834 -0.19473,0.539047 -0.21907,0.87983 -0.0257,-0.07126 -0.17215,-0.528815 -0.63959,-0.790575 -0.0339,-0.01939 -0.10301,0.01728 -0.10936,0.124883 -0.004,0.06244 -0.0219,0.214842 0.0222,0.258234 0.0444,0.04304 0.17498,0.127703 0.19685,0.140051 0.0219,0.01199 0.0455,0.01376 0.0519,-0.0127 0.007,-0.02646 0.0363,-0.08678 0.079,-0.04339 0.0356,0.03598 0.26599,0.226835 0.38559,0.630414 0.0205,0.05362 0.0702,0.05891 0.0815,-0.01728 0.0279,-0.186618 0.043,-0.511175 0.0575,-0.6096 0.0212,-0.137935 0.0871,-0.423333 0.26211,-0.275166 0.0399,0.03351 0.0822,0.07832 0.0822,0.07832 0.037,0.04657 0.0836,0.09984 0.10689,0.04586 0.0339,-0.08114 0.0617,-0.216606 0.024,-0.289631 -0.0169,-0.03281 -0.23354,-0.306917 -0.38171,-0.11924 m -1.8006,-0.01096 c -0.0674,0.03951 -1.78753,1.032227 -1.85702,1.077384 -0.0698,0.0448 -0.0945,0.05609 -0.10548,0.110066 -0.0113,0.05398 -0.0169,0.08467 -0.0201,0.09349 -0.0124,0.03598 -0.0215,0.08043 0.0811,0.01341 0.0321,-0.02082 1.76212,-1.020585 1.8228,-1.058333 0.0582,-0.03633 0.0917,-0.05221 0.115,-0.10795 0.0233,-0.05503 0.0293,-0.06562 0.0416,-0.104423 0.0134,-0.04092 0.0265,-0.08467 -0.078,-0.02363 m -14.04091,0.270934 c -0.17427,0.221191 -0.18556,0.512585 -0.20849,0.836789 -0.0243,-0.06773 -0.16369,-0.503062 -0.60854,-0.752123 -0.0325,-0.01834 -0.0981,0.01622 -0.10407,0.118182 -0.004,0.06032 -0.0208,0.204962 0.0212,0.246237 0.0409,0.03951 0.34113,0.144992 0.17815,0.3175 -0.073,0.07726 -0.4385,0.457554 -0.51717,0.549275 -0.0787,0.09172 -0.0864,0.108656 -0.002,0.06174 0.0843,-0.04692 0.5715,-0.236009 0.65229,-0.719667 0.006,-0.06315 -0.006,-0.110773 -0.0212,-0.142523 0.007,0.0013 0.0141,0.0056 0.0219,0.01376 0.0339,0.03422 0.25259,0.215194 0.36689,0.599723 0.0194,0.0508 0.0667,0.05609 0.0776,-0.01659 0.0265,-0.177448 0.0409,-0.486127 0.055,-0.579967 0.0194,-0.131233 0.0822,-0.402518 0.24906,-0.261408 0.0378,0.03175 0.0776,0.07408 0.0776,0.07408 0.036,0.04445 0.0801,0.09525 0.10196,0.04374 0.0325,-0.07761 0.0589,-0.206375 0.0229,-0.27587 -0.0159,-0.03069 -0.22225,-0.2921 -0.36301,-0.11289 m 1.06257,1.030465 c -0.037,0.116768 -0.19721,0.521051 -0.14323,0.983895 0.0127,0.106892 0.091,0.312208 0.24236,0.309033 0.078,-0.0046 0.17568,-0.07091 0.23212,-0.337608 0.009,-0.05962 0.0141,-0.10795 0.018,-0.131585 0.006,-0.03598 -0.0212,-0.07655 -0.0423,0.006 -0.0476,0.164041 -0.18979,0.285043 -0.31291,0.07549 -0.0205,-0.04163 -0.10654,-0.232833 0.007,-0.667808 0.0233,-0.08431 0.0512,-0.209902 0.0512,-0.209902 0.0254,-0.09525 -0.0141,-0.143933 -0.0519,-0.02752 m 13.30889,0.05362 c -0.0346,0.08431 -0.1785,0.37465 -0.15663,0.717198 0.005,0.07902 0.0575,0.23354 0.17674,0.237419 0.0614,-2.65e-4 0.14111,-0.04515 0.19791,-0.238477 0.01,-0.04374 0.0159,-0.07902 0.0201,-0.09596 0.006,-0.02646 -0.0134,-0.0575 -0.0335,0.0024 -0.0448,0.118886 -0.16228,0.201788 -0.24976,0.04269 -0.0141,-0.0314 -0.0737,-0.176036 0.0353,-0.490715 0.0219,-0.06138 0.0494,-0.1524 0.0494,-0.1524 0.0247,-0.06914 -0.005,-0.106537 -0.0395,-0.02222 m 3.30765,0.173215 c -0.0321,0.07796 -0.16581,0.346781 -0.14535,0.663927 0.005,0.07338 0.0533,0.216254 0.16404,0.219781 0.0568,-2.65e-4 0.13053,-0.04127 0.18274,-0.22084 0.009,-0.04022 0.0148,-0.07303 0.0183,-0.0889 0.006,-0.02434 -0.012,-0.05292 -0.0307,0.0024 -0.0416,0.109712 -0.14993,0.18697 -0.23107,0.03951 -0.0131,-0.02928 -0.0684,-0.162632 0.0324,-0.454377 0.0201,-0.0568 0.0459,-0.141113 0.0459,-0.141113 0.0226,-0.0635 -0.004,-0.09842 -0.0363,-0.02045 m -6.20677,0.0081 -0.16828,0.231069 -0.32279,-0.236008 c -0.008,-0.0053 -0.0198,-0.0032 -0.0261,0.0049 l -0.19474,0.267759 c -0.006,0.0081 -0.005,0.01976 0.003,0.02574 l 0.33302,0.24271 c 0.008,0.006 0.0194,0.0039 0.0254,-0.0049 l 0.16863,-0.230365 0.32314,0.235302 c 0.008,0.006 0.0194,0.0039 0.0258,-0.0049 l 0.19473,-0.267407 c 0.006,-0.0081 0.005,-0.02011 -0.003,-0.02574 l -0.33303,-0.243065 c -0.008,-0.0053 -0.0194,-0.0032 -0.0257,0.0049 m 1.30316,0.416277 c -0.013,0.04516 -0.0451,0.23989 -0.0533,0.279752 -0.008,0.03986 -0.007,0.07973 0.0124,0.113948 0.0198,0.03457 0.0705,0.152752 0.10724,0.24906 0.0367,0.09631 0.41451,0.82409 0.44909,0.888648 0.0349,0.06456 0.0423,0.11289 0.007,0.155223 -1.21285,1.279877 -3.55283,2.066571 -3.62762,2.109963 -0.0748,0.04339 -0.055,0.07761 0.0709,0.05539 0.18839,-0.03316 1.23967,-0.208846 1.53917,-0.353483 0.19791,-0.0949 0.8883,-0.433917 1.45239,-0.8763 -0.0155,0.113946 -0.03,0.282221 -0.0219,0.4953 0.0378,1.029404 0.95814,0.858308 1.19944,0.805392 0.72355,-0.15875 1.60867,-1.15923 1.68416,-1.359959 0.0741,-0.198966 0.085,-0.379941 0.0681,-0.537987 0.1905,-0.103011 0.59972,-0.433211 0.59972,-0.433211 0.0169,0.438857 0.36619,0.570794 0.47378,0.589844 0.50342,0.0762 0.75601,-0.34431 0.8629,-0.481187 0.0917,0.240593 0.31221,0.287512 0.42545,0.309737 0.43462,0.08643 0.51929,-0.220837 0.54222,-0.290687 0.13582,-0.423688 -0.10972,-0.739423 -0.14111,-0.774348 -0.0317,-0.03528 -0.0476,-0.0013 -0.0586,0.03916 -0.0113,0.04057 -0.0466,0.193323 -0.0681,0.288925 0,0 0.0907,0.147815 0.12277,0.223308 0.0325,0.07514 -0.0155,0.116417 -0.10901,0.128059 -0.26423,0.0321 -0.47519,-0.11924 -0.54787,-0.189442 -0.0727,-0.0695 0.006,-0.192969 0.0649,-0.340783 0.0466,-0.118182 -0.0406,-0.132292 -0.10724,-2.65e-4 -0.22401,0.589137 -0.53834,0.652637 -0.62124,0.674862 -0.74613,0.203555 -0.68157,-0.47907 -0.67945,-0.59055 0.003,-0.111125 -0.0787,-0.0702 -0.17075,0.0035 -0.31397,0.252235 -0.56691,0.40005 -0.70273,0.460375 -0.11712,-0.2286 -0.28751,-0.372533 -0.35913,-0.424392 -0.80751,-0.589139 -0.87383,0.599369 -0.84949,0.726721 0.12277,0.505179 0.94792,0.198967 1.07703,0.183446 0.12912,-0.01516 0.0871,0.155927 0.0145,0.257175 -0.17922,0.250471 -0.38559,0.429683 -0.57256,0.582435 -0.79975,0.652286 -1.20121,0.600782 -1.32468,0.5969 -0.78564,-0.02188 -0.71367,-0.868539 -0.66993,-1.049514 0.23636,-0.200025 0.43956,-0.417688 0.55774,-0.64135 0.0476,-0.122767 0.13053,-0.401813 -0.0191,-0.751769 -0.0787,-0.154165 -0.32631,-0.585965 -0.32631,-0.585965 0,0 0.18273,0.0056 0.19967,0.0049 0.0173,-2.65e-4 0.0519,-0.01799 0.007,-0.06914 -0.0441,-0.05115 -0.42756,-0.433564 -0.45049,-0.464256 -0.0233,-0.03069 -0.0441,-0.05292 -0.0575,-0.0074 m 2.42253,1.752248 c 0,0 -0.11007,0.0635 -0.41769,0.04268 -0.25753,-0.01728 -0.23565,-0.117475 -0.20002,-0.155927 0.0381,-0.04198 0.35383,-0.240596 0.61771,0.113242 M 169.78736,38.3195 c -0.03,0.08255 -0.15839,0.366536 -0.12523,0.694971 0.007,0.07585 0.0632,0.22225 0.17815,0.221898 0.0589,-0.0021 0.13371,-0.04798 0.18168,-0.236008 0.008,-0.04233 0.0124,-0.0762 0.0159,-0.09313 0.005,-0.0254 -0.0148,-0.05468 -0.0321,0.0039 -0.0388,0.11571 -0.14888,0.199318 -0.23884,0.04974 -0.0148,-0.02999 -0.0762,-0.166512 0.0169,-0.473075 0.0187,-0.05962 0.0423,-0.148166 0.0423,-0.148166 0.0208,-0.06703 -0.008,-0.101955 -0.0388,-0.02011 m 12.18177,0.262467 c -0.0533,0.06597 -0.58949,0.76976 -0.58949,0.76976 l -0.38982,-0.27799 c 0,0 0.15875,-0.03951 0.18627,-0.04798 0.0279,-0.0081 0.0437,-0.04374 -0.006,-0.0695 -0.0501,-0.02574 -0.52034,-0.213429 -0.55597,-0.227542 -0.036,-0.01482 -0.049,-0.03104 -0.0519,0.0071 -0.004,0.0381 -0.008,0.347485 -0.008,0.347485 0,0 -0.007,0.02188 0.0335,0.04516 0.0413,0.02328 0.0815,0.07338 0.11535,0.10654 0.0332,0.03387 0.47061,0.379235 0.49213,0.391228 0,0 -0.21908,0.38453 -0.24659,0.685449 -0.0279,0.300918 0.005,0.715785 0.41627,0.582083 0.11078,-0.0314 0.57186,-0.214842 0.67487,-0.535869 0.0332,-0.118533 0.12806,-0.332316 -0.0265,-0.548923 -0.0892,-0.127352 -0.44873,-0.3429 -0.44873,-0.3429 0,0 0.27587,-0.381706 0.30233,-0.428273 0.0268,-0.04692 0.12806,-0.3429 0.13934,-0.414512 0.0109,-0.07162 0.0166,-0.107598 -0.0367,-0.04127 m -0.0942,1.622777 c -0.15275,0.12559 -0.47413,0.291748 -0.56409,0.300567 -0.0903,0.0085 -0.32984,-0.03563 -0.22578,-0.280811 0.0356,-0.07937 0.27517,-0.489304 0.27517,-0.489304 0.0896,0.04974 0.66746,0.343606 0.5147,0.469548 m -9.31298,-1.4986 c -0.0289,0.07938 -0.1524,0.352425 -0.12065,0.667808 0.007,0.07303 0.061,0.213784 0.17145,0.213432 0.0568,-0.0021 0.12912,-0.04622 0.17463,-0.22719 0.007,-0.04057 0.012,-0.07303 0.0152,-0.08925 0.005,-0.024 -0.0141,-0.05221 -0.0307,0.0035 -0.0374,0.111477 -0.14288,0.19191 -0.2293,0.04763 -0.0141,-0.02858 -0.0737,-0.159808 0.0162,-0.454377 0.018,-0.0575 0.0406,-0.142523 0.0406,-0.142523 0.0198,-0.06456 -0.008,-0.09807 -0.0374,-0.01905 m -4.33846,0.83961 c -0.0413,0.142171 -0.22119,0.634296 -0.15769,1.19874 0.0148,0.130527 0.10477,0.381352 0.27622,0.378177 0.0886,-0.0049 0.19861,-0.08537 0.26176,-0.410634 0.01,-0.07303 0.0155,-0.131233 0.0198,-0.16016 0.006,-0.04374 -0.0243,-0.09384 -0.0476,0.0071 -0.0536,0.200025 -0.21414,0.346778 -0.35489,0.09066 -0.0233,-0.0508 -0.12242,-0.284337 0.005,-0.81421 0.0257,-0.103011 0.0568,-0.256117 0.0568,-0.256117 0.0286,-0.116417 -0.0166,-0.175683 -0.0589,-0.03352 m 19.8822,1.220613 c -0.0314,0.08643 -0.043,0.143227 -0.0402,0.176035 0.003,0.03316 0.0148,0.1397 0.0148,0.1397 -0.0321,0.0254 -0.16898,0.110419 -0.30586,0.0099 0.009,-0.02893 0.0272,-0.08855 0.031,-0.121354 0.0148,-0.05045 -0.0166,-0.0882 -0.0413,-0.03563 -0.0247,0.05257 -0.0829,0.227893 -0.12594,0.267406 -0.0427,0.03951 -0.0935,0.184854 -0.41946,0.03704 -0.0572,-0.02151 -0.15734,-0.0956 -0.31291,0.06103 -0.35243,0.327379 -0.59584,0.353131 -0.99131,0.493538 -0.0476,0.02223 -0.14816,0.09737 -0.0289,0.08537 0.11924,-0.01199 0.62018,2.65e-4 0.89288,-0.312912 0.0572,-0.05539 0.12241,-0.201438 0.33902,-0.116417 0.11994,0.04551 0.34184,0.235654 0.58314,-0.140054 0.14287,0.09455 0.35912,0.0568 0.3937,-0.04762 0.0346,-0.104775 0.0744,-0.209196 0.0741,-0.280104 -7.9e-4,-0.07126 -0.007,-0.1651 -0.007,-0.1651 -0.005,-0.05609 -0.0247,-0.136525 -0.0561,-0.0508 m -8.74431,0.06632 c -0.0307,0.07514 -0.15839,0.333024 -0.13899,0.636765 0.005,0.0702 0.0512,0.207082 0.15698,0.210609 0.0547,-2.65e-4 0.12524,-0.03987 0.17533,-0.212019 0.009,-0.03845 0.0145,-0.0695 0.0177,-0.08467 0.006,-0.02363 -0.0116,-0.05115 -0.0296,0.0021 -0.0399,0.105127 -0.14358,0.178858 -0.22155,0.03775 -0.0127,-0.02822 -0.0649,-0.155926 0.031,-0.435678 0.0198,-0.05433 0.0441,-0.135115 0.0441,-0.135115 0.0219,-0.06103 -0.004,-0.09454 -0.0349,-0.01976 m -1.8482,0.319264 c -0.0303,0.07479 -0.15875,0.332669 -0.139,0.636765 0.005,0.0702 0.0508,0.207079 0.15664,0.210608 0.055,-2.64e-4 0.12558,-0.03951 0.17568,-0.211666 0.009,-0.03916 0.0141,-0.06985 0.0177,-0.08502 0.006,-0.02328 -0.0116,-0.05115 -0.0296,0.0021 -0.0399,0.105482 -0.14393,0.178859 -0.22189,0.03775 -0.0124,-0.02787 -0.0646,-0.155927 0.0314,-0.435681 0.0198,-0.05433 0.0441,-0.135112 0.0441,-0.135112 0.0219,-0.06138 -0.004,-0.09455 -0.0349,-0.01976 m -6.77651,0.395465 -0.16828,0.230717 -0.32314,-0.235657 c -0.008,-0.0056 -0.0194,-0.0035 -0.0257,0.0049 l -0.19509,0.267404 c -0.006,0.0085 -0.005,0.02011 0.004,0.02611 l 0.33267,0.24271 c 0.008,0.006 0.0198,0.0035 0.0257,-0.0049 l 0.16863,-0.230365 0.32279,0.235302 c 0.008,0.006 0.0198,0.0035 0.0257,-0.0049 l 0.19508,-0.267406 c 0.006,-0.0081 0.005,-0.02011 -0.004,-0.02612 l -0.33231,-0.24271 c -0.008,-0.0056 -0.0201,-0.0035 -0.0261,0.0049 m 3.96628,0.390877 c -0.0698,0.03528 -1.32115,0.501298 -1.39382,0.541866 -0.0723,0.04022 -0.0977,0.05009 -0.11219,0.103365 -0.0145,0.05292 -0.0219,0.08361 -0.0257,0.09172 -0.0148,0.03528 -0.0265,0.07902 0.0801,0.01871 0.0332,-0.01871 1.29822,-0.491067 1.35784,-0.52564 0.0596,-0.03387 0.0953,-0.04586 0.12206,-0.09983 0.0265,-0.05433 0.0332,-0.06385 0.048,-0.1016 0.0159,-0.04057 0.0318,-0.08326 -0.0762,-0.02858 m -4.87362,0.232481 c -0.0529,0.01728 -0.87136,0.366535 -0.93063,0.390171 -0.055,0.02151 -0.0702,0.03563 -0.0801,0.07373 -0.0106,0.03775 -0.0159,0.05997 -0.0187,0.06597 -0.0106,0.02469 -0.0236,0.04621 0.0572,0.01304 0.0395,-0.01622 0.84984,-0.35419 0.90558,-0.378532 0.0452,-0.01976 0.0677,-0.03281 0.0868,-0.07197 0.0194,-0.03845 0.024,-0.04551 0.0349,-0.07232 0.0109,-0.02858 0.0243,-0.04622 -0.055,-0.02011"
       style="fill:#231f20;fill-opacity:1;fill-rule:evenodd;stroke:none;stroke-width:0.264583"
       id="path1" />
  </g>
</svg>
