<?xml version="1.0" encoding="UTF-8" standalone="no"?>
<!-- Created with Inkscape (http://www.inkscape.org/) -->

<svg
   width="22.356129mm"
   height="6.4666758mm"
   viewBox="0 0 22.356129 6.4666758"
   version="1.1"
   id="svg1"
   xmlns="http://www.w3.org/2000/svg"
   xmlns:svg="http://www.w3.org/2000/svg">
  <defs
     id="defs1" />
  <g
     id="layer1"
     transform="translate(-180.94257,-40.059954)">
    <path
       d="m 195.5552,40.228945 c -0.0699,0.106892 -0.12207,0.362657 -0.0219,0.435682 0.0998,0.07338 0.24624,0.132643 0.24624,0.132643 -0.46603,0.570794 -0.78458,0.679802 -1.05728,0.839611 -0.0702,0.04092 -0.0561,0.07796 -0.0148,0.06703 0.0212,-0.0056 0.38806,-0.0628 0.81598,-0.388056 0.23107,-0.175684 0.37147,-0.47625 0.37147,-0.47625 0,0 0.11607,0.09666 0.13159,0.116416 0.0353,0.04339 0.0543,0.07585 0.0709,0.02963 0.061,-0.168982 -0.0254,-0.270582 -0.1076,-0.323498 0,0 0.0857,-0.262819 -0.0716,-0.52705 -0.0261,-0.04445 -0.18204,-0.185561 -0.36301,0.09384 m 0.24377,0.07302 c 0.10512,0.09737 0.0889,0.257882 0.085,0.294569 0,0 -0.13406,-0.06279 -0.19438,-0.08855 -0.0596,-0.02574 -0.0914,-0.06385 -0.0635,-0.101954 0.0924,-0.129821 0.13793,-0.125235 0.17286,-0.104069 m -1.73567,-0.205668 c -0.0166,0.03916 -0.13723,0.336195 -0.13723,0.336195 0.003,0.01728 0.0363,0.147109 0.0423,0.195792 0.0561,0.428273 0.40746,2.959454 0.508,3.759906 0.0497,0.394052 0.0878,0.748242 0.0935,0.938742 -0.004,0.05856 0.0212,0.08078 0.0483,0.02434 0.0141,-0.03069 0.0748,-0.155927 0.0931,-0.484365 0.0141,-0.246592 -0.006,-0.625475 -0.0765,-1.147234 -0.01,-0.07549 -0.37536,-2.719916 -0.37536,-2.719916 0,0 0.19756,0.185208 0.22896,0.218723 0.0317,0.03351 0.0702,0.01587 0.0522,-0.03845 -0.018,-0.05397 -0.42192,-1.030113 -0.43498,-1.064331 -0.013,-0.03387 -0.0257,-0.05856 -0.0423,-0.01939 m -1.00083,0.06738 c -0.0159,0.03916 -0.14605,0.324909 -0.14605,0.324909 0.004,0.02328 0.0342,0.09313 0.055,0.237421 0.0222,0.149929 0.0533,0.364067 0.0878,0.600427 0,0 0.5133,2.808817 0.43533,3.057173 -0.0106,0.03387 -0.0264,0.07726 -0.049,0.128058 0.004,-0.220488 -0.0367,-0.549275 -0.25189,-0.826913 -0.28751,-0.37112 -0.84313,-0.822676 -0.96661,-0.942268 -0.0921,-0.08855 -0.58949,-0.540102 -0.85019,-0.874535 -0.11642,-0.153459 -0.25471,-0.35913 -0.25471,-0.35913 0.0826,0.03069 0.18415,0.05821 0.23919,0.07691 0.0554,0.01834 0.11994,0 0.037,-0.07691 -0.0829,-0.0769 -0.71508,-0.536927 -0.76412,-0.592312 -0.0494,-0.05539 -0.0554,-0.04586 -0.0582,-0.0028 -0.003,0.04268 0,0.269875 0.003,0.340431 0.003,0.07055 0.0187,0.09525 0.049,0.116769 0.0307,0.02151 0.0801,0.05503 0.11359,0.107244 0.0339,0.05221 0.62618,0.92075 1.14477,1.371954 0.067,0.06914 1.00577,0.756002 1.35854,1.431925 0.0716,0.137935 0.10125,0.271637 0.10901,0.402519 -0.21096,0.348191 -0.69356,0.873125 -1.79564,1.323268 -0.0924,0.04269 -0.078,0.10654 0.1136,0.04974 0.19156,-0.05644 1.40441,-0.262112 1.81575,-1.177219 0.0995,-0.220133 0.29774,-0.631473 0.10618,-1.653116 -0.0494,-0.418394 -0.33514,-2.160411 -0.33514,-2.160411 0,0 0.19756,0.185209 0.22931,0.218721 0.0314,0.03352 0.0699,0.01588 0.0519,-0.0381 -0.018,-0.05398 -0.42193,-1.030462 -0.43498,-1.064329 -0.013,-0.03387 -0.0257,-0.05856 -0.0423,-0.01939 m 9.01559,0.160867 c -0.0706,0.106891 -0.12242,0.362656 -0.0226,0.435681 0.10018,0.07338 0.24623,0.132644 0.24623,0.132644 -0.46566,0.570796 -1.38041,0.977196 -1.59808,1.146881 -0.0646,0.04904 -0.0561,0.07796 -0.0152,0.06668 0.0363,-0.0095 0.73307,-0.204258 1.37019,-0.750358 0.2921,-0.250119 0.28469,-0.268817 0.35878,-0.420865 0.0631,0.03281 0.10653,0.08573 0.13158,0.116417 0.0346,0.04339 0.0543,0.07585 0.0709,0.02963 0.0607,-0.168979 -0.0257,-0.270579 -0.10795,-0.323143 0,0 0.0857,-0.263174 -0.0713,-0.527402 -0.0261,-0.0441 -0.18239,-0.185563 -0.36266,0.09384 m 0.24307,0.07302 c 0.10512,0.09772 0.0889,0.257529 0.0847,0.294571 0,0 -0.13405,-0.0628 -0.19367,-0.08855 -0.06,-0.02574 -0.0914,-0.0635 -0.0635,-0.101952 0.0924,-0.129823 0.13758,-0.125238 0.17251,-0.104071 m -1.78823,-0.165452 c -0.18345,0.232481 -0.19474,0.538692 -0.21908,0.879827 -0.0261,-0.07161 -0.17216,-0.529167 -0.63994,-0.790927 -0.0339,-0.01905 -0.10266,0.01693 -0.10901,0.124531 -0.004,0.06315 -0.0219,0.215546 0.0226,0.258586 0.0441,0.04304 0.17427,0.128058 0.1965,0.140051 0.0222,0.01199 0.0452,0.01376 0.0522,-0.0127 0.006,-0.02611 0.036,-0.08678 0.0783,-0.04339 0.036,0.03634 0.26634,0.226838 0.38593,0.630766 0.0205,0.05327 0.0706,0.05856 0.0815,-0.01728 0.0279,-0.186973 0.0427,-0.511527 0.0579,-0.6096 0.0208,-0.13829 0.0864,-0.423333 0.26176,-0.275518 0.0399,0.03387 0.0822,0.07832 0.0822,0.07832 0.037,0.04657 0.0836,0.100187 0.10619,0.04621 0.0346,-0.08184 0.0624,-0.216958 0.0247,-0.289983 -0.0166,-0.03281 -0.23354,-0.307269 -0.38171,-0.118885 m -1.80057,-0.01093 c -0.0674,0.03951 -1.78753,1.031875 -1.85703,1.077028 -0.0699,0.0448 -0.0945,0.05645 -0.10548,0.110067 -0.0116,0.05398 -0.0173,0.08502 -0.0201,0.09349 -0.0127,0.03598 -0.0215,0.08043 0.0811,0.01341 0.0321,-0.02082 1.76213,-1.020585 1.82281,-1.058333 0.0582,-0.03669 0.0917,-0.05186 0.115,-0.107596 0.0233,-0.05574 0.0293,-0.06562 0.0416,-0.104423 0.0134,-0.04128 0.0268,-0.08537 -0.078,-0.02363 m -10.58651,0.148871 c -0.0307,0.07479 -0.15875,0.332671 -0.13899,0.636412 0.005,0.0702 0.0512,0.207079 0.15663,0.210961 0.0547,-2.65e-4 0.12559,-0.04022 0.17568,-0.212019 0.008,-0.03881 0.0141,-0.0702 0.0177,-0.08502 0.005,-0.02328 -0.0116,-0.05115 -0.0293,0.0021 -0.0402,0.105481 -0.14429,0.178858 -0.2219,0.0381 -0.0127,-0.02822 -0.0649,-0.156279 0.0314,-0.435679 0.019,-0.05433 0.0441,-0.135115 0.0441,-0.135115 0.0215,-0.06138 -0.005,-0.09454 -0.0353,-0.01976 m 4.06682,0.03669 c -0.036,0.08784 -0.18591,0.389819 -0.16298,0.746125 0.005,0.0822 0.06,0.242711 0.1838,0.246944 0.0642,-2.65e-4 0.14675,-0.04657 0.20567,-0.248002 0.0102,-0.04551 0.0166,-0.0822 0.0208,-0.10019 0.006,-0.02716 -0.0138,-0.05927 -0.0346,0.0028 -0.0466,0.123473 -0.16863,0.209902 -0.26,0.04445 -0.0148,-0.03281 -0.0762,-0.182739 0.0367,-0.510468 0.0229,-0.0635 0.0515,-0.158398 0.0515,-0.158398 0.0254,-0.07161 -0.005,-0.110773 -0.0409,-0.02328 m -5.48393,0.0092 c -0.0138,0.03493 -0.13017,0.342546 -0.13017,0.342546 0.003,0.01553 0.0349,0.129116 0.0416,0.171804 0.01,0.06385 0.635,2.617259 0.55069,3.632904 -0.27446,0.337608 -0.48225,0.669573 -0.54398,0.771173 -0.0416,-0.0021 -0.0819,-0.0056 -0.11995,-0.0099 -1.0481,-0.124179 -1.04669,-1.037873 -1.07562,-1.239308 -0.0554,-0.386646 -0.16827,-2.39889 -0.5334,-3.591632 -0.0504,-0.163689 -0.10971,0.07973 -0.13899,0.159809 -0.0293,0.07973 -0.0124,0.159456 0.0254,0.289631 0.2099,0.697087 0.42757,2.964392 0.4452,3.188052 0.12877,1.604433 1.14265,1.601258 1.30916,1.610432 1.29505,0.07126 3.08399,-0.648407 3.2378,-0.72249 0.078,-0.03457 0.14817,-0.07126 0.21202,-0.10795 0.061,0.110418 0.11677,0.197202 0.14816,0.232481 0.46073,0.505529 1.29646,0.209902 1.44604,0.07867 0.25118,-0.195792 0.22472,-0.60819 0.22472,-0.716844 -0.037,-0.315383 -0.32032,-0.609248 -0.3549,-0.640998 -0.0342,-0.03175 -0.066,-0.06068 -0.0847,0.01341 -0.0183,0.07408 -0.0582,0.256821 -0.061,0.288571 0.16439,0.172156 0.29422,0.381354 0.34184,0.484717 0.0476,0.103012 -0.0557,0.182387 -0.16157,0.235656 -0.50871,0.216958 -0.96944,0.07408 -1.06186,0.03422 -0.0755,-0.04127 -0.14358,-0.100542 -0.20356,-0.169334 0.12136,-0.09772 0.19756,-0.186618 0.23778,-0.243768 0.0765,-0.108657 0.14287,-0.460727 0.14851,-0.6223 0.005,-0.161219 -0.18556,-0.492477 -0.34184,-0.587727 -0.15628,-0.0956 -0.32561,0.09807 -0.39969,0.203904 -0.16969,0.325614 -0.1457,0.709789 -0.12983,0.794456 0.0212,0.1016 0.0639,0.220133 0.11466,0.336198 -0.0921,0.04551 -0.16651,0.07796 -0.20179,0.09525 0,0 -0.19721,0.06632 -0.49989,0.155221 0.0808,-0.177094 0.13688,-0.45085 0.14217,-0.570442 -0.0399,-0.385585 -0.3362,-0.486127 -0.44661,-0.535162 -0.48543,-0.213784 -0.88301,0.05221 -1.01142,0.134408 -0.18909,0.132292 -0.37536,0.316794 -0.54328,0.509762 0.0466,-0.200729 0.0801,-0.517877 0.031,-0.907695 -0.0335,-0.23495 -0.41981,-2.304698 -0.41981,-2.304698 0,0 0.14746,0.0956 0.17639,0.124531 0.0286,0.02893 0.0621,0.01236 0.0452,-0.03493 -0.0173,-0.04727 -0.36478,-0.83679 -0.37677,-0.866423 -0.0124,-0.02963 -0.0243,-0.05115 -0.0377,-0.01622 m 3.74298,3.647017 c 0.0554,0.116768 0.0159,0.12982 -0.0293,0.169685 -0.0998,0.111831 -0.23318,0.207785 -0.3623,0.285398 -0.1143,-0.202848 -0.1785,-0.406754 -0.19614,-0.460375 -0.0321,-0.09525 -0.019,-0.188031 0.15875,-0.34149 0.17709,-0.153458 0.37324,0.230365 0.42898,0.346782 m -2.03412,0.02611 c 0.36689,0.02434 0.55915,0.271992 0.62653,0.357717 0.067,0.08537 0.0152,0.137231 -0.0303,0.173921 -0.8322,0.529519 -1.68063,0.67451 -2.02459,0.709083 -0.0494,0.0035 -0.0974,0.0053 -0.14464,0.0067 0.0229,-0.04092 0.30304,-0.531989 0.74472,-0.941564 0.0885,-0.07973 0.46178,-0.3302 0.82832,-0.305859 m -2.5266,-3.452635 c -0.0356,0.08784 -0.18556,0.389819 -0.16263,0.746125 0.005,0.0822 0.0596,0.242358 0.1838,0.246944 0.0642,-2.65e-4 0.14711,-0.04657 0.20567,-0.248354 0.0102,-0.04516 0.0166,-0.08185 0.0208,-0.09984 0.006,-0.02716 -0.0138,-0.05962 -0.0346,0.0032 -0.0469,0.123121 -0.16898,0.20955 -0.25964,0.0441 -0.0148,-0.03281 -0.0766,-0.18274 0.0363,-0.510469 0.0229,-0.0635 0.0515,-0.158398 0.0515,-0.158398 0.0254,-0.07161 -0.005,-0.110773 -0.0413,-0.02328 m 0.48507,2.436283 c -0.036,0.08784 -0.18591,0.389819 -0.16298,0.746125 0.005,0.0822 0.0596,0.242711 0.1838,0.246944 0.0642,-2.65e-4 0.1471,-0.04657 0.20567,-0.248002 0.0102,-0.04551 0.0166,-0.0822 0.0208,-0.09983 0.006,-0.02752 -0.0138,-0.05962 -0.0346,0.0024 -0.0469,0.123825 -0.16863,0.209902 -0.26,0.04445 -0.0145,-0.03281 -0.0765,-0.18274 0.0367,-0.510469 0.0229,-0.0635 0.0515,-0.158398 0.0515,-0.158398 0.0254,-0.07161 -0.005,-0.110773 -0.0409,-0.02328 m -2.46063,-2.513542 c -0.17427,0.221192 -0.18556,0.512234 -0.20885,0.83679 -0.0243,-0.06773 -0.16368,-0.503415 -0.60818,-0.752475 -0.0325,-0.01799 -0.0981,0.01659 -0.10407,0.118885 -0.004,0.05962 -0.0208,0.204611 0.0212,0.245886 0.0406,0.03916 0.34114,0.144991 0.1778,0.3175 -0.0727,0.07726 -0.43815,0.4572 -0.51717,0.549275 -0.0787,0.09172 -0.0861,0.108656 -0.002,0.06174 0.0843,-0.04692 0.5715,-0.236362 0.65228,-0.719666 0.006,-0.06315 -0.006,-0.110773 -0.0212,-0.142875 0.007,0.0019 0.0138,0.006 0.0215,0.01376 0.0342,0.03457 0.25329,0.215546 0.36689,0.600075 0.0198,0.0508 0.067,0.05574 0.078,-0.01659 0.0261,-0.177448 0.0406,-0.486482 0.0547,-0.579967 0.0201,-0.131233 0.0825,-0.402518 0.24906,-0.26176 0.0381,0.0321 0.0783,0.07443 0.0783,0.07443 0.0353,0.04445 0.0797,0.09525 0.10125,0.04374 0.0328,-0.07761 0.0593,-0.206375 0.0233,-0.275871 -0.0159,-0.03105 -0.22225,-0.2921 -0.36301,-0.11289 m 5.86987,0.204965 c -0.0533,0.0321 -2.05246,0.998009 -2.20557,1.119362 -0.0772,0.06068 -0.14181,0.158047 -0.16545,0.26388 -0.0339,0.153458 0.003,0.305858 0.10266,0.323143 0.0695,0.01199 0.10901,0.05292 0.12629,0.07691 0.008,0.01024 0.0187,0.0032 0.0226,-0.0039 0.0811,-0.155575 0.0106,-0.255058 -0.12417,-0.295275 -0.0536,-0.01622 -0.0766,-0.09102 0.12347,-0.216251 0.1845,-0.115359 2.00554,-1.008947 2.04682,-1.037167 0.0134,-0.0092 0.0254,-0.01659 0.0367,-0.024 -0.0529,0.158044 -0.11147,0.391232 -0.0967,0.651227 0.005,0.09172 0.06,0.270582 0.1838,0.275167 0.0642,0 0.14711,-0.05186 0.20567,-0.276577 0.0102,-0.0508 0.0166,-0.09137 0.0208,-0.111477 0.006,-0.03034 -0.0138,-0.06632 -0.0346,0.0032 -0.0466,0.137583 -0.16863,0.233892 -0.25964,0.04939 -0.0148,-0.03669 -0.0766,-0.203904 0.0363,-0.569029 0.0229,-0.07126 0.0515,-0.176741 0.0515,-0.176741 0.005,-0.01482 0.007,-0.02822 0.009,-0.03986 0.0102,-0.03669 0.0134,-0.06844 -0.0794,-0.01199 m 9.2576,0.811742 c -0.0342,0.08431 -0.17851,0.37465 -0.15664,0.717195 0.005,0.07937 0.0575,0.233188 0.17674,0.237422 0.0617,-2.65e-4 0.14111,-0.04481 0.19791,-0.23848 0.01,-0.04374 0.0159,-0.07902 0.0201,-0.09595 0.006,-0.02611 -0.0138,-0.05715 -0.0335,0.0024 -0.0452,0.118534 -0.16193,0.20179 -0.24977,0.04269 -0.0145,-0.03175 -0.0737,-0.175684 0.0353,-0.491067 0.0219,-0.06103 0.0494,-0.1524 0.0494,-0.1524 0.0243,-0.06879 -0.005,-0.106185 -0.0395,-0.02188 m 3.30764,0.173212 c -0.0321,0.07796 -0.16545,0.346782 -0.14499,0.66393 0.004,0.07338 0.0529,0.216252 0.16334,0.219778 0.0572,0 0.13087,-0.04127 0.18309,-0.220837 0.009,-0.04022 0.0148,-0.07303 0.0183,-0.0889 0.006,-0.024 -0.012,-0.05292 -0.0307,0.0024 -0.0416,0.110066 -0.14993,0.186973 -0.23107,0.03951 -0.0134,-0.02928 -0.0681,-0.162629 0.0321,-0.454377 0.0205,-0.0568 0.0462,-0.14111 0.0462,-0.14111 0.0226,-0.06385 -0.004,-0.09842 -0.0363,-0.02045 m -6.20677,0.0081 -0.16827,0.231069 -0.32315,-0.235654 c -0.008,-0.0056 -0.0194,-0.0035 -0.0257,0.0046 l -0.19509,0.267407 c -0.006,0.0088 -0.005,0.02045 0.004,0.02646 l 0.33302,0.24271 c 0.008,0.0056 0.0194,0.0035 0.0254,-0.0049 l 0.16828,-0.230716 0.32314,0.235656 c 0.008,0.0056 0.0198,0.0035 0.0261,-0.0049 l 0.19473,-0.267404 c 0.006,-0.0085 0.005,-0.02011 -0.003,-0.02612 l -0.33267,-0.24271 c -0.008,-0.0056 -0.0198,-0.0035 -0.0261,0.0046 m 1.30351,0.416277 c -0.013,0.04516 -0.0459,0.239538 -0.0536,0.279755 -0.008,0.03986 -0.007,0.07973 0.0127,0.113945 0.0194,0.03457 0.0699,0.152755 0.10689,0.249063 0.0363,0.09631 0.41451,0.824087 0.44909,0.888646 0.0346,0.06456 0.0423,0.112889 0.007,0.155575 -1.21285,1.279525 -3.55318,2.066221 -3.62797,2.109612 -0.0748,0.04374 -0.055,0.07726 0.0709,0.05539 0.18838,-0.03316 1.23966,-0.208844 1.53917,-0.353132 0.1979,-0.09525 0.88794,-0.434268 1.45238,-0.876652 -0.0155,0.1143 -0.03,0.282223 -0.0222,0.4953 0.0381,1.029052 0.95849,0.858309 1.19979,0.805392 0.7239,-0.15875 1.60867,-1.159227 1.68417,-1.36031 0.0737,-0.198263 0.085,-0.379238 0.0681,-0.537633 0.19085,-0.103013 0.59973,-0.432859 0.59973,-0.432859 0.0169,0.438854 0.36618,0.570442 0.47377,0.589492 0.50377,0.0762 0.75565,-0.344665 0.8629,-0.480838 0.0917,0.240596 0.31221,0.287163 0.42545,0.30974 0.43498,0.08643 0.51929,-0.221192 0.54187,-0.291042 0.13617,-0.423685 -0.10937,-0.739423 -0.14076,-0.774348 -0.0317,-0.03528 -0.048,-0.0013 -0.0586,0.03916 -0.0113,0.04057 -0.0466,0.193323 -0.0681,0.288925 0,0 0.0903,0.148167 0.12277,0.223309 0.0324,0.0755 -0.0159,0.116416 -0.10901,0.128058 -0.26388,0.03211 -0.47519,-0.119237 -0.54787,-0.189087 -0.0723,-0.06985 0.006,-0.193323 0.0646,-0.341138 0.0469,-0.117827 -0.0402,-0.132292 -0.10653,-2.65e-4 -0.22437,0.58914 -0.53905,0.652286 -0.6216,0.674865 -0.74613,0.203552 -0.68227,-0.478721 -0.67945,-0.590198 0.003,-0.111831 -0.0787,-0.07056 -0.17074,0.0032 -0.31398,0.251883 -0.56727,0.40005 -0.70274,0.460727 -0.11712,-0.228952 -0.28716,-0.372885 -0.35912,-0.424744 -0.80716,-0.588785 -0.87384,0.599369 -0.84985,0.726723 0.12312,0.505177 0.94792,0.198967 1.07739,0.183796 0.12911,-0.01553 0.0871,0.155575 0.0145,0.256823 -0.17921,0.250473 -0.38559,0.430035 -0.57256,0.582435 -0.8001,0.65264 -1.20121,0.601134 -1.32468,0.5969 -0.78564,-0.02223 -0.71331,-0.868537 -0.66992,-1.04916 0.23636,-0.200377 0.43956,-0.418042 0.55738,-0.641702 0.048,-0.122767 0.13089,-0.401463 -0.0187,-0.751771 -0.0787,-0.154162 -0.32667,-0.585962 -0.32667,-0.585962 0,0 0.18274,0.0056 0.20002,0.0053 0.0173,-7.94e-4 0.0515,-0.01834 0.007,-0.0695 -0.0444,-0.05115 -0.42757,-0.43321 -0.4505,-0.464256 -0.0233,-0.03069 -0.0444,-0.05292 -0.0571,-0.0074 m 2.42217,1.7526 c 0,0 -0.11041,0.06315 -0.41769,0.04233 -0.25787,-0.01728 -0.23565,-0.117475 -0.20002,-0.155927 0.0381,-0.04127 0.35348,-0.240242 0.61771,0.113594 m -11.23173,-1.687336 c -0.0321,0.07937 -0.16757,0.351719 -0.14676,0.6731 0.005,0.07408 0.0536,0.219075 0.16581,0.222957 0.0579,-2.65e-4 0.13229,-0.04198 0.18556,-0.224015 0.009,-0.04092 0.0148,-0.07373 0.0187,-0.08996 0.006,-0.02469 -0.0123,-0.05398 -0.031,0.0024 -0.0427,0.111125 -0.1524,0.18909 -0.2346,0.03986 -0.0134,-0.02963 -0.0688,-0.1651 0.0328,-0.460375 0.0208,-0.0575 0.0469,-0.143227 0.0469,-0.143227 0.0226,-0.06421 -0.005,-0.09984 -0.0374,-0.02082 m -4.56565,0.113948 c -0.013,0.04515 -0.0455,0.239887 -0.0536,0.279752 -0.008,0.04022 -0.007,0.08008 0.0127,0.1143 0.0198,0.03422 0.0706,0.152752 0.10689,0.248708 0.0367,0.09666 0.41452,0.824442 0.44909,0.888649 0.0353,0.06456 0.0423,0.112535 0.007,0.155575 -1.21285,1.279525 -3.55318,2.066218 -3.62797,2.10961 -0.0744,0.04374 -0.0547,0.07726 0.0713,0.05539 0.18839,-0.03316 1.23966,-0.208844 1.53917,-0.353129 0.29986,-0.144288 1.73144,-0.848431 2.14101,-1.625248 0.048,-0.122767 0.13088,-0.401815 -0.0187,-0.751768 -0.0787,-0.153813 -0.32667,-0.585965 -0.32667,-0.585965 0,0 0.18274,0.0056 0.20003,0.0053 0.0173,-2.64e-4 0.0515,-0.01834 0.007,-0.0695 -0.0445,-0.05115 -0.42757,-0.43321 -0.45085,-0.464253 -0.0229,-0.03069 -0.0441,-0.05257 -0.0572,-0.0074 m 5.73263,-0.0099 -0.19508,0.267407 c -0.006,0.0085 -0.005,0.02011 0.004,0.02611 l 0.33267,0.24271 c 0.008,0.006 0.0198,0.0039 0.0257,-0.0046 l 0.19509,-0.267406 c 0.006,-0.0088 0.005,-0.02011 -0.003,-0.02646 l -0.33302,-0.24271 c -0.008,-0.0056 -0.0198,-0.0035 -0.0257,0.0049 m 6.74828,0.158046 c -0.0536,0.06632 -0.59019,0.770467 -0.59019,0.770467 l -0.38982,-0.278342 c 0,0 0.1591,-0.03986 0.18697,-0.04798 0.0275,-0.0081 0.0434,-0.04374 -0.006,-0.06949 -0.0501,-0.0254 -0.52035,-0.21308 -0.55633,-0.227896 -0.0356,-0.01447 -0.0487,-0.03069 -0.0519,0.0074 -0.003,0.0381 -0.009,0.34784 -0.009,0.34784 0,0 -0.007,0.02151 0.0342,0.0448 0.0409,0.02363 0.0811,0.07338 0.115,0.106891 0.0335,0.03387 0.47096,0.378532 0.49213,0.39088 0,0 -0.21872,0.384527 -0.24659,0.685445 -0.0279,0.300922 0.006,0.71614 0.41663,0.582438 0.11077,-0.03175 0.5715,-0.214841 0.67451,-0.536223 0.0335,-0.118533 0.12806,-0.331965 -0.0261,-0.548923 -0.0889,-0.127352 -0.44874,-0.342545 -0.44874,-0.342545 0,0 0.27588,-0.382059 0.30269,-0.42898 0.0261,-0.04657 0.12735,-0.342545 0.13899,-0.41416 0.0113,-0.07162 0.0166,-0.107598 -0.0363,-0.04163 m -0.0949,1.623129 c -0.15276,0.125941 -0.47378,0.2921 -0.56409,0.300566 -0.09,0.0085 -0.3295,-0.03528 -0.22543,-0.28081 0.0356,-0.07937 0.27517,-0.48895 0.27517,-0.48895 0.0892,0.04939 0.6671,0.343607 0.51435,0.469194 m -5.41585,-1.500362 -0.19508,0.267052 c -0.006,0.0088 -0.005,0.02045 0.003,0.02646 l 0.33303,0.24271 c 0.008,0.0056 0.0194,0.0035 0.0257,-0.0049 l 0.19473,-0.267406 c 0.006,-0.0085 0.005,-0.02011 -0.003,-0.02611 l -0.33302,-0.242711 c -0.008,-0.0056 -0.0198,-0.0035 -0.0258,0.0049 m -8.0525,0.198612 c -0.042,0.14464 -0.22508,0.645232 -0.16052,1.219555 0.0152,0.132995 0.10654,0.388053 0.28117,0.384878 0.09,-0.0053 0.20214,-0.08713 0.26635,-0.417687 0.01,-0.07444 0.0159,-0.134056 0.0201,-0.163338 0.006,-0.04445 -0.025,-0.09525 -0.0483,0.0074 -0.0547,0.2032 -0.21801,0.352425 -0.36124,0.09243 -0.0236,-0.05221 -0.12418,-0.289983 0.005,-0.828675 0.0261,-0.104775 0.0582,-0.26035 0.0582,-0.26035 0.0289,-0.118181 -0.0177,-0.179212 -0.0603,-0.03422 m 19.69946,1.863725 c -0.0314,0.08608 -0.0434,0.14323 -0.0406,0.175683 0.004,0.03316 0.0148,0.139349 0.0148,0.139349 -0.0318,0.02611 -0.16863,0.111125 -0.30551,0.01058 0.009,-0.02928 0.0268,-0.0889 0.031,-0.121708 0.0145,-0.05045 -0.0166,-0.08784 -0.0413,-0.03563 -0.0247,0.05257 -0.0825,0.228248 -0.12629,0.267758 -0.0427,0.03916 -0.0931,0.184857 -0.4191,0.03704 -0.0572,-0.02188 -0.15734,-0.09631 -0.31291,0.06032 -0.35278,0.328083 -0.59585,0.353483 -0.99131,0.49389 -0.0476,0.02222 -0.14817,0.09737 -0.0289,0.08572 0.11924,-0.01199 0.62019,2.64e-4 0.89288,-0.312915 0.0571,-0.05539 0.12242,-0.201435 0.33902,-0.116768 0.11995,0.04551 0.34184,0.235656 0.58314,-0.140052 0.14288,0.09489 0.35913,0.05679 0.39335,-0.04763 0.0349,-0.104775 0.0744,-0.209198 0.0741,-0.280107 -7.9e-4,-0.07091 -0.006,-0.1651 -0.006,-0.1651 -0.005,-0.05609 -0.0247,-0.136525 -0.0561,-0.05045 m -17.65652,0.613482 c -0.0699,0.03493 -1.60832,0.637468 -1.68064,0.678039 -0.0723,0.04022 -0.0977,0.05009 -0.11253,0.103362 -0.0145,0.05292 -0.0222,0.08361 -0.0257,0.09208 -0.0148,0.03493 -0.0265,0.07867 0.0801,0.01834 0.0332,-0.01871 1.58538,-0.62724 1.64501,-0.661458 0.0596,-0.03422 0.0949,-0.04622 0.12206,-0.10019 0.0268,-0.05398 0.0332,-0.06385 0.048,-0.1016 0.0159,-0.04022 0.0318,-0.08326 -0.0762,-0.02858 m 5.16397,0.305506 c -0.0702,0.03528 -1.60867,0.637469 -1.68099,0.678038 -0.0723,0.04022 -0.0977,0.05045 -0.11219,0.103364 -0.0148,0.05292 -0.0222,0.08361 -0.0257,0.09208 -0.0152,0.03493 -0.0265,0.07867 0.0801,0.01834 0.0332,-0.01871 1.58503,-0.627237 1.645,-0.661104 0.0593,-0.03422 0.0945,-0.04622 0.12171,-0.100542 0.0268,-0.05398 0.0332,-0.0635 0.048,-0.1016 0.0159,-0.03986 0.0321,-0.08326 -0.0759,-0.02858"
       style="fill:#231f20;fill-opacity:1;fill-rule:evenodd;stroke:none;stroke-width:0.264583"
       id="path1" />
  </g>
</svg>
