<?xml version="1.0" encoding="UTF-8" standalone="no"?>
<!-- Created with Inkscape (http://www.inkscape.org/) -->

<svg
   width="21.743164mm"
   height="6.215795mm"
   viewBox="0 0 21.743164 6.215795"
   version="1.1"
   id="svg1"
   xmlns="http://www.w3.org/2000/svg"
   xmlns:svg="http://www.w3.org/2000/svg">
  <defs
     id="defs1" />
  <g
     id="layer1"
     transform="translate(-162.9937,-30.400214)">
    <path
       d="m 172.29409,30.44324 c -0.0303,0.07479 -0.15805,0.333023 -0.139,0.636765 0.005,0.0702 0.0512,0.207078 0.15699,0.210608 0.0547,0 0.12524,-0.04022 0.17568,-0.212021 0.008,-0.03845 0.0141,-0.0695 0.0177,-0.08467 0.006,-0.02363 -0.0116,-0.05115 -0.0296,0.0024 -0.0399,0.104775 -0.14394,0.178152 -0.2219,0.03739 -0.0124,-0.02787 -0.0649,-0.155927 0.0314,-0.435327 0.0194,-0.05468 0.0441,-0.135467 0.0441,-0.135467 0.0215,-0.06103 -0.004,-0.09455 -0.0353,-0.01976 m -1.20474,-0.0067 c -0.0162,0.03916 -0.14605,0.324554 -0.14605,0.324554 0.004,0.02328 0.0339,0.09349 0.0554,0.237773 0.0219,0.149577 0.0529,0.364066 0.0878,0.600427 0,0 0.0554,0.354896 0.14428,0.820563 0.0187,0.09807 0.21484,1.158168 0.2092,1.466495 -0.005,0.276225 -0.0148,0.58279 -0.0526,0.7493 -0.16828,0.204258 -0.30022,0.381355 -0.36407,0.462846 -0.0871,-0.01236 -0.17321,-0.02752 -0.25894,-0.04551 -0.0388,-0.0113 -0.0938,-0.02787 -0.15593,-0.04833 0.0861,-0.11571 0.15628,-0.258585 0.18133,-0.430741 0.0787,-0.62724 -0.20426,-0.781402 -0.36406,-0.74789 -0.15946,0.03352 -0.38912,0.221192 -0.5013,0.624771 -0.0275,0.109712 -0.10936,0.383117 0.048,0.626885 -0.0734,0.02999 -0.15098,0.0568 -0.23142,0.07691 -0.0921,0.02082 -0.38029,0.117827 -0.76835,0.01728 0.073,-0.08396 0.13335,-0.18274 0.15946,-0.295275 0.0222,-0.08678 0.11747,-0.347485 -0.0702,-0.728485 -0.0392,-0.06138 -0.15381,-0.238125 -0.34185,-0.09772 -0.18732,0.1397 -0.37782,0.436739 -0.41698,0.649464 -0.0226,0.122767 -0.0765,0.320324 0.006,0.498827 -0.0325,0.0088 -0.067,0.01728 -0.10337,0.02611 -0.0804,0.02222 -0.49,0.152048 -0.78175,-0.224719 -0.0455,-0.0635 -0.18768,-0.347488 -0.25365,-0.894998 -0.01,-0.152752 -0.10477,-0.471665 -0.16439,-0.549981 -0.0596,-0.07796 -0.11924,-0.0822 -0.15029,-0.02893 -0.031,0.05398 -0.16298,0.383116 -0.21413,0.446616 -0.0515,0.06421 -0.28187,0.253649 -0.52458,0.08079 -0.0353,-0.02082 -0.0967,-0.140052 -0.11748,-0.168979 -0.0205,-0.02893 -0.0332,-0.01871 -0.0395,0.0042 -0.006,0.02222 -0.0677,0.306562 -0.0677,0.306562 0.0804,0.150284 0.24518,0.452615 0.28222,0.615247 0.037,0.162628 0.0374,0.284337 -0.11183,0.416276 -0.061,0.04833 -0.84243,0.8636 -1.82986,0.8128 -0.18486,-0.01659 -1.10878,-0.142875 -1.10031,-0.966258 0.008,-0.192968 0.12594,-0.596193 0.17215,-0.717902 0.0102,-0.02752 0.0138,-0.05045 0.0124,-0.06738 0.019,0.0056 0.0388,0.0095 0.06,0.0092 0.0949,-0.006 0.21238,-0.09172 0.27975,-0.439209 0.0109,-0.07832 0.0169,-0.140758 0.0215,-0.17145 0.007,-0.04692 -0.0265,-0.100541 -0.0512,0.0074 -0.0575,0.213783 -0.22895,0.370768 -0.37959,0.09701 -0.025,-0.05468 -0.13053,-0.304446 0.005,-0.871008 0.0279,-0.110419 0.061,-0.273754 0.061,-0.273754 0.0307,-0.12418 -0.018,-0.188032 -0.0628,-0.03563 -0.0445,0.151694 -0.23707,0.678392 -0.16898,1.282348 0.012,0.104775 0.0695,0.282927 0.17568,0.363009 -0.0141,0.01093 -0.0289,0.02928 -0.0406,0.0575 -0.0462,0.109008 -0.508,1.121481 0.0505,1.768475 0.10089,0.09208 0.78987,0.718253 1.97837,0.117827 0.21414,-0.109361 1.08409,-0.634646 1.10067,-1.146879 0.0127,-0.185209 0.004,-0.407813 0,-0.470607 0.0688,-0.02188 0.39899,-0.138993 0.50518,-0.498123 0.0166,-0.0515 0.0564,-0.153458 0.0896,-0.05715 0.0325,0.09701 0.17251,0.837848 0.20638,0.964142 0.0335,0.125942 0.2406,1.027642 1.34126,0.523523 0.0187,-0.0081 0.0589,-0.02681 0.11007,-0.05433 0.0519,0.02328 0.11042,0.0448 0.1785,0.06279 0.0755,0.02822 0.48154,0.26035 1.34409,-0.125942 0.0166,-0.0081 0.0677,-0.03281 0.1344,-0.07479 0.0229,0.01199 0.0473,0.02434 0.073,0.03563 0.13123,0.05256 1.03046,0.487185 3.06352,-0.151342 0.18592,-0.05609 0.73237,-0.263877 1.14124,-0.397933 0.0346,0.09948 0.0698,0.175683 0.10583,0.220485 0.0709,0.09631 0.3108,0.370417 0.63394,0.335846 0.079,-0.0141 0.2861,-0.09313 0.34184,-0.597958 0.005,-0.09067 -0.0187,-0.42545 -0.46037,-0.462492 -0.0737,-0.0013 -0.24589,0.02011 -0.46496,0.08255 -0.0314,-0.08361 -0.061,-0.180623 -0.085,-0.2921 -0.084,-0.365479 -0.41134,-2.771423 -0.41134,-2.771423 0,0 0.19473,0.184857 0.22648,0.217665 0.0321,0.03387 0.0699,0.01622 0.0522,-0.03775 -0.0183,-0.05398 -0.39193,-0.946857 -0.40463,-0.980723 -0.0134,-0.03387 -0.0261,-0.05821 -0.0427,-0.01939 -0.0162,0.03916 -0.14569,0.324908 -0.14569,0.324908 0.004,0.02328 0.0339,0.09348 0.0547,0.237419 0.0222,0.149931 0.0533,0.364066 0.0878,0.600429 0,0 0.18133,1.825625 0.41663,2.804935 -0.054,0.02082 -0.10901,0.04269 -0.1651,0.06809 -0.0572,0.02787 -0.29386,0.127706 -0.63888,0.238125 0.0215,-0.0829 0.0716,-0.267404 0.13405,-0.442384 0.0843,-0.235654 -0.0727,-0.426508 -0.17956,-0.50447 -0.56056,-0.376063 -1.00401,-0.207788 -1.21673,-0.123825 -0.27234,0.145695 -0.57926,0.4572 -0.83608,0.753533 0.0557,-0.193323 0.12594,-0.531283 0.079,-0.971904 -0.0505,-0.471311 -0.33585,-2.206625 -0.33585,-2.206625 0,0 0.16369,0.168629 0.19544,0.202141 0.0317,0.03316 0.0702,0.01553 0.0522,-0.03845 -0.0183,-0.05362 -0.38135,-0.955675 -0.39405,-0.989893 -0.013,-0.03387 -0.0261,-0.05821 -0.0427,-0.01905 m 2.44263,3.909835 c 0.0561,0.06138 0.0956,0.117827 -0.005,0.185208 -0.80328,0.536927 -1.9491,0.591609 -2.18052,0.5969 -0.013,-7.93e-4 -0.0265,-0.0013 -0.0395,-0.0021 0.0645,-0.102307 0.64205,-0.93839 1.08126,-1.083027 0.28046,-0.06738 0.65652,-0.167923 1.14406,0.303035 m -3.06035,-0.08925 c 0.14217,0.09701 0.17286,0.237067 0.17074,0.288219 -0.002,0.05151 -0.0328,0.138289 -0.1337,0.218016 -0.0367,0.02963 -0.10089,0.07726 -0.1845,0.130527 -0.1009,-0.04551 -0.19332,-0.09878 -0.25365,-0.154868 -0.0268,-0.02893 -0.0825,-0.09666 0.0162,-0.257882 0.0988,-0.160512 0.24271,-0.321027 0.38488,-0.224012 m -1.60126,0.201435 c 0.12771,0.203907 0.16651,0.27799 0.11325,0.346075 -0.0342,0.04374 -0.1076,0.149577 -0.30904,0.255411 -0.0511,-0.02506 -0.10336,-0.05362 -0.15628,-0.08678 -0.0681,-0.04092 -0.18732,-0.158395 -0.0762,-0.294216 0.11113,-0.135819 0.30057,-0.424038 0.42827,-0.220486 m 6.52816,0.408869 c 0.0194,0.0441 0.0173,0.07655 -0.0469,0.08608 -0.0642,0.01024 -0.25929,-0.0071 -0.42898,-0.162983 -0.0152,-0.0141 -0.0381,-0.03986 -0.0653,-0.07726 0.055,-0.01342 0.0988,-0.02117 0.127,-0.02117 0.11077,-0.0024 0.29845,0.0024 0.41416,0.175329 m 1.5949,-4.231217 c -0.0705,0.10654 -0.12241,0.362657 -0.0226,0.435682 0.0998,0.07338 0.24659,0.132291 0.24659,0.132291 -0.46602,0.5715 -0.78458,0.680157 -1.05693,0.839611 -0.0702,0.04163 -0.0564,0.07796 -0.0155,0.06738 0.0212,-0.006 0.38806,-0.06315 0.81598,-0.388056 0.23177,-0.176036 0.37147,-0.475896 0.37147,-0.475896 0,0 0.11607,0.09631 0.13194,0.116062 0.0349,0.04339 0.0543,0.0755 0.0709,0.02999 0.0607,-0.169333 -0.0254,-0.270933 -0.1076,-0.323498 0,0 0.0854,-0.263173 -0.0716,-0.527756 -0.0261,-0.0441 -0.18203,-0.185209 -0.36266,0.09419 m 0.24342,0.07267 c 0.10478,0.09772 0.0889,0.258234 0.0847,0.294569 0,0 -0.13406,-0.06279 -0.19368,-0.08855 -0.06,-0.0254 -0.0917,-0.0635 -0.0642,-0.1016 0.0928,-0.129823 0.13793,-0.125237 0.17321,-0.104423 m -3.76202,0.487186 c -0.0642,0.0321 -1.60302,0.678039 -1.66899,0.715081 -0.0667,0.03704 -0.0896,0.04622 -0.10301,0.0949 -0.0138,0.04833 -0.0205,0.07655 -0.0236,0.08431 -0.0138,0.03211 -0.0247,0.07197 0.0734,0.01693 0.0303,-0.01765 1.5815,-0.669219 1.63618,-0.700263 0.0547,-0.0314 0.0868,-0.04198 0.11148,-0.09208 0.0247,-0.04939 0.0307,-0.05821 0.0445,-0.09313 0.0141,-0.03669 0.0293,-0.07585 -0.0699,-0.02574 m -0.13335,0.637471 c -0.0536,0.0762 -0.097,0.262467 -0.0254,0.318204 0.072,0.05574 0.1778,0.101955 0.1778,0.101955 -0.35243,0.408162 -0.83856,0.787752 -1.04105,0.899228 -0.0522,0.02857 -0.0427,0.05609 -0.0127,0.04868 0.0159,-0.0035 0.28187,-0.09349 0.60431,-0.31891 0.27128,-0.189794 0.53305,-0.59549 0.53305,-0.59549 0,0 0.0829,0.07302 0.0942,0.08784 0.0243,0.03246 0.0381,0.05609 0.0511,0.02294 0.048,-0.122415 -0.013,-0.198615 -0.0723,-0.239183 0,0 0.0681,-0.190852 -0.042,-0.386999 -0.018,-0.03316 -0.12912,-0.1397 -0.26705,0.06174 m 0.17674,0.05785 c 0.0748,0.07373 0.0596,0.1905 0.0561,0.217313 0,0 -0.097,-0.04868 -0.1404,-0.06879 -0.043,-0.02011 -0.0656,-0.04833 -0.0444,-0.0755 0.0702,-0.09349 0.10371,-0.08925 0.12876,-0.07303 m 1.98296,-1.387827 c -0.0162,0.03881 -0.13723,0.336198 -0.13723,0.336198 0.002,0.01728 0.036,0.146754 0.0427,0.195437 0.0557,0.428625 0.40675,2.960159 0.50764,3.759907 0.0494,0.394052 0.0879,0.748593 0.0935,0.938741 -0.005,0.05891 0.0208,0.08079 0.048,0.02469 0.0145,-0.03034 0.0748,-0.155927 0.0931,-0.484362 0.0141,-0.246592 -0.006,-0.625475 -0.0759,-1.147233 -0.0106,-0.07585 -0.3757,-2.720272 -0.3757,-2.720272 0,0 0.1972,0.185209 0.22895,0.219075 0.0318,0.03316 0.0702,0.01553 0.0522,-0.03845 -0.0183,-0.05398 -0.42192,-1.030465 -0.43533,-1.064332 -0.0127,-0.03387 -0.0257,-0.05821 -0.042,-0.01939 m -9.37683,0.02787 c -0.0339,0.08255 -0.17463,0.366183 -0.1531,0.700971 0.005,0.0769 0.0564,0.227542 0.1725,0.232127 0.0603,-2.65e-4 0.13794,-0.0441 0.19332,-0.233185 0.009,-0.04304 0.0155,-0.07726 0.0194,-0.09419 0.006,-0.02506 -0.013,-0.05574 -0.0325,0.0028 -0.0441,0.116065 -0.1584,0.19685 -0.24412,0.04127 -0.0138,-0.03069 -0.072,-0.171095 0.0346,-0.47907 0.0215,-0.05962 0.048,-0.148522 0.048,-0.148522 0.024,-0.06773 -0.005,-0.10442 -0.0381,-0.02222 m 2.86667,0.02434 c -0.16722,0.215196 -0.17745,0.49883 -0.19967,0.814213 -0.0236,-0.06597 -0.15699,-0.489657 -0.58314,-0.732015 -0.031,-0.01765 -0.0938,0.01588 -0.0998,0.11571 -0.004,0.05786 -0.0198,0.198967 0.0204,0.239184 0.0402,0.03951 0.15911,0.118533 0.17922,0.129116 0.0201,0.0113 0.0416,0.0127 0.0476,-0.0113 0.006,-0.02434 0.0332,-0.08043 0.0716,-0.03987 0.0282,0.02858 0.25577,0.2286 0.32562,0.502708 0.0579,0.238125 -0.52811,0.71896 -0.5588,0.741185 -0.0547,0.03916 -0.0374,0.06456 -0.0116,0.0508 0.0257,-0.01376 0.0511,-0.01728 0.35136,-0.2159 0.24236,-0.16016 0.29316,-0.345016 0.31398,-0.487537 0.002,-0.0064 0.005,-0.01447 0.006,-0.024 0.0251,-0.172509 0.0388,-0.473075 0.0522,-0.564092 0.019,-0.128058 0.0794,-0.391935 0.23918,-0.254707 0.0363,0.0314 0.0744,0.07232 0.0744,0.07232 0.0342,0.04304 0.0766,0.09243 0.097,0.04268 0.0314,-0.07549 0.0568,-0.201083 0.0226,-0.268465 -0.0152,-0.02998 -0.21308,-0.284337 -0.34819,-0.110066 m 14.52421,0.176389 c -0.0699,0.106185 -0.12206,0.362657 -0.0219,0.435327 0.0998,0.07373 0.24623,0.132646 0.24623,0.132646 -0.46566,0.571146 -1.38041,0.976487 -1.59808,1.146879 -0.0649,0.04904 -0.0561,0.07796 -0.0152,0.06667 0.036,-0.0095 0.73307,-0.20461 1.37054,-0.75071 0.2921,-0.250119 0.28364,-0.268465 0.35807,-0.42051 0.0632,0.03281 0.10689,0.08537 0.13159,0.116416 0.0353,0.04339 0.0543,0.07585 0.0709,0.02999 0.0607,-0.168982 -0.0254,-0.270934 -0.1076,-0.323499 0,0 0.0857,-0.263525 -0.0716,-0.527753 -0.0261,-0.0441 -0.18203,-0.184857 -0.363,0.09454 m 0.24377,0.07267 c 0.10512,0.09737 0.0892,0.257527 0.085,0.294217 0,0 -0.13406,-0.06244 -0.19439,-0.0882 -0.0596,-0.02574 -0.091,-0.06385 -0.0631,-0.1016 0.0921,-0.130527 0.13758,-0.125942 0.17251,-0.104421 m -1.78823,-0.165806 c -0.18345,0.232833 -0.19509,0.538692 -0.21943,0.879827 -0.0257,-0.07126 -0.17181,-0.528812 -0.63924,-0.790575 -0.0342,-0.01939 -0.10301,0.01728 -0.10971,0.124531 -0.004,0.06279 -0.0219,0.215194 0.0226,0.258585 0.0441,0.04304 0.17462,0.127707 0.1965,0.1397 0.0219,0.01236 0.0455,0.01376 0.0522,-0.01236 0.007,-0.02611 0.0363,-0.08678 0.079,-0.04339 0.0353,0.03634 0.26564,0.226835 0.38523,0.630412 0.0208,0.05362 0.0706,0.05892 0.0819,-0.01728 0.0275,-0.186619 0.043,-0.511175 0.0575,-0.6096 0.0208,-0.137936 0.0868,-0.422982 0.26176,-0.275167 0.0399,0.03352 0.0819,0.07797 0.0819,0.07797 0.0377,0.04692 0.0843,0.100187 0.10689,0.04621 0.0346,-0.08114 0.0624,-0.216604 0.0247,-0.289629 -0.0169,-0.03281 -0.23424,-0.306917 -0.3817,-0.11924 m -1.80058,-0.01058 c -0.0674,0.03916 -1.78788,1.031523 -1.85738,1.076677 -0.0699,0.0448 -0.0942,0.0568 -0.10548,0.110421 -0.0109,0.05362 -0.0166,0.08467 -0.0198,0.09348 -0.0127,0.03598 -0.0215,0.08043 0.0811,0.01376 0.0321,-0.02117 1.76177,-1.02094 1.82245,-1.058686 0.0579,-0.03634 0.0917,-0.05221 0.11536,-0.10795 0.0233,-0.05503 0.0293,-0.06562 0.0413,-0.104423 0.0134,-0.04092 0.0268,-0.08467 -0.0776,-0.02328 m -15.62946,0.189794 c -0.14323,0.233539 -0.12947,0.524581 -0.12418,0.849841 -0.0286,-0.06597 -0.19332,-0.489654 -0.62653,-0.703791 -0.0314,-0.01553 -0.0896,0.02328 -0.0871,0.125941 0.002,0.05997 -0.002,0.205671 0.0402,0.243771 0.0427,0.03739 0.1644,0.108302 0.18451,0.118534 0.0205,0.0095 0.0413,0.0095 0.0452,-0.01588 0.004,-0.0254 0.0254,-0.08502 0.066,-0.04657 0.0346,0.0314 0.25259,0.195437 0.38982,0.569735 0.0226,0.04939 0.067,0.0508 0.0713,-0.02188 0.01,-0.17921 -0.002,-0.487891 0.002,-0.582787 0.008,-0.132292 0.0438,-0.407458 0.20991,-0.2794 0.0377,0.02893 0.0783,0.06808 0.0783,0.06808 0.0367,0.04163 0.0822,0.0889 0.0981,0.03598 0.024,-0.07938 0.0377,-0.210257 -0.001,-0.276577 -0.0173,-0.02963 -0.23036,-0.274109 -0.34642,-0.08502 m 2.85714,0.390525 c -0.0885,0.03951 -3.19722,1.513771 -3.28824,1.556808 -0.09,0.04269 -0.11712,0.06138 -0.13441,0.125238 -0.0173,0.0635 -0.0254,0.09772 -0.0303,0.111125 -0.0148,0.04304 -0.0353,0.08714 0.0967,0.02151 0.0409,-0.02082 3.17324,-1.495073 3.24521,-1.5367 0.0716,-0.04128 0.11394,-0.05574 0.14569,-0.121356 0.0317,-0.06526 0.0395,-0.0769 0.0572,-0.122412 0.0187,-0.04868 0.0413,-0.09384 -0.0917,-0.03422 m 2.73438,0.253648 c -0.024,0.07408 -0.042,0.131233 -0.01,0.2159 0.0321,0.08467 0.11924,0.276577 0.13335,0.304093 0.0145,0.02752 0.018,0.05856 -0.0296,0.07867 -0.048,0.02045 -0.26599,0.06703 -0.30691,-0.165807 -0.0406,-0.232481 -0.0441,-0.300215 -0.0642,-0.339725 -0.0204,-0.03951 -0.0395,-0.0441 -0.055,-0.0046 -0.0152,0.03916 -0.0251,0.120295 -0.0275,0.133702 -0.002,0.01304 -0.002,0.02222 0.006,0.03669 0.009,0.01447 0.0956,0.274461 0.0561,0.346075 -0.0392,0.07161 -0.23459,0.200025 -0.33725,0.06526 -0.049,-0.09419 -0.0194,-0.332669 -0.0194,-0.388409 0,-0.05609 -0.0176,-0.07549 -0.0416,-0.02998 -0.0236,0.04551 -0.0367,0.07514 -0.0356,0.115358 0.001,0.04057 0.007,0.214842 0.004,0.269875 -0.004,0.05468 0,0.232834 0.10513,0.282575 0.10478,0.05009 0.25753,0.0039 0.37324,-0.214489 0.0892,0.129823 0.22543,0.130175 0.29845,0.103716 0.0617,-0.02294 0.13088,-0.11571 0.15134,-0.244827 0.0201,-0.128764 -0.013,-0.21731 -0.0536,-0.289631 -0.0536,-0.0896 -0.0896,-0.239535 -0.0896,-0.239535 -0.019,-0.05398 -0.0335,-0.108657 -0.0572,-0.03493 m 10.36849,0.520348 c -0.0346,0.08467 -0.17885,0.375002 -0.15663,0.71755 0.005,0.07902 0.0575,0.233537 0.17639,0.237418 0.0617,0 0.14146,-0.04445 0.19791,-0.238477 0.01,-0.04375 0.0162,-0.07902 0.0201,-0.09631 0.006,-0.02574 -0.0131,-0.05715 -0.0332,0.0028 -0.0448,0.118888 -0.16227,0.201438 -0.24976,0.04269 -0.0145,-0.03175 -0.0737,-0.176038 0.0349,-0.490715 0.0219,-0.06138 0.0494,-0.1524 0.0494,-0.1524 0.0247,-0.06914 -0.005,-0.106891 -0.0392,-0.02257 m 3.30765,0.173567 c -0.0321,0.07796 -0.16581,0.347133 -0.1457,0.663927 0.005,0.07338 0.0536,0.216252 0.16369,0.220133 0.0572,-2.64e-4 0.13088,-0.04198 0.18345,-0.22084 0.009,-0.04092 0.0148,-0.07303 0.0187,-0.0889 0.005,-0.02469 -0.0127,-0.05327 -0.0307,0.0021 -0.042,0.109715 -0.15064,0.186973 -0.23177,0.03951 -0.013,-0.02928 -0.0681,-0.162631 0.0324,-0.45438 0.0205,-0.0568 0.0459,-0.14111 0.0459,-0.14111 0.0229,-0.0635 -0.005,-0.09843 -0.036,-0.02045 m -16.59749,0.01093 c -0.0339,0.0822 -0.17462,0.365832 -0.1531,0.700265 0.005,0.07726 0.0564,0.228245 0.17286,0.232127 0.06,0 0.13758,-0.04374 0.19297,-0.233185 0.01,-0.04269 0.0155,-0.07691 0.0194,-0.09349 0.006,-0.02611 -0.013,-0.05574 -0.0325,0.0028 -0.0441,0.115358 -0.1584,0.196498 -0.24377,0.04127 -0.0141,-0.03069 -0.072,-0.171802 0.0339,-0.479777 0.0219,-0.05962 0.0487,-0.148521 0.0487,-0.148521 0.0236,-0.06738 -0.005,-0.103717 -0.0385,-0.02151 m 10.39037,-0.0028 -0.16792,0.230717 -0.32315,-0.235654 c -0.008,-0.0053 -0.0194,-0.0032 -0.0261,0.0049 l -0.19473,0.267758 c -0.006,0.0081 -0.005,0.02011 0.003,0.02574 l 0.33302,0.24271 c 0.008,0.0056 0.0198,0.0039 0.0257,-0.0049 l 0.16863,-0.230362 0.32244,0.235302 c 0.008,0.0056 0.0198,0.0039 0.0261,-0.0049 l 0.19509,-0.267403 c 0.006,-0.0081 0.005,-0.02011 -0.004,-0.02574 l -0.33267,-0.243062 c -0.008,-0.0053 -0.0198,-0.0032 -0.0261,0.0049 m -2.58516,0.07091 c -0.0307,0.07514 -0.15875,0.333023 -0.13899,0.636764 0.005,0.06985 0.0512,0.207082 0.15699,0.210609 0.0547,0 0.12523,-0.03951 0.17532,-0.211315 0.009,-0.03916 0.0145,-0.0702 0.018,-0.08537 0.005,-0.02363 -0.012,-0.0508 -0.0296,0.0024 -0.0399,0.105127 -0.14393,0.178858 -0.22189,0.03739 -0.0124,-0.02787 -0.0649,-0.155575 0.0314,-0.435678 0.0194,-0.05398 0.0437,-0.134763 0.0437,-0.134763 0.0219,-0.06103 -0.004,-0.0949 -0.0349,-0.02011 m -4.8969,0.571855 -0.19544,0.267404 c -0.006,0.0088 -0.004,0.02045 0.004,0.02574 l 0.33303,0.243062 c 0.008,0.006 0.0194,0.0042 0.0254,-0.0049 l 0.19508,-0.267055 c 0.006,-0.0088 0.005,-0.02011 -0.003,-0.02646 l -0.33267,-0.242358 c -0.008,-0.006 -0.0198,-0.0035 -0.0258,0.0046 m -4.99216,0.06562 c -0.0335,0.08219 -0.17462,0.366183 -0.1531,0.700616 0.005,0.07726 0.0564,0.227894 0.17286,0.231775 0.06,-2.64e-4 0.13829,-0.04375 0.19332,-0.233187 0.01,-0.04233 0.0155,-0.07655 0.0194,-0.09313 0.006,-0.02611 -0.0127,-0.05609 -0.0325,0.0024 -0.0437,0.115711 -0.1584,0.196496 -0.24412,0.04163 -0.0138,-0.03104 -0.072,-0.172156 0.0346,-0.479777 0.0212,-0.05962 0.048,-0.148873 0.048,-0.148873 0.024,-0.06703 -0.004,-0.103716 -0.0385,-0.02151 m 3.36762,0.170037 -0.19473,0.267406 c -0.006,0.0081 -0.005,0.01976 0.003,0.02574 l 0.33303,0.242713 c 0.008,0.006 0.0194,0.0039 0.0254,-0.0046 l 0.19508,-0.267758 c 0.006,-0.0081 0.005,-0.01976 -0.003,-0.02574 l -0.33303,-0.242711 c -0.008,-0.006 -0.0198,-0.0039 -0.0257,0.0049 m -3.93171,1.44498 -0.19508,0.267403 c -0.006,0.0081 -0.005,0.01976 0.003,0.02574 l 0.33302,0.243062 c 0.008,0.0056 0.0198,0.0035 0.0257,-0.0049 l 0.19509,-0.267407 c 0.006,-0.0085 0.005,-0.02045 -0.004,-0.02611 l -0.33267,-0.243062 c -0.008,-0.0056 -0.0198,-0.0032 -0.0257,0.0053 m 14.34182,-1.907116 c -0.013,0.04515 -0.0455,0.239535 -0.0533,0.279752 -0.008,0.03986 -0.007,0.07973 0.0124,0.113948 0.0198,0.03457 0.0706,0.152752 0.10689,0.24906 0.0367,0.09666 0.41452,0.82409 0.44944,0.888648 0.0349,0.0642 0.042,0.112887 0.007,0.155221 -1.21285,1.279879 -3.55283,2.066573 -3.62797,2.109964 -0.0744,0.04374 -0.0547,0.07726 0.0713,0.05539 0.18838,-0.03316 1.23931,-0.208844 1.53917,-0.353484 0.19755,-0.09525 0.88794,-0.433916 1.45239,-0.876652 -0.0155,0.114652 -0.0303,0.282575 -0.0222,0.495652 0.0381,1.029407 0.95814,0.858309 1.1998,0.805392 0.72354,-0.15875 1.60831,-1.159227 1.6838,-1.36031 0.0741,-0.198261 0.0854,-0.379942 0.0681,-0.537634 0.19085,-0.10301 0.60008,-0.43321 0.60008,-0.43321 0.0169,0.438854 0.36618,0.570794 0.47342,0.589492 0.50342,0.07655 0.75601,-0.343959 0.86325,-0.480838 0.0917,0.240596 0.31221,0.287515 0.4258,0.30974 0.43392,0.08643 0.51859,-0.22084 0.54116,-0.29069 0.13653,-0.423333 -0.109,-0.739421 -0.1404,-0.774346 -0.0317,-0.03528 -0.048,-0.0013 -0.0589,0.03916 -0.0113,0.04057 -0.0462,0.19332 -0.0681,0.28857 0,0 0.0907,0.148167 0.12312,0.223663 0.0325,0.07514 -0.0159,0.116769 -0.10936,0.127704 -0.26423,0.03246 -0.47484,-0.119237 -0.54751,-0.189087 -0.0727,-0.0695 0.006,-0.193323 0.0642,-0.341138 0.0469,-0.117827 -0.0399,-0.131937 -0.10654,-2.65e-4 -0.22401,0.58914 -0.53904,0.652992 -0.62159,0.674865 -0.74613,0.203904 -0.68157,-0.478367 -0.6791,-0.589846 0.002,-0.111829 -0.079,-0.07091 -0.17109,0.0028 -0.31398,0.252235 -0.56692,0.400402 -0.70274,0.460727 -0.11712,-0.2286 -0.28716,-0.372533 -0.35913,-0.424392 -0.80715,-0.588785 -0.87383,0.599371 -0.84913,0.726723 0.12276,0.505177 0.94721,0.198967 1.07667,0.183444 0.12948,-0.01516 0.0875,0.155575 0.0148,0.257175 -0.17921,0.250121 -0.38594,0.429683 -0.57291,0.582438 -0.79975,0.652637 -1.20121,0.601133 -1.32468,0.5969 -0.78564,-0.02188 -0.71296,-0.868892 -0.66957,-1.049515 0.23601,-0.200025 0.43921,-0.41769 0.55703,-0.64135 0.0483,-0.122767 0.13089,-0.401815 -0.0183,-0.752123 -0.079,-0.15381 -0.32632,-0.585962 -0.32632,-0.585962 0,0 0.18239,0.006 0.20002,0.0053 0.0169,-2.64e-4 0.0515,-0.01834 0.007,-0.06915 -0.0445,-0.0515 -0.42757,-0.433562 -0.45085,-0.464254 -0.0229,-0.03069 -0.0444,-0.05292 -0.0572,-0.0074 m 2.42217,1.7526 c 0,0 -0.11007,0.06315 -0.41769,0.04233 -0.25753,-0.01728 -0.2353,-0.117475 -0.20002,-0.155929 0.0385,-0.04198 0.35418,-0.239887 0.61771,0.113596 M 178.0105,32.90845 c -0.0536,0.06597 -0.58949,0.769763 -0.58949,0.769763 l -0.39018,-0.27799 c 0,0 0.15875,-0.03951 0.18662,-0.04833 0.0279,-0.0078 0.0434,-0.04374 -0.006,-0.06914 -0.0501,-0.02574 -0.52034,-0.213431 -0.55597,-0.227542 -0.036,-0.01447 -0.049,-0.03069 -0.0519,0.0071 -0.003,0.0381 -0.008,0.347485 -0.008,0.347485 0,0 -0.007,0.02188 0.0335,0.0448 0.0413,0.02363 0.0815,0.07338 0.11535,0.106892 0.0335,0.03387 0.47096,0.378883 0.49213,0.391231 0,0 -0.21872,0.384175 -0.24659,0.685448 -0.0279,0.300567 0.005,0.715785 0.41663,0.581729 0.11077,-0.0314 0.5715,-0.214135 0.67451,-0.535517 0.0332,-0.118533 0.12806,-0.332316 -0.0261,-0.54892 -0.0892,-0.127355 -0.44873,-0.342548 -0.44873,-0.342548 0,0 0.27587,-0.382411 0.30233,-0.428625 0.0265,-0.04692 0.12806,-0.3429 0.139,-0.414515 0.0113,-0.07161 0.0169,-0.107596 -0.0363,-0.04127 m -0.0942,1.622779 c -0.15275,0.125588 -0.47413,0.291746 -0.56444,0.300567 -0.0903,0.0085 -0.3295,-0.03528 -0.22543,-0.280813 0.0356,-0.07938 0.27481,-0.489302 0.27481,-0.489302 0.0896,0.04974 0.66746,0.343607 0.51506,0.469548 m 6.23041,0.561621 c -0.0311,0.08643 -0.0434,0.142875 -0.0402,0.176038 0.004,0.03316 0.0148,0.139345 0.0148,0.139345 -0.0321,0.02574 -0.16863,0.111125 -0.30551,0.01024 0.009,-0.02893 0.0268,-0.08855 0.031,-0.121002 0.0148,-0.05116 -0.0166,-0.08855 -0.0413,-0.03634 -0.0254,0.05292 -0.0832,0.228248 -0.12629,0.267758 -0.043,0.03951 -0.0931,0.184857 -0.41946,0.0374 -0.0568,-0.02222 -0.15698,-0.09631 -0.31291,0.06068 -0.35207,0.327377 -0.59549,0.353132 -0.99095,0.493535 -0.048,0.02188 -0.14817,0.09701 -0.0289,0.08537 0.11889,-0.01199 0.61983,2.64e-4 0.89288,-0.312915 0.0572,-0.05539 0.12206,-0.201435 0.33902,-0.116417 0.11994,0.04516 0.34114,0.235657 0.58314,-0.140052 0.14252,0.09454 0.35913,0.0568 0.39335,-0.04798 0.0346,-0.104775 0.0744,-0.208846 0.0741,-0.279754 -2.6e-4,-0.07126 -0.006,-0.1651 -0.006,-0.1651 -0.005,-0.05644 -0.0251,-0.136525 -0.0564,-0.0508 m -9.97197,0.04445 c -0.0335,0.08749 -0.17709,0.390879 -0.133,0.736248 0.0102,0.07973 0.0773,0.232481 0.21026,0.229306 0.0681,-0.0042 0.15416,-0.05433 0.20567,-0.254 0.008,-0.0448 0.0134,-0.08079 0.0169,-0.09878 0.005,-0.02681 -0.018,-0.0568 -0.0367,0.0053 -0.0434,0.122767 -0.16863,0.214138 -0.27516,0.05892 -0.0176,-0.03104 -0.0921,-0.173566 0.0106,-0.499533 0.0208,-0.06315 0.0466,-0.15734 0.0466,-0.15734 0.0229,-0.07126 -0.0117,-0.107243 -0.0452,-0.02011 m -2.99649,0.729898 c -0.0639,0.0321 -0.97967,0.384175 -1.04564,0.421923 -0.0663,0.03634 -0.0896,0.04551 -0.10266,0.09419 -0.0134,0.04833 -0.0205,0.07655 -0.024,0.08396 -0.0134,0.03246 -0.0243,0.07232 0.0737,0.01728 0.0303,-0.01728 0.95779,-0.375354 1.01282,-0.4064 0.0543,-0.0314 0.0868,-0.04198 0.11148,-0.09208 0.0243,-0.04939 0.0303,-0.05821 0.0441,-0.09313 0.0145,-0.03669 0.0293,-0.07549 -0.0699,-0.02574 m -1.78083,0.08961 c -0.0642,0.0321 -0.97966,0.398637 -1.04598,0.436034 -0.0663,0.03669 -0.0896,0.04586 -0.10301,0.09454 -0.0134,0.04868 -0.0205,0.07655 -0.0236,0.08396 -0.0134,0.03246 -0.0243,0.07232 0.0734,0.01728 0.0307,-0.01728 0.95849,-0.389464 1.01318,-0.420862 0.0547,-0.0314 0.0868,-0.04198 0.11147,-0.09207 0.0247,-0.04974 0.0307,-0.05821 0.0445,-0.09278 0.0141,-0.03704 0.0293,-0.0762 -0.0699,-0.02611 m -2.07468,0.01659 -0.16828,0.230717 -0.32314,-0.235654 c -0.008,-0.0053 -0.0194,-0.0032 -0.0258,0.0049 l -0.19508,0.267406 c -0.006,0.0085 -0.005,0.02011 0.004,0.02611 l 0.33266,0.24271 c 0.008,0.006 0.0198,0.0035 0.0261,-0.0046 l 0.16827,-0.230717 0.32279,0.235302 c 0.008,0.006 0.0198,0.0035 0.0257,-0.0046 l 0.19509,-0.267406 c 0.006,-0.0088 0.005,-0.02045 -0.004,-0.02611 l -0.33267,-0.243062 c -0.008,-0.0053 -0.0194,-0.0032 -0.0257,0.0049"
       style="fill:#231f20;fill-opacity:1;fill-rule:evenodd;stroke:none;stroke-width:0.264583"
       id="path1" />
  </g>
</svg>
