<?xml version="1.0" encoding="UTF-8" standalone="no"?>
<!-- Created with Inkscape (http://www.inkscape.org/) -->

<svg
   width="21.564575mm"
   height="6.0798373mm"
   viewBox="0 0 21.564575 6.0798373"
   version="1.1"
   id="svg1"
   xmlns="http://www.w3.org/2000/svg"
   xmlns:svg="http://www.w3.org/2000/svg">
  <defs
     id="defs1" />
  <g
     id="layer1"
     transform="translate(-170.2253,-44.098677)">
    <path
       d="m 184.08463,44.267686 c -0.0702,0.106537 -0.12171,0.362653 -0.0222,0.435678 0.0995,0.07338 0.24518,0.132647 0.24518,0.132647 -0.46355,0.570793 -0.7807,0.679802 -1.05198,0.839258 -0.0698,0.04127 -0.0561,0.07796 -0.0152,0.06703 0.0215,-0.0056 0.38593,-0.06244 0.81209,-0.387702 0.23037,-0.176038 0.36971,-0.47625 0.36971,-0.47625 0,0 0.11536,0.09666 0.13123,0.116417 0.0346,0.04339 0.054,0.07549 0.0706,0.02963 0.0603,-0.168981 -0.0254,-0.270933 -0.10724,-0.323498 0,0 0.0854,-0.263173 -0.0709,-0.52705 -0.0265,-0.0441 -0.18133,-0.185915 -0.36125,0.09384 m 0.24236,0.07267 c 0.10442,0.09772 0.0885,0.257882 0.0843,0.294571 0,0 -0.13335,-0.06244 -0.19297,-0.0882 -0.0596,-0.02574 -0.091,-0.06385 -0.0635,-0.101952 0.0921,-0.129823 0.13723,-0.12559 0.17215,-0.104423 m -1.72755,-0.205317 c -0.0162,0.03916 -0.13617,0.335847 -0.13617,0.335847 0.002,0.01765 0.0356,0.147108 0.042,0.195791 0.0557,0.428271 0.40534,2.959804 0.50553,3.760259 0.049,0.3937 0.0875,0.747887 0.0928,0.938387 -0.004,0.05891 0.0212,0.08079 0.048,0.02434 0.0145,-0.03034 0.0744,-0.155927 0.0928,-0.48401 0.0138,-0.246592 -0.006,-0.625827 -0.0755,-1.147233 -0.0106,-0.07585 -0.37394,-2.720269 -0.37394,-2.720269 0,0 0.19614,0.185209 0.22789,0.218721 0.0314,0.03387 0.0699,0.01588 0.0515,-0.0381 -0.0176,-0.05398 -0.41981,-1.030462 -0.43251,-1.064329 -0.013,-0.03387 -0.0261,-0.05856 -0.0423,-0.01939 m -0.99589,0 c -0.0162,0.03916 -0.14535,0.324908 -0.14535,0.324908 0.003,0.02328 0.0339,0.09349 0.0547,0.237422 0.0219,0.149928 0.0529,0.364066 0.0875,0.600426 0,0 0.51047,2.808817 0.43321,3.057174 -0.0109,0.03351 -0.0265,0.0769 -0.049,0.127703 0.004,-0.220485 -0.0367,-0.549275 -0.25012,-0.826558 -0.28646,-0.371475 -0.83961,-0.822677 -0.96238,-0.942269 -0.0917,-0.0889 -0.58667,-0.540101 -0.84631,-0.874535 -0.11607,-0.153458 -0.2533,-0.359129 -0.2533,-0.359129 0.0825,0.03069 0.1831,0.05821 0.23813,0.07691 0.055,0.01834 0.11924,0 0.0367,-0.07691 -0.0825,-0.0769 -0.71156,-0.536927 -0.76059,-0.591961 -0.049,-0.05538 -0.055,-0.04621 -0.0582,-0.0032 -0.003,0.04269 0,0.269875 0.003,0.340432 0.003,0.07055 0.0183,0.09525 0.0487,0.116768 0.0307,0.02117 0.0797,0.05503 0.11324,0.107244 0.0339,0.05221 0.623,0.92075 1.13947,1.371955 0.0667,0.06914 1.00048,0.756001 1.35184,1.431925 0.0716,0.137935 0.1009,0.271637 0.10901,0.402518 -0.21025,0.34784 -0.69073,0.873477 -1.78787,1.323269 -0.0914,0.04269 -0.0773,0.106187 0.11324,0.04974 0.1905,-0.0568 1.4097,-0.217662 1.81927,-1.132768 0.0988,-0.219782 0.28434,-0.675923 0.0938,-1.697567 -0.0494,-0.418393 -0.33337,-2.16041 -0.33337,-2.16041 0,0 0.19614,0.185208 0.22789,0.21872 0.0314,0.03387 0.0695,0.01588 0.0515,-0.0381 -0.018,-0.05398 -0.41981,-1.030462 -0.43286,-1.064328 -0.0127,-0.03387 -0.0257,-0.05856 -0.042,-0.01939 m 8.9722,0.228248 c -0.0699,0.106539 -0.12171,0.363008 -0.0219,0.435681 0.0995,0.07338 0.24483,0.132644 0.24483,0.132644 -0.46355,0.570793 -1.37407,0.976841 -1.59032,1.146881 -0.0646,0.04868 -0.0561,0.07796 -0.0152,0.06667 0.036,-0.0095 0.7299,-0.204613 1.36349,-0.750358 0.29104,-0.250121 0.28293,-0.269171 0.35666,-0.420865 0.0631,0.03246 0.10689,0.08537 0.13123,0.116417 0.0349,0.04339 0.0543,0.07549 0.0702,0.02963 0.0607,-0.168981 -0.0247,-0.270933 -0.10654,-0.323498 0,0 0.085,-0.263171 -0.0713,-0.52705 -0.0265,-0.0441 -0.18132,-0.18556 -0.36124,0.09384 m 0.24236,0.07267 c 0.10477,0.09772 0.0889,0.257879 0.0847,0.294568 0,0 -0.13335,-0.06244 -0.19332,-0.08819 -0.0596,-0.02574 -0.091,-0.06385 -0.0635,-0.101955 0.0921,-0.12982 0.13723,-0.125587 0.17216,-0.10442 m -1.78012,-0.165455 c -0.18203,0.232834 -0.19367,0.538692 -0.21802,0.87983 -0.0257,-0.07126 -0.17109,-0.528815 -0.63641,-0.79093 -0.0335,-0.01905 -0.1023,0.01728 -0.10901,0.124884 -0.004,0.0628 -0.0215,0.215196 0.0226,0.258233 0.0437,0.04339 0.17392,0.128058 0.19544,0.140054 0.0222,0.01236 0.0455,0.01376 0.0519,-0.01236 0.007,-0.02611 0.0363,-0.08678 0.0787,-0.04339 0.0353,0.03598 0.26458,0.226483 0.38347,0.630415 0.0208,0.05362 0.0702,0.05856 0.0815,-0.01728 0.0275,-0.186618 0.0427,-0.511175 0.0575,-0.6096 0.0208,-0.137935 0.0864,-0.422979 0.26035,-0.275166 0.0399,0.03351 0.0818,0.07796 0.0818,0.07796 0.0367,0.04692 0.0836,0.100542 0.10618,0.04621 0.0339,-0.08149 0.0614,-0.216958 0.024,-0.289983 -0.0166,-0.03246 -0.23213,-0.306917 -0.37994,-0.118888 m -1.79176,-0.01093 c -0.067,0.03951 -1.77906,1.032227 -1.84821,1.077383 -0.0695,0.04445 -0.0938,0.05644 -0.10512,0.110067 -0.0113,0.05362 -0.0166,0.08467 -0.0198,0.09349 -0.0127,0.03598 -0.0212,0.08008 0.0808,0.01304 0.0318,-0.02045 1.75331,-1.020234 1.81363,-1.057982 0.0582,-0.03669 0.0917,-0.05186 0.11501,-0.10795 0.0229,-0.05539 0.0289,-0.06526 0.0413,-0.104068 0.0131,-0.04163 0.0265,-0.08537 -0.0776,-0.024 m -6.6936,0.05009 c -0.0325,0.08008 -0.16898,0.356306 -0.14817,0.681566 0.005,0.07479 0.0543,0.221547 0.16722,0.225425 0.0582,-2.64e-4 0.13335,-0.04233 0.18697,-0.226483 0.009,-0.04163 0.0152,-0.07514 0.019,-0.09137 0.006,-0.02506 -0.0127,-0.05433 -0.0318,0.0028 -0.0423,0.112184 -0.15311,0.191204 -0.23636,0.04022 -0.013,-0.03034 -0.0692,-0.166865 0.0335,-0.466373 0.0204,-0.05821 0.0469,-0.14464 0.0469,-0.14464 0.0229,-0.06562 -0.005,-0.101245 -0.0374,-0.02117 m -5.23946,0.01659 c -0.0303,0.07479 -0.15769,0.332669 -0.13864,0.63641 0.005,0.07056 0.0512,0.207434 0.15663,0.210963 0.0543,-2.65e-4 0.12453,-0.04022 0.17427,-0.211667 0.009,-0.03881 0.0141,-0.0702 0.0177,-0.08537 0.006,-0.02328 -0.0113,-0.0508 -0.0293,0.0024 -0.0399,0.105129 -0.14323,0.178858 -0.22049,0.03775 -0.0127,-0.02822 -0.0649,-0.155927 0.031,-0.435682 0.019,-0.05433 0.0437,-0.135112 0.0437,-0.135112 0.0215,-0.06103 -0.005,-0.09455 -0.0349,-0.01976 m 2.59468,0.07056 c -0.0801,0.04198 -2.8889,1.582912 -2.9711,1.628069 -0.0815,0.0448 -0.10583,0.0635 -0.11818,0.124177 -0.0127,0.06033 -0.0187,0.09208 -0.0222,0.105129 -0.0116,0.04092 -0.0282,0.08325 0.0907,0.01516 0.037,-0.02151 2.86809,-1.564217 2.93229,-1.606902 0.0646,-0.04269 0.10266,-0.05821 0.12912,-0.121005 0.0261,-0.06279 0.0328,-0.07408 0.0466,-0.117475 0.0152,-0.04657 0.0335,-0.0896 -0.0871,-0.02716 m 0.58631,0.04868 c -0.0328,0.08008 -0.16897,0.356303 -0.14816,0.681212 0.005,0.0755 0.0543,0.221898 0.16721,0.225425 0.0582,0 0.13371,-0.04233 0.18698,-0.226484 0.009,-0.04127 0.0152,-0.07479 0.0191,-0.09102 0.005,-0.02506 -0.0127,-0.05433 -0.0318,0.0024 -0.0427,0.112535 -0.15311,0.191558 -0.23636,0.04057 -0.013,-0.02998 -0.0695,-0.167216 0.0335,-0.466373 0.0208,-0.05785 0.0469,-0.144637 0.0469,-0.144637 0.0229,-0.06562 -0.005,-0.101248 -0.0374,-0.02117 m -4.58364,0.114652 c -0.0335,0.105126 -0.0878,0.143226 -0.0501,0.264583 0.26741,0.85725 0.4632,3.00355 0.47625,3.217685 0.0561,0.898525 0.24765,1.217083 0.33055,1.327856 0.41311,0.551392 1.08091,0.147109 1.20827,0.07973 0.0561,-0.02998 0.10689,-0.05927 0.15381,-0.0889 0.0854,0.02611 0.16263,0.03316 0.20143,0.03845 0.71826,0.09772 0.95321,-0.205671 1.10808,-0.331965 0.11253,0.306565 0.42192,0.34431 0.63112,0.268817 0.20884,-0.07549 0.39581,-0.310444 0.39581,-0.310444 0.067,0.146402 0.23707,0.237771 0.29775,0.244121 0.28222,0.02716 0.4191,-0.280459 0.47978,-0.3937 0.0667,0.06738 0.18273,0.164041 0.26705,0.195439 0.26776,0.09948 0.49495,0.02117 0.57079,-0.04904 0.21273,-0.268465 0.16122,-0.619479 0.10937,-0.790223 -0.0515,-0.170743 -0.20955,-0.43321 -0.27623,-0.524581 -0.067,-0.09207 -0.18203,-0.354187 -0.20355,-0.408869 0,0 0.18238,0.03951 0.21272,0.05151 0.0303,0.01236 0.0363,-0.02752 -0.0123,-0.07303 -0.0483,-0.04586 -0.3676,-0.381707 -0.41275,-0.427215 -0.0455,-0.04551 -0.0427,-0.0092 -0.0519,0.02117 -0.009,0.03069 -0.0512,0.186267 -0.0575,0.265642 -0.006,0.07937 0.23989,0.597958 0.34326,0.78105 0.10301,0.183092 0.28222,0.467077 0.35207,0.634648 0.0303,0.07655 -0.0183,0.121354 -0.0878,0.140404 -0.26212,0.07091 -0.44345,-0.01236 -0.53764,-0.07303 -0.0942,-0.06103 -0.12171,-0.137583 -0.0974,-0.268817 0.0243,-0.130878 -0.0635,-0.05785 -0.0822,0.0032 -0.0907,0.399698 -0.2607,0.503415 -0.3489,0.518584 -0.26105,0.02151 -0.28857,-0.189087 -0.29774,-0.222602 -0.009,-0.03352 0.0427,-0.12206 0.0702,-0.179917 0.0272,-0.05821 -0.0247,-0.06421 -0.0639,-0.01236 -0.0395,0.05221 -0.073,0.106892 -0.14605,0.204613 -0.49777,0.600779 -0.8382,0.204258 -0.88053,0.137229 -0.0423,-0.06703 0,-0.143579 0.0247,-0.210609 0.024,-0.06703 -0.0155,-0.06703 -0.0822,0.0032 -0.067,0.0702 -0.1337,0.170747 -0.21272,0.244124 -0.31291,0.213783 -0.60784,0.240948 -0.84596,0.197908 0.079,-0.110067 0.115,-0.213432 0.1397,-0.307269 0.12947,-0.453673 0.008,-0.638529 -0.1337,-0.811038 -0.14218,-0.172153 -0.28611,-0.08078 -0.39723,0.04657 -0.27023,0.310446 -0.36795,0.714023 -0.35525,0.869246 0.001,0.125587 0.0286,0.22225 0.0713,0.297392 -0.11606,0.04445 -0.21167,0.07055 -0.25506,0.07937 0,0 -0.5528,0.144637 -0.7687,-0.38453 -0.11112,-0.271991 -0.15699,-0.626533 -0.17075,-0.741185 -0.0226,-0.184856 -0.17815,-2.705452 -0.50729,-3.636433 -0.0388,-0.109715 -0.0751,0.0081 -0.10866,0.113242 m 2.47545,3.883025 c 0.0667,0.128058 0.0335,0.201083 -0.0243,0.268464 -0.0688,0.08784 -0.16051,0.164042 -0.25964,0.228246 -0.14217,-0.06667 -0.2353,-0.143227 -0.25682,-0.167217 -0.0607,-0.06703 -0.0455,-0.112887 -0.006,-0.186267 0.0392,-0.07303 0.0938,-0.201083 0.23672,-0.307975 0.14252,-0.106891 0.24306,0.03669 0.30973,0.164749 m -4.6549,-3.957461 c -0.15875,0.232834 -0.15063,0.523875 -0.15205,0.849136 -0.0289,-0.06632 -0.19579,-0.491067 -0.65369,-0.710494 -0.0332,-0.01553 -0.0963,0.02294 -0.0956,0.125587 0,0.05962 -0.007,0.205317 0.0374,0.243771 0.0445,0.0381 0.17321,0.110419 0.19438,0.120296 0.0219,0.01024 0.0441,0.01024 0.0487,-0.01516 0.005,-0.02506 0.0289,-0.08467 0.0716,-0.04586 0.0314,0.02787 0.2092,0.157337 0.34572,0.43815 0.11748,0.224012 -0.15769,0.611717 -0.14958,1.026229 0.001,0.09384 0.0487,0.279048 0.17674,0.289631 0.0663,0.0032 0.15487,-0.04551 0.22613,-0.271992 0.013,-0.05115 0.0219,-0.09243 0.0272,-0.112535 0.008,-0.03069 -0.0113,-0.06844 -0.036,0.0019 -0.0554,0.137938 -0.18592,0.230013 -0.27164,0.03704 -0.0134,-0.03775 -0.0737,-0.213077 0.0653,-0.578908 0.11748,-0.307975 0.10442,-0.764821 0.11218,-0.859012 0.0113,-0.132647 0.0554,-0.407107 0.23037,-0.27799 0.0395,0.02963 0.0822,0.06914 0.0822,0.06914 0.0381,0.04198 0.0857,0.08961 0.10372,0.03704 0.0275,-0.07973 0.0452,-0.20955 0.005,-0.276577 -0.018,-0.02999 -0.23989,-0.276931 -0.36795,-0.08925 m 0.9719,0.08502 c -0.0363,0.09596 -0.19261,0.427215 -0.14463,0.804685 0.0113,0.08749 0.0843,0.254355 0.2286,0.250825 0.0744,-0.0046 0.16792,-0.05962 0.22436,-0.277635 0.009,-0.04904 0.0141,-0.08819 0.018,-0.107598 0.006,-0.02963 -0.0194,-0.06279 -0.0399,0.0049 -0.0476,0.134761 -0.1838,0.234598 -0.29951,0.06421 -0.0194,-0.03387 -0.0998,-0.189442 0.012,-0.545748 0.0226,-0.06914 0.0504,-0.171802 0.0504,-0.171802 0.0251,-0.07796 -0.0127,-0.117475 -0.0494,-0.02188 m 14.87241,1.043516 c -0.0346,0.08467 -0.17815,0.375002 -0.15628,0.71755 0.005,0.07902 0.0575,0.233186 0.17639,0.237419 0.061,0 0.1404,-0.0448 0.19649,-0.238829 0.01,-0.04375 0.0159,-0.07867 0.0201,-0.09596 0.006,-0.02611 -0.013,-0.05715 -0.0332,0.0028 -0.0448,0.118533 -0.16157,0.201435 -0.24871,0.04233 -0.0145,-0.0314 -0.0734,-0.175683 0.0349,-0.490715 0.0219,-0.06138 0.0494,-0.1524 0.0494,-0.1524 0.024,-0.06879 -0.005,-0.106185 -0.0392,-0.02222 m 3.29142,0.173567 c -0.0318,0.07797 -0.1644,0.346781 -0.14464,0.663927 0.005,0.07338 0.0536,0.2159 0.16333,0.219781 0.0568,0 0.12983,-0.04163 0.18239,-0.220839 0.009,-0.04057 0.0148,-0.07303 0.018,-0.0889 0.006,-0.02434 -0.012,-0.05327 -0.0307,0.0024 -0.0413,0.110067 -0.14887,0.186618 -0.23001,0.03916 -0.0131,-0.02928 -0.0677,-0.162631 0.0324,-0.454379 0.0201,-0.05644 0.0455,-0.141111 0.0455,-0.141111 0.0226,-0.0635 -0.004,-0.09842 -0.0363,-0.02011 m -13.849,0.0053 c -0.0324,0.08008 -0.16898,0.355952 -0.14781,0.681566 0.005,0.07479 0.0543,0.221544 0.16686,0.225425 0.0582,-2.64e-4 0.1337,-0.04268 0.18697,-0.226835 0.009,-0.04163 0.0152,-0.07479 0.019,-0.09137 0.006,-0.02469 -0.0127,-0.05398 -0.0314,0.0028 -0.0427,0.11289 -0.15345,0.191558 -0.23636,0.04022 -0.0134,-0.02963 -0.0695,-0.166865 0.0335,-0.466019 0.0204,-0.05821 0.0466,-0.14464 0.0466,-0.14464 0.0229,-0.06562 -0.005,-0.101248 -0.0374,-0.02117 m -6.51651,0.06985 c -0.0519,0.155223 -0.26811,0.690385 -0.24236,1.324327 0.006,0.140054 0.0737,0.407106 0.23213,0.438504 -0.006,0.0081 -0.0124,0.01693 -0.0187,0.02716 -0.0974,0.15099 -0.49459,1.223788 -0.0134,1.761421 1.00436,1.122892 2.90477,-0.429683 2.90477,-0.429683 0.0998,-0.09172 0.69144,-0.477663 0.30515,-1.4224 -0.40252,-0.984956 -0.9278,-0.621596 -1.06362,-0.468138 -0.17039,0.192971 -0.36372,0.765175 0.031,0.839965 0.39406,0.07479 0.86678,-0.03069 1.00048,0.309385 0.0159,0.04022 0.01,0.199321 -0.41981,0.478721 -0.13617,0.08855 -1.22519,0.861129 -2.11172,0.638527 -0.18168,-0.04586 -1.00683,-0.347485 -0.55422,-1.649589 0.0124,-0.03493 0.019,-0.06844 0.019,-0.09349 0.079,-0.03175 0.16828,-0.140758 0.23707,-0.42686 0.0148,-0.08079 0.0247,-0.145698 0.031,-0.177448 0.01,-0.04798 -0.0183,-0.106185 -0.0487,0.0046 -0.0684,0.218723 -0.2413,0.370065 -0.36689,0.07514 -0.0201,-0.05856 -0.10407,-0.326319 0.061,-0.907695 0.0332,-0.11289 0.0751,-0.281165 0.0751,-0.281165 0.037,-0.127 -0.005,-0.19685 -0.0575,-0.04128 m 2.8448,1.774473 c -0.0198,-0.01199 -0.14534,-0.03669 -0.26493,-0.02963 -0.11924,0.0074 -0.18592,0.02787 -0.31962,-0.04868 -0.10442,-0.05962 -0.0466,-0.206023 0.0568,-0.230365 0.29528,-0.06808 0.52776,0.308682 0.52776,0.308682 m 10.82922,-1.8415 -0.19403,0.267404 c -0.006,0.0085 -0.005,0.02011 0.004,0.02611 l 0.33091,0.24271 c 0.008,0.0056 0.0198,0.0039 0.0257,-0.0046 l 0.16757,-0.231069 0.32103,0.235654 c 0.008,0.0056 0.0198,0.0039 0.0261,-0.0046 l 0.19403,-0.267758 c 0.006,-0.0085 0.005,-0.02011 -0.004,-0.02574 l -0.33125,-0.242713 c -0.008,-0.006 -0.0194,-0.0039 -0.0254,0.0046 l -0.16792,0.231069 -0.32103,-0.235657 c -0.008,-0.006 -0.0198,-0.0039 -0.0258,0.0046 m -5.12303,0.123825 -0.19403,0.267404 c -0.006,0.0085 -0.005,0.02011 0.004,0.02574 l 0.33091,0.24271 c 0.008,0.006 0.0198,0.0039 0.0257,-0.0046 l 0.19403,-0.267758 c 0.006,-0.0081 0.005,-0.01976 -0.003,-0.02574 l -0.33125,-0.24271 c -0.008,-0.0056 -0.0194,-0.0039 -0.0257,0.0049 m -6.00392,0.116062 -0.16793,0.230717 -0.32138,-0.235654 c -0.008,-0.0056 -0.0194,-0.0035 -0.0254,0.0049 l -0.19402,0.267406 c -0.006,0.0081 -0.005,0.02011 0.003,0.02574 l 0.33126,0.242713 c 0.008,0.006 0.0194,0.0039 0.0257,-0.0046 l 0.16722,-0.230717 0.32138,0.235305 c 0.008,0.006 0.0198,0.0039 0.0257,-0.0046 l 0.19439,-0.267404 c 0.006,-0.0085 0.004,-0.02045 -0.004,-0.02611 l -0.33091,-0.24271 c -0.008,-0.0056 -0.0198,-0.0035 -0.0257,0.0049 m 12.93847,0.176038 c -0.0127,0.04551 -0.0455,0.239887 -0.0529,0.280104 -0.008,0.03986 -0.007,0.07973 0.0127,0.113948 0.0194,0.03422 0.0699,0.152752 0.10618,0.24906 0.0363,0.09631 0.4124,0.82409 0.44697,0.888648 0.0349,0.06421 0.042,0.11289 0.007,0.155223 -1.20686,1.279525 -3.5359,2.066571 -3.61033,2.109962 -0.0744,0.04339 -0.0547,0.07726 0.0705,0.05503 0.18733,-0.03281 1.23367,-0.208492 1.53212,-0.353129 0.19685,-0.09525 0.88371,-0.434271 1.44533,-0.8763 -0.0155,0.113945 -0.03,0.281868 -0.0222,0.4953 0.0381,1.029052 0.95391,0.857954 1.19416,0.805391 0.72037,-0.159104 1.6009,-1.159229 1.67569,-1.360312 0.0741,-0.198261 0.085,-0.379588 0.0681,-0.537634 0.18979,-0.10301 0.5969,-0.43321 0.5969,-0.43321 0.0169,0.438856 0.36406,0.570442 0.47131,0.589492 0.50129,0.07655 0.75247,-0.344311 0.85901,-0.480484 0.0914,0.240242 0.3108,0.287161 0.42369,0.309386 0.4325,0.08643 0.51646,-0.220486 0.53904,-0.291042 0.13547,-0.423333 -0.10865,-0.739069 -0.14005,-0.774346 -0.0314,-0.03493 -0.0476,-0.0011 -0.0586,0.03951 -0.0113,0.04057 -0.0462,0.192968 -0.0681,0.288573 0,0 0.0907,0.148166 0.12277,0.223308 0.0321,0.07549 -0.0155,0.116769 -0.10866,0.128058 -0.26317,0.03245 -0.47272,-0.118887 -0.54539,-0.189089 -0.0723,-0.06985 0.006,-0.193323 0.0646,-0.340784 0.0469,-0.117827 -0.0399,-0.132291 -0.10654,-2.64e-4 -0.22261,0.588785 -0.53587,0.652637 -0.61842,0.674862 -0.74225,0.2032 -0.67839,-0.478719 -0.67592,-0.59055 0.003,-0.111829 -0.0783,-0.07055 -0.17004,0.0032 -0.31256,0.252238 -0.56409,0.40005 -0.69921,0.461081 -0.11677,-0.228952 -0.2861,-0.372885 -0.35772,-0.424743 -0.80327,-0.588788 -0.86959,0.599016 -0.8456,0.726368 0.12241,0.505177 0.94332,0.199319 1.07209,0.18415 0.12876,-0.01553 0.0868,0.155223 0.0145,0.256823 -0.17815,0.250119 -0.38382,0.429684 -0.57009,0.582436 -0.79587,0.652285 -1.19521,0.600781 -1.31833,0.5969 -0.7814,-0.02222 -0.70979,-0.86854 -0.6664,-1.049515 0.2353,-0.200377 0.43745,-0.417687 0.55457,-0.641702 0.048,-0.122415 0.13053,-0.40146 -0.0187,-0.751417 -0.078,-0.154164 -0.32455,-0.586316 -0.32455,-0.586316 0,0 0.18168,0.0056 0.19861,0.0053 0.0176,-2.64e-4 0.0515,-0.01834 0.007,-0.06914 -0.0437,-0.05151 -0.42545,-0.433565 -0.44838,-0.464257 -0.0229,-0.03069 -0.0441,-0.05292 -0.0571,-0.0078 m 2.41088,1.7526 c 0,0 -0.10936,0.06314 -0.41557,0.04268 -0.25647,-0.01728 -0.23424,-0.117827 -0.19896,-0.156281 0.0377,-0.04127 0.35207,-0.240242 0.61453,0.113596 m -3.30094,-1.424871 c -0.0529,0.06632 -0.58667,0.770115 -0.58667,0.770115 l -0.38841,-0.27799 c 0,0 0.1584,-0.04022 0.18592,-0.04798 0.0279,-0.0081 0.0434,-0.0441 -0.006,-0.0695 -0.0497,-0.02574 -0.51753,-0.213429 -0.55316,-0.227894 -0.0356,-0.01447 -0.0487,-0.03069 -0.0519,0.0074 -0.003,0.0381 -0.008,0.347839 -0.008,0.347839 0,0 -0.007,0.02151 0.0335,0.0448 0.0409,0.02328 0.0808,0.07303 0.1143,0.106892 0.0335,0.03352 0.46884,0.378531 0.49001,0.390525 0,0 -0.21766,0.384527 -0.24553,0.685448 -0.0279,0.300919 0.005,0.716137 0.41451,0.582435 0.11042,-0.03175 0.56903,-0.214841 0.67169,-0.536223 0.0332,-0.118179 0.12735,-0.331962 -0.0265,-0.548568 -0.0885,-0.127707 -0.44661,-0.3429 -0.44661,-0.3429 0,0 0.27516,-0.381707 0.30127,-0.428274 0.0265,-0.04727 0.12735,-0.3429 0.13829,-0.414866 0.0113,-0.07161 0.0169,-0.107244 -0.0363,-0.04127 m -0.0938,1.623131 c -0.15169,0.12559 -0.47166,0.291748 -0.56162,0.300215 -0.0896,0.0088 -0.32808,-0.03528 -0.22437,-0.280458 0.0353,-0.07938 0.27376,-0.48895 0.27376,-0.48895 0.0889,0.04904 0.66428,0.343252 0.51223,0.469193 m -7.02133,-1.579033 -0.19403,0.267406 c -0.006,0.0085 -0.005,0.02011 0.003,0.02574 l 0.33125,0.242711 c 0.008,0.006 0.0198,0.0039 0.0257,-0.0046 l 0.19403,-0.267406 c 0.006,-0.0085 0.005,-0.02011 -0.003,-0.02612 l -0.33161,-0.242712 c -0.008,-0.0056 -0.0194,-0.0039 -0.0254,0.0049 m -2.17099,0.4699 -0.19439,0.267407 c -0.006,0.0085 -0.005,0.02011 0.004,0.02611 l 0.33126,0.242713 c 0.008,0.006 0.0194,0.0035 0.0257,-0.0046 l 0.16721,-0.231069 0.32174,0.235657 c 0.008,0.006 0.0194,0.0035 0.0254,-0.0046 l 0.19402,-0.267758 c 0.006,-0.0085 0.005,-0.02011 -0.003,-0.02611 l -0.33126,-0.242359 c -0.008,-0.0064 -0.0198,-0.0039 -0.0257,0.0046 l -0.16722,0.230717 -0.32173,-0.235302 c -0.008,-0.0064 -0.0194,-0.0039 -0.0254,0.0046 m 2.04787,0.208843 -0.19438,0.267407 c -0.006,0.0088 -0.004,0.02011 0.004,0.02611 l 0.33126,0.24271 c 0.008,0.006 0.0194,0.0039 0.0257,-0.0049 l 0.16757,-0.230362 0.32138,0.235302 c 0.008,0.006 0.0194,0.0039 0.0257,-0.0049 l 0.19403,-0.267404 c 0.006,-0.0081 0.005,-0.02011 -0.004,-0.02574 l -0.3309,-0.24271 c -0.008,-0.006 -0.0198,-0.0039 -0.0258,0.0046 l -0.16757,0.231071 -0.32173,-0.235656 c -0.008,-0.006 -0.0191,-0.0039 -0.0254,0.0046 m -6.05155,0.587375 c -0.0325,0.08008 -0.16863,0.355954 -0.14781,0.681215 0.005,0.07514 0.0543,0.221543 0.16721,0.225425 0.0582,-2.65e-4 0.13335,-0.04233 0.18662,-0.226484 0.009,-0.04163 0.0152,-0.07479 0.0194,-0.09137 0.005,-0.02469 -0.0127,-0.05433 -0.0318,0.0028 -0.0423,0.112538 -0.1531,0.191206 -0.23636,0.04022 -0.0134,-0.02998 -0.0691,-0.166862 0.0335,-0.466018 0.0204,-0.05821 0.0466,-0.144992 0.0466,-0.144992 0.0233,-0.06526 -0.005,-0.100893 -0.0374,-0.02082 m 9.02617,-0.09313 c -0.0321,0.08043 -0.16863,0.356307 -0.14817,0.681567 0.005,0.07514 0.0547,0.221546 0.16722,0.225779 0.0586,-2.64e-4 0.1337,-0.04269 0.18732,-0.226837 0.009,-0.04163 0.0148,-0.07479 0.0187,-0.09102 0.006,-0.02506 -0.0124,-0.05468 -0.0314,0.0024 -0.0427,0.112535 -0.15346,0.191558 -0.23636,0.04022 -0.0134,-0.02999 -0.0691,-0.166865 0.0335,-0.466373 0.0205,-0.05786 0.0469,-0.14464 0.0469,-0.14464 0.0229,-0.06526 -0.005,-0.101246 -0.0377,-0.02117 m 10.37096,0.968023 c -0.0314,0.08608 -0.0434,0.142875 -0.0402,0.175684 0.004,0.03281 0.0148,0.139348 0.0148,0.139348 -0.0318,0.02574 -0.16757,0.11077 -0.30374,0.01024 0.008,-0.02928 0.0264,-0.08855 0.0307,-0.121354 0.0145,-0.05045 -0.0166,-0.0882 -0.0416,-0.03563 -0.0243,0.05257 -0.0822,0.228248 -0.12488,0.267406 -0.043,0.03951 -0.0935,0.184854 -0.41804,0.03704 -0.0564,-0.02188 -0.15593,-0.09596 -0.3108,0.06068 -0.35101,0.327731 -0.59337,0.353483 -0.98672,0.49389 -0.0476,0.02188 -0.14746,0.09737 -0.0289,0.08537 0.11889,-0.01199 0.61736,2.65e-4 0.88865,-0.312912 0.0568,-0.05539 0.12171,-0.201438 0.33725,-0.116417 0.1196,0.04551 0.34008,0.235654 0.58103,-0.140406 0.14146,0.0949 0.35666,0.0568 0.39123,-0.04762 0.0346,-0.104775 0.0741,-0.208844 0.0734,-0.280107 0,-0.07091 -0.006,-0.164745 -0.006,-0.164745 -0.005,-0.05645 -0.0251,-0.136525 -0.0561,-0.05045 m -17.02435,0.64629 c -0.0741,0.024 -1.29187,0.480128 -1.37407,0.513291 -0.0765,0.03069 -0.0974,0.05009 -0.11183,0.103362 -0.0145,0.05292 -0.0219,0.08361 -0.0257,0.09208 -0.0148,0.03493 -0.0328,0.06491 0.0797,0.01834 0.055,-0.02257 1.26047,-0.462492 1.33808,-0.497065 0.0628,-0.02716 0.0945,-0.04551 0.12136,-0.100189 0.0268,-0.05362 0.0332,-0.0635 0.048,-0.101246 0.0159,-0.04022 0.0346,-0.06491 -0.0755,-0.02858 m 4.77379,0.07126 c -0.0695,0.03528 -1.17016,0.442384 -1.24213,0.482952 -0.072,0.04022 -0.0974,0.05045 -0.11183,0.103365 -0.0148,0.05256 -0.0222,0.08361 -0.0257,0.09207 -0.0148,0.03493 -0.0265,0.07867 0.0797,0.01834 0.0332,-0.01871 1.14724,-0.432152 1.20686,-0.466371 0.0593,-0.03387 0.0942,-0.04586 0.121,-0.10019 0.0268,-0.05398 0.0332,-0.0635 0.048,-0.101248 0.0159,-0.04057 0.0317,-0.08361 -0.0759,-0.02893"
       style="fill:#231f20;fill-opacity:1;fill-rule:evenodd;stroke:none;stroke-width:0.264583"
       id="path1" />
  </g>
</svg>
