<?xml version="1.0" encoding="UTF-8" standalone="no"?>
<!-- Created with Inkscape (http://www.inkscape.org/) -->

<svg
   width="18.389462mm"
   height="6.1667142mm"
   viewBox="0 0 18.389462 6.1667142"
   version="1.1"
   id="svg1"
   xmlns="http://www.w3.org/2000/svg"
   xmlns:svg="http://www.w3.org/2000/svg">
  <defs
     id="defs1" />
  <g
     id="layer1"
     transform="translate(-162.28446,-34.701293)">
    <path
       d="m 172.93061,34.870458 c -0.0702,0.10654 -0.12206,0.362657 -0.0222,0.43533 0.0998,0.07338 0.24624,0.132643 0.24624,0.132643 -0.46566,0.570794 -0.78458,0.679802 -1.05692,0.839259 -0.0699,0.04127 -0.0564,0.07796 -0.0152,0.06703 0.0212,-0.0056 0.38805,-0.06244 0.81562,-0.387702 0.23177,-0.175684 0.37147,-0.47625 0.37147,-0.47625 0,0 0.11607,0.09666 0.13194,0.116416 0.0349,0.04339 0.0543,0.07585 0.0709,0.02963 0.0607,-0.168982 -0.0254,-0.270934 -0.1076,-0.323144 0,0 0.0854,-0.263525 -0.0713,-0.527404 -0.0265,-0.0441 -0.18238,-0.185561 -0.363,0.09419 m 0.24341,0.07232 c 0.10478,0.09772 0.0889,0.257879 0.0847,0.294569 0,0 -0.13406,-0.06244 -0.19368,-0.08819 -0.0603,-0.02574 -0.0917,-0.06385 -0.0642,-0.101954 0.0928,-0.129821 0.13794,-0.125235 0.17321,-0.104421 m 6.27874,0.02328 c -0.0702,0.106537 -0.12241,0.362654 -0.0226,0.435327 0.10054,0.07338 0.24659,0.132643 0.24659,0.132643 -0.46566,0.570796 -1.38041,0.976842 -1.59808,1.146882 -0.0649,0.04868 -0.0561,0.07796 -0.0152,0.06703 0.0363,-0.0099 0.73307,-0.204963 1.37054,-0.750711 0.2921,-0.250118 0.28399,-0.268816 0.35807,-0.420864 0.0635,0.03281 0.10689,0.08573 0.13159,0.116416 0.0353,0.04339 0.0543,0.07585 0.0709,0.02999 0.0614,-0.169333 -0.0254,-0.271288 -0.1076,-0.323498 0,0 0.0857,-0.263525 -0.0713,-0.527402 -0.0265,-0.0441 -0.18239,-0.185563 -0.36301,0.09419 m 0.24342,0.07267 c 0.10512,0.09737 0.0889,0.25753 0.085,0.294217 0,0 -0.13406,-0.06244 -0.19439,-0.08819 -0.0596,-0.02574 -0.091,-0.06385 -0.0631,-0.101952 0.0917,-0.129823 0.13758,-0.125589 0.17251,-0.104071 m -1.78826,-0.165804 c -0.18344,0.232834 -0.19473,0.539044 -0.21908,0.879827 -0.0261,-0.07126 -0.17215,-0.528814 -0.63958,-0.790927 -0.0342,-0.01905 -0.10337,0.01728 -0.10936,0.125236 -0.004,0.06244 -0.0219,0.214841 0.0222,0.258233 0.0441,0.04304 0.17498,0.127706 0.19685,0.140052 0.0219,0.01199 0.0455,0.01341 0.0519,-0.0127 0.007,-0.02611 0.0367,-0.08678 0.079,-0.04339 0.0353,0.03598 0.26564,0.226484 0.38524,0.630767 0.0208,0.05327 0.0705,0.05856 0.0822,-0.01765 0.0275,-0.186621 0.0423,-0.511175 0.0572,-0.6096 0.0212,-0.137938 0.0868,-0.422981 0.26176,-0.275166 0.0399,0.03387 0.0825,0.07832 0.0825,0.07832 0.037,0.04657 0.0836,0.100187 0.10619,0.04586 0.0342,-0.08114 0.0621,-0.216606 0.0247,-0.289631 -0.0169,-0.03281 -0.23354,-0.307269 -0.38171,-0.119237 m -1.80058,-0.01093 c -0.0674,0.03951 -1.78752,1.032229 -1.85737,1.077383 -0.0699,0.0448 -0.0942,0.05645 -0.10513,0.110067 -0.0113,0.05398 -0.0169,0.08467 -0.0201,0.09349 -0.0127,0.03598 -0.0219,0.08043 0.0811,0.01341 0.0321,-0.02082 1.76177,-1.020585 1.82245,-1.058333 0.0582,-0.03669 0.0917,-0.05186 0.11536,-0.10795 0.0233,-0.05539 0.0293,-0.06526 0.0416,-0.104069 0.0134,-0.04127 0.0265,-0.08502 -0.078,-0.024 m -7.61012,0.180975 c -0.10125,0.12418 -0.19897,0.437092 -0.0832,0.540809 0.11535,0.104423 0.31079,0.210256 0.31079,0.210256 -0.30268,0.379235 -0.86572,0.997656 -1.17334,1.190273 -0.0868,0.05433 -0.0783,0.09807 -0.0275,0.08184 0.84243,-0.2667 1.32503,-1.195917 1.32503,-1.195917 0,0 0.12594,0.113594 0.14323,0.140052 0.0385,0.05891 0.0579,0.1016 0.0847,0.04621 0.0977,-0.2032 0.003,-0.341136 -0.0928,-0.417336 0,0 0.14041,-0.3175 -0.0222,-0.667104 -0.0272,-0.05856 -0.2032,-0.254704 -0.46461,0.07091 m 0.29492,0.121709 c 0.11818,0.135466 0.078,0.333375 0.0677,0.378531 0,0 -0.15911,-0.09525 -0.23072,-0.135115 -0.0709,-0.03986 -0.10583,-0.09102 -0.0663,-0.135112 0.13158,-0.150283 0.18803,-0.138996 0.2293,-0.108304 m 2.64619,-0.240242 c -0.0162,0.03598 -0.13688,0.311504 -0.13688,0.311504 0.002,0.01588 0.0356,0.136171 0.0423,0.181327 0.0557,0.396875 0.40711,2.743552 0.50765,3.485444 0.0494,0.365125 0.0882,0.693563 0.0935,0.869598 -0.005,0.05468 0.0212,0.07514 0.048,0.02257 0.0148,-0.02822 0.0748,-0.143933 0.0935,-0.448733 0.0141,-0.2286 -0.006,-0.579613 -0.0762,-1.063271 -0.0102,-0.0702 -0.37571,-2.521304 -0.37571,-2.521304 0,0 0.19721,0.171804 0.22931,0.202496 0.0317,0.03139 0.0699,0.01482 0.0519,-0.03528 -0.018,-0.05009 -0.42193,-0.954968 -0.43498,-0.986718 -0.013,-0.03104 -0.0257,-0.05398 -0.0423,-0.01765 m -0.9338,0 c -0.0162,0.03598 -0.14605,0.300921 -0.14605,0.300921 0.004,0.02151 0.0342,0.08678 0.055,0.220485 0.0201,0.127 0.0483,0.304094 0.0794,0.500944 0,0 0.41805,2.185458 0.45121,2.454275 0.0339,0.268817 0.0508,0.431448 -0.0617,0.497417 -0.11218,0.06526 -0.42333,0.194381 -0.66216,0.02999 -0.11642,-0.08008 -0.254,-0.35278 -0.63112,-0.429332 -0.0716,-0.0141 -0.58314,-0.04798 -1.05022,0.330907 -0.23883,0.192616 -0.88089,0.909812 -1.01388,1.056568 -0.12207,0.13476 -0.58809,0.68721 -0.91582,0.68086 -0.10901,-0.0024 -0.46637,-0.117827 -0.27728,-0.73942 0.0247,-0.08079 0.024,-0.135115 0.0102,-0.162983 0.35807,-0.262115 0.72919,-0.572207 0.94685,-0.86219 0.16934,-0.226132 0.3101,-0.535165 0.14676,-1.096434 -0.25929,-0.889706 -0.78705,-0.732014 -0.92957,-0.626533 -0.0974,0.07232 -0.32491,0.305152 -0.3108,0.657932 0.0141,0.103716 0.0653,0.341841 0.42016,0.319262 0.0952,-0.006 0.32703,-0.04445 0.43568,-0.03034 0.10936,0.0141 0.34819,0.163687 0.27552,0.278341 -0.50235,0.943679 -3.19299,2.196394 -3.19299,2.196394 -0.066,0.03563 -0.49354,0.212725 -0.48401,0.240593 0.009,0.02822 0.0279,0.02681 0.0804,0.01164 0.0529,-0.01516 1.58292,-0.418042 1.645,-0.45367 0.0325,-0.01871 0.41522,-0.242359 0.84561,-0.547513 -0.002,0.0056 -0.004,0.01093 -0.007,0.01659 -0.0628,0.18909 -0.17216,1.044223 0.50024,1.096785 0.16792,0.01304 0.48718,-0.0081 1.10913,-0.865716 0.16334,-0.225777 0.88688,-0.973313 1.37336,-1.0541 0.18944,-0.03175 0.43251,-0.109713 0.76447,0.22225 0.0819,0.08185 0.30268,0.361598 0.79411,0.193323 0.18873,-0.07549 0.47236,-0.313619 0.40322,-0.903111 -0.0198,-0.167571 -0.48295,-2.730499 -0.48295,-2.730499 0,0 0.22295,0.205316 0.254,0.236008 0.0321,0.03139 0.0709,0.01482 0.0526,-0.03528 -0.0183,-0.05009 -0.42192,-0.954968 -0.43533,-0.986366 -0.013,-0.0314 -0.0257,-0.05433 -0.0423,-0.01799 m -3.45369,2.694165 c 0,0 -0.2794,0.09066 -0.58138,0.02752 -0.11995,-0.03598 0.0123,-0.174273 0.10548,-0.199673 0.06,-0.01622 0.25329,-0.05644 0.4759,0.172157 m 0.002,-2.504723 c -0.13652,0.212373 -0.121,0.473429 -0.11359,0.765175 -0.0279,-0.05891 -0.18944,-0.435327 -0.60819,-0.619125 -0.0307,-0.01342 -0.0861,0.02294 -0.0825,0.115006 0.002,0.05362 -7.9e-4,0.184502 0.0402,0.217665 0.0413,0.03316 0.15875,0.09419 0.1785,0.102658 0.0198,0.0085 0.0395,0.0078 0.043,-0.01516 0.004,-0.02257 0.0236,-0.07655 0.0635,-0.04304 0.0332,0.02752 0.24448,0.170744 0.37959,0.503767 0.0215,0.04339 0.0646,0.04374 0.0677,-0.02151 0.008,-0.160866 -0.006,-0.437795 -0.002,-0.522462 0.007,-0.118888 0.0395,-0.366538 0.20038,-0.255058 0.0363,0.02506 0.0762,0.05927 0.0762,0.05927 0.0353,0.03669 0.079,0.07832 0.0938,0.03034 0.0226,-0.07161 0.0353,-0.189087 -0.003,-0.248002 -0.0166,-0.02611 -0.2233,-0.241652 -0.33372,-0.0695 m -4.40267,0.168981 c -0.12277,0.05503 -0.18838,0.11289 -0.2406,0.243417 -0.0529,0.130527 -0.13758,0.419806 -0.004,0.578202 0.13335,0.159104 0.46214,0.342196 0.52705,0.388763 0.0219,0.01588 0.0797,0.0635 0.14676,0.121002 -0.13053,0.143581 -0.26,0.3175 -0.36936,0.523875 -0.10054,0.0028 -0.32209,-0.06209 -0.39934,-0.08855 -0.0695,-0.0019 0.0141,0.09631 0.0995,0.16863 0.0314,0.02646 0.0963,0.06667 0.20532,0.117827 -0.0226,0.05362 -0.0437,0.108656 -0.0635,0.165806 -0.0275,0.08749 -0.49319,1.460852 0.1718,2.242961 0.10936,0.128764 0.79727,0.766233 1.86619,0.103364 0.15628,-0.09666 0.92851,-0.720021 1.06539,-1.567391 0.0212,-0.129472 0.21202,-0.941565 -0.4512,-1.176515 -0.20567,-0.07267 -0.58879,-0.144285 -1.14336,-0.06773 -0.11959,0.01236 -0.66604,0.06526 -1.10137,0.09031 0.0871,-0.115004 0.19297,-0.228952 0.31927,-0.337609 0.0617,0.05609 0.10936,0.103013 0.121,0.120299 0.0332,0.05292 0.0688,0.04304 0.0759,-0.0028 0.003,-0.02611 0.0282,-0.122767 -0.0152,-0.258586 0.0392,-0.02787 0.0797,-0.05503 0.12276,-0.0822 0.13547,-0.08431 1.64183,-1.028345 1.64183,-1.028345 0.0529,-0.158046 0.0596,-0.197205 0.0783,-0.262821 0.0183,-0.06597 0.0134,-0.09137 -0.055,-0.110419 -0.0681,-0.01905 -1.85173,-0.216252 -2.59785,0.118533 m 1.99072,0.242711 c -0.0437,0.03034 -0.75388,0.464962 -0.86642,0.532696 -0.0512,0.03069 -0.24271,0.136525 -0.46637,0.33161 -0.0282,-0.03281 -0.0603,-0.06597 -0.0981,-0.10019 -0.0762,-0.06879 -0.60572,-0.421216 -0.64135,-0.448379 -0.036,-0.02716 -0.11042,-0.07832 -0.002,-0.147108 0.10795,-0.06844 0.46072,-0.2413 2.07468,-0.168629 m -0.76976,1.903237 c 0.0928,-0.01024 1.00295,-0.104071 1.35678,0.153459 0.11572,0.08184 0.42369,0.273754 0.2921,0.703791 -0.0251,0.0829 -0.45085,1.192387 -1.48695,1.376186 -0.17851,0.03175 -1.50813,0.253648 -1.49684,-1.225198 2.6e-4,-0.08008 -0.0183,-0.53975 0.24941,-1.039284 0.21379,0.05856 0.54963,0.09172 1.0855,0.03105 m 0.085,0.421569 -0.19544,0.267406 c -0.006,0.0085 -0.005,0.02011 0.004,0.02611 l 0.33267,0.242713 c 0.008,0.006 0.0198,0.0039 0.0257,-0.0049 l 0.19508,-0.267052 c 0.006,-0.0088 0.005,-0.02011 -0.004,-0.02646 L 163.9818,37.84552 c -0.008,-0.0056 -0.0198,-0.0035 -0.0254,0.0049 m 0.9137,0.577498 c -0.0702,0.03493 -1.21109,0.480835 -1.28305,0.521403 -0.0727,0.04022 -0.0981,0.0501 -0.11254,0.103365 -0.0145,0.05257 -0.0222,0.08326 -0.0261,0.09172 -0.0148,0.03528 -0.0261,0.07902 0.0804,0.01834 0.0335,-0.01871 1.18745,-0.470607 1.24706,-0.504473 0.06,-0.03422 0.0952,-0.04586 0.12242,-0.100187 0.0265,-0.05398 0.0328,-0.06385 0.0476,-0.1016 0.0159,-0.04022 0.0321,-0.08326 -0.0758,-0.02858 m 0.88124,-2.808465 c -0.0353,0.09172 -0.18557,0.409575 -0.1397,0.771173 0.0109,0.08361 0.0815,0.243769 0.22013,0.240242 0.0716,-0.0042 0.16192,-0.0568 0.21625,-0.265996 0.008,-0.04727 0.0138,-0.08502 0.0173,-0.103363 0.006,-0.02822 -0.0187,-0.05997 -0.0385,0.0049 -0.0455,0.129117 -0.17674,0.224721 -0.28822,0.06209 -0.0183,-0.03281 -0.0963,-0.182033 0.0113,-0.523523 0.0215,-0.06597 0.0483,-0.164746 0.0483,-0.164746 0.0243,-0.07444 -0.012,-0.112538 -0.0469,-0.02082 m 10.68705,0.597606 c -0.0349,0.08431 -0.17886,0.37465 -0.15734,0.717195 0.005,0.07937 0.0579,0.23354 0.17674,0.237422 0.0621,0 0.14182,-0.04481 0.19791,-0.23848 0.01,-0.04374 0.0166,-0.07902 0.0201,-0.09595 0.006,-0.02646 -0.0134,-0.0575 -0.0332,0.0024 -0.0452,0.118885 -0.16192,0.201789 -0.24976,0.04268 -0.0145,-0.03175 -0.0734,-0.176035 0.0349,-0.491067 0.0219,-0.06103 0.0497,-0.152045 0.0497,-0.152045 0.0243,-0.06915 -0.005,-0.10654 -0.0392,-0.02222 m -6.75958,0.154516 c -0.0801,0.09843 -0.15734,0.346427 -0.0656,0.428625 0.0914,0.0829 0.23002,0.156279 0.23002,0.156279 -0.51859,0.517525 -1.21497,0.98284 -1.50072,1.113015 -0.0737,0.03351 -0.0635,0.07126 -0.0219,0.06456 0.0219,-0.0032 0.39088,-0.09807 0.85055,-0.371123 0.38699,-0.229658 0.78211,-0.752827 0.78211,-0.752827 0,0 0.10477,0.107598 0.11853,0.128411 0.03,0.04657 0.0459,0.08043 0.0667,0.03669 0.0776,-0.160866 0.002,-0.270581 -0.0734,-0.330906 0,0 0.11112,-0.251529 -0.0177,-0.528812 -0.0215,-0.04622 -0.16122,-0.202142 -0.36866,0.05609 m 0.23389,0.09701 c 0.0938,0.106891 0.0617,0.263879 0.054,0.299508 0,0 -0.12629,-0.07549 -0.18309,-0.107244 -0.0564,-0.0314 -0.0836,-0.07197 -0.0526,-0.106891 0.10477,-0.11924 0.14922,-0.110067 0.18167,-0.08537 m 9.83263,-0.07832 c -0.0318,0.07796 -0.16545,0.346781 -0.14499,0.663929 0.005,0.07338 0.0533,0.216252 0.16369,0.219779 0.0572,0 0.13052,-0.04127 0.18309,-0.220837 0.009,-0.04057 0.0148,-0.07303 0.0187,-0.0889 0.005,-0.02434 -0.0123,-0.05292 -0.031,0.0024 -0.0413,0.110067 -0.15028,0.186619 -0.23142,0.03951 -0.013,-0.02928 -0.0681,-0.162629 0.0325,-0.454377 0.0205,-0.0568 0.0462,-0.140759 0.0462,-0.140759 0.0229,-0.06421 -0.005,-0.09878 -0.0367,-0.02082 m -6.20642,0.0085 -0.16863,0.230717 -0.32279,-0.235654 c -0.008,-0.006 -0.0194,-0.0039 -0.0257,0.0049 l -0.19508,0.267054 c -0.006,0.0088 -0.004,0.02045 0.004,0.02611 l 0.33231,0.242713 c 0.008,0.006 0.0201,0.0039 0.0265,-0.0046 l 0.16793,-0.231068 0.32279,0.235656 c 0.008,0.006 0.0201,0.0039 0.0265,-0.0046 l 0.19437,-0.267758 c 0.006,-0.0081 0.005,-0.02011 -0.003,-0.02574 l -0.33266,-0.242592 c -0.008,-0.006 -0.0198,-0.0039 -0.0257,0.0049 m 1.30316,0.415925 c -0.013,0.04516 -0.0455,0.23989 -0.0536,0.279755 -0.008,0.03986 -0.007,0.08008 0.013,0.113945 0.0198,0.03422 0.0702,0.152755 0.10689,0.249063 0.0363,0.09631 0.41451,0.824442 0.44908,0.888645 0.0349,0.06456 0.042,0.11289 0.007,0.155224 -1.2132,1.279876 -3.55353,2.066573 -3.62832,2.109964 -0.0741,0.04339 -0.0547,0.07726 0.0713,0.05539 0.18839,-0.03316 1.23931,-0.208844 1.53953,-0.353484 0.1972,-0.0949 0.88758,-0.433565 1.45203,-0.8763 -0.0155,0.113948 -0.0303,0.282223 -0.0219,0.4953 0.0381,1.029052 0.95779,0.858309 1.19944,0.805392 0.72355,-0.15875 1.60867,-1.159227 1.68381,-1.36031 0.0741,-0.198263 0.085,-0.37959 0.0684,-0.537634 0.1905,-0.103013 0.59972,-0.433213 0.59972,-0.433213 0.0173,0.438857 0.36619,0.570442 0.47343,0.589492 0.50377,0.07655 0.756,-0.343958 0.86325,-0.480483 0.0917,0.240241 0.31221,0.287163 0.4258,0.309388 0.43427,0.08643 0.51894,-0.220488 0.54152,-0.29069 0.13617,-0.423685 -0.10901,-0.739423 -0.14076,-0.774348 -0.0318,-0.03528 -0.048,-0.0013 -0.0589,0.03916 -0.0109,0.04057 -0.0462,0.193323 -0.0681,0.288925 0,0 0.0907,0.147815 0.12312,0.222957 0.0325,0.07549 -0.0155,0.116768 -0.10901,0.12841 -0.26423,0.0321 -0.47519,-0.119237 -0.54822,-0.189087 -0.0723,-0.06985 0.006,-0.193323 0.0646,-0.341138 0.0469,-0.117827 -0.0395,-0.132292 -0.10654,-2.65e-4 -0.22401,0.58914 -0.53869,0.65264 -0.62124,0.674865 -0.74613,0.2032 -0.68192,-0.478721 -0.67945,-0.590198 0.002,-0.111832 -0.0787,-0.07056 -0.1711,0.0032 -0.31362,0.252235 -0.56691,0.40005 -0.70238,0.460727 -0.11712,-0.228952 -0.28751,-0.372534 -0.35948,-0.424744 -0.80715,-0.588785 -0.87383,0.599369 -0.84914,0.726723 0.12242,0.505177 0.94721,0.198967 1.07704,0.183796 0.12911,-0.01553 0.0871,0.155575 0.0145,0.256823 -0.17921,0.250118 -0.38559,0.430035 -0.57256,0.582435 -0.8001,0.652288 -1.20156,0.600782 -1.32468,0.5969 -0.78564,-0.02188 -0.71367,-0.868537 -0.66992,-1.049512 0.236,-0.200025 0.4392,-0.41769 0.55703,-0.64135 0.0483,-0.122767 0.13088,-0.401815 -0.018,-0.751771 -0.079,-0.154162 -0.32667,-0.586317 -0.32667,-0.586317 0,0 0.18203,0.0056 0.20002,0.0053 0.0173,-2.65e-4 0.0515,-0.01799 0.007,-0.06914 -0.0441,-0.05115 -0.42757,-0.433565 -0.45085,-0.464256 -0.0229,-0.03069 -0.0445,-0.05292 -0.0572,-0.0074 m 2.42217,1.752249 c 0,0 -0.10972,0.0635 -0.41734,0.04268 -0.25788,-0.01728 -0.23565,-0.117827 -0.20038,-0.155927 0.0388,-0.04163 0.35384,-0.240242 0.61772,0.113242 m -3.31647,-1.424517 c -0.0533,0.06597 -0.58984,0.770115 -0.58984,0.770115 l -0.38982,-0.278342 c 0,0 0.1591,-0.03986 0.18662,-0.04798 0.0279,-0.0081 0.0437,-0.04374 -0.006,-0.06949 -0.0501,-0.02574 -0.52,-0.213431 -0.55598,-0.227542 -0.0356,-0.01482 -0.0487,-0.03105 -0.0519,0.0071 -0.003,0.0381 -0.008,0.347839 -0.008,0.347839 0,0 -0.007,0.02151 0.0339,0.0448 0.0409,0.02328 0.0815,0.07338 0.11466,0.106892 0.0339,0.03352 0.47131,0.378531 0.49247,0.39088 0,0 -0.21872,0.384526 -0.24624,0.685093 -0.0282,0.301273 0.005,0.716492 0.41628,0.582435 0.11077,-0.03175 0.5715,-0.214841 0.67451,-0.535868 0.0335,-0.118182 0.12841,-0.332317 -0.0264,-0.548923 -0.0889,-0.127352 -0.44839,-0.342546 -0.44839,-0.342546 0,0 0.27623,-0.382058 0.30234,-0.428625 0.0264,-0.04692 0.12805,-0.3429 0.13934,-0.414514 0.0109,-0.07197 0.0166,-0.107599 -0.0367,-0.04127 m -0.0945,1.622776 c -0.15275,0.12559 -0.47378,0.291748 -0.56374,0.300215 -0.0903,0.0088 -0.32985,-0.03528 -0.22578,-0.280106 0.0356,-0.07973 0.27482,-0.489302 0.27482,-0.489302 0.0896,0.04904 0.6678,0.343252 0.5147,0.469193 m -2.54035,0.510472 c -0.031,0.07514 -0.15875,0.332668 -0.139,0.63641 0.004,0.0702 0.0508,0.207081 0.15664,0.21096 0.0547,-2.65e-4 0.12559,-0.03986 0.17533,-0.212019 0.009,-0.03845 0.0141,-0.06985 0.018,-0.08502 0.006,-0.02328 -0.0116,-0.0508 -0.0296,0.0024 -0.0399,0.105127 -0.14359,0.178858 -0.2219,0.03775 -0.0124,-0.02822 -0.0649,-0.155929 0.0314,-0.435681 0.0198,-0.05433 0.0441,-0.135115 0.0441,-0.135115 0.0215,-0.06103 -0.004,-0.09454 -0.0349,-0.01976 m 8.77146,0.0515 c -0.0314,0.08608 -0.043,0.142875 -0.0406,0.175684 0.004,0.03281 0.0148,0.139348 0.0148,0.139348 -0.0318,0.02574 -0.16863,0.110773 -0.30515,0.01058 0.009,-0.02928 0.0265,-0.0889 0.0307,-0.121708 0.0148,-0.05045 -0.0166,-0.08819 -0.0413,-0.03563 -0.0251,0.05257 -0.0833,0.228249 -0.12595,0.267759 -0.0434,0.03916 -0.0935,0.184504 -0.4198,0.03704 -0.0568,-0.02188 -0.15664,-0.09595 -0.31256,0.06068 -0.35278,0.327729 -0.5962,0.353129 -0.99131,0.493535 -0.048,0.02222 -0.14817,0.09737 -0.0289,0.08537 0.11924,-0.01199 0.61983,2.65e-4 0.89288,-0.312914 0.0568,-0.05503 0.12242,-0.201436 0.33902,-0.116417 0.11995,0.04551 0.34149,0.235656 0.58315,-0.140407 0.14252,0.0949 0.35912,0.05715 0.3937,-0.04763 0.0342,-0.10442 0.0741,-0.208491 0.0737,-0.279751 -2.6e-4,-0.07126 -0.006,-0.1651 -0.006,-0.1651 -0.005,-0.05609 -0.025,-0.136525 -0.0561,-0.05045 m -11.64096,0.296334 c -0.0303,0.0882 -0.16086,0.392641 -0.11853,0.741188 0.01,0.08043 0.0723,0.234595 0.19367,0.232127 0.0628,-0.0039 0.14147,-0.05398 0.18804,-0.254707 0.007,-0.04551 0.0116,-0.08149 0.0148,-0.09948 0.004,-0.02681 -0.0169,-0.0575 -0.0339,0.0049 -0.0392,0.123473 -0.15417,0.214841 -0.25224,0.05786 -0.0162,-0.03175 -0.085,-0.175331 0.008,-0.503415 0.0183,-0.0635 0.0416,-0.158043 0.0416,-0.158043 0.0204,-0.07162 -0.0113,-0.108305 -0.0413,-0.02045 m 0.99025,0.1651 -0.19508,0.267407 c -0.006,0.0085 -0.004,0.02011 0.003,0.02611 l 0.33337,0.24271 c 0.008,0.0056 0.0194,0.0035 0.0257,-0.0049 l 0.19508,-0.267404 c 0.006,-0.0085 0.005,-0.02011 -0.004,-0.02611 l -0.33302,-0.242731 c -0.008,-0.0056 -0.019,-0.0039 -0.0257,0.0049"
       style="fill:#231f20;fill-opacity:1;fill-rule:evenodd;stroke:none;stroke-width:0.264583"
       id="path1" />
  </g>
</svg>
