<?xml version="1.0" encoding="UTF-8" standalone="no"?>
<!-- Created with Inkscape (http://www.inkscape.org/) -->

<svg
   width="19.954531mm"
   height="6.3454461mm"
   viewBox="0 0 19.954531 6.3454461"
   version="1.1"
   id="svg1"
   xmlns="http://www.w3.org/2000/svg"
   xmlns:svg="http://www.w3.org/2000/svg">
  <defs
     id="defs1" />
  <g
     id="layer1"
     transform="translate(-183.99677,-40.591529)">
    <path
       d="m 196.20643,40.760687 c -0.0702,0.106188 -0.12241,0.362304 -0.0226,0.434975 0.10054,0.07373 0.24659,0.132998 0.24659,0.132998 -0.46566,0.571148 -0.78458,0.679802 -1.05692,0.83961 -0.0702,0.04057 -0.0561,0.07761 -0.0155,0.06668 0.0215,-0.0056 0.38806,-0.06279 0.81597,-0.387702 0.23178,-0.175683 0.37183,-0.47625 0.37183,-0.47625 0,0 0.11571,0.09666 0.13159,0.116417 0.0353,0.04339 0.0543,0.07549 0.0709,0.02963 0.0607,-0.168981 -0.0254,-0.270933 -0.1076,-0.323143 0,0 0.0857,-0.263525 -0.0716,-0.527405 -0.0261,-0.04409 -0.18204,-0.18556 -0.36266,0.09419 m 0.24342,0.07232 c 0.10477,0.09772 0.0889,0.257879 0.0847,0.294568 0,0 -0.13405,-0.06279 -0.19402,-0.08819 -0.06,-0.02574 -0.091,-0.06386 -0.0635,-0.101955 0.0921,-0.130175 0.13793,-0.125235 0.17286,-0.10442 m 6.27838,0.02328 c -0.0699,0.106185 -0.12171,0.362302 -0.0219,0.435327 0.0998,0.07338 0.24624,0.132644 0.24624,0.132644 -0.46567,0.571148 -1.38042,0.976841 -1.59809,1.146529 -0.0649,0.04939 -0.0561,0.07832 -0.0152,0.06738 0.0363,-0.01024 0.73343,-0.204962 1.37055,-0.75071 0.29174,-0.250473 0.28363,-0.269169 0.35806,-0.420865 0.0632,0.03281 0.1069,0.08537 0.13159,0.116417 0.0353,0.04339 0.0543,0.0755 0.0709,0.02963 0.061,-0.168979 -0.0254,-0.270933 -0.1076,-0.323144 0,0 0.0857,-0.263525 -0.0713,-0.527401 -0.0268,-0.0441 -0.18239,-0.185563 -0.36336,0.09419 m 0.24412,0.07267 c 0.10478,0.09737 0.0889,0.257529 0.0847,0.294216 0,0 -0.13406,-0.06279 -0.19438,-0.08819 -0.0596,-0.02574 -0.0914,-0.06385 -0.0632,-0.101952 0.0921,-0.130175 0.13723,-0.125238 0.17286,-0.104071 m -1.78893,-0.165804 c -0.18309,0.232833 -0.19438,0.538692 -0.21908,0.879827 -0.0257,-0.07162 -0.1718,-0.528815 -0.63923,-0.790927 -0.0342,-0.01905 -0.10301,0.01728 -0.10972,0.124883 -0.004,0.06279 -0.0219,0.215194 0.0226,0.258585 0.0445,0.04304 0.17463,0.127707 0.1965,0.1397 0.0219,0.01199 0.0455,0.01376 0.0522,-0.01236 0.006,-0.02646 0.0363,-0.08678 0.0787,-0.04339 0.036,0.03598 0.266,0.226483 0.38594,0.630415 0.0205,0.05362 0.0699,0.05891 0.0819,-0.01728 0.0272,-0.186621 0.0423,-0.511175 0.0572,-0.6096 0.0208,-0.137938 0.0871,-0.422981 0.26211,-0.275166 0.0399,0.03351 0.0818,0.07796 0.0818,0.07796 0.0374,0.04692 0.084,0.100541 0.10654,0.04621 0.0346,-0.08149 0.0624,-0.216958 0.0243,-0.289983 -0.0166,-0.03246 -0.23353,-0.306917 -0.3817,-0.118885 m -1.80023,-0.01093 c -0.0674,0.03951 -1.78717,1.032229 -1.85737,1.077383 -0.0692,0.0448 -0.0942,0.05609 -0.10548,0.110067 -0.0109,0.05362 -0.0166,0.08502 -0.0198,0.09349 -0.0124,0.03563 -0.0215,0.08008 0.0811,0.01341 0.0321,-0.02117 1.76213,-1.020937 1.82245,-1.058333 0.0579,-0.03634 0.0917,-0.05186 0.11536,-0.10795 0.0233,-0.05539 0.0293,-0.06562 0.0416,-0.104421 0.013,-0.04092 0.0265,-0.08467 -0.078,-0.02363 m -4.6355,0.01024 c -0.0162,0.03881 -0.13688,0.335844 -0.13688,0.335844 0.002,0.01728 0.0356,0.147108 0.0423,0.195791 0.0561,0.428273 0.40711,2.959455 0.50765,3.759907 0.0497,0.394052 0.0882,0.748593 0.0935,0.938741 -0.005,0.05892 0.0212,0.08079 0.048,0.024 0.0148,-0.03034 0.0748,-0.155575 0.0935,-0.484013 0.0141,-0.246237 -0.006,-0.625475 -0.0762,-1.147233 -0.0102,-0.07549 -0.37571,-2.720269 -0.37571,-2.720269 0,0 0.19756,0.185561 0.22931,0.218724 0.0318,0.03351 0.0702,0.01588 0.0519,-0.0381 -0.018,-0.05398 -0.42192,-1.030465 -0.43497,-1.06398 -0.013,-0.03422 -0.0257,-0.05856 -0.0423,-0.01939 m -1.00084,0 c -0.0162,0.03881 -0.14605,0.324556 -0.14605,0.324556 0.004,0.02328 0.0339,0.09349 0.0554,0.237771 0.0219,0.149579 0.49036,3.245556 0.50377,3.378906 0.0134,0.133702 0.18485,0.512586 -0.52952,0.675217 0,0 0.21166,-0.411692 0.21166,-0.59055 0,-0.17921 -0.16262,-0.521052 -0.69991,-0.610658 -0.25752,-0.02822 -0.59936,0.100893 -1.09255,0.515056 -0.0406,0.04586 -0.12559,0.138287 -0.22684,0.248708 0.0526,-0.192616 0.19086,-1.042812 -0.29386,-3.323166 0,0 0.12876,0.06703 0.19615,0.123118 0.067,0.05574 0.11183,0.03352 0.067,-0.04516 -0.0448,-0.07796 -0.37535,-0.778579 -0.40887,-0.856544 -0.0335,-0.07867 -0.0504,-0.07267 -0.0727,-0.02822 -0.0222,0.0448 -0.0843,0.28575 -0.0843,0.28575 0.0226,0.128765 0.0621,0.235305 0.09,0.408871 0.0279,0.173567 0.33584,2.133952 0.35842,2.380192 0.0222,0.246592 0.10089,0.957792 -0.0561,1.265767 -0.005,0.0088 -0.008,0.01693 -0.0124,0.02468 -0.22754,0.247298 -0.45261,0.490715 -0.45261,0.490715 -0.20144,0.0056 -0.82304,0.07267 -1.0922,-0.621596 -0.21837,-0.5715 -0.42016,-3.55106 -0.58244,-4.161719 -0.0392,-0.117475 -0.0727,-0.117475 -0.12312,0 -0.0504,0.117827 -0.0896,0.29704 -0.0896,0.29704 0.20249,0.739421 0.2734,1.579034 0.32808,2.343502 0.0758,1.056923 0.13229,1.970617 0.56797,2.277181 0.26846,0.189088 1.0474,0.554567 2.90125,0.05609 0.38664,-0.10654 1.00259,-0.263173 1.14264,-0.554567 0.14006,-0.291041 0.17357,-0.548923 0.0952,-1.243189 -0.0561,-0.353132 -0.35807,-2.395009 -0.35807,-2.395009 0,0 0.1972,0.185561 0.22895,0.219075 0.0317,0.03316 0.0702,0.01553 0.0519,-0.03845 -0.018,-0.05398 -0.42192,-1.030465 -0.43497,-1.06398 -0.0131,-0.03422 -0.0261,-0.05856 -0.0423,-0.01939 m -0.1905,4.092927 c 0.0727,0.07937 0.10372,0.14464 -0.0222,0.218371 -1.21532,0.7112 -2.14524,0.599369 -2.14524,0.599369 0.11218,-0.15099 0.9465,-1.10349 1.34973,-1.125715 0.24729,-0.01376 0.56585,0.03351 0.81773,0.307975 m -0.14287,-3.334454 c -0.0702,0.03528 -1.23684,0.506942 -1.30916,0.54751 -0.0723,0.04022 -0.0977,0.05045 -0.11218,0.103365 -0.0148,0.05292 -0.0222,0.08361 -0.0257,0.09208 -0.0148,0.03493 -0.0268,0.07867 0.0801,0.01834 0.0332,-0.01871 1.2132,-0.497065 1.27282,-0.530932 0.0596,-0.03422 0.0949,-0.04586 0.12206,-0.100187 0.0265,-0.05398 0.0332,-0.06385 0.048,-0.1016 0.0159,-0.04022 0.0321,-0.08326 -0.0759,-0.02857 m -0.21308,1.022702 c -0.0233,0.07126 -0.0402,0.126648 -0.009,0.20814 0.031,0.08184 0.11501,0.2667 0.12876,0.29351 0.0138,0.02611 0.0173,0.05609 -0.0289,0.07585 -0.0459,0.01939 -0.25647,0.06456 -0.29563,-0.160163 -0.0388,-0.224012 -0.0423,-0.289277 -0.0621,-0.327377 -0.0194,-0.0381 -0.0378,-0.04268 -0.0529,-0.0049 -0.0148,0.03775 -0.0243,0.116416 -0.0261,0.129116 -0.002,0.01236 -0.002,0.02188 0.006,0.03563 0.008,0.01341 0.0921,0.264231 0.054,0.333375 -0.0377,0.06879 -0.22648,0.193323 -0.32561,0.06315 -0.0469,-0.09102 -0.0183,-0.320675 -0.0183,-0.375005 0,-0.05398 -0.0173,-0.07232 -0.0402,-0.02858 -0.0229,0.04375 -0.0356,0.07232 -0.0342,0.11148 10e-4,0.03916 0.007,0.207079 0.003,0.259643 -0.003,0.05327 0,0.224719 0.10125,0.272699 0.10125,0.04868 0.24835,0.0039 0.36019,-0.20673 0.0861,0.125238 0.21695,0.12559 0.28716,0.10019 0.06,-0.02188 0.12664,-0.111832 0.14605,-0.236009 0.0198,-0.124176 -0.0127,-0.209198 -0.0515,-0.2794 -0.0519,-0.08608 -0.0864,-0.231423 -0.0864,-0.231423 -0.0183,-0.0515 -0.0321,-0.10442 -0.055,-0.03316 m -2.72098,-1.463323 c -0.0307,0.09313 -0.16263,0.41628 -0.11888,0.78599 0.0102,0.08537 0.0741,0.249415 0.19826,0.246591 0.0638,-0.0039 0.14393,-0.0568 0.19085,-0.269875 0.007,-0.04798 0.0116,-0.08643 0.0148,-0.105126 0.005,-0.02893 -0.0173,-0.06138 -0.0346,0.0049 -0.0392,0.130882 -0.15593,0.227542 -0.25683,0.06068 -0.0166,-0.03352 -0.0871,-0.186267 0.007,-0.533755 0.0187,-0.06738 0.042,-0.16792 0.042,-0.16792 0.0212,-0.0762 -0.0116,-0.115007 -0.0423,-0.02151 m 0.35349,2.157238 c -0.0307,0.09313 -0.16228,0.416277 -0.11889,0.785987 0.0102,0.08537 0.0744,0.249063 0.19826,0.246592 0.0642,-0.0039 0.14394,-0.0568 0.19121,-0.269875 0.007,-0.04798 0.0113,-0.08643 0.0148,-0.105479 0.005,-0.02857 -0.0177,-0.06138 -0.0346,0.0049 -0.0395,0.131233 -0.15628,0.227896 -0.25682,0.06068 -0.0169,-0.03316 -0.0875,-0.185914 0.006,-0.5334 0.0191,-0.06738 0.0423,-0.167923 0.0423,-0.167923 0.0208,-0.07585 -0.012,-0.115006 -0.0427,-0.02151 m -2.31846,-2.290588 c -0.17427,0.221898 -0.18521,0.512588 -0.20849,0.837141 -0.0247,-0.06773 -0.16369,-0.50306 -0.60854,-0.75212 -0.0321,-0.01834 -0.0977,0.01622 -0.10407,0.118533 -0.004,0.05962 -0.0208,0.204611 0.0215,0.245886 0.042,0.04092 0.16616,0.121708 0.18697,0.132998 0.0208,0.01164 0.0434,0.01304 0.0497,-0.01164 0.006,-0.02506 0.0342,-0.08255 0.0748,-0.04127 0.0339,0.03422 0.25295,0.215545 0.36654,0.59972 0.0201,0.0508 0.067,0.05609 0.0783,-0.01622 0.0261,-0.1778 0.0406,-0.486481 0.0543,-0.579966 0.0201,-0.131585 0.0825,-0.402873 0.24942,-0.262115 0.0378,0.03211 0.078,0.07444 0.078,0.07444 0.0353,0.04445 0.0797,0.09525 0.10125,0.04374 0.0328,-0.07726 0.0593,-0.206375 0.0233,-0.275518 -0.0159,-0.03105 -0.22225,-0.292455 -0.36301,-0.113596 m -2.76507,0.03105 c -0.14605,0.213429 -0.13864,0.480835 -0.14005,0.779992 -0.0268,-0.06103 -0.18062,-0.451557 -0.60325,-0.65264 -0.0307,-0.01482 -0.0889,0.02082 -0.0882,0.115006 0,0.05503 -0.007,0.188735 0.0346,0.224012 0.0406,0.03528 0.15945,0.1016 0.17921,0.110422 0.0201,0.0095 0.0406,0.0095 0.0448,-0.01376 0.004,-0.02294 0.0268,-0.07796 0.066,-0.04233 0.0289,0.02574 0.19297,0.144637 0.31926,0.402518 0.10831,0.205669 -0.14534,0.561975 -0.13828,0.942624 10e-4,0.08643 0.0455,0.256468 0.16333,0.266345 0.0614,0.0028 0.14288,-0.04163 0.20884,-0.249767 0.012,-0.04727 0.0201,-0.08502 0.0251,-0.103716 0.007,-0.02787 -0.0102,-0.06279 -0.0332,0.0013 -0.0512,0.127 -0.17145,0.211666 -0.25082,0.03457 -0.0124,-0.03493 -0.0681,-0.196144 0.0603,-0.531987 0.1083,-0.28293 0.0963,-0.702733 0.10372,-0.789165 0.01,-0.121708 0.0512,-0.373943 0.21237,-0.255058 0.0363,0.02681 0.0759,0.06315 0.0759,0.06315 0.0353,0.0388 0.0794,0.08255 0.096,0.03422 0.0251,-0.07338 0.0413,-0.192968 0.004,-0.254351 -0.0166,-0.02716 -0.22155,-0.254355 -0.33973,-0.08149 m -1.55257,0.919337 c -0.0434,0.15593 -0.23213,0.694621 -0.16369,1.31304 0.0152,0.134408 0.0998,0.384175 0.25964,0.41275 -0.0138,0.01341 -0.03,0.03457 -0.0494,0.06562 -0.0995,0.160867 -0.50235,1.302102 8e-4,1.866194 1.05233,1.178631 3.01025,-0.486833 3.01025,-0.486833 0.10301,-0.09842 0.71332,-0.513644 0.3048,-1.510594 -0.42651,-1.039283 -0.96802,-0.648052 -1.10772,-0.48401 -0.17498,0.206375 -0.37077,0.814562 0.0392,0.889704 0.40992,0.07479 0.89958,-0.04233 1.0414,0.316441 0.0166,0.04269 0.0109,0.210963 -0.43216,0.511882 -0.14005,0.09525 -1.26329,0.92569 -2.1851,0.699558 -0.18874,-0.04657 -1.04775,-0.357365 -0.58914,-1.74131 0.0173,-0.05257 0.0229,-0.100542 0.0159,-0.125942 0.0903,-0.01447 0.19685,-0.111479 0.25894,-0.447323 0.0106,-0.08008 0.0162,-0.14464 0.0208,-0.175683 0.006,-0.04833 -0.0261,-0.102659 -0.0501,0.0078 -0.0564,0.218723 -0.22543,0.378883 -0.3743,0.09807 -0.025,-0.05574 -0.12947,-0.311856 0.003,-0.892175 0.0268,-0.112535 0.0593,-0.280458 0.0593,-0.280458 0.03,-0.127 -0.018,-0.192265 -0.0621,-0.03669 m 3.0279,1.743075 c -0.0208,-0.01236 -0.15135,-0.03669 -0.27517,-0.02822 -0.12347,0.0092 -0.19227,0.0314 -0.33197,-0.04798 -0.109,-0.06209 -0.0501,-0.217662 0.0572,-0.244827 0.30551,-0.07514 0.54999,0.321027 0.54999,0.321027 m 12.48903,-1.533525 c -0.0346,0.08467 -0.17886,0.37465 -0.15663,0.71755 0.005,0.07902 0.0575,0.233188 0.17674,0.237067 0.0614,0 0.14111,-0.04445 0.19756,-0.238125 0.01,-0.04374 0.0162,-0.07902 0.0201,-0.09631 0.006,-0.02611 -0.0131,-0.05715 -0.0332,0.0028 -0.0448,0.118534 -0.16227,0.201436 -0.24976,0.04269 -0.0145,-0.03175 -0.0734,-0.176036 0.0349,-0.491067 0.0222,-0.06103 0.0497,-0.152045 0.0497,-0.152045 0.0243,-0.06879 -0.005,-0.10654 -0.0395,-0.02257 m -12.74938,-0.01342 -0.16828,0.231069 -0.32315,-0.235657 c -0.008,-0.0056 -0.0194,-0.0039 -0.0257,0.0046 l -0.19508,0.267758 c -0.006,0.0085 -0.004,0.02011 0.004,0.02574 l 0.33267,0.24271 c 0.008,0.0056 0.0198,0.0039 0.0258,-0.0046 l 0.16827,-0.231069 0.32315,0.235654 c 0.008,0.0056 0.0198,0.0039 0.0257,-0.0046 l 0.19509,-0.267759 c 0.006,-0.0085 0.005,-0.02011 -0.003,-0.02574 l -0.33302,-0.242713 c -0.008,-0.0056 -0.0194,-0.0039 -0.0257,0.0046 m 16.05667,0.18697 c -0.0317,0.07796 -0.16545,0.346782 -0.14534,0.66393 0.005,0.07303 0.0536,0.2159 0.16369,0.219779 0.0571,0 0.13123,-0.04163 0.18344,-0.220837 0.009,-0.04057 0.0148,-0.07303 0.0183,-0.0889 0.006,-0.02434 -0.012,-0.05327 -0.0303,0.0024 -0.042,0.109715 -0.15064,0.186618 -0.23178,0.03916 -0.013,-0.02893 -0.0677,-0.162277 0.0325,-0.454025 0.0205,-0.0568 0.0462,-0.14111 0.0462,-0.14111 0.0222,-0.06385 -0.005,-0.09878 -0.0367,-0.02045 m -6.20642,0.0081 -0.16863,0.230717 -0.32244,-0.235656 c -0.008,-0.0056 -0.0201,-0.0035 -0.0261,0.0049 l -0.19509,0.267407 c -0.006,0.0085 -0.005,0.02011 0.004,0.02611 l 0.33267,0.242713 c 0.008,0.006 0.0194,0.0035 0.0257,-0.0049 l 0.16828,-0.230716 0.32314,0.235656 c 0.008,0.006 0.0194,0.0035 0.0258,-0.0049 l 0.19508,-0.267406 c 0.006,-0.0081 0.005,-0.02011 -0.003,-0.02611 l -0.33303,-0.242713 c -0.008,-0.0056 -0.0198,-0.0035 -0.0257,0.0049 m 1.30351,0.415925 c -0.0134,0.04551 -0.0459,0.23989 -0.0536,0.280107 -0.008,0.03986 -0.007,0.07973 0.0124,0.113593 0.0198,0.03457 0.0706,0.153107 0.10689,0.249415 0.037,0.09631 0.41452,0.824087 0.44944,0.888646 0.0349,0.06456 0.042,0.112537 0.007,0.155223 -1.21285,1.279525 -3.55282,2.066573 -3.62761,2.109964 -0.0748,0.04339 -0.055,0.07726 0.0706,0.05503 0.18873,-0.03281 1.24001,-0.208846 1.53987,-0.353132 0.19755,-0.09525 0.88759,-0.433916 1.45203,-0.876652 -0.0159,0.1143 -0.03,0.282221 -0.0222,0.495652 0.0381,1.029052 0.95814,0.858309 1.19979,0.805392 0.72355,-0.159102 1.60832,-1.159227 1.68381,-1.36031 0.0741,-0.198615 0.085,-0.37959 0.0684,-0.537634 0.1905,-0.103364 0.59973,-0.433212 0.59973,-0.433212 0.0169,0.438856 0.36582,0.570796 0.47377,0.589846 0.50307,0.07655 0.75565,-0.344665 0.86325,-0.480838 0.091,0.240242 0.31221,0.287163 0.42545,0.309388 0.43427,0.08643 0.51894,-0.22084 0.54116,-0.29069 0.13653,-0.423685 -0.10901,-0.739423 -0.1404,-0.7747 -0.0317,-0.03492 -0.0476,-0.0011 -0.0586,0.03951 -0.0117,0.04057 -0.0466,0.192971 -0.0684,0.288573 0,0 0.0907,0.148167 0.12312,0.223309 0.0325,0.07549 -0.0159,0.116768 -0.10936,0.128058 -0.26423,0.03246 -0.47484,-0.11924 -0.54752,-0.188735 -0.0727,-0.07021 0.006,-0.193675 0.0646,-0.341138 0.0466,-0.118179 -0.0402,-0.132292 -0.10724,-7.94e-4 -0.22366,0.589137 -0.53834,0.652637 -0.62124,0.675217 -0.74613,0.2032 -0.68157,-0.478721 -0.6791,-0.590198 0.003,-0.111832 -0.079,-0.07091 -0.17074,0.0032 -0.31398,0.251883 -0.56692,0.40005 -0.70309,0.460727 -0.11712,-0.228952 -0.28716,-0.372886 -0.35877,-0.424744 -0.80787,-0.588785 -0.87419,0.599369 -0.84949,0.726723 0.12276,0.505177 0.94756,0.198967 1.07667,0.183444 0.12947,-0.01516 0.0871,0.155575 0.0145,0.257175 -0.17851,0.250118 -0.38559,0.429683 -0.57256,0.582435 -0.7994,0.652288 -1.20121,0.600781 -1.32468,0.5969 -0.78529,-0.02188 -0.71297,-0.868537 -0.66957,-1.049512 0.23636,-0.200025 0.4392,-0.41769 0.55738,-0.641705 0.048,-0.122412 0.13088,-0.40146 -0.0187,-0.751416 -0.079,-0.154162 -0.32632,-0.586317 -0.32632,-0.586317 0,0 0.18238,0.0056 0.19967,0.0053 0.0173,-2.65e-4 0.0515,-0.01834 0.007,-0.06914 -0.0441,-0.05151 -0.42721,-0.433565 -0.45014,-0.464256 -0.0233,-0.03104 -0.0445,-0.05292 -0.0572,-0.0078 m 2.42182,1.7526 c 0,0 -0.11007,0.06315 -0.41699,0.04269 -0.25788,-0.01728 -0.236,-0.117827 -0.20073,-0.155927 0.0385,-0.04163 0.35419,-0.240242 0.61772,0.113241 M 185.57956,43.72628 c -0.031,0.09913 -0.1651,0.443442 -0.11923,0.837494 0.0109,0.09102 0.0765,0.265994 0.20284,0.263525 0.0656,-0.0039 0.14711,-0.06032 0.19403,-0.28716 0.008,-0.05116 0.012,-0.09208 0.0152,-0.112184 0.005,-0.03069 -0.018,-0.06526 -0.0353,0.0053 -0.0399,0.1397 -0.15875,0.242358 -0.26212,0.06385 -0.0169,-0.03563 -0.0892,-0.19826 0.006,-0.568677 0.0191,-0.07197 0.0423,-0.178858 0.0423,-0.178858 0.0215,-0.08079 -0.012,-0.122767 -0.0434,-0.02328 m 3.01096,-0.734483 c -0.0127,0.04657 -0.0455,0.245179 -0.0536,0.286102 -0.008,0.04092 -0.007,0.08184 0.0127,0.116769 0.0198,0.03493 0.0705,0.155929 0.10724,0.254354 0.0363,0.09842 0.41416,0.842785 0.44908,0.908754 0.0346,0.06597 0.042,0.115006 0.007,0.158398 -1.21285,1.308452 -3.55317,2.112785 -3.62796,2.157235 -0.0748,0.04445 -0.055,0.07902 0.0709,0.05645 0.18839,-0.03387 1.23967,-0.213431 1.53953,-0.361246 0.29951,-0.14746 1.73143,-0.867479 2.14065,-1.661229 0.048,-0.125589 0.13088,-0.410633 -0.0187,-0.768704 -0.0787,-0.157337 -0.32632,-0.599369 -0.32632,-0.599369 0,0 0.18238,0.006 0.19967,0.0056 0.0173,-2.65e-4 0.0515,-0.01871 0.007,-0.07091 -0.0441,-0.05221 -0.42757,-0.443087 -0.4505,-0.474486 -0.0233,-0.0314 -0.0445,-0.05398 -0.0575,-0.0078 m 8.63494,0.04022 c -0.0536,0.06597 -0.58949,0.770112 -0.58949,0.770112 L 196.2453,43.52407 c 0,0 0.15875,-0.03986 0.18663,-0.04798 0.0275,-0.0085 0.0434,-0.04409 -0.006,-0.06985 -0.0497,-0.0254 -0.52,-0.213077 -0.55598,-0.227541 -0.0356,-0.01482 -0.0487,-0.03069 -0.0519,0.0074 -0.003,0.0381 -0.008,0.347488 -0.008,0.347488 0,0 -0.007,0.02188 0.0335,0.04515 0.0413,0.02328 0.0815,0.07303 0.11535,0.106891 0.0335,0.03352 0.47096,0.378532 0.49248,0.39088 0,0 -0.21943,0.384175 -0.24694,0.685093 -0.0279,0.300919 0.005,0.716492 0.41663,0.582436 0.11077,-0.0314 0.5715,-0.214842 0.67451,-0.535869 0.0332,-0.118533 0.12806,-0.332317 -0.0261,-0.549275 -0.0893,-0.127352 -0.44909,-0.342194 -0.44909,-0.342194 0,0 0.27622,-0.382058 0.30268,-0.428979 0.0265,-0.04657 0.12806,-0.342546 0.139,-0.41416 0.0113,-0.07162 0.0169,-0.10795 -0.0363,-0.04163 m -0.0945,1.623129 c -0.1524,0.125589 -0.47378,0.291748 -0.56374,0.300566 -0.0903,0.0085 -0.32985,-0.03528 -0.22578,-0.28081 0.0356,-0.07937 0.27517,-0.48895 0.27517,-0.48895 0.0892,0.04939 0.6671,0.343606 0.51435,0.469194 m 6.23076,0.561975 c -0.0311,0.08608 -0.0434,0.142875 -0.0399,0.175683 0.003,0.03281 0.0145,0.139348 0.0145,0.139348 -0.0321,0.02574 -0.16863,0.110773 -0.30551,0.01024 0.009,-0.02928 0.0268,-0.08855 0.0307,-0.121356 0.0152,-0.05045 -0.0159,-0.08819 -0.0409,-0.03598 -0.0251,0.05292 -0.0833,0.228248 -0.1263,0.267758 -0.0427,0.03951 -0.0931,0.184856 -0.41945,0.03704 -0.0568,-0.02151 -0.15698,-0.09596 -0.31256,0.06068 -0.35242,0.327732 -0.59584,0.353484 -0.9913,0.49389 -0.048,0.02188 -0.14817,0.09737 -0.0293,0.08537 0.11924,-0.01198 0.62019,2.65e-4 0.89324,-0.312914 0.0572,-0.05503 0.12206,-0.201436 0.33866,-0.116769 0.11995,0.04586 0.34185,0.236008 0.58385,-0.140055 0.14217,0.0949 0.35878,0.0568 0.39335,-0.04763 0.0346,-0.104775 0.0737,-0.208843 0.0737,-0.279751 -2.6e-4,-0.07126 -0.007,-0.1651 -0.007,-0.1651 -0.005,-0.05644 -0.0247,-0.136525 -0.0561,-0.05045 m -8.76793,0.06632 c -0.031,0.07479 -0.15875,0.332668 -0.139,0.63641 0.005,0.0702 0.0508,0.207081 0.15663,0.210963 0.0547,-2.65e-4 0.12559,-0.04022 0.17569,-0.211667 0.008,-0.03916 0.0138,-0.07021 0.0177,-0.08537 0.005,-0.02363 -0.012,-0.0508 -0.0296,0.0021 -0.0402,0.105481 -0.14393,0.17921 -0.22154,0.03775 -0.0127,-0.02787 -0.0656,-0.155575 0.0314,-0.43533 0.0191,-0.05433 0.0438,-0.135112 0.0438,-0.135112 0.0219,-0.06103 -0.004,-0.09455 -0.0349,-0.01976 m -5.02637,0.606073 c -0.0699,0.03493 -1.23649,0.506941 -1.30881,0.54751 -0.0727,0.04057 -0.0981,0.05009 -0.11218,0.103365 -0.0145,0.05256 -0.0226,0.08361 -0.0261,0.09208 -0.0148,0.03492 -0.0265,0.07867 0.0804,0.01799 0.0332,-0.01871 1.2132,-0.496358 1.27282,-0.530579 0.0596,-0.03422 0.0949,-0.04586 0.12171,-0.100542 0.0272,-0.05397 0.0335,-0.0635 0.0483,-0.1016 0.0159,-0.04022 0.0318,-0.0829 -0.0762,-0.02822 m -3.4477,0.17921 c -0.0741,0.02434 -1.21214,0.469194 -1.29505,0.502356 -0.0765,0.03034 -0.0977,0.05009 -0.11218,0.103011 -0.0145,0.05292 -0.0222,0.08361 -0.0257,0.09208 -0.0148,0.03528 -0.0332,0.06491 0.0801,0.01834 0.055,-0.02257 1.1811,-0.451554 1.25906,-0.48542 0.0632,-0.02752 0.0952,-0.04621 0.12206,-0.100542 0.0265,-0.05398 0.0332,-0.0635 0.048,-0.101248 0.0162,-0.04022 0.0349,-0.06491 -0.0762,-0.02858"
       style="fill:#231f20;fill-opacity:1;fill-rule:evenodd;stroke:none;stroke-width:0.264583"
       id="path1" />
  </g>
</svg>
