<?xml version="1.0" encoding="UTF-8" standalone="no"?>
<!-- Created with Inkscape (http://www.inkscape.org/) -->

<svg
   width="18.507866mm"
   height="6.9377651mm"
   viewBox="0 0 18.507866 6.9377651"
   version="1.1"
   id="svg1"
   xmlns="http://www.w3.org/2000/svg"
   xmlns:svg="http://www.w3.org/2000/svg">
  <defs
     id="defs1" />
  <g
     id="layer1"
     transform="translate(-164.61051,-30.001041)">
    <path
       d="m 170.73622,30.026714 c -0.0699,0.03528 -1.31022,0.543632 -1.38289,0.5842 -0.072,0.04057 -0.0974,0.0508 -0.11218,0.103717 -0.0145,0.05292 -0.0222,0.08361 -0.0258,0.09172 -0.0148,0.03528 -0.0264,0.07902 0.0801,0.01871 0.0335,-0.01905 1.28693,-0.533754 1.3469,-0.567621 0.0596,-0.03422 0.0949,-0.04586 0.12171,-0.100542 0.0268,-0.05398 0.0335,-0.0635 0.0483,-0.1016 0.0159,-0.04022 0.0317,-0.0829 -0.0762,-0.02858 m -2.25072,0.286105 c -0.0699,0.03457 -1.60832,0.637117 -1.68064,0.677685 -0.0723,0.04022 -0.0977,0.05009 -0.11253,0.103365 -0.0145,0.05292 -0.0219,0.08361 -0.0254,0.09172 -0.0148,0.03528 -0.0268,0.07902 0.0801,0.01871 0.0332,-0.01871 1.58503,-0.627239 1.64465,-0.661458 0.0596,-0.03422 0.0952,-0.04586 0.12206,-0.10019 0.0268,-0.05397 0.0332,-0.06385 0.0483,-0.1016 0.0155,-0.04022 0.0317,-0.0829 -0.0765,-0.02822 m 6.8901,0.430387 c -0.0702,0.106188 -0.12206,0.362304 -0.0222,0.435329 0.0998,0.07338 0.24624,0.132644 0.24624,0.132644 -0.46566,0.570794 -0.78422,0.679802 -1.05692,0.839258 -0.0702,0.04092 -0.0561,0.07796 -0.0152,0.06668 0.0212,-0.0053 0.38806,-0.06279 0.81597,-0.38735 0.23143,-0.176035 0.37148,-0.476602 0.37148,-0.476602 0,0 0.11606,0.09666 0.13194,0.116417 0.0349,0.04374 0.054,0.07585 0.0706,0.02963 0.061,-0.168629 -0.0251,-0.270581 -0.10724,-0.323146 0,0 0.0854,-0.26317 -0.0716,-0.527402 -0.0265,-0.0441 -0.18203,-0.185208 -0.363,0.09454 m 0.24341,0.07267 c 0.10513,0.09701 0.0889,0.257527 0.085,0.294217 0,0 -0.13405,-0.06279 -0.19403,-0.08855 -0.0596,-0.02574 -0.0914,-0.06385 -0.0639,-0.101952 0.0928,-0.129823 0.13794,-0.125236 0.17286,-0.103717 m -1.73531,-0.206375 c -0.0162,0.0381 -0.13723,0.327025 -0.13723,0.327025 0.002,0.01693 0.036,0.142875 0.0423,0.190148 0.0561,0.416629 0.40711,2.879725 0.508,3.658304 0.0494,0.383117 0.0878,0.727781 0.0931,0.91299 -0.004,0.0575 0.0212,0.07867 0.0483,0.02363 0.0141,-0.02963 0.0748,-0.151342 0.0935,-0.470606 0.0138,-0.240242 -0.006,-0.608894 -0.0765,-1.116188 -0.0102,-0.07408 -0.37536,-2.646539 -0.37536,-2.646539 0,0 0.19721,0.180271 0.22896,0.212725 0.0318,0.03246 0.0702,0.01516 0.0519,-0.03739 -0.018,-0.05221 -0.42193,-1.002242 -0.43498,-1.035402 -0.0127,-0.03281 -0.0257,-0.0568 -0.042,-0.01871 m -1.02941,0 c -0.0169,0.03704 -0.15275,0.310444 -0.15275,0.310444 0.004,0.02257 0.0356,0.08961 0.0575,0.227896 0.0229,0.143227 0.0557,0.348192 0.0917,0.574675 0,0 0.41663,2.772833 0.34607,3.014485 -0.0974,0.332317 -0.57785,0.981427 -2.159,1.572329 -0.0963,0.04092 -0.0815,0.101954 0.11889,0.04762 0.20038,-0.05433 1.50706,-0.152046 2.07927,-1.193446 0.10372,-0.210608 0.26458,-0.495654 0.0928,-1.590675 -0.0522,-0.401108 -0.26917,-2.098674 -0.26917,-2.098674 0,0 0.20638,0.177448 0.23989,0.209549 0.0332,0.03175 0.0734,0.01516 0.0543,-0.03669 -0.0187,-0.0515 -0.44133,-0.986719 -0.45509,-1.019175 -0.0138,-0.03245 -0.0272,-0.05609 -0.0445,-0.01834 m -2.65112,0.03104 c -0.11959,0.09243 -0.39476,0.359833 -0.27093,0.485071 0.072,0.05821 0.10407,0.08678 0.10407,0.08678 -0.0335,0.0127 -0.0621,0.0448 -0.0822,0.08573 -0.0204,0.04092 -0.0236,0.04974 -0.0342,0.07338 -0.0102,0.02294 -0.0162,0.05433 0.0409,0.02188 0.0568,-0.03246 0.19227,-0.160867 0.55704,-0.240948 0.0504,-0.01093 0.0949,-0.09384 0.0949,-0.09384 0.0215,-0.03528 0.0639,-0.116416 -0.007,-0.07655 -0.0709,0.04022 -0.26141,0.09737 -0.34608,0.08114 -0.0847,-0.01659 -0.18521,-0.08961 -0.20708,-0.124531 -0.0219,-0.03493 -0.019,-0.07408 0.0483,-0.11289 0.067,-0.03845 0.14041,-0.06526 0.19191,0.02045 0.009,0.01482 0.0208,0.01447 0.0423,-0.0078 0.0219,-0.02188 0.0653,-0.0822 0.0769,-0.09948 0.0116,-0.01765 0.0208,-0.04692 0.003,-0.06809 -0.0183,-0.02082 -0.0921,-0.122766 -0.21131,-0.03034 m 11.69493,0.197908 c -0.0702,0.10654 -0.12241,0.362656 -0.0226,0.435329 0.10019,0.07338 0.24624,0.132644 0.24624,0.132644 -0.46566,0.571148 -1.38006,0.977194 -1.59808,1.146881 -0.0646,0.04904 -0.0561,0.07796 -0.0152,0.06703 0.0363,-0.0099 0.73342,-0.20461 1.37054,-0.75071 0.2921,-0.250121 0.28399,-0.268817 0.35807,-0.420865 0.0635,0.03281 0.10725,0.08573 0.13194,0.116769 0.0349,0.04339 0.0543,0.0755 0.0709,0.02963 0.0607,-0.168979 -0.0254,-0.270933 -0.1076,-0.323143 0,0 0.0854,-0.263877 -0.0716,-0.527757 -0.0261,-0.04409 -0.18204,-0.185208 -0.36266,0.09419 m 0.24342,0.07267 c 0.10513,0.09737 0.0889,0.257881 0.0847,0.294569 0,0 -0.13405,-0.06315 -0.19402,-0.08855 -0.06,-0.02574 -0.0914,-0.06385 -0.0635,-0.1016 0.0921,-0.129823 0.13758,-0.125238 0.17286,-0.104423 m -10.25384,-0.196498 c -0.0356,0.08749 -0.18415,0.386646 -0.16157,0.739775 0.006,0.08185 0.0593,0.240596 0.18239,0.244829 0.0635,-2.64e-4 0.14569,-0.04621 0.2039,-0.246239 0.01,-0.0448 0.0162,-0.08114 0.0205,-0.09878 0.006,-0.02681 -0.0134,-0.05891 -0.0342,0.0028 -0.0466,0.122063 -0.16722,0.207788 -0.25753,0.0441 -0.0148,-0.03281 -0.0758,-0.181327 0.0363,-0.506235 0.0222,-0.06315 0.0512,-0.156988 0.0512,-0.156988 0.0251,-0.07091 -0.005,-0.110067 -0.0409,-0.02328 m 8.46525,0.03105 c -0.18309,0.232833 -0.19473,0.538691 -0.21907,0.879475 -0.0258,-0.07126 -0.1718,-0.528815 -0.63959,-0.790575 -0.0339,-0.01871 -0.10301,0.01693 -0.10936,0.124883 -0.004,0.06279 -0.0219,0.214842 0.0226,0.258233 0.0441,0.04339 0.17463,0.128059 0.1965,0.140052 0.0222,0.01199 0.0455,0.01376 0.0519,-0.0127 0.007,-0.02611 0.0367,-0.08678 0.079,-0.04304 0.0356,0.03598 0.266,0.226483 0.38559,0.630414 0.0208,0.05327 0.0702,0.05856 0.0818,-0.01728 0.0275,-0.186973 0.0423,-0.511175 0.0572,-0.6096 0.0212,-0.13829 0.0871,-0.423333 0.26247,-0.275167 0.0395,0.03387 0.0818,0.07832 0.0818,0.07832 0.037,0.04621 0.084,0.09983 0.10654,0.04586 0.0342,-0.08149 0.0621,-0.21731 0.0243,-0.290335 -0.0169,-0.03246 -0.23354,-0.306917 -0.3817,-0.118533 m -1.80023,-0.01093 c -0.0677,0.03916 -1.78788,1.03223 -1.85737,1.077032 -0.0699,0.0448 -0.0942,0.05644 -0.10548,0.110418 -0.0113,0.05362 -0.0169,0.08467 -0.0198,0.09313 -0.0127,0.03634 -0.0219,0.08043 0.0808,0.01341 0.0321,-0.02082 1.76212,-1.020585 1.8228,-1.058333 0.0582,-0.03633 0.0917,-0.05186 0.11536,-0.10795 0.0233,-0.05539 0.0293,-0.06527 0.0413,-0.104069 0.0134,-0.04127 0.0268,-0.08502 -0.0776,-0.02363 m -10.86097,0.370771 c -0.004,0.02506 -0.0843,0.214135 -0.0755,0.285396 0.008,0.07161 0.27693,1.6637 0.29387,1.840089 0.0166,0.17639 0.19755,0.802569 -0.1009,1.004007 -0.2981,0.201787 -0.86113,0.504118 -0.86113,0.504118 -0.0547,0.117827 -0.0755,0.235302 -0.0924,0.285396 -0.0169,0.0508 -0.0123,0.09278 0.16404,0.138996 0.17639,0.04621 0.93663,0.16792 1.01212,0.19332 0.0759,0.02506 0.31962,0.0882 0.18521,0.218372 -0.13476,0.130175 -1.37936,1.060095 -2.37807,0.932391 -0.24377,-0.0314 -1.26295,-0.248004 -1.0541,-1.352904 0.0395,-0.208844 0.17533,-0.537985 0.24976,-0.695677 h 0.001 c 0.0967,-0.0056 0.21766,-0.09384 0.28681,-0.449792 0.0109,-0.08008 0.0169,-0.144285 0.0215,-0.176035 0.007,-0.04762 -0.0268,-0.102306 -0.0522,0.0081 -0.0589,0.219075 -0.2346,0.379941 -0.38876,0.09948 -0.0258,-0.05609 -0.13371,-0.312208 0.005,-0.89253 0.0279,-0.112887 0.0624,-0.280458 0.0624,-0.280458 0.031,-0.127352 -0.0187,-0.192617 -0.0645,-0.03704 -0.0455,0.156282 -0.24271,0.695325 -0.17286,1.313747 0.0127,0.113945 0.078,0.310795 0.19861,0.384878 -0.13723,0.268111 -0.66569,1.42875 0.0293,2.115961 0.14781,0.146404 0.77364,0.804688 2.37349,0.0042 0.19473,-0.09737 1.05445,-0.504119 1.13806,-1.004004 0.0254,-0.17639 0.0423,-0.495654 -0.2099,-0.558448 -0.25189,-0.06315 -0.73519,-0.147108 -0.73519,-0.147108 0.13053,-0.09666 0.39793,-0.26035 0.47484,-0.479071 0.0494,-0.140054 0.0931,-0.229306 0.0931,-0.229306 0.079,0.18274 0.33902,1.237192 1.50389,0.870654 0.17498,-0.05503 0.88336,-0.389819 1.21814,-0.846664 0.0483,-0.08502 0.10549,-0.254355 0.12736,-0.320675 0.0222,-0.06632 -0.009,-0.0695 -0.0441,-0.03457 -0.0349,0.03457 -0.90664,0.842785 -1.28552,0.776816 -0.11995,-0.0254 -0.77118,-0.28575 -0.83362,-1.039283 -0.009,-0.104069 0.12312,-0.142523 0.20814,-0.185915 0.25471,-0.130527 0.74824,-0.346427 0.94333,-0.3175 0.2533,0.03775 0.40534,0.07408 0.45297,0.07726 0.0473,0.0032 0.10442,-0.02857 0.0187,-0.07549 -0.085,-0.04762 -0.58102,-0.27799 -0.89041,-0.227542 -0.28222,0.04551 -0.55245,0.113594 -0.71049,0.341135 -0.15805,0.226838 -0.28434,0.51788 -0.20532,0.852665 0.0346,0.122767 0.17357,0.486127 0.22084,0.568325 -0.0346,-0.0064 -0.44203,-0.164393 -0.58738,-0.843491 -0.0314,-0.145344 -0.22119,-1.365957 -0.27587,-1.685219 -0.0547,-0.319265 -0.17215,-0.865013 -0.20602,-0.953558 -0.0335,-0.08784 -0.0543,-0.0081 -0.0586,0.01693 m -1.54975,0.218369 c -0.14253,0.208491 -0.13512,0.469548 -0.13653,0.760941 -0.0261,-0.05927 -0.17639,-0.440266 -0.58914,-0.636764 -0.03,-0.0141 -0.0864,0.02045 -0.0857,0.112537 0,0.05362 -0.007,0.18415 0.0335,0.218721 0.0402,0.03422 0.15593,0.09878 0.17498,0.10795 0.0198,0.0088 0.0399,0.0092 0.0441,-0.01376 0.004,-0.02257 0.0257,-0.07585 0.0642,-0.04128 0.0282,0.02506 0.18839,0.141465 0.3115,0.392997 0.10584,0.200377 -0.14216,0.548216 -0.13476,0.919691 8e-4,0.08431 0.0441,0.250119 0.15946,0.259996 0.0596,0.0028 0.13935,-0.04092 0.2039,-0.244121 0.0117,-0.04586 0.0194,-0.08255 0.024,-0.100896 0.007,-0.02716 -0.0102,-0.06103 -0.0325,0.0013 -0.0494,0.123825 -0.16722,0.206375 -0.24448,0.03387 -0.0124,-0.03422 -0.0663,-0.191207 0.0589,-0.51929 0.10583,-0.276225 0.0938,-0.6858 0.10089,-0.770467 0.01,-0.118533 0.0501,-0.364773 0.20743,-0.24906 0.036,0.02646 0.0741,0.06209 0.0741,0.06209 0.0346,0.03775 0.0772,0.08043 0.0935,0.03352 0.0247,-0.07162 0.0406,-0.188383 0.005,-0.248356 -0.0162,-0.02681 -0.21626,-0.248354 -0.33197,-0.07973 m 4.12221,0.111125 c -0.003,0.04163 0,0.258939 0.003,0.326318 0.003,0.06773 0.0194,0.09102 0.0515,0.111832 0.0321,0.02045 0.0833,0.05292 0.11889,0.10301 0.0353,0.04974 0.65511,0.881592 1.19803,1.313392 0.0699,0.06667 0.87242,0.552804 1.24143,1.20015 0.0885,0.154868 0.11571,0.304448 0.11676,0.450849 -0.0222,0.155224 0.042,0.102659 0.0709,-0.02363 0.0286,-0.126648 0.0847,-0.61454 -0.24094,-0.999066 -0.30092,-0.355952 -0.70274,-0.617009 -0.83185,-0.731309 -0.0963,-0.08502 -0.61666,-0.517173 -0.88971,-0.837493 -0.12206,-0.147109 -0.26635,-0.343607 -0.26635,-0.343607 0.0864,0.02928 0.19262,0.05574 0.25048,0.07338 0.0579,0.01728 0.12488,0 0.0385,-0.07338 -0.0868,-0.07373 -0.7486,-0.51435 -0.79975,-0.567266 -0.0515,-0.05292 -0.0579,-0.0441 -0.061,-0.0032 m -3.09386,0.42545 c -0.0307,0.07479 -0.1584,0.332668 -0.13899,0.63641 0.005,0.0702 0.0511,0.207081 0.15698,0.210608 0.0547,0 0.12524,-0.03951 0.17533,-0.211667 0.009,-0.0388 0.0141,-0.06985 0.018,-0.08502 0.005,-0.02328 -0.0116,-0.0508 -0.0293,0.0024 -0.0406,0.10513 -0.14428,0.178858 -0.22225,0.0374 -0.0123,-0.02787 -0.0649,-0.155929 0.0314,-0.435329 0.0194,-0.05433 0.0441,-0.135467 0.0441,-0.135467 0.0215,-0.06103 -0.005,-0.09419 -0.0353,-0.01939 m 1.74413,0.09666 c -0.11077,0.121005 -0.14499,0.203555 -0.17815,0.255765 -0.0459,0.07126 0.0116,0.10301 0.0635,0.04727 0.0515,-0.05539 0.0868,-0.110773 0.23742,-0.106891 0.15064,0.0039 0.51153,-0.0099 0.37677,0.08925 -0.13512,0.09913 -0.22613,0.156281 -0.22613,0.156281 -0.0871,0.06314 -0.1644,0.18062 -0.01,0.115004 0.15451,-0.06526 0.35842,-0.168275 0.51541,-0.403929 0.0459,-0.06915 0.0991,-0.160867 -0.11325,-0.192265 -0.21202,-0.03175 -0.55456,-0.08149 -0.66569,0.03951 m 9.96844,0.132292 c -0.0342,0.08432 -0.1785,0.37465 -0.15663,0.717198 0.005,0.07937 0.0579,0.23354 0.17674,0.237419 0.0621,0 0.14146,-0.0448 0.19791,-0.238477 0.01,-0.04374 0.0162,-0.07867 0.0201,-0.09596 0.006,-0.02611 -0.0134,-0.05715 -0.0332,0.0028 -0.0455,0.118182 -0.16228,0.201436 -0.25012,0.04233 -0.0141,-0.0314 -0.0734,-0.175332 0.0353,-0.491067 0.0219,-0.06103 0.0494,-0.1524 0.0494,-0.1524 0.0243,-0.06844 -0.005,-0.105833 -0.0395,-0.02188 m 3.30765,0.173215 c -0.0317,0.07796 -0.16546,0.347133 -0.14535,0.664281 0.005,0.07303 0.0536,0.2159 0.16369,0.219427 0.0571,0 0.13088,-0.04127 0.18344,-0.220485 0.009,-0.04057 0.0148,-0.07303 0.0183,-0.0889 0.006,-0.02434 -0.0124,-0.05327 -0.0307,0.0024 -0.0416,0.10936 -0.15028,0.186267 -0.23178,0.03916 -0.013,-0.02928 -0.0677,-0.162632 0.0328,-0.454377 0.0205,-0.05645 0.0459,-0.140759 0.0459,-0.140759 0.0229,-0.06421 -0.005,-0.09878 -0.0363,-0.02082 m -6.72395,0.0085 -0.19473,0.267407 c -0.006,0.0085 -0.005,0.02011 0.003,0.02611 l 0.33303,0.242713 c 0.008,0.0056 0.0198,0.0035 0.0257,-0.0053 l 0.16827,-0.230364 0.3228,0.235656 c 0.008,0.0056 0.0198,0.0035 0.0257,-0.0053 l 0.19509,-0.267054 c 0.006,-0.0085 0.005,-0.02011 -0.003,-0.02612 l -0.33267,-0.242358 c -0.008,-0.006 -0.0198,-0.0042 -0.0261,0.0046 l -0.16828,0.230717 -0.32279,-0.235302 c -0.008,-0.006 -0.0198,-0.0042 -0.0261,0.0046 m -8.56686,1.0668 c -0.0307,0.07514 -0.15875,0.332669 -0.13935,0.636765 0.005,0.0702 0.0512,0.207079 0.15699,0.210608 0.0547,-2.64e-4 0.12559,-0.03986 0.17569,-0.211666 0.008,-0.03881 0.0141,-0.06985 0.0176,-0.08502 0.005,-0.02363 -0.012,-0.05115 -0.0296,0.0021 -0.0399,0.105482 -0.14393,0.178859 -0.22154,0.0381 -0.0127,-0.02822 -0.0653,-0.156279 0.031,-0.436033 0.0194,-0.05398 0.0437,-0.13476 0.0437,-0.13476 0.0219,-0.06138 -0.004,-0.09454 -0.0346,-0.02011 m -1.07597,0.657225 c -0.0233,0.03598 -0.0751,0.197557 -0.0751,0.197557 0.0441,0.07479 0.60113,0.731305 0.46743,1.726845 -0.019,0.09948 0.0155,0.08713 0.0395,0.04445 0.066,-0.116065 0.34537,-1.133123 -0.32879,-1.95086 -0.0748,-0.09067 -0.0804,-0.05327 -0.10301,-0.01799 m 11.46351,-1.3081 c -0.013,0.04516 -0.0459,0.23989 -0.0533,0.279752 -0.008,0.04022 -0.007,0.08008 0.0124,0.113948 0.0198,0.03422 0.0702,0.153107 0.10689,0.249415 0.0367,0.09631 0.41416,0.823735 0.44909,0.888646 0.0349,0.06456 0.0423,0.112183 0.007,0.155223 -1.21249,1.279525 -3.55317,2.06657 -3.62796,2.109962 -0.0748,0.04304 -0.0547,0.07726 0.0709,0.05503 0.18838,-0.03316 1.23966,-0.208843 1.53952,-0.353129 0.19756,-0.09525 0.88759,-0.433916 1.45238,-0.876654 -0.0159,0.1143 -0.0303,0.282223 -0.0226,0.4953 0.0381,1.029054 0.95849,0.858663 1.20015,0.805391 0.72354,-0.15875 1.60866,-1.159226 1.68345,-1.359958 0.0744,-0.198967 0.0854,-0.379587 0.0684,-0.537985 0.19085,-0.10301 0.60007,-0.432858 0.60007,-0.432858 0.0169,0.438502 0.36584,0.570441 0.47343,0.589491 0.50342,0.07655 0.75601,-0.34431 0.86325,-0.480835 0.0917,0.240594 0.31221,0.28716 0.42545,0.309737 0.43427,0.08643 0.51894,-0.220837 0.54151,-0.291039 0.13653,-0.423688 -0.109,-0.739071 -0.14075,-0.774348 -0.0317,-0.03528 -0.0476,-0.0013 -0.0586,0.03916 -0.0109,0.04092 -0.0462,0.193323 -0.0684,0.288925 0,0 0.091,0.147815 0.12347,0.222957 0.0325,0.07585 -0.0159,0.11712 -0.10936,0.12841 -0.26423,0.03246 -0.4752,-0.11924 -0.54787,-0.188735 -0.0723,-0.07021 0.006,-0.193675 0.0646,-0.34149 0.0469,-0.117827 -0.0399,-0.132292 -0.10654,0 -0.22401,0.588785 -0.53869,0.651933 -0.62159,0.674865 -0.74613,0.203197 -0.68192,-0.479073 -0.6791,-0.590905 0.002,-0.111477 -0.079,-0.0702 -0.1711,0.0035 -0.31397,0.252235 -0.56691,0.40005 -0.70273,0.461079 -0.11712,-0.229304 -0.28716,-0.372885 -0.35913,-0.425095 -0.80751,-0.588788 -0.87418,0.59972 -0.84949,0.72672 0.12277,0.505531 0.94757,0.198967 1.07703,0.183444 0.12947,-0.01482 0.0871,0.155929 0.0145,0.257529 -0.17886,0.250119 -0.38559,0.429683 -0.57292,0.582083 -0.79939,0.652638 -1.20085,0.601134 -1.32432,0.597252 -0.78564,-0.02222 -0.71297,-0.868891 -0.66958,-1.049866 0.23601,-0.199673 0.43921,-0.417336 0.55704,-0.64135 0.048,-0.122767 0.13088,-0.401812 -0.0187,-0.751769 -0.0783,-0.15381 -0.32632,-0.585965 -0.32632,-0.585965 0,0 0.18238,0.0053 0.20002,0.0053 0.0173,-2.65e-4 0.0515,-0.01834 0.007,-0.0695 -0.0445,-0.0508 -0.42792,-0.433213 -0.45085,-0.464257 -0.0229,-0.03069 -0.0445,-0.05292 -0.0572,-0.0074 m 2.42217,1.7526 c 0,0 -0.11007,0.06315 -0.41769,0.04233 -0.25753,-0.01728 -0.2353,-0.117827 -0.20002,-0.155575 0.0385,-0.04163 0.35383,-0.240593 0.61771,0.113242 m -3.31682,-1.424869 c -0.0533,0.06597 -0.58949,0.770112 -0.58949,0.770112 l -0.38982,-0.277987 c 0,0 0.15875,-0.04022 0.18662,-0.04798 0.0279,-0.0085 0.0434,-0.0441 -0.007,-0.06985 -0.0497,-0.02574 -0.51999,-0.213077 -0.55563,-0.227542 -0.036,-0.01482 -0.0487,-0.03104 -0.0519,0.0071 -0.003,0.0381 -0.009,0.34784 -0.009,0.34784 0,0 -0.007,0.02151 0.0342,0.04515 0.0409,0.02294 0.0811,0.07303 0.11466,0.106892 0.0335,0.03316 0.47131,0.378531 0.49212,0.390525 0,0 -0.21837,0.384529 -0.24659,0.685093 -0.0279,0.301273 0.006,0.716846 0.41698,0.58279 0.11042,-0.03175 0.57115,-0.215194 0.67451,-0.536223 0.0332,-0.118179 0.12806,-0.331962 -0.0261,-0.548921 -0.0892,-0.127351 -0.44908,-0.342548 -0.44908,-0.342548 0,0 0.27622,-0.382058 0.30268,-0.428625 0.0265,-0.04692 0.1277,-0.3429 0.13899,-0.414512 0.0113,-0.07162 0.0166,-0.107598 -0.0367,-0.04128 m -0.0942,1.623129 c -0.1531,0.12559 -0.47378,0.291748 -0.56409,0.300215 -0.0903,0.0088 -0.32985,-0.03528 -0.22543,-0.280813 0.0353,-0.07902 0.27447,-0.488947 0.27447,-0.488947 0.0896,0.04904 0.66781,0.343603 0.51505,0.469545 m -4.69441,-0.508 c -0.0455,0.125942 -0.23424,0.559152 -0.21343,1.07315 0.005,0.118885 0.0684,0.351015 0.21943,0.359481 0.0783,7.94e-4 0.17991,-0.06491 0.25541,-0.354541 0.0134,-0.06562 0.0222,-0.11783 0.0279,-0.143582 0.008,-0.03951 -0.0159,-0.08643 -0.0427,0.0032 -0.0593,0.177094 -0.20955,0.299509 -0.3175,0.05927 -0.0177,-0.04727 -0.0896,-0.264583 0.0543,-0.735542 0.0293,-0.09102 0.066,-0.227187 0.066,-0.227187 0.0325,-0.103013 -0.004,-0.159808 -0.0494,-0.03422 m 10.92517,1.069623 c -0.031,0.08608 -0.0434,0.143227 -0.0402,0.175683 0.004,0.03316 0.0148,0.139346 0.0148,0.139346 -0.0321,0.02611 -0.16863,0.111125 -0.3055,0.01058 0.009,-0.02928 0.0268,-0.0889 0.0307,-0.121708 0.0148,-0.05009 -0.0162,-0.08784 -0.0413,-0.03563 -0.025,0.05256 -0.0829,0.228246 -0.12594,0.267758 -0.043,0.03916 -0.0935,0.184502 -0.41945,0.03704 -0.0572,-0.02188 -0.15699,-0.09596 -0.31256,0.06068 -0.35278,0.327731 -0.5962,0.353131 -0.99131,0.493535 -0.048,0.02222 -0.14816,0.09737 -0.0293,0.08572 0.11924,-0.01236 0.62019,2.65e-4 0.89288,-0.312912 0.0572,-0.05539 0.12242,-0.201438 0.33902,-0.116771 0.11995,0.04551 0.34184,0.235656 0.5835,-0.140052 0.14252,0.0949 0.35913,0.0568 0.39334,-0.04763 0.0346,-0.104775 0.0744,-0.208844 0.0737,-0.279752 -2.7e-4,-0.07126 -0.006,-0.1651 -0.006,-0.1651 -0.005,-0.05609 -0.0247,-0.136879 -0.0561,-0.0508 m -13.42249,0.343958 c -0.0219,0.05433 -0.0226,0.119238 0.0155,0.164042 0.0445,0.05221 0.12417,0.07161 0.20002,0.08572 -0.18803,0.202846 -0.23566,0.578908 0.0561,0.6985 0.13723,0.0568 0.3115,0.04163 0.46602,0.0088 0.0864,-0.01834 0.16263,-0.05609 0.2406,-0.09278 0.036,-0.01693 0.0716,-0.03387 0.10971,-0.04692 0.0201,-0.0067 0.036,-0.01304 0.0469,-0.02963 0.006,-0.0088 0.009,-0.02434 -0.007,-0.02716 -0.0173,-0.0039 -0.0434,0.0053 -0.0607,0.0088 -0.0247,0.0049 -0.049,0.01093 -0.0734,0.01659 -0.0568,0.0141 -0.11289,0.02893 -0.17004,0.04127 -0.11359,0.02257 -0.23107,0.03598 -0.34466,0.03105 -0.10866,-0.0056 -0.21343,-0.04127 -0.27658,-0.108305 -0.0624,-0.06738 -0.0737,-0.16016 -0.0452,-0.245179 0.0603,-0.180623 0.2667,-0.312208 0.44486,-0.426508 0.0208,-0.01341 0.0462,-0.02363 0.0504,-0.04516 0.004,-0.01976 0.007,-0.03986 0.01,-0.05962 0.007,-0.05715 -0.078,0.0013 -0.0995,0.01553 -0.0773,0.0508 -0.17533,0.140055 -0.2794,0.140758 -0.072,2.65e-4 -0.15487,-0.02294 -0.20355,-0.06173 -0.008,-0.0067 -0.0198,-0.0141 -0.0134,-0.02469 0.008,-0.0141 0.0236,-0.02646 0.0378,-0.0374 0.0307,-0.02434 0.0663,-0.0448 0.10231,-0.06385 0.0691,-0.03563 0.12841,-0.05539 0.20743,-0.05433 0.013,2.64e-4 0.0293,0.0028 0.0413,-0.0046 0.0134,-0.0085 0.0166,-0.02328 0.006,-0.0321 -0.0208,-0.01834 -0.0734,-0.024 -0.10372,-0.02752 -0.14958,-0.01799 -0.30833,0.05362 -0.35807,0.17639"
       style="fill:#231f20;fill-opacity:1;fill-rule:evenodd;stroke:none;stroke-width:0.264583"
       id="path1" />
  </g>
</svg>
