<?xml version="1.0" encoding="UTF-8" standalone="no"?>
<!-- Created with Inkscape (http://www.inkscape.org/) -->

<svg
   width="22.224354mm"
   height="6.1664925mm"
   viewBox="0 0 22.224354 6.1664925"
   version="1.1"
   id="svg1"
   xmlns="http://www.w3.org/2000/svg"
   xmlns:svg="http://www.w3.org/2000/svg">
  <defs
     id="defs1" />
  <g
     id="layer1"
     transform="translate(-157.72228,-26.058879)">
    <path
       d="m 172.20212,26.22804 c -0.0699,0.106539 -0.12206,0.362304 -0.0222,0.435329 0.10018,0.07338 0.24659,0.132644 0.24659,0.132644 -0.46602,0.571148 -0.78458,0.680156 -1.05728,0.83961 -0.0702,0.04092 -0.0564,0.07797 -0.0152,0.06668 0.0215,-0.0056 0.38806,-0.06244 0.81633,-0.38735 0.23107,-0.176035 0.37148,-0.47625 0.37148,-0.47625 0,0 0.11606,0.09631 0.13193,0.116065 0.0346,0.04374 0.0536,0.07585 0.0706,0.02963 0.0607,-0.168627 -0.0254,-0.270581 -0.1076,-0.323144 0,0 0.0854,-0.263173 -0.0716,-0.527404 -0.0261,-0.0441 -0.18203,-0.18556 -0.36301,0.09419 m 0.24377,0.07267 c 0.10478,0.09737 0.0889,0.257881 0.0847,0.294568 0,0 -0.1337,-0.06279 -0.19368,-0.08854 -0.06,-0.02574 -0.0917,-0.06386 -0.0639,-0.1016 0.0924,-0.130175 0.13794,-0.12559 0.17286,-0.104423 m -7.2524,-0.01976 c -0.0335,0.09243 -0.0981,0.142875 -0.0462,0.315032 0.21555,0.715785 0.4826,3.649133 0.48684,3.700639 0.0257,0.324202 0.13687,1.036109 0.81103,1.210027 1.01671,0.251884 1.99284,-0.398991 1.99284,-0.398991 0.0176,-0.01058 0.13159,-0.07655 0.28822,-0.165452 0.12771,0.127 0.25753,0.252941 0.30374,0.289277 0.0991,0.07691 0.42016,0.269523 0.88936,0.11571 0.0984,-0.0321 0.43003,-0.08537 0.54539,-0.614185 0.0579,-0.253294 0.0222,-0.561975 0.006,-0.707673 -0.0169,-0.14605 -0.1711,-1.134886 -0.1711,-1.134886 l -0.29245,-1.724025 c 0,0 0.1972,0.185209 0.22895,0.218723 0.0314,0.03387 0.0699,0.01588 0.0519,-0.0381 -0.0183,-0.05398 -0.42192,-1.030464 -0.43462,-1.064331 -0.0134,-0.03387 -0.0268,-0.05856 -0.0427,-0.01939 -0.0162,0.03916 -0.1464,0.324908 -0.1464,0.324908 0.004,0.02294 0.0342,0.09349 0.0557,0.237419 0.0201,0.14111 0.049,0.339725 0.0815,0.559858 0,0 0.4706,2.699809 0.49459,2.865615 0.0236,0.165804 0.0727,0.462492 0.009,0.520345 -0.0632,0.05821 -0.51752,0.344313 -0.88653,0.226132 -0.0667,-0.02363 -0.20743,-0.0822 -0.37641,-0.231423 0.29386,-0.162629 0.61383,-0.332669 0.75918,-0.388409 0,0 0.10442,-0.23142 0.11818,-0.269875 0.0138,-0.03845 0.006,-0.07973 -0.0825,-0.126645 -0.0882,-0.04692 -1.21144,-0.385588 -2.10079,0 -0.0579,0.03598 -0.10196,0.08537 -0.12948,0.14887 -0.0279,0.06315 -0.0603,0.192617 -0.0716,0.2286 -0.0109,0.03563 0.0109,0.07162 0.055,0.05221 0.013,-0.006 0.0709,-0.03986 0.17603,-0.08043 0.0801,-0.03387 0.15028,-0.02363 0.16828,-0.01871 0.0878,0.02469 0.29456,0.101952 0.49283,0.327377 0.005,0.0056 0.0279,0.02928 0.0617,0.06385 -0.3743,0.192969 -0.82303,0.386644 -1.23507,0.456846 -0.10725,0.01093 -0.86184,0.132292 -1.2252,-0.413102 -0.20814,-0.337256 -0.23989,-0.922867 -0.27869,-1.35255 -0.0889,-0.981075 -0.24942,-2.597502 -0.45967,-3.193344 -0.0473,-0.132646 -0.0635,-0.01236 -0.0967,0.08008 m 4.11973,3.945467 c -0.0448,0.02328 -0.23248,0.147463 -0.49706,0.29845 -0.0194,-0.02506 -0.0374,-0.05186 -0.0589,-0.07832 -0.0621,-0.0769 -0.15205,-0.158043 -0.28152,-0.259995 0.23107,-0.01553 0.50941,-0.0085 0.83749,0.03986 m 9.41141,-3.902779 c -0.0702,0.106537 -0.12241,0.362654 -0.0222,0.435327 0.10018,0.07338 0.24623,0.132644 0.24623,0.132644 -0.46566,0.571148 -1.38042,0.976841 -1.59808,1.146881 -0.0649,0.04903 -0.0564,0.07796 -0.0148,0.06703 0.0356,-0.0099 0.73272,-0.204962 1.36984,-0.75071 0.2921,-0.250119 0.28434,-0.268817 0.35842,-0.420511 0.0635,0.03245 0.10689,0.08502 0.13159,0.116063 0.0353,0.04375 0.0543,0.07585 0.0709,0.02999 0.061,-0.168981 -0.0251,-0.270933 -0.10725,-0.323498 0,0 0.0854,-0.263173 -0.072,-0.527402 -0.0261,-0.0441 -0.18203,-0.185562 -0.36265,0.09419 m 0.24377,0.07267 c 0.10442,0.09737 0.0885,0.257881 0.0847,0.294571 0,0 -0.13406,-0.0628 -0.19403,-0.08855 -0.06,-0.02574 -0.0917,-0.06385 -0.0639,-0.1016 0.0921,-0.130175 0.13794,-0.12559 0.17322,-0.104423 m -1.78858,-0.165804 c -0.1831,0.233185 -0.19509,0.539043 -0.21943,0.880179 -0.0254,-0.07161 -0.17181,-0.529167 -0.63923,-0.791279 -0.0339,-0.01871 -0.10302,0.01728 -0.10937,0.125235 -0.004,0.06279 -0.0219,0.214842 0.0222,0.258233 0.0441,0.04304 0.17498,0.128059 0.1965,0.1397 0.0222,0.01199 0.0459,0.01376 0.0526,-0.01236 0.006,-0.02611 0.036,-0.08678 0.0783,-0.04304 0.0356,0.03598 0.26599,0.226483 0.38558,0.630412 0.0212,0.05362 0.0702,0.05856 0.0819,-0.01728 0.0279,-0.186619 0.0427,-0.511527 0.0575,-0.609952 0.0208,-0.137938 0.0871,-0.422981 0.26211,-0.274815 0.0395,0.03351 0.0818,0.07796 0.0818,0.07796 0.0374,0.04692 0.0836,0.100187 0.10654,0.04621 0.0346,-0.08149 0.0621,-0.216958 0.0243,-0.289983 -0.0166,-0.03245 -0.23354,-0.307269 -0.38135,-0.119237 m -1.80058,-0.01058 c -0.0674,0.03916 -1.78788,1.031875 -1.85738,1.077029 -0.0695,0.04481 -0.0942,0.05645 -0.10548,0.110421 -0.0109,0.05362 -0.0169,0.08467 -0.0194,0.09313 -0.013,0.03598 -0.0222,0.08043 0.0804,0.01341 0.0325,-0.02082 1.76213,-1.020585 1.8228,-1.058333 0.0582,-0.03634 0.0917,-0.05186 0.11501,-0.10795 0.0236,-0.05538 0.0293,-0.06526 0.0416,-0.104069 0.0134,-0.04127 0.0268,-0.08502 -0.0776,-0.02363 m -8.21408,0.174625 c -0.14711,0.21237 -0.14146,0.479777 -0.14499,0.778579 -0.0261,-0.06103 -0.1778,-0.45226 -0.59902,-0.656519 -0.0307,-0.01447 -0.0889,0.02082 -0.0889,0.114652 0,0.05503 -0.007,0.18909 0.0332,0.224367 0.0409,0.03528 0.1591,0.102306 0.17886,0.111831 0.0198,0.0092 0.0406,0.0095 0.0448,-0.01376 0.004,-0.02328 0.0272,-0.07761 0.0663,-0.04198 0.0332,0.02963 0.24376,0.183799 0.36935,0.529874 0.0208,0.04551 0.0642,0.04727 0.0702,-0.01939 0.0145,-0.164397 0.0109,-0.44803 0.0183,-0.534813 0.0106,-0.121709 0.0536,-0.373592 0.21378,-0.253646 0.0367,0.02752 0.0759,0.06385 0.0759,0.06385 0.0349,0.03881 0.0783,0.0829 0.0952,0.03457 0.0258,-0.07302 0.043,-0.192265 0.006,-0.254 -0.0155,-0.02752 -0.21943,-0.255765 -0.33867,-0.08361 m 2.23732,0.512585 c -0.0864,0.04092 -3.1302,1.558573 -3.2191,1.603023 -0.0882,0.04374 -0.115,0.06279 -0.13052,0.126294 -0.0155,0.0635 -0.0233,0.09702 -0.0275,0.110418 -0.0141,0.04304 -0.0335,0.08714 0.0959,0.01939 0.0399,-0.02117 3.10656,-1.539523 3.17677,-1.582208 0.0699,-0.04269 0.11147,-0.0575 0.14181,-0.123121 0.0303,-0.06526 0.0377,-0.07655 0.0543,-0.122412 0.0177,-0.04833 0.0384,-0.09313 -0.0917,-0.0314 m -0.1651,0.762 c -0.0349,0.08573 -0.18133,0.380293 -0.1591,0.727426 0.005,0.08043 0.0586,0.236363 0.17956,0.240597 0.0621,0 0.14288,-0.04551 0.20038,-0.241655 0.01,-0.04445 0.0159,-0.08008 0.0204,-0.09737 0.006,-0.02646 -0.0134,-0.05821 -0.0339,0.0028 -0.0455,0.119944 -0.16404,0.204259 -0.25329,0.04304 -0.0145,-0.0321 -0.0744,-0.178506 0.0353,-0.497771 0.0226,-0.06209 0.0508,-0.154517 0.0508,-0.154517 0.0247,-0.06985 -0.005,-0.10795 -0.0402,-0.02257 m -0.68897,1.091142 -0.19474,0.267406 c -0.006,0.0088 -0.005,0.02011 0.003,0.02611 l 0.33338,0.242713 c 0.008,0.0056 0.019,0.0039 0.0257,-0.0049 l 0.19509,-0.267406 c 0.006,-0.0085 0.004,-0.02011 -0.004,-0.02574 l -0.33267,-0.242711 c -0.008,-0.006 -0.0198,-0.0039 -0.0261,0.0046 m -1.70886,0.10301 c -0.0385,0.09984 -0.20214,0.445558 -0.15169,0.839613 0.002,0.01765 0.007,0.0388 0.0145,0.06068 0.01,0.08326 0.0642,0.22225 0.1778,0.226483 0.0265,0 0.0561,-0.0085 0.0861,-0.03316 0.0699,-0.02045 0.1464,-0.09137 0.19615,-0.282223 0.01,-0.05151 0.0152,-0.09243 0.019,-0.112536 0.006,-0.03034 -0.0205,-0.06526 -0.042,0.0056 -0.009,0.02646 -0.0222,0.05151 -0.0374,0.07373 8e-4,-0.02363 -0.0166,-0.04198 -0.0346,0.01198 -0.006,0.01693 -0.0152,0.03316 -0.0236,0.04833 -0.0642,0.0441 -0.14499,0.03986 -0.21837,-0.06703 -0.009,-0.01553 -0.0289,-0.05433 -0.0406,-0.123119 0.002,-0.07726 0.0187,-0.179916 0.0649,-0.313266 0.0219,-0.06174 0.0501,-0.154165 0.0501,-0.154165 0.0247,-0.06985 -0.005,-0.10795 -0.0402,-0.02257 -0.006,0.01553 -0.0166,0.03775 -0.0282,0.06632 0.002,-0.0078 0.004,-0.01482 0.007,-0.02257 0.0236,-0.07232 0.0526,-0.17921 0.0526,-0.17921 0.0265,-0.08149 -0.013,-0.122767 -0.0512,-0.02294 m 4.00509,-2.599971 c -0.0162,0.03916 -0.13723,0.336196 -0.13723,0.336196 0.002,0.01728 0.036,0.146756 0.0427,0.195439 0.0561,0.428274 0.40711,2.960159 0.50765,3.760259 0.0497,0.3937 0.0882,0.748241 0.0935,0.938389 -0.005,0.05891 0.0212,0.08079 0.048,0.02434 0.0145,-0.03034 0.0748,-0.155575 0.0935,-0.484013 0.0141,-0.246591 -0.006,-0.625475 -0.0762,-1.147233 -0.0102,-0.07585 -0.37535,-2.720269 -0.37535,-2.720269 0,0 0.19685,0.185209 0.2286,0.218724 0.0321,0.03387 0.0702,0.01588 0.0526,-0.0381 -0.0183,-0.05397 -0.42228,-1.030465 -0.43533,-1.064332 -0.013,-0.03387 -0.0261,-0.05856 -0.0423,-0.01939 m -6.40504,0.158044 c -0.0512,0.136525 -0.26422,0.608189 -0.23177,1.163814 0.008,0.128411 0.0854,0.378529 0.26176,0.385586 0.091,-2.65e-4 0.20885,-0.07302 0.2921,-0.38735 0.0145,-0.07091 0.0236,-0.128059 0.0296,-0.155927 0.009,-0.04233 -0.0198,-0.09278 -0.0494,0.0046 -0.0663,0.192265 -0.23954,0.326673 -0.36936,0.06879 -0.0208,-0.05115 -0.1083,-0.285044 0.0522,-0.796573 0.0325,-0.09913 0.0734,-0.246944 0.0734,-0.246944 0.036,-0.111831 -0.007,-0.17286 -0.0586,-0.03598 m -3.68088,0.02506 c -0.0339,0.08502 -0.17956,0.379941 -0.13582,0.715433 0.0102,0.07761 0.0773,0.226129 0.21132,0.22225 0.0691,-0.0039 0.15628,-0.05292 0.20884,-0.247298 0.008,-0.04339 0.0134,-0.07832 0.0173,-0.0956 0.005,-0.02611 -0.018,-0.05539 -0.0374,0.0046 -0.0441,0.119944 -0.17074,0.208844 -0.27834,0.05786 -0.0177,-0.02999 -0.0917,-0.168275 0.0124,-0.485071 0.0212,-0.06138 0.0473,-0.152752 0.0473,-0.152752 0.0236,-0.0695 -0.0113,-0.104423 -0.0455,-0.01939 m 2.76543,0.20602 c -0.0928,0.04233 -3.20922,1.398059 -3.30412,1.443567 -0.09,0.04375 -0.11395,0.06809 -0.12735,0.132998 -0.0134,0.06456 -0.0201,0.101952 -0.024,0.112535 -0.0152,0.04339 -0.0257,0.08114 0.0977,0.01622 0.0409,-0.02151 3.18735,-1.381479 3.26284,-1.421696 0.073,-0.03845 0.11042,-0.06244 0.13864,-0.129469 0.0279,-0.06703 0.0353,-0.07902 0.0504,-0.125941 0.0159,-0.04939 0.0388,-0.0889 -0.0942,-0.02822 m -4.15537,0.02752 c -0.14746,0.212373 -0.14147,0.47978 -0.14499,0.778582 -0.0261,-0.06068 -0.1778,-0.451909 -0.59902,-0.656167 -0.0307,-0.01482 -0.0889,0.02045 -0.0889,0.114652 -2.6e-4,0.05503 -0.008,0.188738 0.0328,0.224015 0.0409,0.03563 0.1591,0.102658 0.17921,0.111831 0.0194,0.0095 0.0402,0.0095 0.0448,-0.01341 0.004,-0.02328 0.0272,-0.07761 0.0663,-0.04198 0.0328,0.02963 0.24342,0.183799 0.36901,0.529522 0.0208,0.04551 0.0646,0.04763 0.0706,-0.01939 0.0141,-0.164042 0.0102,-0.448027 0.018,-0.534459 0.0113,-0.121708 0.0536,-0.373591 0.21413,-0.253645 0.0363,0.02716 0.0759,0.0635 0.0759,0.0635 0.0349,0.03916 0.0783,0.08325 0.0952,0.03492 0.0258,-0.07302 0.0427,-0.192617 0.006,-0.254 -0.0162,-0.02752 -0.21978,-0.255765 -0.33902,-0.08396 m 16.34101,0.894625 c -0.0346,0.08431 -0.17886,0.37465 -0.15698,0.717195 0.005,0.07937 0.0579,0.23354 0.17709,0.237422 0.0617,0 0.14111,-0.04481 0.19756,-0.23848 0.0102,-0.04374 0.0159,-0.07867 0.0201,-0.09595 0.006,-0.02611 -0.013,-0.05715 -0.0332,0.0024 -0.0455,0.118885 -0.16228,0.201789 -0.25012,0.04269 -0.0141,-0.03175 -0.0734,-0.175683 0.0353,-0.490712 0.0219,-0.06138 0.0497,-0.1524 0.0497,-0.1524 0.0243,-0.06879 -0.005,-0.10654 -0.0395,-0.02222 m 3.30694,0.173212 c -0.0314,0.07796 -0.1651,0.347133 -0.14464,0.664281 0.005,0.07303 0.0529,0.2159 0.16369,0.219782 0.0568,-2.65e-4 0.13053,-0.04163 0.18309,-0.22084 0.009,-0.04092 0.0145,-0.07338 0.0183,-0.0889 0.006,-0.02434 -0.0124,-0.05327 -0.031,0.0021 -0.0413,0.110066 -0.14958,0.186618 -0.23107,0.03951 -0.013,-0.02928 -0.0677,-0.162629 0.0325,-0.454377 0.0201,-0.05644 0.0462,-0.14111 0.0462,-0.14111 0.0226,-0.0635 -0.005,-0.09878 -0.037,-0.02045 m -6.20642,0.0085 -0.16792,0.230717 -0.32279,-0.235654 c -0.008,-0.006 -0.0201,-0.0035 -0.0261,0.0049 l -0.19508,0.267406 c -0.006,0.0085 -0.005,0.02011 0.004,0.02611 l 0.33267,0.242711 c 0.008,0.0056 0.0198,0.0035 0.0257,-0.0049 l 0.16863,-0.230717 0.32279,0.235657 c 0.008,0.0056 0.0194,0.0035 0.0257,-0.0049 l 0.19474,-0.267404 c 0.006,-0.0085 0.005,-0.02011 -0.003,-0.02611 l -0.33262,-0.242628 c -0.008,-0.006 -0.0198,-0.0035 -0.0261,0.0049 m -10.82569,0.38594 c -0.14746,0.212373 -0.14146,0.480132 -0.14499,0.778582 -0.0265,-0.06103 -0.1778,-0.452263 -0.59902,-0.656167 -0.0307,-0.01482 -0.0889,0.02045 -0.0889,0.114652 0,0.05468 -0.008,0.188735 0.0328,0.224015 0.0413,0.03563 0.1591,0.102658 0.17886,0.111828 0.0201,0.0095 0.0406,0.0099 0.0448,-0.01376 0.004,-0.02294 0.0272,-0.07761 0.0667,-0.04163 0.0328,0.02963 0.24341,0.183798 0.369,0.529519 0.0208,0.04551 0.0642,0.04763 0.0706,-0.01939 0.0145,-0.164394 0.0106,-0.448027 0.018,-0.534459 0.0113,-0.121708 0.054,-0.373591 0.21414,-0.253648 0.0363,0.02717 0.0758,0.0635 0.0758,0.0635 0.0346,0.03881 0.078,0.08326 0.0953,0.03493 0.0257,-0.07303 0.0427,-0.192616 0.006,-0.254352 -0.0162,-0.02716 -0.21978,-0.25541 -0.33902,-0.08361 m -4.0506,0.06315 c -0.0483,0.14605 -0.25223,0.650521 -0.20602,1.238954 0.0109,0.135821 0.0952,0.399346 0.27305,0.402167 0.0924,-0.0021 0.20955,-0.08184 0.28611,-0.416984 0.013,-0.07549 0.0212,-0.13617 0.0265,-0.165803 0.008,-0.04516 -0.0219,-0.09807 -0.0497,0.006 -0.0628,0.205316 -0.23424,0.352073 -0.37147,0.08149 -0.0226,-0.05362 -0.11677,-0.29986 0.0335,-0.845254 0.03,-0.105833 0.0681,-0.263525 0.0681,-0.263525 0.0335,-0.119239 -0.0116,-0.183091 -0.06,-0.03704 m 16.1798,-0.03316 c -0.013,0.04516 -0.0455,0.23989 -0.0536,0.279754 -0.008,0.04022 -0.007,0.08008 0.0127,0.1143 0.0198,0.03422 0.0706,0.152752 0.10689,0.249061 0.0367,0.09631 0.41452,0.824089 0.44944,0.888648 0.0349,0.0642 0.042,0.112183 0.007,0.15522 -1.2125,1.279525 -3.55283,2.066221 -3.62797,2.109965 -0.0744,0.04339 -0.0547,0.07726 0.0709,0.05503 0.18838,-0.03316 1.24001,-0.208843 1.53917,-0.353131 0.1979,-0.09525 0.88829,-0.434269 1.45309,-0.876652 -0.0159,0.1143 -0.0303,0.282223 -0.0226,0.4953 0.0381,1.029406 0.95814,0.858308 1.19979,0.805392 0.72355,-0.159102 1.60832,-1.159227 1.68346,-1.359959 0.0744,-0.198614 0.085,-0.379941 0.0684,-0.537985 0.1905,-0.103013 0.60008,-0.432858 0.60008,-0.432858 0.0169,0.438502 0.36618,0.570441 0.47342,0.589491 0.50377,0.07655 0.756,-0.344312 0.86325,-0.480837 0.0914,0.240241 0.31221,0.287162 0.4258,0.309739 0.43427,0.08643 0.51859,-0.220839 0.54152,-0.291041 0.13652,-0.423334 -0.10937,-0.739423 -0.14112,-0.774348 -0.0314,-0.03528 -0.0476,-0.0013 -0.0586,0.03916 -0.0109,0.04057 -0.0462,0.193323 -0.0681,0.288925 0,0 0.0907,0.147815 0.12347,0.223308 0.0317,0.07514 -0.0159,0.116771 -0.10936,0.128059 -0.26458,0.0321 -0.47554,-0.119238 -0.54822,-0.189088 -0.0727,-0.06985 0.006,-0.193323 0.0649,-0.341137 0.0469,-0.118179 -0.0399,-0.132292 -0.10689,-2.65e-4 -0.22437,0.58914 -0.53869,0.65264 -0.62159,0.674865 -0.74613,0.203552 -0.68157,-0.478367 -0.67875,-0.590198 0.002,-0.111832 -0.0794,-0.07091 -0.17145,0.0032 -0.31362,0.251883 -0.56691,0.40005 -0.70273,0.460727 -0.11712,-0.228952 -0.28716,-0.372886 -0.35877,-0.424744 -0.80751,-0.588433 -0.87419,0.599369 -0.8502,0.727075 0.12312,0.504825 0.94827,0.198615 1.07738,0.183444 0.12912,-0.01516 0.0871,0.155575 0.0148,0.257175 -0.17956,0.250121 -0.38594,0.429683 -0.57291,0.582083 -0.8001,0.65264 -1.20086,0.601133 -1.32468,0.5969 -0.78529,-0.02188 -0.71332,-0.868537 -0.66922,-1.04916 0.23601,-0.200377 0.43886,-0.41769 0.55703,-0.641702 0.048,-0.122767 0.13089,-0.401815 -0.0187,-0.751771 -0.079,-0.154163 -0.32667,-0.586317 -0.32667,-0.586317 0,0 0.18238,0.0056 0.20002,0.0056 0.0177,-2.65e-4 0.0515,-0.01834 0.007,-0.0695 -0.0441,-0.05115 -0.42721,-0.433564 -0.45014,-0.464256 -0.0236,-0.03069 -0.0444,-0.05256 -0.0575,-0.0074 m 2.42217,1.7526 c 0,0 -0.11007,0.06315 -0.41769,0.04233 -0.25753,-0.01728 -0.2353,-0.117475 -0.20002,-0.155927 0.0381,-0.04163 0.35383,-0.240242 0.61771,0.113594 m -12.9607,-1.668637 -0.19544,0.267403 c -0.006,0.0085 -0.005,0.02045 0.004,0.02612 l 0.33267,0.24271 c 0.008,0.006 0.0198,0.0039 0.0257,-0.0049 l 0.19509,-0.267406 c 0.006,-0.0085 0.005,-0.02011 -0.004,-0.02611 l -0.33267,-0.24271 c -0.008,-0.0056 -0.0198,-0.0035 -0.0254,0.0049 m 9.64424,0.243768 c -0.0536,0.06632 -0.58985,0.770115 -0.58985,0.770115 l -0.39017,-0.27799 c 0,0 0.1591,-0.04022 0.18697,-0.04833 0.0279,-0.0081 0.0437,-0.04374 -0.006,-0.06949 -0.0501,-0.02574 -0.52034,-0.21308 -0.55598,-0.227542 -0.036,-0.01482 -0.0487,-0.03105 -0.0522,0.0074 -0.002,0.03775 -0.008,0.347485 -0.008,0.347485 0,0 -0.007,0.02151 0.0339,0.0448 0.0409,0.02328 0.0811,0.07338 0.11465,0.106892 0.0339,0.03351 0.47131,0.378883 0.49248,0.39088 0,0 -0.21872,0.384175 -0.24659,0.685445 -0.0275,0.300921 0.005,0.71614 0.41663,0.582438 0.11042,-0.03175 0.5715,-0.215196 0.67451,-0.536223 0.0335,-0.118534 0.12806,-0.332317 -0.0261,-0.548923 -0.0889,-0.127352 -0.44908,-0.342546 -0.44908,-0.342546 0,0 0.27622,-0.382058 0.30268,-0.428625 0.0268,-0.04692 0.12806,-0.3429 0.139,-0.414515 0.0113,-0.07161 0.0169,-0.107598 -0.0363,-0.04127 m -0.0942,1.622777 c -0.15311,0.125942 -0.47413,0.291748 -0.56444,0.300567 -0.0903,0.0085 -0.3295,-0.03528 -0.22543,-0.280458 0.0353,-0.07938 0.27481,-0.48895 0.27481,-0.48895 0.0896,0.04904 0.66781,0.343254 0.51506,0.468841 m -13.3283,-1.37936 -0.16827,0.231069 -0.32315,-0.235654 c -0.008,-0.006 -0.0194,-0.0035 -0.0257,0.0046 l -0.19509,0.267758 c -0.006,0.0081 -0.004,0.02011 0.004,0.02574 l 0.33267,0.242713 c 0.008,0.006 0.0198,0.0039 0.0261,-0.0046 l 0.16827,-0.231069 0.32279,0.235657 c 0.008,0.006 0.0198,0.0039 0.0257,-0.0046 l 0.19508,-0.267759 c 0.006,-0.0081 0.005,-0.02011 -0.004,-0.02574 l -0.33267,-0.24271 c -0.008,-0.006 -0.0194,-0.0035 -0.0257,0.0046 m 4.17301,0.06738 -0.16863,0.230716 -0.32279,-0.235656 c -0.008,-0.0056 -0.0194,-0.0039 -0.0261,0.0049 l -0.19509,0.267404 c -0.006,0.0085 -0.004,0.02011 0.004,0.02574 l 0.33267,0.24271 c 0.008,0.006 0.0198,0.0039 0.0261,-0.0046 l 0.16827,-0.230716 0.3228,0.235302 c 0.008,0.006 0.0198,0.0039 0.0261,-0.0046 l 0.19473,-0.267406 c 0.006,-0.0085 0.005,-0.02011 -0.004,-0.02574 l -0.33232,-0.243065 c -0.008,-0.0056 -0.0201,-0.0039 -0.0258,0.0049 m 0.94862,0.850193 c -0.0127,0.02257 -0.0804,0.266349 -0.0804,0.266349 0.0279,0.07796 0.11324,0.251176 0.12559,0.304093 0.0127,0.05292 0.0275,0.110419 -0.0501,0.128058 -0.078,0.01765 -0.37218,0.04022 -0.57079,-0.251176 0.0177,-0.03775 0.0751,-0.203907 0.0882,-0.248709 0.0201,-0.06068 -0.0254,-0.130881 -0.0681,-0.04551 -0.0427,0.08537 -0.19826,0.470252 -0.33161,0.563033 -0.13335,0.09313 -0.43498,0.256469 -0.68404,-0.130529 0.018,-0.05045 0.0377,-0.148167 0.0632,-0.201084 0.0374,-0.07302 0.01,-0.14111 -0.0554,-0.06068 -0.0656,0.08079 -0.21272,0.424392 -0.57326,0.548217 -0.13441,0.04622 -0.77435,0.158398 -0.96026,-0.416983 0.0152,-0.04798 0.0204,-0.07056 0.0356,-0.143582 0.0148,-0.07303 -0.0152,-0.148166 -0.0861,-0.06808 -0.0702,0.08043 -0.21096,0.402519 -0.35666,0.515408 -0.1457,0.113242 -0.7052,0.556332 -1.23684,-0.311501 -0.0614,-0.100542 -0.18591,-0.256472 -0.47766,-0.08043 -0.29139,0.176035 -0.4766,0.415219 -0.58067,0.651227 -0.072,0.16369 -0.22366,0.683332 -0.3168,0.776465 -0.0931,0.09313 -0.24306,0.253293 -0.4826,0.02787 -0.0892,-0.08431 -0.42721,-0.47766 -0.41486,-1.186743 0,-0.0501 -0.03,-0.06773 -0.0476,-0.0074 -0.0176,0.06033 -0.0984,0.885118 0.31186,1.45556 0.06,0.07514 0.35172,0.421923 0.65334,0.03528 0.0476,-0.06103 0.34184,-0.721784 0.40464,-0.847371 0.0632,-0.12559 0.33126,-0.48119 0.56091,-0.550688 0.0607,-0.01799 0.18839,-0.08255 0.29175,0.09842 0.10301,0.180623 0.29669,0.642763 0.88971,0.550334 0.15663,-0.02434 0.4826,-0.130527 0.70379,-0.560562 0.0575,0.10795 0.16828,0.478718 0.75177,0.487537 0.0854,0.0013 0.54539,-0.04763 0.76165,-0.379587 0.0476,0.06279 0.24976,0.394051 0.68368,0.246591 0.15981,-0.05433 0.34678,-0.334433 0.34678,-0.334433 0.0526,0.05785 0.17145,0.265993 0.5909,0.243768 0.0755,-0.0039 0.25224,-0.06103 0.32915,-0.412043 0.0169,-0.07761 0.0452,-0.394758 -0.1584,-0.671338 -0.0427,-0.05539 -0.048,-0.0127 -0.0603,0.01024 m 14.43706,1.023615 c -0.0314,0.08643 -0.0434,0.142875 -0.0402,0.175683 0.004,0.03316 0.0152,0.139349 0.0152,0.139349 -0.0325,0.02611 -0.16933,0.111125 -0.30586,0.01058 0.009,-0.02928 0.0268,-0.0889 0.031,-0.121357 0.0148,-0.0508 -0.0166,-0.08854 -0.0416,-0.03598 -0.0247,0.05257 -0.0825,0.228248 -0.12559,0.267758 -0.043,0.03951 -0.0938,0.184505 -0.4198,0.03669 -0.0572,-0.02151 -0.15699,-0.09596 -0.31256,0.06103 -0.35243,0.327728 -0.5962,0.353128 -0.99166,0.493535 -0.0476,0.02223 -0.14817,0.09737 -0.0289,0.08573 0.11959,-0.01199 0.62054,2.64e-4 0.89288,-0.313267 0.0575,-0.05503 0.12242,-0.201083 0.33902,-0.116416 0.11995,0.04551 0.34149,0.235656 0.58385,-0.140407 0.14217,0.0949 0.35877,0.05715 0.39335,-0.04727 0.0346,-0.104775 0.0741,-0.209198 0.0737,-0.280107 -2.6e-4,-0.07091 -0.007,-0.1651 -0.007,-0.1651 -0.005,-0.05609 -0.0247,-0.136525 -0.0561,-0.05045 m -14.09347,0.3556 c -0.0702,0.03493 -1.23226,0.497771 -1.30457,0.53834 -0.0723,0.04022 -0.0981,0.05009 -0.11254,0.103365 -0.0148,0.05256 -0.0219,0.08325 -0.0257,0.09208 -0.0148,0.03493 -0.0265,0.07832 0.0804,0.01834 0.0328,-0.01905 1.20862,-0.487891 1.26824,-0.521406 0.0596,-0.03457 0.0949,-0.04621 0.12206,-0.100542 0.0265,-0.05398 0.0332,-0.06385 0.0483,-0.1016 0.0155,-0.04022 0.0317,-0.08325 -0.0762,-0.02858 m -4.65455,0.403225 c -0.0699,0.03492 -1.23226,0.497771 -1.30457,0.53834 -0.0723,0.04022 -0.0977,0.05009 -0.11254,0.103365 -0.0145,0.05292 -0.0219,0.08325 -0.0254,0.09172 -0.0148,0.03528 -0.0265,0.07867 0.0801,0.01871 0.0332,-0.01905 1.20897,-0.48754 1.26859,-0.521758 0.0593,-0.03387 0.0952,-0.04586 0.12171,-0.10019 0.0268,-0.05398 0.0332,-0.0635 0.048,-0.1016 0.0159,-0.04022 0.0321,-0.08325 -0.0758,-0.02858 m 0.89605,0.190148 -0.19543,0.267407 c -0.006,0.0085 -0.005,0.02011 0.004,0.02574 l 0.33232,0.24271 c 0.008,0.006 0.0201,0.0039 0.0257,-0.0046 l 0.16862,-0.230717 0.32279,0.235302 c 0.008,0.006 0.0198,0.0039 0.0261,-0.0046 l 0.19473,-0.267406 c 0.006,-0.0088 0.005,-0.02011 -0.004,-0.02611 l -0.33231,-0.242713 c -0.008,-0.0056 -0.0198,-0.0035 -0.0261,0.0049 l -0.16827,0.230716 -0.32279,-0.235656 c -0.008,-0.0056 -0.0198,-0.0035 -0.0258,0.0049"
       style="fill:#231f20;fill-opacity:1;fill-rule:evenodd;stroke:none;stroke-width:0.264583"
       id="path1" />
  </g>
</svg>
