<?xml version="1.0" encoding="UTF-8" standalone="no"?>
<!-- Created with Inkscape (http://www.inkscape.org/) -->

<svg
   width="17.642706mm"
   height="6.1260333mm"
   viewBox="0 0 17.642706 6.1260333"
   version="1.1"
   id="svg1"
   xmlns="http://www.w3.org/2000/svg"
   xmlns:svg="http://www.w3.org/2000/svg">
  <defs
     id="defs1" />
  <g
     id="layer1"
     transform="translate(-162.92614,-31.363515)">
    <path
       d="m 172.84549,31.532652 c -0.0699,0.10654 -0.12171,0.362302 -0.0222,0.435327 0.0998,0.07338 0.24589,0.132646 0.24589,0.132646 -0.46461,0.570794 -0.78282,0.680154 -1.05446,0.83961 -0.0699,0.04092 -0.0557,0.07796 -0.0152,0.06703 0.0212,-0.0056 0.387,-0.06279 0.81386,-0.388053 0.23107,-0.175684 0.37077,-0.47625 0.37077,-0.47625 0,0 0.11571,0.09666 0.13123,0.116416 0.0349,0.04374 0.0543,0.07585 0.0709,0.02999 0.0607,-0.168981 -0.0254,-0.270933 -0.10724,-0.323498 0,0 0.0854,-0.26317 -0.0716,-0.527402 -0.0261,-0.04445 -0.18133,-0.185208 -0.36195,0.09419 m 0.24307,0.07267 c 0.10477,0.09737 0.0885,0.257879 0.0847,0.294569 0,0 -0.1337,-0.06279 -0.19367,-0.08855 -0.0596,-0.02574 -0.091,-0.06385 -0.0635,-0.1016 0.0921,-0.130175 0.13758,-0.125942 0.17251,-0.104421 m -1.79846,-0.205316 c -0.0162,0.0388 -0.13688,0.335843 -0.13688,0.335843 0.003,0.01765 0.036,0.147108 0.0427,0.195792 0.0557,0.428273 0.4057,2.959806 0.50624,3.759906 0.0494,0.3937 0.0878,0.748242 0.0931,0.938742 -0.004,0.05856 0.0212,0.08079 0.048,0.02434 0.0148,-0.03069 0.0748,-0.155575 0.0931,-0.484365 0.0141,-0.246592 -0.006,-0.625475 -0.0759,-1.146882 -0.0102,-0.07585 -0.37465,-2.720268 -0.37465,-2.720268 0,0 0.19685,0.184856 0.22825,0.218723 0.0318,0.03351 0.0702,0.01588 0.0519,-0.03845 -0.018,-0.05398 -0.42051,-1.030462 -0.43391,-1.063977 -0.0127,-0.03387 -0.0257,-0.05856 -0.042,-0.01939 m -1.06539,0 c -0.0162,0.0388 -0.1457,0.324553 -0.1457,0.324553 0.004,0.02328 0.0339,0.09384 0.055,0.237773 0.0215,0.149577 0.0529,0.363715 0.0875,0.600075 0.0162,0.147461 0.35102,2.307167 0.37642,2.522715 0.0254,0.215194 0.10759,0.588785 0.006,0.658635 -0.1009,0.0695 -0.26423,0.143227 -0.54963,0.08925 -0.018,-0.0039 -0.0815,-0.02045 -0.16439,-0.04762 0.0751,-0.105479 0.13864,-0.236008 0.16897,-0.396168 0.0208,-0.07937 0.0677,-0.406048 -0.13581,-0.640292 -0.0445,-0.04022 -0.18239,-0.150635 -0.36054,0.0254 -0.1778,0.176035 -0.30904,0.460375 -0.35137,0.60819 -0.0257,0.09066 -0.0632,0.302329 0.0579,0.492125 -0.0734,0.03563 -0.13124,0.06138 -0.1584,0.07126 -0.0984,0.03528 -0.96944,0.372885 -1.29716,-0.169333 -0.0515,-0.0889 -0.17393,-0.369007 -0.0497,-0.692857 0.38771,-0.195437 0.85796,-0.439912 0.85796,-0.439912 0.0543,-0.116065 0.16369,-0.444148 0.16369,-0.444148 -0.10619,-0.03246 -2.00343,-0.32526 -2.76155,-0.161219 -0.18591,0.04198 -0.63253,0.109713 -0.63888,0.621242 0.0226,0.128762 0.10619,0.299508 0.24413,0.392994 0.0522,0.03069 0.26211,0.160866 0.45014,0.353483 -0.0325,0.0113 -0.0642,0.02222 -0.0938,0.03246 -1.17158,0.399344 -1.9057,1.344436 -2.04999,1.477079 -0.1337,0.123121 -0.45509,0.3429 -0.71473,0.140055 -0.09,-0.06138 -0.24059,-0.213784 -0.14746,-0.599723 0.0321,-0.151694 0.2473,-0.701675 0.45297,-0.991659 0.009,-0.0127 0.0152,-0.02468 0.0194,-0.03669 0.0984,-0.01482 0.21943,-0.115359 0.32456,-0.440971 0.0219,-0.08467 0.037,-0.1524 0.0462,-0.185208 0.0134,-0.0501 -0.0152,-0.113242 -0.0564,0.0019 -0.0917,0.226483 -0.29986,0.375004 -0.42792,0.05468 -0.0201,-0.06279 -0.1016,-0.35066 0.12241,-0.953206 0.0448,-0.116417 0.10266,-0.291394 0.10266,-0.291394 0.0501,-0.131585 0.006,-0.207785 -0.0635,-0.04763 -0.0691,0.160867 -0.34996,0.7112 -0.35666,1.381125 -7.9e-4,0.128411 0.0462,0.359482 0.17604,0.448027 -0.0878,0.131588 -0.3362,0.585965 -0.43568,0.957792 -0.10301,0.383117 -0.11289,1.084792 0.58067,1.13665 0.12559,0.0028 0.40146,-0.05785 0.75142,-0.4572 0.13828,-0.154517 0.82832,-0.875594 1.4418,-1.097492 0.0804,-0.02928 0.30409,-0.118885 0.55809,-0.221895 0.0251,0.04727 0.0462,0.09666 0.0614,0.14746 0.0194,0.05962 0.0356,0.07726 0.0709,-0.0064 0.0152,-0.03633 0.0427,-0.109008 0.0402,-0.211315 0.3489,-0.141816 0.70697,-0.288925 0.80716,-0.329141 0.0522,-0.02082 0.17356,-0.07973 0.32279,-0.153811 -0.0589,0.264584 -0.18309,0.939448 0.36795,1.225198 0.0935,0.04445 0.65793,0.286102 1.47037,-0.225425 0.0134,-0.0085 0.048,-0.02646 0.0935,-0.05503 0.0526,0.0254 0.11218,0.04798 0.18062,0.06667 0.0819,0.02363 0.65335,0.227542 0.91793,-0.110421 0.0487,-0.06773 0.2293,-0.424744 0.18239,-0.896408 -0.007,-0.119592 -0.13371,-1.049161 -0.13371,-1.049161 l -0.29951,-1.831268 c 0,0 0.20003,0.168275 0.23178,0.202141 0.0317,0.03316 0.0702,0.01588 0.0519,-0.0381 -0.018,-0.05433 -0.39547,-0.994481 -0.40852,-1.028348 -0.0127,-0.03387 -0.0257,-0.05856 -0.042,-0.01939 m -2.04893,3.101975 c 0.0501,0.0074 -0.26353,0.154162 -0.38876,0.212725 -0.10055,0.04621 -0.84244,0.362654 -1.41852,0.583846 -0.0356,-0.05856 -0.0822,-0.120296 -0.14182,-0.184854 -0.091,-0.09878 -0.48824,-0.383117 -0.5267,-0.421923 -0.0385,-0.03845 -0.17956,-0.106185 -0.0127,-0.176742 0.16687,-0.07091 0.8315,-0.257527 2.4885,-0.01304 m 1.68204,0.718609 c 0.061,0.13617 0.0843,0.237066 0.0353,0.283985 -0.0628,0.05398 -0.15981,0.117123 -0.26529,0.178858 -0.091,-0.04233 -0.1778,-0.09243 -0.23848,-0.148518 -0.0445,-0.0374 -0.0794,-0.04692 -0.0325,-0.136173 0.0466,-0.0889 0.18274,-0.272344 0.25259,-0.295627 0.0705,-0.02328 0.18767,-0.01871 0.24835,0.117475 m 9.49396,-3.59269 c -0.0702,0.106892 -0.12207,0.363008 -0.0222,0.435681 0.0998,0.07338 0.24589,0.132644 0.24589,0.132644 -0.46461,0.570793 -1.37725,0.977193 -1.59456,1.146881 -0.0646,0.04904 -0.0561,0.07796 -0.0148,0.06703 0.0363,-0.0099 0.7313,-0.204965 1.36666,-0.75071 0.29139,-0.249767 0.28363,-0.268465 0.35771,-0.420865 0.0632,0.03281 0.10654,0.08572 0.13124,0.116417 0.0349,0.04339 0.0543,0.07549 0.0705,0.02998 0.061,-0.168979 -0.0251,-0.270933 -0.10724,-0.323495 0,0 0.0854,-0.263173 -0.0713,-0.527405 -0.0261,-0.04409 -0.18133,-0.18556 -0.36195,0.09384 m 0.24271,0.07303 c 0.10477,0.09772 0.0889,0.257881 0.0847,0.294568 0,0 -0.13335,-0.06315 -0.19332,-0.08855 -0.06,-0.02574 -0.0914,-0.06385 -0.0639,-0.101955 0.0924,-0.12982 0.13758,-0.125235 0.17251,-0.104068 m -1.784,-0.165452 c -0.18274,0.232479 -0.19403,0.538692 -0.21837,0.879827 -0.0257,-0.07162 -0.17145,-0.529167 -0.63782,-0.790927 -0.0339,-0.01905 -0.10301,0.01728 -0.10936,0.124529 -0.004,0.06315 -0.0215,0.215548 0.0226,0.25894 0.0441,0.04268 0.17427,0.127706 0.19579,0.139348 0.0219,0.01236 0.0455,0.0141 0.0522,-0.01199 0.006,-0.02646 0.036,-0.08714 0.0783,-0.04339 0.036,0.03598 0.26529,0.226484 0.38488,0.630415 0.0205,0.05327 0.0702,0.05891 0.0815,-0.01728 0.0279,-0.186973 0.0427,-0.511175 0.0575,-0.6096 0.0204,-0.13829 0.0864,-0.423333 0.26141,-0.275521 0.0395,0.03387 0.0815,0.07832 0.0815,0.07832 0.0374,0.04692 0.0836,0.10019 0.10654,0.04622 0.0342,-0.08149 0.0621,-0.216958 0.0243,-0.289983 -0.0169,-0.03246 -0.23318,-0.307269 -0.381,-0.118885 m -1.79564,-0.01093 c -0.0674,0.03951 -1.78329,1.03223 -1.85278,1.077032 -0.0695,0.0448 -0.0942,0.05644 -0.10549,0.110066 -0.0109,0.05397 -0.0166,0.08502 -0.0194,0.09349 -0.0127,0.03598 -0.0215,0.08043 0.0808,0.01341 0.0317,-0.02082 1.75753,-1.020585 1.81786,-1.058333 0.0582,-0.03634 0.0914,-0.05186 0.115,-0.107598 0.0233,-0.05574 0.0289,-0.06562 0.0413,-0.104421 0.0138,-0.04127 0.0268,-0.08502 -0.0773,-0.02363 m -8.17633,0.09455 c -0.0339,0.08325 -0.17533,0.369358 -0.15381,0.706612 0.005,0.07796 0.0568,0.229658 0.17357,0.233892 0.0607,-2.65e-4 0.13899,-0.0441 0.19438,-0.23495 0.01,-0.04304 0.0155,-0.07796 0.0198,-0.09454 0.006,-0.02574 -0.013,-0.05644 -0.0328,0.0024 -0.0445,0.116772 -0.1591,0.198615 -0.24553,0.04198 -0.0141,-0.03104 -0.0723,-0.17286 0.0349,-0.483658 0.0212,-0.05997 0.0483,-0.149577 0.0483,-0.149577 0.024,-0.06809 -0.005,-0.10513 -0.0388,-0.02223 m -3.27413,0.01728 c -0.14111,0.21096 -0.13124,0.473075 -0.13018,0.765881 -0.0268,-0.05927 -0.18062,-0.440621 -0.59619,-0.634296 -0.0303,-0.01376 -0.0864,0.02151 -0.085,0.113948 2.7e-4,0.05398 -0.005,0.185209 0.0356,0.219075 0.0406,0.03422 0.15734,0.09843 0.17639,0.106892 0.0198,0.0088 0.0399,0.0088 0.0437,-0.0141 0.004,-0.02257 0.0254,-0.0762 0.0646,-0.04198 0.0325,0.02857 0.2413,0.17639 0.36901,0.513644 0.0212,0.04445 0.0642,0.04551 0.0688,-0.01976 0.0116,-0.161573 0.004,-0.439562 0.01,-0.524581 0.009,-0.119592 0.0469,-0.367242 0.20567,-0.252235 0.0363,0.02611 0.0751,0.06138 0.0751,0.06138 0.0346,0.03739 0.0776,0.08008 0.0935,0.03281 0.0243,-0.07197 0.0392,-0.189441 0.002,-0.249414 -0.0166,-0.02681 -0.21907,-0.247298 -0.33302,-0.07726 m 5.21653,0.505532 c -0.0829,0.03598 -2.45604,1.109133 -2.54106,1.148291 -0.0847,0.03916 -0.11007,0.05644 -0.12665,0.115711 -0.0166,0.05927 -0.0251,0.09102 -0.0293,0.103364 -0.0145,0.04057 -0.0339,0.08149 0.0896,0.02151 0.0388,-0.01905 2.43416,-1.0922 2.50119,-1.1303 0.067,-0.03775 0.10654,-0.05151 0.13723,-0.111831 0.0303,-0.06103 0.0377,-0.07161 0.0543,-0.1143 0.0183,-0.04515 0.0395,-0.08714 -0.0854,-0.03245 m -3.80436,0.423685 c -0.13159,0.143933 -0.17251,0.242358 -0.21166,0.304094 -0.054,0.08502 0.0141,0.122414 0.0751,0.05645 0.061,-0.06562 0.10336,-0.131588 0.28222,-0.127355 0.17886,0.0049 0.60642,-0.01164 0.44661,0.10654 -0.1598,0.117475 -0.26775,0.185915 -0.26775,0.185915 -0.10407,0.07444 -0.19544,0.214487 -0.012,0.136525 0.18344,-0.07796 0.42545,-0.200025 0.61136,-0.480484 0.054,-0.08185 0.11748,-0.190854 -0.13405,-0.228954 -0.25153,-0.03775 -0.65828,-0.09666 -0.78987,0.04727 m 10.36779,0.313619 c -0.0342,0.08431 -0.17816,0.375004 -0.15664,0.71755 0.006,0.07902 0.0579,0.233187 0.17639,0.237066 0.0617,0 0.14111,-0.0448 0.19756,-0.238477 0.01,-0.04374 0.0159,-0.07867 0.0201,-0.09596 0.006,-0.02646 -0.0134,-0.0575 -0.0335,0.0028 -0.0448,0.118533 -0.16157,0.201435 -0.24906,0.04233 -0.0141,-0.0314 -0.0734,-0.175683 0.0349,-0.491066 0.0219,-0.06103 0.0494,-0.152048 0.0494,-0.152048 0.0243,-0.06879 -0.005,-0.106538 -0.0392,-0.02222 m 3.29917,0.173214 c -0.0317,0.07796 -0.1651,0.346782 -0.14464,0.663927 0.005,0.07338 0.0533,0.216255 0.16334,0.220134 0.0564,-2.65e-4 0.13053,-0.04198 0.18274,-0.221192 0.009,-0.04022 0.0145,-0.07267 0.0183,-0.0889 0.006,-0.024 -0.0123,-0.05256 -0.0307,0.0028 -0.042,0.109715 -0.14993,0.186618 -0.23107,0.03951 -0.0127,-0.02963 -0.0677,-0.163335 0.0328,-0.454729 0.0201,-0.0568 0.0455,-0.141113 0.0455,-0.141113 0.0226,-0.06385 -0.004,-0.09842 -0.0363,-0.02045 m -6.1909,0.0085 -0.16827,0.230365 -0.32209,-0.235305 c -0.008,-0.006 -0.0194,-0.0035 -0.0257,0.0049 l -0.19473,0.267052 c -0.006,0.0088 -0.004,0.02045 0.004,0.02646 l 0.33232,0.242713 c 0.008,0.0056 0.0194,0.0035 0.0254,-0.0049 l 0.16792,-0.231068 0.32209,0.236008 c 0.008,0.0056 0.0198,0.0035 0.0261,-0.0049 l 0.19403,-0.267406 c 0.007,-0.0085 0.005,-0.02045 -0.003,-0.02612 l -0.33232,-0.242712 c -0.008,-0.006 -0.0194,-0.0035 -0.0254,0.0049 m -8.96267,0.338667 c -0.0317,0.09948 -0.16862,0.443793 -0.12241,0.837848 0.0106,0.09102 0.0776,0.265994 0.20673,0.26317 0.0663,-0.0039 0.14957,-0.06032 0.19791,-0.287512 0.008,-0.05115 0.012,-0.09208 0.0155,-0.112183 0.005,-0.03034 -0.0183,-0.06526 -0.036,0.0053 -0.0409,0.1397 -0.16227,0.242358 -0.26705,0.06456 -0.0177,-0.03563 -0.0907,-0.198263 0.006,-0.569031 0.0198,-0.07197 0.0434,-0.178859 0.0434,-0.178859 0.0222,-0.08114 -0.012,-0.122415 -0.0441,-0.02328 m 10.26266,0.07726 c -0.013,0.04516 -0.0455,0.239535 -0.0536,0.279752 -0.008,0.03986 -0.007,0.07973 0.0127,0.1143 0.0198,0.03387 0.0702,0.152755 0.10654,0.248708 0.0367,0.09631 0.41345,0.82409 0.44802,0.889 0.0349,0.06421 0.042,0.112184 0.007,0.155224 -1.20967,1.279525 -3.54436,2.066218 -3.61879,2.10961 -0.0748,0.04339 -0.0547,0.07726 0.0709,0.05539 0.18767,-0.03316 1.23613,-0.208847 1.53528,-0.353132 0.19721,-0.0956 0.88548,-0.434268 1.44851,-0.876652 -0.0152,0.1143 -0.03,0.282575 -0.0219,0.4953 0.0377,1.029052 0.95567,0.858309 1.19662,0.805392 0.72179,-0.15875 1.60479,-1.15923 1.67958,-1.360313 0.0744,-0.19826 0.0854,-0.379235 0.0684,-0.537633 0.19014,-0.10301 0.59831,-0.43321 0.59831,-0.43321 0.0169,0.439208 0.36512,0.570793 0.47237,0.589843 0.50235,0.07655 0.75424,-0.344662 0.86113,-0.480835 0.091,0.240593 0.31115,0.286808 0.42439,0.30974 0.43356,0.08643 0.51752,-0.22084 0.54045,-0.291042 0.13547,-0.423688 -0.10936,-0.739071 -0.14075,-0.7747 -0.0317,-0.03457 -0.0476,-0.0011 -0.0586,0.03916 -0.0113,0.04092 -0.0462,0.194027 -0.0677,0.289277 0,0 0.0907,0.148167 0.12242,0.223309 0.0325,0.07549 -0.0155,0.116416 -0.10866,0.128058 -0.26353,0.03246 -0.47413,-0.11924 -0.54645,-0.18909 -0.0727,-0.06985 0.006,-0.193675 0.0646,-0.340783 0.0466,-0.118179 -0.0402,-0.132644 -0.1069,-2.65e-4 -0.22295,0.588434 -0.53728,0.651934 -0.61983,0.674865 -0.74401,0.2032 -0.6798,-0.479073 -0.67733,-0.59055 0.002,-0.111831 -0.0787,-0.07091 -0.17074,0.0032 -0.31292,0.251883 -0.56515,0.40005 -0.70097,0.460727 -0.11677,-0.2286 -0.28646,-0.372885 -0.35807,-0.424392 -0.8054,-0.58914 -0.87207,0.599017 -0.84773,0.726369 0.12277,0.505531 0.94545,0.198966 1.07456,0.183798 0.12912,-0.01516 0.0868,0.155223 0.0148,0.256823 -0.17886,0.250119 -0.38488,0.430035 -0.5715,0.582787 -0.79763,0.652288 -1.19803,0.600782 -1.32115,0.596548 -0.78387,-0.02222 -0.71156,-0.86854 -0.66781,-1.04916 0.2353,-0.20038 0.4378,-0.41769 0.55562,-0.641705 0.048,-0.122766 0.13053,-0.40146 -0.0187,-0.751768 -0.0783,-0.15381 -0.32562,-0.585965 -0.32562,-0.585965 0,0 0.18203,0.0053 0.19932,0.0053 0.0173,-2.65e-4 0.0515,-0.01834 0.007,-0.0695 -0.0441,-0.05115 -0.42651,-0.433213 -0.44944,-0.463904 -0.0233,-0.03069 -0.0441,-0.05327 -0.0572,-0.0078 m 2.41618,1.7526 c 0,0 -0.10972,0.06315 -0.41628,0.04233 -0.25718,-0.01728 -0.23531,-0.117475 -0.20003,-0.155927 0.0381,-0.04127 0.35313,-0.240242 0.61631,0.113593 m -7.52899,-1.406525 -0.19438,0.267052 c -0.006,0.0085 -0.005,0.02011 0.003,0.02612 l 0.33196,0.24271 c 0.008,0.0056 0.0198,0.0035 0.0257,-0.0046 l 0.19473,-0.267759 c 0.006,-0.0085 0.005,-0.01976 -0.004,-0.02574 l -0.33197,-0.243064 c -0.008,-0.0056 -0.0194,-0.0035 -0.0257,0.0053 m 4.22063,-0.01834 c -0.0536,0.06597 -0.58843,0.770112 -0.58843,0.770112 l -0.38911,-0.278342 c 0,0 0.15875,-0.03986 0.18661,-0.04763 0.0275,-0.0081 0.0434,-0.04445 -0.006,-0.06985 -0.0501,-0.02574 -0.51893,-0.213429 -0.55491,-0.227893 -0.0356,-0.0141 -0.0483,-0.03069 -0.0519,0.0074 -0.003,0.0381 -0.008,0.34784 -0.008,0.34784 0,0 -0.007,0.02151 0.0339,0.04515 0.0409,0.02328 0.0811,0.07267 0.11465,0.10654 0.0335,0.03387 0.4699,0.378532 0.49107,0.390877 0,0 -0.21837,0.38453 -0.24589,0.685448 -0.0282,0.300919 0.005,0.71614 0.41557,0.582084 0.11042,-0.0314 0.57009,-0.21449 0.6731,-0.535869 0.0332,-0.118181 0.12736,-0.331965 -0.0265,-0.548923 -0.0889,-0.127352 -0.44768,-0.342548 -0.44768,-0.342548 0,0 0.27552,-0.382059 0.30163,-0.428977 0.0265,-0.04622 0.1277,-0.342548 0.13899,-0.41416 0.0109,-0.07197 0.0166,-0.107598 -0.0363,-0.04127 m -0.0945,1.622777 c -0.15205,0.125941 -0.47272,0.2921 -0.56268,0.300566 -0.09,0.0088 -0.32879,-0.03528 -0.22472,-0.28081 0.0353,-0.07902 0.27411,-0.48895 0.27411,-0.48895 0.0892,0.04939 0.66604,0.343604 0.51329,0.469194 m 6.21524,0.561975 c -0.0307,0.08643 -0.0427,0.143226 -0.0395,0.175683 0.003,0.03281 0.0145,0.139348 0.0145,0.139348 -0.0321,0.02611 -0.16827,0.111125 -0.3048,0.01058 0.009,-0.02928 0.0268,-0.08855 0.0307,-0.121708 0.0148,-0.0501 -0.0162,-0.0882 -0.0409,-0.03563 -0.0247,0.05256 -0.0829,0.228248 -0.12594,0.267758 -0.0427,0.03916 -0.0935,0.184856 -0.4184,0.03704 -0.0568,-0.02188 -0.15663,-0.09631 -0.31185,0.06068 -0.35172,0.327732 -0.59443,0.353132 -0.98884,0.493538 -0.0476,0.02188 -0.14781,0.09772 -0.0289,0.08573 0.11854,-0.01199 0.61842,0 0.89042,-0.312914 0.0571,-0.05539 0.12206,-0.201436 0.33831,-0.116769 0.11959,0.04551 0.34078,0.235654 0.58208,-0.140406 0.14217,0.09525 0.35807,0.05715 0.39264,-0.04763 0.0342,-0.104424 0.0741,-0.208492 0.0734,-0.2794 -2.6e-4,-0.07162 -0.007,-0.1651 -0.007,-0.1651 -0.005,-0.05644 -0.0243,-0.136877 -0.0561,-0.0508 m -13.1311,0.361243 -0.19473,0.267407 c -0.006,0.0085 -0.004,0.02045 0.004,0.02611 l 0.33196,0.24271 c 0.008,0.006 0.0198,0.0039 0.0257,-0.0046 l 0.19473,-0.267407 c 0.006,-0.0088 0.005,-0.02045 -0.004,-0.02646 l -0.33196,-0.242358 c -0.008,-0.006 -0.0194,-0.0035 -0.0257,0.0046 m 2.74355,0.305155 c -0.0215,0.02999 -0.0374,0.05468 -0.0462,0.06668 -0.013,0.01834 -0.008,0.04798 0.0261,0.0088 0.0727,-0.0762 0.18909,-0.101952 0.20461,0.04833 2.6e-4,0.02857 -7.9e-4,0.158043 -0.18521,0.363712 -0.0363,0.03986 -0.0868,0.100541 -0.0868,0.100541 -0.0413,0.04445 -0.0307,0.0829 0.0226,0.02963 0.0536,-0.05327 0.25717,-0.228952 0.35101,-0.497417 0.0215,-0.06244 0.0314,-0.197202 -0.0586,-0.239183 -0.0469,-0.01976 -0.12206,-0.0113 -0.22754,0.118888 m -3.37961,0.06385 c -0.0579,0.02928 -1.33315,0.529873 -1.39348,0.563385 -0.0596,0.03352 -0.0808,0.04163 -0.0928,0.08573 -0.012,0.0441 -0.0183,0.06985 -0.0212,0.07655 -0.0124,0.02928 -0.0222,0.06562 0.0663,0.01516 0.0275,-0.01516 1.31375,-0.521052 1.36349,-0.549627 0.049,-0.02822 0.0783,-0.0381 0.10089,-0.08326 0.0222,-0.04445 0.0275,-0.05257 0.0399,-0.08432 0.013,-0.03316 0.0264,-0.06879 -0.0632,-0.02363"
       style="fill:#231f20;fill-opacity:1;fill-rule:evenodd;stroke:none;stroke-width:0.264583"
       id="path1" />
  </g>
</svg>
