<?xml version="1.0" encoding="UTF-8" standalone="no"?>
<!-- Created with Inkscape (http://www.inkscape.org/) -->

<svg
   width="18.884636mm"
   height="6.2831035mm"
   viewBox="0 0 18.884636 6.2831035"
   version="1.1"
   id="svg1"
   xmlns:inkscape="http://www.inkscape.org/namespaces/inkscape"
   xmlns:sodipodi="http://sodipodi.sourceforge.net/DTD/sodipodi-0.dtd"
   xmlns="http://www.w3.org/2000/svg"
   xmlns:svg="http://www.w3.org/2000/svg">
  <sodipodi:namedview
     id="namedview1"
     pagecolor="#ffffff"
     bordercolor="#666666"
     borderopacity="1.0"
     inkscape:showpageshadow="2"
     inkscape:pageopacity="0.0"
     inkscape:pagecheckerboard="0"
     inkscape:deskcolor="#d1d1d1"
     inkscape:document-units="mm" />
  <defs
     id="defs1" />
  <g
     inkscape:label="Layer 1"
     inkscape:groupmode="layer"
     id="layer1"
     transform="translate(-126.0597,-69.287542)">
    <path
       d="m 137.19919,69.456405 c -0.0702,0.10654 -0.12206,0.362657 -0.0219,0.435682 0.0998,0.07338 0.24624,0.132292 0.24624,0.132292 -0.46602,0.571145 -0.78493,0.680153 -1.05727,0.83961 -0.0702,0.04127 -0.0561,0.07796 -0.0148,0.06703 0.0212,-0.0056 0.3877,-0.06279 0.81562,-0.38735 0.23178,-0.176387 0.37148,-0.476954 0.37148,-0.476954 0,0 0.11641,0.09666 0.13158,0.116768 0.0356,0.04339 0.0547,0.07549 0.0713,0.02963 0.0607,-0.168627 -0.0254,-0.270934 -0.10759,-0.323498 0,0 0.0857,-0.263171 -0.0716,-0.52705 -0.0261,-0.0441 -0.18168,-0.185561 -0.36301,0.09384 m 0.24377,0.07303 c 0.10478,0.09737 0.0889,0.257527 0.085,0.294569 0,0 -0.13405,-0.06315 -0.19438,-0.08854 -0.0596,-0.02574 -0.0914,-0.06386 -0.0635,-0.101955 0.0924,-0.12982 0.13759,-0.125587 0.17286,-0.104069 m -1.73566,-0.205668 c -0.0166,0.03916 -0.13759,0.335843 -0.13759,0.335843 0.003,0.01765 0.0363,0.147109 0.0427,0.195792 0.0561,0.428273 0.4071,2.959807 0.50765,3.760258 0.0497,0.394052 0.0882,0.748242 0.0938,0.93839 -0.005,0.05891 0.0212,0.08078 0.048,0.02434 0.0145,-0.03034 0.0748,-0.155575 0.0935,-0.484013 0.0138,-0.246592 -0.006,-0.625475 -0.0762,-1.147233 -0.0106,-0.07585 -0.37571,-2.720269 -0.37571,-2.720269 0,0 0.1972,0.185208 0.22895,0.219075 0.0317,0.03316 0.0702,0.01553 0.0522,-0.03845 -0.018,-0.05397 -0.42227,-1.030465 -0.43532,-1.064331 -0.013,-0.03387 -0.0261,-0.05856 -0.042,-0.01939 m 8.0144,0.228245 c -0.0702,0.106892 -0.12206,0.362657 -0.0222,0.435682 0.10018,0.07338 0.24623,0.132643 0.24623,0.132643 -0.46566,0.570797 -1.38041,0.976842 -1.59843,1.146882 -0.0646,0.04868 -0.0557,0.07796 -0.0148,0.06667 0.0363,-0.0099 0.73308,-0.20461 1.37054,-0.75071 0.2921,-0.249767 0.28399,-0.268465 0.35807,-0.420513 0.0635,0.03246 0.10689,0.08537 0.13159,0.116416 0.0353,0.04339 0.0547,0.0755 0.0706,0.02999 0.0614,-0.169333 -0.0251,-0.271288 -0.10724,-0.323498 0,0 0.0857,-0.263525 -0.0713,-0.527756 -0.0265,-0.0441 -0.18239,-0.185209 -0.36301,0.09419 m 0.24342,0.07267 c 0.10513,0.09772 0.0889,0.257882 0.0847,0.294569 0,0 -0.13406,-0.06244 -0.19403,-0.08819 -0.0596,-0.02574 -0.0914,-0.06385 -0.0635,-0.101951 0.0924,-0.129824 0.13793,-0.12559 0.17286,-0.104424 m -1.78858,-0.165451 c -0.18274,0.232478 -0.19439,0.538691 -0.21908,0.879826 -0.0254,-0.07126 -0.1718,-0.529166 -0.63923,-0.790575 -0.0342,-0.01905 -0.10337,0.01693 -0.10972,0.124532 -0.004,0.06279 -0.0215,0.215193 0.0226,0.258585 0.0441,0.04304 0.17463,0.127707 0.1965,0.1397 0.0222,0.01199 0.0455,0.01376 0.0522,-0.01236 0.007,-0.02646 0.0363,-0.08714 0.0787,-0.04339 0.0356,0.03598 0.26599,0.226484 0.38558,0.630415 0.0212,0.05362 0.0706,0.05891 0.0819,-0.01728 0.0279,-0.186621 0.0427,-0.510823 0.0575,-0.6096 0.0212,-0.137938 0.0868,-0.423333 0.26211,-0.275521 0.0395,0.03387 0.0818,0.07832 0.0818,0.07832 0.0374,0.04692 0.084,0.10019 0.10654,0.04622 0.0346,-0.08149 0.0621,-0.216606 0.0243,-0.289983 -0.0166,-0.03246 -0.23354,-0.306917 -0.3817,-0.118885 m -8.19362,-0.0046 c -0.0917,0.05362 -2.77213,1.33985 -2.86703,1.401234 -0.0952,0.06138 -0.12876,0.07761 -0.14393,0.150989 -0.0152,0.07303 -0.0229,0.115711 -0.0272,0.127352 -0.0173,0.04904 -0.0293,0.109715 0.11077,0.01799 0.0434,-0.02822 2.74108,-1.323975 2.81975,-1.375833 0.078,-0.05186 0.12524,-0.07055 0.15699,-0.147109 0.0321,-0.07585 0.0402,-0.0896 0.0572,-0.142168 0.018,-0.0568 0.0363,-0.116065 -0.10654,-0.03246 m 6.39339,-0.006 c -0.0674,0.03916 -1.78788,1.031875 -1.85702,1.076677 -0.0699,0.0448 -0.0945,0.05644 -0.10584,0.110419 -0.0109,0.05397 -0.0166,0.08467 -0.0194,0.09349 -0.013,0.03563 -0.0219,0.08008 0.0808,0.01304 0.0321,-0.02045 1.76178,-1.020233 1.82245,-1.057981 0.0582,-0.03669 0.0917,-0.05186 0.11501,-0.10795 0.0233,-0.05538 0.0293,-0.06562 0.042,-0.10442 0.0134,-0.04127 0.0265,-0.08502 -0.078,-0.02328 m -5.74816,0.0095 c -0.0159,0.03916 -0.11183,0.303035 -0.11183,0.303035 0.007,0.04516 0.49283,3.57999 0.50835,3.68159 0.0155,0.1016 0.0402,0.215194 -0.0367,0.270579 -0.0769,0.05503 -0.54716,0.28575 -0.86078,0.101248 -0.0674,-0.05503 -0.34078,-0.288573 -0.25506,-0.72531 0.004,-0.07973 0.0155,-0.162983 -0.13476,-0.07056 -0.15099,0.09208 -0.52881,0.304094 -0.67345,0.353484 0,0 -0.17427,-0.340432 -0.381,-0.485775 -0.127,-0.08925 -0.34396,-0.162632 -0.55316,0.07691 -0.20919,0.239887 -0.30409,0.611362 -0.0769,0.832909 0.22754,0.221543 0.84843,0.0092 0.86995,0.0028 0.0212,-0.006 0.0892,0.07691 0.0307,0.166158 -0.0586,0.0889 -0.98672,1.168048 -1.83515,1.143 -0.20179,-0.0085 -0.8823,-0.256117 -0.64276,-1.142646 0.008,-0.03563 0.01,-0.06385 0.007,-0.08537 0.27588,-0.107598 0.49001,-0.242358 0.58562,-0.340783 0.0868,-0.09031 0.22789,-0.505883 0.11535,-0.877006 -0.0522,-0.134761 -0.24482,-0.519642 -0.29703,-0.365829 -0.0522,0.154162 -0.0603,0.338312 -0.0603,0.338312 0.0822,0.115713 0.34643,0.415221 0.20849,0.522113 -0.13723,0.107595 -0.73448,0.574675 -1.54728,0.500591 -0.13229,-0.01198 -0.64276,-0.08502 -0.91546,-0.618421 -0.036,-0.0702 -0.1651,-0.316087 -0.43991,-0.150987 -0.27482,0.164394 -0.56374,0.467783 -0.67063,0.763762 -0.0476,0.13194 -0.20603,0.651934 -0.25012,0.734132 -0.0441,0.08255 -0.21449,0.338314 -0.44803,0.195085 -0.0663,-0.0441 -0.38488,-0.263877 -0.44556,-0.816327 -0.0166,-0.142875 -0.007,-0.463198 -0.004,-0.551392 0.004,-0.10936 -0.0649,-0.09596 -0.0765,-0.0074 -0.0106,0.08396 -0.16087,1.284465 0.40534,1.7272 0.29951,0.186973 0.48895,-0.03316 0.52493,-0.09666 0.11254,-0.156282 0.44132,-1.049515 0.50024,-1.159934 0.16439,-0.308329 0.44238,-0.412398 0.59408,-0.426156 0.0564,-0.0049 0.12523,0.05151 0.14852,0.08855 0.11006,0.17286 0.40428,0.589137 0.78845,0.675921 0.40535,0.09172 0.83009,0.02294 1.17758,-0.09631 -0.006,0.01553 -0.0124,0.03175 -0.0177,0.05115 -0.0547,0.19332 -0.248,1.289402 0.47448,1.486958 0.19333,0.05045 1.04176,0.231421 2.14666,-1.0922 0.10089,-0.159808 0.14711,-0.281517 0.15945,-0.625829 0.042,-0.03245 0.45897,-0.258234 0.49883,-0.282221 0.0399,-0.02434 0.0487,-0.0314 0.0557,0.01516 0.007,0.04692 0.066,0.8763 0.77999,0.800806 0.0702,-0.0088 0.39793,-0.05539 0.58244,-0.232481 0.09,-0.08643 0.19297,-0.378532 0.17321,-0.683332 -0.0109,-0.129116 -0.37923,-2.82857 -0.37923,-2.82857 -0.0159,-0.10513 -0.0251,-0.166865 -0.0251,-0.166865 0,0 0.19685,0.185208 0.2286,0.218723 0.0317,0.03387 0.0702,0.01588 0.0519,-0.0381 -0.018,-0.05397 -0.42122,-1.030465 -0.43427,-1.064331 -0.0134,-0.03387 -0.0261,-0.05821 -0.0427,-0.01939 m -1.92123,3.995912 c 0,0 -0.17074,0.06985 -0.45755,0.02646 -0.11959,-0.01834 -0.0952,-0.131585 -0.0504,-0.173212 0.0367,-0.03422 0.27976,-0.204613 0.508,0.146754 m -1.09643,-3.904895 c -0.0656,0.04057 -2.53012,1.268235 -2.7185,1.420987 -0.0949,0.07655 -0.17357,0.197908 -0.20109,0.329848 -0.0395,0.1905 0.008,0.379235 0.13194,0.398991 0.0868,0.0141 0.13617,0.06421 0.1584,0.09349 0.009,0.0127 0.0233,0.0035 0.0275,-0.0049 0.0984,-0.194382 0.01,-0.316442 -0.1584,-0.364421 -0.0667,-0.01905 -0.0963,-0.111477 0.14993,-0.269875 0.22719,-0.14605 2.47191,-1.281642 2.52236,-1.316919 0.0681,-0.04762 0.10936,-0.06562 0.13582,-0.134056 0.0261,-0.06773 0.0332,-0.08008 0.0469,-0.127352 0.0148,-0.05009 0.0293,-0.103717 -0.0949,-0.02574 m -3.97263,0.244475 c -0.17427,0.221192 -0.18521,0.512585 -0.20814,0.837142 -0.0247,-0.06809 -0.16404,-0.503415 -0.60854,-0.752475 -0.0325,-0.01799 -0.0981,0.01659 -0.10407,0.118885 -0.004,0.05962 -0.0208,0.20461 0.0212,0.245533 0.042,0.04127 0.16616,0.12206 0.18697,0.13335 0.0212,0.01164 0.0434,0.01304 0.0497,-0.01199 0.006,-0.02469 0.0346,-0.08255 0.0748,-0.04127 0.0339,0.03457 0.25329,0.215546 0.36724,0.600075 0.0194,0.0508 0.0667,0.05574 0.0776,-0.01659 0.0261,-0.1778 0.0406,-0.486481 0.0547,-0.579967 0.0198,-0.131585 0.0825,-0.402518 0.24942,-0.26176 0.0377,0.03175 0.078,0.07408 0.078,0.07408 0.0353,0.0448 0.0797,0.0956 0.10125,0.04409 0.0328,-0.07761 0.0589,-0.20602 0.0233,-0.276225 -0.0162,-0.03069 -0.2226,-0.291745 -0.36336,-0.112887 m 1.07315,0.119943 c -0.0328,0.08184 -0.17251,0.362657 -0.15134,0.693915 0.005,0.07655 0.0557,0.225777 0.1711,0.229659 0.0596,-2.65e-4 0.13652,-0.04339 0.19155,-0.230717 0.009,-0.04269 0.0152,-0.0762 0.019,-0.09278 0.006,-0.0254 -0.0127,-0.05574 -0.0321,0.0024 -0.0437,0.114654 -0.15663,0.194733 -0.24165,0.04127 -0.0138,-0.03069 -0.0713,-0.170037 0.0339,-0.475192 0.0215,-0.05891 0.048,-0.147108 0.048,-0.147108 0.0236,-0.06668 -0.005,-0.103011 -0.0384,-0.02151 m 4.96111,0.6985 c -0.0462,0.09349 -0.0572,0.122767 -0.055,0.1651 0.002,0.04163 0.0152,0.179565 -2.6e-4,0.214135 -0.0159,0.03457 -0.21132,0.14464 -0.2847,0.05503 -0.0243,-0.03493 -0.003,-0.164746 -0.002,-0.228952 7.9e-4,-0.06385 -0.004,-0.136877 -0.0572,-0.05009 -0.0529,0.08643 -0.0462,0.117475 -0.0483,0.175329 -0.001,0.05821 0.0141,0.132292 -0.037,0.18274 -0.0512,0.0508 -0.27799,0.188031 -0.37113,0.0021 -0.0141,-0.03775 2.7e-4,-0.100541 0.01,-0.149577 0.009,-0.04939 -0.0335,-0.104071 -0.0614,-0.02893 -0.0275,0.0755 -0.0811,0.220488 -0.0557,0.325615 0.0254,0.105127 0.20355,0.340077 0.51752,-7.94e-4 0.072,0.04163 0.29704,0.137231 0.47167,-0.212371 0.0656,-0.167216 0.0504,-0.391231 0.0504,-0.391231 -0.007,-0.107598 -0.0303,-0.152048 -0.0762,-0.05821 m 7.03474,0.191206 c -0.0346,0.08431 -0.1785,0.37465 -0.15663,0.717196 0.005,0.07902 0.0575,0.233187 0.17674,0.237421 0.0617,-2.65e-4 0.14147,-0.04516 0.19791,-0.238832 0.01,-0.04374 0.0155,-0.07832 0.0198,-0.09596 0.006,-0.02611 -0.013,-0.05715 -0.0332,0.0028 -0.0452,0.118533 -0.16228,0.201435 -0.25012,0.04268 -0.0141,-0.03175 -0.0734,-0.175683 0.0356,-0.491066 0.0215,-0.06103 0.0494,-0.1524 0.0494,-0.1524 0.0243,-0.06879 -0.005,-0.106186 -0.0395,-0.02188 m 3.30729,0.173212 c -0.0317,0.07796 -0.1651,0.346781 -0.14534,0.663929 0.005,0.07338 0.054,0.2159 0.16404,0.219779 0.0568,-2.65e-4 0.13053,-0.04163 0.18344,-0.220837 0.008,-0.04057 0.0145,-0.07303 0.018,-0.0889 0.006,-0.02434 -0.0124,-0.05292 -0.031,0.0024 -0.0416,0.109715 -0.14993,0.186619 -0.23107,0.03951 -0.013,-0.02928 -0.0677,-0.162628 0.0328,-0.454377 0.0201,-0.0568 0.0459,-0.14111 0.0459,-0.14111 0.0226,-0.06385 -0.005,-0.09878 -0.0367,-0.02045 m -6.20642,0.0081 -0.16827,0.230716 -0.32279,-0.235656 c -0.008,-0.0056 -0.0198,-0.0032 -0.0261,0.0049 l -0.19508,0.267406 c -0.006,0.0085 -0.005,0.02011 0.004,0.02611 l 0.33267,0.242713 c 0.008,0.006 0.0198,0.0035 0.0261,-0.0049 l 0.16793,-0.230365 0.32314,0.235304 c 0.008,0.006 0.0194,0.0035 0.0257,-0.0049 l 0.19474,-0.267052 c 0.006,-0.0085 0.005,-0.02045 -0.003,-0.02612 l -0.33267,-0.243064 c -0.008,-0.0056 -0.0198,-0.0032 -0.0257,0.0049 m -11.56229,0.292807 c -0.0455,0.155927 -0.24272,0.695325 -0.17322,1.313743 0.0162,0.143227 0.11501,0.418042 0.30268,0.414867 0.097,-0.006 0.21802,-0.09419 0.28681,-0.450144 0.0113,-0.08008 0.0173,-0.144288 0.0219,-0.176038 0.007,-0.04762 -0.0268,-0.102658 -0.0522,0.0081 -0.0589,0.219075 -0.2346,0.37959 -0.38911,0.09948 -0.0254,-0.05609 -0.13335,-0.312209 0.005,-0.892882 0.0282,-0.112535 0.0624,-0.280458 0.0624,-0.280458 0.0314,-0.127 -0.0183,-0.192262 -0.0646,-0.03669 m 12.86545,0.12347 c -0.013,0.04516 -0.0455,0.239538 -0.0536,0.279755 -0.007,0.03986 -0.007,0.07973 0.0127,0.113945 0.0198,0.03457 0.0706,0.152755 0.1069,0.249063 0.0363,0.09631 0.41451,0.824087 0.44943,0.888645 0.0349,0.06421 0.042,0.112538 0.007,0.155224 -1.21285,1.279524 -3.55318,2.066218 -3.62797,2.109964 -0.0748,0.04374 -0.055,0.07726 0.0709,0.05539 0.18873,-0.03316 1.24001,-0.209198 1.53952,-0.353483 0.19791,-0.0949 0.88759,-0.433917 1.45239,-0.8763 -0.0159,0.1143 -0.0303,0.282223 -0.0222,0.4953 0.0377,1.029052 0.9585,0.857957 1.1998,0.805392 0.7239,-0.159102 1.60867,-1.159227 1.68381,-1.36031 0.0741,-0.198615 0.085,-0.37959 0.0684,-0.537634 0.1905,-0.103013 0.59972,-0.433213 0.59972,-0.433213 0.0169,0.438857 0.36618,0.570442 0.47378,0.589492 0.50341,0.07655 0.75565,-0.34431 0.86289,-0.480483 0.0917,0.240241 0.31221,0.287163 0.42581,0.309388 0.43426,0.08643 0.51893,-0.22084 0.54151,-0.29069 0.13617,-0.423685 -0.10936,-0.739423 -0.14076,-0.7747 -0.0318,-0.03493 -0.0476,-0.0011 -0.0589,0.03951 -0.0113,0.04057 -0.0462,0.193323 -0.0681,0.288925 0,0 0.0907,0.147815 0.12347,0.223308 0.0321,0.07514 -0.0159,0.116065 -0.10971,0.128059 -0.26423,0.0321 -0.47484,-0.119592 -0.54751,-0.189442 -0.073,-0.06985 0.006,-0.192968 0.0646,-0.340783 0.0469,-0.118179 -0.0402,-0.132292 -0.1069,-2.65e-4 -0.22401,0.588785 -0.53869,0.652285 -0.62159,0.674865 -0.74612,0.203552 -0.68157,-0.478721 -0.6791,-0.590198 0.003,-0.111832 -0.0794,-0.07056 -0.17109,0.0028 -0.31398,0.252235 -0.56656,0.400402 -0.70309,0.460727 -0.11677,-0.2286 -0.28681,-0.372534 -0.35877,-0.424392 -0.80716,-0.58914 -0.87383,0.599369 -0.84949,0.726723 0.12276,0.505177 0.94791,0.198967 1.07738,0.183444 0.12912,-0.01516 0.0868,0.155575 0.0145,0.257175 -0.17921,0.250473 -0.38558,0.429683 -0.57291,0.582435 -0.79974,0.652288 -1.20121,0.600781 -1.32468,0.5969 -0.78528,-0.02223 -0.71331,-0.868892 -0.66957,-1.049512 0.23636,-0.20038 0.43956,-0.41769 0.55739,-0.64135 0.048,-0.123121 0.13088,-0.401815 -0.0187,-0.751771 -0.0787,-0.154162 -0.32632,-0.586317 -0.32632,-0.586317 0,0 0.18239,0.0056 0.19932,0.0053 0.0177,-2.65e-4 0.0519,-0.01799 0.008,-0.06914 -0.0445,-0.05115 -0.42756,-0.433565 -0.45049,-0.464256 -0.0233,-0.03069 -0.0445,-0.05292 -0.0575,-0.0074 m 2.42218,1.752248 c 0,0 -0.10972,0.0635 -0.41734,0.04269 -0.25788,-0.01728 -0.23565,-0.117827 -0.20038,-0.155927 0.0385,-0.04163 0.35384,-0.240594 0.61772,0.113241 m -11.61909,-1.591733 c -0.0349,0.08502 -0.17992,0.377473 -0.15805,0.72249 0.005,0.07973 0.0582,0.23495 0.17816,0.239183 0.0624,-2.64e-4 0.14252,-0.04516 0.19932,-0.240596 0.01,-0.04409 0.0162,-0.07902 0.0201,-0.09631 0.006,-0.02646 -0.013,-0.0575 -0.0335,0.0024 -0.0452,0.119592 -0.16333,0.2032 -0.25153,0.04304 -0.0145,-0.0321 -0.0741,-0.177094 0.0353,-0.494594 0.0222,-0.06138 0.0497,-0.153458 0.0497,-0.153458 0.0247,-0.0695 -0.005,-0.107243 -0.0395,-0.02222 m 1.70109,0.102658 c -0.0998,0.109009 -0.13053,0.183799 -0.16051,0.230365 -0.0413,0.0642 0.0109,0.09278 0.0572,0.04304 0.0462,-0.05009 0.0783,-0.09983 0.21413,-0.09631 0.13547,0.0032 0.46038,-0.0092 0.33903,0.08008 -0.12136,0.08925 -0.20356,0.141111 -0.20356,0.141111 -0.0787,0.05645 -0.14781,0.162279 -0.009,0.103364 0.13935,-0.05856 0.32314,-0.151693 0.46426,-0.364066 0.0409,-0.06138 0.0892,-0.14464 -0.10196,-0.17286 -0.19085,-0.02858 -0.49953,-0.07338 -0.59972,0.03528 m 6.60153,0.06421 c -0.0533,0.06632 -0.58984,0.770112 -0.58984,0.770112 l -0.39018,-0.277987 c 0,0 0.15911,-0.04022 0.18698,-0.04798 0.0279,-0.0081 0.0437,-0.04374 -0.006,-0.06949 -0.0497,-0.02574 -0.52,-0.213432 -0.55598,-0.227896 -0.036,-0.01447 -0.0487,-0.03104 -0.0519,0.0071 -0.003,0.03845 -0.008,0.34784 -0.008,0.34784 0,0 -0.007,0.02151 0.0339,0.04515 0.0409,0.02328 0.0811,0.07338 0.11465,0.106539 0.0339,0.03387 0.47131,0.378884 0.49213,0.391232 0,0 -0.21837,0.384175 -0.24624,0.685445 -0.0279,0.300567 0.005,0.71614 0.41628,0.582084 0.11077,-0.0314 0.5722,-0.214842 0.67486,-0.535869 0.0335,-0.118533 0.12771,-0.332317 -0.0261,-0.548923 -0.0889,-0.127352 -0.44909,-0.3429 -0.44909,-0.3429 0,0 0.27622,-0.382058 0.30268,-0.428625 0.0261,-0.04657 0.12806,-0.342545 0.139,-0.414512 0.0116,-0.07161 0.0169,-0.107598 -0.0363,-0.04127 m -0.0945,1.623129 c -0.15276,0.125589 -0.47378,0.291748 -0.56374,0.300566 -0.0907,0.0085 -0.32985,-0.03528 -0.22578,-0.28081 0.0356,-0.07937 0.27481,-0.489302 0.27481,-0.489302 0.0896,0.04939 0.66781,0.343604 0.51471,0.469546 m -4.36951,-1.546225 -0.16827,0.230716 -0.3228,-0.235653 c -0.008,-0.006 -0.0194,-0.0039 -0.0257,0.0049 l -0.19509,0.267055 c -0.006,0.0085 -0.005,0.02045 0.004,0.02611 l 0.33267,0.242713 c 0.008,0.0056 0.0198,0.0039 0.0257,-0.0046 l 0.16827,-0.231069 0.32314,0.235657 c 0.008,0.0056 0.0194,0.0039 0.0258,-0.0046 l 0.19473,-0.267758 c 0.006,-0.0085 0.005,-0.01976 -0.003,-0.02574 l -0.33337,-0.24271 c -0.008,-0.006 -0.0194,-0.0039 -0.0257,0.0049 m -5.53896,0.01659 -0.16863,0.230717 -0.32279,-0.235657 c -0.008,-0.006 -0.0194,-0.0035 -0.0258,0.0049 l -0.19508,0.267406 c -0.006,0.0085 -0.005,0.02045 0.004,0.02612 l 0.33267,0.242712 c 0.008,0.006 0.0198,0.0039 0.0257,-0.0049 l 0.16828,-0.230717 0.32314,0.235657 c 0.008,0.006 0.0194,0.0039 0.0254,-0.0049 l 0.19544,-0.267407 c 0.006,-0.0085 0.004,-0.02011 -0.004,-0.02611 l -0.33267,-0.242713 c -0.008,-0.006 -0.0198,-0.0035 -0.0257,0.0049 m 2.85503,2.243315 -0.19509,0.267758 c -0.006,0.0085 -0.005,0.02011 0.003,0.02611 l 0.33266,0.242359 c 0.008,0.006 0.0198,0.0039 0.0258,-0.0046 l 0.19508,-0.267406 c 0.006,-0.0081 0.005,-0.02011 -0.003,-0.02574 l -0.33302,-0.243065 c -0.008,-0.0056 -0.0194,-0.0035 -0.0254,0.0046 m 13.28384,-0.152048 c -0.031,0.08643 -0.0427,0.143227 -0.0399,0.176036 0.004,0.03281 0.0148,0.139348 0.0148,0.139348 -0.0321,0.02574 -0.16863,0.110773 -0.30551,0.01024 0.009,-0.02928 0.0268,-0.08855 0.031,-0.121356 0.0145,-0.05045 -0.0166,-0.08819 -0.0413,-0.03598 -0.0251,0.05292 -0.0829,0.228248 -0.1263,0.267759 -0.0427,0.03916 -0.0935,0.184856 -0.41945,0.03704 -0.0568,-0.02188 -0.15698,-0.0956 -0.31256,0.06068 -0.35278,0.327732 -0.59619,0.353484 -0.9913,0.49389 -0.048,0.02188 -0.14852,0.09701 -0.0293,0.08537 0.11923,-0.01199 0.62053,2.65e-4 0.89323,-0.313267 0.0568,-0.05503 0.12241,-0.201083 0.33902,-0.116064 0.11959,0.04551 0.34149,0.235656 0.58349,-0.140407 0.14217,0.0949 0.35843,0.05715 0.393,-0.04762 0.0349,-0.104775 0.0744,-0.208843 0.0741,-0.279752 -7.9e-4,-0.07161 -0.007,-0.1651 -0.007,-0.1651 -0.005,-0.05644 -0.0247,-0.136525 -0.0565,-0.0508 m -8.97784,0.574323 c -0.0226,0.03281 -0.0395,0.05962 -0.0487,0.07197 -0.0138,0.01976 -0.008,0.05186 0.0286,0.0092 0.0765,-0.08219 0.20073,-0.111125 0.21943,0.04904 0.001,0.03069 0.001,0.169333 -0.19438,0.391229 -0.0385,0.04269 -0.0917,0.108656 -0.0917,0.108656 -0.0434,0.04833 -0.0321,0.0889 0.0247,0.03104 0.0568,-0.0575 0.27305,-0.247296 0.37042,-0.535869 0.0222,-0.06703 0.0311,-0.21096 -0.0656,-0.254706 -0.0504,-0.02045 -0.13088,-0.01058 -0.24271,0.129471 m -6.08577,-0.0628 c -0.0677,0.03881 -1.75083,0.850548 -1.82068,0.89535 -0.0702,0.04445 -0.0945,0.05574 -0.10619,0.109363 -0.0116,0.05362 -0.0177,0.08467 -0.0204,0.09348 -0.0127,0.03563 -0.0219,0.08043 0.0811,0.01376 0.0321,-0.02082 1.72825,-0.839258 1.78576,-0.876652 0.0575,-0.0374 0.0921,-0.05151 0.11571,-0.106891 0.0236,-0.05574 0.0296,-0.06562 0.0423,-0.104423 0.0134,-0.04092 0.0272,-0.08502 -0.0776,-0.024 m 4.20053,0.274463 c -0.018,0.03563 -0.0307,0.06456 -0.0381,0.07832 -0.0109,0.02151 -8e-4,0.05221 0.0293,0.0049 0.0645,-0.09243 0.18344,-0.138287 0.22436,0.01728 0.005,0.03034 0.0254,0.167217 -0.13617,0.414867 -0.0318,0.04798 -0.0755,0.12065 -0.0755,0.12065 -0.0356,0.05397 -0.0187,0.09243 0.0293,0.02752 0.048,-0.06491 0.2346,-0.283988 0.28963,-0.583848 0.0123,-0.06879 7.9e-4,-0.213077 -0.10125,-0.242359 -0.0529,-0.01304 -0.13123,0.0081 -0.22154,0.162632"
       style="fill:#231f20;fill-opacity:1;fill-rule:evenodd;stroke:none;stroke-width:0.264583"
       id="path1-0" />
  </g>
</svg>
