<?xml version="1.0" encoding="UTF-8" standalone="no"?>
<!-- Created with Inkscape (http://www.inkscape.org/) -->

<svg
   width="18.623878mm"
   height="6.7117453mm"
   viewBox="0 0 18.623878 6.7117453"
   version="1.1"
   id="svg1"
   xmlns="http://www.w3.org/2000/svg"
   xmlns:svg="http://www.w3.org/2000/svg">
  <defs
     id="defs1" />
  <g
     id="layer1"
     transform="translate(-169.57593,-33.651397)">
    <path
       d="m 174.38335,33.688194 c -0.0617,0.03845 -1.95086,0.836083 -2.1276,0.979665 -0.0893,0.07197 -0.16334,0.186266 -0.18874,0.30974 -0.0374,0.179562 0.007,0.356658 0.12382,0.375708 0.0815,0.0127 0.12806,0.06032 0.14852,0.08749 0.009,0.01164 0.0219,0.0035 0.0261,-0.0046 0.0924,-0.18274 0.009,-0.297744 -0.14887,-0.342548 -0.0628,-0.01799 -0.0907,-0.104775 0.14111,-0.253646 0.21343,-0.137231 1.89547,-0.848431 1.94345,-0.881592 0.0635,-0.0448 0.10266,-0.06209 0.12735,-0.126296 0.0247,-0.0635 0.0311,-0.07514 0.0441,-0.119591 0.0138,-0.04692 0.0275,-0.09736 -0.0892,-0.02434 m 6.07307,0.638175 c -0.0702,0.10654 -0.12242,0.362656 -0.0222,0.435329 0.0998,0.07373 0.24624,0.132644 0.24624,0.132644 -0.46602,0.571148 -0.78458,0.680156 -1.05727,0.83961 -0.0698,0.04092 -0.0561,0.07796 -0.0152,0.06667 0.0215,-0.0053 0.38805,-0.06244 0.81597,-0.38735 0.23178,-0.176035 0.37183,-0.476602 0.37183,-0.476602 0,0 0.11571,0.09701 0.13159,0.116417 0.0349,0.04374 0.0543,0.07585 0.0705,0.02998 0.061,-0.168979 -0.025,-0.270933 -0.10724,-0.323495 0,0 0.0854,-0.263173 -0.0716,-0.527405 -0.0265,-0.04409 -0.18203,-0.185208 -0.36265,0.09419 m 0.24341,0.07267 c 0.10478,0.09737 0.0889,0.257881 0.0847,0.294569 0,0 -0.1337,-0.06279 -0.19403,-0.08855 -0.06,-0.0254 -0.0914,-0.06385 -0.0639,-0.1016 0.0928,-0.129823 0.13794,-0.12559 0.17321,-0.104423 m -1.73566,-0.205317 c -0.0162,0.03881 -0.13688,0.336198 -0.13688,0.336198 0.002,0.01728 0.0356,0.146754 0.0423,0.195438 0.0557,0.428273 0.40711,2.959454 0.50765,3.759906 0.0494,0.394052 0.0878,0.748594 0.0935,0.938742 -0.005,0.05891 0.0208,0.08078 0.048,0.024 0.0145,-0.03034 0.0748,-0.155223 0.0935,-0.484013 0.0138,-0.246237 -0.006,-0.62512 -0.0762,-1.147233 -0.0106,-0.07585 -0.37571,-2.719916 -0.37571,-2.719916 0,0 0.19756,0.185208 0.22895,0.218371 0.0317,0.03387 0.0702,0.01587 0.0522,-0.0381 -0.0183,-0.05362 -0.42193,-1.030113 -0.43498,-1.064332 -0.013,-0.03351 -0.0261,-0.05821 -0.0423,-0.01905 m -0.93381,0 c -0.0162,0.03916 -0.14569,0.324909 -0.14569,0.324909 0.003,0.02294 0.0339,0.09313 0.055,0.237418 0.0219,0.14958 0.59725,3.461105 0.61877,3.569055 0.0215,0.107595 0.0515,0.262466 -0.007,0.317145 -0.0589,0.05433 -0.3944,0.293158 -0.71966,0.156988 -0.0462,-0.01622 -0.19086,-0.09631 -0.24942,-0.339725 -0.0148,-0.08396 -0.002,-0.218017 0.006,-0.272698 0.008,-0.05433 0.005,-0.08149 -0.0522,-0.04621 -0.0568,0.03598 -1.25977,0.903465 -2.15442,0.923221 -0.16369,0.0039 -1.18039,0.117827 -1.37371,-0.986721 -0.0335,-0.202142 -0.49565,-3.293533 -0.52917,-3.415241 -0.0339,-0.122061 -0.0504,-0.155927 -0.0797,-0.08855 -0.0296,0.06738 -0.13899,0.294217 -0.11783,0.441325 0.0212,0.147108 0.37395,2.489552 0.40217,2.713212 0.0279,0.224367 0.19579,1.013883 0.0836,1.120423 -0.11183,0.10654 -0.46778,0.376415 -0.86783,0.20179 -0.19756,-0.08643 -0.37077,-0.184505 -0.48155,-0.560213 -0.0681,-0.229304 -0.12558,-0.829733 -0.21872,-1.147937 -0.25364,-0.867129 -0.82232,-1.747308 -0.8509,-1.547638 -0.008,0.05397 -0.018,0.368655 -0.018,0.368655 0.0409,0.08784 0.66252,1.183568 0.78634,1.938866 0.008,0.0388 0.0205,0.134409 -0.0776,0.257879 -0.0977,0.123825 -0.88582,0.9271 -1.47108,1.115838 -0.12947,0.04198 -0.57326,0.242358 -0.76271,-0.15875 -0.025,-0.05327 -0.1905,-0.338315 0.17886,-1.323975 0.008,-0.02082 0.0141,-0.04551 0.018,-0.06915 0.0286,0.01516 0.0596,0.024 0.0938,0.02328 0.097,-0.0056 0.21767,-0.09348 0.28681,-0.449791 0.0109,-0.08008 0.0169,-0.144286 0.0215,-0.175684 0.007,-0.04798 -0.0268,-0.102658 -0.0519,0.0078 -0.0589,0.219427 -0.2346,0.379942 -0.38911,0.09948 -0.0257,-0.05609 -0.1337,-0.311857 0.005,-0.892882 0.0282,-0.112535 0.0624,-0.280106 0.0624,-0.280106 0.0314,-0.127 -0.0183,-0.192262 -0.0646,-0.03669 -0.0452,0.155575 -0.24271,0.695325 -0.17286,1.313743 0.0109,0.09525 0.0586,0.249415 0.14499,0.340077 -0.005,0.0095 -0.0109,0.01976 -0.0173,0.03175 -0.10089,0.197557 -0.77964,1.878542 0.10089,2.037292 0.17957,0.0321 0.92005,0.04198 1.87361,-0.999771 0.0614,-0.06562 0.27622,-0.292454 0.28857,-0.557741 0,0 0.043,0.821266 0.68333,1.069268 0.10266,0.03987 0.52105,0.179565 0.91863,-0.192968 0.0487,-0.04586 0.16475,-0.172863 0.16898,-0.456496 0,0 0.34961,0.83185 1.60373,0.647348 0.23425,-0.03457 0.86642,-0.143582 1.81857,-0.824442 0.0896,0.229658 0.20849,0.791985 0.9271,0.540456 0.13018,-0.04586 0.47872,-0.251883 0.47343,-0.722137 -0.009,-0.165452 -0.0956,-0.793044 -0.13194,-1.008592 -0.0363,-0.215546 -0.4184,-2.339975 -0.4184,-2.339975 0,0 0.17392,0.150283 0.20567,0.183798 0.0318,0.03352 0.0702,0.01588 0.0519,-0.03845 -0.018,-0.05398 -0.39828,-0.995188 -0.41169,-1.029406 -0.0127,-0.03352 -0.0257,-0.05821 -0.0423,-0.01905 m 8.94821,0.228248 c -0.0702,0.106537 -0.12242,0.363008 -0.0222,0.435679 0.0998,0.07338 0.24624,0.132646 0.24624,0.132646 -0.46567,0.570793 -1.38042,0.976841 -1.59808,1.146879 -0.0649,0.04868 -0.0561,0.07761 -0.0152,0.06667 0.0363,-0.0099 0.73343,-0.204611 1.37019,-0.750711 0.2921,-0.250118 0.28434,-0.268816 0.35842,-0.42051 0.0635,0.03245 0.1069,0.08537 0.13159,0.116062 0.0353,0.04375 0.0543,0.0762 0.0709,0.02999 0.061,-0.169333 -0.0254,-0.270933 -0.1076,-0.323146 0,0 0.0857,-0.263525 -0.0716,-0.527754 -0.0261,-0.0441 -0.18204,-0.185208 -0.36266,0.09419 m 0.24342,0.07267 c 0.10513,0.09772 0.0889,0.257882 0.085,0.294571 0,0 -0.13406,-0.0628 -0.19438,-0.08855 -0.0596,-0.02574 -0.091,-0.0635 -0.0635,-0.1016 0.0924,-0.130175 0.13794,-0.125235 0.17286,-0.104423 m -1.78823,-0.165452 c -0.18344,0.232834 -0.19509,0.538692 -0.21908,0.879827 -0.0261,-0.07161 -0.17215,-0.528812 -0.63958,-0.790927 -0.0342,-0.01905 -0.10301,0.01728 -0.10936,0.124884 -0.004,0.06279 -0.0219,0.215193 0.0222,0.258233 0.0441,0.04304 0.17463,0.12841 0.19685,0.140052 0.0219,0.01199 0.0455,0.01376 0.0519,-0.0127 0.007,-0.02574 0.0363,-0.08643 0.0787,-0.04304 0.0356,0.03598 0.26635,0.226483 0.38559,0.630412 0.0208,0.05327 0.0705,0.05891 0.0818,-0.01728 0.0279,-0.186619 0.043,-0.511175 0.0575,-0.609952 0.0212,-0.137938 0.0868,-0.422982 0.26212,-0.274815 0.0395,0.03352 0.0822,0.07796 0.0822,0.07796 0.037,0.04692 0.0836,0.100187 0.10619,0.04621 0.0346,-0.08149 0.0624,-0.21731 0.0243,-0.290335 -0.0166,-0.0321 -0.23318,-0.306917 -0.38135,-0.118534 m -1.80058,-0.01093 c -0.0674,0.03951 -1.78752,1.032227 -1.85737,1.077029 -0.0695,0.0448 -0.0942,0.05645 -0.10548,0.110421 -0.0113,0.05362 -0.0169,0.08502 -0.0198,0.09349 -0.0127,0.03598 -0.0215,0.08043 0.0811,0.01304 0.0321,-0.02045 1.76177,-1.020233 1.82245,-1.058333 0.0582,-0.03598 0.0917,-0.05186 0.11536,-0.107244 0.0233,-0.05609 0.0293,-0.06597 0.0416,-0.104775 0.013,-0.04127 0.0265,-0.08502 -0.078,-0.02363 m -6.98217,0.01871 c -0.0332,0.08643 -0.17498,0.386292 -0.13159,0.727782 0.0102,0.07902 0.0765,0.230364 0.20779,0.226835 0.0677,-0.0039 0.15275,-0.05362 0.2039,-0.251177 0.008,-0.04445 0.013,-0.07973 0.0162,-0.09737 0.005,-0.02646 -0.0177,-0.05644 -0.0363,0.0046 -0.0427,0.121709 -0.16651,0.212374 -0.272,0.05821 -0.0173,-0.03034 -0.0907,-0.17145 0.0109,-0.493535 0.0205,-0.06279 0.0459,-0.155575 0.0459,-0.155575 0.0229,-0.07091 -0.0116,-0.106186 -0.0448,-0.01976 m -1.30881,0.142171 c -0.14428,0.2159 -0.13405,0.484011 -0.13194,0.783871 -0.0275,-0.06068 -0.18626,-0.450496 -0.61277,-0.648052 -0.0307,-0.0141 -0.0885,0.02222 -0.0871,0.116417 0.001,0.05503 -0.004,0.189793 0.037,0.224718 0.0416,0.03457 0.16158,0.09984 0.18133,0.108657 0.0201,0.0092 0.0409,0.0092 0.0448,-0.01447 0.004,-0.02294 0.0257,-0.07796 0.066,-0.04304 0.0339,0.02893 0.24765,0.179916 0.37995,0.525285 0.0215,0.04551 0.0653,0.04657 0.0702,-0.02082 0.0113,-0.1651 0.003,-0.449791 0.009,-0.536575 0.009,-0.122412 0.0473,-0.37606 0.21061,-0.258585 0.037,0.02681 0.0769,0.06279 0.0769,0.06279 0.0356,0.0381 0.0801,0.08185 0.0963,0.03316 0.0243,-0.07338 0.0395,-0.193675 0.002,-0.255413 -0.0169,-0.02681 -0.22507,-0.252236 -0.34184,-0.07796 m -4.44888,0 c -0.14429,0.2159 -0.1337,0.48401 -0.13194,0.78387 -0.0275,-0.06068 -0.18627,-0.450495 -0.61242,-0.648052 -0.031,-0.0141 -0.0889,0.02222 -0.0875,0.116417 7.9e-4,0.05503 -0.004,0.189793 0.037,0.224718 0.0416,0.03457 0.16157,0.09984 0.18168,0.108657 0.0198,0.0092 0.0406,0.0092 0.0448,-0.01447 0.004,-0.02294 0.0257,-0.07796 0.0656,-0.04304 0.0335,0.02893 0.24765,0.179917 0.37959,0.525285 0.0219,0.04551 0.0656,0.04657 0.0702,-0.02082 0.012,-0.1651 0.003,-0.449791 0.009,-0.536575 0.009,-0.122412 0.0476,-0.37606 0.21061,-0.258585 0.037,0.02681 0.0769,0.06279 0.0769,0.06279 0.0356,0.0381 0.0801,0.08185 0.0963,0.03316 0.0247,-0.07338 0.0399,-0.193675 0.002,-0.255413 -0.0169,-0.02681 -0.22507,-0.252235 -0.34184,-0.07796 m 6.69149,1.180393 c -0.0829,0.03669 -3.00038,1.389592 -3.0854,1.429102 -0.085,0.03881 -0.11042,0.05645 -0.12665,0.115713 -0.0166,0.05962 -0.025,0.09137 -0.0293,0.103717 -0.0145,0.04022 -0.0342,0.08114 0.09,0.02045 0.0385,-0.01834 2.9778,-1.3716 3.04518,-1.410052 0.067,-0.0381 0.10689,-0.05115 0.13758,-0.112538 0.03,-0.06068 0.0374,-0.07126 0.054,-0.113945 0.0183,-0.04551 0.0395,-0.08714 -0.0854,-0.03246 m -0.03,1.150057 c -0.0307,0.07479 -0.15875,0.332668 -0.139,0.63641 0.005,0.0702 0.0512,0.207081 0.15699,0.210608 0.0543,-2.64e-4 0.12524,-0.03951 0.17533,-0.211315 0.009,-0.03916 0.0141,-0.0702 0.018,-0.08573 0.005,-0.02294 -0.012,-0.05044 -0.0296,0.0024 -0.0402,0.105479 -0.14393,0.17921 -0.2219,0.0381 -0.0127,-0.02822 -0.0653,-0.156282 0.0314,-0.436034 0.019,-0.05398 0.0437,-0.135114 0.0437,-0.135114 0.0219,-0.06068 -0.004,-0.09419 -0.0349,-0.01939 m -1.7847,0.359478 c -0.0385,0.10019 -0.20215,0.445559 -0.1517,0.839259 0.0116,0.09137 0.0882,0.265641 0.23954,0.261763 0.078,-0.0046 0.17604,-0.06174 0.23495,-0.289632 0.01,-0.05115 0.0148,-0.09208 0.0191,-0.112183 0.006,-0.03069 -0.0205,-0.06526 -0.042,0.0053 -0.0494,0.140406 -0.19262,0.244475 -0.31397,0.06738 -0.0201,-0.03598 -0.10443,-0.197908 0.0127,-0.569383 0.0236,-0.07232 0.0529,-0.179213 0.0529,-0.179213 0.0261,-0.08149 -0.0134,-0.122767 -0.0515,-0.02328 m 8.19361,-1.496128 c -0.0346,0.08431 -0.17886,0.375002 -0.15698,0.717195 0.005,0.07937 0.0579,0.23354 0.17709,0.237421 0.0614,0 0.14111,-0.0448 0.19756,-0.238479 0.01,-0.04374 0.0162,-0.07867 0.0201,-0.09595 0.006,-0.02611 -0.0134,-0.05715 -0.0332,0.0028 -0.0452,0.118888 -0.16227,0.201438 -0.24976,0.04233 -0.0145,-0.03139 -0.0737,-0.175683 0.0349,-0.490712 0.0219,-0.06138 0.0497,-0.152048 0.0497,-0.152048 0.0243,-0.0695 -0.005,-0.106891 -0.0395,-0.02257 m -11.14495,0.34431 c -0.0328,0.08643 -0.17498,0.386292 -0.13159,0.728134 0.0102,0.07902 0.0766,0.23001 0.20779,0.226835 0.0677,-0.0039 0.15275,-0.05398 0.2039,-0.251177 0.008,-0.04445 0.013,-0.08008 0.0166,-0.09772 0.005,-0.02646 -0.018,-0.05645 -0.0367,0.0049 -0.0427,0.121709 -0.16651,0.212021 -0.27199,0.05786 -0.0177,-0.03069 -0.0907,-0.171098 0.0109,-0.493536 0.0204,-0.06244 0.0459,-0.155575 0.0459,-0.155575 0.0226,-0.07056 -0.0113,-0.106187 -0.0448,-0.01976 m 14.45224,-0.171098 c -0.0321,0.07832 -0.16545,0.347133 -0.14499,0.664281 0.005,0.07303 0.0533,0.2159 0.16369,0.219782 0.0572,-2.65e-4 0.13053,-0.04163 0.18309,-0.22084 0.009,-0.04057 0.0145,-0.07303 0.0183,-0.0889 0.006,-0.02434 -0.012,-0.05292 -0.0307,0.0024 -0.0416,0.109715 -0.15029,0.186267 -0.23107,0.03916 -0.0134,-0.02928 -0.0681,-0.162629 0.0325,-0.454377 0.0201,-0.0568 0.0459,-0.140759 0.0459,-0.140759 0.0226,-0.06385 -0.005,-0.09878 -0.0367,-0.02082 m -6.20641,0.0085 -0.16863,0.230717 -0.3228,-0.235654 c -0.008,-0.006 -0.0198,-0.0039 -0.0257,0.0049 l -0.19509,0.267758 c -0.006,0.0081 -0.005,0.01976 0.004,0.02574 l 0.33267,0.242359 c 0.008,0.006 0.0198,0.0039 0.0258,-0.0046 l 0.16827,-0.231068 0.32279,0.235656 c 0.008,0.006 0.0198,0.0039 0.0261,-0.0046 l 0.19509,-0.267404 c 0.006,-0.0085 0.005,-0.02045 -0.004,-0.02574 l -0.33286,-0.242914 c -0.008,-0.006 -0.0198,-0.0039 -0.0258,0.0049 m -10.00654,1.122892 c -0.0339,0.09984 -0.17991,0.444148 -0.13264,0.837848 0.0113,0.09137 0.0815,0.265993 0.21837,0.262818 0.0705,-0.0039 0.1591,-0.06032 0.21096,-0.288218 0.008,-0.0508 0.0134,-0.09172 0.0166,-0.111832 0.005,-0.03069 -0.019,-0.06562 -0.0381,0.0049 -0.0437,0.140052 -0.17251,0.243417 -0.28328,0.06562 -0.0187,-0.03563 -0.0956,-0.198261 0.008,-0.569032 0.0212,-0.07197 0.0466,-0.178858 0.0466,-0.178858 0.0236,-0.08149 -0.012,-0.122767 -0.0466,-0.02328 m 11.3097,-0.706966 c -0.013,0.04516 -0.0455,0.23989 -0.0536,0.279754 -0.008,0.04022 -0.007,0.08008 0.0127,0.1143 0.0198,0.03387 0.0705,0.1524 0.10689,0.249061 0.0367,0.09631 0.41451,0.824089 0.44944,0.888293 0.0346,0.06456 0.042,0.11289 0.007,0.155575 -1.21285,1.279525 -3.55282,2.066573 -3.62796,2.109965 -0.0744,0.04339 -0.0547,0.07726 0.0713,0.05503 0.18838,-0.03281 1.2393,-0.208843 1.53916,-0.353483 0.19756,-0.0949 0.88795,-0.433565 1.45239,-0.8763 -0.0159,0.113948 -0.0303,0.282223 -0.0222,0.4953 0.0381,1.029052 0.95814,0.85866 1.20015,0.805743 0.72319,-0.159101 1.60831,-1.159578 1.68345,-1.36031 0.0741,-0.19826 0.0854,-0.37959 0.0681,-0.537633 0.19085,-0.103365 0.60007,-0.43321 0.60007,-0.43321 0.0169,0.438502 0.36619,0.570441 0.47343,0.589491 0.50377,0.07655 0.756,-0.344313 0.86325,-0.480838 0.0917,0.240242 0.31221,0.287163 0.42545,0.30974 0.43462,0.08643 0.51929,-0.22084 0.54187,-0.291041 0.13617,-0.423686 -0.10937,-0.739424 -0.14112,-0.774349 -0.0314,-0.03493 -0.0473,-0.0013 -0.0586,0.03916 -0.0109,0.04057 -0.0462,0.193323 -0.0681,0.288925 0,0 0.0907,0.147815 0.12312,0.223663 0.0324,0.07514 -0.0159,0.116416 -0.10901,0.127703 -0.26459,0.03246 -0.47555,-0.119237 -0.54822,-0.188735 -0.0727,-0.0702 0.006,-0.193675 0.0649,-0.34149 0.0466,-0.117826 -0.0402,-0.132291 -0.10689,-2.64e-4 -0.22401,0.58914 -0.53869,0.65264 -0.62159,0.674865 -0.74613,0.203552 -0.68192,-0.478367 -0.6791,-0.590198 0.002,-0.111477 -0.079,-0.07056 -0.1711,0.0035 -0.31362,0.251883 -0.56691,0.40005 -0.70273,0.460375 -0.11677,-0.228952 -0.28716,-0.372534 -0.35878,-0.424392 -0.8075,-0.589137 -0.87418,0.599371 -0.84984,0.726371 0.12312,0.505177 0.94756,0.199319 1.07739,0.183796 0.12911,-0.01516 0.0868,0.155575 0.0145,0.256823 -0.17921,0.250473 -0.38594,0.430035 -0.57291,0.582789 -0.79975,0.652286 -1.20121,0.601134 -1.32433,0.5969 -0.78564,-0.02222 -0.71332,-0.868891 -0.66992,-1.049866 0.23636,-0.199673 0.43956,-0.417338 0.55703,-0.64135 0.0483,-0.122767 0.13123,-0.401815 -0.0183,-0.751771 -0.0787,-0.153811 -0.32633,-0.585963 -0.32633,-0.585963 0,0 0.18239,0.0056 0.19968,0.0053 0.0173,-2.65e-4 0.0519,-0.01834 0.007,-0.0695 -0.0445,-0.05115 -0.42757,-0.43321 -0.45085,-0.464256 -0.0229,-0.03069 -0.0441,-0.05256 -0.0572,-0.0074 m 2.42217,1.7526 c 0,0 -0.11007,0.06315 -0.41734,0.04233 -0.25788,-0.01693 -0.23565,-0.117827 -0.20038,-0.155575 0.0385,-0.04163 0.35419,-0.240594 0.61772,0.113241 m -3.31652,-1.424966 c -0.0533,0.06632 -0.58949,0.770115 -0.58949,0.770115 L 180.4937,37.08985 c 0,0 0.15875,-0.03986 0.18662,-0.04763 0.0279,-0.0081 0.0437,-0.0441 -0.006,-0.06985 -0.0501,-0.02574 -0.52,-0.213432 -0.55598,-0.227542 -0.0356,-0.01482 -0.0487,-0.03105 -0.0519,0.0074 -0.003,0.03775 -0.008,0.347485 -0.008,0.347485 0,0 -0.007,0.02188 0.0339,0.04516 0.0409,0.02294 0.0815,0.07302 0.11466,0.106537 0.0339,0.03352 0.47131,0.378884 0.49247,0.391232 0,0 -0.21872,0.384175 -0.24659,0.685093 -0.0279,0.300921 0.005,0.71614 0.41663,0.582084 0.11077,-0.0314 0.5715,-0.214842 0.67451,-0.535869 0.0335,-0.118533 0.12806,-0.331965 -0.0261,-0.548923 -0.0892,-0.127352 -0.44909,-0.342545 -0.44909,-0.342545 0,0 0.27623,-0.382059 0.30269,-0.428625 0.0265,-0.04692 0.1277,-0.3429 0.13935,-0.414515 0.0109,-0.07161 0.0166,-0.107244 -0.0367,-0.04127 m -0.0945,1.623131 c -0.15275,0.125587 -0.47378,0.291746 -0.56409,0.300212 -0.09,0.0088 -0.3295,-0.03528 -0.22542,-0.28081 0.0356,-0.07902 0.27481,-0.488598 0.27481,-0.488598 0.0896,0.04904 0.66745,0.3429 0.5147,0.469196 m 6.23076,0.561621 c -0.031,0.08643 -0.043,0.143229 -0.0402,0.176037 0.004,0.03281 0.0148,0.139346 0.0148,0.139346 -0.0321,0.02574 -0.16862,0.111125 -0.3055,0.0099 0.009,-0.02893 0.0268,-0.08855 0.031,-0.121005 0.0148,-0.05044 -0.0166,-0.08819 -0.0413,-0.03598 -0.0251,0.05256 -0.0833,0.2286 -0.12594,0.267758 -0.0434,0.03916 -0.0938,0.184505 -0.41981,0.03669 -0.0568,-0.02151 -0.15699,-0.0956 -0.31256,0.06103 -0.35243,0.327728 -0.5962,0.353128 -0.99131,0.493887 -0.048,0.02188 -0.14816,0.09737 -0.0289,0.08537 0.11923,-0.01199 0.62018,2.64e-4 0.89287,-0.312915 0.0572,-0.05539 0.12242,-0.201435 0.33867,-0.116769 0.1203,0.04551 0.34184,0.235657 0.5835,-0.140051 0.14252,0.0949 0.35912,0.05715 0.3937,-0.04762 0.0346,-0.104775 0.0741,-0.208847 0.0734,-0.279755 -2.6e-4,-0.07126 -0.006,-0.1651 -0.006,-0.1651 -0.005,-0.05644 -0.0247,-0.136877 -0.0561,-0.0508 m -8.81168,0.46849 c -0.0279,0.02858 -0.0487,0.05221 -0.0596,0.06315 -0.0169,0.01728 -0.0166,0.04974 0.0261,0.01341 0.0889,-0.06914 0.21625,-0.07796 0.20919,0.08326 -0.004,0.03034 -0.025,0.166864 -0.25294,0.355952 -0.0448,0.03598 -0.1076,0.09243 -0.1076,0.09243 -0.0501,0.04092 -0.0455,0.08325 0.0198,0.03528 0.0649,-0.04833 0.30832,-0.20179 0.44944,-0.471665 0.0325,-0.06279 0.0639,-0.203552 -0.0247,-0.26176 -0.0469,-0.02822 -0.1277,-0.03104 -0.25964,0.08996 m -1.74978,0.155575 -0.19508,0.267407 c -0.006,0.0081 -0.005,0.02011 0.004,0.02574 l 0.33266,0.243065 c 0.008,0.0056 0.0198,0.0035 0.0258,-0.0049 l 0.19509,-0.267407 c 0.006,-0.0085 0.005,-0.02045 -0.003,-0.02611 l -0.33302,-0.242713 c -0.008,-0.0056 -0.0194,-0.0035 -0.0258,0.0049 m -2.92911,0.2794 c -0.0272,0.02858 -0.0483,0.05221 -0.0593,0.06385 -0.0166,0.01693 -0.0162,0.04904 0.0268,0.01304 0.0885,-0.06915 0.21554,-0.07796 0.20884,0.0829 -0.004,0.03069 -0.0254,0.167216 -0.25329,0.355951 -0.0444,0.03634 -0.1076,0.09278 -0.1076,0.09278 -0.0505,0.04092 -0.0455,0.0829 0.0198,0.03493 0.0649,-0.04798 0.30833,-0.20179 0.44944,-0.471665 0.0325,-0.06209 0.0639,-0.203552 -0.0247,-0.261408 -0.0469,-0.02858 -0.1277,-0.0314 -0.26,0.08961 m -1.70038,-0.03633 c -0.0699,0.03492 -1.03329,0.428625 -1.10561,0.469545 -0.0723,0.04022 -0.0977,0.0501 -0.11253,0.103013 -0.0145,0.05292 -0.0222,0.08361 -0.0254,0.09207 -0.0148,0.03528 -0.0268,0.07902 0.0797,0.01834 0.0335,-0.01871 1.01036,-0.418394 1.06963,-0.452967 0.0596,-0.03422 0.0952,-0.04586 0.12206,-0.100189 0.0265,-0.05398 0.0332,-0.0635 0.048,-0.101246 0.0159,-0.04057 0.0321,-0.08361 -0.0758,-0.02857"
       style="fill:#231f20;fill-opacity:1;fill-rule:evenodd;stroke:none;stroke-width:0.264583"
       id="path1" />
  </g>
</svg>
