<?xml version="1.0" encoding="UTF-8" standalone="no"?>
<!-- Created with Inkscape (http://www.inkscape.org/) -->

<svg
   width="19.285952mm"
   height="6.188035mm"
   viewBox="0 0 19.285952 6.188035"
   version="1.1"
   id="svg1"
   xmlns="http://www.w3.org/2000/svg"
   xmlns:svg="http://www.w3.org/2000/svg">
  <defs
     id="defs1" />
  <g
     id="layer1"
     transform="translate(-173.74602,-35.506392)">
    <path
       d="m 182.23554,35.541058 c -0.0723,0.03845 -3.66183,1.463323 -3.87174,1.610431 -0.10548,0.07408 -0.19755,0.196144 -0.23636,0.333727 -0.0564,0.198615 -0.0205,0.401463 0.10866,0.4318 0.0903,0.02117 0.13864,0.07832 0.15981,0.110773 0.009,0.01376 0.024,0.0056 0.0293,-0.0032 0.11818,-0.197908 0.0339,-0.333726 -0.139,-0.397226 -0.0691,-0.0254 -0.0931,-0.125238 0.17816,-0.273757 0.25011,-0.137231 3.60115,-1.481667 3.65689,-1.515181 0.0755,-0.0448 0.1203,-0.06103 0.15311,-0.131234 0.0328,-0.06985 0.0409,-0.0822 0.0589,-0.131233 0.0198,-0.05186 0.0388,-0.107244 -0.0977,-0.03493 m -3.4036,0.05856 c -0.0307,0.07444 -0.15804,0.332668 -0.13864,0.63641 0.005,0.0702 0.0508,0.207082 0.15593,0.210608 0.0547,0 0.12488,-0.03986 0.17497,-0.211666 0.008,-0.03881 0.0141,-0.06985 0.0177,-0.08502 0.006,-0.02328 -0.0116,-0.0508 -0.0293,0.0021 -0.0399,0.105479 -0.14323,0.17921 -0.22084,0.03775 -0.0127,-0.02787 -0.0649,-0.155927 0.031,-0.435327 0.019,-0.05433 0.0437,-0.135114 0.0437,-0.135114 0.0215,-0.06138 -0.004,-0.0949 -0.0346,-0.01976 m 6.48793,0.182034 c -0.0699,0.106185 -0.12171,0.362302 -0.0219,0.434975 0.0995,0.07373 0.24518,0.132643 0.24518,0.132643 -0.4639,0.5715 -0.7814,0.680157 -1.05269,0.83961 -0.0702,0.04092 -0.0561,0.07796 -0.0152,0.06703 0.0212,-0.0056 0.38594,-0.0628 0.81245,-0.387705 0.23072,-0.176035 0.37042,-0.47625 0.37042,-0.47625 0,0 0.11536,0.09666 0.13088,0.116065 0.0353,0.04374 0.0543,0.07585 0.0705,0.02998 0.0607,-0.168978 -0.0251,-0.270933 -0.10689,-0.323495 0,0 0.0854,-0.263173 -0.0713,-0.527405 -0.0265,-0.04409 -0.18168,-0.185208 -0.3616,0.09455 m 0.24272,0.07232 c 0.10442,0.09772 0.0885,0.257882 0.0843,0.294569 0,0 -0.13335,-0.06279 -0.19332,-0.08855 -0.0593,-0.02574 -0.091,-0.0635 -0.0635,-0.1016 0.0924,-0.130175 0.13758,-0.125589 0.17251,-0.104423 m -1.72897,-0.137935 c -0.0162,0.0388 -0.13652,0.335844 -0.13652,0.335844 0.002,0.01765 0.036,0.147108 0.042,0.195791 0.0561,0.428273 0.40569,2.959807 0.50588,3.759907 0.0494,0.394052 0.0875,0.748241 0.0931,0.938741 -0.004,0.05856 0.0212,0.08079 0.048,0.024 0.0145,-0.02999 0.0748,-0.15522 0.0931,-0.483658 0.0138,-0.246944 -0.006,-0.625827 -0.0762,-1.147234 -0.01,-0.0762 -0.37394,-2.720268 -0.37394,-2.720268 0,0 0.19685,0.185208 0.22789,0.218723 0.0318,0.03351 0.0702,0.01553 0.0522,-0.03845 -0.018,-0.05398 -0.42015,-1.030462 -0.43356,-1.063977 -0.0127,-0.03422 -0.0257,-0.05856 -0.042,-0.01939 m -1.131,0 c -0.0162,0.0388 -0.14535,0.324553 -0.14535,0.324553 0.004,0.02328 0.0339,0.09384 0.0547,0.237773 0.0219,0.149932 0.34079,2.496257 0.35137,2.6035 0.005,0.05045 0.0515,0.283634 -0.16616,0.262467 -0.061,-0.01058 -0.36618,-0.07373 -0.47096,-0.306565 0.0148,-0.03986 0.0173,-0.0635 0.0268,-0.102304 0.01,-0.03916 0.002,-0.115006 -0.0427,-0.04022 -0.0448,0.07479 -0.15275,0.386291 -0.28223,0.460375 -0.0434,0.01976 -0.36018,0.131585 -0.41698,-0.218371 0.0289,-0.08149 0.0459,-0.123471 0.0515,-0.148519 0.005,-0.02506 0.002,-0.104775 -0.0501,-0.03775 -0.0533,0.06703 -0.24694,0.433917 -0.58455,0.445206 -0.0949,-0.0028 -0.35172,0.05327 -0.58032,-0.43956 -0.0501,-0.09243 -0.14217,-0.209198 -0.35701,-0.09807 -0.19967,0.102658 -0.61101,0.476602 -0.56092,1.036108 -0.0219,0.0092 -0.0437,0.01799 -0.0667,0.02822 -0.13123,0.05009 -0.87031,0.240594 -1.00154,-0.232481 0.008,-0.05045 0.0169,-0.240948 -0.0533,-0.13194 -0.0695,0.109715 -0.18662,0.48754 -0.40146,0.534813 -0.21484,0.04798 -0.3429,-0.156633 -0.34043,-0.229306 0.003,-0.07303 0.0448,-0.193323 0.0561,-0.249415 0.0109,-0.05609 -0.006,-0.154162 -0.0699,-0.06456 -0.0642,0.08996 -0.47413,0.756356 -0.97084,0.347487 -0.0222,-0.03916 -0.1143,-0.249062 -0.14499,-0.307975 -0.0307,-0.05891 -0.0444,-0.04198 -0.0586,0.0028 -0.0137,0.0448 -0.067,0.291041 -0.067,0.291041 0.067,0.148521 0.26246,0.582438 0.23424,0.789871 -0.0166,0.112184 -0.7874,1.018117 -1.97485,0.795161 -0.16616,-0.0314 -0.91757,-0.179211 -0.74189,-1.100315 0.0279,-0.165452 0.1337,-0.403577 0.17851,-0.479071 0.0176,-0.02963 0.0198,-0.05962 0.0123,-0.07726 0.0804,-0.02999 0.17533,-0.126296 0.26917,-0.365479 0.0247,-0.07408 0.042,-0.133702 0.0515,-0.162984 0.0152,-0.04409 -0.007,-0.101952 -0.0505,-0.0019 -0.0942,0.197554 -0.28857,0.318204 -0.38488,0.0254 -0.0141,-0.0575 -0.0709,-0.319617 0.16263,-0.845256 0.0462,-0.101952 0.1083,-0.254707 0.1083,-0.254707 0.0519,-0.115004 0.0162,-0.186266 -0.0543,-0.04657 -0.0705,0.1397 -0.35207,0.61595 -0.39546,1.214966 -0.01,0.13829 0.0346,0.41628 0.21237,0.446971 0.007,2.65e-4 0.0145,7.94e-4 0.0219,7.94e-4 -0.007,0.0099 -0.0148,0.02222 -0.0229,0.0381 -0.0614,0.123121 -0.73836,1.345848 0.21202,1.887363 0.10302,0.05891 0.96767,0.37606 1.83057,-0.199321 0.0713,-0.04727 0.6103,-0.399696 0.65793,-0.739069 0.0332,-0.15381 0.0667,-0.40005 0.0667,-0.40005 0.0755,0.0056 0.37642,0.05856 0.68898,-0.257881 0.0755,0.151342 0.33761,0.546454 0.69744,0.140406 0.0642,-0.08431 0.15064,-0.199318 0.15064,-0.199318 0.0504,0.06738 0.30691,0.481893 1.1631,0.193675 0.0251,-0.0092 0.0631,-0.02752 0.11078,-0.04798 0.0191,0.04798 0.0413,0.09596 0.0677,0.145698 0.13688,0.240948 0.35172,0.428625 0.5468,0.453673 0.10337,0 0.42122,-0.0056 0.4184,-0.545748 -0.002,-0.118181 -0.0113,-0.409223 -0.34008,-0.518583 -0.0783,-0.02681 -0.28575,-0.04057 -0.59584,0.05539 -0.0212,-0.108654 -0.007,-0.232833 0.0769,-0.369004 0.036,-0.06985 0.37394,-0.389114 0.50764,-0.153812 0.13371,0.235304 0.47131,0.733779 1.02094,0.302331 0.0783,-0.06985 0.12841,-0.131585 0.12841,-0.131585 0.078,0.330552 0.46285,0.45085 0.75036,-0.02257 0.45755,0.437091 0.76694,0.162983 0.81456,0.05327 0.0476,-0.109008 0.15629,-0.302331 0.10584,-0.7112 -0.0219,-0.182033 -0.23425,-2.027415 -0.23425,-2.027415 0,0 0.17216,0.131585 0.20356,0.165452 0.0318,0.03316 0.0699,0.01553 0.0519,-0.03845 -0.018,-0.05433 -0.38064,-0.927452 -0.39334,-0.960966 -0.013,-0.03422 -0.0261,-0.05856 -0.0423,-0.01939 m -2.35268,4.317645 c 0.10054,0.0755 0.17321,0.212725 0.003,0.192971 -0.17004,-0.01939 -0.28187,-0.08114 -0.37359,-0.178858 -0.0215,-0.02294 -0.0561,-0.05609 -0.0938,-0.09913 0.14923,-0.02963 0.3168,-0.02434 0.46461,0.08502 m 11.46669,-4.156779 c -0.0699,0.106537 -0.12206,0.362654 -0.0219,0.435327 0.0995,0.07373 0.24518,0.132644 0.24518,0.132644 -0.4639,0.5715 -1.37513,0.977196 -1.59209,1.146881 -0.0642,0.04939 -0.0557,0.07832 -0.0148,0.06703 0.036,-0.0095 0.73025,-0.20461 1.36489,-0.750358 0.29104,-0.250471 0.28293,-0.268817 0.35666,-0.420862 0.0635,0.03245 0.10654,0.08537 0.13123,0.116416 0.0353,0.04339 0.0543,0.07549 0.0706,0.02963 0.0607,-0.168982 -0.0251,-0.270934 -0.10689,-0.323498 0,0 0.0854,-0.263174 -0.0709,-0.527402 -0.0268,-0.0441 -0.18203,-0.185209 -0.36195,0.09419 m 0.24271,0.07267 c 0.10478,0.09772 0.0885,0.257881 0.0843,0.294571 0,0 -0.13335,-0.0628 -0.19332,-0.0882 -0.0593,-0.02574 -0.091,-0.06385 -0.0635,-0.101952 0.0924,-0.130175 0.13759,-0.125235 0.17251,-0.104423 m -1.78153,-0.165452 c -0.18238,0.232833 -0.19367,0.538692 -0.21837,0.879827 -0.0257,-0.07161 -0.17145,-0.528812 -0.63676,-0.790927 -0.0339,-0.01905 -0.10266,0.01728 -0.10901,0.124883 -0.004,0.06279 -0.0219,0.215194 0.0222,0.258585 0.0437,0.04304 0.17427,0.127707 0.19579,0.1397 0.0222,0.01199 0.0452,0.01376 0.0519,-0.01236 0.007,-0.02611 0.0363,-0.08678 0.0787,-0.04339 0.0353,0.03634 0.26458,0.226835 0.38417,0.630412 0.0204,0.05362 0.0699,0.05892 0.0815,-0.01728 0.0272,-0.186619 0.0423,-0.511175 0.0571,-0.6096 0.0205,-0.13829 0.0864,-0.422982 0.26071,-0.275167 0.0399,0.03352 0.0818,0.07796 0.0818,0.07796 0.037,0.04657 0.0836,0.100187 0.10619,0.04657 0.0342,-0.08185 0.0617,-0.216958 0.0243,-0.290338 -0.0166,-0.03245 -0.23284,-0.306916 -0.3803,-0.118885 m -1.79352,-0.01093 c -0.067,0.03951 -1.78012,1.032227 -1.84961,1.077383 -0.0699,0.0448 -0.0942,0.05644 -0.10548,0.110067 -0.0109,0.05362 -0.0166,0.08502 -0.0198,0.09348 -0.0123,0.03563 -0.0212,0.08008 0.0808,0.01342 0.0321,-0.02117 1.75542,-1.02094 1.81539,-1.058334 0.0582,-0.03669 0.0917,-0.05186 0.11466,-0.10795 0.0233,-0.05574 0.0293,-0.06562 0.042,-0.104423 0.0134,-0.04092 0.0265,-0.08502 -0.078,-0.02363 m -13.02102,0.130527 c -0.17322,0.221543 -0.18451,0.512585 -0.20779,0.837141 -0.024,-0.06808 -0.16263,-0.50306 -0.60572,-0.752475 -0.0321,-0.01799 -0.0977,0.01622 -0.10372,0.118886 -0.004,0.05962 -0.0205,0.204612 0.0215,0.245887 0.0399,0.03916 0.33937,0.144992 0.17709,0.3175 -0.0727,0.07726 -0.43709,0.4572 -0.51541,0.549275 -0.0783,0.09172 -0.0857,0.108302 -0.002,0.06174 0.084,-0.04692 0.56938,-0.236009 0.64982,-0.719667 0.006,-0.0635 -0.006,-0.110773 -0.0212,-0.142875 0.007,0.0019 0.0138,0.006 0.0215,0.01376 0.0307,0.0314 0.21167,0.182034 0.32985,0.494242 0.0127,0.03316 0.0226,0.175331 0.006,0.209198 -0.0699,0.143579 -0.18979,0.418394 -0.18732,0.739775 7.9e-4,0.09172 0.0515,0.27305 0.18838,0.285396 0.0709,0.0035 0.16546,-0.04269 0.24271,-0.262819 0.0138,-0.04974 0.0233,-0.08996 0.0289,-0.109715 0.009,-0.02963 -0.0116,-0.06703 -0.0384,0.0011 -0.0593,0.134408 -0.19932,0.22225 -0.28998,0.03351 -0.0145,-0.03775 -0.0882,-0.214489 0.0716,-0.564798 0.10125,-0.221191 0.13159,-0.728485 0.1457,-0.822325 0.0198,-0.131585 0.0825,-0.402518 0.24835,-0.26176 0.0374,0.0321 0.0776,0.07444 0.0776,0.07444 0.0353,0.04445 0.0794,0.09525 0.1009,0.04375 0.0325,-0.07761 0.0589,-0.206375 0.0233,-0.275873 -0.0159,-0.03104 -0.22154,-0.2921 -0.36195,-0.113241 m 1.02094,0.02011 c -0.0448,0.09525 -0.22931,0.421569 -0.22578,0.818444 8e-4,0.09137 0.0515,0.27305 0.18803,0.285398 0.0713,0.0035 0.16581,-0.04304 0.24271,-0.262819 0.0141,-0.04974 0.0236,-0.08996 0.0293,-0.109715 0.008,-0.02963 -0.0116,-0.06703 -0.0384,0.0011 -0.0593,0.134056 -0.19932,0.22225 -0.29033,0.03316 -0.0141,-0.03739 -0.073,-0.207785 0.072,-0.564444 0.0293,-0.0695 0.0667,-0.17286 0.0667,-0.17286 0.0328,-0.07796 0.001,-0.123121 -0.0441,-0.02822 m 0.98742,0.07655 c -0.0554,0.146404 -0.28328,0.650523 -0.26211,1.25095 0.005,0.138642 0.0794,0.410281 0.26,0.420865 0.0931,0.0013 0.21555,-0.07444 0.30727,-0.411692 0.0166,-0.07655 0.0272,-0.137583 0.0339,-0.167569 0.01,-0.04551 -0.0183,-0.100541 -0.0508,0.0039 -0.0723,0.206023 -0.25223,0.347488 -0.37958,0.06668 -0.0205,-0.05539 -0.10549,-0.309737 0.0702,-0.857954 0.0353,-0.106188 0.0801,-0.264938 0.0801,-0.264938 0.0392,-0.119943 -0.004,-0.186618 -0.0589,-0.04022 m 4.07847,0.313267 c -0.0204,0.0635 -0.0356,0.112538 -0.008,0.184857 0.0272,0.07267 0.1016,0.237418 0.11359,0.260701 0.0124,0.02328 0.0155,0.0501 -0.0254,0.06738 -0.0406,0.01728 -0.22683,0.0575 -0.26141,-0.141817 -0.0346,-0.199318 -0.0374,-0.257527 -0.055,-0.291393 -0.0173,-0.03352 -0.0335,-0.0381 -0.0466,-0.0042 -0.0134,0.03387 -0.0215,0.103362 -0.0236,0.114652 -0.002,0.0113 -0.002,0.01939 0.005,0.03175 0.007,0.01199 0.0815,0.23495 0.0476,0.296334 -0.0335,0.06103 -0.20038,0.17145 -0.28787,0.05609 -0.042,-0.08078 -0.0162,-0.285043 -0.0162,-0.333023 0,-0.04798 -0.0152,-0.06456 -0.0356,-0.0254 -0.0204,0.03845 -0.0314,0.06421 -0.0307,0.09878 0.001,0.03492 0.006,0.18415 0.003,0.231068 -0.003,0.04692 0,0.199319 0.0896,0.242359 0.0893,0.04269 0.21978,0.0028 0.31856,-0.18415 0.0762,0.111476 0.19226,0.111476 0.25435,0.0889 0.0529,-0.01939 0.11219,-0.09913 0.12947,-0.20955 0.0169,-0.110419 -0.0116,-0.185915 -0.0459,-0.248357 -0.0459,-0.07655 -0.0765,-0.205317 -0.0765,-0.205317 -0.0162,-0.04586 -0.0286,-0.09278 -0.0487,-0.02963 m 7.26334,0.814213 c -0.0342,0.08431 -0.1778,0.375002 -0.15593,0.71755 0.005,0.07902 0.0575,0.233185 0.17603,0.237067 0.0614,0 0.14076,-0.04445 0.19721,-0.23848 0.01,-0.04339 0.0159,-0.07867 0.0198,-0.09595 0.006,-0.02611 -0.013,-0.05715 -0.0332,0.0028 -0.0448,0.118534 -0.16122,0.201438 -0.2487,0.04233 -0.0141,-0.0314 -0.0734,-0.175684 0.0353,-0.490712 0.0215,-0.06103 0.049,-0.1524 0.049,-0.1524 0.0243,-0.06879 -0.005,-0.10654 -0.0395,-0.02222 m -7.33884,0.105478 -0.19402,0.267407 c -0.006,0.0085 -0.005,0.02045 0.003,0.02611 l 0.33161,0.24271 c 0.008,0.0056 0.0194,0.0039 0.0254,-0.0046 l 0.19438,-0.267758 c 0.006,-0.0085 0.005,-0.02011 -0.003,-0.02574 l -0.33126,-0.24271 c -0.008,-0.006 -0.0198,-0.0039 -0.0261,0.0046 m 10.63343,0.06809 c -0.0314,0.07796 -0.16474,0.346779 -0.14464,0.663575 0.005,0.07338 0.0536,0.216252 0.16334,0.220133 0.0568,0 0.13017,-0.04163 0.18238,-0.22084 0.009,-0.04057 0.0148,-0.07303 0.018,-0.0889 0.006,-0.02434 -0.012,-0.05292 -0.03,0.0024 -0.042,0.109714 -0.14993,0.186621 -0.23072,0.03951 -0.013,-0.02928 -0.0677,-0.162631 0.0325,-0.454731 0.0201,-0.05644 0.0459,-0.140758 0.0459,-0.140758 0.0219,-0.06385 -0.005,-0.09878 -0.0367,-0.02045 m -6.18208,0.0081 -0.16792,0.230717 -0.32173,-0.235654 c -0.008,-0.0056 -0.019,-0.0032 -0.0254,0.0049 l -0.19438,0.267406 c -0.006,0.0085 -0.005,0.02011 0.004,0.02611 l 0.33126,0.24271 c 0.008,0.006 0.0198,0.0039 0.0257,-0.0049 l 0.16757,-0.230717 0.32173,0.235657 c 0.008,0.006 0.0198,0.0039 0.0257,-0.0049 l 0.19403,-0.267052 c 0.006,-0.0088 0.005,-0.02045 -0.003,-0.02646 l -0.33161,-0.24271 c -0.008,-0.0056 -0.0198,-0.0032 -0.0257,0.0049 m -6.47912,0.31609 c -0.10689,0.116769 -0.14005,0.19685 -0.1718,0.247298 -0.0441,0.06879 0.0113,0.09913 0.061,0.04586 0.0494,-0.05362 0.084,-0.107243 0.22895,-0.103364 0.14499,0.0035 0.49248,-0.0099 0.36266,0.08608 -0.12982,0.09595 -0.21767,0.151342 -0.21767,0.151342 -0.084,0.06068 -0.15839,0.17427 -0.01,0.111125 0.14887,-0.06315 0.34537,-0.162632 0.49636,-0.390525 0.0437,-0.06667 0.0952,-0.155223 -0.10901,-0.185915 -0.20391,-0.03069 -0.53446,-0.07867 -0.641,0.0381 m 7.77734,0.09983 c -0.013,0.04551 -0.0455,0.23989 -0.0536,0.280107 -0.007,0.03986 -0.007,0.07973 0.0127,0.113948 0.0198,0.03422 0.0702,0.152752 0.10654,0.24906 0.0363,0.09631 0.41275,0.82409 0.44767,0.888648 0.0346,0.0642 0.0416,0.112535 0.007,0.155221 -1.20827,1.279525 -3.53907,2.066221 -3.61351,2.109964 -0.0748,0.04339 -0.055,0.07726 0.0706,0.05503 0.18768,-0.03316 1.23472,-0.208844 1.53317,-0.353132 0.19721,-0.09525 0.88442,-0.433916 1.44674,-0.8763 -0.0155,0.1143 -0.03,0.281872 -0.0222,0.4953 0.0378,1.029055 0.95461,0.857957 1.19521,0.80504 0.72073,-0.15875 1.60232,-1.159227 1.6771,-1.359958 0.0741,-0.19826 0.085,-0.37959 0.0681,-0.537634 0.1898,-0.103364 0.59761,-0.43321 0.59761,-0.43321 0.0169,0.438854 0.36477,0.570794 0.47166,0.589492 0.5013,0.07655 0.75283,-0.344313 0.86007,-0.480838 0.091,0.240596 0.31045,0.287515 0.42334,0.30974 0.43286,0.08643 0.51717,-0.22084 0.53975,-0.291042 0.13546,-0.423333 -0.10866,-0.739068 -0.14006,-0.773993 -0.0318,-0.03528 -0.0476,-0.0013 -0.0586,0.0388 -0.0109,0.04092 -0.0462,0.193675 -0.0681,0.288925 0,0 0.0903,0.148167 0.12276,0.223309 0.0321,0.07585 -0.0159,0.116771 -0.109,0.128058 -0.26318,0.03246 -0.47308,-0.118885 -0.5454,-0.189087 -0.0727,-0.06985 0.006,-0.193323 0.0646,-0.340783 0.0466,-0.118182 -0.0402,-0.132292 -0.10689,-2.65e-4 -0.22261,0.588788 -0.53658,0.652288 -0.61877,0.674865 -0.74331,0.203552 -0.6791,-0.478719 -0.67663,-0.59055 0.002,-0.111832 -0.0787,-0.07056 -0.17004,0.0032 -0.31292,0.252235 -0.5648,0.400402 -0.70027,0.461081 -0.11676,-0.229306 -0.2861,-0.372888 -0.35771,-0.425098 -0.80398,-0.588433 -0.8703,0.599723 -0.84632,0.727075 0.12242,0.505177 0.94404,0.198967 1.07315,0.183444 0.12842,-0.01516 0.0868,0.155575 0.0141,0.257175 -0.17816,0.250121 -0.38383,0.429683 -0.57009,0.582083 -0.79693,0.65264 -1.19663,0.601488 -1.31975,0.597254 -0.78246,-0.02222 -0.71014,-0.868891 -0.66675,-1.049514 0.23531,-0.200025 0.43745,-0.41769 0.55492,-0.641702 0.048,-0.122767 0.13053,-0.401815 -0.0187,-0.751771 -0.0783,-0.153811 -0.32491,-0.585962 -0.32491,-0.585962 0,0 0.18168,0.0056 0.19896,0.0053 0.0173,-2.64e-4 0.0515,-0.01799 0.007,-0.0695 -0.0437,-0.05115 -0.4258,-0.43321 -0.44838,-0.463902 -0.0233,-0.03069 -0.0441,-0.05292 -0.0571,-0.0078 m 2.41265,1.7526 c 0,0 -0.10972,0.06315 -0.41593,0.04269 -0.25647,-0.01765 -0.23459,-0.11783 -0.19932,-0.15593 0.0381,-0.04163 0.35243,-0.240241 0.61525,0.113242 m -7.753,-1.587146 -0.16757,0.230363 -0.32173,-0.235302 c -0.008,-0.006 -0.0194,-0.0039 -0.0257,0.0049 l -0.19402,0.267052 c -0.006,0.0085 -0.005,0.02011 0.003,0.02611 l 0.33161,0.24271 c 0.008,0.006 0.0198,0.0039 0.0257,-0.0046 l 0.16757,-0.230717 0.32173,0.235302 c 0.008,0.006 0.0198,0.0039 0.0257,-0.0046 l 0.19403,-0.267407 c 0.006,-0.0088 0.005,-0.02045 -0.003,-0.02611 l -0.33162,-0.242711 c -0.008,-0.006 -0.0194,-0.0039 -0.0257,0.0049 m -4.93077,0.254352 c -0.14852,0.210257 -0.15699,0.486833 -0.17569,0.794808 -0.0212,-0.06456 -0.14252,-0.477308 -0.52599,-0.71261 -0.0279,-0.01693 -0.0843,0.01588 -0.0892,0.112535 -0.003,0.05715 -0.0169,0.194734 0.0194,0.233892 0.0363,0.03881 0.14323,0.115007 0.16158,0.12559 0.018,0.01093 0.037,0.01236 0.0427,-0.0113 0.005,-0.02363 0.0293,-0.07832 0.0639,-0.03951 0.0296,0.03281 0.21837,0.204258 0.31821,0.568325 0.0173,0.04833 0.0575,0.05327 0.0667,-0.01588 0.0219,-0.16863 0.0328,-0.461433 0.0448,-0.550333 0.0162,-0.124884 0.0691,-0.382059 0.21308,-0.249063 0.0325,0.03034 0.0674,0.0702 0.0674,0.0702 0.0303,0.04233 0.0688,0.09066 0.0871,0.04163 0.0279,-0.07373 0.0501,-0.196143 0.019,-0.262115 -0.0138,-0.02928 -0.19226,-0.276577 -0.31291,-0.106185 m -1.47708,0.907344 c -0.0519,0.102306 -0.26247,0.452966 -0.26565,0.884414 -2.6e-4,0.09948 0.0526,0.297744 0.20497,0.313619 0.0787,0.006 0.1845,-0.04268 0.27411,-0.280104 0.0169,-0.05433 0.0279,-0.09737 0.0349,-0.118533 0.01,-0.03211 -0.012,-0.07303 -0.043,2.64e-4 -0.0684,0.144286 -0.22577,0.237419 -0.32349,0.02999 -0.0152,-0.04127 -0.078,-0.227542 0.0896,-0.612069 0.0335,-0.07444 0.0769,-0.186267 0.0769,-0.186267 0.0377,-0.08396 0.004,-0.133701 -0.0483,-0.0314 m 10.85744,-0.999418 c -0.0536,0.06597 -0.58773,0.770115 -0.58773,0.770115 l -0.38841,-0.278342 c 0,0 0.1584,-0.03951 0.18591,-0.04763 0.0279,-0.0085 0.0437,-0.0441 -0.006,-0.06985 -0.0494,-0.0254 -0.51787,-0.21308 -0.55386,-0.227542 -0.0353,-0.01447 -0.0483,-0.03069 -0.0515,0.0071 -0.003,0.03845 -0.008,0.347839 -0.008,0.347839 0,0 -0.007,0.02151 0.0339,0.04516 0.0409,0.02328 0.0808,0.07303 0.1143,0.106892 0.0335,0.03351 0.46884,0.378528 0.49036,0.390876 0,0 -0.21802,0.384175 -0.24553,0.685094 -0.0279,0.300921 0.005,0.716492 0.41486,0.582438 0.11007,-0.0314 0.56939,-0.21449 0.67205,-0.535871 0.0332,-0.118534 0.12735,-0.332669 -0.0265,-0.549275 -0.0885,-0.127352 -0.44697,-0.342194 -0.44697,-0.342194 0,0 0.27516,-0.382058 0.30127,-0.428977 0.0265,-0.04657 0.12771,-0.3429 0.13864,-0.414515 0.0113,-0.07126 0.0169,-0.107598 -0.036,-0.04127 m -0.0942,1.623132 c -0.1524,0.125587 -0.47237,0.291745 -0.56198,0.300566 -0.09,0.0085 -0.32843,-0.03528 -0.22472,-0.280812 0.0356,-0.07937 0.27411,-0.489302 0.27411,-0.489302 0.0885,0.04939 0.66463,0.343606 0.51259,0.469548 m 6.20606,0.56162 c -0.031,0.08608 -0.043,0.142875 -0.0399,0.175684 0.004,0.03316 0.0148,0.1397 0.0148,0.1397 -0.0321,0.02574 -0.16792,0.111125 -0.30444,0.01024 0.009,-0.02893 0.0268,-0.08855 0.031,-0.121356 0.0145,-0.05045 -0.0166,-0.08819 -0.0409,-0.03598 -0.0254,0.05292 -0.0829,0.228248 -0.12594,0.267759 -0.0427,0.03916 -0.0935,0.184504 -0.41769,0.03704 -0.0572,-0.02188 -0.15663,-0.09595 -0.3115,0.06068 -0.35137,0.327729 -0.59373,0.353129 -0.98778,0.493535 -0.0473,0.02222 -0.14746,0.09737 -0.0289,0.08608 0.11889,-0.01236 0.61807,0 0.88935,-0.313267 0.0572,-0.05539 0.12206,-0.201083 0.33796,-0.116768 0.11924,0.04586 0.34044,0.236008 0.58103,-0.140052 0.14217,0.09489 0.35772,0.05679 0.39194,-0.04763 0.0346,-0.104775 0.0737,-0.208846 0.0737,-0.279755 -8e-4,-0.07126 -0.007,-0.1651 -0.007,-0.1651 -0.005,-0.05644 -0.0247,-0.136525 -0.0561,-0.0508 m -9.47314,0 c -0.0307,0.08608 -0.043,0.142875 -0.0399,0.175684 0.004,0.03316 0.0145,0.1397 0.0145,0.1397 -0.0318,0.02574 -0.16792,0.111125 -0.30409,0.01024 0.009,-0.02893 0.0268,-0.08855 0.0307,-0.121357 0.0148,-0.05044 -0.0162,-0.08819 -0.0409,-0.03598 -0.025,0.05292 -0.0825,0.228248 -0.12558,0.267758 -0.043,0.03916 -0.0931,0.184505 -0.41804,0.03704 -0.0568,-0.02188 -0.15629,-0.09595 -0.31115,0.06068 -0.35137,0.327728 -0.59373,0.353128 -0.98778,0.493535 -0.0476,0.02222 -0.14746,0.09737 -0.0289,0.08608 0.11888,-0.01236 0.61807,0 0.88971,-0.313267 0.0568,-0.05539 0.1217,-0.201083 0.3376,-0.116768 0.11924,0.04586 0.34043,0.236008 0.58103,-0.140052 0.14182,0.0949 0.35736,0.0568 0.39193,-0.04762 0.0342,-0.104775 0.0741,-0.208847 0.0737,-0.279755 -2.7e-4,-0.07126 -0.007,-0.1651 -0.007,-0.1651 -0.005,-0.05644 -0.0247,-0.136525 -0.0561,-0.0508 m -3.39831,0.318558 c -0.0307,0.07479 -0.15804,0.332672 -0.13864,0.636413 0.005,0.0702 0.0508,0.207079 0.15593,0.210961 0.0547,-2.65e-4 0.12524,-0.04022 0.17533,-0.212019 0.008,-0.03881 0.0138,-0.06985 0.0177,-0.08502 0.005,-0.02328 -0.012,-0.05115 -0.0296,0.0024 -0.0399,0.104775 -0.14322,0.178504 -0.22084,0.03739 -0.0123,-0.02822 -0.0653,-0.155927 0.0311,-0.435682 0.0194,-0.05433 0.0441,-0.135112 0.0441,-0.135112 0.0215,-0.06103 -0.004,-0.09455 -0.0349,-0.01939 m -0.58949,0.06138 c -0.0695,0.03563 -1.90112,0.79234 -1.97273,0.832909 -0.0723,0.04022 -0.0977,0.05045 -0.11219,0.103365 -0.0145,0.05256 -0.0219,0.08361 -0.0254,0.09208 -0.0148,0.03492 -0.0268,0.07867 0.0794,0.01834 0.0335,-0.01871 1.87854,-0.781754 1.9378,-0.816327 0.0593,-0.03387 0.0945,-0.04586 0.12136,-0.09984 0.0265,-0.05433 0.0332,-0.06385 0.048,-0.1016 0.0155,-0.04022 0.0317,-0.08326 -0.0762,-0.02893"
       style="fill:#231f20;fill-opacity:1;fill-rule:evenodd;stroke:none;stroke-width:0.264583"
       id="path1" />
  </g>
</svg>
