<?xml version="1.0" encoding="UTF-8" standalone="no"?>
<!-- Created with Inkscape (http://www.inkscape.org/) -->

<svg
   width="16.671768mm"
   height="7.6341715mm"
   viewBox="0 0 16.671768 7.6341715"
   version="1.1"
   id="svg1"
   xmlns="http://www.w3.org/2000/svg"
   xmlns:svg="http://www.w3.org/2000/svg">
  <defs
     id="defs1" />
  <g
     id="layer1"
     transform="translate(-155.73882,-30.665032)">
    <path
       d="m 161.57864,30.694242 c -0.0596,0.03175 -2.28423,0.964494 -2.4578,1.087615 -0.0875,0.06138 -0.16334,0.163335 -0.19473,0.277635 -0.0459,0.1651 -0.0155,0.333023 0.0921,0.357717 0.0744,0.01728 0.115,0.06421 0.13264,0.09102 0.007,0.0113 0.0201,0.0049 0.0243,-0.0028 0.0974,-0.164393 0.0268,-0.276928 -0.11713,-0.328435 -0.0572,-0.02117 -0.0776,-0.103716 0.14676,-0.228248 0.20673,-0.114652 2.23414,-0.97931 2.28036,-1.007533 0.0624,-0.03775 0.0995,-0.05115 0.12664,-0.109712 0.0268,-0.05786 0.0335,-0.06844 0.0483,-0.108657 0.0159,-0.04339 0.0317,-0.08925 -0.0815,-0.02858 m -0.3683,0.656519 c -0.0222,0.06915 -0.0388,0.122766 -0.009,0.201438 0.0296,0.07937 0.11077,0.258585 0.12418,0.284337 0.0134,0.0254 0.0166,0.05433 -0.0279,0.07338 -0.0441,0.01905 -0.2473,0.06244 -0.28505,-0.155223 -0.0377,-0.216958 -0.0409,-0.280106 -0.0596,-0.317148 -0.019,-0.03634 -0.0367,-0.04092 -0.0512,-0.0046 -0.0145,0.03704 -0.0233,0.11289 -0.0257,0.124883 -0.002,0.01199 -0.002,0.02117 0.006,0.03457 0.008,0.01342 0.0889,0.256117 0.0522,0.323144 -0.0367,0.06668 -0.21836,0.186973 -0.31397,0.06103 -0.0452,-0.0882 -0.0177,-0.310798 -0.0177,-0.363008 0,-0.05221 -0.0166,-0.07021 -0.0388,-0.02787 -0.0222,0.04233 -0.0342,0.0702 -0.0332,0.108304 0.001,0.03775 0.006,0.200025 0.003,0.251177 -0.003,0.05151 0,0.21731 0.0974,0.264583 0.0977,0.04621 0.23953,0.0028 0.34748,-0.201083 0.0833,0.121708 0.20955,0.12206 0.27729,0.09701 0.0575,-0.02082 0.12206,-0.10795 0.14111,-0.228248 0.0183,-0.120298 -0.0124,-0.202494 -0.0501,-0.270227 -0.0497,-0.08396 -0.0832,-0.224015 -0.0832,-0.224015 -0.018,-0.05045 -0.031,-0.101248 -0.0533,-0.03246 m 3.48791,0.689681 c -0.0702,0.106892 -0.12206,0.362657 -0.0222,0.435327 0.0995,0.07373 0.24518,0.132998 0.24518,0.132998 -0.4639,0.571148 -0.7814,0.679802 -1.05269,0.839258 -0.0699,0.04127 -0.0564,0.07832 -0.0152,0.06738 0.0212,-0.006 0.38629,-0.06315 0.8128,-0.388057 0.23072,-0.175683 0.37006,-0.47625 0.37006,-0.47625 0,0 0.11571,0.09666 0.13088,0.116417 0.0353,0.04339 0.0543,0.07549 0.0706,0.02999 0.061,-0.169333 -0.0251,-0.270933 -0.10689,-0.323495 0,0 0.0854,-0.263525 -0.0713,-0.527757 -0.0261,-0.0441 -0.18133,-0.185208 -0.36125,0.09419 m 0.24236,0.07267 c 0.10477,0.09772 0.0885,0.258234 0.0843,0.294921 0,0 -0.13335,-0.06315 -0.19296,-0.0889 -0.0593,-0.0254 -0.0914,-0.06385 -0.0635,-0.1016 0.0921,-0.129821 0.13722,-0.125236 0.17215,-0.104421 m -7.67609,-0.159104 c -0.14605,0.214138 -0.13864,0.482954 -0.14005,0.783166 -0.0268,-0.06103 -0.18062,-0.453318 -0.60361,-0.65546 -0.0307,-0.01482 -0.0892,0.02117 -0.0885,0.11571 2.6e-4,0.05539 -0.006,0.189442 0.0349,0.225073 0.0409,0.03528 0.15981,0.1016 0.17921,0.110774 0.0205,0.0095 0.0409,0.0095 0.0448,-0.01376 0.005,-0.02328 0.0268,-0.07796 0.0663,-0.04269 0.0289,0.02611 0.19297,0.145347 0.31926,0.404638 0.10831,0.206375 -0.14569,0.563737 -0.13829,0.94615 0.001,0.08678 0.0452,0.257527 0.16334,0.267404 0.0614,0.0028 0.14287,-0.04233 0.20884,-0.250825 0.012,-0.04692 0.0201,-0.08537 0.0251,-0.104069 0.007,-0.02822 -0.0102,-0.06279 -0.0335,0.0013 -0.0508,0.127707 -0.17145,0.212725 -0.25047,0.03493 -0.0123,-0.03563 -0.0684,-0.197202 0.0603,-0.534103 0.1083,-0.28434 0.0963,-0.705557 0.10372,-0.792692 0.01,-0.122415 0.0512,-0.375708 0.21237,-0.256117 0.0367,0.02716 0.0762,0.0635 0.0762,0.0635 0.0349,0.0388 0.079,0.0829 0.0956,0.03422 0.0251,-0.07338 0.0416,-0.193675 0.004,-0.25541 -0.0166,-0.02752 -0.22154,-0.255059 -0.33972,-0.08185 m 13.93049,0.182388 c -0.0702,0.106186 -0.12171,0.362302 -0.0222,0.435327 0.0995,0.07338 0.24518,0.132644 0.24518,0.132644 -0.4639,0.570796 -1.37513,0.976841 -1.59173,1.146881 -0.0646,0.04904 -0.0561,0.07796 -0.0152,0.06668 0.036,-0.0095 0.7306,-0.20461 1.3649,-0.75071 0.29104,-0.249767 0.28328,-0.268465 0.35701,-0.420513 0.0628,0.03281 0.10654,0.08537 0.13123,0.116065 0.0349,0.04374 0.054,0.0762 0.0706,0.02999 0.0607,-0.168627 -0.0251,-0.270933 -0.10725,-0.323495 0,0 0.0854,-0.262822 -0.0709,-0.52705 -0.0265,-0.04445 -0.18168,-0.185563 -0.36159,0.09419 m 0.24235,0.07267 c 0.10443,0.09737 0.0885,0.257881 0.0843,0.294571 0,0 -0.13335,-0.0628 -0.19297,-0.08855 -0.0596,-0.02611 -0.091,-0.06385 -0.0635,-0.101952 0.0921,-0.129823 0.13758,-0.125238 0.17215,-0.104071 m -1.78152,-0.165452 c -0.18239,0.232481 -0.19368,0.53834 -0.21802,0.879827 -0.0257,-0.07161 -0.17145,-0.529167 -0.63712,-0.790927 -0.0339,-0.01905 -0.10265,0.01693 -0.109,0.124177 -0.004,0.06315 -0.0219,0.2159 0.0222,0.25894 0.0441,0.04304 0.17427,0.128058 0.19579,0.1397 0.0222,0.01198 0.0455,0.01376 0.0522,-0.01236 0.006,-0.02611 0.0363,-0.08678 0.0783,-0.04339 0.0353,0.03634 0.26493,0.226838 0.38417,0.630766 0.0208,0.05292 0.0699,0.05856 0.0815,-0.01765 0.0275,-0.186621 0.0423,-0.511175 0.0571,-0.609248 0.0208,-0.138642 0.0864,-0.423334 0.26105,-0.275519 0.0395,0.03387 0.0815,0.07796 0.0815,0.07796 0.0374,0.04692 0.0836,0.10019 0.10619,0.04657 0.0342,-0.08149 0.0621,-0.216958 0.0243,-0.289983 -0.0166,-0.03281 -0.23283,-0.307269 -0.38029,-0.118886 m -1.79317,-0.01093 c -0.0674,0.03916 -1.78082,1.031875 -1.84997,1.076677 -0.0695,0.0448 -0.0942,0.05644 -0.10548,0.110418 -0.0106,0.05362 -0.0166,0.08502 -0.0194,0.09349 -0.0127,0.03598 -0.0215,0.08043 0.0808,0.01342 0.0321,-0.02082 1.75507,-1.020585 1.8154,-1.058334 0.0579,-0.03669 0.0914,-0.05186 0.11465,-0.107595 0.0233,-0.05574 0.0293,-0.06597 0.0416,-0.104775 0.0134,-0.04092 0.0265,-0.08502 -0.0776,-0.02328 m -4.65102,0.04339 c -0.0162,0.03916 -0.13653,0.335844 -0.13653,0.335844 0.003,0.01765 0.036,0.147108 0.042,0.19544 0.0561,0.428625 0.43145,2.9591 0.53164,3.7592 0.0497,0.394051 0.0621,0.749651 0.0674,0.939797 -0.004,0.05891 0.0212,0.08079 0.048,0.02434 0.0145,-0.03069 0.0748,-0.155575 0.0931,-0.484011 0.0138,-0.246591 -0.006,-0.625475 -0.0762,-1.147233 -0.01,-0.07585 -0.37394,-2.720269 -0.37394,-2.720269 0,0 0.19649,0.185561 0.22824,0.218724 0.0314,0.03351 0.0699,0.01553 0.0519,-0.0381 -0.018,-0.05398 -0.42051,-1.030465 -0.43356,-1.064684 -0.0127,-0.03351 -0.0257,-0.05821 -0.042,-0.01905 m -0.96344,0 c -0.0162,0.03916 -0.14887,0.369359 -0.14887,0.369359 0.004,0.02328 0.042,0.07055 0.0632,0.214487 0.0215,0.149931 0.26493,1.527881 0.38488,2.373138 0.0106,0.07303 0.23918,1.539875 0.21343,1.570566 -0.0254,0.03034 -0.37395,0.302329 -0.77012,0.02787 -0.0667,-0.04622 -0.31961,-0.218017 -0.43427,-1.068565 -0.0257,-0.166158 -0.24729,-1.982258 -0.24729,-1.982258 0,0 -0.11466,-0.887942 -0.1517,-1.079852 -0.0162,-0.0635 -0.0328,-0.07267 -0.0515,-0.03069 -0.0187,0.04233 -0.16087,0.196498 -0.12842,0.482952 0.0328,0.28575 0.35878,2.56893 0.38383,2.766483 0.025,0.197205 0.13829,0.919692 0.0293,1.032934 -0.10866,0.113948 -0.4057,0.252235 -0.70697,0.105127 -0.10477,-0.04586 -0.24024,-0.178152 -0.1965,-0.449086 0.0159,-0.100187 -0.0314,-0.178152 -0.10301,-0.06738 -0.0713,0.11077 -0.4004,0.76341 -0.89993,0.669218 -0.11995,-0.02257 -0.45861,-0.05539 -0.61666,-0.672042 -0.0515,-0.200731 -0.28998,-2.153708 -0.34572,-2.545643 -0.0561,-0.391938 -0.21767,-1.501071 -0.25682,-1.618546 -0.0388,-0.117475 -0.0893,-0.03351 -0.12841,0.05574 -0.0388,0.08996 -0.0981,0.186266 -0.0501,0.46496 0.0494,0.286104 0.39617,2.744613 0.4184,2.962981 0.0222,0.218369 0.0949,0.582435 -0.17851,0.834319 -0.2734,0.252235 -1.22379,1.061156 -1.90253,0.795514 -0.17745,-0.0695 -0.74189,-0.325262 -0.37924,-1.484135 0.009,-0.02893 0.0127,-0.05574 0.0124,-0.07902 -0.0314,-0.0088 -0.0596,-0.0254 -0.0843,-0.04727 -0.0127,0.01482 -0.0261,0.03563 -0.0399,0.06456 -0.078,0.168275 -0.44909,1.172282 0.10619,1.742017 0.11888,0.121356 0.72354,0.599017 1.74625,-0.162277 0.15698,-0.117123 0.77752,-0.5461 0.83573,-1.064331 0.007,-0.06738 0.0233,0.03986 0.0279,0.06597 0.005,0.02574 0.10124,1.07456 0.88829,1.105956 0.12947,0.0053 0.45191,0.0085 0.79516,-0.541867 0.0878,0.197556 0.20497,0.44309 0.56445,0.445206 0.14287,0.0011 0.58596,-0.02117 0.6865,-0.621593 0.15487,0.18062 0.35666,0.526343 0.87454,0.437091 0.1591,-0.02822 0.46849,-0.09243 0.46849,-0.811035 -0.004,-0.16369 -0.0667,-0.70979 -0.10055,-0.920046 -0.0332,-0.20955 -0.38205,-2.437694 -0.38205,-2.437694 0,0 0.19649,0.185561 0.22824,0.218724 0.0314,0.03351 0.0699,0.01553 0.0515,-0.0381 -0.0177,-0.05398 -0.41981,-1.030465 -0.43321,-1.064332 -0.0127,-0.03387 -0.0258,-0.05856 -0.042,-0.01939 m -6.1334,1.796696 c -0.0628,0.162279 -0.32067,0.721079 -0.30197,1.388888 0.004,0.116768 0.0504,0.318558 0.1598,0.41557 0.0459,-0.05256 0.0833,-0.01976 0.0843,0.04727 0.013,0.0039 0.0268,0.0063 0.0413,0.0074 0.10407,0.0028 0.24025,-0.08078 0.34572,-0.455083 0.0187,-0.08467 0.0311,-0.153106 0.0388,-0.186267 0.0113,-0.05045 -0.0194,-0.111831 -0.0564,0.0039 -0.0822,0.228952 -0.28364,0.384879 -0.42298,0.07126 -0.0222,-0.06209 -0.11466,-0.345369 0.085,-0.95391 0.0402,-0.11783 0.0917,-0.293865 0.0917,-0.293865 0.0445,-0.13335 -0.003,-0.207785 -0.0653,-0.04516 m 3.87633,-0.830792 c -0.11466,0.231071 -0.0808,0.505531 -0.0519,0.812448 -0.0311,-0.06032 -0.21414,-0.44944 -0.629,-0.622652 -0.0303,-0.0127 -0.0808,0.02858 -0.0706,0.124883 0.006,0.0568 0.013,0.195086 0.055,0.227894 0.0416,0.03281 0.1591,0.09172 0.17851,0.09913 0.0194,0.0085 0.0388,0.0067 0.0402,-0.01765 0.001,-0.024 0.0169,-0.08184 0.0575,-0.04868 0.0339,0.02752 0.24694,0.167569 0.40146,0.512586 0.024,0.04516 0.0649,0.04304 0.0635,-0.02612 -0.004,-0.170039 -0.0381,-0.461081 -0.0402,-0.550688 -0.003,-0.125587 0.01,-0.388408 0.17216,-0.279045 0.037,0.02469 0.0776,0.05891 0.0776,0.05891 0.0367,0.03704 0.0818,0.07867 0.0924,0.02752 0.0162,-0.07726 0.0194,-0.201084 -0.0215,-0.26176 -0.018,-0.02681 -0.23213,-0.243417 -0.32526,-0.0568 m -0.11854,1.909588 c -0.10301,0.112887 -0.13511,0.190146 -0.1658,0.238829 -0.0423,0.06668 0.0109,0.09596 0.0589,0.04445 0.048,-0.05186 0.0811,-0.103717 0.22119,-0.100187 0.14041,0.0039 0.47555,-0.0092 0.35031,0.08361 -0.12523,0.09278 -0.2099,0.14605 -0.2099,0.14605 -0.0815,0.05856 -0.15311,0.168275 -0.01,0.107596 0.14394,-0.06138 0.33373,-0.157692 0.47943,-0.377825 0.0423,-0.06385 0.0921,-0.149929 -0.10513,-0.179562 -0.1972,-0.02963 -0.51611,-0.0755 -0.61948,0.03704 m -3.73274,-2.202039 c -0.0307,0.07479 -0.15804,0.332316 -0.13829,0.636058 0.004,0.07056 0.0504,0.207081 0.15593,0.21096 0.0543,-2.65e-4 0.12488,-0.03986 0.17498,-0.211667 0.008,-0.03916 0.0141,-0.0702 0.0177,-0.08537 0.005,-0.02328 -0.0117,-0.0508 -0.0293,0.0024 -0.0402,0.105482 -0.14358,0.178859 -0.22084,0.03775 -0.0127,-0.02787 -0.0653,-0.155929 0.031,-0.435681 0.019,-0.05433 0.0437,-0.135115 0.0437,-0.135115 0.0215,-0.06103 -0.004,-0.09419 -0.0349,-0.01939 m 12.05195,0.637469 c -0.0342,0.08467 -0.17816,0.375004 -0.15593,0.71755 0.005,0.07902 0.0571,0.233539 0.17603,0.237421 0.0614,-2.65e-4 0.14076,-0.04481 0.19685,-0.23848 0.01,-0.04374 0.0159,-0.07902 0.0201,-0.09631 0.006,-0.02611 -0.013,-0.05715 -0.0332,0.0028 -0.0452,0.118533 -0.16157,0.201435 -0.24906,0.04233 -0.0141,-0.0314 -0.073,-0.175683 0.0353,-0.490714 0.0215,-0.06103 0.049,-0.1524 0.049,-0.1524 0.0243,-0.06879 -0.005,-0.106537 -0.0392,-0.02222 m 3.29459,0.173566 c -0.0321,0.07761 -0.16475,0.346782 -0.14464,0.663575 0.005,0.07338 0.0529,0.216607 0.16298,0.220134 0.0572,-2.65e-4 0.13018,-0.04163 0.18274,-0.220837 0.009,-0.04057 0.0145,-0.07302 0.018,-0.0889 0.006,-0.02434 -0.0124,-0.05292 -0.0307,0.0024 -0.0413,0.110066 -0.14922,0.186973 -0.23036,0.03951 -0.013,-0.02928 -0.0677,-0.162983 0.0325,-0.454377 0.0204,-0.0568 0.0459,-0.14111 0.0459,-0.14111 0.0222,-0.06386 -0.005,-0.09843 -0.0363,-0.02045 m -6.18243,0.0081 -0.16757,0.230717 -0.32174,-0.235302 c -0.008,-0.0056 -0.0194,-0.0035 -0.0257,0.0046 l -0.19438,0.267407 c -0.006,0.0085 -0.005,0.02011 0.004,0.02611 l 0.33126,0.243065 c 0.008,0.0053 0.0198,0.0035 0.0261,-0.0049 l 0.16722,-0.230716 0.32209,0.235656 c 0.008,0.0053 0.0194,0.0035 0.0257,-0.0049 l 0.19403,-0.267758 c 0.006,-0.0081 0.005,-0.02011 -0.003,-0.02574 l -0.33161,-0.24271 c -0.008,-0.0056 -0.0198,-0.0035 -0.0257,0.0046 m -7.92057,1.418873 c -0.0462,0.105127 -0.24095,0.469546 -0.20849,0.897112 0.007,0.09878 0.0804,0.291042 0.24307,0.294923 0.0843,-7.93e-4 0.19261,-0.05715 0.26846,-0.299508 0.0127,-0.05433 0.0212,-0.09842 0.0265,-0.120298 0.008,-0.03281 -0.0183,-0.07126 -0.0455,0.0039 -0.0603,0.148519 -0.21978,0.252942 -0.34079,0.05503 -0.0198,-0.03916 -0.1016,-0.218723 0.0444,-0.613482 0.0296,-0.07655 0.0667,-0.1905 0.0667,-0.1905 0.0328,-0.08643 -0.007,-0.132995 -0.0543,-0.02716 m 9.21879,-1.002596 c -0.013,0.04516 -0.0455,0.239538 -0.0533,0.279754 -0.008,0.03986 -0.007,0.07973 0.0124,0.113946 0.0198,0.03457 0.0705,0.153106 0.10689,0.249063 0.0363,0.09631 0.41275,0.824087 0.44732,0.888645 0.0346,0.06456 0.042,0.11289 0.007,0.155223 -1.20791,1.279877 -3.53906,2.066219 -3.6135,2.109962 -0.0748,0.04339 -0.0547,0.07726 0.0706,0.05539 0.18767,-0.03316 1.23507,-0.208846 1.53317,-0.353131 0.1972,-0.0956 0.88476,-0.435327 1.44745,-0.878417 -0.0159,0.1143 -0.0307,0.281869 -0.0229,0.497065 0.0381,1.029052 0.95461,0.857954 1.19521,0.805392 0.72108,-0.15875 1.60267,-1.15923 1.67746,-1.360311 0.0741,-0.198262 0.0847,-0.379589 0.0677,-0.537633 0.19015,-0.103013 0.5976,-0.433213 0.5976,-0.433213 0.0173,0.439209 0.36442,0.570796 0.47202,0.589492 0.5013,0.07655 0.75283,-0.34431 0.85937,-0.480483 0.0914,0.240596 0.31115,0.286808 0.42404,0.309739 0.4325,0.08643 0.51717,-0.221191 0.53939,-0.291041 0.13547,-0.423686 -0.1083,-0.739423 -0.14005,-0.7747 -0.0318,-0.03493 -0.0476,-0.0011 -0.0586,0.03951 -0.0113,0.04057 -0.0462,0.193323 -0.0677,0.288573 0,0 0.0903,0.148167 0.12241,0.22366 0.0325,0.0755 -0.0155,0.116417 -0.10901,0.128059 -0.26282,0.0321 -0.47272,-0.119592 -0.54539,-0.189442 -0.0723,-0.0695 0.006,-0.193321 0.0646,-0.340783 0.0466,-0.118179 -0.0402,-0.132292 -0.10654,-2.65e-4 -0.22296,0.588785 -0.53658,0.652285 -0.61913,0.674865 -0.74295,0.203552 -0.67909,-0.478721 -0.67663,-0.590198 0.003,-0.112184 -0.0787,-0.07091 -0.17003,0.0028 -0.31257,0.252235 -0.5648,0.40005 -0.69992,0.461078 -0.11676,-0.228951 -0.28645,-0.372885 -0.35771,-0.424743 -0.80433,-0.588785 -0.87066,0.599017 -0.84667,0.726368 0.12242,0.505532 0.94439,0.199322 1.07315,0.18415 0.12877,-0.01553 0.0868,0.155224 0.0145,0.256824 -0.1785,0.250118 -0.38417,0.429683 -0.57044,0.582435 -0.79657,0.652285 -1.19662,0.601133 -1.31939,0.5969 -0.78599,-0.02222 -0.71014,-0.875594 -0.6664,-1.050925 0.2346,-0.200377 0.4371,-0.416629 0.55457,-0.640292 0.0476,-0.122412 0.13018,-0.401108 -0.0187,-0.751768 -0.0783,-0.153811 -0.32527,-0.585965 -0.32527,-0.585965 0,0 0.18168,0.0056 0.19897,0.0056 0.0173,-7.93e-4 0.0515,-0.01871 0.007,-0.0695 -0.0441,-0.05115 -0.4258,-0.433564 -0.44874,-0.464256 -0.0229,-0.03069 -0.0441,-0.05292 -0.0572,-0.0074 m 2.41265,1.7526 c 0,0 -0.10936,0.0628 -0.41557,0.04233 -0.25682,-0.01728 -0.23495,-0.117475 -0.19967,-0.156279 0.0381,-0.04127 0.35242,-0.23989 0.61524,0.113946 m -3.30341,-1.425221 c -0.0536,0.06632 -0.58773,0.770112 -0.58773,0.770112 l -0.38805,-0.277987 c 0,0 0.15804,-0.03986 0.18591,-0.04798 0.0279,-0.0081 0.0434,-0.0441 -0.006,-0.0695 -0.0497,-0.02574 -0.51823,-0.213431 -0.55386,-0.228248 -0.0356,-0.0141 -0.0487,-0.03034 -0.0515,0.0078 -0.003,0.03775 -0.008,0.347488 -0.008,0.347488 0,0 -0.007,0.02188 0.0335,0.04515 0.0409,0.02328 0.0811,0.07302 0.1143,0.106892 0.0335,0.03387 0.46955,0.378531 0.49036,0.390525 0,0 -0.21801,0.384529 -0.24553,0.6858 -0.0279,0.300566 0.006,0.716139 0.41522,0.582083 0.11007,-0.03175 0.56903,-0.214842 0.67169,-0.535869 0.0335,-0.118533 0.1277,-0.332316 -0.0261,-0.549275 -0.0889,-0.127 -0.44697,-0.342548 -0.44697,-0.342548 0,0 0.27482,-0.382058 0.30128,-0.428625 0.0261,-0.04657 0.12735,-0.342545 0.13864,-0.41416 0.0113,-0.07162 0.0169,-0.107598 -0.0363,-0.04163 m -0.0938,1.623129 c -0.15275,0.12559 -0.47237,0.291748 -0.56233,0.300567 -0.0896,0.0085 -0.32808,-0.03563 -0.22436,-0.280811 0.0353,-0.07937 0.27375,-0.48895 0.27375,-0.48895 0.0889,0.04939 0.66499,0.343607 0.51294,0.469194 m 6.20607,0.561975 c -0.0311,0.08608 -0.043,0.142875 -0.0399,0.175683 0.003,0.03281 0.0148,0.139348 0.0148,0.139348 -0.0321,0.02611 -0.16827,0.111125 -0.3048,0.01024 0.009,-0.02893 0.0268,-0.08855 0.0311,-0.121354 0.0145,-0.05045 -0.0166,-0.08784 -0.0413,-0.03598 -0.0247,0.05292 -0.0825,0.2286 -0.12524,0.267758 -0.043,0.03951 -0.0935,0.184854 -0.41839,0.03739 -0.0564,-0.02222 -0.15628,-0.09631 -0.31115,0.06032 -0.35101,0.327732 -0.59372,0.353132 -0.98742,0.49389 -0.0476,0.02188 -0.14782,0.09737 -0.0289,0.08537 0.11853,-0.01164 0.61771,2.64e-4 0.88935,-0.312912 0.0568,-0.05503 0.12206,-0.201438 0.33761,-0.116772 0.11959,0.04586 0.34043,0.235657 0.58138,-0.140052 0.14181,0.0949 0.35736,0.05715 0.39193,-0.04762 0.0342,-0.104775 0.0737,-0.208843 0.0734,-0.279751 -2.6e-4,-0.07126 -0.006,-0.1651 -0.006,-0.1651 -0.005,-0.05644 -0.0251,-0.136525 -0.0561,-0.05045 m -12.94448,0.956027 c -0.0596,0.02999 -1.37724,0.547865 -1.43933,0.58279 -0.0621,0.03457 -0.0836,0.04339 -0.0963,0.0889 -0.0124,0.04516 -0.0191,0.07162 -0.0222,0.07902 -0.0124,0.03034 -0.0226,0.06773 0.0688,0.01622 0.0286,-0.01659 1.35784,-0.53975 1.40899,-0.569383 0.0508,-0.02893 0.0811,-0.03916 0.10407,-0.08608 0.0233,-0.04657 0.0286,-0.05433 0.0416,-0.08714 0.0134,-0.03493 0.0272,-0.07161 -0.0656,-0.02434 m 1.79141,0.306565 -0.16757,0.230365 -0.32173,-0.235305 c -0.008,-0.0056 -0.0198,-0.0039 -0.0258,0.0049 l -0.19437,0.267407 c -0.006,0.0081 -0.005,0.02011 0.004,0.02574 l 0.33161,0.24271 c 0.008,0.006 0.0194,0.0039 0.0254,-0.0046 l 0.16758,-0.231068 0.32208,0.235654 c 0.008,0.006 0.0194,0.0039 0.0254,-0.0046 l 0.19473,-0.267758 c 0.006,-0.0081 0.004,-0.02011 -0.004,-0.02574 l -0.33125,-0.242713 c -0.008,-0.0056 -0.0194,-0.0039 -0.0257,0.0049"
       style="fill:#231f20;fill-opacity:1;fill-rule:evenodd;stroke:none;stroke-width:0.264583"
       id="path1" />
  </g>
</svg>
