<?xml version="1.0" encoding="UTF-8" standalone="no"?>
<!-- Created with Inkscape (http://www.inkscape.org/) -->

<svg
   width="19.156664mm"
   height="6.4412737mm"
   viewBox="0 0 19.156664 6.4412737"
   version="1.1"
   id="svg1"
   xmlns="http://www.w3.org/2000/svg"
   xmlns:svg="http://www.w3.org/2000/svg">
  <defs
     id="defs1" />
  <g
     id="layer1"
     transform="translate(-154.49282,-36.411773)">
    <path
       d="m 165.90574,36.580799 c -0.0702,0.106537 -0.12241,0.362653 -0.0222,0.435678 0.10019,0.07303 0.24624,0.132292 0.24624,0.132292 -0.46567,0.570796 -0.78458,0.680156 -1.05693,0.839613 -0.0702,0.04092 -0.0561,0.07796 -0.0152,0.06667 0.0212,-0.0056 0.38771,-0.06244 0.81598,-0.387705 0.23142,-0.175683 0.37147,-0.47625 0.37147,-0.47625 0,0 0.11607,0.09666 0.13159,0.116417 0.0353,0.04375 0.0543,0.07585 0.0709,0.02999 0.061,-0.168982 -0.0251,-0.270933 -0.10725,-0.323498 0,0 0.0854,-0.263173 -0.072,-0.527402 -0.0261,-0.0441 -0.18168,-0.185208 -0.36266,0.09419 m 0.24377,0.07267 c 0.10478,0.09737 0.0889,0.257881 0.0847,0.294217 0,0 -0.13406,-0.06244 -0.19438,-0.08819 -0.0596,-0.02574 -0.091,-0.06385 -0.0635,-0.101952 0.0924,-0.129471 0.13793,-0.125238 0.17321,-0.104071 m -4.93183,-0.07232 c -0.067,0.09596 -0.12136,0.32879 -0.0318,0.397934 0.09,0.06985 0.22225,0.127706 0.22225,0.127706 -0.44097,0.510469 -1.04846,0.985309 -1.30175,1.124654 -0.0653,0.03598 -0.0536,0.06985 -0.0155,0.06068 0.0194,-0.0046 0.35242,-0.116772 0.7553,-0.39864 0.33937,-0.237419 0.66675,-0.744715 0.66675,-0.744715 0,0 0.10336,0.09102 0.11747,0.109363 0.031,0.04092 0.0476,0.07091 0.0639,0.02928 0.0603,-0.153104 -0.0162,-0.248354 -0.09,-0.298802 0,0 0.0847,-0.238832 -0.0522,-0.484365 -0.0229,-0.04092 -0.16192,-0.17427 -0.33443,0.07691 m 0.22084,0.07267 c 0.0938,0.09208 0.0751,0.238476 0.0702,0.271637 0,0 -0.12065,-0.06103 -0.17533,-0.08572 -0.054,-0.02506 -0.0818,-0.06068 -0.0557,-0.0949 0.0878,-0.116416 0.12912,-0.111125 0.16087,-0.09102 m 2.97533,-0.138642 c -0.0166,0.03916 -0.13759,0.336195 -0.13759,0.336195 0.003,0.01728 0.0367,0.146757 0.0427,0.195792 0.0557,0.427921 0.40675,2.959455 0.508,3.759906 0.0494,0.3937 0.0878,0.748242 0.0931,0.93839 -0.004,0.05891 0.0215,0.08114 0.0483,0.02434 0.0141,-0.03034 0.0748,-0.155575 0.0935,-0.484013 0.0138,-0.246592 -0.006,-0.625475 -0.0765,-1.146879 -0.0102,-0.0762 -0.37571,-2.720623 -0.37571,-2.720623 0,0 0.19755,0.185208 0.2293,0.219075 0.0317,0.03352 0.0702,0.01553 0.0519,-0.03845 -0.0183,-0.05398 -0.42192,-1.030113 -0.43497,-1.064331 -0.013,-0.03387 -0.0257,-0.05856 -0.042,-0.01939 m -1.03505,0 c -0.0162,0.03916 -0.14605,0.324908 -0.14605,0.324908 0.004,0.02328 0.0342,0.09349 0.0554,0.237419 0.0219,0.149931 0.52529,3.27166 0.51612,3.380668 -0.009,0.108305 -0.005,0.158046 -0.0543,0.189796 -0.0254,0.01588 -0.21273,0.140759 -0.52176,0.268463 0.21378,-0.7112 0.14041,-0.759884 0.1016,-0.817738 -0.30127,-0.448733 -0.76905,-0.402873 -0.88018,-0.387704 -0.5528,0.0755 -1.05974,0.81915 -1.19274,0.977196 -0.0607,0.07267 -0.18627,0.239183 -0.31045,0.432504 -0.19014,-0.07796 -0.36265,-0.208137 -0.47448,-0.422275 0.0374,-0.111477 0.0123,-0.206727 -0.0649,-0.100894 -0.0773,0.106186 -0.19579,0.363009 -0.28364,0.460375 -0.0882,0.09701 -0.54292,0.455084 -0.96379,0.120298 -0.0656,-0.05256 -0.50517,-0.377473 -0.17956,-1.402291 0.6597,-0.332317 1.2633,-0.624771 1.28764,-0.640646 0.0501,-0.03387 0.10054,-0.348896 0.10054,-0.348896 -2.46556,-0.390525 -3.18241,-0.04551 -3.31928,0.03528 -0.13688,0.08008 -0.22437,0.350308 -0.20426,0.478367 0.019,0.128765 0.1083,0.24624 0.16086,0.285043 0.0522,0.03951 0.27658,0.185209 0.46532,0.344665 0.0568,0.04798 0.12453,0.111831 0.19156,0.178858 -0.4572,0.230717 -0.82762,0.420159 -0.88371,0.46214 -0.0819,0.0515 -0.0956,0.315735 -0.0956,0.39511 0,0 0.20603,0.128765 0.91652,0.248357 0.41804,0.06985 0.47731,0.144637 0.508,0.194027 0.0303,0.04903 -0.32208,0.286102 -0.46143,0.373239 -1.51906,0.954263 -2.27154,0.624063 -2.41512,0.575379 -0.92428,-0.31115 -0.42862,-1.667579 -0.39088,-1.822802 0.006,-0.02294 0.008,-0.04198 0.01,-0.05927 0.0145,0.0032 0.0282,0.0074 0.0434,0.0071 0.097,-0.0056 0.21802,-0.09349 0.28717,-0.449792 0.0109,-0.08043 0.0169,-0.144287 0.0215,-0.176037 0.007,-0.04762 -0.0268,-0.102304 -0.0522,0.0078 -0.0586,0.219427 -0.2346,0.379942 -0.38877,0.09983 -0.0257,-0.05644 -0.1337,-0.312208 0.005,-0.892881 0.0279,-0.112536 0.0621,-0.280459 0.0621,-0.280459 0.0314,-0.126645 -0.0187,-0.192262 -0.0646,-0.03669 -0.0455,0.155927 -0.24271,0.695325 -0.17286,1.313744 0.0123,0.10936 0.0727,0.294216 0.18415,0.37465 -0.009,0.01376 -0.018,0.02999 -0.0275,0.05009 -0.34431,0.80645 -0.24906,1.356784 -0.2226,1.520473 0.15134,0.92569 1.24389,0.848077 1.42416,0.83185 1.0735,-0.09631 1.9491,-0.861483 2.14242,-1.016706 0.19332,-0.155575 0.20567,-0.33161 0.2226,-0.424392 0.0547,-0.432503 -0.19297,-0.499533 -0.28575,-0.5334 -0.0924,-0.03351 -0.73095,-0.172153 -0.73095,-0.172153 0.0804,-0.07021 0.30162,-0.199674 0.58914,-0.355955 0.0561,0.06068 0.0956,0.105481 0.10442,0.116771 0.025,0.03351 0.0377,0.06279 0.0624,-0.02117 0.0148,-0.06209 0.013,-0.124532 2.6e-4,-0.185209 0.23319,-0.124179 0.49636,-0.259291 0.75706,-0.391231 -0.0519,0.212373 -0.15769,0.693915 -0.0328,1.250243 0.1337,0.59408 0.84419,0.836438 1.33173,0.355248 0.0561,-0.05539 0.22684,-0.300214 0.26071,-0.38876 0.0332,0.06526 0.14922,0.273754 0.30021,0.363712 0.0183,0.01093 0.0413,0.02294 0.0688,0.03492 -0.0589,0.117123 -0.10513,0.230365 -0.12559,0.325615 0,0 -0.0466,0.1651 -0.018,0.172156 0.0286,0.0071 0.061,-0.01799 0.10089,-0.107598 0.0498,-0.121708 0.10513,-0.237066 0.1651,-0.346075 0.23813,0.0695 0.66958,0.118886 1.41323,0.0078 0.15663,-0.02363 0.75353,-0.125942 1.40864,-0.518229 0.10654,-0.06138 0.22966,-0.114655 0.27199,-0.604663 0.0166,-0.126294 0.008,-0.602192 -0.0226,-0.798335 -0.031,-0.196144 -0.3863,-2.212623 -0.3863,-2.212623 0,0 0.19685,0.185563 0.2286,0.219075 0.0318,0.03352 0.0702,0.01553 0.0526,-0.0381 -0.0183,-0.05398 -0.3937,-1.006475 -0.40711,-1.040694 -0.013,-0.03352 -0.0257,-0.05856 -0.0423,-0.01939 m -3.73698,2.561167 c 0.042,0.01588 -0.90134,0.489302 -1.71802,0.900287 -0.13229,-0.184502 -0.31786,-0.32667 -0.37324,-0.36971 0,0 -0.45438,-0.358423 -0.50941,-0.396169 -0.0543,-0.0381 0.21801,-0.182388 0.5969,-0.209904 0.99871,-0.07408 1.91523,0.04163 2.00377,0.0755 m 3.41136,1.273879 c 0.1905,0.143933 0.09,0.237773 0.0289,0.291396 -0.66216,0.578554 -1.70321,0.535868 -1.99108,0.51435 0.35031,-0.489305 0.76483,-0.81633 1.03223,-0.984957 0.38065,-0.240948 0.73978,0.03563 0.92992,0.179211 m 9.37472,-3.673827 c -0.0699,0.10654 -0.12206,0.362656 -0.0222,0.435681 0.10019,0.07338 0.24624,0.132644 0.24624,0.132644 -0.46567,0.570793 -1.38043,0.97649 -1.59774,1.146881 -0.0653,0.04868 -0.0564,0.07761 -0.0155,0.06667 0.0363,-0.0099 0.73343,-0.204965 1.37054,-0.750713 0.2921,-0.250118 0.28399,-0.268816 0.35808,-0.420862 0.0635,0.03281 0.10724,0.08572 0.13193,0.116417 0.0349,0.04374 0.0543,0.07585 0.0709,0.02999 0.0607,-0.168981 -0.0254,-0.270933 -0.10759,-0.323498 0,0 0.0854,-0.26317 -0.0713,-0.527402 -0.0265,-0.0441 -0.18238,-0.185208 -0.36336,0.09419 m 0.24377,0.07267 c 0.10478,0.09772 0.0889,0.257879 0.0847,0.294568 0,0 -0.13406,-0.06279 -0.19403,-0.08855 -0.06,-0.02574 -0.091,-0.06385 -0.0635,-0.101952 0.0921,-0.129468 0.13758,-0.125235 0.17286,-0.104068 m -1.78858,-0.165455 c -0.18309,0.232482 -0.19474,0.53834 -0.21943,0.879475 -0.0257,-0.07126 -0.1718,-0.528812 -0.63923,-0.790575 -0.0342,-0.01905 -0.10301,0.01693 -0.10936,0.124884 -0.004,0.0628 -0.0219,0.214841 0.0226,0.258233 0.0441,0.04339 0.17462,0.128058 0.19649,0.1397 0.0222,0.01236 0.0452,0.0141 0.0522,-0.01236 0.006,-0.02611 0.036,-0.08678 0.0787,-0.04339 0.0356,0.03634 0.266,0.226836 0.38559,0.630767 0.0208,0.05362 0.0706,0.05856 0.0818,-0.01728 0.0275,-0.186971 0.0427,-0.511527 0.0575,-0.6096 0.0205,-0.138287 0.0868,-0.423334 0.26211,-0.275519 0.0395,0.03387 0.0819,0.07832 0.0819,0.07832 0.037,0.04657 0.084,0.10019 0.10618,0.04622 0.0349,-0.08149 0.0624,-0.216959 0.0247,-0.289984 -0.0166,-0.03246 -0.23389,-0.307271 -0.38171,-0.118888 m -1.80057,-0.01093 c -0.067,0.03916 -1.78753,1.032227 -1.85703,1.077031 -0.0699,0.0448 -0.0942,0.05644 -0.10548,0.110419 -0.0116,0.05362 -0.0169,0.08467 -0.0198,0.09313 -0.0127,0.03598 -0.0219,0.08043 0.0808,0.01342 0.0321,-0.02082 1.76248,-1.020588 1.82245,-1.058334 0.0582,-0.03634 0.0921,-0.05186 0.11572,-0.107598 0.0229,-0.05574 0.0293,-0.06562 0.0413,-0.104423 0.0134,-0.04127 0.0268,-0.08502 -0.078,-0.02363 m -9.35002,0.02363 c -0.0921,0.03986 -3.32352,1.532115 -3.41772,1.575859 -0.0942,0.04304 -0.12241,0.06209 -0.14075,0.128058 -0.0187,0.06562 -0.0275,0.100542 -0.0325,0.114654 -0.0159,0.04445 -0.0378,0.08996 0.0998,0.02294 0.0423,-0.02082 3.29847,-1.51271 3.37326,-1.555044 0.0741,-0.04198 0.11818,-0.0568 0.15205,-0.124177 0.0339,-0.06738 0.042,-0.07902 0.0607,-0.126296 0.0198,-0.05009 0.0438,-0.09631 -0.0949,-0.03598 m -3.87844,0.304096 c -0.17428,0.221192 -0.18521,0.512233 -0.20849,0.836787 -0.0247,-0.06809 -0.16369,-0.503412 -0.60819,-0.752475 -0.0325,-0.01799 -0.0981,0.01622 -0.10407,0.118888 -0.004,0.05962 -0.0208,0.20461 0.0212,0.245533 0.042,0.04128 0.16616,0.122061 0.18698,0.132996 0.0208,0.01198 0.0434,0.01341 0.0497,-0.01164 0.006,-0.02506 0.0342,-0.08255 0.0748,-0.04092 0.0339,0.03422 0.25294,0.215545 0.36689,0.599368 0.0198,0.05115 0.067,0.05609 0.078,-0.01622 0.0261,-0.1778 0.0406,-0.486481 0.0547,-0.579966 0.0201,-0.131588 0.0822,-0.402522 0.24906,-0.261763 0.0381,0.03175 0.078,0.07444 0.078,0.07444 0.0356,0.04445 0.0797,0.09525 0.1016,0.04374 0.0328,-0.07761 0.0589,-0.206375 0.0229,-0.275873 -0.0159,-0.03104 -0.22225,-0.2921 -0.363,-0.112887 m 3.48473,0.218369 c -0.0321,0.0949 -0.17003,0.424391 -0.12523,0.800806 0.0109,0.08714 0.0773,0.254 0.20673,0.251177 0.067,-0.0039 0.15028,-0.05821 0.19967,-0.275519 0.008,-0.04868 0.0123,-0.08784 0.0155,-0.106891 0.005,-0.02928 -0.018,-0.06244 -0.036,0.0049 -0.0413,0.133705 -0.16333,0.232482 -0.26846,0.06244 -0.0169,-0.03422 -0.0903,-0.189794 0.008,-0.543983 0.0198,-0.06879 0.0441,-0.171096 0.0441,-0.171096 0.0222,-0.07761 -0.0116,-0.117123 -0.0441,-0.02188 m 3.36021,0.503767 c -0.0317,0.09525 -0.17004,0.424743 -0.12453,0.801158 0.0102,0.08713 0.0769,0.254 0.20637,0.251177 0.0667,-0.0039 0.15064,-0.05821 0.19932,-0.275167 0.008,-0.04903 0.0124,-0.08819 0.0159,-0.107595 0.005,-0.02893 -0.018,-0.06209 -0.0356,0.0053 -0.0416,0.13335 -0.16334,0.232478 -0.26847,0.06209 -0.0176,-0.03387 -0.0907,-0.189087 0.007,-0.543629 0.0205,-0.06879 0.0444,-0.171098 0.0444,-0.171098 0.0222,-0.07761 -0.012,-0.117475 -0.0444,-0.02222 m -0.82338,0.117827 c -0.0233,0.07197 -0.0406,0.127354 -0.009,0.209198 0.031,0.08184 0.11536,0.267758 0.12911,0.294568 0.0141,0.02646 0.0177,0.05645 -0.0289,0.07585 -0.0459,0.02011 -0.25718,0.06491 -0.29669,-0.160514 -0.0392,-0.225071 -0.0427,-0.290687 -0.0621,-0.328787 -0.0198,-0.03845 -0.0381,-0.04304 -0.0533,-0.0046 -0.0152,0.03775 -0.0243,0.116417 -0.0265,0.129117 -0.002,0.0127 -0.002,0.02222 0.006,0.03563 0.008,0.0141 0.0924,0.265642 0.0543,0.33514 -0.0381,0.06914 -0.22754,0.193675 -0.32702,0.0635 -0.0473,-0.09137 -0.0183,-0.322088 -0.0183,-0.376415 0,-0.05433 -0.0169,-0.07303 -0.0406,-0.02893 -0.0229,0.04374 -0.0356,0.07267 -0.0346,0.111829 0.001,0.03951 0.007,0.20814 0.004,0.261057 -0.004,0.05327 0,0.225425 0.1016,0.273756 0.10125,0.04868 0.24942,0.0035 0.3616,-0.207788 0.0868,0.125942 0.21802,0.126296 0.28857,0.100542 0.06,-0.02188 0.127,-0.112183 0.14676,-0.236712 0.0198,-0.124884 -0.0127,-0.210257 -0.0519,-0.280813 -0.0522,-0.08643 -0.0864,-0.232127 -0.0864,-0.232127 -0.0187,-0.05186 -0.0325,-0.105127 -0.0557,-0.03351 m 7.53745,0.186973 c -0.0342,0.08432 -0.17851,0.375002 -0.15664,0.717198 0.005,0.07902 0.0575,0.233538 0.17674,0.237419 0.0617,0 0.14147,-0.0448 0.19791,-0.238477 0.01,-0.04375 0.0162,-0.07902 0.0198,-0.09596 0.006,-0.02646 -0.013,-0.0575 -0.0328,0.0028 -0.0452,0.118533 -0.16228,0.201435 -0.25012,0.04233 -0.0141,-0.0314 -0.0734,-0.175683 0.0353,-0.491067 0.0219,-0.06103 0.0494,-0.152048 0.0494,-0.152048 0.0243,-0.06879 -0.005,-0.106539 -0.0395,-0.02222 m 3.30765,0.173215 c -0.0318,0.07796 -0.16545,0.347133 -0.14535,0.664279 0.005,0.07303 0.0536,0.2159 0.16369,0.219429 0.0571,0 0.13053,-0.04127 0.1831,-0.220487 0.009,-0.04057 0.0148,-0.07303 0.0187,-0.08925 0.006,-0.024 -0.0123,-0.05292 -0.0307,0.0028 -0.042,0.109712 -0.15028,0.186266 -0.23177,0.03916 -0.013,-0.02928 -0.0677,-0.162631 0.0328,-0.45438 0.0205,-0.05644 0.0459,-0.14111 0.0459,-0.14111 0.0226,-0.06385 -0.005,-0.09842 -0.0363,-0.02045 m -6.20642,0.0085 -0.16863,0.230716 -0.32314,-0.235656 c -0.008,-0.0056 -0.019,-0.0039 -0.0258,0.0049 l -0.19473,0.267403 c -0.006,0.0085 -0.005,0.02011 0.003,0.02574 l 0.33268,0.242711 c 0.008,0.006 0.0198,0.0039 0.0261,-0.0046 l 0.16792,-0.230716 0.32315,0.235301 c 0.008,0.006 0.0198,0.0039 0.0257,-0.0046 l 0.19509,-0.267758 c 0.006,-0.0081 0.005,-0.01976 -0.003,-0.0254 l -0.33267,-0.243065 c -0.008,-0.0056 -0.0201,-0.0039 -0.0257,0.0049 m -10.68705,0.429683 c -0.037,0.09948 -0.19438,0.445204 -0.14499,0.838904 0.0113,0.09102 0.0861,0.265642 0.23213,0.262115 0.0755,-0.0046 0.16968,-0.06174 0.22648,-0.289277 0.009,-0.05116 0.0145,-0.09208 0.0183,-0.112184 0.006,-0.03069 -0.0198,-0.06526 -0.0406,0.0053 -0.0476,0.140052 -0.18556,0.244121 -0.30339,0.06668 -0.0194,-0.03563 -0.1016,-0.197908 0.0109,-0.569383 0.0229,-0.07197 0.0508,-0.179213 0.0508,-0.179213 0.0254,-0.08114 -0.013,-0.122412 -0.0497,-0.02294 m 11.99021,-0.01342 c -0.013,0.0448 -0.0459,0.239535 -0.0533,0.2794 -0.008,0.04022 -0.007,0.08008 0.0124,0.1143 0.0198,0.03387 0.0702,0.152752 0.10689,0.24906 0.0363,0.09631 0.41416,0.82409 0.44908,0.888297 0.0349,0.06456 0.0423,0.112887 0.007,0.155575 -1.21285,1.279525 -3.55317,2.06657 -3.62796,2.10961 -0.0748,0.04374 -0.055,0.07726 0.0713,0.05539 0.18803,-0.03281 1.23931,-0.208844 1.53917,-0.353483 0.19755,-0.09525 0.88759,-0.434975 1.45274,-0.877711 -0.0159,0.113949 -0.0307,0.281869 -0.0229,0.496711 0.0381,1.029054 0.9585,0.858663 1.20015,0.805391 0.72355,-0.15875 1.60831,-1.159227 1.68345,-1.359958 0.0744,-0.198612 0.0854,-0.379942 0.0688,-0.537633 0.1905,-0.103362 0.59972,-0.433211 0.59972,-0.433211 0.0169,0.438502 0.36583,0.570442 0.47343,0.589492 0.50341,0.07655 0.756,-0.34431 0.86324,-0.480835 0.0914,0.240593 0.31221,0.28716 0.42545,0.309737 0.43427,0.08608 0.51894,-0.220837 0.54152,-0.291042 0.13617,-0.423685 -0.10936,-0.73942 -0.14076,-0.774345 -0.0318,-0.03493 -0.0476,-0.0013 -0.0586,0.03916 -0.0113,0.04057 -0.0462,0.193321 -0.0684,0.288925 0,0 0.0907,0.147812 0.12312,0.223309 0.0325,0.07549 -0.0155,0.116416 -0.10936,0.128058 -0.26388,0.03245 -0.47484,-0.11924 -0.54751,-0.18909 -0.0723,-0.06985 0.006,-0.193323 0.0645,-0.341135 0.0469,-0.11783 -0.0402,-0.132292 -0.10654,0 -0.22401,0.588785 -0.53869,0.652285 -0.62159,0.674862 -0.74612,0.2032 -0.68192,-0.478719 -0.6791,-0.59055 0.003,-0.111829 -0.0794,-0.07055 -0.17109,0.0035 -0.31398,0.251529 -0.56692,0.399695 -0.70274,0.460375 -0.11747,-0.228955 -0.28716,-0.372533 -0.35913,-0.424392 -0.80715,-0.589139 -0.87418,0.599017 -0.84948,0.726369 0.12276,0.505177 0.94756,0.199318 1.07703,0.183798 0.12947,-0.01516 0.0871,0.155575 0.0145,0.257175 -0.17886,0.250119 -0.38559,0.429683 -0.57291,0.582083 -0.7994,0.652637 -1.20086,0.601134 -1.32433,0.597252 -0.78917,-0.02222 -0.71261,-0.875948 -0.66922,-1.051277 0.23565,-0.199673 0.43921,-0.416631 0.55668,-0.639939 0.0483,-0.122767 0.13088,-0.401815 -0.0187,-0.751769 -0.0783,-0.154165 -0.32632,-0.586317 -0.32632,-0.586317 0,0 0.18238,0.0056 0.19967,0.0056 0.0177,-2.65e-4 0.0519,-0.01871 0.008,-0.0695 -0.0445,-0.05115 -0.42756,-0.433562 -0.45085,-0.464254 -0.0229,-0.03069 -0.0445,-0.05257 -0.0572,-0.0071 m 2.42217,1.752248 c 0,0 -0.11006,0.06314 -0.41733,0.04233 -0.25788,-0.01728 -0.23566,-0.117829 -0.20038,-0.155929 0.0385,-0.04163 0.35384,-0.239888 0.61771,0.113596 m -8.77781,-1.32433 -0.19473,0.267759 c -0.006,0.0085 -0.005,0.02011 0.004,0.02574 l 0.33232,0.24271 c 0.008,0.006 0.0198,0.0039 0.0258,-0.0046 l 0.19543,-0.267759 c 0.006,-0.0081 0.005,-0.02011 -0.004,-0.02574 l -0.33268,-0.24271 c -0.008,-0.0056 -0.0198,-0.0039 -0.0261,0.0046 m -5.7979,1.122892 c -0.0226,0.03528 -0.073,0.193323 -0.073,0.193323 0.043,0.07303 0.58773,0.715081 0.4572,1.6891 -0.0187,0.09701 0.0152,0.08537 0.0385,0.04339 0.0645,-0.113242 0.3376,-1.108075 -0.32174,-1.908175 -0.0727,-0.08855 -0.0783,-0.05221 -0.10089,-0.01765 m 11.25925,-1.223433 c -0.0536,0.06632 -0.58984,0.770114 -0.58984,0.770114 l -0.38982,-0.278341 c 0,0 0.15875,-0.03986 0.18662,-0.04763 0.0275,-0.0081 0.0434,-0.0441 -0.007,-0.06985 -0.0497,-0.02574 -0.51999,-0.213077 -0.55597,-0.227542 -0.0356,-0.01482 -0.0487,-0.03104 -0.0515,0.0071 -0.003,0.0381 -0.009,0.347838 -0.009,0.347838 0,0 -0.007,0.02188 0.0339,0.0448 0.0409,0.02328 0.0811,0.07338 0.11501,0.106892 0.0335,0.03351 0.47096,0.378883 0.49248,0.391229 0,0 -0.21872,0.384175 -0.24695,0.685096 -0.0279,0.300918 0.006,0.716137 0.41699,0.582083 0.11077,-0.0314 0.57114,-0.21449 0.67415,-0.535871 0.0335,-0.118179 0.12806,-0.332317 -0.0261,-0.548921 -0.0889,-0.127354 -0.44873,-0.342548 -0.44873,-0.342548 0,0 0.27622,-0.382058 0.30268,-0.428625 0.0261,-0.04692 0.1277,-0.3429 0.13864,-0.414514 0.0116,-0.07161 0.0169,-0.107596 -0.036,-0.04127 m -0.0949,1.622779 c -0.1524,0.125942 -0.47343,0.291746 -0.56374,0.300567 -0.0903,0.0088 -0.32985,-0.03528 -0.22578,-0.280813 0.036,-0.07937 0.27482,-0.488596 0.27482,-0.488596 0.0896,0.04904 0.66781,0.343252 0.5147,0.468842 m 6.23111,0.561975 c -0.0314,0.08608 -0.0434,0.142875 -0.0402,0.175683 0.003,0.03316 0.0148,0.1397 0.0148,0.1397 -0.0324,0.02574 -0.16863,0.110771 -0.3055,0.01024 0.009,-0.02928 0.0265,-0.0889 0.0307,-0.121354 0.0148,-0.05045 -0.0162,-0.0882 -0.0413,-0.03598 -0.025,0.05292 -0.0829,0.228245 -0.12594,0.267403 -0.043,0.03951 -0.0931,0.184857 -0.41945,0.03704 -0.0568,-0.02151 -0.15699,-0.0956 -0.31256,0.06103 -0.35278,0.327376 -0.59584,0.353131 -0.99131,0.493535 -0.048,0.02222 -0.14816,0.09772 -0.0293,0.08573 0.11924,-0.01199 0.62019,0 0.89288,-0.312912 0.0572,-0.05539 0.12242,-0.201438 0.33902,-0.116772 0.1203,0.04551 0.34149,0.235657 0.5835,-0.140051 0.14252,0.0949 0.35913,0.0568 0.39334,-0.04798 0.0346,-0.104423 0.0741,-0.208492 0.0737,-0.279755 -2.7e-4,-0.07126 -0.006,-0.164745 -0.006,-0.164745 -0.005,-0.05645 -0.0247,-0.13688 -0.0561,-0.0508 m -9.21561,0.63006 c -0.0233,0.0321 -0.0409,0.05821 -0.0501,0.07091 -0.0141,0.01905 -0.01,0.05115 0.0282,0.0095 0.079,-0.08043 0.20355,-0.106185 0.21801,0.05468 2.7e-4,0.03034 -0.003,0.168627 -0.2032,0.386291 -0.0395,0.04163 -0.0945,0.106186 -0.0945,0.106186 -0.0448,0.04727 -0.0339,0.08819 0.0243,0.0321 0.0579,-0.05644 0.27869,-0.2413 0.38277,-0.527401 0.024,-0.06632 0.036,-0.210257 -0.0593,-0.255765 -0.0504,-0.02188 -0.13088,-0.0141 -0.24624,0.123473 m -2.77213,0.386292 c -0.0233,0.0321 -0.0409,0.05856 -0.0505,0.07091 -0.0145,0.01905 -0.01,0.05115 0.0282,0.0095 0.0787,-0.08008 0.20355,-0.105833 0.21837,0.05468 0,0.03069 -0.003,0.168979 -0.20356,0.386292 -0.0399,0.04198 -0.0945,0.106185 -0.0945,0.106185 -0.0444,0.04763 -0.0342,0.08819 0.024,0.0321 0.0582,-0.05609 0.27869,-0.240945 0.38276,-0.527402 0.024,-0.06597 0.0363,-0.209902 -0.0593,-0.255765 -0.0497,-0.02188 -0.13053,-0.01376 -0.24554,0.123474 m -2.47015,0 c -0.0233,0.0321 -0.0409,0.05856 -0.0501,0.07091 -0.0148,0.01905 -0.01,0.05115 0.0282,0.0095 0.0783,-0.08008 0.2032,-0.105833 0.21766,0.05468 2.7e-4,0.03069 -0.002,0.168979 -0.20284,0.386292 -0.0402,0.04198 -0.0949,0.106185 -0.0949,0.106185 -0.0445,0.04763 -0.0342,0.08819 0.024,0.0321 0.0582,-0.05609 0.2787,-0.240945 0.38276,-0.527402 0.0243,-0.06597 0.0363,-0.209902 -0.0593,-0.255765 -0.0497,-0.02188 -0.13053,-0.01376 -0.24554,0.123474"
       style="fill:#231f20;fill-opacity:1;fill-rule:evenodd;stroke:none;stroke-width:0.264583"
       id="path1" />
  </g>
</svg>
