<?xml version="1.0" encoding="UTF-8" standalone="no"?>
<!-- Created with Inkscape (http://www.inkscape.org/) -->

<svg
   width="17.717636mm"
   height="6.1360273mm"
   viewBox="0 0 17.717636 6.1360273"
   version="1.1"
   id="svg1"
   xmlns="http://www.w3.org/2000/svg"
   xmlns:svg="http://www.w3.org/2000/svg">
  <defs
     id="defs1" />
  <g
     id="layer1"
     transform="translate(-174.52739,-27.949567)">
    <path
       d="m 178.67842,27.99595 c -0.0332,0.08043 -0.17039,0.357716 -0.14958,0.684387 0.005,0.0755 0.0554,0.222956 0.16898,0.226838 0.0589,0 0.13476,-0.04269 0.18874,-0.227897 0.009,-0.04163 0.0152,-0.07514 0.019,-0.09137 0.006,-0.02506 -0.0124,-0.05503 -0.0317,0.0021 -0.043,0.113593 -0.15487,0.192616 -0.23848,0.04092 -0.0138,-0.03034 -0.0702,-0.167923 0.0339,-0.46849 0.0201,-0.05856 0.0473,-0.145344 0.0473,-0.145344 0.0229,-0.06562 -0.005,-0.101954 -0.0381,-0.02117 m 4.39702,-0.02151 c -0.0162,0.03951 -0.13723,0.336198 -0.13723,0.336198 0.003,0.01728 0.0363,0.146757 0.0427,0.19544 0.0561,0.428625 0.40675,2.960158 0.50764,3.760258 0.0497,0.394052 0.0882,0.748242 0.0935,0.938387 -0.005,0.05892 0.0212,0.08114 0.048,0.02434 0.0145,-0.03034 0.0751,-0.155575 0.0938,-0.483658 0.0134,-0.246944 -0.006,-0.625827 -0.0766,-1.147234 -0.0102,-0.0762 -0.375,-2.720268 -0.375,-2.720268 0,0 0.19685,0.185208 0.2286,0.218723 0.0317,0.03351 0.0699,0.01553 0.0519,-0.0381 -0.018,-0.05433 -0.42192,-1.030465 -0.43497,-1.064332 -0.0131,-0.03422 -0.0261,-0.05856 -0.0423,-0.01976 m -1.0347,0 c -0.0159,0.03951 -0.14569,0.324908 -0.14569,0.324908 0.003,0.02328 0.0339,0.09349 0.055,0.237774 0.0219,0.149931 0.0529,0.363714 0.0878,0.600075 0,0 0.41452,2.664531 0.41698,2.729793 0.004,0.08043 0.0155,0.154517 -0.0674,0.166865 -0.0836,0.01236 -0.4946,0.06527 -0.6403,-0.250473 0.0102,-0.0568 0.0205,-0.109009 0.0229,-0.131234 0.002,-0.02752 -0.0335,-0.08184 -0.066,-0.0049 -0.0169,0.04092 -0.11041,0.355245 -0.21096,0.466018 -0.0324,0.03704 -0.31079,0.289632 -0.52211,-0.08678 0.0212,-0.07585 0.0498,-0.17921 0.0621,-0.232833 0.0124,-0.05327 0.01,-0.09913 -0.0286,-0.05186 -0.0381,0.04727 -0.46002,0.752123 -0.96732,0.547865 -0.11359,-0.04551 -0.54786,-0.496713 -1.18039,-0.197205 -0.20356,0.09631 -0.6403,0.363009 -0.99978,0.730605 -0.0797,0.08184 -0.74577,0.87136 -1.08691,0.891117 -0.0847,0.0046 -0.53727,0.04586 -0.39722,-0.560213 0.002,-0.0081 0.002,-0.01587 0.001,-0.02363 0.37782,-0.04868 0.83149,-0.258585 1.28975,-0.826558 0.10266,-0.127352 0.82197,-1.237543 0.17956,-1.831623 -0.14005,-0.129468 -0.45861,-0.24765 -1.25482,-0.173567 -0.27976,0.02611 -0.94122,0.106188 -1.22803,0.08925 -0.0487,-0.0053 -0.127,-0.01341 -0.21166,-0.02328 0.0762,-0.128413 0.17356,-0.254707 0.29704,-0.374298 0.0162,-0.01516 0.0734,-0.05786 0.1584,-0.118534 0.0713,0.06632 0.12276,0.121002 0.14075,0.153107 0.0356,0.06808 0.0625,0.01447 0.0625,-0.01516 0,-0.01765 0.0176,-0.115358 -0.0325,-0.257527 0.46813,-0.32385 1.31163,-0.880533 1.74907,-1.11125 0.0332,-0.0956 0.17357,-0.336198 0.11748,-0.364067 -1.35149,-0.206023 -2.3495,-0.07091 -2.44617,-0.05538 -0.24412,0.03986 -0.61101,0.144992 -0.65122,0.441677 -0.0166,0.162277 -0.067,0.352777 0.15698,0.492832 0.13512,0.08431 0.45756,0.330903 0.71014,0.545041 -0.15557,0.162629 -0.31891,0.375002 -0.44202,0.639937 -0.0896,-0.0127 -0.16652,-0.02611 -0.20003,-0.03845 -0.0452,-0.01693 -0.1136,0.01447 -0.0113,0.08255 0.0286,0.01905 0.0787,0.05715 0.14958,0.102659 -0.0384,0.101952 -0.0705,0.210608 -0.0942,0.326318 -0.031,0.150638 -0.38594,1.44498 0.62724,2.117022 0.0656,0.04374 0.38347,0.23142 0.82409,0.208843 -0.002,0.0078 -0.004,0.01622 -0.006,0.0254 -0.0346,0.160867 -0.072,0.571148 0.2159,0.746125 0.091,0.05609 0.52387,0.262819 1.10878,-0.369358 0.0684,-0.07373 0.72178,-0.819502 1.20579,-1.019527 0.16616,-0.06879 0.47625,-0.24624 0.97332,0.08255 0.0734,0.04868 0.38699,0.231068 0.70273,0.01376 0.0984,-0.06738 0.31009,-0.296333 0.34008,-0.346781 0,0 0.10089,0.326318 0.35348,0.337608 0.0688,0.0024 0.36724,0.02294 0.49812,-0.449792 0.0596,0.07338 0.23001,0.3683 0.63818,0.279752 0.0649,-0.0141 0.24377,-0.04798 0.34466,-0.576085 0.009,-0.108302 0.007,-0.450143 -0.0896,-0.932743 -0.03,-0.190149 -0.3429,-2.149124 -0.3429,-2.149124 0,0 0.1972,0.185561 0.2293,0.218724 0.0314,0.03351 0.0702,0.01553 0.0519,-0.0381 -0.0183,-0.05362 -0.39158,-0.934157 -0.40464,-0.968024 -0.0134,-0.03422 -0.0261,-0.05856 -0.0427,-0.01976 m -5.03061,0.606425 c -0.0508,0.02963 -0.99836,0.642057 -1.13277,0.732015 -0.0399,0.02646 -0.13335,0.08819 -0.25012,0.185915 -0.0233,-0.02858 -0.0494,-0.0575 -0.079,-0.08714 -0.0921,-0.08396 -0.74684,-0.539396 -0.79446,-0.583846 -0.048,-0.0448 -0.12488,-0.08643 -0.0212,-0.121708 0.10443,-0.03598 0.59584,-0.280106 2.27754,-0.125238 m -1.14371,2.176288 c 0.22119,-0.0053 1.33809,-0.133705 1.61819,-0.0049 0.28011,0.128765 0.62759,0.36971 0.38665,0.818092 -0.24095,0.447675 -0.96979,1.190273 -1.74766,1.14794 -0.22966,-0.0127 -1.02447,-0.154872 -1.20968,-1.081265 -0.0254,-0.127 -0.0769,-0.586669 0.13159,-1.069269 0.19014,0.09948 0.46566,0.197554 0.82091,0.189442 m 1.32221,0.297037 c -0.0773,0.03493 -1.44956,0.708025 -1.52823,0.745773 -0.0748,0.03634 -0.0946,0.05644 -0.10583,0.110419 -0.0109,0.05362 -0.0169,0.08467 -0.0198,0.09313 -0.0127,0.03634 -0.0215,0.06773 0.0811,0.01341 0.0335,-0.01799 1.43087,-0.69356 1.49366,-0.727075 0.0607,-0.0321 0.0917,-0.05186 0.11536,-0.107598 0.0233,-0.05538 0.0289,-0.06526 0.0413,-0.10442 0.0134,-0.04128 0.0324,-0.07408 -0.0776,-0.02363 m 7.31167,-2.879725 c -0.0702,0.106539 -0.12206,0.362656 -0.0219,0.435681 0.0998,0.07338 0.24589,0.132644 0.24589,0.132644 -0.46531,0.570796 -0.78422,0.679804 -1.05692,0.839258 -0.0702,0.04128 -0.0561,0.07832 -0.0148,0.06703 0.0208,-0.0053 0.38735,-0.06244 0.81527,-0.387705 0.23178,-0.175683 0.37183,-0.47625 0.37183,-0.47625 0,0 0.11606,0.09666 0.13159,0.116065 0.0353,0.04339 0.0543,0.07585 0.0709,0.02998 0.061,-0.168627 -0.025,-0.270579 -0.10724,-0.323495 0,0 0.0854,-0.263174 -0.0716,-0.52705 -0.0265,-0.04445 -0.18204,-0.185563 -0.36301,0.09384 m 0.24377,0.07267 c 0.10442,0.09772 0.0889,0.257881 0.0847,0.294923 0,0 -0.13405,-0.06315 -0.19438,-0.08855 -0.0596,-0.02612 -0.091,-0.06385 -0.0635,-0.101952 0.0928,-0.130175 0.13794,-0.12559 0.17322,-0.104423 m -3.2438,-0.206727 c -0.0917,0.0381 -3.31469,1.467554 -3.40888,1.508829 -0.0935,0.04163 -0.12207,0.05997 -0.14112,0.125238 -0.0194,0.06491 -0.0286,0.09948 -0.0339,0.112887 -0.0166,0.04375 -0.0385,0.08855 0.0984,0.02434 0.0423,-0.01939 3.29001,-1.448503 3.36409,-1.489075 0.0744,-0.04092 0.11818,-0.05468 0.15275,-0.121002 0.0346,-0.06632 0.0427,-0.07761 0.0621,-0.124176 0.0205,-0.04904 0.0444,-0.09455 -0.0935,-0.03704 m 9.52218,0.229658 c -0.0699,0.106537 -0.12206,0.362654 -0.0222,0.435679 0.10054,0.07338 0.24659,0.132646 0.24659,0.132646 -0.46567,0.570794 -1.38077,0.976842 -1.59808,1.146527 -0.0649,0.04903 -0.0561,0.07832 -0.0155,0.06703 0.0363,-0.0095 0.73342,-0.20461 1.37089,-0.750358 0.29175,-0.250119 0.28363,-0.269169 0.35807,-0.420862 0.0635,0.03245 0.10689,0.08573 0.13159,0.116416 0.0353,0.04339 0.0543,0.07585 0.0709,0.02963 0.0607,-0.168982 -0.0254,-0.270934 -0.10759,-0.323499 0,0 0.0857,-0.262818 -0.0716,-0.52705 -0.0261,-0.0441 -0.18203,-0.18556 -0.363,0.09384 m 0.24376,0.07267 c 0.10513,0.09772 0.0889,0.257881 0.0847,0.294571 0,0 -0.13406,-0.0628 -0.19403,-0.08855 -0.06,-0.0254 -0.091,-0.06315 -0.0631,-0.1016 0.0917,-0.129823 0.13758,-0.125235 0.1725,-0.104423 m -1.78858,-0.165452 c -0.18344,0.232833 -0.19438,0.538691 -0.21907,0.880181 -0.0261,-0.07197 -0.17216,-0.529166 -0.63959,-0.791281 -0.0339,-0.01871 -0.10301,0.01728 -0.10936,0.124883 -0.004,0.06279 -0.0215,0.215194 0.0226,0.258233 0.0441,0.04304 0.17497,0.128411 0.19649,0.140052 0.0222,0.01236 0.0452,0.01376 0.0522,-0.01236 0.006,-0.02646 0.036,-0.08678 0.0787,-0.04304 0.0356,0.03563 0.266,0.226131 0.38559,0.63006 0.0208,0.05362 0.0706,0.05891 0.0819,-0.01728 0.0279,-0.186266 0.0427,-0.511175 0.0575,-0.6096 0.0208,-0.137935 0.0868,-0.423333 0.26176,-0.275166 0.0399,0.03352 0.0822,0.07796 0.0822,0.07796 0.0374,0.04727 0.084,0.100187 0.10654,0.04657 0.0342,-0.08185 0.0621,-0.217313 0.0247,-0.290338 -0.0169,-0.03245 -0.23389,-0.306916 -0.38206,-0.118885 m -1.80022,-0.01093 c -0.0674,0.03951 -1.78753,1.032227 -1.85738,1.077383 -0.0699,0.0448 -0.0945,0.05644 -0.10512,0.109712 -0.0117,0.05398 -0.0173,0.08537 -0.0205,0.09384 -0.0123,0.03598 -0.0215,0.08043 0.0811,0.01304 0.0321,-0.02045 1.76213,-1.020233 1.82245,-1.057979 0.0582,-0.03634 0.0921,-0.05186 0.11571,-0.107598 0.0229,-0.05609 0.0289,-0.06597 0.0416,-0.104423 0.013,-0.04163 0.0265,-0.08537 -0.078,-0.024 m -6.56625,0.769054 c -0.0222,0.06879 -0.0392,0.122767 -0.009,0.201438 0.0303,0.07938 0.11183,0.258585 0.12523,0.284337 0.0134,0.0254 0.0166,0.05433 -0.0282,0.07338 -0.0445,0.01905 -0.24836,0.06244 -0.2861,-0.155223 -0.0377,-0.216959 -0.0409,-0.280459 -0.06,-0.317149 -0.0187,-0.03669 -0.0371,-0.04092 -0.0512,-0.0046 -0.0145,0.03704 -0.024,0.11289 -0.0257,0.124883 -0.002,0.01236 -0.002,0.02117 0.006,0.03422 0.008,0.01376 0.0889,0.256471 0.0526,0.323146 -0.0374,0.06703 -0.21978,0.187325 -0.31539,0.06138 -0.0459,-0.0882 -0.018,-0.310799 -0.018,-0.363009 0,-0.05221 -0.0166,-0.06985 -0.0388,-0.02787 -0.0226,0.04233 -0.0349,0.07021 -0.0335,0.108305 0.001,0.03775 0.007,0.200376 0.004,0.251176 -0.004,0.05151 0,0.217665 0.0977,0.264232 0.0984,0.04657 0.2406,0.0032 0.3489,-0.20038 0.0833,0.121357 0.21026,0.121709 0.27834,0.09701 0.0579,-0.02151 0.12242,-0.108302 0.14147,-0.2286 0.019,-0.120298 -0.0124,-0.202493 -0.0505,-0.270581 -0.0501,-0.08361 -0.0833,-0.223661 -0.0833,-0.223661 -0.018,-0.05009 -0.0314,-0.101248 -0.0536,-0.03246 m -3.88902,0.113242 c -0.0328,0.08079 -0.17039,0.358071 -0.14958,0.685096 0.005,0.07514 0.0554,0.22225 0.16898,0.226483 0.0589,-2.64e-4 0.13511,-0.04269 0.18874,-0.227541 0.01,-0.04198 0.0152,-0.0755 0.019,-0.09172 0.006,-0.02506 -0.0127,-0.05468 -0.0317,0.0024 -0.043,0.113241 -0.15452,0.192264 -0.23848,0.04057 -0.0138,-0.03034 -0.0699,-0.167923 0.0335,-0.46849 0.0212,-0.05821 0.0476,-0.144991 0.0476,-0.144991 0.0229,-0.06632 -0.005,-0.101952 -0.0381,-0.02188 m 3.97757,1.061509 -0.19509,0.267406 c -0.006,0.0085 -0.005,0.02011 0.003,0.02612 l 0.33267,0.24271 c 0.008,0.006 0.0198,0.0035 0.0257,-0.0046 l 0.19509,-0.267407 c 0.006,-0.0085 0.005,-0.02045 -0.004,-0.02611 L 181.22559,30.1055 c -0.008,-0.0056 -0.0198,-0.0035 -0.0254,0.0046 m -2.39289,0.536223 c -0.10443,0.113948 -0.13653,0.19191 -0.16793,0.2413 -0.0434,0.06738 0.0109,0.09701 0.0596,0.0448 0.049,-0.05221 0.0825,-0.104775 0.22472,-0.101246 0.14217,0.0039 0.48296,-0.0092 0.3556,0.08431 -0.12735,0.09384 -0.21343,0.147815 -0.21343,0.147815 -0.0825,0.05927 -0.15557,0.170744 -0.009,0.109009 0.14605,-0.06209 0.33867,-0.159102 0.48648,-0.382059 0.043,-0.06491 0.0938,-0.151693 -0.10654,-0.181681 -0.20037,-0.02998 -0.52422,-0.0769 -0.62935,0.03775 m 2.70369,-0.0011 -0.16863,0.230716 -0.32279,-0.235656 c -0.008,-0.006 -0.0198,-0.0035 -0.0257,0.0049 l -0.19544,0.267052 c -0.006,0.0088 -0.005,0.02045 0.004,0.02646 l 0.33232,0.242713 c 0.008,0.0056 0.0201,0.0035 0.0257,-0.0049 l 0.16863,-0.230717 0.32279,0.235657 c 0.008,0.0056 0.0198,0.0035 0.0257,-0.0049 l 0.19508,-0.267406 c 0.006,-0.0085 0.005,-0.02011 -0.003,-0.02612 l -0.33267,-0.242713 c -0.008,-0.006 -0.0198,-0.0035 -0.0257,0.0049 m 6.49746,-1.124302 c -0.0346,0.08431 -0.1785,0.375002 -0.15698,0.71755 0.005,0.07902 0.0575,0.233185 0.17674,0.237419 0.0617,-2.65e-4 0.14147,-0.0448 0.19791,-0.238832 0.01,-0.04374 0.0162,-0.07832 0.0201,-0.09595 0.006,-0.02611 -0.0134,-0.05715 -0.0335,0.0028 -0.0448,0.118888 -0.16192,0.201438 -0.24941,0.04233 -0.0145,-0.0314 -0.0737,-0.175684 0.0349,-0.490712 0.0219,-0.06138 0.0497,-0.152048 0.0497,-0.152048 0.0243,-0.06914 -0.005,-0.10654 -0.0395,-0.02257 m 3.3073,0.173566 c -0.0321,0.07796 -0.16546,0.347134 -0.14535,0.663927 0.005,0.07302 0.0536,0.2159 0.16404,0.219782 0.0568,0 0.13053,-0.04163 0.18274,-0.22084 0.009,-0.04057 0.0152,-0.07303 0.0187,-0.08925 0.005,-0.024 -0.0127,-0.05256 -0.0307,0.0028 -0.042,0.110067 -0.15029,0.186621 -0.23142,0.03916 -0.0134,-0.02928 -0.0681,-0.162628 0.0325,-0.454377 0.0204,-0.05644 0.0459,-0.140758 0.0459,-0.140758 0.0229,-0.06385 -0.004,-0.09842 -0.0363,-0.02045 m -6.7236,0.0085 -0.19543,0.267052 c -0.006,0.0085 -0.004,0.02011 0.004,0.02612 l 0.33267,0.24271 c 0.008,0.006 0.0201,0.0035 0.0261,-0.0046 l 0.16792,-0.231072 0.32315,0.235657 c 0.008,0.006 0.0198,0.0035 0.0261,-0.0046 l 0.19473,-0.267407 c 0.006,-0.0088 0.005,-0.02045 -0.003,-0.02611 l -0.33267,-0.24271 c -0.008,-0.006 -0.0198,-0.0039 -0.0257,0.0049 l -0.16862,0.230362 -0.32315,-0.235302 c -0.007,-0.006 -0.0191,-0.0039 -0.0254,0.0049 m 1.82033,0.415571 c -0.013,0.04551 -0.0459,0.239889 -0.0536,0.279754 -0.008,0.04022 -0.007,0.08008 0.0127,0.1143 0.0198,0.03422 0.0702,0.152752 0.10725,0.249412 0.036,0.09596 0.41416,0.82409 0.44908,0.888297 0.0346,0.06456 0.042,0.112887 0.007,0.155575 -1.21285,1.279524 -3.55318,2.066218 -3.62797,2.10961 -0.0744,0.04339 -0.0547,0.07726 0.0713,0.05503 0.18803,-0.03281 1.23931,-0.208492 1.53917,-0.353131 0.19756,-0.0949 0.88759,-0.433917 1.45203,-0.8763 -0.0155,0.113948 -0.03,0.282223 -0.0219,0.4953 0.0377,1.029054 0.95815,0.858308 1.1998,0.805391 0.72355,-0.159102 1.60831,-1.159227 1.68346,-1.36031 0.0744,-0.19826 0.0854,-0.37959 0.0688,-0.537281 0.1905,-0.103362 0.59972,-0.433562 0.59972,-0.433562 0.0169,0.438853 0.36618,0.570441 0.47343,0.589491 0.50341,0.0769 0.756,-0.344313 0.86325,-0.480483 0.0917,0.240242 0.31185,0.28716 0.42545,0.309737 0.43426,0.08608 0.51929,-0.220837 0.54151,-0.291394 0.13617,-0.423333 -0.10901,-0.739068 -0.14041,-0.774348 -0.0318,-0.03492 -0.048,-0.0013 -0.0589,0.03916 -0.0113,0.04092 -0.0462,0.193323 -0.0684,0.289279 0,0 0.091,0.147812 0.12312,0.223309 0.0328,0.07514 -0.0155,0.116416 -0.10936,0.128058 -0.26388,0.0321 -0.47449,-0.11924 -0.54751,-0.18909 -0.0723,-0.0702 0.006,-0.193323 0.0646,-0.341135 0.0469,-0.11783 -0.0399,-0.132292 -0.10654,-2.65e-4 -0.22402,0.588788 -0.53905,0.65264 -0.62124,0.674865 -0.74613,0.2032 -0.68192,-0.478719 -0.67981,-0.59055 0.003,-0.111477 -0.079,-0.07056 -0.17074,0.0032 -0.31397,0.252235 -0.56692,0.400402 -0.70309,0.461081 -0.11677,-0.229306 -0.2868,-0.372887 -0.35877,-0.424746 -0.80716,-0.588785 -0.87383,0.599371 -0.84949,0.726371 0.12277,0.505529 0.94756,0.199319 1.07703,0.18415 0.12947,-0.01516 0.0871,0.155575 0.0145,0.256821 -0.17886,0.250121 -0.38523,0.430038 -0.57256,0.582438 -0.79974,0.652285 -1.2012,0.601133 -1.32432,0.5969 -0.78564,-0.02223 -0.71367,-0.86854 -0.67028,-1.049515 0.23636,-0.200025 0.43956,-0.41769 0.55739,-0.64135 0.0483,-0.122767 0.13088,-0.401815 -0.0187,-0.751769 -0.0783,-0.153812 -0.32632,-0.586316 -0.32632,-0.586316 0,0 0.18239,0.006 0.20003,0.0056 0.0173,-2.64e-4 0.0515,-0.01834 0.007,-0.06985 -0.0441,-0.0508 -0.42756,-0.43321 -0.45085,-0.463901 -0.0229,-0.03069 -0.0445,-0.05292 -0.0572,-0.0078 m 2.42183,1.7526 c 0,0 -0.10972,0.0635 -0.41699,0.04269 -0.25788,-0.01728 -0.23565,-0.117829 -0.20038,-0.155929 0.0385,-0.04163 0.35384,-0.240594 0.61737,0.113241 m -3.31612,-1.424868 c -0.0533,0.06632 -0.58984,0.770466 -0.58984,0.770466 l -0.38982,-0.278341 c 0,0 0.1591,-0.04022 0.18662,-0.04798 0.0279,-0.0085 0.0434,-0.0441 -0.006,-0.0695 -0.0501,-0.02612 -0.51999,-0.213432 -0.55598,-0.227894 -0.0356,-0.01447 -0.0494,-0.03069 -0.0519,0.0074 -0.003,0.0381 -0.008,0.347838 -0.008,0.347838 0,0 -0.007,0.02151 0.0339,0.0448 0.0406,0.02328 0.0808,0.07338 0.11466,0.106892 0.0339,0.03316 0.47095,0.378529 0.49247,0.390525 0,0 -0.21872,0.384879 -0.24694,0.685445 -0.0279,0.300921 0.006,0.716492 0.41698,0.582438 0.11078,-0.03175 0.57115,-0.214842 0.67451,-0.536223 0.0335,-0.118181 0.12771,-0.331965 -0.0265,-0.548569 -0.0889,-0.127706 -0.44873,-0.3429 -0.44873,-0.3429 0,0 0.27623,-0.382058 0.30268,-0.428625 0.0261,-0.04692 0.12771,-0.3429 0.139,-0.414514 0.0113,-0.07161 0.0166,-0.107244 -0.0363,-0.04127 m -0.0945,1.623131 c -0.15275,0.125587 -0.47378,0.291746 -0.56409,0.300212 -0.0903,0.0088 -0.32985,-0.03493 -0.22543,-0.280458 0.0356,-0.07937 0.27446,-0.48895 0.27446,-0.48895 0.0896,0.04904 0.66817,0.343254 0.51506,0.469196 m 6.23041,0.561621 c -0.0307,0.08678 -0.043,0.143229 -0.0399,0.176037 0.004,0.03281 0.0145,0.139346 0.0145,0.139346 -0.0317,0.02574 -0.16828,0.110773 -0.30516,0.01024 0.009,-0.02928 0.0265,-0.08855 0.031,-0.121002 0.0145,-0.0508 -0.0166,-0.0882 -0.0413,-0.03598 -0.0254,0.05221 -0.0833,0.227894 -0.12629,0.267758 -0.043,0.03916 -0.0931,0.184502 -0.41946,0.03669 -0.0568,-0.02151 -0.15698,-0.09595 -0.31256,0.06068 -0.35277,0.328083 -0.59619,0.353483 -0.9913,0.494242 -0.048,0.02151 -0.14852,0.09701 -0.0289,0.08502 0.11889,-0.01164 0.61983,2.65e-4 0.89288,-0.312915 0.0568,-0.05503 0.12206,-0.201435 0.33902,-0.116416 0.11994,0.04551 0.34114,0.235656 0.58279,-0.140052 0.14287,0.09454 0.35913,0.0568 0.3937,-0.04798 0.0346,-0.104423 0.0744,-0.208846 0.0741,-0.279755 -7.9e-4,-0.07126 -0.006,-0.165099 -0.006,-0.165099 -0.005,-0.05609 -0.0251,-0.136525 -0.0568,-0.0508 m -9.13765,0.246239 c -0.0208,0.03352 -0.0367,0.06138 -0.0455,0.07479 -0.0127,0.01976 -0.005,0.0515 0.0289,0.0074 0.0727,-0.08608 0.19544,-0.121004 0.22155,0.03845 0.003,0.03034 0.01,0.168275 -0.17427,0.40005 -0.0363,0.04445 -0.0868,0.11289 -0.0868,0.11289 -0.0402,0.05009 -0.0275,0.09031 0.0265,0.03034 0.054,-0.06032 0.26035,-0.261408 0.34325,-0.554212 0.0194,-0.06773 0.0208,-0.212021 -0.0776,-0.250825 -0.0515,-0.01799 -0.13158,-0.0042 -0.236,0.14111 m -1.663,-0.04904 c -0.0265,0.07303 -0.0367,0.121002 -0.0339,0.148519 0.003,0.02787 0.0124,0.118181 0.0124,0.118181 -0.0272,0.02151 -0.14287,0.09384 -0.25859,0.0085 0.008,-0.02469 0.0229,-0.07479 0.0265,-0.102659 0.0127,-0.04269 -0.0141,-0.07444 -0.0349,-0.03034 -0.0215,0.04445 -0.0699,0.193323 -0.10654,0.226483 -0.0363,0.03352 -0.079,0.155927 -0.3549,0.0314 -0.048,-0.01871 -0.13299,-0.08149 -0.26423,0.05115 -0.29809,0.277283 -0.50376,0.29845 -0.8382,0.41769 -0.0406,0.01871 -0.12523,0.08184 -0.0243,0.07197 0.10054,-0.0099 0.52388,2.65e-4 0.75495,-0.264583 0.048,-0.04692 0.10336,-0.17004 0.28645,-0.09842 0.10125,0.03845 0.28857,0.198967 0.49319,-0.118533 0.12029,0.08008 0.30374,0.04833 0.33266,-0.04022 0.0293,-0.08855 0.0628,-0.176742 0.0624,-0.236363 -2.7e-4,-0.06032 -0.006,-0.140052 -0.006,-0.140052 -0.004,-0.04763 -0.0208,-0.115358 -0.0473,-0.04269"
       style="fill:#231f20;fill-opacity:1;fill-rule:evenodd;stroke:none;stroke-width:0.264583"
       id="path1" />
  </g>
</svg>
