<?xml version="1.0" encoding="UTF-8" standalone="no"?>
<!-- Created with Inkscape (http://www.inkscape.org/) -->

<svg
   width="16.764513mm"
   height="6.4327149mm"
   viewBox="0 0 16.764513 6.4327149"
   version="1.1"
   id="svg1"
   xmlns="http://www.w3.org/2000/svg"
   xmlns:svg="http://www.w3.org/2000/svg">
  <defs
     id="defs1" />
  <g
     id="layer1"
     transform="translate(-163.10123,-28.804689)">
    <path
       d="m 170.46194,28.824803 c -0.0162,0.03881 -0.13724,0.335844 -0.13724,0.335844 0.003,0.01765 0.036,0.147108 0.0427,0.195791 0.0561,0.428273 0.40711,2.959455 0.50765,3.759907 0.0497,0.394052 0.0882,0.748241 0.0935,0.938741 -0.005,0.05856 0.0212,0.08043 0.048,0.024 0.0148,-0.03034 0.0751,-0.155575 0.0935,-0.484013 0.0141,-0.246591 -0.006,-0.625475 -0.0759,-1.146879 -0.0106,-0.0762 -0.37571,-2.720623 -0.37571,-2.720623 0,0 0.19721,0.185209 0.22896,0.219075 0.0317,0.03352 0.0699,0.01553 0.0522,-0.03845 -0.0183,-0.05398 -0.42228,-1.030464 -0.43533,-1.064331 -0.013,-0.03387 -0.0261,-0.05821 -0.0423,-0.01905 m -1.06822,0 c -0.0162,0.03881 -0.14569,0.324556 -0.14569,0.324556 0.004,0.02328 0.0339,0.09384 0.055,0.237771 0.0187,0.125942 0.49354,3.442758 0.50059,3.523192 0.007,0.08008 0.0349,0.450498 0.009,0.489304 -0.0265,0.03845 -0.35666,0.268817 -0.74295,0.05009 -0.0473,-0.02257 -0.18697,-0.142875 -0.21484,-0.357717 -0.009,-0.06667 -0.009,-0.07514 -0.0106,-0.117123 -0.002,-0.04198 -0.009,-0.08396 -0.0473,-0.03669 -0.0385,0.04727 -0.25824,0.50941 -0.60819,0.640995 -0.0928,0.03634 -0.53376,0.183092 -0.75636,-0.212725 -0.0607,-0.108302 -0.16792,-0.406752 -0.23248,-0.977193 -0.0205,-0.18274 -0.048,-0.433565 -0.16298,-0.546452 -0.0124,-0.01199 -0.0557,-0.04833 -0.0991,0.0088 -0.043,0.0568 -0.0822,0.163336 -0.0977,0.219427 -0.0155,0.05609 -0.0882,0.62583 -0.63006,0.421217 0,0 -0.16334,-0.27446 -0.18521,-0.306917 -0.0222,-0.0321 -0.0342,-0.05574 -0.0494,0 -0.0152,0.05645 -0.0593,0.287163 -0.0593,0.287163 0.0476,0.09349 0.40993,0.683683 0.2279,0.963787 -0.0589,0.08114 -0.98319,0.903465 -1.94628,0.830088 -0.13829,-0.01024 -0.88688,-0.02188 -0.93662,-0.869246 -0.009,-0.143227 0.0208,-0.39511 0.14711,-0.71402 0.006,-0.01693 0.01,-0.03211 0.0127,-0.04586 0.004,2.64e-4 0.007,0.0019 0.0102,0.0019 0.097,0.0019 0.22436,-0.08255 0.32173,-0.458611 0.0169,-0.08502 0.0282,-0.153106 0.0356,-0.186621 0.0102,-0.0508 -0.0187,-0.112183 -0.0529,0.0042 -0.0758,0.229658 -0.26387,0.38735 -0.39546,0.07444 -0.0212,-0.06209 -0.10865,-0.345016 0.0759,-0.956029 0.037,-0.118179 0.0843,-0.29492 0.0843,-0.29492 0.0416,-0.133705 -0.003,-0.20814 -0.061,-0.04481 -0.0579,0.163338 -0.29739,0.724958 -0.27693,1.393121 0.004,0.128762 0.0579,0.359833 0.18415,0.440267 -0.002,0.0032 -0.004,0.0063 -0.006,0.0099 -0.0589,0.113241 -0.59654,1.302102 0.16369,1.860902 0.0854,0.06244 0.53764,0.418396 1.37372,0.125941 0.28857,-0.100893 1.1176,-0.46496 1.34444,-0.910166 0.078,-0.158044 0.13299,-0.388054 0.11818,-0.735894 0,0 0.46284,-0.01304 0.57855,-0.6223 0.0152,-0.04374 0.0152,-0.150635 0.0631,-0.03069 0.0483,0.120299 0.12312,0.390877 0.13547,0.726724 0.006,0.164041 0.0716,1.019878 0.8075,1.008591 0.0984,-0.0013 0.50165,-0.08079 0.73978,-0.560916 0.0808,0.117826 0.26211,0.569028 0.87524,0.432151 0.11853,-0.02646 0.52811,-0.228951 0.48013,-0.9779 -0.0106,-0.176741 -0.43215,-3.215568 -0.43215,-3.215568 0,0 0.16686,0.153458 0.19861,0.18697 0.0317,0.03352 0.0702,0.01553 0.0519,-0.03845 -0.018,-0.05362 -0.38947,-0.991658 -0.40252,-1.025525 -0.013,-0.03387 -0.0261,-0.05821 -0.0427,-0.01905 m -1.17475,0.148874 c -0.1464,0.212725 -0.15098,0.48895 -0.16545,0.797276 -0.0222,-0.06421 -0.14993,-0.475191 -0.53834,-0.705201 -0.0282,-0.01659 -0.084,0.01693 -0.0878,0.113945 -0.002,0.05715 -0.0141,0.195088 0.0229,0.233188 0.037,0.03845 0.1457,0.113242 0.16369,0.123825 0.0183,0.01058 0.0374,0.01164 0.0427,-0.01236 0.005,-0.02363 0.0282,-0.07867 0.0639,-0.03986 0.03,0.03211 0.22189,0.200732 0.32702,0.56374 0.018,0.04798 0.0586,0.05221 0.0667,-0.01659 0.0198,-0.169333 0.0268,-0.462137 0.0374,-0.551391 0.0148,-0.124883 0.0642,-0.383117 0.21061,-0.251883 0.0332,0.02999 0.0684,0.0695 0.0684,0.0695 0.0318,0.04128 0.0705,0.08925 0.0885,0.04022 0.0268,-0.07408 0.0469,-0.19685 0.0148,-0.262466 -0.0141,-0.02893 -0.19685,-0.273757 -0.31503,-0.101952 m 3.90313,0.118179 c -0.0702,0.106539 -0.12206,0.362656 -0.0222,0.435681 0.10019,0.07303 0.24659,0.132292 0.24659,0.132292 -0.46602,0.570793 -0.78458,0.680156 -1.05692,0.83961 -0.0706,0.04127 -0.0564,0.07796 -0.0155,0.06703 0.0215,-0.0056 0.3877,-0.0628 0.81598,-0.387704 0.23142,-0.176035 0.37147,-0.476602 0.37147,-0.476602 0,0 0.11606,0.09666 0.13159,0.116417 0.0353,0.04339 0.0543,0.07585 0.0709,0.02963 0.061,-0.168627 -0.0251,-0.270581 -0.10759,-0.323144 0,0 0.0857,-0.263173 -0.0713,-0.527404 -0.0265,-0.0441 -0.18239,-0.18556 -0.36301,0.09419 m 0.24341,0.07267 c 0.10513,0.09772 0.0893,0.257881 0.085,0.294568 0,0 -0.13405,-0.06279 -0.19402,-0.08854 -0.06,-0.02574 -0.0914,-0.0635 -0.0635,-0.101955 0.0921,-0.129468 0.13758,-0.125235 0.1725,-0.104068 m -7.60765,-0.134409 c -0.1591,0.232127 -0.15099,0.523523 -0.1524,0.848784 -0.0289,-0.06632 -0.1965,-0.491067 -0.65687,-0.710494 -0.0335,-0.01587 -0.0967,0.02294 -0.096,0.125587 0,0.05962 -0.007,0.205317 0.0374,0.243771 0.0448,0.0381 0.17392,0.110419 0.19544,0.120296 0.0215,0.01024 0.0441,0.01024 0.0487,-0.01516 0.005,-0.02506 0.0293,-0.08432 0.072,-0.04586 0.0317,0.02787 0.2099,0.157337 0.34748,0.43815 0.11783,0.22366 -0.15839,0.611717 -0.15063,1.026229 0.001,0.09349 0.0494,0.278696 0.17815,0.289631 0.0667,0.0032 0.15522,-0.04551 0.22719,-0.271991 0.013,-0.05115 0.0215,-0.09243 0.0272,-0.112536 0.008,-0.03069 -0.0113,-0.06844 -0.0363,0.0013 -0.0554,0.13829 -0.18662,0.230365 -0.2727,0.03775 -0.0134,-0.0381 -0.0744,-0.213783 0.0656,-0.578908 0.11818,-0.308681 0.10477,-0.765175 0.11289,-0.859367 0.0106,-0.132646 0.0554,-0.407106 0.23106,-0.277989 0.0399,0.02963 0.0829,0.06914 0.0829,0.06914 0.0381,0.04198 0.0857,0.08996 0.10407,0.03704 0.0275,-0.07937 0.0452,-0.20955 0.005,-0.276929 -0.018,-0.02963 -0.24094,-0.27658 -0.37006,-0.08855 m 13.88639,0.15734 c -0.0699,0.106891 -0.12206,0.362653 -0.0222,0.435678 0.10018,0.07303 0.24659,0.132647 0.24659,0.132647 -0.46602,0.570793 -1.38042,0.976841 -1.59844,1.146527 -0.0646,0.04903 -0.0561,0.07796 -0.0152,0.06703 0.0367,-0.0099 0.73342,-0.20461 1.37054,-0.75071 0.2921,-0.249766 0.28399,-0.268816 0.35842,-0.420865 0.0631,0.03281 0.10654,0.08573 0.13159,0.116417 0.0349,0.04339 0.0543,0.07585 0.0706,0.02963 0.061,-0.168626 -0.0251,-0.270578 -0.10725,-0.323143 0,0 0.0854,-0.263173 -0.0716,-0.527402 -0.0265,-0.0441 -0.18204,-0.185563 -0.36301,0.09419 m 0.24377,0.07267 c 0.10477,0.09772 0.0889,0.257882 0.0847,0.294571 0,0 -0.13405,-0.0628 -0.19402,-0.08855 -0.0596,-0.0254 -0.0914,-0.06385 -0.0635,-0.101952 0.0921,-0.129471 0.13758,-0.125238 0.17286,-0.104071 m -12.56983,-0.14252 c -0.0639,0.160866 -0.32491,0.712962 -0.3302,1.381828 -0.001,0.154872 0.0639,0.459672 0.25083,0.478722 0.097,0.0056 0.22754,-0.07373 0.33902,-0.445559 0.0205,-0.08431 0.0342,-0.152048 0.0427,-0.185208 0.0124,-0.05045 -0.0141,-0.11289 -0.0529,0.0021 -0.0843,0.226835 -0.2787,0.377118 -0.39794,0.05927 -0.0187,-0.0628 -0.0953,-0.34925 0.11219,-0.952148 0.042,-0.117123 0.0959,-0.2921 0.0959,-0.2921 0.0462,-0.131585 0.005,-0.207433 -0.0596,-0.04692 m 10.78124,-0.02294 c -0.18309,0.232482 -0.19473,0.53834 -0.21907,0.879827 -0.0257,-0.07161 -0.1718,-0.529166 -0.63959,-0.790927 -0.0339,-0.01905 -0.10301,0.01693 -0.10936,0.124532 -0.004,0.06315 -0.0219,0.215193 0.0226,0.258937 0.0441,0.04304 0.17463,0.127706 0.19614,0.1397 0.0222,0.01198 0.0455,0.01376 0.0522,-0.0127 0.007,-0.02612 0.0367,-0.08678 0.079,-0.04339 0.0356,0.03634 0.26564,0.226838 0.38558,0.630767 0.0208,0.05327 0.0702,0.05856 0.0818,-0.01728 0.0275,-0.186974 0.0427,-0.511527 0.0572,-0.6096 0.0212,-0.13829 0.0871,-0.423334 0.26211,-0.275519 0.0399,0.03387 0.0819,0.07832 0.0819,0.07832 0.0374,0.04692 0.084,0.100187 0.10689,0.04621 0.0342,-0.08149 0.0621,-0.216959 0.0243,-0.289984 -0.0166,-0.03245 -0.23389,-0.307268 -0.38171,-0.118885 m -1.80022,-0.01093 c -0.0677,0.03916 -1.78788,1.032227 -1.85738,1.077029 -0.0695,0.0448 -0.0945,0.05645 -0.10583,0.110421 -0.0109,0.05362 -0.0166,0.08467 -0.0198,0.09313 -0.0124,0.03633 -0.0215,0.08043 0.0811,0.01341 0.0321,-0.02082 1.76212,-1.020234 1.8228,-1.058334 0.0582,-0.03634 0.0917,-0.05186 0.115,-0.107595 0.0233,-0.05574 0.0293,-0.06562 0.0416,-0.104423 0.0134,-0.04127 0.0268,-0.08502 -0.0776,-0.02363 m -6.80049,1.274586 c -0.0233,0.07232 -0.0409,0.12841 -0.009,0.211666 0.0314,0.0829 0.11642,0.270934 0.13053,0.297744 0.0141,0.02681 0.0177,0.0575 -0.0293,0.07726 -0.0466,0.01976 -0.26035,0.06527 -0.30021,-0.162629 -0.0399,-0.227896 -0.043,-0.294216 -0.0632,-0.333023 -0.0198,-0.03845 -0.0385,-0.04304 -0.0536,-0.0042 -0.0152,0.03845 -0.0247,0.117827 -0.0272,0.130527 -0.002,0.01304 -0.002,0.02223 0.006,0.03634 0.008,0.01376 0.0938,0.268816 0.055,0.338666 -0.0385,0.0702 -0.23001,0.196496 -0.3309,0.0642 -0.0476,-0.09207 -0.0183,-0.325612 -0.0183,-0.380645 0,-0.05503 -0.018,-0.07373 -0.0409,-0.02928 -0.0236,0.04445 -0.0363,0.07373 -0.0353,0.113594 0.001,0.03951 0.007,0.210256 0.004,0.263879 -0.004,0.05397 0,0.227894 0.10301,0.276929 0.10266,0.04904 0.25224,0.0035 0.36548,-0.210254 0.0878,0.127352 0.22084,0.127704 0.29245,0.1016 0.0607,-0.02222 0.12841,-0.113241 0.14817,-0.239537 0.0198,-0.126294 -0.0127,-0.212725 -0.0526,-0.283986 -0.0526,-0.08784 -0.0878,-0.23495 -0.0878,-0.23495 -0.0183,-0.05256 -0.0328,-0.106185 -0.0557,-0.03387 m 7.13069,0.08008 c -0.0342,0.08431 -0.17851,0.375002 -0.15663,0.717196 0.005,0.07938 0.0575,0.233539 0.17674,0.237773 0.0617,-2.65e-4 0.14111,-0.04516 0.19791,-0.238832 0.01,-0.04374 0.0159,-0.07867 0.0201,-0.09595 0.006,-0.02646 -0.0134,-0.0575 -0.0332,0.0028 -0.0452,0.118534 -0.16228,0.201438 -0.25013,0.04233 -0.0145,-0.0314 -0.0734,-0.175684 0.0353,-0.491067 0.0219,-0.06068 0.0494,-0.152045 0.0494,-0.152045 0.0247,-0.06915 -0.005,-0.10654 -0.0395,-0.02222 m 3.30729,0.173212 c -0.0318,0.07796 -0.1651,0.347133 -0.14499,0.664281 0.005,0.07303 0.0533,0.2159 0.16369,0.219782 0.0572,-2.65e-4 0.13088,-0.04163 0.18309,-0.22084 0.009,-0.04057 0.0148,-0.07302 0.0187,-0.08925 0.006,-0.024 -0.0124,-0.05292 -0.0307,0.0028 -0.042,0.109715 -0.15029,0.186621 -0.23142,0.03951 -0.013,-0.02963 -0.0681,-0.162983 0.0325,-0.454731 0.0201,-0.0568 0.0459,-0.140759 0.0459,-0.140759 0.0226,-0.06421 -0.005,-0.09878 -0.0367,-0.02082 m -6.20642,0.0085 -0.16792,0.230717 -0.32314,-0.235654 c -0.008,-0.0056 -0.0198,-0.0035 -0.0261,0.0049 l -0.19473,0.267406 c -0.006,0.0085 -0.005,0.02011 0.003,0.02574 l 0.33302,0.242713 c 0.008,0.006 0.0194,0.0039 0.0257,-0.0046 l 0.16828,-0.230717 0.32314,0.235305 c 0.008,0.006 0.0194,0.0039 0.0254,-0.0046 l 0.19509,-0.267404 c 0.006,-0.0085 0.005,-0.02011 -0.003,-0.02574 l -0.33302,-0.243063 c -0.008,-0.0056 -0.0194,-0.0035 -0.0257,0.0049 m -4.36175,1.211088 -0.19508,0.267758 c -0.006,0.0085 -0.005,0.02011 0.004,0.02574 l 0.33267,0.24271 c 0.008,0.006 0.0198,0.0039 0.0258,-0.0046 l 0.16863,-0.230716 0.32279,0.235301 c 0.008,0.006 0.0198,0.0039 0.0257,-0.0046 l 0.19509,-0.267406 c 0.006,-0.0085 0.005,-0.02045 -0.004,-0.02611 l -0.33267,-0.242713 c -0.008,-0.0056 -0.0198,-0.0039 -0.0257,0.0046 l -0.16828,0.231068 -0.32314,-0.235656 c -0.008,-0.0056 -0.0198,-0.0039 -0.0257,0.0046 m -3.6583,0.148519 -0.19509,0.267758 c -0.006,0.0085 -0.005,0.01976 0.003,0.02574 l 0.33302,0.242713 c 0.008,0.0056 0.0194,0.0039 0.0257,-0.0049 l 0.19473,-0.267406 c 0.006,-0.0085 0.005,-0.02011 -0.003,-0.02574 l -0.33267,-0.24271 c -0.008,-0.006 -0.0198,-0.0039 -0.0257,0.0046 m -0.0148,0.954265 c -0.031,0.07479 -0.15875,0.332668 -0.13935,0.636762 0.005,0.0702 0.0511,0.207081 0.15699,0.210608 0.0547,-2.65e-4 0.12523,-0.03986 0.17533,-0.211667 0.009,-0.0388 0.0145,-0.06985 0.0176,-0.08502 0.006,-0.02328 -0.0116,-0.0508 -0.0293,0.0021 -0.0399,0.105482 -0.14393,0.179211 -0.22189,0.03775 -0.0124,-0.02787 -0.0649,-0.155575 0.0314,-0.435682 0.0194,-0.05433 0.0437,-0.135115 0.0437,-0.135115 0.0219,-0.06068 -0.004,-0.09419 -0.0346,-0.01976 m 9.33837,-1.897946 c -0.013,0.04516 -0.0455,0.23989 -0.0536,0.280106 -0.008,0.03987 -0.007,0.07973 0.0127,0.113948 0.0194,0.03422 0.0702,0.1524 0.1069,0.249061 0.0363,0.09631 0.41416,0.824089 0.44908,0.888648 0.0349,0.06456 0.0423,0.112535 0.007,0.154868 -1.21249,1.279877 -3.55247,2.066573 -3.62726,2.109965 -0.0748,0.04374 -0.055,0.07761 0.0706,0.05539 0.18874,-0.03316 1.23966,-0.208843 1.53917,-0.353131 0.19791,-0.09525 0.88794,-0.434269 1.45238,-0.876652 -0.0155,0.113948 -0.03,0.282223 -0.0222,0.4953 0.0381,1.029052 0.9585,0.858308 1.1998,0.805392 0.7239,-0.159102 1.60866,-1.158875 1.68416,-1.359959 0.0741,-0.198615 0.0847,-0.37959 0.0681,-0.537633 0.19086,-0.103365 0.60008,-0.43321 0.60008,-0.43321 0.0166,0.438502 0.36583,0.570793 0.47343,0.589491 0.50341,0.07655 0.756,-0.344313 0.86324,-0.480838 0.0914,0.240597 0.31221,0.287163 0.42545,0.30974 0.43427,0.08608 0.51929,-0.22084 0.54152,-0.291041 0.13617,-0.423334 -0.10936,-0.739424 -0.14076,-0.774349 -0.0314,-0.03493 -0.0476,-0.0013 -0.0586,0.03916 -0.0113,0.04057 -0.0462,0.193323 -0.0681,0.288573 0,0 0.0907,0.148167 0.12277,0.22366 0.0325,0.0755 -0.0155,0.116771 -0.10936,0.128058 -0.26388,0.03211 -0.47484,-0.118885 -0.54751,-0.189087 -0.0727,-0.06985 0.006,-0.193323 0.0645,-0.341138 0.0469,-0.117826 -0.0402,-0.132291 -0.10689,0 -0.22366,0.588788 -0.53834,0.652288 -0.62124,0.674865 -0.74612,0.2032 -0.68157,-0.478718 -0.6791,-0.59055 0.002,-0.111831 -0.0794,-0.07056 -0.17109,0.0032 -0.31398,0.252235 -0.56692,0.40005 -0.70309,0.460727 -0.11712,-0.228952 -0.28716,-0.372885 -0.35877,-0.424743 -0.80751,-0.588786 -0.87383,0.599368 -0.84949,0.726723 0.12276,0.505177 0.94791,0.199318 1.07703,0.183795 0.12947,-0.01516 0.0871,0.155575 0.0145,0.257175 -0.17886,0.250121 -0.38558,0.429683 -0.57291,0.582083 -0.79939,0.65264 -1.20086,0.601134 -1.32468,0.597255 -0.78528,-0.02222 -0.71296,-0.868892 -0.66922,-1.049867 0.23601,-0.199673 0.43921,-0.417689 0.55739,-0.64135 0.0476,-0.123121 0.13053,-0.401814 -0.019,-0.751771 -0.0783,-0.15381 -0.32632,-0.585962 -0.32632,-0.585962 0,0 0.18239,0.0056 0.19967,0.0053 0.0173,-2.65e-4 0.0519,-0.01834 0.008,-0.0695 -0.0445,-0.05115 -0.42756,-0.433565 -0.45085,-0.463902 -0.0229,-0.03105 -0.0441,-0.05292 -0.0572,-0.0078 m 2.42218,1.7526 c 0,0 -0.11007,0.06315 -0.41769,0.04233 -0.25753,-0.01728 -0.23566,-0.117827 -0.20003,-0.155575 0.0381,-0.04163 0.35384,-0.240242 0.61772,0.113241 m -3.31682,-1.424868 c -0.0533,0.06632 -0.58949,0.76976 -0.58949,0.76976 l -0.39017,-0.277987 c 0,0 0.1591,-0.03951 0.18697,-0.04763 0.0275,-0.0081 0.0434,-0.0441 -0.006,-0.06985 -0.0501,-0.0254 -0.52035,-0.21308 -0.55598,-0.227896 -0.036,-0.0141 -0.0487,-0.03069 -0.0519,0.0078 -0.003,0.03774 -0.009,0.347485 -0.009,0.347485 0,0 -0.007,0.02151 0.0339,0.0448 0.0413,0.02328 0.0815,0.07338 0.115,0.106892 0.0339,0.03387 0.47096,0.378883 0.49248,0.391231 0,0 -0.21907,0.384175 -0.24694,0.685094 -0.0275,0.300921 0.006,0.716491 0.41663,0.582438 0.11077,-0.03175 0.57185,-0.214842 0.67486,-0.536223 0.0332,-0.118534 0.12771,-0.331965 -0.0265,-0.548924 -0.0889,-0.127351 -0.44873,-0.342545 -0.44873,-0.342545 0,0 0.27622,-0.382058 0.30233,-0.428625 0.0268,-0.04692 0.12806,-0.342548 0.13935,-0.414515 0.0113,-0.07161 0.0169,-0.107243 -0.0367,-0.04128 m -0.0942,1.622777 c -0.15275,0.125942 -0.47414,0.2921 -0.56409,0.300567 -0.0903,0.0085 -0.32985,-0.03528 -0.22578,-0.280459 0.0356,-0.07973 0.27517,-0.48895 0.27517,-0.48895 0.0893,0.04868 0.66745,0.343255 0.5147,0.468842 m 6.23041,0.56233 c -0.0307,0.08608 -0.043,0.14252 -0.0399,0.175683 0.004,0.03281 0.0148,0.139345 0.0148,0.139345 -0.0321,0.0254 -0.16898,0.110774 -0.30586,0.01024 0.009,-0.02928 0.0272,-0.0889 0.031,-0.121357 0.0148,-0.0508 -0.0162,-0.08819 -0.0413,-0.03563 -0.0251,0.05256 -0.0829,0.227893 -0.12594,0.267052 -0.043,0.03986 -0.0935,0.184856 -0.41946,0.03739 -0.0568,-0.02188 -0.15698,-0.09631 -0.31291,0.06068 -0.35242,0.327728 -0.59584,0.353128 -0.9913,0.493535 -0.0476,0.02223 -0.14817,0.09737 -0.0289,0.08573 0.11924,-0.01199 0.62018,2.64e-4 0.89288,-0.312915 0.0572,-0.05539 0.12241,-0.201435 0.33902,-0.116768 0.11994,0.04586 0.34149,0.235656 0.58349,-0.140052 0.14253,0.09454 0.35878,0.0568 0.39335,-0.04798 0.0346,-0.104068 0.0744,-0.208492 0.0741,-0.279752 -7.9e-4,-0.07091 -0.007,-0.164748 -0.007,-0.164748 -0.005,-0.05644 -0.0247,-0.136877 -0.0564,-0.05044 m -9.14259,0.4318 c -0.0215,0.03316 -0.0381,0.06033 -0.0466,0.07303 -0.0134,0.01976 -0.007,0.05186 0.0282,0.0085 0.0751,-0.08431 0.19827,-0.115713 0.22084,0.04374 0.002,0.03069 0.005,0.168981 -0.1845,0.395817 -0.0378,0.04374 -0.0893,0.110418 -0.0893,0.110418 -0.042,0.04974 -0.03,0.08996 0.0254,0.0314 0.0554,-0.05927 0.26705,-0.254706 0.35701,-0.545393 0.0208,-0.06738 0.0261,-0.211667 -0.0713,-0.252942 -0.0512,-0.01939 -0.13159,-0.0074 -0.23989,0.135467 m -0.53164,0.21096 c -0.0741,0.02469 -1.31374,0.438856 -1.39629,0.472016 -0.0769,0.03034 -0.0974,0.05009 -0.11219,0.103011 -0.0145,0.05292 -0.0222,0.08361 -0.0257,0.09207 -0.0148,0.03528 -0.0332,0.06491 0.0801,0.01871 0.055,-0.02294 1.282,-0.421217 1.36031,-0.455435 0.0628,-0.02752 0.0949,-0.04586 0.12206,-0.09984 0.0265,-0.05433 0.0332,-0.0642 0.048,-0.101952 0.0159,-0.04022 0.0346,-0.06491 -0.0762,-0.02858 m -2.42923,0.328083 -0.16827,0.230717 -0.32315,-0.235302 c -0.008,-0.006 -0.0194,-0.0039 -0.0257,0.0046 l -0.19509,0.267407 c -0.006,0.0088 -0.005,0.02011 0.004,0.02611 l 0.33267,0.242713 c 0.008,0.006 0.0198,0.0039 0.0258,-0.0049 l 0.16827,-0.230717 0.3228,0.235657 c 0.008,0.006 0.0198,0.0039 0.0257,-0.0049 l 0.19544,-0.267052 c 0.006,-0.0088 0.005,-0.02045 -0.004,-0.02646 l -0.33267,-0.242358 c -0.008,-0.006 -0.0198,-0.0039 -0.0257,0.0046 m -1.13277,0.03034 c -0.0744,0.02434 -1.15676,0.416277 -1.23967,0.449437 -0.0769,0.03069 -0.0977,0.05045 -0.11218,0.103013 -0.0148,0.05292 -0.0222,0.08396 -0.0257,0.09243 -0.0148,0.03493 -0.0332,0.06526 0.0801,0.01834 0.055,-0.02294 1.12536,-0.398285 1.20332,-0.432858 0.0632,-0.02716 0.0952,-0.04586 0.12206,-0.09983 0.0268,-0.05433 0.0335,-0.06385 0.0483,-0.1016 0.0159,-0.04022 0.0346,-0.06491 -0.0762,-0.02893"
       style="fill:#231f20;fill-opacity:1;fill-rule:evenodd;stroke:none;stroke-width:0.264583"
       id="path1" />
  </g>
</svg>
