<?xml version="1.0" encoding="UTF-8" standalone="no"?>
<!-- Created with Inkscape (http://www.inkscape.org/) -->

<svg
   width="18.328419mm"
   height="6.8928328mm"
   viewBox="0 0 18.328419 6.8928328"
   version="1.1"
   id="svg1"
   xmlns="http://www.w3.org/2000/svg"
   xmlns:svg="http://www.w3.org/2000/svg">
  <defs
     id="defs1" />
  <g
     id="layer1"
     transform="translate(-164.96502,-30.80137)">
    <path
       d="m 169.43818,30.820113 c -0.0222,0.01024 -1.06574,0.464608 -1.49684,0.65546 -0.0413,0.01799 -0.44344,0.17145 -0.59725,0.405342 -0.14781,0.2413 -0.0755,0.379237 2.7e-4,0.420512 0.0755,0.04163 0.11147,0.09878 0.1397,0.155221 0.16721,-0.303035 -0.0557,-0.259996 -0.15981,-0.403577 -0.0519,-0.07091 0.36407,-0.303742 0.6918,-0.445558 0.94967,-0.419452 1.385,-0.602544 1.3977,-0.6096 0.0148,-0.0071 0.0265,-0.01516 0.0282,-0.02434 0.001,-0.0092 0.0406,-0.137231 0.0459,-0.160867 0.005,-0.024 -0.024,-0.0042 -0.0497,0.0074 m 6.11153,0.597958 c -0.0699,0.106185 -0.12207,0.362302 -0.0222,0.434975 0.10019,0.07373 0.24659,0.132998 0.24659,0.132998 -0.46602,0.570794 -0.78458,0.679802 -1.05692,0.83961 -0.0702,0.04057 -0.0564,0.07796 -0.0152,0.06632 0.0212,-0.0053 0.3877,-0.06209 0.81562,-0.38735 0.23177,-0.175683 0.37183,-0.47625 0.37183,-0.47625 0,0 0.11571,0.09631 0.13158,0.116063 0.0349,0.04375 0.0543,0.07585 0.0706,0.02999 0.061,-0.168981 -0.0251,-0.270581 -0.10725,-0.323498 0,0 0.0854,-0.263525 -0.0716,-0.527402 -0.0265,-0.0441 -0.18203,-0.185208 -0.36301,0.09454 m 0.24377,0.07232 c 0.10478,0.09737 0.0889,0.257529 0.0847,0.294571 0,0 -0.13406,-0.0628 -0.19403,-0.08855 -0.06,-0.02574 -0.0914,-0.06385 -0.0635,-0.1016 0.0924,-0.130175 0.13759,-0.12559 0.17286,-0.104423 m -1.70215,-0.171802 c -0.0162,0.03916 -0.13723,0.335843 -0.13723,0.335843 0.003,0.01765 0.036,0.147109 0.0427,0.195792 0.0561,0.428273 0.40675,2.959806 0.50729,3.759906 0.0501,0.394404 0.0882,0.748594 0.0938,0.938742 -0.005,0.05891 0.0212,0.08078 0.048,0.02434 0.0148,-0.03034 0.0751,-0.15593 0.0935,-0.484013 0.0141,-0.246592 -0.006,-0.625827 -0.0762,-1.147234 -0.0102,-0.07585 -0.37535,-2.719914 -0.37535,-2.719914 0,0 0.1972,0.184854 0.2286,0.218369 0.0317,0.03352 0.0702,0.01588 0.0522,-0.0381 -0.018,-0.05398 -0.42192,-1.030465 -0.43498,-1.064683 -0.013,-0.03351 -0.0261,-0.05821 -0.0423,-0.01905 m -1.19345,0.01236 c -0.0138,0.04022 -0.12559,0.333375 -0.12559,0.333375 0.005,0.02294 0.0402,0.09102 0.0699,0.233537 0.0314,0.148166 0.63007,3.16865 0.66252,3.318581 0.0317,0.149929 0.0416,0.249412 -0.0342,0.317146 -0.0759,0.06773 -0.56832,0.443796 -1.06433,0.161925 -0.0674,-0.0381 -0.1404,-0.09984 -0.2166,-0.172509 0.26881,-0.152045 0.55703,-0.306562 0.79092,-0.408162 0.0296,-0.104071 0.0833,-0.386998 0.0833,-0.386998 -0.16369,-0.07444 -1.19063,-0.389818 -2.11067,0.01799 -0.0801,0.04445 -0.16933,0.107243 -0.1965,0.196498 -0.0265,0.08925 -0.0324,0.1905 -0.0413,0.226129 -0.009,0.03563 0.0183,0.06562 0.0533,0.04163 0.23989,-0.16369 0.48789,-0.07232 0.52175,-0.05186 0.1136,0.0702 0.23495,0.180975 0.36266,0.305152 -0.16792,0.09208 -0.32879,0.174273 -0.44697,0.222602 -0.14252,0.0628 -1.38324,0.684038 -1.90959,-0.111477 -0.12876,-0.162277 -0.2801,-0.78105 -0.48718,-2.08915 -0.0445,-0.2794 -0.28011,-1.65241 -0.30833,-1.764594 -0.0279,-0.111477 -0.0614,-0.02222 -0.0783,0.01728 -0.0169,0.03881 -0.0995,0.307623 -0.0995,0.307623 0.0109,0.100541 0.22825,1.361016 0.25083,1.4986 0.0137,0.08467 0.10301,0.602898 0.18203,1.039635 -0.16016,0.351366 -0.39723,0.53481 -0.63253,0.625827 -0.0617,-0.159102 -0.13758,-0.265994 -0.18309,-0.329494 -0.31292,-0.435327 -0.58703,-0.231423 -0.67169,-0.16369 -0.27235,0.218723 -0.36442,0.711907 -0.0628,0.898173 0.28187,0.173919 0.64559,0.0508 0.71791,0.0321 0.0399,-0.0095 0.0776,-0.02117 0.1143,-0.03316 0.0487,0.210257 -0.009,0.521052 -0.80257,1.015294 -0.94615,0.589491 -1.47814,0.273404 -1.59244,0.222604 -0.68968,-0.308681 -0.40675,-1.330325 -0.37783,-1.461913 0.002,-0.01198 0.004,-0.02222 0.005,-0.03245 0.004,2.64e-4 0.008,0.0011 0.0124,0.0011 0.097,-0.0056 0.21802,-0.09384 0.28681,-0.450146 0.0109,-0.08008 0.0169,-0.144286 0.0215,-0.175684 0.007,-0.04798 -0.0265,-0.102658 -0.0519,0.0081 -0.0589,0.218723 -0.2346,0.37959 -0.38911,0.09913 -0.0254,-0.05609 -0.13371,-0.312209 0.005,-0.892527 0.0282,-0.113242 0.0621,-0.280459 0.0621,-0.280459 0.0314,-0.127 -0.0183,-0.192616 -0.0646,-0.03704 -0.0452,0.155927 -0.24236,0.695325 -0.17286,1.314095 0.0134,0.117827 0.0829,0.324908 0.21202,0.39229 -0.0388,0.13335 -0.13759,0.496004 -0.15417,0.793043 -0.0402,0.72884 0.3482,1.097492 0.72285,1.193094 0.91898,0.233188 1.69756,-0.415219 1.81045,-0.496004 0.62865,-0.448029 0.6417,-0.865013 0.647,-0.961673 0.006,-0.117123 0.001,-0.222602 -0.0109,-0.317852 0.3616,-0.17145 0.52952,-0.442031 0.60995,-0.631825 0.0233,0.122767 0.0427,0.219075 0.0547,0.266346 0.055,0.220133 0.17639,1.258358 1.44287,1.18745 0.502,-0.02822 1.06715,-0.375709 1.06715,-0.375709 0.0653,-0.03387 0.26211,-0.153103 0.5087,-0.297391 0.25788,0.246946 0.54046,0.484364 0.84561,0.529521 0.1457,0.02117 0.77505,0.0078 0.93733,-0.757063 0.0162,-0.09842 0.049,-0.650169 -0.0804,-1.16487 l -0.44274,-2.083152 c 0,0 0.20814,0.172508 0.24201,0.204258 0.0335,0.03139 0.0709,0.0113 0.0494,-0.04163 -0.0212,-0.05256 -0.48542,-1.001887 -0.50024,-1.03505 -0.0155,-0.03281 -0.03,-0.0568 -0.0438,-0.01659 m -0.40252,3.638196 c 0,0 -0.24412,0.151693 -0.5334,0.319264 -0.11712,-0.125589 -0.23212,-0.249414 -0.33231,-0.330554 0.242,-0.02857 0.53128,-0.03316 0.86571,0.0113 m -4.78578,0.158399 c 0.0663,0.03951 0.12136,0.09031 0.16687,0.147108 -0.27482,0.04163 -0.50554,-0.01622 -0.5454,-0.03528 -0.0857,-0.04163 -0.0575,-0.09172 -0.0106,-0.12982 0.0981,-0.07973 0.30515,-0.03069 0.38911,0.01799 m 14.36264,-3.614209 c -0.0705,0.10654 -0.12241,0.362657 -0.0222,0.435327 0.0998,0.07338 0.24623,0.132646 0.24623,0.132646 -0.46566,0.571146 -1.38041,0.977194 -1.59808,1.146527 -0.0649,0.04974 -0.0564,0.07832 -0.0152,0.06738 0.0363,-0.0095 0.73307,-0.204965 1.37019,-0.750359 0.2921,-0.250473 0.28434,-0.269523 0.35842,-0.420864 0.0635,0.03246 0.10689,0.08537 0.13159,0.116064 0.0353,0.04374 0.0543,0.07585 0.0705,0.02999 0.061,-0.168982 -0.0251,-0.270934 -0.10689,-0.323499 0,0 0.0854,-0.26317 -0.072,-0.527401 -0.0264,-0.0441 -0.18167,-0.185561 -0.36265,0.09419 m 0.24342,0.07267 c 0.10477,0.09772 0.0892,0.257879 0.085,0.294569 0,0 -0.13406,-0.06315 -0.19403,-0.08855 -0.06,-0.02574 -0.0917,-0.06385 -0.0639,-0.101952 0.0924,-0.129469 0.13759,-0.124883 0.17287,-0.104069 m -1.78859,-0.165806 c -0.18309,0.233185 -0.19473,0.539043 -0.21907,0.880181 -0.0257,-0.07161 -0.17216,-0.528814 -0.63923,-0.790929 -0.0342,-0.01905 -0.10337,0.01693 -0.10937,0.124883 -0.004,0.0628 -0.0222,0.215196 0.0222,0.258233 0.0445,0.04304 0.17462,0.128059 0.19685,0.140055 0.0215,0.01199 0.0452,0.01341 0.0519,-0.0127 0.006,-0.02611 0.0363,-0.08643 0.0787,-0.04304 0.0356,0.03563 0.26599,0.226484 0.38558,0.630415 0.0208,0.05362 0.0702,0.05891 0.0819,-0.01728 0.0279,-0.186619 0.0427,-0.511175 0.0575,-0.609952 0.0208,-0.137935 0.0868,-0.422982 0.26176,-0.274815 0.0402,0.03352 0.0822,0.07832 0.0822,0.07832 0.0374,0.04657 0.0836,0.10019 0.10654,0.04586 0.0342,-0.08185 0.0621,-0.217313 0.0243,-0.290338 -0.0166,-0.03175 -0.23319,-0.306917 -0.38171,-0.118885 m -1.80022,-0.01093 c -0.0677,0.03986 -1.78753,1.032579 -1.85738,1.077735 -0.0695,0.04445 -0.0942,0.05609 -0.10548,0.109715 -0.0109,0.05398 -0.0169,0.08502 -0.0198,0.09349 -0.0127,0.03634 -0.0215,0.08079 0.0811,0.01342 0.0318,-0.02082 1.76177,-1.020588 1.82245,-1.058688 0.0582,-0.03563 0.0917,-0.05115 0.11536,-0.107244 0.0233,-0.05574 0.0293,-0.06562 0.0416,-0.104423 0.013,-0.04163 0.0265,-0.08502 -0.078,-0.024 m -7.18714,0.103716 c -0.0307,0.07479 -0.15875,0.332669 -0.13899,0.636762 0.005,0.07021 0.0512,0.207082 0.15663,0.210257 0.055,0 0.12559,-0.03951 0.17568,-0.211667 0.008,-0.03845 0.0141,-0.0695 0.0177,-0.08467 0.005,-0.02363 -0.0116,-0.05151 -0.0296,0.0021 -0.0395,0.105482 -0.14358,0.178507 -0.22155,0.03775 -0.0127,-0.02787 -0.0649,-0.155575 0.031,-0.435329 0.0194,-0.05468 0.0445,-0.135467 0.0445,-0.135467 0.0215,-0.06138 -0.005,-0.09419 -0.0353,-0.01976 m -1.35819,0.0769 c -0.1196,0.22084 -0.0854,0.478015 -0.0568,0.76694 -0.0317,-0.05609 -0.21943,-0.41769 -0.6477,-0.569031 -0.0311,-0.01093 -0.0836,0.02893 -0.0734,0.119946 0.006,0.05327 0.0127,0.182737 0.0557,0.212725 0.0434,0.02963 0.16475,0.08184 0.1845,0.08854 0.0201,0.0067 0.0399,0.0049 0.0416,-0.01799 0.002,-0.02222 0.018,-0.07796 0.0596,-0.04727 0.0349,0.02506 0.2547,0.150987 0.41275,0.471311 0.0247,0.04127 0.0674,0.03881 0.066,-0.02611 -0.004,-0.159808 -0.0381,-0.433917 -0.0399,-0.517877 -0.002,-0.118533 0.012,-0.365831 0.17957,-0.267758 0.0381,0.02257 0.0794,0.05362 0.0794,0.05362 0.0381,0.03351 0.0847,0.07197 0.096,0.02328 0.0169,-0.07303 0.0208,-0.190148 -0.0215,-0.245887 -0.0183,-0.024 -0.23919,-0.222602 -0.33585,-0.04445 m 2.33327,0.716846 c -0.0825,0.03775 -2.97815,1.436862 -3.06246,1.478137 -0.0843,0.04057 -0.10936,0.05821 -0.12488,0.117829 -0.0155,0.05927 -0.0233,0.09137 -0.0275,0.103717 -0.0138,0.04092 -0.0328,0.08184 0.0903,0.01939 0.0381,-0.01939 2.95558,-1.418519 3.0226,-1.458383 0.0663,-0.03916 0.10584,-0.05292 0.13547,-0.1143 0.0293,-0.06174 0.0363,-0.07232 0.0522,-0.115359 0.0177,-0.04551 0.0381,-0.08749 -0.0857,-0.03104 m -0.0762,0.86995 c -0.0303,0.07479 -0.15839,0.332316 -0.13899,0.636762 0.005,0.0702 0.0512,0.207081 0.15699,0.210256 0.0547,0 0.12523,-0.03986 0.17533,-0.211666 0.009,-0.03881 0.0141,-0.06985 0.018,-0.08502 0.005,-0.02328 -0.012,-0.05115 -0.0296,0.0021 -0.0399,0.105127 -0.14394,0.178858 -0.2219,0.0381 -0.0124,-0.02822 -0.0649,-0.156282 0.0314,-0.436034 0.0194,-0.05398 0.0441,-0.134762 0.0441,-0.134762 0.0215,-0.06138 -0.005,-0.0949 -0.0353,-0.01976 m -2.42781,1.193094 c -0.0307,0.07444 -0.15875,0.332668 -0.139,0.636058 0.005,0.07055 0.0512,0.207079 0.15664,0.210608 0.0547,0 0.12559,-0.03951 0.17568,-0.211314 0.008,-0.03881 0.0141,-0.0702 0.0177,-0.08537 0.005,-0.02328 -0.0116,-0.05045 -0.0296,0.0024 -0.0399,0.105479 -0.14394,0.178858 -0.22155,0.0381 -0.0127,-0.02822 -0.0653,-0.156282 0.0314,-0.436034 0.019,-0.05397 0.0437,-0.135114 0.0437,-0.135114 0.0215,-0.06068 -0.004,-0.09419 -0.0349,-0.01939 m -3.80824,-2.594682 c -0.15522,0.197557 -0.1651,0.456496 -0.18591,0.745773 -0.0219,-0.06068 -0.1457,-0.448027 -0.54187,-0.670631 -0.0289,-0.01622 -0.0871,0.01482 -0.0928,0.106188 -0.004,0.05292 -0.0187,0.182385 0.019,0.21872 0.0374,0.03704 0.14817,0.109009 0.16651,0.118534 0.0187,0.01058 0.0384,0.01198 0.0441,-0.01024 0.006,-0.02222 0.031,-0.07338 0.067,-0.03669 0.03,0.03069 0.22542,0.191911 0.32702,0.534459 0.0173,0.04551 0.0593,0.04939 0.0691,-0.01482 0.0236,-0.158043 0.0363,-0.43321 0.0487,-0.516818 0.0177,-0.116772 0.0737,-0.358775 0.22225,-0.233188 0.0335,0.02858 0.0691,0.06597 0.0691,0.06597 0.0318,0.03986 0.0713,0.08537 0.0907,0.03916 0.0289,-0.06915 0.0526,-0.183798 0.0204,-0.245888 -0.0141,-0.02752 -0.19791,-0.259995 -0.3235,-0.100541 m 12.85487,0.989189 c -0.0346,0.08432 -0.17886,0.37465 -0.15699,0.717199 0.005,0.07937 0.0575,0.233537 0.1771,0.237418 0.0614,0 0.14111,-0.0448 0.19755,-0.238477 0.01,-0.04375 0.0162,-0.07867 0.0205,-0.09596 0.006,-0.02611 -0.0138,-0.05715 -0.0335,0.0028 -0.0452,0.118533 -0.16228,0.201435 -0.25012,0.04233 -0.0141,-0.03175 -0.0734,-0.175683 0.0353,-0.490715 0.0219,-0.06138 0.0497,-0.1524 0.0497,-0.1524 0.0243,-0.06879 -0.005,-0.106185 -0.0395,-0.02222 m 3.30694,0.173215 c -0.0317,0.07796 -0.1651,0.347134 -0.14464,0.664279 0.005,0.07303 0.0533,0.2159 0.16334,0.219429 0.0572,0 0.13088,-0.04127 0.18344,-0.220839 0.009,-0.04057 0.0148,-0.07267 0.0183,-0.0889 0.006,-0.024 -0.012,-0.05292 -0.0307,0.0024 -0.0416,0.110067 -0.14994,0.186621 -0.23143,0.03916 -0.013,-0.02857 -0.0677,-0.162277 0.0328,-0.454025 0.0201,-0.05644 0.0459,-0.140758 0.0459,-0.140758 0.0222,-0.06385 -0.005,-0.09878 -0.037,-0.02082 m -6.20642,0.0085 -0.16827,0.230717 -0.3228,-0.235305 c -0.008,-0.0064 -0.0198,-0.0042 -0.0257,0.0046 l -0.19508,0.267052 c -0.006,0.0088 -0.005,0.02045 0.004,0.02646 l 0.33267,0.24271 c 0.008,0.0056 0.0198,0.0035 0.0258,-0.0049 l 0.16827,-0.230717 0.32279,0.235654 c 0.008,0.0056 0.0201,0.0035 0.0261,-0.0049 l 0.19473,-0.267407 c 0.006,-0.0085 0.005,-0.02011 -0.003,-0.02646 l -0.33267,-0.242007 c -0.008,-0.0063 -0.0198,-0.0042 -0.0261,0.0046 m -10.17128,0.265993 c -0.0349,0.09948 -0.18627,0.4445 -0.13829,0.8382 0.0116,0.09102 0.0836,0.265642 0.22472,0.262467 0.073,-0.0042 0.16404,-0.06103 0.21837,-0.288573 0.009,-0.05115 0.0138,-0.09207 0.0176,-0.112184 0.005,-0.03069 -0.0198,-0.06526 -0.0395,0.0056 -0.0455,0.1397 -0.1785,0.243417 -0.29245,0.06562 -0.019,-0.03563 -0.0984,-0.197909 0.01,-0.569032 0.0215,-0.07162 0.0487,-0.17921 0.0487,-0.17921 0.0243,-0.08114 -0.0127,-0.122415 -0.0487,-0.02294 m 11.47481,0.149577 c -0.0131,0.04551 -0.0455,0.240241 -0.0536,0.280106 -0.008,0.04022 -0.007,0.08008 0.0127,0.1143 0.0198,0.03387 0.0706,0.152752 0.10689,0.24906 0.0367,0.09596 0.41452,0.824442 0.44944,0.888648 0.0346,0.06456 0.042,0.112184 0.007,0.155221 -1.21285,1.279525 -3.55283,2.066573 -3.62762,2.109613 -0.0748,0.04374 -0.055,0.07761 0.0709,0.05503 0.18839,-0.03246 1.23931,-0.208846 1.53953,-0.353131 0.1972,-0.0949 0.88758,-0.433565 1.45203,-0.8763 -0.0159,0.1143 -0.0303,0.282223 -0.0222,0.4953 0.0381,1.029051 0.9585,0.85866 1.1998,0.805391 0.72355,-0.15875 1.60867,-1.159227 1.68381,-1.359958 0.0744,-0.198615 0.085,-0.37959 0.0681,-0.537633 0.19085,-0.103011 0.60007,-0.433565 0.60007,-0.433565 0.0169,0.438856 0.36583,0.570796 0.47343,0.589846 0.50376,0.07655 0.756,-0.344665 0.86325,-0.480483 0.0914,0.239887 0.3122,0.286808 0.4258,0.309737 0.43427,0.08608 0.51858,-0.220837 0.54116,-0.291394 0.13652,-0.423685 -0.10936,-0.73942 -0.14076,-0.774345 -0.0314,-0.03528 -0.0476,-0.0013 -0.0589,0.03916 -0.0109,0.04057 -0.0459,0.192969 -0.0677,0.288922 0,0 0.0907,0.147815 0.12312,0.223309 0.0321,0.07514 -0.0159,0.116771 -0.10936,0.128058 -0.26423,0.03211 -0.47519,-0.119237 -0.54786,-0.188735 -0.0727,-0.07056 0.006,-0.193675 0.0649,-0.341135 0.0469,-0.118182 -0.0402,-0.132644 -0.10725,-7.94e-4 -0.22366,0.58914 -0.53869,0.65264 -0.62124,0.675217 -0.74612,0.2032 -0.68192,-0.478719 -0.6791,-0.59055 0.002,-0.111829 -0.079,-0.07055 -0.17109,0.0035 -0.31362,0.251528 -0.56692,0.399695 -0.70273,0.460726 -0.11713,-0.229658 -0.28717,-0.372887 -0.35913,-0.425098 -0.80716,-0.588433 -0.87383,0.599369 -0.84949,0.726723 0.12312,0.505177 0.94756,0.198967 1.07703,0.18415 0.12911,-0.01553 0.0871,0.155221 0.0148,0.256469 -0.17921,0.250473 -0.38593,0.430035 -0.57291,0.582435 -0.79974,0.65264 -1.2012,0.601488 -1.32468,0.5969 -0.78528,-0.02222 -0.71296,-0.868185 -0.66957,-1.04916 0.23636,-0.200025 0.43921,-0.418042 0.55704,-0.641702 0.0483,-0.122767 0.13123,-0.401815 -0.0183,-0.751417 -0.0787,-0.154164 -0.32667,-0.586316 -0.32667,-0.586316 0,0 0.18274,0.0056 0.20002,0.0053 0.0173,0 0.0515,-0.01833 0.007,-0.0695 -0.0444,-0.05115 -0.42756,-0.43321 -0.45085,-0.464253 -0.0233,-0.03069 -0.0441,-0.05292 -0.0571,-0.0078 m 2.42217,1.7526 c 0,0 -0.11006,0.0635 -0.41733,0.04268 -0.25788,-0.01728 -0.23566,-0.117826 -0.20038,-0.155926 0.0385,-0.04127 0.35384,-0.240242 0.61771,0.113241 m -12.43188,-1.315508 -0.16828,0.231071 -0.32314,-0.235656 c -0.008,-0.006 -0.0194,-0.0039 -0.0257,0.0046 l -0.19509,0.267406 c -0.006,0.0088 -0.005,0.02011 0.004,0.02646 l 0.33267,0.242358 c 0.008,0.006 0.0198,0.0039 0.0257,-0.0049 l 0.16827,-0.230716 0.32315,0.235656 c 0.008,0.006 0.0198,0.0039 0.0257,-0.0049 l 0.19509,-0.267051 c 0.006,-0.0085 0.005,-0.02045 -0.004,-0.02646 l -0.33267,-0.242358 c -0.008,-0.006 -0.0198,-0.0039 -0.0257,0.0046 m -1.14406,1.376892 c -0.0321,0.09031 -0.16934,0.403577 -0.12559,0.761293 0.0102,0.08255 0.0758,0.2413 0.2039,0.237773 0.066,-0.0039 0.14888,-0.05539 0.19827,-0.26176 0.008,-0.04621 0.0123,-0.08396 0.0155,-0.1016 0.005,-0.02787 -0.0177,-0.05962 -0.0353,0.0042 -0.0416,0.127351 -0.16228,0.221191 -0.26599,0.05997 -0.0169,-0.0321 -0.0893,-0.179562 0.009,-0.516467 0.0198,-0.06526 0.0441,-0.162628 0.0441,-0.162628 0.0222,-0.07338 -0.0117,-0.111125 -0.0437,-0.02082 m 10.25948,-1.4859 c -0.0533,0.06632 -0.58949,0.770115 -0.58949,0.770115 l -0.39017,-0.27799 c 0,0 0.15875,-0.04022 0.18662,-0.04798 0.0279,-0.0085 0.0437,-0.0441 -0.006,-0.06985 -0.0501,-0.02574 -0.52035,-0.213077 -0.55598,-0.227542 -0.0356,-0.01482 -0.0487,-0.03104 -0.0519,0.0074 -0.003,0.03775 -0.008,0.347485 -0.008,0.347485 0,0 -0.007,0.02151 0.0339,0.04516 0.0409,0.02294 0.0811,0.07302 0.11466,0.106892 0.0339,0.03316 0.47131,0.378529 0.49247,0.390525 0,0 -0.21872,0.384527 -0.24659,0.685094 -0.0279,0.301273 0.005,0.716843 0.41663,0.582789 0.11077,-0.03175 0.57115,-0.215196 0.67451,-0.536223 0.0335,-0.118181 0.12806,-0.331965 -0.0261,-0.548923 -0.0893,-0.127704 -0.44909,-0.342545 -0.44909,-0.342545 0,0 0.27623,-0.381707 0.30269,-0.428977 0.0264,-0.04621 0.1277,-0.342548 0.13899,-0.414163 0.0113,-0.07161 0.0169,-0.107244 -0.0363,-0.04127 m -0.0942,1.622777 c -0.1531,0.125941 -0.47413,0.291748 -0.56444,0.300566 -0.09,0.0088 -0.32985,-0.03528 -0.22543,-0.280458 0.0353,-0.07937 0.27482,-0.48895 0.27482,-0.48895 0.0896,0.04904 0.66745,0.343255 0.51505,0.468842 m 6.23041,0.561975 c -0.0314,0.08643 -0.043,0.143229 -0.0402,0.175683 0.004,0.03281 0.0148,0.139348 0.0148,0.139348 -0.0321,0.02611 -0.16863,0.111125 -0.30551,0.01058 0.009,-0.02928 0.0268,-0.0889 0.0311,-0.121357 0.0148,-0.05044 -0.0162,-0.08819 -0.0416,-0.03598 -0.0247,0.05256 -0.0829,0.228248 -0.12594,0.267758 -0.043,0.03951 -0.0935,0.184505 -0.41945,0.03669 -0.0572,-0.02151 -0.15699,-0.0956 -0.31256,0.06068 -0.35278,0.328083 -0.5962,0.353483 -0.99166,0.49389 -0.0476,0.02222 -0.14782,0.09772 -0.0286,0.08572 0.11889,-0.01199 0.61983,2.65e-4 0.89288,-0.312914 0.0571,-0.05503 0.12207,-0.201435 0.33867,-0.116769 0.11995,0.04586 0.34184,0.235657 0.58385,-0.140406 0.14217,0.0949 0.35842,0.05715 0.39335,-0.04727 0.0346,-0.104775 0.0741,-0.208846 0.0737,-0.279754 -2.6e-4,-0.07126 -0.007,-0.165452 -0.007,-0.165452 -0.005,-0.05574 -0.0247,-0.136525 -0.0561,-0.05045 m -8.91963,0.362304 c -0.0183,0.03493 -0.0314,0.0642 -0.0388,0.07796 -0.0113,0.02117 -0.001,0.05221 0.0293,0.0049 0.0653,-0.09172 0.18451,-0.136877 0.22402,0.01976 0.005,0.03069 0.0236,0.167217 -0.14076,0.413809 -0.0325,0.04692 -0.0765,0.119237 -0.0765,0.119237 -0.0363,0.05362 -0.0198,0.09243 0.0286,0.02822 0.0487,-0.06491 0.23777,-0.281517 0.29598,-0.580673 0.0134,-0.06914 0.003,-0.213077 -0.0984,-0.243769 -0.0529,-0.01341 -0.13123,0.0067 -0.2233,0.160515 m -2.25461,0.214487 c -0.024,0.03175 -0.042,0.05751 -0.0515,0.06985 -0.0148,0.01905 -0.0106,0.05151 0.0279,0.01058 0.0804,-0.07937 0.20532,-0.102659 0.21696,0.05821 0,0.03069 -0.006,0.168629 -0.20991,0.382765 -0.0402,0.04092 -0.0967,0.104423 -0.0967,0.104423 -0.0448,0.04621 -0.0353,0.08784 0.024,0.0321 0.0586,-0.05503 0.28258,-0.236009 0.39158,-0.519994 0.0254,-0.06562 0.0402,-0.20955 -0.0543,-0.256823 -0.0497,-0.02294 -0.13052,-0.01622 -0.248,0.118885 m -2.91712,0.421571 c -0.0695,0.03493 -1.37513,0.537279 -1.44744,0.57785 -0.0727,0.04022 -0.0981,0.05009 -0.11254,0.103363 -0.0145,0.05292 -0.0222,0.08326 -0.0257,0.09208 -0.0148,0.03493 -0.0265,0.07902 0.0801,0.01834 0.0335,-0.01905 1.35255,-0.527404 1.41217,-0.561271 0.0596,-0.03422 0.0949,-0.04586 0.1217,-0.100187 0.0268,-0.05433 0.0335,-0.0635 0.0483,-0.1016 0.0159,-0.04057 0.0317,-0.08326 -0.0766,-0.02857"
       style="fill:#231f20;fill-opacity:1;fill-rule:evenodd;stroke:none;stroke-width:0.264583"
       id="path1" />
  </g>
</svg>
