<?xml version="1.0" encoding="UTF-8" standalone="no"?>
<!-- Created with Inkscape (http://www.inkscape.org/) -->

<svg
   width="20.304995mm"
   height="6.2402849mm"
   viewBox="0 0 20.304995 6.2402849"
   version="1.1"
   id="svg1"
   xmlns="http://www.w3.org/2000/svg"
   xmlns:svg="http://www.w3.org/2000/svg">
  <defs
     id="defs1" />
  <g
     id="layer1"
     transform="translate(-167.14652,-36.9654)">
    <path
       d="m 179.70958,37.134376 c -0.0699,0.10654 -0.12241,0.362657 -0.0222,0.43533 0.10019,0.07373 0.24659,0.132995 0.24659,0.132995 -0.46602,0.570796 -0.78458,0.679805 -1.05727,0.839613 -0.0702,0.04057 -0.0557,0.07761 -0.0152,0.06668 0.0215,-0.006 0.3877,-0.0628 0.81597,-0.387704 0.23142,-0.176036 0.37183,-0.47625 0.37183,-0.47625 0,0 0.11571,0.09666 0.13159,0.116064 0.0353,0.04374 0.054,0.07585 0.0705,0.02999 0.0614,-0.168979 -0.0251,-0.270934 -0.10724,-0.323496 0,0 0.0857,-0.263173 -0.072,-0.52705 -0.0261,-0.04445 -0.18168,-0.185563 -0.36266,0.09384 m 0.24342,0.07267 c 0.10513,0.09772 0.0889,0.257882 0.0854,0.294569 0,0 -0.13405,-0.06279 -0.19438,-0.08855 -0.0596,-0.02574 -0.0914,-0.0635 -0.0639,-0.1016 0.0924,-0.130175 0.13829,-0.125589 0.17286,-0.104423 m 6.27874,0.02294 c -0.0699,0.106537 -0.12171,0.362654 -0.0219,0.435327 0.0998,0.07373 0.24624,0.132998 0.24624,0.132998 -0.46567,0.570793 -1.38042,0.976841 -1.59809,1.146527 -0.0649,0.04939 -0.0564,0.07796 -0.0152,0.06703 0.036,-0.0099 0.73343,-0.204611 1.37054,-0.750359 0.29175,-0.25047 0.28399,-0.268816 0.35772,-0.420862 0.0639,0.03245 0.1076,0.08537 0.13194,0.116062 0.0353,0.04375 0.0543,0.07585 0.0709,0.02999 0.0607,-0.168981 -0.0254,-0.270933 -0.10725,-0.323498 0,0 0.085,-0.263173 -0.0716,-0.52705 -0.0265,-0.04445 -0.18203,-0.18556 -0.36336,0.09384 m 0.24377,0.07267 c 0.10513,0.09772 0.0889,0.257882 0.0847,0.294571 0,0 -0.1337,-0.0628 -0.19367,-0.08855 -0.06,-0.0254 -0.0917,-0.0635 -0.0639,-0.1016 0.0924,-0.130175 0.13758,-0.125589 0.17286,-0.104423 m -1.78859,-0.165452 c -0.18309,0.232482 -0.19473,0.538692 -0.21907,0.879827 -0.0257,-0.07161 -0.1718,-0.528812 -0.63959,-0.790927 -0.0339,-0.01905 -0.10265,0.01728 -0.10936,0.124884 -0.004,0.06279 -0.0215,0.215193 0.0229,0.258585 0.0441,0.04304 0.17428,0.127706 0.19579,0.1397 0.0226,0.01199 0.0459,0.01376 0.0526,-0.01236 0.006,-0.02611 0.036,-0.08678 0.0787,-0.04339 0.0356,0.03598 0.26599,0.226484 0.38559,0.630412 0.0208,0.05362 0.0702,0.05891 0.0822,-0.01728 0.0275,-0.186619 0.0423,-0.511175 0.0571,-0.6096 0.0205,-0.13829 0.0868,-0.423333 0.26212,-0.275167 0.0395,0.03352 0.0815,0.07797 0.0815,0.07797 0.0374,0.04657 0.0847,0.100542 0.10689,0.04621 0.0346,-0.08149 0.0624,-0.216958 0.0243,-0.289983 -0.0166,-0.03245 -0.23389,-0.306917 -0.38171,-0.118885 m -1.80022,-0.01093 c -0.0674,0.03951 -1.78753,1.032227 -1.85738,1.077384 -0.0695,0.04445 -0.0942,0.05609 -0.10547,0.110066 -0.0113,0.05362 -0.0169,0.08467 -0.0198,0.09349 -0.0123,0.03563 -0.0215,0.08008 0.0811,0.01341 0.0317,-0.02117 1.76177,-1.02094 1.82245,-1.058688 0.0582,-0.03634 0.0921,-0.05186 0.115,-0.107595 0.0236,-0.05539 0.0293,-0.06562 0.042,-0.104423 0.0134,-0.04092 0.0268,-0.08502 -0.078,-0.02363 m -4.66867,-3.83e-4 c -0.0166,0.03845 -0.13758,0.328789 -0.13758,0.328789 0.003,0.01728 0.036,0.144286 0.0423,0.191911 0.0561,0.4191 0.40711,2.897364 0.50765,3.680883 0.0497,0.385588 0.0878,0.732721 0.0938,0.918988 -0.005,0.0575 0.0212,0.07902 0.0483,0.024 0.0141,-0.02998 0.0748,-0.152751 0.0928,-0.474133 0.0141,-0.2413 -0.006,-0.61242 -0.0759,-1.122892 -0.0106,-0.07444 -0.37571,-2.66347 -0.37571,-2.66347 0,0 0.19756,0.181679 0.22931,0.214487 0.031,0.03281 0.0699,0.01516 0.0515,-0.03774 -0.018,-0.05292 -0.42157,-1.008592 -0.43497,-1.041755 -0.0127,-0.03351 -0.0261,-0.05715 -0.0416,-0.01905 m -1.06856,0 c -0.0162,0.03845 -0.14605,0.317855 -0.14605,0.317855 0.004,0.02294 0.0342,0.09172 0.055,0.232833 0.0222,0.146402 0.67627,3.989562 0.64276,4.043185 -0.0346,0.05362 -0.46814,0.402519 -0.88335,0.295275 -0.0363,-0.0095 -0.17569,-0.01728 -0.34714,-0.251177 0.16687,-0.140406 0.33796,-0.354541 0.41028,-0.676981 0.0279,-0.122415 0.0822,-0.399344 -0.2226,-0.769057 -0.0564,-0.06879 -0.30233,-0.26811 -0.55457,0.07585 -0.115,0.156985 -0.20567,0.613126 -0.0716,0.953558 0.0113,0.03704 0.036,0.14464 0.0801,0.279048 -0.0995,0.05574 -0.20884,0.108654 -0.32738,0.15381 -0.12276,0.0568 -0.67521,0.321027 -1.32291,0.39511 -0.35102,0.04057 -0.98531,0.01834 -1.34867,-0.221895 -0.15099,-0.09984 -0.32033,-0.269523 -0.39123,-0.643821 -0.0409,-0.218017 -0.11325,-1.6383 -0.81457,-2.482496 -0.0296,-0.0381 -0.084,0.386292 -0.084,0.386292 0.0882,0.176387 0.5588,1.306335 0.62583,1.856669 0.004,0.06738 0,0.243768 -0.1845,0.436739 -0.18521,0.193321 -0.82903,0.669571 -1.20192,0.852662 -0.13476,0.06632 -0.64523,0.330555 -0.83149,-0.23495 -0.0332,-0.09983 -0.0614,-0.395816 0.0963,-0.760587 0.01,-0.02151 0.0166,-0.04127 0.0215,-0.05962 0.25118,-0.208137 0.46885,-0.436385 0.59303,-0.671335 0.0476,-0.122767 0.13087,-0.40146 -0.019,-0.751417 -0.0787,-0.154164 -0.32633,-0.586316 -0.32633,-0.586316 0,0 0.18274,0.0056 0.19968,0.0053 0.0173,0 0.0519,-0.01834 0.007,-0.0695 -0.0444,-0.05115 -0.42757,-0.43321 -0.45015,-0.464254 -0.0236,-0.03069 -0.0445,-0.05256 -0.0579,-0.0074 -0.0131,0.04515 -0.0452,0.240242 -0.0533,0.280104 -0.008,0.03986 -0.007,0.07973 0.0123,0.113948 0.0198,0.03422 0.0702,0.152752 0.10725,0.24906 0.0363,0.09631 0.41451,0.82409 0.44873,0.888648 0.0353,0.06456 0.0427,0.112535 0.008,0.155223 -1.21321,1.279525 -3.55318,2.066571 -3.62797,2.109962 -0.0748,0.04339 -0.055,0.07726 0.0709,0.05503 0.18838,-0.03281 1.24001,-0.208844 1.53917,-0.353129 0.18979,-0.09137 0.8329,-0.407106 1.38324,-0.823383 -0.10054,0.322437 -0.36089,1.253066 0.375,1.416402 0.1711,0.03775 0.62971,0.08396 1.63795,-0.920044 0.13441,-0.133705 0.32209,-0.44168 0.33267,-0.494948 0,0 0.0314,0.812093 0.87947,1.099608 0.16157,0.05503 1.31304,0.302332 2.66912,-0.529166 0.0229,-0.01376 0.0808,-0.03845 0.15593,-0.08043 0.127,0.255059 0.32561,0.50024 0.63006,0.521759 0.0963,0.0067 0.83396,0.02999 0.99095,-0.646994 0.0494,-0.212021 0.0212,-0.61313 -0.0204,-0.882298 -0.0423,-0.268817 -0.48931,-2.908652 -0.48931,-2.908652 0,0 0.19756,0.181679 0.22896,0.214487 0.0318,0.03281 0.0705,0.01516 0.0522,-0.03774 -0.018,-0.05257 -0.42192,-1.008592 -0.43498,-1.041755 -0.0127,-0.03316 -0.0261,-0.05715 -0.0423,-0.01905 m -0.65123,3.550346 c 0.12629,0.14111 0.32279,0.372885 0.22013,0.484365 -0.0596,0.06491 -0.19932,0.200025 -0.40216,0.339018 -0.0303,-0.06279 -0.0607,-0.132998 -0.091,-0.212725 -0.0413,-0.126293 -0.17039,-0.478014 -0.0413,-0.592666 0.0452,-0.04022 0.18804,-0.15875 0.31433,-0.01799 m -2.32551,-3.384902 c -0.15734,0.220485 -0.15804,0.50306 -0.16933,0.818444 -0.0251,-0.06527 -0.17075,-0.482952 -0.59796,-0.710494 -0.0314,-0.01622 -0.0921,0.01905 -0.0945,0.118533 -0.001,0.05785 -0.013,0.198967 0.0282,0.237771 0.0409,0.03845 0.16123,0.112538 0.18098,0.123121 0.0201,0.01058 0.0409,0.0113 0.0462,-0.01304 0.005,-0.02434 0.03,-0.08114 0.0692,-0.04233 0.0332,0.0321 0.24624,0.201083 0.36583,0.57009 0.0204,0.04868 0.0653,0.05221 0.0727,-0.01834 0.019,-0.173215 0.0226,-0.473075 0.0325,-0.564092 0.0145,-0.128058 0.0649,-0.393348 0.22683,-0.261763 0.0363,0.02963 0.0759,0.06915 0.0759,0.06915 0.0346,0.04233 0.078,0.08996 0.097,0.03986 0.0279,-0.07655 0.049,-0.202142 0.0124,-0.268462 -0.0159,-0.02963 -0.21872,-0.27658 -0.34572,-0.09842 m -4.29225,0.118885 c -0.16439,0.214842 -0.17463,0.497417 -0.1965,0.812448 -0.0233,-0.06632 -0.15451,-0.488598 -0.57467,-0.73025 -0.0303,-0.01765 -0.0921,0.01553 -0.0974,0.115004 -0.004,0.05786 -0.0201,0.198615 0.0198,0.238831 0.0399,0.03951 0.15698,0.117827 0.17639,0.129117 0.0201,0.01093 0.0413,0.01236 0.0469,-0.01164 0.006,-0.02434 0.0325,-0.08008 0.0706,-0.03987 0.0321,0.03316 0.23883,0.209199 0.34643,0.582084 0.0187,0.04939 0.0635,0.05398 0.0734,-0.01588 0.0247,-0.172509 0.0381,-0.472369 0.0512,-0.563034 0.019,-0.127351 0.0783,-0.390525 0.2353,-0.254 0.0356,0.03105 0.0734,0.07197 0.0734,0.07197 0.0335,0.04339 0.0755,0.09278 0.0959,0.04269 0.0307,-0.07514 0.0557,-0.200025 0.0215,-0.267758 -0.0148,-0.02999 -0.20919,-0.283634 -0.34219,-0.109715 m 1.73002,0.07832 c -0.0998,0.108656 -0.13053,0.183443 -0.16016,0.230364 -0.0413,0.06385 0.0102,0.09243 0.0568,0.04269 0.0462,-0.05009 0.0783,-0.09984 0.21449,-0.09631 0.13546,0.0035 0.46002,-0.0092 0.33866,0.08008 -0.121,0.0896 -0.2032,0.14111 -0.2032,0.14111 -0.079,0.05644 -0.14852,0.162277 -0.009,0.103717 0.13864,-0.05891 0.32244,-0.152049 0.46355,-0.364419 0.0416,-0.06174 0.0893,-0.144288 -0.1016,-0.172863 -0.19085,-0.02858 -0.49953,-0.07338 -0.59972,0.03563 m 4.98722,0.222601 c -0.0952,0.04198 -3.42583,1.603375 -3.52319,1.648884 -0.0967,0.04516 -0.12559,0.06491 -0.14429,0.132998 -0.0183,0.06808 -0.0279,0.104423 -0.0328,0.118885 -0.0162,0.04622 -0.0384,0.09349 0.10301,0.02328 0.0441,-0.02151 3.39972,-1.582912 3.47698,-1.627362 0.0765,-0.04375 0.12206,-0.05891 0.15628,-0.129116 0.0346,-0.0695 0.0427,-0.08185 0.0621,-0.130882 0.0201,-0.05151 0.0445,-0.09948 -0.0981,-0.03669 m 6.61917,0.769763 c -0.0339,0.08431 -0.17851,0.375002 -0.15664,0.71755 0.005,0.07902 0.0579,0.233186 0.1771,0.237067 0.0617,0 0.14111,-0.04481 0.19791,-0.238125 0.01,-0.04375 0.0159,-0.07902 0.0198,-0.09631 0.006,-0.02611 -0.0134,-0.05715 -0.0332,0.0024 -0.0451,0.118885 -0.16227,0.20179 -0.24976,0.04304 -0.0145,-0.03175 -0.0737,-0.176038 0.0349,-0.491067 0.0222,-0.06103 0.0494,-0.1524 0.0494,-0.1524 0.0243,-0.06879 -0.005,-0.10654 -0.0395,-0.02222 m 3.30764,0.173567 c -0.0318,0.07796 -0.1651,0.346778 -0.14499,0.663927 0.005,0.07303 0.0533,0.2159 0.16334,0.219781 0.0575,-2.65e-4 0.13088,-0.04163 0.18344,-0.22084 0.009,-0.04057 0.0148,-0.07303 0.0183,-0.0889 0.006,-0.02434 -0.0124,-0.05292 -0.0307,0.0024 -0.042,0.109715 -0.14993,0.186622 -0.23177,0.03916 -0.013,-0.02893 -0.0677,-0.162277 0.0332,-0.454025 0.0205,-0.0568 0.0455,-0.14111 0.0455,-0.14111 0.0226,-0.06385 -0.005,-0.09878 -0.0363,-0.02045 m -6.20642,0.0081 -0.16827,0.230717 -0.32315,-0.235654 c -0.008,-0.0056 -0.0198,-0.0035 -0.0257,0.0049 l -0.19509,0.267406 c -0.006,0.0085 -0.005,0.02011 0.003,0.02611 l 0.33302,0.242359 c 0.008,0.0063 0.0194,0.0039 0.0257,-0.0046 l 0.16828,-0.230716 0.32314,0.235304 c 0.008,0.0063 0.0198,0.0039 0.0254,-0.0046 l 0.19544,-0.267404 c 0.006,-0.0081 0.005,-0.02011 -0.004,-0.02611 l -0.33267,-0.24271 c -0.008,-0.0056 -0.0198,-0.0035 -0.0257,0.0049 m -3.92289,0.673807 -0.16863,0.230716 -0.32314,-0.235656 c -0.008,-0.0056 -0.0198,-0.0039 -0.0254,0.0049 l -0.19544,0.267406 c -0.006,0.0085 -0.005,0.02011 0.004,0.02574 l 0.33267,0.243065 c 0.008,0.0056 0.0198,0.0035 0.0257,-0.0053 l 0.16828,-0.230365 0.32314,0.235657 c 0.008,0.0056 0.0198,0.0035 0.0257,-0.0053 l 0.19508,-0.267406 c 0.006,-0.0081 0.005,-0.01976 -0.004,-0.02574 l -0.33267,-0.242713 c -0.008,-0.0056 -0.0198,-0.0039 -0.0254,0.0049 m -1.86619,0.976135 c -0.15734,0.220133 -0.15805,0.502708 -0.16898,0.818446 -0.0257,-0.06562 -0.1711,-0.482954 -0.59831,-0.710848 -0.0318,-0.01622 -0.0921,0.01905 -0.0946,0.118533 -0.002,0.05821 -0.013,0.199319 0.0279,0.237773 0.0409,0.0388 0.16087,0.112888 0.18098,0.123119 0.0205,0.01058 0.0413,0.0113 0.0466,-0.01304 0.005,-0.02434 0.03,-0.08114 0.0691,-0.04233 0.0332,0.0321 0.24553,0.201083 0.36583,0.570441 0.0205,0.04868 0.0649,0.05186 0.0727,-0.01871 0.0187,-0.17286 0.0222,-0.472723 0.0321,-0.564091 0.0148,-0.128059 0.0649,-0.392994 0.22683,-0.261761 0.0363,0.02963 0.0759,0.0695 0.0759,0.0695 0.0349,0.04198 0.0783,0.08996 0.097,0.03951 0.0282,-0.07655 0.049,-0.20179 0.0127,-0.268465 -0.0159,-0.02928 -0.21872,-0.276225 -0.34572,-0.09807 m 7.09224,-1.234017 c -0.0127,0.04551 -0.0459,0.23989 -0.0533,0.280107 -0.008,0.03986 -0.007,0.07973 0.0124,0.113948 0.0194,0.03422 0.0702,0.152752 0.10724,0.24906 0.0363,0.09631 0.41381,0.82409 0.44874,0.888648 0.0353,0.06456 0.0423,0.112535 0.007,0.155221 -1.21214,1.279525 -3.55247,2.066573 -3.62726,2.109964 -0.0751,0.04339 -0.0554,0.07726 0.0706,0.05503 0.18874,-0.03281 1.23967,-0.208492 1.53953,-0.352777 0.19755,-0.0956 0.88794,-0.434271 1.45238,-0.877007 -0.0159,0.1143 -0.03,0.282223 -0.0226,0.495652 0.0385,1.029055 0.9585,0.858309 1.20015,0.80504 0.72355,-0.15875 1.60867,-1.158875 1.68381,-1.359958 0.0744,-0.198261 0.085,-0.37959 0.0684,-0.537634 0.19085,-0.103364 0.60008,-0.43321 0.60008,-0.43321 0.0166,0.438854 0.36583,0.570794 0.47342,0.589844 0.50306,0.0762 0.75565,-0.344665 0.8629,-0.48119 0.0917,0.240596 0.31221,0.287163 0.42545,0.30974 0.43462,0.08643 0.51929,-0.22084 0.54151,-0.29069 0.13653,-0.424037 -0.10901,-0.739775 -0.14076,-0.7747 -0.0318,-0.03493 -0.0473,-0.0013 -0.0582,0.03916 -0.012,0.04057 -0.0466,0.193323 -0.0688,0.288925 0,0 0.091,0.147815 0.12348,0.223309 0.0321,0.0755 -0.0159,0.116771 -0.10937,0.128058 -0.26422,0.03246 -0.47519,-0.119237 -0.54751,-0.189087 -0.0727,-0.0695 0.006,-0.193323 0.0646,-0.340784 0.0469,-0.118181 -0.0402,-0.132291 -0.10724,-7.93e-4 -0.22366,0.589139 -0.53834,0.652639 -0.62124,0.675216 -0.74613,0.2032 -0.68192,-0.478718 -0.6791,-0.59055 0.003,-0.111477 -0.079,-0.07056 -0.17074,0.0035 -0.31398,0.251884 -0.56727,0.40005 -0.70309,0.460375 -0.11712,-0.228952 -0.28716,-0.372533 -0.35878,-0.424391 -0.80751,-0.588786 -0.87453,0.599371 -0.84984,0.726723 0.12277,0.504825 0.94792,0.198966 1.07703,0.183443 0.12983,-0.01516 0.0871,0.155575 0.0145,0.257175 -0.1785,0.250121 -0.38523,0.429684 -0.57291,0.582084 -0.79904,0.652639 -1.2005,0.601487 -1.32433,0.597254 -0.78528,-0.02222 -0.71296,-0.86854 -0.66957,-1.049515 0.23636,-0.200025 0.43921,-0.418041 0.55739,-0.641702 0.048,-0.122766 0.13088,-0.401462 -0.019,-0.751771 -0.0783,-0.15381 -0.32597,-0.585962 -0.32597,-0.585962 0,0 0.18239,0.0056 0.19968,0.0053 0.0173,-2.65e-4 0.0515,-0.01834 0.007,-0.0695 -0.0444,-0.05115 -0.42721,-0.43321 -0.45049,-0.464257 -0.0226,-0.03069 -0.0441,-0.05256 -0.0572,-0.0074 m 2.42217,1.7526 c 0,0 -0.11007,0.06315 -0.41734,0.04269 -0.25788,-0.01765 -0.23565,-0.11783 -0.20037,-0.15593 0.0384,-0.04198 0.35383,-0.240241 0.61771,0.113242 m -15.03786,-1.501775 c -0.0572,0.152048 -0.29457,0.674865 -0.27199,1.296813 0.005,0.143933 0.0825,0.425095 0.26988,0.436385 0.0977,0.0013 0.22471,-0.07691 0.32067,-0.42686 0.0169,-0.07902 0.0279,-0.142523 0.0346,-0.173567 0.0109,-0.04727 -0.0183,-0.104423 -0.0522,0.0035 -0.0755,0.214135 -0.26282,0.360892 -0.39546,0.0695 -0.0212,-0.0575 -0.10972,-0.321029 0.073,-0.889354 0.0363,-0.110067 0.0833,-0.275167 0.0833,-0.275167 0.0406,-0.124177 -0.004,-0.192969 -0.0617,-0.04127 m 11.7214,0.07691 c -0.0536,0.06597 -0.58985,0.770115 -0.58985,0.770115 l -0.38988,-0.277807 c 0,0 0.1591,-0.03986 0.18698,-0.04798 0.0275,-0.0085 0.0434,-0.0441 -0.007,-0.06985 -0.0494,-0.0254 -0.51964,-0.213079 -0.55562,-0.227542 -0.036,-0.01482 -0.049,-0.03069 -0.0515,0.0074 -0.003,0.0381 -0.009,0.347485 -0.009,0.347485 0,0 -0.007,0.02188 0.0342,0.04516 0.0409,0.02328 0.0811,0.07303 0.115,0.106538 0.0335,0.03387 0.47096,0.378883 0.49213,0.391231 0,0 -0.21872,0.384175 -0.24695,0.685094 -0.0275,0.300921 0.006,0.716139 0.41699,0.582437 0.11042,-0.0314 0.5715,-0.214841 0.67451,-0.535871 0.0335,-0.118533 0.12806,-0.332316 -0.0261,-0.549275 -0.0893,-0.127352 -0.44944,-0.342545 -0.44944,-0.342545 0,0 0.27694,-0.381707 0.30339,-0.428625 0.0261,-0.04657 0.12736,-0.3429 0.13865,-0.414515 0.0113,-0.07162 0.0166,-0.107598 -0.0363,-0.04127 m -0.0945,1.622777 c -0.15275,0.125942 -0.47377,0.2921 -0.56409,0.300921 -0.09,0.0085 -0.32984,-0.03563 -0.22542,-0.280813 0.0356,-0.07937 0.27481,-0.48895 0.27481,-0.48895 0.0896,0.04904 0.66746,0.343255 0.5147,0.468842 m 6.23077,0.562329 c -0.031,0.08608 -0.0434,0.142521 -0.0399,0.175684 0.003,0.03281 0.0145,0.139345 0.0145,0.139345 -0.0321,0.02574 -0.16863,0.111125 -0.30551,0.01024 0.009,-0.02928 0.0268,-0.0889 0.0307,-0.121357 0.0148,-0.05045 -0.0162,-0.08819 -0.0409,-0.03598 -0.0251,0.05292 -0.0833,0.228248 -0.1263,0.267758 -0.0427,0.03916 -0.0931,0.184857 -0.4191,0.03704 -0.0572,-0.02188 -0.15734,-0.09595 -0.31291,0.06068 -0.35278,0.327729 -0.59584,0.353129 -0.9913,0.493536 -0.0476,0.02222 -0.14817,0.09772 -0.0293,0.08572 0.11924,-0.01199 0.62019,2.64e-4 0.89324,-0.312915 0.0572,-0.05503 0.12241,-0.201435 0.33902,-0.116769 0.11959,0.04586 0.34149,0.236009 0.58314,-0.140052 0.14252,0.0949 0.35913,0.0568 0.39335,-0.04762 0.0349,-0.104775 0.0744,-0.208846 0.0737,-0.279754 0,-0.07126 -0.006,-0.1651 -0.006,-0.1651 -0.005,-0.05644 -0.0247,-0.136525 -0.0561,-0.05045 m -17.17781,0.788811 c -0.061,0.02752 -1.10455,0.540808 -1.17264,0.576791 -0.0624,0.03387 -0.0787,0.05256 -0.0861,0.09878 -0.007,0.04692 -0.0113,0.07373 -0.013,0.08149 -0.01,0.03105 -0.0226,0.05856 0.0702,0.0078 0.0448,-0.02434 1.0795,-0.522465 1.143,-0.559154 0.0512,-0.02928 0.0773,-0.04833 0.0949,-0.09701 0.0177,-0.04868 0.0226,-0.0575 0.031,-0.09137 0.0102,-0.03598 0.024,-0.05856 -0.0674,-0.01728 m 2.65818,0.206023 c -0.0194,0.02963 -0.0339,0.05398 -0.042,0.06562 -0.012,0.01765 -0.007,0.04621 0.0254,0.0074 0.067,-0.07514 0.17745,-0.103717 0.19755,0.03951 0.002,0.02752 0.005,0.151342 -0.16545,0.35419 -0.0339,0.03916 -0.0797,0.09913 -0.0797,0.09913 -0.0377,0.0441 -0.0268,0.08043 0.0229,0.02752 0.0494,-0.05256 0.23883,-0.227542 0.31962,-0.487892 0.0187,-0.06032 0.0236,-0.189794 -0.0635,-0.226483 -0.0462,-0.01728 -0.11748,-0.0067 -0.21484,0.121004"
       style="fill:#231f20;fill-opacity:1;fill-rule:evenodd;stroke:none;stroke-width:0.264583"
       id="path1" />
  </g>
</svg>
