<?xml version="1.0" encoding="UTF-8" standalone="no"?>
<!-- Created with Inkscape (http://www.inkscape.org/) -->

<svg
   width="18.352707mm"
   height="6.7658157mm"
   viewBox="0 0 18.352707 6.7658157"
   version="1.1"
   id="svg1"
   xmlns="http://www.w3.org/2000/svg"
   xmlns:svg="http://www.w3.org/2000/svg">
  <defs
     id="defs1" />
  <g
     id="layer1"
     transform="translate(-162.3028,-29.382402)">
    <path
       d="m 172.91262,29.551417 c -0.0699,0.106892 -0.12171,0.362657 -0.0219,0.435682 0.0998,0.07302 0.24624,0.132291 0.24624,0.132291 -0.46601,0.570794 -0.78422,0.680154 -1.05692,0.839611 -0.0702,0.04127 -0.0564,0.07796 -0.0152,0.06668 0.0212,-0.0053 0.38806,-0.06209 0.81598,-0.38735 0.23142,-0.176036 0.37112,-0.47625 0.37112,-0.47625 0,0 0.11606,0.09666 0.13158,0.116064 0.0353,0.04339 0.0547,0.07585 0.0713,0.02999 0.0607,-0.168982 -0.0254,-0.270934 -0.10724,-0.323498 0,0 0.085,-0.263171 -0.0716,-0.527402 -0.0261,-0.0441 -0.18239,-0.185209 -0.36336,0.09419 m 0.24376,0.07267 c 0.10478,0.09772 0.0889,0.257879 0.0847,0.294569 0,0 -0.13405,-0.06279 -0.19403,-0.08855 -0.06,-0.0254 -0.091,-0.0635 -0.0635,-0.1016 0.0924,-0.129821 0.13759,-0.125587 0.17286,-0.104421 m -1.73566,-0.205316 c -0.0166,0.03916 -0.13723,0.336195 -0.13723,0.336195 0.002,0.01728 0.036,0.146757 0.0423,0.195792 0.0565,0.427921 0.40746,2.959452 0.508,3.759906 0.0494,0.3937 0.0882,0.747887 0.0935,0.938387 -0.005,0.05891 0.0212,0.08079 0.048,0.024 0.0145,-0.03034 0.0748,-0.155223 0.0935,-0.483658 0.0141,-0.246592 -0.006,-0.625475 -0.0762,-1.147585 -0.0102,-0.07585 -0.37535,-2.720269 -0.37535,-2.720269 0,0 0.19685,0.18556 0.2286,0.219075 0.0321,0.03351 0.0702,0.01588 0.0522,-0.0381 -0.018,-0.05397 -0.42192,-1.030465 -0.43533,-1.064331 -0.0127,-0.03387 -0.0257,-0.05856 -0.042,-0.01939 m -0.96732,0 c -0.0162,0.03916 -0.14569,0.324908 -0.14569,0.324908 0.003,0.02294 0.0335,0.09349 0.055,0.23777 0.0215,0.147109 0.51329,3.878086 0.45438,3.937 -0.0589,0.05892 -0.28434,0.250825 -0.65829,0.134409 -0.0268,-0.0085 -0.26317,-0.129469 -0.29845,-0.350309 -0.002,-0.03387 -0.006,-0.104423 -0.0116,-0.148166 -0.006,-0.04339 -0.0155,-0.09596 -0.0624,-0.04798 -0.0469,0.04798 -0.2667,0.365829 -0.32808,0.430387 -0.19297,0.205317 -0.70274,0.351015 -1.0721,0.1016 -0.12523,-0.08149 -0.31996,-0.278694 -0.41063,-0.834319 -0.0272,-0.138641 -0.1531,-0.930978 -0.26458,-1.10137 -0.0222,-0.03704 -0.037,-0.0056 -0.048,0.01834 -0.0113,0.024 -0.10372,0.315383 -0.10372,0.315383 0.0148,0.06456 0.25471,0.937329 0.23354,1.301043 -0.005,0.08819 -0.0653,0.329849 -0.57114,0.361244 -0.0565,0 -0.53552,0.02117 -0.54399,-0.489302 0,-0.05503 0.0148,-0.09701 0.0208,-0.132292 0.006,-0.03598 0.008,-0.140758 -0.0547,-0.07126 -0.0628,0.06914 -0.40851,0.752827 -1.04422,0.730602 -0.0787,0 -0.55457,0.0056 -0.78987,-0.672042 -0.0448,-0.117475 -0.14852,-0.531989 -0.496,-0.333375 -0.34714,0.198967 -0.6022,0.389467 -0.78952,0.896057 -0.0392,0.103717 -0.18768,0.473427 -0.25224,0.54892 -0.0642,0.07585 -0.34007,0.338667 -0.64946,-0.173212 -0.0466,-0.07761 -0.18203,-0.299863 -0.1651,-1.061508 0,-0.06174 -0.0448,-0.134763 -0.0759,0.0056 -0.0307,0.1397 -0.11571,1.422048 0.47343,1.69686 0.0727,0.03387 0.3489,0.162983 0.53199,-0.235302 0.0575,-0.123825 0.38241,-1.07809 0.91863,-1.277057 0.0963,-0.03563 0.23213,-0.09525 0.29105,0.0508 0.0589,0.145347 0.22401,0.935215 0.93838,0.965907 0.0893,0 0.5715,0.06985 0.99978,-0.64135 0.0561,0.229658 0.13405,0.600427 0.67486,0.593725 0.14852,-0.0019 0.54328,-0.08678 0.68051,-0.551392 0.0868,0.156634 0.28892,0.637117 0.98284,0.61595 0.12065,-0.0039 0.58808,-0.08678 0.80927,-0.55739 0.073,0.162632 0.28081,0.662872 0.89923,0.437092 0.14076,-0.05186 0.3556,-0.12065 0.41451,-0.63006 0.004,-0.05186 0.0335,-0.403577 -0.0448,-1.041752 -0.12347,-1.030817 -0.30162,-2.451452 -0.30162,-2.451452 0,0 0.16157,0.159454 0.19332,0.192969 0.0317,0.03387 0.0705,0.01588 0.0522,-0.0381 -0.018,-0.05362 -0.38629,-1.004359 -0.39935,-1.038225 -0.013,-0.03387 -0.0257,-0.05856 -0.0423,-0.01939 m 8.98172,0.228245 c -0.0698,0.106892 -0.12241,0.362657 -0.0226,0.435682 0.10019,0.07338 0.24659,0.132643 0.24659,0.132643 -0.46566,0.570796 -1.38042,0.976842 -1.59808,1.146882 -0.0646,0.04868 -0.0561,0.07761 -0.0152,0.06668 0.0363,-0.0095 0.73307,-0.204611 1.37054,-0.750711 0.2921,-0.249766 0.28399,-0.268816 0.35843,-0.420512 0.0628,0.03281 0.10654,0.08537 0.13158,0.116416 0.0349,0.04339 0.054,0.07585 0.0706,0.02963 0.061,-0.168979 -0.0251,-0.270934 -0.1076,-0.323496 0,0 0.0857,-0.263173 -0.0713,-0.52705 -0.0265,-0.0441 -0.18239,-0.185915 -0.36301,0.09384 m 0.24342,0.07267 c 0.10512,0.09772 0.0889,0.258234 0.0847,0.294569 0,0 -0.1337,-0.06244 -0.19367,-0.08855 -0.0596,-0.02574 -0.0914,-0.0635 -0.0635,-0.1016 0.0921,-0.129823 0.13793,-0.125589 0.17251,-0.104423 m -1.78859,-0.165452 c -0.18309,0.232834 -0.19438,0.538692 -0.21872,0.879827 -0.0257,-0.07126 -0.17215,-0.528814 -0.63958,-0.790927 -0.0339,-0.01905 -0.10337,0.01693 -0.10936,0.124529 -0.004,0.06315 -0.0219,0.215196 0.0222,0.258588 0.0441,0.04339 0.17498,0.128058 0.19685,0.140052 0.0219,0.01199 0.0455,0.01376 0.0519,-0.01236 0.007,-0.02611 0.0363,-0.08713 0.079,-0.04339 0.0353,0.03598 0.266,0.226484 0.38559,0.630767 0.0205,0.05292 0.0702,0.05821 0.0815,-0.01765 0.0279,-0.186621 0.0427,-0.511175 0.0575,-0.6096 0.0212,-0.137938 0.0868,-0.423333 0.26212,-0.275521 0.0399,0.03387 0.0822,0.07832 0.0822,0.07832 0.037,0.04692 0.0836,0.100189 0.10654,0.04621 0.0339,-0.08149 0.0617,-0.216606 0.0243,-0.289983 -0.0169,-0.03246 -0.23354,-0.307268 -0.38206,-0.118885 m -1.80022,-0.01093 c -0.0674,0.03951 -1.78753,1.032229 -1.85702,1.077031 -0.0702,0.0448 -0.0945,0.05644 -0.10548,0.110419 -0.0113,0.05362 -0.0169,0.08502 -0.0201,0.09313 -0.0127,0.03634 -0.0215,0.08079 0.0811,0.01341 0.0321,-0.02045 1.76177,-1.020233 1.82245,-1.058333 0.0582,-0.03634 0.0917,-0.05151 0.11535,-0.107598 0.0233,-0.05574 0.0293,-0.06562 0.0416,-0.104069 0.0134,-0.04127 0.0265,-0.08502 -0.078,-0.024 m -6.991,0.05045 c -0.0307,0.07479 -0.15839,0.332668 -0.13899,0.63641 0.005,0.0702 0.0512,0.207081 0.15699,0.210608 0.0543,-2.64e-4 0.12488,-0.03951 0.17532,-0.211666 0.009,-0.0388 0.0141,-0.0702 0.018,-0.08537 0.005,-0.02294 -0.012,-0.0508 -0.0296,0.0024 -0.0402,0.105482 -0.14393,0.178859 -0.22189,0.0381 -0.0124,-0.02822 -0.0653,-0.156281 0.0314,-0.436033 0.019,-0.05398 0.0441,-0.13476 0.0441,-0.13476 0.0215,-0.06138 -0.005,-0.09455 -0.0353,-0.01977 m -5.29837,0.05609 c -0.14922,0.219782 -0.14076,0.494948 -0.14111,0.802569 -0.0275,-0.06244 -0.18732,-0.46355 -0.623,-0.669219 -0.0314,-0.01482 -0.091,0.02188 -0.0903,0.118533 2.6e-4,0.0568 -0.006,0.194734 0.0363,0.230365 0.0423,0.03598 0.16475,0.104069 0.18486,0.113242 0.0205,0.0095 0.042,0.0095 0.0459,-0.0141 0.005,-0.02434 0.0275,-0.08043 0.0684,-0.0441 0.0339,0.03034 0.25259,0.186619 0.38523,0.541512 0.0219,0.04657 0.0667,0.04763 0.0723,-0.02117 0.0127,-0.168979 0.006,-0.460727 0.013,-0.549979 0.0102,-0.125238 0.0515,-0.384882 0.21802,-0.263173 0.0374,0.02787 0.0783,0.06491 0.0783,0.06491 0.0363,0.03951 0.0811,0.08467 0.0984,0.03492 0.0258,-0.07549 0.042,-0.198612 0.004,-0.26176 -0.0169,-0.02822 -0.2286,-0.260702 -0.34996,-0.08255 m 1.00119,0.02257 c -0.0363,0.08925 -0.18874,0.395816 -0.16545,0.757414 0.006,0.08361 0.0607,0.246592 0.18697,0.250825 0.0646,0 0.14922,-0.04727 0.20884,-0.251883 0.0102,-0.04622 0.0166,-0.0829 0.0208,-0.101248 0.007,-0.02752 -0.0137,-0.06068 -0.0349,0.0028 -0.0476,0.124883 -0.17145,0.212725 -0.26388,0.0448 -0.0148,-0.03316 -0.0776,-0.185912 0.037,-0.518583 0.0229,-0.06456 0.0522,-0.160867 0.0522,-0.160867 0.0258,-0.07267 -0.005,-0.112183 -0.0416,-0.02328 m 1.94768,0.79375 c 0.0917,-0.02928 -1.64641,0.590904 -1.85279,0.662516 -0.0825,0.02858 -0.10548,0.04727 -0.12382,0.102307 -0.0183,0.05433 -0.0279,0.08643 -0.0321,0.0949 -0.0155,0.03139 -0.0275,0.05962 0.0459,0.03669 l 0.0296,-0.0099 0.006,-0.0013 c 0.10477,-0.03281 1.6009,-0.56515 1.8161,-0.649113 0.0674,-0.02646 0.10195,-0.04304 0.13335,-0.09842 0.0314,-0.05468 0.0388,-0.06456 0.0564,-0.103717 0.019,-0.04092 0.043,-0.07303 -0.0783,-0.03387 m 3.4357,0.04692 c -0.0808,0.02611 -1.6323,0.557387 -1.71485,0.585962 -0.0787,0.02717 -0.10055,0.04481 -0.11783,0.09701 -0.0177,0.05186 -0.0268,0.0822 -0.0307,0.09067 -0.0169,0.03387 -0.0296,0.0642 0.0783,0.02257 0.0363,-0.01376 1.61255,-0.545748 1.67887,-0.5715 0.0639,-0.02469 0.0974,-0.04057 0.12735,-0.09349 0.0296,-0.05221 0.0363,-0.06138 0.0533,-0.09878 0.0183,-0.03916 0.0409,-0.0695 -0.0744,-0.03245 m -2.4705,0.213783 c -0.0222,0.06879 -0.0392,0.122413 -0.009,0.201436 0.03,0.07902 0.11113,0.258585 0.12454,0.283985 0.0134,0.0254 0.0166,0.05468 -0.0279,0.07373 -0.0445,0.01905 -0.24836,0.06244 -0.28611,-0.155223 -0.0381,-0.216958 -0.0413,-0.280458 -0.06,-0.317145 -0.019,-0.03704 -0.037,-0.04127 -0.0515,-0.0046 -0.0145,0.03704 -0.0233,0.112538 -0.0254,0.124884 -0.002,0.01236 -0.002,0.02082 0.006,0.03422 0.008,0.01341 0.0889,0.256469 0.0522,0.323144 -0.037,0.06703 -0.21942,0.187325 -0.31538,0.06103 -0.0455,-0.08784 -0.0173,-0.310446 -0.0173,-0.362656 0,-0.05221 -0.0169,-0.0702 -0.0395,-0.02787 -0.0219,0.04233 -0.0342,0.0702 -0.0332,0.10795 0.001,0.03774 0.007,0.200377 0.003,0.251529 -0.003,0.05151 0,0.217313 0.0984,0.263879 0.0977,0.04692 0.24025,0.0035 0.3482,-0.200379 0.0836,0.121356 0.2106,0.121708 0.27869,0.09666 0.0579,-0.02082 0.12241,-0.107598 0.14111,-0.227897 0.019,-0.120295 -0.012,-0.202845 -0.0497,-0.270933 -0.0504,-0.08325 -0.084,-0.22366 -0.084,-0.22366 -0.0173,-0.05009 -0.0307,-0.101248 -0.0533,-0.0321 m 8.70585,0.171095 c -0.0346,0.08432 -0.17886,0.375005 -0.15664,0.717199 0.005,0.07937 0.0575,0.233891 0.17639,0.237773 0.0621,-2.65e-4 0.14182,-0.04516 0.19826,-0.238832 0.01,-0.04374 0.0159,-0.07867 0.0201,-0.09596 0.006,-0.02612 -0.0134,-0.05715 -0.0335,0.0028 -0.0452,0.118533 -0.16228,0.201435 -0.24977,0.04233 -0.0145,-0.0314 -0.0734,-0.175683 0.0353,-0.491067 0.0215,-0.06103 0.0494,-0.152048 0.0494,-0.152048 0.0243,-0.06914 -0.005,-0.106537 -0.0395,-0.02222 m 3.30729,0.173215 c -0.0321,0.07797 -0.16545,0.347133 -0.14499,0.664282 0.005,0.07303 0.0533,0.216251 0.16404,0.219778 0.0568,-2.64e-4 0.13053,-0.04163 0.18274,-0.221191 0.009,-0.04022 0.0148,-0.07267 0.0187,-0.0889 0.005,-0.024 -0.0123,-0.05256 -0.031,0.0028 -0.0416,0.110066 -0.14993,0.186266 -0.23107,0.03916 -0.0134,-0.02928 -0.0684,-0.162631 0.0321,-0.454377 0.0205,-0.0568 0.0462,-0.140758 0.0462,-0.140758 0.0226,-0.06421 -0.004,-0.09842 -0.0367,-0.02082 m -6.20642,0.0085 -0.16828,0.230716 -0.32314,-0.235656 c -0.008,-0.0053 -0.0194,-0.0035 -0.0258,0.0049 l -0.19473,0.267406 c -0.006,0.0085 -0.005,0.02011 0.003,0.02612 l 0.33267,0.242358 c 0.008,0.006 0.0198,0.0042 0.0261,-0.0042 l 0.16792,-0.231069 0.3228,0.235302 c 0.008,0.006 0.0201,0.0042 0.0265,-0.0042 l 0.19439,-0.267759 c 0.006,-0.0088 0.005,-0.02011 -0.003,-0.02574 l -0.33303,-0.243064 c -0.008,-0.0053 -0.0194,-0.0035 -0.0257,0.0049 m -3.88232,0.19685 c -0.0572,0.150284 -0.29034,0.66675 -0.29034,1.28905 0,0.143579 0.0614,0.427212 0.23178,0.443087 0.0885,0.0042 0.20673,-0.07126 0.3055,-0.418041 0.018,-0.07902 0.03,-0.141817 0.0374,-0.172861 0.0113,-0.04692 -0.0134,-0.10442 -0.0476,0.0028 -0.0758,0.211313 -0.25118,0.353484 -0.3623,0.05891 -0.0176,-0.05821 -0.0892,-0.323848 0.0953,-0.887236 0.037,-0.10936 0.0847,-0.272343 0.0847,-0.272343 0.0416,-0.123119 0.003,-0.193323 -0.0543,-0.04339 m -7.04568,0.0381 c -0.0575,0.150635 -0.29069,0.66675 -0.29069,1.28905 2.7e-4,0.143933 0.0614,0.427212 0.23213,0.443087 0.0882,0.0046 0.20637,-0.07091 0.30551,-0.418041 0.018,-0.07867 0.03,-0.141817 0.037,-0.172509 0.0113,-0.04727 -0.0138,-0.105127 -0.0476,0.0024 -0.0755,0.212018 -0.25117,0.353483 -0.3623,0.05891 -0.0177,-0.05821 -0.0893,-0.323848 0.0952,-0.887236 0.037,-0.109008 0.085,-0.272343 0.085,-0.272343 0.0413,-0.123119 0.003,-0.193323 -0.0543,-0.04339 m 12.23116,0.180975 c -0.013,0.04516 -0.0452,0.23989 -0.0536,0.279752 -0.007,0.04022 -0.007,0.08008 0.0127,0.1143 0.0198,0.03422 0.0706,0.1524 0.10724,0.249063 0.036,0.09631 0.41452,0.824087 0.44909,0.888294 0.0349,0.06456 0.042,0.113241 0.007,0.155575 -1.2132,1.279876 -3.55317,2.066218 -3.62796,2.10961 -0.0744,0.04374 -0.055,0.07761 0.0709,0.05503 0.18803,-0.03246 1.23966,-0.20814 1.53917,-0.352777 0.19791,-0.09525 0.88794,-0.434271 1.45203,-0.876654 -0.0155,0.113948 -0.03,0.282575 -0.0219,0.4953 0.0381,1.029054 0.9585,0.858308 1.1998,0.805746 0.72354,-0.159105 1.60866,-1.15923 1.68381,-1.360313 0.0744,-0.19826 0.085,-0.379587 0.0684,-0.537633 0.1905,-0.103011 0.59973,-0.433211 0.59973,-0.433211 0.0173,0.438502 0.36618,0.570442 0.47342,0.589492 0.50377,0.07655 0.75636,-0.34431 0.86325,-0.480483 0.0917,0.240241 0.31221,0.286808 0.42545,0.309385 0.43462,0.08643 0.51929,-0.220837 0.54152,-0.290687 0.13617,-0.42404 -0.10901,-0.739423 -0.14076,-0.7747 -0.0314,-0.03493 -0.0476,-0.0013 -0.0586,0.03951 -0.0109,0.04057 -0.0462,0.192969 -0.0681,0.288573 0,0 0.091,0.148167 0.12312,0.223309 0.0324,0.07549 -0.0155,0.116768 -0.10936,0.128058 -0.26388,0.03245 -0.47484,-0.11924 -0.54787,-0.18909 -0.0723,-0.06985 0.006,-0.193323 0.0649,-0.341135 0.0466,-0.11783 -0.0402,-0.132292 -0.1069,0 -0.22401,0.588785 -0.53869,0.652285 -0.62124,0.674862 -0.74612,0.2032 -0.68156,-0.478719 -0.6798,-0.59055 0.003,-0.111829 -0.0787,-0.07055 -0.17075,0.0032 -0.31397,0.252238 -0.56656,0.40005 -0.70238,0.461081 -0.11712,-0.229306 -0.28751,-0.373239 -0.35948,-0.424743 -0.80715,-0.588785 -0.87347,0.599017 -0.84949,0.726368 0.12312,0.505532 0.94792,0.199319 1.07739,0.18415 0.12911,-0.01553 0.0871,0.155224 0.0145,0.256469 -0.17921,0.250473 -0.38559,0.430038 -0.57256,0.58279 -0.8001,0.652285 -1.20156,0.600781 -1.32468,0.596548 -0.78599,-0.02151 -0.71367,-0.86854 -0.66992,-1.049515 0.236,-0.199673 0.43956,-0.417335 0.55703,-0.64135 0.0483,-0.122767 0.13123,-0.401815 -0.018,-0.751768 -0.079,-0.153813 -0.32667,-0.585965 -0.32667,-0.585965 0,0 0.18238,0.0056 0.19967,0.0053 0.0177,-2.64e-4 0.0515,-0.01834 0.007,-0.0695 -0.0441,-0.0508 -0.42757,-0.433213 -0.4505,-0.463905 -0.0233,-0.03069 -0.0444,-0.05292 -0.0575,-0.0078 m 2.42252,1.7526 c 0,0 -0.11006,0.0635 -0.41768,0.04233 -0.25753,-0.01693 -0.23566,-0.117829 -0.20003,-0.155575 0.0381,-0.04163 0.35384,-0.240596 0.61771,0.113242 m -3.31681,-1.424868 c -0.0533,0.06632 -0.58985,0.770112 -0.58985,0.770112 l -0.38982,-0.277987 c 0,0 0.15911,-0.04022 0.18662,-0.04833 0.0279,-0.0078 0.0434,-0.04374 -0.006,-0.06914 -0.0505,-0.02574 -0.52035,-0.213432 -0.55633,-0.228249 -0.0356,-0.0141 -0.0487,-0.03069 -0.0519,0.0078 -0.003,0.03775 -0.008,0.347488 -0.008,0.347488 0,0 -0.007,0.02188 0.0335,0.0448 0.0409,0.02328 0.0815,0.07338 0.11465,0.107243 0.0339,0.03352 0.47131,0.378532 0.49248,0.390525 0,0 -0.21872,0.384527 -0.24624,0.6858 -0.0279,0.300567 0.005,0.71614 0.41628,0.582083 0.11077,-0.03175 0.57185,-0.214841 0.67451,-0.536575 0.0332,-0.118181 0.12841,-0.33161 -0.0265,-0.548568 -0.0889,-0.127355 -0.44838,-0.342548 -0.44838,-0.342548 0,0 0.27587,-0.381704 0.30233,-0.428625 0.0261,-0.04692 0.12842,-0.342546 0.13935,-0.414512 0.0109,-0.07162 0.0169,-0.107247 -0.0367,-0.04127 m -0.0942,1.623128 c -0.1531,0.12559 -0.47413,0.291749 -0.56409,0.300215 -0.0907,0.0088 -0.32985,-0.03528 -0.22578,-0.280813 0.0356,-0.07902 0.27482,-0.488595 0.27482,-0.488595 0.0896,0.04904 0.66745,0.343252 0.51505,0.469193 m -9.58109,-1.468966 -0.16863,0.230365 -0.32279,-0.235302 c -0.008,-0.006 -0.0198,-0.0035 -0.0258,0.0049 l -0.19508,0.267407 c -0.006,0.0085 -0.005,0.01976 0.004,0.02574 l 0.33267,0.24271 c 0.008,0.006 0.0198,0.0039 0.0257,-0.0042 l 0.16828,-0.231421 0.32279,0.235654 c 0.008,0.006 0.0201,0.0039 0.0261,-0.0042 l 0.19509,-0.267756 c 0.006,-0.0088 0.005,-0.02011 -0.004,-0.02611 L 164.28054,31.9725 c -0.008,-0.006 -0.0198,-0.0035 -0.0257,0.0049 m 1.90712,0.204258 -0.19509,0.267759 c -0.006,0.0081 -0.005,0.01976 0.003,0.02574 l 0.33303,0.242713 c 0.008,0.0056 0.0194,0.0035 0.0254,-0.0046 l 0.19508,-0.267758 c 0.006,-0.0085 0.005,-0.02011 -0.003,-0.02574 l -0.33302,-0.243062 c -0.008,-0.0053 -0.0198,-0.0035 -0.0254,0.0049 m 13.90438,1.826683 c -0.0311,0.08608 -0.043,0.142875 -0.0399,0.175683 0.003,0.03246 0.0148,0.139348 0.0148,0.139348 -0.0321,0.0254 -0.16898,0.110771 -0.30586,0.01024 0.009,-0.02928 0.0268,-0.0889 0.031,-0.121354 0.0145,-0.0508 -0.0166,-0.0882 -0.0413,-0.03598 -0.0251,0.05292 -0.0829,0.2286 -0.12594,0.267758 -0.043,0.03951 -0.0935,0.184502 -0.41981,0.03704 -0.0568,-0.02188 -0.15663,-0.09596 -0.31256,0.06068 -0.35277,0.327732 -0.59619,0.353132 -0.9913,0.49389 -0.048,0.02188 -0.14852,0.09737 -0.0289,0.08537 0.11924,-0.01199 0.62018,2.64e-4 0.89288,-0.312912 0.0568,-0.05539 0.12241,-0.201438 0.33902,-0.116772 0.11994,0.04586 0.34149,0.235657 0.58314,-0.1397 0.14288,0.09455 0.35913,0.05645 0.3937,-0.04798 0.0342,-0.104775 0.0744,-0.208843 0.0741,-0.280106 -7.9e-4,-0.07091 -0.007,-0.164745 -0.007,-0.164745 -0.005,-0.05645 -0.0247,-0.13688 -0.0564,-0.05045 m -13.80772,0.783874 c -0.0173,0.03457 -0.0296,0.06209 -0.0363,0.07549 -0.0109,0.02045 -0.001,0.05009 0.0279,0.0049 0.0624,-0.0889 0.17709,-0.132998 0.2159,0.01765 0.005,0.02893 0.0236,0.160514 -0.13265,0.398639 -0.031,0.04621 -0.073,0.116065 -0.073,0.116065 -0.0349,0.05186 -0.0187,0.08925 0.0279,0.02646 0.0462,-0.06244 0.22719,-0.27305 0.28116,-0.560916 0.012,-0.06703 0.001,-0.205671 -0.0963,-0.233892 -0.0515,-0.0127 -0.12664,0.0071 -0.21449,0.155575 m -1.40617,-0.0141 c -0.0699,0.03528 -1.20615,0.47625 -1.27847,0.516821 -0.0727,0.04022 -0.0981,0.05045 -0.11253,0.103362 -0.0145,0.05292 -0.0222,0.08361 -0.0257,0.09207 -0.0148,0.03493 -0.0265,0.07867 0.0801,0.01834 0.0335,-0.01871 1.18287,-0.466373 1.24249,-0.50024 0.0596,-0.03422 0.0952,-0.04586 0.12206,-0.100542 0.0265,-0.05398 0.0335,-0.06315 0.0483,-0.1016 0.0159,-0.04022 0.0318,-0.0829 -0.0762,-0.02822 m 3.24908,-0.0053 -0.16863,0.230716 -0.32314,-0.235654 c -0.008,-0.006 -0.0191,-0.0039 -0.0254,0.0049 l -0.19509,0.267055 c -0.006,0.0088 -0.005,0.02045 0.003,0.02646 l 0.33267,0.242358 c 0.008,0.006 0.0198,0.0039 0.0261,-0.0046 l 0.16828,-0.230717 0.32279,0.235305 c 0.008,0.006 0.0198,0.0039 0.0257,-0.0046 l 0.19509,-0.267404 c 0.006,-0.0085 0.005,-0.02011 -0.003,-0.02611 l -0.33266,-0.24271 c -0.008,-0.006 -0.0201,-0.0039 -0.0258,0.0049 m 1.50072,0.04304 -0.19509,0.267052 c -0.006,0.0088 -0.005,0.02045 0.004,0.02611 l 0.33267,0.24271 c 0.008,0.006 0.0198,0.0039 0.0258,-0.0046 l 0.19508,-0.267407 c 0.006,-0.0088 0.005,-0.02045 -0.004,-0.02646 l -0.33267,-0.242358 c -0.008,-0.006 -0.0198,-0.0039 -0.0257,0.0049 m -0.78987,0.559507 c -0.0808,0.02574 -1.50213,0.513995 -1.58503,0.54257 -0.078,0.02716 -0.10019,0.0448 -0.11748,0.09701 -0.0177,0.05221 -0.0268,0.0822 -0.031,0.09067 -0.0166,0.03387 -0.0293,0.06456 0.079,0.02222 0.036,-0.01376 1.48237,-0.502005 1.54869,-0.528108 0.0635,-0.02469 0.097,-0.04057 0.127,-0.09278 0.0296,-0.05292 0.0367,-0.06209 0.0533,-0.09913 0.0183,-0.03951 0.0413,-0.06985 -0.0744,-0.03245"
       style="fill:#231f20;fill-opacity:1;fill-rule:evenodd;stroke:none;stroke-width:0.264583"
       id="path1" />
  </g>
</svg>
