<?xml version="1.0" encoding="UTF-8" standalone="no"?>
<!-- Created with Inkscape (http://www.inkscape.org/) -->

<svg
   width="19.362253mm"
   height="7.1818576mm"
   viewBox="0 0 19.362253 7.1818576"
   version="1.1"
   id="svg1"
   xmlns="http://www.w3.org/2000/svg"
   xmlns:svg="http://www.w3.org/2000/svg">
  <defs
     id="defs1" />
  <g
     id="layer1"
     transform="translate(-186.40725,-29.241771)">
    <path
       d="m 192.34809,29.311247 c -0.0998,0.109009 -0.13088,0.183447 -0.16051,0.230365 -0.0413,0.06421 0.0106,0.09278 0.0572,0.04268 0.0462,-0.04974 0.0783,-0.09983 0.21414,-0.09631 0.13546,0.0035 0.46037,-0.0088 0.33902,0.08008 -0.12136,0.08961 -0.20356,0.14111 -0.20356,0.14111 -0.0787,0.05645 -0.14816,0.162631 -0.009,0.103716 0.13935,-0.05891 0.32314,-0.151693 0.46426,-0.364066 0.0409,-0.06209 0.0892,-0.144637 -0.10196,-0.173212 -0.19085,-0.02858 -0.49988,-0.07338 -0.59972,0.03563 m -1.42981,0.01976 c -0.0222,0.0099 -1.19485,0.510468 -1.62701,0.697793 -0.0416,0.01834 -0.44485,0.167924 -0.60078,0.400757 -0.14993,0.23989 -0.079,0.378531 -0.003,0.42051 0.0751,0.04198 0.11042,0.09948 0.13828,0.156633 0.17004,-0.301976 -0.0536,-0.261408 -0.15627,-0.404635 -0.0515,-0.07162 0.36618,-0.300918 0.69532,-0.439915 0.9532,-0.412043 1.51518,-0.646641 1.52823,-0.653695 0.0148,-0.0071 0.0261,-0.01516 0.0282,-0.024 0.002,-0.0092 0.0413,-0.137231 0.0473,-0.160515 0.006,-0.024 -0.024,-0.0049 -0.0501,0.0071 m 7.10953,0.858308 c -0.0702,0.10654 -0.12241,0.362657 -0.0222,0.435682 0.0998,0.07338 0.24624,0.132291 0.24624,0.132291 -0.46567,0.571146 -0.78458,0.679802 -1.05693,0.839611 -0.0702,0.04128 -0.0564,0.07796 -0.0152,0.06703 0.0212,-0.0056 0.38771,-0.06279 0.81562,-0.387701 0.23178,-0.176036 0.37183,-0.47625 0.37183,-0.47625 0,0 0.11607,0.09666 0.13159,0.116064 0.0353,0.04339 0.0543,0.07585 0.0709,0.02999 0.061,-0.168982 -0.0254,-0.270582 -0.1076,-0.323499 0,0 0.0857,-0.26317 -0.0716,-0.52705 -0.0261,-0.04409 -0.18204,-0.185912 -0.36266,0.09384 m 0.24377,0.07267 c 0.10442,0.09772 0.0889,0.257879 0.0847,0.294569 0,0 -0.13406,-0.06279 -0.19438,-0.08855 -0.0596,-0.02574 -0.091,-0.0635 -0.0635,-0.1016 0.0928,-0.129821 0.13793,-0.125587 0.17321,-0.104421 M 187.7885,30.093742 c -0.14641,0.239536 -0.13617,0.540809 -0.13547,0.877711 -0.0275,-0.06914 -0.18627,-0.509765 -0.6156,-0.739775 -0.0314,-0.01693 -0.0896,0.02257 -0.0882,0.129116 7.9e-4,0.06174 -0.005,0.212725 0.0367,0.25259 0.0416,0.03986 0.16263,0.11571 0.18238,0.125942 0.0205,0.01058 0.0413,0.01058 0.0455,-0.01553 0.004,-0.02612 0.0261,-0.08714 0.0663,-0.04692 0.0293,0.02858 0.26353,0.226483 0.35031,0.512937 0.073,0.249415 -0.45931,0.79728 -0.48718,0.82268 -0.0504,0.04551 -0.0317,0.07126 -0.008,0.05468 0.0236,-0.01588 0.0476,-0.02188 0.32421,-0.251528 0.2226,-0.185563 0.25858,-0.385588 0.26846,-0.537634 0.002,-0.0074 0.004,-0.01622 0.004,-0.02611 0.012,-0.184856 0.004,-0.504825 0.0106,-0.602544 0.009,-0.136879 0.049,-0.420864 0.21272,-0.28575 0.0374,0.03069 0.0776,0.07197 0.0776,0.07197 0.036,0.04374 0.0804,0.09349 0.0967,0.03916 0.025,-0.0822 0.0406,-0.216958 0.002,-0.286456 -0.0169,-0.03104 -0.22578,-0.287867 -0.34396,-0.09454 m 7.29121,0.343959 c -0.0653,0.02963 -1.5561,0.758118 -1.62278,0.79022 -0.0628,0.03034 -0.0794,0.04763 -0.0889,0.09278 -0.01,0.04551 -0.0141,0.07161 -0.0166,0.07902 -0.0106,0.03034 -0.0183,0.0568 0.0681,0.0113 0.0286,-0.01516 1.54023,-0.746476 1.5935,-0.774345 0.0508,-0.02717 0.0772,-0.0441 0.097,-0.09137 0.0198,-0.04657 0.0247,-0.05503 0.0349,-0.08749 0.0117,-0.03493 0.0275,-0.06244 -0.0653,-0.02011 m -0.42721,1.195917 c -0.0254,0.07937 -0.0448,0.140758 -0.0102,0.23142 0.0346,0.09102 0.1277,0.296688 0.14323,0.325967 0.0152,0.02963 0.019,0.06244 -0.0321,0.08431 -0.0512,0.02188 -0.28504,0.07162 -0.32843,-0.177448 -0.0434,-0.249412 -0.0473,-0.322085 -0.0692,-0.364419 -0.0215,-0.04233 -0.042,-0.04727 -0.0586,-0.0049 -0.0166,0.04198 -0.0272,0.128764 -0.0296,0.142875 -0.002,0.0141 -0.002,0.02434 0.007,0.03986 0.009,0.01516 0.10231,0.293865 0.06,0.370769 -0.0423,0.07655 -0.25188,0.21449 -0.36159,0.0702 -0.0526,-0.101248 -0.0208,-0.356658 -0.0208,-0.416631 0,-0.05997 -0.019,-0.08043 -0.0448,-0.0321 -0.0254,0.04833 -0.0395,0.08043 -0.0381,0.124177 0.001,0.04339 0.008,0.23001 0.004,0.288573 -0.004,0.05891 0,0.249412 0.11254,0.303035 0.11253,0.05362 0.27587,0.0039 0.40005,-0.23001 0.0959,0.139345 0.24165,0.1397 0.31962,0.111125 0.0663,-0.02434 0.1404,-0.123825 0.16227,-0.262115 0.0219,-0.137935 -0.0141,-0.232481 -0.0575,-0.310443 -0.0579,-0.09631 -0.096,-0.256823 -0.096,-0.256823 -0.0205,-0.0575 -0.0356,-0.116417 -0.0614,-0.03739 m -0.22825,1.522235 -0.19508,0.267407 c -0.006,0.0085 -0.005,0.02011 0.004,0.02574 l 0.33267,0.24271 c 0.008,0.0063 0.0194,0.0039 0.0257,-0.0046 l 0.19509,-0.267407 c 0.006,-0.0085 0.005,-0.02011 -0.004,-0.02611 l -0.33232,-0.242713 c -0.008,-0.0056 -0.0198,-0.0035 -0.0261,0.0049 m -2.79189,-3.025775 c -0.14287,0.201083 -0.1404,0.456141 -0.1471,0.740833 -0.0243,-0.05821 -0.1644,-0.433565 -0.56374,-0.632531 -0.0289,-0.01447 -0.0854,0.01834 -0.0864,0.108304 -2.7e-4,0.05221 -0.009,0.179562 0.0293,0.214135 0.0384,0.03457 0.15028,0.09948 0.16898,0.108657 0.0191,0.0092 0.0385,0.0095 0.0434,-0.0127 0.004,-0.02222 0.0265,-0.07373 0.0635,-0.03881 0.031,0.02858 0.23036,0.177448 0.34607,0.509059 0.0194,0.04339 0.061,0.04586 0.0677,-0.01765 0.0152,-0.156633 0.0148,-0.427212 0.0229,-0.509762 0.012,-0.115713 0.0554,-0.3556 0.20708,-0.239538 0.0346,0.02646 0.0716,0.06174 0.0716,0.06174 0.0328,0.03739 0.0737,0.07973 0.0903,0.03422 0.0254,-0.06914 0.043,-0.183091 0.009,-0.242358 -0.0152,-0.02646 -0.20672,-0.24624 -0.32244,-0.08361 m 0.90417,1.427691 c -0.0649,0.02999 -1.56739,0.713317 -1.63371,0.745419 -0.0624,0.03034 -0.0794,0.04763 -0.0889,0.09313 -0.009,0.04516 -0.0141,0.07162 -0.0166,0.07867 -0.0106,0.03069 -0.0183,0.0568 0.0684,0.0113 0.0282,-0.01516 1.55152,-0.70132 1.60443,-0.729543 0.0512,-0.02752 0.0773,-0.04374 0.097,-0.09102 0.0194,-0.04657 0.0247,-0.05503 0.0353,-0.08784 0.0109,-0.03457 0.0272,-0.06244 -0.066,-0.02011 m -0.1905,0.676627 c -0.0332,0.08043 -0.17075,0.357716 -0.14958,0.684741 0.005,0.07514 0.055,0.222605 0.16863,0.226484 0.0589,-2.65e-4 0.13476,-0.04268 0.18873,-0.227542 0.009,-0.04198 0.0152,-0.07549 0.019,-0.09208 0.006,-0.02468 -0.0127,-0.05433 -0.0317,0.0028 -0.043,0.11289 -0.15487,0.192265 -0.23847,0.04057 -0.0134,-0.03034 -0.0702,-0.167569 0.0335,-0.468487 0.0208,-0.05856 0.0473,-0.144992 0.0473,-0.144992 0.0236,-0.06597 -0.005,-0.101955 -0.0374,-0.02151 m -0.72214,1.044575 -0.19509,0.267407 c -0.006,0.0088 -0.005,0.02011 0.003,0.02611 l 0.33302,0.24271 c 0.008,0.0056 0.0194,0.0035 0.0254,-0.0049 l 0.19544,-0.267052 c 0.006,-0.0088 0.005,-0.02045 -0.004,-0.02646 l -0.33267,-0.242358 c -0.008,-0.006 -0.0198,-0.0035 -0.0257,0.0046 m 4.91172,-3.22227 c -0.0162,0.03951 -0.13723,0.336195 -0.13723,0.336195 0.003,0.01728 0.0363,0.146757 0.0427,0.19544 0.0561,0.428273 0.40675,2.959807 0.50764,3.759907 0.0494,0.394051 0.0879,0.748241 0.0935,0.938741 -0.005,0.05856 0.0212,0.08078 0.048,0.024 0.0145,-0.03034 0.0751,-0.155575 0.0935,-0.483658 0.0141,-0.246592 -0.006,-0.625827 -0.0762,-1.147234 -0.0102,-0.07584 -0.37535,-2.72062 -0.37535,-2.72062 0,0 0.1972,0.18556 0.2286,0.219075 0.0321,0.03351 0.0702,0.01588 0.0522,-0.0381 -0.018,-0.05398 -0.42192,-1.030465 -0.43497,-1.064683 -0.013,-0.03352 -0.0261,-0.05821 -0.0423,-0.01905 m -1.06821,0 c -0.0162,0.03951 -0.14605,0.324908 -0.14605,0.324908 0.004,0.02328 0.0339,0.09349 0.0554,0.237418 0.0205,0.141465 0.39229,2.938286 0.40358,3.087865 0.0113,0.149577 0.0554,0.255059 -0.0663,0.327377 -0.47131,0.244123 -1.33491,0.51576 -1.77447,0.770467 -0.24624,0.143227 -0.61736,0.475898 -0.89782,0.783518 -0.11818,0.129823 -0.3362,0.466725 -0.63112,0.537988 -0.2487,0.05997 -0.36018,-0.07162 -0.41663,-0.202496 -0.13476,-0.313619 0.1838,-1.041752 0.2473,-1.159227 0.007,-0.01236 0.0102,-0.02469 0.0109,-0.03598 0.28151,-0.09702 0.67874,-0.261409 0.80468,-0.46496 0.0808,-0.138997 0.17957,-0.30198 0.16828,-0.79728 l -0.31433,-2.540704 c 0,0 0.16581,0.179562 0.19756,0.213077 0.0318,0.03351 0.0702,0.01553 0.0522,-0.03845 -0.0183,-0.05397 -0.40428,-0.990248 -0.41769,-1.024466 -0.013,-0.03352 -0.0257,-0.05821 -0.0423,-0.01905 -0.0162,0.03951 -0.14605,0.324908 -0.14605,0.324908 0.004,0.02328 0.0342,0.09349 0.0554,0.237418 0.0205,0.141465 0.39265,2.938286 0.40358,3.087865 0.0113,0.149577 0.0554,0.255059 -0.0667,0.327377 -0.47096,0.244123 -1.33491,0.51576 -1.77412,0.770467 -0.24659,0.143227 -0.61736,0.475898 -0.89782,0.783518 -0.11818,0.129823 -0.33655,0.466725 -0.63112,0.537988 -0.24871,0.05997 -0.36019,-0.07162 -0.41663,-0.202496 -0.1016,-0.236008 0.054,-0.706967 0.16404,-0.975429 0.097,0.02222 0.20708,0.03387 0.33302,0.02928 0.17145,-0.01376 0.53587,-0.08431 0.75071,-0.443087 0.0487,-0.07937 0.15487,-0.451557 0.10866,-0.884063 -0.0162,-0.149577 -0.38276,-2.681462 -0.38276,-2.681462 0,0 0.18273,0.176035 0.21448,0.20955 0.0317,0.03351 0.0699,0.01588 0.0519,-0.0381 -0.018,-0.05398 -0.42192,-1.030465 -0.43462,-1.064683 -0.0134,-0.03352 -0.0265,-0.05821 -0.0427,-0.01905 -0.0162,0.03951 -0.14605,0.324908 -0.14605,0.324908 0.004,0.02328 0.0339,0.09349 0.055,0.237418 0.0208,0.141465 0.0497,0.339725 0.0818,0.560211 0,0 0.34714,2.254956 0.37218,2.431346 0.0254,0.176387 0.073,0.510468 0.0568,0.57291 -0.0162,0.06279 -0.31292,0.503415 -0.9465,0.386644 -0.0924,-0.02469 -0.42404,-0.09525 -0.64735,-0.639586 -0.13582,-0.317851 -0.40781,-0.163335 -0.51118,-0.0949 -0.10336,0.06809 -0.45155,0.353484 -0.63111,0.856547 -0.0381,0.135818 -0.25048,0.829026 -0.514,0.807508 -0.049,-0.0035 -0.39441,-0.137938 -0.50589,-0.663223 -0.0219,-0.103365 -0.0579,-0.460023 -0.006,-0.660752 0.0275,-0.10513 -0.019,-0.149932 -0.0653,-0.03034 -0.0462,0.119592 -0.29809,0.965552 0.31856,1.63195 0.19474,0.21096 0.45403,0.08432 0.5274,-0.04339 0.0734,-0.127706 0.35102,-0.740126 0.39159,-0.856898 0.0307,-0.08749 0.20355,-0.404987 0.41416,-0.578553 0.0705,-0.05786 0.33161,-0.261409 0.44803,-0.01447 0.0649,0.137231 0.1972,0.488598 0.59937,0.632177 -0.0914,0.206729 -0.22366,0.566208 -0.20779,0.937683 0.0113,0.258233 0.23777,0.77329 0.85337,0.484013 0.16827,-0.07867 0.40181,-0.3175 0.75071,-0.707673 0.14252,-0.159809 0.58103,-0.585259 1.4291,-0.853369 0.006,-0.0019 0.0109,-0.0039 0.0166,-0.0056 -0.0194,0.02963 -0.0402,0.06703 -0.0621,0.115358 -0.091,0.200731 -0.23777,0.577498 -0.22084,0.967317 0.0113,0.258233 0.23778,0.773289 0.85338,0.484012 0.16827,-0.07867 0.40181,-0.3175 0.75071,-0.707673 0.14252,-0.159808 0.58102,-0.585258 1.4291,-0.853368 0.26635,-0.08432 0.79975,-0.271288 0.95003,-0.513292 0.0804,-0.138996 0.17921,-0.301979 0.16792,-0.797279 l -0.31432,-2.540704 c 0,0 0.16615,0.179562 0.1979,0.213077 0.0314,0.03351 0.0702,0.01553 0.0519,-0.03845 -0.018,-0.05398 -0.40428,-0.990248 -0.41769,-1.024467 -0.013,-0.03352 -0.0257,-0.05821 -0.0423,-0.01905 m 9.08262,0.228246 c -0.0699,0.106539 -0.12207,0.362656 -0.0222,0.435681 0.10019,0.07338 0.24624,0.132644 0.24624,0.132644 -0.46531,0.570796 -1.38042,0.976841 -1.59808,1.146881 -0.0646,0.04868 -0.0561,0.07797 -0.0148,0.06668 0.036,-0.0095 0.73307,-0.20461 1.37054,-0.750358 0.2914,-0.250119 0.28363,-0.269169 0.35772,-0.420865 0.0635,0.03246 0.10724,0.08537 0.13194,0.116417 0.0353,0.04339 0.0543,0.0755 0.0709,0.02963 0.0607,-0.168627 -0.0254,-0.270933 -0.1076,-0.323495 0,0 0.0854,-0.262822 -0.0716,-0.527405 -0.0261,-0.04409 -0.18204,-0.185208 -0.36301,0.09419 m 0.24341,0.07267 c 0.10513,0.09772 0.0893,0.257881 0.085,0.294568 0,0 -0.13405,-0.06279 -0.19402,-0.08819 -0.0596,-0.02574 -0.0914,-0.06385 -0.0635,-0.101952 0.0921,-0.129823 0.13758,-0.12559 0.1725,-0.104423 m -1.78823,-0.165452 c -0.18309,0.232479 -0.19473,0.538692 -0.21907,0.879827 -0.0261,-0.07126 -0.17216,-0.528815 -0.63994,-0.790927 -0.0335,-0.01905 -0.10266,0.01728 -0.10901,0.124883 -0.004,0.06279 -0.0219,0.215194 0.0222,0.258234 0.0445,0.04339 0.17498,0.128058 0.1965,0.140051 0.0222,0.01236 0.0455,0.01376 0.0526,-0.01236 0.006,-0.02611 0.036,-0.08713 0.0787,-0.04339 0.0356,0.03598 0.26564,0.226838 0.38558,0.630414 0.0208,0.05362 0.0706,0.05856 0.0815,-0.01765 0.0279,-0.186267 0.0427,-0.510821 0.0579,-0.609246 0.0208,-0.137938 0.0864,-0.423333 0.26176,-0.275166 0.0399,0.03351 0.0822,0.07796 0.0822,0.07796 0.037,0.04692 0.0836,0.10019 0.10654,0.04622 0.0342,-0.08149 0.0621,-0.216959 0.0243,-0.289984 -0.0166,-0.03246 -0.23354,-0.306916 -0.38171,-0.118885 m -1.80022,-0.01093 c -0.0674,0.03951 -1.78788,1.032229 -1.85738,1.077031 -0.0698,0.04516 -0.0945,0.0568 -0.10548,0.110419 -0.0116,0.05362 -0.0173,0.08467 -0.0201,0.09349 -0.0123,0.03563 -0.0215,0.08008 0.0811,0.01341 0.0321,-0.02082 1.76213,-1.020585 1.82245,-1.058333 0.0582,-0.03669 0.0921,-0.05221 0.11536,-0.10795 0.0233,-0.05539 0.0293,-0.06562 0.0416,-0.104421 0.0134,-0.04127 0.0265,-0.08502 -0.0776,-0.02363 m 0.3302,1.355021 c -0.0346,0.08396 -0.17851,0.37465 -0.15664,0.717196 0.005,0.07902 0.0575,0.233187 0.17675,0.237421 0.0614,-2.65e-4 0.14111,-0.04481 0.1979,-0.238832 0.01,-0.04339 0.0159,-0.07867 0.0198,-0.09596 0.006,-0.02574 -0.013,-0.0575 -0.0332,0.0028 -0.0452,0.118533 -0.16193,0.201435 -0.24977,0.04233 -0.0141,-0.03175 -0.0737,-0.175683 0.0353,-0.490715 0.0219,-0.06103 0.0494,-0.1524 0.0494,-0.1524 0.0243,-0.06879 -0.005,-0.106537 -0.0395,-0.02188 m 3.30765,0.172861 c -0.0321,0.07832 -0.16545,0.347133 -0.14535,0.664281 0.005,0.07338 0.0536,0.2159 0.16369,0.219779 0.0572,0 0.13053,-0.04163 0.1831,-0.220837 0.009,-0.04057 0.0148,-0.07303 0.0187,-0.0889 0.005,-0.02434 -0.0127,-0.05292 -0.0307,0.0024 -0.042,0.109715 -0.15028,0.186619 -0.23177,0.03916 -0.013,-0.02928 -0.0677,-0.162631 0.0328,-0.454377 0.0205,-0.05645 0.0459,-0.141112 0.0459,-0.141112 0.0226,-0.0635 -0.005,-0.09807 -0.0363,-0.02045 m -15.46542,0.01024 c -0.0328,0.08008 -0.17075,0.357716 -0.14958,0.684387 0.005,0.0755 0.055,0.222956 0.16898,0.226838 0.0586,-2.65e-4 0.13476,-0.04304 0.18838,-0.227897 0.01,-0.04163 0.0152,-0.07514 0.0194,-0.09172 0.006,-0.02469 -0.0127,-0.05468 -0.0321,0.0028 -0.0427,0.11289 -0.15451,0.192265 -0.23812,0.04022 -0.0138,-0.02999 -0.0702,-0.167569 0.0335,-0.468136 0.0208,-0.05856 0.0473,-0.145343 0.0473,-0.145343 0.0233,-0.06597 -0.005,-0.1016 -0.0377,-0.02117 m 9.25865,-0.0019 -0.16827,0.231069 -0.32315,-0.236009 c -0.008,-0.0056 -0.0194,-0.0035 -0.0257,0.0049 l -0.19509,0.267407 c -0.006,0.0085 -0.005,0.02011 0.003,0.02611 l 0.33302,0.242358 c 0.008,0.006 0.0198,0.0042 0.0257,-0.0042 l 0.16863,-0.231069 0.32279,0.235302 c 0.008,0.006 0.0198,0.0042 0.0261,-0.0042 l 0.19474,-0.267758 c 0.006,-0.0085 0.005,-0.01976 -0.003,-0.02574 l -0.33302,-0.243065 c -0.008,-0.0056 -0.0194,-0.0035 -0.0257,0.0049 m -11.8946,0.24906 c -0.0653,0.16369 -0.33161,0.725313 -0.33303,1.404408 0,0.156988 0.0688,0.466373 0.26247,0.485423 0.10054,0.0049 0.2353,-0.0762 0.34819,-0.454025 0.0208,-0.08608 0.0346,-0.154516 0.043,-0.188383 0.0127,-0.05115 -0.0155,-0.114652 -0.0547,0.0024 -0.0864,0.230717 -0.2861,0.383823 -0.41169,0.06174 -0.0198,-0.06386 -0.1009,-0.35419 0.11042,-0.967671 0.042,-0.118885 0.0974,-0.296334 0.0974,-0.296334 0.0473,-0.134053 0.004,-0.211312 -0.0621,-0.04762 m 13.19812,0.166865 c -0.0134,0.04516 -0.0459,0.23989 -0.0536,0.280107 -0.008,0.03986 -0.007,0.07938 0.0123,0.113945 0.0198,0.03422 0.0706,0.152755 0.10725,0.249063 0.0363,0.09631 0.41416,0.824087 0.44943,0.888294 0.0346,0.06456 0.042,0.113241 0.007,0.155575 -1.21285,1.279876 -3.55318,2.066573 -3.62797,2.109964 -0.0748,0.04339 -0.055,0.07726 0.0709,0.05503 0.18838,-0.03281 1.23966,-0.208492 1.53917,-0.353132 0.19791,-0.09525 0.88794,-0.434268 1.45239,-0.8763 -0.0155,0.113948 -0.03,0.281869 -0.0219,0.494948 0.0377,1.029404 0.95814,0.858309 1.19944,0.805392 0.7239,-0.15875 1.60867,-1.15923 1.68381,-1.359958 0.0744,-0.198615 0.0854,-0.379942 0.0684,-0.537634 0.19085,-0.103013 0.59972,-0.433213 0.59972,-0.433213 0.0169,0.438505 0.36618,0.570442 0.47378,0.589492 0.50341,0.07655 0.75565,-0.344662 0.8629,-0.480835 0.0917,0.240593 0.3122,0.287515 0.42545,0.30974 0.43462,0.08643 0.51928,-0.22084 0.54186,-0.291042 0.13617,-0.423688 -0.10936,-0.739071 -0.14076,-0.774348 -0.0318,-0.03493 -0.0476,-0.0011 -0.0586,0.03916 -0.0116,0.04092 -0.0466,0.193323 -0.0684,0.288925 0,0 0.0907,0.148167 0.12312,0.223309 0.0325,0.07549 -0.0155,0.116768 -0.10936,0.128058 -0.26388,0.03246 -0.47484,-0.11924 -0.54751,-0.18909 -0.0723,-0.06985 0.006,-0.19332 0.0646,-0.341135 0.0469,-0.117827 -0.0402,-0.132292 -0.10654,0 -0.22401,0.588785 -0.53905,0.652285 -0.6216,0.674865 -0.74612,0.2032 -0.68156,-0.479073 -0.67945,-0.59055 0.003,-0.111832 -0.079,-0.07021 -0.17074,0.0032 -0.31397,0.252235 -0.56691,0.40005 -0.70308,0.460727 -0.11678,-0.2286 -0.28681,-0.372534 -0.35878,-0.424392 -0.80751,-0.588785 -0.87383,0.599017 -0.84984,0.726368 0.12312,0.505532 0.94791,0.198967 1.07738,0.183799 0.12912,-0.01516 0.0871,0.155926 0.0145,0.257175 -0.17921,0.250118 -0.38559,0.429683 -0.57256,0.582435 -0.79975,0.652288 -1.20121,0.600781 -1.32468,0.596548 -0.78564,-0.02188 -0.71332,-0.86854 -0.66993,-1.04916 0.23636,-0.20038 0.43956,-0.41769 0.55739,-0.641705 0.048,-0.122767 0.13088,-0.401812 -0.0187,-0.751417 -0.0787,-0.154162 -0.32596,-0.586316 -0.32596,-0.586316 0,0 0.18203,0.006 0.19932,0.0053 0.0173,-2.64e-4 0.0519,-0.01834 0.007,-0.06914 -0.0441,-0.05151 -0.42756,-0.433565 -0.45049,-0.464257 -0.0233,-0.03069 -0.0445,-0.05292 -0.0572,-0.0078 m 2.42182,1.7526 c 0,0 -0.10972,0.06315 -0.41734,0.04233 -0.25753,-0.01693 -0.23565,-0.117475 -0.20003,-0.155926 0.0381,-0.04163 0.35384,-0.240242 0.61737,0.113593 m -3.31647,-1.424868 c -0.0533,0.06632 -0.58949,0.770112 -0.58949,0.770112 l -0.38982,-0.277987 c 0,0 0.15875,-0.04022 0.18627,-0.04833 0.0279,-0.0078 0.0437,-0.04374 -0.006,-0.06914 -0.0501,-0.02574 -0.52034,-0.213432 -0.55633,-0.227897 -0.0356,-0.01447 -0.0487,-0.03069 -0.0515,0.0071 -0.004,0.03845 -0.009,0.34784 -0.009,0.34784 0,0 -0.007,0.02188 0.0339,0.0448 0.0409,0.02328 0.0811,0.07338 0.11501,0.106892 0.0335,0.03387 0.47096,0.378883 0.49213,0.390877 0,0 -0.21837,0.38453 -0.2466,0.685448 -0.0279,0.300919 0.006,0.71614 0.41699,0.582083 0.11042,-0.0314 0.5715,-0.214841 0.67451,-0.536223 0.0332,-0.117827 0.1277,-0.331962 -0.0265,-0.548216 -0.0889,-0.127704 -0.44873,-0.3429 -0.44873,-0.3429 0,0 0.27587,-0.382059 0.30268,-0.428271 0.0261,-0.04727 0.12771,-0.3429 0.13864,-0.414515 0.0116,-0.07161 0.0169,-0.10795 -0.0363,-0.04163 m -0.0945,1.623128 c -0.15275,0.12559 -0.47343,0.291748 -0.56374,0.300215 -0.0903,0.0088 -0.32985,-0.03528 -0.22542,-0.28081 0.0353,-0.07902 0.27446,-0.48895 0.27446,-0.48895 0.0896,0.04939 0.66781,0.343604 0.5147,0.469545 m -10.56675,-1.469318 -0.16827,0.231068 -0.3228,-0.235653 c -0.008,-0.0056 -0.0198,-0.0035 -0.0257,0.0046 l -0.19509,0.267758 c -0.006,0.0085 -0.005,0.02011 0.003,0.02611 l 0.33302,0.242358 c 0.008,0.006 0.0194,0.0039 0.0257,-0.0042 l 0.16827,-0.231072 0.32315,0.235305 c 0.008,0.006 0.0194,0.0039 0.0254,-0.0042 l 0.19508,-0.267759 c 0.006,-0.0085 0.005,-0.02011 -0.003,-0.02611 l -0.33303,-0.24271 c -0.008,-0.0056 -0.0194,-0.0035 -0.0257,0.0046 m 16.79751,2.030942 c -0.031,0.08643 -0.043,0.142875 -0.0399,0.176035 0.004,0.03281 0.0148,0.139348 0.0148,0.139348 -0.0325,0.02574 -0.16862,0.110773 -0.30585,0.01024 0.009,-0.02928 0.0268,-0.08855 0.031,-0.121356 0.0148,-0.05045 -0.0162,-0.08819 -0.0409,-0.03598 -0.0254,0.05257 -0.0833,0.228249 -0.12665,0.267759 -0.0427,0.03951 -0.0928,0.184502 -0.4191,0.03704 -0.0568,-0.02188 -0.15734,-0.09596 -0.31256,0.06068 -0.35278,0.327732 -0.59619,0.353484 -0.99166,0.49389 -0.0476,0.02188 -0.14816,0.09737 -0.0289,0.08502 0.11888,-0.01164 0.62018,2.64e-4 0.89287,-0.312561 0.0571,-0.05539 0.12242,-0.201789 0.33903,-0.116768 0.11994,0.04551 0.34148,0.236008 0.58314,-0.140055 0.14252,0.0949 0.35948,0.05715 0.39334,-0.04763 0.0349,-0.104775 0.0744,-0.208843 0.0741,-0.280103 -2.7e-4,-0.07091 -0.006,-0.164749 -0.006,-0.164749 -0.005,-0.05644 -0.0247,-0.136525 -0.0565,-0.0508 m -9.73596,0.197909 c -0.0423,0.08043 -0.21696,0.355952 -0.2159,0.694266 2.7e-4,0.07832 0.0469,0.23354 0.17533,0.24624 0.0663,0.0042 0.15522,-0.03387 0.22896,-0.220133 0.0134,-0.04269 0.0222,-0.07655 0.0279,-0.09313 0.008,-0.0254 -0.0106,-0.05751 -0.036,0 -0.0564,0.113593 -0.18838,0.186618 -0.27234,0.024 -0.0134,-0.0321 -0.0681,-0.178152 0.0702,-0.480483 0.0275,-0.05856 0.0635,-0.14605 0.0635,-0.14605 0.0307,-0.06597 10e-4,-0.104775 -0.0416,-0.02469 m -6.7504,0.758119 c -0.0653,0.02928 -1.19768,0.567267 -1.26436,0.599723 -0.0628,0.02999 -0.0794,0.04727 -0.0889,0.09243 -0.01,0.04551 -0.0141,0.07197 -0.0169,0.07902 -0.0102,0.03034 -0.018,0.05715 0.0684,0.0113 0.0286,-0.01482 1.18216,-0.555625 1.23472,-0.583848 0.0512,-0.02716 0.0776,-0.04374 0.0974,-0.09067 0.0198,-0.04727 0.0243,-0.05538 0.0349,-0.08784 0.0113,-0.03493 0.0272,-0.06279 -0.0653,-0.02011"
       style="fill:#231f20;fill-opacity:1;fill-rule:evenodd;stroke:none;stroke-width:0.264583"
       id="path1" />
  </g>
</svg>
