<?xml version="1.0" encoding="UTF-8" standalone="no"?>
<!-- Created with Inkscape (http://www.inkscape.org/) -->

<svg
   width="14.660721mm"
   height="6.9146843mm"
   viewBox="0 0 14.66072 6.9146841"
   version="1.1"
   id="svg1"
   xml:space="preserve"
   xmlns="http://www.w3.org/2000/svg"
   xmlns:svg="http://www.w3.org/2000/svg"><defs
     id="defs1" /><g
     id="layer1"
     transform="translate(-293.4412,13.112024)"><g
       id="g3"
       transform="translate(125.35033,-25.039327)"><path
         d="m 179.76575,14.342742 c 0.01,-0.03528 0.03,-0.225777 -0.06,-0.340783 -0.0554,-0.06032 -0.11641,-0.06385 -0.20037,0.06597 -0.0261,0.03916 -0.0261,0.07973 0.03,0.115005 0.0564,0.03457 0.23036,0.159809 0.23036,0.159809 m -0.80751,0.918986 c -0.0907,0.04339 -0.16898,-0.0078 0.0395,-0.156633 0.31962,-0.227189 0.56445,-0.382412 0.66605,-0.556684 0,0 -0.19438,-0.125236 -0.28293,-0.213783 -0.0885,-0.08925 0.024,-0.335492 0.11148,-0.4318 0.22366,-0.251883 0.33055,-0.08537 0.35701,-0.04022 0.10865,0.209903 0.043,0.473075 0.0116,0.547864 0,0 0.0868,0.06526 0.11183,0.09137 0.0346,0.03704 0.0191,0.11183 -0.0265,0.24518 -0.0162,0.04657 -0.0674,-0.08079 -0.18803,-0.136877 -0.0935,0.198261 -0.19685,0.366183 -0.8001,0.65158 m -2.42888,-0.92463 c 0.01,-0.03492 0.03,-0.225425 -0.06,-0.340431 -0.0554,-0.06033 -0.11642,-0.06421 -0.20038,0.06562 -0.0254,0.03916 -0.0261,0.08008 0.03,0.115006 0.0564,0.03457 0.23036,0.159808 0.23036,0.159808 m -0.80751,0.919339 c -0.0907,0.04304 -0.16827,-0.0081 0.0392,-0.156634 0.31997,-0.227541 0.5648,-0.382411 0.6664,-0.557036 0,0 -0.19438,-0.125236 -0.28293,-0.213783 -0.0885,-0.08925 0.024,-0.335139 0.11148,-0.4318 0.22401,-0.251883 0.33055,-0.08537 0.35666,-0.04022 0.109,0.210255 0.0437,0.473428 0.012,0.548217 0,0 0.0868,0.06491 0.11183,0.09137 0.0346,0.03669 0.0191,0.111477 -0.0265,0.244827 -0.0162,0.04692 -0.0677,-0.08079 -0.18732,-0.136877 -0.0942,0.198613 -0.19756,0.366183 -0.80081,0.651933 m -4.312,-0.492831 0.0684,-0.127 c 0.005,-0.01305 0.0194,-0.02716 0.0275,-0.0011 0.0473,0.155575 0.0459,0.28575 0.0113,0.383822 -0.0356,0.102306 -0.0635,0.160514 -0.18873,0.192617 -0.0981,0.02611 -0.20673,0 -0.2607,-0.08855 -0.0699,0.174979 -0.20744,0.240596 -0.3228,0.223663 -0.14181,-0.02081 -0.22613,-0.175331 -0.0871,-0.452614 0.0406,-0.08079 0.0684,-0.03916 0.0547,0 -0.0649,0.183797 0.004,0.249061 0.0963,0.242711 0.14816,-0.0099 0.23036,-0.09631 0.254,-0.28822 0.004,-0.03069 -0.0141,-0.02505 0.0526,-0.07973 0.0515,-0.04127 0.0441,-0.01905 0.0423,0.03916 -0.004,0.08149 0.0109,0.143581 0.0508,0.176742 0.0628,0.05151 0.14887,0.03845 0.22895,-0.03845 0.001,-0.03422 -0.0145,-0.09243 -0.0346,-0.143581 -0.007,-0.01517 3.6e-4,-0.0254 0.007,-0.03951 m 6.47136,-0.454025 c -0.127,0.05433 -0.18345,0.05009 -0.34149,0.107245 -0.0317,0.01164 -0.0706,0.0067 -0.0751,-0.01764 -0.006,-0.0314 0.0275,-0.06279 0.0547,-0.08008 0.0628,-0.03916 0.46249,-0.237067 0.4639,-0.257175 3.5e-4,-0.0092 -0.17215,-0.07338 -0.26388,-0.08255 -0.10124,-0.0095 -0.20037,0.01199 -0.29386,0.06879 -0.0392,0.02364 -0.0706,0.06068 -0.0956,0.09843 -0.0222,0.03246 -0.0437,0.0042 -0.0325,-0.0381 0.01,-0.02505 0.025,-0.05856 0.0356,-0.08325 0.0938,-0.192264 0.26317,-0.274108 0.44521,-0.262467 0.11818,0.0074 0.22648,0.06738 0.34007,0.0949 0.0332,0.0078 0.14817,0.01905 0.15382,0.05115 -0.005,0.04163 -0.0462,0.164395 -0.0956,0.210609 -0.0152,0.01411 -0.03,0.0127 -0.0423,0.01623 -0.0303,0.0088 -0.0811,0.100188 -0.25294,0.173919 m -1.58609,2.082447 c -0.10901,-0.06597 -0.20567,-0.118886 -0.26423,-0.168627 -0.0656,-0.0568 -0.0702,-0.168628 -0.0243,-0.2413 0.1263,-0.198262 0.44803,-0.519995 0.63783,-0.508353 0.11535,0.0067 0.23636,0.151341 0.22895,0.211666 -0.007,0.05574 -0.12277,0.259645 -0.17957,0.257528 -0.0476,-0.0018 -0.0444,-0.157339 -0.22119,-0.184855 -0.061,-0.0095 -0.22472,0.09525 -0.22966,0.148166 -0.006,0.06915 0.17392,0.245181 0.40464,0.265642 0.18627,0.01729 0.30656,-0.01023 0.46108,-0.03986 0.0286,-0.0053 0.0452,0.006 0.0222,0.04198 -0.0166,0.02752 -0.12524,0.218722 -0.1457,0.221897 -0.133,0.0074 -0.27693,0.04939 -0.46073,0.1143 -0.20108,0.07161 -0.39123,0.16757 -0.51823,0.245534 -0.0226,0.01305 -0.0367,-0.0092 -0.0303,-0.02752 0.0187,-0.05115 0.0494,-0.138995 0.0741,-0.190148 0.0519,-0.04551 0.19192,-0.127 0.24519,-0.14605 m 6.2678,-0.839611 c -0.0317,-0.299508 -0.15875,-1.224844 -0.17075,-1.462616 -0.005,-0.130175 -0.0212,-0.242711 -0.0769,-0.14217 -0.0593,0.107597 -0.0924,0.246239 -0.0734,0.435681 0.0257,0.326672 0.0564,0.571853 0.0861,0.806097 0.0293,0.237067 0.13477,0.943328 0.12383,1.443567 -0.002,0.117122 0.0423,0.147461 0.0787,0.06315 0.0617,-0.141817 0.0942,-0.547512 0.0325,-1.143706 m -1.51836,1.550106 c -0.0413,-0.04057 -0.0769,-0.08608 -0.11077,-0.130881 l -0.0247,-0.0021 -0.22472,0.226131 -0.006,0.04127 c 0.031,0.0441 0.0656,0.08537 0.10513,0.124883 0.0427,0.04339 0.0885,0.08043 0.13617,0.113594 l 0.0441,-0.0035 0.22472,-0.225425 -0.002,-0.02752 c -0.0512,-0.03351 -0.0984,-0.07161 -0.14184,-0.11641 m 1.04705,-1.093259 c -0.15346,-0.0099 -0.86325,-0.02293 -1.27847,-0.252236 0.0413,-0.03528 0.13123,-0.150989 0.0988,-0.441677 -0.0314,-0.290689 -0.14781,-1.121834 -0.14781,-1.121834 -0.009,-0.08678 -0.0448,-0.170039 0.005,-0.214136 0.049,-0.0448 0.15346,-0.12065 0.0931,-0.202494 -0.06,-0.0822 -0.16299,-0.237772 -0.19227,-0.325967 -0.0254,-0.07444 -0.0473,-0.136525 -0.085,-0.07796 -0.0441,0.06738 -0.0596,0.153811 -0.11924,0.231422 -0.031,0.04127 -0.0632,0.06138 -0.0279,0.123473 0.048,0.08396 0.096,0.237772 0.10513,0.3429 0.004,0.05539 0.0201,0.174625 0.036,0.288219 0,0 0.2032,1.049867 0.18697,1.220258 0,0 -0.84066,0.02963 -0.94967,0.13582 l -0.16863,0.261761 c -0.0141,0.02893 -0.0127,0.06068 0.0272,0.05433 0.0395,-0.0067 0.55668,-0.172156 1.28235,0.118533 -0.0857,0.02963 -1.04387,0.439561 -1.85315,0.347839 -0.12135,-0.0032 -0.9719,-0.115005 -1.0421,-0.5461 -0.01,-0.05468 -0.0236,-0.07444 -0.0526,-0.0194 -0.0261,0.04904 -0.26211,0.401108 0.10866,0.653697 -0.11747,0.248356 -0.32702,0.584553 -0.64664,0.716139 -0.10478,0.03916 -0.57185,0.159103 -1.04352,-0.05256 -0.0582,-0.01834 -0.14358,0.02822 -0.0557,0.08819 0.0885,0.06068 0.95074,0.61207 1.5106,0.03175 0.0988,-0.101246 0.26745,-0.372885 0.39516,-0.697794 0.57361,0.311856 1.52752,0.140406 1.52752,0.140406 0.20744,-0.0441 0.4244,-0.105481 0.64982,-0.192264 0.11818,-0.04833 0.92992,-0.415572 1.4792,-0.287161 0.11571,0.02822 0.14182,0.02822 0.14182,0.02822 0,0 0.0988,-0.210961 0.12135,-0.261761 0.0219,-0.05115 0.0476,-0.08008 -0.10583,-0.08961 m -4.18488,-1.152895 -0.0243,-0.0021 -0.22543,0.226131 -0.005,0.04128 c 0.031,0.0441 0.066,0.08537 0.10513,0.125236 0.043,0.04233 0.0885,0.08079 0.13546,0.113241 l 0.0444,-0.0035 0.22508,-0.224719 -0.002,-0.02752 c -0.0512,-0.03421 -0.0981,-0.07302 -0.14217,-0.117116 -0.0409,-0.04057 -0.0765,-0.08608 -0.11077,-0.13088 m -8.57921,-1.61537 c 0.009,-0.03245 0.0279,-0.209197 -0.0554,-0.315736 -0.0515,-0.05574 -0.10795,-0.05927 -0.18556,0.06103 -0.0236,0.03634 -0.0243,0.07408 0.0279,0.106539 0.0522,0.0321 0.21307,0.148166 0.21307,0.148166 m -0.74753,0.8509 c -0.084,0.03986 -0.15593,-0.0074 0.0363,-0.145344 0.29599,-0.210256 0.52282,-0.353836 0.61701,-0.515056 0,0 -0.17991,-0.116416 -0.26211,-0.198614 -0.0818,-0.0822 0.0222,-0.310091 0.10301,-0.399344 0.20743,-0.233186 0.30656,-0.07902 0.33091,-0.03739 0.10054,0.19438 0.0399,0.43815 0.0106,0.507647 0,0 0.0804,0.06032 0.10372,0.08431 0.0318,0.03422 0.0176,0.103364 -0.0247,0.226836 -0.0148,0.04339 -0.0621,-0.07444 -0.17321,-0.126295 -0.0878,0.183445 -0.18309,0.33902 -0.74154,0.60325 m 3.0741,2.163586 c -0.0649,-0.120297 -0.15804,-0.212372 -0.22119,-0.266347 -0.12065,-0.102658 -0.22719,0.04692 -0.24588,0.11042 -0.0684,0.20955 0.28857,0.174272 0.36547,0.168275 z m 0.13335,-0.264936 c 0.28999,0.733778 -0.13158,1.243895 -0.17709,1.305278 -0.12735,0.171803 -0.26141,0.332669 -0.43674,0.405342 -0.55598,0.230364 -1.25977,0.08008 -1.33209,0.06385 -0.14323,-0.03281 -0.0815,-0.126647 0.0392,-0.107597 1.27847,0.169334 1.77765,-0.769055 1.85385,-1.011414 l 0.0113,-0.06138 c -0.22719,0.04516 -0.45685,0.04798 -0.54011,0.02223 -0.32949,-0.1016 -0.26634,-0.597253 0.003,-0.920397 0.27375,-0.328789 0.53622,0.197203 0.57855,0.304094 m 1.97697,0.479778 c -0.0938,0.153458 -0.18838,0.261408 -0.26952,0.335844 0.19544,-0.03598 0.37923,-0.07126 0.37923,-0.07126 -0.0296,-0.0889 -0.0677,-0.177447 -0.10971,-0.264583 m 0.33514,-2.243314 -0.0123,0.04727 c 0,0 0.16898,0.978606 -0.10512,1.738489 -0.043,0.117475 -0.0885,0.219781 -0.13477,0.310797 0.11501,0.254 0.1584,0.42792 0.16722,0.468842 0.048,0.233539 -0.0734,0.287514 -0.12135,0.300566 -0.048,0.01305 -0.86325,0.134409 -0.89818,0.140406 -0.0356,0.0067 -0.061,-0.0032 -0.0575,-0.04763 0.003,-0.0448 0.0219,-0.198614 0.0289,-0.236361 0.006,-0.03881 0.0286,-0.05468 0.0635,-0.05786 0.0109,-0.0011 0.0928,-0.01552 0.20179,-0.03563 0.2039,-0.128411 0.35277,-0.311855 0.46108,-0.524228 -0.35208,-0.636411 -0.95144,-1.182158 -1.06857,-1.236133 l -0.0254,0.04798 c -0.0162,0.0254 -0.0579,0.04763 -0.11253,0.03493 -0.0536,-0.0127 -0.40217,-0.188736 -0.42828,-0.204611 -0.0257,-0.01623 -0.0381,-0.02575 -0.048,-0.0956 -0.01,-0.07091 -0.0797,-0.4064 -0.0766,-0.537281 0.003,-0.13088 0.10266,-0.06703 0.16651,-0.02223 0.92358,0.642409 1.415,1.346906 1.66794,1.840795 0.31679,-0.823031 0.13405,-1.929342 0.11536,-1.979083 -0.0194,-0.0508 -0.0519,-0.103012 -0.0984,-0.179564 -0.0462,-0.07655 -0.0183,-0.1651 -0.004,-0.193675 0.0155,-0.02752 0.0794,-0.101248 0.12136,-0.211667 0.0205,-0.05292 0.055,0.0049 0.072,0.05821 0.0152,0.04868 0.127,0.206728 0.17463,0.259644 0.0321,0.03669 0.0596,0.102659 0.049,0.130881 -0.0201,0.05468 -0.0843,0.161925 -0.0984,0.182739 m -2.30188,-0.149225 c 0.12418,-0.06914 0.23637,-0.108655 0.32597,-0.131939 0.1136,-0.02928 0.26811,-0.04515 0.26811,-0.04515 l 0.0441,-0.06068 c 0.0226,-0.03528 0.0956,-0.135114 0.0317,-0.125589 -0.0642,0.0099 -0.31433,0.07832 -0.42968,0.03986 -0.10654,-0.03598 -0.14429,-0.09278 -0.15205,-0.121708 -0.008,-0.03563 0.0409,-0.0702 0.0543,-0.07726 0.043,-0.02152 0.11818,-0.05009 0.16016,-0.02293 0.0261,0.01658 0.0437,0.04586 0.0631,0.07761 0.0176,0.02858 0.0335,0.02575 0.0526,0.0046 0.0275,-0.03034 0.12735,-0.131586 0.0868,-0.193675 -0.0406,-0.06315 -0.10689,-0.131586 -0.21766,-0.08961 -0.0455,0.0187 -0.10407,0.05503 -0.16087,0.09772 -0.0759,0.05821 -0.19403,0.185913 -0.2286,0.29598 -0.0109,0.03528 -0.003,0.06738 0.0317,0.103364 0.0642,0.06668 0.1136,0.0949 0.1136,0.0949 -0.0317,0.02787 -0.0737,0.06421 -0.078,0.07161 -0.0173,0.03281 -0.0307,0.112536 -0.01,0.105128 0.01,-0.0035 0.0275,-0.01482 0.0445,-0.02223 m -1.52788,1.93851 c -0.0395,-0.442383 -0.25117,-1.755775 -0.25117,-1.755775 -0.0109,-0.06279 -0.003,-0.09172 0.008,-0.108655 0.0134,-0.02081 0.0773,-0.128059 0.0977,-0.182739 0.0106,-0.02822 -0.0169,-0.09419 -0.049,-0.130528 -0.0476,-0.05292 -0.15945,-0.211314 -0.17462,-0.259645 -0.0166,-0.05362 -0.0512,-0.111125 -0.0716,-0.05856 -0.042,0.110773 -0.10618,0.18415 -0.12135,0.212373 -0.0152,0.02787 -0.0427,0.117122 0.004,0.192969 0.0469,0.07655 0.0864,0.127353 0.0988,0.180269 0.0741,0.32385 0.31257,1.956153 0.32879,2.071864 0.0159,0.116417 0.0441,0.364067 -0.11994,0.488597 -0.1644,0.124178 -0.74225,0.47625 -1.14089,0.256117 -0.10336,-0.05715 -0.4318,-0.228247 -0.30832,-0.652639 0.036,-0.124178 0.0642,-0.203905 0.0882,-0.268111 0.024,-0.06385 -0.004,-0.11183 -0.06,-0.01199 -0.0557,0.100189 -0.375,0.707672 -0.0762,1.088672 0.084,0.107598 0.54433,0.552098 1.37301,0.0078 0.10125,-0.06562 0.44203,-0.322085 0.37535,-1.069974 m 0.23848,-1.42628 c 0.0342,-0.01623 0.69392,-0.298098 0.75389,-0.331259 0.0607,-0.03351 0.0967,-0.0441 0.12488,-0.09807 0.0275,-0.05362 0.0346,-0.06315 0.0501,-0.101247 0.0162,-0.04022 0.0353,-0.08608 -0.0762,-0.02999 -0.072,0.03634 -0.71403,0.313267 -0.79058,0.34678 -0.0759,0.03387 -0.0991,0.04904 -0.115,0.1016 -0.0155,0.05292 -0.0229,0.08114 -0.0272,0.09172 -0.0134,0.03598 -0.0314,0.07232 0.0801,0.02046 m 0.9331,-1.361369 c 0.0356,-0.01482 0.95215,-0.390172 1.01388,-0.420864 0.0617,-0.03104 0.0981,-0.04022 0.12806,-0.09313 0.0296,-0.05292 0.0367,-0.06174 0.054,-0.09948 0.0183,-0.03881 0.0381,-0.08467 -0.0748,-0.03281 -0.0734,0.03387 -0.97296,0.404284 -1.05058,0.435328 -0.0772,0.03069 -0.1016,0.0448 -0.11818,0.09737 -0.0176,0.05186 -0.0268,0.07973 -0.031,0.09031 -0.0145,0.03492 -0.0342,0.07091 0.0787,0.02328 m 3.47345,0.886178 c -0.005,-0.129822 -0.0215,-0.242358 -0.0769,-0.141817 -0.0596,0.107597 -0.0921,0.245534 -0.0741,0.435681 0.0261,0.325966 0.0568,0.5715 0.0861,0.806097 0.0296,0.237067 0.13476,0.942975 0.12488,1.442861 -0.003,0.117475 0.0423,0.147108 0.0787,0.06456 0.0607,-0.142875 0.0942,-0.548569 0.0314,-1.144411 -0.0307,-0.299861 -0.15805,-1.22555 -0.17004,-1.462969"
         style="fill:#231f20;fill-opacity:1;fill-rule:nonzero;stroke:none;stroke-width:0.352778"
         clip-path="url(#clipPath1)"
         id="path26" /></g></g></svg>
