<?xml version="1.0" encoding="UTF-8" standalone="no"?>
<!-- Created with Inkscape (http://www.inkscape.org/) -->

<svg
   version="1.1"
   id="svg1"
   width="53.670063"
   height="19.913332"
   viewBox="0 0 53.670063 19.913332"
   xmlns="http://www.w3.org/2000/svg"
   xmlns:svg="http://www.w3.org/2000/svg">
  <defs
     id="defs1">
    <clipPath
       clipPathUnits="userSpaceOnUse"
       id="clipPath25">
      <path
         d="m 315.495,518.176 h 40.253 v -14.935 h -40.253 z"
         transform="translate(-347.72461,-513.12061)"
         id="path25" />
    </clipPath>
    <clipPath
       clipPathUnits="userSpaceOnUse"
       id="clipPath27">
      <path
         d="M 0,547.086 H 382.677 V 0 H 0 Z"
         transform="matrix(1.3333333,0,0,-1.3333333,0,729.448)"
         id="path27" />
    </clipPath>
  </defs>
  <g
     id="layer-MC1"
     transform="translate(-420.65999,-38.54668)">
    <g
       id="g26"
       clip-path="url(#clipPath27)">
      <path
         d="M 0,0 C 0.027,0.1 0.085,0.64 -0.17,0.966 -0.327,1.137 -0.5,1.147 -0.738,0.779 -0.812,0.668 -0.812,0.553 -0.653,0.453 -0.493,0.355 0,0 0,0 m -2.289,-2.605 c -0.257,-0.123 -0.479,0.022 0.112,0.444 0.906,0.644 1.6,1.084 1.888,1.578 0,0 -0.551,0.355 -0.802,0.606 -0.251,0.253 0.068,0.951 0.316,1.224 0.634,0.714 0.937,0.242 1.012,0.114 0.308,-0.595 0.122,-1.341 0.033,-1.553 0,0 0.246,-0.185 0.317,-0.259 0.098,-0.105 0.054,-0.317 -0.075,-0.695 -0.046,-0.132 -0.191,0.229 -0.533,0.388 -0.265,-0.562 -0.558,-1.038 -2.268,-1.847 m -6.885,2.621 c 0.028,0.099 0.085,0.639 -0.17,0.965 -0.157,0.171 -0.33,0.182 -0.568,-0.186 -0.072,-0.111 -0.074,-0.227 0.085,-0.326 0.16,-0.098 0.653,-0.453 0.653,-0.453 m -2.289,-2.606 c -0.257,-0.122 -0.477,0.023 0.111,0.444 0.907,0.645 1.601,1.084 1.889,1.579 0,0 -0.551,0.355 -0.802,0.606 -0.251,0.253 0.068,0.95 0.316,1.224 0.635,0.714 0.937,0.242 1.011,0.114 0.309,-0.596 0.124,-1.342 0.034,-1.554 0,0 0.246,-0.184 0.317,-0.259 0.098,-0.104 0.054,-0.316 -0.075,-0.694 -0.046,-0.133 -0.192,0.229 -0.531,0.388 -0.267,-0.563 -0.56,-1.038 -2.27,-1.848 m -12.223,1.397 0.194,0.36 c 0.014,0.037 0.055,0.077 0.078,0.003 0.134,-0.441 0.13,-0.81 0.032,-1.088 -0.101,-0.29 -0.18,-0.455 -0.535,-0.546 -0.278,-0.074 -0.586,0 -0.739,0.251 -0.198,-0.496 -0.588,-0.682 -0.915,-0.634 -0.402,0.059 -0.641,0.497 -0.247,1.283 0.115,0.229 0.194,0.111 0.155,0 -0.184,-0.521 0.01,-0.706 0.273,-0.688 0.42,0.028 0.653,0.273 0.72,0.817 0.011,0.087 -0.04,0.071 0.149,0.226 0.146,0.117 0.125,0.054 0.12,-0.111 -0.012,-0.231 0.031,-0.407 0.144,-0.501 0.178,-0.146 0.422,-0.109 0.649,0.109 0.004,0.097 -0.041,0.262 -0.098,0.407 -0.019,0.043 0.001,0.072 0.02,0.112 m 18.344,1.287 c -0.36,-0.154 -0.52,-0.142 -0.968,-0.304 -0.09,-0.033 -0.2,-0.019 -0.213,0.05 -0.017,0.089 0.078,0.178 0.155,0.227 0.178,0.111 1.311,0.672 1.315,0.729 C -5.052,0.822 -5.541,1.004 -5.801,1.03 -6.088,1.057 -6.369,0.996 -6.634,0.835 -6.745,0.768 -6.834,0.663 -6.905,0.556 -6.968,0.464 -7.029,0.544 -6.997,0.664 -6.969,0.735 -6.926,0.83 -6.896,0.9 -6.63,1.445 -6.15,1.677 -5.634,1.644 -5.299,1.623 -4.992,1.453 -4.67,1.375 -4.576,1.353 -4.25,1.321 -4.234,1.23 -4.248,1.112 -4.365,0.764 -4.505,0.633 -4.548,0.593 -4.59,0.597 -4.625,0.587 -4.711,0.562 -4.855,0.303 -5.342,0.094 m -4.496,-5.903 c -0.309,0.187 -0.583,0.337 -0.749,0.478 -0.186,0.161 -0.199,0.478 -0.069,0.684 0.358,0.562 1.27,1.474 1.808,1.441 0.327,-0.019 0.67,-0.429 0.649,-0.6 -0.02,-0.158 -0.348,-0.736 -0.509,-0.73 -0.135,0.005 -0.126,0.446 -0.627,0.524 -0.173,0.027 -0.637,-0.27 -0.651,-0.42 -0.018,-0.196 0.493,-0.695 1.147,-0.753 0.528,-0.049 0.869,0.029 1.307,0.113 0.081,0.015 0.128,-0.017 0.063,-0.119 -0.047,-0.078 -0.355,-0.62 -0.413,-0.629 -0.377,-0.021 -0.785,-0.14 -1.306,-0.324 -0.57,-0.203 -1.109,-0.475 -1.469,-0.696 -0.064,-0.037 -0.104,0.026 -0.086,0.078 0.053,0.145 0.14,0.394 0.21,0.539 0.147,0.129 0.544,0.36 0.695,0.414 m 17.767,2.38 C 7.839,-2.58 7.479,0.043 7.445,0.717 7.432,1.086 7.385,1.405 7.227,1.12 7.059,0.815 6.965,0.422 7.019,-0.115 7.092,-1.041 7.179,-1.736 7.263,-2.4 7.346,-3.072 7.645,-5.074 7.614,-6.492 7.607,-6.824 7.734,-6.91 7.837,-6.671 c 0.175,0.402 0.267,1.552 0.092,3.242 M 3.625,-7.823 C 3.508,-7.708 3.407,-7.579 3.311,-7.452 L 3.241,-7.446 2.604,-8.087 2.587,-8.204 C 2.675,-8.329 2.773,-8.446 2.885,-8.558 3.006,-8.681 3.136,-8.786 3.271,-8.88 l 0.125,0.01 0.637,0.639 -0.006,0.078 c -0.145,0.095 -0.279,0.203 -0.402,0.33 m 2.968,3.099 c -0.435,0.028 -2.447,0.065 -3.624,0.715 0.117,0.1 0.372,0.428 0.28,1.252 C 3.16,-1.933 2.83,0.423 2.83,0.423 2.804,0.669 2.703,0.905 2.844,1.03 2.983,1.157 3.279,1.372 3.108,1.604 2.938,1.837 2.646,2.278 2.563,2.528 2.491,2.739 2.429,2.915 2.322,2.749 2.197,2.558 2.153,2.313 1.984,2.093 1.896,1.976 1.805,1.919 1.905,1.743 2.041,1.505 2.177,1.069 2.203,0.771 2.215,0.614 2.26,0.276 2.305,-0.046 c 0,0 0.576,-2.976 0.53,-3.459 0,0 -2.383,-0.084 -2.692,-0.385 l -0.478,-0.742 c -0.04,-0.082 -0.036,-0.172 0.077,-0.154 0.112,0.019 1.578,0.488 3.635,-0.336 -0.243,-0.084 -2.959,-1.246 -5.253,-0.986 -0.344,0.009 -2.755,0.326 -2.954,1.548 -0.027,0.155 -0.067,0.211 -0.149,0.055 -0.074,-0.139 -0.743,-1.137 0.308,-1.853 -0.333,-0.704 -0.927,-1.657 -1.833,-2.03 -0.297,-0.111 -1.621,-0.451 -2.958,0.149 -0.165,0.052 -0.407,-0.08 -0.158,-0.25 0.251,-0.172 2.695,-1.735 4.282,-0.09 0.28,0.287 0.758,1.057 1.12,1.978 1.626,-0.884 4.33,-0.398 4.33,-0.398 0.588,0.125 1.203,0.299 1.842,0.545 0.335,0.137 2.636,1.178 4.193,0.814 0.328,-0.08 0.402,-0.08 0.402,-0.08 0,0 0.28,0.598 0.344,0.742 0.062,0.145 0.135,0.227 -0.3,0.254 m -11.862,3.268 -0.069,0.006 -0.639,-0.641 -0.015,-0.117 c 0.088,-0.125 0.187,-0.242 0.298,-0.355 0.122,-0.12 0.251,-0.229 0.384,-0.321 l 0.126,0.01 0.638,0.637 -0.006,0.078 c -0.145,0.097 -0.278,0.207 -0.403,0.332 -0.116,0.115 -0.217,0.244 -0.314,0.371 m -24.319,4.579 c 0.026,0.092 0.079,0.593 -0.157,0.895 -0.146,0.158 -0.306,0.168 -0.526,-0.173 -0.067,-0.103 -0.069,-0.21 0.079,-0.302 0.148,-0.091 0.604,-0.42 0.604,-0.42 m -2.119,-2.412 c -0.238,-0.113 -0.442,0.021 0.103,0.412 0.839,0.596 1.482,1.003 1.749,1.46 0,0 -0.51,0.33 -0.743,0.563 -0.232,0.233 0.063,0.879 0.292,1.132 0.588,0.661 0.869,0.224 0.938,0.106 0.285,-0.551 0.113,-1.242 0.03,-1.439 0,0 0.228,-0.171 0.294,-0.239 0.09,-0.097 0.05,-0.293 -0.07,-0.643 -0.042,-0.123 -0.176,0.211 -0.491,0.358 -0.249,-0.52 -0.519,-0.961 -2.102,-1.71 m 8.714,-6.133 c -0.184,0.341 -0.448,0.602 -0.627,0.755 -0.342,0.291 -0.644,-0.133 -0.697,-0.313 -0.194,-0.594 0.818,-0.494 1.036,-0.477 z m 0.378,0.751 c 0.822,-2.08 -0.373,-3.526 -0.502,-3.7 -0.361,-0.487 -0.741,-0.943 -1.238,-1.149 -1.576,-0.653 -3.571,-0.227 -3.776,-0.181 -0.406,0.093 -0.231,0.359 0.111,0.305 3.624,-0.48 5.039,2.18 5.255,2.867 l 0.032,0.174 c -0.644,-0.128 -1.295,-0.136 -1.531,-0.063 -0.934,0.288 -0.755,1.693 0.009,2.609 0.776,0.932 1.52,-0.559 1.64,-0.862 m 5.604,-1.36 c -0.266,-0.435 -0.534,-0.741 -0.764,-0.952 0.554,0.102 1.075,0.202 1.075,0.202 -0.084,0.252 -0.192,0.503 -0.311,0.75 m 0.95,6.359 -0.035,-0.134 c 0,0 0.479,-2.774 -0.298,-4.928 -0.122,-0.333 -0.251,-0.623 -0.382,-0.881 0.326,-0.72 0.449,-1.213 0.474,-1.329 0.136,-0.662 -0.208,-0.815 -0.344,-0.852 -0.136,-0.037 -2.447,-0.381 -2.546,-0.398 -0.101,-0.019 -0.173,0.009 -0.163,0.135 0.008,0.127 0.062,0.563 0.082,0.67 0.017,0.11 0.081,0.155 0.18,0.164 0.031,0.003 0.263,0.044 0.572,0.101 0.578,0.364 1,0.884 1.307,1.486 -0.998,1.804 -2.697,3.351 -3.029,3.504 l -0.072,-0.136 c -0.046,-0.072 -0.164,-0.135 -0.319,-0.099 -0.152,0.036 -1.14,0.535 -1.214,0.58 -0.073,0.046 -0.108,0.073 -0.136,0.271 -0.027,0.201 -0.226,1.152 -0.217,1.523 0.009,0.371 0.291,0.19 0.472,0.063 2.618,-1.821 4.011,-3.818 4.728,-5.218 0.898,2.333 0.38,5.469 0.327,5.61 -0.055,0.144 -0.147,0.292 -0.279,0.509 -0.131,0.217 -0.052,0.468 -0.011,0.549 0.044,0.078 0.225,0.287 0.344,0.6 0.058,0.15 0.156,-0.014 0.204,-0.165 0.043,-0.138 0.36,-0.586 0.495,-0.736 0.091,-0.104 0.169,-0.291 0.139,-0.371 -0.057,-0.155 -0.239,-0.459 -0.279,-0.518 m -6.525,0.423 c 0.352,0.196 0.67,0.308 0.924,0.374 0.322,0.083 0.76,0.128 0.76,0.128 l 0.125,0.172 c 0.064,0.1 0.271,0.383 0.09,0.356 -0.182,-0.028 -0.891,-0.222 -1.218,-0.113 -0.302,0.102 -0.409,0.263 -0.431,0.345 -0.024,0.101 0.116,0.199 0.154,0.219 0.122,0.061 0.335,0.142 0.454,0.065 0.074,-0.047 0.124,-0.13 0.179,-0.22 0.05,-0.081 0.095,-0.073 0.149,-0.013 0.078,0.086 0.361,0.373 0.246,0.549 -0.115,0.179 -0.303,0.373 -0.617,0.254 -0.129,-0.053 -0.295,-0.156 -0.456,-0.277 -0.215,-0.165 -0.55,-0.527 -0.648,-0.839 -0.031,-0.1 -0.008,-0.191 0.09,-0.293 0.182,-0.189 0.322,-0.269 0.322,-0.269 -0.09,-0.079 -0.209,-0.182 -0.221,-0.203 -0.049,-0.093 -0.087,-0.319 -0.028,-0.298 0.028,0.01 0.078,0.042 0.126,0.063 m -4.331,-5.495 c -0.112,1.254 -0.712,4.977 -0.712,4.977 -0.031,0.178 -0.009,0.26 0.022,0.308 0.038,0.059 0.219,0.363 0.277,0.518 0.03,0.08 -0.048,0.267 -0.139,0.37 -0.135,0.15 -0.452,0.599 -0.495,0.736 -0.047,0.152 -0.145,0.315 -0.203,0.166 -0.119,-0.314 -0.301,-0.522 -0.344,-0.602 -0.043,-0.079 -0.121,-0.332 0.01,-0.547 0.133,-0.217 0.245,-0.361 0.28,-0.511 0.21,-0.918 0.886,-5.545 0.932,-5.873 0.045,-0.33 0.125,-1.032 -0.34,-1.385 -0.466,-0.352 -2.104,-1.35 -3.234,-0.726 -0.293,0.162 -1.224,0.647 -0.874,1.85 0.102,0.352 0.182,0.578 0.25,0.76 0.068,0.181 -0.012,0.317 -0.17,0.034 -0.158,-0.284 -1.063,-2.006 -0.216,-3.086 0.238,-0.305 1.543,-1.565 3.892,-0.022 0.287,0.186 1.253,0.913 1.064,3.033 m 0.676,4.043 c 0.097,0.046 1.967,0.845 2.137,0.939 0.172,0.095 0.274,0.125 0.354,0.278 0.078,0.152 0.098,0.179 0.142,0.287 0.046,0.114 0.1,0.244 -0.216,0.085 -0.204,-0.103 -2.024,-0.888 -2.241,-0.983 -0.215,-0.096 -0.281,-0.139 -0.326,-0.288 -0.044,-0.15 -0.065,-0.23 -0.077,-0.26 -0.038,-0.102 -0.089,-0.205 0.227,-0.058 m 2.645,3.859 c 0.101,0.042 2.699,1.106 2.874,1.193 0.175,0.088 0.278,0.114 0.363,0.264 0.084,0.15 0.104,0.175 0.153,0.282 0.052,0.11 0.108,0.24 -0.212,0.093 -0.208,-0.096 -2.758,-1.146 -2.978,-1.234 -0.219,-0.087 -0.288,-0.127 -0.335,-0.276 -0.05,-0.147 -0.076,-0.226 -0.088,-0.256 -0.041,-0.099 -0.097,-0.201 0.223,-0.066 m 9.846,-2.512 c -0.014,0.368 -0.061,0.687 -0.218,0.402 -0.169,-0.305 -0.261,-0.696 -0.21,-1.235 0.074,-0.924 0.161,-1.62 0.244,-2.285 0.084,-0.672 0.382,-2.673 0.354,-4.09 -0.008,-0.333 0.12,-0.417 0.223,-0.183 0.172,0.405 0.267,1.555 0.089,3.244 -0.087,0.85 -0.448,3.474 -0.482,4.147"
         style="fill:#231f20;fill-opacity:1;fill-rule:nonzero;stroke:none"
         transform="matrix(1.3333333,0,0,-1.3333333,463.6328,45.2872)"
         clip-path="url(#clipPath25)"
         id="path26" />
    </g>
  </g>
</svg>
