<?xml version="1.0" encoding="UTF-8" standalone="no"?>
<!-- Created with Inkscape (http://www.inkscape.org/) -->

<svg
   width="17.362595mm"
   height="6.9099998mm"
   viewBox="0 0 17.362594 6.9099997"
   version="1.1"
   id="svg1"
   xml:space="preserve"
   xmlns="http://www.w3.org/2000/svg"
   xmlns:svg="http://www.w3.org/2000/svg"><defs
     id="defs1" /><g
     id="layer1"
     transform="translate(-227.63351,-4.2846228)"><g
       id="g38"
       transform="translate(178.70323,-35.93808)"><path
         d="m 52.483937,42.1179 -0.20462,0.244475 -0.002,0.04163 c 0.0353,0.04163 0.0737,0.08008 0.11607,0.115711 0.0462,0.03845 0.0952,0.07232 0.14464,0.100542 l 0.0441,-0.0067 0.20426,-0.244122 -0.004,-0.02716 c -0.054,-0.02928 -0.10407,-0.06315 -0.15169,-0.103717 -0.0445,-0.03704 -0.0836,-0.07902 -0.12207,-0.12065 z m 0.0871,0.812095 -0.008,0.01446 -0.10196,-0.07408 c -0.0459,-0.03845 -0.0864,-0.08184 -0.12453,-0.124883 l -0.0272,3.53e-4 -0.21167,0.253294 -0.003,0.04375 c 0.037,0.04233 0.0762,0.0829 0.121,0.119591 0.0469,0.04022 0.0974,0.07514 0.15029,0.104423 l 0.0459,-0.0078 0.19967,-0.238477 0.078,0.07338 c 0.048,0.03986 0.0981,0.07444 0.15029,0.10407 l 0.0462,-0.0071 0.21096,-0.253294 -0.006,-0.02787 c -0.054,-0.0314 -0.10583,-0.06632 -0.15628,-0.108302 -0.0462,-0.0381 -0.0854,-0.08184 -0.12453,-0.125236 l -0.0261,3.52e-4 z m -1.02693,1.583619 c -0.0864,0.03704 -0.16899,0.07161 -0.19897,0.08255 0,0 -0.0871,0.02752 -0.18627,0.05856 l 3.5e-4,0.01235 c -0.12488,0.474133 -0.31573,0.915811 -0.44979,1.053041 -0.58455,0.605367 -1.55998,0.07973 -1.65205,0.01623 -0.0924,-0.06315 -0.003,-0.110772 0.0579,-0.09208 0.49248,0.220486 0.96203,0.09031 1.07103,0.04868 0.46214,-0.190147 0.71932,-0.7874 0.79199,-0.980369 -0.0363,0.01164 -0.067,0.02152 -0.085,0.02752 -0.0857,0.02752 -0.12982,-0.163337 -0.15452,-0.23495 -0.0247,-0.07091 7.1e-4,-0.0956 0.16334,-0.136173 0.24836,-0.06209 0.67874,-0.225425 0.85619,-0.316441 0.17745,-0.09172 0.10019,0.144639 0.0988,0.218369 l -0.005,0.05045 c 0.75847,0.18662 0.96308,-0.269522 1.00788,-0.414866 0.0466,-0.150989 0.0974,-0.09172 0.0854,-0.02011 -0.019,0.108303 -0.0455,0.205317 -0.078,0.2921 0.12065,0.05539 0.47731,0.140053 0.47343,0.100895 -0.005,-0.04233 -0.0353,-0.368653 -0.009,-0.448734 0.0268,-0.08043 0.0617,-0.197555 0.0857,-0.243769 0.0243,-0.04692 0.0332,-0.06844 0.066,0.04198 0.0325,0.110772 0.09,0.512586 -0.0804,0.854427 -0.10795,0.150284 -0.14958,0.205317 -0.29175,0.1778 -0.13229,-0.02575 -0.32878,-0.100189 -0.40534,-0.190147 -0.2801,0.347133 -0.73378,0.33902 -1.16169,0.04269 m 2.16041,0.88512 c -0.0148,0.0381 -0.0222,0.04692 -0.0501,0.1016 -0.0275,0.05398 -0.0631,0.06562 -0.12382,0.09843 -0.06,0.03316 -1.28694,0.536222 -1.32116,0.552097 -0.11183,0.05292 -0.0938,0.01623 -0.0804,-0.0194 0.004,-0.01129 0.0113,-0.03951 0.0272,-0.09208 0.0152,-0.05292 0.0385,-0.06738 0.11466,-0.1016 0.0758,-0.03387 1.28587,-0.532342 1.35749,-0.568325 0.11147,-0.0575 0.0931,-0.01058 0.0762,0.02928 m 0.9846,-2.354792 c 0.005,-0.01164 0.0138,-0.03881 0.0321,-0.08996 0.0183,-0.05292 0.0427,-0.06632 0.1203,-0.09596 0.078,-0.03069 1.65488,-0.679803 1.72861,-0.711905 0.11395,-0.05045 0.0931,-0.0056 0.0744,0.03422 -0.0176,0.03634 -0.0247,0.04551 -0.0557,0.09807 -0.0307,0.05221 -0.067,0.06209 -0.12912,0.09102 -0.0617,0.02963 -1.65594,0.684036 -1.69157,0.6985 -0.11465,0.04586 -0.0942,0.01094 -0.079,-0.02399 m 2.97462,1.333853 c 0.0476,0.489303 -0.2226,0.636058 -0.33055,0.661458 -0.24942,0.05997 -0.41169,-0.0194 -0.48825,-0.08467 -0.0219,-0.0187 -0.12982,-0.122061 -0.18979,-0.206022 -0.0346,0.01835 -0.0716,0.03704 -0.11148,0.05503 -0.83961,0.470605 -1.41499,0.513997 -1.5561,0.509763 -0.77999,-0.01975 -0.90135,-0.636411 -0.93204,-0.866069 -0.0303,-0.227894 -0.1143,-1.103136 -0.13617,-1.332442 -0.0311,-0.46108 -0.16722,-1.024466 -0.21096,-1.143 0,0 0.0526,-0.202141 0.079,-0.272344 0.0265,-0.07091 0.0614,-0.06597 0.0967,0 0.14958,0.325261 0.2413,1.613605 0.25964,1.886655 0.0173,0.637117 0.21061,1.006475 0.26812,1.076678 0.35983,0.487892 1.30104,0.202847 1.57797,0.09666 0.12277,-0.04621 0.27376,-0.125941 0.41028,-0.210961 -0.23248,-0.125236 -0.44097,-0.100541 -0.51999,-0.04621 -0.0907,0.06209 -0.067,-0.09631 -0.0265,-0.164394 0.36724,-0.674158 1.11125,-0.318558 1.19803,-0.197908 0.0476,0.06632 0.0843,0.25153 -0.17498,0.463197 l 0.0363,0.02046 c 0.38806,0.185561 0.59337,-0.01305 0.62406,-0.05786 0.031,-0.0441 -0.36935,-2.009069 -0.40146,-2.158647 -0.025,-0.115005 -0.0469,-0.235655 -0.055,-0.292805 -0.0159,-0.106892 -0.0892,-0.248003 -0.14323,-0.331611 -0.0399,-0.06103 -0.008,-0.08326 0.0212,-0.126648 0.0557,-0.08326 0.072,-0.125236 0.11183,-0.197202 0.0353,-0.06174 0.0621,0 0.0921,0.07444 0.036,0.08819 0.1517,0.227541 0.21837,0.306916 0.0656,0.08043 -0.042,0.179564 -0.0899,0.227895 -0.0487,0.04904 -0.0332,0.0635 -0.0183,0.1524 0,0 0.0254,0.132997 0.0483,0.237066 0,0 0.28998,1.253773 0.3429,1.92017 m 0.77999,-0.730956 c 0.0956,0.653697 0.085,1.103489 0.0314,1.264003 -0.0307,0.09419 -0.0773,0.06279 -0.0815,-0.06632 -0.0176,-0.552803 -0.16193,-1.326445 -0.20426,-1.586089 -0.0434,-0.257175 -0.0878,-0.525992 -0.13194,-0.88512 -0.0293,-0.209197 -0.004,-0.363713 0.049,-0.485069 0.0501,-0.1143 0.0727,0.0092 0.085,0.152047 0.025,0.261761 0.20426,1.27635 0.25223,1.60655 m -7.83343,-1.075619 c -0.0582,-0.03669 -0.0575,-0.07902 -0.031,-0.120297 0.0878,-0.135114 0.15134,-0.131234 0.2092,-0.06844 0.0938,0.119944 0.072,0.318911 0.0624,0.355952 0,0 -0.18168,-0.131233 -0.2406,-0.167216 m 0.23319,0.445558 c 0.12559,0.05891 0.1785,0.191911 0.19579,0.143228 0.0473,-0.139347 0.0635,-0.217311 0.0275,-0.255411 -0.0258,-0.02752 -0.11712,-0.0956 -0.11712,-0.0956 0.0332,-0.07796 0.10124,-0.352425 -0.0113,-0.572205 -0.0279,-0.04692 -0.13935,-0.220487 -0.37289,0.04233 -0.0917,0.100541 -0.20884,0.357364 -0.11606,0.450497 0.0924,0.09243 0.29492,0.222956 0.29492,0.222956 -0.10548,0.182033 -0.3616,0.343605 -0.69462,0.581025 -0.21766,0.155575 -0.13547,0.208844 -0.0413,0.163688 0.62936,-0.298097 0.73696,-0.473075 0.83503,-0.680508 m 12.18714,-0.510113 c -0.0561,-0.03528 -0.0554,-0.07585 -0.03,-0.115005 0.0843,-0.130175 0.14534,-0.126294 0.20073,-0.06597 0.09,0.115006 0.0695,0.305506 0.06,0.340784 0,0 -0.17392,-0.125589 -0.23072,-0.159809 m 0.22366,0.427214 c 0.1203,0.05609 0.17145,0.183445 0.18733,0.136525 0.0455,-0.13335 0.061,-0.208139 0.0268,-0.244827 -0.0254,-0.02611 -0.11218,-0.09137 -0.11218,-0.09137 0.0321,-0.07479 0.0974,-0.337961 -0.0113,-0.548216 -0.0265,-0.0448 -0.133,-0.211314 -0.35737,0.04057 -0.0875,0.09631 -0.19967,0.342194 -0.11112,0.431447 0.0885,0.08855 0.28293,0.214136 0.28293,0.214136 -0.1016,0.174272 -0.34678,0.329142 -0.66605,0.556684 -0.20778,0.148872 -0.13017,0.199672 -0.0395,0.156633 0.60325,-0.285397 0.70661,-0.45332 0.80045,-0.651581 m -3.45969,-0.432858 c -0.0564,-0.03528 -0.0557,-0.07585 -0.03,-0.115006 0.084,-0.129822 0.14499,-0.126294 0.20037,-0.06597 0.09,0.115358 0.0695,0.305858 0.06,0.340783 0,0 -0.17392,-0.125236 -0.23037,-0.159808 m 0.22331,0.427214 c 0.1203,0.05609 0.17145,0.183797 0.18768,0.136878 0.0455,-0.13335 0.061,-0.208139 0.0265,-0.245181 -0.025,-0.02611 -0.11219,-0.09102 -0.11219,-0.09102 0.0318,-0.07479 0.0974,-0.337961 -0.0113,-0.548216 -0.0264,-0.04516 -0.13335,-0.211667 -0.35701,0.04022 -0.0875,0.09666 -0.19967,0.342547 -0.11147,0.431799 0.0885,0.08855 0.28292,0.213784 0.28292,0.213784 -0.1016,0.174272 -0.34678,0.329494 -0.66569,0.556683 -0.20849,0.148872 -0.13053,0.200025 -0.0399,0.156986 0.60325,-0.28575 0.70661,-0.453319 0.80045,-0.651933 m 1.61184,-0.469195 c 0.0123,-0.0032 0.0272,-0.0018 0.0423,-0.01587 0.0494,-0.04621 0.0907,-0.16898 0.0952,-0.210608 -0.005,-0.0321 -0.1203,-0.04339 -0.15346,-0.0515 -0.1136,-0.02716 -0.2219,-0.08714 -0.34008,-0.09455 -0.18239,-0.01164 -0.35137,0.0702 -0.44556,0.262114 -0.0102,0.02505 -0.0254,0.05856 -0.0353,0.08361 -0.0116,0.04198 0.0102,0.0702 0.0325,0.0381 0.025,-0.03775 0.0564,-0.07479 0.0956,-0.09878 0.0935,-0.05645 0.19262,-0.07796 0.29387,-0.06844 0.0917,0.0088 0.26423,0.07338 0.26387,0.0822 -10e-4,0.02046 -0.40146,0.218369 -0.4639,0.257528 -0.0275,0.01729 -0.0607,0.04868 -0.055,0.07973 0.005,0.02434 0.0434,0.02928 0.0758,0.01799 0.15734,-0.05715 0.21414,-0.05327 0.34114,-0.107244 0.17145,-0.07373 0.2226,-0.1651 0.25294,-0.174273 m -2.08421,2.402417 c -0.0243,0.05115 -0.0557,0.139347 -0.0741,0.1905 -0.006,0.01834 0.008,0.04057 0.0303,0.02752 0.127,-0.07832 0.31714,-0.17392 0.51858,-0.245534 0.18344,-0.06491 0.32738,-0.106891 0.46037,-0.1143 0.0205,-0.0032 0.12947,-0.19438 0.1457,-0.221897 0.0226,-0.03598 0.006,-0.04763 -0.0222,-0.04198 -0.15452,0.02963 -0.27446,0.05715 -0.46108,0.03986 -0.23072,-0.02046 -0.41099,-0.196498 -0.40499,-0.265995 0.005,-0.05256 0.16898,-0.157339 0.23001,-0.147814 0.17674,0.02752 0.17357,0.183092 0.22119,0.184856 0.0568,0.0021 0.17251,-0.201789 0.17956,-0.257528 0.007,-0.06033 -0.11359,-0.204964 -0.22895,-0.211667 -0.18979,-0.01164 -0.51153,0.310092 -0.63782,0.508353 -0.0459,0.07267 -0.0416,0.184503 0.0243,0.240947 0.0586,0.0501 0.15487,0.102659 0.26423,0.168981 -0.0533,0.01905 -0.19332,0.100542 -0.24518,0.145697 m 6.51263,-0.985308 c -0.0314,-0.299861 -0.1584,-1.225197 -0.17039,-1.462617 -0.005,-0.130528 -0.0212,-0.242711 -0.0773,-0.142169 -0.0593,0.107597 -0.0921,0.245886 -0.0734,0.43568 0.0261,0.32632 0.0564,0.571853 0.0861,0.806097 0.0293,0.237067 0.13476,0.943328 0.12418,1.443567 -0.002,0.117122 0.0427,0.147108 0.0787,0.06315 0.0617,-0.141816 0.0945,-0.547864 0.0321,-1.143705 m -1.518,1.550105 c -0.0413,-0.04057 -0.0769,-0.08608 -0.11113,-0.13088 l -0.0243,-0.0021 -0.22472,0.226131 -0.006,0.04128 c 0.031,0.0441 0.0663,0.08537 0.10512,0.12453 0.0427,0.04339 0.0885,0.08079 0.13582,0.113947 l 0.0441,-0.0035 0.22507,-0.225425 -0.002,-0.02752 c -0.0512,-0.03387 -0.0984,-0.07161 -0.14182,-0.116417 m 1.04704,-1.093611 c -0.15346,-0.0095 -0.86289,-0.02258 -1.27846,-0.251883 0.0413,-0.03528 0.13123,-0.150989 0.0988,-0.441678 -0.0314,-0.291042 -0.14781,-1.121833 -0.14781,-1.121833 -0.01,-0.08678 -0.0448,-0.170039 0.005,-0.214136 0.0497,-0.0448 0.15346,-0.12065 0.0938,-0.202847 -0.0603,-0.08185 -0.16334,-0.23742 -0.19332,-0.325614 -0.025,-0.07444 -0.0473,-0.136525 -0.0847,-0.07796 -0.0441,0.06738 -0.0596,0.153458 -0.11889,0.231422 -0.0314,0.04128 -0.0639,0.06138 -0.0282,0.123472 0.048,0.08396 0.096,0.23742 0.10513,0.3429 0.004,0.05539 0.0201,0.174272 0.0356,0.28822 0,0 0.20355,1.049866 0.18732,1.220258 0,0 -0.84067,0.02963 -0.95003,0.135467 l -0.16827,0.262113 c -0.0141,0.02893 -0.0127,0.06068 0.0272,0.05433 0.0399,-0.0071 0.55669,-0.172155 1.28235,0.118534 -0.0857,0.02963 -1.04387,0.439561 -1.85314,0.347838 -0.12136,-0.0035 -0.9719,-0.115005 -1.04211,-0.546452 -0.01,-0.05433 -0.024,-0.07444 -0.0529,-0.01905 -0.0258,0.04868 -0.26177,0.400755 0.109,0.653697 -0.11747,0.248003 -0.32702,0.5842 -0.64664,0.716139 -0.10477,0.03916 -0.57185,0.159103 -1.04351,-0.05256 -0.0582,-0.0187 -0.14358,0.02822 -0.0557,0.08819 0.0885,0.06068 0.95073,0.611717 1.51059,0.03175 0.0991,-0.101247 0.26741,-0.372886 0.39511,-0.698147 0.57362,0.312208 1.52753,0.140758 1.52753,0.140758 0.20743,-0.0441 0.42474,-0.10548 0.64982,-0.192263 0.11818,-0.04833 0.92992,-0.415573 1.47955,-0.287514 0.115,0.02858 0.14146,0.02858 0.14146,0.02858 0,0 0.0988,-0.210961 0.121,-0.262114 0.0222,-0.0508 0.048,-0.07973 -0.10548,-0.08961 m -4.07387,-1.021644 c 0.0441,0.0441 0.091,0.08255 0.14216,0.117122 l 0.002,0.02752 -0.22437,0.224719 -0.0448,0.0035 c -0.0476,-0.03246 -0.0928,-0.07126 -0.13617,-0.113242 -0.0388,-0.03986 -0.0741,-0.08114 -0.10478,-0.125236 l 0.006,-0.04128 0.22472,-0.22613 0.0247,0.0021 c 0.0339,0.0448 0.0691,0.09031 0.11042,0.130881"
         style="fill:#231f20;fill-opacity:1;fill-rule:nonzero;stroke:none;stroke-width:0.352778"
         clip-path="url(#clipPath1)"
         id="path25-1" /></g></g></svg>
