<?xml version="1.0" encoding="UTF-8" standalone="no"?>
<!-- Created with Inkscape (http://www.inkscape.org/) -->

<svg
   version="1.1"
   id="svg1"
   width="64.531921"
   height="17.928959"
   viewBox="0 0 64.531921 17.928959"
   xmlns="http://www.w3.org/2000/svg"
   xmlns:svg="http://www.w3.org/2000/svg">
  <defs
     id="defs1">
    <clipPath
       clipPathUnits="userSpaceOnUse"
       id="clipPath24">
      <path
         d="m 307.349,516.603 h 48.399 v -13.447 h -48.399 z"
         transform="translate(-317.17381,-514.66311)"
         id="path24" />
    </clipPath>
    <clipPath
       clipPathUnits="userSpaceOnUse"
       id="clipPath26">
      <path
         d="M 0,547.086 H 382.677 V 0 H 0 Z"
         transform="matrix(1.3333333,0,0,-1.3333333,0,729.448)"
         id="path26" />
    </clipPath>
  </defs>
  <g
     id="layer-MC1"
     transform="translate(-409.79865,-40.644386)">
    <g
       id="g25"
       clip-path="url(#clipPath26)">
      <path
         d="m 0,0 -0.58,-0.693 -0.007,-0.118 c 0.1,-0.118 0.209,-0.227 0.329,-0.328 0.131,-0.109 0.27,-0.205 0.41,-0.285 l 0.125,0.019 0.579,0.692 -0.012,0.077 C 0.691,-0.553 0.549,-0.457 0.414,-0.342 0.288,-0.237 0.177,-0.118 0.068,0 Z m 0.247,-2.302 -0.023,-0.041 -0.289,0.21 c -0.13,0.109 -0.245,0.232 -0.353,0.354 l -0.077,-0.001 -0.6,-0.718 -0.008,-0.124 c 0.105,-0.12 0.216,-0.235 0.343,-0.339 0.133,-0.114 0.276,-0.213 0.426,-0.296 l 0.13,0.022 0.566,0.676 0.221,-0.208 C 0.719,-2.88 0.861,-2.978 1.009,-3.062 l 0.131,0.02 0.598,0.718 -0.018,0.079 C 1.567,-2.156 1.42,-2.057 1.277,-1.938 1.146,-1.83 1.035,-1.706 0.924,-1.583 L 0.85,-1.584 Z m -2.911,-4.489 c -0.245,-0.105 -0.479,-0.203 -0.564,-0.234 0,0 -0.247,-0.078 -0.528,-0.166 l 10e-4,-0.035 c -0.354,-1.344 -0.895,-2.596 -1.275,-2.985 -1.657,-1.716 -4.422,-0.226 -4.683,-0.046 -0.262,0.179 -0.008,0.314 0.164,0.261 1.396,-0.625 2.727,-0.256 3.036,-0.138 1.31,0.539 2.039,2.232 2.245,2.779 -0.103,-0.033 -0.19,-0.061 -0.241,-0.078 -0.243,-0.078 -0.368,0.463 -0.438,0.666 -0.07,0.201 0.002,0.271 0.463,0.386 0.704,0.176 1.924,0.639 2.427,0.897 0.503,0.26 0.284,-0.41 0.28,-0.619 l -0.015,-0.143 c 2.15,-0.529 2.73,0.764 2.857,1.176 0.132,0.428 0.276,0.26 0.242,0.057 -0.054,-0.307 -0.129,-0.582 -0.221,-0.828 0.342,-0.157 1.353,-0.397 1.342,-0.286 -0.013,0.12 -0.1,1.045 -0.025,1.272 0.076,0.228 0.175,0.56 0.243,0.691 C 2.715,-4.031 2.74,-3.97 2.833,-4.283 2.925,-4.597 3.088,-5.736 2.605,-6.705 2.299,-7.131 2.181,-7.287 1.778,-7.209 1.403,-7.136 0.846,-6.925 0.629,-6.67 -0.165,-7.654 -1.451,-7.631 -2.664,-6.791 M 3.46,-9.3 C 3.418,-9.408 3.397,-9.433 3.318,-9.588 3.24,-9.741 3.139,-9.774 2.967,-9.867 c -0.17,-0.094 -3.648,-1.52 -3.745,-1.565 -0.317,-0.15 -0.266,-0.046 -0.228,0.055 0.012,0.032 0.032,0.112 0.077,0.261 0.043,0.15 0.109,0.191 0.325,0.288 0.215,0.096 3.645,1.509 3.848,1.611 0.316,0.163 0.264,0.03 0.216,-0.083 m 2.791,6.675 c 0.013,0.033 0.039,0.11 0.091,0.255 0.052,0.15 0.121,0.188 0.341,0.272 0.221,0.087 4.691,1.927 4.9,2.018 0.323,0.143 0.264,0.016 0.211,-0.097 -0.05,-0.103 -0.07,-0.129 -0.158,-0.278 C 11.549,-0.603 11.446,-0.631 11.27,-0.713 11.095,-0.797 6.576,-2.652 6.475,-2.693 6.15,-2.823 6.208,-2.724 6.251,-2.625 m 8.432,-3.781 c 0.135,-1.387 -0.631,-1.803 -0.937,-1.875 -0.707,-0.17 -1.167,0.055 -1.384,0.24 -0.062,0.053 -0.368,0.346 -0.538,0.584 -0.098,-0.052 -0.203,-0.105 -0.316,-0.156 -2.38,-1.334 -4.011,-1.457 -4.411,-1.445 -2.211,0.056 -2.555,1.804 -2.642,2.455 -0.086,0.646 -0.324,3.127 -0.386,3.777 -0.088,1.307 -0.474,2.904 -0.598,3.24 0,0 0.149,0.573 0.224,0.772 0.075,0.201 0.174,0.187 0.274,0 0.424,-0.922 0.684,-4.574 0.736,-5.348 0.049,-1.806 0.597,-2.853 0.76,-3.052 1.02,-1.383 3.688,-0.575 4.473,-0.274 0.348,0.131 0.776,0.357 1.163,0.598 -0.659,0.355 -1.25,0.285 -1.474,0.131 -0.257,-0.176 -0.19,0.273 -0.075,0.466 1.041,1.911 3.15,0.903 3.396,0.561 0.135,-0.188 0.239,-0.713 -0.496,-1.313 l 0.103,-0.058 c 1.1,-0.526 1.682,0.037 1.769,0.164 0.088,0.125 -1.047,5.695 -1.138,6.119 -0.071,0.326 -0.133,0.668 -0.156,0.83 -0.045,0.303 -0.253,0.703 -0.406,0.94 -0.113,0.173 -0.024,0.236 0.06,0.359 0.158,0.236 0.204,0.355 0.317,0.559 0.1,0.175 0.176,0 0.261,-0.211 0.102,-0.25 0.43,-0.645 0.619,-0.87 0.186,-0.228 -0.119,-0.509 -0.255,-0.646 -0.138,-0.139 -0.094,-0.18 -0.052,-0.432 0,0 0.072,-0.377 0.137,-0.672 0,0 0.822,-3.554 0.972,-5.443 m 2.211,2.072 c 0.271,-1.853 0.241,-3.128 0.089,-3.583 -0.087,-0.267 -0.219,-0.178 -0.231,0.188 -0.05,1.567 -0.459,3.76 -0.579,4.496 -0.123,0.729 -0.249,1.491 -0.374,2.509 -0.083,0.593 -0.012,1.031 0.139,1.375 0.142,0.324 0.206,-0.026 0.241,-0.431 0.071,-0.742 0.579,-3.618 0.715,-4.554 m -22.205,3.049 c -0.165,0.104 -0.163,0.224 -0.088,0.341 0.249,0.383 0.429,0.372 0.593,0.194 0.266,-0.34 0.204,-0.904 0.177,-1.009 0,0 -0.515,0.372 -0.682,0.474 m 0.661,-1.263 c 0.356,-0.167 0.506,-0.544 0.555,-0.406 0.134,0.395 0.18,0.616 0.078,0.724 -0.073,0.078 -0.332,0.271 -0.332,0.271 0.094,0.221 0.287,0.999 -0.032,1.622 -0.079,0.133 -0.395,0.625 -1.057,-0.12 -0.26,-0.285 -0.592,-1.013 -0.329,-1.277 0.262,-0.262 0.836,-0.632 0.836,-0.632 -0.299,-0.516 -1.025,-0.974 -1.969,-1.647 -0.617,-0.441 -0.384,-0.592 -0.117,-0.464 1.784,0.845 2.089,1.341 2.367,1.929 m 34.547,1.446 c -0.159,0.1 -0.157,0.215 -0.085,0.326 0.239,0.369 0.412,0.358 0.569,0.187 0.255,-0.326 0.197,-0.866 0.17,-0.966 0,0 -0.493,0.356 -0.654,0.453 m 0.634,-1.211 c 0.341,-0.159 0.486,-0.52 0.531,-0.387 0.129,0.378 0.173,0.59 0.076,0.694 -0.072,0.074 -0.318,0.259 -0.318,0.259 0.091,0.212 0.276,0.958 -0.032,1.554 -0.075,0.127 -0.377,0.599 -1.013,-0.115 -0.248,-0.273 -0.566,-0.97 -0.315,-1.223 0.251,-0.251 0.802,-0.607 0.802,-0.607 -0.288,-0.494 -0.983,-0.933 -1.888,-1.578 -0.589,-0.422 -0.369,-0.566 -0.112,-0.444 1.71,0.809 2.003,1.285 2.269,1.847 m -9.807,1.227 c -0.16,0.1 -0.158,0.215 -0.085,0.326 0.238,0.368 0.411,0.358 0.568,0.187 0.255,-0.327 0.197,-0.867 0.17,-0.966 0,0 -0.493,0.355 -0.653,0.453 m 0.633,-1.211 c 0.341,-0.159 0.486,-0.521 0.532,-0.388 0.129,0.378 0.173,0.59 0.075,0.695 -0.071,0.074 -0.318,0.258 -0.318,0.258 0.09,0.212 0.276,0.958 -0.032,1.554 -0.075,0.128 -0.378,0.6 -1.012,-0.114 -0.248,-0.274 -0.566,-0.971 -0.316,-1.224 0.251,-0.251 0.802,-0.606 0.802,-0.606 -0.288,-0.494 -0.983,-0.934 -1.887,-1.578 -0.591,-0.422 -0.37,-0.567 -0.113,-0.445 1.71,0.81 2.003,1.285 2.269,1.848 m 4.569,1.33 c 0.035,0.009 0.077,0.005 0.12,0.045 0.14,0.131 0.257,0.479 0.27,0.597 -0.015,0.091 -0.341,0.123 -0.435,0.146 -0.322,0.077 -0.629,0.247 -0.964,0.268 -0.517,0.033 -0.996,-0.199 -1.263,-0.743 -0.029,-0.071 -0.072,-0.166 -0.1,-0.237 -0.033,-0.119 0.029,-0.199 0.092,-0.108 0.071,0.107 0.16,0.212 0.271,0.28 0.265,0.16 0.546,0.221 0.833,0.194 0.26,-0.025 0.749,-0.208 0.748,-0.233 -0.004,-0.058 -1.138,-0.619 -1.315,-0.73 -0.078,-0.049 -0.172,-0.138 -0.156,-0.226 0.014,-0.069 0.123,-0.083 0.215,-0.051 0.446,0.162 0.607,0.151 0.967,0.304 0.486,0.209 0.631,0.468 0.717,0.494 m -5.908,-6.81 c -0.069,-0.145 -0.158,-0.395 -0.21,-0.54 -0.018,-0.052 0.022,-0.115 0.086,-0.078 0.36,0.222 0.899,0.493 1.47,0.696 0.52,0.184 0.928,0.303 1.305,0.324 0.058,0.009 0.367,0.551 0.413,0.629 0.064,0.102 0.018,0.135 -0.063,0.119 -0.438,-0.084 -0.778,-0.162 -1.307,-0.113 -0.654,0.058 -1.165,0.557 -1.148,0.754 0.015,0.149 0.479,0.446 0.652,0.419 0.501,-0.078 0.492,-0.519 0.627,-0.524 0.161,-0.006 0.489,0.572 0.509,0.73 0.021,0.171 -0.322,0.581 -0.649,0.6 -0.538,0.033 -1.45,-0.879 -1.808,-1.441 -0.13,-0.206 -0.118,-0.523 0.069,-0.683 0.166,-0.142 0.439,-0.291 0.749,-0.479 -0.151,-0.054 -0.548,-0.285 -0.695,-0.413 m 18.461,2.793 c -0.089,0.85 -0.449,3.473 -0.483,4.146 -0.014,0.37 -0.06,0.688 -0.219,0.403 -0.168,-0.305 -0.261,-0.697 -0.208,-1.235 0.074,-0.925 0.16,-1.621 0.244,-2.285 0.083,-0.672 0.382,-2.674 0.352,-4.092 -0.005,-0.332 0.121,-0.417 0.223,-0.179 0.175,0.402 0.268,1.553 0.091,3.242 m -4.303,-4.394 c -0.117,0.115 -0.218,0.244 -0.315,0.371 l -0.069,0.006 -0.637,-0.641 -0.017,-0.117 c 0.088,-0.125 0.188,-0.242 0.298,-0.353 0.121,-0.123 0.251,-0.229 0.385,-0.323 l 0.125,0.01 0.638,0.639 -0.006,0.078 c -0.145,0.096 -0.279,0.203 -0.402,0.33 m 2.968,3.1 c -0.435,0.027 -2.446,0.064 -3.624,0.714 0.117,0.1 0.372,0.428 0.28,1.252 -0.089,0.825 -0.419,3.18 -0.419,3.18 -0.027,0.246 -0.127,0.482 0.014,0.607 0.141,0.127 0.435,0.342 0.266,0.575 C 33.49,0.282 33.198,0.723 33.113,0.973 33.042,1.184 32.979,1.36 32.873,1.194 32.748,1.003 32.704,0.759 32.536,0.538 32.447,0.421 32.355,0.364 32.456,0.188 c 0.136,-0.238 0.272,-0.673 0.298,-0.972 0.012,-0.157 0.057,-0.494 0.101,-0.817 0,0 0.577,-2.976 0.531,-3.459 0,0 -2.383,-0.084 -2.693,-0.384 l -0.477,-0.743 c -0.04,-0.082 -0.036,-0.172 0.077,-0.154 0.113,0.02 1.578,0.488 3.635,-0.336 -0.243,-0.084 -2.959,-1.246 -5.253,-0.986 -0.344,0.01 -2.755,0.326 -2.954,1.549 -0.028,0.154 -0.068,0.211 -0.15,0.054 -0.073,-0.138 -0.742,-1.136 0.309,-1.853 -0.333,-0.703 -0.927,-1.656 -1.833,-2.03 -0.297,-0.111 -1.621,-0.451 -2.958,0.149 -0.165,0.053 -0.407,-0.08 -0.158,-0.25 0.251,-0.172 2.695,-1.734 4.282,-0.09 0.281,0.287 0.758,1.057 1.12,1.979 1.626,-0.885 4.33,-0.399 4.33,-0.399 0.588,0.125 1.204,0.299 1.842,0.545 0.335,0.137 2.636,1.178 4.194,0.815 0.326,-0.081 0.401,-0.081 0.401,-0.081 0,0 0.28,0.598 0.343,0.743 0.063,0.144 0.136,0.226 -0.299,0.254 m -11.548,2.896 c 0.125,-0.125 0.258,-0.234 0.403,-0.332 l 0.006,-0.078 -0.636,-0.637 -0.127,-0.01 c -0.135,0.092 -0.263,0.202 -0.386,0.321 -0.11,0.113 -0.21,0.23 -0.297,0.355 l 0.017,0.117 0.637,0.641 0.07,-0.006 c 0.096,-0.127 0.196,-0.256 0.313,-0.371"
         style="fill:#231f20;fill-opacity:1;fill-rule:nonzero;stroke:none"
         transform="matrix(1.3333333,0,0,-1.3333333,422.8984,43.230533)"
         clip-path="url(#clipPath24)"
         id="path25" />
    </g>
  </g>
</svg>
