<?xml version="1.0" encoding="UTF-8" standalone="no"?>
<!-- Created with Inkscape (http://www.inkscape.org/) -->

<svg
   width="23.093847mm"
   height="6.9099998mm"
   viewBox="0 0 23.093846 6.9099997"
   version="1.1"
   id="svg1"
   xml:space="preserve"
   xmlns="http://www.w3.org/2000/svg"
   xmlns:svg="http://www.w3.org/2000/svg"><defs
     id="defs1" /><g
     id="layer1"
     transform="translate(-190.1281,-4.2846228)"><g
       id="g39"
       transform="translate(134.94462,-78.313852)"><path
         d="m 59.01158,85.087499 -0.20462,0.244475 -0.002,0.04163 c 0.0353,0.04163 0.0737,0.08008 0.11606,0.115711 0.0462,0.03845 0.0952,0.07232 0.14464,0.100542 l 0.0441,-0.0067 0.20425,-0.244122 -0.004,-0.02716 c -0.054,-0.02928 -0.10407,-0.06315 -0.15169,-0.103717 -0.0445,-0.03739 -0.0836,-0.07902 -0.12207,-0.12065 z m 0.0871,0.812095 -0.008,0.01446 -0.10195,-0.07408 c -0.0459,-0.03845 -0.0864,-0.08184 -0.12454,-0.124883 l -0.0272,3.53e-4 -0.21167,0.253294 -0.003,0.04375 c 0.037,0.04233 0.0762,0.0829 0.121,0.119591 0.0466,0.04022 0.0974,0.07514 0.14994,0.104423 l 0.0462,-0.0078 0.19967,-0.238477 0.078,0.07338 c 0.048,0.03986 0.0981,0.07444 0.15028,0.10407 l 0.0462,-0.0071 0.21096,-0.253294 -0.006,-0.02822 c -0.054,-0.03105 -0.10583,-0.06597 -0.15628,-0.108303 -0.0462,-0.03775 -0.0854,-0.08149 -0.12453,-0.124883 l -0.0261,3.52e-4 z m 5.85294,-0.181681 c -0.0127,0.128059 -0.0448,0.245886 -0.0579,0.278342 l -0.0572,0.006 c -0.17286,-0.280811 -0.45684,-0.191911 -0.57538,-0.111125 -0.11853,0.07973 -0.34995,0.220839 -0.52387,0.552097 -0.048,0.09137 -0.0822,0.187325 0.0847,0.266348 0.16651,0.07902 0.35878,0.09842 0.63359,0.04657 0.0921,-0.01693 0.42298,-0.08855 0.32315,0.395817 -0.0169,0.07267 -0.42087,0.853017 -1.48943,0.886883 -0.30656,0.0092 -0.89641,-0.162983 -0.94897,-0.725311 -0.0445,-0.473428 0.12664,-0.760236 0.15275,-0.841022 0.0579,-0.176036 0.15699,-0.182739 0.14393,-0.118181 -0.0127,0.06385 -0.0194,0.06632 -0.0194,0.06632 l -0.002,0.0067 c -0.0275,0.06879 -0.2801,0.745773 0.0141,1.005417 0.22649,0.200378 0.73731,0.529167 1.68734,-0.08537 0.13405,-0.08643 0.26846,-0.198614 0.29598,-0.226484 0.0279,-0.02752 0.0822,-0.113947 -0.19403,-0.0568 -0.061,0.0127 -0.51117,0.117475 -0.74083,-0.0956 -0.0462,-0.0441 -0.17886,-0.176388 -0.0628,-0.526344 0.0455,-0.135819 0.3422,-0.960261 0.97226,-0.989189 0.11853,-0.006 0.37712,0.136525 0.36442,0.264936 m -2.98909,0.738364 c 0,0 -0.89817,0.422628 -1.10455,0.513645 -0.71366,0.34043 -0.96837,0.113947 -1.08761,0.02187 -0.036,0.115005 -0.0776,0.222603 -0.11536,0.280458 -0.0896,0.136172 -0.29915,0.193322 -0.58878,-0.07267 -0.23143,0.287514 -0.5842,0.19438 -0.94968,-0.07514 -0.11818,0.05115 -0.33197,0.14217 -0.38488,0.16122 0,0 -0.0871,0.02787 -0.18627,0.05997 l 3.5e-4,0.01094 c -0.12488,0.474133 -0.31608,0.915458 -0.45014,1.053042 -0.5842,0.605366 -1.55998,0.07973 -1.65171,0.01658 -0.0921,-0.06315 -0.003,-0.111125 0.0579,-0.09172 0.49212,0.220133 0.96167,0.08925 1.07068,0.04798 0.46249,-0.189795 0.71967,-0.786695 0.79234,-0.980017 -0.0367,0.01129 -0.0674,0.02081 -0.0854,0.02716 -0.0854,0.02787 -0.12912,-0.162278 -0.15381,-0.234244 -0.025,-0.07091 0,-0.09631 0.16227,-0.136878 0.24871,-0.06174 0.67945,-0.225425 0.8569,-0.316089 0.16404,-0.08502 0.11007,0.111125 0.0998,0.199672 0.7493,0.250825 0.91828,-0.184503 0.9652,-0.331258 0.0483,-0.149225 0.0921,-0.08925 0.0804,-0.01799 -0.0198,0.125236 -0.0459,0.233186 -0.0773,0.32632 0.10972,0.04904 0.37395,0.191558 0.46602,0.0081 0.0512,-0.103011 0.0667,-0.239888 0.0956,-0.345722 0.0286,-0.10548 0.0963,-0.09596 0.0914,0.0099 l -0.009,0.06526 c 0.15699,0.231422 0.61313,0.129117 0.71896,0.08361 -0.16298,-0.120297 -0.30198,-0.307269 -0.27799,-0.532694 0.024,-0.225425 0.0762,-0.598664 0.51294,-0.800806 0.31609,-0.129116 0.66181,0.100895 0.73837,0.177448 0.0762,0.07655 0.0381,0.154163 -0.11995,0.05785 -0.15875,-0.09631 -0.50906,0.03351 -0.68086,0.105128 -0.17251,0.07197 -0.2547,0.244828 -0.2547,0.354894 0,0.110067 0.15381,0.32632 0.49918,0.378884 0.34501,0.05256 0.90734,-0.274109 1.01282,-0.346075 0.10513,-0.07197 0,0.211313 -0.043,0.32138 M 57.8825,84.995084 c 0.005,-0.01094 0.013,-0.03845 0.03,-0.09102 0.0169,-0.05186 0.0402,-0.06668 0.11747,-0.09843 0.0773,-0.0314 1.56034,-0.652286 1.63301,-0.686506 0.11289,-0.05362 0.0928,-0.0078 0.0751,0.0321 -0.0166,0.03669 -0.0236,0.04621 -0.0533,0.09948 -0.0296,0.05327 -0.0653,0.06279 -0.12664,0.09419 -0.0614,0.03175 -1.5614,0.657225 -1.59668,0.671689 -0.11324,0.04974 -0.0935,0.01411 -0.079,-0.02152 m 5.10928,0.1143 c 0.005,-0.01094 0.0141,-0.03845 0.031,-0.09102 0.0176,-0.05186 0.0409,-0.06632 0.11888,-0.09772 0.0773,-0.03104 1.06645,-0.429684 1.13983,-0.46355 0.11289,-0.05186 0.0924,-0.0067 0.0741,0.03281 -0.0162,0.03669 -0.0236,0.04657 -0.0533,0.09948 -0.0303,0.05292 -0.066,0.06209 -0.1277,0.09384 -0.0617,0.03069 -1.06822,0.433917 -1.10279,0.449086 -0.11324,0.04763 -0.0938,0.01235 -0.0801,-0.02293 m -2.63631,-0.208845 c 0.003,-0.01094 0.009,-0.03916 0.0208,-0.09313 0.0116,-0.05397 0.0339,-0.0702 0.10795,-0.109714 0.0737,-0.03881 1.11513,-0.461081 1.18392,-0.502003 0.10724,-0.0642 0.0921,-0.01658 0.0783,0.02399 -0.0131,0.03881 -0.0194,0.04904 -0.0438,0.104775 -0.0236,0.05539 -0.0586,0.0695 -0.11677,0.106539 -0.0579,0.03739 -1.11583,0.466372 -1.1497,0.484011 -0.1076,0.05997 -0.0917,0.02223 -0.0808,-0.01446 m -4.18006,1.652764 c 0.003,-0.01058 0.007,-0.03916 0.0173,-0.09384 0.009,-0.05433 0.0303,-0.07126 0.1023,-0.113242 0.0723,-0.04269 1.22343,-0.513644 1.29046,-0.558094 0.10407,-0.06879 0.091,-0.02046 0.079,0.02152 -0.0116,0.0388 -0.0169,0.04904 -0.0388,0.105833 -0.0212,0.0568 -0.0565,0.07161 -0.11254,0.111478 -0.0561,0.03951 -1.22378,0.517525 -1.25624,0.538338 -0.10442,0.0635 -0.0907,0.0254 -0.0815,-0.01199 m 10.48773,1.128889 c -0.0162,0.03704 -0.0233,0.04621 -0.0526,0.09913 -0.0303,0.05292 -0.0656,0.06385 -0.127,0.09525 -0.0617,0.0314 -1.14971,0.481542 -1.18498,0.496359 -0.11254,0.04904 -0.0938,0.01376 -0.079,-0.02223 0.004,-0.01058 0.0131,-0.03881 0.03,-0.09137 0.0169,-0.05186 0.0406,-0.06668 0.11747,-0.09807 0.0773,-0.03175 1.1483,-0.477308 1.22132,-0.511528 0.11254,-0.05362 0.0928,-0.0078 0.0748,0.03246 m 0.23319,-3.705931 c 0.005,-0.0099 0.0134,-0.03845 0.0307,-0.09031 0.0173,-0.05186 0.0409,-0.06632 0.11818,-0.09737 0.0773,-0.03104 0.87595,-0.404636 0.95003,-0.438503 0.11289,-0.05221 0.0928,-0.0067 0.0748,0.03316 -0.0169,0.03669 -0.0243,0.04621 -0.0543,0.09878 -0.0296,0.05292 -0.0656,0.06279 -0.12771,0.09349 -0.0617,0.0314 -0.87735,0.409928 -0.91228,0.424039 -0.11324,0.04868 -0.0938,0.0127 -0.0794,-0.02328 m 3.66712,2.187223 c 0.0977,0.696383 0.0875,1.17475 0.0349,1.345141 -0.0311,0.09984 -0.078,0.06668 -0.0826,-0.07161 -0.0187,-0.587022 -0.1644,-1.410052 -0.20779,-1.68663 -0.0437,-0.274461 -0.0875,-0.561622 -0.13264,-0.941917 -0.0289,-0.222955 -0.004,-0.386997 0.048,-0.516466 0.049,-0.121709 0.0723,0.0099 0.085,0.16263 0.0258,0.277989 0.20673,1.357842 0.25506,1.708856 m -5.30401,1.391355 c -0.0868,-0.01905 -0.0868,-0.253294 -0.0847,-0.321733 0.003,-0.06703 0.0554,-0.03598 0.10866,-0.02117 0.12841,0.03845 0.67874,-0.104422 0.89852,-0.1524 0.06,-0.01446 0.0536,-0.07302 0.0392,-0.115711 -0.24412,-0.538692 -0.57044,-0.655108 -0.65511,-0.686506 l 0.0123,-0.292452 0.0483,-0.03881 c 0.35772,0.07973 0.57503,0.486128 0.61877,0.589492 0.15663,0.335844 0.0794,0.732366 0.0603,0.787753 -0.0198,0.05574 -0.0603,0.07514 -0.10619,0.08961 -0.0459,0.01411 -0.65758,0.202847 -0.94015,0.161925 m 4.79883,-0.832908 c -0.0162,0.04904 -0.0734,0.196497 -0.1023,0.245533 -0.50694,-0.06985 -1.01353,0.2032 -1.28658,0.372181 -0.5581,0.344311 -1.022,0.365125 -1.2506,0.334786 -0.38347,-0.05151 -0.54681,-0.399345 -0.62371,-0.797278 -0.0773,-0.397228 -0.19473,-1.81998 -0.32561,-2.331508 -0.0265,-0.102659 0.0529,-0.33902 0.0818,-0.400756 0.0282,-0.06174 0.0572,0.01235 0.0822,0.127 0.024,0.113947 0.29316,2.291292 0.31221,2.411589 0.21131,1.310569 1.91946,0.26035 1.95721,0.226483 -1.09256,-0.25788 -1.2192,-0.05327 -1.25201,-0.02469 -0.0325,0.02858 -0.049,0.01658 -0.0409,-0.03669 0.008,-0.05362 0.0776,-0.237419 0.13123,-0.298803 0.19191,-0.167569 0.7807,-0.07761 0.80962,-0.17145 0.012,-0.155928 -0.21695,-1.329266 -0.24341,-1.448152 -0.0254,-0.111478 -0.0423,-0.230364 -0.0494,-0.28575 -0.0134,-0.104423 -0.0833,-0.244475 -0.13512,-0.325967 -0.0381,-0.06033 -0.007,-0.08149 0.0226,-0.124178 0.0557,-0.08043 0.072,-0.12065 0.11254,-0.190853 0.0346,-0.05927 0.06,0.0018 0.0885,0.07444 0.0339,0.08714 0.14499,0.224014 0.20849,0.303037 0.0631,0.07938 -0.054,0.174625 -0.10125,0.221544 -0.008,0.01094 -0.0109,0.04198 -0.007,0.08714 0.0473,0.244475 0.17957,0.9144 0.23107,1.132417 0.061,0.257527 0.0201,0.654402 -0.004,0.72778 0.65793,0.151695 1.26189,0.09807 1.3395,0.09031 0.0776,-0.0085 0.061,0.03281 0.0448,0.08185 m 5.0031,-1.841853 c -0.0557,-0.03493 -0.055,-0.07585 -0.0296,-0.115005 0.084,-0.129823 0.145,-0.125942 0.20074,-0.06562 0.0896,0.115005 0.0695,0.305505 0.0596,0.34043 0,0 -0.17391,-0.125236 -0.23071,-0.159808 m 0.22401,0.427214 c 0.1203,0.05609 0.1711,0.183797 0.18733,0.136878 0.0455,-0.13335 0.061,-0.208139 0.0265,-0.244828 -0.0251,-0.02646 -0.11184,-0.09137 -0.11184,-0.09137 0.0317,-0.07479 0.097,-0.337962 -0.0113,-0.548217 -0.0265,-0.04516 -0.13335,-0.211667 -0.35737,0.04022 -0.0875,0.09666 -0.19967,0.342547 -0.11112,0.4318 0.0885,0.08855 0.28257,0.213783 0.28257,0.213783 -0.1016,0.174625 -0.34643,0.329494 -0.66569,0.557036 -0.20814,0.148519 -0.13017,0.199672 -0.0399,0.156633 0.60325,-0.28575 0.70661,-0.453319 0.8008,-0.651933 m -3.46004,-0.432506 c -0.0561,-0.03528 -0.0554,-0.07585 -0.03,-0.115358 0.0843,-0.129822 0.14499,-0.125942 0.20073,-0.06562 0.09,0.115006 0.0695,0.305506 0.06,0.340784 0,0 -0.17427,-0.125589 -0.23071,-0.159809 m 0.22366,0.427214 c 0.1203,0.05609 0.1711,0.183445 0.18732,0.136525 0.0455,-0.13335 0.061,-0.208139 0.0268,-0.244827 -0.0254,-0.02611 -0.11218,-0.09137 -0.11218,-0.09137 0.0318,-0.07479 0.0974,-0.337961 -0.0113,-0.548217 -0.0265,-0.04515 -0.13335,-0.211313 -0.35736,0.04057 -0.0875,0.09631 -0.19967,0.342194 -0.11113,0.431447 0.0885,0.08855 0.28293,0.214136 0.28293,0.214136 -0.10195,0.174272 -0.34678,0.329142 -0.66604,0.556684 -0.20814,0.148872 -0.13018,0.199672 -0.0395,0.156633 0.60325,-0.285397 0.70626,-0.45332 0.80045,-0.651581 m 1.61149,-0.469194 c 0.0127,-0.0035 0.0275,-0.0021 0.0427,-0.01588 0.049,-0.04621 0.0903,-0.168981 0.0953,-0.210961 -0.006,-0.03175 -0.12065,-0.04339 -0.15345,-0.05115 -0.11395,-0.02716 -0.2219,-0.08714 -0.34008,-0.0949 -0.18239,-0.01164 -0.35137,0.07056 -0.44556,0.262466 -0.0102,0.02505 -0.0254,0.05856 -0.0356,0.08361 -0.0116,0.04198 0.0106,0.0702 0.0325,0.03775 0.025,-0.03775 0.0564,-0.07479 0.096,-0.09843 0.0931,-0.05644 0.19262,-0.07832 0.29386,-0.06844 0.0914,0.0088 0.26423,0.07338 0.26388,0.0822 -10e-4,0.02011 -0.40146,0.218017 -0.46425,0.257175 -0.0272,0.01729 -0.0607,0.04868 -0.0547,0.08008 0.005,0.02434 0.0434,0.02928 0.0758,0.01764 0.15699,-0.0568 0.21379,-0.05292 0.34114,-0.107245 0.17145,-0.07338 0.2226,-0.1651 0.25259,-0.173919 m -2.08421,2.402416 c -0.024,0.05115 -0.0554,0.138995 -0.0741,0.1905 -0.006,0.01799 0.008,0.04022 0.0303,0.02716 0.12735,-0.07796 0.3175,-0.173919 0.51894,-0.245533 0.18309,-0.06456 0.32738,-0.106539 0.46037,-0.113947 0.0201,-0.0035 0.12912,-0.194734 0.1457,-0.22225 0.0226,-0.03563 0.006,-0.04727 -0.0226,-0.04163 -0.15416,0.02963 -0.27411,0.0568 -0.46073,0.03951 -0.23106,-0.02011 -0.41098,-0.196497 -0.40498,-0.265642 0.005,-0.05292 0.16898,-0.157691 0.22965,-0.148166 0.17675,0.02787 0.17392,0.183444 0.2212,0.185208 0.0572,0.0018 0.17286,-0.202142 0.17956,-0.257528 0.008,-0.06068 -0.11324,-0.205316 -0.2286,-0.212019 -0.18979,-0.01129 -0.51153,0.310444 -0.63818,0.508353 -0.0459,0.07267 -0.0413,0.184502 0.0247,0.2413 0.0586,0.05009 0.15487,0.102658 0.26423,0.168627 -0.0536,0.01905 -0.19332,0.100895 -0.24553,0.14605 m 6.51333,-0.985308 c -0.0321,-0.299861 -0.15875,-1.225197 -0.17074,-1.462969 -0.005,-0.130175 -0.0215,-0.242359 -0.0773,-0.141817 -0.0593,0.107245 -0.0924,0.245886 -0.0734,0.435328 0.0257,0.326672 0.0564,0.571853 0.0857,0.806097 0.0293,0.237067 0.13511,0.943328 0.12453,1.443567 -0.002,0.117122 0.0423,0.147461 0.0783,0.0635 0.0617,-0.14217 0.0949,-0.547864 0.0328,-1.143706 m -1.51871,1.550106 c -0.0413,-0.04092 -0.0765,-0.08643 -0.11077,-0.130881 l -0.0243,-0.0021 -0.22472,0.225778 -0.006,0.04127 c 0.031,0.0441 0.0663,0.08573 0.10513,0.124884 0.0427,0.04339 0.0885,0.08079 0.13617,0.113594 l 0.0441,-0.0035 0.22507,-0.225072 -0.002,-0.02752 c -0.0515,-0.03387 -0.0988,-0.07161 -0.14217,-0.116416 m 1.04705,-1.093611 c -0.15311,-0.0095 -0.86254,-0.02258 -1.27847,-0.252237 0.0413,-0.03492 0.13123,-0.150988 0.0988,-0.441677 -0.031,-0.290689 -0.14746,-1.121481 -0.14746,-1.121481 -0.01,-0.08714 -0.0448,-0.170391 0.005,-0.214489 0.0498,-0.0448 0.15382,-0.12065 0.0938,-0.202494 -0.06,-0.0822 -0.16298,-0.237772 -0.19297,-0.325967 -0.025,-0.07444 -0.0469,-0.136525 -0.0847,-0.07796 -0.0441,0.06773 -0.0596,0.153811 -0.11924,0.231775 -0.0311,0.04128 -0.0635,0.06103 -0.0279,0.12312 0.0476,0.08396 0.0956,0.237772 0.10513,0.343253 0.004,0.05503 0.0197,0.174272 0.0356,0.287866 0,0 0.2032,1.05022 0.18697,1.220258 0,0 -0.84032,0.02963 -0.94968,0.13582 l -0.16863,0.261761 c -0.0141,0.02893 -0.0127,0.06068 0.0275,0.05468 0.0399,-0.0071 0.55668,-0.172509 1.28199,0.11818 -0.0857,0.02963 -1.04386,0.439914 -1.85314,0.348192 -0.121,-0.0035 -0.97155,-0.115006 -1.0421,-0.546453 -0.01,-0.05433 -0.0236,-0.07444 -0.0526,-0.0194 -0.0258,0.04904 -0.26176,0.401109 0.10901,0.65405 -0.11747,0.248003 -0.32702,0.5842 -0.64664,0.715786 -0.10477,0.03916 -0.5722,0.159103 -1.04352,-0.05221 -0.0586,-0.0187 -0.14393,0.02822 -0.0561,0.08819 0.0885,0.06068 0.95109,0.611716 1.51095,0.0314 0.0988,-0.101247 0.26705,-0.372533 0.39511,-0.697795 0.57362,0.312209 1.52753,0.140406 1.52753,0.140406 0.20743,-0.0441 0.42474,-0.105128 0.64981,-0.192264 0.11819,-0.04798 0.92957,-0.415219 1.47955,-0.287161 0.11501,0.02822 0.14112,0.02822 0.14112,0.02822 0,0 0.0991,-0.210961 0.12135,-0.261761 0.0222,-0.05115 0.048,-0.08008 -0.10583,-0.08961 m -4.07388,-1.021645 c 0.0441,0.0441 0.091,0.08255 0.14252,0.117122 l 0.002,0.02752 -0.22472,0.224367 -0.0444,0.0035 c -0.0476,-0.03245 -0.0931,-0.07091 -0.13617,-0.112888 -0.0388,-0.03986 -0.0744,-0.08149 -0.10513,-0.125589 l 0.006,-0.04128 0.22507,-0.225778 0.0247,0.0018 c 0.0339,0.0448 0.0695,0.09031 0.11007,0.131233"
         style="fill:#231f20;fill-opacity:1;fill-rule:nonzero;stroke:none;stroke-width:0.352778"
         clip-path="url(#clipPath1)"
         id="path22-3" /></g></g></svg>
