<?xml version="1.0" encoding="UTF-8" standalone="no"?>
<!-- Created with Inkscape (http://www.inkscape.org/) -->

<svg
   version="1.1"
   id="svg1"
   width="85.862671"
   height="20.301464"
   viewBox="0 0 85.86267 20.301464"
   xmlns="http://www.w3.org/2000/svg"
   xmlns:svg="http://www.w3.org/2000/svg">
  <defs
     id="defs1">
    <clipPath
       clipPathUnits="userSpaceOnUse"
       id="clipPath21">
      <path
         d="m 291.351,517.971 h 64.397 v -15.227 h -64.397 z"
         transform="translate(-301.57621,-512.97851)"
         id="path21" />
    </clipPath>
    <clipPath
       clipPathUnits="userSpaceOnUse"
       id="clipPath23">
      <path
         d="M 0,547.086 H 382.677 V 0 H 0 Z"
         transform="matrix(1.3333333,0,0,-1.3333333,0,729.448)"
         id="path23" />
    </clipPath>
  </defs>
  <g
     id="layer-MC1"
     transform="translate(-388.46799,-38.821216)">
    <g
       id="g22"
       clip-path="url(#clipPath23)">
      <path
         d="m 0,0 -0.58,-0.693 -0.007,-0.118 c 0.1,-0.118 0.209,-0.227 0.329,-0.328 0.131,-0.109 0.27,-0.205 0.41,-0.285 l 0.125,0.019 0.579,0.692 -0.012,0.077 C 0.691,-0.553 0.549,-0.457 0.414,-0.342 0.288,-0.236 0.177,-0.118 0.068,0 Z m 0.247,-2.302 -0.023,-0.041 -0.289,0.21 c -0.13,0.109 -0.245,0.232 -0.353,0.354 l -0.077,-0.001 -0.6,-0.718 -0.008,-0.124 c 0.105,-0.12 0.216,-0.235 0.343,-0.339 0.132,-0.114 0.276,-0.213 0.425,-0.296 l 0.131,0.022 0.566,0.676 0.221,-0.208 C 0.719,-2.88 0.861,-2.978 1.009,-3.062 l 0.131,0.02 0.598,0.718 -0.018,0.08 C 1.567,-2.156 1.42,-2.057 1.277,-1.937 1.146,-1.83 1.035,-1.706 0.924,-1.583 L 0.85,-1.584 Z m 16.591,0.515 C 16.802,-2.15 16.711,-2.484 16.674,-2.576 l -0.162,-0.017 c -0.49,0.796 -1.295,0.544 -1.631,0.315 -0.336,-0.226 -0.992,-0.626 -1.485,-1.565 -0.136,-0.259 -0.233,-0.531 0.24,-0.755 0.472,-0.224 1.017,-0.279 1.796,-0.132 0.261,0.048 1.199,0.251 0.916,-1.122 -0.048,-0.206 -1.193,-2.418 -4.222,-2.514 -0.869,-0.026 -2.541,0.462 -2.69,2.056 -0.126,1.342 0.359,2.155 0.433,2.384 0.164,0.499 0.445,0.518 0.408,0.335 -0.036,-0.181 -0.055,-0.188 -0.055,-0.188 l -0.007,-0.019 c -0.078,-0.195 -0.794,-2.114 0.04,-2.85 0.642,-0.568 2.09,-1.5 4.783,0.242 0.38,0.245 0.761,0.563 0.839,0.642 0.079,0.078 0.233,0.323 -0.55,0.161 -0.173,-0.036 -1.449,-0.333 -2.1,0.271 -0.131,0.125 -0.507,0.5 -0.178,1.492 0.129,0.385 0.97,2.722 2.756,2.804 0.336,0.017 1.069,-0.387 1.033,-0.751 M 8.365,-3.88 c 0,0 -2.546,-1.198 -3.131,-1.456 C 3.211,-6.301 2.489,-5.659 2.151,-5.398 2.049,-5.724 1.931,-6.029 1.824,-6.193 1.57,-6.579 0.976,-6.741 0.155,-5.987 c -0.656,-0.815 -1.656,-0.551 -2.692,0.213 -0.335,-0.145 -0.941,-0.403 -1.091,-0.457 0,0 -0.247,-0.079 -0.528,-0.17 l 10e-4,-0.031 c -0.354,-1.344 -0.896,-2.595 -1.276,-2.985 -1.656,-1.716 -4.422,-0.226 -4.682,-0.047 -0.261,0.179 -0.008,0.315 0.164,0.26 1.395,-0.624 2.726,-0.253 3.035,-0.136 1.311,0.538 2.04,2.23 2.246,2.778 -0.104,-0.032 -0.191,-0.059 -0.242,-0.077 -0.242,-0.079 -0.366,0.46 -0.436,0.664 -0.071,0.201 0,0.273 0.46,0.388 0.705,0.175 1.926,0.639 2.429,0.896 0.465,0.241 0.312,-0.315 0.283,-0.566 2.124,-0.711 2.603,0.523 2.736,0.939 0.137,0.423 0.261,0.253 0.228,0.051 -0.056,-0.355 -0.13,-0.661 -0.219,-0.925 0.311,-0.139 1.06,-0.543 1.321,-0.023 0.145,0.292 0.189,0.68 0.271,0.98 0.081,0.299 0.273,0.272 0.259,-0.028 L 2.396,-4.448 c 0.445,-0.656 1.738,-0.366 2.038,-0.237 -0.462,0.341 -0.856,0.871 -0.788,1.51 0.068,0.639 0.216,1.697 1.454,2.27 0.896,0.366 1.876,-0.286 2.093,-0.503 C 7.409,-1.625 7.301,-1.845 6.853,-1.572 6.403,-1.299 5.41,-1.667 4.923,-1.87 4.434,-2.074 4.201,-2.564 4.201,-2.876 c 0,-0.312 0.436,-0.925 1.415,-1.074 0.978,-0.149 2.572,0.777 2.871,0.981 0.298,0.204 0,-0.599 -0.122,-0.911 M -3.202,0.262 c 0.013,0.031 0.037,0.109 0.085,0.258 0.048,0.147 0.114,0.189 0.333,0.279 0.219,0.089 4.423,1.849 4.629,1.946 C 2.165,2.897 2.108,2.767 2.058,2.654 2.011,2.55 1.991,2.523 1.907,2.372 1.823,2.221 1.722,2.194 1.548,2.105 1.374,2.015 -2.878,0.242 -2.978,0.201 -3.299,0.06 -3.243,0.161 -3.202,0.262 m 14.483,-0.324 c 0.015,0.031 0.04,0.109 0.088,0.258 0.05,0.147 0.116,0.188 0.337,0.277 0.219,0.088 3.023,1.218 3.231,1.314 0.32,0.147 0.262,0.019 0.21,-0.093 C 15.101,1.59 15.08,1.562 14.996,1.412 14.91,1.262 14.809,1.236 14.634,1.146 14.459,1.059 11.606,-0.084 11.508,-0.127 11.187,-0.262 11.242,-0.162 11.281,-0.062 M 3.808,0.53 C 3.817,0.561 3.834,0.641 3.867,0.794 3.9,0.947 3.963,0.993 4.173,1.105 4.382,1.215 7.334,2.412 7.529,2.528 7.833,2.71 7.79,2.575 7.751,2.46 7.714,2.35 7.696,2.321 7.627,2.163 7.56,2.006 7.461,1.966 7.296,1.861 7.132,1.755 4.133,0.539 4.037,0.489 3.732,0.319 3.777,0.426 3.808,0.53 M -8.041,-4.155 c 0.008,0.03 0.02,0.111 0.049,0.266 0.025,0.154 0.086,0.202 0.29,0.321 0.205,0.121 3.468,1.456 3.658,1.582 0.295,0.195 0.258,0.058 0.224,-0.061 -0.033,-0.11 -0.048,-0.139 -0.11,-0.3 -0.06,-0.161 -0.16,-0.203 -0.319,-0.316 -0.159,-0.112 -3.469,-1.467 -3.561,-1.526 -0.296,-0.18 -0.257,-0.072 -0.231,0.034 m 29.729,-3.2 c -0.046,-0.105 -0.066,-0.131 -0.149,-0.281 -0.086,-0.15 -0.186,-0.181 -0.36,-0.27 -0.175,-0.089 -3.259,-1.365 -3.359,-1.407 -0.319,-0.139 -0.266,-0.039 -0.224,0.063 0.011,0.03 0.037,0.11 0.085,0.259 0.048,0.147 0.115,0.189 0.333,0.278 0.219,0.09 3.255,1.353 3.462,1.45 0.319,0.152 0.263,0.022 0.212,-0.092 M 22.349,3.15 c 0.013,0.028 0.038,0.109 0.087,0.256 0.049,0.147 0.116,0.188 0.335,0.276 0.219,0.088 2.483,1.147 2.693,1.243 0.32,0.148 0.263,0.019 0.212,-0.094 C 25.628,4.727 25.607,4.7 25.522,4.551 25.438,4.401 25.336,4.373 25.16,4.286 24.985,4.197 22.673,3.124 22.574,3.084 22.253,2.946 22.308,3.048 22.349,3.15 m 10.395,-6.2 c 0.277,-1.974 0.248,-3.33 0.099,-3.813 -0.088,-0.283 -0.221,-0.189 -0.234,0.203 -0.053,1.664 -0.466,3.997 -0.589,4.781 -0.124,0.778 -0.248,1.592 -0.376,2.67 -0.082,0.632 -0.012,1.097 0.136,1.464 0.139,0.345 0.205,-0.028 0.241,-0.461 0.073,-0.788 0.586,-3.849 0.723,-4.844 M 17.709,-6.994 c -0.246,0.054 -0.246,0.718 -0.24,0.912 0.008,0.19 0.157,0.102 0.308,0.06 0.364,-0.109 1.924,0.296 2.547,0.432 0.17,0.041 0.152,0.207 0.111,0.328 -0.692,1.527 -1.617,1.857 -1.857,1.946 l 0.035,0.829 0.137,0.11 c 1.014,-0.226 1.63,-1.378 1.754,-1.671 0.444,-0.952 0.225,-2.076 0.171,-2.233 -0.056,-0.158 -0.171,-0.213 -0.301,-0.254 -0.13,-0.04 -1.864,-0.575 -2.665,-0.459 m 13.603,2.361 c -0.046,-0.139 -0.208,-0.557 -0.29,-0.696 -1.437,0.198 -2.873,-0.576 -3.647,-1.055 -1.582,-0.976 -2.897,-1.035 -3.545,-0.949 -1.087,0.146 -1.55,1.132 -1.768,2.26 -0.219,1.126 -0.552,5.159 -0.923,6.609 -0.075,0.291 0.15,0.961 0.232,1.136 0.08,0.175 0.162,-0.035 0.233,-0.36 0.068,-0.323 0.831,-6.495 0.885,-6.836 0.599,-3.715 5.441,-0.738 5.548,-0.642 -3.097,0.731 -3.456,0.151 -3.549,0.07 -0.092,-0.081 -0.139,-0.047 -0.116,0.104 0.024,0.152 0.22,0.673 0.372,0.847 0.544,0.475 2.213,0.22 2.295,0.486 0.034,0.442 -0.615,3.768 -0.69,4.105 -0.072,0.316 -0.12,0.653 -0.14,0.81 -0.038,0.296 -0.236,0.693 -0.383,0.924 -0.108,0.171 -0.019,0.231 0.064,0.352 0.158,0.228 0.204,0.342 0.319,0.541 0.098,0.168 0.17,-0.005 0.251,-0.211 C 26.556,2.615 26.871,2.227 27.051,2.003 27.23,1.778 26.898,1.508 26.764,1.375 26.74,1.344 26.733,1.256 26.743,1.128 c 0.134,-0.693 0.509,-2.592 0.655,-3.21 0.173,-0.73 0.057,-1.855 -0.01,-2.063 1.865,-0.43 3.577,-0.278 3.797,-0.256 0.22,0.024 0.173,-0.093 0.127,-0.232 m 14.182,5.221 c -0.158,0.099 -0.156,0.215 -0.084,0.326 0.238,0.368 0.411,0.357 0.569,0.186 0.254,-0.326 0.197,-0.866 0.169,-0.965 0,0 -0.493,0.355 -0.654,0.453 m 0.635,-1.211 c 0.341,-0.159 0.485,-0.521 0.531,-0.388 0.129,0.378 0.173,0.59 0.075,0.694 -0.071,0.075 -0.317,0.259 -0.317,0.259 0.09,0.212 0.275,0.958 -0.032,1.554 -0.075,0.128 -0.378,0.6 -1.013,-0.114 -0.248,-0.274 -0.566,-0.971 -0.315,-1.224 0.251,-0.251 0.801,-0.606 0.801,-0.606 -0.288,-0.495 -0.982,-0.934 -1.887,-1.579 -0.59,-0.421 -0.369,-0.566 -0.113,-0.444 1.71,0.81 2.003,1.285 2.27,1.848 m -9.808,1.226 c -0.159,0.1 -0.157,0.215 -0.085,0.327 0.239,0.368 0.411,0.357 0.569,0.186 0.255,-0.326 0.197,-0.866 0.17,-0.966 0,0 -0.494,0.356 -0.654,0.453 m 0.634,-1.211 c 0.341,-0.159 0.485,-0.52 0.531,-0.387 0.129,0.378 0.173,0.59 0.076,0.694 -0.072,0.074 -0.318,0.259 -0.318,0.259 0.09,0.212 0.276,0.958 -0.032,1.554 -0.075,0.128 -0.378,0.599 -1.013,-0.115 -0.248,-0.273 -0.566,-0.97 -0.315,-1.223 0.251,-0.251 0.802,-0.607 0.802,-0.607 -0.289,-0.494 -0.983,-0.933 -1.888,-1.578 -0.59,-0.422 -0.369,-0.566 -0.112,-0.444 1.71,0.809 2.002,1.285 2.269,1.847 m 4.568,1.33 c 0.036,0.01 0.078,0.006 0.121,0.045 0.139,0.131 0.256,0.479 0.27,0.598 C 41.898,1.455 41.572,1.488 41.479,1.51 41.156,1.587 40.85,1.757 40.515,1.779 39.998,1.812 39.519,1.579 39.252,1.035 39.223,0.964 39.18,0.869 39.151,0.798 c -0.033,-0.119 0.03,-0.199 0.092,-0.107 0.071,0.107 0.16,0.212 0.272,0.279 0.264,0.16 0.546,0.222 0.833,0.194 C 40.607,1.139 41.097,0.956 41.096,0.931 41.092,0.874 39.958,0.313 39.78,0.202 39.703,0.153 39.608,0.064 39.625,-0.025 c 0.014,-0.069 0.123,-0.083 0.215,-0.05 0.445,0.161 0.606,0.15 0.967,0.304 0.486,0.208 0.631,0.468 0.716,0.493 m -5.908,-6.81 c -0.068,-0.145 -0.157,-0.394 -0.21,-0.54 -0.017,-0.051 0.023,-0.114 0.086,-0.077 0.361,0.221 0.9,0.493 1.471,0.696 0.519,0.183 0.928,0.302 1.305,0.323 0.057,0.01 0.366,0.552 0.413,0.63 0.064,0.101 0.017,0.134 -0.064,0.118 -0.437,-0.084 -0.777,-0.161 -1.306,-0.112 -0.655,0.057 -1.165,0.557 -1.148,0.753 0.015,0.15 0.479,0.447 0.651,0.42 0.501,-0.079 0.493,-0.52 0.627,-0.525 0.162,-0.005 0.49,0.573 0.509,0.73 0.022,0.172 -0.321,0.582 -0.648,0.601 -0.538,0.032 -1.45,-0.88 -1.809,-1.441 -0.13,-0.206 -0.117,-0.523 0.07,-0.684 0.166,-0.142 0.439,-0.291 0.749,-0.478 -0.152,-0.054 -0.548,-0.286 -0.696,-0.414 m 18.463,2.793 c -0.091,0.85 -0.45,3.473 -0.484,4.147 C 53.58,1.221 53.533,1.539 53.375,1.254 53.207,0.95 53.113,0.557 53.167,0.02 c 0.073,-0.926 0.16,-1.621 0.243,-2.285 0.083,-0.672 0.383,-2.674 0.353,-4.092 -0.006,-0.332 0.12,-0.418 0.222,-0.18 0.175,0.403 0.269,1.553 0.093,3.242 m -4.305,-4.394 c -0.117,0.116 -0.217,0.245 -0.314,0.371 l -0.069,0.006 -0.637,-0.64 -0.018,-0.117 c 0.088,-0.125 0.188,-0.243 0.298,-0.354 0.121,-0.123 0.251,-0.229 0.386,-0.322 l 0.125,0.01 0.638,0.638 -0.006,0.078 c -0.146,0.096 -0.28,0.203 -0.403,0.33 m 2.968,3.1 c -0.434,0.027 -2.445,0.064 -3.624,0.715 0.117,0.099 0.372,0.428 0.28,1.252 -0.088,0.824 -0.418,3.179 -0.418,3.179 -0.027,0.247 -0.127,0.483 0.013,0.608 0.141,0.127 0.436,0.342 0.266,0.574 -0.17,0.233 -0.462,0.674 -0.547,0.924 C 48.64,2.874 48.578,3.05 48.471,2.884 48.346,2.692 48.302,2.448 48.133,2.227 48.045,2.11 47.953,2.054 48.054,1.878 48.189,1.64 48.325,1.204 48.352,0.905 c 0.011,-0.156 0.056,-0.494 0.101,-0.816 0,0 0.576,-2.977 0.53,-3.459 0,0 -2.382,-0.084 -2.692,-0.385 l -0.478,-0.742 c -0.04,-0.082 -0.036,-0.172 0.078,-0.155 0.113,0.02 1.578,0.489 3.634,-0.335 -0.243,-0.084 -2.959,-1.247 -5.253,-0.987 -0.343,0.01 -2.754,0.326 -2.954,1.549 -0.027,0.154 -0.067,0.211 -0.149,0.055 -0.073,-0.139 -0.742,-1.137 0.309,-1.854 -0.333,-0.703 -0.927,-1.656 -1.833,-2.029 -0.297,-0.111 -1.622,-0.451 -2.958,0.148 -0.166,0.053 -0.408,-0.08 -0.159,-0.25 0.251,-0.172 2.696,-1.734 4.283,-0.089 0.28,0.287 0.757,1.056 1.12,1.978 1.626,-0.885 4.33,-0.398 4.33,-0.398 0.588,0.125 1.204,0.298 1.842,0.545 0.335,0.136 2.635,1.177 4.194,0.814 0.326,-0.08 0.4,-0.08 0.4,-0.08 0,0 0.281,0.598 0.344,0.742 0.063,0.145 0.136,0.227 -0.3,0.254 m -11.548,2.896 c 0.125,-0.125 0.258,-0.234 0.404,-0.332 l 0.006,-0.078 -0.637,-0.636 -0.126,-0.01 c -0.135,0.092 -0.264,0.201 -0.386,0.32 -0.11,0.113 -0.211,0.231 -0.298,0.356 l 0.017,0.117 0.638,0.64 0.07,-0.005 c 0.096,-0.127 0.197,-0.256 0.312,-0.372"
         style="fill:#231f20;fill-opacity:1;fill-rule:nonzero;stroke:none"
         transform="matrix(1.3333333,0,0,-1.3333333,402.1016,45.476667)"
         clip-path="url(#clipPath21)"
         id="path22" />
    </g>
  </g>
</svg>
