<?xml version="1.0" encoding="UTF-8" standalone="no"?>
<!-- Created with Inkscape (http://www.inkscape.org/) -->

<svg
   width="21.778872mm"
   height="6.9099998mm"
   viewBox="0 0 21.77887 6.9099997"
   version="1.1"
   id="svg1"
   xml:space="preserve"
   xmlns="http://www.w3.org/2000/svg"
   xmlns:svg="http://www.w3.org/2000/svg"><defs
     id="defs1" /><g
     id="layer1"
     transform="translate(-156.91809,-4.2822806)"><g
       id="g40"
       transform="translate(104.40356,-109.69156)"><path
         d="m 64.309197,116.63213 -0.20461,0.24447 -0.002,0.0416 c 0.0353,0.0416 0.0737,0.0801 0.11607,0.11571 0.0462,0.0384 0.0952,0.0723 0.14464,0.10054 l 0.0441,-0.007 0.20426,-0.24412 -0.004,-0.0272 c -0.054,-0.0293 -0.10407,-0.0631 -0.1517,-0.10372 -0.0444,-0.037 -0.0836,-0.079 -0.12206,-0.12065 z m 0.0871,0.81209 -0.008,0.0145 -0.10196,-0.0741 c -0.0459,-0.0385 -0.0864,-0.0818 -0.12453,-0.12488 l -0.0272,3.5e-4 -0.21167,0.25329 -0.003,0.0437 c 0.037,0.0423 0.0762,0.0829 0.121,0.1196 0.0466,0.0402 0.0974,0.0751 0.15029,0.10442 l 0.0459,-0.008 0.19967,-0.23848 0.078,0.0734 c 0.048,0.0399 0.0981,0.0744 0.15029,0.10407 l 0.0462,-0.007 0.21096,-0.2533 -0.006,-0.0279 c -0.054,-0.0314 -0.10583,-0.0663 -0.15628,-0.1083 -0.0462,-0.0381 -0.0854,-0.0818 -0.12453,-0.12524 l -0.0261,3.6e-4 z m -8.12835,-0.89359 -0.20461,0.24413 -0.002,0.0416 c 0.0353,0.0416 0.0737,0.0804 0.11606,0.11606 0.0462,0.0384 0.0952,0.072 0.14464,0.10019 l 0.0441,-0.007 0.20461,-0.24377 -0.005,-0.0272 c -0.054,-0.0293 -0.10407,-0.0635 -0.15169,-0.10372 -0.0448,-0.0374 -0.0836,-0.0794 -0.12206,-0.121 z m 0.0871,0.8121 -0.008,0.0141 -0.10195,-0.0737 c -0.0459,-0.0384 -0.0864,-0.0818 -0.12453,-0.12488 l -0.0272,3.5e-4 -0.21166,0.25294 -0.002,0.0437 c 0.0367,0.0423 0.0758,0.0829 0.12065,0.11959 0.0466,0.0402 0.0974,0.0755 0.14993,0.10442 l 0.0462,-0.007 0.19967,-0.23847 0.078,0.073 c 0.048,0.0399 0.0981,0.0748 0.15028,0.10407 l 0.0462,-0.007 0.21096,-0.2533 -0.006,-0.0279 c -0.054,-0.031 -0.10584,-0.0663 -0.15628,-0.10795 -0.0459,-0.0384 -0.0854,-0.0818 -0.12453,-0.12488 h -0.0261 z m 2.90372,0.23071 c -0.10548,0.072 -0.66816,0.39864 -1.01283,0.34643 -0.34572,-0.0529 -0.49918,-0.26917 -0.49918,-0.37923 0,-0.11007 0.0819,-0.28258 0.254,-0.35455 0.17251,-0.072 0.52282,-0.20178 0.68122,-0.10512 0.15804,0.096 0.19614,0.0183 0.12029,-0.0579 -0.0769,-0.0769 -0.42262,-0.30657 -0.73871,-0.17745 -0.43639,0.20179 -0.4886,0.57538 -0.51294,0.80045 -0.0243,0.22543 0.115,0.4124 0.27799,0.5327 -0.10584,0.0455 -0.56198,0.14781 -0.71861,-0.0833 l 0.009,-0.0656 c 0.005,-0.10584 -0.0628,-0.11536 -0.0917,-0.01 -0.0289,0.10583 -0.0444,0.24236 -0.0956,0.34537 -0.0917,0.18379 -0.35631,0.0413 -0.46567,-0.008 0.031,-0.0931 0.0575,-0.20073 0.0769,-0.32632 0.012,-0.0713 -0.0318,-0.13124 -0.0801,0.0183 -0.0473,0.1464 -0.21625,0.58173 -0.9652,0.3309 0.0102,-0.0885 0.0639,-0.28434 -0.10018,-0.19967 -0.17745,0.091 -0.60784,0.25471 -0.85655,0.31609 -0.16228,0.0409 -0.18768,0.066 -0.16228,0.13688 0.0243,0.072 0.0681,0.26211 0.15346,0.23424 0.018,-0.006 0.0487,-0.0159 0.0854,-0.0272 -0.0727,0.19332 -0.32949,0.79022 -0.79233,0.98002 -0.10866,0.0416 -0.57821,0.17251 -1.07069,-0.0476 -0.0607,-0.0198 -0.14993,0.0286 -0.0578,0.0914 0.0921,0.0631 1.0675,0.58879 1.65206,-0.0166 0.13405,-0.13723 0.32526,-0.57891 0.44979,-1.05304 l -3.5e-4,-0.0109 c 0.0991,-0.0321 0.18626,-0.06 0.18626,-0.06 0.0533,-0.0191 0.2667,-0.11007 0.38488,-0.16122 0.36548,0.26987 0.71826,0.36266 0.95003,0.0755 0.28928,0.26599 0.49918,0.20884 0.58879,0.0723 0.0374,-0.0575 0.079,-0.16545 0.11536,-0.28046 0.11924,0.0924 0.37359,0.31856 1.08761,-0.0219 0.20638,-0.0907 1.10455,-0.51364 1.10455,-0.51364 0.043,-0.11007 0.14817,-0.39335 0.043,-0.32138 m -4.0446,-1.11796 c 0.0349,-0.0145 1.53494,-0.64029 1.59632,-0.67168 0.0614,-0.0314 0.0974,-0.0413 0.127,-0.0945 0.0296,-0.0529 0.0363,-0.0628 0.0529,-0.0991 0.018,-0.0402 0.0377,-0.0857 -0.0751,-0.0325 -0.0727,0.0346 -1.55575,0.6551 -1.63301,0.6865 -0.0773,0.0318 -0.10054,0.0466 -0.11748,0.0984 -0.0169,0.0526 -0.0254,0.0801 -0.03,0.091 -0.0145,0.0356 -0.0339,0.0713 0.0794,0.0219 m 2.47438,-0.1016 c 0.0339,-0.018 1.09185,-0.44697 1.15006,-0.48436 0.0579,-0.037 0.0928,-0.0512 0.11642,-0.10654 0.0247,-0.0554 0.031,-0.066 0.0437,-0.10442 0.0138,-0.0406 0.0289,-0.0882 -0.078,-0.0243 -0.0691,0.0409 -1.11055,0.46355 -1.18428,0.50235 -0.0741,0.0392 -0.0959,0.0557 -0.10795,0.10972 -0.0116,0.0536 -0.0173,0.0819 -0.0208,0.0931 -0.0106,0.0367 -0.0265,0.0741 0.0808,0.0145 m -4.179,1.64994 c 0.0325,-0.0208 1.1998,-0.49883 1.25589,-0.53799 0.0564,-0.0402 0.0914,-0.0547 0.11289,-0.11183 0.0215,-0.0564 0.0272,-0.0667 0.0384,-0.10583 0.0123,-0.0416 0.0251,-0.0903 -0.079,-0.0212 -0.067,0.0441 -1.21814,0.51505 -1.29082,0.55774 -0.0716,0.042 -0.0931,0.0593 -0.10195,0.11324 -0.01,0.0547 -0.0145,0.0833 -0.0173,0.0942 -0.009,0.0374 -0.0229,0.0755 0.0819,0.0116 m 7.81262,1.45027 c -1.07245,0.37359 -1.50813,-0.17956 -1.55964,-0.25753 -0.34889,-0.60572 0.145,-1.33738 0.18804,-1.39171 0.0427,-0.0554 0.0811,-0.0166 0.055,0.0268 -0.16052,0.33691 -0.20003,0.54504 -0.19473,0.63324 0.0257,0.73095 0.77893,0.74471 0.87206,0.74683 0.74084,0.0219 1.28552,-0.50094 1.33527,-0.53904 0.0497,-0.0385 0.0684,-0.0515 0.0388,-0.0755 -0.40358,-0.20073 -0.90487,-0.19086 -0.93486,-0.19862 -0.03,-0.007 -0.0434,-0.0173 -0.024,-0.0681 0.0198,-0.0504 0.0543,-0.15839 0.0695,-0.19297 0.23918,-0.0504 0.5969,-0.20037 0.6477,-0.25012 0.13723,-0.13793 -0.31821,-0.64135 -0.381,-0.72637 0,0 0.0723,-0.33831 0.0822,-0.37676 0.0102,-0.0392 0.018,-0.0607 0.0536,-0.0222 0.65017,0.7306 0.35666,1.30175 0.31538,1.39135 0,0 0.2092,0.019 0.27552,0.12736 0.11183,0.18274 0.084,0.31714 0.0681,0.39017 -0.0815,0.36724 -0.77082,0.73589 -0.90699,0.78317 m -1.61361,-3.19864 c 0.005,-0.0106 0.0127,-0.0381 0.0289,-0.0914 0.0162,-0.0519 0.0392,-0.067 0.11571,-0.0995 0.0769,-0.0332 1.05304,-0.45544 1.12501,-0.49107 0.11147,-0.0543 0.0924,-0.009 0.0751,0.0311 -0.0155,0.0374 -0.0229,0.0469 -0.0519,0.10019 -0.0279,0.0536 -0.0639,0.0642 -0.12488,0.0974 -0.06,0.0321 -1.05375,0.45897 -1.08797,0.47449 -0.11183,0.0508 -0.0942,0.0148 -0.0801,-0.0212 m 3.05858,3.17112 c -0.0183,0.0356 -0.0261,0.0448 -0.0586,0.096 -0.0314,0.0519 -0.0681,0.0596 -0.13088,0.0882 -0.0628,0.0279 -0.9204,0.38664 -0.95603,0.40005 -0.115,0.0427 -0.0942,0.008 -0.078,-0.0258 0.005,-0.0113 0.0145,-0.0388 0.0342,-0.0896 0.0197,-0.0526 0.0441,-0.0649 0.12241,-0.0928 0.0787,-0.0275 0.91864,-0.38241 0.99343,-0.41311 0.11571,-0.0469 0.0935,-0.002 0.0734,0.037 m 3.78601,-2.04258 c 0.10901,0.69462 0.1076,1.17263 0.0575,1.34479 -0.0293,0.0998 -0.0759,0.0681 -0.0829,-0.0702 -0.0293,-0.58702 -0.18979,-1.40829 -0.23777,-1.6831 -0.0473,-0.27305 -0.0974,-0.5588 -0.14887,-0.94016 -0.0335,-0.22119 -0.0113,-0.38558 0.0392,-0.51576 0.0473,-0.12347 0.0723,0.008 0.0871,0.16016 0.031,0.27764 0.23037,1.35432 0.28575,1.70427 m -0.76305,0.67981 c 0.0289,0.21978 -0.0977,0.59055 -0.15135,0.71155 -0.0529,0.12135 -0.2487,0.0483 -0.36547,0.0243 -0.073,-0.0152 -0.19227,-0.0808 -0.27094,-0.127 -0.0677,0.0744 -0.15663,0.14428 -0.27446,0.19508 -0.19473,0.0684 -1.31092,0.43357 -1.81257,0.01 -0.11218,-0.0822 -0.26317,-0.24412 -0.2734,-0.79445 -0.004,-0.26811 -0.0893,-1.60902 -0.13335,-1.79917 -0.0441,-0.19015 -0.066,-0.41063 0.01,-0.6223 0.0515,-0.10195 0.0635,-0.0434 0.0783,0.0296 0.11783,0.66146 0.21625,2.25037 0.22578,2.37243 0.01,0.12206 0.0589,0.47731 0.43815,0.59443 0.38065,0.11713 0.99448,0.073 1.51589,-0.15063 0.16086,-0.0737 0.30691,-0.19509 0.35066,-0.25859 0.0437,-0.0631 0.0875,-0.0681 0.073,0.0243 -0.006,0.0392 -0.0254,0.1203 -0.0723,0.21555 0.0695,0.004 0.35243,0.0194 0.4378,0.0233 0.0977,0.005 0.0829,-0.13617 0.0684,-0.22366 -0.0148,-0.0882 -0.30692,-1.77447 -0.3362,-1.91417 -0.024,-0.11571 -0.0229,-0.21167 -0.0314,-0.26741 -0.008,-0.0536 -0.0452,-0.10689 -0.0854,-0.18591 -0.0416,-0.0794 -0.008,-0.16616 0.009,-0.19368 0.0176,-0.0261 0.0868,-0.096 0.13653,-0.20249 0.024,-0.0519 0.054,0.008 0.067,0.0624 0.012,0.0497 0.11289,0.2159 0.15664,0.27234 0.0296,0.0378 0.0522,0.10548 0.0395,0.1337 -0.024,0.0529 -0.0952,0.15487 -0.11042,0.17498 -0.0116,0.0159 -0.0219,0.0448 -0.0152,0.10795 0,0 0.29669,1.56845 0.32597,1.78753 m -2.31352,-2.63913 c 0.004,-0.0102 0.0134,-0.0384 0.0307,-0.0903 0.0173,-0.0526 0.0409,-0.067 0.11853,-0.0974 0.0773,-0.0318 0.97543,-0.40499 1.04917,-0.43886 0.11253,-0.0526 0.0928,-0.007 0.0751,0.0321 -0.0169,0.0378 -0.0243,0.0476 -0.0547,0.10019 -0.0293,0.0526 -0.0649,0.0624 -0.127,0.0935 -0.0617,0.0311 -0.9772,0.40852 -1.01283,0.42369 -0.11289,0.0487 -0.0935,0.0127 -0.079,-0.0229 m -2.36044,0.96555 c -0.0392,-0.0388 -0.0744,-0.0808 -0.10548,-0.12488 l 0.007,-0.042 0.22436,-0.22543 0.0247,0.002 c 0.0342,0.0448 0.0695,0.0903 0.11042,0.13088 0.0441,0.0448 0.091,0.0829 0.14252,0.11642 l 0.002,0.0286 -0.22472,0.22366 -0.0441,0.004 c -0.048,-0.0325 -0.0931,-0.0709 -0.13618,-0.11359 m 3.39443,-0.66146 c 0.0201,0.0508 0.0367,0.10865 0.0346,0.14287 -0.0797,0.0769 -0.16545,0.0896 -0.22824,0.0381 -0.0392,-0.0328 -0.0543,-0.0945 -0.0505,-0.17568 0.002,-0.0582 0.009,-0.0804 -0.042,-0.0388 -0.0667,0.054 -0.0483,0.0487 -0.0526,0.079 -0.0233,0.1912 -0.10512,0.27693 -0.25258,0.28716 -0.0928,0.006 -0.16087,-0.0586 -0.0963,-0.24165 0.0138,-0.0392 -0.0138,-0.0804 -0.0547,0 -0.13829,0.27587 -0.0543,0.42968 0.0871,0.45085 0.11466,0.0166 0.25224,-0.0487 0.32174,-0.22296 0.0533,0.0882 0.16157,0.1143 0.25929,0.0882 0.12523,-0.0321 0.1524,-0.09 0.18803,-0.19156 0.0349,-0.0981 0.0356,-0.22754 -0.0113,-0.38241 -0.008,-0.0261 -0.0215,-0.0123 -0.0275,7.1e-4 l -0.067,0.12664 c -0.008,0.0141 -0.0137,0.0243 -0.008,0.0395 m 6.64739,0.50554 c -0.0561,-0.0349 -0.0554,-0.0759 -0.03,-0.11501 0.084,-0.12982 0.14499,-0.12594 0.20037,-0.0656 0.09,0.115 0.0699,0.3055 0.06,0.34043 0,0 -0.17392,-0.12524 -0.23037,-0.15981 m 0.22366,0.42722 c 0.1203,0.0561 0.17145,0.18379 0.18733,0.13687 0.0455,-0.13335 0.061,-0.20814 0.0265,-0.24482 -0.025,-0.0265 -0.11183,-0.0914 -0.11183,-0.0914 0.0318,-0.0748 0.097,-0.33797 -0.0113,-0.54822 -0.0268,-0.0452 -0.13335,-0.21131 -0.35737,0.0402 -0.0875,0.0967 -0.19967,0.34255 -0.11112,0.4318 0.0885,0.0885 0.28257,0.21378 0.28257,0.21378 -0.1016,0.17463 -0.34642,0.3295 -0.66569,0.55704 -0.20814,0.14852 -0.13053,0.19967 -0.0399,0.15663 0.60325,-0.28575 0.70661,-0.45332 0.8008,-0.65193 m -3.46004,-0.43251 c -0.0561,-0.0353 -0.0554,-0.0758 -0.03,-0.115 0.0843,-0.13018 0.14499,-0.1263 0.20073,-0.066 0.09,0.115 0.0695,0.3055 0.06,0.34078 0,0 -0.17428,-0.12559 -0.23072,-0.15981 m 0.22366,0.42722 c 0.1203,0.0561 0.1711,0.18344 0.18733,0.13652 0.0455,-0.13335 0.061,-0.20778 0.0264,-0.24483 -0.025,-0.0261 -0.11183,-0.0914 -0.11183,-0.0914 0.0318,-0.0748 0.097,-0.33796 -0.0113,-0.54786 -0.0264,-0.0452 -0.13335,-0.21167 -0.35736,0.0402 -0.0875,0.0963 -0.19967,0.34219 -0.11112,0.43145 0.0885,0.0885 0.28257,0.21413 0.28257,0.21413 -0.1016,0.17428 -0.34643,0.32915 -0.66569,0.55669 -0.20814,0.14887 -0.13018,0.19967 -0.0399,0.15663 0.60325,-0.2854 0.70662,-0.45332 0.80081,-0.65158 m 1.61149,-0.46919 c 0.0127,-0.004 0.0275,-0.002 0.0427,-0.0159 0.0494,-0.0462 0.0903,-0.16899 0.0952,-0.21097 -0.006,-0.0317 -0.12065,-0.0434 -0.15382,-0.0511 -0.11359,-0.0272 -0.22154,-0.0871 -0.33972,-0.0949 -0.18239,-0.0116 -0.35137,0.0705 -0.44556,0.26247 -0.0102,0.0251 -0.0254,0.0586 -0.0356,0.0836 -0.0113,0.042 0.0106,0.0702 0.0325,0.0377 0.025,-0.0377 0.0564,-0.0748 0.096,-0.0984 0.0931,-0.0564 0.19227,-0.0783 0.29387,-0.0684 0.0914,0.009 0.26423,0.0734 0.26387,0.0822 -0.001,0.0201 -0.40146,0.21802 -0.46425,0.25753 -0.0272,0.0169 -0.0607,0.0483 -0.0547,0.0797 0.005,0.0243 0.0434,0.0293 0.0758,0.0176 0.15734,-0.0568 0.21379,-0.0529 0.34114,-0.10725 0.17145,-0.0734 0.22225,-0.1651 0.25259,-0.17392 m -2.08386,2.40242 c -0.0243,0.0512 -0.0557,0.139 -0.0744,0.1905 -0.006,0.018 0.008,0.0402 0.0307,0.0272 0.127,-0.078 0.31714,-0.17392 0.51858,-0.24518 0.18309,-0.0649 0.32738,-0.10689 0.46037,-0.1143 0.0205,-0.004 0.12912,-0.19438 0.1457,-0.22225 0.0226,-0.0356 0.006,-0.0473 -0.0222,-0.0416 -0.15452,0.0296 -0.27446,0.0568 -0.46108,0.0399 -0.23107,-0.0205 -0.41134,-0.19685 -0.40499,-0.26599 0.005,-0.0529 0.16898,-0.1577 0.22966,-0.14817 0.17674,0.0279 0.17392,0.18344 0.22119,0.18521 0.0572,0.002 0.17286,-0.20214 0.17991,-0.25753 0.007,-0.0607 -0.11359,-0.20496 -0.22895,-0.21167 -0.18979,-0.0116 -0.51153,0.31009 -0.63817,0.508 -0.0459,0.0727 -0.0413,0.18451 0.0243,0.2413 0.0586,0.0501 0.15522,0.10266 0.26423,0.16898 -0.0533,0.0187 -0.19297,0.10055 -0.24483,0.1457 m 6.51263,-0.98531 c -0.0317,-0.29986 -0.1584,-1.22519 -0.17039,-1.46297 -0.005,-0.13017 -0.0215,-0.24236 -0.0773,-0.14181 -0.0593,0.10759 -0.0924,0.24588 -0.0734,0.43532 0.0258,0.32668 0.0565,0.57186 0.0861,0.8061 0.0293,0.23707 0.13476,0.94333 0.12418,1.44357 -0.002,0.11712 0.0423,0.14746 0.0783,0.0635 0.0617,-0.14182 0.0949,-0.54787 0.0324,-1.14371 m -1.51835,1.55011 c -0.0413,-0.0409 -0.0766,-0.0861 -0.11078,-0.13088 l -0.0243,-0.002 -0.22472,0.22578 -0.006,0.0416 c 0.0314,0.0441 0.0663,0.0854 0.10513,0.12453 0.0427,0.0434 0.0885,0.0808 0.13617,0.11359 l 0.0441,-0.003 0.22507,-0.22542 -0.002,-0.0275 c -0.0515,-0.0339 -0.0988,-0.0716 -0.14217,-0.11642 m 1.04739,-1.09361 c -0.15346,-0.01 -0.86289,-0.0226 -1.27882,-0.25224 0.0413,-0.0349 0.13159,-0.15063 0.0988,-0.44168 -0.031,-0.29068 -0.14781,-1.12148 -0.14781,-1.12148 -0.009,-0.0868 -0.0444,-0.17039 0.005,-0.21449 0.0497,-0.0448 0.15381,-0.12065 0.0938,-0.20249 -0.06,-0.0818 -0.16299,-0.23777 -0.19297,-0.32597 -0.025,-0.0744 -0.0473,-0.13652 -0.0847,-0.078 -0.0441,0.0677 -0.0596,0.15381 -0.11924,0.23178 -0.031,0.0413 -0.0635,0.0614 -0.0279,0.12312 0.0476,0.0843 0.0956,0.23777 0.10513,0.34325 0.004,0.055 0.0197,0.17427 0.0356,0.28787 0,0 0.2032,1.05022 0.18697,1.22026 0,0 -0.84032,0.0296 -0.94968,0.13582 l -0.16862,0.26176 c -0.0141,0.0289 -0.0127,0.0607 0.0275,0.0547 0.0399,-0.007 0.55669,-0.17251 1.282,0.11853 -0.0854,0.0296 -1.04387,0.43956 -1.85314,0.34784 -0.12101,-0.004 -0.97155,-0.11501 -1.04211,-0.54645 -0.01,-0.0543 -0.0236,-0.0744 -0.0526,-0.0194 -0.0258,0.049 -0.26177,0.4011 0.10865,0.65405 -0.11747,0.248 -0.32667,0.5842 -0.64664,0.71578 -0.10442,0.0392 -0.57185,0.15911 -1.04352,-0.0522 -0.0582,-0.0187 -0.14358,0.0282 -0.0557,0.0882 0.0885,0.0607 0.95109,0.61172 1.5106,0.0318 0.0991,-0.1016 0.2674,-0.37288 0.39546,-0.69815 0.57362,0.31221 1.52753,0.14041 1.52753,0.14041 0.20743,-0.0441 0.42474,-0.10513 0.64946,-0.19191 0.11818,-0.0483 0.92993,-0.41557 1.47991,-0.28751 0.115,0.0282 0.14111,0.0282 0.14111,0.0282 0,0 0.0988,-0.21061 0.12135,-0.26177 0.0219,-0.0512 0.048,-0.0801 -0.10548,-0.0896 m -4.07423,-1.02164 c 0.0441,0.0441 0.091,0.0825 0.14252,0.11712 l 0.002,0.0275 -0.22437,0.22437 -0.0444,0.004 c -0.0476,-0.0325 -0.0931,-0.0709 -0.13617,-0.11289 -0.0388,-0.0399 -0.0741,-0.0815 -0.10513,-0.12559 l 0.006,-0.0413 0.22472,-0.22578 0.025,0.002 c 0.0339,0.0444 0.0691,0.09 0.11006,0.13089"
         style="fill:#231f20;fill-opacity:1;fill-rule:nonzero;stroke:none;stroke-width:0.352778"
         clip-path="url(#clipPath1)"
         id="path29-7" /></g></g></svg>
