<?xml version="1.0" encoding="UTF-8" standalone="no"?>
<!-- Created with Inkscape (http://www.inkscape.org/) -->

<svg
   version="1.1"
   id="svg1"
   width="81.493347"
   height="20.265789"
   viewBox="0 0 81.493347 20.265789"
   xmlns="http://www.w3.org/2000/svg"
   xmlns:svg="http://www.w3.org/2000/svg">
  <defs
     id="defs1">
    <clipPath
       clipPathUnits="userSpaceOnUse"
       id="clipPath28">
      <path
         d="m 294.628,517.702 h 61.12 v -15.2 h -61.12 z"
         transform="translate(-327.65721,-512.49221)"
         id="path28" />
    </clipPath>
    <clipPath
       clipPathUnits="userSpaceOnUse"
       id="clipPath30">
      <path
         d="M 0,547.086 H 382.677 V 0 H 0 Z"
         transform="matrix(1.3333333,0,0,-1.3333333,0,729.448)"
         id="path30" />
    </clipPath>
  </defs>
  <g
     id="layer-MC1"
     transform="translate(-392.83731,-39.179558)">
    <g
       id="g29"
       clip-path="url(#clipPath30)">
      <path
         d="m 0,0 -0.58,-0.693 -0.007,-0.118 c 0.1,-0.118 0.209,-0.227 0.329,-0.328 0.131,-0.109 0.27,-0.205 0.41,-0.285 l 0.125,0.019 0.579,0.692 -0.012,0.077 C 0.691,-0.553 0.549,-0.457 0.414,-0.342 0.288,-0.237 0.177,-0.118 0.068,0 Z m 0.247,-2.302 -0.023,-0.041 -0.289,0.21 c -0.13,0.109 -0.245,0.232 -0.353,0.354 l -0.077,-0.001 -0.6,-0.718 -0.008,-0.124 c 0.105,-0.12 0.216,-0.235 0.343,-0.339 0.132,-0.114 0.276,-0.213 0.426,-0.296 l 0.13,0.022 0.566,0.676 0.221,-0.208 C 0.719,-2.88 0.861,-2.978 1.009,-3.062 l 0.131,0.02 0.598,0.718 -0.018,0.079 C 1.567,-2.156 1.42,-2.057 1.277,-1.938 1.146,-1.83 1.035,-1.706 0.924,-1.583 L 0.85,-1.584 Z m -23.041,2.533 -0.58,-0.692 -0.007,-0.118 c 0.1,-0.118 0.209,-0.228 0.329,-0.329 0.131,-0.109 0.27,-0.204 0.41,-0.284 l 0.125,0.019 0.58,0.691 -0.013,0.077 c -0.153,0.083 -0.295,0.18 -0.43,0.294 -0.127,0.106 -0.237,0.225 -0.346,0.343 z m 0.247,-2.302 -0.023,-0.04 -0.289,0.209 c -0.13,0.109 -0.245,0.232 -0.353,0.354 l -0.077,-10e-4 -0.6,-0.717 -0.007,-0.124 c 0.104,-0.12 0.215,-0.235 0.342,-0.339 0.132,-0.114 0.276,-0.214 0.425,-0.296 l 0.131,0.021 0.566,0.676 0.221,-0.207 c 0.136,-0.113 0.278,-0.212 0.426,-0.295 l 0.131,0.02 0.598,0.718 -0.018,0.079 c -0.153,0.088 -0.3,0.188 -0.443,0.306 -0.13,0.109 -0.242,0.232 -0.353,0.354 h -0.074 z m 8.231,-0.654 c -0.299,-0.204 -1.894,-1.13 -2.871,-0.982 -0.98,0.15 -1.415,0.763 -1.415,1.075 0,0.312 0.232,0.801 0.72,1.005 0.489,0.204 1.482,0.572 1.931,0.298 0.448,-0.272 0.556,-0.052 0.341,0.164 -0.218,0.218 -1.198,0.869 -2.094,0.503 -1.237,-0.572 -1.385,-1.631 -1.454,-2.269 -0.069,-0.639 0.326,-1.169 0.788,-1.51 -0.3,-0.129 -1.593,-0.419 -2.037,0.236 l 0.026,0.186 c 0.013,0.3 -0.178,0.327 -0.26,0.027 -0.082,-0.3 -0.126,-0.687 -0.271,-0.979 -0.26,-0.521 -1.01,-0.117 -1.32,0.023 0.088,0.264 0.163,0.569 0.218,0.925 0.034,0.202 -0.09,0.372 -0.227,-0.052 -0.134,-0.415 -0.613,-1.649 -2.736,-0.938 0.029,0.251 0.181,0.806 -0.284,0.566 -0.503,-0.258 -1.723,-0.722 -2.428,-0.896 -0.46,-0.116 -0.532,-0.187 -0.46,-0.388 0.069,-0.204 0.193,-0.743 0.435,-0.664 0.051,0.017 0.138,0.045 0.242,0.077 -0.206,-0.548 -0.934,-2.24 -2.246,-2.778 -0.308,-0.118 -1.639,-0.489 -3.035,0.135 -0.172,0.056 -0.425,-0.081 -0.164,-0.259 0.261,-0.179 3.026,-1.669 4.683,0.047 0.38,0.389 0.922,1.641 1.275,2.985 l -0.001,0.031 c 0.281,0.091 0.528,0.17 0.528,0.17 0.151,0.054 0.756,0.312 1.091,0.457 1.036,-0.765 2.036,-1.028 2.693,-0.214 0.82,-0.754 1.415,-0.592 1.669,-0.205 0.106,0.163 0.224,0.469 0.327,0.795 0.338,-0.262 1.059,-0.903 3.083,0.062 0.585,0.257 3.131,1.456 3.131,1.456 0.122,0.312 0.42,1.115 0.122,0.911 m -11.465,3.169 c 0.099,0.041 4.351,1.815 4.525,1.904 0.174,0.089 0.276,0.117 0.36,0.268 0.084,0.15 0.103,0.178 0.15,0.281 0.051,0.114 0.107,0.243 -0.213,0.092 -0.206,-0.098 -4.41,-1.857 -4.629,-1.946 -0.219,-0.09 -0.285,-0.132 -0.333,-0.279 -0.048,-0.149 -0.072,-0.227 -0.085,-0.258 -0.041,-0.101 -0.096,-0.202 0.225,-0.062 m 7.014,0.288 c 0.096,0.051 3.095,1.267 3.26,1.373 0.164,0.105 0.263,0.145 0.33,0.302 0.07,0.157 0.088,0.187 0.124,0.296 0.039,0.115 0.082,0.25 -0.221,0.069 -0.196,-0.116 -3.148,-1.314 -3.357,-1.424 -0.21,-0.111 -0.272,-0.158 -0.306,-0.311 -0.033,-0.152 -0.049,-0.232 -0.059,-0.264 -0.03,-0.104 -0.075,-0.21 0.229,-0.041 m -11.846,-4.677 c 0.092,0.059 3.401,1.414 3.56,1.525 0.16,0.114 0.259,0.155 0.32,0.317 0.061,0.16 0.077,0.189 0.109,0.3 0.035,0.118 0.071,0.256 -0.224,0.06 -0.19,-0.125 -3.453,-1.46 -3.659,-1.581 -0.203,-0.119 -0.264,-0.168 -0.289,-0.321 -0.028,-0.155 -0.041,-0.236 -0.049,-0.267 -0.026,-0.106 -0.065,-0.214 0.232,-0.033 m 22.146,-4.111 c -3.04,-1.059 -4.275,0.509 -4.421,0.73 -0.989,1.717 0.411,3.791 0.533,3.945 0.121,0.157 0.23,0.047 0.156,-0.076 -0.455,-0.955 -0.567,-1.545 -0.552,-1.795 0.073,-2.072 2.208,-2.111 2.472,-2.117 2.1,-0.062 3.644,1.42 3.785,1.528 0.141,0.109 0.194,0.146 0.11,0.214 -1.144,0.569 -2.565,0.541 -2.65,0.563 -0.085,0.021 -0.123,0.049 -0.068,0.193 0.056,0.143 0.154,0.449 0.197,0.547 0.678,0.143 1.692,0.568 1.836,0.709 0.389,0.391 -0.902,1.818 -1.08,2.059 0,0 0.205,0.959 0.233,1.068 0.029,0.111 0.051,0.172 0.152,0.063 1.843,-2.071 1.011,-3.69 0.894,-3.944 0,0 0.593,-0.054 0.781,-0.361 0.317,-0.518 0.238,-0.899 0.193,-1.106 -0.231,-1.041 -2.185,-2.086 -2.571,-2.22 m -4.574,9.067 c 0.014,0.03 0.036,0.108 0.082,0.259 0.046,0.147 0.111,0.19 0.328,0.282 0.218,0.094 2.985,1.291 3.189,1.392 C -9.126,3.098 -9.18,2.97 -9.229,2.856 -9.273,2.75 -9.294,2.723 -9.376,2.572 -9.455,2.42 -9.557,2.39 -9.73,2.296 -9.9,2.205 -12.717,0.995 -12.814,0.951 c -0.317,-0.144 -0.267,-0.042 -0.227,0.06 m 8.67,-8.989 C -4.423,-8.079 -4.445,-8.105 -4.537,-8.25 -4.626,-8.397 -4.73,-8.419 -4.908,-8.5 c -0.178,-0.079 -2.609,-1.096 -2.71,-1.134 -0.326,-0.121 -0.267,-0.024 -0.221,0.073 0.013,0.032 0.041,0.11 0.097,0.254 0.056,0.149 0.125,0.184 0.347,0.263 0.223,0.078 2.604,1.084 2.816,1.171 0.328,0.133 0.265,0.007 0.208,-0.105 m 10.732,5.79 C 6.67,-4.157 6.666,-5.512 6.524,-6 6.441,-6.283 6.309,-6.193 6.289,-5.801 6.206,-4.137 5.751,-1.809 5.615,-1.03 5.481,-0.256 5.339,0.554 5.193,1.635 5.098,2.262 5.161,2.728 5.304,3.097 5.438,3.447 5.509,3.075 5.551,2.643 5.639,1.856 6.204,-1.196 6.361,-2.188 M 4.198,-4.115 C 4.28,-4.738 3.921,-5.789 3.769,-6.132 3.619,-6.476 3.064,-6.269 2.733,-6.201 2.526,-6.158 2.188,-5.972 1.965,-5.841 1.773,-6.052 1.521,-6.25 1.187,-6.394 0.635,-6.588 -2.529,-7.623 -3.951,-6.422 c -0.318,0.233 -0.746,0.692 -0.775,2.252 -0.012,0.76 -0.253,4.561 -0.378,5.1 -0.125,0.539 -0.187,1.164 0.028,1.764 0.146,0.289 0.18,0.123 0.222,-0.084 0.334,-1.875 0.613,-6.379 0.64,-6.725 0.027,-0.346 0.167,-1.353 1.242,-1.685 1.079,-0.332 2.819,-0.207 4.297,0.427 0.456,0.209 0.87,0.553 0.994,0.733 0.124,0.179 0.248,0.193 0.207,-0.069 C 2.509,-4.82 2.454,-5.05 2.321,-5.32 2.518,-5.33 3.32,-5.375 3.562,-5.386 3.839,-5.4 3.797,-5 3.756,-4.752 3.714,-4.502 2.886,0.278 2.803,0.674 2.735,1.002 2.738,1.274 2.714,1.432 2.69,1.584 2.586,1.735 2.472,1.959 2.354,2.184 2.45,2.43 2.497,2.508 2.547,2.582 2.743,2.78 2.884,3.082 2.952,3.229 3.037,3.059 3.074,2.905 3.108,2.764 3.394,2.293 3.518,2.133 3.602,2.026 3.666,1.834 3.63,1.754 3.562,1.604 3.36,1.315 3.317,1.258 3.284,1.213 3.255,1.131 3.274,0.952 c 0,0 0.841,-4.446 0.924,-5.067 M -2.36,3.366 c 0.011,0.029 0.038,0.109 0.087,0.256 0.049,0.149 0.116,0.19 0.336,0.276 0.219,0.09 2.765,1.148 2.974,1.244 C 1.356,5.291 1.3,5.161 1.25,5.051 1.202,4.944 1.181,4.916 1.095,4.767 1.012,4.618 0.911,4.59 0.735,4.502 0.56,4.414 -2.035,3.344 -2.136,3.301 -2.456,3.163 -2.401,3.265 -2.36,3.366 M -9.051,0.629 c -0.111,0.11 -0.211,0.229 -0.299,0.354 l 0.019,0.119 0.636,0.639 0.07,-0.006 c 0.097,-0.127 0.197,-0.256 0.313,-0.371 0.125,-0.127 0.258,-0.235 0.404,-0.33 L -7.903,0.953 -8.54,0.319 -8.665,0.307 C -8.801,0.399 -8.929,0.508 -9.051,0.629 M 0.571,2.504 C 0.628,2.36 0.675,2.196 0.669,2.099 0.443,1.881 0.2,1.845 0.022,1.991 -0.089,2.084 -0.132,2.259 -0.121,2.489 -0.114,2.654 -0.095,2.717 -0.24,2.599 -0.429,2.446 -0.377,2.461 -0.389,2.375 -0.455,1.833 -0.687,1.59 -1.105,1.561 -1.368,1.543 -1.561,1.727 -1.378,2.246 c 0.039,0.111 -0.039,0.228 -0.155,0 C -1.925,1.464 -1.687,1.028 -1.286,0.968 -0.961,0.921 -0.571,1.106 -0.374,1.6 -0.223,1.35 0.084,1.276 0.361,1.35 0.716,1.441 0.793,1.605 0.894,1.893 0.993,2.171 0.995,2.538 0.862,2.977 0.84,3.051 0.801,3.012 0.784,2.975 L 0.594,2.616 C 0.572,2.576 0.555,2.547 0.571,2.504 M 19.414,1.071 c -0.159,0.099 -0.157,0.215 -0.085,0.326 0.238,0.368 0.411,0.357 0.568,0.186 0.255,-0.326 0.198,-0.866 0.17,-0.965 0,0 -0.493,0.355 -0.653,0.453 m 0.634,-1.211 c 0.341,-0.159 0.486,-0.521 0.531,-0.388 0.129,0.378 0.173,0.59 0.075,0.694 -0.071,0.075 -0.317,0.259 -0.317,0.259 0.09,0.212 0.275,0.958 -0.032,1.554 C 20.229,2.107 19.927,2.578 19.292,1.865 19.044,1.591 18.726,0.894 18.977,0.641 19.228,0.39 19.778,0.035 19.778,0.035 19.49,-0.46 18.796,-0.899 17.891,-1.544 c -0.59,-0.421 -0.37,-0.566 -0.113,-0.444 1.71,0.81 2.003,1.285 2.27,1.848 M 10.24,1.086 c -0.159,0.1 -0.157,0.215 -0.085,0.326 0.239,0.369 0.411,0.358 0.569,0.187 0.255,-0.326 0.197,-0.866 0.17,-0.966 0,0 -0.494,0.356 -0.654,0.453 m 0.634,-1.211 c 0.341,-0.159 0.485,-0.52 0.531,-0.387 0.129,0.378 0.173,0.589 0.075,0.694 -0.071,0.074 -0.317,0.259 -0.317,0.259 0.09,0.212 0.275,0.958 -0.032,1.553 C 11.056,2.122 10.753,2.594 10.118,1.88 9.87,1.607 9.552,0.91 9.803,0.657 10.054,0.406 10.604,0.05 10.604,0.05 10.316,-0.444 9.622,-0.883 8.717,-1.528 8.127,-1.95 8.348,-2.094 8.604,-1.972 c 1.71,0.809 2.003,1.285 2.27,1.847 m 4.568,1.33 c 0.036,0.01 0.078,0.006 0.121,0.045 0.14,0.131 0.256,0.479 0.27,0.598 -0.016,0.09 -0.342,0.123 -0.436,0.145 C 15.075,2.07 14.769,2.24 14.434,2.262 13.917,2.295 13.438,2.062 13.171,1.518 13.142,1.447 13.099,1.352 13.07,1.281 13.038,1.162 13.1,1.082 13.162,1.174 c 0.071,0.107 0.16,0.212 0.272,0.279 0.264,0.16 0.545,0.222 0.833,0.194 C 14.526,1.622 15.016,1.439 15.015,1.414 15.011,1.357 13.877,0.796 13.699,0.684 13.622,0.636 13.527,0.547 13.544,0.458 c 0.014,-0.069 0.123,-0.083 0.215,-0.05 0.446,0.161 0.606,0.15 0.967,0.304 0.486,0.208 0.63,0.468 0.716,0.493 M 9.535,-5.605 C 9.466,-5.75 9.377,-5.999 9.324,-6.145 9.307,-6.196 9.347,-6.259 9.411,-6.222 c 0.36,0.221 0.899,0.493 1.47,0.695 0.519,0.184 0.928,0.303 1.305,0.324 0.058,0.01 0.366,0.551 0.413,0.63 0.064,0.101 0.017,0.134 -0.063,0.118 -0.438,-0.084 -0.778,-0.161 -1.307,-0.113 -0.655,0.058 -1.166,0.558 -1.148,0.754 0.015,0.15 0.479,0.447 0.651,0.42 0.501,-0.079 0.493,-0.52 0.627,-0.525 0.162,-0.005 0.49,0.573 0.51,0.73 0.021,0.172 -0.322,0.581 -0.649,0.6 C 10.682,-2.556 9.77,-3.468 9.411,-4.029 9.281,-4.235 9.294,-4.552 9.48,-4.713 9.646,-4.855 9.92,-5.004 10.229,-5.192 10.078,-5.245 9.682,-5.477 9.535,-5.605 m 18.461,2.793 c -0.09,0.85 -0.449,3.473 -0.483,4.147 -0.014,0.369 -0.061,0.687 -0.219,0.402 -0.168,-0.305 -0.262,-0.697 -0.208,-1.234 0.073,-0.926 0.16,-1.621 0.244,-2.285 0.083,-0.672 0.382,-2.674 0.352,-4.092 -0.006,-0.332 0.12,-0.418 0.222,-0.18 0.175,0.402 0.269,1.553 0.092,3.242 m -4.304,-4.394 c -0.117,0.116 -0.217,0.244 -0.314,0.371 l -0.069,0.006 -0.637,-0.64 -0.018,-0.118 c 0.089,-0.125 0.188,-0.242 0.298,-0.353 0.121,-0.123 0.251,-0.229 0.386,-0.322 l 0.125,0.009 0.638,0.639 -0.006,0.078 c -0.146,0.096 -0.28,0.203 -0.403,0.33 m 2.969,3.1 c -0.435,0.027 -2.446,0.064 -3.625,0.715 0.117,0.099 0.373,0.427 0.28,1.252 -0.088,0.824 -0.419,3.179 -0.419,3.179 -0.026,0.246 -0.126,0.483 0.014,0.608 0.141,0.127 0.436,0.342 0.266,0.574 C 23.007,2.454 22.715,2.896 22.63,3.146 22.559,3.357 22.496,3.533 22.39,3.367 22.265,3.175 22.221,2.931 22.052,2.71 21.964,2.593 21.872,2.536 21.973,2.361 c 0.135,-0.239 0.271,-0.674 0.298,-0.973 0.011,-0.156 0.056,-0.494 0.101,-0.816 0,0 0.576,-2.977 0.53,-3.459 0,0 -2.382,-0.084 -2.692,-0.385 l -0.478,-0.742 c -0.04,-0.082 -0.036,-0.172 0.078,-0.155 0.113,0.02 1.578,0.489 3.634,-0.336 -0.242,-0.084 -2.959,-1.246 -5.253,-0.986 -0.343,0.01 -2.754,0.326 -2.954,1.549 -0.027,0.154 -0.067,0.211 -0.149,0.055 -0.073,-0.139 -0.742,-1.137 0.308,-1.854 -0.333,-0.703 -0.926,-1.656 -1.833,-2.029 -0.296,-0.111 -1.621,-0.451 -2.958,0.148 -0.165,0.053 -0.407,-0.08 -0.158,-0.25 0.251,-0.172 2.696,-1.734 4.282,-0.09 0.281,0.288 0.758,1.057 1.121,1.979 1.626,-0.885 4.33,-0.398 4.33,-0.398 0.588,0.125 1.204,0.298 1.841,0.544 0.335,0.137 2.636,1.178 4.195,0.815 0.326,-0.08 0.4,-0.08 0.4,-0.08 0,0 0.28,0.597 0.344,0.742 0.062,0.145 0.136,0.227 -0.299,0.254 M 15.112,-1.21 c 0.125,-0.125 0.258,-0.234 0.404,-0.332 l 0.005,-0.078 -0.636,-0.636 -0.126,-0.01 c -0.135,0.092 -0.264,0.201 -0.386,0.32 -0.11,0.113 -0.21,0.231 -0.298,0.356 l 0.017,0.117 0.637,0.64 0.071,-0.006 c 0.096,-0.126 0.196,-0.255 0.312,-0.371"
         style="fill:#231f20;fill-opacity:1;fill-rule:nonzero;stroke:none"
         transform="matrix(1.3333333,0,0,-1.3333333,436.87627,46.125067)"
         clip-path="url(#clipPath28)"
         id="path29" />
    </g>
  </g>
</svg>
