<?xml version="1.0" encoding="UTF-8" standalone="no"?>
<!-- Created with Inkscape (http://www.inkscape.org/) -->

<svg
   version="1.1"
   id="svg1"
   width="84.071289"
   height="20.143673"
   viewBox="0 0 84.071289 20.143673"
   xmlns="http://www.w3.org/2000/svg"
   xmlns:svg="http://www.w3.org/2000/svg">
  <defs
     id="defs1">
    <clipPath
       clipPathUnits="userSpaceOnUse"
       id="clipPath36">
      <path
         d="m 292.694,517.61 h 63.054 v -15.108 h -63.054 z"
         transform="translate(-327.50781,-512.38771)"
         id="path36" />
    </clipPath>
    <clipPath
       clipPathUnits="userSpaceOnUse"
       id="clipPath38">
      <path
         d="M 0,547.086 H 382.677 V 0 H 0 Z"
         transform="matrix(1.3333333,0,0,-1.3333333,0,729.448)"
         id="path38" />
    </clipPath>
  </defs>
  <g
     id="layer-MC1"
     transform="translate(-390.25937,-39.301468)">
    <g
       id="g37"
       clip-path="url(#clipPath38)">
      <path
         d="m 0,0 -0.58,-0.693 -0.007,-0.119 c 0.1,-0.117 0.209,-0.226 0.329,-0.327 0.131,-0.109 0.27,-0.205 0.41,-0.285 l 0.125,0.019 0.579,0.692 -0.012,0.077 C 0.691,-0.553 0.549,-0.457 0.414,-0.342 0.288,-0.237 0.177,-0.118 0.068,0 Z m 0.247,-2.302 -0.023,-0.042 -0.289,0.211 c -0.13,0.108 -0.245,0.232 -0.353,0.354 l -0.077,-0.001 -0.6,-0.718 -0.008,-0.124 c 0.105,-0.121 0.216,-0.235 0.343,-0.34 0.133,-0.114 0.276,-0.212 0.426,-0.296 l 0.13,0.023 0.566,0.675 0.221,-0.207 C 0.719,-2.88 0.861,-2.979 1.009,-3.062 l 0.131,0.02 0.598,0.717 -0.018,0.08 C 1.568,-2.157 1.42,-2.057 1.277,-1.938 1.146,-1.83 1.035,-1.707 0.924,-1.584 H 0.85 Z m -11.272,2.044 -0.579,-0.692 -0.008,-0.119 c 0.099,-0.118 0.209,-0.227 0.328,-0.328 0.132,-0.109 0.27,-0.206 0.412,-0.284 l 0.124,0.017 0.579,0.693 -0.013,0.077 c -0.152,0.083 -0.296,0.179 -0.429,0.293 -0.127,0.106 -0.237,0.225 -0.346,0.343 z m 0.248,-2.303 -0.025,-0.04 -0.289,0.21 c -0.13,0.108 -0.244,0.232 -0.352,0.353 h -0.078 l -0.599,-0.717 -0.009,-0.124 c 0.105,-0.121 0.218,-0.235 0.344,-0.341 0.133,-0.113 0.275,-0.213 0.425,-0.296 l 0.131,0.023 0.565,0.676 0.222,-0.207 c 0.134,-0.114 0.278,-0.212 0.425,-0.296 l 0.131,0.02 0.599,0.717 -0.019,0.08 c -0.151,0.088 -0.299,0.188 -0.442,0.307 -0.13,0.108 -0.242,0.232 -0.354,0.354 h -0.074 z m -13.801,2.869 -0.58,-0.693 -0.007,-0.118 c 0.099,-0.118 0.209,-0.227 0.328,-0.328 0.132,-0.109 0.271,-0.205 0.411,-0.285 l 0.125,0.018 0.579,0.693 -0.012,0.077 c -0.153,0.083 -0.295,0.179 -0.43,0.294 -0.126,0.105 -0.237,0.224 -0.346,0.342 z m 0.248,-2.303 -0.025,-0.04 -0.289,0.21 c -0.129,0.108 -0.244,0.232 -0.352,0.354 l -0.078,-10e-4 -0.599,-0.717 -0.008,-0.125 c 0.104,-0.12 0.216,-0.234 0.343,-0.34 0.133,-0.114 0.276,-0.213 0.426,-0.296 l 0.13,0.023 0.566,0.676 0.221,-0.208 c 0.136,-0.114 0.279,-0.211 0.426,-0.295 l 0.131,0.02 0.598,0.717 -0.019,0.08 c -0.151,0.088 -0.299,0.187 -0.443,0.307 -0.13,0.108 -0.24,0.232 -0.352,0.354 h -0.075 z m 17.54,-4.249 c 0.332,-0.069 0.885,-0.277 1.035,0.068 0.152,0.346 0.512,1.396 0.43,2.018 -0.082,0.621 -0.924,5.069 -0.924,5.069 -0.018,0.178 0.01,0.26 0.043,0.306 0.043,0.054 0.244,0.345 0.312,0.497 0.038,0.078 -0.027,0.268 -0.111,0.378 -0.123,0.16 -0.41,0.63 -0.443,0.769 C -6.485,3.015 -6.571,3.186 -6.64,3.04 -6.782,2.735 -6.976,2.539 -7.024,2.465 -7.073,2.388 -7.167,2.143 -7.052,1.917 -6.937,1.69 -6.833,1.541 -6.81,1.39 c 0.026,-0.161 0.022,-0.432 0.09,-0.758 0.082,-0.4 0.91,-5.176 0.953,-5.427 0.041,-0.247 0.082,-0.648 -0.195,-0.635 -0.207,0.011 -0.834,0.045 -1.128,0.062 0.109,0.209 0.189,0.441 0.234,0.699 0.033,0.148 -0.1,0.406 -0.256,0.116 -0.159,-0.291 -1.285,-1.918 -4.496,-1.907 -2.946,0.007 -3.33,1.974 -2.879,2.661 0.113,0.171 0.043,0.272 -0.082,0.124 -0.125,-0.149 -0.78,-1.186 -0.389,-2.222 0.846,-2.006 4.271,-1.418 4.271,-1.418 0.237,0.044 2.163,0.248 3.206,1.385 0.218,-0.125 0.505,-0.274 0.691,-0.314 M 3.63,1.213 C 3.61,1.39 3.64,1.473 3.673,1.517 3.716,1.573 3.917,1.863 3.985,2.014 4.021,2.092 3.956,2.283 3.872,2.393 3.749,2.552 3.464,3.021 3.429,3.163 3.392,3.317 3.306,3.486 3.239,3.342 3.097,3.037 2.903,2.842 2.853,2.765 2.806,2.689 2.71,2.443 2.828,2.219 2.942,1.992 3.046,1.841 3.069,1.688 3.093,1.532 3.091,1.261 3.157,0.932 3.179,0.833 3.261,0.467 3.335,-0.039 3.37,-0.284 4.067,-4.286 4.106,-4.609 4.146,-4.932 4.12,-5.447 3.771,-5.396 3.423,-5.345 2.854,-5.11 2.714,-5.046 2.571,-4.983 2.274,-4.815 2.003,-5.008 1.731,-5.201 0.067,-6.146 -1.585,-5.951 -1.96,-5.86 -3.017,-5.755 -3.276,-3.963 -3.353,-3.421 -4.049,1.819 -4.128,2.115 -4.206,2.413 -4.296,2.348 -4.333,2.153 -4.372,1.96 -4.554,1.289 -4.464,0.877 c 0.272,-1.046 0.572,-4.341 0.647,-4.995 0.062,-0.581 0.207,-2.659 1.91,-2.852 0.308,-0.038 1.767,-0.22 3.652,0.943 0.244,0.142 0.42,0.231 0.621,0.106 0.203,-0.125 1.188,-0.829 1.746,-0.023 0.102,0.155 0.571,1.172 0.352,2.459 C 4.374,-2.943 3.63,1.213 3.63,1.213 M -12.954,1.196 c 0.098,0.049 2.983,1.262 3.149,1.362 0.167,0.103 0.268,0.137 0.341,0.293 0.072,0.155 0.091,0.184 0.132,0.292 0.04,0.117 0.09,0.249 -0.22,0.077 -0.199,-0.113 -3.036,-1.308 -3.249,-1.413 -0.213,-0.104 -0.275,-0.148 -0.314,-0.3 -0.036,-0.151 -0.057,-0.233 -0.068,-0.263 -0.032,-0.103 -0.079,-0.209 0.229,-0.048 m 9.121,-8.229 c -0.2,-0.108 -3.059,-1.251 -3.273,-1.352 -0.213,-0.1 -0.281,-0.144 -0.32,-0.295 -0.039,-0.151 -0.061,-0.23 -0.073,-0.262 -0.034,-0.102 -0.085,-0.207 0.228,-0.051 0.099,0.048 3.003,1.205 3.173,1.305 0.17,0.097 0.271,0.128 0.346,0.286 0.076,0.152 0.096,0.18 0.136,0.289 0.045,0.114 0.095,0.247 -0.217,0.08 M -2.365,3.29 C -2.267,3.333 0.321,4.423 0.496,4.512 0.67,4.6 0.771,4.628 0.857,4.779 0.939,4.931 0.959,4.957 1.006,5.062 1.058,5.174 1.114,5.305 0.793,5.154 0.586,5.056 -1.953,3.98 -2.173,3.891 -2.39,3.801 -2.457,3.76 -2.506,3.612 -2.554,3.463 -2.578,3.384 -2.59,3.353 -2.631,3.254 -2.686,3.151 -2.365,3.29 M 5.701,2.366 C 5.657,2.795 5.585,3.167 5.452,2.821 5.306,2.451 5.244,1.985 5.339,1.356 5.485,0.278 5.628,-0.532 5.765,-1.306 5.901,-2.088 6.354,-4.417 6.436,-6.08 6.457,-6.47 6.589,-6.563 6.673,-6.277 6.812,-5.789 6.816,-4.435 6.508,-2.465 6.354,-1.474 5.786,1.578 5.701,2.366 M -16.101,-2.62 c -0.298,-0.204 -1.893,-1.13 -2.871,-0.983 -0.979,0.151 -1.414,0.764 -1.414,1.076 0,0.312 0.232,0.8 0.721,1.005 0.488,0.204 1.48,0.572 1.93,0.298 0.448,-0.272 0.556,-0.053 0.34,0.163 -0.217,0.219 -1.197,0.87 -2.093,0.504 -1.238,-0.572 -1.386,-1.631 -1.454,-2.269 -0.069,-0.639 0.326,-1.169 0.788,-1.51 -0.3,-0.129 -1.593,-0.419 -2.037,0.236 l 0.025,0.186 c 0.014,0.3 -0.177,0.327 -0.258,0.027 -0.082,-0.3 -0.127,-0.687 -0.272,-0.979 -0.261,-0.521 -1.01,-0.117 -1.321,0.023 0.089,0.264 0.163,0.569 0.22,0.925 0.032,0.202 -0.092,0.372 -0.228,-0.052 -0.134,-0.415 -0.613,-1.649 -2.736,-0.938 0.029,0.251 0.181,0.805 -0.284,0.566 -0.502,-0.258 -1.724,-0.722 -2.429,-0.896 -0.46,-0.116 -0.531,-0.187 -0.46,-0.388 0.07,-0.204 0.194,-0.743 0.436,-0.665 0.051,0.018 0.138,0.046 0.242,0.078 -0.206,-0.548 -0.934,-2.24 -2.246,-2.778 -0.309,-0.118 -1.64,-0.489 -3.035,0.135 -0.172,0.056 -0.425,-0.082 -0.164,-0.259 0.261,-0.179 3.027,-1.669 4.682,0.047 0.38,0.389 0.922,1.641 1.276,2.985 l -0.001,0.031 c 0.281,0.091 0.529,0.17 0.529,0.17 0.15,0.054 0.755,0.312 1.09,0.457 1.036,-0.765 2.036,-1.028 2.692,-0.214 0.821,-0.755 1.415,-0.592 1.669,-0.205 0.107,0.163 0.225,0.469 0.327,0.795 0.338,-0.263 1.06,-0.903 3.083,0.062 0.585,0.257 3.131,1.456 3.131,1.456 0.122,0.312 0.421,1.114 0.122,0.911 m -11.464,3.169 c 0.1,0.041 4.351,1.815 4.525,1.904 0.174,0.089 0.275,0.117 0.359,0.268 0.084,0.15 0.104,0.177 0.151,0.281 0.051,0.114 0.108,0.243 -0.213,0.092 -0.206,-0.098 -4.41,-1.857 -4.629,-1.947 C -27.59,1.058 -27.657,1.016 -27.705,0.869 -27.753,0.72 -27.777,0.642 -27.79,0.611 -27.831,0.51 -27.886,0.409 -27.565,0.549 m 7.014,0.288 c 0.096,0.051 3.095,1.267 3.259,1.373 0.165,0.104 0.264,0.144 0.331,0.302 0.069,0.157 0.087,0.187 0.124,0.296 0.04,0.115 0.082,0.25 -0.222,0.069 -0.195,-0.116 -3.147,-1.315 -3.356,-1.424 -0.21,-0.111 -0.272,-0.158 -0.306,-0.311 -0.033,-0.152 -0.05,-0.232 -0.059,-0.264 -0.031,-0.105 -0.075,-0.211 0.229,-0.041 M -32.397,-3.84 c 0.091,0.059 3.401,1.414 3.56,1.525 0.16,0.114 0.259,0.155 0.319,0.316 0.062,0.161 0.078,0.189 0.11,0.301 0.034,0.118 0.071,0.256 -0.223,0.06 -0.191,-0.125 -3.454,-1.46 -3.659,-1.581 -0.204,-0.119 -0.265,-0.168 -0.29,-0.322 -0.028,-0.154 -0.041,-0.236 -0.049,-0.266 -0.026,-0.106 -0.065,-0.214 0.232,-0.033 M 0.526,2.306 C 0.584,2.159 0.632,1.992 0.625,1.893 0.396,1.671 0.147,1.634 -0.033,1.783 -0.147,1.878 -0.191,2.056 -0.18,2.29 -0.172,2.458 -0.152,2.521 -0.301,2.403 -0.493,2.247 -0.44,2.262 -0.452,2.174 -0.52,1.622 -0.756,1.374 -1.183,1.345 -1.45,1.327 -1.646,1.514 -1.46,2.042 c 0.039,0.114 -0.04,0.234 -0.158,0 -0.4,-0.796 -0.156,-1.24 0.252,-1.301 0.331,-0.048 0.727,0.14 0.929,0.644 C -0.283,1.13 0.029,1.055 0.312,1.13 0.673,1.223 0.752,1.39 0.854,1.683 0.955,1.966 0.958,2.341 0.822,2.788 0.8,2.863 0.76,2.823 0.744,2.786 L 0.549,2.419 C 0.526,2.379 0.509,2.35 0.526,2.306 m 19.037,-1.13 c -0.159,0.098 -0.157,0.214 -0.084,0.326 0.238,0.368 0.411,0.357 0.568,0.185 0.255,-0.325 0.197,-0.865 0.17,-0.964 0,0 -0.493,0.355 -0.654,0.453 m 0.634,-1.211 c 0.341,-0.159 0.486,-0.521 0.532,-0.388 0.128,0.378 0.172,0.59 0.075,0.694 C 20.732,0.346 20.486,0.53 20.486,0.53 20.577,0.742 20.762,1.488 20.454,2.083 20.379,2.212 20.077,2.683 19.441,1.97 19.193,1.696 18.875,0.999 19.126,0.746 19.377,0.495 19.928,0.14 19.928,0.14 19.64,-0.355 18.945,-0.794 18.04,-1.439 17.451,-1.86 17.671,-2.005 17.928,-1.883 c 1.71,0.81 2.003,1.285 2.269,1.848 M 10.39,1.19 c -0.16,0.101 -0.158,0.216 -0.085,0.327 0.238,0.369 0.411,0.358 0.568,0.187 0.255,-0.326 0.197,-0.866 0.17,-0.966 0,0 -0.493,0.356 -0.653,0.452 m 0.633,-1.211 c 0.341,-0.158 0.486,-0.52 0.532,-0.386 0.129,0.378 0.173,0.589 0.075,0.694 -0.071,0.074 -0.317,0.259 -0.317,0.259 0.089,0.212 0.275,0.958 -0.033,1.553 -0.075,0.128 -0.378,0.6 -1.012,-0.114 C 10.02,1.712 9.702,1.015 9.953,0.762 10.203,0.511 10.754,0.155 10.754,0.155 10.466,-0.339 9.771,-0.778 8.867,-1.423 8.276,-1.845 8.497,-1.989 8.754,-1.867 c 1.71,0.809 2.003,1.284 2.269,1.846 m 4.569,1.331 c 0.035,0.01 0.077,0.005 0.12,0.044 0.14,0.132 0.257,0.479 0.27,0.598 -0.015,0.09 -0.341,0.124 -0.435,0.146 -0.322,0.077 -0.629,0.247 -0.964,0.269 -0.517,0.032 -0.996,-0.2 -1.263,-0.744 -0.029,-0.071 -0.072,-0.166 -0.1,-0.237 -0.032,-0.119 0.029,-0.199 0.092,-0.107 0.071,0.107 0.16,0.212 0.271,0.279 0.265,0.16 0.546,0.222 0.833,0.194 0.26,-0.025 0.749,-0.208 0.748,-0.233 C 15.161,1.462 14.026,0.901 13.849,0.789 13.771,0.741 13.677,0.652 13.693,0.562 c 0.014,-0.068 0.123,-0.083 0.215,-0.049 0.446,0.161 0.607,0.15 0.967,0.304 0.486,0.207 0.631,0.468 0.717,0.493 M 9.684,-5.5 C 9.615,-5.646 9.526,-5.895 9.474,-6.041 9.456,-6.091 9.496,-6.154 9.56,-6.117 c 0.36,0.221 0.899,0.492 1.47,0.695 0.52,0.184 0.928,0.303 1.305,0.324 0.058,0.009 0.367,0.551 0.413,0.63 0.065,0.101 0.018,0.134 -0.063,0.118 -0.438,-0.085 -0.778,-0.161 -1.307,-0.113 -0.654,0.058 -1.165,0.558 -1.148,0.754 0.015,0.149 0.479,0.447 0.652,0.42 0.501,-0.079 0.492,-0.521 0.627,-0.525 0.161,-0.005 0.489,0.573 0.509,0.73 0.021,0.172 -0.322,0.581 -0.649,0.6 -0.538,0.033 -1.45,-0.879 -1.808,-1.44 C 9.431,-4.131 9.443,-4.447 9.63,-4.608 9.796,-4.75 10.069,-4.899 10.379,-5.087 10.228,-5.14 9.831,-5.372 9.684,-5.5 m 18.462,2.792 c -0.09,0.851 -0.45,3.474 -0.484,4.147 -0.014,0.37 -0.06,0.688 -0.219,0.403 -0.168,-0.305 -0.261,-0.697 -0.208,-1.235 0.074,-0.925 0.161,-1.62 0.244,-2.284 0.083,-0.672 0.382,-2.675 0.352,-4.093 -0.005,-0.332 0.121,-0.417 0.223,-0.179 0.175,0.402 0.268,1.553 0.092,3.241 m -4.304,-4.394 c -0.117,0.117 -0.218,0.245 -0.315,0.372 l -0.069,0.006 -0.637,-0.64 -0.017,-0.118 c 0.088,-0.125 0.188,-0.242 0.298,-0.353 0.121,-0.123 0.251,-0.229 0.385,-0.322 l 0.125,0.009 0.638,0.639 -0.006,0.078 c -0.145,0.096 -0.279,0.202 -0.402,0.329 m 2.968,3.101 c -0.435,0.027 -2.446,0.063 -3.624,0.715 0.117,0.098 0.372,0.427 0.28,1.252 -0.089,0.824 -0.419,3.179 -0.419,3.179 -0.026,0.246 -0.127,0.483 0.014,0.608 0.141,0.127 0.435,0.342 0.266,0.574 C 23.156,2.559 22.864,3 22.779,3.25 22.708,3.462 22.646,3.638 22.539,3.472 22.414,3.28 22.37,3.036 22.202,2.814 22.113,2.698 22.021,2.641 22.122,2.466 22.258,2.227 22.394,1.792 22.42,1.493 c 0.012,-0.156 0.057,-0.494 0.101,-0.816 0,0 0.577,-2.977 0.531,-3.459 0,0 -2.383,-0.084 -2.693,-0.385 l -0.477,-0.742 c -0.04,-0.082 -0.036,-0.172 0.077,-0.155 0.113,0.02 1.578,0.489 3.635,-0.336 -0.243,-0.084 -2.959,-1.246 -5.253,-0.986 -0.344,0.01 -2.755,0.325 -2.954,1.549 -0.028,0.154 -0.068,0.211 -0.15,0.055 -0.073,-0.139 -0.742,-1.137 0.309,-1.854 -0.333,-0.703 -0.927,-1.656 -1.833,-2.03 -0.297,-0.111 -1.621,-0.45 -2.958,0.149 -0.165,0.053 -0.407,-0.08 -0.158,-0.25 0.251,-0.172 2.695,-1.734 4.282,-0.09 0.281,0.288 0.758,1.057 1.12,1.979 1.626,-0.885 4.33,-0.399 4.33,-0.399 0.588,0.125 1.204,0.298 1.842,0.545 0.335,0.137 2.636,1.178 4.194,0.815 0.326,-0.08 0.401,-0.08 0.401,-0.08 0,0 0.28,0.597 0.343,0.742 0.063,0.145 0.136,0.227 -0.299,0.254 m -11.548,2.896 c 0.125,-0.125 0.258,-0.234 0.403,-0.332 l 0.006,-0.078 -0.636,-0.637 -0.127,-0.009 c -0.135,0.092 -0.263,0.201 -0.386,0.32 -0.11,0.112 -0.209,0.231 -0.297,0.356 l 0.017,0.117 0.637,0.639 0.07,-0.005 c 0.096,-0.126 0.197,-0.255 0.313,-0.371"
         style="fill:#231f20;fill-opacity:1;fill-rule:nonzero;stroke:none"
         transform="matrix(1.3333333,0,0,-1.3333333,436.67707,46.2644)"
         clip-path="url(#clipPath36)"
         id="path37" />
    </g>
  </g>
</svg>
