<?xml version="1.0" encoding="UTF-8" standalone="no"?>
<!-- Created with Inkscape (http://www.inkscape.org/) -->

<svg
   version="1.1"
   id="svg1"
   width="81.982574"
   height="19.608501"
   viewBox="0 0 81.982574 19.608501"
   xmlns="http://www.w3.org/2000/svg"
   xmlns:svg="http://www.w3.org/2000/svg">
  <defs
     id="defs1">
    <clipPath
       clipPathUnits="userSpaceOnUse"
       id="clipPath46">
      <path
         d="m 294.261,516.8 h 61.487 v -14.707 h -61.487 z"
         transform="translate(-304.49611,-512.71871)"
         id="path46" />
    </clipPath>
    <clipPath
       clipPathUnits="userSpaceOnUse"
       id="clipPath48">
      <path
         d="M 0,547.086 H 382.677 V 0 H 0 Z"
         transform="matrix(1.3333333,0,0,-1.3333333,0,729.448)"
         id="path48" />
    </clipPath>
  </defs>
  <g
     id="layer-MC1"
     transform="translate(-392.34799,-40.381348)">
    <g
       id="g47"
       clip-path="url(#clipPath48)">
      <path
         d="m 0,0 -0.58,-0.693 -0.007,-0.119 c 0.1,-0.117 0.209,-0.226 0.329,-0.327 0.131,-0.109 0.27,-0.205 0.41,-0.285 l 0.125,0.019 0.579,0.692 -0.012,0.077 C 0.691,-0.553 0.549,-0.457 0.414,-0.342 0.287,-0.237 0.177,-0.118 0.068,0 Z m 0.247,-2.302 -0.023,-0.042 -0.289,0.211 c -0.13,0.108 -0.245,0.232 -0.353,0.354 l -0.077,-0.001 -0.6,-0.718 -0.008,-0.125 c 0.105,-0.12 0.216,-0.234 0.343,-0.339 0.132,-0.114 0.276,-0.213 0.425,-0.296 l 0.131,0.023 0.566,0.675 0.221,-0.207 c 0.136,-0.114 0.278,-0.212 0.426,-0.295 l 0.131,0.02 0.598,0.717 -0.018,0.08 C 1.567,-2.157 1.42,-2.058 1.277,-1.938 1.146,-1.83 1.035,-1.707 0.924,-1.584 H 0.85 Z m 10.181,3.239 c 0.098,0.042 2.688,1.126 2.864,1.214 0.176,0.089 0.276,0.117 0.359,0.268 0.082,0.151 0.106,0.178 0.154,0.284 0.049,0.111 0.105,0.24 -0.215,0.09 C 13.383,2.696 10.84,1.625 10.621,1.536 10.402,1.449 10.335,1.407 10.285,1.258 10.238,1.111 10.211,1.032 10.201,1 10.16,0.899 10.104,0.799 10.428,0.937 M 26.21,0.748 c -0.022,0.246 -0.061,0.291 0.084,0.413 0.144,0.125 0.494,0.371 0.328,0.607 -0.164,0.236 -0.451,0.644 -0.529,0.898 -0.069,0.21 -0.127,0.387 -0.237,0.225 C 25.728,2.703 25.675,2.592 25.501,2.373 25.409,2.26 25.317,2.205 25.413,2.028 25.544,1.786 25.755,1.379 25.731,1.08 25.7,0.645 26.703,-4.583 26.622,-4.814 26.54,-5.045 24.935,-5.398 24.241,-4.839 c -0.135,0.082 -0.189,0.109 -0.217,-0.138 -0.021,-0.185 -0.125,-0.888 0.592,-1.127 -0.23,-0.542 -0.976,-1.977 -2.258,-2.501 -0.308,-0.117 -1.737,-0.574 -3.129,0.049 -0.171,0.054 -0.425,-0.082 -0.164,-0.26 0.26,-0.178 3.086,-1.553 4.743,0.164 0.224,0.225 0.925,1.318 1.259,2.473 0.149,-0.007 0.315,-0.002 0.508,0.019 0.529,0.028 1.272,0.183 1.34,0.81 0.068,0.625 0.102,1.733 -0.307,3.952 -0.134,0.76 -0.398,2.146 -0.398,2.146 m -6.93,-7.377 c 0.078,0.152 0.1,0.178 0.143,0.286 0.049,0.114 0.101,0.246 -0.215,0.086 -0.205,-0.104 -2.714,-1.25 -2.93,-1.347 -0.215,-0.095 -0.281,-0.138 -0.326,-0.289 -0.043,-0.149 -0.064,-0.229 -0.076,-0.257 -0.037,-0.104 -0.091,-0.205 0.227,-0.059 0.097,0.047 2.654,1.207 2.826,1.301 0.172,0.096 0.272,0.125 0.351,0.279 m -1.324,-2.548 c -0.598,-0.055 -4.213,-0.613 -5.816,-0.136 -1.605,0.475 -2.215,1.766 -1.834,3.806 0.367,1.628 1.229,2.443 1.994,2.937 0.433,-0.494 1.226,-1.088 2.791,-1.035 0.316,0 1.86,0.08 3.295,0.794 0.176,0.097 0.353,0.307 0.447,1.054 0.027,0.326 0.123,1.4 -0.809,2.318 -0.109,0.121 -0.162,0.128 -0.203,-0.041 -0.041,-0.17 -0.177,-0.965 -0.177,-0.965 0.3,-0.394 0.904,-1.244 0.761,-1.332 -0.144,-0.088 -2.65,-1.244 -4.763,-0.545 -0.047,0.02 -0.232,0.114 -0.465,0.25 0.242,0.131 0.42,0.241 0.485,0.371 0.185,0.358 0.437,0.885 0.048,1.164 -0.117,0.096 -0.757,0.489 -1.594,0.36 -0.838,-0.13 -1.301,-0.442 -1.586,-1.488 -0.047,-0.207 0.035,-0.284 0.153,-0.157 0.109,0.116 0.586,0.467 1.099,-0.066 -0.14,-0.13 -0.289,-0.285 -0.445,-0.494 -0.475,-0.639 -1.752,-2.324 -1.588,-4.785 0.176,-2.676 2.133,-3.899 5.041,-3.315 0.691,0.137 2.963,0.789 3.262,0.923 0.299,0.137 0.504,0.435 -0.096,0.382 m -1.109,4.952 -0.071,0.007 -0.636,-0.641 -0.019,-0.118 c 0.089,-0.125 0.189,-0.241 0.3,-0.356 0.121,-0.118 0.25,-0.226 0.385,-0.319 l 0.127,0.009 0.636,0.639 -0.007,0.079 c -0.145,0.094 -0.278,0.205 -0.403,0.33 -0.117,0.115 -0.215,0.243 -0.312,0.37 M 28.614,1.69 c -0.027,0.396 -0.088,0.741 -0.249,0.424 -0.171,-0.332 -0.257,-0.76 -0.18,-1.34 0.115,-0.993 0.237,-1.742 0.352,-2.458 0.114,-0.72 0.513,-2.869 0.532,-4.399 0.007,-0.36 0.148,-0.446 0.247,-0.189 0.175,0.444 0.233,1.689 -0.022,3.503 -0.128,0.916 -0.617,3.735 -0.68,4.459 m -6.545,0.418 c 0.099,0.045 2.674,1.164 2.847,1.257 0.174,0.09 0.275,0.119 0.356,0.273 0.081,0.151 0.103,0.177 0.15,0.285 0.046,0.113 0.101,0.242 -0.216,0.087 C 24.999,3.91 22.474,2.804 22.255,2.711 22.035,2.62 21.972,2.578 21.924,2.428 21.879,2.281 21.854,2.201 21.842,2.169 21.803,2.068 21.751,1.966 22.069,2.108 m -1.39,-3.406 c 0.09,-0.725 0.412,-2.889 0.381,-4.418 -0.01,-0.36 0.128,-0.452 0.238,-0.196 0.189,0.435 0.291,1.678 0.099,3.5 C 21.3,-1.494 20.912,1.34 20.874,2.068 20.86,2.465 20.81,2.811 20.642,2.5 20.458,2.172 20.356,1.75 20.412,1.167 c 0.081,-1 0.175,-1.748 0.267,-2.465 M 8.478,-2.955 C 8.179,-3.158 6.584,-4.084 5.606,-3.936 c -0.979,0.15 -1.414,0.763 -1.414,1.075 0,0.313 0.232,0.801 0.72,1.006 0.489,0.203 1.482,0.571 1.931,0.297 C 7.291,-1.831 7.399,-1.61 7.184,-1.394 6.966,-1.175 5.986,-0.524 5.09,-0.891 3.853,-1.463 3.703,-2.521 3.636,-3.16 3.567,-3.798 3.962,-4.33 4.424,-4.67 4.124,-4.798 2.831,-5.089 2.387,-4.434 l 0.025,0.185 C 2.426,-3.948 2.235,-3.921 2.153,-4.22 2.071,-4.521 2.027,-4.908 1.882,-5.2 1.621,-5.72 0.871,-5.316 0.562,-5.176 0.65,-4.914 0.725,-4.607 0.78,-4.252 0.813,-4.049 0.689,-3.88 0.553,-4.303 0.419,-4.718 -0.06,-5.953 -2.183,-5.242 c 0.029,0.251 0.181,0.806 -0.284,0.567 -0.503,-0.259 -1.723,-0.722 -2.429,-0.897 -0.459,-0.115 -0.531,-0.186 -0.459,-0.388 0.069,-0.205 0.193,-0.743 0.435,-0.665 0.051,0.019 0.138,0.045 0.242,0.078 -0.206,-0.547 -0.934,-2.24 -2.246,-2.778 -0.308,-0.117 -1.639,-0.488 -3.035,0.136 -0.173,0.056 -0.425,-0.082 -0.164,-0.26 0.261,-0.179 3.026,-1.669 4.683,0.047 0.379,0.39 0.921,1.642 1.275,2.985 l -0.001,0.032 c 0.281,0.09 0.528,0.17 0.528,0.17 0.151,0.053 0.756,0.311 1.09,0.457 1.037,-0.765 2.037,-1.029 2.694,-0.214 0.82,-0.755 1.415,-0.592 1.668,-0.205 0.107,0.163 0.225,0.468 0.328,0.795 0.337,-0.263 1.059,-0.904 3.083,0.061 0.585,0.258 3.13,1.456 3.13,1.456 0.123,0.313 0.421,1.115 0.123,0.91 M -2.987,0.216 C -2.888,0.257 1.364,2.03 1.538,2.12 1.712,2.208 1.813,2.236 1.897,2.388 1.981,2.538 2.001,2.564 2.048,2.668 2.099,2.782 2.155,2.912 1.835,2.761 1.629,2.663 -2.575,0.903 -2.794,0.813 -3.013,0.724 -3.079,0.682 -3.127,0.535 -3.175,0.387 -3.199,0.308 -3.213,0.276 -3.253,0.177 -3.308,0.075 -2.987,0.216 M 4.027,0.504 C 4.123,0.555 7.122,1.77 7.285,1.875 7.451,1.98 7.55,2.021 7.617,2.178 7.687,2.335 7.703,2.365 7.741,2.475 7.78,2.59 7.823,2.725 7.52,2.542 7.324,2.428 4.372,1.229 4.162,1.12 3.952,1.008 3.891,0.961 3.857,0.809 3.824,0.656 3.808,0.576 3.798,0.544 3.768,0.44 3.723,0.333 4.027,0.504 M -7.819,-4.173 c 0.091,0.059 3.401,1.414 3.56,1.525 0.16,0.113 0.259,0.155 0.32,0.315 0.061,0.162 0.077,0.19 0.109,0.301 0.033,0.118 0.071,0.256 -0.224,0.061 -0.19,-0.126 -3.453,-1.462 -3.659,-1.581 -0.203,-0.12 -0.264,-0.168 -0.289,-0.323 -0.028,-0.153 -0.041,-0.235 -0.049,-0.266 -0.026,-0.106 -0.065,-0.213 0.232,-0.032 m 32.276,3.84 c 0.054,-0.135 0.098,-0.29 0.091,-0.379 -0.211,-0.205 -0.439,-0.238 -0.605,-0.102 -0.105,0.087 -0.145,0.252 -0.134,0.467 0.005,0.155 0.025,0.213 -0.112,0.104 -0.176,-0.144 -0.129,-0.131 -0.138,-0.211 -0.063,-0.507 -0.281,-0.735 -0.672,-0.762 -0.246,-0.017 -0.427,0.154 -0.255,0.642 0.036,0.104 -0.037,0.214 -0.146,0 -0.368,-0.734 -0.143,-1.141 0.232,-1.197 0.304,-0.045 0.669,0.128 0.853,0.592 0.142,-0.235 0.43,-0.304 0.689,-0.236 0.332,0.087 0.405,0.241 0.499,0.51 0.093,0.259 0.095,0.604 -0.03,1.014 -0.02,0.071 -0.057,0.033 -0.073,-0.002 l -0.177,-0.336 c -0.022,-0.037 -0.038,-0.063 -0.022,-0.104 m 18.118,1.175 c -0.159,0.099 -0.157,0.215 -0.085,0.325 0.239,0.369 0.411,0.358 0.569,0.187 0.254,-0.325 0.197,-0.865 0.17,-0.965 0,0 -0.494,0.355 -0.654,0.453 m 0.634,-1.211 c 0.341,-0.159 0.485,-0.52 0.531,-0.387 0.128,0.377 0.172,0.589 0.075,0.694 -0.072,0.074 -0.317,0.259 -0.317,0.259 0.09,0.212 0.275,0.958 -0.032,1.553 -0.075,0.127 -0.378,0.6 -1.014,-0.114 -0.247,-0.273 -0.565,-0.971 -0.314,-1.224 0.251,-0.251 0.801,-0.606 0.801,-0.606 -0.288,-0.494 -0.982,-0.934 -1.887,-1.578 -0.59,-0.422 -0.369,-0.567 -0.113,-0.444 1.71,0.809 2.003,1.285 2.27,1.847 m -9.808,1.226 c -0.159,0.1 -0.158,0.216 -0.085,0.327 0.239,0.368 0.412,0.357 0.569,0.186 0.255,-0.327 0.197,-0.866 0.17,-0.965 0,0 -0.493,0.355 -0.654,0.452 m 0.634,-1.211 c 0.341,-0.158 0.486,-0.521 0.531,-0.387 0.129,0.378 0.173,0.59 0.076,0.694 -0.072,0.075 -0.318,0.258 -0.318,0.258 0.09,0.213 0.276,0.958 -0.032,1.555 -0.075,0.128 -0.378,0.6 -1.013,-0.115 -0.248,-0.274 -0.566,-0.97 -0.315,-1.223 0.251,-0.251 0.802,-0.606 0.802,-0.606 -0.288,-0.494 -0.983,-0.934 -1.888,-1.578 -0.59,-0.422 -0.369,-0.567 -0.112,-0.445 1.71,0.809 2.003,1.284 2.269,1.847 m 4.569,1.33 c 0.035,0.01 0.077,0.005 0.12,0.045 0.139,0.132 0.256,0.479 0.269,0.598 -0.014,0.09 -0.341,0.123 -0.434,0.146 -0.323,0.077 -0.629,0.247 -0.964,0.268 -0.518,0.032 -0.996,-0.2 -1.263,-0.744 -0.029,-0.07 -0.072,-0.165 -0.101,-0.236 -0.032,-0.12 0.03,-0.2 0.092,-0.108 0.072,0.107 0.16,0.212 0.272,0.279 0.264,0.161 0.546,0.222 0.833,0.194 C 37.688,1.393 38.177,1.21 38.176,1.185 38.172,1.127 37.037,0.566 36.86,0.456 36.783,0.407 36.688,0.317 36.705,0.229 c 0.014,-0.068 0.122,-0.083 0.215,-0.05 0.446,0.162 0.606,0.15 0.967,0.303 0.486,0.209 0.631,0.469 0.717,0.494 m -5.909,-6.81 c -0.068,-0.145 -0.157,-0.395 -0.21,-0.54 -0.017,-0.051 0.023,-0.114 0.086,-0.077 0.361,0.221 0.9,0.493 1.471,0.696 0.52,0.184 0.928,0.303 1.305,0.324 0.057,0.009 0.366,0.551 0.413,0.629 0.064,0.102 0.017,0.134 -0.064,0.118 -0.437,-0.084 -0.777,-0.161 -1.306,-0.112 -0.655,0.058 -1.165,0.557 -1.148,0.753 0.015,0.149 0.479,0.447 0.652,0.419 0.501,-0.077 0.492,-0.519 0.627,-0.523 0.161,-0.006 0.489,0.572 0.508,0.73 0.022,0.17 -0.321,0.581 -0.648,0.6 -0.538,0.033 -1.45,-0.879 -1.809,-1.441 -0.13,-0.206 -0.117,-0.523 0.07,-0.684 0.166,-0.141 0.439,-0.291 0.749,-0.478 -0.152,-0.055 -0.548,-0.286 -0.696,-0.414 m 18.462,2.793 c -0.09,0.85 -0.449,3.473 -0.483,4.146 -0.014,0.37 -0.061,0.688 -0.219,0.404 -0.168,-0.305 -0.262,-0.698 -0.208,-1.236 0.073,-0.925 0.16,-1.62 0.244,-2.284 0.083,-0.673 0.382,-2.675 0.352,-4.093 -0.006,-0.332 0.12,-0.417 0.222,-0.178 0.175,0.402 0.269,1.552 0.092,3.241 m -4.303,-4.394 c -0.118,0.116 -0.218,0.245 -0.315,0.372 l -0.069,0.005 -0.637,-0.64 -0.018,-0.117 c 0.088,-0.125 0.188,-0.243 0.298,-0.354 0.121,-0.123 0.251,-0.228 0.386,-0.322 l 0.125,0.01 0.638,0.639 -0.006,0.078 c -0.146,0.095 -0.279,0.202 -0.402,0.329 m 2.967,3.1 c -0.434,0.027 -2.445,0.064 -3.624,0.715 0.117,0.099 0.372,0.428 0.281,1.252 -0.089,0.824 -0.419,3.18 -0.419,3.18 -0.027,0.246 -0.127,0.481 0.013,0.606 0.141,0.128 0.436,0.343 0.266,0.576 -0.17,0.232 -0.462,0.673 -0.547,0.923 -0.071,0.21 -0.134,0.387 -0.24,0.221 C 45.426,2.947 45.382,2.703 45.213,2.481 45.125,2.365 45.033,2.308 45.134,2.132 45.27,1.894 45.405,1.458 45.432,1.16 c 0.011,-0.158 0.056,-0.495 0.101,-0.817 0,0 0.576,-2.976 0.53,-3.459 0,0 -2.382,-0.084 -2.692,-0.385 l -0.477,-0.742 c -0.04,-0.082 -0.037,-0.173 0.077,-0.154 0.113,0.019 1.578,0.488 3.634,-0.336 -0.243,-0.084 -2.959,-1.246 -5.252,-0.986 -0.344,0.009 -2.755,0.325 -2.955,1.548 -0.027,0.154 -0.067,0.211 -0.149,0.055 -0.073,-0.139 -0.742,-1.137 0.309,-1.853 -0.333,-0.703 -0.927,-1.657 -1.833,-2.031 -0.297,-0.11 -1.621,-0.45 -2.958,0.149 -0.165,0.054 -0.408,-0.079 -0.159,-0.25 0.251,-0.171 2.696,-1.734 4.283,-0.089 0.28,0.287 0.757,1.057 1.12,1.978 1.626,-0.884 4.33,-0.398 4.33,-0.398 0.588,0.125 1.204,0.298 1.842,0.545 0.335,0.137 2.635,1.178 4.194,0.814 0.325,-0.081 0.4,-0.081 0.4,-0.081 0,0 0.281,0.599 0.344,0.743 0.063,0.145 0.136,0.227 -0.3,0.254 m -11.548,2.897 c 0.125,-0.125 0.258,-0.234 0.404,-0.333 l 0.006,-0.077 -0.637,-0.637 -0.126,-0.01 c -0.135,0.092 -0.264,0.201 -0.386,0.321 -0.11,0.112 -0.21,0.23 -0.298,0.355 l 0.017,0.117 0.638,0.64 0.07,-0.005 c 0.096,-0.127 0.196,-0.256 0.312,-0.371"
         style="fill:#231f20;fill-opacity:1;fill-rule:nonzero;stroke:none"
         transform="matrix(1.3333333,0,0,-1.3333333,405.9948,45.823067)"
         clip-path="url(#clipPath46)"
         id="path47" />
    </g>
  </g>
</svg>
