<?xml version="1.0" encoding="UTF-8" standalone="no"?>
<!-- Created with Inkscape (http://www.inkscape.org/) -->

<svg
   width="24.320633mm"
   height="6.9146843mm"
   viewBox="0 0 24.320632 6.9146841"
   version="1.1"
   id="svg1"
   xml:space="preserve"
   xmlns="http://www.w3.org/2000/svg"
   xmlns:svg="http://www.w3.org/2000/svg"><defs
     id="defs1" /><g
     id="layer1"
     transform="translate(-277.74501,-19.877882)"><g
       id="g43"
       transform="translate(225.9146,-44.706968)"><path
         d="m 55.457154,67.14972 -0.20461,0.244475 -0.002,0.04198 c 0.0353,0.04128 0.0737,0.07973 0.11606,0.115359 0.0462,0.03845 0.0953,0.07232 0.14464,0.100541 l 0.0441,-0.0067 0.20426,-0.244123 -0.004,-0.02716 c -0.054,-0.02928 -0.10407,-0.06315 -0.15169,-0.103717 -0.0445,-0.03704 -0.0836,-0.07902 -0.12206,-0.12065 z m 0.0871,0.812094 -0.008,0.01482 -0.10195,-0.07444 c -0.0459,-0.0381 -0.0864,-0.08184 -0.12453,-0.124883 l -0.0272,3.52e-4 -0.21166,0.253295 -0.003,0.0441 c 0.037,0.04233 0.0762,0.08255 0.12101,0.119592 0.0466,0.04022 0.0974,0.07479 0.14993,0.104422 l 0.0462,-0.0081 0.19967,-0.238125 0.078,0.07302 c 0.048,0.03986 0.0981,0.07479 0.15028,0.104069 l 0.0462,-0.0071 0.21097,-0.252942 -0.006,-0.02822 c -0.054,-0.03105 -0.10584,-0.06632 -0.15629,-0.108303 -0.0462,-0.0381 -0.0854,-0.08149 -0.12453,-0.124883 h -0.0261 z m 2.90336,0.220839 c -0.10548,0.07197 -0.66816,0.398639 -1.01317,0.346428 -0.34537,-0.05292 -0.49883,-0.26917 -0.49883,-0.378883 0,-0.11042 0.0818,-0.282928 0.254,-0.354895 0.17251,-0.07161 0.52282,-0.201789 0.68121,-0.105128 0.15805,0.09596 0.19615,0.0187 0.1203,-0.05785 -0.0769,-0.07691 -0.42263,-0.306211 -0.73872,-0.177447 -0.43638,0.201789 -0.4893,0.57538 -0.51294,0.800452 -0.0243,0.225425 0.11501,0.412398 0.27799,0.533048 -0.10583,0.04515 -0.56197,0.147461 -0.7186,-0.08361 l 0.009,-0.06562 c 0.005,-0.105481 -0.0624,-0.115006 -0.0914,-0.0095 -0.0289,0.105833 -0.0444,0.242358 -0.0956,0.345369 -0.0921,0.183797 -0.3563,0.04163 -0.46566,-0.0081 0.031,-0.09313 0.0575,-0.200378 0.0769,-0.325967 0.0116,-0.07161 -0.0321,-0.131586 -0.0801,0.01799 -0.0473,0.146403 -0.21625,0.581731 -0.9652,0.330906 0.0102,-0.08855 0.0639,-0.284339 -0.10019,-0.199673 -0.17745,0.09102 -0.60783,0.255059 -0.85654,0.316442 -0.16228,0.04057 -0.18768,0.06562 -0.16228,0.136878 0.0243,0.07161 0.0681,0.261761 0.15346,0.233892 0.018,-0.0056 0.0487,-0.01587 0.0854,-0.02716 -0.0727,0.193322 -0.32949,0.790222 -0.79234,0.980016 -0.10865,0.04163 -0.5782,0.172509 -1.07068,-0.04727 -0.0607,-0.02011 -0.14993,0.02822 -0.0578,0.09102 0.0921,0.0635 1.0675,0.588786 1.65205,-0.01623 0.13371,-0.137583 0.32491,-0.579261 0.4498,-1.053394 l -3.6e-4,-0.01094 c 0.0991,-0.03175 0.18627,-0.05997 0.18627,-0.05997 0.0533,-0.01905 0.2667,-0.109714 0.38453,-0.161219 0.36583,0.270228 0.71861,0.362655 0.95038,0.07549 0.28928,0.265995 0.49918,0.209197 0.58843,0.07232 0.0377,-0.0575 0.0794,-0.165453 0.11571,-0.280459 0.11924,0.09243 0.3736,0.318559 1.08762,-0.02152 0.20637,-0.09102 1.10419,-0.513997 1.10419,-0.513997 0.0434,-0.110067 0.14852,-0.393348 0.0434,-0.321381 m -4.04459,-1.117953 c 0.0349,-0.01446 1.53493,-0.639938 1.59596,-0.671688 0.0617,-0.03104 0.0974,-0.04092 0.127,-0.09419 0.0296,-0.05327 0.0367,-0.06279 0.0533,-0.09948 0.018,-0.03986 0.0377,-0.08573 -0.0751,-0.03246 -0.0727,0.03457 -1.55575,0.655461 -1.63301,0.686858 -0.0773,0.03175 -0.10054,0.04657 -0.11747,0.09843 -0.0169,0.05256 -0.0254,0.08008 -0.0303,0.09102 -0.0141,0.03528 -0.0335,0.07126 0.0797,0.02152 m 2.47438,-0.1016 c 0.0339,-0.01764 1.09185,-0.446616 1.15006,-0.484363 0.0579,-0.03669 0.0928,-0.0508 0.11641,-0.106187 0.0247,-0.05574 0.0303,-0.06597 0.0438,-0.104775 0.0138,-0.04057 0.0289,-0.08819 -0.078,-0.02434 -0.0691,0.04092 -1.11054,0.46355 -1.18427,0.502355 -0.0741,0.03916 -0.096,0.05574 -0.10795,0.110067 -0.0116,0.05362 -0.0173,0.08184 -0.0208,0.09278 -0.0106,0.03669 -0.0264,0.07408 0.0808,0.01446 m -4.179,1.649942 c 0.0321,-0.02081 1.19979,-0.498828 1.25588,-0.537633 0.0564,-0.04057 0.0914,-0.05503 0.11289,-0.112184 0.0215,-0.05644 0.0272,-0.06668 0.0385,-0.105833 0.0116,-0.04163 0.025,-0.08996 -0.079,-0.02117 -0.067,0.04445 -1.21814,0.515409 -1.29081,0.557742 -0.0716,0.04198 -0.0931,0.05927 -0.10195,0.113242 -0.01,0.05503 -0.0145,0.08361 -0.0173,0.09419 -0.009,0.0374 -0.0229,0.0755 0.0819,0.01164 m 10.35155,-0.230717 c 0.13688,-0.06773 0.23813,-0.04904 0.29563,0.05786 0.0568,0.106892 0.17533,0.341842 0.0794,0.316089 -0.0871,-0.02328 -0.4191,-0.100189 -0.50483,-0.224367 0.0487,-0.07408 0.0924,-0.13088 0.12982,-0.149578 m -0.32773,0.4699 0.0236,0.0314 c 0.13053,0.09948 0.56903,0.255763 0.66146,0.255763 0.0928,0.0011 0.10512,0.0095 0.1397,-0.06879 0.0342,-0.07938 0.078,-0.179564 0.0818,-0.246592 0.004,-0.06632 0.008,-0.473428 -0.055,-0.643467 -0.0504,-0.16263 -0.26247,-0.258938 -0.387,-0.160161 -0.28293,0.255059 -0.37288,0.464609 -0.47202,0.591609 -0.0861,0.110419 -0.36159,0.436386 -0.76341,0.217311 0.0395,-0.10795 0.0642,-0.194734 0.0737,-0.246945 0.0243,-0.12453 -0.0787,-0.100189 -0.10371,-0.01199 -0.0247,0.0889 -0.1076,0.292805 -0.14958,0.390525 -0.0917,0.217311 -0.37077,0.0032 -0.44626,-0.06809 0.0381,-0.07796 0.072,-0.166864 0.0959,-0.270228 0.0176,-0.07161 -0.0381,-0.161925 -0.0998,-0.01517 -0.061,0.145697 -0.30234,0.567266 -0.93487,0.323144 -0.0614,-0.172861 -0.13229,-0.329142 -0.13229,-0.329142 -0.0307,-0.07161 -0.0617,-0.119239 -0.0825,-0.0822 -0.0212,0.0374 -0.11253,0.335845 -0.11253,0.335845 0.0713,0.127352 0.32667,0.805391 0.28328,0.912988 -0.0427,0.108303 -0.37324,0.639234 -1.21285,0.501298 -0.0871,-0.01446 -0.93098,-0.231775 -0.39441,-1.16452 0.0194,-0.03422 -0.0102,-0.109361 -0.0744,-0.03422 -0.0825,0.09631 -0.635,1.196975 0.23212,1.5113 0.14676,0.05362 0.81563,0.191911 1.36984,-0.320675 0.0621,-0.05715 0.248,-0.343959 0.21696,-0.899584 0.10301,0.0081 0.42192,0.01129 0.67063,-0.227894 0.0949,0.197203 0.32314,0.279047 0.3944,0.291042 0.0748,0.01235 0.1076,0.01517 0.1524,-0.05786 0.0388,-0.06632 0.0737,-0.131586 0.10548,-0.195086 0.21732,0.110419 0.41134,0.128058 0.6343,0.0095 0.10089,-0.06209 0.1972,-0.192617 0.28504,-0.329142 m 1.18886,0.6858 c -0.0113,0.03916 -0.0173,0.04868 -0.0395,0.105128 -0.0222,0.05715 -0.0568,0.07161 -0.11359,0.11042 -0.0565,0.04022 -1.13242,0.457905 -1.16487,0.477661 -0.10548,0.06279 -0.0914,0.0254 -0.0815,-0.01199 0.002,-0.01129 0.008,-0.03986 0.0176,-0.09454 0.01,-0.05398 0.0314,-0.07091 0.10372,-0.112184 0.0727,-0.04198 1.13206,-0.452613 1.19944,-0.496711 0.10513,-0.06809 0.0914,-0.0194 0.0787,0.02222 m 0.61101,-3.3782 c 0.004,-0.01094 0.0117,-0.03845 0.0268,-0.09278 0.0152,-0.05221 0.0381,-0.06738 0.11394,-0.100895 0.0766,-0.03528 1.06398,-0.43568 1.1363,-0.472722 0.11042,-0.05715 0.0917,-0.01058 0.0759,0.02963 -0.0152,0.03739 -0.0215,0.04727 -0.049,0.100894 -0.0279,0.05433 -0.0628,0.06632 -0.12347,0.09984 -0.0603,0.03351 -1.06574,0.439208 -1.09961,0.455789 -0.11148,0.05292 -0.0938,0.01658 -0.0808,-0.01976 m 3.43253,2.808817 c -0.0236,0.05151 -0.0797,0.166158 -0.13723,0.242358 -0.77681,-0.147461 -1.35819,0.236361 -1.46367,0.291042 -0.66499,0.265289 -1.20862,0.326319 -1.33633,0.319617 -0.81844,-0.01658 -0.80574,-0.844198 -0.82444,-0.962025 -0.0197,-0.118534 -0.34572,-2.084564 -0.38699,-2.218267 l 0.0769,-0.266347 c 0.0127,-0.0254 0.0219,-0.07973 0.0508,-0.02963 0.0924,0.1651 0.37712,2.252133 0.48578,2.635602 0.26529,1.032228 2.17346,0.115359 2.26024,0.07585 -0.91581,-0.330905 -1.30563,-0.146755 -1.35819,-0.126647 -0.0526,0.0194 -0.0677,0.01023 -0.0526,-0.04022 0.0152,-0.04974 0.12276,-0.26035 0.18203,-0.306564 0.16651,-0.104423 0.84984,-0.08043 0.89358,-0.149578 0.0159,-0.03281 -0.30515,-1.612194 -0.31361,-1.673578 -0.0166,-0.116416 -0.0963,-0.269875 -0.15558,-0.360186 -0.043,-0.06668 -0.009,-0.09102 0.0229,-0.138642 0.061,-0.09102 0.0783,-0.135819 0.12241,-0.21343 0.0381,-0.06738 0.0674,0 0.0998,0.08043 0.0395,0.09596 0.16475,0.246592 0.23636,0.334081 0.0723,0.08678 -0.0568,0.195086 -0.10901,0.248355 -0.0522,0.05292 -0.0356,0.06809 -0.0201,0.163689 0,0 0.21378,0.915811 0.24094,1.067506 0.0861,0.408516 -0.013,0.645583 -0.0515,0.719314 0.50517,0.195086 1.36525,0.217663 1.46755,0.217663 0.10196,0 0.0889,0.04763 0.0699,0.08961 m -7.75052,-1.486958 c 0.005,-0.01164 0.0123,-0.03916 0.0282,-0.09278 0.0155,-0.05186 0.0388,-0.06703 0.115,-0.09984 0.0766,-0.03387 1.54411,-0.688975 1.61643,-0.725664 0.11183,-0.05539 0.0928,-0.0088 0.0755,0.03069 -0.0155,0.03704 -0.0219,0.04763 -0.0501,0.100542 -0.0282,0.05433 -0.0642,0.06526 -0.12453,0.09737 -0.061,0.03422 -1.54587,0.693561 -1.58009,0.709789 -0.11218,0.05221 -0.0938,0.01552 -0.0804,-0.02011 m 5.29907,-0.01693 -0.0251,-0.0025 -0.22436,0.226131 -0.006,0.04163 c 0.031,0.0441 0.066,0.08502 0.10512,0.125236 0.043,0.04198 0.0889,0.08008 0.13618,0.112184 l 0.0445,-0.0025 0.22436,-0.225425 -0.002,-0.02787 c -0.0508,-0.03316 -0.0977,-0.07232 -0.14147,-0.116417 -0.0416,-0.04057 -0.0769,-0.08573 -0.11077,-0.130528 m 2.70722,-1.005769 c -0.01,-0.153106 -0.0307,-0.284692 -0.0822,-0.163689 -0.0554,0.128058 -0.0829,0.291747 -0.0571,0.515056 0.0381,0.383116 0.0783,0.669572 0.11677,0.94368 0.0385,0.277636 0.17004,1.104195 0.1785,1.691217 0.002,0.138641 0.048,0.172508 0.0804,0.07302 0.0561,-0.170039 0.0741,-0.6477 -0.0109,-1.3462 -0.0423,-0.351367 -0.20461,-1.434042 -0.22542,-1.713089 m 4.78049,0.384528 c -0.0557,-0.03492 -0.055,-0.0755 -0.0296,-0.115006 0.084,-0.129822 0.145,-0.125941 0.20074,-0.06562 0.0896,0.115005 0.0695,0.305505 0.0596,0.340783 0,0 -0.17391,-0.125589 -0.23071,-0.160161 m 0.22401,0.427214 c 0.1203,0.05644 0.1711,0.183797 0.18733,0.136877 0.0455,-0.132997 0.061,-0.207786 0.0265,-0.244827 -0.025,-0.02611 -0.11184,-0.09137 -0.11184,-0.09137 0.0318,-0.07479 0.097,-0.337961 -0.0113,-0.548216 -0.0265,-0.04516 -0.13335,-0.211314 -0.35737,0.04057 -0.0875,0.09631 -0.19967,0.342547 -0.11112,0.4318 0.0885,0.08819 0.28257,0.213783 0.28257,0.213783 -0.1016,0.174273 -0.34643,0.329495 -0.66569,0.557036 -0.20814,0.14852 -0.13017,0.19932 -0.0399,0.156281 0.60325,-0.28575 0.70661,-0.453319 0.8008,-0.651933 m -3.46004,-0.432506 c -0.0561,-0.03492 -0.0554,-0.07585 -0.03,-0.114653 0.0843,-0.130175 0.14499,-0.126294 0.20073,-0.06632 0.09,0.115006 0.0695,0.305506 0.06,0.340783 0,0 -0.17427,-0.125588 -0.23071,-0.159808 m 0.22366,0.427214 c 0.1203,0.05609 0.1711,0.183444 0.18732,0.136525 0.0455,-0.132997 0.061,-0.207786 0.0268,-0.244828 -0.0254,-0.0261 -0.11218,-0.09137 -0.11218,-0.09137 0.0318,-0.07479 0.0974,-0.337961 -0.0113,-0.547864 -0.0265,-0.0448 -0.13335,-0.211667 -0.35736,0.04022 -0.0875,0.09631 -0.19967,0.342547 -0.11113,0.4318 0.0885,0.08855 0.28293,0.213783 0.28293,0.213783 -0.10195,0.174272 -0.34678,0.329494 -0.66604,0.556683 -0.20814,0.148872 -0.13018,0.200025 -0.0395,0.156633 0.60325,-0.285397 0.70626,-0.453319 0.80045,-0.65158 m 1.61149,-0.468489 c 0.0127,-0.0039 0.0275,-0.0025 0.0427,-0.01658 0.049,-0.04621 0.0903,-0.168981 0.0952,-0.210609 -0.006,-0.0321 -0.12065,-0.04339 -0.15345,-0.05115 -0.11395,-0.02752 -0.2219,-0.08714 -0.34008,-0.0949 -0.18239,-0.01164 -0.35137,0.07056 -0.44556,0.262467 -0.0102,0.02469 -0.0254,0.05856 -0.0356,0.08361 -0.0113,0.04198 0.0106,0.0702 0.0325,0.03775 0.025,-0.03775 0.0564,-0.07479 0.096,-0.09843 0.0931,-0.0568 0.19262,-0.07832 0.29386,-0.06879 0.0914,0.0095 0.26423,0.07338 0.26388,0.0829 -0.001,0.0194 -0.40146,0.217663 -0.46425,0.257175 -0.0272,0.01693 -0.0607,0.04833 -0.0547,0.07973 0.005,0.02399 0.0434,0.02928 0.0758,0.01764 0.15699,-0.05715 0.21379,-0.05292 0.34114,-0.107244 0.17145,-0.07373 0.2226,-0.1651 0.25259,-0.173567 m -2.08421,2.401711 c -0.024,0.05151 -0.0554,0.139347 -0.0741,0.1905 -0.006,0.01835 0.008,0.04057 0.0303,0.02716 0.12735,-0.07761 0.3175,-0.173919 0.51894,-0.245181 0.18309,-0.06456 0.32738,-0.106891 0.46037,-0.1143 0.0201,-0.0032 0.12912,-0.19438 0.1457,-0.221897 0.0226,-0.03598 0.006,-0.04727 -0.0226,-0.04198 -0.15416,0.02963 -0.27411,0.05715 -0.46073,0.03986 -0.23106,-0.02011 -0.41098,-0.196498 -0.40498,-0.265642 0.005,-0.05292 0.16898,-0.157692 0.22965,-0.14852 0.17675,0.02787 0.17392,0.183445 0.2212,0.185562 0.0572,0.0018 0.17286,-0.202495 0.17956,-0.257528 0.008,-0.06103 -0.11324,-0.204964 -0.2286,-0.21202 -0.18979,-0.01164 -0.51153,0.310445 -0.63818,0.508353 -0.0459,0.07267 -0.0413,0.184503 0.0247,0.2413 0.0586,0.04974 0.15487,0.102658 0.26423,0.168981 -0.0536,0.0187 -0.19332,0.100189 -0.24553,0.145344 m 6.51333,-0.985308 c -0.0321,-0.299156 -0.15875,-1.224845 -0.17074,-1.462617 -0.005,-0.130175 -0.0215,-0.242711 -0.0773,-0.142169 -0.0593,0.107597 -0.0924,0.246239 -0.0734,0.43568 0.0257,0.326673 0.0564,0.571853 0.0857,0.806097 0.0296,0.237067 0.13511,0.943328 0.12453,1.443567 -0.002,0.117122 0.0423,0.147461 0.0783,0.06315 0.0617,-0.141816 0.0949,-0.547511 0.0328,-1.143705 m -1.51871,1.550105 c -0.0413,-0.04057 -0.0765,-0.08573 -0.11077,-0.13088 l -0.0243,-0.0021 -0.22472,0.225778 -0.006,0.04198 c 0.031,0.0441 0.0663,0.08502 0.10513,0.124531 0.0427,0.04304 0.0885,0.08079 0.13617,0.113242 l 0.0441,-0.0028 0.22507,-0.225777 -0.002,-0.02752 c -0.0515,-0.03351 -0.0988,-0.07161 -0.14217,-0.116417 m 1.04705,-1.093258 c -0.15311,-0.0099 -0.86254,-0.02293 -1.27847,-0.252589 0.0413,-0.03493 0.13124,-0.150636 0.0988,-0.441678 -0.031,-0.290336 -0.14746,-1.12148 -0.14746,-1.12148 -0.01,-0.08678 -0.0448,-0.170392 0.005,-0.214489 0.0498,-0.0448 0.15382,-0.120297 0.0938,-0.202494 -0.06,-0.08149 -0.16298,-0.237773 -0.19297,-0.325967 -0.025,-0.07444 -0.0469,-0.136172 -0.0847,-0.07761 -0.0441,0.06738 -0.0596,0.153458 -0.11924,0.231422 -0.0311,0.04128 -0.0635,0.06138 -0.0279,0.123119 0.0476,0.08467 0.0956,0.238125 0.10513,0.343253 0.004,0.05503 0.0197,0.174625 0.0356,0.287867 0,0 0.2032,1.050219 0.18697,1.220258 0,0 -0.84032,0.02963 -0.94968,0.136172 l -0.16863,0.261409 c -0.0141,0.02893 -0.0127,0.06068 0.0275,0.05503 0.0399,-0.0071 0.55668,-0.172861 1.282,0.118181 -0.0857,0.02963 -1.04387,0.439561 -1.85315,0.347838 -0.121,-0.0032 -0.97155,-0.115005 -1.0421,-0.5461 -0.01,-0.05468 -0.0236,-0.07444 -0.0526,-0.01975 -0.0258,0.04904 -0.26176,0.401461 0.10901,0.65405 -0.11747,0.248003 -0.32702,0.584553 -0.64664,0.715786 -0.10477,0.03951 -0.5722,0.159103 -1.04352,-0.05221 -0.0586,-0.0187 -0.14393,0.02822 -0.0561,0.08819 0.0885,0.06103 0.95109,0.61207 1.51095,0.0321 0.0988,-0.1016 0.26705,-0.373239 0.39511,-0.698147 0.57362,0.311855 1.52753,0.140405 1.52753,0.140405 0.20743,-0.0441 0.42474,-0.10548 0.64982,-0.191911 0.11818,-0.04868 0.92956,-0.415925 1.47955,-0.287514 0.115,0.02787 0.14111,0.02787 0.14111,0.02787 0,0 0.0991,-0.210608 0.12135,-0.261761 0.0222,-0.0508 0.048,-0.07973 -0.10583,-0.08925 m -4.07388,-1.021997 c 0.0441,0.0441 0.091,0.08255 0.14252,0.117122 l 0.002,0.02752 -0.22472,0.224719 -0.0444,0.0032 c -0.0476,-0.0321 -0.0931,-0.07056 -0.13617,-0.112889 -0.0388,-0.03986 -0.0741,-0.08114 -0.10513,-0.125236 l 0.006,-0.04163 0.22507,-0.225777 0.0247,0.0021 c 0.0339,0.0448 0.0695,0.08996 0.11007,0.130881"
         style="fill:#231f20;fill-opacity:1;fill-rule:nonzero;stroke:none;stroke-width:0.352778"
         clip-path="url(#clipPath1)"
         id="path31-1" /></g></g></svg>
