<?xml version="1.0" encoding="UTF-8" standalone="no"?>
<!-- Created with Inkscape (http://www.inkscape.org/) -->

<svg
   version="1.1"
   id="svg1"
   width="91.488007"
   height="19.952831"
   viewBox="0 0 91.488006 19.952831"
   xmlns="http://www.w3.org/2000/svg"
   xmlns:svg="http://www.w3.org/2000/svg">
  <defs
     id="defs1">
    <clipPath
       clipPathUnits="userSpaceOnUse"
       id="clipPath30">
      <path
         d="m 287.132,517.466 h 68.616 v -14.965 h -68.616 z"
         transform="translate(-297.3682,-512.69531)"
         id="path30" />
    </clipPath>
    <clipPath
       clipPathUnits="userSpaceOnUse"
       id="clipPath32">
      <path
         d="M 0,547.086 H 382.677 V 0 H 0 Z"
         transform="matrix(1.3333333,0,0,-1.3333333,0,729.448)"
         id="path32" />
    </clipPath>
  </defs>
  <g
     id="layer-MC1"
     transform="translate(-382.84265,-39.493523)">
    <g
       id="g31"
       clip-path="url(#clipPath32)">
      <path
         d="m 0,0 -0.58,-0.693 -0.007,-0.119 c 0.1,-0.117 0.209,-0.226 0.329,-0.327 0.131,-0.109 0.27,-0.205 0.41,-0.285 l 0.125,0.019 0.579,0.692 -0.012,0.077 C 0.691,-0.553 0.549,-0.457 0.414,-0.342 0.288,-0.237 0.177,-0.118 0.068,0 Z m 0.247,-2.302 -0.023,-0.042 -0.289,0.211 c -0.13,0.108 -0.245,0.232 -0.353,0.354 l -0.077,-0.001 -0.6,-0.718 -0.008,-0.125 c 0.105,-0.12 0.216,-0.234 0.343,-0.339 0.132,-0.114 0.276,-0.212 0.425,-0.296 l 0.131,0.023 0.566,0.675 0.221,-0.207 C 0.719,-2.88 0.861,-2.979 1.009,-3.062 l 0.131,0.02 0.598,0.717 -0.018,0.08 C 1.567,-2.157 1.42,-2.057 1.277,-1.938 1.146,-1.83 1.035,-1.707 0.924,-1.584 H 0.85 Z m 8.23,-0.626 C 8.178,-3.132 6.583,-4.058 5.605,-3.91 c -0.979,0.15 -1.414,0.763 -1.414,1.074 0,0.313 0.232,0.802 0.72,1.006 0.489,0.203 1.482,0.572 1.931,0.298 C 7.29,-1.804 7.398,-1.585 7.183,-1.368 6.965,-1.15 5.985,-0.5 5.089,-0.865 3.852,-1.437 3.702,-2.496 3.635,-3.134 3.566,-3.773 3.961,-4.303 4.423,-4.645 4.123,-4.773 2.83,-5.063 2.386,-4.408 l 0.025,0.186 c 0.014,0.299 -0.177,0.326 -0.259,0.027 -0.082,-0.3 -0.126,-0.687 -0.271,-0.979 -0.261,-0.521 -1.01,-0.118 -1.32,0.023 0.088,0.264 0.163,0.568 0.218,0.924 0.033,0.203 -0.091,0.373 -0.227,-0.051 -0.134,-0.415 -0.613,-1.649 -2.736,-0.938 0.029,0.251 0.181,0.806 -0.284,0.566 -0.503,-0.258 -1.723,-0.723 -2.428,-0.897 -0.46,-0.115 -0.532,-0.186 -0.46,-0.388 0.069,-0.203 0.193,-0.742 0.435,-0.663 0.051,0.016 0.138,0.045 0.242,0.077 -0.206,-0.548 -0.934,-2.24 -2.246,-2.778 -0.308,-0.118 -1.639,-0.489 -3.035,0.134 -0.172,0.057 -0.425,-0.08 -0.164,-0.258 0.261,-0.18 3.026,-1.669 4.683,0.046 0.379,0.39 0.921,1.642 1.275,2.986 l -10e-4,0.031 c 0.281,0.09 0.528,0.17 0.528,0.17 0.151,0.054 0.756,0.311 1.09,0.457 1.037,-0.766 2.037,-1.028 2.694,-0.214 0.82,-0.754 1.415,-0.593 1.668,-0.205 0.107,0.163 0.225,0.469 0.328,0.795 0.338,-0.262 1.059,-0.903 3.083,0.061 0.585,0.258 3.13,1.457 3.13,1.457 0.123,0.312 0.421,1.115 0.123,0.911 M -2.988,0.241 C -2.889,0.282 1.363,2.055 1.536,2.145 1.711,2.233 1.812,2.261 1.896,2.412 1.98,2.563 2,2.59 2.047,2.694 2.098,2.807 2.154,2.937 1.834,2.786 1.628,2.688 -2.576,0.928 -2.795,0.839 -3.014,0.749 -3.08,0.707 -3.128,0.56 -3.176,0.411 -3.2,0.333 -3.214,0.302 -3.254,0.202 -3.309,0.1 -2.988,0.241 M 4.026,0.529 C 4.122,0.579 7.121,1.795 7.286,1.902 7.45,2.006 7.549,2.046 7.616,2.203 7.686,2.361 7.702,2.39 7.74,2.5 7.779,2.615 7.822,2.75 7.519,2.569 7.323,2.453 4.371,1.255 4.162,1.145 3.952,1.034 3.89,0.987 3.856,0.833 3.823,0.681 3.807,0.601 3.797,0.57 3.767,0.466 3.722,0.36 4.026,0.529 M -7.82,-4.148 c 0.091,0.059 3.401,1.414 3.56,1.524 0.16,0.115 0.259,0.156 0.32,0.318 0.061,0.16 0.077,0.189 0.109,0.3 0.033,0.118 0.071,0.255 -0.224,0.06 -0.19,-0.126 -3.453,-1.461 -3.659,-1.581 -0.203,-0.119 -0.264,-0.168 -0.289,-0.321 -0.028,-0.156 -0.041,-0.237 -0.049,-0.267 -0.026,-0.106 -0.065,-0.214 0.232,-0.033 m 29.343,0.654 c 0.388,0.192 0.675,0.139 0.838,-0.164 0.161,-0.303 0.497,-0.969 0.225,-0.896 -0.247,0.066 -1.188,0.284 -1.431,0.636 0.138,0.21 0.262,0.371 0.368,0.424 m -0.929,-1.332 0.067,-0.089 c 0.37,-0.282 1.613,-0.725 1.875,-0.725 0.263,-0.003 0.298,-0.027 0.396,0.195 0.097,0.225 0.221,0.509 0.232,0.699 0.012,0.188 0.023,1.342 -0.156,1.824 -0.143,0.461 -0.744,0.734 -1.097,0.454 -0.802,-0.723 -1.057,-1.317 -1.338,-1.677 -0.244,-0.313 -1.025,-1.237 -2.164,-0.616 0.112,0.306 0.182,0.552 0.209,0.7 0.069,0.353 -0.223,0.284 -0.294,0.034 -0.07,-0.252 -0.305,-0.83 -0.424,-1.107 -0.26,-0.616 -1.051,-0.009 -1.265,0.193 0.108,0.221 0.204,0.473 0.272,0.766 0.05,0.203 -0.108,0.459 -0.283,0.043 -0.173,-0.413 -0.857,-1.608 -2.65,-0.916 -0.174,0.49 -0.375,0.933 -0.375,0.933 -0.087,0.203 -0.175,0.338 -0.234,0.233 -0.06,-0.106 -0.319,-0.952 -0.319,-0.952 0.202,-0.361 0.926,-2.283 0.803,-2.588 -0.121,-0.307 -1.058,-1.812 -3.438,-1.421 -0.247,0.041 -2.639,0.657 -1.118,3.301 0.055,0.097 -0.029,0.31 -0.211,0.097 -0.234,-0.273 -1.8,-3.393 0.658,-4.284 0.416,-0.152 2.312,-0.544 3.883,0.909 0.176,0.162 0.703,0.975 0.615,2.55 0.292,-0.023 1.196,-0.032 1.901,0.646 0.269,-0.559 0.916,-0.791 1.118,-0.825 0.212,-0.035 0.305,-0.043 0.432,0.164 0.11,0.188 0.209,0.373 0.299,0.553 0.616,-0.313 1.166,-0.363 1.798,-0.027 0.286,0.176 0.559,0.546 0.808,0.933 m 3.37,-1.944 c -0.032,-0.111 -0.049,-0.138 -0.112,-0.298 -0.063,-0.162 -0.161,-0.203 -0.322,-0.313 -0.16,-0.114 -3.21,-1.298 -3.302,-1.354 -0.299,-0.178 -0.259,-0.072 -0.231,0.034 0.007,0.032 0.022,0.113 0.05,0.268 0.027,0.153 0.089,0.201 0.294,0.318 0.206,0.119 3.209,1.283 3.4,1.408 0.298,0.193 0.259,0.055 0.223,-0.063 m 1.732,9.576 c 0.012,0.031 0.033,0.109 0.076,0.263 0.043,0.148 0.108,0.191 0.323,0.286 0.217,0.1 3.016,1.235 3.221,1.34 0.313,0.162 0.26,0.03 0.215,-0.084 C 29.488,4.505 29.47,4.477 29.392,4.325 29.313,4.171 29.214,4.137 29.042,4.042 28.871,3.947 26.021,2.797 25.925,2.75 25.609,2.6 25.659,2.703 25.696,2.806 m 9.73,-7.962 c -0.067,-0.146 -0.226,-0.471 -0.389,-0.687 -2.202,0.418 -3.85,-0.67 -4.149,-0.825 -1.885,-0.752 -3.426,-0.925 -3.788,-0.906 -2.32,0.047 -2.284,2.393 -2.337,2.727 -0.056,0.336 -0.98,5.909 -1.097,6.288 l 0.218,0.755 c 0.036,0.072 0.062,0.226 0.144,0.084 0.262,-0.468 1.069,-6.384 1.377,-7.471 0.752,-2.926 6.161,-0.327 6.407,-0.215 -2.596,0.938 -3.701,0.416 -3.85,0.359 -0.149,-0.055 -0.192,-0.029 -0.149,0.114 0.043,0.141 0.348,0.738 0.516,0.869 0.472,0.296 2.409,0.228 2.533,0.424 0.045,0.093 -0.865,4.57 -0.889,4.744 -0.047,0.33 -0.273,0.765 -0.441,1.021 -0.122,0.189 -0.025,0.258 0.065,0.393 0.173,0.258 0.222,0.385 0.347,0.605 0.108,0.191 0.191,0 0.283,-0.228 0.112,-0.272 0.467,-0.699 0.67,-0.947 C 31.102,1.702 30.736,1.395 30.588,1.244 30.44,1.094 30.487,1.051 30.531,0.78 c 0,0 0.606,-2.596 0.683,-3.026 0.244,-1.158 -0.037,-1.83 -0.146,-2.039 1.432,-0.553 3.87,-0.617 4.16,-0.617 0.289,0 0.252,-0.135 0.198,-0.254 m -21.97,4.215 c 0.013,0.033 0.035,0.111 0.08,0.263 0.044,0.147 0.11,0.19 0.326,0.283 0.217,0.096 4.377,1.953 4.582,2.057 0.317,0.157 0.263,0.025 0.214,-0.087 C 18.614,1.47 18.596,1.44 18.516,1.29 18.436,1.136 18.334,1.105 18.163,1.014 17.99,0.917 13.781,-0.952 13.684,-0.998 13.366,-1.146 13.418,-1.042 13.456,-0.941 m 15.021,0.048 -0.071,0.007 -0.636,-0.641 -0.018,-0.118 C 27.84,-1.77 27.939,-1.886 28.05,-2 c 0.122,-0.119 0.252,-0.227 0.386,-0.318 l 0.126,0.007 0.636,0.639 -0.006,0.079 c -0.144,0.094 -0.277,0.205 -0.401,0.33 -0.118,0.115 -0.218,0.243 -0.314,0.37 m 7.674,2.851 c -0.028,0.434 -0.087,0.807 -0.233,0.464 -0.157,-0.363 -0.235,-0.827 -0.162,-1.46 0.108,-1.086 0.222,-1.898 0.331,-2.675 0.109,-0.787 0.482,-3.13 0.506,-4.794 0.006,-0.393 0.136,-0.489 0.228,-0.207 0.159,0.482 0.21,1.836 -0.031,3.816 -0.12,0.996 -0.58,4.065 -0.639,4.856 m 13.551,-1.09 c -0.158,0.099 -0.156,0.214 -0.084,0.326 0.238,0.368 0.411,0.357 0.569,0.186 0.254,-0.326 0.197,-0.866 0.169,-0.966 0,0 -0.493,0.356 -0.654,0.454 m 0.635,-1.211 c 0.341,-0.16 0.485,-0.521 0.531,-0.388 0.129,0.377 0.173,0.589 0.075,0.694 -0.071,0.074 -0.317,0.259 -0.317,0.259 0.09,0.212 0.275,0.958 -0.032,1.554 C 50.519,1.904 50.216,2.375 49.581,1.661 49.333,1.388 49.015,0.69 49.266,0.437 c 0.251,-0.25 0.801,-0.606 0.801,-0.606 -0.288,-0.494 -0.982,-0.934 -1.887,-1.579 -0.59,-0.421 -0.369,-0.565 -0.113,-0.443 1.71,0.81 2.003,1.285 2.27,1.848 m -9.808,1.226 c -0.159,0.099 -0.157,0.215 -0.085,0.325 0.239,0.369 0.411,0.358 0.569,0.188 0.255,-0.326 0.197,-0.866 0.17,-0.966 0,0 -0.494,0.356 -0.654,0.453 m 0.634,-1.211 c 0.341,-0.159 0.485,-0.52 0.531,-0.387 0.129,0.377 0.173,0.589 0.076,0.694 -0.072,0.074 -0.318,0.259 -0.318,0.259 0.09,0.212 0.276,0.958 -0.032,1.553 -0.075,0.127 -0.378,0.6 -1.013,-0.114 -0.248,-0.273 -0.566,-0.971 -0.315,-1.224 0.251,-0.251 0.802,-0.606 0.802,-0.606 -0.289,-0.494 -0.983,-0.934 -1.888,-1.578 -0.59,-0.422 -0.369,-0.567 -0.112,-0.444 1.71,0.809 2.002,1.285 2.269,1.847 M 45.731,1 c 0.036,0.011 0.078,0.007 0.121,0.047 0.139,0.131 0.256,0.479 0.27,0.597 C 46.106,1.735 45.78,1.767 45.687,1.789 45.364,1.867 45.058,2.036 44.723,2.058 44.206,2.091 43.727,1.858 43.46,1.314 43.431,1.244 43.388,1.148 43.359,1.077 43.327,0.958 43.389,0.878 43.451,0.97 c 0.071,0.107 0.16,0.212 0.272,0.279 0.264,0.161 0.546,0.222 0.833,0.195 C 44.815,1.417 45.305,1.236 45.304,1.209 45.3,1.154 44.166,0.592 43.988,0.48 43.911,0.432 43.816,0.343 43.833,0.254 c 0.014,-0.068 0.123,-0.083 0.215,-0.05 0.445,0.162 0.606,0.15 0.967,0.304 0.486,0.209 0.631,0.468 0.716,0.492 m -5.908,-6.808 c -0.068,-0.146 -0.157,-0.395 -0.21,-0.54 -0.017,-0.052 0.023,-0.115 0.086,-0.077 0.361,0.22 0.9,0.493 1.471,0.695 0.519,0.183 0.928,0.303 1.305,0.324 0.057,0.009 0.366,0.551 0.413,0.629 0.064,0.102 0.017,0.134 -0.064,0.119 -0.437,-0.084 -0.777,-0.162 -1.306,-0.113 -0.655,0.057 -1.165,0.557 -1.148,0.753 0.015,0.15 0.479,0.447 0.651,0.421 0.501,-0.079 0.493,-0.52 0.627,-0.526 0.162,-0.005 0.49,0.574 0.509,0.73 0.022,0.173 -0.321,0.581 -0.648,0.601 -0.538,0.033 -1.45,-0.88 -1.809,-1.441 -0.13,-0.206 -0.117,-0.523 0.07,-0.684 0.166,-0.141 0.439,-0.291 0.749,-0.479 -0.152,-0.053 -0.548,-0.284 -0.696,-0.412 m 18.463,2.793 C 58.195,-2.167 57.836,0.457 57.802,1.131 57.788,1.5 57.741,1.819 57.583,1.534 57.415,1.229 57.321,0.836 57.375,0.299 c 0.073,-0.926 0.16,-1.621 0.243,-2.285 0.084,-0.672 0.383,-2.674 0.353,-4.092 -0.006,-0.332 0.12,-0.418 0.222,-0.179 0.175,0.402 0.269,1.552 0.093,3.242 m -4.305,-4.394 c -0.117,0.115 -0.217,0.243 -0.314,0.371 l -0.069,0.006 -0.637,-0.64 -0.018,-0.119 c 0.088,-0.125 0.188,-0.241 0.298,-0.353 0.121,-0.122 0.251,-0.229 0.386,-0.321 l 0.125,0.008 0.638,0.64 -0.006,0.078 c -0.146,0.095 -0.28,0.203 -0.403,0.33 m 2.968,3.099 c -0.434,0.028 -2.445,0.065 -3.624,0.716 0.117,0.099 0.372,0.427 0.28,1.252 -0.088,0.823 -0.418,3.179 -0.418,3.179 -0.027,0.246 -0.127,0.483 0.013,0.608 0.141,0.127 0.436,0.341 0.266,0.574 -0.17,0.231 -0.462,0.674 -0.547,0.924 -0.071,0.211 -0.133,0.386 -0.24,0.22 C 52.554,2.972 52.51,2.728 52.341,2.507 52.253,2.39 52.161,2.333 52.262,2.158 52.397,1.918 52.533,1.483 52.56,1.185 52.571,1.029 52.616,0.69 52.661,0.369 c 0,0 0.576,-2.977 0.53,-3.459 0,0 -2.382,-0.084 -2.692,-0.386 l -0.478,-0.741 c -0.04,-0.082 -0.036,-0.172 0.078,-0.156 0.113,0.02 1.578,0.49 3.634,-0.335 -0.243,-0.084 -2.959,-1.246 -5.253,-0.986 -0.343,0.009 -2.754,0.326 -2.954,1.548 -0.027,0.155 -0.067,0.211 -0.149,0.056 -0.073,-0.139 -0.742,-1.138 0.309,-1.854 -0.333,-0.703 -0.927,-1.657 -1.833,-2.029 -0.297,-0.112 -1.622,-0.451 -2.958,0.148 -0.166,0.053 -0.408,-0.08 -0.159,-0.25 0.251,-0.173 2.696,-1.735 4.283,-0.091 0.28,0.288 0.757,1.058 1.12,1.979 1.626,-0.884 4.33,-0.398 4.33,-0.398 0.588,0.125 1.204,0.299 1.842,0.544 0.335,0.138 2.635,1.179 4.194,0.815 0.326,-0.079 0.4,-0.079 0.4,-0.079 0,0 0.281,0.597 0.344,0.742 0.063,0.144 0.136,0.226 -0.3,0.253 m -11.548,2.897 c 0.125,-0.125 0.258,-0.234 0.404,-0.332 l 0.006,-0.078 -0.637,-0.637 -0.126,-0.009 c -0.135,0.091 -0.264,0.2 -0.386,0.32 -0.11,0.113 -0.21,0.23 -0.298,0.355 l 0.017,0.118 0.638,0.64 0.07,-0.006 c 0.096,-0.127 0.197,-0.255 0.312,-0.371"
         style="fill:#231f20;fill-opacity:1;fill-rule:nonzero;stroke:none"
         transform="matrix(1.3333333,0,0,-1.3333333,396.49093,45.854267)"
         clip-path="url(#clipPath30)"
         id="path31" />
    </g>
  </g>
</svg>
