<?xml version="1.0" encoding="UTF-8" standalone="no"?>
<!-- Created with Inkscape (http://www.inkscape.org/) -->

<svg
   version="1.1"
   id="svg1"
   width="90.473328"
   height="18.063675"
   viewBox="0 0 90.473327 18.063675"
   xmlns="http://www.w3.org/2000/svg"
   xmlns:svg="http://www.w3.org/2000/svg">
  <defs
     id="defs1">
    <clipPath
       clipPathUnits="userSpaceOnUse"
       id="clipPath32">
      <path
         d="m 287.893,516.049 h 67.855 v -13.548 h -67.855 z"
         transform="translate(-298.12891,-512.69531)"
         id="path32" />
    </clipPath>
    <clipPath
       clipPathUnits="userSpaceOnUse"
       id="clipPath34">
      <path
         d="M 0,547.086 H 382.677 V 0 H 0 Z"
         transform="matrix(1.3333333,0,0,-1.3333333,0,729.448)"
         id="path34" />
    </clipPath>
  </defs>
  <g
     id="layer-MC1"
     transform="translate(-383.85733,-41.382679)">
    <g
       id="g33"
       clip-path="url(#clipPath34)">
      <path
         d="m 0,0 -0.58,-0.694 -0.007,-0.118 c 0.1,-0.117 0.209,-0.227 0.329,-0.328 0.131,-0.108 0.27,-0.204 0.41,-0.284 l 0.125,0.019 0.579,0.692 -0.012,0.077 C 0.691,-0.553 0.549,-0.458 0.414,-0.342 0.288,-0.238 0.177,-0.118 0.068,0 Z m 0.248,-2.303 -0.024,-0.041 -0.289,0.211 c -0.13,0.108 -0.245,0.232 -0.353,0.354 l -0.077,-0.001 -0.6,-0.718 -0.008,-0.125 c 0.105,-0.12 0.216,-0.235 0.343,-0.34 0.133,-0.114 0.276,-0.213 0.426,-0.296 l 0.13,0.024 0.566,0.674 0.221,-0.206 C 0.719,-2.88 0.861,-2.979 1.009,-3.063 l 0.131,0.02 0.598,0.718 -0.018,0.079 c -0.153,0.089 -0.3,0.187 -0.443,0.307 -0.131,0.108 -0.242,0.231 -0.353,0.355 H 0.85 Z M 8.477,-2.928 C 8.178,-3.132 6.583,-4.058 5.605,-3.91 c -0.979,0.15 -1.414,0.763 -1.414,1.074 0,0.313 0.232,0.802 0.721,1.006 0.488,0.203 1.481,0.572 1.93,0.298 C 7.29,-1.804 7.398,-1.585 7.183,-1.368 6.965,-1.15 5.985,-0.5 5.089,-0.865 3.852,-1.437 3.703,-2.496 3.635,-3.134 3.566,-3.773 3.961,-4.303 4.423,-4.645 4.123,-4.773 2.83,-5.063 2.386,-4.408 l 0.025,0.186 c 0.014,0.299 -0.177,0.326 -0.259,0.027 -0.082,-0.3 -0.126,-0.687 -0.271,-0.979 -0.261,-0.521 -1.01,-0.118 -1.32,0.023 0.088,0.264 0.163,0.568 0.218,0.924 0.033,0.203 -0.091,0.373 -0.227,-0.051 -0.134,-0.415 -0.613,-1.649 -2.736,-0.938 0.029,0.251 0.181,0.806 -0.284,0.566 -0.503,-0.258 -1.723,-0.723 -2.428,-0.897 -0.46,-0.115 -0.532,-0.186 -0.46,-0.388 0.069,-0.203 0.193,-0.742 0.435,-0.663 0.051,0.016 0.138,0.045 0.242,0.077 -0.206,-0.548 -0.934,-2.24 -2.245,-2.778 -0.309,-0.118 -1.64,-0.489 -3.036,0.134 -0.171,0.057 -0.425,-0.08 -0.164,-0.258 0.261,-0.18 3.026,-1.669 4.683,0.046 0.379,0.39 0.921,1.642 1.275,2.986 l -10e-4,0.031 c 0.281,0.09 0.528,0.17 0.528,0.17 0.151,0.054 0.757,0.311 1.091,0.457 1.036,-0.766 2.036,-1.028 2.693,-0.214 0.82,-0.754 1.415,-0.593 1.668,-0.205 0.107,0.163 0.225,0.469 0.328,0.795 0.338,-0.262 1.06,-0.903 3.083,0.061 0.585,0.258 3.13,1.457 3.13,1.457 0.123,0.312 0.421,1.115 0.123,0.911 M -2.988,0.241 C -2.889,0.282 1.363,2.055 1.537,2.145 1.711,2.233 1.812,2.261 1.896,2.412 1.98,2.563 2,2.59 2.047,2.694 2.098,2.807 2.154,2.937 1.834,2.786 1.628,2.688 -2.576,0.928 -2.795,0.839 -3.014,0.749 -3.08,0.707 -3.128,0.56 -3.176,0.411 -3.2,0.333 -3.213,0.302 -3.254,0.202 -3.309,0.1 -2.988,0.241 M 4.026,0.529 C 4.122,0.579 7.121,1.795 7.286,1.902 7.451,2.006 7.549,2.046 7.617,2.203 7.686,2.361 7.703,2.39 7.74,2.5 7.779,2.615 7.822,2.75 7.519,2.569 7.323,2.453 4.371,1.255 4.162,1.145 3.953,1.034 3.89,0.987 3.856,0.833 3.823,0.681 3.807,0.601 3.797,0.57 3.767,0.466 3.722,0.36 4.026,0.529 M -7.82,-4.148 c 0.091,0.059 3.401,1.414 3.56,1.524 0.16,0.115 0.259,0.156 0.32,0.318 0.061,0.16 0.077,0.189 0.109,0.3 0.034,0.118 0.071,0.255 -0.224,0.06 -0.19,-0.126 -3.452,-1.461 -3.658,-1.581 -0.204,-0.119 -0.265,-0.168 -0.29,-0.321 -0.028,-0.156 -0.041,-0.237 -0.049,-0.267 -0.026,-0.106 -0.065,-0.214 0.232,-0.033 m 40.932,4.897 c -0.018,0.178 0.011,0.259 0.044,0.305 0.042,0.057 0.244,0.347 0.313,0.496 0.035,0.078 -0.03,0.27 -0.114,0.38 -0.123,0.158 -0.409,0.631 -0.441,0.769 -0.038,0.155 -0.125,0.324 -0.192,0.18 C 32.58,2.574 32.386,2.376 32.337,2.302 32.289,2.226 32.194,1.979 32.311,1.756 c 0.115,-0.225 0.218,-0.377 0.241,-0.53 0.026,-0.157 0.022,-0.428 0.091,-0.757 0.082,-0.397 0.91,-5.177 0.951,-5.427 0.042,-0.246 0.097,-0.516 -0.171,-0.584 -0.345,-0.089 -1.36,0.102 -1.569,0.143 0.088,0.302 0.147,0.545 0.163,0.629 0.04,0.22 -0.184,0.154 -0.231,0.027 -0.05,-0.127 -0.326,-0.904 -0.44,-1.26 -0.107,-0.331 -0.903,0.013 -1.196,0.139 0.212,0.382 0.261,0.729 0.286,0.842 0.072,0.325 -0.145,0.232 -0.181,0.107 -0.52,-1.389 -2.298,-1.47 -2.886,-1.418 0.279,0.325 0.495,0.758 0.566,1.347 0.027,0.207 -0.117,0.262 -0.208,0.054 -0.091,-0.207 -0.598,-1.378 -2.202,-1.406 -0.226,-0.008 -1.586,-0.036 -1.776,1.65 -0.055,0.509 -1.015,7.195 -1.115,7.43 -0.099,0.236 -0.126,0.108 -0.155,0.046 L 22.254,1.999 c 0.082,-0.471 0.626,-4.269 0.716,-4.875 0.091,-0.606 0.326,-2.374 0.417,-2.771 0.29,-1.914 1.902,-1.632 1.902,-1.632 0.11,0.004 0.544,0.036 1.029,0.224 1.781,-0.258 2.782,0.105 3.35,0.597 l 0.001,-0.023 c 0.054,-0.294 0.978,-0.614 1.199,-0.645 0.219,-0.03 0.28,-0.005 0.421,0.21 0.137,0.256 0.271,0.603 0.385,0.942 0.142,-0.089 0.438,-0.26 0.899,-0.432 0.317,-0.117 1.107,-0.33 1.258,0.017 0.152,0.344 0.366,1.228 0.135,2.343 -0.127,0.614 -0.854,4.795 -0.854,4.795 M 17.669,-1.668 c -0.059,-0.135 -0.132,-0.473 -0.19,-0.707 -0.058,-0.231 0.1,-1.149 0.121,-1.265 0.019,-0.109 -0.867,0.008 -1.238,0.132 0.069,0.229 0.116,0.487 0.133,0.784 0.013,0.204 -0.184,0.429 -0.285,-0.008 -0.096,-0.426 -0.549,-1.686 -2.361,-1.362 -0.204,0.406 -0.408,0.745 -0.408,0.745 -0.107,0.189 -0.207,0.312 -0.254,0.202 -0.047,-0.111 -0.209,-0.973 -0.209,-0.973 0.238,-0.334 1.162,-2.143 1.075,-2.459 -0.085,-0.317 -0.841,-1.901 -3.227,-1.778 -0.248,0.014 -2.672,0.356 -1.467,3.128 0.044,0.1 -0.062,0.299 -0.216,0.07 -0.202,-0.296 -1.399,-3.538 1.119,-4.143 0.426,-0.104 2.337,-0.283 3.723,1.321 0.16,0.186 0.616,1.103 0.29,2.754 0.296,0.033 1.079,0.178 1.635,0.849 0.263,-0.207 0.776,-0.351 1.126,-0.391 0.405,-0.048 0.511,0.117 0.786,0.565 0.406,1.001 0.157,2.125 0.04,2.431 -0.114,0.306 -0.135,0.242 -0.193,0.105 M 25.44,0.44 c 0.101,0.045 4.984,2.108 5.156,2.199 0.174,0.09 0.274,0.121 0.357,0.272 0.082,0.151 0.101,0.177 0.148,0.284 0.049,0.113 0.105,0.242 -0.214,0.089 C 30.681,3.185 25.848,1.134 25.629,1.042 25.411,0.952 25.346,0.911 25.299,0.76 25.25,0.611 25.229,0.532 25.216,0.501 25.176,0.402 25.124,0.298 25.44,0.44 m -3.298,-7.975 c -0.206,-0.099 -2.736,-1.202 -2.954,-1.295 -0.217,-0.091 -0.282,-0.133 -0.33,-0.282 -0.047,-0.147 -0.07,-0.227 -0.082,-0.259 -0.041,-0.1 -0.091,-0.202 0.225,-0.061 0.101,0.044 2.678,1.161 2.85,1.252 0.173,0.09 0.275,0.12 0.356,0.272 0.083,0.152 0.104,0.177 0.149,0.283 0.048,0.115 0.104,0.244 -0.214,0.09 m 13.312,8.924 c -0.026,0.365 -0.085,0.686 -0.23,0.393 -0.161,-0.309 -0.239,-0.705 -0.167,-1.243 0.105,-0.92 0.217,-1.611 0.324,-2.273 0.107,-0.668 0.473,-2.661 0.495,-4.074 0.004,-0.337 0.135,-0.416 0.228,-0.176 0.161,0.41 0.214,1.562 -0.023,3.244 -0.118,0.847 -0.569,3.455 -0.627,4.129 M 21.421,-6.449 c 0.13,0.04 0.247,0.095 0.302,0.253 0.054,0.158 0.272,1.279 -0.172,2.232 -0.124,0.295 -0.739,1.444 -1.752,1.671 L 19.661,-2.402 19.627,-3.23 c 0.239,-0.09 1.165,-0.419 1.854,-1.945 0.042,-0.124 0.063,-0.289 -0.108,-0.329 -0.623,-0.137 -2.185,-0.543 -2.547,-0.433 -0.151,0.041 -0.302,0.131 -0.308,-0.062 -0.008,-0.19 -0.008,-0.855 0.239,-0.91 0.801,-0.115 2.533,0.42 2.664,0.46 m -9.256,5.644 c 0.095,0.055 3.746,1.549 3.909,1.656 0.164,0.106 0.262,0.147 0.329,0.306 0.068,0.156 0.084,0.186 0.119,0.296 0.04,0.118 0.082,0.251 -0.219,0.068 -0.197,-0.118 -3.8,-1.596 -4.008,-1.709 -0.208,-0.11 -0.271,-0.159 -0.303,-0.313 -0.032,-0.151 -0.048,-0.233 -0.057,-0.263 -0.031,-0.105 -0.073,-0.213 0.23,-0.041 m 17.509,-0.114 c 0.059,-0.147 0.108,-0.319 0.099,-0.417 -0.232,-0.226 -0.483,-0.263 -0.665,-0.112 -0.115,0.095 -0.161,0.276 -0.149,0.515 0.007,0.17 0.028,0.234 -0.122,0.114 -0.195,-0.16 -0.143,-0.145 -0.153,-0.233 -0.07,-0.559 -0.309,-0.809 -0.741,-0.839 -0.271,-0.021 -0.47,0.169 -0.281,0.705 0.04,0.116 -0.04,0.237 -0.16,0 -0.404,-0.806 -0.158,-1.256 0.255,-1.318 0.336,-0.049 0.737,0.142 0.94,0.652 0.157,-0.258 0.474,-0.334 0.759,-0.258 0.367,0.096 0.447,0.265 0.55,0.561 0.102,0.287 0.106,0.665 -0.032,1.12 -0.022,0.075 -0.063,0.033 -0.081,-0.002 l -0.196,-0.373 c -0.023,-0.039 -0.04,-0.07 -0.023,-0.115 m 19.268,1.786 c -0.159,0.099 -0.156,0.214 -0.085,0.326 0.239,0.368 0.412,0.357 0.569,0.186 0.255,-0.326 0.197,-0.866 0.17,-0.966 0,0 -0.493,0.356 -0.654,0.454 m 0.635,-1.211 c 0.34,-0.16 0.485,-0.521 0.53,-0.388 0.129,0.378 0.173,0.589 0.076,0.694 -0.072,0.074 -0.318,0.259 -0.318,0.259 0.09,0.212 0.276,0.958 -0.032,1.553 -0.075,0.129 -0.378,0.6 -1.013,-0.113 -0.248,-0.274 -0.566,-0.972 -0.315,-1.224 0.251,-0.251 0.802,-0.607 0.802,-0.607 -0.288,-0.494 -0.983,-0.934 -1.888,-1.579 -0.59,-0.421 -0.369,-0.565 -0.112,-0.443 1.71,0.81 2.003,1.285 2.27,1.848 m -9.808,1.226 c -0.16,0.099 -0.158,0.215 -0.085,0.326 0.238,0.369 0.411,0.357 0.568,0.187 0.255,-0.326 0.197,-0.866 0.17,-0.966 0,0 -0.493,0.356 -0.653,0.453 m 0.633,-1.211 c 0.342,-0.159 0.486,-0.52 0.532,-0.387 0.129,0.377 0.172,0.589 0.075,0.694 -0.071,0.074 -0.318,0.259 -0.318,0.259 0.09,0.212 0.276,0.958 -0.031,1.553 -0.076,0.127 -0.379,0.6 -1.014,-0.114 -0.248,-0.273 -0.566,-0.971 -0.315,-1.224 0.251,-0.25 0.802,-0.606 0.802,-0.606 -0.288,-0.494 -0.983,-0.934 -1.888,-1.578 -0.59,-0.422 -0.369,-0.566 -0.112,-0.444 1.71,0.809 2.003,1.285 2.269,1.847 M 44.971,1 c 0.035,0.01 0.077,0.006 0.12,0.046 0.139,0.131 0.257,0.478 0.27,0.597 -0.015,0.09 -0.341,0.123 -0.435,0.145 -0.322,0.078 -0.629,0.248 -0.964,0.269 -0.517,0.033 -0.996,-0.2 -1.263,-0.744 -0.029,-0.07 -0.072,-0.166 -0.1,-0.236 -0.033,-0.12 0.029,-0.201 0.091,-0.108 0.072,0.108 0.161,0.212 0.272,0.279 0.265,0.161 0.546,0.222 0.833,0.195 0.26,-0.026 0.749,-0.208 0.748,-0.235 C 44.539,1.153 43.405,0.591 43.228,0.479 43.15,0.431 43.056,0.342 43.072,0.253 43.086,0.185 43.195,0.17 43.287,0.203 43.733,0.365 43.894,0.354 44.254,0.507 44.74,0.716 44.885,0.975 44.971,1 m -5.908,-6.81 c -0.069,-0.145 -0.158,-0.394 -0.21,-0.539 -0.018,-0.052 0.022,-0.115 0.085,-0.077 0.361,0.219 0.9,0.493 1.472,0.695 0.519,0.184 0.927,0.303 1.304,0.324 0.057,0.009 0.366,0.551 0.413,0.629 0.064,0.102 0.018,0.134 -0.064,0.119 -0.437,-0.084 -0.777,-0.162 -1.306,-0.113 -0.654,0.058 -1.165,0.558 -1.148,0.753 0.015,0.15 0.479,0.447 0.652,0.421 0.501,-0.079 0.492,-0.52 0.627,-0.526 0.161,-0.005 0.489,0.574 0.508,0.73 0.022,0.173 -0.32,0.581 -0.648,0.601 -0.538,0.033 -1.45,-0.88 -1.809,-1.441 -0.129,-0.206 -0.117,-0.522 0.07,-0.684 0.166,-0.142 0.439,-0.291 0.749,-0.478 C 39.606,-5.45 39.21,-5.681 39.063,-5.81 m 18.461,2.794 C 57.435,-2.167 57.076,0.456 57.041,1.13 57.027,1.499 56.98,1.818 56.822,1.533 56.654,1.228 56.561,0.834 56.614,0.298 c 0.074,-0.926 0.16,-1.621 0.244,-2.285 0.083,-0.672 0.382,-2.674 0.352,-4.092 -0.006,-0.332 0.12,-0.419 0.223,-0.179 0.174,0.402 0.269,1.551 0.091,3.242 M 53.221,-7.41 c -0.117,0.115 -0.218,0.243 -0.315,0.37 l -0.069,0.007 -0.636,-0.64 -0.018,-0.119 c 0.088,-0.125 0.187,-0.241 0.297,-0.353 0.122,-0.123 0.251,-0.229 0.387,-0.321 l 0.125,0.008 0.637,0.64 -0.006,0.078 c -0.145,0.095 -0.279,0.203 -0.402,0.33 m 2.967,3.099 c -0.434,0.028 -2.444,0.065 -3.624,0.716 0.118,0.099 0.373,0.427 0.281,1.252 -0.089,0.823 -0.419,3.179 -0.419,3.179 -0.027,0.246 -0.127,0.483 0.013,0.608 0.141,0.127 0.436,0.342 0.266,0.574 C 52.536,2.25 52.244,2.691 52.158,2.941 52.087,3.153 52.024,3.328 51.918,3.162 51.793,2.971 51.749,2.727 51.58,2.506 51.493,2.389 51.4,2.332 51.501,2.157 51.637,1.917 51.772,1.482 51.799,1.184 51.811,1.028 51.855,0.689 51.9,0.368 c 0,0 0.577,-2.977 0.531,-3.459 0,0 -2.383,-0.084 -2.693,-0.386 l -0.477,-0.741 c -0.04,-0.082 -0.036,-0.172 0.077,-0.156 0.114,0.02 1.578,0.49 3.635,-0.335 -0.244,-0.084 -2.959,-1.246 -5.253,-0.986 -0.344,0.009 -2.755,0.326 -2.954,1.549 -0.028,0.154 -0.068,0.21 -0.149,0.055 -0.074,-0.139 -0.743,-1.138 0.308,-1.854 -0.333,-0.703 -0.927,-1.657 -1.833,-2.029 -0.297,-0.112 -1.621,-0.451 -2.958,0.148 -0.165,0.053 -0.407,-0.08 -0.158,-0.25 0.251,-0.173 2.695,-1.735 4.282,-0.091 0.28,0.288 0.758,1.058 1.12,1.98 1.626,-0.885 4.33,-0.399 4.33,-0.399 0.588,0.125 1.204,0.299 1.842,0.544 0.335,0.138 2.636,1.179 4.194,0.815 0.326,-0.079 0.401,-0.079 0.401,-0.079 0,0 0.28,0.597 0.343,0.742 0.063,0.144 0.136,0.226 -0.3,0.253 m -11.547,2.896 c 0.125,-0.125 0.257,-0.233 0.403,-0.331 L 45.05,-1.824 44.413,-2.461 44.287,-2.47 c -0.135,0.091 -0.264,0.2 -0.386,0.32 -0.11,0.113 -0.21,0.23 -0.297,0.355 l 0.016,0.118 0.638,0.64 0.07,-0.006 c 0.096,-0.127 0.196,-0.255 0.313,-0.372"
         style="fill:#231f20;fill-opacity:1;fill-rule:nonzero;stroke:none"
         transform="matrix(1.3333333,0,0,-1.3333333,397.5052,45.854267)"
         clip-path="url(#clipPath32)"
         id="path33" />
    </g>
  </g>
</svg>
