<?xml version="1.0" encoding="UTF-8" standalone="no"?>
<!-- Created with Inkscape (http://www.inkscape.org/) -->

<svg
   version="1.1"
   id="svg1"
   width="86.998657"
   height="18.4692"
   viewBox="0 0 86.998657 18.4692"
   xmlns="http://www.w3.org/2000/svg"
   xmlns:svg="http://www.w3.org/2000/svg">
  <defs
     id="defs1">
    <clipPath
       clipPathUnits="userSpaceOnUse"
       id="clipPath36">
      <path
         d="m 290.499,516.355 h 65.249 v -13.852 h -65.249 z"
         transform="translate(-300.73441,-512.73441)"
         id="path36" />
    </clipPath>
    <clipPath
       clipPathUnits="userSpaceOnUse"
       id="clipPath38">
      <path
         d="M 0,547.086 H 382.677 V 0 H 0 Z"
         transform="matrix(1.3333333,0,0,-1.3333333,0,729.448)"
         id="path38" />
    </clipPath>
  </defs>
  <g
     id="layer-MC1"
     transform="translate(-387.332,-40.974678)">
    <g
       id="g37"
       clip-path="url(#clipPath38)">
      <path
         d="m 0,0 -0.58,-0.694 -0.007,-0.118 c 0.1,-0.117 0.209,-0.227 0.329,-0.328 0.131,-0.108 0.27,-0.204 0.41,-0.284 l 0.125,0.019 0.579,0.692 -0.012,0.077 C 0.691,-0.553 0.549,-0.458 0.414,-0.342 0.288,-0.238 0.177,-0.118 0.068,0 Z m 0.247,-2.303 -0.023,-0.04 -0.289,0.21 c -0.13,0.109 -0.245,0.232 -0.353,0.354 l -0.077,-0.001 -0.6,-0.718 -0.008,-0.124 c 0.105,-0.12 0.216,-0.236 0.343,-0.34 0.133,-0.114 0.276,-0.213 0.426,-0.296 l 0.13,0.023 0.566,0.675 0.221,-0.207 C 0.719,-2.88 0.861,-2.979 1.009,-3.063 l 0.131,0.02 0.598,0.719 -0.018,0.078 c -0.153,0.09 -0.3,0.188 -0.443,0.307 -0.131,0.108 -0.242,0.232 -0.353,0.356 L 0.85,-1.584 Z M 8.478,-2.965 C 8.179,-3.17 6.584,-4.095 5.606,-3.947 c -0.979,0.149 -1.414,0.763 -1.414,1.074 0,0.313 0.232,0.802 0.721,1.006 0.488,0.203 1.481,0.571 1.93,0.298 0.448,-0.272 0.556,-0.053 0.341,0.164 C 6.966,-1.187 5.986,-0.536 5.09,-0.902 3.853,-1.474 3.704,-2.533 3.636,-3.172 3.567,-3.81 3.962,-4.34 4.424,-4.681 4.124,-4.81 2.831,-5.1 2.387,-4.445 l 0.025,0.186 c 0.014,0.299 -0.177,0.327 -0.259,0.027 -0.082,-0.3 -0.126,-0.688 -0.271,-0.98 -0.261,-0.52 -1.01,-0.116 -1.32,0.024 0.088,0.264 0.163,0.569 0.218,0.925 0.033,0.202 -0.091,0.372 -0.227,-0.052 -0.134,-0.415 -0.613,-1.649 -2.736,-0.939 0.029,0.251 0.181,0.807 -0.284,0.567 -0.503,-0.258 -1.723,-0.722 -2.429,-0.897 -0.459,-0.115 -0.531,-0.186 -0.459,-0.387 0.069,-0.204 0.193,-0.743 0.435,-0.664 0.051,0.017 0.138,0.045 0.242,0.077 -0.206,-0.548 -0.934,-2.24 -2.246,-2.779 -0.308,-0.117 -1.639,-0.488 -3.035,0.136 -0.173,0.056 -0.425,-0.081 -0.164,-0.26 0.261,-0.178 3.026,-1.669 4.683,0.047 0.379,0.39 0.921,1.642 1.275,2.986 l -0.001,0.031 c 0.281,0.091 0.528,0.17 0.528,0.17 0.151,0.054 0.756,0.311 1.091,0.457 1.036,-0.765 2.036,-1.028 2.693,-0.214 0.82,-0.754 1.415,-0.592 1.668,-0.205 0.107,0.163 0.225,0.469 0.328,0.795 0.337,-0.262 1.059,-0.903 3.083,0.061 0.585,0.258 3.13,1.456 3.13,1.456 0.123,0.313 0.421,1.116 0.123,0.912 M -2.987,0.203 C -2.888,0.244 1.364,2.018 1.538,2.108 1.712,2.197 1.813,2.224 1.897,2.375 1.981,2.526 2.001,2.553 2.048,2.657 2.099,2.77 2.155,2.9 1.835,2.748 1.629,2.651 -2.575,0.891 -2.794,0.802 -3.013,0.712 -3.079,0.67 -3.127,0.523 -3.175,0.374 -3.199,0.296 -3.212,0.265 -3.253,0.164 -3.308,0.063 -2.987,0.203 M 4.027,0.492 C 4.123,0.542 7.122,1.758 7.285,1.865 7.451,1.969 7.55,2.009 7.617,2.166 7.687,2.324 7.703,2.353 7.741,2.463 7.78,2.578 7.823,2.713 7.52,2.532 7.324,2.415 4.372,1.218 4.163,1.108 3.953,0.996 3.891,0.95 3.857,0.797 3.824,0.644 3.808,0.564 3.798,0.533 3.768,0.429 3.723,0.323 4.027,0.492 M -7.819,-4.185 c 0.091,0.058 3.401,1.414 3.56,1.525 0.16,0.113 0.259,0.154 0.32,0.317 0.061,0.16 0.077,0.189 0.109,0.299 0.033,0.119 0.071,0.256 -0.224,0.061 -0.19,-0.126 -3.453,-1.461 -3.658,-1.581 -0.204,-0.119 -0.265,-0.168 -0.29,-0.321 -0.028,-0.156 -0.041,-0.237 -0.049,-0.267 -0.026,-0.106 -0.065,-0.214 0.232,-0.033 M 10.952,1.173 C 11.05,1.22 13.866,2.45 14.037,2.544 14.21,2.637 14.312,2.667 14.391,2.821 14.471,2.972 14.49,3 14.534,3.107 14.583,3.22 14.636,3.351 14.32,3.194 14.115,3.091 11.349,1.873 11.132,1.778 10.915,1.684 10.85,1.642 10.805,1.492 10.761,1.343 10.738,1.264 10.726,1.233 10.688,1.131 10.635,1.029 10.952,1.173 m 8.585,-6.889 c -0.206,-0.098 -2.744,-1.179 -2.963,-1.267 -0.219,-0.093 -0.285,-0.132 -0.333,-0.281 -0.048,-0.149 -0.072,-0.227 -0.084,-0.257 -0.041,-0.101 -0.095,-0.203 0.227,-0.063 0.098,0.042 2.684,1.136 2.856,1.225 0.176,0.091 0.279,0.12 0.361,0.27 0.082,0.15 0.102,0.177 0.149,0.282 0.051,0.113 0.108,0.243 -0.213,0.091 m 11.036,6.761 c -0.018,0.178 0.011,0.26 0.043,0.305 0.043,0.057 0.245,0.346 0.314,0.496 0.035,0.08 -0.03,0.272 -0.114,0.381 -0.124,0.16 -0.409,0.629 -0.443,0.769 C 30.336,3.149 30.25,3.319 30.183,3.174 30.041,2.869 29.847,2.674 29.797,2.598 29.75,2.522 29.653,2.276 29.77,2.051 c 0.116,-0.226 0.219,-0.377 0.243,-0.529 0.025,-0.158 0.022,-0.428 0.09,-0.758 0.082,-0.396 0.911,-5.174 0.952,-5.424 0.041,-0.248 0.095,-0.517 -0.172,-0.586 -0.345,-0.09 -1.36,0.102 -1.568,0.143 0.088,0.303 0.147,0.545 0.163,0.631 0.039,0.218 -0.185,0.154 -0.234,0.025 -0.047,-0.127 -0.323,-0.904 -0.438,-1.26 -0.106,-0.33 -0.904,0.012 -1.196,0.139 0.213,0.381 0.262,0.729 0.286,0.84 0.073,0.328 -0.144,0.236 -0.18,0.109 -0.52,-1.388 -2.297,-1.47 -2.886,-1.418 0.278,0.324 0.495,0.76 0.566,1.346 0.027,0.209 -0.119,0.264 -0.209,0.055 -0.09,-0.209 -0.598,-1.377 -2.202,-1.405 C 22.759,-6.05 21.4,-6.076 21.211,-4.39 21.155,-3.884 20.195,2.803 20.095,3.037 19.996,3.274 19.968,3.147 19.94,3.084 L 19.715,2.295 c 0.081,-0.47 0.624,-4.267 0.716,-4.875 0.09,-0.607 0.326,-2.373 0.416,-2.771 0.29,-1.912 1.903,-1.631 1.903,-1.631 0.108,0.004 0.543,0.037 1.028,0.223 1.782,-0.258 2.783,0.105 3.35,0.597 l 0.001,-0.021 c 0.053,-0.295 0.979,-0.615 1.199,-0.647 0.219,-0.031 0.281,-0.004 0.421,0.211 0.138,0.256 0.271,0.602 0.386,0.942 0.142,-0.09 0.438,-0.262 0.897,-0.432 0.319,-0.119 1.109,-0.33 1.26,0.016 0.152,0.345 0.365,1.23 0.135,2.343 -0.126,0.616 -0.854,4.795 -0.854,4.795 m 2.176,0.939 C 32.713,2.41 32.65,2.777 32.51,2.435 32.356,2.076 32.285,1.615 32.371,0.995 c 0.125,-1.064 0.251,-1.863 0.375,-2.625 0.122,-0.775 0.536,-3.072 0.586,-4.709 0.015,-0.387 0.148,-0.48 0.232,-0.2 0.153,0.478 0.179,1.812 -0.091,3.753 -0.139,0.977 -0.651,3.992 -0.724,4.77 m -15.2,-5.994 -0.07,0.004 -0.637,-0.639 -0.019,-0.117 c 0.089,-0.125 0.188,-0.244 0.298,-0.355 0.122,-0.12 0.252,-0.228 0.386,-0.32 l 0.127,0.009 0.637,0.637 -0.007,0.079 c -0.146,0.096 -0.279,0.206 -0.403,0.331 -0.118,0.114 -0.215,0.244 -0.312,0.371 m 0.359,-4.744 c -0.568,-0.052 -4.003,-0.581 -5.525,-0.128 -1.524,0.451 -2.106,1.677 -1.744,3.615 0.349,1.547 1.226,2.32 1.953,2.791 0.411,-0.471 0.83,-0.832 2.481,-0.901 0.453,0 1.728,0.032 3.243,0.786 0.166,0.089 0.334,0.176 0.424,0.886 0.028,0.31 0.117,1.329 -0.766,2.201 -0.106,0.117 -0.156,0.123 -0.195,-0.038 -0.039,-0.161 -0.168,-0.917 -0.168,-0.917 0.285,-0.375 0.859,-1.181 0.723,-1.265 -0.136,-0.084 -2.518,-1.182 -4.523,-0.516 -0.047,0.018 -0.22,0.109 -0.444,0.235 0.232,0.125 0.401,0.23 0.461,0.353 0.177,0.34 0.415,0.842 0.045,1.107 -0.11,0.09 -0.719,0.463 -1.514,0.341 -0.795,-0.124 -1.234,-0.419 -1.505,-1.411 -0.045,-0.197 0.033,-0.271 0.143,-0.152 0.107,0.112 0.558,0.444 1.044,-0.063 -0.132,-0.121 -0.271,-0.27 -0.42,-0.468 -0.451,-0.608 -1.668,-2.208 -1.511,-4.545 0.167,-2.543 2.027,-3.705 4.79,-3.151 0.658,0.129 2.815,0.749 3.098,0.878 0.285,0.13 0.48,0.414 -0.09,0.362 m 4.957,9.592 c 0.098,0.046 4.624,1.957 4.795,2.054 0.17,0.096 0.271,0.126 0.348,0.281 0.077,0.155 0.095,0.182 0.138,0.289 0.046,0.115 0.097,0.246 -0.216,0.081 C 27.727,3.44 23.25,1.544 23.033,1.446 22.819,1.347 22.755,1.303 22.712,1.153 22.671,1.003 22.648,0.923 22.638,0.892 22.602,0.789 22.551,0.685 22.865,0.838 m 4.173,-1.271 c 0.06,-0.147 0.108,-0.318 0.1,-0.414 -0.232,-0.225 -0.481,-0.262 -0.66,-0.112 -0.116,0.095 -0.161,0.275 -0.149,0.511 0.007,0.169 0.028,0.233 -0.121,0.113 -0.194,-0.158 -0.142,-0.143 -0.152,-0.231 -0.069,-0.555 -0.307,-0.803 -0.735,-0.833 -0.269,-0.02 -0.467,0.168 -0.279,0.701 0.04,0.114 -0.04,0.234 -0.159,0 -0.402,-0.801 -0.157,-1.247 0.253,-1.308 0.334,-0.049 0.73,0.14 0.933,0.647 0.156,-0.257 0.47,-0.331 0.753,-0.257 0.365,0.095 0.445,0.263 0.546,0.557 0.102,0.285 0.106,0.66 -0.032,1.111 -0.023,0.074 -0.064,0.034 -0.081,-0.002 l -0.193,-0.37 c -0.024,-0.039 -0.041,-0.067 -0.024,-0.113 m 19.299,1.262 c -0.159,0.1 -0.157,0.215 -0.085,0.327 0.238,0.368 0.411,0.357 0.568,0.186 0.255,-0.326 0.198,-0.866 0.17,-0.966 0,0 -0.493,0.356 -0.653,0.453 m 0.634,-1.21 c 0.341,-0.16 0.485,-0.521 0.531,-0.388 0.129,0.378 0.173,0.59 0.076,0.694 -0.072,0.074 -0.318,0.259 -0.318,0.259 0.09,0.212 0.275,0.958 -0.032,1.554 C 47.152,1.866 46.85,2.337 46.215,1.623 45.967,1.35 45.648,0.653 45.899,0.4 c 0.251,-0.251 0.802,-0.607 0.802,-0.607 -0.288,-0.494 -0.982,-0.933 -1.888,-1.578 -0.589,-0.422 -0.369,-0.566 -0.112,-0.444 1.709,0.809 2.002,1.285 2.27,1.848 m -9.808,1.226 c -0.159,0.1 -0.157,0.215 -0.085,0.326 0.238,0.368 0.411,0.358 0.568,0.187 0.255,-0.326 0.198,-0.866 0.17,-0.966 0,0 -0.493,0.355 -0.653,0.453 m 0.634,-1.211 c 0.341,-0.159 0.485,-0.52 0.531,-0.388 0.129,0.378 0.173,0.59 0.075,0.695 -0.071,0.074 -0.317,0.259 -0.317,0.259 0.09,0.211 0.275,0.958 -0.032,1.553 -0.075,0.128 -0.378,0.6 -1.013,-0.114 -0.248,-0.273 -0.566,-0.971 -0.315,-1.224 0.251,-0.251 0.801,-0.606 0.801,-0.606 -0.288,-0.494 -0.982,-0.934 -1.887,-1.578 -0.59,-0.422 -0.369,-0.567 -0.113,-0.445 1.71,0.81 2.003,1.286 2.27,1.848 m 4.568,1.329 c 0.035,0.01 0.077,0.006 0.12,0.046 0.14,0.131 0.257,0.479 0.271,0.597 C 42.74,1.697 42.414,1.729 42.32,1.751 41.998,1.828 41.691,1.998 41.356,2.02 40.84,2.053 40.36,1.821 40.094,1.277 40.064,1.205 40.021,1.111 39.993,1.039 39.961,0.92 40.022,0.84 40.085,0.932 c 0.071,0.107 0.159,0.212 0.271,0.279 0.265,0.16 0.546,0.222 0.833,0.195 C 41.449,1.38 41.938,1.198 41.938,1.172 41.934,1.116 40.8,0.554 40.622,0.443 40.545,0.394 40.45,0.305 40.467,0.216 40.48,0.148 40.59,0.133 40.682,0.166 c 0.446,0.161 0.606,0.151 0.966,0.304 0.487,0.209 0.631,0.468 0.717,0.493 m -5.908,-6.809 c -0.068,-0.146 -0.157,-0.395 -0.21,-0.54 -0.018,-0.052 0.023,-0.115 0.086,-0.078 0.36,0.221 0.899,0.494 1.471,0.696 0.519,0.183 0.927,0.303 1.304,0.324 0.058,0.009 0.367,0.551 0.413,0.629 0.065,0.101 0.018,0.135 -0.063,0.119 -0.437,-0.084 -0.777,-0.162 -1.307,-0.113 -0.654,0.057 -1.165,0.557 -1.147,0.754 0.015,0.149 0.478,0.446 0.651,0.42 0.501,-0.079 0.492,-0.52 0.627,-0.525 0.161,-0.006 0.489,0.572 0.509,0.73 0.022,0.172 -0.321,0.581 -0.648,0.6 -0.539,0.032 -1.451,-0.88 -1.809,-1.441 -0.131,-0.206 -0.117,-0.523 0.069,-0.684 0.166,-0.141 0.44,-0.291 0.749,-0.478 -0.151,-0.054 -0.548,-0.285 -0.695,-0.413 m 18.462,2.793 C 54.828,-2.204 54.47,0.419 54.436,1.093 54.422,1.462 54.375,1.781 54.217,1.495 54.049,1.191 53.955,0.798 54.009,0.261 c 0.073,-0.926 0.16,-1.621 0.244,-2.285 0.083,-0.672 0.382,-2.674 0.351,-4.092 -0.005,-0.332 0.121,-0.418 0.224,-0.18 0.174,0.403 0.268,1.553 0.091,3.243 m -4.304,-4.394 c -0.117,0.115 -0.218,0.244 -0.314,0.371 l -0.07,0.006 -0.636,-0.641 -0.017,-0.117 c 0.087,-0.125 0.187,-0.242 0.297,-0.353 0.121,-0.123 0.251,-0.229 0.386,-0.323 l 0.125,0.01 0.637,0.639 -0.005,0.078 c -0.146,0.096 -0.28,0.203 -0.403,0.33 m 2.968,3.1 c -0.435,0.027 -2.445,0.064 -3.624,0.715 0.117,0.099 0.372,0.427 0.28,1.251 -0.089,0.825 -0.419,3.18 -0.419,3.18 -0.026,0.246 -0.127,0.483 0.014,0.608 0.141,0.127 0.436,0.341 0.266,0.574 -0.17,0.232 -0.462,0.674 -0.547,0.924 -0.072,0.211 -0.134,0.386 -0.24,0.22 C 49.188,2.934 49.144,2.69 48.975,2.469 48.887,2.352 48.795,2.295 48.896,2.119 49.031,1.881 49.167,1.446 49.193,1.147 49.205,0.991 49.25,0.653 49.295,0.33 c 0,0 0.576,-2.976 0.53,-3.459 0,0 -2.383,-0.084 -2.692,-0.384 l -0.478,-0.743 c -0.04,-0.082 -0.037,-0.171 0.077,-0.154 0.114,0.02 1.579,0.488 3.635,-0.336 -0.243,-0.084 -2.959,-1.246 -5.253,-0.986 -0.343,0.01 -2.755,0.326 -2.954,1.549 -0.027,0.154 -0.067,0.211 -0.149,0.054 -0.073,-0.138 -0.742,-1.136 0.308,-1.853 -0.333,-0.703 -0.926,-1.656 -1.833,-2.029 -0.297,-0.112 -1.621,-0.452 -2.958,0.148 -0.165,0.053 -0.407,-0.08 -0.159,-0.25 0.252,-0.172 2.696,-1.734 4.283,-0.09 0.281,0.287 0.758,1.057 1.12,1.979 1.626,-0.885 4.331,-0.399 4.331,-0.399 0.587,0.125 1.204,0.299 1.841,0.545 0.335,0.137 2.636,1.178 4.195,0.815 0.326,-0.08 0.4,-0.08 0.4,-0.08 0,0 0.28,0.597 0.344,0.742 0.062,0.144 0.136,0.226 -0.3,0.254 m -11.548,2.896 c 0.125,-0.125 0.258,-0.234 0.403,-0.332 l 0.006,-0.078 -0.636,-0.637 -0.126,-0.009 c -0.135,0.091 -0.264,0.201 -0.386,0.32 -0.11,0.113 -0.21,0.23 -0.298,0.355 l 0.017,0.118 0.637,0.64 0.071,-0.006 c 0.095,-0.127 0.196,-0.256 0.312,-0.371"
         style="fill:#231f20;fill-opacity:1;fill-rule:nonzero;stroke:none"
         transform="matrix(1.3333333,0,0,-1.3333333,400.9792,45.802133)"
         clip-path="url(#clipPath36)"
         id="path37" />
    </g>
  </g>
</svg>
