<?xml version="1.0" encoding="UTF-8" standalone="no"?>
<!-- Created with Inkscape (http://www.inkscape.org/) -->

<svg
   width="23.357878mm"
   height="6.9146843mm"
   viewBox="0 0 23.357877 6.9146841"
   version="1.1"
   id="svg1"
   xml:space="preserve"
   xmlns="http://www.w3.org/2000/svg"
   xmlns:svg="http://www.w3.org/2000/svg"><defs
     id="defs1" /><g
     id="layer1"
     transform="translate(-200.72364,-19.877882)"><g
       id="g45"
       transform="translate(100.84813,-70.610898)"><path
         d="m 103.62951,93.031846 -0.20461,0.244828 -0.002,0.04163 c 0.0353,0.04127 0.0737,0.08008 0.11607,0.115711 0.0462,0.0381 0.0952,0.07197 0.14463,0.100189 l 0.0441,-0.0067 0.20426,-0.244122 -0.004,-0.02716 c -0.054,-0.02928 -0.10407,-0.06279 -0.1517,-0.103717 -0.0445,-0.03669 -0.0836,-0.07902 -0.12206,-0.12065 z m 0.0871,0.812447 -0.008,0.01411 -0.10195,-0.07408 c -0.0459,-0.03845 -0.0864,-0.08184 -0.12453,-0.124883 l -0.0272,3.53e-4 -0.21167,0.253294 -0.003,0.04374 c 0.037,0.04233 0.0762,0.08326 0.121,0.119945 0.0469,0.04022 0.0974,0.07514 0.15028,0.104422 l 0.0459,-0.0081 0.19967,-0.238125 0.078,0.07302 c 0.048,0.03986 0.0981,0.07479 0.15028,0.104422 l 0.0462,-0.0071 0.21096,-0.253647 -0.006,-0.02752 c -0.054,-0.03175 -0.10583,-0.06632 -0.15628,-0.108303 -0.0462,-0.0381 -0.0854,-0.08184 -0.12453,-0.125589 l -0.0261,3.53e-4 z m 2.90371,0.233539 c -0.10548,0.07232 -0.66816,0.398639 -1.01318,0.346428 -0.34537,-0.05256 -0.49882,-0.269169 -0.49882,-0.378883 0,-0.11042 0.0818,-0.282928 0.25435,-0.354895 0.17215,-0.07161 0.52246,-0.201436 0.68086,-0.105128 0.15804,0.09596 0.19614,0.0187 0.1203,-0.05785 -0.0769,-0.07691 -0.42263,-0.306564 -0.73872,-0.177447 -0.43639,0.201789 -0.48895,0.57538 -0.51294,0.800805 -0.0243,0.225072 0.11501,0.412045 0.27799,0.532342 -0.10583,0.04551 -0.56197,0.147814 -0.71861,-0.08326 l 0.009,-0.06562 c 0.005,-0.105481 -0.0624,-0.115359 -0.0914,-0.0095 -0.0289,0.105833 -0.0445,0.242711 -0.0956,0.345722 -0.0921,0.183444 -0.35631,0.04092 -0.46567,-0.0085 0.031,-0.09313 0.0575,-0.20073 0.0769,-0.326319 0.0116,-0.07126 -0.0321,-0.131234 -0.0801,0.01834 -0.0473,0.146403 -0.21625,0.581731 -0.9652,0.331259 0.0102,-0.08855 0.0639,-0.284692 -0.10019,-0.200025 -0.17745,0.09102 -0.60784,0.254705 -0.8569,0.316441 -0.16192,0.04057 -0.18732,0.06562 -0.16192,0.136525 0.0243,0.07197 0.0681,0.262114 0.15346,0.234245 0.018,-0.006 0.0487,-0.01587 0.0854,-0.02716 -0.0727,0.193322 -0.3295,0.790222 -0.79234,0.980369 -0.10866,0.04128 -0.5782,0.172156 -1.07068,-0.04798 -0.061,-0.01975 -0.149932,0.02858 -0.0579,0.09172 0.0921,0.06279 1.06751,0.588786 1.65206,-0.01658 0.1337,-0.137583 0.32491,-0.579261 0.44979,-1.053394 l -3.5e-4,-0.01094 c 0.0991,-0.0321 0.18627,-0.05997 0.18627,-0.05997 0.0533,-0.01905 0.2667,-0.109714 0.38488,-0.161219 0.36547,0.269875 0.71825,0.362655 0.95003,0.07549 0.28927,0.265995 0.49918,0.208845 0.58843,0.07232 0.0378,-0.0575 0.0794,-0.165453 0.11571,-0.280459 0.11889,0.09243 0.37359,0.318559 1.08762,-0.02152 0.20637,-0.09102 1.10419,-0.513644 1.10419,-0.513644 0.0434,-0.11042 0.14852,-0.3937 0.0434,-0.321734 m -4.0446,-1.1176 c 0.0349,-0.01446 1.53494,-0.640291 1.59632,-0.672041 0.0614,-0.0314 0.097,-0.04092 0.12665,-0.09419 0.0296,-0.05327 0.0367,-0.06279 0.0533,-0.09948 0.018,-0.03986 0.0378,-0.08573 -0.0751,-0.0321 -0.0727,0.03422 -1.55575,0.655108 -1.63301,0.686505 -0.0773,0.03175 -0.10054,0.04657 -0.11747,0.09843 -0.0169,0.05256 -0.0254,0.08008 -0.03,0.09102 -0.0145,0.03563 -0.0339,0.07126 0.0794,0.02187 m 2.47439,-0.101953 c 0.0339,-0.01764 1.09184,-0.446616 1.14935,-0.484363 0.0586,-0.03669 0.0935,-0.0508 0.11712,-0.106187 0.0247,-0.05574 0.0303,-0.06597 0.0437,-0.104775 0.0138,-0.04057 0.0289,-0.08819 -0.078,-0.02434 -0.0691,0.04128 -1.11054,0.46355 -1.18427,0.502355 -0.0741,0.03951 -0.096,0.05574 -0.10795,0.109714 -0.0117,0.05397 -0.0173,0.0822 -0.0208,0.09313 -0.0106,0.03669 -0.0265,0.07408 0.0808,0.01446 m -4.17901,1.649942 c 0.0321,-0.02046 1.1998,-0.498828 1.25589,-0.537986 0.0564,-0.03986 0.0914,-0.05433 0.11289,-0.111831 0.0215,-0.05644 0.0272,-0.06668 0.0385,-0.10548 0.0116,-0.04198 0.025,-0.09031 -0.079,-0.02152 -0.067,0.04445 -1.21814,0.515409 -1.29046,0.557742 -0.072,0.04198 -0.0935,0.05927 -0.10231,0.113242 -0.01,0.05503 -0.0145,0.08361 -0.0173,0.09419 -0.009,0.0374 -0.0229,0.0755 0.0818,0.01164 m 6.62199,-1.890183 c 0.0346,-0.01658 1.028,-0.450497 1.08832,-0.483659 0.061,-0.03281 0.097,-0.04339 0.12489,-0.09772 0.0282,-0.05327 0.0349,-0.06315 0.0504,-0.100894 0.0173,-0.03986 0.036,-0.08608 -0.0755,-0.03069 -0.0723,0.03634 -1.0481,0.466019 -1.12466,0.499533 -0.0765,0.03316 -0.0995,0.04798 -0.11535,0.100895 -0.0155,0.05256 -0.0236,0.08043 -0.0279,0.09137 -0.0134,0.03598 -0.0321,0.07197 0.0797,0.02117 m 3.0286,2.430286 c -0.0727,0.03457 -0.96802,0.415925 -1.04528,0.446969 -0.0773,0.03281 -0.10054,0.04657 -0.11747,0.09913 -0.0169,0.05256 -0.0254,0.08008 -0.0296,0.09066 -0.0145,0.03563 -0.0335,0.07161 0.0801,0.02223 0.0346,-0.01482 0.94686,-0.400756 1.00754,-0.432153 0.0621,-0.0321 0.0984,-0.04233 0.12735,-0.09525 0.0289,-0.05292 0.036,-0.06244 0.0526,-0.09948 0.018,-0.03986 0.0381,-0.08573 -0.0751,-0.0321 m 3.89326,-2.385131 c -0.006,-0.06279 0.004,-0.09172 0.0152,-0.107597 0.0152,-0.02011 0.0864,-0.122061 0.11077,-0.174978 0.0123,-0.02822 -0.0106,-0.09596 -0.0402,-0.134408 -0.0437,-0.05644 -0.14428,-0.221897 -0.15628,-0.271286 -0.013,-0.05397 -0.0434,-0.113947 -0.067,-0.06279 -0.0501,0.107598 -0.11853,0.176389 -0.13617,0.2032 -0.0166,0.02681 -0.0508,0.113595 -0.01,0.19297 0.0409,0.07973 0.0773,0.132997 0.0857,0.186619 0.009,0.05574 0.008,0.150989 0.0318,0.267406 0.0289,0.1397 0.32138,1.825272 0.33585,1.913467 0.0145,0.08749 0.0335,0.182386 -0.0607,0.206727 -0.12171,0.03175 -0.47978,-0.03598 -0.55316,-0.05045 0.031,-0.106892 0.0519,-0.192264 0.0575,-0.222603 0.0138,-0.07691 -0.0653,-0.05433 -0.0825,-0.0088 -0.0166,0.0448 -0.11394,0.318911 -0.15451,0.4445 -0.0374,0.116417 -0.31891,-0.0042 -0.42192,-0.04904 0.0751,-0.134409 0.0924,-0.257175 0.10089,-0.296334 0.0257,-0.115711 -0.0508,-0.08325 -0.0635,-0.03845 -0.18344,0.489655 -0.81033,0.518583 -1.01812,0.500239 0.0981,-0.1143 0.17463,-0.268112 0.19968,-0.474839 0.01,-0.07373 -0.042,-0.09313 -0.0737,-0.0194 -0.0318,0.07373 -0.21097,0.485775 -0.77682,0.495653 -0.0797,0.0032 -0.55915,0.01235 -0.62583,-0.582436 -0.0197,-0.178506 -0.35842,-2.537531 -0.3937,-2.620081 -0.0349,-0.08361 -0.0448,-0.03881 -0.0547,-0.01658 l -0.0794,0.278342 c 0.0286,0.165806 0.22013,1.505303 0.25258,1.719792 0.0317,0.214136 0.11501,0.837141 0.14676,0.977547 0.10231,0.674511 0.67134,0.575381 0.67134,0.575381 0.0381,-0.0014 0.19155,-0.01305 0.36265,-0.07867 0.62865,0.09102 0.98178,-0.03704 1.18181,-0.210608 l 3.5e-4,0.0074 c 0.0187,0.10407 0.34537,0.216958 0.42298,0.228247 0.0773,0.01094 0.0991,0.0014 0.14852,-0.07444 0.0487,-0.09031 0.0956,-0.212372 0.13617,-0.332316 0.0501,0.03175 0.15452,0.09243 0.31644,0.1524 0.11254,0.04198 0.39123,0.116416 0.4445,-0.0056 0.0536,-0.121708 0.12877,-0.433917 0.0476,-0.826558 -0.0444,-0.217311 -0.30127,-1.69157 -0.30127,-1.69157 m 0.76764,-0.331258 c -0.0127,-0.150283 -0.0349,-0.279753 -0.0843,-0.159103 -0.0543,0.126647 -0.0794,0.289278 -0.049,0.508 0.0441,0.375356 0.0885,0.657225 0.13229,0.926042 0.043,0.273403 0.18909,1.083733 0.20673,1.66123 0.005,0.136525 0.0522,0.169334 0.0818,0.07056 0.054,-0.168628 0.0632,-0.639233 -0.0321,-1.323975 -0.049,-0.344664 -0.22966,-1.408289 -0.25541,-1.68275 m -5.36222,2.11455 -0.0247,-0.0014 -0.22472,0.225425 -0.007,0.04128 c 0.0314,0.0441 0.0663,0.08608 0.10513,0.125236 0.043,0.04233 0.0889,0.08043 0.13617,0.112889 l 0.0448,-0.0032 0.22472,-0.22472 -0.002,-0.02787 c -0.0515,-0.03387 -0.0984,-0.07267 -0.14216,-0.116769 -0.0416,-0.04022 -0.0759,-0.08608 -0.11007,-0.130881 m 0.12665,1.673578 c -0.20038,0.01834 -1.41217,0.204964 -1.9491,0.04515 -0.53763,-0.159102 -0.74295,-0.591608 -0.61525,-1.275291 0.12312,-0.545748 0.43251,-0.818445 0.68898,-0.984603 0.14499,0.166158 0.2928,0.293511 0.87524,0.317853 0.15981,0 0.6096,-0.01129 1.14406,-0.277284 0.0586,-0.0314 0.11783,-0.06209 0.14958,-0.312561 0.01,-0.109361 0.0413,-0.468841 -0.27023,-0.776464 -0.0374,-0.04128 -0.055,-0.04339 -0.0688,0.01341 -0.0138,0.0568 -0.0593,0.323497 -0.0593,0.323497 0.10054,0.132292 0.30304,0.416631 0.25506,0.446264 -0.048,0.02963 -0.8883,0.416983 -1.59561,0.182033 -0.0166,-0.0063 -0.0776,-0.03845 -0.15664,-0.0829 0.0819,-0.0441 0.14147,-0.08114 0.16263,-0.124531 0.0624,-0.119944 0.14641,-0.297039 0.0159,-0.390525 -0.0388,-0.03175 -0.25365,-0.163336 -0.53411,-0.120297 -0.28046,0.04374 -0.43533,0.147814 -0.53093,0.497769 -0.0159,0.0695 0.0116,0.0956 0.0505,0.05362 0.0377,-0.03951 0.19685,-0.156633 0.3683,0.02223 -0.0466,0.04269 -0.0956,0.09525 -0.14817,0.1651 -0.1591,0.214489 -0.58843,0.778934 -0.53305,1.603375 0.0589,0.897114 0.71509,1.307042 1.68981,1.111603 0.23213,-0.04551 0.99307,-0.26423 1.09291,-0.309739 0.10054,-0.04586 0.16933,-0.14605 -0.0317,-0.127705 m 1.74872,-3.383845 c 0.0346,-0.01623 1.63124,-0.690386 1.69156,-0.724605 0.06,-0.03387 0.0956,-0.04445 0.12277,-0.09913 0.0272,-0.05468 0.0335,-0.06421 0.0487,-0.101953 0.0162,-0.04057 0.0342,-0.08678 -0.0762,-0.02858 -0.0716,0.03634 -1.651,0.705203 -1.72755,0.739775 -0.0755,0.03492 -0.0981,0.05045 -0.11324,0.103364 -0.0145,0.05292 -0.0226,0.08114 -0.0261,0.09208 -0.0127,0.03634 -0.0307,0.07302 0.0801,0.01905 m 1.47214,0.448381 c 0.0212,0.05186 0.0381,0.112183 0.0353,0.14605 -0.0818,0.07937 -0.16968,0.09243 -0.23283,0.03951 -0.0409,-0.03351 -0.0568,-0.09701 -0.0526,-0.180269 0.002,-0.05962 0.01,-0.0822 -0.0427,-0.03986 -0.0684,0.05574 -0.0501,0.05045 -0.0536,0.08149 -0.0243,0.195792 -0.1083,0.283281 -0.25929,0.293864 -0.0949,0.0071 -0.16475,-0.05927 -0.0984,-0.247297 0.0141,-0.04022 -0.0141,-0.08255 -0.0561,0 -0.14182,0.282575 -0.0554,0.439914 0.0893,0.461433 0.11783,0.01729 0.25753,-0.04939 0.32915,-0.228247 0.055,0.09066 0.1658,0.11677 0.26564,0.09066 0.12876,-0.03351 0.15698,-0.09278 0.19261,-0.196497 0.036,-0.100542 0.0374,-0.232834 -0.0113,-0.391936 -0.008,-0.02611 -0.0226,-0.012 -0.0286,7.05e-4 l -0.0681,0.130528 c -0.008,0.01376 -0.0145,0.02364 -0.008,0.03986 m 6.80826,-0.445206 c -0.0561,-0.03528 -0.0554,-0.07585 -0.03,-0.115358 0.084,-0.129822 0.14499,-0.125942 0.20038,-0.06562 0.09,0.115006 0.0698,0.305506 0.06,0.340784 0,0 -0.17392,-0.125589 -0.23036,-0.159809 m 0.22366,0.426861 c 0.12029,0.05645 0.17109,0.183798 0.18732,0.136878 0.0455,-0.13335 0.061,-0.208139 0.0268,-0.244828 -0.0254,-0.0261 -0.11218,-0.09137 -0.11218,-0.09137 0.0317,-0.07479 0.097,-0.337961 -0.0113,-0.548217 -0.0268,-0.04515 -0.13335,-0.211314 -0.35736,0.04057 -0.0875,0.09631 -0.20003,0.342194 -0.11148,0.431447 0.0885,0.08855 0.28293,0.214136 0.28293,0.214136 -0.1016,0.174272 -0.34643,0.329142 -0.66605,0.556683 -0.20778,0.148873 -0.13017,0.199673 -0.0395,0.156634 0.6029,-0.285397 0.70626,-0.45332 0.80081,-0.651934 m -3.46005,-0.432505 c -0.0561,-0.03528 -0.0554,-0.07585 -0.03,-0.115006 0.084,-0.129822 0.14499,-0.126294 0.20037,-0.06597 0.09,0.115005 0.0698,0.305505 0.06,0.340783 0,0 -0.17392,-0.125236 -0.23037,-0.159808 m 0.22366,0.427214 c 0.1203,0.05609 0.1711,0.183444 0.18733,0.136878 0.0455,-0.13335 0.061,-0.208139 0.0265,-0.245181 -0.025,-0.02611 -0.11183,-0.09137 -0.11183,-0.09137 0.0317,-0.07444 0.097,-0.337962 -0.0113,-0.547864 -0.0265,-0.04516 -0.13335,-0.211667 -0.35737,0.04022 -0.0875,0.09631 -0.19967,0.342548 -0.11112,0.4318 0.0885,0.08855 0.28257,0.213784 0.28257,0.213784 -0.1016,0.174272 -0.34642,0.329494 -0.66569,0.556683 -0.20814,0.148872 -0.13017,0.200025 -0.0399,0.156986 0.60325,-0.28575 0.70661,-0.453672 0.8008,-0.651933 m 1.61149,-0.468842 c 0.0124,-0.0035 0.0272,-0.0021 0.0423,-0.01623 0.0494,-0.04621 0.0907,-0.16898 0.0956,-0.210608 -0.006,-0.0321 -0.12065,-0.04339 -0.15381,-0.05115 -0.1136,-0.02716 -0.2219,-0.08714 -0.34008,-0.0949 -0.18203,-0.01164 -0.35137,0.0702 -0.44521,0.262114 -0.0106,0.0254 -0.0258,0.05856 -0.0356,0.08396 -0.0113,0.04198 0.0102,0.0702 0.0325,0.03775 0.025,-0.03775 0.0561,-0.07479 0.0956,-0.09843 0.0935,-0.05644 0.19262,-0.07832 0.29387,-0.06879 0.0917,0.0092 0.26423,0.07338 0.26423,0.08255 -10e-4,0.01975 -0.40147,0.218016 -0.46426,0.257175 -0.0272,0.01729 -0.0607,0.04868 -0.0547,0.08008 0.005,0.02399 0.0434,0.02928 0.0759,0.01764 0.15734,-0.0568 0.21378,-0.05327 0.34078,-0.107244 0.1718,-0.07373 0.2226,-0.1651 0.25294,-0.17392 m -2.08421,2.402064 c -0.024,0.05151 -0.0554,0.139347 -0.0741,0.1905 -0.006,0.01834 0.008,0.04057 0.0303,0.02752 0.127,-0.07796 0.31714,-0.174273 0.51893,-0.245534 0.18309,-0.06456 0.32703,-0.106891 0.46002,-0.1143 0.0205,-0.0032 0.12947,-0.19438 0.1457,-0.221897 0.0229,-0.03563 0.006,-0.04763 -0.0222,-0.04198 -0.15417,0.02963 -0.27411,0.05715 -0.46108,0.03986 -0.23072,-0.02011 -0.41099,-0.196497 -0.40464,-0.265994 0.005,-0.05256 0.16863,-0.157339 0.22966,-0.148167 0.17674,0.02787 0.17357,0.183445 0.22119,0.185209 0.0568,0.0021 0.17251,-0.201789 0.17956,-0.257528 0.008,-0.06068 -0.11324,-0.204964 -0.2286,-0.211667 -0.19014,-0.01129 -0.51188,0.310445 -0.63817,0.508353 -0.0462,0.07267 -0.0413,0.184503 0.0243,0.2413 0.0586,0.04974 0.15522,0.102658 0.26423,0.168628 -0.0533,0.01905 -0.19332,0.100541 -0.24518,0.145697 m 6.51298,-0.985308 c -0.0321,-0.299509 -0.15839,-1.224845 -0.17039,-1.462617 -0.005,-0.130175 -0.0215,-0.242711 -0.0773,-0.141817 -0.0593,0.107245 -0.0924,0.245886 -0.0734,0.435328 0.0258,0.326672 0.0564,0.571853 0.0861,0.806097 0.0293,0.237067 0.13477,0.943328 0.12383,1.443567 -0.002,0.117122 0.0427,0.147461 0.079,0.0635 0.0614,-0.142169 0.0946,-0.547864 0.0321,-1.144058 m -1.51835,1.550105 c -0.0413,-0.04057 -0.0769,-0.08608 -0.11077,-0.13088 l -0.0247,-0.0021 -0.22436,0.226131 -0.006,0.04127 c 0.0307,0.0441 0.066,0.08537 0.10477,0.12453 0.0427,0.04339 0.0886,0.08079 0.13618,0.113947 l 0.0441,-0.0035 0.22472,-0.225425 -0.002,-0.02752 c -0.0515,-0.03387 -0.0988,-0.07161 -0.14217,-0.116417 m 1.04704,-1.093611 c -0.15346,-0.0095 -0.86254,-0.02258 -1.27846,-0.252236 0.0413,-0.03493 0.13123,-0.150636 0.0988,-0.441325 -0.0314,-0.291042 -0.14781,-1.121833 -0.14781,-1.121833 -0.009,-0.08678 -0.0448,-0.170392 0.005,-0.214489 0.0497,-0.0448 0.15381,-0.120297 0.0938,-0.202495 -0.06,-0.08184 -0.16299,-0.237772 -0.19297,-0.325966 -0.0254,-0.07444 -0.0473,-0.136173 -0.0847,-0.07761 -0.0441,0.06738 -0.0596,0.153458 -0.11924,0.231422 -0.031,0.04128 -0.0635,0.06138 -0.0279,0.123472 0.0476,0.08396 0.0956,0.237419 0.10478,0.3429 0.004,0.05503 0.0201,0.174272 0.036,0.288219 0,0 0.2032,1.049867 0.18697,1.220259 0,0 -0.84067,0.02963 -0.94967,0.135466 l -0.16863,0.262114 c -0.0141,0.02893 -0.0131,0.06033 0.0272,0.05433 0.0402,-0.0071 0.55704,-0.172155 1.28235,0.118533 -0.0857,0.02963 -1.04387,0.439562 -1.85314,0.347839 -0.121,-0.0035 -0.9719,-0.115005 -1.04211,-0.546452 -0.01,-0.05433 -0.0236,-0.07444 -0.0526,-0.01905 -0.0257,0.04868 -0.26176,0.400755 0.10865,0.653697 -0.11747,0.248003 -0.32667,0.5842 -0.64664,0.715786 -0.10477,0.03951 -0.57185,0.159455 -1.04351,-0.05221 -0.0582,-0.0187 -0.14358,0.02822 -0.0561,0.08819 0.0889,0.06068 0.95109,0.611717 1.51095,0.03175 0.0991,-0.101247 0.26741,-0.372886 0.39511,-0.698147 0.57362,0.312208 1.52788,0.140758 1.52788,0.140758 0.20708,-0.0441 0.42475,-0.10548 0.64947,-0.192264 0.11818,-0.04833 0.92992,-0.415572 1.4799,-0.287513 0.11501,0.02822 0.14111,0.02822 0.14111,0.02822 0,0 0.0988,-0.210609 0.12136,-0.261761 0.0219,-0.0508 0.048,-0.07973 -0.10584,-0.08961 m -4.07387,-1.021644 c 0.0441,0.0441 0.091,0.08255 0.14216,0.117122 l 0.002,0.02752 -0.22437,0.224719 -0.0445,0.0032 c -0.0476,-0.0321 -0.0931,-0.07091 -0.13617,-0.112889 -0.0388,-0.03986 -0.0741,-0.08114 -0.10513,-0.125236 l 0.006,-0.04163 0.22472,-0.225778 0.025,0.0021 c 0.0335,0.0448 0.0691,0.09031 0.11007,0.130881"
         style="fill:#231f20;fill-opacity:1;fill-rule:nonzero;stroke:none;stroke-width:0.352778"
         clip-path="url(#clipPath1)"
         id="path37-3" /></g></g></svg>
