<?xml version="1.0" encoding="UTF-8" standalone="no"?>
<!-- Created with Inkscape (http://www.inkscape.org/) -->

<svg
   version="1.1"
   id="svg1"
   width="83.975037"
   height="20.771938"
   viewBox="0 0 83.975036 20.771938"
   xmlns="http://www.w3.org/2000/svg"
   xmlns:svg="http://www.w3.org/2000/svg">
  <defs
     id="defs1">
    <clipPath
       clipPathUnits="userSpaceOnUse"
       id="clipPath50">
      <path
         d="m 292.766,518.083 h 62.982 v -15.579 h -62.982 z"
         transform="translate(-327.92291,-512.16991)"
         id="path50" />
    </clipPath>
    <clipPath
       clipPathUnits="userSpaceOnUse"
       id="clipPath52">
      <path
         d="M 0,547.086 H 382.677 V 0 H 0 Z"
         transform="matrix(1.3333333,0,0,-1.3333333,0,729.448)"
         id="path52" />
    </clipPath>
  </defs>
  <g
     id="layer-MC1"
     transform="translate(-390.35465,-38.670681)">
    <g
       id="g51"
       clip-path="url(#clipPath52)">
      <path
         d="m 0,0 -0.638,-0.641 -0.017,-0.117 c 0.089,-0.125 0.188,-0.244 0.299,-0.355 0.121,-0.119 0.251,-0.227 0.384,-0.319 l 0.126,0.008 0.637,0.639 -0.006,0.078 c -0.144,0.096 -0.278,0.203 -0.402,0.33 -0.117,0.115 -0.217,0.244 -0.315,0.371 z m 0.046,-2.316 -0.027,-0.038 -0.27,0.235 c -0.12,0.119 -0.223,0.252 -0.32,0.383 l -0.077,0.006 -0.66,-0.663 -0.019,-0.123 c 0.094,-0.129 0.195,-0.254 0.312,-0.369 0.121,-0.125 0.256,-0.236 0.398,-0.332 l 0.132,0.012 0.623,0.623 0.202,-0.225 c 0.125,-0.125 0.259,-0.236 0.398,-0.332 l 0.132,0.008 0.659,0.664 -0.011,0.08 c -0.144,0.102 -0.283,0.213 -0.414,0.344 -0.121,0.119 -0.221,0.252 -0.322,0.385 l -0.074,0.006 z m -24.827,2.888 -0.638,-0.64 -0.018,-0.118 c 0.089,-0.125 0.189,-0.244 0.299,-0.355 0.121,-0.119 0.251,-0.227 0.385,-0.318 l 0.126,0.007 0.637,0.639 -0.006,0.078 c -0.145,0.096 -0.278,0.203 -0.402,0.33 -0.119,0.116 -0.217,0.244 -0.315,0.371 z m 0.046,-2.316 -0.028,-0.037 -0.269,0.234 c -0.12,0.119 -0.223,0.252 -0.322,0.383 l -0.076,0.006 -0.659,-0.662 -0.019,-0.123 c 0.093,-0.129 0.195,-0.254 0.312,-0.37 0.122,-0.125 0.256,-0.236 0.398,-0.332 l 0.131,0.012 0.623,0.623 0.203,-0.224 c 0.125,-0.125 0.258,-0.237 0.398,-0.332 l 0.132,0.007 0.659,0.664 -0.012,0.081 c -0.143,0.101 -0.282,0.212 -0.414,0.343 -0.12,0.119 -0.22,0.252 -0.321,0.385 l -0.074,0.006 z m 8.291,-0.656 c -0.299,-0.204 -1.894,-1.13 -2.871,-0.982 -0.98,0.15 -1.414,0.763 -1.414,1.074 0,0.313 0.231,0.802 0.72,1.006 0.488,0.203 1.481,0.572 1.93,0.298 0.448,-0.272 0.557,-0.053 0.341,0.164 -0.218,0.218 -1.199,0.869 -2.094,0.503 -1.237,-0.572 -1.386,-1.631 -1.454,-2.269 -0.068,-0.639 0.326,-1.169 0.788,-1.51 -0.3,-0.129 -1.593,-0.419 -2.037,0.236 l 0.025,0.186 c 0.014,0.299 -0.177,0.327 -0.26,0.027 -0.081,-0.3 -0.126,-0.687 -0.27,-0.979 -0.261,-0.521 -1.01,-0.117 -1.32,0.023 0.089,0.264 0.163,0.569 0.218,0.925 0.034,0.202 -0.09,0.372 -0.227,-0.052 -0.134,-0.415 -0.612,-1.649 -2.735,-0.938 0.028,0.251 0.18,0.806 -0.285,0.566 -0.503,-0.258 -1.723,-0.722 -2.428,-0.897 -0.46,-0.115 -0.532,-0.186 -0.46,-0.387 0.069,-0.204 0.193,-0.743 0.435,-0.664 0.051,0.017 0.138,0.045 0.242,0.077 -0.206,-0.548 -0.934,-2.24 -2.246,-2.778 -0.308,-0.118 -1.639,-0.489 -3.035,0.135 -0.172,0.056 -0.425,-0.081 -0.164,-0.26 0.261,-0.178 3.025,-1.668 4.683,0.047 0.38,0.39 0.922,1.642 1.275,2.986 l -0.001,0.031 c 0.281,0.091 0.528,0.17 0.528,0.17 0.151,0.054 0.756,0.311 1.091,0.457 1.036,-0.765 2.036,-1.028 2.693,-0.214 0.82,-0.754 1.415,-0.592 1.669,-0.205 0.106,0.163 0.224,0.469 0.327,0.795 0.338,-0.262 1.059,-0.903 3.083,0.061 0.585,0.258 3.131,1.456 3.131,1.456 0.122,0.313 0.42,1.116 0.122,0.912 m -11.465,3.169 c 0.099,0.041 4.351,1.814 4.525,1.904 0.174,0.089 0.276,0.116 0.36,0.267 0.084,0.151 0.103,0.178 0.15,0.282 0.051,0.113 0.107,0.243 -0.213,0.091 -0.206,-0.097 -4.41,-1.857 -4.629,-1.946 -0.219,-0.09 -0.285,-0.132 -0.333,-0.279 -0.048,-0.149 -0.072,-0.227 -0.085,-0.258 -0.041,-0.101 -0.095,-0.202 0.225,-0.061 m 7.013,0.288 c 0.097,0.05 3.096,1.266 3.26,1.373 0.165,0.104 0.264,0.144 0.331,0.301 0.07,0.158 0.087,0.187 0.124,0.297 0.039,0.115 0.082,0.25 -0.221,0.069 -0.196,-0.117 -3.148,-1.314 -3.357,-1.424 -0.21,-0.111 -0.272,-0.158 -0.305,-0.311 -0.034,-0.153 -0.05,-0.233 -0.06,-0.264 -0.03,-0.104 -0.075,-0.21 0.228,-0.041 M -32.741,-3.62 c 0.092,0.058 3.401,1.414 3.56,1.525 0.16,0.114 0.259,0.155 0.32,0.317 0.061,0.16 0.077,0.189 0.109,0.299 0.034,0.119 0.071,0.256 -0.224,0.061 -0.19,-0.126 -3.453,-1.461 -3.658,-1.581 -0.204,-0.119 -0.264,-0.168 -0.29,-0.321 -0.028,-0.156 -0.041,-0.237 -0.049,-0.267 -0.026,-0.106 -0.065,-0.214 0.232,-0.033 m 25.492,1.326 c 0.397,0.197 0.693,0.145 0.859,-0.167 0.166,-0.311 0.51,-0.993 0.231,-0.919 -0.252,0.068 -1.217,0.291 -1.467,0.653 0.143,0.215 0.27,0.38 0.377,0.433 m -0.883,-1.454 c 0.381,-0.292 1.653,-0.743 1.924,-0.745 0.27,-0.002 0.305,-0.028 0.404,0.201 0.1,0.229 0.227,0.522 0.239,0.715 0.011,0.192 0.023,1.377 -0.161,1.87 -0.146,0.473 -0.763,0.754 -1.126,0.468 -0.821,-0.744 -1.081,-1.351 -1.37,-1.722 -0.244,-0.31 -1.011,-1.224 -2.132,-0.678 -0.211,0.431 -0.422,0.793 -0.422,0.793 -0.112,0.199 -0.213,0.328 -0.262,0.213 -0.049,-0.117 -0.213,-1.021 -0.213,-1.021 0.244,-0.352 1.191,-2.257 1.104,-2.589 -0.088,-0.332 -0.86,-2.003 -3.299,-1.876 -0.256,0.014 -2.735,0.37 -1.506,3.291 0.045,0.104 -0.065,0.314 -0.223,0.073 -0.205,-0.311 -1.429,-3.725 1.151,-4.36 0.437,-0.107 2.392,-0.292 3.808,1.397 0.164,0.194 0.623,1.149 0.301,2.866 0.287,-0.002 0.578,0.074 0.889,0.24 0.291,0.18 0.57,0.557 0.824,0.955 z M 4.149,-3.353 C 4.366,-4.64 3.896,-5.656 3.796,-5.813 3.237,-6.616 2.253,-5.913 2.05,-5.789 1.851,-5.664 1.673,-5.753 1.429,-5.895 c -1.885,-1.162 -3.344,-0.981 -3.653,-0.94 -1.703,0.191 -1.845,2.271 -1.91,2.851 -0.072,0.655 -0.375,3.95 -0.646,4.994 -0.09,0.413 0.09,1.086 0.131,1.277 0.037,0.193 0.128,0.259 0.205,-0.038 0.078,-0.296 0.775,-5.537 0.853,-6.078 0.256,-1.795 1.315,-1.898 1.69,-1.988 1.652,-0.195 3.316,0.749 3.588,0.942 0.271,0.194 0.568,0.026 0.709,-0.039 0.142,-0.065 0.709,-0.297 1.058,-0.349 0.348,-0.052 0.375,0.465 0.336,0.788 C 3.753,-4.153 3.054,-0.15 3.019,0.095 2.944,0.6 2.862,0.967 2.843,1.065 2.774,1.393 2.778,1.665 2.753,1.823 2.729,1.976 2.626,2.125 2.511,2.352 2.394,2.576 2.489,2.823 2.536,2.899 2.585,2.974 2.78,3.169 2.923,3.475 2.989,3.62 3.075,3.449 3.112,3.296 3.146,3.154 3.433,2.686 3.556,2.525 3.64,2.417 3.704,2.226 3.669,2.146 3.601,1.995 3.399,1.706 3.355,1.65 3.323,1.605 3.294,1.522 3.313,1.344 c 0,0 0.745,-4.154 0.836,-4.697 m -8.462,-3.202 c -0.045,-0.108 -0.065,-0.134 -0.144,-0.286 -0.078,-0.155 -0.18,-0.187 -0.352,-0.281 -0.17,-0.094 -3.131,-1.324 -3.229,-1.371 -0.316,-0.15 -0.264,-0.045 -0.227,0.055 0.012,0.032 0.034,0.111 0.077,0.261 0.042,0.15 0.11,0.193 0.325,0.289 0.217,0.096 3.13,1.313 3.333,1.417 0.316,0.16 0.263,0.03 0.217,-0.084 m 1.136,10.391 c 0.012,0.029 0.037,0.109 0.086,0.26 0.05,0.144 0.115,0.187 0.335,0.274 0.221,0.09 3.403,1.379 3.612,1.476 C 1.177,5.995 1.119,5.866 1.068,5.753 1.021,5.648 1.002,5.622 0.917,5.473 0.831,5.323 0.729,5.295 0.554,5.206 0.381,5.12 -2.854,3.814 -2.951,3.771 -3.273,3.632 -3.219,3.735 -3.177,3.836 m -11.481,-3.953 c 0.009,0.03 0.019,0.114 0.047,0.266 0.028,0.155 0.087,0.204 0.291,0.324 0.205,0.121 2.872,1.243 3.062,1.369 0.296,0.195 0.258,0.059 0.224,-0.06 -0.031,-0.111 -0.048,-0.141 -0.11,-0.302 -0.059,-0.159 -0.157,-0.203 -0.315,-0.315 -0.162,-0.114 -2.875,-1.256 -2.967,-1.311 -0.296,-0.185 -0.259,-0.078 -0.232,0.029 M 5.563,1.809 C 5.527,2.202 5.463,2.541 5.324,2.226 5.172,1.891 5.102,1.464 5.182,0.889 c 0.125,-0.99 0.249,-1.732 0.371,-2.442 0.119,-0.718 0.525,-2.853 0.574,-4.377 0.012,-0.358 0.144,-0.443 0.236,-0.184 0.151,0.445 0.182,1.686 -0.09,3.49 -0.138,0.907 -0.64,3.71 -0.71,4.433 m -18.611,-3.598 -0.07,0.004 -0.639,-0.639 -0.017,-0.117 c 0.086,-0.126 0.187,-0.244 0.298,-0.355 0.122,-0.122 0.249,-0.228 0.385,-0.322 l 0.127,0.011 0.637,0.637 -0.006,0.078 c -0.146,0.096 -0.277,0.204 -0.404,0.33 -0.117,0.115 -0.215,0.245 -0.311,0.373 M 0.365,2.595 C 0.425,2.448 0.473,2.277 0.465,2.181 0.233,1.956 -0.016,1.919 -0.195,2.069 -0.312,2.164 -0.355,2.344 -0.344,2.58 -0.337,2.749 -0.315,2.813 -0.465,2.693 -0.659,2.535 -0.606,2.55 -0.617,2.462 -0.687,1.907 -0.924,1.659 -1.353,1.629 -1.621,1.609 -1.819,1.797 -1.631,2.33 c 0.04,0.114 -0.04,0.234 -0.159,0 -0.401,-0.801 -0.157,-1.247 0.253,-1.309 0.334,-0.048 0.73,0.141 0.933,0.648 C -0.448,1.412 -0.134,1.338 0.149,1.412 0.514,1.507 0.594,1.675 0.695,1.969 0.797,2.254 0.801,2.629 0.663,3.08 0.641,3.154 0.6,3.114 0.582,3.078 L 0.389,2.708 C 0.365,2.669 0.349,2.641 0.365,2.595 m 18.782,-1.2 c -0.158,0.099 -0.156,0.214 -0.085,0.326 0.24,0.368 0.413,0.357 0.57,0.186 0.255,-0.326 0.197,-0.866 0.17,-0.966 0,0 -0.493,0.356 -0.655,0.454 m 0.635,-1.211 c 0.341,-0.16 0.486,-0.521 0.53,-0.388 0.13,0.378 0.174,0.59 0.077,0.694 -0.072,0.074 -0.318,0.259 -0.318,0.259 0.09,0.212 0.276,0.958 -0.032,1.554 C 19.964,2.431 19.661,2.902 19.026,2.188 18.778,1.915 18.46,1.218 18.711,0.965 18.962,0.714 19.513,0.358 19.513,0.358 19.225,-0.136 18.53,-0.575 17.625,-1.22 c -0.59,-0.422 -0.369,-0.566 -0.112,-0.444 1.71,0.81 2.003,1.285 2.269,1.848 M 9.975,1.41 c -0.16,0.1 -0.158,0.215 -0.085,0.326 0.238,0.368 0.411,0.358 0.568,0.187 0.255,-0.326 0.197,-0.866 0.17,-0.966 0,0 -0.493,0.355 -0.653,0.453 m 0.633,-1.211 c 0.341,-0.159 0.486,-0.52 0.532,-0.387 0.129,0.377 0.173,0.589 0.075,0.694 -0.071,0.074 -0.319,0.259 -0.319,0.259 0.091,0.212 0.277,0.958 -0.031,1.553 C 10.79,2.446 10.487,2.918 9.853,2.204 9.604,1.931 9.286,1.233 9.537,0.98 9.788,0.729 10.339,0.374 10.339,0.374 10.051,-0.12 9.356,-0.56 8.451,-1.204 7.861,-1.626 8.082,-1.771 8.339,-1.648 c 1.71,0.809 2.003,1.285 2.269,1.847 m 4.569,1.329 c 0.035,0.01 0.077,0.006 0.12,0.046 0.14,0.131 0.257,0.479 0.27,0.597 C 15.552,2.262 15.226,2.294 15.132,2.316 14.81,2.394 14.503,2.563 14.168,2.585 13.651,2.618 13.172,2.386 12.905,1.842 12.876,1.771 12.833,1.676 12.805,1.604 12.771,1.485 12.834,1.405 12.896,1.497 c 0.072,0.107 0.161,0.212 0.272,0.279 0.265,0.161 0.546,0.222 0.833,0.195 C 14.261,1.945 14.75,1.763 14.749,1.737 14.745,1.681 13.611,1.119 13.434,1.008 13.356,0.959 13.262,0.87 13.278,0.781 c 0.014,-0.068 0.123,-0.083 0.215,-0.05 0.445,0.162 0.607,0.151 0.967,0.304 0.486,0.209 0.631,0.468 0.717,0.493 M 9.269,-5.281 C 9.2,-5.427 9.111,-5.676 9.059,-5.821 9.041,-5.873 9.081,-5.936 9.145,-5.898 c 0.36,0.22 0.899,0.493 1.47,0.695 0.52,0.183 0.928,0.303 1.305,0.324 0.058,0.009 0.366,0.551 0.413,0.629 0.063,0.102 0.018,0.135 -0.063,0.119 -0.438,-0.084 -0.778,-0.162 -1.307,-0.113 -0.654,0.057 -1.165,0.557 -1.148,0.754 0.015,0.149 0.479,0.446 0.652,0.42 0.501,-0.079 0.492,-0.52 0.627,-0.525 0.161,-0.006 0.489,0.573 0.509,0.73 0.021,0.172 -0.322,0.581 -0.649,0.6 -0.538,0.033 -1.45,-0.88 -1.808,-1.441 C 9.016,-3.912 9.028,-4.229 9.215,-4.39 9.381,-4.531 9.654,-4.681 9.964,-4.868 9.813,-4.922 9.416,-5.153 9.269,-5.281 m 18.46,2.793 C 27.641,-1.639 27.281,0.984 27.247,1.658 27.233,2.027 27.187,2.346 27.028,2.061 26.86,1.756 26.767,1.363 26.82,0.826 c 0.074,-0.926 0.159,-1.621 0.243,-2.285 0.083,-0.672 0.383,-2.674 0.353,-4.092 -0.006,-0.332 0.12,-0.418 0.223,-0.179 0.173,0.402 0.268,1.552 0.09,3.242 m -4.302,-4.394 c -0.117,0.115 -0.218,0.244 -0.315,0.371 l -0.069,0.006 -0.637,-0.641 -0.017,-0.117 c 0.088,-0.125 0.187,-0.242 0.298,-0.353 0.121,-0.123 0.25,-0.229 0.385,-0.322 l 0.125,0.009 0.638,0.639 -0.006,0.078 c -0.145,0.096 -0.279,0.203 -0.402,0.33 m 2.968,3.1 c -0.435,0.027 -2.446,0.064 -3.624,0.715 0.117,0.099 0.372,0.427 0.28,1.252 -0.089,0.824 -0.419,3.179 -0.419,3.179 -0.028,0.246 -0.127,0.483 0.014,0.608 0.14,0.127 0.435,0.341 0.265,0.574 C 22.741,2.778 22.449,3.22 22.364,3.47 22.293,3.681 22.229,3.856 22.124,3.69 21.999,3.499 21.955,3.255 21.786,3.034 21.698,2.917 21.605,2.86 21.707,2.685 c 0.136,-0.239 0.272,-0.674 0.298,-0.973 0.012,-0.156 0.057,-0.494 0.1,-0.816 0,0 0.578,-2.977 0.532,-3.459 0,0 -2.383,-0.084 -2.693,-0.385 L 19.467,-3.69 c -0.04,-0.082 -0.036,-0.172 0.077,-0.155 0.113,0.02 1.578,0.489 3.635,-0.336 -0.243,-0.084 -2.959,-1.246 -5.253,-0.986 -0.344,0.01 -2.755,0.326 -2.954,1.549 -0.028,0.154 -0.068,0.211 -0.15,0.055 -0.073,-0.139 -0.742,-1.137 0.309,-1.854 -0.333,-0.703 -0.927,-1.656 -1.833,-2.029 -0.297,-0.112 -1.621,-0.451 -2.958,0.148 -0.165,0.053 -0.407,-0.08 -0.158,-0.25 0.251,-0.172 2.695,-1.734 4.282,-0.09 0.28,0.287 0.758,1.057 1.12,1.979 1.626,-0.885 4.33,-0.399 4.33,-0.399 0.588,0.125 1.204,0.299 1.842,0.545 0.335,0.137 2.636,1.178 4.194,0.815 0.326,-0.08 0.401,-0.08 0.401,-0.08 0,0 0.28,0.597 0.343,0.742 0.063,0.144 0.136,0.226 -0.299,0.254 m -11.548,2.896 c 0.125,-0.125 0.257,-0.234 0.403,-0.332 l 0.006,-0.078 -0.637,-0.637 -0.126,-0.009 c -0.135,0.091 -0.264,0.201 -0.387,0.32 -0.109,0.113 -0.21,0.23 -0.296,0.355 l 0.016,0.118 0.638,0.64 0.07,-0.006 c 0.096,-0.127 0.195,-0.256 0.313,-0.371"
         style="fill:#231f20;fill-opacity:1;fill-rule:nonzero;stroke:none"
         transform="matrix(1.3333333,0,0,-1.3333333,437.23053,46.5548)"
         clip-path="url(#clipPath50)"
         id="path51" />
    </g>
  </g>
</svg>
