<?xml version="1.0" encoding="UTF-8" standalone="no"?>
<!-- Created with Inkscape (http://www.inkscape.org/) -->

<svg
   version="1.1"
   id="svg1"
   width="86.950348"
   height="19.965336"
   viewBox="0 0 86.950347 19.965336"
   xmlns="http://www.w3.org/2000/svg"
   xmlns:svg="http://www.w3.org/2000/svg">
  <defs
     id="defs1">
    <clipPath
       clipPathUnits="userSpaceOnUse"
       id="clipPath38">
      <path
         d="m 290.535,516.386 h 65.213 v -14.974 h -65.213 z"
         transform="translate(-300.77151,-512.71481)"
         id="path38" />
    </clipPath>
    <clipPath
       clipPathUnits="userSpaceOnUse"
       id="clipPath40">
      <path
         d="M 0,547.086 H 382.677 V 0 H 0 Z"
         transform="matrix(1.3333333,0,0,-1.3333333,0,729.448)"
         id="path40" />
    </clipPath>
  </defs>
  <g
     id="layer-MC1"
     transform="translate(-387.38031,-40.933346)">
    <g
       id="g39"
       clip-path="url(#clipPath40)">
      <path
         d="m 0,0 -0.58,-0.694 -0.007,-0.118 c 0.1,-0.117 0.209,-0.227 0.329,-0.328 0.131,-0.108 0.27,-0.204 0.41,-0.284 l 0.125,0.019 0.579,0.692 -0.012,0.077 C 0.691,-0.553 0.549,-0.458 0.414,-0.342 0.288,-0.238 0.177,-0.118 0.068,0 Z m 0.247,-2.303 -0.023,-0.04 -0.289,0.21 c -0.13,0.109 -0.245,0.232 -0.353,0.354 l -0.077,-0.001 -0.6,-0.718 -0.008,-0.124 c 0.105,-0.12 0.216,-0.236 0.343,-0.34 0.132,-0.114 0.276,-0.213 0.426,-0.296 l 0.13,0.023 0.566,0.675 0.221,-0.207 C 0.719,-2.88 0.861,-2.979 1.009,-3.063 l 0.131,0.02 0.598,0.719 -0.018,0.078 c -0.153,0.09 -0.3,0.188 -0.443,0.307 -0.131,0.108 -0.242,0.232 -0.353,0.356 L 0.85,-1.584 Z m 8.23,-0.655 C 8.178,-3.162 6.583,-4.088 5.605,-3.939 4.626,-3.79 4.191,-3.176 4.191,-2.865 c 0,0.313 0.232,0.802 0.721,1.006 0.488,0.203 1.481,0.571 1.93,0.298 C 7.29,-1.834 7.398,-1.614 7.183,-1.397 6.965,-1.179 5.985,-0.528 5.089,-0.894 3.852,-1.466 3.702,-2.525 3.635,-3.164 3.566,-3.802 3.961,-4.333 4.423,-4.673 4.123,-4.802 2.83,-5.092 2.386,-4.437 l 0.024,0.185 c 0.015,0.3 -0.176,0.328 -0.258,0.028 -0.082,-0.3 -0.126,-0.688 -0.271,-0.98 -0.262,-0.52 -1.01,-0.116 -1.32,0.024 0.088,0.263 0.163,0.569 0.218,0.924 0.033,0.203 -0.091,0.373 -0.227,-0.051 -0.134,-0.415 -0.613,-1.65 -2.736,-0.939 0.029,0.251 0.181,0.807 -0.284,0.567 -0.503,-0.258 -1.723,-0.722 -2.428,-0.897 -0.46,-0.115 -0.532,-0.186 -0.46,-0.388 0.069,-0.204 0.193,-0.743 0.434,-0.664 0.052,0.018 0.139,0.045 0.243,0.078 -0.206,-0.548 -0.934,-2.241 -2.246,-2.779 -0.308,-0.117 -1.639,-0.488 -3.035,0.136 -0.172,0.056 -0.425,-0.081 -0.164,-0.26 0.261,-0.178 3.026,-1.669 4.683,0.047 0.379,0.39 0.921,1.642 1.275,2.985 l -10e-4,0.032 c 0.281,0.091 0.528,0.17 0.528,0.17 0.151,0.053 0.756,0.311 1.09,0.457 1.037,-0.765 2.037,-1.029 2.694,-0.214 0.82,-0.754 1.415,-0.592 1.668,-0.205 0.107,0.163 0.224,0.468 0.328,0.795 0.338,-0.262 1.059,-0.904 3.083,0.061 0.585,0.258 3.13,1.456 3.13,1.456 0.123,0.313 0.421,1.115 0.123,0.911 M -2.988,0.211 C -2.889,0.252 1.363,2.026 1.537,2.116 1.711,2.204 1.812,2.232 1.896,2.383 1.98,2.534 2,2.561 2.047,2.664 2.098,2.778 2.154,2.908 1.834,2.756 1.628,2.659 -2.576,0.899 -2.795,0.81 -3.014,0.72 -3.08,0.678 -3.128,0.531 -3.176,0.382 -3.2,0.304 -3.213,0.273 -3.254,0.172 -3.309,0.071 -2.988,0.211 M 4.026,0.499 C 4.122,0.55 7.121,1.766 7.285,1.872 7.45,1.977 7.549,2.017 7.616,2.174 7.686,2.331 7.702,2.361 7.74,2.471 7.779,2.585 7.822,2.721 7.519,2.539 7.323,2.423 4.371,1.226 4.162,1.116 3.953,1.004 3.89,0.957 3.856,0.805 3.823,0.652 3.807,0.572 3.797,0.54 3.767,0.437 3.722,0.33 4.026,0.499 M -7.82,-4.177 c 0.091,0.058 3.401,1.414 3.56,1.525 0.16,0.113 0.259,0.154 0.32,0.316 0.061,0.161 0.077,0.19 0.109,0.3 0.033,0.118 0.071,0.256 -0.224,0.061 -0.19,-0.126 -3.453,-1.461 -3.658,-1.581 -0.204,-0.119 -0.265,-0.168 -0.29,-0.322 -0.028,-0.155 -0.041,-0.236 -0.049,-0.266 -0.026,-0.107 -0.065,-0.214 0.232,-0.033 m 27.78,3.808 c -0.073,-0.129 -0.182,-0.448 -0.267,-0.67 -0.082,-0.218 -0.033,-1.13 -0.024,-1.244 0.008,-0.107 -0.835,0.104 -1.185,0.266 0.09,0.217 0.162,0.465 0.214,0.748 0.035,0.201 -0.132,0.44 -0.279,0.027 -0.138,-0.392 -0.44,-1.609 -2.03,-1.204 0.244,0.448 0.327,0.874 0.351,0.989 0.062,0.266 -0.084,0.243 -0.168,0.06 -0.949,-1.976 -2.825,-1.183 -3.341,-0.829 0.175,0.101 0.301,0.197 0.355,0.303 0.195,0.375 0.458,0.927 0.05,1.224 -0.122,0.1 -0.794,0.516 -1.675,0.377 -0.881,-0.135 -1.366,-0.463 -1.665,-1.561 -0.05,-0.218 0.036,-0.3 0.159,-0.167 0.114,0.123 0.616,0.49 1.153,-0.071 -0.145,-0.134 -0.301,-0.299 -0.464,-0.518 -0.499,-0.672 -1.843,-2.443 -1.671,-5.029 0.185,-2.813 2.241,-4.099 5.298,-3.485 0.727,0.144 3.114,0.827 3.428,0.97 0.316,0.144 0.529,0.458 -0.099,0.402 -0.628,-0.058 -4.428,-0.642 -6.114,-0.143 -1.686,0.5 -2.328,1.856 -1.927,3.999 0.384,1.712 1.294,2.57 2.097,3.088 l 0.276,0.169 c 0.741,-0.875 1.529,-0.994 1.874,-0.994 0.548,0 0.97,0.145 1.301,0.359 0.695,-0.156 1.66,-0.163 2.343,0.483 0.236,-0.225 0.71,-0.42 1.041,-0.497 0.389,-0.094 0.511,0.054 0.829,0.46 0.508,0.928 0.397,2.049 0.318,2.361 -0.078,0.313 -0.106,0.253 -0.178,0.127 m 9.95,1.047 c -0.018,0.176 0.011,0.258 0.045,0.302 0.042,0.056 0.246,0.347 0.316,0.494 0.039,0.079 -0.029,0.27 -0.113,0.379 -0.125,0.157 -0.416,0.626 -0.45,0.764 -0.036,0.155 -0.124,0.323 -0.195,0.18 -0.142,-0.304 -0.339,-0.5 -0.389,-0.574 -0.048,-0.077 -0.145,-0.322 -0.026,-0.545 0.116,-0.223 0.221,-0.375 0.247,-0.525 0.022,-0.159 0.02,-0.428 0.09,-0.752 0.082,-0.399 0.922,-5.154 0.964,-5.403 0.042,-0.246 0.069,-0.622 -0.203,-0.689 -0.323,-0.082 -1.033,0.117 -1.226,0.175 0.116,0.243 0.166,0.456 0.183,0.557 0.04,0.262 -0.084,0.248 -0.211,0.071 -0.126,-0.18 -0.545,-0.525 -1.006,-0.732 -1.5,-0.63 -3.276,-0.807 -4.367,-0.476 -1.092,0.329 -1.372,1.169 -1.41,1.718 -0.021,0.345 -0.243,5.497 -0.668,6.474 C 21.409,2.32 21.33,2.594 21.206,2.215 21.166,2.1 20.975,1.83 21.026,1.536 c 0.322,-1.878 0.631,-5.362 0.645,-5.998 0.029,-1.553 0.594,-1.969 0.915,-2.203 1.443,-1.194 4.649,-0.165 5.21,0.029 0.333,0.142 0.588,0.336 0.78,0.542 0.211,-0.136 0.529,-0.32 0.737,-0.363 0.335,-0.068 0.947,-0.261 1.099,0.081 0.155,0.345 0.52,1.39 0.435,2.006 -0.084,0.62 -0.937,5.048 -0.937,5.048 M 19.667,-5.063 c -0.205,-0.104 -3.334,-1.506 -3.551,-1.602 -0.217,-0.095 -0.281,-0.138 -0.326,-0.287 -0.043,-0.148 -0.066,-0.23 -0.078,-0.26 -0.037,-0.101 -0.09,-0.205 0.226,-0.056 0.097,0.047 3.278,1.461 3.45,1.553 0.172,0.095 0.272,0.126 0.351,0.281 0.08,0.15 0.098,0.178 0.143,0.285 0.047,0.113 0.099,0.244 -0.215,0.086 m 3.631,6.264 c 0.098,0.044 3.898,1.652 4.07,1.746 0.169,0.093 0.272,0.127 0.352,0.279 0.078,0.152 0.097,0.18 0.14,0.285 0.049,0.115 0.102,0.246 -0.214,0.086 C 27.442,3.495 23.69,1.9 23.474,1.804 23.259,1.708 23.192,1.665 23.149,1.517 23.104,1.367 23.083,1.286 23.071,1.255 23.032,1.156 22.981,1.05 23.298,1.201 m 9.348,0.161 C 32.609,1.766 32.544,2.118 32.405,1.793 32.253,1.448 32.183,1.01 32.264,0.417 c 0.128,-1.015 0.251,-1.778 0.376,-2.509 0.123,-0.739 0.527,-2.93 0.576,-4.495 0.015,-0.371 0.144,-0.458 0.234,-0.192 0.153,0.457 0.183,1.732 -0.09,3.589 -0.132,0.934 -0.642,3.809 -0.714,4.552 M 27.174,-2.572 26.585,-3.3 26.563,-3.342 26.271,-3.136 c -0.133,0.106 -0.25,0.229 -0.361,0.348 L 25.834,-2.792 25.247,-3.52 25.24,-3.642 c 0.107,-0.12 0.22,-0.232 0.349,-0.334 0.136,-0.111 0.279,-0.208 0.432,-0.289 l 0.13,0.024 0.555,0.687 0.222,-0.205 c 0.138,-0.109 0.282,-0.205 0.431,-0.288 l 0.13,0.026 0.587,0.727 -0.019,0.078 c -0.155,0.084 -0.305,0.182 -0.448,0.299 -0.132,0.105 -0.248,0.227 -0.361,0.347 z M 10.66,0.848 c 0.1,0.046 2.926,1.253 3.097,1.343 0.174,0.093 0.276,0.122 0.357,0.275 0.08,0.153 0.101,0.18 0.145,0.283 0.05,0.114 0.103,0.245 -0.213,0.09 -0.205,-0.1 -2.982,-1.294 -3.2,-1.386 C 10.628,1.36 10.563,1.317 10.516,1.167 10.471,1.019 10.448,0.939 10.434,0.909 10.395,0.81 10.342,0.705 10.66,0.848 M 26.647,0.002 c 0.06,-0.146 0.108,-0.317 0.1,-0.414 -0.231,-0.224 -0.48,-0.261 -0.66,-0.111 -0.115,0.095 -0.16,0.274 -0.149,0.511 0.007,0.169 0.029,0.232 -0.121,0.113 -0.194,-0.158 -0.141,-0.144 -0.152,-0.232 -0.068,-0.554 -0.307,-0.802 -0.734,-0.833 -0.271,-0.019 -0.468,0.168 -0.28,0.702 0.04,0.114 -0.04,0.234 -0.159,0 -0.401,-0.801 -0.157,-1.247 0.252,-1.309 0.334,-0.049 0.732,0.141 0.935,0.648 0.155,-0.257 0.469,-0.332 0.753,-0.257 0.364,0.094 0.444,0.262 0.546,0.556 0.1,0.285 0.105,0.66 -0.033,1.112 -0.022,0.074 -0.063,0.034 -0.081,-0.002 L 26.671,0.116 C 26.647,0.077 26.631,0.048 26.647,0.002 M 46.3,0.837 c -0.159,0.1 -0.157,0.215 -0.085,0.326 0.237,0.369 0.411,0.358 0.568,0.187 0.254,-0.326 0.197,-0.866 0.169,-0.966 0,0 -0.492,0.356 -0.652,0.453 m 0.634,-1.211 c 0.34,-0.159 0.485,-0.52 0.531,-0.387 0.129,0.378 0.173,0.589 0.075,0.694 -0.071,0.074 -0.317,0.259 -0.317,0.259 0.09,0.212 0.275,0.958 -0.033,1.553 -0.075,0.128 -0.377,0.6 -1.012,-0.114 -0.248,-0.273 -0.567,-0.97 -0.316,-1.223 0.251,-0.251 0.802,-0.607 0.802,-0.607 -0.288,-0.494 -0.982,-0.933 -1.888,-1.578 -0.589,-0.422 -0.369,-0.566 -0.112,-0.444 1.71,0.809 2.003,1.285 2.27,1.847 m -9.808,1.227 c -0.159,0.099 -0.157,0.215 -0.085,0.326 0.238,0.368 0.411,0.357 0.568,0.187 0.255,-0.327 0.198,-0.867 0.17,-0.966 0,0 -0.494,0.355 -0.653,0.453 m 0.634,-1.211 c 0.341,-0.159 0.484,-0.521 0.531,-0.388 0.129,0.378 0.173,0.59 0.075,0.695 -0.071,0.074 -0.317,0.258 -0.317,0.258 0.09,0.212 0.275,0.958 -0.032,1.554 -0.076,0.128 -0.378,0.6 -1.013,-0.114 -0.248,-0.274 -0.566,-0.971 -0.316,-1.224 0.251,-0.251 0.802,-0.606 0.802,-0.606 -0.288,-0.494 -0.982,-0.934 -1.887,-1.578 -0.59,-0.422 -0.37,-0.567 -0.113,-0.445 1.71,0.81 2.003,1.285 2.27,1.848 m 4.567,1.329 c 0.036,0.01 0.078,0.006 0.121,0.046 0.14,0.131 0.257,0.478 0.271,0.597 -0.017,0.09 -0.342,0.123 -0.436,0.145 -0.322,0.077 -0.629,0.247 -0.964,0.269 -0.516,0.033 -0.996,-0.2 -1.262,-0.743 -0.03,-0.072 -0.073,-0.166 -0.101,-0.238 -0.032,-0.119 0.029,-0.199 0.092,-0.107 0.07,0.107 0.16,0.212 0.271,0.279 0.265,0.16 0.546,0.222 0.833,0.194 C 41.412,1.388 41.901,1.205 41.9,1.18 41.896,1.123 40.763,0.562 40.585,0.451 40.508,0.402 40.413,0.313 40.43,0.224 c 0.013,-0.068 0.123,-0.083 0.215,-0.05 0.446,0.161 0.606,0.151 0.966,0.304 0.487,0.209 0.631,0.468 0.716,0.493 m -5.907,-6.81 c -0.068,-0.145 -0.157,-0.394 -0.21,-0.54 -0.018,-0.051 0.022,-0.114 0.086,-0.077 0.36,0.221 0.899,0.493 1.471,0.696 0.518,0.183 0.927,0.302 1.304,0.324 0.058,0.009 0.367,0.551 0.413,0.629 0.065,0.101 0.018,0.135 -0.063,0.119 -0.438,-0.084 -0.777,-0.162 -1.307,-0.113 -0.654,0.057 -1.165,0.557 -1.147,0.754 0.014,0.149 0.478,0.446 0.651,0.419 0.5,-0.079 0.492,-0.519 0.626,-0.524 0.162,-0.006 0.49,0.572 0.51,0.729 0.021,0.172 -0.321,0.582 -0.649,0.601 -0.538,0.032 -1.45,-0.88 -1.808,-1.441 -0.13,-0.206 -0.117,-0.523 0.069,-0.684 0.166,-0.142 0.44,-0.291 0.749,-0.478 -0.151,-0.054 -0.548,-0.286 -0.695,-0.414 m 18.462,2.793 c -0.09,0.85 -0.449,3.473 -0.484,4.147 -0.013,0.369 -0.06,0.687 -0.218,0.402 -0.168,-0.304 -0.262,-0.697 -0.208,-1.234 0.073,-0.926 0.16,-1.621 0.244,-2.285 0.083,-0.672 0.382,-2.674 0.351,-4.092 -0.005,-0.332 0.121,-0.418 0.223,-0.18 0.175,0.403 0.269,1.553 0.092,3.242 m -4.304,-4.393 c -0.117,0.115 -0.218,0.244 -0.314,0.371 l -0.07,0.006 -0.636,-0.641 -0.018,-0.117 c 0.088,-0.125 0.188,-0.242 0.298,-0.353 0.121,-0.124 0.251,-0.229 0.386,-0.323 l 0.125,0.01 0.637,0.639 -0.006,0.078 c -0.145,0.096 -0.279,0.203 -0.402,0.33 m 2.968,3.1 c -0.435,0.027 -2.445,0.064 -3.624,0.714 0.117,0.1 0.372,0.428 0.28,1.252 -0.089,0.825 -0.419,3.18 -0.419,3.18 -0.026,0.246 -0.127,0.482 0.014,0.607 0.141,0.127 0.435,0.342 0.266,0.575 -0.17,0.232 -0.462,0.673 -0.547,0.923 C 49.444,3.123 49.382,3.299 49.275,3.133 49.15,2.942 49.106,2.698 48.938,2.477 48.85,2.36 48.758,2.303 48.858,2.127 48.993,1.889 49.13,1.453 49.156,1.155 c 0.012,-0.157 0.057,-0.494 0.102,-0.817 0,0 0.576,-2.976 0.529,-3.459 0,0 -2.382,-0.084 -2.691,-0.385 l -0.478,-0.742 c -0.041,-0.082 -0.036,-0.172 0.077,-0.154 0.114,0.02 1.578,0.488 3.635,-0.336 -0.243,-0.084 -2.959,-1.246 -5.253,-0.986 -0.344,0.01 -2.755,0.326 -2.954,1.549 -0.027,0.154 -0.067,0.211 -0.149,0.054 -0.074,-0.138 -0.743,-1.136 0.308,-1.853 -0.333,-0.703 -0.927,-1.657 -1.833,-2.03 -0.297,-0.111 -1.622,-0.451 -2.958,0.149 -0.165,0.053 -0.407,-0.08 -0.158,-0.25 0.251,-0.172 2.695,-1.734 4.282,-0.09 0.281,0.287 0.758,1.057 1.12,1.979 1.626,-0.885 4.33,-0.399 4.33,-0.399 0.588,0.125 1.205,0.299 1.842,0.545 0.335,0.137 2.636,1.178 4.195,0.814 0.326,-0.08 0.4,-0.08 0.4,-0.08 0,0 0.28,0.598 0.344,0.743 0.062,0.144 0.135,0.226 -0.3,0.254 m -11.548,2.896 c 0.125,-0.125 0.258,-0.234 0.403,-0.332 L 42.407,-1.853 41.771,-2.49 41.645,-2.5 c -0.135,0.092 -0.264,0.202 -0.386,0.321 -0.111,0.113 -0.21,0.23 -0.298,0.355 l 0.017,0.117 0.637,0.641 0.071,-0.006 c 0.095,-0.127 0.196,-0.256 0.312,-0.371"
         style="fill:#231f20;fill-opacity:1;fill-rule:nonzero;stroke:none"
         transform="matrix(1.3333333,0,0,-1.3333333,401.02867,45.828267)"
         clip-path="url(#clipPath38)"
         id="path39" />
    </g>
  </g>
</svg>
