<?xml version="1.0" encoding="UTF-8" standalone="no"?>
<!-- Created with Inkscape (http://www.inkscape.org/) -->

<svg
   version="1.1"
   id="svg1"
   width="54.253326"
   height="19.766403"
   viewBox="0 0 54.253326 19.766403"
   sodipodi:docname="022___Hafs39__DM.ai"
   xmlns:inkscape="http://www.inkscape.org/namespaces/inkscape"
   xmlns:sodipodi="http://sodipodi.sourceforge.net/DTD/sodipodi-0.dtd"
   xmlns="http://www.w3.org/2000/svg"
   xmlns:svg="http://www.w3.org/2000/svg">
  <defs
     id="defs1">
    <clipPath
       clipPathUnits="userSpaceOnUse"
       id="clipPath18">
      <path
         d="m 315.058,518.238 h 40.69 v -14.825 h -40.69 z"
         transform="translate(-347.07131,-513.55911)"
         id="path18" />
    </clipPath>
    <clipPath
       clipPathUnits="userSpaceOnUse"
       id="clipPath20">
      <path
         d="M 0,547.086 H 382.677 V 0 H 0 Z"
         transform="matrix(1.3333333,0,0,-1.3333333,0,729.448)"
         id="path20" />
    </clipPath>
  </defs>
  <sodipodi:namedview
     id="namedview1"
     pagecolor="#ffffff"
     bordercolor="#666666"
     borderopacity="1.0"
     inkscape:showpageshadow="2"
     inkscape:pageopacity="0.0"
     inkscape:pagecheckerboard="0"
     inkscape:deskcolor="#d1d1d1" />
  <g
     id="layer-MC1"
     inkscape:groupmode="layer"
     inkscape:label="Header &amp; Marks &amp; Page No."
     transform="translate(-420.07733,-38.464275)">
    <g
       id="g19"
       clip-path="url(#clipPath20)">
      <path
         d="M 0,0 C -0.159,0.099 -0.157,0.215 -0.085,0.326 0.153,0.694 0.326,0.683 0.483,0.512 0.738,0.186 0.681,-0.354 0.653,-0.453 0.653,-0.453 0.16,-0.098 0,0 M 0.634,-1.211 C 0.975,-1.37 1.119,-1.732 1.165,-1.599 1.294,-1.221 1.338,-1.009 1.24,-0.905 1.169,-0.83 0.923,-0.646 0.923,-0.646 1.013,-0.434 1.198,0.312 0.891,0.908 0.815,1.036 0.513,1.508 -0.122,0.794 -0.37,0.52 -0.688,-0.177 -0.437,-0.43 c 0.25,-0.251 0.801,-0.606 0.801,-0.606 -0.288,-0.495 -0.982,-0.934 -1.887,-1.578 -0.59,-0.422 -0.37,-0.567 -0.113,-0.445 1.71,0.81 2.003,1.285 2.27,1.848 m -9.808,1.226 c -0.159,0.1 -0.157,0.215 -0.085,0.327 0.239,0.368 0.411,0.357 0.569,0.186 0.254,-0.326 0.197,-0.866 0.17,-0.966 0,0 -0.494,0.356 -0.654,0.453 m 0.634,-1.211 c 0.341,-0.159 0.485,-0.52 0.531,-0.387 0.129,0.378 0.173,0.59 0.075,0.694 -0.071,0.074 -0.317,0.259 -0.317,0.259 0.09,0.212 0.275,0.958 -0.032,1.554 -0.075,0.128 -0.378,0.599 -1.013,-0.115 -0.248,-0.273 -0.566,-0.97 -0.315,-1.223 0.251,-0.251 0.801,-0.607 0.801,-0.607 -0.288,-0.494 -0.982,-0.933 -1.887,-1.578 -0.59,-0.422 -0.369,-0.566 -0.113,-0.444 1.71,0.809 2.003,1.285 2.27,1.847 m 4.568,1.33 c 0.035,0.01 0.077,0.006 0.12,0.045 0.14,0.131 0.257,0.479 0.271,0.598 C -3.597,0.867 -3.923,0.9 -4.017,0.922 -4.339,0.999 -4.645,1.169 -4.979,1.191 -5.497,1.224 -5.977,0.991 -6.243,0.447 -6.272,0.376 -6.315,0.282 -6.344,0.21 c -0.032,-0.119 0.03,-0.199 0.092,-0.107 0.071,0.107 0.16,0.212 0.273,0.279 0.263,0.16 0.544,0.222 0.832,0.194 0.259,-0.025 0.749,-0.208 0.748,-0.233 -0.004,-0.057 -1.138,-0.618 -1.316,-0.729 -0.077,-0.049 -0.172,-0.138 -0.155,-0.227 0.014,-0.069 0.123,-0.083 0.215,-0.05 0.446,0.161 0.606,0.15 0.967,0.304 0.486,0.208 0.63,0.468 0.716,0.493 m -5.908,-6.81 c -0.068,-0.145 -0.157,-0.394 -0.21,-0.54 -0.017,-0.051 0.023,-0.114 0.086,-0.077 0.36,0.221 0.9,0.493 1.471,0.696 0.519,0.183 0.929,0.302 1.304,0.323 0.058,0.01 0.367,0.552 0.414,0.63 0.064,0.101 0.017,0.134 -0.064,0.118 -0.437,-0.084 -0.777,-0.161 -1.307,-0.112 -0.654,0.057 -1.165,0.557 -1.147,0.753 0.015,0.15 0.479,0.447 0.651,0.42 0.501,-0.079 0.494,-0.52 0.627,-0.524 0.161,-0.006 0.49,0.572 0.509,0.729 0.022,0.172 -0.321,0.582 -0.648,0.601 -0.538,0.032 -1.451,-0.88 -1.809,-1.441 -0.13,-0.206 -0.117,-0.523 0.069,-0.684 0.166,-0.142 0.44,-0.291 0.749,-0.478 -0.151,-0.054 -0.547,-0.286 -0.695,-0.414 M 8.582,-3.883 C 8.492,-3.033 8.133,-0.41 8.099,0.264 8.085,0.633 8.038,0.951 7.88,0.666 7.712,0.362 7.618,-0.031 7.672,-0.568 c 0.073,-0.926 0.16,-1.621 0.244,-2.285 0.083,-0.672 0.382,-2.674 0.352,-4.092 -0.006,-0.332 0.12,-0.418 0.222,-0.18 0.175,0.403 0.269,1.553 0.092,3.242 M 4.278,-8.277 C 4.161,-8.161 4.061,-8.032 3.964,-7.906 L 3.896,-7.9 3.258,-8.54 3.24,-8.657 C 3.328,-8.782 3.428,-8.9 3.538,-9.011 3.659,-9.134 3.789,-9.239 3.924,-9.333 l 0.125,0.01 0.638,0.638 -0.006,0.078 c -0.146,0.096 -0.28,0.203 -0.403,0.33 m 2.968,3.1 C 6.812,-5.15 4.801,-5.113 3.622,-4.462 3.739,-4.363 3.994,-4.034 3.902,-3.21 3.813,-2.386 3.483,-0.031 3.483,-0.031 3.457,0.216 3.356,0.452 3.497,0.577 3.638,0.704 3.933,0.919 3.763,1.151 3.593,1.384 3.301,1.825 3.216,2.075 3.146,2.286 3.082,2.462 2.976,2.296 2.851,2.104 2.807,1.86 2.638,1.639 2.55,1.522 2.458,1.466 2.559,1.29 2.694,1.052 2.83,0.616 2.856,0.317 2.868,0.161 2.913,-0.177 2.958,-0.499 c 0,0 0.576,-2.977 0.53,-3.459 0,0 -2.383,-0.084 -2.692,-0.385 L 0.318,-5.085 C 0.278,-5.167 0.282,-5.257 0.396,-5.239 0.509,-5.22 1.974,-4.751 4.03,-5.575 3.787,-5.659 1.071,-6.822 -1.223,-6.562 c -0.343,0.01 -2.755,0.326 -2.954,1.549 -0.027,0.154 -0.067,0.211 -0.149,0.055 -0.073,-0.139 -0.742,-1.137 0.308,-1.854 -0.333,-0.703 -0.926,-1.656 -1.833,-2.029 -0.296,-0.111 -1.621,-0.451 -2.958,0.148 -0.165,0.053 -0.407,-0.08 -0.158,-0.25 0.251,-0.171 2.696,-1.734 4.282,-0.089 0.281,0.287 0.758,1.056 1.122,1.978 1.625,-0.885 4.329,-0.398 4.329,-0.398 0.588,0.125 1.204,0.298 1.841,0.545 0.335,0.136 2.636,1.177 4.195,0.814 0.326,-0.08 0.4,-0.08 0.4,-0.08 0,0 0.28,0.598 0.344,0.742 0.062,0.145 0.136,0.227 -0.3,0.254 m -11.86,3.268 -0.071,0.005 -0.637,-0.64 -0.017,-0.117 c 0.088,-0.125 0.188,-0.243 0.298,-0.356 0.122,-0.119 0.251,-0.228 0.386,-0.32 l 0.126,0.01 0.636,0.636 -0.005,0.078 c -0.146,0.098 -0.279,0.207 -0.404,0.332 -0.116,0.116 -0.217,0.245 -0.312,0.372 m -22.968,-5.939 c -2.776,-1.033 -3.941,0.385 -4.081,0.584 -0.943,1.559 0.303,3.494 0.411,3.638 0.109,0.147 0.211,0.048 0.146,-0.066 -0.399,-0.888 -0.491,-1.433 -0.473,-1.662 0.11,-1.904 2.074,-1.896 2.315,-1.898 1.935,-0.016 3.326,1.379 3.452,1.48 0.127,0.104 0.175,0.141 0.097,0.201 -1.063,0.5 -2.369,0.446 -2.448,0.463 -0.078,0.02 -0.115,0.045 -0.066,0.176 0.047,0.133 0.132,0.418 0.168,0.51 0.624,0.144 1.547,0.555 1.675,0.688 0.351,0.366 -0.864,1.653 -1.033,1.87 0,0 0.168,0.886 0.193,0.988 0.024,0.104 0.043,0.158 0.139,0.062 1.734,-1.868 1.004,-3.374 0.9,-3.608 0,0 0.547,-0.041 0.726,-0.318 0.3,-0.471 0.237,-0.823 0.198,-1.014 -0.191,-0.961 -1.966,-1.961 -2.319,-2.094 m 12.473,3.334 c 0.083,-0.621 -0.277,-1.67 -0.428,-2.016 -0.152,-0.345 -0.705,-0.138 -1.036,-0.068 -0.207,0.043 -0.545,0.227 -0.769,0.358 -0.191,-0.209 -0.443,-0.407 -0.778,-0.553 -0.552,-0.194 -3.716,-1.229 -5.139,-0.028 -0.316,0.237 -0.745,0.692 -0.772,2.254 -0.015,0.759 -0.263,3.715 -0.387,4.253 -0.125,0.539 -0.249,1.188 -0.014,1.905 0.236,0.719 0.319,1.077 0.635,1.243 0.318,0.166 0.525,0.278 0.455,-0.054 -0.067,-0.332 -0.012,-0.443 -0.289,-0.691 -0.275,-0.249 -0.648,-0.498 -0.607,-0.705 0.303,-1.436 0.689,-5.552 0.718,-5.898 0.028,-0.346 0.166,-1.351 1.242,-1.684 1.078,-0.332 2.818,-0.207 4.297,0.428 0.455,0.207 0.87,0.553 0.994,0.733 0.124,0.177 0.248,0.193 0.207,-0.069 -0.018,-0.109 -0.074,-0.343 -0.205,-0.611 0.195,-0.012 0.999,-0.055 1.24,-0.066 0.276,-0.014 0.235,0.384 0.194,0.636 -0.042,0.246 -0.871,5.027 -0.952,5.423 -0.067,0.329 -0.065,0.6 -0.091,0.757 -0.021,0.153 -0.127,0.303 -0.242,0.529 -0.115,0.225 -0.018,0.471 0.027,0.548 0.049,0.074 0.244,0.27 0.386,0.576 0.067,0.144 0.153,-0.025 0.191,-0.179 0.034,-0.141 0.319,-0.61 0.442,-0.769 0.086,-0.11 0.148,-0.301 0.113,-0.379 -0.068,-0.152 -0.27,-0.443 -0.312,-0.497 -0.033,-0.046 -0.062,-0.128 -0.044,-0.306 0,0 0.841,-4.447 0.924,-5.07 m -8.808,-3.709 c -0.045,-0.108 -0.064,-0.134 -0.143,-0.287 -0.078,-0.152 -0.178,-0.186 -0.348,-0.281 -0.172,-0.094 -3.026,-1.234 -3.123,-1.28 -0.316,-0.15 -0.264,-0.046 -0.228,0.056 0.012,0.031 0.034,0.109 0.078,0.26 0.042,0.151 0.108,0.192 0.324,0.289 0.215,0.097 3.021,1.223 3.223,1.327 0.315,0.162 0.262,0.031 0.217,-0.084 m 1.972,11.059 c 0.012,0.03 0.037,0.109 0.087,0.257 0.05,0.148 0.116,0.188 0.335,0.275 0.218,0.089 2.766,1.148 2.975,1.245 0.319,0.147 0.262,0.017 0.211,-0.095 -0.048,-0.105 -0.069,-0.131 -0.154,-0.28 -0.083,-0.15 -0.185,-0.179 -0.36,-0.266 -0.175,-0.088 -2.77,-1.159 -2.87,-1.202 -0.321,-0.136 -0.265,-0.034 -0.224,0.066 m 9.077,-6.263 c 0.178,-1.688 0.082,-2.839 -0.092,-3.243 -0.101,-0.236 -0.228,-0.151 -0.222,0.183 0.03,1.416 -0.266,3.417 -0.35,4.09 -0.085,0.664 -0.172,1.36 -0.247,2.284 -0.051,0.539 0.042,0.931 0.212,1.235 0.156,0.286 0.202,-0.034 0.216,-0.401 0.034,-0.674 0.394,-3.298 0.483,-4.148 m -15.278,4.092 c -0.112,0.112 -0.212,0.232 -0.299,0.355 l 0.017,0.118 0.637,0.639 0.071,-0.005 c 0.096,-0.127 0.196,-0.256 0.313,-0.372 0.124,-0.124 0.258,-0.235 0.402,-0.329 l 0.006,-0.08 -0.638,-0.637 -0.125,-0.009 c -0.134,0.093 -0.262,0.2 -0.384,0.32 m 8.645,-1.056 c 0.108,-0.118 0.219,-0.235 0.346,-0.342 0.134,-0.115 0.277,-0.211 0.428,-0.294 l 0.014,-0.077 -0.578,-0.692 -0.125,-0.018 c -0.142,0.079 -0.28,0.175 -0.411,0.284 -0.119,0.101 -0.23,0.21 -0.329,0.328 l 0.008,0.119 0.579,0.692 z m 0.179,-2.302 -0.024,-0.04 -0.289,0.21 c -0.13,0.107 -0.243,0.231 -0.352,0.353 h -0.077 l -0.599,-0.718 -0.01,-0.124 c 0.106,-0.12 0.217,-0.235 0.345,-0.34 0.132,-0.114 0.275,-0.213 0.424,-0.296 l 0.131,0.022 0.566,0.676 0.221,-0.206 c 0.135,-0.114 0.278,-0.213 0.425,-0.296 l 0.13,0.019 0.6,0.718 -0.019,0.081 c -0.152,0.087 -0.299,0.186 -0.442,0.305 -0.13,0.108 -0.242,0.232 -0.354,0.355 l -0.075,-0.001 z m 0.228,4.516 0.193,0.361 c 0.015,0.036 0.055,0.076 0.078,0.003 0.134,-0.442 0.13,-0.811 0.032,-1.089 -0.102,-0.289 -0.18,-0.454 -0.535,-0.546 -0.278,-0.073 -0.586,0 -0.739,0.251 -0.198,-0.496 -0.588,-0.682 -0.914,-0.634 -0.403,0.06 -0.642,0.498 -0.249,1.283 0.116,0.229 0.195,0.111 0.156,0 -0.184,-0.521 0.01,-0.706 0.273,-0.688 0.42,0.029 0.653,0.273 0.72,0.817 0.011,0.087 -0.04,0.072 0.149,0.226 0.146,0.118 0.126,0.055 0.119,-0.111 -0.011,-0.231 0.032,-0.407 0.145,-0.5 0.178,-0.147 0.422,-0.11 0.648,0.108 0.006,0.098 -0.041,0.262 -0.097,0.407 -0.018,0.043 10e-4,0.072 0.021,0.112"
         style="fill:#231f20;fill-opacity:1;fill-rule:nonzero;stroke:none"
         transform="matrix(1.3333333,0,0,-1.3333333,462.76173,44.702533)"
         clip-path="url(#clipPath18)"
         id="path19" />
    </g>
  </g>
</svg>
