<?xml version="1.0" encoding="UTF-8" standalone="no"?>
<!-- Created with Inkscape (http://www.inkscape.org/) -->

<svg
   version="1.1"
   id="svg1"
   width="66.845337"
   height="19.252876"
   viewBox="0 0 66.845337 19.252876"
   xmlns="http://www.w3.org/2000/svg"
   xmlns:svg="http://www.w3.org/2000/svg">
  <defs
     id="defs1">
    <clipPath
       clipPathUnits="userSpaceOnUse"
       id="clipPath30">
      <path
         d="m 305.614,516.626 h 50.134 v -14.44 h -50.134 z"
         transform="translate(-322.24121,-513.22561)"
         id="path30" />
    </clipPath>
    <clipPath
       clipPathUnits="userSpaceOnUse"
       id="clipPath32">
      <path
         d="M 0,547.086 H 382.677 V 0 H 0 Z"
         transform="matrix(1.3333333,0,0,-1.3333333,0,729.448)"
         id="path32" />
    </clipPath>
  </defs>
  <g
     id="layer-MC1"
     transform="translate(-407.48532,-40.613346)">
    <g
       id="g31"
       clip-path="url(#clipPath32)">
      <path
         d="m 0,0 -0.58,-0.694 -0.007,-0.118 c 0.1,-0.117 0.209,-0.227 0.329,-0.328 0.131,-0.108 0.27,-0.204 0.41,-0.284 l 0.125,0.019 0.579,0.692 -0.012,0.077 C 0.691,-0.553 0.549,-0.458 0.414,-0.342 0.288,-0.238 0.177,-0.118 0.068,0 Z m 0.247,-2.303 -0.023,-0.041 -0.289,0.211 c -0.13,0.108 -0.245,0.232 -0.353,0.354 l -0.077,-0.001 -0.6,-0.718 -0.008,-0.124 c 0.105,-0.121 0.216,-0.236 0.343,-0.341 0.133,-0.114 0.276,-0.212 0.426,-0.296 l 0.13,0.024 0.566,0.674 0.221,-0.206 C 0.719,-2.88 0.861,-2.979 1.009,-3.063 l 0.131,0.02 0.598,0.718 -0.018,0.079 c -0.153,0.089 -0.3,0.188 -0.443,0.307 -0.131,0.108 -0.242,0.231 -0.353,0.355 H 0.85 Z m -14.485,2.346 -0.071,0.004 -0.638,-0.64 -0.017,-0.118 c 0.087,-0.123 0.187,-0.242 0.298,-0.353 0.121,-0.122 0.25,-0.229 0.385,-0.322 l 0.125,0.009 0.638,0.637 -0.005,0.08 c -0.145,0.096 -0.28,0.205 -0.403,0.33 -0.119,0.116 -0.217,0.244 -0.312,0.373 m 1.636,2.526 c 0.173,0.093 0.274,0.123 0.357,0.275 0.079,0.152 0.099,0.178 0.144,0.286 0.049,0.114 0.103,0.242 -0.213,0.088 -0.207,-0.101 -3.664,-1.582 -3.88,-1.675 -0.213,-0.094 -0.28,-0.136 -0.324,-0.285 -0.044,-0.148 -0.068,-0.229 -0.079,-0.261 -0.041,-0.1 -0.092,-0.203 0.225,-0.059 0.094,0.046 3.6,1.54 3.77,1.631 M 7.627,-8.144 C 7.425,-8.244 4.651,-9.449 4.433,-9.544 4.215,-9.638 4.15,-9.68 4.104,-9.829 c -0.047,-0.15 -0.069,-0.23 -0.08,-0.26 -0.04,-0.099 -0.092,-0.199 0.224,-0.058 0.1,0.043 2.923,1.262 3.096,1.354 0.172,0.093 0.275,0.124 0.356,0.276 0.079,0.152 0.1,0.179 0.144,0.286 0.049,0.112 0.104,0.245 -0.217,0.087 M 8.824,1.145 C 8.799,1.398 8.76,1.442 8.904,1.571 9.047,1.7 9.371,1.961 9.2,2.202 9.025,2.439 8.723,2.852 8.637,3.107 8.564,3.325 8.5,3.504 8.391,3.333 8.264,3.141 8.211,3.026 8.037,2.799 7.945,2.68 7.854,2.623 7.955,2.442 8.094,2.198 8.275,1.784 8.301,1.479 8.314,1.319 8.354,0.971 8.404,0.643 8.469,0.213 9.246,-5.418 9.15,-5.537 9.057,-5.656 8.439,-6.179 7.375,-5.586 l -0.1,0.063 c 0.772,0.551 0.704,1.082 0.58,1.279 -0.224,0.358 -2.265,1.496 -3.425,-0.344 -0.127,-0.187 -0.223,-0.63 0.047,-0.468 0.23,0.138 0.826,0.172 1.46,-0.227 L 6.086,-5.381 C 4.578,-6.359 3.236,-5.729 2.797,-5.455 2.834,-5.283 2.859,-5.142 2.863,-5.068 2.877,-4.77 2.688,-4.74 2.605,-5.042 2.523,-5.339 2.479,-5.727 2.332,-6.02 c -0.26,-0.519 -1.008,-0.114 -1.32,0.026 0.09,0.262 0.164,0.569 0.22,0.922 0.034,0.203 -0.091,0.373 -0.228,-0.053 -0.133,-0.414 -0.613,-1.646 -2.736,-0.936 0.029,0.249 0.179,0.805 -0.284,0.567 -0.504,-0.26 -1.724,-0.722 -2.427,-0.898 -0.461,-0.115 -0.534,-0.186 -0.463,-0.389 0.07,-0.201 0.193,-0.742 0.437,-0.664 0.051,0.018 0.137,0.045 0.242,0.08 -0.207,-0.549 -0.935,-2.24 -2.246,-2.78 -0.308,-0.118 -1.64,-0.487 -3.034,0.138 -0.173,0.054 -0.427,-0.084 -0.165,-0.263 0.26,-0.177 3.027,-1.669 4.682,0.05 0.381,0.386 0.922,1.64 1.276,2.982 v 0.033 c 0.28,0.09 0.526,0.17 0.526,0.17 0.153,0.053 0.756,0.311 1.092,0.457 1.035,-0.765 2.037,-1.027 2.694,-0.214 0.818,-0.755 1.414,-0.592 1.668,-0.204 0.105,0.16 0.222,0.465 0.324,0.787 1.301,-1.281 3.535,-0.047 4.039,0.309 0.172,-0.184 0.334,-0.371 0.379,-0.463 0.084,-0.168 0.558,-0.635 1.48,-0.475 0.311,0.053 1.104,0.42 1.055,1.813 C 9.516,-3.131 8.918,0.469 8.918,0.469 8.873,0.764 8.824,1.145 8.824,1.145 m -20.017,-4.629 c -0.127,0.588 -0.766,1.684 -0.766,1.684 -0.104,0.183 -0.197,0.304 -0.242,0.195 -0.045,-0.106 -0.197,-0.947 -0.197,-0.947 0.226,-0.327 1.105,-2.093 1.025,-2.401 -0.082,-0.308 -0.799,-1.859 -3.065,-1.74 -0.235,0.012 -2.537,0.346 -1.394,3.053 0.041,0.095 -0.061,0.291 -0.207,0.068 -0.191,-0.289 -1.324,-3.457 1.068,-4.045 0.407,-0.099 2.219,-0.273 3.533,1.295 0.157,0.188 0.612,1.131 0.245,2.838 m 3.617,-0.971 c -0.184,0.34 -0.449,0.601 -0.625,0.754 -0.342,0.291 -0.645,-0.133 -0.701,-0.314 -0.192,-0.594 0.82,-0.492 1.039,-0.477 0.093,0.008 0.19,0.022 0.287,0.037 m -1.362,-4.099 c -1.576,-0.654 -3.572,-0.227 -3.775,-0.182 -0.406,0.094 -0.232,0.359 0.111,0.307 3.625,-0.483 5.038,2.179 5.254,2.865 l 0.032,0.176 c -0.643,-0.129 -1.295,-0.137 -1.53,-0.065 -0.933,0.291 -0.756,1.694 0.008,2.612 0.775,0.931 1.52,-0.561 1.641,-0.864 0.822,-2.08 -0.375,-3.525 -0.504,-3.701 -0.36,-0.486 -0.74,-0.943 -1.237,-1.148 m 20.178,7.012 c 0.108,-0.788 0.481,-3.126 0.506,-4.792 0.006,-0.393 0.137,-0.489 0.229,-0.208 0.158,0.484 0.209,1.839 -0.033,3.814 -0.12,0.997 -0.579,4.068 -0.639,4.859 C 11.275,2.563 11.217,2.934 11.07,2.593 10.913,2.231 10.836,1.768 10.909,1.135 11.015,0.051 11.131,-0.761 11.24,-1.542 m -15.075,1.54 c 0.027,0.1 0.085,0.64 -0.17,0.966 -0.157,0.171 -0.33,0.182 -0.568,-0.186 -0.073,-0.112 -0.074,-0.227 0.085,-0.326 0.16,-0.098 0.653,-0.454 0.653,-0.454 m -2.289,-2.605 c -0.257,-0.122 -0.478,0.022 0.112,0.444 0.906,0.644 1.6,1.084 1.888,1.578 0,0 -0.55,0.356 -0.801,0.606 -0.252,0.254 0.067,0.951 0.315,1.224 0.634,0.713 0.937,0.243 1.012,0.115 0.308,-0.596 0.122,-1.342 0.033,-1.554 0,0 0.246,-0.185 0.317,-0.259 0.098,-0.104 0.054,-0.317 -0.075,-0.694 -0.046,-0.133 -0.191,0.228 -0.531,0.388 -0.267,-0.563 -0.56,-1.038 -2.27,-1.848 M 0.989,1.646 C 1.024,1.657 1.066,1.653 1.109,1.693 1.249,1.824 1.366,2.171 1.38,2.289 1.364,2.38 1.038,2.412 0.944,2.435 0.622,2.512 0.315,2.682 -0.02,2.703 -0.536,2.737 -1.016,2.504 -1.282,1.96 c -0.03,-0.071 -0.072,-0.166 -0.1,-0.237 -0.033,-0.119 0.028,-0.2 0.091,-0.107 0.071,0.107 0.16,0.211 0.271,0.279 0.265,0.16 0.546,0.222 0.833,0.194 C 0.073,2.063 0.562,1.881 0.562,1.855 0.558,1.799 -0.576,1.238 -0.754,1.125 -0.831,1.077 -0.925,0.989 -0.909,0.9 -0.896,0.831 -0.786,0.817 -0.694,0.85 -0.248,1.011 -0.088,1 0.272,1.154 0.759,1.363 0.903,1.621 0.989,1.646 M 24.83,0.322 c -0.159,0.099 -0.157,0.214 -0.085,0.325 0.238,0.369 0.411,0.358 0.568,0.186 0.255,-0.325 0.198,-0.865 0.17,-0.964 0,0 -0.493,0.355 -0.653,0.453 m 0.634,-1.211 c 0.341,-0.159 0.486,-0.521 0.531,-0.388 0.129,0.378 0.173,0.59 0.075,0.694 -0.071,0.075 -0.317,0.259 -0.317,0.259 0.09,0.212 0.275,0.958 -0.032,1.553 -0.075,0.128 -0.378,0.6 -1.013,-0.113 -0.248,-0.274 -0.566,-0.971 -0.315,-1.224 0.251,-0.251 0.801,-0.606 0.801,-0.606 -0.288,-0.495 -0.982,-0.934 -1.887,-1.579 -0.59,-0.421 -0.37,-0.566 -0.113,-0.444 1.71,0.81 2.003,1.285 2.27,1.848 m -9.808,1.226 c -0.159,0.1 -0.157,0.215 -0.085,0.326 0.239,0.369 0.411,0.358 0.569,0.187 0.255,-0.327 0.197,-0.866 0.17,-0.966 0,0 -0.494,0.356 -0.654,0.453 m 0.634,-1.212 c 0.341,-0.158 0.485,-0.52 0.531,-0.386 0.129,0.378 0.173,0.589 0.075,0.694 -0.071,0.074 -0.317,0.259 -0.317,0.259 0.09,0.212 0.275,0.958 -0.032,1.553 -0.075,0.128 -0.378,0.6 -1.013,-0.114 -0.248,-0.274 -0.566,-0.97 -0.315,-1.223 0.251,-0.251 0.802,-0.607 0.802,-0.607 -0.289,-0.494 -0.983,-0.933 -1.888,-1.578 -0.59,-0.422 -0.369,-0.566 -0.112,-0.444 1.709,0.809 2.002,1.284 2.269,1.846 m 4.568,1.33 c 0.036,0.01 0.078,0.006 0.121,0.045 0.14,0.132 0.256,0.479 0.27,0.598 -0.016,0.09 -0.342,0.123 -0.436,0.146 -0.322,0.077 -0.628,0.247 -0.963,0.268 -0.517,0.033 -0.996,-0.2 -1.263,-0.743 -0.029,-0.071 -0.072,-0.166 -0.101,-0.237 -0.032,-0.12 0.03,-0.2 0.092,-0.108 0.071,0.108 0.16,0.212 0.272,0.279 0.264,0.161 0.546,0.222 0.833,0.194 0.259,-0.025 0.749,-0.208 0.748,-0.233 -0.004,-0.057 -1.138,-0.618 -1.316,-0.729 -0.077,-0.049 -0.172,-0.138 -0.155,-0.227 0.014,-0.068 0.123,-0.083 0.215,-0.049 0.446,0.161 0.606,0.15 0.967,0.303 0.486,0.209 0.63,0.468 0.716,0.493 M 14.951,-6.354 C 14.882,-6.5 14.793,-6.75 14.74,-6.895 c -0.017,-0.051 0.023,-0.113 0.087,-0.076 0.36,0.22 0.899,0.492 1.47,0.695 0.519,0.184 0.928,0.303 1.305,0.324 0.058,0.009 0.366,0.551 0.413,0.629 0.064,0.102 0.017,0.135 -0.063,0.119 -0.438,-0.084 -0.778,-0.162 -1.307,-0.113 -0.655,0.058 -1.166,0.558 -1.148,0.754 0.015,0.149 0.479,0.446 0.651,0.419 0.501,-0.078 0.493,-0.519 0.627,-0.524 0.162,-0.005 0.49,0.573 0.51,0.73 0.021,0.172 -0.322,0.581 -0.649,0.6 -0.538,0.033 -1.45,-0.879 -1.808,-1.441 -0.131,-0.206 -0.118,-0.522 0.068,-0.684 0.167,-0.141 0.44,-0.291 0.75,-0.478 -0.152,-0.054 -0.548,-0.286 -0.695,-0.413 m 18.461,2.792 c -0.09,0.85 -0.449,3.473 -0.483,4.147 -0.014,0.369 -0.06,0.687 -0.219,0.403 -0.168,-0.305 -0.262,-0.698 -0.208,-1.235 0.073,-0.925 0.16,-1.621 0.244,-2.285 0.083,-0.672 0.382,-2.674 0.352,-4.093 -0.006,-0.331 0.12,-0.417 0.222,-0.178 0.175,0.402 0.269,1.552 0.092,3.241 m -4.304,-4.393 c -0.117,0.116 -0.217,0.244 -0.314,0.371 l -0.069,0.006 -0.637,-0.64 -0.018,-0.118 c 0.089,-0.125 0.188,-0.242 0.299,-0.353 0.12,-0.124 0.25,-0.229 0.385,-0.322 l 0.125,0.009 0.638,0.639 -0.006,0.078 c -0.146,0.096 -0.28,0.202 -0.403,0.33 m 2.969,3.1 c -0.435,0.027 -2.446,0.063 -3.625,0.715 0.117,0.098 0.373,0.427 0.28,1.252 -0.088,0.824 -0.419,3.179 -0.419,3.179 -0.026,0.246 -0.126,0.482 0.014,0.607 0.141,0.128 0.436,0.343 0.266,0.575 -0.17,0.232 -0.462,0.673 -0.547,0.923 -0.071,0.211 -0.134,0.388 -0.24,0.222 C 27.681,2.426 27.637,2.182 27.468,1.961 27.38,1.844 27.288,1.787 27.389,1.612 c 0.135,-0.239 0.272,-0.675 0.298,-0.973 0.011,-0.157 0.057,-0.494 0.101,-0.816 0,0 0.576,-2.977 0.53,-3.459 0,0 -2.382,-0.084 -2.692,-0.385 l -0.478,-0.742 c -0.04,-0.082 -0.036,-0.173 0.078,-0.155 0.113,0.02 1.578,0.489 3.634,-0.336 -0.242,-0.084 -2.959,-1.246 -5.253,-0.986 -0.343,0.01 -2.754,0.326 -2.954,1.549 -0.027,0.154 -0.067,0.211 -0.149,0.055 -0.073,-0.139 -0.742,-1.137 0.308,-1.854 -0.333,-0.703 -0.926,-1.656 -1.833,-2.03 -0.296,-0.111 -1.621,-0.45 -2.958,0.149 -0.165,0.053 -0.407,-0.08 -0.158,-0.25 0.251,-0.172 2.696,-1.734 4.283,-0.09 0.28,0.288 0.757,1.057 1.12,1.979 1.626,-0.885 4.33,-0.399 4.33,-0.399 0.588,0.125 1.204,0.298 1.841,0.545 0.335,0.137 2.636,1.178 4.195,0.815 0.326,-0.081 0.4,-0.081 0.4,-0.081 0,0 0.281,0.598 0.344,0.743 0.062,0.145 0.136,0.227 -0.299,0.254 m -11.549,2.896 c 0.125,-0.125 0.258,-0.234 0.404,-0.333 l 0.005,-0.077 -0.636,-0.637 -0.126,-0.009 c -0.135,0.092 -0.264,0.201 -0.386,0.32 -0.11,0.112 -0.21,0.231 -0.298,0.356 l 0.017,0.117 0.638,0.639 0.07,-0.005 c 0.096,-0.126 0.196,-0.255 0.312,-0.371"
         style="fill:#231f20;fill-opacity:1;fill-rule:nonzero;stroke:none"
         transform="matrix(1.3333333,0,0,-1.3333333,429.65493,45.1472)"
         clip-path="url(#clipPath30)"
         id="path31" />
    </g>
  </g>
</svg>
