<?xml version="1.0" encoding="UTF-8" standalone="no"?>
<!-- Created with Inkscape (http://www.inkscape.org/) -->

<svg
   width="17.922153mm"
   height="6.9146843mm"
   viewBox="0 0 17.922153 6.9146841"
   version="1.1"
   id="svg1"
   xml:space="preserve"
   xmlns="http://www.w3.org/2000/svg"
   xmlns:svg="http://www.w3.org/2000/svg"><defs
     id="defs1" /><g
     id="layer1"
     transform="translate(-352.04325,-44.079279)"><g
       id="g48"
       transform="translate(121.35032,-28.883294)"><path
         d="m 236.63953,75.359833 -0.20461,0.24483 -0.002,0.0416 c 0.0353,0.0413 0.0737,0.0801 0.11606,0.11571 0.0462,0.0381 0.0952,0.072 0.14464,0.10019 l 0.0441,-0.007 0.20426,-0.24412 -0.004,-0.0272 c -0.054,-0.0293 -0.10407,-0.0628 -0.15169,-0.10372 -0.0444,-0.0367 -0.0836,-0.079 -0.12206,-0.12065 z m 0.0871,0.81245 -0.008,0.0145 -0.10195,-0.0744 c -0.0459,-0.0381 -0.0864,-0.0818 -0.12453,-0.12488 l -0.0272,3.5e-4 -0.21166,0.25329 -0.003,0.0438 c 0.037,0.0427 0.0762,0.0832 0.121,0.1203 0.0469,0.0402 0.0974,0.0748 0.15028,0.10442 l 0.0459,-0.008 0.19967,-0.23777 0.078,0.0727 c 0.048,0.0399 0.0981,0.0748 0.15028,0.10442 l 0.0462,-0.007 0.21096,-0.25329 -0.006,-0.0279 c -0.054,-0.0314 -0.10584,-0.0663 -0.15628,-0.1083 -0.0462,-0.0381 -0.0854,-0.0815 -0.12453,-0.12524 h -0.0261 z m -5.10999,-0.82762 -0.0251,-10e-4 -0.22507,0.22578 -0.006,0.0416 c 0.0307,0.0434 0.066,0.0854 0.10513,0.12453 0.0427,0.043 0.0882,0.0808 0.13582,0.1136 l 0.0441,-0.003 0.22507,-0.22472 -0.002,-0.0282 c -0.0512,-0.0339 -0.0988,-0.0723 -0.14217,-0.11642 -0.042,-0.0409 -0.0766,-0.0861 -0.11007,-0.13159 m 0.57714,-0.89111 c 0.061,-0.0328 0.0967,-0.0434 0.12595,-0.097 0.0279,-0.0536 0.0349,-0.0628 0.0508,-0.1009 0.0173,-0.0402 0.0363,-0.0854 -0.0752,-0.0311 -0.073,0.0356 -1.29257,0.5581 -1.36877,0.59091 -0.0752,0.0332 -0.0988,0.048 -0.1143,0.10054 -0.0155,0.0522 -0.024,0.0808 -0.0279,0.0921 -0.0145,0.0353 -0.0325,0.0716 0.0794,0.0208 0.0332,-0.0162 1.27,-0.54328 1.32997,-0.57538 m 7.13635,3.77931 c -0.0713,0.0353 -1.04987,0.46037 -1.12678,0.49388 -0.0769,0.0332 -0.0998,0.048 -0.11606,0.10055 -0.0166,0.0529 -0.0243,0.0811 -0.0282,0.0917 -0.0141,0.0349 -0.0325,0.0702 0.079,0.0205 0.0353,-0.0152 1.03117,-0.44521 1.0922,-0.47766 0.0607,-0.0328 0.097,-0.0437 0.12559,-0.0974 0.0279,-0.0536 0.0353,-0.0632 0.0508,-0.1009 0.0173,-0.0395 0.0367,-0.0864 -0.0765,-0.0307 m 0.42227,-3.27695 c -0.009,-0.0893 -0.0226,-0.10478 0.0282,-0.15028 0.0505,-0.0455 0.16475,-0.13759 0.10442,-0.22261 -0.0617,-0.0836 -0.16827,-0.2293 -0.19861,-0.31926 -0.0257,-0.0769 -0.0483,-0.14005 -0.0868,-0.0797 -0.0448,0.0677 -0.0635,0.1083 -0.12489,0.18838 -0.0324,0.042 -0.0645,0.0621 -0.0289,0.12594 0.049,0.0861 0.11289,0.23213 0.12206,0.33973 0.005,0.0564 0.0187,0.17921 0.0363,0.29492 0.0229,0.1517 0.29704,2.13819 0.26318,2.18017 -0.0328,0.042 -0.25083,0.22648 -0.62618,0.0173 l -0.0353,-0.0222 c 0.27234,-0.19438 0.24835,-0.38171 0.20461,-0.4512 -0.079,-0.1263 -0.79904,-0.52776 -1.20827,0.12135 -0.0448,0.066 -0.0787,0.22225 0.0166,0.1651 0.0811,-0.0487 0.29139,-0.0607 0.51505,0.0801 l 0.0526,0.0346 c -0.53198,0.34502 -1.00541,0.12277 -1.16028,0.0261 0.013,-0.0607 0.0219,-0.11042 0.0233,-0.13652 0.005,-0.10513 -0.0617,-0.11571 -0.091,-0.009 -0.0289,0.10477 -0.0444,0.24165 -0.0963,0.34501 -0.0917,0.18309 -0.3556,0.0402 -0.46567,-0.009 0.0318,-0.0924 0.0579,-0.20073 0.0776,-0.32526 0.012,-0.0716 -0.0321,-0.13158 -0.0804,0.0187 -0.0469,0.14605 -0.21625,0.58067 -0.9652,0.3302 0.0102,-0.0878 0.0632,-0.28398 -0.10019,-0.20002 -0.1778,0.0917 -0.60819,0.2547 -0.85619,0.31679 -0.16263,0.0406 -0.18839,0.0656 -0.16334,0.13723 0.0247,0.0709 0.0681,0.26176 0.15417,0.23425 0.018,-0.006 0.0483,-0.0159 0.0854,-0.0282 -0.073,0.19367 -0.32985,0.79022 -0.79234,0.98072 -0.10866,0.0416 -0.57856,0.1718 -1.07033,-0.0487 -0.061,-0.019 -0.15064,0.0296 -0.0582,0.0928 0.0917,0.0624 1.06786,0.58879 1.65171,-0.0176 0.13441,-0.13617 0.32526,-0.57856 0.45014,-1.05198 v -0.0116 c 0.0988,-0.0318 0.18556,-0.06 0.18556,-0.06 0.054,-0.0187 0.2667,-0.10972 0.38524,-0.16122 0.36512,0.26987 0.71861,0.3623 0.95038,0.0755 0.28857,0.26634 0.49883,0.20884 0.58843,0.072 0.037,-0.0564 0.0783,-0.16404 0.1143,-0.27764 0.45897,0.45191 1.24707,0.0166 1.42487,-0.10901 0.0607,0.0649 0.11783,0.13088 0.13371,0.16334 0.0296,0.0593 0.19685,0.22401 0.52211,0.16757 0.10971,-0.0187 0.38946,-0.14817 0.37218,-0.63959 -0.01,-0.66816 -0.22049,-1.93816 -0.22049,-1.93816 -0.0159,-0.10407 -0.0332,-0.23848 -0.0332,-0.23848 m -7.06155,1.63301 c -0.0448,-0.20743 -0.27023,-0.59408 -0.27023,-0.59408 -0.0367,-0.0646 -0.0695,-0.10724 -0.0854,-0.0688 -0.0159,0.0374 -0.0695,0.33408 -0.0695,0.33408 0.0797,0.11536 0.38982,0.73837 0.3616,0.84702 -0.0289,0.10866 -0.28187,0.65582 -1.08127,0.61384 -0.0829,-0.004 -0.89499,-0.12206 -0.49177,-1.07703 0.0145,-0.0335 -0.0215,-0.10266 -0.073,-0.024 -0.0674,0.10195 -0.46708,1.21955 0.37676,1.42698 0.14358,0.0349 0.78282,0.0963 1.24637,-0.45685 0.0554,-0.0663 0.2159,-0.39899 0.0864,-1.00118 m 1.27599,0.34255 c -0.0649,-0.11995 -0.15839,-0.21202 -0.22048,-0.266 -0.12065,-0.10265 -0.22754,0.0469 -0.2473,0.11078 -0.0677,0.20955 0.28928,0.17356 0.36654,0.16827 0.0328,-0.003 0.067,-0.008 0.10124,-0.013 m -0.48048,1.44604 c -0.55598,0.23071 -1.26012,0.0801 -1.33173,0.0642 -0.14323,-0.0332 -0.0819,-0.12665 0.0392,-0.10831 1.27882,0.1704 1.7773,-0.7687 1.8535,-1.0107 l 0.0113,-0.0621 c -0.22684,0.0455 -0.45685,0.0483 -0.53975,0.0229 -0.32914,-0.10266 -0.2667,-0.59761 0.003,-0.92146 0.2734,-0.32843 0.53622,0.19791 0.57891,0.3048 0.28998,0.73378 -0.13229,1.24354 -0.1778,1.30563 -0.127,0.17145 -0.26106,0.33267 -0.43639,0.40499 m 7.11835,-2.47368 c 0.0381,0.27799 0.16969,1.10279 0.17851,1.69051 0.002,0.13865 0.0483,0.17251 0.0808,0.0734 0.0557,-0.17074 0.0737,-0.64875 -0.0116,-1.34549 -0.0423,-0.35172 -0.20426,-1.4351 -0.22542,-1.71415 -0.01,-0.1524 -0.0303,-0.28328 -0.0822,-0.16298 -0.0554,0.12771 -0.0825,0.29104 -0.0568,0.51435 0.0374,0.38241 0.0783,0.66887 0.11677,0.94439 m -5.31812,-0.54328 c 0.01,-0.0353 0.03,-0.22578 -0.06,-0.34079 -0.0554,-0.0603 -0.11641,-0.0642 -0.20037,0.0656 -0.0258,0.0395 -0.0261,0.0801 0.03,0.11501 0.0565,0.0346 0.23037,0.16016 0.23037,0.16016 m -0.80751,0.91899 c -0.0907,0.043 -0.16863,-0.008 0.0395,-0.15664 0.31962,-0.22718 0.56444,-0.38241 0.66604,-0.55668 0,0 -0.19402,-0.12559 -0.28257,-0.21378 -0.0889,-0.0896 0.0236,-0.33549 0.11112,-0.4318 0.22366,-0.25153 0.33056,-0.0857 0.35701,-0.0406 0.10866,0.21025 0.043,0.47343 0.0117,0.54821 0,0 0.0868,0.0653 0.11183,0.0914 0.0346,0.0367 0.019,0.11183 -0.0265,0.24483 -0.0162,0.0469 -0.0674,-0.0804 -0.18733,-0.13688 -0.0942,0.19862 -0.19755,0.36619 -0.8008,0.65194 m 2.50931,-1.50037 c 0.0123,-0.004 0.0272,-0.002 0.0423,-0.0166 0.0494,-0.0462 0.0907,-0.16862 0.0956,-0.21025 -0.006,-0.0321 -0.12065,-0.0434 -0.15381,-0.0515 -0.11359,-0.0272 -0.2219,-0.0871 -0.34008,-0.0945 -0.18203,-0.012 -0.35136,0.0702 -0.4452,0.26211 -0.0106,0.0251 -0.0254,0.0586 -0.0353,0.0836 -0.0116,0.042 0.01,0.0706 0.0321,0.0378 0.025,-0.0378 0.0564,-0.0744 0.0956,-0.0984 0.0935,-0.0564 0.19261,-0.0783 0.29386,-0.0684 0.0917,0.009 0.26423,0.0734 0.26423,0.0825 -0.001,0.0198 -0.40146,0.21767 -0.46426,0.25753 -0.0272,0.0169 -0.0603,0.048 -0.0547,0.0794 0.005,0.0243 0.0434,0.0293 0.0759,0.0176 0.15734,-0.0568 0.21378,-0.0529 0.34078,-0.10724 0.17181,-0.0737 0.22261,-0.16475 0.25295,-0.17357 m 8.41057,0.46708 c -0.0561,-0.0349 -0.0554,-0.0755 -0.03,-0.11466 0.084,-0.13017 0.14499,-0.12629 0.20037,-0.0656 0.09,0.11466 0.0699,0.30516 0.06,0.34008 0,0 -0.17392,-0.12523 -0.23037,-0.15981 m 0.22366,0.42722 c 0.1203,0.0561 0.17145,0.1838 0.18733,0.13688 0.0455,-0.13335 0.061,-0.20814 0.0265,-0.24483 -0.025,-0.0265 -0.11183,-0.0914 -0.11183,-0.0914 0.0318,-0.0748 0.097,-0.33796 -0.0113,-0.54787 -0.0265,-0.0452 -0.13335,-0.21166 -0.35737,0.0399 -0.0875,0.0967 -0.19967,0.34255 -0.11112,0.4318 0.0885,0.0885 0.28257,0.21379 0.28257,0.21379 -0.1016,0.17462 -0.34643,0.32949 -0.66569,0.55703 -0.20814,0.14852 -0.13053,0.19968 -0.0399,0.15664 0.60325,-0.28575 0.70661,-0.45332 0.8008,-0.65194 m -3.46004,-0.4325 c -0.0561,-0.0353 -0.0554,-0.0759 -0.03,-0.11501 0.0843,-0.13017 0.14499,-0.12629 0.20073,-0.066 0.09,0.11536 0.0695,0.30551 0.06,0.34079 0,0 -0.17427,-0.12559 -0.23071,-0.15981 m 0.22366,0.42757 c 0.1203,0.0557 0.1711,0.18344 0.18732,0.13617 0.0455,-0.13335 0.061,-0.20779 0.0265,-0.24483 -0.025,-0.0261 -0.11183,-0.0914 -0.11183,-0.0914 0.0318,-0.0748 0.097,-0.33796 -0.0113,-0.54786 -0.0265,-0.0452 -0.13335,-0.21167 -0.35736,0.0402 -0.0875,0.0967 -0.19967,0.34219 -0.11113,0.43144 0.0885,0.0885 0.28293,0.21414 0.28293,0.21414 -0.10195,0.17427 -0.34678,0.32914 -0.66604,0.55668 -0.20814,0.14887 -0.13018,0.19967 -0.0395,0.15664 0.60289,-0.2854 0.70626,-0.45297 0.80045,-0.65123 m 1.61149,-0.4692 c 0.0127,-0.004 0.0275,-0.002 0.0427,-0.0159 0.0494,-0.0466 0.0903,-0.16898 0.0952,-0.21096 -0.006,-0.0318 -0.12065,-0.0434 -0.15381,-0.0515 -0.11359,-0.0272 -0.22154,-0.0871 -0.33972,-0.0945 -0.18239,-0.0116 -0.35137,0.0706 -0.44556,0.26212 -0.0102,0.025 -0.0254,0.0586 -0.0356,0.0836 -0.0113,0.0423 0.0106,0.0706 0.0324,0.0381 0.0251,-0.0381 0.0565,-0.0748 0.096,-0.0984 0.0931,-0.0568 0.19262,-0.0783 0.29386,-0.0684 0.0914,0.009 0.26423,0.0734 0.26388,0.0822 -10e-4,0.0201 -0.40146,0.21801 -0.46425,0.25717 -0.0272,0.0173 -0.0607,0.0487 -0.0547,0.0801 0.005,0.024 0.0434,0.0293 0.0758,0.0173 0.15734,-0.0568 0.21379,-0.0529 0.34114,-0.10689 0.17145,-0.0737 0.22225,-0.1651 0.25259,-0.17392 m -2.08386,2.40206 c -0.0243,0.0515 -0.0557,0.1397 -0.0744,0.19086 -0.006,0.018 0.008,0.0399 0.0307,0.0268 0.127,-0.0776 0.31714,-0.17357 0.51858,-0.24518 0.18309,-0.0649 0.32738,-0.1069 0.46037,-0.1143 0.0205,-0.003 0.12912,-0.19438 0.1457,-0.2219 0.0226,-0.036 0.006,-0.0476 -0.0222,-0.042 -0.15452,0.0296 -0.27447,0.0571 -0.46108,0.0399 -0.23107,-0.0205 -0.41134,-0.19685 -0.40499,-0.266 0.005,-0.0526 0.16898,-0.15734 0.22965,-0.14781 0.17675,0.0275 0.17392,0.18309 0.2212,0.18486 0.0572,0.002 0.17286,-0.20215 0.17991,-0.25753 0.007,-0.0607 -0.11359,-0.20497 -0.22895,-0.21167 -0.18979,-0.0116 -0.51153,0.31009 -0.63782,0.50835 -0.0462,0.0727 -0.0416,0.18415 0.024,0.2413 0.0589,0.0497 0.15522,0.10266 0.26458,0.16863 -0.0536,0.019 -0.19332,0.1009 -0.24518,0.1457 m 6.51263,-0.98496 c -0.0317,-0.29986 -0.1584,-1.22519 -0.17039,-1.46297 -0.005,-0.13017 -0.0212,-0.24235 -0.0773,-0.14217 -0.0593,0.1076 -0.0924,0.24624 -0.0734,0.43568 0.0258,0.32632 0.0565,0.57186 0.0861,0.8061 0.0293,0.23707 0.13476,0.94333 0.12418,1.44392 -0.002,0.11677 0.0423,0.14711 0.0783,0.0628 0.0617,-0.14181 0.0949,-0.54751 0.0325,-1.14335 m -1.51836,1.54975 c -0.0413,-0.0409 -0.0765,-0.0861 -0.11077,-0.13088 l -0.0243,-0.002 -0.22472,0.22578 -0.006,0.0416 c 0.0314,0.0441 0.0663,0.0854 0.10548,0.12453 0.0423,0.0438 0.0882,0.0808 0.13582,0.11359 l 0.0441,-0.003 0.22507,-0.22542 -0.002,-0.0275 c -0.0515,-0.0339 -0.0988,-0.0713 -0.14217,-0.11642 m 1.0474,-1.09361 c -0.15346,-0.01 -0.86289,-0.0222 -1.27882,-0.25223 0.0413,-0.0346 0.13159,-0.15064 0.0988,-0.44168 -0.031,-0.29069 -0.14781,-1.12148 -0.14781,-1.12148 -0.009,-0.0868 -0.0444,-0.17004 0.005,-0.21414 0.0497,-0.0452 0.15381,-0.121 0.0938,-0.20285 -0.06,-0.0818 -0.16298,-0.23742 -0.19297,-0.32561 -0.025,-0.0744 -0.0473,-0.13688 -0.0847,-0.0783 -0.0441,0.0677 -0.0596,0.15381 -0.11924,0.23178 -0.031,0.0413 -0.0635,0.0614 -0.0279,0.12311 0.0476,0.0843 0.096,0.23813 0.10513,0.34326 0.004,0.0554 0.0201,0.17427 0.0356,0.28786 0,0 0.2032,1.05022 0.18697,1.22026 0,0 -0.84032,0.0296 -0.94968,0.13582 l -0.16863,0.26176 c -0.0141,0.0289 -0.0127,0.061 0.0275,0.0547 0.0399,-0.007 0.55668,-0.1725 1.282,0.11854 -0.0854,0.0296 -1.04387,0.43956 -1.85315,0.34784 -0.121,-0.004 -0.97155,-0.11501 -1.0421,-0.54646 -0.01,-0.0543 -0.0236,-0.0744 -0.0526,-0.0194 -0.0257,0.049 -0.26176,0.40111 0.10866,0.65405 -0.11747,0.24801 -0.32667,0.5842 -0.64664,0.71614 -0.10442,0.0392 -0.57185,0.15875 -1.04352,-0.0526 -0.0582,-0.0187 -0.14358,0.0282 -0.0557,0.0882 0.0885,0.0607 0.95109,0.61172 1.51095,0.0318 0.0988,-0.1016 0.26705,-0.37288 0.39511,-0.69814 0.57362,0.3122 1.52753,0.14075 1.52753,0.14075 0.20743,-0.0441 0.42474,-0.10512 0.64946,-0.19226 0.11818,-0.0483 0.92993,-0.41557 1.47991,-0.28751 0.115,0.0286 0.14111,0.0286 0.14111,0.0286 0,0 0.0991,-0.21096 0.12135,-0.26212 0.0219,-0.0512 0.048,-0.0801 -0.10548,-0.0896 m -4.07423,-1.02164 c 0.0441,0.0441 0.091,0.0825 0.14252,0.11747 l 0.002,0.0272 -0.22437,0.22472 -0.0444,0.003 c -0.0476,-0.0325 -0.0931,-0.0709 -0.13617,-0.11289 -0.0388,-0.0395 -0.0741,-0.0815 -0.10513,-0.12559 l 0.006,-0.0413 0.22507,-0.22542 0.0247,0.002 c 0.0339,0.0444 0.0692,0.09 0.11007,0.13088"
         style="fill:#231f20;fill-opacity:1;fill-rule:nonzero;stroke:none;stroke-width:0.352778"
         clip-path="url(#clipPath1)"
         id="path31-55" /></g></g></svg>
