<?xml version="1.0" encoding="UTF-8" standalone="no"?>
<!-- Created with Inkscape (http://www.inkscape.org/) -->

<svg
   version="1.1"
   id="svg1"
   width="108.20254"
   height="22.211536"
   viewBox="0 0 108.20254 22.211536"
   xmlns="http://www.w3.org/2000/svg"
   xmlns:svg="http://www.w3.org/2000/svg">
  <defs
     id="defs1">
    <clipPath
       clipPathUnits="userSpaceOnUse"
       id="clipPath28">
      <path
         d="m 274.596,518.874 h 81.152 v -16.659 h -81.152 z"
         transform="translate(-291.2236,-513.25391)"
         id="path28" />
    </clipPath>
    <clipPath
       clipPathUnits="userSpaceOnUse"
       id="clipPath30">
      <path
         d="M 0,547.086 H 382.677 V 0 H 0 Z"
         transform="matrix(1.3333333,0,0,-1.3333333,0,729.448)"
         id="path30" />
    </clipPath>
  </defs>
  <g
     id="layer-MC1"
     transform="translate(-366.12808,-37.616478)">
    <g
       id="g29"
       clip-path="url(#clipPath30)">
      <path
         d="m 0,0 -0.58,-0.694 -0.007,-0.118 c 0.1,-0.117 0.209,-0.227 0.329,-0.328 0.131,-0.108 0.27,-0.204 0.41,-0.284 l 0.125,0.019 0.579,0.692 -0.012,0.077 C 0.691,-0.553 0.549,-0.458 0.414,-0.342 0.288,-0.237 0.177,-0.118 0.068,0 Z m 0.247,-2.303 -0.023,-0.04 -0.289,0.21 c -0.13,0.109 -0.245,0.232 -0.353,0.354 l -0.077,-0.001 -0.6,-0.718 -0.008,-0.124 c 0.105,-0.12 0.216,-0.236 0.343,-0.34 0.133,-0.114 0.276,-0.213 0.426,-0.296 l 0.13,0.023 0.566,0.675 0.221,-0.207 C 0.719,-2.88 0.862,-2.979 1.009,-3.063 l 0.131,0.02 0.598,0.719 -0.018,0.079 c -0.153,0.089 -0.3,0.187 -0.443,0.306 -0.131,0.108 -0.242,0.232 -0.353,0.356 L 0.85,-1.584 Z m -14.485,2.346 -0.071,0.004 -0.638,-0.64 -0.017,-0.118 c 0.087,-0.123 0.187,-0.242 0.298,-0.353 0.121,-0.121 0.25,-0.229 0.385,-0.322 l 0.125,0.009 0.638,0.637 -0.005,0.08 c -0.145,0.096 -0.28,0.205 -0.403,0.33 -0.119,0.116 -0.217,0.244 -0.312,0.373 m 1.636,2.526 c 0.173,0.093 0.274,0.123 0.357,0.275 0.079,0.152 0.099,0.179 0.144,0.286 0.049,0.114 0.103,0.242 -0.213,0.088 -0.207,-0.101 -3.664,-1.582 -3.88,-1.675 -0.213,-0.094 -0.28,-0.136 -0.324,-0.285 -0.044,-0.148 -0.068,-0.229 -0.079,-0.261 -0.041,-0.099 -0.092,-0.203 0.225,-0.058 0.094,0.045 3.6,1.539 3.77,1.63 M 7.627,-8.143 C 7.425,-8.244 4.651,-9.449 4.433,-9.544 4.215,-9.638 4.15,-9.68 4.104,-9.829 c -0.047,-0.149 -0.07,-0.23 -0.08,-0.26 -0.04,-0.098 -0.092,-0.199 0.224,-0.058 0.1,0.043 2.923,1.262 3.096,1.354 0.172,0.093 0.274,0.124 0.355,0.276 0.08,0.152 0.101,0.179 0.145,0.286 0.049,0.112 0.104,0.245 -0.217,0.088 M 8.824,1.145 C 8.799,1.399 8.76,1.442 8.904,1.571 9.047,1.7 9.371,1.961 9.199,2.202 9.025,2.44 8.723,2.852 8.637,3.108 8.564,3.325 8.5,3.504 8.391,3.334 8.264,3.141 8.211,3.026 8.037,2.799 7.945,2.68 7.854,2.623 7.955,2.442 8.094,2.198 8.275,1.784 8.301,1.479 8.314,1.319 8.354,0.971 8.404,0.643 8.469,0.213 9.246,-5.418 9.15,-5.537 9.057,-5.656 8.439,-6.179 7.375,-5.586 l -0.1,0.063 c 0.772,0.551 0.704,1.082 0.58,1.279 -0.224,0.358 -2.265,1.496 -3.425,-0.344 -0.127,-0.187 -0.223,-0.63 0.047,-0.468 0.23,0.138 0.826,0.172 1.46,-0.227 l 0.149,-0.098 c -1.508,-0.978 -2.85,-0.347 -3.289,-0.074 0.037,0.172 0.062,0.313 0.066,0.387 0.014,0.299 -0.175,0.328 -0.258,0.027 -0.082,-0.298 -0.126,-0.685 -0.273,-0.978 -0.26,-0.52 -1.008,-0.115 -1.32,0.025 0.09,0.262 0.164,0.569 0.22,0.922 0.034,0.203 -0.091,0.373 -0.228,-0.053 -0.133,-0.414 -0.613,-1.646 -2.736,-0.935 0.029,0.248 0.179,0.804 -0.284,0.566 -0.504,-0.26 -1.724,-0.722 -2.427,-0.898 -0.461,-0.115 -0.534,-0.186 -0.463,-0.389 0.07,-0.201 0.193,-0.742 0.437,-0.664 0.051,0.018 0.137,0.045 0.242,0.08 -0.207,-0.549 -0.935,-2.24 -2.246,-2.779 -0.308,-0.119 -1.64,-0.488 -3.035,0.137 -0.172,0.054 -0.426,-0.084 -0.164,-0.262 0.26,-0.178 3.027,-1.67 4.682,0.049 0.381,0.386 0.922,1.64 1.276,2.982 v 0.033 c 0.28,0.09 0.526,0.17 0.526,0.17 0.153,0.053 0.756,0.311 1.092,0.457 1.035,-0.765 2.037,-1.027 2.694,-0.213 0.818,-0.756 1.414,-0.593 1.668,-0.205 0.105,0.16 0.222,0.465 0.324,0.787 1.301,-1.281 3.535,-0.047 4.039,0.309 0.172,-0.184 0.334,-0.371 0.379,-0.463 0.084,-0.168 0.558,-0.635 1.48,-0.475 0.311,0.053 1.104,0.42 1.055,1.813 C 9.516,-3.131 8.918,0.469 8.918,0.469 8.873,0.764 8.824,1.145 8.824,1.145 m -20.017,-4.629 c -0.127,0.588 -0.766,1.684 -0.766,1.684 -0.104,0.183 -0.197,0.304 -0.242,0.195 -0.045,-0.106 -0.197,-0.947 -0.197,-0.947 0.226,-0.327 1.105,-2.092 1.025,-2.401 -0.082,-0.308 -0.799,-1.859 -3.065,-1.74 -0.235,0.012 -2.537,0.346 -1.394,3.053 0.041,0.095 -0.061,0.291 -0.207,0.068 -0.191,-0.289 -1.324,-3.457 1.068,-4.045 0.407,-0.099 2.219,-0.273 3.533,1.295 0.157,0.188 0.612,1.131 0.245,2.838 m 3.617,-0.971 c -0.184,0.34 -0.449,0.602 -0.625,0.754 -0.342,0.291 -0.645,-0.133 -0.701,-0.314 -0.192,-0.594 0.82,-0.492 1.039,-0.477 0.093,0.008 0.19,0.022 0.287,0.037 m -1.362,-4.099 c -1.576,-0.653 -3.572,-0.227 -3.775,-0.182 -0.406,0.094 -0.232,0.359 0.111,0.307 3.625,-0.483 5.038,2.179 5.254,2.865 l 0.032,0.176 c -0.643,-0.129 -1.295,-0.137 -1.53,-0.065 -0.933,0.291 -0.756,1.694 0.008,2.612 0.775,0.931 1.52,-0.561 1.641,-0.864 0.822,-2.08 -0.375,-3.525 -0.504,-3.701 -0.36,-0.486 -0.74,-0.943 -1.237,-1.148 m 20.178,7.012 c 0.108,-0.788 0.481,-3.126 0.506,-4.792 0.006,-0.392 0.137,-0.489 0.229,-0.207 0.158,0.483 0.209,1.838 -0.033,3.814 -0.12,0.996 -0.579,4.067 -0.639,4.858 C 11.275,2.563 11.217,2.934 11.07,2.593 10.913,2.232 10.836,1.768 10.909,1.135 11.015,0.051 11.131,-0.761 11.24,-1.542 m -15.075,1.54 c 0.027,0.1 0.085,0.64 -0.17,0.966 -0.157,0.171 -0.33,0.182 -0.568,-0.186 -0.073,-0.112 -0.074,-0.227 0.085,-0.326 0.16,-0.098 0.653,-0.454 0.653,-0.454 m -2.289,-2.605 c -0.258,-0.122 -0.478,0.022 0.112,0.444 0.906,0.645 1.6,1.084 1.888,1.578 0,0 -0.551,0.356 -0.802,0.607 -0.251,0.253 0.068,0.95 0.316,1.223 0.634,0.714 0.937,0.243 1.012,0.115 0.308,-0.596 0.122,-1.342 0.033,-1.554 0,0 0.246,-0.185 0.317,-0.259 0.098,-0.104 0.054,-0.316 -0.075,-0.694 -0.046,-0.133 -0.191,0.228 -0.531,0.388 -0.267,-0.563 -0.56,-1.038 -2.27,-1.848 M 0.989,1.647 C 1.024,1.657 1.066,1.653 1.109,1.693 1.249,1.824 1.366,2.171 1.38,2.289 1.364,2.38 1.038,2.412 0.944,2.435 0.622,2.512 0.315,2.682 -0.02,2.703 -0.536,2.737 -1.016,2.504 -1.282,1.96 -1.312,1.889 -1.354,1.794 -1.382,1.723 -1.415,1.604 -1.354,1.524 -1.291,1.616 c 0.071,0.107 0.16,0.211 0.271,0.279 0.265,0.16 0.546,0.222 0.833,0.194 C 0.073,2.064 0.562,1.881 0.562,1.856 0.558,1.799 -0.576,1.238 -0.754,1.126 -0.831,1.077 -0.926,0.989 -0.909,0.9 -0.896,0.831 -0.786,0.817 -0.694,0.85 -0.248,1.011 -0.088,1 0.272,1.154 0.759,1.363 0.903,1.621 0.989,1.647 M 17.313,0.259 c -0.046,-0.105 -0.067,-0.132 -0.15,-0.283 -0.084,-0.149 -0.184,-0.18 -0.36,-0.271 -0.175,-0.087 -3.012,-1.258 -3.111,-1.301 -0.321,-0.137 -0.267,-0.037 -0.225,0.066 0.011,0.029 0.035,0.108 0.084,0.255 0.047,0.151 0.114,0.191 0.334,0.28 0.218,0.092 3.008,1.248 3.217,1.344 0.319,0.151 0.262,0.021 0.211,-0.09 m -1.126,-5.516 c -0.216,-0.016 -1.228,-0.116 -1.037,0.476 0.055,0.182 0.358,0.606 0.698,0.315 0.177,-0.155 0.445,-0.416 0.629,-0.756 z m -0.972,1.648 c -0.766,-0.916 -0.944,-2.32 -0.01,-2.609 0.234,-0.073 0.887,-0.065 1.531,0.064 L 16.705,-6.33 c -0.219,-0.687 -1.631,-3.345 -5.253,-2.867 -0.345,0.055 -0.522,-0.211 -0.114,-0.305 0.205,-0.046 2.199,-0.47 3.775,0.182 0.496,0.203 0.879,0.662 1.239,1.148 0.128,0.176 1.324,1.622 0.502,3.702 -0.12,0.3 -0.864,1.795 -1.639,0.861 M 25.777,-1.08 C 23.99,-1.162 23.15,-3.5 23.021,-3.886 c -0.328,-0.989 0.047,-1.366 0.178,-1.491 0.653,-0.605 1.928,-0.304 2.102,-0.271 0.783,0.162 0.627,-0.084 0.549,-0.162 -0.079,-0.076 -0.457,-0.395 -0.838,-0.641 -2.694,-1.742 -4.141,-0.81 -4.785,-0.242 -0.834,0.736 -0.118,2.656 -0.04,2.852 l 0.008,0.017 c 0,0 0.02,0.008 0.055,0.19 0.037,0.181 -0.244,0.162 -0.408,-0.336 -0.074,-0.229 -0.558,-1.043 -0.433,-2.383 0.15,-1.596 1.82,-2.084 2.691,-2.057 3.027,0.094 4.173,2.307 4.22,2.512 0.284,1.377 -0.654,1.172 -0.916,1.123 -0.779,-0.147 -1.324,-0.092 -1.795,0.133 -0.474,0.222 -0.377,0.494 -0.241,0.754 0.493,0.941 1.15,1.341 1.486,1.568 0.333,0.227 1.142,0.481 1.63,-0.318 l 0.162,0.017 c 0.038,0.092 0.127,0.426 0.165,0.789 0.035,0.364 -0.698,0.768 -1.034,0.752 m 6.371,-7.004 c -0.205,-0.103 -3.203,-1.451 -3.419,-1.547 -0.215,-0.095 -0.282,-0.138 -0.325,-0.291 -0.045,-0.148 -0.066,-0.226 -0.077,-0.259 -0.038,-0.1 -0.089,-0.203 0.226,-0.057 0.099,0.047 3.144,1.41 3.315,1.504 0.173,0.096 0.275,0.125 0.353,0.279 0.08,0.153 0.099,0.178 0.142,0.285 0.048,0.116 0.1,0.247 -0.215,0.086 m 0.388,11.708 c 0.098,0.046 2.666,1.184 2.838,1.276 0.173,0.092 0.274,0.123 0.355,0.276 0.081,0.151 0.1,0.177 0.144,0.283 0.048,0.116 0.102,0.245 -0.214,0.088 C 35.453,5.446 32.936,4.324 32.718,4.228 32.502,4.134 32.435,4.091 32.389,3.944 32.344,3.795 32.32,3.716 32.309,3.685 32.27,3.583 32.219,3.48 32.536,3.624 m 10,-1.9 C 42.506,2.156 42.447,2.529 42.301,2.187 42.145,1.824 42.066,1.36 42.137,0.728 c 0.109,-1.084 0.224,-1.898 0.334,-2.677 0.107,-0.787 0.481,-3.128 0.504,-4.794 0.007,-0.39 0.136,-0.486 0.23,-0.207 0.157,0.485 0.207,1.839 -0.033,3.818 -0.119,0.994 -0.578,4.065 -0.636,4.856 M 30.822,-6.552 c 0.055,0.158 0.274,1.281 -0.172,2.232 -0.125,0.297 -0.739,1.445 -1.752,1.674 L 28.76,-2.757 28.727,-3.586 c 0.238,-0.089 1.164,-0.42 1.855,-1.945 0.041,-0.123 0.061,-0.287 -0.111,-0.328 -0.621,-0.139 -2.184,-0.541 -2.547,-0.432 -0.151,0.041 -0.301,0.129 -0.309,-0.06 -0.006,-0.194 -0.006,-0.858 0.24,-0.912 0.803,-0.118 2.536,0.418 2.665,0.459 0.13,0.041 0.248,0.095 0.302,0.252 m 10.563,2.177 c -0.219,-0.023 -2.213,-0.175 -4.08,0.256 0.068,0.207 0.185,1.332 0.011,2.063 -0.146,0.619 -0.523,2.515 -0.655,3.211 -0.009,0.127 -0.003,0.214 0.021,0.246 0.134,0.135 0.466,0.404 0.287,0.629 -0.182,0.224 -0.494,0.611 -0.592,0.857 -0.08,0.207 -0.152,0.379 -0.25,0.211 -0.115,-0.197 -0.162,-0.311 -0.32,-0.541 -0.082,-0.119 -0.17,-0.18 -0.064,-0.352 0.148,-0.232 0.345,-0.625 0.384,-0.921 0.018,-0.159 0.068,-0.497 0.141,-0.813 0.074,-0.334 0.724,-3.662 0.689,-4.103 -0.082,-0.268 -1.75,-0.012 -2.296,-0.487 -0.151,-0.176 -0.348,-0.697 -0.37,-0.847 -0.025,-0.151 0.022,-0.186 0.115,-0.106 0.094,0.082 0.453,0.662 3.547,-0.066 -0.105,-0.098 -4.381,-3.075 -4.98,0.64 -0.053,0.34 -0.817,6.512 -0.887,6.836 -0.068,0.324 -0.149,0.533 -0.231,0.36 -0.082,-0.176 -0.306,-0.844 -0.232,-1.135 0.37,-1.449 0.705,-5.483 0.924,-6.61 0.219,-1.128 0.682,-2.115 1.767,-2.259 0.647,-0.088 1.397,-0.028 2.979,0.949 0.775,0.478 2.493,1.252 3.932,1.055 0.08,0.14 0.242,0.556 0.289,0.695 0.045,0.139 0.091,0.256 -0.129,0.232 m 14.463,4.677 c -0.16,0.1 -0.158,0.215 -0.085,0.326 0.238,0.368 0.411,0.358 0.568,0.187 0.255,-0.326 0.197,-0.866 0.17,-0.966 0,0 -0.493,0.355 -0.653,0.453 m 0.633,-1.211 c 0.341,-0.159 0.486,-0.52 0.532,-0.388 0.129,0.378 0.173,0.59 0.075,0.695 -0.071,0.074 -0.317,0.259 -0.317,0.259 0.089,0.212 0.275,0.958 -0.033,1.553 -0.075,0.128 -0.378,0.6 -1.012,-0.114 -0.248,-0.273 -0.567,-0.971 -0.315,-1.224 0.25,-0.251 0.801,-0.606 0.801,-0.606 -0.288,-0.494 -0.983,-0.934 -1.888,-1.578 -0.59,-0.422 -0.369,-0.567 -0.112,-0.444 1.71,0.809 2.003,1.285 2.269,1.847 m -9.807,1.227 c -0.159,0.099 -0.157,0.215 -0.085,0.326 0.239,0.368 0.411,0.357 0.568,0.186 0.255,-0.326 0.197,-0.866 0.171,-0.965 0,0 -0.494,0.355 -0.654,0.453 m 0.634,-1.211 c 0.34,-0.159 0.485,-0.521 0.531,-0.388 0.129,0.378 0.173,0.59 0.075,0.694 -0.071,0.075 -0.317,0.259 -0.317,0.259 0.09,0.212 0.275,0.958 -0.033,1.554 -0.075,0.128 -0.377,0.6 -1.012,-0.114 -0.248,-0.274 -0.567,-0.971 -0.316,-1.224 0.251,-0.251 0.802,-0.606 0.802,-0.606 -0.288,-0.495 -0.982,-0.934 -1.888,-1.579 -0.589,-0.421 -0.369,-0.566 -0.112,-0.444 1.71,0.81 2.003,1.285 2.27,1.848 m 4.568,1.329 c 0.035,0.01 0.077,0.006 0.12,0.046 0.14,0.131 0.257,0.478 0.271,0.596 -0.016,0.091 -0.342,0.124 -0.436,0.146 -0.322,0.077 -0.628,0.247 -0.964,0.269 -0.516,0.033 -0.996,-0.2 -1.263,-0.744 -0.029,-0.071 -0.072,-0.166 -0.1,-0.237 -0.032,-0.119 0.029,-0.199 0.092,-0.107 0.071,0.107 0.16,0.212 0.272,0.279 0.264,0.16 0.545,0.222 0.832,0.194 0.26,-0.025 0.749,-0.208 0.748,-0.233 -0.004,-0.057 -1.137,-0.618 -1.315,-0.73 -0.077,-0.048 -0.172,-0.137 -0.155,-0.226 0.013,-0.069 0.123,-0.083 0.214,-0.05 0.447,0.161 0.607,0.15 0.967,0.304 0.487,0.209 0.631,0.468 0.717,0.493 m -5.908,-6.81 c -0.069,-0.145 -0.157,-0.394 -0.21,-0.54 -0.018,-0.051 0.022,-0.114 0.086,-0.077 0.36,0.221 0.9,0.493 1.47,0.695 0.52,0.184 0.928,0.303 1.304,0.325 0.059,0.008 0.367,0.55 0.414,0.629 0.065,0.101 0.018,0.134 -0.063,0.119 -0.438,-0.084 -0.778,-0.162 -1.307,-0.114 -0.654,0.058 -1.165,0.558 -1.147,0.754 0.014,0.15 0.478,0.447 0.651,0.42 0.501,-0.079 0.493,-0.519 0.627,-0.524 0.161,-0.006 0.489,0.572 0.509,0.729 0.021,0.172 -0.322,0.581 -0.649,0.601 -0.538,0.032 -1.45,-0.88 -1.808,-1.441 -0.13,-0.207 -0.117,-0.523 0.069,-0.684 0.166,-0.142 0.44,-0.291 0.749,-0.479 -0.151,-0.053 -0.548,-0.285 -0.695,-0.413 m 18.462,2.793 c -0.09,0.85 -0.45,3.473 -0.484,4.147 -0.013,0.369 -0.06,0.687 -0.218,0.402 -0.168,-0.305 -0.262,-0.697 -0.208,-1.234 0.073,-0.926 0.16,-1.621 0.244,-2.285 0.083,-0.672 0.382,-2.674 0.351,-4.092 -0.006,-0.332 0.12,-0.418 0.223,-0.18 0.175,0.402 0.268,1.553 0.092,3.242 m -4.304,-4.393 c -0.117,0.115 -0.218,0.244 -0.314,0.371 l -0.069,0.006 -0.638,-0.641 -0.017,-0.117 c 0.088,-0.125 0.187,-0.242 0.298,-0.354 0.121,-0.123 0.251,-0.228 0.385,-0.322 l 0.125,0.01 0.638,0.639 -0.006,0.078 c -0.145,0.095 -0.279,0.203 -0.402,0.33 m 2.968,3.099 c -0.435,0.028 -2.446,0.065 -3.624,0.715 0.117,0.1 0.372,0.428 0.28,1.252 -0.089,0.824 -0.419,3.18 -0.419,3.18 -0.026,0.246 -0.127,0.482 0.014,0.607 0.14,0.127 0.435,0.342 0.265,0.574 -0.17,0.233 -0.462,0.674 -0.547,0.924 -0.07,0.211 -0.133,0.387 -0.24,0.221 C 58.698,2.407 58.654,2.162 58.485,1.942 58.397,1.825 58.306,1.768 58.406,1.592 c 0.136,-0.238 0.272,-0.674 0.298,-0.973 0.012,-0.156 0.057,-0.494 0.102,-0.816 0,0 0.576,-2.976 0.53,-3.459 0,0 -2.383,-0.084 -2.692,-0.385 l -0.478,-0.742 c -0.04,-0.082 -0.036,-0.172 0.077,-0.154 0.113,0.019 1.578,0.488 3.635,-0.336 -0.243,-0.084 -2.959,-1.246 -5.253,-0.986 -0.344,0.009 -2.755,0.326 -2.954,1.548 -0.027,0.155 -0.067,0.211 -0.15,0.055 -0.073,-0.139 -0.742,-1.137 0.309,-1.853 -0.333,-0.704 -0.927,-1.657 -1.833,-2.03 -0.297,-0.111 -1.621,-0.451 -2.958,0.149 -0.165,0.052 -0.407,-0.08 -0.158,-0.25 0.251,-0.172 2.696,-1.735 4.282,-0.09 0.28,0.287 0.758,1.057 1.12,1.978 1.626,-0.884 4.33,-0.398 4.33,-0.398 0.589,0.125 1.204,0.299 1.842,0.545 0.335,0.137 2.636,1.178 4.194,0.814 0.327,-0.08 0.401,-0.08 0.401,-0.08 0,0 0.28,0.598 0.344,0.742 0.062,0.145 0.135,0.227 -0.3,0.254 m -11.548,2.897 c 0.125,-0.125 0.258,-0.235 0.403,-0.332 l 0.006,-0.078 -0.637,-0.637 -0.126,-0.01 c -0.134,0.092 -0.263,0.201 -0.385,0.321 -0.111,0.113 -0.21,0.23 -0.298,0.355 l 0.016,0.117 0.638,0.641 0.07,-0.006 c 0.096,-0.127 0.197,-0.256 0.313,-0.371"
         style="fill:#231f20;fill-opacity:1;fill-rule:nonzero;stroke:none"
         transform="matrix(1.3333333,0,0,-1.3333333,388.29813,45.109467)"
         clip-path="url(#clipPath28)"
         id="path29" />
    </g>
  </g>
</svg>
