<?xml version="1.0" encoding="UTF-8" standalone="no"?>
<!-- Created with Inkscape (http://www.inkscape.org/) -->

<svg
   width="29.19483mm"
   height="6.9146843mm"
   viewBox="0 0 29.194829 6.9146841"
   version="1.1"
   id="svg1"
   xml:space="preserve"
   xmlns="http://www.w3.org/2000/svg"
   xmlns:svg="http://www.w3.org/2000/svg"><defs
     id="defs1" /><g
     id="layer1"
     transform="translate(-308.88904,-44.079279)"><g
       id="g49"
       transform="translate(31.858566,-161.18922)"><path
         d="m 283.35264,207.63898 -0.20462,0.24482 -0.002,0.0416 c 0.0353,0.0413 0.0737,0.0801 0.11606,0.11571 0.0462,0.0381 0.0952,0.072 0.14464,0.10019 l 0.0441,-0.007 0.20425,-0.24412 -0.004,-0.0272 c -0.054,-0.0293 -0.10407,-0.0628 -0.15169,-0.10372 -0.0445,-0.037 -0.0836,-0.079 -0.12207,-0.12065 z m 0.0871,0.81244 -0.008,0.0141 -0.10195,-0.0741 c -0.0459,-0.0384 -0.0864,-0.0818 -0.12454,-0.12488 l -0.0272,3.5e-4 -0.21167,0.2533 -0.003,0.0437 c 0.037,0.0423 0.0762,0.0833 0.121,0.11994 0.0469,0.0402 0.0974,0.0751 0.15029,0.10442 l 0.0459,-0.008 0.19967,-0.23812 0.078,0.073 c 0.048,0.0399 0.0984,0.0748 0.15028,0.10442 l 0.0462,-0.007 0.21096,-0.25365 -0.006,-0.0279 c -0.054,-0.0314 -0.10583,-0.066 -0.15628,-0.10795 -0.0462,-0.0381 -0.0854,-0.0818 -0.12453,-0.12559 l -0.0261,3.6e-4 z m -5.10998,-0.82761 -0.025,-0.001 -0.22507,0.22577 -0.006,0.0416 c 0.0307,0.0434 0.066,0.0854 0.10513,0.12454 0.0427,0.0427 0.0882,0.0808 0.13582,0.11359 l 0.0441,-0.003 0.22508,-0.22472 -0.002,-0.0282 c -0.0511,-0.0339 -0.0988,-0.0723 -0.14217,-0.11642 -0.042,-0.0409 -0.0765,-0.0861 -0.11006,-0.13158 m 0.57714,-0.89112 c 0.061,-0.0328 0.0967,-0.0434 0.12594,-0.097 0.0279,-0.0536 0.0349,-0.0632 0.0508,-0.10089 0.0173,-0.0402 0.0363,-0.0854 -0.0751,-0.031 -0.073,0.0356 -1.29258,0.55809 -1.36878,0.5909 -0.0751,0.0332 -0.0988,0.048 -0.1143,0.10054 -0.0155,0.0522 -0.024,0.0808 -0.0279,0.0921 -0.0145,0.0349 -0.0324,0.0716 0.0794,0.0205 0.0332,-0.0159 1.27,-0.54292 1.32997,-0.57503 m 7.13634,3.77896 c -0.0713,0.0356 -1.04986,0.46073 -1.12677,0.49424 -0.0769,0.0332 -0.0998,0.048 -0.11606,0.10054 -0.0166,0.0526 -0.0247,0.0811 -0.0282,0.0917 -0.0141,0.0346 -0.0324,0.0702 0.079,0.0205 0.0353,-0.0152 1.03117,-0.4452 1.0922,-0.47766 0.0607,-0.0328 0.0967,-0.0437 0.12523,-0.0974 0.0282,-0.0536 0.0356,-0.0631 0.0512,-0.10089 0.0173,-0.0395 0.0367,-0.0864 -0.0765,-0.031 m 0.42228,-3.2766 c -0.009,-0.0896 -0.0226,-0.10478 0.0282,-0.15028 0.0505,-0.0455 0.16475,-0.13759 0.10407,-0.22261 -0.0614,-0.084 -0.16792,-0.2293 -0.19826,-0.31961 -0.0258,-0.0765 -0.0483,-0.1397 -0.0868,-0.0797 -0.0448,0.0681 -0.0635,0.10865 -0.12488,0.18873 -0.0325,0.042 -0.0646,0.0621 -0.0289,0.12594 0.049,0.0861 0.11289,0.23213 0.12206,0.33973 0.005,0.0564 0.0187,0.17921 0.0363,0.29492 0.0229,0.1517 0.29704,2.13819 0.26317,2.18017 -0.0328,0.042 -0.25082,0.22648 -0.62618,0.0173 l -0.0353,-0.0222 c 0.27235,-0.19438 0.24836,-0.38171 0.20462,-0.4512 -0.079,-0.1263 -0.79905,-0.52776 -1.20827,0.12135 -0.0448,0.066 -0.0787,0.22225 0.0166,0.1651 0.0811,-0.0487 0.2914,-0.0607 0.51506,0.0801 l 0.0526,0.0346 c -0.53199,0.34502 -1.00542,0.12241 -1.16028,0.0261 0.0131,-0.0607 0.0219,-0.11042 0.0233,-0.13652 0.005,-0.10549 -0.0617,-0.11572 -0.091,-0.01 -0.0289,0.10512 -0.0445,0.24165 -0.0963,0.34501 -0.0917,0.18345 -0.3556,0.0406 -0.46566,-0.009 0.0317,-0.0924 0.0579,-0.20073 0.0776,-0.32526 0.012,-0.0716 -0.0321,-0.13159 -0.0804,0.0187 -0.0469,0.14605 -0.21625,0.58067 -0.9652,0.32985 0.0102,-0.0875 0.0632,-0.28364 -0.10018,-0.19967 -0.1778,0.0917 -0.60819,0.2547 -0.8562,0.31679 -0.16263,0.0406 -0.18838,0.0656 -0.16333,0.13723 0.0247,0.0709 0.0681,0.26176 0.15416,0.23424 0.018,-0.006 0.0483,-0.0159 0.0854,-0.0282 -0.073,0.19368 -0.32984,0.79023 -0.79233,0.98037 -0.10866,0.042 -0.57856,0.17216 -1.07069,-0.0483 -0.0607,-0.019 -0.15028,0.0296 -0.0579,0.0924 0.0917,0.0628 1.06786,0.58914 1.6517,-0.0173 0.13441,-0.13617 0.32527,-0.57855 0.45015,-1.05198 v -0.0116 c 0.0988,-0.0318 0.18556,-0.06 0.18556,-0.06 0.054,-0.0187 0.2667,-0.10971 0.38523,-0.16122 0.36513,0.26988 0.71861,0.3623 0.95039,0.0751 0.28857,0.2667 0.49882,0.2092 0.58843,0.0723 0.037,-0.0564 0.0783,-0.16404 0.1143,-0.27764 0.45896,0.45191 1.24707,0.0166 1.42487,-0.109 0.0607,0.0649 0.11783,0.13088 0.1337,0.16333 0.0296,0.0593 0.19685,0.22402 0.52211,0.16757 0.10972,-0.0187 0.38947,-0.14816 0.37218,-0.63958 -0.01,-0.66817 -0.22048,-1.93817 -0.22048,-1.93817 -0.0159,-0.10406 -0.0332,-0.23847 -0.0332,-0.23847 m -7.06156,1.63301 c -0.0448,-0.20744 -0.27022,-0.59408 -0.27022,-0.59408 -0.0367,-0.0646 -0.0695,-0.10725 -0.0854,-0.0688 -0.0159,0.0374 -0.0695,0.33408 -0.0695,0.33408 0.0797,0.11536 0.38982,0.73801 0.36159,0.84702 -0.0289,0.10865 -0.28187,0.65581 -1.08126,0.61383 -0.0829,-0.004 -0.895,-0.12206 -0.49177,-1.07703 0.0145,-0.0335 -0.0215,-0.10266 -0.073,-0.024 -0.0674,0.10195 -0.46707,1.21955 0.37677,1.42699 0.14358,0.0349 0.78281,0.0963 1.24636,-0.45685 0.0554,-0.0663 0.2159,-0.39899 0.0864,-1.00118 m 1.276,0.34254 c -0.0649,-0.11994 -0.1584,-0.21237 -0.22048,-0.26599 -0.12065,-0.10266 -0.22755,0.0469 -0.2473,0.11077 -0.0677,0.20955 0.28928,0.17357 0.36653,0.16828 0.0328,-0.003 0.067,-0.008 0.10125,-0.013 m -0.48048,1.44603 c -0.55598,0.23037 -1.26012,0.0801 -1.33174,0.0642 -0.14323,-0.0332 -0.0818,-0.12665 0.0392,-0.1083 1.27882,0.17039 1.77729,-0.7687 1.85349,-1.01071 l 0.0113,-0.0621 c -0.22683,0.0455 -0.45684,0.0483 -0.53975,0.0229 -0.32914,-0.10266 -0.2667,-0.5976 0.003,-0.92145 0.2734,-0.32844 0.53622,0.1979 0.5789,0.3048 0.28999,0.73377 -0.13229,1.24354 -0.1778,1.30563 -0.127,0.17145 -0.26105,0.33267 -0.43638,0.40499 m 7.11835,-2.47368 c 0.0381,0.27799 0.16968,1.10278 0.1785,1.69051 0.002,0.13829 0.0483,0.17251 0.0808,0.073 0.0557,-0.17039 0.0737,-0.64841 -0.0116,-1.3455 -0.0423,-0.35136 -0.20426,-1.43474 -0.22543,-1.71379 -0.01,-0.1524 -0.0303,-0.28328 -0.0822,-0.16298 -0.0554,0.12735 -0.0825,0.29104 -0.0568,0.51435 0.0374,0.38241 0.0783,0.66886 0.11677,0.94438 m -5.31813,-0.54327 c 0.01,-0.0353 0.03,-0.22578 -0.06,-0.34079 -0.0554,-0.0603 -0.11642,-0.0642 -0.20038,0.0656 -0.0257,0.0395 -0.0261,0.0801 0.03,0.11501 0.0564,0.0346 0.23036,0.16016 0.23036,0.16016 m -0.80751,0.91898 c -0.091,0.043 -0.16862,-0.008 0.0395,-0.15663 0.31961,-0.22754 0.56444,-0.38241 0.66604,-0.55668 0,0 -0.19438,-0.12559 -0.28293,-0.21414 -0.0885,-0.0892 0.024,-0.33514 0.11148,-0.43145 0.22366,-0.25188 0.33055,-0.0857 0.35701,-0.0406 0.10866,0.21026 0.043,0.47343 0.0116,0.54822 0,0 0.0868,0.0653 0.11183,0.0914 0.0346,0.0367 0.019,0.11148 -0.0265,0.24483 -0.0162,0.0469 -0.0674,-0.0804 -0.18733,-0.13688 -0.0942,0.19862 -0.19756,0.36619 -0.80081,0.65194 m 2.50931,-1.50072 c 0.0123,-0.003 0.0272,-0.002 0.0423,-0.0162 0.0494,-0.0462 0.0907,-0.16863 0.0956,-0.21026 -0.006,-0.0321 -0.12065,-0.0434 -0.15381,-0.0515 -0.1136,-0.0272 -0.2219,-0.0871 -0.34008,-0.0945 -0.18203,-0.012 -0.35137,0.0702 -0.44521,0.26212 -0.0106,0.025 -0.0254,0.0586 -0.0353,0.0836 -0.0116,0.042 0.01,0.0702 0.0321,0.0378 0.0251,-0.0378 0.0564,-0.0744 0.0956,-0.0984 0.0935,-0.0564 0.19262,-0.0783 0.29387,-0.0684 0.0917,0.009 0.26423,0.0734 0.26423,0.0822 -0.001,0.0201 -0.40146,0.21801 -0.46426,0.25753 -0.0272,0.0173 -0.0607,0.0483 -0.0547,0.0797 0.005,0.0243 0.0434,0.0293 0.0759,0.0176 0.15734,-0.0568 0.21378,-0.0529 0.34078,-0.10725 0.1718,-0.0737 0.2226,-0.16475 0.25294,-0.17392 m 5.75875,0.48966 c -0.0162,0.037 -0.0236,0.0466 -0.0529,0.0998 -0.0296,0.0526 -0.0649,0.0635 -0.127,0.0956 -0.0617,0.0307 -1.06257,0.44379 -1.09749,0.45896 -0.11324,0.0483 -0.0942,0.013 -0.0794,-0.0233 0.004,-0.0102 0.0123,-0.0381 0.0296,-0.09 0.0166,-0.0533 0.0402,-0.0674 0.11783,-0.0988 0.0769,-0.0325 1.06115,-0.44027 1.13488,-0.47413 0.11254,-0.0533 0.0924,-0.007 0.0744,0.0317 m -0.39723,1.94592 c -0.0762,0.006 -0.43321,0.0409 -0.36583,-0.16792 0.0194,-0.0642 0.12629,-0.21379 0.24624,-0.11113 0.0624,0.0547 0.15698,0.14676 0.2219,0.2667 z m -0.3429,-0.58138 c -0.27023,0.32315 -0.33302,0.81845 -0.004,0.9204 0.0825,0.0258 0.31292,0.0229 0.5401,-0.0226 l -0.0109,0.0621 c -0.0773,0.24236 -0.57538,1.18004 -1.85314,1.01141 -0.12171,-0.0194 -0.18415,0.0744 -0.0402,0.1076 0.0723,0.0162 0.77576,0.16581 1.33174,-0.0642 0.17497,-0.0716 0.31009,-0.23354 0.43709,-0.40499 0.0452,-0.0621 0.46708,-0.5722 0.17709,-1.30598 -0.0423,-0.10584 -0.3048,-0.63324 -0.5782,-0.30374 m 3.72604,-0.89218 c -0.63042,0.0289 -0.92675,0.85372 -0.97226,0.9899 -0.11571,0.34889 0.0166,0.48189 0.0628,0.52599 0.23036,0.21343 0.68015,0.10724 0.74154,0.0956 0.27622,-0.0571 0.22119,0.0296 0.19367,0.0572 -0.0279,0.0268 -0.16122,0.13934 -0.29563,0.22613 -0.95038,0.61454 -1.46085,0.28575 -1.68804,0.0854 -0.29421,-0.25965 -0.0416,-0.93698 -0.0141,-1.00613 l 0.003,-0.006 c 0,0 0.007,-0.003 0.0194,-0.067 0.013,-0.0638 -0.0861,-0.0571 -0.14394,0.11854 -0.0261,0.0808 -0.19685,0.36795 -0.15275,0.84067 0.0529,0.56303 0.64205,0.73519 0.94932,0.72566 1.06786,-0.0332 1.47215,-0.81386 1.48873,-0.88618 0.10019,-0.48577 -0.23072,-0.41345 -0.32315,-0.39617 -0.27481,0.0519 -0.46708,0.0325 -0.63323,-0.0469 -0.16722,-0.0783 -0.133,-0.17427 -0.085,-0.26599 0.17392,-0.33196 0.40569,-0.47307 0.52422,-0.55316 0.11748,-0.0801 0.40288,-0.16968 0.57503,0.11219 l 0.0572,-0.006 c 0.0134,-0.0325 0.0448,-0.15029 0.0582,-0.27834 0.0123,-0.12841 -0.24624,-0.27094 -0.36477,-0.26529 m 2.24755,2.47085 c -0.0723,0.0363 -1.12995,0.51188 -1.20615,0.54575 -0.0759,0.0335 -0.0995,0.0487 -0.11465,0.10266 -0.0159,0.0522 -0.0233,0.0797 -0.0272,0.0914 -0.0134,0.0353 -0.0314,0.0716 0.0797,0.0201 0.0349,-0.0166 1.10913,-0.49742 1.16946,-0.53058 0.061,-0.0339 0.097,-0.0441 0.12453,-0.0984 0.0282,-0.054 0.0349,-0.0628 0.0501,-0.10054 0.0169,-0.0409 0.0353,-0.0871 -0.0758,-0.0303 m 0.13687,-4.13032 c 0.0346,-0.0162 0.94051,-0.41769 1.00119,-0.45015 0.061,-0.0325 0.0967,-0.0434 0.12523,-0.0974 0.0286,-0.0533 0.0353,-0.0624 0.0508,-0.0998 0.0169,-0.0409 0.036,-0.0864 -0.0755,-0.031 -0.0727,0.0356 -0.96062,0.43145 -1.03752,0.46532 -0.0762,0.0332 -0.0998,0.0483 -0.11607,0.10018 -0.0159,0.0526 -0.0243,0.0804 -0.0282,0.0914 -0.0138,0.036 -0.0317,0.0723 0.0801,0.0215 m 3.52778,0.67028 c -0.0106,-0.1524 -0.0314,-0.28398 -0.0829,-0.16333 -0.055,0.12805 -0.0829,0.29174 -0.0579,0.5147 0.0385,0.38241 0.079,0.66957 0.11783,0.94439 0.0377,0.27763 0.16969,1.10348 0.1778,1.69121 0.002,0.13759 0.048,0.17145 0.0811,0.073 0.0554,-0.1711 0.073,-0.64876 -0.0116,-1.3469 -0.042,-0.35066 -0.20391,-1.43405 -0.22437,-1.71309 m -4.13244,2.91959 c 0.0194,-0.0557 0.0967,-0.45191 -0.0607,-0.7874 -0.0441,-0.10478 -0.2607,-0.50977 -0.61806,-0.59055 l -0.0487,0.0392 -0.0116,0.29245 c 0.084,0.0314 0.41064,0.14817 0.65441,0.68615 0.0145,0.0434 0.0215,0.10125 -0.0392,0.11571 -0.21908,0.049 -0.77047,0.19086 -0.89853,0.1524 -0.0533,-0.0145 -0.10618,-0.0455 -0.10901,0.0212 -0.002,0.0684 -0.002,0.30269 0.0847,0.32174 0.28328,0.0416 0.89464,-0.14746 0.94015,-0.16193 0.0459,-0.0145 0.0875,-0.0335 0.10654,-0.0889 m 3.72639,-0.768 c -0.0773,0.008 -0.78069,0.0617 -1.43933,-0.0903 0.024,-0.073 0.0653,-0.4699 0.004,-0.72778 -0.0515,-0.21837 -0.1845,-0.88723 -0.23107,-1.13277 -0.003,-0.0448 -10e-4,-0.0755 0.007,-0.0868 0.0473,-0.0476 0.16439,-0.14252 0.10125,-0.22189 -0.0642,-0.079 -0.17428,-0.21555 -0.20885,-0.30233 -0.0282,-0.073 -0.0536,-0.13371 -0.0882,-0.0744 -0.0406,0.0695 -0.0572,0.10971 -0.11289,0.19085 -0.0289,0.042 -0.06,0.0635 -0.0226,0.12418 0.0522,0.0818 0.12171,0.22048 0.13547,0.32491 0.006,0.0561 0.024,0.17533 0.0497,0.28681 0.0261,0.11782 0.25541,1.29187 0.24306,1.44744 -0.0289,0.0945 -0.61736,0.004 -0.80997,0.17181 -0.0533,0.0621 -0.12277,0.24588 -0.13053,0.2988 -0.009,0.0533 0.008,0.0656 0.0406,0.0374 0.0332,-0.0289 0.15981,-0.23354 1.2513,0.0233 -0.037,0.0346 -1.54552,1.08479 -1.75683,-0.22578 -0.0187,-0.11994 -0.28822,-2.29729 -0.31292,-2.41159 -0.024,-0.1143 -0.0526,-0.18803 -0.0815,-0.127 -0.0289,0.0621 -0.10795,0.29775 -0.0818,0.4004 0.13052,0.51118 0.24871,1.93428 0.32596,2.33186 0.0773,0.39794 0.2406,0.74613 0.62336,0.79693 0.22825,0.031 0.49283,0.01 1.05093,-0.33479 0.2734,-0.16862 0.87947,-0.44167 1.38712,-0.37218 0.0282,-0.0494 0.0854,-0.19614 0.10195,-0.24518 0.0159,-0.049 0.0321,-0.0903 -0.0455,-0.0818 m 5.10223,-1.64994 c -0.0565,-0.0353 -0.0557,-0.0758 -0.03,-0.115 0.084,-0.12983 0.14499,-0.1263 0.20038,-0.066 0.09,0.115 0.0695,0.3055 0.06,0.34078 0,0 -0.17392,-0.12524 -0.23036,-0.15981 m 0.22331,0.42721 c 0.12029,0.0561 0.17145,0.18345 0.18767,0.13688 0.0455,-0.13335 0.061,-0.20814 0.0265,-0.24518 -0.025,-0.0261 -0.11183,-0.0914 -0.11183,-0.0914 0.0314,-0.0748 0.097,-0.33796 -0.0116,-0.54786 -0.0265,-0.0452 -0.13335,-0.21167 -0.35701,0.0402 -0.0875,0.0963 -0.20003,0.34254 -0.11113,0.4318 0.0882,0.0885 0.28258,0.21378 0.28258,0.21378 -0.1016,0.17427 -0.34678,0.32949 -0.66604,0.55668 -0.20814,0.14888 -0.13018,0.20003 -0.0395,0.15664 0.60325,-0.2854 0.70662,-0.45332 0.80046,-0.65158 m -3.45969,-0.43286 c -0.0561,-0.0349 -0.0554,-0.0758 -0.03,-0.11501 0.0843,-0.12982 0.14499,-0.12594 0.20038,-0.0656 0.09,0.11501 0.0695,0.30551 0.0603,0.34043 0,0 -0.17427,-0.12523 -0.23071,-0.1598 m 0.22366,0.42721 c 0.11994,0.0561 0.17109,0.1838 0.18732,0.13688 0.0455,-0.13335 0.061,-0.20814 0.0265,-0.24483 -0.0251,-0.0265 -0.11183,-0.0914 -0.11183,-0.0914 0.0318,-0.0748 0.097,-0.33796 -0.0116,-0.54822 -0.0265,-0.0451 -0.133,-0.21166 -0.35701,0.0402 -0.0875,0.0967 -0.20003,0.34255 -0.11148,0.4318 0.0885,0.0885 0.28293,0.21379 0.28293,0.21379 -0.1016,0.17462 -0.34643,0.32949 -0.66605,0.55703 -0.20778,0.14852 -0.13017,0.19967 -0.0395,0.15664 0.60325,-0.28575 0.70661,-0.45332 0.80081,-0.65194 m 1.61149,-0.46884 c 0.0123,-0.004 0.0272,-0.002 0.0423,-0.0162 0.0494,-0.0462 0.0907,-0.16863 0.0956,-0.21025 -0.006,-0.0321 -0.12065,-0.0438 -0.15381,-0.0515 -0.11359,-0.0272 -0.22154,-0.0871 -0.34008,-0.0949 -0.18203,-0.0116 -0.35136,0.0706 -0.44556,0.26246 -0.0102,0.025 -0.0254,0.0586 -0.0353,0.0836 -0.0113,0.042 0.0102,0.0702 0.0325,0.0378 0.025,-0.0378 0.0564,-0.0748 0.096,-0.0984 0.0931,-0.0564 0.19226,-0.0783 0.29351,-0.0684 0.0917,0.009 0.26423,0.0734 0.26388,0.0822 -0.001,0.0201 -0.40111,0.21802 -0.46391,0.25753 -0.0272,0.0169 -0.0607,0.0483 -0.0547,0.0797 0.005,0.0243 0.0434,0.0293 0.0755,0.0176 0.15769,-0.0568 0.21413,-0.0529 0.34113,-0.10725 0.17181,-0.0737 0.22261,-0.1651 0.25295,-0.17391 m -2.08422,2.40241 c -0.0243,0.0511 -0.0554,0.139 -0.0741,0.1905 -0.006,0.018 0.008,0.0402 0.0303,0.0272 0.127,-0.078 0.3175,-0.17392 0.51858,-0.24518 0.18345,-0.0649 0.32738,-0.10689 0.46003,-0.11465 0.0208,-0.003 0.12946,-0.19403 0.14605,-0.2219 0.0229,-0.0356 0.006,-0.0473 -0.0222,-0.042 -0.15452,0.0296 -0.27446,0.0572 -0.46108,0.0402 -0.23072,-0.0205 -0.41099,-0.19685 -0.40464,-0.26599 0.005,-0.0529 0.16863,-0.15769 0.22966,-0.14817 0.17674,0.0279 0.17392,0.18309 0.22119,0.18486 0.0568,0.002 0.17251,-0.20179 0.17957,-0.25718 0.007,-0.0607 -0.1136,-0.20496 -0.22896,-0.21202 -0.18979,-0.0113 -0.51152,0.31045 -0.63782,0.50836 -0.0459,0.073 -0.0413,0.1845 0.0243,0.2413 0.0586,0.0501 0.15523,0.10265 0.26423,0.16898 -0.0533,0.0187 -0.19332,0.10054 -0.24518,0.14569 m 6.51299,-0.98531 c -0.0317,-0.29986 -0.15875,-1.22519 -0.17075,-1.46296 -0.005,-0.13018 -0.0212,-0.24236 -0.0769,-0.14182 -0.0593,0.1076 -0.0924,0.24588 -0.0734,0.43533 0.0257,0.32667 0.0564,0.57185 0.0861,0.80609 0.0293,0.23707 0.13476,0.94333 0.12382,1.44357 -0.002,0.11712 0.0423,0.14746 0.0787,0.0635 0.0617,-0.14182 0.0945,-0.54786 0.0325,-1.14371 m -1.51836,1.54976 c -0.0413,-0.0406 -0.0769,-0.0861 -0.11077,-0.13088 l -0.0243,-0.002 -0.22507,0.22613 -0.006,0.0413 c 0.031,0.0441 0.066,0.0854 0.10513,0.12488 0.0427,0.0434 0.0885,0.0804 0.13582,0.11359 l 0.0441,-0.004 0.22508,-0.22542 -0.002,-0.0275 c -0.0512,-0.0335 -0.0984,-0.0716 -0.14182,-0.11642 m 1.04705,-1.09326 c -0.15346,-0.01 -0.8629,-0.0229 -1.27847,-0.25223 0.0413,-0.0353 0.13123,-0.15099 0.0988,-0.44168 -0.0314,-0.29069 -0.14782,-1.12183 -0.14782,-1.12183 -0.009,-0.0868 -0.0448,-0.17004 0.005,-0.21414 0.0494,-0.0448 0.15346,-0.12065 0.0935,-0.20249 -0.06,-0.0822 -0.16298,-0.23778 -0.19297,-0.32597 -0.0247,-0.0744 -0.0469,-0.13653 -0.0847,-0.078 -0.0441,0.0674 -0.0596,0.15381 -0.11924,0.23142 -0.031,0.0413 -0.0631,0.0614 -0.0279,0.12347 0.048,0.084 0.096,0.23778 0.10513,0.34326 0.004,0.055 0.0201,0.17427 0.036,0.28786 0,0 0.2032,1.04987 0.18697,1.22026 0,0 -0.84067,0.0296 -0.94968,0.13582 l -0.16863,0.26176 c -0.0141,0.0289 -0.0127,0.0607 0.0272,0.0543 0.0399,-0.007 0.55668,-0.17215 1.28234,0.11854 -0.0857,0.0296 -1.04387,0.43956 -1.85314,0.34783 -0.12135,-0.003 -0.9719,-0.115 -1.0421,-0.5461 -0.01,-0.0547 -0.0236,-0.0744 -0.0529,-0.0194 -0.0258,0.049 -0.26176,0.40111 0.10901,0.6537 -0.11748,0.24836 -0.32703,0.58455 -0.64664,0.71614 -0.10478,0.0392 -0.57186,0.1591 -1.04352,-0.0526 -0.0582,-0.0183 -0.14358,0.0282 -0.0557,0.0882 0.0885,0.0607 0.95109,0.61207 1.51059,0.0318 0.0988,-0.10125 0.26741,-0.37289 0.39512,-0.69779 0.57361,0.31185 1.52752,0.1404 1.52752,0.1404 0.20779,-0.0441 0.42475,-0.10548 0.64982,-0.19226 0.11818,-0.0483 0.92992,-0.41557 1.47955,-0.28716 0.11536,0.0282 0.14146,0.0282 0.14146,0.0282 0,0 0.0988,-0.21096 0.12136,-0.26176 0.0219,-0.0511 0.0476,-0.0801 -0.10583,-0.0896 m -4.07388,-1.022 c 0.0441,0.0441 0.091,0.0829 0.14217,0.11712 l 0.002,0.0275 -0.22471,0.22472 -0.0444,0.004 c -0.0473,-0.0325 -0.0928,-0.0709 -0.13582,-0.11324 -0.0392,-0.0399 -0.0741,-0.0811 -0.10513,-0.12524 l 0.006,-0.0413 0.22507,-0.22613 0.0247,0.002 c 0.0339,0.0448 0.0695,0.0903 0.11042,0.13088"
         style="fill:#231f20;fill-opacity:1;fill-rule:nonzero;stroke:none;stroke-width:0.352778"
         clip-path="url(#clipPath1)"
         id="path29-8" /></g></g></svg>
