<?xml version="1.0" encoding="UTF-8" standalone="no"?>
<!-- Created with Inkscape (http://www.inkscape.org/) -->

<svg
   width="27.793037mm"
   height="6.9146843mm"
   viewBox="0 0 27.793036 6.9146841"
   version="1.1"
   id="svg1"
   xml:space="preserve"
   xmlns="http://www.w3.org/2000/svg"
   xmlns:svg="http://www.w3.org/2000/svg"><defs
     id="defs1" /><g
     id="layer1"
     transform="translate(-269.94697,-44.079279)"><g
       id="g50"
       transform="translate(65.660104,-123.36004)"><path
         d="m 210.71197,169.81624 -0.20462,0.24483 -0.002,0.0416 c 0.0353,0.0413 0.0737,0.0801 0.11607,0.11571 0.0462,0.0381 0.0952,0.072 0.14464,0.10019 l 0.0441,-0.007 0.20426,-0.24413 -0.004,-0.0272 c -0.054,-0.0293 -0.10407,-0.0628 -0.15169,-0.10371 -0.0445,-0.0367 -0.0836,-0.079 -0.12207,-0.12065 z m 0.0871,0.81245 -0.008,0.0141 -0.10196,-0.0741 c -0.0459,-0.0384 -0.0864,-0.0818 -0.12453,-0.12489 l -0.0272,3.6e-4 -0.21167,0.25329 -0.003,0.0437 c 0.037,0.0423 0.0762,0.0833 0.121,0.11995 0.0466,0.0402 0.0974,0.0751 0.14993,0.10442 l 0.0462,-0.008 0.19967,-0.23813 0.078,0.073 c 0.048,0.0399 0.0981,0.0748 0.15029,0.10442 l 0.0462,-0.007 0.21096,-0.25364 -0.006,-0.0275 c -0.054,-0.0318 -0.10583,-0.0663 -0.15628,-0.10831 -0.0462,-0.0381 -0.0854,-0.0818 -0.12488,-0.12559 l -0.0261,3.6e-4 z m -5.10999,-0.82762 -0.025,-0.001 -0.22507,0.22578 -0.006,0.0416 c 0.031,0.0434 0.0663,0.0854 0.10548,0.12453 0.0423,0.0427 0.0882,0.0808 0.13582,0.11359 l 0.0441,-0.003 0.22508,-0.22472 -0.002,-0.0282 c -0.0512,-0.0339 -0.0988,-0.0723 -0.14217,-0.11641 -0.0423,-0.0409 -0.0765,-0.0861 -0.11006,-0.13159 m 0.57714,-0.89112 c 0.061,-0.0328 0.0967,-0.0434 0.12594,-0.097 0.0279,-0.0536 0.0349,-0.0631 0.0508,-0.10089 0.0173,-0.0402 0.0363,-0.0854 -0.0751,-0.0311 -0.073,0.0356 -1.29258,0.55809 -1.36878,0.5909 -0.0751,0.0332 -0.0988,0.048 -0.1143,0.10054 -0.0155,0.0522 -0.024,0.0808 -0.0279,0.0921 -0.0145,0.0349 -0.0325,0.0716 0.0794,0.0205 0.0332,-0.0159 1.27,-0.54292 1.32997,-0.57502 m 7.13635,3.77895 c -0.0713,0.0356 -1.04987,0.46073 -1.12677,0.49425 -0.0769,0.0332 -0.0998,0.048 -0.11606,0.10054 -0.0166,0.0526 -0.0247,0.0811 -0.0282,0.0917 -0.0141,0.0346 -0.0325,0.0702 0.079,0.0205 0.0353,-0.0152 1.03116,-0.44521 1.0922,-0.47766 0.0607,-0.0328 0.0967,-0.0437 0.12523,-0.0974 0.0282,-0.0536 0.0356,-0.0631 0.0512,-0.1009 0.0173,-0.0395 0.0367,-0.0864 -0.0765,-0.031 m 0.42228,-3.2766 c -0.009,-0.0896 -0.0226,-0.10477 0.0282,-0.15028 0.0504,-0.0455 0.16439,-0.13759 0.10407,-0.22261 -0.0614,-0.084 -0.16792,-0.2293 -0.19826,-0.31961 -0.0258,-0.0765 -0.0483,-0.1397 -0.0868,-0.0797 -0.0448,0.0681 -0.0635,0.10865 -0.12523,0.18873 -0.0321,0.042 -0.0642,0.0621 -0.0289,0.12595 0.0494,0.0861 0.11324,0.23212 0.12241,0.33972 0.005,0.0564 0.0187,0.17921 0.0363,0.29492 0.0229,0.1517 0.29669,2.13819 0.26317,2.18017 -0.0328,0.042 -0.25082,0.22648 -0.62618,0.0173 l -0.0353,-0.0222 c 0.27235,-0.19438 0.24836,-0.38171 0.20461,-0.4512 -0.079,-0.1263 -0.79904,-0.52776 -1.20826,0.12135 -0.0448,0.066 -0.0787,0.22225 0.0166,0.1651 0.0811,-0.0487 0.2914,-0.0607 0.51506,0.0801 l 0.0526,0.0346 c -0.53234,0.34502 -1.00542,0.12242 -1.16029,0.0261 0.0131,-0.0607 0.0219,-0.11042 0.0233,-0.13652 0.005,-0.10548 -0.0617,-0.11571 -0.091,-0.01 -0.0289,0.10512 -0.0444,0.24165 -0.0963,0.34501 -0.0917,0.18345 -0.3556,0.0406 -0.46566,-0.009 0.0317,-0.0924 0.0579,-0.20073 0.0776,-0.32526 0.012,-0.0716 -0.0321,-0.13158 -0.0804,0.0187 -0.0473,0.14605 -0.21625,0.58068 -0.96521,0.32985 0.0102,-0.0875 0.0631,-0.28363 -0.10018,-0.19967 -0.1778,0.0917 -0.60819,0.2547 -0.8562,0.31679 -0.16263,0.0406 -0.18838,0.0656 -0.16333,0.13723 0.0247,0.0709 0.0677,0.26176 0.15416,0.23425 0.018,-0.006 0.0483,-0.0159 0.0854,-0.0282 -0.073,0.19367 -0.32984,0.79022 -0.79234,0.98037 -0.10865,0.042 -0.57855,0.17215 -1.07068,-0.0483 -0.0607,-0.0191 -0.15028,0.0296 -0.0582,0.0924 0.0921,0.0628 1.06821,0.58914 1.65205,-0.0173 0.13441,-0.13617 0.32527,-0.57856 0.4498,-1.05199 v -0.0116 c 0.0991,-0.0318 0.18591,-0.06 0.18591,-0.06 0.054,-0.0187 0.2667,-0.10971 0.38523,-0.16122 0.36514,0.26988 0.71862,0.36231 0.9504,0.0751 0.28857,0.2667 0.49882,0.2092 0.58843,0.0723 0.0367,-0.0564 0.0783,-0.16404 0.1143,-0.27763 0.45896,0.45191 1.24707,0.0166 1.42487,-0.10901 0.0607,0.0649 0.11783,0.13088 0.1337,0.16334 0.0296,0.0593 0.19685,0.22401 0.52211,0.16756 0.10972,-0.0187 0.38947,-0.14816 0.37218,-0.63958 -0.01,-0.66816 -0.22048,-1.93816 -0.22048,-1.93816 -0.0159,-0.10407 -0.0332,-0.23848 -0.0332,-0.23848 m -7.06157,1.63301 c -0.0448,-0.20743 -0.27022,-0.59408 -0.27022,-0.59408 -0.0367,-0.0646 -0.0695,-0.10724 -0.0854,-0.0688 -0.0159,0.0374 -0.0695,0.33408 -0.0695,0.33408 0.0794,0.11536 0.38982,0.73801 0.36159,0.84702 -0.0289,0.10866 -0.28222,0.65581 -1.08126,0.61384 -0.0833,-0.004 -0.895,-0.12207 -0.49177,-1.07703 0.0145,-0.0335 -0.0215,-0.10266 -0.073,-0.024 -0.0674,0.10195 -0.46707,1.21955 0.37677,1.42698 0.14358,0.0349 0.78281,0.0963 1.24636,-0.45685 0.0554,-0.0663 0.2159,-0.39899 0.0864,-1.00118 m 1.276,0.34255 c -0.0649,-0.11995 -0.1584,-0.21237 -0.22049,-0.266 -0.12065,-0.10265 -0.22754,0.0469 -0.24729,0.11078 -0.0677,0.20955 0.28928,0.17356 0.36653,0.16827 0.0328,-0.003 0.0667,-0.008 0.10125,-0.013 m -0.48048,1.44604 c -0.55598,0.23036 -1.26012,0.0801 -1.33209,0.0642 -0.14288,-0.0332 -0.0815,-0.12665 0.0395,-0.10831 1.27882,0.17039 1.77729,-0.7687 1.85349,-1.0107 l 0.0113,-0.0621 c -0.22683,0.0455 -0.45684,0.0483 -0.53975,0.0229 -0.32914,-0.10266 -0.2667,-0.59761 0.002,-0.92146 0.27376,-0.32844 0.53658,0.19791 0.57926,0.3048 0.28999,0.73378 -0.13229,1.24354 -0.1778,1.30563 -0.127,0.17145 -0.26105,0.33267 -0.43638,0.40499 m 7.11836,-2.47368 c 0.0381,0.27799 0.16968,1.10279 0.17815,1.69051 0.002,0.13829 0.0487,0.17251 0.0811,0.073 0.0557,-0.17039 0.0737,-0.6484 -0.0116,-1.34549 -0.0423,-0.35137 -0.20426,-1.43475 -0.22543,-1.7138 -0.01,-0.1524 -0.0303,-0.28328 -0.0822,-0.16298 -0.0554,0.12735 -0.0825,0.29104 -0.0572,0.51435 0.0377,0.38241 0.0787,0.66887 0.11712,0.94439 m -5.31814,-0.54328 c 0.01,-0.0353 0.03,-0.22578 -0.0603,-0.34078 -0.055,-0.0603 -0.11607,-0.0642 -0.20003,0.0656 -0.0258,0.0395 -0.0261,0.0801 0.03,0.115 0.0564,0.0346 0.23036,0.16016 0.23036,0.16016 m -0.80751,0.91899 c -0.091,0.043 -0.16862,-0.008 0.0395,-0.15664 0.31961,-0.22754 0.56444,-0.38241 0.66604,-0.55668 0,0 -0.19438,-0.12559 -0.28293,-0.21413 -0.0885,-0.0893 0.024,-0.33514 0.11148,-0.43145 0.22366,-0.25189 0.3302,-0.0857 0.35701,-0.0406 0.10866,0.21025 0.043,0.47343 0.0116,0.54822 0,0 0.0868,0.0653 0.11183,0.0914 0.0346,0.0367 0.0191,0.11147 -0.0265,0.24482 -0.0162,0.0469 -0.0674,-0.0804 -0.18732,-0.13687 -0.0942,0.19861 -0.19756,0.36618 -0.80081,0.65193 m 2.50932,-1.50072 c 0.0123,-0.003 0.0272,-0.002 0.0423,-0.0162 0.0494,-0.0462 0.0907,-0.16863 0.0956,-0.21025 -0.006,-0.0321 -0.12065,-0.0434 -0.15381,-0.0515 -0.1136,-0.0272 -0.2219,-0.0871 -0.34008,-0.0945 -0.18203,-0.012 -0.35137,0.0702 -0.44521,0.26211 -0.0106,0.025 -0.0254,0.0586 -0.0356,0.0836 -0.0113,0.042 0.0102,0.0702 0.0325,0.0378 0.025,-0.0378 0.0561,-0.0744 0.0956,-0.0984 0.0931,-0.0564 0.19262,-0.0783 0.29387,-0.0684 0.0917,0.009 0.26423,0.0734 0.26423,0.0822 -10e-4,0.0201 -0.40146,0.21802 -0.46461,0.25753 -0.0268,0.0173 -0.0603,0.0483 -0.0543,0.0797 0.005,0.0243 0.0434,0.0293 0.0759,0.0176 0.15734,-0.0568 0.21343,-0.0529 0.34078,-0.10725 0.1718,-0.0737 0.2226,-0.16474 0.25294,-0.17391 m 5.75875,0.48965 c -0.0162,0.037 -0.024,0.0466 -0.0529,0.0998 -0.03,0.0526 -0.0649,0.0635 -0.127,0.0956 -0.0617,0.0307 -1.06257,0.4438 -1.09749,0.45896 -0.1136,0.0483 -0.0942,0.013 -0.0794,-0.0233 0.004,-0.0102 0.0123,-0.0381 0.0296,-0.09 0.0166,-0.0533 0.0402,-0.0674 0.11782,-0.0988 0.0769,-0.0325 1.06116,-0.44026 1.13489,-0.47413 0.11254,-0.0533 0.0924,-0.007 0.0744,0.0317 m -0.39723,1.94592 c -0.0762,0.006 -0.43321,0.0409 -0.36583,-0.16792 0.0191,-0.0642 0.12629,-0.21378 0.24624,-0.11112 0.0624,0.0547 0.15698,0.14675 0.22189,0.2667 z m -0.3429,-0.58137 c -0.27023,0.32314 -0.33302,0.81844 -0.004,0.92039 0.0829,0.0258 0.31327,0.0229 0.54045,-0.0226 l -0.0113,0.0621 c -0.0769,0.24236 -0.57503,1.18004 -1.85315,1.01141 -0.12135,-0.0194 -0.18379,0.0744 -0.0399,0.1076 0.0723,0.0162 0.77541,0.16581 1.33174,-0.0642 0.17497,-0.0716 0.31009,-0.23354 0.43709,-0.40499 0.0451,-0.0621 0.46708,-0.5722 0.17709,-1.30598 -0.0423,-0.10583 -0.3048,-0.63324 -0.5782,-0.30374 m 4.19347,1.88489 c -0.072,0.037 -0.88124,0.45614 -0.9585,0.48965 -0.0759,0.0339 -0.0988,0.049 -0.11395,0.1016 -0.0155,0.0536 -0.0243,0.0811 -0.0282,0.0914 -0.013,0.036 -0.0307,0.0723 0.0808,0.0208 0.0346,-0.0159 0.86113,-0.44097 0.9211,-0.47413 0.0603,-0.0332 0.0967,-0.0448 0.12418,-0.0984 0.0275,-0.0529 0.0349,-0.0635 0.0501,-0.10054 0.0166,-0.0402 0.0353,-0.0861 -0.0755,-0.0303 m 3.66077,-3.75532 c -0.013,-0.15169 -0.036,-0.28328 -0.0854,-0.16192 -0.0529,0.12982 -0.0776,0.29386 -0.048,0.51541 0.0452,0.38205 0.0893,0.66886 0.13265,0.94191 0.0437,0.27623 0.18873,1.10032 0.20778,1.68769 0.004,0.13864 0.0505,0.1718 0.0819,0.0716 0.0529,-0.1711 0.0624,-0.64911 -0.0346,-1.34514 -0.0487,-0.35066 -0.2286,-1.43122 -0.25436,-1.70956 m -3.93735,2.94569 c 0.0159,-0.0716 0.0434,-0.20743 -0.0674,-0.38946 -0.067,-0.10795 -0.27552,-0.12806 -0.27552,-0.12806 0.0413,-0.0889 0.33408,-0.66076 -0.31538,-1.3903 -0.036,-0.0388 -0.0441,-0.0173 -0.0533,0.0212 -0.0106,0.0395 -0.0829,0.37712 -0.0829,0.37712 0.0631,0.0861 0.51858,0.58879 0.381,0.72531 -0.0501,0.0504 -0.40852,0.20073 -0.64806,0.25083 -0.0145,0.0353 -0.049,0.14252 -0.0691,0.19367 -0.0191,0.0512 -0.006,0.06 0.0243,0.0681 0.0296,0.007 0.53058,-0.003 0.93486,0.19791 0.0296,0.024 0.0109,0.0378 -0.0392,0.0765 -0.0497,0.0378 -0.59443,0.56091 -1.33526,0.53798 -0.0924,-0.002 -0.84667,-0.0159 -0.87172,-0.74612 -0.006,-0.0889 0.0339,-0.29633 0.19439,-0.63324 0.0261,-0.0434 -0.0127,-0.0822 -0.0554,-0.0268 -0.0434,0.0543 -0.53658,0.78529 -0.18768,1.391 0.0515,0.0787 0.48683,0.63183 1.56034,0.25788 0.13582,-0.0476 0.82479,-0.41627 0.90593,-0.78351 m 3.20781,-2.34739 c -0.006,-0.0635 0.004,-0.0924 0.0155,-0.1083 0.0152,-0.0194 0.0861,-0.12206 0.11042,-0.17498 0.013,-0.0275 -0.0106,-0.0953 -0.0402,-0.1337 -0.0434,-0.0564 -0.14428,-0.2226 -0.15557,-0.27234 -0.0131,-0.0536 -0.0441,-0.1136 -0.0677,-0.0624 -0.0501,0.10795 -0.11818,0.17709 -0.13547,0.2032 -0.0166,0.0261 -0.0508,0.11359 -0.01,0.19297 0.0409,0.0797 0.0769,0.13299 0.0857,0.18662 0.008,0.055 0.008,0.15169 0.0314,0.2674 0.0289,0.14041 0.32138,1.82598 0.33655,1.91347 0.0138,0.0882 0.0289,0.2293 -0.0691,0.22366 -0.0861,-0.004 -0.37395,-0.0198 -0.43921,-0.0233 0.0473,-0.0945 0.0677,-0.1771 0.0741,-0.21555 0.0141,-0.0924 -0.03,-0.0868 -0.073,-0.0243 -0.0441,0.0635 -0.19015,0.18627 -0.35066,0.25859 -0.52176,0.22401 -1.13595,0.26811 -1.51518,0.15098 -0.3803,-0.11747 -0.42933,-0.47201 -0.43886,-0.59407 -0.01,-0.12206 -0.1083,-1.71168 -0.22613,-2.37314 -0.0145,-0.073 -0.0261,-0.13158 -0.0783,-0.0296 -0.0751,0.21237 -0.054,0.43286 -0.01,0.62301 0.0441,0.18944 0.12947,1.53035 0.13441,1.79987 0.01,0.55033 0.16016,0.71014 0.27234,0.79375 0.502,0.42439 1.61749,0.0586 1.81257,-0.01 0.11854,-0.0515 0.20532,-0.12171 0.27305,-0.19615 0.0783,0.0459 0.19862,0.11148 0.2734,0.12735 0.11607,0.0247 0.31151,0.0977 0.36513,-0.024 0.0533,-0.12135 0.17992,-0.49282 0.15099,-0.71119 -0.0296,-0.21908 -0.32632,-1.78788 -0.32632,-1.78788 m -1.90818,-0.82832 c 0.0353,-0.0159 0.93698,-0.42581 0.99766,-0.45897 0.0607,-0.0332 0.096,-0.0448 0.12347,-0.0984 0.0289,-0.0533 0.0349,-0.0635 0.0508,-0.10054 0.0162,-0.0409 0.0353,-0.0868 -0.0759,-0.0303 -0.0723,0.0363 -0.95708,0.44097 -1.03399,0.47449 -0.0758,0.0339 -0.0988,0.049 -0.1143,0.1016 -0.0159,0.0529 -0.024,0.0811 -0.0279,0.0914 -0.0138,0.0367 -0.031,0.0723 0.0801,0.0208 m -2.20345,1.05551 0.0441,-0.003 0.22472,-0.22437 -0.002,-0.0282 c -0.0512,-0.0346 -0.0981,-0.0727 -0.14217,-0.11677 -0.0413,-0.0406 -0.0762,-0.0868 -0.11006,-0.13088 l -0.0254,-0.002 -0.22402,0.22613 -0.006,0.0413 c 0.031,0.0434 0.0663,0.0854 0.10513,0.12559 0.043,0.042 0.0882,0.0797 0.13617,0.11218 m 2.86209,0.1651 -0.20426,0.24413 -0.002,0.0416 c 0.0349,0.042 0.0734,0.0808 0.11607,0.11606 0.0469,0.0374 0.0949,0.073 0.14464,0.10089 l 0.0444,-0.008 0.20461,-0.24271 -0.005,-0.0282 c -0.0536,-0.0293 -0.10372,-0.0624 -0.1524,-0.10336 -0.0441,-0.0367 -0.0829,-0.079 -0.12136,-0.12065 z m 0.19121,0.85267 -0.007,0.0145 -0.10196,-0.0734 c -0.0469,-0.0384 -0.0868,-0.0822 -0.12488,-0.12453 l -0.0272,-7.1e-4 -0.21167,0.2533 -0.003,0.0444 c 0.0367,0.0423 0.0759,0.0825 0.121,0.11853 0.0469,0.0402 0.097,0.0762 0.14958,0.10513 l 0.0462,-0.007 0.20038,-0.23918 0.0769,0.0741 c 0.048,0.0392 0.0984,0.0741 0.15099,0.10407 l 0.0459,-0.007 0.21131,-0.25436 -0.006,-0.0272 c -0.054,-0.0303 -0.10583,-0.066 -0.15593,-0.10759 -0.0462,-0.0378 -0.0857,-0.0822 -0.12523,-0.12489 h -0.0261 z m 0.007,-1.70427 c 0.0205,0.0501 0.0367,0.10901 0.0342,0.14252 -0.0794,0.0773 -0.1651,0.09 -0.22719,0.0385 -0.0399,-0.0328 -0.055,-0.0946 -0.0512,-0.17603 0.002,-0.0582 0.01,-0.0797 -0.0416,-0.0388 -0.0667,0.0543 -0.0487,0.0494 -0.0522,0.0797 -0.0236,0.19085 -0.10548,0.27622 -0.25259,0.28645 -0.0935,0.007 -0.16122,-0.0579 -0.0967,-0.24095 0.0138,-0.0399 -0.0138,-0.0811 -0.0547,0 -0.13829,0.27517 -0.054,0.42863 0.0871,0.45015 0.115,0.0169 0.25153,-0.0487 0.32138,-0.22296 0.0536,0.0885 0.16157,0.11395 0.25929,0.0885 0.12524,-0.0328 0.15275,-0.0907 0.18768,-0.19156 0.0353,-0.0981 0.0363,-0.22718 -0.0109,-0.38276 -0.008,-0.0254 -0.0222,-0.0116 -0.0279,7.1e-4 l -0.067,0.12735 c -0.008,0.0138 -0.0134,0.0233 -0.008,0.0392 m 6.71372,0.35172 c -0.0561,-0.0353 -0.0554,-0.0759 -0.03,-0.11501 0.084,-0.12982 0.14499,-0.12629 0.20038,-0.066 0.09,0.11501 0.0699,0.30551 0.06,0.34079 0,0 -0.17392,-0.12524 -0.23036,-0.15981 m 0.22366,0.42721 c 0.1203,0.0561 0.1711,0.18345 0.18732,0.13688 0.0455,-0.13335 0.061,-0.20814 0.0261,-0.24518 -0.0247,-0.0261 -0.11148,-0.0914 -0.11148,-0.0914 0.0318,-0.0748 0.0967,-0.33796 -0.0113,-0.54787 -0.0268,-0.0452 -0.13335,-0.21166 -0.35736,0.0402 -0.0875,0.0963 -0.20003,0.34255 -0.11148,0.4318 0.0885,0.0885 0.28293,0.21379 0.28293,0.21379 -0.1016,0.17427 -0.34643,0.32949 -0.66605,0.55668 -0.20778,0.14887 -0.13017,0.20003 -0.0395,0.15663 0.6029,-0.28539 0.70626,-0.45332 0.80081,-0.65158 m -3.46005,-0.43285 c -0.0561,-0.0349 -0.0554,-0.0759 -0.03,-0.11501 0.084,-0.12982 0.14499,-0.12594 0.20038,-0.0656 0.0899,0.11501 0.0699,0.30551 0.06,0.34043 0,0 -0.17392,-0.12524 -0.23037,-0.15981 m 0.22367,0.42722 c 0.12029,0.0561 0.17109,0.18379 0.18732,0.13687 0.0455,-0.13335 0.061,-0.20814 0.0265,-0.24482 -0.025,-0.0265 -0.11183,-0.0914 -0.11183,-0.0914 0.0318,-0.0748 0.097,-0.33797 -0.0113,-0.54822 -0.0268,-0.0452 -0.13335,-0.21167 -0.35736,0.0402 -0.0875,0.0967 -0.19968,0.34255 -0.11113,0.4318 0.0885,0.0885 0.28258,0.21378 0.28258,0.21378 -0.1016,0.17463 -0.34643,0.3295 -0.6657,0.55704 -0.20813,0.14852 -0.13052,0.19967 -0.0399,0.15663 0.60325,-0.28575 0.70661,-0.45332 0.80081,-0.65193 m 1.61148,-0.46884 c 0.0123,-0.004 0.0272,-0.002 0.0423,-0.0162 0.0494,-0.0462 0.0907,-0.16863 0.0956,-0.21026 -0.006,-0.0321 -0.12065,-0.0437 -0.15381,-0.0515 -0.11359,-0.0272 -0.2219,-0.0871 -0.34008,-0.0949 -0.18203,-0.0116 -0.35136,0.0705 -0.4452,0.26247 -0.0106,0.0251 -0.0258,0.0586 -0.036,0.0836 -0.0109,0.042 0.0106,0.0702 0.0328,0.0377 0.0251,-0.0377 0.0561,-0.0748 0.0956,-0.0984 0.0935,-0.0564 0.19262,-0.0783 0.29387,-0.0684 0.0917,0.009 0.26423,0.0734 0.26388,0.0822 -0.001,0.0201 -0.40111,0.21801 -0.46391,0.25753 -0.0272,0.0169 -0.0607,0.0483 -0.0547,0.0797 0.005,0.0243 0.0434,0.0293 0.0759,0.0176 0.15734,-0.0568 0.21378,-0.0529 0.34078,-0.10725 0.17181,-0.0737 0.22261,-0.1651 0.25294,-0.17392 m -2.08421,2.40242 c -0.024,0.0512 -0.0554,0.13899 -0.0741,0.1905 -0.006,0.018 0.008,0.0402 0.0303,0.0272 0.127,-0.078 0.31715,-0.17392 0.51894,-0.24518 0.18309,-0.0649 0.32702,-0.10689 0.46002,-0.11466 0.0205,-0.003 0.12947,-0.19402 0.14569,-0.22189 0.0229,-0.0356 0.006,-0.0473 -0.0222,-0.042 -0.15452,0.0296 -0.27411,0.0571 -0.46108,0.0402 -0.23072,-0.0205 -0.41099,-0.19685 -0.40464,-0.266 0.005,-0.0529 0.16863,-0.15769 0.22966,-0.14816 0.17674,0.0279 0.17357,0.18309 0.22119,0.18485 0.0568,0.002 0.17251,-0.20179 0.17957,-0.25717 0.007,-0.0607 -0.11324,-0.20497 -0.2286,-0.21202 -0.19015,-0.0113 -0.51188,0.31044 -0.63818,0.50835 -0.0462,0.073 -0.0413,0.1845 0.0243,0.2413 0.0586,0.0501 0.15523,0.10266 0.26423,0.16898 -0.0533,0.0187 -0.19332,0.10054 -0.24518,0.1457 m 6.51299,-0.98531 c -0.0321,-0.29986 -0.1584,-1.2252 -0.1704,-1.46297 -0.005,-0.13017 -0.0215,-0.24236 -0.0772,-0.14182 -0.0593,0.1076 -0.0924,0.24589 -0.0734,0.43533 0.0258,0.32667 0.0564,0.57185 0.0861,0.8061 0.0293,0.23707 0.13476,0.94333 0.12382,1.44357 -0.002,0.11712 0.0427,0.14745 0.0783,0.0635 0.0621,-0.14182 0.0953,-0.54786 0.0328,-1.14371 m -1.51836,1.54976 c -0.0413,-0.0406 -0.0769,-0.0861 -0.11077,-0.13088 l -0.0247,-0.002 -0.22436,0.22613 -0.007,0.0413 c 0.0314,0.0441 0.0667,0.0854 0.10549,0.12488 0.0427,0.0434 0.0885,0.0804 0.13617,0.1136 l 0.0441,-0.004 0.22472,-0.22543 -0.002,-0.0275 c -0.0515,-0.0335 -0.0988,-0.0716 -0.14217,-0.11641 m 1.04705,-1.09327 c -0.15346,-0.01 -0.86255,-0.0229 -1.27847,-0.25223 0.0413,-0.0353 0.13123,-0.15099 0.0988,-0.44168 -0.0314,-0.29069 -0.14782,-1.12183 -0.14782,-1.12183 -0.009,-0.0868 -0.0448,-0.17004 0.005,-0.21414 0.0497,-0.0448 0.15381,-0.12065 0.0938,-0.20249 -0.06,-0.0822 -0.16298,-0.23778 -0.19297,-0.32597 -0.0254,-0.0744 -0.0473,-0.13653 -0.085,-0.078 -0.0441,0.0674 -0.0593,0.15381 -0.11888,0.23142 -0.031,0.0413 -0.0635,0.0614 -0.0282,0.12347 0.048,0.084 0.096,0.23778 0.10513,0.34326 0.004,0.055 0.0201,0.17427 0.036,0.28786 0,0 0.2032,1.04987 0.18698,1.22026 0,0 -0.84067,0.0296 -0.94968,0.13582 l -0.16863,0.26176 c -0.0141,0.0289 -0.013,0.0607 0.0272,0.0543 0.0402,-0.007 0.55703,-0.17215 1.28234,0.11853 -0.0857,0.0296 -1.04387,0.43957 -1.85314,0.34784 -0.12135,-0.003 -0.9719,-0.115 -1.04246,-0.5461 -0.009,-0.0547 -0.0233,-0.0744 -0.0522,-0.0194 -0.0261,0.049 -0.26176,0.40111 0.10866,0.6537 -0.11748,0.24836 -0.32668,0.58456 -0.64664,0.71614 -0.10478,0.0392 -0.57186,0.15911 -1.04352,-0.0526 -0.0582,-0.0183 -0.14358,0.0282 -0.0561,0.0882 0.0889,0.0607 0.95109,0.61207 1.51094,0.0318 0.0991,-0.10124 0.26706,-0.37288 0.39512,-0.69779 0.57361,0.31185 1.52788,0.1404 1.52788,0.1404 0.20708,-0.0441 0.42474,-0.10548 0.64946,-0.19226 0.11818,-0.0483 0.92992,-0.41558 1.4799,-0.28716 0.11501,0.0282 0.14111,0.0282 0.14111,0.0282 0,0 0.0988,-0.21097 0.12136,-0.26177 0.0219,-0.0512 0.048,-0.0801 -0.10583,-0.0896 m -4.07423,-1.02199 c 0.0441,0.0441 0.0914,0.0829 0.14252,0.11712 l 0.002,0.0275 -0.22436,0.22472 -0.0445,0.003 c -0.0476,-0.0325 -0.0931,-0.0709 -0.13617,-0.11324 -0.0388,-0.0399 -0.0741,-0.0811 -0.10513,-0.12524 l 0.006,-0.0413 0.22472,-0.22613 0.025,0.002 c 0.0335,0.0448 0.0692,0.0903 0.10972,0.13088"
         style="fill:#231f20;fill-opacity:1;fill-rule:nonzero;stroke:none;stroke-width:0.352778"
         clip-path="url(#clipPath1)"
         id="path25-8" /></g></g></svg>
