<?xml version="1.0" encoding="UTF-8" standalone="no"?>
<!-- Created with Inkscape (http://www.inkscape.org/) -->

<svg
   version="1.1"
   id="svg1"
   width="102.35599"
   height="20.546413"
   viewBox="0 0 102.35599 20.546413"
   xmlns="http://www.w3.org/2000/svg"
   xmlns:svg="http://www.w3.org/2000/svg">
  <defs
     id="defs1">
    <clipPath
       clipPathUnits="userSpaceOnUse"
       id="clipPath24">
      <path
         d="m 278.981,517.626 h 76.767 v -15.41 h -76.767 z"
         transform="translate(-295.6084,-513.25541)"
         id="path24" />
    </clipPath>
    <clipPath
       clipPathUnits="userSpaceOnUse"
       id="clipPath26">
      <path
         d="M 0,547.086 H 382.677 V 0 H 0 Z"
         transform="matrix(1.3333333,0,0,-1.3333333,0,729.448)"
         id="path26" />
    </clipPath>
  </defs>
  <g
     id="layer-MC1"
     transform="translate(-371.97467,-39.280014)">
    <g
       id="g25"
       clip-path="url(#clipPath26)">
      <path
         d="m 0,0 -0.58,-0.694 -0.007,-0.118 c 0.1,-0.117 0.209,-0.227 0.329,-0.328 0.131,-0.108 0.27,-0.204 0.41,-0.284 l 0.125,0.019 0.579,0.692 -0.012,0.077 C 0.691,-0.553 0.549,-0.458 0.414,-0.342 0.288,-0.238 0.177,-0.118 0.068,0 Z m 0.247,-2.303 -0.023,-0.04 -0.289,0.21 c -0.13,0.109 -0.245,0.232 -0.353,0.354 l -0.077,-0.001 -0.6,-0.718 -0.008,-0.124 c 0.105,-0.12 0.216,-0.236 0.343,-0.34 0.132,-0.114 0.276,-0.213 0.425,-0.296 l 0.131,0.023 0.566,0.675 0.221,-0.207 C 0.719,-2.88 0.861,-2.979 1.009,-3.063 l 0.131,0.02 0.598,0.719 -0.018,0.078 c -0.153,0.09 -0.3,0.188 -0.443,0.307 -0.131,0.108 -0.242,0.232 -0.354,0.356 L 0.849,-1.584 Z m -14.485,2.346 -0.071,0.004 -0.638,-0.64 -0.018,-0.118 c 0.088,-0.123 0.188,-0.242 0.299,-0.353 0.12,-0.121 0.25,-0.229 0.385,-0.322 l 0.125,0.009 0.638,0.637 -0.005,0.08 c -0.145,0.096 -0.28,0.205 -0.403,0.33 -0.12,0.116 -0.217,0.244 -0.312,0.373 m 1.636,2.526 c 0.173,0.093 0.274,0.123 0.357,0.275 0.079,0.152 0.099,0.179 0.144,0.286 0.049,0.114 0.103,0.242 -0.213,0.088 -0.207,-0.101 -3.664,-1.582 -3.88,-1.675 -0.213,-0.094 -0.28,-0.136 -0.324,-0.285 -0.044,-0.148 -0.068,-0.229 -0.079,-0.261 -0.041,-0.099 -0.092,-0.203 0.225,-0.058 0.094,0.045 3.6,1.539 3.77,1.63 M 7.627,-8.143 C 7.425,-8.244 4.651,-9.449 4.433,-9.544 4.215,-9.638 4.15,-9.68 4.104,-9.829 c -0.047,-0.149 -0.07,-0.23 -0.08,-0.26 -0.04,-0.098 -0.092,-0.199 0.224,-0.058 0.1,0.043 2.923,1.262 3.096,1.354 0.172,0.093 0.274,0.124 0.355,0.276 0.08,0.152 0.101,0.179 0.145,0.286 0.049,0.112 0.104,0.245 -0.217,0.088 M 8.824,1.145 C 8.799,1.399 8.76,1.442 8.904,1.571 9.047,1.7 9.37,1.961 9.199,2.202 9.025,2.44 8.723,2.852 8.637,3.108 8.564,3.325 8.5,3.504 8.391,3.334 8.264,3.141 8.211,3.026 8.036,2.799 7.945,2.68 7.854,2.623 7.954,2.442 8.094,2.198 8.275,1.784 8.301,1.479 8.314,1.319 8.354,0.971 8.404,0.643 8.469,0.213 9.245,-5.418 9.15,-5.537 9.057,-5.656 8.439,-6.179 7.375,-5.586 l -0.1,0.063 c 0.772,0.551 0.704,1.082 0.58,1.279 -0.224,0.358 -2.265,1.496 -3.425,-0.344 -0.127,-0.187 -0.223,-0.63 0.047,-0.468 0.23,0.138 0.826,0.172 1.46,-0.227 l 0.149,-0.098 c -1.509,-0.978 -2.85,-0.347 -3.289,-0.074 0.037,0.172 0.062,0.313 0.066,0.387 0.014,0.299 -0.175,0.328 -0.258,0.027 -0.082,-0.298 -0.126,-0.685 -0.273,-0.978 -0.26,-0.52 -1.008,-0.115 -1.32,0.025 0.09,0.262 0.164,0.569 0.22,0.922 0.034,0.203 -0.091,0.373 -0.228,-0.053 -0.134,-0.414 -0.613,-1.646 -2.736,-0.935 0.029,0.248 0.179,0.804 -0.284,0.566 -0.504,-0.26 -1.724,-0.722 -2.427,-0.898 -0.461,-0.115 -0.534,-0.186 -0.463,-0.389 0.07,-0.201 0.192,-0.742 0.437,-0.664 0.051,0.018 0.137,0.045 0.242,0.08 -0.207,-0.549 -0.935,-2.24 -2.246,-2.779 -0.308,-0.119 -1.64,-0.488 -3.035,0.137 -0.172,0.054 -0.426,-0.084 -0.165,-0.262 0.261,-0.178 3.028,-1.67 4.683,0.049 0.381,0.386 0.922,1.64 1.275,2.982 v 0.033 c 0.281,0.09 0.527,0.17 0.527,0.17 0.153,0.053 0.756,0.311 1.092,0.457 1.035,-0.765 2.037,-1.027 2.694,-0.213 0.818,-0.756 1.414,-0.593 1.668,-0.205 0.104,0.16 0.222,0.465 0.324,0.787 1.301,-1.281 3.535,-0.047 4.039,0.309 0.172,-0.184 0.334,-0.371 0.379,-0.463 0.084,-0.168 0.558,-0.635 1.48,-0.475 0.311,0.053 1.104,0.42 1.055,1.813 C 9.516,-3.131 8.918,0.469 8.918,0.469 8.873,0.764 8.824,1.145 8.824,1.145 m -20.017,-4.629 c -0.127,0.588 -0.766,1.684 -0.766,1.684 -0.104,0.183 -0.197,0.304 -0.242,0.195 -0.045,-0.106 -0.197,-0.947 -0.197,-0.947 0.225,-0.327 1.105,-2.092 1.025,-2.401 -0.082,-0.308 -0.8,-1.859 -3.065,-1.74 -0.236,0.012 -2.537,0.346 -1.394,3.053 0.041,0.095 -0.061,0.291 -0.207,0.068 -0.191,-0.289 -1.324,-3.457 1.068,-4.045 0.407,-0.099 2.219,-0.273 3.533,1.295 0.157,0.188 0.612,1.131 0.245,2.838 m 3.617,-0.971 c -0.184,0.34 -0.449,0.602 -0.625,0.754 -0.342,0.291 -0.645,-0.133 -0.701,-0.314 -0.192,-0.594 0.82,-0.492 1.039,-0.477 0.093,0.008 0.189,0.022 0.287,0.037 m -1.362,-4.099 c -1.576,-0.653 -3.572,-0.227 -3.776,-0.182 -0.405,0.094 -0.231,0.359 0.112,0.307 3.625,-0.483 5.038,2.179 5.254,2.865 l 0.032,0.176 c -0.643,-0.129 -1.295,-0.137 -1.53,-0.065 -0.933,0.291 -0.756,1.694 0.007,2.612 0.776,0.931 1.521,-0.561 1.642,-0.864 0.822,-2.08 -0.375,-3.525 -0.504,-3.701 -0.36,-0.486 -0.74,-0.943 -1.237,-1.148 m 20.178,7.012 c 0.108,-0.788 0.481,-3.126 0.505,-4.792 0.007,-0.392 0.138,-0.489 0.23,-0.207 0.158,0.483 0.209,1.838 -0.033,3.814 -0.12,0.996 -0.579,4.067 -0.639,4.858 C 11.275,2.563 11.217,2.934 11.07,2.593 10.913,2.232 10.836,1.768 10.908,1.135 11.015,0.051 11.131,-0.761 11.24,-1.542 m -15.075,1.54 c 0.027,0.1 0.085,0.64 -0.171,0.966 -0.156,0.171 -0.329,0.182 -0.567,-0.186 -0.073,-0.112 -0.074,-0.227 0.085,-0.326 0.16,-0.098 0.653,-0.454 0.653,-0.454 m -2.289,-2.605 c -0.258,-0.122 -0.478,0.022 0.112,0.444 0.906,0.645 1.6,1.084 1.888,1.578 0,0 -0.551,0.356 -0.802,0.607 -0.251,0.253 0.068,0.95 0.316,1.223 0.634,0.714 0.936,0.243 1.012,0.115 0.308,-0.596 0.122,-1.342 0.033,-1.554 0,0 0.246,-0.185 0.317,-0.259 0.098,-0.104 0.054,-0.316 -0.075,-0.694 -0.046,-0.133 -0.191,0.228 -0.531,0.388 -0.267,-0.563 -0.56,-1.038 -2.27,-1.848 M 0.989,1.647 C 1.024,1.657 1.066,1.653 1.109,1.693 1.249,1.824 1.366,2.171 1.38,2.289 1.364,2.38 1.038,2.412 0.944,2.435 0.622,2.512 0.315,2.682 -0.02,2.703 -0.536,2.737 -1.016,2.504 -1.282,1.96 -1.312,1.889 -1.354,1.794 -1.383,1.723 -1.415,1.604 -1.354,1.524 -1.291,1.616 c 0.071,0.107 0.159,0.211 0.271,0.279 0.264,0.16 0.546,0.222 0.833,0.194 C 0.073,2.064 0.562,1.881 0.562,1.856 0.558,1.799 -0.576,1.238 -0.755,1.126 -0.831,1.077 -0.926,0.989 -0.909,0.9 -0.896,0.831 -0.786,0.817 -0.694,0.85 -0.248,1.011 -0.089,1 0.272,1.154 0.759,1.363 0.903,1.621 0.989,1.647 M 17.313,0.259 c -0.046,-0.105 -0.068,-0.132 -0.15,-0.283 -0.085,-0.149 -0.184,-0.18 -0.36,-0.271 -0.175,-0.087 -3.012,-1.258 -3.111,-1.301 -0.322,-0.137 -0.267,-0.037 -0.225,0.066 0.011,0.029 0.035,0.108 0.084,0.255 0.047,0.151 0.114,0.191 0.334,0.28 0.218,0.092 3.008,1.248 3.217,1.344 0.319,0.151 0.262,0.021 0.211,-0.09 m -1.126,-5.516 c -0.216,-0.016 -1.228,-0.116 -1.037,0.476 0.054,0.182 0.358,0.606 0.698,0.315 0.177,-0.155 0.445,-0.416 0.629,-0.756 z m -0.972,1.648 c -0.766,-0.916 -0.944,-2.32 -0.011,-2.609 0.235,-0.073 0.888,-0.065 1.532,0.064 L 16.704,-6.33 c -0.218,-0.687 -1.63,-3.345 -5.253,-2.867 -0.344,0.055 -0.521,-0.211 -0.113,-0.305 0.205,-0.046 2.198,-0.47 3.775,0.182 0.496,0.203 0.879,0.662 1.239,1.148 0.128,0.176 1.324,1.622 0.502,3.702 -0.12,0.3 -0.864,1.795 -1.639,0.861 m 11.887,-5.343 c -0.204,-0.105 -2.498,-1.293 -2.717,-1.388 -0.215,-0.096 -0.28,-0.139 -0.323,-0.288 -0.044,-0.152 -0.069,-0.23 -0.08,-0.259 -0.037,-0.102 -0.087,-0.205 0.229,-0.059 0.098,0.045 2.441,1.25 2.611,1.344 0.171,0.094 0.274,0.127 0.352,0.279 0.078,0.15 0.099,0.18 0.142,0.285 0.047,0.114 0.1,0.244 -0.214,0.086 M 37.479,1.693 c -0.037,0.43 -0.102,0.803 -0.242,0.459 -0.15,-0.368 -0.22,-0.833 -0.136,-1.461 0.128,-1.083 0.253,-1.896 0.376,-2.67 0.124,-0.783 0.535,-3.119 0.589,-4.784 0.011,-0.393 0.143,-0.487 0.232,-0.203 0.15,0.485 0.177,1.84 -0.098,3.813 -0.138,0.994 -0.648,4.057 -0.721,4.846 m -11.161,-8.35 c 0.045,0.203 0.123,0.588 -0.191,1.104 -0.19,0.306 -0.781,0.363 -0.781,0.363 0.117,0.252 0.947,1.873 -0.894,3.941 -0.102,0.11 -0.125,0.049 -0.151,-0.06 -0.03,-0.112 -0.235,-1.069 -0.235,-1.069 0.179,-0.244 1.47,-1.669 1.08,-2.056 -0.142,-0.143 -1.158,-0.569 -1.837,-0.711 -0.041,-0.1 -0.139,-0.404 -0.196,-0.549 -0.054,-0.145 -0.017,-0.17 0.069,-0.193 0.084,-0.02 1.504,0.009 2.65,-0.561 0.084,-0.068 0.031,-0.107 -0.111,-0.217 -0.141,-0.107 -1.685,-1.59 -3.785,-1.525 -0.262,0.006 -2.4,0.045 -2.471,2.115 -0.016,0.252 0.096,0.84 0.551,1.795 0.074,0.123 -0.036,0.233 -0.157,0.076 -0.123,-0.154 -1.521,-2.226 -0.532,-3.943 0.146,-0.223 1.38,-1.791 4.423,-0.731 0.385,0.135 2.338,1.18 2.568,2.221 m 9.093,6.654 c -0.016,0.18 0.011,0.262 0.044,0.307 0.043,0.055 0.244,0.346 0.313,0.496 0.037,0.078 -0.03,0.27 -0.114,0.379 C 35.531,1.339 35.245,1.81 35.213,1.951 35.176,2.103 35.088,2.273 35.021,2.128 34.879,1.822 34.686,1.626 34.637,1.552 34.59,1.478 34.493,1.23 34.609,1.005 c 0.116,-0.226 0.218,-0.377 0.243,-0.529 0.023,-0.156 0.023,-0.43 0.089,-0.758 0.082,-0.398 0.911,-5.176 0.954,-5.424 0.039,-0.25 0.082,-0.65 -0.196,-0.634 -0.244,0.011 -1.06,0.056 -1.245,0.066 0.134,0.268 0.192,0.502 0.21,0.611 0.04,0.262 -0.085,0.246 -0.207,0.069 -0.125,-0.18 -0.539,-0.528 -0.994,-0.733 -1.479,-0.635 -3.22,-0.76 -4.295,-0.428 -1.078,0.333 -1.217,1.338 -1.244,1.684 -0.028,0.346 -0.307,4.852 -0.641,6.727 -0.041,0.207 -0.074,0.373 -0.222,0.084 -0.213,-0.602 -0.153,-1.227 -0.028,-1.766 0.125,-0.537 0.367,-4.338 0.381,-5.102 0.027,-1.56 0.454,-2.013 0.772,-2.25 1.423,-1.203 4.585,-0.166 5.138,0.028 0.336,0.146 0.582,0.345 0.774,0.556 0.222,-0.13 0.563,-0.316 0.775,-0.361 0.329,-0.07 0.883,-0.277 1.035,0.068 0.151,0.344 0.51,1.397 0.428,2.016 -0.084,0.621 -0.925,5.068 -0.925,5.068 m -5.409,2.348 c 0.1,0.045 2.656,1.207 2.828,1.301 0.172,0.094 0.272,0.127 0.35,0.279 0.082,0.151 0.099,0.18 0.144,0.285 0.046,0.116 0.1,0.246 -0.215,0.086 C 32.904,4.193 30.396,3.046 30.178,2.951 29.963,2.855 29.898,2.812 29.854,2.663 29.809,2.513 29.786,2.433 29.775,2.404 29.736,2.3 29.687,2.199 30.002,2.345 m -6.246,-2.992 0.125,0.008 0.637,0.636 -0.006,0.08 C 24.367,0.175 24.234,0.283 24.109,0.408 23.992,0.523 23.893,0.654 23.797,0.779 L 23.725,0.785 23.09,0.144 23.072,0.027 c 0.088,-0.123 0.188,-0.242 0.298,-0.356 0.122,-0.119 0.25,-0.226 0.386,-0.318 m 8.113,-0.468 -0.579,-0.692 -0.007,-0.118 c 0.099,-0.119 0.208,-0.229 0.329,-0.329 0.133,-0.106 0.269,-0.207 0.41,-0.286 l 0.126,0.022 0.58,0.688 -0.013,0.08 c -0.152,0.083 -0.294,0.177 -0.432,0.293 -0.125,0.104 -0.235,0.224 -0.344,0.342 z m 0.542,-2.417 -0.021,-0.041 -0.289,0.208 c -0.133,0.109 -0.246,0.233 -0.354,0.353 l -0.077,0.002 -0.6,-0.718 -0.008,-0.126 c 0.104,-0.12 0.215,-0.234 0.343,-0.336 0.133,-0.114 0.275,-0.216 0.424,-0.298 l 0.131,0.021 0.568,0.678 0.218,-0.21 c 0.136,-0.111 0.279,-0.21 0.428,-0.295 l 0.13,0.021 0.599,0.721 -0.018,0.077 c -0.153,0.086 -0.3,0.187 -0.442,0.305 -0.131,0.107 -0.243,0.233 -0.355,0.354 h -0.074 z m 0.021,4.831 C 32.49,1.157 32.536,0.99 32.529,0.895 32.304,0.676 32.061,0.64 31.885,0.786 31.772,0.879 31.729,1.054 31.74,1.285 31.747,1.45 31.768,1.511 31.622,1.395 31.433,1.241 31.484,1.255 31.474,1.169 31.407,0.628 31.175,0.386 30.758,0.357 30.493,0.338 30.301,0.521 30.484,1.04 c 0.039,0.113 -0.039,0.23 -0.155,0 -0.392,-0.78 -0.153,-1.215 0.247,-1.276 0.326,-0.048 0.713,0.138 0.911,0.632 0.152,-0.251 0.458,-0.323 0.735,-0.251 0.355,0.093 0.433,0.257 0.532,0.543 0.1,0.278 0.103,0.644 -0.031,1.085 C 32.701,1.845 32.66,1.806 32.644,1.771 L 32.454,1.41 C 32.432,1.371 32.416,1.344 32.432,1.299 M 51.463,0.302 c -0.159,0.1 -0.157,0.215 -0.085,0.326 0.238,0.368 0.411,0.358 0.568,0.187 0.255,-0.326 0.198,-0.866 0.17,-0.966 0,0 -0.493,0.355 -0.653,0.453 m 0.634,-1.211 c 0.341,-0.159 0.485,-0.52 0.531,-0.388 0.129,0.378 0.173,0.59 0.074,0.695 -0.07,0.074 -0.316,0.259 -0.316,0.259 0.09,0.212 0.274,0.958 -0.032,1.553 -0.076,0.128 -0.378,0.6 -1.013,-0.114 -0.248,-0.273 -0.567,-0.971 -0.316,-1.224 0.251,-0.251 0.802,-0.606 0.802,-0.606 -0.288,-0.494 -0.982,-0.934 -1.888,-1.578 -0.589,-0.422 -0.369,-0.567 -0.112,-0.444 1.709,0.809 2.002,1.285 2.27,1.847 m -9.808,1.227 c -0.159,0.099 -0.157,0.215 -0.085,0.326 0.238,0.368 0.411,0.357 0.568,0.186 0.255,-0.326 0.198,-0.866 0.17,-0.965 0,0 -0.493,0.355 -0.653,0.453 m 0.634,-1.211 c 0.341,-0.159 0.485,-0.521 0.531,-0.388 0.129,0.378 0.173,0.59 0.075,0.694 -0.071,0.075 -0.317,0.259 -0.317,0.259 0.09,0.212 0.275,0.958 -0.032,1.554 -0.076,0.128 -0.378,0.6 -1.013,-0.114 -0.248,-0.274 -0.566,-0.971 -0.315,-1.224 0.251,-0.251 0.801,-0.606 0.801,-0.606 -0.288,-0.495 -0.982,-0.934 -1.887,-1.579 -0.59,-0.421 -0.37,-0.566 -0.113,-0.444 1.71,0.81 2.003,1.285 2.27,1.848 m 4.568,1.329 c 0.035,0.01 0.077,0.006 0.12,0.046 0.14,0.131 0.257,0.478 0.271,0.596 C 47.866,1.169 47.54,1.202 47.446,1.224 47.124,1.301 46.817,1.471 46.482,1.493 45.966,1.526 45.486,1.293 45.22,0.749 45.19,0.678 45.147,0.583 45.118,0.512 c -0.031,-0.119 0.03,-0.199 0.093,-0.107 0.071,0.107 0.159,0.212 0.271,0.279 0.265,0.16 0.546,0.222 0.833,0.194 0.26,-0.025 0.749,-0.208 0.748,-0.233 -0.003,-0.057 -1.137,-0.618 -1.315,-0.73 -0.077,-0.048 -0.172,-0.137 -0.155,-0.226 0.013,-0.069 0.123,-0.083 0.215,-0.05 0.446,0.161 0.606,0.15 0.966,0.304 0.487,0.209 0.631,0.468 0.717,0.493 m -5.908,-6.81 c -0.068,-0.145 -0.157,-0.394 -0.21,-0.54 -0.018,-0.051 0.023,-0.114 0.086,-0.077 0.36,0.221 0.899,0.493 1.471,0.695 0.519,0.184 0.927,0.303 1.304,0.325 0.058,0.008 0.367,0.55 0.413,0.629 0.065,0.101 0.018,0.134 -0.063,0.119 -0.438,-0.084 -0.777,-0.162 -1.307,-0.114 -0.654,0.058 -1.165,0.558 -1.147,0.754 0.015,0.15 0.478,0.447 0.651,0.42 0.501,-0.079 0.492,-0.519 0.627,-0.524 0.161,-0.006 0.489,0.572 0.509,0.729 0.021,0.172 -0.321,0.581 -0.648,0.601 -0.539,0.032 -1.451,-0.88 -1.809,-1.441 -0.131,-0.207 -0.117,-0.523 0.069,-0.684 0.166,-0.142 0.44,-0.291 0.749,-0.479 -0.151,-0.053 -0.548,-0.285 -0.695,-0.413 m 18.462,2.793 c -0.091,0.85 -0.449,3.473 -0.483,4.147 -0.014,0.369 -0.061,0.687 -0.219,0.402 -0.168,-0.305 -0.262,-0.697 -0.208,-1.234 0.073,-0.926 0.16,-1.621 0.244,-2.285 0.083,-0.672 0.382,-2.674 0.351,-4.092 -0.005,-0.332 0.121,-0.418 0.222,-0.18 0.176,0.402 0.27,1.553 0.093,3.242 m -4.304,-4.393 c -0.117,0.115 -0.218,0.244 -0.314,0.371 l -0.07,0.006 -0.636,-0.641 -0.019,-0.117 c 0.089,-0.125 0.189,-0.242 0.299,-0.354 0.121,-0.123 0.251,-0.228 0.386,-0.322 l 0.125,0.01 0.637,0.639 -0.005,0.078 c -0.146,0.095 -0.28,0.203 -0.403,0.33 m 2.968,3.099 c -0.435,0.028 -2.445,0.065 -3.624,0.715 0.117,0.1 0.372,0.428 0.28,1.252 -0.089,0.824 -0.419,3.18 -0.419,3.18 -0.026,0.246 -0.127,0.482 0.014,0.607 0.141,0.127 0.436,0.342 0.266,0.574 -0.17,0.233 -0.462,0.674 -0.547,0.924 -0.072,0.211 -0.134,0.387 -0.241,0.221 -0.125,-0.191 -0.168,-0.436 -0.337,-0.656 -0.088,-0.117 -0.18,-0.174 -0.08,-0.35 0.136,-0.238 0.272,-0.674 0.298,-0.973 0.012,-0.156 0.057,-0.494 0.102,-0.816 0,0 0.576,-2.976 0.53,-3.459 0,0 -2.383,-0.084 -2.692,-0.385 l -0.478,-0.742 c -0.04,-0.082 -0.037,-0.172 0.077,-0.154 0.114,0.019 1.579,0.488 3.635,-0.336 -0.243,-0.084 -2.959,-1.246 -5.253,-0.986 -0.344,0.009 -2.755,0.326 -2.955,1.548 -0.026,0.155 -0.066,0.211 -0.148,0.055 -0.074,-0.139 -0.742,-1.137 0.308,-1.853 -0.333,-0.704 -0.926,-1.657 -1.833,-2.03 -0.297,-0.111 -1.621,-0.451 -2.958,0.149 -0.165,0.052 -0.407,-0.08 -0.159,-0.25 0.252,-0.172 2.696,-1.735 4.283,-0.09 0.281,0.287 0.757,1.057 1.12,1.978 1.626,-0.884 4.331,-0.398 4.331,-0.398 0.587,0.125 1.204,0.299 1.841,0.545 0.335,0.137 2.636,1.178 4.195,0.814 0.326,-0.08 0.4,-0.08 0.4,-0.08 0,0 0.28,0.598 0.344,0.742 0.062,0.145 0.136,0.227 -0.3,0.254 M 47.16,-1.978 c 0.125,-0.125 0.259,-0.235 0.404,-0.332 l 0.006,-0.078 -0.636,-0.637 -0.126,-0.01 c -0.135,0.092 -0.264,0.201 -0.386,0.321 -0.11,0.113 -0.21,0.23 -0.298,0.355 l 0.017,0.117 0.637,0.641 0.071,-0.006 c 0.095,-0.127 0.196,-0.256 0.311,-0.371"
         style="fill:#231f20;fill-opacity:1;fill-rule:nonzero;stroke:none"
         transform="matrix(1.3333333,0,0,-1.3333333,394.14453,45.107467)"
         clip-path="url(#clipPath24)"
         id="path25" />
    </g>
  </g>
</svg>
