<?xml version="1.0" encoding="UTF-8" standalone="no"?>
<!-- Created with Inkscape (http://www.inkscape.org/) -->

<svg
   version="1.1"
   id="svg1"
   width="105.91083"
   height="20.927643"
   viewBox="0 0 105.91083 20.927643"
   xmlns="http://www.w3.org/2000/svg"
   xmlns:svg="http://www.w3.org/2000/svg">
  <defs
     id="defs1">
    <clipPath
       clipPathUnits="userSpaceOnUse"
       id="clipPath40">
      <path
         d="m 276.314,517.912 h 79.434 v -15.696 h -79.434 z"
         transform="translate(-292.94241,-513.25491)"
         id="path40" />
    </clipPath>
    <clipPath
       clipPathUnits="userSpaceOnUse"
       id="clipPath42">
      <path
         d="M 0,547.086 H 382.677 V 0 H 0 Z"
         transform="matrix(1.3333333,0,0,-1.3333333,0,729.448)"
         id="path42" />
    </clipPath>
  </defs>
  <g
     id="layer-MC1"
     transform="translate(-368.41983,-38.899036)">
    <g
       id="g41"
       clip-path="url(#clipPath42)">
      <path
         d="m 0,0 -0.58,-0.694 -0.007,-0.118 c 0.1,-0.117 0.209,-0.227 0.329,-0.328 0.131,-0.108 0.27,-0.204 0.41,-0.284 l 0.125,0.019 0.579,0.692 -0.012,0.077 C 0.691,-0.553 0.549,-0.458 0.414,-0.342 0.288,-0.238 0.177,-0.118 0.068,0 Z m 0.247,-2.303 -0.023,-0.04 -0.289,0.21 c -0.13,0.109 -0.245,0.232 -0.353,0.354 l -0.077,-0.001 -0.6,-0.718 -0.008,-0.124 c 0.105,-0.12 0.216,-0.236 0.343,-0.34 0.132,-0.114 0.276,-0.213 0.425,-0.296 l 0.131,0.023 0.566,0.675 0.221,-0.207 C 0.719,-2.88 0.861,-2.979 1.009,-3.063 l 0.131,0.02 0.598,0.719 -0.018,0.078 c -0.153,0.09 -0.3,0.188 -0.443,0.307 -0.131,0.108 -0.242,0.232 -0.354,0.356 L 0.849,-1.584 Z m -14.485,2.346 -0.071,0.004 -0.638,-0.64 -0.018,-0.118 c 0.088,-0.123 0.188,-0.242 0.299,-0.353 0.121,-0.121 0.25,-0.229 0.385,-0.322 l 0.125,0.009 0.638,0.637 -0.005,0.08 c -0.145,0.096 -0.28,0.205 -0.403,0.33 -0.119,0.116 -0.217,0.244 -0.312,0.373 m 1.636,2.526 c 0.173,0.093 0.274,0.123 0.357,0.275 0.079,0.152 0.099,0.179 0.144,0.286 0.049,0.114 0.103,0.242 -0.213,0.088 -0.207,-0.101 -3.664,-1.582 -3.88,-1.675 -0.213,-0.094 -0.28,-0.136 -0.324,-0.285 -0.044,-0.148 -0.068,-0.229 -0.079,-0.261 -0.041,-0.099 -0.092,-0.203 0.225,-0.058 0.094,0.045 3.6,1.539 3.77,1.63 M 7.627,-8.143 C 7.425,-8.244 4.651,-9.449 4.433,-9.544 4.215,-9.638 4.15,-9.68 4.104,-9.829 c -0.047,-0.149 -0.07,-0.23 -0.08,-0.26 -0.04,-0.098 -0.092,-0.199 0.224,-0.058 0.1,0.043 2.923,1.262 3.096,1.354 0.172,0.093 0.274,0.124 0.355,0.276 0.08,0.152 0.101,0.179 0.145,0.286 0.049,0.112 0.104,0.245 -0.217,0.088 M 8.824,1.145 C 8.799,1.399 8.76,1.442 8.904,1.571 9.047,1.7 9.37,1.961 9.199,2.202 9.025,2.44 8.723,2.852 8.637,3.108 8.564,3.325 8.5,3.504 8.391,3.334 8.264,3.141 8.211,3.026 8.036,2.799 7.945,2.68 7.854,2.623 7.955,2.442 8.094,2.198 8.275,1.784 8.301,1.479 8.314,1.319 8.354,0.971 8.404,0.643 8.469,0.213 9.245,-5.418 9.15,-5.537 9.057,-5.656 8.439,-6.179 7.375,-5.586 l -0.1,0.063 c 0.772,0.551 0.704,1.082 0.58,1.279 -0.224,0.358 -2.265,1.496 -3.425,-0.344 -0.127,-0.187 -0.223,-0.63 0.047,-0.468 0.23,0.138 0.826,0.172 1.46,-0.227 l 0.149,-0.098 c -1.509,-0.978 -2.85,-0.347 -3.289,-0.074 0.037,0.172 0.062,0.313 0.066,0.387 0.014,0.299 -0.175,0.328 -0.258,0.027 -0.082,-0.298 -0.126,-0.685 -0.273,-0.978 -0.26,-0.52 -1.008,-0.115 -1.32,0.025 0.09,0.262 0.164,0.569 0.22,0.922 0.034,0.203 -0.091,0.373 -0.228,-0.053 -0.134,-0.414 -0.613,-1.646 -2.736,-0.935 0.029,0.248 0.179,0.804 -0.284,0.566 -0.504,-0.26 -1.724,-0.722 -2.427,-0.898 -0.461,-0.115 -0.534,-0.186 -0.463,-0.389 0.07,-0.201 0.192,-0.742 0.437,-0.664 0.051,0.018 0.137,0.045 0.242,0.08 -0.207,-0.549 -0.935,-2.24 -2.246,-2.779 -0.308,-0.119 -1.64,-0.488 -3.035,0.137 -0.172,0.054 -0.426,-0.084 -0.165,-0.262 0.261,-0.178 3.028,-1.67 4.683,0.049 0.381,0.386 0.922,1.64 1.275,2.982 v 0.033 c 0.281,0.09 0.527,0.17 0.527,0.17 0.153,0.053 0.756,0.311 1.092,0.457 1.035,-0.765 2.037,-1.027 2.694,-0.213 0.818,-0.756 1.414,-0.593 1.668,-0.205 0.104,0.16 0.222,0.465 0.324,0.787 1.301,-1.281 3.535,-0.047 4.039,0.309 0.172,-0.184 0.334,-0.371 0.379,-0.463 0.084,-0.168 0.558,-0.635 1.48,-0.475 0.311,0.053 1.104,0.42 1.055,1.813 C 9.516,-3.131 8.918,0.469 8.918,0.469 8.873,0.764 8.824,1.145 8.824,1.145 m -20.017,-4.629 c -0.127,0.588 -0.766,1.684 -0.766,1.684 -0.104,0.183 -0.197,0.304 -0.242,0.195 -0.045,-0.106 -0.197,-0.947 -0.197,-0.947 0.225,-0.327 1.105,-2.092 1.025,-2.401 -0.082,-0.308 -0.8,-1.859 -3.065,-1.74 -0.236,0.012 -2.537,0.346 -1.394,3.053 0.041,0.095 -0.061,0.291 -0.207,0.068 -0.191,-0.289 -1.324,-3.457 1.068,-4.045 0.407,-0.099 2.219,-0.273 3.533,1.295 0.157,0.188 0.612,1.131 0.245,2.838 m 3.617,-0.971 c -0.184,0.34 -0.449,0.602 -0.625,0.754 -0.342,0.291 -0.645,-0.133 -0.701,-0.314 -0.192,-0.594 0.82,-0.492 1.039,-0.477 0.093,0.008 0.189,0.022 0.287,0.037 m -1.362,-4.099 c -1.576,-0.653 -3.572,-0.227 -3.776,-0.182 -0.405,0.094 -0.231,0.359 0.112,0.307 3.625,-0.483 5.038,2.179 5.254,2.865 l 0.032,0.176 c -0.643,-0.129 -1.295,-0.137 -1.53,-0.065 -0.933,0.291 -0.756,1.694 0.007,2.612 0.776,0.931 1.521,-0.561 1.642,-0.864 0.822,-2.08 -0.375,-3.525 -0.504,-3.701 -0.36,-0.486 -0.74,-0.943 -1.237,-1.148 m 20.178,7.012 c 0.108,-0.788 0.481,-3.126 0.505,-4.792 0.007,-0.392 0.138,-0.489 0.23,-0.207 0.158,0.483 0.209,1.838 -0.033,3.814 -0.12,0.996 -0.579,4.067 -0.639,4.858 C 11.275,2.563 11.217,2.934 11.07,2.593 10.913,2.232 10.836,1.768 10.908,1.135 11.015,0.051 11.131,-0.761 11.24,-1.542 m -15.075,1.54 c 0.027,0.1 0.085,0.64 -0.171,0.966 -0.156,0.171 -0.329,0.182 -0.567,-0.186 -0.073,-0.112 -0.074,-0.227 0.085,-0.326 0.16,-0.098 0.653,-0.454 0.653,-0.454 m -2.289,-2.605 c -0.258,-0.122 -0.478,0.022 0.112,0.444 0.906,0.645 1.6,1.084 1.888,1.578 0,0 -0.551,0.356 -0.802,0.607 -0.251,0.253 0.068,0.95 0.316,1.223 0.634,0.714 0.936,0.243 1.012,0.115 0.308,-0.596 0.122,-1.342 0.033,-1.554 0,0 0.246,-0.185 0.317,-0.259 0.098,-0.104 0.054,-0.316 -0.075,-0.694 -0.046,-0.133 -0.191,0.228 -0.531,0.388 -0.267,-0.563 -0.56,-1.038 -2.27,-1.848 M 0.989,1.647 C 1.024,1.657 1.066,1.653 1.109,1.693 1.249,1.824 1.366,2.171 1.38,2.289 1.364,2.38 1.038,2.412 0.944,2.435 0.622,2.512 0.315,2.682 -0.02,2.703 -0.536,2.737 -1.016,2.504 -1.282,1.96 -1.312,1.889 -1.354,1.794 -1.383,1.723 -1.415,1.604 -1.354,1.524 -1.291,1.616 c 0.071,0.107 0.159,0.211 0.271,0.279 0.265,0.16 0.546,0.222 0.833,0.194 C 0.073,2.064 0.562,1.881 0.562,1.856 0.558,1.799 -0.576,1.238 -0.755,1.126 -0.831,1.077 -0.926,0.989 -0.909,0.9 -0.896,0.831 -0.786,0.817 -0.694,0.85 -0.248,1.011 -0.089,1 0.272,1.154 0.759,1.363 0.903,1.621 0.989,1.647 M 17.313,0.259 c -0.046,-0.105 -0.067,-0.132 -0.15,-0.283 -0.084,-0.149 -0.184,-0.18 -0.36,-0.271 -0.175,-0.087 -3.012,-1.258 -3.111,-1.301 -0.322,-0.137 -0.267,-0.037 -0.225,0.066 0.011,0.029 0.035,0.108 0.084,0.255 0.047,0.151 0.114,0.191 0.334,0.28 0.218,0.092 3.008,1.248 3.217,1.344 0.319,0.151 0.262,0.021 0.211,-0.09 m -1.126,-5.516 c -0.216,-0.016 -1.228,-0.116 -1.037,0.476 0.055,0.182 0.358,0.606 0.698,0.315 0.177,-0.155 0.445,-0.416 0.629,-0.756 z m -0.972,1.648 c -0.766,-0.916 -0.944,-2.32 -0.01,-2.609 0.234,-0.073 0.887,-0.065 1.531,0.064 L 16.705,-6.33 c -0.219,-0.687 -1.631,-3.345 -5.254,-2.867 -0.344,0.055 -0.521,-0.211 -0.113,-0.305 0.205,-0.046 2.198,-0.47 3.775,0.182 0.496,0.203 0.879,0.662 1.239,1.148 0.128,0.176 1.324,1.622 0.502,3.702 -0.12,0.3 -0.864,1.795 -1.639,0.861 M 39.19,-4.382 c 0.218,-1.288 -0.251,-2.303 -0.351,-2.461 -0.56,-0.803 -1.544,-0.1 -1.746,0.023 -0.2,0.127 -0.377,0.037 -0.622,-0.103 -1.885,-1.163 -3.343,-0.983 -3.653,-0.944 -1.703,0.194 -1.844,2.272 -1.91,2.854 -0.073,0.654 -0.375,3.947 -0.645,4.994 -0.09,0.412 0.09,1.082 0.129,1.277 0.039,0.194 0.129,0.258 0.206,-0.039 0.078,-0.295 0.775,-5.537 0.852,-6.078 0.258,-1.795 1.317,-1.897 1.691,-1.988 1.652,-0.194 3.316,0.75 3.588,0.941 0.271,0.195 0.568,0.027 0.709,-0.039 0.143,-0.062 0.71,-0.295 1.059,-0.35 0.349,-0.05 0.375,0.467 0.336,0.791 -0.039,0.321 -0.737,4.325 -0.772,4.569 -0.075,0.504 -0.156,0.873 -0.177,0.971 -0.068,0.328 -0.065,0.597 -0.089,0.757 -0.024,0.151 -0.127,0.303 -0.242,0.528 -0.117,0.224 -0.021,0.47 0.026,0.548 0.049,0.075 0.244,0.27 0.386,0.577 0.067,0.144 0.153,-0.026 0.19,-0.18 0.034,-0.141 0.32,-0.609 0.443,-0.77 0.085,-0.109 0.147,-0.3 0.113,-0.378 C 38.644,0.965 38.44,0.676 38.398,0.621 38.365,0.575 38.337,0.493 38.355,0.315 c 0,0 0.745,-4.154 0.835,-4.697 M 27.526,-7.086 c -0.185,0.039 -0.473,0.19 -0.692,0.315 -1.043,-1.137 -2.97,-1.34 -3.207,-1.385 0,0 -3.426,-0.59 -4.271,1.418 -0.389,1.035 0.266,2.072 0.39,2.223 0.123,0.148 0.195,0.047 0.083,-0.127 -0.452,-0.686 -0.066,-2.653 2.878,-2.66 3.212,-0.01 4.337,1.617 4.494,1.906 0.158,0.293 0.291,0.035 0.258,-0.113 -0.044,-0.26 -0.126,-0.491 -0.233,-0.7 0.294,-0.017 0.92,-0.05 1.128,-0.062 0.277,-0.014 0.236,0.387 0.194,0.635 -0.042,0.25 -0.871,5.029 -0.953,5.427 -0.067,0.328 -0.064,0.598 -0.089,0.756 -0.024,0.153 -0.127,0.301 -0.243,0.528 -0.116,0.224 -0.02,0.472 0.027,0.548 0.05,0.075 0.244,0.272 0.386,0.575 0.066,0.146 0.153,-0.026 0.19,-0.178 0.033,-0.141 0.32,-0.609 0.444,-0.77 0.084,-0.109 0.148,-0.3 0.113,-0.379 C 28.354,0.721 28.151,0.43 28.109,0.373 28.076,0.328 28.048,0.246 28.065,0.069 c 0,0 0.842,-4.448 0.925,-5.069 0.083,-0.621 -0.277,-1.67 -0.428,-2.015 -0.152,-0.348 -0.705,-0.139 -1.036,-0.071 m -3.519,4.973 c 0.134,-0.117 0.276,-0.212 0.43,-0.295 l 0.012,-0.08 -0.579,-0.69 -0.125,-0.018 c -0.141,0.079 -0.279,0.174 -0.411,0.285 -0.12,0.099 -0.23,0.209 -0.328,0.328 l 0.007,0.119 0.579,0.693 0.07,-0.001 c 0.108,-0.119 0.218,-0.235 0.345,-0.341 M 23.94,-3.9 l 0.602,0.717 0.075,-0.002 c 0.112,-0.119 0.225,-0.244 0.355,-0.353 0.141,-0.117 0.289,-0.22 0.442,-0.304 l 0.018,-0.08 -0.6,-0.72 -0.13,-0.019 c -0.147,0.083 -0.29,0.182 -0.426,0.296 l -0.219,0.206 -0.567,-0.675 -0.132,-0.02 c -0.148,0.082 -0.291,0.18 -0.424,0.295 -0.127,0.105 -0.239,0.218 -0.344,0.339 l 0.01,0.124 0.598,0.717 0.077,10e-4 c 0.109,-0.121 0.224,-0.246 0.354,-0.354 l 0.289,-0.209 z m 11.373,2.475 c 0.135,-0.114 0.277,-0.212 0.431,-0.293 l 0.013,-0.078 -0.579,-0.692 -0.124,-0.021 c -0.142,0.08 -0.282,0.177 -0.413,0.285 -0.12,0.102 -0.23,0.212 -0.328,0.329 l 0.007,0.12 0.579,0.692 0.071,0.002 c 0.107,-0.12 0.217,-0.24 0.343,-0.344 m -0.065,-1.788 0.603,0.719 0.074,0.001 c 0.112,-0.123 0.223,-0.247 0.353,-0.355 0.143,-0.119 0.29,-0.22 0.443,-0.305 l 0.019,-0.08 -0.599,-0.72 -0.13,-0.019 c -0.15,0.083 -0.29,0.182 -0.427,0.296 l -0.221,0.207 -0.566,-0.677 -0.131,-0.022 c -0.148,0.084 -0.291,0.181 -0.425,0.296 -0.127,0.107 -0.239,0.22 -0.343,0.339 l 0.008,0.126 0.599,0.717 0.078,10e-4 c 0.108,-0.122 0.224,-0.245 0.354,-0.353 l 0.288,-0.21 z m -4.149,-5.143 c -0.04,-0.107 -0.059,-0.135 -0.133,-0.29 -0.073,-0.156 -0.174,-0.19 -0.343,-0.289 -0.167,-0.102 -3.058,-1.298 -3.155,-1.348 -0.31,-0.16 -0.262,-0.053 -0.229,0.049 0.013,0.031 0.032,0.113 0.071,0.264 0.038,0.15 0.101,0.195 0.315,0.298 0.211,0.104 3.055,1.284 3.256,1.395 0.309,0.171 0.261,0.036 0.218,-0.079 m 0.943,11.168 c 0.013,0.03 0.037,0.108 0.088,0.259 0.05,0.146 0.115,0.187 0.335,0.275 0.22,0.088 2.765,1.146 2.973,1.244 0.321,0.149 0.264,0.018 0.212,-0.094 C 35.603,4.391 35.582,4.366 35.498,4.214 35.413,4.065 35.312,4.037 35.136,3.948 34.962,3.86 32.367,2.789 32.267,2.745 31.946,2.61 32.001,2.709 32.042,2.812 m 9.22,-6.222 c 0.265,-1.674 0.231,-2.825 0.078,-3.24 -0.09,-0.242 -0.219,-0.161 -0.231,0.172 -0.046,1.416 -0.445,3.397 -0.562,4.063 -0.12,0.661 -0.243,1.352 -0.366,2.271 -0.08,0.536 -0.007,0.931 0.146,1.244 0.141,0.296 0.199,-0.024 0.235,-0.389 0.069,-0.674 0.567,-3.274 0.7,-4.121 M 35.229,1.474 C 35.286,1.331 35.334,1.164 35.326,1.07 35.101,0.851 34.857,0.815 34.682,0.961 34.569,1.054 34.525,1.229 34.536,1.459 34.544,1.624 34.564,1.686 34.419,1.57 34.229,1.415 34.281,1.43 34.271,1.344 34.204,0.803 33.972,0.561 33.555,0.532 33.291,0.513 33.098,0.696 33.281,1.215 c 0.039,0.112 -0.039,0.23 -0.154,0 -0.393,-0.78 -0.154,-1.216 0.246,-1.276 0.326,-0.048 0.713,0.138 0.911,0.632 0.152,-0.251 0.458,-0.324 0.735,-0.251 0.355,0.092 0.433,0.257 0.532,0.543 C 35.65,1.141 35.654,1.507 35.52,1.948 35.498,2.02 35.458,1.981 35.44,1.946 L 35.252,1.584 C 35.229,1.546 35.213,1.519 35.229,1.474 m 18.9,-1.172 c -0.159,0.1 -0.157,0.215 -0.085,0.326 0.238,0.368 0.411,0.358 0.568,0.187 0.255,-0.326 0.198,-0.866 0.17,-0.966 0,0 -0.493,0.355 -0.653,0.453 m 0.634,-1.211 c 0.341,-0.159 0.485,-0.52 0.531,-0.388 0.129,0.378 0.173,0.59 0.074,0.695 -0.07,0.074 -0.316,0.259 -0.316,0.259 0.09,0.212 0.275,0.958 -0.032,1.553 -0.076,0.128 -0.378,0.6 -1.013,-0.114 -0.248,-0.273 -0.567,-0.971 -0.316,-1.224 0.251,-0.251 0.802,-0.606 0.802,-0.606 -0.288,-0.494 -0.982,-0.934 -1.888,-1.578 -0.589,-0.422 -0.369,-0.567 -0.112,-0.444 1.709,0.809 2.002,1.285 2.27,1.847 M 23.199,1.869 c -0.15,0.094 -0.148,0.204 -0.081,0.309 0.227,0.348 0.391,0.338 0.539,0.176 0.241,-0.309 0.187,-0.819 0.161,-0.914 0,0 -0.466,0.337 -0.619,0.429 M 23.8,0.723 c 0.322,-0.15 0.459,-0.493 0.503,-0.367 0.122,0.357 0.163,0.558 0.07,0.657 -0.067,0.07 -0.3,0.245 -0.3,0.245 0.085,0.2 0.261,0.906 -0.03,1.471 C 23.972,2.85 23.685,3.296 23.084,2.62 22.85,2.362 22.548,1.702 22.785,1.462 23.023,1.225 23.545,0.888 23.545,0.888 23.271,0.42 22.614,0.004 21.758,-0.605 c -0.559,-0.4 -0.35,-0.536 -0.107,-0.421 1.619,0.767 1.896,1.217 2.149,1.749 M 44.955,0.318 c -0.159,0.099 -0.157,0.215 -0.085,0.326 0.238,0.368 0.411,0.357 0.568,0.186 0.255,-0.326 0.198,-0.866 0.17,-0.965 0,0 -0.493,0.355 -0.653,0.453 m 0.634,-1.211 c 0.341,-0.159 0.485,-0.521 0.531,-0.388 0.129,0.378 0.173,0.59 0.075,0.694 -0.071,0.075 -0.317,0.259 -0.317,0.259 0.09,0.212 0.275,0.958 -0.032,1.554 -0.075,0.128 -0.378,0.6 -1.013,-0.114 -0.248,-0.274 -0.566,-0.971 -0.315,-1.224 0.251,-0.251 0.801,-0.606 0.801,-0.606 -0.288,-0.495 -0.982,-0.934 -1.887,-1.579 -0.59,-0.421 -0.369,-0.566 -0.113,-0.444 1.71,0.81 2.003,1.285 2.27,1.848 m 4.568,1.329 c 0.035,0.01 0.077,0.006 0.12,0.046 0.14,0.131 0.257,0.478 0.271,0.596 -0.016,0.091 -0.342,0.124 -0.436,0.146 -0.322,0.077 -0.629,0.247 -0.964,0.269 -0.516,0.033 -0.996,-0.2 -1.262,-0.744 -0.03,-0.071 -0.073,-0.166 -0.101,-0.237 -0.032,-0.119 0.029,-0.199 0.092,-0.107 0.071,0.107 0.159,0.212 0.271,0.279 0.265,0.16 0.546,0.222 0.833,0.194 0.26,-0.025 0.749,-0.208 0.748,-0.233 -0.003,-0.057 -1.137,-0.618 -1.315,-0.73 -0.077,-0.048 -0.172,-0.137 -0.155,-0.226 0.013,-0.069 0.123,-0.083 0.215,-0.05 0.446,0.161 0.606,0.15 0.966,0.304 0.487,0.209 0.631,0.468 0.717,0.493 m -5.908,-6.81 c -0.068,-0.145 -0.157,-0.394 -0.21,-0.54 -0.018,-0.051 0.023,-0.114 0.086,-0.077 0.36,0.221 0.899,0.493 1.471,0.695 0.519,0.184 0.927,0.303 1.304,0.325 0.058,0.008 0.367,0.55 0.413,0.629 0.065,0.101 0.018,0.134 -0.063,0.119 -0.437,-0.084 -0.777,-0.162 -1.307,-0.114 -0.654,0.058 -1.165,0.558 -1.147,0.754 0.015,0.15 0.478,0.447 0.651,0.42 0.501,-0.079 0.492,-0.519 0.627,-0.524 0.161,-0.006 0.489,0.572 0.509,0.729 0.021,0.172 -0.321,0.581 -0.648,0.601 -0.539,0.032 -1.451,-0.88 -1.809,-1.441 -0.131,-0.207 -0.117,-0.523 0.069,-0.684 0.166,-0.142 0.44,-0.291 0.749,-0.479 -0.151,-0.053 -0.548,-0.285 -0.695,-0.413 m 18.462,2.793 c -0.091,0.85 -0.449,3.473 -0.483,4.147 -0.014,0.369 -0.061,0.687 -0.219,0.402 -0.168,-0.305 -0.262,-0.697 -0.208,-1.234 0.073,-0.926 0.16,-1.621 0.244,-2.285 0.083,-0.672 0.382,-2.674 0.351,-4.092 -0.005,-0.332 0.121,-0.418 0.222,-0.18 0.176,0.402 0.27,1.553 0.093,3.242 m -4.304,-4.393 c -0.117,0.115 -0.218,0.244 -0.314,0.371 l -0.07,0.006 -0.636,-0.641 -0.019,-0.117 c 0.089,-0.125 0.189,-0.242 0.299,-0.354 0.121,-0.123 0.251,-0.228 0.386,-0.322 l 0.125,0.01 0.637,0.639 -0.005,0.078 c -0.146,0.095 -0.28,0.203 -0.403,0.33 m 2.968,3.099 c -0.435,0.028 -2.445,0.065 -3.624,0.715 0.117,0.1 0.372,0.428 0.28,1.252 -0.089,0.824 -0.419,3.18 -0.419,3.18 -0.026,0.246 -0.127,0.482 0.014,0.607 0.141,0.127 0.436,0.342 0.266,0.574 -0.17,0.233 -0.462,0.674 -0.547,0.924 -0.072,0.211 -0.134,0.387 -0.241,0.221 -0.125,-0.191 -0.168,-0.436 -0.337,-0.656 -0.088,-0.117 -0.18,-0.174 -0.079,-0.35 0.135,-0.238 0.271,-0.674 0.297,-0.973 0.012,-0.156 0.057,-0.494 0.102,-0.816 0,0 0.576,-2.976 0.53,-3.459 0,0 -2.383,-0.084 -2.692,-0.385 l -0.478,-0.742 c -0.04,-0.082 -0.037,-0.172 0.077,-0.154 0.114,0.019 1.579,0.488 3.635,-0.336 -0.243,-0.084 -2.959,-1.246 -5.253,-0.986 -0.343,0.009 -2.755,0.326 -2.954,1.548 -0.027,0.155 -0.067,0.211 -0.149,0.055 -0.074,-0.139 -0.742,-1.137 0.308,-1.853 -0.333,-0.704 -0.926,-1.657 -1.833,-2.03 -0.297,-0.111 -1.621,-0.451 -2.958,0.149 -0.165,0.052 -0.407,-0.08 -0.159,-0.25 0.252,-0.172 2.696,-1.735 4.283,-0.09 0.281,0.287 0.758,1.057 1.12,1.978 1.626,-0.884 4.331,-0.398 4.331,-0.398 0.587,0.125 1.204,0.299 1.841,0.545 0.335,0.137 2.636,1.178 4.195,0.814 0.326,-0.08 0.4,-0.08 0.4,-0.08 0,0 0.28,0.598 0.344,0.742 0.062,0.145 0.136,0.227 -0.3,0.254 m -11.548,2.897 c 0.125,-0.125 0.258,-0.235 0.403,-0.332 l 0.006,-0.078 -0.636,-0.637 -0.126,-0.01 c -0.135,0.092 -0.264,0.201 -0.386,0.321 -0.11,0.113 -0.21,0.23 -0.298,0.355 l 0.017,0.117 0.637,0.641 0.071,-0.006 c 0.095,-0.127 0.196,-0.256 0.312,-0.371"
         style="fill:#231f20;fill-opacity:1;fill-rule:nonzero;stroke:none"
         transform="matrix(1.3333333,0,0,-1.3333333,390.58987,45.108133)"
         clip-path="url(#clipPath40)"
         id="path41" />
    </g>
  </g>
</svg>
