<?xml version="1.0" encoding="UTF-8" standalone="no"?>
<!-- Created with Inkscape (http://www.inkscape.org/) -->

<svg
   width="28.787855mm"
   height="6.9146843mm"
   viewBox="0 0 28.787854 6.9146841"
   version="1.1"
   id="svg1"
   xml:space="preserve"
   xmlns="http://www.w3.org/2000/svg"
   xmlns:svg="http://www.w3.org/2000/svg"><defs
     id="defs1" /><g
     id="layer1"
     transform="translate(-232.29772,-44.079279)"><g
       id="g51"
       transform="translate(55.984815,-109.84315)"><path
         d="m 182.61509,156.30935 -0.20461,0.24483 -0.002,0.0416 c 0.0353,0.0413 0.0737,0.0801 0.11607,0.11571 0.0462,0.0381 0.0952,0.072 0.14464,0.10019 l 0.0441,-0.007 0.20426,-0.24412 -0.004,-0.0272 c -0.054,-0.0293 -0.10407,-0.0628 -0.1517,-0.10372 -0.0444,-0.0367 -0.0836,-0.079 -0.12206,-0.12065 z m 0.0871,0.81245 -0.008,0.0141 -0.10196,-0.0741 c -0.0459,-0.0384 -0.0864,-0.0818 -0.12453,-0.12489 l -0.0272,3.6e-4 -0.21167,0.25329 -0.003,0.0438 c 0.037,0.0423 0.0762,0.0832 0.121,0.11994 0.0466,0.0402 0.0974,0.0751 0.14993,0.10443 l 0.0462,-0.008 0.19967,-0.23813 0.078,0.073 c 0.048,0.0399 0.0981,0.0748 0.15029,0.10442 l 0.0462,-0.007 0.21096,-0.25364 -0.006,-0.0275 c -0.054,-0.0318 -0.10583,-0.0663 -0.15628,-0.1083 -0.0462,-0.0381 -0.0854,-0.0819 -0.12488,-0.12559 l -0.0261,3.5e-4 z m -5.10999,-0.82762 -0.025,-0.001 -0.22508,0.22578 -0.006,0.0416 c 0.031,0.0434 0.0663,0.0854 0.10548,0.12453 0.0427,0.0427 0.0882,0.0808 0.13582,0.11359 l 0.0441,-0.003 0.22507,-0.22472 -0.002,-0.0282 c -0.0511,-0.0339 -0.0988,-0.0723 -0.14217,-0.11641 -0.042,-0.0409 -0.0765,-0.0861 -0.11007,-0.13159 m 0.57715,-0.89112 c 0.061,-0.0328 0.0967,-0.0434 0.12594,-0.097 0.0279,-0.0536 0.0349,-0.0632 0.0508,-0.10089 0.0173,-0.0402 0.0363,-0.0854 -0.0751,-0.031 -0.073,0.0356 -1.29258,0.55809 -1.36878,0.5909 -0.0751,0.0332 -0.0988,0.048 -0.1143,0.10054 -0.0155,0.0522 -0.024,0.0808 -0.0279,0.0921 -0.0145,0.0349 -0.0325,0.0716 0.0794,0.0205 0.0332,-0.0159 1.27,-0.54292 1.32997,-0.57503 m 7.13634,3.77896 c -0.0713,0.0356 -1.04987,0.46073 -1.12677,0.49424 -0.0769,0.0332 -0.0998,0.048 -0.11607,0.10054 -0.0166,0.0526 -0.0247,0.0811 -0.0282,0.0917 -0.0141,0.0346 -0.0324,0.0702 0.079,0.0205 0.0353,-0.0152 1.03117,-0.4452 1.0922,-0.47766 0.0607,-0.0328 0.0967,-0.0437 0.12524,-0.0974 0.0282,-0.0536 0.0356,-0.0632 0.0512,-0.10089 0.0173,-0.0395 0.0367,-0.0864 -0.0765,-0.031 m 0.42227,-3.2766 c -0.009,-0.0896 -0.0226,-0.10478 0.0282,-0.15029 0.0504,-0.0455 0.16439,-0.13758 0.10407,-0.2226 -0.0614,-0.084 -0.16793,-0.2293 -0.19827,-0.31962 -0.0257,-0.0765 -0.0483,-0.1397 -0.0868,-0.0797 -0.0448,0.0681 -0.0635,0.10866 -0.12523,0.18874 -0.0321,0.042 -0.0642,0.0621 -0.0286,0.12594 0.049,0.0861 0.11289,0.23213 0.12206,0.33973 0.005,0.0565 0.0187,0.17921 0.0363,0.29492 0.0229,0.15169 0.29668,2.13819 0.26317,2.18017 -0.0328,0.042 -0.25083,0.22648 -0.62618,0.0173 l -0.0353,-0.0222 c 0.27235,-0.19438 0.24836,-0.38171 0.20461,-0.45121 -0.079,-0.12629 -0.79904,-0.52775 -1.20826,0.12136 -0.0448,0.066 -0.0787,0.22225 0.0166,0.1651 0.0811,-0.0487 0.29139,-0.0607 0.51505,0.0801 l 0.0526,0.0346 c -0.53234,0.34502 -1.00542,0.12241 -1.16029,0.0261 0.0131,-0.0607 0.0219,-0.11042 0.0233,-0.13653 0.005,-0.10548 -0.0617,-0.11571 -0.091,-0.01 -0.0289,0.10513 -0.0445,0.24166 -0.0963,0.34502 -0.0917,0.18345 -0.3556,0.0406 -0.46567,-0.009 0.0318,-0.0924 0.0579,-0.20073 0.0776,-0.32526 0.012,-0.0716 -0.0321,-0.13159 -0.0804,0.0187 -0.0473,0.14605 -0.21625,0.58067 -0.9652,0.32985 0.0102,-0.0875 0.0632,-0.28364 -0.10019,-0.19968 -0.1778,0.0917 -0.60819,0.25471 -0.85619,0.3168 -0.16263,0.0406 -0.18838,0.0656 -0.16333,0.13723 0.0247,0.0709 0.0677,0.26176 0.15416,0.23424 0.018,-0.006 0.0483,-0.0159 0.0854,-0.0282 -0.073,0.19368 -0.32985,0.79023 -0.79234,0.98037 -0.10865,0.042 -0.57855,0.17216 -1.07068,-0.0483 -0.0607,-0.019 -0.15028,0.0296 -0.0582,0.0924 0.0921,0.0628 1.06821,0.58914 1.65206,-0.0173 0.13441,-0.13617 0.32526,-0.57855 0.44979,-1.05198 v -0.0116 c 0.0991,-0.0317 0.18592,-0.06 0.18592,-0.06 0.054,-0.0187 0.2667,-0.10971 0.38523,-0.16122 0.36513,0.26988 0.71861,0.3623 0.95038,0.0751 0.28858,0.2667 0.49883,0.2092 0.58844,0.0723 0.0367,-0.0565 0.0783,-0.16404 0.1143,-0.27764 0.45896,0.45191 1.24707,0.0166 1.42487,-0.109 0.0607,0.0649 0.11782,0.13088 0.1337,0.16333 0.0296,0.0593 0.19685,0.22402 0.52211,0.16757 0.10971,-0.0187 0.38947,-0.14817 0.37218,-0.63958 -0.01,-0.66817 -0.22048,-1.93817 -0.22048,-1.93817 -0.0159,-0.10407 -0.0332,-0.23847 -0.0332,-0.23847 m -7.06155,1.633 c -0.0448,-0.20743 -0.27023,-0.59407 -0.27023,-0.59407 -0.0367,-0.0646 -0.0695,-0.10725 -0.0854,-0.0688 -0.0159,0.0374 -0.0695,0.33408 -0.0695,0.33408 0.0794,0.11536 0.38982,0.73801 0.3616,0.84702 -0.0289,0.10865 -0.28222,0.65581 -1.08126,0.61383 -0.0833,-0.004 -0.895,-0.12206 -0.49177,-1.07703 0.0145,-0.0335 -0.0215,-0.10266 -0.073,-0.024 -0.0674,0.10195 -0.46708,1.21955 0.37677,1.42699 0.14358,0.0349 0.78281,0.0963 1.24636,-0.45685 0.0554,-0.0663 0.2159,-0.39899 0.0864,-1.00118 m 1.276,0.34254 c -0.0649,-0.11994 -0.1584,-0.21237 -0.22049,-0.26599 -0.12065,-0.10266 -0.22754,0.0469 -0.24729,0.11077 -0.0677,0.20955 0.28927,0.17357 0.36653,0.16828 0.0328,-0.003 0.0667,-0.008 0.10125,-0.013 m -0.48048,1.44603 c -0.55598,0.23037 -1.26013,0.0801 -1.33209,0.0642 -0.14288,-0.0332 -0.0815,-0.12665 0.0395,-0.1083 1.27882,0.17039 1.77729,-0.7687 1.85349,-1.01071 l 0.0113,-0.0621 c -0.22684,0.0455 -0.45685,0.0483 -0.53975,0.0229 -0.32914,-0.10266 -0.2667,-0.59761 0.002,-0.92146 0.27376,-0.32843 0.53658,0.19791 0.57926,0.3048 0.28998,0.73378 -0.13229,1.24355 -0.1778,1.30564 -0.127,0.17145 -0.26105,0.33266 -0.43638,0.40498 m 7.11835,-2.47367 c 0.0381,0.27799 0.16968,1.10278 0.17815,1.69051 0.002,0.13829 0.0487,0.17251 0.0811,0.073 0.0557,-0.17039 0.0737,-0.64841 -0.0116,-1.3455 -0.0423,-0.35136 -0.20426,-1.43474 -0.22543,-1.71379 -0.01,-0.1524 -0.0303,-0.28328 -0.0822,-0.16298 -0.0554,0.12735 -0.0825,0.29104 -0.0571,0.51435 0.0377,0.38241 0.0787,0.66886 0.11713,0.94438 m -5.31813,-0.54328 c 0.01,-0.0353 0.03,-0.22577 -0.0603,-0.34078 -0.055,-0.0603 -0.11607,-0.0642 -0.20003,0.0656 -0.0257,0.0395 -0.0261,0.0801 0.03,0.11501 0.0564,0.0346 0.23036,0.16016 0.23036,0.16016 m -0.80751,0.91898 c -0.091,0.043 -0.16863,-0.008 0.0395,-0.15663 0.31962,-0.22754 0.56445,-0.38241 0.66605,-0.55668 0,0 -0.19438,-0.12559 -0.28293,-0.21414 -0.0885,-0.0892 0.024,-0.33514 0.11148,-0.43145 0.22366,-0.25188 0.3302,-0.0857 0.35701,-0.0406 0.10865,0.21026 0.043,0.47343 0.0116,0.54822 0,0 0.0868,0.0653 0.11183,0.0914 0.0346,0.0367 0.019,0.11148 -0.0265,0.24483 -0.0162,0.0469 -0.0674,-0.0804 -0.18732,-0.13688 -0.0942,0.19861 -0.19756,0.36618 -0.80081,0.65193 m 2.50931,-1.50071 c 0.0123,-0.004 0.0272,-0.002 0.0423,-0.0162 0.0494,-0.0462 0.0907,-0.16863 0.0956,-0.21026 -0.006,-0.0321 -0.12065,-0.0434 -0.15381,-0.0515 -0.1136,-0.0272 -0.2219,-0.0871 -0.34008,-0.0945 -0.18204,-0.012 -0.35137,0.0702 -0.44521,0.26211 -0.0106,0.025 -0.0254,0.0586 -0.0356,0.0836 -0.0113,0.042 0.0102,0.0702 0.0325,0.0377 0.025,-0.0377 0.0561,-0.0744 0.0956,-0.0984 0.0935,-0.0565 0.19262,-0.0783 0.29386,-0.0684 0.0917,0.009 0.26423,0.0734 0.26423,0.0822 -0.001,0.0201 -0.40146,0.21802 -0.4646,0.25753 -0.0268,0.0173 -0.0603,0.0483 -0.0543,0.0797 0.005,0.0243 0.0434,0.0293 0.0759,0.0176 0.15733,-0.0568 0.21343,-0.0529 0.34078,-0.10724 0.1718,-0.0737 0.2226,-0.16475 0.25294,-0.17392 m 5.75874,0.48965 c -0.0162,0.037 -0.0236,0.0466 -0.0529,0.0998 -0.0296,0.0526 -0.0649,0.0635 -0.127,0.0956 -0.0617,0.0307 -1.06257,0.4438 -1.09749,0.45897 -0.1136,0.0483 -0.0942,0.013 -0.0794,-0.0233 0.004,-0.0102 0.0123,-0.0381 0.0296,-0.09 0.0166,-0.0533 0.0402,-0.0674 0.11783,-0.0988 0.0769,-0.0325 1.06116,-0.44027 1.13489,-0.47413 0.11253,-0.0533 0.0924,-0.007 0.0744,0.0317 m -0.39722,1.94592 c -0.0762,0.006 -0.43321,0.0409 -0.36583,-0.16792 0.0194,-0.0642 0.12629,-0.21379 0.24624,-0.11113 0.0624,0.0547 0.15698,0.14676 0.22189,0.2667 z m -0.3429,-0.58138 c -0.27023,0.32314 -0.33303,0.81844 -0.004,0.9204 0.0825,0.0257 0.31291,0.0229 0.5401,-0.0226 l -0.0109,0.0621 c -0.0773,0.24236 -0.57538,1.18004 -1.8535,1.01141 -0.12135,-0.0194 -0.1838,0.0744 -0.0399,0.1076 0.0723,0.0162 0.7754,0.1658 1.33173,-0.0642 0.17498,-0.0716 0.3101,-0.23354 0.4371,-0.40499 0.0452,-0.0621 0.46707,-0.57221 0.17709,-1.30598 -0.0423,-0.10584 -0.3048,-0.63324 -0.5782,-0.30374 m 8.45784,0.27269 c 0.0769,0.45438 -0.0885,0.81245 -0.12382,0.86819 -0.19756,0.28328 -0.54469,0.0353 -0.61595,-0.008 -0.0706,-0.0448 -0.133,-0.013 -0.21943,0.0363 -0.66498,0.41028 -1.17933,0.34678 -1.2887,0.33302 -0.60078,-0.0684 -0.65052,-0.80151 -0.6738,-1.00683 -0.0257,-0.23071 -0.13229,-1.39241 -0.22754,-1.76177 -0.0317,-0.14534 0.0318,-0.3817 0.0455,-0.4505 0.0137,-0.0684 0.0455,-0.091 0.0727,0.0138 0.0275,0.10407 0.2734,1.95333 0.30056,2.14419 0.091,0.63323 0.46461,0.66922 0.59655,0.70132 0.58279,0.0684 1.16981,-0.26458 1.26577,-0.33196 0.0956,-0.0688 0.20038,-0.01 0.25012,0.0138 0.0504,0.0219 0.25047,0.10407 0.37359,0.12347 0.12312,0.0176 0.13229,-0.16475 0.11853,-0.27905 -0.0138,-0.11324 -0.26,-1.52576 -0.27234,-1.61184 -0.0265,-0.1778 -0.055,-0.30798 -0.0624,-0.34255 -0.024,-0.11571 -0.0229,-0.21061 -0.0314,-0.26705 -0.008,-0.0533 -0.0448,-0.10689 -0.0854,-0.18627 -0.0413,-0.079 -0.007,-0.1658 0.009,-0.19332 0.0173,-0.0265 0.0861,-0.0952 0.13617,-0.20355 0.0236,-0.0508 0.054,0.009 0.067,0.0635 0.012,0.0497 0.11289,0.21484 0.15628,0.27164 0.03,0.0385 0.0519,0.10583 0.0399,0.13335 -0.0236,0.054 -0.0956,0.15592 -0.11042,0.17533 -0.0116,0.0162 -0.0215,0.0452 -0.0152,0.10795 0,0 0.26282,1.46544 0.29457,1.65699 m -4.1148,0.95392 c -0.0653,-0.0138 -0.16686,-0.067 -0.24412,-0.11113 -0.36795,0.40111 -1.04775,0.47272 -1.13136,0.4886 0,0 -1.20861,0.20814 -1.50671,-0.50024 -0.13723,-0.36513 0.0938,-0.73096 0.13758,-0.78423 0.0434,-0.0522 0.0688,-0.0166 0.0293,0.0448 -0.15945,0.24201 -0.0233,0.93592 1.0153,0.93839 1.13312,0.004 1.53,-0.57044 1.58538,-0.67239 0.0557,-0.10337 0.10266,-0.0123 0.091,0.0399 -0.0155,0.0917 -0.0445,0.17321 -0.0822,0.24694 0.10372,0.006 0.32456,0.0176 0.39793,0.0219 0.0977,0.005 0.0833,-0.13652 0.0684,-0.22401 -0.0148,-0.0882 -0.30727,-1.77412 -0.33619,-1.91453 -0.0236,-0.11571 -0.0226,-0.21096 -0.0314,-0.2667 -0.008,-0.054 -0.0448,-0.10618 -0.0857,-0.18626 -0.0409,-0.079 -0.007,-0.16651 0.01,-0.19333 0.0176,-0.0265 0.0861,-0.096 0.13617,-0.20284 0.0233,-0.0515 0.054,0.009 0.067,0.0628 0.0116,0.0497 0.11289,0.21484 0.15663,0.27164 0.0296,0.0385 0.0522,0.10583 0.0399,0.1337 -0.0243,0.0529 -0.096,0.15557 -0.11078,0.17568 -0.0116,0.0159 -0.0215,0.0448 -0.0155,0.10725 0,0 0.29704,1.56915 0.32632,1.78823 0.0293,0.21907 -0.0977,0.58914 -0.15099,0.71085 -0.0536,0.12276 -0.24871,0.049 -0.36548,0.025 m -1.24142,-1.75437 c 0.0473,0.0413 0.0974,0.0748 0.15169,0.10407 l 0.004,0.0282 -0.20426,0.24342 -0.0441,0.006 c -0.0497,-0.0279 -0.0984,-0.0614 -0.14499,-0.10054 -0.0423,-0.0349 -0.0811,-0.0737 -0.11571,-0.11572 l 0.002,-0.042 0.20426,-0.24447 0.0247,3.5e-4 c 0.0381,0.042 0.0769,0.0829 0.12171,0.1203 m -0.0236,0.63041 0.21238,-0.25294 0.0265,7.1e-4 c 0.0395,0.042 0.0794,0.0861 0.12524,0.12453 0.0497,0.0413 0.10195,0.0776 0.15593,0.10724 l 0.006,0.0282 -0.21167,0.254 -0.0459,0.007 c -0.0519,-0.0293 -0.10231,-0.0642 -0.15028,-0.10442 l -0.0773,-0.0727 -0.20003,0.23813 -0.0466,0.007 c -0.0522,-0.0289 -0.10266,-0.0635 -0.14958,-0.10407 -0.0448,-0.037 -0.0843,-0.0769 -0.12136,-0.1196 l 0.004,-0.0437 0.21096,-0.25294 0.0272,-3.5e-4 c 0.0384,0.0427 0.079,0.0868 0.12488,0.12488 l 0.10195,0.0737 z m 4.01214,-0.87312 c 0.0476,0.0402 0.0977,0.0748 0.15205,0.10336 l 0.005,0.0275 -0.20426,0.24413 -0.0437,0.007 c -0.0501,-0.0282 -0.0995,-0.0624 -0.14569,-0.10055 -0.0423,-0.036 -0.0811,-0.0748 -0.11571,-0.11606 l 0.002,-0.0423 0.20425,-0.24412 0.0251,-7.1e-4 c 0.0377,0.0423 0.0765,0.0847 0.121,0.12136 m -0.0229,0.63076 0.21273,-0.25364 0.0261,-3.6e-4 c 0.0395,0.0434 0.0787,0.0871 0.12453,0.12524 0.0505,0.042 0.10231,0.0776 0.15629,0.1076 l 0.007,0.0282 -0.21132,0.254 -0.0459,0.007 c -0.0529,-0.0293 -0.1023,-0.0642 -0.15063,-0.10442 l -0.078,-0.073 -0.19967,0.23883 -0.0462,0.008 c -0.0522,-0.0296 -0.10266,-0.0639 -0.14993,-0.10443 -0.0448,-0.0378 -0.0843,-0.0776 -0.12101,-0.11959 l 0.003,-0.0444 0.21131,-0.25294 0.0275,-3.5e-4 c 0.0381,0.043 0.079,0.0864 0.12488,0.12453 l 0.1016,0.0741 z m -1.46367,1.81434 c -0.0141,0.0377 -0.0208,0.0476 -0.0469,0.10231 -0.0258,0.055 -0.0614,0.067 -0.121,0.10195 -0.0589,0.036 -1.0788,0.4579 -1.11302,0.47554 -0.10936,0.0564 -0.0924,0.0187 -0.0808,-0.0173 0.005,-0.0109 0.0113,-0.0399 0.025,-0.0931 0.0134,-0.0529 0.0356,-0.0688 0.11113,-0.10513 0.0744,-0.0367 1.07774,-0.45296 1.14864,-0.49212 0.10901,-0.0603 0.0921,-0.0127 0.0769,0.0279 m 0.33267,-3.93982 c 0.005,-0.0106 0.0131,-0.0381 0.031,-0.0914 0.0176,-0.0515 0.0406,-0.066 0.11818,-0.097 0.0776,-0.031 0.97543,-0.40429 1.04881,-0.43886 0.11324,-0.0526 0.0931,-0.006 0.0748,0.0332 -0.0166,0.037 -0.024,0.0459 -0.0536,0.0995 -0.03,0.0526 -0.0656,0.0624 -0.12771,0.0938 -0.0614,0.031 -0.97684,0.40887 -1.01212,0.42439 -0.11324,0.0476 -0.0938,0.0127 -0.0794,-0.0236 m 3.25261,2.19499 c 0.0935,0.59055 0.0815,0.99659 0.0275,1.143 -0.0318,0.0854 -0.0773,0.0568 -0.0815,-0.0607 -0.0162,-0.49954 -0.15698,-1.19839 -0.19826,-1.43334 -0.0423,-0.23318 -0.0857,-0.47695 -0.12911,-0.80116 -0.0282,-0.18909 -0.002,-0.32843 0.0515,-0.43885 0.0497,-0.10442 0.0702,0.008 0.0829,0.13723 0.0243,0.23777 0.20003,1.15499 0.24695,1.4538 m -2.12831,-1.72297 c 0.0201,0.0505 0.037,0.10936 0.0342,0.14252 -0.0794,0.0773 -0.16545,0.09 -0.22719,0.0384 -0.0399,-0.0328 -0.0554,-0.0945 -0.0515,-0.17568 0.003,-0.0582 0.01,-0.0801 -0.0413,-0.0392 -0.067,0.0547 -0.0487,0.0494 -0.0522,0.0797 -0.0236,0.19085 -0.10548,0.27622 -0.25259,0.28645 -0.0931,0.007 -0.16122,-0.0579 -0.0967,-0.24094 0.0138,-0.0395 -0.0138,-0.0811 -0.0543,0 -0.13864,0.27516 -0.0543,0.42897 0.0868,0.45014 0.115,0.0169 0.25153,-0.0487 0.32138,-0.22296 0.0536,0.0885 0.16157,0.1143 0.25929,0.0885 0.12523,-0.0325 0.15275,-0.0907 0.18768,-0.19155 0.0349,-0.0981 0.0363,-0.22719 -0.0109,-0.38277 -0.008,-0.0254 -0.0219,-0.0116 -0.0282,7.1e-4 l -0.0663,0.1277 c -0.008,0.0134 -0.0138,0.0229 -0.008,0.0388 m 6.6675,0.41346 c -0.0561,-0.0353 -0.0554,-0.0759 -0.03,-0.11501 0.084,-0.12982 0.145,-0.12629 0.20038,-0.066 0.09,0.11501 0.0699,0.30551 0.06,0.34079 0,0 -0.17391,-0.12524 -0.23036,-0.15981 m 0.22366,0.42721 c 0.1203,0.0561 0.1711,0.18345 0.18733,0.13688 0.0455,-0.13335 0.061,-0.20814 0.0261,-0.24518 -0.0247,-0.0261 -0.11148,-0.0914 -0.11148,-0.0914 0.0318,-0.0748 0.097,-0.33796 -0.0113,-0.54786 -0.0268,-0.0452 -0.13335,-0.21167 -0.35737,0.0402 -0.0875,0.0963 -0.20002,0.34254 -0.11148,0.4318 0.0885,0.0885 0.28293,0.21378 0.28293,0.21378 -0.1016,0.17427 -0.34643,0.32949 -0.66604,0.55668 -0.20779,0.14887 -0.13018,0.20003 -0.0395,0.15664 0.60289,-0.2854 0.70626,-0.45332 0.8008,-0.65158 m -11.13416,-0.98012 c -0.0529,-0.0332 -0.0522,-0.072 -0.0286,-0.10901 0.0801,-0.12277 0.13794,-0.11924 0.19015,-0.0621 0.085,0.10901 0.066,0.28893 0.0568,0.32244 0,0 -0.16439,-0.11889 -0.21837,-0.15134 m 0.21202,0.40428 c 0.1136,0.0529 0.16193,0.17392 0.17745,0.12947 0.043,-0.12594 0.0575,-0.19685 0.0247,-0.23177 -0.0236,-0.0247 -0.10584,-0.0864 -0.10584,-0.0864 0.03,-0.0706 0.0921,-0.31962 -0.0106,-0.51894 -0.025,-0.0427 -0.1263,-0.20003 -0.33831,0.0385 -0.0825,0.091 -0.18909,0.32385 -0.10549,0.40852 0.084,0.0836 0.26812,0.20249 0.26812,0.20249 -0.0967,0.1651 -0.32844,0.31186 -0.63042,0.5267 -0.1972,0.14111 -0.12347,0.18909 -0.0378,0.14852 0.57115,-0.27058 0.66887,-0.42933 0.75812,-0.61701 m 7.46302,0.14287 c -0.0561,-0.0349 -0.0554,-0.0759 -0.03,-0.115 0.084,-0.12982 0.14499,-0.12594 0.20038,-0.0656 0.09,0.115 0.0698,0.3055 0.06,0.34043 0,0 -0.17392,-0.12524 -0.23036,-0.15981 m 0.22366,0.42721 c 0.1203,0.0561 0.1711,0.1838 0.18732,0.13688 0.0455,-0.13335 0.061,-0.20814 0.0265,-0.24483 -0.025,-0.0265 -0.11183,-0.0914 -0.11183,-0.0914 0.0317,-0.0748 0.097,-0.33796 -0.0113,-0.54821 -0.0265,-0.0452 -0.13335,-0.21167 -0.35736,0.0402 -0.0875,0.0967 -0.19967,0.34254 -0.11113,0.4318 0.0885,0.0885 0.28258,0.21378 0.28258,0.21378 -0.1016,0.17463 -0.34643,0.32949 -0.66569,0.55704 -0.20814,0.14852 -0.13018,0.19967 -0.0399,0.15663 0.60325,-0.28575 0.70662,-0.45332 0.80081,-0.65193 m 1.61149,-0.46885 c 0.0123,-0.004 0.0272,-0.002 0.0423,-0.0162 0.0494,-0.0462 0.0907,-0.16862 0.0956,-0.21025 -0.006,-0.0321 -0.12065,-0.0437 -0.15381,-0.0515 -0.11359,-0.0272 -0.22189,-0.0871 -0.34008,-0.0949 -0.18203,-0.0116 -0.35136,0.0706 -0.4452,0.26247 -0.0106,0.025 -0.0258,0.0586 -0.0356,0.0836 -0.0113,0.042 0.0102,0.0702 0.0324,0.0378 0.0251,-0.0378 0.0561,-0.0748 0.0956,-0.0984 0.0935,-0.0565 0.19261,-0.0783 0.29386,-0.0684 0.0917,0.009 0.26423,0.0734 0.26388,0.0822 -0.001,0.0201 -0.40111,0.21801 -0.4639,0.25752 -0.0272,0.0169 -0.0607,0.0483 -0.0547,0.0797 0.005,0.0243 0.0434,0.0293 0.0758,0.0176 0.15734,-0.0568 0.21379,-0.0529 0.34079,-0.10724 0.1718,-0.0737 0.2226,-0.1651 0.25294,-0.17392 m -2.08421,2.40242 c -0.024,0.0511 -0.0554,0.13899 -0.0741,0.1905 -0.006,0.018 0.008,0.0402 0.0303,0.0272 0.127,-0.078 0.31715,-0.17392 0.51894,-0.24518 0.18309,-0.0649 0.32702,-0.1069 0.46002,-0.11466 0.0205,-0.003 0.12947,-0.19402 0.1457,-0.22189 0.0229,-0.0356 0.006,-0.0473 -0.0222,-0.042 -0.15416,0.0296 -0.27411,0.0572 -0.46108,0.0402 -0.23071,-0.0205 -0.41098,-0.19685 -0.40463,-0.266 0.005,-0.0529 0.16862,-0.15769 0.22965,-0.14817 0.17675,0.0279 0.17357,0.1831 0.2212,0.18486 0.0568,0.002 0.1725,-0.20179 0.17956,-0.25718 0.007,-0.0607 -0.11324,-0.20496 -0.2286,-0.21201 -0.19015,-0.0113 -0.51188,0.31044 -0.63818,0.50835 -0.0462,0.073 -0.0413,0.1845 0.0243,0.2413 0.0586,0.0501 0.15522,0.10266 0.26423,0.16898 -0.0533,0.0187 -0.19333,0.10054 -0.24518,0.1457 m 6.51298,-0.98531 c -0.0321,-0.29986 -0.1584,-1.2252 -0.17039,-1.46297 -0.005,-0.13018 -0.0215,-0.24236 -0.0773,-0.14182 -0.0593,0.1076 -0.0924,0.24589 -0.0734,0.43533 0.0258,0.32667 0.0565,0.57185 0.0861,0.8061 0.0293,0.23706 0.13476,0.94332 0.12382,1.44356 -0.002,0.11713 0.0427,0.14746 0.0783,0.0635 0.0621,-0.14181 0.0953,-0.54786 0.0328,-1.1437 m -1.51836,1.54975 c -0.0413,-0.0406 -0.0769,-0.0861 -0.11077,-0.13088 l -0.0247,-0.002 -0.22437,0.22613 -0.007,0.0413 c 0.0314,0.0441 0.0667,0.0854 0.10548,0.12488 0.0427,0.0434 0.0886,0.0804 0.13617,0.1136 l 0.0441,-0.004 0.22472,-0.22543 -0.002,-0.0275 c -0.0515,-0.0335 -0.0988,-0.0716 -0.14217,-0.11641 m 1.04705,-1.09326 c -0.15346,-0.01 -0.86254,-0.0229 -1.27847,-0.25224 0.0413,-0.0353 0.13124,-0.15099 0.0988,-0.44168 -0.0314,-0.29068 -0.14781,-1.12183 -0.14781,-1.12183 -0.009,-0.0868 -0.0448,-0.17004 0.005,-0.21413 0.0497,-0.0448 0.15382,-0.12065 0.0938,-0.2025 -0.06,-0.0822 -0.16298,-0.23777 -0.19297,-0.32597 -0.0254,-0.0744 -0.0473,-0.13652 -0.085,-0.078 -0.0441,0.0674 -0.0593,0.15382 -0.11888,0.23143 -0.031,0.0413 -0.0635,0.0614 -0.0279,0.12347 0.0476,0.084 0.0956,0.23777 0.10477,0.34325 0.004,0.055 0.0201,0.17427 0.036,0.28787 0,0 0.2032,1.04986 0.18697,1.22026 0,0 -0.84067,0.0296 -0.94968,0.13582 l -0.16863,0.26176 c -0.0141,0.0289 -0.0131,0.0607 0.0272,0.0543 0.0402,-0.007 0.55703,-0.17216 1.28235,0.11853 -0.0857,0.0296 -1.04387,0.43956 -1.85315,0.34784 -0.121,-0.003 -0.9719,-0.11501 -1.0421,-0.5461 -0.01,-0.0547 -0.0236,-0.0744 -0.0526,-0.0194 -0.0261,0.049 -0.26176,0.40111 0.10866,0.6537 -0.11748,0.24835 -0.32667,0.58455 -0.64664,0.71614 -0.10478,0.0392 -0.57185,0.1591 -1.04352,-0.0526 -0.0582,-0.0183 -0.14358,0.0282 -0.0561,0.0882 0.0889,0.0607 0.95109,0.61207 1.51095,0.0318 0.0991,-0.10125 0.2674,-0.37289 0.39511,-0.6978 0.57361,0.31186 1.52788,0.14041 1.52788,0.14041 0.20708,-0.0441 0.42474,-0.10548 0.64946,-0.19227 0.11818,-0.0483 0.92992,-0.41557 1.47991,-0.28716 0.115,0.0282 0.14111,0.0282 0.14111,0.0282 0,0 0.0988,-0.21096 0.12135,-0.26176 0.0219,-0.0512 0.048,-0.0801 -0.10583,-0.0896 m -4.07388,-1.022 c 0.0441,0.0441 0.091,0.0829 0.14217,0.11713 l 0.002,0.0275 -0.22437,0.22472 -0.0445,0.004 c -0.0476,-0.0324 -0.0931,-0.0709 -0.13617,-0.11325 -0.0388,-0.0399 -0.0741,-0.0811 -0.10513,-0.12523 l 0.006,-0.0413 0.22472,-0.22613 0.025,0.002 c 0.0335,0.0448 0.0692,0.0903 0.11007,0.13088"
         style="fill:#231f20;fill-opacity:1;fill-rule:nonzero;stroke:none;stroke-width:0.352778"
         clip-path="url(#clipPath1)"
         id="path41" /></g></g></svg>
