<?xml version="1.0" encoding="UTF-8" standalone="no"?>
<!-- Created with Inkscape (http://www.inkscape.org/) -->

<svg
   version="1.1"
   id="svg1"
   width="103.04401"
   height="19.646664"
   viewBox="0 0 103.04401 19.646664"
   xmlns="http://www.w3.org/2000/svg"
   xmlns:svg="http://www.w3.org/2000/svg">
  <defs
     id="defs1">
    <clipPath
       clipPathUnits="userSpaceOnUse"
       id="clipPath32">
      <path
         d="m 278.465,516.779 h 77.283 v -14.735 h -77.283 z"
         transform="translate(-295.0918,-513.25681)"
         id="path32" />
    </clipPath>
    <clipPath
       clipPathUnits="userSpaceOnUse"
       id="clipPath34">
      <path
         d="M 0,547.086 H 382.677 V 0 H 0 Z"
         transform="matrix(1.3333333,0,0,-1.3333333,0,729.448)"
         id="path34" />
    </clipPath>
  </defs>
  <g
     id="layer-MC1"
     transform="translate(-371.28665,-40.409347)">
    <g
       id="g33"
       clip-path="url(#clipPath34)">
      <path
         d="m 0,0 -0.58,-0.694 -0.007,-0.118 c 0.1,-0.117 0.209,-0.227 0.329,-0.328 0.131,-0.108 0.27,-0.204 0.41,-0.284 l 0.125,0.019 0.579,0.692 -0.012,0.077 C 0.691,-0.553 0.549,-0.458 0.414,-0.342 0.288,-0.237 0.177,-0.118 0.068,0 Z m 0.247,-2.303 -0.023,-0.04 -0.289,0.21 c -0.13,0.109 -0.245,0.232 -0.353,0.354 l -0.077,-0.001 -0.6,-0.718 -0.008,-0.124 c 0.105,-0.12 0.216,-0.236 0.343,-0.34 0.132,-0.114 0.276,-0.213 0.425,-0.296 l 0.131,0.023 0.566,0.675 0.221,-0.207 C 0.719,-2.88 0.861,-2.979 1.009,-3.063 l 0.131,0.02 0.598,0.719 -0.018,0.078 c -0.153,0.09 -0.3,0.188 -0.443,0.307 -0.131,0.108 -0.242,0.232 -0.353,0.356 L 0.849,-1.584 Z m -14.485,2.346 -0.071,0.004 -0.638,-0.64 -0.018,-0.118 c 0.088,-0.123 0.188,-0.242 0.299,-0.353 0.121,-0.121 0.25,-0.229 0.385,-0.322 l 0.125,0.009 0.638,0.637 -0.005,0.08 c -0.145,0.096 -0.28,0.205 -0.403,0.33 -0.119,0.116 -0.217,0.244 -0.312,0.373 m 1.636,2.526 c 0.173,0.093 0.274,0.123 0.357,0.275 0.079,0.152 0.099,0.179 0.144,0.286 0.049,0.114 0.103,0.242 -0.213,0.088 -0.207,-0.101 -3.664,-1.582 -3.88,-1.675 -0.213,-0.094 -0.28,-0.136 -0.324,-0.285 -0.044,-0.148 -0.068,-0.229 -0.079,-0.261 -0.041,-0.099 -0.092,-0.203 0.225,-0.058 0.094,0.045 3.6,1.539 3.77,1.63 M 7.627,-8.143 C 7.425,-8.244 4.651,-9.449 4.433,-9.544 4.215,-9.638 4.15,-9.68 4.104,-9.829 c -0.047,-0.149 -0.07,-0.23 -0.08,-0.26 -0.04,-0.098 -0.092,-0.199 0.224,-0.058 0.1,0.043 2.923,1.262 3.096,1.354 0.172,0.093 0.274,0.124 0.355,0.276 0.08,0.152 0.101,0.179 0.145,0.286 0.049,0.112 0.104,0.245 -0.217,0.088 M 8.824,1.145 C 8.799,1.399 8.76,1.442 8.904,1.571 9.047,1.7 9.371,1.961 9.199,2.202 9.025,2.44 8.723,2.852 8.637,3.108 8.564,3.325 8.5,3.504 8.391,3.334 8.264,3.141 8.211,3.026 8.037,2.799 7.945,2.68 7.854,2.623 7.955,2.442 8.094,2.198 8.275,1.784 8.301,1.479 8.314,1.319 8.354,0.971 8.404,0.643 8.469,0.213 9.246,-5.418 9.15,-5.537 9.057,-5.656 8.439,-6.179 7.375,-5.586 l -0.1,0.063 c 0.772,0.551 0.704,1.082 0.58,1.279 -0.224,0.358 -2.265,1.496 -3.425,-0.344 -0.127,-0.187 -0.223,-0.63 0.047,-0.468 0.23,0.138 0.826,0.172 1.46,-0.227 l 0.149,-0.098 c -1.509,-0.978 -2.85,-0.347 -3.289,-0.074 0.037,0.172 0.062,0.313 0.066,0.387 0.014,0.299 -0.175,0.328 -0.258,0.027 -0.082,-0.298 -0.126,-0.685 -0.273,-0.978 -0.26,-0.52 -1.008,-0.115 -1.32,0.025 0.09,0.262 0.164,0.569 0.22,0.922 0.034,0.203 -0.091,0.373 -0.228,-0.053 -0.133,-0.414 -0.613,-1.646 -2.736,-0.935 0.029,0.248 0.179,0.804 -0.284,0.566 -0.504,-0.26 -1.724,-0.722 -2.427,-0.898 -0.461,-0.115 -0.534,-0.186 -0.463,-0.389 0.07,-0.201 0.193,-0.742 0.437,-0.664 0.051,0.018 0.137,0.045 0.242,0.08 -0.207,-0.549 -0.935,-2.24 -2.246,-2.779 -0.308,-0.119 -1.64,-0.488 -3.035,0.137 -0.172,0.054 -0.426,-0.084 -0.165,-0.262 0.261,-0.178 3.028,-1.67 4.683,0.049 0.381,0.386 0.922,1.64 1.275,2.982 v 0.033 c 0.281,0.09 0.527,0.17 0.527,0.17 0.153,0.053 0.756,0.311 1.092,0.457 1.035,-0.765 2.037,-1.027 2.694,-0.213 0.818,-0.756 1.414,-0.593 1.668,-0.205 0.105,0.16 0.222,0.465 0.324,0.787 1.301,-1.281 3.535,-0.047 4.039,0.309 0.172,-0.184 0.334,-0.371 0.379,-0.463 0.084,-0.168 0.558,-0.635 1.48,-0.475 0.311,0.053 1.104,0.42 1.055,1.813 C 9.516,-3.131 8.918,0.469 8.918,0.469 8.873,0.764 8.824,1.145 8.824,1.145 m -20.017,-4.629 c -0.127,0.588 -0.766,1.684 -0.766,1.684 -0.104,0.183 -0.197,0.304 -0.242,0.195 -0.045,-0.106 -0.197,-0.947 -0.197,-0.947 0.225,-0.327 1.105,-2.092 1.025,-2.401 -0.082,-0.308 -0.8,-1.859 -3.065,-1.74 -0.236,0.012 -2.537,0.346 -1.394,3.053 0.041,0.095 -0.061,0.291 -0.207,0.068 -0.191,-0.289 -1.324,-3.457 1.068,-4.045 0.407,-0.099 2.219,-0.273 3.533,1.295 0.157,0.188 0.612,1.131 0.245,2.838 m 3.617,-0.971 c -0.184,0.34 -0.449,0.602 -0.625,0.754 -0.342,0.291 -0.645,-0.133 -0.701,-0.314 -0.192,-0.594 0.82,-0.492 1.039,-0.477 0.093,0.008 0.189,0.022 0.287,0.037 m -1.362,-4.099 c -1.576,-0.653 -3.572,-0.227 -3.776,-0.182 -0.405,0.094 -0.231,0.359 0.112,0.307 3.625,-0.483 5.038,2.179 5.254,2.865 l 0.032,0.176 c -0.643,-0.129 -1.295,-0.137 -1.53,-0.065 -0.933,0.291 -0.756,1.694 0.008,2.612 0.775,0.931 1.52,-0.561 1.641,-0.864 0.822,-2.08 -0.375,-3.525 -0.504,-3.701 -0.36,-0.486 -0.74,-0.943 -1.237,-1.148 m 20.178,7.012 c 0.108,-0.788 0.481,-3.126 0.506,-4.792 0.006,-0.392 0.137,-0.489 0.229,-0.207 0.158,0.483 0.209,1.838 -0.033,3.814 -0.12,0.996 -0.579,4.067 -0.639,4.858 C 11.275,2.563 11.217,2.934 11.07,2.593 10.912,2.232 10.836,1.768 10.908,1.135 11.015,0.051 11.131,-0.761 11.24,-1.542 m -15.075,1.54 c 0.027,0.1 0.085,0.64 -0.171,0.966 -0.156,0.171 -0.329,0.182 -0.567,-0.186 -0.073,-0.112 -0.074,-0.227 0.085,-0.326 0.16,-0.098 0.653,-0.454 0.653,-0.454 m -2.289,-2.605 c -0.258,-0.122 -0.478,0.022 0.112,0.444 0.906,0.645 1.6,1.084 1.888,1.578 0,0 -0.551,0.356 -0.802,0.607 -0.251,0.253 0.068,0.95 0.316,1.223 0.634,0.714 0.936,0.243 1.012,0.115 0.308,-0.596 0.122,-1.342 0.033,-1.554 0,0 0.246,-0.185 0.317,-0.259 0.098,-0.104 0.054,-0.316 -0.075,-0.694 -0.046,-0.133 -0.191,0.228 -0.531,0.388 -0.267,-0.563 -0.56,-1.038 -2.27,-1.848 M 0.989,1.647 C 1.024,1.657 1.066,1.653 1.109,1.693 1.249,1.824 1.366,2.171 1.38,2.289 1.364,2.38 1.037,2.412 0.944,2.435 0.621,2.512 0.315,2.682 -0.02,2.703 -0.536,2.737 -1.016,2.504 -1.282,1.96 -1.312,1.889 -1.354,1.794 -1.383,1.723 -1.415,1.604 -1.354,1.524 -1.291,1.616 c 0.071,0.107 0.159,0.211 0.271,0.279 0.264,0.16 0.546,0.222 0.833,0.194 C 0.073,2.064 0.562,1.881 0.562,1.856 0.558,1.799 -0.576,1.238 -0.754,1.126 -0.831,1.077 -0.926,0.989 -0.909,0.9 -0.896,0.831 -0.786,0.817 -0.694,0.85 -0.248,1.011 -0.089,1 0.272,1.154 0.759,1.363 0.903,1.621 0.989,1.647 M 17.313,0.259 c -0.046,-0.105 -0.067,-0.132 -0.151,-0.283 -0.084,-0.149 -0.183,-0.18 -0.359,-0.271 -0.175,-0.087 -3.012,-1.258 -3.111,-1.301 -0.321,-0.137 -0.267,-0.037 -0.225,0.066 0.011,0.029 0.035,0.108 0.084,0.255 0.047,0.151 0.114,0.191 0.334,0.28 0.218,0.092 3.008,1.248 3.217,1.344 0.319,0.151 0.262,0.021 0.211,-0.09 m -1.126,-5.516 c -0.216,-0.016 -1.228,-0.116 -1.037,0.476 0.055,0.182 0.358,0.606 0.698,0.315 0.177,-0.155 0.445,-0.416 0.629,-0.756 z m -0.972,1.648 c -0.766,-0.916 -0.944,-2.32 -0.01,-2.609 0.234,-0.073 0.887,-0.065 1.531,0.064 L 16.705,-6.33 c -0.219,-0.687 -1.631,-3.345 -5.254,-2.867 -0.344,0.055 -0.521,-0.211 -0.113,-0.305 0.205,-0.046 2.199,-0.47 3.775,0.182 0.496,0.203 0.879,0.662 1.239,1.148 0.128,0.176 1.324,1.622 0.502,3.702 -0.12,0.3 -0.864,1.795 -1.639,0.861 m 20.57,3.77 C 35.765,0.407 35.728,0.452 35.869,0.575 36.015,0.698 36.364,0.944 36.2,1.18 36.034,1.416 35.749,1.825 35.669,2.078 35.603,2.289 35.544,2.465 35.433,2.303 35.304,2.116 35.251,2.004 35.077,1.786 34.985,1.674 34.894,1.618 34.989,1.44 c 0.13,-0.242 0.342,-0.649 0.321,-0.947 -0.034,-0.436 0.97,-5.663 0.888,-5.895 -0.08,-0.23 -1.685,-0.584 -2.381,-0.025 -0.134,0.082 -0.189,0.109 -0.216,-0.137 -0.02,-0.186 -0.125,-0.889 0.591,-1.127 -0.23,-0.543 -0.976,-1.975 -2.255,-2.502 -0.311,-0.117 -1.739,-0.574 -3.131,0.051 -0.172,0.054 -0.426,-0.082 -0.164,-0.262 0.259,-0.178 3.087,-1.553 4.742,0.164 0.226,0.227 0.926,1.318 1.26,2.473 0.15,-0.006 0.314,-0.002 0.507,0.021 0.532,0.026 1.272,0.182 1.34,0.809 0.069,0.625 0.104,1.732 -0.306,3.951 -0.135,0.762 -0.4,2.147 -0.4,2.147 m -6.929,-7.377 c 0.081,0.152 0.1,0.179 0.143,0.285 0.049,0.115 0.102,0.246 -0.215,0.086 -0.203,-0.104 -2.713,-1.25 -2.93,-1.344 -0.214,-0.098 -0.281,-0.139 -0.324,-0.289 -0.045,-0.151 -0.066,-0.229 -0.079,-0.26 -0.036,-0.101 -0.089,-0.205 0.228,-0.057 0.099,0.045 2.656,1.206 2.826,1.299 0.172,0.096 0.273,0.127 0.351,0.28 m -1.324,-2.549 c -0.597,-0.055 -4.213,-0.612 -5.816,-0.135 -1.604,0.475 -2.215,1.766 -1.834,3.807 0.367,1.627 1.23,2.441 1.996,2.935 0.432,-0.494 1.225,-1.088 2.791,-1.035 0.314,0 1.859,0.082 3.293,0.795 0.176,0.096 0.353,0.307 0.447,1.055 0.029,0.324 0.123,1.398 -0.806,2.316 -0.11,0.121 -0.165,0.129 -0.206,-0.041 -0.041,-0.17 -0.175,-0.965 -0.175,-0.965 0.299,-0.394 0.902,-1.244 0.759,-1.332 -0.142,-0.088 -2.65,-1.244 -4.763,-0.543 -0.047,0.018 -0.229,0.115 -0.465,0.248 0.243,0.131 0.422,0.242 0.486,0.371 0.186,0.358 0.436,0.885 0.046,1.166 -0.116,0.094 -0.755,0.487 -1.593,0.358 -0.838,-0.129 -1.3,-0.44 -1.586,-1.485 -0.046,-0.209 0.036,-0.287 0.153,-0.16 0.109,0.117 0.586,0.467 1.099,-0.066 -0.14,-0.127 -0.287,-0.285 -0.443,-0.494 -0.477,-0.639 -1.755,-2.323 -1.59,-4.784 0.176,-2.677 2.133,-3.9 5.041,-3.316 0.694,0.137 2.962,0.789 3.262,0.924 0.301,0.137 0.504,0.435 -0.096,0.381 m -0.826,4.67 -0.07,0.006 -0.635,-0.641 -0.02,-0.117 c 0.09,-0.125 0.188,-0.242 0.299,-0.354 0.123,-0.121 0.252,-0.228 0.385,-0.32 l 0.127,0.008 0.637,0.638 -0.006,0.078 c -0.145,0.096 -0.279,0.206 -0.402,0.331 -0.118,0.115 -0.217,0.244 -0.315,0.371 m 11.619,5.92 C 38.31,1.221 38.261,1.567 38.091,1.256 37.907,0.93 37.808,0.506 37.864,-0.076 c 0.078,-0.998 0.174,-1.748 0.264,-2.467 0.092,-0.724 0.412,-2.886 0.379,-4.418 -0.006,-0.357 0.131,-0.451 0.24,-0.195 0.19,0.438 0.29,1.678 0.1,3.502 -0.096,0.918 -0.485,3.752 -0.522,4.479 M 31.66,1.496 c 0.099,0.047 2.655,1.207 2.827,1.301 0.172,0.094 0.274,0.127 0.352,0.28 0.08,0.152 0.099,0.179 0.144,0.287 0.045,0.113 0.098,0.244 -0.216,0.084 C 34.563,3.344 32.054,2.198 31.837,2.102 31.621,2.006 31.556,1.963 31.513,1.815 31.468,1.664 31.444,1.584 31.435,1.555 31.397,1.453 31.345,1.35 31.66,1.496 m -1.024,-7.798 c -0.008,-0.36 0.129,-0.454 0.238,-0.198 0.189,0.438 0.291,1.678 0.1,3.5 -0.096,0.92 -0.485,3.752 -0.523,4.481 -0.014,0.398 -0.065,0.742 -0.233,0.433 -0.183,-0.33 -0.285,-0.752 -0.227,-1.334 0.08,-1 0.174,-1.748 0.264,-2.466 0.09,-0.725 0.412,-2.887 0.381,-4.416 m 3.425,5.473 c 0.055,-0.135 0.099,-0.295 0.093,-0.385 -0.216,-0.209 -0.448,-0.244 -0.616,-0.104 -0.107,0.089 -0.148,0.256 -0.138,0.476 0.007,0.157 0.027,0.216 -0.113,0.105 -0.181,-0.147 -0.131,-0.134 -0.141,-0.216 -0.064,-0.516 -0.286,-0.748 -0.684,-0.775 -0.252,-0.018 -0.437,0.156 -0.261,0.652 0.037,0.108 -0.037,0.22 -0.147,0 -0.375,-0.745 -0.148,-1.161 0.235,-1.219 0.312,-0.045 0.681,0.132 0.87,0.604 0.145,-0.239 0.438,-0.309 0.701,-0.239 0.339,0.088 0.414,0.245 0.508,0.518 0.096,0.266 0.1,0.615 -0.029,1.035 -0.021,0.07 -0.059,0.033 -0.076,-0.001 l -0.18,-0.345 c -0.022,-0.036 -0.037,-0.063 -0.022,-0.106 m 17.918,1.131 c -0.159,0.1 -0.157,0.215 -0.084,0.326 0.238,0.368 0.411,0.358 0.568,0.187 0.255,-0.326 0.197,-0.866 0.17,-0.966 0,0 -0.493,0.355 -0.654,0.453 m 0.634,-1.211 c 0.34,-0.159 0.486,-0.52 0.532,-0.388 0.128,0.378 0.172,0.59 0.075,0.695 -0.072,0.074 -0.318,0.259 -0.318,0.259 0.09,0.212 0.276,0.958 -0.033,1.553 -0.074,0.128 -0.377,0.6 -1.012,-0.114 -0.248,-0.273 -0.566,-0.971 -0.315,-1.224 0.251,-0.251 0.802,-0.606 0.802,-0.606 -0.288,-0.494 -0.983,-0.934 -1.888,-1.578 -0.59,-0.422 -0.369,-0.567 -0.112,-0.444 1.71,0.809 2.003,1.285 2.269,1.847 M 20.835,2.313 c -0.148,0.091 -0.147,0.198 -0.08,0.301 0.222,0.339 0.381,0.33 0.527,0.172 0.236,-0.302 0.182,-0.802 0.156,-0.892 0,0 -0.456,0.328 -0.603,0.419 m 0.586,-1.12 C 21.736,1.045 21.869,0.71 21.91,0.834 22.031,1.184 22.071,1.379 21.98,1.477 21.915,1.545 21.688,1.714 21.688,1.714 21.771,1.91 21.943,2.6 21.657,3.152 21.59,3.27 21.309,3.706 20.723,3.045 20.492,2.793 20.198,2.148 20.429,1.913 20.662,1.683 21.172,1.354 21.172,1.354 20.906,0.896 20.264,0.491 19.426,-0.105 c -0.545,-0.39 -0.34,-0.525 -0.104,-0.411 1.582,0.748 1.853,1.189 2.099,1.709 M 42.806,0.318 c -0.16,0.099 -0.158,0.215 -0.085,0.326 0.238,0.368 0.411,0.357 0.568,0.186 0.255,-0.326 0.197,-0.866 0.17,-0.965 0,0 -0.493,0.355 -0.653,0.453 m 0.633,-1.211 c 0.341,-0.159 0.486,-0.521 0.532,-0.388 0.129,0.378 0.173,0.59 0.075,0.694 -0.071,0.075 -0.317,0.259 -0.317,0.259 0.089,0.212 0.275,0.958 -0.033,1.554 -0.075,0.128 -0.378,0.6 -1.012,-0.114 -0.248,-0.274 -0.567,-0.971 -0.316,-1.224 0.25,-0.251 0.802,-0.606 0.802,-0.606 -0.288,-0.495 -0.982,-0.934 -1.888,-1.579 -0.59,-0.421 -0.37,-0.566 -0.112,-0.444 1.71,0.81 2.003,1.285 2.269,1.848 m 4.569,1.329 c 0.035,0.01 0.077,0.006 0.12,0.046 0.14,0.131 0.257,0.478 0.27,0.596 -0.015,0.091 -0.341,0.124 -0.435,0.146 -0.322,0.077 -0.629,0.247 -0.964,0.269 -0.517,0.033 -0.996,-0.2 -1.263,-0.744 -0.029,-0.071 -0.072,-0.166 -0.1,-0.237 -0.032,-0.119 0.029,-0.199 0.092,-0.107 0.071,0.107 0.16,0.212 0.271,0.279 0.265,0.16 0.546,0.222 0.833,0.194 0.26,-0.025 0.749,-0.208 0.748,-0.233 -0.004,-0.057 -1.138,-0.618 -1.315,-0.73 -0.077,-0.048 -0.172,-0.137 -0.156,-0.226 0.014,-0.069 0.123,-0.083 0.215,-0.05 0.447,0.161 0.607,0.15 0.967,0.304 0.486,0.209 0.631,0.468 0.717,0.493 M 42.1,-6.374 c -0.069,-0.145 -0.158,-0.394 -0.21,-0.54 -0.018,-0.051 0.022,-0.114 0.086,-0.077 0.36,0.221 0.899,0.493 1.47,0.695 0.52,0.184 0.928,0.303 1.305,0.325 0.058,0.008 0.366,0.55 0.413,0.629 0.065,0.101 0.018,0.134 -0.063,0.119 -0.439,-0.084 -0.778,-0.162 -1.307,-0.114 -0.654,0.058 -1.165,0.558 -1.148,0.754 0.014,0.15 0.479,0.447 0.652,0.42 0.501,-0.079 0.492,-0.519 0.627,-0.524 0.161,-0.006 0.489,0.572 0.509,0.729 0.021,0.172 -0.322,0.581 -0.649,0.601 -0.538,0.032 -1.45,-0.88 -1.808,-1.441 -0.13,-0.207 -0.118,-0.523 0.069,-0.684 0.166,-0.142 0.439,-0.291 0.749,-0.479 -0.151,-0.053 -0.548,-0.285 -0.695,-0.413 m 18.462,2.793 c -0.09,0.85 -0.45,3.473 -0.485,4.147 -0.013,0.369 -0.059,0.687 -0.218,0.402 -0.168,-0.305 -0.261,-0.697 -0.208,-1.234 0.074,-0.926 0.161,-1.621 0.245,-2.285 0.083,-0.672 0.381,-2.674 0.351,-4.092 -0.006,-0.332 0.12,-0.418 0.223,-0.18 0.175,0.402 0.268,1.553 0.092,3.242 m -4.304,-4.393 c -0.117,0.115 -0.218,0.244 -0.315,0.371 l -0.069,0.006 -0.637,-0.641 -0.017,-0.117 c 0.088,-0.125 0.187,-0.242 0.298,-0.354 0.121,-0.123 0.251,-0.228 0.385,-0.322 l 0.125,0.01 0.638,0.639 -0.006,0.078 c -0.145,0.095 -0.279,0.203 -0.402,0.33 m 2.968,3.099 c -0.435,0.028 -2.446,0.065 -3.624,0.715 0.117,0.1 0.372,0.428 0.28,1.252 -0.089,0.824 -0.419,3.18 -0.419,3.18 -0.026,0.246 -0.127,0.482 0.014,0.607 0.14,0.127 0.435,0.342 0.265,0.574 -0.17,0.233 -0.462,0.674 -0.547,0.924 -0.071,0.211 -0.133,0.387 -0.24,0.221 C 54.83,2.407 54.785,2.162 54.617,1.942 54.529,1.825 54.438,1.768 54.537,1.592 54.674,1.354 54.81,0.918 54.836,0.619 c 0.012,-0.156 0.057,-0.494 0.102,-0.816 0,0 0.576,-2.976 0.53,-3.459 0,0 -2.383,-0.084 -2.693,-0.385 l -0.477,-0.742 c -0.04,-0.082 -0.036,-0.172 0.077,-0.154 0.113,0.019 1.577,0.488 3.635,-0.336 -0.243,-0.084 -2.959,-1.246 -5.253,-0.986 -0.344,0.009 -2.755,0.326 -2.954,1.548 -0.028,0.155 -0.068,0.211 -0.15,0.055 -0.073,-0.139 -0.743,-1.137 0.309,-1.853 -0.333,-0.704 -0.927,-1.657 -1.833,-2.03 -0.297,-0.111 -1.621,-0.451 -2.958,0.149 -0.165,0.052 -0.407,-0.08 -0.158,-0.25 0.251,-0.172 2.695,-1.735 4.282,-0.09 0.28,0.287 0.758,1.057 1.12,1.978 1.626,-0.884 4.329,-0.398 4.329,-0.398 0.589,0.125 1.205,0.299 1.843,0.545 0.335,0.137 2.636,1.178 4.194,0.814 0.326,-0.08 0.401,-0.08 0.401,-0.08 0,0 0.28,0.598 0.343,0.742 0.063,0.145 0.135,0.227 -0.299,0.254 m -11.548,2.897 c 0.125,-0.125 0.258,-0.235 0.403,-0.332 l 0.006,-0.078 -0.637,-0.637 -0.126,-0.01 c -0.135,0.092 -0.263,0.201 -0.386,0.321 -0.111,0.113 -0.209,0.23 -0.297,0.355 l 0.016,0.117 0.638,0.641 0.07,-0.006 c 0.096,-0.127 0.197,-0.256 0.313,-0.371"
         style="fill:#231f20;fill-opacity:1;fill-rule:nonzero;stroke:none"
         transform="matrix(1.3333333,0,0,-1.3333333,393.45573,45.1056)"
         clip-path="url(#clipPath32)"
         id="path33" />
    </g>
  </g>
</svg>
