<?xml version="1.0" encoding="UTF-8" standalone="no"?>
<!-- Created with Inkscape (http://www.inkscape.org/) -->

<svg
   version="1.1"
   id="svg1"
   width="114.15564"
   height="21.595322"
   viewBox="0 0 114.15564 21.595322"
   xmlns="http://www.w3.org/2000/svg"
   xmlns:svg="http://www.w3.org/2000/svg">
  <defs
     id="defs1">
    <clipPath
       clipPathUnits="userSpaceOnUse"
       id="clipPath30">
      <path
         d="m 270.131,518.417 h 85.617 V 502.22 h -85.617 z"
         transform="translate(-286.75881,-513.25881)"
         id="path30" />
    </clipPath>
    <clipPath
       clipPathUnits="userSpaceOnUse"
       id="clipPath32">
      <path
         d="M 0,547.086 H 382.677 V 0 H 0 Z"
         transform="matrix(1.3333333,0,0,-1.3333333,0,729.448)"
         id="path32" />
    </clipPath>
  </defs>
  <g
     id="layer-MC1"
     transform="translate(-360.17502,-38.226025)">
    <g
       id="g31"
       clip-path="url(#clipPath32)">
      <path
         d="m 0,0 -0.58,-0.694 -0.007,-0.118 c 0.1,-0.117 0.209,-0.227 0.329,-0.328 0.131,-0.108 0.27,-0.204 0.41,-0.284 l 0.125,0.019 0.579,0.692 -0.012,0.077 C 0.691,-0.553 0.549,-0.458 0.414,-0.342 0.288,-0.238 0.177,-0.118 0.068,0 Z m 0.247,-2.303 -0.023,-0.04 -0.289,0.21 c -0.13,0.109 -0.245,0.232 -0.353,0.354 l -0.077,-0.001 -0.6,-0.718 -0.008,-0.124 c 0.105,-0.12 0.216,-0.236 0.343,-0.34 0.132,-0.114 0.276,-0.213 0.425,-0.296 l 0.131,0.023 0.566,0.675 0.221,-0.207 C 0.719,-2.88 0.861,-2.979 1.009,-3.063 l 0.131,0.02 0.598,0.719 -0.018,0.078 c -0.153,0.09 -0.3,0.188 -0.443,0.307 -0.131,0.108 -0.242,0.232 -0.354,0.356 L 0.849,-1.584 Z m -14.485,2.346 -0.071,0.004 -0.638,-0.64 -0.018,-0.118 c 0.088,-0.123 0.188,-0.242 0.299,-0.353 0.121,-0.121 0.25,-0.229 0.385,-0.322 l 0.125,0.009 0.638,0.637 -0.005,0.08 c -0.145,0.096 -0.28,0.205 -0.403,0.33 -0.119,0.116 -0.217,0.244 -0.312,0.373 m 1.636,2.526 c 0.173,0.093 0.274,0.123 0.357,0.275 0.079,0.152 0.099,0.179 0.144,0.286 0.049,0.114 0.103,0.242 -0.213,0.088 -0.207,-0.101 -3.664,-1.582 -3.88,-1.675 -0.213,-0.094 -0.28,-0.136 -0.324,-0.285 -0.044,-0.148 -0.068,-0.229 -0.079,-0.261 -0.041,-0.099 -0.092,-0.203 0.225,-0.058 0.094,0.045 3.6,1.539 3.77,1.63 M 7.627,-8.143 C 7.425,-8.244 4.651,-9.449 4.433,-9.544 4.215,-9.638 4.15,-9.68 4.104,-9.829 c -0.047,-0.149 -0.07,-0.23 -0.08,-0.26 -0.04,-0.098 -0.092,-0.199 0.224,-0.058 0.1,0.043 2.923,1.262 3.096,1.354 0.172,0.093 0.274,0.124 0.355,0.276 0.08,0.152 0.101,0.179 0.145,0.286 0.049,0.112 0.104,0.245 -0.217,0.088 M 8.824,1.145 C 8.799,1.399 8.76,1.442 8.904,1.571 9.047,1.7 9.37,1.961 9.199,2.202 9.025,2.44 8.723,2.852 8.637,3.108 8.564,3.325 8.5,3.504 8.391,3.334 8.264,3.141 8.211,3.026 8.036,2.799 7.945,2.68 7.854,2.623 7.955,2.442 8.094,2.198 8.275,1.784 8.301,1.479 8.314,1.319 8.354,0.971 8.404,0.643 8.469,0.213 9.245,-5.418 9.15,-5.537 9.057,-5.656 8.439,-6.179 7.375,-5.586 l -0.1,0.063 c 0.772,0.551 0.704,1.082 0.58,1.279 -0.224,0.358 -2.265,1.496 -3.425,-0.344 -0.127,-0.187 -0.223,-0.63 0.047,-0.468 0.23,0.138 0.826,0.172 1.46,-0.227 l 0.149,-0.098 c -1.509,-0.978 -2.85,-0.347 -3.289,-0.074 0.037,0.172 0.062,0.313 0.066,0.387 0.014,0.299 -0.175,0.328 -0.258,0.027 -0.082,-0.298 -0.126,-0.685 -0.273,-0.978 -0.26,-0.52 -1.008,-0.115 -1.32,0.025 0.09,0.262 0.164,0.569 0.22,0.922 0.034,0.203 -0.091,0.373 -0.228,-0.053 -0.134,-0.414 -0.613,-1.646 -2.736,-0.935 0.029,0.248 0.179,0.804 -0.284,0.566 -0.504,-0.26 -1.724,-0.722 -2.427,-0.898 -0.461,-0.115 -0.534,-0.186 -0.463,-0.389 0.07,-0.201 0.192,-0.742 0.437,-0.664 0.051,0.018 0.137,0.045 0.242,0.08 -0.207,-0.549 -0.935,-2.24 -2.246,-2.779 -0.308,-0.119 -1.64,-0.488 -3.035,0.137 -0.172,0.054 -0.426,-0.084 -0.165,-0.262 0.261,-0.178 3.028,-1.67 4.683,0.049 0.381,0.386 0.922,1.64 1.275,2.982 v 0.033 c 0.281,0.09 0.527,0.17 0.527,0.17 0.153,0.053 0.756,0.311 1.092,0.457 1.035,-0.765 2.037,-1.027 2.694,-0.213 0.818,-0.756 1.414,-0.593 1.668,-0.205 0.104,0.16 0.222,0.465 0.324,0.787 1.301,-1.281 3.535,-0.047 4.039,0.309 0.172,-0.184 0.334,-0.371 0.379,-0.463 0.084,-0.168 0.558,-0.635 1.48,-0.475 0.311,0.053 1.104,0.42 1.055,1.813 C 9.516,-3.131 8.918,0.469 8.918,0.469 8.873,0.764 8.824,1.145 8.824,1.145 m -20.017,-4.629 c -0.127,0.588 -0.766,1.684 -0.766,1.684 -0.104,0.183 -0.197,0.304 -0.242,0.195 -0.045,-0.106 -0.197,-0.947 -0.197,-0.947 0.225,-0.327 1.105,-2.092 1.025,-2.401 -0.082,-0.308 -0.8,-1.859 -3.065,-1.74 -0.236,0.012 -2.537,0.346 -1.394,3.053 0.041,0.095 -0.061,0.291 -0.207,0.068 -0.191,-0.289 -1.324,-3.457 1.068,-4.045 0.407,-0.099 2.219,-0.273 3.533,1.295 0.157,0.188 0.612,1.131 0.245,2.838 m 3.617,-0.971 c -0.184,0.34 -0.449,0.602 -0.625,0.754 -0.342,0.291 -0.645,-0.133 -0.701,-0.314 -0.192,-0.594 0.82,-0.492 1.039,-0.477 0.093,0.008 0.189,0.022 0.287,0.037 m -1.362,-4.099 c -1.576,-0.653 -3.572,-0.227 -3.776,-0.182 -0.405,0.094 -0.231,0.359 0.112,0.307 3.625,-0.483 5.038,2.179 5.254,2.865 l 0.032,0.176 c -0.643,-0.129 -1.295,-0.137 -1.53,-0.065 -0.933,0.291 -0.756,1.694 0.007,2.612 0.776,0.931 1.521,-0.561 1.642,-0.864 0.822,-2.08 -0.375,-3.525 -0.504,-3.701 -0.36,-0.486 -0.74,-0.943 -1.237,-1.148 m 20.178,7.012 c 0.108,-0.788 0.481,-3.126 0.505,-4.792 0.007,-0.392 0.138,-0.489 0.23,-0.207 0.158,0.483 0.209,1.838 -0.033,3.814 -0.12,0.996 -0.579,4.067 -0.639,4.858 C 11.275,2.563 11.217,2.934 11.07,2.593 10.913,2.232 10.836,1.768 10.908,1.135 11.015,0.051 11.131,-0.761 11.24,-1.542 m -15.075,1.54 c 0.027,0.1 0.085,0.64 -0.171,0.966 -0.156,0.171 -0.329,0.182 -0.567,-0.186 -0.073,-0.112 -0.074,-0.227 0.085,-0.326 0.16,-0.098 0.653,-0.454 0.653,-0.454 m -2.289,-2.605 c -0.258,-0.122 -0.478,0.022 0.112,0.444 0.906,0.645 1.6,1.084 1.888,1.578 0,0 -0.551,0.356 -0.802,0.607 -0.251,0.253 0.068,0.95 0.316,1.223 0.634,0.714 0.936,0.243 1.012,0.115 0.308,-0.596 0.122,-1.342 0.033,-1.554 0,0 0.246,-0.185 0.317,-0.259 0.098,-0.104 0.054,-0.316 -0.075,-0.694 -0.046,-0.133 -0.191,0.228 -0.531,0.388 -0.267,-0.563 -0.56,-1.038 -2.27,-1.848 M 0.989,1.647 C 1.024,1.657 1.066,1.653 1.109,1.693 1.249,1.824 1.366,2.171 1.38,2.289 1.364,2.38 1.038,2.412 0.944,2.435 0.622,2.512 0.315,2.682 -0.02,2.703 -0.536,2.737 -1.016,2.504 -1.282,1.96 -1.312,1.889 -1.354,1.794 -1.383,1.723 -1.415,1.604 -1.354,1.524 -1.291,1.616 c 0.071,0.107 0.159,0.211 0.271,0.279 0.264,0.16 0.546,0.222 0.833,0.194 C 0.073,2.064 0.562,1.881 0.562,1.856 0.558,1.799 -0.576,1.238 -0.755,1.126 -0.831,1.077 -0.926,0.989 -0.909,0.9 -0.896,0.831 -0.786,0.817 -0.694,0.85 -0.248,1.011 -0.089,1 0.272,1.154 0.759,1.363 0.903,1.621 0.989,1.647 M 17.313,0.259 c -0.046,-0.105 -0.068,-0.132 -0.15,-0.283 -0.084,-0.149 -0.184,-0.18 -0.36,-0.271 -0.175,-0.087 -3.012,-1.258 -3.111,-1.301 -0.322,-0.137 -0.267,-0.037 -0.225,0.066 0.011,0.029 0.035,0.108 0.084,0.255 0.047,0.151 0.114,0.191 0.334,0.28 0.218,0.092 3.008,1.248 3.217,1.344 0.319,0.151 0.262,0.021 0.211,-0.09 m -1.126,-5.516 c -0.216,-0.016 -1.228,-0.116 -1.037,0.476 0.055,0.182 0.358,0.606 0.698,0.315 0.177,-0.155 0.445,-0.416 0.629,-0.756 z m -0.972,1.648 c -0.766,-0.916 -0.944,-2.32 -0.01,-2.609 0.234,-0.073 0.887,-0.065 1.531,0.064 L 16.705,-6.33 c -0.219,-0.687 -1.631,-3.345 -5.254,-2.867 -0.344,0.055 -0.521,-0.211 -0.113,-0.305 0.205,-0.046 2.198,-0.47 3.775,0.182 0.496,0.203 0.879,0.662 1.239,1.148 0.128,0.176 1.324,1.622 0.502,3.702 -0.12,0.3 -0.864,1.795 -1.639,0.861 m 18.824,-4.202 c -0.044,-0.108 -0.061,-0.136 -0.137,-0.291 -0.077,-0.154 -0.177,-0.185 -0.348,-0.281 -0.168,-0.099 -3.008,-1.275 -3.105,-1.323 -0.313,-0.152 -0.264,-0.05 -0.227,0.055 0.008,0.031 0.029,0.111 0.071,0.263 0.041,0.149 0.106,0.193 0.321,0.293 0.212,0.099 3.007,1.257 3.208,1.365 0.313,0.165 0.262,0.031 0.217,-0.081 m 11.782,2.771 c -0.068,-0.146 -0.226,-0.47 -0.39,-0.687 -2.202,0.416 -3.85,-0.67 -4.149,-0.824 -1.885,-0.754 -3.426,-0.926 -3.789,-0.907 -2.318,0.047 -2.283,2.393 -2.336,2.727 -0.054,0.334 -0.978,5.91 -1.097,6.291 l 0.218,0.752 c 0.035,0.072 0.063,0.224 0.145,0.082 0.262,-0.463 1.07,-6.379 1.377,-7.467 0.752,-2.928 6.162,-0.328 6.408,-0.217 -2.598,0.938 -3.703,0.416 -3.852,0.36 -0.148,-0.057 -0.191,-0.03 -0.148,0.113 0.043,0.143 0.348,0.738 0.516,0.869 0.47,0.301 2.408,0.231 2.533,0.426 0.045,0.092 -0.865,4.568 -0.889,4.742 -0.049,0.33 -0.273,0.766 -0.441,1.022 -0.123,0.189 -0.026,0.257 0.066,0.394 0.172,0.254 0.221,0.383 0.346,0.604 0.107,0.191 0.189,0 0.283,-0.231 C 40.733,2.74 41.089,2.312 41.292,2.064 41.494,1.816 41.132,1.511 40.983,1.361 40.835,1.21 40.882,1.165 40.927,0.892 c 0,0 0.605,-2.592 0.681,-3.022 0.245,-1.16 -0.037,-1.83 -0.146,-2.037 1.432,-0.552 3.869,-0.619 4.16,-0.619 0.288,0 0.254,-0.135 0.199,-0.254 m -14.232,0.479 c 0.375,0.187 0.652,0.137 0.81,-0.156 0.157,-0.295 0.481,-0.94 0.217,-0.87 -0.238,0.065 -1.148,0.278 -1.385,0.618 0.135,0.205 0.254,0.357 0.358,0.408 m -0.834,-1.373 c 0.357,-0.274 1.56,-0.701 1.814,-0.701 0.254,-0.002 0.287,-0.026 0.381,0.189 0.096,0.215 0.215,0.492 0.227,0.674 0.01,0.183 0.021,1.299 -0.153,1.766 -0.136,0.445 -0.72,0.708 -1.06,0.439 -0.777,-0.699 -1.024,-1.272 -1.295,-1.621 -0.234,-0.303 -0.992,-1.199 -2.093,-0.596 0.109,0.295 0.175,0.533 0.204,0.676 0.065,0.344 -0.218,0.275 -0.286,0.033 -0.069,-0.244 -0.296,-0.803 -0.409,-1.072 -0.254,-0.594 -1.02,-0.006 -1.225,0.187 0.106,0.213 0.196,0.457 0.264,0.743 0.045,0.195 -0.105,0.441 -0.275,0.039 -0.168,-0.397 -0.828,-1.555 -2.564,-0.885 -0.167,0.473 -0.364,0.904 -0.364,0.904 -0.084,0.195 -0.168,0.326 -0.227,0.225 -0.056,-0.104 -0.306,-0.92 -0.306,-0.92 0.195,-0.35 0.892,-2.209 0.775,-2.506 -0.117,-0.297 -1.023,-1.754 -3.324,-1.373 -0.24,0.037 -2.554,0.637 -1.082,3.195 0.053,0.092 -0.029,0.295 -0.205,0.092 -0.227,-0.266 -1.742,-3.283 0.636,-4.144 0.403,-0.147 2.237,-0.528 3.758,0.878 0.168,0.157 0.68,0.944 0.594,2.467 0.283,-0.021 1.156,-0.031 1.84,0.629 0.26,-0.543 0.885,-0.767 1.082,-0.801 0.205,-0.037 0.295,-0.043 0.418,0.155 0.107,0.183 0.203,0.365 0.289,0.539 0.596,-0.303 1.129,-0.354 1.74,-0.026 0.276,0.172 0.539,0.528 0.779,0.903 z m 16.527,2.573 c 0.24,-1.811 0.188,-3.051 0.028,-3.494 -0.094,-0.258 -0.221,-0.17 -0.229,0.189 -0.019,1.526 -0.391,3.669 -0.496,4.389 -0.109,0.714 -0.225,1.461 -0.33,2.451 -0.072,0.574 0.008,1.002 0.166,1.338 0.146,0.314 0.203,-0.03 0.231,-0.426 0.058,-0.723 0.511,-3.534 0.63,-4.447 M 35.917,3.091 c 0.011,0.032 0.027,0.112 0.066,0.264 0.04,0.15 0.105,0.197 0.317,0.299 0.213,0.103 2.984,1.31 3.185,1.422 0.309,0.17 0.26,0.04 0.217,-0.077 C 39.664,4.888 39.644,4.863 39.57,4.706 39.495,4.552 39.397,4.517 39.229,4.415 39.061,4.318 36.241,3.093 36.146,3.043 35.834,2.884 35.881,2.991 35.917,3.091 m 3.67,-5.002 0.008,-0.08 -0.639,-0.637 -0.125,-0.011 c -0.135,0.093 -0.264,0.203 -0.385,0.322 -0.111,0.109 -0.213,0.228 -0.299,0.355 l 0.018,0.118 0.635,0.638 0.072,-0.004 c 0.098,-0.129 0.195,-0.257 0.313,-0.373 0.125,-0.125 0.257,-0.234 0.402,-0.328 m 20.726,2.213 c -0.16,0.1 -0.158,0.215 -0.085,0.326 0.238,0.368 0.411,0.358 0.568,0.187 0.255,-0.326 0.197,-0.866 0.17,-0.966 0,0 -0.493,0.355 -0.653,0.453 m 0.633,-1.211 c 0.34,-0.159 0.486,-0.52 0.532,-0.388 0.128,0.378 0.172,0.59 0.075,0.695 -0.072,0.074 -0.318,0.259 -0.318,0.259 0.09,0.212 0.276,0.958 -0.033,1.553 -0.074,0.128 -0.377,0.6 -1.012,-0.114 -0.248,-0.273 -0.566,-0.971 -0.315,-1.224 0.251,-0.251 0.802,-0.606 0.802,-0.606 -0.288,-0.494 -0.983,-0.934 -1.888,-1.578 -0.59,-0.422 -0.369,-0.567 -0.112,-0.444 1.71,0.809 2.003,1.285 2.269,1.847 m -34.897,0.744 c -0.151,0.095 -0.15,0.204 -0.08,0.311 0.226,0.349 0.39,0.339 0.54,0.177 0.242,-0.31 0.187,-0.824 0.161,-0.917 0,0 -0.469,0.337 -0.621,0.429 m 0.602,-1.15 c 0.324,-0.151 0.461,-0.494 0.505,-0.368 0.122,0.358 0.164,0.559 0.072,0.659 -0.068,0.07 -0.302,0.246 -0.302,0.246 0.086,0.201 0.261,0.91 -0.03,1.477 -0.072,0.121 -0.361,0.569 -0.962,-0.11 -0.237,-0.26 -0.538,-0.922 -0.3,-1.162 0.238,-0.238 0.762,-0.576 0.762,-0.576 -0.276,-0.469 -0.934,-0.887 -1.794,-1.499 -0.56,-0.401 -0.351,-0.538 -0.108,-0.423 1.626,0.77 1.904,1.222 2.157,1.756 m 24.488,1.633 c -0.16,0.099 -0.158,0.215 -0.085,0.326 0.238,0.368 0.411,0.357 0.568,0.186 0.255,-0.326 0.197,-0.866 0.17,-0.965 0,0 -0.493,0.355 -0.653,0.453 m 0.633,-1.211 c 0.341,-0.159 0.486,-0.521 0.532,-0.388 0.129,0.378 0.173,0.59 0.075,0.694 -0.071,0.075 -0.317,0.259 -0.317,0.259 0.089,0.212 0.275,0.958 -0.033,1.554 -0.075,0.128 -0.378,0.6 -1.012,-0.114 -0.248,-0.274 -0.567,-0.971 -0.316,-1.224 0.251,-0.251 0.802,-0.606 0.802,-0.606 -0.288,-0.495 -0.982,-0.934 -1.888,-1.579 -0.59,-0.421 -0.37,-0.566 -0.112,-0.444 1.71,0.81 2.003,1.285 2.269,1.848 m 4.569,1.329 c 0.035,0.01 0.077,0.006 0.12,0.046 0.14,0.131 0.257,0.478 0.27,0.596 -0.015,0.091 -0.341,0.124 -0.435,0.146 -0.322,0.077 -0.629,0.247 -0.964,0.269 -0.517,0.033 -0.996,-0.2 -1.263,-0.744 -0.029,-0.071 -0.072,-0.166 -0.1,-0.237 -0.032,-0.119 0.029,-0.199 0.092,-0.107 0.071,0.107 0.16,0.212 0.271,0.279 0.265,0.16 0.546,0.222 0.833,0.194 0.26,-0.025 0.749,-0.208 0.748,-0.233 -0.004,-0.057 -1.138,-0.618 -1.315,-0.73 -0.077,-0.048 -0.172,-0.137 -0.156,-0.226 0.014,-0.069 0.123,-0.083 0.215,-0.05 0.447,0.161 0.607,0.15 0.967,0.304 0.486,0.209 0.631,0.468 0.717,0.493 m -5.908,-6.81 c -0.069,-0.145 -0.158,-0.394 -0.21,-0.54 -0.018,-0.051 0.022,-0.114 0.086,-0.077 0.36,0.221 0.899,0.493 1.47,0.695 0.52,0.184 0.928,0.303 1.305,0.325 0.058,0.008 0.366,0.55 0.413,0.629 0.065,0.101 0.018,0.134 -0.063,0.119 -0.439,-0.084 -0.778,-0.162 -1.307,-0.114 -0.654,0.058 -1.165,0.558 -1.148,0.754 0.014,0.15 0.479,0.447 0.652,0.42 0.501,-0.079 0.492,-0.519 0.627,-0.524 0.161,-0.006 0.489,0.572 0.509,0.729 0.021,0.172 -0.322,0.581 -0.649,0.601 -0.538,0.032 -1.45,-0.88 -1.808,-1.441 -0.13,-0.207 -0.118,-0.523 0.069,-0.684 0.166,-0.142 0.439,-0.291 0.749,-0.479 -0.151,-0.053 -0.548,-0.285 -0.695,-0.413 m 18.462,2.793 c -0.09,0.85 -0.45,3.473 -0.485,4.147 -0.013,0.369 -0.059,0.687 -0.218,0.402 -0.168,-0.305 -0.261,-0.697 -0.208,-1.234 0.074,-0.926 0.161,-1.621 0.245,-2.285 0.083,-0.672 0.381,-2.674 0.351,-4.092 -0.006,-0.332 0.12,-0.418 0.223,-0.18 0.175,0.402 0.268,1.553 0.092,3.242 m -4.304,-4.393 c -0.117,0.115 -0.218,0.244 -0.315,0.371 l -0.069,0.006 -0.637,-0.641 -0.017,-0.117 c 0.088,-0.125 0.187,-0.242 0.298,-0.354 0.121,-0.123 0.251,-0.228 0.385,-0.322 l 0.125,0.01 0.638,0.639 -0.006,0.078 c -0.145,0.095 -0.279,0.203 -0.402,0.33 m 2.968,3.099 c -0.435,0.028 -2.446,0.065 -3.624,0.715 0.117,0.1 0.372,0.428 0.28,1.252 -0.089,0.824 -0.419,3.18 -0.419,3.18 -0.026,0.246 -0.127,0.482 0.014,0.607 0.14,0.127 0.435,0.342 0.265,0.574 -0.17,0.233 -0.462,0.674 -0.547,0.924 -0.071,0.211 -0.133,0.387 -0.24,0.221 C 63.163,2.407 63.118,2.162 62.95,1.942 62.862,1.825 62.771,1.768 62.87,1.592 c 0.137,-0.238 0.273,-0.674 0.299,-0.973 0.012,-0.156 0.057,-0.494 0.102,-0.816 0,0 0.576,-2.976 0.53,-3.459 0,0 -2.383,-0.084 -2.693,-0.385 l -0.477,-0.742 c -0.04,-0.082 -0.036,-0.172 0.077,-0.154 0.113,0.019 1.577,0.488 3.635,-0.336 -0.243,-0.084 -2.959,-1.246 -5.253,-0.986 -0.344,0.009 -2.755,0.326 -2.954,1.548 -0.028,0.155 -0.068,0.211 -0.15,0.055 -0.073,-0.139 -0.743,-1.137 0.309,-1.853 -0.333,-0.704 -0.927,-1.657 -1.833,-2.03 -0.297,-0.111 -1.621,-0.451 -2.958,0.149 -0.165,0.052 -0.407,-0.08 -0.158,-0.25 0.251,-0.172 2.695,-1.735 4.282,-0.09 0.28,0.287 0.758,1.057 1.12,1.978 1.626,-0.884 4.329,-0.398 4.329,-0.398 0.589,0.125 1.205,0.299 1.843,0.545 0.335,0.137 2.636,1.178 4.194,0.814 0.326,-0.08 0.401,-0.08 0.401,-0.08 0,0 0.28,0.598 0.343,0.742 0.063,0.145 0.135,0.227 -0.299,0.254 m -11.548,2.897 c 0.125,-0.125 0.258,-0.235 0.403,-0.332 l 0.006,-0.078 -0.637,-0.637 -0.126,-0.01 c -0.135,0.092 -0.263,0.201 -0.386,0.321 -0.111,0.113 -0.209,0.23 -0.297,0.355 l 0.016,0.117 0.638,0.641 0.07,-0.006 c 0.096,-0.127 0.197,-0.256 0.313,-0.371"
         style="fill:#231f20;fill-opacity:1;fill-rule:nonzero;stroke:none"
         transform="matrix(1.3333333,0,0,-1.3333333,382.34507,45.102933)"
         clip-path="url(#clipPath30)"
         id="path31" />
    </g>
  </g>
</svg>
