<?xml version="1.0" encoding="UTF-8" standalone="no"?>
<!-- Created with Inkscape (http://www.inkscape.org/) -->

<svg
   width="30.584187mm"
   height="6.9146843mm"
   viewBox="0 0 30.584185 6.9146841"
   version="1.1"
   id="svg1"
   xml:space="preserve"
   xmlns="http://www.w3.org/2000/svg"
   xmlns:svg="http://www.w3.org/2000/svg"><defs
     id="defs1" /><g
     id="layer1"
     transform="translate(-132.5756,-44.079279)"><g
       id="g53"
       transform="translate(-115.52939,-133.69519)"><path
         d="m 254.17137,180.18701 -0.20462,0.24482 -0.002,0.0416 c 0.0353,0.0413 0.0737,0.0801 0.11606,0.11571 0.0462,0.0381 0.0952,0.072 0.14464,0.10019 l 0.0441,-0.007 0.20425,-0.24412 -0.004,-0.0272 c -0.054,-0.0293 -0.10407,-0.0628 -0.15169,-0.10372 -0.0445,-0.0367 -0.0836,-0.079 -0.12207,-0.12065 z m 0.0871,0.81244 -0.008,0.0141 -0.10195,-0.0741 c -0.0459,-0.0384 -0.0864,-0.0818 -0.12454,-0.12488 l -0.0272,3.5e-4 -0.21167,0.2533 -0.003,0.0437 c 0.037,0.0423 0.0762,0.0833 0.121,0.11994 0.0466,0.0402 0.0974,0.0751 0.14994,0.10442 l 0.0462,-0.008 0.19967,-0.23812 0.078,0.073 c 0.048,0.0399 0.0981,0.0748 0.15028,0.10442 l 0.0462,-0.007 0.21096,-0.25365 -0.006,-0.0275 c -0.054,-0.0318 -0.10583,-0.0663 -0.15628,-0.1083 -0.0462,-0.0381 -0.0854,-0.0818 -0.12488,-0.12559 l -0.0261,3.5e-4 z m -5.10998,-0.82761 -0.025,-0.001 -0.22507,0.22577 -0.006,0.0416 c 0.031,0.0434 0.0663,0.0854 0.10548,0.12453 0.0427,0.0427 0.0882,0.0808 0.13582,0.1136 l 0.0441,-0.003 0.22508,-0.22472 -0.002,-0.0282 c -0.0511,-0.0339 -0.0988,-0.0723 -0.14217,-0.11642 -0.042,-0.0409 -0.0765,-0.0861 -0.11006,-0.13158 m 0.57714,-0.89112 c 0.061,-0.0328 0.0967,-0.0434 0.12594,-0.097 0.0279,-0.0536 0.0349,-0.0631 0.0508,-0.10089 0.0173,-0.0402 0.0363,-0.0854 -0.0751,-0.0311 -0.073,0.0356 -1.29258,0.55809 -1.36878,0.5909 -0.0751,0.0332 -0.0988,0.048 -0.1143,0.10054 -0.0155,0.0522 -0.024,0.0808 -0.0279,0.0921 -0.0145,0.0349 -0.0324,0.0716 0.0794,0.0205 0.0332,-0.0159 1.27,-0.54292 1.32997,-0.57503 m 7.13634,3.77896 c -0.0713,0.0356 -1.04986,0.46073 -1.12677,0.49424 -0.0769,0.0332 -0.0998,0.048 -0.11606,0.10054 -0.0166,0.0526 -0.0247,0.0811 -0.0282,0.0917 -0.0141,0.0346 -0.0324,0.0702 0.079,0.0205 0.0353,-0.0152 1.03117,-0.4452 1.0922,-0.47766 0.0607,-0.0328 0.0967,-0.0437 0.12523,-0.0974 0.0282,-0.0536 0.0356,-0.0631 0.0512,-0.10089 0.0173,-0.0395 0.0367,-0.0864 -0.0765,-0.031 m 0.42228,-3.2766 c -0.009,-0.0896 -0.0226,-0.10478 0.0282,-0.15029 0.0505,-0.0455 0.16439,-0.13758 0.10407,-0.2226 -0.0614,-0.084 -0.16792,-0.22931 -0.19826,-0.31962 -0.0258,-0.0765 -0.0483,-0.1397 -0.0868,-0.0797 -0.0448,0.0681 -0.0635,0.10866 -0.12523,0.18874 -0.0321,0.042 -0.0642,0.0621 -0.0286,0.12594 0.049,0.0861 0.11289,0.23213 0.12206,0.33973 0.005,0.0564 0.0187,0.17921 0.0363,0.29492 0.0229,0.15169 0.29669,2.13818 0.26317,2.18017 -0.0328,0.042 -0.25082,0.22648 -0.62618,0.0173 l -0.0353,-0.0222 c 0.27235,-0.19439 0.24836,-0.38171 0.20462,-0.45121 -0.079,-0.12629 -0.79905,-0.52775 -1.20827,0.12136 -0.0448,0.066 -0.0787,0.22225 0.0166,0.1651 0.0811,-0.0487 0.2914,-0.0607 0.51506,0.0801 l 0.0526,0.0346 c -0.53234,0.34502 -1.00542,0.12241 -1.16028,0.0261 0.0131,-0.0607 0.0219,-0.11042 0.0233,-0.13653 0.005,-0.10548 -0.0617,-0.11571 -0.091,-0.01 -0.0289,0.10513 -0.0445,0.24166 -0.0963,0.34502 -0.0917,0.18344 -0.3556,0.0406 -0.46566,-0.009 0.0317,-0.0924 0.0579,-0.20073 0.0776,-0.32526 0.012,-0.0716 -0.0321,-0.13159 -0.0804,0.0187 -0.0473,0.14605 -0.21625,0.58067 -0.9652,0.32985 0.0102,-0.0875 0.0632,-0.28364 -0.10018,-0.19968 -0.1778,0.0917 -0.60819,0.25471 -0.8562,0.3168 -0.16263,0.0406 -0.18838,0.0656 -0.16333,0.13723 0.0247,0.0709 0.0677,0.26176 0.15416,0.23424 0.018,-0.006 0.0483,-0.0159 0.0854,-0.0282 -0.073,0.19368 -0.32984,0.79023 -0.79233,0.98037 -0.10866,0.042 -0.57856,0.17216 -1.07069,-0.0483 -0.0607,-0.019 -0.15028,0.0296 -0.0582,0.0924 0.0921,0.0628 1.06821,0.58914 1.65205,-0.0173 0.13441,-0.13617 0.32527,-0.57855 0.4498,-1.05198 v -0.0116 c 0.0991,-0.0318 0.18591,-0.06 0.18591,-0.06 0.054,-0.0187 0.2667,-0.10971 0.38523,-0.16122 0.36513,0.26988 0.71861,0.3623 0.95039,0.0751 0.28857,0.2667 0.49882,0.2092 0.58843,0.0723 0.0367,-0.0564 0.0783,-0.16404 0.1143,-0.27764 0.45896,0.45191 1.24707,0.0166 1.42487,-0.109 0.0607,0.0649 0.11783,0.13088 0.1337,0.16333 0.0296,0.0593 0.19685,0.22402 0.52211,0.16757 0.10972,-0.0187 0.38947,-0.14817 0.37218,-0.63958 -0.01,-0.66817 -0.22048,-1.93817 -0.22048,-1.93817 -0.0159,-0.10407 -0.0332,-0.23847 -0.0332,-0.23847 m -7.06156,1.633 c -0.0448,-0.20743 -0.27022,-0.59407 -0.27022,-0.59407 -0.0367,-0.0646 -0.0695,-0.10725 -0.0854,-0.0688 -0.0159,0.0374 -0.0695,0.33408 -0.0695,0.33408 0.0794,0.11535 0.38982,0.73801 0.36159,0.84702 -0.0289,0.10865 -0.28222,0.65581 -1.08126,0.61383 -0.0833,-0.004 -0.895,-0.12206 -0.49177,-1.07703 0.0145,-0.0335 -0.0215,-0.10266 -0.073,-0.024 -0.0674,0.10195 -0.46707,1.21955 0.37677,1.42699 0.14358,0.0349 0.78281,0.0963 1.24636,-0.45685 0.0554,-0.0663 0.2159,-0.39899 0.0864,-1.00119 m 1.276,0.34255 c -0.0649,-0.11994 -0.1584,-0.21237 -0.22048,-0.26599 -0.12065,-0.10266 -0.22755,0.0469 -0.2473,0.11077 -0.0677,0.20955 0.28928,0.17357 0.36653,0.16827 0.0328,-0.003 0.0667,-0.008 0.10125,-0.013 m -0.48048,1.44604 c -0.55598,0.23036 -1.26012,0.0801 -1.33209,0.0642 -0.14288,-0.0332 -0.0815,-0.12665 0.0395,-0.1083 1.27882,0.17039 1.77729,-0.76871 1.85349,-1.01071 l 0.0113,-0.0621 c -0.22683,0.0455 -0.45684,0.0483 -0.53975,0.0229 -0.32914,-0.10266 -0.2667,-0.59761 0.002,-0.92146 0.27376,-0.32843 0.53658,0.19791 0.57926,0.3048 0.28999,0.73378 -0.13229,1.24355 -0.1778,1.30563 -0.127,0.17145 -0.26105,0.33267 -0.43638,0.40499 m 7.11835,-2.47367 c 0.0381,0.27798 0.16968,1.10278 0.17815,1.69051 0.002,0.13829 0.0487,0.17251 0.0811,0.073 0.0557,-0.17039 0.0737,-0.64841 -0.0116,-1.3455 -0.0423,-0.35136 -0.20426,-1.43474 -0.22543,-1.71379 -0.01,-0.1524 -0.0303,-0.28328 -0.0822,-0.16299 -0.0554,0.12736 -0.0825,0.29105 -0.0571,0.51435 0.0377,0.38242 0.0787,0.66887 0.11712,0.94439 m -5.31813,-0.54328 c 0.01,-0.0353 0.03,-0.22577 -0.0603,-0.34078 -0.055,-0.0603 -0.11607,-0.0642 -0.20003,0.0656 -0.0257,0.0395 -0.0261,0.0801 0.03,0.11501 0.0564,0.0346 0.23036,0.16016 0.23036,0.16016 m -0.80751,0.91898 c -0.091,0.043 -0.16862,-0.008 0.0395,-0.15663 0.31961,-0.22754 0.56444,-0.38241 0.66604,-0.55668 0,0 -0.19438,-0.12559 -0.28293,-0.21414 -0.0885,-0.0893 0.024,-0.33514 0.11148,-0.43145 0.22366,-0.25188 0.3302,-0.0857 0.35701,-0.0406 0.10866,0.21026 0.043,0.47343 0.0116,0.54822 0,0 0.0868,0.0653 0.11183,0.0914 0.0346,0.0367 0.019,0.11148 -0.0265,0.24483 -0.0162,0.0469 -0.0674,-0.0804 -0.18733,-0.13688 -0.0942,0.19861 -0.19756,0.36618 -0.80081,0.65193 m 2.50931,-1.50071 c 0.0123,-0.004 0.0272,-0.002 0.0423,-0.0162 0.0494,-0.0462 0.0907,-0.16863 0.0956,-0.21026 -0.006,-0.0321 -0.12065,-0.0434 -0.15381,-0.0515 -0.1136,-0.0272 -0.2219,-0.0871 -0.34008,-0.0945 -0.18203,-0.012 -0.35137,0.0702 -0.44521,0.26211 -0.0106,0.025 -0.0254,0.0586 -0.0356,0.0836 -0.0113,0.042 0.0102,0.0702 0.0325,0.0378 0.0251,-0.0378 0.0561,-0.0744 0.0956,-0.0984 0.0931,-0.0564 0.19262,-0.0783 0.29387,-0.0684 0.0917,0.009 0.26423,0.0734 0.26423,0.0822 -0.001,0.0201 -0.40146,0.21802 -0.46461,0.25753 -0.0268,0.0173 -0.0603,0.0483 -0.0543,0.0797 0.005,0.0243 0.0434,0.0293 0.0759,0.0176 0.15734,-0.0568 0.21343,-0.0529 0.34078,-0.10724 0.1718,-0.0737 0.2226,-0.16475 0.25294,-0.17392 m 5.75875,0.48965 c -0.0162,0.037 -0.024,0.0466 -0.0529,0.0998 -0.0296,0.0526 -0.0649,0.0635 -0.127,0.0956 -0.0617,0.0307 -1.06257,0.4438 -1.09749,0.45897 -0.1136,0.0483 -0.0942,0.013 -0.0794,-0.0233 0.004,-0.0102 0.0123,-0.0381 0.0296,-0.09 0.0166,-0.0533 0.0402,-0.0674 0.11783,-0.0988 0.0769,-0.0325 1.06115,-0.44027 1.13488,-0.47414 0.11254,-0.0533 0.0924,-0.007 0.0744,0.0317 m -0.39723,1.94593 c -0.0762,0.006 -0.43321,0.0409 -0.36583,-0.16793 0.0194,-0.0642 0.12629,-0.21378 0.24624,-0.11112 0.0624,0.0547 0.15698,0.14675 0.2219,0.2667 z m -0.3429,-0.58138 c -0.27023,0.32314 -0.33302,0.81844 -0.004,0.9204 0.0825,0.0258 0.31292,0.0229 0.5401,-0.0226 l -0.0109,0.0621 c -0.0773,0.24235 -0.57538,1.18004 -1.8535,1.01141 -0.12135,-0.0194 -0.18379,0.0744 -0.0399,0.1076 0.0723,0.0162 0.77541,0.1658 1.33174,-0.0642 0.17497,-0.0716 0.31009,-0.23354 0.43709,-0.40499 0.0452,-0.0621 0.46708,-0.57221 0.17709,-1.30599 -0.0423,-0.10583 -0.3048,-0.63323 -0.5782,-0.30374 m 6.64069,1.48237 c -0.0155,0.0381 -0.0215,0.048 -0.0483,0.10266 -0.0272,0.0543 -0.0624,0.0653 -0.12277,0.0991 -0.0593,0.0349 -1.06115,0.4498 -1.09537,0.46673 -0.11042,0.0536 -0.0931,0.0176 -0.0801,-0.0194 0.003,-0.0109 0.0102,-0.0392 0.025,-0.0928 0.0145,-0.0526 0.0374,-0.0681 0.11324,-0.10337 0.0748,-0.0349 1.06081,-0.44344 1.13172,-0.48154 0.11041,-0.0582 0.0924,-0.0109 0.0766,0.0286 m 4.15643,-0.97754 c -0.024,0.0515 -0.0797,0.1658 -0.13759,0.24235 -0.77681,-0.14675 -1.35819,0.23637 -1.46367,0.29069 -0.66499,0.266 -1.20862,0.32668 -1.33668,0.31997 -0.81774,-0.0166 -0.80539,-0.84419 -0.82409,-0.96202 -0.019,-0.11783 -0.34501,-2.08492 -0.38699,-2.21933 l 0.0769,-0.26529 c 0.0123,-0.0254 0.0222,-0.079 0.0512,-0.0289 0.0924,0.16334 0.37748,2.25037 0.48578,2.6342 0.26529,1.03293 2.17382,0.11571 2.2606,0.0765 -0.91652,-0.33091 -1.30634,-0.14676 -1.3589,-0.127 -0.0522,0.0201 -0.0674,0.0106 -0.0522,-0.0399 0.0152,-0.0504 0.12277,-0.26035 0.18203,-0.30657 0.16581,-0.10618 0.84949,-0.0815 0.89359,-0.15028 0.0159,-0.0325 -0.30515,-1.61149 -0.31362,-1.67287 -0.0173,-0.11642 -0.0963,-0.27023 -0.15558,-0.36054 -0.0434,-0.0667 -0.009,-0.0907 0.0233,-0.139 0.0607,-0.0896 0.078,-0.13511 0.12206,-0.21308 0.0377,-0.0674 0.0667,0 0.0998,0.0815 0.0392,0.0949 0.16475,0.24589 0.23637,0.33338 0.0713,0.0875 -0.0565,0.19509 -0.10901,0.248 -0.0522,0.0533 -0.0356,0.0691 -0.0198,0.16545 0,0 0.21343,0.9144 0.24024,1.0661 0.0864,0.40922 -0.013,0.64558 -0.0515,0.71861 0.50518,0.19473 1.36489,0.21837 1.46755,0.21837 0.1016,0 0.0896,0.0476 0.0702,0.0896 m -5.02074,-0.16898 c 0.13229,-0.066 0.23001,-0.0483 0.28575,0.055 0.0554,0.10407 0.16969,0.33161 0.0766,0.30691 -0.084,-0.0229 -0.40499,-0.0981 -0.4886,-0.21801 0.0476,-0.0723 0.0896,-0.12594 0.12629,-0.14394 m -0.29421,0.48437 c 0.12594,0.0967 0.55033,0.2473 0.63993,0.2473 0.0896,7e-4 0.10125,0.009 0.13441,-0.0667 0.0339,-0.0758 0.0759,-0.17357 0.0801,-0.23778 0.004,-0.0646 0.007,-0.45826 -0.054,-0.623 -0.048,-0.15699 -0.254,-0.24977 -0.37395,-0.15487 -0.2741,0.24659 -0.36124,0.44873 -0.45684,0.57185 -0.0825,0.10689 -0.34996,0.42298 -0.73837,0.21026 0.0385,-0.10407 0.0617,-0.18803 0.072,-0.23848 0.0229,-0.12136 -0.0769,-0.097 -0.10089,-0.0116 -0.0243,0.0861 -0.10443,0.28328 -0.14429,0.37818 -0.0896,0.20955 -0.35983,0.002 -0.43215,-0.066 0.0374,-0.0751 0.0691,-0.16122 0.0931,-0.26212 0.0159,-0.0688 -0.037,-0.15557 -0.097,-0.0138 -0.0593,0.14005 -0.2921,0.54857 -0.90453,0.31221 -0.0589,-0.16686 -0.12841,-0.31891 -0.12841,-0.31891 -0.0296,-0.0688 -0.0593,-0.11501 -0.0801,-0.0794 -0.0197,0.0367 -0.10795,0.32455 -0.10795,0.32455 0.0688,0.12348 0.31468,0.77929 0.2734,0.88407 -0.0413,0.10477 -0.36089,0.61877 -1.17263,0.48436 -0.0847,-0.013 -0.90099,-0.22472 -0.3817,-1.12713 0.0187,-0.0324 -0.0102,-0.10406 -0.0723,-0.0324 -0.0801,0.0938 -0.61454,1.15817 0.22436,1.46192 0.14217,0.0519 0.78917,0.18626 1.32574,-0.30974 0.0593,-0.0554 0.23989,-0.33303 0.20955,-0.87031 0.0998,0.007 0.40781,0.0109 0.64911,-0.22189 0.0917,0.19155 0.31221,0.27058 0.38171,0.28257 0.0723,0.0131 0.10407,0.0152 0.14746,-0.0547 0.0377,-0.0646 0.0716,-0.12876 0.10195,-0.19015 0.21026,0.1069 0.39829,0.12489 0.61384,0.009 0.0974,-0.0607 0.19014,-0.18626 0.27481,-0.31855 z m 5.83035,-0.9077 c 0.0847,0.63888 0.0663,1.07633 0.01,1.23261 -0.0332,0.091 -0.078,0.06 -0.0808,-0.0667 -0.007,-0.53834 -0.13794,-1.29435 -0.17498,-1.54835 -0.0385,-0.25188 -0.0794,-0.5154 -0.11642,-0.86465 -0.0254,-0.2025 0.003,-0.35349 0.0586,-0.47202 0.0515,-0.11077 0.0716,0.0106 0.0815,0.15028 0.0205,0.25506 0.18027,1.24672 0.22225,1.56881 m -4.00932,-2.27613 c 0.004,-0.0113 0.01,-0.0395 0.0233,-0.0931 0.0141,-0.0529 0.037,-0.0695 0.11183,-0.10548 0.0751,-0.0363 1.05269,-0.46214 1.1236,-0.50165 0.109,-0.06 0.0917,-0.0141 0.0765,0.0272 -0.0134,0.0392 -0.0205,0.048 -0.0466,0.10336 -0.0265,0.0543 -0.061,0.0667 -0.1203,0.10266 -0.0593,0.0342 -1.0541,0.46638 -1.08761,0.48402 -0.11007,0.0561 -0.0935,0.0183 -0.0808,-0.0169 m 1.2947,1.76459 0.003,0.0282 -0.22542,0.22472 -0.0441,0.004 c -0.0476,-0.0328 -0.0931,-0.0716 -0.13582,-0.1136 -0.0392,-0.0384 -0.0751,-0.0804 -0.10548,-0.12523 l 0.006,-0.0416 0.22401,-0.22507 0.0254,0.001 c 0.0346,0.0455 0.0688,0.0907 0.11042,0.13158 0.0441,0.0441 0.0907,0.0825 0.14182,0.11571 m 7.31167,-0.78069 c -0.0564,-0.0353 -0.0557,-0.0759 -0.03,-0.11501 0.084,-0.12982 0.14499,-0.12629 0.20037,-0.066 0.09,0.11501 0.0695,0.30551 0.06,0.34079 0,0 -0.17392,-0.12524 -0.23037,-0.15981 m 0.22331,0.42721 c 0.11994,0.0561 0.17145,0.18345 0.18768,0.13688 0.0452,-0.13335 0.0607,-0.20814 0.0265,-0.24518 -0.0254,-0.0261 -0.11219,-0.0914 -0.11219,-0.0914 0.0318,-0.0748 0.0974,-0.33796 -0.0116,-0.54787 -0.0261,-0.0452 -0.133,-0.21166 -0.35701,0.0402 -0.0875,0.0963 -0.19967,0.34255 -0.11113,0.4318 0.0885,0.0885 0.28293,0.21379 0.28293,0.21379 -0.1016,0.17427 -0.34678,0.32949 -0.66604,0.55668 -0.20814,0.14887 -0.13018,0.20002 -0.0395,0.15663 0.60325,-0.28539 0.70661,-0.45332 0.80045,-0.65158 m -12.31089,-0.26191 c -0.0533,-0.0335 -0.0529,-0.072 -0.0282,-0.10972 0.0797,-0.12312 0.13758,-0.11959 0.1905,-0.0624 0.0854,0.10936 0.066,0.29069 0.0568,0.3235 0,0 -0.16545,-0.11889 -0.21908,-0.15134 m 0.21238,0.40569 c 0.1143,0.0533 0.16263,0.17427 0.17815,0.12982 0.043,-0.12629 0.0579,-0.1972 0.0254,-0.23248 -0.024,-0.0247 -0.10654,-0.0868 -0.10654,-0.0868 0.0303,-0.0709 0.0921,-0.32102 -0.0106,-0.52105 -0.0254,-0.0427 -0.12736,-0.20073 -0.33938,0.0388 -0.0836,0.0917 -0.18979,0.32526 -0.10583,0.40993 0.084,0.084 0.26882,0.2032 0.26882,0.2032 -0.0974,0.16545 -0.3295,0.31291 -0.63289,0.52881 -0.19755,0.14147 -0.12382,0.1898 -0.0381,0.14923 0.57362,-0.27164 0.67169,-0.4311 0.76095,-0.61948 m 8.63882,-0.57608 c -0.0565,-0.0349 -0.0557,-0.0759 -0.03,-0.11501 0.084,-0.12982 0.14499,-0.12594 0.20038,-0.0656 0.09,0.115 0.0695,0.3055 0.06,0.34043 0,0 -0.17392,-0.12524 -0.23036,-0.15981 m 0.22331,0.42722 c 0.12029,0.0561 0.17145,0.18379 0.18767,0.13687 0.0455,-0.13335 0.061,-0.20814 0.0265,-0.24482 -0.025,-0.0265 -0.11183,-0.0914 -0.11183,-0.0914 0.0314,-0.0748 0.097,-0.33797 -0.0116,-0.54822 -0.0265,-0.0452 -0.13335,-0.21167 -0.35701,0.0402 -0.0875,0.0967 -0.20003,0.34255 -0.11148,0.4318 0.0885,0.0885 0.28293,0.21378 0.28293,0.21378 -0.1016,0.17463 -0.34643,0.3295 -0.66605,0.55704 -0.20813,0.14852 -0.13052,0.19967 -0.0395,0.15663 0.60325,-0.28575 0.70662,-0.45332 0.80046,-0.65193 m 1.61184,-0.46884 c 0.0123,-0.004 0.0272,-0.002 0.0423,-0.0162 0.0494,-0.0462 0.0907,-0.16863 0.0952,-0.21026 -0.005,-0.0321 -0.1203,-0.0438 -0.15346,-0.0515 -0.11359,-0.0272 -0.22189,-0.0871 -0.34007,-0.0949 -0.18239,-0.0116 -0.35137,0.0706 -0.44556,0.26247 -0.0102,0.0251 -0.0254,0.0586 -0.0353,0.0836 -0.0113,0.042 0.0102,0.0702 0.0324,0.0378 0.0251,-0.0378 0.0565,-0.0748 0.0956,-0.0984 0.0935,-0.0564 0.19261,-0.0783 0.29386,-0.0684 0.0917,0.009 0.26423,0.0734 0.26388,0.0822 -0.001,0.0201 -0.40146,0.21802 -0.4639,0.25753 -0.0272,0.0169 -0.0607,0.0483 -0.055,0.0797 0.005,0.0243 0.0434,0.0293 0.0759,0.0176 0.15769,-0.0568 0.21414,-0.0529 0.34114,-0.10725 0.17145,-0.0737 0.2226,-0.1651 0.25294,-0.17392 m -2.08421,2.40242 c -0.0243,0.0512 -0.0557,0.13899 -0.0741,0.1905 -0.006,0.018 0.008,0.0402 0.0303,0.0272 0.127,-0.078 0.31715,-0.17392 0.51859,-0.24518 0.18344,-0.0649 0.32737,-0.10689 0.46037,-0.11465 0.0205,-0.003 0.12912,-0.19403 0.1457,-0.2219 0.0229,-0.0356 0.006,-0.0473 -0.0222,-0.042 -0.15487,0.0296 -0.27446,0.0571 -0.46108,0.0402 -0.23071,-0.0205 -0.41098,-0.19685 -0.40499,-0.266 0.005,-0.0529 0.16898,-0.15769 0.23001,-0.14816 0.17675,0.0279 0.17357,0.18309 0.2212,0.18485 0.0568,0.002 0.1725,-0.20179 0.17956,-0.25717 0.007,-0.0607 -0.11359,-0.20497 -0.22895,-0.21202 -0.1898,-0.0113 -0.51153,0.31044 -0.63782,0.50835 -0.0459,0.073 -0.0416,0.1845 0.0243,0.2413 0.0586,0.0501 0.15487,0.10266 0.26423,0.16898 -0.0533,0.0187 -0.19332,0.10054 -0.24518,0.1457 m 6.51298,-0.98531 c -0.0317,-0.29986 -0.15875,-1.2252 -0.1711,-1.46297 -0.005,-0.13017 -0.0208,-0.24236 -0.0769,-0.14182 -0.0593,0.1076 -0.0921,0.24589 -0.0734,0.43533 0.0261,0.32667 0.0568,0.57186 0.0864,0.8061 0.0293,0.23707 0.13441,0.94333 0.12383,1.44357 -0.002,0.11712 0.0423,0.14746 0.0787,0.0635 0.0617,-0.14182 0.0945,-0.54787 0.0325,-1.14371 m -1.51836,1.54975 c -0.0413,-0.0406 -0.0769,-0.0861 -0.11112,-0.13088 l -0.0243,-0.002 -0.22472,0.22613 -0.006,0.0413 c 0.031,0.0441 0.066,0.0854 0.10513,0.12489 0.0427,0.0434 0.0885,0.0804 0.13582,0.11359 l 0.0441,-0.004 0.22507,-0.22542 -0.002,-0.0275 c -0.0511,-0.0335 -0.0984,-0.0716 -0.14182,-0.11642 m 1.04705,-1.09326 c -0.15346,-0.01 -0.8629,-0.0229 -1.27847,-0.25223 0.0413,-0.0353 0.13124,-0.15099 0.0988,-0.44168 -0.0314,-0.29069 -0.14781,-1.12183 -0.14781,-1.12183 -0.009,-0.0868 -0.0448,-0.17004 0.005,-0.21414 0.0494,-0.0448 0.15345,-0.12065 0.0935,-0.2025 -0.06,-0.0822 -0.16298,-0.23777 -0.19297,-0.32596 -0.025,-0.0744 -0.0469,-0.13653 -0.0847,-0.078 -0.0441,0.0674 -0.06,0.15381 -0.11924,0.23142 -0.031,0.0413 -0.0631,0.0614 -0.0282,0.12347 0.0483,0.084 0.0963,0.23777 0.10548,0.34325 0.004,0.055 0.0201,0.17428 0.036,0.28787 0,0 0.2032,1.04987 0.18697,1.22026 0,0 -0.84067,0.0296 -0.95003,0.13582 l -0.16828,0.26176 c -0.0141,0.0289 -0.0127,0.0607 0.0272,0.0543 0.0399,-0.007 0.55633,-0.17216 1.28235,0.11853 -0.0857,0.0296 -1.04387,0.43956 -1.85315,0.34784 -0.12135,-0.003 -0.9719,-0.115 -1.0421,-0.5461 -0.01,-0.0547 -0.024,-0.0744 -0.0529,-0.0194 -0.0257,0.049 -0.26211,0.40111 0.10901,0.6537 -0.11747,0.24835 -0.32702,0.58455 -0.64664,0.71614 -0.10478,0.0392 -0.57185,0.1591 -1.04352,-0.0526 -0.0582,-0.0183 -0.14358,0.0282 -0.0557,0.0882 0.0885,0.0607 0.95074,0.61207 1.5106,0.0318 0.0988,-0.10125 0.2674,-0.37289 0.39511,-0.6978 0.57362,0.31186 1.52717,0.14041 1.52717,0.14041 0.20779,-0.0441 0.4251,-0.10548 0.65017,-0.19227 0.11818,-0.0483 0.92993,-0.41557 1.47955,-0.28716 0.11501,0.0282 0.14147,0.0282 0.14147,0.0282 0,0 0.0988,-0.21096 0.121,-0.26176 0.0222,-0.0512 0.0476,-0.0801 -0.10548,-0.0896 m -4.07359,-1.02209 c 0.0441,0.0441 0.091,0.0829 0.14217,0.11712 l 0.002,0.0275 -0.22472,0.22472 -0.0445,0.003 c -0.0476,-0.0325 -0.0928,-0.0709 -0.13617,-0.11324 -0.0392,-0.0399 -0.0737,-0.0811 -0.10478,-0.12524 l 0.006,-0.0413 0.22507,-0.22613 0.0247,0.002 c 0.0339,0.0448 0.0695,0.0903 0.11042,0.13088"
         style="fill:#231f20;fill-opacity:1;fill-rule:nonzero;stroke:none;stroke-width:0.352778"
         clip-path="url(#clipPath1)"
         id="path31-18" /></g></g></svg>
