<?xml version="1.0" encoding="UTF-8" standalone="no"?>
<!-- Created with Inkscape (http://www.inkscape.org/) -->

<svg
   width="30.456287mm"
   height="6.9146843mm"
   viewBox="0 0 30.456286 6.9146841"
   version="1.1"
   id="svg1"
   xml:space="preserve"
   xmlns="http://www.w3.org/2000/svg"
   xmlns:svg="http://www.w3.org/2000/svg"><defs
     id="defs1" /><g
     id="layer1"
     transform="translate(-346.44872,-66.265494)"><g
       id="g54"
       transform="translate(180.65658,-122.7121)"><path
         d="m 171.92096,191.38823 -0.20461,0.24483 -0.002,0.0416 c 0.0353,0.0413 0.0737,0.0801 0.11606,0.11571 0.0462,0.0381 0.0952,0.072 0.14464,0.10019 l 0.0441,-0.007 0.20426,-0.24412 -0.004,-0.0272 c -0.054,-0.0293 -0.10407,-0.0628 -0.15169,-0.10372 -0.0445,-0.0367 -0.0836,-0.079 -0.12206,-0.12065 z m 0.0871,0.8128 -0.008,0.0141 -0.10195,-0.0744 c -0.0459,-0.0381 -0.0864,-0.0818 -0.12453,-0.12488 l -0.0272,3.5e-4 -0.21166,0.2533 -0.003,0.0441 c 0.037,0.0423 0.0762,0.0829 0.12101,0.11994 0.0469,0.0402 0.0974,0.0751 0.15028,0.10442 l 0.0459,-0.008 0.19967,-0.23777 0.078,0.0727 c 0.048,0.0402 0.0981,0.0748 0.15028,0.10442 l 0.0462,-0.007 0.21096,-0.25329 -0.006,-0.0279 c -0.054,-0.0314 -0.10584,-0.066 -0.15628,-0.10831 -0.0462,-0.0381 -0.0854,-0.0815 -0.12453,-0.12523 h -0.0261 z m -5.10998,-0.82761 -0.025,-0.002 -0.22507,0.22577 -0.006,0.0416 c 0.031,0.0434 0.0663,0.0854 0.10548,0.12453 0.0427,0.043 0.0882,0.0808 0.13582,0.1136 l 0.0441,-0.003 0.22507,-0.22472 -0.002,-0.0282 c -0.0511,-0.0339 -0.0988,-0.072 -0.14216,-0.11606 -0.042,-0.0413 -0.0766,-0.0864 -0.11007,-0.13159 m 0.57714,-0.89147 c 0.061,-0.0328 0.0967,-0.043 0.12594,-0.097 0.0279,-0.0536 0.0349,-0.0628 0.0508,-0.10089 0.0173,-0.0402 0.0363,-0.0854 -0.0751,-0.031 -0.073,0.0356 -1.29257,0.55809 -1.36877,0.59125 -0.0752,0.0328 -0.0988,0.0476 -0.1143,0.10019 -0.0155,0.0526 -0.024,0.0808 -0.0279,0.0921 -0.0145,0.0353 -0.0325,0.072 0.0794,0.0208 0.0332,-0.0159 1.27,-0.54328 1.32997,-0.57538 m 7.13634,3.77931 c -0.0713,0.0353 -1.04986,0.46037 -1.12677,0.49389 -0.0769,0.0332 -0.0998,0.048 -0.11606,0.10054 -0.0166,0.0529 -0.0247,0.0815 -0.0282,0.0917 -0.0141,0.0349 -0.0325,0.0706 0.079,0.0205 0.0353,-0.0152 1.03117,-0.44521 1.0922,-0.47766 0.0607,-0.0328 0.0967,-0.0437 0.12523,-0.097 0.0282,-0.054 0.0356,-0.0635 0.0512,-0.10125 0.0173,-0.0395 0.0367,-0.0864 -0.0766,-0.0307 m 0.42228,-3.27695 c -0.009,-0.0892 -0.0226,-0.10443 0.0282,-0.15029 0.0505,-0.0455 0.16475,-0.13723 0.10407,-0.2226 -0.0614,-0.0836 -0.16792,-0.22931 -0.19826,-0.31926 -0.0258,-0.0769 -0.0483,-0.14006 -0.0868,-0.0797 -0.0448,0.0677 -0.0635,0.10865 -0.12489,0.18838 -0.0325,0.042 -0.0646,0.0621 -0.0289,0.12629 0.049,0.0857 0.11288,0.23178 0.12206,0.33938 0.005,0.0564 0.0187,0.17921 0.0363,0.29492 0.0229,0.15169 0.29704,2.13818 0.26317,2.18017 -0.0328,0.042 -0.25082,0.22648 -0.62618,0.0173 l -0.0353,-0.0222 c 0.27234,-0.19438 0.24835,-0.38171 0.20461,-0.45121 -0.079,-0.12629 -0.79904,-0.5274 -1.20827,0.12136 -0.0448,0.066 -0.0787,0.22225 0.0166,0.1651 0.0811,-0.0487 0.2914,-0.0607 0.51506,0.0801 l 0.0526,0.0346 c -0.53234,0.34501 -1.00541,0.12276 -1.16028,0.0265 0.0131,-0.061 0.0219,-0.11042 0.0233,-0.13688 0.005,-0.10513 -0.0617,-0.11571 -0.091,-0.009 -0.0289,0.10478 -0.0445,0.24165 -0.0963,0.34502 -0.0917,0.18344 -0.3556,0.0402 -0.46567,-0.009 0.0317,-0.0924 0.0579,-0.20073 0.0776,-0.32526 0.012,-0.0716 -0.0321,-0.13159 -0.0804,0.0187 -0.0469,0.1464 -0.21626,0.58067 -0.9652,0.3302 0.0102,-0.0878 0.0631,-0.28399 -0.10019,-0.20003 -0.1778,0.0917 -0.60819,0.25471 -0.85619,0.31715 -0.16263,0.0402 -0.18839,0.0653 -0.16334,0.13688 0.0247,0.0709 0.0681,0.26176 0.15416,0.23424 0.018,-0.006 0.0483,-0.0159 0.0854,-0.0282 -0.073,0.19403 -0.32985,0.79022 -0.79234,0.98072 -0.10866,0.0416 -0.57856,0.17181 -1.07068,-0.0487 -0.0607,-0.0191 -0.15029,0.0296 -0.0582,0.0928 0.0921,0.0624 1.06821,0.58879 1.65206,-0.0176 0.13441,-0.13617 0.32526,-0.5782 0.44979,-1.05198 v -0.0113 c 0.0991,-0.0321 0.18591,-0.0603 0.18591,-0.0603 0.054,-0.0187 0.2667,-0.10936 0.38524,-0.16122 0.36512,0.26988 0.7186,0.3623 0.95038,0.0755 0.28857,0.26635 0.49883,0.20885 0.58843,0.0723 0.037,-0.0568 0.0783,-0.16439 0.1143,-0.27799 0.45897,0.45191 1.24707,0.0166 1.42487,-0.10901 0.0607,0.0649 0.11783,0.13089 0.1337,0.16334 0.0296,0.0593 0.19685,0.22437 0.52212,0.16757 0.10971,-0.0187 0.38946,-0.14817 0.37218,-0.63959 -0.01,-0.66816 -0.22049,-1.93816 -0.22049,-1.93816 -0.0159,-0.10407 -0.0332,-0.23847 -0.0332,-0.23847 m -7.06155,1.633 c -0.0448,-0.20743 -0.27023,-0.59407 -0.27023,-0.59407 -0.0367,-0.0646 -0.0695,-0.1069 -0.0854,-0.0688 -0.0159,0.0374 -0.0695,0.33408 -0.0695,0.33408 0.0797,0.11535 0.38982,0.73836 0.3616,0.84702 -0.0289,0.10865 -0.28187,0.65581 -1.08127,0.61383 -0.0832,-0.004 -0.89499,-0.12206 -0.49177,-1.07703 0.0145,-0.0335 -0.0215,-0.10231 -0.073,-0.024 -0.0674,0.10195 -0.46708,1.21955 0.37676,1.42698 0.14358,0.0349 0.78282,0.0963 1.24637,-0.45684 0.0554,-0.0663 0.2159,-0.39899 0.0864,-1.00119 m 1.27599,0.3429 c -0.0649,-0.12029 -0.15839,-0.21237 -0.22048,-0.26634 -0.12065,-0.10266 -0.22754,0.0469 -0.2473,0.11077 -0.0677,0.20955 0.28928,0.17357 0.36654,0.16827 0.0328,-0.003 0.0667,-0.008 0.10124,-0.0127 m -0.48048,1.44569 c -0.55598,0.23071 -1.26012,0.0801 -1.33174,0.0642 -0.14322,-0.0328 -0.0818,-0.12665 0.0392,-0.10831 1.27882,0.1704 1.7773,-0.7687 1.8535,-1.0107 l 0.0113,-0.0621 c -0.22684,0.0459 -0.45685,0.0483 -0.53975,0.0229 -0.32915,-0.10266 -0.2667,-0.59761 0.003,-0.92146 0.2734,-0.32844 0.53622,0.19791 0.57891,0.30515 0.28998,0.73343 -0.13229,1.24319 -0.1778,1.30528 -0.127,0.1718 -0.26106,0.33302 -0.43639,0.40499 m 7.11835,-2.47368 c 0.0381,0.27834 0.16969,1.10278 0.17851,1.69051 0.002,0.13864 0.0483,0.17251 0.0808,0.0734 0.0557,-0.17039 0.0737,-0.64876 -0.0116,-1.34549 -0.0423,-0.35172 -0.20426,-1.4351 -0.22542,-1.71415 -0.01,-0.1524 -0.0303,-0.28328 -0.0822,-0.16298 -0.0554,0.1277 -0.0825,0.29104 -0.0571,0.51435 0.0377,0.38241 0.0787,0.66886 0.11712,0.94438 m -5.31812,-0.54327 c 0.01,-0.0353 0.03,-0.22578 -0.0603,-0.34079 -0.055,-0.0603 -0.11606,-0.0642 -0.20002,0.0656 -0.0258,0.0395 -0.0261,0.0801 0.03,0.11501 0.0565,0.0346 0.23037,0.16016 0.23037,0.16016 m -0.80751,0.91899 c -0.091,0.043 -0.16863,-0.008 0.0395,-0.15628 0.31962,-0.22755 0.56444,-0.38277 0.66604,-0.55704 0,0 -0.19438,-0.12559 -0.28292,-0.21378 -0.0885,-0.0893 0.024,-0.3355 0.11147,-0.4318 0.22366,-0.25153 0.3302,-0.0857 0.35701,-0.0402 0.10866,0.2099 0.043,0.47307 0.0117,0.54786 0,0 0.0868,0.0653 0.11183,0.0914 0.0346,0.037 0.019,0.11183 -0.0265,0.24483 -0.0162,0.0469 -0.0674,-0.0804 -0.18733,-0.13688 -0.0942,0.19861 -0.19755,0.36618 -0.8008,0.65193 m 2.50931,-1.50036 c 0.0123,-0.004 0.0272,-0.002 0.0423,-0.0162 0.0494,-0.0466 0.0907,-0.16898 0.0956,-0.21061 -0.006,-0.0321 -0.12065,-0.0434 -0.15381,-0.0515 -0.11359,-0.0272 -0.2219,-0.0871 -0.34008,-0.0946 -0.18203,-0.012 -0.35136,0.0702 -0.4452,0.26247 -0.0106,0.0247 -0.0254,0.0586 -0.0356,0.0833 -0.0113,0.042 0.0102,0.0706 0.0324,0.0378 0.0251,-0.0378 0.0561,-0.0744 0.0956,-0.0984 0.0931,-0.0564 0.19261,-0.0783 0.29386,-0.0684 0.0917,0.009 0.26423,0.0734 0.26423,0.0825 -0.001,0.0198 -0.40146,0.21766 -0.46426,0.25752 -0.0272,0.0169 -0.0607,0.048 -0.0547,0.0797 0.005,0.024 0.0434,0.0293 0.0759,0.0173 0.15734,-0.0568 0.21378,-0.0529 0.34078,-0.10724 0.17181,-0.0737 0.22261,-0.16475 0.25295,-0.17357 m 5.75874,0.48931 c -0.0162,0.037 -0.0236,0.0469 -0.0529,0.0998 -0.0296,0.0526 -0.0649,0.0635 -0.127,0.0956 -0.0617,0.0307 -1.06256,0.44379 -1.09749,0.45896 -0.11324,0.0483 -0.0942,0.0131 -0.0794,-0.0233 0.004,-0.0102 0.0123,-0.0381 0.0296,-0.09 0.0166,-0.0529 0.0402,-0.0674 0.11783,-0.0988 0.0769,-0.0325 1.06115,-0.43991 1.13488,-0.47413 0.11254,-0.0533 0.0924,-0.007 0.0744,0.0318 m -0.39723,1.94592 c -0.0762,0.006 -0.43321,0.0413 -0.36583,-0.16792 0.0194,-0.0639 0.1263,-0.21379 0.24624,-0.11113 0.0624,0.055 0.15699,0.14676 0.2219,0.2667 z m -0.3429,-0.58138 c -0.27023,0.32315 -0.33302,0.81845 -0.004,0.9204 0.0825,0.0261 0.31292,0.0229 0.54011,-0.0226 l -0.0109,0.0624 c -0.0773,0.24236 -0.57538,1.17969 -1.85349,1.01106 -0.12136,-0.019 -0.1838,0.0744 -0.0399,0.1076 0.0723,0.0162 0.77576,0.1658 1.33174,-0.0642 0.17498,-0.0716 0.31009,-0.23354 0.43709,-0.40499 0.0452,-0.0617 0.46708,-0.57221 0.17709,-1.30598 -0.0423,-0.10584 -0.3048,-0.63324 -0.5782,-0.30375 m 3.18241,-1.71132 c -0.0529,-0.0328 -0.0526,-0.072 -0.0282,-0.10936 0.0801,-0.12312 0.13793,-0.11959 0.1905,-0.0624 0.0854,0.10971 0.0663,0.29033 0.0568,0.3235 0,0 -0.1651,-0.11854 -0.21908,-0.1517 m 0.21273,0.40605 c 0.11394,0.0536 0.16263,0.17427 0.17815,0.12982 0.043,-0.12629 0.0579,-0.19756 0.025,-0.23248 -0.0236,-0.0247 -0.10654,-0.0864 -0.10654,-0.0864 0.0303,-0.0713 0.0924,-0.32138 -0.0106,-0.52105 -0.025,-0.043 -0.12664,-0.20109 -0.33937,0.0384 -0.0833,0.0914 -0.18979,0.3249 -0.10583,0.40992 0.0843,0.084 0.26881,0.2032 0.26881,0.2032 -0.0967,0.16546 -0.32949,0.31292 -0.63288,0.52882 -0.19755,0.14181 -0.12382,0.18979 -0.0374,0.14958 0.57326,-0.27164 0.67133,-0.43145 0.76059,-0.61983 m 1.12077,0.73377 c 0.0406,0.1076 0.12806,0.50377 -0.0152,0.85796 -0.0967,0.1584 -0.1337,0.21555 -0.27728,0.19897 -0.12312,-0.0152 -0.30374,-0.0656 -0.39688,-0.13865 -0.19544,0.23707 -0.47237,0.28822 -0.57644,0.29986 0.1143,0.58279 -0.0462,0.90664 -0.10265,0.97155 -0.48931,0.56551 -1.16311,0.50342 -1.3134,0.46673 -0.88864,-0.21343 -0.46566,-1.35749 -0.39546,-1.46191 0.055,-0.0815 0.0924,-0.0109 0.0773,0.0236 -0.4251,0.97825 0.42933,1.10067 0.51752,1.10455 0.84103,0.0441 1.10737,-0.51541 1.13806,-0.62689 0.0303,-0.11183 -0.29562,-0.75036 -0.37958,-0.86819 0,0 0.0572,-0.30303 0.0737,-0.34254 0.0173,-0.0392 0.0522,0.005 0.0903,0.0716 0,0 0.0716,0.11924 0.14322,0.26211 0.63994,0.11395 0.7994,-0.32949 0.83362,-0.48119 0.0353,-0.15381 0.10477,-0.0751 0.10054,-0.002 -0.007,0.10478 -0.0226,0.19685 -0.0473,0.27728 0.13088,0.043 0.44344,0.0833 0.43674,0.0459 -0.008,-0.0413 -0.0635,-0.36512 -0.0427,-0.44697 0.0205,-0.0815 0.0462,-0.20037 0.0667,-0.24976 0.0208,-0.048 0.0282,-0.0699 0.0691,0.0381 m 5.75733,0.95497 c 0.0811,0.39405 0.006,0.70555 -0.0476,0.82761 -0.0529,0.12101 -0.33197,0.0466 -0.4445,0.005 -0.16193,-0.06 -0.26635,-0.12029 -0.3168,-0.15169 -0.0399,0.11959 -0.0875,0.24165 -0.13582,0.33232 -0.0494,0.0758 -0.0716,0.085 -0.14816,0.0737 -0.0776,-0.0109 -0.40429,-0.12348 -0.42298,-0.2279 l -7.1e-4,-0.008 c -0.19967,0.17392 -0.55315,0.30233 -1.18145,0.21167 -0.1718,0.0663 -0.32385,0.0769 -0.36266,0.0783 0,0 -0.56903,0.0988 -0.67169,-0.57538 -0.0318,-0.14111 -0.115,-0.76412 -0.14675,-0.97826 -0.0317,-0.21413 -0.22401,-1.55257 -0.25294,-1.71908 l 0.0801,-0.27834 c 0.01,-0.0222 0.019,-0.067 0.0543,0.0152 0.0356,0.0836 0.37394,2.44298 0.39299,2.62184 0.0674,0.59443 0.54681,0.58596 0.62689,0.58138 0.5655,-0.01 0.74471,-0.42157 0.77717,-0.4953 0.0317,-0.0734 0.0825,-0.0547 0.073,0.019 -0.025,0.20778 -0.10125,0.35983 -0.20002,0.47554 0.20778,0.018 0.83502,-0.01 1.01847,-0.50094 0.0123,-0.0448 0.0896,-0.0766 0.0635,0.0384 -0.008,0.0388 -0.0258,0.16192 -0.10055,0.29633 0.10337,0.0452 0.38418,0.16616 0.42157,0.049 0.0406,-0.12559 0.13759,-0.39934 0.15487,-0.44344 0.0169,-0.0448 0.096,-0.0684 0.0822,0.009 -0.006,0.03 -0.0261,0.11536 -0.0572,0.22154 0.073,0.0145 0.43109,0.0815 0.55245,0.0512 0.0953,-0.024 0.0759,-0.11994 0.0607,-0.20743 -0.0145,-0.0875 -0.30657,-1.77341 -0.33549,-1.91311 -0.0243,-0.11607 -0.0229,-0.21202 -0.0317,-0.26776 -0.008,-0.0536 -0.0448,-0.10619 -0.0854,-0.18627 -0.0409,-0.0794 -0.008,-0.16651 0.01,-0.19297 0.0173,-0.0265 0.0861,-0.0953 0.13582,-0.20284 0.024,-0.0515 0.0543,0.008 0.0674,0.0621 0.0116,0.0494 0.11253,0.2159 0.15663,0.27199 0.0296,0.0381 0.0515,0.10618 0.0392,0.13405 -0.024,0.0529 -0.0952,0.15522 -0.11042,0.17463 -0.0116,0.0169 -0.0212,0.0452 -0.0152,0.1083 0,0 0.25647,1.47426 0.30127,1.69086 m -3.07728,-1.58362 c 0.004,-0.0116 0.0116,-0.0392 0.0275,-0.0921 0.0159,-0.0529 0.0388,-0.0681 0.11465,-0.10195 0.0769,-0.0335 1.76707,-0.79022 1.83939,-0.82726 0.11112,-0.0554 0.0924,-0.01 0.0758,0.03 -0.0159,0.0381 -0.0226,0.0483 -0.0501,0.1016 -0.0275,0.0536 -0.0635,0.0653 -0.12488,0.0984 -0.06,0.0332 -1.76777,0.79481 -1.80235,0.81068 -0.11183,0.0526 -0.0938,0.0169 -0.0801,-0.0194 m -0.99271,2.90724 c -0.0201,0.0353 -0.0275,0.0441 -0.0614,0.0942 -0.0339,0.0504 -0.0709,0.0575 -0.13476,0.0843 -0.0635,0.0268 -1.00541,0.33232 -1.0421,0.34431 -0.11642,0.0392 -0.0945,0.005 -0.0773,-0.0296 0.006,-0.01 0.0159,-0.0363 0.0381,-0.0875 0.0212,-0.0515 0.0462,-0.0631 0.12523,-0.0882 0.0794,-0.0254 1.00401,-0.32773 1.07986,-0.35595 0.11712,-0.0437 0.0928,3.5e-4 0.0723,0.0384 m 4.84328,-1.81081 c 0.0836,0.59408 0.0649,1.00013 0.008,1.14547 -0.0339,0.0836 -0.079,0.055 -0.0808,-0.0621 -0.007,-0.50059 -0.13582,-1.20191 -0.17356,-1.43721 -0.0385,-0.2339 -0.0776,-0.47731 -0.11501,-0.80257 -0.0254,-0.1898 0.003,-0.32914 0.0593,-0.43745 0.0508,-0.10407 0.0709,0.008 0.0811,0.13794 0.0201,0.23671 0.17885,1.15817 0.22048,1.45591 m -6.13868,1.49684 c -0.0875,-0.0187 -0.0875,-0.2533 -0.0847,-0.32068 0.003,-0.0674 0.0557,-0.0363 0.10866,-0.0219 0.12841,0.0384 0.67839,-0.10336 0.89852,-0.1524 0.0607,-0.0145 0.0533,-0.073 0.0388,-0.11571 -0.24413,-0.53904 -0.57009,-0.65475 -0.65476,-0.6865 l 0.0123,-0.2921 0.0483,-0.0392 c 0.35701,0.0808 0.57538,0.48577 0.61877,0.58984 0.15628,0.33549 0.079,0.73237 0.06,0.7874 -0.0194,0.0561 -0.06,0.0755 -0.10618,0.09 -0.0462,0.0145 -0.65723,0.20214 -0.9398,0.16122 m 3.93735,-2.12478 c 0.0208,0.0504 0.0374,0.10971 0.0349,0.14358 -0.0804,0.0783 -0.16721,0.0907 -0.22965,0.0384 -0.0399,-0.0328 -0.055,-0.0952 -0.0512,-0.17709 0.003,-0.0586 0.01,-0.0804 -0.042,-0.0392 -0.0677,0.0547 -0.049,0.0504 -0.0529,0.0808 -0.0236,0.19191 -0.10619,0.27869 -0.25436,0.28821 -0.0938,0.007 -0.16263,-0.0582 -0.0974,-0.24271 0.0138,-0.0399 -0.0141,-0.0818 -0.0547,0 -0.1397,0.27764 -0.0547,0.43216 0.0875,0.45403 0.11607,0.0169 0.25365,-0.0494 0.32421,-0.22507 0.0536,0.0893 0.16263,0.115 0.2607,0.0893 0.12665,-0.0328 0.15452,-0.0914 0.18909,-0.19333 0.036,-0.0988 0.0374,-0.22895 -0.0109,-0.38523 -0.007,-0.0261 -0.0215,-0.012 -0.0282,3.5e-4 l -0.0667,0.12841 c -0.008,0.0138 -0.0141,0.0236 -0.008,0.0395 m 6.83013,-0.64805 c -0.0561,-0.0349 -0.0554,-0.0759 -0.03,-0.11465 0.0843,-0.13018 0.14535,-0.12665 0.20073,-0.066 0.09,0.11465 0.0695,0.30515 0.06,0.34043 0,0 -0.17392,-0.12524 -0.23072,-0.15981 m 0.22366,0.42722 c 0.1203,0.0561 0.17145,0.18344 0.18733,0.13687 0.0455,-0.13335 0.061,-0.20778 0.0268,-0.24482 -0.0254,-0.0265 -0.11219,-0.0917 -0.11219,-0.0917 0.0318,-0.0748 0.0974,-0.33797 -0.0113,-0.54752 -0.0264,-0.0455 -0.13335,-0.21201 -0.35736,0.0399 -0.0875,0.0963 -0.19967,0.34255 -0.11112,0.4318 0.0885,0.0885 0.28292,0.21379 0.28292,0.21379 -0.1016,0.17462 -0.34678,0.32949 -0.66604,0.55703 -0.20849,0.14852 -0.13018,0.19968 -0.0395,0.15628 0.60325,-0.28539 0.70661,-0.45331 0.80045,-0.65158 m -3.45969,-0.4325 c -0.0565,-0.0353 -0.0557,-0.0762 -0.03,-0.11536 0.084,-0.12982 0.14499,-0.12559 0.20038,-0.0656 0.09,0.11501 0.0695,0.30551 0.06,0.34043 0,0 -0.17392,-0.12524 -0.23036,-0.15945 m 0.22331,0.42721 c 0.12029,0.0557 0.17145,0.1838 0.18768,0.13652 0.0455,-0.13335 0.0607,-0.20813 0.0264,-0.24482 -0.025,-0.0265 -0.11218,-0.0914 -0.11218,-0.0914 0.0318,-0.0748 0.0974,-0.33797 -0.0113,-0.54822 -0.0265,-0.0452 -0.13335,-0.21167 -0.35701,0.0402 -0.0878,0.0967 -0.20002,0.34255 -0.11148,0.4318 0.0885,0.0885 0.28293,0.21378 0.28293,0.21378 -0.1016,0.17463 -0.34678,0.3295 -0.66569,0.55704 -0.20849,0.14852 -0.13053,0.19967 -0.0399,0.15663 0.60325,-0.28575 0.70662,-0.45296 0.80046,-0.65158 m 1.61184,-0.46919 c 0.0123,-0.004 0.0272,-0.002 0.0423,-0.0159 0.0494,-0.0466 0.0907,-0.16863 0.0952,-0.21061 -0.005,-0.0317 -0.12029,-0.0437 -0.15346,-0.0515 -0.11359,-0.0272 -0.22189,-0.0871 -0.34007,-0.0949 -0.18239,-0.0113 -0.35137,0.0709 -0.44556,0.26247 -0.0102,0.0251 -0.0254,0.0586 -0.0353,0.0836 -0.0116,0.042 0.0102,0.0706 0.0321,0.0377 0.0254,-0.0377 0.0568,-0.0748 0.096,-0.0984 0.0935,-0.0564 0.19262,-0.0783 0.29386,-0.0681 0.0917,0.008 0.26423,0.0734 0.26388,0.0818 -0.001,0.0201 -0.40146,0.21836 -0.4639,0.25752 -0.0275,0.0169 -0.0607,0.0483 -0.055,0.0801 0.005,0.024 0.0434,0.0293 0.0755,0.0173 0.15769,-0.0568 0.21449,-0.0529 0.34149,-0.10689 0.17145,-0.0737 0.2226,-0.16545 0.25294,-0.17427 m -2.08421,2.40277 c -0.0243,0.0512 -0.0557,0.13899 -0.0741,0.1905 -0.006,0.0176 0.008,0.0399 0.0303,0.0268 0.127,-0.0776 0.31715,-0.17357 0.51859,-0.24518 0.18344,-0.0649 0.32737,-0.10689 0.46037,-0.11465 0.0205,-0.003 0.12912,-0.19403 0.1457,-0.2219 0.0226,-0.0356 0.006,-0.0473 -0.0222,-0.042 -0.15451,0.03 -0.27446,0.0571 -0.46108,0.0402 -0.23071,-0.0205 -0.41098,-0.19685 -0.40499,-0.266 0.005,-0.0526 0.16899,-0.15769 0.23002,-0.14781 0.17674,0.0275 0.17356,0.18309 0.22119,0.1845 0.0568,0.002 0.17251,-0.20179 0.17956,-0.25717 0.007,-0.0607 -0.11359,-0.20497 -0.22895,-0.21202 -0.1898,-0.0113 -0.51153,0.31044 -0.63818,0.50835 -0.0455,0.073 -0.0413,0.1845 0.0247,0.2413 0.0586,0.0504 0.15487,0.10266 0.26423,0.16898 -0.0536,0.0187 -0.19332,0.1009 -0.24518,0.14605 m 6.51263,-0.98531 c -0.0314,-0.30021 -0.1584,-1.22555 -0.17039,-1.46297 -0.005,-0.13052 -0.0212,-0.24235 -0.0773,-0.14216 -0.0593,0.10759 -0.0921,0.24588 -0.0734,0.43568 0.0261,0.32632 0.0565,0.5715 0.0861,0.80574 0.0293,0.23707 0.13476,0.94368 0.12418,1.44392 -0.002,0.11712 0.0423,0.14746 0.0787,0.0631 0.0614,-0.14182 0.0945,-0.54751 0.0321,-1.14335 m -1.518,1.54975 c -0.0413,-0.0409 -0.0769,-0.0864 -0.11113,-0.13088 l -0.0243,-0.002 -0.22472,0.22613 -0.006,0.0413 c 0.031,0.0441 0.0663,0.0854 0.10513,0.12488 0.0427,0.0437 0.0882,0.0808 0.13582,0.1136 l 0.0441,-0.004 0.22507,-0.22543 -0.002,-0.0275 c -0.0511,-0.0335 -0.0984,-0.0713 -0.14181,-0.11606 m 1.04704,-1.09361 c -0.15346,-0.01 -0.86289,-0.0226 -1.27882,-0.25224 0.0416,-0.0349 0.13159,-0.15099 0.0991,-0.44168 -0.0314,-0.29069 -0.14781,-1.12148 -0.14781,-1.12148 -0.01,-0.0871 -0.0448,-0.17039 0.005,-0.21449 0.0498,-0.0448 0.15381,-0.12065 0.0938,-0.20249 -0.06,-0.0822 -0.16298,-0.23742 -0.19297,-0.32561 -0.025,-0.0748 -0.0473,-0.13688 -0.0847,-0.0783 -0.0441,0.0674 -0.0596,0.15381 -0.11924,0.23177 -0.031,0.0409 -0.0635,0.061 -0.0279,0.12312 0.048,0.084 0.0956,0.23812 0.10513,0.34325 0.004,0.055 0.0201,0.17427 0.0356,0.28787 0,0 0.20355,1.04987 0.18732,1.22026 0,0 -0.84067,0.0296 -0.95003,0.13617 l -0.16827,0.26141 c -0.0141,0.0289 -0.0127,0.061 0.0272,0.0543 0.0399,-0.007 0.55668,-0.17216 1.28235,0.11853 -0.0857,0.0296 -1.04387,0.43992 -1.85314,0.34784 -0.12136,-0.003 -0.97191,-0.11465 -1.04211,-0.5461 -0.01,-0.0547 -0.024,-0.0744 -0.0529,-0.0194 -0.0257,0.049 -0.26176,0.40111 0.10901,0.6537 -0.11747,0.24835 -0.32702,0.5849 -0.64664,0.71649 -0.10478,0.0388 -0.57185,0.15875 -1.04352,-0.0529 -0.0582,-0.0183 -0.14358,0.0282 -0.0557,0.0882 0.0885,0.061 0.95074,0.61207 1.5106,0.0318 0.0984,-0.10125 0.2674,-0.37289 0.39511,-0.69779 0.57362,0.31185 1.52753,0.1404 1.52753,0.1404 0.20743,-0.0441 0.42439,-0.10513 0.64981,-0.19226 0.11818,-0.0483 0.92993,-0.41557 1.47955,-0.28681 0.11501,0.0282 0.14147,0.0282 0.14147,0.0282 0,0 0.0988,-0.21131 0.121,-0.26211 0.0222,-0.0511 0.048,-0.0801 -0.10548,-0.0896 m -4.07388,-1.02165 c 0.0441,0.0441 0.0907,0.0825 0.14217,0.11712 l 0.002,0.0272 -0.22507,0.22472 -0.0445,0.004 c -0.0473,-0.0325 -0.0928,-0.0709 -0.13582,-0.11324 -0.0388,-0.0395 -0.0741,-0.0811 -0.10478,-0.12523 l 0.006,-0.0413 0.22472,-0.22578 0.0247,0.002 c 0.0339,0.0448 0.0692,0.0903 0.11042,0.13123"
         style="fill:#231f20;fill-opacity:1;fill-rule:nonzero;stroke:none;stroke-width:0.352778"
         clip-path="url(#clipPath1)"
         id="path37-4" /></g></g></svg>
