<?xml version="1.0" encoding="UTF-8" standalone="no"?>
<!-- Created with Inkscape (http://www.inkscape.org/) -->

<svg
   version="1.1"
   id="svg1"
   width="113.27121"
   height="19.253887"
   viewBox="0 0 113.27121 19.253887"
   xmlns="http://www.w3.org/2000/svg"
   xmlns:svg="http://www.w3.org/2000/svg">
  <defs
     id="defs1">
    <clipPath
       clipPathUnits="userSpaceOnUse"
       id="clipPath36">
      <path
         d="m 270.794,516.662 h 84.954 v -14.441 h -84.954 z"
         transform="translate(-287.42191,-513.26071)"
         id="path36" />
    </clipPath>
    <clipPath
       clipPathUnits="userSpaceOnUse"
       id="clipPath38">
      <path
         d="M 0,547.086 H 382.677 V 0 H 0 Z"
         transform="matrix(1.3333333,0,0,-1.3333333,0,729.448)"
         id="path38" />
    </clipPath>
  </defs>
  <g
     id="layer-MC1"
     transform="translate(-361.05914,-40.565536)">
    <g
       id="g37"
       clip-path="url(#clipPath38)">
      <path
         d="m 0,0 -0.58,-0.694 -0.007,-0.118 c 0.1,-0.117 0.209,-0.227 0.329,-0.328 0.131,-0.108 0.27,-0.204 0.41,-0.284 l 0.125,0.019 0.579,0.692 -0.012,0.077 C 0.691,-0.553 0.549,-0.458 0.414,-0.342 0.288,-0.238 0.177,-0.118 0.068,0 Z m 0.247,-2.304 -0.023,-0.04 -0.289,0.211 c -0.13,0.108 -0.245,0.232 -0.353,0.354 l -0.077,-0.001 -0.6,-0.718 -0.008,-0.125 c 0.105,-0.12 0.216,-0.235 0.343,-0.34 0.133,-0.114 0.276,-0.213 0.426,-0.296 l 0.13,0.024 0.566,0.674 0.221,-0.206 c 0.136,-0.114 0.278,-0.212 0.426,-0.296 l 0.131,0.02 0.598,0.718 -0.018,0.079 c -0.153,0.089 -0.3,0.187 -0.443,0.307 -0.131,0.108 -0.242,0.231 -0.353,0.355 H 0.85 Z m -14.485,2.346 -0.071,0.005 -0.638,-0.64 -0.018,-0.118 c 0.088,-0.123 0.188,-0.242 0.299,-0.353 0.121,-0.122 0.25,-0.229 0.385,-0.322 l 0.125,0.009 0.638,0.637 -0.005,0.08 c -0.145,0.096 -0.28,0.204 -0.403,0.329 -0.119,0.117 -0.217,0.245 -0.312,0.373 m 1.636,2.527 c 0.173,0.093 0.274,0.122 0.357,0.275 0.079,0.152 0.099,0.178 0.144,0.286 0.049,0.114 0.103,0.242 -0.213,0.088 -0.207,-0.101 -3.664,-1.582 -3.88,-1.676 -0.213,-0.093 -0.28,-0.135 -0.324,-0.284 -0.044,-0.149 -0.068,-0.229 -0.079,-0.261 -0.041,-0.1 -0.092,-0.204 0.225,-0.059 0.094,0.045 3.6,1.54 3.77,1.631 M 7.627,-8.144 C 7.425,-8.244 4.651,-9.449 4.433,-9.544 4.215,-9.638 4.15,-9.68 4.104,-9.829 c -0.047,-0.15 -0.07,-0.231 -0.08,-0.26 -0.04,-0.099 -0.092,-0.2 0.224,-0.058 0.1,0.043 2.923,1.262 3.096,1.354 0.172,0.093 0.274,0.124 0.355,0.275 0.08,0.153 0.101,0.18 0.145,0.287 0.049,0.112 0.104,0.245 -0.217,0.087 M 8.824,1.145 C 8.799,1.398 8.76,1.441 8.904,1.571 9.047,1.7 9.371,1.96 9.199,2.202 9.025,2.439 8.723,2.852 8.637,3.107 8.564,3.325 8.5,3.504 8.391,3.333 8.264,3.141 8.211,3.025 8.037,2.799 7.945,2.68 7.854,2.623 7.955,2.441 8.094,2.198 8.275,1.784 8.301,1.479 8.314,1.319 8.354,0.971 8.404,0.643 8.469,0.213 9.246,-5.418 9.15,-5.537 9.057,-5.656 8.439,-6.179 7.375,-5.586 l -0.1,0.063 c 0.772,0.551 0.704,1.082 0.58,1.279 -0.224,0.358 -2.265,1.495 -3.425,-0.344 -0.127,-0.187 -0.223,-0.63 0.047,-0.468 0.23,0.138 0.826,0.172 1.46,-0.227 L 6.086,-5.381 C 4.577,-6.359 3.236,-5.729 2.797,-5.456 2.834,-5.283 2.859,-5.143 2.863,-5.068 2.877,-4.77 2.688,-4.74 2.605,-5.042 2.523,-5.339 2.479,-5.727 2.332,-6.02 c -0.26,-0.52 -1.008,-0.114 -1.32,0.026 0.09,0.262 0.164,0.569 0.22,0.922 0.034,0.203 -0.091,0.373 -0.228,-0.053 -0.133,-0.415 -0.613,-1.646 -2.736,-0.936 0.029,0.249 0.179,0.805 -0.284,0.567 -0.504,-0.26 -1.724,-0.722 -2.427,-0.899 -0.461,-0.114 -0.534,-0.185 -0.463,-0.388 0.07,-0.201 0.193,-0.742 0.437,-0.664 0.051,0.018 0.137,0.045 0.242,0.08 -0.207,-0.55 -0.935,-2.24 -2.246,-2.78 -0.308,-0.118 -1.64,-0.487 -3.035,0.138 -0.172,0.054 -0.426,-0.084 -0.165,-0.263 0.261,-0.177 3.028,-1.669 4.683,0.05 0.381,0.386 0.922,1.639 1.275,2.982 v 0.032 c 0.281,0.091 0.527,0.171 0.527,0.171 0.153,0.053 0.756,0.31 1.092,0.457 1.035,-0.765 2.037,-1.027 2.694,-0.214 0.818,-0.755 1.414,-0.592 1.668,-0.205 0.105,0.161 0.222,0.466 0.324,0.788 1.301,-1.281 3.535,-0.047 4.039,0.309 0.172,-0.184 0.334,-0.371 0.379,-0.463 0.084,-0.168 0.558,-0.636 1.48,-0.475 0.311,0.053 1.104,0.42 1.055,1.813 C 9.516,-3.131 8.918,0.469 8.918,0.469 8.873,0.764 8.824,1.145 8.824,1.145 m -20.017,-4.629 c -0.127,0.588 -0.766,1.684 -0.766,1.684 -0.104,0.183 -0.197,0.303 -0.242,0.195 -0.045,-0.106 -0.197,-0.947 -0.197,-0.947 0.226,-0.327 1.105,-2.093 1.025,-2.401 -0.082,-0.308 -0.799,-1.859 -3.065,-1.74 -0.236,0.012 -2.537,0.346 -1.394,3.053 0.041,0.095 -0.061,0.29 -0.207,0.068 -0.191,-0.289 -1.324,-3.457 1.068,-4.045 0.407,-0.099 2.219,-0.273 3.533,1.295 0.157,0.188 0.612,1.131 0.245,2.838 m 3.617,-0.972 c -0.184,0.341 -0.449,0.602 -0.625,0.755 -0.342,0.291 -0.645,-0.133 -0.701,-0.314 -0.192,-0.594 0.82,-0.492 1.039,-0.477 0.093,0.008 0.189,0.022 0.287,0.036 m -1.362,-4.098 c -1.576,-0.654 -3.572,-0.227 -3.775,-0.182 -0.406,0.093 -0.232,0.359 0.111,0.307 3.625,-0.483 5.038,2.179 5.254,2.865 l 0.032,0.176 c -0.643,-0.13 -1.295,-0.137 -1.53,-0.065 -0.933,0.291 -0.756,1.694 0.008,2.612 0.775,0.931 1.52,-0.561 1.641,-0.865 0.822,-2.079 -0.375,-3.524 -0.504,-3.7 -0.36,-0.487 -0.74,-0.944 -1.237,-1.148 m 20.178,7.012 c 0.108,-0.789 0.481,-3.126 0.506,-4.792 0.006,-0.393 0.137,-0.489 0.229,-0.208 0.158,0.483 0.209,1.839 -0.033,3.814 -0.12,0.997 -0.579,4.068 -0.639,4.859 C 11.275,2.563 11.217,2.934 11.07,2.593 10.913,2.231 10.836,1.768 10.908,1.135 11.015,0.051 11.131,-0.761 11.24,-1.542 m -15.075,1.54 c 0.027,0.1 0.085,0.64 -0.171,0.966 -0.156,0.171 -0.329,0.182 -0.567,-0.186 -0.073,-0.112 -0.074,-0.227 0.085,-0.326 0.16,-0.098 0.653,-0.454 0.653,-0.454 m -2.289,-2.605 c -0.258,-0.122 -0.478,0.022 0.112,0.443 0.906,0.645 1.6,1.085 1.888,1.579 0,0 -0.551,0.356 -0.802,0.606 -0.251,0.253 0.068,0.951 0.316,1.224 0.634,0.713 0.936,0.243 1.012,0.114 0.308,-0.595 0.122,-1.341 0.033,-1.553 0,0 0.246,-0.185 0.317,-0.259 0.098,-0.105 0.054,-0.317 -0.075,-0.694 -0.046,-0.133 -0.191,0.228 -0.531,0.388 -0.267,-0.563 -0.56,-1.038 -2.27,-1.848 M 0.989,1.646 C 1.024,1.657 1.066,1.653 1.109,1.692 1.249,1.824 1.366,2.171 1.38,2.289 1.364,2.38 1.038,2.412 0.944,2.435 0.622,2.512 0.315,2.682 -0.02,2.703 -0.536,2.737 -1.016,2.504 -1.282,1.959 -1.312,1.889 -1.354,1.793 -1.383,1.723 c -0.032,-0.119 0.029,-0.2 0.092,-0.107 0.071,0.107 0.159,0.211 0.271,0.279 0.264,0.16 0.546,0.222 0.833,0.194 C 0.073,2.063 0.562,1.881 0.562,1.855 0.558,1.799 -0.576,1.238 -0.754,1.125 -0.831,1.077 -0.926,0.989 -0.909,0.899 -0.896,0.831 -0.786,0.816 -0.694,0.85 -0.248,1.011 -0.088,1 0.272,1.154 0.759,1.363 0.903,1.621 0.989,1.646 M 17.313,0.259 c -0.046,-0.105 -0.067,-0.133 -0.15,-0.283 -0.084,-0.149 -0.184,-0.18 -0.36,-0.271 -0.175,-0.087 -3.012,-1.258 -3.111,-1.301 -0.321,-0.137 -0.267,-0.037 -0.225,0.066 0.011,0.029 0.035,0.108 0.084,0.255 0.047,0.15 0.114,0.191 0.334,0.28 0.218,0.092 3.008,1.247 3.217,1.344 0.319,0.151 0.262,0.021 0.211,-0.09 m -1.126,-5.516 c -0.216,-0.016 -1.228,-0.117 -1.037,0.476 0.055,0.181 0.358,0.606 0.698,0.315 0.177,-0.156 0.445,-0.416 0.629,-0.756 z m -0.972,1.648 c -0.766,-0.916 -0.944,-2.32 -0.01,-2.609 0.234,-0.074 0.887,-0.065 1.531,0.064 l -0.031,-0.177 c -0.219,-0.687 -1.631,-3.344 -5.254,-2.866 -0.344,0.054 -0.521,-0.211 -0.113,-0.305 0.205,-0.046 2.199,-0.47 3.775,0.182 0.496,0.203 0.879,0.662 1.239,1.148 0.128,0.175 1.324,1.622 0.502,3.702 -0.12,0.3 -0.864,1.795 -1.639,0.861 m 9.021,4.851 c -0.15,0.093 -0.149,0.204 -0.08,0.31 0.227,0.349 0.391,0.339 0.54,0.177 0.242,-0.311 0.188,-0.823 0.161,-0.917 0,0 -0.468,0.336 -0.621,0.43 m 0.603,-1.151 c 0.323,-0.152 0.461,-0.494 0.505,-0.368 0.122,0.358 0.164,0.56 0.071,0.659 -0.067,0.07 -0.302,0.245 -0.302,0.245 0.086,0.202 0.262,0.911 -0.03,1.477 -0.071,0.122 -0.359,0.57 -0.962,-0.109 -0.236,-0.259 -0.538,-0.921 -0.3,-1.162 0.239,-0.238 0.762,-0.576 0.762,-0.576 -0.274,-0.469 -0.934,-0.887 -1.794,-1.499 -0.56,-0.402 -0.351,-0.538 -0.106,-0.424 1.625,0.77 1.903,1.223 2.156,1.757 m 3.177,-2.08 c 0.115,-0.305 0.363,-1.428 -0.043,-2.432 -0.274,-0.449 -0.379,-0.611 -0.786,-0.564 -0.349,0.043 -0.861,0.186 -1.125,0.393 -0.554,-0.672 -1.339,-0.817 -1.634,-0.85 0.324,-1.652 -0.131,-2.57 -0.291,-2.754 -1.387,-1.603 -3.297,-1.427 -3.723,-1.323 -2.519,0.605 -1.32,3.848 -1.121,4.144 0.156,0.231 0.262,0.031 0.219,-0.067 -1.205,-2.773 1.217,-3.12 1.467,-3.131 2.384,-0.125 3.139,1.461 3.226,1.777 0.086,0.317 -0.838,2.127 -1.076,2.461 0,0 0.162,0.859 0.209,0.971 0.049,0.111 0.148,-0.014 0.256,-0.203 0,0 0.203,-0.338 0.406,-0.743 1.814,-0.323 2.266,0.934 2.363,1.364 0.1,0.436 0.297,0.213 0.285,0.006 -0.019,-0.297 -0.064,-0.558 -0.134,-0.786 0.371,-0.122 1.257,-0.236 1.238,-0.13 -0.022,0.117 -0.18,1.035 -0.121,1.267 0.058,0.231 0.131,0.568 0.189,0.708 0.059,0.136 0.08,0.198 0.196,-0.108 m 16.32,-2.707 c 0.23,-1.117 0.018,-2 -0.135,-2.346 -0.15,-0.343 -0.941,-0.132 -1.26,-0.013 -0.459,0.17 -0.755,0.341 -0.898,0.43 -0.113,-0.339 -0.248,-0.685 -0.385,-0.942 -0.14,-0.215 -0.203,-0.241 -0.42,-0.209 -0.22,0.031 -1.146,0.35 -1.199,0.646 l -0.002,0.022 c -0.566,-0.493 -1.568,-0.857 -3.349,-0.6 -0.487,-0.188 -0.918,-0.218 -1.028,-0.222 0,0 -1.613,-0.28 -1.904,1.631 -0.09,0.4 -0.326,2.166 -0.416,2.773 -0.09,0.607 -0.635,4.401 -0.717,4.873 l 0.227,0.789 c 0.027,0.063 0.054,0.19 0.154,-0.043 0.101,-0.237 1.06,-6.925 1.114,-7.432 0.191,-1.685 1.55,-1.661 1.777,-1.648 1.603,0.027 2.111,1.195 2.203,1.404 0.09,0.208 0.234,0.155 0.207,-0.054 -0.071,-0.589 -0.287,-1.02 -0.567,-1.348 0.589,-0.051 2.367,0.028 2.887,1.42 0.035,0.127 0.254,0.217 0.18,-0.109 -0.024,-0.11 -0.073,-0.459 -0.285,-0.84 0.293,-0.128 1.089,-0.471 1.195,-0.139 0.115,0.356 0.39,1.132 0.439,1.257 0.048,0.127 0.272,0.194 0.233,-0.025 -0.016,-0.085 -0.074,-0.327 -0.162,-0.628 0.207,-0.041 1.222,-0.231 1.566,-0.145 0.27,0.068 0.215,0.34 0.172,0.588 -0.041,0.248 -0.869,5.027 -0.951,5.423 -0.069,0.329 -0.065,0.601 -0.09,0.759 -0.024,0.152 -0.127,0.301 -0.242,0.528 -0.116,0.225 -0.022,0.472 0.027,0.547 0.049,0.075 0.244,0.27 0.385,0.575 0.068,0.146 0.154,-0.023 0.191,-0.176 0.033,-0.14 0.319,-0.612 0.444,-0.771 0.084,-0.108 0.146,-0.301 0.111,-0.38 -0.068,-0.15 -0.27,-0.44 -0.313,-0.495 -0.033,-0.048 -0.06,-0.128 -0.043,-0.307 0,0 0.727,-4.179 0.854,-4.793 m -8.723,4.489 c 0.012,0.033 0.033,0.111 0.078,0.261 0.045,0.15 0.11,0.193 0.325,0.289 0.218,0.095 5.009,2.24 5.214,2.345 0.315,0.157 0.262,0.028 0.215,-0.085 C 41.4,2.495 41.381,2.466 41.303,2.315 41.225,2.163 41.123,2.13 40.949,2.036 40.779,1.942 35.938,-0.217 35.84,-0.262 35.523,-0.411 35.574,-0.31 35.613,-0.207 m -2.814,-8.241 c -0.057,-0.1 -0.078,-0.125 -0.174,-0.267 -0.096,-0.143 -0.201,-0.163 -0.382,-0.239 -0.18,-0.076 -2.85,-0.942 -2.954,-0.976 -0.33,-0.111 -0.268,-0.014 -0.219,0.084 0.016,0.027 0.045,0.103 0.108,0.248 0.06,0.146 0.131,0.179 0.355,0.25 0.225,0.072 2.846,0.929 3.061,1.009 0.332,0.124 0.263,-10e-4 0.205,-0.109 m 13.729,5.133 c 0.237,-1.684 0.184,-2.835 0.024,-3.247 -0.096,-0.237 -0.224,-0.156 -0.229,0.176 -0.021,1.419 -0.385,3.407 -0.492,4.074 -0.109,0.663 -0.22,1.353 -0.326,2.275 -0.072,0.538 0.008,0.933 0.168,1.24 0.144,0.295 0.201,-0.023 0.23,-0.391 0.057,-0.671 0.507,-3.283 0.625,-4.127 M 29.127,-7.558 c -0.248,0.053 -0.248,0.718 -0.24,0.909 0.008,0.191 0.158,0.103 0.308,0.062 0.364,-0.109 1.923,0.293 2.547,0.432 0.172,0.041 0.151,0.207 0.11,0.328 -0.692,1.528 -1.616,1.856 -1.856,1.946 l 0.035,0.828 0.137,0.111 c 1.012,-0.229 1.631,-1.377 1.754,-1.672 0.443,-0.951 0.224,-2.076 0.17,-2.232 -0.055,-0.159 -0.17,-0.214 -0.301,-0.255 -0.131,-0.041 -1.863,-0.573 -2.664,-0.457 m 11.161,6.023 c 0.059,-0.143 0.106,-0.311 0.099,-0.407 -0.228,-0.222 -0.474,-0.257 -0.651,-0.109 -0.113,0.093 -0.156,0.27 -0.145,0.502 0.008,0.166 0.027,0.228 -0.119,0.111 -0.192,-0.155 -0.139,-0.143 -0.15,-0.229 -0.067,-0.544 -0.301,-0.79 -0.721,-0.817 -0.266,-0.019 -0.461,0.165 -0.276,0.688 0.039,0.113 -0.04,0.232 -0.155,0 -0.396,-0.787 -0.155,-1.225 0.248,-1.287 0.329,-0.048 0.719,0.14 0.919,0.638 0.152,-0.253 0.461,-0.326 0.739,-0.253 0.359,0.093 0.438,0.259 0.536,0.548 0.102,0.28 0.106,0.649 -0.031,1.092 -0.021,0.074 -0.061,0.034 -0.08,-10e-4 l -0.189,-0.364 c -0.024,-0.039 -0.04,-0.067 -0.024,-0.112 m 19.361,1.837 c -0.159,0.099 -0.157,0.215 -0.085,0.325 0.239,0.369 0.412,0.359 0.569,0.187 0.255,-0.325 0.197,-0.865 0.17,-0.965 0,0 -0.493,0.355 -0.654,0.453 m 0.634,-1.211 c 0.341,-0.159 0.486,-0.52 0.531,-0.388 0.129,0.378 0.173,0.589 0.076,0.694 -0.072,0.075 -0.318,0.26 -0.318,0.26 0.09,0.212 0.276,0.958 -0.032,1.552 -0.075,0.129 -0.378,0.601 -1.013,-0.113 -0.248,-0.273 -0.566,-0.971 -0.315,-1.224 0.251,-0.251 0.802,-0.606 0.802,-0.606 -0.288,-0.495 -0.983,-0.934 -1.888,-1.579 -0.591,-0.421 -0.369,-0.566 -0.112,-0.443 1.71,0.809 2.003,1.285 2.269,1.847 m -9.807,1.226 c -0.16,0.1 -0.158,0.216 -0.085,0.327 0.238,0.368 0.411,0.356 0.568,0.186 0.255,-0.326 0.197,-0.866 0.17,-0.965 0,0 -0.493,0.355 -0.653,0.452 m 0.633,-1.211 c 0.341,-0.158 0.486,-0.521 0.532,-0.387 0.129,0.378 0.172,0.59 0.075,0.694 -0.071,0.075 -0.318,0.259 -0.318,0.259 0.09,0.212 0.276,0.958 -0.032,1.554 -0.075,0.128 -0.378,0.6 -1.012,-0.114 -0.249,-0.274 -0.567,-0.971 -0.316,-1.224 0.251,-0.251 0.802,-0.606 0.802,-0.606 -0.288,-0.495 -0.983,-0.934 -1.887,-1.579 -0.591,-0.421 -0.37,-0.566 -0.113,-0.444 1.71,0.81 2.003,1.284 2.269,1.847 m 4.569,1.33 c 0.035,0.01 0.077,0.005 0.12,0.045 0.14,0.132 0.257,0.478 0.27,0.597 -0.015,0.09 -0.341,0.124 -0.435,0.146 -0.322,0.077 -0.629,0.247 -0.964,0.269 -0.517,0.032 -0.996,-0.201 -1.263,-0.744 -0.029,-0.071 -0.072,-0.166 -0.1,-0.237 -0.033,-0.119 0.029,-0.2 0.091,-0.107 0.072,0.107 0.161,0.212 0.272,0.279 0.265,0.16 0.546,0.222 0.833,0.193 0.26,-0.024 0.749,-0.208 0.748,-0.232 -0.004,-0.057 -1.138,-0.619 -1.315,-0.73 -0.078,-0.048 -0.172,-0.137 -0.156,-0.227 0.014,-0.068 0.123,-0.083 0.214,-0.049 0.447,0.161 0.608,0.15 0.968,0.303 0.486,0.209 0.631,0.469 0.717,0.494 M 49.77,-6.375 c -0.069,-0.145 -0.158,-0.394 -0.21,-0.54 -0.018,-0.05 0.022,-0.113 0.086,-0.076 0.36,0.22 0.899,0.492 1.47,0.695 0.52,0.184 0.928,0.303 1.305,0.325 0.058,0.008 0.366,0.55 0.413,0.629 0.064,0.101 0.018,0.134 -0.063,0.119 -0.438,-0.085 -0.778,-0.162 -1.307,-0.114 -0.654,0.058 -1.165,0.558 -1.148,0.754 0.015,0.149 0.479,0.447 0.652,0.419 0.501,-0.078 0.492,-0.519 0.627,-0.523 0.161,-0.006 0.489,0.572 0.509,0.729 0.021,0.172 -0.322,0.581 -0.649,0.601 -0.538,0.032 -1.45,-0.88 -1.809,-1.441 -0.129,-0.207 -0.117,-0.523 0.07,-0.684 0.166,-0.143 0.439,-0.291 0.749,-0.479 -0.152,-0.053 -0.548,-0.286 -0.695,-0.414 m 18.461,2.793 c -0.089,0.851 -0.449,3.474 -0.483,4.147 -0.014,0.37 -0.06,0.687 -0.219,0.403 -0.168,-0.305 -0.261,-0.697 -0.208,-1.235 0.074,-0.925 0.16,-1.62 0.244,-2.284 0.083,-0.672 0.382,-2.675 0.352,-4.093 -0.007,-0.332 0.12,-0.418 0.223,-0.179 0.174,0.402 0.268,1.552 0.091,3.241 m -4.303,-4.393 c -0.117,0.116 -0.218,0.245 -0.315,0.371 l -0.069,0.007 -0.637,-0.641 -0.017,-0.117 c 0.088,-0.125 0.188,-0.242 0.298,-0.354 0.121,-0.124 0.25,-0.229 0.385,-0.322 l 0.125,0.01 0.638,0.639 -0.006,0.078 c -0.145,0.095 -0.279,0.202 -0.402,0.329 m 2.968,3.1 c -0.435,0.028 -2.446,0.064 -3.625,0.715 0.118,0.099 0.373,0.428 0.281,1.252 -0.089,0.824 -0.419,3.179 -0.419,3.179 -0.027,0.247 -0.127,0.483 0.013,0.608 0.141,0.127 0.436,0.342 0.266,0.574 -0.17,0.233 -0.462,0.673 -0.547,0.923 -0.071,0.212 -0.134,0.388 -0.24,0.222 C 62.5,2.407 62.456,2.162 62.287,1.941 62.199,1.825 62.107,1.768 62.208,1.592 c 0.136,-0.238 0.271,-0.675 0.298,-0.973 0.012,-0.156 0.057,-0.494 0.101,-0.816 0,0 0.577,-2.976 0.531,-3.459 0,0 -2.383,-0.084 -2.693,-0.386 l -0.477,-0.741 c -0.04,-0.082 -0.036,-0.173 0.077,-0.154 0.113,0.019 1.578,0.488 3.635,-0.336 -0.243,-0.084 -2.959,-1.247 -5.253,-0.986 -0.344,0.009 -2.755,0.325 -2.954,1.548 -0.028,0.155 -0.068,0.211 -0.15,0.055 -0.073,-0.139 -0.742,-1.137 0.309,-1.853 -0.333,-0.704 -0.927,-1.658 -1.833,-2.031 -0.297,-0.11 -1.621,-0.45 -2.958,0.15 -0.165,0.052 -0.407,-0.08 -0.158,-0.25 0.251,-0.173 2.695,-1.735 4.282,-0.09 0.279,0.287 0.758,1.057 1.12,1.978 1.626,-0.884 4.33,-0.398 4.33,-0.398 0.588,0.125 1.203,0.298 1.842,0.545 0.335,0.137 2.636,1.178 4.194,0.813 0.326,-0.08 0.401,-0.08 0.401,-0.08 0,0 0.28,0.599 0.343,0.743 0.063,0.145 0.136,0.227 -0.299,0.254 m -11.548,2.896 c 0.125,-0.125 0.257,-0.234 0.403,-0.332 l 0.006,-0.077 -0.638,-0.637 -0.126,-0.01 c -0.134,0.092 -0.263,0.201 -0.385,0.321 -0.11,0.112 -0.21,0.23 -0.297,0.355 l 0.017,0.117 0.637,0.64 0.07,-0.005 c 0.096,-0.127 0.196,-0.256 0.313,-0.372"
         style="fill:#231f20;fill-opacity:1;fill-rule:nonzero;stroke:none"
         transform="matrix(1.3333333,0,0,-1.3333333,383.2292,45.1004)"
         clip-path="url(#clipPath36)"
         id="path37" />
    </g>
  </g>
</svg>
