<?xml version="1.0" encoding="UTF-8" standalone="no"?>
<!-- Created with Inkscape (http://www.inkscape.org/) -->

<svg
   width="28.833075mm"
   height="6.9146843mm"
   viewBox="0 0 28.833073 6.9146841"
   version="1.1"
   id="svg1"
   xml:space="preserve"
   xmlns="http://www.w3.org/2000/svg"
   xmlns:svg="http://www.w3.org/2000/svg"><defs
     id="defs1" /><g
     id="layer1"
     transform="translate(-310.45403,-66.265494)"><g
       id="g56"
       transform="translate(14.715182,-8.3606077)"><path
         d="m 301.74416,76.996814 -0.20461,0.24483 -0.002,0.0416 c 0.0353,0.0413 0.0737,0.0801 0.11571,0.11607 0.0462,0.0381 0.0956,0.0716 0.14499,0.0998 l 0.0441,-0.007 0.20426,-0.24377 -0.004,-0.0275 c -0.054,-0.0289 -0.10407,-0.0628 -0.1517,-0.10372 -0.0448,-0.0367 -0.0836,-0.079 -0.12206,-0.12065 z m 0.0875,0.8128 -0.008,0.0138 -0.10195,-0.0737 c -0.0459,-0.0388 -0.0864,-0.0818 -0.12453,-0.12488 l -0.0272,3.5e-4 -0.21167,0.25295 -0.003,0.0438 c 0.0367,0.0423 0.0765,0.0833 0.121,0.11994 0.0469,0.0402 0.0974,0.0755 0.15028,0.10442 l 0.0455,-0.008 0.19967,-0.23812 0.0783,0.073 c 0.048,0.0399 0.0981,0.0748 0.15028,0.10442 l 0.0462,-0.007 0.21096,-0.25365 -0.006,-0.0275 c -0.0536,-0.0314 -0.10583,-0.0663 -0.15628,-0.1083 -0.0459,-0.0381 -0.085,-0.0818 -0.12453,-0.12524 l -0.0261,3.6e-4 z m -5.11034,-0.82796 -0.025,-0.001 -0.22507,0.22613 -0.006,0.0413 c 0.031,0.0434 0.0663,0.0854 0.10548,0.12488 0.0427,0.0427 0.0882,0.0804 0.13582,0.11359 l 0.0441,-0.004 0.22507,-0.22472 -0.002,-0.0282 c -0.0512,-0.0335 -0.0988,-0.0723 -0.14217,-0.11641 -0.042,-0.0406 -0.0766,-0.0861 -0.11007,-0.13159 m 0.57715,-0.89076 c 0.061,-0.0332 0.0967,-0.0434 0.12594,-0.0974 0.0279,-0.0536 0.0349,-0.0628 0.0508,-0.1009 0.0173,-0.0402 0.0363,-0.0854 -0.0751,-0.031 -0.073,0.036 -1.29258,0.5581 -1.36878,0.59091 -0.0751,0.0335 -0.0988,0.0483 -0.1143,0.10054 -0.0155,0.0526 -0.024,0.0811 -0.0279,0.0921 -0.0145,0.0353 -0.0325,0.0716 0.0794,0.0208 0.0332,-0.0159 1.27,-0.54293 1.32998,-0.57503 m 7.13634,3.77896 c -0.0713,0.0353 -1.04987,0.46037 -1.12678,0.49388 -0.0769,0.0335 -0.10018,0.0483 -0.11606,0.10055 -0.0166,0.0529 -0.0247,0.0815 -0.0282,0.0917 -0.0145,0.0349 -0.0325,0.0702 0.079,0.0208 0.0353,-0.0152 1.03117,-0.44521 1.0922,-0.47802 0.0607,-0.0328 0.0967,-0.0437 0.12524,-0.097 0.0282,-0.054 0.0356,-0.0635 0.0511,-0.10089 0.0173,-0.0399 0.0367,-0.0868 -0.0765,-0.031 m 0.42227,-3.2766 c -0.009,-0.0896 -0.0226,-0.10478 0.0282,-0.15029 0.0505,-0.0455 0.16475,-0.13793 0.10407,-0.2226 -0.0617,-0.084 -0.16792,-0.22966 -0.19826,-0.31962 -0.0257,-0.0765 -0.0483,-0.14005 -0.0868,-0.0801 -0.0448,0.0681 -0.0635,0.10901 -0.12488,0.18874 -0.0325,0.042 -0.0646,0.0621 -0.0289,0.1263 0.049,0.0861 0.11253,0.23212 0.12206,0.33972 0.005,0.0564 0.0187,0.17886 0.0363,0.29457 0.0229,0.15169 0.29704,2.13819 0.26282,2.18017 -0.0325,0.042 -0.25047,0.22683 -0.62582,0.0173 l -0.0356,-0.0219 c 0.27269,-0.19438 0.2487,-0.38206 0.20496,-0.45156 -0.079,-0.12594 -0.79904,-0.52775 -1.20826,0.12136 -0.0448,0.066 -0.0787,0.2226 0.0166,0.16545 0.0811,-0.049 0.29139,-0.0607 0.51505,0.0797 l 0.0526,0.0346 c -0.53199,0.34502 -1.00542,0.12277 -1.16029,0.0261 0.013,-0.0607 0.0215,-0.11007 0.0233,-0.13653 0.005,-0.10512 -0.0617,-0.11571 -0.091,-0.01 -0.0289,0.10549 -0.0445,0.24201 -0.0963,0.34537 -0.0917,0.1831 -0.3556,0.0406 -0.46567,-0.009 0.0318,-0.0924 0.0579,-0.20037 0.0776,-0.32526 0.012,-0.0716 -0.0321,-0.13158 -0.0804,0.0187 -0.0469,0.14605 -0.21625,0.58103 -0.9652,0.3302 0.0102,-0.0875 0.0632,-0.28398 -0.10054,-0.20002 -0.17745,0.0917 -0.60784,0.25506 -0.85584,0.31715 -0.16263,0.0406 -0.18838,0.0653 -0.16334,0.13687 0.0247,0.0709 0.0681,0.26212 0.15417,0.23425 0.018,-0.006 0.0483,-0.0159 0.0854,-0.0282 -0.073,0.19367 -0.32985,0.79057 -0.79234,0.98072 -0.10866,0.042 -0.57856,0.17216 -1.07068,-0.0483 -0.0607,-0.0194 -0.15028,0.0296 -0.0579,0.0924 0.0917,0.0624 1.06786,0.58914 1.65171,-0.0173 0.13441,-0.13652 0.32526,-0.57891 0.44979,-1.05234 v -0.0116 c 0.0991,-0.0318 0.18592,-0.06 0.18592,-0.06 0.054,-0.0187 0.26634,-0.10936 0.38523,-0.16121 0.36512,0.27022 0.71861,0.36265 0.95038,0.0751 0.28857,0.2667 0.49883,0.20955 0.58844,0.0723 0.037,-0.0564 0.0783,-0.16405 0.1143,-0.27764 0.45896,0.45191 1.24706,0.0166 1.42486,-0.10901 0.0607,0.0649 0.11783,0.13123 0.13371,0.16334 0.0296,0.0593 0.1972,0.22401 0.52211,0.16757 0.10971,-0.0187 0.38946,-0.14817 0.37218,-0.63959 -0.01,-0.66816 -0.22049,-1.93816 -0.22049,-1.93816 -0.0159,-0.10407 -0.0332,-0.23813 -0.0332,-0.23813 m -7.06155,1.63266 c -0.0448,-0.20708 -0.27023,-0.59373 -0.27023,-0.59373 -0.0367,-0.0649 -0.0695,-0.10759 -0.0854,-0.0688 -0.0159,0.037 -0.0695,0.33409 -0.0695,0.33409 0.0797,0.115 0.38982,0.73801 0.3616,0.84666 -0.0289,0.10901 -0.28187,0.65617 -1.08126,0.61384 -0.0833,-0.004 -0.89535,-0.12171 -0.49178,-1.07668 0.0145,-0.0339 -0.0215,-0.10266 -0.073,-0.0243 -0.0674,0.10195 -0.46708,1.21955 0.37676,1.42698 0.14359,0.0353 0.78282,0.0967 1.24637,-0.45684 0.0554,-0.066 0.2159,-0.399 0.0864,-1.00119 m 1.276,0.34255 c -0.0649,-0.11994 -0.1584,-0.21202 -0.22049,-0.26599 -0.12065,-0.10266 -0.22754,0.0469 -0.2473,0.11112 -0.0677,0.2092 0.28928,0.17357 0.36654,0.16792 0.0328,-0.003 0.0667,-0.007 0.10125,-0.0131 m -0.48049,1.44639 c -0.55597,0.23001 -1.26012,0.0797 -1.33173,0.0639 -0.14323,-0.0328 -0.0819,-0.12665 0.0392,-0.10795 1.27881,0.17004 1.77729,-0.76905 1.85349,-1.01071 l 0.0113,-0.0621 c -0.22684,0.0455 -0.45685,0.048 -0.53975,0.0226 -0.32914,-0.10266 -0.2667,-0.59725 0.003,-0.9211 0.2734,-0.32879 0.53622,0.19756 0.57891,0.30445 0.28998,0.73378 -0.13229,1.24389 -0.1778,1.30563 -0.127,0.1718 -0.26106,0.33302 -0.43639,0.40534 m 7.11835,-2.47403 c 0.0381,0.27799 0.16969,1.10278 0.17851,1.69051 0.002,0.13864 0.0483,0.17251 0.0808,0.073 0.0557,-0.17004 0.0737,-0.64841 -0.012,-1.34514 -0.042,-0.35137 -0.20391,-1.4351 -0.22507,-1.71415 -0.0102,-0.15205 -0.0303,-0.28328 -0.0822,-0.16298 -0.0554,0.1277 -0.0825,0.29104 -0.0571,0.51435 0.0377,0.38241 0.0787,0.66922 0.11712,0.94438 m -5.31812,-0.54327 c 0.01,-0.0353 0.03,-0.22578 -0.06,-0.34079 -0.0554,-0.0603 -0.11642,-0.0639 -0.20038,0.066 -0.0257,0.0392 -0.0261,0.0797 0.03,0.11501 0.0565,0.0346 0.23037,0.15981 0.23037,0.15981 m -0.80751,0.91898 c -0.0907,0.0434 -0.16863,-0.008 0.0395,-0.15663 0.31962,-0.22719 0.56445,-0.38241 0.66605,-0.55668 0,0 -0.19439,-0.12524 -0.28293,-0.21379 -0.0885,-0.0892 0.024,-0.33549 0.11148,-0.4318 0.22366,-0.25188 0.33055,-0.0854 0.35701,-0.0402 0.10865,0.20991 0.043,0.47308 0.0116,0.54787 0,0 0.0868,0.0653 0.11183,0.0914 0.0346,0.037 0.019,0.11183 -0.0265,0.24518 -0.0162,0.0466 -0.0674,-0.0808 -0.18732,-0.13688 -0.0942,0.19826 -0.19756,0.36618 -0.80081,0.65158 m 2.50931,-1.50036 c 0.0123,-0.004 0.0272,-0.002 0.042,-0.0162 0.0497,-0.0462 0.091,-0.16898 0.0959,-0.21061 -0.006,-0.0321 -0.12065,-0.0434 -0.15381,-0.0515 -0.11359,-0.0272 -0.22189,-0.0871 -0.34007,-0.0945 -0.18204,-0.0116 -0.35172,0.0702 -0.44521,0.26211 -0.0106,0.0251 -0.0254,0.0586 -0.0356,0.0836 -0.0113,0.0423 0.0102,0.0706 0.0325,0.0381 0.025,-0.0381 0.0564,-0.0748 0.0956,-0.0984 0.0935,-0.0568 0.19261,-0.0783 0.29386,-0.0688 0.0917,0.009 0.26423,0.0734 0.26423,0.0826 -0.001,0.0198 -0.40146,0.21802 -0.46425,0.25718 -0.0272,0.0173 -0.0607,0.0487 -0.0547,0.0801 0.005,0.024 0.0434,0.0293 0.0758,0.0173 0.15734,-0.0568 0.21379,-0.0529 0.34079,-0.10689 0.1718,-0.0737 0.2226,-0.1651 0.25294,-0.17392 m 5.65891,0.4893 c -0.0166,0.0374 -0.0236,0.0466 -0.0529,0.0998 -0.0296,0.0529 -0.0653,0.0635 -0.127,0.0956 -0.0617,0.031 -1.06257,0.44415 -1.09749,0.45932 -0.11324,0.048 -0.0942,0.013 -0.0794,-0.0236 0.004,-0.0102 0.0123,-0.0378 0.0296,-0.09 0.0162,-0.0533 0.0402,-0.0674 0.11782,-0.0988 0.0766,-0.0325 1.06045,-0.44027 1.13454,-0.47414 0.11289,-0.0533 0.0928,-0.007 0.0748,0.0318 m -0.39723,1.94628 c -0.0762,0.006 -0.43321,0.0406 -0.36583,-0.16828 0.0194,-0.0638 0.12629,-0.21343 0.24588,-0.11077 0.0628,0.0543 0.15734,0.14676 0.2219,0.2667 z m -0.3429,-0.58173 c -0.27023,0.32314 -0.33302,0.81879 -0.004,0.92075 0.0825,0.0254 0.31291,0.0226 0.5401,-0.0229 l -0.0109,0.0621 c -0.0773,0.24271 -0.57538,1.18039 -1.8535,1.01141 -0.12135,-0.0191 -0.18415,0.0744 -0.0399,0.1076 0.0723,0.0166 0.77576,0.16616 1.33173,-0.0642 0.17498,-0.0716 0.3101,-0.23354 0.43639,-0.40499 0.0459,-0.0621 0.46778,-0.57185 0.17745,-1.30563 -0.042,-0.10619 -0.30445,-0.63324 -0.57785,-0.3041 m 1.88842,-2.38865 c -0.0529,-0.0335 -0.0526,-0.072 -0.0282,-0.10972 0.0801,-0.12312 0.13793,-0.11924 0.1905,-0.0621 0.0854,0.10901 0.0663,0.29034 0.0568,0.3235 0,0 -0.16545,-0.11889 -0.21907,-0.1517 m 0.21272,0.4057 c 0.11395,0.0536 0.16263,0.17427 0.17816,0.13017 0.043,-0.12664 0.0578,-0.19755 0.025,-0.23283 -0.024,-0.0247 -0.10654,-0.0868 -0.10654,-0.0868 0.0303,-0.0709 0.0924,-0.32103 -0.0106,-0.5207 -0.025,-0.0427 -0.127,-0.20108 -0.33937,0.0384 -0.0833,0.0917 -0.1898,0.32526 -0.10584,0.40993 0.084,0.084 0.26882,0.2032 0.26882,0.2032 -0.097,0.16545 -0.32949,0.31291 -0.63288,0.52881 -0.19756,0.14182 -0.12383,0.1898 -0.0378,0.14923 0.57326,-0.27129 0.67169,-0.43074 0.76094,-0.61948 m 2.76119,2.94993 c -0.0152,0.0374 -0.0226,0.0466 -0.0504,0.10054 -0.0275,0.054 -0.0632,0.0649 -0.12418,0.0984 -0.06,0.0332 -0.96203,0.44273 -0.99625,0.45861 -0.11218,0.0519 -0.0938,0.0159 -0.0804,-0.0201 0.004,-0.0109 0.0116,-0.0388 0.0272,-0.0914 0.0155,-0.0533 0.0385,-0.0681 0.11465,-0.10231 0.0765,-0.0332 0.96167,-0.43779 1.03364,-0.47413 0.11147,-0.0564 0.0928,-0.0102 0.0758,0.0303 m 4.12715,-0.70979 c 0.0815,0.393 0.006,0.7052 -0.0476,0.82727 -0.0533,0.1217 -0.33197,0.0469 -0.44415,0.005 -0.16193,-0.0603 -0.26635,-0.12065 -0.3168,-0.1524 -0.0406,0.12029 -0.0875,0.242 -0.13617,0.33231 -0.049,0.0755 -0.0713,0.085 -0.14852,0.0741 -0.0773,-0.0106 -0.40428,-0.12382 -0.42298,-0.22754 l -3.5e-4,-0.008 c -0.20003,0.17357 -0.55316,0.30198 -1.18145,0.21096 -0.17145,0.0656 -0.32456,0.0773 -0.36301,0.0787 0,0 -0.56903,0.0991 -0.67134,-0.57538 -0.0318,-0.1404 -0.115,-0.76376 -0.14675,-0.9779 -0.0325,-0.21378 -0.22402,-1.55328 -0.25259,-1.71979 l 0.0797,-0.27799 c 0.01,-0.0226 0.0194,-0.067 0.0543,0.0162 0.0356,0.0825 0.3743,2.44228 0.3937,2.62079 0.067,0.59443 0.5461,0.58525 0.62618,0.58173 0.56551,-0.009 0.74472,-0.42157 0.77682,-0.4953 0.0317,-0.0734 0.0829,-0.0547 0.0734,0.0194 -0.0247,0.20672 -0.10125,0.36018 -0.20003,0.47484 0.20814,0.0187 0.83538,-0.0102 1.01847,-0.5006 0.0127,-0.0448 0.0893,-0.0769 0.0639,0.0384 -0.009,0.0395 -0.0258,0.16193 -0.1009,0.29669 0.10301,0.0444 0.38453,0.16545 0.42157,0.049 0.0406,-0.12559 0.13829,-0.3997 0.15487,-0.44485 0.0169,-0.0451 0.096,-0.0681 0.0822,0.01 -0.006,0.0303 -0.0261,0.11571 -0.0572,0.22225 0.0734,0.0141 0.43074,0.0818 0.5528,0.0504 0.0945,-0.024 0.0751,-0.11924 0.0607,-0.20708 -0.0145,-0.0878 -0.30692,-1.77342 -0.33585,-1.91347 -0.024,-0.11606 -0.0233,-0.21131 -0.0318,-0.26705 -0.008,-0.0536 -0.0448,-0.1069 -0.0857,-0.18662 -0.0409,-0.079 -0.007,-0.16651 0.01,-0.19297 0.0176,-0.0268 0.0861,-0.0956 0.13618,-0.20356 0.0236,-0.0508 0.054,0.009 0.067,0.0631 0.0123,0.0494 0.11289,0.21485 0.15664,0.27129 0.0296,0.0384 0.0522,0.10583 0.0399,0.13406 -0.024,0.0533 -0.0956,0.15557 -0.11042,0.17497 -0.0116,0.0162 -0.0219,0.0452 -0.0152,0.10795 0,0 0.25647,1.47462 0.30092,1.69122 m 0.81633,-0.3369 c 0.0847,0.6865 0.0663,1.15676 0.0102,1.32362 -0.0325,0.0977 -0.079,0.0649 -0.0808,-0.0706 -0.008,-0.57891 -0.13934,-1.39171 -0.17709,-1.66476 -0.0388,-0.27023 -0.0787,-0.55315 -0.11712,-0.92886 -0.0258,-0.21908 0.002,-0.3803 0.0579,-0.50624 0.0512,-0.11924 0.0716,0.0106 0.0811,0.16052 0.0208,0.27481 0.18274,1.33985 0.22578,1.68627 m -5.60176,0.55986 c 0.0437,0.0441 0.0907,0.0825 0.14182,0.11642 l 0.002,0.0282 -0.22472,0.22472 -0.0448,0.003 c -0.0473,-0.0321 -0.0928,-0.0709 -0.13617,-0.11289 -0.0388,-0.0392 -0.0737,-0.0811 -0.10477,-0.12524 l 0.006,-0.0416 0.22472,-0.22507 0.0247,10e-4 c 0.0342,0.0448 0.0688,0.091 0.11042,0.13088 m 0.048,1.67005 c -0.0998,0.0455 -0.86078,0.26423 -1.09255,0.30974 -0.97508,0.19579 -1.6309,-0.21378 -1.68981,-1.11125 -0.055,-0.82444 0.37359,-1.38924 0.53269,-1.60302 0.0526,-0.0702 0.1016,-0.12277 0.14817,-0.16581 -0.17145,-0.17885 -0.33055,-0.0617 -0.36865,-0.0215 -0.0385,0.042 -0.066,0.0155 -0.0501,-0.054 0.0956,-0.35031 0.25083,-0.45437 0.53129,-0.49812 0.28046,-0.0427 0.49494,0.0885 0.53375,0.12065 0.13053,0.0935 0.0466,0.27023 -0.0159,0.39053 -0.0212,0.043 -0.0808,0.0801 -0.16264,0.12417 0.079,0.0448 0.14006,0.0773 0.15664,0.0833 0.70767,0.2346 1.54799,-0.1524 1.59561,-0.18203 0.048,-0.0293 -0.15451,-0.31397 -0.2547,-0.44662 0,0 0.0455,-0.26634 0.0593,-0.32349 0.0138,-0.0564 0.0314,-0.0543 0.0684,-0.013 0.31186,0.30727 0.28011,0.66675 0.27058,0.77611 -0.0318,0.25047 -0.091,0.28151 -0.14958,0.31326 -0.53481,0.266 -0.98425,0.27658 -1.14405,0.27658 -0.58279,-0.0236 -0.73061,-0.15169 -0.8756,-0.3175 -0.25611,0.16581 -0.5655,0.43921 -0.68897,0.9846 -0.12736,0.68369 0.078,1.11655 0.61524,1.2753 0.53728,0.15945 1.74872,-0.0268 1.94945,-0.0452 0.20073,-0.0187 0.13229,0.0819 0.0314,0.12735 m 1.63089,-3.54295 c 0.004,-0.0109 0.0123,-0.0392 0.0275,-0.0921 0.0155,-0.0529 0.0388,-0.0677 0.11465,-0.1016 0.0769,-0.0335 1.66476,-0.68121 1.73708,-0.71755 0.11112,-0.0564 0.0924,-0.0102 0.0755,0.03 -0.0155,0.0378 -0.0219,0.0476 -0.0497,0.10125 -0.0279,0.0543 -0.0639,0.0649 -0.12418,0.0981 -0.061,0.0328 -1.66617,0.6858 -1.70074,0.70203 -0.11148,0.0519 -0.0935,0.0155 -0.0801,-0.0201 m 1.55857,0.49459 c 0.0208,0.0504 0.0374,0.10972 0.0349,0.14358 -0.0804,0.0776 -0.16722,0.0907 -0.22931,0.0384 -0.0402,-0.0332 -0.0557,-0.0953 -0.0515,-0.17709 0.003,-0.0586 0.01,-0.0804 -0.042,-0.0392 -0.0674,0.0547 -0.049,0.0497 -0.0526,0.0801 -0.024,0.19226 -0.10618,0.27869 -0.2547,0.28892 -0.0938,0.006 -0.16263,-0.0582 -0.0974,-0.24306 0.0141,-0.0399 -0.0138,-0.0815 -0.0547,0 -0.13935,0.27728 -0.0547,0.43251 0.0875,0.45367 0.11606,0.0173 0.25365,-0.0487 0.3242,-0.22436 0.054,0.0893 0.16263,0.115 0.2607,0.0893 0.12665,-0.0328 0.15452,-0.0914 0.18945,-0.19333 0.0356,-0.0988 0.037,-0.2293 -0.0113,-0.38558 -0.007,-0.0258 -0.0215,-0.0116 -0.0282,3.5e-4 l -0.0667,0.12876 c -0.008,0.0134 -0.0138,0.0236 -0.008,0.0395 m 6.90739,-0.48154 c -0.0561,-0.0349 -0.0554,-0.0759 -0.03,-0.115 0.0843,-0.12983 0.14534,-0.12595 0.20073,-0.0656 0.0899,0.115 0.0695,0.3055 0.06,0.34043 0,0 -0.17392,-0.12524 -0.23072,-0.15981 m 0.22366,0.42721 c 0.1203,0.0561 0.17145,0.1838 0.18733,0.13688 0.0451,-0.13335 0.061,-0.20814 0.0268,-0.24483 -0.0257,-0.0265 -0.11218,-0.0914 -0.11218,-0.0914 0.0317,-0.0748 0.0974,-0.33796 -0.0113,-0.54821 -0.0265,-0.0451 -0.13335,-0.21167 -0.35772,0.0402 -0.0871,0.0967 -0.19932,0.34254 -0.11077,0.4318 0.0885,0.0885 0.28293,0.21378 0.28293,0.21378 -0.1016,0.17462 -0.34679,0.32949 -0.66605,0.55703 -0.20814,0.14852 -0.13017,0.19968 -0.0395,0.15664 0.60325,-0.28575 0.70661,-0.45332 0.80045,-0.65194 m -3.45969,-0.4325 c -0.0564,-0.0353 -0.0561,-0.0759 -0.03,-0.11501 0.084,-0.13017 0.145,-0.12629 0.20038,-0.066 0.09,0.11501 0.0695,0.30551 0.06,0.34079 0,0 -0.17391,-0.12559 -0.23036,-0.15981 m 0.22366,0.42721 c 0.11995,0.0561 0.1711,0.18345 0.18733,0.13653 0.0455,-0.13335 0.061,-0.20814 0.0265,-0.24483 -0.025,-0.0261 -0.11219,-0.0914 -0.11219,-0.0914 0.0317,-0.0748 0.0974,-0.33796 -0.0113,-0.54822 -0.0265,-0.0448 -0.13335,-0.21131 -0.35701,0.0406 -0.0875,0.0963 -0.20002,0.3422 -0.11148,0.43145 0.0885,0.0886 0.28293,0.21414 0.28293,0.21414 -0.1016,0.17427 -0.34678,0.32914 -0.66604,0.55668 -0.20814,0.14887 -0.13018,0.19967 -0.0395,0.15663 0.60325,-0.28539 0.70661,-0.45332 0.8008,-0.65158 m 1.61149,-0.46884 c 0.0123,-0.004 0.0272,-0.002 0.0423,-0.0162 0.0494,-0.0462 0.0907,-0.16898 0.0949,-0.21061 -0.005,-0.0321 -0.11994,-0.0434 -0.1531,-0.0515 -0.1136,-0.0272 -0.2219,-0.0871 -0.34008,-0.0945 -0.18274,-0.0116 -0.35137,0.0702 -0.44556,0.26212 -0.0102,0.025 -0.0254,0.0586 -0.0353,0.0836 -0.0116,0.042 0.0102,0.0706 0.0321,0.0381 0.0254,-0.0381 0.0568,-0.0748 0.096,-0.0988 0.0935,-0.0564 0.19262,-0.078 0.29386,-0.0684 0.0917,0.009 0.26423,0.0734 0.26388,0.0825 -0.001,0.0198 -0.40146,0.21801 -0.4639,0.25717 -0.0275,0.0173 -0.0607,0.0487 -0.055,0.0801 0.005,0.024 0.043,0.0293 0.0758,0.0173 0.15734,-0.0568 0.21414,-0.0529 0.34114,-0.10689 0.17145,-0.0737 0.2226,-0.1651 0.25294,-0.17392 m -2.08421,2.40206 c -0.0243,0.0515 -0.0557,0.13935 -0.0741,0.1905 -0.006,0.0183 0.008,0.0402 0.0303,0.0272 0.127,-0.0776 0.31714,-0.17392 0.51858,-0.24518 0.18344,-0.0649 0.32738,-0.10689 0.46037,-0.1143 0.0205,-0.003 0.12912,-0.19438 0.1457,-0.22189 0.0226,-0.036 0.006,-0.0476 -0.0222,-0.042 -0.15452,0.0296 -0.27447,0.0571 -0.46108,0.0399 -0.23072,-0.0205 -0.41099,-0.19685 -0.40499,-0.266 0.005,-0.0526 0.16898,-0.15734 0.23001,-0.14816 0.17674,0.0279 0.17356,0.18344 0.22119,0.1852 0.0568,0.002 0.17251,-0.20214 0.17956,-0.25752 0.007,-0.0607 -0.11359,-0.20497 -0.22895,-0.21202 -0.18979,-0.0113 -0.51153,0.31044 -0.63782,0.5087 -0.0459,0.0727 -0.0416,0.18415 0.0243,0.24095 0.0586,0.0501 0.15487,0.10301 0.26423,0.16898 -0.0533,0.019 -0.19332,0.10054 -0.24518,0.1457 m 6.51263,-0.98531 c -0.0314,-0.29951 -0.1584,-1.2252 -0.17039,-1.46262 -0.005,-0.13053 -0.0212,-0.24271 -0.0773,-0.14217 -0.0593,0.1076 -0.0921,0.24624 -0.0734,0.43568 0.0261,0.32632 0.0565,0.57186 0.0861,0.8061 0.0293,0.23707 0.13476,0.94333 0.12418,1.44357 -0.002,0.11712 0.0423,0.14746 0.0787,0.0631 0.0614,-0.14182 0.0945,-0.54751 0.0321,-1.14371 m -1.518,1.55011 c -0.0413,-0.0409 -0.0769,-0.0861 -0.11113,-0.13088 l -0.0243,-0.002 -0.22472,0.22578 -0.006,0.0416 c 0.031,0.0441 0.066,0.0854 0.10513,0.12453 0.0427,0.0434 0.0886,0.0808 0.13582,0.11359 l 0.0441,-0.003 0.22507,-0.22542 -0.002,-0.0275 c -0.0512,-0.0339 -0.0984,-0.0716 -0.14181,-0.11642 m 1.04704,-1.09361 c -0.15346,-0.01 -0.86289,-0.0226 -1.27846,-0.25224 0.0413,-0.0349 0.13123,-0.15099 0.0988,-0.44168 -0.0314,-0.29069 -0.14781,-1.12148 -0.14781,-1.12148 -0.01,-0.0871 -0.0448,-0.17039 0.005,-0.21449 0.0494,-0.0448 0.15346,-0.12065 0.0935,-0.20249 -0.06,-0.0818 -0.16298,-0.23777 -0.19297,-0.32597 -0.025,-0.0744 -0.0473,-0.13652 -0.0847,-0.078 -0.0441,0.0677 -0.0596,0.15381 -0.11924,0.23178 -0.031,0.0413 -0.0635,0.061 -0.0279,0.12312 0.048,0.0843 0.096,0.23777 0.10513,0.34325 0.004,0.055 0.0201,0.17427 0.0356,0.28787 0,0 0.20355,1.05022 0.18732,1.22026 0,0 -0.84067,0.0296 -0.95038,0.13581 l -0.16792,0.26177 c -0.0141,0.0289 -0.0127,0.0607 0.0272,0.0547 0.0399,-0.007 0.55668,-0.17251 1.28235,0.11853 -0.0857,0.0293 -1.04387,0.43956 -1.85314,0.34784 -0.12136,-0.004 -0.97191,-0.11501 -1.04211,-0.54646 -0.01,-0.0543 -0.024,-0.0744 -0.0529,-0.0194 -0.0257,0.049 -0.26176,0.40111 0.10901,0.65405 -0.11747,0.24801 -0.32702,0.5842 -0.64664,0.71579 -0.10477,0.0392 -0.57185,0.1591 -1.04352,-0.0522 -0.0582,-0.0187 -0.14358,0.0282 -0.0557,0.0882 0.0885,0.0607 0.95073,0.61172 1.51059,0.0318 0.0988,-0.1016 0.26741,-0.37289 0.39511,-0.69815 0.57362,0.31221 1.52753,0.14041 1.52753,0.14041 0.20743,-0.0441 0.42474,-0.10513 0.64982,-0.19191 0.11818,-0.0483 0.92992,-0.41557 1.47955,-0.28752 0.11465,0.0282 0.14146,0.0282 0.14146,0.0282 0,0 0.0988,-0.21061 0.12065,-0.26176 0.0226,-0.0512 0.0483,-0.0801 -0.10513,-0.0896 m -4.07388,-1.02164 c 0.0441,0.0441 0.091,0.0825 0.14217,0.11712 l 0.002,0.0275 -0.22472,0.22437 -0.0445,0.004 c -0.0476,-0.0325 -0.0928,-0.0709 -0.13617,-0.11289 -0.0388,-0.0399 -0.0741,-0.0815 -0.10478,-0.12559 l 0.006,-0.0413 0.22507,-0.22578 0.0247,0.002 c 0.0339,0.0448 0.0692,0.0903 0.11042,0.13124"
         style="fill:#231f20;fill-opacity:1;fill-rule:evenodd;stroke:none;stroke-width:0.352778"
         clip-path="url(#clipPath1)"
         id="path57" /></g></g></svg>
