<?xml version="1.0" encoding="UTF-8" standalone="no"?>
<!-- Created with Inkscape (http://www.inkscape.org/) -->

<svg
   version="1.1"
   id="svg1"
   width="107.87915"
   height="20.429333"
   viewBox="0 0 107.87915 20.429333"
   xmlns="http://www.w3.org/2000/svg"
   xmlns:svg="http://www.w3.org/2000/svg">
  <defs
     id="defs1">
    <clipPath
       clipPathUnits="userSpaceOnUse"
       id="clipPath56">
      <path
         d="m 274.81,517.574 h 80.91 v -15.322 h -80.91 z"
         transform="translate(-291.43651,-513.29151)"
         id="path56" />
    </clipPath>
    <clipPath
       clipPathUnits="userSpaceOnUse"
       id="clipPath58">
      <path
         d="M 0,547.086 H 382.677 V 0 H 0 Z"
         transform="matrix(1.3333333,0,0,-1.3333333,0,729.448)"
         id="path58" />
    </clipPath>
  </defs>
  <g
     id="layer-MC1"
     transform="translate(-366.41333,-39.349346)">
    <g
       id="g57"
       clip-path="url(#clipPath58)">
      <path
         d="m 0,0 -0.58,-0.694 -0.007,-0.118 c 0.1,-0.117 0.209,-0.227 0.328,-0.329 0.131,-0.108 0.271,-0.203 0.411,-0.283 l 0.125,0.019 0.579,0.691 -0.012,0.078 C 0.691,-0.554 0.549,-0.458 0.414,-0.342 0.287,-0.238 0.177,-0.118 0.068,0 Z m 0.248,-2.304 -0.024,-0.039 -0.289,0.209 c -0.13,0.11 -0.245,0.232 -0.353,0.354 l -0.077,-10e-4 -0.6,-0.717 -0.008,-0.124 c 0.104,-0.12 0.217,-0.236 0.343,-0.34 0.133,-0.114 0.276,-0.214 0.426,-0.296 l 0.129,0.023 0.566,0.675 0.222,-0.207 C 0.719,-2.88 0.861,-2.979 1.009,-3.063 l 0.131,0.02 0.598,0.719 -0.018,0.078 c -0.152,0.089 -0.3,0.188 -0.443,0.307 -0.13,0.108 -0.241,0.232 -0.353,0.355 L 0.85,-1.585 Z m -14.486,2.347 -0.071,0.004 -0.638,-0.641 -0.018,-0.117 c 0.088,-0.123 0.188,-0.242 0.299,-0.354 0.121,-0.121 0.25,-0.228 0.385,-0.322 l 0.125,0.01 0.638,0.637 -0.005,0.08 c -0.145,0.095 -0.28,0.205 -0.403,0.33 -0.119,0.115 -0.217,0.244 -0.312,0.373 m 1.636,2.525 c 0.173,0.094 0.274,0.123 0.357,0.276 0.079,0.152 0.099,0.178 0.144,0.286 0.049,0.114 0.103,0.242 -0.213,0.088 -0.207,-0.102 -3.664,-1.582 -3.88,-1.675 -0.213,-0.095 -0.28,-0.137 -0.324,-0.285 -0.044,-0.149 -0.068,-0.23 -0.079,-0.261 -0.041,-0.1 -0.092,-0.203 0.225,-0.059 0.094,0.045 3.6,1.539 3.77,1.63 M 7.627,-8.144 c -0.202,-0.1 -2.976,-1.305 -3.194,-1.4 -0.218,-0.095 -0.284,-0.137 -0.329,-0.285 -0.047,-0.15 -0.07,-0.231 -0.08,-0.26 -0.041,-0.099 -0.092,-0.199 0.224,-0.059 0.1,0.043 2.923,1.262 3.096,1.355 0.172,0.093 0.274,0.124 0.355,0.275 0.08,0.153 0.101,0.18 0.145,0.286 0.049,0.113 0.104,0.246 -0.217,0.088 M 8.824,1.144 C 8.799,1.398 8.76,1.441 8.904,1.57 9.047,1.699 9.371,1.961 9.199,2.201 9.024,2.439 8.723,2.852 8.637,3.107 8.564,3.324 8.5,3.504 8.391,3.334 8.264,3.141 8.211,3.025 8.037,2.799 7.945,2.68 7.854,2.623 7.955,2.441 8.094,2.197 8.274,1.783 8.301,1.478 8.314,1.318 8.354,0.971 8.404,0.643 8.469,0.213 9.246,-5.418 9.149,-5.537 9.057,-5.656 8.439,-6.18 7.375,-5.586 l -0.101,0.062 c 0.773,0.551 0.705,1.083 0.581,1.28 C 7.631,-3.887 5.59,-2.748 4.43,-4.588 4.303,-4.775 4.207,-5.219 4.477,-5.057 c 0.23,0.139 0.826,0.172 1.46,-0.226 L 6.086,-5.381 C 4.578,-6.359 3.236,-5.729 2.797,-5.455 2.834,-5.283 2.858,-5.143 2.863,-5.068 2.877,-4.77 2.688,-4.74 2.605,-5.041 2.523,-5.34 2.479,-5.727 2.332,-6.02 c -0.26,-0.519 -1.008,-0.115 -1.32,0.026 0.09,0.262 0.164,0.568 0.22,0.922 0.034,0.203 -0.091,0.373 -0.228,-0.053 -0.133,-0.414 -0.613,-1.647 -2.736,-0.936 0.029,0.248 0.179,0.805 -0.285,0.567 -0.503,-0.26 -1.723,-0.723 -2.426,-0.899 -0.461,-0.115 -0.534,-0.185 -0.463,-0.388 0.07,-0.201 0.193,-0.743 0.437,-0.664 0.051,0.017 0.137,0.045 0.242,0.08 -0.207,-0.549 -0.935,-2.241 -2.246,-2.78 -0.308,-0.119 -1.64,-0.488 -3.035,0.137 -0.172,0.055 -0.426,-0.084 -0.164,-0.262 0.26,-0.177 3.027,-1.67 4.682,0.049 0.381,0.387 0.922,1.641 1.275,2.983 v 0.033 c 0.281,0.09 0.527,0.17 0.527,0.17 0.153,0.053 0.755,0.31 1.092,0.457 1.035,-0.766 2.037,-1.028 2.694,-0.213 0.818,-0.756 1.414,-0.594 1.668,-0.205 0.105,0.16 0.222,0.465 0.324,0.787 1.301,-1.281 3.535,-0.047 4.039,0.309 0.172,-0.184 0.334,-0.372 0.379,-0.463 0.084,-0.168 0.559,-0.635 1.48,-0.475 0.311,0.053 1.104,0.42 1.055,1.813 C 9.516,-3.131 8.918,0.469 8.918,0.469 8.873,0.764 8.824,1.144 8.824,1.144 m -20.017,-4.628 c -0.127,0.587 -0.766,1.683 -0.766,1.683 -0.104,0.184 -0.197,0.305 -0.242,0.195 -0.045,-0.105 -0.197,-0.947 -0.197,-0.947 0.226,-0.326 1.105,-2.092 1.025,-2.4 -0.082,-0.309 -0.799,-1.86 -3.065,-1.74 -0.236,0.011 -2.538,0.345 -1.394,3.052 0.041,0.096 -0.061,0.291 -0.207,0.069 -0.191,-0.289 -1.324,-3.457 1.068,-4.045 0.407,-0.1 2.219,-0.274 3.533,1.295 0.157,0.187 0.612,1.131 0.245,2.838 m 3.617,-0.971 c -0.184,0.34 -0.449,0.601 -0.625,0.754 -0.342,0.291 -0.645,-0.133 -0.701,-0.315 -0.192,-0.593 0.82,-0.492 1.039,-0.476 0.093,0.008 0.189,0.021 0.287,0.037 m -1.362,-4.1 c -1.576,-0.652 -3.572,-0.226 -3.775,-0.181 -0.406,0.093 -0.232,0.359 0.111,0.306 3.625,-0.482 5.038,2.18 5.254,2.865 l 0.032,0.176 c -0.643,-0.129 -1.295,-0.136 -1.53,-0.064 -0.933,0.291 -0.756,1.693 0.008,2.611 0.775,0.932 1.52,-0.56 1.641,-0.863 0.822,-2.08 -0.375,-3.526 -0.504,-3.701 -0.36,-0.487 -0.74,-0.944 -1.237,-1.149 m 20.178,7.013 c 0.108,-0.788 0.481,-3.126 0.506,-4.792 0.006,-0.393 0.137,-0.489 0.229,-0.207 0.158,0.482 0.209,1.838 -0.034,3.813 C 11.822,-1.732 11.363,1.34 11.303,2.131 11.274,2.562 11.217,2.934 11.07,2.593 10.913,2.231 10.836,1.768 10.908,1.135 11.015,0.051 11.131,-0.762 11.24,-1.542 m -15.075,1.54 c 0.027,0.1 0.085,0.64 -0.17,0.966 -0.157,0.171 -0.33,0.181 -0.568,-0.187 -0.073,-0.111 -0.074,-0.226 0.085,-0.326 0.16,-0.098 0.653,-0.453 0.653,-0.453 m -2.289,-2.605 c -0.257,-0.123 -0.478,0.022 0.112,0.444 0.906,0.644 1.6,1.084 1.888,1.578 0,0 -0.551,0.355 -0.802,0.606 -0.251,0.253 0.068,0.951 0.316,1.224 0.634,0.714 0.937,0.242 1.012,0.114 0.308,-0.595 0.122,-1.341 0.033,-1.553 0,0 0.246,-0.185 0.317,-0.259 0.098,-0.105 0.054,-0.317 -0.075,-0.695 -0.046,-0.132 -0.191,0.229 -0.531,0.388 -0.267,-0.562 -0.56,-1.038 -2.27,-1.847 M 0.989,1.646 C 1.024,1.656 1.066,1.652 1.108,1.692 1.249,1.823 1.366,2.171 1.38,2.289 1.364,2.38 1.038,2.412 0.944,2.435 0.622,2.512 0.315,2.682 -0.02,2.703 -0.536,2.736 -1.017,2.504 -1.282,1.96 -1.312,1.889 -1.354,1.794 -1.383,1.723 c -0.032,-0.12 0.029,-0.2 0.092,-0.108 0.071,0.108 0.16,0.212 0.271,0.279 0.265,0.161 0.546,0.222 0.833,0.195 C 0.073,2.063 0.562,1.881 0.562,1.855 0.558,1.799 -0.576,1.237 -0.754,1.126 -0.831,1.077 -0.926,0.988 -0.909,0.899 -0.896,0.831 -0.786,0.816 -0.694,0.85 -0.248,1.011 -0.088,1 0.272,1.153 0.759,1.362 0.903,1.621 0.989,1.646 M 17.03,0.259 c -0.047,-0.106 -0.067,-0.132 -0.15,-0.283 -0.084,-0.15 -0.185,-0.18 -0.36,-0.271 -0.175,-0.088 -3.012,-1.259 -3.111,-1.302 -0.321,-0.136 -0.267,-0.037 -0.225,0.067 0.01,0.029 0.035,0.107 0.084,0.255 0.046,0.151 0.114,0.191 0.334,0.28 0.217,0.092 3.006,1.248 3.216,1.344 0.32,0.151 0.263,0.021 0.212,-0.09 m -1.126,-5.517 c -0.216,-0.016 -1.228,-0.115 -1.037,0.477 0.055,0.181 0.358,0.605 0.697,0.314 0.178,-0.154 0.446,-0.416 0.629,-0.756 z m -0.972,1.649 c -0.766,-0.916 -0.944,-2.321 -0.01,-2.61 0.234,-0.072 0.887,-0.064 1.531,0.065 L 16.422,-6.33 c -0.219,-0.688 -1.631,-3.346 -5.254,-2.867 -0.344,0.054 -0.522,-0.211 -0.113,-0.305 0.205,-0.047 2.199,-0.471 3.775,0.182 0.496,0.203 0.879,0.662 1.237,1.148 0.13,0.176 1.326,1.621 0.503,3.701 -0.119,0.301 -0.863,1.795 -1.638,0.862 m 5.353,6.771 c -0.15,0.095 -0.149,0.204 -0.08,0.311 0.227,0.349 0.391,0.338 0.54,0.176 0.242,-0.309 0.188,-0.823 0.161,-0.917 0,0 -0.469,0.337 -0.621,0.43 m 0.603,-1.15 c 0.323,-0.152 0.461,-0.494 0.505,-0.369 0.122,0.359 0.164,0.56 0.071,0.66 -0.068,0.07 -0.302,0.246 -0.302,0.246 0.086,0.201 0.262,0.91 -0.03,1.476 C 21.061,4.146 20.772,4.595 20.17,3.916 19.934,3.656 19.632,2.994 19.87,2.754 20.108,2.516 20.632,2.178 20.632,2.178 20.357,1.709 19.698,1.291 18.838,0.679 18.278,0.277 18.487,0.141 18.731,0.256 c 1.625,0.769 1.904,1.221 2.157,1.756 m 7.827,-8.362 c -0.043,-0.106 -0.064,-0.132 -0.143,-0.285 -0.078,-0.153 -0.179,-0.184 -0.352,-0.279 -0.17,-0.094 -2.727,-1.255 -2.824,-1.3 -0.318,-0.147 -0.266,-0.045 -0.228,0.057 0.011,0.031 0.033,0.11 0.077,0.259 0.044,0.151 0.109,0.193 0.325,0.29 0.217,0.094 2.726,1.241 2.93,1.344 0.316,0.16 0.263,0.029 0.215,-0.086 m 11.699,2.012 c 0.231,-1.114 0.018,-1.999 -0.135,-2.345 -0.151,-0.345 -0.941,-0.133 -1.259,-0.015 -0.459,0.171 -0.755,0.342 -0.898,0.432 -0.115,-0.341 -0.248,-0.686 -0.386,-0.942 -0.139,-0.214 -0.202,-0.241 -0.421,-0.21 -0.219,0.03 -1.146,0.351 -1.199,0.645 l -10e-4,0.023 c -0.567,-0.492 -1.568,-0.856 -3.349,-0.598 -0.486,-0.186 -0.92,-0.219 -1.029,-0.223 0,0 -1.613,-0.281 -1.903,1.631 -0.09,0.398 -0.326,2.165 -0.416,2.772 -0.092,0.606 -0.635,4.403 -0.716,4.875 l 0.226,0.788 c 0.027,0.064 0.055,0.19 0.154,-0.046 0.101,-0.234 1.061,-6.923 1.116,-7.429 0.19,-1.685 1.548,-1.659 1.775,-1.649 1.603,0.026 2.111,1.195 2.202,1.404 0.09,0.208 0.235,0.155 0.208,-0.055 -0.07,-0.586 -0.287,-1.021 -0.567,-1.346 0.59,-0.053 2.368,0.029 2.887,1.419 0.036,0.127 0.253,0.218 0.181,-0.109 -0.026,-0.112 -0.073,-0.459 -0.286,-0.841 0.292,-0.126 1.09,-0.469 1.195,-0.139 0.115,0.356 0.392,1.133 0.439,1.261 0.048,0.128 0.272,0.193 0.233,-0.027 -0.016,-0.086 -0.074,-0.328 -0.162,-0.63 0.208,-0.04 1.221,-0.232 1.567,-0.143 0.268,0.068 0.213,0.338 0.172,0.587 -0.041,0.249 -0.87,5.027 -0.952,5.424 -0.068,0.329 -0.066,0.599 -0.09,0.757 -0.023,0.152 -0.127,0.303 -0.243,0.529 -0.116,0.224 -0.02,0.472 0.027,0.547 0.05,0.076 0.244,0.271 0.386,0.577 0.067,0.144 0.153,-0.026 0.19,-0.179 0.035,-0.14 0.32,-0.609 0.444,-0.769 0.084,-0.109 0.148,-0.3 0.113,-0.38 C 39.849,1.107 39.646,0.817 39.604,0.762 39.571,0.716 39.542,0.634 39.561,0.456 c 0,0 0.727,-4.18 0.853,-4.794 m 2.314,0.955 c 0.24,-1.946 0.188,-3.279 0.029,-3.752 -0.092,-0.277 -0.224,-0.184 -0.229,0.2 -0.024,1.641 -0.395,3.945 -0.502,4.719 -0.11,0.766 -0.223,1.568 -0.332,2.633 -0.073,0.621 0.005,1.078 0.164,1.435 0.145,0.338 0.203,-0.03 0.23,-0.455 0.059,-0.779 0.518,-3.798 0.64,-4.78 M 26.849,-4.97 c 0.124,-0.125 0.257,-0.234 0.402,-0.33 l 0.007,-0.08 -0.637,-0.637 -0.127,-0.009 c -0.134,0.091 -0.263,0.201 -0.386,0.32 -0.11,0.111 -0.209,0.23 -0.297,0.355 l 0.018,0.118 0.637,0.638 0.07,-0.004 c 0.097,-0.127 0.195,-0.258 0.313,-0.371 m 0.136,-4.734 c -0.283,-0.129 -2.44,-0.749 -3.097,-0.878 -2.764,-0.555 -4.623,0.606 -4.79,3.15 -0.156,2.337 1.059,3.938 1.51,4.544 0.149,0.199 0.288,0.348 0.42,0.47 -0.486,0.507 -0.937,0.175 -1.045,0.061 -0.109,-0.119 -0.187,-0.044 -0.142,0.153 0.271,0.993 0.711,1.288 1.506,1.412 0.795,0.121 1.403,-0.251 1.513,-0.342 0.37,-0.265 0.132,-0.766 -0.045,-1.107 -0.06,-0.122 -0.229,-0.227 -0.461,-0.352 0.224,-0.127 0.397,-0.219 0.444,-0.236 2.006,-0.665 4.388,0.432 4.523,0.516 0.136,0.083 -0.438,0.89 -0.722,1.266 0,0 0.129,0.755 0.168,0.917 0.039,0.16 0.089,0.154 0.194,0.037 0.884,-0.871 0.794,-1.89 0.767,-2.2 -0.09,-0.71 -0.258,-0.798 -0.424,-0.888 -1.516,-0.754 -2.79,-0.784 -3.243,-0.784 -1.652,0.067 -2.071,0.43 -2.482,0.9 -0.726,-0.47 -1.603,-1.245 -1.953,-2.791 -0.361,-1.938 0.221,-3.165 1.744,-3.615 1.523,-0.452 4.957,0.076 5.526,0.128 0.569,0.053 0.375,-0.232 0.089,-0.361 m 4.623,10.043 c 0.011,0.031 0.035,0.111 0.078,0.261 0.044,0.15 0.11,0.192 0.325,0.288 0.218,0.095 4.719,1.931 4.924,2.034 0.315,0.16 0.262,0.029 0.214,-0.085 C 37.105,2.73 37.087,2.702 37.008,2.55 36.929,2.396 36.827,2.366 36.656,2.272 36.483,2.179 31.933,0.328 31.835,0.282 31.519,0.135 31.57,0.238 31.608,0.339 m 4.418,-1.402 c 0.059,-0.143 0.106,-0.311 0.099,-0.407 -0.228,-0.22 -0.474,-0.257 -0.65,-0.109 -0.114,0.094 -0.158,0.27 -0.146,0.502 0.008,0.166 0.028,0.228 -0.119,0.111 -0.191,-0.155 -0.139,-0.141 -0.149,-0.227 -0.068,-0.545 -0.301,-0.79 -0.722,-0.819 -0.266,-0.018 -0.461,0.165 -0.276,0.689 0.04,0.113 -0.039,0.231 -0.155,0 -0.395,-0.786 -0.155,-1.226 0.248,-1.286 0.329,-0.049 0.719,0.138 0.919,0.636 0.153,-0.253 0.461,-0.326 0.739,-0.253 0.359,0.093 0.438,0.259 0.537,0.548 0.101,0.28 0.105,0.65 -0.032,1.093 -0.021,0.073 -0.061,0.033 -0.08,-0.001 L 36.05,-0.951 c -0.024,-0.038 -0.039,-0.067 -0.024,-0.112 m 19.58,1.365 c -0.159,0.099 -0.157,0.215 -0.085,0.326 0.239,0.368 0.412,0.357 0.569,0.186 0.255,-0.326 0.197,-0.866 0.17,-0.965 0,0 -0.493,0.355 -0.654,0.453 m 0.634,-1.211 c 0.341,-0.159 0.486,-0.521 0.531,-0.388 0.128,0.378 0.173,0.59 0.076,0.694 -0.073,0.075 -0.318,0.259 -0.318,0.259 0.09,0.212 0.276,0.958 -0.032,1.554 -0.075,0.128 -0.378,0.6 -1.014,-0.114 -0.247,-0.274 -0.565,-0.971 -0.314,-1.224 0.251,-0.251 0.802,-0.606 0.802,-0.606 -0.288,-0.495 -0.983,-0.934 -1.888,-1.579 -0.59,-0.421 -0.369,-0.566 -0.112,-0.444 1.71,0.81 2.003,1.285 2.269,1.848 m -9.807,1.226 c -0.16,0.1 -0.159,0.215 -0.085,0.326 0.238,0.369 0.411,0.358 0.568,0.187 0.255,-0.326 0.197,-0.866 0.17,-0.966 0,0 -0.493,0.356 -0.653,0.453 m 0.634,-1.211 c 0.34,-0.159 0.485,-0.52 0.531,-0.387 0.129,0.378 0.173,0.59 0.075,0.694 -0.071,0.074 -0.318,0.259 -0.318,0.259 0.09,0.212 0.276,0.958 -0.032,1.554 -0.075,0.127 -0.378,0.599 -1.012,-0.115 -0.248,-0.273 -0.567,-0.97 -0.316,-1.223 0.251,-0.251 0.802,-0.607 0.802,-0.607 -0.288,-0.494 -0.983,-0.933 -1.888,-1.578 -0.59,-0.422 -0.369,-0.566 -0.112,-0.444 1.71,0.809 2.003,1.285 2.27,1.847 m 4.568,1.329 c 0.035,0.01 0.077,0.006 0.12,0.046 0.14,0.131 0.257,0.479 0.269,0.597 C 52.01,1.169 51.684,1.201 51.59,1.224 51.268,1.301 50.961,1.471 50.626,1.492 50.108,1.525 49.63,1.293 49.363,0.749 49.334,0.678 49.291,0.583 49.263,0.512 c -0.033,-0.119 0.029,-0.2 0.091,-0.108 0.072,0.108 0.161,0.212 0.272,0.28 0.265,0.16 0.546,0.221 0.833,0.194 0.26,-0.026 0.749,-0.208 0.748,-0.234 -0.004,-0.056 -1.138,-0.618 -1.315,-0.729 -0.078,-0.049 -0.172,-0.138 -0.156,-0.227 0.014,-0.068 0.122,-0.083 0.215,-0.049 0.446,0.161 0.607,0.15 0.967,0.303 0.486,0.209 0.631,0.468 0.717,0.493 m -5.908,-6.809 c -0.069,-0.146 -0.158,-0.395 -0.21,-0.54 -0.018,-0.052 0.022,-0.114 0.086,-0.077 0.36,0.22 0.899,0.493 1.47,0.695 0.52,0.184 0.928,0.303 1.305,0.324 0.058,0.009 0.366,0.551 0.413,0.629 0.064,0.102 0.018,0.135 -0.063,0.119 -0.438,-0.084 -0.778,-0.162 -1.307,-0.113 -0.654,0.058 -1.165,0.558 -1.148,0.754 0.015,0.149 0.479,0.446 0.652,0.42 0.501,-0.079 0.492,-0.52 0.627,-0.525 0.161,-0.005 0.489,0.573 0.509,0.73 0.021,0.172 -0.322,0.581 -0.649,0.601 -0.538,0.032 -1.45,-0.88 -1.808,-1.442 -0.13,-0.206 -0.118,-0.522 0.069,-0.683 0.166,-0.142 0.439,-0.292 0.749,-0.479 -0.151,-0.054 -0.548,-0.285 -0.695,-0.413 m 18.461,2.793 c -0.089,0.849 -0.449,3.473 -0.483,4.146 -0.013,0.37 -0.06,0.688 -0.219,0.403 -0.168,-0.305 -0.261,-0.698 -0.208,-1.235 0.074,-0.925 0.16,-1.621 0.244,-2.285 0.083,-0.672 0.382,-2.674 0.352,-4.092 -0.006,-0.332 0.12,-0.418 0.223,-0.179 0.174,0.402 0.268,1.552 0.091,3.242 m -4.303,-4.394 c -0.117,0.116 -0.218,0.244 -0.315,0.371 l -0.069,0.006 -0.637,-0.64 -0.017,-0.118 c 0.088,-0.125 0.187,-0.242 0.298,-0.353 0.121,-0.123 0.251,-0.229 0.385,-0.322 l 0.125,0.009 0.638,0.639 -0.006,0.078 c -0.145,0.096 -0.279,0.203 -0.402,0.33 m 2.968,3.1 c -0.435,0.027 -2.446,0.064 -3.624,0.715 0.117,0.099 0.372,0.428 0.28,1.252 -0.089,0.824 -0.419,3.179 -0.419,3.179 -0.027,0.247 -0.127,0.483 0.014,0.608 0.14,0.127 0.435,0.342 0.265,0.574 -0.17,0.232 -0.462,0.674 -0.547,0.924 -0.071,0.211 -0.134,0.387 -0.24,0.221 C 58.457,2.406 58.413,2.162 58.244,1.941 58.156,1.824 58.064,1.768 58.165,1.592 c 0.136,-0.239 0.272,-0.674 0.298,-0.973 0.012,-0.156 0.057,-0.494 0.101,-0.816 0,0 0.577,-2.977 0.531,-3.459 0,0 -2.383,-0.084 -2.694,-0.385 l -0.476,-0.742 c -0.04,-0.082 -0.036,-0.172 0.077,-0.155 0.113,0.02 1.578,0.489 3.635,-0.336 -0.243,-0.083 -2.959,-1.246 -5.253,-0.986 -0.344,0.01 -2.755,0.326 -2.954,1.549 -0.028,0.154 -0.068,0.211 -0.15,0.055 -0.073,-0.139 -0.742,-1.137 0.309,-1.854 -0.333,-0.703 -0.927,-1.656 -1.833,-2.029 -0.297,-0.111 -1.621,-0.451 -2.958,0.148 -0.165,0.053 -0.407,-0.08 -0.158,-0.25 0.251,-0.172 2.695,-1.734 4.282,-0.09 0.28,0.288 0.758,1.057 1.12,1.979 1.626,-0.885 4.33,-0.398 4.33,-0.398 0.588,0.125 1.204,0.298 1.842,0.544 0.335,0.137 2.636,1.178 4.194,0.815 0.325,-0.08 0.401,-0.08 0.401,-0.08 0,0 0.28,0.597 0.342,0.742 0.064,0.145 0.137,0.227 -0.298,0.254 m -11.548,2.896 c 0.125,-0.125 0.258,-0.234 0.403,-0.332 l 0.006,-0.078 -0.637,-0.636 -0.126,-0.01 c -0.135,0.092 -0.263,0.201 -0.386,0.32 -0.11,0.113 -0.21,0.231 -0.297,0.356 l 0.016,0.117 0.638,0.64 0.07,-0.005 c 0.096,-0.127 0.196,-0.256 0.313,-0.372"
         style="fill:#231f20;fill-opacity:1;fill-rule:evenodd;stroke:none"
         transform="matrix(1.3333333,0,0,-1.3333333,388.582,45.059333)"
         clip-path="url(#clipPath56)"
         id="path57" />
    </g>
  </g>
</svg>
