<?xml version="1.0" encoding="UTF-8" standalone="no"?>
<!-- Created with Inkscape (http://www.inkscape.org/) -->

<svg
   version="1.1"
   id="svg1"
   width="105.784"
   height="20.740753"
   viewBox="0 0 105.784 20.740753"
   xmlns="http://www.w3.org/2000/svg"
   xmlns:svg="http://www.w3.org/2000/svg">
  <defs
     id="defs1">
    <clipPath
       clipPathUnits="userSpaceOnUse"
       id="clipPath25">
      <path
         d="m 276.41,517.774 h 79.338 V 502.218 H 276.41 Z"
         transform="translate(-327.81351,-512.06841)"
         id="path25" />
    </clipPath>
    <clipPath
       clipPathUnits="userSpaceOnUse"
       id="clipPath27">
      <path
         d="M 0,547.086 H 382.677 V 0 H 0 Z"
         transform="matrix(1.3333333,0,0,-1.3333333,0,729.448)"
         id="path27" />
    </clipPath>
  </defs>
  <g
     id="layer-MC1"
     transform="translate(-368.54666,-39.08268)">
    <g
       id="g26"
       clip-path="url(#clipPath27)">
      <path
         d="m 0,0 -0.58,-0.694 -0.007,-0.118 c 0.1,-0.117 0.209,-0.227 0.329,-0.328 0.131,-0.108 0.27,-0.204 0.41,-0.284 l 0.125,0.019 0.579,0.692 -0.012,0.077 C 0.691,-0.553 0.549,-0.458 0.414,-0.342 0.288,-0.238 0.177,-0.118 0.068,0 Z m 0.247,-2.303 -0.023,-0.04 -0.289,0.21 c -0.13,0.109 -0.245,0.232 -0.353,0.354 l -0.077,-0.001 -0.6,-0.718 -0.008,-0.124 c 0.105,-0.12 0.216,-0.236 0.343,-0.34 0.132,-0.114 0.276,-0.213 0.426,-0.296 l 0.13,0.023 0.566,0.675 0.221,-0.207 C 0.719,-2.88 0.861,-2.979 1.009,-3.063 l 0.131,0.02 0.598,0.719 -0.018,0.078 c -0.153,0.09 -0.3,0.188 -0.443,0.307 -0.131,0.108 -0.242,0.232 -0.354,0.356 L 0.849,-1.584 Z m -35.023,3.492 -0.579,-0.693 -0.008,-0.118 c 0.099,-0.117 0.209,-0.228 0.328,-0.329 0.131,-0.108 0.27,-0.203 0.411,-0.283 l 0.125,0.019 0.579,0.691 -0.013,0.077 c -0.152,0.083 -0.296,0.179 -0.429,0.294 -0.127,0.105 -0.238,0.225 -0.346,0.343 z m 0.248,-2.303 -0.025,-0.039 -0.289,0.21 c -0.13,0.108 -0.244,0.231 -0.352,0.353 l -0.077,-0.001 -0.6,-0.717 -0.009,-0.124 c 0.105,-0.12 0.218,-0.236 0.344,-0.34 0.133,-0.114 0.276,-0.214 0.425,-0.296 l 0.13,0.022 0.566,0.675 0.221,-0.206 c 0.135,-0.113 0.279,-0.213 0.426,-0.296 l 0.131,0.02 0.599,0.719 -0.019,0.078 c -0.151,0.089 -0.299,0.188 -0.442,0.306 -0.13,0.109 -0.242,0.232 -0.354,0.355 h -0.074 z m -14.487,2.347 -0.07,0.004 -0.639,-0.641 -0.017,-0.117 c 0.088,-0.123 0.187,-0.242 0.299,-0.354 0.121,-0.121 0.25,-0.228 0.384,-0.322 l 0.125,0.01 0.639,0.637 -0.006,0.08 c -0.144,0.095 -0.279,0.205 -0.402,0.33 -0.119,0.115 -0.217,0.244 -0.313,0.373 m 1.637,2.525 c 0.173,0.094 0.274,0.123 0.357,0.276 0.079,0.152 0.098,0.178 0.144,0.286 0.049,0.114 0.103,0.242 -0.214,0.088 -0.207,-0.102 -3.663,-1.582 -3.88,-1.675 -0.213,-0.095 -0.279,-0.137 -0.323,-0.285 -0.045,-0.149 -0.068,-0.23 -0.079,-0.261 -0.041,-0.1 -0.093,-0.203 0.225,-0.059 0.093,0.045 3.599,1.539 3.77,1.63 m 20.229,-10.712 c -0.203,-0.1 -2.976,-1.305 -3.195,-1.4 -0.218,-0.095 -0.282,-0.137 -0.329,-0.285 -0.047,-0.15 -0.069,-0.231 -0.079,-0.26 -0.04,-0.099 -0.093,-0.199 0.224,-0.059 0.099,0.043 2.923,1.262 3.095,1.355 0.172,0.093 0.275,0.124 0.356,0.275 0.08,0.153 0.1,0.18 0.144,0.286 0.049,0.113 0.105,0.245 -0.216,0.088 m 1.197,9.288 c -0.026,0.254 -0.065,0.297 0.08,0.426 0.143,0.129 0.467,0.391 0.295,0.631 -0.174,0.238 -0.477,0.65 -0.563,0.906 -0.072,0.217 -0.136,0.397 -0.246,0.227 -0.127,-0.194 -0.179,-0.309 -0.353,-0.535 -0.092,-0.12 -0.184,-0.176 -0.082,-0.358 0.138,-0.244 0.32,-0.658 0.345,-0.963 0.014,-0.16 0.053,-0.507 0.104,-0.836 0.064,-0.429 0.842,-6.06 0.746,-6.179 -0.094,-0.119 -0.711,-0.643 -1.775,-0.049 l -0.1,0.062 c 0.772,0.551 0.703,1.082 0.58,1.28 -0.225,0.357 -2.266,1.496 -3.426,-0.344 -0.127,-0.188 -0.222,-0.631 0.047,-0.469 0.231,0.139 0.826,0.172 1.46,-0.226 l 0.15,-0.098 c -1.508,-0.979 -2.85,-0.348 -3.289,-0.074 0.037,0.172 0.062,0.312 0.066,0.386 0.014,0.299 -0.177,0.329 -0.258,0.028 -0.082,-0.299 -0.128,-0.686 -0.273,-0.979 -0.26,-0.519 -1.008,-0.115 -1.321,0.026 0.09,0.261 0.164,0.568 0.221,0.922 0.033,0.203 -0.092,0.373 -0.228,-0.053 -0.133,-0.414 -0.614,-1.647 -2.737,-0.936 0.03,0.248 0.18,0.805 -0.283,0.567 -0.504,-0.26 -1.725,-0.723 -2.428,-0.899 -0.461,-0.115 -0.533,-0.185 -0.463,-0.388 0.071,-0.202 0.194,-0.743 0.438,-0.665 0.051,0.018 0.137,0.045 0.242,0.081 -0.207,-0.549 -0.935,-2.241 -2.246,-2.78 -0.309,-0.119 -1.641,-0.488 -3.035,0.137 -0.172,0.055 -0.426,-0.084 -0.164,-0.262 0.26,-0.177 3.027,-1.67 4.681,0.049 0.381,0.387 0.922,1.641 1.276,2.983 v 0.033 c 0.281,0.09 0.526,0.17 0.526,0.17 0.153,0.052 0.757,0.31 1.093,0.457 1.035,-0.766 2.037,-1.028 2.693,-0.213 0.819,-0.756 1.414,-0.594 1.668,-0.205 0.106,0.16 0.223,0.465 0.324,0.787 1.301,-1.281 3.536,-0.047 4.04,0.308 0.171,-0.183 0.334,-0.371 0.378,-0.462 0.084,-0.168 0.559,-0.635 1.481,-0.475 0.31,0.053 1.103,0.42 1.055,1.812 -0.028,1.895 -0.625,5.495 -0.625,5.495 -0.045,0.294 -0.094,0.675 -0.094,0.675 M -45.97,-2.295 c -0.127,0.588 -0.765,1.684 -0.765,1.684 -0.104,0.184 -0.198,0.305 -0.243,0.195 -0.044,-0.105 -0.197,-0.947 -0.197,-0.947 0.227,-0.326 1.106,-2.092 1.026,-2.4 -0.082,-0.309 -0.799,-1.86 -3.066,-1.741 -0.235,0.012 -2.536,0.346 -1.393,3.053 0.041,0.096 -0.061,0.291 -0.207,0.069 -0.192,-0.29 -1.325,-3.457 1.068,-4.045 0.406,-0.1 2.219,-0.274 3.532,1.295 0.157,0.187 0.612,1.13 0.245,2.837 m 3.617,-0.97 c -0.183,0.34 -0.449,0.601 -0.625,0.754 -0.341,0.291 -0.644,-0.133 -0.701,-0.315 -0.191,-0.594 0.821,-0.492 1.039,-0.476 0.094,0.007 0.19,0.021 0.287,0.037 m -1.362,-4.1 c -1.575,-0.652 -3.571,-0.226 -3.774,-0.182 -0.407,0.094 -0.233,0.36 0.111,0.307 3.625,-0.482 5.037,2.18 5.254,2.865 l 0.031,0.176 c -0.642,-0.129 -1.295,-0.137 -1.529,-0.064 -0.934,0.291 -0.756,1.693 0.008,2.611 0.775,0.932 1.519,-0.561 1.64,-0.863 0.823,-2.08 -0.375,-3.526 -0.504,-3.701 -0.359,-0.487 -0.74,-0.944 -1.237,-1.149 m 20.179,7.013 c 0.107,-0.788 0.48,-3.126 0.506,-4.792 0.006,-0.393 0.136,-0.489 0.228,-0.207 0.158,0.482 0.209,1.838 -0.032,3.813 -0.12,0.996 -0.579,4.068 -0.64,4.859 -0.027,0.431 -0.086,0.802 -0.232,0.462 -0.157,-0.362 -0.234,-0.826 -0.162,-1.458 0.106,-1.084 0.222,-1.897 0.332,-2.677 m -15.075,1.54 c 0.027,0.099 0.085,0.639 -0.17,0.966 -0.157,0.171 -0.33,0.181 -0.569,-0.187 -0.073,-0.111 -0.074,-0.226 0.085,-0.326 0.161,-0.098 0.654,-0.453 0.654,-0.453 M -40.9,-1.418 c -0.257,-0.122 -0.478,0.023 0.112,0.445 0.905,0.644 1.6,1.084 1.888,1.578 0,0 -0.551,0.355 -0.802,0.606 -0.251,0.253 0.067,0.95 0.315,1.224 0.635,0.714 0.938,0.242 1.013,0.114 0.308,-0.596 0.122,-1.342 0.032,-1.554 0,0 0.246,-0.184 0.318,-0.258 0.097,-0.105 0.053,-0.317 -0.076,-0.695 -0.046,-0.132 -0.19,0.229 -0.532,0.388 -0.265,-0.562 -0.558,-1.038 -2.268,-1.848 m 7.113,4.254 c 0.035,0.01 0.077,0.006 0.12,0.046 0.14,0.131 0.257,0.479 0.271,0.597 -0.016,0.091 -0.342,0.123 -0.436,0.145 -0.322,0.078 -0.629,0.247 -0.964,0.269 -0.517,0.033 -0.996,-0.199 -1.263,-0.743 -0.03,-0.072 -0.073,-0.166 -0.1,-0.238 -0.032,-0.119 0.029,-0.199 0.092,-0.107 0.071,0.107 0.16,0.212 0.271,0.279 0.265,0.16 0.546,0.222 0.832,0.195 0.261,-0.026 0.75,-0.208 0.75,-0.234 -0.005,-0.056 -1.139,-0.618 -1.316,-0.729 -0.077,-0.049 -0.172,-0.138 -0.156,-0.227 0.013,-0.068 0.123,-0.083 0.215,-0.05 0.447,0.162 0.607,0.151 0.967,0.304 0.486,0.209 0.631,0.468 0.717,0.493 m 16.041,-1.387 c -0.047,-0.106 -0.067,-0.132 -0.15,-0.284 -0.084,-0.149 -0.185,-0.179 -0.361,-0.27 -0.175,-0.088 -3.012,-1.259 -3.11,-1.302 -0.321,-0.137 -0.268,-0.037 -0.226,0.067 0.011,0.029 0.035,0.107 0.084,0.254 0.047,0.152 0.114,0.192 0.334,0.281 0.218,0.091 3.008,1.248 3.217,1.343 0.319,0.152 0.263,0.022 0.212,-0.089 m -1.126,-5.517 c -0.218,-0.016 -1.229,-0.115 -1.037,0.477 0.055,0.181 0.357,0.605 0.697,0.314 0.178,-0.154 0.445,-0.416 0.629,-0.756 z m -0.973,1.648 c -0.765,-0.916 -0.943,-2.32 -0.009,-2.609 0.234,-0.072 0.886,-0.064 1.531,0.065 l -0.031,-0.176 c -0.219,-0.688 -1.631,-3.346 -5.254,-2.867 -0.344,0.054 -0.522,-0.211 -0.114,-0.305 0.205,-0.047 2.2,-0.471 3.776,0.181 0.496,0.204 0.879,0.663 1.238,1.149 0.129,0.176 1.324,1.621 0.502,3.701 -0.119,0.301 -0.863,1.795 -1.639,0.861 m 12.017,0.45 c 0.142,0.218 0.271,0.382 0.381,0.437 0.402,0.199 0.699,0.145 0.867,-0.168 0.168,-0.316 0.516,-1.004 0.234,-0.93 -0.256,0.069 -1.229,0.297 -1.482,0.661 m 1.839,-1.582 c 0.101,0.23 0.231,0.529 0.242,0.724 0.012,0.194 0.023,1.391 -0.163,1.889 -0.148,0.476 -0.771,0.76 -1.135,0.471 -0.832,-0.75 -1.094,-1.364 -1.387,-1.739 -0.245,-0.312 -1.022,-1.236 -2.154,-0.685 -0.214,0.437 -0.426,0.803 -0.426,0.803 -0.112,0.201 -0.216,0.33 -0.264,0.212 -0.048,-0.117 -0.214,-1.031 -0.214,-1.031 0.246,-0.357 1.203,-2.279 1.114,-2.615 -0.088,-0.336 -0.868,-2.022 -3.335,-1.895 -0.257,0.016 -2.763,0.377 -1.518,3.325 0.043,0.107 -0.066,0.318 -0.227,0.076 -0.207,-0.317 -1.44,-3.764 1.163,-4.406 0.442,-0.11 2.416,-0.297 3.849,1.41 0.164,0.195 0.629,1.162 0.301,2.896 0.291,-0.002 0.585,0.074 0.899,0.24 0.295,0.186 0.576,0.567 0.834,0.969 L -8.34,-3 c 0.383,-0.295 1.671,-0.754 1.943,-0.756 0.271,0 0.306,-0.025 0.408,0.204 M 4.296,-3.31 C 4.514,-4.599 4.045,-5.615 3.944,-5.773 3.386,-6.574 2.401,-5.873 2.199,-5.75 1.998,-5.623 1.822,-5.713 1.576,-5.853 c -1.884,-1.162 -3.343,-0.981 -3.651,-0.944 -1.705,0.194 -1.846,2.272 -1.911,2.854 -0.073,0.656 -0.373,3.949 -0.646,4.994 -0.089,0.412 0.091,1.084 0.13,1.277 0.037,0.194 0.129,0.258 0.206,-0.039 0.078,-0.295 0.775,-5.537 0.853,-6.078 0.257,-1.795 1.315,-1.896 1.689,-1.988 1.653,-0.193 3.317,0.75 3.588,0.941 0.271,0.196 0.568,0.028 0.711,-0.039 C 2.687,-4.937 3.254,-5.17 3.603,-5.22 3.951,-5.273 3.979,-4.757 3.938,-4.433 3.9,-4.111 3.202,-0.109 3.167,0.135 3.093,0.643 3.011,1.008 2.99,1.106 2.923,1.434 2.926,1.707 2.9,1.864 2.877,2.016 2.773,2.166 2.657,2.393 2.542,2.618 2.638,2.864 2.685,2.94 2.734,3.014 2.929,3.209 3.07,3.516 3.139,3.661 3.224,3.491 3.261,3.338 3.295,3.198 3.58,2.727 3.704,2.567 3.789,2.457 3.853,2.266 3.817,2.188 3.749,2.037 3.547,1.746 3.505,1.692 3.472,1.647 3.442,1.565 3.461,1.385 c 0,0 0.744,-4.154 0.835,-4.695 m -8.761,-3.173 c -0.042,-0.11 -0.059,-0.138 -0.136,-0.29 -0.077,-0.155 -0.177,-0.189 -0.347,-0.285 -0.17,-0.097 -3.111,-1.375 -3.208,-1.424 -0.314,-0.151 -0.263,-0.047 -0.228,0.055 0.011,0.032 0.032,0.11 0.073,0.261 0.042,0.151 0.107,0.196 0.32,0.294 0.216,0.098 3.109,1.362 3.31,1.471 0.314,0.162 0.263,0.032 0.216,-0.082 m 1.806,10.115 c 0.013,0.029 0.038,0.111 0.087,0.257 0.051,0.147 0.116,0.188 0.335,0.275 0.221,0.09 3.406,1.377 3.612,1.476 C 1.697,5.786 1.64,5.66 1.588,5.546 1.539,5.439 1.52,5.414 1.435,5.266 1.352,5.113 1.248,5.087 1.073,4.999 0.899,4.91 -2.335,3.61 -2.435,3.568 -2.756,3.428 -2.701,3.532 -2.659,3.632 m 9.07,-6.225 C 6.649,-4.397 6.597,-5.641 6.437,-6.081 6.345,-6.34 6.216,-6.251 6.209,-5.893 6.187,-4.372 5.819,-2.228 5.711,-1.507 5.603,-0.798 5.49,-0.051 5.383,0.94 5.312,1.516 5.39,1.941 5.548,2.273 5.694,2.587 5.753,2.247 5.78,1.853 5.839,1.128 6.29,-1.681 6.411,-2.593 M -13.095,-1 c 0.124,-0.127 0.258,-0.236 0.403,-0.33 l 0.006,-0.08 -0.638,-0.637 -0.125,-0.007 c -0.135,0.09 -0.265,0.197 -0.386,0.318 -0.11,0.111 -0.21,0.23 -0.298,0.355 l 0.018,0.118 0.636,0.64 0.07,-0.006 c 0.097,-0.125 0.197,-0.255 0.314,-0.371 m -1.175,4.017 c -0.15,0.095 -0.149,0.204 -0.08,0.311 0.226,0.349 0.391,0.338 0.54,0.176 0.243,-0.309 0.188,-0.824 0.162,-0.917 0,0 -0.469,0.338 -0.622,0.43 m 0.603,-1.15 c 0.323,-0.152 0.461,-0.495 0.505,-0.369 0.122,0.359 0.164,0.56 0.07,0.66 -0.066,0.07 -0.301,0.246 -0.301,0.246 0.086,0.201 0.261,0.91 -0.031,1.476 -0.07,0.121 -0.358,0.57 -0.961,-0.109 -0.236,-0.26 -0.539,-0.922 -0.3,-1.162 0.239,-0.239 0.761,-0.576 0.761,-0.576 -0.273,-0.469 -0.932,-0.887 -1.793,-1.499 -0.559,-0.402 -0.35,-0.539 -0.106,-0.423 1.625,0.769 1.902,1.221 2.156,1.756 M 0.469,2.492 C 0.527,2.348 0.574,2.18 0.567,2.084 0.34,1.864 0.094,1.827 -0.083,1.975 -0.196,2.069 -0.239,2.245 -0.229,2.477 -0.221,2.643 -0.2,2.705 -0.348,2.588 -0.539,2.433 -0.486,2.447 -0.497,2.361 -0.564,1.816 -0.798,1.571 -1.219,1.542 -1.484,1.524 -1.68,1.707 -1.494,2.231 c 0.039,0.113 -0.039,0.231 -0.155,0 C -2.045,1.445 -1.805,1.005 -1.401,0.945 -1.072,0.896 -0.683,1.083 -0.482,1.581 -0.33,1.328 -0.021,1.255 0.257,1.328 0.615,1.421 0.694,1.587 0.793,1.876 0.895,2.157 0.898,2.526 0.762,2.969 0.74,3.042 0.7,3.002 0.682,2.968 L 0.492,2.603 C 0.469,2.565 0.452,2.536 0.469,2.492 m 18.789,-1 c -0.159,0.099 -0.157,0.214 -0.085,0.326 0.237,0.368 0.411,0.357 0.568,0.186 0.254,-0.326 0.197,-0.866 0.169,-0.966 0,0 -0.492,0.356 -0.652,0.454 m 0.634,-1.211 c 0.34,-0.16 0.485,-0.521 0.531,-0.388 0.129,0.378 0.173,0.59 0.075,0.694 -0.071,0.074 -0.317,0.259 -0.317,0.259 0.09,0.212 0.275,0.958 -0.033,1.554 C 20.073,2.528 19.771,2.999 19.136,2.286 18.888,2.012 18.569,1.315 18.82,1.062 19.071,0.811 19.622,0.455 19.622,0.455 19.334,-0.039 18.64,-0.478 17.734,-1.123 c -0.589,-0.422 -0.369,-0.566 -0.112,-0.444 1.71,0.81 2.003,1.285 2.27,1.848 m -9.808,1.226 c -0.159,0.1 -0.157,0.215 -0.085,0.326 0.238,0.369 0.411,0.358 0.568,0.187 0.255,-0.326 0.198,-0.866 0.17,-0.966 0,0 -0.494,0.356 -0.653,0.453 m 0.634,-1.211 c 0.341,-0.159 0.484,-0.52 0.531,-0.387 0.129,0.377 0.173,0.589 0.075,0.694 -0.071,0.074 -0.317,0.259 -0.317,0.259 0.09,0.212 0.275,0.958 -0.032,1.553 C 10.899,2.543 10.597,3.015 9.962,2.301 9.714,2.028 9.396,1.33 9.646,1.077 9.897,0.827 10.448,0.471 10.448,0.471 10.16,-0.023 9.466,-0.463 8.561,-1.107 7.971,-1.529 8.191,-1.673 8.448,-1.551 c 1.71,0.809 2.003,1.285 2.27,1.847 m 4.567,1.329 c 0.036,0.01 0.078,0.006 0.121,0.046 0.14,0.131 0.257,0.479 0.271,0.597 C 15.66,2.359 15.335,2.391 15.241,2.413 14.919,2.491 14.612,2.661 14.277,2.682 13.761,2.715 13.281,2.483 13.015,1.939 12.985,1.868 12.942,1.773 12.914,1.702 c -0.032,-0.12 0.029,-0.2 0.092,-0.108 0.071,0.108 0.16,0.212 0.271,0.279 0.265,0.161 0.546,0.222 0.833,0.195 C 14.37,2.042 14.859,1.86 14.858,1.834 14.854,1.778 13.721,1.216 13.543,1.105 13.466,1.056 13.371,0.967 13.388,0.878 13.401,0.81 13.511,0.795 13.603,0.828 14.049,0.99 14.209,0.979 14.569,1.132 15.056,1.341 15.2,1.6 15.285,1.625 M 9.378,-5.184 C 9.31,-5.33 9.221,-5.579 9.168,-5.724 9.15,-5.776 9.19,-5.839 9.254,-5.801 c 0.36,0.22 0.899,0.493 1.471,0.695 0.518,0.184 0.927,0.303 1.304,0.324 0.058,0.009 0.367,0.551 0.413,0.629 0.065,0.102 0.018,0.135 -0.063,0.119 -0.438,-0.084 -0.777,-0.162 -1.307,-0.113 -0.654,0.058 -1.165,0.558 -1.147,0.754 0.014,0.149 0.478,0.446 0.651,0.42 0.501,-0.079 0.492,-0.52 0.626,-0.525 0.162,-0.006 0.49,0.573 0.51,0.73 0.021,0.172 -0.321,0.581 -0.649,0.6 -0.538,0.033 -1.45,-0.88 -1.808,-1.441 C 9.125,-3.815 9.138,-4.131 9.324,-4.293 9.49,-4.434 9.764,-4.584 10.073,-4.771 9.922,-4.825 9.525,-5.056 9.378,-5.184 M 27.84,-2.391 C 27.75,-1.542 27.391,1.081 27.356,1.755 27.343,2.124 27.296,2.443 27.138,2.158 26.97,1.853 26.876,1.46 26.93,0.923 c 0.073,-0.926 0.16,-1.621 0.244,-2.285 0.083,-0.672 0.382,-2.674 0.351,-4.092 -0.005,-0.332 0.121,-0.418 0.223,-0.179 0.175,0.402 0.269,1.552 0.092,3.242 m -4.304,-4.394 c -0.117,0.115 -0.218,0.244 -0.314,0.371 l -0.07,0.006 -0.636,-0.64 -0.018,-0.118 c 0.088,-0.125 0.188,-0.242 0.298,-0.353 0.121,-0.123 0.251,-0.229 0.386,-0.322 l 0.125,0.009 0.637,0.639 -0.006,0.078 c -0.145,0.096 -0.279,0.203 -0.402,0.33 m 2.968,3.1 c -0.435,0.027 -2.445,0.064 -3.624,0.715 0.117,0.099 0.372,0.427 0.28,1.252 -0.089,0.824 -0.419,3.179 -0.419,3.179 -0.026,0.246 -0.127,0.483 0.014,0.608 0.141,0.127 0.435,0.342 0.266,0.574 -0.17,0.232 -0.462,0.674 -0.547,0.924 -0.072,0.211 -0.134,0.386 -0.241,0.22 -0.125,-0.191 -0.169,-0.435 -0.337,-0.656 -0.088,-0.117 -0.18,-0.174 -0.08,-0.349 0.135,-0.239 0.272,-0.674 0.298,-0.973 0.012,-0.156 0.057,-0.494 0.102,-0.816 0,0 0.576,-2.977 0.53,-3.459 0,0 -2.383,-0.084 -2.692,-0.385 l -0.478,-0.742 c -0.041,-0.082 -0.036,-0.172 0.077,-0.155 0.114,0.02 1.578,0.489 3.635,-0.336 -0.243,-0.084 -2.959,-1.246 -5.253,-0.986 -0.344,0.01 -2.755,0.326 -2.954,1.549 -0.027,0.154 -0.067,0.211 -0.149,0.055 -0.074,-0.139 -0.743,-1.137 0.308,-1.854 -0.333,-0.703 -0.927,-1.656 -1.833,-2.029 -0.297,-0.112 -1.622,-0.451 -2.958,0.148 -0.165,0.053 -0.407,-0.08 -0.158,-0.25 0.251,-0.172 2.695,-1.734 4.282,-0.09 0.281,0.287 0.758,1.057 1.12,1.979 1.626,-0.885 4.33,-0.399 4.33,-0.399 0.588,0.125 1.205,0.299 1.842,0.545 0.335,0.137 2.636,1.178 4.195,0.815 0.326,-0.08 0.4,-0.08 0.4,-0.08 0,0 0.28,0.597 0.344,0.742 0.062,0.144 0.135,0.226 -0.3,0.254 m -11.548,2.896 c 0.125,-0.125 0.258,-0.234 0.403,-0.332 l 0.006,-0.078 -0.636,-0.637 -0.126,-0.009 c -0.135,0.091 -0.264,0.201 -0.386,0.32 -0.111,0.113 -0.21,0.23 -0.298,0.355 l 0.017,0.118 0.637,0.64 0.071,-0.006 c 0.095,-0.127 0.196,-0.255 0.312,-0.371"
         style="fill:#231f20;fill-opacity:1;fill-rule:nonzero;stroke:none"
         transform="matrix(1.3333333,0,0,-1.3333333,437.08467,46.690133)"
         clip-path="url(#clipPath25)"
         id="path26" />
    </g>
  </g>
</svg>
