<?xml version="1.0" encoding="UTF-8" standalone="no"?>
<!-- Created with Inkscape (http://www.inkscape.org/) -->

<svg
   version="1.1"
   id="svg1"
   width="109.03067"
   height="20.531998"
   viewBox="0 0 109.03067 20.531998"
   xmlns="http://www.w3.org/2000/svg"
   xmlns:svg="http://www.w3.org/2000/svg">
  <defs
     id="defs1">
    <clipPath
       clipPathUnits="userSpaceOnUse"
       id="clipPath40">
      <path
         d="m 273.975,516.661 h 81.773 v -15.399 h -81.773 z"
         transform="translate(-290.60161,-513.25981)"
         id="path40" />
    </clipPath>
    <clipPath
       clipPathUnits="userSpaceOnUse"
       id="clipPath42">
      <path
         d="M 0,547.086 H 382.677 V 0 H 0 Z"
         transform="matrix(1.3333333,0,0,-1.3333333,0,729.448)"
         id="path42" />
    </clipPath>
  </defs>
  <g
     id="layer-MC1"
     transform="translate(-365.29999,-40.566681)">
    <g
       id="g41"
       clip-path="url(#clipPath42)">
      <path
         d="m 0,0 -0.58,-0.694 -0.006,-0.118 c 0.099,-0.117 0.208,-0.227 0.328,-0.328 0.131,-0.108 0.27,-0.204 0.41,-0.284 l 0.125,0.019 0.579,0.692 -0.013,0.077 C 0.691,-0.553 0.549,-0.458 0.414,-0.342 0.288,-0.238 0.177,-0.118 0.068,0 Z m 0.248,-2.303 -0.024,-0.04 -0.289,0.21 c -0.13,0.109 -0.245,0.232 -0.352,0.354 l -0.078,-0.001 -0.6,-0.718 -0.008,-0.124 c 0.105,-0.12 0.217,-0.236 0.343,-0.34 0.133,-0.114 0.276,-0.213 0.426,-0.296 l 0.13,0.023 0.566,0.675 0.221,-0.207 C 0.719,-2.88 0.862,-2.979 1.009,-3.063 l 0.131,0.02 0.598,0.719 -0.018,0.078 c -0.152,0.09 -0.301,0.188 -0.442,0.307 -0.131,0.108 -0.242,0.232 -0.355,0.356 L 0.849,-1.584 Z m -14.486,2.346 -0.071,0.004 -0.638,-0.64 -0.017,-0.118 c 0.087,-0.123 0.187,-0.242 0.297,-0.353 0.122,-0.121 0.25,-0.229 0.386,-0.322 l 0.125,0.009 0.638,0.637 -0.005,0.08 c -0.145,0.096 -0.279,0.205 -0.402,0.33 -0.12,0.116 -0.218,0.244 -0.313,0.373 m 1.636,2.526 c 0.174,0.093 0.274,0.123 0.357,0.275 0.078,0.152 0.099,0.179 0.144,0.286 0.05,0.114 0.102,0.242 -0.213,0.088 -0.207,-0.101 -3.664,-1.582 -3.88,-1.675 -0.213,-0.094 -0.279,-0.136 -0.324,-0.285 -0.044,-0.148 -0.068,-0.229 -0.078,-0.261 -0.041,-0.099 -0.093,-0.203 0.223,-0.058 0.095,0.045 3.601,1.539 3.771,1.63 M 7.627,-8.143 C 7.425,-8.244 4.652,-9.449 4.433,-9.544 4.215,-9.638 4.15,-9.68 4.104,-9.829 c -0.047,-0.149 -0.069,-0.23 -0.08,-0.26 -0.04,-0.098 -0.092,-0.199 0.224,-0.058 0.1,0.043 2.922,1.262 3.096,1.354 0.172,0.093 0.275,0.124 0.355,0.276 0.08,0.152 0.101,0.179 0.145,0.286 0.049,0.112 0.104,0.245 -0.217,0.088 M 8.824,1.145 C 8.799,1.399 8.76,1.442 8.904,1.571 9.047,1.7 9.371,1.961 9.199,2.202 9.025,2.44 8.723,2.852 8.637,3.108 8.564,3.325 8.5,3.504 8.391,3.334 8.264,3.141 8.211,3.026 8.037,2.799 7.945,2.68 7.854,2.623 7.955,2.442 8.094,2.198 8.275,1.784 8.301,1.479 8.314,1.319 8.354,0.971 8.404,0.643 8.469,0.213 9.246,-5.418 9.15,-5.537 9.057,-5.656 8.439,-6.179 7.375,-5.586 l -0.1,0.063 c 0.772,0.551 0.704,1.082 0.58,1.279 -0.224,0.358 -2.265,1.496 -3.425,-0.344 -0.127,-0.187 -0.223,-0.63 0.047,-0.468 0.23,0.138 0.826,0.172 1.46,-0.227 L 6.085,-5.381 C 4.578,-6.359 3.237,-5.728 2.797,-5.455 2.833,-5.283 2.86,-5.142 2.864,-5.068 2.876,-4.769 2.688,-4.74 2.605,-5.041 2.523,-5.339 2.479,-5.726 2.332,-6.019 c -0.259,-0.52 -1.007,-0.115 -1.32,0.025 0.09,0.262 0.164,0.569 0.22,0.922 0.034,0.203 -0.091,0.373 -0.229,-0.053 -0.132,-0.414 -0.612,-1.646 -2.735,-0.935 0.029,0.248 0.18,0.804 -0.283,0.566 -0.505,-0.26 -1.725,-0.722 -2.428,-0.898 -0.461,-0.115 -0.534,-0.186 -0.463,-0.389 0.07,-0.201 0.193,-0.742 0.438,-0.664 0.05,0.018 0.135,0.045 0.241,0.08 -0.207,-0.549 -0.935,-2.24 -2.245,-2.779 -0.309,-0.119 -1.641,-0.488 -3.035,0.137 -0.172,0.054 -0.427,-0.084 -0.165,-0.262 0.26,-0.178 3.027,-1.67 4.682,0.049 0.381,0.386 0.922,1.64 1.276,2.982 v 0.033 c 0.28,0.09 0.526,0.17 0.526,0.17 0.153,0.053 0.757,0.311 1.093,0.457 1.034,-0.765 2.036,-1.027 2.693,-0.213 0.818,-0.756 1.414,-0.593 1.668,-0.205 0.105,0.16 0.223,0.465 0.324,0.787 1.301,-1.281 3.535,-0.047 4.038,0.309 0.173,-0.184 0.335,-0.371 0.38,-0.463 0.084,-0.168 0.558,-0.635 1.48,-0.475 0.311,0.053 1.104,0.42 1.055,1.813 C 9.516,-3.131 8.918,0.469 8.918,0.469 8.873,0.764 8.824,1.145 8.824,1.145 m -20.017,-4.629 c -0.127,0.588 -0.766,1.684 -0.766,1.684 -0.104,0.183 -0.197,0.304 -0.242,0.195 -0.045,-0.106 -0.197,-0.947 -0.197,-0.947 0.226,-0.327 1.105,-2.092 1.024,-2.401 -0.082,-0.308 -0.798,-1.859 -3.064,-1.74 -0.235,0.012 -2.537,0.346 -1.395,3.053 0.041,0.095 -0.06,0.291 -0.207,0.068 -0.19,-0.289 -1.323,-3.457 1.07,-4.045 0.406,-0.099 2.218,-0.273 3.532,1.295 0.157,0.188 0.612,1.131 0.245,2.838 m 3.617,-0.971 c -0.183,0.34 -0.449,0.602 -0.625,0.754 -0.342,0.291 -0.644,-0.133 -0.701,-0.314 -0.191,-0.594 0.819,-0.492 1.039,-0.477 0.093,0.008 0.19,0.022 0.287,0.037 m -1.362,-4.099 c -1.575,-0.653 -3.571,-0.227 -3.775,-0.182 -0.406,0.094 -0.232,0.359 0.111,0.307 3.625,-0.483 5.038,2.179 5.255,2.865 l 0.031,0.176 c -0.643,-0.129 -1.295,-0.137 -1.529,-0.065 -0.934,0.291 -0.757,1.694 0.007,2.612 0.775,0.931 1.52,-0.561 1.641,-0.864 0.822,-2.08 -0.375,-3.525 -0.504,-3.701 -0.36,-0.486 -0.74,-0.943 -1.237,-1.148 m 20.178,7.012 c 0.108,-0.788 0.481,-3.126 0.506,-4.792 0.006,-0.392 0.137,-0.489 0.229,-0.207 0.158,0.483 0.209,1.838 -0.033,3.814 -0.12,0.996 -0.579,4.067 -0.639,4.858 C 11.275,2.563 11.217,2.934 11.07,2.593 10.913,2.232 10.836,1.768 10.908,1.135 11.015,0.051 11.131,-0.761 11.24,-1.542 m -15.075,1.54 c 0.027,0.1 0.085,0.64 -0.17,0.966 -0.157,0.171 -0.33,0.182 -0.568,-0.186 -0.073,-0.112 -0.074,-0.227 0.085,-0.326 0.16,-0.098 0.653,-0.454 0.653,-0.454 m -2.29,-2.605 c -0.256,-0.122 -0.477,0.022 0.114,0.444 0.905,0.645 1.599,1.084 1.886,1.578 0,0 -0.549,0.356 -0.8,0.607 -0.251,0.253 0.067,0.95 0.315,1.223 0.634,0.714 0.937,0.243 1.013,0.115 0.306,-0.596 0.121,-1.342 0.032,-1.554 0,0 0.246,-0.185 0.316,-0.259 0.099,-0.104 0.055,-0.316 -0.074,-0.694 -0.046,-0.133 -0.19,0.228 -0.531,0.388 -0.267,-0.563 -0.561,-1.038 -2.271,-1.848 M 0.99,1.647 C 1.024,1.657 1.066,1.653 1.109,1.693 1.249,1.824 1.367,2.171 1.38,2.289 1.365,2.38 1.038,2.412 0.945,2.435 0.622,2.512 0.315,2.682 -0.02,2.703 -0.536,2.737 -1.015,2.504 -1.282,1.96 c -0.03,-0.071 -0.072,-0.166 -0.1,-0.237 -0.034,-0.119 0.028,-0.199 0.09,-0.107 0.073,0.107 0.161,0.211 0.272,0.279 0.265,0.16 0.547,0.222 0.833,0.194 C 0.074,2.064 0.562,1.881 0.562,1.856 0.558,1.799 -0.576,1.238 -0.754,1.126 -0.832,1.077 -0.925,0.989 -0.909,0.9 -0.896,0.831 -0.786,0.817 -0.694,0.85 -0.249,1.011 -0.088,1 0.272,1.154 0.759,1.363 0.904,1.621 0.99,1.647 M 17.03,0.259 c -0.047,-0.105 -0.067,-0.132 -0.15,-0.283 -0.084,-0.149 -0.185,-0.18 -0.36,-0.271 -0.175,-0.087 -3.012,-1.258 -3.111,-1.301 -0.321,-0.137 -0.267,-0.037 -0.225,0.066 0.01,0.029 0.035,0.108 0.084,0.255 0.046,0.151 0.114,0.191 0.334,0.28 0.217,0.092 3.007,1.248 3.216,1.344 0.32,0.151 0.263,0.021 0.212,-0.09 m -1.126,-5.516 c -0.216,-0.016 -1.228,-0.116 -1.037,0.476 0.055,0.182 0.358,0.606 0.697,0.315 0.178,-0.155 0.446,-0.416 0.629,-0.756 z m -0.972,1.648 c -0.766,-0.916 -0.944,-2.32 -0.01,-2.609 0.234,-0.073 0.887,-0.065 1.531,0.064 L 16.422,-6.33 c -0.219,-0.687 -1.631,-3.345 -5.254,-2.867 -0.344,0.055 -0.522,-0.211 -0.113,-0.305 0.205,-0.046 2.199,-0.47 3.775,0.182 0.496,0.203 0.879,0.662 1.238,1.148 0.129,0.176 1.325,1.622 0.502,3.702 -0.119,0.3 -0.863,1.795 -1.638,0.861 m 14.801,2.418 c 0.079,-0.31 0.192,-1.432 -0.315,-2.361 -0.32,-0.405 -0.44,-0.552 -0.831,-0.458 -0.331,0.077 -0.804,0.269 -1.041,0.498 -0.684,-0.65 -1.647,-0.64 -2.343,-0.487 -0.329,-0.213 -0.753,-0.356 -1.302,-0.356 -0.344,0 -1.132,0.117 -1.872,0.996 l -0.277,-0.173 c -0.802,-0.518 -1.713,-1.376 -2.098,-3.087 -0.4,-2.144 0.243,-3.499 1.927,-4.001 1.687,-0.497 5.486,0.086 6.116,0.144 0.627,0.057 0.413,-0.258 0.099,-0.4 -0.314,-0.143 -2.7,-0.829 -3.427,-0.972 -3.057,-0.613 -5.115,0.672 -5.301,3.487 -0.171,2.586 1.171,4.356 1.671,5.028 0.165,0.218 0.32,0.385 0.465,0.517 -0.538,0.56 -1.039,0.195 -1.154,0.069 -0.122,-0.131 -0.208,-0.05 -0.158,0.17 0.297,1.099 0.784,1.424 1.665,1.561 0.88,0.137 1.551,-0.279 1.674,-0.376 0.41,-0.294 0.146,-0.85 -0.049,-1.225 -0.054,-0.107 -0.18,-0.203 -0.356,-0.303 0.517,-0.355 2.392,-1.148 3.342,0.828 0.084,0.183 0.229,0.207 0.17,-0.058 -0.026,-0.116 -0.109,-0.541 -0.355,-0.991 1.593,-0.405 1.896,0.811 2.034,1.204 0.147,0.415 0.313,0.176 0.277,-0.026 -0.051,-0.283 -0.124,-0.534 -0.214,-0.75 0.35,-0.161 1.192,-0.371 1.185,-0.265 -0.006,0.114 -0.056,1.027 0.026,1.246 0.083,0.222 0.193,0.539 0.265,0.668 0.072,0.126 0.101,0.185 0.177,-0.127 m 10.924,-3.872 c 0.084,-0.616 -0.279,-1.661 -0.434,-2.008 -0.154,-0.345 -0.764,-0.149 -1.101,-0.08 -0.14,0.028 -0.331,0.122 -0.506,0.22 -0.202,-0.304 -0.52,-0.624 -1.012,-0.832 -0.559,-0.192 -3.767,-1.222 -5.208,-0.028 -0.322,0.232 -0.888,0.648 -0.916,2.202 -0.012,0.635 -0.323,4.119 -0.644,5.997 -0.052,0.296 0.14,0.564 0.178,0.679 0.127,0.379 0.203,0.107 0.287,-0.119 0.425,-0.976 0.647,-6.129 0.668,-6.474 0.037,-0.55 0.318,-1.391 1.411,-1.722 1.091,-0.329 2.867,-0.151 4.364,0.482 0.463,0.207 0.882,0.55 1.009,0.728 0.126,0.179 0.252,0.191 0.21,-0.069 l -0.036,-0.167 c 0.285,-0.076 0.813,-0.201 1.079,-0.131 0.272,0.066 0.245,0.442 0.203,0.69 -0.042,0.249 -0.881,5.002 -0.966,5.398 -0.067,0.33 -0.065,0.597 -0.091,0.754 -0.022,0.15 -0.128,0.302 -0.245,0.527 -0.118,0.221 -0.02,0.468 0.028,0.543 0.047,0.075 0.247,0.272 0.39,0.574 0.069,0.143 0.156,-0.024 0.194,-0.18 0.034,-0.137 0.323,-0.606 0.449,-0.763 0.084,-0.11 0.149,-0.301 0.113,-0.377 C 40.014,0.629 39.807,0.342 39.765,0.286 39.73,0.241 39.703,0.161 39.721,-0.019 c 0,0 0.851,-4.426 0.936,-5.044 M 29.479,-6.512 c -0.044,-0.106 -0.063,-0.134 -0.144,-0.285 -0.08,-0.153 -0.181,-0.184 -0.354,-0.276 -0.17,-0.096 -3.362,-1.493 -3.46,-1.541 -0.32,-0.146 -0.266,-0.041 -0.23,0.06 0.014,0.03 0.035,0.11 0.081,0.258 0.045,0.151 0.111,0.193 0.329,0.29 0.215,0.092 3.358,1.479 3.564,1.582 0.316,0.157 0.263,0.024 0.214,-0.088 m 4.302,7.251 c 0.012,0.029 0.035,0.109 0.078,0.259 0.045,0.151 0.11,0.192 0.327,0.288 0.216,0.095 3.966,1.691 4.171,1.794 0.315,0.161 0.262,0.03 0.215,-0.084 C 38.527,2.889 38.51,2.86 38.43,2.707 38.352,2.555 38.248,2.524 38.078,2.43 37.906,2.336 34.107,0.727 34.008,0.682 33.693,0.532 33.743,0.637 33.781,0.739 m 9.388,-4.476 c 0.271,-1.852 0.24,-3.129 0.09,-3.585 -0.089,-0.267 -0.218,-0.18 -0.23,0.191 -0.049,1.567 -0.46,3.757 -0.58,4.495 -0.12,0.731 -0.249,1.492 -0.371,2.509 -0.084,0.593 -0.012,1.031 0.14,1.376 0.14,0.322 0.203,-0.026 0.237,-0.431 0.074,-0.742 0.577,-3.622 0.714,-4.555 m -7.202,-0.758 c -0.129,0.103 -0.242,0.215 -0.349,0.335 l 0.006,0.124 0.588,0.728 0.076,0.002 c 0.11,-0.12 0.226,-0.24 0.358,-0.347 l 0.293,-0.203 0.023,0.04 0.59,0.725 0.074,0.004 c 0.115,-0.12 0.228,-0.242 0.361,-0.347 0.143,-0.119 0.293,-0.214 0.448,-0.3 l 0.019,-0.079 -0.587,-0.728 -0.13,-0.021 c -0.149,0.081 -0.293,0.176 -0.43,0.287 l -0.223,0.202 -0.557,-0.685 -0.129,-0.026 c -0.152,0.081 -0.297,0.18 -0.431,0.289 m 1.137,4.008 c 0.061,-0.146 0.109,-0.319 0.102,-0.417 -0.233,-0.227 -0.486,-0.264 -0.667,-0.112 -0.116,0.095 -0.16,0.277 -0.149,0.514 0.007,0.17 0.029,0.235 -0.122,0.115 -0.197,-0.16 -0.143,-0.146 -0.154,-0.234 -0.069,-0.558 -0.308,-0.809 -0.74,-0.839 -0.272,-0.019 -0.473,0.169 -0.282,0.706 0.04,0.117 -0.04,0.238 -0.159,0 -0.406,-0.806 -0.16,-1.256 0.254,-1.319 0.337,-0.05 0.737,0.143 0.942,0.653 0.156,-0.259 0.473,-0.335 0.759,-0.259 0.367,0.095 0.448,0.265 0.549,0.562 0.104,0.287 0.108,0.665 -0.032,1.12 -0.022,0.075 -0.063,0.034 -0.082,-0.001 L 37.129,-0.373 C 37.104,-0.412 37.089,-0.44 37.104,-0.487 M 56.47,0.302 c -0.159,0.1 -0.157,0.215 -0.085,0.326 0.238,0.368 0.411,0.358 0.568,0.187 0.255,-0.326 0.197,-0.866 0.17,-0.966 0,0 -0.493,0.355 -0.653,0.453 m 0.634,-1.211 c 0.34,-0.159 0.485,-0.52 0.531,-0.388 0.129,0.378 0.173,0.59 0.075,0.695 -0.071,0.074 -0.317,0.259 -0.317,0.259 0.089,0.212 0.275,0.958 -0.033,1.553 -0.075,0.128 -0.378,0.6 -1.012,-0.114 -0.248,-0.273 -0.567,-0.971 -0.316,-1.224 0.251,-0.251 0.802,-0.606 0.802,-0.606 -0.288,-0.494 -0.982,-0.934 -1.888,-1.578 -0.59,-0.422 -0.368,-0.567 -0.112,-0.444 1.71,0.809 2.003,1.285 2.27,1.847 M 20.85,2.255 c -0.147,0.094 -0.145,0.2 -0.079,0.304 0.221,0.342 0.382,0.332 0.528,0.174 0.236,-0.303 0.182,-0.806 0.157,-0.898 0,0 -0.457,0.33 -0.606,0.42 m 0.589,-1.124 c 0.316,-0.147 0.45,-0.483 0.494,-0.359 0.12,0.351 0.16,0.547 0.068,0.644 -0.064,0.07 -0.294,0.241 -0.294,0.241 0.084,0.197 0.256,0.889 -0.03,1.442 -0.07,0.119 -0.351,0.558 -0.94,-0.106 C 20.507,2.74 20.212,2.092 20.444,1.857 20.678,1.624 21.188,1.293 21.188,1.293 20.921,0.835 20.276,0.427 19.437,-0.172 18.888,-0.563 19.094,-0.698 19.331,-0.585 20.919,0.167 21.19,0.609 21.439,1.131 M 47.296,0.318 c -0.159,0.099 -0.157,0.215 -0.085,0.326 0.238,0.368 0.411,0.357 0.568,0.186 0.255,-0.326 0.198,-0.866 0.17,-0.965 0,0 -0.493,0.355 -0.653,0.453 m 0.634,-1.211 c 0.341,-0.159 0.485,-0.521 0.531,-0.388 0.129,0.378 0.173,0.59 0.074,0.694 -0.07,0.075 -0.316,0.259 -0.316,0.259 0.09,0.212 0.275,0.958 -0.032,1.554 -0.076,0.128 -0.378,0.6 -1.013,-0.114 -0.248,-0.274 -0.567,-0.971 -0.316,-1.224 0.251,-0.251 0.802,-0.606 0.802,-0.606 -0.288,-0.495 -0.982,-0.934 -1.888,-1.579 -0.589,-0.421 -0.369,-0.566 -0.112,-0.444 1.709,0.81 2.003,1.285 2.27,1.848 m 4.568,1.329 c 0.035,0.01 0.077,0.006 0.121,0.046 0.139,0.131 0.256,0.478 0.27,0.596 -0.016,0.091 -0.342,0.124 -0.436,0.146 -0.322,0.077 -0.629,0.247 -0.964,0.269 -0.516,0.033 -0.996,-0.2 -1.262,-0.744 -0.03,-0.071 -0.073,-0.166 -0.101,-0.237 -0.032,-0.119 0.029,-0.199 0.092,-0.107 0.071,0.107 0.16,0.212 0.271,0.279 0.265,0.16 0.546,0.222 0.833,0.194 0.26,-0.025 0.749,-0.208 0.748,-0.233 -0.004,-0.057 -1.137,-0.618 -1.315,-0.73 -0.077,-0.048 -0.172,-0.137 -0.155,-0.226 0.013,-0.069 0.123,-0.083 0.214,-0.05 0.447,0.161 0.607,0.15 0.967,0.304 0.487,0.209 0.631,0.468 0.717,0.493 m -5.908,-6.81 c -0.069,-0.145 -0.157,-0.394 -0.21,-0.54 -0.018,-0.051 0.022,-0.114 0.086,-0.077 0.36,0.221 0.899,0.493 1.471,0.695 0.519,0.184 0.927,0.303 1.304,0.325 0.058,0.008 0.366,0.55 0.413,0.629 0.065,0.101 0.018,0.134 -0.063,0.119 -0.438,-0.084 -0.778,-0.162 -1.307,-0.114 -0.654,0.058 -1.165,0.558 -1.147,0.754 0.014,0.15 0.478,0.447 0.651,0.42 0.501,-0.079 0.492,-0.519 0.627,-0.524 0.161,-0.006 0.489,0.572 0.509,0.729 0.021,0.172 -0.321,0.581 -0.649,0.601 -0.538,0.032 -1.45,-0.88 -1.808,-1.441 -0.13,-0.207 -0.117,-0.523 0.068,-0.684 0.168,-0.142 0.441,-0.291 0.75,-0.479 -0.151,-0.053 -0.548,-0.285 -0.695,-0.413 m 18.462,2.793 c -0.09,0.85 -0.449,3.473 -0.484,4.147 -0.013,0.369 -0.06,0.687 -0.218,0.402 -0.168,-0.305 -0.262,-0.697 -0.208,-1.234 0.073,-0.926 0.16,-1.621 0.244,-2.285 0.083,-0.672 0.382,-2.674 0.351,-4.092 -0.006,-0.332 0.12,-0.418 0.223,-0.18 0.175,0.402 0.269,1.553 0.092,3.242 m -4.304,-4.393 c -0.117,0.115 -0.218,0.244 -0.314,0.371 l -0.07,0.006 -0.636,-0.641 -0.018,-0.117 c 0.088,-0.125 0.187,-0.242 0.298,-0.354 0.121,-0.123 0.251,-0.228 0.386,-0.322 l 0.125,0.01 0.637,0.639 -0.006,0.078 c -0.145,0.095 -0.279,0.203 -0.402,0.33 m 2.968,3.099 c -0.435,0.028 -2.445,0.065 -3.624,0.715 0.117,0.1 0.372,0.428 0.28,1.252 -0.089,0.824 -0.419,3.18 -0.419,3.18 -0.026,0.246 -0.127,0.482 0.014,0.607 0.14,0.127 0.435,0.342 0.265,0.574 C 60.063,1.686 59.771,2.127 59.686,2.377 59.614,2.588 59.552,2.764 59.445,2.598 59.32,2.407 59.276,2.162 59.107,1.942 59.02,1.825 58.928,1.768 59.028,1.592 59.164,1.354 59.3,0.918 59.326,0.619 c 0.012,-0.156 0.057,-0.494 0.102,-0.816 0,0 0.576,-2.976 0.53,-3.459 0,0 -2.383,-0.084 -2.692,-0.385 l -0.478,-0.742 c -0.04,-0.082 -0.036,-0.172 0.077,-0.154 0.114,0.019 1.578,0.488 3.635,-0.336 -0.243,-0.084 -2.959,-1.246 -5.253,-0.986 -0.344,0.009 -2.755,0.326 -2.954,1.548 -0.027,0.155 -0.067,0.211 -0.149,0.055 -0.074,-0.139 -0.743,-1.137 0.309,-1.853 -0.335,-0.704 -0.928,-1.657 -1.835,-2.03 -0.296,-0.111 -1.62,-0.451 -2.958,0.149 -0.164,0.052 -0.406,-0.08 -0.157,-0.25 0.251,-0.172 2.695,-1.735 4.282,-0.09 0.28,0.287 0.758,1.057 1.12,1.978 1.626,-0.884 4.33,-0.398 4.33,-0.398 0.588,0.125 1.204,0.299 1.843,0.545 0.334,0.137 2.635,1.178 4.193,0.814 0.327,-0.08 0.401,-0.08 0.401,-0.08 0,0 0.281,0.598 0.344,0.742 0.062,0.145 0.135,0.227 -0.3,0.254 m -11.548,2.897 c 0.125,-0.125 0.258,-0.235 0.403,-0.332 l 0.007,-0.078 -0.638,-0.637 -0.126,-0.01 c -0.134,0.092 -0.263,0.201 -0.385,0.321 -0.111,0.113 -0.21,0.23 -0.298,0.355 l 0.016,0.117 0.638,0.641 0.07,-0.006 c 0.096,-0.127 0.197,-0.256 0.313,-0.371"
         style="fill:#231f20;fill-opacity:1;fill-rule:nonzero;stroke:none"
         transform="matrix(1.3333333,0,0,-1.3333333,387.4688,45.1016)"
         clip-path="url(#clipPath40)"
         id="path41" />
    </g>
  </g>
</svg>
