<?xml version="1.0" encoding="UTF-8" standalone="no"?>
<!-- Created with Inkscape (http://www.inkscape.org/) -->

<svg
   version="1.1"
   id="svg1"
   width="58.572876"
   height="19.166084"
   viewBox="0 0 58.572876 19.166084"
   xmlns="http://www.w3.org/2000/svg"
   xmlns:svg="http://www.w3.org/2000/svg">
  <defs
     id="defs1">
    <clipPath
       clipPathUnits="userSpaceOnUse"
       id="clipPath21">
      <path
         d="m 311.817,517.301 h 43.93 v -14.375 h -43.93 z"
         transform="translate(-316.32131,-514.09131)"
         id="path21" />
    </clipPath>
    <clipPath
       clipPathUnits="userSpaceOnUse"
       id="clipPath23">
      <path
         d="M 0,547.086 H 382.677 V 0 H 0 Z"
         transform="matrix(1.3333333,0,0,-1.3333333,0,729.448)"
         id="path23" />
    </clipPath>
  </defs>
  <g
     id="layer-MC1"
     transform="translate(-415.75644,-39.713516)">
    <g
       id="g22"
       clip-path="url(#clipPath23)">
      <path
         d="M 0,0 C 0.027,0.1 0.085,0.64 -0.17,0.966 -0.327,1.137 -0.5,1.147 -0.738,0.779 -0.811,0.668 -0.812,0.553 -0.653,0.453 -0.493,0.355 0,0 0,0 m -2.289,-2.605 c -0.257,-0.123 -0.478,0.022 0.112,0.444 0.906,0.644 1.6,1.084 1.888,1.578 0,0 -0.551,0.355 -0.802,0.606 -0.251,0.253 0.068,0.951 0.316,1.224 0.634,0.714 0.937,0.242 1.012,0.114 0.308,-0.595 0.122,-1.341 0.034,-1.553 0,0 0.245,-0.185 0.316,-0.259 C 0.685,-0.556 0.641,-0.768 0.512,-1.146 0.466,-1.278 0.321,-0.917 -0.02,-0.758 -0.286,-1.32 -0.579,-1.796 -2.289,-2.605 m 13.546,0.807 -0.578,-0.693 -0.008,-0.118 c 0.1,-0.118 0.209,-0.227 0.329,-0.329 0.131,-0.109 0.27,-0.204 0.411,-0.284 l 0.125,0.019 0.577,0.692 -0.011,0.077 c -0.153,0.082 -0.296,0.179 -0.43,0.294 -0.127,0.105 -0.237,0.224 -0.346,0.342 z m 0.248,-2.303 -0.024,-0.04 -0.29,0.21 c -0.129,0.108 -0.242,0.232 -0.351,0.353 l -0.077,-0.001 -0.599,-0.717 -0.01,-0.124 c 0.106,-0.121 0.218,-0.235 0.344,-0.339 0.133,-0.115 0.276,-0.213 0.425,-0.297 l 0.131,0.023 0.566,0.676 0.221,-0.207 c 0.135,-0.114 0.278,-0.212 0.426,-0.296 l 0.13,0.02 0.599,0.718 -0.018,0.08 c -0.153,0.087 -0.3,0.187 -0.443,0.306 -0.13,0.108 -0.242,0.232 -0.353,0.355 l -0.076,-0.002 z m -11.513,1.644 -0.58,-0.693 -0.007,-0.118 c 0.099,-0.118 0.209,-0.227 0.328,-0.329 0.131,-0.109 0.27,-0.204 0.412,-0.284 l 0.125,0.019 0.579,0.691 -0.013,0.078 c -0.152,0.082 -0.295,0.179 -0.43,0.294 -0.127,0.105 -0.237,0.224 -0.345,0.342 z M 0.24,-4.76 0.216,-4.8 -0.073,-4.591 c -0.13,0.11 -0.244,0.232 -0.352,0.354 l -0.078,-0.001 -0.6,-0.717 -0.007,-0.124 c 0.103,-0.12 0.215,-0.235 0.342,-0.339 0.133,-0.114 0.276,-0.213 0.426,-0.296 l 0.129,0.022 0.567,0.676 0.221,-0.208 c 0.136,-0.113 0.279,-0.211 0.426,-0.295 l 0.131,0.02 0.598,0.718 -0.018,0.079 c -0.151,0.087 -0.3,0.188 -0.443,0.307 -0.13,0.108 -0.241,0.232 -0.353,0.353 H 0.842 Z m 31.162,3.768 c 0.028,0.1 0.085,0.64 -0.17,0.966 -0.157,0.171 -0.33,0.182 -0.568,-0.186 -0.072,-0.112 -0.074,-0.227 0.085,-0.327 0.16,-0.097 0.653,-0.453 0.653,-0.453 m -2.289,-2.605 c -0.257,-0.122 -0.477,0.022 0.113,0.444 0.905,0.645 1.599,1.084 1.887,1.578 0,0 -0.551,0.356 -0.801,0.607 -0.251,0.253 0.067,0.95 0.315,1.223 0.635,0.714 0.937,0.243 1.013,0.115 0.307,-0.596 0.122,-1.342 0.032,-1.554 0,0 0.246,-0.185 0.317,-0.259 0.098,-0.104 0.054,-0.316 -0.075,-0.694 -0.046,-0.133 -0.19,0.228 -0.531,0.387 -0.267,-0.562 -0.56,-1.038 -2.27,-1.847 m -6.884,2.621 c 0.027,0.1 0.084,0.64 -0.17,0.966 -0.158,0.171 -0.33,0.181 -0.569,-0.187 -0.072,-0.111 -0.074,-0.226 0.085,-0.326 0.16,-0.098 0.654,-0.453 0.654,-0.453 m -2.29,-2.606 c -0.256,-0.122 -0.477,0.023 0.113,0.445 0.905,0.644 1.599,1.084 1.887,1.578 0,0 -0.55,0.355 -0.801,0.606 -0.251,0.253 0.067,0.951 0.315,1.224 0.635,0.714 0.938,0.242 1.013,0.114 0.307,-0.595 0.122,-1.342 0.032,-1.553 0,0 0.246,-0.185 0.317,-0.259 0.098,-0.105 0.054,-0.317 -0.075,-0.695 -0.046,-0.132 -0.19,0.229 -0.531,0.388 -0.267,-0.562 -0.56,-1.038 -2.27,-1.848 m 6.122,2.685 C 25.7,-1.051 25.54,-1.04 25.094,-1.202 c -0.092,-0.032 -0.201,-0.018 -0.215,0.051 -0.017,0.089 0.078,0.177 0.155,0.226 0.178,0.112 1.312,0.673 1.316,0.73 10e-4,0.025 -0.489,0.208 -0.748,0.233 -0.288,0.027 -0.569,-0.034 -0.833,-0.194 -0.112,-0.068 -0.201,-0.173 -0.272,-0.28 -0.062,-0.091 -0.124,-0.011 -0.092,0.108 0.029,0.071 0.072,0.166 0.101,0.237 0.266,0.544 0.746,0.777 1.263,0.743 0.335,-0.021 0.641,-0.191 0.963,-0.268 0.094,-0.023 0.42,-0.055 0.436,-0.146 -0.014,-0.118 -0.131,-0.466 -0.271,-0.597 -0.043,-0.039 -0.085,-0.036 -0.12,-0.045 -0.086,-0.026 -0.23,-0.285 -0.716,-0.493 m -4.497,-5.904 c -0.309,0.188 -0.583,0.337 -0.749,0.479 -0.186,0.16 -0.199,0.477 -0.069,0.683 0.358,0.562 1.271,1.474 1.809,1.441 0.327,-0.019 0.67,-0.428 0.648,-0.6 -0.019,-0.158 -0.348,-0.736 -0.509,-0.73 -0.134,0.005 -0.126,0.446 -0.627,0.525 -0.171,0.026 -0.636,-0.27 -0.651,-0.42 -0.018,-0.197 0.493,-0.696 1.147,-0.754 0.53,-0.049 0.87,0.029 1.307,0.113 0.081,0.016 0.128,-0.017 0.064,-0.119 -0.047,-0.078 -0.356,-0.62 -0.413,-0.629 -0.377,-0.021 -0.786,-0.14 -1.305,-0.324 -0.571,-0.202 -1.111,-0.474 -1.471,-0.696 -0.063,-0.037 -0.103,0.026 -0.086,0.078 0.053,0.146 0.142,0.395 0.21,0.54 0.148,0.128 0.544,0.36 0.695,0.413 m 17.767,2.38 c -0.09,0.85 -0.449,3.473 -0.483,4.147 -0.014,0.369 -0.061,0.687 -0.219,0.402 -0.168,-0.305 -0.262,-0.697 -0.208,-1.234 0.073,-0.926 0.16,-1.622 0.244,-2.286 0.083,-0.671 0.382,-2.673 0.352,-4.091 -0.006,-0.332 0.12,-0.418 0.222,-0.18 0.175,0.402 0.269,1.553 0.092,3.242 M 35.027,-8.815 C 34.91,-8.7 34.81,-8.571 34.713,-8.444 l -0.069,0.006 -0.637,-0.641 -0.018,-0.117 c 0.088,-0.125 0.188,-0.242 0.298,-0.353 0.121,-0.123 0.251,-0.229 0.386,-0.323 l 0.125,0.01 0.638,0.639 -0.006,0.078 c -0.146,0.096 -0.28,0.203 -0.403,0.33 m 2.968,3.1 c -0.434,0.027 -2.445,0.064 -3.624,0.715 0.117,0.099 0.372,0.427 0.28,1.251 -0.088,0.825 -0.419,3.18 -0.419,3.18 -0.026,0.246 -0.127,0.483 0.014,0.608 0.141,0.127 0.436,0.341 0.266,0.574 -0.17,0.232 -0.462,0.674 -0.547,0.924 -0.071,0.211 -0.134,0.386 -0.24,0.22 C 33.6,1.566 33.556,1.322 33.387,1.101 33.299,0.984 33.207,0.927 33.308,0.751 c 0.135,-0.238 0.271,-0.673 0.297,-0.972 0.012,-0.156 0.057,-0.494 0.102,-0.817 0,0 0.576,-2.976 0.53,-3.459 0,0 -2.383,-0.084 -2.692,-0.384 l -0.478,-0.743 c -0.04,-0.082 -0.036,-0.171 0.079,-0.154 0.112,0.02 1.577,0.488 3.633,-0.336 -0.243,-0.084 -2.959,-1.246 -5.253,-0.986 -0.343,0.01 -2.755,0.326 -2.954,1.549 -0.027,0.154 -0.067,0.211 -0.149,0.054 -0.073,-0.138 -0.742,-1.136 0.308,-1.853 -0.333,-0.703 -0.926,-1.656 -1.833,-2.029 -0.296,-0.112 -1.621,-0.452 -2.958,0.148 -0.165,0.053 -0.407,-0.08 -0.158,-0.25 0.251,-0.172 2.696,-1.734 4.282,-0.09 0.281,0.287 0.758,1.057 1.121,1.979 1.626,-0.885 4.33,-0.399 4.33,-0.399 0.588,0.125 1.204,0.299 1.841,0.545 0.335,0.137 2.636,1.178 4.195,0.815 0.326,-0.08 0.4,-0.08 0.4,-0.08 0,0 0.28,0.597 0.344,0.742 0.062,0.144 0.136,0.226 -0.3,0.254 M 26.135,-2.448 26.064,-2.442 25.427,-3.083 25.41,-3.2 c 0.088,-0.125 0.188,-0.242 0.298,-0.355 0.122,-0.119 0.251,-0.229 0.386,-0.32 l 0.126,0.009 0.636,0.637 -0.005,0.078 c -0.146,0.098 -0.279,0.207 -0.404,0.332 -0.116,0.115 -0.217,0.244 -0.312,0.371 M 8.879,1.331 c 0.1,0.042 2.705,1.089 2.881,1.176 0.176,0.086 0.277,0.114 0.362,0.263 0.086,0.148 0.107,0.175 0.156,0.279 0.052,0.112 0.111,0.241 -0.21,0.096 C 11.858,3.05 9.301,2.014 9.081,1.927 8.861,1.841 8.796,1.802 8.744,1.655 8.692,1.507 8.668,1.428 8.654,1.398 8.612,1.298 8.557,1.197 8.879,1.331 M 11.88,0.755 C 11.937,0.61 11.983,0.446 11.978,0.348 11.751,0.13 11.507,0.093 11.329,0.24 c -0.113,0.093 -0.156,0.269 -0.144,0.5 0.006,0.166 0.026,0.229 -0.12,0.111 -0.189,-0.154 -0.138,-0.139 -0.149,-0.226 -0.067,-0.543 -0.3,-0.788 -0.72,-0.816 -0.263,-0.018 -0.457,0.166 -0.273,0.688 0.039,0.11 -0.04,0.229 -0.155,0 -0.394,-0.786 -0.155,-1.224 0.247,-1.284 0.327,-0.047 0.717,0.138 0.915,0.635 0.153,-0.251 0.461,-0.325 0.739,-0.252 0.355,0.092 0.434,0.257 0.535,0.546 0.098,0.278 0.102,0.648 -0.032,1.089 -0.023,0.073 -0.063,0.034 -0.078,-0.003 L 11.901,0.868 C 11.881,0.828 11.862,0.798 11.88,0.755 M 4.823,-7.877 c 0.153,0.345 0.512,1.396 0.429,2.017 -0.084,0.621 -0.925,5.068 -0.925,5.068 -0.017,0.18 0.012,0.261 0.045,0.306 0.041,0.056 0.244,0.345 0.313,0.497 C 4.72,0.089 4.655,0.281 4.57,0.39 4.447,0.55 4.162,1.02 4.129,1.159 4.092,1.313 4.004,1.485 3.938,1.337 3.796,1.032 3.602,0.838 3.552,0.763 3.505,0.686 3.409,0.44 3.524,0.215 3.641,-0.01 3.744,-0.161 3.769,-0.312 3.793,-0.472 3.79,-0.743 3.857,-1.07 c 0.082,-0.398 0.912,-5.176 0.954,-5.425 0.041,-0.249 0.082,-0.65 -0.195,-0.636 -0.208,0.011 -0.834,0.045 -1.129,0.06 0.108,0.211 0.19,0.443 0.234,0.7 0.033,0.149 -0.1,0.406 -0.257,0.115 -0.157,-0.29 -1.283,-1.916 -4.495,-1.906 -2.945,0.008 -3.33,1.975 -2.878,2.661 0.113,0.17 0.042,0.274 -0.083,0.126 -0.124,-0.149 -0.779,-1.187 -0.39,-2.224 0.847,-2.006 4.271,-1.419 4.271,-1.419 0.238,0.045 2.165,0.251 3.208,1.386 0.217,-0.125 0.506,-0.274 0.691,-0.314 0.331,-0.07 0.884,-0.276 1.035,0.069 m 9.794,7.331 c -0.018,0.179 0.011,0.261 0.043,0.306 0.042,0.056 0.245,0.345 0.314,0.497 0.035,0.077 -0.03,0.27 -0.115,0.379 -0.123,0.159 -0.408,0.63 -0.442,0.769 C 14.38,1.56 14.294,1.729 14.227,1.584 14.085,1.278 13.891,1.084 13.841,1.009 13.794,0.933 13.697,0.686 13.813,0.461 c 0.117,-0.226 0.22,-0.376 0.244,-0.529 0.025,-0.158 0.022,-0.429 0.089,-0.757 0.021,-0.099 0.103,-0.465 0.176,-0.972 0.036,-0.245 0.734,-4.246 0.773,-4.569 0.038,-0.321 0.012,-0.839 -0.336,-0.787 -0.349,0.052 -0.916,0.283 -1.058,0.349 -0.142,0.064 -0.439,0.232 -0.711,0.038 -0.271,-0.193 -1.934,-1.135 -3.588,-0.942 -0.374,0.09 -1.431,0.193 -1.69,1.986 C 7.635,-5.179 6.937,0.061 6.86,0.36 6.782,0.656 6.692,0.592 6.654,0.398 6.615,0.204 6.435,-0.467 6.525,-0.88 c 0.27,-1.046 0.573,-4.34 0.645,-4.996 0.063,-0.58 0.206,-2.657 1.91,-2.852 0.31,-0.039 1.769,-0.218 3.652,0.943 0.247,0.142 0.421,0.23 0.622,0.106 0.203,-0.125 1.188,-0.828 1.747,-0.024 0.1,0.157 0.568,1.174 0.351,2.46 -0.091,0.544 -0.835,4.697 -0.835,4.697 M 7.124,-9.103 c -0.202,-0.109 -3.054,-1.27 -3.268,-1.371 -0.21,-0.102 -0.277,-0.145 -0.317,-0.297 -0.04,-0.152 -0.059,-0.232 -0.07,-0.263 l 0.014,-0.131 c 0.037,10e-4 0.104,0.026 0.213,0.082 0.098,0.046 2.997,1.223 3.166,1.322 0.17,0.101 0.27,0.134 0.344,0.288 0.074,0.155 0.092,0.183 0.135,0.289 L 7.326,-9.022 C 7.289,-9.023 7.227,-9.047 7.124,-9.103 m 10.65,4.813 c 0.177,-1.688 0.083,-2.838 -0.091,-3.242 -0.101,-0.237 -0.228,-0.152 -0.221,0.183 0.028,1.415 -0.269,3.417 -0.353,4.088 -0.084,0.666 -0.172,1.361 -0.245,2.285 -0.052,0.539 0.04,0.931 0.21,1.235 0.156,0.286 0.203,-0.032 0.217,-0.402 0.034,-0.672 0.395,-3.296 0.483,-4.147"
         style="fill:#231f20;fill-opacity:1;fill-rule:nonzero;stroke:none"
         transform="matrix(1.3333333,0,0,-1.3333333,421.76173,43.992933)"
         clip-path="url(#clipPath21)"
         id="path22" />
    </g>
  </g>
</svg>
