<?xml version="1.0" encoding="UTF-8" standalone="no"?>
<!-- Created with Inkscape (http://www.inkscape.org/) -->

<svg
   width="15.683917mm"
   height="6.8507347mm"
   viewBox="0 0 15.683916 6.8507345"
   version="1.1"
   id="svg1"
   xml:space="preserve"
   xmlns="http://www.w3.org/2000/svg"
   xmlns:svg="http://www.w3.org/2000/svg"><defs
     id="defs1" /><g
     id="layer1"
     transform="translate(-224.45576,13.112024)"><g
       id="g5"
       transform="translate(-28.641324,-39.268131)"><path
         d="m 254.82688,28.177232 c 0.01,-0.03528 0.03,-0.225777 -0.06,-0.340783 -0.0554,-0.06032 -0.11642,-0.06385 -0.20038,0.06597 -0.0257,0.03916 -0.0261,0.07973 0.03,0.115005 0.0564,0.03457 0.23036,0.159808 0.23036,0.159808 m -0.80751,0.918987 c -0.0907,0.04339 -0.16863,-0.0078 0.0395,-0.156634 0.31962,-0.227189 0.56445,-0.382411 0.66605,-0.556683 0,0 -0.19438,-0.125236 -0.28293,-0.213783 -0.0885,-0.08925 0.024,-0.335492 0.11148,-0.4318 0.22366,-0.251884 0.33055,-0.08537 0.35701,-0.04022 0.10865,0.209903 0.043,0.473075 0.012,0.547864 0,0 0.0864,0.06526 0.11148,0.09137 0.0346,0.03704 0.019,0.111831 -0.0265,0.245181 -0.0162,0.04657 -0.0674,-0.08079 -0.18768,-0.136878 -0.0938,0.198261 -0.1972,0.366183 -0.80045,0.651581 m 4.77873,-0.284692 -0.20391,0.244475 -0.003,0.04163 c 0.0353,0.04163 0.0737,0.08008 0.11607,0.116063 0.0462,0.03845 0.0952,0.07197 0.14499,0.100189 l 0.0441,-0.0067 0.20356,-0.244123 -0.004,-0.02716 c -0.054,-0.02893 -0.10443,-0.06315 -0.1517,-0.103717 -0.0448,-0.03704 -0.0836,-0.07902 -0.12206,-0.12065 z m 0.0875,0.812447 -0.008,0.01411 -0.1023,-0.07408 c -0.0455,-0.0381 -0.0854,-0.08184 -0.12383,-0.124531 l -0.0272,3.53e-4 -0.21132,0.252942 -0.004,0.04374 c 0.0374,0.04269 0.0769,0.0829 0.12135,0.119592 0.0469,0.04057 0.0974,0.07514 0.14993,0.104775 l 0.0462,-0.0081 0.19967,-0.238478 0.078,0.07302 c 0.0476,0.04022 0.0981,0.07479 0.15028,0.104422 l 0.0459,-0.0071 0.21131,-0.253295 -0.006,-0.02822 c -0.054,-0.03069 -0.10583,-0.06597 -0.15628,-0.10795 -0.0459,-0.0381 -0.0854,-0.08184 -0.12453,-0.125236 l -0.0268,7.06e-4 z m -4.06153,-0.579967 -0.20461,0.244475 -0.002,0.04163 c 0.0349,0.04163 0.0737,0.08008 0.11571,0.116064 0.0462,0.03845 0.0952,0.07197 0.14534,0.100189 l 0.0441,-0.0067 0.20426,-0.243769 -0.005,-0.02752 c -0.0536,-0.02893 -0.10407,-0.06315 -0.15169,-0.103717 -0.0448,-0.03704 -0.0836,-0.07902 -0.12171,-0.12065 z m 0.0875,0.812448 -0.008,0.01411 -0.10195,-0.07373 c -0.0459,-0.0388 -0.0861,-0.08184 -0.12418,-0.124883 l -0.0275,3.53e-4 -0.21166,0.252941 -0.002,0.04375 c 0.0363,0.04233 0.0758,0.0829 0.12065,0.119591 0.0469,0.04022 0.0974,0.07514 0.15028,0.104423 l 0.0455,-0.0078 0.20002,-0.238477 0.078,0.07338 c 0.048,0.03986 0.0984,0.07444 0.15028,0.10407 l 0.0462,-0.0071 0.21097,-0.253294 -0.006,-0.02787 c -0.0533,-0.03069 -0.10584,-0.06632 -0.15629,-0.108302 -0.0459,-0.0381 -0.085,-0.08184 -0.12453,-0.124531 h -0.0261 z m 10.99326,-1.329267 c 0.01,-0.03528 0.03,-0.225778 -0.06,-0.340783 -0.0554,-0.06033 -0.11641,-0.06421 -0.20037,0.06562 -0.0254,0.03951 -0.0261,0.08008 0.03,0.115359 0.0565,0.03422 0.23037,0.159808 0.23037,0.159808 m -0.80751,0.918986 c -0.0907,0.04304 -0.16828,-0.0078 0.0399,-0.156633 0.31927,-0.227542 0.56409,-0.382411 0.66569,-0.556684 0,0 -0.19438,-0.125588 -0.28257,-0.214136 -0.0885,-0.08925 0.0236,-0.335139 0.11112,-0.431447 0.22402,-0.251883 0.33056,-0.08573 0.35737,-0.04057 0.1083,0.210255 0.043,0.473427 0.0113,0.548216 0,0 0.0868,0.06526 0.11183,0.09137 0.0346,0.03669 0.019,0.111478 -0.0265,0.244828 -0.0162,0.04692 -0.067,-0.08043 -0.18733,-0.136525 -0.0942,0.198261 -0.19755,0.366183 -0.8008,0.65158 m -2.42852,-0.92463 c 0.01,-0.03528 0.0296,-0.225778 -0.06,-0.340784 -0.0557,-0.06033 -0.11641,-0.06385 -0.20073,0.06597 -0.0254,0.03916 -0.0261,0.07973 0.03,0.115005 0.0564,0.03457 0.23072,0.159809 0.23072,0.159809 m -0.80786,0.919338 c -0.0903,0.04304 -0.16828,-0.0081 0.0399,-0.156986 0.31926,-0.227189 0.56409,-0.382411 0.66569,-0.556683 0,0 -0.19403,-0.125236 -0.28257,-0.213783 -0.0885,-0.08925 0.0236,-0.335492 0.11112,-0.4318 0.22402,-0.251884 0.33091,-0.08537 0.35737,-0.04022 0.1083,0.209903 0.043,0.473428 0.0113,0.547864 0,0 0.0868,0.06526 0.11183,0.09137 0.0346,0.03704 0.019,0.111831 -0.0265,0.245181 -0.0162,0.04657 -0.067,-0.08079 -0.18733,-0.136878 -0.0942,0.198261 -0.19755,0.366183 -0.8008,0.651933 m 2.1597,-0.947208 c -0.12735,0.05433 -0.1838,0.05045 -0.34114,0.107597 -0.0325,0.01129 -0.0709,0.0063 -0.0758,-0.01799 -0.006,-0.0314 0.0275,-0.06244 0.0547,-0.07973 0.0628,-0.03951 0.46284,-0.23742 0.46425,-0.257528 3.6e-4,-0.0088 -0.1725,-0.07338 -0.26387,-0.0822 -0.1016,-0.0095 -0.20073,0.01199 -0.29387,0.06844 -0.0395,0.02399 -0.0709,0.06103 -0.0959,0.09878 -0.0219,0.0321 -0.0437,0.0039 -0.0325,-0.0381 0.0102,-0.02505 0.0254,-0.05856 0.0356,-0.08361 0.0938,-0.191911 0.26317,-0.274108 0.44556,-0.262114 0.11818,0.0074 0.22613,0.06738 0.33972,0.09455 0.0332,0.0081 0.14817,0.0194 0.15382,0.0515 -0.005,0.04163 -0.0462,0.164395 -0.0956,0.210609 -0.0152,0.01376 -0.03,0.0127 -0.0423,0.01587 -0.0303,0.0092 -0.0811,0.100541 -0.25259,0.173919 m -1.58644,2.0828 c -0.10901,-0.06632 -0.20567,-0.118886 -0.26423,-0.168981 -0.0656,-0.05644 -0.0702,-0.168275 -0.0243,-0.240947 0.12629,-0.198261 0.44838,-0.519994 0.63817,-0.508353 0.11536,0.0067 0.23636,0.150989 0.2286,0.211667 -0.007,0.05574 -0.12276,0.259645 -0.17956,0.257528 -0.0473,-0.0018 -0.0445,-0.157339 -0.22119,-0.185208 -0.0603,-0.0092 -0.22437,0.09525 -0.22966,0.148166 -0.006,0.0695 0.17392,0.245534 0.40463,0.265995 0.18698,0.01729 0.30692,-0.01023 0.46108,-0.03986 0.0286,-0.0056 0.0452,0.006 0.0226,0.04198 -0.0166,0.02752 -0.12559,0.218723 -0.14569,0.221898 -0.133,0.0074 -0.27729,0.04939 -0.46038,0.1143 -0.20144,0.07126 -0.39194,0.167216 -0.51894,0.245533 -0.0222,0.01305 -0.0363,-0.0092 -0.0303,-0.02752 0.0187,-0.0515 0.0501,-0.139347 0.0741,-0.1905 0.0522,-0.04516 0.19191,-0.127 0.24518,-0.145697 m 6.2678,-0.839611 c -0.0318,-0.299861 -0.1584,-1.225197 -0.17039,-1.462969 -0.005,-0.130175 -0.0215,-0.242359 -0.0773,-0.141817 -0.0593,0.107597 -0.0924,0.245886 -0.0734,0.435328 0.0258,0.326672 0.0565,0.572205 0.0861,0.80645 0.0293,0.236713 0.13476,0.942975 0.12418,1.443213 -0.002,0.117123 0.0423,0.147462 0.0783,0.0635 0.0617,-0.141816 0.0949,-0.547863 0.0325,-1.143705 m -1.51835,1.550105 c -0.0413,-0.04057 -0.0766,-0.08608 -0.11078,-0.13088 l -0.0243,-0.0021 -0.22472,0.226131 -0.006,0.04127 c 0.0311,0.0441 0.0663,0.08537 0.10513,0.12453 0.0427,0.04339 0.0885,0.08079 0.13617,0.113948 l 0.0441,-0.0035 0.22507,-0.225425 -0.002,-0.02752 c -0.0515,-0.03387 -0.0988,-0.07161 -0.14217,-0.116417 m 1.04704,-1.093611 c -0.1531,-0.0095 -0.86254,-0.02258 -1.27847,-0.252236 0.0413,-0.03493 0.13124,-0.150636 0.0988,-0.441325 -0.031,-0.291041 -0.14781,-1.121833 -0.14781,-1.121833 -0.009,-0.08678 -0.0448,-0.170392 0.005,-0.214489 0.0497,-0.0448 0.15381,-0.120297 0.0938,-0.202494 -0.06,-0.08185 -0.16299,-0.237773 -0.19297,-0.325967 -0.025,-0.07444 -0.0473,-0.136172 -0.0847,-0.07761 -0.0441,0.06738 -0.0596,0.153458 -0.11924,0.231422 -0.031,0.04128 -0.0635,0.06138 -0.0279,0.123472 0.0476,0.08396 0.0956,0.23742 0.10478,0.3429 0.004,0.05503 0.0201,0.174273 0.036,0.28822 0,0 0.2032,1.049866 0.18697,1.220258 0,0 -0.84067,0.02963 -0.94968,0.135467 l -0.16862,0.262114 c -0.0141,0.02893 -0.0127,0.06033 0.0279,0.05433 0.0395,-0.0071 0.55633,-0.172155 1.28164,0.118534 -0.0857,0.02963 -1.04387,0.439561 -1.85314,0.347839 -0.12101,-0.0035 -0.97191,-0.115006 -1.04211,-0.546453 -0.01,-0.05433 -0.0236,-0.07444 -0.0526,-0.01905 -0.0258,0.04868 -0.26176,0.400755 0.10865,0.653697 -0.11747,0.248003 -0.32667,0.5842 -0.64664,0.715786 -0.10442,0.03951 -0.57185,0.159456 -1.04352,-0.05221 -0.0582,-0.0187 -0.14358,0.02822 -0.0557,0.08819 0.0885,0.06068 0.95108,0.611717 1.51059,0.03175 0.0991,-0.101247 0.2674,-0.372886 0.39546,-0.698147 0.57362,0.312209 1.52753,0.140759 1.52753,0.140759 0.20743,-0.0441 0.42475,-0.105481 0.64946,-0.192264 0.11819,-0.04833 0.92993,-0.415573 1.47991,-0.287514 0.115,0.02822 0.14111,0.02822 0.14111,0.02822 0,0 0.0988,-0.210608 0.12135,-0.261761 0.0219,-0.0508 0.048,-0.07973 -0.10583,-0.08961 m -4.18394,-1.152525 -0.0251,-0.0021 -0.22472,0.22613 -0.006,0.04128 c 0.031,0.0441 0.0663,0.08537 0.10513,0.125236 0.043,0.04198 0.0885,0.08079 0.13617,0.112889 l 0.0445,-0.0032 0.22437,-0.224719 -0.002,-0.02752 c -0.0515,-0.03457 -0.0984,-0.07302 -0.14253,-0.117122 -0.0409,-0.04057 -0.0765,-0.08608 -0.11006,-0.130881 m -6.08754,-1.333147 c 0.0353,-0.01482 0.95427,-0.384175 1.01636,-0.414866 0.0621,-0.03034 0.0977,-0.04022 0.1277,-0.09278 0.0303,-0.05221 0.0378,-0.06174 0.055,-0.09843 0.0183,-0.03951 0.0391,-0.08502 -0.0741,-0.03387 -0.0741,0.03351 -0.97613,0.398992 -1.05375,0.429684 -0.0776,0.03034 -0.10054,0.0441 -0.11888,0.09596 -0.0183,0.05221 -0.0268,0.08008 -0.0317,0.09066 -0.0148,0.03528 -0.0342,0.07091 0.0794,0.02364 m 1.05869,0.2032 c 0.0201,0.05115 0.0363,0.109009 0.0346,0.143581 -0.0801,0.07691 -0.16616,0.08996 -0.22895,0.0381 -0.0399,-0.03281 -0.055,-0.0949 -0.0508,-0.176389 0.002,-0.05856 0.009,-0.08079 -0.0423,-0.03916 -0.0667,0.05433 -0.0487,0.04904 -0.0526,0.07973 -0.0236,0.191559 -0.10583,0.277989 -0.254,0.287867 -0.0928,0.0063 -0.16122,-0.05856 -0.0963,-0.242711 0.0138,-0.03881 -0.0141,-0.08079 -0.0547,0 -0.13899,0.277283 -0.0547,0.4318 0.0871,0.452967 0.11536,0.01658 0.25294,-0.04868 0.32279,-0.224014 0.054,0.08855 0.16263,0.114652 0.2607,0.0889 0.12524,-0.03246 0.15311,-0.09066 0.18874,-0.192617 0.0346,-0.09807 0.036,-0.2286 -0.0113,-0.384175 -0.008,-0.02575 -0.0222,-0.01199 -0.0275,0.0011 l -0.0681,0.127 c -0.007,0.01411 -0.0138,0.02469 -0.007,0.03986 m -2.48955,3.045178 c 0.054,-0.121708 0.18062,-0.492478 0.15134,-0.711553 -0.0296,-0.219075 -0.32632,-1.787878 -0.32632,-1.787878 -0.006,-0.0635 0.004,-0.09208 0.0159,-0.10795 0.0145,-0.01975 0.0861,-0.121708 0.11042,-0.17533 0.0123,-0.02752 -0.0106,-0.09525 -0.0406,-0.133703 -0.0434,-0.05644 -0.14393,-0.22225 -0.15557,-0.271286 -0.013,-0.05433 -0.0441,-0.115006 -0.0674,-0.06279 -0.0501,0.107597 -0.11853,0.176036 -0.13617,0.202494 -0.0166,0.02716 -0.0505,0.113947 -0.01,0.193322 0.0413,0.07938 0.0776,0.132645 0.0864,0.185914 0.008,0.05645 0.007,0.152047 0.031,0.267406 0.0289,0.140405 0.32174,1.825977 0.33655,1.913819 0.0145,0.08784 0.0289,0.229306 -0.0688,0.224367 -0.0734,-0.0039 -0.29421,-0.01588 -0.39828,-0.02117 0.0381,-0.07444 0.067,-0.156281 0.0825,-0.246944 0.0116,-0.05256 -0.0353,-0.143228 -0.0907,-0.04057 -0.0554,0.102306 -0.45261,0.675922 -1.58573,0.672395 -1.03893,-0.0028 -1.17475,-0.696737 -1.0153,-0.938742 0.0399,-0.05997 0.0148,-0.09666 -0.0293,-0.04445 -0.0437,0.05256 -0.27481,0.418747 -0.13758,0.784578 0.2988,0.707672 1.50671,0.500591 1.50671,0.500591 0.084,-0.01588 0.76377,-0.08855 1.13171,-0.48895 0.0766,0.0441 0.17851,0.09666 0.24377,0.110773 0.11677,0.02469 0.31186,0.09737 0.36513,-0.02434 m 3.4551,-2.586214 c -0.006,-0.06315 0.004,-0.09207 0.0152,-0.10795 0.0148,-0.01975 0.0864,-0.121708 0.11077,-0.17533 0.0123,-0.02716 -0.0106,-0.09525 -0.0406,-0.133703 -0.0434,-0.05609 -0.14393,-0.22225 -0.15592,-0.271286 -0.0131,-0.05468 -0.0434,-0.1143 -0.067,-0.06315 -0.0501,0.10795 -0.11853,0.176389 -0.13617,0.202848 -0.0166,0.02681 -0.0508,0.113947 -0.01,0.193322 0.0413,0.07973 0.0776,0.132644 0.0861,0.186619 0.009,0.05574 0.008,0.151342 0.0314,0.267053 0.007,0.03492 0.0363,0.164042 0.0621,0.3429 0.0127,0.08643 0.25894,1.497894 0.2727,1.611842 0.0134,0.113241 0.004,0.29598 -0.11853,0.277636 -0.12312,-0.01835 -0.32315,-0.09984 -0.37324,-0.12312 -0.0501,-0.02258 -0.15487,-0.08184 -0.25083,-0.0134 -0.0956,0.06809 -0.68227,0.400403 -1.26576,0.332316 -0.13194,-0.03175 -0.50483,-0.06809 -0.5962,-0.700616 -0.0272,-0.191559 -0.2734,-2.040114 -0.30056,-2.145595 -0.0275,-0.104422 -0.0593,-0.08184 -0.0727,-0.01341 -0.0138,0.06844 -0.0773,0.305153 -0.0455,0.45085 0.0952,0.369005 0.20215,1.531055 0.22755,1.762478 0.0222,0.204611 0.0727,0.93733 0.6738,1.006122 0.10936,0.01376 0.62407,0.07691 1.28835,-0.33267 0.0871,-0.05009 0.14852,-0.08114 0.21942,-0.03739 0.0716,0.0441 0.4191,0.2921 0.61631,0.0085 0.0353,-0.05539 0.20037,-0.414162 0.12382,-0.867834 -0.0321,-0.191911 -0.29457,-1.656997 -0.29457,-1.656997 m -2.64336,3.018719 c -0.0713,0.03845 -1.07738,0.448028 -1.15288,0.483659 -0.0741,0.03598 -0.0977,0.05115 -0.11183,0.104775 -0.0141,0.05362 -0.0208,0.08184 -0.0247,0.09278 l 0.005,0.04621 c 0.0131,-3.53e-4 0.0367,-0.0092 0.0751,-0.02893 0.0346,-0.01623 1.05727,-0.431447 1.11689,-0.466372 0.06,-0.03563 0.0952,-0.04727 0.12136,-0.1016 0.0261,-0.05468 0.0325,-0.06456 0.0476,-0.101953 l -0.005,-0.05715 c -0.0131,3.53e-4 -0.0349,0.0088 -0.0713,0.02858 m 3.75708,-1.697919 c 0.0624,0.595489 0.0293,1.001183 -0.0321,1.143706 -0.0356,0.08361 -0.0804,0.05362 -0.078,-0.06456 0.01,-0.49918 -0.0949,-1.205441 -0.12454,-1.442155 -0.0296,-0.23495 -0.0607,-0.480131 -0.0864,-0.806097 -0.0183,-0.190148 0.0141,-0.328437 0.0741,-0.435681 0.055,-0.100894 0.0716,0.01129 0.0765,0.141817 0.012,0.237066 0.13935,1.162755 0.17039,1.462969"
         style="fill:#231f20;fill-opacity:1;fill-rule:nonzero;stroke:none;stroke-width:0.352778"
         clip-path="url(#clipPath1)"
         id="path22" /></g></g></svg>
