<?xml version="1.0" encoding="UTF-8" standalone="no"?>
<!-- Created with Inkscape (http://www.inkscape.org/) -->

<svg
   width="19.51mm"
   height="6.9099998mm"
   viewBox="0 0 19.509999 6.9099997"
   version="1.1"
   id="svg1"
   xml:space="preserve"
   xmlns="http://www.w3.org/2000/svg"
   xmlns:svg="http://www.w3.org/2000/svg"><defs
     id="defs1" /><g
     id="layer1"
     transform="translate(-177.15181,-66.265494)"><g
       id="g58"
       transform="translate(-94.072794,-13.884033)"><path
         d="m 274.76473,82.094873 -0.19121,0.25505 v 0.0416 c 0.037,0.0395 0.0773,0.0762 0.12206,0.10936 0.0476,0.0356 0.0981,0.067 0.14958,0.0928 l 0.0434,-0.009 0.19121,-0.2547 -0.006,-0.0268 c -0.055,-0.0265 -0.10689,-0.0575 -0.15663,-0.0956 -0.0466,-0.0346 -0.0878,-0.0748 -0.12841,-0.1143 z m 0.13017,0.8068 -0.007,0.0145 -0.10618,-0.0688 c -0.048,-0.0356 -0.0903,-0.0769 -0.13053,-0.11818 l -0.0275,0.002 -0.19755,0.26388 -7.1e-4,0.0441 c 0.0392,0.0406 0.0808,0.079 0.127,0.11359 0.0483,0.0374 0.10125,0.0699 0.15522,0.0963 l 0.0459,-0.0106 0.18697,-0.24836 0.0815,0.0688 c 0.0494,0.0374 0.10231,0.0699 0.15522,0.0963 l 0.0459,-0.009 0.19721,-0.26423 -0.008,-0.0275 c -0.0547,-0.0286 -0.109,-0.0607 -0.16121,-0.0998 -0.048,-0.0356 -0.0896,-0.0773 -0.13124,-0.11853 l -0.0261,10e-4 z m 5.5499,-0.24448 -0.1912,0.25506 v 0.042 c 0.0367,0.0392 0.0769,0.0759 0.12171,0.10936 0.048,0.0356 0.0984,0.067 0.14957,0.0924 l 0.0434,-0.009 0.19121,-0.25435 -0.006,-0.0268 c -0.0554,-0.0265 -0.1069,-0.0575 -0.15699,-0.0956 -0.0466,-0.0346 -0.0878,-0.0744 -0.12806,-0.1143 z m 0.13018,0.80681 -0.008,0.0145 -0.10619,-0.0688 c -0.0476,-0.0356 -0.09,-0.0769 -0.13053,-0.11783 l -0.0275,0.001 -0.19721,0.26423 -7e-4,0.0437 c 0.0392,0.0406 0.0804,0.079 0.127,0.11359 0.0483,0.0377 0.10089,0.0699 0.15522,0.0963 l 0.0455,-0.0106 0.18732,-0.24835 0.0811,0.0688 c 0.0497,0.0377 0.10231,0.0699 0.15558,0.0967 l 0.0455,-0.01 0.19755,-0.26423 -0.008,-0.0272 c -0.055,-0.0286 -0.10901,-0.0607 -0.16122,-0.10019 -0.048,-0.0356 -0.0896,-0.0769 -0.13159,-0.11854 l -0.0261,10e-4 z m -5.89069,1.38571 c -0.0765,0.005 -0.43356,0.0413 -0.36618,-0.16793 0.0194,-0.0642 0.1263,-0.21378 0.24624,-0.11183 0.0624,0.0547 0.15275,0.13794 0.21766,0.25788 -0.0346,0.006 -0.0649,0.0183 -0.0977,0.0219 m 0.53093,-1.26364 c -0.007,0.0557 -0.024,0.3369 -0.024,0.3369 0.11006,0.13158 0.40428,0.4445 0.34537,0.5528 -0.0759,0.13899 -0.39759,0.26035 -0.5521,0.3108 -0.0159,-0.0691 -0.036,-0.14076 -0.0653,-0.2152 -0.0423,-0.10618 -0.3048,-0.63323 -0.5782,-0.30444 -0.26952,0.32455 -0.33302,0.81915 -0.004,0.9211 0.0825,0.0254 0.31292,0.0229 0.5394,-0.0219 l -0.0102,0.0614 c -0.0773,0.24236 -0.57538,1.18004 -1.8542,1.01141 -0.12136,-0.0194 -0.18309,0.0751 -0.0392,0.10725 0.0723,0.0166 0.77647,0.16686 1.33174,-0.0639 0.17498,-0.0716 0.31009,-0.23354 0.43744,-0.40534 0.0325,-0.0448 0.25788,-0.32174 0.27587,-0.74613 0.18874,-0.0628 0.68263,-0.21766 0.67875,-0.65511 -7.1e-4,-0.11783 0.0536,-0.53622 -0.4184,-0.94685 -0.0512,-0.0462 -0.0564,0 -0.0635,0.0572 m 6.85342,0.3436 c 0.0586,0.34784 -0.0261,0.62759 -0.14746,0.83856 -0.12136,0.2099 -0.4318,0.0254 -0.62689,-0.054 -0.19508,-0.0783 -0.3108,0.0374 -0.50588,0.14322 -0.81174,0.40111 -1.58115,0.31574 -1.74449,0.27905 -0.89041,-0.21625 -0.86395,-1.27035 -0.86395,-1.27035 0,0 -0.0684,0.57467 -0.27446,0.91757 -0.41593,0.59549 -1.65418,0.6851 -1.75966,0.70521 -0.10548,0.0219 -0.1531,-0.0727 -0.037,-0.10972 1.028,-0.24271 1.40194,-0.63253 1.53353,-0.76482 0.0656,-0.0543 0.12065,-0.11783 0.16757,-0.18521 -0.19439,-0.81245 -1.3388,-1.43122 -1.3388,-1.43122 0,0 -0.008,0.0455 -0.018,0.0811 -0.009,0.036 -0.0586,0.018 -0.0942,0.009 -0.036,-0.009 -0.1972,-0.0586 -0.43145,-0.14005 0,0 -0.13017,-0.49812 -0.14816,-0.58843 -0.018,-0.0892 0.042,-0.0702 0.0945,-0.0487 1.59209,0.64699 1.94275,1.70603 1.98543,2.04011 0.38947,-0.67733 0.0699,-1.78047 0.0462,-1.95545 -0.0261,-0.19967 -0.005,-0.36301 0.0374,-0.53269 0.042,-0.16792 0.0949,-0.0212 0.11007,0.127 0.0159,0.14746 0.3115,1.78082 0.35348,1.99743 0.0998,0.72672 0.74295,0.76482 0.94333,0.79621 0.72708,0.11113 1.68063,-0.3683 1.78682,-0.4325 0.10442,-0.0635 0.21061,0.006 0.28434,0.042 0.0737,0.0374 0.32103,0.15311 0.45826,0.13723 0.0787,-0.01 0.0261,-0.43145 0,-0.60642 -0.0261,-0.17357 -0.33338,-1.65242 -0.33338,-1.65242 -0.0194,-0.11288 -0.0388,-0.23212 -0.0448,-0.28645 -0.0116,-0.10548 -0.0794,-0.24589 -0.12947,-0.32808 -0.0374,-0.0614 -0.006,-0.0811 0.024,-0.12383 0.0572,-0.0794 0.0744,-0.11994 0.11571,-0.18838 0.036,-0.0593 0.0607,0.002 0.0875,0.0751 0.0325,0.0875 0.14111,0.22613 0.2032,0.30621 0.0621,0.0797 -0.0363,0.19685 -0.0847,0.24306 -0.049,0.0469 -0.0346,0.0607 -0.0226,0.14746 0,0 0.31609,1.46474 0.37395,1.81293 m -8.85755,1.30175 c -0.4646,0.55351 -1.10384,0.49212 -1.24671,0.45684 -0.84385,-0.20743 -0.44344,-1.32503 -0.37677,-1.42698 0.0519,-0.079 0.0868,-0.0109 0.073,0.0243 -0.40288,0.95567 0.40851,1.0735 0.49212,1.07668 0.79904,0.042 1.05128,-0.50412 1.08021,-0.61313 0.0289,-0.10901 -0.28117,-0.73307 -0.3609,-0.84737 0,0 0.0536,-0.29704 0.0695,-0.3355 0.0159,-0.0374 0.049,0.005 0.0854,0.0702 0,0 0.22543,0.3863 0.27023,0.59373 0.12947,0.6029 -0.031,0.93592 -0.0861,1.00118 m -0.87877,-2.01401 c 0.0441,0.0448 0.091,0.0836 0.14288,0.11713 l 0.002,0.0275 -0.22472,0.22472 -0.0448,0.003 c -0.0476,-0.0325 -0.0931,-0.0695 -0.13582,-0.11219 -0.0392,-0.0402 -0.0744,-0.0815 -0.10548,-0.12559 l 0.006,-0.0413 0.22472,-0.22613 0.0247,0.002 c 0.0346,0.0441 0.0695,0.0903 0.11006,0.13088 m 4.37233,-1.56245 c 0.006,-0.0102 0.0131,-0.0374 0.0303,-0.0907 0.0166,-0.0519 0.0406,-0.0663 0.11783,-0.0984 0.0765,-0.0317 1.30422,-0.53234 1.37724,-0.56656 0.11183,-0.0536 0.0924,-0.008 0.0744,0.0321 -0.0166,0.0374 -0.0233,0.0459 -0.0522,0.0998 -0.0289,0.0522 -0.0656,0.0632 -0.12771,0.0935 -0.0593,0.0317 -1.30492,0.53763 -1.34055,0.55245 -0.11324,0.0494 -0.0938,0.0134 -0.0794,-0.0222 m -3.88761,0.502 c -0.0614,0.0328 -1.30528,0.53869 -1.3402,0.55351 -0.11324,0.0487 -0.0946,0.0138 -0.0794,-0.0222 0.004,-0.0109 0.0123,-0.0378 0.0296,-0.0907 0.0173,-0.0519 0.0399,-0.0667 0.11782,-0.0988 0.0773,-0.0318 1.30422,-0.5334 1.37654,-0.56832 0.11325,-0.0526 0.0931,-0.007 0.0759,0.0325 -0.0173,0.0374 -0.0247,0.0462 -0.0536,0.0988 -0.0289,0.0536 -0.0656,0.0642 -0.12665,0.0952 m 6.25158,-0.55457 c 0.004,-0.0109 0.0123,-0.0392 0.0275,-0.0921 0.0152,-0.0533 0.0381,-0.0674 0.11466,-0.10195 0.0762,-0.0346 1.56809,-0.66076 1.63971,-0.69744 0.11077,-0.0568 0.0931,-0.0102 0.0758,0.0303 -0.0152,0.0367 -0.0215,0.0462 -0.0504,0.10054 -0.0275,0.0543 -0.0624,0.0656 -0.12312,0.0984 -0.0607,0.0332 -1.56916,0.66569 -1.60408,0.68227 -0.11113,0.0522 -0.0931,0.0155 -0.0801,-0.0201 m 3.85797,1.97379 c 0.11289,0.68227 0.11854,1.15676 0.0667,1.32539 -0.0254,0.0977 -0.0716,0.0656 -0.0811,-0.0706 -0.036,-0.57891 -0.2032,-1.3843 -0.25083,-1.65594 -0.054,-0.26952 -0.10477,-0.55139 -0.1598,-0.92252 -0.036,-0.21766 -0.0159,-0.38276 0.0318,-0.51152 0.0494,-0.12065 0.0716,0.009 0.0899,0.15875 0.031,0.27446 0.24413,1.33244 0.30339,1.6764 m -2.3696,-1.68416 c 0.0194,0.0466 0.0353,0.1016 0.0325,0.13264 -0.0737,0.0723 -0.15452,0.084 -0.21237,0.036 -0.0363,-0.0303 -0.0508,-0.0882 -0.0476,-0.16369 0.003,-0.054 0.01,-0.0748 -0.0385,-0.0367 -0.0628,0.0508 -0.0455,0.0466 -0.049,0.0744 -0.0219,0.1778 -0.0984,0.25788 -0.23566,0.26705 -0.0868,0.006 -0.14993,-0.0536 -0.0896,-0.22507 0.0127,-0.0367 -0.013,-0.0751 -0.0508,0 -0.12876,0.25718 -0.0504,0.4004 0.0804,0.42016 0.1083,0.0159 0.23495,-0.0452 0.30056,-0.20779 0.0497,0.0825 0.15029,0.10654 0.2413,0.0825 0.11713,-0.0307 0.14253,-0.0847 0.17498,-0.17885 0.0328,-0.0914 0.0342,-0.21167 -0.0106,-0.35666 -0.007,-0.024 -0.0198,-0.0106 -0.0254,3.5e-4 l -0.0621,0.11959 c -0.008,0.0123 -0.013,0.0212 -0.008,0.036 m -6.21242,-0.73766 c -0.0568,-0.0353 -0.0561,-0.0755 -0.0303,-0.115 0.084,-0.12982 0.14534,-0.1263 0.20038,-0.066 0.0903,0.115 0.0695,0.3055 0.06,0.34113 0,0 -0.17357,-0.12558 -0.23001,-0.16016 m 0.22295,0.42722 c 0.12065,0.0564 0.17181,0.18344 0.18768,0.13687 0.0459,-0.13299 0.0614,-0.20813 0.0268,-0.24518 -0.025,-0.0258 -0.11253,-0.0914 -0.11253,-0.0914 0.0318,-0.0744 0.0974,-0.33796 -0.0109,-0.54786 -0.0268,-0.0451 -0.1337,-0.21167 -0.35701,0.0406 -0.0878,0.096 -0.20038,0.34219 -0.11148,0.4318 0.0882,0.0882 0.28258,0.21378 0.28258,0.21378 -0.10125,0.17392 -0.34678,0.3295 -0.66569,0.55633 -0.20814,0.14923 -0.13018,0.20003 -0.0399,0.15699 0.6036,-0.28575 0.70697,-0.45367 0.80045,-0.65193 m 12.89544,0.83749 c -0.0557,-0.0349 -0.055,-0.0755 -0.0296,-0.11501 0.084,-0.12982 0.14464,-0.12594 0.20038,-0.0656 0.0896,0.11501 0.0699,0.30551 0.06,0.34079 0,0 -0.17427,-0.12559 -0.23072,-0.16016 m 0.22402,0.42721 c 0.11994,0.0561 0.17074,0.1838 0.18732,0.13688 0.0455,-0.13335 0.0607,-0.20814 0.0261,-0.24483 -0.0247,-0.0265 -0.11148,-0.0914 -0.11148,-0.0914 0.0318,-0.0748 0.097,-0.33796 -0.0116,-0.54822 -0.0261,-0.0452 -0.133,-0.21131 -0.35701,0.0402 -0.0875,0.0967 -0.19968,0.34255 -0.11148,0.4318 0.0889,0.0885 0.28293,0.21414 0.28293,0.21414 -0.10196,0.17427 -0.34643,0.32914 -0.6664,0.55668 -0.20779,0.14888 -0.12982,0.19968 -0.0392,0.15664 0.6029,-0.28575 0.70626,-0.45332 0.80081,-0.65194 m -3.4604,-0.4325 c -0.0557,-0.0353 -0.055,-0.0759 -0.0296,-0.11501 0.0843,-0.13017 0.14464,-0.12629 0.20073,-0.066 0.0896,0.11501 0.0695,0.30551 0.06,0.34079 0,0 -0.17463,-0.12559 -0.23107,-0.15981 m 0.22401,0.42721 c 0.11995,0.0561 0.17075,0.18345 0.18733,0.13653 0.0455,-0.13335 0.0607,-0.20779 0.0265,-0.24483 -0.025,-0.0261 -0.11183,-0.0914 -0.11183,-0.0914 0.0317,-0.0748 0.0974,-0.33796 -0.0117,-0.54787 -0.0261,-0.0452 -0.13299,-0.21166 -0.35701,0.0402 -0.0875,0.0963 -0.19967,0.34255 -0.11147,0.43145 0.0889,0.0885 0.28328,0.21414 0.28328,0.21414 -0.10231,0.17427 -0.34678,0.32914 -0.6664,0.55668 -0.20814,0.14887 -0.13018,0.19967 -0.0392,0.15663 0.6029,-0.28539 0.70591,-0.45331 0.80045,-0.65158 m 1.61149,-0.46884 c 0.0127,-0.004 0.0272,-0.002 0.0423,-0.0162 0.0494,-0.0462 0.0907,-0.16898 0.0956,-0.21061 -0.006,-0.0321 -0.12065,-0.0434 -0.15381,-0.0512 -0.1136,-0.0275 -0.22155,-0.0875 -0.34008,-0.0949 -0.18203,-0.0116 -0.35137,0.0702 -0.44521,0.26212 -0.0102,0.025 -0.0254,0.0586 -0.036,0.0836 -0.0109,0.0423 0.0106,0.0706 0.0325,0.0381 0.0254,-0.0381 0.0564,-0.0748 0.096,-0.0984 0.0935,-0.0568 0.19297,-0.0783 0.29422,-0.0688 0.0914,0.009 0.26352,0.0734 0.26352,0.0825 -10e-4,0.0198 -0.40146,0.21801 -0.46425,0.25717 -0.0268,0.0173 -0.0607,0.0487 -0.0543,0.0801 0.005,0.024 0.0434,0.0293 0.0759,0.0173 0.15698,-0.0568 0.21343,-0.0529 0.34113,-0.10689 0.17145,-0.0737 0.22225,-0.1651 0.25259,-0.17392 m -2.08421,2.40207 c -0.024,0.0515 -0.0557,0.13934 -0.0744,0.1905 -0.006,0.0183 0.008,0.0402 0.0303,0.0272 0.12771,-0.0776 0.31786,-0.17392 0.51894,-0.24518 0.18309,-0.0649 0.32738,-0.1069 0.46038,-0.1143 0.0205,-0.003 0.12946,-0.19438 0.14605,-0.2219 0.0226,-0.036 0.006,-0.0476 -0.0229,-0.042 -0.15416,0.0296 -0.2741,0.0572 -0.46072,0.0399 -0.23107,-0.0205 -0.41064,-0.19685 -0.40464,-0.266 0.005,-0.0526 0.16898,-0.15734 0.22931,-0.14816 0.17709,0.0279 0.17392,0.18344 0.22119,0.18521 0.0575,0.002 0.17321,-0.20215 0.17991,-0.25753 0.008,-0.0607 -0.11359,-0.20497 -0.2286,-0.21167 -0.19014,-0.0116 -0.51188,0.31009 -0.63817,0.50835 -0.0462,0.0727 -0.0413,0.18415 0.0243,0.2413 0.0586,0.0497 0.15487,0.10266 0.26458,0.16863 -0.054,0.019 -0.19367,0.10054 -0.24553,0.1457 m 6.51263,-0.98531 c -0.0317,-0.29951 -0.1584,-1.22484 -0.17004,-1.46262 -0.005,-0.13017 -0.0215,-0.24271 -0.0773,-0.14217 -0.0593,0.1076 -0.0924,0.24624 -0.0737,0.43568 0.0261,0.32668 0.0565,0.57186 0.0861,0.8061 0.0296,0.23707 0.13512,0.94333 0.12383,1.44357 -0.002,0.11712 0.043,0.14746 0.0787,0.0631 0.0621,-0.14182 0.0953,-0.54751 0.0325,-1.14371 m -1.518,1.55011 c -0.0413,-0.0406 -0.0769,-0.0861 -0.11077,-0.13088 l -0.0247,-0.002 -0.22472,0.22578 -0.006,0.0416 c 0.031,0.0441 0.0663,0.0854 0.10548,0.12453 0.0427,0.0434 0.0882,0.0808 0.13582,0.11359 l 0.0441,-0.003 0.22543,-0.22542 -0.002,-0.0275 c -0.0519,-0.0339 -0.0988,-0.0716 -0.14217,-0.11642 m 1.04669,-1.09361 c -0.15275,-0.01 -0.86254,-0.0226 -1.27811,-0.25224 0.0413,-0.0349 0.13088,-0.15063 0.0984,-0.44168 -0.0307,-0.29068 -0.14746,-1.12148 -0.14746,-1.12148 -0.01,-0.0868 -0.0444,-0.17039 0.005,-0.21448 0.0497,-0.0448 0.15381,-0.12065 0.0938,-0.2025 -0.06,-0.0818 -0.16334,-0.23777 -0.19297,-0.32597 -0.0254,-0.0744 -0.0476,-0.13652 -0.0847,-0.078 -0.0441,0.0677 -0.06,0.15382 -0.11924,0.23178 -0.031,0.0413 -0.0635,0.0614 -0.0282,0.12312 0.048,0.0843 0.0956,0.23777 0.10548,0.34325 0.004,0.055 0.0198,0.17427 0.0356,0.28787 0,0 0.2032,1.05022 0.18662,1.22026 0,0 -0.84031,0.0296 -0.94932,0.13582 l -0.16898,0.26176 c -0.0138,0.0289 -0.0123,0.0607 0.0279,0.0547 0.0399,-0.007 0.55668,-0.17251 1.28199,0.11853 -0.0861,0.0296 -1.04387,0.43956 -1.85349,0.34784 -0.12101,-0.004 -0.9712,-0.11501 -1.04176,-0.54645 -0.01,-0.0543 -0.024,-0.0744 -0.0529,-0.0194 -0.0258,0.049 -0.26176,0.40111 0.109,0.65405 -0.11712,0.248 -0.32667,0.5842 -0.64628,0.71578 -0.10478,0.0395 -0.57221,0.15911 -1.04387,-0.0522 -0.0582,-0.0187 -0.14358,0.0282 -0.0561,0.0882 0.0889,0.0607 0.95109,0.61172 1.5113,0.0317 0.0984,-0.1016 0.26706,-0.37288 0.39476,-0.69814 0.57397,0.3122 1.52753,0.14075 1.52753,0.14075 0.20743,-0.0441 0.4251,-0.10548 0.64982,-0.19226 0.11818,-0.0483 0.92992,-0.41557 1.4799,-0.28751 0.11501,0.0282 0.14111,0.0282 0.14111,0.0282 0,0 0.0988,-0.21061 0.12136,-0.26176 0.0219,-0.0508 0.0476,-0.0801 -0.10619,-0.0896 m -4.07352,-1.02165 c 0.0441,0.0441 0.091,0.0825 0.14217,0.11712 l 0.002,0.0275 -0.22472,0.22472 -0.0441,0.003 c -0.0476,-0.0324 -0.0931,-0.0709 -0.13653,-0.11289 -0.0384,-0.0399 -0.0737,-0.0811 -0.10477,-0.12523 l 0.006,-0.0416 0.22542,-0.22578 0.0247,0.002 c 0.0339,0.0448 0.0688,0.09 0.11007,0.13088"
         style="fill:#231f20;fill-opacity:1;fill-rule:nonzero;stroke:none;stroke-width:0.352778"
         clip-path="url(#clipPath1)"
         id="path77" /></g></g></svg>
