<?xml version="1.0" encoding="UTF-8" standalone="no"?>
<!-- Created with Inkscape (http://www.inkscape.org/) -->

<svg
   version="1.1"
   id="svg1"
   width="72.333191"
   height="21.637089"
   viewBox="0 0 72.333191 21.637089"
   xmlns="http://www.w3.org/2000/svg"
   xmlns:svg="http://www.w3.org/2000/svg">
  <defs
     id="defs1">
    <clipPath
       clipPathUnits="userSpaceOnUse"
       id="clipPath76">
      <path
         d="m 301.484,518.463 h 54.25 v -16.228 h -54.25 z"
         transform="translate(-311.06151,-514.46581)"
         id="path76" />
    </clipPath>
    <clipPath
       clipPathUnits="userSpaceOnUse"
       id="clipPath78">
      <path
         d="M 0,547.086 H 382.677 V 0 H 0 Z"
         transform="matrix(1.3333333,0,0,-1.3333333,0,729.448)"
         id="path78" />
    </clipPath>
  </defs>
  <g
     id="layer-MC1"
     transform="translate(-401.97879,-38.164013)">
    <g
       id="g77"
       clip-path="url(#clipPath78)">
      <path
         d="m 0,0 -0.542,-0.723 v -0.118 c 0.105,-0.112 0.219,-0.216 0.346,-0.31 0.135,-0.101 0.278,-0.19 0.424,-0.263 l 0.123,0.025 0.542,0.722 -0.017,0.076 C 0.72,-0.516 0.573,-0.428 0.432,-0.32 0.3,-0.222 0.183,-0.108 0.068,0.004 Z M 0.369,-2.287 0.348,-2.328 0.047,-2.133 c -0.136,0.101 -0.256,0.218 -0.37,0.335 l -0.078,-0.005 -0.56,-0.748 -0.002,-0.125 c 0.111,-0.115 0.229,-0.224 0.36,-0.322 0.137,-0.106 0.287,-0.198 0.44,-0.273 l 0.13,0.03 0.53,0.704 0.231,-0.195 c 0.14,-0.106 0.29,-0.198 0.44,-0.273 l 0.13,0.026 0.559,0.749 -0.022,0.078 C 1.68,-2.071 1.526,-1.98 1.378,-1.869 1.242,-1.768 1.124,-1.65 1.006,-1.533 L 0.932,-1.537 Z m 15.732,0.693 -0.542,-0.723 v -0.119 c 0.104,-0.111 0.218,-0.215 0.345,-0.31 0.136,-0.101 0.279,-0.19 0.424,-0.262 l 0.123,0.026 0.542,0.721 -0.016,0.076 c -0.157,0.075 -0.303,0.163 -0.445,0.271 -0.132,0.098 -0.249,0.211 -0.363,0.324 z m 0.369,-2.287 -0.022,-0.041 -0.301,0.195 c -0.135,0.101 -0.255,0.218 -0.37,0.334 L 15.699,-3.397 15.14,-4.146 15.138,-4.27 c 0.111,-0.115 0.228,-0.224 0.36,-0.322 0.137,-0.107 0.286,-0.198 0.44,-0.273 l 0.129,0.03 0.531,0.704 0.23,-0.195 c 0.141,-0.107 0.29,-0.198 0.441,-0.274 l 0.129,0.027 0.56,0.749 -0.022,0.077 c -0.156,0.081 -0.309,0.172 -0.457,0.284 -0.136,0.101 -0.254,0.218 -0.373,0.336 L 17.032,-3.131 Z M -0.228,-7.809 c -0.217,-0.014 -1.229,-0.117 -1.038,0.476 0.055,0.182 0.358,0.606 0.698,0.317 0.177,-0.155 0.433,-0.391 0.617,-0.731 -0.098,-0.017 -0.184,-0.052 -0.277,-0.062 m 1.505,3.582 C 1.258,-4.385 1.209,-5.182 1.209,-5.182 1.521,-5.555 2.355,-6.442 2.188,-6.749 1.973,-7.143 1.061,-7.487 0.623,-7.63 c -0.045,0.196 -0.102,0.399 -0.185,0.61 -0.12,0.301 -0.864,1.795 -1.639,0.863 -0.764,-0.92 -0.944,-2.322 -0.01,-2.611 0.234,-0.072 0.887,-0.065 1.529,0.062 L 0.289,-8.88 c -0.219,-0.687 -1.631,-3.345 -5.256,-2.867 -0.344,0.055 -0.519,-0.213 -0.111,-0.304 0.205,-0.047 2.201,-0.473 3.775,0.181 0.496,0.203 0.879,0.662 1.24,1.149 0.092,0.127 0.731,0.912 0.782,2.115 0.535,0.178 1.935,0.617 1.924,1.857 -0.002,0.334 0.152,1.52 -1.186,2.684 -0.145,0.131 -0.16,0 -0.18,-0.162 m 19.427,-0.974 c 0.166,-0.986 -0.074,-1.779 -0.418,-2.377 -0.344,-0.595 -1.224,-0.072 -1.777,0.153 -0.553,0.222 -0.881,-0.106 -1.434,-0.406 -2.301,-1.137 -4.482,-0.895 -4.945,-0.791 -2.524,0.613 -2.449,3.601 -2.449,3.601 0,0 -0.194,-1.629 -0.778,-2.601 C 7.724,-9.31 4.214,-9.564 3.915,-9.621 3.616,-9.683 3.481,-9.415 3.81,-9.31 c 2.914,0.688 3.974,1.793 4.347,2.168 0.186,0.154 0.342,0.334 0.475,0.525 -0.551,2.303 -3.795,4.057 -3.795,4.057 0,0 -0.024,-0.129 -0.051,-0.23 C 4.761,-2.892 4.62,-2.841 4.519,-2.816 4.417,-2.79 3.96,-2.65 3.296,-2.419 c 0,0 -0.369,1.412 -0.42,1.668 -0.051,0.253 0.119,0.199 0.268,0.138 4.513,-1.834 5.507,-4.836 5.628,-5.783 1.104,1.92 0.198,5.047 0.131,5.543 -0.074,0.566 -0.013,1.029 0.106,1.51 0.119,0.476 0.269,0.06 0.312,-0.36 0.045,-0.418 0.883,-5.048 1.002,-5.662 0.283,-2.06 2.106,-2.168 2.674,-2.257 2.061,-0.315 4.764,1.044 5.065,1.226 0.296,0.18 0.597,-0.018 0.806,-0.119 0.209,-0.106 0.91,-0.434 1.299,-0.389 0.223,0.028 0.074,1.223 0,1.719 -0.074,0.492 -0.945,4.684 -0.945,4.684 -0.055,0.32 -0.11,0.658 -0.127,0.812 -0.033,0.299 -0.225,0.697 -0.367,0.93 -0.106,0.174 -0.016,0.23 0.068,0.351 0.162,0.225 0.211,0.34 0.328,0.534 0.102,0.168 0.172,-0.006 0.248,-0.213 0.092,-0.248 0.4,-0.641 0.576,-0.868 0.176,-0.226 -0.103,-0.558 -0.24,-0.689 -0.139,-0.133 -0.098,-0.172 -0.064,-0.418 0,0 0.896,-4.152 1.06,-5.139 m -25.108,-3.69 c -1.317,-1.569 -3.129,-1.395 -3.534,-1.295 -2.392,0.588 -1.257,3.756 -1.068,4.045 0.147,0.224 0.246,0.031 0.207,-0.069 -1.142,-2.709 1.158,-3.043 1.395,-3.052 2.265,-0.119 2.98,1.429 3.062,1.738 0.082,0.309 -0.797,2.078 -1.023,2.402 0,0 0.152,0.842 0.197,0.951 0.045,0.106 0.139,-0.013 0.242,-0.199 0,0 0.639,-1.095 0.766,-1.683 0.367,-1.709 -0.088,-2.653 -0.244,-2.838 m -2.491,5.709 c 0.125,-0.127 0.258,-0.237 0.405,-0.332 l 0.006,-0.078 -0.637,-0.637 -0.127,-0.008 c -0.135,0.092 -0.264,0.197 -0.385,0.318 -0.111,0.114 -0.211,0.231 -0.299,0.356 l 0.018,0.117 0.637,0.641 0.07,-0.006 c 0.098,-0.125 0.197,-0.256 0.312,-0.371 M 5.499,1.247 C 5.515,1.276 5.536,1.353 5.585,1.504 5.632,1.651 5.7,1.692 5.919,1.783 6.136,1.873 9.616,3.292 9.823,3.389 10.14,3.541 10.085,3.412 10.034,3.298 9.987,3.192 9.968,3.168 9.886,3.015 9.804,2.867 9.7,2.836 9.524,2.75 9.356,2.66 5.825,1.226 5.724,1.184 5.403,1.044 5.458,1.146 5.499,1.247 m -11.02,-1.423 c -0.174,-0.093 -3.7,-1.527 -3.799,-1.569 -0.321,-0.138 -0.268,-0.039 -0.225,0.063 0.01,0.031 0.035,0.107 0.084,0.257 0.049,0.147 0.113,0.189 0.334,0.28 0.219,0.09 3.697,1.512 3.902,1.611 0.321,0.149 0.264,0.021 0.215,-0.092 -0.049,-0.106 -0.07,-0.131 -0.152,-0.28 -0.082,-0.152 -0.186,-0.182 -0.359,-0.27 M 12.2,1.396 c 0.012,0.031 0.035,0.111 0.078,0.261 0.043,0.151 0.108,0.191 0.325,0.289 0.216,0.098 4.445,1.873 4.648,1.977 0.314,0.161 0.264,0.029 0.215,-0.086 C 17.423,3.733 17.405,3.706 17.323,3.552 17.245,3.398 17.146,3.366 16.974,3.273 16.802,3.179 12.526,1.386 12.427,1.339 12.112,1.191 12.163,1.295 12.2,1.396 m 10.936,-5.595 c 0.32,-1.934 0.336,-3.279 0.189,-3.757 -0.072,-0.277 -0.203,-0.186 -0.23,0.2 -0.102,1.641 -0.576,3.924 -0.711,4.694 -0.153,0.764 -0.297,1.563 -0.453,2.615 -0.102,0.617 -0.045,1.085 0.09,1.45 0.14,0.342 0.203,-0.026 0.255,-0.45 0.088,-0.778 0.692,-3.777 0.86,-4.752 m -6.717,4.774 c 0.055,-0.132 0.1,-0.288 0.092,-0.376 -0.209,-0.205 -0.438,-0.238 -0.602,-0.102 -0.103,0.086 -0.144,0.25 -0.135,0.464 0.008,0.153 0.028,0.212 -0.109,0.104 -0.178,-0.144 -0.129,-0.132 -0.139,-0.211 -0.062,-0.504 -0.279,-0.731 -0.668,-0.757 -0.246,-0.018 -0.425,0.152 -0.254,0.638 0.036,0.104 -0.037,0.213 -0.144,0 -0.365,-0.729 -0.143,-1.135 0.228,-1.191 0.307,-0.045 0.666,0.128 0.852,0.589 0.141,-0.234 0.426,-0.302 0.684,-0.234 0.332,0.087 0.404,0.24 0.496,0.507 0.093,0.259 0.097,0.6 -0.03,1.011 -0.019,0.068 -0.056,0.03 -0.072,-10e-4 L 16.442,0.677 C 16.419,0.642 16.405,0.617 16.419,0.575 m -17.61,2.091 c -0.161,0.1 -0.159,0.214 -0.086,0.326 0.238,0.368 0.412,0.358 0.568,0.187 0.256,-0.326 0.197,-0.866 0.17,-0.967 0,0 -0.492,0.356 -0.652,0.454 m 0.632,-1.211 c 0.342,-0.16 0.487,-0.52 0.532,-0.388 0.13,0.377 0.174,0.59 0.076,0.695 -0.071,0.073 -0.319,0.259 -0.319,0.259 0.09,0.211 0.276,0.958 -0.031,1.553 -0.076,0.128 -0.379,0.6 -1.012,-0.115 -0.249,-0.272 -0.568,-0.97 -0.316,-1.224 0.25,-0.25 0.801,-0.606 0.801,-0.606 -0.287,-0.493 -0.983,-0.934 -1.887,-1.577 -0.59,-0.423 -0.369,-0.567 -0.113,-0.445 1.711,0.81 2.004,1.286 2.269,1.848 m 36.554,-2.374 c -0.158,0.099 -0.156,0.214 -0.084,0.326 0.238,0.368 0.41,0.357 0.568,0.186 0.254,-0.326 0.198,-0.866 0.17,-0.966 0,0 -0.494,0.356 -0.654,0.454 M 36.63,-2.13 c 0.34,-0.159 0.484,-0.521 0.531,-0.388 0.129,0.378 0.172,0.59 0.074,0.694 -0.07,0.075 -0.316,0.259 -0.316,0.259 0.09,0.212 0.275,0.958 -0.033,1.554 C 36.812,0.117 36.509,0.588 35.874,-0.125 35.626,-0.399 35.308,-1.096 35.558,-1.349 35.81,-1.6 36.36,-1.956 36.36,-1.956 36.071,-2.45 35.378,-2.889 34.471,-3.534 33.882,-3.956 34.103,-4.1 34.36,-3.978 c 1.709,0.81 2.002,1.285 2.27,1.848 m -9.809,1.226 c -0.158,0.1 -0.156,0.215 -0.084,0.326 0.239,0.369 0.41,0.358 0.569,0.187 0.254,-0.326 0.197,-0.866 0.17,-0.966 0,0 -0.495,0.356 -0.655,0.453 m 0.635,-1.211 c 0.34,-0.159 0.484,-0.52 0.531,-0.387 0.129,0.378 0.172,0.589 0.075,0.694 -0.071,0.074 -0.317,0.259 -0.317,0.259 0.09,0.212 0.276,0.958 -0.033,1.553 -0.074,0.128 -0.377,0.6 -1.012,-0.114 -0.248,-0.273 -0.566,-0.971 -0.316,-1.223 0.252,-0.251 0.803,-0.607 0.803,-0.607 -0.29,-0.494 -0.983,-0.933 -1.889,-1.578 -0.59,-0.422 -0.369,-0.566 -0.111,-0.444 1.709,0.809 2.001,1.285 2.269,1.847 m 4.568,1.329 c 0.036,0.01 0.077,0.006 0.12,0.046 0.14,0.131 0.257,0.479 0.271,0.597 -0.016,0.091 -0.342,0.123 -0.436,0.145 -0.322,0.078 -0.628,0.248 -0.964,0.269 -0.516,0.033 -0.996,-0.199 -1.262,-0.743 -0.029,-0.071 -0.072,-0.166 -0.102,-0.237 -0.031,-0.12 0.03,-0.2 0.092,-0.108 0.072,0.108 0.16,0.212 0.272,0.279 0.265,0.161 0.547,0.222 0.834,0.195 0.259,-0.026 0.747,-0.208 0.747,-0.234 -0.003,-0.056 -1.138,-0.618 -1.316,-0.729 -0.076,-0.049 -0.172,-0.138 -0.154,-0.227 0.014,-0.068 0.123,-0.083 0.215,-0.049 0.445,0.161 0.605,0.15 0.967,0.303 0.486,0.209 0.63,0.468 0.716,0.493 m -5.908,-6.809 c -0.068,-0.146 -0.158,-0.395 -0.211,-0.54 -0.017,-0.052 0.024,-0.114 0.086,-0.077 0.362,0.22 0.901,0.493 1.471,0.695 0.519,0.184 0.928,0.303 1.305,0.324 0.058,0.009 0.367,0.551 0.414,0.629 0.064,0.102 0.017,0.135 -0.065,0.119 -0.437,-0.084 -0.777,-0.162 -1.306,-0.113 -0.655,0.058 -1.164,0.558 -1.147,0.754 0.014,0.149 0.479,0.446 0.65,0.42 0.502,-0.079 0.493,-0.52 0.627,-0.525 0.163,-0.005 0.491,0.573 0.51,0.73 0.022,0.172 -0.322,0.581 -0.648,0.6 -0.539,0.033 -1.451,-0.879 -1.809,-1.441 -0.131,-0.206 -0.117,-0.522 0.069,-0.684 0.166,-0.141 0.439,-0.291 0.75,-0.478 -0.153,-0.054 -0.549,-0.285 -0.696,-0.413 m 18.461,2.793 c -0.09,0.849 -0.449,3.472 -0.482,4.146 -0.014,0.369 -0.061,0.688 -0.219,0.403 -0.168,-0.305 -0.262,-0.698 -0.209,-1.235 0.074,-0.926 0.16,-1.621 0.244,-2.285 0.084,-0.672 0.383,-2.674 0.351,-4.092 -0.005,-0.332 0.122,-0.418 0.223,-0.179 0.176,0.402 0.27,1.552 0.092,3.242 m -4.303,-4.394 c -0.117,0.115 -0.218,0.244 -0.314,0.371 l -0.07,0.006 -0.637,-0.64 -0.018,-0.118 c 0.088,-0.125 0.188,-0.242 0.299,-0.353 0.121,-0.123 0.25,-0.229 0.385,-0.322 l 0.125,0.009 0.639,0.639 -0.006,0.078 c -0.147,0.096 -0.28,0.203 -0.403,0.33 m 2.967,3.1 c -0.433,0.027 -2.445,0.064 -3.623,0.715 0.117,0.099 0.371,0.427 0.279,1.252 -0.087,0.824 -0.418,3.179 -0.418,3.179 -0.027,0.246 -0.126,0.483 0.014,0.608 0.141,0.127 0.436,0.342 0.266,0.574 -0.17,0.232 -0.463,0.674 -0.547,0.924 -0.072,0.211 -0.135,0.387 -0.24,0.221 -0.125,-0.192 -0.17,-0.436 -0.338,-0.657 -0.088,-0.117 -0.18,-0.174 -0.08,-0.349 0.136,-0.239 0.271,-0.674 0.299,-0.973 0.011,-0.156 0.056,-0.494 0.101,-0.816 0,0 0.576,-2.977 0.529,-3.459 0,0 -2.382,-0.084 -2.691,-0.385 l -0.479,-0.742 c -0.039,-0.082 -0.035,-0.172 0.079,-0.155 0.113,0.02 1.578,0.489 3.634,-0.336 -0.244,-0.084 -2.959,-1.246 -5.254,-0.986 -0.343,0.01 -2.753,0.326 -2.953,1.549 -0.027,0.154 -0.068,0.211 -0.15,0.055 -0.073,-0.139 -0.742,-1.137 0.309,-1.854 -0.332,-0.703 -0.926,-1.656 -1.832,-2.029 -0.297,-0.112 -1.622,-0.451 -2.959,0.148 -0.165,0.053 -0.407,-0.08 -0.159,-0.25 0.252,-0.172 2.696,-1.734 4.284,-0.09 0.279,0.288 0.757,1.057 1.119,1.979 1.627,-0.885 4.33,-0.399 4.33,-0.399 0.588,0.125 1.205,0.299 1.842,0.545 0.335,0.137 2.636,1.178 4.195,0.815 0.326,-0.08 0.4,-0.08 0.4,-0.08 0,0 0.28,0.597 0.344,0.742 0.062,0.144 0.135,0.227 -0.301,0.254 M 31.694,-3.2 c 0.125,-0.125 0.258,-0.234 0.403,-0.332 l 0.006,-0.078 -0.637,-0.637 -0.125,-0.009 c -0.135,0.092 -0.264,0.201 -0.387,0.32 -0.109,0.113 -0.209,0.23 -0.297,0.355 l 0.016,0.118 0.639,0.64 0.07,-0.006 c 0.096,-0.127 0.195,-0.255 0.312,-0.371"
         style="fill:#231f20;fill-opacity:1;fill-rule:nonzero;stroke:none"
         transform="matrix(1.3333333,0,0,-1.3333333,414.74867,43.4936)"
         clip-path="url(#clipPath76)"
         id="path77" />
    </g>
  </g>
</svg>
