<?xml version="1.0" encoding="UTF-8" standalone="no"?>
<!-- Created with Inkscape (http://www.inkscape.org/) -->

<svg
   width="14.724671mm"
   height="6.9146843mm"
   viewBox="0 0 14.724671 6.9146841"
   version="1.1"
   id="svg1"
   xml:space="preserve"
   xmlns="http://www.w3.org/2000/svg"
   xmlns:svg="http://www.w3.org/2000/svg"><defs
     id="defs1" /><g
     id="layer1"
     transform="translate(-186.58971,13.109682)"><g
       id="g6"
       transform="translate(-133.79056,-11.127933)"><path
         d="m 325.61332,0.44436813 0.0645,-0.121356 c 0.005,-0.01199 0.0187,-0.0254 0.0265,-7.05e-4 0.0448,0.148167 0.0438,0.272344 0.0106,0.36583 -0.0342,0.09737 -0.0603,0.152753 -0.17992,0.183445 -0.0935,0.02469 -0.19685,0 -0.24836,-0.08431 -0.0663,0.16686404 -0.19755,0.22930607 -0.30762,0.21307807 -0.13511,-0.01976 -0.21555,-0.16721707 -0.0833,-0.43109507 0.0388,-0.07726 0.0653,-0.03739 0.0522,0 -0.0617,0.175331 0.004,0.237067 0.0921,0.23107 0.14111,-0.0095 0.21943,-0.09172 0.24201,-0.274814 0.004,-0.02893 -0.0138,-0.02364 0.0501,-0.0755 0.049,-0.03986 0.0423,-0.0187 0.0399,0.03704 -0.004,0.07761 0.0109,0.136878 0.0487,0.168275 0.06,0.04939 0.14182,0.03704 0.21802,-0.03634 0.002,-0.03281 -0.0138,-0.08819 -0.0328,-0.136878 -0.006,-0.01446 0,-0.02434 0.007,-0.03775 m -1.70886,2.03940797 c -0.073,0.03387 -0.9719,0.407459 -1.04916,0.43815 -0.0773,0.0314 -0.10089,0.04516 -0.11818,0.09807 -0.0173,0.05186 -0.0265,0.07937 -0.0303,0.09066 -0.0148,0.03493 -0.0346,0.07056 0.0794,0.02258 0.0349,-0.01482 0.95073,-0.392289 1.01176,-0.423333 0.0617,-0.0314 0.0984,-0.04092 0.12771,-0.09419 0.0296,-0.05292 0.037,-0.06209 0.0536,-0.09878 0.0183,-0.03986 0.0392,-0.08572 -0.0748,-0.03316 m -0.71543,-0.623711 -0.0247,-0.0018 -0.22472,0.225425 -0.007,0.04163 c 0.0314,0.0441 0.0663,0.08573 0.10513,0.124883 0.0434,0.04233 0.0889,0.08079 0.13617,0.112889 l 0.0448,-0.0028 0.22472,-0.225072 -0.002,-0.02787 c -0.0511,-0.03387 -0.0984,-0.07232 -0.14217,-0.116416 -0.0413,-0.04022 -0.0758,-0.08608 -0.11006,-0.130881 m 0.12664,1.673225 c -0.20037,0.01835 -1.41216,0.204964 -1.94909,0.04516 -0.53764,-0.15875 -0.74295,-0.591609 -0.61525,-1.275292 0.12312,-0.545394 0.43251,-0.818444 0.68898,-0.98425 0.14499,0.165806 0.2928,0.293511 0.87524,0.317147 0.15946,0 0.6096,-0.01058 1.14441,-0.276578 0.0586,-0.03175 0.11748,-0.06244 0.14923,-0.312913 0.01,-0.10936093 0.0416,-0.46884197 -0.27023,-0.77646397 -0.037,-0.04092 -0.055,-0.04339 -0.0688,0.01341 -0.0138,0.0568 -0.0593,0.323145 -0.0593,0.323145 0.10054,0.132644 0.30304,0.41733607 0.25506,0.44661597 -0.048,0.02963 -0.88794,0.416984 -1.59562,0.182386 -0.0166,-0.0063 -0.0776,-0.0388 -0.15663,-0.08325 0.0819,-0.0441 0.14146,-0.08114 0.16263,-0.1245309 0.0624,-0.11994403 0.1464,-0.29668607 0.0159,-0.39052507 -0.0388,-0.03175 -0.25365,-0.163336 -0.53411,-0.120297 -0.2801,0.04374 -0.43533,0.147814 -0.53093,0.49777007 -0.0159,0.06985 0.0116,0.09596 0.0505,0.05398 0.0377,-0.03986 0.19685,-0.156986 0.3683,0.02187 -0.0466,0.04269 -0.0956,0.0956 -0.14817,0.165453 -0.1591,0.214136 -0.58808,0.77858 -0.53305,1.603022 0.0589,0.897466 0.71508,1.307041 1.68981,1.111603 0.23213,-0.04551 0.99307,-0.264231 1.0929,-0.309739 0.10055,-0.04586 0.16934,-0.14605 -0.0317,-0.127706 m 2.89666,-3.42335504 c -0.007,-0.08714 -0.0208,-0.102659 0.0296,-0.14605 0.0508,-0.04339 0.17392,-0.130175 0.11606,-0.213431 -0.0582,-0.08396 -0.1591,-0.227894 -0.18732,-0.317147 -0.0233,-0.07444 -0.0441,-0.136525 -0.0833,-0.07937 -0.0452,0.06632 -0.0642,0.10548 -0.12524,0.182386 -0.0324,0.03986 -0.0645,0.05927 -0.031,0.122061 0.0462,0.08537 0.12065,0.2286 0.11289,0.334081 -0.0116,0.153811 0.34255,1.99778004 0.31362,2.07962504 -0.0286,0.08114 -0.59479,0.206022 -0.83997,0.0092 -0.0473,-0.02893 -0.0667,-0.03845 -0.0762,0.04833 -0.007,0.06491 -0.0445,0.313267 0.2085,0.397581 -0.0811,0.191558 -0.34467,0.696383 -0.79587,0.88265 -0.10936,0.04127 -0.61313,0.202494 -1.1042,-0.01799 -0.0607,-0.0194 -0.15028,0.02893 -0.0579,0.09208 0.0917,0.06244 1.08902,0.547864 1.67287,-0.05785 0.0794,-0.07973 0.32667,-0.464961 0.4445,-0.87242 0.0526,0.0025 0.11077,7.06e-4 0.17886,-0.0074 0.18732,-0.0092 0.44909,-0.06385 0.47272,-0.285045 0.0247,-0.220486 0.0363,-0.611363 -0.10795,-1.39382404 -0.048,-0.268817 -0.14076,-0.757414 -0.14076,-0.757414 m 0.89535,-0.234245 c -0.005,-0.140053 -0.0226,-0.261761 -0.0825,-0.1524 -0.0642,0.115359 -0.0998,0.264584 -0.0801,0.470253 0.0279,0.351719 0.0614,0.616656 0.0935,0.86995004 0.0321,0.255764 0.14534,1.018469 0.1337,1.558219 -0.002,0.126648 0.0462,0.159456 0.085,0.0695 0.0663,-0.154517 0.10231,-0.592314 0.0349,-1.235428 -0.0339,-0.324203 -0.17145,-1.32362204 -0.18451,-1.58009204 m -2.37243,-0.27305 c 0.0349,-0.01517 0.95109,-0.392641 1.01247,-0.424039 0.0621,-0.03069 0.0977,-0.04127 0.12736,-0.09384 0.03,-0.05256 0.0374,-0.06209 0.0543,-0.09948 0.0176,-0.03986 0.0381,-0.08502 -0.0748,-0.03246 -0.0734,0.03387 -0.97191,0.40710407 -1.04987,0.43814907 -0.0773,0.0314 -0.10125,0.04551 -0.11818,0.09772 -0.0173,0.05221 -0.0265,0.08043 -0.0307,0.09066 -0.0145,0.03528 -0.0339,0.07126 0.0794,0.02328 m -0.47378,1.229431 c -0.0324,-0.253647 -0.0656,-0.517878 -0.0938,-0.870656 -0.0201,-0.205316 0.0159,-0.354189 0.0801,-0.470253 0.0593,-0.109008 0.0776,0.01235 0.0825,0.152753 0.0131,0.256822 0.15029,1.25624204 0.18415,1.58044593 0.0674,0.643113 0.0321,1.080911 -0.0349,1.235075 -0.0384,0.09031 -0.0871,0.0575 -0.084,-0.0695 0.0106,-0.539397 -0.10266,-1.302102 -0.13406,-1.55786693 m -2.85997,-1.347259 c 0.009,-0.03281 0.0279,-0.208491 -0.0554,-0.314677 -0.0508,-0.05574 -0.10725,-0.05891 -0.18486,0.06068 -0.0236,0.03634 -0.024,0.07408 0.0275,0.106187 0.0515,0.03175 0.21272,0.147813 0.21272,0.147813 m -0.74506,0.848078 c -0.0836,0.03951 -0.15558,-0.0074 0.0367,-0.144991 0.29457,-0.20955 0.52035,-0.352778 0.61419,-0.513645 0,0 -0.17921,-0.115711 -0.2607,-0.197203 -0.0822,-0.08255 0.0215,-0.309386 0.10266,-0.398639 0.20637,-0.23212607 0.3048,-0.0786703 0.32914,-0.03704 0.10019,0.19402799 0.0402,0.43709099 0.0109,0.50588299 0,0 0.0801,0.05997 0.10337,0.08431 0.0314,0.03387 0.0169,0.103011 -0.0247,0.225778 -0.0152,0.04339 -0.0621,-0.07444 -0.17286,-0.125942 -0.0868,0.183092 -0.18238,0.337961 -0.73871,0.601486 m 11.47692,0.0695 c 0.01,-0.03492 0.03,-0.225425 -0.06,-0.34043 -0.0554,-0.06033 -0.11641,-0.06421 -0.20037,0.06562 -0.0254,0.03916 -0.0261,0.08008 0.03,0.115005 0.0564,0.03457 0.23037,0.159808 0.23037,0.159808 m -0.80751,0.91933984 c -0.0903,0.04304 -0.16828,-0.0081 0.0399,-0.156986 0.31926,-0.22718981 0.56409,-0.38241185 0.66569,-0.55668385 0,0 -0.19403,-0.125236 -0.28257,-0.213783 -0.0885,-0.08925 0.0236,-0.335139 0.11112,-0.4318 0.22402,-0.251884 0.33091,-0.08537 0.35737,-0.04022 0.1083,0.210255 0.043,0.473428 0.0113,0.548217 0,0 0.0868,0.06491 0.11183,0.09137 0.0346,0.03669 0.0191,0.111478 -0.0265,0.244828 -0.0162,0.04692 -0.067,-0.08079 -0.18733,-0.136878 -0.0942,0.198614 -0.19755,0.36618395 -0.8008,0.65193385 m -2.42853,-0.92463081 c 0.01,-0.03528 0.03,-0.225778 -0.06,-0.340784 -0.0557,-0.06033 -0.11641,-0.06421 -0.20073,0.06562 -0.0254,0.03951 -0.0261,0.08008 0.03,0.115358 0.0564,0.03422 0.23071,0.159809 0.23071,0.159809 m -0.8075,0.91898681 c -0.0907,0.04304 -0.16863,-0.0078 0.0395,-0.156633 0.31926,-0.22754277 0.56409,-0.38241281 0.66604,-0.55668481 0,0 -0.19438,-0.125589 -0.28293,-0.214136 -0.0885,-0.08925 0.0236,-0.335139 0.11113,-0.431447 0.22401,-0.251883 0.3309,-0.08573 0.35736,-0.04057 0.10866,0.210256 0.043,0.473428 0.0113,0.548217 0,0 0.0868,0.06526 0.11219,0.09137 0.0342,0.03669 0.0187,0.111477 -0.0268,0.244827 -0.0162,0.04692 -0.067,-0.08043 -0.18732,-0.136525 -0.0942,0.198261 -0.19756,0.36618491 -0.80045,0.65158181 m 2.15935,-0.94685681 c -0.12735,0.05433 -0.1838,0.05045 -0.34114,0.107245 -0.0324,0.01164 -0.0709,0.0067 -0.0758,-0.01764 -0.006,-0.0314 0.0275,-0.06279 0.0547,-0.08008 0.0628,-0.03916 0.46284,-0.237066 0.46425,-0.257175 3.5e-4,-0.0088 -0.17251,-0.07338 -0.26388,-0.0822 -0.10124,-0.0099 -0.20073,0.01199 -0.29386,0.06844 -0.0395,0.02364 -0.0709,0.06068 -0.096,0.09842 -0.0219,0.03246 -0.0437,0.0042 -0.0325,-0.03775 0.0102,-0.0254 0.0254,-0.05856 0.0356,-0.08361 0.0942,-0.191911 0.26317,-0.274108 0.44556,-0.262466 0.11818,0.0078 0.22613,0.06773 0.34008,0.0949 0.0328,0.0078 0.14781,0.0194 0.15345,0.05115 -0.005,0.04198 -0.0462,0.164747 -0.0952,0.210961 -0.0152,0.01376 -0.03,0.01235 -0.0427,0.01587 -0.0303,0.0088 -0.0811,0.100542 -0.25259,0.173919 m -1.58609,2.08244781 c -0.10936,-0.06597 -0.20567,-0.118533 -0.26423,-0.168627 -0.066,-0.0568 -0.0706,-0.168628 -0.0247,-0.2413 0.12664,-0.197909 0.44838,-0.519642 0.63817,-0.508353 0.11536,0.0067 0.23636,0.151342 0.2286,0.212019 -0.007,0.05539 -0.12241,0.259292 -0.17956,0.257175 -0.0473,-0.0014 -0.0445,-0.156986 -0.2212,-0.184855 -0.0607,-0.0095 -0.22436,0.09525 -0.22965,0.148166 -0.006,0.06915 0.17392,0.245534 0.40499,0.265642 0.18661,0.01729 0.30656,-0.0099 0.46072,-0.03951 0.0286,-0.0056 0.0452,0.006 0.0226,0.04163 -0.0166,0.02752 -0.12559,0.218722 -0.1457,0.22225 -0.13299,0.0074 -0.27728,0.04939 -0.46037,0.113947 -0.20144,0.07161 -0.39158,0.167569 -0.51894,0.245533 -0.0222,0.01305 -0.0363,-0.0092 -0.0303,-0.02716 0.0187,-0.05151 0.0501,-0.139347 0.0741,-0.1905 0.0522,-0.04516 0.19191,-0.127 0.24553,-0.14605 m 6.26745,-0.839258 c -0.0317,-0.299861 -0.1584,-1.22519777 -0.17039,-1.46296977 -0.005,-0.130175 -0.0215,-0.242359 -0.0773,-0.141817 -0.0593,0.107245 -0.0924,0.245886 -0.0734,0.435328 0.0258,0.326672 0.0565,0.57185387 0.0861,0.80609777 0.0293,0.237067 0.13476,0.943328 0.12418,1.443567 -0.002,0.117122 0.0423,0.147461 0.0783,0.0635 0.0617,-0.14217 0.0949,-0.547864 0.0325,-1.143706 m -1.51836,1.550106 c -0.0413,-0.04092 -0.0765,-0.08643 -0.11077,-0.131234 l -0.0243,-0.0018 -0.22472,0.225778 -0.006,0.04127 c 0.031,0.0441 0.0663,0.08573 0.10513,0.124884 0.0427,0.04339 0.0885,0.08043 0.13617,0.113594 l 0.0441,-0.0035 0.22507,-0.225072 -0.002,-0.02752 c -0.0515,-0.03387 -0.0991,-0.07161 -0.14217,-0.116416 m 1.04705,-1.093611 c -0.15311,-0.0095 -0.86254,-0.02258 -1.27847,-0.252237 0.0413,-0.03492 0.13124,-0.150988 0.0988,-0.441677 -0.031,-0.290689 -0.14781,-1.12183477 -0.14781,-1.12183477 -0.009,-0.08678 -0.0444,-0.170038 0.005,-0.214136 0.0497,-0.0448 0.15381,-0.12065 0.0938,-0.202494 -0.06,-0.0822 -0.16298,-0.237772 -0.19297,-0.325967 -0.025,-0.07444 -0.0473,-0.136525 -0.0847,-0.07796 -0.0441,0.06773 -0.0596,0.153811 -0.11924,0.231775 -0.031,0.04128 -0.0635,0.06103 -0.0279,0.12312 0.0476,0.08396 0.0956,0.237772 0.10513,0.343253 0.004,0.05503 0.0197,0.174272 0.0356,0.287866 0,0 0.2032,1.05022077 0.18697,1.22025877 0,0 -0.84032,0.02963 -0.94968,0.13582 l -0.16863,0.261761 c -0.0141,0.02893 -0.0127,0.06068 0.0275,0.05433 0.0399,-0.0067 0.55668,-0.172156 1.282,0.118533 -0.0857,0.02963 -1.04387,0.439914 -1.85315,0.348192 -0.121,-0.0035 -0.97155,-0.115006 -1.0421,-0.546453 -0.01,-0.05433 -0.0236,-0.07444 -0.0526,-0.0194 -0.0257,0.04904 -0.26176,0.401109 0.10901,0.65405 -0.11747,0.248003 -0.32702,0.5842 -0.64664,0.715786 -0.10477,0.03916 -0.5722,0.159103 -1.04352,-0.05221 -0.0589,-0.0187 -0.14393,0.02822 -0.0561,0.0882 0.0885,0.06032 0.95109,0.611716 1.51095,0.0314 0.0988,-0.101247 0.26705,-0.372533 0.39511,-0.697795 0.57362,0.312209 1.52753,0.140406 1.52753,0.140406 0.20743,-0.0441 0.42474,-0.105128 0.64982,-0.192264 0.11782,-0.04798 0.92957,-0.415219 1.47955,-0.287161 0.115,0.02822 0.14111,0.02822 0.14111,0.02822 0,0 0.0991,-0.210961 0.12135,-0.261761 0.0219,-0.05115 0.048,-0.08008 -0.10583,-0.08961 m -4.18395,-1.15287873 -0.0247,-0.0018 -0.22507,0.22577873 -0.006,0.04127 c 0.0311,0.0441 0.0663,0.08573 0.10513,0.125589 0.043,0.04198 0.0885,0.08043 0.13617,0.112888 l 0.0444,-0.0035 0.22472,-0.224367 -0.002,-0.02752 c -0.0515,-0.03457 -0.0984,-0.07338 -0.14252,-0.117475 -0.0409,-0.04057 -0.0762,-0.08608 -0.11007,-0.13088073"
         style="fill:#231f20;fill-opacity:1;fill-rule:nonzero;stroke:none;stroke-width:0.352778"
         clip-path="url(#clipPath1)"
         id="path33" /></g></g></svg>
