<?xml version="1.0" encoding="UTF-8" standalone="no"?>
<!-- Created with Inkscape (http://www.inkscape.org/) -->

<svg
   version="1.1"
   id="svg1"
   width="54.440002"
   height="19.236"
   viewBox="0 0 54.440002 19.236"
   xmlns="http://www.w3.org/2000/svg"
   xmlns:svg="http://www.w3.org/2000/svg">
  <defs
     id="defs1">
    <clipPath
       clipPathUnits="userSpaceOnUse"
       id="clipPath32">
      <path
         d="m 314.917,517.27 h 40.83 v -14.427 h -40.83 z"
         transform="translate(-329.24121,-512.97461)"
         id="path32" />
    </clipPath>
    <clipPath
       clipPathUnits="userSpaceOnUse"
       id="clipPath34">
      <path
         d="M 0,547.086 H 382.677 V 0 H 0 Z"
         transform="matrix(1.3333333,0,0,-1.3333333,0,729.448)"
         id="path34" />
    </clipPath>
  </defs>
  <g
     id="layer-MC1"
     transform="translate(-419.88931,-39.754681)">
    <g
       id="g33"
       clip-path="url(#clipPath34)">
      <path
         d="m 0,0 0.183,0.344 c 0.015,0.034 0.053,0.072 0.075,0.002 0.127,-0.42 0.124,-0.772 0.03,-1.037 -0.097,-0.276 -0.171,-0.433 -0.51,-0.52 -0.265,-0.07 -0.558,0 -0.704,0.239 -0.188,-0.473 -0.56,-0.65 -0.872,-0.604 -0.383,0.056 -0.611,0.474 -0.236,1.222 0.11,0.219 0.185,0.106 0.148,0 -0.175,-0.497 0.01,-0.672 0.261,-0.655 0.4,0.027 0.622,0.26 0.686,0.779 0.01,0.082 -0.039,0.067 0.142,0.214 0.139,0.113 0.12,0.053 0.113,-0.105 -0.01,-0.22 0.031,-0.388 0.138,-0.477 0.17,-0.14 0.402,-0.105 0.618,0.103 0.006,0.093 -0.039,0.25 -0.093,0.388 -0.016,0.041 0,0.069 0.021,0.107 m -4.844,-5.781 c -0.207,-0.096 -2.755,-1.155 -2.974,-1.242 -0.219,-0.089 -0.286,-0.128 -0.335,-0.278 -0.049,-0.147 -0.075,-0.225 -0.086,-0.257 -0.042,-0.099 -0.098,-0.2 0.225,-0.064 0.099,0.042 2.695,1.112 2.868,1.2 0.175,0.089 0.279,0.116 0.362,0.267 0.084,0.15 0.105,0.176 0.152,0.28 0.052,0.113 0.111,0.243 -0.212,0.094 m -2.028,1.768 -0.07,0.005 -0.637,-0.639 -0.019,-0.118 c 0.089,-0.125 0.188,-0.243 0.298,-0.354 0.123,-0.12 0.252,-0.229 0.386,-0.32 l 0.127,0.008 0.637,0.638 -0.007,0.079 c -0.145,0.096 -0.279,0.205 -0.403,0.33 -0.117,0.114 -0.215,0.244 -0.312,0.371 m 0.359,-4.743 c -0.568,-0.052 -4.003,-0.581 -5.525,-0.128 -1.524,0.45 -2.106,1.677 -1.744,3.615 0.349,1.546 1.226,2.32 1.953,2.79 0.411,-0.47 0.83,-0.832 2.481,-0.899 0.452,0 1.728,0.03 3.244,0.784 0.166,0.09 0.333,0.177 0.423,0.887 0.028,0.31 0.118,1.329 -0.766,2.201 C -6.552,0.61 -6.603,0.617 -6.642,0.456 -6.681,0.295 -6.81,-0.46 -6.81,-0.46 c 0.285,-0.376 0.859,-1.183 0.723,-1.266 -0.136,-0.084 -2.517,-1.182 -4.523,-0.517 -0.047,0.018 -0.22,0.11 -0.444,0.236 0.232,0.125 0.401,0.23 0.461,0.353 0.177,0.34 0.415,0.841 0.045,1.107 -0.11,0.09 -0.719,0.463 -1.514,0.341 -0.794,-0.124 -1.234,-0.419 -1.505,-1.411 -0.045,-0.198 0.033,-0.272 0.143,-0.153 0.107,0.113 0.558,0.445 1.044,-0.062 -0.132,-0.121 -0.271,-0.271 -0.42,-0.469 -0.451,-0.607 -1.667,-2.207 -1.511,-4.544 0.167,-2.544 2.027,-3.705 4.79,-3.151 0.658,0.129 2.815,0.749 3.098,0.878 0.285,0.13 0.48,0.414 -0.09,0.362 M 1.698,0.948 C 1.677,1.195 1.639,1.239 1.782,1.362 1.926,1.485 2.275,1.731 2.111,1.967 1.946,2.205 1.66,2.613 1.58,2.866 1.514,3.077 1.455,3.253 1.344,3.091 1.216,2.903 1.162,2.792 0.989,2.574 0.897,2.461 0.806,2.406 0.901,2.228 1.032,1.986 1.243,1.58 1.221,1.281 1.188,0.845 2.192,-4.382 2.11,-4.614 2.029,-4.844 0.424,-5.198 -0.271,-4.64 c -0.134,0.082 -0.189,0.109 -0.216,-0.137 -0.021,-0.184 -0.126,-0.888 0.591,-1.127 -0.23,-0.543 -0.977,-1.974 -2.256,-2.502 -0.31,-0.117 -1.738,-0.574 -3.13,0.051 -0.172,0.055 -0.426,-0.082 -0.164,-0.261 0.26,-0.177 3.087,-1.553 4.742,0.164 0.225,0.226 0.926,1.318 1.26,2.473 0.149,-0.007 0.314,-0.002 0.507,0.021 0.531,0.026 1.273,0.181 1.34,0.808 0.07,0.625 0.103,1.733 -0.306,3.951 C 1.961,-0.437 1.698,0.948 1.698,0.948 M 4.236,1.612 C 4.221,2.009 4.172,2.354 4.002,2.044 3.82,1.717 3.719,1.294 3.775,0.711 3.854,-0.286 3.949,-1.037 4.04,-1.755 4.131,-2.48 4.452,-4.642 4.419,-6.172 4.413,-6.531 4.55,-6.624 4.66,-6.369 4.848,-5.931 4.95,-4.69 4.759,-2.867 4.663,-1.948 4.273,0.885 4.236,1.612 M -2.489,2.386 C -2.39,2.429 0.207,3.499 0.381,3.588 0.557,3.675 0.658,3.705 0.742,3.854 0.827,4.003 0.848,4.03 0.896,4.136 0.946,4.249 1.004,4.377 0.684,4.228 0.476,4.132 -2.071,3.074 -2.292,2.986 -2.511,2.897 -2.579,2.857 -2.627,2.709 -2.676,2.561 -2.702,2.481 -2.714,2.452 -2.755,2.352 -2.81,2.25 -2.489,2.386 m -1.343,-3.485 c -0.092,0.719 -0.186,1.468 -0.266,2.468 -0.057,0.582 0.045,1.004 0.227,1.333 0.168,0.309 0.22,-0.035 0.234,-0.433 0.037,-0.728 0.426,-3.561 0.522,-4.48 0.191,-1.823 0.091,-3.064 -0.099,-3.501 -0.109,-0.256 -0.247,-0.163 -0.238,0.197 0.03,1.529 -0.291,3.691 -0.38,4.416 m -8.107,3.819 c 0.025,0.093 0.079,0.591 -0.157,0.892 -0.144,0.158 -0.304,0.167 -0.524,-0.172 -0.067,-0.103 -0.068,-0.21 0.078,-0.301 0.146,-0.09 0.603,-0.419 0.603,-0.419 m -2.112,-2.404 c -0.237,-0.112 -0.441,0.021 0.104,0.411 0.835,0.594 1.475,1 1.741,1.456 0,0 -0.508,0.328 -0.739,0.559 -0.233,0.234 0.061,0.877 0.291,1.13 0.585,0.658 0.864,0.223 0.933,0.105 0.284,-0.55 0.114,-1.239 0.031,-1.434 0,0 0.227,-0.17 0.293,-0.239 0.089,-0.096 0.048,-0.292 -0.07,-0.64 -0.043,-0.123 -0.176,0.211 -0.49,0.357 -0.246,-0.519 -0.517,-0.958 -2.094,-1.705 M 18.482,0.119 c 0.028,0.099 0.085,0.639 -0.17,0.965 -0.157,0.171 -0.33,0.182 -0.568,-0.186 -0.072,-0.111 -0.074,-0.227 0.085,-0.326 0.16,-0.098 0.653,-0.453 0.653,-0.453 m -2.289,-2.606 c -0.256,-0.122 -0.477,0.023 0.113,0.445 0.905,0.644 1.599,1.084 1.887,1.578 0,0 -0.55,0.355 -0.801,0.606 -0.251,0.253 0.067,0.95 0.315,1.224 0.635,0.714 0.938,0.242 1.013,0.114 0.307,-0.596 0.122,-1.342 0.032,-1.554 0,0 0.246,-0.184 0.317,-0.259 0.098,-0.104 0.054,-0.316 -0.075,-0.694 -0.046,-0.133 -0.19,0.229 -0.531,0.388 -0.267,-0.563 -0.56,-1.038 -2.27,-1.848 M 9.309,0.134 C 9.336,0.234 9.394,0.774 9.139,1.1 8.981,1.271 8.809,1.282 8.57,0.914 8.498,0.802 8.496,0.687 8.655,0.587 8.815,0.49 9.309,0.134 9.309,0.134 M 7.02,-2.471 c -0.257,-0.122 -0.478,0.022 0.112,0.444 0.905,0.645 1.599,1.084 1.888,1.578 0,0 -0.551,0.356 -0.802,0.607 -0.251,0.253 0.067,0.95 0.315,1.223 0.635,0.714 0.938,0.243 1.013,0.115 0.308,-0.596 0.122,-1.342 0.032,-1.554 0,0 0.246,-0.185 0.318,-0.259 C 9.993,-0.421 9.949,-0.633 9.82,-1.011 9.774,-1.144 9.63,-0.783 9.289,-0.624 9.022,-1.186 8.729,-1.662 7.02,-2.471 m 6.121,2.684 C 12.78,0.059 12.62,0.07 12.174,-0.091 c -0.092,-0.033 -0.201,-0.019 -0.215,0.05 -0.017,0.089 0.078,0.178 0.155,0.227 0.178,0.111 1.312,0.672 1.316,0.729 C 13.431,0.94 12.941,1.123 12.682,1.148 12.395,1.176 12.113,1.114 11.849,0.954 11.737,0.887 11.648,0.782 11.577,0.675 11.515,0.583 11.453,0.663 11.485,0.782 c 0.029,0.072 0.072,0.166 0.101,0.237 0.267,0.544 0.746,0.777 1.263,0.744 C 13.184,1.741 13.49,1.571 13.813,1.494 13.906,1.472 14.232,1.439 14.248,1.349 14.234,1.23 14.117,0.882 13.978,0.751 13.935,0.712 13.893,0.716 13.857,0.706 13.771,0.681 13.627,0.421 13.141,0.213 M 8.645,-5.69 c -0.31,0.187 -0.583,0.336 -0.749,0.478 -0.187,0.161 -0.2,0.478 -0.07,0.684 0.359,0.561 1.271,1.473 1.809,1.441 0.327,-0.019 0.67,-0.429 0.648,-0.601 -0.019,-0.157 -0.347,-0.735 -0.509,-0.729 -0.134,0.004 -0.126,0.445 -0.627,0.524 -0.172,0.027 -0.636,-0.27 -0.651,-0.42 -0.017,-0.196 0.493,-0.696 1.148,-0.753 0.529,-0.049 0.869,0.028 1.306,0.112 0.081,0.016 0.128,-0.017 0.064,-0.118 -0.047,-0.078 -0.356,-0.62 -0.413,-0.63 C 10.224,-5.723 9.815,-5.842 9.296,-6.025 8.725,-6.228 8.186,-6.5 7.825,-6.721 7.762,-6.758 7.722,-6.695 7.739,-6.644 c 0.053,0.146 0.142,0.395 0.21,0.54 0.148,0.128 0.544,0.36 0.696,0.414 m 17.766,2.379 c -0.09,0.85 -0.449,3.473 -0.483,4.147 -0.014,0.369 -0.061,0.687 -0.219,0.402 -0.168,-0.304 -0.262,-0.697 -0.208,-1.234 0.073,-0.926 0.16,-1.621 0.244,-2.285 0.083,-0.672 0.382,-2.674 0.352,-4.092 -0.006,-0.332 0.12,-0.418 0.222,-0.18 0.175,0.403 0.269,1.553 0.092,3.242 m -4.304,-4.394 c -0.117,0.116 -0.217,0.245 -0.314,0.372 l -0.069,0.005 -0.637,-0.64 -0.018,-0.117 c 0.088,-0.125 0.188,-0.243 0.298,-0.354 0.121,-0.123 0.251,-0.228 0.386,-0.322 l 0.125,0.01 0.638,0.638 -0.006,0.078 c -0.146,0.096 -0.281,0.203 -0.403,0.33 m 2.968,3.1 c -0.434,0.027 -2.445,0.064 -3.624,0.715 0.117,0.099 0.372,0.428 0.28,1.252 -0.088,0.824 -0.419,3.18 -0.419,3.18 -0.026,0.246 -0.126,0.482 0.014,0.607 0.141,0.127 0.436,0.342 0.266,0.574 -0.17,0.233 -0.462,0.674 -0.547,0.924 -0.071,0.211 -0.134,0.387 -0.24,0.221 C 20.68,2.676 20.636,2.432 20.467,2.211 20.379,2.094 20.287,2.038 20.388,1.862 c 0.135,-0.238 0.271,-0.674 0.298,-0.973 0.011,-0.156 0.056,-0.494 0.101,-0.816 0,0 0.576,-2.977 0.53,-3.459 0,0 -2.382,-0.084 -2.692,-0.385 l -0.478,-0.742 c -0.04,-0.082 -0.036,-0.172 0.078,-0.154 0.113,0.019 1.578,0.488 3.634,-0.336 -0.243,-0.084 -2.959,-1.247 -5.253,-0.987 -0.343,0.01 -2.754,0.326 -2.954,1.549 -0.027,0.154 -0.067,0.211 -0.149,0.055 -0.073,-0.139 -0.742,-1.137 0.309,-1.854 -0.333,-0.703 -0.927,-1.656 -1.833,-2.029 -0.297,-0.111 -1.622,-0.451 -2.958,0.148 -0.167,0.053 -0.408,-0.08 -0.159,-0.25 0.251,-0.171 2.696,-1.734 4.283,-0.089 0.28,0.287 0.757,1.056 1.12,1.978 1.626,-0.885 4.33,-0.398 4.33,-0.398 0.588,0.125 1.204,0.298 1.842,0.545 0.334,0.136 2.635,1.177 4.194,0.814 0.326,-0.08 0.4,-0.08 0.4,-0.08 0,0 0.281,0.598 0.344,0.742 0.062,0.145 0.136,0.227 -0.3,0.254 m -11.86,3.268 -0.07,0.005 -0.638,-0.64 -0.017,-0.117 c 0.088,-0.125 0.188,-0.243 0.298,-0.356 0.122,-0.119 0.251,-0.228 0.386,-0.32 l 0.126,0.01 0.637,0.636 -0.006,0.078 c -0.146,0.098 -0.279,0.208 -0.404,0.333 -0.116,0.115 -0.216,0.244 -0.312,0.371"
         style="fill:#231f20;fill-opacity:1;fill-rule:nonzero;stroke:none"
         transform="matrix(1.3333333,0,0,-1.3333333,438.98827,45.481867)"
         clip-path="url(#clipPath32)"
         id="path33" />
    </g>
  </g>
</svg>
