<?xml version="1.0" encoding="UTF-8" standalone="no"?>
<!-- Created with Inkscape (http://www.inkscape.org/) -->

<svg
   width="17.999998mm"
   height="6.9099998mm"
   viewBox="0 0 17.999997 6.9099997"
   version="1.1"
   id="svg1"
   xml:space="preserve"
   xmlns="http://www.w3.org/2000/svg"
   xmlns:svg="http://www.w3.org/2000/svg"><defs
     id="defs1" /><g
     id="layer1"
     transform="translate(-150.59415,13.109684)"><g
       id="g33"
       transform="translate(61.91528,-95.011795)"><path
         d="m 94.08569,86.763952 c -0.0148,0.03845 -0.0219,0.04763 -0.0487,0.101953 -0.0264,0.05433 -0.0624,0.06703 -0.12241,0.100189 -0.06,0.03493 -1.06116,0.449086 -1.09643,0.465667 -0.11007,0.05433 -0.0924,0.01764 -0.0801,-0.0187 0.004,-0.01094 0.0113,-0.03916 0.0264,-0.09243 0.0141,-0.05292 0.037,-0.06844 0.11254,-0.103011 0.0759,-0.03563 1.0608,-0.4445 1.13206,-0.482248 0.11042,-0.05856 0.0924,-0.01164 0.0766,0.02858 m -0.78913,-1.461558 c 0.13265,-0.06597 0.23037,-0.04763 0.28575,0.05539 0.055,0.103717 0.17004,0.331611 0.0773,0.306564 -0.0847,-0.02223 -0.40534,-0.09772 -0.4886,-0.217664 0.0473,-0.07232 0.0896,-0.126647 0.12559,-0.144286 m -0.31714,0.454378 0.0233,0.02999 c 0.12594,0.09666 0.55069,0.24765 0.63994,0.248708 0.0892,3.53e-4 0.10125,0.0085 0.13441,-0.06703 0.0335,-0.0762 0.0758,-0.174273 0.0797,-0.238831 0.004,-0.06421 0.008,-0.457553 -0.0536,-0.623006 -0.0483,-0.156633 -0.254,-0.250119 -0.37394,-0.154869 -0.27446,0.247297 -0.36054,0.449086 -0.4572,0.572558 -0.0829,0.106186 -0.34996,0.421923 -0.73837,0.210609 0.0385,-0.104775 0.0621,-0.189089 0.072,-0.239536 0.0233,-0.121003 -0.0765,-0.09701 -0.10054,-0.01094 -0.024,0.08502 -0.10407,0.283281 -0.14464,0.377473 -0.0892,0.209902 -0.35913,0.0028 -0.43251,-0.06632 0.0381,-0.07479 0.0692,-0.160513 0.0935,-0.261055 0.0169,-0.06914 -0.037,-0.156281 -0.097,-0.01446 -0.0596,0.141111 -0.29246,0.549275 -0.90382,0.312914 -0.0593,-0.166864 -0.12876,-0.318911 -0.12876,-0.318911 -0.0296,-0.0695 -0.0589,-0.115711 -0.0797,-0.07973 -0.0205,0.03598 -0.10866,0.325261 -0.10866,0.325261 0.0692,0.12312 0.31539,0.778581 0.27411,0.883356 -0.042,0.104775 -0.36124,0.619125 -1.17263,0.484716 -0.085,-0.01376 -0.90135,-0.224014 -0.38206,-1.127477 0.0183,-0.0314 -0.0106,-0.104423 -0.072,-0.0314 -0.0804,0.09349 -0.61489,1.157464 0.22437,1.461206 0.14217,0.05151 0.78916,0.185914 1.32468,-0.310092 0.0603,-0.05574 0.24095,-0.332316 0.21026,-0.870303 0.0998,0.0081 0.40816,0.01164 0.64875,-0.220838 0.0914,0.191205 0.31256,0.269875 0.38206,0.281869 0.0723,0.01235 0.10372,0.01446 0.14746,-0.05574 0.0374,-0.0642 0.0716,-0.127353 0.10231,-0.188736 0.2092,0.106539 0.39758,0.124178 0.61348,0.0092 0.0974,-0.06103 0.19015,-0.186266 0.27517,-0.318558 m 5.94642,-0.3048 c 0.0617,0.641703 0.0282,1.078794 -0.0339,1.232605 -0.036,0.08996 -0.0808,0.0575 -0.0783,-0.0695 0.0113,-0.537986 -0.0928,-1.298575 -0.1217,-1.553633 -0.0296,-0.252589 -0.0603,-0.51682 -0.0861,-0.867833 -0.0176,-0.204611 0.0152,-0.353836 0.0751,-0.469548 0.0557,-0.109008 0.0716,0.0127 0.0762,0.1524 0.0116,0.256117 0.13794,1.252714 0.16863,1.575506 M 98.318,86.03867 c -0.024,0.05186 -0.0797,0.166511 -0.13793,0.242711 -0.77647,-0.146755 -1.35785,0.237067 -1.46368,0.291395 -0.66499,0.265289 -1.20826,0.325614 -1.33632,0.319969 -0.81774,-0.01623 -0.80539,-0.84455 -0.82444,-0.96273 -0.0194,-0.118181 -0.34502,-2.083858 -0.38665,-2.21862 l 0.0765,-0.265641 c 0.0127,-0.0254 0.0226,-0.07937 0.0512,-0.02858 0.0928,0.162983 0.37747,2.250722 0.48613,2.634191 0.26528,1.032581 2.17346,0.115711 2.26024,0.0762 -0.91581,-0.330905 -1.30563,-0.146755 -1.35854,-0.127 -0.0526,0.01976 -0.0674,0.01058 -0.0526,-0.03951 0.0159,-0.05009 0.12206,-0.26035 0.18168,-0.306564 0.16687,-0.10548 0.85055,-0.08149 0.89429,-0.150989 0.0159,-0.03175 -0.30585,-1.610783 -0.31397,-1.672166 -0.0169,-0.11677 -0.0963,-0.270581 -0.15522,-0.360186 -0.0438,-0.06738 -0.009,-0.09137 0.0226,-0.139347 0.061,-0.08996 0.0783,-0.135467 0.12241,-0.213078 0.0381,-0.06738 0.0674,0 0.0998,0.08114 0.0392,0.0956 0.16474,0.245886 0.23671,0.333375 0.072,0.08714 -0.0572,0.195086 -0.10936,0.248002 -0.0522,0.05327 -0.0356,0.06844 -0.0194,0.164395 0,0 0.21307,0.915811 0.23989,1.067153 0.0861,0.408869 -0.0127,0.645936 -0.0508,0.718961 0.50447,0.195086 1.36454,0.217664 1.46685,0.217664 0.1023,0 0.0896,0.04763 0.0706,0.08925 m -3.53025,-2.437341 c 0.004,-0.01094 0.0109,-0.03916 0.0258,-0.09278 0.0145,-0.05221 0.0377,-0.06809 0.11289,-0.103011 0.0765,-0.03528 1.06115,-0.4445 1.13241,-0.481894 0.11007,-0.05786 0.0921,-0.01164 0.0766,0.02822 -0.0152,0.03845 -0.0219,0.04868 -0.0487,0.102305 -0.0268,0.05503 -0.0621,0.06632 -0.12276,0.100542 -0.0596,0.03422 -1.06151,0.448733 -1.09573,0.464961 -0.11042,0.05468 -0.0931,0.01764 -0.0804,-0.01834 m 1.07845,1.087261 -0.0247,-0.0018 -0.22472,0.225072 -0.006,0.04198 c 0.031,0.04445 0.0663,0.08608 0.10513,0.125236 0.0434,0.04198 0.0885,0.08043 0.13617,0.112536 l 0.0444,-0.0028 0.22472,-0.225073 -0.002,-0.02752 c -0.0511,-0.03387 -0.0984,-0.07197 -0.14252,-0.116417 -0.0413,-0.04092 -0.0758,-0.08643 -0.11006,-0.131233 m 7.69302,-0.544689 c -0.0561,-0.03492 -0.0554,-0.07585 -0.0296,-0.115006 0.084,-0.129822 0.14499,-0.125941 0.20038,-0.06562 0.0899,0.115005 0.0695,0.305505 0.06,0.34043 0,0 -0.17392,-0.125236 -0.23072,-0.159808 m 0.22366,0.427214 c 0.1203,0.05609 0.17145,0.183797 0.18768,0.136878 0.0452,-0.13335 0.0607,-0.208139 0.0265,-0.244828 -0.0254,-0.02646 -0.11219,-0.09137 -0.11219,-0.09137 0.0318,-0.07479 0.0974,-0.337961 -0.0113,-0.548216 -0.0265,-0.04516 -0.13335,-0.211667 -0.35737,0.04022 -0.0875,0.09666 -0.19967,0.342548 -0.11112,0.4318 0.0885,0.08855 0.28292,0.213784 0.28292,0.213784 -0.1016,0.174625 -0.34678,0.329494 -0.66604,0.557036 -0.20814,0.148519 -0.13017,0.199672 -0.0395,0.156633 0.60325,-0.28575 0.70661,-0.453319 0.80045,-0.651933 m -12.4467,-0.752122 c -0.0515,-0.03246 -0.0508,-0.06985 -0.0275,-0.106186 0.0776,-0.119945 0.13406,-0.116417 0.18486,-0.06068 0.0833,0.105833 0.0642,0.281869 0.0554,0.314325 0,0 -0.16051,-0.115711 -0.21272,-0.147461 m 0.20637,0.394052 c 0.11042,0.05186 0.15769,0.169686 0.17286,0.126295 0.0416,-0.12312 0.0561,-0.191911 0.0247,-0.226131 -0.0233,-0.02399 -0.10337,-0.08431 -0.10337,-0.08431 0.0293,-0.06879 0.0896,-0.311855 -0.0109,-0.505883 -0.0243,-0.04128 -0.12277,-0.195086 -0.32914,0.0374 -0.0811,0.0889 -0.18486,0.316088 -0.10266,0.398286 0.0815,0.08184 0.2607,0.197555 0.2607,0.197555 -0.0938,0.160867 -0.31962,0.303742 -0.61419,0.513645 -0.19226,0.137583 -0.12029,0.18415 -0.0367,0.144638 0.55633,-0.263525 0.65193,-0.418394 0.73871,-0.601486 m 8.78064,-0.07444 c -0.0564,-0.03528 -0.0557,-0.07585 -0.03,-0.115358 0.084,-0.129822 0.145,-0.125942 0.20038,-0.06562 0.09,0.115006 0.0695,0.305506 0.06,0.340784 0,0 -0.17392,-0.125589 -0.23036,-0.159809 m 0.22296,0.427214 c 0.12065,0.05609 0.1718,0.183445 0.18803,0.136525 0.0455,-0.13335 0.061,-0.208139 0.0264,-0.244828 -0.025,-0.0261 -0.11183,-0.09137 -0.11183,-0.09137 0.0314,-0.07479 0.097,-0.337961 -0.0116,-0.548217 -0.0265,-0.04515 -0.13335,-0.211314 -0.35701,0.04057 -0.0875,0.09631 -0.20002,0.342194 -0.11148,0.431447 0.0885,0.08855 0.28293,0.214136 0.28293,0.214136 -0.1016,0.174272 -0.34678,0.329142 -0.66604,0.556683 -0.20814,0.148873 -0.13018,0.199673 -0.0395,0.156634 0.60325,-0.285398 0.70661,-0.45332 0.8001,-0.651581 m 1.61219,-0.469194 c 0.0123,-0.0035 0.0272,-0.0021 0.0423,-0.01588 0.0494,-0.04621 0.0907,-0.168981 0.0952,-0.210961 -0.005,-0.03175 -0.12029,-0.04339 -0.15345,-0.05115 -0.1136,-0.02716 -0.2219,-0.08714 -0.34008,-0.0949 -0.18239,-0.01164 -0.35137,0.07056 -0.44556,0.262466 -0.0102,0.02505 -0.0254,0.05856 -0.0353,0.08361 -0.0113,0.04198 0.0102,0.0702 0.0325,0.03775 0.025,-0.03775 0.0564,-0.07479 0.0956,-0.09842 0.0935,-0.05645 0.19262,-0.07832 0.29386,-0.06844 0.0917,0.0088 0.26423,0.07338 0.26388,0.0822 -0.001,0.02011 -0.40146,0.218017 -0.4639,0.257175 -0.0275,0.01729 -0.0607,0.04868 -0.055,0.08008 0.005,0.02434 0.0434,0.02928 0.0758,0.01764 0.15769,-0.0568 0.21414,-0.05292 0.34114,-0.107245 0.17145,-0.07338 0.2226,-0.1651 0.25294,-0.173919 m -2.08421,2.402416 c -0.0243,0.05115 -0.0557,0.138995 -0.0741,0.1905 -0.006,0.01799 0.008,0.04022 0.0303,0.02716 0.127,-0.07796 0.31715,-0.173919 0.51859,-0.245533 0.18344,-0.06456 0.32738,-0.106539 0.46037,-0.113947 0.0205,-0.0035 0.12912,-0.194734 0.1457,-0.22225 0.0229,-0.03563 0.006,-0.04727 -0.0222,-0.04163 -0.15452,0.02963 -0.27447,0.0568 -0.46109,0.03951 -0.23071,-0.02011 -0.41098,-0.196497 -0.40498,-0.265642 0.005,-0.05292 0.16898,-0.157691 0.23001,-0.148166 0.17674,0.02787 0.17356,0.183444 0.22119,0.184855 0.0568,0.0021 0.17251,-0.201789 0.17956,-0.257175 0.007,-0.06068 -0.11359,-0.205316 -0.22895,-0.212019 -0.18979,-0.01129 -0.51153,0.310444 -0.63782,0.508353 -0.0459,0.07267 -0.0416,0.184502 0.0243,0.2413 0.0586,0.05009 0.15487,0.102658 0.26423,0.168627 -0.0533,0.01905 -0.19332,0.100895 -0.24518,0.14605 m 6.51298,-0.985308 c -0.0317,-0.299861 -0.15875,-1.225197 -0.17074,-1.462969 -0.005,-0.130175 -0.0212,-0.242359 -0.0773,-0.141817 -0.0593,0.107244 -0.0921,0.245886 -0.0734,0.435328 0.0261,0.326672 0.0568,0.571852 0.0864,0.806097 0.0293,0.237067 0.13441,0.943328 0.12383,1.443567 -0.002,0.117122 0.0423,0.147461 0.0787,0.0635 0.0617,-0.14217 0.0945,-0.547864 0.0324,-1.143706 m -1.51835,1.550106 c -0.0413,-0.04092 -0.0769,-0.08643 -0.11113,-0.130881 l -0.0243,-0.0021 -0.22472,0.225778 -0.006,0.04127 c 0.031,0.0441 0.066,0.08573 0.10513,0.124883 0.0427,0.04339 0.0885,0.08043 0.13582,0.113595 l 0.0441,-0.0035 0.22507,-0.225072 -0.002,-0.02752 c -0.0511,-0.03387 -0.0984,-0.07161 -0.14181,-0.116416 m 1.04704,-1.093612 c -0.15346,-0.0095 -0.86289,-0.02258 -1.27847,-0.252236 0.0413,-0.03493 0.13124,-0.150989 0.0988,-0.441677 -0.0314,-0.290689 -0.14781,-1.121481 -0.14781,-1.121481 -0.009,-0.08714 -0.0448,-0.170392 0.005,-0.214489 0.0494,-0.0448 0.15346,-0.12065 0.0935,-0.202494 -0.06,-0.0822 -0.16298,-0.237772 -0.19297,-0.325967 -0.025,-0.07444 -0.0469,-0.136525 -0.0847,-0.07796 -0.0441,0.06773 -0.0596,0.153811 -0.11924,0.231775 -0.031,0.04128 -0.0635,0.06103 -0.0279,0.12312 0.048,0.08396 0.0959,0.237772 0.10513,0.343252 0.004,0.05503 0.0201,0.174273 0.0356,0.287867 0,0 0.20355,1.050219 0.18732,1.220258 0,0 -0.84067,0.02963 -0.95003,0.13582 l -0.16827,0.261761 c -0.0141,0.02893 -0.0127,0.06068 0.0272,0.05433 0.0399,-0.0067 0.55668,-0.172156 1.28235,0.118533 -0.0857,0.02963 -1.04387,0.439914 -1.85314,0.348192 -0.12136,-0.0035 -0.97191,-0.115006 -1.04211,-0.546453 -0.01,-0.05433 -0.024,-0.07444 -0.0529,-0.0194 -0.0257,0.04904 -0.26176,0.401108 0.10901,0.65405 -0.11747,0.248003 -0.32702,0.5842 -0.64664,0.715786 -0.10477,0.03916 -0.57185,0.159103 -1.04352,-0.05221 -0.0582,-0.0187 -0.14358,0.02822 -0.0557,0.08819 0.0885,0.06032 0.95073,0.611716 1.51059,0.0314 0.0988,-0.101247 0.26741,-0.372534 0.39511,-0.697795 0.57362,0.312209 1.52753,0.140406 1.52753,0.140406 0.20743,-0.0441 0.42474,-0.105128 0.64982,-0.192264 0.11818,-0.04798 0.92992,-0.415219 1.47955,-0.287161 0.115,0.02822 0.14146,0.02822 0.14146,0.02822 0,0 0.0988,-0.210961 0.121,-0.261761 0.0222,-0.05115 0.048,-0.08008 -0.10548,-0.08961 m -4.07388,-1.021644 c 0.0441,0.0441 0.091,0.08255 0.14217,0.117122 l 0.002,0.02752 -0.22472,0.224367 -0.0445,0.0035 c -0.0476,-0.03245 -0.0928,-0.07091 -0.13652,-0.112889 -0.0385,-0.03986 -0.0734,-0.08149 -0.10443,-0.125588 l 0.006,-0.04127 0.22507,-0.225778 0.0247,0.0018 c 0.0339,0.0448 0.0695,0.09031 0.11042,0.131233"
         style="fill:#231f20;fill-opacity:1;fill-rule:nonzero;stroke:none;stroke-width:0.352778"
         clip-path="url(#clipPath1)"
         id="path21-5" /></g></g></svg>
