<?xml version="1.0" encoding="UTF-8" standalone="no"?>
<!-- Created with Inkscape (http://www.inkscape.org/) -->

<svg
   version="1.1"
   id="svg1"
   width="67.317322"
   height="17.75235"
   viewBox="0 0 67.317321 17.75235"
   xmlns="http://www.w3.org/2000/svg"
   xmlns:svg="http://www.w3.org/2000/svg">
  <defs
     id="defs1">
    <clipPath
       clipPathUnits="userSpaceOnUse"
       id="clipPath20">
      <path
         d="m 305.259,517.091 h 50.488 v -13.315 h -50.488 z"
         transform="translate(-320.21581,-506.12791)"
         id="path20" />
    </clipPath>
    <clipPath
       clipPathUnits="userSpaceOnUse"
       id="clipPath22">
      <path
         d="M 0,547.086 H 382.677 V 0 H 0 Z"
         transform="matrix(1.3333333,0,0,-1.3333333,0,729.448)"
         id="path22" />
    </clipPath>
  </defs>
  <g
     id="layer-MC1"
     transform="translate(-407.012,-39.993347)">
    <g
       id="g21"
       clip-path="url(#clipPath22)">
      <path
         d="m 0,0 c -0.042,-0.109 -0.062,-0.135 -0.138,-0.289 -0.075,-0.154 -0.177,-0.19 -0.347,-0.284 -0.17,-0.099 -3.008,-1.273 -3.108,-1.32 -0.312,-0.154 -0.262,-0.05 -0.227,0.053 0.012,0.031 0.032,0.111 0.075,0.262 0.04,0.15 0.105,0.194 0.319,0.292 0.215,0.101 3.007,1.26 3.209,1.367 C 0.096,0.247 0.045,0.114 0,0 m -2.237,4.143 c 0.376,0.187 0.653,0.135 0.81,-0.157 0.156,-0.294 0.482,-0.94 0.219,-0.869 -0.24,0.063 -1.149,0.277 -1.385,0.617 0.134,0.205 0.254,0.359 0.356,0.409 M -3.136,2.855 -3.07,2.77 c 0.357,-0.274 1.561,-0.702 1.814,-0.705 0.253,-10e-4 0.287,-0.024 0.381,0.19 0.095,0.216 0.215,0.494 0.226,0.677 0.01,0.182 0.022,1.297 -0.152,1.766 -0.137,0.444 -0.72,0.709 -1.06,0.439 C -2.639,4.436 -2.883,3.864 -3.157,3.514 -3.392,3.213 -4.149,2.318 -5.25,2.917 c 0.109,0.297 0.176,0.536 0.204,0.679 0.066,0.343 -0.217,0.275 -0.285,0.031 -0.068,-0.241 -0.295,-0.803 -0.41,-1.07 -0.253,-0.595 -1.018,-0.008 -1.226,0.188 0.108,0.212 0.196,0.455 0.265,0.74 0.048,0.196 -0.105,0.443 -0.275,0.041 -0.169,-0.4 -0.829,-1.557 -2.562,-0.887 -0.168,0.473 -0.365,0.904 -0.365,0.904 -0.084,0.197 -0.167,0.328 -0.226,0.226 -0.058,-0.102 -0.308,-0.922 -0.308,-0.922 0.196,-0.349 0.894,-2.207 0.777,-2.504 -0.119,-0.297 -1.024,-1.755 -3.324,-1.374 -0.241,0.039 -2.555,0.635 -1.083,3.196 0.052,0.089 -0.03,0.296 -0.204,0.089 -0.228,-0.265 -1.743,-3.281 0.636,-4.142 0.403,-0.146 2.237,-0.527 3.755,0.879 0.171,0.158 0.683,0.942 0.596,2.467 0.283,-0.023 1.157,-0.033 1.839,0.626 0.259,-0.542 0.886,-0.765 1.083,-0.799 0.205,-0.035 0.294,-0.041 0.418,0.158 0.106,0.182 0.203,0.361 0.29,0.535 0.593,-0.302 1.127,-0.352 1.739,-0.026 0.276,0.173 0.539,0.528 0.78,0.903 M 13.72,3.719 C 13.895,1.9 13.8,0.661 13.624,0.225 13.522,-0.03 13.395,0.062 13.402,0.422 c 0.032,1.525 -0.263,3.681 -0.345,4.404 -0.084,0.716 -0.171,1.465 -0.244,2.46 -0.05,0.58 0.043,1.003 0.213,1.331 0.158,0.309 0.203,-0.036 0.216,-0.432 0.033,-0.726 0.391,-3.551 0.478,-4.466 M 11.997,2.056 C 11.929,1.909 11.771,1.584 11.606,1.368 9.405,1.784 7.757,0.696 7.457,0.542 5.572,-0.21 4.032,-0.381 3.669,-0.365 1.351,-0.319 1.386,2.029 1.332,2.364 1.277,2.699 0.354,8.271 0.236,8.653 L 0.453,9.406 C 0.489,9.478 0.517,9.631 0.598,9.487 0.861,9.025 1.668,3.107 1.976,2.02 2.728,-0.907 8.137,1.692 8.383,1.804 5.787,2.742 4.682,2.22 4.532,2.164 4.383,2.108 4.341,2.134 4.383,2.276 4.428,2.418 4.729,3.014 4.898,3.145 5.371,3.444 7.309,3.376 7.433,3.573 7.478,3.663 6.566,8.139 6.543,8.313 6.495,8.644 6.27,9.08 6.103,9.334 5.979,9.525 6.077,9.593 6.167,9.729 c 0.173,0.255 0.222,0.384 0.347,0.604 0.108,0.191 0.191,0 0.283,-0.23 C 6.908,9.832 7.264,9.406 7.468,9.158 7.672,8.911 7.306,8.605 7.158,8.455 7.01,8.304 7.057,8.261 7.103,7.989 c 0,0 0.604,-2.596 0.68,-3.025 C 8.027,3.805 7.747,3.133 7.639,2.926 c 1.43,-0.553 3.868,-0.617 4.158,-0.617 0.29,0 0.254,-0.135 0.2,-0.253 M 1.99,8.965 C 2.002,8.996 2.021,9.076 2.063,9.228 2.104,9.376 2.17,9.421 2.383,9.52 2.6,9.62 5.391,10.78 5.593,10.886 5.905,11.05 5.854,10.919 5.81,10.806 5.767,10.697 5.748,10.668 5.672,10.516 5.596,10.36 5.496,10.328 5.324,10.231 5.155,10.134 2.315,8.959 2.218,8.913 1.905,8.758 1.954,8.863 1.99,8.965 M 5.047,5.883 4.977,5.888 4.34,5.25 4.322,5.131 C 4.41,5.005 4.51,4.887 4.62,4.776 4.743,4.657 4.871,4.548 5.006,4.457 L 5.132,4.465 5.769,5.103 5.763,5.181 C 5.618,5.277 5.484,5.385 5.359,5.511 5.242,5.627 5.144,5.756 5.047,5.883 m 21.807,1.544 c -0.159,0.099 -0.157,0.215 -0.084,0.326 0.238,0.368 0.411,0.357 0.568,0.186 0.255,-0.326 0.197,-0.866 0.17,-0.965 0,0 -0.493,0.355 -0.654,0.453 m 0.634,-1.211 c 0.341,-0.159 0.486,-0.521 0.532,-0.388 0.128,0.378 0.172,0.59 0.075,0.694 -0.072,0.075 -0.318,0.259 -0.318,0.259 0.09,0.212 0.276,0.958 -0.032,1.554 C 27.67,8.463 27.367,8.935 26.732,8.221 26.484,7.947 26.166,7.25 26.417,6.997 26.668,6.746 27.219,6.391 27.219,6.391 26.931,5.896 26.236,5.457 25.331,4.812 24.741,4.391 24.962,4.246 25.219,4.368 c 1.71,0.81 2.003,1.285 2.269,1.848 M -7.794,8.348 c -0.146,0.092 -0.144,0.198 -0.078,0.301 0.22,0.34 0.38,0.33 0.524,0.172 0.236,-0.3 0.182,-0.799 0.157,-0.891 0,0 -0.455,0.328 -0.603,0.418 m 0.585,-1.117 c 0.313,-0.147 0.447,-0.481 0.49,-0.358 0.118,0.349 0.159,0.544 0.07,0.641 -0.066,0.068 -0.293,0.239 -0.293,0.239 0.083,0.195 0.254,0.884 -0.031,1.434 C -7.042,9.304 -7.321,9.74 -7.906,9.081 -8.136,8.829 -8.43,8.185 -8.197,7.952 -7.966,7.72 -7.458,7.392 -7.458,7.392 -7.724,6.936 -8.364,6.531 -9.199,5.936 -9.744,5.546 -9.54,5.414 -9.303,5.526 c 1.577,0.747 1.848,1.186 2.094,1.705 m 24.89,0.211 c -0.16,0.1 -0.158,0.215 -0.085,0.327 0.238,0.368 0.411,0.357 0.568,0.186 0.255,-0.326 0.197,-0.866 0.17,-0.966 0,0 -0.493,0.356 -0.653,0.453 m 0.632,-1.211 c 0.342,-0.159 0.487,-0.52 0.533,-0.387 0.129,0.378 0.173,0.59 0.075,0.694 -0.071,0.074 -0.317,0.259 -0.317,0.259 0.089,0.212 0.275,0.958 -0.033,1.554 C 18.496,8.479 18.193,8.95 17.559,8.236 17.311,7.963 16.992,7.266 17.243,7.013 17.494,6.762 18.045,6.406 18.045,6.406 17.757,5.912 17.062,5.473 16.157,4.828 15.567,4.406 15.788,4.262 16.045,4.384 c 1.71,0.809 2.003,1.285 2.268,1.847 m 4.57,1.33 c 0.035,0.01 0.077,0.006 0.12,0.045 0.14,0.131 0.257,0.479 0.27,0.598 -0.015,0.09 -0.341,0.123 -0.435,0.145 -0.322,0.077 -0.629,0.247 -0.964,0.269 -0.517,0.033 -0.996,-0.2 -1.263,-0.744 -0.029,-0.071 -0.072,-0.166 -0.1,-0.237 -0.032,-0.119 0.029,-0.199 0.092,-0.107 0.071,0.107 0.16,0.212 0.271,0.279 0.265,0.16 0.546,0.222 0.833,0.194 C 21.967,7.978 22.456,7.795 22.455,7.77 22.451,7.713 21.317,7.152 21.14,7.041 21.062,6.992 20.968,6.903 20.984,6.814 c 0.014,-0.069 0.123,-0.083 0.215,-0.05 0.447,0.161 0.607,0.15 0.967,0.304 0.486,0.208 0.631,0.468 0.717,0.493 M 16.975,0.751 C 16.906,0.606 16.817,0.357 16.765,0.211 16.747,0.16 16.787,0.097 16.851,0.134 c 0.36,0.221 0.899,0.493 1.47,0.696 0.52,0.183 0.928,0.302 1.305,0.323 0.058,0.01 0.366,0.552 0.413,0.63 0.065,0.101 0.018,0.134 -0.063,0.118 C 19.538,1.817 19.198,1.74 18.669,1.789 18.015,1.846 17.504,2.346 17.521,2.542 17.536,2.692 18,2.989 18.173,2.962 18.674,2.883 18.665,2.442 18.8,2.438 18.961,2.432 19.289,3.01 19.309,3.167 19.33,3.339 18.987,3.749 18.66,3.768 18.122,3.8 17.21,2.888 16.852,2.327 16.722,2.121 16.734,1.804 16.921,1.643 17.087,1.501 17.36,1.352 17.67,1.165 17.519,1.111 17.122,0.879 16.975,0.751 m 18.462,2.793 c -0.09,0.85 -0.45,3.473 -0.484,4.147 C 34.938,8.06 34.893,8.378 34.734,8.093 34.566,7.789 34.473,7.396 34.526,6.859 34.6,5.933 34.687,5.238 34.771,4.574 34.854,3.902 35.152,1.9 35.122,0.482 35.116,0.15 35.242,0.064 35.345,0.302 35.52,0.705 35.613,1.855 35.437,3.544 M 31.133,-0.85 c -0.117,0.116 -0.218,0.245 -0.315,0.371 l -0.069,0.006 -0.637,-0.64 -0.017,-0.117 c 0.088,-0.125 0.187,-0.243 0.298,-0.354 0.121,-0.123 0.251,-0.228 0.385,-0.322 l 0.125,0.01 0.638,0.638 -0.006,0.078 c -0.145,0.096 -0.279,0.203 -0.402,0.33 m 2.968,3.1 c -0.435,0.027 -2.446,0.064 -3.624,0.715 0.117,0.099 0.372,0.428 0.28,1.252 -0.089,0.824 -0.419,3.179 -0.419,3.179 -0.026,0.247 -0.127,0.483 0.014,0.608 0.14,0.127 0.435,0.342 0.265,0.574 C 30.447,8.811 30.155,9.252 30.07,9.502 29.999,9.713 29.937,9.889 29.83,9.723 29.705,9.531 29.661,9.287 29.492,9.066 29.404,8.949 29.312,8.893 29.413,8.717 29.549,8.479 29.685,8.043 29.711,7.744 29.723,7.588 29.768,7.25 29.812,6.928 c 0,0 0.577,-2.977 0.531,-3.459 0,0 -2.383,-0.084 -2.693,-0.385 L 27.173,2.342 C 27.133,2.26 27.137,2.17 27.25,2.188 27.363,2.207 28.828,2.676 30.885,1.852 30.642,1.768 27.926,0.605 25.632,0.865 25.288,0.875 22.877,1.191 22.678,2.414 22.65,2.568 22.61,2.625 22.528,2.469 22.455,2.33 21.786,1.332 22.837,0.615 22.504,-0.088 21.91,-1.041 21.004,-1.414 c -0.297,-0.111 -1.621,-0.451 -2.958,0.148 -0.165,0.053 -0.407,-0.08 -0.158,-0.25 0.251,-0.171 2.695,-1.734 4.282,-0.089 0.28,0.287 0.758,1.056 1.12,1.978 1.626,-0.885 4.33,-0.398 4.33,-0.398 0.588,0.125 1.204,0.298 1.842,0.545 0.335,0.136 2.636,1.177 4.194,0.814 0.326,-0.08 0.401,-0.08 0.401,-0.08 0,0 0.28,0.598 0.343,0.742 0.063,0.145 0.136,0.227 -0.299,0.254 M 22.553,5.146 C 22.678,5.021 22.811,4.912 22.956,4.814 L 22.962,4.736 22.325,4.1 22.199,4.09 c -0.135,0.092 -0.263,0.201 -0.387,0.32 -0.109,0.113 -0.208,0.231 -0.296,0.356 l 0.016,0.117 0.638,0.64 0.07,-0.005 c 0.096,-0.127 0.197,-0.256 0.313,-0.372"
         style="fill:#231f20;fill-opacity:1;fill-rule:nonzero;stroke:none"
         transform="matrix(1.3333333,0,0,-1.3333333,426.9544,54.6108)"
         clip-path="url(#clipPath20)"
         id="path21" />
    </g>
  </g>
</svg>
