<?xml version="1.0" encoding="UTF-8" standalone="no"?>
<!-- Created with Inkscape (http://www.inkscape.org/) -->

<svg
   version="1.1"
   id="svg1"
   width="65.841339"
   height="17.424"
   viewBox="0 0 65.841339 17.424"
   xmlns="http://www.w3.org/2000/svg"
   xmlns:svg="http://www.w3.org/2000/svg">
  <defs
     id="defs1">
    <clipPath
       clipPathUnits="userSpaceOnUse"
       id="clipPath28">
      <path
         d="m 306.366,516.354 h 49.381 v -13.068 h -49.381 z"
         transform="translate(-333.39841,-514.69821)"
         id="path28" />
    </clipPath>
    <clipPath
       clipPathUnits="userSpaceOnUse"
       id="clipPath30">
      <path
         d="M 0,547.086 H 382.677 V 0 H 0 Z"
         transform="matrix(1.3333333,0,0,-1.3333333,0,729.448)"
         id="path30" />
    </clipPath>
  </defs>
  <g
     id="layer-MC1"
     transform="translate(-408.48798,-40.976013)">
    <g
       id="g29"
       clip-path="url(#clipPath30)">
      <path
         d="m 0,0 c -0.027,0.395 -0.084,0.739 -0.23,0.423 -0.16,-0.333 -0.238,-0.759 -0.167,-1.337 0.107,-0.992 0.22,-1.736 0.329,-2.45 0.107,-0.719 0.477,-2.864 0.5,-4.388 C 0.436,-8.113 0.567,-8.2 0.66,-7.942 0.82,-7.5 0.872,-6.258 0.634,-4.447 0.515,-3.535 0.059,-0.724 0,0 m -5.572,-2.409 c 0.056,-0.145 0.103,-0.31 0.097,-0.408 -0.227,-0.219 -0.471,-0.256 -0.65,-0.109 -0.113,0.094 -0.156,0.271 -0.145,0.502 0.007,0.166 0.027,0.23 -0.119,0.111 -0.19,-0.154 -0.139,-0.139 -0.15,-0.226 -0.066,-0.545 -0.3,-0.791 -0.722,-0.819 -0.263,-0.018 -0.458,0.167 -0.274,0.69 0.039,0.111 -0.04,0.23 -0.156,0 -0.395,-0.788 -0.155,-1.228 0.249,-1.287 0.328,-0.048 0.719,0.138 0.918,0.636 0.152,-0.252 0.461,-0.326 0.74,-0.252 0.356,0.092 0.434,0.258 0.536,0.547 0.1,0.28 0.102,0.649 -0.031,1.092 -0.023,0.074 -0.063,0.034 -0.079,-0.003 l -0.193,-0.361 c -0.02,-0.04 -0.039,-0.07 -0.021,-0.113 m 3.187,1.549 c -0.017,0.178 0.011,0.26 0.045,0.305 0.041,0.056 0.243,0.346 0.312,0.496 0.035,0.079 -0.03,0.271 -0.114,0.38 -0.123,0.16 -0.409,0.63 -0.442,0.769 C -2.621,1.245 -2.707,1.416 -2.775,1.27 -2.917,0.965 -3.111,0.769 -3.16,0.694 -3.208,0.618 -3.303,0.371 -3.188,0.146 c 0.117,-0.226 0.22,-0.377 0.243,-0.528 0.025,-0.159 0.022,-0.43 0.091,-0.757 0.081,-0.398 0.91,-5.176 0.952,-5.425 0.041,-0.248 0.096,-0.518 -0.172,-0.586 -0.346,-0.089 -1.361,0.103 -1.569,0.143 0.088,0.302 0.148,0.546 0.163,0.631 0.04,0.219 -0.183,0.152 -0.232,0.025 -0.049,-0.128 -0.325,-0.902 -0.439,-1.26 -0.107,-0.332 -0.903,0.013 -1.196,0.139 0.213,0.382 0.261,0.729 0.285,0.841 0.073,0.327 -0.144,0.236 -0.18,0.108 -0.52,-1.389 -2.298,-1.471 -2.887,-1.418 0.28,0.325 0.497,0.76 0.567,1.346 0.027,0.21 -0.117,0.262 -0.209,0.055 -0.09,-0.209 -0.597,-1.377 -2.201,-1.404 -0.226,-0.011 -1.586,-0.036 -1.776,1.649 -0.055,0.506 -1.015,7.192 -1.115,7.428 -0.1,0.237 -0.126,0.109 -0.154,0.046 l -0.226,-0.788 c 0.082,-0.473 0.626,-4.267 0.716,-4.874 0.089,-0.606 0.327,-2.374 0.418,-2.774 0.289,-1.91 1.901,-1.63 1.901,-1.63 0.11,0.004 0.544,0.037 1.029,0.223 1.781,-0.257 2.782,0.106 3.35,0.599 l 10e-4,-0.023 c 0.054,-0.295 0.978,-0.615 1.199,-0.646 0.219,-0.03 0.281,-0.004 0.421,0.211 0.137,0.256 0.27,0.602 0.386,0.941 0.141,-0.089 0.438,-0.26 0.898,-0.432 0.317,-0.118 1.107,-0.329 1.258,0.016 0.152,0.346 0.365,1.231 0.135,2.344 -0.127,0.614 -0.854,4.794 -0.854,4.794 m -15.662,-1.979 c -0.057,-0.138 -0.132,-0.475 -0.189,-0.707 -0.058,-0.233 0.1,-1.15 0.121,-1.266 0.019,-0.107 -0.865,0.008 -1.239,0.13 0.07,0.228 0.118,0.489 0.135,0.785 0.013,0.206 -0.185,0.429 -0.285,-0.008 -0.096,-0.426 -0.548,-1.684 -2.361,-1.361 -0.205,0.404 -0.408,0.743 -0.408,0.743 -0.108,0.19 -0.207,0.314 -0.255,0.203 -0.047,-0.111 -0.208,-0.972 -0.208,-0.972 0.238,-0.334 1.162,-2.144 1.074,-2.46 -0.085,-0.316 -0.841,-1.901 -3.226,-1.778 -0.25,0.013 -2.673,0.356 -1.466,3.129 0.043,0.1 -0.064,0.3 -0.219,0.071 -0.2,-0.298 -1.398,-3.54 1.12,-4.145 0.427,-0.104 2.337,-0.282 3.724,1.322 0.16,0.186 0.616,1.103 0.291,2.754 0.293,0.033 1.08,0.178 1.633,0.849 0.264,-0.206 0.777,-0.351 1.126,-0.391 0.406,-0.047 0.511,0.115 0.784,0.565 0.408,1.001 0.16,2.126 0.043,2.431 -0.115,0.306 -0.135,0.241 -0.195,0.106 m 8.021,1.618 c 0.098,0.043 4.995,2.075 5.169,2.165 0.173,0.09 0.275,0.118 0.358,0.27 0.084,0.15 0.103,0.177 0.151,0.283 0.049,0.112 0.107,0.242 -0.214,0.09 -0.207,-0.098 -5.052,-2.117 -5.273,-2.208 -0.218,-0.09 -0.283,-0.131 -0.332,-0.278 -0.049,-0.149 -0.073,-0.228 -0.084,-0.259 -0.042,-0.1 -0.096,-0.203 0.225,-0.063 m -3.282,-8.284 c -0.207,-0.097 -2.754,-1.154 -2.974,-1.244 -0.22,-0.087 -0.285,-0.127 -0.336,-0.276 -0.049,-0.147 -0.073,-0.225 -0.086,-0.257 -0.042,-0.1 -0.095,-0.201 0.225,-0.065 0.1,0.043 2.696,1.113 2.871,1.202 0.173,0.087 0.276,0.115 0.36,0.268 0.085,0.148 0.105,0.173 0.153,0.279 0.051,0.113 0.11,0.241 -0.213,0.093 m -3.432,0.706 c -0.246,0.053 -0.246,0.719 -0.239,0.912 0.006,0.19 0.157,0.102 0.307,0.06 0.363,-0.109 1.925,0.294 2.548,0.433 0.171,0.04 0.15,0.204 0.11,0.327 -0.691,1.528 -1.617,1.856 -1.856,1.945 l 0.033,0.829 0.139,0.109 c 1.012,-0.226 1.628,-1.376 1.752,-1.671 0.446,-0.952 0.226,-2.075 0.172,-2.231 -0.055,-0.159 -0.172,-0.213 -0.302,-0.254 -0.129,-0.042 -1.862,-0.576 -2.664,-0.459 m 31.065,7.194 c 0.028,0.099 0.085,0.639 -0.17,0.965 -0.157,0.171 -0.33,0.182 -0.568,-0.186 -0.072,-0.111 -0.074,-0.227 0.085,-0.326 0.16,-0.098 0.653,-0.453 0.653,-0.453 m -2.289,-2.606 c -0.257,-0.122 -0.477,0.023 0.112,0.444 0.906,0.645 1.6,1.084 1.888,1.579 0,0 -0.551,0.355 -0.802,0.606 -0.251,0.253 0.068,0.95 0.316,1.224 0.635,0.713 0.937,0.242 1.013,0.114 0.307,-0.596 0.122,-1.342 0.032,-1.554 0,0 0.246,-0.184 0.317,-0.259 0.098,-0.104 0.054,-0.316 -0.075,-0.694 -0.046,-0.133 -0.191,0.229 -0.531,0.388 -0.267,-0.563 -0.56,-1.038 -2.27,-1.848 M 5.151,-1.59 C 5.179,-1.49 5.236,-0.95 4.98,-0.624 4.824,-0.453 4.651,-0.442 4.413,-0.811 4.341,-0.922 4.339,-1.037 4.498,-1.137 4.658,-1.234 5.151,-1.59 5.151,-1.59 M 2.862,-4.195 c -0.258,-0.122 -0.477,0.022 0.113,0.444 0.905,0.645 1.599,1.084 1.887,1.578 0,0 -0.55,0.356 -0.801,0.607 -0.251,0.253 0.067,0.95 0.315,1.223 0.635,0.714 0.936,0.242 1.013,0.114 0.307,-0.595 0.122,-1.341 0.032,-1.553 0,0 0.246,-0.185 0.317,-0.259 C 5.836,-2.146 5.792,-2.357 5.663,-2.735 5.617,-2.868 5.473,-2.507 5.132,-2.348 4.865,-2.91 4.572,-3.386 2.862,-4.195 M 9.7,-1.018 c 0.035,0.01 0.077,0.006 0.12,0.045 0.14,0.131 0.257,0.479 0.271,0.598 -0.016,0.09 -0.342,0.123 -0.436,0.145 C 9.333,-0.153 9.026,0.017 8.691,0.039 8.175,0.072 7.695,-0.161 7.429,-0.705 7.399,-0.776 7.355,-0.871 7.328,-0.942 7.296,-1.061 7.357,-1.141 7.42,-1.049 c 0.071,0.107 0.16,0.212 0.271,0.279 0.265,0.16 0.546,0.222 0.833,0.194 0.26,-0.025 0.749,-0.208 0.747,-0.233 C 9.269,-0.866 8.135,-1.427 7.957,-1.539 7.88,-1.587 7.785,-1.676 7.802,-1.765 c 0.013,-0.069 0.123,-0.083 0.215,-0.05 0.446,0.161 0.606,0.15 0.966,0.304 0.487,0.208 0.631,0.468 0.717,0.493 m -5.908,-6.81 c -0.068,-0.145 -0.157,-0.394 -0.21,-0.54 -0.018,-0.051 0.022,-0.114 0.086,-0.077 0.36,0.221 0.899,0.493 1.471,0.695 0.519,0.184 0.927,0.303 1.304,0.324 0.058,0.009 0.367,0.551 0.412,0.63 0.066,0.101 0.019,0.134 -0.062,0.118 -0.438,-0.084 -0.777,-0.161 -1.307,-0.113 -0.654,0.058 -1.165,0.558 -1.147,0.754 0.015,0.15 0.478,0.447 0.651,0.42 0.501,-0.079 0.492,-0.52 0.627,-0.525 0.161,-0.005 0.488,0.573 0.509,0.73 0.02,0.172 -0.321,0.581 -0.648,0.6 C 4.939,-4.779 4.027,-5.691 3.669,-6.252 3.539,-6.458 3.552,-6.775 3.738,-6.936 3.904,-7.078 4.178,-7.227 4.487,-7.415 4.336,-7.468 3.939,-7.7 3.792,-7.828 m 18.462,2.793 c -0.09,0.85 -0.449,3.473 -0.483,4.147 -0.014,0.369 -0.061,0.687 -0.219,0.402 -0.168,-0.305 -0.262,-0.697 -0.208,-1.234 0.073,-0.926 0.16,-1.621 0.244,-2.285 0.083,-0.672 0.382,-2.674 0.351,-4.092 -0.005,-0.332 0.121,-0.418 0.223,-0.18 0.175,0.402 0.269,1.553 0.092,3.242 M 17.95,-9.429 c -0.117,0.116 -0.218,0.244 -0.314,0.371 l -0.07,0.006 -0.636,-0.64 -0.018,-0.118 c 0.088,-0.125 0.188,-0.242 0.298,-0.353 0.121,-0.123 0.251,-0.229 0.386,-0.322 l 0.125,0.009 0.637,0.639 -0.005,0.078 c -0.146,0.096 -0.28,0.203 -0.403,0.33 m 2.968,3.1 c -0.435,0.027 -2.445,0.064 -3.624,0.715 0.117,0.099 0.372,0.427 0.28,1.252 -0.089,0.824 -0.419,3.179 -0.419,3.179 -0.026,0.246 -0.127,0.483 0.014,0.608 0.141,0.127 0.435,0.342 0.266,0.574 -0.17,0.232 -0.462,0.674 -0.547,0.924 C 16.816,1.134 16.754,1.31 16.646,1.144 16.521,0.952 16.479,0.708 16.31,0.487 16.222,0.37 16.13,0.313 16.23,0.138 c 0.136,-0.239 0.272,-0.674 0.298,-0.973 0.012,-0.156 0.057,-0.494 0.102,-0.816 0,0 0.576,-2.977 0.53,-3.459 0,0 -2.383,-0.084 -2.692,-0.385 L 13.99,-6.237 c -0.04,-0.082 -0.036,-0.172 0.077,-0.155 0.114,0.02 1.579,0.489 3.635,-0.336 -0.243,-0.084 -2.959,-1.246 -5.253,-0.986 -0.344,0.01 -2.755,0.326 -2.954,1.549 C 9.468,-6.011 9.428,-5.954 9.346,-6.11 9.271,-6.249 8.604,-7.247 9.654,-7.964 9.321,-8.667 8.728,-9.62 7.821,-9.993 7.524,-10.104 6.2,-10.444 4.863,-9.845 c -0.165,0.053 -0.407,-0.08 -0.158,-0.25 0.251,-0.172 2.695,-1.734 4.282,-0.09 0.281,0.288 0.758,1.057 1.12,1.979 1.626,-0.885 4.331,-0.398 4.331,-0.398 0.587,0.125 1.204,0.298 1.841,0.544 0.335,0.137 2.636,1.178 4.195,0.815 0.326,-0.08 0.4,-0.08 0.4,-0.08 0,0 0.28,0.597 0.344,0.742 0.062,0.145 0.136,0.227 -0.3,0.254 M 9.058,-3.062 8.987,-3.056 8.35,-3.696 8.333,-3.813 c 0.088,-0.125 0.188,-0.243 0.298,-0.356 0.122,-0.119 0.251,-0.228 0.386,-0.32 l 0.126,0.01 0.636,0.636 -0.006,0.078 C 9.628,-3.667 9.495,-3.558 9.37,-3.433 9.254,-3.317 9.153,-3.188 9.058,-3.062 m -30.164,3.016 c 0.024,0.09 0.077,0.58 -0.154,0.876 -0.142,0.154 -0.3,0.164 -0.515,-0.169 -0.065,-0.101 -0.067,-0.206 0.077,-0.296 0.144,-0.089 0.592,-0.411 0.592,-0.411 m -2.074,-2.36 c -0.232,-0.111 -0.433,0.02 0.102,0.403 0.82,0.584 1.449,0.982 1.71,1.429 0,0 -0.499,0.322 -0.726,0.55 -0.228,0.229 0.06,0.86 0.285,1.108 0.575,0.647 0.849,0.22 0.917,0.104 0.279,-0.54 0.111,-1.216 0.03,-1.408 0,0 0.223,-0.167 0.288,-0.235 0.088,-0.094 0.048,-0.286 -0.069,-0.628 -0.043,-0.121 -0.172,0.207 -0.481,0.351 -0.241,-0.51 -0.507,-0.941 -2.056,-1.674"
         style="fill:#231f20;fill-opacity:1;fill-rule:nonzero;stroke:none"
         transform="matrix(1.3333333,0,0,-1.3333333,444.5312,43.183733)"
         clip-path="url(#clipPath28)"
         id="path29" />
    </g>
  </g>
</svg>
