<?xml version="1.0" encoding="UTF-8" standalone="no"?>
<!-- Created with Inkscape (http://www.inkscape.org/) -->

<svg
   version="1.1"
   id="svg1"
   width="60.05719"
   height="18.847343"
   viewBox="0 0 60.05719 18.847343"
   xmlns="http://www.w3.org/2000/svg"
   xmlns:svg="http://www.w3.org/2000/svg">
  <defs
     id="defs1">
    <clipPath
       clipPathUnits="userSpaceOnUse"
       id="clipPath23">
      <path
         d="m 310.705,517.58 h 45.043 v -14.136 h -45.043 z"
         transform="translate(-312.42481,-516.51071)"
         id="path23" />
    </clipPath>
    <clipPath
       clipPathUnits="userSpaceOnUse"
       id="clipPath25">
      <path
         d="M 0,547.086 H 382.677 V 0 H 0 Z"
         transform="matrix(1.3333333,0,0,-1.3333333,0,729.448)"
         id="path25" />
    </clipPath>
  </defs>
  <g
     id="layer-MC1"
     transform="translate(-414.27347,-39.341926)">
    <g
       id="g24"
       clip-path="url(#clipPath25)">
      <path
         d="M 0,0 C -0.144,0.09 -0.142,0.195 -0.077,0.296 0.139,0.629 0.296,0.62 0.438,0.465 0.669,0.169 0.616,-0.32 0.592,-0.411 0.592,-0.411 0.145,-0.088 0,0 m 0.574,-1.097 c 0.309,-0.144 0.44,-0.472 0.482,-0.351 0.116,0.342 0.156,0.534 0.068,0.629 C 1.06,-0.752 0.836,-0.584 0.836,-0.584 0.917,-0.393 1.085,0.283 0.807,0.823 0.738,0.939 0.464,1.366 -0.11,0.72 -0.336,0.472 -0.624,-0.16 -0.396,-0.389 -0.169,-0.617 0.33,-0.938 0.33,-0.938 c -0.261,-0.448 -0.89,-0.846 -1.71,-1.43 -0.535,-0.383 -0.334,-0.513 -0.101,-0.403 1.548,0.733 1.814,1.165 2.055,1.674 M 22.56,-6.596 c 0.171,-1.953 0.074,-3.283 -0.102,-3.752 -0.102,-0.274 -0.229,-0.177 -0.221,0.21 0.034,1.639 -0.258,3.954 -0.34,4.732 -0.083,0.769 -0.168,1.573 -0.239,2.644 -0.051,0.623 0.043,1.077 0.214,1.429 0.158,0.332 0.203,-0.038 0.216,-0.463 0.032,-0.781 0.386,-3.816 0.472,-4.8 M 6.423,-7.319 c 0.124,-0.125 0.258,-0.234 0.402,-0.33 L 6.832,-7.728 6.195,-8.366 6.068,-8.375 C 5.935,-8.283 5.806,-8.174 5.683,-8.054 5.572,-7.943 5.474,-7.825 5.385,-7.7 l 0.018,0.117 0.637,0.64 0.07,-0.005 c 0.097,-0.127 0.196,-0.257 0.313,-0.371 m 14.132,-0.219 c 0.23,-1.114 0.017,-1.999 -0.135,-2.344 -0.151,-0.346 -0.941,-0.134 -1.26,-0.016 -0.459,0.171 -0.755,0.343 -0.897,0.433 -0.116,-0.341 -0.248,-0.687 -0.386,-0.943 -0.14,-0.214 -0.202,-0.241 -0.421,-0.21 -0.22,0.031 -1.146,0.351 -1.199,0.646 l -0.001,0.022 c -0.568,-0.492 -1.568,-0.855 -3.35,-0.597 -0.485,-0.187 -0.92,-0.22 -1.028,-0.224 0,0 -1.613,-0.28 -1.903,1.631 -0.09,0.398 -0.327,2.165 -0.416,2.772 -0.092,0.607 -0.635,4.404 -0.716,4.875 l 0.225,0.788 c 0.028,0.064 0.056,0.191 0.155,-0.045 0.1,-0.235 1.06,-6.923 1.116,-7.429 0.189,-1.686 1.548,-1.659 1.774,-1.65 1.604,0.027 2.112,1.196 2.202,1.405 0.09,0.208 0.236,0.154 0.208,-0.056 -0.07,-0.586 -0.287,-1.02 -0.565,-1.346 0.589,-0.052 2.366,0.03 2.886,1.419 0.036,0.127 0.253,0.218 0.18,-0.109 -0.024,-0.111 -0.073,-0.459 -0.286,-0.841 0.292,-0.126 1.09,-0.469 1.196,-0.139 0.115,0.357 0.391,1.133 0.439,1.261 0.048,0.128 0.272,0.193 0.232,-0.026 -0.015,-0.086 -0.074,-0.328 -0.162,-0.631 0.208,-0.04 1.223,-0.232 1.568,-0.143 0.267,0.069 0.213,0.338 0.172,0.587 -0.041,0.249 -0.871,5.028 -0.954,5.424 -0.066,0.329 -0.063,0.6 -0.088,0.757 -0.024,0.152 -0.127,0.304 -0.244,0.529 -0.116,0.225 -0.019,0.472 0.028,0.547 0.05,0.076 0.244,0.272 0.386,0.577 0.067,0.145 0.153,-0.025 0.19,-0.178 0.034,-0.141 0.319,-0.61 0.443,-0.77 0.084,-0.108 0.149,-0.3 0.114,-0.38 -0.069,-0.15 -0.271,-0.44 -0.314,-0.496 -0.032,-0.046 -0.061,-0.128 -0.043,-0.306 0,0 0.728,-4.179 0.854,-4.794 M 8.352,-8.811 C 8.305,-8.916 8.283,-8.941 8.198,-9.091 8.115,-9.242 8.014,-9.269 7.837,-9.357 7.664,-9.445 5.068,-10.516 4.969,-10.558 c -0.322,-0.137 -0.267,-0.036 -0.225,0.064 0.012,0.032 0.037,0.11 0.086,0.257 0.049,0.15 0.115,0.189 0.335,0.278 0.22,0.087 2.768,1.145 2.975,1.242 0.321,0.149 0.263,0.019 0.212,-0.094 m 3.397,5.95 c 0.011,0.031 0.034,0.111 0.077,0.261 0.045,0.15 0.111,0.192 0.325,0.288 0.218,0.096 4.72,1.932 4.924,2.034 0.316,0.16 0.263,0.029 0.215,-0.085 -0.044,-0.106 -0.062,-0.135 -0.142,-0.287 -0.079,-0.153 -0.18,-0.183 -0.351,-0.277 -0.172,-0.094 -4.724,-1.945 -4.821,-1.99 -0.317,-0.148 -0.265,-0.044 -0.227,0.056 M 6.56,-12.053 c -0.284,-0.129 -2.441,-0.749 -3.098,-0.878 -2.764,-0.554 -4.623,0.607 -4.79,3.151 -0.156,2.337 1.059,3.937 1.511,4.544 0.148,0.198 0.288,0.348 0.42,0.469 -0.487,0.507 -0.938,0.175 -1.044,0.062 -0.111,-0.119 -0.189,-0.045 -0.144,0.153 0.272,0.992 0.711,1.287 1.506,1.411 0.795,0.122 1.403,-0.251 1.514,-0.341 C 2.805,-3.748 2.566,-4.249 2.39,-4.589 2.329,-4.712 2.16,-4.817 1.929,-4.942 2.152,-5.068 2.325,-5.16 2.372,-5.178 c 2.006,-0.665 4.388,0.433 4.524,0.517 0.135,0.083 -0.439,0.89 -0.723,1.265 0,0 0.129,0.756 0.168,0.917 0.039,0.161 0.09,0.154 0.194,0.038 C 7.419,-3.313 7.329,-4.333 7.302,-4.642 7.212,-5.352 7.044,-5.439 6.878,-5.529 5.362,-6.283 4.088,-6.313 3.635,-6.313 1.983,-6.246 1.564,-5.884 1.153,-5.414 0.427,-5.884 -0.45,-6.658 -0.8,-8.204 c -0.361,-1.938 0.221,-3.165 1.744,-3.615 1.523,-0.453 4.957,0.076 5.526,0.128 0.569,0.052 0.375,-0.232 0.09,-0.362 m 9.845,7.803 c 0.057,-0.145 0.104,-0.309 0.098,-0.406 -0.226,-0.218 -0.469,-0.254 -0.647,-0.108 -0.112,0.093 -0.155,0.268 -0.143,0.498 0.007,0.165 0.026,0.228 -0.119,0.111 -0.189,-0.154 -0.137,-0.138 -0.149,-0.225 -0.066,-0.542 -0.299,-0.785 -0.716,-0.813 -0.263,-0.019 -0.456,0.165 -0.273,0.684 0.039,0.112 -0.039,0.229 -0.155,0 -0.392,-0.782 -0.154,-1.218 0.247,-1.278 0.325,-0.047 0.715,0.138 0.912,0.632 0.151,-0.249 0.458,-0.324 0.735,-0.25 0.355,0.091 0.432,0.256 0.533,0.544 0.098,0.277 0.101,0.645 -0.032,1.084 -0.022,0.073 -0.061,0.034 -0.078,-0.003 l -0.19,-0.359 c -0.022,-0.04 -0.039,-0.069 -0.023,-0.111 m 18.241,1.283 c -0.159,0.1 -0.157,0.215 -0.084,0.326 0.238,0.369 0.411,0.358 0.568,0.187 0.255,-0.326 0.197,-0.866 0.17,-0.966 0,0 -0.493,0.356 -0.654,0.453 m 0.634,-1.211 c 0.341,-0.159 0.486,-0.52 0.532,-0.387 0.128,0.378 0.172,0.589 0.075,0.694 -0.072,0.074 -0.318,0.259 -0.318,0.259 0.09,0.212 0.276,0.958 -0.032,1.553 -0.075,0.128 -0.378,0.6 -1.013,-0.114 -0.248,-0.273 -0.566,-0.971 -0.315,-1.223 0.251,-0.251 0.802,-0.607 0.802,-0.607 -0.288,-0.494 -0.983,-0.934 -1.888,-1.578 -0.59,-0.422 -0.369,-0.566 -0.112,-0.444 1.71,0.809 2.003,1.285 2.269,1.847 m -9.807,1.227 c -0.16,0.099 -0.158,0.215 -0.085,0.326 0.238,0.368 0.411,0.357 0.568,0.187 0.255,-0.327 0.197,-0.867 0.17,-0.966 0,0 -0.493,0.355 -0.653,0.453 m 0.633,-1.211 c 0.341,-0.159 0.486,-0.521 0.532,-0.388 0.129,0.378 0.173,0.59 0.075,0.695 -0.071,0.074 -0.317,0.258 -0.317,0.258 0.089,0.212 0.275,0.958 -0.033,1.554 -0.075,0.128 -0.378,0.6 -1.012,-0.114 -0.248,-0.274 -0.567,-0.971 -0.316,-1.224 0.251,-0.251 0.802,-0.606 0.802,-0.606 -0.288,-0.494 -0.983,-0.934 -1.888,-1.578 -0.59,-0.422 -0.369,-0.567 -0.112,-0.445 1.71,0.81 2.003,1.285 2.269,1.848 m 4.569,1.329 c 0.035,0.01 0.077,0.006 0.12,0.046 0.14,0.131 0.257,0.479 0.27,0.597 -0.015,0.091 -0.341,0.123 -0.435,0.146 -0.322,0.077 -0.629,0.247 -0.964,0.268 -0.517,0.033 -0.996,-0.199 -1.263,-0.744 -0.029,-0.07 -0.072,-0.165 -0.1,-0.236 -0.032,-0.119 0.029,-0.2 0.092,-0.108 0.071,0.107 0.16,0.212 0.271,0.28 0.265,0.16 0.546,0.221 0.833,0.194 0.26,-0.026 0.749,-0.208 0.748,-0.234 -0.004,-0.057 -1.138,-0.618 -1.315,-0.729 -0.078,-0.049 -0.172,-0.138 -0.156,-0.227 0.014,-0.068 0.123,-0.083 0.215,-0.05 0.446,0.162 0.607,0.151 0.967,0.304 0.486,0.209 0.631,0.468 0.717,0.493 m -5.908,-6.81 c -0.069,-0.145 -0.158,-0.394 -0.21,-0.539 -0.018,-0.052 0.022,-0.115 0.086,-0.078 0.36,0.221 0.899,0.493 1.47,0.696 0.52,0.184 0.928,0.303 1.305,0.324 0.058,0.009 0.366,0.551 0.413,0.629 0.065,0.102 0.018,0.134 -0.063,0.119 -0.438,-0.084 -0.778,-0.162 -1.307,-0.113 -0.654,0.058 -1.165,0.557 -1.148,0.753 0.015,0.15 0.479,0.447 0.652,0.42 0.501,-0.078 0.492,-0.519 0.627,-0.524 0.161,-0.006 0.489,0.572 0.509,0.73 0.021,0.171 -0.322,0.581 -0.649,0.6 -0.538,0.033 -1.45,-0.879 -1.808,-1.441 -0.13,-0.206 -0.118,-0.523 0.069,-0.683 0.166,-0.142 0.439,-0.292 0.749,-0.479 -0.151,-0.054 -0.548,-0.285 -0.695,-0.414 m 18.462,2.794 c -0.09,0.849 -0.45,3.473 -0.484,4.146 -0.014,0.37 -0.06,0.688 -0.219,0.403 -0.168,-0.305 -0.261,-0.698 -0.208,-1.235 0.074,-0.925 0.161,-1.621 0.245,-2.285 0.083,-0.672 0.381,-2.674 0.351,-4.092 -0.006,-0.332 0.12,-0.418 0.223,-0.179 0.175,0.402 0.268,1.552 0.092,3.242 m -4.304,-4.394 c -0.117,0.115 -0.218,0.244 -0.315,0.371 l -0.069,0.006 -0.637,-0.641 -0.017,-0.117 c 0.088,-0.125 0.187,-0.242 0.298,-0.354 0.121,-0.123 0.251,-0.228 0.385,-0.322 l 0.125,0.01 0.638,0.639 -0.006,0.078 c -0.145,0.095 -0.279,0.203 -0.402,0.33 m 2.968,3.099 c -0.435,0.028 -2.446,0.065 -3.624,0.715 0.117,0.1 0.372,0.428 0.28,1.252 -0.089,0.824 -0.419,3.18 -0.419,3.18 -0.026,0.246 -0.127,0.482 0.014,0.607 0.14,0.127 0.435,0.342 0.265,0.575 -0.17,0.232 -0.462,0.673 -0.547,0.923 -0.071,0.211 -0.133,0.387 -0.24,0.221 -0.125,-0.191 -0.169,-0.435 -0.338,-0.656 -0.088,-0.117 -0.18,-0.174 -0.079,-0.35 0.136,-0.238 0.272,-0.674 0.298,-0.972 0.012,-0.157 0.057,-0.495 0.101,-0.817 0,0 0.577,-2.976 0.531,-3.459 0,0 -2.383,-0.084 -2.693,-0.385 l -0.477,-0.742 c -0.04,-0.082 -0.036,-0.172 0.077,-0.154 0.113,0.019 1.578,0.488 3.635,-0.336 -0.243,-0.084 -2.959,-1.246 -5.253,-0.986 -0.344,0.009 -2.755,0.326 -2.954,1.549 -0.028,0.154 -0.068,0.21 -0.15,0.054 -0.073,-0.138 -0.742,-1.137 0.309,-1.853 -0.333,-0.703 -0.927,-1.657 -1.833,-2.03 -0.297,-0.111 -1.621,-0.451 -2.958,0.149 -0.165,0.053 -0.407,-0.08 -0.158,-0.25 0.251,-0.172 2.695,-1.735 4.282,-0.09 0.28,0.287 0.758,1.057 1.12,1.978 1.626,-0.884 4.33,-0.398 4.33,-0.398 0.588,0.125 1.204,0.299 1.842,0.545 0.335,0.137 2.636,1.178 4.194,0.814 0.326,-0.08 0.401,-0.08 0.401,-0.08 0,0 0.28,0.598 0.343,0.743 0.063,0.144 0.136,0.226 -0.299,0.253 m -11.548,2.897 c 0.125,-0.125 0.258,-0.234 0.403,-0.332 l 0.006,-0.078 -0.637,-0.637 -0.126,-0.01 c -0.135,0.092 -0.263,0.201 -0.386,0.321 -0.11,0.113 -0.209,0.23 -0.297,0.355 l 0.016,0.117 0.638,0.641 0.07,-0.006 c 0.096,-0.127 0.197,-0.256 0.313,-0.371"
         style="fill:#231f20;fill-opacity:1;fill-rule:nonzero;stroke:none"
         transform="matrix(1.3333333,0,0,-1.3333333,416.5664,40.767067)"
         clip-path="url(#clipPath23)"
         id="path24" />
    </g>
  </g>
</svg>
