<?xml version="1.0" encoding="UTF-8" standalone="no"?>
<!-- Created with Inkscape (http://www.inkscape.org/) -->

<svg
   version="1.1"
   id="svg1"
   width="57.437317"
   height="18.701336"
   viewBox="0 0 57.437317 18.701336"
   xmlns="http://www.w3.org/2000/svg"
   xmlns:svg="http://www.w3.org/2000/svg">
  <defs
     id="defs1">
    <clipPath
       clipPathUnits="userSpaceOnUse"
       id="clipPath30">
      <path
         d="m 312.67,517.44 h 43.078 V 503.414 H 312.67 Z"
         transform="translate(-327.90821,-512.30031)"
         id="path30" />
    </clipPath>
    <clipPath
       clipPathUnits="userSpaceOnUse"
       id="clipPath32">
      <path
         d="M 0,547.086 H 382.677 V 0 H 0 Z"
         transform="matrix(1.3333333,0,0,-1.3333333,0,729.448)"
         id="path32" />
    </clipPath>
  </defs>
  <g
     id="layer-MC1"
     transform="translate(-416.89334,-39.528011)">
    <g
       id="g31"
       clip-path="url(#clipPath32)">
      <path
         d="m 0,0 -0.58,-0.693 -0.007,-0.118 c 0.1,-0.118 0.209,-0.227 0.329,-0.328 0.131,-0.109 0.27,-0.205 0.41,-0.285 l 0.125,0.019 0.579,0.692 -0.012,0.077 C 0.691,-0.553 0.549,-0.457 0.414,-0.342 0.288,-0.237 0.177,-0.118 0.068,0 Z m 0.247,-2.302 -0.023,-0.041 -0.289,0.21 c -0.13,0.109 -0.245,0.232 -0.353,0.354 l -0.077,-0.001 -0.6,-0.718 -0.008,-0.124 c 0.105,-0.12 0.216,-0.235 0.343,-0.339 0.133,-0.114 0.276,-0.213 0.426,-0.296 l 0.13,0.022 0.566,0.676 0.221,-0.208 C 0.719,-2.88 0.861,-2.978 1.009,-3.062 l 0.131,0.02 0.598,0.718 -0.018,0.079 C 1.567,-2.156 1.42,-2.057 1.277,-1.938 1.146,-1.83 1.035,-1.706 0.924,-1.583 L 0.85,-1.584 Z m -7.532,-0.085 c 0.376,0.186 0.654,0.135 0.809,-0.158 0.159,-0.294 0.483,-0.937 0.22,-0.867 -0.239,0.062 -1.149,0.276 -1.386,0.616 0.136,0.204 0.254,0.357 0.357,0.409 m 0.98,-2.077 c 0.254,-10e-4 0.288,-0.024 0.383,0.191 0.094,0.215 0.214,0.494 0.226,0.675 0.01,0.183 0.022,1.299 -0.153,1.764 -0.136,0.447 -0.719,0.712 -1.06,0.441 -0.777,-0.701 -1.022,-1.274 -1.295,-1.624 -0.23,-0.293 -0.955,-1.155 -2.014,-0.639 -0.198,0.407 -0.397,0.749 -0.397,0.749 -0.105,0.188 -0.201,0.309 -0.246,0.198 -0.046,-0.109 -0.202,-0.963 -0.202,-0.963 0.231,-0.333 1.125,-2.129 1.042,-2.443 -0.083,-0.314 -0.811,-1.889 -3.115,-1.771 -0.24,0.014 -2.451,0.364 -1.419,3.107 0.038,0.1 -0.062,0.298 -0.212,0.069 -0.193,-0.294 -1.346,-3.517 1.087,-4.115 0.413,-0.101 2.257,-0.277 3.595,1.318 0.153,0.184 0.588,1.086 0.282,2.707 0.272,-0.004 0.547,0.067 0.839,0.222 0.276,0.174 0.54,0.53 0.78,0.905 l 0.065,-0.086 c 0.359,-0.275 1.561,-0.703 1.814,-0.705 M 4.3,-3.37 C 4.518,-4.657 4.049,-5.673 3.948,-5.83 3.389,-6.636 2.404,-5.931 2.203,-5.807 2.001,-5.682 1.826,-5.771 1.58,-5.913 c -1.885,-1.161 -3.343,-0.98 -3.652,-0.942 -1.703,0.194 -1.846,2.271 -1.91,2.853 -0.074,0.655 -0.375,3.948 -0.646,4.994 -0.091,0.413 0.09,1.084 0.129,1.277 0.039,0.195 0.13,0.258 0.206,-0.038 0.079,-0.297 0.774,-5.537 0.853,-6.079 0.257,-1.793 1.316,-1.897 1.69,-1.988 1.652,-0.193 3.317,0.748 3.589,0.942 0.27,0.194 0.567,0.027 0.709,-0.039 C 2.689,-4.996 3.257,-5.23 3.606,-5.281 3.955,-5.332 3.98,-4.817 3.941,-4.493 3.903,-4.171 3.205,-0.17 3.17,0.076 3.096,0.582 3.014,0.949 2.994,1.047 2.926,1.376 2.929,1.647 2.904,1.804 2.88,1.957 2.777,2.107 2.662,2.333 2.545,2.558 2.642,2.805 2.688,2.881 2.737,2.955 2.932,3.151 3.074,3.457 3.142,3.601 3.228,3.432 3.265,3.278 3.299,3.138 3.583,2.668 3.707,2.509 3.791,2.399 3.855,2.207 3.82,2.13 3.752,1.978 3.55,1.687 3.508,1.633 3.475,1.587 3.445,1.505 3.464,1.327 c 0,0 0.745,-4.153 0.836,-4.697 m -9.028,-2.839 c -0.043,-0.106 -0.062,-0.133 -0.142,-0.286 -0.079,-0.153 -0.179,-0.184 -0.351,-0.278 -0.172,-0.094 -3.135,-1.32 -3.234,-1.367 -0.316,-0.147 -0.265,-0.045 -0.227,0.057 0.013,0.032 0.035,0.111 0.078,0.261 0.044,0.15 0.11,0.191 0.326,0.287 0.216,0.097 3.132,1.309 3.336,1.412 0.315,0.159 0.262,0.028 0.214,-0.086 m 1.786,9.237 c 0.011,0.031 0.037,0.111 0.084,0.259 0.047,0.147 0.114,0.189 0.333,0.279 0.22,0.09 3.394,1.407 3.602,1.505 C 1.396,5.223 1.34,5.092 1.289,4.979 1.243,4.874 1.223,4.848 1.14,4.698 1.056,4.548 0.953,4.516 0.779,4.429 0.605,4.339 -2.617,3.009 -2.717,2.967 -3.037,2.827 -2.983,2.929 -2.942,3.028 M 6.411,-2.656 C 6.633,-4.466 6.568,-5.705 6.405,-6.146 6.31,-6.402 6.181,-6.314 6.178,-5.955 6.169,-4.431 5.819,-2.287 5.717,-1.567 5.617,-0.853 5.509,-0.109 5.411,0.883 5.345,1.461 5.428,1.885 5.589,2.218 5.737,2.53 5.792,2.187 5.815,1.791 5.869,1.068 6.298,-1.744 6.411,-2.656 m -19.067,0.746 c 0.124,-0.127 0.257,-0.235 0.402,-0.331 l 0.006,-0.079 -0.638,-0.638 -0.125,-0.007 c -0.135,0.092 -0.264,0.199 -0.385,0.32 -0.11,0.11 -0.21,0.229 -0.298,0.355 l 0.017,0.117 0.637,0.64 0.07,-0.006 c 0.097,-0.127 0.197,-0.256 0.314,-0.371 m -0.863,4.19 c -0.143,0.09 -0.141,0.194 -0.077,0.296 0.216,0.333 0.373,0.323 0.516,0.168 0.23,-0.295 0.178,-0.785 0.153,-0.875 0,0 -0.447,0.322 -0.592,0.411 m 0.575,-1.097 c 0.308,-0.145 0.439,-0.472 0.481,-0.352 0.116,0.343 0.156,0.535 0.068,0.629 -0.064,0.068 -0.288,0.235 -0.288,0.235 0.081,0.192 0.249,0.868 -0.029,1.408 -0.068,0.116 -0.343,0.543 -0.917,-0.104 -0.225,-0.248 -0.514,-0.88 -0.285,-1.109 0.226,-0.227 0.726,-0.549 0.726,-0.549 -0.261,-0.448 -0.89,-0.846 -1.71,-1.43 -0.536,-0.382 -0.334,-0.513 -0.102,-0.402 1.549,0.733 1.814,1.164 2.056,1.674 M 0.467,2.398 C 0.523,2.254 0.57,2.09 0.564,1.993 0.339,1.775 0.096,1.739 -0.082,1.885 -0.194,1.978 -0.237,2.153 -0.226,2.383 -0.219,2.548 -0.199,2.611 -0.345,2.494 -0.533,2.34 -0.481,2.355 -0.493,2.269 -0.56,1.727 -0.792,1.484 -1.21,1.455 -1.473,1.437 -1.665,1.621 -1.482,2.14 -1.443,2.251 -1.521,2.369 -1.638,2.14 -2.029,1.358 -1.791,0.922 -1.391,0.862 -1.065,0.815 -0.676,1 -0.479,1.494 -0.327,1.244 -0.021,1.17 0.257,1.244 0.611,1.335 0.688,1.499 0.789,1.787 0.888,2.065 0.891,2.432 0.758,2.871 0.735,2.945 0.696,2.906 0.68,2.869 L 0.489,2.51 C 0.468,2.47 0.451,2.441 0.467,2.398 M 19.163,1.245 c -0.159,0.1 -0.157,0.215 -0.085,0.327 0.238,0.368 0.411,0.357 0.568,0.186 0.255,-0.326 0.198,-0.866 0.17,-0.966 0,0 -0.493,0.356 -0.653,0.453 m 0.634,-1.21 c 0.341,-0.16 0.486,-0.521 0.531,-0.388 0.129,0.378 0.173,0.59 0.075,0.694 C 20.332,0.415 20.086,0.6 20.086,0.6 20.176,0.812 20.361,1.558 20.054,2.154 19.979,2.282 19.676,2.753 19.041,2.039 18.793,1.766 18.475,1.069 18.726,0.816 18.977,0.565 19.527,0.209 19.527,0.209 19.239,-0.285 18.545,-0.724 17.64,-1.369 c -0.59,-0.422 -0.369,-0.566 -0.113,-0.444 1.71,0.809 2.003,1.285 2.27,1.848 M 9.989,1.261 c -0.159,0.1 -0.157,0.215 -0.085,0.326 0.239,0.368 0.411,0.358 0.569,0.187 0.255,-0.326 0.197,-0.866 0.17,-0.966 0,0 -0.494,0.355 -0.654,0.453 M 10.623,0.05 c 0.341,-0.159 0.485,-0.52 0.531,-0.388 0.129,0.378 0.174,0.59 0.075,0.695 -0.071,0.074 -0.317,0.259 -0.317,0.259 0.09,0.211 0.276,0.958 -0.032,1.553 C 10.805,2.297 10.502,2.769 9.867,2.055 9.619,1.782 9.301,1.084 9.552,0.831 9.803,0.58 10.354,0.225 10.354,0.225 10.065,-0.269 9.371,-0.709 8.466,-1.353 7.876,-1.775 8.097,-1.92 8.354,-1.797 c 1.709,0.809 2.002,1.285 2.269,1.847 m 4.568,1.33 c 0.036,0.01 0.078,0.006 0.121,0.045 0.14,0.131 0.256,0.479 0.27,0.597 C 15.566,2.113 15.24,2.145 15.146,2.168 14.824,2.245 14.518,2.415 14.183,2.436 13.666,2.47 13.187,2.237 12.92,1.693 12.891,1.622 12.848,1.527 12.819,1.456 c -0.032,-0.119 0.03,-0.199 0.092,-0.108 0.071,0.107 0.16,0.212 0.272,0.28 0.264,0.16 0.546,0.221 0.833,0.194 C 14.275,1.797 14.765,1.614 14.764,1.589 14.76,1.532 13.626,0.971 13.448,0.859 13.371,0.81 13.276,0.722 13.293,0.633 13.307,0.564 13.416,0.55 13.508,0.582 c 0.446,0.162 0.606,0.151 0.967,0.305 0.486,0.208 0.63,0.467 0.716,0.493 M 9.284,-5.43 C 9.215,-5.575 9.126,-5.824 9.073,-5.97 9.056,-6.022 9.096,-6.085 9.16,-6.047 c 0.36,0.221 0.899,0.493 1.47,0.695 0.519,0.184 0.928,0.303 1.305,0.324 0.058,0.009 0.366,0.551 0.413,0.629 0.064,0.102 0.017,0.135 -0.063,0.119 -0.438,-0.084 -0.778,-0.162 -1.307,-0.113 -0.655,0.058 -1.165,0.557 -1.148,0.754 0.015,0.15 0.479,0.446 0.651,0.42 0.501,-0.079 0.493,-0.52 0.627,-0.525 0.162,-0.006 0.49,0.572 0.51,0.73 0.021,0.172 -0.322,0.581 -0.649,0.6 C 10.431,-2.381 9.519,-3.293 9.161,-3.855 9.03,-4.061 9.043,-4.378 9.229,-4.538 9.396,-4.68 9.669,-4.829 9.979,-5.017 9.828,-5.07 9.431,-5.302 9.284,-5.43 m 18.461,2.793 c -0.09,0.85 -0.449,3.473 -0.483,4.147 -0.014,0.369 -0.06,0.687 -0.219,0.402 -0.168,-0.305 -0.262,-0.697 -0.208,-1.234 0.073,-0.926 0.16,-1.621 0.244,-2.286 0.083,-0.671 0.382,-2.673 0.352,-4.091 -0.006,-0.332 0.12,-0.418 0.222,-0.18 0.175,0.402 0.269,1.553 0.092,3.242 m -4.304,-4.394 c -0.117,0.115 -0.217,0.244 -0.314,0.371 l -0.069,0.006 -0.637,-0.641 -0.018,-0.117 c 0.089,-0.125 0.188,-0.242 0.299,-0.353 0.12,-0.123 0.25,-0.229 0.385,-0.323 l 0.125,0.01 0.638,0.639 -0.006,0.078 c -0.146,0.096 -0.28,0.203 -0.403,0.33 m 2.969,3.1 c -0.435,0.027 -2.446,0.064 -3.624,0.715 0.116,0.099 0.372,0.427 0.279,1.252 -0.088,0.824 -0.419,3.179 -0.419,3.179 -0.026,0.246 -0.126,0.483 0.015,0.608 0.14,0.127 0.435,0.341 0.265,0.574 -0.17,0.232 -0.462,0.674 -0.547,0.924 -0.071,0.211 -0.134,0.386 -0.24,0.22 C 22.014,3.35 21.97,3.106 21.801,2.885 21.713,2.768 21.621,2.711 21.722,2.536 21.857,2.297 21.994,1.862 22.02,1.563 c 0.011,-0.156 0.057,-0.494 0.101,-0.817 0,0 0.576,-2.976 0.53,-3.459 0,0 -2.382,-0.084 -2.692,-0.384 l -0.478,-0.742 c -0.04,-0.083 -0.036,-0.172 0.078,-0.155 0.113,0.02 1.578,0.488 3.634,-0.336 -0.242,-0.084 -2.959,-1.246 -5.253,-0.986 -0.343,0.01 -2.754,0.326 -2.954,1.549 -0.027,0.154 -0.067,0.211 -0.149,0.054 -0.073,-0.138 -0.742,-1.136 0.309,-1.853 -0.333,-0.703 -0.927,-1.656 -1.833,-2.029 -0.297,-0.112 -1.622,-0.452 -2.959,0.148 -0.165,0.053 -0.407,-0.08 -0.158,-0.25 0.251,-0.172 2.696,-1.734 4.283,-0.09 0.28,0.287 0.757,1.057 1.12,1.979 1.626,-0.885 4.33,-0.399 4.33,-0.399 0.588,0.125 1.204,0.299 1.842,0.545 0.334,0.137 2.635,1.178 4.194,0.815 0.326,-0.08 0.4,-0.08 0.4,-0.08 0,0 0.281,0.597 0.344,0.742 0.062,0.144 0.136,0.226 -0.299,0.254 m -11.549,2.896 c 0.125,-0.125 0.258,-0.234 0.404,-0.332 l 0.006,-0.078 -0.637,-0.637 -0.126,-0.009 c -0.135,0.091 -0.264,0.201 -0.386,0.32 -0.11,0.113 -0.21,0.23 -0.298,0.355 l 0.017,0.118 0.638,0.64 0.07,-0.006 c 0.096,-0.127 0.196,-0.256 0.312,-0.371"
         style="fill:#231f20;fill-opacity:1;fill-rule:nonzero;stroke:none"
         transform="matrix(1.3333333,0,0,-1.3333333,437.21093,46.380933)"
         clip-path="url(#clipPath30)"
         id="path31" />
    </g>
  </g>
</svg>
