<?xml version="1.0" encoding="UTF-8" standalone="no"?>
<!-- Created with Inkscape (http://www.inkscape.org/) -->

<svg
   width="16.371376mm"
   height="6.9099998mm"
   viewBox="0 0 16.371375 6.9099997"
   version="1.1"
   id="svg1"
   xml:space="preserve"
   xmlns="http://www.w3.org/2000/svg"
   xmlns:svg="http://www.w3.org/2000/svg"><defs
     id="defs1" /><g
     id="layer1"
     transform="translate(-264.15238,-4.2846228)"><g
       id="g37"
       transform="translate(151.02565,-75.839504)"><path
         d="m 117.11422,82.337279 c 0.0279,0.111477 0.0688,0.515408 -0.1143,0.850194 -0.1143,0.14605 -0.15839,0.198614 -0.2988,0.165453 -0.11924,-0.02822 -0.28963,-0.09772 -0.37465,-0.179917 -0.24588,0.233539 -0.59337,0.230011 -0.84384,0.174978 -0.11889,0.07655 -0.27094,0.128411 -0.46779,0.128411 -0.12453,0 -0.40851,-0.04233 -0.67486,-0.357717 l -0.0995,0.06068 c -0.28928,0.187325 -0.61666,0.496006 -0.75495,1.11125 -0.14358,0.771878 0.0868,1.260122 0.69427,1.440039 0.60642,0.180622 1.97414,-0.03034 2.20027,-0.0508 0.22684,-0.02081 0.14923,0.09207 0.0363,0.144639 -0.11324,0.0508 -0.9719,0.297039 -1.23437,0.348544 -1.10067,0.221192 -1.84009,-0.241653 -1.90712,-1.254125 -0.0621,-0.930628 0.42157,-1.568097 0.60114,-1.80975 0.0589,-0.07938 0.115,-0.138641 0.16757,-0.187678 -0.19403,-0.201788 -0.37395,-0.06879 -0.41558,-0.02469 -0.0441,0.04833 -0.0755,0.0187 -0.0572,-0.05997 0.1076,-0.395464 0.28258,-0.513292 0.59937,-0.563033 0.31715,-0.04868 0.5588,0.100541 0.60325,0.136525 0.14711,0.106186 0.0522,0.305152 -0.0183,0.440972 -0.0187,0.03775 -0.0649,0.07232 -0.127,0.109008 0.18556,0.127353 0.86042,0.41275 1.20156,-0.299155 0.031,-0.06562 0.0833,-0.07444 0.0614,0.02187 -0.01,0.04163 -0.0384,0.195086 -0.127,0.3556 0.57256,0.14605 0.68122,-0.2921 0.73167,-0.433211 0.0526,-0.148873 0.11253,-0.06209 0.0998,0.0095 -0.018,0.102658 -0.0444,0.192264 -0.0765,0.270227 0.12559,0.05786 0.42827,0.134409 0.42615,0.0956 -0.003,-0.04198 -0.0208,-0.370064 0.009,-0.44838 0.0296,-0.07938 0.0695,-0.194381 0.0953,-0.240595 0.0261,-0.04551 0.0363,-0.06738 0.0645,0.04551 m 3.85516,1.802341 c 0.03,0.222603 -0.10089,0.599017 -0.15663,0.722842 -0.055,0.123472 -0.27517,0.05398 -0.39617,0.02893 -0.0748,-0.01517 -0.18909,-0.08114 -0.26494,-0.130175 -0.0695,0.07444 -0.16087,0.143227 -0.28152,0.195086 -0.20143,0.0695 -1.35537,0.440266 -1.87501,0.0095 -0.11571,-0.08326 -0.31891,-0.232834 -0.32949,-0.792339 -0.004,-0.227895 -0.11607,-1.482725 -0.23178,-2.157942 -0.0183,-0.107597 0.0505,-0.203905 0.0642,-0.24518 0.0459,-0.137231 0.0734,-0.0381 0.10371,0.04269 0.1524,0.352072 0.23213,2.206977 0.24025,2.330097 0.013,0.197908 0.1143,0.500944 0.50729,0.619478 0.39335,0.119239 1.03223,0.05503 1.57127,-0.172156 0.16651,-0.07444 0.3175,-0.198614 0.36266,-0.262467 0.0455,-0.0642 0.091,-0.06985 0.0758,0.02469 -0.006,0.03634 -0.0236,0.112183 -0.0656,0.200378 0.0691,0.02152 0.32526,0.09243 0.44168,0.0635 0.0977,-0.02469 0.0878,-0.160514 0.0727,-0.248709 -0.0152,-0.08961 -0.31785,-1.801283 -0.34749,-1.9431 -0.0243,-0.117827 -0.0236,-0.215547 -0.0325,-0.271991 -0.009,-0.05468 -0.0462,-0.108303 -0.0885,-0.189795 -0.0427,-0.08043 -0.008,-0.167922 0.01,-0.196144 0.0176,-0.02611 0.0889,-0.09666 0.1404,-0.205317 0.0247,-0.05327 0.0568,0.0081 0.0698,0.06315 0.012,0.05045 0.11642,0.219428 0.16157,0.275873 0.0314,0.03916 0.0543,0.10795 0.0413,0.136172 -0.0247,0.05398 -0.0991,0.158044 -0.11395,0.1778 -0.0127,0.01658 -0.0229,0.0448 -0.0162,0.109714 0,0 0.30692,1.593144 0.33726,1.815394 m -3.92677,-0.07479 c -0.0169,0.0374 -0.024,0.04692 -0.0533,0.09913 -0.0293,0.05398 -0.0649,0.06385 -0.12665,0.0956 -0.061,0.0314 -1.19521,0.501297 -1.23048,0.516466 -0.11289,0.04904 -0.0938,0.01341 -0.0794,-0.02223 0.004,-0.01094 0.0127,-0.0381 0.0296,-0.09102 0.0169,-0.05256 0.0402,-0.06632 0.11748,-0.09843 0.0773,-0.03175 1.1945,-0.496359 1.26753,-0.531989 0.11254,-0.05256 0.0924,-0.0071 0.0751,0.03245 m 1.22414,-2.029177 c 0.004,-0.01094 0.012,-0.03845 0.0282,-0.09137 0.0159,-0.05292 0.0395,-0.06738 0.11536,-0.100189 0.0769,-0.03316 1.40441,-0.584553 1.47708,-0.61983 0.11218,-0.05609 0.0931,-0.0095 0.0759,0.03034 -0.0159,0.03775 -0.0229,0.04727 -0.0508,0.100188 -0.0286,0.05398 -0.0649,0.06456 -0.12524,0.09737 -0.061,0.03246 -1.40582,0.588433 -1.44074,0.604308 -0.11148,0.05115 -0.0931,0.01482 -0.0797,-0.02081 m 3.41242,1.686983 c 0.096,0.65405 0.0854,1.103489 0.0318,1.264355 -0.031,0.09384 -0.0769,0.06244 -0.0815,-0.06668 -0.0176,-0.55245 -0.16193,-1.326091 -0.20426,-1.585736 -0.0434,-0.257528 -0.0878,-0.526344 -0.13194,-0.885472 -0.0293,-0.208844 -0.004,-0.363361 0.049,-0.484717 0.0501,-0.1143 0.0723,0.0092 0.085,0.152048 0.025,0.261761 0.20425,1.27635 0.25188,1.606197 m -2.39007,0.161572 0.0459,-0.0088 0.19615,-0.241653 0.078,0.07126 c 0.0494,0.03916 0.0995,0.07303 0.1531,0.101953 l 0.0452,-0.0081 0.20779,-0.257175 -0.007,-0.02752 c -0.0543,-0.02999 -0.1076,-0.06421 -0.15769,-0.105128 -0.0469,-0.03739 -0.0875,-0.08079 -0.12736,-0.123119 l -0.0261,0.0014 -0.20849,0.256469 -0.008,0.01411 -0.10302,-0.07232 c -0.0469,-0.03704 -0.0875,-0.08008 -0.127,-0.122414 l -0.0268,7.06e-4 -0.20708,0.256822 -0.003,0.04374 c 0.0381,0.04233 0.078,0.08184 0.12383,0.117828 0.0473,0.03951 0.0984,0.07373 0.15169,0.101953 m -5.37139,-2.820811 c -0.0512,-0.0321 -0.0504,-0.0695 -0.0275,-0.105833 0.0773,-0.118886 0.13335,-0.115359 0.1845,-0.06033 0.0822,0.105833 0.0632,0.280811 0.0547,0.313266 0,0 -0.15981,-0.115358 -0.21166,-0.147108 m 0.20531,0.391936 c 0.11042,0.05186 0.15699,0.168981 0.17216,0.125942 0.0416,-0.122414 0.0557,-0.191206 0.0243,-0.22472 -0.0229,-0.02434 -0.10301,-0.08431 -0.10301,-0.08431 0.0289,-0.06809 0.0889,-0.309738 -0.0102,-0.503061 -0.0247,-0.04127 -0.12277,-0.194027 -0.32809,0.03704 -0.0804,0.0889 -0.18344,0.314678 -0.10195,0.396522 0.0819,0.08114 0.25929,0.196145 0.25929,0.196145 -0.0928,0.160161 -0.31785,0.30233 -0.61101,0.511175 -0.1912,0.136877 -0.11924,0.183444 -0.0363,0.143933 0.55386,-0.262114 0.6484,-0.416278 0.73483,-0.598664 m 5.50122,0.903111 c 0.0201,0.05115 0.0367,0.109009 0.0346,0.142875 -0.0797,0.07691 -0.16545,0.08996 -0.22825,0.03845 -0.0395,-0.03316 -0.0547,-0.0949 -0.0504,-0.176036 0.002,-0.05821 0.009,-0.08008 -0.042,-0.03881 -0.0667,0.05397 -0.0483,0.04868 -0.0526,0.07902 -0.0233,0.191205 -0.10548,0.277283 -0.25294,0.287161 -0.0924,0.0064 -0.16051,-0.05856 -0.096,-0.241653 0.0138,-0.03916 -0.0138,-0.08043 -0.0547,0 -0.13828,0.276225 -0.0543,0.430036 0.0871,0.45085 0.11465,0.01693 0.25224,-0.04868 0.32173,-0.222956 0.0533,0.0882 0.16158,0.1143 0.2593,0.0882 0.12523,-0.03175 0.1524,-0.08996 0.18767,-0.191559 0.0349,-0.09772 0.036,-0.227541 -0.0109,-0.382411 -0.008,-0.02611 -0.0215,-0.01199 -0.0275,7.06e-4 l -0.067,0.127 c -0.008,0.01376 -0.0138,0.02399 -0.008,0.03916 m 6.54261,0.02399 c -0.0561,-0.03528 -0.0554,-0.07585 -0.03,-0.115005 0.084,-0.129823 0.14499,-0.126295 0.20073,-0.06597 0.0896,0.115006 0.0695,0.305506 0.0596,0.340783 0,0 -0.17392,-0.125236 -0.23037,-0.159808 m 0.22367,0.427214 c 0.12029,0.05609 0.17109,0.183444 0.18732,0.136878 0.0455,-0.13335 0.061,-0.208139 0.0265,-0.245181 -0.0251,-0.0261 -0.11183,-0.09137 -0.11183,-0.09137 0.0318,-0.07444 0.097,-0.337961 -0.0113,-0.547864 -0.0265,-0.04516 -0.13335,-0.211667 -0.35736,0.04022 -0.0875,0.09631 -0.19968,0.342547 -0.11113,0.4318 0.0885,0.08855 0.28258,0.213783 0.28258,0.213783 -0.1016,0.174272 -0.34643,0.329494 -0.6657,0.556683 -0.20813,0.148872 -0.12982,0.200025 -0.0399,0.156986 0.60325,-0.28575 0.70661,-0.453672 0.80081,-0.651933 m -3.46005,-0.432858 c -0.0561,-0.03492 -0.0554,-0.07585 -0.03,-0.115006 0.0843,-0.129822 0.14499,-0.125942 0.20073,-0.06562 0.0899,0.115006 0.0695,0.305506 0.06,0.340431 0,0 -0.17427,-0.125236 -0.23072,-0.159808 m 0.22366,0.427214 c 0.1203,0.05609 0.1711,0.183797 0.18733,0.136877 0.0455,-0.13335 0.061,-0.208139 0.0272,-0.244827 -0.0258,-0.02646 -0.11253,-0.09137 -0.11253,-0.09137 0.0318,-0.07479 0.0974,-0.337961 -0.0113,-0.548217 -0.0265,-0.04515 -0.13335,-0.211666 -0.35737,0.04022 -0.0875,0.09666 -0.19967,0.342547 -0.11112,0.4318 0.0885,0.08855 0.28293,0.213783 0.28293,0.213783 -0.10196,0.174625 -0.34679,0.329495 -0.66605,0.557036 -0.20814,0.14852 -0.13017,0.199673 -0.0395,0.156634 0.60325,-0.28575 0.70626,-0.45332 0.80045,-0.651933 m 1.61149,-0.468842 c 0.0127,-0.0035 0.0275,-0.0021 0.043,-0.01623 0.0487,-0.04621 0.09,-0.16898 0.0949,-0.210608 -0.006,-0.0321 -0.12065,-0.04339 -0.15311,-0.05115 -0.1143,-0.02752 -0.22225,-0.08749 -0.34043,-0.0949 -0.18238,-0.01164 -0.35137,0.0702 -0.44556,0.262466 -0.0102,0.02469 -0.0254,0.05821 -0.0356,0.08326 -0.0113,0.04233 0.0106,0.07056 0.0325,0.0381 0.025,-0.03775 0.0564,-0.07479 0.0959,-0.09842 0.0931,-0.0568 0.19262,-0.07832 0.29387,-0.06879 0.0914,0.0092 0.26423,0.07338 0.26388,0.08255 -0.001,0.02011 -0.40147,0.218017 -0.46426,0.257175 -0.0272,0.01729 -0.0607,0.04868 -0.0547,0.08008 0.005,0.02434 0.0434,0.02928 0.0759,0.01764 0.15734,-0.05715 0.21378,-0.05292 0.34113,-0.107245 0.17145,-0.07373 0.22261,-0.1651 0.25259,-0.173919 m -2.08421,2.402416 c -0.024,0.05115 -0.0554,0.138995 -0.0741,0.190148 -0.006,0.01834 0.008,0.04057 0.0303,0.02752 0.12735,-0.07796 0.3175,-0.173919 0.51893,-0.245533 0.18309,-0.06456 0.32738,-0.106892 0.46038,-0.1143 0.0201,-0.0032 0.12911,-0.194381 0.14569,-0.221897 0.0226,-0.03598 0.006,-0.04727 -0.0226,-0.04198 -0.15417,0.02963 -0.27411,0.05715 -0.46073,0.03986 -0.23107,-0.02046 -0.41099,-0.196497 -0.40499,-0.265642 0.005,-0.05292 0.16898,-0.157691 0.22966,-0.148166 0.17674,0.02752 0.17392,0.183091 0.22119,0.184855 0.0572,0.0021 0.17286,-0.201789 0.17956,-0.257527 0.008,-0.06033 -0.11324,-0.204964 -0.2286,-0.211667 -0.18979,-0.01164 -0.51152,0.310444 -0.63817,0.508353 -0.0459,0.07267 -0.0413,0.184502 0.025,0.2413 0.0586,0.04974 0.15451,0.102658 0.26387,0.168627 -0.0536,0.01905 -0.19332,0.100542 -0.24553,0.14605 m 6.51298,-0.985661 c -0.0317,-0.299508 -0.15839,-1.224844 -0.17039,-1.462616 -0.005,-0.130175 -0.0215,-0.242711 -0.0773,-0.14217 -0.0593,0.107598 -0.0924,0.246239 -0.0734,0.435681 0.0257,0.326672 0.0564,0.571853 0.0861,0.806097 0.0293,0.237067 0.13476,0.943328 0.12418,1.443567 -0.002,0.117122 0.0423,0.147461 0.0783,0.06315 0.0617,-0.141817 0.0949,-0.547511 0.0324,-1.143706 m -1.51835,1.550106 c -0.0413,-0.04057 -0.0765,-0.08608 -0.11077,-0.130881 l -0.0243,-0.0021 -0.22472,0.22613 -0.006,0.04127 c 0.031,0.0441 0.0663,0.08537 0.10513,0.124884 0.0427,0.04339 0.0885,0.08043 0.13617,0.113594 l 0.0441,-0.0035 0.22507,-0.225072 -0.002,-0.02787 c -0.0515,-0.03351 -0.0988,-0.07161 -0.14217,-0.116417 m 1.04704,-1.093258 c -0.1531,-0.0099 -0.86254,-0.02293 -1.27846,-0.252237 0.0413,-0.03528 0.13123,-0.150988 0.0988,-0.441677 -0.031,-0.290689 -0.1471,-1.121834 -0.1471,-1.121834 -0.01,-0.08678 -0.0452,-0.170038 0.004,-0.214136 0.0497,-0.0448 0.15381,-0.12065 0.0938,-0.202494 -0.06,-0.0822 -0.16299,-0.237772 -0.19297,-0.325967 -0.025,-0.07444 -0.0473,-0.136525 -0.0847,-0.07796 -0.0441,0.06738 -0.0596,0.153811 -0.11924,0.231423 -0.031,0.04128 -0.0635,0.06138 -0.0279,0.123472 0.0476,0.08396 0.0956,0.237772 0.10513,0.343253 0.004,0.05503 0.0198,0.174272 0.0356,0.287866 0,0 0.2032,1.05022 0.18697,1.220258 0,0 -0.84031,0.02963 -0.94967,0.13582 l -0.16863,0.261761 c -0.0141,0.02893 -0.0127,0.06068 0.0275,0.05433 0.0399,-0.0067 0.55669,-0.172156 1.282,0.118533 -0.0857,0.02963 -1.04387,0.439561 -1.85314,0.347839 -0.12101,-0.0032 -0.97155,-0.115006 -1.04211,-0.5461 -0.01,-0.05468 -0.0236,-0.07444 -0.0526,-0.0194 -0.0258,0.04904 -0.26176,0.401109 0.10936,0.653697 -0.11748,0.248356 -0.32738,0.584553 -0.64664,0.716139 -0.10513,0.03916 -0.57256,0.159103 -1.04352,-0.05256 -0.0589,-0.01834 -0.14429,0.02822 -0.0564,0.0882 0.0885,0.06068 0.95109,0.612069 1.51094,0.03175 0.0988,-0.101247 0.26706,-0.372533 0.39511,-0.697795 0.57362,0.311856 1.52753,0.140406 1.52753,0.140406 0.20744,-0.0441 0.42475,-0.105481 0.65017,-0.192264 0.11783,-0.04833 0.92922,-0.415572 1.4792,-0.287161 0.115,0.02822 0.14111,0.02822 0.14111,0.02822 0,0 0.0995,-0.210961 0.12136,-0.261761 0.0226,-0.05115 0.048,-0.08008 -0.10584,-0.08961 m -4.07388,-1.021998 c 0.0441,0.0441 0.091,0.0829 0.14253,0.117123 l 0.002,0.02752 -0.22508,0.22472 -0.0444,0.0035 c -0.0476,-0.03246 -0.0931,-0.07091 -0.13617,-0.112888 -0.0388,-0.04022 -0.0741,-0.08149 -0.10513,-0.125589 l 0.006,-0.04128 0.22507,-0.226131 0.0247,0.0021 c 0.0339,0.0448 0.0691,0.09031 0.11006,0.13088"
         style="fill:#231f20;fill-opacity:1;fill-rule:nonzero;stroke:none;stroke-width:0.352778"
         clip-path="url(#clipPath1)"
         id="path31-5" /></g></g></svg>
