<?xml version="1.0" encoding="UTF-8" standalone="no"?>
<!-- Created with Inkscape (http://www.inkscape.org/) -->

<svg
   version="1.1"
   id="svg1"
   width="60.314667"
   height="20.959999"
   viewBox="0 0 60.314666 20.959999"
   xmlns="http://www.w3.org/2000/svg"
   xmlns:svg="http://www.w3.org/2000/svg">
  <defs
     id="defs1">
    <clipPath
       clipPathUnits="userSpaceOnUse"
       id="clipPath30">
      <path
         d="m 310.512,518.366 h 45.236 v -15.72 h -45.236 z"
         transform="translate(-321.41021,-513.67241)"
         id="path30" />
    </clipPath>
    <clipPath
       clipPathUnits="userSpaceOnUse"
       id="clipPath32">
      <path
         d="M 0,547.086 H 382.677 V 0 H 0 Z"
         transform="matrix(1.3333333,0,0,-1.3333333,0,729.448)"
         id="path32" />
    </clipPath>
  </defs>
  <g
     id="layer-MC1"
     transform="translate(-414.01599,-38.293346)">
    <g
       id="g31"
       clip-path="url(#clipPath32)">
      <path
         d="m 0,0 c 0.079,-0.316 0.195,-1.461 -0.324,-2.41 -0.324,-0.414 -0.449,-0.563 -0.847,-0.469 -0.338,0.08 -0.821,0.277 -1.062,0.51 -0.697,-0.662 -1.682,-0.652 -2.392,-0.496 -0.337,-0.217 -0.768,-0.364 -1.326,-0.364 -0.353,0 -1.158,0.12 -1.913,1.014 l -0.282,-0.172 c -0.82,-0.531 -1.748,-1.406 -2.14,-3.15 -0.407,-2.188 0.246,-3.572 1.968,-4.082 1.719,-0.512 5.596,0.086 6.237,0.144 0.643,0.059 0.423,-0.261 0.103,-0.41 -0.321,-0.144 -2.755,-0.842 -3.499,-0.988 -3.12,-0.627 -5.216,0.685 -5.406,3.555 -0.176,2.638 1.195,4.445 1.704,5.13 0.167,0.225 0.326,0.393 0.475,0.532 -0.55,0.572 -1.06,0.195 -1.178,0.07 -0.125,-0.137 -0.214,-0.053 -0.162,0.17 0.305,1.121 0.801,1.455 1.699,1.596 0.899,0.138 1.584,-0.285 1.71,-0.387 0.417,-0.301 0.148,-0.865 -0.052,-1.25 -0.053,-0.107 -0.184,-0.205 -0.36,-0.309 0.526,-0.361 2.439,-1.17 3.406,0.848 0.088,0.186 0.236,0.211 0.174,-0.062 -0.027,-0.118 -0.109,-0.553 -0.36,-1.008 1.623,-0.414 1.931,0.828 2.074,1.228 0.149,0.422 0.319,0.176 0.283,-0.027 -0.051,-0.291 -0.126,-0.545 -0.217,-0.766 0.356,-0.164 1.214,-0.381 1.208,-0.271 -0.008,0.119 -0.059,1.049 0.026,1.271 0.084,0.225 0.197,0.551 0.27,0.682 C -0.109,0.258 -0.08,0.32 0,0 M 10.928,-5.109 C 11.013,-5.74 10.642,-6.807 10.484,-7.158 10.328,-7.508 9.704,-7.311 9.361,-7.24 9.149,-7.197 8.825,-7.01 8.61,-6.871 8.413,-7.082 8.154,-7.277 7.812,-7.424 7.241,-7.621 3.97,-8.672 2.497,-7.451 2.169,-7.215 1.593,-6.791 1.563,-5.205 1.553,-4.559 1.234,-1.002 0.906,0.912 0.854,1.217 1.049,1.49 1.088,1.607 1.218,1.996 1.296,1.715 1.382,1.486 1.814,0.488 2.04,-4.77 2.063,-5.119 2.1,-5.68 2.387,-6.539 3.501,-6.875 c 1.115,-0.338 2.926,-0.156 4.454,0.488 0.472,0.211 0.9,0.563 1.028,0.744 0.129,0.182 0.258,0.198 0.215,-0.07 -0.016,-0.103 -0.067,-0.318 -0.186,-0.568 0.196,-0.061 0.922,-0.262 1.252,-0.18 0.277,0.07 0.249,0.455 0.206,0.705 C 10.427,-5.502 9.569,-0.65 9.485,-0.248 9.416,0.086 9.418,0.363 9.393,0.523 9.368,0.678 9.262,0.83 9.142,1.061 9.021,1.289 9.12,1.537 9.17,1.617 9.22,1.691 9.422,1.891 9.568,2.199 9.638,2.35 9.729,2.176 9.766,2.02 9.8,1.877 10.096,1.398 10.224,1.238 10.313,1.127 10.378,0.932 10.341,0.852 10.271,0.699 10.06,0.404 10.018,0.348 9.982,0.301 9.953,0.221 9.972,0.037 c 0,0 0.87,-4.516 0.956,-5.146 m -11.131,0.212 c -0.048,-0.106 -0.068,-0.133 -0.151,-0.281 -0.083,-0.153 -0.184,-0.181 -0.359,-0.271 -0.173,-0.089 -3.388,-1.421 -3.488,-1.464 -0.32,-0.139 -0.266,-0.038 -0.225,0.063 0.012,0.031 0.036,0.108 0.084,0.258 0.048,0.149 0.114,0.188 0.333,0.279 0.219,0.09 3.386,1.407 3.593,1.508 0.319,0.149 0.262,0.02 0.213,-0.092 m 3.47,5.752 C 3.278,0.886 3.301,0.964 3.347,1.114 3.392,1.264 3.459,1.305 3.674,1.398 3.892,1.492 7.655,3.055 7.861,3.155 8.179,3.314 8.125,3.182 8.076,3.069 8.031,2.962 8.011,2.935 7.932,2.785 7.851,2.632 7.748,2.602 7.577,2.509 7.404,2.417 3.592,0.841 3.493,0.796 3.177,0.651 3.229,0.754 3.267,0.855 m 9.673,-4.782 c 0.272,-1.854 0.242,-3.128 0.09,-3.584 -0.088,-0.266 -0.218,-0.177 -0.231,0.189 -0.05,1.566 -0.459,3.759 -0.579,4.495 -0.123,0.73 -0.249,1.492 -0.374,2.51 -0.083,0.592 -0.012,1.03 0.139,1.374 0.142,0.324 0.205,-0.026 0.241,-0.431 0.071,-0.742 0.579,-3.618 0.714,-4.553 m -6.775,-0.458 0.13,0.025 0.556,0.685 0.221,-0.202 c 0.14,-0.111 0.282,-0.207 0.434,-0.289 l 0.128,0.023 0.589,0.729 -0.021,0.078 C 8.048,-3.251 7.897,-3.154 7.755,-3.038 7.622,-2.932 7.507,-2.809 7.394,-2.689 L 7.32,-2.693 6.729,-3.42 6.707,-3.46 6.415,-3.255 C 6.282,-3.15 6.167,-3.028 6.055,-2.908 L 5.979,-2.91 5.392,-3.638 5.384,-3.762 c 0.108,-0.12 0.221,-0.232 0.351,-0.334 0.134,-0.112 0.279,-0.209 0.43,-0.289 M -9.061,3.611 c -0.145,0.091 -0.143,0.197 -0.078,0.3 0.219,0.337 0.378,0.327 0.523,0.171 0.233,-0.3 0.179,-0.796 0.155,-0.888 0,0 -0.453,0.327 -0.6,0.417 M -8.479,2.5 c 0.313,-0.147 0.445,-0.479 0.488,-0.357 0.118,0.347 0.158,0.542 0.069,0.637 -0.065,0.069 -0.292,0.239 -0.292,0.239 0.082,0.193 0.252,0.878 -0.029,1.426 -0.07,0.117 -0.348,0.55 -0.93,-0.105 C -9.401,4.088 -9.693,3.448 -9.462,3.216 -9.23,2.986 -8.727,2.66 -8.727,2.66 -8.99,2.206 -9.628,1.803 -10.459,1.211 c -0.542,-0.388 -0.338,-0.52 -0.103,-0.408 1.57,0.743 1.838,1.18 2.083,1.697 M 7.115,-0.06 C 7.172,-0.205 7.219,-0.369 7.213,-0.465 6.987,-0.683 6.744,-0.72 6.566,-0.574 6.454,-0.48 6.411,-0.305 6.423,-0.075 6.43,0.09 6.449,0.152 6.304,0.035 6.115,-0.118 6.167,-0.103 6.155,-0.189 6.089,-0.731 5.856,-0.975 5.438,-1.003 5.176,-1.021 4.983,-0.837 5.166,-0.318 c 0.039,0.111 -0.039,0.228 -0.155,0 -0.392,-0.783 -0.154,-1.219 0.247,-1.278 0.325,-0.048 0.715,0.138 0.912,0.632 0.151,-0.25 0.458,-0.324 0.735,-0.25 0.355,0.09 0.432,0.255 0.532,0.543 0.099,0.277 0.102,0.645 -0.031,1.084 C 7.384,0.487 7.345,0.447 7.328,0.411 L 7.138,0.051 C 7.116,0.012 7.099,-0.017 7.115,-0.06 m 18.546,-0.068 c -0.159,0.1 -0.157,0.215 -0.085,0.326 0.238,0.368 0.411,0.358 0.569,0.187 0.254,-0.326 0.197,-0.866 0.169,-0.966 0,0 -0.493,0.355 -0.653,0.453 m 0.634,-1.211 c 0.341,-0.159 0.485,-0.52 0.531,-0.388 0.129,0.378 0.173,0.59 0.075,0.695 -0.071,0.074 -0.317,0.259 -0.317,0.259 0.09,0.211 0.275,0.958 -0.032,1.553 -0.075,0.128 -0.378,0.6 -1.013,-0.114 -0.248,-0.273 -0.566,-0.971 -0.315,-1.224 0.251,-0.251 0.801,-0.606 0.801,-0.606 -0.288,-0.494 -0.982,-0.934 -1.887,-1.578 -0.59,-0.422 -0.368,-0.567 -0.113,-0.445 1.71,0.81 2.003,1.286 2.27,1.848 m -9.808,1.227 c -0.159,0.099 -0.157,0.215 -0.085,0.326 0.239,0.368 0.411,0.357 0.569,0.186 0.255,-0.326 0.197,-0.866 0.17,-0.965 0,0 -0.494,0.355 -0.654,0.453 m 0.634,-1.211 c 0.341,-0.159 0.485,-0.521 0.531,-0.388 0.129,0.378 0.173,0.59 0.077,0.694 -0.073,0.075 -0.319,0.259 -0.319,0.259 C 17.5,-0.546 17.686,0.2 17.378,0.796 17.303,0.924 17,1.396 16.365,0.682 16.117,0.408 15.799,-0.289 16.05,-0.542 c 0.251,-0.251 0.802,-0.606 0.802,-0.606 -0.289,-0.495 -0.983,-0.934 -1.888,-1.579 -0.59,-0.421 -0.369,-0.566 -0.112,-0.444 1.71,0.81 2.002,1.285 2.269,1.848 m 4.568,1.329 c 0.036,0.01 0.078,0.006 0.122,0.046 0.138,0.131 0.255,0.479 0.269,0.597 -0.016,0.091 -0.342,0.123 -0.434,0.145 -0.324,0.078 -0.63,0.248 -0.965,0.269 -0.517,0.033 -0.996,-0.199 -1.263,-0.744 -0.029,-0.07 -0.072,-0.165 -0.101,-0.236 -0.032,-0.12 0.03,-0.2 0.092,-0.108 0.071,0.107 0.16,0.212 0.272,0.279 0.264,0.161 0.546,0.222 0.833,0.195 0.259,-0.026 0.749,-0.208 0.748,-0.234 -0.004,-0.057 -1.138,-0.618 -1.316,-0.729 -0.077,-0.049 -0.172,-0.138 -0.155,-0.227 0.014,-0.069 0.123,-0.083 0.215,-0.05 0.446,0.162 0.606,0.15 0.967,0.304 0.486,0.209 0.631,0.468 0.716,0.493 m -5.908,-6.81 c -0.068,-0.145 -0.157,-0.394 -0.21,-0.539 -0.017,-0.052 0.023,-0.115 0.086,-0.078 0.361,0.221 0.9,0.493 1.471,0.696 0.519,0.183 0.928,0.303 1.305,0.324 0.057,0.009 0.366,0.551 0.413,0.629 0.064,0.102 0.017,0.134 -0.064,0.119 -0.437,-0.084 -0.777,-0.162 -1.306,-0.113 -0.655,0.058 -1.165,0.557 -1.148,0.753 0.015,0.15 0.479,0.447 0.651,0.42 0.501,-0.078 0.493,-0.519 0.627,-0.524 0.162,-0.006 0.49,0.572 0.509,0.73 0.022,0.171 -0.321,0.581 -0.648,0.6 -0.538,0.033 -1.45,-0.88 -1.809,-1.441 -0.13,-0.206 -0.117,-0.523 0.071,-0.684 0.166,-0.141 0.438,-0.291 0.748,-0.478 -0.152,-0.054 -0.548,-0.285 -0.696,-0.414 m 18.462,2.794 c -0.09,0.849 -0.449,3.472 -0.483,4.146 -0.014,0.369 -0.061,0.688 -0.219,0.403 -0.168,-0.305 -0.262,-0.698 -0.208,-1.235 0.073,-0.926 0.16,-1.621 0.244,-2.285 0.083,-0.672 0.382,-2.674 0.352,-4.092 -0.006,-0.332 0.12,-0.418 0.222,-0.179 0.175,0.402 0.269,1.552 0.092,3.242 m -4.304,-4.394 c -0.117,0.115 -0.217,0.244 -0.314,0.371 l -0.069,0.006 -0.637,-0.641 -0.018,-0.117 c 0.088,-0.125 0.188,-0.242 0.298,-0.354 0.121,-0.123 0.251,-0.228 0.386,-0.322 l 0.125,0.01 0.638,0.638 -0.006,0.079 c -0.146,0.095 -0.28,0.203 -0.403,0.33 m 2.968,3.099 c -0.434,0.028 -2.445,0.065 -3.624,0.715 0.117,0.1 0.372,0.428 0.28,1.252 -0.088,0.824 -0.417,3.18 -0.417,3.18 -0.028,0.246 -0.128,0.482 0.012,0.607 0.141,0.127 0.436,0.342 0.266,0.574 -0.17,0.233 -0.462,0.674 -0.547,0.924 -0.071,0.211 -0.134,0.387 -0.24,0.221 C 28.512,1.977 28.468,1.732 28.299,1.512 28.211,1.395 28.119,1.338 28.22,1.162 c 0.135,-0.238 0.271,-0.674 0.298,-0.973 0.011,-0.156 0.056,-0.494 0.101,-0.816 0,0 0.576,-2.977 0.53,-3.459 0,0 -2.382,-0.084 -2.692,-0.385 l -0.478,-0.742 c -0.04,-0.082 -0.036,-0.172 0.078,-0.154 0.113,0.019 1.578,0.488 3.634,-0.336 -0.243,-0.084 -2.959,-1.246 -5.253,-0.986 -0.343,0.009 -2.754,0.326 -2.954,1.548 -0.027,0.155 -0.067,0.211 -0.149,0.055 -0.073,-0.139 -0.742,-1.137 0.31,-1.853 -0.333,-0.704 -0.928,-1.657 -1.833,-2.03 -0.298,-0.111 -1.623,-0.451 -2.958,0.149 -0.167,0.052 -0.409,-0.08 -0.16,-0.25 0.251,-0.172 2.696,-1.735 4.283,-0.09 0.28,0.287 0.757,1.056 1.12,1.978 1.626,-0.884 4.33,-0.398 4.33,-0.398 0.588,0.125 1.204,0.299 1.843,0.545 0.334,0.137 2.634,1.178 4.193,0.814 0.326,-0.08 0.4,-0.08 0.4,-0.08 0,0 0.282,0.598 0.344,0.742 0.064,0.145 0.136,0.227 -0.3,0.254 m -11.548,2.897 c 0.125,-0.125 0.258,-0.235 0.404,-0.332 l 0.007,-0.078 -0.638,-0.637 -0.126,-0.01 c -0.135,0.092 -0.264,0.201 -0.386,0.32 -0.11,0.114 -0.21,0.231 -0.298,0.356 l 0.017,0.117 0.638,0.641 0.07,-0.006 c 0.096,-0.127 0.196,-0.256 0.312,-0.371"
         style="fill:#231f20;fill-opacity:1;fill-rule:nonzero;stroke:none"
         transform="matrix(1.3333333,0,0,-1.3333333,428.54693,44.551467)"
         clip-path="url(#clipPath30)"
         id="path31" />
    </g>
  </g>
</svg>
