<?xml version="1.0" encoding="UTF-8" standalone="no"?>
<!-- Created with Inkscape (http://www.inkscape.org/) -->

<svg
   width="86.67263mm"
   height="15.48649mm"
   viewBox="0 0 86.67263 15.48649"
   version="1.1"
   id="svg1"
   xmlns="http://www.w3.org/2000/svg"
   xmlns:svg="http://www.w3.org/2000/svg">
  <defs
     id="defs1" />
  <g
     id="layer1"
     transform="translate(-1689.8459)">
    <g
       id="g28"
       transform="translate(1423.0965,-0.42062518)">
      <path
         d="m 352.05477,3.6151441 q 0.0827,0.00517 0.0775,0.1912022 -0.0103,0.1963698 0.005,0.387572 0.0155,0.1860346 0.0414,0.3772368 0.0517,0.4599188 0.12402,0.9508433 0.0724,0.4857569 0.14469,0.9818491 0.0672,0.4909245 0.13436,0.9818491 0.0672,0.4909245 0.11369,0.9560109 0.0207,0.180867 0.0258,0.4237454 0.0103,0.2428785 -0.005,0.4960922 -0.0103,0.2480461 -0.0568,0.4805893 -0.0413,0.2325436 -0.11886,0.3875716 -0.0413,0.08785 -0.0982,0.113688 -0.0465,0.0052 -0.0413,-0.04134 -0.031,-0.4495834 -0.0775,-0.9043345 -0.0413,-0.4599188 -0.10852,-0.9353405 -0.0672,-0.4909245 -0.13436,-0.9715138 -0.0672,-0.4805893 -0.12919,-0.9611786 -0.0672,-0.4805893 -0.13436,-0.9611786 -0.062,-0.4805893 -0.12402,-0.9663462 0.0155,-0.1188554 0.0465,-0.2428784 0.031,-0.1291907 0.0879,-0.263549 0.12402,-0.3358957 0.16536,-0.4082425 0.0465,-0.072347 0.062,-0.072347 z M 349.83786,3.325757 q 0.0155,-0.046509 0.0413,-0.056844 0.0258,-0.010335 0.0413,0.056844 0.0413,0.1240231 0.093,0.2532137 0.0517,0.1291907 0.11886,0.2532137 0.0723,0.1240231 0.16536,0.2325432 0.093,0.1033526 0.21187,0.1756994 -0.0723,0.124023 -0.12919,0.2170403 -0.0517,0.08785 -0.0879,0.165364 -0.0362,0.072347 -0.0517,0.1446936 -0.0155,0.067179 -0.005,0.1446935 0.0568,0.4960922 0.12919,0.997352 0.0775,0.4960922 0.14469,0.9921843 0.0723,0.4960922 0.12403,0.9921844 0.0568,0.4960922 0.0723,0.997352 0.005,0.165364 -0.0207,0.3358957 -0.0258,0.1705317 -0.0827,0.3255605 -0.0568,0.1550288 -0.14469,0.2945547 -0.0827,0.1343583 -0.1912,0.227376 -0.14987,0.12919 -0.37207,0.186034 -0.21704,0.05168 -0.53227,0.05168 h -0.093 q -0.16536,0 -0.24804,-0.124023 -0.0879,-0.12919 -0.0879,-0.2790515 0,-0.1550288 0.0879,-0.2790518 0.0827,-0.1291907 0.24804,-0.1291907 h 0.093 q 0.17053,0 0.33073,-0.010335 0.1602,-0.015503 0.29455,-0.046509 0.13436,-0.036173 0.22738,-0.093017 0.0982,-0.062011 0.13953,-0.1550288 -0.10336,-1.0903692 -0.26872,-2.1497327 -0.16537,-1.0645311 -0.32039,-2.1393975 -0.031,-0.2170403 -0.0672,-0.4237454 -0.031,-0.2118727 -0.14986,-0.4082425 -0.0413,-0.056844 -0.0465,-0.072347 -0.005,-0.02067 0.0258,-0.082682 0.0879,-0.1498612 0.1602,-0.30489 0.0775,-0.1601964 0.14986,-0.2893871 z m -3.37963,5.2503088 q 0.062,-0.1033525 0.12403,-0.098185 0.0672,0.00517 0.0362,0.1240231 -0.0258,0.1085201 -0.0723,0.2273755 -0.0465,0.1136878 -0.10335,0.2480461 0.0362,0.08785 0.1602,0.1756993 0.12919,0.082682 0.28938,0.1446936 0.15503,0.056844 0.31523,0.082682 0.16536,0.025838 0.27388,-0.015503 0.1757,-0.056844 0.28939,-0.3152252 0.11369,-0.263549 0.19637,-0.5529361 0.0413,-0.1550288 0.10852,-0.1808669 0.0672,-0.025838 0.0775,0.1136878 0.0207,0.2583813 0.093,0.4444159 0.0723,0.1860345 0.21704,0.2997223 0.27389,0.2273756 0.89917,0.2273756 h 0.093 q 0.16536,0 0.24804,0.1291907 0.0827,0.1291907 0.0827,0.2790518 0,0.1498617 -0.0827,0.2790517 -0.0827,0.124023 -0.24804,0.124023 h -0.093 q -0.27388,0 -0.47025,-0.03101 -0.19637,-0.03617 -0.38241,-0.113688 -0.43408,-0.1860349 -0.65629,-0.6149479 -0.0362,0.082682 -0.093,0.1963698 -0.0568,0.1136878 -0.13436,0.222208 -0.0724,0.1033531 -0.1602,0.1756991 -0.0879,0.07235 -0.18603,0.07235 -0.12919,0 -0.29973,-0.03101 -0.17053,-0.031 -0.34106,-0.09818 -0.1757,-0.06201 -0.33589,-0.1601962 -0.15503,-0.1033525 -0.26355,-0.2428784 -0.18087,0.2067051 -0.40825,0.3462316 -0.2222,0.134358 -0.47542,0.175699 -0.25838,0.04651 -0.5426,0 -0.27905,-0.05168 -0.57361,-0.206705 -0.13435,0.09819 -0.29455,0.160196 -0.1602,0.06201 -0.31523,0.09302 -0.16019,0.03617 -0.30489,0.04651 -0.14469,0.01033 -0.25321,0.01033 h -0.093 q -0.15502,0 -0.23254,-0.124023 -0.0775,-0.12919 -0.0775,-0.2790517 0,-0.1498611 0.0775,-0.2790518 0.0775,-0.1291907 0.23254,-0.1291907 h 0.093 q 0.31006,0 0.57361,-0.02067 0.26355,-0.025838 0.49609,-0.1136878 0.22738,-0.082682 0.42891,-0.2532137 0.20671,-0.1705317 0.39274,-0.4650864 0.0672,-0.1085202 0.11369,-0.093017 0.0517,0.010335 0.031,0.1188554 -0.0362,0.1860346 -0.11886,0.3979073 -0.0827,0.2118727 -0.20154,0.3617339 0.10336,0.031006 0.25322,0.046509 0.15503,0.015503 0.32556,0 0.25321,-0.02067 0.47542,-0.1033525 0.22737,-0.08785 0.40824,-0.263549 0.11369,-0.1033525 0.21187,-0.2377108 0.10336,-0.1395259 0.19637,-0.2997224 z m 0.45476,-1.162716 q -0.031,0.036173 -0.0465,0.036173 -0.0155,0 -0.0517,-0.025838 l -0.60978,-0.4805893 -0.39791,0.552936 q -0.0362,0.046509 -0.0775,0.010335 l -0.65112,-0.4960922 q -0.0362,-0.031006 -0.0103,-0.067179 l 0.41341,-0.5891095 q 0.0258,-0.031006 0.0362,-0.025838 0.0155,0 0.0362,0.015503 l 0.61495,0.470254 0.41857,-0.5374332 q 0.031,-0.041341 0.062,-0.02067 l 0.65112,0.5426008 q 0.031,0.031006 0,0.072347 z m -0.97669,-2.1807385 0.63562,0.5219303 q 0.0413,0.031006 0.005,0.072347 l -0.42375,0.5270979 q -0.0362,0.046509 -0.0827,0.010335 l -0.64078,-0.5167627 q -0.0413,-0.036173 0,-0.08785 l 0.42891,-0.5167626 q 0.0362,-0.046509 0.0775,-0.010335 z m 0.0413,-1.4314326 q -0.11368,0.2273756 -0.25838,0.3410634 -0.15503,0.1188554 -0.3669,0.1240231 -0.17053,0.00517 -0.29972,-0.08785 -0.12402,-0.093017 -0.1447,-0.3255605 -0.0103,-0.1033525 0.0103,-0.2118727 0.0207,-0.1136878 0.062,-0.2118727 0.0413,-0.093017 0.093,-0.1601964 0.0568,-0.072347 0.11885,-0.093017 0.062,-0.00517 0.0103,0.093017 -0.031,0.056844 -0.0517,0.1343583 -0.0155,0.077514 -0.0207,0.1550288 0,0.072347 0.0155,0.124023 0.0155,0.051676 0.0672,0.098185 0.0775,0.056844 0.16537,0.056844 0.0879,-0.00517 0.17053,-0.041341 0.0879,-0.036173 0.15503,-0.082682 0.0724,-0.051676 0.14469,-0.1343583 0.0672,-0.077514 0.0982,-0.1963698 0.031,-0.1188554 0.0413,-0.1963698 0.005,-0.067179 0.0362,-0.1343583 0.031,-0.067179 0.10335,-0.067179 0.0155,0 0.0207,0.031006 0.0103,0.025838 0.0155,0.062011 0.005,0.036173 0.005,0.072347 0,0.031006 0,0.046509 0,0.1498612 0.0465,0.2377108 0.0465,0.082682 0.18604,0.1136878 0.0724,0.015503 0.18603,-0.015503 0.11886,-0.031006 0.20671,-0.1033525 0.0103,-0.010335 0.005,-0.056844 -0.005,-0.046509 -0.0207,-0.098185 -0.0103,-0.051676 -0.0362,-0.1085202 -0.0207,-0.062012 -0.0258,-0.072347 L 346.90782,2.73148 q 0.0517,0.025838 0.0775,0.1136878 0.031,0.08785 0.0362,0.2015374 0.0103,0.1085202 0,0.222208 -0.0103,0.1136878 -0.0258,0.1912022 -0.062,0.1912022 -0.17054,0.346231 -0.10335,0.1550288 -0.32039,0.1963698 -0.1912,0.036173 -0.32039,-0.025838 -0.12919,-0.062012 -0.20671,-0.1756994 z m 0.93018,-2.0773859 q -0.25838,0.1188554 -0.5426,0.2480461 -0.27906,0.1291906 -0.54261,0.248046 -0.26354,0.1188555 -0.49092,0.222208 -0.22738,0.1033525 -0.38757,0.1705317 -0.0362,0.015503 -0.0517,0 -0.0155,-0.015503 0,-0.046509 l 0.25322,-0.5064274 q 0.0258,-0.041341 0.0517,-0.056844 0.031,-0.020671 0.0568,-0.036173 l 1.88618,-0.8371555 q 0.0827,-0.036173 0.0517,0.041341 L 346.9801,1.651446 q -0.0155,0.046509 -0.0723,0.072347 z M 342.0192,12.374272 q -0.0258,0.03101 -0.0413,0.03101 -0.0155,0.0052 -0.0568,-0.02584 l -0.61495,-0.480589 -0.40307,0.552936 q -0.0362,0.04651 -0.0775,0.0155 l -0.65629,-0.506428 q -0.0362,-0.02584 -0.0103,-0.06201 l 0.41858,-0.594277 q 0.0207,-0.03101 0.0362,-0.03101 0.0155,0 0.0362,0.02067 l 0.62012,0.470254 0.42374,-0.542601 q 0.031,-0.04134 0.062,-0.0155 l 0.65629,0.547768 q 0.0362,0.02584 0,0.07235 z m -2.16006,-2.061884 h -0.093 q -0.15503,0 -0.23255,-0.124023 -0.0775,-0.12919 -0.0775,-0.2842191 0,-0.077514 0.0207,-0.1498612 0.0155,-0.072347 0.0568,-0.1291906 0.0362,-0.056844 0.0982,-0.093017 0.0568,-0.036173 0.13436,-0.036173 h 0.093 q 0.16019,0 0.35656,-0.010335 0.20154,-0.010335 0.37724,-0.056844 0.17053,-0.046509 0.33589,-0.1395259 0.16537,-0.098185 0.30489,-0.2687166 0.10336,-0.124023 0.16537,-0.2532137 0.0672,-0.1291907 0.12919,-0.2945547 0.0258,-0.067179 0.0827,-0.072347 0.062,-0.00517 0.0672,0.025838 0.005,0.062012 -0.0103,0.1498612 -0.0103,0.08785 -0.0103,0.1601965 0,0.1343582 0.0672,0.2687165 0.0672,0.1343583 0.2067,0.2428785 0.13953,0.1085202 0.38241,0.1808669 0.24804,0.067179 0.5581,0.067179 h 0.0982 q 0.0775,0 0.13436,0.036173 0.0568,0.036173 0.093,0.093017 0.0413,0.056844 0.0568,0.1291906 0.0207,0.072347 0.0207,0.1498612 0,0.1550294 -0.0775,0.2842194 -0.0723,0.124023 -0.22737,0.124023 h -0.0982 q -0.27905,0 -0.53226,-0.05168 -0.24805,-0.05684 -0.42375,-0.165364 -0.34106,-0.2067053 -0.53226,-0.6097802 -0.11369,0.2325432 -0.26872,0.387572 -0.15503,0.1550292 -0.34106,0.2532142 -0.19121,0.09819 -0.43409,0.144693 -0.24287,0.04134 -0.48058,0.04134 z m 0.58911,-5.5655334 q 0,0.08785 0.0465,0.1395259 0.0517,0.046509 0.11885,0.072347 0.0672,0.025838 0.14469,0.031006 0.0827,0.00517 0.1447,0.00517 0.14469,0 0.26871,-0.062012 0.1292,-0.062011 0.23255,-0.1601964 0.0103,-0.093017 -0.0207,-0.1963698 -0.031,-0.1033525 -0.0982,-0.1860346 -0.0672,-0.082682 -0.16536,-0.1291906 -0.0982,-0.051676 -0.22738,-0.041341 -0.0775,0.020671 -0.15503,0.077514 -0.0775,0.051676 -0.14469,0.124023 -0.062,0.072347 -0.10335,0.1601964 -0.0413,0.082682 -0.0413,0.1653641 z m 1.20922,-0.1343583 q 0,0.1756993 -0.0465,0.3410634 -0.0465,0.165364 -0.14469,0.2945547 -0.0982,0.1291906 -0.25321,0.206705 -0.14987,0.077515 -0.36174,0.077515 -0.26355,0 -0.44441,-0.1705317 -0.18087,-0.1705317 -0.19121,-0.4547512 0,-0.1446935 0.0413,-0.346231 0.0465,-0.2067051 0.13953,-0.3979072 0.093,-0.1912022 0.23771,-0.3307282 0.14986,-0.1446935 0.35657,-0.1705316 0.19637,-0.020671 0.32556,0.077514 0.12919,0.098185 0.2067,0.248046 0.0724,0.1550288 0.10336,0.3307282 0.031,0.1705316 0.031,0.2945547 z m -6.09263,2.780183 q 0.21187,-0.010335 0.44441,0.025838 0.23255,0.031006 0.66146,0.1136878 0.42891,0.077514 0.86299,0.093017 0.47026,0.015503 0.90951,0.00517 0.43924,-0.010335 0.9095,-0.051676 0.0207,-0.00517 0.031,0 0.0103,0.00517 0.005,0.031006 -0.0672,0.2015375 -0.14986,0.3979073 -0.0775,0.1963698 -0.1757,0.3824044 -0.23254,0.025838 -0.46509,0.062011 -0.23254,0.031006 -0.45991,0.077514 -0.0465,0.3772367 0.0827,0.5787742 0.13436,0.1963698 0.3824,0.2842195 0.24805,0.08785 0.57361,0.098185 0.33073,0.010335 0.68213,0.010335 0.0258,0 0.0465,0 0.0207,0 0.0465,0 0.15503,0 0.23255,0.1291907 0.0827,0.124023 0.0827,0.2738842 0,0.1550296 -0.0827,0.2842196 -0.0775,0.124023 -0.23255,0.124023 -0.0258,0 -0.0465,0 -0.0207,0 -0.0465,0 -0.57361,0.01034 -1.02319,-0.05684 -0.44959,-0.07235 -0.71831,-0.3152262 -0.21187,-0.1912022 -0.29972,-0.5115951 -0.0827,-0.3255604 -0.0207,-0.8268202 -0.45475,0.1085201 -0.87849,0.2893871 -0.42375,0.1756993 -0.78032,0.4599187 -0.31005,0.2480461 -0.5581,0.5581037 -0.24288,0.310058 -0.41341,0.666624 -0.16536,0.356567 -0.25321,0.738971 -0.0879,0.387572 -0.0879,0.785479 0,0.434081 0.16536,0.847491 0.17053,0.418578 0.44958,0.764809 0.27906,0.351398 0.63562,0.604612 0.36174,0.258382 0.74414,0.366902 0.50126,0.144693 1.02836,0.191202 0.53226,0.05168 0.98702,0.03617 0.50125,-0.0155 1.02835,-0.06201 0.5271,-0.04651 1.02836,-0.04651 0.062,0 0.0672,0.03101 0.005,0.03617 -0.062,0.113688 -0.0672,0.07751 -0.13953,0.08785 -0.31006,0.04651 -0.59944,0.139526 -0.28422,0.09819 -0.56327,0.19637 -0.27906,0.103353 -0.56844,0.186035 -0.28422,0.08785 -0.59428,0.10852 -0.75447,0.05168 -1.47794,-0.118856 -0.7183,-0.170531 -1.28157,-0.583941 -0.56327,-0.408243 -0.9095,-1.064532 -0.34624,-0.651121 -0.34624,-1.555455 0,-0.594277 0.15503,-1.193722 0.15503,-0.594277 0.43925,-1.126543 0.28939,-0.5374334 0.69246,-0.971514 0.40825,-0.4392483 0.90434,-0.7131325 0.0207,-0.015503 -0.0103,-0.025838 -0.031,-0.010335 -0.0672,-0.015503 -0.23771,-0.025838 -0.51159,-0.046509 -0.26872,-0.025838 -0.53743,-0.00517 -0.26355,0.02067 -0.4961,0.1033525 -0.23254,0.077514 -0.38757,0.2583814 -0.031,0.036173 -0.0672,0.031006 -0.031,-0.00517 -0.0207,-0.072347 0.031,-0.2377109 0.10852,-0.4495836 0.0827,-0.2118727 0.21187,-0.3669015 0.12919,-0.1601964 0.31006,-0.2532137 0.18087,-0.098185 0.42375,-0.1033525 z m 1.08003,-2.1342299 0.63562,0.527098 q 0.0413,0.036173 0.005,0.082682 l -0.42375,0.5322656 q -0.0362,0.051676 -0.0827,0.010335 l -0.64079,-0.5270979 q -0.0413,-0.036173 0,-0.08785 l 0.42892,-0.5270979 q 0.0362,-0.046509 0.0775,-0.010335 z M 335.5132,4.6279991 q 0.17054,-0.098185 0.3359,-0.1963698 0.16536,-0.098185 0.32039,-0.2118727 0.1602,-0.1136878 0.31523,-0.2480461 0.15503,-0.1343583 0.29972,-0.30489 -0.13953,-0.041341 -0.29455,-0.1395259 -0.15503,-0.098185 -0.24805,-0.2118727 -0.0465,-0.056844 -0.0568,-0.1446936 -0.0103,-0.093017 0.0155,-0.1705316 0.0413,-0.1240231 0.11369,-0.2687166 0.0775,-0.1446936 0.18086,-0.263549 0.10336,-0.1188554 0.22738,-0.1912022 0.12919,-0.077514 0.25838,-0.072347 0.1602,0.010335 0.23254,0.1550288 0.0724,0.139526 0.0879,0.3255605 0.0207,0.1860346 0,0.3669015 -0.0155,0.180867 -0.0258,0.263549 0,0.025838 0.0155,0.041341 0.062,0.036173 0.0827,0.067179 0.0258,0.031006 0.0413,0.072347 0.031,0.077514 0.0103,0.1860346 -0.0155,0.1085201 -0.062,0.165364 -0.0414,0.051676 -0.0724,0.051676 -0.031,-0.00517 -0.062,-0.051676 -0.0258,-0.031006 -0.0517,-0.056844 -0.0207,-0.031006 -0.0672,-0.051676 -0.14469,0.1756993 -0.31006,0.3358957 -0.16019,0.1601965 -0.34106,0.2945547 -0.18603,0.1291907 -0.38757,0.2325433 -0.20154,0.1033525 -0.42375,0.1705316 -0.0879,0.025838 -0.18086,0.036173 -0.093,0.00517 -0.10336,-0.020671 -0.0103,-0.031006 0.0362,-0.072347 0.0465,-0.046509 0.11368,-0.08785 z m 0.97152,-1.7363226 q 0.10852,0.1498612 0.25838,0.2377108 0.14986,0.082682 0.27388,0.1136878 h 0.0103 q 0,-0.041341 0.005,-0.1085202 0.005,-0.072347 0,-0.1446935 0,-0.072347 -0.0207,-0.1395259 -0.0155,-0.067179 -0.062,-0.1136878 -0.0413,-0.036173 -0.11885,-0.031006 -0.0723,0 -0.14469,0.025838 -0.0724,0.025838 -0.13436,0.072347 -0.0568,0.041341 -0.0672,0.08785 z m -6.60423,-0.041341 q 0.031,-0.020671 0.0879,-0.046509 0.0568,-0.031006 0.11885,-0.062012 0.062,-0.036173 0.12402,-0.067179 0.062,-0.031006 0.10336,-0.056844 -0.11369,-0.093017 -0.21704,-0.2118727 -0.0982,-0.1240231 -0.1602,-0.2738843 -0.0362,-0.08785 -0.0155,-0.1756993 0.0258,-0.093017 0.0775,-0.1756993 0.0723,-0.1136878 0.1757,-0.2273756 0.10852,-0.1188554 0.23771,-0.2118727 0.12919,-0.098185 0.26872,-0.1550288 0.14469,-0.062012 0.29455,-0.062012 0.062,0 0.11369,0.041341 0.0568,0.036173 0.0982,0.093017 0.0413,0.051676 0.0723,0.1136878 0.031,0.062012 0.0465,0.1136878 0.031,0.1188554 0,0.1963698 -0.0879,0.1912022 -0.13952,0.2428785 -0.0517,0.046509 -0.093,0.041341 -0.0413,-0.00517 -0.0568,-0.067179 -0.0155,-0.062011 -0.0413,-0.1343583 -0.0362,-0.08785 -0.0982,-0.1136878 -0.062,-0.031006 -0.13953,-0.031006 -0.25321,0 -0.44958,0.1808669 0.0362,0.093017 0.0982,0.1860346 0.062,0.08785 0.13953,0.165364 0.0775,0.072347 0.17053,0.1188555 0.093,0.046509 0.18604,0.056844 0.26355,0.025838 0.50642,-0.015503 0.24288,-0.046509 0.50643,-0.1033526 0.005,0.010335 -0.0155,0.08785 -0.0207,0.077514 -0.0568,0.1705317 -0.031,0.08785 -0.0672,0.1601964 -0.031,0.072347 -0.0465,0.072347 -0.21704,0.025838 -0.44442,0.067179 -0.22221,0.041341 -0.47025,0.1136878 -0.25322,0.072347 -0.5116,0.2015375 -0.25321,0.124023 -0.48576,0.2428784 -0.0362,0.020671 -0.0517,0 -0.0207,-0.020671 -0.0155,-0.046509 0.005,-0.031006 0.0207,-0.082682 0.0155,-0.056844 0.0362,-0.1188554 0.0207,-0.062012 0.0413,-0.1188554 0.0258,-0.062011 0.0517,-0.1085201 z m 0.93534,0.7648087 q 0.0827,0.00517 0.0723,0.1912022 -0.0155,0.1963698 -0.005,0.387572 0.0155,0.1860346 0.0362,0.3772368 0.0413,0.4599188 0.10335,0.9508433 0.062,0.4857569 0.12403,0.9818491 0.0517,0.4909245 0.10852,0.9818491 0.0568,0.4909245 0.093,0.9560109 0.0207,0.180867 0.0207,0.4237454 0,0.2428785 -0.0207,0.4960922 -0.0155,0.2480461 -0.0672,0.4805893 -0.0465,0.2325435 -0.12402,0.3875715 -0.0465,0.08785 -0.10335,0.113688 -0.0465,0.0052 -0.0413,-0.04134 -0.0207,-0.4495833 -0.0568,-0.9043344 -0.031,-0.4599188 -0.0879,-0.9353405 -0.0568,-0.4909245 -0.11368,-0.9715138 -0.0568,-0.4805893 -0.10852,-0.9611786 -0.0568,-0.4805893 -0.10852,-0.9611786 -0.0517,-0.4805893 -0.10336,-0.9663462 0.0155,-0.1188554 0.0465,-0.2428784 0.0362,-0.1291907 0.0982,-0.263549 0.12919,-0.3358957 0.1757,-0.4082425 0.0465,-0.072347 0.062,-0.072347 z m 0.68729,-3.76203188 q -0.25838,0.11885542 -0.5426,0.24804609 -0.27905,0.12919067 -0.5426,0.24804608 -0.26355,0.11885542 -0.49092,0.22220795 -0.22738,0.10335254 -0.38758,0.17053169 -0.0362,0.0155029 -0.0517,0 -0.0155,-0.0155029 0,-0.0465086 l 0.25321,-0.50642743 q 0.0258,-0.041341 0.0517,-0.0568439 0.031,-0.0206705 0.0568,-0.03617339 l 1.88619,-0.83715554 q 0.0827,-0.0361734 0.0517,0.041341 l -0.21187,0.48058929 q -0.0155,0.0465086 -0.0723,0.0723468 z m -2.74918,8.18552038 q -0.23254,-0.067179 -0.42891,-0.1085201 -0.1912,-0.046509 -0.37207,-0.077514 -0.18087,-0.031006 -0.3669,-0.046509 -0.18603,-0.020671 -0.40308,-0.036173 -0.31005,-0.020671 -0.66662,0.00517 -0.35657,0.025838 -0.7028,0.072347 -0.34106,0.046509 -0.64595,0.1033526 -0.29972,0.056844 -0.50126,0.098185 0,0.020671 0.0103,0.020671 0.43924,0.1136878 0.63045,0.3669015 0.1912,0.2532137 0.15503,0.6717915 -0.0207,0.2222079 -0.12403,0.4082425 -0.0982,0.1808669 -0.21704,0.2583813 -0.14986,0.093017 -0.39274,0.098185 -0.24288,0.00517 -0.48575,-0.051676 -0.24805,-0.062011 -0.46509,-0.1963698 -0.21187,-0.1343583 -0.29456,-0.3513987 -0.11885,0.2687166 -0.25321,0.4650864 -0.12919,0.1912022 -0.29972,0.3203931 -0.17053,0.124023 -0.38757,0.191202 -0.21704,0.06201 -0.50126,0.07235 h -0.0827 q -0.17053,0 -0.25321,-0.124023 -0.0879,-0.129191 -0.0879,-0.2842197 0,-0.1550288 0.0879,-0.2790519 0.0827,-0.1291907 0.25321,-0.1291907 h 0.0827 q 0.16019,0 0.34623,-0.015503 0.18603,-0.02067 0.36173,-0.08785 0.18087,-0.067179 0.34106,-0.1963698 0.1602,-0.1291907 0.27389,-0.3565663 0.0827,-0.1601964 0.15503,-0.3152252 0.0775,-0.1550288 0.16019,-0.2997223 0.0879,-0.1446936 0.19637,-0.2687166 0.10852,-0.1291907 0.26355,-0.2377109 0.21188,-0.1446935 0.52193,-0.2377108 0.31006,-0.098185 0.64079,-0.1550288 0.33589,-0.056844 0.65629,-0.08785 0.32039,-0.036173 0.54777,-0.056844 -0.0879,-0.051676 -0.23255,-0.1343582 -0.14469,-0.08785 -0.32039,-0.1756994 -0.1757,-0.093017 -0.37724,-0.1705316 -0.19637,-0.082682 -0.39274,-0.1240231 -0.27905,-0.056844 -0.51676,-0.00517 -0.23254,0.046509 -0.40307,0.1550288 -0.0414,0.02067 -0.0827,0.025838 -0.0413,0.00517 -0.0413,-0.067179 0.0103,-0.1395259 0.10336,-0.2997224 0.093,-0.1601964 0.23254,-0.2997223 0.13952,-0.139526 0.31006,-0.2325432 0.17053,-0.093017 0.33589,-0.1033526 0.24288,-0.010335 0.51676,0.082682 0.27906,0.08785 0.55811,0.2273755 0.27905,0.139526 0.54777,0.2997224 0.26871,0.1550288 0.49609,0.2790518 0.10852,0.056844 0.28939,0.1446936 0.18086,0.082682 0.42891,0.1756993 0.25321,0.093017 0.57877,0.1912022 0.33073,0.098185 0.73381,0.1808669 -0.14987,0.1756993 -0.26355,0.346231 -0.10852,0.1705317 -0.25322,0.3513986 z m -3.77236,1.0128549 q 0.0207,-0.025838 -0.0258,-0.08785 -0.0465,-0.062012 -0.12919,-0.1343583 -0.0827,-0.072347 -0.18604,-0.1343583 -0.10335,-0.067179 -0.19637,-0.098185 -0.0775,-0.02067 -0.17053,-0.041341 -0.093,-0.025838 -0.18087,-0.031006 -0.0879,-0.010335 -0.16019,0.010335 -0.0723,0.015503 -0.10335,0.072347 -0.0362,0.077514 0.0155,0.1601964 0.0568,0.077514 0.16536,0.1498612 0.11369,0.067179 0.25322,0.124023 0.14469,0.051676 0.28422,0.077514 0.14469,0.020671 0.25838,0.010335 0.11885,-0.015503 0.1757,-0.077514 z m 0.98701,-5.5965398 q 0,0.08785 0.0465,0.139526 0.0517,0.046509 0.11886,0.072347 0.0672,0.025838 0.14469,0.031006 0.0827,0.00517 0.14469,0.00517 0.1447,0 0.26872,-0.062011 0.12919,-0.062012 0.23254,-0.1601964 0.0103,-0.093017 -0.0207,-0.1963698 -0.031,-0.1033526 -0.0982,-0.1860346 -0.0672,-0.082682 -0.16537,-0.1291907 -0.0982,-0.051676 -0.22737,-0.041341 -0.0775,0.020671 -0.15503,0.077514 -0.0775,0.051676 -0.14469,0.1240231 -0.062,0.072347 -0.10336,0.1601964 -0.0413,0.082682 -0.0413,0.165364 z m 1.20923,-0.1343582 q 0,0.1756993 -0.0465,0.3410633 -0.0465,0.1653641 -0.14469,0.2945547 -0.0982,0.1291907 -0.25322,0.2067051 -0.14986,0.077514 -0.36173,0.077514 -0.26355,0 -0.44442,-0.1705317 -0.18087,-0.1705316 -0.1912,-0.4547511 0,-0.1446936 0.0413,-0.346231 0.0465,-0.2067051 0.13953,-0.3979073 0.093,-0.1912022 0.23771,-0.3307281 0.14986,-0.1446935 0.35656,-0.1705317 0.19637,-0.020671 0.32556,0.077514 0.12919,0.098185 0.20671,0.2480461 0.0724,0.1550288 0.10335,0.3307281 0.031,0.1705317 0.031,0.2945548 z m -3.00756,0.925005 q -0.25838,0.1188554 -0.5426,0.2480461 -0.27905,0.1291907 -0.5426,0.2480461 -0.26355,0.1188554 -0.49093,0.2222079 -0.22737,0.1033526 -0.38757,0.1705317 -0.0362,0.015503 -0.0517,0 -0.0155,-0.015503 0,-0.046509 l 0.25321,-0.5064275 q 0.0258,-0.041341 0.0517,-0.056844 0.031,-0.02067 0.0568,-0.036173 l 1.88618,-0.8371556 q 0.0827,-0.036173 0.0517,0.041341 l -0.21187,0.4805893 q -0.0155,0.046509 -0.0724,0.072347 z m -4.47,2.6975013 0.14986,-0.6046124 q 0.0155,-0.062012 0.062,-0.062012 0.0465,0 0.062,0.056844 l 0.5271,1.8655133 q 0.10335,0.3669015 0.25838,0.6407857 0.16019,0.2738842 0.43408,0.4599188 0.16019,0.1085201 0.3669,0.1550288 0.2067,0.046509 0.45992,0.046509 h 0.093 q 0.16537,0 0.24805,0.1291907 0.0827,0.1291907 0.0827,0.2790518 0,0.1498614 -0.0827,0.2790514 -0.0827,0.124023 -0.24805,0.124023 h -0.093 q -0.28422,0 -0.53227,-0.05168 -0.24288,-0.05684 -0.45475,-0.201537 -0.2067,-0.1395261 -0.38757,-0.3875722 -0.1757,-0.2532137 -0.33073,-0.6459533 -0.13436,0.4030748 -0.43925,0.6666238 -0.24804,0.2118727 -0.58394,0.3203927 -0.3359,0.103353 -0.65629,0.144694 -0.31522,0.04651 -0.59944,0.02067 -0.27905,-0.03101 -0.42892,-0.170532 -0.0775,-0.072346 -0.11368,-0.1963693 -0.031,-0.124023 -0.031,-0.2583813 0,-0.1395259 0.0207,-0.2687166 0.0258,-0.1343583 0.0672,-0.2273756 0.0155,-0.031006 0.0413,-0.031006 0.031,0 0.0465,0.031006 0.093,0.1705317 0.21187,0.2325432 0.11886,0.056844 0.28422,0.072347 0.24288,0.025838 0.55811,-0.010335 0.31522,-0.036173 0.61494,-0.1291906 0.29973,-0.08785 0.53744,-0.2273756 0.24288,-0.1446936 0.33072,-0.3307281 z m -6.24249,0.552936 q 0.14469,0.1446936 0.26355,0.3152253 0.12402,0.1705316 0.21704,0.3565662 0.093,0.1860346 0.14469,0.3824044 0.0517,0.1963698 0.0517,0.3979073 0,0.08785 -0.0103,0.1963698 -0.0103,0.1085201 -0.031,0.2222079 -0.0207,0.1085202 -0.0568,0.2118727 -0.031,0.098185 -0.0775,0.1705317 -0.12402,0.1860346 -0.34623,0.2997218 -0.21704,0.113688 -0.48059,0.170532 -0.26355,0.05684 -0.53743,0.07752 -0.26872,0.0155 -0.49093,0.0155 h -0.093 q -0.16019,0 -0.24287,-0.124023 -0.0827,-0.12919 -0.0827,-0.284219 0,-0.1550288 0.0827,-0.2790518 0.0827,-0.1291907 0.24287,-0.1291907 h 0.093 q 0.24805,0 0.49093,-0.00517 0.24804,-0.010335 0.46508,-0.031006 0.22221,-0.02067 0.39791,-0.056844 0.1757,-0.041341 0.27905,-0.1085202 0.0568,-0.031006 0.0568,-0.077514 0.005,-0.046509 -0.0207,-0.1188554 -0.0517,-0.1343583 -0.11885,-0.2480461 -0.062,-0.1136877 -0.13953,-0.2170403 -0.0827,-0.1085201 -0.17053,-0.2067051 -0.0879,-0.098185 -0.18603,-0.1963698 l 0.17053,-0.7234677 q 0.0155,-0.056844 0.0517,-0.056844 0.0362,0 0.0775,0.046509 z m -0.5426,3.8343791 0.63562,0.527098 q 0.0413,0.03617 0.005,0.08268 l -0.42374,0.532265 q -0.0362,0.05168 -0.0827,0.01034 l -0.64079,-0.527098 q -0.0413,-0.03617 0,-0.08785 l 0.42891,-0.527098 q 0.0362,-0.04651 0.0775,-0.01033 z m -2.24792,-1.9120219 0.23255,-0.7544735 q 0.0207,-0.056844 0.0465,-0.056844 0.0258,-0.00517 0.0568,0.046509 0.10335,0.1653641 0.21187,0.3617339 0.10852,0.1963698 0.20671,0.3513986 0.0568,0.051676 0.15502,0.077514 0.10336,0.025838 0.20671,0.041341 0.10852,0.010335 0.19637,0.015503 0.093,0 0.12919,0 h 0.093 q 0.16536,0 0.24288,0.1291907 0.0827,0.124023 0.0827,0.2738842 0,0.155029 -0.0827,0.284219 -0.0775,0.124023 -0.24288,0.124023 h -0.093 q -0.25838,0 -0.50643,-0.03101 0.031,0.294554 0.031,0.620115 0.005,0.32556 -0.0465,0.640786 -0.0827,0.516762 -0.37724,0.888831 -0.29455,0.37207 -0.70796,0.60978 -0.41341,0.237711 -0.89917,0.346231 -0.48576,0.113688 -0.96635,0.113688 -0.41857,0 -0.78031,-0.129191 -0.35656,-0.12919 -0.62528,-0.377236 -0.26355,-0.242879 -0.41858,-0.594277 -0.14986,-0.351399 -0.14986,-0.790647 0,-0.485757 0.15503,-0.940508 0.15503,-0.449584 0.43408,-0.8526587 0.031,-0.046509 0.0568,-0.041341 0.0258,0 0.0465,0.046509 0.0207,0.046509 0.0103,0.08785 -0.23771,0.4650867 -0.30489,0.9611787 -0.0672,0.50126 0.0879,0.899167 0.15503,0.397907 0.53226,0.651121 0.38241,0.258381 1.01803,0.258381 0.35656,0 0.71313,-0.05684 0.36173,-0.05684 0.69763,-0.186035 0.33589,-0.129191 0.63045,-0.335896 0.29455,-0.201537 0.5271,-0.496092 0.0103,-0.273884 -0.0362,-0.563271 -0.0413,-0.28422 -0.12402,-0.568439 -0.0775,-0.279052 -0.1912,-0.5477688 -0.11369,-0.2687166 -0.24805,-0.5064274 z m -1.22473,-2.1910738 0.63562,0.527098 q 0.0413,0.036173 0.005,0.082682 l -0.42375,0.5322656 q -0.0362,0.051676 -0.0827,0.010335 L 308.9361,7.8525981 q -0.0413,-0.036173 0,-0.08785 l 0.42891,-0.5270979 q 0.0362,-0.046509 0.0775,-0.010335 z m -6.03062,0.2325432 q -0.56327,0.3720692 -1.18855,0.6614563 -0.62012,0.2893871 -1.28158,0.4134101 -0.3824,0.077514 -0.76997,0.072347 -0.38757,-0.00517 -0.7338,-0.1240231 -0.34107,-0.1188554 -0.62012,-0.3669015 -0.27905,-0.2532137 -0.44958,-0.6666238 0,0.2273756 -0.0207,0.4495835 -0.0207,0.222208 -0.0568,0.4392483 -0.0362,0.2118727 -0.0879,0.4082425 -0.0465,0.1912022 -0.0982,0.3513986 0.16536,0.031006 0.40824,0.082682 0.24288,0.046509 0.47025,0.1291906 0.23255,0.077514 0.40825,0.1963698 0.1757,0.1136878 0.21187,0.2738843 0.0775,0.3410629 -0.0517,0.6511209 -0.12919,0.315225 -0.37207,0.578774 -0.23771,0.263549 -0.5426,0.470254 -0.30489,0.206705 -0.57877,0.335896 -0.50126,0.242878 -1.00769,0.372069 -0.50126,0.129191 -0.97151,0.129191 -0.45992,0 -0.85266,-0.118856 -0.39274,-0.118855 -0.68213,-0.366901 -0.28422,-0.248046 -0.44958,-0.625283 -0.1602,-0.377237 -0.1602,-0.888832 0,-0.5167624 0.19121,-0.9870165 0.19636,-0.4754216 0.48058,-0.8939994 0.0207,-0.031006 0.0413,-0.025838 0.0258,0.00517 0.0413,0.031006 0.0207,0.02067 0.0258,0.051676 0.0103,0.031006 0,0.051676 -0.17569,0.3669015 -0.29972,0.7596411 -0.11885,0.387572 -0.0982,0.7906468 0.0155,0.382404 0.18603,0.645953 0.17053,0.268717 0.42891,0.434081 0.25839,0.165364 0.57361,0.237711 0.32039,0.07751 0.63562,0.08268 0.32556,0.0052 0.62528,-0.04651 0.29972,-0.04651 0.58394,-0.134358 0.28422,-0.08785 0.55811,-0.21704 0.27905,-0.124023 0.56327,-0.273885 0.0775,-0.04134 0.20154,-0.118855 0.12402,-0.07235 0.24288,-0.160196 0.12402,-0.08268 0.21187,-0.165364 0.093,-0.08268 0.10335,-0.144694 -0.0103,-0.06718 -0.12402,-0.124023 -0.10852,-0.05684 -0.27905,-0.103353 -0.17054,-0.046508 -0.37207,-0.082682 -0.19637,-0.036173 -0.38758,-0.062011 -0.1912,-0.031006 -0.34623,-0.046509 -0.14986,-0.02067 -0.2222,-0.031006 -0.0827,-0.015503 -0.0258,-0.1240231 0.25321,-0.4857569 0.3669,-0.9921843 0.11369,-0.5064274 0.13436,-1.0231901 0.0258,-0.5167627 -0.0207,-1.038693 -0.0413,-0.5219303 -0.10852,-1.0335253 l -0.27906,-2.0928889 q -0.0103,-0.093017 0.0207,-0.206705 0.0362,-0.1188555 0.0878,-0.2325433 0.0568,-0.1136877 0.11886,-0.2170403 0.0672,-0.1033525 0.11369,-0.1756993 0.0103,-0.020671 0.0362,-0.010335 0.0258,0.010335 0.031,0.051676 0.062,0.5064274 0.11885,1.0128549 0.062,0.5064274 0.13436,0.9973519 0.0724,0.4909246 0.1602,0.9508434 0.0879,0.4599188 0.2067,0.8681613 0.1757,0.6097799 0.55294,0.9353404 0.3824,0.3255605 0.93017,0.3565663 -0.10852,-0.098185 -0.21704,-0.2428785 -0.10852,-0.1446935 -0.19637,-0.30489 -0.0827,-0.1601964 -0.13952,-0.3203928 -0.0517,-0.1653641 -0.0568,-0.2997224 -0.0103,-0.3152252 0.0879,-0.6149476 0.0982,-0.30489 0.27905,-0.552936 0.18087,-0.2480461 0.43925,-0.4237454 0.25838,-0.1756993 0.57361,-0.2377109 0.38757,-0.077514 0.69763,-0.041341 0.31005,0.031006 0.55293,0.1395259 0.24805,0.1085202 0.42375,0.2738843 0.18087,0.165364 0.29972,0.3513986 0.0207,0.031006 0.005,0.056844 -0.0103,0.025838 -0.0413,0.041341 -0.0258,0.015503 -0.062,0.02067 -0.0362,0 -0.062,-0.015503 -0.34106,-0.1860345 -0.69763,-0.2428784 -0.35139,-0.056844 -0.69246,-0.00517 -0.16536,0.025838 -0.3669,0.093017 -0.20154,0.062011 -0.40307,0.1498612 -0.19637,0.082682 -0.3669,0.1808669 -0.16537,0.093017 -0.25839,0.1756993 0,0.093017 0.0413,0.222208 0.0413,0.1291907 0.10852,0.2738842 0.0723,0.1446936 0.1602,0.2842195 0.093,0.1395259 0.19637,0.2532137 0.0982,0.1188554 0.24288,0.2325432 0.14469,0.1136878 0.31006,0.2015374 0.16536,0.08785 0.33073,0.139526 0.17053,0.046509 0.31005,0.031006 0.32556,-0.036173 0.60978,-0.1343583 0.28422,-0.098185 0.53227,-0.2222079 0.25321,-0.1291907 0.47025,-0.2738842 0.21704,-0.1446936 0.40825,-0.2738843 0.0413,-0.031006 0.062,0.00517 0.0207,0.031006 0.005,0.072347 -0.0413,0.1085202 -0.0723,0.1912022 -0.0258,0.077514 -0.0568,0.1498612 -0.0258,0.072347 -0.0568,0.1498612 -0.0258,0.072347 -0.0672,0.165364 z m -1.81383,-4.557847 q -0.25838,0.1188554 -0.5426,0.2480461 -0.27906,0.1291907 -0.5426,0.2480461 -0.26355,0.1188554 -0.49093,0.2222079 -0.22737,0.1033526 -0.38757,0.1705317 -0.0362,0.015503 -0.0517,0 -0.0155,-0.015503 0,-0.046509 l 0.25322,-0.5064275 q 0.0258,-0.041341 0.0517,-0.056844 0.031,-0.020671 0.0568,-0.036173 l 1.88618,-0.8371556 q 0.0827,-0.036173 0.0517,0.041341 l -0.21188,0.4805893 q -0.0155,0.046509 -0.0723,0.072347 z M 299.46384,13.22693 q -0.50643,0.160196 -0.99736,0.32556 -0.49092,0.165365 -0.9405,0.310058 -0.0827,0.02584 -0.0414,-0.05168 l 0.21188,-0.39274 q 0.0155,-0.03101 0.0258,-0.04651 0.0155,-0.0155 0.0465,-0.02584 0.13953,-0.05168 0.36691,-0.12919 0.22737,-0.07235 0.49092,-0.160197 0.26872,-0.08268 0.54777,-0.170531 0.27905,-0.08785 0.53226,-0.165364 0.0413,-0.0155 0.0517,-0.01034 0.0103,0.01034 -0.0103,0.05168 l -0.2222,0.403074 q -0.0155,0.02067 -0.031,0.03617 -0.0103,0.02067 -0.031,0.02584 z m -9.39992,-9.6117859 q 0.0827,0.00517 0.0775,0.1912022 -0.0103,0.1963698 0.005,0.387572 0.0155,0.1860346 0.0414,0.3772368 0.0517,0.4599188 0.12402,0.9508433 0.0724,0.4857569 0.14469,0.9818491 0.0672,0.4909245 0.13436,0.9818491 0.0672,0.4909245 0.11369,0.9560109 0.0207,0.180867 0.0258,0.4237454 0.0103,0.2428785 -0.005,0.4960922 -0.0103,0.2480461 -0.0568,0.4805893 -0.0413,0.2325436 -0.11885,0.3875716 -0.0413,0.08785 -0.0982,0.113688 -0.0465,0.0052 -0.0413,-0.04134 -0.031,-0.4495834 -0.0775,-0.9043345 -0.0413,-0.4599188 -0.10852,-0.9353405 -0.0672,-0.4909245 -0.13436,-0.9715138 -0.0672,-0.4805893 -0.12919,-0.9611786 -0.0672,-0.4805893 -0.13436,-0.9611786 -0.062,-0.4805893 -0.12402,-0.9663462 0.0155,-0.1188554 0.0465,-0.2428784 0.031,-0.1291907 0.0879,-0.263549 0.12402,-0.3358957 0.16536,-0.4082425 0.0465,-0.072347 0.062,-0.072347 z M 287.86251,3.325757 q 0.0258,-0.041341 0.0465,-0.041341 0.0207,-0.00517 0.0362,0.041341 0.0827,0.2480461 0.21704,0.5115951 0.13435,0.2583813 0.37207,0.4030749 -0.13953,0.248046 -0.21705,0.3824043 -0.0723,0.1343583 -0.0568,0.2893871 l 0.47026,3.9532345 q 0,0.1395259 -0.031,0.2997224 -0.0258,0.1550288 -0.0775,0.30489 -0.0465,0.1446935 -0.11368,0.2687165 -0.062,0.1188555 -0.12919,0.1860346 -0.14986,0.1395256 -0.37724,0.2222076 -0.22738,0.07752 -0.47542,0.113688 -0.24805,0.03617 -0.49093,0.04651 -0.23771,0.0052 -0.42374,0.0052 h -0.093 q -0.16536,0 -0.24805,-0.124023 -0.0827,-0.12919 -0.0827,-0.2790515 0,-0.1498611 0.0827,-0.2790518 0.0827,-0.1291907 0.24805,-0.1291907 h 0.093 q 0.093,0 0.36173,-0.00517 0.26872,-0.00517 0.56327,-0.036173 0.29456,-0.031006 0.5426,-0.093017 0.24805,-0.062012 0.29973,-0.1705317 -0.1447,-1.0696987 -0.29456,-2.1393974 -0.14469,-1.0748664 -0.29455,-2.1497328 -0.031,-0.2170403 -0.0775,-0.4237454 -0.0465,-0.2118727 -0.17053,-0.4082425 -0.0362,-0.056844 -0.0465,-0.072347 -0.005,-0.02067 0.0258,-0.082682 0.0827,-0.1498612 0.17053,-0.2945547 0.0879,-0.1498612 0.17053,-0.2997224 z m -0.78548,-1.5502879 q 0,0.08785 0.0465,0.1395259 0.0517,0.046509 0.11886,0.072347 0.0672,0.025838 0.14469,0.031006 0.0827,0.00517 0.1447,0.00517 0.14469,0 0.26871,-0.062011 0.12919,-0.062012 0.23255,-0.1601965 0.0103,-0.093017 -0.0207,-0.1963698 -0.031,-0.1033525 -0.0982,-0.1860345 -0.0672,-0.082682 -0.16536,-0.1291907 -0.0982,-0.051676 -0.22738,-0.041341 -0.0775,0.020671 -0.15503,0.077514 -0.0775,0.051676 -0.14469,0.124023 -0.062,0.072347 -0.10335,0.1601964 -0.0414,0.082682 -0.0414,0.1653641 z m 1.20923,-0.1343583 q 0,0.1756993 -0.0465,0.3410634 -0.0465,0.165364 -0.14469,0.2945547 -0.0982,0.1291907 -0.25322,0.2067051 -0.14986,0.077514 -0.36173,0.077514 -0.26355,0 -0.44442,-0.1705317 -0.18086,-0.1705317 -0.1912,-0.4547512 0,-0.1446935 0.0413,-0.346231 0.0465,-0.206705 0.13953,-0.3979072 0.093,-0.1912022 0.23771,-0.33072814 0.14986,-0.14469355 0.35657,-0.17053168 0.19637,-0.0206705 0.32556,0.0775144 0.12919,0.0981849 0.2067,0.24804612 0.0723,0.1550288 0.10335,0.3307281 0.031,0.1705317 0.031,0.2945547 z m -5.77224,8.6712772 q -0.16536,0 -0.24805,-0.124023 -0.0827,-0.12919 -0.0827,-0.2790515 0,-0.1498611 0.0827,-0.2790518 0.0827,-0.1291907 0.24805,-0.1291907 h 0.093 q 0.15503,0 0.34623,-0.025838 0.1912,-0.025838 0.40307,-0.082682 0.21188,-0.062012 0.42892,-0.1550288 0.21704,-0.093017 0.41857,-0.2325433 -0.11885,-0.1395259 -0.28422,-0.248046 -0.16536,-0.1085202 -0.31005,-0.1291907 -0.10852,-0.015503 -0.21704,0.010335 -0.10852,0.020671 -0.20154,0.098185 -0.0465,0.046509 -0.0879,0.010335 -0.0413,-0.036173 -0.031,-0.098185 0.0155,-0.077514 0.0413,-0.1860346 0.031,-0.1085201 0.0827,-0.2222079 0.0517,-0.1188554 0.12402,-0.2325432 0.0775,-0.1188554 0.18087,-0.2118727 0.46508,-0.3979073 1.09037,-0.3979073 0.18086,0 0.39274,0.031006 0.21704,0.031006 0.40824,0.1136878 0.1912,0.082682 0.32039,0.2222079 0.13436,0.1395259 0.13953,0.3565663 0.0103,0.3100576 -0.13436,0.5270979 -0.14469,0.2170403 -0.37724,0.4030749 0.0827,0.1343583 0.21704,0.2222079 0.13436,0.08785 0.30489,0.1343583 0.16537,0.051676 0.35657,0.072347 0.19637,0.02067 0.40307,0.02067 h 0.093 q 0.1602,0 0.23771,0.1291907 0.0827,0.1291907 0.0827,0.2790518 0,0.149862 -0.0827,0.279052 -0.0775,0.124023 -0.23771,0.124023 h -0.093 q -0.30489,0 -0.56844,-0.04651 -0.26354,-0.04651 -0.49609,-0.149861 -0.45475,-0.206706 -0.83199,-0.6511219 -0.53743,0.4547512 -1.05419,0.6562889 -0.25838,0.09819 -0.52193,0.144694 -0.26355,0.04651 -0.5426,0.04651 z m 2.63032,-5.8084121 q -0.25838,0.1188554 -0.5426,0.2480461 -0.27905,0.1291906 -0.5426,0.248046 -0.26355,0.1188555 -0.49093,0.222208 -0.22737,0.1033525 -0.38757,0.1705317 -0.0362,0.015503 -0.0517,0 -0.0155,-0.015503 0,-0.046509 l 0.25321,-0.5064274 q 0.0258,-0.041341 0.0517,-0.056844 0.031,-0.02067 0.0568,-0.036173 l 1.88618,-0.8371555 q 0.0827,-0.036173 0.0517,0.041341 l -0.21187,0.4805893 q -0.0155,0.046509 -0.0724,0.072347 z m -5.82908,3.9428993 q -0.40308,-0.1240231 -0.863,-0.2325433 -0.45991,-0.1085201 -0.82165,-0.1291906 -0.28422,-0.010335 -0.55293,0.093017 -0.26355,0.1033525 -0.47026,0.2945547 -0.0362,0.031006 -0.093,0.025838 -0.0568,-0.00517 -0.0413,-0.062012 0.0568,-0.2532137 0.15503,-0.4754217 0.10336,-0.2273755 0.25322,-0.3927396 0.15503,-0.1653641 0.3669,-0.2480461 0.21704,-0.08785 0.51159,-0.067179 0.28939,0.025838 0.56844,0.093017 0.28422,0.067179 0.56327,0.1498611 0.28422,0.082682 0.56327,0.1705317 0.28422,0.08785 0.56844,0.1446936 0.48059,0.1085201 0.95085,0.1395259 0.47025,0.031006 0.96634,0.00517 0.0672,0 0.0413,0.062011 l -0.32039,0.7131325 q -0.13952,-0.015503 -0.27905,-0.031006 -0.13436,-0.015503 -0.26872,-0.036173 -0.031,0.1860345 0.0103,0.3565662 0.0465,0.1705317 0.21187,0.2842195 0.11886,0.08785 0.27905,0.1291907 0.1602,0.041341 0.33073,0.056844 0.1757,0.015503 0.34623,0.015503 0.17053,-0.00517 0.31523,-0.00517 h 0.093 q 0.14987,0 0.22738,0.1291907 0.0775,0.1291907 0.0775,0.2790518 0,0.1498617 -0.0775,0.2790517 -0.0775,0.124023 -0.22738,0.124023 -0.0258,0 -0.0517,0 -0.0207,0 -0.0413,0 -0.22221,0 -0.45992,-0.0052 -0.23771,-0.01033 -0.45475,-0.05168 -0.21704,-0.04651 -0.40308,-0.139526 -0.18603,-0.09302 -0.30489,-0.2635496 -0.17053,-0.248046 -0.20154,-0.5632713 -0.0258,-0.3203928 -0.005,-0.6097799 -0.28422,0 -0.57878,0.093017 -0.29455,0.093017 -0.56844,0.2273756 -0.45992,0.2325432 -0.894,0.5064274 -0.42891,0.2738843 -0.91467,0.4650865 -0.39274,0.1601963 -0.81131,0.2532143 -0.41858,0.08785 -0.88367,0.08785 h -0.093 q -0.16537,0 -0.24805,-0.124023 -0.0827,-0.12919 -0.0827,-0.2790519 0,-0.1498611 0.0827,-0.2790518 0.0827,-0.1291907 0.24805,-0.1291907 0.0207,0 0.0465,0 0.0207,0 0.0465,0 0.3359,0 0.7183,-0.062011 0.38241,-0.067179 0.72864,-0.1808669 0.44441,-0.1446936 0.87333,-0.3565663 0.42891,-0.2118727 0.86816,-0.4547511 z m -0.55294,2.4959638 0.63562,0.527098 q 0.0413,0.03617 0.005,0.08268 l -0.42375,0.532265 q -0.0362,0.05168 -0.0827,0.01034 l -0.64079,-0.527098 q -0.0413,-0.03617 0,-0.08785 l 0.42892,-0.527098 q 0.0362,-0.04651 0.0775,-0.01034 z m -1.01285,-6.7127472 q 0,0.08785 0.0465,0.139526 0.0517,0.046509 0.11885,0.072347 0.0672,0.025838 0.1447,0.031006 0.0827,0.00517 0.14469,0.00517 0.14469,0 0.26872,-0.062012 0.12919,-0.062011 0.23254,-0.1601964 0.0103,-0.093017 -0.0207,-0.1963698 -0.031,-0.1033526 -0.0982,-0.1860346 -0.0672,-0.082682 -0.16536,-0.1291907 -0.0982,-0.051676 -0.22738,-0.041341 -0.0775,0.020671 -0.15503,0.077514 -0.0775,0.051676 -0.14469,0.1240231 -0.062,0.072347 -0.10335,0.1601964 -0.0413,0.082682 -0.0413,0.165364 z m 1.20922,-0.1343582 q 0,0.1756993 -0.0465,0.3410633 -0.0465,0.1653641 -0.14469,0.2945547 -0.0982,0.1291907 -0.25321,0.2067051 -0.14986,0.077514 -0.36174,0.077514 -0.26355,0 -0.44441,-0.1705317 -0.18087,-0.1705316 -0.19121,-0.4547511 0,-0.1446936 0.0413,-0.346231 0.0465,-0.2067051 0.13952,-0.3979073 0.093,-0.1912022 0.23771,-0.3307281 0.14986,-0.1446935 0.35657,-0.1705317 0.19637,-0.020671 0.32556,0.077514 0.12919,0.098185 0.2067,0.2480461 0.0724,0.1550288 0.10336,0.3307281 0.031,0.1705317 0.031,0.2945548 z M 275.0468,10.09018 q -0.0413,0.113688 -0.093,0.237711 -0.0465,0.124023 -0.11885,0.144694 -0.10336,0.01033 -0.26355,-0.01034 -0.1602,-0.02067 -0.34107,-0.06718 -0.18086,-0.04651 -0.3669,-0.113687 -0.18086,-0.07235 -0.33073,-0.155029 -0.14986,-0.08785 -0.24804,-0.1860347 -0.0982,-0.1033525 -0.10852,-0.2118727 -0.21704,0.3100574 -0.43925,0.5581034 -0.22221,0.248046 -0.54777,0.439249 0.22221,0.03101 0.48059,0.09818 0.25838,0.06718 0.47542,0.180867 0.21704,0.113688 0.3514,0.28422 0.13436,0.170532 0.11369,0.408242 -0.0155,0.253214 -0.13436,0.485757 -0.11886,0.232544 -0.31523,0.439249 -0.19636,0.211872 -0.45991,0.392739 -0.25839,0.180867 -0.55294,0.325561 -0.29455,0.149861 -0.61495,0.263549 -0.31522,0.118855 -0.63562,0.196369 -0.31522,0.08268 -0.62011,0.124024 -0.30489,0.04134 -0.57361,0.04134 -0.46508,0 -0.86299,-0.124023 -0.39274,-0.118856 -0.68213,-0.37207 -0.28938,-0.248046 -0.45475,-0.63045 -0.1602,-0.377237 -0.1602,-0.899167 0,-0.258381 0.0517,-0.511595 0.0568,-0.248046 0.14469,-0.485757 0.093,-0.237711 0.21704,-0.465087 0.12403,-0.222207 0.26355,-0.428913 0.0207,-0.031 0.0413,-0.02584 0.0258,0.0052 0.0465,0.02584 0.0207,0.0155 0.031,0.04651 0.0103,0.02584 0,0.04651 -0.1912,0.372069 -0.31006,0.764808 -0.11369,0.397908 -0.093,0.800983 0.0207,0.387572 0.19121,0.661456 0.17053,0.273884 0.42891,0.444416 0.25838,0.170531 0.57877,0.248046 0.3204,0.07751 0.64079,0.07751 0.33073,0 0.67696,-0.05168 0.34623,-0.05168 0.68729,-0.144694 0.34107,-0.08785 0.66663,-0.21704 0.33072,-0.124023 0.62528,-0.273884 0.0775,-0.04134 0.2067,-0.118856 0.13436,-0.07235 0.25839,-0.160196 0.12919,-0.08268 0.2222,-0.165364 0.0982,-0.08268 0.10852,-0.139526 -0.0207,-0.05168 -0.16536,-0.118855 -0.13953,-0.06718 -0.3514,-0.139526 -0.2067,-0.06718 -0.46508,-0.134359 -0.25839,-0.06201 -0.5116,-0.113687 -0.25321,-0.04651 -0.48059,-0.07752 -0.22737,-0.03101 -0.37724,-0.03101 0,-0.05168 0.031,-0.155028 0.0362,-0.103353 0.0879,-0.211873 0.0517,-0.103353 0.10335,-0.191202 0.0568,-0.08785 0.0982,-0.10852 0.32039,-0.186035 0.61494,-0.341064 0.29456,-0.155029 0.56328,-0.3307278 0.26871,-0.1756994 0.51676,-0.3979073 0.24804,-0.222208 0.47542,-0.5374332 0.0827,-0.1136878 0.18087,-0.2273756 0.10335,-0.1136878 0.2067,-0.2015374 0.10335,-0.08785 0.20154,-0.1446936 0.10335,-0.056844 0.1912,-0.062012 0.0982,0.010335 0.20671,0.098185 0.11368,0.08785 0.2222,0.2067051 0.11369,0.1188554 0.21188,0.2428785 0.10335,0.1188554 0.1757,0.1912021 0.14469,0.1343583 0.29455,0.2170404 0.14986,0.082682 0.29972,0.1291906 0.14986,0.046509 0.28939,0.062012 0.14469,0.015503 0.27905,0.015503 h 0.0982 q 0.15503,0.00517 0.23254,0.1291907 0.0827,0.1240231 0.0827,0.2738842 0,0.1498613 -0.0827,0.2790513 -0.0775,0.124023 -0.23254,0.124023 h -0.0982 q -0.35656,0 -0.62528,-0.06201 -0.26355,-0.06718 -0.45475,-0.160197 z m -1.01286,-1.2712357 q -0.0982,-0.010335 -0.22737,0.08785 -0.12919,0.098185 -0.22738,0.222208 -0.031,0.041341 -0.031,0.056844 0.005,0.015503 0.031,0.036173 0.12403,0.08785 0.23255,0.1550288 0.11368,0.062012 0.2222,0.1085201 0.10852,0.046509 0.22221,0.08785 0.11369,0.036173 0.24288,0.072347 0.0517,0.015503 0.0723,0.010335 0.0207,-0.00517 -0.0207,-0.062012 -0.24288,-0.3255605 -0.36174,-0.5426008 -0.11369,-0.2170403 -0.15503,-0.2325432 z m 1.01803,4.9247487 q -0.50643,0.160196 -0.99736,0.32556 -0.49092,0.165364 -0.9405,0.310058 -0.0827,0.02584 -0.0413,-0.05168 l 0.21187,-0.392739 q 0.0155,-0.03101 0.0258,-0.04651 0.0155,-0.0155 0.0465,-0.02584 0.13952,-0.05168 0.3669,-0.129191 0.22737,-0.07235 0.49092,-0.160196 0.26872,-0.08268 0.54777,-0.170532 0.27905,-0.08785 0.53227,-0.165364 0.0413,-0.0155 0.0517,-0.01034 0.0103,0.01034 -0.0103,0.05168 l -0.22221,0.403075 q -0.0155,0.02067 -0.031,0.03617 -0.0103,0.02067 -0.031,0.02584 z"
         id="text29"
         style="font-size:10.5833px;line-height:1.25;font-family:'KFGQPC Uthmanic Script HAFS';-inkscape-font-specification:'KFGQPC Uthmanic Script HAFS';direction:rtl;stroke-width:0.264583"
         aria-label="الشَّيْخُ أَحْمَد بن عَلِي الْعَجْمِي" />
    </g>
  </g>
</svg>
