<?xml version="1.0" encoding="UTF-8" standalone="no"?>
<!-- Created with Inkscape (http://www.inkscape.org/) -->

<svg
   width="132.50293mm"
   height="15.48649mm"
   viewBox="0 0 132.50293 15.48649"
   version="1.1"
   id="svg1"
   xmlns="http://www.w3.org/2000/svg"
   xmlns:svg="http://www.w3.org/2000/svg">
  <defs
     id="defs1" />
  <g
     id="layer1"
     transform="translate(-1485.6513)">
    <g
       id="g24"
       transform="translate(1357.8228,-3.2005849)">
      <path
         d="m 259.13155,6.6241525 q 0.0827,0.00517 0.0775,0.1912022 -0.0103,0.1963698 0.005,0.387572 0.0155,0.1860346 0.0413,0.3772368 0.0517,0.4599188 0.12402,0.9508433 0.0723,0.4857569 0.1447,0.9818491 0.0672,0.4909241 0.13435,0.9818491 0.0672,0.490925 0.11369,0.956011 0.0207,0.180867 0.0258,0.423745 0.0103,0.242879 -0.005,0.496093 -0.0103,0.248046 -0.0568,0.480589 -0.0413,0.232543 -0.11886,0.387572 -0.0413,0.08785 -0.0982,0.113688 -0.0465,0.0052 -0.0413,-0.04134 -0.031,-0.449584 -0.0775,-0.904335 -0.0413,-0.459919 -0.10852,-0.935341 -0.0672,-0.490924 -0.13436,-0.971513 -0.0672,-0.48059 -0.12919,-0.961179 -0.0672,-0.4805893 -0.13435,-0.9611786 -0.062,-0.4805892 -0.12403,-0.9663462 0.0155,-0.1188554 0.0465,-0.2428784 0.031,-0.1291907 0.0879,-0.263549 0.12402,-0.3358957 0.16537,-0.4082425 0.0465,-0.072347 0.062,-0.072347 z m -2.21691,-0.2893871 q 0.0155,-0.046509 0.0413,-0.056844 0.0258,-0.010335 0.0413,0.056844 0.0413,0.1240231 0.093,0.2532137 0.0517,0.1291907 0.11886,0.2532138 0.0723,0.124023 0.16536,0.2325432 0.093,0.1033525 0.21188,0.1756993 -0.0723,0.124023 -0.1292,0.2170403 -0.0517,0.08785 -0.0879,0.165364 -0.0362,0.072347 -0.0517,0.1446936 -0.0155,0.067179 -0.005,0.1446935 0.0568,0.4960922 0.12919,0.997352 0.0775,0.4960922 0.1447,0.9921844 0.0723,0.4960918 0.12402,0.9921838 0.0568,0.496093 0.0723,0.997352 0.005,0.165365 -0.0207,0.335896 -0.0258,0.170532 -0.0827,0.325561 -0.0568,0.155028 -0.14469,0.294554 -0.0827,0.134359 -0.1912,0.227376 -0.14986,0.129191 -0.37207,0.186035 -0.21704,0.05168 -0.53227,0.05168 h -0.093 q -0.16536,0 -0.24804,-0.124023 -0.0879,-0.129191 -0.0879,-0.279052 0,-0.155029 0.0879,-0.279052 0.0827,-0.129191 0.24804,-0.129191 h 0.093 q 0.17053,0 0.33073,-0.01033 0.1602,-0.0155 0.29455,-0.04651 0.13436,-0.03617 0.22738,-0.09302 0.0982,-0.06201 0.13953,-0.155029 -0.10336,-1.090369 -0.26872,-2.149732 -0.16536,-1.0645314 -0.32039,-2.1393978 -0.031,-0.2170403 -0.0672,-0.4237454 -0.031,-0.2118727 -0.14986,-0.4082425 -0.0413,-0.056844 -0.0465,-0.072347 -0.005,-0.02067 0.0258,-0.082682 0.0879,-0.1498612 0.16019,-0.30489 0.0775,-0.1601964 0.14986,-0.2893871 z m -3.37962,5.2503086 q 0.062,-0.103352 0.12402,-0.09819 0.0672,0.0052 0.0362,0.124023 -0.0258,0.108521 -0.0723,0.227376 -0.0465,0.113688 -0.10336,0.248046 0.0362,0.08785 0.1602,0.175699 0.12919,0.08268 0.28939,0.144694 0.15503,0.05684 0.31522,0.08268 0.16537,0.02584 0.27389,-0.0155 0.17569,-0.05684 0.28938,-0.315225 0.11369,-0.263549 0.19637,-0.552936 0.0413,-0.155029 0.10852,-0.180867 0.0672,-0.02584 0.0775,0.113688 0.0207,0.258381 0.093,0.444415 0.0724,0.186035 0.21704,0.299723 0.27389,0.227375 0.89917,0.227375 h 0.093 q 0.16536,0 0.24805,0.129191 0.0827,0.129191 0.0827,0.279052 0,0.149861 -0.0827,0.279052 -0.0827,0.124023 -0.24805,0.124023 h -0.093 q -0.27388,0 -0.47025,-0.03101 -0.19637,-0.03617 -0.38241,-0.113688 -0.43408,-0.186034 -0.65629,-0.614947 -0.0362,0.08268 -0.093,0.19637 -0.0568,0.113687 -0.13436,0.222207 -0.0724,0.103353 -0.1602,0.1757 -0.0879,0.07235 -0.18603,0.07235 -0.12919,0 -0.29972,-0.03101 -0.17054,-0.03101 -0.34107,-0.09818 -0.1757,-0.06201 -0.33589,-0.160197 -0.15503,-0.103352 -0.26355,-0.242878 -0.18087,0.206705 -0.40824,0.346231 -0.22221,0.134358 -0.47543,0.175699 -0.25838,0.04651 -0.5426,0 -0.27905,-0.05168 -0.5736,-0.206705 -0.13436,0.09819 -0.29456,0.160197 -0.16019,0.06201 -0.31522,0.09302 -0.1602,0.03617 -0.30489,0.04651 -0.1447,0.01033 -0.25322,0.01033 h -0.093 q -0.15503,0 -0.23255,-0.124023 -0.0775,-0.129191 -0.0775,-0.279052 0,-0.149861 0.0775,-0.279052 0.0775,-0.129191 0.23255,-0.129191 h 0.093 q 0.31006,0 0.57361,-0.02067 0.26355,-0.02584 0.49609,-0.113688 0.22738,-0.08268 0.42891,-0.253214 0.20671,-0.170531 0.39274,-0.465086 0.0672,-0.10852 0.11369,-0.09302 0.0517,0.01033 0.031,0.118855 -0.0362,0.186035 -0.11886,0.397907 -0.0827,0.211873 -0.20154,0.361734 0.10336,0.03101 0.25322,0.04651 0.15503,0.0155 0.32556,0 0.25321,-0.02067 0.47542,-0.103353 0.22738,-0.08785 0.40824,-0.263549 0.11369,-0.103352 0.21188,-0.23771 0.10335,-0.139526 0.19637,-0.299723 z m 0.45475,-1.162716 q -0.031,0.03617 -0.0465,0.03617 -0.0155,0 -0.0517,-0.02584 L 253.2818,9.9521042 252.88389,10.50504 q -0.0362,0.04651 -0.0775,0.01034 l -0.65112,-0.496092 q -0.0362,-0.031005 -0.0103,-0.067179 l 0.41341,-0.5891095 q 0.0258,-0.031006 0.0362,-0.025838 0.0155,0 0.0362,0.015503 l 0.61495,0.470254 0.41858,-0.5374332 q 0.031,-0.041341 0.062,-0.02067 l 0.65112,0.5426008 q 0.031,0.031006 0,0.072347 z M 253.01309,8.2416197 253.6487,8.76355 q 0.0413,0.031006 0.005,0.072347 l -0.42374,0.5270979 q -0.0362,0.046509 -0.0827,0.010335 l -0.64078,-0.5167627 q -0.0413,-0.036173 0,-0.08785 l 0.42891,-0.5167626 q 0.0362,-0.046509 0.0775,-0.010335 z m 0.0413,-1.4314326 q -0.11369,0.2273756 -0.25839,0.3410634 -0.15503,0.1188554 -0.3669,0.1240231 -0.17053,0.00517 -0.29972,-0.08785 -0.12402,-0.093017 -0.14469,-0.3255605 -0.0103,-0.1033525 0.0103,-0.2118727 0.0207,-0.1136878 0.062,-0.2118727 0.0413,-0.093017 0.093,-0.1601964 0.0568,-0.072347 0.11886,-0.093017 0.062,-0.00517 0.0103,0.093017 -0.031,0.056844 -0.0517,0.1343583 -0.0155,0.077514 -0.0207,0.1550288 0,0.072347 0.0155,0.124023 0.0155,0.051676 0.0672,0.098185 0.0775,0.056844 0.16536,0.056844 0.0879,-0.00517 0.17053,-0.041341 0.0879,-0.036173 0.15503,-0.082682 0.0724,-0.051676 0.14469,-0.1343583 0.0672,-0.077514 0.0982,-0.1963698 0.031,-0.1188554 0.0413,-0.1963698 0.005,-0.067179 0.0362,-0.1343583 0.031,-0.067179 0.10336,-0.067179 0.0155,0 0.0207,0.031006 0.0103,0.025838 0.0155,0.062011 0.005,0.036173 0.005,0.072347 0,0.031006 0,0.046509 0,0.1498612 0.0465,0.2377108 0.0465,0.082682 0.18603,0.1136878 0.0724,0.015503 0.18604,-0.015503 0.11885,-0.031006 0.2067,-0.1033526 0.0103,-0.010335 0.005,-0.056844 -0.005,-0.046509 -0.0207,-0.098185 -0.0103,-0.051676 -0.0362,-0.1085201 -0.0207,-0.062012 -0.0258,-0.072347 l 0.1912,-0.3617339 q 0.0517,0.025838 0.0775,0.1136878 0.031,0.08785 0.0362,0.2015374 0.0103,0.1085202 0,0.222208 -0.0103,0.1136878 -0.0258,0.1912022 -0.062,0.1912022 -0.17053,0.346231 -0.10336,0.1550288 -0.3204,0.1963698 -0.1912,0.036173 -0.32039,-0.025838 -0.12919,-0.062012 -0.2067,-0.1756994 z m 0.93017,-2.0773859 q -0.25838,0.1188554 -0.5426,0.2480461 -0.27905,0.1291906 -0.5426,0.2480461 -0.26355,0.1188554 -0.49093,0.2222079 -0.22737,0.1033525 -0.38757,0.1705317 -0.0362,0.015503 -0.0517,0 -0.0155,-0.015503 0,-0.046509 l 0.25322,-0.5064274 q 0.0258,-0.041341 0.0517,-0.056844 0.031,-0.020671 0.0568,-0.036173 l 1.88618,-0.8371555 q 0.0827,-0.036173 0.0517,0.041341 l -0.21188,0.4805893 q -0.0155,0.046509 -0.0723,0.072347 z M 249.09602,15.38328 q -0.0258,0.03101 -0.0413,0.03101 -0.0155,0.0052 -0.0568,-0.02584 l -0.61495,-0.48059 -0.40307,0.552936 q -0.0362,0.04651 -0.0775,0.0155 l -0.65629,-0.506427 q -0.0362,-0.02584 -0.0103,-0.06201 l 0.41858,-0.594277 q 0.0207,-0.03101 0.0362,-0.03101 0.0155,0 0.0362,0.02067 l 0.62012,0.470254 0.42374,-0.542601 q 0.031,-0.04134 0.062,-0.0155 l 0.65628,0.547769 q 0.0362,0.02584 0,0.07235 z m -2.16006,-2.061883 h -0.093 q -0.15503,0 -0.23254,-0.124023 -0.0775,-0.129191 -0.0775,-0.28422 0,-0.07751 0.0207,-0.149861 0.0155,-0.07235 0.0568,-0.129191 0.0362,-0.05684 0.0982,-0.09302 0.0568,-0.03617 0.13436,-0.03617 h 0.093 q 0.16019,0 0.35656,-0.01033 0.20154,-0.01034 0.37724,-0.05684 0.17053,-0.04651 0.3359,-0.139526 0.16536,-0.09818 0.30489,-0.268717 0.10335,-0.124023 0.16536,-0.253214 0.0672,-0.12919 0.12919,-0.294554 0.0258,-0.06718 0.0827,-0.07235 0.062,-0.0052 0.0672,0.02584 0.005,0.06201 -0.0103,0.149861 -0.0103,0.08785 -0.0103,0.160197 0,0.134358 0.0672,0.268716 0.0672,0.134359 0.20671,0.242879 0.13952,0.10852 0.3824,0.180867 0.24805,0.06718 0.5581,0.06718 h 0.0982 q 0.0775,0 0.13436,0.03617 0.0568,0.03617 0.093,0.09302 0.0413,0.05684 0.0568,0.129191 0.0207,0.07235 0.0207,0.149861 0,0.155029 -0.0775,0.28422 -0.0723,0.124023 -0.22737,0.124023 h -0.0982 q -0.27905,0 -0.53226,-0.05168 -0.24805,-0.05684 -0.42375,-0.165364 -0.34106,-0.206706 -0.53226,-0.60978 -0.11369,0.232543 -0.26872,0.387572 -0.15503,0.155028 -0.34106,0.253213 -0.19121,0.09818 -0.43408,0.144694 -0.24288,0.04134 -0.48059,0.04134 z m 0.58911,-5.565534 q 0,0.08785 0.0465,0.1395259 0.0517,0.046509 0.11885,0.072347 0.0672,0.025838 0.1447,0.031006 0.0827,0.00517 0.14469,0.00517 0.14469,0 0.26872,-0.062011 0.12919,-0.062012 0.23254,-0.1601965 0.0103,-0.093017 -0.0207,-0.1963698 -0.031,-0.1033525 -0.0982,-0.1860346 -0.0672,-0.082682 -0.16536,-0.1291906 -0.0982,-0.051676 -0.22738,-0.041341 -0.0775,0.02067 -0.15502,0.077514 -0.0775,0.051676 -0.1447,0.124023 -0.062,0.072347 -0.10335,0.1601964 -0.0413,0.082682 -0.0413,0.1653641 z m 1.20922,-0.1343583 q 0,0.1756993 -0.0465,0.3410634 -0.0465,0.165364 -0.14469,0.2945547 -0.0982,0.1291907 -0.25321,0.2067051 -0.14986,0.077514 -0.36174,0.077514 -0.26355,0 -0.44441,-0.1705317 -0.18087,-0.1705317 -0.1912,-0.4547512 0,-0.1446935 0.0413,-0.346231 0.0465,-0.206705 0.13952,-0.3979072 0.093,-0.1912022 0.23771,-0.3307282 0.14986,-0.1446935 0.35657,-0.1705316 0.19637,-0.020671 0.32556,0.077514 0.12919,0.098185 0.2067,0.2480461 0.0724,0.1550288 0.10336,0.3307281 0.031,0.1705316 0.031,0.2945547 z m -6.09263,2.7801833 q 0.21187,-0.01034 0.44441,0.02584 0.23255,0.03101 0.66146,0.113688 0.42891,0.07751 0.86299,0.09302 0.47026,0.0155 0.90951,0.0052 0.43925,-0.01034 0.9095,-0.05168 0.0207,-0.0052 0.031,0 0.0103,0.0052 0.005,0.03101 -0.0672,0.201537 -0.14986,0.397907 -0.0775,0.19637 -0.1757,0.382405 -0.23254,0.02584 -0.46508,0.06201 -0.23255,0.03101 -0.45992,0.07752 -0.0465,0.377236 0.0827,0.578774 0.13436,0.19637 0.3824,0.284219 0.24805,0.08785 0.57361,0.09818 0.33073,0.01033 0.68213,0.01033 0.0258,0 0.0465,0 0.0207,0 0.0465,0 0.15503,0 0.23255,0.129191 0.0827,0.124023 0.0827,0.273884 0,0.155029 -0.0827,0.28422 -0.0775,0.124023 -0.23255,0.124023 -0.0258,0 -0.0465,0 -0.0207,0 -0.0465,0 -0.57361,0.01034 -1.02319,-0.05684 -0.44959,-0.07235 -0.7183,-0.315225 -0.21188,-0.191202 -0.29973,-0.511595 -0.0827,-0.325561 -0.0207,-0.826821 -0.45475,0.108521 -0.87849,0.289387 -0.42375,0.1757 -0.78031,0.459919 -0.31006,0.248046 -0.55811,0.558104 -0.24288,0.310058 -0.41341,0.666624 -0.16536,0.356566 -0.25321,0.73897 -0.0879,0.387572 -0.0879,0.78548 0,0.43408 0.16536,0.84749 0.17053,0.418578 0.44959,0.764809 0.27905,0.351399 0.63561,0.604613 0.36174,0.258381 0.74414,0.366901 0.50126,0.144694 1.02836,0.191202 0.53227,0.05168 0.98702,0.03617 0.50126,-0.0155 1.02835,-0.06201 0.5271,-0.04651 1.02836,-0.04651 0.062,0 0.0672,0.03101 0.005,0.03617 -0.062,0.113688 -0.0672,0.07751 -0.13953,0.08785 -0.31005,0.04651 -0.59944,0.139526 -0.28422,0.09819 -0.56327,0.196369 -0.27905,0.103353 -0.56844,0.186035 -0.28422,0.08785 -0.59428,0.10852 -0.75447,0.05168 -1.47794,-0.118855 -0.7183,-0.170532 -1.28157,-0.583942 -0.56327,-0.408243 -0.9095,-1.064531 -0.34623,-0.651121 -0.34623,-1.555456 0,-0.594277 0.15502,-1.193722 0.15503,-0.594277 0.43925,-1.126542 0.28939,-0.537433 0.69246,-0.971514 0.40825,-0.439248 0.90434,-0.713133 0.0207,-0.0155 -0.0103,-0.02584 -0.031,-0.01033 -0.0672,-0.0155 -0.23771,-0.02584 -0.51159,-0.04651 -0.26872,-0.02584 -0.53743,-0.0052 -0.26355,0.02067 -0.4961,0.103353 -0.23254,0.07751 -0.38757,0.258381 -0.031,0.03617 -0.0672,0.03101 -0.031,-0.0052 -0.0207,-0.07235 0.031,-0.237711 0.10852,-0.449584 0.0827,-0.211872 0.21188,-0.366901 0.12919,-0.160196 0.31005,-0.253214 0.18087,-0.09818 0.42375,-0.103352 z m 1.08003,-2.1342302 0.63562,0.527098 q 0.0413,0.036173 0.005,0.082682 l -0.42375,0.5322656 q -0.0362,0.051676 -0.0827,0.010335 l -0.64078,-0.5270979 q -0.0413,-0.036173 0,-0.08785 l 0.42891,-0.5270979 q 0.0362,-0.046509 0.0775,-0.010335 z m -1.1317,-0.6304503 q 0.17053,-0.098185 0.33589,-0.1963698 0.16537,-0.098185 0.32039,-0.2118727 0.1602,-0.1136878 0.31523,-0.2480461 0.15503,-0.1343583 0.29972,-0.30489 -0.13952,-0.041341 -0.29455,-0.1395259 -0.15503,-0.098185 -0.24805,-0.2118727 -0.0465,-0.056844 -0.0568,-0.1446936 -0.0103,-0.093017 0.0155,-0.1705316 0.0413,-0.1240231 0.11369,-0.2687166 0.0775,-0.1446936 0.18087,-0.263549 0.10335,-0.1188554 0.22737,-0.1912022 0.12919,-0.077514 0.25838,-0.072347 0.1602,0.010335 0.23255,0.1550288 0.0723,0.139526 0.0878,0.3255605 0.0207,0.1860346 0,0.3669015 -0.0155,0.180867 -0.0258,0.263549 0,0.025838 0.0155,0.041341 0.062,0.036173 0.0827,0.067179 0.0258,0.031006 0.0413,0.072347 0.031,0.077514 0.0103,0.1860346 -0.0155,0.1085202 -0.062,0.1653641 -0.0413,0.051676 -0.0724,0.051676 -0.031,-0.00517 -0.062,-0.051676 -0.0258,-0.031006 -0.0517,-0.056844 -0.0207,-0.031006 -0.0672,-0.051676 -0.14469,0.1756993 -0.31005,0.3358957 -0.1602,0.1601965 -0.34107,0.2945548 -0.18603,0.1291906 -0.38757,0.2325432 -0.20154,0.1033525 -0.42375,0.1705316 -0.0879,0.025838 -0.18086,0.036173 -0.093,0.00517 -0.10336,-0.02067 -0.0103,-0.031006 0.0362,-0.072347 0.0465,-0.046509 0.11369,-0.08785 z m 0.97151,-1.7363226 q 0.10852,0.1498612 0.25838,0.2377108 0.14986,0.082682 0.27389,0.1136878 h 0.0103 q 0,-0.041341 0.005,-0.1085201 0.005,-0.072347 0,-0.1446936 0,-0.072347 -0.0207,-0.1395259 -0.0155,-0.067179 -0.062,-0.1136878 -0.0413,-0.036173 -0.11886,-0.031006 -0.0724,0 -0.14469,0.025838 -0.0724,0.025838 -0.13436,0.072347 -0.0568,0.041341 -0.0672,0.08785 z m -5.65339,6.3355101 q -0.36173,0.10852 -0.79064,0.232543 -0.42375,0.118856 -0.8785,0.242879 -0.45475,0.118855 -0.91984,0.232543 -0.46508,0.10852 -0.89916,0.19637 -0.43408,0.08268 -0.82166,0.134358 -0.38757,0.04651 -0.69246,0.04651 h -0.093 q -0.16536,0 -0.24287,-0.124023 -0.0827,-0.129191 -0.0827,-0.279052 0,-0.155029 0.0827,-0.279052 0.0775,-0.129191 0.24287,-0.129191 h 0.093 q 0.0775,0 0.21187,-0.0052 0.13953,-0.01033 0.30489,-0.02067 0.16537,-0.01034 0.34623,-0.02584 0.18087,-0.0155 0.3514,-0.03101 0.17054,-0.02067 0.31523,-0.04134 0.14986,-0.02067 0.24288,-0.04134 -0.12403,-0.06718 -0.24288,-0.186034 -0.11369,-0.118856 -0.21187,-0.268717 -0.0982,-0.149861 -0.16537,-0.320393 -0.0672,-0.170531 -0.093,-0.341063 -0.0465,-0.320393 0.062,-0.656289 0.10852,-0.341063 0.31522,-0.6252825 0.21187,-0.2893871 0.49609,-0.4857569 0.28939,-0.2015374 0.59945,-0.2480461 0.38757,-0.056844 0.7028,0.00517 0.31522,0.056844 0.56327,0.1912022 0.24804,0.1291906 0.42891,0.3100576 0.18087,0.1808669 0.30489,0.3617337 0.0207,0.03101 0.005,0.05684 -0.0103,0.02584 -0.0413,0.04134 -0.0258,0.0155 -0.062,0.02067 -0.0362,0 -0.062,-0.0155 -0.33072,-0.1912015 -0.66662,-0.2428778 -0.3359,-0.051676 -0.74931,-0.02067 -0.20153,0.015503 -0.41341,0.062012 -0.2067,0.046509 -0.3979,0.1188548 -0.19121,0.07235 -0.3514,0.165364 -0.1602,0.09302 -0.25322,0.19637 0,0.09302 0.0362,0.222208 0.0362,0.124023 0.10335,0.258382 0.0672,0.134358 0.15503,0.268716 0.093,0.129191 0.19637,0.237711 0.10852,0.10852 0.23771,0.21704 0.12919,0.103353 0.25321,0.186035 0.12919,0.08268 0.24288,0.134358 0.11369,0.05168 0.18604,0.05168 0.67179,-0.124023 1.33324,-0.310057 0.66146,-0.186035 1.25574,-0.351399 0.0517,-0.01033 0.031,0.02067 -0.13436,0.248046 -0.29455,0.470254 -0.1602,0.222208 -0.27389,0.366901 z m -1.94819,-5.3691639 q -0.25838,0.1188554 -0.5426,0.2480461 -0.27906,0.1291907 -0.5426,0.2480461 -0.26355,0.1188554 -0.49093,0.2222079 -0.22737,0.1033526 -0.38757,0.1705317 -0.0362,0.015503 -0.0517,0 -0.0155,-0.015503 0,-0.046509 l 0.25322,-0.5064275 q 0.0258,-0.041341 0.0517,-0.056844 0.031,-0.02067 0.0568,-0.036173 l 1.88618,-0.8371556 q 0.0827,-0.036173 0.0517,0.041341 l -0.21188,0.4805893 q -0.0155,0.046509 -0.0723,0.072347 z m -6.06679,6.4543659 h -0.093 q -0.15503,0 -0.23255,-0.124023 -0.0775,-0.129191 -0.0775,-0.28422 0,-0.07751 0.0207,-0.149861 0.0155,-0.07235 0.0568,-0.129191 0.0362,-0.05684 0.0982,-0.09302 0.0568,-0.03617 0.13436,-0.03617 h 0.093 q 0.16019,0 0.35656,-0.01033 0.20154,-0.01034 0.37724,-0.05684 0.17053,-0.04651 0.33589,-0.139526 0.16537,-0.09818 0.30489,-0.268717 0.10336,-0.124023 0.16537,-0.253214 0.0672,-0.12919 0.12919,-0.294554 0.0258,-0.06718 0.0827,-0.07235 0.062,-0.0052 0.0672,0.02584 0.005,0.06201 -0.0103,0.149861 -0.0103,0.08785 -0.0103,0.160197 0,0.134358 0.0672,0.268716 0.0672,0.134359 0.2067,0.242879 0.13953,0.10852 0.38241,0.180867 0.24804,0.06718 0.5581,0.06718 h 0.0982 q 0.0775,0 0.13435,0.03617 0.0569,0.03617 0.093,0.09302 0.0413,0.05684 0.0568,0.129191 0.0207,0.07235 0.0207,0.149861 0,0.155029 -0.0775,0.28422 -0.0723,0.124023 -0.22737,0.124023 h -0.0982 q -0.27905,0 -0.53226,-0.05168 -0.24805,-0.05684 -0.42375,-0.165364 -0.34106,-0.206706 -0.53226,-0.60978 -0.11369,0.232543 -0.26872,0.387572 -0.15503,0.155028 -0.34106,0.253213 -0.19121,0.09818 -0.43409,0.144694 -0.24287,0.04134 -0.48058,0.04134 z m 1.42109,0.723468 0.63562,0.527098 q 0.0413,0.03617 0.005,0.08268 l -0.42375,0.532265 q -0.0362,0.05168 -0.0827,0.01034 l -0.64078,-0.527098 q -0.0413,-0.03617 0,-0.08785 l 0.42891,-0.527098 q 0.0362,-0.04651 0.0775,-0.01033 z m -0.83198,-6.5473834 q 0,0.08785 0.0465,0.1395259 0.0517,0.046509 0.11885,0.072347 0.0672,0.025838 0.14469,0.031006 0.0827,0.00517 0.1447,0.00517 0.14469,0 0.26871,-0.062012 0.1292,-0.062011 0.23255,-0.1601964 0.0103,-0.093017 -0.0207,-0.1963699 -0.031,-0.1033525 -0.0982,-0.1860345 -0.0672,-0.082682 -0.16536,-0.1291907 -0.0982,-0.051676 -0.22738,-0.041341 -0.0775,0.02067 -0.15503,0.077514 -0.0775,0.051676 -0.14469,0.124023 -0.062,0.072347 -0.10335,0.1601965 -0.0413,0.082682 -0.0413,0.165364 z m 1.20922,-0.1343583 q 0,0.1756993 -0.0465,0.3410634 -0.0465,0.165364 -0.14469,0.2945547 -0.0982,0.1291907 -0.25321,0.2067051 -0.14987,0.077514 -0.36174,0.077514 -0.26355,0 -0.44441,-0.1705317 -0.18087,-0.1705317 -0.19121,-0.4547511 0,-0.1446936 0.0413,-0.346231 0.0465,-0.2067051 0.13953,-0.3979073 0.093,-0.1912022 0.23771,-0.3307281 0.14986,-0.1446936 0.35657,-0.1705317 0.19637,-0.02067 0.32556,0.077514 0.12919,0.098185 0.2067,0.2480461 0.0724,0.1550288 0.10336,0.3307281 0.031,0.1705317 0.031,0.2945547 z m -4.1186,2.5889809 0.14986,-0.6046124 q 0.0155,-0.062012 0.062,-0.062012 0.0465,0 0.062,0.056844 l 0.52709,1.8655132 q 0.10336,0.366902 0.25839,0.640786 0.16019,0.273884 0.43408,0.459919 0.16019,0.10852 0.3669,0.155029 0.2067,0.04651 0.45992,0.04651 h 0.093 q 0.16537,0 0.24805,0.129191 0.0827,0.129191 0.0827,0.279052 0,0.149861 -0.0827,0.279052 -0.0827,0.124023 -0.24805,0.124023 h -0.093 q -0.28422,0 -0.53227,-0.05168 -0.24288,-0.05684 -0.45475,-0.201538 -0.2067,-0.139526 -0.38757,-0.387572 -0.1757,-0.253214 -0.33073,-0.645953 -0.13436,0.403075 -0.43925,0.666624 -0.24804,0.211872 -0.58394,0.320392 -0.3359,0.103353 -0.65629,0.144694 -0.31522,0.04651 -0.59944,0.02067 -0.27905,-0.03101 -0.42892,-0.170532 -0.0775,-0.07235 -0.11368,-0.19637 -0.031,-0.124023 -0.031,-0.258381 0,-0.139526 0.0207,-0.268717 0.0258,-0.134358 0.0672,-0.227375 0.0155,-0.03101 0.0413,-0.03101 0.031,0 0.0465,0.03101 0.093,0.170531 0.21187,0.232543 0.11886,0.05684 0.28422,0.07235 0.24288,0.02584 0.55811,-0.01034 0.31522,-0.03617 0.61494,-0.12919 0.29973,-0.08785 0.53744,-0.227376 0.24287,-0.144694 0.33072,-0.330728 z m -1.2454,-1.6691435 q 0.17053,-0.098185 0.33589,-0.1963698 0.16537,-0.098185 0.3204,-0.2118727 0.16019,-0.1136878 0.31522,-0.2480461 0.15503,-0.1343583 0.29972,-0.30489 -0.13952,-0.041341 -0.29455,-0.1395259 -0.15503,-0.098185 -0.24805,-0.2118727 -0.0465,-0.056844 -0.0568,-0.1446936 -0.0103,-0.093017 0.0155,-0.1705317 0.0413,-0.124023 0.11369,-0.2687166 0.0775,-0.1446935 0.18087,-0.2635489 0.10335,-0.1188554 0.22737,-0.1912022 0.12919,-0.077514 0.25838,-0.072347 0.1602,0.010335 0.23255,0.1550288 0.0723,0.1395259 0.0879,0.3255605 0.0207,0.1860346 0,0.3669015 -0.0155,0.1808669 -0.0258,0.263549 0,0.025838 0.0155,0.041341 0.062,0.036173 0.0827,0.067179 0.0258,0.031006 0.0413,0.072347 0.031,0.077514 0.0103,0.1860346 -0.0155,0.1085201 -0.062,0.165364 -0.0413,0.051676 -0.0724,0.051676 -0.031,-0.00517 -0.062,-0.051676 -0.0258,-0.031006 -0.0517,-0.056844 -0.0207,-0.031006 -0.0672,-0.051676 -0.1447,0.1756993 -0.31006,0.3358957 -0.1602,0.1601964 -0.34107,0.2945547 -0.18603,0.1291907 -0.38757,0.2325432 -0.20154,0.1033526 -0.42374,0.1705317 -0.0878,0.025838 -0.18087,0.036173 -0.093,0.00517 -0.10335,-0.02067 -0.0103,-0.031006 0.0362,-0.072347 0.0465,-0.046509 0.11369,-0.08785 z m 0.97151,-1.7363226 q 0.10852,0.1498612 0.25838,0.2377108 0.14986,0.082682 0.27389,0.1136878 h 0.0103 q 0,-0.041341 0.005,-0.1085202 0.005,-0.072347 0,-0.1446935 0,-0.072347 -0.0207,-0.1395259 -0.0155,-0.067179 -0.062,-0.1136878 -0.0413,-0.036173 -0.11886,-0.031006 -0.0723,0 -0.14469,0.025838 -0.0724,0.025838 -0.13436,0.072347 -0.0568,0.041341 -0.0672,0.08785 z m -3.52432,0.077514 q 0.0827,0.00517 0.0775,0.1912022 -0.0103,0.1963698 0.005,0.387572 0.0155,0.1860346 0.0413,0.3772368 0.0517,0.4599188 0.12403,0.9508433 0.0723,0.4857569 0.14469,0.9818491 0.0672,0.4909245 0.13436,0.9818495 0.0672,0.490925 0.11369,0.956011 0.0207,0.180867 0.0258,0.423745 0.0103,0.242879 -0.005,0.496093 -0.0103,0.248046 -0.0569,0.480589 -0.0413,0.232543 -0.11885,0.387572 -0.0413,0.08785 -0.0982,0.113688 -0.0465,0.0052 -0.0413,-0.04134 -0.031,-0.449584 -0.0775,-0.904335 -0.0413,-0.459919 -0.10852,-0.935341 -0.0672,-0.490924 -0.13436,-0.971513 -0.0672,-0.48059 -0.12919,-0.9611794 -0.0672,-0.4805893 -0.13436,-0.9611786 -0.062,-0.4805892 -0.12402,-0.9663462 0.0155,-0.1188554 0.0465,-0.2428784 0.031,-0.1291907 0.0879,-0.263549 0.12402,-0.3358957 0.16536,-0.4082425 0.0465,-0.072347 0.062,-0.072347 z M 221.55774,6.334765 q 0.0155,-0.046509 0.0413,-0.056844 0.0258,-0.010335 0.0413,0.056844 0.0413,0.1240231 0.093,0.2532137 0.0517,0.1291907 0.11886,0.2532138 0.0723,0.124023 0.16536,0.2325432 0.093,0.1033525 0.21187,0.1756993 -0.0723,0.124023 -0.12919,0.2170403 -0.0517,0.08785 -0.0878,0.165364 -0.0362,0.072347 -0.0517,0.1446936 -0.0155,0.067179 -0.005,0.1446935 0.0568,0.4960922 0.12919,0.997352 0.0775,0.4960922 0.14469,0.9921844 0.0724,0.4960922 0.12403,0.9921842 0.0568,0.496093 0.0723,0.997352 0.005,0.165365 -0.0207,0.335896 -0.0258,0.170532 -0.0827,0.325561 -0.0568,0.155028 -0.14469,0.294554 -0.0827,0.134359 -0.19121,0.227376 -0.14986,0.129191 -0.37207,0.186035 -0.21704,0.05168 -0.53226,0.05168 h -0.093 q -0.16536,0 -0.24804,-0.124023 -0.0879,-0.129191 -0.0879,-0.279052 0,-0.155029 0.0879,-0.279052 0.0827,-0.129191 0.24804,-0.129191 h 0.093 q 0.17053,0 0.33073,-0.01033 0.16019,-0.0155 0.29455,-0.04651 0.13436,-0.03617 0.22738,-0.09302 0.0982,-0.06201 0.13952,-0.155029 -0.10335,-1.090369 -0.26871,-2.149732 -0.16537,-1.0645318 -0.3204,-2.1393982 -0.031,-0.2170403 -0.0672,-0.4237454 -0.031,-0.2118727 -0.14986,-0.4082425 -0.0413,-0.056844 -0.0465,-0.072347 -0.005,-0.02067 0.0258,-0.082682 0.0879,-0.1498612 0.1602,-0.30489 0.0775,-0.1601964 0.14986,-0.2893871 z m -1.9947,5.617211 q 0.0207,-0.07235 0.0724,-0.01034 0.16019,0.191203 0.32039,0.30489 0.16019,0.108521 0.33073,0.165365 0.0879,0.03101 0.17053,0.05168 0.0827,0.0155 0.17053,0.03101 0.093,0.01033 0.20154,0.0155 0.10852,0 0.24804,0 h 0.093 q 0.16536,0 0.24805,0.129191 0.0827,0.124023 0.0827,0.273884 0,0.155029 -0.0827,0.28422 -0.0827,0.124023 -0.24805,0.124023 h -0.093 q -0.17053,0 -0.3514,-0.01033 -0.17569,-0.0155 -0.34623,-0.04134 -0.0517,0.284219 -0.12402,0.532265 -0.0724,0.253214 -0.14986,0.470254 -0.18603,0.480589 -0.43408,0.857826 -0.23771,0.372069 -0.7183,0.630451 -0.26355,0.144693 -0.54777,0.21704 -0.28422,0.07235 -0.56844,0.08785 -0.18603,0.01034 -0.3669,0.0052 -0.1757,-0.0052 -0.36173,-0.03101 -0.18604,-0.02067 -0.38241,-0.07235 -0.20154,-0.04651 -0.42374,-0.129191 -0.062,-0.02584 -0.0827,-0.06201 -0.0258,-0.03617 -0.0103,-0.07235 0.0258,-0.06718 0.2067,-0.06718 0.31006,0.0052 0.57361,-0.01034 0.26355,-0.0155 0.5116,-0.07235 0.24804,-0.05168 0.49609,-0.149862 0.25321,-0.09302 0.54777,-0.253213 0.31522,-0.170532 0.56327,-0.387572 0.24804,-0.211873 0.43408,-0.459919 0.18087,-0.248046 0.31006,-0.52193 0.12919,-0.273885 0.20153,-0.568439 -0.19637,-0.08268 -0.3824,-0.227376 -0.18604,-0.144693 -0.30489,-0.299722 z m -0.56327,-3.2039292 q -0.11369,0.2273755 -0.25838,0.3410633 -0.15503,0.1188554 -0.3669,0.1240231 -0.17054,0.00517 -0.29973,-0.08785 -0.12402,-0.093017 -0.14469,-0.3255605 -0.0103,-0.1033525 0.0103,-0.2118727 0.0207,-0.1136878 0.062,-0.2118727 0.0413,-0.093017 0.093,-0.1601964 0.0568,-0.072347 0.11886,-0.093017 0.062,-0.00517 0.0103,0.093017 -0.031,0.056844 -0.0517,0.1343583 -0.0155,0.077514 -0.0207,0.1550288 0,0.072347 0.0155,0.124023 0.0155,0.051676 0.0672,0.098185 0.0775,0.056844 0.16536,0.056844 0.0879,-0.00517 0.17054,-0.041341 0.0878,-0.036173 0.15502,-0.082682 0.0724,-0.051676 0.1447,-0.1343583 0.0672,-0.077514 0.0982,-0.1963698 0.031,-0.1188554 0.0413,-0.1963698 0.005,-0.067179 0.0362,-0.1343583 0.031,-0.067179 0.10335,-0.067179 0.0155,0 0.0207,0.031006 0.0103,0.025838 0.0155,0.062012 0.005,0.036173 0.005,0.072347 0,0.031006 0,0.046509 0,0.1498612 0.0465,0.2377109 0.0465,0.082682 0.18603,0.1136877 0.0724,0.015503 0.18604,-0.015503 0.11885,-0.031006 0.2067,-0.1033526 0.0103,-0.010335 0.005,-0.056844 -0.005,-0.046509 -0.0207,-0.098185 -0.0103,-0.051676 -0.0362,-0.1085201 -0.0207,-0.062012 -0.0258,-0.072347 l 0.1912,-0.3617339 q 0.0517,0.025838 0.0775,0.1136878 0.031,0.08785 0.0362,0.2015375 0.0103,0.1085201 0,0.2222079 -0.0103,0.1136878 -0.0258,0.1912022 -0.062,0.1912022 -0.17053,0.346231 -0.10335,0.1550288 -0.32039,0.1963698 -0.19121,0.036173 -0.3204,-0.025838 -0.12919,-0.062012 -0.2067,-0.1756993 z m 0.93017,-2.077386 q -0.25838,0.1188554 -0.5426,0.2480461 -0.27905,0.1291907 -0.5426,0.2480461 -0.26355,0.1188554 -0.49093,0.2222079 -0.22737,0.1033526 -0.38757,0.1705317 -0.0362,0.015503 -0.0517,0 -0.0155,-0.015503 0,-0.046509 l 0.25321,-0.5064275 q 0.0258,-0.041341 0.0517,-0.056844 0.031,-0.02067 0.0568,-0.036173 l 1.88618,-0.8371556 q 0.0827,-0.036173 0.0517,0.041341 l -0.21187,0.4805893 q -0.0155,0.046509 -0.0724,0.072347 z m -2.98689,4.3769802 q -0.23254,-0.06718 -0.42891,-0.10852 -0.19121,-0.04651 -0.37207,-0.07752 -0.18087,-0.03101 -0.36691,-0.04651 -0.18603,-0.02067 -0.40307,-0.03617 -0.31006,-0.02067 -0.66662,0.0052 -0.35657,0.02584 -0.7028,0.07235 -0.34106,0.04651 -0.64595,0.103352 -0.29973,0.05684 -0.50126,0.09819 0,0.02067 0.0103,0.02067 0.43925,0.113688 0.63045,0.366901 0.1912,0.253214 0.15503,0.671792 -0.0207,0.222208 -0.12402,0.408242 -0.0982,0.180867 -0.21704,0.258382 -0.14986,0.09302 -0.39274,0.09819 -0.24288,0.0052 -0.48576,-0.05168 -0.24805,-0.06201 -0.46509,-0.19637 -0.21187,-0.134358 -0.29455,-0.351398 -0.11886,0.268716 -0.25321,0.465086 -0.1292,0.191202 -0.29973,0.320393 -0.17053,0.124023 -0.38757,0.191202 -0.21704,0.06201 -0.50126,0.07235 h -0.0827 q -0.17053,0 -0.25321,-0.124023 -0.0879,-0.129191 -0.0879,-0.284219 0,-0.155029 0.0879,-0.279052 0.0827,-0.129191 0.25321,-0.129191 h 0.0827 q 0.1602,0 0.34623,-0.0155 0.18604,-0.02067 0.36174,-0.08785 0.18086,-0.06718 0.34106,-0.19637 0.1602,-0.129191 0.27388,-0.356567 0.0827,-0.160196 0.15503,-0.315225 0.0775,-0.155029 0.1602,-0.299722 0.0879,-0.144694 0.19637,-0.268717 0.10852,-0.12919 0.26355,-0.237711 0.21187,-0.144693 0.52193,-0.23771 0.31006,-0.09818 0.64078,-0.155029 0.3359,-0.05684 0.65629,-0.08785 0.3204,-0.03617 0.54777,-0.05684 -0.0879,-0.05168 -0.23254,-0.134358 -0.1447,-0.08785 -0.3204,-0.1756998 -0.17569,-0.093017 -0.37723,-0.1705316 -0.19637,-0.082682 -0.39274,-0.1240231 -0.27905,-0.056844 -0.51676,-0.00517 -0.23255,0.046509 -0.40308,0.1550288 -0.0413,0.02067 -0.0827,0.025838 -0.0413,0.00517 -0.0413,-0.067179 0.0103,-0.1395259 0.10335,-0.2997224 0.093,-0.1601964 0.23254,-0.2997223 0.13953,-0.1395259 0.31006,-0.2325432 0.17053,-0.093017 0.3359,-0.1033526 0.24288,-0.010335 0.51676,0.082682 0.27905,0.08785 0.5581,0.2273755 0.27906,0.139526 0.54777,0.2997224 0.26872,0.1550288 0.49609,0.2790518 0.10852,0.056844 0.28939,0.1446936 0.18087,0.082682 0.42891,0.1756993 0.25322,0.093018 0.57878,0.1912016 0.33073,0.09819 0.7338,0.180867 -0.14986,0.1757 -0.26355,0.346231 -0.10852,0.170532 -0.25321,0.351399 z m -3.77237,1.012855 q 0.0207,-0.02584 -0.0258,-0.08785 -0.0465,-0.06201 -0.12919,-0.134358 -0.0827,-0.07235 -0.18603,-0.134358 -0.10335,-0.06718 -0.19637,-0.09818 -0.0775,-0.02067 -0.17053,-0.04134 -0.093,-0.02584 -0.18087,-0.03101 -0.0879,-0.01033 -0.1602,0.01033 -0.0723,0.0155 -0.10335,0.07235 -0.0362,0.07751 0.0155,0.160196 0.0568,0.07752 0.16537,0.149862 0.11368,0.06718 0.25321,0.124023 0.14469,0.05168 0.28422,0.07751 0.14469,0.02067 0.25838,0.01033 0.11886,-0.0155 0.1757,-0.07751 z m 0.98702,-5.5965402 q 0,0.08785 0.0465,0.1395259 0.0517,0.046509 0.11885,0.072347 0.0672,0.025838 0.1447,0.031006 0.0827,0.00517 0.14469,0.00517 0.14469,0 0.26872,-0.062011 0.12919,-0.062011 0.23254,-0.1601964 0.0103,-0.093017 -0.0207,-0.1963698 -0.031,-0.1033526 -0.0982,-0.1860346 -0.0672,-0.082682 -0.16536,-0.1291907 -0.0982,-0.051676 -0.22738,-0.041341 -0.0775,0.020671 -0.15503,0.077514 -0.0775,0.051676 -0.14469,0.1240231 -0.062,0.072347 -0.10335,0.1601964 -0.0413,0.082682 -0.0413,0.1653641 z m 1.20922,-0.1343583 q 0,0.1756993 -0.0465,0.3410633 -0.0465,0.1653641 -0.14469,0.2945548 -0.0982,0.1291906 -0.25321,0.206705 -0.14986,0.077514 -0.36174,0.077514 -0.26355,0 -0.44441,-0.1705317 -0.18087,-0.1705316 -0.19121,-0.4547511 0,-0.1446936 0.0413,-0.346231 0.0465,-0.2067051 0.13952,-0.3979073 0.093,-0.1912022 0.23771,-0.3307281 0.14986,-0.1446935 0.35657,-0.1705317 0.19637,-0.020671 0.32556,0.077514 0.12919,0.098185 0.2067,0.2480461 0.0724,0.1550288 0.10336,0.3307281 0.031,0.1705317 0.031,0.2945548 z m -6.59906,6.0977995 0.23254,-0.754473 q 0.0207,-0.05684 0.0465,-0.05684 0.0258,-0.0052 0.0568,0.04651 0.10335,0.165364 0.21187,0.361734 0.10852,0.196369 0.2067,0.351398 0.0568,0.05168 0.15503,0.07752 0.10335,0.02584 0.20671,0.04134 0.10852,0.01033 0.19637,0.0155 0.093,0 0.12919,0 h 0.093 q 0.16537,0 0.24288,0.129191 0.0827,0.124023 0.0827,0.273884 0,0.155029 -0.0827,0.28422 -0.0775,0.124023 -0.24288,0.124023 h -0.093 q -0.25838,0 -0.50643,-0.03101 0.031,0.294555 0.031,0.620115 0.005,0.325561 -0.0465,0.640786 -0.0827,0.516763 -0.37724,0.888832 -0.29455,0.372069 -0.70796,0.60978 -0.41341,0.237711 -0.89917,0.346231 -0.48576,0.113688 -0.96635,0.113688 -0.41858,0 -0.78031,-0.129191 -0.35657,-0.129191 -0.62528,-0.377237 -0.26355,-0.242878 -0.41858,-0.594277 -0.14986,-0.351399 -0.14986,-0.790647 0,-0.485757 0.15503,-0.940508 0.15503,-0.449583 0.43408,-0.852658 0.031,-0.04651 0.0568,-0.04134 0.0258,0 0.0465,0.04651 0.0207,0.04651 0.0103,0.08785 -0.23771,0.465086 -0.30489,0.961179 -0.0672,0.501259 0.0878,0.899167 0.15502,0.397907 0.53226,0.651121 0.38241,0.258381 1.01802,0.258381 0.35657,0 0.71314,-0.05684 0.36173,-0.05684 0.69763,-0.186035 0.33589,-0.12919 0.63045,-0.335895 0.29455,-0.201538 0.52709,-0.496092 0.0103,-0.273885 -0.0362,-0.563272 -0.0413,-0.284219 -0.12402,-0.568439 -0.0775,-0.279052 -0.1912,-0.547768 -0.11369,-0.268717 -0.24805,-0.506428 z m -1.22473,-2.191073 0.63562,0.527098 q 0.0413,0.03617 0.005,0.08268 L 207.76,11.378367 q -0.0362,0.05168 -0.0827,0.01034 l -0.64079,-0.527098 q -0.0413,-0.03617 0,-0.08785 l 0.42892,-0.527098 q 0.0362,-0.04651 0.0775,-0.01033 z m -6.65073,0.268716 q 0.1447,0.144694 0.26355,0.315225 0.12403,0.170532 0.21704,0.356567 0.093,0.186034 0.1447,0.382404 0.0517,0.19637 0.0517,0.397907 0,0.08785 -0.0103,0.19637 -0.0103,0.10852 -0.031,0.222208 -0.0207,0.10852 -0.0568,0.211873 -0.031,0.09819 -0.0775,0.170532 -0.12402,0.186034 -0.34623,0.299722 -0.21704,0.113688 -0.48059,0.170532 -0.26355,0.05684 -0.53743,0.07751 -0.26872,0.0155 -0.49092,0.0155 h -0.093 q -0.1602,0 -0.24288,-0.124023 -0.0827,-0.129191 -0.0827,-0.28422 0,-0.155028 0.0827,-0.279052 0.0827,-0.12919 0.24288,-0.12919 h 0.093 q 0.24804,0 0.49092,-0.0052 0.24805,-0.01033 0.46509,-0.03101 0.2222,-0.02067 0.3979,-0.05684 0.1757,-0.04134 0.27906,-0.108521 0.0568,-0.03101 0.0568,-0.07751 0.005,-0.04651 -0.0207,-0.118855 -0.0517,-0.134359 -0.11886,-0.248047 -0.062,-0.113687 -0.13952,-0.21704 -0.0827,-0.10852 -0.17053,-0.206705 -0.0879,-0.09818 -0.18604,-0.19637 l 0.17053,-0.723468 q 0.0155,-0.05684 0.0517,-0.05684 0.0362,0 0.0775,0.04651 z m -0.5426,3.834379 0.63562,0.527098 q 0.0413,0.03617 0.005,0.08268 l -0.42375,0.532266 q -0.0362,0.05168 -0.0827,0.01033 l -0.64078,-0.527098 q -0.0413,-0.03617 0,-0.08785 l 0.42891,-0.527097 q 0.0362,-0.04651 0.0775,-0.01034 z m -2.24792,-1.912022 0.23255,-0.754473 q 0.0207,-0.05684 0.0465,-0.05684 0.0258,-0.0052 0.0568,0.04651 0.10335,0.165364 0.21187,0.361734 0.10852,0.196369 0.20671,0.351398 0.0568,0.05168 0.15502,0.07752 0.10336,0.02584 0.20671,0.04134 0.10852,0.01033 0.19637,0.0155 0.093,0 0.12919,0 h 0.093 q 0.16536,0 0.24288,0.129191 0.0827,0.124023 0.0827,0.273884 0,0.155029 -0.0827,0.28422 -0.0775,0.124023 -0.24288,0.124023 h -0.093 q -0.25838,0 -0.50643,-0.03101 0.031,0.294555 0.031,0.620115 0.005,0.325561 -0.0465,0.640786 -0.0827,0.516763 -0.37724,0.888832 -0.29455,0.372069 -0.70796,0.60978 -0.41341,0.237711 -0.89917,0.346231 -0.48576,0.113688 -0.96635,0.113688 -0.41857,0 -0.78031,-0.129191 -0.35656,-0.129191 -0.62528,-0.377237 -0.26355,-0.242878 -0.41858,-0.594277 -0.14986,-0.351399 -0.14986,-0.790647 0,-0.485757 0.15503,-0.940508 0.15503,-0.449583 0.43408,-0.852658 0.031,-0.04651 0.0568,-0.04134 0.0258,0 0.0465,0.04651 0.0207,0.04651 0.0103,0.08785 -0.23771,0.465086 -0.30489,0.961179 -0.0672,0.501259 0.0879,0.899167 0.15503,0.397907 0.53226,0.651121 0.38241,0.258381 1.01803,0.258381 0.35656,0 0.71313,-0.05684 0.36173,-0.05684 0.69763,-0.186035 0.33589,-0.12919 0.63045,-0.335895 0.29455,-0.201538 0.5271,-0.496092 0.0103,-0.273885 -0.0362,-0.563272 -0.0413,-0.284219 -0.12402,-0.568439 -0.0775,-0.279052 -0.1912,-0.547768 -0.11369,-0.268717 -0.24805,-0.506428 z m -1.22473,-2.191073 0.63562,0.527098 q 0.0413,0.03617 0.005,0.08268 l -0.42374,0.532265 q -0.0362,0.05168 -0.0827,0.01034 l -0.64078,-0.527098 q -0.0413,-0.03617 0,-0.08785 l 0.42891,-0.527098 q 0.0362,-0.04651 0.0775,-0.01033 z m -6.46469,1.999871 q -0.36174,0.10852 -0.79065,0.232543 -0.42375,0.118856 -0.8785,0.242879 -0.45475,0.118855 -0.91984,0.232543 -0.46508,0.10852 -0.89916,0.19637 -0.43408,0.08268 -0.82166,0.134358 -0.38757,0.04651 -0.69246,0.04651 h -0.093 q -0.16537,0 -0.24288,-0.124023 -0.0827,-0.129191 -0.0827,-0.279052 0,-0.155029 0.0827,-0.279052 0.0775,-0.129191 0.24288,-0.129191 h 0.093 q 0.0775,0 0.21188,-0.0052 0.13952,-0.01033 0.30488,-0.02067 0.16537,-0.01034 0.34624,-0.02584 0.18086,-0.0155 0.35139,-0.03101 0.17054,-0.02067 0.31523,-0.04134 0.14986,-0.02067 0.24288,-0.04134 -0.12402,-0.06718 -0.24288,-0.186034 -0.11369,-0.118856 -0.21187,-0.268717 -0.0982,-0.149861 -0.16537,-0.320393 -0.0672,-0.170531 -0.093,-0.341063 -0.0465,-0.320393 0.062,-0.656289 0.10852,-0.341063 0.31522,-0.6252829 0.21188,-0.2893871 0.49609,-0.4857569 0.28939,-0.2015374 0.59945,-0.2480461 0.38757,-0.056844 0.7028,0.00517 0.31522,0.056844 0.56327,0.1912022 0.24804,0.1291906 0.42891,0.3100576 0.18087,0.1808669 0.30489,0.3617341 0.0207,0.03101 0.005,0.05684 -0.0103,0.02584 -0.0413,0.04134 -0.0258,0.0155 -0.062,0.02067 -0.0362,0 -0.062,-0.0155 -0.33072,-0.1912019 -0.66662,-0.2428782 -0.3359,-0.051676 -0.74931,-0.02067 -0.20153,0.015503 -0.41341,0.062012 -0.2067,0.046509 -0.3979,0.1188552 -0.1912,0.07235 -0.3514,0.165364 -0.1602,0.09302 -0.25321,0.19637 0,0.09302 0.0362,0.222208 0.0362,0.124023 0.10335,0.258382 0.0672,0.134358 0.15503,0.268716 0.093,0.129191 0.19637,0.237711 0.10852,0.10852 0.23771,0.21704 0.12919,0.103353 0.25321,0.186035 0.12919,0.08268 0.24288,0.134358 0.11369,0.05168 0.18604,0.05168 0.67179,-0.124023 1.33324,-0.310057 0.66146,-0.186035 1.25574,-0.351399 0.0517,-0.01033 0.031,0.02067 -0.13435,0.248046 -0.29455,0.470254 -0.1602,0.222208 -0.27388,0.366901 z m -1.9482,-5.3691643 q -0.25838,0.1188554 -0.5426,0.2480461 -0.27905,0.1291907 -0.5426,0.2480461 -0.26355,0.1188554 -0.49093,0.2222079 -0.22737,0.1033526 -0.38757,0.1705317 -0.0362,0.015503 -0.0517,0 -0.0155,-0.015503 0,-0.046509 l 0.25322,-0.5064275 q 0.0258,-0.041341 0.0517,-0.056844 0.031,-0.02067 0.0568,-0.036173 l 1.88622,-0.837155 q 0.0827,-0.036173 0.0517,0.041341 l -0.21188,0.4805893 q -0.0155,0.046509 -0.0723,0.072347 z m -6.06679,6.4543663 h -0.093 q -0.15503,0 -0.23254,-0.124023 -0.0775,-0.129191 -0.0775,-0.28422 0,-0.07751 0.0207,-0.149861 0.0155,-0.07235 0.0568,-0.129191 0.0362,-0.05684 0.0982,-0.09302 0.0568,-0.03617 0.13436,-0.03617 h 0.093 q 0.16019,0 0.35656,-0.01033 0.20154,-0.01034 0.37724,-0.05684 0.17053,-0.04651 0.3359,-0.139526 0.16536,-0.09818 0.30489,-0.268717 0.10335,-0.124023 0.16536,-0.253214 0.0672,-0.12919 0.12919,-0.294554 0.0258,-0.06718 0.0827,-0.07235 0.062,-0.0052 0.0672,0.02584 0.005,0.06201 -0.0103,0.149861 -0.0103,0.08785 -0.0103,0.160197 0,0.134358 0.0672,0.268716 0.0672,0.134359 0.2067,0.242879 0.13953,0.10852 0.38241,0.180867 0.24805,0.06718 0.5581,0.06718 h 0.0982 q 0.0775,0 0.13436,0.03617 0.0568,0.03617 0.093,0.09302 0.0413,0.05684 0.0568,0.129191 0.0207,0.07235 0.0207,0.149861 0,0.155029 -0.0775,0.28422 -0.0723,0.124023 -0.22737,0.124023 h -0.0982 q -0.27905,0 -0.53226,-0.05168 -0.24805,-0.05684 -0.42375,-0.165364 -0.34106,-0.206706 -0.53226,-0.60978 -0.11369,0.232543 -0.26872,0.387572 -0.15503,0.155028 -0.34106,0.253213 -0.19121,0.09818 -0.43408,0.144694 -0.24288,0.04134 -0.48059,0.04134 z m 1.42109,0.723468 0.63562,0.527098 q 0.0413,0.03617 0.005,0.08268 l -0.42375,0.532265 q -0.0362,0.05168 -0.0827,0.01034 l -0.64078,-0.527098 q -0.0413,-0.03617 0,-0.08785 l 0.42891,-0.527098 q 0.0362,-0.04651 0.0775,-0.01033 z m -0.83199,-6.5473838 q 0,0.08785 0.0465,0.1395259 0.0517,0.046509 0.11886,0.072347 0.0672,0.025838 0.14469,0.031006 0.0827,0.00517 0.1447,0.00517 0.14469,0 0.26871,-0.062012 0.12919,-0.062011 0.23255,-0.1601964 0.0103,-0.093017 -0.0207,-0.1963699 -0.031,-0.1033525 -0.0982,-0.1860345 -0.0672,-0.082682 -0.16536,-0.1291907 -0.0982,-0.051676 -0.22738,-0.041341 -0.0775,0.02067 -0.15503,0.077514 -0.0775,0.051676 -0.14469,0.124023 -0.062,0.072347 -0.10335,0.1601965 -0.0413,0.082682 -0.0413,0.165364 z m 1.20923,-0.1343583 q 0,0.1756993 -0.0465,0.3410634 -0.0465,0.165364 -0.14469,0.2945547 -0.0982,0.1291907 -0.25322,0.2067051 -0.14986,0.077514 -0.36173,0.077514 -0.26355,0 -0.44442,-0.1705317 -0.18086,-0.1705317 -0.1912,-0.4547511 0,-0.1446936 0.0413,-0.346231 0.0465,-0.2067051 0.13953,-0.3979073 0.093,-0.1912022 0.23771,-0.3307281 0.14986,-0.1446936 0.35657,-0.1705317 0.19636,-0.02067 0.32556,0.077514 0.12919,0.098185 0.2067,0.2480461 0.0724,0.1550288 0.10335,0.3307281 0.031,0.1705317 0.031,0.2945547 z m -4.1186,2.5889809 0.14987,-0.6046124 q 0.0155,-0.062012 0.062,-0.062012 0.0465,0 0.062,0.056844 l 0.5271,1.8655126 q 0.10335,0.366902 0.25838,0.640786 0.16019,0.273884 0.43408,0.459919 0.16019,0.10852 0.3669,0.155029 0.2067,0.04651 0.45992,0.04651 h 0.093 q 0.16536,0 0.24804,0.129191 0.0827,0.129191 0.0827,0.279052 0,0.149861 -0.0827,0.279052 -0.0827,0.124023 -0.24804,0.124023 h -0.093 q -0.28422,0 -0.53227,-0.05168 -0.24288,-0.05684 -0.45475,-0.201538 -0.2067,-0.139526 -0.38757,-0.387572 -0.1757,-0.253214 -0.33073,-0.645953 -0.13436,0.403075 -0.43925,0.666624 -0.24804,0.211872 -0.58394,0.320392 -0.33589,0.103353 -0.65629,0.144694 -0.31522,0.04651 -0.59944,0.02067 -0.27905,-0.03101 -0.42891,-0.170532 -0.0775,-0.07235 -0.11369,-0.19637 -0.031,-0.124023 -0.031,-0.258381 0,-0.139526 0.0207,-0.268717 0.0258,-0.134358 0.0672,-0.227375 0.0155,-0.03101 0.0413,-0.03101 0.031,0 0.0465,0.03101 0.093,0.170531 0.21187,0.232543 0.11886,0.05684 0.28422,0.07235 0.24288,0.02584 0.55811,-0.01034 0.31522,-0.03617 0.61494,-0.12919 0.29973,-0.08785 0.53744,-0.227376 0.24288,-0.144694 0.33073,-0.330728 z m 0.56327,4.9919282 q -0.50643,0.160196 -0.99735,0.32556 -0.49092,0.165364 -0.94051,0.310058 -0.0827,0.02584 -0.0413,-0.05168 l 0.21187,-0.392739 q 0.0155,-0.03101 0.0258,-0.04651 0.0155,-0.0155 0.0465,-0.02584 0.13953,-0.05168 0.3669,-0.129191 0.22738,-0.07235 0.49093,-0.160196 0.26871,-0.08268 0.54777,-0.170532 0.27905,-0.08785 0.53226,-0.165364 0.0413,-0.0155 0.0517,-0.01033 0.0103,0.01033 -0.0103,0.05168 l -0.22221,0.403075 q -0.0155,0.02067 -0.031,0.03617 -0.0103,0.02067 -0.031,0.02584 z M 176.279,6.6241525 q 0.0827,0.00517 0.0775,0.1912022 -0.0103,0.1963698 0.005,0.387572 0.0155,0.1860346 0.0413,0.3772368 0.0517,0.4599188 0.12402,0.9508433 0.0724,0.4857569 0.1447,0.9818491 0.0672,0.4909241 0.13435,0.9818491 0.0672,0.490925 0.11369,0.956011 0.0207,0.180867 0.0258,0.423745 0.0103,0.242879 -0.005,0.496093 -0.0103,0.248046 -0.0568,0.480589 -0.0413,0.232543 -0.11886,0.387572 -0.0413,0.08785 -0.0982,0.113688 -0.0465,0.0052 -0.0413,-0.04134 -0.031,-0.449584 -0.0775,-0.904335 -0.0413,-0.459919 -0.10852,-0.935341 -0.0672,-0.490924 -0.13436,-0.971513 -0.0672,-0.48059 -0.12919,-0.961179 -0.0672,-0.4805893 -0.13435,-0.9611786 -0.062,-0.4805892 -0.12403,-0.9663462 0.0155,-0.1188554 0.0465,-0.2428784 0.031,-0.1291907 0.0879,-0.263549 0.12402,-0.3358957 0.16536,-0.4082425 0.0465,-0.072347 0.062,-0.072347 z m -2.20141,-0.2893871 q 0.0258,-0.041341 0.0465,-0.041341 0.0207,-0.00517 0.0362,0.041341 0.0827,0.2480461 0.21704,0.5115951 0.13436,0.2583813 0.37207,0.4030749 -0.13953,0.2480461 -0.21704,0.3824043 -0.0724,0.1343583 -0.0568,0.2893871 l 0.47026,3.9532342 q 0,0.139526 -0.031,0.299723 -0.0258,0.155028 -0.0775,0.30489 -0.0465,0.144693 -0.11369,0.268716 -0.062,0.118856 -0.12919,0.186035 -0.14986,0.139526 -0.37724,0.222208 -0.22737,0.07751 -0.47542,0.113688 -0.24804,0.03617 -0.49092,0.04651 -0.23771,0.0052 -0.42375,0.0052 h -0.093 q -0.16536,0 -0.24804,-0.124023 -0.0827,-0.129191 -0.0827,-0.279052 0,-0.149861 0.0827,-0.279052 0.0827,-0.129191 0.24804,-0.129191 h 0.093 q 0.093,0 0.36174,-0.0052 0.26871,-0.0052 0.56327,-0.03617 0.29455,-0.03101 0.5426,-0.09302 0.24804,-0.06201 0.29972,-0.170532 -0.14469,-1.069698 -0.29455,-2.139397 -0.1447,-1.0748664 -0.29456,-2.1497328 -0.031,-0.2170403 -0.0775,-0.4237454 -0.0465,-0.2118727 -0.17054,-0.4082425 -0.0362,-0.056844 -0.0465,-0.072347 -0.005,-0.02067 0.0258,-0.082682 0.0827,-0.1498612 0.17054,-0.2945547 0.0879,-0.1498612 0.17053,-0.2997224 z m -5.3485,6.9866316 q -0.16536,0 -0.24804,-0.124023 -0.0827,-0.129191 -0.0827,-0.279052 0,-0.149861 0.0827,-0.279052 0.0827,-0.129191 0.24804,-0.129191 h 0.093 q 0.15503,0 0.34623,-0.02584 0.1912,-0.02584 0.40308,-0.08268 0.21187,-0.06201 0.42891,-0.155029 0.21704,-0.09302 0.41858,-0.232543 -0.11886,-0.139526 -0.28422,-0.248046 -0.16537,-0.10852 -0.31006,-0.129191 -0.10852,-0.0155 -0.21704,0.01034 -0.10852,0.02067 -0.20154,0.09819 -0.0465,0.04651 -0.0879,0.01033 -0.0413,-0.03617 -0.031,-0.09819 0.0155,-0.07751 0.0413,-0.186035 0.031,-0.10852 0.0827,-0.222208 0.0517,-0.118855 0.12402,-0.232543 0.0775,-0.118855 0.18087,-0.211872 0.46509,-0.397908 1.09037,-0.397908 0.18087,0 0.39274,0.03101 0.21704,0.03101 0.40824,0.113688 0.1912,0.08268 0.32039,0.222208 0.13436,0.139526 0.13953,0.356566 0.0103,0.310058 -0.13436,0.527098 -0.14469,0.21704 -0.37723,0.403075 0.0827,0.134358 0.21704,0.222208 0.13435,0.08785 0.30489,0.134358 0.16536,0.05168 0.35656,0.07235 0.19637,0.02067 0.40308,0.02067 h 0.093 q 0.1602,0 0.23772,0.129191 0.0827,0.129191 0.0827,0.279052 0,0.149861 -0.0827,0.279052 -0.0775,0.124023 -0.23772,0.124023 h -0.093 q -0.30489,0 -0.56844,-0.04651 -0.26355,-0.04651 -0.49609,-0.149861 -0.45476,-0.206705 -0.83199,-0.651121 -0.53744,0.454751 -1.0542,0.656289 -0.25838,0.09818 -0.52193,0.144693 -0.26355,0.04651 -0.5426,0.04651 z m 2.63032,-5.8084127 q -0.25838,0.1188554 -0.5426,0.2480461 -0.27905,0.1291906 -0.5426,0.248046 -0.26355,0.1188555 -0.49092,0.222208 -0.22738,0.1033525 -0.38757,0.1705317 -0.0362,0.015503 -0.0517,0 -0.0155,-0.015503 0,-0.046509 L 169.59725,7.84888 q 0.0258,-0.041341 0.0517,-0.056844 0.031,-0.02067 0.0568,-0.036173 l 1.88619,-0.8371555 q 0.0827,-0.036173 0.0517,0.041341 l -0.21187,0.4805893 q -0.0155,0.046509 -0.0724,0.072347 z m -4.05658,4.4389917 q 0.0207,-0.07235 0.0723,-0.01034 0.1602,0.191203 0.3204,0.30489 0.16019,0.108521 0.33072,0.165365 0.0879,0.03101 0.17054,0.05168 0.0827,0.0155 0.17053,0.03101 0.093,0.01033 0.20154,0.0155 0.10852,0 0.24804,0 h 0.093 q 0.16536,0 0.24804,0.129191 0.0827,0.124023 0.0827,0.273884 0,0.155029 -0.0827,0.28422 -0.0827,0.124023 -0.24804,0.124023 h -0.093 q -0.17053,0 -0.3514,-0.01033 -0.1757,-0.0155 -0.34623,-0.04134 -0.0517,0.284219 -0.12402,0.532265 -0.0724,0.253214 -0.14986,0.470254 -0.18604,0.480589 -0.43408,0.857826 -0.23771,0.372069 -0.7183,0.630451 -0.26355,0.144693 -0.54777,0.21704 -0.28422,0.07235 -0.56844,0.08785 -0.18604,0.01034 -0.3669,0.0052 -0.1757,-0.0052 -0.36174,-0.03101 -0.18603,-0.02067 -0.3824,-0.07235 -0.20154,-0.04651 -0.42375,-0.129191 -0.062,-0.02584 -0.0827,-0.06201 -0.0258,-0.03617 -0.0103,-0.07235 0.0258,-0.06718 0.2067,-0.06718 0.31006,0.0052 0.57361,-0.01034 0.26355,-0.0155 0.51159,-0.07235 0.24805,-0.05168 0.4961,-0.149862 0.25321,-0.09302 0.54776,-0.253213 0.31523,-0.170532 0.56328,-0.387572 0.24804,-0.211873 0.43408,-0.459919 0.18086,-0.248046 0.31005,-0.52193 0.12919,-0.273885 0.20154,-0.568439 -0.19637,-0.08268 -0.3824,-0.227376 -0.18604,-0.144693 -0.30489,-0.299722 z m -0.50643,-2.2065769 0.63562,0.5270979 q 0.0413,0.03617 0.005,0.08268 l -0.42375,0.532266 q -0.0362,0.05168 -0.0827,0.01033 l -0.64079,-0.527098 q -0.0413,-0.03617 0,-0.08785 l 0.42892,-0.5270976 q 0.0362,-0.046509 0.0775,-0.010335 z m 0.49609,7.6532549 q -0.50643,0.160197 -0.99735,0.325561 -0.49092,0.165364 -0.94051,0.310058 -0.0827,0.02584 -0.0413,-0.05168 l 0.21187,-0.392739 q 0.0155,-0.03101 0.0258,-0.04651 0.0155,-0.0155 0.0465,-0.02584 0.13953,-0.05168 0.3669,-0.129191 0.22738,-0.07235 0.49093,-0.160196 0.26871,-0.08268 0.54776,-0.170532 0.27906,-0.08785 0.53227,-0.165364 0.0413,-0.0155 0.0517,-0.01033 0.0103,0.01033 -0.0103,0.05168 l -0.22221,0.403075 q -0.0155,0.02067 -0.031,0.03617 -0.0103,0.02067 -0.031,0.02584 z m -3.71035,-2.247917 q -0.0207,0.02584 -0.0414,0.02584 -0.0207,0 -0.0465,-0.0155 l -0.58395,-0.39274 -0.29972,0.521931 q -0.0465,0.05168 -0.0775,0.02067 l -0.62012,-0.41341 q -0.031,-0.0155 -0.0155,-0.05168 l 0.32556,-0.521931 q 0.0362,-0.04651 0.0724,-0.02584 l 0.58394,0.39274 0.31522,-0.516763 q 0.0155,-0.0155 0.0568,-0.01033 l 0.62011,0.403075 q 0.0362,0.02584 0.0103,0.07235 z m -0.093,-4.671535 q 0.0103,-0.04134 0.0362,-0.04134 0.0258,-0.0052 0.0878,0.05168 0.13953,0.144694 0.25838,0.315226 0.12403,0.170531 0.21704,0.356566 0.093,0.186034 0.1447,0.382404 0.0568,0.19637 0.062,0.39274 0,0.08785 -0.0155,0.201537 -0.0103,0.10852 -0.0362,0.222208 -0.0207,0.10852 -0.0568,0.211873 -0.031,0.09818 -0.0775,0.165364 -0.0827,0.124023 -0.24287,0.21704 -0.15503,0.09302 -0.3514,0.160197 -0.19637,0.06201 -0.41858,0.103352 -0.22221,0.04134 -0.43925,0.06718 -0.21704,0.02067 -0.41858,0.03101 -0.19637,0.0052 -0.34106,0.0052 h -0.093 q -0.16536,0 -0.24288,-0.124023 -0.0827,-0.129191 -0.0827,-0.279052 0,-0.155029 0.0827,-0.279052 0.0775,-0.129191 0.24288,-0.129191 h 0.093 q 0.0827,0 0.23254,0 0.15503,-0.0052 0.34623,-0.01033 0.19121,-0.01033 0.39791,-0.02067 0.21187,-0.0155 0.40824,-0.04134 0.19637,-0.02584 0.35657,-0.06201 0.1602,-0.03617 0.25321,-0.08785 0.0879,-0.04651 0.062,-0.134358 -0.0878,-0.284219 -0.26354,-0.50126 -0.17054,-0.222208 -0.38758,-0.439248 0.0413,-0.180867 0.0879,-0.366901 0.0517,-0.186035 0.0982,-0.366902 z m -3.11091,1.472774 q 0.0207,-0.07235 0.0723,-0.01034 0.1602,0.191203 0.3204,0.30489 0.16019,0.108521 0.33072,0.165365 0.0878,0.03101 0.17054,0.05168 0.0827,0.0155 0.17053,0.03101 0.093,0.01033 0.20154,0.0155 0.10852,0 0.24804,0 h 0.093 q 0.16536,0 0.24805,0.129191 0.0827,0.124023 0.0827,0.273884 0,0.155029 -0.0827,0.28422 -0.0827,0.124023 -0.24805,0.124023 h -0.093 q -0.17053,0 -0.3514,-0.01033 -0.1757,-0.0155 -0.34623,-0.04134 -0.0517,0.284219 -0.12402,0.532265 -0.0724,0.253214 -0.14986,0.470254 -0.18604,0.480589 -0.43408,0.857826 -0.23771,0.372069 -0.7183,0.630451 -0.26355,0.144693 -0.54777,0.21704 -0.28422,0.07235 -0.56844,0.08785 -0.18603,0.01034 -0.3669,0.0052 -0.1757,-0.0052 -0.36174,-0.03101 -0.18603,-0.02067 -0.3824,-0.07235 -0.20154,-0.04651 -0.42375,-0.129191 -0.062,-0.02584 -0.0827,-0.06201 -0.0258,-0.03617 -0.0103,-0.07235 0.0258,-0.06718 0.2067,-0.06718 0.31006,0.0052 0.57361,-0.01034 0.26355,-0.0155 0.51159,-0.07235 0.24805,-0.05168 0.4961,-0.149862 0.25321,-0.09302 0.54776,-0.253213 0.31523,-0.170532 0.56328,-0.387572 0.24804,-0.211873 0.43408,-0.459919 0.18086,-0.248046 0.31005,-0.52193 0.12919,-0.273885 0.20154,-0.568439 -0.19637,-0.08268 -0.3824,-0.227376 -0.18604,-0.144693 -0.30489,-0.299722 z m -0.50643,-2.2065769 0.63562,0.5270979 q 0.0413,0.03617 0.005,0.08268 l -0.42375,0.532266 q -0.0362,0.05168 -0.0827,0.01033 l -0.64079,-0.527098 q -0.0413,-0.03617 0,-0.08785 l 0.42892,-0.5270976 q 0.0362,-0.046509 0.0775,-0.010335 z m -5.54486,-3.1212466 q 0.0827,0.00517 0.0775,0.1912022 -0.0103,0.1963698 0.005,0.387572 0.0155,0.1860346 0.0413,0.3772368 0.0517,0.4599188 0.12402,0.9508433 0.0724,0.4857569 0.1447,0.9818491 0.0672,0.4909241 0.13436,0.9818491 0.0672,0.490925 0.11368,0.956011 0.0207,0.180867 0.0258,0.423745 0.0103,0.242879 -0.005,0.496093 -0.0103,0.248046 -0.0568,0.480589 -0.0413,0.232543 -0.11885,0.387572 -0.0413,0.08785 -0.0982,0.113688 -0.0465,0.0052 -0.0413,-0.04134 -0.031,-0.449584 -0.0775,-0.904335 -0.0413,-0.459919 -0.10852,-0.935341 -0.0672,-0.490924 -0.13435,-0.971513 -0.0672,-0.48059 -0.12919,-0.961179 -0.0672,-0.4805893 -0.13436,-0.9611786 -0.062,-0.4805892 -0.12403,-0.9663462 0.0155,-0.1188554 0.0465,-0.2428784 0.031,-0.1291907 0.0879,-0.263549 0.12403,-0.3358957 0.16537,-0.4082425 0.0465,-0.072347 0.062,-0.072347 z m -2.21691,-0.2893871 q 0.0155,-0.046509 0.0413,-0.056844 0.0258,-0.010335 0.0413,0.056844 0.0413,0.1240231 0.093,0.2532137 0.0517,0.1291907 0.11885,0.2532138 0.0724,0.124023 0.16536,0.2325432 0.093,0.1033525 0.21188,0.1756993 -0.0724,0.124023 -0.12919,0.2170403 -0.0517,0.08785 -0.0879,0.165364 -0.0362,0.072347 -0.0517,0.1446936 -0.0155,0.067179 -0.005,0.1446935 0.0568,0.4960922 0.12919,0.997352 0.0775,0.4960922 0.1447,0.9921844 0.0723,0.4960918 0.12402,0.9921838 0.0568,0.496093 0.0724,0.997352 0.005,0.165365 -0.0207,0.335896 -0.0258,0.170532 -0.0827,0.325561 -0.0568,0.155028 -0.14469,0.294554 -0.0827,0.134359 -0.1912,0.227376 -0.14986,0.129191 -0.37207,0.186035 -0.21704,0.05168 -0.53227,0.05168 h -0.093 q -0.16537,0 -0.24805,-0.124023 -0.0879,-0.129191 -0.0879,-0.279052 0,-0.155029 0.0879,-0.279052 0.0827,-0.129191 0.24805,-0.129191 h 0.093 q 0.17054,0 0.33073,-0.01033 0.1602,-0.0155 0.29456,-0.04651 0.13436,-0.03617 0.22737,-0.09302 0.0982,-0.06201 0.13953,-0.155029 -0.10335,-1.090369 -0.26872,-2.149732 -0.16536,-1.0645314 -0.32039,-2.1393978 -0.031,-0.2170403 -0.0672,-0.4237454 -0.031,-0.2118727 -0.14986,-0.4082425 -0.0413,-0.056844 -0.0465,-0.072347 -0.005,-0.02067 0.0258,-0.082682 0.0879,-0.1498612 0.16019,-0.30489 0.0775,-0.1601964 0.14987,-0.2893871 z m -3.37963,5.2503086 q 0.062,-0.103352 0.12402,-0.09819 0.0672,0.0052 0.0362,0.124023 -0.0258,0.108521 -0.0723,0.227376 -0.0465,0.113688 -0.10336,0.248046 0.0362,0.08785 0.1602,0.175699 0.12919,0.08268 0.28939,0.144694 0.15503,0.05684 0.31522,0.08268 0.16537,0.02584 0.27389,-0.0155 0.1757,-0.05684 0.28938,-0.315225 0.11369,-0.263549 0.19637,-0.552936 0.0413,-0.155029 0.10852,-0.180867 0.0672,-0.02584 0.0775,0.113688 0.0207,0.258381 0.093,0.444415 0.0723,0.186035 0.21704,0.299723 0.27388,0.227375 0.89916,0.227375 h 0.093 q 0.16537,0 0.24805,0.129191 0.0827,0.129191 0.0827,0.279052 0,0.149861 -0.0827,0.279052 -0.0827,0.124023 -0.24805,0.124023 h -0.093 q -0.27388,0 -0.47025,-0.03101 -0.19637,-0.03617 -0.3824,-0.113688 -0.43409,-0.186034 -0.65629,-0.614947 -0.0362,0.08268 -0.093,0.19637 -0.0568,0.113687 -0.13436,0.222207 -0.0724,0.103353 -0.1602,0.1757 -0.0878,0.07235 -0.18603,0.07235 -0.12919,0 -0.29972,-0.03101 -0.17053,-0.03101 -0.34107,-0.09818 -0.17569,-0.06201 -0.33589,-0.160197 -0.15503,-0.103352 -0.26355,-0.242878 -0.18087,0.206705 -0.40824,0.346231 -0.22221,0.134358 -0.47542,0.175699 -0.25839,0.04651 -0.54261,0 -0.27905,-0.05168 -0.5736,-0.206705 -0.13436,0.09819 -0.29456,0.160197 -0.16019,0.06201 -0.31522,0.09302 -0.1602,0.03617 -0.30489,0.04651 -0.1447,0.01033 -0.25322,0.01033 h -0.093 q -0.15503,0 -0.23255,-0.124023 -0.0775,-0.129191 -0.0775,-0.279052 0,-0.149861 0.0775,-0.279052 0.0775,-0.129191 0.23255,-0.129191 h 0.093 q 0.31006,0 0.57361,-0.02067 0.26355,-0.02584 0.49609,-0.113688 0.22738,-0.08268 0.42892,-0.253214 0.2067,-0.170531 0.39274,-0.465086 0.0672,-0.10852 0.11368,-0.09302 0.0517,0.01033 0.031,0.118855 -0.0362,0.186035 -0.11886,0.397907 -0.0827,0.211873 -0.20153,0.361734 0.10335,0.03101 0.25321,0.04651 0.15503,0.0155 0.32556,0 0.25321,-0.02067 0.47542,-0.103353 0.22738,-0.08785 0.40825,-0.263549 0.11368,-0.103352 0.21187,-0.23771 0.10335,-0.139526 0.19637,-0.299723 z m -0.48059,-3.48298 q -0.11369,0.2273756 -0.25838,0.3410633 -0.15503,0.1188555 -0.3669,0.1240231 -0.17054,0.00517 -0.29973,-0.08785 -0.12402,-0.093017 -0.14469,-0.3255604 -0.0103,-0.1033526 0.0103,-0.2118727 0.0207,-0.1136878 0.062,-0.2118727 0.0413,-0.093017 0.093,-0.1601965 0.0568,-0.072347 0.11886,-0.093017 0.062,-0.00517 0.0103,0.093017 -0.031,0.056844 -0.0517,0.1343583 -0.0155,0.077514 -0.0207,0.1550288 0,0.072347 0.0155,0.1240231 0.0155,0.051676 0.0672,0.098185 0.0775,0.056844 0.16536,0.056844 0.0879,-0.00517 0.17054,-0.041341 0.0879,-0.036173 0.15502,-0.082682 0.0724,-0.051676 0.1447,-0.1343583 0.0672,-0.077514 0.0982,-0.1963698 0.031,-0.1188554 0.0413,-0.1963698 0.005,-0.067179 0.0362,-0.1343583 0.031,-0.067179 0.10335,-0.067179 0.0155,0 0.0207,0.031006 0.0103,0.025838 0.0155,0.062012 0.005,0.036173 0.005,0.072347 0,0.031006 0,0.046509 0,0.1498612 0.0465,0.2377109 0.0465,0.082682 0.18603,0.1136878 0.0724,0.015503 0.18604,-0.015503 0.11885,-0.031006 0.2067,-0.1033525 0.0103,-0.010335 0.005,-0.056844 -0.005,-0.046509 -0.0207,-0.098185 -0.0103,-0.051676 -0.0362,-0.1085202 -0.0207,-0.062011 -0.0258,-0.072347 l 0.1912,-0.3617339 q 0.0517,0.025838 0.0775,0.1136878 0.031,0.08785 0.0362,0.2015375 0.0103,0.1085201 0,0.2222079 -0.0103,0.1136878 -0.0258,0.1912022 -0.062,0.1912022 -0.17053,0.346231 -0.10335,0.1550288 -0.32039,0.1963698 -0.19121,0.036173 -0.3204,-0.025838 -0.12919,-0.062012 -0.2067,-0.1756993 z m -0.9095,-1.2970743 q 0.18086,-0.093017 0.35656,-0.180867 0.1757,-0.093017 0.34107,-0.1963698 0.17053,-0.1033525 0.33072,-0.2273756 0.16537,-0.124023 0.3204,-0.2790518 -0.14986,-0.036173 -0.31523,-0.1240231 -0.16019,-0.093017 -0.25838,-0.2015374 -0.0517,-0.051676 -0.062,-0.1343583 -0.0103,-0.082682 0.0155,-0.1550288 0.0465,-0.1136878 0.12403,-0.2428785 0.0775,-0.1343583 0.1912,-0.2428784 0.10852,-0.1085202 0.24288,-0.1756993 0.13435,-0.072347 0.26871,-0.067179 0.17053,0.010335 0.24805,0.1395259 0.0775,0.1291907 0.093,0.2997224 0.0207,0.1705317 0,0.3410634 -0.0155,0.165364 -0.0258,0.2377108 0,0.025838 0.0155,0.041341 0.0672,0.031006 0.0879,0.062011 0.0258,0.025838 0.0465,0.067179 0.031,0.067179 0.0103,0.1705317 -0.0155,0.098185 -0.0672,0.1498611 -0.0465,0.046509 -0.0775,0.046509 -0.031,-0.00517 -0.0672,-0.046509 -0.0258,-0.025838 -0.0517,-0.051676 -0.0207,-0.031006 -0.0724,-0.046509 -0.15503,0.1601965 -0.33073,0.3100576 -0.17053,0.1446936 -0.36173,0.2687166 -0.19637,0.1188554 -0.41341,0.2170404 -0.21188,0.093017 -0.44442,0.1550288 -0.093,0.020671 -0.19637,0.031006 -0.0982,0.00517 -0.10852,-0.020671 -0.0103,-0.025838 0.0362,-0.067179 0.0517,-0.041341 0.12403,-0.077514 z m 1.03352,-1.5967967 q 0.11369,0.1395259 0.26872,0.2170403 0.1602,0.077514 0.29455,0.1085202 h 0.0103 q 0,-0.041341 0.005,-0.1033526 0.005,-0.067179 0,-0.1291906 0,-0.067179 -0.0207,-0.1291907 -0.0155,-0.062012 -0.0672,-0.1033525 -0.0413,-0.036173 -0.12403,-0.031006 -0.0775,0 -0.15503,0.025838 -0.0775,0.02067 -0.13952,0.062012 -0.062,0.041341 -0.0724,0.082682 z m -5.55003,4.7438812 0.14986,-0.6046124 q 0.0155,-0.062012 0.062,-0.062012 0.0465,0 0.062,0.056844 l 0.5271,1.8655132 q 0.10335,0.366902 0.25838,0.640786 0.1602,0.273884 0.43408,0.459919 0.1602,0.10852 0.36691,0.155029 0.2067,0.04651 0.45991,0.04651 h 0.093 q 0.16537,0 0.24805,0.129191 0.0827,0.129191 0.0827,0.279052 0,0.149861 -0.0827,0.279052 -0.0827,0.124023 -0.24805,0.124023 h -0.093 q -0.28421,0 -0.53226,-0.05168 -0.24288,-0.05684 -0.45475,-0.201538 -0.20671,-0.139526 -0.38757,-0.387572 -0.1757,-0.253214 -0.33073,-0.645953 -0.13436,0.403075 -0.43925,0.666624 -0.24805,0.211872 -0.58394,0.320392 -0.3359,0.103353 -0.65629,0.144694 -0.31523,0.04651 -0.59945,0.02067 -0.27905,-0.03101 -0.42891,-0.170532 -0.0775,-0.07235 -0.11369,-0.19637 -0.031,-0.124023 -0.031,-0.258381 0,-0.139526 0.0207,-0.268717 0.0258,-0.134358 0.0672,-0.227375 0.0155,-0.03101 0.0413,-0.03101 0.031,0 0.0465,0.03101 0.093,0.170531 0.21187,0.232543 0.11886,0.05684 0.28422,0.07235 0.24288,0.02584 0.5581,-0.01034 0.31523,-0.03617 0.61495,-0.12919 0.29972,-0.08785 0.53743,-0.227376 0.24288,-0.144694 0.33073,-0.330728 z m 0.60461,-2.4391199 q -0.25838,0.1188554 -0.5426,0.2480461 -0.27905,0.1291906 -0.5426,0.248046 -0.26355,0.1188555 -0.49092,0.222208 -0.22738,0.1033525 -0.38758,0.1705317 -0.0362,0.015503 -0.0517,0 -0.0155,-0.015503 0,-0.046509 L 141.66623,7.84888 q 0.0258,-0.041341 0.0517,-0.056844 0.031,-0.02067 0.0568,-0.036173 l 1.88619,-0.8371555 q 0.0827,-0.036173 0.0517,0.041341 l -0.21187,0.4805893 q -0.0155,0.046509 -0.0724,0.072347 z m -3.99457,4.7645517 q 0.005,-0.06201 -0.062,-0.248046 -0.0672,-0.186034 -0.18087,-0.428913 -0.11369,-0.242878 -0.26355,-0.506427 -0.14986,-0.263549 -0.30489,-0.48059 -0.0103,-0.01033 -0.031,0.0155 -0.0155,0.02067 -0.0362,0.04134 -0.0207,0.02584 -0.0465,0.0155 -0.0258,-0.0155 -0.0413,-0.03101 -0.12402,-0.113687 -0.19637,-0.180867 -0.0775,-0.06718 -0.13952,-0.139525 -0.031,-0.03617 -0.031,-0.09302 0,-0.05684 0.005,-0.08268 0.0258,-0.1963696 0.0723,-0.3927394 0.0465,-0.1963698 0.11886,-0.3772367 0.0362,-0.08785 0.10335,-0.025838 0.26872,0.2377108 0.50643,0.5632713 0.23771,0.3203928 0.41341,0.6821268 0.18087,0.361734 0.28422,0.744138 0.10852,0.377237 0.11369,0.723468 0.005,0.284219 -0.0724,0.547768 -0.0724,0.263549 -0.27388,0.428913 -0.093,0.07752 -0.22221,0.129191 -0.12919,0.05168 -0.27389,0.08268 -0.13952,0.03101 -0.28422,0.04651 -0.13952,0.01033 -0.25838,0.01033 h -0.093 q -0.15503,0 -0.22738,-0.124023 -0.0775,-0.129191 -0.0775,-0.279052 0,-0.155029 0.0775,-0.279052 0.0775,-0.129191 0.22738,-0.129191 h 0.093 q 0.12919,0 0.28422,-0.0052 0.15503,-0.0052 0.30489,-0.02584 0.14986,-0.02584 0.28422,-0.07235 0.13436,-0.04651 0.22738,-0.129191 z m 0.10852,2.775016 q -0.0207,0.03101 -0.0362,0.03101 -0.0155,0.0052 -0.0517,-0.02584 l -0.57361,-0.444415 -0.37207,0.511595 q -0.031,0.04651 -0.0723,0.0155 l -0.60462,-0.470254 q -0.0362,-0.02067 -0.0103,-0.05684 l 0.38757,-0.552937 q 0.0207,-0.02584 0.0362,-0.02584 0.0103,0 0.031,0.0155 l 0.57361,0.439248 0.39273,-0.501259 q 0.0258,-0.04134 0.0568,-0.0155 l 0.60978,0.506427 q 0.031,0.02584 0,0.06718 z m -1.91203,-8.0718331 q 0,0.08785 0.0465,0.1395259 0.0517,0.046509 0.11886,0.072347 0.0672,0.025838 0.14469,0.031006 0.0827,0.00517 0.1447,0.00517 0.14469,0 0.26871,-0.062011 0.12919,-0.062012 0.23255,-0.1601965 0.0103,-0.093017 -0.0207,-0.1963698 -0.031,-0.1033525 -0.0982,-0.1860346 -0.0672,-0.082682 -0.16536,-0.1291906 -0.0982,-0.051676 -0.22738,-0.041341 -0.0775,0.02067 -0.15503,0.077514 -0.0775,0.051676 -0.14469,0.124023 -0.062,0.072347 -0.10335,0.1601964 -0.0413,0.082682 -0.0413,0.1653641 z m 1.20923,-0.1343583 q 0,0.1756993 -0.0465,0.3410634 -0.0465,0.165364 -0.14469,0.2945547 -0.0982,0.1291907 -0.25322,0.2067051 -0.14986,0.077514 -0.36173,0.077514 -0.26355,0 -0.44442,-0.1705317 -0.18086,-0.1705317 -0.1912,-0.4547512 0,-0.1446935 0.0413,-0.346231 0.0465,-0.206705 0.13953,-0.3979072 0.093,-0.1912022 0.23771,-0.3307282 0.14986,-0.1446935 0.35657,-0.1705316 0.19637,-0.02067 0.32556,0.077514 0.12919,0.098185 0.2067,0.2480461 0.0724,0.1550288 0.10335,0.3307281 0.031,0.1705316 0.031,0.2945547 z m -5.52936,5.6017074 q 0.10852,0.07751 0.25838,0.113688 0.15503,0.03617 0.32039,0.03617 0.16537,0 0.33073,-0.03101 0.16537,-0.031 0.29972,-0.08785 0.26872,-0.103353 0.50126,-0.346231 0.23771,-0.248046 0.38241,-0.527098 0.0517,-0.103353 0.11885,-0.10852 0.0724,-0.01034 0.0413,0.12919 -0.031,0.134359 -0.0568,0.211873 -0.0258,0.07235 -0.0775,0.227376 0.0413,0.10852 0.16019,0.196369 0.12403,0.08268 0.27389,0.144694 0.15503,0.05684 0.31522,0.08268 0.1602,0.02067 0.28422,0.0052 0.17053,-0.108521 0.27389,-0.351399 0.10852,-0.242879 0.1912,-0.52193 0.0413,-0.155029 0.11369,-0.191203 0.0723,-0.03617 0.0723,0.108521 0,0.253213 0.0879,0.439248 0.093,0.180867 0.25322,0.299722 0.16019,0.118856 0.3824,0.1757 0.22738,0.05684 0.49609,0.05684 h 0.093 q 0.16536,0 0.24805,0.129191 0.0827,0.124023 0.0827,0.279052 0,0.149861 -0.0827,0.279052 -0.0827,0.124023 -0.24805,0.124023 h -0.093 q -0.20153,0 -0.41341,-0.03617 -0.2067,-0.03617 -0.40307,-0.113687 -0.21704,-0.09302 -0.40825,-0.237711 -0.18603,-0.144694 -0.30488,-0.356566 -0.0362,0.08785 -0.093,0.206705 -0.0568,0.113687 -0.12919,0.222208 -0.0724,0.103352 -0.1602,0.175699 -0.0827,0.07235 -0.1757,0.07235 -0.14469,0 -0.32556,-0.04651 -0.1757,-0.04651 -0.34623,-0.124023 -0.17053,-0.07751 -0.31006,-0.175699 -0.13952,-0.09819 -0.2067,-0.201538 -0.28422,0.387572 -0.66663,0.552936 -0.18603,0.08268 -0.40307,0.113688 -0.21187,0.03101 -0.44959,0.0155 0.0724,0.496092 0.005,1.012855 -0.062,0.52193 -0.35656,0.925005 -0.21188,0.294555 -0.50643,0.511595 -0.29456,0.21704 -0.63562,0.361734 -0.33589,0.149861 -0.7028,0.21704 -0.36173,0.07235 -0.7183,0.07235 -0.41341,0 -0.77514,-0.129191 -0.35657,-0.124023 -0.62528,-0.372069 -0.26355,-0.242878 -0.41858,-0.594277 -0.14986,-0.346231 -0.14986,-0.790647 0,-0.480589 0.15503,-0.940508 0.15503,-0.454751 0.42891,-0.857826 0.031,-0.04651 0.0568,-0.04134 0.0258,0 0.0413,0.02584 0.0155,0.02584 0.0207,0.06201 0.005,0.03617 0,0.04651 -0.24287,0.485757 -0.31005,0.976682 -0.0672,0.490924 0.0879,0.888832 0.14986,0.397907 0.52709,0.656288 0.37724,0.258382 1.02319,0.258382 0.35657,0 0.72864,-0.07235 0.37207,-0.06718 0.7183,-0.211873 0.34623,-0.144693 0.63562,-0.372069 0.29455,-0.227376 0.49092,-0.547768 0,-0.268717 -0.0672,-0.521931 -0.062,-0.253213 -0.16536,-0.496092 -0.0982,-0.237711 -0.22221,-0.465086 -0.12402,-0.232543 -0.24804,-0.459919 l 0.2067,-0.707965 q 0.0155,-0.04134 0.0413,-0.04651 0.031,-0.0052 0.062,0.03617 0.11886,0.175699 0.22738,0.330728 0.10852,0.155029 0.21704,0.30489 z"
         id="text34"
         style="font-size:10.5833px;line-height:1.25;font-family:'KFGQPC Uthmanic Script HAFS';-inkscape-font-specification:'KFGQPC Uthmanic Script HAFS';direction:rtl;stroke-width:0.264583"
         aria-label="    " />
    </g>
  </g>
</svg>
