<?xml version="1.0" encoding="UTF-8" standalone="no"?>
<!-- Created with Inkscape (http://www.inkscape.org/) -->

<svg
   width="115.81942mm"
   height="15.486489mm"
   viewBox="0 0 115.81942 15.486489"
   version="1.1"
   id="svg1"
   xmlns="http://www.w3.org/2000/svg"
   xmlns:svg="http://www.w3.org/2000/svg">
  <defs
     id="defs1" />
  <g
     id="layer1"
     transform="translate(-139.7944)">
    <g
       id="g2">
      <path
         d="m 253.86976,3.0676235 q 0.0827,0.00517 0.0775,0.1912022 -0.0103,0.1963698 0.005,0.387572 0.0155,0.1860345 0.0413,0.3772367 0.0517,0.4599188 0.12402,0.9508434 0.0724,0.4857569 0.1447,0.981849 0.0672,0.4909246 0.13436,0.9818491 0.0672,0.4909246 0.11368,0.956011 0.0207,0.1808669 0.0258,0.4237454 0.0103,0.2428784 -0.005,0.4960922 -0.0103,0.248046 -0.0568,0.4805892 -0.0413,0.2325433 -0.11886,0.3875721 -0.0413,0.08785 -0.0982,0.1136877 -0.0465,0.00517 -0.0413,-0.041341 -0.031,-0.4495835 -0.0775,-0.9043347 -0.0413,-0.4599187 -0.10852,-0.9353404 -0.0672,-0.4909245 -0.13435,-0.9715138 -0.0672,-0.4805893 -0.12919,-0.9611786 -0.0672,-0.4805893 -0.13436,-0.9611786 -0.062,-0.4805893 -0.12403,-0.9663462 0.0155,-0.1188554 0.0465,-0.2428785 0.031,-0.1291906 0.0879,-0.2635489 0.12403,-0.3358958 0.16537,-0.4082425 0.0465,-0.072347 0.062,-0.072347 z m -2.21691,-0.2893871 q 0.0155,-0.046509 0.0413,-0.056844 0.0258,-0.010335 0.0413,0.056844 0.0413,0.124023 0.093,0.2532137 0.0517,0.1291907 0.11885,0.2532137 0.0724,0.124023 0.16537,0.2325432 0.093,0.1033525 0.21187,0.1756993 -0.0724,0.1240231 -0.12919,0.2170403 -0.0517,0.08785 -0.0879,0.1653641 -0.0362,0.072347 -0.0517,0.1446936 -0.0155,0.067179 -0.005,0.1446935 0.0568,0.4960922 0.1292,0.997352 0.0775,0.4960921 0.14469,0.9921843 0.0724,0.4960922 0.12402,0.9921844 0.0568,0.4960921 0.0724,0.9973519 0.005,0.1653641 -0.0207,0.3358958 -0.0258,0.1705316 -0.0827,0.3255604 -0.0569,0.1550288 -0.1447,0.2945548 -0.0827,0.1343583 -0.1912,0.2273756 -0.14986,0.1291906 -0.37207,0.1860345 -0.21704,0.051676 -0.53226,0.051676 h -0.093 q -0.16537,0 -0.24805,-0.1240231 -0.0879,-0.1291906 -0.0879,-0.2790518 0,-0.1550288 0.0879,-0.2790519 0.0827,-0.1291906 0.24805,-0.1291906 h 0.093 q 0.17053,0 0.33072,-0.010335 0.1602,-0.015503 0.29456,-0.046509 0.13436,-0.036173 0.22737,-0.093017 0.0982,-0.062012 0.13953,-0.1550288 -0.10335,-1.0903693 -0.26872,-2.1497327 -0.16536,-1.0645312 -0.32039,-2.1393975 -0.031,-0.2170403 -0.0672,-0.4237454 -0.031,-0.2118727 -0.14986,-0.4082425 -0.0413,-0.056844 -0.0465,-0.072347 -0.005,-0.020671 0.0258,-0.082682 0.0879,-0.1498612 0.1602,-0.30489 0.0775,-0.1601964 0.14986,-0.2893871 z m -3.37963,5.2503088 q 0.062,-0.1033525 0.12402,-0.098185 0.0672,0.00517 0.0362,0.124023 -0.0258,0.1085202 -0.0724,0.2273756 -0.0465,0.1136878 -0.10335,0.2480461 0.0362,0.08785 0.16019,0.1756993 0.12919,0.082682 0.28939,0.1446935 0.15503,0.056844 0.31523,0.082682 0.16536,0.025838 0.27388,-0.015503 0.1757,-0.056844 0.28939,-0.3152252 0.11368,-0.263549 0.19637,-0.5529361 0.0413,-0.1550288 0.10852,-0.1808669 0.0672,-0.025838 0.0775,0.1136877 0.0207,0.2583814 0.093,0.4444159 0.0724,0.1860346 0.21704,0.2997224 0.27388,0.2273756 0.89917,0.2273756 h 0.093 q 0.16537,0 0.24805,0.1291906 0.0827,0.1291907 0.0827,0.2790519 0,0.1498612 -0.0827,0.2790518 -0.0827,0.1240231 -0.24805,0.1240231 h -0.093 q -0.27389,0 -0.47026,-0.031006 -0.19637,-0.036173 -0.3824,-0.1136878 -0.43408,-0.1860345 -0.65629,-0.6149476 -0.0362,0.082682 -0.093,0.1963699 -0.0568,0.1136878 -0.13436,0.2222079 -0.0723,0.1033526 -0.16019,0.1756993 -0.0879,0.072347 -0.18604,0.072347 -0.12919,0 -0.29972,-0.031006 -0.17053,-0.031006 -0.34106,-0.098185 -0.1757,-0.062011 -0.3359,-0.1601964 -0.15503,-0.1033525 -0.26355,-0.2428785 -0.18087,0.2067051 -0.40824,0.346231 -0.22221,0.1343583 -0.47542,0.1756993 -0.25838,0.046509 -0.5426,0 -0.27906,-0.051676 -0.57361,-0.206705 -0.13436,0.098185 -0.29455,0.1601964 -0.1602,0.062012 -0.31523,0.093017 -0.1602,0.036173 -0.30489,0.046509 -0.14469,0.010335 -0.25321,0.010335 h -0.093 q -0.15503,0 -0.23254,-0.1240231 -0.0775,-0.1291906 -0.0775,-0.2790518 0,-0.1498612 0.0775,-0.2790519 0.0775,-0.1291906 0.23254,-0.1291906 h 0.093 q 0.31005,0 0.5736,-0.02067 0.26355,-0.025838 0.4961,-0.1136878 0.22737,-0.082682 0.42891,-0.2532137 0.2067,-0.1705317 0.39274,-0.4650864 0.0672,-0.1085202 0.11369,-0.093017 0.0517,0.010335 0.031,0.1188554 -0.0362,0.1860346 -0.11885,0.3979073 -0.0827,0.2118727 -0.20154,0.3617338 0.10335,0.031006 0.25321,0.046509 0.15503,0.015503 0.32556,0 0.25322,-0.02067 0.47542,-0.1033526 0.22738,-0.08785 0.40825,-0.2635489 0.11368,-0.1033526 0.21187,-0.2377109 0.10335,-0.1395259 0.19637,-0.2997223 z m 0.45475,-1.162716 q -0.031,0.036173 -0.0465,0.036173 -0.0155,0 -0.0517,-0.025838 l -0.60978,-0.4805893 -0.39791,0.5529361 q -0.0362,0.046509 -0.0775,0.010335 l -0.65112,-0.4960921 q -0.0362,-0.031006 -0.0103,-0.067179 l 0.41341,-0.5891094 q 0.0258,-0.031006 0.0362,-0.025838 0.0155,0 0.0362,0.015503 l 0.61495,0.4702541 0.41858,-0.5374332 q 0.031,-0.041341 0.062,-0.020671 l 0.65112,0.5426008 q 0.031,0.031006 0,0.072347 z m -0.97668,-2.1807385 0.63562,0.5219303 q 0.0413,0.031006 0.005,0.072347 l -0.42374,0.527098 q -0.0362,0.046509 -0.0827,0.010335 l -0.64079,-0.5167627 q -0.0413,-0.036173 0,-0.08785 l 0.42891,-0.5167627 q 0.0362,-0.046509 0.0775,-0.010335 z m 0.0413,-1.4314326 q -0.11369,0.2273756 -0.25838,0.3410634 -0.15503,0.1188554 -0.3669,0.124023 -0.17054,0.00517 -0.29973,-0.08785 -0.12402,-0.093017 -0.14469,-0.3255605 -0.0103,-0.1033526 0.0103,-0.2118727 0.0207,-0.1136878 0.062,-0.2118727 0.0413,-0.093017 0.093,-0.1601965 0.0568,-0.072347 0.11886,-0.093017 0.062,-0.00517 0.0103,0.093017 -0.031,0.056844 -0.0517,0.1343583 -0.0155,0.077514 -0.0207,0.1550288 0,0.072347 0.0155,0.1240231 0.0155,0.051676 0.0672,0.098185 0.0775,0.056844 0.16536,0.056844 0.0878,-0.00517 0.17054,-0.041341 0.0879,-0.036173 0.15502,-0.082682 0.0724,-0.051676 0.1447,-0.1343582 0.0672,-0.077514 0.0982,-0.1963699 0.031,-0.1188554 0.0413,-0.1963698 0.005,-0.067179 0.0362,-0.1343583 0.031,-0.067179 0.10335,-0.067179 0.0155,0 0.0207,0.031006 0.0103,0.025838 0.0155,0.062012 0.005,0.036173 0.005,0.072347 0,0.031006 0,0.046509 0,0.1498611 0.0465,0.2377108 0.0465,0.082682 0.18603,0.1136878 0.0724,0.015503 0.18604,-0.015503 0.11885,-0.031006 0.2067,-0.1033525 0.0103,-0.010335 0.005,-0.056844 -0.005,-0.046509 -0.0207,-0.098185 -0.0103,-0.051676 -0.0362,-0.1085202 -0.0207,-0.062012 -0.0258,-0.072347 l 0.1912,-0.3617338 q 0.0517,0.025838 0.0775,0.1136878 0.031,0.08785 0.0362,0.2015374 0.0103,0.1085202 0,0.2222079 -0.0103,0.1136878 -0.0258,0.1912022 -0.062,0.1912022 -0.17053,0.346231 -0.10335,0.1550288 -0.32039,0.1963698 -0.19121,0.036173 -0.3204,-0.025838 -0.12919,-0.062011 -0.2067,-0.1756993 z m 0.93017,-2.077386 q -0.25838,0.1188555 -0.5426,0.2480461 -0.27905,0.1291907 -0.5426,0.2480461 -0.26355,0.1188554 -0.49092,0.222208 -0.22738,0.1033525 -0.38758,0.1705316 -0.0362,0.015503 -0.0517,0 -0.0155,-0.015503 0,-0.046509 l 0.25321,-0.5064274 q 0.0258,-0.041341 0.0517,-0.056844 0.031,-0.020671 0.0568,-0.036173 l 1.88618,-0.83715554 q 0.0827,-0.0361734 0.0517,0.041341 l -0.21187,0.48058934 q -0.0155,0.046509 -0.0724,0.072347 z m -4.88857,10.6504789 q -0.0258,0.03101 -0.0413,0.03101 -0.0155,0.0052 -0.0568,-0.02584 l -0.61494,-0.480589 -0.40308,0.552936 q -0.0362,0.04651 -0.0775,0.0155 l -0.65629,-0.506427 q -0.0362,-0.02584 -0.0103,-0.06201 l 0.41858,-0.594277 q 0.0207,-0.03101 0.0362,-0.03101 0.0155,0 0.0362,0.02067 l 0.62011,0.470254 0.42375,-0.542601 q 0.031,-0.04134 0.062,-0.0155 l 0.65629,0.547769 q 0.0362,0.02584 0,0.07235 z m -2.16007,-2.0618832 h -0.093 q -0.15503,0 -0.23254,-0.1240231 -0.0775,-0.1291906 -0.0775,-0.2842194 0,-0.077514 0.0207,-0.1498612 0.0155,-0.072347 0.0568,-0.1291907 0.0362,-0.056844 0.0982,-0.093017 0.0568,-0.036173 0.13436,-0.036173 h 0.093 q 0.1602,0 0.35657,-0.010335 0.20153,-0.010335 0.37723,-0.056844 0.17054,-0.046509 0.3359,-0.1395259 0.16536,-0.098185 0.30489,-0.2687166 0.10335,-0.1240231 0.16536,-0.2532137 0.0672,-0.1291907 0.12919,-0.2945547 0.0258,-0.067179 0.0827,-0.072347 0.062,-0.00517 0.0672,0.025838 0.005,0.062012 -0.0103,0.1498612 -0.0103,0.08785 -0.0103,0.1601964 0,0.1343583 0.0672,0.2687166 0.0672,0.1343583 0.20671,0.2428785 0.13952,0.1085201 0.3824,0.1808669 0.24805,0.067179 0.55811,0.067179 h 0.0982 q 0.0775,0 0.13436,0.036173 0.0568,0.036173 0.093,0.093017 0.0413,0.056844 0.0568,0.1291907 0.0207,0.072347 0.0207,0.1498612 0,0.1550288 -0.0775,0.2842194 -0.0724,0.1240231 -0.22738,0.1240231 h -0.0982 q -0.27905,0 -0.53227,-0.051676 -0.24804,-0.056844 -0.42374,-0.165364 -0.34107,-0.2067051 -0.53227,-0.60978 -0.11369,0.2325432 -0.26872,0.387572 -0.15502,0.1550288 -0.34106,0.2532137 -0.1912,0.098185 -0.43408,0.1446936 -0.24288,0.041341 -0.48059,0.041341 z m 0.58911,-5.5655339 q 0,0.08785 0.0465,0.139526 0.0517,0.046509 0.11886,0.072347 0.0672,0.025838 0.14469,0.031006 0.0827,0.00517 0.14469,0.00517 0.1447,0 0.26872,-0.062011 0.12919,-0.062012 0.23254,-0.1601964 0.0103,-0.093017 -0.0207,-0.1963698 -0.031,-0.1033526 -0.0982,-0.1860346 -0.0672,-0.082682 -0.16537,-0.1291907 -0.0982,-0.051676 -0.22737,-0.041341 -0.0775,0.020671 -0.15503,0.077514 -0.0775,0.051676 -0.14469,0.1240231 -0.062,0.072347 -0.10336,0.1601964 -0.0413,0.082682 -0.0413,0.165364 z m 1.20923,-0.1343583 q 0,0.1756994 -0.0465,0.3410634 -0.0465,0.1653641 -0.1447,0.2945547 -0.0982,0.1291907 -0.25321,0.2067051 -0.14986,0.077514 -0.36173,0.077514 -0.26355,0 -0.44442,-0.1705317 -0.18087,-0.1705317 -0.1912,-0.4547511 0,-0.1446936 0.0413,-0.346231 0.0465,-0.2067051 0.13953,-0.3979073 0.093,-0.1912022 0.23771,-0.3307281 0.14986,-0.1446935 0.35656,-0.1705317 0.19637,-0.020671 0.32556,0.077514 0.12919,0.098185 0.20671,0.2480461 0.0724,0.1550288 0.10335,0.3307281 0.031,0.1705317 0.031,0.2945547 z m -6.09264,2.7801831 q 0.21188,-0.010335 0.44442,0.025838 0.23254,0.031006 0.66145,0.1136878 0.42892,0.077514 0.863,0.093017 0.47025,0.015503 0.9095,0.00517 0.43925,-0.010335 0.9095,-0.051676 0.0207,-0.00517 0.031,0 0.0103,0.00517 0.005,0.031006 -0.0672,0.2015374 -0.14986,0.3979072 -0.0775,0.1963699 -0.1757,0.3824044 -0.23255,0.025838 -0.46509,0.062012 -0.23254,0.031006 -0.45992,0.077514 -0.0465,0.3772368 0.0827,0.5787742 0.13436,0.1963699 0.38241,0.2842195 0.24804,0.08785 0.5736,0.098185 0.33073,0.010335 0.68213,0.010335 0.0258,0 0.0465,0 0.0207,0 0.0465,0 0.15503,0 0.23254,0.1291906 0.0827,0.1240231 0.0827,0.2738843 0,0.1550288 -0.0827,0.2842194 -0.0775,0.1240231 -0.23254,0.1240231 -0.0258,0 -0.0465,0 -0.0207,0 -0.0465,0 -0.57361,0.010335 -1.02319,-0.056844 -0.44958,-0.072347 -0.7183,-0.3152252 -0.21187,-0.1912022 -0.29972,-0.5115951 -0.0827,-0.3255605 -0.0207,-0.8268203 -0.45475,0.1085202 -0.8785,0.2893871 -0.42374,0.1756993 -0.78031,0.4599188 -0.31006,0.2480461 -0.5581,0.5581037 -0.24288,0.3100576 -0.41341,0.6666238 -0.16537,0.356566 -0.25322,0.73897 -0.0878,0.387572 -0.0878,0.78548 0,0.43408 0.16537,0.84749 0.17053,0.418578 0.44958,0.764809 0.27905,0.351399 0.63562,0.604613 0.36173,0.258381 0.74414,0.366901 0.50126,0.144694 1.02835,0.191202 0.53227,0.05168 0.98702,0.03617 0.50126,-0.0155 1.02836,-0.06201 0.5271,-0.04651 1.02836,-0.04651 0.062,0 0.0672,0.03101 0.005,0.03617 -0.062,0.113688 -0.0672,0.07751 -0.13952,0.08785 -0.31006,0.04651 -0.59945,0.139526 -0.28422,0.09818 -0.56327,0.196369 -0.27905,0.103353 -0.56844,0.186035 -0.28422,0.08785 -0.59427,0.10852 -0.75448,0.05168 -1.47795,-0.118855 -0.7183,-0.170532 -1.28157,-0.583942 -0.56327,-0.408243 -0.9095,-1.064531 -0.34623,-0.651121 -0.34623,-1.555456 0,-0.594277 0.15503,-1.193722 0.15503,-0.594277 0.43925,-1.126542 0.28938,-0.5374332 0.69246,-0.9715139 0.40824,-0.4392482 0.90433,-0.7131324 0.0207,-0.015503 -0.0103,-0.025838 -0.031,-0.010335 -0.0672,-0.015503 -0.23771,-0.025838 -0.5116,-0.046509 -0.26871,-0.025838 -0.53743,-0.00517 -0.26355,0.02067 -0.49609,0.1033525 -0.23254,0.077514 -0.38757,0.2583813 -0.031,0.036173 -0.0672,0.031006 -0.031,-0.00517 -0.0207,-0.072347 0.031,-0.2377108 0.10852,-0.4495835 0.0827,-0.2118727 0.21187,-0.3669015 0.12919,-0.1601964 0.31006,-0.2532137 0.18086,-0.098185 0.42374,-0.1033525 z m 1.08004,-2.1342299 0.63561,0.5270979 q 0.0414,0.036173 0.005,0.082682 l -0.42374,0.5322655 q -0.0362,0.051676 -0.0827,0.010335 l -0.64078,-0.527098 q -0.0413,-0.036173 0,-0.08785 l 0.42891,-0.527098 q 0.0362,-0.046509 0.0775,-0.010335 z m -1.13171,-0.6304504 q 0.17053,-0.098185 0.3359,-0.1963698 0.16536,-0.098185 0.32039,-0.2118727 0.16019,-0.1136878 0.31522,-0.2480461 0.15503,-0.1343582 0.29973,-0.3048899 -0.13953,-0.041341 -0.29456,-0.139526 -0.15503,-0.098185 -0.24804,-0.2118727 -0.0465,-0.056844 -0.0568,-0.1446935 -0.0103,-0.093017 0.0155,-0.1705317 0.0413,-0.124023 0.11369,-0.2687166 0.0775,-0.1446935 0.18087,-0.2635489 0.10335,-0.1188555 0.22737,-0.1912022 0.1292,-0.077514 0.25839,-0.072347 0.16019,0.010335 0.23254,0.1550288 0.0724,0.1395259 0.0879,0.3255605 0.0207,0.1860345 0,0.3669015 -0.0155,0.1808669 -0.0258,0.2635489 0,0.025838 0.0155,0.041341 0.062,0.036173 0.0827,0.067179 0.0258,0.031006 0.0413,0.072347 0.031,0.077514 0.0103,0.1860345 -0.0155,0.1085202 -0.062,0.1653641 -0.0413,0.051676 -0.0724,0.051676 -0.031,-0.00517 -0.062,-0.051676 -0.0258,-0.031006 -0.0517,-0.056844 -0.0207,-0.031006 -0.0672,-0.051676 -0.1447,0.1756994 -0.31006,0.3358958 -0.1602,0.1601964 -0.34106,0.2945547 -0.18604,0.1291907 -0.38758,0.2325432 -0.20153,0.1033526 -0.42374,0.1705317 -0.0879,0.025838 -0.18087,0.036173 -0.093,0.00517 -0.10335,-0.02067 -0.0103,-0.031006 0.0362,-0.072347 0.0465,-0.046509 0.11369,-0.08785 z m 0.97151,-1.7363225 q 0.10852,0.1498611 0.25839,0.2377108 0.14986,0.082682 0.27388,0.1136878 h 0.0103 q 0,-0.041341 0.005,-0.1085202 0.005,-0.072347 0,-0.1446935 0,-0.072347 -0.0207,-0.139526 -0.0155,-0.067179 -0.062,-0.1136878 -0.0413,-0.036173 -0.11886,-0.031006 -0.0723,0 -0.14469,0.025838 -0.0724,0.025838 -0.13436,0.072347 -0.0568,0.041341 -0.0672,0.08785 z m -5.03327,5.5138576 q -0.0207,0.046509 -0.0672,0.1395259 -0.0465,0.08785 -0.10335,0.1860346 -0.0517,0.098185 -0.10852,0.1912022 -0.0568,0.08785 -0.0982,0.1395259 -0.031,0.056844 -0.14987,0.031006 -0.54776,-0.1033526 -1.02319,-0.056844 -0.47542,0.046509 -0.94567,0.1963698 -0.40824,0.1343583 -0.77515,0.2997223 -0.3669,0.1601965 -0.72346,0.2842195 -0.68213,0.2480461 -1.32292,0.3720691 -0.63561,0.1240231 -1.31774,0.1240231 h -0.093 q -0.16536,0 -0.24804,-0.1240231 -0.0827,-0.1291906 -0.0827,-0.2842194 0,-0.1550288 0.0827,-0.2790519 0.0827,-0.1291906 0.24804,-0.1291906 h 0.093 q 0.23771,0 0.49609,-0.010335 0.25838,-0.010335 0.50643,-0.031006 0.24805,-0.020671 0.47025,-0.046509 0.22221,-0.031006 0.39274,-0.067179 0.35657,-0.077514 0.74931,-0.2170403 0.39791,-0.1446935 0.83715,-0.3255605 -0.25321,-0.036173 -0.58911,-0.08785 -0.33589,-0.056844 -0.69246,-0.1085202 -0.35656,-0.056844 -0.69763,-0.1033525 -0.34106,-0.046509 -0.59944,-0.072347 -0.0362,-0.010335 -0.10335,0.010335 -0.0672,0.02067 -0.13436,0.046509 -0.031,0.010335 -0.062,-0.010335 -0.031,-0.020671 -0.0207,-0.067179 0.062,-0.2222079 0.18086,-0.4495835 0.11886,-0.2273756 0.22221,-0.387572 0.0465,-0.067179 0.23254,-0.1550288 0.19121,-0.093017 0.45475,-0.2067051 0.26872,-0.1188554 0.57878,-0.263549 0.31006,-0.1446935 0.60461,-0.3152252 0.29456,-0.1756993 0.53743,-0.3824044 0.24288,-0.2118727 0.37207,-0.4547511 0.10336,-0.1963699 0.22738,-0.4392483 0.12402,-0.2428785 0.26872,-0.4495836 0.14986,-0.2118726 0.31522,-0.3462309 0.17053,-0.139526 0.3669,-0.1291907 0.1757,0.010335 0.3359,0.1860345 0.16019,0.1756994 0.28422,0.4185778 0.12402,0.2428785 0.19637,0.5064274 0.0723,0.263549 0.0723,0.4444159 0,0.093017 -0.0362,0.2170404 -0.0362,0.124023 -0.0879,0.2377108 -0.0465,0.1085202 -0.10335,0.1963698 -0.0568,0.082682 -0.0982,0.098185 -0.10852,0.041341 -0.29972,0.031006 -0.18603,-0.010335 -0.41341,-0.067179 -0.22221,-0.062011 -0.45475,-0.1705316 -0.23254,-0.1136878 -0.42375,-0.2790519 -0.45475,0.5942771 -0.97668,0.9405081 -0.52193,0.346231 -1.14721,0.5270979 0.37724,0.067179 0.70797,0.1291907 0.33072,0.056844 0.64078,0.1136878 0.31523,0.051676 0.62528,0.098185 0.31523,0.046509 0.65629,0.08785 0.53227,0.062012 1.10071,0.1188555 0.56844,0.051676 1.1007,0.072347 0.0775,0.00517 0.0413,0.072347 z m -1.31257,-2.3719407 q -0.031,-0.077514 -0.093,-0.2170403 -0.062,-0.1395259 -0.14986,-0.2790519 -0.0827,-0.1395259 -0.19121,-0.2377108 -0.10335,-0.1033525 -0.2222,-0.1033525 -0.0517,0 -0.12919,0.051676 -0.0724,0.046509 -0.1447,0.1188555 -0.0723,0.067179 -0.12919,0.1395259 -0.0568,0.067179 -0.0775,0.1136878 0.24804,0.2170403 0.5271,0.3100576 0.28421,0.093017 0.60978,0.1033525 z m 0.0568,-3.3382867 q -0.25838,0.1188555 -0.5426,0.2480461 -0.27906,0.1291907 -0.5426,0.2480461 -0.26355,0.1188554 -0.49093,0.222208 -0.22737,0.1033525 -0.38757,0.1705316 -0.0362,0.015503 -0.0517,0 -0.0155,-0.015503 0,-0.046509 l 0.25322,-0.5064274 q 0.0258,-0.041341 0.0517,-0.056844 0.031,-0.020671 0.0568,-0.036173 l 1.88618,-0.8371555 q 0.0827,-0.036173 0.0517,0.041341 l -0.21188,0.4805893 q -0.0155,0.046509 -0.0723,0.072347 z m -4.79039,0.759641 q 0,0.08785 0.0465,0.1395259 0.0517,0.046509 0.11886,0.072347 0.0672,0.025838 0.14469,0.031006 0.0827,0.00517 0.14469,0.00517 0.1447,0 0.26872,-0.062011 0.12919,-0.062012 0.23254,-0.1601965 0.0103,-0.093017 -0.0207,-0.1963698 -0.031,-0.1033525 -0.0982,-0.1860345 -0.0672,-0.082682 -0.16537,-0.1291907 -0.0982,-0.051676 -0.22737,-0.041341 -0.0775,0.020671 -0.15503,0.077514 -0.0775,0.051676 -0.1447,0.124023 -0.062,0.072347 -0.10335,0.1601965 -0.0413,0.082682 -0.0413,0.165364 z m 1.20923,-0.1343583 q 0,0.1756993 -0.0465,0.3410634 -0.0465,0.165364 -0.1447,0.2945547 -0.0982,0.1291907 -0.25321,0.2067051 -0.14986,0.077514 -0.36173,0.077514 -0.26355,0 -0.44442,-0.1705317 -0.18087,-0.1705317 -0.1912,-0.4547512 0,-0.1446935 0.0413,-0.346231 0.0465,-0.206705 0.13952,-0.3979072 0.093,-0.1912022 0.23772,-0.3307281 0.14986,-0.1446936 0.35656,-0.1705317 0.19637,-0.020671 0.32556,0.077514 0.12919,0.098185 0.20671,0.2480461 0.0723,0.1550288 0.10335,0.3307281 0.031,0.1705317 0.031,0.2945547 z m -3.44681,6.2838341 q 0.0155,0.00517 0.031,0 0.0155,-0.010335 -0.0103,-0.046509 -0.0879,-0.098185 -0.14986,-0.2015375 -0.062,-0.1085201 -0.10853,-0.2015374 -0.0465,-0.093017 -0.0775,-0.1653641 -0.031,-0.072347 -0.0517,-0.1136878 -0.0517,-0.093017 -0.13435,-0.077514 -0.093,0.02067 -0.22738,0.1085202 -0.13436,0.08785 -0.22221,0.2067051 -0.031,0.036173 -0.031,0.051676 0,0.015503 0.0413,0.041341 0.0827,0.062012 0.20154,0.1291906 0.11885,0.067179 0.24804,0.1240231 0.12919,0.051676 0.25838,0.093017 0.12919,0.041341 0.23255,0.051676 z m 0.51159,0.4805893 q -0.0465,0.1085202 -0.10335,0.2325432 -0.0517,0.1291907 -0.0982,0.1446936 -0.17053,0.031006 -0.43924,-0.025838 -0.26872,-0.051676 -0.53227,-0.1601964 -0.26355,-0.1085202 -0.46509,-0.2583813 -0.19637,-0.1498612 -0.21704,-0.3152253 -0.13952,0.1860346 -0.29972,0.30489 -0.15503,0.1136878 -0.31522,0.1860346 -0.16537,0.067179 -0.32557,0.093017 -0.15502,0.025838 -0.29455,0.025838 h -0.093 q -0.16536,0 -0.24804,-0.1240231 -0.0827,-0.1291906 -0.0827,-0.2790518 0,-0.1550288 0.0827,-0.2790519 0.0827,-0.1291906 0.24804,-0.1291906 h 0.093 q 0.1912,0 0.3824,-0.010335 0.19121,-0.010335 0.37207,-0.062012 0.18087,-0.051676 0.3514,-0.1601964 0.17053,-0.1136878 0.32039,-0.3152253 0.0827,-0.1085201 0.18087,-0.2170403 0.0982,-0.1136878 0.19637,-0.2015374 0.10335,-0.08785 0.20671,-0.139526 0.10335,-0.056844 0.19637,-0.056844 0.093,0 0.20153,0.08785 0.10852,0.08785 0.21704,0.2067051 0.11369,0.1136878 0.21188,0.2377108 0.10335,0.1240231 0.1757,0.1912022 0.12402,0.1291907 0.26355,0.2118727 0.13952,0.082682 0.28938,0.1343583 0.14986,0.051676 0.31523,0.072347 0.16536,0.02067 0.34623,0.02067 h 0.093 q 0.16019,0 0.24287,0.1291906 0.0827,0.1240231 0.0827,0.2790519 0,0.1498612 -0.0827,0.2790518 -0.0827,0.1240231 -0.24287,0.1240231 h -0.093 q -0.14986,0 -0.29972,-0.00517 -0.14986,-0.00517 -0.29456,-0.031006 -0.14469,-0.02067 -0.28422,-0.067179 -0.13436,-0.046509 -0.25838,-0.124023 z m -2.27376,-4.2942978 q 0.17053,-0.098185 0.3359,-0.1963699 0.16536,-0.098185 0.32039,-0.2118727 0.1602,-0.1136877 0.31523,-0.248046 0.15502,-0.1343583 0.29972,-0.30489 -0.13953,-0.041341 -0.29456,-0.1395259 -0.15503,-0.098185 -0.24804,-0.2118727 -0.0465,-0.056844 -0.0568,-0.1446936 -0.0103,-0.093017 0.0155,-0.1705317 0.0413,-0.124023 0.11368,-0.2687166 0.0775,-0.1446935 0.18087,-0.2635489 0.10335,-0.1188554 0.22738,-0.1912022 0.12919,-0.077514 0.25838,-0.072347 0.16019,0.010335 0.23254,0.1550288 0.0724,0.1395259 0.0878,0.3255605 0.0207,0.1860346 0,0.3669015 -0.0155,0.1808669 -0.0258,0.263549 0,0.025838 0.0155,0.041341 0.062,0.036173 0.0827,0.067179 0.0258,0.031006 0.0413,0.072347 0.031,0.077514 0.0103,0.1860346 -0.0155,0.1085201 -0.062,0.165364 -0.0413,0.051676 -0.0723,0.051676 -0.031,-0.00517 -0.062,-0.051676 -0.0258,-0.031006 -0.0517,-0.056844 -0.0207,-0.031006 -0.0672,-0.051676 -0.14469,0.1756993 -0.31006,0.3358957 -0.1602,0.1601964 -0.34106,0.2945547 -0.18604,0.1291907 -0.38757,0.2325432 -0.20154,0.1033526 -0.42375,0.1705317 -0.0879,0.025838 -0.18087,0.036173 -0.093,0.00517 -0.10335,-0.02067 -0.0103,-0.031006 0.0362,-0.072347 0.0465,-0.046509 0.11369,-0.08785 z M 224.192,3.5068718 q 0.10852,0.1498611 0.25838,0.2377108 0.14986,0.082682 0.27388,0.1136878 h 0.0103 q 0,-0.041341 0.005,-0.1085202 0.005,-0.072347 0,-0.1446935 0,-0.072347 -0.0207,-0.1395259 -0.0155,-0.067179 -0.062,-0.1136878 -0.0413,-0.036173 -0.11885,-0.031006 -0.0724,0 -0.1447,0.025838 -0.0723,0.025838 -0.13436,0.072347 -0.0568,0.041341 -0.0672,0.08785 z m -3.68452,5.3278232 q 0.031,0.067179 0.15503,0.1033525 0.12919,0.036173 0.28422,0.051676 0.15503,0.010335 0.30489,0.00517 0.15503,-0.00517 0.23255,-0.015503 0,-0.020671 -0.0568,-0.1033525 -0.0517,-0.082682 -0.13952,-0.1705317 -0.0879,-0.093017 -0.19637,-0.1653641 -0.10336,-0.077514 -0.20671,-0.08785 -0.0568,0 -0.12402,0.041341 -0.062,0.036173 -0.11886,0.098185 -0.0568,0.056844 -0.0982,0.124023 -0.0362,0.067179 -0.0362,0.1188555 z m 1.13688,0.9353404 -0.51676,0.010335 q -0.21704,0.010335 -0.41341,-0.041341 -0.1912,-0.056844 -0.3359,-0.165364 -0.13952,-0.1136878 -0.21704,-0.2790519 -0.0723,-0.1705316 -0.0465,-0.387572 0.0155,-0.1446935 0.10336,-0.3565662 0.0879,-0.2118727 0.2222,-0.4082425 0.13436,-0.2015375 0.29973,-0.3410634 0.16536,-0.1446935 0.33589,-0.1446935 0.18087,0 0.3359,0.1498611 0.16019,0.1446936 0.28422,0.346231 0.11885,0.2067051 0.19637,0.4340807 0.0775,0.2222079 0.0982,0.3824044 l 0.41341,-0.015503 h 0.0982 q 0.0775,0 0.13952,0.036173 0.062,0.036173 0.10336,0.093017 0.0413,0.056844 0.062,0.1291907 0.0207,0.072347 0.0207,0.1498612 0.005,0.1498612 -0.0775,0.2790518 -0.0827,0.1240231 -0.24804,0.1240231 h -0.0982 l -0.43408,0.00517 q -0.093,0.4392481 -0.21704,0.8629931 -0.11885,0.423745 -0.30489,0.780312 -0.1912,0.356566 -0.46508,0.625283 -0.26872,0.268716 -0.66146,0.392739 -0.25838,0.09302 -0.57361,0.118856 -0.31005,0.02584 -0.63562,0.0052 -0.32039,-0.0155 -0.63045,-0.07235 -0.31522,-0.05684 -0.56843,-0.12919 -0.0724,-0.02067 -0.0879,-0.06201 -0.0207,-0.03617 0,-0.07235 0.0155,-0.03617 0.0672,-0.06201 0.0517,-0.02584 0.12403,-0.02067 0.24288,0.02584 0.5271,0.0052 0.28938,-0.0155 0.57877,-0.07235 0.29455,-0.05168 0.56844,-0.139526 0.27388,-0.08785 0.48576,-0.206705 0.29455,-0.160196 0.52193,-0.382404 0.22737,-0.222208 0.40824,-0.485757 0.18087,-0.263549 0.31006,-0.537433 0.13435,-0.268717 0.22737,-0.5477681 z m -5.21414,-3.0902408 0.0258,-0.6976296 q 0.0103,-0.082682 0.0672,-0.093017 0.062,-0.010335 0.13953,0.015503 0.35139,0.1085201 0.66145,0.3617339 0.31006,0.248046 0.55294,0.5736065 0.23771,0.3255605 0.38757,0.692462 0.15503,0.3617339 0.18603,0.6872944 0.0103,0.124023 0,0.2842194 -0.0103,0.1601965 -0.0465,0.3203929 -0.031,0.1550288 -0.0827,0.2790519 -0.0465,0.124023 -0.11368,0.1756993 -0.1757,0.1395259 -0.43925,0.2377108 -0.26355,0.098185 -0.55811,0.1601964 -0.29972,0.062012 -0.60461,0.08785 -0.30489,0.031006 -0.56844,0.031006 -0.062,0 -0.15503,-0.010335 -0.0879,-0.00517 -0.17569,-0.031006 -0.0879,-0.031006 -0.15503,-0.082682 -0.062,-0.051676 -0.0672,-0.1343583 0,-0.041341 0,-0.1601964 0.005,-0.1188554 0.0155,-0.2480461 0.0103,-0.1291907 0.0258,-0.2273756 0.0155,-0.1033525 0.0413,-0.1033525 0.0155,0 0.0258,0.02067 0.0155,0.02067 0.031,0.036173 0.0879,0.062012 0.21188,0.093017 0.12402,0.031006 0.25838,0.041341 0.13952,0.00517 0.27388,0 0.13953,-0.010335 0.24288,-0.015503 0.18087,-0.010335 0.37724,-0.036173 0.19637,-0.031006 0.37723,-0.072347 0.18604,-0.041341 0.3514,-0.093017 0.16537,-0.056844 0.28422,-0.1188554 0.0517,-0.025838 0.0982,-0.062012 0.0465,-0.041341 0.0568,-0.072347 Q 218.10951,8.245585 217.93897,7.9458627 217.77361,7.6461403 217.53589,7.3825913 217.29302,7.12421 217.00363,6.9330078 216.71941,6.736638 216.43002,6.6797941 Z m -6.90395,1.6639758 q -0.14469,-0.082682 -0.36173,-0.1756993 -0.21187,-0.093017 -0.44958,-0.1756993 -0.23255,-0.082682 -0.45992,-0.1446936 -0.22221,-0.067179 -0.38757,-0.093017 -0.26872,-0.041341 -0.5271,0.031006 -0.25322,0.067179 -0.47542,0.222208 -0.031,0.02067 -0.062,0.00517 -0.031,-0.015503 -0.0258,-0.056844 0.0103,-0.1291907 0.0672,-0.2687166 0.062,-0.1395259 0.13952,-0.2480461 0.1912,-0.2532137 0.48576,-0.4030749 0.29972,-0.1498611 0.62528,-0.093017 0.26355,0.051676 0.53743,0.1601964 0.27389,0.1033525 0.55294,0.2377108 0.28422,0.1291907 0.57361,0.263549 0.28938,0.1291907 0.58911,0.2273756 0.43925,0.1446935 0.93017,0.2222079 0.49092,0.072347 0.96118,0.036173 0.0827,-0.00517 0.0413,0.072347 l -0.40308,0.7286354 q -0.33589,-0.08785 -0.63561,-0.1188555 -0.29973,-0.031006 -0.59945,-0.00517 -0.26871,0.025838 -0.55293,0.1085202 -0.27906,0.082682 -0.56844,0.1912022 -0.28939,0.1085201 -0.57878,0.2222079 -0.28938,0.1136878 -0.5736,0.1963698 -0.45476,0.1343583 -0.91984,0.2067051 -0.46509,0.072347 -0.96118,0.072347 -0.0258,0 -0.0465,0 -0.0258,0 -0.0465,0 -0.16536,0 -0.24288,-0.1240231 -0.0827,-0.1291906 -0.0827,-0.2790518 0,-0.1498612 0.0827,-0.2790519 0.0775,-0.1291906 0.24288,-0.1291906 0.0207,0 0.0465,0 0.0207,0 0.0465,0 0.3824,0.015503 0.76998,-0.02067 0.39274,-0.041341 0.78031,-0.1240231 0.38757,-0.082682 0.75964,-0.1963698 0.37724,-0.1188554 0.72863,-0.2687166 z m -0.72346,-3.4674775 0.63561,0.5270979 q 0.0413,0.036173 0.005,0.082682 l -0.42374,0.5322656 q -0.0362,0.051676 -0.0827,0.010335 L 208.2962,5.5015755 q -0.0413,-0.036173 0,-0.08785 l 0.42891,-0.5270979 q 0.0362,-0.046509 0.0775,-0.010335 z m 0.73897,-1.4366004 q -0.25839,0.1188554 -0.54261,0.2480461 -0.27905,0.1291907 -0.5426,0.2480461 -0.26355,0.1188554 -0.49092,0.2222079 -0.22738,0.1033526 -0.38757,0.1705317 -0.0362,0.015503 -0.0517,0 -0.0155,-0.015503 0,-0.046509 l 0.25321,-0.5064275 q 0.0258,-0.041341 0.0517,-0.056844 0.031,-0.020671 0.0568,-0.036173 l 1.88619,-0.8371556 q 0.0827,-0.036173 0.0517,0.041341 l -0.21187,0.4805893 q -0.0155,0.046509 -0.0723,0.072347 z m -6.53188,5.5138579 h 0.093 q 0.31006,0 0.60462,-0.041341 0.29455,-0.041341 0.51676,-0.1653641 0.22221,-0.1188554 0.33589,-0.3410634 0.11886,-0.2222079 0.0724,-0.5787742 l -0.51676,-4.2426215 q -0.005,-0.062012 0.0258,-0.1240231 l 0.26355,-0.5426008 q 0.0155,-0.036173 0.0413,-0.031006 0.0258,0 0.031,0.031006 l 0.59428,4.7025404 q 0.0413,0.3358957 0.12919,0.5839418 0.0879,0.2480461 0.25321,0.4185778 0.1602,0.165364 0.40825,0.2480461 0.25321,0.082682 0.62528,0.082682 h 0.093 q 0.16536,0 0.24287,0.1291906 0.0827,0.1240231 0.0827,0.2790519 0,0.1498612 -0.0827,0.2790518 -0.0775,0.1240231 -0.24287,0.1240231 h -0.093 q -0.22221,0 -0.45475,-0.036173 -0.23255,-0.041341 -0.44442,-0.1705317 -0.21187,-0.1291907 -0.39274,-0.3720691 -0.18086,-0.2480461 -0.28938,-0.6614562 -0.10852,0.4340806 -0.3204,0.6821267 -0.21187,0.2480461 -0.46508,0.3720691 -0.25839,0.1240231 -0.5271,0.1550288 -0.26872,0.031006 -0.49093,0.031006 h -0.093 q -0.16537,0 -0.24805,-0.1240231 -0.0827,-0.1291906 -0.0827,-0.2790518 0,-0.1550288 0.0827,-0.2790519 0.0827,-0.1291906 0.24805,-0.1291906 z m 2.33059,2.4339526 q -0.50642,0.160196 -0.99735,0.32556 -0.49092,0.165364 -0.94051,0.310058 -0.0827,0.02584 -0.0413,-0.05168 l 0.21188,-0.392739 q 0.0155,-0.03101 0.0258,-0.04651 0.0155,-0.0155 0.0465,-0.02584 0.13953,-0.05168 0.3669,-0.129191 0.22738,-0.07235 0.49093,-0.160196 0.26872,-0.08268 0.54777,-0.170532 0.27905,-0.08785 0.53226,-0.165364 0.0413,-0.0155 0.0517,-0.01033 0.0103,0.01033 -0.0103,0.05168 l -0.2222,0.403075 q -0.0155,0.02067 -0.031,0.03617 -0.0103,0.02067 -0.031,0.02584 z m -3.09023,0.439248 q -0.0258,0.03101 -0.0413,0.03101 -0.0155,0.0052 -0.0568,-0.02584 l -0.61495,-0.480589 -0.40307,0.552936 q -0.0362,0.04651 -0.0775,0.0155 l -0.65628,-0.506427 q -0.0362,-0.02584 -0.0103,-0.06201 l 0.41858,-0.594277 q 0.0207,-0.03101 0.0362,-0.03101 0.0155,0 0.0362,0.02067 l 0.62012,0.470254 0.42375,-0.542601 q 0.031,-0.04134 0.062,-0.0155 l 0.65629,0.547769 q 0.0362,0.02584 0,0.07235 z m -2.16007,-2.0618832 h -0.093 q -0.15503,0 -0.23254,-0.1240231 -0.0775,-0.1291906 -0.0775,-0.2842194 0,-0.077514 0.0207,-0.1498612 0.0155,-0.072347 0.0568,-0.1291907 0.0362,-0.056844 0.0982,-0.093017 0.0568,-0.036173 0.13436,-0.036173 h 0.093 q 0.16019,0 0.35656,-0.010335 0.20154,-0.010335 0.37724,-0.056844 0.17053,-0.046509 0.3359,-0.1395259 0.16536,-0.098185 0.30489,-0.2687166 0.10335,-0.1240231 0.16536,-0.2532137 0.0672,-0.1291907 0.12919,-0.2945547 0.0258,-0.067179 0.0827,-0.072347 0.062,-0.00517 0.0672,0.025838 0.005,0.062012 -0.0103,0.1498612 -0.0103,0.08785 -0.0103,0.1601964 0,0.1343583 0.0672,0.2687166 0.0672,0.1343583 0.20671,0.2428785 0.13952,0.1085201 0.3824,0.1808669 0.24805,0.067179 0.5581,0.067179 h 0.0982 q 0.0775,0 0.13436,0.036173 0.0568,0.036173 0.093,0.093017 0.0413,0.056844 0.0568,0.1291907 0.0207,0.072347 0.0207,0.1498612 0,0.1550288 -0.0775,0.2842194 -0.0723,0.1240231 -0.22737,0.1240231 h -0.0982 q -0.27905,0 -0.53226,-0.051676 -0.24805,-0.056844 -0.42375,-0.165364 -0.34106,-0.2067051 -0.53226,-0.60978 -0.11369,0.2325432 -0.26872,0.387572 -0.15503,0.1550288 -0.34106,0.2532137 -0.1912,0.098185 -0.43408,0.1446936 -0.24288,0.041341 -0.48059,0.041341 z m -1.25057,1.2970742 -0.7338,-6.8264349 q 0.0517,-0.1705317 0.12402,-0.3307281 0.0724,-0.165364 0.14986,-0.3358957 0.0207,-0.036173 0.0517,-0.036173 0.0362,-0.00517 0.0465,0.082682 l 0.46508,3.891223 q 0.031,0.3307281 0.0982,0.5994447 0.0672,0.2687166 0.19637,0.4547511 0.12919,0.1912022 0.33589,0.2945548 0.20671,0.098185 0.51677,0.098185 h 0.093 q 0.16537,0 0.24805,0.1291906 0.0827,0.1240231 0.0827,0.2790519 0,0.1498612 -0.0827,0.2790518 -0.0827,0.1240231 -0.24805,0.1240231 h -0.093 q -0.3204,0 -0.56844,-0.093017 -0.24805,-0.093017 -0.41858,-0.2842195 0.0155,0.1653641 0.031,0.3617339 0.0155,0.1912022 0.0258,0.3720693 0.0155,0.186035 0.0207,0.341063 0.005,0.155029 0,0.242879 -0.0413,0.506427 -0.24287,0.909502 -0.19637,0.403075 -0.52193,0.687295 -0.3204,0.289387 -0.74931,0.439248 -0.42375,0.155029 -0.91984,0.155029 -0.43925,0 -0.80098,-0.134359 -0.36173,-0.12919 -0.62528,-0.377236 -0.25838,-0.248047 -0.40308,-0.604613 -0.14469,-0.351398 -0.14469,-0.795814 0,-0.48059 0.15503,-0.925005 0.15503,-0.439249 0.43408,-0.8474915 0.031,-0.046509 0.0517,-0.041341 0.0258,0 0.0414,0.025838 0.0155,0.025838 0.0207,0.062012 0.005,0.031006 0,0.041341 -0.21704,0.4599188 -0.29456,0.9560105 -0.0775,0.50126 0.0775,0.904335 0.15502,0.403075 0.52709,0.656289 0.37724,0.253213 1.01803,0.253213 0.28938,0 0.57877,-0.06718 0.29455,-0.06201 0.56327,-0.191202 0.26872,-0.124023 0.49609,-0.315225 0.23255,-0.186035 0.39791,-0.434081 z m -7.80311,-7.9943185 q 0.0827,0.00517 0.0775,0.1912022 -0.0103,0.1963698 0.005,0.387572 0.0155,0.1860345 0.0413,0.3772367 0.0517,0.4599188 0.12403,0.9508434 0.0723,0.4857569 0.14469,0.981849 0.0672,0.4909246 0.13436,0.9818491 0.0672,0.4909246 0.11369,0.956011 0.0207,0.1808669 0.0258,0.4237454 0.0103,0.2428784 -0.005,0.4960922 -0.0103,0.248046 -0.0568,0.4805892 -0.0413,0.2325433 -0.11885,0.3875721 -0.0413,0.08785 -0.0982,0.1136877 -0.0465,0.00517 -0.0413,-0.041341 -0.031,-0.4495835 -0.0775,-0.9043347 -0.0413,-0.4599187 -0.10852,-0.9353404 -0.0672,-0.4909245 -0.13436,-0.9715138 -0.0672,-0.4805893 -0.12919,-0.9611786 -0.0672,-0.4805893 -0.13436,-0.9611786 -0.062,-0.4805893 -0.12402,-0.9663462 0.0155,-0.1188554 0.0465,-0.2428785 0.031,-0.1291906 0.0879,-0.2635489 0.12403,-0.3358958 0.16537,-0.4082425 0.0465,-0.072347 0.062,-0.072347 z m -4.59919,4.1961129 q 0.26355,0.072347 0.48576,0.1395259 0.2222,0.067179 0.42891,0.1291907 0.21187,0.056844 0.41858,0.1033526 0.2067,0.046509 0.43924,0.077514 0.45476,0.062011 0.83716,0.077514 0.38757,0.010335 0.7028,0.025838 0.0258,0 0.031,0.025838 0.0103,0.025838 0,0.062012 -0.0155,0.046509 -0.0672,0.1291907 -0.0465,0.077514 -0.10335,0.1705317 -0.0568,0.08785 -0.11369,0.1756993 -0.0568,0.082682 -0.0879,0.1446936 -0.0258,0.046509 -0.0672,0.051676 -0.0413,0.00517 -0.10335,-0.00517 -0.42891,-0.072347 -0.80615,-0.056844 -0.37207,0.015503 -0.72347,0.08785 -0.34623,0.072347 -0.68729,0.1912021 -0.34106,0.1188555 -0.69763,0.2532138 -0.41858,0.1550288 -0.84232,0.2893871 -0.41858,0.1291906 -0.85783,0.2273755 -0.43408,0.093017 -0.89917,0.1498612 -0.45991,0.051676 -0.95601,0.051676 h -0.0982 q -0.17053,0 -0.25838,-0.1240231 -0.0879,-0.1291906 -0.0879,-0.2842194 0,-0.1550288 0.0879,-0.2790519 0.0879,-0.1291906 0.25838,-0.1291906 h 0.0982 q 0.36174,0 0.79065,-0.015503 0.42891,-0.015503 0.92501,-0.082682 0.50126,-0.072347 1.06969,-0.2170403 0.57361,-0.1498612 1.21956,-0.4134101 -0.40824,-0.1291907 -0.79064,-0.2170403 -0.37724,-0.093017 -0.75448,-0.139526 -0.37207,-0.046509 -0.75447,-0.046509 -0.3824,0 -0.80098,0.051676 -0.0568,0 -0.0258,-0.051676 0.0982,-0.2015375 0.1912,-0.3565663 0.0982,-0.1601964 0.23255,-0.3203928 0.0207,-0.025838 0.12919,-0.046509 0.10852,-0.020671 0.27388,-0.041341 0.16536,-0.020671 0.3669,-0.036173 0.20671,-0.020671 0.41858,-0.036173 0.21704,-0.020671 0.41858,-0.036173 0.20153,-0.020671 0.3669,-0.041341 0.12402,-0.015503 0.2067,-0.041341 0.0827,-0.031006 0.0724,-0.1188554 -0.0258,-0.2687166 -0.0775,-0.6304504 -0.0465,-0.3617339 -0.11369,-0.7544736 -0.062,-0.3979072 -0.13436,-0.7958145 -0.0724,-0.4030749 -0.14469,-0.7493059 -0.0258,-0.1136878 -0.0517,-0.248046 -0.0207,-0.1343583 -0.0568,-0.263549 -0.031,-0.1291907 -0.0775,-0.2325432 -0.0465,-0.1085202 -0.11369,-0.1653641 l 0.34107,-0.6872943 q 0.0723,-0.08785 0.11885,0 0.0465,0.124023 0.0982,0.2532137 0.0568,0.1291906 0.12402,0.2532137 0.0724,0.1188554 0.16537,0.2222079 0.093,0.1033526 0.21704,0.180867 -0.031,0.067179 -0.093,0.1446935 -0.0568,0.072347 -0.11369,0.1550288 -0.0568,0.082682 -0.093,0.1756993 -0.031,0.08785 -0.0103,0.180867 0.0155,0.077514 0.062,0.3203928 0.0465,0.2428785 0.10335,0.5581037 0.0568,0.3100576 0.11369,0.651121 0.0568,0.3410634 0.093,0.6201152 0.0155,0.1395259 0.0207,0.3100576 0.005,0.1653641 -0.0207,0.346231 -0.0207,0.1756993 -0.0775,0.3513986 -0.0568,0.1756993 -0.16536,0.3255605 z m -3.2246,-1.2453979 q 0.17053,-0.098185 0.33589,-0.1963699 0.16537,-0.098185 0.3204,-0.2118727 0.16019,-0.1136877 0.31522,-0.248046 0.15503,-0.1343583 0.29973,-0.30489 -0.13953,-0.041341 -0.29456,-0.1395259 -0.15503,-0.098185 -0.24805,-0.2118727 -0.0465,-0.056844 -0.0568,-0.1446936 -0.0103,-0.093017 0.0155,-0.1705317 0.0413,-0.124023 0.11369,-0.2687166 0.0775,-0.1446935 0.18087,-0.2635489 0.10335,-0.1188554 0.22737,-0.1912022 0.12919,-0.077514 0.25839,-0.072347 0.16019,0.010335 0.23254,0.1550288 0.0724,0.1395259 0.0879,0.3255605 0.0207,0.1860346 0,0.3669015 -0.0155,0.1808669 -0.0258,0.263549 0,0.025838 0.0155,0.041341 0.062,0.036173 0.0827,0.067179 0.0258,0.031006 0.0413,0.072347 0.031,0.077514 0.0103,0.1860346 -0.0155,0.1085201 -0.062,0.165364 -0.0413,0.051676 -0.0724,0.051676 -0.031,-0.00517 -0.062,-0.051676 -0.0258,-0.031006 -0.0517,-0.056844 -0.0207,-0.031006 -0.0672,-0.051676 -0.1447,0.1756993 -0.31006,0.3358957 -0.1602,0.1601964 -0.34107,0.2945547 -0.18603,0.1291907 -0.38757,0.2325432 -0.20153,0.1033526 -0.42374,0.1705317 -0.0879,0.025838 -0.18087,0.036173 -0.093,0.00517 -0.10335,-0.020671 -0.0103,-0.031006 0.0362,-0.072347 0.0465,-0.046509 0.11369,-0.08785 z m 0.97151,-1.7363226 q 0.10852,0.1498611 0.25838,0.2377108 0.14987,0.082682 0.27389,0.1136878 h 0.0103 q 0,-0.041341 0.005,-0.1085202 0.005,-0.072347 0,-0.1446935 0,-0.072347 -0.0207,-0.1395259 -0.0155,-0.067179 -0.062,-0.1136878 -0.0413,-0.036173 -0.11886,-0.031006 -0.0723,0 -0.14469,0.025838 -0.0724,0.025838 -0.13436,0.072347 -0.0568,0.041341 -0.0672,0.08785 z m -9.44125,4.2839625 q 0.58911,-0.1188554 1.15755,-0.2997224 0.56844,-0.1860345 1.14721,-0.4185778 0.0362,-0.00517 0.0362,0.041341 -0.0465,0.2635489 -0.005,0.4495835 0.0465,0.1860346 0.16019,0.3152252 0.11886,0.1240231 0.29456,0.1963698 0.18086,0.072347 0.40824,0.1085202 0.24805,-0.3152252 0.5116,-0.6149476 0.26354,-0.30489 0.55293,-0.5787742 0.28939,-0.2790518 0.60461,-0.5167627 0.31523,-0.2377108 0.6718,-0.428913 0.17053,-0.093017 0.38757,-0.1188554 0.21704,-0.025838 0.44441,0.00517 0.22738,0.031006 0.44442,0.1136878 0.21704,0.082682 0.38757,0.2118727 0.1757,0.1240231 0.28422,0.2893871 0.11369,0.1601964 0.12402,0.3513986 -0.0207,0.4392483 -0.1757,0.7596412 -0.14986,0.3203928 -0.3979,0.5581037 0.26355,0.015503 0.52193,-0.00517 0.25838,-0.025838 0.48059,-0.025838 h 0.093 q 0.11369,0 0.18604,0.062012 0.0724,0.056844 0.10852,0.1498612 0.0413,0.08785 0.0362,0.1912022 0,0.1033525 -0.0362,0.1963698 -0.0362,0.08785 -0.11369,0.1498612 -0.0724,0.056844 -0.18087,0.056844 h -0.093 q -0.25322,0 -0.58911,0.00517 -0.33073,0.00517 -0.71314,0.010335 -0.3824,0.00517 -0.79581,0.00517 -0.40824,0.00517 -0.81648,-0.00517 -0.27906,0.041341 -0.58395,0.051676 -0.30489,0.010335 -0.58911,-0.00517 -0.28422,-0.010335 -0.51676,-0.041341 -0.23254,-0.031006 -0.3669,-0.072347 -0.0775,0.1136878 -0.11886,0.2015375 -0.0413,0.093017 -0.0672,0.144694 -0.0672,0.144693 -0.14986,0.124023 -0.093,-0.03101 -0.0568,-0.1912026 0.0103,-0.041341 0.0465,-0.1291907 0.0362,-0.082682 0.093,-0.2428785 -0.13436,-0.046509 -0.27389,-0.124023 -0.13436,-0.082682 -0.24804,-0.2015375 -0.11369,-0.1188554 -0.19637,-0.2687165 -0.0827,-0.1550288 -0.10852,-0.3513987 -0.38758,0.1653641 -0.76998,0.2997224 -0.38241,0.1291907 -0.82165,0.2325432 -0.0465,0.3255605 -0.11369,0.6356181 -0.0672,0.3100578 -0.14986,0.5891098 -0.0827,0.279051 -0.18087,0.516762 -0.093,0.242879 -0.1912,0.428913 -0.26355,0.50126 -0.6873,0.775144 -0.41857,0.279052 -0.95084,0.335896 -0.47542,0.05168 -0.88366,0 -0.40825,-0.04651 -0.78032,-0.191202 -0.0982,-0.03617 -0.11885,-0.07751 -0.0207,-0.04134 0.0103,-0.07752 0.0258,-0.03617 0.093,-0.05684 0.062,-0.02067 0.13953,-0.0155 0.26355,0.01034 0.45992,0.0052 0.19637,-0.0052 0.3669,-0.03617 0.1757,-0.03101 0.34106,-0.08785 0.16537,-0.05168 0.36174,-0.134358 0.34623,-0.144694 0.65628,-0.418578 0.31523,-0.273884 0.56844,-0.620115 0.25322,-0.341064 0.44442,-0.728636 0.1912,-0.3875718 0.29972,-0.7648085 -0.0465,0.010335 -0.12402,0.025838 -0.0775,0.010335 -0.11369,0.015503 -0.0413,0 -0.031,-0.041341 0.0258,-0.1653641 0.0672,-0.3255605 0.0413,-0.1601964 0.0672,-0.3255605 0.0103,-0.056844 0.0517,-0.067179 z m 3.63284,0.4392482 q 0.22738,0.046509 0.5271,0.051676 0.29972,0.00517 0.63045,-0.031006 0.33073,-0.036173 0.67179,-0.1085202 0.34623,-0.077514 0.65629,-0.1860346 0.31522,-0.1136878 0.57877,-0.2635489 0.26872,-0.1498612 0.44442,-0.3307282 -0.10852,-0.2222079 -0.31006,-0.3720691 -0.20154,-0.1550288 -0.43925,-0.2325432 -0.23771,-0.082682 -0.48575,-0.08785 -0.24288,-0.00517 -0.43925,0.072347 -0.26872,0.1033526 -0.52193,0.2687166 -0.24805,0.1601965 -0.48059,0.3617339 -0.22738,0.1963698 -0.43925,0.4185778 -0.2067,0.2222079 -0.39274,0.4392489 z m 1.39009,-5.0487714 q -0.25838,0.1188554 -0.5426,0.2480461 -0.27905,0.1291907 -0.5426,0.2480461 -0.26355,0.1188554 -0.49092,0.222208 -0.22738,0.1033525 -0.38758,0.1705316 -0.0362,0.015503 -0.0517,0 -0.0155,-0.015503 0,-0.046509 l 0.25321,-0.5064274 q 0.0258,-0.041341 0.0517,-0.056844 0.031,-0.020671 0.0568,-0.036173 l 1.88618,-0.8371555 q 0.0827,-0.036173 0.0517,0.041341 l -0.21187,0.4805893 q -0.0155,0.046509 -0.0724,0.072347 z m -5.20897,9.6272888 q -0.50642,0.160196 -0.99735,0.32556 -0.49092,0.165365 -0.94051,0.310058 -0.0827,0.02584 -0.0413,-0.05168 l 0.21188,-0.39274 q 0.0155,-0.03101 0.0258,-0.04651 0.0155,-0.0155 0.0465,-0.02584 0.13953,-0.05168 0.3669,-0.12919 0.22738,-0.07235 0.49093,-0.160197 0.26872,-0.08268 0.54777,-0.170531 0.27905,-0.08785 0.53226,-0.165364 0.0413,-0.0155 0.0517,-0.01034 0.0103,0.01034 -0.0103,0.05168 l -0.2222,0.403074 q -0.0155,0.02067 -0.031,0.03617 -0.0103,0.02067 -0.031,0.02584 z m -3.74653,-3.6741827 q -0.35139,0.2945547 -0.74413,0.5426007 -0.39274,0.248046 -0.81649,0.428913 -0.42374,0.180867 -0.8785,0.279052 -0.45475,0.103353 -0.925,0.103353 -0.47542,0 -0.89917,-0.134359 -0.41858,-0.12919 -0.7338,-0.387572 -0.31006,-0.253213 -0.50126,-0.635618 -0.18603,-0.3772366 -0.1912,-0.8733288 -0.0155,-0.5477684 0.15503,-1.0645311 0.1757,-0.5167627 0.50126,-0.9663462 0.031,-0.041341 0.0517,-0.036173 0.0207,0 0.0362,0.025838 0.0155,0.020671 0.0207,0.051676 0.005,0.025838 0.005,0.041341 -0.10335,0.2118727 -0.20153,0.4444159 -0.093,0.2325432 -0.15503,0.4754217 -0.062,0.2428785 -0.0724,0.4960922 -0.005,0.2532137 0.0827,0.5064274 0.093,0.2997223 0.25838,0.5219303 0.17054,0.2222079 0.39274,0.3720696 0.22221,0.155028 0.48576,0.23771 0.26872,0.08268 0.56327,0.108521 0.42375,0.03617 0.8785,-0.02584 0.45475,-0.05684 0.90433,-0.191202 0.44959,-0.139526 0.863,-0.3410632 0.41857,-0.2015374 0.76481,-0.4495835 0.0879,-0.062011 0.093,-0.1033525 0.005,-0.046509 -0.0362,-0.077514 -0.0362,-0.036173 -0.10335,-0.056844 -0.062,-0.020671 -0.10852,-0.036173 -0.14986,-0.041341 -0.32556,-0.067179 -0.1757,-0.031006 -0.36174,-0.056844 -0.18086,-0.025838 -0.36173,-0.051676 -0.1757,-0.031006 -0.32556,-0.067179 -0.17053,-0.041341 -0.32556,-0.124023 -0.14986,-0.082682 -0.26355,-0.1963698 -0.11369,-0.1188555 -0.18604,-0.2687166 -0.0672,-0.1498612 -0.0723,-0.3203929 -0.0103,-0.2428785 0.0465,-0.4857569 0.062,-0.2428785 0.1757,-0.470254 0.11368,-0.2325433 0.26354,-0.444416 0.15503,-0.2170403 0.33073,-0.4082425 0.18087,-0.2015374 0.38757,-0.3772367 0.20671,-0.1756993 0.41858,-0.2945547 0.21704,-0.1188555 0.43408,-0.1653641 0.21704,-0.051676 0.41858,-0.00517 0.21704,0.056844 0.34623,0.206705 0.12919,0.1498612 0.1757,0.3410634 0.0517,0.1912022 0.0258,0.3979073 -0.0258,0.206705 -0.11369,0.3720691 -0.0155,0.02067 -0.0465,0.015503 -0.0258,-0.00517 -0.0362,-0.036173 -0.031,-0.077514 -0.0982,-0.1756993 -0.0672,-0.098185 -0.16019,-0.1860346 -0.093,-0.08785 -0.20671,-0.1446935 -0.10852,-0.062012 -0.23254,-0.062012 -0.24805,0 -0.51676,0.1291907 -0.26355,0.1291907 -0.50643,0.3307281 -0.24288,0.2015375 -0.43408,0.4444159 -0.18604,0.2428785 -0.27905,0.4702541 -0.093,0.1808669 -0.0465,0.3048899 0.0517,0.1188555 0.1912,0.2170404 0.13953,0.1033525 0.32556,0.1705317 0.1912,0.067179 0.39274,0.1136877 0.20154,0.046509 0.40308,0.077514 0.20153,0.025838 0.37206,0.051676 0.12403,0.02067 0.26355,0.051676 0.1447,0.031006 0.26872,0.08785 0.12402,0.051676 0.21187,0.139526 0.0879,0.082682 0.10336,0.2118727 0.0155,0.1136877 -0.005,0.2635489 -0.0207,0.1446936 -0.0724,0.2893871 -0.0465,0.1446936 -0.11885,0.2738842 -0.0672,0.1240231 -0.14987,0.1912022 z m -10.59363,2.0825537 h -0.66662 q 1.54512,-2.4804609 1.54512,-4.9660894 0,-0.9715138 -0.22221,-1.9275248 -0.1757,-0.775144 -0.49093,-1.4882765 -0.20153,-0.4650864 -0.83198,-1.550288 h 0.66662 q 0.97151,1.2970743 1.4366,2.6044839 0.39791,1.1265426 0.39791,2.3564378 0,1.3952592 -0.53744,2.6975011 -0.53226,1.3022419 -1.29707,2.2737559 z M 158.5063,7.8580135 q -0.0207,0.046509 -0.0672,0.1395259 -0.0465,0.08785 -0.10336,0.1860346 -0.0517,0.098185 -0.10852,0.1912022 -0.0568,0.08785 -0.0982,0.1395259 -0.031,0.056844 -0.14986,0.031006 -0.54777,-0.1033526 -1.02319,-0.056844 -0.47542,0.046509 -0.94568,0.1963698 -0.40824,0.1343583 -0.77514,0.2997223 -0.3669,0.1601965 -0.72347,0.2842195 -0.68213,0.2480461 -1.32291,0.3720691 -0.63562,0.1240231 -1.31775,0.1240231 h -0.093 q -0.16537,0 -0.24805,-0.1240231 -0.0827,-0.1291906 -0.0827,-0.2842194 0,-0.1550288 0.0827,-0.2790519 0.0827,-0.1291906 0.24805,-0.1291906 h 0.093 q 0.23771,0 0.4961,-0.010335 0.25838,-0.010335 0.50642,-0.031006 0.24805,-0.020671 0.47026,-0.046509 0.2222,-0.031006 0.39274,-0.067179 0.35656,-0.077514 0.7493,-0.2170403 0.39791,-0.1446935 0.83716,-0.3255605 -0.25322,-0.036173 -0.58911,-0.08785 -0.3359,-0.056844 -0.69246,-0.1085202 -0.35657,-0.056844 -0.69763,-0.1033525 -0.34107,-0.046509 -0.59945,-0.072347 -0.0362,-0.010335 -0.10335,0.010335 -0.0672,0.02067 -0.13436,0.046509 -0.031,0.010335 -0.062,-0.010335 -0.031,-0.020671 -0.0207,-0.067179 0.062,-0.2222079 0.18087,-0.4495835 0.11885,-0.2273756 0.2222,-0.387572 0.0465,-0.067179 0.23255,-0.1550288 0.1912,-0.093017 0.45475,-0.2067051 0.26871,-0.1188554 0.57877,-0.263549 0.31006,-0.1446935 0.60461,-0.3152252 0.29456,-0.1756993 0.53744,-0.3824044 0.24288,-0.2118727 0.37207,-0.4547511 0.10335,-0.1963699 0.22737,-0.4392483 0.12403,-0.2428785 0.26872,-0.4495836 0.14986,-0.2118726 0.31522,-0.3462309 0.17054,-0.139526 0.36691,-0.1291907 0.1757,0.010335 0.33589,0.1860345 0.1602,0.1756994 0.28422,0.4185778 0.12402,0.2428785 0.19637,0.5064274 0.0724,0.263549 0.0724,0.4444159 0,0.093017 -0.0362,0.2170404 -0.0362,0.124023 -0.0878,0.2377108 -0.0465,0.1085202 -0.10335,0.1963698 -0.0568,0.082682 -0.0982,0.098185 -0.10852,0.041341 -0.29973,0.031006 -0.18603,-0.010335 -0.41341,-0.067179 -0.2222,-0.062011 -0.45475,-0.1705316 -0.23254,-0.1136878 -0.42374,-0.2790519 -0.45475,0.5942771 -0.97668,0.9405081 -0.52193,0.346231 -1.14722,0.5270979 0.37724,0.067179 0.70797,0.1291907 0.33073,0.056844 0.64078,0.1136878 0.31523,0.051676 0.62529,0.098185 0.31522,0.046509 0.65629,0.08785 0.53226,0.062012 1.1007,0.1188555 0.56844,0.051676 1.1007,0.072347 0.0775,0.00517 0.0413,0.072347 z m -1.3125,-2.3719407 q -0.031,-0.077514 -0.093,-0.2170403 -0.062,-0.1395259 -0.14986,-0.2790519 -0.0827,-0.1395259 -0.1912,-0.2377108 -0.10335,-0.1033525 -0.22221,-0.1033525 -0.0517,0 -0.12919,0.051676 -0.0724,0.046509 -0.14469,0.1188555 -0.0724,0.067179 -0.12919,0.1395259 -0.0569,0.067179 -0.0775,0.1136878 0.24805,0.2170403 0.5271,0.3100576 0.28422,0.093017 0.60978,0.1033525 z m -3.28144,4.9712572 0.63561,0.527098 q 0.0413,0.03617 0.005,0.08268 l -0.42374,0.532265 q -0.0362,0.05168 -0.0827,0.01034 l -0.64078,-0.527098 q -0.0413,-0.03617 0,-0.08785 l 0.42891,-0.527098 q 0.0362,-0.04651 0.0775,-0.01033 z m 1.48827,-7.5395675 q 0.17053,-0.098185 0.3359,-0.1963698 0.16536,-0.098185 0.32039,-0.2118727 0.1602,-0.1136878 0.31523,-0.2480461 0.15502,-0.1343583 0.29972,-0.3048899 -0.13953,-0.041341 -0.29456,-0.139526 -0.15503,-0.098185 -0.24804,-0.2118727 -0.0465,-0.056844 -0.0568,-0.1446935 -0.0103,-0.093017 0.0155,-0.1705317 0.0413,-0.124023 0.11368,-0.2687166 0.0775,-0.14469354 0.18087,-0.26354895 0.10335,-0.11885542 0.22738,-0.1912022 0.12919,-0.0775144 0.25838,-0.0723468 0.16019,0.0103353 0.23254,0.1550288 0.0724,0.13952593 0.0879,0.32556049 0.0207,0.18603456 0,0.36690156 -0.0155,0.1808669 -0.0258,0.2635489 0,0.025838 0.0155,0.041341 0.062,0.036173 0.0827,0.067179 0.0258,0.031006 0.0413,0.072347 0.031,0.077514 0.0103,0.1860345 -0.0155,0.1085202 -0.062,0.1653641 -0.0413,0.051676 -0.0723,0.051676 -0.031,-0.00517 -0.062,-0.051676 -0.0258,-0.031006 -0.0517,-0.056844 -0.0207,-0.031006 -0.0672,-0.051676 -0.14469,0.1756993 -0.31006,0.3358958 -0.1602,0.1601964 -0.34106,0.2945547 -0.18604,0.1291907 -0.38757,0.2325432 -0.20154,0.1033525 -0.42375,0.1705317 -0.0879,0.025838 -0.18087,0.036173 -0.093,0.00517 -0.10335,-0.020671 -0.0103,-0.031006 0.0362,-0.072347 0.0465,-0.046509 0.11369,-0.08785 z m 0.97152,-1.7363226 q 0.10852,0.1498612 0.25838,0.2377109 0.14986,0.082682 0.27388,0.1136878 h 0.0103 q 0,-0.041341 0.005,-0.1085202 0.005,-0.072347 0,-0.1446936 0,-0.072347 -0.0207,-0.1395259 -0.0155,-0.067179 -0.062,-0.1136878 -0.0413,-0.0361733 -0.11885,-0.0310057 -0.0724,0 -0.1447,0.0258381 -0.0723,0.025838 -0.13436,0.072347 -0.0568,0.041341 -0.0672,0.08785 z m -2.35127,1.9998712 q -0.25839,0.1188554 -0.54261,0.2480461 -0.27905,0.1291907 -0.5426,0.2480461 -0.26355,0.1188554 -0.49092,0.222208 -0.22738,0.1033525 -0.38757,0.1705316 -0.0362,0.015503 -0.0517,0 -0.0155,-0.015503 0,-0.046509 l 0.25321,-0.5064274 q 0.0258,-0.041341 0.0517,-0.056844 0.031,-0.020671 0.0568,-0.036173 l 1.88619,-0.8371555 q 0.0827,-0.036173 0.0517,0.041341 l -0.21187,0.4805893 q -0.0155,0.046509 -0.0723,0.072347 z m -4.04626,5.6533839 q 0.031,0.067179 0.15503,0.1033525 0.12919,0.036173 0.28422,0.051676 0.15503,0.010335 0.30489,0.00517 0.15503,-0.00517 0.23255,-0.015503 0,-0.020671 -0.0568,-0.1033525 -0.0517,-0.082682 -0.13952,-0.1705317 -0.0879,-0.093017 -0.19637,-0.1653641 -0.10336,-0.077514 -0.20671,-0.08785 -0.0568,0 -0.12402,0.041341 -0.062,0.036173 -0.11886,0.098185 -0.0568,0.056844 -0.0982,0.124023 -0.0362,0.067179 -0.0362,0.1188555 z m 1.13688,0.9353404 -0.51676,0.010335 q -0.21704,0.010335 -0.41341,-0.041341 -0.1912,-0.056844 -0.3359,-0.165364 -0.13952,-0.1136878 -0.21704,-0.2790519 -0.0723,-0.1705316 -0.0465,-0.387572 0.0155,-0.1446935 0.10336,-0.3565662 0.0879,-0.2118727 0.2222,-0.4082425 0.13436,-0.2015375 0.29973,-0.3410634 0.16536,-0.1446935 0.33589,-0.1446935 0.18087,0 0.3359,0.1498611 0.1602,0.1446936 0.28422,0.346231 0.11885,0.2067051 0.19637,0.4340807 0.0775,0.2222079 0.0982,0.3824044 l 0.41341,-0.015503 h 0.0982 q 0.0775,0 0.13952,0.036173 0.062,0.036173 0.10336,0.093017 0.0413,0.056844 0.062,0.1291907 0.0207,0.072347 0.0207,0.1498612 0.005,0.1498612 -0.0775,0.2790518 -0.0827,0.1240231 -0.24804,0.1240231 h -0.0982 l -0.43408,0.00517 q -0.093,0.4392481 -0.21704,0.8629931 -0.11885,0.423745 -0.30489,0.780312 -0.1912,0.356566 -0.46508,0.625283 -0.26872,0.268716 -0.66146,0.392739 -0.25838,0.09302 -0.57361,0.118856 -0.31005,0.02584 -0.63562,0.0052 -0.32039,-0.0155 -0.63045,-0.07235 -0.31522,-0.05684 -0.56843,-0.12919 -0.0724,-0.02067 -0.0879,-0.06201 -0.0207,-0.03617 0,-0.07235 0.0155,-0.03617 0.0672,-0.06201 0.0517,-0.02584 0.12403,-0.02067 0.24288,0.02584 0.5271,0.0052 0.28938,-0.0155 0.57877,-0.07235 0.29455,-0.05168 0.56844,-0.139526 0.27388,-0.08785 0.48576,-0.206705 0.29455,-0.160196 0.52193,-0.382404 0.22737,-0.222208 0.40824,-0.485757 0.18087,-0.263549 0.31006,-0.537433 0.13435,-0.268717 0.22737,-0.5477681 z m -1.31774,-4.7077082 q -0.11369,0.2273756 -0.25838,0.3410634 -0.15503,0.1188554 -0.36691,0.124023 -0.17053,0.00517 -0.29972,-0.08785 -0.12402,-0.093017 -0.14469,-0.3255604 -0.0103,-0.1033526 0.0103,-0.2118727 0.0207,-0.1136878 0.062,-0.2118727 0.0413,-0.093017 0.093,-0.1601965 0.0568,-0.072347 0.11886,-0.093017 0.062,-0.00517 0.0103,0.093017 -0.031,0.056844 -0.0517,0.1343583 -0.0155,0.077514 -0.0207,0.1550288 0,0.072347 0.0155,0.1240231 0.0155,0.051676 0.0672,0.098185 0.0775,0.056844 0.16536,0.056844 0.0879,-0.00517 0.17053,-0.041341 0.0879,-0.036173 0.15503,-0.082682 0.0724,-0.051676 0.1447,-0.1343583 0.0672,-0.077514 0.0982,-0.1963698 0.031,-0.1188554 0.0413,-0.1963698 0.005,-0.067179 0.0362,-0.1343583 0.031,-0.067179 0.10335,-0.067179 0.0155,0 0.0207,0.031006 0.0103,0.025838 0.0155,0.062011 0.005,0.036173 0.005,0.072347 0,0.031006 0,0.046509 0,0.1498611 0.0465,0.2377108 0.0465,0.082682 0.18603,0.1136878 0.0724,0.015503 0.18604,-0.015503 0.11885,-0.031006 0.2067,-0.1033525 0.0103,-0.010335 0.005,-0.056844 -0.005,-0.046509 -0.0207,-0.098185 -0.0103,-0.051676 -0.0362,-0.1085202 -0.0207,-0.062011 -0.0258,-0.072347 l 0.1912,-0.3617338 q 0.0517,0.025838 0.0775,0.1136877 0.031,0.08785 0.0362,0.2015375 0.0103,0.1085201 0,0.2222079 -0.0103,0.1136878 -0.0258,0.1912022 -0.062,0.1912022 -0.17053,0.346231 -0.10335,0.1550288 -0.32039,0.1963698 -0.19121,0.036173 -0.3204,-0.025838 -0.12919,-0.062012 -0.2067,-0.1756993 z m 0.93017,-2.077386 q -0.25838,0.1188554 -0.5426,0.2480461 -0.27905,0.1291907 -0.5426,0.2480461 -0.26355,0.1188554 -0.49093,0.222208 -0.22737,0.1033525 -0.38757,0.1705316 -0.0362,0.015503 -0.0517,0 -0.0155,-0.015503 0,-0.046509 l 0.25321,-0.5064274 q 0.0258,-0.041341 0.0517,-0.056844 0.031,-0.020671 0.0568,-0.036173 l 1.88618,-0.8371555 q 0.0827,-0.036173 0.0517,0.041341 l -0.21187,0.4805893 q -0.0155,0.046509 -0.0724,0.072347 z m -4.82656,3.6948534 0.0258,-0.6976296 q 0.0103,-0.082682 0.0672,-0.093017 0.062,-0.010335 0.13953,0.015503 0.3514,0.1085201 0.66146,0.3617339 0.31005,0.248046 0.55293,0.5736065 0.23771,0.3255605 0.38757,0.692462 0.15503,0.3617339 0.18604,0.6872944 0.0103,0.124023 0,0.2842194 -0.0103,0.1601965 -0.0465,0.3203929 -0.031,0.1550288 -0.0827,0.2790519 -0.0465,0.124023 -0.11369,0.1756993 -0.1757,0.1395259 -0.43925,0.2377108 -0.26355,0.098185 -0.5581,0.1601964 -0.29972,0.062012 -0.60461,0.08785 -0.30489,0.031006 -0.56844,0.031006 -0.062,0 -0.15503,-0.010335 -0.0879,-0.00517 -0.1757,-0.031006 -0.0879,-0.031006 -0.15503,-0.082682 -0.062,-0.051676 -0.0672,-0.1343583 0,-0.041341 0,-0.1601964 0.005,-0.1188554 0.0155,-0.2480461 0.0103,-0.1291907 0.0258,-0.2273756 0.0155,-0.1033525 0.0413,-0.1033525 0.0155,0 0.0258,0.02067 0.0155,0.02067 0.031,0.036173 0.0879,0.062012 0.21187,0.093017 0.12402,0.031006 0.25838,0.041341 0.13953,0.00517 0.27389,0 0.13952,-0.010335 0.24287,-0.015503 0.18087,-0.010335 0.37724,-0.036173 0.19637,-0.031006 0.37724,-0.072347 0.18603,-0.041341 0.3514,-0.093017 0.16536,-0.056844 0.28422,-0.1188554 0.0517,-0.025838 0.0982,-0.062012 0.0465,-0.041341 0.0568,-0.072347 -0.0465,-0.2738842 -0.21704,-0.5736065 -0.16536,-0.2997224 -0.40307,-0.5632714 -0.24288,-0.2583813 -0.53227,-0.4495835 -0.28422,-0.1963698 -0.5736,-0.2532137 z m -2.45463,5.3123204 q -0.76997,-0.971514 -1.30224,-2.2737559 -0.53226,-1.3022419 -0.53226,-2.6975011 0,-1.2298952 0.3979,-2.3564378 0.46509,-1.3074096 1.4366,-2.6044839 h 0.66663 q -0.62528,1.0748663 -0.82682,1.5347851 -0.31523,0.7131325 -0.49609,1.4882765 -0.22221,0.9663462 -0.22221,1.9430277 0,2.4856285 1.54512,4.9660894 z"
         id="text3"
         style="font-size:10.5833px;line-height:1.25;font-family:'KFGQPC Uthmanic Script HAFS';-inkscape-font-specification:'KFGQPC Uthmanic Script HAFS';direction:rtl;stroke-width:0.264583"
         aria-label="    ()" />
    </g>
  </g>
</svg>
