<?xml version="1.0" encoding="UTF-8" standalone="no"?>
<!-- Created with Inkscape (http://www.inkscape.org/) -->

<svg
   width="121.19674mm"
   height="15.486489mm"
   viewBox="0 0 121.19674 15.486489"
   version="1.1"
   id="svg1"
   xmlns="http://www.w3.org/2000/svg"
   xmlns:svg="http://www.w3.org/2000/svg">
  <defs
     id="defs1" />
  <g
     id="layer1"
     transform="translate(-261.06376)">
    <g
       id="g4"
       transform="translate(126.71196)">
      <path
         d="m 253.86976,3.0676244 q 0.0827,0.00517 0.0775,0.1912022 -0.0103,0.1963698 0.005,0.387572 0.0155,0.1860346 0.0413,0.3772368 0.0517,0.4599188 0.12402,0.9508433 0.0724,0.4857569 0.14469,0.9818491 0.0672,0.4909245 0.13436,0.9818491 0.0672,0.4909245 0.11369,0.9560109 0.0207,0.180867 0.0258,0.4237454 0.0103,0.2428785 -0.005,0.4960922 -0.0103,0.2480461 -0.0568,0.4805893 -0.0413,0.2325432 -0.11886,0.387572 -0.0413,0.08785 -0.0982,0.1136878 -0.0465,0.00517 -0.0413,-0.041341 -0.031,-0.4495835 -0.0775,-0.9043347 -0.0413,-0.4599188 -0.10852,-0.9353404 -0.0672,-0.4909246 -0.13436,-0.9715139 -0.0672,-0.4805893 -0.12919,-0.9611786 -0.0672,-0.4805893 -0.13436,-0.9611785 -0.062,-0.4805893 -0.12402,-0.9663463 0.0155,-0.1188554 0.0465,-0.2428784 0.031,-0.1291907 0.0879,-0.263549 0.12402,-0.3358957 0.16536,-0.4082425 0.0465,-0.072347 0.062,-0.072347 z m -2.21691,-0.2893871 q 0.0155,-0.046509 0.0413,-0.056844 0.0258,-0.010335 0.0413,0.056844 0.0413,0.1240231 0.093,0.2532137 0.0517,0.1291907 0.11886,0.2532138 0.0723,0.124023 0.16536,0.2325432 0.093,0.1033525 0.21187,0.1756993 -0.0723,0.124023 -0.12919,0.2170403 -0.0517,0.08785 -0.0879,0.1653641 -0.0362,0.072347 -0.0517,0.1446935 -0.0155,0.067179 -0.005,0.1446936 0.0568,0.4960921 0.12919,0.9973519 0.0775,0.4960922 0.14469,0.9921844 0.0724,0.4960921 0.12403,0.9921843 0.0568,0.4960922 0.0723,0.997352 0.005,0.165364 -0.0207,0.3358957 -0.0258,0.1705317 -0.0827,0.3255605 -0.0568,0.1550288 -0.14469,0.2945547 -0.0827,0.1343583 -0.1912,0.2273756 -0.14987,0.1291907 -0.37207,0.1860346 -0.21704,0.051676 -0.53227,0.051676 h -0.093 q -0.16536,0 -0.24804,-0.124023 -0.0878,-0.1291907 -0.0878,-0.2790519 0,-0.1550288 0.0878,-0.2790518 0.0827,-0.1291907 0.24804,-0.1291907 h 0.093 q 0.17053,0 0.33073,-0.010335 0.1602,-0.015503 0.29455,-0.046509 0.13436,-0.036173 0.22738,-0.093017 0.0982,-0.062012 0.13953,-0.1550288 -0.10336,-1.0903693 -0.26872,-2.1497328 -0.16537,-1.0645311 -0.32039,-2.1393975 -0.031,-0.2170403 -0.0672,-0.4237454 -0.031,-0.2118727 -0.14986,-0.4082425 -0.0413,-0.056844 -0.0465,-0.072347 -0.005,-0.020671 0.0258,-0.082682 0.0879,-0.1498612 0.1602,-0.30489 0.0775,-0.1601964 0.14986,-0.2893871 z m -3.37963,5.2503088 q 0.062,-0.1033525 0.12402,-0.098185 0.0672,0.00517 0.0362,0.1240231 -0.0258,0.1085201 -0.0723,0.2273756 -0.0465,0.1136877 -0.10336,0.248046 0.0362,0.08785 0.1602,0.1756993 0.12919,0.082682 0.28939,0.1446936 0.15503,0.056844 0.31522,0.082682 0.16537,0.025838 0.27389,-0.015503 0.1757,-0.056844 0.28938,-0.3152252 0.11369,-0.263549 0.19637,-0.5529361 0.0413,-0.1550288 0.10852,-0.1808669 0.0672,-0.025838 0.0775,0.1136878 0.0207,0.2583813 0.093,0.4444159 0.0723,0.1860346 0.21704,0.2997224 0.27388,0.2273755 0.89916,0.2273755 h 0.093 q 0.16536,0 0.24805,0.1291907 0.0827,0.1291907 0.0827,0.2790518 0,0.1498612 -0.0827,0.2790519 -0.0827,0.124023 -0.24805,0.124023 h -0.093 q -0.27388,0 -0.47025,-0.031006 -0.19637,-0.036173 -0.38241,-0.1136878 -0.43408,-0.1860346 -0.65628,-0.6149476 -0.0362,0.082682 -0.093,0.1963698 -0.0568,0.1136878 -0.13436,0.222208 -0.0724,0.1033525 -0.1602,0.1756993 -0.0879,0.072347 -0.18603,0.072347 -0.12919,0 -0.29972,-0.031006 -0.17053,-0.031006 -0.34107,-0.098185 -0.1757,-0.062012 -0.33589,-0.1601964 -0.15503,-0.1033526 -0.26355,-0.2428785 -0.18087,0.2067051 -0.40824,0.346231 -0.22221,0.1343583 -0.47543,0.1756993 -0.25838,0.046509 -0.5426,0 -0.27905,-0.051676 -0.5736,-0.2067051 -0.13436,0.098185 -0.29456,0.1601965 -0.16019,0.062012 -0.31522,0.093017 -0.1602,0.036173 -0.30489,0.046509 -0.1447,0.010335 -0.25322,0.010335 h -0.093 q -0.15503,0 -0.23255,-0.124023 -0.0775,-0.1291907 -0.0775,-0.2790519 0,-0.1498611 0.0775,-0.2790518 0.0775,-0.1291907 0.23255,-0.1291907 h 0.093 q 0.31006,0 0.57361,-0.020671 0.26355,-0.025838 0.49609,-0.1136878 0.22738,-0.082682 0.42892,-0.2532137 0.2067,-0.1705317 0.39273,-0.4650864 0.0672,-0.1085201 0.11369,-0.093017 0.0517,0.010335 0.031,0.1188554 -0.0362,0.1860346 -0.11886,0.3979073 -0.0827,0.2118727 -0.20153,0.3617339 0.10335,0.031006 0.25321,0.046509 0.15503,0.015503 0.32556,0 0.25321,-0.02067 0.47542,-0.1033525 0.22738,-0.08785 0.40824,-0.263549 0.11369,-0.1033525 0.21188,-0.2377108 0.10335,-0.1395259 0.19637,-0.2997224 z m 0.45475,-1.162716 q -0.031,0.036173 -0.0465,0.036173 -0.0155,0 -0.0517,-0.025838 l -0.60977,-0.480589 -0.3979,0.552936 q -0.0362,0.046509 -0.0775,0.010335 l -0.65112,-0.4960922 q -0.0362,-0.031006 -0.0103,-0.067179 l 0.41342,-0.5891095 q 0.0258,-0.031006 0.0362,-0.025838 0.0155,0 0.0362,0.015503 l 0.61495,0.470254 0.41858,-0.5374332 q 0.031,-0.041341 0.062,-0.020671 l 0.65112,0.5426008 q 0.031,0.031006 0,0.072347 z m -0.97668,-2.1807385 0.63561,0.5219303 q 0.0413,0.031006 0.005,0.072347 l -0.42374,0.5270979 q -0.0362,0.046509 -0.0827,0.010335 l -0.64078,-0.5167627 q -0.0413,-0.036173 0,-0.08785 l 0.42891,-0.5167626 q 0.0362,-0.046509 0.0775,-0.010335 z m 0.0413,-1.4314325 q -0.11369,0.2273755 -0.25839,0.3410633 -0.15502,0.1188554 -0.3669,0.1240231 -0.17053,0.00517 -0.29972,-0.08785 -0.12402,-0.093017 -0.14469,-0.3255605 -0.0103,-0.1033525 0.0103,-0.2118727 0.0207,-0.1136878 0.062,-0.2118727 0.0414,-0.093017 0.093,-0.1601964 0.0568,-0.072347 0.11886,-0.093017 0.062,-0.00517 0.0103,0.093017 -0.031,0.056844 -0.0517,0.1343583 -0.0155,0.077514 -0.0207,0.1550288 0,0.072347 0.0155,0.124023 0.0155,0.051676 0.0672,0.098185 0.0775,0.056844 0.16536,0.056844 0.0878,-0.00517 0.17053,-0.041341 0.0879,-0.036173 0.15503,-0.082682 0.0724,-0.051676 0.1447,-0.1343583 0.0672,-0.077514 0.0982,-0.1963698 0.031,-0.1188554 0.0413,-0.1963698 0.005,-0.067179 0.0362,-0.1343583 0.031,-0.067179 0.10336,-0.067179 0.0155,0 0.0207,0.031006 0.0103,0.025838 0.0155,0.062011 0.005,0.036173 0.005,0.072347 0,0.031006 0,0.046509 0,0.1498612 0.0465,0.2377109 0.0465,0.082682 0.18603,0.1136877 0.0724,0.015503 0.18604,-0.015503 0.11885,-0.031006 0.2067,-0.1033526 0.0103,-0.010335 0.005,-0.056844 -0.005,-0.046509 -0.0207,-0.098185 -0.0103,-0.051676 -0.0362,-0.1085201 -0.0207,-0.062012 -0.0258,-0.072347 l 0.1912,-0.3617339 q 0.0517,0.025838 0.0775,0.1136878 0.031,0.08785 0.0362,0.2015374 0.0103,0.1085202 0,0.222208 -0.0103,0.1136878 -0.0258,0.1912022 -0.062,0.1912022 -0.17053,0.346231 -0.10336,0.1550288 -0.3204,0.1963698 -0.1912,0.036173 -0.32039,-0.025838 -0.12919,-0.062012 -0.2067,-0.1756993 z m 0.93017,-2.077386 q -0.25838,0.1188554 -0.5426,0.2480461 -0.27905,0.1291906 -0.5426,0.2480461 -0.26355,0.1188554 -0.49093,0.2222079 -0.22737,0.1033526 -0.38757,0.1705317 -0.0362,0.015503 -0.0517,0 -0.0155,-0.015503 0,-0.046509 l 0.25322,-0.5064275 q 0.0258,-0.041341 0.0517,-0.056844 0.031,-0.02067 0.0568,-0.036173 l 1.88618,-0.83715559 q 0.0827,-0.0361734 0.0517,0.041341 l -0.21187,0.48058929 q -0.0155,0.046509 -0.0724,0.072347 z m -4.88857,10.6504789 q -0.0258,0.03101 -0.0413,0.03101 -0.0155,0.0052 -0.0568,-0.02584 l -0.61495,-0.480589 -0.40307,0.552936 q -0.0362,0.04651 -0.0775,0.0155 l -0.65628,-0.506427 q -0.0362,-0.02584 -0.0103,-0.06201 l 0.41858,-0.594277 q 0.0207,-0.03101 0.0362,-0.03101 0.0155,0 0.0362,0.02067 l 0.62012,0.470254 0.42375,-0.542601 q 0.031,-0.04134 0.062,-0.0155 l 0.65629,0.547769 q 0.0362,0.02584 0,0.07235 z m -2.16007,-2.0618833 h -0.093 q -0.15503,0 -0.23254,-0.124023 -0.0775,-0.1291907 -0.0775,-0.2842195 0,-0.077514 0.0207,-0.1498612 0.0155,-0.072347 0.0568,-0.1291906 0.0362,-0.056844 0.0982,-0.093017 0.0568,-0.036173 0.13436,-0.036173 h 0.093 q 0.16019,0 0.35656,-0.010335 0.20154,-0.010335 0.37724,-0.056844 0.17053,-0.046509 0.3359,-0.139526 0.16536,-0.098185 0.30489,-0.2687166 0.10335,-0.124023 0.16536,-0.2532137 0.0672,-0.1291906 0.12919,-0.2945547 0.0258,-0.067179 0.0827,-0.072347 0.062,-0.00517 0.0672,0.025838 0.005,0.062011 -0.0103,0.1498611 -0.0103,0.08785 -0.0103,0.1601965 0,0.1343583 0.0672,0.2687166 0.0672,0.1343583 0.20671,0.2428784 0.13952,0.1085202 0.3824,0.180867 0.24805,0.067179 0.5581,0.067179 h 0.0982 q 0.0775,0 0.13436,0.036173 0.0568,0.036173 0.093,0.093017 0.0413,0.056844 0.0568,0.1291906 0.0207,0.072347 0.0207,0.1498612 0,0.1550288 -0.0775,0.2842195 -0.0723,0.124023 -0.22737,0.124023 h -0.0982 q -0.27905,0 -0.53226,-0.051676 -0.24805,-0.056844 -0.42375,-0.1653641 -0.34106,-0.2067051 -0.53226,-0.6097799 -0.11369,0.2325432 -0.26872,0.387572 -0.15503,0.1550288 -0.34106,0.2532137 -0.1912,0.098185 -0.43408,0.1446935 -0.24288,0.041341 -0.48059,0.041341 z m 0.58911,-5.5655338 q 0,0.08785 0.0465,0.1395259 0.0517,0.046509 0.11885,0.072347 0.0672,0.025838 0.1447,0.031006 0.0827,0.00517 0.14469,0.00517 0.14469,0 0.26872,-0.062011 0.12919,-0.062012 0.23254,-0.1601965 0.0103,-0.093017 -0.0207,-0.1963698 -0.031,-0.1033525 -0.0982,-0.1860346 -0.0672,-0.082682 -0.16536,-0.1291906 -0.0982,-0.051676 -0.22737,-0.041341 -0.0775,0.020671 -0.15503,0.077514 -0.0775,0.051676 -0.1447,0.124023 -0.062,0.072347 -0.10335,0.1601964 -0.0413,0.082682 -0.0413,0.1653641 z m 1.20922,-0.1343583 q 0,0.1756993 -0.0465,0.3410634 -0.0465,0.165364 -0.1447,0.2945547 -0.0982,0.1291907 -0.25321,0.2067051 -0.14986,0.077514 -0.36174,0.077514 -0.26354,0 -0.44441,-0.1705317 -0.18087,-0.1705317 -0.1912,-0.4547512 0,-0.1446935 0.0413,-0.346231 0.0465,-0.206705 0.13952,-0.3979072 0.093,-0.1912022 0.23771,-0.3307281 0.14986,-0.1446936 0.35657,-0.1705317 0.19637,-0.020671 0.32556,0.077514 0.12919,0.098185 0.20671,0.2480461 0.0723,0.1550288 0.10335,0.3307281 0.031,0.1705317 0.031,0.2945547 z m -6.09263,2.780183 q 0.21187,-0.010335 0.44442,0.025838 0.23254,0.031006 0.66145,0.1136878 0.42891,0.077514 0.863,0.093017 0.47025,0.015503 0.9095,0.00517 0.43925,-0.010335 0.9095,-0.051676 0.0207,-0.00517 0.031,0 0.0103,0.00517 0.005,0.031006 -0.0672,0.2015375 -0.14986,0.3979073 -0.0775,0.1963698 -0.1757,0.3824044 -0.23254,0.025838 -0.46508,0.062011 -0.23255,0.031006 -0.45992,0.077514 -0.0465,0.3772368 0.0827,0.5787742 0.13436,0.1963698 0.3824,0.2842195 0.24805,0.08785 0.57361,0.098185 0.33073,0.010335 0.68213,0.010335 0.0258,0 0.0465,0 0.0207,0 0.0465,0 0.15503,0 0.23255,0.1291907 0.0827,0.124023 0.0827,0.2738842 0,0.1550288 -0.0827,0.2842195 -0.0775,0.124023 -0.23255,0.124023 -0.0258,0 -0.0465,0 -0.0207,0 -0.0465,0 -0.57361,0.010335 -1.02319,-0.056844 -0.44959,-0.072347 -0.7183,-0.3152252 -0.21188,-0.1912022 -0.29973,-0.511595 -0.0827,-0.3255605 -0.0207,-0.8268203 -0.45475,0.1085201 -0.87849,0.2893871 -0.42375,0.1756993 -0.78031,0.4599188 -0.31006,0.248046 -0.55811,0.5581036 -0.24288,0.3100577 -0.41341,0.6666238 -0.16536,0.356566 -0.25321,0.73897 -0.0878,0.387572 -0.0878,0.78548 0,0.43408 0.16536,0.84749 0.17053,0.418578 0.44959,0.764809 0.27905,0.351399 0.63561,0.604612 0.36174,0.258382 0.74414,0.366902 0.50126,0.144694 1.02836,0.191202 0.53227,0.05168 0.98702,0.03617 0.50126,-0.0155 1.02836,-0.06201 0.52709,-0.04651 1.02835,-0.04651 0.062,0 0.0672,0.03101 0.005,0.03617 -0.062,0.113688 -0.0672,0.07751 -0.13953,0.08785 -0.31005,0.04651 -0.59944,0.139526 -0.28422,0.09818 -0.56327,0.196369 -0.27905,0.103353 -0.56844,0.186035 -0.28422,0.08785 -0.59428,0.10852 -0.75447,0.05168 -1.47794,-0.118855 -0.7183,-0.170532 -1.28157,-0.583942 -0.56327,-0.408243 -0.9095,-1.064531 -0.34623,-0.651121 -0.34623,-1.555456 0,-0.594277 0.15503,-1.193722 0.15502,-0.594277 0.43924,-1.126542 0.28939,-0.5374331 0.69247,-0.9715138 0.40824,-0.4392483 0.90433,-0.7131325 0.0207,-0.015503 -0.0103,-0.025838 -0.031,-0.010335 -0.0672,-0.015503 -0.23772,-0.025838 -0.5116,-0.046509 -0.26872,-0.025838 -0.53743,-0.00517 -0.26355,0.020671 -0.49609,0.1033526 -0.23255,0.077514 -0.38758,0.2583813 -0.031,0.036173 -0.0672,0.031006 -0.031,-0.00517 -0.0207,-0.072347 0.031,-0.2377108 0.10852,-0.4495835 0.0827,-0.2118727 0.21188,-0.3669015 0.12919,-0.1601965 0.31005,-0.2532138 0.18087,-0.098185 0.42375,-0.1033525 z m 1.08003,-2.1342299 0.63562,0.527098 q 0.0413,0.036173 0.005,0.082682 l -0.42375,0.5322656 q -0.0362,0.051676 -0.0827,0.010335 l -0.64078,-0.5270979 q -0.0413,-0.036173 0,-0.08785 l 0.42891,-0.5270979 q 0.0362,-0.046509 0.0775,-0.010335 z m -1.1317,-0.6304503 q 0.17053,-0.098185 0.33589,-0.1963698 0.16537,-0.098185 0.3204,-0.2118727 0.16019,-0.1136878 0.31522,-0.2480461 0.15503,-0.1343583 0.29972,-0.30489 -0.13952,-0.041341 -0.29455,-0.1395259 -0.15503,-0.098185 -0.24805,-0.2118727 -0.0465,-0.056844 -0.0568,-0.1446935 -0.0103,-0.093017 0.0155,-0.1705317 0.0413,-0.1240231 0.11369,-0.2687166 0.0775,-0.1446936 0.18087,-0.263549 0.10335,-0.1188554 0.22737,-0.1912022 0.12919,-0.077514 0.25838,-0.072347 0.1602,0.010335 0.23255,0.1550288 0.0723,0.139526 0.0879,0.3255605 0.0207,0.1860346 0,0.3669015 -0.0155,0.180867 -0.0258,0.263549 0,0.025838 0.0155,0.041341 0.062,0.036173 0.0827,0.067179 0.0258,0.031006 0.0413,0.072347 0.031,0.077514 0.0103,0.1860346 -0.0155,0.1085202 -0.062,0.1653641 -0.0413,0.051676 -0.0724,0.051676 -0.031,-0.00517 -0.062,-0.051676 -0.0258,-0.031006 -0.0517,-0.056844 -0.0207,-0.031006 -0.0672,-0.051676 -0.14469,0.1756993 -0.31005,0.3358957 -0.1602,0.1601965 -0.34107,0.2945548 -0.18603,0.1291906 -0.38757,0.2325432 -0.20154,0.1033525 -0.42374,0.1705317 -0.0879,0.025838 -0.18087,0.036173 -0.093,0.00517 -0.10335,-0.02067 -0.0103,-0.031006 0.0362,-0.072347 0.0465,-0.046509 0.11369,-0.08785 z m 0.97151,-1.7363226 q 0.10852,0.1498612 0.25838,0.2377108 0.14986,0.082682 0.27389,0.1136878 h 0.0103 q 0,-0.041341 0.005,-0.1085201 0.005,-0.072347 0,-0.1446936 0,-0.072347 -0.0207,-0.1395259 -0.0155,-0.067179 -0.062,-0.1136878 -0.0413,-0.036173 -0.11886,-0.031006 -0.0723,0 -0.14469,0.025838 -0.0724,0.025838 -0.13436,0.072347 -0.0568,0.041341 -0.0672,0.08785 z m -5.03327,5.5138577 q -0.0207,0.046509 -0.0672,0.1395259 -0.0465,0.08785 -0.10335,0.1860345 -0.0517,0.098185 -0.10852,0.1912022 -0.0568,0.08785 -0.0982,0.139526 -0.031,0.056844 -0.14986,0.031006 -0.54777,-0.1033525 -1.02319,-0.056844 -0.47542,0.046509 -0.94567,0.1963698 -0.40825,0.1343583 -0.77515,0.2997224 -0.3669,0.1601964 -0.72347,0.2842195 -0.68212,0.2480461 -1.32291,0.3720691 -0.63562,0.124023 -1.31774,0.124023 h -0.093 q -0.16536,0 -0.24805,-0.124023 -0.0827,-0.1291907 -0.0827,-0.2842195 0,-0.1550288 0.0827,-0.2790518 0.0827,-0.1291907 0.24805,-0.1291907 h 0.093 q 0.23771,0 0.49609,-0.010335 0.25838,-0.010335 0.50643,-0.031006 0.24804,-0.02067 0.47025,-0.046509 0.22221,-0.031006 0.39274,-0.067179 0.35657,-0.077514 0.74931,-0.2170403 0.3979,-0.1446936 0.83715,-0.3255605 -0.25321,-0.036173 -0.58911,-0.08785 -0.33589,-0.056844 -0.69246,-0.1085201 -0.35657,-0.056844 -0.69763,-0.1033526 -0.34106,-0.046509 -0.59944,-0.072347 -0.0362,-0.010335 -0.10336,0.010335 -0.0672,0.02067 -0.13436,0.046509 -0.031,0.010335 -0.062,-0.010335 -0.031,-0.020671 -0.0207,-0.067179 0.062,-0.222208 0.18087,-0.4495836 0.11885,-0.2273756 0.22221,-0.387572 0.0465,-0.067179 0.23254,-0.1550288 0.1912,-0.093017 0.45475,-0.2067051 0.26872,-0.1188554 0.57878,-0.2635489 0.31005,-0.1446936 0.60461,-0.3152253 0.29455,-0.1756993 0.53743,-0.3824043 0.24288,-0.2118727 0.37207,-0.4547512 0.10335,-0.1963698 0.22738,-0.4392483 0.12402,-0.2428784 0.26871,-0.4495835 0.14986,-0.2118727 0.31523,-0.346231 0.17053,-0.1395259 0.3669,-0.1291907 0.1757,0.010335 0.3359,0.1860346 0.16019,0.1756993 0.28421,0.4185778 0.12403,0.2428784 0.19637,0.5064274 0.0724,0.263549 0.0724,0.4444159 0,0.093017 -0.0362,0.2170403 -0.0362,0.1240231 -0.0879,0.2377109 -0.0465,0.1085201 -0.10335,0.1963698 -0.0568,0.082682 -0.0982,0.098185 -0.10852,0.041341 -0.29972,0.031006 -0.18604,-0.010335 -0.41341,-0.067179 -0.22221,-0.062011 -0.45475,-0.1705317 -0.23255,-0.1136878 -0.42375,-0.2790518 -0.45475,0.594277 -0.97668,0.940508 -0.52193,0.346231 -1.14721,0.527098 0.37723,0.067179 0.70796,0.1291906 0.33073,0.056844 0.64079,0.1136878 0.31522,0.051676 0.62528,0.098185 0.31523,0.046509 0.65629,0.08785 0.53226,0.062011 1.1007,0.1188554 0.56844,0.051676 1.10071,0.072347 0.0775,0.00517 0.0413,0.072347 z m -1.31258,-2.3719407 q -0.031,-0.077514 -0.093,-0.2170404 -0.062,-0.1395259 -0.14986,-0.2790518 -0.0827,-0.1395259 -0.1912,-0.2377108 -0.10335,-0.1033526 -0.22221,-0.1033526 -0.0517,0 -0.12919,0.051676 -0.0723,0.046509 -0.14469,0.1188554 -0.0724,0.067179 -0.12919,0.1395259 -0.0568,0.067179 -0.0775,0.1136878 0.24805,0.2170403 0.5271,0.3100576 0.28422,0.093017 0.60978,0.1033526 z m -1.79317,-2.5683103 q 0.17054,-0.098185 0.3359,-0.1963698 0.16536,-0.098185 0.32039,-0.2118727 0.1602,-0.1136878 0.31523,-0.2480461 0.15503,-0.1343583 0.29972,-0.30489 -0.13953,-0.041341 -0.29455,-0.1395259 -0.15503,-0.098185 -0.24805,-0.2118727 -0.0465,-0.056844 -0.0568,-0.1446936 -0.0103,-0.093017 0.0155,-0.1705316 0.0413,-0.1240231 0.11369,-0.2687166 0.0775,-0.14469359 0.18086,-0.263549 0.10336,-0.11885542 0.22738,-0.19120219 0.12919,-0.0775144 0.25838,-0.0723468 0.1602,0.0103353 0.23254,0.15502881 0.0724,0.13952592 0.0879,0.32556048 0.0207,0.1860346 0,0.3669015 -0.0155,0.180867 -0.0258,0.263549 0,0.025838 0.0155,0.041341 0.062,0.036173 0.0827,0.067179 0.0258,0.031006 0.0413,0.072347 0.031,0.077514 0.0103,0.1860346 -0.0155,0.1085202 -0.062,0.165364 -0.0413,0.051676 -0.0723,0.051676 -0.031,-0.00517 -0.062,-0.051676 -0.0258,-0.031006 -0.0517,-0.056844 -0.0207,-0.031006 -0.0672,-0.051676 -0.14469,0.1756993 -0.31006,0.3358957 -0.16019,0.1601965 -0.34106,0.2945548 -0.18604,0.1291906 -0.38757,0.2325432 -0.20154,0.1033525 -0.42375,0.1705316 -0.0879,0.025838 -0.18087,0.036173 -0.093,0.00517 -0.10335,-0.02067 -0.0103,-0.031006 0.0362,-0.072347 0.0465,-0.046509 0.11368,-0.08785 z m 0.97152,-1.7363226 q 0.10852,0.1498612 0.25838,0.2377108 0.14986,0.082682 0.27388,0.1136878 h 0.0103 q 0,-0.041341 0.005,-0.1085201 0.005,-0.072347 0,-0.1446936 0,-0.072347 -0.0207,-0.1395259 -0.0155,-0.067179 -0.062,-0.1136878 -0.0413,-0.0361734 -0.11885,-0.0310058 -0.0724,0 -0.1447,0.0258382 -0.0723,0.025838 -0.13435,0.072347 -0.0568,0.041341 -0.0672,0.08785 z m -2.35127,1.9998712 q -0.25838,0.1188554 -0.5426,0.2480461 -0.27906,0.1291906 -0.5426,0.2480461 -0.26355,0.1188554 -0.49093,0.2222079 -0.22737,0.1033525 -0.38757,0.1705317 -0.0362,0.015503 -0.0517,0 -0.0155,-0.015503 0,-0.046509 l 0.25322,-0.5064275 q 0.0258,-0.041341 0.0517,-0.056844 0.031,-0.020671 0.0568,-0.036173 l 1.88618,-0.8371555 q 0.0827,-0.036173 0.0517,0.041341 l -0.21188,0.4805893 q -0.0155,0.046509 -0.0723,0.072347 z m -3.79821,5.8755918 q 0.0155,0.00517 0.031,0 0.0155,-0.010335 -0.0103,-0.046509 -0.0879,-0.098185 -0.14986,-0.2015374 -0.062,-0.1085202 -0.10852,-0.2015375 -0.0465,-0.093017 -0.0775,-0.165364 -0.031,-0.072347 -0.0517,-0.1136878 -0.0517,-0.093017 -0.13436,-0.077514 -0.093,0.02067 -0.22737,0.1085202 -0.13436,0.08785 -0.22221,0.206705 -0.031,0.036173 -0.031,0.051676 0,0.015503 0.0413,0.041341 0.0827,0.062012 0.20154,0.1291907 0.11886,0.067179 0.24805,0.124023 0.12919,0.051676 0.25838,0.093017 0.12919,0.041341 0.23254,0.051676 z m 0.5116,0.4805893 q -0.0465,0.1085201 -0.10335,0.2325432 -0.0517,0.1291906 -0.0982,0.1446935 -0.17053,0.031006 -0.43925,-0.025838 -0.26871,-0.051676 -0.53226,-0.1601965 -0.26355,-0.1085201 -0.46509,-0.2583813 -0.19637,-0.1498612 -0.21704,-0.3152252 -0.13953,0.1860345 -0.29972,0.30489 -0.15503,0.1136877 -0.31523,0.1860345 -0.16536,0.067179 -0.32556,0.093017 -0.15503,0.025838 -0.29455,0.025838 h -0.093 q -0.16536,0 -0.24805,-0.124023 -0.0827,-0.1291907 -0.0827,-0.2790519 0,-0.1550288 0.0827,-0.2790518 0.0827,-0.1291907 0.24805,-0.1291907 h 0.093 q 0.1912,0 0.3824,-0.010335 0.1912,-0.010335 0.37207,-0.062012 0.18087,-0.051676 0.3514,-0.1601965 0.17053,-0.1136878 0.32039,-0.3152252 0.0827,-0.1085202 0.18087,-0.2170403 0.0982,-0.1136878 0.19637,-0.2015375 0.10335,-0.08785 0.2067,-0.1395259 0.10336,-0.056844 0.19637,-0.056844 0.093,0 0.20154,0.08785 0.10852,0.08785 0.21704,0.206705 0.11369,0.1136878 0.21187,0.2377109 0.10336,0.124023 0.1757,0.1912022 0.12403,0.1291906 0.26355,0.2118727 0.13953,0.082682 0.28939,0.1343583 0.14986,0.051676 0.31522,0.072347 0.16537,0.020671 0.34624,0.020671 h 0.093 q 0.1602,0 0.24288,0.1291907 0.0827,0.124023 0.0827,0.2790518 0,0.1498612 -0.0827,0.2790519 -0.0827,0.124023 -0.24288,0.124023 h -0.093 q -0.14987,0 -0.29973,-0.00517 -0.14986,-0.00517 -0.29455,-0.031006 -0.14469,-0.02067 -0.28422,-0.067179 -0.13436,-0.046509 -0.25838,-0.124023 z m -1.27641,-4.7335459 q -0.11369,0.2273755 -0.25838,0.3410633 -0.15503,0.1188554 -0.3669,0.1240231 -0.17053,0.00517 -0.29972,-0.08785 -0.12403,-0.093017 -0.1447,-0.3255605 -0.0103,-0.1033525 0.0103,-0.2118727 0.0207,-0.1136878 0.062,-0.2118727 0.0413,-0.093017 0.093,-0.1601964 0.0568,-0.072347 0.11885,-0.093017 0.062,-0.00517 0.0103,0.093017 -0.031,0.056844 -0.0517,0.1343583 -0.0155,0.077514 -0.0207,0.1550288 0,0.072347 0.0155,0.124023 0.0155,0.051676 0.0672,0.098185 0.0775,0.056844 0.16537,0.056844 0.0879,-0.00517 0.17053,-0.041341 0.0879,-0.036173 0.15503,-0.082682 0.0723,-0.051676 0.14469,-0.1343583 0.0672,-0.077514 0.0982,-0.1963698 0.031,-0.1188554 0.0413,-0.1963698 0.005,-0.067179 0.0362,-0.1343583 0.031,-0.067179 0.10335,-0.067179 0.0155,0 0.0207,0.031006 0.0103,0.025838 0.0155,0.062011 0.005,0.036173 0.005,0.072347 0,0.031006 0,0.046509 0,0.1498612 0.0465,0.2377109 0.0465,0.082682 0.18604,0.1136877 0.0723,0.015503 0.18603,-0.015503 0.11886,-0.031006 0.20671,-0.1033526 0.0103,-0.010335 0.005,-0.056844 -0.005,-0.046509 -0.0207,-0.098185 -0.0103,-0.051676 -0.0362,-0.1085201 -0.0207,-0.062012 -0.0258,-0.072347 l 0.1912,-0.3617339 q 0.0517,0.025838 0.0775,0.1136878 0.031,0.08785 0.0362,0.2015374 0.0103,0.1085202 0,0.222208 -0.0103,0.1136878 -0.0258,0.1912022 -0.062,0.1912022 -0.17053,0.346231 -0.10335,0.1550288 -0.32039,0.1963698 -0.1912,0.036173 -0.32039,-0.025838 -0.12919,-0.062012 -0.20671,-0.1756993 z m 0.93017,-2.077386 q -0.25838,0.1188554 -0.5426,0.2480461 -0.27905,0.1291906 -0.5426,0.2480461 -0.26355,0.1188554 -0.49092,0.2222079 -0.22738,0.1033526 -0.38757,0.1705317 -0.0362,0.015503 -0.0517,0 -0.0155,-0.015503 0,-0.046509 l 0.25321,-0.5064275 q 0.0258,-0.041341 0.0517,-0.056844 0.031,-0.020671 0.0568,-0.036173 l 1.88619,-0.8371556 q 0.0827,-0.036173 0.0517,0.041341 l -0.21187,0.4805893 q -0.0155,0.046509 -0.0724,0.072347 z m -5.06427,3.6690148 0.14987,-0.6046124 q 0.0155,-0.062011 0.062,-0.062011 0.0465,0 0.062,0.056844 l 0.5271,1.8655133 q 0.10335,0.3669015 0.25838,0.6407857 0.16019,0.2738842 0.43408,0.4599188 0.1602,0.1085202 0.3669,0.1550288 0.20671,0.046509 0.45992,0.046509 h 0.093 q 0.16536,0 0.24804,0.1291907 0.0827,0.1291907 0.0827,0.2790518 0,0.1498612 -0.0827,0.2790519 -0.0827,0.124023 -0.24804,0.124023 h -0.093 q -0.28422,0 -0.53227,-0.051676 -0.24288,-0.056844 -0.45475,-0.2015375 -0.2067,-0.1395259 -0.38757,-0.387572 -0.1757,-0.2532137 -0.33073,-0.6459533 -0.13436,0.4030749 -0.43925,0.6666238 -0.24804,0.2118727 -0.58394,0.3203929 -0.33589,0.1033525 -0.65629,0.1446935 -0.31522,0.046509 -0.59944,0.02067 -0.27905,-0.031006 -0.42891,-0.1705316 -0.0775,-0.072347 -0.11369,-0.1963699 -0.031,-0.124023 -0.031,-0.2583813 0,-0.1395259 0.0207,-0.2687166 0.0258,-0.1343583 0.0672,-0.2273756 0.0155,-0.031006 0.0413,-0.031006 0.031,0 0.0465,0.031006 0.093,0.1705317 0.21187,0.2325432 0.11886,0.056844 0.28422,0.072347 0.24288,0.025838 0.55811,-0.010335 0.31522,-0.036173 0.61494,-0.1291907 0.29973,-0.08785 0.53744,-0.2273756 0.24288,-0.1446935 0.33073,-0.3307281 z m -5.89109,1.6794787 q -0.11369,-0.2170403 -0.32556,-0.3720691 -0.20671,-0.1550289 -0.44442,-0.2377109 -0.23771,-0.082682 -0.47542,-0.08785 -0.23771,-0.010335 -0.41341,0.062011 -0.24288,0.1033525 -0.49609,0.2687166 -0.25322,0.165364 -0.49093,0.3669015 -0.23771,0.2015374 -0.45992,0.428913 -0.21704,0.222208 -0.40307,0.4340807 0.34106,0.051676 0.84232,0.025838 0.50126,-0.025838 1.00769,-0.1291907 0.50126,-0.1085201 0.94567,-0.2945547 0.44959,-0.1912022 0.71314,-0.4650864 z m -3.95324,0.816485 q 0.25322,-0.3100576 0.55811,-0.6304505 0.30489,-0.3203928 0.62011,-0.6097799 0.32039,-0.2893871 0.63562,-0.5270979 0.31522,-0.2428785 0.59428,-0.3979073 0.23771,-0.1291907 0.5736,-0.1085202 0.34107,0.02067 0.65629,0.1550288 0.31523,0.1291907 0.53743,0.3565663 0.22738,0.2222079 0.23772,0.5064274 -0.0155,0.4805893 -0.22221,0.8371555 -0.20671,0.3565663 -0.53744,0.6046124 -0.33072,0.2480461 -0.75964,0.4030749 -0.42374,0.1498611 -0.87849,0.2273755 -0.57878,0.093017 -1.15755,0.077514 -0.57361,-0.015503 -1.02836,-0.098185 -0.0413,0.062012 -0.093,0.1756993 -0.0465,0.1188555 -0.0775,0.1963699 -0.0568,0.134359 -0.14986,0.113688 -0.0465,-0.01034 -0.062,-0.06718 -0.0155,-0.05168 0,-0.1240224 0.0207,-0.093017 0.0465,-0.180867 0.031,-0.08785 0.0724,-0.1912022 -0.27905,-0.1033525 -0.45992,-0.2325432 -0.1757,-0.1291906 -0.37723,-0.3617338 -0.13436,0.1860345 -0.28422,0.3255604 -0.1447,0.139526 -0.3204,0.2325432 -0.35656,0.1860346 -0.85782,0.1912022 h -0.093 q -0.16536,0 -0.24288,-0.124023 -0.0827,-0.1291907 -0.0827,-0.2842195 0,-0.1498612 0.0827,-0.2738842 0.0775,-0.1291907 0.24288,-0.1291907 h 0.093 q 0.26355,0 0.49092,-0.025838 0.23255,-0.025838 0.44959,-0.1550288 0.23771,-0.1395259 0.37206,-0.3720691 0.13436,-0.2325432 0.24805,-0.4702541 0.0362,-0.072347 0.093,-0.093017 0.062,-0.025838 0.0672,0.051676 0.005,0.2015375 0.10335,0.3772368 0.10335,0.1705317 0.24805,0.30489 0.14986,0.1291906 0.32556,0.2170403 0.1757,0.082682 0.33589,0.1033525 z m 1.70016,2.6251542 q -0.50643,0.160197 -0.99735,0.325561 -0.49093,0.165364 -0.94051,0.310057 -0.0827,0.02584 -0.0413,-0.05168 l 0.21187,-0.39274 q 0.0155,-0.03101 0.0258,-0.04651 0.0155,-0.0155 0.0465,-0.02584 0.13952,-0.05168 0.3669,-0.129191 0.22738,-0.07235 0.49092,-0.160196 0.26872,-0.08268 0.54777,-0.170532 0.27905,-0.08785 0.53227,-0.165364 0.0413,-0.0155 0.0517,-0.01034 0.0103,0.01034 -0.0103,0.05168 l -0.22221,0.403075 q -0.0155,0.02067 -0.031,0.03617 -0.0103,0.02067 -0.031,0.02584 z m -6.75409,-5.1211179 0.14986,-0.6046124 q 0.0155,-0.062011 0.062,-0.062011 0.0465,0 0.062,0.056844 l 0.52709,1.8655133 q 0.10336,0.3669015 0.25839,0.6407857 0.16019,0.2738842 0.43408,0.4599188 0.16019,0.1085202 0.3669,0.1550288 0.2067,0.046509 0.45992,0.046509 h 0.093 q 0.16537,0 0.24805,0.1291907 0.0827,0.1291907 0.0827,0.2790518 0,0.1498612 -0.0827,0.2790519 -0.0827,0.124023 -0.24805,0.124023 h -0.093 q -0.28422,0 -0.53227,-0.051676 -0.24288,-0.056844 -0.45475,-0.2015375 -0.2067,-0.1395259 -0.38757,-0.387572 -0.1757,-0.2532137 -0.33073,-0.6459533 -0.13436,0.4030749 -0.43925,0.6666238 -0.24804,0.2118727 -0.58394,0.3203929 -0.3359,0.1033525 -0.65629,0.1446935 -0.31522,0.046509 -0.59944,0.02067 -0.27906,-0.031006 -0.42892,-0.1705316 -0.0775,-0.072347 -0.11368,-0.1963699 -0.031,-0.124023 -0.031,-0.2583813 0,-0.1395259 0.0207,-0.2687166 0.0258,-0.1343583 0.0672,-0.2273756 0.0155,-0.031006 0.0413,-0.031006 0.031,0 0.0465,0.031006 0.093,0.1705317 0.21187,0.2325432 0.11886,0.056844 0.28422,0.072347 0.24288,0.025838 0.55811,-0.010335 0.31522,-0.036173 0.61494,-0.1291907 0.29973,-0.08785 0.53744,-0.2273756 0.24287,-0.1446935 0.33072,-0.3307281 z m -0.27389,-2.1083916 q -0.11369,0.2273756 -0.25838,0.3410634 -0.15503,0.1188554 -0.3669,0.124023 -0.17053,0.00517 -0.29973,-0.08785 -0.12402,-0.093017 -0.14469,-0.3255605 -0.0103,-0.1033525 0.0103,-0.2118727 0.0207,-0.1136878 0.062,-0.2118727 0.0413,-0.093017 0.093,-0.1601964 0.0568,-0.072347 0.11885,-0.093017 0.062,-0.00517 0.0103,0.093017 -0.031,0.056844 -0.0517,0.1343583 -0.0155,0.077514 -0.0207,0.1550288 0,0.072347 0.0155,0.124023 0.0155,0.051676 0.0672,0.098185 0.0775,0.056844 0.16537,0.056844 0.0878,-0.00517 0.17053,-0.041341 0.0879,-0.036173 0.15503,-0.082682 0.0723,-0.051676 0.14469,-0.1343583 0.0672,-0.077514 0.0982,-0.1963698 0.031,-0.1188555 0.0413,-0.1963699 0.005,-0.067179 0.0362,-0.1343583 0.031,-0.067179 0.10335,-0.067179 0.0155,0 0.0207,0.031006 0.0103,0.025838 0.0155,0.062012 0.005,0.036173 0.005,0.072347 0,0.031006 0,0.046509 0,0.1498612 0.0465,0.2377108 0.0465,0.082682 0.18604,0.1136878 0.0723,0.015503 0.18603,-0.015503 0.11886,-0.031006 0.2067,-0.1033525 0.0103,-0.010335 0.005,-0.056844 -0.005,-0.046509 -0.0207,-0.098185 -0.0103,-0.051676 -0.0362,-0.1085202 -0.0207,-0.062012 -0.0258,-0.072347 l 0.1912,-0.3617339 q 0.0517,0.025838 0.0775,0.1136878 0.031,0.08785 0.0362,0.2015374 0.0103,0.1085202 0,0.222208 -0.0103,0.1136878 -0.0258,0.1912022 -0.062,0.1912021 -0.17053,0.346231 -0.10335,0.1550288 -0.32039,0.1963698 -0.1912,0.036173 -0.3204,-0.025838 -0.12919,-0.062012 -0.2067,-0.1756993 z m 0.83715,7.1003195 q -0.50642,0.160196 -0.99735,0.32556 -0.49092,0.165364 -0.94051,0.310058 -0.0827,0.02584 -0.0413,-0.05168 l 0.21187,-0.392739 q 0.0155,-0.03101 0.0258,-0.04651 0.0155,-0.0155 0.0465,-0.02584 0.13953,-0.05168 0.3669,-0.129191 0.22738,-0.07235 0.49093,-0.160196 0.26871,-0.08268 0.54777,-0.170532 0.27905,-0.08785 0.53226,-0.165364 0.0413,-0.0155 0.0517,-0.01033 0.0103,0.01033 -0.0103,0.05168 l -0.22221,0.403075 q -0.0155,0.02067 -0.031,0.03617 -0.0103,0.02067 -0.031,0.02584 z M 201.2426,6.9485121 q 0.1447,0.1446936 0.26355,0.3152253 0.12402,0.1705317 0.21704,0.3565662 0.093,0.1860346 0.1447,0.3824044 0.0517,0.1963698 0.0517,0.3979073 0,0.08785 -0.0103,0.1963698 -0.0103,0.1085201 -0.031,0.2222079 -0.0207,0.1085202 -0.0568,0.2118727 -0.031,0.098185 -0.0775,0.1705317 -0.12402,0.1860346 -0.34623,0.2997224 -0.21704,0.1136878 -0.48059,0.1705317 -0.26355,0.056844 -0.53743,0.077514 -0.26872,0.015503 -0.49093,0.015503 h -0.093 q -0.1602,0 -0.24288,-0.124023 -0.0827,-0.1291907 -0.0827,-0.2842195 0,-0.1550288 0.0827,-0.2790518 0.0827,-0.1291907 0.24288,-0.1291907 h 0.093 q 0.24805,0 0.49093,-0.00517 0.24804,-0.010335 0.46509,-0.031006 0.2222,-0.02067 0.3979,-0.056844 0.1757,-0.041341 0.27905,-0.1085201 0.0568,-0.031006 0.0568,-0.077514 0.005,-0.046509 -0.0207,-0.1188555 -0.0517,-0.1343583 -0.11886,-0.248046 -0.062,-0.1136878 -0.13952,-0.2170404 -0.0827,-0.1085201 -0.17054,-0.206705 -0.0879,-0.098185 -0.18603,-0.1963699 l 0.17053,-0.7234677 q 0.0155,-0.056844 0.0517,-0.056844 0.0362,0 0.0775,0.046509 z m 0.5271,4.8420659 q -0.0258,0.03101 -0.0413,0.03101 -0.0155,0.0052 -0.0568,-0.02584 l -0.61495,-0.480589 -0.40308,0.552936 q -0.0362,0.04651 -0.0775,0.0155 l -0.65629,-0.506428 q -0.0362,-0.02584 -0.0103,-0.06201 l 0.41858,-0.594277 q 0.0207,-0.03101 0.0362,-0.03101 0.0155,0 0.0362,0.02067 l 0.62011,0.470254 0.42375,-0.5426 q 0.031,-0.04134 0.062,-0.0155 l 0.65629,0.547768 q 0.0362,0.02584 0,0.07235 z m -3.0799,-2.831859 q -0.0103,-0.067179 -0.0723,-0.1550288 -0.062,-0.093017 -0.15503,-0.1756994 -0.0879,-0.08785 -0.1912,-0.1446935 -0.10336,-0.062012 -0.19121,-0.062012 -0.062,0 -0.13952,0.031006 -0.0724,0.031006 -0.13953,0.082682 -0.062,0.046509 -0.10852,0.1085201 -0.0413,0.062011 -0.0413,0.1188554 0.0465,0.1085202 0.18087,0.1550288 0.13952,0.046509 0.30489,0.062012 0.16019,0.015503 0.31522,0.00517 0.15503,-0.010335 0.23771,-0.025838 z m -0.72863,0.7958145 q -0.37207,-0.062012 -0.50643,-0.2945547 -0.13436,-0.2377109 -0.13436,-0.568439 0,-0.1705317 0.0465,-0.387572 0.0465,-0.2170403 0.14469,-0.4134101 0.0982,-0.1963699 0.25322,-0.3307282 0.15503,-0.1343582 0.37207,-0.1343582 0.21187,0 0.3979,0.1446935 0.18604,0.1395259 0.3359,0.3410634 0.14986,0.206705 0.25321,0.4392482 0.10852,0.2273756 0.15503,0.4030749 h 0.61495 0.10335 q 0.16537,0 0.24805,0.1291907 0.0827,0.1291907 0.0827,0.2790518 0,0.1498612 -0.0827,0.2790519 -0.0827,0.124023 -0.24805,0.124023 h -0.60461 q 0.0155,0.139526 0.0103,0.3358953 -0.005,0.19637 -0.0362,0.366902 -0.10335,0.465086 -0.40307,0.821653 -0.29972,0.356566 -0.70797,0.599444 -0.40307,0.248046 -0.87333,0.372069 -0.47025,0.124024 -0.9095,0.124024 -0.43925,0 -0.80615,-0.134359 -0.36173,-0.12919 -0.62528,-0.377237 -0.25838,-0.248046 -0.40308,-0.604612 -0.14469,-0.351398 -0.14469,-0.795814 0,-0.4805897 0.1602,-0.9456761 0.16019,-0.4650864 0.42891,-0.8681613 0.031,-0.046509 0.0568,-0.046509 0.0258,0 0.0413,0.025838 0.0207,0.02067 0.0258,0.051676 0.005,0.031006 -0.005,0.051676 -0.0775,0.180867 -0.1602,0.3927397 -0.0827,0.2118727 -0.13436,0.4547511 -0.0465,0.2377109 -0.0413,0.5012596 0.005,0.263549 0.10852,0.542601 0.14469,0.403075 0.5271,0.671792 0.3824,0.273884 1.02319,0.263548 0.37207,-0.01033 0.72863,-0.08785 0.36174,-0.07235 0.69247,-0.21704 0.33072,-0.149862 0.62528,-0.366902 0.29455,-0.21704 0.53226,-0.506427 0.0103,-0.118856 -0.031,-0.315226 -0.0413,-0.1912018 -0.0827,-0.3100573 -0.24288,0.031006 -0.51677,0.031006 -0.26871,0 -0.51159,-0.041341 z m 0.5581,-3.1522524 q -0.0258,0.031006 -0.0413,0.036173 -0.0155,0 -0.0568,-0.031006 l -0.59945,-0.4650864 -0.39274,0.5374332 q -0.0362,0.046509 -0.0775,0.015503 l -0.64079,-0.4960921 q -0.0362,-0.025838 -0.0103,-0.056844 l 0.40824,-0.5839419 q 0.0207,-0.031006 0.0362,-0.031006 0.0155,0 0.0362,0.020671 l 0.60461,0.4599188 0.41341,-0.527098 q 0.031,-0.041341 0.062,-0.015503 l 0.64079,0.5322655 q 0.0362,0.025838 0,0.072347 z m -7.76178,-3.5346567 q 0.0827,0.00517 0.0775,0.1912022 -0.0103,0.1963698 0.005,0.387572 0.0155,0.1860346 0.0413,0.3772368 0.0517,0.4599188 0.12402,0.9508433 0.0724,0.4857569 0.14469,0.9818491 0.0672,0.4909245 0.13436,0.9818491 0.0672,0.4909245 0.11369,0.9560109 0.0207,0.180867 0.0258,0.4237454 0.0103,0.2428785 -0.005,0.4960922 -0.0103,0.2480461 -0.0568,0.4805893 -0.0413,0.2325432 -0.11886,0.387572 -0.0413,0.08785 -0.0982,0.1136878 -0.0465,0.00517 -0.0413,-0.041341 -0.031,-0.4495835 -0.0775,-0.9043347 -0.0413,-0.4599188 -0.10852,-0.9353404 -0.0672,-0.4909246 -0.13436,-0.9715139 -0.0672,-0.4805893 -0.12919,-0.9611786 -0.0672,-0.4805893 -0.13436,-0.9611785 -0.062,-0.4805893 -0.12402,-0.9663463 0.0155,-0.1188554 0.0465,-0.2428784 0.031,-0.1291907 0.0879,-0.263549 0.12402,-0.3358957 0.16536,-0.4082425 0.0465,-0.072347 0.062,-0.072347 z m -2.21691,-0.2893871 q 0.0155,-0.046509 0.0413,-0.056844 0.0258,-0.010335 0.0413,0.056844 0.0413,0.1240231 0.093,0.2532137 0.0517,0.1291907 0.11886,0.2532138 0.0724,0.124023 0.16536,0.2325432 0.093,0.1033525 0.21188,0.1756993 -0.0724,0.124023 -0.1292,0.2170403 -0.0517,0.08785 -0.0878,0.1653641 -0.0362,0.072347 -0.0517,0.1446935 -0.0155,0.067179 -0.005,0.1446936 0.0569,0.4960921 0.12919,0.9973519 0.0775,0.4960922 0.1447,0.9921844 0.0723,0.4960921 0.12402,0.9921843 0.0568,0.4960922 0.0724,0.997352 0.005,0.165364 -0.0207,0.3358957 -0.0258,0.1705317 -0.0827,0.3255605 -0.0568,0.1550288 -0.14469,0.2945547 -0.0827,0.1343583 -0.1912,0.2273756 -0.14986,0.1291907 -0.37207,0.1860346 -0.21704,0.051676 -0.53227,0.051676 h -0.093 q -0.16536,0 -0.24804,-0.124023 -0.0879,-0.1291907 -0.0879,-0.2790519 0,-0.1550288 0.0879,-0.2790518 0.0827,-0.1291907 0.24804,-0.1291907 h 0.093 q 0.17053,0 0.33073,-0.010335 0.1602,-0.015503 0.29456,-0.046509 0.13435,-0.036173 0.22737,-0.093017 0.0982,-0.062012 0.13953,-0.1550288 -0.10336,-1.0903693 -0.26872,-2.1497328 -0.16536,-1.0645311 -0.32039,-2.1393975 -0.031,-0.2170403 -0.0672,-0.4237454 -0.031,-0.2118727 -0.14986,-0.4082425 -0.0413,-0.056844 -0.0465,-0.072347 -0.005,-0.020671 0.0258,-0.082682 0.0879,-0.1498612 0.16019,-0.30489 0.0775,-0.1601964 0.14986,-0.2893871 z m -2.12389,6.2786666 q 0.0155,0.00517 0.031,0 0.0155,-0.010335 -0.0103,-0.046509 -0.0879,-0.098185 -0.14986,-0.2015374 -0.062,-0.1085202 -0.10852,-0.2015375 -0.0465,-0.093017 -0.0775,-0.165364 -0.031,-0.072347 -0.0517,-0.1136878 -0.0517,-0.093017 -0.13436,-0.077514 -0.093,0.02067 -0.22738,0.1085202 -0.13436,0.08785 -0.2222,0.206705 -0.031,0.036173 -0.031,0.051676 0,0.015503 0.0413,0.041341 0.0827,0.062012 0.20154,0.1291907 0.11885,0.067179 0.24804,0.124023 0.12919,0.051676 0.25839,0.093017 0.12919,0.041341 0.23254,0.051676 z m 0.51159,0.4805893 q -0.0465,0.1085201 -0.10335,0.2325432 -0.0517,0.1291906 -0.0982,0.1446935 -0.17054,0.031006 -0.43925,-0.025838 -0.26872,-0.051676 -0.53227,-0.1601965 -0.26355,-0.1085201 -0.46508,-0.2583813 -0.19637,-0.1498612 -0.21704,-0.3152252 -0.13953,0.1860345 -0.29973,0.30489 -0.15503,0.1136877 -0.31522,0.1860345 -0.16537,0.067179 -0.32556,0.093017 -0.15503,0.025838 -0.29456,0.025838 h -0.093 q -0.16537,0 -0.24805,-0.124023 -0.0827,-0.1291907 -0.0827,-0.2790519 0,-0.1550288 0.0827,-0.2790518 0.0827,-0.1291907 0.24805,-0.1291907 h 0.093 q 0.19121,0 0.38241,-0.010335 0.1912,-0.010335 0.37207,-0.062012 0.18086,-0.051676 0.35139,-0.1601965 0.17054,-0.1136878 0.3204,-0.3152252 0.0827,-0.1085202 0.18086,-0.2170403 0.0982,-0.1136878 0.19637,-0.2015375 0.10336,-0.08785 0.20671,-0.1395259 0.10335,-0.056844 0.19637,-0.056844 0.093,0 0.20154,0.08785 0.10852,0.08785 0.21704,0.206705 0.11369,0.1136878 0.21187,0.2377109 0.10335,0.124023 0.1757,0.1912022 0.12402,0.1291906 0.26355,0.2118727 0.13952,0.082682 0.28939,0.1343583 0.14986,0.051676 0.31522,0.072347 0.16536,0.020671 0.34623,0.020671 h 0.093 q 0.1602,0 0.24288,0.1291907 0.0827,0.124023 0.0827,0.2790518 0,0.1498612 -0.0827,0.2790519 -0.0827,0.124023 -0.24288,0.124023 h -0.093 q -0.14986,0 -0.29972,-0.00517 -0.14986,-0.00517 -0.29456,-0.031006 -0.14469,-0.02067 -0.28422,-0.067179 -0.13435,-0.046509 -0.25838,-0.124023 z m -0.2067,2.1083918 q -0.50643,0.160196 -0.99735,0.32556 -0.49093,0.165364 -0.94051,0.310058 -0.0827,0.02584 -0.0413,-0.05168 l 0.21187,-0.39274 q 0.0155,-0.03101 0.0258,-0.04651 0.0155,-0.0155 0.0465,-0.02584 0.13952,-0.05168 0.3669,-0.12919 0.22737,-0.07235 0.49092,-0.160197 0.26872,-0.08268 0.54777,-0.170531 0.27905,-0.08785 0.53227,-0.165365 0.0413,-0.0155 0.0517,-0.01033 0.0103,0.01033 -0.0103,0.05168 l -0.22221,0.403075 q -0.0155,0.02067 -0.031,0.03617 -0.0103,0.02067 -0.031,0.02584 z M 181.833,7.5117835 q 0.0155,-0.051676 0.0568,-0.1498612 0.0413,-0.1033525 0.0879,-0.1963698 0.0465,-0.098185 0.0827,-0.1601965 0.0413,-0.067179 0.0517,-0.046509 0.16537,0.4909245 0.31006,0.857826 0.1447,0.3617339 0.28939,0.5942771 0.11369,0.180867 0.23771,0.2893871 0.12919,0.1033526 0.26872,0.1601965 0.14469,0.056844 0.29972,0.077514 0.15503,0.015503 0.32556,0.015503 h 0.0982 q 0.1602,0 0.23772,0.1291907 0.0827,0.124023 0.0827,0.2790518 0,0.1498612 -0.0827,0.2790519 -0.0827,0.124023 -0.24805,0.124023 h -0.093 q -0.51676,0 -0.9095,-0.2222079 -0.39274,-0.2273756 -0.62528,-0.6304505 -0.0827,0.2377108 -0.24288,0.4030749 -0.15503,0.1601964 -0.3669,0.263549 -0.20671,0.098185 -0.45992,0.1446935 -0.24805,0.041341 -0.5271,0.041341 h -0.0827 q -0.15503,0 -0.23255,-0.124023 -0.0775,-0.1291907 -0.0775,-0.2790519 0,-0.1550288 0.0827,-0.2790518 0.0775,-0.1291907 0.23255,-0.1291907 h 0.0827 q 0.12919,0 0.32039,-0.00517 0.1912,-0.010335 0.39274,-0.046509 0.20671,-0.036173 0.39791,-0.1033526 0.19637,-0.072347 0.33589,-0.1963698 -0.031,-0.077514 -0.0775,-0.1963698 -0.0465,-0.124023 -0.093,-0.2583813 -0.0465,-0.1343583 -0.0879,-0.263549 -0.0413,-0.1291907 -0.0672,-0.222208 -0.0258,-0.072347 0,-0.1498611 z m -0.16536,-2.7905185 0.63562,0.5270979 q 0.0413,0.036173 0.005,0.082682 l -0.42374,0.5322655 q -0.0362,0.051676 -0.0827,0.010335 l -0.64079,-0.527098 q -0.0413,-0.036173 0,-0.08785 l 0.42891,-0.5270979 q 0.0362,-0.046509 0.0775,-0.010335 z m -0.52193,-2.0722183 q 0,0.08785 0.0465,0.1395259 0.0517,0.046509 0.11885,0.072347 0.0672,0.025838 0.1447,0.031006 0.0827,0.00517 0.14469,0.00517 0.14469,0 0.26872,-0.062011 0.12919,-0.062012 0.23254,-0.1601965 0.0103,-0.093017 -0.0207,-0.1963698 -0.031,-0.1033525 -0.0982,-0.1860346 -0.0672,-0.082682 -0.16537,-0.1291906 -0.0982,-0.051676 -0.22737,-0.041341 -0.0775,0.02067 -0.15503,0.077514 -0.0775,0.051676 -0.1447,0.124023 -0.062,0.072347 -0.10335,0.1601964 -0.0413,0.082682 -0.0413,0.1653641 z m 1.20922,-0.1343583 q 0,0.1756993 -0.0465,0.3410634 -0.0465,0.165364 -0.1447,0.2945547 -0.0982,0.1291907 -0.25321,0.2067051 -0.14986,0.077514 -0.36174,0.077514 -0.26354,0 -0.44441,-0.1705317 -0.18087,-0.1705317 -0.1912,-0.4547512 0,-0.1446935 0.0413,-0.346231 0.0465,-0.206705 0.13952,-0.3979072 0.093,-0.1912022 0.23771,-0.3307281 0.14987,-0.1446936 0.35657,-0.1705317 0.19637,-0.020671 0.32556,0.077514 0.12919,0.098185 0.20671,0.2480461 0.0723,0.1550288 0.10335,0.3307281 0.031,0.1705317 0.031,0.2945547 z m -4.54751,5.5138577 q 0.062,-0.1033525 0.12402,-0.098185 0.0672,0.00517 0.0362,0.1240231 -0.0258,0.1085201 -0.0724,0.2273756 -0.0465,0.1136877 -0.10335,0.248046 0.0362,0.08785 0.16019,0.1756993 0.1292,0.082682 0.28939,0.1446936 0.15503,0.056844 0.31523,0.082682 0.16536,0.025838 0.27388,-0.015503 0.1757,-0.056844 0.28939,-0.3152252 0.11369,-0.263549 0.19637,-0.5529361 0.0413,-0.1550288 0.10852,-0.1808669 0.0672,-0.025838 0.0775,0.1136878 0.0207,0.2583813 0.093,0.4444159 0.0724,0.1860346 0.21704,0.2997224 0.27388,0.2273755 0.89917,0.2273755 h 0.093 q 0.16537,0 0.24805,0.1291907 0.0827,0.1291907 0.0827,0.2790518 0,0.1498612 -0.0827,0.2790519 -0.0827,0.124023 -0.24805,0.124023 h -0.093 q -0.27389,0 -0.47026,-0.031006 -0.19637,-0.036173 -0.3824,-0.1136878 -0.43408,-0.1860346 -0.65629,-0.6149476 -0.0362,0.082682 -0.093,0.1963698 -0.0568,0.1136878 -0.13436,0.222208 -0.0723,0.1033525 -0.16019,0.1756993 -0.0878,0.072347 -0.18604,0.072347 -0.12919,0 -0.29972,-0.031006 -0.17053,-0.031006 -0.34106,-0.098185 -0.1757,-0.062012 -0.3359,-0.1601964 -0.15503,-0.1033526 -0.26355,-0.2428785 -0.18086,0.2067051 -0.40824,0.346231 -0.22221,0.1343583 -0.47542,0.1756993 -0.25838,0.046509 -0.5426,0 -0.27905,-0.051676 -0.57361,-0.2067051 -0.13436,0.098185 -0.29455,0.1601965 -0.1602,0.062012 -0.31523,0.093017 -0.16019,0.036173 -0.30489,0.046509 -0.14469,0.010335 -0.25321,0.010335 h -0.093 q -0.15503,0 -0.23254,-0.124023 -0.0775,-0.1291907 -0.0775,-0.2790519 0,-0.1498611 0.0775,-0.2790518 0.0775,-0.1291907 0.23254,-0.1291907 h 0.093 q 0.31006,0 0.5736,-0.020671 0.26355,-0.025838 0.4961,-0.1136878 0.22737,-0.082682 0.42891,-0.2532137 0.2067,-0.1705317 0.39274,-0.4650864 0.0672,-0.1085201 0.11369,-0.093017 0.0517,0.010335 0.031,0.1188554 -0.0362,0.1860346 -0.11885,0.3979073 -0.0827,0.2118727 -0.20154,0.3617339 0.10335,0.031006 0.25321,0.046509 0.15503,0.015503 0.32556,0 0.25322,-0.02067 0.47543,-0.1033525 0.22737,-0.08785 0.40824,-0.263549 0.11369,-0.1033525 0.21187,-0.2377108 0.10335,-0.1395259 0.19637,-0.2997224 z m 0.45475,-1.162716 q -0.031,0.036173 -0.0465,0.036173 -0.0155,0 -0.0517,-0.025838 l -0.60978,-0.4805893 -0.39791,0.552936 q -0.0362,0.046509 -0.0775,0.010335 L 176.4277,6.4627552 q -0.0362,-0.031006 -0.0103,-0.067179 l 0.41341,-0.5891095 q 0.0258,-0.031006 0.0362,-0.025838 0.0155,0 0.0362,0.015503 l 0.61494,0.470254 0.41858,-0.5374332 q 0.031,-0.041341 0.062,-0.020671 l 0.65112,0.5426008 q 0.031,0.031006 0,0.072347 z m -0.97668,-2.1807385 0.63562,0.5219303 q 0.0413,0.031006 0.005,0.072347 l -0.42375,0.5270979 q -0.0362,0.046509 -0.0827,0.010335 L 176.7791,5.3000392 q -0.0413,-0.036173 0,-0.08785 l 0.42892,-0.5167626 q 0.0362,-0.046509 0.0775,-0.010335 z m 0.894,-1.7621609 q -0.25838,0.1188554 -0.5426,0.2480461 -0.27905,0.1291907 -0.5426,0.2480461 -0.26355,0.1188554 -0.49093,0.2222079 -0.22737,0.1033526 -0.38757,0.1705317 -0.0362,0.015503 -0.0517,0 -0.0155,-0.015503 0,-0.046509 l 0.25322,-0.5064274 q 0.0258,-0.041341 0.0517,-0.056844 0.031,-0.020671 0.0568,-0.036173 l 1.88618,-0.8371556 q 0.0827,-0.036173 0.0517,0.041341 l -0.21187,0.4805892 q -0.0155,0.046509 -0.0724,0.072347 z m -3.89122,6.025453 q 0.15502,0 0.23254,0.1291907 0.0775,0.1291906 0.0775,0.2842194 0.005,0.1498612 -0.0723,0.2790519 -0.0775,0.124023 -0.23771,0.124023 -0.0155,0 -0.0362,0 -0.0155,0 -0.0362,0 -0.46509,0 -0.76481,-0.1705316 -0.29455,-0.1705317 -0.47025,-0.4547512 -0.20671,-0.3410634 -0.27389,-0.733803 -0.062,-0.3979073 -0.10335,-0.7906469 -0.0465,-0.4495835 -0.0982,-0.8991671 -0.0517,-0.4495835 -0.10335,-0.899167 -0.0517,-0.4650864 -0.12402,-0.9353405 -0.0672,-0.4754216 -0.22221,-1.0231901 -0.0103,-0.041341 -0.0155,-0.062012 -0.005,-0.020671 0.005,-0.051676 l 0.26871,-0.6769591 q 0.0155,-0.036173 0.0413,-0.036173 0.031,0 0.0413,0.036173 0.0672,0.2945548 0.12403,0.5942771 0.0568,0.2945547 0.10852,0.6407857 0.0517,0.3410634 0.0982,0.7544735 0.0517,0.4082426 0.10852,0.9301729 0.0413,0.3617338 0.0775,0.7131325 0.0362,0.3513986 0.0723,0.7027972 0.0362,0.2790518 0.0775,0.5736066 0.0413,0.2945547 0.1757,0.5426008 0.11885,0.2118727 0.34106,0.3203928 0.22738,0.1085202 0.63562,0.1085202 0.0207,0 0.0362,0 0.0207,0 0.0362,0 z m -4.15994,-1.0335253 q -0.0775,0.00517 -0.13953,0.062011 -0.062,0.051676 -0.10852,0.124023 -0.0413,0.067179 -0.0672,0.1395259 -0.0207,0.072347 -0.0207,0.1085202 0.0672,0.1085202 0.18603,0.1498612 0.11886,0.036173 0.23771,0.036173 0.13436,-0.010335 0.24288,-0.062012 0.11369,-0.056844 0.15503,-0.1085201 0,-0.067179 -0.0517,-0.1446936 -0.0465,-0.082682 -0.12402,-0.1498611 -0.0724,-0.067179 -0.1602,-0.1085202 -0.0827,-0.046509 -0.14986,-0.046509 z m 0.67179,0.9095023 q -0.0723,0.2170403 -0.26355,0.3669015 -0.1912,0.1498611 -0.47025,0.1498611 -0.13953,0 -0.26872,-0.072347 -0.12402,-0.072347 -0.21704,-0.1860346 -0.093,-0.1188554 -0.14469,-0.2687166 -0.0465,-0.1498612 -0.031,-0.30489 0.0103,-0.1085201 0.0465,-0.2532137 0.0362,-0.1446935 0.093,-0.2945547 0.0568,-0.1498612 0.12919,-0.2997224 0.0775,-0.1498611 0.17053,-0.2635489 0.093,-0.1136878 0.19637,-0.1860346 0.10335,-0.072347 0.21704,-0.072347 0.20154,0 0.37724,0.1601965 0.1757,0.1601964 0.30489,0.4082425 0.12919,0.2428784 0.20154,0.5426008 0.0723,0.2945547 0.0672,0.5736066 -0.005,0.3720691 -0.0982,0.775144 -0.0879,0.3979072 -0.23771,0.7854798 -0.14986,0.387572 -0.34623,0.728635 -0.1912,0.346231 -0.40824,0.583942 -0.3204,0.351399 -0.68213,0.537433 -0.35657,0.191203 -0.74931,0.248046 -0.39274,0.05684 -0.82165,0 -0.42375,-0.05684 -0.8785,-0.196369 -0.0413,-0.0155 -0.0517,-0.05168 -0.0155,-0.03617 0.005,-0.07751 0.0155,-0.03617 0.062,-0.06718 0.0413,-0.02584 0.11368,-0.02067 0.43409,0.03617 0.78548,-0.0155 0.35657,-0.05168 0.66146,-0.180867 0.31006,-0.124023 0.59428,-0.320392 0.28422,-0.19637 0.58394,-0.459919 0.20154,-0.175699 0.38757,-0.408243 0.1912,-0.232543 0.34106,-0.480589 0.15503,-0.2532142 0.25839,-0.5064279 0.10335,-0.2532137 0.14469,-0.470254 0.005,-0.046509 0,-0.1033526 -0.005,-0.062012 -0.0155,-0.1188554 -0.0103,-0.056844 -0.0258,-0.1033525 -0.0155,-0.051676 -0.031,-0.077514 z M 170.149,13.712936 q -0.50643,0.160196 -0.99736,0.32556 -0.49092,0.165364 -0.9405,0.310058 -0.0827,0.02584 -0.0414,-0.05168 l 0.21188,-0.392739 q 0.0155,-0.03101 0.0258,-0.04651 0.0155,-0.0155 0.0465,-0.02584 0.13953,-0.05168 0.36691,-0.129191 0.22737,-0.07235 0.49092,-0.160196 0.26872,-0.08268 0.54777,-0.170532 0.27905,-0.08785 0.53226,-0.165364 0.0413,-0.0155 0.0517,-0.01033 0.0103,0.01033 -0.0103,0.05168 l -0.22221,0.403075 q -0.0155,0.02067 -0.031,0.03617 -0.0103,0.02067 -0.031,0.02584 z m -3.48815,-3.8033737 q -0.3514,0.2945547 -0.74414,0.5426007 -0.39274,0.248046 -0.81648,0.428913 -0.42375,0.180867 -0.8785,0.279052 -0.45475,0.103353 -0.92501,0.103353 -0.47542,0 -0.89916,-0.134359 -0.41858,-0.12919 -0.73381,-0.387572 -0.31005,-0.253214 -0.50126,-0.635618 -0.18603,-0.3772367 -0.1912,-0.8733288 -0.0155,-0.5477685 0.15503,-1.0645311 0.1757,-0.5167627 0.50126,-0.9663462 0.031,-0.041341 0.0517,-0.036173 0.0207,0 0.0362,0.025838 0.0155,0.02067 0.0207,0.051676 0.005,0.025838 0.005,0.041341 -0.10335,0.2118727 -0.20154,0.4444159 -0.093,0.2325432 -0.15503,0.4754216 -0.062,0.2428785 -0.0724,0.4960922 -0.005,0.2532137 0.0827,0.5064274 0.093,0.2997224 0.25838,0.5219303 0.17053,0.222208 0.39274,0.3720687 0.22221,0.155029 0.48575,0.237711 0.26872,0.08268 0.56328,0.10852 0.42374,0.03617 0.87849,-0.02584 0.45475,-0.05684 0.90434,-0.191202 0.44958,-0.139526 0.86299,-0.3410632 0.41858,-0.2015375 0.76481,-0.4495836 0.0878,-0.062011 0.093,-0.1033525 0.005,-0.046509 -0.0362,-0.077514 -0.0362,-0.036173 -0.10335,-0.056844 -0.062,-0.020671 -0.10852,-0.036173 -0.14986,-0.041341 -0.32556,-0.067179 -0.1757,-0.031006 -0.36173,-0.056844 -0.18087,-0.025838 -0.36174,-0.051676 -0.1757,-0.031006 -0.32556,-0.067179 -0.17053,-0.041341 -0.32556,-0.1240231 -0.14986,-0.082682 -0.26355,-0.1963698 -0.11368,-0.1188554 -0.18603,-0.2687166 -0.0672,-0.1498612 -0.0724,-0.3203928 -0.0103,-0.2428785 0.0465,-0.485757 0.062,-0.2428784 0.1757,-0.470254 0.11369,-0.2325432 0.26355,-0.4444159 0.15503,-0.2170403 0.33073,-0.4082425 0.18086,-0.2015375 0.38757,-0.3772368 0.2067,-0.1756993 0.41858,-0.2945547 0.21704,-0.1188554 0.43408,-0.165364 0.21704,-0.051676 0.41857,-0.00517 0.21705,0.056844 0.34624,0.2067051 0.12919,0.1498612 0.1757,0.3410634 0.0517,0.1912022 0.0258,0.3979072 -0.0258,0.2067051 -0.11368,0.3720692 -0.0155,0.02067 -0.0465,0.015503 -0.0258,-0.00517 -0.0362,-0.036173 -0.031,-0.077514 -0.0982,-0.1756993 -0.0672,-0.098185 -0.1602,-0.1860345 -0.093,-0.08785 -0.2067,-0.1446936 -0.10852,-0.062011 -0.23255,-0.062011 -0.24804,0 -0.51676,0.1291907 -0.26355,0.1291906 -0.50643,0.3307281 -0.24287,0.2015374 -0.43408,0.4444159 -0.18603,0.2428784 -0.27905,0.470254 -0.093,0.180867 -0.0465,0.30489 0.0517,0.1188554 0.1912,0.2170403 0.13953,0.1033526 0.32557,0.1705317 0.1912,0.067179 0.39273,0.1136878 0.20154,0.046509 0.40308,0.077514 0.20154,0.025838 0.37207,0.051676 0.12402,0.02067 0.26355,0.051676 0.14469,0.031006 0.26871,0.08785 0.12403,0.051676 0.21188,0.1395259 0.0879,0.082682 0.10335,0.2118727 0.0155,0.1136878 -0.005,0.263549 -0.0207,0.1446935 -0.0723,0.2893871 -0.0465,0.1446935 -0.11886,0.2738842 -0.0672,0.124023 -0.14986,0.1912022 z m -10.59363,2.0825537 h -0.66663 q 1.54512,-2.480461 1.54512,-4.9660895 0,-0.9715138 -0.2222,-1.9275247 -0.1757,-0.7751441 -0.49093,-1.4882766 -0.20154,-0.4650864 -0.83199,-1.550288 h 0.66663 q 0.97151,1.2970743 1.4366,2.6044839 0.3979,1.1265426 0.3979,2.3564378 0,1.3952592 -0.53743,2.6975012 -0.53226,1.3022419 -1.29707,2.2737559 z M 153.8348,8.3437714 q 0.0103,-0.015503 -0.0207,-0.082682 -0.0258,-0.072347 -0.0672,-0.1550288 -0.0413,-0.082682 -0.0827,-0.1550288 -0.0413,-0.077514 -0.0568,-0.1033525 -0.0879,-0.1291907 -0.21704,-0.2428785 -0.12403,-0.1136877 -0.31006,-0.1033525 -0.0827,0.00517 -0.16537,0.046509 -0.0775,0.041341 -0.14469,0.1033526 -0.0672,0.062012 -0.11885,0.1395259 -0.0517,0.072347 -0.0775,0.1498612 0.26355,0.2222079 0.58911,0.3152252 0.32556,0.08785 0.67179,0.08785 z m -3.24527,0.6097799 q 0.21704,0 0.42892,-0.010335 0.21704,-0.015503 0.40307,-0.062012 0.18603,-0.046509 0.33073,-0.1343583 0.14986,-0.093017 0.23254,-0.2480461 0.14986,-0.2790519 0.27389,-0.5581037 0.12402,-0.2842195 0.27388,-0.5477685 0.0568,-0.098185 0.14986,-0.2170403 0.0982,-0.1188554 0.21187,-0.2222079 0.11369,-0.1085202 0.23771,-0.1756993 0.12403,-0.067179 0.24288,-0.062012 0.12919,0.00517 0.25322,0.093017 0.12402,0.08785 0.23254,0.2273756 0.11369,0.1395259 0.20154,0.3152252 0.093,0.1705317 0.16019,0.346231 0.0672,0.1756993 0.0982,0.3410634 0.0362,0.1601964 0.031,0.2790518 -0.0103,0.1085202 -0.031,0.2325432 -0.0207,0.1188555 -0.0672,0.2273756 -0.0413,0.1085202 -0.11369,0.2015375 -0.0672,0.08785 -0.17053,0.1343583 -0.11886,0.041341 -0.32556,0.025838 -0.20671,-0.015503 -0.45475,-0.077514 -0.24288,-0.062012 -0.49609,-0.1705317 -0.25322,-0.1085202 -0.47026,-0.2583813 -0.20153,0.5942771 -0.60461,0.8629936 -0.40307,0.2687166 -1.02836,0.2687166 h -0.093 q -0.16537,0 -0.24288,-0.124023 -0.0827,-0.1291907 -0.0827,-0.2790519 0,-0.1550288 0.0827,-0.2790518 0.0775,-0.1291907 0.24288,-0.1291907 z m 0.94568,-4.2271187 q 0.17053,-0.098185 0.33589,-0.1963698 0.16537,-0.098185 0.3204,-0.2118727 0.16019,-0.1136878 0.31522,-0.2480461 0.15503,-0.1343583 0.29972,-0.30489 -0.13952,-0.041341 -0.29455,-0.1395259 -0.15503,-0.098185 -0.24805,-0.2118727 -0.0465,-0.056844 -0.0568,-0.1446936 -0.0103,-0.093017 0.0155,-0.1705317 0.0413,-0.124023 0.11369,-0.2687165 0.0775,-0.1446936 0.18087,-0.263549 0.10335,-0.1188554 0.22737,-0.1912022 0.12919,-0.077514 0.25838,-0.072347 0.1602,0.010335 0.23255,0.1550288 0.0723,0.1395259 0.0879,0.3255605 0.0207,0.1860346 0,0.3669015 -0.0155,0.180867 -0.0258,0.263549 0,0.025838 0.0155,0.041341 0.062,0.036173 0.0827,0.067179 0.0258,0.031006 0.0413,0.072347 0.031,0.077514 0.0103,0.1860346 -0.0155,0.1085201 -0.062,0.165364 -0.0413,0.051676 -0.0724,0.051676 -0.031,-0.00517 -0.062,-0.051676 -0.0258,-0.031006 -0.0517,-0.056844 -0.0207,-0.031006 -0.0672,-0.051676 -0.14469,0.1756993 -0.31005,0.3358957 -0.1602,0.1601964 -0.34107,0.2945547 -0.18603,0.1291907 -0.38757,0.2325432 -0.20154,0.1033526 -0.42374,0.1705317 -0.0879,0.025838 -0.18087,0.036173 -0.093,0.00517 -0.10335,-0.02067 -0.0103,-0.031006 0.0362,-0.072347 0.0465,-0.046509 0.11369,-0.08785 z M 152.50676,2.99011 q 0.10852,0.1498612 0.25838,0.2377108 0.14986,0.082682 0.27389,0.1136878 h 0.0103 q 0,-0.041341 0.005,-0.1085202 0.005,-0.072347 0,-0.1446935 0,-0.072347 -0.0207,-0.1395259 -0.0155,-0.067179 -0.062,-0.1136878 -0.0413,-0.036173 -0.11886,-0.031006 -0.0724,0 -0.14469,0.025838 -0.0724,0.025838 -0.13436,0.072347 -0.0568,0.041341 -0.0672,0.08785 z m -3.43647,5.4053376 q 0.0207,-0.072347 0.0724,-0.010335 0.16019,0.1912022 0.32039,0.30489 0.1602,0.1085201 0.33073,0.165364 0.0879,0.031006 0.17053,0.051676 0.0827,0.015503 0.17053,0.031006 0.093,0.010335 0.20154,0.015503 0.10852,0 0.24804,0 h 0.093 q 0.16537,0 0.24805,0.1291907 0.0827,0.124023 0.0827,0.2738842 0,0.1550288 -0.0827,0.2842195 -0.0827,0.124023 -0.24805,0.124023 h -0.093 q -0.17053,0 -0.35139,-0.010335 -0.1757,-0.015503 -0.34624,-0.041341 -0.0517,0.2842194 -0.12402,0.532266 -0.0724,0.253214 -0.14986,0.470254 -0.18603,0.480589 -0.43408,0.857826 -0.23771,0.372069 -0.7183,0.630451 -0.26355,0.144693 -0.54777,0.21704 -0.28422,0.07235 -0.56844,0.08785 -0.18603,0.01033 -0.3669,0.0052 -0.1757,-0.0052 -0.36173,-0.03101 -0.18604,-0.02067 -0.38241,-0.07235 -0.20154,-0.04651 -0.42374,-0.129191 -0.062,-0.02584 -0.0827,-0.06201 -0.0258,-0.03617 -0.0103,-0.07235 0.0258,-0.06718 0.2067,-0.06718 0.31006,0.0052 0.57361,-0.01034 0.26355,-0.0155 0.5116,-0.07235 0.24804,-0.05168 0.49609,-0.149862 0.25321,-0.09302 0.54777,-0.253213 0.31522,-0.170532 0.56327,-0.387572 0.24804,-0.211873 0.43408,-0.459919 0.18087,-0.248046 0.31006,-0.52193 0.12919,-0.2738852 0.20153,-0.5684399 -0.19637,-0.082682 -0.3824,-0.2273756 -0.18604,-0.1446936 -0.30489,-0.2997224 z m 0.28939,-3.5346569 q -0.25838,0.1188554 -0.5426,0.2480461 -0.27906,0.1291907 -0.5426,0.2480461 -0.26355,0.1188554 -0.49093,0.222208 -0.22737,0.1033525 -0.38757,0.1705316 -0.0362,0.015503 -0.0517,0 -0.0155,-0.015503 0,-0.046509 l 0.25322,-0.5064274 q 0.0258,-0.041341 0.0517,-0.056844 0.031,-0.02067 0.0568,-0.036173 l 1.88618,-0.8371555 q 0.0827,-0.036173 0.0517,0.041341 L 149.432,4.7884439 q -0.0155,0.046509 -0.0723,0.072347 z m -4.15994,2.0877214 q 0.14469,0.1446936 0.26355,0.3152253 0.12402,0.1705317 0.21704,0.3565662 0.093,0.1860346 0.14469,0.3824044 0.0517,0.1963698 0.0517,0.3979073 0,0.08785 -0.0103,0.1963698 -0.0103,0.1085201 -0.031,0.2222079 -0.0207,0.1085202 -0.0568,0.2118727 -0.031,0.098185 -0.0775,0.1705317 -0.12403,0.1860346 -0.34623,0.2997224 -0.21704,0.1136878 -0.48059,0.1705317 -0.26355,0.056844 -0.53744,0.077514 -0.26871,0.015503 -0.49092,0.015503 h -0.093 q -0.1602,0 -0.24288,-0.124023 -0.0827,-0.1291907 -0.0827,-0.2842195 0,-0.1550288 0.0827,-0.2790518 0.0827,-0.1291907 0.24288,-0.1291907 h 0.093 q 0.24804,0 0.49092,-0.00517 0.24805,-0.010335 0.46509,-0.031006 0.22221,-0.02067 0.39791,-0.056844 0.1757,-0.041341 0.27905,-0.1085201 0.0568,-0.031006 0.0568,-0.077514 0.005,-0.046509 -0.0207,-0.1188555 -0.0517,-0.1343583 -0.11885,-0.248046 -0.062,-0.1136878 -0.13953,-0.2170404 -0.0827,-0.1085201 -0.17053,-0.206705 -0.0879,-0.098185 -0.18604,-0.1963699 l 0.17054,-0.7234677 q 0.0155,-0.056844 0.0517,-0.056844 0.0362,0 0.0775,0.046509 z m 0.52709,-1.0386929 q -0.0258,0.031006 -0.0413,0.036173 -0.0155,0 -0.0568,-0.031006 l -0.61495,-0.4805893 -0.40307,0.5529361 q -0.0362,0.046509 -0.0775,0.015503 l -0.65639,-0.506427 q -0.0362,-0.025838 -0.0103,-0.062011 l 0.41858,-0.5942771 q 0.0207,-0.031006 0.0362,-0.031006 0.0155,0 0.0362,0.02067 l 0.62012,0.470254 0.42374,-0.5426008 q 0.031,-0.041341 0.062,-0.015503 l 0.65628,0.5477684 q 0.0362,0.025838 0,0.072347 z m -0.91467,-2.2685883 q -0.11368,0.2273755 -0.25838,0.3410633 -0.15503,0.1188555 -0.3669,0.1240231 -0.17053,0.00517 -0.29972,-0.08785 -0.12402,-0.093017 -0.14469,-0.3255605 -0.0103,-0.1033525 0.0103,-0.2118727 0.0207,-0.1136878 0.062,-0.2118727 0.0413,-0.093017 0.093,-0.1601964 0.0568,-0.072347 0.11886,-0.093017 0.062,-0.00517 0.0103,0.093017 -0.031,0.056844 -0.0517,0.1343583 -0.0155,0.077514 -0.0207,0.1550288 0,0.072347 0.0155,0.1240231 0.0155,0.051676 0.0672,0.098185 0.0775,0.056844 0.16536,0.056844 0.0879,-0.00517 0.17053,-0.041341 0.0879,-0.036173 0.15503,-0.082682 0.0724,-0.051676 0.14469,-0.1343583 0.0672,-0.077514 0.0982,-0.1963698 0.031,-0.1188554 0.0413,-0.1963698 0.005,-0.067179 0.0362,-0.1343583 0.031,-0.067179 0.10336,-0.067179 0.0155,0 0.0207,0.031006 0.0103,0.025838 0.0155,0.062012 0.005,0.036173 0.005,0.072347 0,0.031006 0,0.046509 0,0.1498612 0.0465,0.2377109 0.0465,0.082682 0.18603,0.1136878 0.0724,0.015503 0.18603,-0.015503 0.11886,-0.031006 0.20671,-0.1033526 0.0103,-0.010335 0.005,-0.056844 -0.005,-0.046509 -0.0207,-0.098185 -0.0103,-0.051676 -0.0362,-0.1085201 -0.0207,-0.062012 -0.0258,-0.072347 l 0.1912,-0.3617339 q 0.0517,0.025838 0.0775,0.1136878 0.031,0.08785 0.0362,0.2015375 0.0103,0.1085201 0,0.2222079 -0.0103,0.1136878 -0.0258,0.1912022 -0.062,0.1912022 -0.17053,0.346231 -0.10336,0.1550288 -0.3204,0.1963698 -0.1912,0.036173 -0.32039,-0.025838 -0.12919,-0.062011 -0.20671,-0.1756993 z m 0.93018,-2.077386 q -0.25838,0.1188554 -0.5426,0.2480461 -0.27905,0.1291907 -0.5426,0.2480461 -0.26355,0.1188554 -0.49093,0.2222079 -0.22737,0.1033526 -0.38757,0.1705317 -0.0362,0.015503 -0.0517,0 -0.0155,-0.015503 0,-0.046509 l 0.25322,-0.5064275 q 0.0258,-0.041341 0.0517,-0.056844 0.031,-0.020671 0.0568,-0.036173 l 1.88618,-0.83715557 q 0.0827,-0.0361734 0.0517,0.041341 l -0.21188,0.4805893 q -0.0155,0.046509 -0.0723,0.072347 z m -3.14192,9.4980981 -0.7338,-6.8264349 q 0.0517,-0.1705317 0.12402,-0.3307281 0.0724,-0.1653641 0.14986,-0.3358958 0.0207,-0.036173 0.0517,-0.036173 0.0362,-0.00517 0.0465,0.082682 l 0.46508,3.8912229 q 0.031,0.3307281 0.0982,0.5994447 0.0672,0.2687166 0.19637,0.4547512 0.12919,0.1912022 0.33589,0.2945547 0.20671,0.098185 0.51677,0.098185 h 0.093 q 0.16537,0 0.24805,0.1291907 0.0827,0.124023 0.0827,0.2790518 0,0.1498612 -0.0827,0.2790519 -0.0827,0.124023 -0.24805,0.124023 h -0.093 q -0.3204,0 -0.56844,-0.093017 -0.24805,-0.093017 -0.41858,-0.2842195 0.0155,0.165364 0.031,0.3617339 0.0155,0.1912021 0.0258,0.3720695 0.0155,0.186035 0.0207,0.341063 0.005,0.155029 0,0.242879 -0.0413,0.506427 -0.24287,0.909502 -0.19637,0.403075 -0.52194,0.687294 -0.32039,0.289388 -0.7493,0.439249 -0.42375,0.155029 -0.91984,0.155029 -0.43925,0 -0.80098,-0.134359 -0.36173,-0.12919 -0.62528,-0.377236 -0.25838,-0.248047 -0.40308,-0.604613 -0.14469,-0.351398 -0.14469,-0.795814 0,-0.48059 0.15503,-0.925006 0.15503,-0.4392482 0.43408,-0.8474907 0.031,-0.046509 0.0517,-0.041341 0.0258,0 0.0413,0.025838 0.0155,0.025838 0.0207,0.062011 0.005,0.031006 0,0.041341 -0.21704,0.4599188 -0.29456,0.9560107 -0.0775,0.50126 0.0775,0.904335 0.15502,0.403075 0.52709,0.656289 0.37724,0.253213 1.01803,0.253213 0.28938,0 0.57877,-0.06718 0.29455,-0.06201 0.56327,-0.191202 0.26872,-0.124023 0.49609,-0.315225 0.23255,-0.186035 0.39791,-0.43408 z m -5.43634,0.930173 q -0.76998,-0.971514 -1.30224,-2.2737559 -0.53227,-1.302242 -0.53227,-2.6975012 0,-1.2298952 0.39791,-2.3564378 0.46508,-1.3074096 1.4366,-2.6044839 h 0.66662 q -0.62528,1.0748664 -0.82682,1.5347852 -0.31522,0.7131325 -0.49609,1.4882765 -0.22221,0.9663462 -0.22221,1.9430276 0,2.4856285 1.54512,4.9660895 z"
         id="text5"
         style="font-size:10.5833px;line-height:1.25;font-family:'KFGQPC Uthmanic Script HAFS';-inkscape-font-specification:'KFGQPC Uthmanic Script HAFS';direction:rtl;stroke-width:0.264583"
         aria-label="    ()" />
    </g>
  </g>
</svg>
