<?xml version="1.0" encoding="UTF-8" standalone="no"?>
<!-- Created with Inkscape (http://www.inkscape.org/) -->

<svg
   width="9.5317335mm"
   height="11.893953mm"
   viewBox="0 0 9.5317335 11.893953"
   version="1.1"
   id="svg1"
   inkscape:export-filename="Fatihah.svg"
   inkscape:export-xdpi="96"
   inkscape:export-ydpi="96"
   sodipodi:docname="Aya.svg"
   inkscape:version="1.3.2 (091e20e, 2023-11-25, custom)"
   xmlns:inkscape="http://www.inkscape.org/namespaces/inkscape"
   xmlns:sodipodi="http://sodipodi.sourceforge.net/DTD/sodipodi-0.dtd"
   xmlns="http://www.w3.org/2000/svg"
   xmlns:svg="http://www.w3.org/2000/svg">
  <sodipodi:namedview
     id="namedview1"
     pagecolor="#ffffff"
     bordercolor="#666666"
     borderopacity="1.0"
     inkscape:showpageshadow="2"
     inkscape:pageopacity="0.0"
     inkscape:pagecheckerboard="0"
     inkscape:deskcolor="#d1d1d1"
     inkscape:document-units="mm"
     inkscape:zoom="18.263307"
     inkscape:cx="17.986885"
     inkscape:cy="22.476762"
     inkscape:window-width="1920"
     inkscape:window-height="1017"
     inkscape:window-x="-8"
     inkscape:window-y="-8"
     inkscape:window-maximized="1"
     inkscape:current-layer="layer1" />
  <defs
     id="defs1" />
  <g
     inkscape:label="Layer 1"
     inkscape:groupmode="layer"
     id="layer1"
     transform="translate(-169.9834,-42.701636)">
    <path
       d="m 177.72611,45.715538 q 0.0827,0.0052 0.0775,0.191202 -0.0103,0.19637 0.005,0.387572 0.0155,0.186035 0.0413,0.377237 0.0517,0.459919 0.12403,0.950843 0.0723,0.485757 0.14469,0.981849 0.0672,0.490925 0.13436,0.981849 0.0672,0.490925 0.11369,0.956011 0.0207,0.180867 0.0258,0.423746 0.0103,0.242878 -0.005,0.496092 -0.0103,0.248046 -0.0568,0.480589 -0.0413,0.232543 -0.11885,0.387572 -0.0413,0.08785 -0.0982,0.113688 -0.0465,0.0052 -0.0413,-0.04134 -0.031,-0.449584 -0.0775,-0.904335 -0.0413,-0.459919 -0.10852,-0.93534 -0.0672,-0.490925 -0.13436,-0.971514 -0.0672,-0.480589 -0.12919,-0.961179 -0.0672,-0.480589 -0.13436,-0.961178 -0.062,-0.480589 -0.12402,-0.966346 0.0155,-0.118856 0.0465,-0.242879 0.031,-0.129191 0.0879,-0.263549 0.12403,-0.335896 0.16537,-0.408242 0.0465,-0.07235 0.062,-0.07235 z m 1.7725,-1.798334 q 0.0207,0.0155 0.0155,0.06201 0,0.04134 -0.0207,0.103353 -0.0207,0.06201 -0.0465,0.124023 -0.0207,0.05684 -0.0465,0.103352 -0.13952,0.217041 -0.31006,0.366902 -0.17053,0.144693 -0.36173,0.242878 -0.1912,0.09302 -0.39791,0.139526 -0.2067,0.04134 -0.41341,0.05684 -0.28939,0.01033 -0.56327,-0.06201 -0.26872,-0.07235 -0.45992,-0.19637 -0.0672,-0.04134 -0.0723,0.0052 -0.0103,0.03617 -0.0517,0.108521 -0.0413,0.07235 -0.093,0.139526 -0.0465,0.06201 -0.093,0.113687 -0.0465,0.04651 -0.0723,0.04651 -0.0413,0 -0.0362,-0.06718 0.0103,-0.07235 0.0207,-0.124023 0.0103,-0.06718 0.0465,-0.191202 0.0362,-0.124023 0.0775,-0.253214 0.0465,-0.134358 0.093,-0.248046 0.0517,-0.118856 0.0827,-0.186035 0.0362,-0.05168 0.12919,-0.0052 0.26355,0.12919 0.56327,0.206705 0.30489,0.07751 0.59944,0.06718 0.19121,-0.01033 0.37207,-0.03617 0.18087,-0.03101 0.34623,-0.09302 0.1757,-0.06201 0.33073,-0.155029 0.1602,-0.09819 0.29972,-0.23771 0.0413,-0.04651 0.062,-0.03101 z m -4.54235,5.730898 q 0.14469,0.144693 0.26355,0.315225 0.12402,0.170532 0.21704,0.356566 0.093,0.186035 0.14469,0.382405 0.0517,0.19637 0.0517,0.397907 0,0.08785 -0.0103,0.19637 -0.0103,0.10852 -0.031,0.222208 -0.0207,0.10852 -0.0568,0.211872 -0.031,0.09819 -0.0775,0.170532 -0.12402,0.186035 -0.34623,0.299723 -0.21704,0.113687 -0.48059,0.170531 -0.26355,0.05684 -0.53743,0.07752 -0.26872,0.0155 -0.49093,0.0155 h -0.093 q -0.1602,0 -0.24288,-0.124023 -0.0827,-0.12919 -0.0827,-0.284219 0,-0.155029 0.0827,-0.279052 0.0827,-0.129191 0.24288,-0.129191 h 0.093 q 0.24805,0 0.49093,-0.0052 0.24804,-0.01033 0.46508,-0.03101 0.22221,-0.02067 0.39791,-0.05684 0.1757,-0.04134 0.27905,-0.10852 0.0568,-0.03101 0.0568,-0.07751 0.005,-0.04651 -0.0207,-0.118856 -0.0517,-0.134358 -0.11886,-0.248046 -0.062,-0.113688 -0.13952,-0.21704 -0.0827,-0.10852 -0.17054,-0.206705 -0.0879,-0.09819 -0.18603,-0.19637 l 0.17053,-0.723468 q 0.0155,-0.05684 0.0517,-0.05684 0.0362,0 0.0775,0.04651 z m 0.5271,4.842066 q -0.0258,0.03101 -0.0413,0.03101 -0.0155,0.0052 -0.0569,-0.02584 l -0.61494,-0.48059 -0.40308,0.552937 q -0.0362,0.04651 -0.0775,0.0155 l -0.65629,-0.506427 q -0.0362,-0.02584 -0.0103,-0.06201 l 0.41858,-0.594277 q 0.0207,-0.03101 0.0362,-0.03101 0.0155,0 0.0362,0.02067 l 0.62011,0.470254 0.42375,-0.542601 q 0.031,-0.04134 0.062,-0.0155 l 0.65629,0.547768 q 0.0362,0.02584 0,0.07235 z m -0.062,-7.704931 q -0.25838,0.118855 -0.5426,0.248046 -0.27905,0.129191 -0.5426,0.248046 -0.26355,0.118855 -0.49093,0.222208 -0.22737,0.103352 -0.38757,0.170532 -0.0362,0.0155 -0.0517,0 -0.0155,-0.0155 0,-0.04651 l 0.25322,-0.506427 q 0.0258,-0.04134 0.0517,-0.05684 0.031,-0.02067 0.0568,-0.03617 l 1.88618,-0.837155 q 0.0827,-0.03617 0.0517,0.04134 l -0.21188,0.480589 q -0.0155,0.04651 -0.0723,0.07235 z m -4.90408,3.777535 q -0.0672,0.103352 -0.0155,0.12919 0.14469,0.08785 0.34623,0.08785 0.2067,0 0.41341,-0.05168 0.20154,-0.04651 0.37207,-0.118856 0.17053,-0.07235 0.24288,-0.134358 -0.0207,-0.103352 -0.0413,-0.180867 -0.0155,-0.07751 -0.0362,-0.160196 -0.0155,-0.07751 -0.0362,-0.165364 -0.0155,-0.09302 -0.0413,-0.217041 -0.18087,0.05684 -0.3514,0.129191 -0.17053,0.07235 -0.32039,0.170532 -0.15503,0.103352 -0.28939,0.232543 -0.12919,0.124023 -0.24288,0.279052 z M 171.742,48.25801 q 0.0207,-0.04651 0.0568,-0.03617 0.0413,0.0052 0.0465,0.03617 0.0413,0.258382 0.10852,0.625283 0.0672,0.366902 0.13953,0.738971 0.0775,0.377236 0.14986,0.702797 0.0775,0.320393 0.12919,0.490925 0.0827,0.258381 0.21187,0.423745 0.13436,0.160196 0.29456,0.253214 0.16019,0.09302 0.34623,0.12919 0.1912,0.03101 0.38757,0.03101 h 0.093 q 0.16536,0 0.24804,0.129191 0.0827,0.124023 0.0827,0.279052 0,0.149861 -0.0827,0.279051 -0.0827,0.124023 -0.24804,0.124023 h -0.093 q -0.42375,0.01034 -0.71313,-0.134358 -0.28939,-0.149861 -0.47543,-0.377237 -0.19637,-0.23771 -0.28938,-0.52193 -0.093,-0.284219 -0.19121,-0.573606 -0.19636,0.253213 -0.37723,0.397907 -0.18087,0.144693 -0.36174,0.211872 -0.18603,0.06718 -0.3979,0.08268 -0.21188,0.01034 -0.39274,-0.01034 -0.17053,-0.02067 -0.31006,-0.124023 -0.13436,-0.103352 -0.11886,-0.289387 0.0413,-0.294555 0.14987,-0.542601 0.11368,-0.253213 0.24804,-0.454751 0.21187,-0.30489 0.52193,-0.52193 0.15503,-0.113688 0.3359,-0.206705 0.18603,-0.09302 0.40307,-0.180867 -0.0103,-0.06201 -0.031,-0.165364 -0.0155,-0.10852 -0.0362,-0.201538 -0.0103,-0.04134 0.0103,-0.124023 0.0207,-0.08268 0.0465,-0.170531 0.031,-0.09302 0.062,-0.1757 0.031,-0.08268 0.0465,-0.124023 z m 0.61495,-0.661456 q -0.0258,0.03101 -0.0414,0.03617 -0.0155,0 -0.0568,-0.03101 l -0.61495,-0.48059 -0.40307,0.552936 q -0.0362,0.04651 -0.0775,0.0155 l -0.65629,-0.506427 q -0.0362,-0.02584 -0.0103,-0.06201 l 0.41858,-0.594277 q 0.0207,-0.03101 0.0362,-0.03101 0.0155,0 0.0362,0.02067 l 0.62012,0.470254 0.42374,-0.542601 q 0.031,-0.04134 0.062,-0.0155 l 0.65628,0.547769 q 0.0362,0.02584 0,0.07235 z m -1.40043,-2.475293 q -0.0258,0.06201 -0.062,0.04651 -0.031,-0.02067 -0.0568,-0.03617 -0.12402,-0.09302 -0.23771,-0.248046 -0.10852,-0.155029 -0.0982,-0.356566 0.0103,-0.160197 0.0723,-0.366902 0.0672,-0.206705 0.19121,-0.423745 0.12402,-0.222208 0.30489,-0.428913 0.18603,-0.211873 0.43924,-0.377237 0.27906,-0.186034 0.57878,-0.21704 0.30489,-0.03617 0.50126,0.04134 0.13952,0.05684 0.21704,0.170531 0.0775,0.113688 0.0982,0.253214 0.0258,0.134358 -0.005,0.28422 -0.031,0.144693 -0.10852,0.258381 -0.0207,0.03101 -0.0465,0.03101 -0.0207,-0.0052 -0.005,-0.05168 0.0155,-0.05168 0.005,-0.12919 -0.005,-0.08268 -0.0362,-0.160197 -0.0258,-0.08268 -0.0775,-0.155028 -0.0465,-0.07235 -0.11369,-0.108521 -0.11369,-0.06201 -0.27388,-0.06201 -0.1602,-0.0052 -0.3359,0.04134 -0.17053,0.04134 -0.33589,0.124023 -0.16537,0.07751 -0.28939,0.186035 -0.23771,0.206705 -0.40308,0.475421 -0.16019,0.263549 -0.13952,0.552936 0.005,0.03617 0.0362,0.08268 0.031,0.04134 0.0724,0.08785 0.0413,0.04134 0.0827,0.08268 0.0465,0.04134 0.0775,0.07235 0.0258,0.031 0.0258,0.06718 0,0.03101 -0.0103,0.06201 -0.0155,0.05168 -0.031,0.103353 -0.0155,0.05168 -0.0362,0.09818 z m 0.42374,-0.459919 q -0.0568,-0.06201 -0.062,-0.144693 -0.005,-0.08785 0.0207,-0.149862 0.0517,-0.124023 0.12403,-0.253213 0.0775,-0.129191 0.1757,-0.237711 0.0982,-0.10852 0.21704,-0.1757 0.11885,-0.07235 0.26354,-0.07235 0.1602,0 0.22738,0.134358 0.0724,0.129191 0.0879,0.30489 0.0155,0.170532 -0.005,0.341063 -0.0155,0.170532 -0.0362,0.242879 0,0.02067 0.0465,0.04134 0.0568,0.03101 0.0827,0.06201 0.0258,0.03101 0.0413,0.07235 0.0258,0.06718 0,0.170532 -0.0258,0.09818 -0.062,0.155029 -0.0258,0.04651 -0.0672,0.04651 -0.0413,0 -0.0724,-0.04651 -0.0258,-0.03101 -0.0568,-0.05684 -0.031,-0.02584 -0.0465,-0.04134 -0.16536,0.191202 -0.3359,0.341063 -0.16536,0.144694 -0.35139,0.268717 -0.18604,0.118855 -0.39274,0.21704 -0.20671,0.09819 -0.44442,0.191202 -0.031,0.0155 -0.0827,0.03101 -0.0465,0.0155 -0.10335,0.02584 -0.0517,0.0052 -0.0982,0.0052 -0.0465,0 -0.0672,-0.01034 -0.0568,-0.02584 -0.0155,-0.06201 0.0362,-0.03617 0.12919,-0.09819 0.17053,-0.09819 0.35657,-0.206705 0.18603,-0.113688 0.37206,-0.237711 0.18087,-0.118855 0.35657,-0.253214 0.1757,-0.134358 0.32556,-0.284219 -0.13952,-0.04134 -0.28422,-0.124023 -0.13952,-0.08785 -0.24288,-0.19637 z m 0.24288,-0.397907 q 0.10335,0.139526 0.25322,0.21704 0.14986,0.07751 0.26354,0.10852 h 0.0103 q 0.005,-0.01033 0.0155,-0.06718 0.0103,-0.06201 0.0103,-0.134358 0,-0.07752 -0.0155,-0.149861 -0.0155,-0.07751 -0.062,-0.124023 -0.0413,-0.03617 -0.11885,-0.03101 -0.0724,0.0052 -0.14986,0.03617 -0.0724,0.03101 -0.13436,0.07235 -0.0568,0.04134 -0.0724,0.07235 z"
       id="text5"
       style="font-size:10.5833px;line-height:1.25;font-family:'KFGQPC Uthmanic Script HAFS';-inkscape-font-specification:'KFGQPC Uthmanic Script HAFS';stroke-width:0.264583"
       aria-label="آيَةٌ" />
  </g>
</svg>
