<?xml version="1.0" encoding="UTF-8" standalone="no"?>
<!-- Created with Inkscape (http://www.inkscape.org/) -->

<svg
   width="15.979338mm"
   height="11.847501mm"
   viewBox="0 0 15.979338 11.847501"
   version="1.1"
   id="svg1"
   inkscape:export-filename="Fatihah.svg"
   inkscape:export-xdpi="96"
   inkscape:export-ydpi="96"
   sodipodi:docname="Ayat.svg"
   inkscape:version="1.3.2 (091e20e, 2023-11-25, custom)"
   xmlns:inkscape="http://www.inkscape.org/namespaces/inkscape"
   xmlns:sodipodi="http://sodipodi.sourceforge.net/DTD/sodipodi-0.dtd"
   xmlns="http://www.w3.org/2000/svg"
   xmlns:svg="http://www.w3.org/2000/svg">
  <sodipodi:namedview
     id="namedview1"
     pagecolor="#ffffff"
     bordercolor="#666666"
     borderopacity="1.0"
     inkscape:showpageshadow="2"
     inkscape:pageopacity="0.0"
     inkscape:pagecheckerboard="0"
     inkscape:deskcolor="#d1d1d1"
     inkscape:document-units="mm"
     inkscape:zoom="18.334915"
     inkscape:cx="30.188305"
     inkscape:cy="22.388978"
     inkscape:window-width="1920"
     inkscape:window-height="1017"
     inkscape:window-x="-8"
     inkscape:window-y="-8"
     inkscape:window-maximized="1"
     inkscape:current-layer="layer1" />
  <defs
     id="defs1" />
  <g
     inkscape:label="Layer 1"
     inkscape:groupmode="layer"
     id="layer1"
     transform="translate(-157.7396,-56.138056)">
    <path
       d="m 171.92991,57.940266 q 0.0827,0.0052 0.0775,0.191202 -0.0103,0.19637 0.005,0.387572 0.0155,0.186034 0.0413,0.377236 0.0517,0.459919 0.12402,0.950844 0.0724,0.485757 0.1447,0.981849 0.0672,0.490924 0.13435,0.981849 0.0672,0.490925 0.11369,0.956011 0.0207,0.180867 0.0258,0.423745 0.0103,0.242879 -0.005,0.496093 -0.0103,0.248046 -0.0568,0.480589 -0.0413,0.232543 -0.11886,0.387572 -0.0413,0.08785 -0.0982,0.113688 -0.0465,0.0052 -0.0413,-0.04134 -0.031,-0.449584 -0.0775,-0.904335 -0.0413,-0.459919 -0.10852,-0.935341 -0.0672,-0.490924 -0.13436,-0.971513 -0.0672,-0.48059 -0.12919,-0.961179 -0.0672,-0.480589 -0.13436,-0.961179 -0.062,-0.480589 -0.12402,-0.966346 0.0155,-0.118855 0.0465,-0.242878 0.031,-0.129191 0.0879,-0.263549 0.12402,-0.335896 0.16536,-0.408243 0.0465,-0.07235 0.062,-0.07235 z m 1.77249,-1.798335 q 0.0207,0.0155 0.0155,0.06201 0,0.04134 -0.0207,0.103352 -0.0207,0.06201 -0.0465,0.124024 -0.0207,0.05684 -0.0465,0.103352 -0.13953,0.21704 -0.31006,0.366902 -0.17053,0.144693 -0.36173,0.242878 -0.19121,0.09302 -0.39791,0.139526 -0.20671,0.04134 -0.41341,0.05684 -0.28939,0.01034 -0.56327,-0.06201 -0.26872,-0.07235 -0.45992,-0.19637 -0.0672,-0.04134 -0.0724,0.0052 -0.0103,0.03617 -0.0517,0.10852 -0.0413,0.07235 -0.093,0.139526 -0.0465,0.06201 -0.093,0.113688 -0.0465,0.04651 -0.0724,0.04651 -0.0413,0 -0.0362,-0.06718 0.0103,-0.07235 0.0207,-0.124023 0.0103,-0.06718 0.0465,-0.191202 0.0362,-0.124023 0.0775,-0.253213 0.0465,-0.134359 0.093,-0.248047 0.0517,-0.118855 0.0827,-0.186034 0.0362,-0.05168 0.12919,-0.0052 0.26355,0.129191 0.56327,0.206705 0.30489,0.07751 0.59945,0.06718 0.1912,-0.01034 0.37207,-0.03617 0.18087,-0.03101 0.34623,-0.09302 0.1757,-0.06201 0.33073,-0.155029 0.16019,-0.09819 0.29972,-0.237711 0.0413,-0.04651 0.062,-0.03101 z m -4.54234,5.730899 q 0.14469,0.144693 0.26355,0.315225 0.12402,0.170531 0.21704,0.356566 0.093,0.186035 0.14469,0.382404 0.0517,0.19637 0.0517,0.397908 0,0.08785 -0.0103,0.196369 -0.0103,0.108521 -0.031,0.222208 -0.0207,0.108521 -0.0568,0.211873 -0.031,0.09819 -0.0775,0.170532 -0.12403,0.186034 -0.34623,0.299722 -0.21704,0.113688 -0.48059,0.170532 -0.26355,0.05684 -0.53744,0.07751 -0.26871,0.0155 -0.49092,0.0155 h -0.093 q -0.16019,0 -0.24288,-0.124023 -0.0827,-0.129191 -0.0827,-0.284219 0,-0.155029 0.0827,-0.279052 0.0827,-0.129191 0.24288,-0.129191 h 0.093 q 0.24805,0 0.49092,-0.0052 0.24805,-0.01034 0.46509,-0.03101 0.22221,-0.02067 0.39791,-0.05684 0.1757,-0.04134 0.27905,-0.10852 0.0568,-0.03101 0.0568,-0.07751 0.005,-0.04651 -0.0207,-0.118855 -0.0517,-0.134358 -0.11885,-0.248046 -0.062,-0.113688 -0.13953,-0.217041 -0.0827,-0.10852 -0.17053,-0.206705 -0.0879,-0.09819 -0.18603,-0.196369 l 0.17053,-0.723468 q 0.0155,-0.05684 0.0517,-0.05684 0.0362,0 0.0775,0.04651 z m 0.5271,4.842066 q -0.0258,0.03101 -0.0413,0.03101 -0.0155,0.0052 -0.0568,-0.02584 l -0.61495,-0.480589 -0.40307,0.552936 q -0.0362,0.04651 -0.0775,0.0155 l -0.65628,-0.506427 q -0.0362,-0.02584 -0.0103,-0.06201 l 0.41858,-0.594277 q 0.0207,-0.03101 0.0362,-0.03101 0.0155,0 0.0362,0.02067 l 0.62012,0.470254 0.42374,-0.542601 q 0.031,-0.04134 0.062,-0.0155 l 0.65629,0.547769 q 0.0362,0.02584 0,0.07235 z m -0.062,-7.704932 q -0.25838,0.118856 -0.5426,0.248047 -0.27905,0.12919 -0.5426,0.248046 -0.26355,0.118855 -0.49092,0.222208 -0.22738,0.103352 -0.38757,0.170531 -0.0362,0.0155 -0.0517,0 -0.0155,-0.0155 0,-0.04651 l 0.25321,-0.506428 q 0.0258,-0.04134 0.0517,-0.05684 0.031,-0.02067 0.0568,-0.03617 l 1.88619,-0.837156 q 0.0827,-0.03617 0.0517,0.04134 l -0.21187,0.48059 q -0.0155,0.04651 -0.0724,0.07235 z m -1.74665,4.862737 q 0.15502,0 0.23254,0.129191 0.0775,0.12919 0.0775,0.284219 0.005,0.149861 -0.0723,0.279052 -0.0775,0.124023 -0.23771,0.124023 -0.0155,0 -0.0362,0 -0.0155,0 -0.0362,0 -0.46509,0 -0.76481,-0.170532 -0.29455,-0.170531 -0.47025,-0.454751 -0.20671,-0.341063 -0.27389,-0.733803 -0.062,-0.397907 -0.10335,-0.790647 -0.0465,-0.449583 -0.0982,-0.899167 -0.0517,-0.449583 -0.10335,-0.899167 -0.0517,-0.465086 -0.12402,-0.93534 -0.0672,-0.475422 -0.22221,-1.02319 -0.0103,-0.04134 -0.0155,-0.06201 -0.005,-0.02067 0.005,-0.05168 l 0.26871,-0.676959 q 0.0155,-0.03617 0.0413,-0.03617 0.031,0 0.0413,0.03617 0.0672,0.294555 0.12403,0.594277 0.0568,0.294555 0.10852,0.640786 0.0517,0.341063 0.0982,0.754473 0.0517,0.408243 0.10852,0.930173 0.0413,0.361734 0.0775,0.713132 0.0362,0.351399 0.0723,0.702798 0.0362,0.279052 0.0775,0.573606 0.0413,0.294555 0.1757,0.542601 0.11885,0.211873 0.34106,0.320393 0.22738,0.10852 0.63562,0.10852 0.0207,0 0.0362,0 0.0207,0 0.0362,0 z m -3.81888,-2.759513 q 0.031,-0.08785 0.12919,0.01034 0.27905,0.294554 0.46509,0.661456 0.1912,0.366901 0.22221,0.754473 0.005,0.108521 -0.005,0.273885 -0.005,0.165364 -0.0362,0.330728 -0.0258,0.160196 -0.0879,0.299722 -0.0568,0.134358 -0.15502,0.186035 -0.59428,0.330728 -1.19373,0.5426 -0.59944,0.206705 -1.2764,0.325561 -0.66662,0.124023 -1.30224,0.175699 -0.63045,0.05168 -1.30741,-0.0155 -0.3669,-0.03617 -0.69246,-0.160196 -0.3204,-0.124023 -0.56327,-0.335896 -0.23772,-0.21704 -0.37724,-0.516763 -0.13953,-0.304889 -0.13953,-0.702797 0,-0.661456 0.44442,-1.281571 0.0517,-0.05684 0.10852,-0.01034 0.0568,0.04651 0.031,0.12919 -0.1912,0.341064 -0.20153,0.707965 -0.0103,0.361734 0.14469,0.656289 0.14986,0.273884 0.37724,0.423745 0.23254,0.144694 0.50642,0.21704 0.27389,0.07235 0.57361,0.08785 0.29972,0.01033 0.58911,0.01033 0.5426,0 1.0542,-0.04651 0.51159,-0.05168 1.01285,-0.149861 0.49609,-0.103353 0.99219,-0.258382 0.49609,-0.155029 1.00768,-0.366901 0.1602,-0.06718 0.13436,-0.201538 -0.093,-0.310057 -0.28422,-0.568439 -0.1912,-0.258381 -0.42374,-0.490924 z m -2.19624,0.08785 q -0.0258,0.03101 -0.0413,0.03617 -0.0155,0 -0.0569,-0.03101 l -0.61494,-0.48059 -0.40308,0.552936 q -0.0362,0.04651 -0.0775,0.0155 l -0.65629,-0.506427 q -0.0362,-0.02584 -0.0103,-0.06201 l 0.41858,-0.594277 q 0.0207,-0.03101 0.0362,-0.03101 0.0155,0 0.0362,0.02067 l 0.62011,0.470254 0.42375,-0.542601 q 0.031,-0.04134 0.062,-0.0155 l 0.65629,0.547769 q 0.0362,0.02584 0,0.07235 z m -1.59163,5.823915 q -0.0775,0.02067 -0.0413,-0.05168 l 0.21187,-0.392739 q 0.0155,-0.02584 0.031,-0.04651 0.0155,-0.0155 0.0413,-0.02584 0.13436,-0.04651 0.3514,-0.118856 0.2222,-0.07235 0.48575,-0.155028 0.26355,-0.08268 0.54777,-0.1757 0.28939,-0.08785 0.55294,-0.175699 0.0465,-0.0155 0.0517,-0.0052 0.005,0.0155 -0.0103,0.04651 l -0.22738,0.41341 q -0.0155,0.02067 -0.031,0.03101 -0.0103,0.0155 -0.0362,0.02067 -0.48575,0.155029 -0.96634,0.315226 -0.47542,0.165364 -0.96118,0.320392 z m -0.10335,0.956011 q -0.0775,0.02067 -0.0413,-0.05168 l 0.21187,-0.39274 q 0.0155,-0.02584 0.031,-0.04651 0.0155,-0.0155 0.0413,-0.02584 0.13435,-0.05168 0.35139,-0.124023 0.22221,-0.06718 0.48576,-0.149862 0.26355,-0.08268 0.54777,-0.175699 0.28939,-0.08785 0.55294,-0.175699 0.0465,-0.0155 0.0517,-0.0052 0.005,0.0155 -0.0103,0.04651 l -0.22738,0.41341 q -0.0155,0.02067 -0.031,0.03101 -0.0103,0.0155 -0.0362,0.02067 -0.48576,0.149861 -0.96634,0.315225 -0.47543,0.165365 -0.96118,0.320393 z"
       id="text10"
       style="font-size:10.5833px;line-height:1.25;font-family:'KFGQPC Uthmanic Script HAFS';-inkscape-font-specification:'KFGQPC Uthmanic Script HAFS';stroke-width:0.264583"
       aria-label="آيَاتٍ" />
  </g>
</svg>
