<?xml version="1.0" encoding="UTF-8" standalone="no"?>
<!-- Created with Inkscape (http://www.inkscape.org/) -->

<svg
   width="8.2967682mm"
   height="14.198843mm"
   viewBox="0 0 8.2967685 14.198843"
   version="1.1"
   id="svg1"
   xmlns="http://www.w3.org/2000/svg"
   xmlns:svg="http://www.w3.org/2000/svg">
  <defs
     id="defs1" />
  <g
     id="layer1"
     transform="translate(-189.94623,-8.1394641)">
    <g
       id="g6"
       transform="translate(68.975426,-12.349386)">
      <g
         id="g44">
        <path
           style="font-size:10.5833px;line-height:1.25;font-family:'KFGQPC Uthmanic Script HAFS';-inkscape-font-specification:'KFGQPC Uthmanic Script HAFS';stroke-width:0.264583"
           d="m 121.77057,29.884659 c -0.11021,0 -0.18942,0.0069 -0.23772,0.02067 -0.0517,0.01033 -0.0775,0.04651 -0.0775,0.10852 v 0.490926 c 0,0.08956 0.0276,0.144695 0.0827,0.165365 0.0551,0.01724 0.12578,0.02584 0.21188,0.02584 h 3.35896 0.0103 3.35897 c 0.11714,0 0.19641,-0.0155 0.23771,-0.04651 0.0448,-0.03101 0.0672,-0.07579 0.0672,-0.134359 v -0.45992 c -0.004,-0.08268 -0.0327,-0.130914 -0.0879,-0.144694 -0.0517,-0.01724 -0.12404,-0.02584 -0.21704,-0.02584 h -3.34864 c -0.003,0 -0.003,5.07e-4 -0.006,5.17e-4 -0.002,-6e-6 -0.002,-5.17e-4 -0.004,-5.17e-4 z"
           id="path29" />
      </g>
    </g>
  </g>
</svg>
