<?xml version="1.0" encoding="UTF-8" standalone="no"?>
<!-- Created with Inkscape (http://www.inkscape.org/) -->

<svg
   width="16.782034mm"
   height="11.930122mm"
   viewBox="0 0 16.782034 11.930122"
   version="1.1"
   id="svg1"
   inkscape:export-filename="Fatihah.svg"
   inkscape:export-xdpi="96"
   inkscape:export-ydpi="96"
   sodipodi:docname="Maccyah.svg"
   inkscape:version="1.3.2 (091e20e, 2023-11-25, custom)"
   xmlns:inkscape="http://www.inkscape.org/namespaces/inkscape"
   xmlns:sodipodi="http://sodipodi.sourceforge.net/DTD/sodipodi-0.dtd"
   xmlns="http://www.w3.org/2000/svg"
   xmlns:svg="http://www.w3.org/2000/svg">
  <sodipodi:namedview
     id="namedview1"
     pagecolor="#ffffff"
     bordercolor="#666666"
     borderopacity="1.0"
     inkscape:showpageshadow="2"
     inkscape:pageopacity="0.0"
     inkscape:pagecheckerboard="0"
     inkscape:deskcolor="#d1d1d1"
     inkscape:document-units="mm"
     inkscape:zoom="18.207937"
     inkscape:cx="31.716938"
     inkscape:cy="22.545113"
     inkscape:window-width="1920"
     inkscape:window-height="1017"
     inkscape:window-x="-8"
     inkscape:window-y="-8"
     inkscape:window-maximized="1"
     inkscape:current-layer="layer1" />
  <defs
     id="defs1" />
  <g
     inkscape:label="Layer 1"
     inkscape:groupmode="layer"
     id="layer1"
     transform="translate(-161.32424,-23.345817)">
    <path
       d="m 177.36097,31.191449 q -0.0879,-0.12919 -0.21704,-0.242878 -0.12402,-0.113688 -0.31006,-0.103353 -0.16536,0.0155 -0.31005,0.155029 -0.1447,0.134358 -0.19637,0.28422 0.12919,0.113687 0.27905,0.191202 0.14986,0.07751 0.31005,0.124023 0.1602,0.04651 0.33073,0.06718 0.17053,0.02067 0.34107,0.02067 0.0103,-0.0155 -0.0207,-0.08268 -0.0258,-0.07235 -0.0672,-0.155028 -0.0413,-0.08268 -0.0827,-0.155029 -0.0413,-0.07752 -0.0568,-0.103353 z m -3.01789,1.105872 q 0.21704,0 0.42891,-0.01033 0.21704,-0.0155 0.40307,-0.06201 0.18604,-0.04651 0.33073,-0.134359 0.14986,-0.09302 0.23255,-0.248046 0.14986,-0.279052 0.27905,-0.558103 0.13436,-0.28422 0.28422,-0.547769 0.0568,-0.09819 0.14986,-0.21704 0.093,-0.118856 0.20154,-0.222208 0.11368,-0.103353 0.23254,-0.170532 0.12402,-0.07235 0.24288,-0.06718 0.1912,0.01034 0.37207,0.19637 0.18086,0.186034 0.31522,0.439248 0.13953,0.253214 0.21704,0.52193 0.0827,0.268717 0.0724,0.444416 -0.0103,0.10852 -0.031,0.232543 -0.0207,0.118856 -0.0672,0.232544 -0.0413,0.10852 -0.11368,0.201537 -0.0672,0.08785 -0.17054,0.134358 -0.2067,0.06718 -0.48058,0.0155 -0.27389,-0.05684 -0.48059,-0.124023 -0.20671,-0.06718 -0.40825,-0.160196 -0.20153,-0.09302 -0.37723,-0.217041 -0.20154,0.58911 -0.60462,0.862994 -0.3979,0.273884 -1.02835,0.268717 h -0.093 q -0.16536,0 -0.24288,-0.124023 -0.0827,-0.129191 -0.0827,-0.279052 0,-0.149861 0.0827,-0.279052 0.0775,-0.129191 0.24288,-0.129191 z m 2.79568,-4.997095 q -0.25838,0.118856 -0.5426,0.248046 -0.27905,0.129191 -0.5426,0.248046 -0.26355,0.118856 -0.49092,0.222208 -0.22738,0.103353 -0.38758,0.170532 -0.0362,0.0155 -0.0517,0 -0.0155,-0.0155 0,-0.04651 l 0.25321,-0.506427 q 0.0258,-0.04134 0.0517,-0.05684 0.031,-0.02067 0.0568,-0.03617 l 1.88619,-0.837156 q 0.0827,-0.03617 0.0517,0.04134 l -0.21187,0.480589 q -0.0155,0.04651 -0.0724,0.07235 z m -9.27589,4.997095 h 0.093 q 0.22738,0 0.59428,0.0052 0.3669,0 0.76997,-0.03617 0.39791,-0.03617 0.78032,-0.129191 0.3824,-0.09819 0.64078,-0.294555 -0.0724,-0.237711 -0.33073,-0.60978 -0.25321,-0.377237 -1.07486,-1.080034 l -1.35909,-1.090369 q -0.0568,-0.04651 -0.0568,-0.186035 0,-0.144693 0.0362,-0.320392 0.0362,-0.1757 0.0982,-0.351399 0.0672,-0.175699 0.13436,-0.28422 0.27389,-0.335895 0.94568,-0.744138 0.67696,-0.41341 1.21439,-0.697629 0.46509,-0.242879 1.62264,-0.80615 1.15754,-0.563271 1.63297,-0.795815 0.0207,-0.0052 0.031,0.0052 0.0103,0.01034 0,0.03617 -0.0517,0.19637 -0.12402,0.408243 -0.0724,0.211873 -0.14469,0.392739 -0.40308,0.186035 -1.33842,0.614948 -0.93017,0.428913 -1.33325,0.620115 -0.47025,0.227376 -1.05419,0.542601 -0.58395,0.310058 -0.75964,0.428913 -0.17054,0.113688 -0.3204,0.21704 -0.12402,0.09302 -0.18086,0.191203 -0.0517,0.09819 -0.0517,0.155028 0.62528,0.403075 1.21439,0.780312 0.58911,0.377237 1.17822,0.82682 0.18087,0.139526 0.40824,0.330728 0.22738,0.191203 0.47542,0.403075 0.24805,0.206705 0.50126,0.41341 0.25839,0.206706 0.48059,0.377237 0.24288,0.180867 0.42375,0.310058 0.18603,0.129191 0.37207,0.211873 0.1912,0.08268 0.41341,0.118855 0.22737,0.03617 0.5426,0.03617 h 0.093 q 0.16536,0 0.24287,0.129191 0.0827,0.129191 0.0827,0.279052 0,0.149861 -0.0827,0.279052 -0.0775,0.124023 -0.24287,0.124023 h -0.093 q -0.29456,0 -0.5426,-0.04134 -0.24805,-0.04134 -0.47542,-0.124023 -0.22738,-0.08268 -0.44442,-0.211873 -0.21704,-0.129191 -0.44442,-0.30489 -0.24804,-0.186035 -0.48575,-0.397907 -0.23255,-0.217041 -0.44959,-0.418578 -0.21704,-0.206705 -0.41341,-0.387572 -0.1912,-0.186035 -0.35656,-0.315225 0.10335,0.113688 0.18086,0.32556 0.0775,0.211873 0.093,0.454751 0.0207,0.237711 -0.0465,0.470254 -0.062,0.232544 -0.24804,0.397908 -0.23771,0.206705 -0.62529,0.320393 -0.3824,0.113687 -0.78547,0.165364 -0.40825,0.05168 -0.77515,0.06201 -0.36173,0.0052 -0.56327,0.0052 h -0.093 q -0.16536,0 -0.24804,-0.124023 -0.0827,-0.129191 -0.0827,-0.279052 0,-0.149861 0.0827,-0.279052 0.0827,-0.129191 0.24804,-0.129191 z m 2.14457,-6.862608 q -0.11369,0.227376 -0.25838,0.341064 -0.15503,0.118855 -0.36691,0.124023 -0.17053,0.0052 -0.29972,-0.08785 -0.12402,-0.09302 -0.14469,-0.325561 -0.0103,-0.103352 0.0103,-0.211872 0.0207,-0.113688 0.062,-0.211873 0.0413,-0.09302 0.093,-0.160196 0.0568,-0.07235 0.11886,-0.09302 0.062,-0.0052 0.0103,0.09302 -0.031,0.05684 -0.0517,0.134358 -0.0155,0.07751 -0.0207,0.155029 0,0.07235 0.0155,0.124023 0.0155,0.05168 0.0672,0.09819 0.0775,0.05684 0.16536,0.05684 0.0878,-0.0052 0.17053,-0.04134 0.0879,-0.03617 0.15503,-0.08268 0.0724,-0.05168 0.1447,-0.134359 0.0672,-0.07751 0.0982,-0.19637 0.031,-0.118855 0.0413,-0.196369 0.005,-0.06718 0.0362,-0.134359 0.031,-0.06718 0.10335,-0.06718 0.0155,0 0.0207,0.03101 0.0103,0.02584 0.0155,0.06201 0.005,0.03617 0.005,0.07235 0,0.03101 0,0.04651 0,0.149861 0.0465,0.237711 0.0465,0.08268 0.18603,0.113687 0.0724,0.0155 0.18604,-0.0155 0.11885,-0.03101 0.2067,-0.103353 0.0103,-0.01033 0.005,-0.05684 -0.005,-0.04651 -0.0207,-0.09819 -0.0103,-0.05168 -0.0362,-0.10852 -0.0207,-0.06201 -0.0258,-0.07235 l 0.1912,-0.361734 q 0.0517,0.02584 0.0775,0.113688 0.031,0.08785 0.0362,0.201538 0.0103,0.10852 0,0.222208 -0.0103,0.113687 -0.0258,0.191202 -0.062,0.191202 -0.17053,0.346231 -0.10335,0.155029 -0.32039,0.19637 -0.19121,0.03617 -0.3204,-0.02584 -0.12919,-0.06201 -0.2067,-0.175699 z m 0.83715,9.16737 q -0.50642,0.160196 -0.99735,0.32556 -0.49092,0.165364 -0.94051,0.310058 -0.0827,0.02584 -0.0413,-0.05168 l 0.21188,-0.39274 q 0.0155,-0.03101 0.0258,-0.04651 0.0155,-0.0155 0.0465,-0.02584 0.13953,-0.05168 0.3669,-0.12919 0.22738,-0.07235 0.49093,-0.160197 0.26871,-0.08268 0.54777,-0.170531 0.27905,-0.08785 0.53226,-0.165365 0.0413,-0.0155 0.0517,-0.01033 0.0103,0.01033 -0.0103,0.05168 l -0.22221,0.403075 q -0.0155,0.02067 -0.031,0.03617 -0.0103,0.02067 -0.031,0.02584 z m -3.73619,0.568439 q -0.0258,0.03101 -0.0413,0.03101 -0.0155,0.0052 -0.0568,-0.02584 l -0.61494,-0.480589 -0.40308,0.552936 q -0.0362,0.04651 -0.0775,0.0155 l -0.65629,-0.506427 q -0.0362,-0.02584 -0.0103,-0.06201 l 0.41858,-0.594277 q 0.0207,-0.03101 0.0362,-0.03101 0.0155,0 0.0362,0.02067 l 0.62011,0.470254 0.42375,-0.542601 q 0.031,-0.04134 0.062,-0.0155 l 0.65629,0.547769 q 0.0362,0.02584 0,0.07235 z m -2.16007,-2.061883 h -0.093 q -0.15502,0 -0.23254,-0.124023 -0.0775,-0.129191 -0.0775,-0.28422 0,-0.07751 0.0207,-0.149861 0.0155,-0.07235 0.0568,-0.129191 0.0362,-0.05684 0.0982,-0.09302 0.0568,-0.03617 0.13435,-0.03617 h 0.093 q 0.1602,0 0.35657,-0.01034 0.20154,-0.01033 0.37723,-0.05684 0.17054,-0.04651 0.3359,-0.139526 0.16536,-0.09818 0.30489,-0.268717 0.10335,-0.124023 0.16536,-0.253214 0.0672,-0.12919 0.12919,-0.294554 0.0258,-0.06718 0.0827,-0.07235 0.062,-0.0052 0.0672,0.02584 0.005,0.06201 -0.0103,0.149861 -0.0103,0.08785 -0.0103,0.160197 0,0.134358 0.0672,0.268716 0.0672,0.134358 0.20671,0.242879 0.13953,0.10852 0.3824,0.180867 0.24805,0.06718 0.55811,0.06718 h 0.0982 q 0.0775,0 0.13436,0.03617 0.0568,0.03617 0.093,0.09302 0.0413,0.05684 0.0568,0.129191 0.0207,0.07235 0.0207,0.149861 0,0.155029 -0.0775,0.28422 -0.0724,0.124023 -0.22738,0.124023 h -0.0982 q -0.27905,0 -0.53227,-0.05168 -0.24804,-0.05684 -0.42374,-0.165364 -0.34107,-0.206705 -0.53227,-0.60978 -0.11369,0.232544 -0.26872,0.387572 -0.15502,0.155029 -0.34106,0.253214 -0.1912,0.09819 -0.43408,0.144694 -0.24288,0.04134 -0.48059,0.04134 z m 1.29708,-4.960922 q -0.11369,0.227376 -0.25839,0.341064 -0.15502,0.118855 -0.3669,0.124023 -0.17053,0.0052 -0.29972,-0.08785 -0.12402,-0.09302 -0.14469,-0.32556 -0.0103,-0.103353 0.0103,-0.211873 0.0207,-0.113688 0.062,-0.211873 0.0413,-0.09302 0.093,-0.160196 0.0568,-0.07235 0.11886,-0.09302 0.062,-0.0052 0.0103,0.09302 -0.031,0.05684 -0.0517,0.134358 -0.0155,0.07751 -0.0207,0.155029 0,0.07235 0.0155,0.124023 0.0155,0.05168 0.0672,0.09819 0.0775,0.05684 0.16536,0.05684 0.0879,-0.0052 0.17053,-0.04134 0.0879,-0.03617 0.15503,-0.08268 0.0724,-0.05168 0.1447,-0.134359 0.0672,-0.07751 0.0982,-0.196369 0.031,-0.118856 0.0413,-0.19637 0.005,-0.06718 0.0362,-0.134359 0.031,-0.06718 0.10336,-0.06718 0.0155,0 0.0207,0.03101 0.0103,0.02584 0.0155,0.06201 0.005,0.03617 0.005,0.07235 0,0.03101 0,0.04651 0,0.149861 0.0465,0.237711 0.0465,0.08268 0.18603,0.113688 0.0724,0.0155 0.18604,-0.0155 0.11885,-0.03101 0.2067,-0.103353 0.0103,-0.01034 0.005,-0.05684 -0.005,-0.04651 -0.0207,-0.09818 -0.0103,-0.05168 -0.0362,-0.10852 -0.0207,-0.06201 -0.0258,-0.07235 l 0.1912,-0.361733 q 0.0517,0.02584 0.0775,0.113687 0.031,0.08785 0.0362,0.201538 0.0103,0.10852 0,0.222208 -0.0103,0.113688 -0.0258,0.191202 -0.062,0.191202 -0.17053,0.346231 -0.10336,0.155029 -0.3204,0.19637 -0.1912,0.03617 -0.32039,-0.02584 -0.12919,-0.06201 -0.2067,-0.1757 z m 0.93017,-2.077386 q -0.25838,0.118856 -0.5426,0.248046 -0.27905,0.129191 -0.5426,0.248046 -0.26355,0.118856 -0.49093,0.222208 -0.22737,0.103353 -0.38757,0.170532 -0.0362,0.0155 -0.0517,0 -0.0155,-0.0155 0,-0.04651 l 0.25322,-0.506427 q 0.0258,-0.04134 0.0517,-0.05684 0.031,-0.02067 0.0568,-0.03617 l 1.88618,-0.837156 q 0.0827,-0.03617 0.0517,0.04134 l -0.21187,0.48059 q -0.0155,0.04651 -0.0724,0.07235 z m -5.31749,5.136621 q -0.0672,0.103353 -0.0155,0.129191 0.14469,0.08785 0.34623,0.08785 0.2067,0 0.41341,-0.05168 0.20154,-0.04651 0.37207,-0.118855 0.17053,-0.07235 0.24288,-0.134359 -0.0207,-0.103352 -0.0413,-0.180866 -0.0155,-0.07751 -0.0362,-0.160197 -0.0155,-0.07751 -0.0362,-0.165364 -0.0155,-0.09302 -0.0413,-0.21704 -0.18087,0.05684 -0.3514,0.12919 -0.17053,0.07235 -0.32039,0.170532 -0.15503,0.103353 -0.28939,0.232543 -0.12919,0.124023 -0.24288,0.279052 z m 1.22473,-2.304761 q 0.0207,-0.04651 0.0568,-0.03617 0.0413,0.0052 0.0465,0.03617 0.0413,0.258381 0.10852,0.625282 0.0672,0.366902 0.13953,0.738971 0.0775,0.377237 0.14986,0.702797 0.0775,0.320393 0.12919,0.490925 0.0827,0.258381 0.21187,0.423745 0.13436,0.160197 0.29456,0.253214 0.16019,0.09302 0.34623,0.129191 0.1912,0.031 0.38757,0.031 h 0.093 q 0.16536,0 0.24804,0.129191 0.0827,0.124023 0.0827,0.279052 0,0.149861 -0.0827,0.279052 -0.0827,0.124023 -0.24804,0.124023 h -0.093 q -0.42375,0.01034 -0.71313,-0.134359 -0.28939,-0.149861 -0.47543,-0.377236 -0.19636,-0.237711 -0.28938,-0.521931 -0.093,-0.284219 -0.1912,-0.573606 -0.19637,0.253214 -0.37724,0.397907 -0.18087,0.144694 -0.36174,0.211873 -0.18603,0.06718 -0.3979,0.08268 -0.21188,0.01033 -0.39274,-0.01034 -0.17053,-0.02067 -0.31006,-0.124023 -0.13436,-0.103353 -0.11886,-0.289388 0.0413,-0.294554 0.14987,-0.5426 0.11368,-0.253214 0.24804,-0.454752 0.21187,-0.30489 0.52193,-0.52193 0.15503,-0.113688 0.3359,-0.206705 0.18603,-0.09302 0.40307,-0.180867 -0.0103,-0.06201 -0.031,-0.165364 -0.0155,-0.10852 -0.0362,-0.201537 -0.0103,-0.04134 0.0103,-0.124023 0.0207,-0.08268 0.0465,-0.170532 0.031,-0.09302 0.062,-0.175699 0.031,-0.08268 0.0465,-0.124023 z m 0.61495,-0.661457 q -0.0258,0.03101 -0.0413,0.03617 -0.0155,0 -0.0568,-0.03101 l -0.61495,-0.480589 -0.40307,0.552936 q -0.0362,0.04651 -0.0775,0.0155 l -0.65628,-0.506428 q -0.0362,-0.02584 -0.0103,-0.06201 l 0.41858,-0.594277 q 0.0207,-0.03101 0.0362,-0.03101 0.0155,0 0.0362,0.02067 l 0.62012,0.470254 0.42375,-0.5426 q 0.031,-0.04134 0.062,-0.0155 l 0.65629,0.547768 q 0.0362,0.02584 0,0.07235 z m -1.40043,-2.475293 q -0.0258,0.06201 -0.062,0.04651 -0.031,-0.02067 -0.0568,-0.03617 -0.12402,-0.09302 -0.23771,-0.248046 -0.10852,-0.155028 -0.0982,-0.356566 0.0103,-0.160196 0.0723,-0.366901 0.0672,-0.206706 0.19121,-0.423746 0.12402,-0.222208 0.30489,-0.428913 0.18603,-0.211873 0.43925,-0.377237 0.27905,-0.186034 0.57877,-0.21704 0.30489,-0.03617 0.50126,0.04134 0.13952,0.05684 0.21704,0.170532 0.0775,0.113688 0.0982,0.253213 0.0258,0.134359 -0.005,0.28422 -0.031,0.144694 -0.10852,0.258381 -0.0207,0.03101 -0.0465,0.03101 -0.0207,-0.0052 -0.005,-0.05168 0.0155,-0.05168 0.005,-0.129191 -0.005,-0.08268 -0.0362,-0.160196 -0.0258,-0.08268 -0.0775,-0.155029 -0.0465,-0.07235 -0.11369,-0.10852 -0.11369,-0.06201 -0.27388,-0.06201 -0.1602,-0.0052 -0.3359,0.04134 -0.17053,0.04134 -0.33589,0.124023 -0.16537,0.07751 -0.28939,0.186035 -0.23771,0.206705 -0.40308,0.475421 -0.16019,0.263549 -0.13952,0.552937 0.005,0.03617 0.0362,0.08268 0.031,0.04134 0.0724,0.08785 0.0413,0.04134 0.0827,0.08268 0.0465,0.04134 0.0775,0.07235 0.0258,0.03101 0.0258,0.06718 0,0.03101 -0.0103,0.06201 -0.0155,0.05168 -0.031,0.103352 -0.0155,0.05168 -0.0362,0.09819 z m 0.42374,-0.459919 q -0.0568,-0.06201 -0.062,-0.144693 -0.005,-0.08785 0.0207,-0.149861 0.0517,-0.124023 0.12403,-0.253214 0.0775,-0.129191 0.1757,-0.237711 0.0982,-0.10852 0.21704,-0.175699 0.11885,-0.07235 0.26355,-0.07235 0.16019,0 0.22737,0.134358 0.0724,0.129191 0.0879,0.30489 0.0155,0.170532 -0.005,0.341064 -0.0155,0.170531 -0.0362,0.242878 0,0.02067 0.0465,0.04134 0.0568,0.03101 0.0827,0.06201 0.0258,0.03101 0.0413,0.07235 0.0258,0.06718 0,0.170532 -0.0258,0.09818 -0.062,0.155029 -0.0258,0.04651 -0.0672,0.04651 -0.0413,0 -0.0724,-0.04651 -0.0258,-0.03101 -0.0568,-0.05684 -0.031,-0.02584 -0.0465,-0.04134 -0.16536,0.191202 -0.33589,0.341063 -0.16537,0.144694 -0.3514,0.268717 -0.18604,0.118855 -0.39274,0.21704 -0.20671,0.09818 -0.44442,0.191202 -0.031,0.0155 -0.0827,0.03101 -0.0465,0.0155 -0.10335,0.02584 -0.0517,0.0052 -0.0982,0.0052 -0.0465,0 -0.0672,-0.01034 -0.0568,-0.02584 -0.0155,-0.06201 0.0362,-0.03617 0.12919,-0.09819 0.17053,-0.09819 0.35657,-0.206705 0.18603,-0.113688 0.37207,-0.237711 0.18086,-0.118855 0.35656,-0.253213 0.1757,-0.134359 0.32556,-0.28422 -0.13952,-0.04134 -0.28422,-0.124023 -0.13952,-0.08785 -0.24288,-0.19637 z m 0.24288,-0.397907 q 0.10336,0.139526 0.25322,0.21704 0.14986,0.07751 0.26355,0.108521 h 0.0103 q 0.005,-0.01034 0.0155,-0.06718 0.0103,-0.06201 0.0103,-0.134358 0,-0.07751 -0.0155,-0.149861 -0.0155,-0.07751 -0.062,-0.124023 -0.0413,-0.03617 -0.11885,-0.03101 -0.0724,0.0052 -0.14986,0.03617 -0.0724,0.03101 -0.13436,0.07235 -0.0568,0.04134 -0.0724,0.07235 z"
       id="text3"
       style="font-size:10.5833px;line-height:1.25;font-family:'KFGQPC Uthmanic Script HAFS';-inkscape-font-specification:'KFGQPC Uthmanic Script HAFS';stroke-width:0.264583"
       aria-label="مَكِّيَّةٌ" />
  </g>
</svg>
