<?xml version="1.0" encoding="UTF-8" standalone="no"?>
<!-- Created with Inkscape (http://www.inkscape.org/) -->

<svg
   width="18.580366mm"
   height="11.930124mm"
   viewBox="0 0 18.580366 11.930124"
   version="1.1"
   id="svg1"
   inkscape:export-filename="Fatihah.svg"
   inkscape:export-xdpi="96"
   inkscape:export-ydpi="96"
   sodipodi:docname="Madaniyah.svg"
   inkscape:version="1.3.2 (091e20e, 2023-11-25, custom)"
   xmlns:inkscape="http://www.inkscape.org/namespaces/inkscape"
   xmlns:sodipodi="http://sodipodi.sourceforge.net/DTD/sodipodi-0.dtd"
   xmlns="http://www.w3.org/2000/svg"
   xmlns:svg="http://www.w3.org/2000/svg">
  <sodipodi:namedview
     id="namedview1"
     pagecolor="#ffffff"
     bordercolor="#666666"
     borderopacity="1.0"
     inkscape:showpageshadow="2"
     inkscape:pageopacity="0.0"
     inkscape:pagecheckerboard="0"
     inkscape:deskcolor="#d1d1d1"
     inkscape:document-units="mm"
     inkscape:zoom="16"
     inkscape:cx="32.96875"
     inkscape:cy="28.59375"
     inkscape:window-width="1920"
     inkscape:window-height="1017"
     inkscape:window-x="-8"
     inkscape:window-y="-8"
     inkscape:window-maximized="1"
     inkscape:current-layer="layer1" />
  <defs
     id="defs1" />
  <g
     inkscape:label="Layer 1"
     inkscape:groupmode="layer"
     id="layer1"
     transform="translate(-118.0283,-10.866407)">
    <path
       d="m 135.86338,18.712039 q -0.0879,-0.129191 -0.21704,-0.242878 -0.12402,-0.113688 -0.31005,-0.103353 -0.16537,0.0155 -0.31006,0.155029 -0.1447,0.134358 -0.19637,0.284219 0.12919,0.113688 0.27905,0.191203 0.14986,0.07751 0.31006,0.124023 0.16019,0.04651 0.33073,0.06718 0.17053,0.02067 0.34106,0.02067 0.0103,-0.0155 -0.0207,-0.08268 -0.0258,-0.07235 -0.0672,-0.155029 -0.0413,-0.08268 -0.0827,-0.155028 -0.0413,-0.07751 -0.0568,-0.103353 z m -3.01789,1.105872 q 0.21704,0 0.42891,-0.01033 0.21704,-0.0155 0.40308,-0.06201 0.18603,-0.04651 0.33073,-0.134358 0.14986,-0.09302 0.23254,-0.248046 0.14986,-0.279052 0.27905,-0.558104 0.13436,-0.284219 0.28422,-0.547768 0.0568,-0.09818 0.14986,-0.21704 0.093,-0.118856 0.20154,-0.222208 0.11369,-0.103353 0.23254,-0.170532 0.12402,-0.07235 0.24288,-0.06718 0.1912,0.01034 0.37207,0.19637 0.18087,0.186034 0.31522,0.439248 0.13953,0.253214 0.21705,0.52193 0.0827,0.268717 0.0723,0.444416 -0.0103,0.10852 -0.031,0.232543 -0.0207,0.118856 -0.0672,0.232544 -0.0413,0.10852 -0.11369,0.201537 -0.0672,0.08785 -0.17053,0.134358 -0.20671,0.06718 -0.48059,0.0155 -0.27389,-0.05684 -0.48059,-0.124023 -0.20671,-0.06718 -0.40824,-0.160196 -0.20154,-0.09302 -0.37724,-0.217041 -0.20154,0.58911 -0.60461,0.862994 -0.39791,0.273884 -1.02836,0.268717 h -0.093 q -0.16536,0 -0.24288,-0.124023 -0.0827,-0.129191 -0.0827,-0.279052 0,-0.149861 0.0827,-0.279052 0.0775,-0.129191 0.24288,-0.129191 z m 2.79569,-4.997095 q -0.25839,0.118855 -0.54261,0.248046 -0.27905,0.129191 -0.5426,0.248046 -0.26355,0.118856 -0.49092,0.222208 -0.22738,0.103353 -0.38757,0.170532 -0.0362,0.0155 -0.0517,0 -0.0155,-0.0155 0,-0.04651 l 0.25321,-0.506427 q 0.0258,-0.04134 0.0517,-0.05684 0.031,-0.02067 0.0568,-0.03617 l 1.88619,-0.837156 q 0.0827,-0.03617 0.0517,0.04134 l -0.21187,0.480589 q -0.0155,0.04651 -0.0723,0.07235 z m -5.11596,2.43912 0.14987,-0.604612 q 0.0155,-0.06201 0.062,-0.06201 0.0465,0 0.062,0.05684 l 0.5271,1.865513 q 0.10335,0.366902 0.25838,0.640786 0.16019,0.273884 0.43408,0.459919 0.1602,0.10852 0.3669,0.155029 0.20671,0.04651 0.45992,0.04651 h 0.093 q 0.16536,0 0.24804,0.129191 0.0827,0.129191 0.0827,0.279052 0,0.149861 -0.0827,0.279052 -0.0827,0.124023 -0.24804,0.124023 h -0.093 q -0.28422,0 -0.53227,-0.05168 -0.24287,-0.05684 -0.45475,-0.201537 -0.2067,-0.139526 -0.38757,-0.387572 -0.1757,-0.253214 -0.33073,-0.645953 -0.13436,0.403074 -0.43925,0.666623 -0.24804,0.211873 -0.58394,0.320393 -0.33589,0.103353 -0.65629,0.144694 -0.31522,0.04651 -0.59944,0.02067 -0.27905,-0.03101 -0.42891,-0.170531 -0.0775,-0.07235 -0.11369,-0.19637 -0.031,-0.124023 -0.031,-0.258382 0,-0.139525 0.0207,-0.268716 0.0258,-0.134358 0.0672,-0.227376 0.0155,-0.031 0.0413,-0.031 0.031,0 0.0465,0.031 0.093,0.170532 0.21187,0.232543 0.11886,0.05684 0.28422,0.07235 0.24288,0.02584 0.55811,-0.01033 0.31522,-0.03617 0.61495,-0.129191 0.29972,-0.08785 0.53743,-0.227375 0.24288,-0.144694 0.33073,-0.330728 z m 0.60462,-2.43912 q -0.25838,0.118855 -0.5426,0.248046 -0.27906,0.129191 -0.5426,0.248046 -0.26355,0.118856 -0.49093,0.222208 -0.22737,0.103353 -0.38757,0.170532 -0.0362,0.0155 -0.0517,0 -0.0155,-0.0155 0,-0.04651 l 0.25322,-0.506427 q 0.0258,-0.04134 0.0517,-0.05684 0.031,-0.02067 0.0568,-0.03617 l 1.88618,-0.837156 q 0.0827,-0.03617 0.0517,0.04134 l -0.21188,0.480589 q -0.0155,0.04651 -0.0723,0.07235 z m -4.56302,2.950715 q 0.0258,-0.08785 0.12403,0.01034 0.13952,0.144694 0.26354,0.315225 0.12403,0.170532 0.21188,0.356567 0.093,0.186034 0.14469,0.382404 0.0569,0.19637 0.062,0.39274 0,0.08785 -0.0155,0.201537 -0.0103,0.10852 -0.0362,0.222208 -0.0207,0.10852 -0.0568,0.211873 -0.031,0.09819 -0.0775,0.165364 -0.0879,0.124023 -0.26872,0.21704 -0.18087,0.09302 -0.41341,0.160197 -0.22737,0.06718 -0.49092,0.10852 -0.26355,0.04134 -0.51677,0.06718 -0.24804,0.02584 -0.47025,0.03617 -0.21704,0.01034 -0.36173,0.01034 h -0.093 q -0.16537,0 -0.24288,-0.124023 -0.0827,-0.129191 -0.0827,-0.279052 0,-0.155029 0.0827,-0.279052 0.0775,-0.129191 0.24288,-0.129191 h 0.093 q 0.0827,0 0.25838,0 0.1757,-0.0052 0.3979,-0.0155 0.22738,-0.01034 0.47543,-0.02584 0.25321,-0.0155 0.48059,-0.04134 0.23254,-0.02584 0.41341,-0.06201 0.18603,-0.04134 0.27905,-0.09302 0.0879,-0.04651 0.062,-0.134358 -0.0879,-0.284219 -0.26355,-0.50126 -0.17053,-0.222208 -0.38757,-0.439248 0.0413,-0.180867 0.0878,-0.366902 0.0517,-0.186034 0.0982,-0.366901 z m -0.48059,-2.335767 0.63562,0.527098 q 0.0413,0.03617 0.005,0.08268 l -0.42375,0.532265 q -0.0362,0.05168 -0.0827,0.01034 l -0.64078,-0.527097 q -0.0413,-0.03617 0,-0.08785 l 0.42891,-0.527098 q 0.0362,-0.04651 0.0775,-0.01033 z m 0.94568,6.686909 q -0.50643,0.160196 -0.99735,0.32556 -0.49093,0.165364 -0.94051,0.310058 -0.0827,0.02584 -0.0413,-0.05168 l 0.21187,-0.39274 q 0.0155,-0.03101 0.0258,-0.04651 0.0155,-0.0155 0.0465,-0.02584 0.13952,-0.05168 0.3669,-0.129191 0.22737,-0.07235 0.49092,-0.160196 0.26872,-0.08268 0.54777,-0.170532 0.27905,-0.08785 0.53227,-0.165364 0.0413,-0.0155 0.0517,-0.01033 0.0103,0.01033 -0.0103,0.05168 l -0.22221,0.403075 q -0.0155,0.02067 -0.031,0.03617 -0.0103,0.02067 -0.031,0.02584 z m -3.21943,0.568439 q -0.0258,0.03101 -0.0413,0.03101 -0.0155,0.0052 -0.0568,-0.02584 l -0.61494,-0.480589 -0.40308,0.552936 q -0.0362,0.04651 -0.0775,0.0155 l -0.65629,-0.506427 q -0.0362,-0.02584 -0.0103,-0.06201 l 0.41858,-0.594277 q 0.0207,-0.03101 0.0362,-0.03101 0.0155,0 0.0362,0.02067 l 0.62011,0.470254 0.42375,-0.542601 q 0.031,-0.04134 0.062,-0.0155 l 0.65629,0.547768 q 0.0362,0.02584 0,0.07235 z m -2.16007,-2.061883 h -0.093 q -0.15503,0 -0.23254,-0.124023 -0.0775,-0.129191 -0.0775,-0.28422 0,-0.07751 0.0207,-0.149861 0.0155,-0.07235 0.0568,-0.129191 0.0362,-0.05684 0.0982,-0.09302 0.0568,-0.03617 0.13436,-0.03617 h 0.093 q 0.1602,0 0.35657,-0.01034 0.20153,-0.01034 0.37723,-0.05684 0.17053,-0.04651 0.3359,-0.139526 0.16536,-0.09818 0.30489,-0.268716 0.10335,-0.124023 0.16536,-0.253214 0.0672,-0.12919 0.12919,-0.294555 0.0258,-0.06718 0.0827,-0.07235 0.062,-0.0052 0.0672,0.02584 0.005,0.06201 -0.0103,0.149861 -0.0103,0.08785 -0.0103,0.160196 0,0.134359 0.0672,0.268717 0.0672,0.134358 0.20671,0.242878 0.13952,0.108521 0.3824,0.180867 0.24805,0.06718 0.55811,0.06718 h 0.0982 q 0.0775,0 0.13436,0.03617 0.0568,0.03617 0.093,0.09302 0.0413,0.05684 0.0568,0.129191 0.0207,0.07235 0.0207,0.149861 0,0.155029 -0.0775,0.28422 -0.0724,0.124023 -0.22738,0.124023 h -0.0982 q -0.27906,0 -0.53227,-0.05168 -0.24805,-0.05684 -0.42374,-0.165364 -0.34107,-0.206705 -0.53227,-0.60978 -0.11369,0.232544 -0.26872,0.387572 -0.15503,0.155029 -0.34106,0.253214 -0.1912,0.09819 -0.43408,0.144694 -0.24288,0.04134 -0.48059,0.04134 z m 1.29707,-4.960922 q -0.11368,0.227376 -0.25838,0.341063 -0.15503,0.118856 -0.3669,0.124024 -0.17053,0.0052 -0.29972,-0.08785 -0.12402,-0.09302 -0.14469,-0.325561 -0.0103,-0.103352 0.0103,-0.211872 0.0207,-0.113688 0.062,-0.211873 0.0413,-0.09302 0.093,-0.160196 0.0568,-0.07235 0.11885,-0.09302 0.062,-0.0052 0.0103,0.09302 -0.031,0.05684 -0.0517,0.134358 -0.0155,0.07751 -0.0207,0.155029 0,0.07235 0.0155,0.124023 0.0155,0.05168 0.0672,0.09818 0.0775,0.05684 0.16536,0.05684 0.0878,-0.0052 0.17053,-0.04134 0.0878,-0.03617 0.15503,-0.08268 0.0724,-0.05168 0.14469,-0.134358 0.0672,-0.07751 0.0982,-0.19637 0.031,-0.118855 0.0413,-0.196369 0.005,-0.06718 0.0362,-0.134359 0.031,-0.06718 0.10336,-0.06718 0.0155,0 0.0207,0.03101 0.0103,0.02584 0.0155,0.06201 0.005,0.03617 0.005,0.07235 0,0.03101 0,0.04651 0,0.149861 0.0465,0.237711 0.0465,0.08268 0.18604,0.113687 0.0724,0.0155 0.18603,-0.0155 0.11886,-0.03101 0.20671,-0.103353 0.0103,-0.01034 0.005,-0.05684 -0.005,-0.04651 -0.0207,-0.09819 -0.0103,-0.05168 -0.0362,-0.10852 -0.0207,-0.06201 -0.0258,-0.07235 l 0.19121,-0.361734 q 0.0517,0.02584 0.0775,0.113688 0.031,0.08785 0.0362,0.201538 0.0103,0.10852 0,0.222208 -0.0103,0.113687 -0.0258,0.191202 -0.062,0.191202 -0.17054,0.346231 -0.10335,0.155029 -0.32039,0.19637 -0.1912,0.03617 -0.32039,-0.02584 -0.12919,-0.06201 -0.20671,-0.175699 z m 0.93018,-2.077386 q -0.25838,0.118856 -0.5426,0.248046 -0.27906,0.129191 -0.5426,0.248046 -0.26355,0.118856 -0.49093,0.222208 -0.22738,0.103353 -0.38757,0.170532 -0.0362,0.0155 -0.0517,0 -0.0155,-0.0155 0,-0.04651 l 0.25322,-0.506427 q 0.0258,-0.04134 0.0517,-0.05684 0.031,-0.02067 0.0569,-0.03617 l 1.88618,-0.837156 q 0.0827,-0.03617 0.0517,0.04134 l -0.21188,0.480589 q -0.0155,0.04651 -0.0723,0.07235 z m -5.31749,5.136621 q -0.0672,0.103352 -0.0155,0.129191 0.14469,0.08785 0.34623,0.08785 0.2067,0 0.41341,-0.05168 0.20153,-0.04651 0.37207,-0.118855 0.17053,-0.07235 0.24287,-0.134359 -0.0207,-0.103352 -0.0413,-0.180867 -0.0155,-0.07751 -0.0362,-0.160196 -0.0155,-0.07751 -0.0362,-0.165364 -0.0155,-0.09302 -0.0413,-0.21704 -0.18087,0.05684 -0.3514,0.12919 -0.17053,0.07235 -0.3204,0.170532 -0.15502,0.103352 -0.28938,0.232543 -0.12919,0.124023 -0.24288,0.279052 z m 1.22473,-2.304762 q 0.0207,-0.04651 0.0568,-0.03617 0.0413,0.0052 0.0465,0.03617 0.0413,0.258382 0.10852,0.625283 0.0672,0.366902 0.13953,0.738971 0.0775,0.377237 0.14986,0.702797 0.0775,0.320393 0.12919,0.490925 0.0827,0.258381 0.21187,0.423745 0.13436,0.160196 0.29455,0.253214 0.1602,0.09302 0.34624,0.12919 0.1912,0.03101 0.38757,0.03101 h 0.093 q 0.16537,0 0.24805,0.129191 0.0827,0.124023 0.0827,0.279052 0,0.149861 -0.0827,0.279052 -0.0827,0.124023 -0.24805,0.124023 h -0.093 q -0.42375,0.01034 -0.71314,-0.134359 -0.28938,-0.149861 -0.47542,-0.377236 -0.19637,-0.237711 -0.28938,-0.521931 -0.093,-0.284219 -0.19121,-0.573606 -0.19637,0.253213 -0.37723,0.397907 -0.18087,0.144693 -0.36174,0.211873 -0.18603,0.06718 -0.3979,0.08268 -0.21188,0.01033 -0.39274,-0.01034 -0.17054,-0.02067 -0.31006,-0.124023 -0.13436,-0.103352 -0.11886,-0.289387 0.0413,-0.294554 0.14986,-0.542601 0.11369,-0.253213 0.24805,-0.454751 0.21187,-0.30489 0.52193,-0.52193 0.15503,-0.113688 0.3359,-0.206705 0.18603,-0.09302 0.40307,-0.180867 -0.0103,-0.06201 -0.031,-0.165364 -0.0155,-0.10852 -0.0362,-0.201538 -0.0103,-0.04134 0.0103,-0.124023 0.0207,-0.08268 0.0465,-0.170531 0.031,-0.09302 0.062,-0.1757 0.031,-0.08268 0.0465,-0.124023 z m 0.61494,-0.661456 q -0.0258,0.03101 -0.0413,0.03617 -0.0155,0 -0.0568,-0.03101 l -0.61495,-0.480589 -0.40307,0.552936 q -0.0362,0.04651 -0.0775,0.0155 l -0.65629,-0.506427 q -0.0362,-0.02584 -0.0103,-0.06201 l 0.41858,-0.594278 q 0.0207,-0.03101 0.0362,-0.03101 0.0155,0 0.0362,0.02067 l 0.62012,0.470254 0.42374,-0.542601 q 0.031,-0.04134 0.062,-0.0155 l 0.65628,0.547768 q 0.0362,0.02584 0,0.07235 z m -1.40042,-2.475293 q -0.0258,0.06201 -0.062,0.04651 -0.031,-0.02067 -0.0568,-0.03617 -0.12402,-0.09302 -0.23771,-0.248046 -0.10852,-0.155029 -0.0982,-0.356566 0.0103,-0.160197 0.0723,-0.366902 0.0672,-0.206705 0.19121,-0.423745 0.12402,-0.222208 0.30489,-0.428913 0.18603,-0.211873 0.43924,-0.377237 0.27906,-0.186034 0.57878,-0.21704 0.30489,-0.03617 0.50126,0.04134 0.13952,0.05684 0.21704,0.170532 0.0775,0.113687 0.0982,0.253213 0.0258,0.134359 -0.005,0.28422 -0.031,0.144693 -0.10853,0.258381 -0.0207,0.03101 -0.0465,0.03101 -0.0207,-0.0052 -0.005,-0.05168 0.0155,-0.05168 0.005,-0.129191 -0.005,-0.08268 -0.0362,-0.160196 -0.0258,-0.08268 -0.0775,-0.155029 -0.0465,-0.07235 -0.11369,-0.10852 -0.11369,-0.06201 -0.27388,-0.06201 -0.1602,-0.0052 -0.3359,0.04134 -0.17053,0.04134 -0.3359,0.124023 -0.16536,0.07751 -0.28938,0.186035 -0.23771,0.206705 -0.40308,0.475421 -0.16019,0.263549 -0.13952,0.552936 0.005,0.03617 0.0362,0.08268 0.031,0.04134 0.0724,0.08785 0.0413,0.04134 0.0827,0.08268 0.0465,0.04134 0.0775,0.07235 0.0258,0.03101 0.0258,0.06718 0,0.03101 -0.0103,0.06201 -0.0155,0.05168 -0.031,0.103352 -0.0155,0.05168 -0.0362,0.09818 z m 0.42374,-0.459919 q -0.0568,-0.06201 -0.062,-0.144693 -0.005,-0.08785 0.0207,-0.149862 0.0517,-0.124023 0.12402,-0.253213 0.0775,-0.129191 0.1757,-0.237711 0.0982,-0.10852 0.21704,-0.175699 0.11886,-0.07235 0.26355,-0.07235 0.1602,0 0.22738,0.134358 0.0724,0.129191 0.0879,0.30489 0.0155,0.170532 -0.005,0.341063 -0.0155,0.170532 -0.0362,0.242879 0,0.02067 0.0465,0.04134 0.0568,0.03101 0.0827,0.06201 0.0258,0.03101 0.0413,0.07235 0.0258,0.06718 0,0.170532 -0.0258,0.09818 -0.062,0.155029 -0.0258,0.04651 -0.0672,0.04651 -0.0413,0 -0.0724,-0.04651 -0.0258,-0.03101 -0.0568,-0.05684 -0.031,-0.02584 -0.0465,-0.04134 -0.16536,0.191202 -0.3359,0.341063 -0.16536,0.144694 -0.3514,0.268717 -0.18603,0.118855 -0.39273,0.21704 -0.20671,0.09819 -0.44442,0.191202 -0.031,0.0155 -0.0827,0.03101 -0.0465,0.0155 -0.10336,0.02584 -0.0517,0.0052 -0.0982,0.0052 -0.0465,0 -0.0672,-0.01033 -0.0568,-0.02584 -0.0155,-0.06201 0.0362,-0.03617 0.12919,-0.09819 0.17053,-0.09818 0.35656,-0.206705 0.18604,-0.113688 0.37207,-0.237711 0.18087,-0.118855 0.35657,-0.253213 0.1757,-0.134359 0.32556,-0.28422 -0.13953,-0.04134 -0.28422,-0.124023 -0.13952,-0.08785 -0.24288,-0.19637 z m 0.24288,-0.397907 q 0.10335,0.139526 0.25321,0.21704 0.14987,0.07752 0.26355,0.10852 h 0.0103 q 0.005,-0.01033 0.0155,-0.06718 0.0103,-0.06201 0.0103,-0.134358 0,-0.07751 -0.0155,-0.149861 -0.0155,-0.07752 -0.062,-0.124023 -0.0413,-0.03617 -0.11885,-0.03101 -0.0724,0.0052 -0.14986,0.03617 -0.0724,0.03101 -0.13436,0.07235 -0.0569,0.04134 -0.0724,0.07235 z"
       id="text4"
       style="font-size:10.5833px;line-height:1.25;font-family:'KFGQPC Uthmanic Script HAFS';-inkscape-font-specification:'KFGQPC Uthmanic Script HAFS';stroke-width:0.264583"
       aria-label="مَدَنِيَّةٌ" />
  </g>
</svg>
