<?xml version="1.0" encoding="UTF-8" standalone="no"?>
<!-- Created with Inkscape (http://www.inkscape.org/) -->

<svg
   width="18.307869mm"
   height="14.560061mm"
   viewBox="0 0 18.307869 14.560061"
   version="1.1"
   id="svg1"
   inkscape:export-filename="Fatihah.svg"
   inkscape:export-xdpi="96"
   inkscape:export-ydpi="96"
   sodipodi:docname="Sheikh.svg"
   inkscape:version="1.3.2 (091e20e, 2023-11-25, custom)"
   xmlns:inkscape="http://www.inkscape.org/namespaces/inkscape"
   xmlns:sodipodi="http://sodipodi.sourceforge.net/DTD/sodipodi-0.dtd"
   xmlns="http://www.w3.org/2000/svg"
   xmlns:svg="http://www.w3.org/2000/svg">
  <sodipodi:namedview
     id="namedview1"
     pagecolor="#ffffff"
     bordercolor="#666666"
     borderopacity="1.0"
     inkscape:showpageshadow="2"
     inkscape:pageopacity="0.0"
     inkscape:pagecheckerboard="0"
     inkscape:deskcolor="#d1d1d1"
     inkscape:document-units="mm"
     inkscape:zoom="14.919093"
     inkscape:cx="34.620066"
     inkscape:cy="27.515077"
     inkscape:window-width="1920"
     inkscape:window-height="1017"
     inkscape:window-x="-8"
     inkscape:window-y="-8"
     inkscape:window-maximized="1"
     inkscape:current-layer="layer1" />
  <defs
     id="defs1" />
  <g
     inkscape:label="Layer 1"
     inkscape:groupmode="layer"
     id="layer1"
     transform="translate(-128.59737,-81.727033)">
    <path
       d="m 146.23447,84.224173 q 0.0827,0.0052 0.0775,0.191202 -0.0103,0.19637 0.005,0.387572 0.0155,0.186035 0.0413,0.377237 0.0517,0.459919 0.12403,0.950843 0.0723,0.485757 0.14469,0.981849 0.0672,0.490925 0.13436,0.981849 0.0672,0.490925 0.11369,0.956011 0.0207,0.180867 0.0258,0.423746 0.0103,0.242878 -0.005,0.496092 -0.0103,0.248046 -0.0568,0.480589 -0.0413,0.232543 -0.11885,0.387572 -0.0413,0.08785 -0.0982,0.113688 -0.0465,0.0052 -0.0413,-0.04134 -0.031,-0.449584 -0.0775,-0.904335 -0.0413,-0.459918 -0.10852,-0.93534 -0.0672,-0.490925 -0.13436,-0.971514 -0.0672,-0.480589 -0.12919,-0.961179 -0.0672,-0.480589 -0.13436,-0.961178 -0.062,-0.480589 -0.12402,-0.966346 0.0155,-0.118856 0.0465,-0.242879 0.031,-0.12919 0.0879,-0.263549 0.12402,-0.335896 0.16536,-0.408242 0.0465,-0.07235 0.062,-0.07235 z m -2.21691,-0.289387 q 0.0155,-0.04651 0.0413,-0.05684 0.0258,-0.01033 0.0413,0.05684 0.0413,0.124023 0.093,0.253214 0.0517,0.12919 0.11885,0.253213 0.0724,0.124023 0.16537,0.232543 0.093,0.103353 0.21187,0.1757 -0.0724,0.124023 -0.12919,0.21704 -0.0517,0.08785 -0.0879,0.165364 -0.0362,0.07235 -0.0517,0.144694 -0.0155,0.06718 -0.005,0.144693 0.0568,0.496092 0.12919,0.997352 0.0775,0.496092 0.14469,0.992185 0.0724,0.496092 0.12402,0.992184 0.0568,0.496092 0.0724,0.997352 0.005,0.165364 -0.0207,0.335896 -0.0258,0.170531 -0.0827,0.32556 -0.0568,0.155029 -0.1447,0.294555 -0.0827,0.134358 -0.1912,0.227375 -0.14986,0.129191 -0.37207,0.186035 -0.21704,0.05168 -0.53226,0.05168 h -0.093 q -0.16536,0 -0.24805,-0.124023 -0.0878,-0.12919 -0.0878,-0.279052 0,-0.155028 0.0878,-0.279051 0.0827,-0.129191 0.24805,-0.129191 h 0.093 q 0.17053,0 0.33073,-0.01033 0.16019,-0.0155 0.29455,-0.04651 0.13436,-0.03617 0.22738,-0.09302 0.0982,-0.06201 0.13952,-0.155029 -0.10335,-1.090369 -0.26872,-2.149733 -0.16536,-1.064531 -0.32039,-2.139397 -0.031,-0.217041 -0.0672,-0.423746 -0.031,-0.211872 -0.14986,-0.408242 -0.0413,-0.05684 -0.0465,-0.07235 -0.005,-0.02067 0.0258,-0.08268 0.0879,-0.149861 0.1602,-0.30489 0.0775,-0.160196 0.14986,-0.289387 z m -3.37963,5.250309 q 0.062,-0.103353 0.12402,-0.09819 0.0672,0.0052 0.0362,0.124023 -0.0258,0.10852 -0.0724,0.227375 -0.0465,0.113688 -0.10335,0.248046 0.0362,0.08785 0.16019,0.1757 0.12919,0.08268 0.28939,0.144693 0.15503,0.05684 0.31523,0.08268 0.16536,0.02584 0.27388,-0.0155 0.1757,-0.05684 0.28939,-0.315225 0.11369,-0.263549 0.19637,-0.552936 0.0413,-0.155029 0.10852,-0.180867 0.0672,-0.02584 0.0775,0.113688 0.0207,0.258381 0.093,0.444416 0.0724,0.186034 0.21704,0.299722 0.27388,0.227376 0.89917,0.227376 h 0.093 q 0.16537,0 0.24805,0.129191 0.0827,0.12919 0.0827,0.279051 0,0.149862 -0.0827,0.279052 -0.0827,0.124023 -0.24805,0.124023 h -0.093 q -0.27389,0 -0.47026,-0.03101 -0.19637,-0.03617 -0.3824,-0.113687 -0.43408,-0.186035 -0.65629,-0.614948 -0.0362,0.08268 -0.093,0.19637 -0.0568,0.113688 -0.13436,0.222208 -0.0723,0.103352 -0.16019,0.175699 -0.0879,0.07235 -0.18604,0.07235 -0.12919,0 -0.29972,-0.03101 -0.17053,-0.03101 -0.34106,-0.09819 -0.1757,-0.06201 -0.3359,-0.160196 -0.15503,-0.103353 -0.26355,-0.242879 -0.18086,0.206705 -0.40824,0.346231 -0.22221,0.134359 -0.47542,0.1757 -0.25838,0.04651 -0.5426,0 -0.27905,-0.05168 -0.57361,-0.206705 -0.13436,0.09819 -0.29455,0.160196 -0.1602,0.06201 -0.31523,0.09302 -0.1602,0.03617 -0.30489,0.04651 -0.14469,0.01034 -0.25321,0.01034 h -0.093 q -0.15503,0 -0.23254,-0.124023 -0.0775,-0.12919 -0.0775,-0.279052 0,-0.149861 0.0775,-0.279051 0.0775,-0.129191 0.23254,-0.129191 h 0.093 q 0.31006,0 0.5736,-0.02067 0.26355,-0.02584 0.4961,-0.113687 0.22737,-0.08268 0.42891,-0.253214 0.2067,-0.170532 0.39274,-0.465087 0.0672,-0.10852 0.11369,-0.09302 0.0517,0.01033 0.031,0.118856 -0.0362,0.186034 -0.11885,0.397907 -0.0827,0.211873 -0.20154,0.361734 0.10335,0.031 0.25321,0.04651 0.15503,0.0155 0.32556,0 0.25322,-0.02067 0.47543,-0.103352 0.22737,-0.08785 0.40824,-0.263549 0.11369,-0.103353 0.21187,-0.237711 0.10335,-0.139526 0.19637,-0.299722 z m 0.45475,-1.162716 q -0.031,0.03617 -0.0465,0.03617 -0.0155,0 -0.0517,-0.02584 l -0.60978,-0.480589 -0.39791,0.552936 q -0.0362,0.04651 -0.0775,0.01033 l -0.65113,-0.496092 q -0.0362,-0.03101 -0.0103,-0.06718 l 0.41341,-0.58911 q 0.0258,-0.03101 0.0362,-0.02584 0.0155,0 0.0362,0.0155 l 0.61494,0.470254 0.41858,-0.537433 q 0.031,-0.04134 0.062,-0.02067 l 0.65112,0.542601 q 0.031,0.03101 0,0.07235 z m -0.97668,-2.180739 0.63562,0.52193 q 0.0413,0.03101 0.005,0.07235 l -0.42375,0.527098 q -0.0362,0.04651 -0.0827,0.01033 l -0.64079,-0.516762 q -0.0413,-0.03617 0,-0.08785 l 0.42892,-0.516763 q 0.0362,-0.04651 0.0775,-0.01033 z m 0.0413,-1.431432 q -0.11369,0.227375 -0.25838,0.341063 -0.15503,0.118855 -0.3669,0.124023 -0.17053,0.0052 -0.29972,-0.08785 -0.12403,-0.09302 -0.1447,-0.32556 -0.0103,-0.103353 0.0103,-0.211873 0.0207,-0.113688 0.062,-0.211873 0.0413,-0.09302 0.093,-0.160196 0.0568,-0.07235 0.11885,-0.09302 0.062,-0.0052 0.0103,0.09302 -0.031,0.05684 -0.0517,0.134358 -0.0155,0.07752 -0.0207,0.155029 0,0.07235 0.0155,0.124023 0.0155,0.05168 0.0672,0.09819 0.0775,0.05684 0.16537,0.05684 0.0879,-0.0052 0.17053,-0.04134 0.0879,-0.03617 0.15503,-0.08268 0.0723,-0.05168 0.14469,-0.134358 0.0672,-0.07752 0.0982,-0.19637 0.031,-0.118856 0.0413,-0.19637 0.005,-0.06718 0.0362,-0.134358 0.031,-0.06718 0.10335,-0.06718 0.0155,0 0.0207,0.03101 0.0103,0.02584 0.0155,0.06201 0.005,0.03617 0.005,0.07235 0,0.03101 0,0.04651 0,0.149861 0.0465,0.237711 0.0465,0.08268 0.18604,0.113688 0.0723,0.0155 0.18603,-0.0155 0.11886,-0.03101 0.20671,-0.103353 0.0103,-0.01033 0.005,-0.05684 -0.005,-0.04651 -0.0207,-0.09819 -0.0103,-0.05168 -0.0362,-0.108521 -0.0207,-0.06201 -0.0258,-0.07235 l 0.1912,-0.361734 q 0.0517,0.02584 0.0775,0.113688 0.031,0.08785 0.0362,0.201537 0.0103,0.10852 0,0.222208 -0.0103,0.113688 -0.0258,0.191202 -0.062,0.191202 -0.17053,0.346231 -0.10335,0.155029 -0.32039,0.19637 -0.1912,0.03617 -0.32039,-0.02584 -0.12919,-0.06201 -0.20671,-0.175699 z m 0.93017,-2.077386 q -0.25838,0.118855 -0.5426,0.248046 -0.27905,0.12919 -0.5426,0.248046 -0.26355,0.118855 -0.49092,0.222208 -0.22738,0.103352 -0.38757,0.170531 -0.0362,0.0155 -0.0517,0 -0.0155,-0.0155 0,-0.04651 l 0.25321,-0.506428 q 0.0258,-0.04134 0.0517,-0.05684 0.031,-0.02067 0.0568,-0.03617 l 1.88619,-0.837155 q 0.0827,-0.03617 0.0517,0.04134 l -0.21187,0.480589 q -0.0155,0.04651 -0.0724,0.07235 z M 136.19894,92.9833 q -0.0258,0.03101 -0.0413,0.03101 -0.0155,0.0052 -0.0568,-0.02584 l -0.61494,-0.480589 -0.40308,0.552936 q -0.0362,0.04651 -0.0775,0.0155 l -0.65629,-0.506428 q -0.0362,-0.02584 -0.0103,-0.06201 l 0.41858,-0.594277 q 0.0207,-0.03101 0.0362,-0.03101 0.0155,0 0.0362,0.02067 l 0.62011,0.470254 0.42375,-0.5426 q 0.031,-0.04134 0.062,-0.0155 l 0.65629,0.547768 q 0.0362,0.02584 0,0.07235 z m -2.16007,-2.061883 h -0.093 q -0.15502,0 -0.23254,-0.124023 -0.0775,-0.12919 -0.0775,-0.284219 0,-0.07752 0.0207,-0.149861 0.0155,-0.07235 0.0568,-0.129191 0.0362,-0.05684 0.0982,-0.09302 0.0568,-0.03617 0.13435,-0.03617 h 0.093 q 0.1602,0 0.35657,-0.01034 0.20153,-0.01033 0.37723,-0.05684 0.17054,-0.04651 0.3359,-0.139526 0.16536,-0.09819 0.30489,-0.268716 0.10335,-0.124024 0.16536,-0.253214 0.0672,-0.129191 0.12919,-0.294555 0.0258,-0.06718 0.0827,-0.07235 0.062,-0.0052 0.0672,0.02584 0.005,0.06201 -0.0103,0.149862 -0.0103,0.08785 -0.0103,0.160196 0,0.134358 0.0672,0.268717 0.0672,0.134358 0.20671,0.242878 0.13953,0.10852 0.3824,0.180867 0.24805,0.06718 0.55811,0.06718 h 0.0982 q 0.0775,0 0.13436,0.03617 0.0568,0.03617 0.093,0.09302 0.0413,0.05684 0.0568,0.129191 0.0207,0.07235 0.0207,0.149861 0,0.155029 -0.0775,0.284219 -0.0724,0.124023 -0.22738,0.124023 h -0.0982 q -0.27905,0 -0.53227,-0.05168 -0.24804,-0.05684 -0.42374,-0.165364 -0.34107,-0.206705 -0.53227,-0.60978 -0.11369,0.232543 -0.26872,0.387572 -0.15502,0.155029 -0.34106,0.253214 -0.1912,0.09819 -0.43408,0.144693 -0.24288,0.04134 -0.48059,0.04134 z m 0.58911,-5.565534 q 0,0.08785 0.0465,0.139526 0.0517,0.04651 0.11886,0.07235 0.0672,0.02584 0.14469,0.03101 0.0827,0.0052 0.14469,0.0052 0.1447,0 0.26872,-0.06201 0.12919,-0.06201 0.23254,-0.160196 0.0103,-0.09302 -0.0207,-0.19637 -0.031,-0.103353 -0.0982,-0.186035 -0.0672,-0.08268 -0.16537,-0.129191 -0.0982,-0.05168 -0.22737,-0.04134 -0.0775,0.02067 -0.15503,0.07752 -0.0775,0.05168 -0.1447,0.124023 -0.062,0.07235 -0.10335,0.160196 -0.0413,0.08268 -0.0413,0.165364 z m 1.20923,-0.134358 q 0,0.175699 -0.0465,0.341063 -0.0465,0.165365 -0.1447,0.294555 -0.0982,0.129191 -0.25321,0.206705 -0.14986,0.07752 -0.36173,0.07752 -0.26355,0 -0.44442,-0.170532 -0.18087,-0.170532 -0.1912,-0.454751 0,-0.144694 0.0413,-0.346231 0.0465,-0.206705 0.13953,-0.397907 0.093,-0.191203 0.23771,-0.330729 0.14986,-0.144693 0.35656,-0.170531 0.19637,-0.02067 0.32556,0.07751 0.12919,0.09819 0.20671,0.248046 0.0723,0.155029 0.10335,0.330728 0.031,0.170532 0.031,0.294555 z m -6.09264,2.780183 q 0.21188,-0.01033 0.44442,0.02584 0.23254,0.03101 0.66146,0.113688 0.42891,0.07751 0.86299,0.09302 0.47025,0.0155 0.9095,0.0052 0.43925,-0.01033 0.9095,-0.05168 0.0207,-0.0052 0.031,0 0.0103,0.0052 0.005,0.03101 -0.0672,0.201538 -0.14986,0.397908 -0.0775,0.19637 -0.1757,0.382404 -0.23255,0.02584 -0.46509,0.06201 -0.23254,0.03101 -0.45992,0.07751 -0.0465,0.377237 0.0827,0.578774 0.13436,0.19637 0.38241,0.28422 0.24804,0.08785 0.57361,0.09819 0.33072,0.01033 0.68212,0.01033 0.0258,0 0.0465,0 0.0207,0 0.0465,0 0.15503,0 0.23254,0.129191 0.0827,0.124023 0.0827,0.273884 0,0.155029 -0.0827,0.284219 -0.0775,0.124023 -0.23254,0.124023 -0.0258,0 -0.0465,0 -0.0207,0 -0.0465,0 -0.5736,0.01033 -1.02319,-0.05684 -0.44958,-0.07235 -0.7183,-0.315225 -0.21187,-0.191202 -0.29972,-0.511595 -0.0827,-0.32556 -0.0207,-0.82682 -0.45475,0.10852 -0.8785,0.289387 -0.42374,0.175699 -0.78031,0.459919 -0.31006,0.248046 -0.5581,0.558103 -0.24288,0.310058 -0.41341,0.666624 -0.16537,0.356566 -0.25322,0.738971 -0.0879,0.387572 -0.0879,0.785479 0,0.434081 0.16537,0.847491 0.17053,0.418578 0.44958,0.764809 0.27905,0.351398 0.63562,0.604612 0.36173,0.258381 0.74414,0.366901 0.50126,0.144694 1.02835,0.191203 0.53227,0.05168 0.98702,0.03617 0.50126,-0.0155 1.02836,-0.06201 0.5271,-0.04651 1.02836,-0.04651 0.062,0 0.0672,0.03101 0.005,0.03617 -0.062,0.113687 -0.0672,0.07752 -0.13952,0.08785 -0.31006,0.04651 -0.59945,0.139526 -0.28422,0.09819 -0.56327,0.19637 -0.27905,0.103352 -0.56844,0.186034 -0.28422,0.08785 -0.59427,0.108521 -0.75448,0.05168 -1.47794,-0.118856 -0.7183,-0.170532 -1.28158,-0.583942 -0.56327,-0.408242 -0.9095,-1.064531 -0.34623,-0.651121 -0.34623,-1.555455 0,-0.594278 0.15503,-1.193722 0.15503,-0.594277 0.43925,-1.126543 0.28938,-0.537433 0.69246,-0.971514 0.40824,-0.439248 0.90433,-0.713132 0.0207,-0.0155 -0.0103,-0.02584 -0.031,-0.01034 -0.0672,-0.0155 -0.23771,-0.02584 -0.51159,-0.04651 -0.26872,-0.02584 -0.53744,-0.0052 -0.26355,0.02067 -0.49609,0.103352 -0.23254,0.07751 -0.38757,0.258381 -0.031,0.03617 -0.0672,0.03101 -0.031,-0.0052 -0.0207,-0.07235 0.031,-0.23771 0.10852,-0.449583 0.0827,-0.211873 0.21187,-0.366902 0.12919,-0.160196 0.31006,-0.253213 0.18087,-0.09819 0.42374,-0.103353 z m 1.08004,-2.13423 0.63562,0.527098 q 0.0413,0.03617 0.005,0.08268 l -0.42374,0.532266 q -0.0362,0.05168 -0.0827,0.01033 l -0.64079,-0.527098 q -0.0413,-0.03617 0,-0.08785 l 0.42891,-0.527097 q 0.0362,-0.04651 0.0775,-0.01034 z m -1.13171,-0.63045 q 0.17053,-0.09819 0.33589,-0.19637 0.16537,-0.09818 0.3204,-0.211873 0.16019,-0.113687 0.31522,-0.248046 0.15503,-0.134358 0.29972,-0.30489 -0.13952,-0.04134 -0.29455,-0.139526 -0.15503,-0.09819 -0.24805,-0.211872 -0.0465,-0.05684 -0.0568,-0.144694 -0.0103,-0.09302 0.0155,-0.170532 0.0413,-0.124023 0.11369,-0.268716 0.0775,-0.144694 0.18087,-0.263549 0.10335,-0.118856 0.22737,-0.191202 0.12919,-0.07751 0.25838,-0.07235 0.1602,0.01033 0.23255,0.155029 0.0723,0.139526 0.0879,0.32556 0.0207,0.186035 0,0.366902 -0.0155,0.180867 -0.0258,0.263549 0,0.02584 0.0155,0.04134 0.062,0.03617 0.0827,0.06718 0.0258,0.03101 0.0413,0.07235 0.031,0.07751 0.0103,0.186034 -0.0155,0.10852 -0.062,0.165364 -0.0413,0.05168 -0.0724,0.05168 -0.031,-0.0052 -0.062,-0.05168 -0.0258,-0.03101 -0.0517,-0.05684 -0.0207,-0.03101 -0.0672,-0.05168 -0.14469,0.175699 -0.31005,0.335896 -0.1602,0.160196 -0.34107,0.294555 -0.18603,0.12919 -0.38757,0.232543 -0.20154,0.103352 -0.42374,0.170531 -0.0879,0.02584 -0.18087,0.03617 -0.093,0.0052 -0.10335,-0.02067 -0.0103,-0.031 0.0362,-0.07235 0.0465,-0.04651 0.11369,-0.08785 z m 0.97151,-1.736323 q 0.10852,0.149861 0.25838,0.237711 0.14986,0.08268 0.27389,0.113688 h 0.0103 q 0,-0.04134 0.005,-0.10852 0.005,-0.07235 0,-0.144694 0,-0.07235 -0.0207,-0.139526 -0.0155,-0.06718 -0.062,-0.113687 -0.0413,-0.03617 -0.11886,-0.03101 -0.0723,0 -0.14469,0.02584 -0.0724,0.02584 -0.13436,0.07235 -0.0568,0.04134 -0.0672,0.08785 z"
       id="text6"
       style="font-size:10.5833px;line-height:1.25;font-family:'KFGQPC Uthmanic Script HAFS';-inkscape-font-specification:'KFGQPC Uthmanic Script HAFS';stroke-width:0.264583"
       aria-label="الشَّيْخُ" />
  </g>
</svg>
