<?xml version="1.0" encoding="UTF-8" standalone="no"?>
<!-- Created with Inkscape (http://www.inkscape.org/) -->

<svg
   width="22.52499mm"
   height="6.9146843mm"
   viewBox="0 0 22.524989 6.9146841"
   version="1.1"
   id="svg1"
   xml:space="preserve"
   xmlns="http://www.w3.org/2000/svg"
   xmlns:svg="http://www.w3.org/2000/svg"><defs
     id="defs1" /><g
     id="layer1"
     transform="translate(-122.97826,-4.2822818)"><g
       id="g41"
       transform="translate(-80.150324,-103.02572)"><path
         d="m 215.51868,110.00221 -0.20461,0.24447 -0.002,0.042 c 0.0353,0.0413 0.0737,0.0797 0.11606,0.11536 0.0462,0.0384 0.0952,0.0723 0.14464,0.10054 l 0.0441,-0.007 0.20426,-0.24412 -0.004,-0.0272 c -0.054,-0.0293 -0.10407,-0.0631 -0.15169,-0.10372 -0.0444,-0.037 -0.0836,-0.079 -0.12206,-0.12065 z m 0.0871,0.81209 -0.008,0.0148 -0.10195,-0.0744 c -0.0459,-0.0381 -0.0864,-0.0818 -0.12453,-0.12488 l -0.0272,3.5e-4 -0.21166,0.2533 -0.003,0.0437 c 0.037,0.0427 0.0762,0.0829 0.121,0.11994 0.0469,0.0402 0.0974,0.0748 0.15028,0.10442 l 0.0459,-0.008 0.19968,-0.23812 0.078,0.073 c 0.048,0.0399 0.0981,0.0748 0.15028,0.10407 l 0.0462,-0.007 0.21096,-0.25295 -0.006,-0.0282 c -0.0536,-0.0311 -0.10584,-0.0663 -0.15628,-0.1083 -0.0462,-0.0381 -0.0854,-0.0815 -0.12453,-0.12488 h -0.0261 z m -3.97652,-0.72108 -0.20425,0.24413 -0.003,0.042 c 0.0349,0.0416 0.0737,0.0801 0.11572,0.11571 0.0466,0.0384 0.0953,0.0727 0.14534,0.10019 l 0.0437,-0.006 0.20426,-0.24448 -0.005,-0.0272 c -0.0536,-0.0293 -0.10443,-0.0631 -0.15135,-0.10336 -0.0448,-0.0374 -0.0836,-0.0794 -0.12206,-0.12101 z m 0.0875,0.81245 -0.009,0.0141 -0.10195,-0.0741 c -0.0459,-0.0381 -0.0861,-0.0818 -0.12418,-0.12453 h -0.0275 l -0.21132,0.25294 -0.003,0.0437 c 0.037,0.0427 0.0769,0.0829 0.12135,0.1203 0.0469,0.0399 0.097,0.0751 0.14993,0.10442 l 0.0462,-0.008 0.19932,-0.23848 0.0783,0.073 c 0.0473,0.0402 0.0981,0.0748 0.14993,0.10443 l 0.0462,-0.007 0.21131,-0.25294 -0.007,-0.0282 c -0.0533,-0.031 -0.10548,-0.0663 -0.15593,-0.10831 -0.0459,-0.0381 -0.0854,-0.0818 -0.12488,-0.12488 h -0.0261 z m -4.86868,-1.01212 -0.20461,0.24448 -0.002,0.0416 c 0.0349,0.0416 0.0737,0.0801 0.11571,0.11571 0.0466,0.0384 0.0956,0.0723 0.14499,0.10054 l 0.0441,-0.006 0.20426,-0.24448 -0.004,-0.0272 c -0.054,-0.0293 -0.10407,-0.0631 -0.15169,-0.10371 -0.0444,-0.037 -0.0836,-0.079 -0.12206,-0.12065 z m 0.0875,0.81245 -0.009,0.0141 -0.10196,-0.0741 c -0.0455,-0.0381 -0.0861,-0.0818 -0.12417,-0.12488 l -0.0275,3.5e-4 -0.21131,0.25294 -0.003,0.0441 c 0.0367,0.0423 0.0762,0.0825 0.12101,0.11994 0.0469,0.0402 0.0974,0.0751 0.15028,0.10443 l 0.0459,-0.008 0.19967,-0.23848 0.078,0.0734 c 0.048,0.0402 0.0984,0.0744 0.15028,0.10407 l 0.0462,-0.007 0.21097,-0.25294 -0.007,-0.0282 c -0.0533,-0.031 -0.10548,-0.066 -0.15628,-0.1083 -0.0459,-0.0381 -0.0847,-0.0818 -0.12418,-0.12489 h -0.0264 z m 6.18772,1.49895 c 0.11712,0.0243 0.31221,0.0977 0.36512,-0.024 0.0536,-0.12206 0.18063,-0.49248 0.1517,-0.7119 -0.0289,-0.21908 -0.32597,-1.78823 -0.32597,-1.78823 -0.006,-0.0628 0.004,-0.0917 0.0152,-0.10795 0.0152,-0.019 0.0861,-0.12171 0.11007,-0.17533 0.0134,-0.0275 -0.01,-0.0945 -0.0392,-0.13335 -0.0434,-0.0564 -0.14464,-0.22225 -0.15628,-0.27129 -0.0131,-0.0543 -0.0434,-0.11465 -0.0677,-0.0631 -0.0501,0.1076 -0.11854,0.17674 -0.13547,0.20285 -0.0173,0.0272 -0.0505,0.11359 -0.01,0.19332 0.0406,0.0801 0.0773,0.13264 0.0854,0.18591 0.009,0.0568 0.008,0.1524 0.0317,0.26741 0.0289,0.14111 0.32103,1.82598 0.3362,1.91452 0.0145,0.0871 0.0289,0.2286 -0.0688,0.22402 -0.073,-0.004 -0.29422,-0.0159 -0.39793,-0.0219 0.0384,-0.0737 0.0667,-0.15558 0.0825,-0.24659 0.0116,-0.0522 -0.0353,-0.14323 -0.0903,-0.0409 -0.0561,0.10265 -0.45332,0.67662 -1.58608,0.67274 -1.03929,-0.002 -1.17475,-0.69638 -1.01565,-0.93874 0.0399,-0.0603 0.0152,-0.096 -0.0289,-0.0437 -0.0441,0.0526 -0.27517,0.4184 -0.13723,0.78387 0.29845,0.70768 1.50671,0.50024 1.50671,0.50024 0.0836,-0.0155 0.76306,-0.0875 1.13101,-0.48859 0.0769,0.0441 0.17815,0.0967 0.24377,0.11077 m 3.67594,-2.63067 c -0.007,-0.0624 0.004,-0.0917 0.0152,-0.10724 0.0152,-0.0198 0.0861,-0.12206 0.11007,-0.17533 0.0127,-0.0275 -0.0102,-0.0949 -0.0399,-0.1337 -0.0434,-0.0561 -0.14394,-0.22155 -0.15629,-0.27164 -0.013,-0.0543 -0.0434,-0.11395 -0.067,-0.0632 -0.0501,0.1076 -0.11854,0.17639 -0.13618,0.20355 -0.0166,0.0268 -0.0504,0.1136 -0.009,0.19262 0.0402,0.0801 0.0769,0.13335 0.085,0.18732 0.008,0.055 0.008,0.15064 0.0311,0.2667 0.008,0.0349 0.0367,0.16404 0.0628,0.34255 0.0123,0.0864 0.25824,1.49825 0.272,1.61219 0.0141,0.11395 0.005,0.29563 -0.11819,0.27764 -0.12276,-0.018 -0.32349,-0.10089 -0.37288,-0.12347 -0.0505,-0.0222 -0.15522,-0.0815 -0.25083,-0.0134 -0.0959,0.0681 -0.68297,0.40146 -1.26576,0.33267 -0.13229,-0.0321 -0.50518,-0.0691 -0.59655,-0.70133 -0.0272,-0.1912 -0.2727,-2.03976 -0.30057,-2.14418 -0.0275,-0.10513 -0.0593,-0.0822 -0.0723,-0.0134 -0.0138,0.0681 -0.078,0.3048 -0.0462,0.45015 0.096,0.369 0.20179,1.5314 0.22825,1.76212 0.0219,0.20496 0.073,0.93804 0.6738,1.00612 0.10866,0.0134 0.62336,0.0776 1.28835,-0.33267 0.0861,-0.0501 0.14816,-0.0815 0.21907,-0.0374 0.0716,0.0441 0.4191,0.29246 0.61595,0.008 0.036,-0.0547 0.20144,-0.41345 0.12418,-0.86748 -0.0317,-0.1912 -0.29422,-1.65735 -0.29422,-1.65735 m -5.85046,0.006 c 0.0346,-0.0173 1.05233,-0.4452 1.11089,-0.48048 0.0589,-0.0363 0.0945,-0.0483 0.1203,-0.10337 0.0254,-0.0547 0.0321,-0.0649 0.0466,-0.10301 0.0141,-0.0413 0.0317,-0.0878 -0.0776,-0.0272 -0.0702,0.0399 -1.07104,0.46144 -1.14618,0.49848 -0.0751,0.0367 -0.097,0.0522 -0.11077,0.10583 -0.0127,0.0533 -0.0201,0.0822 -0.024,0.0928 -0.0113,0.0363 -0.0279,0.0737 0.0808,0.0169 m 3.21768,2.90301 c -0.0705,0.0381 -1.07914,0.44133 -1.15464,0.47696 -0.0751,0.0353 -0.0991,0.0508 -0.11289,0.10407 -0.0138,0.0533 -0.0215,0.0811 -0.0258,0.0924 -0.012,0.036 -0.03,0.073 0.0804,0.018 0.0349,-0.0169 1.05939,-0.4251 1.11937,-0.46038 0.06,-0.0342 0.0956,-0.0452 0.12206,-0.10089 0.0268,-0.0536 0.0339,-0.0635 0.048,-0.10196 0.0159,-0.0402 0.0335,-0.0871 -0.0766,-0.0282 m 0.51788,-3.64172 c 0.0346,-0.0152 0.94756,-0.3997 1.0093,-0.4311 0.0614,-0.031 0.097,-0.0409 0.12735,-0.0942 0.0289,-0.0536 0.036,-0.0628 0.0526,-0.0998 0.0183,-0.0395 0.0381,-0.0857 -0.0751,-0.0325 -0.073,0.0346 -0.96873,0.41416 -1.04634,0.44556 -0.0765,0.0318 -0.10019,0.0462 -0.11747,0.0984 -0.0169,0.0526 -0.0254,0.0804 -0.0296,0.0914 -0.0145,0.0349 -0.0339,0.0713 0.0794,0.0222 m 2.84551,0.32597 c -0.0155,-0.15134 -0.0409,-0.28258 -0.0879,-0.16052 -0.0515,0.13053 -0.0734,0.29493 -0.0399,0.51682 0.0515,0.3803 0.10195,0.66605 0.15028,0.9391 0.048,0.27587 0.20779,1.09749 0.23672,1.68416 0.007,0.13758 0.054,0.17039 0.0836,0.0695 0.049,-0.17216 0.0504,-0.64982 -0.0582,-1.34479 -0.0543,-0.3496 -0.25471,-1.42628 -0.28469,-1.70427 m -7.69127,1.75895 c -0.10512,0.072 -0.6678,0.39864 -1.01282,0.34678 -0.34537,-0.0533 -0.49883,-0.26952 -0.49883,-0.37959 0,-0.11006 0.0819,-0.28222 0.25435,-0.35454 0.17216,-0.072 0.52212,-0.20179 0.68087,-0.10513 0.15804,0.096 0.19614,0.0187 0.11994,-0.0575 -0.0765,-0.0773 -0.42227,-0.30691 -0.73836,-0.1778 -0.43674,0.20179 -0.48895,0.57538 -0.51294,0.80046 -0.0243,0.22542 0.115,0.41239 0.27799,0.53269 -0.10584,0.0455 -0.56198,0.14781 -0.71861,-0.0833 l 0.009,-0.0656 c 0.005,-0.10583 -0.0624,-0.11536 -0.091,-0.01 -0.0289,0.10583 -0.0448,0.24236 -0.0959,0.34537 -0.0921,0.1838 -0.35631,0.0413 -0.46602,-0.008 0.0314,-0.0931 0.0575,-0.20073 0.0776,-0.32632 0.0113,-0.0713 -0.0325,-0.13123 -0.0804,0.0183 -0.0473,0.1464 -0.21625,0.58173 -0.9652,0.33091 0.0102,-0.0886 0.0639,-0.28399 -0.10018,-0.19968 -0.1771,0.091 -0.60819,0.25471 -0.8569,0.31609 -0.16228,0.0409 -0.18733,0.066 -0.16228,0.13688 0.0247,0.072 0.0684,0.26211 0.15381,0.2346 0.018,-0.006 0.0487,-0.0162 0.0854,-0.0275 -0.0727,0.19332 -0.32949,0.79022 -0.79234,0.98001 -0.109,0.0416 -0.57855,0.17251 -1.07068,-0.0476 -0.0607,-0.0198 -0.14993,0.0289 -0.0579,0.0914 0.0921,0.0632 1.06786,0.58879 1.6517,-0.0166 0.13406,-0.13723 0.32527,-0.5789 0.45015,-1.05304 l -3.5e-4,-0.0109 c 0.0991,-0.0321 0.18662,-0.06 0.18662,-0.06 0.0529,-0.019 0.26634,-0.11006 0.38452,-0.16122 0.36548,0.26988 0.71826,0.36266 0.94968,0.0755 0.28963,0.26635 0.49918,0.20885 0.58879,0.0723 0.0377,-0.0575 0.0794,-0.16545 0.11535,-0.28046 0.11924,0.0928 0.37395,0.31856 1.08762,-0.0219 0.20637,-0.0907 1.10455,-0.51364 1.10455,-0.51364 0.043,-0.11007 0.14852,-0.39299 0.043,-0.32138 m -4.04424,-1.11795 c 0.0353,-0.0145 1.53494,-0.64029 1.59632,-0.67169 0.0614,-0.0314 0.097,-0.0413 0.12665,-0.0945 0.0296,-0.0529 0.0367,-0.0624 0.0533,-0.0991 0.018,-0.0402 0.0381,-0.0857 -0.0752,-0.0325 -0.0727,0.0346 -1.55574,0.65511 -1.633,0.68686 -0.0769,0.0314 -0.10054,0.0462 -0.11748,0.0981 -0.0169,0.0526 -0.0254,0.0801 -0.03,0.091 -0.0145,0.0356 -0.0339,0.0713 0.0794,0.0219 m 2.47438,-0.1016 c 0.0339,-0.018 1.09185,-0.44697 1.14971,-0.48437 0.0582,-0.0367 0.0931,-0.0508 0.11677,-0.10654 0.0243,-0.0554 0.0307,-0.066 0.0437,-0.10442 0.0141,-0.0406 0.0289,-0.0882 -0.0783,-0.0243 -0.0688,0.0409 -1.11019,0.46391 -1.18392,0.50236 -0.0741,0.0392 -0.0959,0.0557 -0.10795,0.10971 -0.0116,0.0536 -0.0176,0.0818 -0.0208,0.0931 -0.0109,0.037 -0.0265,0.0744 0.0808,0.0145 m -4.179,1.64994 c 0.0321,-0.0208 1.1998,-0.49882 1.25589,-0.53798 0.0564,-0.0402 0.0914,-0.0547 0.11253,-0.11148 0.0219,-0.0568 0.0275,-0.0667 0.0388,-0.10619 0.012,-0.0416 0.025,-0.0903 -0.0787,-0.0212 -0.0674,0.0441 -1.21849,0.51506 -1.29081,0.55774 -0.072,0.042 -0.0935,0.0593 -0.10231,0.1136 -0.01,0.0543 -0.0145,0.0832 -0.0173,0.0938 -0.009,0.0374 -0.0229,0.0755 0.0819,0.0116 m 11.6145,-2.16817 c 0.0205,0.0519 0.0374,0.11077 0.0349,0.14569 -0.0808,0.0783 -0.16863,0.0914 -0.23213,0.0388 -0.0402,-0.0335 -0.0557,-0.0963 -0.0519,-0.17885 0.003,-0.0593 0.01,-0.0815 -0.0427,-0.0399 -0.0677,0.055 -0.049,0.0497 -0.0533,0.0808 -0.024,0.19473 -0.10724,0.28222 -0.25788,0.29245 -0.0942,0.006 -0.16333,-0.0596 -0.0977,-0.24589 0.0138,-0.0402 -0.0141,-0.0826 -0.0557,0 -0.14112,0.28081 -0.055,0.43745 0.0889,0.45897 0.11676,0.0169 0.25646,-0.0494 0.32773,-0.22719 0.0543,0.09 0.16439,0.11641 0.26423,0.09 0.12735,-0.0328 0.15522,-0.0917 0.1912,-0.19509 0.0356,-0.0998 0.0367,-0.23213 -0.0113,-0.38982 -0.008,-0.0265 -0.0219,-0.0123 -0.0275,7.1e-4 l -0.0688,0.12947 c -0.008,0.0141 -0.0141,0.0243 -0.008,0.0399 m 6.71583,0.39864 c -0.0561,-0.0346 -0.0554,-0.0755 -0.0296,-0.11501 0.084,-0.12982 0.14499,-0.12594 0.20038,-0.0653 0.0899,0.11465 0.0695,0.30515 0.06,0.34008 0,0 -0.17392,-0.12524 -0.23072,-0.15981 m 0.22366,0.42721 c 0.1203,0.0561 0.17145,0.1838 0.18768,0.13688 0.0452,-0.13335 0.0607,-0.20814 0.0265,-0.24483 -0.0254,-0.0265 -0.11218,-0.0914 -0.11218,-0.0914 0.0321,-0.0748 0.0974,-0.33796 -0.0113,-0.54786 -0.0265,-0.0455 -0.133,-0.21167 -0.35737,0.0399 -0.0875,0.0967 -0.19967,0.34255 -0.11112,0.4318 0.0885,0.0885 0.28293,0.21378 0.28293,0.21378 -0.1016,0.17463 -0.34679,0.3295 -0.66605,0.55704 -0.20779,0.14852 -0.13017,0.19967 -0.0395,0.15663 0.60325,-0.28575 0.70661,-0.45332 0.80045,-0.65193 m -3.45969,-0.43215 c -0.0564,-0.0356 -0.0557,-0.0762 -0.03,-0.11536 0.084,-0.13018 0.145,-0.1263 0.20038,-0.066 0.09,0.115 0.0695,0.3055 0.06,0.34078 0,0 -0.17391,-0.12559 -0.23036,-0.15945 m 0.22331,0.42721 c 0.1203,0.0557 0.17145,0.18345 0.18768,0.13617 0.0455,-0.13335 0.061,-0.20778 0.0265,-0.24482 -0.025,-0.0261 -0.11184,-0.0914 -0.11184,-0.0914 0.0314,-0.0748 0.097,-0.33797 -0.0116,-0.54787 -0.0265,-0.0452 -0.13335,-0.21166 -0.35701,0.0402 -0.0875,0.0963 -0.19967,0.3422 -0.11112,0.43145 0.0882,0.0885 0.28257,0.21413 0.28257,0.21413 -0.1016,0.17428 -0.34678,0.32915 -0.66569,0.55669 -0.20849,0.14887 -0.13053,0.19967 -0.0399,0.15663 0.60325,-0.2854 0.70661,-0.45297 0.80045,-0.65123 m 1.61184,-0.46954 c 0.0123,-0.004 0.0272,-0.002 0.0423,-0.0155 0.0494,-0.0466 0.0907,-0.16898 0.0952,-0.21096 -0.005,-0.0318 -0.12029,-0.0437 -0.15345,-0.0515 -0.1136,-0.0272 -0.2219,-0.0871 -0.34008,-0.0949 -0.18239,-0.0113 -0.35137,0.0706 -0.44556,0.26246 -0.0102,0.0251 -0.0254,0.0586 -0.0353,0.0836 -0.0113,0.042 0.0102,0.0702 0.0325,0.0377 0.025,-0.0377 0.0564,-0.0748 0.0956,-0.0984 0.0935,-0.0564 0.19262,-0.0783 0.29386,-0.0684 0.0917,0.009 0.26423,0.0734 0.26388,0.0822 -0.001,0.0201 -0.40146,0.21802 -0.4639,0.25753 -0.0275,0.0169 -0.0607,0.0483 -0.055,0.0801 0.005,0.024 0.0434,0.0293 0.0758,0.0173 0.15734,-0.0568 0.21414,-0.0529 0.34114,-0.10725 0.17145,-0.073 0.2226,-0.1651 0.25294,-0.17391 m -2.08421,2.40241 c -0.0243,0.0515 -0.0557,0.13935 -0.0741,0.19085 -0.006,0.0176 0.008,0.0399 0.0303,0.0268 0.127,-0.078 0.31714,-0.17356 0.51858,-0.24518 0.18344,-0.0649 0.32738,-0.10689 0.46037,-0.1143 0.0205,-0.003 0.12947,-0.19438 0.1457,-0.22225 0.0229,-0.0356 0.006,-0.0473 -0.0222,-0.0416 -0.15452,0.03 -0.27447,0.0568 -0.46108,0.0399 -0.23072,-0.0205 -0.41099,-0.19685 -0.40499,-0.26599 0.005,-0.0526 0.16898,-0.15769 0.23001,-0.14817 0.17674,0.0279 0.17356,0.1838 0.22119,0.18521 0.0568,0.002 0.17251,-0.20214 0.17956,-0.25753 0.007,-0.0607 -0.11359,-0.20496 -0.22895,-0.21166 -0.18979,-0.0116 -0.51153,0.31009 -0.63782,0.508 -0.0459,0.073 -0.0416,0.1845 0.0243,0.2413 0.0586,0.0501 0.15487,0.10266 0.26423,0.16898 -0.0533,0.0187 -0.19332,0.10054 -0.24518,0.14569 m 6.51298,-0.98495 c -0.0317,-0.30021 -0.15875,-1.22555 -0.17074,-1.46297 -0.005,-0.13053 -0.0212,-0.24271 -0.0773,-0.14217 -0.0593,0.1076 -0.0921,0.24589 -0.0734,0.43568 0.0261,0.32632 0.0568,0.5715 0.0861,0.80575 0.0293,0.23706 0.13476,0.94368 0.12418,1.44391 -0.002,0.11713 0.0427,0.14711 0.0787,0.0631 0.0617,-0.14181 0.0945,-0.54786 0.0324,-1.14335 m -1.51835,1.55011 c -0.0413,-0.0413 -0.0769,-0.0864 -0.11113,-0.13124 l -0.0243,-0.002 -0.22472,0.22578 -0.006,0.0416 c 0.031,0.0441 0.0663,0.0854 0.10513,0.12453 0.0427,0.0434 0.0885,0.0808 0.13582,0.1136 l 0.0441,-0.003 0.22507,-0.22543 -0.002,-0.0275 c -0.0512,-0.0339 -0.0984,-0.0713 -0.14181,-0.11606 m 1.04704,-1.09397 c -0.15346,-0.01 -0.86289,-0.0222 -1.27846,-0.25223 0.0413,-0.0346 0.13123,-0.15064 0.0988,-0.44168 -0.0314,-0.29069 -0.14781,-1.12148 -0.14781,-1.12148 -0.009,-0.0868 -0.0448,-0.17039 0.005,-0.21449 0.0497,-0.0448 0.15346,-0.12065 0.0938,-0.20249 -0.0603,-0.0819 -0.16334,-0.23742 -0.19333,-0.32562 -0.025,-0.0748 -0.0469,-0.13688 -0.0847,-0.0783 -0.0441,0.0677 -0.0596,0.15381 -0.11889,0.23213 -0.0314,0.0409 -0.0639,0.061 -0.0282,0.12277 0.048,0.0843 0.096,0.23777 0.10513,0.34325 0.004,0.055 0.0201,0.17427 0.0356,0.28787 0,0 0.20355,1.05022 0.18732,1.22026 0,0 -0.84067,0.0296 -0.95003,0.13581 l -0.16827,0.26177 c -0.0141,0.0289 -0.0127,0.0607 0.0272,0.0547 0.0399,-0.007 0.55668,-0.17251 1.28235,0.11853 -0.0857,0.0296 -1.04387,0.43956 -1.85314,0.34784 -0.12136,-0.004 -0.97191,-0.11466 -1.04211,-0.54646 -0.01,-0.0543 -0.024,-0.0744 -0.0529,-0.0194 -0.0258,0.049 -0.26176,0.40111 0.10901,0.65405 -0.11747,0.24801 -0.32702,0.5842 -0.64664,0.71614 -0.10477,0.0392 -0.57185,0.15875 -1.04352,-0.0526 -0.0582,-0.0187 -0.14358,0.0282 -0.0557,0.0882 0.0885,0.0607 0.95073,0.61172 1.51059,0.0318 0.0991,-0.1016 0.26741,-0.37288 0.39511,-0.69814 0.57362,0.3122 1.52753,0.14075 1.52753,0.14075 0.20743,-0.0441 0.42474,-0.10512 0.64982,-0.19226 0.11818,-0.0483 0.92992,-0.41557 1.47955,-0.28751 0.115,0.0282 0.14146,0.0282 0.14146,0.0282 0,0 0.0988,-0.21061 0.121,-0.26176 0.0222,-0.0512 0.048,-0.0801 -0.10548,-0.0896 m -4.07388,-1.02165 c 0.0441,0.0441 0.091,0.0825 0.14217,0.11712 l 0.002,0.0275 -0.22437,0.22472 -0.0448,0.003 c -0.0476,-0.0325 -0.0928,-0.0709 -0.13617,-0.11289 -0.0388,-0.0395 -0.0737,-0.0815 -0.10478,-0.12559 l 0.006,-0.0413 0.22472,-0.22542 0.0247,0.002 c 0.0339,0.0445 0.0695,0.09 0.11042,0.13088"
         style="fill:#231f20;fill-opacity:1;fill-rule:nonzero;stroke:none;stroke-width:0.352778"
         clip-path="url(#clipPath1)"
         id="path37" /></g></g></svg>
