<?xml version="1.0" encoding="UTF-8" standalone="no"?>
<!-- Created with Inkscape (http://www.inkscape.org/) -->

<svg
   width="21.91453mm"
   height="6.9146843mm"
   viewBox="0 0 21.914529 6.9146841"
   version="1.1"
   id="svg1"
   xml:space="preserve"
   xmlns="http://www.w3.org/2000/svg"
   xmlns:svg="http://www.w3.org/2000/svg"><defs
     id="defs1" /><g
     id="layer1"
     transform="translate(-314.96647,-19.877882)"><g
       id="g42"
       transform="translate(139.2319,-78.279887)"><path
         d="m 179.49811,100.71765 -0.20461,0.24447 -0.002,0.042 c 0.0353,0.0413 0.0737,0.0797 0.11606,0.11536 0.0462,0.0384 0.0952,0.0723 0.14464,0.10054 l 0.0441,-0.007 0.20426,-0.24412 -0.004,-0.0272 c -0.054,-0.0293 -0.10407,-0.0631 -0.15169,-0.10372 -0.0448,-0.037 -0.0836,-0.079 -0.12206,-0.12065 z m 0.0871,0.81209 -0.008,0.0148 -0.10195,-0.0744 c -0.0459,-0.0381 -0.0864,-0.0818 -0.12453,-0.12488 l -0.0272,3.5e-4 -0.21166,0.25329 -0.003,0.0441 c 0.037,0.0423 0.0762,0.0826 0.12101,0.1196 0.0466,0.0402 0.0974,0.0751 0.14993,0.10442 l 0.0462,-0.008 0.19967,-0.23813 0.078,0.073 c 0.048,0.0402 0.0981,0.0748 0.15028,0.10407 l 0.0462,-0.007 0.21096,-0.25294 -0.006,-0.0282 c -0.054,-0.031 -0.10584,-0.066 -0.15628,-0.1083 -0.0462,-0.0381 -0.0854,-0.0815 -0.12453,-0.12488 h -0.0261 z m 3.59164,-1.14265 c 0.0346,-0.0148 0.94826,-0.397225 1.01035,-0.42827 0.0621,-0.0314 0.0974,-0.04128 0.12665,-0.09454 0.0289,-0.05327 0.0374,-0.06279 0.0543,-0.100189 0.0173,-0.03916 0.037,-0.08467 -0.0759,-0.03175 -0.073,0.03422 -0.97014,0.412049 -1.0474,0.443439 -0.0773,0.0307 -0.10089,0.0455 -0.11853,0.0981 -0.0166,0.0519 -0.0261,0.0797 -0.0296,0.091 -0.0145,0.0356 -0.0342,0.0709 0.0801,0.0222 m 5.56753,0.0667 c -0.008,-0.0868 -0.0215,-0.10266 0.0296,-0.14569 0.0508,-0.0441 0.17427,-0.13088 0.11571,-0.21414 -0.0579,-0.0833 -0.1591,-0.22719 -0.18662,-0.316795 -0.0243,-0.07408 -0.0448,-0.136525 -0.0836,-0.07938 -0.0452,0.06632 -0.0639,0.10548 -0.12524,0.182739 -0.0325,0.03986 -0.0649,0.05927 -0.031,0.121706 0.0462,0.0854 0.12065,0.22896 0.11218,0.33444 -0.0109,0.15345 0.3429,1.99778 0.31433,2.07927 -0.0289,0.0815 -0.59514,0.20602 -0.83997,0.009 -0.0476,-0.0289 -0.0667,-0.0384 -0.0765,0.0487 -0.007,0.0653 -0.0441,0.31326 0.20885,0.39758 -0.0811,0.1912 -0.34432,0.69744 -0.79658,0.8823 -0.10865,0.0413 -0.61277,0.20249 -1.10384,-0.0173 -0.0603,-0.0191 -0.14993,0.0289 -0.0579,0.0917 0.0917,0.0628 1.08867,0.54786 1.67322,-0.0579 0.079,-0.0794 0.32632,-0.46497 0.44415,-0.87242 0.0526,0.002 0.11112,7e-4 0.17921,-0.007 0.18662,-0.01 0.44873,-0.0646 0.47272,-0.28575 0.024,-0.22049 0.036,-0.61137 -0.1083,-1.39418 -0.0473,-0.26811 -0.14041,-0.75706 -0.14041,-0.75706 m -2.44475,2.60244 c 0.0275,-0.0536 0.0353,-0.0628 0.0505,-0.10089 0.0173,-0.0402 0.0356,-0.0868 -0.0759,-0.0303 -0.0723,0.0367 -0.95743,0.44097 -1.03363,0.47519 -0.0759,0.0335 -0.0991,0.0487 -0.11501,0.10195 -0.0152,0.0526 -0.0226,0.0808 -0.0268,0.0907 -0.0131,0.0367 -0.0321,0.0723 0.0801,0.0208 0.0342,-0.0166 0.93627,-0.4258 0.99695,-0.45896 0.0607,-0.0339 0.096,-0.0441 0.12382,-0.0984 m -0.46707,0.89887 c -0.21097,0.0194 -1.48626,0.21626 -2.05176,0.048 -0.56621,-0.16757 -0.7814,-0.623 -0.64699,-1.34267 0.12947,-0.57432 0.43356,-0.86184 0.70344,-1.03611 0.15275,0.17427 0.4325,0.38382 0.9846,0.36513 0.11148,0 0.65616,-0.0282 1.1624,-0.28011 0.0621,-0.0342 0.12453,-0.1083 0.15769,-0.37183 0.01,-0.115 0.0434,-0.49388 -0.2854,-0.81773 -0.0385,-0.0427 -0.0572,-0.0452 -0.0716,0.0145 -0.0145,0.06 -0.0624,0.34043 -0.0624,0.34043 0.10583,0.13899 0.31891,0.43885 0.26846,0.4699 -0.0508,0.031 -0.93486,0.43885 -1.68028,0.19226 -0.0166,-0.007 -0.0818,-0.0402 -0.16404,-0.0882 0.0854,-0.0462 0.14817,-0.085 0.1711,-0.13088 0.0653,-0.1263 0.15416,-0.31221 0.0169,-0.41063 -0.0413,-0.0339 -0.26705,-0.17251 -0.56233,-0.127 -0.29562,0.0459 -0.45896,0.15592 -0.5595,0.52493 -0.0166,0.073 0.0123,0.10019 0.054,0.0554 0.0385,-0.0409 0.20673,-0.16475 0.38771,0.0233 -0.0494,0.0459 -0.10196,0.10054 -0.15699,0.17427 -0.16757,0.22543 -0.61807,0.81986 -0.56021,1.68804 0.0621,0.94404 0.75247,1.37548 1.77835,1.16946 0.24377,-0.0483 1.04528,-0.27834 1.15076,-0.32561 0.10548,-0.0483 0.1778,-0.15346 -0.0339,-0.13476 m -0.39123,-1.74696 -0.025,-0.003 -0.22437,0.22613 -0.007,0.0416 c 0.0314,0.0441 0.0667,0.085 0.10583,0.12559 0.0427,0.0416 0.0882,0.0797 0.13582,0.11253 l 0.0448,-0.003 0.22437,-0.22542 -0.002,-0.0279 c -0.0512,-0.0332 -0.0981,-0.0723 -0.14217,-0.11642 -0.0413,-0.0406 -0.0759,-0.0857 -0.11006,-0.13053 m 4.15113,-2.08668 c -0.01,-0.139696 -0.031,-0.261405 -0.0878,-0.149574 -0.0603,0.117124 -0.0907,0.268114 -0.0635,0.472724 0.0406,0.35031 0.0836,0.61454 0.12418,0.86713 0.0402,0.254 0.18097,1.01212 0.18768,1.55187 0.002,0.127 0.0522,0.15733 0.0871,0.0667 0.0617,-0.15664 0.0822,-0.59585 -0.008,-1.23578 -0.0452,-0.32315 -0.21766,-1.31763 -0.23989,-1.57304 m -2.30893,-0.147462 c 0.0349,-0.01588 0.94333,-0.410634 1.00436,-0.443442 0.0614,-0.03175 0.097,-0.04198 0.12559,-0.09631 0.0286,-0.05327 0.0363,-0.06244 0.0529,-0.100542 0.0162,-0.03986 0.0356,-0.08537 -0.0762,-0.03069 -0.073,0.03528 -0.96378,0.42545 -1.04104,0.458259 -0.0776,0.0321 -0.0998,0.04692 -0.11677,0.09984 -0.0159,0.05186 -0.0247,0.08008 -0.0289,0.09137 -0.0138,0.03563 -0.0321,0.07161 0.0801,0.02152 m -0.49036,1.201557 c 0.0317,0.25577 0.14534,1.01918 0.13441,1.55858 -0.004,0.127 0.0451,0.15945 0.084,0.0691 0.0667,-0.15346 0.10266,-0.59196 0.0349,-1.23473 -0.0342,-0.32385 -0.17109,-1.32362 -0.1845,-1.58044 -0.005,-0.140053 -0.0226,-0.262114 -0.0818,-0.1524 -0.0649,0.115711 -0.1009,0.26458 -0.0811,0.47025 0.0286,0.35278 0.0617,0.61666 0.0942,0.8696 m -4.30424,0.58455 c -0.10548,0.0716 -0.66816,0.39829 -1.01318,0.34608 -0.34537,-0.0529 -0.49883,-0.26917 -0.49883,-0.37924 0,-0.11042 0.0819,-0.28257 0.254,-0.35489 0.17251,-0.0716 0.52282,-0.20144 0.68122,-0.10478 0.15804,0.0963 0.19614,0.0183 0.12029,-0.0579 -0.0769,-0.0773 -0.42262,-0.30691 -0.73871,-0.17744 -0.43639,0.20178 -0.48931,0.57502 -0.51294,0.80045 -0.0243,0.22507 0.115,0.41275 0.27799,0.53269 -0.10584,0.0452 -0.56198,0.14782 -0.71861,-0.0832 l 0.009,-0.0653 c 0.005,-0.10618 -0.0624,-0.11571 -0.0914,-0.0102 -0.0289,0.10619 -0.0445,0.24271 -0.0956,0.34573 -0.0921,0.18344 -0.35666,0.0409 -0.46567,-0.008 0.031,-0.0924 0.0575,-0.20074 0.0769,-0.32597 0.0116,-0.0716 -0.0321,-0.13123 -0.0801,0.018 -0.0473,0.1464 -0.21625,0.58208 -0.9652,0.33126 0.0102,-0.0885 0.0639,-0.28434 -0.10018,-0.20003 -0.17745,0.0914 -0.60784,0.25471 -0.8569,0.31644 -0.16193,0.0406 -0.18733,0.0656 -0.16193,0.13688 0.0243,0.0723 0.0681,0.26212 0.15346,0.2346 0.018,-0.007 0.0487,-0.0159 0.0854,-0.0275 -0.0727,0.19297 -0.32949,0.79022 -0.79233,0.98002 -0.10866,0.0413 -0.57821,0.17215 -1.07069,-0.048 -0.061,-0.0198 -0.14993,0.0289 -0.0579,0.0917 0.0921,0.0632 1.0675,0.58878 1.65206,-0.0166 0.1337,-0.13759 0.32491,-0.57927 0.44979,-1.05305 l -3.5e-4,-0.0113 c 0.0991,-0.0318 0.18626,-0.06 0.18626,-0.06 0.0533,-0.0187 0.2667,-0.10971 0.38453,-0.16122 0.36583,0.26988 0.71861,0.36301 0.95038,0.0755 0.28928,0.26635 0.49918,0.20885 0.58844,0.0723 0.0377,-0.0575 0.0794,-0.1651 0.11571,-0.28045 0.11888,0.0928 0.37359,0.31891 1.08761,-0.0215 0.20638,-0.091 1.1042,-0.51365 1.1042,-0.51365 0.0434,-0.11042 0.14852,-0.39335 0.0434,-0.32103 m -4.0446,-1.11865 c 0.0349,-0.0145 1.53494,-0.63994 1.59632,-0.671694 0.0614,-0.03104 0.097,-0.04092 0.12665,-0.09454 0.0296,-0.05292 0.0367,-0.06209 0.0533,-0.09878 0.018,-0.04022 0.0377,-0.08608 -0.0751,-0.03281 -0.0727,0.03457 -1.55575,0.655464 -1.63301,0.687214 -0.0773,0.0314 -0.10054,0.0462 -0.11748,0.0981 -0.0169,0.0522 -0.0254,0.0801 -0.0303,0.0914 -0.0141,0.0349 -0.0335,0.0709 0.0797,0.0212 m 2.47438,-0.1016 c 0.0339,-0.018 1.09185,-0.44662 1.14935,-0.48366 0.0586,-0.037 0.0935,-0.0515 0.11713,-0.106893 0.0247,-0.05539 0.0303,-0.06597 0.0437,-0.104775 0.0138,-0.04057 0.0289,-0.08819 -0.078,-0.02364 -0.0692,0.04022 -1.11055,0.463198 -1.18463,0.501648 -0.0741,0.0395 -0.0956,0.0561 -0.1076,0.10972 -0.0116,0.054 -0.0173,0.0822 -0.0208,0.0935 -0.0106,0.0367 -0.0265,0.0744 0.0808,0.0141 m -4.179,1.64994 c 0.0321,-0.0208 1.1998,-0.49883 1.25589,-0.53799 0.0564,-0.0399 0.0914,-0.0547 0.11289,-0.11112 0.0215,-0.0572 0.0272,-0.067 0.0385,-0.10619 0.0116,-0.0416 0.025,-0.0903 -0.079,-0.0215 -0.067,0.0445 -1.21814,0.51576 -1.29082,0.55774 -0.0716,0.0423 -0.0931,0.0593 -0.10195,0.11395 -0.01,0.054 -0.0145,0.0829 -0.0173,0.0938 -0.009,0.0374 -0.0229,0.0751 0.0819,0.0113 m 11.38625,-1.35467 c 0.019,0.0476 0.0346,0.10231 0.0321,0.13371 -0.0744,0.0723 -0.15487,0.084 -0.21343,0.036 -0.037,-0.0307 -0.0512,-0.0889 -0.0473,-0.16475 0.002,-0.0547 0.009,-0.0751 -0.0395,-0.0367 -0.0621,0.0508 -0.0455,0.0462 -0.0487,0.0744 -0.0222,0.17886 -0.0991,0.25929 -0.23707,0.26882 -0.0868,0.006 -0.15063,-0.0543 -0.09,-0.22649 0.0127,-0.0367 -0.013,-0.0755 -0.0515,0 -0.12982,0.25894 -0.0504,0.40252 0.0818,0.42228 0.10725,0.0159 0.23601,-0.0452 0.30092,-0.20885 0.0501,0.0829 0.1517,0.10725 0.24307,0.0833 0.11712,-0.0307 0.14287,-0.085 0.17603,-0.17991 0.0328,-0.0914 0.0335,-0.21308 -0.0106,-0.35772 -0.007,-0.0251 -0.0201,-0.0116 -0.0257,7.1e-4 l -0.0624,0.11853 c -0.008,0.013 -0.0134,0.0222 -0.008,0.0367 m 6.39163,-0.41452 c -0.0561,-0.0349 -0.0554,-0.0759 -0.03,-0.11465 0.0843,-0.13017 0.14499,-0.12629 0.20073,-0.066 0.0896,0.11465 0.0695,0.30515 0.06,0.34043 0,0 -0.17427,-0.12523 -0.23072,-0.15981 m 0.22366,0.42722 c 0.1203,0.0561 0.1711,0.18344 0.18733,0.13652 0.0452,-0.13299 0.0607,-0.20778 0.0265,-0.24483 -0.0254,-0.0261 -0.11183,-0.0914 -0.11183,-0.0914 0.0317,-0.0748 0.097,-0.33796 -0.0113,-0.54786 -0.0265,-0.0448 -0.13335,-0.211667 -0.35772,0.0402 -0.0871,0.0963 -0.19932,0.34255 -0.11077,0.4318 0.0885,0.0885 0.28257,0.21378 0.28257,0.21378 -0.1016,0.17428 -0.34642,0.3295 -0.66569,0.55669 -0.20814,0.14887 -0.13017,0.20002 -0.0399,0.15663 0.60325,-0.2854 0.70661,-0.45332 0.8008,-0.65158 m -3.46004,-0.43251 c -0.0561,-0.0353 -0.0557,-0.0762 -0.03,-0.11535 0.0843,-0.12983 0.14535,-0.12595 0.20073,-0.0656 0.09,0.11535 0.0695,0.3055 0.06,0.34043 0,0 -0.17392,-0.12524 -0.23072,-0.15946 m 0.22366,0.42721 c 0.1203,0.0557 0.17145,0.1838 0.18732,0.13653 0.0455,-0.13335 0.061,-0.20814 0.0268,-0.24483 -0.0254,-0.0265 -0.11219,-0.091 -0.11219,-0.091 0.0317,-0.0751 0.0974,-0.33796 -0.0113,-0.54857 -0.0265,-0.0452 -0.13335,-0.211665 -0.35736,0.0406 -0.0875,0.0967 -0.19967,0.3422 -0.11113,0.43145 0.0885,0.0885 0.28293,0.21378 0.28293,0.21378 -0.1016,0.17428 -0.34678,0.3295 -0.66604,0.55669 -0.20814,0.14887 -0.13018,0.20002 -0.0395,0.15698 0.60325,-0.28539 0.70661,-0.45296 0.80045,-0.65158 m 1.61184,-0.46919 c 0.0123,-0.004 0.0272,-0.002 0.0423,-0.0159 0.049,-0.0466 0.0903,-0.16898 0.0949,-0.21096 -0.005,-0.0318 -0.1203,-0.0434 -0.1531,-0.0515 -0.11395,-0.0272 -0.2219,-0.0871 -0.34008,-0.0945 -0.18274,-0.01129 -0.35137,0.0706 -0.44556,0.26246 -0.0102,0.0247 -0.0254,0.0582 -0.0356,0.0833 -0.0113,0.0423 0.0106,0.0706 0.0325,0.0381 0.0254,-0.0378 0.0564,-0.0748 0.0959,-0.0984 0.0931,-0.0568 0.19262,-0.0783 0.29386,-0.0684 0.0917,0.009 0.26424,0.0734 0.26388,0.0822 -10e-4,0.0205 -0.40181,0.21837 -0.46425,0.25718 -0.0272,0.0173 -0.0607,0.049 -0.0547,0.0801 0.005,0.024 0.043,0.0293 0.0758,0.0176 0.15734,-0.0571 0.21379,-0.0529 0.34114,-0.10689 0.17145,-0.0737 0.2226,-0.16546 0.25294,-0.17428 m -2.08456,2.40242 c -0.024,0.0512 -0.0554,0.13935 -0.0741,0.1905 -0.006,0.018 0.008,0.0402 0.0303,0.0272 0.12736,-0.078 0.3175,-0.17392 0.51894,-0.24553 0.18344,-0.0649 0.32738,-0.10689 0.46037,-0.1143 0.0201,-0.003 0.12912,-0.19438 0.1457,-0.2219 0.0226,-0.036 0.006,-0.0473 -0.0226,-0.0416 -0.15416,0.0296 -0.2741,0.0568 -0.46072,0.0395 -0.23107,-0.0205 -0.41099,-0.1965 -0.40499,-0.26564 0.005,-0.0526 0.16898,-0.15769 0.23001,-0.14781 0.17674,0.0272 0.17356,0.18309 0.22119,0.1845 0.0568,0.002 0.17251,-0.20179 0.17921,-0.25753 0.008,-0.06 -0.11324,-0.20496 -0.2286,-0.21167 -0.18979,-0.0116 -0.51153,0.3101 -0.63817,0.50836 -0.0459,0.0727 -0.0413,0.1845 0.0247,0.2413 0.0586,0.0497 0.15487,0.10265 0.26423,0.16862 -0.0536,0.0194 -0.19332,0.1009 -0.24553,0.14605 m 6.51298,-0.9853 c -0.0318,-0.29987 -0.1584,-1.2252 -0.17039,-1.46262 -0.005,-0.13053 -0.0215,-0.24271 -0.0773,-0.14252 -0.0593,0.10759 -0.0924,0.24624 -0.0734,0.43603 0.0258,0.32632 0.0565,0.5715 0.0861,0.80574 0.0293,0.23742 0.13476,0.94369 0.12418,1.44392 -0.002,0.11713 0.0423,0.14711 0.0783,0.0628 0.0617,-0.14181 0.0949,-0.54751 0.0325,-1.14335 m -1.518,1.55011 c -0.0416,-0.0409 -0.0769,-0.0864 -0.11113,-0.13124 l -0.0243,-0.002 -0.22472,0.22578 -0.006,0.0413 c 0.031,0.0441 0.0663,0.0857 0.10513,0.12489 0.0427,0.0434 0.0885,0.0804 0.13617,0.11359 l 0.0441,-0.004 0.22507,-0.22543 -0.002,-0.0275 c -0.0515,-0.0335 -0.0984,-0.0713 -0.14181,-0.11606 m 1.04669,-1.09361 c -0.15311,-0.01 -0.86254,-0.0226 -1.27847,-0.25224 0.0413,-0.0349 0.13124,-0.15099 0.0991,-0.44167 -0.0314,-0.29069 -0.14781,-1.12184 -0.14781,-1.12184 -0.01,-0.0868 -0.0448,-0.16968 0.005,-0.21378 0.0497,-0.0452 0.15381,-0.121 0.0938,-0.2032 -0.06,-0.08184 -0.16298,-0.237421 -0.19296,-0.325616 -0.025,-0.07408 -0.0473,-0.136525 -0.0847,-0.07796 -0.0441,0.06738 -0.0596,0.153458 -0.11924,0.231775 -0.031,0.04092 -0.0635,0.06103 -0.0279,0.123119 0.048,0.08396 0.0956,0.237772 0.10513,0.342902 0.004,0.0557 0.0198,0.17462 0.0356,0.28822 0,0 0.2032,1.04986 0.18697,1.22026 0,0 -0.84032,0.0296 -0.94968,0.13582 l -0.16827,0.26176 c -0.0141,0.0289 -0.013,0.061 0.0272,0.0543 0.0399,-0.007 0.55669,-0.17216 1.282,0.11853 -0.0857,0.0296 -1.04387,0.43956 -1.85279,0.34784 -0.12136,-0.003 -0.97191,-0.11465 -1.04246,-0.5461 -0.01,-0.0543 -0.0236,-0.0744 -0.0526,-0.0194 -0.0258,0.049 -0.26177,0.40111 0.109,0.6537 -0.11747,0.248 -0.32702,0.58455 -0.64664,0.71649 -0.10477,0.0388 -0.57185,0.15875 -1.04351,-0.0526 -0.0582,-0.019 -0.14394,0.0279 -0.0561,0.0882 0.0885,0.0603 0.95109,0.61171 1.51095,0.0314 0.0988,-0.10125 0.26705,-0.37289 0.39511,-0.6978 0.57362,0.31186 1.52753,0.14041 1.52753,0.14041 0.20743,-0.0441 0.42474,-0.10513 0.64982,-0.19227 0.11818,-0.0483 0.92957,-0.41557 1.47955,-0.28716 0.11465,0.0286 0.14111,0.0286 0.14111,0.0286 0,0 0.0991,-0.21131 0.12135,-0.26211 0.0222,-0.0511 0.048,-0.0801 -0.10583,-0.0896 m -4.07388,-1.022 c 0.0441,0.0441 0.091,0.0825 0.14252,0.11748 l 0.002,0.0272 -0.22472,0.22472 -0.0445,0.004 c -0.0476,-0.0325 -0.0931,-0.0709 -0.13617,-0.11324 -0.0388,-0.0395 -0.0741,-0.0811 -0.10513,-0.12524 l 0.006,-0.0413 0.22507,-0.22578 0.0247,0.002 c 0.0339,0.0448 0.0691,0.0903 0.11006,0.13088"
         style="fill:#231f20;fill-opacity:1;fill-rule:nonzero;stroke:none;stroke-width:0.352778"
         clip-path="url(#clipPath1)"
         id="path47" /></g></g></svg>
