<?xml version="1.0" encoding="UTF-8" standalone="no"?>
<!-- Created with Inkscape (http://www.inkscape.org/) -->

<svg
   width="24.107664mm"
   height="6.9146843mm"
   viewBox="0 0 24.107663 6.9146841"
   version="1.1"
   id="svg1"
   xml:space="preserve"
   xmlns="http://www.w3.org/2000/svg"
   xmlns:svg="http://www.w3.org/2000/svg"><defs
     id="defs1" /><g
     id="layer1"
     transform="translate(-236.20021,-19.877882)"><g
       id="g44"
       transform="translate(187.61603,-28.854256)"><path
         d="m 52.266101,51.296144 -0.20461,0.244827 -0.002,0.04163 c 0.0353,0.04128 0.0737,0.08008 0.11606,0.115711 0.0462,0.0381 0.0952,0.07197 0.14464,0.100189 l 0.0441,-0.0067 0.20426,-0.244122 -0.004,-0.02716 c -0.054,-0.02928 -0.10407,-0.06279 -0.15169,-0.103716 -0.0445,-0.03669 -0.0836,-0.07902 -0.12206,-0.12065 z m 0.0875,0.812447 -0.008,0.01446 -0.10195,-0.07444 c -0.0459,-0.0381 -0.0864,-0.08184 -0.12453,-0.124884 l -0.0272,3.53e-4 -0.21166,0.253295 -0.003,0.0441 c 0.037,0.04233 0.0762,0.0829 0.121,0.119944 0.0469,0.04022 0.0974,0.07514 0.15028,0.104422 l 0.0459,-0.0085 0.19967,-0.237772 0.078,0.07267 c 0.048,0.03986 0.0981,0.07479 0.15028,0.104422 l 0.0462,-0.0071 0.21096,-0.253294 -0.006,-0.02787 c -0.054,-0.0314 -0.10584,-0.06597 -0.15628,-0.108303 -0.0462,-0.0381 -0.0854,-0.08149 -0.12453,-0.125236 h -0.0261 z m 2.90301,0.220486 c -0.10548,0.07197 -0.66817,0.398639 -1.01318,0.346428 -0.34537,-0.05292 -0.49883,-0.26917 -0.49883,-0.378884 0,-0.110419 0.0819,-0.282927 0.25435,-0.354894 0.17216,-0.07161 0.52247,-0.201789 0.68086,-0.105128 0.15805,0.09596 0.19615,0.0187 0.1203,-0.05785 -0.0769,-0.07691 -0.42263,-0.306211 -0.73871,-0.177448 -0.43639,0.201789 -0.48895,0.575381 -0.51294,0.800453 -0.0243,0.225425 0.115,0.412397 0.27799,0.533047 -0.10584,0.04516 -0.56198,0.147462 -0.71861,-0.08361 l 0.009,-0.06562 c 0.005,-0.10548 -0.0624,-0.115005 -0.0914,-0.0095 -0.0289,0.105834 -0.0445,0.242359 -0.0956,0.34537 -0.0921,0.183797 -0.3563,0.04163 -0.46566,-0.0081 0.031,-0.09313 0.0575,-0.200378 0.0769,-0.325967 0.0116,-0.07161 -0.0321,-0.131586 -0.0801,0.01799 -0.0473,0.146403 -0.21625,0.58173 -0.9652,0.330906 0.0102,-0.08855 0.0639,-0.284339 -0.10019,-0.199673 -0.17744,0.09102 -0.60783,0.255059 -0.85654,0.316442 -0.16228,0.04057 -0.18768,0.06562 -0.16228,0.136878 0.0243,0.07161 0.0681,0.261761 0.15346,0.233891 0.018,-0.0056 0.0487,-0.01587 0.0854,-0.02716 -0.0727,0.193323 -0.32949,0.790223 -0.79198,0.980017 -0.10901,0.04163 -0.57856,0.172508 -1.07104,-0.04727 -0.0603,-0.02011 -0.14993,0.02822 -0.0579,0.09102 0.0921,0.0635 1.0675,0.588786 1.65206,-0.01623 0.1337,-0.137584 0.3249,-0.579261 0.44979,-1.053395 l -3.6e-4,-0.01094 c 0.0991,-0.03175 0.18627,-0.05997 0.18627,-0.05997 0.0533,-0.01905 0.26705,-0.109714 0.38488,-0.161219 0.36548,0.270227 0.71826,0.362655 0.95003,0.07549 0.28928,0.265994 0.49918,0.209197 0.58844,0.07232 0.0377,-0.0575 0.0794,-0.165452 0.11571,-0.280458 0.11924,0.09243 0.37394,0.318558 1.08761,-0.02152 0.20637,-0.09102 1.10419,-0.513997 1.10419,-0.513997 0.0434,-0.110067 0.14852,-0.393348 0.0434,-0.321381 m -4.0446,-1.117953 c 0.0349,-0.01446 1.53494,-0.639939 1.59632,-0.671689 0.0614,-0.03104 0.097,-0.04092 0.12665,-0.09419 0.0296,-0.05327 0.0367,-0.06279 0.0533,-0.09948 0.018,-0.03986 0.0377,-0.08573 -0.0752,-0.03246 -0.0727,0.03457 -1.55575,0.655461 -1.633,0.686858 -0.0773,0.03175 -0.10055,0.04657 -0.11748,0.09843 -0.0169,0.05256 -0.0254,0.08008 -0.03,0.09102 -0.0145,0.03528 -0.0339,0.07126 0.0794,0.02152 m 2.47438,-0.1016 c 0.0339,-0.01764 1.09185,-0.446616 1.15006,-0.484364 0.0582,-0.03669 0.0928,-0.0508 0.11677,-0.106186 0.0243,-0.05574 0.0303,-0.06597 0.0434,-0.104775 0.0138,-0.04057 0.0289,-0.08819 -0.078,-0.02434 -0.0691,0.04092 -1.11054,0.46355 -1.18427,0.502355 -0.0737,0.03916 -0.096,0.05574 -0.10795,0.110067 -0.0116,0.05362 -0.0173,0.08184 -0.0208,0.09278 -0.0106,0.03669 -0.0265,0.07408 0.0808,0.01446 m -4.179,1.649942 c 0.0321,-0.02081 1.19979,-0.498828 1.25589,-0.537633 0.0564,-0.04057 0.0914,-0.05503 0.11288,-0.112184 0.0215,-0.05644 0.0272,-0.06668 0.0385,-0.105833 0.012,-0.04163 0.025,-0.08996 -0.079,-0.02117 -0.067,0.04445 -1.21779,0.515409 -1.29047,0.557742 -0.072,0.04198 -0.0935,0.05927 -0.1023,0.113242 -0.01,0.05503 -0.0145,0.08361 -0.0173,0.09419 -0.009,0.0374 -0.0229,0.0755 0.0818,0.01164 m 14.4399,-1.727553 c -0.006,-0.06279 0.004,-0.09137 0.0155,-0.107597 0.0148,-0.02011 0.0861,-0.122414 0.11042,-0.174978 0.0123,-0.02752 -0.0106,-0.09525 -0.0402,-0.134055 -0.0434,-0.05574 -0.14428,-0.222603 -0.15557,-0.271287 -0.0134,-0.05468 -0.0441,-0.1143 -0.0677,-0.0635 -0.0501,0.107598 -0.11853,0.177448 -0.13582,0.203553 -0.0169,0.02681 -0.0504,0.113947 -0.009,0.192617 0.0406,0.07937 0.0769,0.132997 0.085,0.186972 0.009,0.05539 0.008,0.150989 0.0321,0.267053 0.0289,0.140053 0.32103,1.82633 0.3355,1.914525 0.0148,0.08678 0.0342,0.182033 -0.0603,0.206022 -0.12171,0.0314 -0.47978,-0.03598 -0.55351,-0.05045 0.031,-0.106539 0.0519,-0.192264 0.0575,-0.221897 0.0141,-0.07761 -0.0649,-0.05433 -0.0815,-0.0095 -0.0176,0.0448 -0.115,0.318911 -0.15522,0.4445 -0.0377,0.116769 -0.31856,-0.0046 -0.42192,-0.04904 0.0748,-0.134761 0.0921,-0.257174 0.10089,-0.297038 0.0254,-0.114653 -0.0512,-0.08185 -0.0639,-0.03775 -0.18344,0.490009 -0.81068,0.518584 -1.01812,0.500239 0.0984,-0.114653 0.17463,-0.267405 0.19968,-0.475191 0.01,-0.07302 -0.0413,-0.09243 -0.0734,-0.01905 -0.0321,0.07302 -0.21096,0.486127 -0.77682,0.496005 -0.0797,0.0028 -0.5595,0.0127 -0.62653,-0.582083 -0.0194,-0.179564 -0.35807,-2.538236 -0.39335,-2.621139 -0.0349,-0.08326 -0.0444,-0.0381 -0.0547,-0.01623 l -0.0794,0.278342 c 0.0289,0.166158 0.22083,1.506008 0.25258,1.719792 0.0321,0.213783 0.11501,0.837494 0.14711,0.977547 0.10231,0.675216 0.67099,0.575733 0.67099,0.575733 0.0388,-0.0014 0.19191,-0.0127 0.363,-0.07902 0.6283,0.09102 0.98143,-0.03704 1.18181,-0.210609 l 3.5e-4,0.0081 c 0.019,0.103717 0.34502,0.216606 0.42298,0.227542 0.0773,0.01058 0.0988,0.0018 0.14852,-0.07408 0.0483,-0.09031 0.0956,-0.212725 0.13582,-0.332317 0.0501,0.0314 0.15452,0.09172 0.31715,0.1524 0.11183,0.04127 0.39052,0.116417 0.44379,-0.006 0.0536,-0.121356 0.12912,-0.433211 0.0476,-0.826558 -0.0448,-0.216606 -0.30127,-1.69157 -0.30127,-1.69157 m -5.44795,0.852664 c -0.0208,0.04763 -0.0466,0.166864 -0.067,0.249414 -0.0205,0.08149 0.0353,0.405342 0.0427,0.446264 0.007,0.03845 -0.30586,-0.0028 -0.43674,-0.04657 0.0243,-0.08079 0.0409,-0.171803 0.0469,-0.276578 0.005,-0.07197 -0.0649,-0.151341 -0.10054,0.0028 -0.0339,0.150283 -0.19368,0.594783 -0.83291,0.480483 -0.072,-0.143228 -0.14394,-0.26282 -0.14394,-0.26282 -0.0377,-0.06668 -0.073,-0.110066 -0.0896,-0.07126 -0.0166,0.03916 -0.0737,0.343253 -0.0737,0.343253 0.084,0.117828 0.40993,0.756003 0.37923,0.867481 -0.03,0.11183 -0.29668,0.67063 -1.13841,0.627238 -0.0875,-0.0049 -0.94262,-0.125588 -0.51752,-1.103488 0.0155,-0.03528 -0.0219,-0.105481 -0.0762,-0.02469 -0.0713,0.104422 -0.49354,1.248128 0.39475,1.461558 0.15029,0.03669 0.82445,0.09984 1.3134,-0.466019 0.0564,-0.06562 0.21731,-0.389114 0.1023,-0.97155 0.10442,-0.01164 0.38065,-0.06279 0.57679,-0.299508 0.0928,0.07302 0.27376,0.123825 0.39723,0.137936 0.14288,0.01693 0.18027,-0.04127 0.27728,-0.19932 0.14323,-0.35313 0.0554,-0.749652 0.0141,-0.857602 -0.0402,-0.10795 -0.0476,-0.08537 -0.0681,-0.03704 m 2.74144,-0.743656 c 0.0356,-0.01587 1.75824,-0.743655 1.81892,-0.775758 0.0614,-0.03175 0.0967,-0.04269 0.12594,-0.09596 0.0289,-0.05327 0.0356,-0.06244 0.0522,-0.100189 0.0173,-0.03986 0.037,-0.08537 -0.0755,-0.0314 -0.0727,0.03492 -1.77765,0.758473 -1.85491,0.790928 -0.0769,0.03175 -0.0998,0.04621 -0.11642,0.09948 -0.0173,0.05256 -0.0247,0.08043 -0.0293,0.09137 -0.0141,0.03492 -0.0325,0.07161 0.079,0.02152 m -1.16347,2.813403 c -0.0727,0.03493 -0.9652,0.424039 -1.0421,0.456847 -0.0765,0.0321 -0.0995,0.04692 -0.11642,0.09948 -0.0166,0.05186 -0.0247,0.08008 -0.0289,0.09137 -0.0145,0.03528 -0.0321,0.07126 0.0794,0.02152 0.0356,-0.01552 0.94474,-0.409575 1.00542,-0.441678 0.061,-0.03175 0.097,-0.04233 0.12558,-0.09596 0.0293,-0.05362 0.0367,-0.06244 0.0526,-0.09984 0.0169,-0.04057 0.0367,-0.08608 -0.0755,-0.03175 m 4.69618,-3.148189 c -0.009,-0.128764 -0.03,-0.242005 -0.0811,-0.138641 -0.0568,0.109008 -0.0843,0.248708 -0.0589,0.438502 0.037,0.324556 0.0765,0.568325 0.1143,0.801864 0.0378,0.235656 0.16686,0.938742 0.17462,1.437217 10e-4,0.118886 0.0476,0.146755 0.0804,0.06209 0.0568,-0.144639 0.0755,-0.551039 -0.008,-1.144411 -0.0416,-0.298803 -0.20073,-1.218847 -0.22119,-1.45662 m -4.95053,2.765072 c 0.0459,-0.01411 0.0871,-0.03351 0.10654,-0.08925 0.0191,-0.05574 0.096,-0.451203 -0.0607,-0.7874 -0.0437,-0.10407 -0.2607,-0.509411 -0.61806,-0.589492 l -0.0487,0.03845 -0.012,0.2921 c 0.0843,0.03175 0.41098,0.147814 0.65405,0.686153 0.0148,0.04374 0.0222,0.101952 -0.0381,0.116063 -0.21978,0.04833 -0.77082,0.191559 -0.89853,0.152753 -0.0533,-0.01446 -0.10654,-0.04621 -0.10865,0.02187 -0.003,0.06703 -0.003,0.301625 0.0843,0.321028 0.28258,0.04057 0.89359,-0.148166 0.9398,-0.162278 m -3.26531,-1.991077 c 0.0335,-0.0194 1.32151,-0.546453 1.37901,-0.5842 0.0579,-0.03739 0.0924,-0.05186 0.11606,-0.10795 0.024,-0.05503 0.0296,-0.06562 0.042,-0.104422 0.0141,-0.04163 0.0289,-0.08855 -0.0773,-0.02399 -0.0695,0.04163 -1.34055,0.563033 -1.41393,0.602897 -0.0734,0.0388 -0.0956,0.05609 -0.10689,0.110419 -0.0113,0.05327 -0.0169,0.0822 -0.0201,0.09278 -0.0109,0.03704 -0.0257,0.07514 0.0811,0.01446 m 6.17679,0.04022 c 0.0208,0.05186 0.0381,0.112537 0.0349,0.147109 -0.0818,0.07973 -0.17039,0.09278 -0.2346,0.03951 -0.0406,-0.03351 -0.0568,-0.09737 -0.0526,-0.181681 0.002,-0.05997 0.01,-0.08255 -0.043,-0.04022 -0.0688,0.05644 -0.0504,0.05115 -0.054,0.0822 -0.0247,0.197203 -0.10901,0.285397 -0.26141,0.29598 -0.0956,0.0074 -0.16581,-0.05962 -0.0991,-0.248708 0.0141,-0.04092 -0.0141,-0.08361 -0.0565,0 -0.14252,0.284339 -0.0557,0.443089 0.09,0.464961 0.11853,0.01729 0.26,-0.05009 0.33161,-0.230011 0.0554,0.09102 0.16722,0.117828 0.26776,0.09102 0.12947,-0.03387 0.15769,-0.09349 0.19403,-0.197909 0.036,-0.101247 0.0374,-0.234597 -0.0113,-0.395111 -0.008,-0.02646 -0.0222,-0.01164 -0.0286,7.06e-4 l -0.0691,0.131586 c -0.008,0.01376 -0.0141,0.02469 -0.008,0.04057 m 6.79732,-0.630061 c -0.0561,-0.03492 -0.055,-0.07549 -0.03,-0.115005 0.0843,-0.129822 0.14535,-0.125942 0.20073,-0.06562 0.09,0.115006 0.0695,0.305506 0.06,0.340783 0,0 -0.17392,-0.125588 -0.23072,-0.160161 m 0.22401,0.427214 c 0.11995,0.05644 0.1711,0.183797 0.18697,0.136878 0.0455,-0.13335 0.061,-0.207786 0.0268,-0.244828 -0.0254,-0.0261 -0.11219,-0.09137 -0.11219,-0.09137 0.0317,-0.07479 0.0974,-0.337961 -0.0113,-0.547864 -0.0265,-0.04551 -0.13335,-0.211667 -0.35736,0.03986 -0.0875,0.09666 -0.19967,0.3429 -0.11113,0.4318 0.0885,0.08855 0.28293,0.214136 0.28293,0.214136 -0.1016,0.174272 -0.34678,0.329494 -0.66604,0.557036 -0.20814,0.148519 -0.13018,0.199319 -0.0395,0.156281 0.60325,-0.28575 0.70661,-0.45332 0.8008,-0.651934 m -3.46004,-0.432505 c -0.0564,-0.03492 -0.0557,-0.07585 -0.03,-0.115006 0.084,-0.130175 0.14499,-0.125942 0.20038,-0.06597 0.09,0.115005 0.0695,0.305505 0.06,0.340783 0,0 -0.17392,-0.125589 -0.23036,-0.159808 m 0.22331,0.427214 c 0.12065,0.05609 0.17145,0.183444 0.18767,0.136525 0.0455,-0.132998 0.0607,-0.207787 0.0265,-0.244828 -0.025,-0.02611 -0.11218,-0.09137 -0.11218,-0.09137 0.0317,-0.07479 0.0974,-0.337961 -0.0109,-0.547864 -0.0268,-0.0448 -0.1337,-0.211666 -0.35771,0.04022 -0.0875,0.09631 -0.19968,0.342547 -0.11113,0.4318 0.0885,0.0882 0.28293,0.213783 0.28293,0.213783 -0.1016,0.174273 -0.34678,0.329495 -0.66605,0.556684 -0.20813,0.148872 -0.13017,0.199672 -0.0395,0.156633 0.60325,-0.285397 0.70662,-0.453319 0.80046,-0.65158 m 1.61184,-0.468842 c 0.0123,-0.0035 0.0272,-0.0021 0.0423,-0.01623 0.049,-0.04621 0.0907,-0.168628 0.0952,-0.210608 -0.005,-0.03175 -0.1203,-0.04339 -0.15346,-0.05115 -0.11359,-0.02752 -0.22189,-0.08749 -0.34007,-0.0949 -0.18239,-0.01164 -0.35137,0.07056 -0.44556,0.262466 -0.0102,0.0247 -0.0254,0.05856 -0.0353,0.08326 -0.0116,0.04233 0.0102,0.07091 0.0321,0.0381 0.0254,-0.0381 0.0568,-0.07479 0.096,-0.09843 0.0935,-0.0568 0.19261,-0.07832 0.29386,-0.06879 0.0917,0.0092 0.26423,0.07338 0.26388,0.0829 -0.001,0.0194 -0.40146,0.217664 -0.4639,0.257175 -0.0275,0.01693 -0.0607,0.04833 -0.055,0.07973 0.005,0.02399 0.0434,0.02928 0.0759,0.01764 0.15734,-0.05715 0.21414,-0.05327 0.34114,-0.107245 0.17145,-0.07373 0.2226,-0.1651 0.25294,-0.173919 m -2.08421,2.402416 c -0.0243,0.05115 -0.0557,0.138995 -0.0741,0.190148 -0.006,0.01834 0.008,0.04057 0.03,0.02716 0.12735,-0.07726 0.3175,-0.17392 0.51929,-0.245181 0.18309,-0.06491 0.32702,-0.106892 0.46002,-0.1143 0.0201,-0.0032 0.12912,-0.19438 0.1457,-0.221897 0.0226,-0.03598 0.006,-0.04727 -0.0226,-0.04198 -0.15416,0.02963 -0.27411,0.05715 -0.46073,0.03986 -0.23071,-0.02046 -0.41098,-0.19685 -0.40499,-0.265641 0.005,-0.05292 0.16898,-0.157692 0.23001,-0.14852 0.17675,0.02787 0.17357,0.183445 0.2212,0.185561 0.0568,0.0018 0.1725,-0.202494 0.17921,-0.257528 0.008,-0.06103 -0.11289,-0.204963 -0.2286,-0.212019 -0.1898,-0.01164 -0.51153,0.310444 -0.63818,0.508353 -0.0455,0.07267 -0.0413,0.18415 0.0247,0.2413 0.0586,0.05009 0.15487,0.102658 0.26423,0.168627 -0.0536,0.01905 -0.19332,0.100542 -0.24518,0.14605 m 6.51263,-0.985661 c -0.0314,-0.299508 -0.15805,-1.224844 -0.17039,-1.462616 -0.005,-0.130175 -0.0215,-0.242711 -0.0773,-0.14217 -0.0593,0.107598 -0.0921,0.246592 -0.0734,0.435681 0.0261,0.326672 0.0564,0.571853 0.0861,0.806097 0.0293,0.237067 0.13476,0.943328 0.12418,1.443567 -0.002,0.117122 0.0423,0.147814 0.0787,0.06315 0.0614,-0.141817 0.0949,-0.547158 0.0321,-1.143706 m -1.51801,1.550106 c -0.0413,-0.04057 -0.0769,-0.08573 -0.11112,-0.130528 l -0.0243,-0.0025 -0.22437,0.225777 -0.006,0.04198 c 0.0311,0.0441 0.066,0.08502 0.10478,0.124531 0.043,0.04339 0.0885,0.08079 0.13652,0.113241 l 0.0441,-0.0028 0.22472,-0.225778 -0.002,-0.02752 c -0.0512,-0.03351 -0.0984,-0.07161 -0.14182,-0.116417 m 1.0467,-1.093258 c -0.15311,-0.0099 -0.86219,-0.02293 -1.27847,-0.252589 0.0416,-0.03492 0.13159,-0.150636 0.0991,-0.441678 -0.0314,-0.290336 -0.14781,-1.121481 -0.14781,-1.121481 -0.01,-0.08678 -0.0448,-0.170391 0.005,-0.214488 0.0497,-0.0448 0.15381,-0.12065 0.0938,-0.202495 -0.0596,-0.08184 -0.16263,-0.237419 -0.19297,-0.325614 -0.025,-0.07479 -0.0473,-0.136525 -0.0847,-0.07796 -0.0441,0.06738 -0.0596,0.153459 -0.11924,0.231423 -0.0307,0.04127 -0.0635,0.06138 -0.0279,0.123119 0.048,0.08467 0.0956,0.238125 0.10512,0.343253 0.004,0.05503 0.0198,0.174625 0.0356,0.287866 0,0 0.20355,1.05022 0.18732,1.220259 0,0 -0.84067,0.02963 -0.95003,0.136172 l -0.16828,0.261408 c -0.0141,0.02893 -0.0127,0.06068 0.0272,0.05503 0.0402,-0.0071 0.55668,-0.172861 1.28235,0.11818 -0.0861,0.02963 -1.04387,0.439561 -1.85315,0.347839 -0.12135,-0.0032 -0.9719,-0.115006 -1.0421,-0.546453 -0.01,-0.05433 -0.024,-0.07408 -0.0526,-0.0194 -0.0261,0.04904 -0.26211,0.401461 0.10866,0.654049 -0.11747,0.248003 -0.32702,0.584553 -0.64664,0.715787 -0.10478,0.03951 -0.57185,0.159102 -1.04352,-0.05221 -0.0582,-0.0187 -0.14358,0.02822 -0.0557,0.0882 0.0885,0.06103 0.95074,0.612069 1.5106,0.0321 0.0988,-0.1016 0.2674,-0.373239 0.39511,-0.6985 0.57362,0.312208 1.52753,0.140758 1.52753,0.140758 0.20743,-0.0441 0.42474,-0.105481 0.64981,-0.191911 0.11818,-0.04868 0.92993,-0.415925 1.47955,-0.287514 0.11501,0.02787 0.14147,0.02787 0.14147,0.02787 0,0 0.0988,-0.210609 0.121,-0.261762 0.0222,-0.0508 0.048,-0.07973 -0.10583,-0.08925 m -4.07353,-1.021645 c 0.0441,0.0441 0.0907,0.0822 0.14217,0.11677 l 0.002,0.02752 -0.22472,0.22472 -0.0445,0.0032 c -0.0476,-0.0321 -0.0931,-0.07056 -0.13617,-0.112889 -0.0388,-0.03986 -0.0741,-0.08114 -0.10478,-0.125236 l 0.006,-0.04163 0.22507,-0.225778 0.0247,0.0021 c 0.0339,0.0448 0.0691,0.08996 0.11042,0.131233"
         style="fill:#231f20;fill-opacity:1;fill-rule:nonzero;stroke:none;stroke-width:0.352778"
         clip-path="url(#clipPath1)"
         id="path33-0" /></g></g></svg>
