<?xml version="1.0" encoding="UTF-8" standalone="no"?>
<!-- Created with Inkscape (http://www.inkscape.org/) -->

<svg
   width="22.366657mm"
   height="6.9146843mm"
   viewBox="0 0 22.366656 6.9146841"
   version="1.1"
   id="svg1"
   xml:space="preserve"
   xmlns="http://www.w3.org/2000/svg"
   xmlns:svg="http://www.w3.org/2000/svg"><defs
     id="defs1" /><g
     id="layer1"
     transform="translate(-168.18058,-19.877882)"><g
       id="g46"
       transform="translate(89.052696,-91.856969)"><path
         d="m 91.590028,114.51144 -0.22508,0.22613 -0.006,0.0413 c 0.0314,0.0441 0.0663,0.0861 0.10548,0.12523 0.0427,0.042 0.0885,0.0801 0.13546,0.11254 l 0.0445,-0.003 0.22472,-0.22543 -0.002,-0.0275 c -0.0508,-0.0339 -0.0981,-0.0716 -0.14182,-0.11641 -0.0413,-0.0406 -0.0765,-0.0861 -0.11112,-0.13088 z m 0.0162,0.81703 -0.01,0.0134 -0.0952,-0.0829 c -0.0423,-0.042 -0.0787,-0.0889 -0.11289,-0.13511 l -0.0272,-0.002 -0.23284,0.23389 -0.007,0.0434 c 0.0332,0.0455 0.0688,0.0896 0.11007,0.13017 0.0427,0.0441 0.0903,0.0833 0.1404,0.11713 l 0.0466,-0.004 0.21978,-0.21978 0.0713,0.0794 c 0.0441,0.0441 0.0914,0.0833 0.14041,0.11712 l 0.0466,-0.003 0.23248,-0.23425 -0.004,-0.0282 c -0.0508,-0.036 -0.0998,-0.0751 -0.14605,-0.12135 -0.0427,-0.042 -0.078,-0.0889 -0.11359,-0.13582 l -0.0261,-0.002 z m -8.75841,-1.01882 -0.22507,0.22578 -0.006,0.0416 c 0.0314,0.0441 0.0667,0.0861 0.10548,0.12523 0.0427,0.042 0.0885,0.0801 0.13582,0.11219 l 0.0445,-0.002 0.22472,-0.22543 -0.002,-0.0275 c -0.0512,-0.0339 -0.0981,-0.0716 -0.14182,-0.11642 -0.042,-0.0409 -0.0766,-0.0861 -0.11112,-0.13088 z m 0.0162,0.81703 -0.01,0.0131 -0.0949,-0.0825 c -0.0423,-0.042 -0.0787,-0.0889 -0.11359,-0.13511 l -0.0268,-0.002 -0.23248,0.23354 -0.007,0.0434 c 0.0328,0.0455 0.0688,0.0896 0.11007,0.13052 0.043,0.0441 0.0903,0.0833 0.14041,0.11713 l 0.0462,-0.004 0.21978,-0.21978 0.0716,0.079 c 0.0441,0.0441 0.091,0.0836 0.1404,0.11712 l 0.0466,-0.002 0.23248,-0.23425 -0.004,-0.0286 c -0.0504,-0.0356 -0.0995,-0.0748 -0.14605,-0.121 -0.0423,-0.042 -0.0776,-0.0889 -0.11324,-0.13582 l -0.0261,-0.002 z m 2.92488,0.23142 c -0.10548,0.072 -0.66816,0.39864 -1.01283,0.34643 -0.34572,-0.0529 -0.49882,-0.26917 -0.49882,-0.37888 0,-0.11042 0.0815,-0.28293 0.254,-0.3549 0.17215,-0.0716 0.52246,-0.20179 0.68086,-0.10512 0.15804,0.096 0.19649,0.0187 0.12029,-0.0579 -0.0769,-0.0769 -0.42298,-0.30657 -0.73871,-0.17745 -0.43639,0.20179 -0.48895,0.57538 -0.51294,0.80045 -0.024,0.22543 0.115,0.4124 0.27799,0.5327 -0.10584,0.0455 -0.56198,0.14781 -0.71861,-0.0833 l 0.009,-0.0656 c 0.005,-0.10549 -0.0624,-0.11536 -0.0917,-0.01 -0.0286,0.10583 -0.0444,0.24235 -0.0952,0.34536 -0.0921,0.1838 -0.35631,0.0413 -0.46567,-0.008 0.0314,-0.0931 0.0575,-0.20073 0.0769,-0.32631 0.012,-0.0713 -0.0318,-0.13124 -0.0801,0.0183 -0.0473,0.1464 -0.2159,0.58173 -0.96485,0.3309 0.01,-0.0885 0.0635,-0.28434 -0.10054,-0.19967 -0.17745,0.091 -0.60784,0.2547 -0.85655,0.31644 -0.16228,0.0406 -0.18768,0.0656 -0.16228,0.13653 0.0243,0.072 0.0681,0.26211 0.15346,0.23424 0.018,-0.006 0.0487,-0.0159 0.0854,-0.0272 -0.0727,0.19332 -0.32949,0.79022 -0.79233,0.98002 -0.10866,0.0416 -0.57821,0.17251 -1.07068,-0.0476 -0.0607,-0.0198 -0.14994,0.0286 -0.0579,0.0917 0.0921,0.0628 1.06715,0.58843 1.65206,-0.0166 0.13405,-0.13759 0.32526,-0.57926 0.44979,-1.0534 l -3.5e-4,-0.0109 c 0.0991,-0.0321 0.18626,-0.06 0.18626,-0.06 0.0533,-0.019 0.2667,-0.10971 0.38488,-0.16122 0.36548,0.26988 0.71826,0.36266 0.95003,0.0755 0.28928,0.266 0.49919,0.20885 0.58879,0.0723 0.0374,-0.0575 0.079,-0.16545 0.11536,-0.28046 0.11924,0.0924 0.37359,0.31856 1.08761,-0.0215 0.20638,-0.091 1.10455,-0.51364 1.10455,-0.51364 0.043,-0.11042 0.14817,-0.3937 0.043,-0.32173 m -4.0446,-1.11796 c 0.0349,-0.0145 1.53494,-0.63993 1.59632,-0.67168 0.0614,-0.0314 0.0974,-0.0409 0.127,-0.0942 0.0296,-0.0533 0.0363,-0.0628 0.0529,-0.0995 0.018,-0.0399 0.0378,-0.0857 -0.0751,-0.0321 -0.0727,0.0342 -1.55575,0.6551 -1.63301,0.6865 -0.0773,0.0318 -0.10054,0.0466 -0.11748,0.0984 -0.0169,0.0526 -0.0254,0.0801 -0.03,0.091 -0.0145,0.0356 -0.0335,0.0713 0.0794,0.0215 m 2.47403,-0.1016 c 0.0342,-0.0176 1.0922,-0.44662 1.15006,-0.48436 0.0582,-0.0367 0.0931,-0.0508 0.11677,-0.10619 0.0247,-0.0557 0.0307,-0.066 0.0437,-0.10477 0.0138,-0.0406 0.0289,-0.0882 -0.078,-0.0243 -0.0691,0.0413 -1.11055,0.46355 -1.18428,0.50235 -0.0741,0.0392 -0.096,0.0557 -0.10759,0.10971 -0.012,0.054 -0.0176,0.0822 -0.0212,0.0931 -0.0106,0.0367 -0.0265,0.0741 0.0804,0.0145 m -4.17865,1.64995 c 0.0325,-0.0205 1.1998,-0.49883 1.25589,-0.53799 0.0564,-0.0402 0.0914,-0.0547 0.11289,-0.11183 0.0215,-0.0564 0.0272,-0.0667 0.0384,-0.10548 0.012,-0.042 0.0251,-0.0903 -0.079,-0.0215 -0.067,0.0444 -1.21814,0.51541 -1.29046,0.55774 -0.072,0.042 -0.0931,0.0593 -0.10231,0.11324 -0.01,0.055 -0.0145,0.0836 -0.0173,0.0942 -0.009,0.0374 -0.0229,0.0755 0.0818,0.0116 m 8.99301,-0.46778 c 0.14005,-0.0695 0.24448,-0.0511 0.30304,0.0589 0.0586,0.10971 0.17991,0.35031 0.0815,0.3242 -0.0889,-0.024 -0.42933,-0.10266 -0.51753,-0.23036 0.0504,-0.0758 0.0952,-0.13406 0.133,-0.15275 m -0.3115,0.51294 c 0.13441,0.10301 0.58314,0.26211 0.67874,0.26281 0.0952,7.1e-4 0.1076,0.01 0.14252,-0.0709 0.0353,-0.0808 0.0801,-0.18415 0.0843,-0.25223 0.004,-0.0677 0.008,-0.48578 -0.0568,-0.6597 -0.0515,-0.16686 -0.26917,-0.26599 -0.39723,-0.1651 -0.28963,0.26247 -0.38135,0.47661 -0.4833,0.60749 -0.0861,0.10936 -0.35666,0.4318 -0.75212,0.23918 -0.0744,-0.15205 -0.14888,-0.27975 -0.14888,-0.27975 -0.0395,-0.0702 -0.0751,-0.11571 -0.0924,-0.0751 -0.0173,0.0413 -0.0751,0.36018 -0.0751,0.36018 0.0861,0.12418 0.42016,0.79622 0.38947,0.91335 -0.031,0.11712 -0.30339,0.70661 -1.16381,0.66181 -0.0903,-0.005 -0.96485,-0.13053 -0.53129,-1.16099 0.0159,-0.0367 -0.0229,-0.11078 -0.0787,-0.0258 -0.0723,0.10971 -0.50412,1.31409 0.40605,1.53811 0.15417,0.0378 0.84385,0.10301 1.34338,-0.49283 0.0579,-0.0684 0.21978,-0.40535 0.10619,-1.01107 0.10124,7.1e-4 0.2039,-0.0261 0.31361,-0.0847 0.10266,-0.0635 0.20109,-0.19649 0.29069,-0.3369 z m 4.33246,-0.13935 c 0.0766,0.45402 -0.0892,0.81245 -0.12453,0.86783 -0.1972,0.28328 -0.54434,0.0353 -0.61595,-0.008 -0.0702,-0.0441 -0.133,-0.0127 -0.21907,0.0374 -0.66499,0.40993 -1.17969,0.34608 -1.2887,0.33161 -0.60078,-0.0674 -0.65088,-0.80116 -0.67381,-1.00577 -0.0254,-0.23107 -0.13229,-1.39347 -0.22789,-1.76177 -0.0317,-0.1457 0.0317,-0.38312 0.0462,-0.4505 0.0131,-0.0681 0.0452,-0.0914 0.0723,0.0134 0.0275,0.10443 0.2734,1.95334 0.30092,2.14419 0.0903,0.63323 0.4639,0.66957 0.5962,0.70132 0.58278,0.0688 1.16981,-0.26423 1.26576,-0.33232 0.0956,-0.0684 0.20038,-0.009 0.25012,0.0138 0.0501,0.0229 0.25012,0.10478 0.37324,0.12312 0.12277,0.0183 0.13229,-0.16404 0.11853,-0.27799 -0.013,-0.11359 -0.25964,-1.52576 -0.27199,-1.61219 -0.0265,-0.17815 -0.0554,-0.30762 -0.0621,-0.34219 -0.0243,-0.11572 -0.0229,-0.21167 -0.0318,-0.26741 -0.008,-0.054 -0.0448,-0.10654 -0.0854,-0.18662 -0.0413,-0.079 -0.008,-0.16616 0.009,-0.19297 0.0173,-0.0265 0.0861,-0.0952 0.13653,-0.2032 0.0233,-0.0512 0.0536,0.009 0.0667,0.0631 0.012,0.0501 0.11324,0.2152 0.15663,0.27199 0.0296,0.0381 0.0522,0.10548 0.0399,0.13371 -0.024,0.0533 -0.0952,0.15522 -0.11077,0.17497 -0.0113,0.0159 -0.0215,0.0452 -0.0148,0.10795 0,0 0.26282,1.46544 0.29492,1.657 m -2.9852,1.1296 c -0.0159,0.0381 -0.0229,0.0473 -0.0508,0.10089 -0.0275,0.0547 -0.0635,0.066 -0.12418,0.0991 -0.06,0.0332 -1.10455,0.46708 -1.13912,0.48366 -0.11148,0.0529 -0.0931,0.0159 -0.0801,-0.0194 0.004,-0.0113 0.012,-0.0392 0.0272,-0.0921 0.0148,-0.0529 0.0388,-0.0681 0.11465,-0.10195 0.0766,-0.0339 1.1042,-0.4632 1.17581,-0.49989 0.11148,-0.0564 0.0928,-0.0106 0.0766,0.0296 m 0.40075,-3.66572 c 0.004,-0.0102 0.013,-0.0384 0.0303,-0.0917 0.0176,-0.0508 0.0406,-0.066 0.11818,-0.0967 0.078,-0.0318 1.2005,-0.48648 1.27423,-0.5207 0.11325,-0.0526 0.0928,-0.007 0.0748,0.0328 -0.0166,0.037 -0.0233,0.0462 -0.0533,0.0988 -0.0303,0.0529 -0.0663,0.0628 -0.12805,0.0942 -0.061,0.0303 -1.20227,0.49107 -1.23649,0.50624 -0.1136,0.049 -0.0945,0.0127 -0.0797,-0.0229 m -4.05024,1.39453 c 0.003,-0.0106 0.007,-0.0402 0.0166,-0.0938 0.01,-0.0547 0.0307,-0.072 0.10266,-0.1143 0.0723,-0.0427 1.01318,-0.4385 1.0802,-0.48295 0.10443,-0.0688 0.091,-0.0208 0.079,0.0212 -0.0109,0.0392 -0.0169,0.0497 -0.0388,0.10654 -0.0208,0.0561 -0.0554,0.0716 -0.11112,0.11112 -0.0572,0.0402 -1.01424,0.44309 -1.0467,0.46249 -0.10442,0.0653 -0.0914,0.0275 -0.0818,-0.0102 m 7.13352,-0.67945 c -0.0127,-0.13864 -0.0353,-0.25823 -0.0843,-0.1471 -0.0536,0.11818 -0.0783,0.26881 -0.0501,0.47166 0.0441,0.34925 0.0878,0.61101 0.13088,0.86148 0.042,0.2533 0.18521,1.00648 0.2025,1.54411 0.004,0.1263 0.0508,0.15628 0.0833,0.0649 0.0533,-0.15698 0.0642,-0.59478 -0.0318,-1.23119 -0.0487,-0.31997 -0.22578,-1.30881 -0.25047,-1.56387 m -6.56555,1.2693 -0.0247,-0.001 -0.22543,0.22542 -0.006,0.0413 c 0.0303,0.0444 0.066,0.0861 0.10512,0.12524 0.043,0.043 0.0879,0.0804 0.13582,0.11359 l 0.0448,-0.004 0.22472,-0.22472 -0.002,-0.0275 c -0.0515,-0.0339 -0.0977,-0.072 -0.14252,-0.11641 -0.0413,-0.0406 -0.0759,-0.0864 -0.10972,-0.13159 m 4.73181,-1.54658 c 0.0212,0.0519 0.0381,0.11219 0.0353,0.14605 -0.0819,0.0794 -0.16969,0.0924 -0.23284,0.0395 -0.0413,-0.0335 -0.0564,-0.097 -0.0526,-0.18027 0.002,-0.0596 0.0102,-0.0822 -0.0427,-0.0399 -0.0684,0.0557 -0.0497,0.0504 -0.0536,0.0815 -0.0247,0.19579 -0.1083,0.28328 -0.25964,0.29387 -0.0945,0.007 -0.1644,-0.0593 -0.0981,-0.2473 0.0141,-0.0402 -0.0141,-0.0825 -0.0561,0 -0.14146,0.28257 -0.0554,0.43991 0.0893,0.46178 0.11782,0.0169 0.25752,-0.0497 0.32914,-0.2286 0.055,0.0907 0.1658,0.11677 0.26564,0.0907 0.12876,-0.0335 0.15699,-0.0928 0.19262,-0.19649 0.036,-0.10054 0.0374,-0.23284 -0.0113,-0.39194 -0.008,-0.0261 -0.0222,-0.012 -0.0286,7.1e-4 l -0.0681,0.13052 c -0.008,0.0138 -0.0141,0.0236 -0.008,0.0399 m 6.62587,0.42334 c -0.0557,-0.0349 -0.055,-0.0755 -0.03,-0.11501 0.0847,-0.12982 0.14569,-0.12594 0.20108,-0.0656 0.09,0.11501 0.0695,0.30551 0.06,0.34079 0,0 -0.17392,-0.12559 -0.23107,-0.16017 m 0.22402,0.42722 c 0.12029,0.0564 0.17145,0.1838 0.18697,0.13688 0.0459,-0.13335 0.0614,-0.20814 0.0272,-0.24483 -0.0254,-0.0261 -0.11218,-0.0914 -0.11218,-0.0914 0.0317,-0.0748 0.0974,-0.33796 -0.0113,-0.54822 -0.0265,-0.0452 -0.13335,-0.21131 -0.35736,0.0406 -0.0875,0.0963 -0.19968,0.3422 -0.11113,0.43145 0.0885,0.0885 0.28293,0.21413 0.28293,0.21413 -0.1016,0.17428 -0.34678,0.32915 -0.66605,0.55669 -0.20813,0.14887 -0.13017,0.19967 -0.0395,0.15663 0.60325,-0.28575 0.70662,-0.45332 0.80046,-0.65193 m -3.4597,-0.43251 c -0.0564,-0.0353 -0.0557,-0.0759 -0.03,-0.115 0.084,-0.12983 0.14499,-0.1263 0.20038,-0.066 0.0899,0.115 0.0695,0.3055 0.06,0.34078 0,0 -0.17392,-0.12524 -0.23037,-0.15981 m 0.22331,0.42722 c 0.1203,0.0561 0.17145,0.18344 0.18768,0.13652 0.0455,-0.133 0.061,-0.20779 0.0265,-0.24483 -0.0251,-0.0261 -0.11254,-0.0914 -0.11254,-0.0914 0.0321,-0.0748 0.0977,-0.33796 -0.0109,-0.54786 -0.0265,-0.0452 -0.13335,-0.21167 -0.35701,0.0402 -0.0879,0.0963 -0.20003,0.34255 -0.11148,0.4318 0.0885,0.0885 0.28293,0.21378 0.28293,0.21378 -0.1016,0.17428 -0.34678,0.3295 -0.66605,0.55669 -0.20814,0.14887 -0.13017,0.20002 -0.0395,0.15663 0.60325,-0.2854 0.70661,-0.45332 0.80045,-0.65158 m 1.61184,-0.46884 c 0.0123,-0.004 0.0272,-0.002 0.0423,-0.0162 0.0494,-0.0462 0.0907,-0.16898 0.0952,-0.21061 -0.005,-0.0321 -0.1203,-0.0434 -0.15346,-0.0512 -0.11359,-0.0275 -0.2219,-0.0871 -0.34008,-0.0949 -0.18238,-0.0116 -0.35136,0.0702 -0.44556,0.26211 -0.0102,0.025 -0.0254,0.0586 -0.0353,0.084 -0.012,0.042 0.0102,0.0702 0.0321,0.0378 0.0254,-0.0378 0.0568,-0.0748 0.0959,-0.0984 0.0935,-0.0568 0.19262,-0.0783 0.29387,-0.0688 0.0917,0.009 0.26423,0.0734 0.26388,0.0825 -0.001,0.0198 -0.40147,0.21802 -0.46391,0.25718 -0.0275,0.0173 -0.0607,0.0487 -0.055,0.0801 0.005,0.024 0.0434,0.0293 0.0759,0.0176 0.15698,-0.0571 0.21413,-0.0533 0.34113,-0.10725 0.17145,-0.0737 0.22261,-0.1651 0.25294,-0.17392 m -2.08421,2.40207 c -0.0243,0.0515 -0.0557,0.13934 -0.0741,0.1905 -0.006,0.0183 0.008,0.0406 0.0303,0.0272 0.127,-0.0776 0.31715,-0.17392 0.51858,-0.24518 0.18345,-0.0646 0.32738,-0.10689 0.46038,-0.1143 0.0205,-0.003 0.12911,-0.19438 0.14569,-0.2219 0.0222,-0.036 0.006,-0.0476 -0.0222,-0.042 -0.15452,0.0296 -0.27446,0.0572 -0.46108,0.0399 -0.23072,-0.0201 -0.41099,-0.1965 -0.40499,-0.26599 0.005,-0.0526 0.16898,-0.15734 0.23001,-0.14817 0.17674,0.0279 0.17357,0.18344 0.22119,0.18521 0.0568,0.002 0.17251,-0.20214 0.17957,-0.25753 0.007,-0.0607 -0.1136,-0.20496 -0.22896,-0.21167 -0.18979,-0.0116 -0.51152,0.31045 -0.63782,0.50836 -0.0459,0.0727 -0.0416,0.1845 0.0243,0.2413 0.0586,0.0497 0.15487,0.10265 0.26423,0.16862 -0.0533,0.0191 -0.19332,0.10054 -0.24518,0.1457 m 6.512282,-0.98531 c -0.031,-0.29951 -0.15804,-1.22484 -0.17004,-1.46261 -0.005,-0.13018 -0.0212,-0.24272 -0.0773,-0.14217 -0.0593,0.10759 -0.0921,0.24623 -0.0734,0.43568 0.0261,0.32667 0.0561,0.57185 0.0857,0.80609 0.0293,0.23707 0.13512,0.94333 0.12453,1.44357 -0.002,0.11712 0.0423,0.14746 0.0787,0.0632 0.061,-0.14182 0.0945,-0.54751 0.0317,-1.1437 m -1.517652,1.5501 c -0.0413,-0.0406 -0.0769,-0.0861 -0.11112,-0.13088 l -0.0244,-0.002 -0.22471,0.22613 -0.006,0.0413 c 0.031,0.0441 0.066,0.0854 0.10513,0.12453 0.0427,0.0434 0.0882,0.0808 0.13582,0.1136 l 0.0441,-0.003 0.22507,-0.22543 -0.002,-0.0275 c -0.0512,-0.0339 -0.0984,-0.0716 -0.14182,-0.11642 m 1.047052,-1.09361 c -0.15346,-0.01 -0.8629,-0.0226 -1.278472,-0.25223 0.0413,-0.0349 0.13123,-0.15064 0.0988,-0.44168 -0.0314,-0.29069 -0.14782,-1.12148 -0.14782,-1.12148 -0.01,-0.0868 -0.0448,-0.17039 0.005,-0.21449 0.0494,-0.0448 0.15346,-0.1203 0.0935,-0.2025 -0.06,-0.0818 -0.16299,-0.23777 -0.19297,-0.32596 -0.0251,-0.0744 -0.0476,-0.13617 -0.0847,-0.0776 -0.0441,0.0674 -0.0596,0.15346 -0.11924,0.23142 -0.031,0.0413 -0.0639,0.0614 -0.0279,0.12312 0.048,0.0843 0.096,0.23777 0.10513,0.34325 0.004,0.055 0.0201,0.17427 0.0353,0.28787 0,0 0.2039,1.05022 0.18768,1.22026 0,0 -0.84067,0.0296 -0.95003,0.13582 l -0.16828,0.26176 c -0.0141,0.0289 -0.0127,0.0607 0.0272,0.0547 0.0399,-0.007 0.55668,-0.17251 1.28234,0.11853 -0.0857,0.0296 -1.04387,0.43956 -1.85314,0.34784 -0.12135,-0.004 -0.9719,-0.11501 -1.0421,-0.54645 -0.01,-0.0543 -0.024,-0.0744 -0.0529,-0.0194 -0.0258,0.049 -0.26176,0.4011 0.10901,0.65405 -0.11748,0.248 -0.32703,0.5842 -0.64664,0.71578 -0.10478,0.0395 -0.57186,0.15911 -1.04352,-0.0522 -0.0582,-0.0187 -0.14358,0.0282 -0.0557,0.0882 0.0886,0.0607 0.95074,0.61172 1.51059,0.0318 0.0988,-0.10124 0.26741,-0.37288 0.39512,-0.69814 0.57361,0.3122 1.52752,0.14075 1.52752,0.14075 0.20744,-0.0441 0.42475,-0.10548 0.64982,-0.19226 0.11818,-0.0483 0.929922,-0.41557 1.479552,-0.28751 0.11501,0.0282 0.14146,0.0282 0.14146,0.0282 0,0 0.0988,-0.21061 0.12101,-0.26177 0.0222,-0.0508 0.048,-0.0797 -0.10548,-0.0896 m -4.073882,-1.02164 c 0.0441,0.0441 0.0907,0.0825 0.14217,0.11712 l 0.002,0.0275 -0.22472,0.22472 -0.0445,0.003 c -0.0476,-0.0321 -0.0931,-0.0709 -0.13652,-0.11289 -0.0385,-0.0399 -0.0741,-0.0811 -0.10442,-0.12523 l 0.006,-0.0416 0.22507,-0.22578 0.0247,0.002 c 0.0339,0.0448 0.0688,0.0903 0.11042,0.13088"
         style="fill:#231f20;fill-opacity:1;fill-rule:nonzero;stroke:none;stroke-width:0.352778"
         clip-path="url(#clipPath1)"
         id="path51" /></g></g></svg>
