<?xml version="1.0" encoding="UTF-8" standalone="no"?>
<!-- Created with Inkscape (http://www.inkscape.org/) -->

<svg
   width="23.150042mm"
   height="6.9146843mm"
   viewBox="0 0 23.15004 6.9146841"
   version="1.1"
   id="svg1"
   xml:space="preserve"
   xmlns="http://www.w3.org/2000/svg"
   xmlns:svg="http://www.w3.org/2000/svg"><defs
     id="defs1" /><g
     id="layer1"
     transform="translate(-133.04022,-19.877882)"><g
       id="g47"
       transform="translate(16.195316,-91.114141)"><path
         d="m 120.51902,113.5714 -0.20461,0.24483 -0.002,0.0416 c 0.0353,0.0413 0.0737,0.0801 0.11606,0.11571 0.0462,0.0381 0.0952,0.072 0.14464,0.10019 l 0.0441,-0.007 0.20426,-0.24412 -0.004,-0.0272 c -0.054,-0.0293 -0.10407,-0.0628 -0.15169,-0.10372 -0.0445,-0.0367 -0.0836,-0.079 -0.12206,-0.12065 z m 0.0871,0.81245 -0.008,0.0141 -0.10195,-0.0741 c -0.0459,-0.0384 -0.0864,-0.0818 -0.12453,-0.12488 l -0.0272,3.5e-4 -0.21166,0.25329 -0.003,0.0438 c 0.0371,0.0423 0.0762,0.0832 0.12101,0.11995 0.0466,0.0402 0.0974,0.0751 0.15028,0.10442 l 0.0459,-0.008 0.19967,-0.23812 0.078,0.073 c 0.048,0.0399 0.0981,0.0748 0.15028,0.10442 l 0.0462,-0.007 0.21096,-0.25365 -0.006,-0.0275 c -0.054,-0.0318 -0.10584,-0.0663 -0.15628,-0.1083 -0.0462,-0.0381 -0.0854,-0.0819 -0.12453,-0.12559 l -0.0261,3.5e-4 z m 2.90337,0.23107 c -0.10548,0.072 -0.66817,0.39864 -1.01318,0.34607 -0.34537,-0.0526 -0.49883,-0.26916 -0.49883,-0.37888 0,-0.11042 0.0818,-0.28293 0.25435,-0.35489 0.17216,-0.0716 0.52247,-0.20144 0.68086,-0.10513 0.15805,0.0963 0.19615,0.0187 0.1203,-0.0579 -0.0769,-0.0769 -0.42263,-0.30656 -0.73872,-0.17745 -0.43638,0.20179 -0.4893,0.57538 -0.51293,0.80081 -0.0243,0.22507 0.115,0.4124 0.27798,0.53234 -0.10583,0.0455 -0.56197,0.14781 -0.7186,-0.0833 l 0.008,-0.0653 c 0.005,-0.10583 -0.0621,-0.11571 -0.091,-0.01 -0.0289,0.10583 -0.0445,0.24271 -0.0956,0.34572 -0.0924,0.18345 -0.3563,0.0409 -0.46566,-0.008 0.031,-0.0928 0.0575,-0.20073 0.0769,-0.32596 0.0116,-0.0716 -0.0321,-0.13159 -0.0801,0.018 -0.0473,0.1464 -0.21625,0.58208 -0.9652,0.33125 0.0102,-0.0885 0.0639,-0.28469 -0.10019,-0.20002 -0.17744,0.091 -0.60783,0.2547 -0.85654,0.31644 -0.16228,0.0406 -0.18768,0.0656 -0.16228,0.13688 0.0243,0.072 0.0681,0.26211 0.15311,0.23424 0.0183,-0.006 0.049,-0.0159 0.0857,-0.0275 -0.0727,0.19333 -0.32949,0.79058 -0.79234,0.98037 -0.10865,0.0413 -0.5782,0.17216 -1.07068,-0.048 -0.0607,-0.0198 -0.14993,0.0286 -0.0579,0.0917 0.0921,0.0628 1.0675,0.58879 1.65205,-0.0166 0.13371,-0.13758 0.32491,-0.57926 0.4498,-1.05304 l -3.6e-4,-0.0113 c 0.0991,-0.0321 0.18627,-0.06 0.18627,-0.06 0.0533,-0.0187 0.2667,-0.10971 0.38453,-0.16122 0.36583,0.26988 0.71861,0.36301 0.95038,0.0755 0.28928,0.266 0.49918,0.20885 0.58843,0.0723 0.0377,-0.0575 0.079,-0.1651 0.11572,-0.28046 0.11923,0.0924 0.37359,0.31892 1.08761,-0.0215 0.20637,-0.091 1.10419,-0.51364 1.10419,-0.51364 0.0434,-0.11042 0.14852,-0.39335 0.0434,-0.32138 m -4.0446,-1.11795 c 0.0349,-0.0145 1.53493,-0.64029 1.59632,-0.67204 0.0614,-0.0311 0.097,-0.0409 0.12665,-0.0942 0.0296,-0.0533 0.0367,-0.0628 0.0533,-0.0991 0.018,-0.0402 0.0377,-0.0861 -0.0751,-0.0325 -0.0727,0.0342 -1.55575,0.6551 -1.63301,0.6865 -0.0772,0.0318 -0.10054,0.0466 -0.11747,0.0984 -0.0169,0.0526 -0.0254,0.0801 -0.03,0.091 -0.0145,0.0356 -0.0339,0.0713 0.0794,0.0219 m 2.47438,-0.1016 c 0.0339,-0.018 1.09185,-0.44697 1.1497,-0.48436 0.0582,-0.037 0.0931,-0.0511 0.11677,-0.10654 0.0247,-0.0554 0.0303,-0.066 0.0437,-0.10478 0.0138,-0.0402 0.0289,-0.0882 -0.078,-0.024 -0.0691,0.0409 -1.11054,0.4632 -1.18427,0.50201 -0.0737,0.0395 -0.096,0.0561 -0.10795,0.10971 -0.0116,0.054 -0.0173,0.0822 -0.0208,0.0935 -0.0106,0.0363 -0.0265,0.0741 0.0808,0.0145 m -4.179,1.64959 c 0.0321,-0.0205 1.19979,-0.49883 1.25589,-0.53799 0.0564,-0.0399 0.0914,-0.0543 0.11288,-0.11147 0.0215,-0.0568 0.0272,-0.067 0.0385,-0.10584 0.0116,-0.0416 0.025,-0.0903 -0.079,-0.0215 -0.067,0.0445 -1.21814,0.51541 -1.29046,0.55774 -0.072,0.042 -0.0935,0.0593 -0.1023,0.1136 -0.01,0.0547 -0.0145,0.0833 -0.0173,0.0938 -0.009,0.0378 -0.0229,0.0755 0.0819,0.0116 m 9.80016,-1.34338 c -0.0258,0.0455 -0.0642,0.15805 -0.0942,0.23636 -0.0289,0.0769 -0.0116,0.39864 -0.008,0.43886 0.003,0.0378 -0.29456,-0.0367 -0.41804,-0.0938 0.0317,-0.0765 0.0572,-0.16404 0.0755,-0.26388 0.0123,-0.0709 -0.0466,-0.15522 -0.0984,-0.009 -0.0487,0.13829 -0.15522,0.56762 -0.71614,0.42474 0.0861,-0.15804 0.11536,-0.30832 0.12383,-0.34889 0.0219,-0.0938 -0.0296,-0.0857 -0.0593,-0.0212 -0.33478,0.69709 -0.9966,0.41733 -1.17863,0.29245 0.0617,-0.0356 0.10619,-0.0695 0.12524,-0.10689 0.0688,-0.13229 0.16157,-0.32703 0.0176,-0.4318 -0.043,-0.0353 -0.28011,-0.18203 -0.59091,-0.133 -0.31079,0.0476 -0.48189,0.16334 -0.58737,0.55069 -0.0176,0.0769 0.0127,0.10583 0.0561,0.0589 0.0402,-0.0434 0.21731,-0.17286 0.40675,0.025 -0.0512,0.0473 -0.10618,0.10548 -0.16369,0.18274 -0.17603,0.23706 -0.65017,0.86183 -0.58949,1.77412 0.0653,0.99236 0.79058,1.44603 1.86902,1.22943 0.25647,-0.0508 1.09855,-0.29175 1.20932,-0.3422 0.11148,-0.0508 0.18662,-0.16157 -0.0349,-0.14181 -0.22155,0.0205 -1.5621,0.22648 -2.15689,0.0504 -0.59478,-0.17639 -0.82126,-0.65476 -0.6798,-1.41076 0.13547,-0.60396 0.45649,-0.90664 0.73978,-1.08938 l 0.0974,-0.0596 c 0.26141,0.30868 0.5394,0.35066 0.66111,0.35066 0.19332,0 0.34219,-0.0512 0.45896,-0.12665 0.24518,0.055 0.58561,0.0575 0.82656,-0.17039 0.0833,0.0794 0.25047,0.14817 0.36724,0.17533 0.13723,0.0332 0.18027,-0.019 0.29245,-0.16228 0.17922,-0.32737 0.14006,-0.72284 0.11219,-0.8329 -0.0275,-0.11042 -0.0374,-0.0893 -0.0628,-0.0448 m 3.51014,-0.36936 c -0.006,-0.0621 0.004,-0.091 0.0159,-0.10654 0.0148,-0.0198 0.0868,-0.12242 0.11147,-0.17427 0.0138,-0.0279 -0.0102,-0.0953 -0.0399,-0.13371 -0.0441,-0.0554 -0.14676,-0.22084 -0.15875,-0.26952 -0.0127,-0.0547 -0.0437,-0.11395 -0.0688,-0.0635 -0.0501,0.10725 -0.11959,0.17639 -0.13723,0.2025 -0.0169,0.0272 -0.0512,0.11359 -0.009,0.19226 0.0409,0.0787 0.078,0.13229 0.0871,0.18521 0.008,0.0561 0.007,0.15099 0.0317,0.26529 0.0289,0.14075 0.32526,1.81821 0.34008,1.90605 0.0148,0.0868 0.0243,0.21943 -0.0716,0.24307 -0.11395,0.0289 -0.36442,-0.0413 -0.43251,-0.0617 0.0409,-0.0857 0.0586,-0.16087 0.0646,-0.1965 0.0141,-0.0924 -0.0296,-0.0875 -0.0744,-0.025 -0.0444,0.0635 -0.19226,0.18521 -0.35489,0.25823 -0.52917,0.22225 -1.1557,0.2847 -1.54058,0.16793 -0.38524,-0.11607 -0.48401,-0.4124 -0.49742,-0.60608 -0.007,-0.1217 -0.0857,-1.93922 -0.23565,-2.28388 -0.0289,-0.079 -0.0568,-0.17568 -0.10055,-0.042 -0.0141,0.0406 -0.0815,0.13582 -0.0635,0.23954 0.1136,0.66251 0.22261,1.89159 0.22755,2.11596 0.0102,0.54786 0.20955,0.69462 0.32279,0.77717 0.50906,0.42121 1.64006,0.0582 1.83797,-0.0102 0.11747,-0.0501 0.20743,-0.11854 0.27517,-0.19121 0.0744,0.048 0.18662,0.11289 0.25999,0.12806 0.11818,0.024 0.33408,0.0921 0.38771,-0.0286 0.0547,-0.12171 0.18344,-0.49036 0.15345,-0.70767 -0.0296,-0.21873 -0.33055,-1.78083 -0.33055,-1.78083 m -3.6135,2.0253 c -0.0723,0.0367 -1.17616,0.53129 -1.25271,0.56515 -0.0766,0.0335 -0.0991,0.0487 -0.11501,0.10125 -0.0152,0.0522 -0.0233,0.0811 -0.0275,0.0917 -0.013,0.0356 -0.0317,0.0723 0.0797,0.0198 0.0342,-0.0166 1.15641,-0.51541 1.21708,-0.54786 0.0607,-0.0335 0.096,-0.0444 0.12383,-0.0991 0.0282,-0.0529 0.0346,-0.0628 0.0505,-0.10055 0.0166,-0.0399 0.0349,-0.0861 -0.0759,-0.0303 m 1.28094,-2.2098 c 0.0346,-0.0155 1.37512,-0.58278 1.4358,-0.61595 0.0596,-0.0328 0.096,-0.0448 0.12418,-0.0984 0.0275,-0.0536 0.0342,-0.0635 0.0494,-0.10054 0.0173,-0.0406 0.036,-0.0868 -0.0755,-0.0303 -0.072,0.036 -1.39559,0.59867 -1.47179,0.63253 -0.0758,0.0339 -0.0995,0.049 -0.11465,0.10125 -0.0159,0.0529 -0.0233,0.0815 -0.0275,0.0924 -0.0137,0.0349 -0.0317,0.0723 0.0801,0.019 m 3.29776,-0.0568 c -0.013,-0.14252 -0.036,-0.2667 -0.085,-0.15205 -0.0536,0.12171 -0.0783,0.27623 -0.0497,0.48543 0.0452,0.35807 0.0885,0.62723 0.13264,0.88512 0.0434,0.2607 0.18592,1.03363 0.2032,1.58573 0.005,0.13088 0.0508,0.16157 0.0825,0.0677 0.054,-0.16122 0.0646,-0.61101 -0.0318,-1.26612 -0.0466,-0.32949 -0.22648,-1.34373 -0.25188,-1.60584 m -1.9304,1.38783 -0.20778,0.25682 -0.008,0.0148 -0.10301,-0.0727 c -0.0469,-0.0374 -0.0882,-0.0808 -0.12735,-0.12277 l -0.0268,0.001 -0.20708,0.25682 -0.002,0.043 c 0.0378,0.0423 0.0776,0.0818 0.12312,0.11783 0.048,0.0392 0.0984,0.0734 0.1524,0.10195 l 0.0459,-0.008 0.19579,-0.24235 0.0783,0.0723 c 0.0487,0.0384 0.0995,0.0723 0.15205,0.1016 l 0.0459,-0.009 0.20708,-0.25647 -0.007,-0.0275 c -0.0547,-0.0296 -0.10759,-0.0642 -0.15804,-0.10549 -0.0466,-0.037 -0.0875,-0.0801 -0.12735,-0.12241 z m -5.82577,-1.2065 c 0.0353,-0.0162 1.03223,-0.44204 1.09255,-0.47379 0.0614,-0.0328 0.0974,-0.043 0.12594,-0.097 0.0282,-0.054 0.0356,-0.0635 0.0512,-0.0998 0.0176,-0.0402 0.0363,-0.0864 -0.0751,-0.0318 -0.0723,0.0353 -1.05199,0.4565 -1.12889,0.48895 -0.0769,0.0328 -0.0998,0.048 -0.11642,0.1009 -0.0159,0.0522 -0.024,0.0804 -0.0289,0.091 -0.0138,0.0349 -0.0325,0.072 0.0797,0.0215 m 5.63986,0.29845 c 0.0212,0.0515 0.0381,0.11183 0.0353,0.14605 -0.0815,0.079 -0.16934,0.0921 -0.23284,0.0392 -0.0406,-0.0335 -0.0564,-0.0967 -0.0526,-0.18027 0.002,-0.0596 0.0102,-0.0819 -0.0427,-0.0399 -0.0684,0.0557 -0.0497,0.0508 -0.0536,0.0818 -0.024,0.19544 -0.1083,0.28293 -0.25894,0.29386 -0.0956,0.007 -0.1651,-0.0593 -0.0988,-0.24765 0.0141,-0.0402 -0.0141,-0.0825 -0.0561,0 -0.14146,0.28258 -0.0554,0.43992 0.0889,0.46179 0.11783,0.0173 0.25824,-0.0497 0.32985,-0.2286 0.0547,0.0907 0.16545,0.11712 0.26564,0.0907 0.12841,-0.0332 0.15663,-0.0924 0.19262,-0.19614 0.0353,-0.10055 0.037,-0.23284 -0.0116,-0.39229 -0.008,-0.0261 -0.0222,-0.012 -0.0286,7e-4 l -0.0681,0.13053 c -0.008,0.0138 -0.0141,0.024 -0.008,0.0402 m 6.93314,-0.29457 c -0.0561,-0.0353 -0.0554,-0.0759 -0.03,-0.115 0.0836,-0.13018 0.14499,-0.1263 0.20038,-0.066 0.0896,0.115 0.0695,0.3055 0.0596,0.34078 0,0 -0.17357,-0.12559 -0.23001,-0.15981 m 0.22366,0.42721 c 0.11994,0.0561 0.1711,0.18345 0.18733,0.13653 0.0455,-0.13335 0.061,-0.20779 0.0265,-0.24483 -0.025,-0.0261 -0.11183,-0.0914 -0.11183,-0.0914 0.0318,-0.0748 0.097,-0.33796 -0.0116,-0.54786 -0.0265,-0.0452 -0.133,-0.21167 -0.35701,0.0402 -0.0875,0.0963 -0.20002,0.34219 -0.11148,0.43144 0.0885,0.0885 0.28293,0.21414 0.28293,0.21414 -0.1016,0.17427 -0.34643,0.32914 -0.66604,0.55668 -0.20779,0.14888 -0.13018,0.19968 -0.0395,0.15664 0.60325,-0.2854 0.70662,-0.45332 0.80081,-0.65158 m -3.46004,-0.43286 c -0.0561,-0.0349 -0.0554,-0.0759 -0.03,-0.11501 0.084,-0.12982 0.14499,-0.12594 0.20038,-0.066 0.09,0.11536 0.0699,0.30586 0.06,0.34079 0,0 -0.17427,-0.12524 -0.23036,-0.15981 m 0.22366,0.42721 c 0.12029,0.0561 0.17074,0.1838 0.18732,0.13688 0.0455,-0.13335 0.061,-0.20814 0.0265,-0.24518 -0.025,-0.0261 -0.11183,-0.091 -0.11183,-0.091 0.0318,-0.0748 0.097,-0.33796 -0.0113,-0.54822 -0.0268,-0.0452 -0.13335,-0.21166 -0.35736,0.0402 -0.0875,0.0967 -0.19968,0.34255 -0.11148,0.4318 0.0885,0.0885 0.28293,0.21379 0.28293,0.21379 -0.1016,0.17427 -0.34643,0.32949 -0.66569,0.55668 -0.20814,0.14887 -0.13053,0.20002 -0.0399,0.15698 0.60325,-0.28575 0.70662,-0.45331 0.80081,-0.65193 m 1.61113,-0.46884 c 0.0127,-0.004 0.0275,-0.002 0.0427,-0.0162 0.0494,-0.0462 0.0907,-0.16863 0.0956,-0.21061 -0.006,-0.0317 -0.12065,-0.0434 -0.15381,-0.0511 -0.11359,-0.0272 -0.2219,-0.0871 -0.34008,-0.0949 -0.18203,-0.0116 -0.35136,0.0706 -0.4452,0.26211 -0.0106,0.0254 -0.0258,0.0586 -0.0356,0.084 -0.0113,0.042 0.0102,0.0702 0.0325,0.0378 0.0247,-0.0378 0.0564,-0.0748 0.0956,-0.0984 0.0935,-0.0564 0.19261,-0.0783 0.29386,-0.0684 0.0917,0.009 0.26423,0.0734 0.26388,0.0822 -0.001,0.0201 -0.40111,0.21802 -0.46391,0.25718 -0.0272,0.0173 -0.0607,0.0487 -0.0547,0.0801 0.005,0.024 0.0434,0.0293 0.0759,0.0176 0.15734,-0.0568 0.21378,-0.0533 0.34078,-0.10724 0.17181,-0.0737 0.22261,-0.1651 0.25259,-0.17392 m -2.08386,2.40241 c -0.024,0.0511 -0.0554,0.139 -0.0741,0.1905 -0.006,0.018 0.008,0.0402 0.0303,0.0272 0.127,-0.078 0.31715,-0.17392 0.51894,-0.24553 0.18274,-0.0646 0.32702,-0.10654 0.46002,-0.1143 0.0205,-0.003 0.12947,-0.19438 0.1457,-0.2219 0.0229,-0.0356 0.006,-0.0476 -0.0222,-0.042 -0.15452,0.0296 -0.27411,0.0572 -0.46108,0.0399 -0.23072,-0.0201 -0.41099,-0.1965 -0.40464,-0.26599 0.005,-0.0526 0.16863,-0.15734 0.22966,-0.14782 0.17639,0.0279 0.17357,0.18309 0.22084,0.18486 0.0572,0.002 0.17286,-0.20179 0.17992,-0.25718 0.007,-0.0607 -0.11324,-0.20531 -0.22895,-0.21202 -0.1898,-0.0113 -0.51153,0.31045 -0.63783,0.50836 -0.0459,0.0727 -0.0413,0.1845 0.0243,0.2413 0.0586,0.0501 0.15523,0.10265 0.26424,0.16862 -0.0533,0.019 -0.19333,0.1009 -0.24519,0.14605 m 6.51299,-0.9853 c -0.0317,-0.29987 -0.1584,-1.2252 -0.17075,-1.46297 -0.005,-0.13018 -0.0212,-0.24236 -0.0769,-0.14182 -0.0593,0.10724 -0.0924,0.24589 -0.0734,0.43533 0.0257,0.32667 0.0564,0.57185 0.0861,0.80609 0.0293,0.23707 0.13476,0.94333 0.12382,1.44357 -0.002,0.11712 0.0427,0.14746 0.0787,0.0635 0.0617,-0.14217 0.0949,-0.54786 0.0325,-1.1437 m -1.51836,1.54975 c -0.0413,-0.0406 -0.0769,-0.0861 -0.11077,-0.13088 l -0.0247,-0.002 -0.22437,0.22613 -0.006,0.0413 c 0.031,0.0441 0.0663,0.0854 0.10513,0.12453 0.0427,0.0438 0.0885,0.0808 0.13617,0.11395 l 0.0441,-0.004 0.22472,-0.22543 -0.002,-0.0275 c -0.0511,-0.0339 -0.0984,-0.0716 -0.14182,-0.11642 m 1.04705,-1.09361 c -0.15346,-0.01 -0.86254,-0.0226 -1.27847,-0.25188 0.0413,-0.0353 0.13123,-0.15099 0.0988,-0.44168 -0.0314,-0.29104 -0.14782,-1.12183 -0.14782,-1.12183 -0.009,-0.0868 -0.0448,-0.17004 0.005,-0.21414 0.0497,-0.0448 0.15346,-0.12065 0.0938,-0.20284 -0.06,-0.0818 -0.16298,-0.23742 -0.19297,-0.32562 -0.0254,-0.0744 -0.0473,-0.13652 -0.085,-0.078 -0.0441,0.0674 -0.0596,0.15346 -0.11888,0.23142 -0.0311,0.0413 -0.0635,0.0614 -0.0282,0.12348 0.0476,0.084 0.096,0.23777 0.10513,0.3429 0.004,0.0554 0.0201,0.17427 0.036,0.28822 0,0 0.2032,1.04986 0.18662,1.22025 0,0 -0.84032,0.0296 -0.94933,0.13582 l -0.16863,0.26176 c -0.0145,0.0289 -0.0127,0.0607 0.0272,0.0543 0.0402,-0.007 0.55668,-0.17215 1.28234,0.11854 -0.0857,0.0296 -1.04387,0.43956 -1.85314,0.34784 -0.12135,-0.004 -0.9719,-0.11501 -1.0421,-0.54646 -0.01,-0.0543 -0.0236,-0.0744 -0.0526,-0.019 -0.0261,0.0487 -0.26211,0.40076 0.10866,0.6537 -0.11748,0.248 -0.32703,0.58455 -0.64664,0.71614 -0.10478,0.0392 -0.57221,0.1591 -1.04352,-0.0526 -0.0582,-0.0187 -0.14358,0.0282 -0.0557,0.0882 0.0885,0.0607 0.95074,0.61172 1.5106,0.0318 0.0991,-0.10125 0.2674,-0.37289 0.39511,-0.69815 0.57361,0.31221 1.52752,0.14076 1.52752,0.14076 0.20744,-0.0441 0.4251,-0.10548 0.64982,-0.19226 0.11818,-0.0483 0.92992,-0.41557 1.4799,-0.28716 0.11501,0.0282 0.14111,0.0282 0.14111,0.0282 0,0 0.0988,-0.21096 0.12136,-0.26212 0.0219,-0.0508 0.0476,-0.0797 -0.10583,-0.0896 m -4.07388,-1.02164 c 0.0441,0.0441 0.091,0.0825 0.14217,0.11712 l 0.002,0.0275 -0.22437,0.22472 -0.0444,0.004 c -0.0476,-0.0325 -0.0931,-0.0713 -0.13617,-0.11324 -0.0392,-0.0399 -0.0741,-0.0811 -0.10513,-0.12524 l 0.006,-0.0413 0.22472,-0.22613 0.025,0.002 c 0.0335,0.0448 0.0692,0.0903 0.11007,0.13088"
         style="fill:#231f20;fill-opacity:1;fill-rule:nonzero;stroke:none;stroke-width:0.352778"
         clip-path="url(#clipPath1)"
         id="path39" /></g></g></svg>
