<?xml version="1.0" encoding="UTF-8" standalone="no"?>
<!-- Created with Inkscape (http://www.inkscape.org/) -->

<svg
   width="14.789999mm"
   height="6.9099998mm"
   viewBox="0 0 14.789998 6.9099997"
   version="1.1"
   id="svg1"
   xml:space="preserve"
   xmlns="http://www.w3.org/2000/svg"
   xmlns:svg="http://www.w3.org/2000/svg"><defs
     id="defs1" /><g
     id="layer1"
     transform="translate(-264.99172,13.080052)"><g
       id="g2"
       transform="translate(70.447989,-25.274788)"><path
         d="m 206.04955,14.403882 c -0.0561,-0.03493 -0.0554,-0.07585 -0.03,-0.115005 0.084,-0.129823 0.14499,-0.125942 0.20038,-0.06562 0.09,0.115005 0.0699,0.305505 0.06,0.34043 0,0 -0.17392,-0.125236 -0.23037,-0.159808 m 0.22366,0.427214 c 0.1203,0.05609 0.1711,0.183797 0.18733,0.136878 0.0455,-0.13335 0.061,-0.208139 0.0265,-0.244828 -0.025,-0.02646 -0.11183,-0.09137 -0.11183,-0.09137 0.0317,-0.07479 0.097,-0.337962 -0.0113,-0.548217 -0.0268,-0.04516 -0.13335,-0.211667 -0.35737,0.04022 -0.0875,0.09666 -0.19967,0.342547 -0.11112,0.4318 0.0882,0.08855 0.28257,0.213783 0.28257,0.213783 -0.1016,0.174625 -0.34642,0.329494 -0.66569,0.556683 -0.20814,0.148872 -0.13052,0.200025 -0.0399,0.156986 0.60325,-0.28575 0.70662,-0.453319 0.80081,-0.651933 m -3.46004,-0.432505 c -0.0561,-0.03528 -0.0554,-0.07585 -0.03,-0.115358 0.0843,-0.129822 0.14499,-0.125942 0.20073,-0.06562 0.0896,0.115006 0.0695,0.305506 0.06,0.340784 0,0 -0.17427,-0.125589 -0.23071,-0.159809 m 0.22366,0.427214 c 0.12029,0.05609 0.17109,0.183445 0.18732,0.136525 0.0455,-0.13335 0.061,-0.208139 0.0265,-0.244827 -0.0251,-0.02611 -0.11183,-0.09137 -0.11183,-0.09137 0.0317,-0.07479 0.097,-0.337961 -0.0113,-0.548217 -0.0265,-0.04516 -0.13335,-0.211313 -0.35736,0.04057 -0.0875,0.09631 -0.19968,0.342194 -0.11113,0.431447 0.0885,0.08855 0.28258,0.214136 0.28258,0.214136 -0.1016,0.174272 -0.34643,0.329142 -0.6657,0.556684 -0.20813,0.148872 -0.13017,0.199672 -0.0399,0.156633 0.60325,-0.285397 0.70661,-0.45332 0.80081,-0.651581 m 1.61149,-0.469194 c 0.0123,-0.0035 0.0272,-0.0021 0.0423,-0.01587 0.0494,-0.04621 0.0907,-0.168981 0.0956,-0.210961 -0.006,-0.03175 -0.12065,-0.04339 -0.15381,-0.05115 -0.11359,-0.02716 -0.22154,-0.08714 -0.33937,-0.0949 -0.18274,-0.01164 -0.35207,0.07056 -0.44591,0.262466 -0.0102,0.02505 -0.0254,0.05821 -0.0356,0.08361 -0.0113,0.04198 0.0106,0.0702 0.0325,0.03775 0.025,-0.03775 0.0564,-0.07479 0.0963,-0.09843 0.0928,-0.05644 0.19191,-0.07832 0.29351,-0.06844 0.0914,0.0088 0.26423,0.07338 0.26388,0.0822 -0.001,0.02011 -0.40146,0.218017 -0.46426,0.257175 -0.0272,0.01729 -0.0607,0.04868 -0.0547,0.08008 0.005,0.02434 0.0434,0.02928 0.0759,0.01764 0.15734,-0.0568 0.21378,-0.05292 0.34113,-0.107245 0.17145,-0.07338 0.22225,-0.1651 0.25259,-0.173919 m -2.08421,2.402416 c -0.024,0.05115 -0.0554,0.138995 -0.0741,0.1905 -0.006,0.01799 0.008,0.04022 0.0303,0.02716 0.127,-0.07796 0.3175,-0.173919 0.51893,-0.245533 0.1831,-0.06456 0.32774,-0.106539 0.46003,-0.113947 0.0205,-0.0035 0.12947,-0.194734 0.14605,-0.22225 0.0226,-0.03563 0.006,-0.04727 -0.0226,-0.04163 -0.15417,0.02963 -0.27411,0.0568 -0.46108,0.03951 -0.23072,-0.02011 -0.41099,-0.196497 -0.40464,-0.265642 0.005,-0.05292 0.16898,-0.157691 0.22966,-0.148166 0.17674,0.02787 0.17427,0.183444 0.22119,0.184855 0.0568,0.0021 0.17286,-0.201788 0.17957,-0.257175 0.008,-0.06068 -0.11325,-0.205316 -0.2286,-0.212019 -0.1898,-0.01129 -0.51188,0.310444 -0.63818,0.508353 -0.0459,0.07267 -0.0413,0.184502 0.0243,0.2413 0.0586,0.05009 0.15523,0.102658 0.26423,0.168627 -0.0533,0.01905 -0.19297,0.100895 -0.24518,0.14605 m 6.51299,-0.985304 c -0.0318,-0.299861 -0.1584,-1.225197 -0.17039,-1.462969 -0.005,-0.130175 -0.0215,-0.242359 -0.0773,-0.141817 -0.0593,0.107245 -0.0924,0.245886 -0.0734,0.435328 0.0257,0.326672 0.0564,0.571853 0.0861,0.806097 0.0293,0.237067 0.13476,0.943328 0.12417,1.443567 -0.002,0.117122 0.0423,0.147461 0.0783,0.0635 0.0617,-0.14217 0.0949,-0.547864 0.0325,-1.143706 m -1.51835,1.550106 c -0.0413,-0.04092 -0.0765,-0.08643 -0.11077,-0.130881 l -0.024,-0.0021 -0.22508,0.225778 -0.006,0.04127 c 0.031,0.0441 0.0663,0.08573 0.10513,0.124884 0.0427,0.04339 0.0885,0.08043 0.13617,0.113594 l 0.0441,-0.0035 0.22508,-0.225072 -0.002,-0.02752 c -0.0515,-0.03387 -0.0988,-0.07161 -0.14217,-0.116416 m 1.04704,-1.093611 c -0.15311,-0.0095 -0.86254,-0.02258 -1.27847,-0.252236 0.0413,-0.03493 0.13124,-0.150989 0.0988,-0.441678 -0.0314,-0.290689 -0.14781,-1.121481 -0.14781,-1.121481 -0.009,-0.08714 -0.0448,-0.170391 0.005,-0.214489 0.0497,-0.0448 0.15381,-0.12065 0.0938,-0.202494 -0.06,-0.0822 -0.16298,-0.237772 -0.19297,-0.325967 -0.0247,-0.07444 -0.0473,-0.136525 -0.0847,-0.07796 -0.0441,0.06773 -0.0596,0.153811 -0.11924,0.231775 -0.031,0.04127 -0.0635,0.06103 -0.0279,0.12312 0.0476,0.08396 0.0956,0.237772 0.10478,0.343253 0.004,0.05503 0.0201,0.174272 0.036,0.287866 0,0 0.2032,1.05022 0.18697,1.220259 0,0 -0.84067,0.02963 -0.94968,0.135819 l -0.16863,0.261761 c -0.0141,0.02893 -0.0127,0.06068 0.0275,0.05433 0.0399,-0.0067 0.55669,-0.172156 1.282,0.118533 -0.0857,0.02963 -1.04387,0.439914 -1.85314,0.348192 -0.12101,-0.0035 -0.97191,-0.115006 -1.04211,-0.546453 -0.01,-0.05433 -0.0236,-0.07444 -0.0526,-0.0194 -0.0258,0.04904 -0.26176,0.401109 0.10865,0.65405 -0.11747,0.248003 -0.32667,0.5842 -0.64664,0.715786 -0.10442,0.03916 -0.57185,0.159103 -1.04352,-0.05221 -0.0582,-0.0187 -0.14358,0.02822 -0.0557,0.0882 0.0885,0.06032 0.95109,0.611716 1.5106,0.0314 0.0991,-0.101247 0.2674,-0.372533 0.39582,-0.697795 0.57326,0.312209 1.52717,0.140406 1.52717,0.140406 0.20743,-0.0441 0.42475,-0.105128 0.64946,-0.192264 0.11819,-0.04798 0.92993,-0.415219 1.47991,-0.287161 0.115,0.02822 0.14111,0.02822 0.14111,0.02822 0,0 0.0988,-0.210961 0.12135,-0.261761 0.0219,-0.05115 0.048,-0.08008 -0.10583,-0.0896 m -4.18394,-1.152878 -0.025,-0.0018 -0.22472,0.225778 -0.006,0.04128 c 0.031,0.0441 0.0663,0.08573 0.10513,0.125589 0.043,0.04198 0.0885,0.08043 0.13617,0.112889 l 0.0444,-0.0035 0.22437,-0.224367 -0.002,-0.02752 c -0.0515,-0.03462 -0.0985,-0.07308 -0.14256,-0.117174 -0.0409,-0.04092 -0.0765,-0.08643 -0.11007,-0.131233 m -8.1026,2.095147 c -0.97931,0.364419 -1.39029,-0.135819 -1.43968,-0.206022 -0.33267,-0.549981 0.10689,-1.232606 0.14499,-1.283406 0.0384,-0.05186 0.0744,-0.01693 0.0515,0.02328 -0.14075,0.313266 -0.17321,0.50553 -0.16686,0.586316 0.0388,0.671689 0.73166,0.668867 0.81668,0.669572 0.68263,0.0056 1.17334,-0.48648 1.21779,-0.522111 0.0448,-0.03669 0.0617,-0.04974 0.0342,-0.07091 -0.375,-0.176389 -0.83573,-0.157339 -0.8636,-0.163336 -0.0275,-0.0071 -0.0406,-0.01587 -0.0233,-0.06209 0.0166,-0.04692 0.0466,-0.147461 0.0593,-0.179917 0.22014,-0.0508 0.54575,-0.195791 0.59091,-0.242711 0.12382,-0.129116 -0.3048,-0.583141 -0.36442,-0.659694 0,0 0.0593,-0.312561 0.0681,-0.348545 0.008,-0.03669 0.0152,-0.05574 0.049,-0.02187 0.61171,0.658989 0.35419,1.190272 0.3175,1.272822 0,0 0.19297,0.01446 0.25611,0.112184 0.10584,0.166158 0.0836,0.290336 0.0699,0.357716 -0.0674,0.33902 -0.69356,0.691798 -0.81809,0.738717 m 4.4002,-1.176161 c 0.0293,0.219075 -0.0977,0.589139 -0.15099,0.7112 -0.0536,0.121708 -0.24871,0.04868 -0.36548,0.02399 -0.073,-0.01517 -0.19226,-0.08008 -0.27128,-0.126295 -0.0674,0.07373 -0.15628,0.143581 -0.27446,0.195086 -0.19474,0.06844 -1.31093,0.433564 -1.81293,0.0099 -0.11148,-0.08361 -0.26282,-0.244122 -0.27234,-0.795161 -0.005,-0.267758 -0.0928,-1.310569 -0.13653,-1.500364 -0.0441,-0.190147 -0.0878,-0.4191 -0.005,-0.672041 0.0833,-0.253648 0.11254,-0.379942 0.22402,-0.438503 0.11218,-0.05856 0.1852,-0.09807 0.16051,0.01905 -0.0236,0.117122 -0.004,0.15628 -0.10195,0.243769 -0.097,0.08784 -0.2286,0.175684 -0.21414,0.248709 0.10689,0.506589 0.24306,1.958622 0.2533,2.080683 0.01,0.122061 0.0586,0.476603 0.43815,0.594078 0.38029,0.117122 0.99412,0.07303 1.51588,-0.150989 0.16052,-0.07302 0.30692,-0.195086 0.35066,-0.258586 0.0437,-0.06244 0.0875,-0.06809 0.073,0.02434 -0.006,0.03845 -0.0261,0.121003 -0.0723,0.215548 0.0688,0.0042 0.35242,0.0194 0.43744,0.02328 0.0974,0.0049 0.0829,-0.135467 0.0684,-0.224367 -0.0148,-0.08678 -0.30727,-1.773414 -0.33584,-1.913114 -0.0236,-0.116063 -0.0229,-0.211666 -0.0321,-0.267052 -0.007,-0.05397 -0.0448,-0.106892 -0.0854,-0.18662 -0.0406,-0.07937 -0.006,-0.166158 0.01,-0.193322 0.0173,-0.02611 0.0861,-0.09525 0.13617,-0.2032 0.0236,-0.0508 0.054,0.0088 0.0674,0.06315 0.012,0.04974 0.11253,0.215195 0.15592,0.271286 0.0303,0.03881 0.0522,0.106186 0.0399,0.133703 -0.024,0.05362 -0.0953,0.156281 -0.11007,0.175331 -0.0116,0.01623 -0.0219,0.04515 -0.0155,0.10795 0,0 0.29668,1.568802 0.32597,1.788583 m -3.10727,1.308453 c -0.0159,0.0381 -0.0226,0.04727 -0.0505,0.101247 -0.0275,0.05362 -0.0628,0.06562 -0.12276,0.09913 -0.0607,0.03316 -1.06751,0.435328 -1.10173,0.451556 -0.11148,0.05292 -0.0931,0.01623 -0.0804,-0.01976 0.004,-0.01094 0.012,-0.03845 0.0275,-0.09172 0.0148,-0.05327 0.0381,-0.06773 0.1143,-0.101953 0.0759,-0.03422 1.06575,-0.431447 1.13701,-0.468136 0.11112,-0.05715 0.0924,-0.01094 0.0765,0.02963 m 0.69568,-3.90137 c 0.004,-0.01058 0.0131,-0.03845 0.0307,-0.09066 0.0176,-0.05221 0.0409,-0.06632 0.11818,-0.09701 0.0769,-0.0314 0.97578,-0.404989 1.04951,-0.439209 0.11254,-0.05186 0.0924,-0.006 0.0744,0.03351 -0.0169,0.03704 -0.0243,0.04621 -0.0543,0.09878 -0.0293,0.05292 -0.0653,0.06315 -0.127,0.09384 -0.0617,0.03104 -0.97719,0.408869 -1.01247,0.424039 -0.11324,0.04798 -0.0935,0.01199 -0.079,-0.02328 m 3.20216,2.209448 c 0.0628,0.595488 0.0289,1.001536 -0.0325,1.144058 -0.0356,0.08326 -0.0804,0.05327 -0.0783,-0.06456 0.0106,-0.499533 -0.0938,-1.205441 -0.12347,-1.442861 -0.03,-0.234244 -0.0607,-0.479777 -0.0871,-0.805744 -0.018,-0.190147 0.0148,-0.328436 0.0748,-0.435681 0.055,-0.100894 0.0713,0.012 0.0762,0.141464 0.012,0.237773 0.13899,1.163461 0.17039,1.463323 m -5.38974,-1.443587 c -0.0395,-0.03951 -0.0748,-0.08184 -0.10548,-0.125236 l 0.006,-0.04163 0.22472,-0.225425 0.025,0.0018 c 0.0339,0.0448 0.0692,0.09031 0.11042,0.131233 0.0437,0.04374 0.091,0.0829 0.14182,0.116064 l 0.002,0.02822 -0.22507,0.22472 -0.0441,0.0032 c -0.0473,-0.03287 -0.0924,-0.07061 -0.13547,-0.112946 m 3.04976,0.372533 c 0.0381,0.04163 0.0773,0.0829 0.12206,0.12065 0.0473,0.04057 0.0977,0.07444 0.15099,0.103717 l 0.005,0.02716 -0.20391,0.244122 -0.0441,0.0063 c -0.0501,-0.02787 -0.0988,-0.06174 -0.14499,-0.100189 -0.042,-0.03563 -0.0811,-0.07408 -0.11607,-0.115711 l 0.003,-0.04198 0.20426,-0.244122 z m 0.0631,0.812095 -0.008,0.01411 -0.10196,-0.07408 c -0.0459,-0.03775 -0.0857,-0.08149 -0.12417,-0.12453 h -0.0272 l -0.21131,0.253294 -0.004,0.04375 c 0.0374,0.04233 0.0765,0.0829 0.12171,0.119944 0.0466,0.04022 0.097,0.07514 0.14957,0.104422 l 0.0462,-0.0078 0.19967,-0.238477 0.078,0.07267 c 0.0476,0.04022 0.0981,0.07514 0.14994,0.104422 l 0.0459,-0.0067 0.21166,-0.253294 -0.007,-0.02858 c -0.0536,-0.03069 -0.10548,-0.06562 -0.15592,-0.107597 -0.0459,-0.0381 -0.0854,-0.08184 -0.12489,-0.125237 l -0.0265,3.53e-4 z m 0.0804,-1.593145 0.0681,-0.127353 c 0.005,-0.0127 0.0194,-0.02681 0.0275,-0.0011 0.0473,0.155928 0.0459,0.286103 0.0113,0.384175 -0.036,0.101953 -0.0635,0.160161 -0.18873,0.192617 -0.0981,0.02575 -0.20673,0 -0.26071,-0.08855 -0.0699,0.174977 -0.20743,0.240594 -0.32244,0.223661 -0.14217,-0.02117 -0.22648,-0.175684 -0.0878,-0.452614 0.0409,-0.08079 0.0688,-0.03916 0.055,0 -0.0649,0.183797 0.004,0.249061 0.0963,0.242711 0.14817,-0.01023 0.23037,-0.09631 0.254,-0.28822 0.004,-0.03069 -0.0141,-0.0254 0.0526,-0.07973 0.0515,-0.04163 0.0444,-0.0194 0.042,0.03916 -0.004,0.08149 0.0113,0.143581 0.0512,0.176389 0.0628,0.05186 0.14887,0.0388 0.2286,-0.0381 0.002,-0.03457 -0.0145,-0.09243 -0.0342,-0.143581 -0.006,-0.01517 3.5e-4,-0.0254 0.007,-0.03951"
         style="fill:#231f20;fill-opacity:1;fill-rule:nonzero;stroke:none;stroke-width:0.352778"
         clip-path="url(#clipPath1)"
         id="path19" /></g></g></svg>
