<?xml version="1.0" encoding="UTF-8" standalone="no"?>
<!-- Created with Inkscape (http://www.inkscape.org/) -->

<svg
   width="28.109566mm"
   height="6.9146843mm"
   viewBox="0 0 28.109565 6.9146841"
   version="1.1"
   id="svg1"
   xml:space="preserve"
   xmlns="http://www.w3.org/2000/svg"
   xmlns:svg="http://www.w3.org/2000/svg"><defs
     id="defs1" /><g
     id="layer1"
     transform="translate(-181.49549,-44.079279)"><g
       id="g52"
       transform="translate(14.674509,-126.49068)"><path
         d="m 173.27399,172.96132 -0.20461,0.24483 -0.002,0.0416 c 0.0353,0.0413 0.0737,0.0801 0.11606,0.11571 0.0462,0.0381 0.0952,0.072 0.14464,0.10019 l 0.0441,-0.007 0.20426,-0.24412 -0.004,-0.0272 c -0.054,-0.0293 -0.10407,-0.0628 -0.15169,-0.10372 -0.0445,-0.037 -0.0836,-0.079 -0.12206,-0.12065 z m 0.0871,0.81245 -0.008,0.0141 -0.10195,-0.0741 c -0.0459,-0.0384 -0.0864,-0.0818 -0.12453,-0.12489 l -0.0272,3.6e-4 -0.21166,0.25329 -0.003,0.0438 c 0.037,0.0423 0.0762,0.0832 0.121,0.11994 0.0466,0.0402 0.0974,0.0751 0.14993,0.10443 l 0.0462,-0.008 0.19967,-0.23813 0.078,0.073 c 0.048,0.0399 0.0981,0.0748 0.15028,0.10442 l 0.0462,-0.007 0.21096,-0.25364 -0.006,-0.0275 c -0.054,-0.0318 -0.10584,-0.0663 -0.15628,-0.10831 -0.0462,-0.0381 -0.0854,-0.0818 -0.12453,-0.12558 l -0.0265,3.5e-4 z m -5.10999,-0.82762 -0.025,-10e-4 -0.22507,0.22578 -0.006,0.0416 c 0.031,0.0434 0.0663,0.0854 0.10548,0.12453 0.0427,0.0427 0.0882,0.0808 0.13582,0.11359 l 0.0441,-0.003 0.22507,-0.22472 -0.002,-0.0282 c -0.0512,-0.0339 -0.0988,-0.0723 -0.14217,-0.11641 -0.042,-0.0409 -0.0766,-0.0861 -0.11007,-0.13159 m 0.57714,-0.89112 c 0.061,-0.0328 0.0967,-0.0434 0.12595,-0.097 0.0279,-0.0536 0.0349,-0.0631 0.0508,-0.10089 0.0173,-0.0402 0.0363,-0.0854 -0.0752,-0.0311 -0.073,0.0356 -1.29257,0.55809 -1.36877,0.5909 -0.0751,0.0332 -0.0988,0.048 -0.1143,0.10054 -0.0155,0.0522 -0.024,0.0808 -0.0279,0.0921 -0.0145,0.0349 -0.0325,0.0716 0.0794,0.0205 0.0332,-0.0159 1.27,-0.54292 1.32997,-0.57503 m 7.13635,3.77896 c -0.0713,0.0356 -1.04987,0.46073 -1.12678,0.49424 -0.0769,0.0332 -0.0998,0.048 -0.11606,0.10055 -0.0166,0.0526 -0.0247,0.0811 -0.0282,0.0917 -0.0141,0.0346 -0.0325,0.0702 0.079,0.0205 0.0353,-0.0152 1.03117,-0.44521 1.0922,-0.47767 0.0607,-0.0328 0.0967,-0.0437 0.12524,-0.0974 0.0282,-0.0536 0.0356,-0.0631 0.0512,-0.10089 0.0173,-0.0395 0.0367,-0.0864 -0.0765,-0.031 m 0.42227,-3.2766 c -0.009,-0.0896 -0.0226,-0.10478 0.0282,-0.15028 0.0504,-0.0455 0.16475,-0.13759 0.10407,-0.22261 -0.0614,-0.084 -0.16792,-0.2293 -0.19826,-0.31962 -0.0258,-0.0765 -0.0483,-0.1397 -0.0868,-0.0797 -0.0448,0.0681 -0.0635,0.10866 -0.12489,0.18874 -0.0325,0.042 -0.0645,0.0621 -0.0289,0.12594 0.049,0.0861 0.11289,0.23213 0.12206,0.33973 0.005,0.0564 0.0187,0.17921 0.0363,0.29492 0.0229,0.1517 0.29704,2.13819 0.26318,2.18017 -0.0328,0.042 -0.25083,0.22648 -0.62618,0.0173 l -0.0353,-0.0222 c 0.27234,-0.19438 0.24835,-0.38171 0.20461,-0.4512 -0.079,-0.1263 -0.79904,-0.52776 -1.20827,0.12135 -0.0448,0.066 -0.0787,0.22225 0.0166,0.1651 0.0811,-0.0487 0.29139,-0.0607 0.51505,0.0801 l 0.0526,0.0346 c -0.53234,0.34502 -1.00541,0.12242 -1.16028,0.0261 0.0131,-0.0607 0.0219,-0.11042 0.0233,-0.13652 0.005,-0.10548 -0.0617,-0.11571 -0.091,-0.01 -0.0289,0.10512 -0.0445,0.24165 -0.0963,0.34501 -0.0917,0.18345 -0.3556,0.0406 -0.46567,-0.009 0.0317,-0.0924 0.0579,-0.20073 0.0776,-0.32526 0.012,-0.0716 -0.0321,-0.13158 -0.0804,0.0187 -0.0469,0.14605 -0.21625,0.58068 -0.9652,0.32985 0.0102,-0.0875 0.0632,-0.28363 -0.10019,-0.19967 -0.1778,0.0917 -0.60819,0.2547 -0.85619,0.31679 -0.16263,0.0406 -0.18839,0.0656 -0.16334,0.13723 0.0247,0.0709 0.0681,0.26176 0.15417,0.23425 0.018,-0.006 0.0483,-0.0159 0.0854,-0.0282 -0.073,0.19367 -0.32985,0.79022 -0.79234,0.98037 -0.10866,0.042 -0.57856,0.17215 -1.07068,-0.0483 -0.0607,-0.0191 -0.15029,0.0296 -0.0582,0.0924 0.0921,0.0628 1.06821,0.58914 1.65206,-0.0173 0.13441,-0.13618 0.32526,-0.57856 0.44979,-1.05199 v -0.0116 c 0.0991,-0.0318 0.18591,-0.06 0.18591,-0.06 0.054,-0.0187 0.2667,-0.10971 0.38524,-0.16122 0.36512,0.26988 0.71861,0.36231 0.95038,0.0751 0.28857,0.2667 0.49883,0.2092 0.58843,0.0723 0.0371,-0.0564 0.0783,-0.16404 0.1143,-0.27763 0.45897,0.45191 1.24707,0.0166 1.42487,-0.10901 0.0607,0.0649 0.11783,0.13088 0.13371,0.16333 0.0296,0.0593 0.19685,0.22402 0.52211,0.16757 0.10971,-0.0187 0.38946,-0.14816 0.37218,-0.63958 -0.01,-0.66816 -0.22049,-1.93816 -0.22049,-1.93816 -0.0159,-0.10407 -0.0332,-0.23848 -0.0332,-0.23848 m -7.06155,1.63301 c -0.0448,-0.20744 -0.27023,-0.59408 -0.27023,-0.59408 -0.0367,-0.0646 -0.0695,-0.10724 -0.0854,-0.0688 -0.0159,0.0374 -0.0695,0.33408 -0.0695,0.33408 0.0794,0.11536 0.38982,0.73801 0.3616,0.84702 -0.0289,0.10865 -0.28222,0.65581 -1.08127,0.61383 -0.0832,-0.004 -0.89499,-0.12206 -0.49177,-1.07703 0.0145,-0.0335 -0.0215,-0.10266 -0.073,-0.024 -0.0674,0.10195 -0.46708,1.21955 0.37676,1.42699 0.14358,0.0349 0.78282,0.0963 1.24637,-0.45685 0.0554,-0.0663 0.2159,-0.39899 0.0864,-1.00118 m 1.27599,0.34254 c -0.0649,-0.11994 -0.15839,-0.21237 -0.22048,-0.26599 -0.12065,-0.10266 -0.22754,0.0469 -0.2473,0.11077 -0.0677,0.20955 0.28928,0.17357 0.36654,0.16828 0.0328,-0.003 0.0667,-0.008 0.10124,-0.013 m -0.48048,1.44603 c -0.55598,0.23037 -1.26012,0.0801 -1.33209,0.0642 -0.14287,-0.0332 -0.0815,-0.12664 0.0395,-0.1083 1.27882,0.17039 1.7773,-0.7687 1.8535,-1.01071 l 0.0113,-0.0621 c -0.22684,0.0455 -0.45685,0.0483 -0.53975,0.0229 -0.32914,-0.10266 -0.2667,-0.5976 0.003,-0.92145 0.2734,-0.32844 0.53622,0.19791 0.57891,0.3048 0.28998,0.73378 -0.13229,1.24354 -0.1778,1.30563 -0.127,0.17145 -0.26106,0.33267 -0.43639,0.40499 m 7.11835,-2.47368 c 0.0381,0.27799 0.16969,1.10278 0.17851,1.69051 0.002,0.13829 0.0483,0.17251 0.0808,0.073 0.0557,-0.17039 0.0737,-0.64841 -0.0116,-1.34549 -0.0423,-0.35137 -0.20426,-1.43475 -0.22542,-1.7138 -0.01,-0.1524 -0.0303,-0.28328 -0.0822,-0.16298 -0.0557,0.12735 -0.0825,0.29104 -0.0572,0.51435 0.0378,0.38241 0.0787,0.66886 0.11712,0.94438 m -5.31812,-0.54327 c 0.01,-0.0353 0.03,-0.22578 -0.0603,-0.34079 -0.055,-0.0603 -0.11606,-0.0642 -0.20002,0.0656 -0.0258,0.0395 -0.0261,0.0801 0.03,0.11501 0.0565,0.0346 0.23037,0.16016 0.23037,0.16016 m -0.80751,0.91899 c -0.091,0.043 -0.16863,-0.008 0.0395,-0.15664 0.31962,-0.22754 0.56444,-0.38241 0.66604,-0.55668 0,0 -0.19438,-0.12559 -0.28292,-0.21414 -0.0886,-0.0893 0.024,-0.33514 0.11147,-0.43144 0.22366,-0.25189 0.3302,-0.0857 0.35701,-0.0406 0.10866,0.21025 0.043,0.47342 0.0116,0.54821 0,0 0.0868,0.0653 0.11183,0.0914 0.0346,0.0367 0.019,0.11148 -0.0265,0.24483 -0.0162,0.0469 -0.0674,-0.0804 -0.18733,-0.13688 -0.0942,0.19862 -0.19755,0.36619 -0.8008,0.65194 m 2.50931,-1.50072 c 0.0123,-0.004 0.0272,-0.002 0.0423,-0.0162 0.0494,-0.0462 0.0907,-0.16863 0.0956,-0.21026 -0.006,-0.0321 -0.121,-0.0434 -0.15381,-0.0515 -0.11395,-0.0272 -0.2219,-0.0871 -0.34008,-0.0945 -0.18203,-0.012 -0.35136,0.0702 -0.4452,0.26212 -0.0106,0.0251 -0.0254,0.0586 -0.0356,0.0836 -0.0113,0.042 0.0102,0.0702 0.0324,0.0378 0.0251,-0.0378 0.0561,-0.0744 0.0956,-0.0984 0.0931,-0.0564 0.19261,-0.0783 0.29386,-0.0684 0.0917,0.009 0.26423,0.0734 0.26423,0.0822 -0.001,0.0201 -0.40146,0.21801 -0.46426,0.25752 -0.0272,0.0173 -0.0607,0.0483 -0.0547,0.0797 0.005,0.0243 0.0434,0.0293 0.0759,0.0176 0.15734,-0.0568 0.21343,-0.0529 0.34078,-0.10724 0.17181,-0.0737 0.22261,-0.16475 0.25295,-0.17392 m 5.75874,0.48966 c -0.0162,0.037 -0.0236,0.0466 -0.0533,0.0998 -0.0296,0.0526 -0.0646,0.0635 -0.12665,0.0956 -0.0617,0.0307 -1.06256,0.44379 -1.09749,0.45896 -0.11324,0.0483 -0.0942,0.0131 -0.0794,-0.0233 0.004,-0.0102 0.0123,-0.0381 0.0296,-0.09 0.0166,-0.0533 0.0402,-0.0674 0.11783,-0.0988 0.0769,-0.0324 1.06115,-0.44027 1.13488,-0.47413 0.11254,-0.0533 0.0924,-0.007 0.0744,0.0318 m -0.39723,1.94592 c -0.0762,0.006 -0.43321,0.0409 -0.36583,-0.16792 0.0194,-0.0642 0.1263,-0.21379 0.24624,-0.11113 0.0624,0.0547 0.15699,0.14676 0.2219,0.2667 z m -0.3429,-0.58138 c -0.27022,0.32315 -0.33302,0.81845 -0.004,0.9204 0.0825,0.0257 0.31291,0.0229 0.5401,-0.0226 l -0.0109,0.0621 c -0.0773,0.24236 -0.57538,1.18004 -1.85349,1.01141 -0.12136,-0.0194 -0.1838,0.0744 -0.0399,0.1076 0.0723,0.0162 0.77576,0.1658 1.33174,-0.0642 0.17498,-0.0716 0.31009,-0.23354 0.43709,-0.40499 0.0452,-0.0621 0.46708,-0.5722 0.1771,-1.30598 -0.0423,-0.10584 -0.3048,-0.63324 -0.57821,-0.30374 m 7.25664,-1.32998 c -0.007,-0.0868 -0.0201,-0.10265 0.0296,-0.14605 0.0515,-0.0434 0.17463,-0.13017 0.11677,-0.21343 -0.0586,-0.0833 -0.1591,-0.22754 -0.18732,-0.31679 -0.0233,-0.0744 -0.0441,-0.13653 -0.0833,-0.0794 -0.0455,0.066 -0.0642,0.10548 -0.12559,0.18238 -0.0325,0.0395 -0.0645,0.0593 -0.031,0.12207 0.0459,0.0854 0.12065,0.22895 0.11324,0.33408 -0.012,0.15381 0.3422,1.99778 0.31327,2.07962 -0.0282,0.0811 -0.59443,0.20602 -0.83997,0.009 -0.0473,-0.0289 -0.0667,-0.0384 -0.0762,0.0483 -0.007,0.0656 -0.0441,0.31362 0.2085,0.39758 -0.0811,0.19156 -0.34431,0.69674 -0.79552,0.88265 -0.10971,0.0413 -0.61348,0.2025 -1.10454,-0.018 -0.0607,-0.019 -0.15029,0.0289 -0.0579,0.0924 0.0914,0.0628 1.08902,0.54787 1.67287,-0.0579 0.0797,-0.0801 0.32667,-0.46496 0.4445,-0.87242 0.0529,0.002 0.11077,7.1e-4 0.17886,-0.007 0.18768,-0.009 0.44873,-0.0642 0.47272,-0.2854 0.0243,-0.22048 0.0367,-0.61101 -0.10795,-1.39382 -0.0476,-0.26882 -0.14111,-0.75741 -0.14111,-0.75741 m -2.4444,2.60244 c 0.0286,-0.0536 0.0353,-0.0632 0.0504,-0.10054 0.0173,-0.0406 0.036,-0.0868 -0.0759,-0.0303 -0.0716,0.0367 -0.95708,0.44097 -1.03363,0.47413 -0.0755,0.0346 -0.0991,0.049 -0.1143,0.10195 -0.0159,0.0533 -0.0233,0.0808 -0.0279,0.0917 -0.0127,0.0356 -0.0314,0.0723 0.0804,0.0201 0.0349,-0.0159 0.93698,-0.42545 0.99695,-0.45826 0.0607,-0.0339 0.0963,-0.0448 0.12382,-0.0988 m -0.46707,0.89923 c -0.21061,0.0194 -1.48626,0.2159 -2.05176,0.0476 -0.56585,-0.16757 -0.7814,-0.623 -0.64699,-1.34302 0.12947,-0.57397 0.43391,-0.86113 0.70414,-1.03541 0.1524,0.17428 0.43215,0.38383 0.9846,0.36513 0.11078,0 0.65582,-0.0289 1.1617,-0.28046 0.0621,-0.0339 0.12453,-0.1083 0.15769,-0.37218 0.0102,-0.1143 0.0434,-0.49318 -0.28434,-0.81703 -0.0388,-0.0427 -0.0582,-0.0455 -0.0727,0.0145 -0.0145,0.06 -0.0617,0.34043 -0.0617,0.34043 0.10548,0.13899 0.3182,0.43885 0.26775,0.4699 -0.0501,0.031 -0.93486,0.43885 -1.68028,0.19156 -0.0166,-0.006 -0.0808,-0.0406 -0.16404,-0.0875 0.0857,-0.0462 0.14887,-0.0854 0.17145,-0.13088 0.0656,-0.1263 0.15381,-0.31221 0.0162,-0.41134 -0.0409,-0.0332 -0.26635,-0.17181 -0.56198,-0.1263 -0.29562,0.0455 -0.45861,0.15522 -0.5595,0.52388 -0.0162,0.0737 0.0127,0.10124 0.054,0.0565 0.0385,-0.0413 0.20673,-0.16475 0.38771,0.0233 -0.0494,0.0448 -0.10125,0.10054 -0.15628,0.17427 -0.16828,0.22542 -0.61913,0.8195 -0.56092,1.68769 0.0621,0.94438 0.75247,1.37583 1.77835,1.16981 0.24483,-0.0483 1.04493,-0.27834 1.15076,-0.32597 0.10619,-0.0483 0.1778,-0.15346 -0.0339,-0.13441 m -0.2914,-1.64747 -0.0247,-0.002 -0.22402,0.22613 -0.007,0.0413 c 0.0318,0.0441 0.0663,0.0854 0.10548,0.12489 0.0434,0.0427 0.0889,0.0804 0.13582,0.11289 l 0.0448,-0.003 0.22472,-0.22508 -0.002,-0.0275 c -0.0511,-0.0339 -0.0984,-0.0727 -0.14181,-0.11677 -0.0416,-0.0406 -0.0766,-0.0861 -0.11113,-0.13088 m 4.09893,-2.08844 c -0.005,-0.1397 -0.0226,-0.26176 -0.0825,-0.15205 -0.0649,0.11501 -0.0998,0.26459 -0.0801,0.4699 0.0275,0.35207 0.0614,0.61666 0.0931,0.8703 0.0325,0.25542 0.14534,1.01812 0.1337,1.55858 -0.002,0.12594 0.0462,0.1591 0.0847,0.0688 0.067,-0.15452 0.1023,-0.59196 0.0353,-1.23543 -0.0339,-0.32385 -0.1711,-1.32362 -0.18415,-1.58009 m -2.35127,-0.23672 c 0.0349,-0.0166 0.93663,-0.4258 0.99731,-0.45896 0.0607,-0.0332 0.0967,-0.0448 0.12417,-0.0988 0.0282,-0.0536 0.0349,-0.0632 0.0508,-0.10125 0.0159,-0.0399 0.0346,-0.0861 -0.0762,-0.0296 -0.072,0.0367 -0.95708,0.44097 -1.03364,0.47484 -0.0762,0.0339 -0.0991,0.049 -0.1143,0.10125 -0.0159,0.0533 -0.0243,0.0815 -0.0275,0.0917 -0.0134,0.036 -0.0318,0.0723 0.0794,0.0208 m -0.36124,2.75096 c -0.003,0.127 0.0455,0.16016 0.084,0.0699 0.0667,-0.15452 0.10266,-0.59196 0.0353,-1.23472 -0.0339,-0.32456 -0.1711,-1.32363 -0.18451,-1.5808 -0.005,-0.14041 -0.0229,-0.26176 -0.0822,-0.15275 -0.0646,0.11641 -0.10054,0.26529 -0.0801,0.4706 0.0282,0.35278 0.0614,0.61666 0.0931,0.86995 0.0317,0.25577 0.14534,1.01847 0.13441,1.55787 m 1.20826,-1.93075 c 0.0194,0.0476 0.0349,0.10407 0.0328,0.13582 -0.0762,0.0737 -0.15804,0.0861 -0.21731,0.0367 -0.0377,-0.0314 -0.0522,-0.0903 -0.0487,-0.16793 0.002,-0.0554 0.01,-0.0762 -0.0399,-0.037 -0.0639,0.0519 -0.0462,0.0473 -0.0497,0.0762 -0.0226,0.18204 -0.10089,0.26388 -0.2413,0.27341 -0.0889,0.006 -0.15416,-0.055 -0.0921,-0.23001 0.013,-0.0381 -0.0131,-0.0776 -0.0519,0 -0.13229,0.26282 -0.0522,0.40957 0.0829,0.43003 0.11007,0.0159 0.24024,-0.0466 0.30692,-0.21308 0.0512,0.0843 0.15451,0.10901 0.24729,0.0843 0.1196,-0.031 0.14605,-0.0864 0.17922,-0.18274 0.0339,-0.0938 0.0353,-0.21695 -0.0102,-0.36512 -0.007,-0.0247 -0.0208,-0.0116 -0.0268,3.5e-4 l -0.0635,0.12171 c -0.008,0.0127 -0.013,0.0222 -0.008,0.0374 m 6.32107,-0.39899 c -0.0561,-0.0353 -0.0554,-0.0759 -0.0296,-0.11501 0.084,-0.12982 0.14499,-0.12629 0.20038,-0.066 0.09,0.11501 0.0695,0.30551 0.06,0.34079 0,0 -0.17392,-0.12524 -0.23072,-0.15981 m 0.22367,0.42721 c 0.11994,0.0561 0.17145,0.18345 0.18767,0.13688 0.0452,-0.13335 0.0607,-0.20814 0.0265,-0.24518 -0.0254,-0.0261 -0.11218,-0.0914 -0.11218,-0.0914 0.0317,-0.0748 0.0974,-0.33796 -0.0116,-0.54786 -0.0261,-0.0451 -0.133,-0.21167 -0.35701,0.0402 -0.0875,0.0963 -0.19968,0.34254 -0.11113,0.4318 0.0885,0.0885 0.28293,0.21378 0.28293,0.21378 -0.1016,0.17427 -0.34678,0.32949 -0.66605,0.55668 -0.20813,0.14888 -0.13017,0.20003 -0.0395,0.15664 0.60325,-0.2854 0.70662,-0.45332 0.80046,-0.65158 m -11.21058,-1.13666 c -0.0522,-0.0321 -0.0519,-0.0699 -0.0282,-0.10618 0.0783,-0.11959 0.13441,-0.11642 0.18592,-0.0607 0.0832,0.10654 0.0642,0.28293 0.055,0.31468 0,0 -0.16087,-0.11571 -0.21273,-0.14782 m 0.20673,0.39511 c 0.11113,0.0522 0.15805,0.1704 0.17251,0.12665 0.0427,-0.12347 0.0568,-0.19226 0.0247,-0.22683 -0.0229,-0.024 -0.10301,-0.0836 -0.10301,-0.0836 0.0293,-0.0691 0.09,-0.31257 -0.0109,-0.5073 -0.0236,-0.0416 -0.12277,-0.19544 -0.3295,0.0378 -0.0815,0.0889 -0.18521,0.31644 -0.10371,0.39935 0.0822,0.0811 0.26211,0.1972 0.26211,0.1972 -0.0938,0.16157 -0.32032,0.30445 -0.61595,0.5147 -0.19226,0.13759 -0.11994,0.18521 -0.0367,0.14499 0.5581,-0.26387 0.6537,-0.41945 0.74048,-0.60289 m 7.54415,0.30868 c -0.0564,-0.0349 -0.0557,-0.0759 -0.03,-0.11501 0.084,-0.12982 0.14499,-0.12594 0.20038,-0.0656 0.0899,0.11501 0.0695,0.30551 0.06,0.34043 0,0 -0.17392,-0.12523 -0.23037,-0.15981 m 0.22331,0.42722 c 0.1203,0.0561 0.17145,0.18379 0.18768,0.13688 0.0455,-0.13335 0.061,-0.20814 0.0265,-0.24483 -0.0251,-0.0265 -0.11183,-0.0914 -0.11183,-0.0914 0.0314,-0.0748 0.097,-0.33796 -0.0116,-0.54822 -0.0265,-0.0452 -0.13335,-0.21167 -0.35701,0.0402 -0.0875,0.0967 -0.20003,0.34255 -0.11148,0.4318 0.0882,0.0886 0.28293,0.21379 0.28293,0.21379 -0.1016,0.17462 -0.34643,0.32949 -0.66605,0.55703 -0.20814,0.14852 -0.13053,0.19967 -0.0395,0.15663 0.60325,-0.28575 0.70661,-0.45331 0.80045,-0.65193 m 1.61184,-0.46884 c 0.0123,-0.003 0.0272,-0.002 0.0423,-0.0162 0.0494,-0.0462 0.0907,-0.16863 0.0952,-0.21026 -0.005,-0.0321 -0.1203,-0.0437 -0.15346,-0.0515 -0.1136,-0.0272 -0.2219,-0.0871 -0.34008,-0.0949 -0.18238,-0.0116 -0.35137,0.0706 -0.44556,0.26247 -0.0102,0.025 -0.0254,0.0586 -0.0353,0.0836 -0.0113,0.042 0.0102,0.0702 0.0325,0.0378 0.025,-0.0378 0.0564,-0.0748 0.0956,-0.0984 0.0935,-0.0564 0.19262,-0.0783 0.29387,-0.0684 0.0917,0.009 0.26423,0.0734 0.26388,0.0822 -0.001,0.0201 -0.40147,0.21802 -0.46391,0.25753 -0.0272,0.0169 -0.0607,0.0483 -0.055,0.0797 0.005,0.0243 0.0434,0.0293 0.0759,0.0176 0.15769,-0.0568 0.21413,-0.0529 0.34113,-0.10725 0.17145,-0.0737 0.22261,-0.1651 0.25294,-0.17392 m -2.08421,2.40242 c -0.0243,0.0512 -0.0557,0.139 -0.0741,0.1905 -0.006,0.018 0.008,0.0402 0.0303,0.0272 0.127,-0.078 0.31715,-0.17392 0.51858,-0.24518 0.18345,-0.0649 0.32738,-0.10689 0.46038,-0.11465 0.0205,-0.003 0.12911,-0.19403 0.14569,-0.2219 0.0229,-0.0356 0.006,-0.0473 -0.0222,-0.042 -0.15487,0.0296 -0.27446,0.0571 -0.46108,0.0402 -0.23072,-0.0205 -0.41099,-0.19685 -0.40499,-0.26599 0.005,-0.0529 0.16898,-0.1577 0.23001,-0.14817 0.17674,0.0279 0.17357,0.18309 0.22119,0.18486 0.0568,0.002 0.17251,-0.20179 0.17957,-0.25718 0.007,-0.0607 -0.1136,-0.20496 -0.22896,-0.21202 -0.18979,-0.0113 -0.51152,0.31045 -0.63782,0.50835 -0.0459,0.073 -0.0416,0.18451 0.0243,0.2413 0.0586,0.0501 0.15487,0.10266 0.26423,0.16898 -0.0533,0.0187 -0.19332,0.10055 -0.24518,0.1457 m 6.51299,-0.98531 c -0.0317,-0.29986 -0.15875,-1.22519 -0.1711,-1.46297 -0.005,-0.13017 -0.0208,-0.24235 -0.0769,-0.14181 -0.0593,0.10759 -0.0921,0.24588 -0.0734,0.43532 0.0261,0.32668 0.0568,0.57186 0.0864,0.8061 0.0293,0.23707 0.1344,0.94333 0.12382,1.44357 -0.002,0.11712 0.0423,0.14746 0.0787,0.0635 0.0617,-0.14182 0.0945,-0.54787 0.0325,-1.14371 m -1.51836,1.54976 c -0.0413,-0.0406 -0.0769,-0.0861 -0.11112,-0.13088 l -0.0244,-0.002 -0.22472,0.22613 -0.006,0.0413 c 0.031,0.0441 0.066,0.0854 0.10513,0.12488 0.0427,0.0434 0.0885,0.0804 0.13581,0.11359 l 0.0441,-0.004 0.22507,-0.22542 -0.002,-0.0275 c -0.0512,-0.0335 -0.0984,-0.0716 -0.14182,-0.11642 m 1.04705,-1.09326 c -0.15346,-0.01 -0.8629,-0.0229 -1.27847,-0.25223 0.0413,-0.0353 0.13123,-0.15099 0.0988,-0.44168 -0.0314,-0.29069 -0.14782,-1.12183 -0.14782,-1.12183 -0.009,-0.0868 -0.0448,-0.17004 0.005,-0.21414 0.0494,-0.0448 0.15346,-0.12065 0.0935,-0.20249 -0.06,-0.0822 -0.16299,-0.23778 -0.19297,-0.32597 -0.0251,-0.0744 -0.0469,-0.13653 -0.0847,-0.078 -0.0441,0.0674 -0.06,0.15381 -0.11924,0.23142 -0.031,0.0413 -0.0631,0.0614 -0.0282,0.12347 0.0483,0.084 0.0963,0.23778 0.10548,0.34326 0.004,0.055 0.0201,0.17427 0.036,0.28786 0,0 0.2032,1.04987 0.18698,1.22026 0,0 -0.84067,0.0296 -0.95003,0.13582 l -0.16828,0.26176 c -0.0141,0.0289 -0.0127,0.0607 0.0272,0.0543 0.0399,-0.007 0.55634,-0.17215 1.28235,0.11853 -0.0857,0.0296 -1.04387,0.43957 -1.85314,0.34784 -0.12136,-0.003 -0.9719,-0.115 -1.04211,-0.5461 -0.01,-0.0547 -0.024,-0.0744 -0.0529,-0.0194 -0.0258,0.049 -0.26212,0.40111 0.10901,0.6537 -0.11748,0.24836 -0.32703,0.58455 -0.64665,0.71614 -0.10477,0.0392 -0.57185,0.1591 -1.04351,-0.0526 -0.0582,-0.0183 -0.14358,0.0282 -0.0557,0.0882 0.0886,0.0607 0.95074,0.61207 1.51059,0.0318 0.0988,-0.10125 0.26741,-0.37289 0.39511,-0.69779 0.57362,0.31185 1.52718,0.1404 1.52718,0.1404 0.20779,-0.0441 0.4251,-0.10548 0.65017,-0.19226 0.11818,-0.0483 0.92992,-0.41558 1.47955,-0.28716 0.115,0.0282 0.14146,0.0282 0.14146,0.0282 0,0 0.0988,-0.21097 0.12101,-0.26177 0.0222,-0.0512 0.0476,-0.0801 -0.10548,-0.0896 m -4.07388,-1.02199 c 0.0441,0.0441 0.091,0.0829 0.14217,0.11712 l 0.002,0.0275 -0.22472,0.22472 -0.0445,0.004 c -0.0476,-0.0325 -0.0928,-0.0709 -0.13617,-0.11324 -0.0392,-0.0399 -0.0737,-0.0811 -0.10477,-0.12524 l 0.006,-0.0413 0.22507,-0.22613 0.0247,0.002 c 0.0339,0.0448 0.0695,0.0903 0.11042,0.13088"
         style="fill:#231f20;fill-opacity:1;fill-rule:nonzero;stroke:none;stroke-width:0.352778"
         clip-path="url(#clipPath1)"
         id="path33-9" /></g></g></svg>
