<?xml version="1.0" encoding="UTF-8" standalone="no"?>
<!-- Created with Inkscape (http://www.inkscape.org/) -->

<svg
   width="28.345949mm"
   height="6.9146843mm"
   viewBox="0 0 28.345948 6.9146841"
   version="1.1"
   id="svg1"
   xml:space="preserve"
   xmlns="http://www.w3.org/2000/svg"
   xmlns:svg="http://www.w3.org/2000/svg"><defs
     id="defs1" /><g
     id="layer1"
     transform="translate(-268.10774,-66.265494)"><g
       id="g55"
       transform="translate(-43.17444,0.81060477)"><path
         d="m 329.59351,68.246433 -0.20462,0.24483 -0.002,0.0416 c 0.0353,0.0413 0.0737,0.0801 0.11607,0.11571 0.0462,0.0381 0.0953,0.072 0.14464,0.10019 l 0.0441,-0.007 0.20426,-0.24412 -0.004,-0.0272 c -0.054,-0.0293 -0.10407,-0.0628 -0.15169,-0.10372 -0.0445,-0.0367 -0.0836,-0.079 -0.12207,-0.12065 z m 0.0871,0.81245 -0.008,0.0141 -0.10196,-0.0741 c -0.0459,-0.0384 -0.0864,-0.0818 -0.12453,-0.12488 l -0.0272,3.5e-4 -0.21167,0.2533 -0.003,0.0437 c 0.037,0.0423 0.0762,0.0833 0.121,0.11994 0.0466,0.0402 0.0974,0.0751 0.15029,0.10442 l 0.0459,-0.008 0.19967,-0.23812 0.078,0.073 c 0.048,0.0399 0.0981,0.0748 0.15029,0.10442 l 0.0462,-0.007 0.21096,-0.25365 -0.006,-0.0275 c -0.054,-0.0318 -0.10583,-0.0663 -0.15628,-0.1083 -0.0462,-0.0381 -0.0854,-0.0818 -0.12488,-0.12559 l -0.0261,3.5e-4 z m -12.35533,-1.2319 -0.20426,0.24448 -0.003,0.0416 c 0.0349,0.0413 0.0737,0.0804 0.11572,0.11606 0.0462,0.0381 0.0952,0.0716 0.14499,0.0998 l 0.0441,-0.007 0.20426,-0.24377 -0.005,-0.0272 c -0.0536,-0.0293 -0.10443,-0.0632 -0.15134,-0.10371 -0.0448,-0.037 -0.084,-0.0794 -0.12207,-0.12101 z m 0.0875,0.81245 -0.009,0.0138 -0.10195,-0.0741 c -0.0459,-0.0381 -0.0861,-0.0815 -0.12418,-0.12453 l -0.0272,3.5e-4 -0.21167,0.25294 -0.003,0.0437 c 0.037,0.0423 0.0769,0.0833 0.12135,0.11995 0.0469,0.0402 0.0974,0.0755 0.14993,0.10442 l 0.0459,-0.008 0.19967,-0.23812 0.078,0.0727 c 0.0476,0.0399 0.0984,0.0751 0.15029,0.10442 l 0.0462,-0.007 0.21131,-0.25365 -0.007,-0.0275 c -0.0533,-0.0314 -0.10548,-0.0663 -0.15593,-0.10795 -0.0459,-0.0384 -0.0854,-0.0818 -0.12488,-0.12524 h -0.0261 z m -5.11069,-0.82797 -0.0247,-0.001 -0.22543,0.22613 -0.006,0.0413 c 0.031,0.0434 0.066,0.0854 0.10548,0.12488 0.0427,0.0427 0.0882,0.0804 0.13546,0.1136 l 0.0441,-0.004 0.22543,-0.22472 -0.002,-0.0282 c -0.0508,-0.0335 -0.0984,-0.0723 -0.14182,-0.11642 -0.042,-0.0406 -0.0765,-0.0861 -0.11042,-0.13159 m 0.5775,-0.89076 c 0.061,-0.0332 0.0967,-0.0434 0.12594,-0.0974 0.0279,-0.0536 0.0346,-0.0628 0.0508,-0.10089 0.0173,-0.0402 0.0363,-0.0854 -0.0755,-0.031 -0.073,0.036 -1.29223,0.55809 -1.36878,0.5909 -0.0751,0.0335 -0.0984,0.0483 -0.11395,0.10054 -0.0159,0.0526 -0.024,0.0811 -0.0279,0.0921 -0.0145,0.0353 -0.0328,0.0716 0.0794,0.0208 0.0328,-0.0159 1.26965,-0.54293 1.32997,-0.57503 m 7.13634,3.77896 c -0.0716,0.0353 -1.04987,0.46037 -1.12712,0.49389 -0.0769,0.0335 -0.0995,0.0483 -0.11607,0.10054 -0.0166,0.0529 -0.0243,0.0815 -0.0279,0.0917 -0.0141,0.0349 -0.0328,0.0702 0.079,0.0208 0.0349,-0.0152 1.03116,-0.44521 1.09184,-0.47802 0.0607,-0.0328 0.097,-0.0437 0.12559,-0.097 0.0282,-0.054 0.0353,-0.0635 0.0508,-0.10089 0.0173,-0.0399 0.037,-0.0864 -0.0762,-0.031 m 0.42228,-3.2766 c -0.009,-0.0896 -0.0229,-0.10478 0.0282,-0.15028 0.0505,-0.0455 0.16475,-0.13794 0.10407,-0.22261 -0.0614,-0.084 -0.16828,-0.2293 -0.19862,-0.31961 -0.0254,-0.0766 -0.048,-0.14006 -0.0868,-0.0801 -0.0448,0.0684 -0.0632,0.109 -0.12453,0.18873 -0.0325,0.0423 -0.0649,0.0621 -0.0289,0.1263 0.0487,0.0861 0.11289,0.23212 0.12171,0.33972 0.005,0.0564 0.0187,0.17886 0.0367,0.29492 0.0226,0.15134 0.29704,2.13784 0.26317,2.17982 -0.0332,0.042 -0.25082,0.22683 -0.62618,0.0173 l -0.0353,-0.0219 c 0.27235,-0.19438 0.24801,-0.38171 0.20461,-0.45156 -0.0794,-0.12594 -0.79939,-0.52775 -1.20861,0.12136 -0.0448,0.0663 -0.0783,0.2226 0.0166,0.16545 0.0815,-0.049 0.29139,-0.0607 0.51505,0.0797 l 0.0529,0.0346 c -0.53199,0.34537 -1.00542,0.12277 -1.16029,0.0261 0.0131,-0.0607 0.0219,-0.11007 0.0233,-0.13617 0.005,-0.10548 -0.0624,-0.11607 -0.091,-0.01 -0.0289,0.10548 -0.0452,0.242 -0.0963,0.34537 -0.0917,0.18309 -0.3556,0.0406 -0.46602,-0.009 0.0318,-0.0921 0.0579,-0.20038 0.078,-0.32526 0.0116,-0.0716 -0.0325,-0.13159 -0.0804,0.0187 -0.0469,0.14605 -0.2166,0.58102 -0.96555,0.3302 0.0106,-0.0875 0.0635,-0.28399 -0.0998,-0.20003 -0.1778,0.0917 -0.60855,0.25506 -0.85655,0.31715 -0.16263,0.0406 -0.18803,0.0653 -0.16334,0.13688 0.025,0.0713 0.0684,0.26211 0.15452,0.23459 0.018,-0.006 0.0483,-0.0159 0.0854,-0.0286 -0.073,0.19368 -0.32984,0.79058 -0.79234,0.98073 -0.109,0.042 -0.5789,0.17215 -1.07068,-0.0483 -0.0607,-0.0194 -0.15028,0.0296 -0.0579,0.0924 0.0917,0.0624 1.06786,0.58913 1.65135,-0.0173 0.13441,-0.13653 0.32526,-0.57891 0.45015,-1.05234 v -0.0116 c 0.0991,-0.0318 0.18556,-0.06 0.18556,-0.06 0.054,-0.0183 0.26705,-0.10936 0.38558,-0.16122 0.36513,0.27023 0.71861,0.36266 0.95003,0.0751 0.28893,0.2667 0.49883,0.20955 0.58844,0.0723 0.0374,-0.0564 0.0787,-0.16404 0.1143,-0.27764 0.45896,0.45191 1.24742,0.0166 1.42522,-0.10865 0.0603,0.0646 0.11783,0.13088 0.13335,0.16298 0.0296,0.0593 0.1972,0.22402 0.52246,0.16757 0.10936,-0.0187 0.38912,-0.14817 0.37218,-0.63923 -0.01,-0.66852 -0.22048,-1.93852 -0.22048,-1.93852 -0.0159,-0.10371 -0.0332,-0.23812 -0.0332,-0.23812 m -7.06191,1.63301 c -0.0448,-0.20744 -0.26987,-0.59408 -0.26987,-0.59408 -0.0367,-0.0649 -0.0699,-0.1076 -0.0857,-0.0688 -0.0155,0.037 -0.0695,0.33408 -0.0695,0.33408 0.0801,0.11501 0.39018,0.73801 0.36195,0.84667 -0.0289,0.109 -0.28187,0.65616 -1.08161,0.61418 -0.0829,-0.004 -0.89465,-0.12206 -0.49142,-1.07703 0.0145,-0.0339 -0.0215,-0.10266 -0.073,-0.0243 -0.0677,0.10231 -0.46743,1.21956 0.37677,1.42699 0.14323,0.0353 0.78281,0.0967 1.24601,-0.45685 0.0554,-0.066 0.2159,-0.39864 0.0864,-1.00083 m 1.276,0.3422 c -0.0646,-0.11995 -0.1584,-0.21202 -0.22049,-0.266 -0.1203,-0.10266 -0.22719,0.0469 -0.2473,0.11113 -0.0674,0.20955 0.28964,0.17356 0.36654,0.16792 0.0332,-0.002 0.067,-0.007 0.10125,-0.013 m -0.48049,1.44639 c -0.55562,0.23001 -1.25976,0.0797 -1.33138,0.0642 -0.14358,-0.0332 -0.0822,-0.127 0.0392,-0.10831 1.27882,0.17004 1.77694,-0.76905 1.85349,-1.0107 l 0.0109,-0.0621 c -0.22648,0.0455 -0.45685,0.0483 -0.5394,0.0226 -0.32949,-0.10266 -0.2667,-0.59726 0.003,-0.92111 0.2734,-0.32879 0.53586,0.19791 0.57855,0.30445 0.29034,0.73378 -0.13229,1.24389 -0.1778,1.30563 -0.12665,0.1718 -0.26105,0.33302 -0.43639,0.40534 m 7.11871,-2.47403 c 0.0377,0.27799 0.16933,1.10278 0.1785,1.69051 0.002,0.13864 0.048,0.17251 0.0804,0.073 0.0557,-0.17004 0.0737,-0.6484 -0.0113,-1.34514 -0.0423,-0.35137 -0.20426,-1.4351 -0.22578,-1.71415 -0.01,-0.15204 -0.0303,-0.28292 -0.0818,-0.16298 -0.0554,0.12771 -0.0825,0.29139 -0.0571,0.51435 0.0374,0.38241 0.0783,0.66922 0.11712,0.94439 m -5.31813,-0.54328 c 0.01,-0.0349 0.03,-0.22543 -0.06,-0.34078 -0.0554,-0.0603 -0.11642,-0.0638 -0.20073,0.066 -0.0257,0.0392 -0.0261,0.0797 0.03,0.115 0.0568,0.0346 0.23071,0.15981 0.23071,0.15981 m -0.80751,0.91934 c -0.0907,0.043 -0.16862,-0.008 0.0395,-0.15699 0.31926,-0.22719 0.56444,-0.38241 0.66604,-0.55668 0,0 -0.19438,-0.12524 -0.28293,-0.21378 -0.0885,-0.0893 0.0236,-0.33514 0.11113,-0.4318 0.22401,-0.25189 0.3309,-0.0854 0.35736,-0.0402 0.10866,0.21025 0.043,0.47342 0.0113,0.54821 0,0 0.0868,0.0649 0.11218,0.091 0.0342,0.037 0.0187,0.11183 -0.0268,0.24518 -0.0162,0.0466 -0.067,-0.0808 -0.18768,-0.13688 -0.0935,0.19827 -0.19685,0.36619 -0.8001,0.65194 m 2.50931,-1.50072 c 0.0123,-0.004 0.0272,-0.002 0.0423,-0.0162 0.0494,-0.0462 0.0907,-0.16898 0.0956,-0.21061 -0.006,-0.0321 -0.12065,-0.0434 -0.15381,-0.0511 -0.1136,-0.0275 -0.2219,-0.0871 -0.34008,-0.0949 -0.18239,-0.0116 -0.35137,0.0702 -0.44556,0.26212 -0.0106,0.0254 -0.0257,0.0586 -0.0353,0.084 -0.0113,0.042 0.0102,0.0702 0.0325,0.0378 0.025,-0.0378 0.0564,-0.0748 0.0956,-0.0984 0.0935,-0.0564 0.19262,-0.0783 0.29351,-0.0688 0.0921,0.009 0.26459,0.0734 0.26459,0.0825 -0.002,0.0198 -0.40182,0.21801 -0.46426,0.25717 -0.0272,0.0173 -0.0607,0.0487 -0.055,0.0801 0.005,0.024 0.0434,0.0293 0.0758,0.0176 0.1577,-0.0572 0.21414,-0.0533 0.34114,-0.10724 0.17145,-0.0737 0.2226,-0.1651 0.25294,-0.17392 m 5.65891,0.4893 c -0.0166,0.0374 -0.0236,0.0466 -0.0529,0.10019 -0.0296,0.0526 -0.0653,0.0631 -0.12735,0.0952 -0.0617,0.0311 -1.06257,0.44415 -1.09714,0.45932 -0.11324,0.0483 -0.0945,0.013 -0.0797,-0.0236 0.004,-0.0102 0.0123,-0.0378 0.0296,-0.0896 0.0166,-0.0536 0.0402,-0.0677 0.11783,-0.0991 0.0769,-0.0321 1.06115,-0.44027 1.13488,-0.47378 0.11254,-0.0536 0.0928,-0.008 0.0748,0.0314 m -0.39723,1.94627 c -0.0769,0.006 -0.43356,0.0406 -0.36583,-0.16827 0.0194,-0.0639 0.12594,-0.21343 0.24589,-0.11078 0.0628,0.0543 0.15698,0.14676 0.2219,0.2667 z m -0.34325,-0.58138 c -0.26987,0.32315 -0.33267,0.81845 -0.003,0.9204 0.0825,0.0254 0.31256,0.0226 0.5401,-0.0229 l -0.0109,0.0621 c -0.0773,0.24271 -0.57538,1.18039 -1.85349,1.01141 -0.12136,-0.0191 -0.18415,0.0744 -0.0402,0.1076 0.0723,0.0166 0.77611,0.16616 1.33209,-0.0638 0.17498,-0.072 0.31009,-0.23389 0.43674,-0.40534 0.0455,-0.0621 0.46708,-0.57185 0.17709,-1.30563 -0.042,-0.10619 -0.30444,-0.63324 -0.5782,-0.30374 m 4.23933,-0.15875 c 0.0501,-0.0769 0.0956,-0.13476 0.13441,-0.15417 0.14182,-0.0702 0.24659,-0.0511 0.30586,0.0593 0.0593,0.11148 0.18203,0.35419 0.0825,0.32809 -0.0903,-0.0243 -0.43357,-0.10478 -0.52282,-0.23319 m 0.64876,0.5581 c 0.0356,-0.0811 0.0815,-0.18662 0.0854,-0.25541 0.004,-0.0684 0.008,-0.49072 -0.0575,-0.6664 -0.0522,-0.16792 -0.27199,-0.26811 -0.4004,-0.16616 -0.29352,0.26458 -0.38594,0.48119 -0.48931,0.61348 -0.0864,0.11007 -0.36054,0.43603 -0.75988,0.24165 -0.0755,-0.15416 -0.15028,-0.28328 -0.15028,-0.28328 -0.0395,-0.0709 -0.0762,-0.11641 -0.0931,-0.0748 -0.0169,0.0413 -0.0755,0.36372 -0.0755,0.36372 0.0868,0.12594 0.42439,0.80398 0.39299,0.92251 -0.031,0.11853 -0.30621,0.71332 -1.17651,0.66851 -0.0907,-0.006 -0.97473,-0.13299 -0.53552,-1.17298 0.0152,-0.0377 -0.0233,-0.11219 -0.0801,-0.0268 -0.073,0.11183 -0.508,1.32785 0.41028,1.55434 0.15593,0.0388 0.85231,0.10477 1.35784,-0.49742 0.0579,-0.0688 0.2219,-0.40993 0.10619,-1.02164 0.10266,7e-4 0.20638,-0.0261 0.31715,-0.0847 0.10407,-0.0656 0.2032,-0.20003 0.29421,-0.34185 l 0.0247,0.0325 c 0.13511,0.10407 0.58949,0.266 0.68545,0.2667 0.0956,0 0.10795,0.009 0.14393,-0.072 m 3.62832,-0.0854 c 0.0769,0.45473 -0.0886,0.81316 -0.12418,0.86889 -0.19685,0.28258 -0.54434,0.0353 -0.6156,-0.008 -0.0709,-0.0448 -0.13299,-0.0131 -0.21978,0.0363 -0.66463,0.40993 -1.17933,0.34608 -1.28799,0.33303 -0.60148,-0.0684 -0.65123,-0.80151 -0.67416,-1.00683 -0.0257,-0.23142 -0.13158,-1.39312 -0.22789,-1.76177 -0.0314,-0.14535 0.0321,-0.38241 0.0459,-0.4505 0.013,-0.0684 0.0455,-0.091 0.0727,0.0138 0.0275,0.10407 0.2734,1.95333 0.30092,2.14418 0.0907,0.63324 0.4639,0.66887 0.59584,0.70132 0.58314,0.0681 1.17017,-0.26458 1.26577,-0.33196 0.0956,-0.0691 0.20038,-0.01 0.25082,0.0138 0.0501,0.0219 0.25012,0.10407 0.37324,0.12171 0.12277,0.0187 0.13265,-0.16334 0.11818,-0.27764 -0.0134,-0.11359 -0.25964,-1.52541 -0.27199,-1.61149 -0.0261,-0.17921 -0.055,-0.30797 -0.0624,-0.34254 -0.0236,-0.11571 -0.0226,-0.21202 -0.0317,-0.26741 -0.008,-0.0536 -0.0448,-0.10654 -0.0857,-0.18662 -0.0406,-0.0794 -0.007,-0.16616 0.01,-0.19297 0.0173,-0.0261 0.0861,-0.0949 0.13582,-0.2032 0.0243,-0.0511 0.0543,0.009 0.0674,0.0628 0.012,0.0494 0.11254,0.21555 0.15628,0.272 0.03,0.0388 0.0526,0.10618 0.0399,0.1337 -0.024,0.0533 -0.0953,0.15593 -0.11007,0.17498 -0.0116,0.0159 -0.0222,0.0448 -0.0155,0.1083 0,0 0.26247,1.46544 0.29457,1.65629 m -3.09069,1.11936 c -0.0148,0.0388 -0.0208,0.0487 -0.048,0.10231 -0.0272,0.0547 -0.0624,0.0667 -0.12241,0.10054 -0.06,0.0342 -1.09749,0.48507 -1.13171,0.50236 -0.11077,0.0533 -0.0928,0.0166 -0.0804,-0.0194 0.004,-0.0113 0.0113,-0.0388 0.0258,-0.0921 0.0148,-0.0533 0.0377,-0.0691 0.11289,-0.10372 0.0762,-0.0346 1.09678,-0.48048 1.16769,-0.51894 0.11077,-0.0572 0.0928,-0.0113 0.0762,0.0289 m 0.63712,-3.56834 c 0.005,-0.0102 0.0134,-0.0392 0.0307,-0.0907 0.018,-0.0519 0.0409,-0.0663 0.11818,-0.097 0.078,-0.0318 1.20156,-0.48578 1.27423,-0.5207 0.1136,-0.0515 0.0935,-0.007 0.0752,0.0332 -0.0173,0.0377 -0.024,0.0466 -0.054,0.0988 -0.0293,0.054 -0.066,0.0632 -0.1277,0.0942 -0.0614,0.0314 -1.20227,0.49 -1.23755,0.50482 -0.11324,0.0494 -0.0938,0.0127 -0.079,-0.0226 m 3.19969,2.19604 c 0.084,0.63641 0.0656,1.07527 0.009,1.23049 -0.0325,0.0914 -0.078,0.06 -0.0804,-0.0663 -0.008,-0.53657 -0.13758,-1.29293 -0.17568,-1.54728 -0.0381,-0.25012 -0.078,-0.51365 -0.11571,-0.86325 -0.025,-0.2032 0.002,-0.35313 0.0582,-0.47025 0.0515,-0.11077 0.0723,0.009 0.0818,0.14816 0.0208,0.25577 0.17992,1.24672 0.2226,1.56845 m -6.88128,-0.56197 c 0.0437,0.0448 0.091,0.0833 0.14217,0.11642 l 0.002,0.0282 -0.22508,0.22472 -0.0441,0.003 c -0.0476,-0.0318 -0.0935,-0.0695 -0.13618,-0.11219 -0.0388,-0.0392 -0.0741,-0.0811 -0.10512,-0.12523 l 0.006,-0.0416 0.22436,-0.22578 0.0247,0.002 c 0.0342,0.0441 0.0695,0.09 0.11077,0.13088 m -0.41451,-1.41711 c -0.0529,-0.0335 -0.0526,-0.072 -0.0282,-0.10971 0.0797,-0.12312 0.13794,-0.11924 0.1905,-0.0621 0.0857,0.109 0.0663,0.29069 0.0572,0.32349 0,0 -0.16545,-0.11924 -0.21942,-0.15169 m 0.21272,0.40569 c 0.11395,0.0536 0.16263,0.17463 0.17815,0.13018 0.043,-0.12665 0.0579,-0.19756 0.0247,-0.23283 -0.0233,-0.0247 -0.10619,-0.0868 -0.10619,-0.0868 0.0303,-0.0709 0.0921,-0.32103 -0.0109,-0.5207 -0.0247,-0.0427 -0.1263,-0.20109 -0.33902,0.0384 -0.0833,0.0917 -0.19015,0.32526 -0.10584,0.40992 0.0843,0.0843 0.26847,0.2032 0.26847,0.2032 -0.0963,0.16546 -0.32879,0.31292 -0.63253,0.52882 -0.19721,0.14181 -0.12348,0.19014 -0.0374,0.14922 0.57327,-0.27128 0.67099,-0.43074 0.76059,-0.61948 m 4.98687,-0.22048 c 0.0205,0.0508 0.037,0.11007 0.0346,0.14393 -0.0801,0.0776 -0.16686,0.0907 -0.22931,0.0384 -0.0399,-0.0332 -0.055,-0.0952 -0.0515,-0.17709 0.003,-0.0586 0.0102,-0.0804 -0.042,-0.0392 -0.0674,0.0547 -0.0487,0.0497 -0.0526,0.0801 -0.0236,0.19226 -0.10618,0.27869 -0.2547,0.28892 -0.0935,0.006 -0.16263,-0.0582 -0.097,-0.24306 0.0137,-0.0399 -0.0138,-0.0815 -0.0547,0 -0.1397,0.27728 -0.055,0.4325 0.0875,0.45367 0.11607,0.0173 0.2533,-0.0487 0.32421,-0.22437 0.0536,0.0892 0.16263,0.11501 0.2607,0.0892 0.12629,-0.0328 0.15416,-0.0914 0.18909,-0.19332 0.036,-0.0991 0.037,-0.2293 -0.0109,-0.38558 -0.008,-0.0258 -0.0219,-0.0116 -0.0282,3.5e-4 l -0.067,0.12876 c -0.008,0.0134 -0.0141,0.0236 -0.008,0.0392 m 6.62834,0.35278 c -0.0561,-0.0349 -0.0554,-0.0755 -0.03,-0.115 0.0836,-0.12983 0.14499,-0.12595 0.20038,-0.0656 0.0896,0.115 0.0695,0.3055 0.0596,0.34078 0,0 -0.17357,-0.12559 -0.23001,-0.16016 m 0.22366,0.42721 c 0.11994,0.0564 0.1711,0.1838 0.18733,0.13688 0.0455,-0.13335 0.061,-0.20814 0.0265,-0.24483 -0.025,-0.0261 -0.11183,-0.0914 -0.11183,-0.0914 0.0317,-0.0748 0.097,-0.33796 -0.0116,-0.54821 -0.0265,-0.0452 -0.133,-0.21132 -0.35701,0.0402 -0.0875,0.0967 -0.20002,0.34254 -0.11148,0.4318 0.0885,0.0885 0.28293,0.21413 0.28293,0.21413 -0.1016,0.17427 -0.34643,0.32914 -0.66604,0.55669 -0.20779,0.14887 -0.13018,0.19967 -0.0395,0.15663 0.60325,-0.28575 0.70662,-0.45332 0.80081,-0.65193 m -3.46004,-0.43251 c -0.0561,-0.0353 -0.0554,-0.0759 -0.03,-0.11501 0.084,-0.13017 0.14499,-0.12629 0.20038,-0.066 0.09,0.11501 0.0699,0.30551 0.06,0.34079 0,0 -0.17427,-0.12559 -0.23036,-0.15981 m 0.22366,0.42721 c 0.12029,0.0561 0.17074,0.18345 0.18732,0.13653 0.0455,-0.133 0.061,-0.20779 0.0265,-0.24483 -0.025,-0.0261 -0.11183,-0.0914 -0.11183,-0.0914 0.0318,-0.0748 0.097,-0.33796 -0.0113,-0.54786 -0.0268,-0.0452 -0.13335,-0.21167 -0.35736,0.0402 -0.0875,0.0963 -0.19967,0.34254 -0.11148,0.4318 0.0886,0.0882 0.28293,0.21378 0.28293,0.21378 -0.1016,0.17427 -0.34643,0.32949 -0.66569,0.55668 -0.20814,0.14887 -0.13053,0.19967 -0.0399,0.15664 0.60325,-0.2854 0.70662,-0.45332 0.80081,-0.65158 m 1.61113,-0.46885 c 0.0127,-0.003 0.0275,-0.002 0.0427,-0.0162 0.0494,-0.0462 0.0907,-0.16898 0.0956,-0.21061 -0.006,-0.0321 -0.12065,-0.0434 -0.15381,-0.0511 -0.11359,-0.0275 -0.2219,-0.0875 -0.34008,-0.0949 -0.18203,-0.0116 -0.35136,0.0702 -0.4452,0.26212 -0.0106,0.025 -0.0257,0.0586 -0.0356,0.0836 -0.0113,0.0423 0.0102,0.0706 0.0325,0.0381 0.025,-0.0381 0.0564,-0.0748 0.0956,-0.0984 0.0935,-0.0568 0.19261,-0.0783 0.29386,-0.0688 0.0917,0.009 0.26423,0.0734 0.26388,0.0825 -0.001,0.0198 -0.40111,0.21802 -0.46391,0.25717 -0.0272,0.0173 -0.0607,0.0487 -0.0547,0.0801 0.005,0.024 0.0434,0.0293 0.0759,0.0176 0.15734,-0.0571 0.21378,-0.0533 0.34078,-0.10724 0.17181,-0.0737 0.22261,-0.1651 0.25259,-0.17392 m -2.08385,2.40206 c -0.024,0.0515 -0.0554,0.13935 -0.0741,0.1905 -0.006,0.0183 0.008,0.0406 0.0303,0.0272 0.127,-0.0776 0.31715,-0.17392 0.51894,-0.24518 0.18274,-0.0649 0.32702,-0.10689 0.46002,-0.1143 0.0205,-0.003 0.12947,-0.19438 0.1457,-0.22189 0.0229,-0.036 0.006,-0.0476 -0.0222,-0.042 -0.15452,0.0296 -0.27411,0.0572 -0.46108,0.0399 -0.23072,-0.0205 -0.41099,-0.19685 -0.40464,-0.266 0.005,-0.0526 0.16863,-0.15734 0.22966,-0.14817 0.17674,0.0279 0.17357,0.18345 0.22084,0.18521 0.0572,0.002 0.17286,-0.20214 0.17992,-0.25753 0.007,-0.0607 -0.11324,-0.20496 -0.22895,-0.21166 -0.1898,-0.0116 -0.51153,0.31044 -0.63783,0.50835 -0.0459,0.0727 -0.0413,0.18415 0.0243,0.2413 0.0586,0.0497 0.15522,0.10266 0.26423,0.16863 -0.0533,0.0191 -0.19333,0.10054 -0.24518,0.1457 m 6.51298,-0.98531 c -0.0317,-0.29951 -0.1584,-1.22485 -0.17075,-1.46262 -0.005,-0.13017 -0.0212,-0.24271 -0.0769,-0.14217 -0.0593,0.1076 -0.0924,0.24624 -0.0734,0.43568 0.0257,0.32667 0.0564,0.57185 0.0861,0.8061 0.0293,0.23707 0.13476,0.94333 0.12382,1.44357 -0.002,0.11712 0.0427,0.14746 0.0787,0.0632 0.0617,-0.14182 0.0949,-0.54752 0.0325,-1.14371 m -1.51836,1.55011 c -0.0413,-0.0406 -0.0769,-0.0861 -0.11077,-0.13088 l -0.0247,-0.002 -0.22437,0.22577 -0.006,0.0416 c 0.031,0.0441 0.0663,0.0854 0.10513,0.12453 0.0427,0.0434 0.0885,0.0808 0.13617,0.1136 l 0.0441,-0.003 0.22472,-0.22543 -0.002,-0.0275 c -0.0512,-0.0339 -0.0984,-0.0716 -0.14182,-0.11641 m 1.04705,-1.09361 c -0.15346,-0.01 -0.86254,-0.0226 -1.27847,-0.25224 0.0413,-0.0349 0.13123,-0.15064 0.0988,-0.44168 -0.0314,-0.29069 -0.14782,-1.12148 -0.14782,-1.12148 -0.009,-0.0868 -0.0448,-0.17039 0.005,-0.21449 0.0497,-0.0448 0.15346,-0.12065 0.0938,-0.20249 -0.06,-0.0818 -0.16298,-0.23777 -0.19297,-0.32597 -0.0254,-0.0744 -0.0473,-0.13617 -0.085,-0.0776 -0.0441,0.0674 -0.0596,0.15346 -0.11888,0.23142 -0.0311,0.0413 -0.0635,0.0614 -0.0282,0.12312 0.0476,0.0843 0.096,0.23778 0.10513,0.34326 0.004,0.055 0.0201,0.17427 0.036,0.28786 0,0 0.2032,1.05022 0.18697,1.22026 0,0 -0.84067,0.0296 -0.94968,0.13582 l -0.16863,0.26176 c -0.0145,0.0289 -0.0127,0.0607 0.0272,0.0547 0.0402,-0.007 0.55668,-0.17251 1.28234,0.11854 -0.0857,0.0296 -1.04387,0.43956 -1.85314,0.34783 -0.12135,-0.003 -0.9719,-0.115 -1.0421,-0.54645 -0.01,-0.0543 -0.0236,-0.0744 -0.0526,-0.0194 -0.0261,0.049 -0.26211,0.40111 0.10866,0.65405 -0.11748,0.248 -0.32703,0.5842 -0.64664,0.71579 -0.10478,0.0395 -0.57221,0.1591 -1.04352,-0.0522 -0.0582,-0.0187 -0.14358,0.0282 -0.0557,0.0882 0.0885,0.0607 0.95074,0.61171 1.5106,0.0318 0.0991,-0.10125 0.2674,-0.37289 0.39511,-0.69815 0.57361,0.31221 1.52752,0.14076 1.52752,0.14076 0.20744,-0.0441 0.4251,-0.10548 0.64982,-0.19226 0.11818,-0.0483 0.92992,-0.41558 1.4799,-0.28752 0.11501,0.0282 0.14111,0.0282 0.14111,0.0282 0,0 0.0988,-0.21061 0.12136,-0.26176 0.0219,-0.0508 0.0476,-0.0797 -0.10583,-0.0896 m -4.07388,-1.02164 c 0.0441,0.0441 0.091,0.0825 0.14217,0.11712 l 0.002,0.0275 -0.22437,0.22472 -0.0444,0.003 c -0.0476,-0.0321 -0.0931,-0.0709 -0.13617,-0.11289 -0.0392,-0.0399 -0.0741,-0.0811 -0.10513,-0.12524 l 0.006,-0.0416 0.22472,-0.22577 0.025,0.002 c 0.0335,0.0448 0.0692,0.09 0.11007,0.13088"
         style="fill:#231f20;fill-opacity:1;fill-rule:nonzero;stroke:none;stroke-width:0.352778"
         clip-path="url(#clipPath1)"
         id="path26-3" /></g></g></svg>
