<?xml version="1.0" encoding="UTF-8" standalone="no"?>
<!-- Created with Inkscape (http://www.inkscape.org/) -->

<svg
   width="29.238811mm"
   height="6.9099998mm"
   viewBox="0 0 29.23881 6.9099997"
   version="1.1"
   id="svg1"
   xml:space="preserve"
   xmlns="http://www.w3.org/2000/svg"
   xmlns:svg="http://www.w3.org/2000/svg"><defs
     id="defs1" /><g
     id="layer1"
     transform="translate(-213.52281,-66.265494)"><g
       id="g57"
       transform="translate(-48.392586,3.1466167)"><path
         d="m 267.96376,65.504101 -0.20461,0.24483 -0.002,0.0416 c 0.0349,0.0413 0.0734,0.0801 0.11571,0.11571 0.0462,0.0381 0.0953,0.072 0.14464,0.10019 l 0.0441,-0.007 0.20426,-0.24412 -0.005,-0.0272 c -0.0536,-0.0293 -0.10372,-0.0628 -0.15134,-0.10372 -0.0445,-0.0367 -0.0836,-0.079 -0.12206,-0.12065 z m 0.0875,0.81245 -0.008,0.0141 -0.10195,-0.0741 c -0.0459,-0.0385 -0.0864,-0.0818 -0.12418,-0.12488 l -0.0275,3.5e-4 -0.21166,0.2533 -0.003,0.0437 c 0.0371,0.0423 0.0766,0.0833 0.12101,0.11994 0.0469,0.0402 0.0974,0.0751 0.15028,0.10442 l 0.0459,-0.008 0.19967,-0.23812 0.078,0.073 c 0.048,0.0399 0.0984,0.0748 0.15028,0.10442 l 0.0462,-0.007 0.21097,-0.25365 -0.006,-0.0275 c -0.0536,-0.0318 -0.10619,-0.0663 -0.15593,-0.1083 -0.0462,-0.0381 -0.0854,-0.0818 -0.12524,-0.12559 l -0.0261,3.5e-4 z m -5.11034,-0.82761 -0.025,-10e-4 -0.22507,0.22577 -0.006,0.0416 c 0.0307,0.0434 0.066,0.0854 0.10478,0.12453 0.043,0.0427 0.0882,0.0808 0.13617,0.1136 l 0.0441,-0.003 0.22507,-0.22472 -0.002,-0.0282 c -0.0512,-0.0339 -0.0984,-0.0723 -0.14181,-0.11642 -0.0423,-0.0409 -0.0769,-0.0861 -0.11042,-0.13158 m 0.57714,-0.89112 c 0.0614,-0.0328 0.0967,-0.0434 0.12594,-0.097 0.0275,-0.0536 0.0349,-0.0632 0.0508,-0.10089 0.0176,-0.0402 0.036,-0.0854 -0.0751,-0.031 -0.073,0.0356 -1.29258,0.55809 -1.36878,0.5909 -0.0751,0.0332 -0.0984,0.048 -0.1143,0.10054 -0.0155,0.0522 -0.024,0.0808 -0.0275,0.0921 -0.0145,0.0349 -0.0328,0.0716 0.0787,0.0205 0.0335,-0.0159 1.27035,-0.54292 1.33032,-0.57503 m 7.13634,3.77896 c -0.0713,0.0356 -1.04951,0.46073 -1.12677,0.49424 -0.0769,0.0332 -0.0998,0.048 -0.11606,0.10054 -0.0166,0.0526 -0.0243,0.0811 -0.0282,0.0917 -0.0141,0.0346 -0.0325,0.0702 0.079,0.0205 0.0353,-0.0152 1.03081,-0.4452 1.0922,-0.47766 0.0607,-0.0328 0.097,-0.0438 0.12523,-0.0974 0.0282,-0.0536 0.0356,-0.0631 0.0512,-0.10089 0.0173,-0.0395 0.0367,-0.0864 -0.0766,-0.0311 m 0.42228,-3.2766 c -0.009,-0.0896 -0.0226,-0.10478 0.0282,-0.15029 0.0504,-0.0455 0.16475,-0.13758 0.10407,-0.2226 -0.0614,-0.084 -0.16792,-0.2293 -0.19826,-0.31961 -0.0258,-0.0765 -0.0483,-0.1397 -0.0868,-0.0797 -0.0448,0.0681 -0.0635,0.10865 -0.12489,0.18873 -0.0324,0.042 -0.0646,0.0621 -0.0289,0.12594 0.049,0.0861 0.11289,0.23213 0.12207,0.33973 0.005,0.0564 0.0187,0.17921 0.0363,0.29492 0.0229,0.15169 0.29704,2.13819 0.26317,2.18017 -0.0328,0.042 -0.25082,0.22648 -0.62618,0.0173 l -0.0353,-0.0222 c 0.27234,-0.19438 0.24835,-0.38171 0.20461,-0.45121 -0.079,-0.12629 -0.79904,-0.52775 -1.20827,0.12136 -0.0448,0.066 -0.0787,0.22225 0.0166,0.1651 0.0811,-0.0487 0.2914,-0.0607 0.51506,0.0801 l 0.0522,0.0346 c -0.53164,0.34502 -1.00471,0.12241 -1.15993,0.0261 0.0127,-0.0607 0.0222,-0.11042 0.0236,-0.13653 0.004,-0.10548 -0.0621,-0.11571 -0.0914,-0.01 -0.0289,0.10513 -0.0445,0.24166 -0.0963,0.34502 -0.0914,0.18344 -0.35525,0.0406 -0.46567,-0.009 0.0317,-0.0924 0.0579,-0.20073 0.0776,-0.32526 0.012,-0.0716 -0.0321,-0.13159 -0.0808,0.0187 -0.0466,0.14605 -0.2159,0.58067 -0.96484,0.32985 0.0102,-0.0875 0.0635,-0.28364 -0.0998,-0.19968 -0.17815,0.0917 -0.60854,0.25471 -0.85654,0.3168 -0.16263,0.0406 -0.18839,0.0656 -0.16334,0.13723 0.0247,0.0709 0.0681,0.26176 0.15452,0.23424 0.0176,-0.006 0.0476,-0.0159 0.085,-0.0282 -0.073,0.19368 -0.32985,0.79022 -0.79199,0.98037 -0.10901,0.042 -0.57891,0.17216 -1.07068,-0.0483 -0.0607,-0.0191 -0.15064,0.0296 -0.0582,0.0924 0.0917,0.0628 1.06786,0.58914 1.65171,-0.0173 0.1344,-0.13617 0.32526,-0.57855 0.45014,-1.05198 v -0.0116 c 0.0988,-0.0318 0.18556,-0.06 0.18556,-0.06 0.054,-0.0187 0.26705,-0.10972 0.38559,-0.16122 0.36477,0.26987 0.71825,0.3623 0.95003,0.0751 0.28857,0.2667 0.49883,0.2092 0.58843,0.0723 0.037,-0.0564 0.0787,-0.16404 0.1143,-0.27764 0.45897,0.45191 1.24707,0.0166 1.42452,-0.10901 0.061,0.0649 0.11818,0.13088 0.13405,0.16334 0.0296,0.0593 0.19685,0.22401 0.52212,0.16757 0.10971,-0.0187 0.38946,-0.14817 0.37218,-0.63959 -0.01,-0.66816 -0.22049,-1.93816 -0.22049,-1.93816 -0.0159,-0.10407 -0.0332,-0.23848 -0.0332,-0.23848 m -7.06155,1.63301 c -0.0448,-0.20743 -0.27023,-0.59407 -0.27023,-0.59407 -0.0367,-0.0646 -0.0695,-0.10725 -0.0854,-0.0688 -0.0159,0.0374 -0.0695,0.33408 -0.0695,0.33408 0.0797,0.11535 0.38982,0.73801 0.36124,0.84702 -0.0289,0.10865 -0.28151,0.65581 -1.08091,0.61383 -0.0829,-0.004 -0.89499,-0.12206 -0.49212,-1.07703 0.0145,-0.0335 -0.0212,-0.10266 -0.073,-0.024 -0.067,0.10195 -0.46672,1.21955 0.37747,1.42698 0.14323,0.0349 0.78247,0.0963 1.24602,-0.45684 0.0554,-0.0663 0.2159,-0.39899 0.0864,-1.00119 m 1.27599,0.34255 c -0.0646,-0.11994 -0.15839,-0.21237 -0.22048,-0.26599 -0.12065,-0.10266 -0.22719,0.0469 -0.2473,0.11077 -0.0674,0.20955 0.28892,0.17357 0.36654,0.16827 0.0328,-0.003 0.067,-0.008 0.10124,-0.0131 m -0.48048,1.44604 c -0.55563,0.23036 -1.25977,0.0801 -1.33174,0.0642 -0.14322,-0.0332 -0.0818,-0.12665 0.0392,-0.1083 1.27882,0.17039 1.7773,-0.76871 1.85385,-1.01071 l 0.0109,-0.0621 c -0.22684,0.0455 -0.45685,0.0483 -0.5394,0.0229 -0.3295,-0.10266 -0.26705,-0.59761 0.002,-0.92146 0.2734,-0.32843 0.53622,0.19791 0.57891,0.3048 0.28998,0.73378 -0.1323,1.24354 -0.1778,1.30563 -0.127,0.17145 -0.26106,0.33267 -0.43639,0.40499 m 7.11835,-2.47368 c 0.0381,0.27799 0.16969,1.10279 0.17851,1.69052 0.002,0.13828 0.0483,0.1725 0.0808,0.073 0.0557,-0.1704 0.0737,-0.64841 -0.0116,-1.3455 -0.0423,-0.35137 -0.20426,-1.43475 -0.22543,-1.71379 -0.01,-0.1524 -0.0303,-0.28328 -0.0822,-0.16299 -0.0554,0.12736 -0.0825,0.29105 -0.0572,0.51435 0.0377,0.38241 0.0787,0.66887 0.11712,0.94439 m -5.31813,-0.54328 c 0.01,-0.0353 0.03,-0.22578 -0.06,-0.34078 -0.0554,-0.0603 -0.11641,-0.0642 -0.20038,0.0656 -0.0258,0.0395 -0.0261,0.0801 0.03,0.115 0.0564,0.0346 0.23036,0.16017 0.23036,0.16017 m -0.80786,0.91898 c -0.0903,0.043 -0.16827,-0.008 0.0402,-0.15663 0.31926,-0.22754 0.56409,-0.38241 0.66534,-0.55669 0,0 -0.19368,-0.12558 -0.28222,-0.21413 -0.0885,-0.0892 0.0236,-0.33514 0.11112,-0.43145 0.22366,-0.25188 0.33055,-0.0857 0.35737,-0.0406 0.10795,0.21026 0.0427,0.47343 0.0113,0.54822 0,0 0.0868,0.0653 0.11148,0.0914 0.0349,0.0367 0.0194,0.11148 -0.0261,0.24483 -0.0162,0.0469 -0.067,-0.0804 -0.18733,-0.13688 -0.0942,0.19861 -0.19791,0.36618 -0.80116,0.65193 m 2.51002,-1.50071 c 0.012,-0.004 0.0268,-0.002 0.042,-0.0162 0.0494,-0.0462 0.091,-0.16863 0.0956,-0.21026 -0.005,-0.0321 -0.12065,-0.0434 -0.15346,-0.0515 -0.11394,-0.0272 -0.22225,-0.0871 -0.34043,-0.0945 -0.18203,-0.012 -0.35101,0.0702 -0.4452,0.26211 -0.0106,0.0251 -0.0254,0.0586 -0.0353,0.0836 -0.012,0.042 0.01,0.0702 0.0317,0.0378 0.0257,-0.0378 0.0568,-0.0744 0.0959,-0.0984 0.0935,-0.0564 0.19297,-0.0783 0.29387,-0.0684 0.0921,0.009 0.26423,0.0734 0.26423,0.0822 -10e-4,0.0201 -0.40146,0.21802 -0.46426,0.25753 -0.0275,0.0173 -0.0603,0.0483 -0.0547,0.0797 0.005,0.0243 0.0434,0.0293 0.0759,0.0176 0.15699,-0.0568 0.21378,-0.0529 0.34078,-0.10724 0.17181,-0.0737 0.22296,-0.16475 0.2533,-0.17392 m 5.65855,0.48965 c -0.0166,0.037 -0.0236,0.0466 -0.0529,0.0998 -0.0296,0.0526 -0.0653,0.0635 -0.127,0.0956 -0.0617,0.0307 -1.06257,0.4438 -1.0975,0.45897 -0.11324,0.0483 -0.0942,0.013 -0.0794,-0.0233 0.004,-0.0102 0.0123,-0.0381 0.0296,-0.09 0.0162,-0.0533 0.0402,-0.0674 0.11783,-0.0988 0.0765,-0.0325 1.0608,-0.44027 1.13453,-0.47413 0.11289,-0.0533 0.0928,-0.007 0.0748,0.0317 m -0.39722,1.94592 c -0.0762,0.006 -0.43322,0.0409 -0.36584,-0.16793 0.0194,-0.0642 0.1263,-0.21378 0.24589,-0.11112 0.0628,0.0547 0.15734,0.14676 0.2219,0.2667 z m -0.3429,-0.58138 c -0.27023,0.32314 -0.33303,0.81844 -0.004,0.9204 0.0825,0.0258 0.31291,0.0229 0.5401,-0.0226 l -0.0109,0.0621 c -0.0772,0.24236 -0.57538,1.18004 -1.85349,1.01141 -0.12136,-0.0194 -0.18415,0.0744 -0.0399,0.1076 0.0723,0.0162 0.77575,0.1658 1.33173,-0.0642 0.17498,-0.0716 0.31009,-0.23354 0.43674,-0.40499 0.0455,-0.0621 0.46743,-0.57221 0.1771,-1.30598 -0.042,-0.10584 -0.30445,-0.63324 -0.57785,-0.30375 m 5.22146,-0.85301 c 0.0279,0.10936 0.0677,0.50517 -0.11113,0.83291 -0.11288,0.14287 -0.15522,0.19473 -0.29315,0.16157 -0.11677,-0.0272 -0.28364,-0.0949 -0.36725,-0.17569 -0.2413,0.22931 -0.58102,0.22578 -0.82655,0.17181 -0.11607,0.0751 -0.26565,0.12559 -0.45932,0.12559 -0.12136,0 -0.39935,-0.0413 -0.6604,-0.35137 l -0.0977,0.061 c -0.28293,0.18274 -0.60431,0.48542 -0.74013,1.08902 -0.14111,0.75636 0.0857,1.23437 0.6798,1.41147 0.59514,0.17533 1.93534,-0.0303 2.15759,-0.0508 0.2212,-0.0201 0.1457,0.091 0.0349,0.14111 -0.11077,0.0504 -0.9525,0.29245 -1.20897,0.3429 -1.07844,0.21625 -1.80446,-0.23707 -1.87008,-1.23014 -0.0603,-0.91228 0.41311,-1.5367 0.5895,-1.77376 0.0582,-0.0769 0.11288,-0.13582 0.16404,-0.18239 -0.1898,-0.19755 -0.36654,-0.0688 -0.40711,-0.0243 -0.043,0.0462 -0.0734,0.0176 -0.0557,-0.06 0.10478,-0.3877 0.27658,-0.50235 0.58738,-0.55069 0.31044,-0.0483 0.54716,0.0984 0.59055,0.13265 0.14464,0.10372 0.0515,0.29986 -0.0173,0.43215 -0.019,0.0378 -0.0635,0.0716 -0.12559,0.10689 0.18239,0.12524 0.84385,0.40499 1.17899,-0.2921 0.0296,-0.0646 0.0808,-0.073 0.06,0.0205 -0.009,0.0409 -0.0385,0.19086 -0.12524,0.34961 0.56198,0.14287 0.66887,-0.28611 0.71755,-0.42475 0.0519,-0.1464 0.11042,-0.0621 0.0977,0.009 -0.018,0.0998 -0.0437,0.18839 -0.0755,0.26459 0.12347,0.0568 0.42051,0.13088 0.41804,0.0935 -0.002,-0.0402 -0.0198,-0.36231 0.009,-0.43957 0.0293,-0.0783 0.0681,-0.19014 0.0935,-0.23565 0.0254,-0.0444 0.0356,-0.0653 0.0624,0.0448 m 3.85374,1.36596 c 0.0296,0.21731 -0.0984,0.58596 -0.1531,0.70837 -0.0543,0.12171 -0.26952,0.0526 -0.38841,0.0282 -0.0494,-0.01 -0.11677,-0.043 -0.17851,-0.0776 -0.0713,0.10725 -0.18344,0.22014 -0.35701,0.29351 -0.1972,0.0677 -1.32891,0.4311 -1.83726,0.01 -0.1136,-0.0818 -0.31327,-0.2286 -0.32315,-0.77681 -0.004,-0.22402 -0.11395,-1.45309 -0.22719,-2.11561 -0.0183,-0.10442 0.0494,-0.19897 0.0628,-0.23954 0.0448,-0.1337 0.0716,-0.0378 0.10124,0.042 0.14994,0.34431 0.22825,2.16218 0.23566,2.28389 0.013,0.19402 0.11218,0.49071 0.49777,0.60748 0.38488,0.11606 1.01141,0.0533 1.53952,-0.17004 0.16334,-0.073 0.31115,-0.19403 0.35595,-0.25682 0.0445,-0.0632 0.0889,-0.0674 0.0741,0.0243 l -0.0127,0.0589 c 0.10054,0.0268 0.28681,0.0709 0.38065,0.0462 0.096,-0.0233 0.0864,-0.15593 0.0716,-0.24342 -0.0148,-0.0878 -0.3108,-1.76459 -0.34078,-1.90429 -0.0236,-0.11642 -0.0229,-0.21061 -0.0321,-0.266 -0.008,-0.0529 -0.0452,-0.10653 -0.0864,-0.18591 -0.0416,-0.078 -0.007,-0.1651 0.01,-0.19156 0.0166,-0.0265 0.0871,-0.096 0.13758,-0.20249 0.0243,-0.0504 0.055,0.008 0.0684,0.0635 0.012,0.0483 0.11395,0.21378 0.1584,0.26917 0.0296,0.0388 0.0526,0.10618 0.0399,0.13299 -0.0236,0.0536 -0.0967,0.15487 -0.11147,0.17463 -0.0123,0.0159 -0.0219,0.0441 -0.0155,0.1076 0,0 0.30022,1.56139 0.3302,1.77941 m -3.94335,0.51117 c -0.0155,0.0374 -0.0222,0.0473 -0.0508,0.10054 -0.0282,0.054 -0.0639,0.0649 -0.12488,0.0974 -0.06,0.0339 -1.18604,0.5267 -1.22061,0.54363 -0.11289,0.0515 -0.0938,0.0145 -0.0811,-0.0212 0.005,-0.0106 0.0123,-0.0388 0.0286,-0.091 0.0159,-0.0533 0.0391,-0.0681 0.11606,-0.1023 0.0759,-0.0325 1.18463,-0.52176 1.2573,-0.5581 0.11148,-0.0554 0.0928,-0.008 0.0755,0.031 m 1.51765,-2.55799 c 0.004,-0.0102 0.0123,-0.0384 0.0275,-0.0914 0.0159,-0.0533 0.0388,-0.0677 0.11536,-0.1016 0.0762,-0.0335 1.39912,-0.59654 1.47143,-0.63288 0.11113,-0.0568 0.0924,-0.0106 0.0759,0.0296 -0.0159,0.0377 -0.0219,0.048 -0.0501,0.10195 -0.0275,0.0536 -0.0642,0.0646 -0.12418,0.0977 -0.0607,0.0332 -1.40088,0.60078 -1.43581,0.61666 -0.11112,0.0529 -0.0935,0.0159 -0.0801,-0.0201 m 3.31188,1.57903 c 0.0956,0.65335 0.0847,1.10384 0.0317,1.26471 -0.0314,0.0942 -0.0769,0.0635 -0.0811,-0.0674 -0.0173,-0.5528 -0.16228,-1.32539 -0.20461,-1.58574 -0.0423,-0.25788 -0.0878,-0.52634 -0.13088,-0.88512 -0.0296,-0.20919 -0.004,-0.36371 0.0494,-0.48542 0.0494,-0.11359 0.0716,0.009 0.0836,0.15205 0.0261,0.26176 0.20355,1.27776 0.25188,1.6069 m -2.5407,0.26741 c -0.0455,-0.0363 -0.0854,-0.0759 -0.12312,-0.11818 l 0.002,-0.0438 0.20744,-0.25682 0.0268,-7.1e-4 c 0.0388,0.0423 0.0797,0.0847 0.12629,0.12241 l 0.10337,0.0716 0.008,-0.0141 0.20814,-0.25576 0.0261,-0.001 c 0.0406,0.0423 0.0804,0.0854 0.12736,0.12241 0.0504,0.042 0.10336,0.0755 0.15804,0.10584 l 0.007,0.0279 -0.20708,0.25682 -0.0459,0.007 c -0.0526,-0.0286 -0.10336,-0.0621 -0.15169,-0.10125 l -0.0787,-0.0713 -0.1965,0.24165 -0.0455,0.009 c -0.0536,-0.0286 -0.10477,-0.0635 -0.15204,-0.10195 m 0.4011,-1.41393 c 0.0215,0.0515 0.0385,0.11253 0.036,0.14711 -0.0822,0.0801 -0.17145,0.0931 -0.23531,0.0395 -0.0409,-0.0335 -0.0564,-0.0977 -0.0526,-0.18133 0.002,-0.06 0.0102,-0.0829 -0.043,-0.0406 -0.0695,0.0564 -0.0504,0.0515 -0.0543,0.0825 -0.0243,0.19685 -0.10865,0.2854 -0.26105,0.29598 -0.096,0.007 -0.16687,-0.0596 -0.0995,-0.24906 0.0141,-0.0413 -0.0141,-0.084 -0.0561,0 -0.14322,0.28434 -0.0564,0.44309 0.0896,0.46531 0.11889,0.0176 0.26,-0.0504 0.33232,-0.23036 0.055,0.0914 0.16686,0.11818 0.26775,0.0914 0.12947,-0.0335 0.15805,-0.0935 0.19368,-0.19826 0.0367,-0.10125 0.0381,-0.2346 -0.0113,-0.39511 -0.008,-0.0265 -0.0222,-0.012 -0.0289,3.5e-4 l -0.0684,0.13229 c -0.009,0.0138 -0.0141,0.0236 -0.009,0.0402 m 6.8319,-0.27834 c -0.0561,-0.0353 -0.0554,-0.0759 -0.03,-0.11501 0.084,-0.12982 0.14499,-0.12629 0.20038,-0.066 0.09,0.11501 0.0695,0.30551 0.06,0.34079 0,0 -0.17392,-0.12524 -0.23036,-0.15981 m 0.22366,0.42721 c 0.11994,0.0561 0.1711,0.18345 0.18732,0.13688 0.0455,-0.13335 0.061,-0.20814 0.0265,-0.24518 -0.025,-0.0261 -0.11183,-0.0914 -0.11183,-0.0914 0.0314,-0.0748 0.097,-0.33796 -0.0116,-0.54787 -0.0265,-0.0452 -0.13335,-0.21166 -0.35701,0.0402 -0.0875,0.0963 -0.20003,0.34255 -0.11148,0.4318 0.0885,0.0885 0.28293,0.21379 0.28293,0.21379 -0.1016,0.17427 -0.34643,0.32949 -0.66605,0.55668 -0.20813,0.14887 -0.12982,0.20003 -0.0395,0.15663 0.60325,-0.28539 0.70662,-0.45332 0.80081,-0.65158 m -12.78961,-1.11619 c -0.0519,-0.0332 -0.0512,-0.0706 -0.0279,-0.10724 0.078,-0.12065 0.13477,-0.11712 0.18627,-0.0614 0.0833,0.10689 0.0642,0.28434 0.0554,0.3168 0,0 -0.16122,-0.11642 -0.21379,-0.14817 m 0.20779,0.39652 c 0.11148,0.0519 0.15875,0.17039 0.17427,0.12665 0.0423,-0.12383 0.0564,-0.19297 0.024,-0.22719 -0.0226,-0.0247 -0.10372,-0.085 -0.10372,-0.085 0.0296,-0.0695 0.0903,-0.31362 -0.0106,-0.50871 -0.0247,-0.042 -0.12382,-0.19685 -0.33161,0.0374 -0.0811,0.0893 -0.18521,0.31786 -0.10336,0.40076 0.0825,0.0822 0.26246,0.19897 0.26246,0.19897 -0.0942,0.16157 -0.32173,0.3055 -0.61771,0.51682 -0.19368,0.13793 -0.121,0.18556 -0.0374,0.14569 0.56022,-0.26529 0.65582,-0.42121 0.74366,-0.60536 m 9.12178,0.28681 c -0.0561,-0.0349 -0.0554,-0.0759 -0.03,-0.11501 0.084,-0.12982 0.14499,-0.12594 0.20038,-0.0656 0.0899,0.11501 0.0699,0.30551 0.06,0.34043 0,0 -0.17392,-0.12524 -0.23036,-0.15981 m 0.22366,0.42722 c 0.12029,0.0561 0.17109,0.18379 0.18732,0.13687 0.0455,-0.13335 0.061,-0.20814 0.0261,-0.24482 -0.0247,-0.0265 -0.11148,-0.0914 -0.11148,-0.0914 0.0317,-0.0748 0.097,-0.33796 -0.0113,-0.54822 -0.0268,-0.0452 -0.13335,-0.21167 -0.35736,0.0402 -0.0875,0.0967 -0.20003,0.34255 -0.11148,0.4318 0.0885,0.0885 0.28293,0.21378 0.28293,0.21378 -0.1016,0.17463 -0.34643,0.3295 -0.66605,0.55704 -0.20778,0.14852 -0.13017,0.19967 -0.0395,0.15663 0.6029,-0.28575 0.70661,-0.45332 0.80081,-0.65193 m 1.61148,-0.46884 c 0.0123,-0.004 0.0272,-0.002 0.0427,-0.0162 0.049,-0.0462 0.0903,-0.16863 0.0953,-0.21026 -0.006,-0.0321 -0.12065,-0.0437 -0.15381,-0.0515 -0.11359,-0.0272 -0.2219,-0.0871 -0.34008,-0.0949 -0.18203,-0.0116 -0.35136,0.0706 -0.4452,0.26247 -0.0106,0.025 -0.0258,0.0586 -0.0356,0.0836 -0.0113,0.042 0.0102,0.0702 0.0325,0.0378 0.025,-0.0378 0.0564,-0.0748 0.0956,-0.0984 0.0935,-0.0564 0.19262,-0.0783 0.29387,-0.0684 0.0917,0.009 0.26423,0.0734 0.26388,0.0822 -10e-4,0.0201 -0.40111,0.21802 -0.46391,0.25753 -0.0272,0.0169 -0.0607,0.0483 -0.0547,0.0797 0.005,0.0243 0.0434,0.0293 0.0755,0.0176 0.15769,-0.0568 0.21413,-0.0529 0.34113,-0.10725 0.17181,-0.0737 0.22261,-0.1651 0.25294,-0.17392 m -2.08421,2.40242 c -0.0243,0.0511 -0.0554,0.13899 -0.0741,0.1905 -0.006,0.018 0.008,0.0402 0.0303,0.0272 0.127,-0.078 0.31715,-0.17392 0.51894,-0.24518 0.18309,-0.0649 0.32702,-0.10689 0.46002,-0.11465 0.0205,-0.003 0.12911,-0.19403 0.14569,-0.2219 0.0229,-0.0356 0.006,-0.0473 -0.0222,-0.042 -0.15452,0.0296 -0.27446,0.0572 -0.46108,0.0402 -0.23072,-0.0205 -0.41099,-0.19685 -0.40464,-0.266 0.005,-0.0529 0.16863,-0.15769 0.22966,-0.14816 0.17674,0.0279 0.17357,0.18309 0.22119,0.18485 0.0568,0.002 0.17251,-0.20179 0.17957,-0.25717 0.007,-0.0607 -0.11324,-0.20497 -0.22896,-0.21202 -0.18979,-0.0113 -0.51152,0.31044 -0.63782,0.50835 -0.0459,0.073 -0.0413,0.1845 0.024,0.2413 0.0593,0.0501 0.15558,0.10266 0.26458,0.16898 -0.0533,0.0187 -0.19332,0.10054 -0.24518,0.1457 m 6.51299,-0.98531 c -0.0317,-0.29986 -0.1584,-1.2252 -0.17075,-1.46297 -0.005,-0.13017 -0.0212,-0.24236 -0.0769,-0.14182 -0.0593,0.1076 -0.0924,0.24589 -0.0734,0.43533 0.0257,0.32667 0.0564,0.57186 0.0861,0.8061 0.0293,0.23707 0.13476,0.94333 0.12382,1.44357 -0.002,0.11712 0.0423,0.14746 0.0787,0.0635 0.0617,-0.14182 0.0949,-0.54787 0.0325,-1.14371 m -1.51836,1.54975 c -0.0413,-0.0406 -0.0769,-0.0861 -0.11077,-0.13088 l -0.0247,-0.002 -0.22436,0.22613 -0.006,0.0413 c 0.031,0.0441 0.066,0.0854 0.10513,0.12489 0.0427,0.0434 0.0885,0.0804 0.13617,0.11359 l 0.0441,-0.004 0.22471,-0.22542 -0.002,-0.0275 c -0.0512,-0.0335 -0.0984,-0.0716 -0.14182,-0.11642 m 1.04705,-1.09326 c -0.15346,-0.01 -0.86255,-0.0229 -1.27847,-0.25224 0.0413,-0.0353 0.13123,-0.15098 0.0988,-0.44167 -0.0314,-0.29069 -0.14782,-1.12184 -0.14782,-1.12184 -0.009,-0.0868 -0.0448,-0.17004 0.005,-0.21413 0.0494,-0.0448 0.15346,-0.12065 0.0935,-0.2025 -0.0596,-0.0822 -0.16263,-0.23777 -0.19262,-0.32596 -0.0254,-0.0744 -0.0473,-0.13653 -0.085,-0.078 -0.0441,0.0674 -0.0596,0.15381 -0.11924,0.23142 -0.0307,0.0413 -0.0631,0.0614 -0.0279,0.12347 0.048,0.084 0.096,0.23777 0.10513,0.34325 0.004,0.055 0.0201,0.17428 0.036,0.28787 0,0 0.2032,1.04987 0.18698,1.22026 0,0 -0.84067,0.0296 -0.94968,0.13582 l -0.16863,0.26176 c -0.0141,0.0289 -0.0127,0.0607 0.0272,0.0543 0.0402,-0.007 0.55668,-0.17216 1.28234,0.11853 -0.0857,0.0296 -1.04387,0.43956 -1.85314,0.34784 -0.12135,-0.003 -0.9719,-0.11501 -1.0421,-0.5461 -0.01,-0.0547 -0.0236,-0.0744 -0.0526,-0.0194 -0.0261,0.049 -0.26211,0.40111 0.10901,0.6537 -0.11818,0.24835 -0.32738,0.58455 -0.64735,0.71614 -0.10442,0.0392 -0.5715,0.1591 -1.04351,-0.0526 -0.0579,-0.0183 -0.14323,0.0282 -0.0554,0.0882 0.0886,0.0607 0.95074,0.61207 1.51059,0.0318 0.0988,-0.10125 0.26741,-0.37289 0.39512,-0.6978 0.57361,0.31186 1.52752,0.14041 1.52752,0.14041 0.20744,-0.0441 0.42475,-0.10548 0.65017,-0.19227 0.11783,-0.0483 0.92957,-0.41557 1.4792,-0.28716 0.11536,0.0282 0.14146,0.0282 0.14146,0.0282 0,0 0.0991,-0.21096 0.12136,-0.26176 0.0219,-0.0512 0.0476,-0.0801 -0.10583,-0.0896 m -4.07388,-1.022 c 0.0441,0.0441 0.091,0.0829 0.14217,0.11713 l 0.002,0.0275 -0.22508,0.22472 -0.0445,0.004 c -0.0473,-0.0325 -0.0928,-0.0709 -0.13581,-0.11325 -0.0392,-0.0399 -0.0741,-0.0811 -0.10513,-0.12523 l 0.006,-0.0413 0.22507,-0.22613 0.0247,0.002 c 0.0339,0.0448 0.0695,0.0903 0.11042,0.13088"
         style="fill:#231f20;fill-opacity:1;fill-rule:nonzero;stroke:none;stroke-width:0.352778"
         clip-path="url(#clipPath1)"
         id="path41-4" /></g></g></svg>
