<?xml version="1.0" encoding="UTF-8" standalone="no"?>
<!-- Created with Inkscape (http://www.inkscape.org/) -->

<svg
   width="17.58642mm"
   height="6.9099998mm"
   viewBox="0 0 17.586419 6.9099997"
   version="1.1"
   id="svg1"
   xml:space="preserve"
   xmlns="http://www.w3.org/2000/svg"
   xmlns:svg="http://www.w3.org/2000/svg"><defs
     id="defs1" /><g
     id="layer1"
     transform="translate(-125.86973,13.109684)"><g
       id="g34"
       transform="translate(-102.21697,-121.16598)"><path
         d="m 237.69545,109.87113 c -0.01,-0.13935 -0.0296,-0.2607 -0.0811,-0.14923 -0.0565,0.11748 -0.084,0.26776 -0.0589,0.47167 0.0377,0.34995 0.0776,0.61242 0.11607,0.8643 0.0377,0.25365 0.16827,1.01036 0.17639,1.54799 10e-4,0.12736 0.0476,0.15805 0.0804,0.067 0.0564,-0.15593 0.0748,-0.59408 -0.009,-1.23296 -0.042,-0.32173 -0.20285,-1.31339 -0.22366,-1.5688 m -1.96568,0.84984 c 0.0198,0.0512 0.0363,0.10936 0.0342,0.14394 -0.0801,0.0773 -0.16616,0.0903 -0.22931,0.0385 -0.0399,-0.0332 -0.055,-0.0956 -0.0512,-0.1771 0.002,-0.0586 0.01,-0.0811 -0.042,-0.0392 -0.067,0.0543 -0.049,0.049 -0.0529,0.0797 -0.0233,0.19227 -0.10583,0.27905 -0.2547,0.28893 -0.0928,0.006 -0.16158,-0.0589 -0.0967,-0.24342 0.0138,-0.0392 -0.0141,-0.0811 -0.055,0 -0.13935,0.27799 -0.0547,0.43321 0.0878,0.45402 0.11571,0.0169 0.25365,-0.0487 0.32385,-0.22436 0.0536,0.0889 0.16263,0.115 0.26106,0.0889 0.12559,-0.0325 0.1531,-0.091 0.18909,-0.19297 0.0353,-0.0988 0.036,-0.22895 -0.0109,-0.38523 -0.008,-0.0261 -0.0222,-0.012 -0.0279,0.001 l -0.0681,0.12735 c -0.007,0.0141 -0.0138,0.0247 -0.007,0.0399 m 1.1243,-0.54645 c -0.006,-0.0628 0.004,-0.0917 0.0159,-0.1076 0.0145,-0.0198 0.0857,-0.12206 0.11006,-0.17498 0.0123,-0.0279 -0.0106,-0.0956 -0.0402,-0.13406 -0.0434,-0.0564 -0.14429,-0.22225 -0.15593,-0.27128 -0.0131,-0.0547 -0.0434,-0.11501 -0.0674,-0.0635 -0.0501,0.1076 -0.11854,0.17674 -0.13582,0.2032 -0.0169,0.0268 -0.0505,0.11395 -0.01,0.19332 0.0413,0.0797 0.0776,0.133 0.0857,0.18627 0.009,0.0561 0.008,0.15169 0.0321,0.26705 0.0286,0.14041 0.32103,1.82598 0.33584,1.91382 0.0145,0.0875 0.0339,0.18274 -0.0607,0.20673 -0.12206,0.0314 -0.48013,-0.0363 -0.5535,-0.0504 0.031,-0.10654 0.0522,-0.19262 0.0575,-0.22261 0.0141,-0.0773 -0.0646,-0.0536 -0.0819,-0.009 -0.0173,0.0451 -0.11465,0.31821 -0.15487,0.4445 -0.0377,0.11713 -0.31855,-0.005 -0.42192,-0.049 0.0751,-0.13476 0.0921,-0.25717 0.10054,-0.29668 0.0258,-0.11536 -0.0508,-0.0832 -0.0635,-0.0381 -0.18344,0.49001 -0.81068,0.51893 -1.01847,0.50024 0.0988,-0.11466 0.17534,-0.26811 0.20003,-0.47484 0.01,-0.0741 -0.0413,-0.0924 -0.0737,-0.0194 -0.0317,0.0737 -0.21061,0.48577 -0.77646,0.4953 -0.0797,0.004 -0.55951,0.0127 -0.62654,-0.58173 -0.0194,-0.17851 -0.35807,-2.53718 -0.39335,-2.62044 -0.0353,-0.0836 -0.0445,-0.0384 -0.0543,-0.0162 l -0.0797,0.27799 c 0.0289,0.16687 0.22084,1.50531 0.25259,1.71944 0.0314,0.21379 0.11536,0.8375 0.14746,0.97861 0.10195,0.6738 0.67063,0.57503 0.67063,0.57503 0.0388,-0.001 0.19191,-0.0131 0.36301,-0.0787 0.6283,0.0907 0.98143,-0.0374 1.1818,-0.21132 l 3.6e-4,0.008 c 0.019,0.10407 0.34501,0.21696 0.42298,0.2279 0.0773,0.0106 0.0991,0.001 0.14852,-0.0744 0.0483,-0.0903 0.0952,-0.21238 0.13617,-0.33197 0.0497,0.0314 0.15452,0.0917 0.31679,0.1524 0.11183,0.0416 0.39053,0.11607 0.4438,-0.006 0.0536,-0.12206 0.12876,-0.43427 0.0476,-0.82691 -0.0448,-0.21661 -0.30127,-1.69122 -0.30127,-1.69122 m -5.52521,0.69815 c -0.0201,0.0487 -0.0466,0.16757 -0.0667,0.24941 -0.0205,0.0822 0.0353,0.4057 0.0427,0.44662 0.007,0.0378 -0.30516,-0.003 -0.4371,-0.0459 0.0247,-0.0804 0.0416,-0.17251 0.0476,-0.27693 0.005,-0.0727 -0.0653,-0.15134 -0.10054,0.003 -0.0339,0.15028 -0.19332,0.59408 -0.83291,0.48013 -0.0723,-0.14252 -0.14393,-0.26211 -0.14393,-0.26211 -0.0381,-0.067 -0.073,-0.11077 -0.09,-0.0716 -0.0166,0.0392 -0.0734,0.3429 -0.0734,0.3429 0.084,0.11783 0.40993,0.75635 0.37888,0.86783 -0.03,0.11148 -0.29668,0.67063 -1.13806,0.62724 -0.0882,-0.005 -0.94297,-0.12559 -0.51717,-1.10384 0.0152,-0.0353 -0.0226,-0.10583 -0.0773,-0.0251 -0.0705,0.10513 -0.49318,1.24883 0.39511,1.46226 0.15064,0.0367 0.82444,0.0995 1.31375,-0.46637 0.0564,-0.0656 0.21731,-0.38911 0.10266,-0.97155 0.10336,-0.0116 0.381,-0.0628 0.57608,-0.29951 0.0931,0.0727 0.27411,0.12383 0.39723,0.13794 0.14323,0.0166 0.18027,-0.0406 0.27658,-0.19932 0.14393,-0.35313 0.0564,-0.75001 0.0152,-0.8576 -0.0406,-0.10795 -0.0476,-0.085 -0.0688,-0.0374 m 2.82964,-0.5708 c 0.0346,-0.0152 1.76212,-0.73201 1.8235,-0.76376 0.061,-0.0317 0.097,-0.0416 0.1263,-0.0952 0.0296,-0.0529 0.0363,-0.0624 0.0533,-0.0998 0.0173,-0.0395 0.0377,-0.0854 -0.0755,-0.0318 -0.073,0.0346 -1.78223,0.74683 -1.86019,0.77893 -0.0769,0.0318 -0.0998,0.0462 -0.11713,0.0981 -0.0173,0.0526 -0.0257,0.0804 -0.0296,0.0914 -0.0148,0.0353 -0.0339,0.0716 0.0794,0.0222 m -1.15782,2.92241 c -0.073,0.0342 -0.97155,0.40711 -1.04916,0.43886 -0.0776,0.0307 -0.10054,0.0448 -0.11854,0.0974 -0.0173,0.0519 -0.0258,0.0794 -0.0303,0.0907 -0.0148,0.0353 -0.0335,0.0709 0.0794,0.0229 0.0353,-0.0152 0.95109,-0.39264 1.01283,-0.42404 0.061,-0.0307 0.0974,-0.0406 0.127,-0.0945 0.03,-0.0522 0.037,-0.061 0.054,-0.0984 0.018,-0.0399 0.0388,-0.085 -0.0751,-0.0328 m -1.21073,-0.24906 c -0.0868,-0.0187 -0.0868,-0.25365 -0.0843,-0.32174 0.002,-0.067 0.0554,-0.036 0.1083,-0.0212 0.12806,0.0385 0.6791,-0.10371 0.89888,-0.15275 0.0603,-0.0141 0.0529,-0.072 0.0388,-0.11536 -0.24377,-0.53904 -0.57044,-0.65475 -0.65476,-0.68615 l 0.0116,-0.29245 0.049,-0.0384 c 0.35701,0.0797 0.57432,0.48542 0.61807,0.58949 0.15734,0.33584 0.0797,0.73201 0.0607,0.78704 -0.0194,0.0561 -0.0607,0.0751 -0.10653,0.0896 -0.0455,0.0148 -0.65688,0.2032 -0.9398,0.16193 m 10.95904,-2.53788 c 0.01,-0.0349 0.03,-0.22543 -0.06,-0.34043 -0.0554,-0.0603 -0.11641,-0.0642 -0.20037,0.0656 -0.0254,0.0392 -0.0261,0.0801 0.03,0.115 0.0564,0.0346 0.23037,0.15981 0.23037,0.15981 m -0.80751,0.91934 c -0.0907,0.043 -0.16828,-0.008 0.0395,-0.15663 0.31962,-0.22755 0.56444,-0.38242 0.66604,-0.55704 0,0 -0.19438,-0.12524 -0.28292,-0.21378 -0.0885,-0.0892 0.024,-0.33514 0.11147,-0.4318 0.22402,-0.25153 0.33056,-0.0854 0.35737,-0.0402 0.1083,0.21025 0.043,0.47342 0.0113,0.54821 0,0 0.0868,0.0649 0.11183,0.0914 0.0346,0.0367 0.019,0.11148 -0.0265,0.24483 -0.0162,0.0469 -0.0674,-0.0808 -0.18733,-0.13688 -0.0942,0.19862 -0.19755,0.36618 -0.8008,0.65193 m -2.42888,-0.92463 c 0.01,-0.0353 0.03,-0.22577 -0.0603,-0.34078 -0.055,-0.0603 -0.11607,-0.0642 -0.20003,0.066 -0.0254,0.0392 -0.0261,0.0797 0.03,0.11501 0.0564,0.0342 0.23036,0.1598 0.23036,0.1598 m -0.8075,0.91899 c -0.091,0.043 -0.16828,-0.008 0.0399,-0.15663 0.31926,-0.22754 0.56409,-0.38241 0.66569,-0.55669 0,0 -0.19403,-0.12559 -0.28257,-0.21413 -0.0885,-0.0893 0.0236,-0.33514 0.11112,-0.43145 0.22401,-0.25188 0.3302,-0.0854 0.35736,-0.0402 0.10831,0.2099 0.043,0.47308 0.0113,0.54786 0,0 0.0868,0.0653 0.11183,0.0914 0.0346,0.037 0.019,0.11148 -0.0264,0.24483 -0.0162,0.0469 -0.067,-0.0804 -0.18733,-0.13652 -0.0942,0.19826 -0.19755,0.36618 -0.8008,0.65158 m 2.41229,-1.12078 c 0.0123,-0.004 0.0272,-0.002 0.0423,-0.0159 0.0494,-0.0462 0.0907,-0.16898 0.0956,-0.21096 -0.006,-0.0318 -0.12065,-0.0434 -0.15382,-0.0511 -0.11359,-0.0272 -0.22189,-0.0871 -0.34007,-0.0949 -0.18204,-0.0116 -0.35137,0.0706 -0.44521,0.26247 -0.0106,0.025 -0.0261,0.0586 -0.0356,0.0836 -0.0113,0.042 0.0102,0.0702 0.0325,0.0378 0.025,-0.0378 0.0564,-0.0748 0.0956,-0.0984 0.0935,-0.0565 0.19262,-0.0783 0.29386,-0.0684 0.0917,0.009 0.26423,0.0734 0.26353,0.0822 -7.1e-4,0.0201 -0.40076,0.21802 -0.46355,0.25753 -0.0272,0.0169 -0.0607,0.0483 -0.0547,0.0797 0.005,0.0243 0.0434,0.0293 0.0758,0.0176 0.15734,-0.0568 0.21379,-0.0529 0.34079,-0.10725 0.1718,-0.0734 0.2226,-0.1651 0.25294,-0.17392 m -2.08421,2.40242 c -0.024,0.0511 -0.0554,0.13899 -0.0741,0.1905 -0.006,0.018 0.008,0.0402 0.0303,0.0272 0.127,-0.078 0.31715,-0.17392 0.51894,-0.24518 0.18309,-0.0649 0.32703,-0.10689 0.46002,-0.1143 0.0205,-0.003 0.12947,-0.19438 0.14535,-0.22225 0.0233,-0.0356 0.007,-0.0473 -0.0219,-0.0416 -0.15451,0.0296 -0.2741,0.0568 -0.46108,0.0399 -0.23071,-0.0205 -0.41098,-0.19685 -0.40463,-0.266 0.005,-0.0529 0.16863,-0.15769 0.22966,-0.14816 0.17674,0.0279 0.17356,0.18344 0.22119,0.18521 0.0568,0.002 0.17215,-0.20215 0.17956,-0.25753 0.007,-0.0607 -0.11324,-0.20497 -0.2286,-0.21167 -0.19015,-0.0116 -0.51188,0.31009 -0.63817,0.508 -0.0459,0.0727 -0.0413,0.1845 0.0243,0.2413 0.0586,0.0501 0.15522,0.10266 0.26423,0.16898 -0.0533,0.0187 -0.19332,0.10054 -0.24518,0.1457 m 6.51298,-0.98531 c -0.0317,-0.29986 -0.1584,-1.2252 -0.17039,-1.46297 -0.005,-0.13017 -0.0215,-0.24236 -0.0773,-0.14182 -0.0593,0.1076 -0.0924,0.24589 -0.0734,0.43533 0.0258,0.32667 0.0565,0.57185 0.0861,0.8061 0.0293,0.23707 0.13476,0.94333 0.12383,1.44357 -0.002,0.11712 0.0427,0.14746 0.0787,0.0635 0.0617,-0.14182 0.0949,-0.54787 0.0325,-1.14371 m -1.51835,1.55011 c -0.0413,-0.0409 -0.0769,-0.0861 -0.11078,-0.13088 l -0.0247,-0.002 -0.22437,0.22577 -0.006,0.0416 c 0.031,0.0441 0.0663,0.0854 0.10513,0.12453 0.0427,0.0434 0.0886,0.0808 0.13617,0.1136 l 0.0441,-0.003 0.22472,-0.22543 -0.002,-0.0275 c -0.0515,-0.0339 -0.0988,-0.0716 -0.14217,-0.11641 m 1.04704,-1.09361 c -0.15346,-0.01 -0.86254,-0.0226 -1.27847,-0.25224 0.0413,-0.0349 0.13124,-0.15064 0.0988,-0.44168 -0.0314,-0.29069 -0.14781,-1.12148 -0.14781,-1.12148 -0.009,-0.0868 -0.0448,-0.17039 0.005,-0.21449 0.0497,-0.0448 0.15346,-0.12065 0.0938,-0.20249 -0.06,-0.0819 -0.16299,-0.23777 -0.19297,-0.32597 -0.0254,-0.0744 -0.0473,-0.13652 -0.0854,-0.078 -0.0441,0.0677 -0.0589,0.15381 -0.11853,0.23178 -0.031,0.0413 -0.0635,0.0614 -0.0282,0.12312 0.048,0.0843 0.096,0.23777 0.10513,0.34325 0.004,0.055 0.0201,0.17427 0.036,0.28787 0,0 0.2032,1.05021 0.18697,1.22025 0,0 -0.84067,0.0296 -0.94968,0.13582 l -0.16862,0.26176 c -0.0141,0.0289 -0.0127,0.0607 0.0272,0.0547 0.0402,-0.007 0.55704,-0.1725 1.28235,0.11854 -0.0857,0.0296 -1.04387,0.43956 -1.85314,0.34784 -0.12136,-0.003 -0.97191,-0.11501 -1.04211,-0.54646 -0.01,-0.0543 -0.0236,-0.0744 -0.0526,-0.0194 -0.0265,0.049 -0.26176,0.40111 0.10865,0.65405 -0.11747,0.24801 -0.32667,0.5842 -0.64664,0.71579 -0.10477,0.0392 -0.57185,0.1591 -1.04352,-0.0522 -0.0582,-0.0187 -0.14358,0.0282 -0.0557,0.0882 0.0885,0.0607 0.95074,0.61172 1.5106,0.0318 0.0991,-0.1016 0.2674,-0.37289 0.39511,-0.69815 0.57362,0.31221 1.52788,0.14041 1.52788,0.14041 0.20708,-0.0441 0.42475,-0.10513 0.64946,-0.19191 0.11819,-0.0483 0.92993,-0.41557 1.47991,-0.28752 0.115,0.0282 0.14111,0.0282 0.14111,0.0282 0,0 0.0988,-0.2106 0.12135,-0.26176 0.0219,-0.0512 0.048,-0.0801 -0.10583,-0.0896 m -4.18394,-1.15252 -0.025,-0.002 -0.22472,0.22578 -0.006,0.0413 c 0.0311,0.0441 0.0663,0.0857 0.10513,0.12558 0.043,0.042 0.0885,0.0804 0.13617,0.11289 l 0.0445,-0.003 0.22437,-0.22436 -0.002,-0.0275 c -0.0512,-0.0346 -0.0981,-0.073 -0.14217,-0.11713 -0.0409,-0.0409 -0.0765,-0.0864 -0.11006,-0.13088 m -10.64119,-1.06397 c 0.008,-0.0318 0.0272,-0.20461 -0.0543,-0.30904 -0.0501,-0.0543 -0.10583,-0.0579 -0.18168,0.0596 -0.0229,0.0356 -0.0236,0.0727 0.0272,0.10442 0.0508,0.0314 0.20885,0.145 0.20885,0.145 m -0.73166,0.83255 c -0.0819,0.0392 -0.15276,-0.007 0.036,-0.14217 0.28928,-0.20602 0.51117,-0.34643 0.60325,-0.50412 0,0 -0.17604,-0.11359 -0.25612,-0.19402 -0.0804,-0.0808 0.0212,-0.30339 0.10054,-0.39088 0.20285,-0.22825 0.29951,-0.0776 0.3235,-0.0367 0.0984,0.1905 0.0392,0.42898 0.0106,0.49671 0,0 0.0787,0.0589 0.1016,0.0829 0.031,0.0332 0.0169,0.10089 -0.0243,0.22154 -0.0152,0.0427 -0.0607,-0.073 -0.16968,-0.12382 -0.085,0.17991 -0.17886,0.33196 -0.72531,0.59055"
         style="fill:#231f20;fill-opacity:1;fill-rule:nonzero;stroke:none;stroke-width:0.352778"
         clip-path="url(#clipPath1)"
         id="path29" /></g></g></svg>
