<?xml version="1.0" encoding="UTF-8" standalone="no"?>
<!-- Created with Inkscape (http://www.inkscape.org/) -->

<svg
   width="16.131565mm"
   height="6.9099998mm"
   viewBox="0 0 16.131564 6.9099997"
   version="1.1"
   id="svg1"
   xml:space="preserve"
   xmlns="http://www.w3.org/2000/svg"
   xmlns:svg="http://www.w3.org/2000/svg"><defs
     id="defs1" /><g
     id="layer1"
     transform="translate(-321.29924,-4.2846228)"><g
       id="g35"
       transform="translate(97.10184,-94.017121)"><path
         d="m 224.9271,99.499729 c -0.0508,-0.03175 -0.0501,-0.06879 -0.0272,-0.104423 0.0762,-0.117475 0.13158,-0.1143 0.18168,-0.05962 0.0815,0.104422 0.0628,0.27693 0.0543,0.309033 0,0 -0.1577,-0.113947 -0.20885,-0.144991 m 0.2025,0.386997 c 0.109,0.0508 0.15522,0.166515 0.17003,0.123825 0.0409,-0.12065 0.055,-0.188384 0.024,-0.221897 -0.0226,-0.02364 -0.1016,-0.0829 -0.1016,-0.0829 0.0286,-0.06738 0.0878,-0.305859 -0.0102,-0.496359 -0.0243,-0.04092 -0.121,-0.191558 -0.32349,0.03634 -0.0797,0.08749 -0.18133,0.310444 -0.1009,0.39123 0.0801,0.08043 0.25612,0.193675 0.25612,0.193675 -0.0921,0.158045 -0.31397,0.298451 -0.60325,0.504471 -0.18874,0.13511 -0.11783,0.18098 -0.0356,0.14217 0.5461,-0.25859 0.63994,-0.41099 0.72496,-0.590549 m 7.75617,1.939929 c 0.0603,0.68897 0.0261,1.15816 -0.036,1.32362 -0.036,0.0967 -0.0808,0.0624 -0.078,-0.0741 0.012,-0.57821 -0.091,-1.39489 -0.11994,-1.66935 -0.0293,-0.27128 -0.0593,-0.55492 -0.0843,-0.93274 -0.018,-0.21978 0.0152,-0.37994 0.0755,-0.504121 0.0557,-0.117122 0.0716,0.01341 0.0762,0.163331 0.0113,0.27552 0.13617,1.3462 0.16651,1.69334 m -5.69278,0.25506 c 0.0437,0.0441 0.091,0.0825 0.14182,0.11641 l 0.002,0.0279 -0.22472,0.22508 -0.0448,0.003 c -0.0469,-0.0325 -0.0924,-0.0709 -0.13582,-0.11325 -0.0392,-0.0392 -0.0737,-0.0808 -0.10513,-0.12488 l 0.006,-0.0413 0.22472,-0.22578 0.0247,0.002 c 0.0342,0.0448 0.0692,0.0907 0.11042,0.13088 m 4.98546,0.0773 c 0.0811,0.393 0.006,0.70521 -0.0476,0.82692 -0.0533,0.12206 -0.33196,0.0473 -0.4445,0.006 -0.16192,-0.0603 -0.26634,-0.12101 -0.31644,-0.15276 -0.0409,0.1203 -0.0875,0.24236 -0.13617,0.33267 -0.0494,0.0755 -0.0713,0.085 -0.14852,0.0741 -0.0776,-0.0109 -0.40428,-0.12382 -0.42298,-0.22789 l -3.5e-4,-0.008 c -0.20038,0.17356 -0.55316,0.30162 -1.18181,0.21061 -0.1711,0.066 -0.32455,0.0776 -0.36265,0.079 0,0 -0.56904,0.0988 -0.67134,-0.57538 -0.0318,-0.14041 -0.11536,-0.76377 -0.14676,-0.9779 -0.0325,-0.21414 -0.22401,-1.55364 -0.25259,-1.7198 l 0.0794,-0.277984 c 0.01,-0.02258 0.0198,-0.06738 0.0547,0.01587 0.0353,0.0829 0.37394,2.442284 0.3937,2.620784 0.0667,0.59478 0.5461,0.58526 0.62583,0.58208 0.56585,-0.01 0.74506,-0.42192 0.77681,-0.49565 0.0317,-0.0734 0.0833,-0.0543 0.0734,0.0198 -0.0247,0.20673 -0.10124,0.35983 -0.19932,0.47484 0.20779,0.0183 0.83468,-0.0106 1.01812,-0.50059 0.0127,-0.0448 0.0892,-0.0769 0.0635,0.0384 -0.008,0.0392 -0.0258,0.16192 -0.10089,0.29668 0.10301,0.0444 0.38452,0.16546 0.42192,0.049 0.0406,-0.12594 0.13793,-0.39969 0.15487,-0.44485 0.0169,-0.0451 0.0959,-0.0681 0.0818,0.009 -0.005,0.0303 -0.0261,0.11571 -0.0572,0.2226 0.0734,0.0141 0.43145,0.0818 0.55316,0.0504 0.0942,-0.0243 0.0751,-0.11924 0.0607,-0.20708 -0.0145,-0.0878 -0.30726,-1.77376 -0.33655,-1.91346 -0.0233,-0.11607 -0.0222,-0.21167 -0.031,-0.26706 -0.008,-0.0536 -0.0448,-0.10724 -0.0861,-0.18662 -0.0409,-0.0794 -0.007,-0.166507 0.01,-0.192965 0.0176,-0.02681 0.0861,-0.09596 0.13617,-0.203553 0.0236,-0.05115 0.054,0.0088 0.067,0.06279 0.012,0.04974 0.11254,0.215194 0.15628,0.271638 0.0296,0.0381 0.0526,0.10583 0.0402,0.13406 -0.0243,0.0529 -0.0956,0.15522 -0.11077,0.17497 -0.0113,0.0162 -0.0215,0.0452 -0.0152,0.10795 0,0 0.25682,1.47426 0.30127,1.69122 m -4.30495,0.44909 c -0.0166,0.037 -0.0243,0.0459 -0.0543,0.0988 -0.0293,0.0533 -0.0649,0.0628 -0.12735,0.0938 -0.061,0.031 -0.97684,0.40887 -1.01177,0.42368 -0.11359,0.0483 -0.0942,0.0127 -0.0794,-0.0226 0.004,-0.0113 0.013,-0.0388 0.0303,-0.0907 0.0173,-0.0529 0.0406,-0.0667 0.11818,-0.0981 0.0776,-0.0307 0.97649,-0.40393 1.04951,-0.43815 0.11324,-0.0526 0.0928,-0.007 0.0748,0.0332 m 1.19839,-2.09903 c 0.004,-0.0109 0.012,-0.0392 0.0272,-0.0921 0.0159,-0.0529 0.0392,-0.0677 0.11465,-0.1016 0.0769,-0.0339 1.66511,-0.681562 1.73708,-0.717545 0.11148,-0.05645 0.0928,-0.01023 0.0759,0.02999 -0.0155,0.03739 -0.0219,0.04763 -0.0501,0.101247 -0.0279,0.05398 -0.0635,0.06456 -0.12382,0.09772 -0.0607,0.03316 -1.66652,0.686148 -1.70074,0.702028 -0.11183,0.0522 -0.0935,0.0155 -0.0801,-0.0197 m -1.83057,3.24273 c -0.10019,0.0455 -0.86113,0.26423 -1.0929,0.30974 -0.97508,0.19544 -1.63089,-0.21414 -1.68981,-1.1116 -0.055,-0.82444 0.37359,-1.38889 0.53305,-1.60302 0.0522,-0.0698 0.1016,-0.12277 0.14817,-0.16546 -0.17181,-0.17886 -0.33091,-0.0617 -0.3683,-0.0219 -0.0392,0.042 -0.0667,0.0159 -0.0508,-0.054 0.096,-0.34995 0.25082,-0.45402 0.53128,-0.49777 0.28046,-0.043 0.49495,0.0885 0.5341,0.1203 0.13053,0.0938 0.0462,0.27058 -0.0159,0.39053 -0.0215,0.0434 -0.0811,0.0804 -0.16263,0.12453 0.0787,0.0444 0.1397,0.0769 0.15628,0.0833 0.70767,0.23459 1.54799,-0.15276 1.59597,-0.18239 0.0476,-0.0293 -0.15487,-0.31397 -0.25506,-0.44626 0,0 0.0455,-0.2667 0.0593,-0.3235 0.0138,-0.0568 0.0317,-0.0543 0.0684,-0.0134 0.31186,0.30762 0.28011,0.66745 0.27058,0.77646 -0.0318,0.25047 -0.091,0.28117 -0.14957,0.31292 -0.53481,0.26599 -0.98425,0.27657 -1.14406,0.27657 -0.58279,-0.0236 -0.7306,-0.15134 -0.8756,-0.31714 -0.25611,0.1658 -0.5655,0.43885 -0.68897,0.98425 -0.12735,0.68368 0.078,1.11654 0.61524,1.27529 0.53728,0.15981 1.74872,-0.0268 1.94945,-0.0452 0.20073,-0.0183 0.13229,0.0819 0.0317,0.1277 m 3.4731,-2.75272 c 0.0201,0.0511 0.0367,0.10901 0.0346,0.14323 -0.0797,0.0769 -0.16545,0.0896 -0.22824,0.0381 -0.0395,-0.0328 -0.0547,-0.0946 -0.0505,-0.17569 0.002,-0.0582 0.009,-0.0804 -0.042,-0.0392 -0.0667,0.0543 -0.0483,0.0487 -0.0526,0.0794 -0.0233,0.19121 -0.10548,0.27694 -0.25259,0.28681 -0.0928,0.007 -0.16086,-0.0582 -0.0963,-0.2413 0.0138,-0.0395 -0.0138,-0.0808 -0.0547,0 -0.13829,0.27588 -0.0543,0.42969 0.0871,0.45085 0.11465,0.0166 0.25224,-0.0487 0.32174,-0.22295 0.0533,0.0878 0.16157,0.1143 0.25929,0.0882 0.12523,-0.0321 0.1524,-0.0903 0.18803,-0.19191 0.0346,-0.0977 0.0356,-0.22754 -0.0113,-0.38241 -0.008,-0.0258 -0.0215,-0.012 -0.0275,0.001 l -0.067,0.12664 c -0.008,0.0141 -0.0137,0.0243 -0.008,0.0392 m 6.43502,-0.45261 c -0.0561,-0.0353 -0.0554,-0.0759 -0.0296,-0.11501 0.084,-0.13017 0.14499,-0.12629 0.20037,-0.066 0.09,0.11501 0.0695,0.30551 0.06,0.34079 0,0 -0.17392,-0.12559 -0.23072,-0.15981 m 0.22366,0.42721 c 0.1203,0.0561 0.17145,0.18345 0.18768,0.13653 0.0452,-0.13335 0.0607,-0.20779 0.0265,-0.24483 -0.0254,-0.0261 -0.11219,-0.0914 -0.11219,-0.0914 0.0317,-0.0748 0.0974,-0.33796 -0.0113,-0.54786 -0.0265,-0.0452 -0.13335,-0.21167 -0.35736,0.0402 -0.0875,0.0963 -0.19967,0.34254 -0.11112,0.43144 0.0885,0.0885 0.28292,0.21414 0.28292,0.21414 -0.1016,0.17427 -0.34678,0.32949 -0.66604,0.55668 -0.20814,0.14887 -0.13018,0.19967 -0.0395,0.15664 0.60325,-0.2854 0.70661,-0.45332 0.80045,-0.65159 m -3.45969,-0.43285 c -0.0564,-0.0349 -0.0557,-0.0759 -0.03,-0.11501 0.084,-0.12982 0.14499,-0.12594 0.20038,-0.066 0.09,0.11536 0.0695,0.30586 0.06,0.34078 0,0 -0.17392,-0.12523 -0.23036,-0.1598 m 0.22331,0.42721 c 0.12029,0.0561 0.17145,0.1838 0.18768,0.13688 0.0455,-0.13335 0.061,-0.20814 0.0265,-0.24518 -0.025,-0.0261 -0.11183,-0.091 -0.11183,-0.091 0.0314,-0.0748 0.097,-0.33796 -0.0116,-0.54822 -0.0265,-0.0452 -0.13335,-0.21167 -0.35701,0.0402 -0.0875,0.0967 -0.20002,0.34255 -0.11148,0.4318 0.0885,0.0886 0.28293,0.21378 0.28293,0.21378 -0.1016,0.17428 -0.34678,0.3295 -0.66604,0.55669 -0.20814,0.14887 -0.13018,0.20002 -0.0395,0.15698 0.60325,-0.28575 0.70662,-0.45332 0.80046,-0.65193 m 1.61184,-0.46884 c 0.0123,-0.003 0.0272,-0.002 0.0423,-0.0162 0.0494,-0.0462 0.0907,-0.16898 0.0952,-0.21061 -0.005,-0.0321 -0.12029,-0.0434 -0.15346,-0.0515 -0.11359,-0.0272 -0.22189,-0.0871 -0.34007,-0.0945 -0.18239,-0.0116 -0.35137,0.0702 -0.44556,0.26247 -0.0102,0.0247 -0.0254,0.0582 -0.0353,0.0832 -0.0113,0.042 0.0102,0.0706 0.0325,0.0381 0.025,-0.0378 0.0564,-0.0748 0.0956,-0.0988 0.0935,-0.0564 0.19262,-0.078 0.29386,-0.0684 0.0917,0.009 0.26423,0.0734 0.26388,0.0825 -0.001,0.0201 -0.40146,0.21801 -0.4639,0.25717 -0.0275,0.0173 -0.0607,0.0487 -0.055,0.0801 0.005,0.024 0.0434,0.0293 0.0759,0.0176 0.15734,-0.0572 0.21414,-0.0533 0.34114,-0.10724 0.17145,-0.0737 0.2226,-0.1651 0.25294,-0.17392 m -2.08421,2.40242 c -0.0243,0.0512 -0.0557,0.13899 -0.0741,0.19014 -0.006,0.0183 0.008,0.0406 0.0303,0.0275 0.127,-0.078 0.31715,-0.17392 0.51859,-0.24553 0.18344,-0.0649 0.32737,-0.10689 0.46037,-0.1143 0.0205,-0.003 0.12912,-0.19438 0.1457,-0.2219 0.0229,-0.036 0.006,-0.0473 -0.0222,-0.042 -0.15451,0.0296 -0.27446,0.0571 -0.46108,0.0399 -0.23071,-0.0205 -0.41098,-0.19649 -0.40499,-0.26564 0.005,-0.0529 0.16899,-0.15769 0.23002,-0.14817 0.17674,0.0275 0.17356,0.1831 0.22119,0.18486 0.0568,0.002 0.17251,-0.20179 0.17956,-0.25753 0.007,-0.0603 -0.11359,-0.20496 -0.22895,-0.21166 -0.1898,-0.0116 -0.51153,0.31009 -0.63782,0.50835 -0.0459,0.0727 -0.0416,0.1845 0.0243,0.24095 0.0586,0.0501 0.15487,0.10301 0.26423,0.16898 -0.0533,0.0191 -0.19332,0.10054 -0.24518,0.14605 m 6.51298,-0.98567 c -0.0318,-0.2995 -0.15875,-1.22519 -0.17074,-1.46261 -0.005,-0.13053 -0.0212,-0.24271 -0.0773,-0.14217 -0.0593,0.1076 -0.0921,0.24624 -0.0734,0.43568 0.0261,0.32632 0.0568,0.57185 0.0864,0.8061 0.0293,0.23706 0.13441,0.94332 0.12383,1.44356 -0.002,0.11713 0.0423,0.14746 0.0787,0.0631 0.0617,-0.14181 0.0945,-0.54751 0.0325,-1.1437 m -1.51835,1.5501 c -0.0413,-0.0406 -0.0769,-0.0861 -0.11113,-0.13088 l -0.0243,-0.002 -0.22472,0.22613 -0.006,0.0413 c 0.0311,0.0441 0.066,0.0854 0.10513,0.12489 0.0427,0.0434 0.0885,0.0804 0.13582,0.11359 l 0.0441,-0.004 0.22507,-0.22542 -0.002,-0.0275 c -0.0512,-0.0335 -0.0984,-0.0716 -0.14181,-0.11642 m 1.04704,-1.09326 c -0.15346,-0.01 -0.86289,-0.0229 -1.27847,-0.25224 0.0413,-0.0353 0.13124,-0.15098 0.0988,-0.44167 -0.0314,-0.29069 -0.14781,-1.12184 -0.14781,-1.12184 -0.009,-0.0868 -0.0448,-0.17004 0.005,-0.21413 0.0494,-0.0448 0.15345,-0.12065 0.0935,-0.20285 -0.06,-0.0818 -0.16298,-0.237419 -0.19297,-0.325614 -0.025,-0.07444 -0.0469,-0.136525 -0.0847,-0.07796 -0.0441,0.06738 -0.0596,0.153459 -0.11924,0.231423 -0.031,0.04127 -0.0635,0.06138 -0.0279,0.123471 0.048,0.084 0.096,0.23777 0.10513,0.3429 0.004,0.0554 0.0201,0.17463 0.0356,0.28822 0,0 0.20355,1.04987 0.18732,1.22026 0,0 -0.84067,0.0296 -0.95003,0.13582 l -0.16827,0.26176 c -0.0141,0.0289 -0.0127,0.0607 0.0272,0.0543 0.0399,-0.007 0.55668,-0.17216 1.28235,0.11853 -0.0857,0.0296 -1.04387,0.43956 -1.85314,0.34784 -0.12136,-0.003 -0.97191,-0.115 -1.04211,-0.54645 -0.01,-0.0543 -0.024,-0.0741 -0.0529,-0.0191 -0.0257,0.0487 -0.26176,0.40111 0.10901,0.6537 -0.11747,0.248 -0.32702,0.58455 -0.64664,0.71613 -0.10478,0.0392 -0.57185,0.15911 -1.04352,-0.0526 -0.0582,-0.0187 -0.14358,0.0282 -0.0557,0.0882 0.0885,0.0607 0.95074,0.61207 1.5106,0.0318 0.0988,-0.10124 0.2674,-0.37288 0.39511,-0.69779 0.57362,0.31185 1.52753,0.1404 1.52753,0.1404 0.20743,-0.0441 0.42474,-0.10548 0.64981,-0.19226 0.11818,-0.0483 0.92993,-0.41557 1.47955,-0.28716 0.11501,0.0282 0.14147,0.0282 0.14147,0.0282 0,0 0.0988,-0.21096 0.121,-0.26211 0.0222,-0.0508 0.048,-0.0797 -0.10548,-0.0892 m -4.07388,-1.022 c 0.0441,0.0441 0.091,0.0825 0.14217,0.11712 l 0.002,0.0275 -0.22472,0.22472 -0.0445,0.004 c -0.0476,-0.0325 -0.0928,-0.0709 -0.13617,-0.11324 -0.0388,-0.0399 -0.0737,-0.0811 -0.10478,-0.12524 l 0.006,-0.0413 0.22507,-0.22613 0.0247,0.002 c 0.0339,0.0448 0.0695,0.0903 0.11042,0.13088"
         style="fill:#231f20;fill-opacity:1;fill-rule:nonzero;stroke:none;stroke-width:0.352778"
         clip-path="url(#clipPath1)"
         id="path24" /></g></g></svg>
