<?xml version="1.0" encoding="UTF-8" standalone="no"?>
<!-- Created with Inkscape (http://www.inkscape.org/) -->

<svg
   width="15.428118mm"
   height="6.9099998mm"
   viewBox="0 0 15.428117 6.9099997"
   version="1.1"
   id="svg1"
   xml:space="preserve"
   xmlns="http://www.w3.org/2000/svg"
   xmlns:svg="http://www.w3.org/2000/svg"><defs
     id="defs1" /><g
     id="layer1"
     transform="translate(-292.58587,-4.2846228)"><g
       id="g36"
       transform="translate(91.016855,-94.998842)"><path
         d="m 207.02087,101.97825 -0.20462,0.24448 -0.002,0.0416 c 0.0353,0.0416 0.0737,0.0801 0.11606,0.11571 0.0462,0.0384 0.0953,0.0723 0.14464,0.10054 l 0.0441,-0.007 0.20425,-0.24412 -0.004,-0.0272 c -0.054,-0.0293 -0.10407,-0.0631 -0.15169,-0.10372 -0.0445,-0.037 -0.0836,-0.079 -0.12207,-0.12065 z m 0.0871,0.8121 -0.008,0.0145 -0.10195,-0.0741 c -0.0459,-0.0384 -0.0864,-0.0818 -0.12454,-0.12489 l -0.0272,3.5e-4 -0.21167,0.2533 -0.003,0.0437 c 0.037,0.0423 0.0762,0.0829 0.121,0.11959 0.0469,0.0402 0.0974,0.0751 0.15029,0.10442 l 0.0459,-0.008 0.19967,-0.23847 0.078,0.0734 c 0.048,0.0399 0.0981,0.0744 0.15028,0.10406 l 0.0462,-0.007 0.21096,-0.25329 -0.006,-0.0279 c -0.054,-0.0314 -0.10583,-0.0663 -0.15628,-0.1083 -0.0462,-0.0381 -0.0854,-0.0818 -0.12453,-0.12524 l -0.0261,3.5e-4 z m -2.65712,0.03 c 0.13264,-0.0656 0.23072,-0.0476 0.2854,0.0557 0.0561,0.10371 0.17039,0.33055 0.0776,0.30585 -0.0843,-0.0219 -0.40534,-0.0974 -0.48895,-0.21731 0.048,-0.072 0.0896,-0.12594 0.12594,-0.14428 m 0.34572,0.73272 c 0.0896,3.5e-4 0.1016,0.008 0.13512,-0.0674 0.0332,-0.0759 0.0755,-0.17428 0.0797,-0.23813 0.004,-0.0646 0.008,-0.45826 -0.054,-0.6223 -0.048,-0.15769 -0.25365,-0.25118 -0.37395,-0.15557 -0.2741,0.24729 -0.36053,0.44944 -0.45684,0.57291 -0.0811,0.10336 -0.33691,0.40746 -0.7105,0.22542 -0.0699,-0.14358 -0.14005,-0.26423 -0.14005,-0.26423 -0.037,-0.0663 -0.0709,-0.10901 -0.0868,-0.0699 -0.0162,0.0384 -0.0713,0.33973 -0.0713,0.33973 0.0815,0.11747 0.39687,0.75106 0.36759,0.86183 -0.0293,0.11078 -0.2861,0.6664 -1.0989,0.62477 -0.0847,-0.005 -0.86466,-0.12841 -0.50059,-1.09608 0.0134,-0.0353 -0.0219,-0.10513 -0.0748,-0.0243 -0.0681,0.10372 -0.47484,1.24072 0.38347,1.45168 0.14569,0.0356 0.79622,0.0977 1.26823,-0.46496 0.054,-0.0649 0.20744,-0.38311 0.0995,-0.95497 0.0959,10e-4 0.19296,-0.0236 0.29598,-0.0783 0.0974,-0.0614 0.1905,-0.18697 0.27516,-0.31926 l 0.0229,0.0303 c 0.12665,0.097 0.55069,0.248 0.63994,0.24871 m 3.74121,-0.38594 c 0.0769,0.45402 -0.0885,0.81244 -0.12418,0.86783 -0.1972,0.28434 -0.54469,0.0356 -0.61559,-0.008 -0.0713,-0.0441 -0.133,-0.0127 -0.21979,0.0374 -0.66498,0.40958 -1.17933,0.34572 -1.28834,0.33232 -0.60078,-0.0684 -0.65123,-0.80116 -0.67381,-1.00648 -0.0261,-0.23107 -0.13229,-1.39276 -0.22789,-1.76177 -0.0321,-0.1457 0.0318,-0.38241 0.0455,-0.4505 0.0138,-0.0688 0.0459,-0.091 0.0727,0.0134 0.0279,0.10478 0.27305,1.95333 0.30092,2.14454 0.0907,0.63253 0.46426,0.66922 0.59619,0.70132 0.58279,0.0681 1.17017,-0.26388 1.26612,-0.33232 0.0952,-0.0684 0.20003,-0.01 0.25012,0.0138 0.0498,0.0222 0.25012,0.10478 0.37324,0.12277 0.12312,0.018 0.13194,-0.16369 0.11818,-0.27799 -0.0134,-0.11359 -0.25964,-1.52506 -0.27199,-1.61184 -0.0261,-0.17851 -0.055,-0.30798 -0.0621,-0.34255 -0.024,-0.11606 -0.0229,-0.21166 -0.0317,-0.26705 -0.008,-0.054 -0.0448,-0.10689 -0.0854,-0.18662 -0.0413,-0.0794 -0.007,-0.16651 0.009,-0.19332 0.0173,-0.0261 0.0861,-0.0952 0.13617,-0.2032 0.024,-0.0508 0.0543,0.009 0.0674,0.0631 0.012,0.0494 0.11218,0.21519 0.15592,0.27128 0.0296,0.0388 0.0522,0.10654 0.0399,0.13371 -0.024,0.0536 -0.0952,0.15628 -0.11007,0.17533 -0.0116,0.0162 -0.0222,0.0452 -0.0155,0.10795 0,0 0.26282,1.46508 0.29492,1.65699 m -3.18488,1.00154 c -0.0152,0.0374 -0.0219,0.0469 -0.0501,0.1009 -0.0279,0.054 -0.0632,0.0649 -0.12383,0.0981 -0.0607,0.0332 -1.10596,0.46566 -1.14088,0.48224 -0.11148,0.0519 -0.0935,0.0159 -0.0801,-0.0201 0.005,-0.0113 0.0124,-0.0392 0.0275,-0.0921 0.0155,-0.0529 0.0388,-0.0674 0.115,-0.10125 0.0762,-0.0342 1.1049,-0.46178 1.17687,-0.49812 0.11112,-0.0561 0.0924,-0.01 0.0755,0.0303 m 0.63006,-3.25861 c 0.004,-0.0109 0.0131,-0.0392 0.0296,-0.0914 0.0166,-0.0519 0.0402,-0.0667 0.11747,-0.0984 0.0776,-0.0318 1.19733,-0.49635 1.27071,-0.53093 0.11253,-0.0536 0.0928,-0.007 0.0748,0.0325 -0.0162,0.037 -0.0233,0.0462 -0.0526,0.0991 -0.0296,0.0529 -0.066,0.0642 -0.12735,0.0949 -0.0614,0.0318 -1.19803,0.50095 -1.23331,0.51577 -0.11289,0.0494 -0.0938,0.0134 -0.0794,-0.0215 m 3.29953,2.00518 c 0.0783,0.63853 0.0554,1.07562 -0.002,1.2312 -0.0335,0.0903 -0.079,0.0593 -0.0801,-0.0674 -0.003,-0.53764 -0.12665,-1.29399 -0.16263,-1.54799 -0.0353,-0.25188 -0.0734,-0.51435 -0.10795,-0.86431 -0.0233,-0.2039 0.006,-0.35348 0.0628,-0.47095 0.0522,-0.11007 0.0716,0.0109 0.0797,0.15063 0.019,0.25506 0.17039,1.24707 0.21025,1.5688 m -6.72641,-0.26317 c 0.0437,0.0448 0.0907,0.0829 0.14182,0.11677 l 0.002,0.0279 -0.22507,0.22507 -0.0441,0.002 c -0.0476,-0.0325 -0.0931,-0.0702 -0.13582,-0.11288 -0.0388,-0.0388 -0.0741,-0.0808 -0.10512,-0.12524 l 0.006,-0.0413 0.22472,-0.22578 0.0247,0.002 c 0.0342,0.0448 0.0695,0.0903 0.11077,0.13088 m -0.30445,-1.47814 c -0.0504,-0.0317 -0.0497,-0.0684 -0.0272,-0.10442 0.0762,-0.11747 0.13159,-0.11395 0.18203,-0.0593 0.0811,0.10407 0.0628,0.27693 0.054,0.30868 0,0 -0.15769,-0.11359 -0.20885,-0.14499 m 0.20285,0.387 c 0.10866,0.0512 0.15487,0.16651 0.16969,0.12417 0.0409,-0.121 0.055,-0.18873 0.024,-0.22189 -0.0226,-0.024 -0.1016,-0.0829 -0.1016,-0.0829 0.0286,-0.0677 0.0878,-0.30621 -0.0102,-0.49671 -0.024,-0.0409 -0.121,-0.19156 -0.32349,0.0367 -0.0794,0.0875 -0.18133,0.31044 -0.10054,0.39123 0.0797,0.0801 0.25611,0.19367 0.25611,0.19367 -0.0921,0.15805 -0.31397,0.29845 -0.60325,0.50447 -0.18909,0.13476 -0.11783,0.18098 -0.036,0.14182 0.54645,-0.25859 0.63994,-0.41063 0.72531,-0.59055 m 4.7311,-0.42862 c 0.0198,0.0508 0.0363,0.10865 0.0342,0.14287 -0.0794,0.0769 -0.1651,0.0896 -0.22789,0.0381 -0.0395,-0.0328 -0.0547,-0.0945 -0.0508,-0.17568 0.002,-0.0582 0.01,-0.0804 -0.042,-0.0392 -0.0663,0.0543 -0.048,0.049 -0.0522,0.0794 -0.0236,0.1912 -0.10548,0.27693 -0.25295,0.28716 -0.0928,0.006 -0.16051,-0.0586 -0.0959,-0.24165 0.0138,-0.0392 -0.0138,-0.0808 -0.055,0 -0.13794,0.27587 -0.054,0.42968 0.0871,0.45085 0.11501,0.0166 0.25224,-0.0487 0.32174,-0.22296 0.0536,0.0882 0.16157,0.1143 0.25964,0.0882 0.12488,-0.0321 0.15205,-0.09 0.18768,-0.19156 0.0349,-0.0981 0.036,-0.22754 -0.0109,-0.38241 -0.008,-0.0261 -0.0219,-0.0123 -0.0275,7.1e-4 l -0.0674,0.12664 c -0.007,0.0141 -0.0134,0.0243 -0.008,0.0395 m 6.59554,0.40676 c -0.0561,-0.0353 -0.0554,-0.0759 -0.03,-0.11536 0.084,-0.12982 0.14499,-0.12594 0.20038,-0.0656 0.09,0.115 0.0699,0.3055 0.06,0.34078 0,0 -0.17392,-0.12559 -0.23036,-0.15981 m 0.22366,0.42686 c 0.12029,0.0564 0.17145,0.1838 0.18732,0.13688 0.0455,-0.13335 0.061,-0.20814 0.0265,-0.24483 -0.0251,-0.0261 -0.11183,-0.0914 -0.11183,-0.0914 0.0317,-0.0748 0.097,-0.33796 -0.0113,-0.54821 -0.0265,-0.0452 -0.13335,-0.21132 -0.35736,0.0406 -0.0875,0.0963 -0.19968,0.34219 -0.11113,0.43145 0.0885,0.0885 0.28258,0.21413 0.28258,0.21413 -0.1016,0.17427 -0.34643,0.32914 -0.66569,0.55669 -0.20814,0.14887 -0.13018,0.19967 -0.0399,0.15663 0.60325,-0.2854 0.70662,-0.45332 0.80081,-0.65193 m -3.46005,-0.43251 c -0.0561,-0.0353 -0.0554,-0.0759 -0.03,-0.11501 0.0843,-0.12982 0.14499,-0.12629 0.20073,-0.066 0.09,0.11501 0.0695,0.30551 0.06,0.34079 0,0 -0.17427,-0.12524 -0.23072,-0.15981 m 0.22366,0.42721 c 0.1203,0.0561 0.1711,0.18345 0.18733,0.13688 0.0455,-0.13335 0.0614,-0.20814 0.0265,-0.24518 -0.0251,-0.0261 -0.11183,-0.0914 -0.11183,-0.0914 0.0317,-0.0744 0.0974,-0.33796 -0.0113,-0.54786 -0.0265,-0.0452 -0.13335,-0.21167 -0.35737,0.0402 -0.0875,0.0963 -0.19967,0.34254 -0.11112,0.4318 0.0885,0.0885 0.28293,0.21378 0.28293,0.21378 -0.10196,0.17427 -0.34678,0.32949 -0.66605,0.55668 -0.20814,0.14887 -0.13017,0.20003 -0.0395,0.15664 0.6029,-0.2854 0.70626,-0.45332 0.80045,-0.65158 m 1.61149,-0.4692 c 0.0127,-0.004 0.0275,-0.002 0.0427,-0.0159 0.0494,-0.0462 0.0903,-0.16898 0.0953,-0.21061 -0.006,-0.0321 -0.12065,-0.0434 -0.15381,-0.0515 -0.1136,-0.0272 -0.22155,-0.0871 -0.33973,-0.0945 -0.18238,-0.012 -0.35136,0.0702 -0.44556,0.26212 -0.0102,0.025 -0.0254,0.0586 -0.0356,0.0836 -0.0113,0.042 0.0106,0.0702 0.0325,0.0381 0.025,-0.0377 0.0564,-0.0748 0.096,-0.0988 0.0931,-0.0564 0.19261,-0.078 0.29386,-0.0684 0.0914,0.009 0.26423,0.0734 0.26388,0.0822 -0.001,0.0201 -0.40146,0.21801 -0.46426,0.25752 -0.0272,0.0173 -0.0607,0.0483 -0.0547,0.0797 0.005,0.0243 0.0434,0.0293 0.0759,0.018 0.15734,-0.0572 0.21378,-0.0533 0.34113,-0.10759 0.17145,-0.0734 0.22225,-0.16475 0.25259,-0.17392 m -2.08386,2.40241 c -0.0243,0.0512 -0.0557,0.139 -0.0744,0.1905 -0.006,0.0183 0.008,0.0406 0.0307,0.0272 0.127,-0.078 0.31715,-0.17391 0.51858,-0.24518 0.1831,-0.0649 0.32738,-0.10689 0.46038,-0.1143 0.0205,-0.003 0.12912,-0.19438 0.1457,-0.22189 0.0226,-0.036 0.006,-0.0476 -0.0222,-0.042 -0.15452,0.0296 -0.27446,0.0571 -0.46108,0.0399 -0.23107,-0.0205 -0.41099,-0.1965 -0.40499,-0.266 0.005,-0.0529 0.16898,-0.15734 0.22966,-0.14816 0.17674,0.0279 0.17392,0.18344 0.22119,0.1852 0.0572,0.002 0.17286,-0.20179 0.17992,-0.25752 0.007,-0.0607 -0.1136,-0.20497 -0.22895,-0.21167 -0.1898,-0.0116 -0.51153,0.31009 -0.63783,0.50835 -0.0462,0.0727 -0.0416,0.1845 0.024,0.24095 0.0589,0.0501 0.15522,0.10266 0.26459,0.16898 -0.0533,0.0187 -0.19333,0.10054 -0.24519,0.1457 m 6.51263,-0.98531 c -0.0318,-0.29986 -0.15839,-1.2252 -0.17039,-1.46297 -0.005,-0.13018 -0.0212,-0.24236 -0.0773,-0.14182 -0.0593,0.1076 -0.0924,0.24589 -0.0734,0.43533 0.0257,0.32667 0.0564,0.57185 0.0861,0.80645 0.0293,0.23671 0.13477,0.94298 0.12418,1.44321 -0.002,0.11713 0.0423,0.14747 0.0783,0.0635 0.0617,-0.14181 0.0949,-0.54786 0.0325,-1.1437 m -1.51835,1.5501 c -0.0413,-0.0406 -0.0766,-0.0861 -0.11077,-0.13088 l -0.0243,-0.002 -0.22472,0.22613 -0.006,0.0413 c 0.0314,0.0441 0.0663,0.0854 0.10548,0.12453 0.0423,0.0434 0.0882,0.0808 0.13582,0.11395 l 0.0441,-0.004 0.22508,-0.22542 -0.002,-0.0275 c -0.0515,-0.0339 -0.0988,-0.0716 -0.14217,-0.11642 m 1.0474,-1.09361 c -0.15346,-0.01 -0.8629,-0.0226 -1.27847,-0.25224 0.0409,-0.0349 0.13123,-0.15063 0.0984,-0.44167 -0.031,-0.29069 -0.14781,-1.12148 -0.14781,-1.12148 -0.009,-0.0868 -0.0445,-0.1704 0.005,-0.21449 0.0494,-0.0448 0.15346,-0.1203 0.0935,-0.2025 -0.06,-0.0819 -0.16298,-0.23777 -0.19297,-0.32596 -0.0251,-0.0744 -0.0473,-0.13618 -0.0847,-0.0776 -0.0441,0.0674 -0.0596,0.15345 -0.11924,0.23142 -0.031,0.0413 -0.0635,0.0614 -0.0279,0.12312 0.0476,0.0843 0.096,0.23777 0.10513,0.34325 0.004,0.055 0.0201,0.17427 0.0356,0.28822 0,0 0.2032,1.04987 0.18697,1.22026 0,0 -0.84031,0.0296 -0.94967,0.13546 l -0.16863,0.26177 c -0.0141,0.0293 -0.0127,0.0607 0.0275,0.0547 0.0399,-0.007 0.55668,-0.17216 1.28199,0.11853 -0.0854,0.0296 -1.04387,0.43956 -1.85314,0.34784 -0.121,-0.004 -0.97155,-0.11501 -1.04211,-0.54645 -0.01,-0.0543 -0.0236,-0.0744 -0.0526,-0.019 -0.0258,0.0487 -0.26176,0.40075 0.10901,0.65369 -0.11748,0.24801 -0.32703,0.5842 -0.64664,0.71579 -0.10478,0.0395 -0.57221,0.15945 -1.04387,-0.0522 -0.0582,-0.0187 -0.14358,0.0282 -0.0557,0.0882 0.0886,0.0607 0.95109,0.61172 1.51095,0.0318 0.0988,-0.10125 0.26705,-0.37289 0.39511,-0.69815 0.57361,0.31221 1.52752,0.14076 1.52752,0.14076 0.20744,-0.0441 0.42475,-0.10548 0.64982,-0.19226 0.11783,-0.0483 0.92957,-0.41558 1.47955,-0.28752 0.11501,0.0282 0.14111,0.0282 0.14111,0.0282 0,0 0.0991,-0.21061 0.12136,-0.26176 0.0219,-0.0508 0.048,-0.0797 -0.10548,-0.0896 m -4.07423,-1.02164 c 0.0441,0.0441 0.091,0.0825 0.14252,0.11712 l 0.002,0.0275 -0.22471,0.22472 -0.0445,0.003 c -0.0476,-0.0321 -0.0931,-0.0709 -0.13618,-0.11289 -0.0388,-0.0399 -0.0741,-0.0811 -0.10512,-0.12524 l 0.006,-0.0416 0.22508,-0.22577 0.0247,0.002 c 0.0339,0.0448 0.0691,0.0903 0.11007,0.13088"
         style="fill:#231f20;fill-opacity:1;fill-rule:nonzero;stroke:none;stroke-width:0.352778"
         clip-path="url(#clipPath1)"
         id="path31" /></g></g></svg>
